<svg width="32" height="32" viewBox="0 0 32 32" fill="none" xmlns="http://www.w3.org/2000/svg">
<path d="M8.29 5.31006H2.8C2.36 5.31006 2 5.67006 2 6.11006V23.5701C2 24.0101 2.36 24.3701 2.8 24.3701H8.29V5.31006Z" fill="#D3D3D3"/>
<path d="M4.30005 5.77002H29.5" stroke="#D3D3D3" stroke-miterlimit="10" stroke-linecap="round" stroke-linejoin="round"/>
<path d="M4.30005 10.3H29.5" stroke="#D3D3D3" stroke-miterlimit="10" stroke-linecap="round" stroke-linejoin="round"/>
<path d="M4.30005 14.8301H29.5" stroke="#D3D3D3" stroke-miterlimit="10" stroke-linecap="round" stroke-linejoin="round"/>
<path d="M4.30005 19.3701H29.5" stroke="#D3D3D3" stroke-miterlimit="10" stroke-linecap="round" stroke-linejoin="round"/>
<path d="M4.30005 23.9001H29.5" stroke="#D3D3D3" stroke-miterlimit="10" stroke-linecap="round" stroke-linejoin="round"/>
<path d="M19.0101 3C17.8301 3 16.8701 3.96 16.8701 5.14V12.04C19.2401 12.04 21.1601 10.12 21.1601 7.75V5.14C21.1501 3.96 20.1901 3 19.0101 3Z" stroke="#1C1C1C" stroke-width="1.5" stroke-miterlimit="10" stroke-linecap="round" stroke-linejoin="round"/>
<path d="M17.5002 12C14.3202 12 11.7402 14.58 11.7402 17.76C11.7402 20.3 13.8002 22.36 16.3402 22.36C18.3702 22.36 20.0202 20.71 20.0202 18.68C20.0202 17.05 18.7002 15.73 17.0702 15.73C15.7702 15.73 14.7102 16.79 14.7102 18.09" stroke="#1C1C1C" stroke-width="1.5" stroke-miterlimit="10" stroke-linecap="round" stroke-linejoin="round"/>
<path d="M16.8601 12.49V25.33V26.98C16.8601 28.36 15.7401 29.48 14.3601 29.48C12.9801 29.48 11.8601 28.36 11.8601 26.98V26.53" stroke="#1C1C1C" stroke-width="1.5" stroke-miterlimit="10" stroke-linecap="round" stroke-linejoin="round"/>
<path d="M12.7401 28.0901C13.6348 28.0901 14.3601 27.3648 14.3601 26.4701C14.3601 25.5754 13.6348 24.8501 12.7401 24.8501C11.8454 24.8501 11.1201 25.5754 11.1201 26.4701C11.1201 27.3648 11.8454 28.0901 12.7401 28.0901Z" fill="#1C1C1C"/>
<path d="M4.99512 29.0205H4.13672L3.09961 25.4111H3.89355L4.55859 28.2471H4.57031L5.28516 25.4111H6.09082L6.78516 28.209H6.79688L7.47656 25.4111H8.24707L7.18945 29.0205H6.36914L5.70996 26.3047H5.70117L4.99512 29.0205Z" fill="#FFC444"/>
<path d="M9.60352 29H8.85938V25.4111H9.60352V29Z" fill="#FFC444"/>
<path d="M10.5996 29V25.4111H12.0322C12.3057 25.4111 12.5439 25.459 12.7471 25.5547C12.9521 25.6504 13.1104 25.79 13.2217 25.9736C13.333 26.1572 13.3887 26.377 13.3887 26.6328C13.3887 26.8887 13.333 27.1084 13.2217 27.292C13.1104 27.4756 12.9521 27.6162 12.7471 27.7139C12.5439 27.8096 12.3057 27.8574 12.0322 27.8574H11.3467V29H10.5996ZM11.918 27.2598C12.1523 27.2598 12.332 27.209 12.457 27.1074C12.582 27.0039 12.6445 26.8457 12.6445 26.6328C12.6445 26.4199 12.582 26.2627 12.457 26.1611C12.332 26.0576 12.1523 26.0059 11.918 26.0059H11.3467V27.2598H11.918Z" fill="#FFC444"/>
<path d="M0 0V-2H-2V0H0ZM32 0H34V-2H32V0ZM32 32V34H34V32H32ZM0 32H-2V34H0V32ZM0 2H32V-2H0V2ZM30 0V32H34V0H30ZM32 30H0V34H32V30ZM2 32V0H-2V32H2Z" fill="#FFC444"/>
</svg>
