<svg xmlns="http://www.w3.org/2000/svg" width="32" height="32" fill="none"><path fill="#fff" d="M27.875 15.938c0 6.592-5.345 11.937-11.938 11.937C9.346 27.875 4 22.53 4 15.937 4 9.346 9.345 4 15.938 4c6.592 0 11.937 5.345 11.937 11.938Z"/><path fill="#000" d="M22.995 12.619a3.868 3.868 0 0 1-1.116 2.723 4.437 4.437 0 1 1-5.53 0 3.881 3.881 0 1 1 6.646-2.723Zm-3.881 1.631a1.63 1.63 0 1 0 0-3.262 1.63 1.63 0 0 0 0 3.262Zm0 6.25a1.687 1.687 0 1 0 0-3.375 1.687 1.687 0 0 0 0 3.375ZM13.557 10.331a1.25 1.25 0 0 0-2.113-.904l-2.76 2.637a1.25 1.25 0 0 0 1.727 1.808l.646-.618v8.36a1.25 1.25 0 0 0 2.5 0V10.331Z"/><path fill="#F8312F" d="M16 30c7.732 0 14-6.268 14-14S23.732 2 16 2 2 8.268 2 16s6.268 14 14 14Zm6.645-5.233A10.952 10.952 0 0 1 16 27C9.925 27 5 22.075 5 16c0-2.497.832-4.8 2.233-6.645l15.412 15.412Zm2.122-2.122L9.355 7.233A10.952 10.952 0 0 1 16 5c6.075 0 11 4.925 11 11 0 2.497-.832 4.8-2.233 6.645Z"/></svg>