<svg width="32" height="32" viewBox="0 0 32 32" fill="none" xmlns="http://www.w3.org/2000/svg">
<path fill-rule="evenodd" clip-rule="evenodd" d="M3 16C3 8.8203 8.8203 3 16 3C23.1797 3 29 8.8203 29 16C29 17.7848 28.6403 19.4857 27.9895 21.034C27.8295 21.0116 27.6661 21 27.5 21C25.567 21 24 22.567 24 24.5C24 25.0298 24.1177 25.5321 24.3284 25.9822C22.0728 27.8662 19.1688 29 16 29C14.1189 29 12.331 28.6004 10.7168 27.8816C10.899 27.4577 11 26.9907 11 26.5C11 24.567 9.433 23 7.50001 23C6.74813 23 6.05163 23.2371 5.48118 23.6406C3.9206 21.4958 3 18.8554 3 16ZM16 1C7.71573 1 1 7.71573 1 16C1 24.2843 7.71573 31 16 31C24.2843 31 31 24.2843 31 16C31 7.71573 24.2843 1 16 1ZM17 5.5C17 6.32843 16.3284 7 15.5 7C14.6716 7 14 6.32843 14 5.5C14 4.67157 14.6716 4 15.5 4C16.3284 4 17 4.67157 17 5.5ZM13 12.5C13 14.433 11.433 16 9.5 16C7.567 16 6 14.433 6 12.5C6 10.567 7.567 9 9.5 9C11.433 9 13 10.567 13 12.5ZM22.5 14C23.8807 14 25 12.8807 25 11.5C25 10.1193 23.8807 9 22.5 9C21.1193 9 20 10.1193 20 11.5C20 12.8807 21.1193 14 22.5 14ZM19 21.5C19 22.8807 17.8807 24 16.5 24C15.1193 24 14 22.8807 14 21.5C14 20.1193 15.1193 19 16.5 19C17.8807 19 19 20.1193 19 21.5Z" fill="#212121"/>
<path d="M17 5.5C17 6.32843 16.3284 7 15.5 7C14.6716 7 14 6.32843 14 5.5C14 4.67157 14.6716 4 15.5 4C16.3284 4 17 4.67157 17 5.5Z" fill="#212121"/>
<path d="M13 12.5C13 14.433 11.433 16 9.5 16C7.567 16 6 14.433 6 12.5C6 10.567 7.567 9 9.5 9C11.433 9 13 10.567 13 12.5Z" fill="#212121"/>
<path d="M22.5 14C23.8807 14 25 12.8807 25 11.5C25 10.1193 23.8807 9 22.5 9C21.1193 9 20 10.1193 20 11.5C20 12.8807 21.1193 14 22.5 14Z" fill="#212121"/>
<path d="M19 21.5C19 22.8807 17.8807 24 16.5 24C15.1193 24 14 22.8807 14 21.5C14 20.1193 15.1193 19 16.5 19C17.8807 19 19 20.1193 19 21.5Z" fill="#212121"/>
<path d="M16 1C7.71573 1 1 7.71573 1 16C1 24.2843 7.71573 31 16 31C24.2843 31 31 24.2843 31 16C31 7.71573 24.2843 1 16 1ZM3 16C3 8.8203 8.8203 3 16 3C23.1797 3 29 8.8203 29 16C29 17.7848 28.6403 19.4857 27.9895 21.034C27.8295 21.0116 27.6661 21 27.5 21C25.567 21 24 22.567 24 24.5C24 25.0298 24.1177 25.5321 24.3284 25.9822C22.0728 27.8662 19.1688 29 16 29C14.1189 29 12.331 28.6004 10.7168 27.8816C10.899 27.4577 11 26.9907 11 26.5C11 24.567 9.433 23 7.50001 23C6.74813 23 6.05163 23.2371 5.48118 23.6406C3.9206 21.4958 3 18.8554 3 16Z" fill="#212121"/>
</svg>
