<svg width="32" height="32" viewBox="0 0 32 32" fill="none" xmlns="http://www.w3.org/2000/svg">
<rect width="1.94553" height="3.44006" transform="matrix(-0.997137 -0.075622 -0.075622 0.997137 19.8309 6.90894)" fill="url(#paint0_radial_2_9873)"/>
<rect width="1.94553" height="3.44006" transform="matrix(-0.997137 -0.075622 -0.075622 0.997137 19.8309 6.90894)" fill="url(#paint1_radial_2_9873)"/>
<path d="M22.3782 5.979C22.222 5.83213 22.1413 5.61312 22.1204 5.52197H21.9407V6.64697C22.1555 6.78369 22.4628 6.76219 22.554 6.55713C22.6322 6.38135 22.5735 6.1626 22.3782 5.979Z" fill="url(#paint2_radial_2_9873)"/>
<g filter="url(#filter0_i_2_9873)">
<path d="M22.1542 5.01516C22.1157 4.21397 21.8562 3.82778 21.734 3.71484H18.0017L17.9392 6.87844C18.8057 9.00022 21.4507 9.09116 21.8457 8.32375C22.2407 7.55634 22.1989 5.94273 22.1542 5.01516Z" fill="url(#paint3_linear_2_9873)"/>
<path d="M22.1542 5.01516C22.1157 4.21397 21.8562 3.82778 21.734 3.71484H18.0017L17.9392 6.87844C18.8057 9.00022 21.4507 9.09116 21.8457 8.32375C22.2407 7.55634 22.1989 5.94273 22.1542 5.01516Z" fill="url(#paint4_radial_2_9873)"/>
</g>
<g filter="url(#filter1_i_2_9873)">
<path d="M22.0033 2.6625C21.7658 2.175 21.297 2.06921 21.019 2.08438C20.1596 2.13125 20.0424 2.42812 19.2651 2.26797C18.4435 2.09871 18.0384 2.14738 17.687 2.30703L17.6801 2.3102C17.3335 2.46763 16.6166 2.79325 16.6166 4.26016C16.6166 5.61172 17.0985 6.32526 17.3316 6.58047L17.2858 6.59699C17.0543 6.68064 16.9588 6.92699 17.0424 7.15859C17.1136 7.35611 17.364 7.46992 17.6791 7.42031C18.0392 7.36361 18.3035 7.31448 18.5109 7.27331C18.6273 7.25022 18.7105 7.14772 18.7105 7.02912V5.91641C18.7105 5.44766 19.0411 5.16771 19.1869 5.08437C19.2025 4.6 19.351 4.37734 19.5931 4.26016C19.9942 4.0661 20.119 4.16212 21.0776 4.10391C22.0425 4.04531 22.3002 3.27187 22.0033 2.6625Z" fill="#FFBA23"/>
<path d="M22.0033 2.6625C21.7658 2.175 21.297 2.06921 21.019 2.08438C20.1596 2.13125 20.0424 2.42812 19.2651 2.26797C18.4435 2.09871 18.0384 2.14738 17.687 2.30703L17.6801 2.3102C17.3335 2.46763 16.6166 2.79325 16.6166 4.26016C16.6166 5.61172 17.0985 6.32526 17.3316 6.58047L17.2858 6.59699C17.0543 6.68064 16.9588 6.92699 17.0424 7.15859C17.1136 7.35611 17.364 7.46992 17.6791 7.42031C18.0392 7.36361 18.3035 7.31448 18.5109 7.27331C18.6273 7.25022 18.7105 7.14772 18.7105 7.02912V5.91641C18.7105 5.44766 19.0411 5.16771 19.1869 5.08437C19.2025 4.6 19.351 4.37734 19.5931 4.26016C19.9942 4.0661 20.119 4.16212 21.0776 4.10391C22.0425 4.04531 22.3002 3.27187 22.0033 2.6625Z" fill="url(#paint5_radial_2_9873)"/>
<path d="M22.0033 2.6625C21.7658 2.175 21.297 2.06921 21.019 2.08438C20.1596 2.13125 20.0424 2.42812 19.2651 2.26797C18.4435 2.09871 18.0384 2.14738 17.687 2.30703L17.6801 2.3102C17.3335 2.46763 16.6166 2.79325 16.6166 4.26016C16.6166 5.61172 17.0985 6.32526 17.3316 6.58047L17.2858 6.59699C17.0543 6.68064 16.9588 6.92699 17.0424 7.15859C17.1136 7.35611 17.364 7.46992 17.6791 7.42031C18.0392 7.36361 18.3035 7.31448 18.5109 7.27331C18.6273 7.25022 18.7105 7.14772 18.7105 7.02912V5.91641C18.7105 5.44766 19.0411 5.16771 19.1869 5.08437C19.2025 4.6 19.351 4.37734 19.5931 4.26016C19.9942 4.0661 20.119 4.16212 21.0776 4.10391C22.0425 4.04531 22.3002 3.27187 22.0033 2.6625Z" fill="url(#paint6_radial_2_9873)"/>
<path d="M22.0033 2.6625C21.7658 2.175 21.297 2.06921 21.019 2.08438C20.1596 2.13125 20.0424 2.42812 19.2651 2.26797C18.4435 2.09871 18.0384 2.14738 17.687 2.30703L17.6801 2.3102C17.3335 2.46763 16.6166 2.79325 16.6166 4.26016C16.6166 5.61172 17.0985 6.32526 17.3316 6.58047L17.2858 6.59699C17.0543 6.68064 16.9588 6.92699 17.0424 7.15859C17.1136 7.35611 17.364 7.46992 17.6791 7.42031C18.0392 7.36361 18.3035 7.31448 18.5109 7.27331C18.6273 7.25022 18.7105 7.14772 18.7105 7.02912V5.91641C18.7105 5.44766 19.0411 5.16771 19.1869 5.08437C19.2025 4.6 19.351 4.37734 19.5931 4.26016C19.9942 4.0661 20.119 4.16212 21.0776 4.10391C22.0425 4.04531 22.3002 3.27187 22.0033 2.6625Z" fill="url(#paint7_radial_2_9873)"/>
<path d="M22.0033 2.6625C21.7658 2.175 21.297 2.06921 21.019 2.08438C20.1596 2.13125 20.0424 2.42812 19.2651 2.26797C18.4435 2.09871 18.0384 2.14738 17.687 2.30703L17.6801 2.3102C17.3335 2.46763 16.6166 2.79325 16.6166 4.26016C16.6166 5.61172 17.0985 6.32526 17.3316 6.58047L17.2858 6.59699C17.0543 6.68064 16.9588 6.92699 17.0424 7.15859C17.1136 7.35611 17.364 7.46992 17.6791 7.42031C18.0392 7.36361 18.3035 7.31448 18.5109 7.27331C18.6273 7.25022 18.7105 7.14772 18.7105 7.02912V5.91641C18.7105 5.44766 19.0411 5.16771 19.1869 5.08437C19.2025 4.6 19.351 4.37734 19.5931 4.26016C19.9942 4.0661 20.119 4.16212 21.0776 4.10391C22.0425 4.04531 22.3002 3.27187 22.0033 2.6625Z" fill="url(#paint8_radial_2_9873)"/>
<path d="M22.0033 2.6625C21.7658 2.175 21.297 2.06921 21.019 2.08438C20.1596 2.13125 20.0424 2.42812 19.2651 2.26797C18.4435 2.09871 18.0384 2.14738 17.687 2.30703L17.6801 2.3102C17.3335 2.46763 16.6166 2.79325 16.6166 4.26016C16.6166 5.61172 17.0985 6.32526 17.3316 6.58047L17.2858 6.59699C17.0543 6.68064 16.9588 6.92699 17.0424 7.15859C17.1136 7.35611 17.364 7.46992 17.6791 7.42031C18.0392 7.36361 18.3035 7.31448 18.5109 7.27331C18.6273 7.25022 18.7105 7.14772 18.7105 7.02912V5.91641C18.7105 5.44766 19.0411 5.16771 19.1869 5.08437C19.2025 4.6 19.351 4.37734 19.5931 4.26016C19.9942 4.0661 20.119 4.16212 21.0776 4.10391C22.0425 4.04531 22.3002 3.27187 22.0033 2.6625Z" fill="url(#paint9_radial_2_9873)"/>
</g>
<path d="M19.3834 6.46947L19.184 5.03003C18.8341 5.08236 18.5658 5.38412 18.5658 5.74856C18.5658 6.14983 18.8911 6.47513 19.2923 6.47513C19.3232 6.47513 19.3536 6.4732 19.3834 6.46947Z" fill="url(#paint10_radial_2_9873)"/>
<path fill-rule="evenodd" clip-rule="evenodd" d="M20.9023 6.92271C20.854 6.97199 20.8547 7.05113 20.904 7.09948C21.1422 7.33311 21.4865 7.3929 21.596 7.40413C21.6647 7.41118 21.7261 7.36121 21.7331 7.29254C21.7401 7.22386 21.6902 7.16248 21.6215 7.15544C21.5279 7.14583 21.255 7.09364 21.0791 6.92103C21.0298 6.87268 20.9507 6.87343 20.9023 6.92271Z" fill="#87014D"/>
<g filter="url(#filter2_i_2_9873)">
<path fill-rule="evenodd" clip-rule="evenodd" d="M21.135 4.77614C21.2355 4.75601 21.3184 4.75636 21.3518 4.76053C21.434 4.7708 21.5089 4.7125 21.5192 4.63029C21.5295 4.54809 21.4712 4.47312 21.389 4.46285C21.3181 4.45399 21.2023 4.45669 21.076 4.482C20.9488 4.50751 20.7988 4.55837 20.6679 4.65512C20.6013 4.70437 20.5872 4.79829 20.6365 4.86491C20.6857 4.93153 20.7796 4.94562 20.8462 4.89638C20.931 4.83375 21.0356 4.79608 21.135 4.77614Z" fill="#AF5247"/>
</g>
<path d="M21.6478 5.80908H20.6595C20.6595 5.41752 20.8808 5.1001 21.1537 5.1001C21.4266 5.1001 21.6478 5.41752 21.6478 5.80908Z" fill="white"/>
<path d="M21.0424 5.80908L21.0424 5.80518C21.0424 5.48481 21.1796 5.2251 21.349 5.2251C21.5184 5.2251 21.6556 5.48481 21.6556 5.80518L21.6556 5.80908H21.0424Z" fill="url(#paint11_radial_2_9873)"/>
<path d="M21.2378 5.80908C21.2352 5.78581 21.2338 5.76162 21.2338 5.73682C21.2338 5.55128 21.3125 5.40088 21.4095 5.40088C21.5066 5.40088 21.5853 5.55128 21.5853 5.73682C21.5853 5.76162 21.5839 5.78581 21.5812 5.80908H21.2378Z" fill="url(#paint12_radial_2_9873)"/>
<ellipse cx="0.0644531" cy="0.0878906" rx="0.0644531" ry="0.0878906" transform="matrix(-0.909163 0.416441 0.416441 0.909163 21.496 5.35083)" fill="url(#paint13_linear_2_9873)"/>
<path d="M28.2385 11.881C28.5237 11.5178 28.5315 11.0099 28.3088 10.5881C28.0862 10.1662 27.7619 9.75604 27.2932 9.77557C26.9653 9.78923 26.6948 10.0513 26.5818 10.3947C26.512 10.4132 26.443 10.4386 26.3755 10.4711L23.3756 11.9183C22.8439 12.1747 22.2142 12.1176 21.7373 11.7697L19.514 10.1474C19.0009 9.773 18.2815 9.88544 17.9071 10.3985C17.5328 10.9116 17.6452 11.631 18.1583 12.0053L20.3816 13.6276C21.544 14.4758 23.0789 14.615 24.3749 13.9898L27.2932 12.5685C27.5392 12.4474 28.0122 12.1693 28.2385 11.881Z" fill="#FFB93C"/>
<path d="M28.2385 11.881C28.5237 11.5178 28.5315 11.0099 28.3088 10.5881C28.0862 10.1662 27.7619 9.75604 27.2932 9.77557C26.9653 9.78923 26.6948 10.0513 26.5818 10.3947C26.512 10.4132 26.443 10.4386 26.3755 10.4711L23.3756 11.9183C22.8439 12.1747 22.2142 12.1176 21.7373 11.7697L19.514 10.1474C19.0009 9.773 18.2815 9.88544 17.9071 10.3985C17.5328 10.9116 17.6452 11.631 18.1583 12.0053L20.3816 13.6276C21.544 14.4758 23.0789 14.615 24.3749 13.9898L27.2932 12.5685C27.5392 12.4474 28.0122 12.1693 28.2385 11.881Z" fill="url(#paint14_radial_2_9873)"/>
<path d="M28.2385 11.881C28.5237 11.5178 28.5315 11.0099 28.3088 10.5881C28.0862 10.1662 27.7619 9.75604 27.2932 9.77557C26.9653 9.78923 26.6948 10.0513 26.5818 10.3947C26.512 10.4132 26.443 10.4386 26.3755 10.4711L23.3756 11.9183C22.8439 12.1747 22.2142 12.1176 21.7373 11.7697L19.514 10.1474C19.0009 9.773 18.2815 9.88544 17.9071 10.3985C17.5328 10.9116 17.6452 11.631 18.1583 12.0053L20.3816 13.6276C21.544 14.4758 23.0789 14.615 24.3749 13.9898L27.2932 12.5685C27.5392 12.4474 28.0122 12.1693 28.2385 11.881Z" fill="url(#paint15_radial_2_9873)"/>
<path d="M28.2385 11.881C28.5237 11.5178 28.5315 11.0099 28.3088 10.5881C28.0862 10.1662 27.7619 9.75604 27.2932 9.77557C26.9653 9.78923 26.6948 10.0513 26.5818 10.3947C26.512 10.4132 26.443 10.4386 26.3755 10.4711L23.3756 11.9183C22.8439 12.1747 22.2142 12.1176 21.7373 11.7697L19.514 10.1474C19.0009 9.773 18.2815 9.88544 17.9071 10.3985C17.5328 10.9116 17.6452 11.631 18.1583 12.0053L20.3816 13.6276C21.544 14.4758 23.0789 14.615 24.3749 13.9898L27.2932 12.5685C27.5392 12.4474 28.0122 12.1693 28.2385 11.881Z" fill="url(#paint16_radial_2_9873)"/>
<path d="M28.2385 11.881C28.5237 11.5178 28.5315 11.0099 28.3088 10.5881C28.0862 10.1662 27.7619 9.75604 27.2932 9.77557C26.9653 9.78923 26.6948 10.0513 26.5818 10.3947C26.512 10.4132 26.443 10.4386 26.3755 10.4711L23.3756 11.9183C22.8439 12.1747 22.2142 12.1176 21.7373 11.7697L19.514 10.1474C19.0009 9.773 18.2815 9.88544 17.9071 10.3985C17.5328 10.9116 17.6452 11.631 18.1583 12.0053L20.3816 13.6276C21.544 14.4758 23.0789 14.615 24.3749 13.9898L27.2932 12.5685C27.5392 12.4474 28.0122 12.1693 28.2385 11.881Z" fill="url(#paint17_radial_2_9873)"/>
<path d="M28.2385 11.881C28.5237 11.5178 28.5315 11.0099 28.3088 10.5881C28.0862 10.1662 27.7619 9.75604 27.2932 9.77557C26.9653 9.78923 26.6948 10.0513 26.5818 10.3947C26.512 10.4132 26.443 10.4386 26.3755 10.4711L23.3756 11.9183C22.8439 12.1747 22.2142 12.1176 21.7373 11.7697L19.514 10.1474C19.0009 9.773 18.2815 9.88544 17.9071 10.3985C17.5328 10.9116 17.6452 11.631 18.1583 12.0053L20.3816 13.6276C21.544 14.4758 23.0789 14.615 24.3749 13.9898L27.2932 12.5685C27.5392 12.4474 28.0122 12.1693 28.2385 11.881Z" fill="url(#paint18_radial_2_9873)"/>
<path d="M18.8637 8.96313L18.1232 8.57295C17.9442 8.47859 17.7404 8.44161 17.5396 8.46702L15.5365 10.2408C15.7659 12.0295 15.4065 13.2483 14.6363 14.3178L18.8898 17.5477C20.4065 14.9124 20.8205 12.4749 20.4457 11.1936C20.128 9.9652 19.395 9.29517 18.8637 8.96313Z" fill="#FF7534"/>
<path d="M18.8637 8.96313L18.1232 8.57295C17.9442 8.47859 17.7404 8.44161 17.5396 8.46702L15.5365 10.2408C15.7659 12.0295 15.4065 13.2483 14.6363 14.3178L18.8898 17.5477C20.4065 14.9124 20.8205 12.4749 20.4457 11.1936C20.128 9.9652 19.395 9.29517 18.8637 8.96313Z" fill="url(#paint19_radial_2_9873)"/>
<path d="M18.8637 8.96313L18.1232 8.57295C17.9442 8.47859 17.7404 8.44161 17.5396 8.46702L15.5365 10.2408C15.7659 12.0295 15.4065 13.2483 14.6363 14.3178L18.8898 17.5477C20.4065 14.9124 20.8205 12.4749 20.4457 11.1936C20.128 9.9652 19.395 9.29517 18.8637 8.96313Z" fill="url(#paint20_radial_2_9873)"/>
<path d="M18.8637 8.96313L18.1232 8.57295C17.9442 8.47859 17.7404 8.44161 17.5396 8.46702L15.5365 10.2408C15.7659 12.0295 15.4065 13.2483 14.6363 14.3178L18.8898 17.5477C20.4065 14.9124 20.8205 12.4749 20.4457 11.1936C20.128 9.9652 19.395 9.29517 18.8637 8.96313Z" fill="url(#paint21_radial_2_9873)"/>
<path d="M18.8637 8.96313L18.1232 8.57295C17.9442 8.47859 17.7404 8.44161 17.5396 8.46702L15.5365 10.2408C15.7659 12.0295 15.4065 13.2483 14.6363 14.3178L18.8898 17.5477C20.4065 14.9124 20.8205 12.4749 20.4457 11.1936C20.128 9.9652 19.395 9.29517 18.8637 8.96313Z" fill="url(#paint22_radial_2_9873)"/>
<circle cx="0.630437" cy="0.630437" r="0.630437" transform="matrix(-1 0 0 1 10.4261 11.4639)" fill="url(#paint23_radial_2_9873)"/>
<g filter="url(#filter3_i_2_9873)">
<path fill-rule="evenodd" clip-rule="evenodd" d="M12.2962 10.2254C12.8206 9.79374 13.5394 9.68411 14.1686 9.93989L16.8562 11.0323L17.7223 8.90161L15.0347 7.80918C13.6232 7.23542 12.0107 7.48133 10.8344 8.44976L7.8376 10.9572C7.56383 11.1862 7.52601 11.5932 7.75289 11.8688L8.38844 12.6408C8.61789 12.9195 9.0305 12.9579 9.30737 12.7262L12.2962 10.2254Z" fill="#FFC538"/>
</g>
<path d="M14.1509 10.0818L15.4746 7.36377L18.2389 8.68614C18.9678 9.03482 19.2834 9.90289 18.9485 10.6382C18.609 11.3836 17.7295 11.7126 16.9842 11.3729L14.1509 10.0818Z" fill="#FF832D"/>
<path d="M14.1509 10.0818L15.4746 7.36377L18.2389 8.68614C18.9678 9.03482 19.2834 9.90289 18.9485 10.6382C18.609 11.3836 17.7295 11.7126 16.9842 11.3729L14.1509 10.0818Z" fill="url(#paint24_linear_2_9873)"/>
<path d="M14.1509 10.0818L15.4746 7.36377L18.2389 8.68614C18.9678 9.03482 19.2834 9.90289 18.9485 10.6382C18.609 11.3836 17.7295 11.7126 16.9842 11.3729L14.1509 10.0818Z" fill="url(#paint25_radial_2_9873)"/>
<path d="M14.1509 10.0818L15.4746 7.36377L18.2389 8.68614C18.9678 9.03482 19.2834 9.90289 18.9485 10.6382C18.609 11.3836 17.7295 11.7126 16.9842 11.3729L14.1509 10.0818Z" fill="url(#paint26_radial_2_9873)"/>
<rect width="1.48438" height="1.32422" rx="0.662109" transform="matrix(-1 0 0 1 27.2621 10.0491)" fill="#FFC039"/>
<path d="M22.9847 21.9905C23.5004 23.7509 24.4418 26.9241 24.5316 27.2092L23.4574 28.5999C22.598 26.9853 20.8157 23.6132 20.5277 22.9397C20.2855 22.3733 19.9613 22.2288 19.7191 22.0842L18.3793 21.2795L20.3519 18.8069C20.4717 18.9006 20.9458 19.2513 21.6722 19.8811C22.4066 20.5178 22.8407 21.4986 22.9847 21.9905Z" fill="url(#paint27_linear_2_9873)"/>
<path d="M22.9847 21.9905C23.5004 23.7509 24.4418 26.9241 24.5316 27.2092L23.4574 28.5999C22.598 26.9853 20.8157 23.6132 20.5277 22.9397C20.2855 22.3733 19.9613 22.2288 19.7191 22.0842L18.3793 21.2795L20.3519 18.8069C20.4717 18.9006 20.9458 19.2513 21.6722 19.8811C22.4066 20.5178 22.8407 21.4986 22.9847 21.9905Z" fill="url(#paint28_linear_2_9873)"/>
<path d="M22.9847 21.9905C23.5004 23.7509 24.4418 26.9241 24.5316 27.2092L23.4574 28.5999C22.598 26.9853 20.8157 23.6132 20.5277 22.9397C20.2855 22.3733 19.9613 22.2288 19.7191 22.0842L18.3793 21.2795L20.3519 18.8069C20.4717 18.9006 20.9458 19.2513 21.6722 19.8811C22.4066 20.5178 22.8407 21.4986 22.9847 21.9905Z" fill="url(#paint29_radial_2_9873)"/>
<path d="M22.9847 21.9905C23.5004 23.7509 24.4418 26.9241 24.5316 27.2092L23.4574 28.5999C22.598 26.9853 20.8157 23.6132 20.5277 22.9397C20.2855 22.3733 19.9613 22.2288 19.7191 22.0842L18.3793 21.2795L20.3519 18.8069C20.4717 18.9006 20.9458 19.2513 21.6722 19.8811C22.4066 20.5178 22.8407 21.4986 22.9847 21.9905Z" fill="url(#paint30_radial_2_9873)"/>
<g filter="url(#filter4_i_2_9873)">
<path d="M26.9612 27.1389L24.5003 27.2092L23.4534 28.5999L24.0764 29.7833C24.1403 29.9046 24.2898 29.9519 24.4117 29.8893L27.8223 28.1403C28.0184 28.0398 28.1389 27.812 28.0189 27.6271C27.7717 27.246 27.2793 27.1389 26.9612 27.1389Z" fill="#534E8C"/>
<path d="M26.9612 27.1389L24.5003 27.2092L23.4534 28.5999L24.0764 29.7833C24.1403 29.9046 24.2898 29.9519 24.4117 29.8893L27.8223 28.1403C28.0184 28.0398 28.1389 27.812 28.0189 27.6271C27.7717 27.246 27.2793 27.1389 26.9612 27.1389Z" fill="url(#paint31_linear_2_9873)"/>
<path d="M26.9612 27.1389L24.5003 27.2092L23.4534 28.5999L24.0764 29.7833C24.1403 29.9046 24.2898 29.9519 24.4117 29.8893L27.8223 28.1403C28.0184 28.0398 28.1389 27.812 28.0189 27.6271C27.7717 27.246 27.2793 27.1389 26.9612 27.1389Z" fill="url(#paint32_linear_2_9873)"/>
</g>
<path d="M26.9612 27.1389L24.5003 27.2092L23.4534 28.5999L24.0764 29.7833C24.1403 29.9046 24.2898 29.9519 24.4117 29.8893L27.8223 28.1403C28.0184 28.0398 28.1389 27.812 28.0189 27.6271C27.7717 27.246 27.2793 27.1389 26.9612 27.1389Z" fill="url(#paint33_radial_2_9873)"/>
<g filter="url(#filter5_i_2_9873)">
<path d="M14.0629 22.7014L14.7152 21.4241L12.1019 19.7405L11.7582 20.7561L5.92224 20.0686L6.54724 21.842C7.96912 22.2874 11.0122 23.2497 12.0511 23.5217C13.1254 23.803 13.8988 23.0881 14.0629 22.7014Z" fill="#FFC439"/>
<path d="M14.0629 22.7014L14.7152 21.4241L12.1019 19.7405L11.7582 20.7561L5.92224 20.0686L6.54724 21.842C7.96912 22.2874 11.0122 23.2497 12.0511 23.5217C13.1254 23.803 13.8988 23.0881 14.0629 22.7014Z" fill="url(#paint34_linear_2_9873)"/>
<path d="M14.0629 22.7014L14.7152 21.4241L12.1019 19.7405L11.7582 20.7561L5.92224 20.0686L6.54724 21.842C7.96912 22.2874 11.0122 23.2497 12.0511 23.5217C13.1254 23.803 13.8988 23.0881 14.0629 22.7014Z" fill="url(#paint35_radial_2_9873)"/>
</g>
<g filter="url(#filter6_f_2_9873)">
<path d="M12.7035 20.2249L12.3111 21.3651C12.2487 21.5467 12.066 21.6582 11.876 21.6309L7.31287 20.9749" stroke="url(#paint36_linear_2_9873)" stroke-width="0.4"/>
</g>
<path d="M5.26311 19.6555L6.49707 20.1281L6.65662 21.8772C6.35193 22.1923 5.59863 22.9172 4.94238 23.5109C4.51454 23.898 4.09777 23.9779 3.79598 23.9434C3.56681 23.9172 3.48398 23.6675 3.56525 23.4516L4.93973 19.8009C4.98858 19.6712 5.13366 19.6059 5.26311 19.6555Z" fill="#473F82"/>
<path d="M5.26311 19.6555L6.49707 20.1281L6.65662 21.8772C6.35193 22.1923 5.59863 22.9172 4.94238 23.5109C4.51454 23.898 4.09777 23.9779 3.79598 23.9434C3.56681 23.9172 3.48398 23.6675 3.56525 23.4516L4.93973 19.8009C4.98858 19.6712 5.13366 19.6059 5.26311 19.6555Z" fill="url(#paint37_linear_2_9873)"/>
<path d="M5.26311 19.6555L6.49707 20.1281L6.65662 21.8772C6.35193 22.1923 5.59863 22.9172 4.94238 23.5109C4.51454 23.898 4.09777 23.9779 3.79598 23.9434C3.56681 23.9172 3.48398 23.6675 3.56525 23.4516L4.93973 19.8009C4.98858 19.6712 5.13366 19.6059 5.26311 19.6555Z" fill="url(#paint38_linear_2_9873)"/>
<path d="M5.26311 19.6555L6.49707 20.1281L6.65662 21.8772C6.35193 22.1923 5.59863 22.9172 4.94238 23.5109C4.51454 23.898 4.09777 23.9779 3.79598 23.9434C3.56681 23.9172 3.48398 23.6675 3.56525 23.4516L4.93973 19.8009C4.98858 19.6712 5.13366 19.6059 5.26311 19.6555Z" fill="url(#paint39_linear_2_9873)"/>
<g filter="url(#filter7_i_2_9873)">
<path d="M14.7738 21.6389L15.6879 19.4905L13.8949 15.6467C12.6371 17.4006 12.1566 18.3108 11.9144 18.7014C11.6462 19.134 11.6176 19.6233 11.9769 19.9827C12.6144 20.5514 14.1071 21.3238 14.7738 21.6389Z" fill="#97919E"/>
<path d="M14.7738 21.6389L15.6879 19.4905L13.8949 15.6467C12.6371 17.4006 12.1566 18.3108 11.9144 18.7014C11.6462 19.134 11.6176 19.6233 11.9769 19.9827C12.6144 20.5514 14.1071 21.3238 14.7738 21.6389Z" fill="url(#paint40_radial_2_9873)"/>
</g>
<path d="M14.6488 14.3108C14.6488 14.3108 18.7738 17.342 20.6722 19.0139C19.7341 20.3339 18.7452 21.3128 18.1277 21.8672C17.776 22.1829 17.2524 22.1673 16.8977 21.855C15.977 21.0446 15.1185 20.2541 14.2815 19.303C12.9065 17.7405 13.2346 16.6399 13.516 15.9905C13.7597 15.428 14.3728 14.6363 14.6488 14.3108Z" fill="#918996"/>
<path d="M14.6488 14.3108C14.6488 14.3108 18.7738 17.342 20.6722 19.0139C19.7341 20.3339 18.7452 21.3128 18.1277 21.8672C17.776 22.1829 17.2524 22.1673 16.8977 21.855C15.977 21.0446 15.1185 20.2541 14.2815 19.303C12.9065 17.7405 13.2346 16.6399 13.516 15.9905C13.7597 15.428 14.3728 14.6363 14.6488 14.3108Z" fill="url(#paint41_radial_2_9873)"/>
<path d="M14.6488 14.3108C14.6488 14.3108 18.7738 17.342 20.6722 19.0139C19.7341 20.3339 18.7452 21.3128 18.1277 21.8672C17.776 22.1829 17.2524 22.1673 16.8977 21.855C15.977 21.0446 15.1185 20.2541 14.2815 19.303C12.9065 17.7405 13.2346 16.6399 13.516 15.9905C13.7597 15.428 14.3728 14.6363 14.6488 14.3108Z" fill="url(#paint42_radial_2_9873)"/>
<path d="M14.6488 14.3108C14.6488 14.3108 18.7738 17.342 20.6722 19.0139C19.7341 20.3339 18.7452 21.3128 18.1277 21.8672C17.776 22.1829 17.2524 22.1673 16.8977 21.855C15.977 21.0446 15.1185 20.2541 14.2815 19.303C12.9065 17.7405 13.2346 16.6399 13.516 15.9905C13.7597 15.428 14.3728 14.6363 14.6488 14.3108Z" fill="url(#paint43_radial_2_9873)"/>
<path d="M14.6488 14.3108C14.6488 14.3108 18.7738 17.342 20.6722 19.0139C19.7341 20.3339 18.7452 21.3128 18.1277 21.8672C17.776 22.1829 17.2524 22.1673 16.8977 21.855C15.977 21.0446 15.1185 20.2541 14.2815 19.303C12.9065 17.7405 13.2346 16.6399 13.516 15.9905C13.7597 15.428 14.3728 14.6363 14.6488 14.3108Z" fill="url(#paint44_linear_2_9873)"/>
<path d="M14.6488 14.3108C14.6488 14.3108 18.7738 17.342 20.6722 19.0139C19.7341 20.3339 18.7452 21.3128 18.1277 21.8672C17.776 22.1829 17.2524 22.1673 16.8977 21.855C15.977 21.0446 15.1185 20.2541 14.2815 19.303C12.9065 17.7405 13.2346 16.6399 13.516 15.9905C13.7597 15.428 14.3728 14.6363 14.6488 14.3108Z" fill="url(#paint45_radial_2_9873)"/>
<defs>
<filter id="filter0_i_2_9873" x="17.7392" y="3.51484" width="4.4428" height="5.24932" filterUnits="userSpaceOnUse" color-interpolation-filters="sRGB">
<feFlood flood-opacity="0" result="BackgroundImageFix"/>
<feBlend mode="normal" in="SourceGraphic" in2="BackgroundImageFix" result="shape"/>
<feColorMatrix in="SourceAlpha" type="matrix" values="0 0 0 0 0 0 0 0 0 0 0 0 0 0 0 0 0 0 127 0" result="hardAlpha"/>
<feOffset dx="-0.2" dy="-0.2"/>
<feGaussianBlur stdDeviation="0.5"/>
<feComposite in2="hardAlpha" operator="arithmetic" k2="-1" k3="1"/>
<feColorMatrix type="matrix" values="0 0 0 0 0.94902 0 0 0 0 0.533333 0 0 0 0 0.215686 0 0 0 1 0"/>
<feBlend mode="normal" in2="shape" result="effect1_innerShadow_2_9873"/>
</filter>
<filter id="filter1_i_2_9873" x="16.6166" y="1.93301" width="5.50317" height="5.49888" filterUnits="userSpaceOnUse" color-interpolation-filters="sRGB">
<feFlood flood-opacity="0" result="BackgroundImageFix"/>
<feBlend mode="normal" in="SourceGraphic" in2="BackgroundImageFix" result="shape"/>
<feColorMatrix in="SourceAlpha" type="matrix" values="0 0 0 0 0 0 0 0 0 0 0 0 0 0 0 0 0 0 127 0" result="hardAlpha"/>
<feOffset dy="-0.15"/>
<feGaussianBlur stdDeviation="0.15"/>
<feComposite in2="hardAlpha" operator="arithmetic" k2="-1" k3="1"/>
<feColorMatrix type="matrix" values="0 0 0 0 1 0 0 0 0 0.607843 0 0 0 0 0.117647 0 0 0 1 0"/>
<feBlend mode="normal" in2="shape" result="effect1_innerShadow_2_9873"/>
</filter>
<filter id="filter2_i_2_9873" x="20.5071" y="4.45825" width="1.01331" height="0.567529" filterUnits="userSpaceOnUse" color-interpolation-filters="sRGB">
<feFlood flood-opacity="0" result="BackgroundImageFix"/>
<feBlend mode="normal" in="SourceGraphic" in2="BackgroundImageFix" result="shape"/>
<feColorMatrix in="SourceAlpha" type="matrix" values="0 0 0 0 0 0 0 0 0 0 0 0 0 0 0 0 0 0 127 0" result="hardAlpha"/>
<feOffset dx="-0.1" dy="0.1"/>
<feGaussianBlur stdDeviation="0.1"/>
<feComposite in2="hardAlpha" operator="arithmetic" k2="-1" k3="1"/>
<feColorMatrix type="matrix" values="0 0 0 0 0.682353 0 0 0 0 0.219608 0 0 0 0 0.133333 0 0 0 1 0"/>
<feBlend mode="normal" in2="shape" result="effect1_innerShadow_2_9873"/>
</filter>
<filter id="filter3_i_2_9873" x="7.60469" y="7.10366" width="10.1176" height="5.77402" filterUnits="userSpaceOnUse" color-interpolation-filters="sRGB">
<feFlood flood-opacity="0" result="BackgroundImageFix"/>
<feBlend mode="normal" in="SourceGraphic" in2="BackgroundImageFix" result="shape"/>
<feColorMatrix in="SourceAlpha" type="matrix" values="0 0 0 0 0 0 0 0 0 0 0 0 0 0 0 0 0 0 127 0" result="hardAlpha"/>
<feOffset dy="-0.4"/>
<feGaussianBlur stdDeviation="0.5"/>
<feComposite in2="hardAlpha" operator="arithmetic" k2="-1" k3="1"/>
<feColorMatrix type="matrix" values="0 0 0 0 0.929412 0 0 0 0 0.552941 0 0 0 0 0.294118 0 0 0 1 0"/>
<feBlend mode="normal" in2="shape" result="effect1_innerShadow_2_9873"/>
</filter>
<filter id="filter4_i_2_9873" x="23.4534" y="27.1389" width="4.81339" height="3.17808" filterUnits="userSpaceOnUse" color-interpolation-filters="sRGB">
<feFlood flood-opacity="0" result="BackgroundImageFix"/>
<feBlend mode="normal" in="SourceGraphic" in2="BackgroundImageFix" result="shape"/>
<feColorMatrix in="SourceAlpha" type="matrix" values="0 0 0 0 0 0 0 0 0 0 0 0 0 0 0 0 0 0 127 0" result="hardAlpha"/>
<feOffset dx="0.2" dy="0.4"/>
<feGaussianBlur stdDeviation="0.2"/>
<feComposite in2="hardAlpha" operator="arithmetic" k2="-1" k3="1"/>
<feColorMatrix type="matrix" values="0 0 0 0 0.298039 0 0 0 0 0.286275 0 0 0 0 0.454902 0 0 0 1 0"/>
<feBlend mode="normal" in2="shape" result="effect1_innerShadow_2_9873"/>
</filter>
<filter id="filter5_i_2_9873" x="5.77224" y="19.4905" width="8.94297" height="4.09521" filterUnits="userSpaceOnUse" color-interpolation-filters="sRGB">
<feFlood flood-opacity="0" result="BackgroundImageFix"/>
<feBlend mode="normal" in="SourceGraphic" in2="BackgroundImageFix" result="shape"/>
<feColorMatrix in="SourceAlpha" type="matrix" values="0 0 0 0 0 0 0 0 0 0 0 0 0 0 0 0 0 0 127 0" result="hardAlpha"/>
<feOffset dx="-0.15" dy="-0.25"/>
<feGaussianBlur stdDeviation="0.375"/>
<feComposite in2="hardAlpha" operator="arithmetic" k2="-1" k3="1"/>
<feColorMatrix type="matrix" values="0 0 0 0 0.960784 0 0 0 0 0.513726 0 0 0 0 0.431373 0 0 0 1 0"/>
<feBlend mode="normal" in2="shape" result="effect1_innerShadow_2_9873"/>
</filter>
<filter id="filter6_f_2_9873" x="6.8844" y="19.7597" width="6.4082" height="2.47529" filterUnits="userSpaceOnUse" color-interpolation-filters="sRGB">
<feFlood flood-opacity="0" result="BackgroundImageFix"/>
<feBlend mode="normal" in="SourceGraphic" in2="BackgroundImageFix" result="shape"/>
<feGaussianBlur stdDeviation="0.2" result="effect1_foregroundBlur_2_9873"/>
</filter>
<filter id="filter7_i_2_9873" x="11.7102" y="15.5467" width="3.97769" height="6.09219" filterUnits="userSpaceOnUse" color-interpolation-filters="sRGB">
<feFlood flood-opacity="0" result="BackgroundImageFix"/>
<feBlend mode="normal" in="SourceGraphic" in2="BackgroundImageFix" result="shape"/>
<feColorMatrix in="SourceAlpha" type="matrix" values="0 0 0 0 0 0 0 0 0 0 0 0 0 0 0 0 0 0 127 0" result="hardAlpha"/>
<feOffset dy="-0.1"/>
<feGaussianBlur stdDeviation="0.25"/>
<feComposite in2="hardAlpha" operator="arithmetic" k2="-1" k3="1"/>
<feColorMatrix type="matrix" values="0 0 0 0 0.513726 0 0 0 0 0.458824 0 0 0 0 0.482353 0 0 0 1 0"/>
<feBlend mode="normal" in2="shape" result="effect1_innerShadow_2_9873"/>
</filter>
<radialGradient id="paint0_radial_2_9873" cx="0" cy="0" r="1" gradientUnits="userSpaceOnUse" gradientTransform="translate(1.70802 2.00967) rotate(-91.3334) scale(2.21396 1.59901)">
<stop offset="0.116409" stop-color="#FFB435"/>
<stop offset="1" stop-color="#FEA73C"/>
</radialGradient>
<radialGradient id="paint1_radial_2_9873" cx="0" cy="0" r="1" gradientUnits="userSpaceOnUse" gradientTransform="translate(2.06224 0.438209) rotate(128.9) scale(0.853817 1.15634)">
<stop stop-color="#CD7F1A"/>
<stop offset="1" stop-color="#FDA533" stop-opacity="0"/>
</radialGradient>
<radialGradient id="paint2_radial_2_9873" cx="0" cy="0" r="1" gradientUnits="userSpaceOnUse" gradientTransform="translate(22.5463 6.1278) rotate(117.286) scale(0.681678 0.868154)">
<stop offset="0.332173" stop-color="#FFBF42"/>
<stop offset="1" stop-color="#EBA544"/>
</radialGradient>
<linearGradient id="paint3_linear_2_9873" x1="19.3197" y1="6.45553" x2="22.182" y2="6.62741" gradientUnits="userSpaceOnUse">
<stop stop-color="#FFC33E"/>
<stop offset="1" stop-color="#FFC247"/>
</linearGradient>
<radialGradient id="paint4_radial_2_9873" cx="0" cy="0" r="1" gradientUnits="userSpaceOnUse" gradientTransform="translate(19.0072 5.71335) rotate(-3.17982) scale(0.845051 1.03029)">
<stop offset="0.155748" stop-color="#FFAB1D"/>
<stop offset="1" stop-color="#FFAB1D" stop-opacity="0"/>
</radialGradient>
<radialGradient id="paint5_radial_2_9873" cx="0" cy="0" r="1" gradientUnits="userSpaceOnUse" gradientTransform="translate(18.5246 7.14837) rotate(-134.503) scale(2.72211 3.97807)">
<stop stop-color="#FFA526"/>
<stop offset="1" stop-color="#FFA526" stop-opacity="0"/>
</radialGradient>
<radialGradient id="paint6_radial_2_9873" cx="0" cy="0" r="1" gradientUnits="userSpaceOnUse" gradientTransform="translate(17.1166 3.48672) rotate(22.7394) scale(2.30409 3.23462)">
<stop stop-color="#FFD537"/>
<stop offset="1" stop-color="#FFD537" stop-opacity="0"/>
</radialGradient>
<radialGradient id="paint7_radial_2_9873" cx="0" cy="0" r="1" gradientUnits="userSpaceOnUse" gradientTransform="translate(17.1635 6.68984) rotate(-16.0908) scale(0.845629 0.393221)">
<stop stop-color="#FFD237"/>
<stop offset="1" stop-color="#FFD237" stop-opacity="0"/>
</radialGradient>
<radialGradient id="paint8_radial_2_9873" cx="0" cy="0" r="1" gradientUnits="userSpaceOnUse" gradientTransform="translate(18.7494 2.12734) rotate(10.3487) scale(1.82659 0.843365)">
<stop offset="0.17382" stop-color="#E4AF34"/>
<stop offset="1" stop-color="#FFBF27" stop-opacity="0"/>
</radialGradient>
<radialGradient id="paint9_radial_2_9873" cx="0" cy="0" r="1" gradientUnits="userSpaceOnUse" gradientTransform="translate(21.6635 2.04141) rotate(136.818) scale(0.696409 1.00576)">
<stop offset="0.116537" stop-color="#E0A531"/>
<stop offset="1" stop-color="#E0A531" stop-opacity="0"/>
</radialGradient>
<radialGradient id="paint10_radial_2_9873" cx="0" cy="0" r="1" gradientUnits="userSpaceOnUse" gradientTransform="translate(18.7025 5.53372) rotate(64.2972) scale(1.04478 1.69772)">
<stop offset="0.0404354" stop-color="#FFD040"/>
<stop offset="1" stop-color="#FEAD30"/>
</radialGradient>
<radialGradient id="paint11_radial_2_9873" cx="0" cy="0" r="1" gradientUnits="userSpaceOnUse" gradientTransform="translate(21.3705 5.7876) rotate(180) scale(0.273437 0.53125)">
<stop offset="0.894737" stop-color="#916A62"/>
<stop offset="1" stop-color="#824D44"/>
</radialGradient>
<radialGradient id="paint12_radial_2_9873" cx="0" cy="0" r="1" gradientUnits="userSpaceOnUse" gradientTransform="translate(21.5385 5.80908) rotate(180) scale(0.25 0.541016)">
<stop stop-color="#666361"/>
<stop offset="0.8125" stop-color="#565352"/>
</radialGradient>
<linearGradient id="paint13_linear_2_9873" x1="-0.00680284" y1="0.0496363" x2="0.179464" y2="0.110399" gradientUnits="userSpaceOnUse">
<stop stop-color="white"/>
<stop offset="1" stop-color="white" stop-opacity="0"/>
</linearGradient>
<radialGradient id="paint14_radial_2_9873" cx="0" cy="0" r="1" gradientUnits="userSpaceOnUse" gradientTransform="translate(27.7033 9.95917) rotate(152.629) scale(7.9528 2.89243)">
<stop offset="0.654921" stop-color="#FF9B2A" stop-opacity="0"/>
<stop offset="1" stop-color="#FF9B2A"/>
</radialGradient>
<radialGradient id="paint15_radial_2_9873" cx="0" cy="0" r="1" gradientUnits="userSpaceOnUse" gradientTransform="translate(27.0158 9.08417) rotate(143.957) scale(8.65715 9.68593)">
<stop offset="0.756636" stop-color="#FF9231" stop-opacity="0"/>
<stop offset="0.955671" stop-color="#E77553"/>
</radialGradient>
<radialGradient id="paint16_radial_2_9873" cx="0" cy="0" r="1" gradientUnits="userSpaceOnUse" gradientTransform="translate(26.9221 10.9748) rotate(55.4915) scale(1.51691 0.596198)">
<stop offset="0.418037" stop-color="#FEA724"/>
<stop offset="1" stop-color="#FEA724" stop-opacity="0"/>
</radialGradient>
<radialGradient id="paint17_radial_2_9873" cx="0" cy="0" r="1" gradientUnits="userSpaceOnUse" gradientTransform="translate(28.4652 11.131) rotate(161.003) scale(0.624012 2.93931)">
<stop stop-color="#FFD05B"/>
<stop offset="1" stop-color="#FFD05B" stop-opacity="0"/>
</radialGradient>
<radialGradient id="paint18_radial_2_9873" cx="0" cy="0" r="1" gradientUnits="userSpaceOnUse" gradientTransform="translate(26.7189 9.91229) rotate(36.5014) scale(0.971894 1.16056)">
<stop stop-color="#E9B636"/>
<stop offset="1" stop-color="#E9B636" stop-opacity="0"/>
</radialGradient>
<radialGradient id="paint19_radial_2_9873" cx="0" cy="0" r="1" gradientUnits="userSpaceOnUse" gradientTransform="translate(17.6058 16.9905) rotate(-76.7391) scale(5.32961 3.38381)">
<stop offset="0.175355" stop-color="#FB643E"/>
<stop offset="1" stop-color="#FB643E" stop-opacity="0"/>
</radialGradient>
<radialGradient id="paint20_radial_2_9873" cx="0" cy="0" r="1" gradientUnits="userSpaceOnUse" gradientTransform="translate(20.1096 12.3967) rotate(91.2254) scale(5.84509 2.29049)">
<stop stop-color="#FF9056"/>
<stop offset="1" stop-color="#FF9056" stop-opacity="0"/>
</radialGradient>
<radialGradient id="paint21_radial_2_9873" cx="0" cy="0" r="1" gradientUnits="userSpaceOnUse" gradientTransform="translate(14.8909 13.3967) rotate(16.631) scale(2.5113 5.07652)">
<stop stop-color="#FF8750"/>
<stop offset="1" stop-color="#FF8750" stop-opacity="0"/>
</radialGradient>
<radialGradient id="paint22_radial_2_9873" cx="0" cy="0" r="1" gradientUnits="userSpaceOnUse" gradientTransform="translate(15.3284 10.3342) rotate(64.8552) scale(1.69155 2.05757)">
<stop offset="0.296246" stop-color="#EB784B"/>
<stop offset="1" stop-color="#EB784B" stop-opacity="0"/>
</radialGradient>
<radialGradient id="paint23_radial_2_9873" cx="0" cy="0" r="1" gradientUnits="userSpaceOnUse" gradientTransform="translate(-1.4807e-08 0.714) rotate(24.6916) scale(1.12213 1.1783)">
<stop stop-color="#FC9D34"/>
<stop offset="0.905915" stop-color="#E17E4B"/>
</radialGradient>
<linearGradient id="paint24_linear_2_9873" x1="15.4846" y1="11.0216" x2="16.8909" y2="8.58408" gradientUnits="userSpaceOnUse">
<stop stop-color="#F05C24"/>
<stop offset="1" stop-color="#FF813D" stop-opacity="0"/>
</linearGradient>
<radialGradient id="paint25_radial_2_9873" cx="0" cy="0" r="1" gradientUnits="userSpaceOnUse" gradientTransform="translate(19.3284 9.99033) rotate(171.674) scale(1.2949 2.1866)">
<stop stop-color="#FF9459"/>
<stop offset="1" stop-color="#FF9459" stop-opacity="0"/>
</radialGradient>
<radialGradient id="paint26_radial_2_9873" cx="0" cy="0" r="1" gradientUnits="userSpaceOnUse" gradientTransform="translate(14.6409 8.4747) rotate(25.7407) scale(0.971392 1.51779)">
<stop offset="0.163778" stop-color="#FF985A"/>
<stop offset="1" stop-color="#FF985A" stop-opacity="0"/>
</radialGradient>
<linearGradient id="paint27_linear_2_9873" x1="19.5472" y1="20.0842" x2="22.9222" y2="28.2092" gradientUnits="userSpaceOnUse">
<stop stop-color="#FFC235"/>
<stop offset="1" stop-color="#FFC443"/>
</linearGradient>
<linearGradient id="paint28_linear_2_9873" x1="24.1553" y1="24.7487" x2="22.88" y2="25.2312" gradientUnits="userSpaceOnUse">
<stop stop-color="#FFD558"/>
<stop offset="1" stop-color="#FFD558" stop-opacity="0"/>
</linearGradient>
<radialGradient id="paint29_radial_2_9873" cx="0" cy="0" r="1" gradientUnits="userSpaceOnUse" gradientTransform="translate(17.9165 21.164) rotate(63.5196) scale(10.4358 3.03752)">
<stop offset="0.182663" stop-color="#EC8B4B"/>
<stop offset="1" stop-color="#EC8B4B" stop-opacity="0"/>
</radialGradient>
<radialGradient id="paint30_radial_2_9873" cx="0" cy="0" r="1" gradientUnits="userSpaceOnUse" gradientTransform="translate(18.0889 21.1295) rotate(69.2648) scale(5.1598 1.4316)">
<stop stop-color="#D77364"/>
<stop offset="1" stop-color="#D77364" stop-opacity="0"/>
</radialGradient>
<linearGradient id="paint31_linear_2_9873" x1="26.1018" y1="29.0452" x2="25.9456" y2="28.7327" gradientUnits="userSpaceOnUse">
<stop stop-color="#443088"/>
<stop offset="1" stop-color="#534F8C" stop-opacity="0"/>
</linearGradient>
<linearGradient id="paint32_linear_2_9873" x1="23.8596" y1="29.4436" x2="24.5159" y2="29.0061" gradientUnits="userSpaceOnUse">
<stop stop-color="#4C438D"/>
<stop offset="1" stop-color="#4C438D" stop-opacity="0"/>
</linearGradient>
<radialGradient id="paint33_radial_2_9873" cx="0" cy="0" r="1" gradientUnits="userSpaceOnUse" gradientTransform="translate(28.0668 27.9905) rotate(-161.642) scale(0.942624 1.5654)">
<stop stop-color="#64628C"/>
<stop offset="1" stop-color="#64628C" stop-opacity="0"/>
</radialGradient>
<linearGradient id="paint34_linear_2_9873" x1="13.8285" y1="22.7717" x2="12.3597" y2="22.1155" gradientUnits="userSpaceOnUse">
<stop stop-color="#FFB657"/>
<stop offset="1" stop-color="#FFB657" stop-opacity="0"/>
</linearGradient>
<radialGradient id="paint35_radial_2_9873" cx="0" cy="0" r="1" gradientUnits="userSpaceOnUse" gradientTransform="translate(14.1722 21.2717) rotate(119.055) scale(2.25217 1.02691)">
<stop stop-color="#F3953D"/>
<stop offset="1" stop-color="#F3953D" stop-opacity="0"/>
</radialGradient>
<linearGradient id="paint36_linear_2_9873" x1="12.5629" y1="21.303" x2="7.62537" y2="21.1155" gradientUnits="userSpaceOnUse">
<stop stop-color="#FFCC43"/>
<stop offset="1" stop-color="#FFCC43" stop-opacity="0"/>
</linearGradient>
<linearGradient id="paint37_linear_2_9873" x1="5.85974" y1="19.6389" x2="5.35974" y2="20.803" gradientUnits="userSpaceOnUse">
<stop offset="0.0235549" stop-color="#444367"/>
<stop offset="1" stop-color="#444367" stop-opacity="0"/>
</linearGradient>
<linearGradient id="paint38_linear_2_9873" x1="5.85974" y1="22.5999" x2="5.0957" y2="21.7948" gradientUnits="userSpaceOnUse">
<stop stop-color="#5A418F"/>
<stop offset="1" stop-color="#5A418F" stop-opacity="0"/>
</linearGradient>
<linearGradient id="paint39_linear_2_9873" x1="4.07849" y1="21.8811" x2="4.48474" y2="22.0217" gradientUnits="userSpaceOnUse">
<stop offset="0.212682" stop-color="#5E5D8F"/>
<stop offset="1" stop-color="#484083" stop-opacity="0"/>
</linearGradient>
<radialGradient id="paint40_radial_2_9873" cx="0" cy="0" r="1" gradientUnits="userSpaceOnUse" gradientTransform="translate(14.9847 18.803) rotate(117.165) scale(5.33891 1.912)">
<stop offset="0.32851" stop-color="#746484"/>
<stop offset="1" stop-color="#827483" stop-opacity="0"/>
</radialGradient>
<radialGradient id="paint41_radial_2_9873" cx="0" cy="0" r="1" gradientUnits="userSpaceOnUse" gradientTransform="translate(18.0784 17.0217) rotate(128.66) scale(4.60225 17.5153)">
<stop offset="0.553553" stop-color="#917EA3" stop-opacity="0"/>
<stop offset="1" stop-color="#917EA3"/>
</radialGradient>
<radialGradient id="paint42_radial_2_9873" cx="0" cy="0" r="1" gradientUnits="userSpaceOnUse" gradientTransform="translate(17.4643 22.5016) rotate(-114.88) scale(2.4039 7.99677)">
<stop stop-color="#885FA7"/>
<stop offset="1" stop-color="#9583A6" stop-opacity="0"/>
</radialGradient>
<radialGradient id="paint43_radial_2_9873" cx="0" cy="0" r="1" gradientUnits="userSpaceOnUse" gradientTransform="translate(13.9561 16.8442) rotate(33.4965) scale(2.46351 2.34331)">
<stop stop-color="#AFA8B2"/>
<stop offset="1" stop-color="#9B92A1" stop-opacity="0"/>
</radialGradient>
<linearGradient id="paint44_linear_2_9873" x1="18.8284" y1="17.2717" x2="18.1409" y2="18.2038" gradientUnits="userSpaceOnUse">
<stop stop-color="#908582"/>
<stop offset="1" stop-color="#908582" stop-opacity="0"/>
</linearGradient>
<radialGradient id="paint45_radial_2_9873" cx="0" cy="0" r="1" gradientUnits="userSpaceOnUse" gradientTransform="translate(18.4846 17.1311) rotate(-154.573) scale(2.11071 0.265125)">
<stop offset="0.207475" stop-color="#9C959A"/>
<stop offset="1" stop-color="#9C959A" stop-opacity="0"/>
</radialGradient>
</defs>
</svg>
