<svg width="32" height="32" viewBox="0 0 32 32" fill="none" xmlns="http://www.w3.org/2000/svg">
<g filter="url(#filter0_ii_20020_5118)">
<path d="M25.8544 5.20994C25.8698 5.53401 26.141 5.81051 26.4648 5.83182C26.974 5.86535 27.4843 6.00773 27.9613 6.26891C29.7138 7.22807 30.3568 9.42622 29.3976 11.1786C28.5157 12.79 26.5667 13.3965 24.9582 12.8187C24.1897 12.5427 23.2556 12.5125 22.6783 13.0899L13.1676 22.6005C12.6025 23.1656 12.6173 24.0738 12.884 24.8273C12.8903 24.8451 12.8964 24.863 12.9025 24.881C13.5399 26.7743 12.522 28.8259 10.6287 29.4634C8.7355 30.1009 6.95206 29.2063 6.31448 27.313C6.19876 26.9692 6.14529 26.5489 6.13968 26.1523C6.13504 25.8279 5.8616 25.5494 5.53726 25.543C4.92801 25.5311 4.24661 25.4159 3.75333 25.1458C2.00088 24.1867 1.35782 21.9885 2.31705 20.2361C3.19773 18.627 5.14298 18.0194 6.75069 18.5938C7.51797 18.868 8.44945 18.8968 9.02559 18.3206L18.5429 8.80328C19.1068 8.23935 19.0933 7.33371 18.8284 6.58146C18.8023 6.50731 18.7785 6.43206 18.7572 6.35581C18.6796 6.07958 18.6363 5.80103 18.625 5.52501C18.6138 5.24877 18.6346 4.97504 18.6851 4.70867C18.7841 4.18071 18.998 3.69297 19.2995 3.27273C19.6032 2.84806 20.0006 2.48611 20.4743 2.22189C20.8246 2.02552 21.2113 1.88575 21.6214 1.81505C21.6394 1.81189 21.6575 1.80888 21.6756 1.806C21.7023 1.80175 21.7289 1.7978 21.7555 1.79417C22.1447 1.74111 22.5327 1.75307 22.9064 1.82343C23.4372 1.92228 23.9275 2.1371 24.3495 2.44052C24.7564 2.73197 25.1055 3.10945 25.3661 3.55766C25.4287 3.6653 25.4861 3.77703 25.5381 3.89262C25.6648 4.17331 25.7572 4.47287 25.809 4.78621C25.8327 4.92765 25.8477 5.0691 25.8544 5.20994Z" fill="#DCD4E1"/>
</g>
<path d="M25.8544 5.20994C25.8698 5.53401 26.141 5.81051 26.4648 5.83182C26.974 5.86535 27.4843 6.00773 27.9613 6.26891C29.7138 7.22807 30.3568 9.42622 29.3976 11.1786C28.5157 12.79 26.5667 13.3965 24.9582 12.8187C24.1897 12.5427 23.2556 12.5125 22.6783 13.0899L13.1676 22.6005C12.6025 23.1656 12.6173 24.0738 12.884 24.8273C12.8903 24.8451 12.8964 24.863 12.9025 24.881C13.5399 26.7743 12.522 28.8259 10.6287 29.4634C8.7355 30.1009 6.95206 29.2063 6.31448 27.313C6.19876 26.9692 6.14529 26.5489 6.13968 26.1523C6.13504 25.8279 5.8616 25.5494 5.53726 25.543C4.92801 25.5311 4.24661 25.4159 3.75333 25.1458C2.00088 24.1867 1.35782 21.9885 2.31705 20.2361C3.19773 18.627 5.14298 18.0194 6.75069 18.5938C7.51797 18.868 8.44945 18.8968 9.02559 18.3206L18.5429 8.80328C19.1068 8.23935 19.0933 7.33371 18.8284 6.58146C18.8023 6.50731 18.7785 6.43206 18.7572 6.35581C18.6796 6.07958 18.6363 5.80103 18.625 5.52501C18.6138 5.24877 18.6346 4.97504 18.6851 4.70867C18.7841 4.18071 18.998 3.69297 19.2995 3.27273C19.6032 2.84806 20.0006 2.48611 20.4743 2.22189C20.8246 2.02552 21.2113 1.88575 21.6214 1.81505C21.6394 1.81189 21.6575 1.80888 21.6756 1.806C21.7023 1.80175 21.7289 1.7978 21.7555 1.79417C22.1447 1.74111 22.5327 1.75307 22.9064 1.82343C23.4372 1.92228 23.9275 2.1371 24.3495 2.44052C24.7564 2.73197 25.1055 3.10945 25.3661 3.55766C25.4287 3.6653 25.4861 3.77703 25.5381 3.89262C25.6648 4.17331 25.7572 4.47287 25.809 4.78621C25.8327 4.92765 25.8477 5.0691 25.8544 5.20994Z" fill="url(#paint0_radial_20020_5118)"/>
<path d="M25.8544 5.20994C25.8698 5.53401 26.141 5.81051 26.4648 5.83182C26.974 5.86535 27.4843 6.00773 27.9613 6.26891C29.7138 7.22807 30.3568 9.42622 29.3976 11.1786C28.5157 12.79 26.5667 13.3965 24.9582 12.8187C24.1897 12.5427 23.2556 12.5125 22.6783 13.0899L13.1676 22.6005C12.6025 23.1656 12.6173 24.0738 12.884 24.8273C12.8903 24.8451 12.8964 24.863 12.9025 24.881C13.5399 26.7743 12.522 28.8259 10.6287 29.4634C8.7355 30.1009 6.95206 29.2063 6.31448 27.313C6.19876 26.9692 6.14529 26.5489 6.13968 26.1523C6.13504 25.8279 5.8616 25.5494 5.53726 25.543C4.92801 25.5311 4.24661 25.4159 3.75333 25.1458C2.00088 24.1867 1.35782 21.9885 2.31705 20.2361C3.19773 18.627 5.14298 18.0194 6.75069 18.5938C7.51797 18.868 8.44945 18.8968 9.02559 18.3206L18.5429 8.80328C19.1068 8.23935 19.0933 7.33371 18.8284 6.58146C18.8023 6.50731 18.7785 6.43206 18.7572 6.35581C18.6796 6.07958 18.6363 5.80103 18.625 5.52501C18.6138 5.24877 18.6346 4.97504 18.6851 4.70867C18.7841 4.18071 18.998 3.69297 19.2995 3.27273C19.6032 2.84806 20.0006 2.48611 20.4743 2.22189C20.8246 2.02552 21.2113 1.88575 21.6214 1.81505C21.6394 1.81189 21.6575 1.80888 21.6756 1.806C21.7023 1.80175 21.7289 1.7978 21.7555 1.79417C22.1447 1.74111 22.5327 1.75307 22.9064 1.82343C23.4372 1.92228 23.9275 2.1371 24.3495 2.44052C24.7564 2.73197 25.1055 3.10945 25.3661 3.55766C25.4287 3.6653 25.4861 3.77703 25.5381 3.89262C25.6648 4.17331 25.7572 4.47287 25.809 4.78621C25.8327 4.92765 25.8477 5.0691 25.8544 5.20994Z" fill="url(#paint1_radial_20020_5118)"/>
<path d="M25.8544 5.20994C25.8698 5.53401 26.141 5.81051 26.4648 5.83182C26.974 5.86535 27.4843 6.00773 27.9613 6.26891C29.7138 7.22807 30.3568 9.42622 29.3976 11.1786C28.5157 12.79 26.5667 13.3965 24.9582 12.8187C24.1897 12.5427 23.2556 12.5125 22.6783 13.0899L13.1676 22.6005C12.6025 23.1656 12.6173 24.0738 12.884 24.8273C12.8903 24.8451 12.8964 24.863 12.9025 24.881C13.5399 26.7743 12.522 28.8259 10.6287 29.4634C8.7355 30.1009 6.95206 29.2063 6.31448 27.313C6.19876 26.9692 6.14529 26.5489 6.13968 26.1523C6.13504 25.8279 5.8616 25.5494 5.53726 25.543C4.92801 25.5311 4.24661 25.4159 3.75333 25.1458C2.00088 24.1867 1.35782 21.9885 2.31705 20.2361C3.19773 18.627 5.14298 18.0194 6.75069 18.5938C7.51797 18.868 8.44945 18.8968 9.02559 18.3206L18.5429 8.80328C19.1068 8.23935 19.0933 7.33371 18.8284 6.58146C18.8023 6.50731 18.7785 6.43206 18.7572 6.35581C18.6796 6.07958 18.6363 5.80103 18.625 5.52501C18.6138 5.24877 18.6346 4.97504 18.6851 4.70867C18.7841 4.18071 18.998 3.69297 19.2995 3.27273C19.6032 2.84806 20.0006 2.48611 20.4743 2.22189C20.8246 2.02552 21.2113 1.88575 21.6214 1.81505C21.6394 1.81189 21.6575 1.80888 21.6756 1.806C21.7023 1.80175 21.7289 1.7978 21.7555 1.79417C22.1447 1.74111 22.5327 1.75307 22.9064 1.82343C23.4372 1.92228 23.9275 2.1371 24.3495 2.44052C24.7564 2.73197 25.1055 3.10945 25.3661 3.55766C25.4287 3.6653 25.4861 3.77703 25.5381 3.89262C25.6648 4.17331 25.7572 4.47287 25.809 4.78621C25.8327 4.92765 25.8477 5.0691 25.8544 5.20994Z" fill="url(#paint2_radial_20020_5118)"/>
<path d="M25.8544 5.20994C25.8698 5.53401 26.141 5.81051 26.4648 5.83182C26.974 5.86535 27.4843 6.00773 27.9613 6.26891C29.7138 7.22807 30.3568 9.42622 29.3976 11.1786C28.5157 12.79 26.5667 13.3965 24.9582 12.8187C24.1897 12.5427 23.2556 12.5125 22.6783 13.0899L13.1676 22.6005C12.6025 23.1656 12.6173 24.0738 12.884 24.8273C12.8903 24.8451 12.8964 24.863 12.9025 24.881C13.5399 26.7743 12.522 28.8259 10.6287 29.4634C8.7355 30.1009 6.95206 29.2063 6.31448 27.313C6.19876 26.9692 6.14529 26.5489 6.13968 26.1523C6.13504 25.8279 5.8616 25.5494 5.53726 25.543C4.92801 25.5311 4.24661 25.4159 3.75333 25.1458C2.00088 24.1867 1.35782 21.9885 2.31705 20.2361C3.19773 18.627 5.14298 18.0194 6.75069 18.5938C7.51797 18.868 8.44945 18.8968 9.02559 18.3206L18.5429 8.80328C19.1068 8.23935 19.0933 7.33371 18.8284 6.58146C18.8023 6.50731 18.7785 6.43206 18.7572 6.35581C18.6796 6.07958 18.6363 5.80103 18.625 5.52501C18.6138 5.24877 18.6346 4.97504 18.6851 4.70867C18.7841 4.18071 18.998 3.69297 19.2995 3.27273C19.6032 2.84806 20.0006 2.48611 20.4743 2.22189C20.8246 2.02552 21.2113 1.88575 21.6214 1.81505C21.6394 1.81189 21.6575 1.80888 21.6756 1.806C21.7023 1.80175 21.7289 1.7978 21.7555 1.79417C22.1447 1.74111 22.5327 1.75307 22.9064 1.82343C23.4372 1.92228 23.9275 2.1371 24.3495 2.44052C24.7564 2.73197 25.1055 3.10945 25.3661 3.55766C25.4287 3.6653 25.4861 3.77703 25.5381 3.89262C25.6648 4.17331 25.7572 4.47287 25.809 4.78621C25.8327 4.92765 25.8477 5.0691 25.8544 5.20994Z" fill="url(#paint3_radial_20020_5118)"/>
<path d="M25.8544 5.20994C25.8698 5.53401 26.141 5.81051 26.4648 5.83182C26.974 5.86535 27.4843 6.00773 27.9613 6.26891C29.7138 7.22807 30.3568 9.42622 29.3976 11.1786C28.5157 12.79 26.5667 13.3965 24.9582 12.8187C24.1897 12.5427 23.2556 12.5125 22.6783 13.0899L13.1676 22.6005C12.6025 23.1656 12.6173 24.0738 12.884 24.8273C12.8903 24.8451 12.8964 24.863 12.9025 24.881C13.5399 26.7743 12.522 28.8259 10.6287 29.4634C8.7355 30.1009 6.95206 29.2063 6.31448 27.313C6.19876 26.9692 6.14529 26.5489 6.13968 26.1523C6.13504 25.8279 5.8616 25.5494 5.53726 25.543C4.92801 25.5311 4.24661 25.4159 3.75333 25.1458C2.00088 24.1867 1.35782 21.9885 2.31705 20.2361C3.19773 18.627 5.14298 18.0194 6.75069 18.5938C7.51797 18.868 8.44945 18.8968 9.02559 18.3206L18.5429 8.80328C19.1068 8.23935 19.0933 7.33371 18.8284 6.58146C18.8023 6.50731 18.7785 6.43206 18.7572 6.35581C18.6796 6.07958 18.6363 5.80103 18.625 5.52501C18.6138 5.24877 18.6346 4.97504 18.6851 4.70867C18.7841 4.18071 18.998 3.69297 19.2995 3.27273C19.6032 2.84806 20.0006 2.48611 20.4743 2.22189C20.8246 2.02552 21.2113 1.88575 21.6214 1.81505C21.6394 1.81189 21.6575 1.80888 21.6756 1.806C21.7023 1.80175 21.7289 1.7978 21.7555 1.79417C22.1447 1.74111 22.5327 1.75307 22.9064 1.82343C23.4372 1.92228 23.9275 2.1371 24.3495 2.44052C24.7564 2.73197 25.1055 3.10945 25.3661 3.55766C25.4287 3.6653 25.4861 3.77703 25.5381 3.89262C25.6648 4.17331 25.7572 4.47287 25.809 4.78621C25.8327 4.92765 25.8477 5.0691 25.8544 5.20994Z" fill="url(#paint4_radial_20020_5118)"/>
<path d="M25.8544 5.20994C25.8698 5.53401 26.141 5.81051 26.4648 5.83182C26.974 5.86535 27.4843 6.00773 27.9613 6.26891C29.7138 7.22807 30.3568 9.42622 29.3976 11.1786C28.5157 12.79 26.5667 13.3965 24.9582 12.8187C24.1897 12.5427 23.2556 12.5125 22.6783 13.0899L13.1676 22.6005C12.6025 23.1656 12.6173 24.0738 12.884 24.8273C12.8903 24.8451 12.8964 24.863 12.9025 24.881C13.5399 26.7743 12.522 28.8259 10.6287 29.4634C8.7355 30.1009 6.95206 29.2063 6.31448 27.313C6.19876 26.9692 6.14529 26.5489 6.13968 26.1523C6.13504 25.8279 5.8616 25.5494 5.53726 25.543C4.92801 25.5311 4.24661 25.4159 3.75333 25.1458C2.00088 24.1867 1.35782 21.9885 2.31705 20.2361C3.19773 18.627 5.14298 18.0194 6.75069 18.5938C7.51797 18.868 8.44945 18.8968 9.02559 18.3206L18.5429 8.80328C19.1068 8.23935 19.0933 7.33371 18.8284 6.58146C18.8023 6.50731 18.7785 6.43206 18.7572 6.35581C18.6796 6.07958 18.6363 5.80103 18.625 5.52501C18.6138 5.24877 18.6346 4.97504 18.6851 4.70867C18.7841 4.18071 18.998 3.69297 19.2995 3.27273C19.6032 2.84806 20.0006 2.48611 20.4743 2.22189C20.8246 2.02552 21.2113 1.88575 21.6214 1.81505C21.6394 1.81189 21.6575 1.80888 21.6756 1.806C21.7023 1.80175 21.7289 1.7978 21.7555 1.79417C22.1447 1.74111 22.5327 1.75307 22.9064 1.82343C23.4372 1.92228 23.9275 2.1371 24.3495 2.44052C24.7564 2.73197 25.1055 3.10945 25.3661 3.55766C25.4287 3.6653 25.4861 3.77703 25.5381 3.89262C25.6648 4.17331 25.7572 4.47287 25.809 4.78621C25.8327 4.92765 25.8477 5.0691 25.8544 5.20994Z" fill="url(#paint5_radial_20020_5118)"/>
<path d="M25.8544 5.20994C25.8698 5.53401 26.141 5.81051 26.4648 5.83182C26.974 5.86535 27.4843 6.00773 27.9613 6.26891C29.7138 7.22807 30.3568 9.42622 29.3976 11.1786C28.5157 12.79 26.5667 13.3965 24.9582 12.8187C24.1897 12.5427 23.2556 12.5125 22.6783 13.0899L13.1676 22.6005C12.6025 23.1656 12.6173 24.0738 12.884 24.8273C12.8903 24.8451 12.8964 24.863 12.9025 24.881C13.5399 26.7743 12.522 28.8259 10.6287 29.4634C8.7355 30.1009 6.95206 29.2063 6.31448 27.313C6.19876 26.9692 6.14529 26.5489 6.13968 26.1523C6.13504 25.8279 5.8616 25.5494 5.53726 25.543C4.92801 25.5311 4.24661 25.4159 3.75333 25.1458C2.00088 24.1867 1.35782 21.9885 2.31705 20.2361C3.19773 18.627 5.14298 18.0194 6.75069 18.5938C7.51797 18.868 8.44945 18.8968 9.02559 18.3206L18.5429 8.80328C19.1068 8.23935 19.0933 7.33371 18.8284 6.58146C18.8023 6.50731 18.7785 6.43206 18.7572 6.35581C18.6796 6.07958 18.6363 5.80103 18.625 5.52501C18.6138 5.24877 18.6346 4.97504 18.6851 4.70867C18.7841 4.18071 18.998 3.69297 19.2995 3.27273C19.6032 2.84806 20.0006 2.48611 20.4743 2.22189C20.8246 2.02552 21.2113 1.88575 21.6214 1.81505C21.6394 1.81189 21.6575 1.80888 21.6756 1.806C21.7023 1.80175 21.7289 1.7978 21.7555 1.79417C22.1447 1.74111 22.5327 1.75307 22.9064 1.82343C23.4372 1.92228 23.9275 2.1371 24.3495 2.44052C24.7564 2.73197 25.1055 3.10945 25.3661 3.55766C25.4287 3.6653 25.4861 3.77703 25.5381 3.89262C25.6648 4.17331 25.7572 4.47287 25.809 4.78621C25.8327 4.92765 25.8477 5.0691 25.8544 5.20994Z" fill="url(#paint6_radial_20020_5118)"/>
<path d="M25.8544 5.20994C25.8698 5.53401 26.141 5.81051 26.4648 5.83182C26.974 5.86535 27.4843 6.00773 27.9613 6.26891C29.7138 7.22807 30.3568 9.42622 29.3976 11.1786C28.5157 12.79 26.5667 13.3965 24.9582 12.8187C24.1897 12.5427 23.2556 12.5125 22.6783 13.0899L13.1676 22.6005C12.6025 23.1656 12.6173 24.0738 12.884 24.8273C12.8903 24.8451 12.8964 24.863 12.9025 24.881C13.5399 26.7743 12.522 28.8259 10.6287 29.4634C8.7355 30.1009 6.95206 29.2063 6.31448 27.313C6.19876 26.9692 6.14529 26.5489 6.13968 26.1523C6.13504 25.8279 5.8616 25.5494 5.53726 25.543C4.92801 25.5311 4.24661 25.4159 3.75333 25.1458C2.00088 24.1867 1.35782 21.9885 2.31705 20.2361C3.19773 18.627 5.14298 18.0194 6.75069 18.5938C7.51797 18.868 8.44945 18.8968 9.02559 18.3206L18.5429 8.80328C19.1068 8.23935 19.0933 7.33371 18.8284 6.58146C18.8023 6.50731 18.7785 6.43206 18.7572 6.35581C18.6796 6.07958 18.6363 5.80103 18.625 5.52501C18.6138 5.24877 18.6346 4.97504 18.6851 4.70867C18.7841 4.18071 18.998 3.69297 19.2995 3.27273C19.6032 2.84806 20.0006 2.48611 20.4743 2.22189C20.8246 2.02552 21.2113 1.88575 21.6214 1.81505C21.6394 1.81189 21.6575 1.80888 21.6756 1.806C21.7023 1.80175 21.7289 1.7978 21.7555 1.79417C22.1447 1.74111 22.5327 1.75307 22.9064 1.82343C23.4372 1.92228 23.9275 2.1371 24.3495 2.44052C24.7564 2.73197 25.1055 3.10945 25.3661 3.55766C25.4287 3.6653 25.4861 3.77703 25.5381 3.89262C25.6648 4.17331 25.7572 4.47287 25.809 4.78621C25.8327 4.92765 25.8477 5.0691 25.8544 5.20994Z" fill="url(#paint7_radial_20020_5118)"/>
<path d="M25.8544 5.20994C25.8698 5.53401 26.141 5.81051 26.4648 5.83182C26.974 5.86535 27.4843 6.00773 27.9613 6.26891C29.7138 7.22807 30.3568 9.42622 29.3976 11.1786C28.5157 12.79 26.5667 13.3965 24.9582 12.8187C24.1897 12.5427 23.2556 12.5125 22.6783 13.0899L13.1676 22.6005C12.6025 23.1656 12.6173 24.0738 12.884 24.8273C12.8903 24.8451 12.8964 24.863 12.9025 24.881C13.5399 26.7743 12.522 28.8259 10.6287 29.4634C8.7355 30.1009 6.95206 29.2063 6.31448 27.313C6.19876 26.9692 6.14529 26.5489 6.13968 26.1523C6.13504 25.8279 5.8616 25.5494 5.53726 25.543C4.92801 25.5311 4.24661 25.4159 3.75333 25.1458C2.00088 24.1867 1.35782 21.9885 2.31705 20.2361C3.19773 18.627 5.14298 18.0194 6.75069 18.5938C7.51797 18.868 8.44945 18.8968 9.02559 18.3206L18.5429 8.80328C19.1068 8.23935 19.0933 7.33371 18.8284 6.58146C18.8023 6.50731 18.7785 6.43206 18.7572 6.35581C18.6796 6.07958 18.6363 5.80103 18.625 5.52501C18.6138 5.24877 18.6346 4.97504 18.6851 4.70867C18.7841 4.18071 18.998 3.69297 19.2995 3.27273C19.6032 2.84806 20.0006 2.48611 20.4743 2.22189C20.8246 2.02552 21.2113 1.88575 21.6214 1.81505C21.6394 1.81189 21.6575 1.80888 21.6756 1.806C21.7023 1.80175 21.7289 1.7978 21.7555 1.79417C22.1447 1.74111 22.5327 1.75307 22.9064 1.82343C23.4372 1.92228 23.9275 2.1371 24.3495 2.44052C24.7564 2.73197 25.1055 3.10945 25.3661 3.55766C25.4287 3.6653 25.4861 3.77703 25.5381 3.89262C25.6648 4.17331 25.7572 4.47287 25.809 4.78621C25.8327 4.92765 25.8477 5.0691 25.8544 5.20994Z" fill="url(#paint8_radial_20020_5118)"/>
<path d="M25.8544 5.20994C25.8698 5.53401 26.141 5.81051 26.4648 5.83182C26.974 5.86535 27.4843 6.00773 27.9613 6.26891C29.7138 7.22807 30.3568 9.42622 29.3976 11.1786C28.5157 12.79 26.5667 13.3965 24.9582 12.8187C24.1897 12.5427 23.2556 12.5125 22.6783 13.0899L13.1676 22.6005C12.6025 23.1656 12.6173 24.0738 12.884 24.8273C12.8903 24.8451 12.8964 24.863 12.9025 24.881C13.5399 26.7743 12.522 28.8259 10.6287 29.4634C8.7355 30.1009 6.95206 29.2063 6.31448 27.313C6.19876 26.9692 6.14529 26.5489 6.13968 26.1523C6.13504 25.8279 5.8616 25.5494 5.53726 25.543C4.92801 25.5311 4.24661 25.4159 3.75333 25.1458C2.00088 24.1867 1.35782 21.9885 2.31705 20.2361C3.19773 18.627 5.14298 18.0194 6.75069 18.5938C7.51797 18.868 8.44945 18.8968 9.02559 18.3206L18.5429 8.80328C19.1068 8.23935 19.0933 7.33371 18.8284 6.58146C18.8023 6.50731 18.7785 6.43206 18.7572 6.35581C18.6796 6.07958 18.6363 5.80103 18.625 5.52501C18.6138 5.24877 18.6346 4.97504 18.6851 4.70867C18.7841 4.18071 18.998 3.69297 19.2995 3.27273C19.6032 2.84806 20.0006 2.48611 20.4743 2.22189C20.8246 2.02552 21.2113 1.88575 21.6214 1.81505C21.6394 1.81189 21.6575 1.80888 21.6756 1.806C21.7023 1.80175 21.7289 1.7978 21.7555 1.79417C22.1447 1.74111 22.5327 1.75307 22.9064 1.82343C23.4372 1.92228 23.9275 2.1371 24.3495 2.44052C24.7564 2.73197 25.1055 3.10945 25.3661 3.55766C25.4287 3.6653 25.4861 3.77703 25.5381 3.89262C25.6648 4.17331 25.7572 4.47287 25.809 4.78621C25.8327 4.92765 25.8477 5.0691 25.8544 5.20994Z" fill="url(#paint9_radial_20020_5118)"/>
<g filter="url(#filter1_f_20020_5118)">
<path d="M6.03326 22.9224C7.23326 23.6599 7.00201 25.1255 6.73639 25.7661L5.68951 25.0317C6.21451 24.3817 6.13743 23.3547 6.03326 22.9224Z" fill="#A49CAA"/>
</g>
<g filter="url(#filter2_f_20020_5118)">
<path d="M26.1113 9.39964C26.0715 8.04526 26.9703 6.7025 27.2691 6.38714L26.1113 6.08838C25.1951 7.8411 25.7295 9.10088 26.1113 9.39964Z" fill="url(#paint10_linear_20020_5118)"/>
</g>
<defs>
<filter id="filter0_ii_20020_5118" x="1.87213" y="1.01123" width="28.7204" height="28.6562" filterUnits="userSpaceOnUse" color-interpolation-filters="sRGB">
<feFlood flood-opacity="0" result="BackgroundImageFix"/>
<feBlend mode="normal" in="SourceGraphic" in2="BackgroundImageFix" result="shape"/>
<feColorMatrix in="SourceAlpha" type="matrix" values="0 0 0 0 0 0 0 0 0 0 0 0 0 0 0 0 0 0 127 0" result="hardAlpha"/>
<feOffset dx="0.75"/>
<feGaussianBlur stdDeviation="1.25"/>
<feComposite in2="hardAlpha" operator="arithmetic" k2="-1" k3="1"/>
<feColorMatrix type="matrix" values="0 0 0 0 0.580392 0 0 0 0 0.568627 0 0 0 0 0.584314 0 0 0 1 0"/>
<feBlend mode="normal" in2="shape" result="effect1_innerShadow_20020_5118"/>
<feColorMatrix in="SourceAlpha" type="matrix" values="0 0 0 0 0 0 0 0 0 0 0 0 0 0 0 0 0 0 127 0" result="hardAlpha"/>
<feOffset dy="-0.75"/>
<feGaussianBlur stdDeviation="0.75"/>
<feComposite in2="hardAlpha" operator="arithmetic" k2="-1" k3="1"/>
<feColorMatrix type="matrix" values="0 0 0 0 0.756863 0 0 0 0 0.662745 0 0 0 0 0.815686 0 0 0 1 0"/>
<feBlend mode="normal" in2="effect1_innerShadow_20020_5118" result="effect2_innerShadow_20020_5118"/>
</filter>
<filter id="filter1_f_20020_5118" x="4.68951" y="21.9224" width="3.26001" height="4.84375" filterUnits="userSpaceOnUse" color-interpolation-filters="sRGB">
<feFlood flood-opacity="0" result="BackgroundImageFix"/>
<feBlend mode="normal" in="SourceGraphic" in2="BackgroundImageFix" result="shape"/>
<feGaussianBlur stdDeviation="0.5" result="effect1_foregroundBlur_20020_5118"/>
</filter>
<filter id="filter2_f_20020_5118" x="24.6054" y="5.08838" width="3.6637" height="5.31128" filterUnits="userSpaceOnUse" color-interpolation-filters="sRGB">
<feFlood flood-opacity="0" result="BackgroundImageFix"/>
<feBlend mode="normal" in="SourceGraphic" in2="BackgroundImageFix" result="shape"/>
<feGaussianBlur stdDeviation="0.5" result="effect1_foregroundBlur_20020_5118"/>
</filter>
<radialGradient id="paint0_radial_20020_5118" cx="0" cy="0" r="1" gradientUnits="userSpaceOnUse" gradientTransform="translate(24.247 4.55464) rotate(101.843) scale(4.30982 4.32169)">
<stop stop-color="#FBFAFC"/>
<stop offset="1" stop-color="#E5E5E5" stop-opacity="0"/>
</radialGradient>
<radialGradient id="paint1_radial_20020_5118" cx="0" cy="0" r="1" gradientUnits="userSpaceOnUse" gradientTransform="translate(28.7568 8.29303) rotate(159.444) scale(3.04198 2.89961)">
<stop stop-color="#FBFAFC"/>
<stop offset="1" stop-color="#E5E5E5" stop-opacity="0"/>
</radialGradient>
<radialGradient id="paint2_radial_20020_5118" cx="0" cy="0" r="1" gradientUnits="userSpaceOnUse" gradientTransform="translate(27.0953 2.92281) rotate(112.855) scale(7.7918 1.68675)">
<stop stop-color="#FBFAFC"/>
<stop offset="1" stop-color="#E5E5E5" stop-opacity="0"/>
</radialGradient>
<radialGradient id="paint3_radial_20020_5118" cx="0" cy="0" r="1" gradientUnits="userSpaceOnUse" gradientTransform="translate(26.2989 15.7143) rotate(-102.377) scale(7.28952 4.4571)">
<stop stop-color="#BDA5CC"/>
<stop offset="1" stop-color="#BDA5CC" stop-opacity="0"/>
</radialGradient>
<radialGradient id="paint4_radial_20020_5118" cx="0" cy="0" r="1" gradientUnits="userSpaceOnUse" gradientTransform="translate(1.42389 20.4692) rotate(5.49233) scale(3.26499 3.10467)">
<stop stop-color="#9B9A9B"/>
<stop offset="1" stop-color="#9B9A9B" stop-opacity="0"/>
</radialGradient>
<radialGradient id="paint5_radial_20020_5118" cx="0" cy="0" r="1" gradientUnits="userSpaceOnUse" gradientTransform="translate(6.61139 20.6567) rotate(-102.529) scale(2.88111 2.10829)">
<stop stop-color="#E8E3EB"/>
<stop offset="1" stop-color="#E8E3EB" stop-opacity="0"/>
</radialGradient>
<radialGradient id="paint6_radial_20020_5118" cx="0" cy="0" r="1" gradientUnits="userSpaceOnUse" gradientTransform="translate(3.98639 26.313) rotate(-80.2724) scale(4.43882 3.2846)">
<stop stop-color="#C6AED5"/>
<stop offset="1" stop-color="#C6AED5" stop-opacity="0"/>
</radialGradient>
<radialGradient id="paint7_radial_20020_5118" cx="0" cy="0" r="1" gradientUnits="userSpaceOnUse" gradientTransform="translate(13.5137 24.8356) rotate(-171.861) scale(5.2363 2.90816)">
<stop offset="0.289208" stop-color="#F5EEF9"/>
<stop offset="1" stop-color="#F5EEF9" stop-opacity="0"/>
</radialGradient>
<radialGradient id="paint8_radial_20020_5118" cx="0" cy="0" r="1" gradientUnits="userSpaceOnUse" gradientTransform="translate(11.0489 5.84424) rotate(90.7402) scale(24.1895 24.4258)">
<stop offset="0.857104" stop-color="#D5BBE5" stop-opacity="0"/>
<stop offset="1" stop-color="#D5BBE5"/>
</radialGradient>
<radialGradient id="paint9_radial_20020_5118" cx="0" cy="0" r="1" gradientUnits="userSpaceOnUse" gradientTransform="translate(5.04889 29.2817) rotate(-69.2277) scale(5.81552 2.76303)">
<stop stop-color="#A199A7"/>
<stop offset="1" stop-color="#A199A7" stop-opacity="0"/>
</radialGradient>
<linearGradient id="paint10_linear_20020_5118" x1="26.6342" y1="6.31245" x2="25.8251" y2="11.1797" gradientUnits="userSpaceOnUse">
<stop stop-color="#B6B0BB"/>
<stop offset="1" stop-color="#C6BFCB" stop-opacity="0"/>
</linearGradient>
</defs>
</svg>
