<svg width="32" height="32" viewBox="0 0 32 32" fill="none" xmlns="http://www.w3.org/2000/svg">
<path fill-rule="evenodd" clip-rule="evenodd" d="M8.43082 7.87616L4.98047 11.3265L6.90493 13.251L7.86716 12.2887L9.79162 14.2132L11.7161 16.1377L16.187 11.6667C16.3749 11.4788 16.3749 11.1742 16.187 10.9863L15.9636 10.7629C15.212 10.0113 13.9935 10.0113 13.242 10.7629L14.2626 9.74225C14.4505 9.55437 14.4505 9.24974 14.2626 9.06185L14.0391 8.83839C13.2876 8.08684 12.0691 8.08684 11.3175 8.83839L11.3759 8.78002C11.5638 8.59214 11.5638 8.28751 11.3759 8.09962L11.1524 7.87616C10.4009 7.12461 9.18237 7.12461 8.43082 7.87616Z" fill="#1F1C1A"/>
<path fill-rule="evenodd" clip-rule="evenodd" d="M8.43082 7.87616L4.98047 11.3265L6.90493 13.251L7.86716 12.2887L9.79162 14.2132L11.7161 16.1377L16.187 11.6667C16.3749 11.4788 16.3749 11.1742 16.187 10.9863L15.9636 10.7629C15.212 10.0113 13.9935 10.0113 13.242 10.7629L14.2626 9.74225C14.4505 9.55437 14.4505 9.24974 14.2626 9.06185L14.0391 8.83839C13.2876 8.08684 12.0691 8.08684 11.3175 8.83839L11.3759 8.78002C11.5638 8.59214 11.5638 8.28751 11.3759 8.09962L11.1524 7.87616C10.4009 7.12461 9.18237 7.12461 8.43082 7.87616Z" fill="url(#paint0_radial_6875_28590)"/>
<path fill-rule="evenodd" clip-rule="evenodd" d="M8.43082 7.87616L4.98047 11.3265L6.90493 13.251L7.86716 12.2887L9.79162 14.2132L11.7161 16.1377L16.187 11.6667C16.3749 11.4788 16.3749 11.1742 16.187 10.9863L15.9636 10.7629C15.212 10.0113 13.9935 10.0113 13.242 10.7629L14.2626 9.74225C14.4505 9.55437 14.4505 9.24974 14.2626 9.06185L14.0391 8.83839C13.2876 8.08684 12.0691 8.08684 11.3175 8.83839L11.3759 8.78002C11.5638 8.59214 11.5638 8.28751 11.3759 8.09962L11.1524 7.87616C10.4009 7.12461 9.18237 7.12461 8.43082 7.87616Z" fill="url(#paint1_radial_6875_28590)"/>
<path fill-rule="evenodd" clip-rule="evenodd" d="M8.43082 7.87616L4.98047 11.3265L6.90493 13.251L7.86716 12.2887L9.79162 14.2132L11.7161 16.1377L16.187 11.6667C16.3749 11.4788 16.3749 11.1742 16.187 10.9863L15.9636 10.7629C15.212 10.0113 13.9935 10.0113 13.242 10.7629L14.2626 9.74225C14.4505 9.55437 14.4505 9.24974 14.2626 9.06185L14.0391 8.83839C13.2876 8.08684 12.0691 8.08684 11.3175 8.83839L11.3759 8.78002C11.5638 8.59214 11.5638 8.28751 11.3759 8.09962L11.1524 7.87616C10.4009 7.12461 9.18237 7.12461 8.43082 7.87616Z" fill="url(#paint2_radial_6875_28590)"/>
<path fill-rule="evenodd" clip-rule="evenodd" d="M8.43082 7.87616L4.98047 11.3265L6.90493 13.251L7.86716 12.2887L9.79162 14.2132L11.7161 16.1377L16.187 11.6667C16.3749 11.4788 16.3749 11.1742 16.187 10.9863L15.9636 10.7629C15.212 10.0113 13.9935 10.0113 13.242 10.7629L14.2626 9.74225C14.4505 9.55437 14.4505 9.24974 14.2626 9.06185L14.0391 8.83839C13.2876 8.08684 12.0691 8.08684 11.3175 8.83839L11.3759 8.78002C11.5638 8.59214 11.5638 8.28751 11.3759 8.09962L11.1524 7.87616C10.4009 7.12461 9.18237 7.12461 8.43082 7.87616Z" fill="url(#paint3_radial_6875_28590)"/>
<path fill-rule="evenodd" clip-rule="evenodd" d="M8.43082 7.87616L4.98047 11.3265L6.90493 13.251L7.86716 12.2887L9.79162 14.2132L11.7161 16.1377L16.187 11.6667C16.3749 11.4788 16.3749 11.1742 16.187 10.9863L15.9636 10.7629C15.212 10.0113 13.9935 10.0113 13.242 10.7629L14.2626 9.74225C14.4505 9.55437 14.4505 9.24974 14.2626 9.06185L14.0391 8.83839C13.2876 8.08684 12.0691 8.08684 11.3175 8.83839L11.3759 8.78002C11.5638 8.59214 11.5638 8.28751 11.3759 8.09962L11.1524 7.87616C10.4009 7.12461 9.18237 7.12461 8.43082 7.87616Z" fill="url(#paint4_radial_6875_28590)"/>
<path fill-rule="evenodd" clip-rule="evenodd" d="M8.43082 7.87616L4.98047 11.3265L6.90493 13.251L7.86716 12.2887L9.79162 14.2132L11.7161 16.1377L16.187 11.6667C16.3749 11.4788 16.3749 11.1742 16.187 10.9863L15.9636 10.7629C15.212 10.0113 13.9935 10.0113 13.242 10.7629L14.2626 9.74225C14.4505 9.55437 14.4505 9.24974 14.2626 9.06185L14.0391 8.83839C13.2876 8.08684 12.0691 8.08684 11.3175 8.83839L11.3759 8.78002C11.5638 8.59214 11.5638 8.28751 11.3759 8.09962L11.1524 7.87616C10.4009 7.12461 9.18237 7.12461 8.43082 7.87616Z" fill="url(#paint5_radial_6875_28590)"/>
<path fill-rule="evenodd" clip-rule="evenodd" d="M8.43082 7.87616L4.98047 11.3265L6.90493 13.251L7.86716 12.2887L9.79162 14.2132L11.7161 16.1377L16.187 11.6667C16.3749 11.4788 16.3749 11.1742 16.187 10.9863L15.9636 10.7629C15.212 10.0113 13.9935 10.0113 13.242 10.7629L14.2626 9.74225C14.4505 9.55437 14.4505 9.24974 14.2626 9.06185L14.0391 8.83839C13.2876 8.08684 12.0691 8.08684 11.3175 8.83839L11.3759 8.78002C11.5638 8.59214 11.5638 8.28751 11.3759 8.09962L11.1524 7.87616C10.4009 7.12461 9.18237 7.12461 8.43082 7.87616Z" fill="url(#paint6_radial_6875_28590)"/>
<path fill-rule="evenodd" clip-rule="evenodd" d="M8.43082 7.87616L4.98047 11.3265L6.90493 13.251L7.86716 12.2887L9.79162 14.2132L11.7161 16.1377L16.187 11.6667C16.3749 11.4788 16.3749 11.1742 16.187 10.9863L15.9636 10.7629C15.212 10.0113 13.9935 10.0113 13.242 10.7629L14.2626 9.74225C14.4505 9.55437 14.4505 9.24974 14.2626 9.06185L14.0391 8.83839C13.2876 8.08684 12.0691 8.08684 11.3175 8.83839L11.3759 8.78002C11.5638 8.59214 11.5638 8.28751 11.3759 8.09962L11.1524 7.87616C10.4009 7.12461 9.18237 7.12461 8.43082 7.87616Z" fill="url(#paint7_radial_6875_28590)"/>
<path fill-rule="evenodd" clip-rule="evenodd" d="M8.43082 7.87616L4.98047 11.3265L6.90493 13.251L7.86716 12.2887L9.79162 14.2132L11.7161 16.1377L16.187 11.6667C16.3749 11.4788 16.3749 11.1742 16.187 10.9863L15.9636 10.7629C15.212 10.0113 13.9935 10.0113 13.242 10.7629L14.2626 9.74225C14.4505 9.55437 14.4505 9.24974 14.2626 9.06185L14.0391 8.83839C13.2876 8.08684 12.0691 8.08684 11.3175 8.83839L11.3759 8.78002C11.5638 8.59214 11.5638 8.28751 11.3759 8.09962L11.1524 7.87616C10.4009 7.12461 9.18237 7.12461 8.43082 7.87616Z" fill="url(#paint8_radial_6875_28590)"/>
<path fill-rule="evenodd" clip-rule="evenodd" d="M8.43082 7.87616L4.98047 11.3265L6.90493 13.251L7.86716 12.2887L9.79162 14.2132L11.7161 16.1377L16.187 11.6667C16.3749 11.4788 16.3749 11.1742 16.187 10.9863L15.9636 10.7629C15.212 10.0113 13.9935 10.0113 13.242 10.7629L14.2626 9.74225C14.4505 9.55437 14.4505 9.24974 14.2626 9.06185L14.0391 8.83839C13.2876 8.08684 12.0691 8.08684 11.3175 8.83839L11.3759 8.78002C11.5638 8.59214 11.5638 8.28751 11.3759 8.09962L11.1524 7.87616C10.4009 7.12461 9.18237 7.12461 8.43082 7.87616Z" fill="url(#paint9_radial_6875_28590)"/>
<path d="M24.2265 19.5996L18.4531 20.5618L21.3398 16.7129H24.8229C25.0586 16.7129 25.286 16.7994 25.4622 16.9559L28.2751 19.4563L28.3879 20.1956C28.4106 20.3443 28.3624 20.495 28.2577 20.603L27.8008 21.0743C27.694 21.1845 27.541 21.2371 27.3891 21.216L26.6478 21.1129L24.2265 19.5996Z" fill="url(#paint10_radial_6875_28590)"/>
<path d="M24.2265 19.5996L18.4531 20.5618L21.3398 16.7129H24.8229C25.0586 16.7129 25.286 16.7994 25.4622 16.9559L28.2751 19.4563L28.3879 20.1956C28.4106 20.3443 28.3624 20.495 28.2577 20.603L27.8008 21.0743C27.694 21.1845 27.541 21.2371 27.3891 21.216L26.6478 21.1129L24.2265 19.5996Z" fill="url(#paint11_linear_6875_28590)"/>
<path d="M5.94925 26.0092L5.94394 22.3459C5.94357 22.0915 6.04399 21.8473 6.22324 21.6667L10.7545 17.1016L13.6412 19.026L8.23989 23.2322C8.00518 23.415 7.86821 23.6961 7.86887 23.9936L7.87333 26.0074C7.87392 26.2736 7.65835 26.4896 7.39222 26.4896H6.43036C6.16492 26.4896 5.94963 26.2746 5.94925 26.0092Z" fill="url(#paint12_radial_6875_28590)"/>
<path d="M5.94925 26.0092L5.94394 22.3459C5.94357 22.0915 6.04399 21.8473 6.22324 21.6667L10.7545 17.1016L13.6412 19.026L8.23989 23.2322C8.00518 23.415 7.86821 23.6961 7.86887 23.9936L7.87333 26.0074C7.87392 26.2736 7.65835 26.4896 7.39222 26.4896H6.43036C6.16492 26.4896 5.94963 26.2746 5.94925 26.0092Z" fill="url(#paint13_radial_6875_28590)"/>
<path d="M5.94925 26.0092L5.94394 22.3459C5.94357 22.0915 6.04399 21.8473 6.22324 21.6667L10.7545 17.1016L13.6412 19.026L8.23989 23.2322C8.00518 23.415 7.86821 23.6961 7.86887 23.9936L7.87333 26.0074C7.87392 26.2736 7.65835 26.4896 7.39222 26.4896H6.43036C6.16492 26.4896 5.94963 26.2746 5.94925 26.0092Z" fill="url(#paint14_linear_6875_28590)"/>
<path d="M5.94925 26.0092L5.94394 22.3459C5.94357 22.0915 6.04399 21.8473 6.22324 21.6667L10.7545 17.1016L13.6412 19.026L8.23989 23.2322C8.00518 23.415 7.86821 23.6961 7.86887 23.9936L7.87333 26.0074C7.87392 26.2736 7.65835 26.4896 7.39222 26.4896H6.43036C6.16492 26.4896 5.94963 26.2746 5.94925 26.0092Z" fill="url(#paint15_linear_6875_28590)"/>
<path d="M5.94925 26.0092L5.94394 22.3459C5.94357 22.0915 6.04399 21.8473 6.22324 21.6667L10.7545 17.1016L13.6412 19.026L8.23989 23.2322C8.00518 23.415 7.86821 23.6961 7.86887 23.9936L7.87333 26.0074C7.87392 26.2736 7.65835 26.4896 7.39222 26.4896H6.43036C6.16492 26.4896 5.94963 26.2746 5.94925 26.0092Z" fill="url(#paint16_radial_6875_28590)"/>
<path d="M5.94925 26.0092L5.94394 22.3459C5.94357 22.0915 6.04399 21.8473 6.22324 21.6667L10.7545 17.1016L13.6412 19.026L8.23989 23.2322C8.00518 23.415 7.86821 23.6961 7.86887 23.9936L7.87333 26.0074C7.87392 26.2736 7.65835 26.4896 7.39222 26.4896H6.43036C6.16492 26.4896 5.94963 26.2746 5.94925 26.0092Z" fill="url(#paint17_radial_6875_28590)"/>
<path fill-rule="evenodd" clip-rule="evenodd" d="M5.94905 25.8535L5.95023 26.8163C5.95056 27.0818 6.16587 27.2969 6.43135 27.2969H7.39333C7.65937 27.2969 7.87491 27.0809 7.87444 26.8149L7.87277 25.8535H5.94905Z" fill="url(#paint18_radial_6875_28590)"/>
<path fill-rule="evenodd" clip-rule="evenodd" d="M26.0092 4.73271C26.1971 4.9206 26.1971 5.22522 26.0092 5.41311L22.9816 8.44072H25.0883C25.7312 8.44072 26.0532 9.21806 25.5986 9.67269L23.5672 11.7041C23.3793 11.892 23.0747 11.892 22.8868 11.7041C22.6989 11.5162 22.6989 11.2116 22.8868 11.0237L24.5075 9.40295H22.4009C21.7579 9.40295 21.4359 8.6256 21.8906 8.17098L25.3288 4.73271C25.5167 4.54483 25.8213 4.54483 26.0092 4.73271Z" fill="url(#paint19_linear_6875_28590)"/>
<path fill-rule="evenodd" clip-rule="evenodd" d="M26.0092 4.73271C26.1971 4.9206 26.1971 5.22522 26.0092 5.41311L22.9816 8.44072H25.0883C25.6158 8.44072 25.9272 8.96397 25.771 9.40295H24.5075H22.4009C21.7579 9.40295 21.4359 8.6256 21.8906 8.17098L25.3288 4.73271C25.5167 4.54483 25.8213 4.54483 26.0092 4.73271Z" fill="url(#paint20_linear_6875_28590)"/>
<path fill-rule="evenodd" clip-rule="evenodd" d="M26.0092 4.73271C26.1971 4.9206 26.1971 5.22522 26.0092 5.41311L22.9816 8.44072L22.0778 9.32908C21.6649 9.12443 21.5206 8.54088 21.8906 8.17098L25.3288 4.73271C25.5167 4.54483 25.8213 4.54483 26.0092 4.73271Z" fill="url(#paint21_linear_6875_28590)"/>
<path d="M2.16313 13.2749L4.98222 14.2146L4.9822 12.7713L3.39716 12.2429C2.7568 12.0295 2.09552 12.5061 2.09552 13.1811C2.09552 13.2236 2.12275 13.2614 2.16313 13.2749Z" fill="url(#paint22_radial_6875_28590)"/>
<path d="M8.83098 15.5305C8.83098 15.5305 8.83098 14.5821 8.83098 17.1256C8.30458 17.4838 7.12467 18.2796 7.12467 18.2796C7.12467 18.2796 6.05311 17.559 5.39016 17.1256L4.26039 13.2521L2.245 11.4606C2.16382 11.3885 2.16013 11.2628 2.23693 11.1861C2.71412 10.7089 3.46178 10.6348 4.02329 11.0092L4.50095 11.3276C6.58906 8.97847 10.2239 8.87166 12.4464 11.0941L12.6799 11.3276L14.2901 12.7604C14.952 13.3494 15.9061 13.4756 16.6984 13.079L21.1643 10.8433C21.7767 10.5368 22.4843 10.4799 23.1378 10.6847C24.3326 11.0592 25.1006 12.2207 24.9773 13.4667L24.8774 14.477C24.7725 15.5381 24.2367 16.5096 23.3953 17.1645L19.0589 20.54C17.0112 22.134 14.0683 21.8168 12.4073 19.8231L8.83098 15.5305Z" fill="#D8C0C1"/>
<path d="M8.83098 15.5305C8.83098 15.5305 8.83098 14.5821 8.83098 17.1256C8.30458 17.4838 7.12467 18.2796 7.12467 18.2796C7.12467 18.2796 6.05311 17.559 5.39016 17.1256L4.26039 13.2521L2.245 11.4606C2.16382 11.3885 2.16013 11.2628 2.23693 11.1861C2.71412 10.7089 3.46178 10.6348 4.02329 11.0092L4.50095 11.3276C6.58906 8.97847 10.2239 8.87166 12.4464 11.0941L12.6799 11.3276L14.2901 12.7604C14.952 13.3494 15.9061 13.4756 16.6984 13.079L21.1643 10.8433C21.7767 10.5368 22.4843 10.4799 23.1378 10.6847C24.3326 11.0592 25.1006 12.2207 24.9773 13.4667L24.8774 14.477C24.7725 15.5381 24.2367 16.5096 23.3953 17.1645L19.0589 20.54C17.0112 22.134 14.0683 21.8168 12.4073 19.8231L8.83098 15.5305Z" fill="url(#paint23_radial_6875_28590)"/>
<path d="M8.83098 15.5305C8.83098 15.5305 8.83098 14.5821 8.83098 17.1256C8.30458 17.4838 7.12467 18.2796 7.12467 18.2796C7.12467 18.2796 6.05311 17.559 5.39016 17.1256L4.26039 13.2521L2.245 11.4606C2.16382 11.3885 2.16013 11.2628 2.23693 11.1861C2.71412 10.7089 3.46178 10.6348 4.02329 11.0092L4.50095 11.3276C6.58906 8.97847 10.2239 8.87166 12.4464 11.0941L12.6799 11.3276L14.2901 12.7604C14.952 13.3494 15.9061 13.4756 16.6984 13.079L21.1643 10.8433C21.7767 10.5368 22.4843 10.4799 23.1378 10.6847C24.3326 11.0592 25.1006 12.2207 24.9773 13.4667L24.8774 14.477C24.7725 15.5381 24.2367 16.5096 23.3953 17.1645L19.0589 20.54C17.0112 22.134 14.0683 21.8168 12.4073 19.8231L8.83098 15.5305Z" fill="url(#paint24_radial_6875_28590)"/>
<path d="M8.83098 15.5305C8.83098 15.5305 8.83098 14.5821 8.83098 17.1256C8.30458 17.4838 7.12467 18.2796 7.12467 18.2796C7.12467 18.2796 6.05311 17.559 5.39016 17.1256L4.26039 13.2521L2.245 11.4606C2.16382 11.3885 2.16013 11.2628 2.23693 11.1861C2.71412 10.7089 3.46178 10.6348 4.02329 11.0092L4.50095 11.3276C6.58906 8.97847 10.2239 8.87166 12.4464 11.0941L12.6799 11.3276L14.2901 12.7604C14.952 13.3494 15.9061 13.4756 16.6984 13.079L21.1643 10.8433C21.7767 10.5368 22.4843 10.4799 23.1378 10.6847C24.3326 11.0592 25.1006 12.2207 24.9773 13.4667L24.8774 14.477C24.7725 15.5381 24.2367 16.5096 23.3953 17.1645L19.0589 20.54C17.0112 22.134 14.0683 21.8168 12.4073 19.8231L8.83098 15.5305Z" fill="url(#paint25_radial_6875_28590)"/>
<path d="M8.83098 15.5305C8.83098 15.5305 8.83098 14.5821 8.83098 17.1256C8.30458 17.4838 7.12467 18.2796 7.12467 18.2796C7.12467 18.2796 6.05311 17.559 5.39016 17.1256L4.26039 13.2521L2.245 11.4606C2.16382 11.3885 2.16013 11.2628 2.23693 11.1861C2.71412 10.7089 3.46178 10.6348 4.02329 11.0092L4.50095 11.3276C6.58906 8.97847 10.2239 8.87166 12.4464 11.0941L12.6799 11.3276L14.2901 12.7604C14.952 13.3494 15.9061 13.4756 16.6984 13.079L21.1643 10.8433C21.7767 10.5368 22.4843 10.4799 23.1378 10.6847C24.3326 11.0592 25.1006 12.2207 24.9773 13.4667L24.8774 14.477C24.7725 15.5381 24.2367 16.5096 23.3953 17.1645L19.0589 20.54C17.0112 22.134 14.0683 21.8168 12.4073 19.8231L8.83098 15.5305Z" fill="url(#paint26_radial_6875_28590)"/>
<path d="M8.83098 15.5305C8.83098 15.5305 8.83098 14.5821 8.83098 17.1256C8.30458 17.4838 7.12467 18.2796 7.12467 18.2796C7.12467 18.2796 6.05311 17.559 5.39016 17.1256L4.26039 13.2521L2.245 11.4606C2.16382 11.3885 2.16013 11.2628 2.23693 11.1861C2.71412 10.7089 3.46178 10.6348 4.02329 11.0092L4.50095 11.3276C6.58906 8.97847 10.2239 8.87166 12.4464 11.0941L12.6799 11.3276L14.2901 12.7604C14.952 13.3494 15.9061 13.4756 16.6984 13.079L21.1643 10.8433C21.7767 10.5368 22.4843 10.4799 23.1378 10.6847C24.3326 11.0592 25.1006 12.2207 24.9773 13.4667L24.8774 14.477C24.7725 15.5381 24.2367 16.5096 23.3953 17.1645L19.0589 20.54C17.0112 22.134 14.0683 21.8168 12.4073 19.8231L8.83098 15.5305Z" fill="url(#paint27_radial_6875_28590)"/>
<path d="M8.83098 15.5305C8.83098 15.5305 8.83098 14.5821 8.83098 17.1256C8.30458 17.4838 7.12467 18.2796 7.12467 18.2796C7.12467 18.2796 6.05311 17.559 5.39016 17.1256L4.26039 13.2521L2.245 11.4606C2.16382 11.3885 2.16013 11.2628 2.23693 11.1861C2.71412 10.7089 3.46178 10.6348 4.02329 11.0092L4.50095 11.3276C6.58906 8.97847 10.2239 8.87166 12.4464 11.0941L12.6799 11.3276L14.2901 12.7604C14.952 13.3494 15.9061 13.4756 16.6984 13.079L21.1643 10.8433C21.7767 10.5368 22.4843 10.4799 23.1378 10.6847C24.3326 11.0592 25.1006 12.2207 24.9773 13.4667L24.8774 14.477C24.7725 15.5381 24.2367 16.5096 23.3953 17.1645L19.0589 20.54C17.0112 22.134 14.0683 21.8168 12.4073 19.8231L8.83098 15.5305Z" fill="url(#paint28_radial_6875_28590)"/>
<path d="M8.83098 15.5305C8.83098 15.5305 8.83098 14.5821 8.83098 17.1256C8.30458 17.4838 7.12467 18.2796 7.12467 18.2796C7.12467 18.2796 6.05311 17.559 5.39016 17.1256L4.26039 13.2521L2.245 11.4606C2.16382 11.3885 2.16013 11.2628 2.23693 11.1861C2.71412 10.7089 3.46178 10.6348 4.02329 11.0092L4.50095 11.3276C6.58906 8.97847 10.2239 8.87166 12.4464 11.0941L12.6799 11.3276L14.2901 12.7604C14.952 13.3494 15.9061 13.4756 16.6984 13.079L21.1643 10.8433C21.7767 10.5368 22.4843 10.4799 23.1378 10.6847C24.3326 11.0592 25.1006 12.2207 24.9773 13.4667L24.8774 14.477C24.7725 15.5381 24.2367 16.5096 23.3953 17.1645L19.0589 20.54C17.0112 22.134 14.0683 21.8168 12.4073 19.8231L8.83098 15.5305Z" fill="url(#paint29_radial_6875_28590)"/>
<path d="M8.83098 15.5305C8.83098 15.5305 8.83098 14.5821 8.83098 17.1256C8.30458 17.4838 7.12467 18.2796 7.12467 18.2796C7.12467 18.2796 6.05311 17.559 5.39016 17.1256L4.26039 13.2521L2.245 11.4606C2.16382 11.3885 2.16013 11.2628 2.23693 11.1861C2.71412 10.7089 3.46178 10.6348 4.02329 11.0092L4.50095 11.3276C6.58906 8.97847 10.2239 8.87166 12.4464 11.0941L12.6799 11.3276L14.2901 12.7604C14.952 13.3494 15.9061 13.4756 16.6984 13.079L21.1643 10.8433C21.7767 10.5368 22.4843 10.4799 23.1378 10.6847C24.3326 11.0592 25.1006 12.2207 24.9773 13.4667L24.8774 14.477C24.7725 15.5381 24.2367 16.5096 23.3953 17.1645L19.0589 20.54C17.0112 22.134 14.0683 21.8168 12.4073 19.8231L8.83098 15.5305Z" fill="url(#paint30_radial_6875_28590)"/>
<path d="M8.83098 15.5305C8.83098 15.5305 8.83098 14.5821 8.83098 17.1256C8.30458 17.4838 7.12467 18.2796 7.12467 18.2796C7.12467 18.2796 6.05311 17.559 5.39016 17.1256L4.26039 13.2521L2.245 11.4606C2.16382 11.3885 2.16013 11.2628 2.23693 11.1861C2.71412 10.7089 3.46178 10.6348 4.02329 11.0092L4.50095 11.3276C6.58906 8.97847 10.2239 8.87166 12.4464 11.0941L12.6799 11.3276L14.2901 12.7604C14.952 13.3494 15.9061 13.4756 16.6984 13.079L21.1643 10.8433C21.7767 10.5368 22.4843 10.4799 23.1378 10.6847C24.3326 11.0592 25.1006 12.2207 24.9773 13.4667L24.8774 14.477C24.7725 15.5381 24.2367 16.5096 23.3953 17.1645L19.0589 20.54C17.0112 22.134 14.0683 21.8168 12.4073 19.8231L8.83098 15.5305Z" fill="url(#paint31_radial_6875_28590)"/>
<path d="M8.83098 15.5305C8.83098 15.5305 8.83098 14.5821 8.83098 17.1256C8.30458 17.4838 7.12467 18.2796 7.12467 18.2796C7.12467 18.2796 6.05311 17.559 5.39016 17.1256L4.26039 13.2521L2.245 11.4606C2.16382 11.3885 2.16013 11.2628 2.23693 11.1861C2.71412 10.7089 3.46178 10.6348 4.02329 11.0092L4.50095 11.3276C6.58906 8.97847 10.2239 8.87166 12.4464 11.0941L12.6799 11.3276L14.2901 12.7604C14.952 13.3494 15.9061 13.4756 16.6984 13.079L21.1643 10.8433C21.7767 10.5368 22.4843 10.4799 23.1378 10.6847C24.3326 11.0592 25.1006 12.2207 24.9773 13.4667L24.8774 14.477C24.7725 15.5381 24.2367 16.5096 23.3953 17.1645L19.0589 20.54C17.0112 22.134 14.0683 21.8168 12.4073 19.8231L8.83098 15.5305Z" fill="url(#paint32_radial_6875_28590)"/>
<path d="M8.83098 15.5305C8.83098 15.5305 8.83098 14.5821 8.83098 17.1256C8.30458 17.4838 7.12467 18.2796 7.12467 18.2796C7.12467 18.2796 6.05311 17.559 5.39016 17.1256L4.26039 13.2521L2.245 11.4606C2.16382 11.3885 2.16013 11.2628 2.23693 11.1861C2.71412 10.7089 3.46178 10.6348 4.02329 11.0092L4.50095 11.3276C6.58906 8.97847 10.2239 8.87166 12.4464 11.0941L12.6799 11.3276L14.2901 12.7604C14.952 13.3494 15.9061 13.4756 16.6984 13.079L21.1643 10.8433C21.7767 10.5368 22.4843 10.4799 23.1378 10.6847C24.3326 11.0592 25.1006 12.2207 24.9773 13.4667L24.8774 14.477C24.7725 15.5381 24.2367 16.5096 23.3953 17.1645L19.0589 20.54C17.0112 22.134 14.0683 21.8168 12.4073 19.8231L8.83098 15.5305Z" fill="url(#paint33_radial_6875_28590)"/>
<path d="M8.83098 15.5305C8.83098 15.5305 8.83098 14.5821 8.83098 17.1256C8.30458 17.4838 7.12467 18.2796 7.12467 18.2796C7.12467 18.2796 6.05311 17.559 5.39016 17.1256L4.26039 13.2521L2.245 11.4606C2.16382 11.3885 2.16013 11.2628 2.23693 11.1861C2.71412 10.7089 3.46178 10.6348 4.02329 11.0092L4.50095 11.3276C6.58906 8.97847 10.2239 8.87166 12.4464 11.0941L12.6799 11.3276L14.2901 12.7604C14.952 13.3494 15.9061 13.4756 16.6984 13.079L21.1643 10.8433C21.7767 10.5368 22.4843 10.4799 23.1378 10.6847C24.3326 11.0592 25.1006 12.2207 24.9773 13.4667L24.8774 14.477C24.7725 15.5381 24.2367 16.5096 23.3953 17.1645L19.0589 20.54C17.0112 22.134 14.0683 21.8168 12.4073 19.8231L8.83098 15.5305Z" fill="url(#paint34_radial_6875_28590)"/>
<path d="M8.83098 15.5305C8.83098 15.5305 8.83098 14.5821 8.83098 17.1256C8.30458 17.4838 7.12467 18.2796 7.12467 18.2796C7.12467 18.2796 6.05311 17.559 5.39016 17.1256L4.26039 13.2521L2.245 11.4606C2.16382 11.3885 2.16013 11.2628 2.23693 11.1861C2.71412 10.7089 3.46178 10.6348 4.02329 11.0092L4.50095 11.3276C6.58906 8.97847 10.2239 8.87166 12.4464 11.0941L12.6799 11.3276L14.2901 12.7604C14.952 13.3494 15.9061 13.4756 16.6984 13.079L21.1643 10.8433C21.7767 10.5368 22.4843 10.4799 23.1378 10.6847C24.3326 11.0592 25.1006 12.2207 24.9773 13.4667L24.8774 14.477C24.7725 15.5381 24.2367 16.5096 23.3953 17.1645L19.0589 20.54C17.0112 22.134 14.0683 21.8168 12.4073 19.8231L8.83098 15.5305Z" fill="url(#paint35_radial_6875_28590)"/>
<path d="M8.83098 15.5305C8.83098 15.5305 8.83098 14.5821 8.83098 17.1256C8.30458 17.4838 7.12467 18.2796 7.12467 18.2796C7.12467 18.2796 6.05311 17.559 5.39016 17.1256L4.26039 13.2521L2.245 11.4606C2.16382 11.3885 2.16013 11.2628 2.23693 11.1861C2.71412 10.7089 3.46178 10.6348 4.02329 11.0092L4.50095 11.3276C6.58906 8.97847 10.2239 8.87166 12.4464 11.0941L12.6799 11.3276L14.2901 12.7604C14.952 13.3494 15.9061 13.4756 16.6984 13.079L21.1643 10.8433C21.7767 10.5368 22.4843 10.4799 23.1378 10.6847C24.3326 11.0592 25.1006 12.2207 24.9773 13.4667L24.8774 14.477C24.7725 15.5381 24.2367 16.5096 23.3953 17.1645L19.0589 20.54C17.0112 22.134 14.0683 21.8168 12.4073 19.8231L8.83098 15.5305Z" fill="url(#paint36_radial_6875_28590)"/>
<path d="M8.83098 15.5305C8.83098 15.5305 8.83098 14.5821 8.83098 17.1256C8.30458 17.4838 7.12467 18.2796 7.12467 18.2796C7.12467 18.2796 6.05311 17.559 5.39016 17.1256L4.26039 13.2521L2.245 11.4606C2.16382 11.3885 2.16013 11.2628 2.23693 11.1861C2.71412 10.7089 3.46178 10.6348 4.02329 11.0092L4.50095 11.3276C6.58906 8.97847 10.2239 8.87166 12.4464 11.0941L12.6799 11.3276L14.2901 12.7604C14.952 13.3494 15.9061 13.4756 16.6984 13.079L21.1643 10.8433C21.7767 10.5368 22.4843 10.4799 23.1378 10.6847C24.3326 11.0592 25.1006 12.2207 24.9773 13.4667L24.8774 14.477C24.7725 15.5381 24.2367 16.5096 23.3953 17.1645L19.0589 20.54C17.0112 22.134 14.0683 21.8168 12.4073 19.8231L8.83098 15.5305Z" fill="url(#paint37_radial_6875_28590)"/>
<path d="M8.83098 15.5305C8.83098 15.5305 8.83098 14.5821 8.83098 17.1256C8.30458 17.4838 7.12467 18.2796 7.12467 18.2796C7.12467 18.2796 6.05311 17.559 5.39016 17.1256L4.26039 13.2521L2.245 11.4606C2.16382 11.3885 2.16013 11.2628 2.23693 11.1861C2.71412 10.7089 3.46178 10.6348 4.02329 11.0092L4.50095 11.3276C6.58906 8.97847 10.2239 8.87166 12.4464 11.0941L12.6799 11.3276L14.2901 12.7604C14.952 13.3494 15.9061 13.4756 16.6984 13.079L21.1643 10.8433C21.7767 10.5368 22.4843 10.4799 23.1378 10.6847C24.3326 11.0592 25.1006 12.2207 24.9773 13.4667L24.8774 14.477C24.7725 15.5381 24.2367 16.5096 23.3953 17.1645L19.0589 20.54C17.0112 22.134 14.0683 21.8168 12.4073 19.8231L8.83098 15.5305Z" fill="url(#paint38_radial_6875_28590)"/>
<path d="M8.83166 15.5303C8.83166 15.5303 8.83166 14.5819 8.83166 17.1254C8.30526 17.4836 7.12535 18.2794 7.12535 18.2794C7.12535 18.2794 6.05379 17.5588 5.39084 17.1254L4.26107 13.2519C2.68605 11.8519 2.20915 9.79908 4.50163 11.3274C5.07174 10.686 5.77344 10.2422 6.32031 9.97656C10.3963 9.97656 9.28125 13.5 8.83166 15.5303Z" fill="#A69790"/>
<path d="M8.83166 15.5303C8.83166 15.5303 8.83166 14.5819 8.83166 17.1254C8.30526 17.4836 7.12535 18.2794 7.12535 18.2794C7.12535 18.2794 6.05379 17.5588 5.39084 17.1254L4.26107 13.2519C2.68605 11.8519 2.20915 9.79908 4.50163 11.3274C5.07174 10.686 5.77344 10.2422 6.32031 9.97656C10.3963 9.97656 9.28125 13.5 8.83166 15.5303Z" fill="url(#paint39_radial_6875_28590)"/>
<path d="M8.83166 15.5303C8.83166 15.5303 8.83166 14.5819 8.83166 17.1254C8.30526 17.4836 7.12535 18.2794 7.12535 18.2794C7.12535 18.2794 6.05379 17.5588 5.39084 17.1254L4.26107 13.2519C2.68605 11.8519 2.20915 9.79908 4.50163 11.3274C5.07174 10.686 5.77344 10.2422 6.32031 9.97656C10.3963 9.97656 9.28125 13.5 8.83166 15.5303Z" fill="url(#paint40_radial_6875_28590)"/>
<path d="M8.83166 15.5303C8.83166 15.5303 8.83166 14.5819 8.83166 17.1254C8.30526 17.4836 7.12535 18.2794 7.12535 18.2794C7.12535 18.2794 6.05379 17.5588 5.39084 17.1254L4.26107 13.2519C2.68605 11.8519 2.20915 9.79908 4.50163 11.3274C5.07174 10.686 5.77344 10.2422 6.32031 9.97656C10.3963 9.97656 9.28125 13.5 8.83166 15.5303Z" fill="url(#paint41_radial_6875_28590)"/>
<path d="M8.83166 15.5303C8.83166 15.5303 8.83166 14.5819 8.83166 17.1254C8.30526 17.4836 7.12535 18.2794 7.12535 18.2794C7.12535 18.2794 6.05379 17.5588 5.39084 17.1254L4.26107 13.2519C2.68605 11.8519 2.20915 9.79908 4.50163 11.3274C5.07174 10.686 5.77344 10.2422 6.32031 9.97656C10.3963 9.97656 9.28125 13.5 8.83166 15.5303Z" fill="url(#paint42_radial_6875_28590)"/>
<path d="M8.83166 15.5303C8.83166 15.5303 8.83166 14.5819 8.83166 17.1254C8.30526 17.4836 7.12535 18.2794 7.12535 18.2794C7.12535 18.2794 6.05379 17.5588 5.39084 17.1254L4.26107 13.2519C2.68605 11.8519 2.20915 9.79908 4.50163 11.3274C5.07174 10.686 5.77344 10.2422 6.32031 9.97656C10.3963 9.97656 9.28125 13.5 8.83166 15.5303Z" fill="url(#paint43_radial_6875_28590)"/>
<path d="M8.83166 15.5303C8.83166 15.5303 8.83166 14.5819 8.83166 17.1254C8.30526 17.4836 7.12535 18.2794 7.12535 18.2794C7.12535 18.2794 6.05379 17.5588 5.39084 17.1254L4.26107 13.2519C2.68605 11.8519 2.20915 9.79908 4.50163 11.3274C5.07174 10.686 5.77344 10.2422 6.32031 9.97656C10.3963 9.97656 9.28125 13.5 8.83166 15.5303Z" fill="url(#paint44_radial_6875_28590)"/>
<path d="M8.83166 15.5303C8.83166 15.5303 8.83166 14.5819 8.83166 17.1254C8.30526 17.4836 7.12535 18.2794 7.12535 18.2794C7.12535 18.2794 6.05379 17.5588 5.39084 17.1254L4.26107 13.2519C2.68605 11.8519 2.20915 9.79908 4.50163 11.3274C5.07174 10.686 5.77344 10.2422 6.32031 9.97656C10.3963 9.97656 9.28125 13.5 8.83166 15.5303Z" fill="url(#paint45_radial_6875_28590)"/>
<path d="M8.83166 15.5303C8.83166 15.5303 8.83166 14.5819 8.83166 17.1254C8.30526 17.4836 7.12535 18.2794 7.12535 18.2794C7.12535 18.2794 6.05379 17.5588 5.39084 17.1254L4.26107 13.2519C2.68605 11.8519 2.20915 9.79908 4.50163 11.3274C5.07174 10.686 5.77344 10.2422 6.32031 9.97656C10.3963 9.97656 9.28125 13.5 8.83166 15.5303Z" fill="url(#paint46_radial_6875_28590)"/>
<path d="M4.26039 13.2522L2.245 11.4607C2.16382 11.3886 2.16013 11.263 2.23693 11.1862C2.71412 10.709 3.46178 10.6349 4.02329 11.0093L4.79688 11.4607C5.03125 11.6094 5.22722 12.0318 5.07031 12.5234C4.92371 12.9828 4.64063 13.1719 4.26039 13.2522Z" fill="url(#paint47_radial_6875_28590)"/>
<path d="M4.26039 13.2522L2.245 11.4607C2.16382 11.3886 2.16013 11.263 2.23693 11.1862C2.71412 10.709 3.46178 10.6349 4.02329 11.0093L4.79688 11.4607C5.03125 11.6094 5.22722 12.0318 5.07031 12.5234C4.92371 12.9828 4.64063 13.1719 4.26039 13.2522Z" fill="url(#paint48_radial_6875_28590)"/>
<path d="M4.26039 13.2522L2.245 11.4607C2.16382 11.3886 2.16013 11.263 2.23693 11.1862C2.71412 10.709 3.46178 10.6349 4.02329 11.0093L4.79688 11.4607C5.03125 11.6094 5.22722 12.0318 5.07031 12.5234C4.92371 12.9828 4.64063 13.1719 4.26039 13.2522Z" fill="url(#paint49_radial_6875_28590)"/>
<path d="M8.83594 25.8558L8.83067 22.346C8.83029 22.0915 8.93072 21.8473 9.10998 21.6667L11.731 19.026C11.731 19.026 13.0312 18.7442 13.7188 19.5001C14.4062 20.2559 13.9931 21 13.9931 21L11.1267 23.2322C10.8919 23.415 10.7549 23.6961 10.7556 23.9936L10.76 25.854C10.7606 26.1201 10.545 26.3362 10.2789 26.3362H9.31705C9.05162 26.3362 8.83634 26.1212 8.83594 25.8558Z" fill="url(#paint50_radial_6875_28590)"/>
<path d="M8.83594 25.8558L8.83067 22.346C8.83029 22.0915 8.93072 21.8473 9.10998 21.6667L11.731 19.026C11.731 19.026 13.0312 18.7442 13.7188 19.5001C14.4062 20.2559 13.9931 21 13.9931 21L11.1267 23.2322C10.8919 23.415 10.7549 23.6961 10.7556 23.9936L10.76 25.854C10.7606 26.1201 10.545 26.3362 10.2789 26.3362H9.31705C9.05162 26.3362 8.83634 26.1212 8.83594 25.8558Z" fill="url(#paint51_radial_6875_28590)"/>
<path d="M8.83594 25.8558L8.83067 22.346C8.83029 22.0915 8.93072 21.8473 9.10998 21.6667L11.731 19.026C11.731 19.026 13.0312 18.7442 13.7188 19.5001C14.4062 20.2559 13.9931 21 13.9931 21L11.1267 23.2322C10.8919 23.415 10.7549 23.6961 10.7556 23.9936L10.76 25.854C10.7606 26.1201 10.545 26.3362 10.2789 26.3362H9.31705C9.05162 26.3362 8.83634 26.1212 8.83594 25.8558Z" fill="url(#paint52_radial_6875_28590)"/>
<path d="M8.83594 25.8558L8.83067 22.346C8.83029 22.0915 8.93072 21.8473 9.10998 21.6667L11.731 19.026C11.731 19.026 13.0312 18.7442 13.7188 19.5001C14.4062 20.2559 13.9931 21 13.9931 21L11.1267 23.2322C10.8919 23.415 10.7549 23.6961 10.7556 23.9936L10.76 25.854C10.7606 26.1201 10.545 26.3362 10.2789 26.3362H9.31705C9.05162 26.3362 8.83634 26.1212 8.83594 25.8558Z" fill="url(#paint53_radial_6875_28590)"/>
<path d="M8.83594 25.8558L8.83067 22.346C8.83029 22.0915 8.93072 21.8473 9.10998 21.6667L11.731 19.026C11.731 19.026 13.0312 18.7442 13.7188 19.5001C14.4062 20.2559 13.9931 21 13.9931 21L11.1267 23.2322C10.8919 23.415 10.7549 23.6961 10.7556 23.9936L10.76 25.854C10.7606 26.1201 10.545 26.3362 10.2789 26.3362H9.31705C9.05162 26.3362 8.83634 26.1212 8.83594 25.8558Z" fill="url(#paint54_radial_6875_28590)"/>
<path d="M8.83594 25.8558L8.83067 22.346C8.83029 22.0915 8.93072 21.8473 9.10998 21.6667L11.731 19.026C11.731 19.026 13.0312 18.7442 13.7188 19.5001C14.4062 20.2559 13.9931 21 13.9931 21L11.1267 23.2322C10.8919 23.415 10.7549 23.6961 10.7556 23.9936L10.76 25.854C10.7606 26.1201 10.545 26.3362 10.2789 26.3362H9.31705C9.05162 26.3362 8.83634 26.1212 8.83594 25.8558Z" fill="url(#paint55_radial_6875_28590)"/>
<path fill-rule="evenodd" clip-rule="evenodd" d="M8.83379 25.8535L8.83497 26.8163C8.8353 27.0818 9.0506 27.2969 9.31609 27.2969H10.2781C10.5441 27.2969 10.7596 27.0809 10.7592 26.8149L10.7575 25.8535H8.83379Z" fill="url(#paint56_radial_6875_28590)"/>
<path fill-rule="evenodd" clip-rule="evenodd" d="M26.1517 5.55337C26.6831 5.55337 27.1139 5.12256 27.1139 4.59114V3.86946C27.1139 3.73661 27.0062 3.62891 26.8734 3.62891H26.1517C25.6203 3.62891 25.1895 4.05971 25.1895 4.59114C25.1895 5.12256 25.6203 5.55337 26.1517 5.55337Z" fill="#202020"/>
<path fill-rule="evenodd" clip-rule="evenodd" d="M26.1517 5.55337C26.6831 5.55337 27.1139 5.12256 27.1139 4.59114V3.86946C27.1139 3.73661 27.0062 3.62891 26.8734 3.62891H26.1517C25.6203 3.62891 25.1895 4.05971 25.1895 4.59114C25.1895 5.12256 25.6203 5.55337 26.1517 5.55337Z" fill="url(#paint57_radial_6875_28590)"/>
<path fill-rule="evenodd" clip-rule="evenodd" d="M26.1517 5.55337C26.6831 5.55337 27.1139 5.12256 27.1139 4.59114V3.86946C27.1139 3.73661 27.0062 3.62891 26.8734 3.62891H26.1517C25.6203 3.62891 25.1895 4.05971 25.1895 4.59114C25.1895 5.12256 25.6203 5.55337 26.1517 5.55337Z" fill="url(#paint58_radial_6875_28590)"/>
<path d="M7.17355 19.0241C6.44362 19.0207 5.80227 18.5378 5.59772 17.8364L5.38281 17.0996H8.83081V17.3763C8.82986 18.2839 8.09589 19.0199 7.18904 19.0241H7.17355Z" fill="url(#paint59_radial_6875_28590)"/>
<path fill-rule="evenodd" clip-rule="evenodd" d="M28.2439 19.4297L29.1361 20.2227C29.343 20.4066 29.3524 20.7268 29.1566 20.9225L28.3447 21.7344C28.1863 21.8929 27.9395 21.921 27.7495 21.8022L26.5938 21.0798L28.2439 19.4297Z" fill="#836A81"/>
<path fill-rule="evenodd" clip-rule="evenodd" d="M28.2439 19.4297L29.1361 20.2227C29.343 20.4066 29.3524 20.7268 29.1566 20.9225L28.3447 21.7344C28.1863 21.8929 27.9395 21.921 27.7495 21.8022L26.5938 21.0798L28.2439 19.4297Z" fill="url(#paint60_radial_6875_28590)"/>
<path fill-rule="evenodd" clip-rule="evenodd" d="M28.2439 19.4297L29.1361 20.2227C29.343 20.4066 29.3524 20.7268 29.1566 20.9225L28.3447 21.7344C28.1863 21.8929 27.9395 21.921 27.7495 21.8022L26.5938 21.0798L28.2439 19.4297Z" fill="url(#paint61_linear_6875_28590)"/>
<path d="M6.5 13.9492C6.77614 13.9492 7 13.7254 7 13.4492C7 13.1731 6.77614 12.9492 6.5 12.9492C6.22386 12.9492 6 13.1731 6 13.4492C6 13.7254 6.22386 13.9492 6.5 13.9492Z" fill="url(#paint62_radial_6875_28590)"/>
<path d="M23.0936 17.5585H22.9542C22.2312 17.5585 21.5402 17.2605 21.044 16.7346C20.1048 15.7394 20.1033 14.1719 21.0196 13.1555C21.525 12.595 22.2522 12.2663 23.007 12.2663H23.2647L23.961 10.8737C24.124 10.5477 24.4572 10.3418 24.8217 10.3418L29.5192 10.3418C29.7849 10.3418 30.0003 10.5572 30.0003 10.8229V11.7851C30.0003 12.0509 29.7849 12.2663 29.5192 12.2663L28.123 12.2663C27.794 12.2663 27.4878 12.4343 27.3112 12.7119L24.8355 16.6023C24.4565 17.1979 23.7995 17.5585 23.0936 17.5585Z" fill="url(#paint63_radial_6875_28590)"/>
<path d="M23.0936 17.5585H22.9542C22.2312 17.5585 21.5402 17.2605 21.044 16.7346C20.1048 15.7394 20.1033 14.1719 21.0196 13.1555C21.525 12.595 22.2522 12.2663 23.007 12.2663H23.2647L23.961 10.8737C24.124 10.5477 24.4572 10.3418 24.8217 10.3418L29.5192 10.3418C29.7849 10.3418 30.0003 10.5572 30.0003 10.8229V11.7851C30.0003 12.0509 29.7849 12.2663 29.5192 12.2663L28.123 12.2663C27.794 12.2663 27.4878 12.4343 27.3112 12.7119L24.8355 16.6023C24.4565 17.1979 23.7995 17.5585 23.0936 17.5585Z" fill="url(#paint64_linear_6875_28590)"/>
<path d="M23.0936 17.5585H22.9542C22.2312 17.5585 21.5402 17.2605 21.044 16.7346C20.1048 15.7394 20.1033 14.1719 21.0196 13.1555C21.525 12.595 22.2522 12.2663 23.007 12.2663H23.2647L23.961 10.8737C24.124 10.5477 24.4572 10.3418 24.8217 10.3418L29.5192 10.3418C29.7849 10.3418 30.0003 10.5572 30.0003 10.8229V11.7851C30.0003 12.0509 29.7849 12.2663 29.5192 12.2663L28.123 12.2663C27.794 12.2663 27.4878 12.4343 27.3112 12.7119L24.8355 16.6023C24.4565 17.1979 23.7995 17.5585 23.0936 17.5585Z" fill="url(#paint65_radial_6875_28590)"/>
<path d="M23.0936 17.5585H22.9542C22.2312 17.5585 21.5402 17.2605 21.044 16.7346C20.1048 15.7394 20.1033 14.1719 21.0196 13.1555C21.525 12.595 22.2522 12.2663 23.007 12.2663H23.2647L23.961 10.8737C24.124 10.5477 24.4572 10.3418 24.8217 10.3418L29.5192 10.3418C29.7849 10.3418 30.0003 10.5572 30.0003 10.8229V11.7851C30.0003 12.0509 29.7849 12.2663 29.5192 12.2663L28.123 12.2663C27.794 12.2663 27.4878 12.4343 27.3112 12.7119L24.8355 16.6023C24.4565 17.1979 23.7995 17.5585 23.0936 17.5585Z" fill="url(#paint66_radial_6875_28590)"/>
<path d="M23.0936 17.5585H22.9542C22.2312 17.5585 21.5402 17.2605 21.044 16.7346C20.1048 15.7394 20.1033 14.1719 21.0196 13.1555C21.525 12.595 22.2522 12.2663 23.007 12.2663H23.2647L23.961 10.8737C24.124 10.5477 24.4572 10.3418 24.8217 10.3418L29.5192 10.3418C29.7849 10.3418 30.0003 10.5572 30.0003 10.8229V11.7851C30.0003 12.0509 29.7849 12.2663 29.5192 12.2663L28.123 12.2663C27.794 12.2663 27.4878 12.4343 27.3112 12.7119L24.8355 16.6023C24.4565 17.1979 23.7995 17.5585 23.0936 17.5585Z" fill="url(#paint67_radial_6875_28590)"/>
<path d="M23.0936 17.5585H22.9542C22.2312 17.5585 21.5402 17.2605 21.044 16.7346C20.1048 15.7394 20.1033 14.1719 21.0196 13.1555C21.525 12.595 22.2522 12.2663 23.007 12.2663H23.2647L23.961 10.8737C24.124 10.5477 24.4572 10.3418 24.8217 10.3418L29.5192 10.3418C29.7849 10.3418 30.0003 10.5572 30.0003 10.8229V11.7851C30.0003 12.0509 29.7849 12.2663 29.5192 12.2663L28.123 12.2663C27.794 12.2663 27.4878 12.4343 27.3112 12.7119L24.8355 16.6023C24.4565 17.1979 23.7995 17.5585 23.0936 17.5585Z" fill="url(#paint68_radial_6875_28590)"/>
<path d="M23.0936 17.5585H22.9542C22.2312 17.5585 21.5402 17.2605 21.044 16.7346C20.1048 15.7394 20.1033 14.1719 21.0196 13.1555C21.525 12.595 22.2522 12.2663 23.007 12.2663H23.2647L23.961 10.8737C24.124 10.5477 24.4572 10.3418 24.8217 10.3418L29.5192 10.3418C29.7849 10.3418 30.0003 10.5572 30.0003 10.8229V11.7851C30.0003 12.0509 29.7849 12.2663 29.5192 12.2663L28.123 12.2663C27.794 12.2663 27.4878 12.4343 27.3112 12.7119L24.8355 16.6023C24.4565 17.1979 23.7995 17.5585 23.0936 17.5585Z" fill="url(#paint69_radial_6875_28590)"/>
<path d="M23.0936 17.5585H22.9542C22.2312 17.5585 21.5402 17.2605 21.044 16.7346C20.1048 15.7394 20.1033 14.1719 21.0196 13.1555C21.525 12.595 22.2522 12.2663 23.007 12.2663H23.2647L23.961 10.8737C24.124 10.5477 24.4572 10.3418 24.8217 10.3418L29.5192 10.3418C29.7849 10.3418 30.0003 10.5572 30.0003 10.8229V11.7851C30.0003 12.0509 29.7849 12.2663 29.5192 12.2663L28.123 12.2663C27.794 12.2663 27.4878 12.4343 27.3112 12.7119L24.8355 16.6023C24.4565 17.1979 23.7995 17.5585 23.0936 17.5585Z" fill="url(#paint70_radial_6875_28590)"/>
<path d="M23.0936 17.5585H22.9542C22.2312 17.5585 21.5402 17.2605 21.044 16.7346C20.1048 15.7394 20.1033 14.1719 21.0196 13.1555C21.525 12.595 22.2522 12.2663 23.007 12.2663H23.2647L23.961 10.8737C24.124 10.5477 24.4572 10.3418 24.8217 10.3418L29.5192 10.3418C29.7849 10.3418 30.0003 10.5572 30.0003 10.8229V11.7851C30.0003 12.0509 29.7849 12.2663 29.5192 12.2663L28.123 12.2663C27.794 12.2663 27.4878 12.4343 27.3112 12.7119L24.8355 16.6023C24.4565 17.1979 23.7995 17.5585 23.0936 17.5585Z" fill="url(#paint71_radial_6875_28590)"/>
<path d="M23.0936 17.5585H22.9542C22.2312 17.5585 21.5402 17.2605 21.044 16.7346C20.1048 15.7394 20.1033 14.1719 21.0196 13.1555C21.525 12.595 22.2522 12.2663 23.007 12.2663H23.2647L23.961 10.8737C24.124 10.5477 24.4572 10.3418 24.8217 10.3418L29.5192 10.3418C29.7849 10.3418 30.0003 10.5572 30.0003 10.8229V11.7851C30.0003 12.0509 29.7849 12.2663 29.5192 12.2663L28.123 12.2663C27.794 12.2663 27.4878 12.4343 27.3112 12.7119L24.8355 16.6023C24.4565 17.1979 23.7995 17.5585 23.0936 17.5585Z" fill="url(#paint72_linear_6875_28590)"/>
<path d="M23.0936 17.5585H22.9542C22.2312 17.5585 21.5402 17.2605 21.044 16.7346C20.1048 15.7394 20.1033 14.1719 21.0196 13.1555C21.525 12.595 22.2522 12.2663 23.007 12.2663H23.2647L23.961 10.8737C24.124 10.5477 24.4572 10.3418 24.8217 10.3418L29.5192 10.3418C29.7849 10.3418 30.0003 10.5572 30.0003 10.8229V11.7851C30.0003 12.0509 29.7849 12.2663 29.5192 12.2663L28.123 12.2663C27.794 12.2663 27.4878 12.4343 27.3112 12.7119L24.8355 16.6023C24.4565 17.1979 23.7995 17.5585 23.0936 17.5585Z" fill="url(#paint73_radial_6875_28590)"/>
<path fill-rule="evenodd" clip-rule="evenodd" d="M28.5567 12.2663V10.3418H29.5186C29.7843 10.3418 29.9997 10.5572 29.9997 10.8229V11.7851C29.9997 12.0509 29.7843 12.2663 29.5186 12.2663H28.5567Z" fill="url(#paint74_radial_6875_28590)"/>
<path fill-rule="evenodd" clip-rule="evenodd" d="M28.5567 12.2663V10.3418H29.5186C29.7843 10.3418 29.9997 10.5572 29.9997 10.8229V11.7851C29.9997 12.0509 29.7843 12.2663 29.5186 12.2663H28.5567Z" fill="url(#paint75_radial_6875_28590)"/>
<path d="M23.0781 8.68066C23.0781 9.07816 22.7646 9.40039 22.3779 9.40039C21.9912 9.40039 21.6777 9.07816 21.6777 8.68066C21.6777 8.42625 21.8062 8.20267 22 8.07467C22.109 8.00269 22.2387 7.96094 22.3779 7.96094C22.7646 7.96094 23.0781 8.28317 23.0781 8.68066Z" fill="url(#paint76_radial_6875_28590)"/>
<path d="M23.0781 8.68066C23.0781 9.07816 22.7646 9.40039 22.3779 9.40039C21.9912 9.40039 21.6777 9.07816 21.6777 8.68066C21.6777 8.42625 21.8062 8.20267 22 8.07467C22.109 8.00269 22.2387 7.96094 22.3779 7.96094C22.7646 7.96094 23.0781 8.28317 23.0781 8.68066Z" fill="url(#paint77_linear_6875_28590)"/>
<path d="M23.0781 8.68066C23.0781 9.07816 22.7646 9.40039 22.3779 9.40039C21.9912 9.40039 21.6777 9.07816 21.6777 8.68066C21.6777 8.42625 21.8062 8.20267 22 8.07467C22.109 8.00269 22.2387 7.96094 22.3779 7.96094C22.7646 7.96094 23.0781 8.28317 23.0781 8.68066Z" fill="url(#paint78_linear_6875_28590)"/>
<path d="M23.0781 8.68066C23.0781 9.07816 22.7646 9.40039 22.3779 9.40039C21.9912 9.40039 21.6777 9.07816 21.6777 8.68066C21.6777 8.42625 21.8062 8.20267 22 8.07467C22.109 8.00269 22.2387 7.96094 22.3779 7.96094C22.7646 7.96094 23.0781 8.28317 23.0781 8.68066Z" fill="url(#paint79_linear_6875_28590)"/>
<path d="M23.0781 8.68066C23.0781 9.07816 22.7646 9.40039 22.3779 9.40039C21.9912 9.40039 21.6777 9.07816 21.6777 8.68066C21.6777 8.42625 21.8062 8.20267 22 8.07467C22.109 8.00269 22.2387 7.96094 22.3779 7.96094C22.7646 7.96094 23.0781 8.28317 23.0781 8.68066Z" fill="url(#paint80_linear_6875_28590)"/>
<path d="M23.0781 8.68066C23.0781 9.07816 22.7646 9.40039 22.3779 9.40039C21.9912 9.40039 21.6777 9.07816 21.6777 8.68066C21.6777 8.42625 21.8062 8.20267 22 8.07467C22.109 8.00269 22.2387 7.96094 22.3779 7.96094C22.7646 7.96094 23.0781 8.28317 23.0781 8.68066Z" fill="url(#paint81_radial_6875_28590)"/>
<path d="M23.0781 8.68066C23.0781 9.07816 22.7646 9.40039 22.3779 9.40039C21.9912 9.40039 21.6777 9.07816 21.6777 8.68066C21.6777 8.42625 21.8062 8.20267 22 8.07467C22.109 8.00269 22.2387 7.96094 22.3779 7.96094C22.7646 7.96094 23.0781 8.28317 23.0781 8.68066Z" fill="url(#paint82_radial_6875_28590)"/>
<path d="M23.0781 8.68066C23.0781 9.07816 22.7646 9.40039 22.3779 9.40039C21.9912 9.40039 21.6777 9.07816 21.6777 8.68066C21.6777 8.42625 21.8062 8.20267 22 8.07467C22.109 8.00269 22.2387 7.96094 22.3779 7.96094C22.7646 7.96094 23.0781 8.28317 23.0781 8.68066Z" fill="url(#paint83_radial_6875_28590)"/>
<defs>
<radialGradient id="paint0_radial_6875_28590" cx="0" cy="0" r="1" gradientUnits="userSpaceOnUse" gradientTransform="translate(10.5625 8.75) rotate(129.536) scale(1.27638 0.66709)">
<stop offset="0.668558" stop-color="#515151"/>
<stop offset="1" stop-color="#515151" stop-opacity="0"/>
</radialGradient>
<radialGradient id="paint1_radial_6875_28590" cx="0" cy="0" r="1" gradientUnits="userSpaceOnUse" gradientTransform="translate(13.3281 9.90625) rotate(142.001) scale(1.269 0.958096)">
<stop offset="0.751034" stop-color="#6E6E6E"/>
<stop offset="1" stop-color="#515151" stop-opacity="0"/>
</radialGradient>
<radialGradient id="paint2_radial_6875_28590" cx="0" cy="0" r="1" gradientUnits="userSpaceOnUse" gradientTransform="translate(9.09375 9.25) rotate(137.692) scale(3.67632 2.21904)">
<stop offset="0.595574" stop-color="#464548"/>
<stop offset="0.66725" stop-color="#3F3B42" stop-opacity="0"/>
</radialGradient>
<radialGradient id="paint3_radial_6875_28590" cx="0" cy="0" r="1" gradientUnits="userSpaceOnUse" gradientTransform="translate(12.3125 9.9375) rotate(150.96) scale(3.68159 2.35891)">
<stop offset="0.434409" stop-color="#464548"/>
<stop offset="0.622865" stop-color="#3F3B42" stop-opacity="0"/>
</radialGradient>
<radialGradient id="paint4_radial_6875_28590" cx="0" cy="0" r="1" gradientUnits="userSpaceOnUse" gradientTransform="translate(14.0156 11.8594) rotate(153.873) scale(3.65468 1.98726)">
<stop offset="0.536334" stop-color="#464548"/>
<stop offset="0.622865" stop-color="#3F3B42" stop-opacity="0"/>
</radialGradient>
<radialGradient id="paint5_radial_6875_28590" cx="0" cy="0" r="1" gradientUnits="userSpaceOnUse" gradientTransform="translate(11.25 12.375) rotate(42.9881) scale(9.44128 12.1397)">
<stop offset="0.391238" stop-color="#1E1E1E" stop-opacity="0"/>
<stop offset="0.540278" stop-color="#1E1E1E"/>
</radialGradient>
<radialGradient id="paint6_radial_6875_28590" cx="0" cy="0" r="1" gradientUnits="userSpaceOnUse" gradientTransform="translate(11.0937 11.7246) rotate(34.4886) scale(4.62548 2.8089)">
<stop offset="0.705353" stop-color="#3C383D"/>
<stop offset="1" stop-color="#3C383D" stop-opacity="0"/>
</radialGradient>
<radialGradient id="paint7_radial_6875_28590" cx="0" cy="0" r="1" gradientUnits="userSpaceOnUse" gradientTransform="translate(16.1719 11.2188) rotate(147.308) scale(2.48786 0.918594)">
<stop offset="0.293847" stop-color="#575757"/>
<stop offset="1" stop-color="#49474A" stop-opacity="0"/>
</radialGradient>
<radialGradient id="paint8_radial_6875_28590" cx="0" cy="0" r="1" gradientUnits="userSpaceOnUse" gradientTransform="translate(15.875 12.5937) rotate(142.28) scale(2.5284 0.930866)">
<stop offset="0.437617" stop-color="#1D1A18"/>
<stop offset="1" stop-color="#1D1A18" stop-opacity="0"/>
</radialGradient>
<radialGradient id="paint9_radial_6875_28590" cx="0" cy="0" r="1" gradientUnits="userSpaceOnUse" gradientTransform="translate(14.6719 9.625) rotate(143.13) scale(2.26562 0.507898)">
<stop offset="0.151339"/>
<stop offset="1" stop-opacity="0"/>
</radialGradient>
<radialGradient id="paint10_radial_6875_28590" cx="0" cy="0" r="1" gradientUnits="userSpaceOnUse" gradientTransform="translate(23.2812 20.3437) rotate(97.1773) scale(4.25207 11.379)">
<stop offset="0.207681" stop-color="#B291A9"/>
<stop offset="0.631766" stop-color="#B09D9D"/>
<stop offset="0.904877" stop-color="#988C82"/>
</radialGradient>
<linearGradient id="paint11_linear_6875_28590" x1="26.7813" y1="17.8125" x2="26.25" y2="18.4375" gradientUnits="userSpaceOnUse">
<stop offset="0.338172" stop-color="#998F85"/>
<stop offset="1" stop-color="#A89B92" stop-opacity="0"/>
</linearGradient>
<radialGradient id="paint12_radial_6875_28590" cx="0" cy="0" r="1" gradientUnits="userSpaceOnUse" gradientTransform="translate(11.1875 22.8438) rotate(138.814) scale(10.298 5.93691)">
<stop offset="0.345418" stop-color="#8F7982"/>
<stop offset="0.518127" stop-color="#A38D96"/>
<stop offset="0.766486" stop-color="#746964"/>
</radialGradient>
<radialGradient id="paint13_radial_6875_28590" cx="0" cy="0" r="1" gradientUnits="userSpaceOnUse" gradientTransform="translate(11.375 18.5) rotate(133.135) scale(4.75339 5.10812)">
<stop offset="0.316951" stop-color="#8C7B7C"/>
<stop offset="1" stop-color="#8C7B7C" stop-opacity="0"/>
</radialGradient>
<linearGradient id="paint14_linear_6875_28590" x1="7.34375" y1="20.4688" x2="7.75" y2="20.875" gradientUnits="userSpaceOnUse">
<stop stop-color="#605551"/>
<stop offset="1" stop-color="#766966" stop-opacity="0"/>
</linearGradient>
<linearGradient id="paint15_linear_6875_28590" x1="5.94336" y1="23.4375" x2="6.46875" y2="23.4375" gradientUnits="userSpaceOnUse">
<stop stop-color="#605551"/>
<stop offset="1" stop-color="#7E6E71" stop-opacity="0"/>
</linearGradient>
<radialGradient id="paint16_radial_6875_28590" cx="0" cy="0" r="1" gradientUnits="userSpaceOnUse" gradientTransform="translate(8.70312 22.9687) rotate(135.458) scale(1.38111 0.65447)">
<stop offset="0.517815" stop-color="#A3869E"/>
<stop offset="1" stop-color="#A3869E" stop-opacity="0"/>
</radialGradient>
<radialGradient id="paint17_radial_6875_28590" cx="0" cy="0" r="1" gradientUnits="userSpaceOnUse" gradientTransform="translate(10.75 20.5937) rotate(132.101) scale(3.49581 1.27227)">
<stop stop-color="#786569"/>
<stop offset="1" stop-color="#786569" stop-opacity="0"/>
</radialGradient>
<radialGradient id="paint18_radial_6875_28590" cx="0" cy="0" r="1" gradientUnits="userSpaceOnUse" gradientTransform="translate(7.03125 27.6719) rotate(-90) scale(2.40625 1.16939)">
<stop offset="0.158878" stop-color="#876F84"/>
<stop offset="0.707792" stop-color="#6C5D65"/>
<stop offset="1" stop-color="#5C5054"/>
</radialGradient>
<linearGradient id="paint19_linear_6875_28590" x1="23.8281" y1="10.0156" x2="24.625" y2="10.8438" gradientUnits="userSpaceOnUse">
<stop offset="0.0515835" stop-color="#8D8079"/>
<stop offset="0.223469" stop-color="#BDABA5"/>
<stop offset="0.405771" stop-color="#C2AEA8"/>
<stop offset="0.806837" stop-color="#AF9B9A"/>
</linearGradient>
<linearGradient id="paint20_linear_6875_28590" x1="23.9139" y1="8.46875" x2="23.9139" y2="9.40295" gradientUnits="userSpaceOnUse">
<stop stop-color="#AFA094"/>
<stop offset="0.145339" stop-color="#CDB9B5"/>
<stop offset="0.567239" stop-color="#C8B2B1"/>
<stop offset="0.769376" stop-color="#BFA7A9"/>
<stop offset="1" stop-color="#9F888E"/>
</linearGradient>
<linearGradient id="paint21_linear_6875_28590" x1="23.5625" y1="6.5" x2="24.2812" y2="7.23437" gradientUnits="userSpaceOnUse">
<stop stop-color="#8C7F78"/>
<stop offset="0.225434" stop-color="#C1ACAB"/>
<stop offset="0.390867" stop-color="#CDB6B7"/>
<stop offset="0.620809" stop-color="#CAB3B4"/>
<stop offset="1" stop-color="#B9A2A4"/>
</linearGradient>
<radialGradient id="paint22_radial_6875_28590" cx="0" cy="0" r="1" gradientUnits="userSpaceOnUse" gradientTransform="translate(3.28125 13.5313) rotate(99.2461) scale(1.36144 2.04216)">
<stop offset="0.394099" stop-color="#9C8391"/>
<stop offset="1" stop-color="#6F665F"/>
</radialGradient>
<radialGradient id="paint23_radial_6875_28590" cx="0" cy="0" r="1" gradientUnits="userSpaceOnUse" gradientTransform="translate(15.6563 11.3438) rotate(90) scale(10.4687 14.2813)">
<stop stop-color="#968A7F"/>
<stop offset="0.307463" stop-color="#CAB8B0"/>
<stop offset="0.549254" stop-color="#DCC1C7"/>
<stop offset="1" stop-color="#DBB0D0"/>
</radialGradient>
<radialGradient id="paint24_radial_6875_28590" cx="0" cy="0" r="1" gradientUnits="userSpaceOnUse" gradientTransform="translate(9.40625 16.7813) rotate(64.2447) scale(7.91088 3.87742)">
<stop offset="0.281536" stop-color="#BC9CAA"/>
<stop offset="1" stop-color="#CDAEBA" stop-opacity="0"/>
</radialGradient>
<radialGradient id="paint25_radial_6875_28590" cx="0" cy="0" r="1" gradientUnits="userSpaceOnUse" gradientTransform="translate(18.8437 10.1875) rotate(57.193) scale(8.99761 5.48887)">
<stop offset="0.192883" stop-color="#AC9C94"/>
<stop offset="0.672328" stop-color="#C1AEA8" stop-opacity="0"/>
</radialGradient>
<radialGradient id="paint26_radial_6875_28590" cx="0" cy="0" r="1" gradientUnits="userSpaceOnUse" gradientTransform="translate(18.8437 10.1875) rotate(64.29) scale(2.80937 6.44154)">
<stop offset="0.58389" stop-color="#8C8177"/>
<stop offset="0.824054" stop-color="#9F9188" stop-opacity="0"/>
</radialGradient>
<radialGradient id="paint27_radial_6875_28590" cx="0" cy="0" r="1" gradientUnits="userSpaceOnUse" gradientTransform="translate(16.9219 11.4219) rotate(65.1196) scale(2.37685 3.48475)">
<stop offset="0.597925" stop-color="#8C8177"/>
<stop offset="0.904321" stop-color="#AD9F95" stop-opacity="0"/>
</radialGradient>
<radialGradient id="paint28_radial_6875_28590" cx="0" cy="0" r="1" gradientUnits="userSpaceOnUse" gradientTransform="translate(12.6875 10.6562) rotate(120.493) scale(3.26394 4.31592)">
<stop offset="0.651609" stop-color="#CFBEB4"/>
<stop offset="1" stop-color="#CFBEB4" stop-opacity="0"/>
</radialGradient>
<radialGradient id="paint29_radial_6875_28590" cx="0" cy="0" r="1" gradientUnits="userSpaceOnUse" gradientTransform="translate(17.5313 16.8125) rotate(47.5176) scale(19.6191 22.6468)">
<stop offset="0.351749" stop-color="#D0BCB8" stop-opacity="0"/>
<stop offset="0.510454" stop-color="#C5B2AC"/>
</radialGradient>
<radialGradient id="paint30_radial_6875_28590" cx="0" cy="0" r="1" gradientUnits="userSpaceOnUse" gradientTransform="translate(9.1875 15.5244) rotate(88.7576) scale(2.88251 1.18106)">
<stop stop-color="#BA98A7"/>
<stop offset="1" stop-color="#BA98A7" stop-opacity="0"/>
</radialGradient>
<radialGradient id="paint31_radial_6875_28590" cx="0" cy="0" r="1" gradientUnits="userSpaceOnUse" gradientTransform="translate(3.96875 9.78125) rotate(157.274) scale(6.47116 3.05705)">
<stop offset="0.46081" stop-color="#A0928B"/>
<stop offset="0.860778" stop-color="#B4A39D" stop-opacity="0"/>
</radialGradient>
<radialGradient id="paint32_radial_6875_28590" cx="0" cy="0" r="1" gradientUnits="userSpaceOnUse" gradientTransform="translate(13.0937 19.9687) rotate(122.233) scale(1.87489 2.80703)">
<stop offset="0.332541" stop-color="#D8B2C8"/>
<stop offset="1" stop-color="#D8B2C8" stop-opacity="0"/>
</radialGradient>
<radialGradient id="paint33_radial_6875_28590" cx="0" cy="0" r="1" gradientUnits="userSpaceOnUse" gradientTransform="translate(11.5 18.9688) rotate(49.808) scale(2.37274 1.07174)">
<stop stop-color="#8D7B79"/>
<stop offset="1" stop-color="#AE949C" stop-opacity="0"/>
</radialGradient>
<radialGradient id="paint34_radial_6875_28590" cx="0" cy="0" r="1" gradientUnits="userSpaceOnUse" gradientTransform="translate(22.3437 17.4062) rotate(149.323) scale(2.14376 1.38757)">
<stop offset="0.252279" stop-color="#CCA7BF"/>
<stop offset="1" stop-color="#CCA7BF" stop-opacity="0"/>
</radialGradient>
<radialGradient id="paint35_radial_6875_28590" cx="0" cy="0" r="1" gradientUnits="userSpaceOnUse" gradientTransform="translate(23.4375 11.3438) rotate(130.101) scale(1.55247 2.19637)">
<stop stop-color="#CDBDB1"/>
<stop offset="1" stop-color="#C3B2A8" stop-opacity="0"/>
</radialGradient>
<radialGradient id="paint36_radial_6875_28590" cx="0" cy="0" r="1" gradientUnits="userSpaceOnUse" gradientTransform="translate(15.8437 12.4063) rotate(99.0903) scale(1.58237 2.28653)">
<stop offset="0.523791" stop-color="#8C8177"/>
<stop offset="0.78248" stop-color="#9E9187" stop-opacity="0"/>
</radialGradient>
<radialGradient id="paint37_radial_6875_28590" cx="0" cy="0" r="1" gradientUnits="userSpaceOnUse" gradientTransform="translate(22.1563 14.125) rotate(131.633) scale(2.2578 1.79366)">
<stop offset="0.786207" stop-color="#9F908C"/>
<stop offset="1" stop-color="#9F908C" stop-opacity="0"/>
</radialGradient>
<radialGradient id="paint38_radial_6875_28590" cx="0" cy="0" r="1" gradientUnits="userSpaceOnUse" gradientTransform="translate(23.6875 12.0312) rotate(134.37) scale(2.01096 0.918106)">
<stop offset="0.41019" stop-color="#93857E"/>
<stop offset="1" stop-color="#93857E" stop-opacity="0"/>
</radialGradient>
<radialGradient id="paint39_radial_6875_28590" cx="0" cy="0" r="1" gradientUnits="userSpaceOnUse" gradientTransform="translate(7.53125 16.4063) rotate(86.9059) scale(12.7373 6.85855)">
<stop offset="0.0785936" stop-color="#E3C4CE"/>
<stop offset="0.197092" stop-color="#D2B4BF"/>
<stop offset="0.505065" stop-color="#B7A2A2"/>
<stop offset="0.754552" stop-color="#B7A2A2" stop-opacity="0"/>
</radialGradient>
<radialGradient id="paint40_radial_6875_28590" cx="0" cy="0" r="1" gradientUnits="userSpaceOnUse" gradientTransform="translate(5.75 16.9688) rotate(104.659) scale(9.75506 5.93101)">
<stop offset="0.475561" stop-color="#CCB6B4" stop-opacity="0"/>
<stop offset="0.704458" stop-color="#C6B3AD"/>
</radialGradient>
<radialGradient id="paint41_radial_6875_28590" cx="0" cy="0" r="1" gradientUnits="userSpaceOnUse" gradientTransform="translate(8.40625 13.6562) rotate(82.3713) scale(31.3083 11.5846)">
<stop offset="0.182111" stop-color="#CFB1BC" stop-opacity="0"/>
<stop offset="0.265955" stop-color="#B99FA7"/>
<stop offset="0.332971" stop-color="#917E81"/>
</radialGradient>
<radialGradient id="paint42_radial_6875_28590" cx="0" cy="0" r="1" gradientUnits="userSpaceOnUse" gradientTransform="translate(9.6875 15.6875) rotate(82.3667) scale(3.05835 1.12526)">
<stop offset="0.365421" stop-color="#BE9DAA"/>
<stop offset="1" stop-color="#BE9DAA" stop-opacity="0"/>
</radialGradient>
<radialGradient id="paint43_radial_6875_28590" cx="0" cy="0" r="1" gradientUnits="userSpaceOnUse" gradientTransform="translate(4.4375 12.2188) rotate(97.4959) scale(2.39547 1.89187)">
<stop stop-color="#B29E9D"/>
<stop offset="1" stop-color="#B29E9D" stop-opacity="0"/>
</radialGradient>
<radialGradient id="paint44_radial_6875_28590" cx="0" cy="0" r="1" gradientUnits="userSpaceOnUse" gradientTransform="translate(4.40625 13.0469) rotate(97.3861) scale(0.85081 0.65449)">
<stop stop-color="#B49EA0"/>
<stop offset="1" stop-color="#B49EA0" stop-opacity="0"/>
</radialGradient>
<radialGradient id="paint45_radial_6875_28590" cx="0" cy="0" r="1" gradientUnits="userSpaceOnUse" gradientTransform="translate(7.4375 13.8125) rotate(139.629) scale(22.7236 13.9333)">
<stop offset="0.185732" stop-color="#AB9C95" stop-opacity="0"/>
<stop offset="0.332796" stop-color="#82776F"/>
</radialGradient>
<radialGradient id="paint46_radial_6875_28590" cx="0" cy="0" r="1" gradientUnits="userSpaceOnUse" gradientTransform="translate(6.34375 13.625) rotate(90) scale(0.6875)">
<stop offset="0.181818" stop-color="#A89098"/>
<stop offset="1" stop-color="#A89098" stop-opacity="0"/>
</radialGradient>
<radialGradient id="paint47_radial_6875_28590" cx="0" cy="0" r="1" gradientUnits="userSpaceOnUse" gradientTransform="translate(4.10553 11.3125) rotate(25.1315) scale(4.56667 1.68845)">
<stop offset="0.173039" stop-color="#D5C0BB"/>
<stop offset="1" stop-color="#C09FB2"/>
</radialGradient>
<radialGradient id="paint48_radial_6875_28590" cx="0" cy="0" r="1" gradientUnits="userSpaceOnUse" gradientTransform="translate(2.75 11.8437) rotate(102.059) scale(7.03014 7.95678)">
<stop offset="0.23298" stop-color="#B59FA2" stop-opacity="0"/>
<stop offset="0.27372" stop-color="#B39D9F"/>
</radialGradient>
<radialGradient id="paint49_radial_6875_28590" cx="0" cy="0" r="1" gradientUnits="userSpaceOnUse" gradientTransform="translate(3.6543 13.5625) rotate(68.1104) scale(4.95067 5.55539)">
<stop offset="0.452247" stop-color="#C8B7AE" stop-opacity="0"/>
<stop offset="0.600456" stop-color="#90837D"/>
</radialGradient>
<radialGradient id="paint50_radial_6875_28590" cx="0" cy="0" r="1" gradientUnits="userSpaceOnUse" gradientTransform="translate(12.6875 24.5625) rotate(90) scale(21.875 15.5175)">
<stop offset="0.165714" stop-color="#EED1D6"/>
<stop offset="0.228571" stop-color="#C6AAB3"/>
<stop offset="0.26" stop-color="#AC949A"/>
</radialGradient>
<radialGradient id="paint51_radial_6875_28590" cx="0" cy="0" r="1" gradientUnits="userSpaceOnUse" gradientTransform="translate(13.8125 19.5312) rotate(137.511) scale(5.04298 4.61428)">
<stop offset="0.544659" stop-color="#E7C5D4"/>
<stop offset="1" stop-color="#DBBFC6" stop-opacity="0"/>
</radialGradient>
<radialGradient id="paint52_radial_6875_28590" cx="0" cy="0" r="1" gradientUnits="userSpaceOnUse" gradientTransform="translate(9.9375 18.2812) rotate(130.675) scale(5.27413 3.39622)">
<stop offset="0.337944" stop-color="#A3928D"/>
<stop offset="1" stop-color="#A3928D" stop-opacity="0"/>
</radialGradient>
<radialGradient id="paint53_radial_6875_28590" cx="0" cy="0" r="1" gradientUnits="userSpaceOnUse" gradientTransform="translate(13.375 22.3125) rotate(146.31) scale(3.8309 1.71522)">
<stop offset="0.228846" stop-color="#D9B4CD"/>
<stop offset="1" stop-color="#D9B4CD" stop-opacity="0"/>
</radialGradient>
<radialGradient id="paint54_radial_6875_28590" cx="0" cy="0" r="1" gradientUnits="userSpaceOnUse" gradientTransform="translate(10 23.0937) rotate(133.608) scale(11.8254 6.8394)">
<stop offset="0.377068" stop-color="#D8B5C8" stop-opacity="0"/>
<stop offset="0.429555" stop-color="#D8B5C8"/>
</radialGradient>
<radialGradient id="paint55_radial_6875_28590" cx="0" cy="0" r="1" gradientUnits="userSpaceOnUse" gradientTransform="translate(10.4219 18.4687) rotate(11.6517) scale(2.50474 0.667492)">
<stop offset="0.384368" stop-color="#8D7B79"/>
<stop offset="1" stop-color="#AE949C" stop-opacity="0"/>
</radialGradient>
<radialGradient id="paint56_radial_6875_28590" cx="0" cy="0" r="1" gradientUnits="userSpaceOnUse" gradientTransform="translate(10.125 25.8535) rotate(90) scale(2.39648 1.56505)">
<stop offset="0.0741646" stop-color="#A18F96"/>
<stop offset="0.535987" stop-color="#847179"/>
<stop offset="1" stop-color="#66595D"/>
</radialGradient>
<radialGradient id="paint57_radial_6875_28590" cx="0" cy="0" r="1" gradientUnits="userSpaceOnUse" gradientTransform="translate(25.5312 5.55273) rotate(12.3391) scale(1.21558)">
<stop stop-color="#3B3040"/>
<stop offset="1" stop-color="#3B3040" stop-opacity="0"/>
</radialGradient>
<radialGradient id="paint58_radial_6875_28590" cx="0" cy="0" r="1" gradientUnits="userSpaceOnUse" gradientTransform="translate(27.1133 3.8125) rotate(134.784) scale(2.20144 0.980227)">
<stop offset="0.268509" stop-color="#5A5A5A"/>
<stop offset="1" stop-color="#4F4F50" stop-opacity="0"/>
</radialGradient>
<radialGradient id="paint59_radial_6875_28590" cx="0" cy="0" r="1" gradientUnits="userSpaceOnUse" gradientTransform="translate(7.34375 17.4375) rotate(86.0091) scale(2.69403 2.19266)">
<stop offset="0.122713" stop-color="#FFE5FE"/>
<stop offset="0.538482" stop-color="#E1C5E2"/>
<stop offset="0.860872" stop-color="#B29FB0"/>
</radialGradient>
<radialGradient id="paint60_radial_6875_28590" cx="0" cy="0" r="1" gradientUnits="userSpaceOnUse" gradientTransform="translate(29.2969 20.875) rotate(-141.991) scale(6.44502 0.968452)">
<stop offset="0.0373514" stop-color="#8F8683"/>
<stop offset="1" stop-color="#86777D" stop-opacity="0"/>
</radialGradient>
<linearGradient id="paint61_linear_6875_28590" x1="28.7812" y1="19.8125" x2="28.4375" y2="20.25" gradientUnits="userSpaceOnUse">
<stop stop-color="#6F6761"/>
<stop offset="1" stop-color="#7C746E" stop-opacity="0"/>
</linearGradient>
<radialGradient id="paint62_radial_6875_28590" cx="0" cy="0" r="1" gradientUnits="userSpaceOnUse" gradientTransform="translate(6.6875 13.2813) rotate(126.027) scale(0.637569 0.564514)">
<stop stop-color="#504F50"/>
<stop offset="0.876996" stop-color="#252326"/>
</radialGradient>
<radialGradient id="paint63_radial_6875_28590" cx="0" cy="0" r="1" gradientUnits="userSpaceOnUse" gradientTransform="translate(26.4687 15.4375) rotate(123.533) scale(6.33574 5.44786)">
<stop offset="0.388781" stop-color="#E4C6CE"/>
<stop offset="1" stop-color="#D3BCBD"/>
</radialGradient>
<linearGradient id="paint64_linear_6875_28590" x1="22.3125" y1="11.875" x2="23.5625" y2="13.75" gradientUnits="userSpaceOnUse">
<stop stop-color="#C5B2AC"/>
<stop offset="1" stop-color="#C5B2AC" stop-opacity="0"/>
</linearGradient>
<radialGradient id="paint65_radial_6875_28590" cx="0" cy="0" r="1" gradientUnits="userSpaceOnUse" gradientTransform="translate(24.9063 12.0625) rotate(-50.5776) scale(11.3675 8.38988)">
<stop offset="0.415207" stop-color="#D5AEC7" stop-opacity="0"/>
<stop offset="0.520344" stop-color="#CFABBF"/>
</radialGradient>
<radialGradient id="paint66_radial_6875_28590" cx="0" cy="0" r="1" gradientUnits="userSpaceOnUse" gradientTransform="translate(23.4687 15.625) rotate(55.5051) scale(6.78708)">
<stop offset="0.435361" stop-color="#988B82" stop-opacity="0"/>
<stop offset="0.518359" stop-color="#988B82"/>
</radialGradient>
<radialGradient id="paint67_radial_6875_28590" cx="0" cy="0" r="1" gradientUnits="userSpaceOnUse" gradientTransform="translate(26.8438 13.25) rotate(120.906) scale(5.35397 1.69887)">
<stop offset="0.260006" stop-color="#C1A8AD"/>
<stop offset="1" stop-color="#C1A8AD" stop-opacity="0"/>
</radialGradient>
<radialGradient id="paint68_radial_6875_28590" cx="0" cy="0" r="1" gradientUnits="userSpaceOnUse" gradientTransform="translate(24.9375 13.5625) rotate(4.30447) scale(2.91447 5.18158)">
<stop offset="0.352265" stop-color="#E0C4CA"/>
<stop offset="0.719821" stop-color="#E0C4CA" stop-opacity="0"/>
</radialGradient>
<radialGradient id="paint69_radial_6875_28590" cx="0" cy="0" r="1" gradientUnits="userSpaceOnUse" gradientTransform="translate(27.25 11.625) rotate(90) scale(2.3252 5.31204)">
<stop offset="0.352265" stop-color="#E0C4CA"/>
<stop offset="0.719821" stop-color="#E0C4CA" stop-opacity="0"/>
</radialGradient>
<radialGradient id="paint70_radial_6875_28590" cx="0" cy="0" r="1" gradientUnits="userSpaceOnUse" gradientTransform="translate(26.8125 13.7187) rotate(38.6598) scale(2.00098 8.02831)">
<stop stop-color="#C0A7AC"/>
<stop offset="0.595122" stop-color="#DABEC4" stop-opacity="0"/>
</radialGradient>
<radialGradient id="paint71_radial_6875_28590" cx="0" cy="0" r="1" gradientUnits="userSpaceOnUse" gradientTransform="translate(28 12.9375) rotate(58.2405) scale(1.54364 2.28504)">
<stop offset="0.232483" stop-color="#CCA5C1"/>
<stop offset="1" stop-color="#D9B3CA" stop-opacity="0"/>
</radialGradient>
<linearGradient id="paint72_linear_6875_28590" x1="25.1681" y1="9.5625" x2="25.1681" y2="11.2187" gradientUnits="userSpaceOnUse">
<stop offset="2.98067e-08" stop-color="#AC9E93"/>
<stop offset="1" stop-color="#BCACA3" stop-opacity="0"/>
</linearGradient>
<radialGradient id="paint73_radial_6875_28590" cx="0" cy="0" r="1" gradientUnits="userSpaceOnUse" gradientTransform="translate(23.5938 11.1562) rotate(117.096) scale(1.50941 0.445771)">
<stop stop-color="#8E8179"/>
<stop offset="1" stop-color="#8E8179" stop-opacity="0"/>
</radialGradient>
<radialGradient id="paint74_radial_6875_28590" cx="0" cy="0" r="1" gradientUnits="userSpaceOnUse" gradientTransform="translate(30 11.0625) rotate(179.265) scale(2.4377 0.906766)">
<stop offset="0.183071" stop-color="#9C918D"/>
<stop offset="0.516137" stop-color="#95828B"/>
<stop offset="1" stop-color="#91778B"/>
</radialGradient>
<radialGradient id="paint75_radial_6875_28590" cx="0" cy="0" r="1" gradientUnits="userSpaceOnUse" gradientTransform="translate(28 10.0625) rotate(7.07604) scale(2.26727 1.04163)">
<stop offset="0.256679" stop-color="#6F6760"/>
<stop offset="1" stop-color="#6F6760" stop-opacity="0"/>
</radialGradient>
<radialGradient id="paint76_radial_6875_28590" cx="0" cy="0" r="1" gradientUnits="userSpaceOnUse" gradientTransform="translate(22.5938 8.57813) rotate(101.649) scale(1.06889 1.03988)">
<stop offset="0.166089" stop-color="#DCC7C2"/>
<stop offset="0.49947" stop-color="#C3ADAD"/>
<stop offset="1" stop-color="#92847E"/>
</radialGradient>
<linearGradient id="paint77_linear_6875_28590" x1="22.6641" y1="8.0625" x2="22.625" y2="8.59375" gradientUnits="userSpaceOnUse">
<stop offset="0.0131211" stop-color="#CAB3B4"/>
<stop offset="1" stop-color="#CEB7B8" stop-opacity="0"/>
</linearGradient>
<linearGradient id="paint78_linear_6875_28590" x1="23.1211" y1="8.83984" x2="22.5" y2="8.55469" gradientUnits="userSpaceOnUse">
<stop offset="0.262852" stop-color="#CAB5B2"/>
<stop offset="1" stop-color="#CEB7B8" stop-opacity="0"/>
</linearGradient>
<linearGradient id="paint79_linear_6875_28590" x1="22.3779" y1="9.58594" x2="22.3779" y2="9.01563" gradientUnits="userSpaceOnUse">
<stop offset="0.394737" stop-color="#A38C91"/>
<stop offset="1" stop-color="#BAA2A5" stop-opacity="0"/>
</linearGradient>
<linearGradient id="paint80_linear_6875_28590" x1="21.7188" y1="8.0625" x2="22.2734" y2="8.52344" gradientUnits="userSpaceOnUse">
<stop offset="0.350329" stop-color="#94867F"/>
<stop offset="0.789486" stop-color="#B9A5A3" stop-opacity="0"/>
</linearGradient>
<radialGradient id="paint81_radial_6875_28590" cx="0" cy="0" r="1" gradientUnits="userSpaceOnUse" gradientTransform="translate(23.0977 8.3125) rotate(152.909) scale(0.808425 0.347166)">
<stop offset="0.310008" stop-color="#BFA8AA"/>
<stop offset="1" stop-color="#BDA8A0" stop-opacity="0"/>
</radialGradient>
<radialGradient id="paint82_radial_6875_28590" cx="0" cy="0" r="1" gradientUnits="userSpaceOnUse" gradientTransform="translate(23.0469 8.47656) rotate(90) scale(0.136719 0.303819)">
<stop offset="0.203704" stop-color="#B0A094"/>
<stop offset="1" stop-color="#BCAAA2" stop-opacity="0"/>
</radialGradient>
<radialGradient id="paint83_radial_6875_28590" cx="0" cy="0" r="1" gradientUnits="userSpaceOnUse" gradientTransform="translate(22.6406 8.57031) rotate(135) scale(0.419845 0.408451)">
<stop offset="0.136585" stop-color="#DFCAC5"/>
<stop offset="1" stop-color="#D5BEBE" stop-opacity="0"/>
</radialGradient>
</defs>
</svg>
