<svg xmlns="http://www.w3.org/2000/svg" width="32" height="32" fill="none"><path fill="#BB806E" d="M10 18a3 3 0 1 1-6 0 3 3 0 0 1 6 0ZM28 18a3 3 0 1 1-6 0 3 3 0 0 1 6 0Z"/><path fill="#C68D7B" d="M18.068 4h-4.145c-4.654 0-8.15 3.925-7.62 8.798l.7 10.795C7.481 27.266 10.587 30 14.242 30H17.758c3.666 0 6.762-2.734 7.251-6.407l.67-10.795C26.306 8.147 22.721 4 18.067 4Z"/><path fill="#593B39" d="m22.533 14.456.302-.392a.5.5 0 0 1-.609.793l-.005-.003-.031-.022a3.903 3.903 0 0 0-.706-.363 4.193 4.193 0 0 0-2.026-.262.5.5 0 1 1-.116-.993 5.194 5.194 0 0 1 3.217.668 3.591 3.591 0 0 1 .25.163l.017.012.005.004.002.002h.002l-.302.393ZM9.325 14.064a.5.5 0 0 0 .609.793l.005-.003.031-.022a3.898 3.898 0 0 1 .706-.363 4.193 4.193 0 0 1 2.026-.262.5.5 0 1 0 .117-.993 5.194 5.194 0 0 0-3.218.668 3.591 3.591 0 0 0-.25.163l-.017.012-.005.004-.002.002-.002.001Z"/><path fill="#fff" d="M9.04 17.41a2.638 2.638 0 0 1 2.55-1.99c1.28 0 2.34.92 2.58 2.12.05.27-.16.51-.43.51H9.55c-.34 0-.59-.31-.51-.64ZM23.14 17.41a2.638 2.638 0 0 0-2.55-1.99c-1.28 0-2.34.92-2.58 2.12-.05.27.16.51.43.51h4.19c.34 0 .59-.31.51-.64Z"/><path fill="#7D4533" d="M10.3 17.61c0-.93.75-1.68 1.68-1.68a1.677 1.677 0 0 1 1.62 2.13h-3.24c-.04-.15-.06-.3-.06-.45ZM21.88 17.61c0-.93-.75-1.68-1.68-1.68a1.677 1.677 0 0 0-1.62 2.13h3.24c.04-.15.06-.3.06-.45Z"/><path fill="#000" d="M11.98 16.65a.96.96 0 0 1 .85 1.41h-1.7a.96.96 0 0 1 .85-1.41ZM20.2 16.65a.96.96 0 0 0-.85 1.41h1.7a.96.96 0 0 0-.85-1.41Z"/><path fill="#fff" d="M11.7 16.95a.3.3 0 1 1-.6 0 .3.3 0 0 1 .6 0ZM19.98 16.95a.3.3 0 1 1-.6 0 .3.3 0 0 1 .6 0Z"/><path fill="#990838" d="M15.998 23.889c-.95 0-1.833-.224-2.583-.607-.257-.13-.522.16-.37.392a3.53 3.53 0 0 0 2.953 1.576 3.53 3.53 0 0 0 2.954-1.576c.161-.233-.114-.522-.37-.392a5.692 5.692 0 0 1-2.584.607Z"/><path fill="#AB6A55" d="m15.29 17.517-.993 3.12c-.205.64.286 1.29.972 1.29h1.462c.686 0 1.177-.65.972-1.29l-.992-3.12c-.205-.69-1.207-.69-1.422 0Z"/><path fill="#E6E6E6" d="M20.15 2h2.47c3.31 0 5.85 2.96 5.35 6.23l-.77 4.95c-.13.8-.74 1.41-1.5 1.56l.01-.32v-.58c-.01-.29-.04-.58-.09-.87-.31-1.2-1.4-2.08-2.7-2.08h-7.45L20.15 2Z"/><path fill="#F4F4F4" d="M16.1 2H9.57C6.26 2 3.72 4.96 4.23 8.23L5 13.18c.12.79.73 1.41 1.5 1.56l-.01-.32v-.58c.01-.3.04-.59.09-.87a2.8 2.8 0 0 1 2.7-2.08h6.19c2.03 0 3.82-1.35 4.38-3.3l1.24-4.32A.986.986 0 0 0 20.15 2H16.1Z"/><path fill="#D3D3D3" d="M19.32 3.485a9.398 9.398 0 0 1-.57 1.73c-.441.966-1.038 1.69-1.84 2.245-1.38.96-3.36 1.41-6.24 1.41-2.692 0-4.225.805-5.079 1.596l-.027.026a4.792 4.792 0 0 0-.283.293c-.256.29-.424.564-.531.775l-.22-1.41c.11-.13.23-.26.37-.37C6.56 8.23 8.95 7.9 10.67 7.9c2.78 0 4.538-.431 5.686-1.236.16-.111.309-.231.446-.357.456-.42.794-.919 1.055-1.49l.003-.007-.034.019a6.01 6.01 0 0 1-1.533.575c-.871.202-1.962.273-3.31.077-.36-.05-.723-.11-1.079-.168a92.282 92.282 0 0 0-.444-.073c-2.064-.34-3.974-.652-5.547-.286a5.059 5.059 0 0 0-.321.085c-.387.117-.752.28-1.092.501.19-.53.47-1.02.81-1.46 1.863-.548 4.092-.183 6.284.176l.027.004.394.066c.364.06.743.123 1.108.175 2.088.301 3.438-.102 4.254-.561.051-.03.1-.058.148-.088.642-.396.9-.803.905-.812a.497.497 0 0 1 .91.36l-.02.085ZM21.448 8.801a7.19 7.19 0 0 1 5.912 3.309l.21-1.37a8.186 8.186 0 0 0-6.26-2.92.49.49 0 0 0 0 .98l.138.001ZM26.965 6.656A7.28 7.28 0 0 1 28.02 7.71c.03-.54-.02-1.07-.14-1.57a8.192 8.192 0 0 0-5.44-2.08.49.49 0 0 0 0 .98l.137.001a7.179 7.179 0 0 1 4.388 1.615Z"/></svg>