<svg width="32" height="32" viewBox="0 0 32 32" fill="none" xmlns="http://www.w3.org/2000/svg">
<path d="M12.4609 8C11.6325 8 10.9609 8.67157 10.9609 9.5V23.5156C10.9609 24.3441 11.6325 25.0156 12.4609 25.0156C13.2894 25.0156 13.9609 24.3441 13.9609 23.5156V18.2266C13.9609 18.0885 14.0729 17.9766 14.2109 17.9766H18C19.3789 17.9766 20.6574 17.5007 21.5999 16.5929C22.5477 15.6801 23.0703 14.4117 23.0703 13C23.0703 10.0675 20.853 8 18 8H12.4609ZM14.2109 14.9766C14.0729 14.9766 13.9609 14.8646 13.9609 14.7266V11.25C13.9609 11.1119 14.0729 11 14.2109 11H18C19.2762 11 20.0703 11.8033 20.0703 13C20.0703 13.6529 19.8401 14.1227 19.5189 14.4321C19.1924 14.7465 18.6857 14.9766 18 14.9766H14.2109Z" fill="#212121"/>
<path d="M6 1C3.23858 1 1 3.23858 1 6V26C1 28.7614 3.23858 31 6 31H26C28.7614 31 31 28.7614 31 26V6C31 3.23858 28.7614 1 26 1H6ZM3 6C3 4.34315 4.34315 3 6 3H26C27.6569 3 29 4.34315 29 6V26C29 27.6569 27.6569 29 26 29H6C4.34315 29 3 27.6569 3 26V6Z" fill="#212121"/>
</svg>
