<svg xmlns="http://www.w3.org/2000/svg" width="32" height="32" fill="none"><path fill="#F9C23C" d="m2.37 12.15 5.65 5.65L10 13.95 8.02 10H3.26c-1.12 0-1.68 1.36-.89 2.15ZM29.65 12.15 24 17.8 22.5 14l1.5-4h4.76c1.12 0 1.68 1.36.89 2.15Z"/><path fill="#FCD53F" d="M16 2c-4.424 0-8 3.53-8 7.895V19h16V9.895C23.99 5.53 20.413 2 16 2Z"/><path fill="#1C1C1C" d="M11.87 7.83a.78.78 0 1 1-1.56 0 .78.78 0 0 1 1.56 0ZM21.74 7.83a.78.78 0 1 1-1.56 0 .78.78 0 0 1 1.56 0Z"/><path fill="#FF822D" d="M18 9h-4c0-1.104.893-2 1.995-2C17.096 7 18 7.896 18 9Z"/><path fill="#D3D3D3" d="m28.79 17.65-3.51-3.51-3.46 3.46-5.8-5.8-5.8 5.8-3.45-3.45-3.51 3.51c0 7.05 5.71 12.76 12.76 12.76 7.04 0 12.75-5.71 12.76-12.75l.01-.02Z"/></svg>