<svg width="32" height="32" viewBox="0 0 32 32" fill="none" xmlns="http://www.w3.org/2000/svg">
<path d="M30.002 16.5103L30.002 29.6703H12.6188C13.4663 26.669 15.084 23.9114 17.3463 21.6891C20.7236 18.3717 25.2679 16.5121 30.002 16.5103Z" fill="url(#paint0_radial_4002_3955)"/>
<path d="M30.002 16.5103L30.002 29.6703H12.6188C13.4663 26.669 15.084 23.9114 17.3463 21.6891C20.7236 18.3717 25.2679 16.5121 30.002 16.5103Z" fill="url(#paint1_radial_4002_3955)"/>
<path d="M30.002 11.6703C28.3452 11.6703 27.002 13.0498 27.002 14.7514V18.5892C27.002 20.2908 28.3452 21.6703 30.002 21.6703V11.6703Z" fill="url(#paint2_linear_4002_3955)"/>
<path d="M30.002 11.6703C28.3452 11.6703 27.002 13.0498 27.002 14.7514V18.5892C27.002 20.2908 28.3452 21.6703 30.002 21.6703V11.6703Z" fill="url(#paint3_radial_4002_3955)"/>
<path d="M19.002 1.67029C19.0986 2.22932 19.317 2.76222 19.6437 3.23031C19.9316 3.65581 20.0881 4.15658 20.0937 4.67031V11.5103C20.0929 12.2546 20.3248 12.9806 20.7569 13.5866C21.189 14.1926 21.7998 14.6485 22.5037 14.8903L25.6137 15.9703V3.78031L29.9454 3.79608V1.67029H19.002Z" fill="#4C3A35"/>
<path d="M19.002 1.67029C19.0986 2.22932 19.317 2.76222 19.6437 3.23031C19.9316 3.65581 20.0881 4.15658 20.0937 4.67031V11.5103C20.0929 12.2546 20.3248 12.9806 20.7569 13.5866C21.189 14.1926 21.7998 14.6485 22.5037 14.8903L25.6137 15.9703V3.78031L29.9454 3.79608V1.67029H19.002Z" fill="url(#paint4_linear_4002_3955)"/>
<path d="M19.002 1.67029C19.0986 2.22932 19.317 2.76222 19.6437 3.23031C19.9316 3.65581 20.0881 4.15658 20.0937 4.67031V11.5103C20.0929 12.2546 20.3248 12.9806 20.7569 13.5866C21.189 14.1926 21.7998 14.6485 22.5037 14.8903L25.6137 15.9703V3.78031L29.9454 3.79608V1.67029H19.002Z" fill="url(#paint5_radial_4002_3955)"/>
<path d="M19.002 1.67029C19.0986 2.22932 19.317 2.76222 19.6437 3.23031C19.9316 3.65581 20.0881 4.15658 20.0937 4.67031V11.5103C20.0929 12.2546 20.3248 12.9806 20.7569 13.5866C21.189 14.1926 21.7998 14.6485 22.5037 14.8903L25.6137 15.9703V3.78031L29.9454 3.79608V1.67029H19.002Z" fill="url(#paint6_radial_4002_3955)"/>
<g filter="url(#filter0_i_4002_3955)">
<path d="M21.752 10.1703C23.2708 10.1703 24.502 8.93907 24.502 7.42029C24.502 5.90151 23.2708 4.67029 21.752 4.67029C20.2332 4.67029 19.002 5.90151 19.002 7.42029C19.002 8.93907 20.2332 10.1703 21.752 10.1703Z" fill="url(#paint7_radial_4002_3955)"/>
</g>
<g filter="url(#filter1_f_4002_3955)">
<path d="M19.4894 7.42035C19.4894 6.76762 19.7658 6.17944 20.208 5.76648" stroke="#B1856A" stroke-width="0.3" stroke-linecap="round"/>
</g>
<g filter="url(#filter2_f_4002_3955)">
<path d="M21.752 9.17029C22.7185 9.17029 23.502 8.38679 23.502 7.42029C23.502 6.45379 22.7185 5.67029 21.752 5.67029C20.7855 5.67029 20.002 6.45379 20.002 7.42029C20.002 8.38679 20.7855 9.17029 21.752 9.17029Z" fill="url(#paint8_radial_4002_3955)"/>
</g>
<g filter="url(#filter3_ii_4002_3955)">
<path fill-rule="evenodd" clip-rule="evenodd" d="M14.5352 8.5456C15.0019 8.49475 15.4214 8.83185 15.4723 9.29853C15.6045 10.5117 16.1263 11.6494 16.9596 12.541C17.2801 12.8839 17.2619 13.4218 16.9189 13.7424C16.5759 14.0629 16.0381 14.0447 15.7175 13.7017C14.6333 12.5416 13.9543 11.0612 13.7823 9.48268C13.7314 9.016 14.0685 8.59645 14.5352 8.5456Z" fill="url(#paint9_radial_4002_3955)"/>
</g>
<g filter="url(#filter4_ii_4002_3955)">
<path fill-rule="evenodd" clip-rule="evenodd" d="M11.6343 9.02586C12.1006 8.97187 12.5224 9.30614 12.5764 9.77247C12.7834 11.5603 13.5847 13.0711 14.7958 14.4804C15.1017 14.8364 15.0611 15.3731 14.7051 15.679C14.3491 15.985 13.8124 15.9444 13.5064 15.5884C12.1394 13.9976 11.1438 12.1804 10.8877 9.96798C10.8337 9.50165 11.168 9.07985 11.6343 9.02586Z" fill="url(#paint10_radial_4002_3955)"/>
</g>
<g filter="url(#filter5_i_4002_3955)">
<path d="M30.002 1.67029H21.4467C21.002 2.17029 20.9344 3.18526 21.002 3.67029L21.492 12.6703C21.7046 14.2335 22.476 15.6669 23.6635 16.7056C24.851 17.7442 26.9944 18.3178 28.572 18.3203H30.002V1.67029Z" fill="#A87A70"/>
<path d="M30.002 1.67029H21.4467C21.002 2.17029 20.9344 3.18526 21.002 3.67029L21.492 12.6703C21.7046 14.2335 22.476 15.6669 23.6635 16.7056C24.851 17.7442 26.9944 18.3178 28.572 18.3203H30.002V1.67029Z" fill="url(#paint11_linear_4002_3955)"/>
<path d="M30.002 1.67029H21.4467C21.002 2.17029 20.9344 3.18526 21.002 3.67029L21.492 12.6703C21.7046 14.2335 22.476 15.6669 23.6635 16.7056C24.851 17.7442 26.9944 18.3178 28.572 18.3203H30.002V1.67029Z" fill="url(#paint12_radial_4002_3955)"/>
</g>
<path d="M30.002 1.67029H21.4467C21.002 2.17029 20.9344 3.18526 21.002 3.67029L21.492 12.6703C21.7046 14.2335 22.476 15.6669 23.6635 16.7056C24.851 17.7442 26.9944 18.3178 28.572 18.3203H30.002V1.67029Z" fill="url(#paint13_radial_4002_3955)"/>
<path d="M30.002 1.67029H21.4467C21.002 2.17029 20.9344 3.18526 21.002 3.67029L21.492 12.6703C21.7046 14.2335 22.476 15.6669 23.6635 16.7056C24.851 17.7442 26.9944 18.3178 28.572 18.3203H30.002V1.67029Z" fill="url(#paint14_radial_4002_3955)"/>
<path d="M30.002 1.67029H21.4467C21.002 2.17029 20.9344 3.18526 21.002 3.67029L21.492 12.6703C21.7046 14.2335 22.476 15.6669 23.6635 16.7056C24.851 17.7442 26.9944 18.3178 28.572 18.3203H30.002V1.67029Z" fill="url(#paint15_radial_4002_3955)"/>
<path d="M30.002 1.67029H21.4467C21.002 2.17029 20.9344 3.18526 21.002 3.67029L21.492 12.6703C21.7046 14.2335 22.476 15.6669 23.6635 16.7056C24.851 17.7442 26.9944 18.3178 28.572 18.3203H30.002V1.67029Z" fill="url(#paint16_radial_4002_3955)"/>
<path d="M19.1426 25.4797L18.6583 26.4016L12.002 23.9016C12.0541 23.6464 12.2239 22.9079 12.4864 21.9954C12.7489 21.0829 13.3301 19.6672 13.627 19.0422L20.2676 21.2297L21.004 19.8602C21.4385 19.0519 22.491 18.8206 23.2244 19.3723C23.8834 19.8681 24.0181 20.8034 23.5129 21.4552C23.1517 21.9213 22.7533 22.425 22.4083 22.8391C21.538 23.8835 20.7676 24.2922 20.1114 24.5891C19.5864 24.8266 19.2468 25.2818 19.1426 25.4797Z" fill="url(#paint17_radial_4002_3955)"/>
<path d="M19.1426 25.4797L18.6583 26.4016L12.002 23.9016C12.0541 23.6464 12.2239 22.9079 12.4864 21.9954C12.7489 21.0829 13.3301 19.6672 13.627 19.0422L20.2676 21.2297L21.004 19.8602C21.4385 19.0519 22.491 18.8206 23.2244 19.3723C23.8834 19.8681 24.0181 20.8034 23.5129 21.4552C23.1517 21.9213 22.7533 22.425 22.4083 22.8391C21.538 23.8835 20.7676 24.2922 20.1114 24.5891C19.5864 24.8266 19.2468 25.2818 19.1426 25.4797Z" fill="url(#paint18_radial_4002_3955)"/>
<path d="M19.1426 25.4797L18.6583 26.4016L12.002 23.9016C12.0541 23.6464 12.2239 22.9079 12.4864 21.9954C12.7489 21.0829 13.3301 19.6672 13.627 19.0422L20.2676 21.2297L21.004 19.8602C21.4385 19.0519 22.491 18.8206 23.2244 19.3723C23.8834 19.8681 24.0181 20.8034 23.5129 21.4552C23.1517 21.9213 22.7533 22.425 22.4083 22.8391C21.538 23.8835 20.7676 24.2922 20.1114 24.5891C19.5864 24.8266 19.2468 25.2818 19.1426 25.4797Z" fill="url(#paint19_radial_4002_3955)"/>
<path d="M19.1426 25.4797L18.6583 26.4016L12.002 23.9016C12.0541 23.6464 12.2239 22.9079 12.4864 21.9954C12.7489 21.0829 13.3301 19.6672 13.627 19.0422L20.2676 21.2297L21.004 19.8602C21.4385 19.0519 22.491 18.8206 23.2244 19.3723C23.8834 19.8681 24.0181 20.8034 23.5129 21.4552C23.1517 21.9213 22.7533 22.425 22.4083 22.8391C21.538 23.8835 20.7676 24.2922 20.1114 24.5891C19.5864 24.8266 19.2468 25.2818 19.1426 25.4797Z" fill="url(#paint20_radial_4002_3955)"/>
<path d="M19.1426 25.4797L18.6583 26.4016L12.002 23.9016C12.0541 23.6464 12.2239 22.9079 12.4864 21.9954C12.7489 21.0829 13.3301 19.6672 13.627 19.0422L20.2676 21.2297L21.004 19.8602C21.4385 19.0519 22.491 18.8206 23.2244 19.3723C23.8834 19.8681 24.0181 20.8034 23.5129 21.4552C23.1517 21.9213 22.7533 22.425 22.4083 22.8391C21.538 23.8835 20.7676 24.2922 20.1114 24.5891C19.5864 24.8266 19.2468 25.2818 19.1426 25.4797Z" fill="url(#paint21_radial_4002_3955)"/>
<path d="M19.1426 25.4797L18.6583 26.4016L12.002 23.9016C12.0541 23.6464 12.2239 22.9079 12.4864 21.9954C12.7489 21.0829 13.3301 19.6672 13.627 19.0422L20.2676 21.2297L21.004 19.8602C21.4385 19.0519 22.491 18.8206 23.2244 19.3723C23.8834 19.8681 24.0181 20.8034 23.5129 21.4552C23.1517 21.9213 22.7533 22.425 22.4083 22.8391C21.538 23.8835 20.7676 24.2922 20.1114 24.5891C19.5864 24.8266 19.2468 25.2818 19.1426 25.4797Z" fill="url(#paint22_radial_4002_3955)"/>
<path d="M19.1426 25.4797L18.6583 26.4016L12.002 23.9016C12.0541 23.6464 12.2239 22.9079 12.4864 21.9954C12.7489 21.0829 13.3301 19.6672 13.627 19.0422L20.2676 21.2297L21.004 19.8602C21.4385 19.0519 22.491 18.8206 23.2244 19.3723C23.8834 19.8681 24.0181 20.8034 23.5129 21.4552C23.1517 21.9213 22.7533 22.425 22.4083 22.8391C21.538 23.8835 20.7676 24.2922 20.1114 24.5891C19.5864 24.8266 19.2468 25.2818 19.1426 25.4797Z" fill="url(#paint23_radial_4002_3955)"/>
<path d="M19.1426 25.4797L18.6583 26.4016L12.002 23.9016C12.0541 23.6464 12.2239 22.9079 12.4864 21.9954C12.7489 21.0829 13.3301 19.6672 13.627 19.0422L20.2676 21.2297L21.004 19.8602C21.4385 19.0519 22.491 18.8206 23.2244 19.3723C23.8834 19.8681 24.0181 20.8034 23.5129 21.4552C23.1517 21.9213 22.7533 22.425 22.4083 22.8391C21.538 23.8835 20.7676 24.2922 20.1114 24.5891C19.5864 24.8266 19.2468 25.2818 19.1426 25.4797Z" fill="url(#paint24_radial_4002_3955)"/>
<rect x="21.1551" y="13.0317" width="2.8588" height="8.14723" rx="1.4294" transform="rotate(25.4088 21.1551 13.0317)" fill="url(#paint25_radial_4002_3955)"/>
<rect x="21.1551" y="13.0317" width="2.8588" height="8.14723" rx="1.4294" transform="rotate(25.4088 21.1551 13.0317)" fill="url(#paint26_radial_4002_3955)"/>
<rect x="21.1551" y="13.0317" width="2.8588" height="8.14723" rx="1.4294" transform="rotate(25.4088 21.1551 13.0317)" fill="url(#paint27_radial_4002_3955)"/>
<path d="M19.3843 17.0292C18.1977 16.8352 17.3741 17.5217 17.088 17.9039L18.3152 19.9254C18.2575 20.658 18.4085 22.1658 19.5349 22.3069C20.9428 22.4834 21.4698 21.2191 21.5301 19.9254C21.5899 18.6403 20.8065 17.2618 19.3843 17.0292Z" fill="url(#paint28_radial_4002_3955)"/>
<path d="M19.3843 17.0292C18.1977 16.8352 17.3741 17.5217 17.088 17.9039L18.3152 19.9254C18.2575 20.658 18.4085 22.1658 19.5349 22.3069C20.9428 22.4834 21.4698 21.2191 21.5301 19.9254C21.5899 18.6403 20.8065 17.2618 19.3843 17.0292Z" fill="url(#paint29_radial_4002_3955)"/>
<path d="M19.3843 17.0292C18.1977 16.8352 17.3741 17.5217 17.088 17.9039L18.3152 19.9254C18.2575 20.658 18.4085 22.1658 19.5349 22.3069C20.9428 22.4834 21.4698 21.2191 21.5301 19.9254C21.5899 18.6403 20.8065 17.2618 19.3843 17.0292Z" fill="url(#paint30_radial_4002_3955)"/>
<path d="M19.3843 17.0292C18.1977 16.8352 17.3741 17.5217 17.088 17.9039L18.3152 19.9254C18.2575 20.658 18.4085 22.1658 19.5349 22.3069C20.9428 22.4834 21.4698 21.2191 21.5301 19.9254C21.5899 18.6403 20.8065 17.2618 19.3843 17.0292Z" fill="url(#paint31_radial_4002_3955)"/>
<path d="M17.9864 16.9797C16.7551 16.7735 15.9005 17.5032 15.6036 17.9094L16.877 20.0578C16.8171 20.8365 16.9739 22.4391 18.1426 22.5891C19.6036 22.7766 20.1505 21.4328 20.213 20.0578C20.275 18.692 19.4621 17.2269 17.9864 16.9797Z" fill="url(#paint32_radial_4002_3955)"/>
<path d="M17.9864 16.9797C16.7551 16.7735 15.9005 17.5032 15.6036 17.9094L16.877 20.0578C16.8171 20.8365 16.9739 22.4391 18.1426 22.5891C19.6036 22.7766 20.1505 21.4328 20.213 20.0578C20.275 18.692 19.4621 17.2269 17.9864 16.9797Z" fill="url(#paint33_radial_4002_3955)"/>
<path d="M17.9864 16.9797C16.7551 16.7735 15.9005 17.5032 15.6036 17.9094L16.877 20.0578C16.8171 20.8365 16.9739 22.4391 18.1426 22.5891C19.6036 22.7766 20.1505 21.4328 20.213 20.0578C20.275 18.692 19.4621 17.2269 17.9864 16.9797Z" fill="url(#paint34_radial_4002_3955)"/>
<path d="M17.9864 16.9797C16.7551 16.7735 15.9005 17.5032 15.6036 17.9094L16.877 20.0578C16.8171 20.8365 16.9739 22.4391 18.1426 22.5891C19.6036 22.7766 20.1505 21.4328 20.213 20.0578C20.275 18.692 19.4621 17.2269 17.9864 16.9797Z" fill="url(#paint35_radial_4002_3955)"/>
<path d="M17.7833 20.9759C18.3808 19.3685 17.5782 18.1128 16.7208 17.7532C15.6832 17.3181 14.2208 17.6673 13.5723 19.1673V19.5735H15.1119C15.1827 19.5735 15.2307 19.6462 15.2058 19.7125C14.5039 21.5813 15.4179 21.8985 15.8145 22.0892C16.063 22.2086 17.2286 22.4681 17.7833 20.9759Z" fill="url(#paint36_radial_4002_3955)"/>
<path d="M17.7833 20.9759C18.3808 19.3685 17.5782 18.1128 16.7208 17.7532C15.6832 17.3181 14.2208 17.6673 13.5723 19.1673V19.5735H15.1119C15.1827 19.5735 15.2307 19.6462 15.2058 19.7125C14.5039 21.5813 15.4179 21.8985 15.8145 22.0892C16.063 22.2086 17.2286 22.4681 17.7833 20.9759Z" fill="url(#paint37_radial_4002_3955)"/>
<g filter="url(#filter6_i_4002_3955)">
<path fill-rule="evenodd" clip-rule="evenodd" d="M26.7311 3.1783C25.8652 3.06968 24.9894 3.27925 24.2665 3.76803C24.0423 3.91961 23.7377 3.86075 23.5861 3.63657C23.4346 3.41238 23.4934 3.10777 23.7176 2.95619C24.6373 2.33435 25.7515 2.06773 26.8531 2.20592C27.1216 2.2396 27.3119 2.48458 27.2783 2.7531C27.2446 3.02161 26.9996 3.21198 26.7311 3.1783Z" fill="#342725"/>
</g>
<g filter="url(#filter7_f_4002_3955)">
<path d="M29.7769 7.67033C29.6654 7.68575 29.6696 7.04798 29.5781 7.11391C29.3984 7.11391 29.2543 7.40733 29.2109 7.5436L28.2249 10.1985C28.1829 10.3348 28.1741 10.4789 28.199 10.6191C28.2239 10.7594 28.282 10.892 28.3685 11.0063C28.455 11.1207 28.5676 11.2137 28.6973 11.2778C29.0597 11.457 29.547 11.2436 29.8926 11.1352L29.7769 7.67033Z" fill="url(#paint38_linear_4002_3955)"/>
</g>
<path d="M30.002 6.67688C29.8972 6.69231 29.7971 6.73457 29.7111 6.80052C29.6007 6.88511 29.5191 7.00424 29.4783 7.14054L28.631 9.99278C28.5915 10.1291 28.5832 10.2732 28.6066 10.4134C28.6301 10.5537 28.6847 10.6864 28.766 10.8008C28.8474 10.9151 28.9533 11.0081 29.0753 11.0723C29.1973 11.1364 29.3319 11.17 29.4686 11.1702H30.002V6.67688Z" fill="url(#paint39_linear_4002_3955)"/>
<path d="M30.002 6.67688C29.8972 6.69231 29.7971 6.73457 29.7111 6.80052C29.6007 6.88511 29.5191 7.00424 29.4783 7.14054L28.631 9.99278C28.5915 10.1291 28.5832 10.2732 28.6066 10.4134C28.6301 10.5537 28.6847 10.6864 28.766 10.8008C28.8474 10.9151 28.9533 11.0081 29.0753 11.0723C29.1973 11.1364 29.3319 11.17 29.4686 11.1702H30.002V6.67688Z" fill="url(#paint40_radial_4002_3955)"/>
<path d="M30.002 6.67688C29.8972 6.69231 29.7971 6.73457 29.7111 6.80052C29.6007 6.88511 29.5191 7.00424 29.4783 7.14054L28.631 9.99278C28.5915 10.1291 28.5832 10.2732 28.6066 10.4134C28.6301 10.5537 28.6847 10.6864 28.766 10.8008C28.8474 10.9151 28.9533 11.0081 29.0753 11.0723C29.1973 11.1364 29.3319 11.17 29.4686 11.1702H30.002V6.67688Z" fill="url(#paint41_radial_4002_3955)"/>
<path d="M30.002 6.67688C29.8972 6.69231 29.7971 6.73457 29.7111 6.80052C29.6007 6.88511 29.5191 7.00424 29.4783 7.14054L28.631 9.99278C28.5915 10.1291 28.5832 10.2732 28.6066 10.4134C28.6301 10.5537 28.6847 10.6864 28.766 10.8008C28.8474 10.9151 28.9533 11.0081 29.0753 11.0723C29.1973 11.1364 29.3319 11.17 29.4686 11.1702H30.002V6.67688Z" fill="url(#paint42_linear_4002_3955)"/>
<g filter="url(#filter8_f_4002_3955)">
<path d="M30.002 12.7973C29.9188 12.8012 29.8355 12.8028 29.752 12.8023C28.9272 12.8087 28.1132 12.6014 27.38 12.1982C27.3291 12.172 27.2716 12.164 27.2161 12.1753C27.1606 12.1866 27.11 12.2166 27.0717 12.261C27.0334 12.3053 27.0095 12.3616 27.0035 12.4216C26.9975 12.4815 27.0097 12.542 27.0383 12.594C27.3313 13.0776 27.7331 13.4753 28.2071 13.7507C28.6812 14.026 29.2123 14.1703 29.752 14.1703C29.8356 14.1703 29.919 14.1668 30.002 14.16V12.7973Z" stroke="url(#paint43_linear_4002_3955)" stroke-width="0.2"/>
</g>
<path d="M30.002 12.7973C29.9188 12.8012 29.8355 12.8028 29.752 12.8023C28.9272 12.8087 28.1132 12.6014 27.38 12.1982C27.3291 12.172 27.2716 12.164 27.2161 12.1753C27.1606 12.1866 27.11 12.2166 27.0717 12.261C27.0334 12.3053 27.0095 12.3616 27.0035 12.4216C26.9975 12.4815 27.0097 12.542 27.0383 12.594C27.3313 13.0776 27.7331 13.4753 28.2071 13.7507C28.6812 14.026 29.2123 14.1703 29.752 14.1703C29.8356 14.1703 29.919 14.1668 30.002 14.16V12.7973Z" fill="url(#paint44_radial_4002_3955)"/>
<path d="M18.6493 26.0119L12.375 23.2312C12.1226 23.1191 11.8272 23.2328 11.7151 23.4851L11.098 24.8743C10.9859 25.1266 11.0997 25.4221 11.352 25.5342L17.6264 28.315C17.8787 28.4271 18.1742 28.3133 18.2863 28.061L18.9033 26.6719C19.0154 26.4195 18.9017 26.124 18.6493 26.0119Z" fill="url(#paint45_linear_4002_3955)"/>
<path d="M18.6493 26.0119L12.375 23.2312C12.1226 23.1191 11.8272 23.2328 11.7151 23.4851L11.098 24.8743C10.9859 25.1266 11.0997 25.4221 11.352 25.5342L17.6264 28.315C17.8787 28.4271 18.1742 28.3133 18.2863 28.061L18.9033 26.6719C19.0154 26.4195 18.9017 26.124 18.6493 26.0119Z" fill="url(#paint46_radial_4002_3955)"/>
<path d="M18.6493 26.0119L12.375 23.2312C12.1226 23.1191 11.8272 23.2328 11.7151 23.4851L11.098 24.8743C10.9859 25.1266 11.0997 25.4221 11.352 25.5342L17.6264 28.315C17.8787 28.4271 18.1742 28.3133 18.2863 28.061L18.9033 26.6719C19.0154 26.4195 18.9017 26.124 18.6493 26.0119Z" fill="url(#paint47_linear_4002_3955)"/>
<path d="M18.8757 29.6702H8.04468L9.80406 25.6145C9.9737 25.2295 10.2864 24.9284 10.6738 24.7769C11.0613 24.6254 11.492 24.6357 11.872 24.8057L18.0758 27.5785C18.4529 27.753 18.7475 28.0708 18.8964 28.4636C19.0441 28.8534 19.0366 29.2862 18.8757 29.6702Z" fill="url(#paint48_linear_4002_3955)"/>
<path d="M18.8757 29.6702H8.04468L9.80406 25.6145C9.9737 25.2295 10.2864 24.9284 10.6738 24.7769C11.0613 24.6254 11.492 24.6357 11.872 24.8057L18.0758 27.5785C18.4529 27.753 18.7475 28.0708 18.8964 28.4636C19.0441 28.8534 19.0366 29.2862 18.8757 29.6702Z" fill="url(#paint49_linear_4002_3955)"/>
<path d="M18.8757 29.6702H8.04468L9.80406 25.6145C9.9737 25.2295 10.2864 24.9284 10.6738 24.7769C11.0613 24.6254 11.492 24.6357 11.872 24.8057L18.0758 27.5785C18.4529 27.753 18.7475 28.0708 18.8964 28.4636C19.0441 28.8534 19.0366 29.2862 18.8757 29.6702Z" fill="url(#paint50_radial_4002_3955)"/>
<path d="M26.0083 5.32031C24.9116 5.32031 23.9852 6.0764 23.7332 7.09815C23.6583 7.39105 23.8831 7.67033 24.1828 7.67033H27.9292C28.1676 7.67033 28.3583 7.45235 28.3106 7.21395C28.0995 6.13771 27.1458 5.32031 26.0083 5.32031Z" fill="white"/>
<path d="M26.3556 5.77673C25.5246 5.77673 24.8571 6.45109 24.8571 7.27529C24.8571 7.41153 24.8775 7.54776 24.9115 7.67037H27.8065C27.8406 7.54095 27.861 7.41153 27.861 7.27529C27.8542 6.45109 27.1866 5.77673 26.3556 5.77673Z" fill="url(#paint51_radial_4002_3955)"/>
<path d="M27.2138 7.27526C27.2138 6.79844 26.8323 6.41699 26.3555 6.41699C25.8787 6.41699 25.4973 6.79844 25.4973 7.27526C25.4973 7.4183 25.5313 7.55454 25.5926 7.67033H27.1116C27.1729 7.55454 27.2138 7.4183 27.2138 7.27526Z" fill="black"/>
<g filter="url(#filter9_f_4002_3955)">
<path d="M27.7247 7.09925C27.7247 6.61499 27.3309 6.29214 27.2244 6.19458L26.7402 6.66288L27.0382 7.26954L27.7247 7.09925Z" fill="url(#paint52_linear_4002_3955)"/>
</g>
<g filter="url(#filter10_f_4002_3955)">
<path d="M26.4402 6.20976C26.5251 6.37005 26.4839 6.56489 26.1199 6.59834C26.0138 6.60809 25.9217 6.67283 25.8601 6.7598C25.7052 6.97871 25.504 6.90315 25.4224 6.749C25.3252 6.56564 25.4743 6.29628 25.7554 6.14737C26.0364 5.99847 26.343 6.0264 26.4402 6.20976Z" fill="url(#paint53_radial_4002_3955)" fill-opacity="0.9"/>
<path d="M26.4402 6.20976C26.5251 6.37005 26.4839 6.56489 26.1199 6.59834C26.0138 6.60809 25.9217 6.67283 25.8601 6.7598C25.7052 6.97871 25.504 6.90315 25.4224 6.749C25.3252 6.56564 25.4743 6.29628 25.7554 6.14737C26.0364 5.99847 26.343 6.0264 26.4402 6.20976Z" fill="url(#paint54_radial_4002_3955)"/>
</g>
<g filter="url(#filter11_f_4002_3955)">
<path d="M23.9708 3.2297C24.3666 2.93803 25.4958 2.3922 26.8458 2.5422" stroke="url(#paint55_linear_4002_3955)" stroke-width="0.2" stroke-linecap="round"/>
<path d="M23.9708 3.2297C24.3666 2.93803 25.4958 2.3922 26.8458 2.5422" stroke="url(#paint56_linear_4002_3955)" stroke-width="0.2" stroke-linecap="round"/>
</g>
<g filter="url(#filter12_f_4002_3955)">
<path d="M12.002 9.71118C12.1219 10.7529 12.8507 13.2009 14.4382 14.8578" stroke="#D4D2DD" stroke-width="0.5" stroke-linecap="round"/>
</g>
<g filter="url(#filter13_f_4002_3955)">
<path d="M14.8692 9.31091C15.0124 10.1416 15.5395 12.0265 16.502 12.9203" stroke="#D4D2DD" stroke-width="0.5" stroke-linecap="round"/>
</g>
<g filter="url(#filter14_f_4002_3955)">
<path d="M15.3672 18.5201C14.4375 18.5201 13.5688 19.0655 12.5938 22.9655" stroke="url(#paint57_linear_4002_3955)" stroke-width="0.35" stroke-linecap="round"/>
</g>
<defs>
<filter id="filter0_i_4002_3955" x="19.002" y="4.42029" width="5.5" height="5.75" filterUnits="userSpaceOnUse" color-interpolation-filters="sRGB">
<feFlood flood-opacity="0" result="BackgroundImageFix"/>
<feBlend mode="normal" in="SourceGraphic" in2="BackgroundImageFix" result="shape"/>
<feColorMatrix in="SourceAlpha" type="matrix" values="0 0 0 0 0 0 0 0 0 0 0 0 0 0 0 0 0 0 127 0" result="hardAlpha"/>
<feOffset dy="-0.25"/>
<feGaussianBlur stdDeviation="0.25"/>
<feComposite in2="hardAlpha" operator="arithmetic" k2="-1" k3="1"/>
<feColorMatrix type="matrix" values="0 0 0 0 0.556863 0 0 0 0 0.313726 0 0 0 0 0.380392 0 0 0 1 0"/>
<feBlend mode="normal" in2="shape" result="effect1_innerShadow_4002_3955"/>
</filter>
<filter id="filter1_f_4002_3955" x="18.8894" y="5.16646" width="1.91855" height="2.85386" filterUnits="userSpaceOnUse" color-interpolation-filters="sRGB">
<feFlood flood-opacity="0" result="BackgroundImageFix"/>
<feBlend mode="normal" in="SourceGraphic" in2="BackgroundImageFix" result="shape"/>
<feGaussianBlur stdDeviation="0.225" result="effect1_foregroundBlur_4002_3955"/>
</filter>
<filter id="filter2_f_4002_3955" x="19.502" y="5.17029" width="4.5" height="4.5" filterUnits="userSpaceOnUse" color-interpolation-filters="sRGB">
<feFlood flood-opacity="0" result="BackgroundImageFix"/>
<feBlend mode="normal" in="SourceGraphic" in2="BackgroundImageFix" result="shape"/>
<feGaussianBlur stdDeviation="0.25" result="effect1_foregroundBlur_4002_3955"/>
</filter>
<filter id="filter3_ii_4002_3955" x="13.6772" y="8.44053" width="3.71132" height="5.58079" filterUnits="userSpaceOnUse" color-interpolation-filters="sRGB">
<feFlood flood-opacity="0" result="BackgroundImageFix"/>
<feBlend mode="normal" in="SourceGraphic" in2="BackgroundImageFix" result="shape"/>
<feColorMatrix in="SourceAlpha" type="matrix" values="0 0 0 0 0 0 0 0 0 0 0 0 0 0 0 0 0 0 127 0" result="hardAlpha"/>
<feOffset dx="0.2" dy="-0.1"/>
<feGaussianBlur stdDeviation="0.3"/>
<feComposite in2="hardAlpha" operator="arithmetic" k2="-1" k3="1"/>
<feColorMatrix type="matrix" values="0 0 0 0 0.427451 0 0 0 0 0.380392 0 0 0 0 0.478431 0 0 0 1 0"/>
<feBlend mode="normal" in2="shape" result="effect1_innerShadow_4002_3955"/>
<feColorMatrix in="SourceAlpha" type="matrix" values="0 0 0 0 0 0 0 0 0 0 0 0 0 0 0 0 0 0 127 0" result="hardAlpha"/>
<feOffset dx="-0.1" dy="0.05"/>
<feGaussianBlur stdDeviation="0.15"/>
<feComposite in2="hardAlpha" operator="arithmetic" k2="-1" k3="1"/>
<feColorMatrix type="matrix" values="0 0 0 0 0.678431 0 0 0 0 0.678431 0 0 0 0 0.694118 0 0 0 1 0"/>
<feBlend mode="normal" in2="effect1_innerShadow_4002_3955" result="effect2_innerShadow_4002_3955"/>
</filter>
<filter id="filter4_ii_4002_3955" x="10.782" y="8.92014" width="4.41914" height="7.01426" filterUnits="userSpaceOnUse" color-interpolation-filters="sRGB">
<feFlood flood-opacity="0" result="BackgroundImageFix"/>
<feBlend mode="normal" in="SourceGraphic" in2="BackgroundImageFix" result="shape"/>
<feColorMatrix in="SourceAlpha" type="matrix" values="0 0 0 0 0 0 0 0 0 0 0 0 0 0 0 0 0 0 127 0" result="hardAlpha"/>
<feOffset dx="0.2" dy="-0.1"/>
<feGaussianBlur stdDeviation="0.3"/>
<feComposite in2="hardAlpha" operator="arithmetic" k2="-1" k3="1"/>
<feColorMatrix type="matrix" values="0 0 0 0 0.427451 0 0 0 0 0.380392 0 0 0 0 0.478431 0 0 0 1 0"/>
<feBlend mode="normal" in2="shape" result="effect1_innerShadow_4002_3955"/>
<feColorMatrix in="SourceAlpha" type="matrix" values="0 0 0 0 0 0 0 0 0 0 0 0 0 0 0 0 0 0 127 0" result="hardAlpha"/>
<feOffset dx="-0.1" dy="0.05"/>
<feGaussianBlur stdDeviation="0.15"/>
<feComposite in2="hardAlpha" operator="arithmetic" k2="-1" k3="1"/>
<feColorMatrix type="matrix" values="0 0 0 0 0.678431 0 0 0 0 0.678431 0 0 0 0 0.694118 0 0 0 1 0"/>
<feBlend mode="normal" in2="effect1_innerShadow_4002_3955" result="effect2_innerShadow_4002_3955"/>
</filter>
<filter id="filter5_i_4002_3955" x="20.9796" y="1.67029" width="9.12246" height="16.65" filterUnits="userSpaceOnUse" color-interpolation-filters="sRGB">
<feFlood flood-opacity="0" result="BackgroundImageFix"/>
<feBlend mode="normal" in="SourceGraphic" in2="BackgroundImageFix" result="shape"/>
<feColorMatrix in="SourceAlpha" type="matrix" values="0 0 0 0 0 0 0 0 0 0 0 0 0 0 0 0 0 0 127 0" result="hardAlpha"/>
<feOffset dx="0.1"/>
<feGaussianBlur stdDeviation="0.125"/>
<feComposite in2="hardAlpha" operator="arithmetic" k2="-1" k3="1"/>
<feColorMatrix type="matrix" values="0 0 0 0 0.686275 0 0 0 0 0.513726 0 0 0 0 0.431373 0 0 0 1 0"/>
<feBlend mode="normal" in2="shape" result="effect1_innerShadow_4002_3955"/>
</filter>
<filter id="filter6_i_4002_3955" x="23.502" y="1.92029" width="3.88009" height="1.93188" filterUnits="userSpaceOnUse" color-interpolation-filters="sRGB">
<feFlood flood-opacity="0" result="BackgroundImageFix"/>
<feBlend mode="normal" in="SourceGraphic" in2="BackgroundImageFix" result="shape"/>
<feColorMatrix in="SourceAlpha" type="matrix" values="0 0 0 0 0 0 0 0 0 0 0 0 0 0 0 0 0 0 127 0" result="hardAlpha"/>
<feOffset dx="0.1" dy="-0.25"/>
<feGaussianBlur stdDeviation="0.125"/>
<feComposite in2="hardAlpha" operator="arithmetic" k2="-1" k3="1"/>
<feColorMatrix type="matrix" values="0 0 0 0 0.164706 0 0 0 0 0.0823529 0 0 0 0 0.156863 0 0 0 1 0"/>
<feBlend mode="normal" in2="shape" result="effect1_innerShadow_4002_3955"/>
</filter>
<filter id="filter7_f_4002_3955" x="27.6852" y="6.60913" width="2.70746" height="5.23779" filterUnits="userSpaceOnUse" color-interpolation-filters="sRGB">
<feFlood flood-opacity="0" result="BackgroundImageFix"/>
<feBlend mode="normal" in="SourceGraphic" in2="BackgroundImageFix" result="shape"/>
<feGaussianBlur stdDeviation="0.25" result="effect1_foregroundBlur_4002_3955"/>
</filter>
<filter id="filter8_f_4002_3955" x="26.702" y="11.8703" width="3.59995" height="2.59995" filterUnits="userSpaceOnUse" color-interpolation-filters="sRGB">
<feFlood flood-opacity="0" result="BackgroundImageFix"/>
<feBlend mode="normal" in="SourceGraphic" in2="BackgroundImageFix" result="shape"/>
<feGaussianBlur stdDeviation="0.1" result="effect1_foregroundBlur_4002_3955"/>
</filter>
<filter id="filter9_f_4002_3955" x="26.5402" y="5.99458" width="1.3845" height="1.47495" filterUnits="userSpaceOnUse" color-interpolation-filters="sRGB">
<feFlood flood-opacity="0" result="BackgroundImageFix"/>
<feBlend mode="normal" in="SourceGraphic" in2="BackgroundImageFix" result="shape"/>
<feGaussianBlur stdDeviation="0.1" result="effect1_foregroundBlur_4002_3955"/>
</filter>
<filter id="filter10_f_4002_3955" x="25.2926" y="5.95164" width="1.2849" height="1.04448" filterUnits="userSpaceOnUse" color-interpolation-filters="sRGB">
<feFlood flood-opacity="0" result="BackgroundImageFix"/>
<feBlend mode="normal" in="SourceGraphic" in2="BackgroundImageFix" result="shape"/>
<feGaussianBlur stdDeviation="0.05" result="effect1_foregroundBlur_4002_3955"/>
</filter>
<filter id="filter11_f_4002_3955" x="23.6207" y="2.16663" width="3.57507" height="1.41309" filterUnits="userSpaceOnUse" color-interpolation-filters="sRGB">
<feFlood flood-opacity="0" result="BackgroundImageFix"/>
<feBlend mode="normal" in="SourceGraphic" in2="BackgroundImageFix" result="shape"/>
<feGaussianBlur stdDeviation="0.125" result="effect1_foregroundBlur_4002_3955"/>
</filter>
<filter id="filter12_f_4002_3955" x="11.252" y="8.96118" width="3.93616" height="6.64661" filterUnits="userSpaceOnUse" color-interpolation-filters="sRGB">
<feFlood flood-opacity="0" result="BackgroundImageFix"/>
<feBlend mode="normal" in="SourceGraphic" in2="BackgroundImageFix" result="shape"/>
<feGaussianBlur stdDeviation="0.25" result="effect1_foregroundBlur_4002_3955"/>
</filter>
<filter id="filter13_f_4002_3955" x="14.1191" y="8.56091" width="3.13287" height="5.10938" filterUnits="userSpaceOnUse" color-interpolation-filters="sRGB">
<feFlood flood-opacity="0" result="BackgroundImageFix"/>
<feBlend mode="normal" in="SourceGraphic" in2="BackgroundImageFix" result="shape"/>
<feGaussianBlur stdDeviation="0.25" result="effect1_foregroundBlur_4002_3955"/>
</filter>
<filter id="filter14_f_4002_3955" x="11.9187" y="17.8451" width="4.12347" height="5.79541" filterUnits="userSpaceOnUse" color-interpolation-filters="sRGB">
<feFlood flood-opacity="0" result="BackgroundImageFix"/>
<feBlend mode="normal" in="SourceGraphic" in2="BackgroundImageFix" result="shape"/>
<feGaussianBlur stdDeviation="0.25" result="effect1_foregroundBlur_4002_3955"/>
</filter>
<radialGradient id="paint0_radial_4002_3955" cx="0" cy="0" r="1" gradientUnits="userSpaceOnUse" gradientTransform="translate(28.627 21.3235) rotate(142.035) scale(10.4644 9.67005)">
<stop offset="0.264343" stop-color="#F4781C"/>
<stop offset="1" stop-color="#E86028"/>
</radialGradient>
<radialGradient id="paint1_radial_4002_3955" cx="0" cy="0" r="1" gradientUnits="userSpaceOnUse" gradientTransform="translate(27 17.4968) rotate(153.208) scale(7.07162 3.43445)">
<stop offset="0.129003" stop-color="#B5510A"/>
<stop offset="1" stop-color="#B5510A" stop-opacity="0"/>
</radialGradient>
<linearGradient id="paint2_linear_4002_3955" x1="30.3145" y1="18.9797" x2="28.8458" y2="18.9797" gradientUnits="userSpaceOnUse">
<stop stop-color="#8D5A62"/>
<stop offset="1" stop-color="#824D44"/>
</linearGradient>
<radialGradient id="paint3_radial_4002_3955" cx="0" cy="0" r="1" gradientUnits="userSpaceOnUse" gradientTransform="translate(28.6719 17.8874) rotate(90) scale(2.1875 1.95964)">
<stop stop-color="#793A52"/>
<stop offset="1" stop-color="#793A52" stop-opacity="0"/>
</radialGradient>
<linearGradient id="paint4_linear_4002_3955" x1="21.6583" y1="14.3547" x2="21.6583" y2="9.60472" gradientUnits="userSpaceOnUse">
<stop stop-color="#36212F"/>
<stop offset="0.495736" stop-color="#36212F" stop-opacity="0"/>
</linearGradient>
<radialGradient id="paint5_radial_4002_3955" cx="0" cy="0" r="1" gradientUnits="userSpaceOnUse" gradientTransform="translate(22.2833 2.82347) rotate(157.751) scale(2.22841 4.74135)">
<stop offset="0.481358" stop-color="#5A4041"/>
<stop offset="1" stop-color="#444040" stop-opacity="0"/>
<stop offset="1" stop-color="#5A4041" stop-opacity="0"/>
</radialGradient>
<radialGradient id="paint6_radial_4002_3955" cx="0" cy="0" r="1" gradientUnits="userSpaceOnUse" gradientTransform="translate(20.752 0.682846) rotate(83.7257) scale(3.00236 0.510401)">
<stop offset="0.288392" stop-color="#401E29"/>
<stop offset="1" stop-color="#401E29" stop-opacity="0"/>
</radialGradient>
<radialGradient id="paint7_radial_4002_3955" cx="0" cy="0" r="1" gradientUnits="userSpaceOnUse" gradientTransform="translate(19.2678 5.51423) rotate(48.8239) scale(5.4345 6.32377)">
<stop stop-color="#9A7156"/>
<stop offset="0.690927" stop-color="#98665E"/>
</radialGradient>
<radialGradient id="paint8_radial_4002_3955" cx="0" cy="0" r="1" gradientUnits="userSpaceOnUse" gradientTransform="translate(21.288 7.42029) rotate(89.3628) scale(2.0879 1.69863)">
<stop offset="0.407465" stop-color="#7F5348"/>
<stop offset="1" stop-color="#7F4E43"/>
</radialGradient>
<radialGradient id="paint9_radial_4002_3955" cx="0" cy="0" r="1" gradientUnits="userSpaceOnUse" gradientTransform="translate(16.3145 10.9797) rotate(151.783) scale(2.18107 6.10648)">
<stop offset="0.255889" stop-color="#CFCBD9"/>
<stop offset="1" stop-color="#978CA5"/>
</radialGradient>
<radialGradient id="paint10_radial_4002_3955" cx="0" cy="0" r="1" gradientUnits="userSpaceOnUse" gradientTransform="translate(13.9457 12.1031) rotate(150.678) scale(2.66165 7.63701)">
<stop offset="0.255889" stop-color="#CFCBD9"/>
<stop offset="1" stop-color="#978CA5"/>
</radialGradient>
<linearGradient id="paint11_linear_4002_3955" x1="21.5707" y1="9.17495" x2="24.375" y2="8.96873" gradientUnits="userSpaceOnUse">
<stop offset="0.126421" stop-color="#B18169"/>
<stop offset="1" stop-color="#B18169" stop-opacity="0"/>
</linearGradient>
<radialGradient id="paint12_radial_4002_3955" cx="0" cy="0" r="1" gradientUnits="userSpaceOnUse" gradientTransform="translate(30.002 18.3203) rotate(-90) scale(6.82355 26.136)">
<stop stop-color="#9C5A6F"/>
<stop offset="1" stop-color="#9C5A6F" stop-opacity="0"/>
</radialGradient>
<radialGradient id="paint13_radial_4002_3955" cx="0" cy="0" r="1" gradientUnits="userSpaceOnUse" gradientTransform="translate(30.002 18.5905) rotate(180) scale(14.502 6.80925)">
<stop offset="0.0164186" stop-color="#A05382"/>
<stop offset="0.571501" stop-color="#9D5673" stop-opacity="0"/>
</radialGradient>
<radialGradient id="paint14_radial_4002_3955" cx="0" cy="0" r="1" gradientUnits="userSpaceOnUse" gradientTransform="translate(20.9796 3.52798) rotate(-48.3973) scale(6.79441 2.12597)">
<stop offset="0.153383" stop-color="#B3836B"/>
<stop offset="1" stop-color="#B3836B" stop-opacity="0"/>
</radialGradient>
<radialGradient id="paint15_radial_4002_3955" cx="0" cy="0" r="1" gradientUnits="userSpaceOnUse" gradientTransform="translate(25.9375 5.57485) rotate(-90) scale(2.5 2.95858)">
<stop offset="0.175325" stop-color="#976463"/>
<stop offset="1" stop-color="#976463" stop-opacity="0"/>
</radialGradient>
<radialGradient id="paint16_radial_4002_3955" cx="0" cy="0" r="1" gradientUnits="userSpaceOnUse" gradientTransform="translate(20.7187 2.70123) rotate(-56.6185) scale(3.62077 0.450384)">
<stop offset="0.108706" stop-color="#5E3837"/>
<stop offset="1" stop-color="#5E3837" stop-opacity="0"/>
</radialGradient>
<radialGradient id="paint17_radial_4002_3955" cx="0" cy="0" r="1" gradientUnits="userSpaceOnUse" gradientTransform="translate(19.8947 24.3928) rotate(-88.989) scale(6.95499 13.3224)">
<stop stop-color="#C88B7F"/>
<stop offset="1" stop-color="#BC9272"/>
</radialGradient>
<radialGradient id="paint18_radial_4002_3955" cx="0" cy="0" r="1" gradientUnits="userSpaceOnUse" gradientTransform="translate(18.127 21.2297) rotate(98.9345) scale(3.36759 4.00423)">
<stop stop-color="#8F5560"/>
<stop offset="1" stop-color="#8F5560" stop-opacity="0"/>
</radialGradient>
<radialGradient id="paint19_radial_4002_3955" cx="0" cy="0" r="1" gradientUnits="userSpaceOnUse" gradientTransform="translate(23.6449 19.7593) rotate(146.31) scale(2.74459 0.736453)">
<stop offset="0.247321" stop-color="#CFA68B"/>
<stop offset="1" stop-color="#CFA68B" stop-opacity="0"/>
</radialGradient>
<radialGradient id="paint20_radial_4002_3955" cx="0" cy="0" r="1" gradientUnits="userSpaceOnUse" gradientTransform="translate(13.75 22.5) rotate(-71.0489) scale(5.4848 2.8803)">
<stop offset="0.218439" stop-color="#A87167"/>
<stop offset="1" stop-color="#9D6672" stop-opacity="0"/>
</radialGradient>
<radialGradient id="paint21_radial_4002_3955" cx="0" cy="0" r="1" gradientUnits="userSpaceOnUse" gradientTransform="translate(16.377 20.4641) rotate(118.292) scale(2.77345 2.16703)">
<stop offset="0.232726" stop-color="#934A65"/>
<stop offset="1" stop-color="#934A65" stop-opacity="0"/>
</radialGradient>
<radialGradient id="paint22_radial_4002_3955" cx="0" cy="0" r="1" gradientUnits="userSpaceOnUse" gradientTransform="translate(17.7812 20.6406) rotate(111.181) scale(2.68113 1.92717)">
<stop offset="0.583209" stop-color="#834757"/>
<stop offset="1" stop-color="#834757" stop-opacity="0"/>
</radialGradient>
<radialGradient id="paint23_radial_4002_3955" cx="0" cy="0" r="1" gradientUnits="userSpaceOnUse" gradientTransform="translate(20.9687 19.3887) rotate(29.1343) scale(2.18236 2.8605)">
<stop offset="0.305157" stop-color="#A2775C"/>
<stop offset="1" stop-color="#A2775C" stop-opacity="0"/>
</radialGradient>
<radialGradient id="paint24_radial_4002_3955" cx="0" cy="0" r="1" gradientUnits="userSpaceOnUse" gradientTransform="translate(20.625 25.3575) rotate(-56.9151) scale(3.69243 1.43464)">
<stop offset="0.157024" stop-color="#A96778"/>
<stop offset="1" stop-color="#A96778" stop-opacity="0"/>
</radialGradient>
<radialGradient id="paint25_radial_4002_3955" cx="0" cy="0" r="1" gradientUnits="userSpaceOnUse" gradientTransform="translate(21.5569 17.3343) rotate(-7.34035) scale(2.3174 4.35558)">
<stop stop-color="#9B7055"/>
<stop offset="1" stop-color="#B6857A"/>
</radialGradient>
<radialGradient id="paint26_radial_4002_3955" cx="0" cy="0" r="1" gradientUnits="userSpaceOnUse" gradientTransform="translate(23.6188 12.826) rotate(-54.0819) scale(2.27954 0.780487)">
<stop offset="0.201425" stop-color="#CCA48D"/>
<stop offset="1" stop-color="#CCA48D" stop-opacity="0"/>
</radialGradient>
<radialGradient id="paint27_radial_4002_3955" cx="0" cy="0" r="1" gradientUnits="userSpaceOnUse" gradientTransform="translate(21.5597 16.5027) rotate(91.1562) scale(3.52879 0.494248)">
<stop offset="0.237624" stop-color="#B28769"/>
<stop offset="1" stop-color="#B28769" stop-opacity="0"/>
</radialGradient>
<radialGradient id="paint28_radial_4002_3955" cx="0" cy="0" r="1" gradientUnits="userSpaceOnUse" gradientTransform="translate(21.875 18.9342) rotate(173.089) scale(2.0776 1.54328)">
<stop offset="0.261991" stop-color="#D2A990"/>
<stop offset="1" stop-color="#B58E70"/>
</radialGradient>
<radialGradient id="paint29_radial_4002_3955" cx="0" cy="0" r="1" gradientUnits="userSpaceOnUse" gradientTransform="translate(19.9573 22.3235) rotate(-24.478) scale(1.35309 1.73099)">
<stop stop-color="#9F5374"/>
<stop offset="1" stop-color="#9F5374" stop-opacity="0"/>
</radialGradient>
<radialGradient id="paint30_radial_4002_3955" cx="0" cy="0" r="1" gradientUnits="userSpaceOnUse" gradientTransform="translate(19.4278 18.4945) rotate(76.1806) scale(4.22758 2.87689)">
<stop offset="0.874124" stop-color="#9F5A7F" stop-opacity="0"/>
<stop offset="0.927666" stop-color="#9F5A7F"/>
</radialGradient>
<radialGradient id="paint31_radial_4002_3955" cx="0" cy="0" r="1" gradientUnits="userSpaceOnUse" gradientTransform="translate(18.2187 19.2155) rotate(-31.8908) scale(2.48437 2.73467)">
<stop offset="0.590961" stop-color="#AA8669"/>
<stop offset="1" stop-color="#AA8669" stop-opacity="0"/>
</radialGradient>
<radialGradient id="paint32_radial_4002_3955" cx="0" cy="0" r="1" gradientUnits="userSpaceOnUse" gradientTransform="translate(20.5708 19.0044) rotate(172.923) scale(2.15659 1.63968)">
<stop offset="0.261991" stop-color="#D1A98F"/>
<stop offset="1" stop-color="#B38A6D"/>
</radialGradient>
<radialGradient id="paint33_radial_4002_3955" cx="0" cy="0" r="1" gradientUnits="userSpaceOnUse" gradientTransform="translate(17.5897 22.4663) rotate(-27.397) scale(2.95842 6.85321)">
<stop offset="0.0481274" stop-color="#9C4D61"/>
<stop offset="1" stop-color="#A75673" stop-opacity="0"/>
</radialGradient>
<radialGradient id="paint34_radial_4002_3955" cx="0" cy="0" r="1" gradientUnits="userSpaceOnUse" gradientTransform="translate(18.0315 18.537) rotate(76.496) scale(4.48724 2.98921)">
<stop offset="0.874124" stop-color="#AA6885" stop-opacity="0"/>
<stop offset="0.927666" stop-color="#AA6885"/>
</radialGradient>
<radialGradient id="paint35_radial_4002_3955" cx="0" cy="0" r="1" gradientUnits="userSpaceOnUse" gradientTransform="translate(16.3727 19.3105) rotate(-35.7067) scale(2.43851 2.63383)">
<stop offset="0.530049" stop-color="#A98061"/>
<stop offset="1" stop-color="#885B4C" stop-opacity="0"/>
<stop offset="1" stop-color="#A98061" stop-opacity="0"/>
</radialGradient>
<radialGradient id="paint36_radial_4002_3955" cx="0" cy="0" r="1" gradientUnits="userSpaceOnUse" gradientTransform="translate(17.9901 18.8206) rotate(147.824) scale(2.9396 1.7606)">
<stop offset="0.0855395" stop-color="#D1A790"/>
<stop offset="1" stop-color="#B07E71"/>
</radialGradient>
<radialGradient id="paint37_radial_4002_3955" cx="0" cy="0" r="1" gradientUnits="userSpaceOnUse" gradientTransform="translate(16.1583 22.3548) rotate(-86.5167) scale(1.8002 3.61142)">
<stop offset="0.0949978" stop-color="#A25368"/>
<stop offset="1" stop-color="#A25368" stop-opacity="0"/>
</radialGradient>
<linearGradient id="paint38_linear_4002_3955" x1="27.9531" y1="10.9655" x2="28.7344" y2="7.52798" gradientUnits="userSpaceOnUse">
<stop stop-color="#915C5C"/>
<stop offset="0.674975" stop-color="#B0846E"/>
</linearGradient>
<linearGradient id="paint39_linear_4002_3955" x1="29.2978" y1="6.67688" x2="29.2978" y2="11.1702" gradientUnits="userSpaceOnUse">
<stop stop-color="#AC816D" stop-opacity="0"/>
<stop offset="0.140729" stop-color="#AC816D"/>
</linearGradient>
<radialGradient id="paint40_radial_4002_3955" cx="0" cy="0" r="1" gradientUnits="userSpaceOnUse" gradientTransform="translate(30.0801 11.1702) rotate(-90) scale(1.253 2.26733)">
<stop offset="0.163404" stop-color="#975F6D"/>
<stop offset="1" stop-color="#975F6D" stop-opacity="0"/>
</radialGradient>
<radialGradient id="paint41_radial_4002_3955" cx="0" cy="0" r="1" gradientUnits="userSpaceOnUse" gradientTransform="translate(28.7148 9.69342) rotate(-73.8821) scale(3.06693 0.606868)">
<stop offset="0.189499" stop-color="#B2856C"/>
<stop offset="1" stop-color="#B2856C" stop-opacity="0"/>
</radialGradient>
<linearGradient id="paint42_linear_4002_3955" x1="29.6875" y1="11.3109" x2="29.6875" y2="10.92" gradientUnits="userSpaceOnUse">
<stop offset="0.105264" stop-color="#88505D"/>
<stop offset="1" stop-color="#88505D" stop-opacity="0"/>
</linearGradient>
<linearGradient id="paint43_linear_4002_3955" x1="27.6895" y1="13.7297" x2="28.375" y2="12.8717" gradientUnits="userSpaceOnUse">
<stop stop-color="#835A5B"/>
<stop offset="1" stop-color="#835A5B" stop-opacity="0"/>
</linearGradient>
<radialGradient id="paint44_radial_4002_3955" cx="0" cy="0" r="1" gradientUnits="userSpaceOnUse" gradientTransform="translate(30.0958 13.4641) rotate(180) scale(2.08594 2.32812)">
<stop stop-color="#920054"/>
<stop offset="1" stop-color="#87004D"/>
</radialGradient>
<linearGradient id="paint45_linear_4002_3955" x1="12.5519" y1="25.113" x2="18.0937" y2="27.4343" gradientUnits="userSpaceOnUse">
<stop stop-color="#E75D24"/>
<stop offset="1" stop-color="#FF6D2E"/>
<stop offset="1" stop-color="#FF7030"/>
</linearGradient>
<radialGradient id="paint46_radial_4002_3955" cx="0" cy="0" r="1" gradientUnits="userSpaceOnUse" gradientTransform="translate(17.0937 25.153) rotate(111.801) scale(1.178 11.8917)">
<stop offset="0.172413" stop-color="#FF844D"/>
<stop offset="0.629311" stop-color="#FF844D" stop-opacity="0"/>
</radialGradient>
<linearGradient id="paint47_linear_4002_3955" x1="11.6426" y1="24.674" x2="13.1006" y2="25.3795" gradientUnits="userSpaceOnUse">
<stop offset="0.398539" stop-color="#EE6F1A"/>
<stop offset="1" stop-color="#EE6F1A" stop-opacity="0"/>
</linearGradient>
<linearGradient id="paint48_linear_4002_3955" x1="9.31451" y1="27.7297" x2="16.6875" y2="30.4655" gradientUnits="userSpaceOnUse">
<stop stop-color="#DE5F2F"/>
<stop offset="1" stop-color="#FF7735"/>
</linearGradient>
<linearGradient id="paint49_linear_4002_3955" x1="15.1895" y1="25.8547" x2="14.4395" y2="27.5735" gradientUnits="userSpaceOnUse">
<stop stop-color="#FF831D"/>
<stop offset="1" stop-color="#FF831D" stop-opacity="0"/>
</linearGradient>
<radialGradient id="paint50_radial_4002_3955" cx="0" cy="0" r="1" gradientUnits="userSpaceOnUse" gradientTransform="translate(16.9083 26.9172) rotate(113.806) scale(1.16131 4.175)">
<stop offset="0.207192" stop-color="#FF964C"/>
<stop offset="1" stop-color="#FF964C" stop-opacity="0"/>
</radialGradient>
<radialGradient id="paint51_radial_4002_3955" cx="0" cy="0" r="1" gradientUnits="userSpaceOnUse" gradientTransform="translate(26.359 6.57773) rotate(90) scale(1.36233 2.16693)">
<stop offset="0.80198" stop-color="#7F594B"/>
<stop offset="1" stop-color="#694B43"/>
<stop offset="1" stop-color="#804D49"/>
<stop offset="1" stop-color="#85534D"/>
<stop offset="1" stop-color="#704E45"/>
</radialGradient>
<linearGradient id="paint52_linear_4002_3955" x1="27.608" y1="6.6682" x2="27.0811" y2="6.99282" gradientUnits="userSpaceOnUse">
<stop stop-color="#B4948D"/>
<stop offset="1" stop-color="#B4948D" stop-opacity="0"/>
</linearGradient>
<radialGradient id="paint53_radial_4002_3955" cx="0" cy="0" r="1" gradientUnits="userSpaceOnUse" gradientTransform="translate(26.1153 6.82739) rotate(-121.329) scale(0.631074 1.14966)">
<stop offset="0.208046" stop-color="#C7A7A3" stop-opacity="0.25"/>
<stop offset="0.789885" stop-color="#C7A7A3"/>
</radialGradient>
<radialGradient id="paint54_radial_4002_3955" cx="0" cy="0" r="1" gradientUnits="userSpaceOnUse" gradientTransform="translate(26.1925 7.02007) rotate(-118.61) scale(0.941507 0.878046)">
<stop offset="0.765532" stop-color="#FFE6E2" stop-opacity="0"/>
<stop offset="0.966159" stop-color="#FFE6E2"/>
</radialGradient>
<linearGradient id="paint55_linear_4002_3955" x1="26.9425" y1="2.56806" x2="24.86" y2="1.38121" gradientUnits="userSpaceOnUse">
<stop offset="0.0101967" stop-color="#5D4F4F"/>
<stop offset="1" stop-color="#5D4F4F" stop-opacity="0"/>
</linearGradient>
<linearGradient id="paint56_linear_4002_3955" x1="23.9708" y1="3.43282" x2="24.5462" y2="3.55198" gradientUnits="userSpaceOnUse">
<stop offset="0.0101967" stop-color="#5D4F4F"/>
<stop offset="1" stop-color="#5D4F4F" stop-opacity="0"/>
</linearGradient>
<linearGradient id="paint57_linear_4002_3955" x1="13.9375" y1="18.3645" x2="13.9375" y2="22.9655" gradientUnits="userSpaceOnUse">
<stop stop-color="#B98E75"/>
<stop offset="1" stop-color="#B98E75" stop-opacity="0"/>
</linearGradient>
</defs>
</svg>
