<svg width="32" height="32" viewBox="0 0 32 32" fill="none" xmlns="http://www.w3.org/2000/svg">
<path d="M13.6129 4.30017C13.4018 4.30408 13.1986 4.38113 13.0379 4.51817C13.0277 4.52851 13.0156 4.53667 13.0022 4.54217C12.9888 4.54768 12.9744 4.5504 12.9599 4.55017C12.9453 4.5503 12.9308 4.54754 12.9172 4.54205C12.9037 4.53656 12.8913 4.52844 12.8809 4.51817C12.8603 4.49705 12.8487 4.4687 12.8487 4.43917C12.8487 4.40964 12.8603 4.38128 12.8809 4.36017C13.0812 4.18203 13.3389 4.08193 13.6069 4.07817C13.6217 4.07735 13.6365 4.07957 13.6505 4.08468C13.6644 4.08979 13.6771 4.09769 13.6879 4.10789C13.6987 4.1181 13.7072 4.13039 13.7131 4.14402C13.7189 4.15765 13.7219 4.17233 13.7219 4.18717C13.7222 4.20175 13.7196 4.21623 13.7142 4.2298C13.7089 4.24337 13.7009 4.25575 13.6908 4.26625C13.6807 4.27674 13.6686 4.28514 13.6552 4.29096C13.6419 4.29678 13.6275 4.29991 13.6129 4.30017Z" fill="#212121"/>
<path d="M13.406 5.2781C13.3967 5.24889 13.389 5.21917 13.383 5.1891C13.3628 5.10381 13.3759 5.01402 13.4198 4.93814C13.4637 4.86227 13.535 4.80607 13.619 4.7811C13.6674 4.77574 13.7164 4.78441 13.76 4.8061C13.6588 4.72077 13.5279 4.67906 13.396 4.6901C13.3345 4.69493 13.2747 4.71211 13.22 4.74059C13.1653 4.76908 13.1169 4.80829 13.0777 4.85589C13.0385 4.9035 13.0093 4.95851 12.9918 5.01764C12.9743 5.07678 12.969 5.13884 12.976 5.2001V5.2081C12.9788 5.23986 12.994 5.26924 13.0184 5.28984C13.0427 5.31044 13.0742 5.32059 13.106 5.3181L13.406 5.2781Z" fill="#212121"/>
<path d="M13.58 5.25817C13.5501 5.22011 13.5296 5.17559 13.52 5.12817C13.51 5.00817 13.57 4.89817 13.66 4.88817C13.6851 4.88534 13.7105 4.88877 13.734 4.89817C13.727 4.90636 13.7219 4.91597 13.719 4.92632C13.716 4.93667 13.7154 4.94753 13.717 4.95817C13.7183 4.97532 13.7262 4.9913 13.7391 5.00269C13.752 5.01409 13.7688 5.02 13.786 5.01917C13.7953 5.01743 13.804 5.01353 13.8114 5.0078C13.8189 5.00207 13.8249 4.99466 13.829 4.98617C13.8445 5.01484 13.855 5.04596 13.86 5.07817C13.8689 5.12577 13.8619 5.17498 13.84 5.21817L13.58 5.25817Z" fill="#212121"/>
<path d="M13.3418 6.26342C13.3326 6.28948 13.3342 6.31813 13.3461 6.34306C13.4126 6.47788 13.5298 6.58085 13.6721 6.6294C13.8143 6.67795 13.9701 6.66812 14.1051 6.60206C14.13 6.59013 14.1492 6.56878 14.1584 6.54271C14.1676 6.51664 14.166 6.48799 14.1541 6.46306C14.1422 6.43813 14.1208 6.41897 14.0947 6.40978C14.0687 6.40059 14.04 6.40213 14.0151 6.41406C13.9299 6.45641 13.8315 6.46324 13.7413 6.43305C13.6511 6.40287 13.5766 6.33813 13.5341 6.25306C13.5222 6.22813 13.5008 6.20897 13.4747 6.19978C13.4487 6.19059 13.42 6.19213 13.3951 6.20406C13.3702 6.216 13.351 6.23735 13.3418 6.26342Z" fill="#212121"/>
<path d="M19.27 28.0581C19.3649 28.0581 19.4577 28.0863 19.5367 28.139C19.6156 28.1917 19.6771 28.2667 19.7135 28.3544C19.7498 28.4421 19.7593 28.5386 19.7408 28.6317C19.7223 28.7249 19.6765 28.8104 19.6094 28.8775C19.5423 28.9446 19.4568 28.9904 19.3636 29.0089C19.2705 29.0274 19.174 29.0179 19.0863 28.9816C18.9986 28.9452 18.9236 28.8837 18.8709 28.8048C18.8182 28.7258 18.79 28.633 18.79 28.5381C18.79 28.4108 18.8406 28.2887 18.9306 28.1987C19.0206 28.1087 19.1427 28.0581 19.27 28.0581Z" fill="#212121"/>
<path d="M13.8034 26.9793C13.7047 26.9134 13.5887 26.8782 13.4701 26.8782C13.3913 26.8782 13.3133 26.8937 13.2405 26.9238C13.1677 26.954 13.1015 26.9982 13.0458 27.0539C12.9901 27.1096 12.9459 27.1758 12.9157 27.2486C12.8856 27.3214 12.8701 27.3994 12.8701 27.4782C12.8701 27.5968 12.9053 27.7128 12.9712 27.8115C13.0371 27.9102 13.1308 27.9871 13.2405 28.0325C13.3501 28.0779 13.4707 28.0898 13.5871 28.0666C13.7035 28.0435 13.8104 27.9863 13.8943 27.9024C13.9782 27.8185 14.0354 27.7116 14.0585 27.5952C14.0817 27.4788 14.0698 27.3582 14.0244 27.2486C13.979 27.1389 13.9021 27.0452 13.8034 26.9793Z" fill="#212121"/>
<path d="M7.50999 29.0181C7.24489 29.0181 7.02999 28.8032 7.02999 28.5381C7.02999 28.273 7.24489 28.0581 7.50999 28.0581C7.77509 28.0581 7.98999 28.273 7.98999 28.5381C7.98999 28.8032 7.77509 29.0181 7.50999 29.0181Z" fill="#212121"/>
<path d="M4.81068 24.9985C4.65529 25.2657 4.57233 25.5689 4.56998 25.8781C4.57002 26.1618 4.63827 26.4414 4.76897 26.6932C4.89967 26.945 5.08899 27.1617 5.32098 27.3251C5.1371 27.6576 5.03176 28.0277 5.01301 28.4072C4.99426 28.7867 5.06261 29.1655 5.21282 29.5145C5.36303 29.8635 5.59112 30.1735 5.87962 30.4207C6.16812 30.668 6.50937 30.8459 6.87725 30.941C7.24513 31.036 7.62988 31.0456 8.00203 30.9689C8.37418 30.8923 8.72387 30.7316 9.0243 30.499C9.32474 30.2664 9.56796 29.9681 9.73535 29.627C9.90273 29.2859 9.98983 28.911 9.98998 28.5311V28.4971C9.99409 28.4978 9.99816 28.4986 10.0022 28.4994C10.0199 28.5028 10.0371 28.5061 10.055 28.5061C10.2702 29.2152 10.7015 29.8394 11.2887 30.2916C11.8758 30.7437 12.5895 31.0013 13.3301 31.0283C14.0706 31.0553 14.8012 30.8503 15.4196 30.4421C16.0381 30.0338 16.5137 29.4426 16.78 28.7511C16.8128 29.1203 16.9277 29.4775 17.1162 29.7967C17.3047 30.1159 17.5621 30.389 17.8696 30.596C18.1771 30.803 18.527 30.9388 18.8936 30.9933C19.2603 31.0479 19.6345 31.0199 19.9889 30.9114C20.3434 30.8029 20.6692 30.6167 20.9425 30.3662C21.2158 30.1158 21.4297 29.8075 21.5686 29.4638C21.7076 29.1201 21.7681 28.7498 21.7456 28.3798C21.7232 28.0098 21.6184 27.6494 21.439 27.3251C21.7669 27.0972 22.0082 26.7652 22.124 26.3831C22.3877 26.4368 22.6619 26.3998 22.902 26.2781L26.085 24.7121C26.3399 24.5881 26.5485 24.3859 26.6803 24.135C26.8121 23.8841 26.8603 23.5976 26.8177 23.3174C26.7751 23.0372 26.6441 22.7779 26.4438 22.5774C26.2434 22.3769 25.9842 22.2458 25.704 22.2031L25.667 22.1971H25.63L23.53 22.0281L22.53 16.8881C22.4671 16.2848 22.1919 15.7236 21.7536 15.3043C21.3154 14.8851 20.7424 14.6351 20.137 14.5991L19.406 14.5271C19.4374 14.3345 19.4262 14.1375 19.3734 13.9497C19.3205 13.7619 19.2272 13.588 19.1 13.4401C19.0452 13.2609 18.9506 13.0965 18.8233 12.959C18.6961 12.8215 18.5394 12.7145 18.365 12.6461L17.508 12.2761C16.9709 12.0983 16.4113 11.9973 15.846 11.9761H15.754L15.319 10.1841C15.2057 9.561 14.9154 8.9837 14.483 8.52107C14.7867 8.30329 15.0296 8.01145 15.1887 7.67329C15.3479 7.33513 15.4178 6.96189 15.392 6.58907C15.5408 6.43954 15.6546 6.25879 15.725 6.0599C15.7954 5.861 15.8206 5.64894 15.799 5.43907C15.7421 5.10376 15.5607 4.80231 15.291 4.59507C15.2434 4.55487 15.198 4.51214 15.155 4.46707L15.11 4.13807C15.0726 3.86944 14.9926 3.6085 14.873 3.36507C14.9254 3.10755 14.9315 2.84273 14.891 2.58307C14.8453 2.14108 14.6346 1.73258 14.3009 1.43914C13.9673 1.1457 13.5352 0.988904 13.091 1.00007C13.006 1.00041 12.9212 1.00609 12.837 1.01707C12.4987 1.05993 12.1681 1.15014 11.855 1.28507C11.8102 1.30692 11.7623 1.32176 11.713 1.32907C11.6628 1.32867 11.6127 1.325 11.563 1.31807C11.3764 1.29201 11.1883 1.27898 11 1.27907C10.2298 1.25172 9.47638 1.50831 8.88298 2.00007C8.50519 1.78168 8.07635 1.66713 7.63998 1.66807C7.28431 1.66632 6.93251 1.7419 6.60894 1.88959C6.28538 2.03727 5.99778 2.25353 5.76608 2.52338C5.53437 2.79322 5.36409 3.11021 5.26704 3.45239C5.16998 3.79457 5.14846 4.15375 5.20398 4.50507L5.44498 6.00507C5.50928 6.38468 5.6609 6.74416 5.88789 7.05514C6.11489 7.36613 6.41104 7.62012 6.75298 7.79707C6.4937 8.07129 6.30116 8.40162 6.19034 8.76237C6.07951 9.12313 6.05338 9.50458 6.11398 9.87707L7.31398 17.2961C7.04928 17.4174 6.82492 17.612 6.66752 17.857C6.51013 18.1019 6.4263 18.3869 6.42598 18.6781V20.4081C6.42651 20.811 6.58682 21.1973 6.87176 21.4823C7.1567 21.7672 7.54301 21.9275 7.94598 21.9281H8.20398C7.99352 22.2516 7.87337 22.6255 7.85598 23.0111L5.45598 24.3541C5.18849 24.5091 4.96606 24.7312 4.81068 24.9985ZM7.76998 27.0684C7.59763 27.0346 7.42033 27.0346 7.24798 27.0685V26.6481H7.76998V27.0684ZM9.22108 15.2805C9.2918 15.2333 9.37493 15.2081 9.45998 15.2081C9.57402 15.2081 9.68339 15.2534 9.76403 15.334C9.84468 15.4147 9.88998 15.524 9.88998 15.6381C9.88998 15.7231 9.86476 15.8063 9.81751 15.877C9.77026 15.9477 9.7031 16.0028 9.62453 16.0353C9.54596 16.0679 9.4595 16.0764 9.37609 16.0598C9.29268 16.0432 9.21606 16.0023 9.15592 15.9421C9.09579 15.882 9.05483 15.8054 9.03824 15.722C9.02165 15.6385 9.03017 15.5521 9.06271 15.4735C9.09526 15.3949 9.15037 15.3278 9.22108 15.2805ZM14.6427 5.35674C14.7375 5.44011 14.7954 5.49101 14.81 5.58807C14.8104 5.69232 14.7727 5.79313 14.704 5.87156C14.6353 5.95 14.5404 6.00067 14.437 6.01407C14.423 6.01496 14.409 6.01496 14.395 6.01407C14.3791 6.01407 14.3632 6.01171 14.348 6.00707C14.466 7.00707 14.411 7.75107 13.237 7.90707C13.1289 7.92212 13.0201 7.93014 12.911 7.93107L12.901 8.62307C12.9095 8.62607 12.917 8.63082 12.9245 8.63557C12.9296 8.63878 12.9346 8.642 12.94 8.64467C12.6094 8.50466 12.2501 8.44555 11.8921 8.47231C11.5311 8.49929 11.1819 8.61274 10.874 8.80307C10.8777 8.80099 10.881 8.79735 10.8841 8.79381C10.8885 8.78885 10.8927 8.78407 10.898 8.78407L10.942 7.04407C10.938 7.05207 10.931 7.05207 10.926 7.05207C11.0052 6.97322 11.0619 6.87462 11.0902 6.76649C11.1185 6.65836 11.1174 6.54463 11.087 6.43707C11.061 6.24307 11.046 6.07407 11.039 5.92507C10.958 5.83252 10.9052 5.71869 10.887 5.59707C10.8664 5.44837 10.8998 5.29723 10.981 5.17101C11.0623 5.0448 11.1861 4.95187 11.33 4.90907C11.3609 4.8934 11.3953 4.88583 11.43 4.88707C11.43 4.88707 11.32 4.09707 12.63 3.91707C13.0523 3.91066 13.4554 3.73964 13.7535 3.44057C13.7512 3.44401 13.7507 3.44763 13.7503 3.4511C13.7499 3.4547 13.7495 3.45815 13.747 3.46107C13.9481 3.69093 14.0778 3.97454 14.12 4.27707L14.201 4.87707C14.3248 5.0521 14.4702 5.2107 14.634 5.34907L14.6427 5.35674ZM22.17 25.2881L21.63 24.1881L19.25 18.5071C19.2322 18.4602 19.2075 18.4163 19.1767 18.3767C19.179 18.381 19.1793 18.3858 19.1797 18.3905C19.18 18.3954 19.1804 18.4002 19.183 18.4041C19.138 18.3293 19.0745 18.2673 18.9987 18.2241C18.9229 18.1808 18.8373 18.1577 18.75 18.1571H18.023V17.0991C18.0216 17.01 17.9864 16.9247 17.9246 16.8605C17.8628 16.7963 17.779 16.7579 17.69 16.7531V16.7391C17.6892 16.5634 17.6326 16.3924 17.5283 16.251C17.4241 16.1095 17.2776 16.0048 17.11 15.9521V15.3091L20.04 15.5991C20.78 15.6491 21.34 16.0391 21.55 17.0891L22.7 22.9691L25.56 23.1981C25.6294 23.2081 25.6937 23.24 25.7437 23.2891C25.7937 23.3383 25.8267 23.4021 25.8378 23.4713C25.849 23.5405 25.8378 23.6115 25.8058 23.6739C25.7738 23.7362 25.7227 23.7868 25.66 23.8181L22.47 25.3881C22.4395 25.4053 22.405 25.4143 22.37 25.4141C22.3284 25.4128 22.288 25.4005 22.2528 25.3783C22.2176 25.3562 22.189 25.325 22.17 25.2881ZM15.683 18.1571H11.438L13.654 16.5271H14.154C14.3846 16.5268 14.6058 16.4351 14.7689 16.272C14.932 16.1089 15.0237 15.8877 15.024 15.6571C15.0191 15.6168 15.011 15.5771 15 15.5381L15.311 15.1741L15.315 15.1591H15.596L16.596 15.2591V15.9531C16.4284 16.0058 16.2819 16.1105 16.1776 16.252C16.0734 16.3934 16.0168 16.5644 16.016 16.7401V16.7531C15.9263 16.7564 15.8415 16.7945 15.7793 16.8593C15.7172 16.924 15.6827 17.0103 15.683 17.1001V18.1571ZM15.4067 14.8181L15.411 14.8021L14.165 14.7901H13.835L11.724 14.7701C11.4882 14.758 11.2652 14.6596 11.0974 14.4936C10.9295 14.3276 10.8287 14.1057 10.814 13.8701L10.741 12.5861L11.161 12.5591L11.561 12.5351L11.935 12.5121L12.155 12.4981L12.421 12.4801L12.621 12.4671L12.64 12.8001C12.6418 12.826 12.653 12.8503 12.6713 12.8687C12.6897 12.8871 12.7141 12.8982 12.74 12.9001L14.969 12.9521L15.826 12.9741C16.2562 12.9932 16.6825 13.0637 17.096 13.1841L17.976 13.5641C18.0514 13.5951 18.1122 13.6538 18.1456 13.7282C18.1791 13.8026 18.1828 13.887 18.156 13.9641L18.226 14.0041C18.2663 14.0202 18.3029 14.0442 18.3338 14.0746C18.3647 14.1051 18.3893 14.1413 18.4061 14.1814C18.4228 14.2214 18.4314 14.2643 18.4314 14.3077C18.4314 14.3511 18.4228 14.3941 18.406 14.4341C18.3803 14.4946 18.3375 14.5463 18.2827 14.5828C18.228 14.6192 18.1637 14.6388 18.098 14.6391C18.056 14.6392 18.0145 14.6307 17.976 14.6141C17.973 14.6676 17.9558 14.7194 17.926 14.7641C17.8955 14.8103 17.8539 14.848 17.8049 14.8737C17.756 14.8994 17.7013 14.9122 17.646 14.9111C17.598 14.911 17.5505 14.9018 17.506 14.8841L17.435 14.8531L16.926 14.6341L16.796 14.6741C16.623 14.7314 16.4443 14.7696 16.263 14.7881C16.161 14.799 16.0585 14.8043 15.956 14.8041H15.417L15.4067 14.8181ZM19.013 27.0735V26.6531H19.535V27.0735C19.3626 27.0396 19.1853 27.0396 19.013 27.0735ZM20.403 23.8411L19.033 23.0761L19.029 23.0721C19.0225 22.6675 18.9034 22.2727 18.685 21.9321H18.754C19.0219 21.9322 19.2852 21.8615 19.517 21.7271L20.403 23.8411ZM19.7573 29.2654C19.6143 29.361 19.446 29.4121 19.274 29.4121L19.27 29.4081C19.0407 29.4068 18.8212 29.3151 18.6591 29.153C18.497 28.9909 18.4053 28.7713 18.404 28.5421C18.404 28.37 18.455 28.2018 18.5506 28.0587C18.6462 27.9157 18.7821 27.8041 18.941 27.7383C19.1 27.6724 19.2749 27.6552 19.4437 27.6888C19.6125 27.7224 19.7675 27.8052 19.8892 27.9269C20.0108 28.0486 20.0937 28.2036 20.1273 28.3723C20.1608 28.5411 20.1436 28.716 20.0778 28.875C20.0119 29.034 19.9004 29.1699 19.7573 29.2654ZM14.3073 28.7193C14.0607 28.8841 13.7707 28.9721 13.474 28.9721L13.47 28.9681C13.0735 28.967 12.6936 28.8091 12.4133 28.5287C12.133 28.2484 11.975 27.8685 11.974 27.4721C11.974 27.1754 12.062 26.8854 12.2268 26.6387C12.3916 26.392 12.6259 26.1998 12.9 26.0863C13.174 25.9727 13.4756 25.943 13.7666 26.0009C14.0576 26.0588 14.3249 26.2016 14.5346 26.4114C14.7444 26.6212 14.8873 26.8885 14.9452 27.1794C15.003 27.4704 14.9733 27.772 14.8598 28.0461C14.7463 28.3202 14.554 28.5545 14.3073 28.7193ZM8.91698 23.5721L8.87398 23.2721L8.86998 23.2681C8.84773 23.1027 8.86111 22.9345 8.90923 22.7747C8.95734 22.6149 9.03907 22.4673 9.14894 22.3417C9.2588 22.2161 9.39426 22.1155 9.54622 22.0466C9.69817 21.9776 9.86312 21.942 10.03 21.9421H10.96V20.9321H15.97V21.9421H16.86C17.0314 21.942 17.2007 21.9797 17.3559 22.0524C17.5112 22.1251 17.6485 22.231 17.7582 22.3627C17.868 22.4944 17.9474 22.6486 17.9909 22.8144C18.0344 22.9802 18.0409 23.1535 18.01 23.3221L17.957 23.6221L17.418 26.6521L17.4 26.7521C17.3591 26.9714 17.2427 27.1695 17.071 27.312C16.8993 27.4545 16.6831 27.5323 16.46 27.5321H16.035V27.4821C16.035 26.8031 15.7653 26.152 15.2852 25.6719C14.8051 25.1918 14.1539 24.9221 13.475 24.9221C12.796 24.9221 12.1449 25.1918 11.6648 25.6719C11.1847 26.152 10.915 26.8031 10.915 27.4821V27.5321H10.304C10.0751 27.5306 9.85431 27.447 9.68181 27.2965C9.50932 27.146 9.39654 26.9386 9.36398 26.7121L9.35498 26.6521L8.91698 23.5721ZM8.65237 8.03131L8.65298 8.03507L8.64898 8.03107C8.65014 8.03115 8.65127 8.03123 8.65237 8.03131ZM8.65237 8.03131C8.62814 8.03011 8.5925 8.02807 8.54998 8.02807C8.35546 8.02939 8.16324 8.07021 7.98498 8.14807C7.9895 8.14601 7.99335 8.14261 7.99707 8.13931C8.00241 8.13458 8.0075 8.13007 8.01398 8.13007L7.84998 7.07207H7.88798C8.09509 7.07128 8.29965 7.02627 8.48798 6.94007L8.47698 6.94807L8.65237 8.03131ZM7.99332 29.2614C7.85025 29.357 7.68205 29.4081 7.50998 29.4081C7.27932 29.4078 7.05819 29.3161 6.89509 29.153C6.73199 28.9899 6.64024 28.7687 6.63998 28.5381C6.63998 28.366 6.691 28.1978 6.7866 28.0547C6.8822 27.9117 7.01807 27.8001 7.17704 27.7343C7.33602 27.6684 7.51094 27.6512 7.67971 27.6848C7.84847 27.7184 8.00349 27.8012 8.12516 27.9229C8.24683 28.0446 8.32969 28.1996 8.36326 28.3683C8.39683 28.5371 8.3796 28.712 8.31376 28.871C8.24791 29.03 8.13639 29.1659 7.99332 29.2614Z" fill="#212121"/>
</svg>
