<svg width="32" height="32" viewBox="0 0 32 32" fill="none" xmlns="http://www.w3.org/2000/svg">
<rect x="25.4034" y="27.2717" width="0.808594" height="1.64844" rx="0.404297" transform="rotate(-180 25.4034 27.2717)" fill="url(#paint0_linear_3987_23554)"/>
<g filter="url(#filter0_i_3987_23554)">
<rect width="0.683965" height="2.52105" rx="0.341982" transform="matrix(-0.717105 0.696965 0.696965 0.717105 25.9264 24.6072)" fill="#3F202F"/>
<rect width="0.683965" height="2.52105" rx="0.341982" transform="matrix(-0.717105 0.696965 0.696965 0.717105 25.9264 24.6072)" fill="url(#paint1_linear_3987_23554)"/>
</g>
<g filter="url(#filter1_i_3987_23554)">
<rect width="0.69885" height="2.52105" rx="0.349425" transform="matrix(-0.717105 0.696965 0.696965 0.717105 25.9713 25.0837)" fill="#3F202F"/>
<rect width="0.69885" height="2.52105" rx="0.349425" transform="matrix(-0.717105 0.696965 0.696965 0.717105 25.9713 25.0837)" fill="url(#paint2_linear_3987_23554)"/>
</g>
<g filter="url(#filter2_i_3987_23554)">
<rect width="0.736684" height="2.12086" rx="0.368342" transform="matrix(-0.717105 0.696965 0.696965 0.717105 25.7147 25.4304)" fill="#3F202F"/>
<rect width="0.736684" height="2.12086" rx="0.368342" transform="matrix(-0.717105 0.696965 0.696965 0.717105 25.7147 25.4304)" fill="url(#paint3_linear_3987_23554)"/>
</g>
<g filter="url(#filter3_i_3987_23554)">
<rect width="0.664802" height="1.58363" rx="0.332401" transform="matrix(-0.717105 0.696965 0.696965 0.717105 25.3541 25.9561)" fill="#422830"/>
</g>
<rect x="26.6324" y="25.3359" width="2.01381" height="7.06996" transform="rotate(135.816 26.6324 25.3359)" fill="url(#paint4_linear_3987_23554)"/>
<rect x="26.6324" y="25.3359" width="2.01381" height="7.06996" transform="rotate(135.816 26.6324 25.3359)" fill="url(#paint5_linear_3987_23554)"/>
<rect x="18.6549" y="20.1953" width="2.32568" height="1.78125" transform="rotate(-180 18.6549 20.1953)" fill="url(#paint6_radial_3987_23554)"/>
<rect x="13.8878" y="29.1875" width="1.12109" height="0.5625" rx="0.28125" transform="rotate(-180 13.8878 29.1875)" fill="url(#paint7_radial_3987_23554)"/>
<path d="M14.8196 29.8507C14.5236 29.8806 13.8651 29.9375 13.2394 29.9375C12.587 29.9375 12.5102 29.5924 12.5089 29.418C12.4998 29.3034 12.5652 29.05 12.8995 28.9531C13.0202 28.9182 13.1588 28.8808 13.2957 28.8452C13.3843 28.8221 13.4464 28.7424 13.4464 28.6509L13.4464 22.0234L15.4855 22.0234L15.4855 29.1516C15.4855 29.4916 15.2431 29.775 14.9216 29.8383L14.923 29.8398C14.9153 29.8407 14.9069 29.8416 14.8978 29.8426C14.8722 29.8467 14.8461 29.8495 14.8196 29.8507Z" fill="#432B2C"/>
<path d="M14.8196 29.8507C14.5236 29.8806 13.8651 29.9375 13.2394 29.9375C12.587 29.9375 12.5102 29.5924 12.5089 29.418C12.4998 29.3034 12.5652 29.05 12.8995 28.9531C13.0202 28.9182 13.1588 28.8808 13.2957 28.8452C13.3843 28.8221 13.4464 28.7424 13.4464 28.6509L13.4464 22.0234L15.4855 22.0234L15.4855 29.1516C15.4855 29.4916 15.2431 29.775 14.9216 29.8383L14.923 29.8398C14.9153 29.8407 14.9069 29.8416 14.8978 29.8426C14.8722 29.8467 14.8461 29.8495 14.8196 29.8507Z" fill="url(#paint8_radial_3987_23554)"/>
<path d="M14.8196 29.8507C14.5236 29.8806 13.8651 29.9375 13.2394 29.9375C12.587 29.9375 12.5102 29.5924 12.5089 29.418C12.4998 29.3034 12.5652 29.05 12.8995 28.9531C13.0202 28.9182 13.1588 28.8808 13.2957 28.8452C13.3843 28.8221 13.4464 28.7424 13.4464 28.6509L13.4464 22.0234L15.4855 22.0234L15.4855 29.1516C15.4855 29.4916 15.2431 29.775 14.9216 29.8383L14.923 29.8398C14.9153 29.8407 14.9069 29.8416 14.8978 29.8426C14.8722 29.8467 14.8461 29.8495 14.8196 29.8507Z" fill="url(#paint9_radial_3987_23554)"/>
<path d="M14.8196 29.8507C14.5236 29.8806 13.8651 29.9375 13.2394 29.9375C12.587 29.9375 12.5102 29.5924 12.5089 29.418C12.4998 29.3034 12.5652 29.05 12.8995 28.9531C13.0202 28.9182 13.1588 28.8808 13.2957 28.8452C13.3843 28.8221 13.4464 28.7424 13.4464 28.6509L13.4464 22.0234L15.4855 22.0234L15.4855 29.1516C15.4855 29.4916 15.2431 29.775 14.9216 29.8383L14.923 29.8398C14.9153 29.8407 14.9069 29.8416 14.8978 29.8426C14.8722 29.8467 14.8461 29.8495 14.8196 29.8507Z" fill="url(#paint10_radial_3987_23554)"/>
<path d="M14.8196 29.8507C14.5236 29.8806 13.8651 29.9375 13.2394 29.9375C12.587 29.9375 12.5102 29.5924 12.5089 29.418C12.4998 29.3034 12.5652 29.05 12.8995 28.9531C13.0202 28.9182 13.1588 28.8808 13.2957 28.8452C13.3843 28.8221 13.4464 28.7424 13.4464 28.6509L13.4464 22.0234L15.4855 22.0234L15.4855 29.1516C15.4855 29.4916 15.2431 29.775 14.9216 29.8383L14.923 29.8398C14.9153 29.8407 14.9069 29.8416 14.8978 29.8426C14.8722 29.8467 14.8461 29.8495 14.8196 29.8507Z" fill="url(#paint11_radial_3987_23554)"/>
<g filter="url(#filter4_i_3987_23554)">
<path d="M20.693 18.2055C21.219 18.8699 21.7494 19.775 21.9933 20.4844L20.4152 21.9141L18.5948 20.4844L17.7693 18.8155C17.6607 18.596 17.3492 18.592 17.235 18.8086L15.5402 22.0234L13.423 22.0234C13.5067 20.4544 13.9742 18.9933 14.3033 18.2734C14.3724 18.1222 14.4152 17.9598 14.4152 17.7935L14.4152 13.6406L20.6027 13.6406L20.6027 17.95C20.6027 18.0429 20.6353 18.1326 20.693 18.2055Z" fill="url(#paint12_radial_3987_23554)"/>
<path d="M20.693 18.2055C21.219 18.8699 21.7494 19.775 21.9933 20.4844L20.4152 21.9141L18.5948 20.4844L17.7693 18.8155C17.6607 18.596 17.3492 18.592 17.235 18.8086L15.5402 22.0234L13.423 22.0234C13.5067 20.4544 13.9742 18.9933 14.3033 18.2734C14.3724 18.1222 14.4152 17.9598 14.4152 17.7935L14.4152 13.6406L20.6027 13.6406L20.6027 17.95C20.6027 18.0429 20.6353 18.1326 20.693 18.2055Z" fill="url(#paint13_radial_3987_23554)"/>
<path d="M20.693 18.2055C21.219 18.8699 21.7494 19.775 21.9933 20.4844L20.4152 21.9141L18.5948 20.4844L17.7693 18.8155C17.6607 18.596 17.3492 18.592 17.235 18.8086L15.5402 22.0234L13.423 22.0234C13.5067 20.4544 13.9742 18.9933 14.3033 18.2734C14.3724 18.1222 14.4152 17.9598 14.4152 17.7935L14.4152 13.6406L20.6027 13.6406L20.6027 17.95C20.6027 18.0429 20.6353 18.1326 20.693 18.2055Z" fill="url(#paint14_radial_3987_23554)"/>
<path d="M20.693 18.2055C21.219 18.8699 21.7494 19.775 21.9933 20.4844L20.4152 21.9141L18.5948 20.4844L17.7693 18.8155C17.6607 18.596 17.3492 18.592 17.235 18.8086L15.5402 22.0234L13.423 22.0234C13.5067 20.4544 13.9742 18.9933 14.3033 18.2734C14.3724 18.1222 14.4152 17.9598 14.4152 17.7935L14.4152 13.6406L20.6027 13.6406L20.6027 17.95C20.6027 18.0429 20.6353 18.1326 20.693 18.2055Z" fill="url(#paint15_linear_3987_23554)"/>
<path d="M20.693 18.2055C21.219 18.8699 21.7494 19.775 21.9933 20.4844L20.4152 21.9141L18.5948 20.4844L17.7693 18.8155C17.6607 18.596 17.3492 18.592 17.235 18.8086L15.5402 22.0234L13.423 22.0234C13.5067 20.4544 13.9742 18.9933 14.3033 18.2734C14.3724 18.1222 14.4152 17.9598 14.4152 17.7935L14.4152 13.6406L20.6027 13.6406L20.6027 17.95C20.6027 18.0429 20.6353 18.1326 20.693 18.2055Z" fill="url(#paint16_radial_3987_23554)"/>
</g>
<path d="M12.7667 14.0391L5.15735 13.8984L5.78235 12.3281L12.6261 11.3437L12.7667 14.0391Z" fill="#4B3231"/>
<path d="M12.7667 14.0391L5.15735 13.8984L5.78235 12.3281L12.6261 11.3437L12.7667 14.0391Z" fill="url(#paint17_linear_3987_23554)"/>
<g filter="url(#filter5_i_3987_23554)">
<path d="M23.1183 10.5898L27.5758 4.34583L25.9407 3.59832L20.7472 8.43359L23.1183 10.5898Z" fill="#452F2C"/>
</g>
<g filter="url(#filter6_i_3987_23554)">
<path d="M27.548 4.375L25.9152 3.60156L25.9152 2.3125C25.9152 2.17443 26.0272 2.0625 26.1652 2.0625L30.1368 2.0625C30.2883 2.0625 30.4379 2.14781 30.4521 2.29866C30.4785 2.58003 30.3273 2.91963 29.8527 3.25C29.3097 3.60156 28.1534 4.09375 27.548 4.375Z" fill="#504E84"/>
<path d="M27.548 4.375L25.9152 3.60156L25.9152 2.3125C25.9152 2.17443 26.0272 2.0625 26.1652 2.0625L30.1368 2.0625C30.2883 2.0625 30.4379 2.14781 30.4521 2.29866C30.4785 2.58003 30.3273 2.91963 29.8527 3.25C29.3097 3.60156 28.1534 4.09375 27.548 4.375Z" fill="url(#paint18_radial_3987_23554)"/>
</g>
<path d="M27.548 4.375L25.9152 3.60156L25.9152 2.3125C25.9152 2.17443 26.0272 2.0625 26.1652 2.0625L30.1368 2.0625C30.2883 2.0625 30.4379 2.14781 30.4521 2.29866C30.4785 2.58003 30.3273 2.91963 29.8527 3.25C29.3097 3.60156 28.1534 4.09375 27.548 4.375Z" fill="url(#paint19_linear_3987_23554)"/>
<path d="M27.548 4.375L25.9152 3.60156L25.9152 2.3125C25.9152 2.17443 26.0272 2.0625 26.1652 2.0625L30.1368 2.0625C30.2883 2.0625 30.4379 2.14781 30.4521 2.29866C30.4785 2.58003 30.3273 2.91963 29.8527 3.25C29.3097 3.60156 28.1534 4.09375 27.548 4.375Z" fill="url(#paint20_linear_3987_23554)"/>
<g opacity="0.4" filter="url(#filter7_f_3987_23554)">
<path d="M26.5509 4.229L21.4415 10.229" stroke="#543E3E" stroke-width="0.3"/>
</g>
<path d="M4.69808 11.2939C4.8018 11.2083 4.95465 11.2201 5.04401 11.3206L5.91907 12.3046L5.18469 13.8945L4.00891 14.2304C3.70422 14.3294 2.95032 14.5327 2.37219 14.5546C1.97564 14.5696 1.73225 14.3705 1.5941 14.185C1.5022 14.0617 1.54696 13.894 1.66562 13.7961L4.69808 11.2939Z" fill="url(#paint21_linear_3987_23554)"/>
<path d="M4.69808 11.2939C4.8018 11.2083 4.95465 11.2201 5.04401 11.3206L5.91907 12.3046L5.18469 13.8945L4.00891 14.2304C3.70422 14.3294 2.95032 14.5327 2.37219 14.5546C1.97564 14.5696 1.73225 14.3705 1.5941 14.185C1.5022 14.0617 1.54696 13.894 1.66562 13.7961L4.69808 11.2939Z" fill="url(#paint22_linear_3987_23554)"/>
<path d="M4.69808 11.2939C4.8018 11.2083 4.95465 11.2201 5.04401 11.3206L5.91907 12.3046L5.18469 13.8945L4.00891 14.2304C3.70422 14.3294 2.95032 14.5327 2.37219 14.5546C1.97564 14.5696 1.73225 14.3705 1.5941 14.185C1.5022 14.0617 1.54696 13.894 1.66562 13.7961L4.69808 11.2939Z" fill="url(#paint23_radial_3987_23554)"/>
<g filter="url(#filter8_i_3987_23554)">
<path d="M20.6149 14.0635L23.1564 10.5689L20.7829 8.4011C20.6428 8.53503 20.2784 8.89259 19.942 9.25139C18.7553 10.4007 17.1762 10.681 16.1671 10.8305L12.5603 11.3257L12.5603 14.0635L20.6149 14.0635Z" fill="#A59DAE"/>
<path d="M20.6149 14.0635L23.1564 10.5689L20.7829 8.4011C20.6428 8.53503 20.2784 8.89259 19.942 9.25139C18.7553 10.4007 17.1762 10.681 16.1671 10.8305L12.5603 11.3257L12.5603 14.0635L20.6149 14.0635Z" fill="url(#paint24_linear_3987_23554)"/>
<path d="M20.6149 14.0635L23.1564 10.5689L20.7829 8.4011C20.6428 8.53503 20.2784 8.89259 19.942 9.25139C18.7553 10.4007 17.1762 10.681 16.1671 10.8305L12.5603 11.3257L12.5603 14.0635L20.6149 14.0635Z" fill="url(#paint25_linear_3987_23554)"/>
</g>
<path d="M15.4504 21.8095C15.3109 21.814 15.1802 21.8618 15.0739 21.9392L15.0739 21.5478C15.0739 21.1723 15.2954 20.8378 15.632 20.699C15.5612 20.8515 15.5124 21.0176 15.4881 21.1951L15.4504 21.8095Z" fill="url(#paint26_radial_3987_23554)"/>
<path d="M19.4947 21.8095C19.6342 21.814 19.7649 21.8618 19.8712 21.9392L19.8712 21.5478C19.8712 21.1723 19.6497 20.8378 19.313 20.699C19.3839 20.8515 19.4326 21.0176 19.457 21.1951L19.4947 21.8095Z" fill="url(#paint27_radial_3987_23554)"/>
<path d="M19.4799 21.1731C19.3728 20.3528 18.6817 19.7421 17.8634 19.7421L17.0786 19.7421C16.2603 19.7421 15.5691 20.3528 15.4621 21.1731C15.4131 21.9644 15.3637 22.7527 15.3273 23.5436C15.3317 23.8659 15.5832 24.1318 15.9009 24.1453L16.4834 24.1453C16.8806 24.1453 17.2402 24.3819 17.4035 24.7515C17.4454 24.8574 17.5469 24.9272 17.6594 24.9272L18.189 24.9272C18.9568 24.9272 19.579 24.2918 19.579 23.5076C19.579 22.7258 19.5306 21.9568 19.4799 21.1731Z" fill="url(#paint28_linear_3987_23554)"/>
<path d="M19.4799 21.1731C19.3728 20.3528 18.6817 19.7421 17.8634 19.7421L17.0786 19.7421C16.2603 19.7421 15.5691 20.3528 15.4621 21.1731C15.4131 21.9644 15.3637 22.7527 15.3273 23.5436C15.3317 23.8659 15.5832 24.1318 15.9009 24.1453L16.4834 24.1453C16.8806 24.1453 17.2402 24.3819 17.4035 24.7515C17.4454 24.8574 17.5469 24.9272 17.6594 24.9272L18.189 24.9272C18.9568 24.9272 19.579 24.2918 19.579 23.5076C19.579 22.7258 19.5306 21.9568 19.4799 21.1731Z" fill="url(#paint29_radial_3987_23554)"/>
<g filter="url(#filter9_f_3987_23554)">
<path d="M17.6393 22.5527L17.8853 21.7799C17.9273 21.6209 17.8265 21.4619 17.6836 21.4619L17.379 21.4619C17.2362 21.4619 17.1354 21.6233 17.1774 21.7799L17.3832 22.5527C17.4273 22.724 17.5931 22.724 17.6393 22.5527Z" fill="#331E24"/>
</g>
<g filter="url(#filter10_f_3987_23554)">
<path d="M17.6316 22.635L17.8528 21.8622C17.898 21.7032 17.7896 21.5442 17.6361 21.5442L17.3087 21.5442C17.1552 21.5442 17.0469 21.7056 17.092 21.8622L17.3133 22.635C17.3607 22.8062 17.5819 22.8062 17.6316 22.635Z" fill="url(#paint30_linear_3987_23554)"/>
<path d="M17.6316 22.635L17.8528 21.8622C17.898 21.7032 17.7896 21.5442 17.6361 21.5442L17.3087 21.5442C17.1552 21.5442 17.0469 21.7056 17.092 21.8622L17.3133 22.635C17.3607 22.8062 17.5819 22.8062 17.6316 22.635Z" fill="url(#paint31_radial_3987_23554)"/>
</g>
<g filter="url(#filter11_f_3987_23554)">
<path d="M17.4721 21.1176C17.6834 21.1176 17.882 21.1679 18.0489 21.2557C18.1059 21.285 18.1672 21.2202 18.1313 21.1679C17.9918 20.9545 17.7489 20.8122 17.4721 20.8122C17.1954 20.8122 16.9524 20.9545 16.813 21.1679C16.7771 21.2223 16.8384 21.285 16.8954 21.2557C17.0623 21.1679 17.2588 21.1176 17.4721 21.1176Z" stroke="url(#paint32_linear_3987_23554)" stroke-width="0.2"/>
</g>
<path d="M17.4721 21.1176C17.6834 21.1176 17.882 21.1679 18.0489 21.2557C18.1059 21.285 18.1672 21.2202 18.1313 21.1679C17.9918 20.9545 17.7489 20.8122 17.4721 20.8122C17.1954 20.8122 16.9524 20.9545 16.813 21.1679C16.7771 21.2223 16.8384 21.285 16.8954 21.2557C17.0623 21.1679 17.2588 21.1176 17.4721 21.1176Z" fill="url(#paint33_radial_3987_23554)"/>
<g filter="url(#filter12_ii_3987_23554)">
<path d="M15.4529 25.1256C15.2389 25.0512 15.0469 24.9003 14.9255 24.6839C14.7314 24.3392 14.7601 23.9268 14.9697 23.6226C15.0425 23.5144 15.0822 23.386 15.0822 23.2553L15.0822 22.7561C15.16 22.8109 15.2627 22.8515 15.3598 22.8688L15.3271 23.5437C15.3315 23.8659 15.583 24.1318 15.9008 24.1454L16.4833 24.1454C16.8804 24.1454 17.24 24.382 17.4033 24.7515C17.4452 24.8574 17.5467 24.9273 17.6593 24.9273L18.1888 24.9273C18.9566 24.9273 19.5788 24.2918 19.5788 23.5076L19.5661 22.8618C19.6717 22.8461 19.7821 22.8104 19.8656 22.751L19.8656 23.2553C19.8656 23.386 19.9053 23.5144 19.9782 23.6226C20.1767 23.9178 20.212 24.3144 20.0377 24.6501C19.9164 24.8822 19.72 25.0445 19.4972 25.1233C19.2589 25.209 19.0559 25.3712 18.9213 25.5898C18.7492 25.867 18.4469 26.0518 18.1005 26.0518C17.9659 26.0518 17.838 26.0225 17.7188 25.9729C17.56 25.903 17.3812 25.903 17.2224 25.9729C17.1055 26.0225 16.9775 26.0518 16.8429 26.0518C16.4921 26.0518 16.1854 25.8602 16.0155 25.5763C15.8875 25.3622 15.6867 25.2067 15.4529 25.1256Z" fill="url(#paint34_linear_3987_23554)"/>
<path d="M15.4529 25.1256C15.2389 25.0512 15.0469 24.9003 14.9255 24.6839C14.7314 24.3392 14.7601 23.9268 14.9697 23.6226C15.0425 23.5144 15.0822 23.386 15.0822 23.2553L15.0822 22.7561C15.16 22.8109 15.2627 22.8515 15.3598 22.8688L15.3271 23.5437C15.3315 23.8659 15.583 24.1318 15.9008 24.1454L16.4833 24.1454C16.8804 24.1454 17.24 24.382 17.4033 24.7515C17.4452 24.8574 17.5467 24.9273 17.6593 24.9273L18.1888 24.9273C18.9566 24.9273 19.5788 24.2918 19.5788 23.5076L19.5661 22.8618C19.6717 22.8461 19.7821 22.8104 19.8656 22.751L19.8656 23.2553C19.8656 23.386 19.9053 23.5144 19.9782 23.6226C20.1767 23.9178 20.212 24.3144 20.0377 24.6501C19.9164 24.8822 19.72 25.0445 19.4972 25.1233C19.2589 25.209 19.0559 25.3712 18.9213 25.5898C18.7492 25.867 18.4469 26.0518 18.1005 26.0518C17.9659 26.0518 17.838 26.0225 17.7188 25.9729C17.56 25.903 17.3812 25.903 17.2224 25.9729C17.1055 26.0225 16.9775 26.0518 16.8429 26.0518C16.4921 26.0518 16.1854 25.8602 16.0155 25.5763C15.8875 25.3622 15.6867 25.2067 15.4529 25.1256Z" fill="url(#paint35_radial_3987_23554)"/>
<path d="M15.4529 25.1256C15.2389 25.0512 15.0469 24.9003 14.9255 24.6839C14.7314 24.3392 14.7601 23.9268 14.9697 23.6226C15.0425 23.5144 15.0822 23.386 15.0822 23.2553L15.0822 22.7561C15.16 22.8109 15.2627 22.8515 15.3598 22.8688L15.3271 23.5437C15.3315 23.8659 15.583 24.1318 15.9008 24.1454L16.4833 24.1454C16.8804 24.1454 17.24 24.382 17.4033 24.7515C17.4452 24.8574 17.5467 24.9273 17.6593 24.9273L18.1888 24.9273C18.9566 24.9273 19.5788 24.2918 19.5788 23.5076L19.5661 22.8618C19.6717 22.8461 19.7821 22.8104 19.8656 22.751L19.8656 23.2553C19.8656 23.386 19.9053 23.5144 19.9782 23.6226C20.1767 23.9178 20.212 24.3144 20.0377 24.6501C19.9164 24.8822 19.72 25.0445 19.4972 25.1233C19.2589 25.209 19.0559 25.3712 18.9213 25.5898C18.7492 25.867 18.4469 26.0518 18.1005 26.0518C17.9659 26.0518 17.838 26.0225 17.7188 25.9729C17.56 25.903 17.3812 25.903 17.2224 25.9729C17.1055 26.0225 16.9775 26.0518 16.8429 26.0518C16.4921 26.0518 16.1854 25.8602 16.0155 25.5763C15.8875 25.3622 15.6867 25.2067 15.4529 25.1256Z" fill="url(#paint36_radial_3987_23554)"/>
<path d="M15.4529 25.1256C15.2389 25.0512 15.0469 24.9003 14.9255 24.6839C14.7314 24.3392 14.7601 23.9268 14.9697 23.6226C15.0425 23.5144 15.0822 23.386 15.0822 23.2553L15.0822 22.7561C15.16 22.8109 15.2627 22.8515 15.3598 22.8688L15.3271 23.5437C15.3315 23.8659 15.583 24.1318 15.9008 24.1454L16.4833 24.1454C16.8804 24.1454 17.24 24.382 17.4033 24.7515C17.4452 24.8574 17.5467 24.9273 17.6593 24.9273L18.1888 24.9273C18.9566 24.9273 19.5788 24.2918 19.5788 23.5076L19.5661 22.8618C19.6717 22.8461 19.7821 22.8104 19.8656 22.751L19.8656 23.2553C19.8656 23.386 19.9053 23.5144 19.9782 23.6226C20.1767 23.9178 20.212 24.3144 20.0377 24.6501C19.9164 24.8822 19.72 25.0445 19.4972 25.1233C19.2589 25.209 19.0559 25.3712 18.9213 25.5898C18.7492 25.867 18.4469 26.0518 18.1005 26.0518C17.9659 26.0518 17.838 26.0225 17.7188 25.9729C17.56 25.903 17.3812 25.903 17.2224 25.9729C17.1055 26.0225 16.9775 26.0518 16.8429 26.0518C16.4921 26.0518 16.1854 25.8602 16.0155 25.5763C15.8875 25.3622 15.6867 25.2067 15.4529 25.1256Z" fill="url(#paint37_radial_3987_23554)"/>
<path d="M15.4529 25.1256C15.2389 25.0512 15.0469 24.9003 14.9255 24.6839C14.7314 24.3392 14.7601 23.9268 14.9697 23.6226C15.0425 23.5144 15.0822 23.386 15.0822 23.2553L15.0822 22.7561C15.16 22.8109 15.2627 22.8515 15.3598 22.8688L15.3271 23.5437C15.3315 23.8659 15.583 24.1318 15.9008 24.1454L16.4833 24.1454C16.8804 24.1454 17.24 24.382 17.4033 24.7515C17.4452 24.8574 17.5467 24.9273 17.6593 24.9273L18.1888 24.9273C18.9566 24.9273 19.5788 24.2918 19.5788 23.5076L19.5661 22.8618C19.6717 22.8461 19.7821 22.8104 19.8656 22.751L19.8656 23.2553C19.8656 23.386 19.9053 23.5144 19.9782 23.6226C20.1767 23.9178 20.212 24.3144 20.0377 24.6501C19.9164 24.8822 19.72 25.0445 19.4972 25.1233C19.2589 25.209 19.0559 25.3712 18.9213 25.5898C18.7492 25.867 18.4469 26.0518 18.1005 26.0518C17.9659 26.0518 17.838 26.0225 17.7188 25.9729C17.56 25.903 17.3812 25.903 17.2224 25.9729C17.1055 26.0225 16.9775 26.0518 16.8429 26.0518C16.4921 26.0518 16.1854 25.8602 16.0155 25.5763C15.8875 25.3622 15.6867 25.2067 15.4529 25.1256Z" fill="url(#paint38_radial_3987_23554)"/>
</g>
<g filter="url(#filter13_i_3987_23554)">
<path d="M15.919 23.5865C15.992 23.6506 16.0768 23.7186 16.2052 23.7594C16.3319 23.7997 16.4905 23.8105 16.71 23.7834C16.7732 23.7756 16.8183 23.7174 16.8105 23.6535C16.8028 23.5896 16.7452 23.5441 16.6819 23.5519C16.4816 23.5767 16.3589 23.5638 16.2746 23.537C16.192 23.5108 16.1362 23.4682 16.0707 23.4106C16.0226 23.3683 15.9497 23.3734 15.9078 23.422C15.8659 23.4705 15.8709 23.5442 15.919 23.5865Z" fill="#202020"/>
</g>
<g filter="url(#filter14_i_3987_23554)">
<path d="M18.8915 23.6324C18.854 23.6551 18.8 23.6841 18.7318 23.7112C18.5955 23.7653 18.4007 23.8123 18.1676 23.7835C18.1043 23.7757 18.0593 23.7175 18.067 23.6536C18.0748 23.5897 18.1324 23.5442 18.1956 23.552C18.3823 23.5751 18.538 23.5375 18.6473 23.4941C18.702 23.4724 18.7446 23.4494 18.7729 23.4323C18.7871 23.4238 18.7976 23.4167 18.8042 23.4121L18.8111 23.4072L18.8122 23.4063C18.8625 23.3671 18.9348 23.3764 18.9738 23.4271C19.013 23.4779 19.0039 23.5511 18.9536 23.5907L18.8915 23.6324Z" fill="#202020"/>
</g>
<g filter="url(#filter15_f_3987_23554)">
<path d="M17.3475 24.7836C17.3572 24.8024 17.3664 24.8215 17.375 24.8411C17.4169 24.947 17.6592 24.9526 17.7717 24.9526L18.3013 24.9526C19.0691 24.9526 19.6913 24.3171 19.6913 23.5329L19.6913 23.4173C19.8327 23.526 20.0106 23.7553 20.0106 24.1264C20.0106 24.5767 19.6854 24.8044 19.478 24.9496C19.4194 24.9905 19.3702 25.025 19.3404 25.056C19.3277 25.0691 19.314 25.0839 19.2989 25.1C19.1535 25.2557 18.8945 25.5332 18.4421 25.6545C18.3492 25.6794 18.2558 25.6964 18.1653 25.7074C17.7536 25.7575 17.4372 25.4191 17.3732 25.0094L17.3387 24.7892L17.3475 24.7836Z" fill="#241026"/>
<path d="M17.3475 24.7836C17.3572 24.8024 17.3664 24.8215 17.375 24.8411C17.4169 24.947 17.6592 24.9526 17.7717 24.9526L18.3013 24.9526C19.0691 24.9526 19.6913 24.3171 19.6913 23.5329L19.6913 23.4173C19.8327 23.526 20.0106 23.7553 20.0106 24.1264C20.0106 24.5767 19.6854 24.8044 19.478 24.9496C19.4194 24.9905 19.3702 25.025 19.3404 25.056C19.3277 25.0691 19.314 25.0839 19.2989 25.1C19.1535 25.2557 18.8945 25.5332 18.4421 25.6545C18.3492 25.6794 18.2558 25.6964 18.1653 25.7074C17.7536 25.7575 17.4372 25.4191 17.3732 25.0094L17.3387 24.7892L17.3475 24.7836Z" fill="url(#paint39_radial_3987_23554)"/>
</g>
<g filter="url(#filter16_f_3987_23554)">
<path d="M15.3041 23.3216L15.3162 23.5868C15.3206 23.9075 15.5831 24.1722 15.9008 24.1857L16.4833 24.1857C16.8531 24.1857 17.1903 24.3898 17.3668 24.7149V24.7149C17.3668 24.7149 17.0631 25.5884 16.5619 25.4734C16.2011 25.3907 15.8159 25.2613 15.5208 25.0669C14.795 24.5888 14.9221 23.7273 15.3041 23.3216Z" fill="#1F151B"/>
<path d="M15.3041 23.3216L15.3162 23.5868C15.3206 23.9075 15.5831 24.1722 15.9008 24.1857L16.4833 24.1857C16.8531 24.1857 17.1903 24.3898 17.3668 24.7149V24.7149C17.3668 24.7149 17.0631 25.5884 16.5619 25.4734C16.2011 25.3907 15.8159 25.2613 15.5208 25.0669C14.795 24.5888 14.9221 23.7273 15.3041 23.3216Z" fill="url(#paint40_radial_3987_23554)"/>
<path d="M15.3041 23.3216L15.3162 23.5868C15.3206 23.9075 15.5831 24.1722 15.9008 24.1857L16.4833 24.1857C16.8531 24.1857 17.1903 24.3898 17.3668 24.7149V24.7149C17.3668 24.7149 17.0631 25.5884 16.5619 25.4734C16.2011 25.3907 15.8159 25.2613 15.5208 25.0669C14.795 24.5888 14.9221 23.7273 15.3041 23.3216Z" fill="url(#paint41_radial_3987_23554)"/>
</g>
<path d="M16.4776 23.0342C16.2057 23.0342 15.976 22.8449 15.9135 22.5891C15.895 22.5157 15.9507 22.4458 16.025 22.4458L16.9538 22.4458C17.0129 22.4458 17.0602 22.5004 17.0483 22.5601C16.996 22.8295 16.7613 23.0342 16.4776 23.0342Z" fill="white"/>
<path d="M16.5642 22.9202C16.3584 22.9202 16.1931 22.7515 16.1931 22.5454C16.1931 22.5114 16.1982 22.4773 16.2066 22.4466L16.9234 22.4466C16.9318 22.479 16.9369 22.5114 16.9369 22.5454C16.9369 22.7515 16.7699 22.9202 16.5642 22.9202Z" fill="url(#paint42_radial_3987_23554)"/>
<path d="M16.7765 22.5451C16.7765 22.6644 16.682 22.7598 16.564 22.7598C16.4459 22.7598 16.3515 22.6644 16.3515 22.5451C16.3515 22.5094 16.3599 22.4753 16.3751 22.4464L16.7512 22.4464C16.7681 22.4753 16.7765 22.5094 16.7765 22.5451Z" fill="black"/>
<g filter="url(#filter17_f_3987_23554)">
<path d="M16.5911 22.8409C16.5646 22.8052 16.6199 22.7616 16.6829 22.7141C16.7458 22.6666 16.7924 22.6332 16.8189 22.6689C16.8454 22.7047 16.8158 22.7721 16.7529 22.8196C16.69 22.8671 16.6176 22.8767 16.5911 22.8409Z" fill="#C7A7A3"/>
<path d="M16.5911 22.8409C16.5646 22.8052 16.6199 22.7616 16.6829 22.7141C16.7458 22.6666 16.7924 22.6332 16.8189 22.6689C16.8454 22.7047 16.8158 22.7721 16.7529 22.8196C16.69 22.8671 16.6176 22.8767 16.5911 22.8409Z" fill="url(#paint43_radial_3987_23554)"/>
</g>
<g filter="url(#filter18_f_3987_23554)">
<path d="M16.2339 22.595C16.2476 22.6917 16.3036 22.7645 16.3298 22.7888L16.4376 22.6694L16.389 22.5738L16.2339 22.595Z" fill="url(#paint44_linear_3987_23554)"/>
</g>
<path d="M18.4669 23.0342C18.7388 23.0342 18.9685 22.8449 19.0309 22.589C19.0495 22.5157 18.9938 22.4458 18.9195 22.4458L17.9907 22.4458C17.9315 22.4458 17.8843 22.5003 17.8961 22.56C17.9484 22.8295 18.1849 23.0342 18.4669 23.0342Z" fill="white"/>
<path d="M18.3813 22.9202C18.587 22.9202 18.7523 22.7515 18.7523 22.5454C18.7523 22.5113 18.7473 22.4773 18.7388 22.4466L18.022 22.4466C18.0136 22.479 18.0085 22.5113 18.0085 22.5454C18.0102 22.7515 18.1755 22.9202 18.3813 22.9202Z" fill="url(#paint45_radial_3987_23554)"/>
<path d="M18.1688 22.5454C18.1688 22.6646 18.2633 22.76 18.3814 22.76C18.4994 22.76 18.5939 22.6646 18.5939 22.5454C18.5939 22.5096 18.5854 22.4755 18.5703 22.4466L18.1941 22.4466C18.179 22.4755 18.1688 22.5096 18.1688 22.5454Z" fill="black"/>
<g filter="url(#filter19_f_3987_23554)">
<path d="M18.0428 22.59C18.0428 22.7108 18.1401 22.7913 18.1664 22.8157L18.286 22.6989L18.2124 22.5475L18.0428 22.59Z" fill="url(#paint46_linear_3987_23554)"/>
</g>
<g filter="url(#filter20_f_3987_23554)">
<ellipse rx="0.162548" ry="0.0827217" transform="matrix(-0.881726 0.471762 -0.464541 -0.885551 18.4929 22.7598)" fill="#C7A7A3" fill-opacity="0.9"/>
<ellipse rx="0.162548" ry="0.0827217" transform="matrix(-0.881726 0.471762 -0.464541 -0.885551 18.4929 22.7598)" fill="url(#paint47_radial_3987_23554)"/>
</g>
<path d="M15.4252 21.7704C15.3978 22.2178 15.3714 22.6647 15.3483 23.1121C15.0338 23.0565 14.7947 22.7793 14.7947 22.4457C14.7947 22.0855 15.0736 21.791 15.4252 21.7704Z" fill="url(#paint48_radial_3987_23554)"/>
<path d="M19.5746 23.1157C19.8998 23.0694 20.15 22.7872 20.15 22.4459C20.15 22.0847 19.8698 21.7897 19.5169 21.7704C19.5438 22.2197 19.5659 22.6663 19.5746 23.1157Z" fill="#452E32"/>
<path d="M19.5746 23.1157C19.8998 23.0694 20.15 22.7872 20.15 22.4459C20.15 22.0847 19.8698 21.7897 19.5169 21.7704C19.5438 22.2197 19.5659 22.6663 19.5746 23.1157Z" fill="url(#paint49_radial_3987_23554)"/>
<g filter="url(#filter21_f_3987_23554)">
<path d="M15.4161 22.047C15.4001 22.3134 15.3846 22.5798 15.3701 22.8462C15.1742 22.8215 15.0226 22.6527 15.0226 22.4481C15.0226 22.2278 15.1985 22.049 15.4161 22.047Z" fill="#2E191E"/>
</g>
<g filter="url(#filter22_f_3987_23554)">
<path d="M18.8759 23.515C18.769 23.5924 18.5027 23.7286 18.1877 23.6751" stroke="#353535" stroke-width="0.1" stroke-linecap="round"/>
</g>
<g filter="url(#filter23_f_3987_23554)">
<path d="M15.9913 23.5343C16.0982 23.6117 16.3645 23.7479 16.6795 23.6944" stroke="#353535" stroke-width="0.1" stroke-linecap="round"/>
</g>
<g filter="url(#filter24_f_3987_23554)">
<path d="M19.5884 22.8381C19.7658 22.798 19.8983 22.638 19.8983 22.4467C19.8983 22.2431 19.7482 22.075 19.5537 22.049C19.5681 22.3122 19.5803 22.5749 19.5884 22.8381Z" fill="#432E2E"/>
</g>
<defs>
<filter id="filter0_i_3987_23554" x="25.4775" y="24.7488" width="2.06435" height="2.20134" filterUnits="userSpaceOnUse" color-interpolation-filters="sRGB">
<feFlood flood-opacity="0" result="BackgroundImageFix"/>
<feBlend mode="normal" in="SourceGraphic" in2="BackgroundImageFix" result="shape"/>
<feColorMatrix in="SourceAlpha" type="matrix" values="0 0 0 0 0 0 0 0 0 0 0 0 0 0 0 0 0 0 127 0" result="hardAlpha"/>
<feOffset dx="-0.1" dy="0.2"/>
<feGaussianBlur stdDeviation="0.15"/>
<feComposite in2="hardAlpha" operator="arithmetic" k2="-1" k3="1"/>
<feColorMatrix type="matrix" values="0 0 0 0 0.376471 0 0 0 0 0.301961 0 0 0 0 0.298039 0 0 0 1 0"/>
<feBlend mode="normal" in2="shape" result="effect1_innerShadow_3987_23554"/>
</filter>
<filter id="filter1_i_3987_23554" x="25.5149" y="25.2284" width="2.06886" height="2.20562" filterUnits="userSpaceOnUse" color-interpolation-filters="sRGB">
<feFlood flood-opacity="0" result="BackgroundImageFix"/>
<feBlend mode="normal" in="SourceGraphic" in2="BackgroundImageFix" result="shape"/>
<feColorMatrix in="SourceAlpha" type="matrix" values="0 0 0 0 0 0 0 0 0 0 0 0 0 0 0 0 0 0 127 0" result="hardAlpha"/>
<feOffset dx="-0.1" dy="0.2"/>
<feGaussianBlur stdDeviation="0.15"/>
<feComposite in2="hardAlpha" operator="arithmetic" k2="-1" k3="1"/>
<feColorMatrix type="matrix" values="0 0 0 0 0.376471 0 0 0 0 0.301961 0 0 0 0 0.298039 0 0 0 1 0"/>
<feBlend mode="normal" in2="shape" result="effect1_innerShadow_3987_23554"/>
</filter>
<filter id="filter2_i_3987_23554" x="25.239" y="25.5829" width="1.80141" height="1.92937" filterUnits="userSpaceOnUse" color-interpolation-filters="sRGB">
<feFlood flood-opacity="0" result="BackgroundImageFix"/>
<feBlend mode="normal" in="SourceGraphic" in2="BackgroundImageFix" result="shape"/>
<feColorMatrix in="SourceAlpha" type="matrix" values="0 0 0 0 0 0 0 0 0 0 0 0 0 0 0 0 0 0 127 0" result="hardAlpha"/>
<feOffset dx="-0.1" dy="0.2"/>
<feGaussianBlur stdDeviation="0.15"/>
<feComposite in2="hardAlpha" operator="arithmetic" k2="-1" k3="1"/>
<feColorMatrix type="matrix" values="0 0 0 0 0.376471 0 0 0 0 0.301961 0 0 0 0 0.298039 0 0 0 1 0"/>
<feBlend mode="normal" in2="shape" result="effect1_innerShadow_3987_23554"/>
</filter>
<filter id="filter3_i_3987_23554" x="24.915" y="26.0938" width="1.4052" height="1.52361" filterUnits="userSpaceOnUse" color-interpolation-filters="sRGB">
<feFlood flood-opacity="0" result="BackgroundImageFix"/>
<feBlend mode="normal" in="SourceGraphic" in2="BackgroundImageFix" result="shape"/>
<feColorMatrix in="SourceAlpha" type="matrix" values="0 0 0 0 0 0 0 0 0 0 0 0 0 0 0 0 0 0 127 0" result="hardAlpha"/>
<feOffset dx="-0.1" dy="0.2"/>
<feGaussianBlur stdDeviation="0.2"/>
<feComposite in2="hardAlpha" operator="arithmetic" k2="-1" k3="1"/>
<feColorMatrix type="matrix" values="0 0 0 0 0.4 0 0 0 0 0.341176 0 0 0 0 0.333333 0 0 0 1 0"/>
<feBlend mode="normal" in2="shape" result="effect1_innerShadow_3987_23554"/>
</filter>
<filter id="filter4_i_3987_23554" x="13.223" y="13.6406" width="8.77031" height="8.38281" filterUnits="userSpaceOnUse" color-interpolation-filters="sRGB">
<feFlood flood-opacity="0" result="BackgroundImageFix"/>
<feBlend mode="normal" in="SourceGraphic" in2="BackgroundImageFix" result="shape"/>
<feColorMatrix in="SourceAlpha" type="matrix" values="0 0 0 0 0 0 0 0 0 0 0 0 0 0 0 0 0 0 127 0" result="hardAlpha"/>
<feOffset dx="-0.2"/>
<feGaussianBlur stdDeviation="0.3"/>
<feComposite in2="hardAlpha" operator="arithmetic" k2="-1" k3="1"/>
<feColorMatrix type="matrix" values="0 0 0 0 0.92549 0 0 0 0 0.529412 0 0 0 0 0.329412 0 0 0 1 0"/>
<feBlend mode="normal" in2="shape" result="effect1_innerShadow_3987_23554"/>
</filter>
<filter id="filter5_i_3987_23554" x="20.7472" y="3.34827" width="6.82861" height="7.24158" filterUnits="userSpaceOnUse" color-interpolation-filters="sRGB">
<feFlood flood-opacity="0" result="BackgroundImageFix"/>
<feBlend mode="normal" in="SourceGraphic" in2="BackgroundImageFix" result="shape"/>
<feColorMatrix in="SourceAlpha" type="matrix" values="0 0 0 0 0 0 0 0 0 0 0 0 0 0 0 0 0 0 127 0" result="hardAlpha"/>
<feOffset dy="-0.25"/>
<feGaussianBlur stdDeviation="0.5"/>
<feComposite in2="hardAlpha" operator="arithmetic" k2="-1" k3="1"/>
<feColorMatrix type="matrix" values="0 0 0 0 0.286275 0 0 0 0 0.196078 0 0 0 0 0.196078 0 0 0 1 0"/>
<feBlend mode="normal" in2="shape" result="effect1_innerShadow_3987_23554"/>
</filter>
<filter id="filter6_i_3987_23554" x="25.6652" y="2.0625" width="4.78973" height="2.8125" filterUnits="userSpaceOnUse" color-interpolation-filters="sRGB">
<feFlood flood-opacity="0" result="BackgroundImageFix"/>
<feBlend mode="normal" in="SourceGraphic" in2="BackgroundImageFix" result="shape"/>
<feColorMatrix in="SourceAlpha" type="matrix" values="0 0 0 0 0 0 0 0 0 0 0 0 0 0 0 0 0 0 127 0" result="hardAlpha"/>
<feOffset dx="-0.25" dy="0.5"/>
<feGaussianBlur stdDeviation="0.5"/>
<feComposite in2="hardAlpha" operator="arithmetic" k2="-1" k3="1"/>
<feColorMatrix type="matrix" values="0 0 0 0 0 0 0 0 0 0 0 0 0 0 0 0 0 0 0.25 0"/>
<feBlend mode="normal" in2="shape" result="effect1_innerShadow_3987_23554"/>
</filter>
<filter id="filter7_f_3987_23554" x="21.1773" y="3.98171" width="5.63778" height="6.49458" filterUnits="userSpaceOnUse" color-interpolation-filters="sRGB">
<feFlood flood-opacity="0" result="BackgroundImageFix"/>
<feBlend mode="normal" in="SourceGraphic" in2="BackgroundImageFix" result="shape"/>
<feGaussianBlur stdDeviation="0.075" result="effect1_foregroundBlur_3987_23554"/>
</filter>
<filter id="filter8_i_3987_23554" x="12.5603" y="8.40112" width="10.596" height="6.16235" filterUnits="userSpaceOnUse" color-interpolation-filters="sRGB">
<feFlood flood-opacity="0" result="BackgroundImageFix"/>
<feBlend mode="normal" in="SourceGraphic" in2="BackgroundImageFix" result="shape"/>
<feColorMatrix in="SourceAlpha" type="matrix" values="0 0 0 0 0 0 0 0 0 0 0 0 0 0 0 0 0 0 127 0" result="hardAlpha"/>
<feOffset dy="0.5"/>
<feGaussianBlur stdDeviation="0.5"/>
<feComposite in2="hardAlpha" operator="arithmetic" k2="-1" k3="1"/>
<feColorMatrix type="matrix" values="0 0 0 0 0.552941 0 0 0 0 0.552941 0 0 0 0 0.552941 0 0 0 1 0"/>
<feBlend mode="normal" in2="shape" result="effect1_innerShadow_3987_23554"/>
</filter>
<filter id="filter9_f_3987_23554" x="16.1678" y="20.4619" width="2.72713" height="3.21924" filterUnits="userSpaceOnUse" color-interpolation-filters="sRGB">
<feFlood flood-opacity="0" result="BackgroundImageFix"/>
<feBlend mode="normal" in="SourceGraphic" in2="BackgroundImageFix" result="shape"/>
<feGaussianBlur stdDeviation="0.5" result="effect1_foregroundBlur_3987_23554"/>
</filter>
<filter id="filter10_f_3987_23554" x="16.9817" y="21.4442" width="0.981479" height="1.41924" filterUnits="userSpaceOnUse" color-interpolation-filters="sRGB">
<feFlood flood-opacity="0" result="BackgroundImageFix"/>
<feBlend mode="normal" in="SourceGraphic" in2="BackgroundImageFix" result="shape"/>
<feGaussianBlur stdDeviation="0.05" result="effect1_foregroundBlur_3987_23554"/>
</filter>
<filter id="filter11_f_3987_23554" x="16.6022" y="20.6122" width="1.73985" height="0.851123" filterUnits="userSpaceOnUse" color-interpolation-filters="sRGB">
<feFlood flood-opacity="0" result="BackgroundImageFix"/>
<feBlend mode="normal" in="SourceGraphic" in2="BackgroundImageFix" result="shape"/>
<feGaussianBlur stdDeviation="0.05" result="effect1_foregroundBlur_3987_23554"/>
</filter>
<filter id="filter12_ii_3987_23554" x="14.795" y="22.251" width="5.35506" height="3.80078" filterUnits="userSpaceOnUse" color-interpolation-filters="sRGB">
<feFlood flood-opacity="0" result="BackgroundImageFix"/>
<feBlend mode="normal" in="SourceGraphic" in2="BackgroundImageFix" result="shape"/>
<feColorMatrix in="SourceAlpha" type="matrix" values="0 0 0 0 0 0 0 0 0 0 0 0 0 0 0 0 0 0 127 0" result="hardAlpha"/>
<feOffset dy="-0.5"/>
<feGaussianBlur stdDeviation="0.625"/>
<feComposite in2="hardAlpha" operator="arithmetic" k2="-1" k3="1"/>
<feColorMatrix type="matrix" values="0 0 0 0 0.137255 0 0 0 0 0.0901961 0 0 0 0 0.145098 0 0 0 1 0"/>
<feBlend mode="normal" in2="shape" result="effect1_innerShadow_3987_23554"/>
<feColorMatrix in="SourceAlpha" type="matrix" values="0 0 0 0 0 0 0 0 0 0 0 0 0 0 0 0 0 0 127 0" result="hardAlpha"/>
<feOffset dy="-0.2"/>
<feGaussianBlur stdDeviation="0.2"/>
<feComposite in2="hardAlpha" operator="arithmetic" k2="-1" k3="1"/>
<feColorMatrix type="matrix" values="0 0 0 0 0.0784314 0 0 0 0 0.0352941 0 0 0 0 0.0470588 0 0 0 1 0"/>
<feBlend mode="normal" in2="effect1_innerShadow_3987_23554" result="effect2_innerShadow_3987_23554"/>
</filter>
<filter id="filter13_i_3987_23554" x="15.8794" y="23.182" width="1.032" height="0.616382" filterUnits="userSpaceOnUse" color-interpolation-filters="sRGB">
<feFlood flood-opacity="0" result="BackgroundImageFix"/>
<feBlend mode="normal" in="SourceGraphic" in2="BackgroundImageFix" result="shape"/>
<feColorMatrix in="SourceAlpha" type="matrix" values="0 0 0 0 0 0 0 0 0 0 0 0 0 0 0 0 0 0 127 0" result="hardAlpha"/>
<feOffset dx="0.1" dy="-0.2"/>
<feGaussianBlur stdDeviation="0.125"/>
<feComposite in2="hardAlpha" operator="arithmetic" k2="-1" k3="1"/>
<feColorMatrix type="matrix" values="0 0 0 0 0.0588235 0 0 0 0 0.054902 0 0 0 0 0.0588235 0 0 0 1 0"/>
<feBlend mode="normal" in2="shape" result="effect1_innerShadow_3987_23554"/>
</filter>
<filter id="filter14_i_3987_23554" x="18.0662" y="23.1821" width="1.03201" height="0.610156" filterUnits="userSpaceOnUse" color-interpolation-filters="sRGB">
<feFlood flood-opacity="0" result="BackgroundImageFix"/>
<feBlend mode="normal" in="SourceGraphic" in2="BackgroundImageFix" result="shape"/>
<feColorMatrix in="SourceAlpha" type="matrix" values="0 0 0 0 0 0 0 0 0 0 0 0 0 0 0 0 0 0 127 0" result="hardAlpha"/>
<feOffset dx="0.1" dy="-0.2"/>
<feGaussianBlur stdDeviation="0.125"/>
<feComposite in2="hardAlpha" operator="arithmetic" k2="-1" k3="1"/>
<feColorMatrix type="matrix" values="0 0 0 0 0.0588235 0 0 0 0 0.054902 0 0 0 0 0.0588235 0 0 0 1 0"/>
<feBlend mode="normal" in2="shape" result="effect1_innerShadow_3987_23554"/>
</filter>
<filter id="filter15_f_3987_23554" x="17.2387" y="23.3174" width="2.87188" height="2.49504" filterUnits="userSpaceOnUse" color-interpolation-filters="sRGB">
<feFlood flood-opacity="0" result="BackgroundImageFix"/>
<feBlend mode="normal" in="SourceGraphic" in2="BackgroundImageFix" result="shape"/>
<feGaussianBlur stdDeviation="0.05" result="effect1_foregroundBlur_3987_23554"/>
</filter>
<filter id="filter16_f_3987_23554" x="14.8963" y="23.2217" width="2.57051" height="2.36223" filterUnits="userSpaceOnUse" color-interpolation-filters="sRGB">
<feFlood flood-opacity="0" result="BackgroundImageFix"/>
<feBlend mode="normal" in="SourceGraphic" in2="BackgroundImageFix" result="shape"/>
<feGaussianBlur stdDeviation="0.05" result="effect1_foregroundBlur_3987_23554"/>
</filter>
<filter id="filter17_f_3987_23554" x="16.4843" y="22.5539" width="0.444286" height="0.408618" filterUnits="userSpaceOnUse" color-interpolation-filters="sRGB">
<feFlood flood-opacity="0" result="BackgroundImageFix"/>
<feBlend mode="normal" in="SourceGraphic" in2="BackgroundImageFix" result="shape"/>
<feGaussianBlur stdDeviation="0.05" result="effect1_foregroundBlur_3987_23554"/>
</filter>
<filter id="filter18_f_3987_23554" x="16.0339" y="22.3737" width="0.60372" height="0.615088" filterUnits="userSpaceOnUse" color-interpolation-filters="sRGB">
<feFlood flood-opacity="0" result="BackgroundImageFix"/>
<feBlend mode="normal" in="SourceGraphic" in2="BackgroundImageFix" result="shape"/>
<feGaussianBlur stdDeviation="0.1" result="effect1_foregroundBlur_3987_23554"/>
</filter>
<filter id="filter19_f_3987_23554" x="17.8428" y="22.3475" width="0.643164" height="0.668188" filterUnits="userSpaceOnUse" color-interpolation-filters="sRGB">
<feFlood flood-opacity="0" result="BackgroundImageFix"/>
<feBlend mode="normal" in="SourceGraphic" in2="BackgroundImageFix" result="shape"/>
<feGaussianBlur stdDeviation="0.1" result="effect1_foregroundBlur_3987_23554"/>
</filter>
<filter id="filter20_f_3987_23554" x="18.2445" y="22.5537" width="0.496844" height="0.412158" filterUnits="userSpaceOnUse" color-interpolation-filters="sRGB">
<feFlood flood-opacity="0" result="BackgroundImageFix"/>
<feBlend mode="normal" in="SourceGraphic" in2="BackgroundImageFix" result="shape"/>
<feGaussianBlur stdDeviation="0.05" result="effect1_foregroundBlur_3987_23554"/>
</filter>
<filter id="filter21_f_3987_23554" x="14.5226" y="21.547" width="1.39353" height="1.79919" filterUnits="userSpaceOnUse" color-interpolation-filters="sRGB">
<feFlood flood-opacity="0" result="BackgroundImageFix"/>
<feBlend mode="normal" in="SourceGraphic" in2="BackgroundImageFix" result="shape"/>
<feGaussianBlur stdDeviation="0.25" result="effect1_foregroundBlur_3987_23554"/>
</filter>
<filter id="filter22_f_3987_23554" x="18.0377" y="23.365" width="0.98817" height="0.472339" filterUnits="userSpaceOnUse" color-interpolation-filters="sRGB">
<feFlood flood-opacity="0" result="BackgroundImageFix"/>
<feBlend mode="normal" in="SourceGraphic" in2="BackgroundImageFix" result="shape"/>
<feGaussianBlur stdDeviation="0.05" result="effect1_foregroundBlur_3987_23554"/>
</filter>
<filter id="filter23_f_3987_23554" x="15.8413" y="23.3843" width="0.98817" height="0.472339" filterUnits="userSpaceOnUse" color-interpolation-filters="sRGB">
<feFlood flood-opacity="0" result="BackgroundImageFix"/>
<feBlend mode="normal" in="SourceGraphic" in2="BackgroundImageFix" result="shape"/>
<feGaussianBlur stdDeviation="0.05" result="effect1_foregroundBlur_3987_23554"/>
</filter>
<filter id="filter24_f_3987_23554" x="19.4037" y="21.8991" width="0.644627" height="1.08906" filterUnits="userSpaceOnUse" color-interpolation-filters="sRGB">
<feFlood flood-opacity="0" result="BackgroundImageFix"/>
<feBlend mode="normal" in="SourceGraphic" in2="BackgroundImageFix" result="shape"/>
<feGaussianBlur stdDeviation="0.075" result="effect1_foregroundBlur_3987_23554"/>
</filter>
<linearGradient id="paint0_linear_3987_23554" x1="26.2755" y1="27.9512" x2="25.7247" y2="27.9512" gradientUnits="userSpaceOnUse">
<stop stop-color="#523F3E"/>
<stop offset="1" stop-color="#2B1218"/>
</linearGradient>
<linearGradient id="paint1_linear_3987_23554" x1="0.250091" y1="0.929176" x2="0.271022" y2="1.39909" gradientUnits="userSpaceOnUse">
<stop offset="0.42832" stop-color="#6B5755"/>
<stop offset="1" stop-color="#6B5755" stop-opacity="0"/>
</linearGradient>
<linearGradient id="paint2_linear_3987_23554" x1="0.261145" y1="0.630236" x2="0.26453" y2="1.39914" gradientUnits="userSpaceOnUse">
<stop stop-color="#5F494A"/>
<stop offset="1" stop-color="#432633" stop-opacity="0"/>
</linearGradient>
<linearGradient id="paint3_linear_3987_23554" x1="0.275283" y1="0.530193" x2="0.277556" y2="1.17705" gradientUnits="userSpaceOnUse">
<stop stop-color="#5F494A"/>
<stop offset="1" stop-color="#432633" stop-opacity="0"/>
</linearGradient>
<linearGradient id="paint4_linear_3987_23554" x1="26.997" y1="28.2466" x2="28.808" y2="28.3112" gradientUnits="userSpaceOnUse">
<stop stop-color="#6A5654"/>
<stop offset="1" stop-color="#422830"/>
</linearGradient>
<linearGradient id="paint5_linear_3987_23554" x1="28.792" y1="28.7669" x2="27.9996" y2="28.7571" gradientUnits="userSpaceOnUse">
<stop stop-color="#371F2E"/>
<stop offset="1" stop-color="#371F2E" stop-opacity="0"/>
</linearGradient>
<radialGradient id="paint6_radial_3987_23554" cx="0" cy="0" r="1" gradientUnits="userSpaceOnUse" gradientTransform="translate(19.2931 20.6328) rotate(28.0926) scale(1.31066 1.59422)">
<stop stop-color="#432C2A"/>
<stop offset="1" stop-color="#442E32"/>
</radialGradient>
<radialGradient id="paint7_radial_3987_23554" cx="0" cy="0" r="1" gradientUnits="userSpaceOnUse" gradientTransform="translate(15.0841 29.4687) rotate(156.071) scale(0.427358 0.851748)">
<stop stop-color="#53413E"/>
<stop offset="1" stop-color="#3F2C2A"/>
</radialGradient>
<radialGradient id="paint8_radial_3987_23554" cx="0" cy="0" r="1" gradientUnits="userSpaceOnUse" gradientTransform="translate(15.4855 28) rotate(-180) scale(1.48865 3.771)">
<stop offset="0.246384" stop-color="#5A4545"/>
<stop offset="1" stop-color="#4C3036" stop-opacity="0"/>
</radialGradient>
<radialGradient id="paint9_radial_3987_23554" cx="0" cy="0" r="1" gradientUnits="userSpaceOnUse" gradientTransform="translate(15.6573 24.0312) rotate(-180) scale(1.91895 4.67725)">
<stop offset="0.218321" stop-color="#271118"/>
<stop offset="1" stop-color="#432C2D" stop-opacity="0"/>
</radialGradient>
<radialGradient id="paint10_radial_3987_23554" cx="0" cy="0" r="1" gradientUnits="userSpaceOnUse" gradientTransform="translate(14.069 30.0312) rotate(-90) scale(1 3.83881)">
<stop offset="0.108521" stop-color="#422640"/>
<stop offset="1" stop-color="#422640" stop-opacity="0"/>
</radialGradient>
<radialGradient id="paint11_radial_3987_23554" cx="0" cy="0" r="1" gradientUnits="userSpaceOnUse" gradientTransform="translate(13.629 25.9805) rotate(-90) scale(3.76709 0.334406)">
<stop stop-color="#574440"/>
<stop offset="1" stop-color="#574440" stop-opacity="0"/>
</radialGradient>
<radialGradient id="paint12_radial_3987_23554" cx="0" cy="0" r="1" gradientUnits="userSpaceOnUse" gradientTransform="translate(20.7174 18.3437) rotate(-180) scale(4.96875 7.09375)">
<stop stop-color="#FF954F"/>
<stop offset="1" stop-color="#F7702E"/>
</radialGradient>
<radialGradient id="paint13_radial_3987_23554" cx="0" cy="0" r="1" gradientUnits="userSpaceOnUse" gradientTransform="translate(20.6549 19.25) rotate(53.1301) scale(1.875 0.983701)">
<stop stop-color="#FFA764"/>
<stop offset="1" stop-color="#FFA764" stop-opacity="0"/>
</radialGradient>
<radialGradient id="paint14_radial_3987_23554" cx="0" cy="0" r="1" gradientUnits="userSpaceOnUse" gradientTransform="translate(19.5924 21.5) rotate(-52.5238) scale(1.18132 3.31744)">
<stop stop-color="#D95968"/>
<stop offset="1" stop-color="#FF782C" stop-opacity="0"/>
</radialGradient>
<linearGradient id="paint15_linear_3987_23554" x1="14.0299" y1="13.4375" x2="18.8424" y2="15.0938" gradientUnits="userSpaceOnUse">
<stop offset="0.28754" stop-color="#D25836"/>
<stop offset="1" stop-color="#D25836" stop-opacity="0"/>
</linearGradient>
<radialGradient id="paint16_radial_3987_23554" cx="0" cy="0" r="1" gradientUnits="userSpaceOnUse" gradientTransform="translate(16.6237 21.125) rotate(-142.918) scale(1.68439 3.3263)">
<stop stop-color="#E36121"/>
<stop offset="1" stop-color="#E36121" stop-opacity="0"/>
</radialGradient>
<linearGradient id="paint17_linear_3987_23554" x1="8.96204" y1="14.0391" x2="8.96204" y2="12.6914" gradientUnits="userSpaceOnUse">
<stop stop-color="#40253C"/>
<stop offset="1" stop-color="#492F32" stop-opacity="0"/>
</linearGradient>
<radialGradient id="paint18_radial_3987_23554" cx="0" cy="0" r="1" gradientUnits="userSpaceOnUse" gradientTransform="translate(30.1862 2.0625) rotate(132.58) scale(1.57029 1.5193)">
<stop stop-color="#686995"/>
<stop offset="1" stop-color="#686995" stop-opacity="0"/>
</radialGradient>
<linearGradient id="paint19_linear_3987_23554" x1="27.4362" y1="2.0625" x2="27.4362" y2="2.21094" gradientUnits="userSpaceOnUse">
<stop stop-color="#444570"/>
<stop offset="1" stop-color="#444570" stop-opacity="0"/>
</linearGradient>
<linearGradient id="paint20_linear_3987_23554" x1="25.9152" y1="2.53125" x2="26.5924" y2="2.53125" gradientUnits="userSpaceOnUse">
<stop stop-color="#5F5E7A"/>
<stop offset="1" stop-color="#41406B" stop-opacity="0"/>
</linearGradient>
<linearGradient id="paint21_linear_3987_23554" x1="5.46741" y1="11.8124" x2="4.81116" y2="12.3906" gradientUnits="userSpaceOnUse">
<stop stop-color="#686897"/>
<stop offset="1" stop-color="#514F87"/>
</linearGradient>
<linearGradient id="paint22_linear_3987_23554" x1="3.10022" y1="12.5781" x2="3.25647" y2="12.7656" gradientUnits="userSpaceOnUse">
<stop offset="0.069671" stop-color="#424272"/>
<stop offset="1" stop-color="#424272" stop-opacity="0"/>
</linearGradient>
<radialGradient id="paint23_radial_3987_23554" cx="0" cy="0" r="1" gradientUnits="userSpaceOnUse" gradientTransform="translate(3.18616 12.2812) rotate(78.2826) scale(2.15427 6.77116)">
<stop offset="0.550161" stop-color="#403178" stop-opacity="0"/>
<stop offset="1" stop-color="#403178"/>
</radialGradient>
<linearGradient id="paint24_linear_3987_23554" x1="12.8761" y1="14.4688" x2="13.3448" y2="11.7813" gradientUnits="userSpaceOnUse">
<stop offset="0.263716" stop-color="#836591"/>
<stop offset="1" stop-color="#9E93A6" stop-opacity="0"/>
</linearGradient>
<linearGradient id="paint25_linear_3987_23554" x1="21.7198" y1="12.875" x2="20.8448" y2="12.4375" gradientUnits="userSpaceOnUse">
<stop stop-color="#9D94A4"/>
<stop offset="1" stop-color="#9D94A4" stop-opacity="0"/>
</linearGradient>
<radialGradient id="paint26_radial_3987_23554" cx="0" cy="0" r="1" gradientUnits="userSpaceOnUse" gradientTransform="translate(15.4954 21.9392) rotate(-110.159) scale(0.904453 1.06638)">
<stop offset="0.214643" stop-color="#3C3B3C"/>
<stop offset="1" stop-color="#221C27"/>
</radialGradient>
<radialGradient id="paint27_radial_3987_23554" cx="0" cy="0" r="1" gradientUnits="userSpaceOnUse" gradientTransform="translate(19.9922 21.7331) rotate(-162.39) scale(0.644845 2.00554)">
<stop stop-color="#463C39"/>
<stop offset="0.745836" stop-color="#1B141E"/>
</radialGradient>
<linearGradient id="paint28_linear_3987_23554" x1="19.16" y1="21.9489" x2="15.91" y2="21.9798" gradientUnits="userSpaceOnUse">
<stop stop-color="#6C5755"/>
<stop offset="1" stop-color="#3E2424"/>
</linearGradient>
<radialGradient id="paint29_radial_3987_23554" cx="0" cy="0" r="1" gradientUnits="userSpaceOnUse" gradientTransform="translate(18.4413 22.5959) rotate(-90) scale(1.08883 1.17167)">
<stop stop-color="#4A2C33"/>
<stop offset="1" stop-color="#4A2C33" stop-opacity="0"/>
</radialGradient>
<linearGradient id="paint30_linear_3987_23554" x1="17.7694" y1="22.1538" x2="17.2382" y2="22.1538" gradientUnits="userSpaceOnUse">
<stop stop-color="#4E3236"/>
<stop offset="1" stop-color="#40272D"/>
</linearGradient>
<radialGradient id="paint31_radial_3987_23554" cx="0" cy="0" r="1" gradientUnits="userSpaceOnUse" gradientTransform="translate(17.7811 21.7005) rotate(180) scale(0.472656 0.156306)">
<stop stop-color="#675250"/>
<stop offset="1" stop-color="#675250" stop-opacity="0"/>
</radialGradient>
<linearGradient id="paint32_linear_3987_23554" x1="18.142" y1="20.8916" x2="17.8363" y2="21.2602" gradientUnits="userSpaceOnUse">
<stop stop-color="#503135"/>
<stop offset="1" stop-color="#503135" stop-opacity="0"/>
</linearGradient>
<radialGradient id="paint33_radial_3987_23554" cx="0" cy="0" r="1" gradientUnits="userSpaceOnUse" gradientTransform="translate(17.4721 20.8474) rotate(90) scale(0.303009 1.2071)">
<stop stop-color="#290018"/>
<stop offset="1" stop-color="#290017"/>
</radialGradient>
<linearGradient id="paint34_linear_3987_23554" x1="14.622" y1="24.7138" x2="19.4528" y2="24.7138" gradientUnits="userSpaceOnUse">
<stop stop-color="#443D40"/>
<stop offset="1" stop-color="#272127"/>
</linearGradient>
<radialGradient id="paint35_radial_3987_23554" cx="0" cy="0" r="1" gradientUnits="userSpaceOnUse" gradientTransform="translate(19.648 23.5499) rotate(90) scale(1.47101 3.68346)">
<stop offset="0.535851" stop-color="#3E3433"/>
<stop offset="1" stop-color="#3E3433" stop-opacity="0"/>
</radialGradient>
<radialGradient id="paint36_radial_3987_23554" cx="0" cy="0" r="1" gradientUnits="userSpaceOnUse" gradientTransform="translate(15.4504 22.9994) rotate(92.5733) scale(1.05666 1.85387)">
<stop stop-color="#4F4D4D"/>
<stop offset="1" stop-color="#4F4D4D" stop-opacity="0"/>
</radialGradient>
<radialGradient id="paint37_radial_3987_23554" cx="0" cy="0" r="1" gradientUnits="userSpaceOnUse" gradientTransform="translate(15.7642 25.6363) rotate(33.5936) scale(1.17802 0.868083)">
<stop stop-color="#5E5A5B"/>
<stop offset="1" stop-color="#5E5A5B" stop-opacity="0"/>
</radialGradient>
<radialGradient id="paint38_radial_3987_23554" cx="0" cy="0" r="1" gradientUnits="userSpaceOnUse" gradientTransform="translate(17.849 26.3053) rotate(-121.283) scale(0.725113 1.67146)">
<stop offset="0.286771" stop-color="#484646"/>
<stop offset="1" stop-color="#484646" stop-opacity="0"/>
</radialGradient>
<radialGradient id="paint39_radial_3987_23554" cx="0" cy="0" r="1" gradientUnits="userSpaceOnUse" gradientTransform="translate(18.4833 23.9095) rotate(52.0543) scale(1.60083 3.84668)">
<stop offset="0.653101" stop-color="#4C4749" stop-opacity="0"/>
<stop offset="0.95882" stop-color="#4C4749"/>
</radialGradient>
<radialGradient id="paint40_radial_3987_23554" cx="0" cy="0" r="1" gradientUnits="userSpaceOnUse" gradientTransform="translate(16.5663 23.8899) rotate(153.734) scale(1.53331 2.40757)">
<stop offset="0.723965" stop-color="#4A403E" stop-opacity="0"/>
<stop offset="1" stop-color="#4A403E"/>
</radialGradient>
<radialGradient id="paint41_radial_3987_23554" cx="0" cy="0" r="1" gradientUnits="userSpaceOnUse" gradientTransform="translate(17.2538 24.6473) rotate(162.641) scale(0.687566 0.544165)">
<stop offset="0.20648" stop-color="#4E494B"/>
<stop offset="1" stop-color="#4E494B" stop-opacity="0"/>
</radialGradient>
<radialGradient id="paint42_radial_3987_23554" cx="0" cy="0" r="1" gradientUnits="userSpaceOnUse" gradientTransform="translate(16.565 22.7199) rotate(-90) scale(0.340665 0.53654)">
<stop offset="0.80198" stop-color="#7D574A"/>
<stop offset="1" stop-color="#694B43"/>
<stop offset="1" stop-color="#804D49"/>
<stop offset="1" stop-color="#664842"/>
</radialGradient>
<radialGradient id="paint43_radial_3987_23554" cx="0" cy="0" r="1" gradientUnits="userSpaceOnUse" gradientTransform="translate(16.6596 22.6843) rotate(52.462) scale(0.158452 0.217606)">
<stop offset="0.765532" stop-color="#FFE6E2" stop-opacity="0"/>
<stop offset="0.966159" stop-color="#FFE6E2"/>
</radialGradient>
<linearGradient id="paint44_linear_3987_23554" x1="16.2418" y1="22.6972" x2="16.3726" y2="22.6174" gradientUnits="userSpaceOnUse">
<stop stop-color="#B4948D"/>
<stop offset="1" stop-color="#B4948D" stop-opacity="0"/>
</linearGradient>
<radialGradient id="paint45_radial_3987_23554" cx="0" cy="0" r="1" gradientUnits="userSpaceOnUse" gradientTransform="translate(18.3804 22.7199) rotate(-90) scale(0.340682 0.536567)">
<stop offset="0.80198" stop-color="#7D574A"/>
<stop offset="1" stop-color="#694B43"/>
<stop offset="1" stop-color="#804D49"/>
<stop offset="1" stop-color="#664842"/>
</radialGradient>
<linearGradient id="paint46_linear_3987_23554" x1="18.0717" y1="22.6975" x2="18.2025" y2="22.6177" gradientUnits="userSpaceOnUse">
<stop stop-color="#B4948D"/>
<stop offset="1" stop-color="#B4948D" stop-opacity="0"/>
</linearGradient>
<radialGradient id="paint47_radial_3987_23554" cx="0" cy="0" r="1" gradientUnits="userSpaceOnUse" gradientTransform="translate(0.15625 0.214836) rotate(-90.8921) scale(0.2073 0.247805)">
<stop offset="0.765532" stop-color="#FFE6E2" stop-opacity="0"/>
<stop offset="0.966159" stop-color="#FFE6E2"/>
</radialGradient>
<radialGradient id="paint48_radial_3987_23554" cx="0" cy="0" r="1" gradientUnits="userSpaceOnUse" gradientTransform="translate(15.5272 22.4412) rotate(-180) scale(0.773437 1.0526)">
<stop offset="0.45087" stop-color="#38252B"/>
<stop offset="0.868687" stop-color="#4E3E3D"/>
</radialGradient>
<radialGradient id="paint49_radial_3987_23554" cx="0" cy="0" r="1" gradientUnits="userSpaceOnUse" gradientTransform="translate(19.41 22.7222) rotate(-66.0168) scale(1.04175 1.01741)">
<stop offset="0.684668" stop-color="#625251" stop-opacity="0"/>
<stop offset="0.887149" stop-color="#625251"/>
</radialGradient>
</defs>
</svg>
