<svg width="32" height="32" viewBox="0 0 32 32" fill="none" xmlns="http://www.w3.org/2000/svg">
<g filter="url(#filter0_ii_4002_1292)">
<path d="M10.7006 19.1562C10.7006 17.7313 11.4597 17.0547 11.8607 16.9141L17.5208 16.5742C19.1302 17.293 20.4739 19.3555 20.6614 21.8555C20.8489 24.3555 20.4584 26.8086 18.3959 28.418C16.7459 29.7055 14.4375 29.9701 13.4583 29.9492H10.9857C8.36072 29.9492 7.73956 28.0586 7.63018 27.6523C7.57133 27.4338 7.49859 27.2112 7.44618 27.054C7.4085 26.941 7.33316 26.8432 7.22496 26.7934C6.69723 26.5504 5.70429 26.3081 5.27866 25.4062C4.9871 24.7885 4.95581 24.1985 4.99875 23.7765C5.02047 23.563 5.23001 23.4321 5.43923 23.4799C5.95882 23.5987 6.38968 23.7324 7.00909 24.0469C7.60752 24.38 8.01351 24.8812 8.2463 25.2735C8.31137 25.3832 8.48418 25.385 8.55001 25.2758C8.75611 24.9338 9.11132 24.4578 9.59509 24.1562C10.2773 23.731 10.9452 23.5406 11.441 23.478C11.6482 23.4518 11.8242 23.6139 11.8285 23.8227C11.8651 25.5885 11.0808 26.0979 10.6302 26.3359C10.3423 26.4673 10.0104 26.6134 9.76473 26.724C9.62539 26.7867 9.55609 26.9472 9.62399 27.0841C10.0982 28.0403 11.0922 27.9531 12.4818 27.9531C14.3334 27.9531 15.4427 26.6289 15.3256 25.2305C15.2631 23.418 13.7631 22.7148 12.7552 22.082C12.2321 21.7535 10.7006 20.9375 10.7006 19.1562Z" fill="#35BB78"/>
</g>
<path d="M10.7006 19.1562C10.7006 17.7313 11.4597 17.0547 11.8607 16.9141L17.5208 16.5742C19.1302 17.293 20.4739 19.3555 20.6614 21.8555C20.8489 24.3555 20.4584 26.8086 18.3959 28.418C16.7459 29.7055 14.4375 29.9701 13.4583 29.9492H10.9857C8.36072 29.9492 7.73956 28.0586 7.63018 27.6523C7.57133 27.4338 7.49859 27.2112 7.44618 27.054C7.4085 26.941 7.33316 26.8432 7.22496 26.7934C6.69723 26.5504 5.70429 26.3081 5.27866 25.4062C4.9871 24.7885 4.95581 24.1985 4.99875 23.7765C5.02047 23.563 5.23001 23.4321 5.43923 23.4799C5.95882 23.5987 6.38968 23.7324 7.00909 24.0469C7.60752 24.38 8.01351 24.8812 8.2463 25.2735C8.31137 25.3832 8.48418 25.385 8.55001 25.2758C8.75611 24.9338 9.11132 24.4578 9.59509 24.1562C10.2773 23.731 10.9452 23.5406 11.441 23.478C11.6482 23.4518 11.8242 23.6139 11.8285 23.8227C11.8651 25.5885 11.0808 26.0979 10.6302 26.3359C10.3423 26.4673 10.0104 26.6134 9.76473 26.724C9.62539 26.7867 9.55609 26.9472 9.62399 27.0841C10.0982 28.0403 11.0922 27.9531 12.4818 27.9531C14.3334 27.9531 15.4427 26.6289 15.3256 25.2305C15.2631 23.418 13.7631 22.7148 12.7552 22.082C12.2321 21.7535 10.7006 20.9375 10.7006 19.1562Z" fill="url(#paint0_radial_4002_1292)"/>
<g filter="url(#filter1_f_4002_1292)">
<path d="M18.6614 26.7305C18.6614 21.3867 14.7395 18.7617 13.427 17.7305L16.677 16.2773C17.802 16.7982 19.712 18.6351 20.1301 21.3867C20.6145 24.5742 19.203 26.3138 18.6614 26.7305Z" fill="url(#paint1_radial_4002_1292)"/>
</g>
<g filter="url(#filter2_f_4002_1292)">
<path d="M8.77303 26.9291C8.76597 27.5786 9.20931 28.8776 11.0392 28.8776C12.8691 28.8776 13.9196 28.8776 14.2161 28.8776C15.2256 28.8635 17.5328 28.3608 18.6849 26.4631" stroke="url(#paint2_linear_4002_1292)" stroke-width="0.4" stroke-linecap="round"/>
</g>
<g filter="url(#filter3_f_4002_1292)">
<path d="M6.18896 24.4937C6.59842 24.656 7.591 25.2773 8.28571 26.4633" stroke="url(#paint3_linear_4002_1292)" stroke-width="0.4" stroke-linecap="round"/>
</g>
<g filter="url(#filter4_f_4002_1292)">
<path d="M11.3356 23.9746C11.0285 24.3276 10.2025 25.0759 9.45068 25.8066" stroke="url(#paint4_linear_4002_1292)" stroke-width="0.4" stroke-linecap="round"/>
</g>
<g filter="url(#filter5_ii_4002_1292)">
<path d="M20.6456 13.3523L18.4644 11.2383C17.7847 10.6289 17.0034 10.5352 16.5503 10.4023L17.4956 13.9922C17.7144 14.1771 18.4487 14.8398 19.0815 15.4453C19.6597 15.9336 20.3354 15.9805 20.6909 15.9805H25.0034V13.8555C24.5773 13.7955 22.0518 13.5769 20.8834 13.4628C20.7936 13.4541 20.7104 13.4151 20.6456 13.3523Z" fill="#41282E"/>
<path d="M20.6456 13.3523L18.4644 11.2383C17.7847 10.6289 17.0034 10.5352 16.5503 10.4023L17.4956 13.9922C17.7144 14.1771 18.4487 14.8398 19.0815 15.4453C19.6597 15.9336 20.3354 15.9805 20.6909 15.9805H25.0034V13.8555C24.5773 13.7955 22.0518 13.5769 20.8834 13.4628C20.7936 13.4541 20.7104 13.4151 20.6456 13.3523Z" fill="url(#paint5_radial_4002_1292)"/>
</g>
<path d="M24.3586 10.4297H25.2883V29.807C25.2883 29.8899 25.2212 29.957 25.1383 29.957H24.5086C24.4258 29.957 24.3586 29.8899 24.3586 29.807V10.4297Z" fill="url(#paint6_radial_4002_1292)"/>
<path d="M24.3586 10.4297H25.2883V29.807C25.2883 29.8899 25.2212 29.957 25.1383 29.957H24.5086C24.4258 29.957 24.3586 29.8899 24.3586 29.807V10.4297Z" fill="url(#paint7_radial_4002_1292)"/>
<path d="M24.3586 10.4297H25.2883V29.807C25.2883 29.8899 25.2212 29.957 25.1383 29.957H24.5086C24.4258 29.957 24.3586 29.8899 24.3586 29.807V10.4297Z" fill="url(#paint8_radial_4002_1292)"/>
<path d="M24.3586 10.4297H25.2883V29.807C25.2883 29.8899 25.2212 29.957 25.1383 29.957H24.5086C24.4258 29.957 24.3586 29.8899 24.3586 29.807V10.4297Z" fill="url(#paint9_linear_4002_1292)"/>
<g filter="url(#filter6_i_4002_1292)">
<rect x="23.3635" y="9.52197" width="2.96329" height="0.907743" rx="0.453871" fill="#ECA63F"/>
<rect x="23.3635" y="9.52197" width="2.96329" height="0.907743" rx="0.453871" fill="url(#paint10_radial_4002_1292)"/>
</g>
<g filter="url(#filter7_i_4002_1292)">
<path d="M24.6461 2.18986L23.8934 3.20899C23.7955 3.34165 23.8911 3.52919 24.056 3.5278L24.2664 3.52602C24.3497 3.52531 24.4177 3.59267 24.4177 3.67601V7.53119C24.4177 8.08347 23.9699 8.53119 23.4177 8.53119H23.386C22.4836 8.53119 21.8477 7.90683 21.6761 7.30327C21.571 6.93337 21.5635 6.65864 21.6429 6.39806C21.7254 6.1272 21.9178 5.81846 22.3126 5.41468C23.175 4.53244 23.1785 3.52812 23.1825 2.39495L23.1826 2.35552C23.1826 2.23025 23.0381 2.16017 22.9397 2.23773L21.6395 3.26284C21.5277 3.35096 21.59 3.53063 21.7323 3.53063H22.1012C22.1866 3.53063 22.2546 3.602 22.2393 3.68603C22.1908 3.95331 22.0388 4.37864 21.6547 4.77158C21.2093 5.22718 20.9058 5.66061 20.7628 6.12999C20.6167 6.60963 20.6543 7.07319 20.7912 7.55487C21.0545 8.48109 21.9925 9.52188 23.4524 9.52188H26.2241C27.684 9.52188 28.622 8.48109 28.8853 7.55487C29.0222 7.07319 29.0598 6.60963 28.9137 6.12999C28.7708 5.66061 28.4672 5.22718 28.0219 4.77158C27.6377 4.37864 27.4857 3.95331 27.4372 3.68603C27.4219 3.602 27.4899 3.53063 27.5753 3.53063H27.9442C28.0865 3.53063 28.1488 3.35096 28.0371 3.26284L26.7368 2.23773C26.6384 2.16017 26.4939 2.23025 26.4939 2.35552L26.4941 2.39495C26.498 3.52812 26.5015 4.53244 27.364 5.41468C27.7587 5.81846 27.9511 6.1272 28.0336 6.39806C28.113 6.65864 28.1055 6.93337 28.0004 7.30327C27.8288 7.90683 27.2017 8.53119 26.2241 8.53119C25.6987 8.53119 25.2727 8.10521 25.2727 7.57973V3.66624C25.2727 3.58389 25.3391 3.51694 25.4214 3.51624L25.6338 3.51445C25.7973 3.51306 25.8901 3.32681 25.7928 3.19544L25.0481 2.18961C24.9481 2.05453 24.7459 2.05466 24.6461 2.18986Z" fill="url(#paint11_radial_4002_1292)"/>
<path d="M24.6461 2.18986L23.8934 3.20899C23.7955 3.34165 23.8911 3.52919 24.056 3.5278L24.2664 3.52602C24.3497 3.52531 24.4177 3.59267 24.4177 3.67601V7.53119C24.4177 8.08347 23.9699 8.53119 23.4177 8.53119H23.386C22.4836 8.53119 21.8477 7.90683 21.6761 7.30327C21.571 6.93337 21.5635 6.65864 21.6429 6.39806C21.7254 6.1272 21.9178 5.81846 22.3126 5.41468C23.175 4.53244 23.1785 3.52812 23.1825 2.39495L23.1826 2.35552C23.1826 2.23025 23.0381 2.16017 22.9397 2.23773L21.6395 3.26284C21.5277 3.35096 21.59 3.53063 21.7323 3.53063H22.1012C22.1866 3.53063 22.2546 3.602 22.2393 3.68603C22.1908 3.95331 22.0388 4.37864 21.6547 4.77158C21.2093 5.22718 20.9058 5.66061 20.7628 6.12999C20.6167 6.60963 20.6543 7.07319 20.7912 7.55487C21.0545 8.48109 21.9925 9.52188 23.4524 9.52188H26.2241C27.684 9.52188 28.622 8.48109 28.8853 7.55487C29.0222 7.07319 29.0598 6.60963 28.9137 6.12999C28.7708 5.66061 28.4672 5.22718 28.0219 4.77158C27.6377 4.37864 27.4857 3.95331 27.4372 3.68603C27.4219 3.602 27.4899 3.53063 27.5753 3.53063H27.9442C28.0865 3.53063 28.1488 3.35096 28.0371 3.26284L26.7368 2.23773C26.6384 2.16017 26.4939 2.23025 26.4939 2.35552L26.4941 2.39495C26.498 3.52812 26.5015 4.53244 27.364 5.41468C27.7587 5.81846 27.9511 6.1272 28.0336 6.39806C28.113 6.65864 28.1055 6.93337 28.0004 7.30327C27.8288 7.90683 27.2017 8.53119 26.2241 8.53119C25.6987 8.53119 25.2727 8.10521 25.2727 7.57973V3.66624C25.2727 3.58389 25.3391 3.51694 25.4214 3.51624L25.6338 3.51445C25.7973 3.51306 25.8901 3.32681 25.7928 3.19544L25.0481 2.18961C24.9481 2.05453 24.7459 2.05466 24.6461 2.18986Z" fill="url(#paint12_radial_4002_1292)"/>
<path d="M24.6461 2.18986L23.8934 3.20899C23.7955 3.34165 23.8911 3.52919 24.056 3.5278L24.2664 3.52602C24.3497 3.52531 24.4177 3.59267 24.4177 3.67601V7.53119C24.4177 8.08347 23.9699 8.53119 23.4177 8.53119H23.386C22.4836 8.53119 21.8477 7.90683 21.6761 7.30327C21.571 6.93337 21.5635 6.65864 21.6429 6.39806C21.7254 6.1272 21.9178 5.81846 22.3126 5.41468C23.175 4.53244 23.1785 3.52812 23.1825 2.39495L23.1826 2.35552C23.1826 2.23025 23.0381 2.16017 22.9397 2.23773L21.6395 3.26284C21.5277 3.35096 21.59 3.53063 21.7323 3.53063H22.1012C22.1866 3.53063 22.2546 3.602 22.2393 3.68603C22.1908 3.95331 22.0388 4.37864 21.6547 4.77158C21.2093 5.22718 20.9058 5.66061 20.7628 6.12999C20.6167 6.60963 20.6543 7.07319 20.7912 7.55487C21.0545 8.48109 21.9925 9.52188 23.4524 9.52188H26.2241C27.684 9.52188 28.622 8.48109 28.8853 7.55487C29.0222 7.07319 29.0598 6.60963 28.9137 6.12999C28.7708 5.66061 28.4672 5.22718 28.0219 4.77158C27.6377 4.37864 27.4857 3.95331 27.4372 3.68603C27.4219 3.602 27.4899 3.53063 27.5753 3.53063H27.9442C28.0865 3.53063 28.1488 3.35096 28.0371 3.26284L26.7368 2.23773C26.6384 2.16017 26.4939 2.23025 26.4939 2.35552L26.4941 2.39495C26.498 3.52812 26.5015 4.53244 27.364 5.41468C27.7587 5.81846 27.9511 6.1272 28.0336 6.39806C28.113 6.65864 28.1055 6.93337 28.0004 7.30327C27.8288 7.90683 27.2017 8.53119 26.2241 8.53119C25.6987 8.53119 25.2727 8.10521 25.2727 7.57973V3.66624C25.2727 3.58389 25.3391 3.51694 25.4214 3.51624L25.6338 3.51445C25.7973 3.51306 25.8901 3.32681 25.7928 3.19544L25.0481 2.18961C24.9481 2.05453 24.7459 2.05466 24.6461 2.18986Z" fill="url(#paint13_radial_4002_1292)"/>
</g>
<g filter="url(#filter8_i_4002_1292)">
<path d="M25.2563 13.207C25.0697 13.207 24.9184 13.3583 24.9184 13.5449V13.5632C24.9184 13.6917 24.9901 13.8035 25.0957 13.8606C25.1129 13.8699 25.1129 13.9003 25.0957 13.9095C24.9901 13.9667 24.9184 14.0784 24.9184 14.2069V14.2252C24.9184 14.3548 24.9913 14.4673 25.0983 14.524C25.105 14.5275 25.1025 14.5391 25.0949 14.5391C24.8711 14.5391 24.6897 14.7205 24.6897 14.9443C24.6897 15.1176 24.7986 15.2656 24.9516 15.3234C24.9707 15.3306 24.9738 15.3645 24.9566 15.3754C24.8589 15.4372 24.794 15.5463 24.794 15.6705C24.794 15.8633 24.9503 16.0195 25.1431 16.0195H25.9054C26.0981 16.0195 26.2544 15.8633 26.2544 15.6705C26.2544 15.5517 26.1951 15.4467 26.1044 15.3837C26.0705 15.3601 26.0635 15.2746 26.0944 15.2471C26.1778 15.1729 26.2304 15.0647 26.2304 14.9443C26.2304 14.8075 26.1626 14.6866 26.0588 14.6132C26.0332 14.5951 26.0371 14.5323 26.0641 14.5163C26.1636 14.4575 26.2304 14.3492 26.2304 14.2252V14.2069C26.2304 14.082 26.1626 13.973 26.0618 13.9145C26.0364 13.8997 26.0333 13.8501 26.0567 13.8323C26.1378 13.7706 26.1902 13.673 26.1902 13.5632V13.5449C26.1902 13.3583 26.039 13.207 25.8523 13.207H25.2563Z" fill="url(#paint14_linear_4002_1292)"/>
<path d="M25.2563 13.207C25.0697 13.207 24.9184 13.3583 24.9184 13.5449V13.5632C24.9184 13.6917 24.9901 13.8035 25.0957 13.8606C25.1129 13.8699 25.1129 13.9003 25.0957 13.9095C24.9901 13.9667 24.9184 14.0784 24.9184 14.2069V14.2252C24.9184 14.3548 24.9913 14.4673 25.0983 14.524C25.105 14.5275 25.1025 14.5391 25.0949 14.5391C24.8711 14.5391 24.6897 14.7205 24.6897 14.9443C24.6897 15.1176 24.7986 15.2656 24.9516 15.3234C24.9707 15.3306 24.9738 15.3645 24.9566 15.3754C24.8589 15.4372 24.794 15.5463 24.794 15.6705C24.794 15.8633 24.9503 16.0195 25.1431 16.0195H25.9054C26.0981 16.0195 26.2544 15.8633 26.2544 15.6705C26.2544 15.5517 26.1951 15.4467 26.1044 15.3837C26.0705 15.3601 26.0635 15.2746 26.0944 15.2471C26.1778 15.1729 26.2304 15.0647 26.2304 14.9443C26.2304 14.8075 26.1626 14.6866 26.0588 14.6132C26.0332 14.5951 26.0371 14.5323 26.0641 14.5163C26.1636 14.4575 26.2304 14.3492 26.2304 14.2252V14.2069C26.2304 14.082 26.1626 13.973 26.0618 13.9145C26.0364 13.8997 26.0333 13.8501 26.0567 13.8323C26.1378 13.7706 26.1902 13.673 26.1902 13.5632V13.5449C26.1902 13.3583 26.039 13.207 25.8523 13.207H25.2563Z" fill="url(#paint15_radial_4002_1292)"/>
<path d="M25.2563 13.207C25.0697 13.207 24.9184 13.3583 24.9184 13.5449V13.5632C24.9184 13.6917 24.9901 13.8035 25.0957 13.8606C25.1129 13.8699 25.1129 13.9003 25.0957 13.9095C24.9901 13.9667 24.9184 14.0784 24.9184 14.2069V14.2252C24.9184 14.3548 24.9913 14.4673 25.0983 14.524C25.105 14.5275 25.1025 14.5391 25.0949 14.5391C24.8711 14.5391 24.6897 14.7205 24.6897 14.9443C24.6897 15.1176 24.7986 15.2656 24.9516 15.3234C24.9707 15.3306 24.9738 15.3645 24.9566 15.3754C24.8589 15.4372 24.794 15.5463 24.794 15.6705C24.794 15.8633 24.9503 16.0195 25.1431 16.0195H25.9054C26.0981 16.0195 26.2544 15.8633 26.2544 15.6705C26.2544 15.5517 26.1951 15.4467 26.1044 15.3837C26.0705 15.3601 26.0635 15.2746 26.0944 15.2471C26.1778 15.1729 26.2304 15.0647 26.2304 14.9443C26.2304 14.8075 26.1626 14.6866 26.0588 14.6132C26.0332 14.5951 26.0371 14.5323 26.0641 14.5163C26.1636 14.4575 26.2304 14.3492 26.2304 14.2252V14.2069C26.2304 14.082 26.1626 13.973 26.0618 13.9145C26.0364 13.8997 26.0333 13.8501 26.0567 13.8323C26.1378 13.7706 26.1902 13.673 26.1902 13.5632V13.5449C26.1902 13.3583 26.039 13.207 25.8523 13.207H25.2563Z" fill="url(#paint16_radial_4002_1292)"/>
<path d="M25.2563 13.207C25.0697 13.207 24.9184 13.3583 24.9184 13.5449V13.5632C24.9184 13.6917 24.9901 13.8035 25.0957 13.8606C25.1129 13.8699 25.1129 13.9003 25.0957 13.9095C24.9901 13.9667 24.9184 14.0784 24.9184 14.2069V14.2252C24.9184 14.3548 24.9913 14.4673 25.0983 14.524C25.105 14.5275 25.1025 14.5391 25.0949 14.5391C24.8711 14.5391 24.6897 14.7205 24.6897 14.9443C24.6897 15.1176 24.7986 15.2656 24.9516 15.3234C24.9707 15.3306 24.9738 15.3645 24.9566 15.3754C24.8589 15.4372 24.794 15.5463 24.794 15.6705C24.794 15.8633 24.9503 16.0195 25.1431 16.0195H25.9054C26.0981 16.0195 26.2544 15.8633 26.2544 15.6705C26.2544 15.5517 26.1951 15.4467 26.1044 15.3837C26.0705 15.3601 26.0635 15.2746 26.0944 15.2471C26.1778 15.1729 26.2304 15.0647 26.2304 14.9443C26.2304 14.8075 26.1626 14.6866 26.0588 14.6132C26.0332 14.5951 26.0371 14.5323 26.0641 14.5163C26.1636 14.4575 26.2304 14.3492 26.2304 14.2252V14.2069C26.2304 14.082 26.1626 13.973 26.0618 13.9145C26.0364 13.8997 26.0333 13.8501 26.0567 13.8323C26.1378 13.7706 26.1902 13.673 26.1902 13.5632V13.5449C26.1902 13.3583 26.039 13.207 25.8523 13.207H25.2563Z" fill="url(#paint17_radial_4002_1292)"/>
<path d="M25.2563 13.207C25.0697 13.207 24.9184 13.3583 24.9184 13.5449V13.5632C24.9184 13.6917 24.9901 13.8035 25.0957 13.8606C25.1129 13.8699 25.1129 13.9003 25.0957 13.9095C24.9901 13.9667 24.9184 14.0784 24.9184 14.2069V14.2252C24.9184 14.3548 24.9913 14.4673 25.0983 14.524C25.105 14.5275 25.1025 14.5391 25.0949 14.5391C24.8711 14.5391 24.6897 14.7205 24.6897 14.9443C24.6897 15.1176 24.7986 15.2656 24.9516 15.3234C24.9707 15.3306 24.9738 15.3645 24.9566 15.3754C24.8589 15.4372 24.794 15.5463 24.794 15.6705C24.794 15.8633 24.9503 16.0195 25.1431 16.0195H25.9054C26.0981 16.0195 26.2544 15.8633 26.2544 15.6705C26.2544 15.5517 26.1951 15.4467 26.1044 15.3837C26.0705 15.3601 26.0635 15.2746 26.0944 15.2471C26.1778 15.1729 26.2304 15.0647 26.2304 14.9443C26.2304 14.8075 26.1626 14.6866 26.0588 14.6132C26.0332 14.5951 26.0371 14.5323 26.0641 14.5163C26.1636 14.4575 26.2304 14.3492 26.2304 14.2252V14.2069C26.2304 14.082 26.1626 13.973 26.0618 13.9145C26.0364 13.8997 26.0333 13.8501 26.0567 13.8323C26.1378 13.7706 26.1902 13.673 26.1902 13.5632V13.5449C26.1902 13.3583 26.039 13.207 25.8523 13.207H25.2563Z" fill="url(#paint18_radial_4002_1292)"/>
</g>
<path d="M24.8079 13.0156H24.3079C23.7774 13.0156 23.5294 13.3978 23.4211 13.8789L24.2688 14.1445L24.3105 13.9675C24.3223 13.9173 24.3703 13.8843 24.4214 13.8913L24.6209 13.9188C24.6989 13.9295 24.7571 13.9962 24.7571 14.075V14.3906C24.7571 14.6517 24.9687 14.8633 25.2297 14.8633C25.4908 14.8633 25.7024 14.6517 25.7024 14.3906V13.9375C25.7024 13.6797 25.675 13.4766 25.3977 13.2461C25.1758 13.0617 24.912 13.0156 24.8079 13.0156Z" fill="url(#paint19_linear_4002_1292)"/>
<path d="M24.8079 13.0156H24.3079C23.7774 13.0156 23.5294 13.3978 23.4211 13.8789L24.2688 14.1445L24.3105 13.9675C24.3223 13.9173 24.3703 13.8843 24.4214 13.8913L24.6209 13.9188C24.6989 13.9295 24.7571 13.9962 24.7571 14.075V14.3906C24.7571 14.6517 24.9687 14.8633 25.2297 14.8633C25.4908 14.8633 25.7024 14.6517 25.7024 14.3906V13.9375C25.7024 13.6797 25.675 13.4766 25.3977 13.2461C25.1758 13.0617 24.912 13.0156 24.8079 13.0156Z" fill="url(#paint20_radial_4002_1292)"/>
<path d="M4.02171 15.9974C4.00444 15.7122 4.22164 15.467 4.50684 15.4497C4.79204 15.4324 5.03724 15.6496 5.05451 15.9348L5.10716 16.8041C5.12443 17.0893 4.90723 17.3345 4.62204 17.3518C4.33684 17.3691 4.09164 17.1519 4.07436 16.8667L4.02171 15.9974Z" fill="url(#paint21_radial_4002_1292)"/>
<path d="M4.02171 15.9974C4.00444 15.7122 4.22164 15.467 4.50684 15.4497C4.79204 15.4324 5.03724 15.6496 5.05451 15.9348L5.10716 16.8041C5.12443 17.0893 4.90723 17.3345 4.62204 17.3518C4.33684 17.3691 4.09164 17.1519 4.07436 16.8667L4.02171 15.9974Z" fill="url(#paint22_linear_4002_1292)"/>
<g filter="url(#filter9_i_4002_1292)">
<path d="M10.9329 11.3554C11.7079 10.6054 12.679 10.4309 13.0462 10.4413V14.496H11.6244C11.5119 14.3648 11.4056 14.4049 11.3665 14.4413C10.8639 14.8658 9.74622 15.8132 9.29623 16.207C8.84623 16.6007 8.08789 16.7044 7.76498 16.707H6.12974C6.02838 16.707 5.9308 16.7455 5.85673 16.8146L5.38539 17.2548C5.18232 17.4445 4.86807 17.4477 4.66108 17.2624C4.43272 17.0579 4.42175 16.704 4.63702 16.4857L4.99522 16.1226C5.04256 16.0746 5.03133 15.9947 4.97259 15.9616L4.90523 15.9237C4.77674 15.8513 4.61555 15.8753 4.51365 15.9819L3.86412 16.6611C3.69747 16.8354 3.43094 16.8678 3.22742 16.7384C2.96986 16.5747 2.91487 16.2219 3.1104 15.9876L3.89796 15.0439C4.02825 14.8878 4.21356 14.7877 4.41557 14.7644L7.61887 14.3942C7.68329 14.3868 7.74352 14.3587 7.79054 14.3141C8.54863 13.5943 10.0745 12.1155 10.9329 11.3554Z" fill="url(#paint23_radial_4002_1292)"/>
<path d="M10.9329 11.3554C11.7079 10.6054 12.679 10.4309 13.0462 10.4413V14.496H11.6244C11.5119 14.3648 11.4056 14.4049 11.3665 14.4413C10.8639 14.8658 9.74622 15.8132 9.29623 16.207C8.84623 16.6007 8.08789 16.7044 7.76498 16.707H6.12974C6.02838 16.707 5.9308 16.7455 5.85673 16.8146L5.38539 17.2548C5.18232 17.4445 4.86807 17.4477 4.66108 17.2624C4.43272 17.0579 4.42175 16.704 4.63702 16.4857L4.99522 16.1226C5.04256 16.0746 5.03133 15.9947 4.97259 15.9616L4.90523 15.9237C4.77674 15.8513 4.61555 15.8753 4.51365 15.9819L3.86412 16.6611C3.69747 16.8354 3.43094 16.8678 3.22742 16.7384C2.96986 16.5747 2.91487 16.2219 3.1104 15.9876L3.89796 15.0439C4.02825 14.8878 4.21356 14.7877 4.41557 14.7644L7.61887 14.3942C7.68329 14.3868 7.74352 14.3587 7.79054 14.3141C8.54863 13.5943 10.0745 12.1155 10.9329 11.3554Z" fill="url(#paint24_radial_4002_1292)"/>
</g>
<path d="M12.9659 10.4336C12.4913 10.9616 11.5422 12.4535 11.5422 14.1974V17.2487C11.5422 17.6077 11.8333 17.8984 12.1922 17.8984H17.5055C17.8645 17.8984 18.1555 17.6077 18.1555 17.2487V14.1974C18.1555 12.4535 17.2064 10.9616 16.7319 10.4336H12.9659Z" fill="url(#paint25_radial_4002_1292)"/>
<path d="M12.9659 10.4336C12.4913 10.9616 11.5422 12.4535 11.5422 14.1974V17.2487C11.5422 17.6077 11.8333 17.8984 12.1922 17.8984H17.5055C17.8645 17.8984 18.1555 17.6077 18.1555 17.2487V14.1974C18.1555 12.4535 17.2064 10.9616 16.7319 10.4336H12.9659Z" fill="url(#paint26_radial_4002_1292)"/>
<g filter="url(#filter10_f_4002_1292)">
<path d="M27.0774 3.41797C27.0774 3.80078 27.1945 4.30078 27.6788 4.87109C28.3475 5.65857 28.6868 6.08984 28.6868 6.71484C28.6868 7.11328 28.5694 8.01953 27.6788 8.64453" stroke="url(#paint27_linear_4002_1292)" stroke-width="0.2"/>
</g>
<g filter="url(#filter11_f_4002_1292)">
<path d="M26.8274 2.58203L27.8196 3.30078H27.1008" stroke="url(#paint28_linear_4002_1292)" stroke-width="0.2"/>
</g>
<g filter="url(#filter12_f_4002_1292)">
<path d="M25.5617 3.22266L24.9445 2.27734L24.7722 3.22266H25.5617Z" fill="url(#paint29_radial_4002_1292)"/>
</g>
<g filter="url(#filter13_f_4002_1292)">
<path d="M24.9602 3.49609V7.71484C24.9341 7.92839 25.0101 8.51328 25.5851 8.80078C26.1601 9.08828 26.7961 8.87891 27.007 8.80078" stroke="url(#paint30_linear_4002_1292)" stroke-width="0.2"/>
</g>
<g filter="url(#filter14_f_4002_1292)">
<path d="M22.9525 2.57422C22.9525 3.55859 22.8947 4.39297 22.0072 5.29297C20.8978 6.41797 21.3209 7.4373 21.4447 7.71484C21.6712 8.22266 22.2572 8.93359 23.7103 8.93359" stroke="url(#paint31_linear_4002_1292)" stroke-width="0.2"/>
</g>
<g filter="url(#filter15_i_4002_1292)">
<circle cx="12.1198" cy="6.97816" r="0.9579" fill="url(#paint32_radial_4002_1292)"/>
</g>
<g filter="url(#filter16_f_4002_1292)">
<circle cx="12.1197" cy="6.97812" r="0.570894" fill="url(#paint33_linear_4002_1292)"/>
</g>
<g filter="url(#filter17_i_4002_1292)">
<circle cx="17.5783" cy="6.97816" r="0.9579" fill="url(#paint34_linear_4002_1292)"/>
<circle cx="17.5783" cy="6.97816" r="0.9579" fill="url(#paint35_radial_4002_1292)"/>
</g>
<g filter="url(#filter18_f_4002_1292)">
<circle cx="17.5782" cy="6.97812" r="0.570894" fill="#463133"/>
<circle cx="17.5782" cy="6.97812" r="0.570894" fill="url(#paint36_radial_4002_1292)"/>
<circle cx="17.5782" cy="6.97812" r="0.570894" fill="url(#paint37_radial_4002_1292)"/>
</g>
<g filter="url(#filter19_i_4002_1292)">
<path d="M11.9179 6.6266C11.9272 6.62723 11.9366 6.62756 11.9461 6.62756C11.9461 6.62756 11.9153 6.13792 11.8845 5.8013C11.8845 5.64829 11.9461 5.46468 12.0692 5.37288L12.1615 5.28107C12.3154 5.15866 12.377 4.97505 12.377 4.79144V4.30181C12.377 4.1488 12.4693 4.02639 12.6232 3.99579C12.9925 3.90399 13.7619 3.75098 14.8699 3.75098C15.9779 3.75098 16.7473 3.90399 17.1166 3.99579C17.2398 4.02639 17.3629 4.1488 17.3629 4.30181V4.79144C17.3629 4.97505 17.4552 5.15866 17.5783 5.28107C17.8664 5.48294 17.8484 5.59397 17.8245 5.83191C17.7937 6.13792 17.763 6.65816 17.763 6.65816C17.7664 6.65816 17.7699 6.65811 17.7733 6.65803L17.6208 8.92931C17.5287 9.94466 16.7305 10.6523 15.7788 10.6523H13.9367C12.9543 10.6523 12.1868 9.94466 12.0947 8.92931L11.9179 6.6266Z" fill="url(#paint38_linear_4002_1292)"/>
<path d="M11.9179 6.6266C11.9272 6.62723 11.9366 6.62756 11.9461 6.62756C11.9461 6.62756 11.9153 6.13792 11.8845 5.8013C11.8845 5.64829 11.9461 5.46468 12.0692 5.37288L12.1615 5.28107C12.3154 5.15866 12.377 4.97505 12.377 4.79144V4.30181C12.377 4.1488 12.4693 4.02639 12.6232 3.99579C12.9925 3.90399 13.7619 3.75098 14.8699 3.75098C15.9779 3.75098 16.7473 3.90399 17.1166 3.99579C17.2398 4.02639 17.3629 4.1488 17.3629 4.30181V4.79144C17.3629 4.97505 17.4552 5.15866 17.5783 5.28107C17.8664 5.48294 17.8484 5.59397 17.8245 5.83191C17.7937 6.13792 17.763 6.65816 17.763 6.65816C17.7664 6.65816 17.7699 6.65811 17.7733 6.65803L17.6208 8.92931C17.5287 9.94466 16.7305 10.6523 15.7788 10.6523H13.9367C12.9543 10.6523 12.1868 9.94466 12.0947 8.92931L11.9179 6.6266Z" fill="url(#paint39_linear_4002_1292)"/>
<path d="M11.9179 6.6266C11.9272 6.62723 11.9366 6.62756 11.9461 6.62756C11.9461 6.62756 11.9153 6.13792 11.8845 5.8013C11.8845 5.64829 11.9461 5.46468 12.0692 5.37288L12.1615 5.28107C12.3154 5.15866 12.377 4.97505 12.377 4.79144V4.30181C12.377 4.1488 12.4693 4.02639 12.6232 3.99579C12.9925 3.90399 13.7619 3.75098 14.8699 3.75098C15.9779 3.75098 16.7473 3.90399 17.1166 3.99579C17.2398 4.02639 17.3629 4.1488 17.3629 4.30181V4.79144C17.3629 4.97505 17.4552 5.15866 17.5783 5.28107C17.8664 5.48294 17.8484 5.59397 17.8245 5.83191C17.7937 6.13792 17.763 6.65816 17.763 6.65816C17.7664 6.65816 17.7699 6.65811 17.7733 6.65803L17.6208 8.92931C17.5287 9.94466 16.7305 10.6523 15.7788 10.6523H13.9367C12.9543 10.6523 12.1868 9.94466 12.0947 8.92931L11.9179 6.6266Z" fill="url(#paint40_radial_4002_1292)"/>
<path d="M11.9179 6.6266C11.9272 6.62723 11.9366 6.62756 11.9461 6.62756C11.9461 6.62756 11.9153 6.13792 11.8845 5.8013C11.8845 5.64829 11.9461 5.46468 12.0692 5.37288L12.1615 5.28107C12.3154 5.15866 12.377 4.97505 12.377 4.79144V4.30181C12.377 4.1488 12.4693 4.02639 12.6232 3.99579C12.9925 3.90399 13.7619 3.75098 14.8699 3.75098C15.9779 3.75098 16.7473 3.90399 17.1166 3.99579C17.2398 4.02639 17.3629 4.1488 17.3629 4.30181V4.79144C17.3629 4.97505 17.4552 5.15866 17.5783 5.28107C17.8664 5.48294 17.8484 5.59397 17.8245 5.83191C17.7937 6.13792 17.763 6.65816 17.763 6.65816C17.7664 6.65816 17.7699 6.65811 17.7733 6.65803L17.6208 8.92931C17.5287 9.94466 16.7305 10.6523 15.7788 10.6523H13.9367C12.9543 10.6523 12.1868 9.94466 12.0947 8.92931L11.9179 6.6266Z" fill="url(#paint41_radial_4002_1292)"/>
<path d="M11.9179 6.6266C11.9272 6.62723 11.9366 6.62756 11.9461 6.62756C11.9461 6.62756 11.9153 6.13792 11.8845 5.8013C11.8845 5.64829 11.9461 5.46468 12.0692 5.37288L12.1615 5.28107C12.3154 5.15866 12.377 4.97505 12.377 4.79144V4.30181C12.377 4.1488 12.4693 4.02639 12.6232 3.99579C12.9925 3.90399 13.7619 3.75098 14.8699 3.75098C15.9779 3.75098 16.7473 3.90399 17.1166 3.99579C17.2398 4.02639 17.3629 4.1488 17.3629 4.30181V4.79144C17.3629 4.97505 17.4552 5.15866 17.5783 5.28107C17.8664 5.48294 17.8484 5.59397 17.8245 5.83191C17.7937 6.13792 17.763 6.65816 17.763 6.65816C17.7664 6.65816 17.7699 6.65811 17.7733 6.65803L17.6208 8.92931C17.5287 9.94466 16.7305 10.6523 15.7788 10.6523H13.9367C12.9543 10.6523 12.1868 9.94466 12.0947 8.92931L11.9179 6.6266Z" fill="url(#paint42_radial_4002_1292)"/>
<path d="M11.9179 6.6266C11.9272 6.62723 11.9366 6.62756 11.9461 6.62756C11.9461 6.62756 11.9153 6.13792 11.8845 5.8013C11.8845 5.64829 11.9461 5.46468 12.0692 5.37288L12.1615 5.28107C12.3154 5.15866 12.377 4.97505 12.377 4.79144V4.30181C12.377 4.1488 12.4693 4.02639 12.6232 3.99579C12.9925 3.90399 13.7619 3.75098 14.8699 3.75098C15.9779 3.75098 16.7473 3.90399 17.1166 3.99579C17.2398 4.02639 17.3629 4.1488 17.3629 4.30181V4.79144C17.3629 4.97505 17.4552 5.15866 17.5783 5.28107C17.8664 5.48294 17.8484 5.59397 17.8245 5.83191C17.7937 6.13792 17.763 6.65816 17.763 6.65816C17.7664 6.65816 17.7699 6.65811 17.7733 6.65803L17.6208 8.92931C17.5287 9.94466 16.7305 10.6523 15.7788 10.6523H13.9367C12.9543 10.6523 12.1868 9.94466 12.0947 8.92931L11.9179 6.6266Z" fill="url(#paint43_radial_4002_1292)"/>
</g>
<g filter="url(#filter20_f_4002_1292)">
<path d="M17.118 3.75098L15.3522 4.33968C15.0516 4.43992 14.8805 4.75642 14.9613 5.06285C15.0385 5.35579 15.3218 5.54542 15.622 5.50521L17.3776 5.27015L17.118 3.75098Z" fill="url(#paint44_linear_4002_1292)"/>
</g>
<g filter="url(#filter21_i_4002_1292)">
<path d="M17.609 3.26138L17.8552 3.38379C18.2861 3.598 18.5323 4.08763 18.44 4.60787L18.1014 6.35217C18.0712 6.53232 17.9522 6.65355 17.7733 6.65806C17.7698 6.65815 17.7664 6.65818 17.7629 6.65818C17.7629 6.65818 17.7937 6.13794 17.8244 5.83192C17.8494 5.58342 17.806 5.50762 17.5782 5.28109C17.4551 5.15868 17.3628 4.97507 17.3628 4.79146V4.30183C17.3628 4.14882 17.2397 4.02641 17.1166 3.99581C16.7472 3.90401 15.9778 3.751 14.8698 3.751C13.7619 3.751 12.9924 3.90401 12.6231 3.99581C12.4692 4.02641 12.3769 4.14882 12.3769 4.30183V4.79146C12.3769 4.97507 12.3153 5.15868 12.1614 5.28109L12.0691 5.3729C11.946 5.4647 11.8844 5.64831 11.8844 5.80132C11.9152 6.13794 11.946 6.62757 11.946 6.62757C11.9365 6.62757 11.9271 6.62725 11.9178 6.62662C11.7459 6.61486 11.6059 6.49577 11.5767 6.32157L11.2381 4.57726C11.1766 4.08763 11.4228 3.598 11.8537 3.38379L12.0999 3.26138C12.2538 3.16958 12.4077 3.04717 12.5615 2.92476L13.1155 2.34333C13.4541 2.03731 13.9465 1.9455 14.3774 2.15971C14.6852 2.25152 15.0237 2.25152 15.3315 2.15971C15.7931 2.0067 16.3164 2.12911 16.6857 2.46573L17.1473 2.92476C17.2704 3.07777 17.4243 3.16958 17.609 3.26138Z" fill="#21181B"/>
<path d="M17.609 3.26138L17.8552 3.38379C18.2861 3.598 18.5323 4.08763 18.44 4.60787L18.1014 6.35217C18.0712 6.53232 17.9522 6.65355 17.7733 6.65806C17.7698 6.65815 17.7664 6.65818 17.7629 6.65818C17.7629 6.65818 17.7937 6.13794 17.8244 5.83192C17.8494 5.58342 17.806 5.50762 17.5782 5.28109C17.4551 5.15868 17.3628 4.97507 17.3628 4.79146V4.30183C17.3628 4.14882 17.2397 4.02641 17.1166 3.99581C16.7472 3.90401 15.9778 3.751 14.8698 3.751C13.7619 3.751 12.9924 3.90401 12.6231 3.99581C12.4692 4.02641 12.3769 4.14882 12.3769 4.30183V4.79146C12.3769 4.97507 12.3153 5.15868 12.1614 5.28109L12.0691 5.3729C11.946 5.4647 11.8844 5.64831 11.8844 5.80132C11.9152 6.13794 11.946 6.62757 11.946 6.62757C11.9365 6.62757 11.9271 6.62725 11.9178 6.62662C11.7459 6.61486 11.6059 6.49577 11.5767 6.32157L11.2381 4.57726C11.1766 4.08763 11.4228 3.598 11.8537 3.38379L12.0999 3.26138C12.2538 3.16958 12.4077 3.04717 12.5615 2.92476L13.1155 2.34333C13.4541 2.03731 13.9465 1.9455 14.3774 2.15971C14.6852 2.25152 15.0237 2.25152 15.3315 2.15971C15.7931 2.0067 16.3164 2.12911 16.6857 2.46573L17.1473 2.92476C17.2704 3.07777 17.4243 3.16958 17.609 3.26138Z" fill="url(#paint45_radial_4002_1292)"/>
<path d="M17.609 3.26138L17.8552 3.38379C18.2861 3.598 18.5323 4.08763 18.44 4.60787L18.1014 6.35217C18.0712 6.53232 17.9522 6.65355 17.7733 6.65806C17.7698 6.65815 17.7664 6.65818 17.7629 6.65818C17.7629 6.65818 17.7937 6.13794 17.8244 5.83192C17.8494 5.58342 17.806 5.50762 17.5782 5.28109C17.4551 5.15868 17.3628 4.97507 17.3628 4.79146V4.30183C17.3628 4.14882 17.2397 4.02641 17.1166 3.99581C16.7472 3.90401 15.9778 3.751 14.8698 3.751C13.7619 3.751 12.9924 3.90401 12.6231 3.99581C12.4692 4.02641 12.3769 4.14882 12.3769 4.30183V4.79146C12.3769 4.97507 12.3153 5.15868 12.1614 5.28109L12.0691 5.3729C11.946 5.4647 11.8844 5.64831 11.8844 5.80132C11.9152 6.13794 11.946 6.62757 11.946 6.62757C11.9365 6.62757 11.9271 6.62725 11.9178 6.62662C11.7459 6.61486 11.6059 6.49577 11.5767 6.32157L11.2381 4.57726C11.1766 4.08763 11.4228 3.598 11.8537 3.38379L12.0999 3.26138C12.2538 3.16958 12.4077 3.04717 12.5615 2.92476L13.1155 2.34333C13.4541 2.03731 13.9465 1.9455 14.3774 2.15971C14.6852 2.25152 15.0237 2.25152 15.3315 2.15971C15.7931 2.0067 16.3164 2.12911 16.6857 2.46573L17.1473 2.92476C17.2704 3.07777 17.4243 3.16958 17.609 3.26138Z" fill="url(#paint46_radial_4002_1292)"/>
<path d="M17.609 3.26138L17.8552 3.38379C18.2861 3.598 18.5323 4.08763 18.44 4.60787L18.1014 6.35217C18.0712 6.53232 17.9522 6.65355 17.7733 6.65806C17.7698 6.65815 17.7664 6.65818 17.7629 6.65818C17.7629 6.65818 17.7937 6.13794 17.8244 5.83192C17.8494 5.58342 17.806 5.50762 17.5782 5.28109C17.4551 5.15868 17.3628 4.97507 17.3628 4.79146V4.30183C17.3628 4.14882 17.2397 4.02641 17.1166 3.99581C16.7472 3.90401 15.9778 3.751 14.8698 3.751C13.7619 3.751 12.9924 3.90401 12.6231 3.99581C12.4692 4.02641 12.3769 4.14882 12.3769 4.30183V4.79146C12.3769 4.97507 12.3153 5.15868 12.1614 5.28109L12.0691 5.3729C11.946 5.4647 11.8844 5.64831 11.8844 5.80132C11.9152 6.13794 11.946 6.62757 11.946 6.62757C11.9365 6.62757 11.9271 6.62725 11.9178 6.62662C11.7459 6.61486 11.6059 6.49577 11.5767 6.32157L11.2381 4.57726C11.1766 4.08763 11.4228 3.598 11.8537 3.38379L12.0999 3.26138C12.2538 3.16958 12.4077 3.04717 12.5615 2.92476L13.1155 2.34333C13.4541 2.03731 13.9465 1.9455 14.3774 2.15971C14.6852 2.25152 15.0237 2.25152 15.3315 2.15971C15.7931 2.0067 16.3164 2.12911 16.6857 2.46573L17.1473 2.92476C17.2704 3.07777 17.4243 3.16958 17.609 3.26138Z" fill="url(#paint47_radial_4002_1292)"/>
<path d="M17.609 3.26138L17.8552 3.38379C18.2861 3.598 18.5323 4.08763 18.44 4.60787L18.1014 6.35217C18.0712 6.53232 17.9522 6.65355 17.7733 6.65806C17.7698 6.65815 17.7664 6.65818 17.7629 6.65818C17.7629 6.65818 17.7937 6.13794 17.8244 5.83192C17.8494 5.58342 17.806 5.50762 17.5782 5.28109C17.4551 5.15868 17.3628 4.97507 17.3628 4.79146V4.30183C17.3628 4.14882 17.2397 4.02641 17.1166 3.99581C16.7472 3.90401 15.9778 3.751 14.8698 3.751C13.7619 3.751 12.9924 3.90401 12.6231 3.99581C12.4692 4.02641 12.3769 4.14882 12.3769 4.30183V4.79146C12.3769 4.97507 12.3153 5.15868 12.1614 5.28109L12.0691 5.3729C11.946 5.4647 11.8844 5.64831 11.8844 5.80132C11.9152 6.13794 11.946 6.62757 11.946 6.62757C11.9365 6.62757 11.9271 6.62725 11.9178 6.62662C11.7459 6.61486 11.6059 6.49577 11.5767 6.32157L11.2381 4.57726C11.1766 4.08763 11.4228 3.598 11.8537 3.38379L12.0999 3.26138C12.2538 3.16958 12.4077 3.04717 12.5615 2.92476L13.1155 2.34333C13.4541 2.03731 13.9465 1.9455 14.3774 2.15971C14.6852 2.25152 15.0237 2.25152 15.3315 2.15971C15.7931 2.0067 16.3164 2.12911 16.6857 2.46573L17.1473 2.92476C17.2704 3.07777 17.4243 3.16958 17.609 3.26138Z" fill="url(#paint48_radial_4002_1292)"/>
</g>
<g filter="url(#filter22_f_4002_1292)">
<path d="M14.686 6.90811L14.2153 7.88331C14.1569 8.08391 14.2969 8.2845 14.4953 8.2845H14.9183C15.1167 8.2845 15.2567 8.08082 15.1984 7.88331L14.9125 6.90811C14.8512 6.69209 14.7501 6.69209 14.686 6.90811Z" fill="#332024"/>
</g>
<path d="M14.6245 6.81461L14.3197 7.78981C14.2574 7.9904 14.4068 8.191 14.6183 8.191H15.0694C15.281 8.191 15.4303 7.98732 15.3681 7.78981L15.0632 6.81461C14.9979 6.59858 14.693 6.59858 14.6245 6.81461Z" fill="#4B3034"/>
<path d="M14.6245 6.81461L14.3197 7.78981C14.2574 7.9904 14.4068 8.191 14.6183 8.191H15.0694C15.281 8.191 15.4303 7.98732 15.3681 7.78981L15.0632 6.81461C14.9979 6.59858 14.693 6.59858 14.6245 6.81461Z" fill="url(#paint49_linear_4002_1292)"/>
<path d="M14.6245 6.81461L14.3197 7.78981C14.2574 7.9904 14.4068 8.191 14.6183 8.191H15.0694C15.281 8.191 15.4303 7.98732 15.3681 7.78981L15.0632 6.81461C14.9979 6.59858 14.693 6.59858 14.6245 6.81461Z" fill="url(#paint50_linear_4002_1292)"/>
<path d="M14.6245 6.81461L14.3197 7.78981C14.2574 7.9904 14.4068 8.191 14.6183 8.191H15.0694C15.281 8.191 15.4303 7.98732 15.3681 7.78981L15.0632 6.81461C14.9979 6.59858 14.693 6.59858 14.6245 6.81461Z" fill="url(#paint51_linear_4002_1292)"/>
<path d="M14.6245 6.81461L14.3197 7.78981C14.2574 7.9904 14.4068 8.191 14.6183 8.191H15.0694C15.281 8.191 15.4303 7.98732 15.3681 7.78981L15.0632 6.81461C14.9979 6.59858 14.693 6.59858 14.6245 6.81461Z" fill="url(#paint52_radial_4002_1292)"/>
<path d="M14.6245 6.81461L14.3197 7.78981C14.2574 7.9904 14.4068 8.191 14.6183 8.191H15.0694C15.281 8.191 15.4303 7.98732 15.3681 7.78981L15.0632 6.81461C14.9979 6.59858 14.693 6.59858 14.6245 6.81461Z" fill="url(#paint53_linear_4002_1292)"/>
<path d="M14.8439 8.77402C14.5528 8.77402 14.2792 8.70551 14.0492 8.58562C13.9706 8.54565 13.8862 8.63415 13.9357 8.70551C14.1278 8.99669 14.4626 9.1908 14.8439 9.1908C15.2253 9.1908 15.5601 8.99669 15.7522 8.70551C15.8017 8.63129 15.7173 8.54565 15.6387 8.58562C15.4087 8.70551 15.138 8.77402 14.8439 8.77402Z" fill="#2A0219" stroke="url(#paint54_linear_4002_1292)" stroke-width="0.1"/>
<path d="M14.8439 8.77402C14.5528 8.77402 14.2792 8.70551 14.0492 8.58562C13.9706 8.54565 13.8862 8.63415 13.9357 8.70551C14.1278 8.99669 14.4626 9.1908 14.8439 9.1908C15.2253 9.1908 15.5601 8.99669 15.7522 8.70551C15.8017 8.63129 15.7173 8.54565 15.6387 8.58562C15.4087 8.70551 15.138 8.77402 14.8439 8.77402Z" fill="#2A0219"/>
<g filter="url(#filter23_i_4002_1292)">
<path d="M16.9781 5.41747L16.9774 5.41689L16.9763 5.41601L16.9738 5.41391L16.9669 5.40844C16.9615 5.40424 16.9546 5.39898 16.9463 5.39284C16.9295 5.38056 16.9067 5.36469 16.878 5.34675C16.8209 5.31097 16.7398 5.26638 16.6372 5.22582C16.4312 5.14439 16.1371 5.07878 15.7807 5.13505C15.6137 5.16143 15.4996 5.31823 15.526 5.48528C15.5524 5.65233 15.7092 5.76637 15.8762 5.74C16.1045 5.70396 16.2872 5.74604 16.412 5.79537C16.4748 5.82019 16.5226 5.84676 16.5529 5.86578C16.568 5.87525 16.5786 5.88269 16.5843 5.88688C16.5867 5.88862 16.5882 5.88979 16.5888 5.89028C16.7187 5.99617 16.91 5.978 17.0175 5.84894C17.1258 5.71901 17.108 5.52574 16.9781 5.41747Z" fill="#1E1E1E"/>
</g>
<g filter="url(#filter24_i_4002_1292)">
<path d="M12.6788 5.41765L12.6792 5.41729L12.6797 5.41689L12.6808 5.41601L12.6834 5.41391L12.6902 5.40844C12.6956 5.40424 12.7025 5.39898 12.7109 5.39284C12.7276 5.38056 12.7505 5.36469 12.7791 5.34675C12.8362 5.31097 12.9173 5.26638 13.0199 5.22582C13.2259 5.14439 13.5201 5.07878 13.8764 5.13505C14.0435 5.16143 14.1575 5.31823 14.1311 5.48528C14.1047 5.65233 13.9479 5.76637 13.7809 5.74C13.5526 5.70396 13.3699 5.74604 13.2451 5.79537C13.1823 5.82019 13.1346 5.84676 13.1042 5.86578C13.0891 5.87525 13.0785 5.88269 13.0728 5.88688C13.0704 5.88862 13.0689 5.88979 13.0683 5.89028C12.9384 5.99617 12.7471 5.978 12.6396 5.84894C12.5313 5.71901 12.5489 5.52592 12.6788 5.41765Z" fill="#1E1E1E"/>
</g>
<path d="M16.2141 6.15723C16.5888 6.15723 16.9052 6.41553 16.9913 6.76459C17.0169 6.86465 16.9401 6.96006 16.8378 6.96006H15.5579C15.4764 6.96006 15.4113 6.88559 15.4276 6.80415C15.4997 6.43647 15.8232 6.15723 16.2141 6.15723Z" fill="white"/>
<path d="M16.0953 6.31323C16.3792 6.31323 16.6073 6.54361 16.6073 6.82518C16.6073 6.87172 16.6003 6.91827 16.5887 6.96015H15.5997C15.588 6.91594 15.5811 6.87172 15.5811 6.82518C15.5811 6.54361 15.8114 6.31323 16.0953 6.31323Z" fill="url(#paint55_radial_4002_1292)"/>
<path d="M15.8022 6.82519C15.8022 6.6623 15.9326 6.53198 16.0955 6.53198C16.2583 6.53198 16.3887 6.6623 16.3887 6.82519C16.3887 6.87406 16.377 6.9206 16.3561 6.96016H15.8372C15.8139 6.9206 15.8022 6.87406 15.8022 6.82519Z" fill="black"/>
<g filter="url(#filter25_f_4002_1292)">
<path d="M16.0563 6.42202C16.0927 6.47063 16.0167 6.52989 15.9303 6.59447C15.844 6.65904 15.7799 6.70449 15.7435 6.65588C15.7072 6.60727 15.7478 6.51552 15.8341 6.45094C15.9205 6.38636 16.02 6.37342 16.0563 6.42202Z" fill="#C7A7A3"/>
<path d="M16.0563 6.42202C16.0927 6.47063 16.0167 6.52989 15.9303 6.59447C15.844 6.65904 15.7799 6.70449 15.7435 6.65588C15.7072 6.60727 15.7478 6.51552 15.8341 6.45094C15.9205 6.38636 16.02 6.37342 16.0563 6.42202Z" fill="url(#paint56_radial_4002_1292)"/>
</g>
<g filter="url(#filter26_f_4002_1292)">
<path d="M16.5503 6.7569C16.5315 6.62503 16.4543 6.52564 16.4181 6.49243L16.2695 6.65546L16.3366 6.78588L16.5503 6.7569Z" fill="url(#paint57_linear_4002_1292)"/>
</g>
<path d="M13.471 6.15723C13.0963 6.15723 12.7798 6.41554 12.6937 6.76462C12.6681 6.86469 12.7449 6.9601 12.8473 6.9601H14.1272C14.2087 6.9601 14.2738 6.88563 14.2575 6.80418C14.1854 6.43649 13.8596 6.15723 13.471 6.15723Z" fill="white"/>
<path d="M13.5896 6.31323C13.3057 6.31323 13.0776 6.54362 13.0776 6.82521C13.0776 6.87175 13.0846 6.9183 13.0963 6.96018H14.0853C14.0969 6.91597 14.1039 6.87175 14.1039 6.82521C14.1016 6.54362 13.8735 6.31323 13.5896 6.31323Z" fill="url(#paint58_radial_4002_1292)"/>
<path d="M13.8828 6.82521C13.8828 6.6623 13.7525 6.53198 13.5896 6.53198C13.4267 6.53198 13.2964 6.6623 13.2964 6.82521C13.2964 6.87408 13.308 6.92062 13.329 6.96018H13.8479C13.8689 6.92062 13.8828 6.87408 13.8828 6.82521Z" fill="black"/>
<g filter="url(#filter27_f_4002_1292)">
<path d="M14.0561 6.76401C14.0561 6.59916 13.922 6.48927 13.8858 6.45605L13.7209 6.61547L13.8224 6.82198L14.0561 6.76401Z" fill="url(#paint59_linear_4002_1292)"/>
</g>
<g filter="url(#filter28_f_4002_1292)">
<ellipse cx="13.4344" cy="6.53196" rx="0.222697" ry="0.112705" transform="rotate(-27.914 13.4344 6.53196)" fill="#C7A7A3" fill-opacity="0.9"/>
<ellipse cx="13.4344" cy="6.53196" rx="0.222697" ry="0.112705" transform="rotate(-27.914 13.4344 6.53196)" fill="url(#paint60_radial_4002_1292)"/>
</g>
<g filter="url(#filter29_f_4002_1292)">
<path d="M15.7966 5.33451C16.0434 5.29132 16.5246 5.30366 16.8578 5.56278" stroke="url(#paint61_linear_4002_1292)" stroke-width="0.25" stroke-linecap="round"/>
</g>
<g filter="url(#filter30_f_4002_1292)">
<path d="M12.8021 5.63214C12.9898 5.46624 13.3997 5.29154 13.9078 5.37254" stroke="url(#paint62_linear_4002_1292)" stroke-width="0.25" stroke-linecap="round"/>
</g>
<g filter="url(#filter31_f_4002_1292)">
<path d="M12.2431 4.21753V4.73252C12.2386 4.81779 12.2027 5.00853 12.095 5.08931" stroke="url(#paint63_linear_4002_1292)" stroke-width="0.25" stroke-linecap="round"/>
</g>
<g filter="url(#filter32_f_4002_1292)">
<path d="M18.4578 12.4336L20.3417 14.3755C20.4359 14.4726 20.5653 14.5273 20.7006 14.5273H23.9578" stroke="url(#paint64_radial_4002_1292)" stroke-width="0.6" stroke-linecap="round"/>
</g>
<defs>
<filter id="filter0_ii_4002_1292" x="4.98315" y="16.3242" width="16.9701" height="13.6261" filterUnits="userSpaceOnUse" color-interpolation-filters="sRGB">
<feFlood flood-opacity="0" result="BackgroundImageFix"/>
<feBlend mode="normal" in="SourceGraphic" in2="BackgroundImageFix" result="shape"/>
<feColorMatrix in="SourceAlpha" type="matrix" values="0 0 0 0 0 0 0 0 0 0 0 0 0 0 0 0 0 0 127 0" result="hardAlpha"/>
<feOffset dx="1.25"/>
<feGaussianBlur stdDeviation="1.25"/>
<feComposite in2="hardAlpha" operator="arithmetic" k2="-1" k3="1"/>
<feColorMatrix type="matrix" values="0 0 0 0 0.223529 0 0 0 0 0.623529 0 0 0 0 0.317647 0 0 0 1 0"/>
<feBlend mode="normal" in2="shape" result="effect1_innerShadow_4002_1292"/>
<feColorMatrix in="SourceAlpha" type="matrix" values="0 0 0 0 0 0 0 0 0 0 0 0 0 0 0 0 0 0 127 0" result="hardAlpha"/>
<feOffset dy="-0.25"/>
<feGaussianBlur stdDeviation="0.5"/>
<feComposite in2="hardAlpha" operator="arithmetic" k2="-1" k3="1"/>
<feColorMatrix type="matrix" values="0 0 0 0 0.313726 0 0 0 0 0.576471 0 0 0 0 0.541176 0 0 0 1 0"/>
<feBlend mode="normal" in2="effect1_innerShadow_4002_1292" result="effect2_innerShadow_4002_1292"/>
</filter>
<filter id="filter1_f_4002_1292" x="12.427" y="15.2773" width="8.8027" height="12.4531" filterUnits="userSpaceOnUse" color-interpolation-filters="sRGB">
<feFlood flood-opacity="0" result="BackgroundImageFix"/>
<feBlend mode="normal" in="SourceGraphic" in2="BackgroundImageFix" result="shape"/>
<feGaussianBlur stdDeviation="0.5" result="effect1_foregroundBlur_4002_1292"/>
</filter>
<filter id="filter2_f_4002_1292" x="8.17295" y="25.8631" width="11.112" height="3.61458" filterUnits="userSpaceOnUse" color-interpolation-filters="sRGB">
<feFlood flood-opacity="0" result="BackgroundImageFix"/>
<feBlend mode="normal" in="SourceGraphic" in2="BackgroundImageFix" result="shape"/>
<feGaussianBlur stdDeviation="0.2" result="effect1_foregroundBlur_4002_1292"/>
</filter>
<filter id="filter3_f_4002_1292" x="5.58891" y="23.8936" width="3.29683" height="3.16975" filterUnits="userSpaceOnUse" color-interpolation-filters="sRGB">
<feFlood flood-opacity="0" result="BackgroundImageFix"/>
<feBlend mode="normal" in="SourceGraphic" in2="BackgroundImageFix" result="shape"/>
<feGaussianBlur stdDeviation="0.2" result="effect1_foregroundBlur_4002_1292"/>
</filter>
<filter id="filter4_f_4002_1292" x="8.85069" y="23.3747" width="3.08494" height="3.03193" filterUnits="userSpaceOnUse" color-interpolation-filters="sRGB">
<feFlood flood-opacity="0" result="BackgroundImageFix"/>
<feBlend mode="normal" in="SourceGraphic" in2="BackgroundImageFix" result="shape"/>
<feGaussianBlur stdDeviation="0.2" result="effect1_foregroundBlur_4002_1292"/>
</filter>
<filter id="filter5_ii_4002_1292" x="16.5503" y="10.0023" width="8.45312" height="5.97813" filterUnits="userSpaceOnUse" color-interpolation-filters="sRGB">
<feFlood flood-opacity="0" result="BackgroundImageFix"/>
<feBlend mode="normal" in="SourceGraphic" in2="BackgroundImageFix" result="shape"/>
<feColorMatrix in="SourceAlpha" type="matrix" values="0 0 0 0 0 0 0 0 0 0 0 0 0 0 0 0 0 0 127 0" result="hardAlpha"/>
<feOffset dy="-0.4"/>
<feGaussianBlur stdDeviation="0.4"/>
<feComposite in2="hardAlpha" operator="arithmetic" k2="-1" k3="1"/>
<feColorMatrix type="matrix" values="0 0 0 0 0.219608 0 0 0 0 0.168627 0 0 0 0 0.219608 0 0 0 1 0"/>
<feBlend mode="normal" in2="shape" result="effect1_innerShadow_4002_1292"/>
<feColorMatrix in="SourceAlpha" type="matrix" values="0 0 0 0 0 0 0 0 0 0 0 0 0 0 0 0 0 0 127 0" result="hardAlpha"/>
<feOffset dy="-0.2"/>
<feGaussianBlur stdDeviation="0.2"/>
<feComposite in2="hardAlpha" operator="arithmetic" k2="-1" k3="1"/>
<feColorMatrix type="matrix" values="0 0 0 0 0.176471 0 0 0 0 0.0980392 0 0 0 0 0.12549 0 0 0 1 0"/>
<feBlend mode="normal" in2="effect1_innerShadow_4002_1292" result="effect2_innerShadow_4002_1292"/>
</filter>
<filter id="filter6_i_4002_1292" x="23.3635" y="9.27197" width="2.96329" height="1.15771" filterUnits="userSpaceOnUse" color-interpolation-filters="sRGB">
<feFlood flood-opacity="0" result="BackgroundImageFix"/>
<feBlend mode="normal" in="SourceGraphic" in2="BackgroundImageFix" result="shape"/>
<feColorMatrix in="SourceAlpha" type="matrix" values="0 0 0 0 0 0 0 0 0 0 0 0 0 0 0 0 0 0 127 0" result="hardAlpha"/>
<feOffset dy="-0.25"/>
<feGaussianBlur stdDeviation="0.2"/>
<feComposite in2="hardAlpha" operator="arithmetic" k2="-1" k3="1"/>
<feColorMatrix type="matrix" values="0 0 0 0 0.870588 0 0 0 0 0.541176 0 0 0 0 0.227451 0 0 0 1 0"/>
<feBlend mode="normal" in2="shape" result="effect1_innerShadow_4002_1292"/>
</filter>
<filter id="filter7_i_4002_1292" x="20.6694" y="1.98838" width="8.43765" height="7.53347" filterUnits="userSpaceOnUse" color-interpolation-filters="sRGB">
<feFlood flood-opacity="0" result="BackgroundImageFix"/>
<feBlend mode="normal" in="SourceGraphic" in2="BackgroundImageFix" result="shape"/>
<feColorMatrix in="SourceAlpha" type="matrix" values="0 0 0 0 0 0 0 0 0 0 0 0 0 0 0 0 0 0 127 0" result="hardAlpha"/>
<feOffset dx="0.1" dy="-0.1"/>
<feGaussianBlur stdDeviation="0.3"/>
<feComposite in2="hardAlpha" operator="arithmetic" k2="-1" k3="1"/>
<feColorMatrix type="matrix" values="0 0 0 0 0.85098 0 0 0 0 0.517647 0 0 0 0 0.34902 0 0 0 1 0"/>
<feBlend mode="normal" in2="shape" result="effect1_innerShadow_4002_1292"/>
</filter>
<filter id="filter8_i_4002_1292" x="24.6897" y="13.007" width="1.76473" height="3.0125" filterUnits="userSpaceOnUse" color-interpolation-filters="sRGB">
<feFlood flood-opacity="0" result="BackgroundImageFix"/>
<feBlend mode="normal" in="SourceGraphic" in2="BackgroundImageFix" result="shape"/>
<feColorMatrix in="SourceAlpha" type="matrix" values="0 0 0 0 0 0 0 0 0 0 0 0 0 0 0 0 0 0 127 0" result="hardAlpha"/>
<feOffset dx="0.2" dy="-0.2"/>
<feGaussianBlur stdDeviation="0.2"/>
<feComposite in2="hardAlpha" operator="arithmetic" k2="-1" k3="1"/>
<feColorMatrix type="matrix" values="0 0 0 0 0.231373 0 0 0 0 0.156863 0 0 0 0 0.141176 0 0 0 1 0"/>
<feBlend mode="normal" in2="shape" result="effect1_innerShadow_4002_1292"/>
</filter>
<filter id="filter9_i_4002_1292" x="2.99292" y="10.1909" width="10.0533" height="7.20837" filterUnits="userSpaceOnUse" color-interpolation-filters="sRGB">
<feFlood flood-opacity="0" result="BackgroundImageFix"/>
<feBlend mode="normal" in="SourceGraphic" in2="BackgroundImageFix" result="shape"/>
<feColorMatrix in="SourceAlpha" type="matrix" values="0 0 0 0 0 0 0 0 0 0 0 0 0 0 0 0 0 0 127 0" result="hardAlpha"/>
<feOffset dy="-0.25"/>
<feGaussianBlur stdDeviation="0.375"/>
<feComposite in2="hardAlpha" operator="arithmetic" k2="-1" k3="1"/>
<feColorMatrix type="matrix" values="0 0 0 0 0.25098 0 0 0 0 0.14902 0 0 0 0 0.243137 0 0 0 1 0"/>
<feBlend mode="normal" in2="shape" result="effect1_innerShadow_4002_1292"/>
</filter>
<filter id="filter10_f_4002_1292" x="26.7774" y="3.21797" width="2.20939" height="5.70847" filterUnits="userSpaceOnUse" color-interpolation-filters="sRGB">
<feFlood flood-opacity="0" result="BackgroundImageFix"/>
<feBlend mode="normal" in="SourceGraphic" in2="BackgroundImageFix" result="shape"/>
<feGaussianBlur stdDeviation="0.1" result="effect1_foregroundBlur_4002_1292"/>
</filter>
<filter id="filter11_f_4002_1292" x="26.5687" y="2.3011" width="1.75936" height="1.29966" filterUnits="userSpaceOnUse" color-interpolation-filters="sRGB">
<feFlood flood-opacity="0" result="BackgroundImageFix"/>
<feBlend mode="normal" in="SourceGraphic" in2="BackgroundImageFix" result="shape"/>
<feGaussianBlur stdDeviation="0.1" result="effect1_foregroundBlur_4002_1292"/>
</filter>
<filter id="filter12_f_4002_1292" x="24.5722" y="2.07734" width="1.18949" height="1.34531" filterUnits="userSpaceOnUse" color-interpolation-filters="sRGB">
<feFlood flood-opacity="0" result="BackgroundImageFix"/>
<feBlend mode="normal" in="SourceGraphic" in2="BackgroundImageFix" result="shape"/>
<feGaussianBlur stdDeviation="0.1" result="effect1_foregroundBlur_4002_1292"/>
</filter>
<filter id="filter13_f_4002_1292" x="24.6559" y="3.29609" width="2.58582" height="5.95164" filterUnits="userSpaceOnUse" color-interpolation-filters="sRGB">
<feFlood flood-opacity="0" result="BackgroundImageFix"/>
<feBlend mode="normal" in="SourceGraphic" in2="BackgroundImageFix" result="shape"/>
<feGaussianBlur stdDeviation="0.1" result="effect1_foregroundBlur_4002_1292"/>
</filter>
<filter id="filter14_f_4002_1292" x="20.962" y="2.37422" width="2.94837" height="6.85935" filterUnits="userSpaceOnUse" color-interpolation-filters="sRGB">
<feFlood flood-opacity="0" result="BackgroundImageFix"/>
<feBlend mode="normal" in="SourceGraphic" in2="BackgroundImageFix" result="shape"/>
<feGaussianBlur stdDeviation="0.1" result="effect1_foregroundBlur_4002_1292"/>
</filter>
<filter id="filter15_i_4002_1292" x="11.1619" y="6.02026" width="2.1158" height="1.91577" filterUnits="userSpaceOnUse" color-interpolation-filters="sRGB">
<feFlood flood-opacity="0" result="BackgroundImageFix"/>
<feBlend mode="normal" in="SourceGraphic" in2="BackgroundImageFix" result="shape"/>
<feColorMatrix in="SourceAlpha" type="matrix" values="0 0 0 0 0 0 0 0 0 0 0 0 0 0 0 0 0 0 127 0" result="hardAlpha"/>
<feOffset dx="0.2"/>
<feGaussianBlur stdDeviation="0.15"/>
<feComposite in2="hardAlpha" operator="arithmetic" k2="-1" k3="1"/>
<feColorMatrix type="matrix" values="0 0 0 0 0.341176 0 0 0 0 0.270588 0 0 0 0 0.254902 0 0 0 1 0"/>
<feBlend mode="normal" in2="shape" result="effect1_innerShadow_4002_1292"/>
</filter>
<filter id="filter16_f_4002_1292" x="11.0488" y="5.90723" width="2.14178" height="2.14185" filterUnits="userSpaceOnUse" color-interpolation-filters="sRGB">
<feFlood flood-opacity="0" result="BackgroundImageFix"/>
<feBlend mode="normal" in="SourceGraphic" in2="BackgroundImageFix" result="shape"/>
<feGaussianBlur stdDeviation="0.25" result="effect1_foregroundBlur_4002_1292"/>
</filter>
<filter id="filter17_i_4002_1292" x="16.6204" y="5.77026" width="2.1658" height="2.16577" filterUnits="userSpaceOnUse" color-interpolation-filters="sRGB">
<feFlood flood-opacity="0" result="BackgroundImageFix"/>
<feBlend mode="normal" in="SourceGraphic" in2="BackgroundImageFix" result="shape"/>
<feColorMatrix in="SourceAlpha" type="matrix" values="0 0 0 0 0 0 0 0 0 0 0 0 0 0 0 0 0 0 127 0" result="hardAlpha"/>
<feOffset dx="0.25" dy="-0.25"/>
<feGaussianBlur stdDeviation="0.25"/>
<feComposite in2="hardAlpha" operator="arithmetic" k2="-1" k3="1"/>
<feColorMatrix type="matrix" values="0 0 0 0 0.243137 0 0 0 0 0.141176 0 0 0 0 0.223529 0 0 0 1 0"/>
<feBlend mode="normal" in2="shape" result="effect1_innerShadow_4002_1292"/>
</filter>
<filter id="filter18_f_4002_1292" x="16.5073" y="5.90723" width="2.14178" height="2.14185" filterUnits="userSpaceOnUse" color-interpolation-filters="sRGB">
<feFlood flood-opacity="0" result="BackgroundImageFix"/>
<feBlend mode="normal" in="SourceGraphic" in2="BackgroundImageFix" result="shape"/>
<feGaussianBlur stdDeviation="0.25" result="effect1_foregroundBlur_4002_1292"/>
</filter>
<filter id="filter19_i_4002_1292" x="11.8845" y="3.75098" width="5.95218" height="7.00137" filterUnits="userSpaceOnUse" color-interpolation-filters="sRGB">
<feFlood flood-opacity="0" result="BackgroundImageFix"/>
<feBlend mode="normal" in="SourceGraphic" in2="BackgroundImageFix" result="shape"/>
<feColorMatrix in="SourceAlpha" type="matrix" values="0 0 0 0 0 0 0 0 0 0 0 0 0 0 0 0 0 0 127 0" result="hardAlpha"/>
<feOffset dy="0.1"/>
<feGaussianBlur stdDeviation="0.075"/>
<feComposite in2="hardAlpha" operator="arithmetic" k2="-1" k3="1"/>
<feColorMatrix type="matrix" values="0 0 0 0 0.109804 0 0 0 0 0.0509804 0 0 0 0 0.0509804 0 0 0 1 0"/>
<feBlend mode="normal" in2="shape" result="effect1_innerShadow_4002_1292"/>
</filter>
<filter id="filter20_f_4002_1292" x="13.9413" y="2.75098" width="4.43633" height="3.75964" filterUnits="userSpaceOnUse" color-interpolation-filters="sRGB">
<feFlood flood-opacity="0" result="BackgroundImageFix"/>
<feBlend mode="normal" in="SourceGraphic" in2="BackgroundImageFix" result="shape"/>
<feGaussianBlur stdDeviation="0.5" result="effect1_foregroundBlur_4002_1292"/>
</filter>
<filter id="filter21_i_4002_1292" x="11.2288" y="1.54297" width="7.23051" height="5.11523" filterUnits="userSpaceOnUse" color-interpolation-filters="sRGB">
<feFlood flood-opacity="0" result="BackgroundImageFix"/>
<feBlend mode="normal" in="SourceGraphic" in2="BackgroundImageFix" result="shape"/>
<feColorMatrix in="SourceAlpha" type="matrix" values="0 0 0 0 0 0 0 0 0 0 0 0 0 0 0 0 0 0 127 0" result="hardAlpha"/>
<feOffset dy="-0.5"/>
<feGaussianBlur stdDeviation="0.375"/>
<feComposite in2="hardAlpha" operator="arithmetic" k2="-1" k3="1"/>
<feColorMatrix type="matrix" values="0 0 0 0 0.0392157 0 0 0 0 0.00784314 0 0 0 0 0.0196078 0 0 0 1 0"/>
<feBlend mode="normal" in2="shape" result="effect1_innerShadow_4002_1292"/>
</filter>
<filter id="filter22_f_4002_1292" x="13.4519" y="5.99609" width="2.50983" height="3.03845" filterUnits="userSpaceOnUse" color-interpolation-filters="sRGB">
<feFlood flood-opacity="0" result="BackgroundImageFix"/>
<feBlend mode="normal" in="SourceGraphic" in2="BackgroundImageFix" result="shape"/>
<feGaussianBlur stdDeviation="0.375" result="effect1_foregroundBlur_4002_1292"/>
</filter>
<filter id="filter23_i_4002_1292" x="15.5222" y="4.71401" width="1.81622" height="1.24509" filterUnits="userSpaceOnUse" color-interpolation-filters="sRGB">
<feFlood flood-opacity="0" result="BackgroundImageFix"/>
<feBlend mode="normal" in="SourceGraphic" in2="BackgroundImageFix" result="shape"/>
<feColorMatrix in="SourceAlpha" type="matrix" values="0 0 0 0 0 0 0 0 0 0 0 0 0 0 0 0 0 0 127 0" result="hardAlpha"/>
<feOffset dx="0.25" dy="-0.4"/>
<feGaussianBlur stdDeviation="0.3"/>
<feComposite in2="hardAlpha" operator="arithmetic" k2="-1" k3="1"/>
<feColorMatrix type="matrix" values="0 0 0 0 0.0431373 0 0 0 0 0.0196078 0 0 0 0 0.027451 0 0 0 1 0"/>
<feBlend mode="normal" in2="shape" result="effect1_innerShadow_4002_1292"/>
</filter>
<filter id="filter24_i_4002_1292" x="12.5686" y="4.71401" width="1.8163" height="1.24509" filterUnits="userSpaceOnUse" color-interpolation-filters="sRGB">
<feFlood flood-opacity="0" result="BackgroundImageFix"/>
<feBlend mode="normal" in="SourceGraphic" in2="BackgroundImageFix" result="shape"/>
<feColorMatrix in="SourceAlpha" type="matrix" values="0 0 0 0 0 0 0 0 0 0 0 0 0 0 0 0 0 0 127 0" result="hardAlpha"/>
<feOffset dx="0.25" dy="-0.4"/>
<feGaussianBlur stdDeviation="0.3"/>
<feComposite in2="hardAlpha" operator="arithmetic" k2="-1" k3="1"/>
<feColorMatrix type="matrix" values="0 0 0 0 0.0431373 0 0 0 0 0.0196078 0 0 0 0 0.027451 0 0 0 1 0"/>
<feBlend mode="normal" in2="shape" result="effect1_innerShadow_4002_1292"/>
</filter>
<filter id="filter25_f_4002_1292" x="15.6302" y="6.29258" width="0.535419" height="0.483691" filterUnits="userSpaceOnUse" color-interpolation-filters="sRGB">
<feFlood flood-opacity="0" result="BackgroundImageFix"/>
<feBlend mode="normal" in="SourceGraphic" in2="BackgroundImageFix" result="shape"/>
<feGaussianBlur stdDeviation="0.05" result="effect1_foregroundBlur_4002_1292"/>
</filter>
<filter id="filter26_f_4002_1292" x="16.0695" y="6.29243" width="0.680777" height="0.693457" filterUnits="userSpaceOnUse" color-interpolation-filters="sRGB">
<feFlood flood-opacity="0" result="BackgroundImageFix"/>
<feBlend mode="normal" in="SourceGraphic" in2="BackgroundImageFix" result="shape"/>
<feGaussianBlur stdDeviation="0.1" result="effect1_foregroundBlur_4002_1292"/>
</filter>
<filter id="filter27_f_4002_1292" x="13.5209" y="6.25605" width="0.735129" height="0.765967" filterUnits="userSpaceOnUse" color-interpolation-filters="sRGB">
<feFlood flood-opacity="0" result="BackgroundImageFix"/>
<feBlend mode="normal" in="SourceGraphic" in2="BackgroundImageFix" result="shape"/>
<feGaussianBlur stdDeviation="0.1" result="effect1_foregroundBlur_4002_1292"/>
</filter>
<filter id="filter28_f_4002_1292" x="13.1306" y="6.28782" width="0.607578" height="0.48833" filterUnits="userSpaceOnUse" color-interpolation-filters="sRGB">
<feFlood flood-opacity="0" result="BackgroundImageFix"/>
<feBlend mode="normal" in="SourceGraphic" in2="BackgroundImageFix" result="shape"/>
<feGaussianBlur stdDeviation="0.05" result="effect1_foregroundBlur_4002_1292"/>
</filter>
<filter id="filter29_f_4002_1292" x="15.3716" y="4.89043" width="1.91117" height="1.09731" filterUnits="userSpaceOnUse" color-interpolation-filters="sRGB">
<feFlood flood-opacity="0" result="BackgroundImageFix"/>
<feBlend mode="normal" in="SourceGraphic" in2="BackgroundImageFix" result="shape"/>
<feGaussianBlur stdDeviation="0.15" result="effect1_foregroundBlur_4002_1292"/>
</filter>
<filter id="filter30_f_4002_1292" x="12.3771" y="4.92705" width="1.95579" height="1.13015" filterUnits="userSpaceOnUse" color-interpolation-filters="sRGB">
<feFlood flood-opacity="0" result="BackgroundImageFix"/>
<feBlend mode="normal" in="SourceGraphic" in2="BackgroundImageFix" result="shape"/>
<feGaussianBlur stdDeviation="0.15" result="effect1_foregroundBlur_4002_1292"/>
</filter>
<filter id="filter31_f_4002_1292" x="11.72" y="3.84253" width="0.898102" height="1.62183" filterUnits="userSpaceOnUse" color-interpolation-filters="sRGB">
<feFlood flood-opacity="0" result="BackgroundImageFix"/>
<feBlend mode="normal" in="SourceGraphic" in2="BackgroundImageFix" result="shape"/>
<feGaussianBlur stdDeviation="0.125" result="effect1_foregroundBlur_4002_1292"/>
</filter>
<filter id="filter32_f_4002_1292" x="17.5578" y="11.5335" width="7.30001" height="3.89385" filterUnits="userSpaceOnUse" color-interpolation-filters="sRGB">
<feFlood flood-opacity="0" result="BackgroundImageFix"/>
<feBlend mode="normal" in="SourceGraphic" in2="BackgroundImageFix" result="shape"/>
<feGaussianBlur stdDeviation="0.3" result="effect1_foregroundBlur_4002_1292"/>
</filter>
<radialGradient id="paint0_radial_4002_1292" cx="0" cy="0" r="1" gradientUnits="userSpaceOnUse" gradientTransform="translate(8.2012 25.1078) rotate(-17.3128) scale(13.0953 16.0195)">
<stop offset="0.80484" stop-color="#4DCD7D" stop-opacity="0"/>
<stop offset="1" stop-color="#4DCD7D"/>
</radialGradient>
<radialGradient id="paint1_radial_4002_1292" cx="0" cy="0" r="1" gradientUnits="userSpaceOnUse" gradientTransform="translate(20.0461 20.6367) rotate(151.837) scale(4.10507 13.4852)">
<stop stop-color="#4EDD83"/>
<stop offset="1" stop-color="#4EDD83" stop-opacity="0"/>
</radialGradient>
<linearGradient id="paint2_linear_4002_1292" x1="9.11185" y1="27.035" x2="18.219" y2="28.8776" gradientUnits="userSpaceOnUse">
<stop stop-color="#40B87C"/>
<stop offset="1" stop-color="#40B87C" stop-opacity="0"/>
</linearGradient>
<linearGradient id="paint3_linear_4002_1292" x1="7.86215" y1="25.828" x2="5.54737" y2="25.4556" gradientUnits="userSpaceOnUse">
<stop offset="0.302384" stop-color="#40B87C"/>
<stop offset="1" stop-color="#40B87C" stop-opacity="0"/>
</linearGradient>
<linearGradient id="paint4_linear_4002_1292" x1="11.3568" y1="24.1652" x2="10.8262" y2="26.2746" gradientUnits="userSpaceOnUse">
<stop stop-color="#40B87C"/>
<stop offset="1" stop-color="#40B87C" stop-opacity="0"/>
</linearGradient>
<radialGradient id="paint5_radial_4002_1292" cx="0" cy="0" r="1" gradientUnits="userSpaceOnUse" gradientTransform="translate(17.2077 13.0273) rotate(-7.72183) scale(1.86062 7.58158)">
<stop offset="0.231312" stop-color="#4E312F"/>
<stop offset="1" stop-color="#4E312F" stop-opacity="0"/>
</radialGradient>
<radialGradient id="paint6_radial_4002_1292" cx="0" cy="0" r="1" gradientUnits="userSpaceOnUse" gradientTransform="translate(24.8235 29.957) rotate(-90) scale(19.5273 1.08984)">
<stop stop-color="#F8A33E"/>
<stop offset="1" stop-color="#E49C45"/>
</radialGradient>
<radialGradient id="paint7_radial_4002_1292" cx="0" cy="0" r="1" gradientUnits="userSpaceOnUse" gradientTransform="translate(24.8235 28.3242) rotate(-90) scale(17.8945 2.43359)">
<stop offset="0.906352" stop-color="#D6803E" stop-opacity="0"/>
<stop offset="1" stop-color="#D6803E"/>
</radialGradient>
<radialGradient id="paint8_radial_4002_1292" cx="0" cy="0" r="1" gradientUnits="userSpaceOnUse" gradientTransform="translate(24.8235 15.8242) rotate(90) scale(2.3125 1.10912)">
<stop stop-color="#D77735"/>
<stop offset="1" stop-color="#D77735" stop-opacity="0"/>
</radialGradient>
<linearGradient id="paint9_linear_4002_1292" x1="25.4172" y1="20.668" x2="25.1125" y2="20.668" gradientUnits="userSpaceOnUse">
<stop stop-color="#CC802A"/>
<stop offset="1" stop-color="#E69440" stop-opacity="0"/>
</linearGradient>
<radialGradient id="paint10_radial_4002_1292" cx="0" cy="0" r="1" gradientUnits="userSpaceOnUse" gradientTransform="translate(26.1633 9.87112) rotate(-180) scale(1.31815 1.07813)">
<stop stop-color="#EBAF51"/>
<stop offset="1" stop-color="#EBAF51" stop-opacity="0"/>
</radialGradient>
<radialGradient id="paint11_radial_4002_1292" cx="0" cy="0" r="1" gradientUnits="userSpaceOnUse" gradientTransform="translate(27.9758 3.51166) rotate(108.771) scale(5.04985 5.80366)">
<stop stop-color="#F0B438"/>
<stop offset="1" stop-color="#F0A23F"/>
</radialGradient>
<radialGradient id="paint12_radial_4002_1292" cx="0" cy="0" r="1" gradientUnits="userSpaceOnUse" gradientTransform="translate(23.3508 2.08838) rotate(76.1992) scale(8.38407 5.44597)">
<stop offset="0.195386" stop-color="#EBAD2F"/>
<stop offset="1" stop-color="#EBAD2F" stop-opacity="0"/>
</radialGradient>
<radialGradient id="paint13_radial_4002_1292" cx="0" cy="0" r="1" gradientUnits="userSpaceOnUse" gradientTransform="translate(23.1477 2.38666) rotate(131.689) scale(1.33911 0.857613)">
<stop offset="0.0475156" stop-color="#F1C057"/>
<stop offset="1" stop-color="#F1C057" stop-opacity="0"/>
</radialGradient>
<linearGradient id="paint14_linear_4002_1292" x1="25.4721" y1="13.207" x2="25.4721" y2="16.0195" gradientUnits="userSpaceOnUse">
<stop stop-color="#4D3533"/>
<stop offset="1" stop-color="#402630"/>
</linearGradient>
<radialGradient id="paint15_radial_4002_1292" cx="0" cy="0" r="1" gradientUnits="userSpaceOnUse" gradientTransform="translate(26.2545 15.5078) rotate(-180) scale(1.25757 0.320312)">
<stop stop-color="#5E4C49"/>
<stop offset="1" stop-color="#5E4C49" stop-opacity="0"/>
</radialGradient>
<radialGradient id="paint16_radial_4002_1292" cx="0" cy="0" r="1" gradientUnits="userSpaceOnUse" gradientTransform="translate(26.2545 14.707) rotate(-180) scale(1.06226 0.270565)">
<stop stop-color="#5E4C49"/>
<stop offset="1" stop-color="#5E4C49" stop-opacity="0"/>
</radialGradient>
<radialGradient id="paint17_radial_4002_1292" cx="0" cy="0" r="1" gradientUnits="userSpaceOnUse" gradientTransform="translate(26.2545 13.9805) rotate(180) scale(0.976318 0.273438)">
<stop stop-color="#5E4C49"/>
<stop offset="1" stop-color="#5E4C49" stop-opacity="0"/>
</radialGradient>
<radialGradient id="paint18_radial_4002_1292" cx="0" cy="0" r="1" gradientUnits="userSpaceOnUse" gradientTransform="translate(26.2545 13.207) rotate(-180) scale(1.17944 0.289063)">
<stop stop-color="#5E4C49"/>
<stop offset="1" stop-color="#5E4C49" stop-opacity="0"/>
</radialGradient>
<linearGradient id="paint19_linear_4002_1292" x1="24.1946" y1="13.9395" x2="25.7024" y2="13.9395" gradientUnits="userSpaceOnUse">
<stop offset="0.341969" stop-color="#41282F"/>
<stop offset="1" stop-color="#4F3633"/>
</linearGradient>
<radialGradient id="paint20_radial_4002_1292" cx="0" cy="0" r="1" gradientUnits="userSpaceOnUse" gradientTransform="translate(25.7024 13.9395) rotate(-180) scale(0.510315 1.05273)">
<stop stop-color="#604E4C"/>
<stop offset="1" stop-color="#604E4C" stop-opacity="0"/>
</radialGradient>
<radialGradient id="paint21_radial_4002_1292" cx="0" cy="0" r="1" gradientUnits="userSpaceOnUse" gradientTransform="translate(4.24164 16.7462) rotate(-22.0362) scale(0.707969 1.73078)">
<stop stop-color="#362425"/>
<stop offset="1" stop-color="#200E10"/>
</radialGradient>
<linearGradient id="paint22_linear_4002_1292" x1="4.02075" y1="16.8477" x2="4.28851" y2="16.8243" gradientUnits="userSpaceOnUse">
<stop stop-color="#5A4A46"/>
<stop offset="1" stop-color="#2C181A" stop-opacity="0"/>
</linearGradient>
<radialGradient id="paint23_radial_4002_1292" cx="0" cy="0" r="1" gradientUnits="userSpaceOnUse" gradientTransform="translate(4.72589 16.1992) rotate(-24.6769) scale(7.63473 2.90408)">
<stop stop-color="#452D2E"/>
<stop offset="1" stop-color="#472F32"/>
</radialGradient>
<radialGradient id="paint24_radial_4002_1292" cx="0" cy="0" r="1" gradientUnits="userSpaceOnUse" gradientTransform="translate(12.2571 13.6367) rotate(138.102) scale(4.49229 1.70257)">
<stop offset="0.15369" stop-color="#381F21"/>
<stop offset="1" stop-color="#381F21" stop-opacity="0"/>
</radialGradient>
<radialGradient id="paint25_radial_4002_1292" cx="0" cy="0" r="1" gradientUnits="userSpaceOnUse" gradientTransform="translate(17.3196 12.0742) rotate(78.8981) scale(8.43918 6.81572)">
<stop offset="0.125188" stop-color="#4D312E"/>
<stop offset="1" stop-color="#432D2D"/>
</radialGradient>
<radialGradient id="paint26_radial_4002_1292" cx="0" cy="0" r="1" gradientUnits="userSpaceOnUse" gradientTransform="translate(14.8489 10.1211) rotate(156.656) scale(2.72077 1.47309)">
<stop offset="0.295893" stop-color="#180A09"/>
<stop offset="1" stop-color="#3A2624" stop-opacity="0"/>
</radialGradient>
<linearGradient id="paint27_linear_4002_1292" x1="27.2258" y1="3.66797" x2="28.9758" y2="9.40234" gradientUnits="userSpaceOnUse">
<stop stop-color="#F6C059"/>
<stop offset="1" stop-color="#F6C059" stop-opacity="0"/>
</linearGradient>
<linearGradient id="paint28_linear_4002_1292" x1="27.4368" y1="2.80078" x2="27.0666" y2="3.01679" gradientUnits="userSpaceOnUse">
<stop stop-color="#F6C059"/>
<stop offset="1" stop-color="#F6C059" stop-opacity="0"/>
</linearGradient>
<radialGradient id="paint29_radial_4002_1292" cx="0" cy="0" r="1" gradientUnits="userSpaceOnUse" gradientTransform="translate(25.3039 2.81641) rotate(150.945) scale(0.482608 0.957627)">
<stop offset="0.201258" stop-color="#F2BE56"/>
<stop offset="1" stop-color="#F2BE56" stop-opacity="0"/>
</radialGradient>
<linearGradient id="paint30_linear_4002_1292" x1="25.1699" y1="3.75331" x2="27.7175" y2="13.1233" gradientUnits="userSpaceOnUse">
<stop stop-color="#F6C059"/>
<stop offset="0.765094" stop-color="#F6C059" stop-opacity="0"/>
</linearGradient>
<linearGradient id="paint31_linear_4002_1292" x1="21.5175" y1="3.1348" x2="24.2006" y2="13.6859" gradientUnits="userSpaceOnUse">
<stop stop-color="#F6C059"/>
<stop offset="0.765094" stop-color="#F6C059" stop-opacity="0"/>
</linearGradient>
<radialGradient id="paint32_radial_4002_1292" cx="0" cy="0" r="1" gradientUnits="userSpaceOnUse" gradientTransform="translate(11.1619 6.97816) scale(1.0069 1.76209)">
<stop offset="0.350532" stop-color="#362324"/>
<stop offset="1" stop-color="#332423"/>
</radialGradient>
<linearGradient id="paint33_linear_4002_1292" x1="12.1197" y1="7.13801" x2="11.7522" y2="7.13801" gradientUnits="userSpaceOnUse">
<stop stop-color="#281920"/>
<stop offset="1" stop-color="#27161D"/>
</linearGradient>
<linearGradient id="paint34_linear_4002_1292" x1="18.2016" y1="6.35185" x2="17.7319" y2="7.80712" gradientUnits="userSpaceOnUse">
<stop stop-color="#635251"/>
<stop offset="1" stop-color="#452A31"/>
</linearGradient>
<radialGradient id="paint35_radial_4002_1292" cx="0" cy="0" r="1" gradientUnits="userSpaceOnUse" gradientTransform="translate(17.7918 6.8262) rotate(-36.0604) scale(0.586772 0.669724)">
<stop offset="0.542503" stop-color="#40272A"/>
<stop offset="1" stop-color="#40272A" stop-opacity="0"/>
</radialGradient>
<radialGradient id="paint36_radial_4002_1292" cx="0" cy="0" r="1" gradientUnits="userSpaceOnUse" gradientTransform="translate(17.5545 7.44935) rotate(-61.4675) scale(0.986528 0.577418)">
<stop offset="0.754913" stop-color="#31191A" stop-opacity="0"/>
<stop offset="0.915553" stop-color="#31191A"/>
</radialGradient>
<radialGradient id="paint37_radial_4002_1292" cx="0" cy="0" r="1" gradientUnits="userSpaceOnUse" gradientTransform="translate(17.5782 6.97812) rotate(44.7077) scale(0.209333 0.26986)">
<stop stop-color="#352123"/>
<stop offset="1" stop-color="#352123" stop-opacity="0"/>
</radialGradient>
<linearGradient id="paint38_linear_4002_1292" x1="17.1598" y1="7.20165" x2="12.778" y2="7.85461" gradientUnits="userSpaceOnUse">
<stop stop-color="#533531"/>
<stop offset="1" stop-color="#3C2828"/>
</linearGradient>
<linearGradient id="paint39_linear_4002_1292" x1="11.7481" y1="8.74855" x2="13.0477" y2="8.66723" gradientUnits="userSpaceOnUse">
<stop offset="0.282895" stop-color="#564440"/>
<stop offset="1" stop-color="#564440" stop-opacity="0"/>
</linearGradient>
<radialGradient id="paint40_radial_4002_1292" cx="0" cy="0" r="1" gradientUnits="userSpaceOnUse" gradientTransform="translate(14.671 6.864) rotate(90) scale(4.07678 5.53401)">
<stop offset="0.561321" stop-color="#3D2138" stop-opacity="0"/>
<stop offset="1" stop-color="#3D2138"/>
</radialGradient>
<radialGradient id="paint41_radial_4002_1292" cx="0" cy="0" r="1" gradientUnits="userSpaceOnUse" gradientTransform="translate(16.1902 6.24863) rotate(-90) scale(0.749974 0.923044)">
<stop stop-color="#412628"/>
<stop offset="1" stop-color="#412628" stop-opacity="0"/>
</radialGradient>
<radialGradient id="paint42_radial_4002_1292" cx="0" cy="0" r="1" gradientUnits="userSpaceOnUse" gradientTransform="translate(13.5749 6.2294) rotate(-90) scale(0.798049 0.992446)">
<stop stop-color="#351D26"/>
<stop offset="1" stop-color="#351D26" stop-opacity="0"/>
</radialGradient>
<radialGradient id="paint43_radial_4002_1292" cx="0" cy="0" r="1" gradientUnits="userSpaceOnUse" gradientTransform="translate(17.2932 10.5123) rotate(-166.409) scale(1.6771 0.985405)">
<stop offset="0.135653" stop-color="#5B4B4D"/>
<stop offset="1" stop-color="#5B4B4D" stop-opacity="0"/>
</radialGradient>
<linearGradient id="paint44_linear_4002_1292" x1="15.3941" y1="5.26364" x2="20.3383" y2="3.56185" gradientUnits="userSpaceOnUse">
<stop stop-color="#675454"/>
<stop offset="1" stop-color="#685654" stop-opacity="0"/>
</linearGradient>
<radialGradient id="paint45_radial_4002_1292" cx="0" cy="0" r="1" gradientUnits="userSpaceOnUse" gradientTransform="translate(17.3372 4.6221) rotate(-74.8989) scale(1.75712 0.651596)">
<stop stop-color="#464344"/>
<stop offset="1" stop-color="#464344" stop-opacity="0"/>
</radialGradient>
<radialGradient id="paint46_radial_4002_1292" cx="0" cy="0" r="1" gradientUnits="userSpaceOnUse" gradientTransform="translate(16.3947 3.61232) rotate(5.25781) scale(2.20388 1.18501)">
<stop offset="0.12243" stop-color="#4A4648"/>
<stop offset="1" stop-color="#4A4648" stop-opacity="0"/>
</radialGradient>
<radialGradient id="paint47_radial_4002_1292" cx="0" cy="0" r="1" gradientUnits="userSpaceOnUse" gradientTransform="translate(14.844 2.04297) rotate(90) scale(0.963474 1.49215)">
<stop stop-color="#423D3F"/>
<stop offset="1" stop-color="#423D3F" stop-opacity="0"/>
</radialGradient>
<radialGradient id="paint48_radial_4002_1292" cx="0" cy="0" r="1" gradientUnits="userSpaceOnUse" gradientTransform="translate(11.1438 5.95502) rotate(-36.2349) scale(2.18666 3.42578)">
<stop stop-color="#463C39"/>
<stop offset="1" stop-color="#463C39" stop-opacity="0"/>
</radialGradient>
<linearGradient id="paint49_linear_4002_1292" x1="14.348" y1="7.58003" x2="14.8863" y2="7.58003" gradientUnits="userSpaceOnUse">
<stop stop-color="#3D2928"/>
<stop offset="1" stop-color="#3D2928" stop-opacity="0"/>
</linearGradient>
<linearGradient id="paint50_linear_4002_1292" x1="15.3823" y1="7.76508" x2="14.7938" y2="7.75667" gradientUnits="userSpaceOnUse">
<stop stop-color="#624D4B"/>
<stop offset="1" stop-color="#624D4B" stop-opacity="0"/>
</linearGradient>
<linearGradient id="paint51_linear_4002_1292" x1="14.9555" y1="8.191" x2="14.9555" y2="7.8622" gradientUnits="userSpaceOnUse">
<stop stop-color="#3F222F"/>
<stop offset="1" stop-color="#3F222F" stop-opacity="0"/>
</linearGradient>
<radialGradient id="paint52_radial_4002_1292" cx="0" cy="0" r="1" gradientUnits="userSpaceOnUse" gradientTransform="translate(15.0316 7.90014) rotate(90) scale(0.112977 0.362968)">
<stop stop-color="#624E4D"/>
<stop offset="1" stop-color="#624E4D" stop-opacity="0"/>
</radialGradient>
<linearGradient id="paint53_linear_4002_1292" x1="14.916" y1="8.21503" x2="14.916" y2="8.11888" gradientUnits="userSpaceOnUse">
<stop stop-color="#31171F"/>
<stop offset="1" stop-color="#31171F" stop-opacity="0"/>
</linearGradient>
<linearGradient id="paint54_linear_4002_1292" x1="14.2489" y1="9.11752" x2="14.4985" y2="8.72303" gradientUnits="userSpaceOnUse">
<stop stop-color="#564848"/>
<stop offset="0.663171" stop-color="#564848" stop-opacity="0"/>
</linearGradient>
<radialGradient id="paint55_radial_4002_1292" cx="0" cy="0" r="1" gradientUnits="userSpaceOnUse" gradientTransform="translate(16.0942 6.58688) rotate(90) scale(0.46541 0.740286)">
<stop offset="0.80198" stop-color="#7D574A"/>
<stop offset="1" stop-color="#694B43"/>
<stop offset="1" stop-color="#804D49"/>
<stop offset="1" stop-color="#664944"/>
</radialGradient>
<radialGradient id="paint56_radial_4002_1292" cx="0" cy="0" r="1" gradientUnits="userSpaceOnUse" gradientTransform="translate(15.9622 6.63493) rotate(-127.812) scale(0.216218 0.29768)">
<stop offset="0.765532" stop-color="#FFE6E2" stop-opacity="0"/>
<stop offset="0.966159" stop-color="#FFE6E2"/>
</radialGradient>
<linearGradient id="paint57_linear_4002_1292" x1="16.5394" y1="6.61742" x2="16.3601" y2="6.72792" gradientUnits="userSpaceOnUse">
<stop stop-color="#B4948D"/>
<stop offset="1" stop-color="#B4948D" stop-opacity="0"/>
</linearGradient>
<radialGradient id="paint58_radial_4002_1292" cx="0" cy="0" r="1" gradientUnits="userSpaceOnUse" gradientTransform="translate(13.5908 6.58689) rotate(90) scale(0.465433 0.740324)">
<stop offset="0.80198" stop-color="#7D574A"/>
<stop offset="1" stop-color="#694B43"/>
<stop offset="1" stop-color="#804D49"/>
<stop offset="1" stop-color="#664944"/>
</radialGradient>
<linearGradient id="paint59_linear_4002_1292" x1="14.0164" y1="6.61728" x2="13.837" y2="6.72778" gradientUnits="userSpaceOnUse">
<stop stop-color="#B4948D"/>
<stop offset="1" stop-color="#B4948D" stop-opacity="0"/>
</linearGradient>
<radialGradient id="paint60_radial_4002_1292" cx="0" cy="0" r="1" gradientUnits="userSpaceOnUse" gradientTransform="translate(13.4257 6.71196) rotate(-90.897) scale(0.282438 0.339502)">
<stop offset="0.765532" stop-color="#FFE6E2" stop-opacity="0"/>
<stop offset="0.966159" stop-color="#FFE6E2"/>
</radialGradient>
<linearGradient id="paint61_linear_4002_1292" x1="16.5493" y1="5.39003" x2="16.3082" y2="4.89737" gradientUnits="userSpaceOnUse">
<stop stop-color="#353435"/>
<stop offset="1" stop-color="#353435" stop-opacity="0"/>
</linearGradient>
<linearGradient id="paint62_linear_4002_1292" x1="13.5059" y1="5.31685" x2="12.8236" y2="5.03068" gradientUnits="userSpaceOnUse">
<stop stop-color="#353435"/>
<stop offset="1" stop-color="#353435" stop-opacity="0"/>
</linearGradient>
<linearGradient id="paint63_linear_4002_1292" x1="12.169" y1="4.16089" x2="12.169" y2="5.39854" gradientUnits="userSpaceOnUse">
<stop stop-color="#3C393A"/>
<stop offset="1" stop-color="#3C393A" stop-opacity="0"/>
</linearGradient>
<radialGradient id="paint64_radial_4002_1292" cx="0" cy="0" r="1" gradientUnits="userSpaceOnUse" gradientTransform="translate(19.114 12.8086) rotate(27.8803) scale(5.47981 2.00568)">
<stop offset="0.257241" stop-color="#5E4C4B"/>
<stop offset="0.929754" stop-color="#5E4C4B" stop-opacity="0"/>
</radialGradient>
</defs>
</svg>
