<svg width="32" height="32" viewBox="0 0 32 32" fill="none" xmlns="http://www.w3.org/2000/svg">
<g filter="url(#filter0_i_4002_926)">
<path fill-rule="evenodd" clip-rule="evenodd" d="M23.2165 11.983C23.429 11.5478 23.5404 11.062 23.5404 10.556C23.5404 10.0887 23.4442 9.65023 23.2718 9.25054H23.2771C23.1967 9.06955 23.1063 8.89855 22.9959 8.73755L22.9939 8.73442C22.6498 8.20818 22.4676 7.59085 22.4676 6.96341V6.95329C22.4676 5.13169 20.9901 3.65416 19.1685 3.65416C18.9863 3.65416 18.8143 3.5732 18.7131 3.4214C18.116 2.59156 17.1343 2.04507 16.0312 2.04507C14.9281 2.04507 13.9465 2.59156 13.3494 3.4214C13.2482 3.56308 13.0761 3.65416 12.894 3.65416C12.8655 3.65416 12.8372 3.65452 12.8089 3.65524C11.0266 3.70036 9.59484 5.16011 9.59484 6.95329V6.96341C9.59484 7.59085 9.41268 8.20818 9.0686 8.73442L9.0663 8.73809C8.72368 9.26353 8.52222 9.87956 8.52222 10.556C8.52222 11.0721 8.64366 11.5478 8.84606 11.983C8.9169 12.1246 8.9169 12.2967 8.84606 12.4384C8.64366 12.8634 8.52222 13.339 8.52222 13.845C8.52222 15.6262 9.95926 17.0632 11.7404 17.0632H20.3222C22.1033 17.0632 23.5404 15.6262 23.5404 13.845C23.5404 13.339 23.4189 12.8634 23.2165 12.4384C23.1457 12.2967 23.1457 12.1246 23.2165 11.983ZM10.9564 9.31055H10.944L12.1427 11.6661C12.266 14.4686 13.3598 11.6661 16.0312 11.6661C18.7026 11.6661 19.8676 14.7855 19.9909 11.983L21.1267 8.78582C21.073 7.54098 20.1709 7.45361 19.9909 7.45361H16.7708C15.4992 7.45361 14.2994 6.83123 13.5816 5.78032C13.4585 5.60687 13.2022 5.63748 13.1201 5.83134L13.0381 6.02519C12.8125 6.58636 12.3818 7.01488 11.8485 7.25975C11.8331 7.26486 11.8152 7.27251 11.7973 7.28016C11.7793 7.28781 11.7614 7.29546 11.746 7.30057C11.5101 7.423 10.9564 7.79031 10.9358 8.73919L10.9461 9.04528L10.9564 9.31055Z" fill="url(#paint0_linear_4002_926)"/>
<path fill-rule="evenodd" clip-rule="evenodd" d="M23.2165 11.983C23.429 11.5478 23.5404 11.062 23.5404 10.556C23.5404 10.0887 23.4442 9.65023 23.2718 9.25054H23.2771C23.1967 9.06955 23.1063 8.89855 22.9959 8.73755L22.9939 8.73442C22.6498 8.20818 22.4676 7.59085 22.4676 6.96341V6.95329C22.4676 5.13169 20.9901 3.65416 19.1685 3.65416C18.9863 3.65416 18.8143 3.5732 18.7131 3.4214C18.116 2.59156 17.1343 2.04507 16.0312 2.04507C14.9281 2.04507 13.9465 2.59156 13.3494 3.4214C13.2482 3.56308 13.0761 3.65416 12.894 3.65416C12.8655 3.65416 12.8372 3.65452 12.8089 3.65524C11.0266 3.70036 9.59484 5.16011 9.59484 6.95329V6.96341C9.59484 7.59085 9.41268 8.20818 9.0686 8.73442L9.0663 8.73809C8.72368 9.26353 8.52222 9.87956 8.52222 10.556C8.52222 11.0721 8.64366 11.5478 8.84606 11.983C8.9169 12.1246 8.9169 12.2967 8.84606 12.4384C8.64366 12.8634 8.52222 13.339 8.52222 13.845C8.52222 15.6262 9.95926 17.0632 11.7404 17.0632H20.3222C22.1033 17.0632 23.5404 15.6262 23.5404 13.845C23.5404 13.339 23.4189 12.8634 23.2165 12.4384C23.1457 12.2967 23.1457 12.1246 23.2165 11.983ZM10.9564 9.31055H10.944L12.1427 11.6661C12.266 14.4686 13.3598 11.6661 16.0312 11.6661C18.7026 11.6661 19.8676 14.7855 19.9909 11.983L21.1267 8.78582C21.073 7.54098 20.1709 7.45361 19.9909 7.45361H16.7708C15.4992 7.45361 14.2994 6.83123 13.5816 5.78032C13.4585 5.60687 13.2022 5.63748 13.1201 5.83134L13.0381 6.02519C12.8125 6.58636 12.3818 7.01488 11.8485 7.25975C11.8331 7.26486 11.8152 7.27251 11.7973 7.28016C11.7793 7.28781 11.7614 7.29546 11.746 7.30057C11.5101 7.423 10.9564 7.79031 10.9358 8.73919L10.9461 9.04528L10.9564 9.31055Z" fill="url(#paint1_radial_4002_926)"/>
<path fill-rule="evenodd" clip-rule="evenodd" d="M23.2165 11.983C23.429 11.5478 23.5404 11.062 23.5404 10.556C23.5404 10.0887 23.4442 9.65023 23.2718 9.25054H23.2771C23.1967 9.06955 23.1063 8.89855 22.9959 8.73755L22.9939 8.73442C22.6498 8.20818 22.4676 7.59085 22.4676 6.96341V6.95329C22.4676 5.13169 20.9901 3.65416 19.1685 3.65416C18.9863 3.65416 18.8143 3.5732 18.7131 3.4214C18.116 2.59156 17.1343 2.04507 16.0312 2.04507C14.9281 2.04507 13.9465 2.59156 13.3494 3.4214C13.2482 3.56308 13.0761 3.65416 12.894 3.65416C12.8655 3.65416 12.8372 3.65452 12.8089 3.65524C11.0266 3.70036 9.59484 5.16011 9.59484 6.95329V6.96341C9.59484 7.59085 9.41268 8.20818 9.0686 8.73442L9.0663 8.73809C8.72368 9.26353 8.52222 9.87956 8.52222 10.556C8.52222 11.0721 8.64366 11.5478 8.84606 11.983C8.9169 12.1246 8.9169 12.2967 8.84606 12.4384C8.64366 12.8634 8.52222 13.339 8.52222 13.845C8.52222 15.6262 9.95926 17.0632 11.7404 17.0632H20.3222C22.1033 17.0632 23.5404 15.6262 23.5404 13.845C23.5404 13.339 23.4189 12.8634 23.2165 12.4384C23.1457 12.2967 23.1457 12.1246 23.2165 11.983ZM10.9564 9.31055H10.944L12.1427 11.6661C12.266 14.4686 13.3598 11.6661 16.0312 11.6661C18.7026 11.6661 19.8676 14.7855 19.9909 11.983L21.1267 8.78582C21.073 7.54098 20.1709 7.45361 19.9909 7.45361H16.7708C15.4992 7.45361 14.2994 6.83123 13.5816 5.78032C13.4585 5.60687 13.2022 5.63748 13.1201 5.83134L13.0381 6.02519C12.8125 6.58636 12.3818 7.01488 11.8485 7.25975C11.8331 7.26486 11.8152 7.27251 11.7973 7.28016C11.7793 7.28781 11.7614 7.29546 11.746 7.30057C11.5101 7.423 10.9564 7.79031 10.9358 8.73919L10.9461 9.04528L10.9564 9.31055Z" fill="url(#paint2_radial_4002_926)"/>
<path fill-rule="evenodd" clip-rule="evenodd" d="M23.2165 11.983C23.429 11.5478 23.5404 11.062 23.5404 10.556C23.5404 10.0887 23.4442 9.65023 23.2718 9.25054H23.2771C23.1967 9.06955 23.1063 8.89855 22.9959 8.73755L22.9939 8.73442C22.6498 8.20818 22.4676 7.59085 22.4676 6.96341V6.95329C22.4676 5.13169 20.9901 3.65416 19.1685 3.65416C18.9863 3.65416 18.8143 3.5732 18.7131 3.4214C18.116 2.59156 17.1343 2.04507 16.0312 2.04507C14.9281 2.04507 13.9465 2.59156 13.3494 3.4214C13.2482 3.56308 13.0761 3.65416 12.894 3.65416C12.8655 3.65416 12.8372 3.65452 12.8089 3.65524C11.0266 3.70036 9.59484 5.16011 9.59484 6.95329V6.96341C9.59484 7.59085 9.41268 8.20818 9.0686 8.73442L9.0663 8.73809C8.72368 9.26353 8.52222 9.87956 8.52222 10.556C8.52222 11.0721 8.64366 11.5478 8.84606 11.983C8.9169 12.1246 8.9169 12.2967 8.84606 12.4384C8.64366 12.8634 8.52222 13.339 8.52222 13.845C8.52222 15.6262 9.95926 17.0632 11.7404 17.0632H20.3222C22.1033 17.0632 23.5404 15.6262 23.5404 13.845C23.5404 13.339 23.4189 12.8634 23.2165 12.4384C23.1457 12.2967 23.1457 12.1246 23.2165 11.983ZM10.9564 9.31055H10.944L12.1427 11.6661C12.266 14.4686 13.3598 11.6661 16.0312 11.6661C18.7026 11.6661 19.8676 14.7855 19.9909 11.983L21.1267 8.78582C21.073 7.54098 20.1709 7.45361 19.9909 7.45361H16.7708C15.4992 7.45361 14.2994 6.83123 13.5816 5.78032C13.4585 5.60687 13.2022 5.63748 13.1201 5.83134L13.0381 6.02519C12.8125 6.58636 12.3818 7.01488 11.8485 7.25975C11.8331 7.26486 11.8152 7.27251 11.7973 7.28016C11.7793 7.28781 11.7614 7.29546 11.746 7.30057C11.5101 7.423 10.9564 7.79031 10.9358 8.73919L10.9461 9.04528L10.9564 9.31055Z" fill="url(#paint3_radial_4002_926)"/>
<path fill-rule="evenodd" clip-rule="evenodd" d="M23.2165 11.983C23.429 11.5478 23.5404 11.062 23.5404 10.556C23.5404 10.0887 23.4442 9.65023 23.2718 9.25054H23.2771C23.1967 9.06955 23.1063 8.89855 22.9959 8.73755L22.9939 8.73442C22.6498 8.20818 22.4676 7.59085 22.4676 6.96341V6.95329C22.4676 5.13169 20.9901 3.65416 19.1685 3.65416C18.9863 3.65416 18.8143 3.5732 18.7131 3.4214C18.116 2.59156 17.1343 2.04507 16.0312 2.04507C14.9281 2.04507 13.9465 2.59156 13.3494 3.4214C13.2482 3.56308 13.0761 3.65416 12.894 3.65416C12.8655 3.65416 12.8372 3.65452 12.8089 3.65524C11.0266 3.70036 9.59484 5.16011 9.59484 6.95329V6.96341C9.59484 7.59085 9.41268 8.20818 9.0686 8.73442L9.0663 8.73809C8.72368 9.26353 8.52222 9.87956 8.52222 10.556C8.52222 11.0721 8.64366 11.5478 8.84606 11.983C8.9169 12.1246 8.9169 12.2967 8.84606 12.4384C8.64366 12.8634 8.52222 13.339 8.52222 13.845C8.52222 15.6262 9.95926 17.0632 11.7404 17.0632H20.3222C22.1033 17.0632 23.5404 15.6262 23.5404 13.845C23.5404 13.339 23.4189 12.8634 23.2165 12.4384C23.1457 12.2967 23.1457 12.1246 23.2165 11.983ZM10.9564 9.31055H10.944L12.1427 11.6661C12.266 14.4686 13.3598 11.6661 16.0312 11.6661C18.7026 11.6661 19.8676 14.7855 19.9909 11.983L21.1267 8.78582C21.073 7.54098 20.1709 7.45361 19.9909 7.45361H16.7708C15.4992 7.45361 14.2994 6.83123 13.5816 5.78032C13.4585 5.60687 13.2022 5.63748 13.1201 5.83134L13.0381 6.02519C12.8125 6.58636 12.3818 7.01488 11.8485 7.25975C11.8331 7.26486 11.8152 7.27251 11.7973 7.28016C11.7793 7.28781 11.7614 7.29546 11.746 7.30057C11.5101 7.423 10.9564 7.79031 10.9358 8.73919L10.9461 9.04528L10.9564 9.31055Z" fill="url(#paint4_radial_4002_926)"/>
<path fill-rule="evenodd" clip-rule="evenodd" d="M23.2165 11.983C23.429 11.5478 23.5404 11.062 23.5404 10.556C23.5404 10.0887 23.4442 9.65023 23.2718 9.25054H23.2771C23.1967 9.06955 23.1063 8.89855 22.9959 8.73755L22.9939 8.73442C22.6498 8.20818 22.4676 7.59085 22.4676 6.96341V6.95329C22.4676 5.13169 20.9901 3.65416 19.1685 3.65416C18.9863 3.65416 18.8143 3.5732 18.7131 3.4214C18.116 2.59156 17.1343 2.04507 16.0312 2.04507C14.9281 2.04507 13.9465 2.59156 13.3494 3.4214C13.2482 3.56308 13.0761 3.65416 12.894 3.65416C12.8655 3.65416 12.8372 3.65452 12.8089 3.65524C11.0266 3.70036 9.59484 5.16011 9.59484 6.95329V6.96341C9.59484 7.59085 9.41268 8.20818 9.0686 8.73442L9.0663 8.73809C8.72368 9.26353 8.52222 9.87956 8.52222 10.556C8.52222 11.0721 8.64366 11.5478 8.84606 11.983C8.9169 12.1246 8.9169 12.2967 8.84606 12.4384C8.64366 12.8634 8.52222 13.339 8.52222 13.845C8.52222 15.6262 9.95926 17.0632 11.7404 17.0632H20.3222C22.1033 17.0632 23.5404 15.6262 23.5404 13.845C23.5404 13.339 23.4189 12.8634 23.2165 12.4384C23.1457 12.2967 23.1457 12.1246 23.2165 11.983ZM10.9564 9.31055H10.944L12.1427 11.6661C12.266 14.4686 13.3598 11.6661 16.0312 11.6661C18.7026 11.6661 19.8676 14.7855 19.9909 11.983L21.1267 8.78582C21.073 7.54098 20.1709 7.45361 19.9909 7.45361H16.7708C15.4992 7.45361 14.2994 6.83123 13.5816 5.78032C13.4585 5.60687 13.2022 5.63748 13.1201 5.83134L13.0381 6.02519C12.8125 6.58636 12.3818 7.01488 11.8485 7.25975C11.8331 7.26486 11.8152 7.27251 11.7973 7.28016C11.7793 7.28781 11.7614 7.29546 11.746 7.30057C11.5101 7.423 10.9564 7.79031 10.9358 8.73919L10.9461 9.04528L10.9564 9.31055Z" fill="url(#paint5_radial_4002_926)"/>
<path fill-rule="evenodd" clip-rule="evenodd" d="M23.2165 11.983C23.429 11.5478 23.5404 11.062 23.5404 10.556C23.5404 10.0887 23.4442 9.65023 23.2718 9.25054H23.2771C23.1967 9.06955 23.1063 8.89855 22.9959 8.73755L22.9939 8.73442C22.6498 8.20818 22.4676 7.59085 22.4676 6.96341V6.95329C22.4676 5.13169 20.9901 3.65416 19.1685 3.65416C18.9863 3.65416 18.8143 3.5732 18.7131 3.4214C18.116 2.59156 17.1343 2.04507 16.0312 2.04507C14.9281 2.04507 13.9465 2.59156 13.3494 3.4214C13.2482 3.56308 13.0761 3.65416 12.894 3.65416C12.8655 3.65416 12.8372 3.65452 12.8089 3.65524C11.0266 3.70036 9.59484 5.16011 9.59484 6.95329V6.96341C9.59484 7.59085 9.41268 8.20818 9.0686 8.73442L9.0663 8.73809C8.72368 9.26353 8.52222 9.87956 8.52222 10.556C8.52222 11.0721 8.64366 11.5478 8.84606 11.983C8.9169 12.1246 8.9169 12.2967 8.84606 12.4384C8.64366 12.8634 8.52222 13.339 8.52222 13.845C8.52222 15.6262 9.95926 17.0632 11.7404 17.0632H20.3222C22.1033 17.0632 23.5404 15.6262 23.5404 13.845C23.5404 13.339 23.4189 12.8634 23.2165 12.4384C23.1457 12.2967 23.1457 12.1246 23.2165 11.983ZM10.9564 9.31055H10.944L12.1427 11.6661C12.266 14.4686 13.3598 11.6661 16.0312 11.6661C18.7026 11.6661 19.8676 14.7855 19.9909 11.983L21.1267 8.78582C21.073 7.54098 20.1709 7.45361 19.9909 7.45361H16.7708C15.4992 7.45361 14.2994 6.83123 13.5816 5.78032C13.4585 5.60687 13.2022 5.63748 13.1201 5.83134L13.0381 6.02519C12.8125 6.58636 12.3818 7.01488 11.8485 7.25975C11.8331 7.26486 11.8152 7.27251 11.7973 7.28016C11.7793 7.28781 11.7614 7.29546 11.746 7.30057C11.5101 7.423 10.9564 7.79031 10.9358 8.73919L10.9461 9.04528L10.9564 9.31055Z" fill="url(#paint6_radial_4002_926)"/>
<path fill-rule="evenodd" clip-rule="evenodd" d="M23.2165 11.983C23.429 11.5478 23.5404 11.062 23.5404 10.556C23.5404 10.0887 23.4442 9.65023 23.2718 9.25054H23.2771C23.1967 9.06955 23.1063 8.89855 22.9959 8.73755L22.9939 8.73442C22.6498 8.20818 22.4676 7.59085 22.4676 6.96341V6.95329C22.4676 5.13169 20.9901 3.65416 19.1685 3.65416C18.9863 3.65416 18.8143 3.5732 18.7131 3.4214C18.116 2.59156 17.1343 2.04507 16.0312 2.04507C14.9281 2.04507 13.9465 2.59156 13.3494 3.4214C13.2482 3.56308 13.0761 3.65416 12.894 3.65416C12.8655 3.65416 12.8372 3.65452 12.8089 3.65524C11.0266 3.70036 9.59484 5.16011 9.59484 6.95329V6.96341C9.59484 7.59085 9.41268 8.20818 9.0686 8.73442L9.0663 8.73809C8.72368 9.26353 8.52222 9.87956 8.52222 10.556C8.52222 11.0721 8.64366 11.5478 8.84606 11.983C8.9169 12.1246 8.9169 12.2967 8.84606 12.4384C8.64366 12.8634 8.52222 13.339 8.52222 13.845C8.52222 15.6262 9.95926 17.0632 11.7404 17.0632H20.3222C22.1033 17.0632 23.5404 15.6262 23.5404 13.845C23.5404 13.339 23.4189 12.8634 23.2165 12.4384C23.1457 12.2967 23.1457 12.1246 23.2165 11.983ZM10.9564 9.31055H10.944L12.1427 11.6661C12.266 14.4686 13.3598 11.6661 16.0312 11.6661C18.7026 11.6661 19.8676 14.7855 19.9909 11.983L21.1267 8.78582C21.073 7.54098 20.1709 7.45361 19.9909 7.45361H16.7708C15.4992 7.45361 14.2994 6.83123 13.5816 5.78032C13.4585 5.60687 13.2022 5.63748 13.1201 5.83134L13.0381 6.02519C12.8125 6.58636 12.3818 7.01488 11.8485 7.25975C11.8331 7.26486 11.8152 7.27251 11.7973 7.28016C11.7793 7.28781 11.7614 7.29546 11.746 7.30057C11.5101 7.423 10.9564 7.79031 10.9358 8.73919L10.9461 9.04528L10.9564 9.31055Z" fill="url(#paint7_radial_4002_926)"/>
<path fill-rule="evenodd" clip-rule="evenodd" d="M23.2165 11.983C23.429 11.5478 23.5404 11.062 23.5404 10.556C23.5404 10.0887 23.4442 9.65023 23.2718 9.25054H23.2771C23.1967 9.06955 23.1063 8.89855 22.9959 8.73755L22.9939 8.73442C22.6498 8.20818 22.4676 7.59085 22.4676 6.96341V6.95329C22.4676 5.13169 20.9901 3.65416 19.1685 3.65416C18.9863 3.65416 18.8143 3.5732 18.7131 3.4214C18.116 2.59156 17.1343 2.04507 16.0312 2.04507C14.9281 2.04507 13.9465 2.59156 13.3494 3.4214C13.2482 3.56308 13.0761 3.65416 12.894 3.65416C12.8655 3.65416 12.8372 3.65452 12.8089 3.65524C11.0266 3.70036 9.59484 5.16011 9.59484 6.95329V6.96341C9.59484 7.59085 9.41268 8.20818 9.0686 8.73442L9.0663 8.73809C8.72368 9.26353 8.52222 9.87956 8.52222 10.556C8.52222 11.0721 8.64366 11.5478 8.84606 11.983C8.9169 12.1246 8.9169 12.2967 8.84606 12.4384C8.64366 12.8634 8.52222 13.339 8.52222 13.845C8.52222 15.6262 9.95926 17.0632 11.7404 17.0632H20.3222C22.1033 17.0632 23.5404 15.6262 23.5404 13.845C23.5404 13.339 23.4189 12.8634 23.2165 12.4384C23.1457 12.2967 23.1457 12.1246 23.2165 11.983ZM10.9564 9.31055H10.944L12.1427 11.6661C12.266 14.4686 13.3598 11.6661 16.0312 11.6661C18.7026 11.6661 19.8676 14.7855 19.9909 11.983L21.1267 8.78582C21.073 7.54098 20.1709 7.45361 19.9909 7.45361H16.7708C15.4992 7.45361 14.2994 6.83123 13.5816 5.78032C13.4585 5.60687 13.2022 5.63748 13.1201 5.83134L13.0381 6.02519C12.8125 6.58636 12.3818 7.01488 11.8485 7.25975C11.8331 7.26486 11.8152 7.27251 11.7973 7.28016C11.7793 7.28781 11.7614 7.29546 11.746 7.30057C11.5101 7.423 10.9564 7.79031 10.9358 8.73919L10.9461 9.04528L10.9564 9.31055Z" fill="url(#paint8_radial_4002_926)"/>
<path fill-rule="evenodd" clip-rule="evenodd" d="M23.2165 11.983C23.429 11.5478 23.5404 11.062 23.5404 10.556C23.5404 10.0887 23.4442 9.65023 23.2718 9.25054H23.2771C23.1967 9.06955 23.1063 8.89855 22.9959 8.73755L22.9939 8.73442C22.6498 8.20818 22.4676 7.59085 22.4676 6.96341V6.95329C22.4676 5.13169 20.9901 3.65416 19.1685 3.65416C18.9863 3.65416 18.8143 3.5732 18.7131 3.4214C18.116 2.59156 17.1343 2.04507 16.0312 2.04507C14.9281 2.04507 13.9465 2.59156 13.3494 3.4214C13.2482 3.56308 13.0761 3.65416 12.894 3.65416C12.8655 3.65416 12.8372 3.65452 12.8089 3.65524C11.0266 3.70036 9.59484 5.16011 9.59484 6.95329V6.96341C9.59484 7.59085 9.41268 8.20818 9.0686 8.73442L9.0663 8.73809C8.72368 9.26353 8.52222 9.87956 8.52222 10.556C8.52222 11.0721 8.64366 11.5478 8.84606 11.983C8.9169 12.1246 8.9169 12.2967 8.84606 12.4384C8.64366 12.8634 8.52222 13.339 8.52222 13.845C8.52222 15.6262 9.95926 17.0632 11.7404 17.0632H20.3222C22.1033 17.0632 23.5404 15.6262 23.5404 13.845C23.5404 13.339 23.4189 12.8634 23.2165 12.4384C23.1457 12.2967 23.1457 12.1246 23.2165 11.983ZM10.9564 9.31055H10.944L12.1427 11.6661C12.266 14.4686 13.3598 11.6661 16.0312 11.6661C18.7026 11.6661 19.8676 14.7855 19.9909 11.983L21.1267 8.78582C21.073 7.54098 20.1709 7.45361 19.9909 7.45361H16.7708C15.4992 7.45361 14.2994 6.83123 13.5816 5.78032C13.4585 5.60687 13.2022 5.63748 13.1201 5.83134L13.0381 6.02519C12.8125 6.58636 12.3818 7.01488 11.8485 7.25975C11.8331 7.26486 11.8152 7.27251 11.7973 7.28016C11.7793 7.28781 11.7614 7.29546 11.746 7.30057C11.5101 7.423 10.9564 7.79031 10.9358 8.73919L10.9461 9.04528L10.9564 9.31055Z" fill="url(#paint9_radial_4002_926)"/>
<path fill-rule="evenodd" clip-rule="evenodd" d="M23.2165 11.983C23.429 11.5478 23.5404 11.062 23.5404 10.556C23.5404 10.0887 23.4442 9.65023 23.2718 9.25054H23.2771C23.1967 9.06955 23.1063 8.89855 22.9959 8.73755L22.9939 8.73442C22.6498 8.20818 22.4676 7.59085 22.4676 6.96341V6.95329C22.4676 5.13169 20.9901 3.65416 19.1685 3.65416C18.9863 3.65416 18.8143 3.5732 18.7131 3.4214C18.116 2.59156 17.1343 2.04507 16.0312 2.04507C14.9281 2.04507 13.9465 2.59156 13.3494 3.4214C13.2482 3.56308 13.0761 3.65416 12.894 3.65416C12.8655 3.65416 12.8372 3.65452 12.8089 3.65524C11.0266 3.70036 9.59484 5.16011 9.59484 6.95329V6.96341C9.59484 7.59085 9.41268 8.20818 9.0686 8.73442L9.0663 8.73809C8.72368 9.26353 8.52222 9.87956 8.52222 10.556C8.52222 11.0721 8.64366 11.5478 8.84606 11.983C8.9169 12.1246 8.9169 12.2967 8.84606 12.4384C8.64366 12.8634 8.52222 13.339 8.52222 13.845C8.52222 15.6262 9.95926 17.0632 11.7404 17.0632H20.3222C22.1033 17.0632 23.5404 15.6262 23.5404 13.845C23.5404 13.339 23.4189 12.8634 23.2165 12.4384C23.1457 12.2967 23.1457 12.1246 23.2165 11.983ZM10.9564 9.31055H10.944L12.1427 11.6661C12.266 14.4686 13.3598 11.6661 16.0312 11.6661C18.7026 11.6661 19.8676 14.7855 19.9909 11.983L21.1267 8.78582C21.073 7.54098 20.1709 7.45361 19.9909 7.45361H16.7708C15.4992 7.45361 14.2994 6.83123 13.5816 5.78032C13.4585 5.60687 13.2022 5.63748 13.1201 5.83134L13.0381 6.02519C12.8125 6.58636 12.3818 7.01488 11.8485 7.25975C11.8331 7.26486 11.8152 7.27251 11.7973 7.28016C11.7793 7.28781 11.7614 7.29546 11.746 7.30057C11.5101 7.423 10.9564 7.79031 10.9358 8.73919L10.9461 9.04528L10.9564 9.31055Z" fill="url(#paint10_radial_4002_926)"/>
<path fill-rule="evenodd" clip-rule="evenodd" d="M23.2165 11.983C23.429 11.5478 23.5404 11.062 23.5404 10.556C23.5404 10.0887 23.4442 9.65023 23.2718 9.25054H23.2771C23.1967 9.06955 23.1063 8.89855 22.9959 8.73755L22.9939 8.73442C22.6498 8.20818 22.4676 7.59085 22.4676 6.96341V6.95329C22.4676 5.13169 20.9901 3.65416 19.1685 3.65416C18.9863 3.65416 18.8143 3.5732 18.7131 3.4214C18.116 2.59156 17.1343 2.04507 16.0312 2.04507C14.9281 2.04507 13.9465 2.59156 13.3494 3.4214C13.2482 3.56308 13.0761 3.65416 12.894 3.65416C12.8655 3.65416 12.8372 3.65452 12.8089 3.65524C11.0266 3.70036 9.59484 5.16011 9.59484 6.95329V6.96341C9.59484 7.59085 9.41268 8.20818 9.0686 8.73442L9.0663 8.73809C8.72368 9.26353 8.52222 9.87956 8.52222 10.556C8.52222 11.0721 8.64366 11.5478 8.84606 11.983C8.9169 12.1246 8.9169 12.2967 8.84606 12.4384C8.64366 12.8634 8.52222 13.339 8.52222 13.845C8.52222 15.6262 9.95926 17.0632 11.7404 17.0632H20.3222C22.1033 17.0632 23.5404 15.6262 23.5404 13.845C23.5404 13.339 23.4189 12.8634 23.2165 12.4384C23.1457 12.2967 23.1457 12.1246 23.2165 11.983ZM10.9564 9.31055H10.944L12.1427 11.6661C12.266 14.4686 13.3598 11.6661 16.0312 11.6661C18.7026 11.6661 19.8676 14.7855 19.9909 11.983L21.1267 8.78582C21.073 7.54098 20.1709 7.45361 19.9909 7.45361H16.7708C15.4992 7.45361 14.2994 6.83123 13.5816 5.78032C13.4585 5.60687 13.2022 5.63748 13.1201 5.83134L13.0381 6.02519C12.8125 6.58636 12.3818 7.01488 11.8485 7.25975C11.8331 7.26486 11.8152 7.27251 11.7973 7.28016C11.7793 7.28781 11.7614 7.29546 11.746 7.30057C11.5101 7.423 10.9564 7.79031 10.9358 8.73919L10.9461 9.04528L10.9564 9.31055Z" fill="url(#paint11_radial_4002_926)"/>
</g>
<path d="M2.0625 29.9549C2.0625 27.9862 2.45351 23.1956 5.27885 20.0956C8.81052 16.2206 13.7927 15.6424 16 15.6424C18.2073 15.6424 23.1895 16.2206 26.7212 20.0956C29.5465 23.1956 29.9375 27.9862 29.9375 29.9549H2.0625Z" fill="url(#paint12_radial_4002_926)"/>
<path d="M2.0625 29.9549C2.0625 27.9862 2.45351 23.1956 5.27885 20.0956C8.81052 16.2206 13.7927 15.6424 16 15.6424C18.2073 15.6424 23.1895 16.2206 26.7212 20.0956C29.5465 23.1956 29.9375 27.9862 29.9375 29.9549H2.0625Z" fill="url(#paint13_radial_4002_926)"/>
<g filter="url(#filter1_f_4002_926)">
<path d="M3.34375 29.9549C3.34375 28.0678 3.69881 23.476 6.26442 20.5046C9.47144 16.7903 13.9956 16.2362 16 16.2362C18.0044 16.2362 22.5286 16.7903 25.7356 20.5046C28.3012 23.476 28.6563 28.0678 28.6563 29.9549H3.34375Z" fill="url(#paint14_linear_4002_926)"/>
</g>
<path d="M16.0312 15.6382C9.80348 15.6382 4.44744 19.8257 4.03906 29.9194V29.955H28.0234V29.9194C27.6151 19.8257 22.259 15.6382 16.0312 15.6382Z" fill="url(#paint15_radial_4002_926)"/>
<path d="M16.0312 15.6382C9.80348 15.6382 4.44744 19.8257 4.03906 29.9194V29.955H28.0234V29.9194C27.6151 19.8257 22.259 15.6382 16.0312 15.6382Z" fill="url(#paint16_radial_4002_926)"/>
<path d="M23.6797 18.4676V29.9549H28.0234V29.9194C27.803 24.4719 26.1416 20.7447 23.6797 18.4676Z" fill="#4E9EFF"/>
<path d="M23.6797 18.4676V29.9549H28.0234V29.9194C27.803 24.4719 26.1416 20.7447 23.6797 18.4676Z" fill="url(#paint17_linear_4002_926)"/>
<path d="M23.6797 18.4676V29.9549H28.0234V29.9194C27.803 24.4719 26.1416 20.7447 23.6797 18.4676Z" fill="url(#paint18_radial_4002_926)"/>
<path d="M23.6797 18.4676V29.9549H28.0234V29.9194C27.803 24.4719 26.1416 20.7447 23.6797 18.4676Z" fill="url(#paint19_radial_4002_926)"/>
<path d="M8.38281 18.4676V29.9549H4.03906V29.9194C4.25946 24.4719 5.92095 20.7447 8.38281 18.4676Z" fill="url(#paint20_linear_4002_926)"/>
<path d="M8.38281 18.4676V29.9549H4.03906V29.9194C4.25946 24.4719 5.92095 20.7447 8.38281 18.4676Z" fill="url(#paint21_radial_4002_926)"/>
<path d="M8.38281 18.4676V29.9549H4.03906V29.9194C4.25946 24.4719 5.92095 20.7447 8.38281 18.4676Z" fill="url(#paint22_radial_4002_926)"/>
<path d="M8.38281 18.4676V29.9549H4.03906V29.9194C4.25946 24.4719 5.92095 20.7447 8.38281 18.4676Z" fill="url(#paint23_radial_4002_926)"/>
<g filter="url(#filter2_f_4002_926)">
<path d="M12.8745 23.4194C12.1901 23.4194 11.7649 24.1632 12.1123 24.7529L14.2551 28.3909C14.8313 29.3692 16.2462 29.3692 16.8225 28.3909L18.9653 24.7529C19.3126 24.1632 18.8875 23.4194 18.2031 23.4194H12.8745Z" fill="#2F63D5"/>
</g>
<g filter="url(#filter3_iii_4002_926)">
<path d="M13.1309 22.9975C12.3959 22.9975 11.9393 23.7964 12.3123 24.4297L14.6136 28.3366C15.2324 29.3873 16.752 29.3873 17.3708 28.3366L19.6721 24.4297C20.0451 23.7964 19.5885 22.9975 18.8535 22.9975H13.1309Z" fill="url(#paint24_linear_4002_926)"/>
<path d="M13.1309 22.9975C12.3959 22.9975 11.9393 23.7964 12.3123 24.4297L14.6136 28.3366C15.2324 29.3873 16.752 29.3873 17.3708 28.3366L19.6721 24.4297C20.0451 23.7964 19.5885 22.9975 18.8535 22.9975H13.1309Z" fill="url(#paint25_linear_4002_926)"/>
</g>
<path d="M13.1309 22.9975C12.3959 22.9975 11.9393 23.7964 12.3123 24.4297L14.6136 28.3366C15.2324 29.3873 16.752 29.3873 17.3708 28.3366L19.6721 24.4297C20.0451 23.7964 19.5885 22.9975 18.8535 22.9975H13.1309Z" fill="url(#paint26_radial_4002_926)"/>
<g filter="url(#filter4_f_4002_926)">
<ellipse cx="15.708" cy="20.2633" rx="1.04763" ry="1.05484" fill="#2F62B7"/>
</g>
<g filter="url(#filter5_i_4002_926)">
<path d="M15.9922 20.435L10.9526 17.4116C10.6287 17.2124 10.2891 16.8999 10.2891 16.4311C10.2891 15.935 10.8736 15.8986 11.1738 15.8882L15.9922 15.81L20.8106 15.8882C21.1108 15.8986 21.6953 15.935 21.6953 16.4311C21.6953 16.8999 21.3557 17.2124 21.0318 17.4116L15.9922 20.435Z" fill="url(#paint27_linear_4002_926)"/>
<path d="M15.9922 20.435L10.9526 17.4116C10.6287 17.2124 10.2891 16.8999 10.2891 16.4311C10.2891 15.935 10.8736 15.8986 11.1738 15.8882L15.9922 15.81L20.8106 15.8882C21.1108 15.8986 21.6953 15.935 21.6953 16.4311C21.6953 16.8999 21.3557 17.2124 21.0318 17.4116L15.9922 20.435Z" fill="url(#paint28_radial_4002_926)"/>
<path d="M15.9922 20.435L10.9526 17.4116C10.6287 17.2124 10.2891 16.8999 10.2891 16.4311C10.2891 15.935 10.8736 15.8986 11.1738 15.8882L15.9922 15.81L20.8106 15.8882C21.1108 15.8986 21.6953 15.935 21.6953 16.4311C21.6953 16.8999 21.3557 17.2124 21.0318 17.4116L15.9922 20.435Z" fill="url(#paint29_radial_4002_926)"/>
<path d="M15.9922 20.435L10.9526 17.4116C10.6287 17.2124 10.2891 16.8999 10.2891 16.4311C10.2891 15.935 10.8736 15.8986 11.1738 15.8882L15.9922 15.81L20.8106 15.8882C21.1108 15.8986 21.6953 15.935 21.6953 16.4311C21.6953 16.8999 21.3557 17.2124 21.0318 17.4116L15.9922 20.435Z" fill="url(#paint30_radial_4002_926)"/>
</g>
<ellipse cx="15.992" cy="20.1696" rx="1.04763" ry="1.05484" fill="url(#paint31_radial_4002_926)"/>
<ellipse cx="15.992" cy="20.1696" rx="1.04763" ry="1.05484" fill="url(#paint32_radial_4002_926)"/>
<rect x="13.9326" y="13.298" width="4.10938" height="5.39902" rx="2.05469" fill="url(#paint33_radial_4002_926)"/>
<path d="M16.3862 15.3532C16.6362 15.3632 16.8962 15.3832 17.1562 15.4032C16.8962 15.3832 16.6462 15.3632 16.3862 15.3532Z" fill="url(#paint34_linear_4002_926)"/>
<path d="M16.0561 15.3532C16.0461 15.3532 16.0361 15.3532 16.0161 15.3532C16.1161 15.3532 16.2061 15.3532 16.3061 15.3632C16.2261 15.3532 16.1361 15.3532 16.0561 15.3532Z" fill="url(#paint35_linear_4002_926)"/>
<g filter="url(#filter6_i_4002_926)">
<path d="M11.3457 12.1824C12.2343 12.1824 12.9547 11.462 12.9547 10.5733C12.9547 9.68462 12.2343 8.9642 11.3457 8.9642C10.457 8.9642 9.73657 9.68462 9.73657 10.5733C9.73657 11.462 10.457 12.1824 11.3457 12.1824Z" fill="url(#paint36_linear_4002_926)"/>
</g>
<g filter="url(#filter7_i_4002_926)">
<path d="M20.8586 12.1824C21.7473 12.1824 22.4677 11.462 22.4677 10.5733C22.4677 9.68462 21.7473 8.9642 20.8586 8.9642C19.9699 8.9642 19.2495 9.68462 19.2495 10.5733C19.2495 11.462 19.9699 12.1824 20.8586 12.1824Z" fill="url(#paint37_radial_4002_926)"/>
<path d="M20.8586 12.1824C21.7473 12.1824 22.4677 11.462 22.4677 10.5733C22.4677 9.68462 21.7473 8.9642 20.8586 8.9642C19.9699 8.9642 19.2495 9.68462 19.2495 10.5733C19.2495 11.462 19.9699 12.1824 20.8586 12.1824Z" fill="url(#paint38_radial_4002_926)"/>
</g>
<g filter="url(#filter8_f_4002_926)">
<path d="M20.8585 11.6473C21.4517 11.6473 21.9326 11.1664 21.9326 10.5732C21.9326 9.98001 21.4517 9.49911 20.8585 9.49911C20.2653 9.49911 19.7844 9.98001 19.7844 10.5732C19.7844 11.1664 20.2653 11.6473 20.8585 11.6473Z" fill="#4C3637"/>
<path d="M20.8585 11.6473C21.4517 11.6473 21.9326 11.1664 21.9326 10.5732C21.9326 9.98001 21.4517 9.49911 20.8585 9.49911C20.2653 9.49911 19.7844 9.98001 19.7844 10.5732C19.7844 11.1664 20.2653 11.6473 20.8585 11.6473Z" fill="url(#paint39_radial_4002_926)"/>
</g>
<g filter="url(#filter9_f_4002_926)">
<path d="M11.3649 11.6473C11.9581 11.6473 12.439 11.1664 12.439 10.5732C12.439 9.98001 11.9581 9.49911 11.3649 9.49911C10.7717 9.49911 10.2908 9.98001 10.2908 10.5732C10.2908 11.1664 10.7717 11.6473 11.3649 11.6473Z" fill="#35252B"/>
<path d="M11.3649 11.6473C11.9581 11.6473 12.439 11.1664 12.439 10.5732C12.439 9.98001 11.9581 9.49911 11.3649 9.49911C10.7717 9.49911 10.2908 9.98001 10.2908 10.5732C10.2908 11.1664 10.7717 11.6473 11.3649 11.6473Z" fill="url(#paint40_radial_4002_926)"/>
</g>
<g filter="url(#filter10_i_4002_926)">
<path d="M10.944 9.31057H10.9563L10.946 9.0453L10.9358 8.73921C10.9563 7.79033 11.5101 7.42302 11.7459 7.30058C11.7613 7.29548 11.7793 7.28783 11.7972 7.28018C11.8151 7.27253 11.8331 7.26487 11.8485 7.25977C12.3817 7.0149 12.8124 6.58638 13.038 6.02521L13.1201 5.83135C13.2021 5.6375 13.4585 5.60689 13.5815 5.78034C14.2994 6.83125 15.4992 7.45363 16.7708 7.45363H19.9908C20.1709 7.45363 21.073 7.541 21.1267 8.78584L21.0079 11.8589C20.8846 14.6614 18.6961 16.5432 16.0247 16.5432C13.3532 16.5432 11.1647 14.6614 11.0414 11.8589L10.944 9.31057Z" fill="url(#paint41_radial_4002_926)"/>
<path d="M10.944 9.31057H10.9563L10.946 9.0453L10.9358 8.73921C10.9563 7.79033 11.5101 7.42302 11.7459 7.30058C11.7613 7.29548 11.7793 7.28783 11.7972 7.28018C11.8151 7.27253 11.8331 7.26487 11.8485 7.25977C12.3817 7.0149 12.8124 6.58638 13.038 6.02521L13.1201 5.83135C13.2021 5.6375 13.4585 5.60689 13.5815 5.78034C14.2994 6.83125 15.4992 7.45363 16.7708 7.45363H19.9908C20.1709 7.45363 21.073 7.541 21.1267 8.78584L21.0079 11.8589C20.8846 14.6614 18.6961 16.5432 16.0247 16.5432C13.3532 16.5432 11.1647 14.6614 11.0414 11.8589L10.944 9.31057Z" fill="url(#paint42_radial_4002_926)"/>
<path d="M10.944 9.31057H10.9563L10.946 9.0453L10.9358 8.73921C10.9563 7.79033 11.5101 7.42302 11.7459 7.30058C11.7613 7.29548 11.7793 7.28783 11.7972 7.28018C11.8151 7.27253 11.8331 7.26487 11.8485 7.25977C12.3817 7.0149 12.8124 6.58638 13.038 6.02521L13.1201 5.83135C13.2021 5.6375 13.4585 5.60689 13.5815 5.78034C14.2994 6.83125 15.4992 7.45363 16.7708 7.45363H19.9908C20.1709 7.45363 21.073 7.541 21.1267 8.78584L21.0079 11.8589C20.8846 14.6614 18.6961 16.5432 16.0247 16.5432C13.3532 16.5432 11.1647 14.6614 11.0414 11.8589L10.944 9.31057Z" fill="url(#paint43_radial_4002_926)"/>
<path d="M10.944 9.31057H10.9563L10.946 9.0453L10.9358 8.73921C10.9563 7.79033 11.5101 7.42302 11.7459 7.30058C11.7613 7.29548 11.7793 7.28783 11.7972 7.28018C11.8151 7.27253 11.8331 7.26487 11.8485 7.25977C12.3817 7.0149 12.8124 6.58638 13.038 6.02521L13.1201 5.83135C13.2021 5.6375 13.4585 5.60689 13.5815 5.78034C14.2994 6.83125 15.4992 7.45363 16.7708 7.45363H19.9908C20.1709 7.45363 21.073 7.541 21.1267 8.78584L21.0079 11.8589C20.8846 14.6614 18.6961 16.5432 16.0247 16.5432C13.3532 16.5432 11.1647 14.6614 11.0414 11.8589L10.944 9.31057Z" fill="url(#paint44_radial_4002_926)"/>
<path d="M10.944 9.31057H10.9563L10.946 9.0453L10.9358 8.73921C10.9563 7.79033 11.5101 7.42302 11.7459 7.30058C11.7613 7.29548 11.7793 7.28783 11.7972 7.28018C11.8151 7.27253 11.8331 7.26487 11.8485 7.25977C12.3817 7.0149 12.8124 6.58638 13.038 6.02521L13.1201 5.83135C13.2021 5.6375 13.4585 5.60689 13.5815 5.78034C14.2994 6.83125 15.4992 7.45363 16.7708 7.45363H19.9908C20.1709 7.45363 21.073 7.541 21.1267 8.78584L21.0079 11.8589C20.8846 14.6614 18.6961 16.5432 16.0247 16.5432C13.3532 16.5432 11.1647 14.6614 11.0414 11.8589L10.944 9.31057Z" fill="url(#paint45_radial_4002_926)"/>
<path d="M10.944 9.31057H10.9563L10.946 9.0453L10.9358 8.73921C10.9563 7.79033 11.5101 7.42302 11.7459 7.30058C11.7613 7.29548 11.7793 7.28783 11.7972 7.28018C11.8151 7.27253 11.8331 7.26487 11.8485 7.25977C12.3817 7.0149 12.8124 6.58638 13.038 6.02521L13.1201 5.83135C13.2021 5.6375 13.4585 5.60689 13.5815 5.78034C14.2994 6.83125 15.4992 7.45363 16.7708 7.45363H19.9908C20.1709 7.45363 21.073 7.541 21.1267 8.78584L21.0079 11.8589C20.8846 14.6614 18.6961 16.5432 16.0247 16.5432C13.3532 16.5432 11.1647 14.6614 11.0414 11.8589L10.944 9.31057Z" fill="url(#paint46_radial_4002_926)"/>
<path d="M10.944 9.31057H10.9563L10.946 9.0453L10.9358 8.73921C10.9563 7.79033 11.5101 7.42302 11.7459 7.30058C11.7613 7.29548 11.7793 7.28783 11.7972 7.28018C11.8151 7.27253 11.8331 7.26487 11.8485 7.25977C12.3817 7.0149 12.8124 6.58638 13.038 6.02521L13.1201 5.83135C13.2021 5.6375 13.4585 5.60689 13.5815 5.78034C14.2994 6.83125 15.4992 7.45363 16.7708 7.45363H19.9908C20.1709 7.45363 21.073 7.541 21.1267 8.78584L21.0079 11.8589C20.8846 14.6614 18.6961 16.5432 16.0247 16.5432C13.3532 16.5432 11.1647 14.6614 11.0414 11.8589L10.944 9.31057Z" fill="url(#paint47_radial_4002_926)"/>
<path d="M10.944 9.31057H10.9563L10.946 9.0453L10.9358 8.73921C10.9563 7.79033 11.5101 7.42302 11.7459 7.30058C11.7613 7.29548 11.7793 7.28783 11.7972 7.28018C11.8151 7.27253 11.8331 7.26487 11.8485 7.25977C12.3817 7.0149 12.8124 6.58638 13.038 6.02521L13.1201 5.83135C13.2021 5.6375 13.4585 5.60689 13.5815 5.78034C14.2994 6.83125 15.4992 7.45363 16.7708 7.45363H19.9908C20.1709 7.45363 21.073 7.541 21.1267 8.78584L21.0079 11.8589C20.8846 14.6614 18.6961 16.5432 16.0247 16.5432C13.3532 16.5432 11.1647 14.6614 11.0414 11.8589L10.944 9.31057Z" fill="url(#paint48_radial_4002_926)"/>
</g>
<path d="M10.944 9.31057H10.9563L10.946 9.0453L10.9358 8.73921C10.9563 7.79033 11.5101 7.42302 11.7459 7.30058C11.7613 7.29548 11.7793 7.28783 11.7972 7.28018C11.8151 7.27253 11.8331 7.26487 11.8485 7.25977C12.3817 7.0149 12.8124 6.58638 13.038 6.02521L13.1201 5.83135C13.2021 5.6375 13.4585 5.60689 13.5815 5.78034C14.2994 6.83125 15.4992 7.45363 16.7708 7.45363H19.9908C20.1709 7.45363 21.073 7.541 21.1267 8.78584L21.0079 11.8589C20.8846 14.6614 18.6961 16.5432 16.0247 16.5432C13.3532 16.5432 11.1647 14.6614 11.0414 11.8589L10.944 9.31057Z" fill="url(#paint49_radial_4002_926)"/>
<g filter="url(#filter11_f_4002_926)">
<path d="M15.6388 10.3505L14.9552 12.0505C14.8468 12.4002 15.1071 12.7499 15.4759 12.7499H16.2622C16.631 12.7499 16.8913 12.3948 16.7829 12.0505L16.2514 10.3505C16.1375 9.97394 15.7581 9.97394 15.6388 10.3505Z" fill="#331B25"/>
</g>
<path d="M10.9412 9.31057H10.9289L11.0057 11.3199H11.3207C11.5086 11.3199 11.6867 11.3599 11.8548 11.4399L12.1021 11.5599C12.1912 11.5999 12.2802 11.6399 12.3692 11.6699L12.5868 11.7399C13.0122 11.8699 13.4672 11.8799 13.8925 11.7599L14.1695 11.6799C14.2783 11.6499 14.3871 11.6099 14.4861 11.5599L14.7136 11.4499C14.8817 11.3699 15.0598 11.3299 15.2477 11.3299H15.5939L15.7583 10.6616C15.877 10.2716 16.0224 10.2716 16.1411 10.6616L16.2349 11.3299H16.7018C16.8898 11.3299 17.0678 11.3699 17.236 11.4499L17.4437 11.5499C17.5525 11.5999 17.6712 11.6499 17.7899 11.6799L18.0966 11.7699C18.5219 11.8899 18.9868 11.8799 19.4023 11.7299L19.5803 11.6699L19.8177 11.5799L20.0848 11.4599C20.253 11.3799 20.431 11.3399 20.619 11.3399H21.0128L21.1115 8.78583C21.11 8.74953 21.1077 8.71422 21.1047 8.67987H20.7179C20.4706 8.65987 20.2233 8.57987 20.0057 8.43987L19.9562 8.40987C19.7881 8.28987 19.6001 8.19987 19.4023 8.12987C18.9769 7.97987 18.5219 7.96987 18.0966 8.08987L17.968 8.11987C17.7306 8.18987 17.5031 8.28987 17.2953 8.43987C17.0876 8.58987 16.8403 8.65987 16.5831 8.65987H15.3565C15.0993 8.65987 14.8521 8.57987 14.6443 8.43987L14.6344 8.42987C14.4366 8.28987 14.219 8.18987 13.9915 8.11987L13.9024 8.08987C13.4771 7.96987 13.0221 7.96987 12.5967 8.10987L12.5572 8.11987C12.3494 8.18987 12.1516 8.28987 11.9636 8.40987L11.934 8.43987C11.7163 8.57987 11.4691 8.65987 11.2119 8.65987H10.9237C10.9222 8.68585 10.9212 8.71229 10.9207 8.7392L10.9309 9.04529L10.9412 9.31057Z" fill="url(#paint50_linear_4002_926)"/>
<path d="M10.9412 9.31057H10.9289L11.0057 11.3199H11.3207C11.5086 11.3199 11.6867 11.3599 11.8548 11.4399L12.1021 11.5599C12.1912 11.5999 12.2802 11.6399 12.3692 11.6699L12.5868 11.7399C13.0122 11.8699 13.4672 11.8799 13.8925 11.7599L14.1695 11.6799C14.2783 11.6499 14.3871 11.6099 14.4861 11.5599L14.7136 11.4499C14.8817 11.3699 15.0598 11.3299 15.2477 11.3299H15.5939L15.7583 10.6616C15.877 10.2716 16.0224 10.2716 16.1411 10.6616L16.2349 11.3299H16.7018C16.8898 11.3299 17.0678 11.3699 17.236 11.4499L17.4437 11.5499C17.5525 11.5999 17.6712 11.6499 17.7899 11.6799L18.0966 11.7699C18.5219 11.8899 18.9868 11.8799 19.4023 11.7299L19.5803 11.6699L19.8177 11.5799L20.0848 11.4599C20.253 11.3799 20.431 11.3399 20.619 11.3399H21.0128L21.1115 8.78583C21.11 8.74953 21.1077 8.71422 21.1047 8.67987H20.7179C20.4706 8.65987 20.2233 8.57987 20.0057 8.43987L19.9562 8.40987C19.7881 8.28987 19.6001 8.19987 19.4023 8.12987C18.9769 7.97987 18.5219 7.96987 18.0966 8.08987L17.968 8.11987C17.7306 8.18987 17.5031 8.28987 17.2953 8.43987C17.0876 8.58987 16.8403 8.65987 16.5831 8.65987H15.3565C15.0993 8.65987 14.8521 8.57987 14.6443 8.43987L14.6344 8.42987C14.4366 8.28987 14.219 8.18987 13.9915 8.11987L13.9024 8.08987C13.4771 7.96987 13.0221 7.96987 12.5967 8.10987L12.5572 8.11987C12.3494 8.18987 12.1516 8.28987 11.9636 8.40987L11.934 8.43987C11.7163 8.57987 11.4691 8.65987 11.2119 8.65987H10.9237C10.9222 8.68585 10.9212 8.71229 10.9207 8.7392L10.9309 9.04529L10.9412 9.31057Z" fill="url(#paint51_linear_4002_926)"/>
<g filter="url(#filter12_i_4002_926)">
<path d="M15.6753 10.5166L15.1806 12.0989C15.0796 12.4244 15.3219 12.7499 15.6652 12.7499H16.3971C16.7404 12.7499 16.9827 12.4194 16.8817 12.0989L16.387 10.5166C16.281 10.1661 15.7863 10.1661 15.6753 10.5166Z" fill="#3F2827"/>
<path d="M15.6753 10.5166L15.1806 12.0989C15.0796 12.4244 15.3219 12.7499 15.6652 12.7499H16.3971C16.7404 12.7499 16.9827 12.4194 16.8817 12.0989L16.387 10.5166C16.281 10.1661 15.7863 10.1661 15.6753 10.5166Z" fill="url(#paint52_radial_4002_926)"/>
</g>
<g filter="url(#filter13_f_4002_926)">
<path d="M16.0312 13.4848C15.5105 13.4848 15.021 13.3595 14.6096 13.1401C14.469 13.067 14.318 13.2289 14.4065 13.3595C14.7502 13.8922 15.3491 14.2473 16.0312 14.2473C16.7134 14.2473 17.3122 13.8922 17.6559 13.3595C17.7444 13.2237 17.5934 13.067 17.4528 13.1401C17.0414 13.3595 16.5572 13.4848 16.0312 13.4848Z" stroke="url(#paint53_linear_4002_926)" stroke-width="0.2"/>
</g>
<path d="M16.0312 13.4848C15.5105 13.4848 15.021 13.3595 14.6096 13.1401C14.469 13.067 14.318 13.2289 14.4065 13.3595C14.7502 13.8922 15.3491 14.2473 16.0312 14.2473C16.7134 14.2473 17.3122 13.8922 17.6559 13.3595C17.7444 13.2237 17.5934 13.067 17.4528 13.1401C17.0414 13.3595 16.5572 13.4848 16.0312 13.4848Z" fill="#2A0219"/>
<g filter="url(#filter14_i_4002_926)">
<path d="M17.1732 10.0042C17.4386 9.53739 17.8421 9.16867 18.7106 9.16867C19.0908 9.16867 19.4575 9.27402 19.7834 9.53739C20.0522 9.75462 20.0162 10.0326 19.808 10.1366L19.252 10.4541C18.6002 10.2434 17.8794 10.2149 17.1732 10.0042Z" fill="#2D2B2E"/>
</g>
<g filter="url(#filter15_i_4002_926)">
<path d="M14.8893 10.0042C14.6239 9.53739 14.2204 9.16867 13.3519 9.16867C12.9717 9.16867 12.605 9.27402 12.2791 9.53739C12.0103 9.75462 12.0463 10.0326 12.2545 10.1366L12.8105 10.4541C13.4623 10.2434 14.1831 10.2149 14.8893 10.0042Z" fill="#272528"/>
</g>
<path d="M18.4221 9.22739C19.0752 9.22739 19.6269 9.67767 19.777 10.2862C19.8217 10.4606 19.6878 10.6269 19.5093 10.6269H17.2782C17.1362 10.6269 17.0226 10.4971 17.051 10.3551C17.1768 9.71418 17.7406 9.22739 18.4221 9.22739Z" fill="white"/>
<path d="M18.2154 9.49918C18.7103 9.49918 19.1078 9.90078 19.1078 10.3916C19.1078 10.4728 19.0956 10.5539 19.0753 10.6269H17.3513C17.331 10.5498 17.3188 10.4728 17.3188 10.3916C17.3188 9.90078 17.7204 9.49918 18.2154 9.49918Z" fill="url(#paint54_radial_4002_926)"/>
<path d="M17.7041 10.3916C17.7041 10.1076 17.9313 9.88046 18.2152 9.88046C18.4992 9.88046 18.7264 10.1076 18.7264 10.3916C18.7264 10.4768 18.7061 10.5579 18.6696 10.6269H17.765C17.7244 10.5579 17.7041 10.4768 17.7041 10.3916Z" fill="black"/>
<g filter="url(#filter16_f_4002_926)">
<path d="M18.1497 9.68779C18.2132 9.77283 18.0803 9.87651 17.9292 9.98949C17.7781 10.1025 17.666 10.182 17.6024 10.0969C17.5388 10.0119 17.6098 9.85137 17.7609 9.73839C17.912 9.6254 18.0861 9.60275 18.1497 9.68779Z" fill="#C7A7A3"/>
<path d="M18.1497 9.68779C18.2132 9.77283 18.0803 9.87651 17.9292 9.98949C17.7781 10.1025 17.666 10.182 17.6024 10.0969C17.5388 10.0119 17.6098 9.85137 17.7609 9.73839C17.912 9.6254 18.0861 9.60275 18.1497 9.68779Z" fill="url(#paint55_radial_4002_926)"/>
</g>
<g filter="url(#filter17_f_4002_926)">
<path d="M19.0103 10.2741C18.9773 10.0434 18.8423 9.86947 18.7789 9.81137L18.519 10.0966L18.6363 10.3248L19.0103 10.2741Z" fill="url(#paint56_linear_4002_926)"/>
</g>
<path d="M13.6402 9.22739C12.9871 9.22739 12.4354 9.67767 12.2853 10.2862C12.2406 10.4606 12.3745 10.6269 12.553 10.6269H14.7841C14.9261 10.6269 15.0397 10.4971 15.0113 10.3551C14.8855 9.71418 14.3176 9.22739 13.6402 9.22739Z" fill="white"/>
<path d="M13.847 9.49911C13.3521 9.49911 12.9546 9.90072 12.9546 10.3916C12.9546 10.4727 12.9668 10.5538 12.987 10.6269H14.7111C14.7314 10.5498 14.7436 10.4727 14.7436 10.3916C14.7395 9.90072 14.3419 9.49911 13.847 9.49911Z" fill="url(#paint57_radial_4002_926)"/>
<path d="M14.3582 10.3916C14.3582 10.1076 14.131 9.88046 13.8471 9.88046C13.5631 9.88046 13.3359 10.1076 13.3359 10.3916C13.3359 10.4768 13.3562 10.5579 13.3927 10.6269H14.2974C14.3339 10.5579 14.3582 10.4768 14.3582 10.3916Z" fill="black"/>
<g filter="url(#filter18_f_4002_926)">
<path d="M14.6625 10.2868C14.6625 9.99838 14.428 9.80612 14.3646 9.74802L14.0762 10.0269L14.2536 10.3882L14.6625 10.2868Z" fill="url(#paint58_linear_4002_926)"/>
</g>
<g filter="url(#filter19_f_4002_926)">
<ellipse cx="13.5779" cy="9.88048" rx="0.389603" ry="0.197175" transform="rotate(-27.914 13.5779 9.88048)" fill="#C7A7A3" fill-opacity="0.9"/>
<ellipse cx="13.5779" cy="9.88048" rx="0.389603" ry="0.197175" transform="rotate(-27.914 13.5779 9.88048)" fill="url(#paint59_radial_4002_926)"/>
</g>
<g filter="url(#filter20_if_4002_926)">
<path d="M10.9622 4.58496C11.5279 3.98572 12.5984 3.98476 13.093 4.07416L13.4887 5.36478C13.2359 5.32567 13.0106 5.41506 12.821 5.59944C12.3726 6.85989 10.8316 7.55493 10.1172 7.74489C9.9688 6.25313 10.226 5.36478 10.9622 4.58496Z" fill="#20171A"/>
<path d="M10.9622 4.58496C11.5279 3.98572 12.5984 3.98476 13.093 4.07416L13.4887 5.36478C13.2359 5.32567 13.0106 5.41506 12.821 5.59944C12.3726 6.85989 10.8316 7.55493 10.1172 7.74489C9.9688 6.25313 10.226 5.36478 10.9622 4.58496Z" fill="url(#paint60_radial_4002_926)"/>
</g>
<g filter="url(#filter21_if_4002_926)">
<path d="M15.4279 2.78264C14.2953 2.53257 13.2782 3.66261 13.1609 4.08165C14.2127 7.62666 16.8739 7.43248 19.5009 7.14059C21.0735 6.96585 21.2441 7.68253 21.3782 8.02893C21.3782 4.09622 18.034 3.35796 15.4566 2.78896L15.4279 2.78264Z" fill="#2F2428"/>
<path d="M15.4279 2.78264C14.2953 2.53257 13.2782 3.66261 13.1609 4.08165C14.2127 7.62666 16.8739 7.43248 19.5009 7.14059C21.0735 6.96585 21.2441 7.68253 21.3782 8.02893C21.3782 4.09622 18.034 3.35796 15.4566 2.78896L15.4279 2.78264Z" fill="url(#paint61_radial_4002_926)"/>
<path d="M15.4279 2.78264C14.2953 2.53257 13.2782 3.66261 13.1609 4.08165C14.2127 7.62666 16.8739 7.43248 19.5009 7.14059C21.0735 6.96585 21.2441 7.68253 21.3782 8.02893C21.3782 4.09622 18.034 3.35796 15.4566 2.78896L15.4279 2.78264Z" fill="url(#paint62_radial_4002_926)"/>
</g>
<g filter="url(#filter22_f_4002_926)">
<path d="M13.1399 4.03134C13.1632 4.27438 13.3746 5.18787 13.6846 5.741" stroke="url(#paint63_linear_4002_926)" stroke-width="0.2" stroke-linecap="round"/>
</g>
<g filter="url(#filter23_f_4002_926)">
<path d="M18.4375 6.39233L17.0121 6.65453C16.5893 6.73231 16.1995 6.40765 16.1995 5.97773C16.1995 5.59768 16.5071 5.28958 16.8871 5.28958H19.2279C20.6123 5.28958 21.0706 6.68482 21.1266 7.16159C20.3997 6.49899 19.4049 6.21439 18.4375 6.39233Z" fill="#4B4648"/>
</g>
<defs>
<filter id="filter0_i_4002_926" x="8.52222" y="1.29507" width="15.2681" height="15.7681" filterUnits="userSpaceOnUse" color-interpolation-filters="sRGB">
<feFlood flood-opacity="0" result="BackgroundImageFix"/>
<feBlend mode="normal" in="SourceGraphic" in2="BackgroundImageFix" result="shape"/>
<feColorMatrix in="SourceAlpha" type="matrix" values="0 0 0 0 0 0 0 0 0 0 0 0 0 0 0 0 0 0 127 0" result="hardAlpha"/>
<feOffset dx="0.25" dy="-0.75"/>
<feGaussianBlur stdDeviation="0.75"/>
<feComposite in2="hardAlpha" operator="arithmetic" k2="-1" k3="1"/>
<feColorMatrix type="matrix" values="0 0 0 0 0.121569 0 0 0 0 0.0705882 0 0 0 0 0.164706 0 0 0 1 0"/>
<feBlend mode="normal" in2="shape" result="effect1_innerShadow_4002_926"/>
</filter>
<filter id="filter1_f_4002_926" x="3.09375" y="15.9862" width="25.8125" height="14.2188" filterUnits="userSpaceOnUse" color-interpolation-filters="sRGB">
<feFlood flood-opacity="0" result="BackgroundImageFix"/>
<feBlend mode="normal" in="SourceGraphic" in2="BackgroundImageFix" result="shape"/>
<feGaussianBlur stdDeviation="0.125" result="effect1_foregroundBlur_4002_926"/>
</filter>
<filter id="filter2_f_4002_926" x="10.9885" y="22.4194" width="9.10049" height="7.7052" filterUnits="userSpaceOnUse" color-interpolation-filters="sRGB">
<feFlood flood-opacity="0" result="BackgroundImageFix"/>
<feBlend mode="normal" in="SourceGraphic" in2="BackgroundImageFix" result="shape"/>
<feGaussianBlur stdDeviation="0.5" result="effect1_foregroundBlur_4002_926"/>
</filter>
<filter id="filter3_iii_4002_926" x="12.0294" y="22.8475" width="7.92554" height="6.42708" filterUnits="userSpaceOnUse" color-interpolation-filters="sRGB">
<feFlood flood-opacity="0" result="BackgroundImageFix"/>
<feBlend mode="normal" in="SourceGraphic" in2="BackgroundImageFix" result="shape"/>
<feColorMatrix in="SourceAlpha" type="matrix" values="0 0 0 0 0 0 0 0 0 0 0 0 0 0 0 0 0 0 127 0" result="hardAlpha"/>
<feOffset dx="-0.15" dy="0.15"/>
<feGaussianBlur stdDeviation="0.15"/>
<feComposite in2="hardAlpha" operator="arithmetic" k2="-1" k3="1"/>
<feColorMatrix type="matrix" values="0 0 0 0 0.282353 0 0 0 0 0.670588 0 0 0 0 1 0 0 0 1 0"/>
<feBlend mode="normal" in2="shape" result="effect1_innerShadow_4002_926"/>
<feColorMatrix in="SourceAlpha" type="matrix" values="0 0 0 0 0 0 0 0 0 0 0 0 0 0 0 0 0 0 127 0" result="hardAlpha"/>
<feOffset dx="0.15" dy="-0.15"/>
<feGaussianBlur stdDeviation="0.3"/>
<feComposite in2="hardAlpha" operator="arithmetic" k2="-1" k3="1"/>
<feColorMatrix type="matrix" values="0 0 0 0 0.196078 0 0 0 0 0.407843 0 0 0 0 0.87451 0 0 0 1 0"/>
<feBlend mode="normal" in2="effect1_innerShadow_4002_926" result="effect2_innerShadow_4002_926"/>
<feColorMatrix in="SourceAlpha" type="matrix" values="0 0 0 0 0 0 0 0 0 0 0 0 0 0 0 0 0 0 127 0" result="hardAlpha"/>
<feOffset dx="0.05" dy="-0.05"/>
<feGaussianBlur stdDeviation="0.1"/>
<feComposite in2="hardAlpha" operator="arithmetic" k2="-1" k3="1"/>
<feColorMatrix type="matrix" values="0 0 0 0 0.164706 0 0 0 0 0.317647 0 0 0 0 0.886275 0 0 0 1 0"/>
<feBlend mode="normal" in2="effect2_innerShadow_4002_926" result="effect3_innerShadow_4002_926"/>
</filter>
<filter id="filter4_f_4002_926" x="14.1604" y="18.7085" width="3.09526" height="3.10968" filterUnits="userSpaceOnUse" color-interpolation-filters="sRGB">
<feFlood flood-opacity="0" result="BackgroundImageFix"/>
<feBlend mode="normal" in="SourceGraphic" in2="BackgroundImageFix" result="shape"/>
<feGaussianBlur stdDeviation="0.25" result="effect1_foregroundBlur_4002_926"/>
</filter>
<filter id="filter5_i_4002_926" x="10.2891" y="15.61" width="11.6063" height="4.825" filterUnits="userSpaceOnUse" color-interpolation-filters="sRGB">
<feFlood flood-opacity="0" result="BackgroundImageFix"/>
<feBlend mode="normal" in="SourceGraphic" in2="BackgroundImageFix" result="shape"/>
<feColorMatrix in="SourceAlpha" type="matrix" values="0 0 0 0 0 0 0 0 0 0 0 0 0 0 0 0 0 0 127 0" result="hardAlpha"/>
<feOffset dx="0.2" dy="-0.25"/>
<feGaussianBlur stdDeviation="0.1"/>
<feComposite in2="hardAlpha" operator="arithmetic" k2="-1" k3="1"/>
<feColorMatrix type="matrix" values="0 0 0 0 0.803922 0 0 0 0 0.223529 0 0 0 0 0.533333 0 0 0 1 0"/>
<feBlend mode="normal" in2="shape" result="effect1_innerShadow_4002_926"/>
</filter>
<filter id="filter6_i_4002_926" x="9.73657" y="8.9642" width="3.36817" height="3.21817" filterUnits="userSpaceOnUse" color-interpolation-filters="sRGB">
<feFlood flood-opacity="0" result="BackgroundImageFix"/>
<feBlend mode="normal" in="SourceGraphic" in2="BackgroundImageFix" result="shape"/>
<feColorMatrix in="SourceAlpha" type="matrix" values="0 0 0 0 0 0 0 0 0 0 0 0 0 0 0 0 0 0 127 0" result="hardAlpha"/>
<feOffset dx="0.15"/>
<feGaussianBlur stdDeviation="0.25"/>
<feComposite in2="hardAlpha" operator="arithmetic" k2="-1" k3="1"/>
<feColorMatrix type="matrix" values="0 0 0 0 0.337255 0 0 0 0 0.266667 0 0 0 0 0.25098 0 0 0 1 0"/>
<feBlend mode="normal" in2="shape" result="effect1_innerShadow_4002_926"/>
</filter>
<filter id="filter7_i_4002_926" x="19.2495" y="8.7142" width="3.21817" height="3.46817" filterUnits="userSpaceOnUse" color-interpolation-filters="sRGB">
<feFlood flood-opacity="0" result="BackgroundImageFix"/>
<feBlend mode="normal" in="SourceGraphic" in2="BackgroundImageFix" result="shape"/>
<feColorMatrix in="SourceAlpha" type="matrix" values="0 0 0 0 0 0 0 0 0 0 0 0 0 0 0 0 0 0 127 0" result="hardAlpha"/>
<feOffset dy="-0.25"/>
<feGaussianBlur stdDeviation="0.25"/>
<feComposite in2="hardAlpha" operator="arithmetic" k2="-1" k3="1"/>
<feColorMatrix type="matrix" values="0 0 0 0 0.184314 0 0 0 0 0.0901961 0 0 0 0 0.117647 0 0 0 1 0"/>
<feBlend mode="normal" in2="shape" result="effect1_innerShadow_4002_926"/>
</filter>
<filter id="filter8_f_4002_926" x="19.2844" y="8.99911" width="3.14822" height="3.14822" filterUnits="userSpaceOnUse" color-interpolation-filters="sRGB">
<feFlood flood-opacity="0" result="BackgroundImageFix"/>
<feBlend mode="normal" in="SourceGraphic" in2="BackgroundImageFix" result="shape"/>
<feGaussianBlur stdDeviation="0.25" result="effect1_foregroundBlur_4002_926"/>
</filter>
<filter id="filter9_f_4002_926" x="10.0408" y="9.24911" width="2.64822" height="2.64822" filterUnits="userSpaceOnUse" color-interpolation-filters="sRGB">
<feFlood flood-opacity="0" result="BackgroundImageFix"/>
<feBlend mode="normal" in="SourceGraphic" in2="BackgroundImageFix" result="shape"/>
<feGaussianBlur stdDeviation="0.125" result="effect1_foregroundBlur_4002_926"/>
</filter>
<filter id="filter10_i_4002_926" x="10.9358" y="5.66641" width="10.1909" height="11.0268" filterUnits="userSpaceOnUse" color-interpolation-filters="sRGB">
<feFlood flood-opacity="0" result="BackgroundImageFix"/>
<feBlend mode="normal" in="SourceGraphic" in2="BackgroundImageFix" result="shape"/>
<feColorMatrix in="SourceAlpha" type="matrix" values="0 0 0 0 0 0 0 0 0 0 0 0 0 0 0 0 0 0 127 0" result="hardAlpha"/>
<feOffset dy="0.15"/>
<feGaussianBlur stdDeviation="0.15"/>
<feComposite in2="hardAlpha" operator="arithmetic" k2="-1" k3="1"/>
<feColorMatrix type="matrix" values="0 0 0 0 0.14902 0 0 0 0 0.0901961 0 0 0 0 0.0941176 0 0 0 1 0"/>
<feBlend mode="normal" in2="shape" result="effect1_innerShadow_4002_926"/>
</filter>
<filter id="filter11_f_4002_926" x="14.4304" y="9.56808" width="2.87727" height="3.68182" filterUnits="userSpaceOnUse" color-interpolation-filters="sRGB">
<feFlood flood-opacity="0" result="BackgroundImageFix"/>
<feBlend mode="normal" in="SourceGraphic" in2="BackgroundImageFix" result="shape"/>
<feGaussianBlur stdDeviation="0.25" result="effect1_foregroundBlur_4002_926"/>
</filter>
<filter id="filter12_i_4002_926" x="15.1575" y="10.0537" width="2.04736" height="2.69622" filterUnits="userSpaceOnUse" color-interpolation-filters="sRGB">
<feFlood flood-opacity="0" result="BackgroundImageFix"/>
<feBlend mode="normal" in="SourceGraphic" in2="BackgroundImageFix" result="shape"/>
<feColorMatrix in="SourceAlpha" type="matrix" values="0 0 0 0 0 0 0 0 0 0 0 0 0 0 0 0 0 0 127 0" result="hardAlpha"/>
<feOffset dx="0.3" dy="-0.2"/>
<feGaussianBlur stdDeviation="0.3"/>
<feComposite in2="hardAlpha" operator="arithmetic" k2="-1" k3="1"/>
<feColorMatrix type="matrix" values="0 0 0 0 0.207843 0 0 0 0 0.0941176 0 0 0 0 0.121569 0 0 0 1 0"/>
<feBlend mode="normal" in2="shape" result="effect1_innerShadow_4002_926"/>
</filter>
<filter id="filter13_f_4002_926" x="14.18" y="12.9214" width="3.70234" height="1.52596" filterUnits="userSpaceOnUse" color-interpolation-filters="sRGB">
<feFlood flood-opacity="0" result="BackgroundImageFix"/>
<feBlend mode="normal" in="SourceGraphic" in2="BackgroundImageFix" result="shape"/>
<feGaussianBlur stdDeviation="0.05" result="effect1_foregroundBlur_4002_926"/>
</filter>
<filter id="filter14_i_4002_926" x="16.9732" y="9.16867" width="3.00139" height="1.28543" filterUnits="userSpaceOnUse" color-interpolation-filters="sRGB">
<feFlood flood-opacity="0" result="BackgroundImageFix"/>
<feBlend mode="normal" in="SourceGraphic" in2="BackgroundImageFix" result="shape"/>
<feColorMatrix in="SourceAlpha" type="matrix" values="0 0 0 0 0 0 0 0 0 0 0 0 0 0 0 0 0 0 127 0" result="hardAlpha"/>
<feOffset dx="-0.2"/>
<feGaussianBlur stdDeviation="0.2"/>
<feComposite in2="hardAlpha" operator="arithmetic" k2="-1" k3="1"/>
<feColorMatrix type="matrix" values="0 0 0 0 0.0941176 0 0 0 0 0.0666667 0 0 0 0 0.117647 0 0 0 1 0"/>
<feBlend mode="normal" in2="shape" result="effect1_innerShadow_4002_926"/>
</filter>
<filter id="filter15_i_4002_926" x="12.0879" y="9.16867" width="3.00139" height="1.28543" filterUnits="userSpaceOnUse" color-interpolation-filters="sRGB">
<feFlood flood-opacity="0" result="BackgroundImageFix"/>
<feBlend mode="normal" in="SourceGraphic" in2="BackgroundImageFix" result="shape"/>
<feColorMatrix in="SourceAlpha" type="matrix" values="0 0 0 0 0 0 0 0 0 0 0 0 0 0 0 0 0 0 127 0" result="hardAlpha"/>
<feOffset dx="0.2"/>
<feGaussianBlur stdDeviation="0.125"/>
<feComposite in2="hardAlpha" operator="arithmetic" k2="-1" k3="1"/>
<feColorMatrix type="matrix" values="0 0 0 0 0.0862745 0 0 0 0 0.054902 0 0 0 0 0.113725 0 0 0 1 0"/>
<feBlend mode="normal" in2="shape" result="effect1_innerShadow_4002_926"/>
</filter>
<filter id="filter16_f_4002_926" x="17.4791" y="9.53629" width="0.786826" height="0.696307" filterUnits="userSpaceOnUse" color-interpolation-filters="sRGB">
<feFlood flood-opacity="0" result="BackgroundImageFix"/>
<feBlend mode="normal" in="SourceGraphic" in2="BackgroundImageFix" result="shape"/>
<feGaussianBlur stdDeviation="0.05" result="effect1_foregroundBlur_4002_926"/>
</filter>
<filter id="filter17_f_4002_926" x="18.319" y="9.61137" width="0.891226" height="0.913397" filterUnits="userSpaceOnUse" color-interpolation-filters="sRGB">
<feFlood flood-opacity="0" result="BackgroundImageFix"/>
<feBlend mode="normal" in="SourceGraphic" in2="BackgroundImageFix" result="shape"/>
<feGaussianBlur stdDeviation="0.1" result="effect1_foregroundBlur_4002_926"/>
</filter>
<filter id="filter18_f_4002_926" x="13.8762" y="9.54802" width="0.986306" height="1.0402" filterUnits="userSpaceOnUse" color-interpolation-filters="sRGB">
<feFlood flood-opacity="0" result="BackgroundImageFix"/>
<feBlend mode="normal" in="SourceGraphic" in2="BackgroundImageFix" result="shape"/>
<feGaussianBlur stdDeviation="0.1" result="effect1_foregroundBlur_4002_926"/>
</filter>
<filter id="filter19_f_4002_926" x="13.1214" y="9.52823" width="0.913043" height="0.704486" filterUnits="userSpaceOnUse" color-interpolation-filters="sRGB">
<feFlood flood-opacity="0" result="BackgroundImageFix"/>
<feBlend mode="normal" in="SourceGraphic" in2="BackgroundImageFix" result="shape"/>
<feGaussianBlur stdDeviation="0.05" result="effect1_foregroundBlur_4002_926"/>
</filter>
<filter id="filter20_if_4002_926" x="9.5769" y="3.53146" width="4.4118" height="4.71341" filterUnits="userSpaceOnUse" color-interpolation-filters="sRGB">
<feFlood flood-opacity="0" result="BackgroundImageFix"/>
<feBlend mode="normal" in="SourceGraphic" in2="BackgroundImageFix" result="shape"/>
<feColorMatrix in="SourceAlpha" type="matrix" values="0 0 0 0 0 0 0 0 0 0 0 0 0 0 0 0 0 0 127 0" result="hardAlpha"/>
<feOffset dx="0.5" dy="0.5"/>
<feGaussianBlur stdDeviation="0.5"/>
<feComposite in2="hardAlpha" operator="arithmetic" k2="-1" k3="1"/>
<feColorMatrix type="matrix" values="0 0 0 0 0.352941 0 0 0 0 0.341176 0 0 0 0 0.341176 0 0 0 1 0"/>
<feBlend mode="normal" in2="shape" result="effect1_innerShadow_4002_926"/>
<feGaussianBlur stdDeviation="0.25" result="effect2_foregroundBlur_4002_926"/>
</filter>
<filter id="filter21_if_4002_926" x="12.8609" y="2.49692" width="8.76732" height="5.78201" filterUnits="userSpaceOnUse" color-interpolation-filters="sRGB">
<feFlood flood-opacity="0" result="BackgroundImageFix"/>
<feBlend mode="normal" in="SourceGraphic" in2="BackgroundImageFix" result="shape"/>
<feColorMatrix in="SourceAlpha" type="matrix" values="0 0 0 0 0 0 0 0 0 0 0 0 0 0 0 0 0 0 127 0" result="hardAlpha"/>
<feOffset dx="-0.3" dy="0.2"/>
<feGaussianBlur stdDeviation="0.4"/>
<feComposite in2="hardAlpha" operator="arithmetic" k2="-1" k3="1"/>
<feColorMatrix type="matrix" values="0 0 0 0 0.345098 0 0 0 0 0.329412 0 0 0 0 0.333333 0 0 0 1 0"/>
<feBlend mode="normal" in2="shape" result="effect1_innerShadow_4002_926"/>
<feGaussianBlur stdDeviation="0.125" result="effect2_foregroundBlur_4002_926"/>
</filter>
<filter id="filter22_f_4002_926" x="12.8399" y="3.73134" width="1.14477" height="2.30967" filterUnits="userSpaceOnUse" color-interpolation-filters="sRGB">
<feFlood flood-opacity="0" result="BackgroundImageFix"/>
<feBlend mode="normal" in="SourceGraphic" in2="BackgroundImageFix" result="shape"/>
<feGaussianBlur stdDeviation="0.1" result="effect1_foregroundBlur_4002_926"/>
</filter>
<filter id="filter23_f_4002_926" x="15.4495" y="4.53958" width="6.42717" height="3.37201" filterUnits="userSpaceOnUse" color-interpolation-filters="sRGB">
<feFlood flood-opacity="0" result="BackgroundImageFix"/>
<feBlend mode="normal" in="SourceGraphic" in2="BackgroundImageFix" result="shape"/>
<feGaussianBlur stdDeviation="0.375" result="effect1_foregroundBlur_4002_926"/>
</filter>
<linearGradient id="paint0_linear_4002_926" x1="20.7245" y1="3.62065" x2="13.9194" y2="16.2252" gradientUnits="userSpaceOnUse">
<stop stop-color="#393134"/>
<stop offset="1" stop-color="#1A1718"/>
</linearGradient>
<radialGradient id="paint1_radial_4002_926" cx="0" cy="0" r="1" gradientUnits="userSpaceOnUse" gradientTransform="translate(15.7297 13.074) rotate(97.5394) scale(4.59883 5.74488)">
<stop offset="0.590551" stop-color="#171418"/>
<stop offset="1" stop-color="#171418" stop-opacity="0"/>
</radialGradient>
<radialGradient id="paint2_radial_4002_926" cx="0" cy="0" r="1" gradientUnits="userSpaceOnUse" gradientTransform="translate(12.9138 13.3422) rotate(146.004) scale(3.47738 4.56901)">
<stop offset="0.258378" stop-color="#181518"/>
<stop offset="1" stop-color="#181518" stop-opacity="0"/>
</radialGradient>
<radialGradient id="paint3_radial_4002_926" cx="0" cy="0" r="1" gradientUnits="userSpaceOnUse" gradientTransform="translate(11.1873 10.7945) rotate(127.405) scale(2.15225 1.65263)">
<stop offset="0.333546" stop-color="#040101"/>
<stop offset="1" stop-color="#040101" stop-opacity="0"/>
</radialGradient>
<radialGradient id="paint4_radial_4002_926" cx="0" cy="0" r="1" gradientUnits="userSpaceOnUse" gradientTransform="translate(11.6398 8.76637) rotate(121.43) scale(2.47506 1.74346)">
<stop offset="0.320588" stop-color="#040002"/>
<stop offset="1" stop-color="#040002" stop-opacity="0"/>
</radialGradient>
<radialGradient id="paint5_radial_4002_926" cx="0" cy="0" r="1" gradientUnits="userSpaceOnUse" gradientTransform="translate(12.5114 2.51441) rotate(62.2717) scale(2.95399 4.10059)">
<stop stop-color="#474445"/>
<stop offset="1" stop-color="#474445" stop-opacity="0"/>
</radialGradient>
<radialGradient id="paint6_radial_4002_926" cx="0" cy="0" r="1" gradientUnits="userSpaceOnUse" gradientTransform="translate(21.8642 4.59281) rotate(134.998) scale(2.03849 2.84876)">
<stop stop-color="#4A4446"/>
<stop offset="1" stop-color="#4A4446" stop-opacity="0"/>
</radialGradient>
<radialGradient id="paint7_radial_4002_926" cx="0" cy="0" r="1" gradientUnits="userSpaceOnUse" gradientTransform="translate(23.5404 9.72177) rotate(163.779) scale(1.9201 4.00422)">
<stop stop-color="#3B3638"/>
<stop offset="1" stop-color="#3B3638" stop-opacity="0"/>
</radialGradient>
<radialGradient id="paint8_radial_4002_926" cx="0" cy="0" r="1" gradientUnits="userSpaceOnUse" gradientTransform="translate(22.9369 13.1411) rotate(165.963) scale(2.90248 3.69733)">
<stop stop-color="#464444"/>
<stop offset="1" stop-color="#464444" stop-opacity="0"/>
</radialGradient>
<radialGradient id="paint9_radial_4002_926" cx="0" cy="0" r="1" gradientUnits="userSpaceOnUse" gradientTransform="translate(20.7639 7.28776) rotate(-108.843) scale(2.80034 2.21491)">
<stop stop-color="#575455"/>
<stop offset="1" stop-color="#575455" stop-opacity="0"/>
</radialGradient>
<radialGradient id="paint10_radial_4002_926" cx="0" cy="0" r="1" gradientUnits="userSpaceOnUse" gradientTransform="translate(9.88941 9.68562) rotate(5.98813) scale(1.51217 2.45015)">
<stop stop-color="#413733"/>
<stop offset="1" stop-color="#413733" stop-opacity="0"/>
</radialGradient>
<radialGradient id="paint11_radial_4002_926" cx="0" cy="0" r="1" gradientUnits="userSpaceOnUse" gradientTransform="translate(10.3995 6.59645) rotate(107.382) scale(2.91973 2.69143)">
<stop offset="0.242742" stop-color="#585352"/>
<stop offset="1" stop-color="#585352" stop-opacity="0"/>
</radialGradient>
<radialGradient id="paint12_radial_4002_926" cx="0" cy="0" r="1" gradientUnits="userSpaceOnUse" gradientTransform="translate(16 18.3725) rotate(90) scale(11.5824 20.8203)">
<stop offset="0.571987" stop-color="#FF3B9A"/>
<stop offset="1" stop-color="#EE344D"/>
</radialGradient>
<radialGradient id="paint13_radial_4002_926" cx="0" cy="0" r="1" gradientUnits="userSpaceOnUse" gradientTransform="translate(10.9922 16.3725) rotate(124.924) scale(12.8824 12.131)">
<stop stop-color="#BF2370"/>
<stop offset="1" stop-color="#BF2370" stop-opacity="0"/>
</radialGradient>
<linearGradient id="paint14_linear_4002_926" x1="16" y1="16.2362" x2="16" y2="30.3413" gradientUnits="userSpaceOnUse">
<stop offset="0.866429" stop-color="#790B2C"/>
<stop offset="1" stop-color="#790B2C" stop-opacity="0"/>
</linearGradient>
<radialGradient id="paint15_radial_4002_926" cx="0" cy="0" r="1" gradientUnits="userSpaceOnUse" gradientTransform="translate(22.0859 19.2475) rotate(123.174) scale(11.5365 12.2083)">
<stop stop-color="#4690E6"/>
<stop offset="1" stop-color="#3E75E1"/>
</radialGradient>
<radialGradient id="paint16_radial_4002_926" cx="0" cy="0" r="1" gradientUnits="userSpaceOnUse" gradientTransform="translate(13.4609 16.8725) rotate(100.184) scale(5.30229 7.65346)">
<stop offset="0.230967" stop-color="#3062AC"/>
<stop offset="1" stop-color="#3A7AD3" stop-opacity="0"/>
</radialGradient>
<linearGradient id="paint17_linear_4002_926" x1="26.9922" y1="30.2475" x2="26.7734" y2="27.4975" gradientUnits="userSpaceOnUse">
<stop stop-color="#4D87F8"/>
<stop offset="1" stop-color="#4B99FF" stop-opacity="0"/>
</linearGradient>
<radialGradient id="paint18_radial_4002_926" cx="0" cy="0" r="1" gradientUnits="userSpaceOnUse" gradientTransform="translate(23.1797 29.6225) scale(5.4375 14.5199)">
<stop offset="0.697802" stop-color="#528ADB" stop-opacity="0"/>
<stop offset="1" stop-color="#528ADB"/>
</radialGradient>
<radialGradient id="paint19_radial_4002_926" cx="0" cy="0" r="1" gradientUnits="userSpaceOnUse" gradientTransform="translate(23.6797 29.9549) rotate(-90) scale(13.1762 0.219244)">
<stop offset="0.210265" stop-color="#286ADF"/>
<stop offset="1" stop-color="#286ADF" stop-opacity="0"/>
</radialGradient>
<linearGradient id="paint20_linear_4002_926" x1="8.58594" y1="25.1538" x2="5.33594" y2="25.1538" gradientUnits="userSpaceOnUse">
<stop offset="0.182692" stop-color="#3E80F0"/>
<stop offset="1" stop-color="#3E77D8"/>
</linearGradient>
<radialGradient id="paint21_radial_4002_926" cx="0" cy="0" r="1" gradientUnits="userSpaceOnUse" gradientTransform="translate(9.55469 29.7788) rotate(180) scale(5.6875 13.3438)">
<stop offset="0.813187" stop-color="#407DBE" stop-opacity="0"/>
<stop offset="1" stop-color="#407DBE"/>
</radialGradient>
<radialGradient id="paint22_radial_4002_926" cx="0" cy="0" r="1" gradientUnits="userSpaceOnUse" gradientTransform="translate(5.71094 29.9549) rotate(-84.8713) scale(1.57309 5.47527)">
<stop stop-color="#3D71ED"/>
<stop offset="1" stop-color="#3D71ED" stop-opacity="0"/>
</radialGradient>
<radialGradient id="paint23_radial_4002_926" cx="0" cy="0" r="1" gradientUnits="userSpaceOnUse" gradientTransform="translate(8.38281 29.9549) rotate(180) scale(0.210937 15.1051)">
<stop stop-color="#2154CA"/>
<stop offset="1" stop-color="#2154CA" stop-opacity="0"/>
</radialGradient>
<linearGradient id="paint24_linear_4002_926" x1="18.5547" y1="23.9663" x2="13.8047" y2="27.31" gradientUnits="userSpaceOnUse">
<stop stop-color="#47A1FF"/>
<stop offset="1" stop-color="#3F83F1"/>
</linearGradient>
<linearGradient id="paint25_linear_4002_926" x1="15.9922" y1="22.8569" x2="15.9922" y2="24.2007" gradientUnits="userSpaceOnUse">
<stop stop-color="#40A0F8"/>
<stop offset="1" stop-color="#4392F9" stop-opacity="0"/>
</linearGradient>
<radialGradient id="paint26_radial_4002_926" cx="0" cy="0" r="1" gradientUnits="userSpaceOnUse" gradientTransform="translate(19.711 23.4038) rotate(142.125) scale(0.890761 1.10424)">
<stop offset="0.0728661" stop-color="#53B7FF"/>
<stop offset="1" stop-color="#49A3FF" stop-opacity="0"/>
</radialGradient>
<linearGradient id="paint27_linear_4002_926" x1="14.7734" y1="19.06" x2="20.1172" y2="17.1538" gradientUnits="userSpaceOnUse">
<stop stop-color="#CE1F66"/>
<stop offset="1" stop-color="#FF3656"/>
</linearGradient>
<radialGradient id="paint28_radial_4002_926" cx="0" cy="0" r="1" gradientUnits="userSpaceOnUse" gradientTransform="translate(14.3216 15.1949) rotate(111.034) scale(3.13667 4.32041)">
<stop offset="0.343609" stop-color="#780438"/>
<stop offset="1" stop-color="#780438" stop-opacity="0"/>
</radialGradient>
<radialGradient id="paint29_radial_4002_926" cx="0" cy="0" r="1" gradientUnits="userSpaceOnUse" gradientTransform="translate(20.7422 15.3413) rotate(90) scale(1.53125 3)">
<stop offset="0.183673" stop-color="#F04451"/>
<stop offset="1" stop-color="#F04451" stop-opacity="0"/>
</radialGradient>
<radialGradient id="paint30_radial_4002_926" cx="0" cy="0" r="1" gradientUnits="userSpaceOnUse" gradientTransform="translate(19.4919 15.4033) rotate(90) scale(1.79294 6.37953)">
<stop stop-color="#BB1135"/>
<stop offset="1" stop-color="#BB1135" stop-opacity="0"/>
</radialGradient>
<radialGradient id="paint31_radial_4002_926" cx="0" cy="0" r="1" gradientUnits="userSpaceOnUse" gradientTransform="translate(16.7109 19.435) rotate(126.363) scale(1.76569 1.94865)">
<stop stop-color="#FFF14E"/>
<stop offset="1" stop-color="#F2BB43"/>
</radialGradient>
<radialGradient id="paint32_radial_4002_926" cx="0" cy="0" r="1" gradientUnits="userSpaceOnUse" gradientTransform="translate(16.3672 19.7475) rotate(111.306) scale(1.67712 2.10568)">
<stop offset="0.510633" stop-color="#F6C546" stop-opacity="0"/>
<stop offset="1" stop-color="#D79D4A"/>
</radialGradient>
<radialGradient id="paint33_radial_4002_926" cx="0" cy="0" r="1" gradientUnits="userSpaceOnUse" gradientTransform="translate(15.5516 16.2581) rotate(59.9793) scale(2.81682 4.25218)">
<stop offset="0.351871" stop-color="#3C212F"/>
<stop offset="1" stop-color="#4C2D2B"/>
</radialGradient>
<linearGradient id="paint34_linear_4002_926" x1="8.84654" y1="15.3828" x2="23.2225" y2="15.3828" gradientUnits="userSpaceOnUse">
<stop offset="0.00558659" stop-color="#CCCCCC"/>
<stop offset="1" stop-color="#E6E6E6"/>
</linearGradient>
<linearGradient id="paint35_linear_4002_926" x1="8.84641" y1="15.3525" x2="23.2224" y2="15.3525" gradientUnits="userSpaceOnUse">
<stop offset="0.00558659" stop-color="#CCCCCC"/>
<stop offset="1" stop-color="#E6E6E6"/>
</linearGradient>
<linearGradient id="paint36_linear_4002_926" x1="9.73657" y1="10.6605" x2="12.6959" y2="10.6605" gradientUnits="userSpaceOnUse">
<stop stop-color="#392526"/>
<stop offset="1" stop-color="#2A1C1F"/>
</linearGradient>
<radialGradient id="paint37_radial_4002_926" cx="0" cy="0" r="1" gradientUnits="userSpaceOnUse" gradientTransform="translate(20.0709 11.0124) rotate(-24.444) scale(2.73412 3.33824)">
<stop offset="0.63975" stop-color="#493033"/>
<stop offset="0.94391" stop-color="#6A5956"/>
</radialGradient>
<radialGradient id="paint38_radial_4002_926" cx="0" cy="0" r="1" gradientUnits="userSpaceOnUse" gradientTransform="translate(21.1016 8.89214) rotate(29.2711) scale(1.50836 0.426435)">
<stop stop-color="#402824"/>
<stop offset="1" stop-color="#402824" stop-opacity="0"/>
</radialGradient>
<radialGradient id="paint39_radial_4002_926" cx="0" cy="0" r="1" gradientUnits="userSpaceOnUse" gradientTransform="translate(20.4227 10.6855) rotate(-4.25413) scale(1.51406 1.18358)">
<stop offset="0.719132" stop-color="#371D1F" stop-opacity="0"/>
<stop offset="1" stop-color="#371D1F"/>
</radialGradient>
<radialGradient id="paint40_radial_4002_926" cx="0" cy="0" r="1" gradientUnits="userSpaceOnUse" gradientTransform="translate(11.4303 10.5732) rotate(180) scale(1.20681 0.952029)">
<stop offset="0.666667" stop-color="#2D181A" stop-opacity="0"/>
<stop offset="1" stop-color="#2D181A"/>
</radialGradient>
<radialGradient id="paint41_radial_4002_926" cx="0" cy="0" r="1" gradientUnits="userSpaceOnUse" gradientTransform="translate(18.8905 10.0357) rotate(155.244) scale(7.16175 9.58587)">
<stop stop-color="#513531"/>
<stop offset="0.817627" stop-color="#3C2727"/>
</radialGradient>
<radialGradient id="paint42_radial_4002_926" cx="0" cy="0" r="1" gradientUnits="userSpaceOnUse" gradientTransform="translate(17.8582 10.8783) rotate(154.513) scale(2.25599 1.57104)">
<stop stop-color="#533632"/>
<stop offset="1" stop-color="#533632" stop-opacity="0"/>
</radialGradient>
<radialGradient id="paint43_radial_4002_926" cx="0" cy="0" r="1" gradientUnits="userSpaceOnUse" gradientTransform="translate(13.8515 16.8183) rotate(-72.8383) scale(3.63806 4.61602)">
<stop stop-color="#3A1F30"/>
<stop offset="1" stop-color="#3A1F30" stop-opacity="0"/>
</radialGradient>
<radialGradient id="paint44_radial_4002_926" cx="0" cy="0" r="1" gradientUnits="userSpaceOnUse" gradientTransform="translate(16.5715 10.1927) rotate(96.7269) scale(6.84714 6.88381)">
<stop offset="0.72739" stop-color="#3F243B" stop-opacity="0"/>
<stop offset="1" stop-color="#3F243B"/>
</radialGradient>
<radialGradient id="paint45_radial_4002_926" cx="0" cy="0" r="1" gradientUnits="userSpaceOnUse" gradientTransform="translate(15.7695 10.4258) rotate(90) scale(6.56691 6.60207)">
<stop offset="0.79368" stop-color="#3B232B" stop-opacity="0"/>
<stop offset="1" stop-color="#2B151B"/>
</radialGradient>
<radialGradient id="paint46_radial_4002_926" cx="0" cy="0" r="1" gradientUnits="userSpaceOnUse" gradientTransform="translate(17.8415 11.7667) rotate(168.897) scale(7.03739 12.1162)">
<stop offset="0.794964" stop-color="#5E4543" stop-opacity="0"/>
<stop offset="1" stop-color="#5E4543"/>
</radialGradient>
<radialGradient id="paint47_radial_4002_926" cx="0" cy="0" r="1" gradientUnits="userSpaceOnUse" gradientTransform="translate(18.3325 9.61728) rotate(-90) scale(1.15077 1.41231)">
<stop stop-color="#43272A"/>
<stop offset="1" stop-color="#43272A" stop-opacity="0"/>
</radialGradient>
<radialGradient id="paint48_radial_4002_926" cx="0" cy="0" r="1" gradientUnits="userSpaceOnUse" gradientTransform="translate(13.9547 9.38871) rotate(-90) scale(1.31251 1.50423)">
<stop stop-color="#371E27"/>
<stop offset="1" stop-color="#371E27" stop-opacity="0"/>
</radialGradient>
<radialGradient id="paint49_radial_4002_926" cx="0" cy="0" r="1" gradientUnits="userSpaceOnUse" gradientTransform="translate(21.1267 11.1048) rotate(180) scale(1.28528 6.44557)">
<stop stop-color="#59403D"/>
<stop offset="1" stop-color="#59403D" stop-opacity="0"/>
</radialGradient>
<linearGradient id="paint50_linear_4002_926" x1="20.4033" y1="10.6897" x2="13.0235" y2="10.6897" gradientUnits="userSpaceOnUse">
<stop stop-color="#FF1781"/>
<stop offset="1" stop-color="#C31251"/>
</linearGradient>
<linearGradient id="paint51_linear_4002_926" x1="10.9207" y1="10.3772" x2="12.3696" y2="10.3772" gradientUnits="userSpaceOnUse">
<stop stop-color="#AB2D46"/>
<stop offset="1" stop-color="#BA3950" stop-opacity="0"/>
</linearGradient>
<radialGradient id="paint52_radial_4002_926" cx="0" cy="0" r="1" gradientUnits="userSpaceOnUse" gradientTransform="translate(16.9048 12.178) rotate(-107.299) scale(2.23557 0.937758)">
<stop offset="0.166078" stop-color="#543A37"/>
<stop offset="1" stop-color="#543A37" stop-opacity="0"/>
</radialGradient>
<linearGradient id="paint53_linear_4002_926" x1="14.9669" y1="14.1133" x2="15.4278" y2="13.4009" gradientUnits="userSpaceOnUse">
<stop stop-color="#564848"/>
<stop offset="0.663171" stop-color="#564848" stop-opacity="0"/>
</linearGradient>
<radialGradient id="paint54_radial_4002_926" cx="0" cy="0" r="1" gradientUnits="userSpaceOnUse" gradientTransform="translate(18.2133 9.9762) rotate(90) scale(0.811316 1.29049)">
<stop offset="0.80198" stop-color="#7D574A"/>
<stop offset="1" stop-color="#694B43"/>
<stop offset="1" stop-color="#804D49"/>
<stop offset="1" stop-color="#664944"/>
</radialGradient>
<radialGradient id="paint55_radial_4002_926" cx="0" cy="0" r="1" gradientUnits="userSpaceOnUse" gradientTransform="translate(17.9851 10.0603) rotate(-127.812) scale(0.378286 0.520809)">
<stop offset="0.765532" stop-color="#FFE6E2" stop-opacity="0"/>
<stop offset="0.966159" stop-color="#FFE6E2"/>
</radialGradient>
<linearGradient id="paint56_linear_4002_926" x1="18.9913" y1="10.03" x2="18.6775" y2="10.2234" gradientUnits="userSpaceOnUse">
<stop stop-color="#B4948D"/>
<stop offset="1" stop-color="#B4948D" stop-opacity="0"/>
</linearGradient>
<radialGradient id="paint57_radial_4002_926" cx="0" cy="0" r="1" gradientUnits="userSpaceOnUse" gradientTransform="translate(13.8491 9.97614) rotate(90) scale(0.811321 1.2905)">
<stop offset="0.80198" stop-color="#7D574A"/>
<stop offset="1" stop-color="#694B43"/>
<stop offset="1" stop-color="#804D49"/>
<stop offset="1" stop-color="#664944"/>
</radialGradient>
<linearGradient id="paint58_linear_4002_926" x1="14.593" y1="10.0301" x2="14.2792" y2="10.2234" gradientUnits="userSpaceOnUse">
<stop stop-color="#B4948D"/>
<stop offset="1" stop-color="#B4948D" stop-opacity="0"/>
</linearGradient>
<radialGradient id="paint59_radial_4002_926" cx="0" cy="0" r="1" gradientUnits="userSpaceOnUse" gradientTransform="translate(13.5628 10.1954) rotate(-90.897) scale(0.49412 0.593952)">
<stop offset="0.765532" stop-color="#FFE6E2" stop-opacity="0"/>
<stop offset="0.966159" stop-color="#FFE6E2"/>
</radialGradient>
<radialGradient id="paint60_radial_4002_926" cx="0" cy="0" r="1" gradientUnits="userSpaceOnUse" gradientTransform="translate(10.3732 7.85571) rotate(-65.3915) scale(3.03069 1.55043)">
<stop stop-color="#433838"/>
<stop offset="1" stop-color="#433838" stop-opacity="0"/>
</radialGradient>
<radialGradient id="paint61_radial_4002_926" cx="0" cy="0" r="1" gradientUnits="userSpaceOnUse" gradientTransform="translate(17.9421 2.64856) rotate(115.684) scale(4.8729 7.96691)">
<stop offset="0.639192" stop-color="#1F0D24" stop-opacity="0"/>
<stop offset="1" stop-color="#1F0D24"/>
</radialGradient>
<radialGradient id="paint62_radial_4002_926" cx="0" cy="0" r="1" gradientUnits="userSpaceOnUse" gradientTransform="translate(16.2416 3.01796) rotate(98.7461) scale(1.38328 2.97606)">
<stop stop-color="#4C4749"/>
<stop offset="1" stop-color="#4C4749" stop-opacity="0"/>
</radialGradient>
<linearGradient id="paint63_linear_4002_926" x1="13.1399" y1="4.37495" x2="13.6846" y2="5.64881" gradientUnits="userSpaceOnUse">
<stop stop-color="#1A1316"/>
<stop offset="1" stop-color="#24182D"/>
</linearGradient>
</defs>
</svg>
