<svg xmlns="http://www.w3.org/2000/svg" width="32" height="32" fill="none"><path fill="#F8312F" d="M29.31 19.359c-.63 0-1.14-.504-1.14-1.126 0-.623.51-1.127 1.14-1.127h.22c.26 0 .48-.207.48-.474v-1.254a.477.477 0 0 0-.48-.475h-.18c-.63 0-1.17-.484-1.18-1.106a1.13 1.13 0 0 1 1.14-1.146h.22c.26 0 .48-.207.48-.474v-1.541a.472.472 0 0 0-.42-.465c-1.43-.187-2.57-1.294-2.79-2.697A.568.568 0 0 0 26.24 7H5.75c-.28 0-.52.198-.56.474-.22 1.393-1.35 2.49-2.77 2.687a.472.472 0 0 0-.42.465v1.55c0 .258.21.475.48.475h.18c.63 0 1.17.484 1.18 1.106a1.13 1.13 0 0 1-1.14 1.146h-.22c-.26 0-.48.208-.48.475v1.254c0 .257.21.474.48.474h.22c.63 0 1.14.504 1.14 1.127 0 .622-.51 1.126-1.14 1.126h-.22c-.26 0-.48.207-.48.474v1.561c0 .237.18.435.42.464a3.228 3.228 0 0 1 2.77 2.678.56.56 0 0 0 .56.464h20.51a.56.56 0 0 0 .56-.464 3.227 3.227 0 0 1 2.76-2.678c.24-.03.42-.227.42-.464v-1.56a.477.477 0 0 0-.48-.475h-.21Z"/><path fill="#CA0B4A" d="M23 12c-.548 0-1 .448-1 .992v6.016a1.001 1.001 0 0 0 2 0v-6.016A.994.994 0 0 0 23 12ZM18.005 16a2 2 0 1 1-4 0 2 2 0 0 1 4 0ZM8 12.992c0-.544.456-.992 1.01-.992a1 1 0 0 1 1.01.992v6.016c0 .544-.456.992-1.01.992S8 19.552 8 19.008v-6.016Z"/><path fill="#CA0B4A" d="M8.55 10.012c-1.255 0-2.285.972-2.285 2.188v7.631c0 1.228 1.042 2.188 2.285 2.188h14.91c1.255 0 2.285-.971 2.285-2.188V12.2c0-1.216-1.03-2.188-2.285-2.188H8.55Zm14.91 11.437h-2.825V10.582h2.825c.965 0 1.715.741 1.715 1.618v7.631c0 .877-.75 1.618-1.715 1.618Zm-3.395 0h-8.12V10.582h8.12v10.867Zm-8.69-10.867v10.867H8.55c-.957 0-1.715-.733-1.715-1.618V12.2c0-.877.75-1.618 1.715-1.618h2.825Z"/></svg>