<svg width="32" height="32" viewBox="0 0 32 32" fill="none" xmlns="http://www.w3.org/2000/svg">
<path d="M29.5001 24.8194L29.5 24.8194V24.8303V26.1703C29.5 26.3541 29.3539 26.5003 29.17 26.5003H28.5173L28.5149 27.5003C29.0665 27.5029 29.51 27.948 29.51 28.5002C29.51 29.0541 29.0639 29.5002 28.51 29.5002H3.51001C2.95615 29.5002 2.51001 29.0541 2.51001 28.5002C2.51001 27.948 2.95356 27.5029 3.50509 27.5003L3.50273 26.5003H2.83C2.64614 26.5003 2.5 26.3541 2.5 26.1703V24.8303C2.5 24.6464 2.64614 24.5003 2.83 24.5003C4.30614 24.5003 5.5 23.3064 5.5 21.8303V13.5003H5.51V13.0003C5.51 12.3971 5.55784 11.7859 5.66255 11.1762C6.67506 5.46822 12.1257 1.65097 17.8327 2.66259L17.8333 2.66269C22.9294 3.55976 26.5095 7.99777 26.5 12.9993L26.499 13.5003H26.51V21.8303C26.51 23.3064 27.7039 24.5003 29.18 24.5003C29.366 24.5003 29.5039 24.6461 29.5001 24.8194ZM16.6978 12.7004L16.8288 13.0002L16.6978 13.3001C16.5816 13.566 16.3168 13.7502 16.01 13.7502C15.5958 13.7502 15.26 13.4145 15.26 13.0002C15.26 12.6935 15.4443 12.4286 15.7102 12.3124L16.01 12.1814L16.3098 12.3124C16.4828 12.388 16.6223 12.5275 16.6978 12.7004ZM16.01 22.5002C21.2567 22.5002 25.51 18.247 25.51 13.0002C25.51 7.75354 21.2567 3.50024 16.01 3.50024C10.7633 3.50024 6.51001 7.75354 6.51001 13.0002C6.51001 18.247 10.7633 22.5002 16.01 22.5002Z" fill="#212121" stroke="#212121"/>
</svg>
