<svg width="32" height="32" viewBox="0 0 32 32" fill="none" xmlns="http://www.w3.org/2000/svg">
<g filter="url(#filter0_ii_3987_22976)">
<path fill-rule="evenodd" clip-rule="evenodd" d="M20.9613 6.62124C21.8134 5.5391 21.442 4.40801 21.1801 3.94406L23.0959 2.86255C23.5632 3.69026 24.3377 5.88938 22.6898 7.98224C21.7999 9.11244 20.3593 9.54894 19.2058 9.73497C18.0075 9.92822 16.836 9.89344 16.2206 9.86967L16.3055 7.67131C16.9036 7.69441 17.8883 7.71901 18.8555 7.56304C19.8673 7.39986 20.6012 7.07854 20.9613 6.62124Z" fill="url(#paint0_linear_3987_22976)"/>
</g>
<g filter="url(#filter1_i_3987_22976)">
<path d="M8.94826 11.7311C8.78444 11.8287 8.72885 12.0394 8.82323 12.2051L9.70357 13.7504C9.97694 14.2303 9.80954 14.8409 9.32967 15.1143L9.2149 15.1797C8.73502 15.453 8.12439 15.2856 7.85101 14.8058L7.12322 13.5282C6.67215 12.7364 6.94836 11.7289 7.74016 11.2778L8.08269 11.0827L24.3862 1.37377C24.576 1.26074 24.8215 1.32297 24.9345 1.51278L25.0369 1.68462C25.1499 1.87443 25.0876 2.11993 24.8978 2.23296L8.94826 11.7311Z" fill="#AFA2B8"/>
<path d="M8.94826 11.7311C8.78444 11.8287 8.72885 12.0394 8.82323 12.2051L9.70357 13.7504C9.97694 14.2303 9.80954 14.8409 9.32967 15.1143L9.2149 15.1797C8.73502 15.453 8.12439 15.2856 7.85101 14.8058L7.12322 13.5282C6.67215 12.7364 6.94836 11.7289 7.74016 11.2778L8.08269 11.0827L24.3862 1.37377C24.576 1.26074 24.8215 1.32297 24.9345 1.51278L25.0369 1.68462C25.1499 1.87443 25.0876 2.11993 24.8978 2.23296L8.94826 11.7311Z" fill="url(#paint1_radial_3987_22976)"/>
<path d="M8.94826 11.7311C8.78444 11.8287 8.72885 12.0394 8.82323 12.2051L9.70357 13.7504C9.97694 14.2303 9.80954 14.8409 9.32967 15.1143L9.2149 15.1797C8.73502 15.453 8.12439 15.2856 7.85101 14.8058L7.12322 13.5282C6.67215 12.7364 6.94836 11.7289 7.74016 11.2778L8.08269 11.0827L24.3862 1.37377C24.576 1.26074 24.8215 1.32297 24.9345 1.51278L25.0369 1.68462C25.1499 1.87443 25.0876 2.11993 24.8978 2.23296L8.94826 11.7311Z" fill="url(#paint2_linear_3987_22976)"/>
</g>
<path d="M8.94826 11.7311C8.78444 11.8287 8.72885 12.0394 8.82323 12.2051L9.70357 13.7504C9.97694 14.2303 9.80954 14.8409 9.32967 15.1143L9.2149 15.1797C8.73502 15.453 8.12439 15.2856 7.85101 14.8058L7.12322 13.5282C6.67215 12.7364 6.94836 11.7289 7.74016 11.2778L8.08269 11.0827L24.3862 1.37377C24.576 1.26074 24.8215 1.32297 24.9345 1.51278L25.0369 1.68462C25.1499 1.87443 25.0876 2.11993 24.8978 2.23296L8.94826 11.7311Z" fill="url(#paint3_radial_3987_22976)"/>
<path d="M21.765 4.09874L21.265 3.23265L24.3865 1.37377C24.5763 1.26074 24.8218 1.32297 24.9348 1.51278L25.0371 1.68462C25.1501 1.87443 25.0879 2.11993 24.8981 2.23296L21.765 4.09874Z" fill="url(#paint4_linear_3987_22976)"/>
<path d="M21.765 4.09874L21.265 3.23265L24.3865 1.37377C24.5763 1.26074 24.8218 1.32297 24.9348 1.51278L25.0371 1.68462C25.1501 1.87443 25.0879 2.11993 24.8981 2.23296L21.765 4.09874Z" fill="url(#paint5_linear_3987_22976)"/>
<path d="M21.765 4.09874L21.265 3.23265L24.3865 1.37377C24.5763 1.26074 24.8218 1.32297 24.9348 1.51278L25.0371 1.68462C25.1501 1.87443 25.0879 2.11993 24.8981 2.23296L21.765 4.09874Z" fill="url(#paint6_radial_3987_22976)"/>
<g filter="url(#filter2_i_3987_22976)">
<path d="M18.1771 29.0205V27.251H20.3373C20.5013 27.4072 21.1263 27.8018 21.8412 28.0322C22.3349 28.1635 22.4662 28.5205 22.4701 28.6533V29.0205H18.1771Z" fill="#4C3765"/>
</g>
<path d="M11.5951 26.6299C11.5951 25.8236 12.0534 25.471 12.2826 25.3955L13.6498 26.5752V27.8583C13.6498 28.0102 13.7188 28.1539 13.8374 28.2488L14.0404 28.4111C14.168 28.5049 14.3373 28.6494 14.2904 28.8252C14.2084 28.9971 14.0404 29.0205 13.7513 29.0205H12.2451C11.8861 29.0205 11.5951 28.7297 11.5951 28.3707V26.6299Z" fill="#47385D"/>
<path d="M11.5951 26.6299C11.5951 25.8236 12.0534 25.471 12.2826 25.3955L13.6498 26.5752V27.8583C13.6498 28.0102 13.7188 28.1539 13.8374 28.2488L14.0404 28.4111C14.168 28.5049 14.3373 28.6494 14.2904 28.8252C14.2084 28.9971 14.0404 29.0205 13.7513 29.0205H12.2451C11.8861 29.0205 11.5951 28.7297 11.5951 28.3707V26.6299Z" fill="url(#paint7_linear_3987_22976)"/>
<path d="M11.5951 26.6299C11.5951 25.8236 12.0534 25.471 12.2826 25.3955L13.6498 26.5752V27.8583C13.6498 28.0102 13.7188 28.1539 13.8374 28.2488L14.0404 28.4111C14.168 28.5049 14.3373 28.6494 14.2904 28.8252C14.2084 28.9971 14.0404 29.0205 13.7513 29.0205H12.2451C11.8861 29.0205 11.5951 28.7297 11.5951 28.3707V26.6299Z" fill="url(#paint8_radial_3987_22976)"/>
<path d="M11.5951 26.6299C11.5951 25.8236 12.0534 25.471 12.2826 25.3955L13.6498 26.5752V27.8583C13.6498 28.0102 13.7188 28.1539 13.8374 28.2488L14.0404 28.4111C14.168 28.5049 14.3373 28.6494 14.2904 28.8252C14.2084 28.9971 14.0404 29.0205 13.7513 29.0205H12.2451C11.8861 29.0205 11.5951 28.7297 11.5951 28.3707V26.6299Z" fill="url(#paint9_radial_3987_22976)"/>
<path d="M11.5951 26.6299C11.5951 25.8236 12.0534 25.471 12.2826 25.3955L13.6498 26.5752V27.8583C13.6498 28.0102 13.7188 28.1539 13.8374 28.2488L14.0404 28.4111C14.168 28.5049 14.3373 28.6494 14.2904 28.8252C14.2084 28.9971 14.0404 29.0205 13.7513 29.0205H12.2451C11.8861 29.0205 11.5951 28.7297 11.5951 28.3707V26.6299Z" fill="url(#paint10_radial_3987_22976)"/>
<g filter="url(#filter3_i_3987_22976)">
<path d="M14.5219 22.7884C14.7041 22.5968 14.8029 22.3409 14.7969 22.0766L14.6305 14.7861H20.65L20.3375 27.2627H18.1813L17.9221 17.2607C17.9185 17.1227 17.8056 17.0127 17.6675 17.0127C17.5311 17.0127 17.4189 17.1197 17.4133 17.256C17.3643 18.4517 17.2829 20.7106 17.2829 21.8408C17.2829 23.0533 16.5901 24.0544 16.2438 24.4033L13.771 26.691C13.6844 26.7711 13.566 26.8101 13.4542 26.7725C13.2595 26.7071 12.986 26.5714 12.736 26.3486C12.4838 26.124 12.2975 25.7959 12.1894 25.5537C12.1298 25.4202 12.1658 25.2671 12.2666 25.1611L14.5219 22.7884Z" fill="#9785A9"/>
</g>
<path d="M14.5219 22.7884C14.7041 22.5968 14.8029 22.3409 14.7969 22.0766L14.6305 14.7861H20.65L20.3375 27.2627H18.1813L17.9221 17.2607C17.9185 17.1227 17.8056 17.0127 17.6675 17.0127C17.5311 17.0127 17.4189 17.1197 17.4133 17.256C17.3643 18.4517 17.2829 20.7106 17.2829 21.8408C17.2829 23.0533 16.5901 24.0544 16.2438 24.4033L13.771 26.691C13.6844 26.7711 13.566 26.8101 13.4542 26.7725C13.2595 26.7071 12.986 26.5714 12.736 26.3486C12.4838 26.124 12.2975 25.7959 12.1894 25.5537C12.1298 25.4202 12.1658 25.2671 12.2666 25.1611L14.5219 22.7884Z" fill="url(#paint11_linear_3987_22976)"/>
<path d="M14.5219 22.7884C14.7041 22.5968 14.8029 22.3409 14.7969 22.0766L14.6305 14.7861H20.65L20.3375 27.2627H18.1813L17.9221 17.2607C17.9185 17.1227 17.8056 17.0127 17.6675 17.0127C17.5311 17.0127 17.4189 17.1197 17.4133 17.256C17.3643 18.4517 17.2829 20.7106 17.2829 21.8408C17.2829 23.0533 16.5901 24.0544 16.2438 24.4033L13.771 26.691C13.6844 26.7711 13.566 26.8101 13.4542 26.7725C13.2595 26.7071 12.986 26.5714 12.736 26.3486C12.4838 26.124 12.2975 25.7959 12.1894 25.5537C12.1298 25.4202 12.1658 25.2671 12.2666 25.1611L14.5219 22.7884Z" fill="url(#paint12_radial_3987_22976)"/>
<path d="M14.5219 22.7884C14.7041 22.5968 14.8029 22.3409 14.7969 22.0766L14.6305 14.7861H20.65L20.3375 27.2627H18.1813L17.9221 17.2607C17.9185 17.1227 17.8056 17.0127 17.6675 17.0127C17.5311 17.0127 17.4189 17.1197 17.4133 17.256C17.3643 18.4517 17.2829 20.7106 17.2829 21.8408C17.2829 23.0533 16.5901 24.0544 16.2438 24.4033L13.771 26.691C13.6844 26.7711 13.566 26.8101 13.4542 26.7725C13.2595 26.7071 12.986 26.5714 12.736 26.3486C12.4838 26.124 12.2975 25.7959 12.1894 25.5537C12.1298 25.4202 12.1658 25.2671 12.2666 25.1611L14.5219 22.7884Z" fill="url(#paint13_radial_3987_22976)"/>
<path d="M14.5219 22.7884C14.7041 22.5968 14.8029 22.3409 14.7969 22.0766L14.6305 14.7861H20.65L20.3375 27.2627H18.1813L17.9221 17.2607C17.9185 17.1227 17.8056 17.0127 17.6675 17.0127C17.5311 17.0127 17.4189 17.1197 17.4133 17.256C17.3643 18.4517 17.2829 20.7106 17.2829 21.8408C17.2829 23.0533 16.5901 24.0544 16.2438 24.4033L13.771 26.691C13.6844 26.7711 13.566 26.8101 13.4542 26.7725C13.2595 26.7071 12.986 26.5714 12.736 26.3486C12.4838 26.124 12.2975 25.7959 12.1894 25.5537C12.1298 25.4202 12.1658 25.2671 12.2666 25.1611L14.5219 22.7884Z" fill="url(#paint14_radial_3987_22976)"/>
<path d="M14.5219 22.7884C14.7041 22.5968 14.8029 22.3409 14.7969 22.0766L14.6305 14.7861H20.65L20.3375 27.2627H18.1813L17.9221 17.2607C17.9185 17.1227 17.8056 17.0127 17.6675 17.0127C17.5311 17.0127 17.4189 17.1197 17.4133 17.256C17.3643 18.4517 17.2829 20.7106 17.2829 21.8408C17.2829 23.0533 16.5901 24.0544 16.2438 24.4033L13.771 26.691C13.6844 26.7711 13.566 26.8101 13.4542 26.7725C13.2595 26.7071 12.986 26.5714 12.736 26.3486C12.4838 26.124 12.2975 25.7959 12.1894 25.5537C12.1298 25.4202 12.1658 25.2671 12.2666 25.1611L14.5219 22.7884Z" fill="url(#paint15_radial_3987_22976)"/>
<path d="M14.5219 22.7884C14.7041 22.5968 14.8029 22.3409 14.7969 22.0766L14.6305 14.7861H20.65L20.3375 27.2627H18.1813L17.9221 17.2607C17.9185 17.1227 17.8056 17.0127 17.6675 17.0127C17.5311 17.0127 17.4189 17.1197 17.4133 17.256C17.3643 18.4517 17.2829 20.7106 17.2829 21.8408C17.2829 23.0533 16.5901 24.0544 16.2438 24.4033L13.771 26.691C13.6844 26.7711 13.566 26.8101 13.4542 26.7725C13.2595 26.7071 12.986 26.5714 12.736 26.3486C12.4838 26.124 12.2975 25.7959 12.1894 25.5537C12.1298 25.4202 12.1658 25.2671 12.2666 25.1611L14.5219 22.7884Z" fill="url(#paint16_radial_3987_22976)"/>
<path d="M14.5219 22.7884C14.7041 22.5968 14.8029 22.3409 14.7969 22.0766L14.6305 14.7861H20.65L20.3375 27.2627H18.1813L17.9221 17.2607C17.9185 17.1227 17.8056 17.0127 17.6675 17.0127C17.5311 17.0127 17.4189 17.1197 17.4133 17.256C17.3643 18.4517 17.2829 20.7106 17.2829 21.8408C17.2829 23.0533 16.5901 24.0544 16.2438 24.4033L13.771 26.691C13.6844 26.7711 13.566 26.8101 13.4542 26.7725C13.2595 26.7071 12.986 26.5714 12.736 26.3486C12.4838 26.124 12.2975 25.7959 12.1894 25.5537C12.1298 25.4202 12.1658 25.2671 12.2666 25.1611L14.5219 22.7884Z" fill="url(#paint17_radial_3987_22976)"/>
<path d="M13.9271 8.67674C14.1029 7.39158 14.6302 6.81476 14.9271 6.60643C15.4371 6.24851 16.5912 5.66111 18.2631 6.60643C20.0209 7.70018 20.6667 10.6637 20.638 11.9814V14.7861H14.638V11.5439C14.638 11.0564 14.5326 10.8017 14.3802 10.583C14.2358 10.3252 13.8607 9.60252 13.9271 8.67674Z" fill="url(#paint18_radial_3987_22976)"/>
<path d="M13.9271 8.67674C14.1029 7.39158 14.6302 6.81476 14.9271 6.60643C15.4371 6.24851 16.5912 5.66111 18.2631 6.60643C20.0209 7.70018 20.6667 10.6637 20.638 11.9814V14.7861H14.638V11.5439C14.638 11.0564 14.5326 10.8017 14.3802 10.583C14.2358 10.3252 13.8607 9.60252 13.9271 8.67674Z" fill="url(#paint19_radial_3987_22976)"/>
<path d="M13.9271 8.67674C14.1029 7.39158 14.6302 6.81476 14.9271 6.60643C15.4371 6.24851 16.5912 5.66111 18.2631 6.60643C20.0209 7.70018 20.6667 10.6637 20.638 11.9814V14.7861H14.638V11.5439C14.638 11.0564 14.5326 10.8017 14.3802 10.583C14.2358 10.3252 13.8607 9.60252 13.9271 8.67674Z" fill="url(#paint20_linear_3987_22976)"/>
<path d="M13.9271 8.67674C14.1029 7.39158 14.6302 6.81476 14.9271 6.60643C15.4371 6.24851 16.5912 5.66111 18.2631 6.60643C20.0209 7.70018 20.6667 10.6637 20.638 11.9814V14.7861H14.638V11.5439C14.638 11.0564 14.5326 10.8017 14.3802 10.583C14.2358 10.3252 13.8607 9.60252 13.9271 8.67674Z" fill="url(#paint21_radial_3987_22976)"/>
<path d="M13.9271 8.67674C14.1029 7.39158 14.6302 6.81476 14.9271 6.60643C15.4371 6.24851 16.5912 5.66111 18.2631 6.60643C20.0209 7.70018 20.6667 10.6637 20.638 11.9814V14.7861H14.638V11.5439C14.638 11.0564 14.5326 10.8017 14.3802 10.583C14.2358 10.3252 13.8607 9.60252 13.9271 8.67674Z" fill="url(#paint22_radial_3987_22976)"/>
<rect x="20.6508" y="2.87927" width="0.692073" height="1.15669" rx="0.346037" transform="rotate(-26.7833 20.6508 2.87927)" fill="#8C6A54"/>
<rect x="21.0844" y="2.61938" width="0.692073" height="1.15669" rx="0.346037" transform="rotate(-26.7833 21.0844 2.61938)" fill="url(#paint23_radial_3987_22976)"/>
<rect x="21.6034" y="2.37329" width="0.692073" height="1.15669" rx="0.346037" transform="rotate(-26.7833 21.6034 2.37329)" fill="url(#paint24_radial_3987_22976)"/>
<rect x="22.1727" y="2.11938" width="0.692073" height="1.15669" rx="0.346037" transform="rotate(-26.7833 22.1727 2.11938)" fill="url(#paint25_radial_3987_22976)"/>
<rect x="21.976" y="3.15063" width="0.737393" height="1.25169" rx="0.368697" transform="rotate(60 21.976 3.15063)" fill="url(#paint26_radial_3987_22976)"/>
<g filter="url(#filter4_ii_3987_22976)">
<path d="M19.3174 4.83275C19.3307 4.76122 19.3331 4.67244 19.302 4.57904C19.2426 4.40091 19.1262 4.15586 19.0754 4.0556C19.0559 3.96706 19.0504 3.76497 19.1848 3.66497C19.3192 3.56497 19.4648 3.58685 19.5208 3.61029C19.5338 3.54518 19.5934 3.39701 19.7278 3.32513C19.8622 3.25326 20.026 3.29518 20.0911 3.32513C20.1093 3.25872 20.1809 3.11654 20.3215 3.07904C20.4622 3.04154 20.6171 3.10247 20.677 3.13763C20.7174 3.06211 20.8458 2.91341 21.0364 2.92279C21.2747 2.93451 21.4114 3.18451 21.4465 3.37201C21.4817 3.55951 21.5403 3.8056 21.5989 3.95013C21.6575 4.09466 21.7161 4.5556 21.509 5.14935L21.508 5.14923C21.0543 7.03379 20.0162 8.25248 18.8443 9.00258C17.6602 9.76051 16.39 10.0107 15.547 10.085C14.9418 10.1382 14.408 9.69082 14.3548 9.08565C14.3015 8.48048 14.7489 7.9467 15.3541 7.89343C15.9902 7.83743 16.8763 7.65017 17.6583 7.14964C18.3406 6.71292 18.985 6.01441 19.3174 4.83275Z" fill="#A37B6B"/>
<path d="M19.3174 4.83275C19.3307 4.76122 19.3331 4.67244 19.302 4.57904C19.2426 4.40091 19.1262 4.15586 19.0754 4.0556C19.0559 3.96706 19.0504 3.76497 19.1848 3.66497C19.3192 3.56497 19.4648 3.58685 19.5208 3.61029C19.5338 3.54518 19.5934 3.39701 19.7278 3.32513C19.8622 3.25326 20.026 3.29518 20.0911 3.32513C20.1093 3.25872 20.1809 3.11654 20.3215 3.07904C20.4622 3.04154 20.6171 3.10247 20.677 3.13763C20.7174 3.06211 20.8458 2.91341 21.0364 2.92279C21.2747 2.93451 21.4114 3.18451 21.4465 3.37201C21.4817 3.55951 21.5403 3.8056 21.5989 3.95013C21.6575 4.09466 21.7161 4.5556 21.509 5.14935L21.508 5.14923C21.0543 7.03379 20.0162 8.25248 18.8443 9.00258C17.6602 9.76051 16.39 10.0107 15.547 10.085C14.9418 10.1382 14.408 9.69082 14.3548 9.08565C14.3015 8.48048 14.7489 7.9467 15.3541 7.89343C15.9902 7.83743 16.8763 7.65017 17.6583 7.14964C18.3406 6.71292 18.985 6.01441 19.3174 4.83275Z" fill="url(#paint27_radial_3987_22976)"/>
</g>
<g filter="url(#filter5_i_3987_22976)">
<path d="M16.0011 7.71191C16.3292 7.68066 16.6535 7.58691 16.8487 7.49707L17.7081 9.69238C17.4738 9.81348 15.9933 10.2861 15.169 10.1221C14.3448 9.95801 14.1497 8.92676 14.4386 8.38379C14.712 7.77441 15.5569 7.75422 16.0011 7.71191Z" fill="url(#paint28_linear_3987_22976)"/>
<path d="M16.0011 7.71191C16.3292 7.68066 16.6535 7.58691 16.8487 7.49707L17.7081 9.69238C17.4738 9.81348 15.9933 10.2861 15.169 10.1221C14.3448 9.95801 14.1497 8.92676 14.4386 8.38379C14.712 7.77441 15.5569 7.75422 16.0011 7.71191Z" fill="url(#paint29_radial_3987_22976)"/>
<path d="M16.0011 7.71191C16.3292 7.68066 16.6535 7.58691 16.8487 7.49707L17.7081 9.69238C17.4738 9.81348 15.9933 10.2861 15.169 10.1221C14.3448 9.95801 14.1497 8.92676 14.4386 8.38379C14.712 7.77441 15.5569 7.75422 16.0011 7.71191Z" fill="url(#paint30_radial_3987_22976)"/>
</g>
<g filter="url(#filter6_f_3987_22976)">
<path d="M8.50936 11.7549C8.45467 11.8356 8.37811 12.0564 8.50936 12.2939C8.64061 12.5314 9.22815 13.5713 9.47034 14.0088C9.51982 14.1117 9.58127 14.3643 9.43127 14.5518" stroke="#C3B8C3" stroke-width="0.2" stroke-linecap="round"/>
</g>
<g filter="url(#filter7_f_3987_22976)">
<path d="M19.8217 15.458L19.6342 26.6455" stroke="url(#paint31_linear_3987_22976)" stroke-width="0.8" stroke-linecap="square"/>
</g>
<g filter="url(#filter8_f_3987_22976)">
<path d="M16.1498 22.3955L15.7748 16.4424L16.8373 16.9424V22.3955H16.1498Z" fill="url(#paint32_linear_3987_22976)"/>
</g>
<g filter="url(#filter9_i_3987_22976)">
<circle cx="12.8922" cy="6.02707" r="0.707946" transform="rotate(-30 12.8922 6.02707)" fill="url(#paint33_radial_3987_22976)"/>
</g>
<g filter="url(#filter10_f_3987_22976)">
<circle cx="12.8922" cy="6.02699" r="0.421925" transform="rotate(-30 12.8922 6.02699)" fill="url(#paint34_linear_3987_22976)"/>
</g>
<g filter="url(#filter11_i_3987_22976)">
<circle cx="16.3859" cy="4.00986" r="0.707946" transform="rotate(-30 16.3859 4.00986)" fill="url(#paint35_linear_3987_22976)"/>
<circle cx="16.3859" cy="4.00986" r="0.707946" transform="rotate(-30 16.3859 4.00986)" fill="url(#paint36_radial_3987_22976)"/>
</g>
<g filter="url(#filter12_f_3987_22976)">
<circle cx="16.3861" cy="4.0099" r="0.421925" transform="rotate(-30 16.3861 4.0099)" fill="#7A5654"/>
<circle cx="16.3861" cy="4.0099" r="0.421925" transform="rotate(-30 16.3861 4.0099)" fill="url(#paint37_radial_3987_22976)"/>
<circle cx="16.3861" cy="4.0099" r="0.421925" transform="rotate(-30 16.3861 4.0099)" fill="url(#paint38_radial_3987_22976)"/>
</g>
<path d="M12.293 5.29948C12.2365 5.20155 12.1662 5.03611 12.211 4.93186L12.1399 4.76066C12.1931 4.62545 12.3168 4.64983 12.2489 4.53231L12.068 4.21892C12.0114 4.12099 12.0253 4.00852 12.1125 3.93207C12.3149 3.73683 12.7509 3.35457 13.46 2.94514C14.1692 2.53571 14.7182 2.34931 14.9885 2.2716C15.0786 2.24569 15.2026 2.27855 15.2592 2.37648L15.4401 2.68986C15.508 2.80738 15.6349 2.89078 15.7589 2.92364C16.0179 2.94639 16.0475 3.02408 16.1201 3.18521C16.4335 3.88068 16.798 4.55823 17.1343 5.24297C17.4505 5.92687 17.2011 6.67478 16.592 7.02647L15.413 7.70716C14.7842 8.0702 14.0315 7.90088 13.5973 7.28505C13.1626 6.64994 12.6782 5.96694 12.293 5.29948Z" fill="url(#paint39_linear_3987_22976)"/>
<path d="M12.293 5.29948C12.2365 5.20155 12.1662 5.03611 12.211 4.93186L12.1399 4.76066C12.1931 4.62545 12.3168 4.64983 12.2489 4.53231L12.068 4.21892C12.0114 4.12099 12.0253 4.00852 12.1125 3.93207C12.3149 3.73683 12.7509 3.35457 13.46 2.94514C14.1692 2.53571 14.7182 2.34931 14.9885 2.2716C15.0786 2.24569 15.2026 2.27855 15.2592 2.37648L15.4401 2.68986C15.508 2.80738 15.6349 2.89078 15.7589 2.92364C16.0179 2.94639 16.0475 3.02408 16.1201 3.18521C16.4335 3.88068 16.798 4.55823 17.1343 5.24297C17.4505 5.92687 17.2011 6.67478 16.592 7.02647L15.413 7.70716C14.7842 8.0702 14.0315 7.90088 13.5973 7.28505C13.1626 6.64994 12.6782 5.96694 12.293 5.29948Z" fill="url(#paint40_radial_3987_22976)"/>
<path d="M12.293 5.29948C12.2365 5.20155 12.1662 5.03611 12.211 4.93186L12.1399 4.76066C12.1931 4.62545 12.3168 4.64983 12.2489 4.53231L12.068 4.21892C12.0114 4.12099 12.0253 4.00852 12.1125 3.93207C12.3149 3.73683 12.7509 3.35457 13.46 2.94514C14.1692 2.53571 14.7182 2.34931 14.9885 2.2716C15.0786 2.24569 15.2026 2.27855 15.2592 2.37648L15.4401 2.68986C15.508 2.80738 15.6349 2.89078 15.7589 2.92364C16.0179 2.94639 16.0475 3.02408 16.1201 3.18521C16.4335 3.88068 16.798 4.55823 17.1343 5.24297C17.4505 5.92687 17.2011 6.67478 16.592 7.02647L15.413 7.70716C14.7842 8.0702 14.0315 7.90088 13.5973 7.28505C13.1626 6.64994 12.6782 5.96694 12.293 5.29948Z" fill="url(#paint41_radial_3987_22976)"/>
<path d="M12.293 5.29948C12.2365 5.20155 12.1662 5.03611 12.211 4.93186L12.1399 4.76066C12.1931 4.62545 12.3168 4.64983 12.2489 4.53231L12.068 4.21892C12.0114 4.12099 12.0253 4.00852 12.1125 3.93207C12.3149 3.73683 12.7509 3.35457 13.46 2.94514C14.1692 2.53571 14.7182 2.34931 14.9885 2.2716C15.0786 2.24569 15.2026 2.27855 15.2592 2.37648L15.4401 2.68986C15.508 2.80738 15.6349 2.89078 15.7589 2.92364C16.0179 2.94639 16.0475 3.02408 16.1201 3.18521C16.4335 3.88068 16.798 4.55823 17.1343 5.24297C17.4505 5.92687 17.2011 6.67478 16.592 7.02647L15.413 7.70716C14.7842 8.0702 14.0315 7.90088 13.5973 7.28505C13.1626 6.64994 12.6782 5.96694 12.293 5.29948Z" fill="url(#paint42_linear_3987_22976)"/>
<path d="M12.293 5.29948C12.2365 5.20155 12.1662 5.03611 12.211 4.93186L12.1399 4.76066C12.1931 4.62545 12.3168 4.64983 12.2489 4.53231L12.068 4.21892C12.0114 4.12099 12.0253 4.00852 12.1125 3.93207C12.3149 3.73683 12.7509 3.35457 13.46 2.94514C14.1692 2.53571 14.7182 2.34931 14.9885 2.2716C15.0786 2.24569 15.2026 2.27855 15.2592 2.37648L15.4401 2.68986C15.508 2.80738 15.6349 2.89078 15.7589 2.92364C16.0179 2.94639 16.0475 3.02408 16.1201 3.18521C16.4335 3.88068 16.798 4.55823 17.1343 5.24297C17.4505 5.92687 17.2011 6.67478 16.592 7.02647L15.413 7.70716C14.7842 8.0702 14.0315 7.90088 13.5973 7.28505C13.1626 6.64994 12.6782 5.96694 12.293 5.29948Z" fill="url(#paint43_linear_3987_22976)"/>
<path d="M12.293 5.29948C12.2365 5.20155 12.1662 5.03611 12.211 4.93186L12.1399 4.76066C12.1931 4.62545 12.3168 4.64983 12.2489 4.53231L12.068 4.21892C12.0114 4.12099 12.0253 4.00852 12.1125 3.93207C12.3149 3.73683 12.7509 3.35457 13.46 2.94514C14.1692 2.53571 14.7182 2.34931 14.9885 2.2716C15.0786 2.24569 15.2026 2.27855 15.2592 2.37648L15.4401 2.68986C15.508 2.80738 15.6349 2.89078 15.7589 2.92364C16.0179 2.94639 16.0475 3.02408 16.1201 3.18521C16.4335 3.88068 16.798 4.55823 17.1343 5.24297C17.4505 5.92687 17.2011 6.67478 16.592 7.02647L15.413 7.70716C14.7842 8.0702 14.0315 7.90088 13.5973 7.28505C13.1626 6.64994 12.6782 5.96694 12.293 5.29948Z" fill="url(#paint44_radial_3987_22976)"/>
<path d="M12.293 5.29948C12.2365 5.20155 12.1662 5.03611 12.211 4.93186L12.1399 4.76066C12.1931 4.62545 12.3168 4.64983 12.2489 4.53231L12.068 4.21892C12.0114 4.12099 12.0253 4.00852 12.1125 3.93207C12.3149 3.73683 12.7509 3.35457 13.46 2.94514C14.1692 2.53571 14.7182 2.34931 14.9885 2.2716C15.0786 2.24569 15.2026 2.27855 15.2592 2.37648L15.4401 2.68986C15.508 2.80738 15.6349 2.89078 15.7589 2.92364C16.0179 2.94639 16.0475 3.02408 16.1201 3.18521C16.4335 3.88068 16.798 4.55823 17.1343 5.24297C17.4505 5.92687 17.2011 6.67478 16.592 7.02647L15.413 7.70716C14.7842 8.0702 14.0315 7.90088 13.5973 7.28505C13.1626 6.64994 12.6782 5.96694 12.293 5.29948Z" fill="url(#paint45_radial_3987_22976)"/>
<g filter="url(#filter13_f_3987_22976)">
<path d="M14.509 5.03384L14.5681 5.83195C14.6048 5.9819 14.7686 6.05854 14.8956 5.98524L15.1663 5.82892C15.2933 5.75562 15.3076 5.57351 15.1973 5.46865L14.654 4.95013C14.5349 4.8345 14.4702 4.87185 14.509 5.03384Z" fill="#71404A"/>
</g>
<g filter="url(#filter14_f_3987_22976)">
<path d="M14.4351 4.99664L14.6004 5.73347C14.6347 5.88486 14.8044 5.95806 14.9398 5.87989L15.2285 5.7132C15.3639 5.63503 15.3842 5.44948 15.2714 5.34606L14.7159 4.83455C14.5943 4.72042 14.3991 4.83308 14.4351 4.99664Z" fill="#B7877D"/>
<path d="M14.4351 4.99664L14.6004 5.73347C14.6347 5.88486 14.8044 5.95806 14.9398 5.87989L15.2285 5.7132C15.3639 5.63503 15.3842 5.44948 15.2714 5.34606L14.7159 4.83455C14.5943 4.72042 14.3991 4.83308 14.4351 4.99664Z" fill="url(#paint46_linear_3987_22976)"/>
<path d="M14.4351 4.99664L14.6004 5.73347C14.6347 5.88486 14.8044 5.95806 14.9398 5.87989L15.2285 5.7132C15.3639 5.63503 15.3842 5.44948 15.2714 5.34606L14.7159 4.83455C14.5943 4.72042 14.3991 4.83308 14.4351 4.99664Z" fill="url(#paint47_linear_3987_22976)"/>
<path d="M14.4351 4.99664L14.6004 5.73347C14.6347 5.88486 14.8044 5.95806 14.9398 5.87989L15.2285 5.7132C15.3639 5.63503 15.3842 5.44948 15.2714 5.34606L14.7159 4.83455C14.5943 4.72042 14.3991 4.83308 14.4351 4.99664Z" fill="url(#paint48_linear_3987_22976)"/>
<path d="M14.4351 4.99664L14.6004 5.73347C14.6347 5.88486 14.8044 5.95806 14.9398 5.87989L15.2285 5.7132C15.3639 5.63503 15.3842 5.44948 15.2714 5.34606L14.7159 4.83455C14.5943 4.72042 14.3991 4.83308 14.4351 4.99664Z" fill="url(#paint49_radial_3987_22976)"/>
<path d="M14.4351 4.99664L14.6004 5.73347C14.6347 5.88486 14.8044 5.95806 14.9398 5.87989L15.2285 5.7132C15.3639 5.63503 15.3842 5.44948 15.2714 5.34606L14.7159 4.83455C14.5943 4.72042 14.3991 4.83308 14.4351 4.99664Z" fill="url(#paint50_linear_3987_22976)"/>
</g>
<path d="M14.7191 6.29294L14.7191 6.29294C14.9023 6.28505 15.0949 6.2302 15.2745 6.1265C15.456 6.02174 15.598 5.88341 15.6964 5.72868L15.6967 5.72826L15.6967 5.72826C15.7276 5.68068 15.7816 5.66695 15.8259 5.67971C15.871 5.69272 15.9092 5.73442 15.9055 5.79341M14.7191 6.29294L15.8556 5.79031M14.7191 6.29294L14.7186 6.29296C14.6611 6.29603 14.623 6.33715 14.6123 6.38157C14.6015 6.42632 14.6175 6.48097 14.671 6.50653M14.7191 6.29294L14.6929 6.46159M15.9055 5.79341C15.9055 5.79345 15.9055 5.79349 15.9055 5.79353L15.8556 5.79031M15.9055 5.79341C15.9055 5.79337 15.9055 5.79333 15.9055 5.79329L15.8556 5.79031M15.9055 5.79341C15.8891 6.06702 15.7376 6.33031 15.4786 6.47986C15.2197 6.62933 14.9161 6.62897 14.671 6.50653M15.8556 5.79031C15.8402 6.04767 15.6977 6.29563 15.4536 6.43656C15.2095 6.57748 14.9235 6.57695 14.6929 6.46159M14.671 6.50653C14.6712 6.50662 14.6714 6.50672 14.6716 6.50681L14.6929 6.46159M14.671 6.50653C14.6708 6.50646 14.6707 6.50638 14.6705 6.5063L14.6929 6.46159" fill="#88024E" stroke="url(#paint51_linear_3987_22976)" stroke-width="0.1"/>
<path d="M15.2095 3.98869C15.4493 3.85025 15.7473 3.89862 15.9314 4.09022C15.9848 4.14481 15.9709 4.23425 15.9053 4.27209L15.0862 4.74504C15.034 4.77514 14.9648 4.75155 14.9451 4.6934C14.8554 4.43142 14.9593 4.13316 15.2095 3.98869Z" fill="white"/>
<path d="M15.1915 4.13212C15.3734 4.02708 15.6048 4.09034 15.709 4.27078C15.7262 4.3006 15.7389 4.33301 15.747 4.36415L15.1132 4.73005C15.0894 4.70603 15.0686 4.68028 15.0513 4.65045C14.9472 4.47002 15.0096 4.23715 15.1915 4.13212Z" fill="url(#paint52_radial_3987_22976)"/>
<path d="M15.1927 4.56828C15.1325 4.46402 15.1678 4.33246 15.272 4.27227C15.3763 4.21207 15.5078 4.24732 15.568 4.35158C15.5861 4.38286 15.5958 4.41695 15.5971 4.45001L15.2649 4.64177C15.2354 4.62505 15.2108 4.59956 15.1927 4.56828Z" fill="black"/>
<g filter="url(#filter15_f_3987_22976)">
<path d="M15.2076 4.21489C15.2491 4.23269 15.2222 4.29913 15.1906 4.37287C15.159 4.44662 15.1346 4.49974 15.0931 4.48194C15.0516 4.46414 15.0436 4.38993 15.0752 4.31618C15.1068 4.24244 15.1661 4.19709 15.2076 4.21489Z" fill="#C7A7A3"/>
<path d="M15.2076 4.21489C15.2491 4.23269 15.2222 4.29913 15.1906 4.37287C15.159 4.44662 15.1346 4.49974 15.0931 4.48194C15.0516 4.46414 15.0436 4.38993 15.0752 4.31618C15.1068 4.24244 15.1661 4.19709 15.2076 4.21489Z" fill="url(#paint53_radial_3987_22976)"/>
</g>
<g filter="url(#filter16_f_3987_22976)">
<path d="M15.6483 4.24858C15.5871 4.17061 15.5004 4.13528 15.4647 4.12736L15.4297 4.28766L15.5214 4.34677L15.6483 4.24858Z" fill="url(#paint54_linear_3987_22976)"/>
</g>
<path d="M13.4534 5.00232C13.2136 5.14078 13.1065 5.42306 13.1804 5.67831C13.201 5.75181 13.2854 5.7845 13.3509 5.74667L14.1701 5.27369C14.2223 5.24359 14.2365 5.17185 14.1959 5.12573C14.0139 4.91705 13.7022 4.85871 13.4534 5.00232Z" fill="white"/>
<path d="M13.5877 5.05802C13.4058 5.16306 13.3449 5.39507 13.4491 5.57552C13.4663 5.60534 13.488 5.63258 13.5109 5.65512L14.1447 5.2892C14.1358 5.25656 14.1239 5.22565 14.1067 5.19582C14.001 5.01624 13.7697 4.95298 13.5877 5.05802Z" fill="url(#paint55_radial_3987_22976)"/>
<path d="M13.9643 5.27761C13.9041 5.17334 13.7725 5.13809 13.6683 5.19829C13.564 5.25848 13.5287 5.39005 13.5889 5.49432C13.607 5.5256 13.6317 5.55109 13.6597 5.56867L13.9918 5.3769C13.9906 5.34384 13.9824 5.30889 13.9643 5.27761Z" fill="black"/>
<g filter="url(#filter17_f_3987_22976)">
<path d="M14.0548 5.17483C13.9934 5.06861 13.8662 5.04767 13.8305 5.03975L13.7835 5.20379L13.9257 5.29912L14.0548 5.17483Z" fill="url(#paint56_linear_3987_22976)"/>
</g>
<g filter="url(#filter18_f_3987_22976)">
<ellipse cx="13.5693" cy="5.25528" rx="0.165184" ry="0.0835983" transform="rotate(-57.914 13.5693 5.25528)" fill="#C7A7A3" fill-opacity="0.9"/>
<ellipse cx="13.5693" cy="5.25528" rx="0.165184" ry="0.0835983" transform="rotate(-57.914 13.5693 5.25528)" fill="url(#paint57_radial_3987_22976)"/>
</g>
<g filter="url(#filter19_i_3987_22976)">
<path fill-rule="evenodd" clip-rule="evenodd" d="M14.795 3.78619C15.0451 3.60887 15.2742 3.61415 15.3372 3.6283C15.4451 3.65255 15.5522 3.58472 15.5765 3.4768C15.6007 3.36887 15.5329 3.26173 15.425 3.23748C15.2527 3.19877 14.9072 3.21557 14.5633 3.45945C14.4731 3.52343 14.4518 3.64845 14.5158 3.73868C14.5798 3.8289 14.7048 3.85017 14.795 3.78619Z" fill="#261629"/>
</g>
<g filter="url(#filter20_i_3987_22976)">
<path fill-rule="evenodd" clip-rule="evenodd" d="M13.4876 4.54078C13.209 4.66867 13.099 4.86969 13.0798 4.93133C13.0468 5.03692 12.9345 5.09579 12.8289 5.06283C12.7233 5.02987 12.6645 4.91755 12.6974 4.81196C12.75 4.64341 12.9373 4.35263 13.3205 4.17674C13.421 4.1306 13.5399 4.17468 13.586 4.27521C13.6322 4.37574 13.5881 4.49464 13.4876 4.54078Z" fill="#261629"/>
</g>
<path d="M12.359 5.76859L11.8626 4.90873L12.3018 4.65512C12.3138 4.71593 12.3287 4.86965 12.2919 4.99803C12.2552 5.12641 12.3071 5.28029 12.3521 5.35824L12.6468 5.86869C12.5485 5.92543 12.4229 5.88933 12.359 5.76859Z" fill="url(#paint58_linear_3987_22976)"/>
<path d="M16.4559 3.4034L15.9595 2.54354L15.5202 2.79714C15.5669 2.83795 15.6926 2.92767 15.8221 2.96004C15.9517 2.99241 16.059 3.11429 16.104 3.19224L16.3812 3.71278C16.4795 3.65604 16.5285 3.51909 16.4559 3.4034Z" fill="url(#paint59_linear_3987_22976)"/>
<g filter="url(#filter21_i_3987_22976)">
<path d="M12.3421 4.14067C12.1582 4.39845 12.0255 4.68543 11.9261 5.02166L12.1846 5.12193C12.3788 5.19568 12.6002 5.12166 12.7072 4.94251C12.897 4.62743 13.2716 4.13233 13.9284 3.75316C14.5851 3.37398 15.2012 3.29715 15.569 3.29025C15.7776 3.28722 15.9524 3.13248 15.982 2.92951L16.0244 2.65554C15.6835 2.57351 15.3707 2.54863 15.0534 2.57526C13.964 2.67102 12.9697 3.24508 12.3421 4.14067Z" fill="url(#paint60_radial_3987_22976)"/>
<path d="M12.3421 4.14067C12.1582 4.39845 12.0255 4.68543 11.9261 5.02166L12.1846 5.12193C12.3788 5.19568 12.6002 5.12166 12.7072 4.94251C12.897 4.62743 13.2716 4.13233 13.9284 3.75316C14.5851 3.37398 15.2012 3.29715 15.569 3.29025C15.7776 3.28722 15.9524 3.13248 15.982 2.92951L16.0244 2.65554C15.6835 2.57351 15.3707 2.54863 15.0534 2.57526C13.964 2.67102 12.9697 3.24508 12.3421 4.14067Z" fill="url(#paint61_radial_3987_22976)"/>
</g>
<path d="M13.1822 1.5714C13.7106 1.26636 14.308 1.13181 14.8706 1.33529C15.3033 1.49154 15.7668 1.97239 16.0241 2.65543C15.6833 2.5734 15.3705 2.54851 15.0532 2.57515C13.9638 2.67091 12.9695 3.24496 12.3419 4.14056C12.158 4.39834 12.0253 4.68532 11.9259 5.02155C11.4609 4.45347 11.2784 3.81529 11.3594 3.36249C11.4645 2.77348 11.8797 2.32339 12.4081 2.01835L13.1822 1.5714Z" fill="url(#paint62_radial_3987_22976)"/>
<path d="M13.1822 1.5714C13.7106 1.26636 14.308 1.13181 14.8706 1.33529C15.3033 1.49154 15.7668 1.97239 16.0241 2.65543C15.6833 2.5734 15.3705 2.54851 15.0532 2.57515C13.9638 2.67091 12.9695 3.24496 12.3419 4.14056C12.158 4.39834 12.0253 4.68532 11.9259 5.02155C11.4609 4.45347 11.2784 3.81529 11.3594 3.36249C11.4645 2.77348 11.8797 2.32339 12.4081 2.01835L13.1822 1.5714Z" fill="url(#paint63_radial_3987_22976)"/>
<path d="M13.1822 1.5714C13.7106 1.26636 14.308 1.13181 14.8706 1.33529C15.3033 1.49154 15.7668 1.97239 16.0241 2.65543C15.6833 2.5734 15.3705 2.54851 15.0532 2.57515C13.9638 2.67091 12.9695 3.24496 12.3419 4.14056C12.158 4.39834 12.0253 4.68532 11.9259 5.02155C11.4609 4.45347 11.2784 3.81529 11.3594 3.36249C11.4645 2.77348 11.8797 2.32339 12.4081 2.01835L13.1822 1.5714Z" fill="url(#paint64_radial_3987_22976)"/>
<path d="M13.1822 1.5714C13.7106 1.26636 14.308 1.13181 14.8706 1.33529C15.3033 1.49154 15.7668 1.97239 16.0241 2.65543C15.6833 2.5734 15.3705 2.54851 15.0532 2.57515C13.9638 2.67091 12.9695 3.24496 12.3419 4.14056C12.158 4.39834 12.0253 4.68532 11.9259 5.02155C11.4609 4.45347 11.2784 3.81529 11.3594 3.36249C11.4645 2.77348 11.8797 2.32339 12.4081 2.01835L13.1822 1.5714Z" fill="url(#paint65_radial_3987_22976)"/>
<defs>
<filter id="filter0_ii_3987_22976" x="16.2206" y="2.71255" width="8.47128" height="7.17588" filterUnits="userSpaceOnUse" color-interpolation-filters="sRGB">
<feFlood flood-opacity="0" result="BackgroundImageFix"/>
<feBlend mode="normal" in="SourceGraphic" in2="BackgroundImageFix" result="shape"/>
<feColorMatrix in="SourceAlpha" type="matrix" values="0 0 0 0 0 0 0 0 0 0 0 0 0 0 0 0 0 0 127 0" result="hardAlpha"/>
<feOffset dx="1"/>
<feGaussianBlur stdDeviation="0.5"/>
<feComposite in2="hardAlpha" operator="arithmetic" k2="-1" k3="1"/>
<feColorMatrix type="matrix" values="0 0 0 0 0.545098 0 0 0 0 0.345098 0 0 0 0 0.329412 0 0 0 1 0"/>
<feBlend mode="normal" in2="shape" result="effect1_innerShadow_3987_22976"/>
<feColorMatrix in="SourceAlpha" type="matrix" values="0 0 0 0 0 0 0 0 0 0 0 0 0 0 0 0 0 0 127 0" result="hardAlpha"/>
<feOffset dx="0.15" dy="-0.15"/>
<feGaussianBlur stdDeviation="0.25"/>
<feComposite in2="hardAlpha" operator="arithmetic" k2="-1" k3="1"/>
<feColorMatrix type="matrix" values="0 0 0 0 0.615686 0 0 0 0 0.45098 0 0 0 0 0.388235 0 0 0 1 0"/>
<feBlend mode="normal" in2="effect1_innerShadow_3987_22976" result="effect2_innerShadow_3987_22976"/>
</filter>
<filter id="filter1_i_3987_22976" x="6.90662" y="1.11738" width="18.1866" height="14.1935" filterUnits="userSpaceOnUse" color-interpolation-filters="sRGB">
<feFlood flood-opacity="0" result="BackgroundImageFix"/>
<feBlend mode="normal" in="SourceGraphic" in2="BackgroundImageFix" result="shape"/>
<feColorMatrix in="SourceAlpha" type="matrix" values="0 0 0 0 0 0 0 0 0 0 0 0 0 0 0 0 0 0 127 0" result="hardAlpha"/>
<feOffset dy="-0.2"/>
<feGaussianBlur stdDeviation="0.2"/>
<feComposite in2="hardAlpha" operator="arithmetic" k2="-1" k3="1"/>
<feColorMatrix type="matrix" values="0 0 0 0 0.568627 0 0 0 0 0.454902 0 0 0 0 0.647059 0 0 0 1 0"/>
<feBlend mode="normal" in2="shape" result="effect1_innerShadow_3987_22976"/>
</filter>
<filter id="filter2_i_3987_22976" x="18.1771" y="26.751" width="4.79297" height="2.26953" filterUnits="userSpaceOnUse" color-interpolation-filters="sRGB">
<feFlood flood-opacity="0" result="BackgroundImageFix"/>
<feBlend mode="normal" in="SourceGraphic" in2="BackgroundImageFix" result="shape"/>
<feColorMatrix in="SourceAlpha" type="matrix" values="0 0 0 0 0 0 0 0 0 0 0 0 0 0 0 0 0 0 127 0" result="hardAlpha"/>
<feOffset dx="0.5" dy="-0.5"/>
<feGaussianBlur stdDeviation="0.5"/>
<feComposite in2="hardAlpha" operator="arithmetic" k2="-1" k3="1"/>
<feColorMatrix type="matrix" values="0 0 0 0 0.262745 0 0 0 0 0.188235 0 0 0 0 0.341176 0 0 0 1 0"/>
<feBlend mode="normal" in2="shape" result="effect1_innerShadow_3987_22976"/>
</filter>
<filter id="filter3_i_3987_22976" x="12.1605" y="14.7861" width="8.9895" height="12.4766" filterUnits="userSpaceOnUse" color-interpolation-filters="sRGB">
<feFlood flood-opacity="0" result="BackgroundImageFix"/>
<feBlend mode="normal" in="SourceGraphic" in2="BackgroundImageFix" result="shape"/>
<feColorMatrix in="SourceAlpha" type="matrix" values="0 0 0 0 0 0 0 0 0 0 0 0 0 0 0 0 0 0 127 0" result="hardAlpha"/>
<feOffset dx="0.5"/>
<feGaussianBlur stdDeviation="0.5"/>
<feComposite in2="hardAlpha" operator="arithmetic" k2="-1" k3="1"/>
<feColorMatrix type="matrix" values="0 0 0 0 0.67451 0 0 0 0 0.635294 0 0 0 0 0.686275 0 0 0 1 0"/>
<feBlend mode="normal" in2="shape" result="effect1_innerShadow_3987_22976"/>
</filter>
<filter id="filter4_ii_3987_22976" x="14.3505" y="2.67236" width="7.55347" height="7.56687" filterUnits="userSpaceOnUse" color-interpolation-filters="sRGB">
<feFlood flood-opacity="0" result="BackgroundImageFix"/>
<feBlend mode="normal" in="SourceGraphic" in2="BackgroundImageFix" result="shape"/>
<feColorMatrix in="SourceAlpha" type="matrix" values="0 0 0 0 0 0 0 0 0 0 0 0 0 0 0 0 0 0 127 0" result="hardAlpha"/>
<feOffset dx="0.25" dy="0.15"/>
<feGaussianBlur stdDeviation="0.25"/>
<feComposite in2="hardAlpha" operator="arithmetic" k2="-1" k3="1"/>
<feColorMatrix type="matrix" values="0 0 0 0 0.560784 0 0 0 0 0.392157 0 0 0 0 0.333333 0 0 0 1 0"/>
<feBlend mode="normal" in2="shape" result="effect1_innerShadow_3987_22976"/>
<feColorMatrix in="SourceAlpha" type="matrix" values="0 0 0 0 0 0 0 0 0 0 0 0 0 0 0 0 0 0 127 0" result="hardAlpha"/>
<feOffset dy="-0.25"/>
<feGaussianBlur stdDeviation="0.25"/>
<feComposite in2="hardAlpha" operator="arithmetic" k2="-1" k3="1"/>
<feColorMatrix type="matrix" values="0 0 0 0 0.631373 0 0 0 0 0.423529 0 0 0 0 0.439216 0 0 0 1 0"/>
<feBlend mode="normal" in2="effect1_innerShadow_3987_22976" result="effect2_innerShadow_3987_22976"/>
</filter>
<filter id="filter5_i_3987_22976" x="14.3129" y="7.24707" width="3.39526" height="2.90918" filterUnits="userSpaceOnUse" color-interpolation-filters="sRGB">
<feFlood flood-opacity="0" result="BackgroundImageFix"/>
<feBlend mode="normal" in="SourceGraphic" in2="BackgroundImageFix" result="shape"/>
<feColorMatrix in="SourceAlpha" type="matrix" values="0 0 0 0 0 0 0 0 0 0 0 0 0 0 0 0 0 0 127 0" result="hardAlpha"/>
<feOffset dy="-0.25"/>
<feGaussianBlur stdDeviation="0.25"/>
<feComposite in2="hardAlpha" operator="arithmetic" k2="-1" k3="1"/>
<feColorMatrix type="matrix" values="0 0 0 0 0.145098 0 0 0 0 0.4 0 0 0 0 0.835294 0 0 0 1 0"/>
<feBlend mode="normal" in2="shape" result="effect1_innerShadow_3987_22976"/>
</filter>
<filter id="filter6_f_3987_22976" x="8.08682" y="11.4049" width="1.78903" height="3.49683" filterUnits="userSpaceOnUse" color-interpolation-filters="sRGB">
<feFlood flood-opacity="0" result="BackgroundImageFix"/>
<feBlend mode="normal" in="SourceGraphic" in2="BackgroundImageFix" result="shape"/>
<feGaussianBlur stdDeviation="0.125" result="effect1_foregroundBlur_3987_22976"/>
</filter>
<filter id="filter7_f_3987_22976" x="18.4275" y="14.2514" width="2.60079" height="13.6007" filterUnits="userSpaceOnUse" color-interpolation-filters="sRGB">
<feFlood flood-opacity="0" result="BackgroundImageFix"/>
<feBlend mode="normal" in="SourceGraphic" in2="BackgroundImageFix" result="shape"/>
<feGaussianBlur stdDeviation="0.4" result="effect1_foregroundBlur_3987_22976"/>
</filter>
<filter id="filter8_f_3987_22976" x="15.0248" y="15.6924" width="2.5625" height="7.45312" filterUnits="userSpaceOnUse" color-interpolation-filters="sRGB">
<feFlood flood-opacity="0" result="BackgroundImageFix"/>
<feBlend mode="normal" in="SourceGraphic" in2="BackgroundImageFix" result="shape"/>
<feGaussianBlur stdDeviation="0.375" result="effect1_foregroundBlur_3987_22976"/>
</filter>
<filter id="filter9_i_3987_22976" x="12.1842" y="5.31897" width="1.61614" height="1.41614" filterUnits="userSpaceOnUse" color-interpolation-filters="sRGB">
<feFlood flood-opacity="0" result="BackgroundImageFix"/>
<feBlend mode="normal" in="SourceGraphic" in2="BackgroundImageFix" result="shape"/>
<feColorMatrix in="SourceAlpha" type="matrix" values="0 0 0 0 0 0 0 0 0 0 0 0 0 0 0 0 0 0 127 0" result="hardAlpha"/>
<feOffset dx="0.2"/>
<feGaussianBlur stdDeviation="0.15"/>
<feComposite in2="hardAlpha" operator="arithmetic" k2="-1" k3="1"/>
<feColorMatrix type="matrix" values="0 0 0 0 0.619608 0 0 0 0 0.470588 0 0 0 0 0.407843 0 0 0 1 0"/>
<feBlend mode="normal" in2="shape" result="effect1_innerShadow_3987_22976"/>
</filter>
<filter id="filter10_f_3987_22976" x="11.9702" y="5.10498" width="1.84399" height="1.84399" filterUnits="userSpaceOnUse" color-interpolation-filters="sRGB">
<feFlood flood-opacity="0" result="BackgroundImageFix"/>
<feBlend mode="normal" in="SourceGraphic" in2="BackgroundImageFix" result="shape"/>
<feGaussianBlur stdDeviation="0.25" result="effect1_foregroundBlur_3987_22976"/>
</filter>
<filter id="filter11_i_3987_22976" x="15.6778" y="3.05176" width="1.66614" height="1.66614" filterUnits="userSpaceOnUse" color-interpolation-filters="sRGB">
<feFlood flood-opacity="0" result="BackgroundImageFix"/>
<feBlend mode="normal" in="SourceGraphic" in2="BackgroundImageFix" result="shape"/>
<feColorMatrix in="SourceAlpha" type="matrix" values="0 0 0 0 0 0 0 0 0 0 0 0 0 0 0 0 0 0 127 0" result="hardAlpha"/>
<feOffset dx="0.25" dy="-0.25"/>
<feGaussianBlur stdDeviation="0.25"/>
<feComposite in2="hardAlpha" operator="arithmetic" k2="-1" k3="1"/>
<feColorMatrix type="matrix" values="0 0 0 0 0.584314 0 0 0 0 0.368627 0 0 0 0 0.470588 0 0 0 1 0"/>
<feBlend mode="normal" in2="shape" result="effect1_innerShadow_3987_22976"/>
</filter>
<filter id="filter12_f_3987_22976" x="15.4641" y="3.08789" width="1.84399" height="1.84399" filterUnits="userSpaceOnUse" color-interpolation-filters="sRGB">
<feFlood flood-opacity="0" result="BackgroundImageFix"/>
<feBlend mode="normal" in="SourceGraphic" in2="BackgroundImageFix" result="shape"/>
<feGaussianBlur stdDeviation="0.25" result="effect1_foregroundBlur_3987_22976"/>
</filter>
<filter id="filter13_f_3987_22976" x="13.7477" y="4.13293" width="2.27386" height="2.63037" filterUnits="userSpaceOnUse" color-interpolation-filters="sRGB">
<feFlood flood-opacity="0" result="BackgroundImageFix"/>
<feBlend mode="normal" in="SourceGraphic" in2="BackgroundImageFix" result="shape"/>
<feGaussianBlur stdDeviation="0.375" result="effect1_foregroundBlur_3987_22976"/>
</filter>
<filter id="filter14_f_3987_22976" x="14.3308" y="4.68821" width="1.11376" height="1.32341" filterUnits="userSpaceOnUse" color-interpolation-filters="sRGB">
<feFlood flood-opacity="0" result="BackgroundImageFix"/>
<feBlend mode="normal" in="SourceGraphic" in2="BackgroundImageFix" result="shape"/>
<feGaussianBlur stdDeviation="0.05" result="effect1_foregroundBlur_3987_22976"/>
</filter>
<filter id="filter15_f_3987_22976" x="14.9559" y="4.11106" width="0.372943" height="0.474292" filterUnits="userSpaceOnUse" color-interpolation-filters="sRGB">
<feFlood flood-opacity="0" result="BackgroundImageFix"/>
<feBlend mode="normal" in="SourceGraphic" in2="BackgroundImageFix" result="shape"/>
<feGaussianBlur stdDeviation="0.05" result="effect1_foregroundBlur_3987_22976"/>
</filter>
<filter id="filter16_f_3987_22976" x="15.2297" y="3.92732" width="0.618658" height="0.619482" filterUnits="userSpaceOnUse" color-interpolation-filters="sRGB">
<feFlood flood-opacity="0" result="BackgroundImageFix"/>
<feBlend mode="normal" in="SourceGraphic" in2="BackgroundImageFix" result="shape"/>
<feGaussianBlur stdDeviation="0.1" result="effect1_foregroundBlur_3987_22976"/>
</filter>
<filter id="filter17_f_3987_22976" x="13.5835" y="4.83979" width="0.67121" height="0.659277" filterUnits="userSpaceOnUse" color-interpolation-filters="sRGB">
<feFlood flood-opacity="0" result="BackgroundImageFix"/>
<feBlend mode="normal" in="SourceGraphic" in2="BackgroundImageFix" result="shape"/>
<feGaussianBlur stdDeviation="0.1" result="effect1_foregroundBlur_3987_22976"/>
</filter>
<filter id="filter18_f_3987_22976" x="13.3566" y="5.0084" width="0.425525" height="0.493701" filterUnits="userSpaceOnUse" color-interpolation-filters="sRGB">
<feFlood flood-opacity="0" result="BackgroundImageFix"/>
<feBlend mode="normal" in="SourceGraphic" in2="BackgroundImageFix" result="shape"/>
<feGaussianBlur stdDeviation="0.05" result="effect1_foregroundBlur_3987_22976"/>
</filter>
<filter id="filter19_i_3987_22976" x="14.4789" y="2.82156" width="1.35251" height="1.00156" filterUnits="userSpaceOnUse" color-interpolation-filters="sRGB">
<feFlood flood-opacity="0" result="BackgroundImageFix"/>
<feBlend mode="normal" in="SourceGraphic" in2="BackgroundImageFix" result="shape"/>
<feColorMatrix in="SourceAlpha" type="matrix" values="0 0 0 0 0 0 0 0 0 0 0 0 0 0 0 0 0 0 127 0" result="hardAlpha"/>
<feOffset dx="0.25" dy="-0.4"/>
<feGaussianBlur stdDeviation="0.3"/>
<feComposite in2="hardAlpha" operator="arithmetic" k2="-1" k3="1"/>
<feColorMatrix type="matrix" values="0 0 0 0 0.156863 0 0 0 0 0.0784314 0 0 0 0 0.109804 0 0 0 1 0"/>
<feBlend mode="normal" in2="shape" result="effect1_innerShadow_3987_22976"/>
</filter>
<filter id="filter20_i_3987_22976" x="12.6883" y="3.75845" width="1.16611" height="1.31357" filterUnits="userSpaceOnUse" color-interpolation-filters="sRGB">
<feFlood flood-opacity="0" result="BackgroundImageFix"/>
<feBlend mode="normal" in="SourceGraphic" in2="BackgroundImageFix" result="shape"/>
<feColorMatrix in="SourceAlpha" type="matrix" values="0 0 0 0 0 0 0 0 0 0 0 0 0 0 0 0 0 0 127 0" result="hardAlpha"/>
<feOffset dx="0.25" dy="-0.4"/>
<feGaussianBlur stdDeviation="0.3"/>
<feComposite in2="hardAlpha" operator="arithmetic" k2="-1" k3="1"/>
<feColorMatrix type="matrix" values="0 0 0 0 0.156863 0 0 0 0 0.0784314 0 0 0 0 0.109804 0 0 0 1 0"/>
<feBlend mode="normal" in2="shape" result="effect1_innerShadow_3987_22976"/>
</filter>
<filter id="filter21_i_3987_22976" x="11.9261" y="2.51506" width="4.09827" height="2.63521" filterUnits="userSpaceOnUse" color-interpolation-filters="sRGB">
<feFlood flood-opacity="0" result="BackgroundImageFix"/>
<feBlend mode="normal" in="SourceGraphic" in2="BackgroundImageFix" result="shape"/>
<feColorMatrix in="SourceAlpha" type="matrix" values="0 0 0 0 0 0 0 0 0 0 0 0 0 0 0 0 0 0 127 0" result="hardAlpha"/>
<feOffset dy="-0.05"/>
<feGaussianBlur stdDeviation="0.05"/>
<feComposite in2="hardAlpha" operator="arithmetic" k2="-1" k3="1"/>
<feColorMatrix type="matrix" values="0 0 0 0 0.160784 0 0 0 0 0.396078 0 0 0 0 0.721569 0 0 0 1 0"/>
<feBlend mode="normal" in2="shape" result="effect1_innerShadow_3987_22976"/>
</filter>
<linearGradient id="paint0_linear_3987_22976" x1="23.0134" y1="3.88355" x2="19.9562" y2="9.88847" gradientUnits="userSpaceOnUse">
<stop stop-color="#B18A79"/>
<stop offset="0.798664" stop-color="#A06F69"/>
</linearGradient>
<radialGradient id="paint1_radial_3987_22976" cx="0" cy="0" r="1" gradientUnits="userSpaceOnUse" gradientTransform="translate(19.3529 4.86433) rotate(146.915) scale(4.92324 2.04943)">
<stop stop-color="#A99797"/>
<stop offset="1" stop-color="#A99797" stop-opacity="0"/>
</radialGradient>
<linearGradient id="paint2_linear_3987_22976" x1="12.4935" y1="8.31416" x2="12.8217" y2="8.7862" gradientUnits="userSpaceOnUse">
<stop offset="0.348988" stop-color="#B39FBC"/>
<stop offset="1" stop-color="#B39FBC" stop-opacity="0"/>
</linearGradient>
<radialGradient id="paint3_radial_3987_22976" cx="0" cy="0" r="1" gradientUnits="userSpaceOnUse" gradientTransform="translate(6.50916 12.4581) rotate(-2.48957) scale(1.43886 5.43915)">
<stop stop-color="#B8ACBD"/>
<stop offset="1" stop-color="#B8ACBD" stop-opacity="0"/>
</radialGradient>
<linearGradient id="paint4_linear_3987_22976" x1="24.9156" y1="1.83308" x2="22.775" y2="3.14558" gradientUnits="userSpaceOnUse">
<stop stop-color="#533D66"/>
<stop offset="1" stop-color="#482A5B"/>
</linearGradient>
<linearGradient id="paint5_linear_3987_22976" x1="23.8844" y1="2.83308" x2="23.6188" y2="2.30183" gradientUnits="userSpaceOnUse">
<stop stop-color="#482C58"/>
<stop offset="1" stop-color="#482C58" stop-opacity="0"/>
</linearGradient>
<radialGradient id="paint6_radial_3987_22976" cx="0" cy="0" r="1" gradientUnits="userSpaceOnUse" gradientTransform="translate(24.8414 1.71198) rotate(149.642) scale(0.316888 0.431488)">
<stop offset="0.181008" stop-color="#615273"/>
<stop offset="1" stop-color="#615273" stop-opacity="0"/>
</radialGradient>
<linearGradient id="paint7_linear_3987_22976" x1="12.6967" y1="29.1689" x2="12.6967" y2="28.4971" gradientUnits="userSpaceOnUse">
<stop stop-color="#442563"/>
<stop offset="1" stop-color="#442563" stop-opacity="0"/>
</linearGradient>
<radialGradient id="paint8_radial_3987_22976" cx="0" cy="0" r="1" gradientUnits="userSpaceOnUse" gradientTransform="translate(14.1342 28.3174) rotate(-151.821) scale(0.992649 0.520584)">
<stop stop-color="#403451"/>
<stop offset="1" stop-color="#403451" stop-opacity="0"/>
</radialGradient>
<radialGradient id="paint9_radial_3987_22976" cx="0" cy="0" r="1" gradientUnits="userSpaceOnUse" gradientTransform="translate(12.7435 25.8096) rotate(131.958) scale(1.14514 1.55778)">
<stop offset="0.115085" stop-color="#271938"/>
<stop offset="1" stop-color="#271938" stop-opacity="0"/>
</radialGradient>
<radialGradient id="paint10_radial_3987_22976" cx="0" cy="0" r="1" gradientUnits="userSpaceOnUse" gradientTransform="translate(11.3685 27.208) rotate(10.8855) scale(0.827388 3.1027)">
<stop stop-color="#655E6D"/>
<stop offset="1" stop-color="#655E6D" stop-opacity="0"/>
</radialGradient>
<linearGradient id="paint11_linear_3987_22976" x1="20.4781" y1="21.708" x2="19.8844" y2="21.6768" gradientUnits="userSpaceOnUse">
<stop stop-color="#A19CA8"/>
<stop offset="1" stop-color="#A49FAA" stop-opacity="0"/>
</linearGradient>
<radialGradient id="paint12_radial_3987_22976" cx="0" cy="0" r="1" gradientUnits="userSpaceOnUse" gradientTransform="translate(13.1656 26.7705) rotate(-42.9546) scale(3.71468 1.19248)">
<stop stop-color="#937DA8"/>
<stop offset="1" stop-color="#937DA8" stop-opacity="0"/>
</radialGradient>
<radialGradient id="paint13_radial_3987_22976" cx="0" cy="0" r="1" gradientUnits="userSpaceOnUse" gradientTransform="translate(12.275 25.1143) rotate(-46.0354) scale(3.66872 0.402075)">
<stop offset="0.284564" stop-color="#9F9C9D"/>
<stop offset="1" stop-color="#9F9C9D" stop-opacity="0"/>
</radialGradient>
<radialGradient id="paint14_radial_3987_22976" cx="0" cy="0" r="1" gradientUnits="userSpaceOnUse" gradientTransform="translate(17.3688 20.458) rotate(-180) scale(0.765625 5.02098)">
<stop offset="0.000540103" stop-color="#827A8B"/>
<stop offset="1" stop-color="#827A8B" stop-opacity="0"/>
</radialGradient>
<radialGradient id="paint15_radial_3987_22976" cx="0" cy="0" r="1" gradientUnits="userSpaceOnUse" gradientTransform="translate(17.6188 17.1299) rotate(-87.2737) scale(0.98549 1.15323)">
<stop offset="0.153846" stop-color="#7F5D9D"/>
<stop offset="1" stop-color="#9C8CAD" stop-opacity="0"/>
</radialGradient>
<radialGradient id="paint16_radial_3987_22976" cx="0" cy="0" r="1" gradientUnits="userSpaceOnUse" gradientTransform="translate(17.9781 21.8174) scale(0.78125 7.6823)">
<stop stop-color="#5D5467"/>
<stop offset="1" stop-color="#8C7E97" stop-opacity="0"/>
</radialGradient>
<radialGradient id="paint17_radial_3987_22976" cx="0" cy="0" r="1" gradientUnits="userSpaceOnUse" gradientTransform="translate(13.6656 26.833) rotate(-44.4695) scale(4.77318 1.72432)">
<stop stop-color="#8C6FA7"/>
<stop offset="1" stop-color="#8C6FA7" stop-opacity="0"/>
</radialGradient>
<radialGradient id="paint18_radial_3987_22976" cx="0" cy="0" r="1" gradientUnits="userSpaceOnUse" gradientTransform="translate(19.7906 8.80174) rotate(150.356) scale(4.42262 6.15908)">
<stop stop-color="#53AFF7"/>
<stop offset="1" stop-color="#347FDA"/>
</radialGradient>
<radialGradient id="paint19_radial_3987_22976" cx="0" cy="0" r="1" gradientUnits="userSpaceOnUse" gradientTransform="translate(17.2791 6.09497) rotate(78.1592) scale(2.79754 4.7274)">
<stop offset="0.305939" stop-color="#3090BC"/>
<stop offset="1" stop-color="#3090BC" stop-opacity="0"/>
</radialGradient>
<linearGradient id="paint20_linear_3987_22976" x1="17.2791" y1="15.1142" x2="17.2791" y2="11.9267" gradientUnits="userSpaceOnUse">
<stop offset="0.0392156" stop-color="#366BC5"/>
<stop offset="1" stop-color="#366BC5" stop-opacity="0"/>
</linearGradient>
<radialGradient id="paint21_radial_3987_22976" cx="0" cy="0" r="1" gradientUnits="userSpaceOnUse" gradientTransform="translate(15.2906 6.80174) rotate(61.2323) scale(1.81815 2.96678)">
<stop offset="0.284934" stop-color="#246C9D"/>
<stop offset="1" stop-color="#246C9D" stop-opacity="0"/>
</radialGradient>
<radialGradient id="paint22_radial_3987_22976" cx="0" cy="0" r="1" gradientUnits="userSpaceOnUse" gradientTransform="translate(13.4781 9.20799) rotate(-0.520857) scale(1.71882 6.46923)">
<stop stop-color="#56A2E0"/>
<stop offset="1" stop-color="#56A2E0" stop-opacity="0"/>
</radialGradient>
<radialGradient id="paint23_radial_3987_22976" cx="0" cy="0" r="1" gradientUnits="userSpaceOnUse" gradientTransform="translate(21.7606 3.28784) rotate(179.579) scale(0.64638 0.858104)">
<stop offset="0.183294" stop-color="#B49180"/>
<stop offset="1" stop-color="#9D735F"/>
</radialGradient>
<radialGradient id="paint24_radial_3987_22976" cx="0" cy="0" r="1" gradientUnits="userSpaceOnUse" gradientTransform="translate(22.2796 3.04175) rotate(179.579) scale(0.64638 0.858104)">
<stop offset="0.183294" stop-color="#B49180"/>
<stop offset="1" stop-color="#9D735F"/>
</radialGradient>
<radialGradient id="paint25_radial_3987_22976" cx="0" cy="0" r="1" gradientUnits="userSpaceOnUse" gradientTransform="translate(22.8489 2.78784) rotate(179.579) scale(0.64638 0.858104)">
<stop offset="0.183294" stop-color="#B49180"/>
<stop offset="1" stop-color="#9D735F"/>
</radialGradient>
<radialGradient id="paint26_radial_3987_22976" cx="0" cy="0" r="1" gradientUnits="userSpaceOnUse" gradientTransform="translate(22.3692 3.30298) rotate(92.97) scale(0.474156 0.467843)">
<stop stop-color="#AF8C7D"/>
<stop offset="1" stop-color="#A78068"/>
</radialGradient>
<radialGradient id="paint27_radial_3987_22976" cx="0" cy="0" r="1" gradientUnits="userSpaceOnUse" gradientTransform="translate(17.5762 4.44227) rotate(4.52245) scale(3.81576 7.91064)">
<stop offset="0.628834" stop-color="#BC9581" stop-opacity="0"/>
<stop offset="1" stop-color="#BC9581"/>
</radialGradient>
<linearGradient id="paint28_linear_3987_22976" x1="16.0105" y1="7.49707" x2="16.0105" y2="9.70801" gradientUnits="userSpaceOnUse">
<stop stop-color="#2D9DE0"/>
<stop offset="1" stop-color="#3083EA"/>
</linearGradient>
<radialGradient id="paint29_radial_3987_22976" cx="0" cy="0" r="1" gradientUnits="userSpaceOnUse" gradientTransform="translate(14.0406 8.61426) rotate(7.04551) scale(1.73183 4.58209)">
<stop offset="0.204232" stop-color="#579FDE"/>
<stop offset="1" stop-color="#579FDE" stop-opacity="0"/>
</radialGradient>
<radialGradient id="paint30_radial_3987_22976" cx="0" cy="0" r="1" gradientUnits="userSpaceOnUse" gradientTransform="translate(16.1813 7.59863) rotate(84.8056) scale(0.517751 1.9965)">
<stop stop-color="#2F89B9"/>
<stop offset="1" stop-color="#2F89B9" stop-opacity="0"/>
</radialGradient>
<linearGradient id="paint31_linear_3987_22976" x1="19.7435" y1="15.7393" x2="19.7435" y2="26.6455" gradientUnits="userSpaceOnUse">
<stop stop-color="#A89EB3"/>
<stop offset="1" stop-color="#A599B3"/>
</linearGradient>
<linearGradient id="paint32_linear_3987_22976" x1="16.306" y1="17.1768" x2="16.306" y2="23.7393" gradientUnits="userSpaceOnUse">
<stop stop-color="#A59AB1"/>
<stop offset="1" stop-color="#A59AB1" stop-opacity="0"/>
</linearGradient>
<radialGradient id="paint33_radial_3987_22976" cx="0" cy="0" r="1" gradientUnits="userSpaceOnUse" gradientTransform="translate(12.1843 6.02707) scale(0.744163 1.30229)">
<stop offset="0.350532" stop-color="#865D5F"/>
<stop offset="1" stop-color="#76594A"/>
</radialGradient>
<linearGradient id="paint34_linear_3987_22976" x1="12.8922" y1="6.14516" x2="12.6205" y2="6.14516" gradientUnits="userSpaceOnUse">
<stop stop-color="#694448"/>
<stop offset="1" stop-color="#6E464D"/>
</linearGradient>
<linearGradient id="paint35_linear_3987_22976" x1="16.8466" y1="3.54698" x2="16.4994" y2="4.62251" gradientUnits="userSpaceOnUse">
<stop stop-color="#CCA68C"/>
<stop offset="1" stop-color="#AE7F75"/>
</linearGradient>
<radialGradient id="paint36_radial_3987_22976" cx="0" cy="0" r="1" gradientUnits="userSpaceOnUse" gradientTransform="translate(16.5437 3.89755) rotate(-36.0604) scale(0.43366 0.494967)">
<stop offset="0.542503" stop-color="#8F6459"/>
<stop offset="1" stop-color="#8F6459" stop-opacity="0"/>
</radialGradient>
<radialGradient id="paint37_radial_3987_22976" cx="0" cy="0" r="1" gradientUnits="userSpaceOnUse" gradientTransform="translate(16.3685 4.35817) rotate(-61.4675) scale(0.729104 0.426747)">
<stop offset="0.754913" stop-color="#73443E" stop-opacity="0"/>
<stop offset="0.915553" stop-color="#73443E"/>
</radialGradient>
<radialGradient id="paint38_radial_3987_22976" cx="0" cy="0" r="1" gradientUnits="userSpaceOnUse" gradientTransform="translate(16.3861 4.0099) rotate(44.7077) scale(0.15471 0.199443)">
<stop stop-color="#6C443E"/>
<stop offset="1" stop-color="#6C443E" stop-opacity="0"/>
</radialGradient>
<linearGradient id="paint39_linear_3987_22976" x1="16.2026" y1="4.30649" x2="13.6487" y2="6.33367" gradientUnits="userSpaceOnUse">
<stop stop-color="#C69980"/>
<stop offset="1" stop-color="#916762"/>
</linearGradient>
<radialGradient id="paint40_radial_3987_22976" cx="0" cy="0" r="1" gradientUnits="userSpaceOnUse" gradientTransform="translate(15.2325 4.0533) rotate(-120) scale(0.554277 0.679311)">
<stop stop-color="#AB7773"/>
<stop offset="1" stop-color="#AB7773" stop-opacity="0"/>
</radialGradient>
<radialGradient id="paint41_radial_3987_22976" cx="0" cy="0" r="1" gradientUnits="userSpaceOnUse" gradientTransform="translate(13.5941 5.06489) rotate(-120) scale(0.582701 0.721587)">
<stop stop-color="#8F5D65"/>
<stop offset="1" stop-color="#8F5D65" stop-opacity="0"/>
</radialGradient>
<linearGradient id="paint42_linear_3987_22976" x1="13.3251" y1="7.28795" x2="13.999" y2="6.8663" gradientUnits="userSpaceOnUse">
<stop stop-color="#9B7569"/>
<stop offset="1" stop-color="#9B7569" stop-opacity="0"/>
</linearGradient>
<linearGradient id="paint43_linear_3987_22976" x1="16.9195" y1="4.80073" x2="16.4923" y2="5.00026" gradientUnits="userSpaceOnUse">
<stop stop-color="#C1987F"/>
<stop offset="1" stop-color="#C1987F" stop-opacity="0"/>
</linearGradient>
<radialGradient id="paint44_radial_3987_22976" cx="0" cy="0" r="1" gradientUnits="userSpaceOnUse" gradientTransform="translate(14.2721 4.47945) rotate(60) scale(3.53174 4.35891)">
<stop offset="0.607961" stop-color="#95616D" stop-opacity="0"/>
<stop offset="1" stop-color="#844552"/>
</radialGradient>
<radialGradient id="paint45_radial_3987_22976" cx="0" cy="0" r="1" gradientUnits="userSpaceOnUse" gradientTransform="translate(13.8093 3.54521) rotate(60) scale(2.4625 3.05273)">
<stop offset="0.134409" stop-color="#6B4A68"/>
<stop offset="1" stop-color="#7F5663" stop-opacity="0"/>
</radialGradient>
<linearGradient id="paint46_linear_3987_22976" x1="14.541" y1="5.58873" x2="14.8855" y2="5.3898" gradientUnits="userSpaceOnUse">
<stop stop-color="#8B6455"/>
<stop offset="1" stop-color="#8B6455" stop-opacity="0"/>
</linearGradient>
<linearGradient id="paint47_linear_3987_22976" x1="15.2714" y1="5.32497" x2="14.8916" y2="5.53705" gradientUnits="userSpaceOnUse">
<stop stop-color="#CDA186"/>
<stop offset="1" stop-color="#CDA186" stop-opacity="0"/>
</linearGradient>
<linearGradient id="paint48_linear_3987_22976" x1="15.1556" y1="5.7553" x2="15.0341" y2="5.54485" gradientUnits="userSpaceOnUse">
<stop stop-color="#9C6073"/>
<stop offset="1" stop-color="#9C6073" stop-opacity="0"/>
</linearGradient>
<radialGradient id="paint49_radial_3987_22976" cx="0" cy="0" r="1" gradientUnits="userSpaceOnUse" gradientTransform="translate(15.0968 5.54101) rotate(60) scale(0.0834968 0.268256)">
<stop stop-color="#C39787"/>
<stop offset="1" stop-color="#C39787" stop-opacity="0"/>
</radialGradient>
<linearGradient id="paint50_linear_3987_22976" x1="14.5156" y1="4.81189" x2="14.7587" y2="5.23291" gradientUnits="userSpaceOnUse">
<stop offset="0.183017" stop-color="#8F666B"/>
<stop offset="1" stop-color="#8F666B" stop-opacity="0"/>
</linearGradient>
<linearGradient id="paint51_linear_3987_22976" x1="15.0456" y1="6.60953" x2="15.0596" y2="6.26482" gradientUnits="userSpaceOnUse">
<stop stop-color="#A87D7B"/>
<stop offset="0.663171" stop-color="#A87D7B" stop-opacity="0"/>
</linearGradient>
<radialGradient id="paint52_radial_3987_22976" cx="0" cy="0" r="1" gradientUnits="userSpaceOnUse" gradientTransform="translate(15.292 4.3079) rotate(60) scale(0.344378 0.547771)">
<stop offset="0.80198" stop-color="#7D574A"/>
<stop offset="1" stop-color="#694B43"/>
<stop offset="1" stop-color="#804D49"/>
<stop offset="1" stop-color="#664944"/>
</radialGradient>
<radialGradient id="paint53_radial_3987_22976" cx="0" cy="0" r="1" gradientUnits="userSpaceOnUse" gradientTransform="translate(15.2262 4.38707) rotate(-157.812) scale(0.160873 0.221483)">
<stop offset="0.765532" stop-color="#FFE6E2" stop-opacity="0"/>
<stop offset="0.966159" stop-color="#FFE6E2"/>
</radialGradient>
<linearGradient id="paint54_linear_3987_22976" x1="15.5894" y1="4.16275" x2="15.515" y2="4.30066" gradientUnits="userSpaceOnUse">
<stop stop-color="#B4948D"/>
<stop offset="1" stop-color="#B4948D" stop-opacity="0"/>
</linearGradient>
<radialGradient id="paint55_radial_3987_22976" cx="0" cy="0" r="1" gradientUnits="userSpaceOnUse" gradientTransform="translate(13.6897 5.23295) rotate(60) scale(0.344395 0.547799)">
<stop offset="0.80198" stop-color="#7D574A"/>
<stop offset="1" stop-color="#694B43"/>
<stop offset="1" stop-color="#804D49"/>
<stop offset="1" stop-color="#664944"/>
</radialGradient>
<linearGradient id="paint56_linear_3987_22976" x1="13.9746" y1="5.09506" x2="13.9001" y2="5.23298" gradientUnits="userSpaceOnUse">
<stop stop-color="#B4948D"/>
<stop offset="1" stop-color="#B4948D" stop-opacity="0"/>
</linearGradient>
<radialGradient id="paint57_radial_3987_22976" cx="0" cy="0" r="1" gradientUnits="userSpaceOnUse" gradientTransform="translate(13.5629 5.3888) rotate(-90.897) scale(0.209497 0.251824)">
<stop offset="0.765532" stop-color="#FFE6E2" stop-opacity="0"/>
<stop offset="0.966159" stop-color="#FFE6E2"/>
</radialGradient>
<linearGradient id="paint58_linear_3987_22976" x1="12.3402" y1="5.31971" x2="12.1593" y2="5.42415" gradientUnits="userSpaceOnUse">
<stop stop-color="#1E191C"/>
<stop offset="1" stop-color="#463F3D"/>
</linearGradient>
<linearGradient id="paint59_linear_3987_22976" x1="16.0766" y1="3.16268" x2="16.2574" y2="3.05824" gradientUnits="userSpaceOnUse">
<stop offset="0.54842" stop-color="#252224"/>
<stop offset="1" stop-color="#5B5A5A"/>
</linearGradient>
<radialGradient id="paint60_radial_3987_22976" cx="0" cy="0" r="1" gradientUnits="userSpaceOnUse" gradientTransform="translate(12.512 4.80664) rotate(-33.5232) scale(3.2636 12.0936)">
<stop stop-color="#3E82BC"/>
<stop offset="1" stop-color="#1D78B8"/>
</radialGradient>
<radialGradient id="paint61_radial_3987_22976" cx="0" cy="0" r="1" gradientUnits="userSpaceOnUse" gradientTransform="translate(15.1019 3.41963) rotate(-91.6062) scale(0.633187 1.12218)">
<stop stop-color="#3386C4"/>
<stop offset="1" stop-color="#3386C4" stop-opacity="0"/>
</radialGradient>
<radialGradient id="paint62_radial_3987_22976" cx="0" cy="0" r="1" gradientUnits="userSpaceOnUse" gradientTransform="translate(14.7668 2.77794) rotate(153.246) scale(2.79796 2.66771)">
<stop stop-color="#30A2E5"/>
<stop offset="1" stop-color="#1B96DC"/>
</radialGradient>
<radialGradient id="paint63_radial_3987_22976" cx="0" cy="0" r="1" gradientUnits="userSpaceOnUse" gradientTransform="translate(12.1631 4.80056) rotate(-87.8422) scale(2.41131 3.73606)">
<stop stop-color="#4199E0"/>
<stop offset="1" stop-color="#4199E0" stop-opacity="0"/>
</radialGradient>
<radialGradient id="paint64_radial_3987_22976" cx="0" cy="0" r="1" gradientUnits="userSpaceOnUse" gradientTransform="translate(13.8251 3.64544) rotate(-115.648) scale(1.02267 2.26139)">
<stop offset="0.154606" stop-color="#1A7CCC"/>
<stop offset="1" stop-color="#1A7CCC" stop-opacity="0"/>
</radialGradient>
<radialGradient id="paint65_radial_3987_22976" cx="0" cy="0" r="1" gradientUnits="userSpaceOnUse" gradientTransform="translate(12.7596 1.79085) rotate(56.6923) scale(0.632593 3.43391)">
<stop stop-color="#4195CB"/>
<stop offset="1" stop-color="#4195CB" stop-opacity="0"/>
</radialGradient>
</defs>
</svg>
