<svg xmlns="http://www.w3.org/2000/svg" width="32" height="32" fill="none"><path fill="#E6E6E6" d="M9 18.015a10.957 10.957 0 0 1 7-2.515c2.658 0 5.097.943 7 2.515l2.194 5.963L23 30H9l-1.92-6.022L9 18.015Z"/><path fill="#F92F60" d="M16 20.473C16.002 21.872 17.181 23 18.62 23v-1.613a2.46 2.46 0 0 0-.503-1.49c1.348-.199 2.383-1.326 2.383-2.683 0-1.497-1.26-2.714-2.81-2.714h-3.38c-1.55 0-2.81 1.217-2.81 2.714 0 1.357 1.035 2.484 2.383 2.683a2.46 2.46 0 0 0-.503 1.49V23c1.439 0 2.618-1.128 2.62-2.527Z"/><path fill="#D3D3D3" d="M5 26.5c-.02-3.41 1.582-6.47 4-8.5v11.98L5.02 30 5 26.5ZM23 30V18c2.44 2.023 4 5.078 4 8.494V30h-4Z"/><path fill="#FFCE7C" d="M4.919 30h9.606l-2.15-5.9a4.72 4.72 0 0 0-4.043-3.085c-.125-.01-.347.023-.473.036-2.724.281-5.03 3.189-3.92 6.259l.98 2.69Z"/><path fill="#E19747" d="M8.385 21.02c-.14-.01-.29-.02-.43-.02-3.26 0-5.53 3.24-4.42 6.31l.98 2.69h.89l-.98-2.69c-1.06-2.92.95-6.01 3.96-6.29Z"/><path fill="#F92F60" d="M8.24 25.24a1.24 1.24 0 1 0 0-2.48 1.24 1.24 0 0 0 0 2.48Z"/><path fill="#5092FF" d="M11.24 28.24a1.24 1.24 0 1 0 0-2.48 1.24 1.24 0 0 0 0 2.48Z"/><path fill="#86D72F" d="M7.24 29.13a1.24 1.24 0 1 0 0-2.48 1.24 1.24 0 0 0 0 2.48Z"/><path fill="#E4B29A" d="M27.5 23.1c.55 0 1 .445 1 .988v2.262h-2v-2.262a.99.99 0 0 1 1-.988Z"/><path fill="#8C5543" d="M25.212 20.75a13.893 13.893 0 0 0-.104 4.15l.55 4.37c.04.28.28.5.56.5.29 0 .53-.21.56-.5l.55-4.37a14.163 14.163 0 0 0-.107-4.15l-1.022-.395-.987.395Z"/><path fill="#E6E6E6" d="M27.227 20.75c-.12-.67-.217-1.34-.427-1.99h-1.2c-.22.65-.273 1.32-.393 1.99h2.02Z"/><path fill="#F3AD61" d="m24.684 16.75.703-.203c.3 0 .683.438.683.738 0 .44.127.512.567.512.422.01.8 0 .844-.406A1.498 1.498 0 0 1 25.985 19a1.498 1.498 0 0 1-1.33-2.19l.03-.06Z"/><path fill="#5092FF" d="M27.655 15.07a.306.306 0 0 0-.2-.07c-1.21.08-2.23.65-2.77 1.75h.67c.3 0 .54.24.54.54 0 .44.34.82.78.82.44.01.79-.34.81-.77 0-.05-.01-.1-.02-.15v-.01c-.15-.65-.05-1.2.26-1.75.06-.12.03-.27-.07-.36Z"/><path fill="#EEBFAA" d="M24.702 24.74c-.374 0-.692.32-.702.73-.009.27.119.51.31.65a.765.765 0 0 0-.31.62c0 .26.119.49.31.62a.765.765 0 0 0-.31.62c0 .26.119.49.31.62a.798.798 0 0 0-.31.65c.01.41.328.73.702.73h3.006c.437 0 .792-.39.792-.87V25.6c0-.48-.355-.87-.792-.87h-3.006v.01Z"/><path fill="#E4B29A" d="M16 18.5c-1.1 0-2-.908-2-2.017v-1.966c0-1.11.9-2.017 2-2.017s2 .908 2 2.017v1.966c0 1.11-.9 2.017-2 2.017Z"/><path fill="#FFF9BA" d="M20.908 4.23c.514.18.98.54 1.276 1.06.466.82.396 1.81-.118 2.55-.178.26-.277.57-.277.88v4.17c0 .93-.584 1.76-1.455 2.06l-1.871.65V8.17a2.39 2.39 0 0 1-.673-1.42c-.09.01-.178.02-.277.02-.584 0-1.109-.22-1.524-.57a2.283 2.283 0 0 1-1.802.55c-.03.31-.128.63-.297.92-.109.19-.227.36-.376.5v7.42l-1.87-.65a2.184 2.184 0 0 1-1.455-2.06V8.71c0-.31-.1-.62-.268-.88a2.403 2.403 0 0 1-.148-2.47c.287-.55.762-.94 1.306-1.13l8.463-1.08c.307.51.801.89 1.366 1.08Z"/><path fill="#E4B29A" d="M12.75 10.625a1.625 1.625 0 1 1-3.25 0 1.625 1.625 0 0 1 3.25 0ZM22.75 10.625a1.625 1.625 0 1 1-3.25 0 1.625 1.625 0 0 1 3.25 0Z"/><path fill="#EEBFAA" d="M17.174 3h-2.347c-2.629 0-4.538 2.047-4.308 4.737l.396 5.81c.282 1.978 2.034 3.453 4.1 3.453H16.995c2.076 0 3.818-1.475 4.1-3.452l.375-5.811C21.763 5.137 19.802 3 17.174 3Z"/><path fill="#fff" d="M12.007 10.28c.15-.62.71-1.08 1.38-1.08.7 0 1.28.49 1.4 1.15a.23.23 0 0 1-.23.28h-2.28c-.18 0-.31-.18-.27-.35ZM19.657 10.28c-.15-.62-.71-1.08-1.38-1.08-.69 0-1.27.49-1.4 1.15-.03.15.08.28.23.28h2.28c.18 0 .31-.17.27-.35Z"/><path fill="#7D4533" d="M12.687 10.39c0-.5.41-.91.91-.91a.9.9 0 0 1 .91.91c0 .08-.01.16-.03.24h-1.76a.986.986 0 0 1-.03-.24ZM18.977 10.39c0-.5-.41-.91-.91-.91a.913.913 0 0 0-.88 1.15h1.76c.02-.08.03-.16.03-.24Z"/><path fill="#000" d="M13.607 9.87a.516.516 0 0 1 .46.76h-.92a.516.516 0 0 1 .46-.76ZM18.067 9.87a.516.516 0 0 0-.46.76h.92a.516.516 0 0 0-.46-.76Z"/><path fill="#A56953" d="M12.143 8.014a.3.3 0 0 0 .367.473l.003-.002a2.067 2.067 0 0 1 .392-.207 2.24 2.24 0 0 1 1.087-.14.3.3 0 1 0 .07-.595 2.838 2.838 0 0 0-1.766.37 2.017 2.017 0 0 0-.108.069l-.045.032ZM19.573 8.434a.3.3 0 0 0-.052-.42l-.002-.002-.003-.002-.01-.007a1.28 1.28 0 0 0-.137-.09 2.837 2.837 0 0 0-1.767-.37.3.3 0 1 0 .07.594 2.239 2.239 0 0 1 1.39.289 1.382 1.382 0 0 1 .09.059l.002.002a.3.3 0 0 0 .42-.053Z"/><path fill="#fff" d="M13.447 10.03a.16.16 0 1 1-.32 0 .16.16 0 0 1 .32 0ZM17.947 10.03a.16.16 0 1 1-.32 0 .16.16 0 0 1 .32 0Z"/><path fill="#D19479" d="m15.645 10.315-.496 1.738c-.103.356.14.722.486.722h.73c.346 0 .59-.366.486-.722l-.496-1.738c-.102-.386-.598-.386-.71 0Z"/><path fill="#990838" d="M16 13.706a3.09 3.09 0 0 1-1.508-.384c-.153-.086-.306.096-.214.245.367.587.999.983 1.722.983.724 0 1.356-.396 1.723-.983.092-.15-.071-.32-.214-.245a3.09 3.09 0 0 1-1.509.384Z"/><path fill="#212121" d="M8.995 5.72c0-.45.23-.86.62-1.09l.27-.16c2.66-1.62 5.72-2.47 8.84-2.47 2.36 0 4.27 1.91 4.27 4.27 0 .4-.33.73-.73.73h-11.99c-.71 0-1.28-.57-1.28-1.28Z"/></svg>