<svg width="32" height="32" viewBox="0 0 32 32" fill="none" xmlns="http://www.w3.org/2000/svg">
<rect width="1.94553" height="3.44006" transform="matrix(-0.997137 -0.075622 -0.075622 0.997137 13.8101 6.74219)" fill="url(#paint0_radial_2_2963)"/>
<rect width="1.94553" height="3.44006" transform="matrix(-0.997137 -0.075622 -0.075622 0.997137 13.8101 6.74219)" fill="url(#paint1_radial_2_2963)"/>
<rect width="1.94553" height="3.44006" transform="matrix(-0.997137 -0.075622 -0.075622 0.997137 13.8101 6.74219)" fill="url(#paint2_radial_2_2963)"/>
<path d="M16.3737 5.81226C16.2175 5.66538 16.1367 5.44637 16.1159 5.35522H15.9362V6.48022C16.151 6.61694 16.4583 6.59544 16.5495 6.39038C16.6277 6.2146 16.569 5.99585 16.3737 5.81226Z" fill="url(#paint3_radial_2_2963)"/>
<g filter="url(#filter0_i_2_2963)">
<path d="M16.1331 4.84841C16.0946 4.04722 15.8351 3.66103 15.7129 3.5481H11.9806L11.9181 6.71169C12.7846 8.83347 15.4295 8.92442 15.8245 8.157C16.2195 7.38959 16.1777 5.77598 16.1331 4.84841Z" fill="url(#paint4_linear_2_2963)"/>
<path d="M16.1331 4.84841C16.0946 4.04722 15.8351 3.66103 15.7129 3.5481H11.9806L11.9181 6.71169C12.7846 8.83347 15.4295 8.92442 15.8245 8.157C16.2195 7.38959 16.1777 5.77598 16.1331 4.84841Z" fill="url(#paint5_radial_2_2963)"/>
<path d="M16.1331 4.84841C16.0946 4.04722 15.8351 3.66103 15.7129 3.5481H11.9806L11.9181 6.71169C12.7846 8.83347 15.4295 8.92442 15.8245 8.157C16.2195 7.38959 16.1777 5.77598 16.1331 4.84841Z" fill="url(#paint6_radial_2_2963)"/>
<path d="M16.1331 4.84841C16.0946 4.04722 15.8351 3.66103 15.7129 3.5481H11.9806L11.9181 6.71169C12.7846 8.83347 15.4295 8.92442 15.8245 8.157C16.2195 7.38959 16.1777 5.77598 16.1331 4.84841Z" fill="url(#paint7_radial_2_2963)"/>
</g>
<g filter="url(#filter1_i_2_2963)">
<path d="M15.9825 2.49575C15.745 2.00825 15.2762 1.90246 14.9981 1.91763C14.1387 1.9645 14.0215 2.26138 13.2442 2.10122C12.4227 1.93196 12.0175 1.98063 11.6662 2.14028L11.6592 2.14345C11.3126 2.30088 10.5957 2.6265 10.5957 4.09341C10.5957 5.44497 11.0776 6.15851 11.3107 6.41372L11.265 6.43024C11.0334 6.51389 10.9379 6.76024 11.0215 6.99185C11.0928 7.18936 11.3431 7.30317 11.6582 7.25356C12.0184 7.19687 12.2827 7.14773 12.49 7.10656C12.6064 7.08347 12.6896 6.98097 12.6896 6.86237V5.74966C12.6896 5.28091 13.0202 5.00096 13.166 4.91763C13.1816 4.43325 13.3301 4.2106 13.5723 4.09341C13.9733 3.89935 14.0981 3.99537 15.0567 3.93716C16.0216 3.87857 16.2793 3.10513 15.9825 2.49575Z" fill="url(#paint8_radial_2_2963)"/>
<path d="M15.9825 2.49575C15.745 2.00825 15.2762 1.90246 14.9981 1.91763C14.1387 1.9645 14.0215 2.26138 13.2442 2.10122C12.4227 1.93196 12.0175 1.98063 11.6662 2.14028L11.6592 2.14345C11.3126 2.30088 10.5957 2.6265 10.5957 4.09341C10.5957 5.44497 11.0776 6.15851 11.3107 6.41372L11.265 6.43024C11.0334 6.51389 10.9379 6.76024 11.0215 6.99185C11.0928 7.18936 11.3431 7.30317 11.6582 7.25356C12.0184 7.19687 12.2827 7.14773 12.49 7.10656C12.6064 7.08347 12.6896 6.98097 12.6896 6.86237V5.74966C12.6896 5.28091 13.0202 5.00096 13.166 4.91763C13.1816 4.43325 13.3301 4.2106 13.5723 4.09341C13.9733 3.89935 14.0981 3.99537 15.0567 3.93716C16.0216 3.87857 16.2793 3.10513 15.9825 2.49575Z" fill="url(#paint9_radial_2_2963)"/>
<path d="M15.9825 2.49575C15.745 2.00825 15.2762 1.90246 14.9981 1.91763C14.1387 1.9645 14.0215 2.26138 13.2442 2.10122C12.4227 1.93196 12.0175 1.98063 11.6662 2.14028L11.6592 2.14345C11.3126 2.30088 10.5957 2.6265 10.5957 4.09341C10.5957 5.44497 11.0776 6.15851 11.3107 6.41372L11.265 6.43024C11.0334 6.51389 10.9379 6.76024 11.0215 6.99185C11.0928 7.18936 11.3431 7.30317 11.6582 7.25356C12.0184 7.19687 12.2827 7.14773 12.49 7.10656C12.6064 7.08347 12.6896 6.98097 12.6896 6.86237V5.74966C12.6896 5.28091 13.0202 5.00096 13.166 4.91763C13.1816 4.43325 13.3301 4.2106 13.5723 4.09341C13.9733 3.89935 14.0981 3.99537 15.0567 3.93716C16.0216 3.87857 16.2793 3.10513 15.9825 2.49575Z" fill="url(#paint10_radial_2_2963)"/>
<path d="M15.9825 2.49575C15.745 2.00825 15.2762 1.90246 14.9981 1.91763C14.1387 1.9645 14.0215 2.26138 13.2442 2.10122C12.4227 1.93196 12.0175 1.98063 11.6662 2.14028L11.6592 2.14345C11.3126 2.30088 10.5957 2.6265 10.5957 4.09341C10.5957 5.44497 11.0776 6.15851 11.3107 6.41372L11.265 6.43024C11.0334 6.51389 10.9379 6.76024 11.0215 6.99185C11.0928 7.18936 11.3431 7.30317 11.6582 7.25356C12.0184 7.19687 12.2827 7.14773 12.49 7.10656C12.6064 7.08347 12.6896 6.98097 12.6896 6.86237V5.74966C12.6896 5.28091 13.0202 5.00096 13.166 4.91763C13.1816 4.43325 13.3301 4.2106 13.5723 4.09341C13.9733 3.89935 14.0981 3.99537 15.0567 3.93716C16.0216 3.87857 16.2793 3.10513 15.9825 2.49575Z" fill="url(#paint11_radial_2_2963)"/>
</g>
<path d="M13.3625 6.30272L13.1631 4.86328C12.8132 4.91561 12.5449 5.21738 12.5449 5.58182C12.5449 5.98308 12.8702 6.30838 13.2715 6.30838C13.3023 6.30838 13.3327 6.30646 13.3625 6.30272Z" fill="url(#paint12_radial_2_2963)"/>
<path d="M13.3625 6.30272L13.1631 4.86328C12.8132 4.91561 12.5449 5.21738 12.5449 5.58182C12.5449 5.98308 12.8702 6.30838 13.2715 6.30838C13.3023 6.30838 13.3327 6.30646 13.3625 6.30272Z" fill="url(#paint13_linear_2_2963)"/>
<g filter="url(#filter2_iii_2_2963)">
<path d="M8.65763 19.9451L9.54826 16.2107H11.3295C11.3816 16.8253 11.4815 18.4263 11.619 19.7263C11.7565 21.0263 11.1268 21.7576 10.8531 22.0388L6.40763 26.3513C6.60555 27.0128 7.03464 28.3763 7.13464 28.9763C7.21161 29.4381 6.98963 29.7444 6.78355 29.9287C6.69033 30.012 6.54892 29.9928 6.46541 29.8997L3.77787 26.9043C3.68578 26.8016 3.69419 26.6438 3.79667 26.5515L4.78263 25.6638C5.8243 24.2992 7.97326 21.4701 8.23576 21.0701C8.41713 20.7937 8.62638 20.1534 8.65763 19.9451Z" fill="url(#paint14_linear_2_2963)"/>
<path d="M8.65763 19.9451L9.54826 16.2107H11.3295C11.3816 16.8253 11.4815 18.4263 11.619 19.7263C11.7565 21.0263 11.1268 21.7576 10.8531 22.0388L6.40763 26.3513C6.60555 27.0128 7.03464 28.3763 7.13464 28.9763C7.21161 29.4381 6.98963 29.7444 6.78355 29.9287C6.69033 30.012 6.54892 29.9928 6.46541 29.8997L3.77787 26.9043C3.68578 26.8016 3.69419 26.6438 3.79667 26.5515L4.78263 25.6638C5.8243 24.2992 7.97326 21.4701 8.23576 21.0701C8.41713 20.7937 8.62638 20.1534 8.65763 19.9451Z" fill="url(#paint15_radial_2_2963)"/>
<path d="M8.65763 19.9451L9.54826 16.2107H11.3295C11.3816 16.8253 11.4815 18.4263 11.619 19.7263C11.7565 21.0263 11.1268 21.7576 10.8531 22.0388L6.40763 26.3513C6.60555 27.0128 7.03464 28.3763 7.13464 28.9763C7.21161 29.4381 6.98963 29.7444 6.78355 29.9287C6.69033 30.012 6.54892 29.9928 6.46541 29.8997L3.77787 26.9043C3.68578 26.8016 3.69419 26.6438 3.79667 26.5515L4.78263 25.6638C5.8243 24.2992 7.97326 21.4701 8.23576 21.0701C8.41713 20.7937 8.62638 20.1534 8.65763 19.9451Z" fill="url(#paint16_radial_2_2963)"/>
</g>
<g filter="url(#filter3_i_2_2963)">
<path d="M15.0095 18.5623C14.6264 17.5114 14.2934 16.5336 14.2361 16.1794L9.4939 16.1794C9.3939 17.5544 9.63804 17.8916 10.2674 18.6013C10.9601 19.3826 12.4392 21.031 12.8064 21.4958C13.1564 21.8458 13.3064 22.2849 13.3611 22.4763L15.6234 29.9064C15.664 30.0395 15.8054 30.1139 15.938 30.0719L19.6755 28.8892C19.87 28.8276 20.0012 28.6239 19.9193 28.437C19.812 28.1921 19.5866 27.9377 19.033 27.781C18.3705 27.5935 17.0903 27.4972 16.5174 27.4451C16.3038 25.6794 15.858 22.0138 15.783 21.4763C15.6892 20.8044 15.5564 20.0623 15.0095 18.5623Z" fill="#8C8393"/>
<path d="M15.0095 18.5623C14.6264 17.5114 14.2934 16.5336 14.2361 16.1794L9.4939 16.1794C9.3939 17.5544 9.63804 17.8916 10.2674 18.6013C10.9601 19.3826 12.4392 21.031 12.8064 21.4958C13.1564 21.8458 13.3064 22.2849 13.3611 22.4763L15.6234 29.9064C15.664 30.0395 15.8054 30.1139 15.938 30.0719L19.6755 28.8892C19.87 28.8276 20.0012 28.6239 19.9193 28.437C19.812 28.1921 19.5866 27.9377 19.033 27.781C18.3705 27.5935 17.0903 27.4972 16.5174 27.4451C16.3038 25.6794 15.858 22.0138 15.783 21.4763C15.6892 20.8044 15.5564 20.0623 15.0095 18.5623Z" fill="url(#paint17_radial_2_2963)"/>
<path d="M15.0095 18.5623C14.6264 17.5114 14.2934 16.5336 14.2361 16.1794L9.4939 16.1794C9.3939 17.5544 9.63804 17.8916 10.2674 18.6013C10.9601 19.3826 12.4392 21.031 12.8064 21.4958C13.1564 21.8458 13.3064 22.2849 13.3611 22.4763L15.6234 29.9064C15.664 30.0395 15.8054 30.1139 15.938 30.0719L19.6755 28.8892C19.87 28.8276 20.0012 28.6239 19.9193 28.437C19.812 28.1921 19.5866 27.9377 19.033 27.781C18.3705 27.5935 17.0903 27.4972 16.5174 27.4451C16.3038 25.6794 15.858 22.0138 15.783 21.4763C15.6892 20.8044 15.5564 20.0623 15.0095 18.5623Z" fill="url(#paint18_radial_2_2963)"/>
<path d="M15.0095 18.5623C14.6264 17.5114 14.2934 16.5336 14.2361 16.1794L9.4939 16.1794C9.3939 17.5544 9.63804 17.8916 10.2674 18.6013C10.9601 19.3826 12.4392 21.031 12.8064 21.4958C13.1564 21.8458 13.3064 22.2849 13.3611 22.4763L15.6234 29.9064C15.664 30.0395 15.8054 30.1139 15.938 30.0719L19.6755 28.8892C19.87 28.8276 20.0012 28.6239 19.9193 28.437C19.812 28.1921 19.5866 27.9377 19.033 27.781C18.3705 27.5935 17.0903 27.4972 16.5174 27.4451C16.3038 25.6794 15.858 22.0138 15.783 21.4763C15.6892 20.8044 15.5564 20.0623 15.0095 18.5623Z" fill="url(#paint19_linear_2_2963)"/>
<path d="M15.0095 18.5623C14.6264 17.5114 14.2934 16.5336 14.2361 16.1794L9.4939 16.1794C9.3939 17.5544 9.63804 17.8916 10.2674 18.6013C10.9601 19.3826 12.4392 21.031 12.8064 21.4958C13.1564 21.8458 13.3064 22.2849 13.3611 22.4763L15.6234 29.9064C15.664 30.0395 15.8054 30.1139 15.938 30.0719L19.6755 28.8892C19.87 28.8276 20.0012 28.6239 19.9193 28.437C19.812 28.1921 19.5866 27.9377 19.033 27.781C18.3705 27.5935 17.0903 27.4972 16.5174 27.4451C16.3038 25.6794 15.858 22.0138 15.783 21.4763C15.6892 20.8044 15.5564 20.0623 15.0095 18.5623Z" fill="url(#paint20_radial_2_2963)"/>
<path d="M15.0095 18.5623C14.6264 17.5114 14.2934 16.5336 14.2361 16.1794L9.4939 16.1794C9.3939 17.5544 9.63804 17.8916 10.2674 18.6013C10.9601 19.3826 12.4392 21.031 12.8064 21.4958C13.1564 21.8458 13.3064 22.2849 13.3611 22.4763L15.6234 29.9064C15.664 30.0395 15.8054 30.1139 15.938 30.0719L19.6755 28.8892C19.87 28.8276 20.0012 28.6239 19.9193 28.437C19.812 28.1921 19.5866 27.9377 19.033 27.781C18.3705 27.5935 17.0903 27.4972 16.5174 27.4451C16.3038 25.6794 15.858 22.0138 15.783 21.4763C15.6892 20.8044 15.5564 20.0623 15.0095 18.5623Z" fill="url(#paint21_radial_2_2963)"/>
</g>
<path d="M15.232 28.6208L15.6234 29.9063C15.664 30.0394 15.8054 30.1138 15.938 30.0718L19.6755 28.8891C19.87 28.8275 20.0012 28.6238 19.9193 28.4369C19.812 28.192 19.5866 27.9376 19.033 27.7809C18.4423 27.6137 17.3606 27.519 16.727 27.4635C16.6499 27.4568 16.5795 27.4506 16.5174 27.445L16.5172 27.4434L15.232 28.6208Z" fill="url(#paint22_radial_2_2963)"/>
<path d="M15.232 28.6208L15.6234 29.9063C15.664 30.0394 15.8054 30.1138 15.938 30.0718L19.6755 28.8891C19.87 28.8275 20.0012 28.6238 19.9193 28.4369C19.812 28.192 19.5866 27.9376 19.033 27.7809C18.4423 27.6137 17.3606 27.519 16.727 27.4635C16.6499 27.4568 16.5795 27.4506 16.5174 27.445L16.5172 27.4434L15.232 28.6208Z" fill="url(#paint23_radial_2_2963)"/>
<path d="M15.232 28.6208L15.6234 29.9063C15.664 30.0394 15.8054 30.1138 15.938 30.0718L19.6755 28.8891C19.87 28.8275 20.0012 28.6238 19.9193 28.4369C19.812 28.192 19.5866 27.9376 19.033 27.7809C18.4423 27.6137 17.3606 27.519 16.727 27.4635C16.6499 27.4568 16.5795 27.4506 16.5174 27.445L16.5172 27.4434L15.232 28.6208Z" fill="url(#paint24_radial_2_2963)"/>
<path d="M15.232 28.6208L15.6234 29.9063C15.664 30.0394 15.8054 30.1138 15.938 30.0718L19.6755 28.8891C19.87 28.8275 20.0012 28.6238 19.9193 28.4369C19.812 28.192 19.5866 27.9376 19.033 27.7809C18.4423 27.6137 17.3606 27.519 16.727 27.4635C16.6499 27.4568 16.5795 27.4506 16.5174 27.445L16.5172 27.4434L15.232 28.6208Z" fill="url(#paint25_linear_2_2963)"/>
<path d="M15.232 28.6208L15.6234 29.9063C15.664 30.0394 15.8054 30.1138 15.938 30.0718L19.6755 28.8891C19.87 28.8275 20.0012 28.6238 19.9193 28.4369C19.812 28.192 19.5866 27.9376 19.033 27.7809C18.4423 27.6137 17.3606 27.519 16.727 27.4635C16.6499 27.4568 16.5795 27.4506 16.5174 27.445L16.5172 27.4434L15.232 28.6208Z" fill="url(#paint26_linear_2_2963)"/>
<path d="M4.79093 25.6528L6.42886 26.3306L6.4075 26.3513C6.43839 26.4544 6.47476 26.5744 6.51468 26.7059C6.73111 27.419 7.0502 28.4698 7.13455 28.9763C7.21146 29.4381 6.98953 29.7444 6.78348 29.9287C6.69022 30.012 6.54886 29.9929 6.46536 29.8998L3.77774 26.9043C3.6857 26.8016 3.69412 26.6438 3.79654 26.5515L4.7825 25.6638C4.78531 25.6602 4.78812 25.6565 4.79093 25.6528Z" fill="#45437A"/>
<path d="M4.79093 25.6528L6.42886 26.3306L6.4075 26.3513C6.43839 26.4544 6.47476 26.5744 6.51468 26.7059C6.73111 27.419 7.0502 28.4698 7.13455 28.9763C7.21146 29.4381 6.98953 29.7444 6.78348 29.9287C6.69022 30.012 6.54886 29.9929 6.46536 29.8998L3.77774 26.9043C3.6857 26.8016 3.69412 26.6438 3.79654 26.5515L4.7825 25.6638C4.78531 25.6602 4.78812 25.6565 4.79093 25.6528Z" fill="url(#paint27_linear_2_2963)"/>
<path d="M4.79093 25.6528L6.42886 26.3306L6.4075 26.3513C6.43839 26.4544 6.47476 26.5744 6.51468 26.7059C6.73111 27.419 7.0502 28.4698 7.13455 28.9763C7.21146 29.4381 6.98953 29.7444 6.78348 29.9287C6.69022 30.012 6.54886 29.9929 6.46536 29.8998L3.77774 26.9043C3.6857 26.8016 3.69412 26.6438 3.79654 26.5515L4.7825 25.6638C4.78531 25.6602 4.78812 25.6565 4.79093 25.6528Z" fill="url(#paint28_linear_2_2963)"/>
<path d="M4.79093 25.6528L6.42886 26.3306L6.4075 26.3513C6.43839 26.4544 6.47476 26.5744 6.51468 26.7059C6.73111 27.419 7.0502 28.4698 7.13455 28.9763C7.21146 29.4381 6.98953 29.7444 6.78348 29.9287C6.69022 30.012 6.54886 29.9929 6.46536 29.8998L3.77774 26.9043C3.6857 26.8016 3.69412 26.6438 3.79654 26.5515L4.7825 25.6638C4.78531 25.6602 4.78812 25.6565 4.79093 25.6528Z" fill="url(#paint29_radial_2_2963)"/>
<g filter="url(#filter4_i_2_2963)">
<path fill-rule="evenodd" clip-rule="evenodd" d="M13.7871 11.7467C13.2655 12.0001 13.0481 12.6284 13.3015 13.15C15.1336 16.9205 17.5373 18.0621 19.0221 17.777C19.5916 17.6676 19.9646 17.1173 19.8552 16.5478C19.7459 15.9783 19.1955 15.6053 18.626 15.7146C18.6263 15.7146 18.6264 15.7146 18.6264 15.7146C18.6264 15.7145 18.5998 15.7188 18.5442 15.7151C18.4867 15.7112 18.4062 15.6992 18.3046 15.6709C18.1018 15.6144 17.8261 15.4961 17.5006 15.267C16.8508 14.8097 16.0069 13.9128 15.1904 12.2322C14.9369 11.7106 14.3086 11.4933 13.7871 11.7467Z" fill="#45302D"/>
<path fill-rule="evenodd" clip-rule="evenodd" d="M13.7871 11.7467C13.2655 12.0001 13.0481 12.6284 13.3015 13.15C15.1336 16.9205 17.5373 18.0621 19.0221 17.777C19.5916 17.6676 19.9646 17.1173 19.8552 16.5478C19.7459 15.9783 19.1955 15.6053 18.626 15.7146C18.6263 15.7146 18.6264 15.7146 18.6264 15.7146C18.6264 15.7145 18.5998 15.7188 18.5442 15.7151C18.4867 15.7112 18.4062 15.6992 18.3046 15.6709C18.1018 15.6144 17.8261 15.4961 17.5006 15.267C16.8508 14.8097 16.0069 13.9128 15.1904 12.2322C14.9369 11.7106 14.3086 11.4933 13.7871 11.7467Z" fill="url(#paint30_radial_2_2963)"/>
<path fill-rule="evenodd" clip-rule="evenodd" d="M13.7871 11.7467C13.2655 12.0001 13.0481 12.6284 13.3015 13.15C15.1336 16.9205 17.5373 18.0621 19.0221 17.777C19.5916 17.6676 19.9646 17.1173 19.8552 16.5478C19.7459 15.9783 19.1955 15.6053 18.626 15.7146C18.6263 15.7146 18.6264 15.7146 18.6264 15.7146C18.6264 15.7145 18.5998 15.7188 18.5442 15.7151C18.4867 15.7112 18.4062 15.6992 18.3046 15.6709C18.1018 15.6144 17.8261 15.4961 17.5006 15.267C16.8508 14.8097 16.0069 13.9128 15.1904 12.2322C14.9369 11.7106 14.3086 11.4933 13.7871 11.7467Z" fill="url(#paint31_radial_2_2963)"/>
</g>
<path d="M19.5142 15.9877C19.3165 15.5875 18.9043 15.3123 18.4278 15.3123C17.759 15.3123 17.2168 15.8544 17.2168 16.5232C17.2168 17.192 17.759 17.7341 18.4278 17.7341C18.8336 17.7341 19.1929 17.5344 19.4126 17.2279" stroke="#33241A" stroke-width="0.35"/>
<g filter="url(#filter5_f_2_2963)">
<path d="M19.5286 16.0175C19.337 15.6012 18.9162 15.3123 18.4279 15.3123C17.7592 15.3123 17.217 15.8544 17.217 16.5232C17.217 17.192 17.7592 17.7341 18.4279 17.7341C18.833 17.7341 19.1916 17.5352 19.4115 17.2298" stroke="url(#paint32_linear_2_2963)" stroke-width="0.1"/>
</g>
<g filter="url(#filter6_i_2_2963)">
<path fill-rule="evenodd" clip-rule="evenodd" d="M19.3352 17.7804C19.1342 17.9265 19.0896 18.2079 19.2358 18.4089L27.0092 29.1042C27.1553 29.3053 27.4367 29.3498 27.6378 29.2037C27.8388 29.0576 27.8833 28.7762 27.7372 28.5751L19.9638 17.8798C19.8177 17.6788 19.5362 17.6342 19.3352 17.7804Z" fill="url(#paint33_linear_2_2963)"/>
</g>
<path d="M24.9169 26.2253L27.0092 29.104C27.1553 29.3051 27.4367 29.3496 27.6378 29.2035C27.8388 29.0574 27.8833 28.7759 27.7372 28.5749L25.6452 25.6965L24.9169 26.2253Z" fill="url(#paint34_linear_2_2963)"/>
<path d="M24.9169 26.2253L27.0092 29.104C27.1553 29.3051 27.4367 29.3496 27.6378 29.2035C27.8388 29.0574 27.8833 28.7759 27.7372 28.5749L25.6452 25.6965L24.9169 26.2253Z" fill="url(#paint35_linear_2_2963)"/>
<g filter="url(#filter7_i_2_2963)">
<circle cx="0.839844" cy="0.839844" r="0.839844" transform="matrix(-1 0 0 1 28.3889 28.238)" fill="url(#paint36_radial_2_2963)"/>
<circle cx="0.839844" cy="0.839844" r="0.839844" transform="matrix(-1 0 0 1 28.3889 28.238)" fill="url(#paint37_radial_2_2963)"/>
<circle cx="0.839844" cy="0.839844" r="0.839844" transform="matrix(-1 0 0 1 28.3889 28.238)" fill="url(#paint38_radial_2_2963)"/>
</g>
<g filter="url(#filter8_i_2_2963)">
<path d="M18.9209 16.0128C18.8563 15.9233 18.7312 15.9031 18.6417 15.9678L17.8244 16.5583C17.7349 16.623 17.7148 16.748 17.7794 16.8375L19.2886 18.9264C19.3533 19.0159 19.4783 19.0361 19.5679 18.9714L20.3851 18.3809C20.4747 18.3163 20.4948 18.1912 20.4301 18.1017L18.9209 16.0128Z" fill="url(#paint39_linear_2_2963)"/>
<path d="M18.9209 16.0128C18.8563 15.9233 18.7312 15.9031 18.6417 15.9678L17.8244 16.5583C17.7349 16.623 17.7148 16.748 17.7794 16.8375L19.2886 18.9264C19.3533 19.0159 19.4783 19.0361 19.5679 18.9714L20.3851 18.3809C20.4747 18.3163 20.4948 18.1912 20.4301 18.1017L18.9209 16.0128Z" fill="url(#paint40_linear_2_2963)"/>
</g>
<g filter="url(#filter9_i_2_2963)">
<rect width="0.831665" height="1.66861" rx="0.415833" transform="matrix(-0.991082 -0.13325 -0.13325 0.991082 19.8743 15.6138)" fill="#594644"/>
</g>
<path d="M14.6111 10.4998C14.3298 9.78726 13.8376 9.2758 13.6267 9.10913L13.6658 13.5779L15.4509 12.7419C15.1736 12.2185 14.9626 11.3904 14.6111 10.4998Z" fill="url(#paint41_linear_2_2963)"/>
<path d="M12.3024 8.59741C11.4118 8.59741 11.1657 8.81226 10.8688 9.00366L9.84539 11.6013C9.54539 13.0013 9.4808 15.2367 9.48601 16.1794H14.2517C14.5095 15.5232 14.9291 13.5044 14.7674 11.6013C14.6033 9.67163 13.5602 8.69897 12.3024 8.59741Z" fill="url(#paint42_radial_2_2963)"/>
<path d="M12.3024 8.59741C11.4118 8.59741 11.1657 8.81226 10.8688 9.00366L9.84539 11.6013C9.54539 13.0013 9.4808 15.2367 9.48601 16.1794H14.2517C14.5095 15.5232 14.9291 13.5044 14.7674 11.6013C14.6033 9.67163 13.5602 8.69897 12.3024 8.59741Z" fill="url(#paint43_radial_2_2963)"/>
<path d="M12.3024 8.59741C11.4118 8.59741 11.1657 8.81226 10.8688 9.00366L9.84539 11.6013C9.54539 13.0013 9.4808 15.2367 9.48601 16.1794H14.2517C14.5095 15.5232 14.9291 13.5044 14.7674 11.6013C14.6033 9.67163 13.5602 8.69897 12.3024 8.59741Z" fill="url(#paint44_radial_2_2963)"/>
<path d="M12.3024 8.59741C11.4118 8.59741 11.1657 8.81226 10.8688 9.00366L9.84539 11.6013C9.54539 13.0013 9.4808 15.2367 9.48601 16.1794H14.2517C14.5095 15.5232 14.9291 13.5044 14.7674 11.6013C14.6033 9.67163 13.5602 8.69897 12.3024 8.59741Z" fill="url(#paint45_radial_2_2963)"/>
<circle cx="0.550781" cy="0.550781" r="0.550781" transform="matrix(-1 0 0 1 7.44702 17.4763)" fill="url(#paint46_radial_2_2963)"/>
<g filter="url(#filter10_ii_2_2963)">
<path fill-rule="evenodd" clip-rule="evenodd" d="M5.99002 19.2233C6.31539 19.3313 6.6645 19.1438 6.76595 18.8163C7.98091 14.8947 9.9317 12.5264 11.3073 11.2713C11.7452 10.8719 11.8232 10.1892 11.4356 9.74085C11.0893 9.3401 10.4912 9.26919 10.0874 9.61197C8.46138 10.9923 6.17681 13.5873 4.77111 18.2166C4.67812 18.5228 4.84996 18.8447 5.15368 18.9456L5.99002 19.2233Z" fill="#462C2F"/>
</g>
<g filter="url(#filter11_f_2_2963)">
<path d="M9.64038 11.3435C8.74455 12.1039 6.68413 14.5685 5.60913 18.3435" stroke="#604E4D" stroke-width="0.4" stroke-linecap="round"/>
</g>
<path d="M12.4379 11.2031C12.7482 10.9547 12.947 10.5727 12.947 10.1443C12.947 9.39568 12.3402 8.78882 11.5916 8.78882C11.2544 8.78882 10.946 8.91189 10.7089 9.11554C9.75824 9.80706 8.91968 10.7068 8.43921 11.2498L10.4783 13.1638C10.786 12.844 11.8602 11.7713 12.4379 11.2031Z" fill="url(#paint47_linear_2_2963)"/>
<path d="M12.4379 11.2031C12.7482 10.9547 12.947 10.5727 12.947 10.1443C12.947 9.39568 12.3402 8.78882 11.5916 8.78882C11.2544 8.78882 10.946 8.91189 10.7089 9.11554C9.75824 9.80706 8.91968 10.7068 8.43921 11.2498L10.4783 13.1638C10.786 12.844 11.8602 11.7713 12.4379 11.2031Z" fill="url(#paint48_radial_2_2963)"/>
<path d="M12.4379 11.2031C12.7482 10.9547 12.947 10.5727 12.947 10.1443C12.947 9.39568 12.3402 8.78882 11.5916 8.78882C11.2544 8.78882 10.946 8.91189 10.7089 9.11554C9.75824 9.80706 8.91968 10.7068 8.43921 11.2498L10.4783 13.1638C10.786 12.844 11.8602 11.7713 12.4379 11.2031Z" fill="url(#paint49_radial_2_2963)"/>
<path fill-rule="evenodd" clip-rule="evenodd" d="M14.8812 6.75596C14.8329 6.80524 14.8336 6.88438 14.8829 6.93273C15.121 7.16637 15.4654 7.22615 15.5749 7.23738C15.6436 7.24443 15.7049 7.19447 15.712 7.12579C15.719 7.05712 15.6691 6.99573 15.6004 6.98869C15.5068 6.97909 15.2339 6.9269 15.058 6.75428C15.0087 6.70593 14.9296 6.70669 14.8812 6.75596Z" fill="#280017"/>
<g filter="url(#filter12_i_2_2963)">
<path fill-rule="evenodd" clip-rule="evenodd" d="M15.1141 4.6094C15.2146 4.58926 15.2975 4.58961 15.3309 4.59378C15.4131 4.60406 15.4881 4.54575 15.4983 4.46354C15.5086 4.38134 15.4503 4.30637 15.3681 4.2961C15.2973 4.28724 15.1814 4.28994 15.0552 4.31525C14.9279 4.34076 14.778 4.39162 14.6471 4.48838C14.5804 4.53762 14.5663 4.63154 14.6156 4.69816C14.6648 4.76478 14.7588 4.77887 14.8254 4.72963C14.9101 4.66701 15.0147 4.62933 15.1141 4.6094Z" fill="#2C2929"/>
</g>
<path d="M15.6267 5.64233H14.6384C14.6384 5.25077 14.8597 4.93335 15.1326 4.93335C15.4055 4.93335 15.6267 5.25077 15.6267 5.64233Z" fill="white"/>
<path d="M15.0212 5.64233L15.0212 5.63843C15.0212 5.31806 15.1585 5.05835 15.3279 5.05835C15.4972 5.05835 15.6345 5.31806 15.6345 5.63843L15.6345 5.64233H15.0212Z" fill="url(#paint50_radial_2_2963)"/>
<path d="M15.2167 5.64233C15.2141 5.61906 15.2126 5.59488 15.2126 5.57007C15.2126 5.38454 15.2913 5.23413 15.3884 5.23413C15.4855 5.23413 15.5642 5.38454 15.5642 5.57007C15.5642 5.59488 15.5628 5.61906 15.5601 5.64233H15.2167Z" fill="url(#paint51_radial_2_2963)"/>
<ellipse cx="0.0644531" cy="0.0878906" rx="0.0644531" ry="0.0878906" transform="matrix(-0.909163 0.416441 0.416441 0.909163 15.4749 5.18408)" fill="url(#paint52_linear_2_2963)"/>
<g filter="url(#filter13_f_2_2963)">
<path d="M14.6267 21.1794L15.9705 27.6794L15.6111 27.9919L14.1423 21.4607L11.1267 17.5857L11.8298 17.1013L14.6267 21.1794Z" fill="url(#paint53_linear_2_2963)"/>
</g>
<g filter="url(#filter14_f_2_2963)">
<path d="M8.7987 21.1271L5.3225 25.5551L5.83648 25.754L9.32097 22.0459C9.71124 21.6306 9.97513 21.1127 10.0818 20.5529L10.2722 19.553L9.52053 18.7793L8.97689 20.7727C8.94175 20.9015 8.88116 21.022 8.7987 21.1271Z" fill="url(#paint54_linear_2_2963)"/>
</g>
<g filter="url(#filter15_f_2_2963)">
<path d="M12.4498 3.76964C12.294 4.40539 12.2031 5.0144 12.1729 5.29077C11.5417 4.71291 11.3032 4.00325 11.2445 3.41899C11.1944 2.92059 11.8197 2.66199 12.2437 2.92877C12.5498 3.12139 12.5359 3.41835 12.4498 3.76964Z" fill="url(#paint55_linear_2_2963)"/>
</g>
<defs>
<filter id="filter0_i_2_2963" x="11.7181" y="3.3481" width="4.4428" height="5.24932" filterUnits="userSpaceOnUse" color-interpolation-filters="sRGB">
<feFlood flood-opacity="0" result="BackgroundImageFix"/>
<feBlend mode="normal" in="SourceGraphic" in2="BackgroundImageFix" result="shape"/>
<feColorMatrix in="SourceAlpha" type="matrix" values="0 0 0 0 0 0 0 0 0 0 0 0 0 0 0 0 0 0 127 0" result="hardAlpha"/>
<feOffset dx="-0.2" dy="-0.2"/>
<feGaussianBlur stdDeviation="0.5"/>
<feComposite in2="hardAlpha" operator="arithmetic" k2="-1" k3="1"/>
<feColorMatrix type="matrix" values="0 0 0 0 0.360784 0 0 0 0 0.172549 0 0 0 0 0.12549 0 0 0 1 0"/>
<feBlend mode="normal" in2="shape" result="effect1_innerShadow_2_2963"/>
</filter>
<filter id="filter1_i_2_2963" x="10.5957" y="1.76626" width="5.50317" height="5.49888" filterUnits="userSpaceOnUse" color-interpolation-filters="sRGB">
<feFlood flood-opacity="0" result="BackgroundImageFix"/>
<feBlend mode="normal" in="SourceGraphic" in2="BackgroundImageFix" result="shape"/>
<feColorMatrix in="SourceAlpha" type="matrix" values="0 0 0 0 0 0 0 0 0 0 0 0 0 0 0 0 0 0 127 0" result="hardAlpha"/>
<feOffset dy="-0.15"/>
<feGaussianBlur stdDeviation="0.15"/>
<feComposite in2="hardAlpha" operator="arithmetic" k2="-1" k3="1"/>
<feColorMatrix type="matrix" values="0 0 0 0 0.14902 0 0 0 0 0.101961 0 0 0 0 0.109804 0 0 0 1 0"/>
<feBlend mode="normal" in2="shape" result="effect1_innerShadow_2_2963"/>
</filter>
<filter id="filter2_iii_2_2963" x="3.71394" y="15.4607" width="8.67448" height="14.771" filterUnits="userSpaceOnUse" color-interpolation-filters="sRGB">
<feFlood flood-opacity="0" result="BackgroundImageFix"/>
<feBlend mode="normal" in="SourceGraphic" in2="BackgroundImageFix" result="shape"/>
<feColorMatrix in="SourceAlpha" type="matrix" values="0 0 0 0 0 0 0 0 0 0 0 0 0 0 0 0 0 0 127 0" result="hardAlpha"/>
<feOffset dx="0.75" dy="-0.75"/>
<feGaussianBlur stdDeviation="0.5"/>
<feComposite in2="hardAlpha" operator="arithmetic" k2="-1" k3="1"/>
<feColorMatrix type="matrix" values="0 0 0 0 0.439216 0 0 0 0 0.388235 0 0 0 0 0.486275 0 0 0 1 0"/>
<feBlend mode="normal" in2="shape" result="effect1_innerShadow_2_2963"/>
<feColorMatrix in="SourceAlpha" type="matrix" values="0 0 0 0 0 0 0 0 0 0 0 0 0 0 0 0 0 0 127 0" result="hardAlpha"/>
<feOffset dy="-0.5"/>
<feGaussianBlur stdDeviation="0.375"/>
<feComposite in2="hardAlpha" operator="arithmetic" k2="-1" k3="1"/>
<feColorMatrix type="matrix" values="0 0 0 0 0.537255 0 0 0 0 0.423529 0 0 0 0 0.635294 0 0 0 1 0"/>
<feBlend mode="normal" in2="effect1_innerShadow_2_2963" result="effect2_innerShadow_2_2963"/>
<feColorMatrix in="SourceAlpha" type="matrix" values="0 0 0 0 0 0 0 0 0 0 0 0 0 0 0 0 0 0 127 0" result="hardAlpha"/>
<feOffset dx="0.25" dy="0.25"/>
<feGaussianBlur stdDeviation="0.375"/>
<feComposite in2="hardAlpha" operator="arithmetic" k2="-1" k3="1"/>
<feColorMatrix type="matrix" values="0 0 0 0 0.529412 0 0 0 0 0.490196 0 0 0 0 0.537255 0 0 0 1 0"/>
<feBlend mode="normal" in2="effect2_innerShadow_2_2963" result="effect3_innerShadow_2_2963"/>
</filter>
<filter id="filter3_i_2_2963" x="9.47223" y="15.9794" width="10.9719" height="14.1043" filterUnits="userSpaceOnUse" color-interpolation-filters="sRGB">
<feFlood flood-opacity="0" result="BackgroundImageFix"/>
<feBlend mode="normal" in="SourceGraphic" in2="BackgroundImageFix" result="shape"/>
<feColorMatrix in="SourceAlpha" type="matrix" values="0 0 0 0 0 0 0 0 0 0 0 0 0 0 0 0 0 0 127 0" result="hardAlpha"/>
<feOffset dx="0.5" dy="-0.2"/>
<feGaussianBlur stdDeviation="0.25"/>
<feComposite in2="hardAlpha" operator="arithmetic" k2="-1" k3="1"/>
<feColorMatrix type="matrix" values="0 0 0 0 0.619608 0 0 0 0 0.592157 0 0 0 0 0.611765 0 0 0 1 0"/>
<feBlend mode="normal" in2="shape" result="effect1_innerShadow_2_2963"/>
</filter>
<filter id="filter4_i_2_2963" x="12.6957" y="10.8909" width="7.17856" height="6.92773" filterUnits="userSpaceOnUse" color-interpolation-filters="sRGB">
<feFlood flood-opacity="0" result="BackgroundImageFix"/>
<feBlend mode="normal" in="SourceGraphic" in2="BackgroundImageFix" result="shape"/>
<feColorMatrix in="SourceAlpha" type="matrix" values="0 0 0 0 0 0 0 0 0 0 0 0 0 0 0 0 0 0 127 0" result="hardAlpha"/>
<feOffset dx="-0.5" dy="-0.75"/>
<feGaussianBlur stdDeviation="0.5"/>
<feComposite in2="hardAlpha" operator="arithmetic" k2="-1" k3="1"/>
<feColorMatrix type="matrix" values="0 0 0 0 0.223529 0 0 0 0 0.121569 0 0 0 0 0.164706 0 0 0 1 0"/>
<feBlend mode="normal" in2="shape" result="effect1_innerShadow_2_2963"/>
</filter>
<filter id="filter5_f_2_2963" x="17.067" y="15.1622" width="2.60698" height="2.72197" filterUnits="userSpaceOnUse" color-interpolation-filters="sRGB">
<feFlood flood-opacity="0" result="BackgroundImageFix"/>
<feBlend mode="normal" in="SourceGraphic" in2="BackgroundImageFix" result="shape"/>
<feGaussianBlur stdDeviation="0.05" result="effect1_foregroundBlur_2_2963"/>
</filter>
<filter id="filter6_i_2_2963" x="19.1497" y="17.4943" width="8.67351" height="11.7955" filterUnits="userSpaceOnUse" color-interpolation-filters="sRGB">
<feFlood flood-opacity="0" result="BackgroundImageFix"/>
<feBlend mode="normal" in="SourceGraphic" in2="BackgroundImageFix" result="shape"/>
<feColorMatrix in="SourceAlpha" type="matrix" values="0 0 0 0 0 0 0 0 0 0 0 0 0 0 0 0 0 0 127 0" result="hardAlpha"/>
<feOffset dy="-0.2"/>
<feGaussianBlur stdDeviation="0.2"/>
<feComposite in2="hardAlpha" operator="arithmetic" k2="-1" k3="1"/>
<feColorMatrix type="matrix" values="0 0 0 0 0.741176 0 0 0 0 0.647059 0 0 0 0 0.811765 0 0 0 1 0"/>
<feBlend mode="normal" in2="shape" result="effect1_innerShadow_2_2963"/>
</filter>
<filter id="filter7_i_2_2963" x="26.7092" y="28.238" width="1.67969" height="1.67969" filterUnits="userSpaceOnUse" color-interpolation-filters="sRGB">
<feFlood flood-opacity="0" result="BackgroundImageFix"/>
<feBlend mode="normal" in="SourceGraphic" in2="BackgroundImageFix" result="shape"/>
<feColorMatrix in="SourceAlpha" type="matrix" values="0 0 0 0 0 0 0 0 0 0 0 0 0 0 0 0 0 0 127 0" result="hardAlpha"/>
<feOffset/>
<feGaussianBlur stdDeviation="0.1"/>
<feComposite in2="hardAlpha" operator="arithmetic" k2="-1" k3="1"/>
<feColorMatrix type="matrix" values="0 0 0 0 0.835294 0 0 0 0 0.819608 0 0 0 0 0.835294 0 0 0 1 0"/>
<feBlend mode="normal" in2="shape" result="effect1_innerShadow_2_2963"/>
</filter>
<filter id="filter8_i_2_2963" x="17.7415" y="15.9299" width="2.72647" height="3.07935" filterUnits="userSpaceOnUse" color-interpolation-filters="sRGB">
<feFlood flood-opacity="0" result="BackgroundImageFix"/>
<feBlend mode="normal" in="SourceGraphic" in2="BackgroundImageFix" result="shape"/>
<feColorMatrix in="SourceAlpha" type="matrix" values="0 0 0 0 0 0 0 0 0 0 0 0 0 0 0 0 0 0 127 0" result="hardAlpha"/>
<feOffset/>
<feGaussianBlur stdDeviation="0.25"/>
<feComposite in2="hardAlpha" operator="arithmetic" k2="-1" k3="1"/>
<feColorMatrix type="matrix" values="0 0 0 0 0.211765 0 0 0 0 0.133333 0 0 0 0 0.27451 0 0 0 1 0"/>
<feBlend mode="normal" in2="shape" result="effect1_innerShadow_2_2963"/>
</filter>
<filter id="filter9_i_2_2963" x="18.7293" y="15.5547" width="1.09328" height="1.66113" filterUnits="userSpaceOnUse" color-interpolation-filters="sRGB">
<feFlood flood-opacity="0" result="BackgroundImageFix"/>
<feBlend mode="normal" in="SourceGraphic" in2="BackgroundImageFix" result="shape"/>
<feColorMatrix in="SourceAlpha" type="matrix" values="0 0 0 0 0 0 0 0 0 0 0 0 0 0 0 0 0 0 127 0" result="hardAlpha"/>
<feOffset dx="-0.15"/>
<feGaussianBlur stdDeviation="0.25"/>
<feComposite in2="hardAlpha" operator="arithmetic" k2="-1" k3="1"/>
<feColorMatrix type="matrix" values="0 0 0 0 0.286275 0 0 0 0 0.168627 0 0 0 0 0.160784 0 0 0 1 0"/>
<feBlend mode="normal" in2="shape" result="effect1_innerShadow_2_2963"/>
</filter>
<filter id="filter10_ii_2_2963" x="4.34585" y="9.14258" width="7.58994" height="10.5113" filterUnits="userSpaceOnUse" color-interpolation-filters="sRGB">
<feFlood flood-opacity="0" result="BackgroundImageFix"/>
<feBlend mode="normal" in="SourceGraphic" in2="BackgroundImageFix" result="shape"/>
<feColorMatrix in="SourceAlpha" type="matrix" values="0 0 0 0 0 0 0 0 0 0 0 0 0 0 0 0 0 0 127 0" result="hardAlpha"/>
<feOffset dx="0.25" dy="-0.25"/>
<feGaussianBlur stdDeviation="0.4"/>
<feComposite in2="hardAlpha" operator="arithmetic" k2="-1" k3="1"/>
<feColorMatrix type="matrix" values="0 0 0 0 0.266667 0 0 0 0 0.156863 0 0 0 0 0.231373 0 0 0 1 0"/>
<feBlend mode="normal" in2="shape" result="effect1_innerShadow_2_2963"/>
<feColorMatrix in="SourceAlpha" type="matrix" values="0 0 0 0 0 0 0 0 0 0 0 0 0 0 0 0 0 0 127 0" result="hardAlpha"/>
<feOffset dx="-0.4" dy="0.4"/>
<feGaussianBlur stdDeviation="0.4"/>
<feComposite in2="hardAlpha" operator="arithmetic" k2="-1" k3="1"/>
<feColorMatrix type="matrix" values="0 0 0 0 0.376471 0 0 0 0 0.305882 0 0 0 0 0.301961 0 0 0 1 0"/>
<feBlend mode="normal" in2="effect1_innerShadow_2_2963" result="effect2_innerShadow_2_2963"/>
</filter>
<filter id="filter11_f_2_2963" x="4.80907" y="10.5436" width="5.6313" height="8.5999" filterUnits="userSpaceOnUse" color-interpolation-filters="sRGB">
<feFlood flood-opacity="0" result="BackgroundImageFix"/>
<feBlend mode="normal" in="SourceGraphic" in2="BackgroundImageFix" result="shape"/>
<feGaussianBlur stdDeviation="0.3" result="effect1_foregroundBlur_2_2963"/>
</filter>
<filter id="filter12_i_2_2963" x="14.4862" y="4.2915" width="1.0133" height="0.567529" filterUnits="userSpaceOnUse" color-interpolation-filters="sRGB">
<feFlood flood-opacity="0" result="BackgroundImageFix"/>
<feBlend mode="normal" in="SourceGraphic" in2="BackgroundImageFix" result="shape"/>
<feColorMatrix in="SourceAlpha" type="matrix" values="0 0 0 0 0 0 0 0 0 0 0 0 0 0 0 0 0 0 127 0" result="hardAlpha"/>
<feOffset dx="-0.1" dy="0.1"/>
<feGaussianBlur stdDeviation="0.1"/>
<feComposite in2="hardAlpha" operator="arithmetic" k2="-1" k3="1"/>
<feColorMatrix type="matrix" values="0 0 0 0 0.0666667 0 0 0 0 0.0627451 0 0 0 0 0.0627451 0 0 0 1 0"/>
<feBlend mode="normal" in2="shape" result="effect1_innerShadow_2_2963"/>
</filter>
<filter id="filter13_f_2_2963" x="10.1267" y="16.1013" width="6.84375" height="12.8906" filterUnits="userSpaceOnUse" color-interpolation-filters="sRGB">
<feFlood flood-opacity="0" result="BackgroundImageFix"/>
<feBlend mode="normal" in="SourceGraphic" in2="BackgroundImageFix" result="shape"/>
<feGaussianBlur stdDeviation="0.5" result="effect1_foregroundBlur_2_2963"/>
</filter>
<filter id="filter14_f_2_2963" x="4.57249" y="18.0293" width="6.44972" height="8.47461" filterUnits="userSpaceOnUse" color-interpolation-filters="sRGB">
<feFlood flood-opacity="0" result="BackgroundImageFix"/>
<feBlend mode="normal" in="SourceGraphic" in2="BackgroundImageFix" result="shape"/>
<feGaussianBlur stdDeviation="0.375" result="effect1_foregroundBlur_2_2963"/>
</filter>
<filter id="filter15_f_2_2963" x="10.7416" y="2.32202" width="2.26155" height="3.46875" filterUnits="userSpaceOnUse" color-interpolation-filters="sRGB">
<feFlood flood-opacity="0" result="BackgroundImageFix"/>
<feBlend mode="normal" in="SourceGraphic" in2="BackgroundImageFix" result="shape"/>
<feGaussianBlur stdDeviation="0.25" result="effect1_foregroundBlur_2_2963"/>
</filter>
<radialGradient id="paint0_radial_2_2963" cx="0" cy="0" r="1" gradientUnits="userSpaceOnUse" gradientTransform="translate(1.70802 2.00967) rotate(-91.3334) scale(2.21396 1.59901)">
<stop offset="0.116409" stop-color="#564341"/>
<stop offset="1" stop-color="#3D2323"/>
</radialGradient>
<radialGradient id="paint1_radial_2_2963" cx="0" cy="0" r="1" gradientUnits="userSpaceOnUse" gradientTransform="translate(2.06224 0.438209) rotate(128.9) scale(0.853817 1.15634)">
<stop stop-color="#271213"/>
<stop offset="1" stop-color="#57423F" stop-opacity="0"/>
</radialGradient>
<radialGradient id="paint2_radial_2_2963" cx="0" cy="0" r="1" gradientUnits="userSpaceOnUse" gradientTransform="translate(0.214223 2.41343) rotate(-89.2715) scale(0.86891 0.23987)">
<stop stop-color="#614E4A"/>
<stop offset="1" stop-color="#614E4A" stop-opacity="0"/>
</radialGradient>
<radialGradient id="paint3_radial_2_2963" cx="0" cy="0" r="1" gradientUnits="userSpaceOnUse" gradientTransform="translate(16.6648 6.2497) rotate(151.587) scale(0.541829 0.764813)">
<stop offset="0.100808" stop-color="#68534F"/>
<stop offset="0.684407" stop-color="#41212E"/>
</radialGradient>
<linearGradient id="paint4_linear_2_2963" x1="13.2986" y1="6.28879" x2="16.1609" y2="6.46066" gradientUnits="userSpaceOnUse">
<stop stop-color="#492F32"/>
<stop offset="1" stop-color="#5B4542"/>
</linearGradient>
<radialGradient id="paint5_radial_2_2963" cx="0" cy="0" r="1" gradientUnits="userSpaceOnUse" gradientTransform="translate(12.9861 5.5466) rotate(-3.17982) scale(0.845051 1.03029)">
<stop offset="0.155748" stop-color="#34191A"/>
<stop offset="1" stop-color="#34191A" stop-opacity="0"/>
</radialGradient>
<radialGradient id="paint6_radial_2_2963" cx="0" cy="0" r="1" gradientUnits="userSpaceOnUse" gradientTransform="translate(15.8826 6.73405) rotate(-90) scale(5.1875 1.40625)">
<stop offset="0.163152" stop-color="#614C49"/>
<stop offset="1" stop-color="#614C49" stop-opacity="0"/>
</radialGradient>
<radialGradient id="paint7_radial_2_2963" cx="0" cy="0" r="1" gradientUnits="userSpaceOnUse" gradientTransform="translate(15.0544 5.59342) rotate(90) scale(0.390625 0.609189)">
<stop offset="0.154762" stop-color="#472F2C"/>
<stop offset="1" stop-color="#472F2C" stop-opacity="0"/>
</radialGradient>
<radialGradient id="paint8_radial_2_2963" cx="0" cy="0" r="1" gradientUnits="userSpaceOnUse" gradientTransform="translate(13.8322 4.59071) rotate(-141.016) scale(3.09637 4.70704)">
<stop offset="0.193851" stop-color="#22191D"/>
<stop offset="1" stop-color="#342D30"/>
</radialGradient>
<radialGradient id="paint9_radial_2_2963" cx="0" cy="0" r="1" gradientUnits="userSpaceOnUse" gradientTransform="translate(16.0989 3.07773) rotate(-143.912) scale(1.48549 2.38987)">
<stop stop-color="#564C49"/>
<stop offset="1" stop-color="#564C49" stop-opacity="0"/>
</radialGradient>
<radialGradient id="paint10_radial_2_2963" cx="0" cy="0" r="1" gradientUnits="userSpaceOnUse" gradientTransform="translate(11.2656 6.42148) rotate(15.8324) scale(0.544078 0.267327)">
<stop offset="0.196701" stop-color="#464243"/>
<stop offset="1" stop-color="#464243" stop-opacity="0"/>
</radialGradient>
<radialGradient id="paint11_radial_2_2963" cx="0" cy="0" r="1" gradientUnits="userSpaceOnUse" gradientTransform="translate(13.2031 4.9371) rotate(-166.675) scale(0.915264 2.45234)">
<stop offset="0.353006" stop-color="#363131"/>
<stop offset="0.584383" stop-color="#363131" stop-opacity="0"/>
</radialGradient>
<radialGradient id="paint12_radial_2_2963" cx="0" cy="0" r="1" gradientUnits="userSpaceOnUse" gradientTransform="translate(13.2109 5.42942) rotate(-163.811) scale(0.756563 0.369268)">
<stop offset="0.169715" stop-color="#635251"/>
<stop offset="1" stop-color="#482C2E"/>
</radialGradient>
<linearGradient id="paint13_linear_2_2963" x1="13.2461" y1="5.49582" x2="13.1328" y2="5.51145" gradientUnits="userSpaceOnUse">
<stop stop-color="#48302C"/>
<stop offset="1" stop-color="#48302C" stop-opacity="0"/>
</linearGradient>
<linearGradient id="paint14_linear_2_2963" x1="9.85321" y1="22.8827" x2="7.62482" y2="20.9392" gradientUnits="userSpaceOnUse">
<stop offset="0.210898" stop-color="#8B8290"/>
<stop offset="1" stop-color="#9F9C9F"/>
</linearGradient>
<radialGradient id="paint15_radial_2_2963" cx="0" cy="0" r="1" gradientUnits="userSpaceOnUse" gradientTransform="translate(10.8736 18.0239) rotate(129.852) scale(3.82906 7.77204)">
<stop offset="0.434038" stop-color="#887E8B"/>
<stop offset="1" stop-color="#887E8B" stop-opacity="0"/>
</radialGradient>
<radialGradient id="paint16_radial_2_2963" cx="0" cy="0" r="1" gradientUnits="userSpaceOnUse" gradientTransform="translate(11.1893 19.0388) rotate(143.616) scale(1.10629 6.64432)">
<stop offset="0.0427458" stop-color="#695C75"/>
<stop offset="1" stop-color="#695C75" stop-opacity="0"/>
</radialGradient>
<radialGradient id="paint17_radial_2_2963" cx="0" cy="0" r="1" gradientUnits="userSpaceOnUse" gradientTransform="translate(11.9705 20.8826) rotate(-122.302) scale(6.08182 1.60193)">
<stop offset="0.0699383" stop-color="#897998"/>
<stop offset="1" stop-color="#897998" stop-opacity="0"/>
</radialGradient>
<radialGradient id="paint18_radial_2_2963" cx="0" cy="0" r="1" gradientUnits="userSpaceOnUse" gradientTransform="translate(11.158 16.1794) rotate(90) scale(1.42188 1.38588)">
<stop stop-color="#99919A"/>
<stop offset="1" stop-color="#8C8393" stop-opacity="0"/>
</radialGradient>
<linearGradient id="paint19_linear_2_2963" x1="12.0798" y1="16.0701" x2="12.0798" y2="16.4138" gradientUnits="userSpaceOnUse">
<stop offset="0.136364" stop-color="#817076"/>
<stop offset="1" stop-color="#817076" stop-opacity="0"/>
</linearGradient>
<radialGradient id="paint20_radial_2_2963" cx="0" cy="0" r="1" gradientUnits="userSpaceOnUse" gradientTransform="translate(15.8533 28.0935) rotate(-128.047) scale(0.228173 0.820067)">
<stop stop-color="#A19DA6"/>
<stop offset="1" stop-color="#A19DA6" stop-opacity="0"/>
</radialGradient>
<radialGradient id="paint21_radial_2_2963" cx="0" cy="0" r="1" gradientUnits="userSpaceOnUse" gradientTransform="translate(15.533 19.2263) rotate(-164.129) scale(6.62765 17.0931)">
<stop offset="0.801823" stop-color="#8C8388" stop-opacity="0"/>
<stop offset="1" stop-color="#8C8388"/>
</radialGradient>
<radialGradient id="paint22_radial_2_2963" cx="0" cy="0" r="1" gradientUnits="userSpaceOnUse" gradientTransform="translate(16.9861 29.445) rotate(-86.4965) scale(1.53412 2.46095)">
<stop stop-color="#4A4B75"/>
<stop offset="1" stop-color="#47456F"/>
</radialGradient>
<radialGradient id="paint23_radial_2_2963" cx="0" cy="0" r="1" gradientUnits="userSpaceOnUse" gradientTransform="translate(20.0955 28.5075) rotate(-168.366) scale(1.08478 0.750632)">
<stop stop-color="#63617E"/>
<stop offset="1" stop-color="#63617E" stop-opacity="0"/>
</radialGradient>
<radialGradient id="paint24_radial_2_2963" cx="0" cy="0" r="1" gradientUnits="userSpaceOnUse" gradientTransform="translate(16.0798 29.7418) rotate(-109.058) scale(1.81842 0.89694)">
<stop offset="0.0797402" stop-color="#515279"/>
<stop offset="1" stop-color="#515279" stop-opacity="0"/>
</radialGradient>
<linearGradient id="paint25_linear_2_2963" x1="17.5486" y1="29.6168" x2="17.4626" y2="29.3043" gradientUnits="userSpaceOnUse">
<stop stop-color="#282955"/>
<stop offset="1" stop-color="#282955" stop-opacity="0"/>
</linearGradient>
<linearGradient id="paint26_linear_2_2963" x1="15.5798" y1="29.9918" x2="16.158" y2="29.7731" gradientUnits="userSpaceOnUse">
<stop offset="0.0638969" stop-color="#444571"/>
<stop offset="1" stop-color="#444571" stop-opacity="0"/>
</linearGradient>
<linearGradient id="paint27_linear_2_2963" x1="6.97046" y1="27.9763" x2="6.37671" y2="28.1482" gradientUnits="userSpaceOnUse">
<stop stop-color="#5A577E"/>
<stop offset="1" stop-color="#5A577E" stop-opacity="0"/>
</linearGradient>
<linearGradient id="paint28_linear_2_2963" x1="4.84546" y1="28.0506" x2="5.02515" y2="27.9021" gradientUnits="userSpaceOnUse">
<stop stop-color="#492D85"/>
<stop offset="0.0001" stop-color="#443A80"/>
<stop offset="1" stop-color="#46437B" stop-opacity="0"/>
</linearGradient>
<radialGradient id="paint29_radial_2_2963" cx="0" cy="0" r="1" gradientUnits="userSpaceOnUse" gradientTransform="translate(3.95483 27.117) rotate(-47.1248) scale(1.99789 1.10527)">
<stop stop-color="#60618D"/>
<stop offset="1" stop-color="#46437B" stop-opacity="0"/>
</radialGradient>
<radialGradient id="paint30_radial_2_2963" cx="0" cy="0" r="1" gradientUnits="userSpaceOnUse" gradientTransform="translate(15.4627 12.5114) rotate(49.5599) scale(3.61326 0.800228)">
<stop stop-color="#5C4844"/>
<stop offset="1" stop-color="#5C4844" stop-opacity="0"/>
</radialGradient>
<radialGradient id="paint31_radial_2_2963" cx="0" cy="0" r="1" gradientUnits="userSpaceOnUse" gradientTransform="translate(19.0877 16.2927) rotate(176.424) scale(1.50293 1.62478)">
<stop stop-color="#453837"/>
<stop offset="1" stop-color="#453837" stop-opacity="0"/>
</radialGradient>
<linearGradient id="paint32_linear_2_2963" x1="17.6738" y1="15.5349" x2="19.5566" y2="17.574" gradientUnits="userSpaceOnUse">
<stop stop-color="#443D44"/>
<stop offset="1" stop-color="#443D44" stop-opacity="0"/>
</linearGradient>
<linearGradient id="paint33_linear_2_2963" x1="23.1191" y1="21.8241" x2="21.8691" y2="22.7616" gradientUnits="userSpaceOnUse">
<stop stop-color="#D4C6DC"/>
<stop offset="1" stop-color="#CDB4E3"/>
</linearGradient>
<linearGradient id="paint34_linear_2_2963" x1="26.7831" y1="28.6676" x2="25.0488" y2="26.3238" gradientUnits="userSpaceOnUse">
<stop stop-color="#E82B8E"/>
<stop offset="1" stop-color="#F3386A"/>
</linearGradient>
<linearGradient id="paint35_linear_2_2963" x1="26.7285" y1="27.1051" x2="26.3701" y2="27.3551" gradientUnits="userSpaceOnUse">
<stop stop-color="#F35886"/>
<stop offset="1" stop-color="#F35886" stop-opacity="0"/>
</linearGradient>
<radialGradient id="paint36_radial_2_2963" cx="0" cy="0" r="1" gradientUnits="userSpaceOnUse" gradientTransform="translate(0.839843 0.234375) rotate(90) scale(1.57031 1.46069)">
<stop offset="0.237838" stop-color="#D8CBDD"/>
<stop offset="1" stop-color="#CCAAE9"/>
</radialGradient>
<radialGradient id="paint37_radial_2_2963" cx="0" cy="0" r="1" gradientUnits="userSpaceOnUse" gradientTransform="translate(1.20728 0.585938) rotate(-14.8208) scale(0.48867)">
<stop stop-color="#E9D9F5"/>
<stop offset="1" stop-color="#E9D9F5" stop-opacity="0"/>
</radialGradient>
<radialGradient id="paint38_radial_2_2963" cx="0" cy="0" r="1" gradientUnits="userSpaceOnUse" gradientTransform="translate(9.61309e-09 0.726562) scale(0.50415 0.668771)">
<stop stop-color="#E4D4EA"/>
<stop offset="1" stop-color="#E4D4EA" stop-opacity="0"/>
</radialGradient>
<linearGradient id="paint39_linear_2_2963" x1="18.2597" y1="16.3709" x2="20.0097" y2="18.6677" gradientUnits="userSpaceOnUse">
<stop stop-color="#4D3B5C"/>
<stop offset="1" stop-color="#3F3647"/>
</linearGradient>
<linearGradient id="paint40_linear_2_2963" x1="18.1503" y1="16.4334" x2="18.6738" y2="17.199" gradientUnits="userSpaceOnUse">
<stop offset="0.0976148" stop-color="#62516B"/>
<stop offset="1" stop-color="#483A55" stop-opacity="0"/>
</linearGradient>
<linearGradient id="paint41_linear_2_2963" x1="15.1267" y1="12.8357" x2="14.2517" y2="10.4451" gradientUnits="userSpaceOnUse">
<stop stop-color="#F3563A"/>
<stop offset="0.787267" stop-color="#EA6F3E"/>
</linearGradient>
<radialGradient id="paint42_radial_2_2963" cx="0" cy="0" r="1" gradientUnits="userSpaceOnUse" gradientTransform="translate(12.8455 11.3513) rotate(107.896) scale(6.30507 4.4383)">
<stop offset="0.446153" stop-color="#E9672B"/>
<stop offset="1" stop-color="#D34015"/>
</radialGradient>
<radialGradient id="paint43_radial_2_2963" cx="0" cy="0" r="1" gradientUnits="userSpaceOnUse" gradientTransform="translate(14.5017 9.72632) rotate(137.121) scale(4.17921 7.08912)">
<stop stop-color="#F08337"/>
<stop offset="1" stop-color="#F08337" stop-opacity="0"/>
</radialGradient>
<radialGradient id="paint44_radial_2_2963" cx="0" cy="0" r="1" gradientUnits="userSpaceOnUse" gradientTransform="translate(11.158 11.0388) rotate(102.458) scale(2.75231 1.4881)">
<stop stop-color="#DD3E06"/>
<stop offset="1" stop-color="#DD3E06" stop-opacity="0"/>
</radialGradient>
<radialGradient id="paint45_radial_2_2963" cx="0" cy="0" r="1" gradientUnits="userSpaceOnUse" gradientTransform="translate(11.1269 8.59741) rotate(6.46714) scale(2.73543 1.43274)">
<stop offset="0.213482" stop-color="#FC8C16"/>
<stop offset="1" stop-color="#FC8C16" stop-opacity="0"/>
</radialGradient>
<radialGradient id="paint46_radial_2_2963" cx="0" cy="0" r="1" gradientUnits="userSpaceOnUse" gradientTransform="translate(0.414062 0.398438) rotate(90) scale(0.90625)">
<stop offset="0.256412" stop-color="#4B3838"/>
<stop offset="1" stop-color="#3D1F32"/>
</radialGradient>
<linearGradient id="paint47_linear_2_2963" x1="11.0955" y1="9.11694" x2="9.98608" y2="12.5701" gradientUnits="userSpaceOnUse">
<stop offset="0.118333" stop-color="#F67E18"/>
<stop offset="1" stop-color="#EE462E"/>
</linearGradient>
<radialGradient id="paint48_radial_2_2963" cx="0" cy="0" r="1" gradientUnits="userSpaceOnUse" gradientTransform="translate(12.947 10.5232) rotate(-176.375) scale(1.73002 3.24788)">
<stop offset="0.235291" stop-color="#F27F2F"/>
<stop offset="1" stop-color="#F27F2F" stop-opacity="0"/>
</radialGradient>
<radialGradient id="paint49_radial_2_2963" cx="0" cy="0" r="1" gradientUnits="userSpaceOnUse" gradientTransform="translate(10.9705 11.7576) rotate(-82.6656) scale(3.18229 3.71057)">
<stop offset="0.839103" stop-color="#F07F0F" stop-opacity="0"/>
<stop offset="0.958124" stop-color="#EF7C07"/>
</radialGradient>
<radialGradient id="paint50_radial_2_2963" cx="0" cy="0" r="1" gradientUnits="userSpaceOnUse" gradientTransform="translate(15.3494 5.62085) rotate(180) scale(0.273437 0.53125)">
<stop offset="0.894737" stop-color="#916A62"/>
<stop offset="1" stop-color="#824D44"/>
</radialGradient>
<radialGradient id="paint51_radial_2_2963" cx="0" cy="0" r="1" gradientUnits="userSpaceOnUse" gradientTransform="translate(15.5173 5.64233) rotate(180) scale(0.25 0.541016)">
<stop stop-color="#666361"/>
<stop offset="0.8125" stop-color="#565352"/>
</radialGradient>
<linearGradient id="paint52_linear_2_2963" x1="-0.00680284" y1="0.0496363" x2="0.179464" y2="0.110399" gradientUnits="userSpaceOnUse">
<stop stop-color="white"/>
<stop offset="1" stop-color="white" stop-opacity="0"/>
</linearGradient>
<linearGradient id="paint53_linear_2_2963" x1="15.7517" y1="27.4138" x2="11.1267" y2="17.2732" gradientUnits="userSpaceOnUse">
<stop stop-color="#94899E"/>
<stop offset="1" stop-color="#94899E" stop-opacity="0"/>
</linearGradient>
<linearGradient id="paint54_linear_2_2963" x1="5.60763" y1="25.323" x2="9.9185" y2="19.951" gradientUnits="userSpaceOnUse">
<stop stop-color="#A39FA7"/>
<stop offset="1" stop-color="#A39FA7" stop-opacity="0"/>
</linearGradient>
<linearGradient id="paint55_linear_2_2963" x1="12.0492" y1="4.92311" x2="11.6048" y2="2.02398" gradientUnits="userSpaceOnUse">
<stop offset="0.421481" stop-color="#454143"/>
<stop offset="1" stop-color="#454143" stop-opacity="0"/>
</linearGradient>
</defs>
</svg>
