<svg width="32" height="32" viewBox="0 0 32 32" fill="none" xmlns="http://www.w3.org/2000/svg">
<g filter="url(#filter0_i_3987_24798)">
<path fill-rule="evenodd" clip-rule="evenodd" d="M25.0398 14.548C25.3075 13.9999 25.4477 13.388 25.4477 12.7506C25.4477 12.162 25.3266 11.6097 25.1094 11.1062H25.1161C25.0148 10.8782 24.9009 10.6628 24.7619 10.46L24.7593 10.4561C24.3259 9.79322 24.0964 9.01562 24.0964 8.22528V8.21253C24.0964 5.91798 22.2353 4.05685 19.9408 4.05685C19.7113 4.05685 19.4946 3.95487 19.3671 3.76366C18.615 2.71836 17.3784 2.03 15.9889 2.03C14.5994 2.03 13.3629 2.71836 12.6108 3.76366C12.4833 3.94212 12.2666 4.05685 12.0372 4.05685C12.0014 4.05685 11.9657 4.05731 11.9301 4.05821C9.685 4.11505 7.8815 5.95379 7.8815 8.21253V8.22528C7.8815 9.01562 7.65204 9.79322 7.21863 10.4561L7.21574 10.4607C6.78416 11.1226 6.5304 11.8985 6.5304 12.7506C6.5304 13.4008 6.68337 13.9999 6.93832 14.548C7.02755 14.7265 7.02755 14.9432 6.93832 15.1217C6.68337 15.6571 6.5304 16.2562 6.5304 16.8936C6.5304 19.1371 8.34054 20.9473 10.5841 20.9473H21.394C23.6375 20.9473 25.4477 19.1371 25.4477 16.8936C25.4477 16.2562 25.2947 15.6571 25.0398 15.1217C24.9505 14.9432 24.9505 14.7265 25.0398 14.548ZM9.59651 11.1818H9.581L11.0909 14.1489C11.2462 17.679 12.6239 14.1489 15.9889 14.1489C19.3539 14.1489 20.8213 18.0782 20.9766 14.548L22.4074 10.5208C22.3397 8.95281 21.2034 8.84275 20.9766 8.84275H16.9206C15.3189 8.84275 13.8075 8.05878 12.9033 6.73502C12.7483 6.51654 12.4254 6.55509 12.3221 6.79928L12.2187 7.04347C11.9345 7.75033 11.392 8.29011 10.7203 8.59856C10.7009 8.60499 10.6783 8.61463 10.6557 8.62426C10.6331 8.6339 10.6105 8.64354 10.5911 8.64997C10.294 8.80419 9.59651 9.26686 9.57067 10.4621L9.58359 10.8477L9.59651 11.1818Z" fill="url(#paint0_linear_3987_24798)"/>
<path fill-rule="evenodd" clip-rule="evenodd" d="M25.0398 14.548C25.3075 13.9999 25.4477 13.388 25.4477 12.7506C25.4477 12.162 25.3266 11.6097 25.1094 11.1062H25.1161C25.0148 10.8782 24.9009 10.6628 24.7619 10.46L24.7593 10.4561C24.3259 9.79322 24.0964 9.01562 24.0964 8.22528V8.21253C24.0964 5.91798 22.2353 4.05685 19.9408 4.05685C19.7113 4.05685 19.4946 3.95487 19.3671 3.76366C18.615 2.71836 17.3784 2.03 15.9889 2.03C14.5994 2.03 13.3629 2.71836 12.6108 3.76366C12.4833 3.94212 12.2666 4.05685 12.0372 4.05685C12.0014 4.05685 11.9657 4.05731 11.9301 4.05821C9.685 4.11505 7.8815 5.95379 7.8815 8.21253V8.22528C7.8815 9.01562 7.65204 9.79322 7.21863 10.4561L7.21574 10.4607C6.78416 11.1226 6.5304 11.8985 6.5304 12.7506C6.5304 13.4008 6.68337 13.9999 6.93832 14.548C7.02755 14.7265 7.02755 14.9432 6.93832 15.1217C6.68337 15.6571 6.5304 16.2562 6.5304 16.8936C6.5304 19.1371 8.34054 20.9473 10.5841 20.9473H21.394C23.6375 20.9473 25.4477 19.1371 25.4477 16.8936C25.4477 16.2562 25.2947 15.6571 25.0398 15.1217C24.9505 14.9432 24.9505 14.7265 25.0398 14.548ZM9.59651 11.1818H9.581L11.0909 14.1489C11.2462 17.679 12.6239 14.1489 15.9889 14.1489C19.3539 14.1489 20.8213 18.0782 20.9766 14.548L22.4074 10.5208C22.3397 8.95281 21.2034 8.84275 20.9766 8.84275H16.9206C15.3189 8.84275 13.8075 8.05878 12.9033 6.73502C12.7483 6.51654 12.4254 6.55509 12.3221 6.79928L12.2187 7.04347C11.9345 7.75033 11.392 8.29011 10.7203 8.59856C10.7009 8.60499 10.6783 8.61463 10.6557 8.62426C10.6331 8.6339 10.6105 8.64354 10.5911 8.64997C10.294 8.80419 9.59651 9.26686 9.57067 10.4621L9.58359 10.8477L9.59651 11.1818Z" fill="url(#paint1_radial_3987_24798)"/>
<path fill-rule="evenodd" clip-rule="evenodd" d="M25.0398 14.548C25.3075 13.9999 25.4477 13.388 25.4477 12.7506C25.4477 12.162 25.3266 11.6097 25.1094 11.1062H25.1161C25.0148 10.8782 24.9009 10.6628 24.7619 10.46L24.7593 10.4561C24.3259 9.79322 24.0964 9.01562 24.0964 8.22528V8.21253C24.0964 5.91798 22.2353 4.05685 19.9408 4.05685C19.7113 4.05685 19.4946 3.95487 19.3671 3.76366C18.615 2.71836 17.3784 2.03 15.9889 2.03C14.5994 2.03 13.3629 2.71836 12.6108 3.76366C12.4833 3.94212 12.2666 4.05685 12.0372 4.05685C12.0014 4.05685 11.9657 4.05731 11.9301 4.05821C9.685 4.11505 7.8815 5.95379 7.8815 8.21253V8.22528C7.8815 9.01562 7.65204 9.79322 7.21863 10.4561L7.21574 10.4607C6.78416 11.1226 6.5304 11.8985 6.5304 12.7506C6.5304 13.4008 6.68337 13.9999 6.93832 14.548C7.02755 14.7265 7.02755 14.9432 6.93832 15.1217C6.68337 15.6571 6.5304 16.2562 6.5304 16.8936C6.5304 19.1371 8.34054 20.9473 10.5841 20.9473H21.394C23.6375 20.9473 25.4477 19.1371 25.4477 16.8936C25.4477 16.2562 25.2947 15.6571 25.0398 15.1217C24.9505 14.9432 24.9505 14.7265 25.0398 14.548ZM9.59651 11.1818H9.581L11.0909 14.1489C11.2462 17.679 12.6239 14.1489 15.9889 14.1489C19.3539 14.1489 20.8213 18.0782 20.9766 14.548L22.4074 10.5208C22.3397 8.95281 21.2034 8.84275 20.9766 8.84275H16.9206C15.3189 8.84275 13.8075 8.05878 12.9033 6.73502C12.7483 6.51654 12.4254 6.55509 12.3221 6.79928L12.2187 7.04347C11.9345 7.75033 11.392 8.29011 10.7203 8.59856C10.7009 8.60499 10.6783 8.61463 10.6557 8.62426C10.6331 8.6339 10.6105 8.64354 10.5911 8.64997C10.294 8.80419 9.59651 9.26686 9.57067 10.4621L9.58359 10.8477L9.59651 11.1818Z" fill="url(#paint2_radial_3987_24798)"/>
<path fill-rule="evenodd" clip-rule="evenodd" d="M25.0398 14.548C25.3075 13.9999 25.4477 13.388 25.4477 12.7506C25.4477 12.162 25.3266 11.6097 25.1094 11.1062H25.1161C25.0148 10.8782 24.9009 10.6628 24.7619 10.46L24.7593 10.4561C24.3259 9.79322 24.0964 9.01562 24.0964 8.22528V8.21253C24.0964 5.91798 22.2353 4.05685 19.9408 4.05685C19.7113 4.05685 19.4946 3.95487 19.3671 3.76366C18.615 2.71836 17.3784 2.03 15.9889 2.03C14.5994 2.03 13.3629 2.71836 12.6108 3.76366C12.4833 3.94212 12.2666 4.05685 12.0372 4.05685C12.0014 4.05685 11.9657 4.05731 11.9301 4.05821C9.685 4.11505 7.8815 5.95379 7.8815 8.21253V8.22528C7.8815 9.01562 7.65204 9.79322 7.21863 10.4561L7.21574 10.4607C6.78416 11.1226 6.5304 11.8985 6.5304 12.7506C6.5304 13.4008 6.68337 13.9999 6.93832 14.548C7.02755 14.7265 7.02755 14.9432 6.93832 15.1217C6.68337 15.6571 6.5304 16.2562 6.5304 16.8936C6.5304 19.1371 8.34054 20.9473 10.5841 20.9473H21.394C23.6375 20.9473 25.4477 19.1371 25.4477 16.8936C25.4477 16.2562 25.2947 15.6571 25.0398 15.1217C24.9505 14.9432 24.9505 14.7265 25.0398 14.548ZM9.59651 11.1818H9.581L11.0909 14.1489C11.2462 17.679 12.6239 14.1489 15.9889 14.1489C19.3539 14.1489 20.8213 18.0782 20.9766 14.548L22.4074 10.5208C22.3397 8.95281 21.2034 8.84275 20.9766 8.84275H16.9206C15.3189 8.84275 13.8075 8.05878 12.9033 6.73502C12.7483 6.51654 12.4254 6.55509 12.3221 6.79928L12.2187 7.04347C11.9345 7.75033 11.392 8.29011 10.7203 8.59856C10.7009 8.60499 10.6783 8.61463 10.6557 8.62426C10.6331 8.6339 10.6105 8.64354 10.5911 8.64997C10.294 8.80419 9.59651 9.26686 9.57067 10.4621L9.58359 10.8477L9.59651 11.1818Z" fill="url(#paint3_radial_3987_24798)"/>
<path fill-rule="evenodd" clip-rule="evenodd" d="M25.0398 14.548C25.3075 13.9999 25.4477 13.388 25.4477 12.7506C25.4477 12.162 25.3266 11.6097 25.1094 11.1062H25.1161C25.0148 10.8782 24.9009 10.6628 24.7619 10.46L24.7593 10.4561C24.3259 9.79322 24.0964 9.01562 24.0964 8.22528V8.21253C24.0964 5.91798 22.2353 4.05685 19.9408 4.05685C19.7113 4.05685 19.4946 3.95487 19.3671 3.76366C18.615 2.71836 17.3784 2.03 15.9889 2.03C14.5994 2.03 13.3629 2.71836 12.6108 3.76366C12.4833 3.94212 12.2666 4.05685 12.0372 4.05685C12.0014 4.05685 11.9657 4.05731 11.9301 4.05821C9.685 4.11505 7.8815 5.95379 7.8815 8.21253V8.22528C7.8815 9.01562 7.65204 9.79322 7.21863 10.4561L7.21574 10.4607C6.78416 11.1226 6.5304 11.8985 6.5304 12.7506C6.5304 13.4008 6.68337 13.9999 6.93832 14.548C7.02755 14.7265 7.02755 14.9432 6.93832 15.1217C6.68337 15.6571 6.5304 16.2562 6.5304 16.8936C6.5304 19.1371 8.34054 20.9473 10.5841 20.9473H21.394C23.6375 20.9473 25.4477 19.1371 25.4477 16.8936C25.4477 16.2562 25.2947 15.6571 25.0398 15.1217C24.9505 14.9432 24.9505 14.7265 25.0398 14.548ZM9.59651 11.1818H9.581L11.0909 14.1489C11.2462 17.679 12.6239 14.1489 15.9889 14.1489C19.3539 14.1489 20.8213 18.0782 20.9766 14.548L22.4074 10.5208C22.3397 8.95281 21.2034 8.84275 20.9766 8.84275H16.9206C15.3189 8.84275 13.8075 8.05878 12.9033 6.73502C12.7483 6.51654 12.4254 6.55509 12.3221 6.79928L12.2187 7.04347C11.9345 7.75033 11.392 8.29011 10.7203 8.59856C10.7009 8.60499 10.6783 8.61463 10.6557 8.62426C10.6331 8.6339 10.6105 8.64354 10.5911 8.64997C10.294 8.80419 9.59651 9.26686 9.57067 10.4621L9.58359 10.8477L9.59651 11.1818Z" fill="url(#paint4_radial_3987_24798)"/>
<path fill-rule="evenodd" clip-rule="evenodd" d="M25.0398 14.548C25.3075 13.9999 25.4477 13.388 25.4477 12.7506C25.4477 12.162 25.3266 11.6097 25.1094 11.1062H25.1161C25.0148 10.8782 24.9009 10.6628 24.7619 10.46L24.7593 10.4561C24.3259 9.79322 24.0964 9.01562 24.0964 8.22528V8.21253C24.0964 5.91798 22.2353 4.05685 19.9408 4.05685C19.7113 4.05685 19.4946 3.95487 19.3671 3.76366C18.615 2.71836 17.3784 2.03 15.9889 2.03C14.5994 2.03 13.3629 2.71836 12.6108 3.76366C12.4833 3.94212 12.2666 4.05685 12.0372 4.05685C12.0014 4.05685 11.9657 4.05731 11.9301 4.05821C9.685 4.11505 7.8815 5.95379 7.8815 8.21253V8.22528C7.8815 9.01562 7.65204 9.79322 7.21863 10.4561L7.21574 10.4607C6.78416 11.1226 6.5304 11.8985 6.5304 12.7506C6.5304 13.4008 6.68337 13.9999 6.93832 14.548C7.02755 14.7265 7.02755 14.9432 6.93832 15.1217C6.68337 15.6571 6.5304 16.2562 6.5304 16.8936C6.5304 19.1371 8.34054 20.9473 10.5841 20.9473H21.394C23.6375 20.9473 25.4477 19.1371 25.4477 16.8936C25.4477 16.2562 25.2947 15.6571 25.0398 15.1217C24.9505 14.9432 24.9505 14.7265 25.0398 14.548ZM9.59651 11.1818H9.581L11.0909 14.1489C11.2462 17.679 12.6239 14.1489 15.9889 14.1489C19.3539 14.1489 20.8213 18.0782 20.9766 14.548L22.4074 10.5208C22.3397 8.95281 21.2034 8.84275 20.9766 8.84275H16.9206C15.3189 8.84275 13.8075 8.05878 12.9033 6.73502C12.7483 6.51654 12.4254 6.55509 12.3221 6.79928L12.2187 7.04347C11.9345 7.75033 11.392 8.29011 10.7203 8.59856C10.7009 8.60499 10.6783 8.61463 10.6557 8.62426C10.6331 8.6339 10.6105 8.64354 10.5911 8.64997C10.294 8.80419 9.59651 9.26686 9.57067 10.4621L9.58359 10.8477L9.59651 11.1818Z" fill="url(#paint5_radial_3987_24798)"/>
<path fill-rule="evenodd" clip-rule="evenodd" d="M25.0398 14.548C25.3075 13.9999 25.4477 13.388 25.4477 12.7506C25.4477 12.162 25.3266 11.6097 25.1094 11.1062H25.1161C25.0148 10.8782 24.9009 10.6628 24.7619 10.46L24.7593 10.4561C24.3259 9.79322 24.0964 9.01562 24.0964 8.22528V8.21253C24.0964 5.91798 22.2353 4.05685 19.9408 4.05685C19.7113 4.05685 19.4946 3.95487 19.3671 3.76366C18.615 2.71836 17.3784 2.03 15.9889 2.03C14.5994 2.03 13.3629 2.71836 12.6108 3.76366C12.4833 3.94212 12.2666 4.05685 12.0372 4.05685C12.0014 4.05685 11.9657 4.05731 11.9301 4.05821C9.685 4.11505 7.8815 5.95379 7.8815 8.21253V8.22528C7.8815 9.01562 7.65204 9.79322 7.21863 10.4561L7.21574 10.4607C6.78416 11.1226 6.5304 11.8985 6.5304 12.7506C6.5304 13.4008 6.68337 13.9999 6.93832 14.548C7.02755 14.7265 7.02755 14.9432 6.93832 15.1217C6.68337 15.6571 6.5304 16.2562 6.5304 16.8936C6.5304 19.1371 8.34054 20.9473 10.5841 20.9473H21.394C23.6375 20.9473 25.4477 19.1371 25.4477 16.8936C25.4477 16.2562 25.2947 15.6571 25.0398 15.1217C24.9505 14.9432 24.9505 14.7265 25.0398 14.548ZM9.59651 11.1818H9.581L11.0909 14.1489C11.2462 17.679 12.6239 14.1489 15.9889 14.1489C19.3539 14.1489 20.8213 18.0782 20.9766 14.548L22.4074 10.5208C22.3397 8.95281 21.2034 8.84275 20.9766 8.84275H16.9206C15.3189 8.84275 13.8075 8.05878 12.9033 6.73502C12.7483 6.51654 12.4254 6.55509 12.3221 6.79928L12.2187 7.04347C11.9345 7.75033 11.392 8.29011 10.7203 8.59856C10.7009 8.60499 10.6783 8.61463 10.6557 8.62426C10.6331 8.6339 10.6105 8.64354 10.5911 8.64997C10.294 8.80419 9.59651 9.26686 9.57067 10.4621L9.58359 10.8477L9.59651 11.1818Z" fill="url(#paint6_radial_3987_24798)"/>
<path fill-rule="evenodd" clip-rule="evenodd" d="M25.0398 14.548C25.3075 13.9999 25.4477 13.388 25.4477 12.7506C25.4477 12.162 25.3266 11.6097 25.1094 11.1062H25.1161C25.0148 10.8782 24.9009 10.6628 24.7619 10.46L24.7593 10.4561C24.3259 9.79322 24.0964 9.01562 24.0964 8.22528V8.21253C24.0964 5.91798 22.2353 4.05685 19.9408 4.05685C19.7113 4.05685 19.4946 3.95487 19.3671 3.76366C18.615 2.71836 17.3784 2.03 15.9889 2.03C14.5994 2.03 13.3629 2.71836 12.6108 3.76366C12.4833 3.94212 12.2666 4.05685 12.0372 4.05685C12.0014 4.05685 11.9657 4.05731 11.9301 4.05821C9.685 4.11505 7.8815 5.95379 7.8815 8.21253V8.22528C7.8815 9.01562 7.65204 9.79322 7.21863 10.4561L7.21574 10.4607C6.78416 11.1226 6.5304 11.8985 6.5304 12.7506C6.5304 13.4008 6.68337 13.9999 6.93832 14.548C7.02755 14.7265 7.02755 14.9432 6.93832 15.1217C6.68337 15.6571 6.5304 16.2562 6.5304 16.8936C6.5304 19.1371 8.34054 20.9473 10.5841 20.9473H21.394C23.6375 20.9473 25.4477 19.1371 25.4477 16.8936C25.4477 16.2562 25.2947 15.6571 25.0398 15.1217C24.9505 14.9432 24.9505 14.7265 25.0398 14.548ZM9.59651 11.1818H9.581L11.0909 14.1489C11.2462 17.679 12.6239 14.1489 15.9889 14.1489C19.3539 14.1489 20.8213 18.0782 20.9766 14.548L22.4074 10.5208C22.3397 8.95281 21.2034 8.84275 20.9766 8.84275H16.9206C15.3189 8.84275 13.8075 8.05878 12.9033 6.73502C12.7483 6.51654 12.4254 6.55509 12.3221 6.79928L12.2187 7.04347C11.9345 7.75033 11.392 8.29011 10.7203 8.59856C10.7009 8.60499 10.6783 8.61463 10.6557 8.62426C10.6331 8.6339 10.6105 8.64354 10.5911 8.64997C10.294 8.80419 9.59651 9.26686 9.57067 10.4621L9.58359 10.8477L9.59651 11.1818Z" fill="url(#paint7_radial_3987_24798)"/>
<path fill-rule="evenodd" clip-rule="evenodd" d="M25.0398 14.548C25.3075 13.9999 25.4477 13.388 25.4477 12.7506C25.4477 12.162 25.3266 11.6097 25.1094 11.1062H25.1161C25.0148 10.8782 24.9009 10.6628 24.7619 10.46L24.7593 10.4561C24.3259 9.79322 24.0964 9.01562 24.0964 8.22528V8.21253C24.0964 5.91798 22.2353 4.05685 19.9408 4.05685C19.7113 4.05685 19.4946 3.95487 19.3671 3.76366C18.615 2.71836 17.3784 2.03 15.9889 2.03C14.5994 2.03 13.3629 2.71836 12.6108 3.76366C12.4833 3.94212 12.2666 4.05685 12.0372 4.05685C12.0014 4.05685 11.9657 4.05731 11.9301 4.05821C9.685 4.11505 7.8815 5.95379 7.8815 8.21253V8.22528C7.8815 9.01562 7.65204 9.79322 7.21863 10.4561L7.21574 10.4607C6.78416 11.1226 6.5304 11.8985 6.5304 12.7506C6.5304 13.4008 6.68337 13.9999 6.93832 14.548C7.02755 14.7265 7.02755 14.9432 6.93832 15.1217C6.68337 15.6571 6.5304 16.2562 6.5304 16.8936C6.5304 19.1371 8.34054 20.9473 10.5841 20.9473H21.394C23.6375 20.9473 25.4477 19.1371 25.4477 16.8936C25.4477 16.2562 25.2947 15.6571 25.0398 15.1217C24.9505 14.9432 24.9505 14.7265 25.0398 14.548ZM9.59651 11.1818H9.581L11.0909 14.1489C11.2462 17.679 12.6239 14.1489 15.9889 14.1489C19.3539 14.1489 20.8213 18.0782 20.9766 14.548L22.4074 10.5208C22.3397 8.95281 21.2034 8.84275 20.9766 8.84275H16.9206C15.3189 8.84275 13.8075 8.05878 12.9033 6.73502C12.7483 6.51654 12.4254 6.55509 12.3221 6.79928L12.2187 7.04347C11.9345 7.75033 11.392 8.29011 10.7203 8.59856C10.7009 8.60499 10.6783 8.61463 10.6557 8.62426C10.6331 8.6339 10.6105 8.64354 10.5911 8.64997C10.294 8.80419 9.59651 9.26686 9.57067 10.4621L9.58359 10.8477L9.59651 11.1818Z" fill="url(#paint8_radial_3987_24798)"/>
<path fill-rule="evenodd" clip-rule="evenodd" d="M25.0398 14.548C25.3075 13.9999 25.4477 13.388 25.4477 12.7506C25.4477 12.162 25.3266 11.6097 25.1094 11.1062H25.1161C25.0148 10.8782 24.9009 10.6628 24.7619 10.46L24.7593 10.4561C24.3259 9.79322 24.0964 9.01562 24.0964 8.22528V8.21253C24.0964 5.91798 22.2353 4.05685 19.9408 4.05685C19.7113 4.05685 19.4946 3.95487 19.3671 3.76366C18.615 2.71836 17.3784 2.03 15.9889 2.03C14.5994 2.03 13.3629 2.71836 12.6108 3.76366C12.4833 3.94212 12.2666 4.05685 12.0372 4.05685C12.0014 4.05685 11.9657 4.05731 11.9301 4.05821C9.685 4.11505 7.8815 5.95379 7.8815 8.21253V8.22528C7.8815 9.01562 7.65204 9.79322 7.21863 10.4561L7.21574 10.4607C6.78416 11.1226 6.5304 11.8985 6.5304 12.7506C6.5304 13.4008 6.68337 13.9999 6.93832 14.548C7.02755 14.7265 7.02755 14.9432 6.93832 15.1217C6.68337 15.6571 6.5304 16.2562 6.5304 16.8936C6.5304 19.1371 8.34054 20.9473 10.5841 20.9473H21.394C23.6375 20.9473 25.4477 19.1371 25.4477 16.8936C25.4477 16.2562 25.2947 15.6571 25.0398 15.1217C24.9505 14.9432 24.9505 14.7265 25.0398 14.548ZM9.59651 11.1818H9.581L11.0909 14.1489C11.2462 17.679 12.6239 14.1489 15.9889 14.1489C19.3539 14.1489 20.8213 18.0782 20.9766 14.548L22.4074 10.5208C22.3397 8.95281 21.2034 8.84275 20.9766 8.84275H16.9206C15.3189 8.84275 13.8075 8.05878 12.9033 6.73502C12.7483 6.51654 12.4254 6.55509 12.3221 6.79928L12.2187 7.04347C11.9345 7.75033 11.392 8.29011 10.7203 8.59856C10.7009 8.60499 10.6783 8.61463 10.6557 8.62426C10.6331 8.6339 10.6105 8.64354 10.5911 8.64997C10.294 8.80419 9.59651 9.26686 9.57067 10.4621L9.58359 10.8477L9.59651 11.1818Z" fill="url(#paint9_radial_3987_24798)"/>
<path fill-rule="evenodd" clip-rule="evenodd" d="M25.0398 14.548C25.3075 13.9999 25.4477 13.388 25.4477 12.7506C25.4477 12.162 25.3266 11.6097 25.1094 11.1062H25.1161C25.0148 10.8782 24.9009 10.6628 24.7619 10.46L24.7593 10.4561C24.3259 9.79322 24.0964 9.01562 24.0964 8.22528V8.21253C24.0964 5.91798 22.2353 4.05685 19.9408 4.05685C19.7113 4.05685 19.4946 3.95487 19.3671 3.76366C18.615 2.71836 17.3784 2.03 15.9889 2.03C14.5994 2.03 13.3629 2.71836 12.6108 3.76366C12.4833 3.94212 12.2666 4.05685 12.0372 4.05685C12.0014 4.05685 11.9657 4.05731 11.9301 4.05821C9.685 4.11505 7.8815 5.95379 7.8815 8.21253V8.22528C7.8815 9.01562 7.65204 9.79322 7.21863 10.4561L7.21574 10.4607C6.78416 11.1226 6.5304 11.8985 6.5304 12.7506C6.5304 13.4008 6.68337 13.9999 6.93832 14.548C7.02755 14.7265 7.02755 14.9432 6.93832 15.1217C6.68337 15.6571 6.5304 16.2562 6.5304 16.8936C6.5304 19.1371 8.34054 20.9473 10.5841 20.9473H21.394C23.6375 20.9473 25.4477 19.1371 25.4477 16.8936C25.4477 16.2562 25.2947 15.6571 25.0398 15.1217C24.9505 14.9432 24.9505 14.7265 25.0398 14.548ZM9.59651 11.1818H9.581L11.0909 14.1489C11.2462 17.679 12.6239 14.1489 15.9889 14.1489C19.3539 14.1489 20.8213 18.0782 20.9766 14.548L22.4074 10.5208C22.3397 8.95281 21.2034 8.84275 20.9766 8.84275H16.9206C15.3189 8.84275 13.8075 8.05878 12.9033 6.73502C12.7483 6.51654 12.4254 6.55509 12.3221 6.79928L12.2187 7.04347C11.9345 7.75033 11.392 8.29011 10.7203 8.59856C10.7009 8.60499 10.6783 8.61463 10.6557 8.62426C10.6331 8.6339 10.6105 8.64354 10.5911 8.64997C10.294 8.80419 9.59651 9.26686 9.57067 10.4621L9.58359 10.8477L9.59651 11.1818Z" fill="url(#paint10_radial_3987_24798)"/>
</g>
<g filter="url(#filter1_i_3987_24798)">
<path d="M10.0869 14.7992C11.2063 14.7992 12.1138 13.8917 12.1138 12.7723C12.1138 11.6529 11.2063 10.7455 10.0869 10.7455C8.96751 10.7455 8.06006 11.6529 8.06006 12.7723C8.06006 13.8917 8.96751 14.7992 10.0869 14.7992Z" fill="url(#paint11_linear_3987_24798)"/>
</g>
<g filter="url(#filter2_i_3987_24798)">
<path d="M22.0696 14.7992C23.189 14.7992 24.0964 13.8917 24.0964 12.7723C24.0964 11.6529 23.189 10.7455 22.0696 10.7455C20.9502 10.7455 20.0427 11.6529 20.0427 12.7723C20.0427 13.8917 20.9502 14.7992 22.0696 14.7992Z" fill="url(#paint12_radial_3987_24798)"/>
<path d="M22.0696 14.7992C23.189 14.7992 24.0964 13.8917 24.0964 12.7723C24.0964 11.6529 23.189 10.7455 22.0696 10.7455C20.9502 10.7455 20.0427 11.6529 20.0427 12.7723C20.0427 13.8917 20.9502 14.7992 22.0696 14.7992Z" fill="url(#paint13_radial_3987_24798)"/>
</g>
<g filter="url(#filter3_f_3987_24798)">
<path d="M22.0697 14.1253C22.8169 14.1253 23.4226 13.5195 23.4226 12.7723C23.4226 12.0251 22.8169 11.4193 22.0697 11.4193C21.3224 11.4193 20.7167 12.0251 20.7167 12.7723C20.7167 13.5195 21.3224 14.1253 22.0697 14.1253Z" fill="#845F59"/>
<path d="M22.0697 14.1253C22.8169 14.1253 23.4226 13.5195 23.4226 12.7723C23.4226 12.0251 22.8169 11.4193 22.0697 11.4193C21.3224 11.4193 20.7167 12.0251 20.7167 12.7723C20.7167 13.5195 21.3224 14.1253 22.0697 14.1253Z" fill="url(#paint14_radial_3987_24798)"/>
</g>
<g filter="url(#filter4_f_3987_24798)">
<path d="M10.1112 14.1253C10.8584 14.1253 11.4641 13.5195 11.4641 12.7723C11.4641 12.0251 10.8584 11.4193 10.1112 11.4193C9.36393 11.4193 8.75818 12.0251 8.75818 12.7723C8.75818 13.5195 9.36393 14.1253 10.1112 14.1253Z" fill="#5F3C45"/>
<path d="M10.1112 14.1253C10.8584 14.1253 11.4641 13.5195 11.4641 12.7723C11.4641 12.0251 10.8584 11.4193 10.1112 11.4193C9.36393 11.4193 8.75818 12.0251 8.75818 12.7723C8.75818 13.5195 9.36393 14.1253 10.1112 14.1253Z" fill="url(#paint15_radial_3987_24798)"/>
</g>
<g filter="url(#filter5_i_3987_24798)">
<path d="M9.581 11.1818H9.59651L9.5836 10.8477L9.57068 10.4621C9.59651 9.26686 10.294 8.80419 10.5911 8.64997C10.6105 8.64354 10.6331 8.6339 10.6557 8.62426C10.6783 8.61462 10.7009 8.60499 10.7203 8.59856C11.392 8.29011 11.9345 7.75033 12.2187 7.04347L12.3221 6.79928C12.4254 6.55509 12.7483 6.51654 12.9033 6.73502C13.8075 8.05878 15.3189 8.84275 16.9206 8.84275H20.9766C21.2034 8.84275 22.3398 8.9528 22.4074 10.5208L22.2578 14.3917C22.1025 17.9218 19.3458 20.2923 15.9808 20.2923C12.6158 20.2923 9.85905 17.9218 9.70374 14.3917L9.581 11.1818Z" fill="url(#paint16_radial_3987_24798)"/>
<path d="M9.581 11.1818H9.59651L9.5836 10.8477L9.57068 10.4621C9.59651 9.26686 10.294 8.80419 10.5911 8.64997C10.6105 8.64354 10.6331 8.6339 10.6557 8.62426C10.6783 8.61462 10.7009 8.60499 10.7203 8.59856C11.392 8.29011 11.9345 7.75033 12.2187 7.04347L12.3221 6.79928C12.4254 6.55509 12.7483 6.51654 12.9033 6.73502C13.8075 8.05878 15.3189 8.84275 16.9206 8.84275H20.9766C21.2034 8.84275 22.3398 8.9528 22.4074 10.5208L22.2578 14.3917C22.1025 17.9218 19.3458 20.2923 15.9808 20.2923C12.6158 20.2923 9.85905 17.9218 9.70374 14.3917L9.581 11.1818Z" fill="url(#paint17_radial_3987_24798)"/>
<path d="M9.581 11.1818H9.59651L9.5836 10.8477L9.57068 10.4621C9.59651 9.26686 10.294 8.80419 10.5911 8.64997C10.6105 8.64354 10.6331 8.6339 10.6557 8.62426C10.6783 8.61462 10.7009 8.60499 10.7203 8.59856C11.392 8.29011 11.9345 7.75033 12.2187 7.04347L12.3221 6.79928C12.4254 6.55509 12.7483 6.51654 12.9033 6.73502C13.8075 8.05878 15.3189 8.84275 16.9206 8.84275H20.9766C21.2034 8.84275 22.3398 8.9528 22.4074 10.5208L22.2578 14.3917C22.1025 17.9218 19.3458 20.2923 15.9808 20.2923C12.6158 20.2923 9.85905 17.9218 9.70374 14.3917L9.581 11.1818Z" fill="url(#paint18_radial_3987_24798)"/>
<path d="M9.581 11.1818H9.59651L9.5836 10.8477L9.57068 10.4621C9.59651 9.26686 10.294 8.80419 10.5911 8.64997C10.6105 8.64354 10.6331 8.6339 10.6557 8.62426C10.6783 8.61462 10.7009 8.60499 10.7203 8.59856C11.392 8.29011 11.9345 7.75033 12.2187 7.04347L12.3221 6.79928C12.4254 6.55509 12.7483 6.51654 12.9033 6.73502C13.8075 8.05878 15.3189 8.84275 16.9206 8.84275H20.9766C21.2034 8.84275 22.3398 8.9528 22.4074 10.5208L22.2578 14.3917C22.1025 17.9218 19.3458 20.2923 15.9808 20.2923C12.6158 20.2923 9.85905 17.9218 9.70374 14.3917L9.581 11.1818Z" fill="url(#paint19_radial_3987_24798)"/>
<path d="M9.581 11.1818H9.59651L9.5836 10.8477L9.57068 10.4621C9.59651 9.26686 10.294 8.80419 10.5911 8.64997C10.6105 8.64354 10.6331 8.6339 10.6557 8.62426C10.6783 8.61462 10.7009 8.60499 10.7203 8.59856C11.392 8.29011 11.9345 7.75033 12.2187 7.04347L12.3221 6.79928C12.4254 6.55509 12.7483 6.51654 12.9033 6.73502C13.8075 8.05878 15.3189 8.84275 16.9206 8.84275H20.9766C21.2034 8.84275 22.3398 8.9528 22.4074 10.5208L22.2578 14.3917C22.1025 17.9218 19.3458 20.2923 15.9808 20.2923C12.6158 20.2923 9.85905 17.9218 9.70374 14.3917L9.581 11.1818Z" fill="url(#paint20_radial_3987_24798)"/>
<path d="M9.581 11.1818H9.59651L9.5836 10.8477L9.57068 10.4621C9.59651 9.26686 10.294 8.80419 10.5911 8.64997C10.6105 8.64354 10.6331 8.6339 10.6557 8.62426C10.6783 8.61462 10.7009 8.60499 10.7203 8.59856C11.392 8.29011 11.9345 7.75033 12.2187 7.04347L12.3221 6.79928C12.4254 6.55509 12.7483 6.51654 12.9033 6.73502C13.8075 8.05878 15.3189 8.84275 16.9206 8.84275H20.9766C21.2034 8.84275 22.3398 8.9528 22.4074 10.5208L22.2578 14.3917C22.1025 17.9218 19.3458 20.2923 15.9808 20.2923C12.6158 20.2923 9.85905 17.9218 9.70374 14.3917L9.581 11.1818Z" fill="url(#paint21_radial_3987_24798)"/>
<path d="M9.581 11.1818H9.59651L9.5836 10.8477L9.57068 10.4621C9.59651 9.26686 10.294 8.80419 10.5911 8.64997C10.6105 8.64354 10.6331 8.6339 10.6557 8.62426C10.6783 8.61462 10.7009 8.60499 10.7203 8.59856C11.392 8.29011 11.9345 7.75033 12.2187 7.04347L12.3221 6.79928C12.4254 6.55509 12.7483 6.51654 12.9033 6.73502C13.8075 8.05878 15.3189 8.84275 16.9206 8.84275H20.9766C21.2034 8.84275 22.3398 8.9528 22.4074 10.5208L22.2578 14.3917C22.1025 17.9218 19.3458 20.2923 15.9808 20.2923C12.6158 20.2923 9.85905 17.9218 9.70374 14.3917L9.581 11.1818Z" fill="url(#paint22_radial_3987_24798)"/>
<path d="M9.581 11.1818H9.59651L9.5836 10.8477L9.57068 10.4621C9.59651 9.26686 10.294 8.80419 10.5911 8.64997C10.6105 8.64354 10.6331 8.6339 10.6557 8.62426C10.6783 8.61462 10.7009 8.60499 10.7203 8.59856C11.392 8.29011 11.9345 7.75033 12.2187 7.04347L12.3221 6.79928C12.4254 6.55509 12.7483 6.51654 12.9033 6.73502C13.8075 8.05878 15.3189 8.84275 16.9206 8.84275H20.9766C21.2034 8.84275 22.3398 8.9528 22.4074 10.5208L22.2578 14.3917C22.1025 17.9218 19.3458 20.2923 15.9808 20.2923C12.6158 20.2923 9.85905 17.9218 9.70374 14.3917L9.581 11.1818Z" fill="url(#paint23_radial_3987_24798)"/>
<path d="M9.581 11.1818H9.59651L9.5836 10.8477L9.57068 10.4621C9.59651 9.26686 10.294 8.80419 10.5911 8.64997C10.6105 8.64354 10.6331 8.6339 10.6557 8.62426C10.6783 8.61462 10.7009 8.60499 10.7203 8.59856C11.392 8.29011 11.9345 7.75033 12.2187 7.04347L12.3221 6.79928C12.4254 6.55509 12.7483 6.51654 12.9033 6.73502C13.8075 8.05878 15.3189 8.84275 16.9206 8.84275H20.9766C21.2034 8.84275 22.3398 8.9528 22.4074 10.5208L22.2578 14.3917C22.1025 17.9218 19.3458 20.2923 15.9808 20.2923C12.6158 20.2923 9.85905 17.9218 9.70374 14.3917L9.581 11.1818Z" fill="url(#paint24_radial_3987_24798)"/>
</g>
<path d="M9.581 11.1818H9.59651L9.5836 10.8477L9.57068 10.4621C9.59651 9.26686 10.294 8.80419 10.5911 8.64997C10.6105 8.64354 10.6331 8.6339 10.6557 8.62426C10.6783 8.61462 10.7009 8.60499 10.7203 8.59856C11.392 8.29011 11.9345 7.75033 12.2187 7.04347L12.3221 6.79928C12.4254 6.55509 12.7483 6.51654 12.9033 6.73502C13.8075 8.05878 15.3189 8.84275 16.9206 8.84275H20.9766C21.2034 8.84275 22.3398 8.9528 22.4074 10.5208L22.2578 14.3917C22.1025 17.9218 19.3458 20.2923 15.9808 20.2923C12.6158 20.2923 9.85905 17.9218 9.70374 14.3917L9.581 11.1818Z" fill="url(#paint25_radial_3987_24798)"/>
<path d="M9.581 11.1818H9.59651L9.5836 10.8477L9.57068 10.4621C9.59651 9.26686 10.294 8.80419 10.5911 8.64997C10.6105 8.64354 10.6331 8.6339 10.6557 8.62426C10.6783 8.61462 10.7009 8.60499 10.7203 8.59856C11.392 8.29011 11.9345 7.75033 12.2187 7.04347L12.3221 6.79928C12.4254 6.55509 12.7483 6.51654 12.9033 6.73502C13.8075 8.05878 15.3189 8.84275 16.9206 8.84275H20.9766C21.2034 8.84275 22.3398 8.9528 22.4074 10.5208L22.2578 14.3917C22.1025 17.9218 19.3458 20.2923 15.9808 20.2923C12.6158 20.2923 9.85905 17.9218 9.70374 14.3917L9.581 11.1818Z" fill="url(#paint26_radial_3987_24798)"/>
<g filter="url(#filter6_f_3987_24798)">
<path d="M15.4946 12.4918L14.6336 14.6331C14.4969 15.0736 14.8248 15.5141 15.2894 15.5141H16.2799C16.7444 15.5141 17.0723 15.0668 16.9357 14.6331L16.2662 12.4918C16.1228 12.0174 15.6449 12.0174 15.4946 12.4918Z" fill="#70404A"/>
</g>
<g filter="url(#filter7_f_3987_24798)">
<path d="M15.5074 12.3173L14.8379 14.4587C14.7013 14.8992 15.0292 15.3397 15.4937 15.3397H16.4842C16.9488 15.3397 17.2767 14.8924 17.14 14.4587L16.4706 12.3173C16.3271 11.843 15.6577 11.843 15.5074 12.3173Z" fill="#8A6058"/>
<path d="M15.5074 12.3173L14.8379 14.4587C14.7013 14.8992 15.0292 15.3397 15.4937 15.3397H16.4842C16.9488 15.3397 17.2767 14.8924 17.14 14.4587L16.4706 12.3173C16.3271 11.843 15.6577 11.843 15.5074 12.3173Z" fill="url(#paint27_radial_3987_24798)"/>
<path d="M15.5074 12.3173L14.8379 14.4587C14.7013 14.8992 15.0292 15.3397 15.4937 15.3397H16.4842C16.9488 15.3397 17.2767 14.8924 17.14 14.4587L16.4706 12.3173C16.3271 11.843 15.6577 11.843 15.5074 12.3173Z" fill="url(#paint28_linear_3987_24798)"/>
<path d="M15.5074 12.3173L14.8379 14.4587C14.7013 14.8992 15.0292 15.3397 15.4937 15.3397H16.4842C16.9488 15.3397 17.2767 14.8924 17.14 14.4587L16.4706 12.3173C16.3271 11.843 15.6577 11.843 15.5074 12.3173Z" fill="url(#paint29_linear_3987_24798)"/>
<path d="M15.5074 12.3173L14.8379 14.4587C14.7013 14.8992 15.0292 15.3397 15.4937 15.3397H16.4842C16.9488 15.3397 17.2767 14.8924 17.14 14.4587L16.4706 12.3173C16.3271 11.843 15.6577 11.843 15.5074 12.3173Z" fill="url(#paint30_radial_3987_24798)"/>
</g>
<path d="M15.5074 12.3173L14.8379 14.4587C14.7013 14.8992 15.0292 15.3397 15.4937 15.3397H16.4842C16.9488 15.3397 17.2767 14.8924 17.14 14.4587L16.4706 12.3173C16.3271 11.843 15.6577 11.843 15.5074 12.3173Z" fill="url(#paint31_linear_3987_24798)"/>
<path d="M15.5074 12.3173L14.8379 14.4587C14.7013 14.8992 15.0292 15.3397 15.4937 15.3397H16.4842C16.9488 15.3397 17.2767 14.8924 17.14 14.4587L16.4706 12.3173C16.3271 11.843 15.6577 11.843 15.5074 12.3173Z" fill="url(#paint32_radial_3987_24798)"/>
<g filter="url(#filter8_i_3987_24798)">
<path d="M17.4277 12.0555C17.762 11.4675 18.2703 11.0031 19.3642 11.0031C19.8432 11.0031 20.305 11.1358 20.7156 11.4675C21.0542 11.7411 21.0088 12.0912 20.7466 12.2223L20.0462 12.6222C19.2251 12.3568 18.3172 12.3209 17.4277 12.0555Z" fill="#2D2B2E"/>
</g>
<g filter="url(#filter9_i_3987_24798)">
<path d="M14.5507 12.0555C14.2164 11.4675 13.7081 11.0031 12.6142 11.0031C12.1352 11.0031 11.6734 11.1358 11.2628 11.4675C10.9242 11.7411 10.9696 12.0912 11.2318 12.2223L11.9322 12.6222C12.7533 12.3568 13.6612 12.3209 14.5507 12.0555Z" fill="#272528"/>
</g>
<path d="M19.0008 11.077C19.8235 11.077 20.5184 11.6442 20.7075 12.4106C20.7637 12.6304 20.5951 12.8399 20.3702 12.8399H17.5599C17.381 12.8399 17.2379 12.6764 17.2737 12.4975C17.4321 11.6902 18.1424 11.077 19.0008 11.077Z" fill="white"/>
<path d="M18.7401 11.4193C19.3635 11.4193 19.8643 11.9252 19.8643 12.5435C19.8643 12.6457 19.8489 12.7479 19.8234 12.8399H17.6517C17.6262 12.7428 17.6108 12.6457 17.6108 12.5435C17.6108 11.9252 18.1167 11.4193 18.7401 11.4193Z" fill="url(#paint33_radial_3987_24798)"/>
<path d="M18.0963 12.5435C18.0963 12.1858 18.3825 11.8997 18.7401 11.8997C19.0978 11.8997 19.384 12.1858 19.384 12.5435C19.384 12.6508 19.3584 12.753 19.3124 12.8399H18.173C18.1219 12.753 18.0963 12.6508 18.0963 12.5435Z" fill="black"/>
<g filter="url(#filter10_f_3987_24798)">
<path d="M18.6574 11.657C18.7375 11.7641 18.5701 11.8947 18.3798 12.037C18.1894 12.1793 18.0482 12.2795 17.9681 12.1724C17.888 12.0652 17.9774 11.863 18.1678 11.7207C18.3581 11.5784 18.5774 11.5499 18.6574 11.657Z" fill="#C7A7A3"/>
<path d="M18.6574 11.657C18.7375 11.7641 18.5701 11.8947 18.3798 12.037C18.1894 12.1793 18.0482 12.2795 17.9681 12.1724C17.888 12.0652 17.9774 11.863 18.1678 11.7207C18.3581 11.5784 18.5774 11.5499 18.6574 11.657Z" fill="url(#paint34_radial_3987_24798)"/>
</g>
<g filter="url(#filter11_f_3987_24798)">
<path d="M19.7414 12.3955C19.6999 12.1049 19.5299 11.8858 19.45 11.8126L19.1227 12.1719L19.2704 12.4593L19.7414 12.3955Z" fill="url(#paint35_linear_3987_24798)"/>
</g>
<path d="M12.9773 11.077C12.1547 11.077 11.4597 11.6442 11.2707 12.4106C11.2145 12.6304 11.3831 12.8399 11.6079 12.8399H14.4183C14.5972 12.8399 14.7402 12.6764 14.7045 12.4975C14.5461 11.6902 13.8307 11.077 12.9773 11.077Z" fill="white"/>
<path d="M13.2379 11.4193C12.6145 11.4193 12.1138 11.9252 12.1138 12.5435C12.1138 12.6457 12.1291 12.7479 12.1546 12.8399H14.3263C14.3519 12.7428 14.3672 12.6457 14.3672 12.5435C14.3621 11.9252 13.8613 11.4193 13.2379 11.4193Z" fill="url(#paint36_radial_3987_24798)"/>
<path d="M13.8817 12.5435C13.8817 12.1858 13.5955 11.8997 13.2378 11.8997C12.8801 11.8997 12.594 12.1858 12.594 12.5435C12.594 12.6508 12.6195 12.753 12.6655 12.8399H13.805C13.851 12.753 13.8817 12.6508 13.8817 12.5435Z" fill="black"/>
<g filter="url(#filter12_f_3987_24798)">
<path d="M14.2649 12.4114C14.2649 12.0482 13.9695 11.806 13.8896 11.7328L13.5264 12.0841L13.7499 12.5392L14.2649 12.4114Z" fill="url(#paint37_linear_3987_24798)"/>
</g>
<g filter="url(#filter13_f_3987_24798)">
<ellipse cx="12.8987" cy="11.8997" rx="0.490755" ry="0.248368" transform="rotate(-27.914 12.8987 11.8997)" fill="#C7A7A3" fill-opacity="0.9"/>
<ellipse cx="12.8987" cy="11.8997" rx="0.490755" ry="0.248368" transform="rotate(-27.914 12.8987 11.8997)" fill="url(#paint38_radial_3987_24798)"/>
</g>
<g filter="url(#filter14_if_3987_24798)">
<path d="M9.60374 5.22926C10.3163 4.47445 11.6648 4.47324 12.2878 4.58585L12.7863 6.21155C12.4678 6.16229 12.184 6.27489 11.9452 6.50714C11.3803 8.09484 9.43929 8.97032 8.53938 9.2096C8.35248 7.33054 8.67641 6.21155 9.60374 5.22926Z" fill="#2A191E"/>
<path d="M9.60374 5.22926C10.3163 4.47445 11.6648 4.47324 12.2878 4.58585L12.7863 6.21155C12.4678 6.16229 12.184 6.27489 11.9452 6.50714C11.3803 8.09484 9.43929 8.97032 8.53938 9.2096C8.35248 7.33054 8.67641 6.21155 9.60374 5.22926Z" fill="url(#paint39_radial_3987_24798)"/>
</g>
<g filter="url(#filter15_if_3987_24798)">
<path d="M15.2291 2.95899C13.8023 2.64399 12.5212 4.06742 12.3734 4.59525C13.6983 9.06066 17.0504 8.81606 20.3595 8.44838C22.3404 8.22828 22.5553 9.13103 22.7242 9.56737C22.7242 4.61361 18.5117 3.68368 15.2651 2.96695L15.2291 2.95899Z" fill="#2F1920"/>
<path d="M15.2291 2.95899C13.8023 2.64399 12.5212 4.06742 12.3734 4.59525C13.6983 9.06066 17.0504 8.81606 20.3595 8.44838C22.3404 8.22828 22.5553 9.13103 22.7242 9.56737C22.7242 4.61361 18.5117 3.68368 15.2651 2.96695L15.2291 2.95899Z" fill="url(#paint40_radial_3987_24798)"/>
<path d="M15.2291 2.95899C13.8023 2.64399 12.5212 4.06742 12.3734 4.59525C13.6983 9.06066 17.0504 8.81606 20.3595 8.44838C22.3404 8.22828 22.5553 9.13103 22.7242 9.56737C22.7242 4.61361 18.5117 3.68368 15.2651 2.96695L15.2291 2.95899Z" fill="url(#paint41_radial_3987_24798)"/>
</g>
<g filter="url(#filter16_f_3987_24798)">
<path d="M12.3472 4.53191C12.3765 4.83805 12.6428 5.98871 13.0333 6.68544" stroke="url(#paint42_linear_3987_24798)" stroke-width="0.2" stroke-linecap="round"/>
</g>
<g filter="url(#filter17_f_3987_24798)">
<path d="M19.0201 7.50589L17.2246 7.83617C16.692 7.93414 16.2009 7.52519 16.2009 6.98365C16.2009 6.50492 16.5884 6.11684 17.0671 6.11684H20.0156C21.7595 6.11684 22.3367 7.87432 22.4073 8.47487C21.4917 7.64025 20.2385 7.28175 19.0201 7.50589Z" fill="#4B4648"/>
</g>
<g filter="url(#filter18_i_3987_24798)">
<path d="M11.3878 10.1537C11.3389 9.96717 11.4508 9.77635 11.6374 9.72782L13.7238 9.18537C13.91 9.13697 14.1002 9.24844 14.149 9.43452C14.1978 9.62109 14.086 9.81192 13.8993 9.86045L11.8129 10.4029C11.6268 10.4513 11.4366 10.3398 11.3878 10.1537Z" fill="#352827"/>
</g>
<g filter="url(#filter19_i_3987_24798)">
<path d="M20.7113 10.1537C20.7602 9.96717 20.6484 9.77635 20.4617 9.72782L18.3753 9.18537C18.1892 9.13697 17.9989 9.24844 17.9502 9.43452C17.9013 9.62109 18.0131 9.81192 18.1998 9.86045L20.2862 10.4029C20.4724 10.4513 20.6626 10.3398 20.7113 10.1537Z" fill="#352827"/>
</g>
<g filter="url(#filter20_f_3987_24798)">
<path d="M11.8358 9.97328L13.8529 9.43958" stroke="#473C3C" stroke-width="0.2" stroke-linecap="round"/>
</g>
<g filter="url(#filter21_f_3987_24798)">
<path d="M20.2634 9.97328L18.2463 9.43958" stroke="#473C3C" stroke-width="0.2" stroke-linecap="round"/>
</g>
<path d="M15.989 19.4204C16.7804 19.4204 17.4219 18.732 17.4219 17.8827C17.4219 17.0335 16.7804 16.345 15.989 16.345C15.1977 16.345 14.5562 17.0335 14.5562 17.8827C14.5562 18.732 15.1977 19.4204 15.989 19.4204Z" fill="#87004D"/>
<path d="M25.5 29.97H6.5C5.67 29.97 5 29.3 5 28.47V24.14C5 21.84 6.87 19.97 9.17 19.97H22.83C25.13 19.97 27 21.84 27 24.14V28.47C27 29.3 26.33 29.97 25.5 29.97Z" fill="url(#paint43_radial_3987_24798)"/>
<path d="M25.5 29.97H6.5C5.67 29.97 5 29.3 5 28.47V24.14C5 21.84 6.87 19.97 9.17 19.97H22.83C25.13 19.97 27 21.84 27 24.14V28.47C27 29.3 26.33 29.97 25.5 29.97Z" fill="url(#paint44_radial_3987_24798)"/>
<path d="M25.5 29.97H6.5C5.67 29.97 5 29.3 5 28.47V24.14C5 21.84 6.87 19.97 9.17 19.97H22.83C25.13 19.97 27 21.84 27 24.14V28.47C27 29.3 26.33 29.97 25.5 29.97Z" fill="url(#paint45_radial_3987_24798)"/>
<path d="M6.81006 20.54L9.08996 21.6L11.2 17.08L8.97 16.03L6.81006 20.54Z" fill="url(#paint46_radial_3987_24798)"/>
<path d="M11.5598 16.0684L26.9669 23.2458C28.728 24.0725 29.4928 26.1693 28.6676 27.9334C27.8424 29.6975 25.7492 30.4636 23.9881 29.637L8.58104 22.4495C8.07787 22.2176 7.85648 21.6128 8.098 21.1087L10.2214 16.5422C10.4528 16.0482 11.0566 15.8264 11.5598 16.0684Z" fill="url(#paint47_radial_3987_24798)"/>
<path d="M11.5598 16.0684L26.9669 23.2458C28.728 24.0725 29.4928 26.1693 28.6676 27.9334C27.8424 29.6975 25.7492 30.4636 23.9881 29.637L8.58104 22.4495C8.07787 22.2176 7.85648 21.6128 8.098 21.1087L10.2214 16.5422C10.4528 16.0482 11.0566 15.8264 11.5598 16.0684Z" fill="url(#paint48_radial_3987_24798)"/>
<path d="M11.5598 16.0684L26.9669 23.2458C28.728 24.0725 29.4928 26.1693 28.6676 27.9334C27.8424 29.6975 25.7492 30.4636 23.9881 29.637L8.58104 22.4495C8.07787 22.2176 7.85648 21.6128 8.098 21.1087L10.2214 16.5422C10.4528 16.0482 11.0566 15.8264 11.5598 16.0684Z" fill="url(#paint49_radial_3987_24798)"/>
<path d="M11.5598 16.0684L26.9669 23.2458C28.728 24.0725 29.4928 26.1693 28.6676 27.9334C27.8424 29.6975 25.7492 30.4636 23.9881 29.637L8.58104 22.4495C8.07787 22.2176 7.85648 21.6128 8.098 21.1087L10.2214 16.5422C10.4528 16.0482 11.0566 15.8264 11.5598 16.0684Z" fill="url(#paint50_linear_3987_24798)"/>
<path d="M11.5598 16.0684L26.9669 23.2458C28.728 24.0725 29.4928 26.1693 28.6676 27.9334C27.8424 29.6975 25.7492 30.4636 23.9881 29.637L8.58104 22.4495C8.07787 22.2176 7.85648 21.6128 8.098 21.1087L10.2214 16.5422C10.4528 16.0482 11.0566 15.8264 11.5598 16.0684Z" fill="url(#paint51_radial_3987_24798)"/>
<path d="M11.5598 16.0684L26.9669 23.2458C28.728 24.0725 29.4928 26.1693 28.6676 27.9334C27.8424 29.6975 25.7492 30.4636 23.9881 29.637L8.58104 22.4495C8.07787 22.2176 7.85648 21.6128 8.098 21.1087L10.2214 16.5422C10.4528 16.0482 11.0566 15.8264 11.5598 16.0684Z" fill="url(#paint52_linear_3987_24798)"/>
<path d="M11.5598 16.0684L26.9669 23.2458C28.728 24.0725 29.4928 26.1693 28.6676 27.9334C27.8424 29.6975 25.7492 30.4636 23.9881 29.637L8.58104 22.4495C8.07787 22.2176 7.85648 21.6128 8.098 21.1087L10.2214 16.5422C10.4528 16.0482 11.0566 15.8264 11.5598 16.0684Z" fill="url(#paint53_radial_3987_24798)"/>
<path d="M25.19 20.54L22.9099 21.6L20.7999 17.08L23.06 16.01L25.19 20.54Z" fill="url(#paint54_radial_3987_24798)"/>
<path d="M25.19 20.54L22.9099 21.6L20.7999 17.08L23.06 16.01L25.19 20.54Z" fill="url(#paint55_linear_3987_24798)"/>
<path d="M20.4402 16.0685L5.03313 23.241C3.27203 24.0682 2.50721 26.1665 3.33241 27.9319C4.15761 29.6973 6.2508 30.464 8.01189 29.6368L23.419 22.4541C23.9221 22.2221 24.1435 21.6168 23.902 21.1124L21.7786 16.5426C21.5472 16.0483 20.9434 15.8263 20.4402 16.0685Z" fill="url(#paint56_radial_3987_24798)"/>
<path d="M20.4402 16.0685L5.03313 23.241C3.27203 24.0682 2.50721 26.1665 3.33241 27.9319C4.15761 29.6973 6.2508 30.464 8.01189 29.6368L23.419 22.4541C23.9221 22.2221 24.1435 21.6168 23.902 21.1124L21.7786 16.5426C21.5472 16.0483 20.9434 15.8263 20.4402 16.0685Z" fill="url(#paint57_linear_3987_24798)"/>
<path d="M20.4402 16.0685L5.03313 23.241C3.27203 24.0682 2.50721 26.1665 3.33241 27.9319C4.15761 29.6973 6.2508 30.464 8.01189 29.6368L23.419 22.4541C23.9221 22.2221 24.1435 21.6168 23.902 21.1124L21.7786 16.5426C21.5472 16.0483 20.9434 15.8263 20.4402 16.0685Z" fill="url(#paint58_linear_3987_24798)"/>
<path d="M20.4402 16.0685L5.03313 23.241C3.27203 24.0682 2.50721 26.1665 3.33241 27.9319C4.15761 29.6973 6.2508 30.464 8.01189 29.6368L23.419 22.4541C23.9221 22.2221 24.1435 21.6168 23.902 21.1124L21.7786 16.5426C21.5472 16.0483 20.9434 15.8263 20.4402 16.0685Z" fill="url(#paint59_linear_3987_24798)"/>
<path d="M24.75 19.7732C24.514 19.3442 24.6712 18.8051 25.1007 18.5701L27.7089 17.1425C28.1444 16.9042 28.6906 17.064 28.9289 17.4994C29.1687 17.9376 29.0052 18.4874 28.5648 18.7232L25.9436 20.127C25.516 20.356 24.9838 20.1983 24.75 19.7732Z" fill="url(#paint60_radial_3987_24798)"/>
<path d="M24.75 19.7732C24.514 19.3442 24.6712 18.8051 25.1007 18.5701L27.7089 17.1425C28.1444 16.9042 28.6906 17.064 28.9289 17.4994C29.1687 17.9376 29.0052 18.4874 28.5648 18.7232L25.9436 20.127C25.516 20.356 24.9838 20.1983 24.75 19.7732Z" fill="url(#paint61_linear_3987_24798)"/>
<path d="M24.75 19.7732C24.514 19.3442 24.6712 18.8051 25.1007 18.5701L27.7089 17.1425C28.1444 16.9042 28.6906 17.064 28.9289 17.4994C29.1687 17.9376 29.0052 18.4874 28.5648 18.7232L25.9436 20.127C25.516 20.356 24.9838 20.1983 24.75 19.7732Z" fill="url(#paint62_linear_3987_24798)"/>
<path d="M7.24574 19.7429C7.48169 19.3139 7.32457 18.7748 6.89505 18.5397L4.34224 17.1425C3.90683 16.9042 3.36068 17.0639 3.12238 17.4994C2.88251 17.9376 3.0461 18.4873 3.48654 18.7232L6.05214 20.0968C6.47976 20.3257 7.012 20.1679 7.24574 19.7429Z" fill="url(#paint63_radial_3987_24798)"/>
<path d="M7.24574 19.7429C7.48169 19.3139 7.32457 18.7748 6.89505 18.5397L4.34224 17.1425C3.90683 16.9042 3.36068 17.0639 3.12238 17.4994C2.88251 17.9376 3.0461 18.4873 3.48654 18.7232L6.05214 20.0968C6.47976 20.3257 7.012 20.1679 7.24574 19.7429Z" fill="url(#paint64_radial_3987_24798)"/>
<path d="M23 16.04L25.12 20.58L25.84 20.2C26.58 19.81 27.11 19.12 27.28 18.3L27.57 16.91C27.65 16.49 27.86 16.11 28.16 15.81L29.67 14.51C29.88 14.33 30 14.07 30 13.8C30 13.09 29.24 12.64 28.62 12.98L23 16.04Z" fill="url(#paint65_radial_3987_24798)"/>
<path d="M23 16.04L25.12 20.58L25.84 20.2C26.58 19.81 27.11 19.12 27.28 18.3L27.57 16.91C27.65 16.49 27.86 16.11 28.16 15.81L29.67 14.51C29.88 14.33 30 14.07 30 13.8C30 13.09 29.24 12.64 28.62 12.98L23 16.04Z" fill="url(#paint66_radial_3987_24798)"/>
<path d="M23 16.04L25.12 20.58L25.84 20.2C26.58 19.81 27.11 19.12 27.28 18.3L27.57 16.91C27.65 16.49 27.86 16.11 28.16 15.81L29.67 14.51C29.88 14.33 30 14.07 30 13.8C30 13.09 29.24 12.64 28.62 12.98L23 16.04Z" fill="url(#paint67_linear_3987_24798)"/>
<path d="M23 16.04L25.12 20.58L25.84 20.2C26.58 19.81 27.11 19.12 27.28 18.3L27.57 16.91C27.65 16.49 27.86 16.11 28.16 15.81L29.67 14.51C29.88 14.33 30 14.07 30 13.8C30 13.09 29.24 12.64 28.62 12.98L23 16.04Z" fill="url(#paint68_radial_3987_24798)"/>
<g filter="url(#filter22_i_3987_24798)">
<path d="M9 16.04L6.88 20.58L6.16 20.2C5.42 19.81 4.89 19.12 4.72 18.3L4.43 16.91C4.35 16.49 4.14 16.11 3.84 15.81L2.33 14.51C2.12 14.33 2 14.07 2 13.8C2 13.09 2.76 12.64 3.38 12.98L9 16.04Z" fill="url(#paint69_linear_3987_24798)"/>
<path d="M9 16.04L6.88 20.58L6.16 20.2C5.42 19.81 4.89 19.12 4.72 18.3L4.43 16.91C4.35 16.49 4.14 16.11 3.84 15.81L2.33 14.51C2.12 14.33 2 14.07 2 13.8C2 13.09 2.76 12.64 3.38 12.98L9 16.04Z" fill="url(#paint70_radial_3987_24798)"/>
</g>
<path d="M9 16.04L6.88 20.58L6.16 20.2C5.42 19.81 4.89 19.12 4.72 18.3L4.43 16.91C4.35 16.49 4.14 16.11 3.84 15.81L2.33 14.51C2.12 14.33 2 14.07 2 13.8C2 13.09 2.76 12.64 3.38 12.98L9 16.04Z" fill="url(#paint71_radial_3987_24798)"/>
<g filter="url(#filter23_f_3987_24798)">
<path d="M26.6912 15.5926C27.2185 14.7464 28.4858 13.9281 29.1528 13.6049C29.2055 13.5794 29.268 13.5942 29.3056 13.6392C29.3566 13.7004 29.3398 13.7935 29.272 13.8354C27.2126 15.108 27.3971 15.6197 26.627 16.9322C26.2725 17.5365 25.4505 18.0446 25.0708 18.2157L24.5974 17.3173C25.1268 17.0365 26.0597 16.6059 26.6912 15.5926Z" fill="url(#paint72_linear_3987_24798)"/>
</g>
<defs>
<filter id="filter0_i_3987_24798" x="6.5304" y="1.28" width="19.1672" height="19.6673" filterUnits="userSpaceOnUse" color-interpolation-filters="sRGB">
<feFlood flood-opacity="0" result="BackgroundImageFix"/>
<feBlend mode="normal" in="SourceGraphic" in2="BackgroundImageFix" result="shape"/>
<feColorMatrix in="SourceAlpha" type="matrix" values="0 0 0 0 0 0 0 0 0 0 0 0 0 0 0 0 0 0 127 0" result="hardAlpha"/>
<feOffset dx="0.25" dy="-0.75"/>
<feGaussianBlur stdDeviation="0.75"/>
<feComposite in2="hardAlpha" operator="arithmetic" k2="-1" k3="1"/>
<feColorMatrix type="matrix" values="0 0 0 0 0.121569 0 0 0 0 0.0705882 0 0 0 0 0.164706 0 0 0 1 0"/>
<feBlend mode="normal" in2="shape" result="effect1_innerShadow_3987_24798"/>
</filter>
<filter id="filter1_i_3987_24798" x="8.06006" y="10.7455" width="4.20371" height="4.0537" filterUnits="userSpaceOnUse" color-interpolation-filters="sRGB">
<feFlood flood-opacity="0" result="BackgroundImageFix"/>
<feBlend mode="normal" in="SourceGraphic" in2="BackgroundImageFix" result="shape"/>
<feColorMatrix in="SourceAlpha" type="matrix" values="0 0 0 0 0 0 0 0 0 0 0 0 0 0 0 0 0 0 127 0" result="hardAlpha"/>
<feOffset dx="0.15"/>
<feGaussianBlur stdDeviation="0.25"/>
<feComposite in2="hardAlpha" operator="arithmetic" k2="-1" k3="1"/>
<feColorMatrix type="matrix" values="0 0 0 0 0.509804 0 0 0 0 0.376471 0 0 0 0 0.34902 0 0 0 1 0"/>
<feBlend mode="normal" in2="shape" result="effect1_innerShadow_3987_24798"/>
</filter>
<filter id="filter2_i_3987_24798" x="20.0427" y="10.4955" width="4.05371" height="4.3037" filterUnits="userSpaceOnUse" color-interpolation-filters="sRGB">
<feFlood flood-opacity="0" result="BackgroundImageFix"/>
<feBlend mode="normal" in="SourceGraphic" in2="BackgroundImageFix" result="shape"/>
<feColorMatrix in="SourceAlpha" type="matrix" values="0 0 0 0 0 0 0 0 0 0 0 0 0 0 0 0 0 0 127 0" result="hardAlpha"/>
<feOffset dy="-0.25"/>
<feGaussianBlur stdDeviation="0.25"/>
<feComposite in2="hardAlpha" operator="arithmetic" k2="-1" k3="1"/>
<feColorMatrix type="matrix" values="0 0 0 0 0.431373 0 0 0 0 0.243137 0 0 0 0 0.282353 0 0 0 1 0"/>
<feBlend mode="normal" in2="shape" result="effect1_innerShadow_3987_24798"/>
</filter>
<filter id="filter3_f_3987_24798" x="20.2167" y="10.9193" width="3.70593" height="3.70596" filterUnits="userSpaceOnUse" color-interpolation-filters="sRGB">
<feFlood flood-opacity="0" result="BackgroundImageFix"/>
<feBlend mode="normal" in="SourceGraphic" in2="BackgroundImageFix" result="shape"/>
<feGaussianBlur stdDeviation="0.25" result="effect1_foregroundBlur_3987_24798"/>
</filter>
<filter id="filter4_f_3987_24798" x="8.50818" y="11.1693" width="3.20593" height="3.20596" filterUnits="userSpaceOnUse" color-interpolation-filters="sRGB">
<feFlood flood-opacity="0" result="BackgroundImageFix"/>
<feBlend mode="normal" in="SourceGraphic" in2="BackgroundImageFix" result="shape"/>
<feGaussianBlur stdDeviation="0.125" result="effect1_foregroundBlur_3987_24798"/>
</filter>
<filter id="filter5_i_3987_24798" x="9.57068" y="6.59152" width="12.8367" height="13.9007" filterUnits="userSpaceOnUse" color-interpolation-filters="sRGB">
<feFlood flood-opacity="0" result="BackgroundImageFix"/>
<feBlend mode="normal" in="SourceGraphic" in2="BackgroundImageFix" result="shape"/>
<feColorMatrix in="SourceAlpha" type="matrix" values="0 0 0 0 0 0 0 0 0 0 0 0 0 0 0 0 0 0 127 0" result="hardAlpha"/>
<feOffset dy="0.2"/>
<feGaussianBlur stdDeviation="0.1"/>
<feComposite in2="hardAlpha" operator="arithmetic" k2="-1" k3="1"/>
<feColorMatrix type="matrix" values="0 0 0 0 0.407843 0 0 0 0 0.223529 0 0 0 0 0.25098 0 0 0 1 0"/>
<feBlend mode="normal" in2="shape" result="effect1_innerShadow_3987_24798"/>
</filter>
<filter id="filter6_f_3987_24798" x="14.1023" y="11.636" width="3.36462" height="4.37809" filterUnits="userSpaceOnUse" color-interpolation-filters="sRGB">
<feFlood flood-opacity="0" result="BackgroundImageFix"/>
<feBlend mode="normal" in="SourceGraphic" in2="BackgroundImageFix" result="shape"/>
<feGaussianBlur stdDeviation="0.25" result="effect1_foregroundBlur_3987_24798"/>
</filter>
<filter id="filter7_f_3987_24798" x="14.5566" y="11.7116" width="2.86462" height="3.87809" filterUnits="userSpaceOnUse" color-interpolation-filters="sRGB">
<feFlood flood-opacity="0" result="BackgroundImageFix"/>
<feBlend mode="normal" in="SourceGraphic" in2="BackgroundImageFix" result="shape"/>
<feGaussianBlur stdDeviation="0.125" result="effect1_foregroundBlur_3987_24798"/>
</filter>
<filter id="filter8_i_3987_24798" x="17.2277" y="11.0031" width="3.72869" height="1.61917" filterUnits="userSpaceOnUse" color-interpolation-filters="sRGB">
<feFlood flood-opacity="0" result="BackgroundImageFix"/>
<feBlend mode="normal" in="SourceGraphic" in2="BackgroundImageFix" result="shape"/>
<feColorMatrix in="SourceAlpha" type="matrix" values="0 0 0 0 0 0 0 0 0 0 0 0 0 0 0 0 0 0 127 0" result="hardAlpha"/>
<feOffset dx="-0.2"/>
<feGaussianBlur stdDeviation="0.2"/>
<feComposite in2="hardAlpha" operator="arithmetic" k2="-1" k3="1"/>
<feColorMatrix type="matrix" values="0 0 0 0 0.0941176 0 0 0 0 0.0666667 0 0 0 0 0.117647 0 0 0 1 0"/>
<feBlend mode="normal" in2="shape" result="effect1_innerShadow_3987_24798"/>
</filter>
<filter id="filter9_i_3987_24798" x="11.022" y="11.0031" width="3.72869" height="1.61917" filterUnits="userSpaceOnUse" color-interpolation-filters="sRGB">
<feFlood flood-opacity="0" result="BackgroundImageFix"/>
<feBlend mode="normal" in="SourceGraphic" in2="BackgroundImageFix" result="shape"/>
<feColorMatrix in="SourceAlpha" type="matrix" values="0 0 0 0 0 0 0 0 0 0 0 0 0 0 0 0 0 0 127 0" result="hardAlpha"/>
<feOffset dx="0.2"/>
<feGaussianBlur stdDeviation="0.125"/>
<feComposite in2="hardAlpha" operator="arithmetic" k2="-1" k3="1"/>
<feColorMatrix type="matrix" values="0 0 0 0 0.0862745 0 0 0 0 0.054902 0 0 0 0 0.113725 0 0 0 1 0"/>
<feBlend mode="normal" in2="shape" result="effect1_innerShadow_3987_24798"/>
</filter>
<filter id="filter10_f_3987_24798" x="17.8387" y="11.4921" width="0.939258" height="0.82516" filterUnits="userSpaceOnUse" color-interpolation-filters="sRGB">
<feFlood flood-opacity="0" result="BackgroundImageFix"/>
<feBlend mode="normal" in="SourceGraphic" in2="BackgroundImageFix" result="shape"/>
<feGaussianBlur stdDeviation="0.05" result="effect1_foregroundBlur_3987_24798"/>
</filter>
<filter id="filter11_f_3987_24798" x="18.9227" y="11.6126" width="1.01877" height="1.04671" filterUnits="userSpaceOnUse" color-interpolation-filters="sRGB">
<feFlood flood-opacity="0" result="BackgroundImageFix"/>
<feBlend mode="normal" in="SourceGraphic" in2="BackgroundImageFix" result="shape"/>
<feGaussianBlur stdDeviation="0.1" result="effect1_foregroundBlur_3987_24798"/>
</filter>
<filter id="filter12_f_3987_24798" x="13.3264" y="11.5328" width="1.13853" height="1.20639" filterUnits="userSpaceOnUse" color-interpolation-filters="sRGB">
<feFlood flood-opacity="0" result="BackgroundImageFix"/>
<feBlend mode="normal" in="SourceGraphic" in2="BackgroundImageFix" result="shape"/>
<feGaussianBlur stdDeviation="0.1" result="effect1_foregroundBlur_3987_24798"/>
</filter>
<filter id="filter13_f_3987_24798" x="12.3496" y="11.4819" width="1.09819" height="0.835456" filterUnits="userSpaceOnUse" color-interpolation-filters="sRGB">
<feFlood flood-opacity="0" result="BackgroundImageFix"/>
<feBlend mode="normal" in="SourceGraphic" in2="BackgroundImageFix" result="shape"/>
<feGaussianBlur stdDeviation="0.05" result="effect1_foregroundBlur_3987_24798"/>
</filter>
<filter id="filter14_if_3987_24798" x="7.98865" y="4.03207" width="5.29761" height="5.67754" filterUnits="userSpaceOnUse" color-interpolation-filters="sRGB">
<feFlood flood-opacity="0" result="BackgroundImageFix"/>
<feBlend mode="normal" in="SourceGraphic" in2="BackgroundImageFix" result="shape"/>
<feColorMatrix in="SourceAlpha" type="matrix" values="0 0 0 0 0 0 0 0 0 0 0 0 0 0 0 0 0 0 127 0" result="hardAlpha"/>
<feOffset dx="0.5" dy="0.5"/>
<feGaussianBlur stdDeviation="0.5"/>
<feComposite in2="hardAlpha" operator="arithmetic" k2="-1" k3="1"/>
<feColorMatrix type="matrix" values="0 0 0 0 0.294118 0 0 0 0 0.262745 0 0 0 0 0.262745 0 0 0 1 0"/>
<feBlend mode="normal" in2="shape" result="effect1_innerShadow_3987_24798"/>
<feGaussianBlur stdDeviation="0.25" result="effect2_foregroundBlur_3987_24798"/>
</filter>
<filter id="filter15_if_3987_24798" x="12.0734" y="2.66399" width="10.9007" height="7.15338" filterUnits="userSpaceOnUse" color-interpolation-filters="sRGB">
<feFlood flood-opacity="0" result="BackgroundImageFix"/>
<feBlend mode="normal" in="SourceGraphic" in2="BackgroundImageFix" result="shape"/>
<feColorMatrix in="SourceAlpha" type="matrix" values="0 0 0 0 0 0 0 0 0 0 0 0 0 0 0 0 0 0 127 0" result="hardAlpha"/>
<feOffset dx="-0.3" dy="0.2"/>
<feGaussianBlur stdDeviation="0.4"/>
<feComposite in2="hardAlpha" operator="arithmetic" k2="-1" k3="1"/>
<feColorMatrix type="matrix" values="0 0 0 0 0.345098 0 0 0 0 0.329412 0 0 0 0 0.333333 0 0 0 1 0"/>
<feBlend mode="normal" in2="shape" result="effect1_innerShadow_3987_24798"/>
<feGaussianBlur stdDeviation="0.125" result="effect2_foregroundBlur_3987_24798"/>
</filter>
<filter id="filter16_f_3987_24798" x="12.0472" y="4.23191" width="1.28611" height="2.75355" filterUnits="userSpaceOnUse" color-interpolation-filters="sRGB">
<feFlood flood-opacity="0" result="BackgroundImageFix"/>
<feBlend mode="normal" in="SourceGraphic" in2="BackgroundImageFix" result="shape"/>
<feGaussianBlur stdDeviation="0.1" result="effect1_foregroundBlur_3987_24798"/>
</filter>
<filter id="filter17_f_3987_24798" x="15.2009" y="5.11684" width="8.20642" height="4.35804" filterUnits="userSpaceOnUse" color-interpolation-filters="sRGB">
<feFlood flood-opacity="0" result="BackgroundImageFix"/>
<feBlend mode="normal" in="SourceGraphic" in2="BackgroundImageFix" result="shape"/>
<feGaussianBlur stdDeviation="0.5" result="effect1_foregroundBlur_3987_24798"/>
</filter>
<filter id="filter18_i_3987_24798" x="11.3763" y="9.07406" width="2.88406" height="1.34014" filterUnits="userSpaceOnUse" color-interpolation-filters="sRGB">
<feFlood flood-opacity="0" result="BackgroundImageFix"/>
<feBlend mode="normal" in="SourceGraphic" in2="BackgroundImageFix" result="shape"/>
<feColorMatrix in="SourceAlpha" type="matrix" values="0 0 0 0 0 0 0 0 0 0 0 0 0 0 0 0 0 0 127 0" result="hardAlpha"/>
<feOffset dx="0.1" dy="-0.1"/>
<feGaussianBlur stdDeviation="0.1"/>
<feComposite in2="hardAlpha" operator="arithmetic" k2="-1" k3="1"/>
<feColorMatrix type="matrix" values="0 0 0 0 0.164706 0 0 0 0 0.0901961 0 0 0 0 0.109804 0 0 0 1 0"/>
<feBlend mode="normal" in2="shape" result="effect1_innerShadow_3987_24798"/>
</filter>
<filter id="filter19_i_3987_24798" x="17.9387" y="9.07406" width="2.88406" height="1.34014" filterUnits="userSpaceOnUse" color-interpolation-filters="sRGB">
<feFlood flood-opacity="0" result="BackgroundImageFix"/>
<feBlend mode="normal" in="SourceGraphic" in2="BackgroundImageFix" result="shape"/>
<feColorMatrix in="SourceAlpha" type="matrix" values="0 0 0 0 0 0 0 0 0 0 0 0 0 0 0 0 0 0 127 0" result="hardAlpha"/>
<feOffset dx="0.1" dy="-0.1"/>
<feGaussianBlur stdDeviation="0.1"/>
<feComposite in2="hardAlpha" operator="arithmetic" k2="-1" k3="1"/>
<feColorMatrix type="matrix" values="0 0 0 0 0.164706 0 0 0 0 0.0901961 0 0 0 0 0.109804 0 0 0 1 0"/>
<feBlend mode="normal" in2="shape" result="effect1_innerShadow_3987_24798"/>
</filter>
<filter id="filter20_f_3987_24798" x="11.5357" y="9.13956" width="2.61716" height="1.13375" filterUnits="userSpaceOnUse" color-interpolation-filters="sRGB">
<feFlood flood-opacity="0" result="BackgroundImageFix"/>
<feBlend mode="normal" in="SourceGraphic" in2="BackgroundImageFix" result="shape"/>
<feGaussianBlur stdDeviation="0.1" result="effect1_foregroundBlur_3987_24798"/>
</filter>
<filter id="filter21_f_3987_24798" x="17.9462" y="9.13956" width="2.61716" height="1.13375" filterUnits="userSpaceOnUse" color-interpolation-filters="sRGB">
<feFlood flood-opacity="0" result="BackgroundImageFix"/>
<feBlend mode="normal" in="SourceGraphic" in2="BackgroundImageFix" result="shape"/>
<feGaussianBlur stdDeviation="0.1" result="effect1_foregroundBlur_3987_24798"/>
</filter>
<filter id="filter22_i_3987_24798" x="2" y="12.5643" width="7.3" height="8.0157" filterUnits="userSpaceOnUse" color-interpolation-filters="sRGB">
<feFlood flood-opacity="0" result="BackgroundImageFix"/>
<feBlend mode="normal" in="SourceGraphic" in2="BackgroundImageFix" result="shape"/>
<feColorMatrix in="SourceAlpha" type="matrix" values="0 0 0 0 0 0 0 0 0 0 0 0 0 0 0 0 0 0 127 0" result="hardAlpha"/>
<feOffset dx="0.3" dy="-0.3"/>
<feGaussianBlur stdDeviation="0.4"/>
<feComposite in2="hardAlpha" operator="arithmetic" k2="-1" k3="1"/>
<feColorMatrix type="matrix" values="0 0 0 0 0.466667 0 0 0 0 0.290196 0 0 0 0 0.329412 0 0 0 1 0"/>
<feBlend mode="normal" in2="shape" result="effect1_innerShadow_3987_24798"/>
</filter>
<filter id="filter23_f_3987_24798" x="24.1974" y="13.1925" width="5.53792" height="5.42325" filterUnits="userSpaceOnUse" color-interpolation-filters="sRGB">
<feFlood flood-opacity="0" result="BackgroundImageFix"/>
<feBlend mode="normal" in="SourceGraphic" in2="BackgroundImageFix" result="shape"/>
<feGaussianBlur stdDeviation="0.2" result="effect1_foregroundBlur_3987_24798"/>
</filter>
<linearGradient id="paint0_linear_3987_24798" x1="21.9008" y1="4.01464" x2="13.3289" y2="19.8916" gradientUnits="userSpaceOnUse">
<stop stop-color="#45363A"/>
<stop offset="1" stop-color="#1C151F"/>
</linearGradient>
<radialGradient id="paint1_radial_3987_24798" cx="0" cy="0" r="1" gradientUnits="userSpaceOnUse" gradientTransform="translate(15.6091 15.9224) rotate(97.5394) scale(5.79283 7.23642)">
<stop offset="0.590551" stop-color="#171418"/>
<stop offset="1" stop-color="#171418" stop-opacity="0"/>
</radialGradient>
<radialGradient id="paint2_radial_3987_24798" cx="0" cy="0" r="1" gradientUnits="userSpaceOnUse" gradientTransform="translate(12.0621 16.2602) rotate(146.004) scale(4.38021 5.75526)">
<stop offset="0.258378" stop-color="#181518"/>
<stop offset="1" stop-color="#181518" stop-opacity="0"/>
</radialGradient>
<radialGradient id="paint3_radial_3987_24798" cx="0" cy="0" r="1" gradientUnits="userSpaceOnUse" gradientTransform="translate(9.88747 13.051) rotate(127.405) scale(2.71103 2.0817)">
<stop offset="0.333546" stop-color="#040101"/>
<stop offset="1" stop-color="#040101" stop-opacity="0"/>
</radialGradient>
<radialGradient id="paint4_radial_3987_24798" cx="0" cy="0" r="1" gradientUnits="userSpaceOnUse" gradientTransform="translate(10.4574 10.4963) rotate(121.43) scale(3.11766 2.19612)">
<stop offset="0.320588" stop-color="#040002"/>
<stop offset="1" stop-color="#040002" stop-opacity="0"/>
</radialGradient>
<radialGradient id="paint5_radial_3987_24798" cx="0" cy="0" r="1" gradientUnits="userSpaceOnUse" gradientTransform="translate(11.5553 2.62118) rotate(62.2717) scale(3.72093 5.16522)">
<stop stop-color="#474445"/>
<stop offset="1" stop-color="#474445" stop-opacity="0"/>
</radialGradient>
<radialGradient id="paint6_radial_3987_24798" cx="0" cy="0" r="1" gradientUnits="userSpaceOnUse" gradientTransform="translate(23.3364 5.2392) rotate(134.998) scale(2.56774 3.58838)">
<stop stop-color="#4A4446"/>
<stop offset="1" stop-color="#4A4446" stop-opacity="0"/>
</radialGradient>
<radialGradient id="paint7_radial_3987_24798" cx="0" cy="0" r="1" gradientUnits="userSpaceOnUse" gradientTransform="translate(25.4477 11.6998) rotate(163.779) scale(2.41861 5.04383)">
<stop stop-color="#3B3638"/>
<stop offset="1" stop-color="#3B3638" stop-opacity="0"/>
</radialGradient>
<radialGradient id="paint8_radial_3987_24798" cx="0" cy="0" r="1" gradientUnits="userSpaceOnUse" gradientTransform="translate(24.6876 16.0068) rotate(165.963) scale(3.65605 4.65727)">
<stop stop-color="#464444"/>
<stop offset="1" stop-color="#464444" stop-opacity="0"/>
</radialGradient>
<radialGradient id="paint9_radial_3987_24798" cx="0" cy="0" r="1" gradientUnits="userSpaceOnUse" gradientTransform="translate(21.9504 8.63384) rotate(-108.843) scale(3.52739 2.78996)">
<stop stop-color="#575455"/>
<stop offset="1" stop-color="#575455" stop-opacity="0"/>
</radialGradient>
<radialGradient id="paint10_radial_3987_24798" cx="0" cy="0" r="1" gradientUnits="userSpaceOnUse" gradientTransform="translate(8.25256 11.6542) rotate(5.98813) scale(1.90477 3.08628)">
<stop stop-color="#413733"/>
<stop offset="1" stop-color="#413733" stop-opacity="0"/>
</radialGradient>
<linearGradient id="paint11_linear_3987_24798" x1="8.12447" y1="12.8821" x2="9.68683" y2="12.8821" gradientUnits="userSpaceOnUse">
<stop stop-color="#6A4745"/>
<stop offset="1" stop-color="#533335"/>
</linearGradient>
<radialGradient id="paint12_radial_3987_24798" cx="0" cy="0" r="1" gradientUnits="userSpaceOnUse" gradientTransform="translate(21.0774 13.3255) rotate(-24.444) scale(3.44398 4.20494)">
<stop offset="0.63975" stop-color="#875E5E"/>
<stop offset="0.94391" stop-color="#9D7E72"/>
</radialGradient>
<radialGradient id="paint13_radial_3987_24798" cx="0" cy="0" r="1" gradientUnits="userSpaceOnUse" gradientTransform="translate(22.3757 10.6547) rotate(29.2711) scale(1.89997 0.53715)">
<stop stop-color="#755041"/>
<stop offset="1" stop-color="#755041" stop-opacity="0"/>
</radialGradient>
<radialGradient id="paint14_radial_3987_24798" cx="0" cy="0" r="1" gradientUnits="userSpaceOnUse" gradientTransform="translate(21.5207 12.9138) rotate(-4.25413) scale(1.90716 1.49087)">
<stop offset="0.719132" stop-color="#7D4D48" stop-opacity="0"/>
<stop offset="1" stop-color="#7D4D48"/>
</radialGradient>
<radialGradient id="paint15_radial_3987_24798" cx="0" cy="0" r="1" gradientUnits="userSpaceOnUse" gradientTransform="translate(10.1935 12.7723) rotate(-180) scale(1.33012)">
<stop offset="0.722222" stop-color="#5A3638" stop-opacity="0"/>
<stop offset="1" stop-color="#5A3638"/>
</radialGradient>
<radialGradient id="paint16_radial_3987_24798" cx="0" cy="0" r="1" gradientUnits="userSpaceOnUse" gradientTransform="translate(19.5906 12.0952) rotate(155.244) scale(9.02114 12.0746)">
<stop stop-color="#996B5E"/>
<stop offset="1" stop-color="#764E4C"/>
</radialGradient>
<radialGradient id="paint17_radial_3987_24798" cx="0" cy="0" r="1" gradientUnits="userSpaceOnUse" gradientTransform="translate(18.4715 13.1709) rotate(156.249) scale(3.00047 2.08948)">
<stop stop-color="#986B5A"/>
<stop offset="1" stop-color="#986B5A" stop-opacity="0"/>
</radialGradient>
<radialGradient id="paint18_radial_3987_24798" cx="0" cy="0" r="1" gradientUnits="userSpaceOnUse" gradientTransform="translate(13.2657 20.2923) rotate(-71.832) scale(5.20791 6.60787)">
<stop stop-color="#743F5A"/>
<stop offset="1" stop-color="#743F5A" stop-opacity="0"/>
</radialGradient>
<radialGradient id="paint19_radial_3987_24798" cx="0" cy="0" r="1" gradientUnits="userSpaceOnUse" gradientTransform="translate(17.2775 11.5709) rotate(99.8838) scale(9.42741 11.7841)">
<stop offset="0.636944" stop-color="#793E68" stop-opacity="0"/>
<stop offset="1" stop-color="#793E68"/>
</radialGradient>
<radialGradient id="paint20_radial_3987_24798" cx="0" cy="0" r="1" gradientUnits="userSpaceOnUse" gradientTransform="translate(15.6593 12.5865) rotate(90) scale(7.89626 7.93854)">
<stop offset="0.910526" stop-color="#885485" stop-opacity="0"/>
<stop offset="1" stop-color="#885485"/>
</radialGradient>
<radialGradient id="paint21_radial_3987_24798" cx="0" cy="0" r="1" gradientUnits="userSpaceOnUse" gradientTransform="translate(18.2692 14.2756) rotate(168.897) scale(8.86449 15.2619)">
<stop offset="0.794964" stop-color="#805C54" stop-opacity="0"/>
<stop offset="1" stop-color="#805C54"/>
</radialGradient>
<radialGradient id="paint22_radial_3987_24798" cx="0" cy="0" r="1" gradientUnits="userSpaceOnUse" gradientTransform="translate(18.8878 11.5681) rotate(-90) scale(1.44954 1.77899)">
<stop stop-color="#875555"/>
<stop offset="1" stop-color="#875555" stop-opacity="0"/>
</radialGradient>
<radialGradient id="paint23_radial_3987_24798" cx="0" cy="0" r="1" gradientUnits="userSpaceOnUse" gradientTransform="translate(13.3734 11.2802) rotate(-90) scale(1.65328 1.89477)">
<stop stop-color="#714350"/>
<stop offset="1" stop-color="#714350" stop-opacity="0"/>
</radialGradient>
<radialGradient id="paint24_radial_3987_24798" cx="0" cy="0" r="1" gradientUnits="userSpaceOnUse" gradientTransform="translate(17.7314 8.65091) rotate(105.092) scale(4.2097 3.36845)">
<stop stop-color="#815A5B"/>
<stop offset="1" stop-color="#815A5B" stop-opacity="0"/>
</radialGradient>
<radialGradient id="paint25_radial_3987_24798" cx="0" cy="0" r="1" gradientUnits="userSpaceOnUse" gradientTransform="translate(22.4074 13.4419) rotate(180) scale(1.61898 8.11903)">
<stop stop-color="#986F60"/>
<stop offset="1" stop-color="#986F60" stop-opacity="0"/>
</radialGradient>
<radialGradient id="paint26_radial_3987_24798" cx="0" cy="0" r="1" gradientUnits="userSpaceOnUse" gradientTransform="translate(13.4649 19.4875) rotate(-84.5518) scale(6.07309 10.454)">
<stop stop-color="#5A3839"/>
<stop offset="1" stop-color="#5A3839" stop-opacity="0"/>
</radialGradient>
<radialGradient id="paint27_radial_3987_24798" cx="0" cy="0" r="1" gradientUnits="userSpaceOnUse" gradientTransform="translate(16.977 14.3574) rotate(-102.564) scale(2.63786 0.812966)">
<stop offset="0.0168227" stop-color="#A07A6F"/>
<stop offset="1" stop-color="#A07A6F" stop-opacity="0"/>
</radialGradient>
<linearGradient id="paint28_linear_3987_24798" x1="14.8066" y1="14.4492" x2="15.989" y2="14.4492" gradientUnits="userSpaceOnUse">
<stop stop-color="#744C45"/>
<stop offset="1" stop-color="#744C45" stop-opacity="0"/>
</linearGradient>
<linearGradient id="paint29_linear_3987_24798" x1="15.989" y1="15.4556" x2="15.989" y2="14.6869" gradientUnits="userSpaceOnUse">
<stop stop-color="#7C455C"/>
<stop offset="1" stop-color="#7C455C" stop-opacity="0"/>
</linearGradient>
<radialGradient id="paint30_radial_3987_24798" cx="0" cy="0" r="1" gradientUnits="userSpaceOnUse" gradientTransform="translate(16.6751 14.6239) rotate(-180) scale(0.981756 0.27447)">
<stop stop-color="#A07A6F"/>
<stop offset="1" stop-color="#A07A6F" stop-opacity="0"/>
</radialGradient>
<linearGradient id="paint31_linear_3987_24798" x1="16.0875" y1="15.4226" x2="16.0875" y2="15.2469" gradientUnits="userSpaceOnUse">
<stop stop-color="#693B40"/>
<stop offset="1" stop-color="#693B40" stop-opacity="0"/>
</linearGradient>
<radialGradient id="paint32_radial_3987_24798" cx="0" cy="0" r="1" gradientUnits="userSpaceOnUse" gradientTransform="translate(16.464 13.8744) rotate(145.529) scale(2.09509 2.51797)">
<stop offset="0.777645" stop-color="#693B40" stop-opacity="0"/>
<stop offset="1" stop-color="#693B40"/>
</radialGradient>
<radialGradient id="paint33_radial_3987_24798" cx="0" cy="0" r="1" gradientUnits="userSpaceOnUse" gradientTransform="translate(18.7375 12.0202) rotate(90) scale(1.02196 1.62554)">
<stop offset="0.80198" stop-color="#7D574A"/>
<stop offset="1" stop-color="#694B43"/>
<stop offset="1" stop-color="#804D49"/>
<stop offset="1" stop-color="#664944"/>
</radialGradient>
<radialGradient id="paint34_radial_3987_24798" cx="0" cy="0" r="1" gradientUnits="userSpaceOnUse" gradientTransform="translate(18.4501 12.1262) rotate(-127.812) scale(0.4765 0.656026)">
<stop offset="0.765532" stop-color="#FFE6E2" stop-opacity="0"/>
<stop offset="0.966159" stop-color="#FFE6E2"/>
</radialGradient>
<linearGradient id="paint35_linear_3987_24798" x1="19.7175" y1="12.0881" x2="19.3223" y2="12.3316" gradientUnits="userSpaceOnUse">
<stop stop-color="#B4948D"/>
<stop offset="1" stop-color="#B4948D" stop-opacity="0"/>
</linearGradient>
<radialGradient id="paint36_radial_3987_24798" cx="0" cy="0" r="1" gradientUnits="userSpaceOnUse" gradientTransform="translate(13.2405 12.0202) rotate(90) scale(1.02196 1.62555)">
<stop offset="0.80198" stop-color="#7D574A"/>
<stop offset="1" stop-color="#694B43"/>
<stop offset="1" stop-color="#804D49"/>
<stop offset="1" stop-color="#664944"/>
</radialGradient>
<linearGradient id="paint37_linear_3987_24798" x1="14.1774" y1="12.0881" x2="13.7821" y2="12.3316" gradientUnits="userSpaceOnUse">
<stop stop-color="#B4948D"/>
<stop offset="1" stop-color="#B4948D" stop-opacity="0"/>
</linearGradient>
<radialGradient id="paint38_radial_3987_24798" cx="0" cy="0" r="1" gradientUnits="userSpaceOnUse" gradientTransform="translate(12.8797 12.2963) rotate(-90.897) scale(0.622408 0.74816)">
<stop offset="0.765532" stop-color="#FFE6E2" stop-opacity="0"/>
<stop offset="0.966159" stop-color="#FFE6E2"/>
</radialGradient>
<radialGradient id="paint39_radial_3987_24798" cx="0" cy="0" r="1" gradientUnits="userSpaceOnUse" gradientTransform="translate(8.86187 9.3492) rotate(-65.3915) scale(3.81755 1.95296)">
<stop stop-color="#433838"/>
<stop offset="1" stop-color="#433838" stop-opacity="0"/>
</radialGradient>
<radialGradient id="paint40_radial_3987_24798" cx="0" cy="0" r="1" gradientUnits="userSpaceOnUse" gradientTransform="translate(18.396 2.79009) rotate(115.684) scale(6.13805 10.0354)">
<stop offset="0.639192" stop-color="#1F0D24" stop-opacity="0"/>
<stop offset="1" stop-color="#1F0D24"/>
</radialGradient>
<radialGradient id="paint41_radial_3987_24798" cx="0" cy="0" r="1" gradientUnits="userSpaceOnUse" gradientTransform="translate(16.254 3.2554) rotate(98.7461) scale(1.74242 3.74873)">
<stop stop-color="#4C4749"/>
<stop offset="1" stop-color="#4C4749" stop-opacity="0"/>
</radialGradient>
<linearGradient id="paint42_linear_3987_24798" x1="12.3472" y1="4.96473" x2="13.0333" y2="6.56932" gradientUnits="userSpaceOnUse">
<stop stop-color="#1A1316"/>
<stop offset="1" stop-color="#24182D"/>
</linearGradient>
<radialGradient id="paint43_radial_3987_24798" cx="0" cy="0" r="1" gradientUnits="userSpaceOnUse" gradientTransform="translate(16.5616 30.3732) rotate(-90) scale(4.8125 10.4384)">
<stop stop-color="#6547AF"/>
<stop offset="0.714286" stop-color="#53329C"/>
</radialGradient>
<radialGradient id="paint44_radial_3987_24798" cx="0" cy="0" r="1" gradientUnits="userSpaceOnUse" gradientTransform="translate(26.4375 22.4075) rotate(-136.32) scale(9.59268 4.31766)">
<stop stop-color="#9F7DDA"/>
<stop offset="1" stop-color="#9F7DDA" stop-opacity="0"/>
</radialGradient>
<radialGradient id="paint45_radial_3987_24798" cx="0" cy="0" r="1" gradientUnits="userSpaceOnUse" gradientTransform="translate(6.0625 21.1888) rotate(45.4063) scale(3.11577 4.21997)">
<stop stop-color="#785E96"/>
<stop offset="1" stop-color="#785E96" stop-opacity="0"/>
</radialGradient>
<radialGradient id="paint46_radial_3987_24798" cx="0" cy="0" r="1" gradientUnits="userSpaceOnUse" gradientTransform="translate(8.3449 17.211) rotate(26.4613) scale(2.96581 4.60263)">
<stop offset="0.160584" stop-color="#76679F"/>
<stop offset="1" stop-color="#433169"/>
</radialGradient>
<radialGradient id="paint47_radial_3987_24798" cx="0" cy="0" r="1" gradientUnits="userSpaceOnUse" gradientTransform="translate(14.9127 18.6267) rotate(27.2893) scale(18.5908 6.44138)">
<stop offset="0.5683" stop-color="#8066BD"/>
<stop offset="1" stop-color="#593B97"/>
</radialGradient>
<radialGradient id="paint48_radial_3987_24798" cx="0" cy="0" r="1" gradientUnits="userSpaceOnUse" gradientTransform="translate(30.9991 24.1714) rotate(158.078) scale(5.52445 3.47815)">
<stop stop-color="#8E7CC9"/>
<stop offset="1" stop-color="#8E7CC9" stop-opacity="0"/>
</radialGradient>
<radialGradient id="paint49_radial_3987_24798" cx="0" cy="0" r="1" gradientUnits="userSpaceOnUse" gradientTransform="translate(14.2446 17.6542) rotate(116.107) scale(4.96085 7.77144)">
<stop offset="0.215033" stop-color="#9771D7"/>
<stop offset="1" stop-color="#9771D7" stop-opacity="0"/>
</radialGradient>
<linearGradient id="paint50_linear_3987_24798" x1="9.15625" y1="18.47" x2="10.4855" y2="19.0935" gradientUnits="userSpaceOnUse">
<stop stop-color="#62429A"/>
<stop offset="1" stop-color="#62429A" stop-opacity="0"/>
</linearGradient>
<radialGradient id="paint51_radial_3987_24798" cx="0" cy="0" r="1" gradientUnits="userSpaceOnUse" gradientTransform="translate(8 21.5638) rotate(-32.1712) scale(2.28894)">
<stop stop-color="#745B8C"/>
<stop offset="1" stop-color="#745B8C" stop-opacity="0"/>
</radialGradient>
<linearGradient id="paint52_linear_3987_24798" x1="17.4824" y1="26.6755" x2="17.9062" y2="25.72" gradientUnits="userSpaceOnUse">
<stop stop-color="#684C9E"/>
<stop offset="0.460318" stop-color="#684C9E" stop-opacity="0"/>
</linearGradient>
<radialGradient id="paint53_radial_3987_24798" cx="0" cy="0" r="1" gradientUnits="userSpaceOnUse" gradientTransform="translate(18.1554 24.4513) rotate(-23.3852) scale(7.55837 0.732683)">
<stop offset="0.58541" stop-color="#5D3CA0"/>
<stop offset="1" stop-color="#5D3CA0" stop-opacity="0"/>
</radialGradient>
<radialGradient id="paint54_radial_3987_24798" cx="0" cy="0" r="1" gradientUnits="userSpaceOnUse" gradientTransform="translate(23.4054 17.7794) rotate(157.775) scale(1.56975 3.47726)">
<stop stop-color="#705F9F"/>
<stop offset="1" stop-color="#58448E"/>
</radialGradient>
<linearGradient id="paint55_linear_3987_24798" x1="24.1085" y1="18.2808" x2="23.9679" y2="18.3472" gradientUnits="userSpaceOnUse">
<stop stop-color="#8071AA"/>
<stop offset="1" stop-color="#8071AA" stop-opacity="0"/>
</linearGradient>
<radialGradient id="paint56_radial_3987_24798" cx="0" cy="0" r="1" gradientUnits="userSpaceOnUse" gradientTransform="translate(22.3125 18.845) rotate(154.761) scale(25.3582 6.13931)">
<stop offset="0.302299" stop-color="#8B64CE"/>
<stop offset="1" stop-color="#69569A"/>
</radialGradient>
<linearGradient id="paint57_linear_3987_24798" x1="14.9455" y1="27.1143" x2="14.2313" y2="25.5071" gradientUnits="userSpaceOnUse">
<stop stop-color="#6A44B0"/>
<stop offset="1" stop-color="#6A44B0" stop-opacity="0"/>
</linearGradient>
<linearGradient id="paint58_linear_3987_24798" x1="22.9679" y1="18.6402" x2="21.8116" y2="19.2027" gradientUnits="userSpaceOnUse">
<stop stop-color="#A680DF"/>
<stop offset="1" stop-color="#A680DF" stop-opacity="0"/>
</linearGradient>
<linearGradient id="paint59_linear_3987_24798" x1="3.23126" y1="28.2571" x2="6.51697" y2="26.65" gradientUnits="userSpaceOnUse">
<stop stop-color="#604C85" stop-opacity="0.938946"/>
<stop offset="1" stop-color="#604C85" stop-opacity="0"/>
</linearGradient>
<radialGradient id="paint60_radial_3987_24798" cx="0" cy="0" r="1" gradientUnits="userSpaceOnUse" gradientTransform="translate(29.1219 17.4309) rotate(154.201) scale(2.35158 0.926475)">
<stop stop-color="#9A7B71"/>
<stop offset="0.615113" stop-color="#794F40"/>
</radialGradient>
<linearGradient id="paint61_linear_3987_24798" x1="28.0851" y1="19.4766" x2="27.5469" y2="18.6455" gradientUnits="userSpaceOnUse">
<stop offset="0.197599" stop-color="#7E4A52"/>
<stop offset="1" stop-color="#7E4A52" stop-opacity="0"/>
</linearGradient>
<linearGradient id="paint62_linear_3987_24798" x1="26.75" y1="17.3606" x2="27.4937" y2="18.1198" gradientUnits="userSpaceOnUse">
<stop offset="0.353287" stop-color="#734A39"/>
<stop offset="1" stop-color="#734A39" stop-opacity="0"/>
</linearGradient>
<radialGradient id="paint63_radial_3987_24798" cx="0" cy="0" r="1" gradientUnits="userSpaceOnUse" gradientTransform="translate(3.17811 17.6075) rotate(25.705) scale(1.9602 2.66792)">
<stop stop-color="#694641"/>
<stop offset="0.696769" stop-color="#6A3849"/>
</radialGradient>
<radialGradient id="paint64_radial_3987_24798" cx="0" cy="0" r="1" gradientUnits="userSpaceOnUse" gradientTransform="translate(4.81878 17.169) rotate(162.875) scale(0.906597 1.69353)">
<stop stop-color="#592F28"/>
<stop offset="1" stop-color="#592F28" stop-opacity="0"/>
</radialGradient>
<radialGradient id="paint65_radial_3987_24798" cx="0" cy="0" r="1" gradientUnits="userSpaceOnUse" gradientTransform="translate(28.1801 16.7222) rotate(-163.652) scale(4.66351 7.27193)">
<stop offset="0.319905" stop-color="#8F655E"/>
<stop offset="1" stop-color="#755144"/>
</radialGradient>
<radialGradient id="paint66_radial_3987_24798" cx="0" cy="0" r="1" gradientUnits="userSpaceOnUse" gradientTransform="translate(30.161 13.1888) rotate(150.068) scale(1.18996 0.409842)">
<stop stop-color="#9D7D73"/>
<stop offset="1" stop-color="#9D7D73" stop-opacity="0"/>
</radialGradient>
<linearGradient id="paint67_linear_3987_24798" x1="25.4889" y1="14.2516" x2="25.9974" y2="15.1513" gradientUnits="userSpaceOnUse">
<stop stop-color="#704B3D"/>
<stop offset="1" stop-color="#704B3D" stop-opacity="0"/>
</linearGradient>
<radialGradient id="paint68_radial_3987_24798" cx="0" cy="0" r="1" gradientUnits="userSpaceOnUse" gradientTransform="translate(24.5829 20.0013) rotate(-25.641) scale(2.59977 2.78402)">
<stop stop-color="#7E4A51"/>
<stop offset="1" stop-color="#7E4A51" stop-opacity="0"/>
</radialGradient>
<linearGradient id="paint69_linear_3987_24798" x1="8" y1="15.72" x2="5.5" y2="19.486" gradientUnits="userSpaceOnUse">
<stop offset="0.20649" stop-color="#916A5A"/>
<stop offset="1" stop-color="#713E45"/>
</linearGradient>
<radialGradient id="paint70_radial_3987_24798" cx="0" cy="0" r="1" gradientUnits="userSpaceOnUse" gradientTransform="translate(8.58464 18.2498) rotate(-152.468) scale(2.32532 1.33298)">
<stop stop-color="#8D6D68"/>
<stop offset="1" stop-color="#8D6D68" stop-opacity="0"/>
</radialGradient>
<radialGradient id="paint71_radial_3987_24798" cx="0" cy="0" r="1" gradientUnits="userSpaceOnUse" gradientTransform="translate(4.38241 18.1545) rotate(-14.6224) scale(1.03838 3.3969)">
<stop offset="0.295759" stop-color="#805C58"/>
<stop offset="1" stop-color="#805C58" stop-opacity="0"/>
</radialGradient>
<linearGradient id="paint72_linear_3987_24798" x1="29.2172" y1="14.8161" x2="24.0742" y2="17.6835" gradientUnits="userSpaceOnUse">
<stop stop-color="#9C7B72"/>
<stop offset="1" stop-color="#9C7B72" stop-opacity="0"/>
</linearGradient>
</defs>
</svg>
