<svg xmlns="http://www.w3.org/2000/svg" width="32" height="32" fill="none"><path fill="#00F397" d="M15 7a1 1 0 1 0 0 2h.677l5.162.995L26 9V8a1 1 0 0 0-1-1H15Zm11 9-7-1.5-8 1.5H5c-1.5 0-3 1.5-3 3.03v5.974C2 26.102 2.9 27 3.998 27H25.252A2.745 2.745 0 0 0 28 24.255v-5.82a2.433 2.433 0 0 0-2-2.396V16Z"/><path fill="#D3D3D3" d="M10 17H9v-3.501c0-.28.22-.499.5-.499s.5.22.5.499V17Z"/><path fill="#9B9B9B" d="M10 14H9v1h1v-1Z"/><path fill="#321B41" d="M30 24.51a5.5 5.5 0 1 1-11 0 5.5 5.5 0 0 1 11 0Zm-18.98 2a3.5 3.5 0 1 1-7 0 3.5 3.5 0 0 1 7 0Z"/><path fill="#D3D3D3" d="M27 24.5a2.5 2.5 0 1 1-5 0 2.5 2.5 0 0 1 5 0Zm-18 2a1.5 1.5 0 1 1-3 0 1.5 1.5 0 0 1 3 0Z"/><path fill="#26C9FC" d="M15.68 9 11 16h14V9h-9.32Z"/><path fill="#008463" d="M18 9h-1v7h1V9Zm8 0h-1v7h1V9Zm-2.01 9A5.991 5.991 0 0 0 18 24a.5.5 0 1 1-1 0c0-3.865 3.123-7 6.99-7h5.52a.5.5 0 1 1 0 1h-5.52ZM5.52 21.51a.5.5 0 0 1 .5-.5h2.49c2.486 0 4.5 2.014 4.5 4.5a.5.5 0 1 1-1 0c0-1.934-1.566-3.5-3.5-3.5H6.02a.5.5 0 0 1-.5-.5Z"/><path fill="#321B41" d="M3.507 20H2v-1h1.507c.276 0 .493.22.493.5s-.217.5-.493.5Zm0 2H2v-1h1.507c.276 0 .493.22.493.5 0 .27-.217.5-.493.5ZM2 24h1.507c.276 0 .493-.23.493-.5 0-.28-.217-.5-.493-.5H2v1Z"/></svg>