<svg xmlns="http://www.w3.org/2000/svg" width="32" height="32" fill="none"><path fill="#573739" d="M2 21.213V30h16.67l6.028-6.03a3 3 0 0 0-4.236-4.248l1.408-1.408a3 3 0 0 0-4.243-4.243l-1.414 1.414a3 3 0 1 0-4.242-4.242L2 21.213Z"/><path fill="#341A1C" d="M2 30h.5v-.094l15.481-15.481a2.5 2.5 0 0 1 3.535 0c.053.052.034.002.003-.08-.046-.124-.12-.318-.019-.345v-.5c-1.375-1.158-2.931-1.077-4.226.218L2 28.99V30ZM9.684 30h1.207l9.918-9.919a2.5 2.5 0 0 1 3.536 0 .5.5 0 1 0 .707-.707 3.5 3.5 0 0 0-4.95 0L9.83 29.647a.498.498 0 0 0-.146.353Z"/><path fill="#533566" d="M27.09 5.008a.5.5 0 0 1 .402.582l-.667 3.67c.28.178.493.437.601.74h-3.005c.2-.562.763-.972 1.434-.999l.653-3.59a.5.5 0 0 1 .581-.403Z"/><path fill="#9F70B8" d="M24.945 2.438A.5.5 0 0 1 25.441 2h3.993a.5.5 0 0 1 .496.562l-.32 2.562a1 1 0 0 1-.993.876h-3.55a.5.5 0 0 1-.497-.562l.375-3ZM24.42 10a1.345 1.345 0 0 0-.077.5v1.407c0 .252-.143.504-.28.688-.106.143-.064.357.113.384 1.195.178 3.329-.781 3.329-2.525a1.35 1.35 0 0 0-.079-.454h-3.005ZM11.97 11.243A2 2 0 1 0 14.8 14.07l2.121-2.121a3 3 0 0 0 0-4.243 1 1 0 0 0-1.414 0l-3.535 3.536ZM16.213 18.314a2 2 0 0 1 0-2.829l3.536-3.535a1 1 0 0 1 1.414 0 3 3 0 0 1 0 4.242l-2.121 2.122a2 2 0 0 1-2.829 0ZM20.456 19.728a2 2 0 0 0 2.828 2.828l2.122-2.12a3 3 0 0 0 0-4.244 1 1 0 0 0-1.415 0l-3.535 3.536Z"/><path fill="#F3EEF8" d="M26.59 2.636c.202.05.324.254.274.455l-.5 2a.375.375 0 1 1-.728-.182l.5-2c.05-.2.254-.323.455-.273Z"/></svg>