<svg xmlns="http://www.w3.org/2000/svg" width="32" height="32" fill="none"><path fill="#998EA4" d="M18.209 25.01h-4.39v1.24h4.39v-1.24Z"/><path fill="#B4ACBC" d="M17.289 2h-2.56c-2.55 0-4.63 2.07-4.63 4.63v10.74c0 2.56 2.07 4.63 4.63 4.63h2.56c2.56 0 4.63-2.07 4.63-4.63V6.63c0-2.56-2.08-4.63-4.63-4.63Zm6.63 10.88a1 1 0 0 1 1 1v4.29A6.83 6.83 0 0 1 18.09 25h-.001l-4.258.01h-.002c-3.764 0-6.82-3.059-6.82-6.83v-4.29a1 1 0 1 1 2 0v4.29a4.828 4.828 0 0 0 4.819 4.83l4.258-.01h.003a4.83 4.83 0 0 0 4.83-4.83v-4.29a1 1 0 0 1 1-1ZM11.289 26h9.44c.93 0 1.78.51 2.21 1.32l.99 1.82c.21.39-.07.86-.51.86H8.589c-.44 0-.72-.47-.51-.86l.99-1.82c.44-.81 1.3-1.32 2.22-1.32Z"/><path fill="#212121" d="M10.099 8.12h4.76a.749.749 0 1 1 0 1.5h-4.76v-1.5Zm7.06 0h4.76v1.5h-4.76a.749.749 0 1 1 0-1.5Zm-7.06 3.19h4.76c.42 0 .75.33.75.75 0 .41-.33.75-.75.75h-4.76v-1.5Zm0 3.18h4.76a.749.749 0 1 1 0 1.5h-4.76v-1.5Zm11.82-3.18h-4.76c-.42 0-.75.33-.75.75 0 .41.33.75.75.75h4.76v-1.5Zm-4.76 3.18h4.76v1.5h-4.76a.749.749 0 1 1 0-1.5Z"/></svg>