<svg width="32" height="32" viewBox="0 0 32 32" fill="none" xmlns="http://www.w3.org/2000/svg">
<path d="M11 2C12.1 2 13 2.9 13 4V6.4578C13.947 6.16035 14.9548 6 16 6C21.5228 6 26 10.4772 26 16C26 17.0452 25.8396 18.053 25.5422 19H28C29.1 19 30 19.9 30 21C30 22.1 29.1 23 28 23C27.2 23 26.8 23.97 27.37 24.53L27.42 24.58C28.2 25.36 28.2 26.63 27.42 27.41C26.64 28.19 25.37 28.19 24.59 27.41L24.54 27.36C23.97 26.8 23 27.2 23 28C23 29.1 22.1 30 21 30C19.9 30 19 29.1 19 28V25.5422C18.053 25.8396 17.0452 26 16 26C10.4772 26 6 21.5228 6 16C6 14.9548 6.16035 13.947 6.4578 13H4C2.9 13 2 12.1 2 11C2 9.9 2.9 9 4 9C4.8 9 5.2 8.03 4.63 7.47L4.58 7.42C3.8 6.64 3.8 5.37 4.58 4.59C5.36 3.81 6.63 3.81 7.41 4.59L7.46 4.64C8.03 5.2 9 4.8 9 4C9 2.9 9.9 2 11 2ZM24 16C24 15.9899 24 15.9798 23.9999 15.9697C23.3772 15.7869 22.7315 15.705 22.09 15.705C20.33 15.705 18.5997 16.4148 17.3297 17.8348C15.7731 19.5807 15.3187 21.922 15.9599 23.9999C15.9732 24 15.9866 24 16 24C17.0609 24 18.0736 23.7935 19 23.4185V22.5C19 20.57 20.57 19 22.5 19H23.4185C23.7935 18.0736 24 17.0609 24 16ZM23.5162 13.2537C23.1545 12.2641 22.603 11.366 21.9057 10.6034C21.1688 10.4205 20.4144 10.33 19.66 10.33C17.09 10.33 14.53 11.39 12.69 13.46C10.5714 15.8445 9.89545 19.0159 10.5991 21.9018C11.3587 22.5973 12.2529 23.148 13.2381 23.5104C13.1746 23.2058 13.1283 22.8986 13.1107 22.5911C13.0407 21.4311 13.2343 20.2191 13.6043 19.1291C13.9943 17.9991 14.5917 17.0296 15.3917 16.1296C17.0817 14.2296 19.55 13.1096 22.09 13.1096C22.5719 13.1096 23.0479 13.1637 23.5162 13.2537ZM16 8C11.5817 8 8 11.5817 8 16C8 16.3043 8.01699 16.6047 8.05008 16.9002C8.13608 16.5363 8.23939 16.176 8.36001 15.82C8.88001 14.31 9.68001 12.93 10.75 11.73C11.9 10.44 13.28 9.42999 14.86 8.73999C15.5342 8.44786 16.2245 8.21835 16.9282 8.05327C16.6237 8.01808 16.3139 8 16 8Z" fill="#212121"/>
</svg>
