<svg width="32" height="32" viewBox="0 0 32 32" fill="none" xmlns="http://www.w3.org/2000/svg">
<path d="M20.4577 15.4C21.6721 15.4 22.6989 16.2403 22.9852 17.3673C23.0642 17.6935 22.8173 18 22.4817 18H21.682C21.7215 17.8523 21.7412 17.7144 21.7412 17.5568C21.7412 16.6311 20.9908 15.8924 20.0726 15.8924C19.1545 15.8924 18.4041 16.6311 18.414 17.5568C18.414 17.7144 18.4337 17.8621 18.4732 18H18.3251C18.0585 18 17.8512 17.7627 17.9006 17.4958C18.1375 16.2996 19.1841 15.4 20.4577 15.4Z" fill="#212121"/>
<path d="M9.01481 17.3673C9.30113 16.2403 10.3279 15.4 11.5423 15.4C12.8061 15.4 13.8625 16.2996 14.0994 17.4958C14.1488 17.7627 13.9415 18 13.6749 18H13.5268C13.5663 17.8621 13.586 17.7144 13.586 17.5568C13.586 16.6311 12.8455 15.8924 11.9273 15.8924C11.0091 15.8924 10.2588 16.6311 10.2588 17.5568C10.2588 17.7144 10.2785 17.8523 10.318 18H9.51834C9.18266 18 8.93583 17.6935 9.01481 17.3673Z" fill="#212121"/>
<path d="M19.1149 17.5568C19.1149 17.3626 19.1737 17.182 19.2744 17.0319C19.3182 17.1421 19.4248 17.22 19.5494 17.22C19.7129 17.22 19.8456 17.0857 19.8456 16.92C19.8456 16.8188 19.7961 16.7293 19.7203 16.675C19.8265 16.6339 19.942 16.6114 20.0627 16.6114C20.586 16.6114 21.0106 17.0348 21.0106 17.5568C21.0106 17.7144 20.9711 17.8621 20.902 18H19.2235C19.1544 17.8621 19.1149 17.7144 19.1149 17.5568Z" fill="#212121"/>
<path d="M11.9274 16.6114C12.4506 16.6114 12.8752 17.0348 12.8752 17.5568C12.8752 17.7144 12.8357 17.8621 12.7666 18H11.0882C11.019 17.8621 10.9796 17.7144 10.9796 17.5568C10.9796 17.3845 11.0258 17.223 11.1066 17.0839C11.1594 17.1658 11.2508 17.22 11.3547 17.22C11.5183 17.22 11.6509 17.0857 11.6509 16.92C11.6509 16.8282 11.6102 16.7461 11.5461 16.691C11.6628 16.6398 11.7918 16.6114 11.9274 16.6114Z" fill="#212121"/>
<path d="M9.59995 13.9L8.96281 13.1354C8.54054 13.4873 8.48349 14.1149 8.83538 14.5371C9.18493 14.9566 9.80652 15.0157 10.2287 14.6715L10.2323 14.6687L10.2434 14.6605C10.262 14.6468 10.2963 14.6227 10.3455 14.5919C10.4441 14.5301 10.5993 14.4437 10.8034 14.363C11.2089 14.2027 11.8029 14.0659 12.5447 14.1831C13.0877 14.2688 13.5973 13.8982 13.683 13.3552C13.7687 12.8123 13.3981 12.3027 12.8552 12.2169C11.697 12.0341 10.741 12.2473 10.0715 12.512C9.73809 12.6438 9.47451 12.7887 9.28882 12.905C9.19576 12.9633 9.12151 13.0149 9.06704 13.0548C9.03978 13.0747 9.0174 13.0918 9.00001 13.1055L8.97765 13.1233L8.96929 13.1301L8.96581 13.1329L8.96425 13.1342C8.96389 13.1345 8.96281 13.1354 9.59995 13.9Z" fill="#212121"/>
<path d="M22.9364 13.1348C22.9368 13.1351 22.9371 13.1354 22.3058 13.893L22.9364 13.1348C23.3587 13.4867 23.4164 14.1149 23.0646 14.5371C22.715 14.9566 22.0934 15.0157 21.6713 14.6715C21.6692 14.6699 21.6643 14.6661 21.6565 14.6605C21.6379 14.6468 21.6036 14.6227 21.5545 14.5919C21.4558 14.5301 21.3006 14.4437 21.0966 14.363C20.691 14.2027 20.097 14.0659 19.3552 14.1831C18.8123 14.2688 18.3026 13.8982 18.2169 13.3552C18.1312 12.8123 18.5018 12.3027 19.0448 12.2169C20.2029 12.0341 21.1589 12.2473 21.8284 12.512C22.1618 12.6438 22.4254 12.7887 22.6111 12.905C22.7042 12.9633 22.7784 13.0149 22.8329 13.0548C22.8602 13.0747 22.8825 13.0918 22.8999 13.1055L22.9223 13.1233L22.9307 13.1301L22.9341 13.1329L22.9364 13.1348Z" fill="#212121"/>
<path d="M16 24.2341C15.2115 24.2341 14.4704 24.0671 13.8475 23.7748C13.6346 23.6774 13.4059 23.8931 13.54 24.0671C14.0604 24.7768 14.9671 25.25 16 25.25C17.0329 25.25 17.9396 24.7768 18.46 24.0671C18.5941 23.8861 18.3654 23.6774 18.1525 23.7748C17.5296 24.0671 16.7964 24.2341 16 24.2341Z" fill="#212121"/>
<path d="M24.9865 5.97848L25.7867 6.37631C27.1871 7.07253 27.9874 8.66388 27.6873 10.3547L26.888 14.473C28.145 15.1472 29 16.473 29 18C29 19.7911 27.8233 21.3066 26.2004 21.8166L26.0224 24.467L26.0205 24.4903C25.6751 28.2984 22.6553 31 19.0378 31H13.0509C9.32313 31 6.41262 28.2879 6.06815 24.4903L6.06624 24.466L5.89283 21.8447C4.22198 21.3643 3 19.8251 3 18C3 16.4779 3.84958 15.1555 5.10027 14.4793L4.28042 10.2552C4.08036 8.66389 4.8806 7.07253 6.28101 6.37631L7.08124 5.97848C7.58139 5.6801 8.08154 5.28226 8.58168 4.88442L10.3822 2.99469C11.4825 2.00009 13.083 1.70171 14.4834 2.39793C15.4837 2.69631 16.584 2.69631 17.5843 2.39793C19.0848 1.90063 20.7853 2.29847 21.9856 3.39253L23.4861 4.88442C23.8862 5.38172 24.3863 5.6801 24.9865 5.97848ZM24.726 13.9235C24.7681 13.376 24.754 12.8396 24.6887 12.3194C24.3915 11.9384 24.1863 11.4449 24.1863 10.9515V10.3846C23.8695 9.60081 23.4283 8.88069 22.8857 8.24796C21.5553 7.95256 19.243 7.56983 16.0839 7.56983C12.8736 7.56983 10.5378 7.96505 9.21822 8.26223C8.70986 8.8701 8.29165 9.55721 7.98151 10.3017V10.9515C7.98151 11.4888 7.81929 12.0262 7.42183 12.4183C7.36091 12.9098 7.34355 13.4145 7.37347 13.9279L7.44341 14.9851C7.46918 15.3748 7.26723 15.7318 6.94522 15.9176L9.39999 23.2C9.49999 23.7 10.1 23.8 10.4 23.5L11.2 22.8C11.9 22.2 12.7 22 13.5 22H15.2669C14.5794 22 14.0941 21.348 14.2963 20.6961L15.2872 17.5266C15.5096 16.8245 16.5005 16.8245 16.7128 17.5266L17.7037 20.6961C17.9059 21.338 17.4206 22 16.7331 22H18.5C19.4 22 20.2 22.2 20.8 22.8L21.6 23.5C21.9 23.8 22.5 23.6 22.6 23.2L25.1334 15.9266C24.821 15.7375 24.6278 15.3856 24.6534 15.0039L24.7253 13.933L24.726 13.9235ZM5 18C5 19.0144 5.75569 19.8529 6.73426 19.9826L6.55103 16.8679C6.55358 16.9544 6.55481 17.0032 6.55481 17.0032C6.18158 17.0032 5.8572 16.8168 5.64119 16.5323C5.24684 16.8979 5 17.4205 5 18ZM25.5147 16.9999L25.3105 19.9762C26.2672 19.8275 27 18.9988 27 18C27 17.4332 26.7639 16.9208 26.3845 16.5566C26.1975 16.8335 25.901 16.9959 25.5147 16.9999ZM13 24.5V26C13 26.9 13.8 27.7 14.8 27.7C15 27.7 15.1 27.5 15.1 27.4V27.3C15.1 26.8 15.5 26.4 16 26.4C16.5 26.4 16.9 26.8 16.9 27.3V27.4C16.9 27.6 17.1 27.7 17.2 27.7C18.1 27.7 19 27 19 26V24.5C19 24 18.6543 23.6 18 23.6H14C13.3662 23.6 13 24 13 24.5Z" fill="#212121"/>
</svg>
