<svg xmlns="http://www.w3.org/2000/svg" width="32" height="32" fill="none"><path fill="#321B41" d="M30 16c0 3.79-1.51 7.23-3.97 9.76-.39.4-.8.78-1.24 1.13A13.928 13.928 0 0 1 16 30c-3.32 0-6.38-1.16-8.79-3.11-.44-.35-.85-.73-1.24-1.13A13.953 13.953 0 0 1 2 16C2 8.27 8.27 2 16 2s14 6.27 14 14Z"/><path fill="#fff" d="M24 16V6.79C24 5.8 23.19 5 22.19 5H9.82c-1 0-1.81.8-1.81 1.79V16H24Z"/><path fill="#D3D3D3" d="M9.875 22.373c-.636.976-1.943 2.99-2.09 3.245l-.069.116c-.182.3-.408.672-.162 1.097.266.46.848.454 1.018.453h14.832c.318 0 .703-.02.954-.347.25-.327.27-.722-.068-1.261-.27-.432-1.55-2.382-2.157-3.303H9.875Zm.928 1.634c.06-.103.243-.406.304-.506.077-.125.433-.5.885-.5h8.017c.395 0 .69.23.872.5.101.149.184.307.238.41.024.045.042.08.053.096h-10.37ZM9.5 25.997c.058-.076.195-.265.28-.404.105-.173.617-.596 1.07-.596h10.548c.212 0 .525.118.665.328l.445.673H9.5Z"/><path fill="#F92F60" d="M8 16v3.24C8 21.32 9.71 23 11.81 23h8.37c2.11 0 3.81-1.68 3.81-3.76V16H8Z"/><path fill="#FCD53F" d="M11 20h2c.56 0 1-.44 1-1 0-.55-.45-1-1-1h-2c-.55 0-1 .45-1 1s.45 1 1 1Zm8 0h2c.56 0 1-.44 1-1 0-.55-.45-1-1-1h-2c-.55 0-1 .45-1 1s.45 1 1 1Z"/><path fill="#636363" d="M12.5 7h7c.28 0 .5-.22.5-.5s-.22-.5-.5-.5h-7c-.28 0-.5.22-.5.5s.22.5.5.5Zm-.54 10h8.09c1.08 0 1.95-.87 1.96-1.96V9.95c0-1.08-.88-1.96-1.96-1.96h-8.09c-1.08 0-1.96.88-1.96 1.96v5.09c0 1.08.88 1.96 1.96 1.96Z"/><path fill="#00D1ED" d="M19.54 16h-7.07c-.81 0-1.47-.66-1.47-1.47v-4.07c0-.81.66-1.47 1.47-1.47h7.07c.81 0 1.47.66 1.47 1.47v4.07c-.01.82-.66 1.47-1.47 1.47Z"/></svg>