<svg width="32" height="32" viewBox="0 0 32 32" fill="none" xmlns="http://www.w3.org/2000/svg">
<rect x="3.96875" y="5" width="24" height="22" rx="4" fill="url(#paint0_linear_28327_1654)"/>
<rect x="3.96875" y="5" width="24" height="22" rx="4" fill="url(#paint1_linear_28327_1654)"/>
<rect x="3.96875" y="5" width="24" height="22" rx="4" fill="url(#paint2_linear_28327_1654)"/>
<rect x="3.96875" y="5" width="24" height="22" rx="4" fill="url(#paint3_linear_28327_1654)"/>
<rect x="3.96875" y="5" width="24" height="22" rx="4" fill="url(#paint4_linear_28327_1654)"/>
<rect x="3.96875" y="5" width="24" height="22" rx="4" fill="url(#paint5_radial_28327_1654)"/>
<rect x="3.96875" y="5" width="24" height="22" rx="4" fill="url(#paint6_radial_28327_1654)"/>
<rect x="3.96875" y="5" width="24" height="22" rx="4" fill="url(#paint7_radial_28327_1654)"/>
<rect x="3.96875" y="5" width="24" height="22" rx="4" fill="url(#paint8_radial_28327_1654)"/>
<rect x="3.96875" y="5" width="24" height="22" rx="4" fill="url(#paint9_linear_28327_1654)"/>
<g filter="url(#filter0_f_28327_1654)">
<path d="M24.6875 10.3186H26.9062V22.3655C26.9062 22.9782 26.4096 23.4749 25.7969 23.4749V23.4749C25.1842 23.4749 24.6875 22.9782 24.6875 22.3655V10.3186Z" fill="url(#paint10_linear_28327_1654)" fill-opacity="0.75"/>
</g>
<g filter="url(#filter1_f_28327_1654)">
<path d="M26.2188 21.4749L19.4722 7.51544C19.0537 6.64962 19.7288 5.65532 20.6879 5.72477L23.0257 5.89406C25.5354 6.0758 27.4084 8.28025 27.1825 10.7864L26.2188 21.4749Z" fill="#D89475"/>
</g>
<path d="M24.0312 21.8438C24.0312 17.3688 19.7188 15.9688 16.0312 15.9688C11.9062 15.9688 7.96875 17.5312 7.96875 21.8438C7.96875 25.7937 12.2812 29.1875 16.0312 29.1875C20.5312 29.1875 24.0312 24.5312 24.0312 21.8438Z" fill="url(#paint11_radial_28327_1654)"/>
<path d="M24.0312 21.8438C24.0312 17.3688 19.7188 15.9688 16.0312 15.9688C11.9062 15.9688 7.96875 17.5312 7.96875 21.8438C7.96875 25.7937 12.2812 29.1875 16.0312 29.1875C20.5312 29.1875 24.0312 24.5312 24.0312 21.8438Z" fill="url(#paint12_radial_28327_1654)"/>
<path d="M24.0312 21.8438C24.0312 17.3688 19.7188 15.9688 16.0312 15.9688C11.9062 15.9688 7.96875 17.5312 7.96875 21.8438C7.96875 25.7937 12.2812 29.1875 16.0312 29.1875C20.5312 29.1875 24.0312 24.5312 24.0312 21.8438Z" fill="url(#paint13_radial_28327_1654)"/>
<g filter="url(#filter2_i_28327_1654)">
<path d="M12.9609 24.6562L15.9688 22.4062L18.9766 24.6562V27C18.9766 28.6569 17.6256 30 15.9688 30V30C14.3119 30 12.9609 28.6569 12.9609 27V24.6562Z" fill="url(#paint14_linear_28327_1654)"/>
</g>
<g filter="url(#filter3_f_28327_1654)">
<path d="M15.5938 22.4062V29.8281C18.1607 29.7031 18.8125 27.5625 18.8125 26.7344V24.4688C16.922 24.0938 15.879 22.9375 15.5938 22.4062Z" fill="url(#paint15_linear_28327_1654)"/>
</g>
<g filter="url(#filter4_f_28327_1654)">
<path d="M16.6231 22.8957L15.9688 22.4062L15.3003 22.9063C14.906 23.889 14.0841 24.0733 13.3633 24.2211V25.1104C14.3227 25.0178 15.384 24.6578 15.9638 23.5218C16.5457 24.6617 17.6122 25.0208 18.5742 25.1114V24.2231C17.8485 24.0777 17.0175 23.8897 16.6231 22.8957Z" fill="#BD1836"/>
</g>
<path d="M12.5 23.9844C12.2239 23.9844 12 24.2082 12 24.4844C12 24.7605 12.2239 24.9844 12.5 24.9844V23.9844ZM16.4688 20.5156C16.4688 20.2395 16.2449 20.0156 15.9688 20.0156C15.6926 20.0156 15.4688 20.2395 15.4688 20.5156H16.4688ZM12.5 24.9844C14.2085 24.9844 16.4688 23.4996 16.4688 20.5156H15.4688C15.4688 22.9066 13.6978 23.9844 12.5 23.9844V24.9844Z" fill="url(#paint16_radial_28327_1654)"/>
<path d="M12.5 23.9844C12.2239 23.9844 12 24.2082 12 24.4844C12 24.7605 12.2239 24.9844 12.5 24.9844V23.9844ZM16.4688 20.5156C16.4688 20.2395 16.2449 20.0156 15.9688 20.0156C15.6926 20.0156 15.4688 20.2395 15.4688 20.5156H16.4688ZM12.5 24.9844C14.2085 24.9844 16.4688 23.4996 16.4688 20.5156H15.4688C15.4688 22.9066 13.6978 23.9844 12.5 23.9844V24.9844Z" fill="url(#paint17_linear_28327_1654)"/>
<path d="M19.4261 24.4844C17.973 24.4844 15.9573 23.2031 15.9573 20.5156" stroke="url(#paint18_radial_28327_1654)" stroke-linecap="round"/>
<path d="M19.4261 24.4844C17.973 24.4844 15.9573 23.2031 15.9573 20.5156" stroke="url(#paint19_linear_28327_1654)" stroke-linecap="round"/>
<path d="M16.4744 20.5156C16.4744 20.2395 16.2506 20.0156 15.9744 20.0156L15.9687 20.0157L15.963 20.0156C15.6869 20.0156 15.463 20.2395 15.463 20.5156C15.463 20.598 15.4648 20.6793 15.4681 20.7594C15.3524 22.98 13.662 23.9844 12.5057 23.9844C12.2295 23.9844 12.0057 24.2082 12.0057 24.4844C12.0057 24.7605 12.2295 24.9844 12.5057 24.9844C13.7166 24.9844 15.2047 24.2385 15.9687 22.7417C16.7328 24.2385 18.2209 24.9844 19.4318 24.9844C19.7079 24.9844 19.9318 24.7605 19.9318 24.4844C19.9318 24.2082 19.7079 23.9844 19.4318 23.9844C18.2755 23.9844 16.585 22.98 16.4693 20.7594C16.4727 20.6793 16.4744 20.598 16.4744 20.5156Z" fill="url(#paint20_radial_28327_1654)"/>
<path d="M4.39467 16.3617L11.6947 6.06679C12.2816 5.23902 11.6898 4.09375 10.675 4.09375H6.625C4.13972 4.09375 2.125 6.10847 2.125 8.59375V15.6387C2.125 16.8569 3.68999 17.3555 4.39467 16.3617Z" fill="url(#paint21_linear_28327_1654)"/>
<path d="M4.39467 16.3617L11.6947 6.06679C12.2816 5.23902 11.6898 4.09375 10.675 4.09375H6.625C4.13972 4.09375 2.125 6.10847 2.125 8.59375V15.6387C2.125 16.8569 3.68999 17.3555 4.39467 16.3617Z" fill="url(#paint22_linear_28327_1654)"/>
<path d="M4.39467 16.3617L11.6947 6.06679C12.2816 5.23902 11.6898 4.09375 10.675 4.09375H6.625C4.13972 4.09375 2.125 6.10847 2.125 8.59375V15.6387C2.125 16.8569 3.68999 17.3555 4.39467 16.3617Z" fill="url(#paint23_linear_28327_1654)"/>
<path d="M4.39467 16.3617L11.6947 6.06679C12.2816 5.23902 11.6898 4.09375 10.675 4.09375H6.625C4.13972 4.09375 2.125 6.10847 2.125 8.59375V15.6387C2.125 16.8569 3.68999 17.3555 4.39467 16.3617Z" fill="url(#paint24_linear_28327_1654)"/>
<path d="M4.39467 16.3617L11.6947 6.06679C12.2816 5.23902 11.6898 4.09375 10.675 4.09375H6.625C4.13972 4.09375 2.125 6.10847 2.125 8.59375V15.6387C2.125 16.8569 3.68999 17.3555 4.39467 16.3617Z" fill="url(#paint25_radial_28327_1654)"/>
<path d="M27.5116 16.3617L20.2116 6.06679C19.6246 5.23902 20.2165 4.09375 21.2312 4.09375H25.2812C27.7665 4.09375 29.7812 6.10847 29.7812 8.59375V15.6387C29.7812 16.8569 28.2163 17.3555 27.5116 16.3617Z" fill="url(#paint26_linear_28327_1654)"/>
<path d="M27.5116 16.3617L20.2116 6.06679C19.6246 5.23902 20.2165 4.09375 21.2312 4.09375H25.2812C27.7665 4.09375 29.7812 6.10847 29.7812 8.59375V15.6387C29.7812 16.8569 28.2163 17.3555 27.5116 16.3617Z" fill="url(#paint27_linear_28327_1654)"/>
<path d="M27.5116 16.3617L20.2116 6.06679C19.6246 5.23902 20.2165 4.09375 21.2312 4.09375H25.2812C27.7665 4.09375 29.7812 6.10847 29.7812 8.59375V15.6387C29.7812 16.8569 28.2163 17.3555 27.5116 16.3617Z" fill="url(#paint28_linear_28327_1654)"/>
<path d="M27.5116 16.3617L20.2116 6.06679C19.6246 5.23902 20.2165 4.09375 21.2312 4.09375H25.2812C27.7665 4.09375 29.7812 6.10847 29.7812 8.59375V15.6387C29.7812 16.8569 28.2163 17.3555 27.5116 16.3617Z" fill="url(#paint29_radial_28327_1654)"/>
<g filter="url(#filter5_f_28327_1654)">
<rect x="11.7615" y="12.2285" width="1.47696" height="2.97717" rx="0.738478" fill="#DC9868"/>
</g>
<rect x="12.2267" y="12.0098" width="1.47696" height="2.97717" rx="0.738478" fill="url(#paint30_linear_28327_1654)"/>
<rect x="12.2267" y="12.0098" width="1.47696" height="2.97717" rx="0.738478" fill="url(#paint31_linear_28327_1654)"/>
<g filter="url(#filter6_f_28327_1654)">
<path d="M13.221 12.4634V14.0566" stroke="#725F62" stroke-width="0.2" stroke-linecap="round"/>
</g>
<rect x="18.2111" y="12.0098" width="1.47696" height="2.97717" rx="0.738478" fill="url(#paint32_linear_28327_1654)"/>
<rect x="18.2111" y="12.0098" width="1.47696" height="2.97717" rx="0.738478" fill="url(#paint33_linear_28327_1654)"/>
<g filter="url(#filter7_f_28327_1654)">
<path d="M19.2054 12.4634V14.0566" stroke="#725F62" stroke-width="0.2" stroke-linecap="round"/>
</g>
<path d="M16.9697 16.9983H15.063C14.3862 16.9983 14.0152 17.7865 14.4465 18.3081L15.1213 19.1241C15.6154 19.7215 16.5379 19.7006 17.0044 19.0815L17.6086 18.2797C18.0058 17.7526 17.6297 16.9983 16.9697 16.9983Z" fill="url(#paint34_linear_28327_1654)"/>
<path d="M16.9697 16.9983H15.063C14.3862 16.9983 14.0152 17.7865 14.4465 18.3081L15.1213 19.1241C15.6154 19.7215 16.5379 19.7006 17.0044 19.0815L17.6086 18.2797C18.0058 17.7526 17.6297 16.9983 16.9697 16.9983Z" fill="url(#paint35_radial_28327_1654)"/>
<path d="M16.9697 16.9983H15.063C14.3862 16.9983 14.0152 17.7865 14.4465 18.3081L15.1213 19.1241C15.6154 19.7215 16.5379 19.7006 17.0044 19.0815L17.6086 18.2797C18.0058 17.7526 17.6297 16.9983 16.9697 16.9983Z" fill="url(#paint36_linear_28327_1654)"/>
<g filter="url(#filter8_f_28327_1654)">
<ellipse cx="17.1119" cy="17.6469" rx="0.215947" ry="0.370376" transform="rotate(-41.9976 17.1119 17.6469)" fill="#786366"/>
</g>
<g filter="url(#filter9_f_28327_1654)">
<path d="M28.875 7.28735V15.5374" stroke="url(#paint37_linear_28327_1654)" stroke-width="0.2"/>
</g>
<g filter="url(#filter10_f_28327_1654)">
<path d="M11.2812 5.47485L7.70312 10.6311" stroke="url(#paint38_linear_28327_1654)" stroke-width="0.2"/>
</g>
<defs>
<filter id="filter0_f_28327_1654" x="22.1875" y="7.8186" width="7.21875" height="18.1562" filterUnits="userSpaceOnUse" color-interpolation-filters="sRGB">
<feFlood flood-opacity="0" result="BackgroundImageFix"/>
<feBlend mode="normal" in="SourceGraphic" in2="BackgroundImageFix" result="shape"/>
<feGaussianBlur stdDeviation="1.25" result="effect1_foregroundBlur_28327_1654"/>
</filter>
<filter id="filter1_f_28327_1654" x="17.3457" y="3.72144" width="11.8552" height="19.7534" filterUnits="userSpaceOnUse" color-interpolation-filters="sRGB">
<feFlood flood-opacity="0" result="BackgroundImageFix"/>
<feBlend mode="normal" in="SourceGraphic" in2="BackgroundImageFix" result="shape"/>
<feGaussianBlur stdDeviation="1" result="effect1_foregroundBlur_28327_1654"/>
</filter>
<filter id="filter2_i_28327_1654" x="12.9609" y="21.9062" width="6.01562" height="8.09375" filterUnits="userSpaceOnUse" color-interpolation-filters="sRGB">
<feFlood flood-opacity="0" result="BackgroundImageFix"/>
<feBlend mode="normal" in="SourceGraphic" in2="BackgroundImageFix" result="shape"/>
<feColorMatrix in="SourceAlpha" type="matrix" values="0 0 0 0 0 0 0 0 0 0 0 0 0 0 0 0 0 0 127 0" result="hardAlpha"/>
<feOffset dy="-0.5"/>
<feGaussianBlur stdDeviation="0.25"/>
<feComposite in2="hardAlpha" operator="arithmetic" k2="-1" k3="1"/>
<feColorMatrix type="matrix" values="0 0 0 0 0.841667 0 0 0 0 0.164826 0 0 0 0 0.552771 0 0 0 1 0"/>
<feBlend mode="normal" in2="shape" result="effect1_innerShadow_28327_1654"/>
</filter>
<filter id="filter3_f_28327_1654" x="15.1937" y="22.0062" width="4.01875" height="8.22188" filterUnits="userSpaceOnUse" color-interpolation-filters="sRGB">
<feFlood flood-opacity="0" result="BackgroundImageFix"/>
<feBlend mode="normal" in="SourceGraphic" in2="BackgroundImageFix" result="shape"/>
<feGaussianBlur stdDeviation="0.2" result="effect1_foregroundBlur_28327_1654"/>
</filter>
<filter id="filter4_f_28327_1654" x="12.8633" y="21.9062" width="6.21094" height="3.70508" filterUnits="userSpaceOnUse" color-interpolation-filters="sRGB">
<feFlood flood-opacity="0" result="BackgroundImageFix"/>
<feBlend mode="normal" in="SourceGraphic" in2="BackgroundImageFix" result="shape"/>
<feGaussianBlur stdDeviation="0.25" result="effect1_foregroundBlur_28327_1654"/>
</filter>
<filter id="filter5_f_28327_1654" x="10.9615" y="11.4285" width="3.07693" height="4.57705" filterUnits="userSpaceOnUse" color-interpolation-filters="sRGB">
<feFlood flood-opacity="0" result="BackgroundImageFix"/>
<feBlend mode="normal" in="SourceGraphic" in2="BackgroundImageFix" result="shape"/>
<feGaussianBlur stdDeviation="0.4" result="effect1_foregroundBlur_28327_1654"/>
</filter>
<filter id="filter6_f_28327_1654" x="12.821" y="12.0633" width="0.799951" height="2.39346" filterUnits="userSpaceOnUse" color-interpolation-filters="sRGB">
<feFlood flood-opacity="0" result="BackgroundImageFix"/>
<feBlend mode="normal" in="SourceGraphic" in2="BackgroundImageFix" result="shape"/>
<feGaussianBlur stdDeviation="0.15" result="effect1_foregroundBlur_28327_1654"/>
</filter>
<filter id="filter7_f_28327_1654" x="18.8054" y="12.0633" width="0.799951" height="2.39346" filterUnits="userSpaceOnUse" color-interpolation-filters="sRGB">
<feFlood flood-opacity="0" result="BackgroundImageFix"/>
<feBlend mode="normal" in="SourceGraphic" in2="BackgroundImageFix" result="shape"/>
<feGaussianBlur stdDeviation="0.15" result="effect1_foregroundBlur_28327_1654"/>
</filter>
<filter id="filter8_f_28327_1654" x="16.3166" y="16.8359" width="1.59058" height="1.62183" filterUnits="userSpaceOnUse" color-interpolation-filters="sRGB">
<feFlood flood-opacity="0" result="BackgroundImageFix"/>
<feBlend mode="normal" in="SourceGraphic" in2="BackgroundImageFix" result="shape"/>
<feGaussianBlur stdDeviation="0.25" result="effect1_foregroundBlur_28327_1654"/>
</filter>
<filter id="filter9_f_28327_1654" x="28.025" y="6.53735" width="1.69995" height="9.75" filterUnits="userSpaceOnUse" color-interpolation-filters="sRGB">
<feFlood flood-opacity="0" result="BackgroundImageFix"/>
<feBlend mode="normal" in="SourceGraphic" in2="BackgroundImageFix" result="shape"/>
<feGaussianBlur stdDeviation="0.375" result="effect1_foregroundBlur_28327_1654"/>
</filter>
<filter id="filter10_f_28327_1654" x="7.12097" y="4.91772" width="4.74243" height="6.27051" filterUnits="userSpaceOnUse" color-interpolation-filters="sRGB">
<feFlood flood-opacity="0" result="BackgroundImageFix"/>
<feBlend mode="normal" in="SourceGraphic" in2="BackgroundImageFix" result="shape"/>
<feGaussianBlur stdDeviation="0.25" result="effect1_foregroundBlur_28327_1654"/>
</filter>
<linearGradient id="paint0_linear_28327_1654" x1="15.9687" y1="6.03744" x2="15.9687" y2="31.4434" gradientUnits="userSpaceOnUse">
<stop stop-color="#F7C5A1"/>
<stop offset="1" stop-color="#E28454"/>
</linearGradient>
<linearGradient id="paint1_linear_28327_1654" x1="2.84375" y1="27" x2="7.65625" y2="27" gradientUnits="userSpaceOnUse">
<stop stop-color="#BD8465"/>
<stop offset="1" stop-color="#BD8465" stop-opacity="0"/>
</linearGradient>
<linearGradient id="paint2_linear_28327_1654" x1="31.7813" y1="27" x2="24.1562" y2="27" gradientUnits="userSpaceOnUse">
<stop stop-color="#FFC390"/>
<stop offset="1" stop-color="#FFC390" stop-opacity="0"/>
</linearGradient>
<linearGradient id="paint3_linear_28327_1654" x1="15.9688" y1="21.2874" x2="15.9688" y2="31.4749" gradientUnits="userSpaceOnUse">
<stop stop-color="#89254F" stop-opacity="0"/>
<stop offset="1" stop-color="#98335E"/>
</linearGradient>
<linearGradient id="paint4_linear_28327_1654" x1="15.9687" y1="26.5374" x2="15.9687" y2="27.3187" gradientUnits="userSpaceOnUse">
<stop stop-color="#E273A2" stop-opacity="0"/>
<stop offset="1" stop-color="#E273A2"/>
</linearGradient>
<radialGradient id="paint5_radial_28327_1654" cx="0" cy="0" r="1" gradientUnits="userSpaceOnUse" gradientTransform="translate(2.03125 12.1624) rotate(76.0717) scale(8.04916 7.19335)">
<stop stop-color="#BD8465"/>
<stop offset="1" stop-color="#BD8465" stop-opacity="0"/>
</radialGradient>
<radialGradient id="paint6_radial_28327_1654" cx="0" cy="0" r="1" gradientUnits="userSpaceOnUse" gradientTransform="translate(15.9687 23.0374) rotate(180) scale(10.8125 8.28742)">
<stop stop-color="#AD5C30"/>
<stop offset="1" stop-color="#AD5C30" stop-opacity="0"/>
</radialGradient>
<radialGradient id="paint7_radial_28327_1654" cx="0" cy="0" r="1" gradientUnits="userSpaceOnUse" gradientTransform="translate(14.8437 24.6624) rotate(87.7454) scale(7.94365 6.9459)">
<stop stop-color="#AD5C30"/>
<stop offset="1" stop-color="#AD5C30" stop-opacity="0"/>
</radialGradient>
<radialGradient id="paint8_radial_28327_1654" cx="0" cy="0" r="1" gradientUnits="userSpaceOnUse" gradientTransform="translate(12.4687 5) rotate(70.7479) scale(8.1942 18.8165)">
<stop stop-color="#FFD6B3"/>
<stop offset="1" stop-color="#FFC390" stop-opacity="0"/>
</radialGradient>
<linearGradient id="paint9_linear_28327_1654" x1="15.1706" y1="3.73339" x2="15.1706" y2="6.41501" gradientUnits="userSpaceOnUse">
<stop stop-color="#FFE0C6"/>
<stop offset="1" stop-color="#FFC390" stop-opacity="0"/>
</linearGradient>
<linearGradient id="paint10_linear_28327_1654" x1="27.375" y1="21.7227" x2="27.7751" y2="4.74479" gradientUnits="userSpaceOnUse">
<stop stop-color="#FFC390"/>
<stop offset="1" stop-color="#FFC390" stop-opacity="0"/>
</linearGradient>
<radialGradient id="paint11_radial_28327_1654" cx="0" cy="0" r="1" gradientUnits="userSpaceOnUse" gradientTransform="translate(16 18.5374) rotate(90) scale(11.625 24.0312)">
<stop stop-color="#FFE3B6"/>
<stop offset="0.317708" stop-color="#F5C19B"/>
<stop offset="0.895833" stop-color="#BE625B"/>
</radialGradient>
<radialGradient id="paint12_radial_28327_1654" cx="0" cy="0" r="1" gradientUnits="userSpaceOnUse" gradientTransform="translate(18.4687 19.9749) rotate(140.599) scale(13.5883 13.9042)">
<stop offset="0.595075" stop-color="#BE625B" stop-opacity="0"/>
<stop offset="1" stop-color="#BE625B"/>
</radialGradient>
<radialGradient id="paint13_radial_28327_1654" cx="0" cy="0" r="1" gradientUnits="userSpaceOnUse" gradientTransform="translate(23.0937 16.9749) rotate(125.776) scale(5.23845 6.83497)">
<stop stop-color="#FFE9BE"/>
<stop offset="1" stop-color="#FFE9BE" stop-opacity="0"/>
</radialGradient>
<linearGradient id="paint14_linear_28327_1654" x1="14.2187" y1="21.2249" x2="14.2187" y2="28.4124" gradientUnits="userSpaceOnUse">
<stop stop-color="#B41D4E"/>
<stop offset="1" stop-color="#C9297C"/>
</linearGradient>
<linearGradient id="paint15_linear_28327_1654" x1="20.2534" y1="29.5937" x2="15.5942" y2="29.693" gradientUnits="userSpaceOnUse">
<stop offset="0.4375" stop-color="#F26D9E"/>
<stop offset="0.947917" stop-color="#EF6A9A" stop-opacity="0"/>
</linearGradient>
<radialGradient id="paint16_radial_28327_1654" cx="0" cy="0" r="1" gradientUnits="userSpaceOnUse" gradientTransform="translate(14.2344 22.7562) rotate(48.0128) scale(1.6817 3.82046)">
<stop stop-color="#261317"/>
<stop offset="0.652642" stop-color="#65484A"/>
<stop offset="1" stop-color="#3C1534"/>
</radialGradient>
<linearGradient id="paint17_linear_28327_1654" x1="12.5" y1="24.2562" x2="14.345" y2="23.8379" gradientUnits="userSpaceOnUse">
<stop stop-color="#4A3435"/>
<stop offset="1" stop-color="#473132" stop-opacity="0"/>
</linearGradient>
<radialGradient id="paint18_radial_28327_1654" cx="0" cy="0" r="1" gradientUnits="userSpaceOnUse" gradientTransform="translate(17.8359 22.5921) rotate(132.556) scale(1.81361 4.34755)">
<stop stop-color="#261317"/>
<stop offset="0.507886" stop-color="#65484A"/>
<stop offset="0.901577" stop-color="#3C1534"/>
</radialGradient>
<linearGradient id="paint19_linear_28327_1654" x1="16.1562" y1="19.5218" x2="16.5957" y2="21.1244" gradientUnits="userSpaceOnUse">
<stop stop-color="#65484A"/>
<stop offset="1" stop-color="#65484A" stop-opacity="0"/>
</linearGradient>
<radialGradient id="paint20_radial_28327_1654" cx="0" cy="0" r="1" gradientUnits="userSpaceOnUse" gradientTransform="translate(14.75 21.1781) rotate(133.995) scale(3.77918 1.8994)">
<stop stop-color="#392930"/>
<stop offset="1" stop-color="#392930" stop-opacity="0"/>
</radialGradient>
<linearGradient id="paint21_linear_28327_1654" x1="7.60937" y1="4.09375" x2="2.8125" y2="15.5999" gradientUnits="userSpaceOnUse">
<stop stop-color="#9F6C5B"/>
<stop offset="1" stop-color="#683C44"/>
</linearGradient>
<linearGradient id="paint22_linear_28327_1654" x1="0.71875" y1="11.3499" x2="4.40625" y2="11.3499" gradientUnits="userSpaceOnUse">
<stop stop-color="#5F333B"/>
<stop offset="1" stop-color="#683C44" stop-opacity="0"/>
</linearGradient>
<linearGradient id="paint23_linear_28327_1654" x1="7.96875" y1="12.5374" x2="6.875" y2="11.6937" gradientUnits="userSpaceOnUse">
<stop offset="0.208291" stop-color="#5F333B"/>
<stop offset="1" stop-color="#683C44" stop-opacity="0"/>
</linearGradient>
<linearGradient id="paint24_linear_28327_1654" x1="3.75" y1="18.3499" x2="5.0625" y2="12.6624" gradientUnits="userSpaceOnUse">
<stop stop-color="#50212A"/>
<stop offset="1" stop-color="#683C44" stop-opacity="0"/>
</linearGradient>
<radialGradient id="paint25_radial_28327_1654" cx="0" cy="0" r="1" gradientUnits="userSpaceOnUse" gradientTransform="translate(11.2187 0.974937) rotate(125.218) scale(9.10379 9.64599)">
<stop stop-color="#BF867C"/>
<stop offset="1" stop-color="#BF867C" stop-opacity="0"/>
</radialGradient>
<linearGradient id="paint26_linear_28327_1654" x1="24.2969" y1="4.09375" x2="29.0938" y2="15.5999" gradientUnits="userSpaceOnUse">
<stop stop-color="#9F6C5B"/>
<stop offset="1" stop-color="#683C44"/>
</linearGradient>
<linearGradient id="paint27_linear_28327_1654" x1="22.7188" y1="13.5374" x2="25.9688" y2="11.3499" gradientUnits="userSpaceOnUse">
<stop stop-color="#5F333B"/>
<stop offset="1" stop-color="#683C44" stop-opacity="0"/>
</linearGradient>
<linearGradient id="paint28_linear_28327_1654" x1="28.1563" y1="18.3499" x2="26.8438" y2="12.6624" gradientUnits="userSpaceOnUse">
<stop stop-color="#50212A"/>
<stop offset="1" stop-color="#683C44" stop-opacity="0"/>
</linearGradient>
<radialGradient id="paint29_radial_28327_1654" cx="0" cy="0" r="1" gradientUnits="userSpaceOnUse" gradientTransform="translate(32.9687 10.6624) rotate(-173.904) scale(6.47411 6.85969)">
<stop stop-color="#BF867C"/>
<stop offset="1" stop-color="#BF867C" stop-opacity="0"/>
</radialGradient>
<linearGradient id="paint30_linear_28327_1654" x1="14.2019" y1="13.4984" x2="11.9954" y2="13.4984" gradientUnits="userSpaceOnUse">
<stop offset="0.00558659" stop-color="#5F5254"/>
<stop offset="1" stop-color="#2E2127"/>
</linearGradient>
<linearGradient id="paint31_linear_28327_1654" x1="11.9954" y1="15.0916" x2="11.9954" y2="14.2543" gradientUnits="userSpaceOnUse">
<stop offset="0.00558659" stop-color="#34222C"/>
<stop offset="1" stop-color="#34222C" stop-opacity="0"/>
</linearGradient>
<linearGradient id="paint32_linear_28327_1654" x1="20.1863" y1="13.4984" x2="17.9797" y2="13.4984" gradientUnits="userSpaceOnUse">
<stop offset="0.00558659" stop-color="#5F5254"/>
<stop offset="1" stop-color="#2E2127"/>
</linearGradient>
<linearGradient id="paint33_linear_28327_1654" x1="17.9797" y1="15.0916" x2="17.9797" y2="14.2543" gradientUnits="userSpaceOnUse">
<stop offset="0.00558659" stop-color="#34222C"/>
<stop offset="1" stop-color="#34222C" stop-opacity="0"/>
</linearGradient>
<linearGradient id="paint34_linear_28327_1654" x1="17.4063" y1="16.7249" x2="14.4688" y2="19.6624" gradientUnits="userSpaceOnUse">
<stop offset="0.191489" stop-color="#5F5254"/>
<stop offset="1" stop-color="#2E2127"/>
</linearGradient>
<radialGradient id="paint35_radial_28327_1654" cx="0" cy="0" r="1" gradientUnits="userSpaceOnUse" gradientTransform="translate(16.3438 17.6311) rotate(135.864) scale(2.19891 4.04729)">
<stop offset="0.462647" stop-color="#34222C" stop-opacity="0"/>
<stop offset="0.955607" stop-color="#34222C"/>
</radialGradient>
<linearGradient id="paint36_linear_28327_1654" x1="16.375" y1="18.1467" x2="16.375" y2="16.428" gradientUnits="userSpaceOnUse">
<stop offset="0.146552" stop-color="#34222C" stop-opacity="0"/>
<stop offset="0.872727" stop-color="#34222C"/>
</linearGradient>
<linearGradient id="paint37_linear_28327_1654" x1="30.75" y1="8.8811" x2="30.75" y2="16.3811" gradientUnits="userSpaceOnUse">
<stop stop-color="#B3887F"/>
<stop offset="1" stop-color="#B3887F" stop-opacity="0"/>
</linearGradient>
<linearGradient id="paint38_linear_28327_1654" x1="11.2656" y1="6.45923" x2="7.39063" y2="12.2092" gradientUnits="userSpaceOnUse">
<stop stop-color="#D3B4AE"/>
<stop offset="1" stop-color="#D3B4AE" stop-opacity="0"/>
</linearGradient>
</defs>
</svg>
