<svg width="32" height="32" viewBox="0 0 32 32" fill="none" xmlns="http://www.w3.org/2000/svg">
<path d="M5.99968 6.00266C10.6637 3.67069 14.4982 6.50258 15.998 8.50224C17.4977 6.50257 21.3323 3.67069 25.9963 6.00266C31.9952 9.00214 30.4955 16.5009 25.9963 21.0001C23.8009 23.1954 19.9345 27.0619 17.1066 29.2124C16.4533 29.7092 15.5596 29.687 14.9209 29.1715C12.3286 27.0791 8.16435 23.1648 5.99968 21.0001C1.50044 16.5009 0.000711105 9.00214 5.99968 6.00266Z" fill="url(#paint0_linear_6875_28171)"/>
<path d="M5.99968 6.00266C10.6637 3.67069 14.4982 6.50258 15.998 8.50224C17.4977 6.50257 21.3323 3.67069 25.9963 6.00266C31.9952 9.00214 30.4955 16.5009 25.9963 21.0001C23.8009 23.1954 19.9345 27.0619 17.1066 29.2124C16.4533 29.7092 15.5596 29.687 14.9209 29.1715C12.3286 27.0791 8.16435 23.1648 5.99968 21.0001C1.50044 16.5009 0.000711105 9.00214 5.99968 6.00266Z" fill="url(#paint1_radial_6875_28171)"/>
<path d="M5.99968 6.00266C10.6637 3.67069 14.4982 6.50258 15.998 8.50224C17.4977 6.50257 21.3323 3.67069 25.9963 6.00266C31.9952 9.00214 30.4955 16.5009 25.9963 21.0001C23.8009 23.1954 19.9345 27.0619 17.1066 29.2124C16.4533 29.7092 15.5596 29.687 14.9209 29.1715C12.3286 27.0791 8.16435 23.1648 5.99968 21.0001C1.50044 16.5009 0.000711105 9.00214 5.99968 6.00266Z" fill="url(#paint2_radial_6875_28171)"/>
<path d="M5.99968 6.00266C10.6637 3.67069 14.4982 6.50258 15.998 8.50224C17.4977 6.50257 21.3323 3.67069 25.9963 6.00266C31.9952 9.00214 30.4955 16.5009 25.9963 21.0001C23.8009 23.1954 19.9345 27.0619 17.1066 29.2124C16.4533 29.7092 15.5596 29.687 14.9209 29.1715C12.3286 27.0791 8.16435 23.1648 5.99968 21.0001C1.50044 16.5009 0.000711105 9.00214 5.99968 6.00266Z" fill="url(#paint3_linear_6875_28171)"/>
<path d="M5.99968 6.00266C10.6637 3.67069 14.4982 6.50258 15.998 8.50224C17.4977 6.50257 21.3323 3.67069 25.9963 6.00266C31.9952 9.00214 30.4955 16.5009 25.9963 21.0001C23.8009 23.1954 19.9345 27.0619 17.1066 29.2124C16.4533 29.7092 15.5596 29.687 14.9209 29.1715C12.3286 27.0791 8.16435 23.1648 5.99968 21.0001C1.50044 16.5009 0.000711105 9.00214 5.99968 6.00266Z" fill="url(#paint4_radial_6875_28171)"/>
<path d="M5.99968 6.00266C10.6637 3.67069 14.4982 6.50258 15.998 8.50224C17.4977 6.50257 21.3323 3.67069 25.9963 6.00266C31.9952 9.00214 30.4955 16.5009 25.9963 21.0001C23.8009 23.1954 19.9345 27.0619 17.1066 29.2124C16.4533 29.7092 15.5596 29.687 14.9209 29.1715C12.3286 27.0791 8.16435 23.1648 5.99968 21.0001C1.50044 16.5009 0.000711105 9.00214 5.99968 6.00266Z" fill="url(#paint5_linear_6875_28171)"/>
<path d="M5.99968 6.00266C10.6637 3.67069 14.4982 6.50258 15.998 8.50224C17.4977 6.50257 21.3323 3.67069 25.9963 6.00266C31.9952 9.00214 30.4955 16.5009 25.9963 21.0001C23.8009 23.1954 19.9345 27.0619 17.1066 29.2124C16.4533 29.7092 15.5596 29.687 14.9209 29.1715C12.3286 27.0791 8.16435 23.1648 5.99968 21.0001C1.50044 16.5009 0.000711105 9.00214 5.99968 6.00266Z" fill="url(#paint6_radial_6875_28171)"/>
<path d="M5.99968 6.00266C10.6637 3.67069 14.4982 6.50258 15.998 8.50224C17.4977 6.50257 21.3323 3.67069 25.9963 6.00266C31.9952 9.00214 30.4955 16.5009 25.9963 21.0001C23.8009 23.1954 19.9345 27.0619 17.1066 29.2124C16.4533 29.7092 15.5596 29.687 14.9209 29.1715C12.3286 27.0791 8.16435 23.1648 5.99968 21.0001C1.50044 16.5009 0.000711105 9.00214 5.99968 6.00266Z" fill="url(#paint7_radial_6875_28171)"/>
<path d="M5.99968 6.00266C10.6637 3.67069 14.4982 6.50258 15.998 8.50224C17.4977 6.50257 21.3323 3.67069 25.9963 6.00266C31.9952 9.00214 30.4955 16.5009 25.9963 21.0001C23.8009 23.1954 19.9345 27.0619 17.1066 29.2124C16.4533 29.7092 15.5596 29.687 14.9209 29.1715C12.3286 27.0791 8.16435 23.1648 5.99968 21.0001C1.50044 16.5009 0.000711105 9.00214 5.99968 6.00266Z" fill="url(#paint8_radial_6875_28171)"/>
<path d="M5.99968 6.00266C10.6637 3.67069 14.4982 6.50258 15.998 8.50224C17.4977 6.50257 21.3323 3.67069 25.9963 6.00266C31.9952 9.00214 30.4955 16.5009 25.9963 21.0001C23.8009 23.1954 19.9345 27.0619 17.1066 29.2124C16.4533 29.7092 15.5596 29.687 14.9209 29.1715C12.3286 27.0791 8.16435 23.1648 5.99968 21.0001C1.50044 16.5009 0.000711105 9.00214 5.99968 6.00266Z" fill="url(#paint9_radial_6875_28171)"/>
<path d="M5.99968 6.00266C10.6637 3.67069 14.4982 6.50258 15.998 8.50224C17.4977 6.50257 21.3323 3.67069 25.9963 6.00266C31.9952 9.00214 30.4955 16.5009 25.9963 21.0001C23.8009 23.1954 19.9345 27.0619 17.1066 29.2124C16.4533 29.7092 15.5596 29.687 14.9209 29.1715C12.3286 27.0791 8.16435 23.1648 5.99968 21.0001C1.50044 16.5009 0.000711105 9.00214 5.99968 6.00266Z" fill="url(#paint10_radial_6875_28171)"/>
<defs>
<linearGradient id="paint0_linear_6875_28171" x1="3.99966" y1="10.7539" x2="28.6205" y2="10.7539" gradientUnits="userSpaceOnUse">
<stop stop-color="#959299"/>
<stop offset="1" stop-color="#B0AFB2"/>
</linearGradient>
<radialGradient id="paint1_radial_6875_28171" cx="0" cy="0" r="1" gradientUnits="userSpaceOnUse" gradientTransform="translate(24.8711 28.2509) rotate(45.3993) scale(50.7275 23.203)">
<stop offset="0.520683" stop-color="#8D8C8E" stop-opacity="0"/>
<stop offset="0.579924" stop-color="#878788"/>
</radialGradient>
<radialGradient id="paint2_radial_6875_28171" cx="0" cy="0" r="1" gradientUnits="userSpaceOnUse" gradientTransform="translate(27.8706 7.62945) rotate(119.541) scale(25.2213 25.2213)">
<stop offset="0.225474" stop-color="#B8B6B9"/>
<stop offset="1" stop-color="#B8B6B9" stop-opacity="0"/>
</radialGradient>
<linearGradient id="paint3_linear_6875_28171" x1="14.3729" y1="11.6288" x2="25.6835" y2="11.6288" gradientUnits="userSpaceOnUse">
<stop offset="0.0552486" stop-color="#B1B0B3" stop-opacity="0"/>
<stop offset="0.154909" stop-color="#929293"/>
<stop offset="0.668508" stop-color="#9F9DA2"/>
<stop offset="1" stop-color="#ADABAF" stop-opacity="0"/>
</linearGradient>
<radialGradient id="paint4_radial_6875_28171" cx="0" cy="0" r="1" gradientUnits="userSpaceOnUse" gradientTransform="translate(28.75 26) rotate(-157.751) scale(35.6546 26.8619)">
<stop offset="0.171908" stop-color="#A297AF"/>
<stop offset="0.811263" stop-color="#A297AF" stop-opacity="0"/>
</radialGradient>
<linearGradient id="paint5_linear_6875_28171" x1="15.998" y1="32.375" x2="20.125" y2="16.125" gradientUnits="userSpaceOnUse">
<stop offset="0.243656" stop-color="#836D98"/>
<stop offset="1" stop-color="#9A8FA6" stop-opacity="0"/>
</linearGradient>
<radialGradient id="paint6_radial_6875_28171" cx="0" cy="0" r="1" gradientUnits="userSpaceOnUse" gradientTransform="translate(26.5583 9.1292) rotate(134.433) scale(11.5107 6.49213)">
<stop offset="0.163623" stop-color="#CAC7CC"/>
<stop offset="1" stop-color="#B1ABB7" stop-opacity="0"/>
</radialGradient>
<radialGradient id="paint7_radial_6875_28171" cx="0" cy="0" r="1" gradientUnits="userSpaceOnUse" gradientTransform="translate(12.75 9.875) rotate(74.3895) scale(12.0702 6.99271)">
<stop offset="0.227664" stop-color="#BEBBC2"/>
<stop offset="0.755379" stop-color="#B2ACBA" stop-opacity="0"/>
</radialGradient>
<radialGradient id="paint8_radial_6875_28171" cx="0" cy="0" r="1" gradientUnits="userSpaceOnUse" gradientTransform="translate(21.3717 0.0682506) rotate(125.723) scale(11.2378 3.93989)">
<stop offset="0.230453" stop-color="#808081"/>
<stop offset="1" stop-color="#808081" stop-opacity="0"/>
</radialGradient>
<radialGradient id="paint9_radial_6875_28171" cx="0" cy="0" r="1" gradientUnits="userSpaceOnUse" gradientTransform="translate(20.9343 22.2519) rotate(117.773) scale(10.5937 8.6569)">
<stop stop-color="#A093AE"/>
<stop offset="1" stop-color="#A093AE" stop-opacity="0"/>
</radialGradient>
<radialGradient id="paint10_radial_6875_28171" cx="0" cy="0" r="1" gradientUnits="userSpaceOnUse" gradientTransform="translate(8.24894 7.25452) rotate(136.655) scale(45.8849 35.7057)">
<stop offset="0.56698" stop-color="#8B7C9A" stop-opacity="0"/>
<stop offset="0.670829" stop-color="#8B7C9A"/>
</radialGradient>
</defs>
</svg>
