<svg xmlns="http://www.w3.org/2000/svg" width="32" height="32" fill="none"><path fill="#00A6ED" d="M2 6a4 4 0 0 1 4-4h20a4 4 0 0 1 4 4v20a4 4 0 0 1-4 4H6a4 4 0 0 1-4-4V6Z"/><path fill="#fff" d="M16 10a1 1 0 0 0-1 1v10a1 1 0 1 0 2 0v-4.022h2.5c.967 0 1.861-.334 2.52-.968.66-.637 1.027-1.523 1.027-2.513 0-2.051-1.549-3.497-3.547-3.497H16Zm3.5 4.978H17V12h2.5c.947 0 1.547.603 1.547 1.497 0 .484-.171.838-.415 1.073-.247.238-.627.408-1.133.408ZM7 11.078a1 1 0 1 0-2 0v6.875C5 20.176 6.782 22 9.008 22c2.225 0 4.008-1.824 4.008-4.047v-6.875a1 1 0 1 0-2 0v6.875c0 1.143-.911 2.047-2.008 2.047S7 19.096 7 17.953v-6.875ZM26.012 10a1 1 0 0 1 1 1v6.906a1 1 0 1 1-2 0V11a1 1 0 0 1 1-1ZM26.012 21.727a1.125 1.125 0 1 0 0-2.25 1.125 1.125 0 0 0 0 2.25Z"/></svg>