<svg xmlns="http://www.w3.org/2000/svg" width="32" height="32" fill="none"><path fill="#F3C07B" d="M9.111 4.338a.913.913 0 0 1 .367-1.24.855.855 0 0 1 1.186.43l4.3 9.876a.43.43 0 0 1-.183.55.39.39 0 0 1-.53-.17l-5.14-9.446Zm-4.699 4.42c-.43-.287-.538-.903-.254-1.35.293-.446.861-.541 1.262-.212l8.417 7.012a.463.463 0 0 1 .088.606.395.395 0 0 1-.558.117L4.412 8.758Z"/><path fill="#00A6ED" d="M25 15.5a8.5 8.5 0 1 1-17 0 8.5 8.5 0 0 1 17 0Z"/><path fill="#0074BA" d="M16.635 7.001c.59.01 1.164.078 1.718.202a25.842 25.842 0 0 0-3.716 2.303c.265.564.561 1.126.89 1.68 1.548-1.108 3.34-2.11 5.392-2.948.34.207.665.438.972.69-2.255.865-4.19 1.925-5.829 3.104.368.55.771 1.086 1.211 1.603 1.906-1.479 4.057-2.614 6.2-2.996.207.295.395.604.563.925-2.037.265-4.166 1.333-6.091 2.815.496.517 1.033 1.01 1.613 1.47 1.604-1.133 3.405-1.985 5.227-2.257.074.322.13.652.166.987-1.54.226-3.104.927-4.543 1.898.533.366 1.099.707 1.699 1.016a9.087 9.087 0 0 1 2.826-.917 8.47 8.47 0 0 1-.2 1.048 7.887 7.887 0 0 0-1.43.424c.1.042.203.083.305.123l.323.123c.175.064.353.126.532.185l-.005.014.428.163A4.312 4.312 0 0 1 23.357 27H15a1 1 0 1 0 0 2h4a.5.5 0 0 1 0 1h-4a2 2 0 1 1 0-4h8.357a3.312 3.312 0 0 0 1.175-6.41l-.935-.354c-.125-.046-.25-.093-.373-.141l-.069-.026a17.092 17.092 0 0 1-2.066-.988 16.562 16.562 0 0 1-2.356-1.611 17.055 17.055 0 0 1-2.236-2.203 18.642 18.642 0 0 1-1.773-2.48 20.64 20.64 0 0 1-1.356-2.674c-.184-.435-.35-.87-.5-1.3a8.507 8.507 0 0 0-1.731 1.092c1.733 4.676 5.29 9.83 11.752 12.202-.242.275-.5.534-.775.776-6.366-2.498-9.952-7.586-11.769-12.246a8.525 8.525 0 0 0-1.37 1.905 26.574 26.574 0 0 0 1.104 2.195 25.052 25.052 0 0 0 1.626 2.523 23.31 23.31 0 0 0 2.054 2.427 21.907 21.907 0 0 0 2.302 2.053 21.318 21.318 0 0 0 4.046 2.459 8.445 8.445 0 0 1-1.289.481 22.442 22.442 0 0 1-.983-.54 4.846 4.846 0 0 0-.283.796c-.34.041-.685.063-1.036.064.08-.451.242-.922.461-1.388a22.32 22.32 0 0 1-1.46-1.027c-.09.152-.175.304-.255.454-.335.633-.564 1.221-.685 1.742a8.419 8.419 0 0 1-.96-.283c.151-.623.417-1.277.761-1.927.109-.205.226-.41.35-.618a22.827 22.827 0 0 1-1.545-1.424c-.169.264-.327.526-.474.787-.443.787-.77 1.539-.972 2.225a8.525 8.525 0 0 1-.842-.651c.23-.673.55-1.369.943-2.065.194-.346.408-.694.638-1.042-.49-.541-.948-1.096-1.375-1.662a15.24 15.24 0 0 0-1.61 3.19 8.493 8.493 0 0 1-.642-1.103c.416-.983.957-1.975 1.627-2.95-.384-.557-.74-1.12-1.07-1.686a20.67 20.67 0 0 0-1.343 1.97 8.585 8.585 0 0 1-.024-1.86c.262-.383.533-.753.812-1.11-.14-.267-.275-.533-.404-.799a8.498 8.498 0 0 1 2.69-3.868 8.484 8.484 0 0 1 2.66-1.466c.122.353.255.71.4 1.066.854-.6 1.68-1.101 2.438-1.504Z"/></svg>