<svg width="32" height="32" viewBox="0 0 32 32" fill="none" xmlns="http://www.w3.org/2000/svg">
<g filter="url(#filter0_i_3987_24142)">
<path fill-rule="evenodd" clip-rule="evenodd" d="M23.0792 12.0399C23.2917 11.6048 23.403 11.119 23.403 10.613C23.403 10.1457 23.3069 9.70721 23.1345 9.30752H23.1398C23.0594 9.12653 22.9689 8.95553 22.8586 8.79452L22.8565 8.7914C22.5125 8.26515 22.3303 7.64783 22.3303 7.02039V7.01027C22.3303 5.18866 20.8528 3.71114 19.0312 3.71114C18.849 3.71114 18.677 3.63018 18.5758 3.47838C17.9787 2.64853 16.9969 2.10205 15.8939 2.10205C14.7908 2.10205 13.8091 2.64853 13.212 3.47838C13.1108 3.62006 12.9388 3.71114 12.7566 3.71114C12.7282 3.71114 12.6999 3.7115 12.6716 3.71221C10.8893 3.75734 9.45751 5.21709 9.45751 7.01027V7.02039C9.45751 7.64783 9.27535 8.26515 8.93127 8.7914L8.92897 8.79507C8.58635 9.32051 8.38489 9.93654 8.38489 10.613C8.38489 11.1291 8.50633 11.6048 8.70873 12.0399C8.77957 12.1816 8.77957 12.3536 8.70873 12.4953C8.50633 12.9204 8.38489 13.396 8.38489 13.902C8.38489 15.6831 9.82193 17.1202 11.6031 17.1202H20.1849C21.966 17.1202 23.403 15.6831 23.403 13.902C23.403 13.396 23.2816 12.9204 23.0792 12.4953C23.0083 12.3536 23.0083 12.1816 23.0792 12.0399ZM10.819 9.36753H10.8067L12.0054 11.7231C12.1287 14.5256 13.2224 11.7231 15.8939 11.7231C18.5653 11.7231 19.7302 14.8424 19.8535 12.0399L20.9894 8.84279C20.9357 7.59796 20.0336 7.51059 19.8535 7.51059H16.6335C15.3619 7.51059 14.1621 6.8882 13.4443 5.8373C13.3212 5.66385 13.0648 5.69445 12.9828 5.88831L12.9008 6.08217C12.6751 6.64333 12.2444 7.07186 11.7112 7.31673C11.6958 7.32183 11.6779 7.32948 11.6599 7.33714C11.642 7.34479 11.624 7.35244 11.6086 7.35754C11.3728 7.47998 10.819 7.84729 10.7985 8.79616L10.8088 9.10225L10.819 9.36753Z" fill="url(#paint0_linear_3987_24142)"/>
<path fill-rule="evenodd" clip-rule="evenodd" d="M23.0792 12.0399C23.2917 11.6048 23.403 11.119 23.403 10.613C23.403 10.1457 23.3069 9.70721 23.1345 9.30752H23.1398C23.0594 9.12653 22.9689 8.95553 22.8586 8.79452L22.8565 8.7914C22.5125 8.26515 22.3303 7.64783 22.3303 7.02039V7.01027C22.3303 5.18866 20.8528 3.71114 19.0312 3.71114C18.849 3.71114 18.677 3.63018 18.5758 3.47838C17.9787 2.64853 16.9969 2.10205 15.8939 2.10205C14.7908 2.10205 13.8091 2.64853 13.212 3.47838C13.1108 3.62006 12.9388 3.71114 12.7566 3.71114C12.7282 3.71114 12.6999 3.7115 12.6716 3.71221C10.8893 3.75734 9.45751 5.21709 9.45751 7.01027V7.02039C9.45751 7.64783 9.27535 8.26515 8.93127 8.7914L8.92897 8.79507C8.58635 9.32051 8.38489 9.93654 8.38489 10.613C8.38489 11.1291 8.50633 11.6048 8.70873 12.0399C8.77957 12.1816 8.77957 12.3536 8.70873 12.4953C8.50633 12.9204 8.38489 13.396 8.38489 13.902C8.38489 15.6831 9.82193 17.1202 11.6031 17.1202H20.1849C21.966 17.1202 23.403 15.6831 23.403 13.902C23.403 13.396 23.2816 12.9204 23.0792 12.4953C23.0083 12.3536 23.0083 12.1816 23.0792 12.0399ZM10.819 9.36753H10.8067L12.0054 11.7231C12.1287 14.5256 13.2224 11.7231 15.8939 11.7231C18.5653 11.7231 19.7302 14.8424 19.8535 12.0399L20.9894 8.84279C20.9357 7.59796 20.0336 7.51059 19.8535 7.51059H16.6335C15.3619 7.51059 14.1621 6.8882 13.4443 5.8373C13.3212 5.66385 13.0648 5.69445 12.9828 5.88831L12.9008 6.08217C12.6751 6.64333 12.2444 7.07186 11.7112 7.31673C11.6958 7.32183 11.6779 7.32948 11.6599 7.33714C11.642 7.34479 11.624 7.35244 11.6086 7.35754C11.3728 7.47998 10.819 7.84729 10.7985 8.79616L10.8088 9.10225L10.819 9.36753Z" fill="url(#paint1_radial_3987_24142)"/>
<path fill-rule="evenodd" clip-rule="evenodd" d="M23.0792 12.0399C23.2917 11.6048 23.403 11.119 23.403 10.613C23.403 10.1457 23.3069 9.70721 23.1345 9.30752H23.1398C23.0594 9.12653 22.9689 8.95553 22.8586 8.79452L22.8565 8.7914C22.5125 8.26515 22.3303 7.64783 22.3303 7.02039V7.01027C22.3303 5.18866 20.8528 3.71114 19.0312 3.71114C18.849 3.71114 18.677 3.63018 18.5758 3.47838C17.9787 2.64853 16.9969 2.10205 15.8939 2.10205C14.7908 2.10205 13.8091 2.64853 13.212 3.47838C13.1108 3.62006 12.9388 3.71114 12.7566 3.71114C12.7282 3.71114 12.6999 3.7115 12.6716 3.71221C10.8893 3.75734 9.45751 5.21709 9.45751 7.01027V7.02039C9.45751 7.64783 9.27535 8.26515 8.93127 8.7914L8.92897 8.79507C8.58635 9.32051 8.38489 9.93654 8.38489 10.613C8.38489 11.1291 8.50633 11.6048 8.70873 12.0399C8.77957 12.1816 8.77957 12.3536 8.70873 12.4953C8.50633 12.9204 8.38489 13.396 8.38489 13.902C8.38489 15.6831 9.82193 17.1202 11.6031 17.1202H20.1849C21.966 17.1202 23.403 15.6831 23.403 13.902C23.403 13.396 23.2816 12.9204 23.0792 12.4953C23.0083 12.3536 23.0083 12.1816 23.0792 12.0399ZM10.819 9.36753H10.8067L12.0054 11.7231C12.1287 14.5256 13.2224 11.7231 15.8939 11.7231C18.5653 11.7231 19.7302 14.8424 19.8535 12.0399L20.9894 8.84279C20.9357 7.59796 20.0336 7.51059 19.8535 7.51059H16.6335C15.3619 7.51059 14.1621 6.8882 13.4443 5.8373C13.3212 5.66385 13.0648 5.69445 12.9828 5.88831L12.9008 6.08217C12.6751 6.64333 12.2444 7.07186 11.7112 7.31673C11.6958 7.32183 11.6779 7.32948 11.6599 7.33714C11.642 7.34479 11.624 7.35244 11.6086 7.35754C11.3728 7.47998 10.819 7.84729 10.7985 8.79616L10.8088 9.10225L10.819 9.36753Z" fill="url(#paint2_radial_3987_24142)"/>
<path fill-rule="evenodd" clip-rule="evenodd" d="M23.0792 12.0399C23.2917 11.6048 23.403 11.119 23.403 10.613C23.403 10.1457 23.3069 9.70721 23.1345 9.30752H23.1398C23.0594 9.12653 22.9689 8.95553 22.8586 8.79452L22.8565 8.7914C22.5125 8.26515 22.3303 7.64783 22.3303 7.02039V7.01027C22.3303 5.18866 20.8528 3.71114 19.0312 3.71114C18.849 3.71114 18.677 3.63018 18.5758 3.47838C17.9787 2.64853 16.9969 2.10205 15.8939 2.10205C14.7908 2.10205 13.8091 2.64853 13.212 3.47838C13.1108 3.62006 12.9388 3.71114 12.7566 3.71114C12.7282 3.71114 12.6999 3.7115 12.6716 3.71221C10.8893 3.75734 9.45751 5.21709 9.45751 7.01027V7.02039C9.45751 7.64783 9.27535 8.26515 8.93127 8.7914L8.92897 8.79507C8.58635 9.32051 8.38489 9.93654 8.38489 10.613C8.38489 11.1291 8.50633 11.6048 8.70873 12.0399C8.77957 12.1816 8.77957 12.3536 8.70873 12.4953C8.50633 12.9204 8.38489 13.396 8.38489 13.902C8.38489 15.6831 9.82193 17.1202 11.6031 17.1202H20.1849C21.966 17.1202 23.403 15.6831 23.403 13.902C23.403 13.396 23.2816 12.9204 23.0792 12.4953C23.0083 12.3536 23.0083 12.1816 23.0792 12.0399ZM10.819 9.36753H10.8067L12.0054 11.7231C12.1287 14.5256 13.2224 11.7231 15.8939 11.7231C18.5653 11.7231 19.7302 14.8424 19.8535 12.0399L20.9894 8.84279C20.9357 7.59796 20.0336 7.51059 19.8535 7.51059H16.6335C15.3619 7.51059 14.1621 6.8882 13.4443 5.8373C13.3212 5.66385 13.0648 5.69445 12.9828 5.88831L12.9008 6.08217C12.6751 6.64333 12.2444 7.07186 11.7112 7.31673C11.6958 7.32183 11.6779 7.32948 11.6599 7.33714C11.642 7.34479 11.624 7.35244 11.6086 7.35754C11.3728 7.47998 10.819 7.84729 10.7985 8.79616L10.8088 9.10225L10.819 9.36753Z" fill="url(#paint3_radial_3987_24142)"/>
<path fill-rule="evenodd" clip-rule="evenodd" d="M23.0792 12.0399C23.2917 11.6048 23.403 11.119 23.403 10.613C23.403 10.1457 23.3069 9.70721 23.1345 9.30752H23.1398C23.0594 9.12653 22.9689 8.95553 22.8586 8.79452L22.8565 8.7914C22.5125 8.26515 22.3303 7.64783 22.3303 7.02039V7.01027C22.3303 5.18866 20.8528 3.71114 19.0312 3.71114C18.849 3.71114 18.677 3.63018 18.5758 3.47838C17.9787 2.64853 16.9969 2.10205 15.8939 2.10205C14.7908 2.10205 13.8091 2.64853 13.212 3.47838C13.1108 3.62006 12.9388 3.71114 12.7566 3.71114C12.7282 3.71114 12.6999 3.7115 12.6716 3.71221C10.8893 3.75734 9.45751 5.21709 9.45751 7.01027V7.02039C9.45751 7.64783 9.27535 8.26515 8.93127 8.7914L8.92897 8.79507C8.58635 9.32051 8.38489 9.93654 8.38489 10.613C8.38489 11.1291 8.50633 11.6048 8.70873 12.0399C8.77957 12.1816 8.77957 12.3536 8.70873 12.4953C8.50633 12.9204 8.38489 13.396 8.38489 13.902C8.38489 15.6831 9.82193 17.1202 11.6031 17.1202H20.1849C21.966 17.1202 23.403 15.6831 23.403 13.902C23.403 13.396 23.2816 12.9204 23.0792 12.4953C23.0083 12.3536 23.0083 12.1816 23.0792 12.0399ZM10.819 9.36753H10.8067L12.0054 11.7231C12.1287 14.5256 13.2224 11.7231 15.8939 11.7231C18.5653 11.7231 19.7302 14.8424 19.8535 12.0399L20.9894 8.84279C20.9357 7.59796 20.0336 7.51059 19.8535 7.51059H16.6335C15.3619 7.51059 14.1621 6.8882 13.4443 5.8373C13.3212 5.66385 13.0648 5.69445 12.9828 5.88831L12.9008 6.08217C12.6751 6.64333 12.2444 7.07186 11.7112 7.31673C11.6958 7.32183 11.6779 7.32948 11.6599 7.33714C11.642 7.34479 11.624 7.35244 11.6086 7.35754C11.3728 7.47998 10.819 7.84729 10.7985 8.79616L10.8088 9.10225L10.819 9.36753Z" fill="url(#paint4_radial_3987_24142)"/>
<path fill-rule="evenodd" clip-rule="evenodd" d="M23.0792 12.0399C23.2917 11.6048 23.403 11.119 23.403 10.613C23.403 10.1457 23.3069 9.70721 23.1345 9.30752H23.1398C23.0594 9.12653 22.9689 8.95553 22.8586 8.79452L22.8565 8.7914C22.5125 8.26515 22.3303 7.64783 22.3303 7.02039V7.01027C22.3303 5.18866 20.8528 3.71114 19.0312 3.71114C18.849 3.71114 18.677 3.63018 18.5758 3.47838C17.9787 2.64853 16.9969 2.10205 15.8939 2.10205C14.7908 2.10205 13.8091 2.64853 13.212 3.47838C13.1108 3.62006 12.9388 3.71114 12.7566 3.71114C12.7282 3.71114 12.6999 3.7115 12.6716 3.71221C10.8893 3.75734 9.45751 5.21709 9.45751 7.01027V7.02039C9.45751 7.64783 9.27535 8.26515 8.93127 8.7914L8.92897 8.79507C8.58635 9.32051 8.38489 9.93654 8.38489 10.613C8.38489 11.1291 8.50633 11.6048 8.70873 12.0399C8.77957 12.1816 8.77957 12.3536 8.70873 12.4953C8.50633 12.9204 8.38489 13.396 8.38489 13.902C8.38489 15.6831 9.82193 17.1202 11.6031 17.1202H20.1849C21.966 17.1202 23.403 15.6831 23.403 13.902C23.403 13.396 23.2816 12.9204 23.0792 12.4953C23.0083 12.3536 23.0083 12.1816 23.0792 12.0399ZM10.819 9.36753H10.8067L12.0054 11.7231C12.1287 14.5256 13.2224 11.7231 15.8939 11.7231C18.5653 11.7231 19.7302 14.8424 19.8535 12.0399L20.9894 8.84279C20.9357 7.59796 20.0336 7.51059 19.8535 7.51059H16.6335C15.3619 7.51059 14.1621 6.8882 13.4443 5.8373C13.3212 5.66385 13.0648 5.69445 12.9828 5.88831L12.9008 6.08217C12.6751 6.64333 12.2444 7.07186 11.7112 7.31673C11.6958 7.32183 11.6779 7.32948 11.6599 7.33714C11.642 7.34479 11.624 7.35244 11.6086 7.35754C11.3728 7.47998 10.819 7.84729 10.7985 8.79616L10.8088 9.10225L10.819 9.36753Z" fill="url(#paint5_radial_3987_24142)"/>
<path fill-rule="evenodd" clip-rule="evenodd" d="M23.0792 12.0399C23.2917 11.6048 23.403 11.119 23.403 10.613C23.403 10.1457 23.3069 9.70721 23.1345 9.30752H23.1398C23.0594 9.12653 22.9689 8.95553 22.8586 8.79452L22.8565 8.7914C22.5125 8.26515 22.3303 7.64783 22.3303 7.02039V7.01027C22.3303 5.18866 20.8528 3.71114 19.0312 3.71114C18.849 3.71114 18.677 3.63018 18.5758 3.47838C17.9787 2.64853 16.9969 2.10205 15.8939 2.10205C14.7908 2.10205 13.8091 2.64853 13.212 3.47838C13.1108 3.62006 12.9388 3.71114 12.7566 3.71114C12.7282 3.71114 12.6999 3.7115 12.6716 3.71221C10.8893 3.75734 9.45751 5.21709 9.45751 7.01027V7.02039C9.45751 7.64783 9.27535 8.26515 8.93127 8.7914L8.92897 8.79507C8.58635 9.32051 8.38489 9.93654 8.38489 10.613C8.38489 11.1291 8.50633 11.6048 8.70873 12.0399C8.77957 12.1816 8.77957 12.3536 8.70873 12.4953C8.50633 12.9204 8.38489 13.396 8.38489 13.902C8.38489 15.6831 9.82193 17.1202 11.6031 17.1202H20.1849C21.966 17.1202 23.403 15.6831 23.403 13.902C23.403 13.396 23.2816 12.9204 23.0792 12.4953C23.0083 12.3536 23.0083 12.1816 23.0792 12.0399ZM10.819 9.36753H10.8067L12.0054 11.7231C12.1287 14.5256 13.2224 11.7231 15.8939 11.7231C18.5653 11.7231 19.7302 14.8424 19.8535 12.0399L20.9894 8.84279C20.9357 7.59796 20.0336 7.51059 19.8535 7.51059H16.6335C15.3619 7.51059 14.1621 6.8882 13.4443 5.8373C13.3212 5.66385 13.0648 5.69445 12.9828 5.88831L12.9008 6.08217C12.6751 6.64333 12.2444 7.07186 11.7112 7.31673C11.6958 7.32183 11.6779 7.32948 11.6599 7.33714C11.642 7.34479 11.624 7.35244 11.6086 7.35754C11.3728 7.47998 10.819 7.84729 10.7985 8.79616L10.8088 9.10225L10.819 9.36753Z" fill="url(#paint6_radial_3987_24142)"/>
<path fill-rule="evenodd" clip-rule="evenodd" d="M23.0792 12.0399C23.2917 11.6048 23.403 11.119 23.403 10.613C23.403 10.1457 23.3069 9.70721 23.1345 9.30752H23.1398C23.0594 9.12653 22.9689 8.95553 22.8586 8.79452L22.8565 8.7914C22.5125 8.26515 22.3303 7.64783 22.3303 7.02039V7.01027C22.3303 5.18866 20.8528 3.71114 19.0312 3.71114C18.849 3.71114 18.677 3.63018 18.5758 3.47838C17.9787 2.64853 16.9969 2.10205 15.8939 2.10205C14.7908 2.10205 13.8091 2.64853 13.212 3.47838C13.1108 3.62006 12.9388 3.71114 12.7566 3.71114C12.7282 3.71114 12.6999 3.7115 12.6716 3.71221C10.8893 3.75734 9.45751 5.21709 9.45751 7.01027V7.02039C9.45751 7.64783 9.27535 8.26515 8.93127 8.7914L8.92897 8.79507C8.58635 9.32051 8.38489 9.93654 8.38489 10.613C8.38489 11.1291 8.50633 11.6048 8.70873 12.0399C8.77957 12.1816 8.77957 12.3536 8.70873 12.4953C8.50633 12.9204 8.38489 13.396 8.38489 13.902C8.38489 15.6831 9.82193 17.1202 11.6031 17.1202H20.1849C21.966 17.1202 23.403 15.6831 23.403 13.902C23.403 13.396 23.2816 12.9204 23.0792 12.4953C23.0083 12.3536 23.0083 12.1816 23.0792 12.0399ZM10.819 9.36753H10.8067L12.0054 11.7231C12.1287 14.5256 13.2224 11.7231 15.8939 11.7231C18.5653 11.7231 19.7302 14.8424 19.8535 12.0399L20.9894 8.84279C20.9357 7.59796 20.0336 7.51059 19.8535 7.51059H16.6335C15.3619 7.51059 14.1621 6.8882 13.4443 5.8373C13.3212 5.66385 13.0648 5.69445 12.9828 5.88831L12.9008 6.08217C12.6751 6.64333 12.2444 7.07186 11.7112 7.31673C11.6958 7.32183 11.6779 7.32948 11.6599 7.33714C11.642 7.34479 11.624 7.35244 11.6086 7.35754C11.3728 7.47998 10.819 7.84729 10.7985 8.79616L10.8088 9.10225L10.819 9.36753Z" fill="url(#paint7_radial_3987_24142)"/>
</g>
<path d="M15.8799 15.4102C13.1399 15.4102 10.5799 16.4702 8.66992 18.2502V30.0002H23.0499V18.2202C21.1399 16.4502 18.5999 15.4102 15.8799 15.4102Z" fill="url(#paint8_radial_3987_24142)"/>
<path d="M15.8799 15.4102C13.1399 15.4102 10.5799 16.4702 8.66992 18.2502V30.0002H23.0499V18.2202C21.1399 16.4502 18.5999 15.4102 15.8799 15.4102Z" fill="url(#paint9_linear_3987_24142)"/>
<path d="M15.8799 15.4102C13.1399 15.4102 10.5799 16.4702 8.66992 18.2502V30.0002H23.0499V18.2202C21.1399 16.4502 18.5999 15.4102 15.8799 15.4102Z" fill="url(#paint10_linear_3987_24142)"/>
<path d="M15.8799 15.4102C13.1399 15.4102 10.5799 16.4702 8.66992 18.2502V30.0002H23.0499V18.2202C21.1399 16.4502 18.5999 15.4102 15.8799 15.4102Z" fill="url(#paint11_linear_3987_24142)"/>
<path d="M15.8799 15.4102C13.1399 15.4102 10.5799 16.4702 8.66992 18.2502V30.0002H23.0499V18.2202C21.1399 16.4502 18.5999 15.4102 15.8799 15.4102Z" fill="url(#paint12_radial_3987_24142)"/>
<path d="M15.8799 15.4102C13.1399 15.4102 10.5799 16.4702 8.66992 18.2502V30.0002H23.0499V18.2202C21.1399 16.4502 18.5999 15.4102 15.8799 15.4102Z" fill="url(#paint13_radial_3987_24142)"/>
<path d="M15.8799 15.4102C13.1399 15.4102 10.5799 16.4702 8.66992 18.2502V30.0002H23.0499V18.2202C21.1399 16.4502 18.5999 15.4102 15.8799 15.4102Z" fill="url(#paint14_radial_3987_24142)"/>
<path d="M16.2489 15.4102C16.4989 15.4202 16.7589 15.4402 17.0189 15.4602C16.7589 15.4402 16.5089 15.4202 16.2489 15.4102Z" fill="url(#paint15_linear_3987_24142)"/>
<path d="M15.9189 15.4102C15.9089 15.4102 15.8989 15.4102 15.8789 15.4102C15.9789 15.4102 16.0689 15.4102 16.1689 15.4202C16.0889 15.4102 15.9989 15.4102 15.9189 15.4102Z" fill="url(#paint16_linear_3987_24142)"/>
<path d="M5.81988 22.77L5.78988 22.85C5.26988 24.5 4.99988 26.21 4.99988 27.94V30H8.66988V18.25C7.37988 19.46 6.37988 21 5.81988 22.77Z" fill="url(#paint17_radial_3987_24142)"/>
<path d="M5.81988 22.77L5.78988 22.85C5.26988 24.5 4.99988 26.21 4.99988 27.94V30H8.66988V18.25C7.37988 19.46 6.37988 21 5.81988 22.77Z" fill="url(#paint18_radial_3987_24142)"/>
<path d="M5.81988 22.77L5.78988 22.85C5.26988 24.5 4.99988 26.21 4.99988 27.94V30H8.66988V18.25C7.37988 19.46 6.37988 21 5.81988 22.77Z" fill="url(#paint19_linear_3987_24142)"/>
<path d="M26.7199 27.9697C26.7299 26.2197 26.4699 24.4797 25.9499 22.8097C25.3899 21.0097 24.3699 19.4397 23.0499 18.2197V29.9997H26.6999L26.7199 27.9697Z" fill="url(#paint20_radial_3987_24142)"/>
<path d="M26.7199 27.9697C26.7299 26.2197 26.4699 24.4797 25.9499 22.8097C25.3899 21.0097 24.3699 19.4397 23.0499 18.2197V29.9997H26.6999L26.7199 27.9697Z" fill="url(#paint21_radial_3987_24142)"/>
<path d="M26.7199 27.9697C26.7299 26.2197 26.4699 24.4797 25.9499 22.8097C25.3899 21.0097 24.3699 19.4397 23.0499 18.2197V29.9997H26.6999L26.7199 27.9697Z" fill="url(#paint22_linear_3987_24142)"/>
<path d="M16.3866 22.5144C16.3866 22.4744 16.3766 22.3112 16.3866 22.2712L19.049 15.9802C19.059 15.9502 19.079 15.9202 19.089 15.9002C18.079 15.5802 17.009 15.4102 15.909 15.4102C14.799 15.4102 13.719 15.5902 12.699 15.9102C12.709 15.9302 12.729 15.9602 12.739 15.9802L15.3788 22.3416C15.3888 22.3716 15.4335 22.3914 15.4335 22.4314L15.489 26.0302H15.499V30.0002H16.289V26.0302L16.3671 22.615L16.3866 22.5144Z" fill="url(#paint23_radial_3987_24142)"/>
<path d="M16.3866 22.5144C16.3866 22.4744 16.3766 22.3112 16.3866 22.2712L19.049 15.9802C19.059 15.9502 19.079 15.9202 19.089 15.9002C18.079 15.5802 17.009 15.4102 15.909 15.4102C14.799 15.4102 13.719 15.5902 12.699 15.9102C12.709 15.9302 12.729 15.9602 12.739 15.9802L15.3788 22.3416C15.3888 22.3716 15.4335 22.3914 15.4335 22.4314L15.489 26.0302H15.499V30.0002H16.289V26.0302L16.3671 22.615L16.3866 22.5144Z" fill="url(#paint24_radial_3987_24142)"/>
<path d="M16.2489 15.4102C16.4989 15.4202 16.7589 15.4402 17.0189 15.4602C16.7589 15.4402 16.5089 15.4202 16.2489 15.4102Z" fill="url(#paint25_linear_3987_24142)"/>
<path d="M15.9189 15.4102C15.9089 15.4102 15.8989 15.4102 15.8789 15.4102C15.9789 15.4102 16.0689 15.4102 16.1689 15.4202C16.0889 15.4102 15.9989 15.4102 15.9189 15.4102Z" fill="url(#paint26_linear_3987_24142)"/>
<g filter="url(#filter1_f_3987_24142)">
<path d="M10.1004 20.1543L10.8329 20.2841C10.9998 20.3119 11.0647 20.5159 10.9534 20.6364L10.2488 21.406C10.1746 21.4894 10.1746 21.6192 10.258 21.7027L14.7642 26.3015C14.8754 26.4128 15.0701 26.3386 15.0701 26.181V22.8524C15.0701 22.8153 15.0609 22.7875 15.0516 22.7504L12.5111 16.8628C12.5018 16.8349 12.4926 16.8164 12.474 16.7979C11.6303 17.0667 10.8329 17.4469 10.1097 17.9197L9.92424 19.9225C9.91497 20.0337 9.98915 20.1357 10.1004 20.1543Z" fill="#A49EA5"/>
</g>
<g filter="url(#filter2_f_3987_24142)">
<path d="M21.7873 20.1543L21.0548 20.2841C20.8879 20.3119 20.823 20.5159 20.9343 20.6364L21.6389 21.406C21.7131 21.4894 21.7131 21.6192 21.6297 21.7027L17.1235 26.3015C17.0123 26.4128 16.8176 26.3386 16.8176 26.181V22.8524C16.8176 22.8153 16.8268 22.7875 16.8361 22.7504L19.3766 16.8628C19.3859 16.8349 19.3951 16.8164 19.4137 16.7979C20.2574 17.0667 21.0548 17.4469 21.778 17.9197L21.9635 19.9225C21.9727 20.0337 21.8985 20.1357 21.7873 20.1543Z" fill="url(#paint27_linear_3987_24142)"/>
</g>
<path d="M16.5433 21.6911C16.2811 22.2067 16.2811 22.6325 16.2811 22.9967V25.9879C16.2811 26.1579 16.4893 26.2479 16.6083 26.1179L21.4262 21.1579C21.5155 21.0679 21.5155 20.9279 21.4362 20.8379L20.6827 20.0079C20.5638 19.8779 20.6332 19.6579 20.8116 19.6279L21.5948 19.4879C21.7137 19.4679 21.793 19.3579 21.7831 19.2379L21.5958 17.1786C21.5889 17.1024 21.5475 17.0334 21.4829 16.9924C20.7287 16.5135 19.92 16.1354 19.0569 15.8579C19.0371 15.8879 19.0272 15.9079 19.0173 15.9379L16.5433 21.6911Z" fill="url(#paint28_linear_3987_24142)"/>
<path d="M16.5433 21.6911C16.2811 22.2067 16.2811 22.6325 16.2811 22.9967V25.9879C16.2811 26.1579 16.4893 26.2479 16.6083 26.1179L21.4262 21.1579C21.5155 21.0679 21.5155 20.9279 21.4362 20.8379L20.6827 20.0079C20.5638 19.8779 20.6332 19.6579 20.8116 19.6279L21.5948 19.4879C21.7137 19.4679 21.793 19.3579 21.7831 19.2379L21.5958 17.1786C21.5889 17.1024 21.5475 17.0334 21.4829 16.9924C20.7287 16.5135 19.92 16.1354 19.0569 15.8579C19.0371 15.8879 19.0272 15.9079 19.0173 15.9379L16.5433 21.6911Z" fill="url(#paint29_linear_3987_24142)"/>
<path d="M16.5433 21.6911C16.2811 22.2067 16.2811 22.6325 16.2811 22.9967V25.9879C16.2811 26.1579 16.4893 26.2479 16.6083 26.1179L21.4262 21.1579C21.5155 21.0679 21.5155 20.9279 21.4362 20.8379L20.6827 20.0079C20.5638 19.8779 20.6332 19.6579 20.8116 19.6279L21.5948 19.4879C21.7137 19.4679 21.793 19.3579 21.7831 19.2379L21.5958 17.1786C21.5889 17.1024 21.5475 17.0334 21.4829 16.9924C20.7287 16.5135 19.92 16.1354 19.0569 15.8579C19.0371 15.8879 19.0272 15.9079 19.0173 15.9379L16.5433 21.6911Z" fill="url(#paint30_linear_3987_24142)"/>
<path d="M16.5433 21.6911C16.2811 22.2067 16.2811 22.6325 16.2811 22.9967V25.9879C16.2811 26.1579 16.4893 26.2479 16.6083 26.1179L21.4262 21.1579C21.5155 21.0679 21.5155 20.9279 21.4362 20.8379L20.6827 20.0079C20.5638 19.8779 20.6332 19.6579 20.8116 19.6279L21.5948 19.4879C21.7137 19.4679 21.793 19.3579 21.7831 19.2379L21.5958 17.1786C21.5889 17.1024 21.5475 17.0334 21.4829 16.9924C20.7287 16.5135 19.92 16.1354 19.0569 15.8579C19.0371 15.8879 19.0272 15.9079 19.0173 15.9379L16.5433 21.6911Z" fill="url(#paint31_radial_3987_24142)"/>
<path d="M16.5433 21.6911C16.2811 22.2067 16.2811 22.6325 16.2811 22.9967V25.9879C16.2811 26.1579 16.4893 26.2479 16.6083 26.1179L21.4262 21.1579C21.5155 21.0679 21.5155 20.9279 21.4362 20.8379L20.6827 20.0079C20.5638 19.8779 20.6332 19.6579 20.8116 19.6279L21.5948 19.4879C21.7137 19.4679 21.793 19.3579 21.7831 19.2379L21.5958 17.1786C21.5889 17.1024 21.5475 17.0334 21.4829 16.9924C20.7287 16.5135 19.92 16.1354 19.0569 15.8579C19.0371 15.8879 19.0272 15.9079 19.0173 15.9379L16.5433 21.6911Z" fill="url(#paint32_radial_3987_24142)"/>
<path d="M16.5433 21.6911C16.2811 22.2067 16.2811 22.6325 16.2811 22.9967V25.9879C16.2811 26.1579 16.4893 26.2479 16.6083 26.1179L21.4262 21.1579C21.5155 21.0679 21.5155 20.9279 21.4362 20.8379L20.6827 20.0079C20.5638 19.8779 20.6332 19.6579 20.8116 19.6279L21.5948 19.4879C21.7137 19.4679 21.793 19.3579 21.7831 19.2379L21.5958 17.1786C21.5889 17.1024 21.5475 17.0334 21.4829 16.9924C20.7287 16.5135 19.92 16.1354 19.0569 15.8579C19.0371 15.8879 19.0272 15.9079 19.0173 15.9379L16.5433 21.6911Z" fill="url(#paint33_radial_3987_24142)"/>
<path d="M15.2643 21.6911C15.5265 22.2067 15.5265 22.6325 15.5265 22.9967V25.9879C15.5265 26.1579 15.3183 26.2479 15.1993 26.1179L10.3814 21.1579C10.2922 21.0679 10.2922 20.9279 10.3715 20.8379L11.1249 20.0079C11.2439 19.8779 11.1745 19.6579 10.996 19.6279L10.2128 19.4879C10.0939 19.4679 10.0146 19.3579 10.0245 19.2379L10.2118 17.1786C10.2187 17.1024 10.2601 17.0334 10.3247 16.9924C11.0789 16.5135 11.8876 16.1354 12.7507 15.8579C12.7705 15.8879 12.7804 15.9079 12.7904 15.9379L15.2643 21.6911Z" fill="url(#paint34_radial_3987_24142)"/>
<path d="M15.2643 21.6911C15.5265 22.2067 15.5265 22.6325 15.5265 22.9967V25.9879C15.5265 26.1579 15.3183 26.2479 15.1993 26.1179L10.3814 21.1579C10.2922 21.0679 10.2922 20.9279 10.3715 20.8379L11.1249 20.0079C11.2439 19.8779 11.1745 19.6579 10.996 19.6279L10.2128 19.4879C10.0939 19.4679 10.0146 19.3579 10.0245 19.2379L10.2118 17.1786C10.2187 17.1024 10.2601 17.0334 10.3247 16.9924C11.0789 16.5135 11.8876 16.1354 12.7507 15.8579C12.7705 15.8879 12.7804 15.9079 12.7904 15.9379L15.2643 21.6911Z" fill="url(#paint35_radial_3987_24142)"/>
<path d="M15.2643 21.6911C15.5265 22.2067 15.5265 22.6325 15.5265 22.9967V25.9879C15.5265 26.1579 15.3183 26.2479 15.1993 26.1179L10.3814 21.1579C10.2922 21.0679 10.2922 20.9279 10.3715 20.8379L11.1249 20.0079C11.2439 19.8779 11.1745 19.6579 10.996 19.6279L10.2128 19.4879C10.0939 19.4679 10.0146 19.3579 10.0245 19.2379L10.2118 17.1786C10.2187 17.1024 10.2601 17.0334 10.3247 16.9924C11.0789 16.5135 11.8876 16.1354 12.7507 15.8579C12.7705 15.8879 12.7804 15.9079 12.7904 15.9379L15.2643 21.6911Z" fill="url(#paint36_linear_3987_24142)"/>
<path d="M15.2643 21.6911C15.5265 22.2067 15.5265 22.6325 15.5265 22.9967V25.9879C15.5265 26.1579 15.3183 26.2479 15.1993 26.1179L10.3814 21.1579C10.2922 21.0679 10.2922 20.9279 10.3715 20.8379L11.1249 20.0079C11.2439 19.8779 11.1745 19.6579 10.996 19.6279L10.2128 19.4879C10.0939 19.4679 10.0146 19.3579 10.0245 19.2379L10.2118 17.1786C10.2187 17.1024 10.2601 17.0334 10.3247 16.9924C11.0789 16.5135 11.8876 16.1354 12.7507 15.8579C12.7705 15.8879 12.7804 15.9079 12.7904 15.9379L15.2643 21.6911Z" fill="url(#paint37_radial_3987_24142)"/>
<path d="M15.2643 21.6911C15.5265 22.2067 15.5265 22.6325 15.5265 22.9967V25.9879C15.5265 26.1579 15.3183 26.2479 15.1993 26.1179L10.3814 21.1579C10.2922 21.0679 10.2922 20.9279 10.3715 20.8379L11.1249 20.0079C11.2439 19.8779 11.1745 19.6579 10.996 19.6279L10.2128 19.4879C10.0939 19.4679 10.0146 19.3579 10.0245 19.2379L10.2118 17.1786C10.2187 17.1024 10.2601 17.0334 10.3247 16.9924C11.0789 16.5135 11.8876 16.1354 12.7507 15.8579C12.7705 15.8879 12.7804 15.9079 12.7904 15.9379L15.2643 21.6911Z" fill="url(#paint38_radial_3987_24142)"/>
<path d="M15.2643 21.6911C15.5265 22.2067 15.5265 22.6325 15.5265 22.9967V25.9879C15.5265 26.1579 15.3183 26.2479 15.1993 26.1179L10.3814 21.1579C10.2922 21.0679 10.2922 20.9279 10.3715 20.8379L11.1249 20.0079C11.2439 19.8779 11.1745 19.6579 10.996 19.6279L10.2128 19.4879C10.0939 19.4679 10.0146 19.3579 10.0245 19.2379L10.2118 17.1786C10.2187 17.1024 10.2601 17.0334 10.3247 16.9924C11.0789 16.5135 11.8876 16.1354 12.7507 15.8579C12.7705 15.8879 12.7804 15.9079 12.7904 15.9379L15.2643 21.6911Z" fill="url(#paint39_radial_3987_24142)"/>
<path d="M15.8789 18.7202C14.7189 18.7202 13.7789 17.7802 13.7789 16.6202V15.2402H17.9789V16.6202C17.9789 17.7802 17.0389 18.7202 15.8789 18.7202Z" fill="url(#paint40_radial_3987_24142)"/>
<path fill-rule="evenodd" clip-rule="evenodd" d="M15.8289 15.1204C14.0398 15.1204 12.5895 16.5707 12.5895 18.3598V20.5098H11.6083V18.3598C11.6083 16.0288 13.4979 14.1392 15.8289 14.1392C18.1598 14.1392 20.0495 16.0288 20.0495 18.3598V25.4798H19.0683V18.3598C19.0683 16.5707 17.6179 15.1204 15.8289 15.1204Z" fill="#5A4B7E"/>
<path fill-rule="evenodd" clip-rule="evenodd" d="M15.8289 15.1204C14.0398 15.1204 12.5895 16.5707 12.5895 18.3598V20.5098H11.6083V18.3598C11.6083 16.0288 13.4979 14.1392 15.8289 14.1392C18.1598 14.1392 20.0495 16.0288 20.0495 18.3598V25.4798H19.0683V18.3598C19.0683 16.5707 17.6179 15.1204 15.8289 15.1204Z" fill="url(#paint41_linear_3987_24142)"/>
<path fill-rule="evenodd" clip-rule="evenodd" d="M15.8289 15.1204C14.0398 15.1204 12.5895 16.5707 12.5895 18.3598V20.5098H11.6083V18.3598C11.6083 16.0288 13.4979 14.1392 15.8289 14.1392C18.1598 14.1392 20.0495 16.0288 20.0495 18.3598V25.4798H19.0683V18.3598C19.0683 16.5707 17.6179 15.1204 15.8289 15.1204Z" fill="url(#paint42_radial_3987_24142)"/>
<path fill-rule="evenodd" clip-rule="evenodd" d="M15.8289 15.1204C14.0398 15.1204 12.5895 16.5707 12.5895 18.3598V20.5098H11.6083V18.3598C11.6083 16.0288 13.4979 14.1392 15.8289 14.1392C18.1598 14.1392 20.0495 16.0288 20.0495 18.3598V25.4798H19.0683V18.3598C19.0683 16.5707 17.6179 15.1204 15.8289 15.1204Z" fill="url(#paint43_radial_3987_24142)"/>
<path fill-rule="evenodd" clip-rule="evenodd" d="M15.8289 15.1204C14.0398 15.1204 12.5895 16.5707 12.5895 18.3598V20.5098H11.6083V18.3598C11.6083 16.0288 13.4979 14.1392 15.8289 14.1392C18.1598 14.1392 20.0495 16.0288 20.0495 18.3598V25.4798H19.0683V18.3598C19.0683 16.5707 17.6179 15.1204 15.8289 15.1204Z" fill="url(#paint44_radial_3987_24142)"/>
<g filter="url(#filter3_f_3987_24142)">
<path d="M18.7383 26.9585C19.3455 26.9585 19.8377 26.4663 19.8377 25.8591C19.8377 25.252 19.3455 24.7598 18.7383 24.7598C18.1311 24.7598 17.6389 25.252 17.6389 25.8591C17.6389 26.4663 18.1311 26.9585 18.7383 26.9585Z" fill="#AFA3C5"/>
</g>
<path d="M19.569 26.73C20.2648 26.73 20.829 26.1658 20.829 25.47C20.829 24.7741 20.2648 24.21 19.569 24.21C18.8731 24.21 18.309 24.7741 18.309 25.47C18.309 26.1658 18.8731 26.73 19.569 26.73Z" fill="url(#paint45_radial_3987_24142)"/>
<g filter="url(#filter4_i_3987_24142)">
<path d="M19.5689 26.1798C19.961 26.1798 20.2789 25.8619 20.2789 25.4698C20.2789 25.0776 19.961 24.7598 19.5689 24.7598C19.1768 24.7598 18.8589 25.0776 18.8589 25.4698C18.8589 25.8619 19.1768 26.1798 19.5689 26.1798Z" fill="url(#paint46_radial_3987_24142)"/>
</g>
<g filter="url(#filter5_i_3987_24142)">
<path fill-rule="evenodd" clip-rule="evenodd" d="M12.0989 20.8606C11.1584 20.8606 10.3895 21.6224 10.3895 22.57V25.8694H11.0589C11.3299 25.8694 11.5495 26.089 11.5495 26.36C11.5495 26.6309 11.3299 26.8506 11.0589 26.8506H10.0589C9.69797 26.8506 9.40833 26.5609 9.40833 26.2V22.57C9.40833 21.0776 10.6194 19.8794 12.0989 19.8794C13.5913 19.8794 14.7895 21.0905 14.7895 22.57V26.2C14.7895 26.5609 14.4999 26.8506 14.1389 26.8506H13.2089C12.938 26.8506 12.7183 26.6309 12.7183 26.36C12.7183 26.089 12.938 25.8694 13.2089 25.8694H13.8083V22.57C13.8083 21.6295 13.0465 20.8606 12.0989 20.8606Z" fill="url(#paint47_linear_3987_24142)"/>
</g>
<g filter="url(#filter6_f_3987_24142)">
<path d="M11.0843 26.2937H10.0843C9.99432 26.2937 9.92432 26.2237 9.92432 26.1337V22.5037C9.92432 21.2837 10.9143 20.3037 12.1243 20.3037C13.3443 20.3037 14.3243 21.2937 14.3243 22.5037V26.1337C14.3243 26.2237 14.2543 26.2937 14.1643 26.2937H13.2343" stroke="#6A5D85" stroke-width="0.3" stroke-miterlimit="10" stroke-linecap="round" stroke-linejoin="round"/>
</g>
<path fill-rule="evenodd" clip-rule="evenodd" d="M9.40833 26.1897V23.7197H10.3895V25.8591H10.6389V26.8403H10.0589C9.69797 26.8403 9.40833 26.5507 9.40833 26.1897Z" fill="url(#paint48_linear_3987_24142)"/>
<path fill-rule="evenodd" clip-rule="evenodd" d="M9.40833 26.1897V23.7197H10.3895V25.8591H10.6389V26.8403H10.0589C9.69797 26.8403 9.40833 26.5507 9.40833 26.1897Z" fill="url(#paint49_radial_3987_24142)"/>
<path fill-rule="evenodd" clip-rule="evenodd" d="M14.7896 23.73V26.2C14.7896 26.5609 14.4999 26.8506 14.139 26.8506H13.559V25.8694H13.8084V23.73H14.7896Z" fill="url(#paint50_linear_3987_24142)"/>
<path fill-rule="evenodd" clip-rule="evenodd" d="M14.7896 23.73V26.2C14.7896 26.5609 14.4999 26.8506 14.139 26.8506H13.559V25.8694H13.8084V23.73H14.7896Z" fill="url(#paint51_linear_3987_24142)"/>
<g filter="url(#filter7_i_3987_24142)">
<path d="M11.2082 12.2392C12.0969 12.2392 12.8173 11.5188 12.8173 10.6301C12.8173 9.74141 12.0969 9.021 11.2082 9.021C10.3195 9.021 9.59912 9.74141 9.59912 10.6301C9.59912 11.5188 10.3195 12.2392 11.2082 12.2392Z" fill="url(#paint52_linear_3987_24142)"/>
</g>
<g filter="url(#filter8_i_3987_24142)">
<path d="M20.7211 12.2392C21.6098 12.2392 22.3302 11.5188 22.3302 10.6301C22.3302 9.74141 21.6098 9.021 20.7211 9.021C19.8325 9.021 19.1121 9.74141 19.1121 10.6301C19.1121 11.5188 19.8325 12.2392 20.7211 12.2392Z" fill="url(#paint53_radial_3987_24142)"/>
</g>
<g filter="url(#filter9_f_3987_24142)">
<path d="M20.7212 11.7039C21.3144 11.7039 21.7953 11.223 21.7953 10.6298C21.7953 10.0366 21.3144 9.55566 20.7212 9.55566C20.128 9.55566 19.6471 10.0366 19.6471 10.6298C19.6471 11.223 20.128 11.7039 20.7212 11.7039Z" fill="#FFCA38"/>
<path d="M20.7212 11.7039C21.3144 11.7039 21.7953 11.223 21.7953 10.6298C21.7953 10.0366 21.3144 9.55566 20.7212 9.55566C20.128 9.55566 19.6471 10.0366 19.6471 10.6298C19.6471 11.223 20.128 11.7039 20.7212 11.7039Z" fill="url(#paint54_radial_3987_24142)"/>
</g>
<g filter="url(#filter10_f_3987_24142)">
<path d="M11.2276 11.7039C11.8208 11.7039 12.3017 11.223 12.3017 10.6298C12.3017 10.0366 11.8208 9.55566 11.2276 9.55566C10.6343 9.55566 10.1534 10.0366 10.1534 10.6298C10.1534 11.223 10.6343 11.7039 11.2276 11.7039Z" fill="#E28527"/>
<path d="M11.2276 11.7039C11.8208 11.7039 12.3017 11.223 12.3017 10.6298C12.3017 10.0366 11.8208 9.55566 11.2276 9.55566C10.6343 9.55566 10.1534 10.0366 10.1534 10.6298C10.1534 11.223 10.6343 11.7039 11.2276 11.7039Z" fill="url(#paint55_radial_3987_24142)"/>
</g>
<g filter="url(#filter11_i_3987_24142)">
<path d="M10.8067 9.36731H10.819L10.8087 9.10203L10.7985 8.79594C10.819 7.84706 11.3727 7.47975 11.6086 7.35732C11.624 7.35222 11.6419 7.34456 11.6599 7.33691C11.6778 7.32926 11.6958 7.32161 11.7111 7.3165C12.2444 7.07163 12.6751 6.64311 12.9007 6.08194L12.9827 5.88809C13.0648 5.69423 13.3211 5.66362 13.4442 5.83707C14.162 6.88798 15.3619 7.51036 16.6335 7.51036H19.8535C20.0335 7.51036 20.9356 7.59773 20.9893 8.84257L20.8706 11.9156C20.7473 14.7181 18.5588 16.6 15.8873 16.6C13.2159 16.6 11.0274 14.7181 10.9041 11.9156L10.8067 9.36731Z" fill="url(#paint56_radial_3987_24142)"/>
<path d="M10.8067 9.36731H10.819L10.8087 9.10203L10.7985 8.79594C10.819 7.84706 11.3727 7.47975 11.6086 7.35732C11.624 7.35222 11.6419 7.34456 11.6599 7.33691C11.6778 7.32926 11.6958 7.32161 11.7111 7.3165C12.2444 7.07163 12.6751 6.64311 12.9007 6.08194L12.9827 5.88809C13.0648 5.69423 13.3211 5.66362 13.4442 5.83707C14.162 6.88798 15.3619 7.51036 16.6335 7.51036H19.8535C20.0335 7.51036 20.9356 7.59773 20.9893 8.84257L20.8706 11.9156C20.7473 14.7181 18.5588 16.6 15.8873 16.6C13.2159 16.6 11.0274 14.7181 10.9041 11.9156L10.8067 9.36731Z" fill="url(#paint57_radial_3987_24142)"/>
<path d="M10.8067 9.36731H10.819L10.8087 9.10203L10.7985 8.79594C10.819 7.84706 11.3727 7.47975 11.6086 7.35732C11.624 7.35222 11.6419 7.34456 11.6599 7.33691C11.6778 7.32926 11.6958 7.32161 11.7111 7.3165C12.2444 7.07163 12.6751 6.64311 12.9007 6.08194L12.9827 5.88809C13.0648 5.69423 13.3211 5.66362 13.4442 5.83707C14.162 6.88798 15.3619 7.51036 16.6335 7.51036H19.8535C20.0335 7.51036 20.9356 7.59773 20.9893 8.84257L20.8706 11.9156C20.7473 14.7181 18.5588 16.6 15.8873 16.6C13.2159 16.6 11.0274 14.7181 10.9041 11.9156L10.8067 9.36731Z" fill="url(#paint58_radial_3987_24142)"/>
<path d="M10.8067 9.36731H10.819L10.8087 9.10203L10.7985 8.79594C10.819 7.84706 11.3727 7.47975 11.6086 7.35732C11.624 7.35222 11.6419 7.34456 11.6599 7.33691C11.6778 7.32926 11.6958 7.32161 11.7111 7.3165C12.2444 7.07163 12.6751 6.64311 12.9007 6.08194L12.9827 5.88809C13.0648 5.69423 13.3211 5.66362 13.4442 5.83707C14.162 6.88798 15.3619 7.51036 16.6335 7.51036H19.8535C20.0335 7.51036 20.9356 7.59773 20.9893 8.84257L20.8706 11.9156C20.7473 14.7181 18.5588 16.6 15.8873 16.6C13.2159 16.6 11.0274 14.7181 10.9041 11.9156L10.8067 9.36731Z" fill="url(#paint59_radial_3987_24142)"/>
<path d="M10.8067 9.36731H10.819L10.8087 9.10203L10.7985 8.79594C10.819 7.84706 11.3727 7.47975 11.6086 7.35732C11.624 7.35222 11.6419 7.34456 11.6599 7.33691C11.6778 7.32926 11.6958 7.32161 11.7111 7.3165C12.2444 7.07163 12.6751 6.64311 12.9007 6.08194L12.9827 5.88809C13.0648 5.69423 13.3211 5.66362 13.4442 5.83707C14.162 6.88798 15.3619 7.51036 16.6335 7.51036H19.8535C20.0335 7.51036 20.9356 7.59773 20.9893 8.84257L20.8706 11.9156C20.7473 14.7181 18.5588 16.6 15.8873 16.6C13.2159 16.6 11.0274 14.7181 10.9041 11.9156L10.8067 9.36731Z" fill="url(#paint60_radial_3987_24142)"/>
<path d="M10.8067 9.36731H10.819L10.8087 9.10203L10.7985 8.79594C10.819 7.84706 11.3727 7.47975 11.6086 7.35732C11.624 7.35222 11.6419 7.34456 11.6599 7.33691C11.6778 7.32926 11.6958 7.32161 11.7111 7.3165C12.2444 7.07163 12.6751 6.64311 12.9007 6.08194L12.9827 5.88809C13.0648 5.69423 13.3211 5.66362 13.4442 5.83707C14.162 6.88798 15.3619 7.51036 16.6335 7.51036H19.8535C20.0335 7.51036 20.9356 7.59773 20.9893 8.84257L20.8706 11.9156C20.7473 14.7181 18.5588 16.6 15.8873 16.6C13.2159 16.6 11.0274 14.7181 10.9041 11.9156L10.8067 9.36731Z" fill="url(#paint61_radial_3987_24142)"/>
<path d="M10.8067 9.36731H10.819L10.8087 9.10203L10.7985 8.79594C10.819 7.84706 11.3727 7.47975 11.6086 7.35732C11.624 7.35222 11.6419 7.34456 11.6599 7.33691C11.6778 7.32926 11.6958 7.32161 11.7111 7.3165C12.2444 7.07163 12.6751 6.64311 12.9007 6.08194L12.9827 5.88809C13.0648 5.69423 13.3211 5.66362 13.4442 5.83707C14.162 6.88798 15.3619 7.51036 16.6335 7.51036H19.8535C20.0335 7.51036 20.9356 7.59773 20.9893 8.84257L20.8706 11.9156C20.7473 14.7181 18.5588 16.6 15.8873 16.6C13.2159 16.6 11.0274 14.7181 10.9041 11.9156L10.8067 9.36731Z" fill="url(#paint62_radial_3987_24142)"/>
</g>
<path d="M10.8067 9.36731H10.819L10.8087 9.10203L10.7985 8.79594C10.819 7.84706 11.3727 7.47975 11.6086 7.35732C11.624 7.35222 11.6419 7.34456 11.6599 7.33691C11.6778 7.32926 11.6958 7.32161 11.7111 7.3165C12.2444 7.07163 12.6751 6.64311 12.9007 6.08194L12.9827 5.88809C13.0648 5.69423 13.3211 5.66362 13.4442 5.83707C14.162 6.88798 15.3619 7.51036 16.6335 7.51036H19.8535C20.0335 7.51036 20.9356 7.59773 20.9893 8.84257L20.8706 11.9156C20.7473 14.7181 18.5588 16.6 15.8873 16.6C13.2159 16.6 11.0274 14.7181 10.9041 11.9156L10.8067 9.36731Z" fill="url(#paint63_radial_3987_24142)"/>
<g filter="url(#filter12_f_3987_24142)">
<path d="M15.5014 10.4074L14.8178 12.1074C14.7093 12.4571 14.9696 12.8068 15.3384 12.8068H16.1248C16.4936 12.8068 16.7539 12.4517 16.6454 12.1074L16.1139 10.4074C16.0001 10.0309 15.6207 10.0309 15.5014 10.4074Z" fill="#EB8B29"/>
</g>
<g filter="url(#filter13_f_3987_24142)">
<path d="M15.5116 10.2688L14.9801 11.9688C14.8717 12.3185 15.132 12.6681 15.5008 12.6681H16.2871C16.6559 12.6681 16.9162 12.3131 16.8078 11.9688L16.2763 10.2688C16.1624 9.89218 15.6309 9.89218 15.5116 10.2688Z" fill="url(#paint64_linear_3987_24142)"/>
<path d="M15.5116 10.2688L14.9801 11.9688C14.8717 12.3185 15.132 12.6681 15.5008 12.6681H16.2871C16.6559 12.6681 16.9162 12.3131 16.8078 11.9688L16.2763 10.2688C16.1624 9.89218 15.6309 9.89218 15.5116 10.2688Z" fill="url(#paint65_radial_3987_24142)"/>
<path d="M15.5116 10.2688L14.9801 11.9688C14.8717 12.3185 15.132 12.6681 15.5008 12.6681H16.2871C16.6559 12.6681 16.9162 12.3131 16.8078 11.9688L16.2763 10.2688C16.1624 9.89218 15.6309 9.89218 15.5116 10.2688Z" fill="url(#paint66_linear_3987_24142)"/>
<path d="M15.5116 10.2688L14.9801 11.9688C14.8717 12.3185 15.132 12.6681 15.5008 12.6681H16.2871C16.6559 12.6681 16.9162 12.3131 16.8078 11.9688L16.2763 10.2688C16.1624 9.89218 15.6309 9.89218 15.5116 10.2688Z" fill="url(#paint67_linear_3987_24142)"/>
</g>
<path d="M15.5116 10.2688L14.9801 11.9688C14.8717 12.3185 15.132 12.6681 15.5008 12.6681H16.2871C16.6559 12.6681 16.9162 12.3131 16.8078 11.9688L16.2763 10.2688C16.1624 9.89218 15.6309 9.89218 15.5116 10.2688Z" fill="url(#paint68_linear_3987_24142)"/>
<path d="M15.5116 10.2688L14.9801 11.9688C14.8717 12.3185 15.132 12.6681 15.5008 12.6681H16.2871C16.6559 12.6681 16.9162 12.3131 16.8078 11.9688L16.2763 10.2688C16.1624 9.89218 15.6309 9.89218 15.5116 10.2688Z" fill="url(#paint69_radial_3987_24142)"/>
<path d="M14.4958 13.1527L14.4958 13.1527L14.4954 13.1525C14.4023 13.1041 14.3055 13.1344 14.2482 13.1961C14.1908 13.2579 14.1685 13.3563 14.2275 13.4438C14.58 13.9898 15.1941 14.3541 15.8939 14.3541C16.5938 14.3541 17.2081 13.9896 17.5605 13.4434C17.6187 13.3541 17.5976 13.2558 17.5393 13.1939C17.4815 13.1325 17.3847 13.1045 17.2924 13.1525L17.2924 13.1525L17.292 13.1527C16.888 13.3681 16.4118 13.4915 15.8939 13.4915C15.3811 13.4915 14.8997 13.3681 14.4958 13.1527Z" fill="#8A004F" stroke="url(#paint70_linear_3987_24142)" stroke-width="0.1"/>
<g filter="url(#filter14_i_3987_24142)">
<path d="M17.036 10.0611C17.3014 9.5943 17.7049 9.22559 18.5734 9.22559C18.9536 9.22559 19.3203 9.33093 19.6462 9.5943C19.915 9.81154 19.879 10.0895 19.6708 10.1936L19.1148 10.511C18.4629 10.3003 17.7422 10.2718 17.036 10.0611Z" fill="#635D5F"/>
</g>
<g filter="url(#filter15_i_3987_24142)">
<path d="M14.752 10.0611C14.4865 9.5943 14.0831 9.22559 13.2146 9.22559C12.8344 9.22559 12.4677 9.33093 12.1418 9.5943C11.873 9.81154 11.909 10.0895 12.1171 10.1936L12.6732 10.511C13.325 10.3003 14.0458 10.2718 14.752 10.0611Z" fill="#635D5F"/>
</g>
<g filter="url(#filter16_i_3987_24142)">
<path d="M12.4964 8.85223L12.492 8.85476C12.4918 8.85484 12.4917 8.85492 12.4916 8.85499C12.3646 8.93077 12.2001 8.8896 12.124 8.76277C12.0478 8.63577 12.0892 8.47094 12.2162 8.39474L12.2167 8.3944L12.2178 8.39378L12.2207 8.39204L12.2301 8.3866C12.238 8.38213 12.2488 8.37603 12.2626 8.36858C12.2901 8.35368 12.3292 8.33333 12.3786 8.3098C12.4771 8.26283 12.6175 8.20269 12.7887 8.14806C13.1286 8.03959 13.6039 7.94834 14.117 8.03888C14.2628 8.06462 14.3602 8.20373 14.3345 8.34958C14.3087 8.49544 14.1696 8.59282 14.0237 8.56708C13.625 8.49671 13.2421 8.56637 12.9518 8.65903C12.8078 8.70498 12.6902 8.75546 12.6093 8.79397C12.569 8.81319 12.5382 8.82929 12.5181 8.84016C12.5081 8.84559 12.5008 8.8497 12.4964 8.85223Z" fill="#BD4F26"/>
</g>
<g filter="url(#filter17_i_3987_24142)">
<path fill-rule="evenodd" clip-rule="evenodd" d="M19.6255 8.39474C19.6255 8.39479 19.6256 8.39483 19.4876 8.6248L19.6255 8.39474C19.7525 8.47094 19.7938 8.63577 19.7176 8.76277C19.6415 8.88961 19.4771 8.93085 19.3502 8.85507C19.3501 8.85502 19.3499 8.85493 19.3497 8.85479L19.3453 8.85223C19.3409 8.8497 19.3335 8.84559 19.3235 8.84016C19.3035 8.82929 19.2726 8.81319 19.2323 8.79397C19.1515 8.75546 19.0338 8.70498 18.8898 8.65903C18.5995 8.56637 18.2166 8.49671 17.8179 8.56708C17.672 8.59282 17.5329 8.49544 17.5072 8.34958C17.4814 8.20373 17.5788 8.06462 17.7247 8.03888C18.2378 7.94834 18.713 8.03959 19.0529 8.14806C19.2241 8.20269 19.3645 8.26283 19.4631 8.3098C19.5124 8.33333 19.5516 8.35368 19.579 8.36858C19.5928 8.37603 19.6037 8.38213 19.6115 8.3866L19.6209 8.39204L19.6239 8.39378L19.6249 8.3944L19.6255 8.39474Z" fill="#BD4F26"/>
</g>
<path d="M18.2849 9.28418C18.938 9.28418 19.4897 9.73446 19.6398 10.3429C19.6844 10.5174 19.5506 10.6837 19.3721 10.6837H17.141C16.999 10.6837 16.8854 10.5539 16.9138 10.4119C17.0396 9.77097 17.6034 9.28418 18.2849 9.28418Z" fill="white"/>
<path d="M18.078 9.55566C18.5729 9.55566 18.9705 9.95727 18.9705 10.4481C18.9705 10.5292 18.9583 10.6104 18.938 10.6834H17.214C17.1937 10.6063 17.1815 10.5292 17.1815 10.4481C17.1815 9.95727 17.5831 9.55566 18.078 9.55566Z" fill="url(#paint71_radial_3987_24142)"/>
<path d="M17.5669 10.4481C17.5669 10.1642 17.7941 9.93701 18.078 9.93701C18.362 9.93701 18.5892 10.1642 18.5892 10.4481C18.5892 10.5333 18.5689 10.6145 18.5324 10.6834H17.6277C17.5872 10.6145 17.5669 10.5333 17.5669 10.4481Z" fill="black"/>
<g filter="url(#filter18_f_3987_24142)">
<path d="M18.0118 9.74504C18.0753 9.83001 17.9425 9.9336 17.7915 10.0465C17.6406 10.1594 17.5285 10.2388 17.465 10.1539C17.4015 10.0689 17.4724 9.90848 17.6234 9.79559C17.7744 9.6827 17.9483 9.66006 18.0118 9.74504Z" fill="#C7A7A3"/>
<path d="M18.0118 9.74504C18.0753 9.83001 17.9425 9.9336 17.7915 10.0465C17.6406 10.1594 17.5285 10.2388 17.465 10.1539C17.4015 10.0689 17.4724 9.90848 17.6234 9.79559C17.7744 9.6827 17.9483 9.66006 18.0118 9.74504Z" fill="url(#paint72_radial_3987_24142)"/>
</g>
<g filter="url(#filter19_f_3987_24142)">
<path d="M18.8725 10.3305C18.8396 10.1 18.7047 9.92622 18.6414 9.86816L18.3817 10.1532L18.4989 10.3812L18.8725 10.3305Z" fill="url(#paint73_linear_3987_24142)"/>
</g>
<path d="M13.503 9.28418C12.8498 9.28418 12.2981 9.73446 12.1481 10.343C12.1034 10.5174 12.2373 10.6837 12.4158 10.6837H14.6469C14.7889 10.6837 14.9025 10.5539 14.8741 10.4119C14.7483 9.77097 14.1804 9.28418 13.503 9.28418Z" fill="white"/>
<path d="M13.7098 9.55566C13.2149 9.55566 12.8174 9.95727 12.8174 10.4481C12.8174 10.5292 12.8296 10.6104 12.8498 10.6834H14.5739C14.5942 10.6063 14.6063 10.5292 14.6063 10.4481C14.6023 9.95727 14.2047 9.55566 13.7098 9.55566Z" fill="url(#paint74_radial_3987_24142)"/>
<path d="M14.2209 10.4481C14.2209 10.1642 13.9937 9.93701 13.7097 9.93701C13.4258 9.93701 13.1986 10.1642 13.1986 10.4481C13.1986 10.5333 13.2189 10.6145 13.2554 10.6834H14.16C14.1965 10.6145 14.2209 10.5333 14.2209 10.4481Z" fill="black"/>
<g filter="url(#filter20_f_3987_24142)">
<path d="M14.5247 10.343C14.5247 10.0549 14.2903 9.86274 14.227 9.80469L13.9388 10.0834L14.1162 10.4444L14.5247 10.343Z" fill="url(#paint75_linear_3987_24142)"/>
</g>
<g filter="url(#filter21_f_3987_24142)">
<ellipse cx="13.4403" cy="9.93716" rx="0.389289" ry="0.197016" transform="rotate(-27.914 13.4403 9.93716)" fill="#C7A7A3" fill-opacity="0.9"/>
<ellipse cx="13.4403" cy="9.93716" rx="0.389289" ry="0.197016" transform="rotate(-27.914 13.4403 9.93716)" fill="url(#paint76_radial_3987_24142)"/>
</g>
<g filter="url(#filter22_f_3987_24142)">
<path d="M17.8334 8.25749C18.1559 8.17902 18.958 8.21825 19.4941 8.60184" stroke="#C9725D" stroke-width="0.4" stroke-linecap="round"/>
</g>
<g filter="url(#filter23_f_3987_24142)">
<path d="M14.0425 8.25749C13.7199 8.17902 12.9179 8.21825 12.3817 8.60184" stroke="#C9725D" stroke-width="0.4" stroke-linecap="round"/>
</g>
<g filter="url(#filter24_f_3987_24142)">
<path d="M10.9998 4.61614C11.6208 4.06302 12.5167 4.05743 13.0195 4.14682L13.4218 5.43744C13.1648 5.39833 12.9357 5.48773 12.7429 5.67211C12.287 6.93256 10.7204 7.62759 9.99409 7.81755C9.84324 6.3258 9.92704 5.57154 10.9998 4.61614Z" fill="url(#paint77_radial_3987_24142)"/>
<path d="M10.9998 4.61614C11.6208 4.06302 12.5167 4.05743 13.0195 4.14682L13.4218 5.43744C13.1648 5.39833 12.9357 5.48773 12.7429 5.67211C12.287 6.93256 10.7204 7.62759 9.99409 7.81755C9.84324 6.3258 9.92704 5.57154 10.9998 4.61614Z" fill="url(#paint78_radial_3987_24142)"/>
</g>
<g filter="url(#filter25_f_3987_24142)">
<path d="M15.2906 2.83947C14.1579 2.5894 12.944 3.79487 12.8267 4.2139C14.3687 7.83434 16.7365 7.48931 19.3636 7.19741C20.9362 7.02268 21.1067 7.73936 21.2408 8.08576C20.805 4.02952 17.8718 3.40936 15.2906 2.83947Z" fill="url(#paint79_radial_3987_24142)"/>
<path d="M15.2906 2.83947C14.1579 2.5894 12.944 3.79487 12.8267 4.2139C14.3687 7.83434 16.7365 7.48931 19.3636 7.19741C20.9362 7.02268 21.1067 7.73936 21.2408 8.08576C20.805 4.02952 17.8718 3.40936 15.2906 2.83947Z" fill="url(#paint80_radial_3987_24142)"/>
<path d="M15.2906 2.83947C14.1579 2.5894 12.944 3.79487 12.8267 4.2139C14.3687 7.83434 16.7365 7.48931 19.3636 7.19741C20.9362 7.02268 21.1067 7.73936 21.2408 8.08576C20.805 4.02952 17.8718 3.40936 15.2906 2.83947Z" fill="url(#paint81_radial_3987_24142)"/>
</g>
<g filter="url(#filter26_f_3987_24142)">
<path d="M13.0027 4.08789C13.026 4.33093 13.2373 5.24442 13.5474 5.79754" stroke="url(#paint82_linear_3987_24142)" stroke-width="0.1" stroke-linecap="round"/>
</g>
<defs>
<filter id="filter0_i_3987_24142" x="8.38489" y="1.85205" width="15.2681" height="15.2681" filterUnits="userSpaceOnUse" color-interpolation-filters="sRGB">
<feFlood flood-opacity="0" result="BackgroundImageFix"/>
<feBlend mode="normal" in="SourceGraphic" in2="BackgroundImageFix" result="shape"/>
<feColorMatrix in="SourceAlpha" type="matrix" values="0 0 0 0 0 0 0 0 0 0 0 0 0 0 0 0 0 0 127 0" result="hardAlpha"/>
<feOffset dx="0.25" dy="-0.25"/>
<feGaussianBlur stdDeviation="0.375"/>
<feComposite in2="hardAlpha" operator="arithmetic" k2="-1" k3="1"/>
<feColorMatrix type="matrix" values="0 0 0 0 0.92549 0 0 0 0 0.537255 0 0 0 0 0.12549 0 0 0 1 0"/>
<feBlend mode="normal" in2="shape" result="effect1_innerShadow_3987_24142"/>
</filter>
<filter id="filter1_f_3987_24142" x="8.92346" y="15.7979" width="7.14667" height="11.5571" filterUnits="userSpaceOnUse" color-interpolation-filters="sRGB">
<feFlood flood-opacity="0" result="BackgroundImageFix"/>
<feBlend mode="normal" in="SourceGraphic" in2="BackgroundImageFix" result="shape"/>
<feGaussianBlur stdDeviation="0.5" result="effect1_foregroundBlur_3987_24142"/>
</filter>
<filter id="filter2_f_3987_24142" x="15.8176" y="15.7979" width="7.14667" height="11.5571" filterUnits="userSpaceOnUse" color-interpolation-filters="sRGB">
<feFlood flood-opacity="0" result="BackgroundImageFix"/>
<feBlend mode="normal" in="SourceGraphic" in2="BackgroundImageFix" result="shape"/>
<feGaussianBlur stdDeviation="0.5" result="effect1_foregroundBlur_3987_24142"/>
</filter>
<filter id="filter3_f_3987_24142" x="16.8889" y="24.0098" width="3.69876" height="3.69873" filterUnits="userSpaceOnUse" color-interpolation-filters="sRGB">
<feFlood flood-opacity="0" result="BackgroundImageFix"/>
<feBlend mode="normal" in="SourceGraphic" in2="BackgroundImageFix" result="shape"/>
<feGaussianBlur stdDeviation="0.375" result="effect1_foregroundBlur_3987_24142"/>
</filter>
<filter id="filter4_i_3987_24142" x="18.8589" y="24.7598" width="1.42001" height="1.41992" filterUnits="userSpaceOnUse" color-interpolation-filters="sRGB">
<feFlood flood-opacity="0" result="BackgroundImageFix"/>
<feBlend mode="normal" in="SourceGraphic" in2="BackgroundImageFix" result="shape"/>
<feColorMatrix in="SourceAlpha" type="matrix" values="0 0 0 0 0 0 0 0 0 0 0 0 0 0 0 0 0 0 127 0" result="hardAlpha"/>
<feOffset/>
<feGaussianBlur stdDeviation="0.1"/>
<feComposite in2="hardAlpha" operator="arithmetic" k2="-1" k3="1"/>
<feColorMatrix type="matrix" values="0 0 0 0 0.14902 0 0 0 0 0.411765 0 0 0 0 0.721569 0 0 0 1 0"/>
<feBlend mode="normal" in2="shape" result="effect1_innerShadow_3987_24142"/>
</filter>
<filter id="filter5_i_3987_24142" x="9.40833" y="19.6794" width="5.3812" height="7.17119" filterUnits="userSpaceOnUse" color-interpolation-filters="sRGB">
<feFlood flood-opacity="0" result="BackgroundImageFix"/>
<feBlend mode="normal" in="SourceGraphic" in2="BackgroundImageFix" result="shape"/>
<feColorMatrix in="SourceAlpha" type="matrix" values="0 0 0 0 0 0 0 0 0 0 0 0 0 0 0 0 0 0 127 0" result="hardAlpha"/>
<feOffset dy="-0.2"/>
<feGaussianBlur stdDeviation="0.1"/>
<feComposite in2="hardAlpha" operator="arithmetic" k2="-1" k3="1"/>
<feColorMatrix type="matrix" values="0 0 0 0 0.333333 0 0 0 0 0.239216 0 0 0 0 0.501961 0 0 0 1 0"/>
<feBlend mode="normal" in2="shape" result="effect1_innerShadow_3987_24142"/>
</filter>
<filter id="filter6_f_3987_24142" x="9.47432" y="19.8538" width="5.29998" height="6.89004" filterUnits="userSpaceOnUse" color-interpolation-filters="sRGB">
<feFlood flood-opacity="0" result="BackgroundImageFix"/>
<feBlend mode="normal" in="SourceGraphic" in2="BackgroundImageFix" result="shape"/>
<feGaussianBlur stdDeviation="0.15" result="effect1_foregroundBlur_3987_24142"/>
</filter>
<filter id="filter7_i_3987_24142" x="9.59912" y="9.021" width="3.36817" height="3.46826" filterUnits="userSpaceOnUse" color-interpolation-filters="sRGB">
<feFlood flood-opacity="0" result="BackgroundImageFix"/>
<feBlend mode="normal" in="SourceGraphic" in2="BackgroundImageFix" result="shape"/>
<feColorMatrix in="SourceAlpha" type="matrix" values="0 0 0 0 0 0 0 0 0 0 0 0 0 0 0 0 0 0 127 0" result="hardAlpha"/>
<feOffset dx="0.15" dy="0.25"/>
<feGaussianBlur stdDeviation="0.25"/>
<feComposite in2="hardAlpha" operator="arithmetic" k2="-1" k3="1"/>
<feColorMatrix type="matrix" values="0 0 0 0 0.835294 0 0 0 0 0.627451 0 0 0 0 0.305882 0 0 0 1 0"/>
<feBlend mode="normal" in2="shape" result="effect1_innerShadow_3987_24142"/>
</filter>
<filter id="filter8_i_3987_24142" x="19.1121" y="8.771" width="3.21817" height="3.46826" filterUnits="userSpaceOnUse" color-interpolation-filters="sRGB">
<feFlood flood-opacity="0" result="BackgroundImageFix"/>
<feBlend mode="normal" in="SourceGraphic" in2="BackgroundImageFix" result="shape"/>
<feColorMatrix in="SourceAlpha" type="matrix" values="0 0 0 0 0 0 0 0 0 0 0 0 0 0 0 0 0 0 127 0" result="hardAlpha"/>
<feOffset dy="-0.25"/>
<feGaussianBlur stdDeviation="0.25"/>
<feComposite in2="hardAlpha" operator="arithmetic" k2="-1" k3="1"/>
<feColorMatrix type="matrix" values="0 0 0 0 0.937255 0 0 0 0 0.576471 0 0 0 0 0.341176 0 0 0 1 0"/>
<feBlend mode="normal" in2="shape" result="effect1_innerShadow_3987_24142"/>
</filter>
<filter id="filter9_f_3987_24142" x="19.1471" y="9.05566" width="3.14822" height="3.14844" filterUnits="userSpaceOnUse" color-interpolation-filters="sRGB">
<feFlood flood-opacity="0" result="BackgroundImageFix"/>
<feBlend mode="normal" in="SourceGraphic" in2="BackgroundImageFix" result="shape"/>
<feGaussianBlur stdDeviation="0.25" result="effect1_foregroundBlur_3987_24142"/>
</filter>
<filter id="filter10_f_3987_24142" x="9.90344" y="9.30566" width="2.64822" height="2.64844" filterUnits="userSpaceOnUse" color-interpolation-filters="sRGB">
<feFlood flood-opacity="0" result="BackgroundImageFix"/>
<feBlend mode="normal" in="SourceGraphic" in2="BackgroundImageFix" result="shape"/>
<feGaussianBlur stdDeviation="0.125" result="effect1_foregroundBlur_3987_24142"/>
</filter>
<filter id="filter11_i_3987_24142" x="10.7985" y="5.72314" width="10.1909" height="11.077" filterUnits="userSpaceOnUse" color-interpolation-filters="sRGB">
<feFlood flood-opacity="0" result="BackgroundImageFix"/>
<feBlend mode="normal" in="SourceGraphic" in2="BackgroundImageFix" result="shape"/>
<feColorMatrix in="SourceAlpha" type="matrix" values="0 0 0 0 0 0 0 0 0 0 0 0 0 0 0 0 0 0 127 0" result="hardAlpha"/>
<feOffset dy="0.2"/>
<feGaussianBlur stdDeviation="0.15"/>
<feComposite in2="hardAlpha" operator="arithmetic" k2="-1" k3="1"/>
<feColorMatrix type="matrix" values="0 0 0 0 0.92549 0 0 0 0 0.529412 0 0 0 0 0.137255 0 0 0 1 0"/>
<feBlend mode="normal" in2="shape" result="effect1_innerShadow_3987_24142"/>
</filter>
<filter id="filter12_f_3987_24142" x="14.293" y="9.625" width="2.87726" height="3.68164" filterUnits="userSpaceOnUse" color-interpolation-filters="sRGB">
<feFlood flood-opacity="0" result="BackgroundImageFix"/>
<feBlend mode="normal" in="SourceGraphic" in2="BackgroundImageFix" result="shape"/>
<feGaussianBlur stdDeviation="0.25" result="effect1_foregroundBlur_3987_24142"/>
</filter>
<filter id="filter13_f_3987_24142" x="14.7053" y="9.73633" width="2.37726" height="3.18164" filterUnits="userSpaceOnUse" color-interpolation-filters="sRGB">
<feFlood flood-opacity="0" result="BackgroundImageFix"/>
<feBlend mode="normal" in="SourceGraphic" in2="BackgroundImageFix" result="shape"/>
<feGaussianBlur stdDeviation="0.125" result="effect1_foregroundBlur_3987_24142"/>
</filter>
<filter id="filter14_i_3987_24142" x="16.836" y="9.22559" width="3.00139" height="1.28564" filterUnits="userSpaceOnUse" color-interpolation-filters="sRGB">
<feFlood flood-opacity="0" result="BackgroundImageFix"/>
<feBlend mode="normal" in="SourceGraphic" in2="BackgroundImageFix" result="shape"/>
<feColorMatrix in="SourceAlpha" type="matrix" values="0 0 0 0 0 0 0 0 0 0 0 0 0 0 0 0 0 0 127 0" result="hardAlpha"/>
<feOffset dx="-0.2"/>
<feGaussianBlur stdDeviation="0.2"/>
<feComposite in2="hardAlpha" operator="arithmetic" k2="-1" k3="1"/>
<feColorMatrix type="matrix" values="0 0 0 0 0.141176 0 0 0 0 0.0862745 0 0 0 0 0.176471 0 0 0 1 0"/>
<feBlend mode="normal" in2="shape" result="effect1_innerShadow_3987_24142"/>
</filter>
<filter id="filter15_i_3987_24142" x="11.9506" y="9.22559" width="3.00139" height="1.28564" filterUnits="userSpaceOnUse" color-interpolation-filters="sRGB">
<feFlood flood-opacity="0" result="BackgroundImageFix"/>
<feBlend mode="normal" in="SourceGraphic" in2="BackgroundImageFix" result="shape"/>
<feColorMatrix in="SourceAlpha" type="matrix" values="0 0 0 0 0 0 0 0 0 0 0 0 0 0 0 0 0 0 127 0" result="hardAlpha"/>
<feOffset dx="0.2"/>
<feGaussianBlur stdDeviation="0.125"/>
<feComposite in2="hardAlpha" operator="arithmetic" k2="-1" k3="1"/>
<feColorMatrix type="matrix" values="0 0 0 0 0.133333 0 0 0 0 0.0784314 0 0 0 0 0.168627 0 0 0 1 0"/>
<feBlend mode="normal" in2="shape" result="effect1_innerShadow_3987_24142"/>
</filter>
<filter id="filter16_i_3987_24142" x="12.0858" y="7.80195" width="2.45278" height="1.09111" filterUnits="userSpaceOnUse" color-interpolation-filters="sRGB">
<feFlood flood-opacity="0" result="BackgroundImageFix"/>
<feBlend mode="normal" in="SourceGraphic" in2="BackgroundImageFix" result="shape"/>
<feColorMatrix in="SourceAlpha" type="matrix" values="0 0 0 0 0 0 0 0 0 0 0 0 0 0 0 0 0 0 127 0" result="hardAlpha"/>
<feOffset dx="0.2" dy="-0.2"/>
<feGaussianBlur stdDeviation="0.15"/>
<feComposite in2="hardAlpha" operator="arithmetic" k2="-1" k3="1"/>
<feColorMatrix type="matrix" values="0 0 0 0 0.658824 0 0 0 0 0.270588 0 0 0 0 0.141176 0 0 0 1 0"/>
<feBlend mode="normal" in2="shape" result="effect1_innerShadow_3987_24142"/>
</filter>
<filter id="filter17_i_3987_24142" x="17.5031" y="7.80195" width="2.45278" height="1.09111" filterUnits="userSpaceOnUse" color-interpolation-filters="sRGB">
<feFlood flood-opacity="0" result="BackgroundImageFix"/>
<feBlend mode="normal" in="SourceGraphic" in2="BackgroundImageFix" result="shape"/>
<feColorMatrix in="SourceAlpha" type="matrix" values="0 0 0 0 0 0 0 0 0 0 0 0 0 0 0 0 0 0 127 0" result="hardAlpha"/>
<feOffset dx="0.2" dy="-0.2"/>
<feGaussianBlur stdDeviation="0.15"/>
<feComposite in2="hardAlpha" operator="arithmetic" k2="-1" k3="1"/>
<feColorMatrix type="matrix" values="0 0 0 0 0.658824 0 0 0 0 0.270588 0 0 0 0 0.141176 0 0 0 1 0"/>
<feBlend mode="normal" in2="shape" result="effect1_innerShadow_3987_24142"/>
</filter>
<filter id="filter18_f_3987_24142" x="17.3417" y="9.59336" width="0.786365" height="0.696094" filterUnits="userSpaceOnUse" color-interpolation-filters="sRGB">
<feFlood flood-opacity="0" result="BackgroundImageFix"/>
<feBlend mode="normal" in="SourceGraphic" in2="BackgroundImageFix" result="shape"/>
<feGaussianBlur stdDeviation="0.05" result="effect1_foregroundBlur_3987_24142"/>
</filter>
<filter id="filter19_f_3987_24142" x="18.1817" y="9.66816" width="0.890845" height="0.913184" filterUnits="userSpaceOnUse" color-interpolation-filters="sRGB">
<feFlood flood-opacity="0" result="BackgroundImageFix"/>
<feBlend mode="normal" in="SourceGraphic" in2="BackgroundImageFix" result="shape"/>
<feGaussianBlur stdDeviation="0.1" result="effect1_foregroundBlur_3987_24142"/>
</filter>
<filter id="filter20_f_3987_24142" x="13.7388" y="9.60469" width="0.985846" height="1.03965" filterUnits="userSpaceOnUse" color-interpolation-filters="sRGB">
<feFlood flood-opacity="0" result="BackgroundImageFix"/>
<feBlend mode="normal" in="SourceGraphic" in2="BackgroundImageFix" result="shape"/>
<feGaussianBlur stdDeviation="0.1" result="effect1_foregroundBlur_3987_24142"/>
</filter>
<filter id="filter21_f_3987_24142" x="12.984" y="9.58506" width="0.912463" height="0.703906" filterUnits="userSpaceOnUse" color-interpolation-filters="sRGB">
<feFlood flood-opacity="0" result="BackgroundImageFix"/>
<feBlend mode="normal" in="SourceGraphic" in2="BackgroundImageFix" result="shape"/>
<feGaussianBlur stdDeviation="0.05" result="effect1_foregroundBlur_3987_24142"/>
</filter>
<filter id="filter22_f_3987_24142" x="17.2333" y="7.62393" width="2.86082" height="1.57783" filterUnits="userSpaceOnUse" color-interpolation-filters="sRGB">
<feFlood flood-opacity="0" result="BackgroundImageFix"/>
<feBlend mode="normal" in="SourceGraphic" in2="BackgroundImageFix" result="shape"/>
<feGaussianBlur stdDeviation="0.2" result="effect1_foregroundBlur_3987_24142"/>
</filter>
<filter id="filter23_f_3987_24142" x="11.7817" y="7.62393" width="2.86082" height="1.57783" filterUnits="userSpaceOnUse" color-interpolation-filters="sRGB">
<feFlood flood-opacity="0" result="BackgroundImageFix"/>
<feBlend mode="normal" in="SourceGraphic" in2="BackgroundImageFix" result="shape"/>
<feGaussianBlur stdDeviation="0.2" result="effect1_foregroundBlur_3987_24142"/>
</filter>
<filter id="filter24_f_3987_24142" x="9.1864" y="3.354" width="4.98538" height="5.21338" filterUnits="userSpaceOnUse" color-interpolation-filters="sRGB">
<feFlood flood-opacity="0" result="BackgroundImageFix"/>
<feBlend mode="normal" in="SourceGraphic" in2="BackgroundImageFix" result="shape"/>
<feGaussianBlur stdDeviation="0.375" result="effect1_foregroundBlur_3987_24142"/>
</filter>
<filter id="filter25_f_3987_24142" x="12.5767" y="2.55566" width="8.91418" height="5.78027" filterUnits="userSpaceOnUse" color-interpolation-filters="sRGB">
<feFlood flood-opacity="0" result="BackgroundImageFix"/>
<feBlend mode="normal" in="SourceGraphic" in2="BackgroundImageFix" result="shape"/>
<feGaussianBlur stdDeviation="0.125" result="effect1_foregroundBlur_3987_24142"/>
</filter>
<filter id="filter26_f_3987_24142" x="12.7027" y="3.78809" width="1.14478" height="2.30957" filterUnits="userSpaceOnUse" color-interpolation-filters="sRGB">
<feFlood flood-opacity="0" result="BackgroundImageFix"/>
<feBlend mode="normal" in="SourceGraphic" in2="BackgroundImageFix" result="shape"/>
<feGaussianBlur stdDeviation="0.125" result="effect1_foregroundBlur_3987_24142"/>
</filter>
<linearGradient id="paint0_linear_3987_24142" x1="20.5872" y1="3.67763" x2="13.3459" y2="17.1202" gradientUnits="userSpaceOnUse">
<stop stop-color="#FFD93C"/>
<stop offset="1" stop-color="#E37923"/>
</linearGradient>
<radialGradient id="paint1_radial_3987_24142" cx="0" cy="0" r="1" gradientUnits="userSpaceOnUse" gradientTransform="translate(11.3229 12.6637) rotate(90) scale(4.45645 2.68487)">
<stop stop-color="#C9641B"/>
<stop offset="1" stop-color="#D77117" stop-opacity="0"/>
</radialGradient>
<radialGradient id="paint2_radial_3987_24142" cx="0" cy="0" r="1" gradientUnits="userSpaceOnUse" gradientTransform="translate(15.8939 12.7563) rotate(90) scale(5.57099 5.8032)">
<stop offset="0.617268" stop-color="#E26B25"/>
<stop offset="1" stop-color="#E26B25" stop-opacity="0"/>
</radialGradient>
<radialGradient id="paint3_radial_3987_24142" cx="0" cy="0" r="1" gradientUnits="userSpaceOnUse" gradientTransform="translate(10.9834 10.951) rotate(127.617) scale(2.03275 1.97369)">
<stop offset="0.161391" stop-color="#C9681C"/>
<stop offset="1" stop-color="#C9681C" stop-opacity="0"/>
</radialGradient>
<radialGradient id="paint4_radial_3987_24142" cx="0" cy="0" r="1" gradientUnits="userSpaceOnUse" gradientTransform="translate(11.5744 8.51435) rotate(100.537) scale(2.55689 2.06985)">
<stop offset="0.300355" stop-color="#D77016"/>
<stop offset="1" stop-color="#D77016" stop-opacity="0"/>
</radialGradient>
<radialGradient id="paint5_radial_3987_24142" cx="0" cy="0" r="1" gradientUnits="userSpaceOnUse" gradientTransform="translate(12.5573 3.4673) rotate(62.6046) scale(2.38097 4.53569)">
<stop offset="0.221806" stop-color="#CBA140"/>
<stop offset="0.921111" stop-color="#CBA140" stop-opacity="0"/>
</radialGradient>
<radialGradient id="paint6_radial_3987_24142" cx="0" cy="0" r="1" gradientUnits="userSpaceOnUse" gradientTransform="translate(21.3917 4.88444) rotate(132.51) scale(1.63713 2.28786)">
<stop stop-color="#FFDF3C"/>
<stop offset="1" stop-color="#FFDF3C" stop-opacity="0"/>
</radialGradient>
<radialGradient id="paint7_radial_3987_24142" cx="0" cy="0" r="1" gradientUnits="userSpaceOnUse" gradientTransform="translate(23.403 9.77875) rotate(163.779) scale(1.9201 4.17788)">
<stop stop-color="#FFD537"/>
<stop offset="1" stop-color="#FFD336" stop-opacity="0"/>
<stop offset="1" stop-color="#FFD537" stop-opacity="0"/>
</radialGradient>
<radialGradient id="paint8_radial_3987_24142" cx="0" cy="0" r="1" gradientUnits="userSpaceOnUse" gradientTransform="translate(23.089 23.9314) rotate(180) scale(10.8 20.6925)">
<stop stop-color="#EFEAFB"/>
<stop offset="1" stop-color="#D4CAE9"/>
</radialGradient>
<linearGradient id="paint9_linear_3987_24142" x1="23.203" y1="24.6111" x2="22.8905" y2="24.6112" gradientUnits="userSpaceOnUse">
<stop offset="0.224619" stop-color="#D4CCDC"/>
<stop offset="1" stop-color="#D4CCDC" stop-opacity="0"/>
</linearGradient>
<linearGradient id="paint10_linear_3987_24142" x1="8.62488" y1="24.6112" x2="8.96082" y2="24.6111" gradientUnits="userSpaceOnUse">
<stop offset="0.382979" stop-color="#B7AFC3"/>
<stop offset="1" stop-color="#B7AFC3" stop-opacity="0"/>
</linearGradient>
<linearGradient id="paint11_linear_3987_24142" x1="16.0702" y1="30.9626" x2="16.0702" y2="29.1501" gradientUnits="userSpaceOnUse">
<stop stop-color="#C8B7DE"/>
<stop offset="1" stop-color="#C8B7DE" stop-opacity="0"/>
</linearGradient>
<radialGradient id="paint12_radial_3987_24142" cx="0" cy="0" r="1" gradientUnits="userSpaceOnUse" gradientTransform="translate(21.9764 28.8064) rotate(-121.204) scale(16.5873 16.3485)">
<stop offset="0.587422" stop-color="#BEBAC5" stop-opacity="0"/>
<stop offset="1" stop-color="#BEBAC5"/>
</radialGradient>
<radialGradient id="paint13_radial_3987_24142" cx="0" cy="0" r="1" gradientUnits="userSpaceOnUse" gradientTransform="translate(17.9452 24.4939) rotate(77.1523) scale(3.65398 4.0429)">
<stop stop-color="#B2A6C7"/>
<stop offset="1" stop-color="#B2A6C7" stop-opacity="0"/>
</radialGradient>
<radialGradient id="paint14_radial_3987_24142" cx="0" cy="0" r="1" gradientUnits="userSpaceOnUse" gradientTransform="translate(15.8599 30.0002) rotate(-90) scale(7.97501 0.960268)">
<stop stop-color="#B1909E"/>
<stop offset="1" stop-color="#B1909E" stop-opacity="0"/>
</radialGradient>
<linearGradient id="paint15_linear_3987_24142" x1="8.70921" y1="15.4398" x2="23.0852" y2="15.4398" gradientUnits="userSpaceOnUse">
<stop offset="0.00558659" stop-color="#CCCCCC"/>
<stop offset="1" stop-color="#E6E6E6"/>
</linearGradient>
<linearGradient id="paint16_linear_3987_24142" x1="8.70921" y1="15.4095" x2="23.0852" y2="15.4095" gradientUnits="userSpaceOnUse">
<stop offset="0.00558659" stop-color="#CCCCCC"/>
<stop offset="1" stop-color="#E6E6E6"/>
</linearGradient>
<radialGradient id="paint17_radial_3987_24142" cx="0" cy="0" r="1" gradientUnits="userSpaceOnUse" gradientTransform="translate(5.22639 24.7125) rotate(5.18546) scale(3.45763 9.59957)">
<stop stop-color="#D3D0D5"/>
<stop offset="1" stop-color="#C8BFD6"/>
</radialGradient>
<radialGradient id="paint18_radial_3987_24142" cx="0" cy="0" r="1" gradientUnits="userSpaceOnUse" gradientTransform="translate(9.38264 17.775) rotate(107.994) scale(6.67657 7.47746)">
<stop stop-color="#C4C3C3"/>
<stop offset="1" stop-color="#C4C3C3" stop-opacity="0"/>
</radialGradient>
<linearGradient id="paint19_linear_3987_24142" x1="6.88854" y1="30.7751" x2="6.88854" y2="29.3154" gradientUnits="userSpaceOnUse">
<stop stop-color="#C8B7DE"/>
<stop offset="1" stop-color="#C8B7DE" stop-opacity="0"/>
</linearGradient>
<radialGradient id="paint20_radial_3987_24142" cx="0" cy="0" r="1" gradientUnits="userSpaceOnUse" gradientTransform="translate(26.1249 21.9622) rotate(155.425) scale(3.38131 8.94377)">
<stop stop-color="#FCF9FF"/>
<stop offset="1" stop-color="#E6DDF3"/>
</radialGradient>
<radialGradient id="paint21_radial_3987_24142" cx="0" cy="0" r="1" gradientUnits="userSpaceOnUse" gradientTransform="translate(24.4374 20.3372) rotate(90) scale(11 8.46398)">
<stop offset="0.78098" stop-color="#D1C0E3" stop-opacity="0"/>
<stop offset="0.974432" stop-color="#D1C0E3"/>
</radialGradient>
<linearGradient id="paint22_linear_3987_24142" x1="22.5602" y1="25.6487" x2="23.3385" y2="25.6487" gradientUnits="userSpaceOnUse">
<stop offset="0.642857" stop-color="#D4CCDC"/>
<stop offset="1" stop-color="#D4CCDC" stop-opacity="0"/>
</linearGradient>
<radialGradient id="paint23_radial_3987_24142" cx="0" cy="0" r="1" gradientUnits="userSpaceOnUse" gradientTransform="translate(15.894 18.5564) rotate(90) scale(5.65625 3.01125)">
<stop offset="0.39779" stop-color="#785998"/>
<stop offset="1" stop-color="#512C71"/>
</radialGradient>
<radialGradient id="paint24_radial_3987_24142" cx="0" cy="0" r="1" gradientUnits="userSpaceOnUse" gradientTransform="translate(16.2577 30.4939) rotate(-90) scale(6.53125 2.8605)">
<stop offset="0.344498" stop-color="#574379"/>
<stop offset="1" stop-color="#574379" stop-opacity="0"/>
</radialGradient>
<linearGradient id="paint25_linear_3987_24142" x1="8.70921" y1="15.4398" x2="23.0852" y2="15.4398" gradientUnits="userSpaceOnUse">
<stop offset="0.00558659" stop-color="#CCCCCC"/>
<stop offset="1" stop-color="#E6E6E6"/>
</linearGradient>
<linearGradient id="paint26_linear_3987_24142" x1="8.70921" y1="15.4095" x2="23.0852" y2="15.4095" gradientUnits="userSpaceOnUse">
<stop offset="0.00558659" stop-color="#CCCCCC"/>
<stop offset="1" stop-color="#E6E6E6"/>
</linearGradient>
<linearGradient id="paint27_linear_3987_24142" x1="16.0702" y1="26.9938" x2="23.6952" y2="19.4" gradientUnits="userSpaceOnUse">
<stop stop-color="#AD9EC2"/>
<stop offset="1" stop-color="#D3CFDA"/>
</linearGradient>
<linearGradient id="paint28_linear_3987_24142" x1="21.784" y1="18.3892" x2="16.6688" y2="23.9074" gradientUnits="userSpaceOnUse">
<stop stop-color="#FDF6F9"/>
<stop offset="1" stop-color="#BDB2D2"/>
</linearGradient>
<linearGradient id="paint29_linear_3987_24142" x1="19.9384" y1="15.6704" x2="19.7808" y2="17.7327" gradientUnits="userSpaceOnUse">
<stop stop-color="#EDD8CE"/>
<stop offset="1" stop-color="#EDD8CE" stop-opacity="0"/>
</linearGradient>
<linearGradient id="paint30_linear_3987_24142" x1="17.4764" y1="18.9154" x2="18.6327" y2="19.3998" gradientUnits="userSpaceOnUse">
<stop stop-color="#B49089"/>
<stop offset="1" stop-color="#DED4E6" stop-opacity="0"/>
</linearGradient>
<radialGradient id="paint31_radial_3987_24142" cx="0" cy="0" r="1" gradientUnits="userSpaceOnUse" gradientTransform="translate(19.0325 18.1185) rotate(90) scale(6.1875 0.845588)">
<stop stop-color="#AA98A1"/>
<stop offset="1" stop-color="#DAD1E4" stop-opacity="0"/>
</radialGradient>
<radialGradient id="paint32_radial_3987_24142" cx="0" cy="0" r="1" gradientUnits="userSpaceOnUse" gradientTransform="translate(16.3404 26.5606) rotate(-48.5803) scale(4.06928 1.38982)">
<stop stop-color="#B7A3CF"/>
<stop offset="1" stop-color="#B7A3CF" stop-opacity="0"/>
</radialGradient>
<radialGradient id="paint33_radial_3987_24142" cx="0" cy="0" r="1" gradientUnits="userSpaceOnUse" gradientTransform="translate(19.0325 24.8685) rotate(-90) scale(4.84375 0.553272)">
<stop stop-color="#A298B4"/>
<stop offset="1" stop-color="#A298B4" stop-opacity="0"/>
</radialGradient>
<radialGradient id="paint34_radial_3987_24142" cx="0" cy="0" r="1" gradientUnits="userSpaceOnUse" gradientTransform="translate(14.3827 19.8373) rotate(158.705) scale(3.25339 6.38774)">
<stop offset="0.0876876" stop-color="#EFE1E3"/>
<stop offset="1" stop-color="#BDB0D0"/>
</radialGradient>
<radialGradient id="paint35_radial_3987_24142" cx="0" cy="0" r="1" gradientUnits="userSpaceOnUse" gradientTransform="translate(10.0237 24.9231) rotate(-69.7629) scale(10.0058 8.12328)">
<stop offset="0.691424" stop-color="#B3A299" stop-opacity="0"/>
<stop offset="1" stop-color="#B3A299"/>
</radialGradient>
<linearGradient id="paint36_linear_3987_24142" x1="12.164" y1="23.2123" x2="12.4921" y2="22.8529" gradientUnits="userSpaceOnUse">
<stop stop-color="#B2A6C6"/>
<stop offset="1" stop-color="#B2A6C6" stop-opacity="0"/>
</linearGradient>
<radialGradient id="paint37_radial_3987_24142" cx="0" cy="0" r="1" gradientUnits="userSpaceOnUse" gradientTransform="translate(10.1952 19.4935) rotate(-81.9606) scale(2.79307 2.13989)">
<stop stop-color="#CBC5CF"/>
<stop offset="1" stop-color="#BDB1AD" stop-opacity="0"/>
</radialGradient>
<radialGradient id="paint38_radial_3987_24142" cx="0" cy="0" r="1" gradientUnits="userSpaceOnUse" gradientTransform="translate(11.9921 18.3217) rotate(101.232) scale(2.24614 0.689606)">
<stop offset="0.438596" stop-color="#ADA5AB"/>
<stop offset="1" stop-color="#ADA5AB" stop-opacity="0"/>
</radialGradient>
<radialGradient id="paint39_radial_3987_24142" cx="0" cy="0" r="1" gradientUnits="userSpaceOnUse" gradientTransform="translate(12.3358 21.3373) rotate(49.2948) scale(2.80315 0.974245)">
<stop stop-color="#B5A9BF"/>
<stop offset="1" stop-color="#B5A9BF" stop-opacity="0"/>
</radialGradient>
<radialGradient id="paint40_radial_3987_24142" cx="0" cy="0" r="1" gradientUnits="userSpaceOnUse" gradientTransform="translate(15.8789 18.1502) rotate(-90) scale(3.21875 3.80462)">
<stop offset="0.218391" stop-color="#F1A128"/>
<stop offset="0.932039" stop-color="#A5630D"/>
</radialGradient>
<linearGradient id="paint41_linear_3987_24142" x1="20.2029" y1="23.681" x2="19.5311" y2="23.6967" gradientUnits="userSpaceOnUse">
<stop offset="0.293513" stop-color="#746992"/>
<stop offset="1" stop-color="#746992" stop-opacity="0"/>
</linearGradient>
<radialGradient id="paint42_radial_3987_24142" cx="0" cy="0" r="1" gradientUnits="userSpaceOnUse" gradientTransform="translate(18.3983 16.3842) rotate(90) scale(1.78125 1.30438)">
<stop offset="0.122807" stop-color="#552E54"/>
<stop offset="1" stop-color="#552E54" stop-opacity="0"/>
</radialGradient>
<radialGradient id="paint43_radial_3987_24142" cx="0" cy="0" r="1" gradientUnits="userSpaceOnUse" gradientTransform="translate(12.4764 20.0404) rotate(-90) scale(3.14062 0.59375)">
<stop stop-color="#716687"/>
<stop offset="1" stop-color="#716687" stop-opacity="0"/>
</radialGradient>
<radialGradient id="paint44_radial_3987_24142" cx="0" cy="0" r="1" gradientUnits="userSpaceOnUse" gradientTransform="translate(13.3983 16.1185) rotate(117.031) scale(1.71903 1.83663)">
<stop offset="0.144745" stop-color="#4A2657"/>
<stop offset="1" stop-color="#4A2657" stop-opacity="0"/>
</radialGradient>
<radialGradient id="paint45_radial_3987_24142" cx="0" cy="0" r="1" gradientUnits="userSpaceOnUse" gradientTransform="translate(20.0589 24.9187) rotate(121.842) scale(1.90409 1.71171)">
<stop offset="0.213098" stop-color="#49A3E6"/>
<stop offset="1" stop-color="#2B86DD"/>
</radialGradient>
<radialGradient id="paint46_radial_3987_24142" cx="0" cy="0" r="1" gradientUnits="userSpaceOnUse" gradientTransform="translate(19.1421 25.9078) rotate(-45) scale(1.11225 0.734787)">
<stop offset="0.20362" stop-color="#4C7BBF"/>
<stop offset="1" stop-color="#2C6DBD"/>
</radialGradient>
<linearGradient id="paint47_linear_3987_24142" x1="12.0989" y1="19.8794" x2="12.0989" y2="28.4625" gradientUnits="userSpaceOnUse">
<stop stop-color="#5D4F77"/>
<stop offset="1" stop-color="#553C83"/>
</linearGradient>
<linearGradient id="paint48_linear_3987_24142" x1="9.40833" y1="25.2785" x2="10.3024" y2="25.2785" gradientUnits="userSpaceOnUse">
<stop stop-color="#3A97DB"/>
<stop offset="1" stop-color="#49A3E2"/>
</linearGradient>
<radialGradient id="paint49_radial_3987_24142" cx="0" cy="0" r="1" gradientUnits="userSpaceOnUse" gradientTransform="translate(10.0236 23.5716) rotate(90) scale(3.5 0.280742)">
<stop offset="0.441964" stop-color="#46A4E7"/>
<stop offset="1" stop-color="#46A4E7" stop-opacity="0"/>
</radialGradient>
<linearGradient id="paint50_linear_3987_24142" x1="13.7812" y1="25.2888" x2="14.453" y2="25.2888" gradientUnits="userSpaceOnUse">
<stop stop-color="#3A97DB"/>
<stop offset="1" stop-color="#49A3E2"/>
</linearGradient>
<linearGradient id="paint51_linear_3987_24142" x1="14.8437" y1="24.8062" x2="14.6015" y2="24.8062" gradientUnits="userSpaceOnUse">
<stop stop-color="#3D9AD9"/>
<stop offset="1" stop-color="#3D9AD9" stop-opacity="0"/>
</linearGradient>
<linearGradient id="paint52_linear_3987_24142" x1="9.59912" y1="10.7173" x2="12.5584" y2="10.7173" gradientUnits="userSpaceOnUse">
<stop stop-color="#E79B27"/>
<stop offset="1" stop-color="#B96201"/>
</linearGradient>
<radialGradient id="paint53_radial_3987_24142" cx="0" cy="0" r="1" gradientUnits="userSpaceOnUse" gradientTransform="translate(19.9334 11.0692) rotate(-24.444) scale(2.73412 3.33824)">
<stop offset="0.572298" stop-color="#FFC531"/>
<stop offset="0.904617" stop-color="#FFE549"/>
</radialGradient>
<radialGradient id="paint54_radial_3987_24142" cx="0" cy="0" r="1" gradientUnits="userSpaceOnUse" gradientTransform="translate(20.4866 10.8678) rotate(-20.2976) scale(1.30459)">
<stop offset="0.71002" stop-color="#FFBA25" stop-opacity="0"/>
<stop offset="1" stop-color="#FFBA25"/>
</radialGradient>
<radialGradient id="paint55_radial_3987_24142" cx="0" cy="0" r="1" gradientUnits="userSpaceOnUse" gradientTransform="translate(11.2276 10.6298) rotate(180) scale(1.07411 1.02745)">
<stop offset="0.415002" stop-color="#D67923" stop-opacity="0"/>
<stop offset="1" stop-color="#D67923"/>
</radialGradient>
<radialGradient id="paint56_radial_3987_24142" cx="0" cy="0" r="1" gradientUnits="userSpaceOnUse" gradientTransform="translate(18.7532 10.0925) rotate(155.244) scale(7.16175 9.58587)">
<stop stop-color="#FFE644"/>
<stop offset="1" stop-color="#EB9235"/>
</radialGradient>
<radialGradient id="paint57_radial_3987_24142" cx="0" cy="0" r="1" gradientUnits="userSpaceOnUse" gradientTransform="translate(17.7942 10.7899) rotate(152.124) scale(2.38668 2.02493)">
<stop stop-color="#FFE842"/>
<stop offset="1" stop-color="#FFE842" stop-opacity="0"/>
</radialGradient>
<radialGradient id="paint58_radial_3987_24142" cx="0" cy="0" r="1" gradientUnits="userSpaceOnUse" gradientTransform="translate(13.7142 16.875) rotate(-78.3106) scale(4.1308 5.24122)">
<stop stop-color="#E4883F"/>
<stop offset="1" stop-color="#E4883F" stop-opacity="0"/>
</radialGradient>
<radialGradient id="paint59_radial_3987_24142" cx="0" cy="0" r="1" gradientUnits="userSpaceOnUse" gradientTransform="translate(15.6321 9.60881) rotate(90) scale(7.44059 11.8177)">
<stop offset="0.592664" stop-color="#F3943B" stop-opacity="0"/>
<stop offset="1" stop-color="#D97C39"/>
</radialGradient>
<radialGradient id="paint60_radial_3987_24142" cx="0" cy="0" r="1" gradientUnits="userSpaceOnUse" gradientTransform="translate(16.5214 11.7489) rotate(164.542) scale(5.62608 9.68637)">
<stop offset="0.876514" stop-color="#D4993E" stop-opacity="0"/>
<stop offset="1" stop-color="#D4993E"/>
</radialGradient>
<radialGradient id="paint61_radial_3987_24142" cx="0" cy="0" r="1" gradientUnits="userSpaceOnUse" gradientTransform="translate(18.1952 9.67401) rotate(-90) scale(1.15077 1.41231)">
<stop stop-color="#FFBB31"/>
<stop offset="1" stop-color="#FFBB31" stop-opacity="0"/>
</radialGradient>
<radialGradient id="paint62_radial_3987_24142" cx="0" cy="0" r="1" gradientUnits="userSpaceOnUse" gradientTransform="translate(13.9757 9.76119) rotate(-90) scale(1.36 1.55865)">
<stop stop-color="#F09429"/>
<stop offset="1" stop-color="#F09429" stop-opacity="0"/>
</radialGradient>
<radialGradient id="paint63_radial_3987_24142" cx="0" cy="0" r="1" gradientUnits="userSpaceOnUse" gradientTransform="translate(20.9893 11.1615) rotate(-180) scale(1.34695 4.43421)">
<stop stop-color="#FFDA39"/>
<stop offset="1" stop-color="#FFDA39" stop-opacity="0"/>
</radialGradient>
<linearGradient id="paint64_linear_3987_24142" x1="15.894" y1="12.6681" x2="15.894" y2="9.98633" gradientUnits="userSpaceOnUse">
<stop stop-color="#FFC134"/>
<stop offset="1" stop-color="#F8C73F"/>
</linearGradient>
<radialGradient id="paint65_radial_3987_24142" cx="0" cy="0" r="1" gradientUnits="userSpaceOnUse" gradientTransform="translate(16.6783 11.8884) rotate(-105.892) scale(2.54709 1.45748)">
<stop offset="0.0168227" stop-color="#FFE848"/>
<stop offset="1" stop-color="#FFE848" stop-opacity="0"/>
</radialGradient>
<linearGradient id="paint66_linear_3987_24142" x1="14.8476" y1="11.9058" x2="15.7019" y2="12.0104" gradientUnits="userSpaceOnUse">
<stop stop-color="#F8A322"/>
<stop offset="1" stop-color="#F8A322" stop-opacity="0"/>
</linearGradient>
<linearGradient id="paint67_linear_3987_24142" x1="15.894" y1="12.7601" x2="15.894" y2="12.1499" gradientUnits="userSpaceOnUse">
<stop stop-color="#E48538"/>
<stop offset="1" stop-color="#E48538" stop-opacity="0"/>
</linearGradient>
<linearGradient id="paint68_linear_3987_24142" x1="15.9722" y1="12.734" x2="15.9722" y2="12.5945" gradientUnits="userSpaceOnUse">
<stop stop-color="#E2802F"/>
<stop offset="1" stop-color="#E2802F" stop-opacity="0"/>
</linearGradient>
<radialGradient id="paint69_radial_3987_24142" cx="0" cy="0" r="1" gradientUnits="userSpaceOnUse" gradientTransform="translate(16.1814 11.5309) rotate(144.462) scale(1.57489 2.10945)">
<stop offset="0.797297" stop-color="#E2802F" stop-opacity="0"/>
<stop offset="1" stop-color="#E2802F"/>
</radialGradient>
<linearGradient id="paint70_linear_3987_24142" x1="15.1649" y1="14.237" x2="15.6174" y2="13.3655" gradientUnits="userSpaceOnUse">
<stop stop-color="#FEAC35"/>
<stop offset="1" stop-color="#FEAC35" stop-opacity="0"/>
</linearGradient>
<radialGradient id="paint71_radial_3987_24142" cx="0" cy="0" r="1" gradientUnits="userSpaceOnUse" gradientTransform="translate(18.076 10.0327) rotate(90) scale(0.811316 1.29049)">
<stop offset="0.80198" stop-color="#925C51"/>
<stop offset="1" stop-color="#694B43"/>
<stop offset="1" stop-color="#804D49"/>
<stop offset="1" stop-color="#85534D"/>
</radialGradient>
<radialGradient id="paint72_radial_3987_24142" cx="0" cy="0" r="1" gradientUnits="userSpaceOnUse" gradientTransform="translate(17.8473 10.1172) rotate(-127.812) scale(0.377981 0.520389)">
<stop offset="0.765532" stop-color="#FFE6E2" stop-opacity="0"/>
<stop offset="0.966159" stop-color="#FFE6E2"/>
</radialGradient>
<linearGradient id="paint73_linear_3987_24142" x1="18.8535" y1="10.0867" x2="18.54" y2="10.2798" gradientUnits="userSpaceOnUse">
<stop stop-color="#B4948D"/>
<stop offset="1" stop-color="#B4948D" stop-opacity="0"/>
</linearGradient>
<radialGradient id="paint74_radial_3987_24142" cx="0" cy="0" r="1" gradientUnits="userSpaceOnUse" gradientTransform="translate(13.7119 10.0327) rotate(90) scale(0.811321 1.2905)">
<stop offset="0.80198" stop-color="#925C51"/>
<stop offset="1" stop-color="#694B43"/>
<stop offset="1" stop-color="#804D49"/>
<stop offset="1" stop-color="#85534D"/>
</radialGradient>
<linearGradient id="paint75_linear_3987_24142" x1="14.4552" y1="10.0865" x2="14.1417" y2="10.2797" gradientUnits="userSpaceOnUse">
<stop stop-color="#B4948D"/>
<stop offset="1" stop-color="#B4948D" stop-opacity="0"/>
</linearGradient>
<radialGradient id="paint76_radial_3987_24142" cx="0" cy="0" r="1" gradientUnits="userSpaceOnUse" gradientTransform="translate(13.4252 10.2518) rotate(-90.897) scale(0.493721 0.593473)">
<stop offset="0.765532" stop-color="#FFE6E2" stop-opacity="0"/>
<stop offset="0.966159" stop-color="#FFE6E2"/>
</radialGradient>
<radialGradient id="paint77_radial_3987_24142" cx="0" cy="0" r="1" gradientUnits="userSpaceOnUse" gradientTransform="translate(13.1787 3.67751) rotate(129.554) scale(5.36951 2.34181)">
<stop offset="0.395696" stop-color="#EE971B" stop-opacity="0"/>
<stop offset="0.911046" stop-color="#D8772C"/>
</radialGradient>
<radialGradient id="paint78_radial_3987_24142" cx="0" cy="0" r="1" gradientUnits="userSpaceOnUse" gradientTransform="translate(13.1787 4.61614) rotate(146.397) scale(2.63581 1.30471)">
<stop offset="0.120488" stop-color="#FFCA2D"/>
<stop offset="1" stop-color="#FFE134" stop-opacity="0"/>
<stop offset="1" stop-color="#FFCA2D" stop-opacity="0"/>
</radialGradient>
<radialGradient id="paint79_radial_3987_24142" cx="0" cy="0" r="1" gradientUnits="userSpaceOnUse" gradientTransform="translate(17.6853 2.50498) rotate(115.63) scale(5.05214 7.1732)">
<stop offset="0.627022" stop-color="#F49523" stop-opacity="0"/>
<stop offset="1" stop-color="#F49523"/>
</radialGradient>
<radialGradient id="paint80_radial_3987_24142" cx="0" cy="0" r="1" gradientUnits="userSpaceOnUse" gradientTransform="translate(18.4027 3.75827) rotate(105.909) scale(3.44003 7.20923)">
<stop offset="0.131886" stop-color="#FFE337"/>
<stop offset="1" stop-color="#FFE337" stop-opacity="0"/>
</radialGradient>
<radialGradient id="paint81_radial_3987_24142" cx="0" cy="0" r="1" gradientUnits="userSpaceOnUse" gradientTransform="translate(17.0436 9.38969) rotate(-117.848) scale(7.31453 6.53874)">
<stop offset="0.897563" stop-color="#CA9B37" stop-opacity="0"/>
<stop offset="1" stop-color="#CA9B37"/>
</radialGradient>
<linearGradient id="paint82_linear_3987_24142" x1="13.0027" y1="4.4315" x2="13.5474" y2="5.70536" gradientUnits="userSpaceOnUse">
<stop stop-color="#FAA719"/>
<stop offset="1" stop-color="#DB6008"/>
</linearGradient>
</defs>
</svg>
