<svg width="32" height="32" viewBox="0 0 32 32" fill="none" xmlns="http://www.w3.org/2000/svg">
<g filter="url(#filter0_i_20020_6505)">
<path d="M27.5093 13.2022C28.8373 13.1648 29.9443 14.2111 29.9817 15.5392C30.0191 16.8673 28.9728 17.9742 27.6447 18.0116L26.7003 18.0382C27.3471 18.4802 27.7656 19.2291 27.7499 20.0709C27.725 21.3993 26.6279 22.4559 25.2996 22.431L23.9301 22.4054C24.4209 22.8654 24.7171 23.5276 24.6895 24.2526C24.6391 25.5802 23.5219 26.6156 22.1942 26.5651L13.3719 26.2297C12.0412 26.2248 9.67673 26.0808 7.61116 25.2261C4.34491 24.0186 2.01732 20.8853 2.01732 17.2103C2.01732 13.4952 4.39601 10.3337 7.71848 9.15567C9.8273 8.26744 12.0015 6.7942 12.9235 6.16943C12.9445 6.1552 12.9649 6.1414 12.9846 6.12807L15.8039 4.02971C16.9276 3.19333 18.5166 3.42627 19.3529 4.54999C20.1819 5.66377 19.9613 7.23706 18.858 8.07993L17.4338 9.16797L25.3869 8.82423C26.7029 8.76735 27.8158 9.78807 27.8727 11.1041C27.9109 11.9884 27.4625 12.7811 26.7649 13.2232L27.5093 13.2022Z" fill="#E7AD97"/>
<path d="M27.5093 13.2022C28.8373 13.1648 29.9443 14.2111 29.9817 15.5392C30.0191 16.8673 28.9728 17.9742 27.6447 18.0116L26.7003 18.0382C27.3471 18.4802 27.7656 19.2291 27.7499 20.0709C27.725 21.3993 26.6279 22.4559 25.2996 22.431L23.9301 22.4054C24.4209 22.8654 24.7171 23.5276 24.6895 24.2526C24.6391 25.5802 23.5219 26.6156 22.1942 26.5651L13.3719 26.2297C12.0412 26.2248 9.67673 26.0808 7.61116 25.2261C4.34491 24.0186 2.01732 20.8853 2.01732 17.2103C2.01732 13.4952 4.39601 10.3337 7.71848 9.15567C9.8273 8.26744 12.0015 6.7942 12.9235 6.16943C12.9445 6.1552 12.9649 6.1414 12.9846 6.12807L15.8039 4.02971C16.9276 3.19333 18.5166 3.42627 19.3529 4.54999C20.1819 5.66377 19.9613 7.23706 18.858 8.07993L17.4338 9.16797L25.3869 8.82423C26.7029 8.76735 27.8158 9.78807 27.8727 11.1041C27.9109 11.9884 27.4625 12.7811 26.7649 13.2232L27.5093 13.2022Z" fill="url(#paint0_radial_20020_6505)"/>
<path d="M27.5093 13.2022C28.8373 13.1648 29.9443 14.2111 29.9817 15.5392C30.0191 16.8673 28.9728 17.9742 27.6447 18.0116L26.7003 18.0382C27.3471 18.4802 27.7656 19.2291 27.7499 20.0709C27.725 21.3993 26.6279 22.4559 25.2996 22.431L23.9301 22.4054C24.4209 22.8654 24.7171 23.5276 24.6895 24.2526C24.6391 25.5802 23.5219 26.6156 22.1942 26.5651L13.3719 26.2297C12.0412 26.2248 9.67673 26.0808 7.61116 25.2261C4.34491 24.0186 2.01732 20.8853 2.01732 17.2103C2.01732 13.4952 4.39601 10.3337 7.71848 9.15567C9.8273 8.26744 12.0015 6.7942 12.9235 6.16943C12.9445 6.1552 12.9649 6.1414 12.9846 6.12807L15.8039 4.02971C16.9276 3.19333 18.5166 3.42627 19.3529 4.54999C20.1819 5.66377 19.9613 7.23706 18.858 8.07993L17.4338 9.16797L25.3869 8.82423C26.7029 8.76735 27.8158 9.78807 27.8727 11.1041C27.9109 11.9884 27.4625 12.7811 26.7649 13.2232L27.5093 13.2022Z" fill="url(#paint1_radial_20020_6505)"/>
</g>
<path d="M19.2919 4.47119C19.3126 4.49696 19.333 4.52323 19.3529 4.55002C20.1819 5.6638 19.9613 7.23709 18.858 8.07995L17.439 9.16401L12.9267 9.32593L19.2919 4.47119Z" fill="url(#paint2_radial_20020_6505)"/>
<g filter="url(#filter1_f_20020_6505)">
<path d="M15.6834 9.21983H12.5821L17.4048 5.45857C17.8034 5.14771 18.3774 5.21247 18.6967 5.60433C19.0227 6.00446 18.9602 6.59361 18.5574 6.9164L15.6834 9.21983Z" fill="url(#paint3_linear_20020_6505)"/>
</g>
<path d="M17.4527 9.15358L14.6738 9.27285L16.3925 13.3979L26.7696 13.2203C27.4646 12.7776 27.9109 11.9865 27.8727 11.1041C27.8158 9.78812 26.7029 8.7674 25.3869 8.82429L17.4338 9.16802L17.4527 9.15358Z" fill="url(#paint4_linear_20020_6505)"/>
<path d="M17.4527 9.15358L14.6738 9.27285L16.3925 13.3979L26.7696 13.2203C27.4646 12.7776 27.9109 11.9865 27.8727 11.1041C27.8158 9.78812 26.7029 8.7674 25.3869 8.82429L17.4338 9.16802L17.4527 9.15358Z" fill="url(#paint5_linear_20020_6505)"/>
<path d="M17.4527 9.15358L14.6738 9.27285L16.3925 13.3979L26.7696 13.2203C27.4646 12.7776 27.9109 11.9865 27.8727 11.1041C27.8158 9.78812 26.7029 8.7674 25.3869 8.82429L17.4338 9.16802L17.4527 9.15358Z" fill="url(#paint6_radial_20020_6505)"/>
<path d="M17.4527 9.15358L14.6738 9.27285L16.3925 13.3979L26.7696 13.2203C27.4646 12.7776 27.9109 11.9865 27.8727 11.1041C27.8158 9.78812 26.7029 8.7674 25.3869 8.82429L17.4338 9.16802L17.4527 9.15358Z" fill="url(#paint7_linear_20020_6505)"/>
<path d="M17.4527 9.15358L14.6738 9.27285L16.3925 13.3979L26.7696 13.2203C27.4646 12.7776 27.9109 11.9865 27.8727 11.1041C27.8158 9.78812 26.7029 8.7674 25.3869 8.82429L17.4338 9.16802L17.4527 9.15358Z" fill="url(#paint8_radial_20020_6505)"/>
<g filter="url(#filter2_f_20020_6505)">
<path d="M25.8817 11.3202L16.3984 11.4494L16.5865 12.734L25.9027 12.54C26.2346 12.5331 26.5 12.2621 26.5 11.9301C26.5 11.59 26.2218 11.3156 25.8817 11.3202Z" fill="#ECB99E"/>
</g>
<path d="M26.7018 18.0392L26.7003 18.0382L27.6447 18.0116C28.9728 17.9742 30.0191 16.8673 29.9817 15.5392C29.9458 14.264 28.9239 13.2487 27.6669 13.2029L27.2118 13.2106L26.7649 13.2232C26.7676 13.2215 26.7703 13.2198 26.773 13.2181L14.1737 13.39V18.0775L26.7018 18.0392Z" fill="url(#paint9_linear_20020_6505)"/>
<path d="M26.7018 18.0392L26.7003 18.0382L27.6447 18.0116C28.9728 17.9742 30.0191 16.8673 29.9817 15.5392C29.9458 14.264 28.9239 13.2487 27.6669 13.2029L27.2118 13.2106L26.7649 13.2232C26.7676 13.2215 26.7703 13.2198 26.773 13.2181L14.1737 13.39V18.0775L26.7018 18.0392Z" fill="url(#paint10_radial_20020_6505)"/>
<path d="M26.7018 18.0392L26.7003 18.0382L27.6447 18.0116C28.9728 17.9742 30.0191 16.8673 29.9817 15.5392C29.9458 14.264 28.9239 13.2487 27.6669 13.2029L27.2118 13.2106L26.7649 13.2232C26.7676 13.2215 26.7703 13.2198 26.773 13.2181L14.1737 13.39V18.0775L26.7018 18.0392Z" fill="url(#paint11_linear_20020_6505)"/>
<path d="M26.7018 18.0392L26.7003 18.0382L27.6447 18.0116C28.9728 17.9742 30.0191 16.8673 29.9817 15.5392C29.9458 14.264 28.9239 13.2487 27.6669 13.2029L27.2118 13.2106L26.7649 13.2232C26.7676 13.2215 26.7703 13.2198 26.773 13.2181L14.1737 13.39V18.0775L26.7018 18.0392Z" fill="url(#paint12_linear_20020_6505)"/>
<g filter="url(#filter3_f_20020_6505)">
<path d="M26.804 15.9517C27.1058 15.9517 27.3843 15.8906 27.6134 15.7648C27.9932 15.5563 28.469 15.335 28.858 15.5259C29.1693 15.6786 29.3447 16.0357 29.1875 16.3448C28.6459 17.4097 27.5179 17.5413 26.804 17.5142H16.2107C15.7841 17.5142 15.4382 17.1683 15.4382 16.7417C15.4382 16.3083 15.7926 15.9596 16.226 15.9656C19.7186 16.0141 25.89 15.9517 26.804 15.9517Z" fill="url(#paint13_linear_20020_6505)"/>
</g>
<path d="M26.705 18.0415L14.5487 18.0229V22.2104L23.9316 22.4069L23.9301 22.4055L25.2996 22.4312C26.6279 22.4561 27.725 21.3994 27.7499 20.071C27.7656 19.2313 27.3491 18.4839 26.705 18.0415Z" fill="url(#paint14_linear_20020_6505)"/>
<path d="M26.705 18.0415L14.5487 18.0229V22.2104L23.9316 22.4069L23.9301 22.4055L25.2996 22.4312C26.6279 22.4561 27.725 21.3994 27.7499 20.071C27.7656 19.2313 27.3491 18.4839 26.705 18.0415Z" fill="url(#paint15_linear_20020_6505)"/>
<path d="M26.705 18.0415L14.5487 18.0229V22.2104L23.9316 22.4069L23.9301 22.4055L25.2996 22.4312C26.6279 22.4561 27.725 21.3994 27.7499 20.071C27.7656 19.2313 27.3491 18.4839 26.705 18.0415Z" fill="url(#paint16_linear_20020_6505)"/>
<path d="M26.705 18.0415L14.5487 18.0229V22.2104L23.9316 22.4069L23.9301 22.4055L25.2996 22.4312C26.6279 22.4561 27.725 21.3994 27.7499 20.071C27.7656 19.2313 27.3491 18.4839 26.705 18.0415Z" fill="url(#paint17_radial_20020_6505)"/>
<g filter="url(#filter4_f_20020_6505)">
<path d="M26.5487 21.01C26.5487 20.5785 26.1983 20.2297 25.7668 20.2326C23.572 20.2477 18.7284 20.2756 16.2438 20.2391C15.8104 20.2327 15.455 20.5812 15.455 21.0147C15.455 21.4413 15.8008 21.7871 16.2274 21.7871L25.7715 21.7871C26.2007 21.7871 26.5487 21.4392 26.5487 21.01V21.01Z" fill="url(#paint18_linear_20020_6505)"/>
</g>
<path d="M27.5093 13.2022C28.8373 13.1648 29.9443 14.2111 29.9817 15.5392C30.0191 16.8673 28.9728 17.9742 27.6447 18.0116L26.7003 18.0382C27.3471 18.4802 27.7656 19.2291 27.7499 20.0709C27.725 21.3993 26.6279 22.4559 25.2996 22.431L23.9301 22.4054C24.4209 22.8654 24.7171 23.5276 24.6895 24.2526C24.6391 25.5802 23.5219 26.6156 22.1942 26.5651L13.3719 26.2297C12.0412 26.2248 9.67673 26.0808 7.61116 25.2261C4.34491 24.0186 2.01732 20.8853 2.01732 17.2103C2.01732 13.4952 4.39601 10.3337 7.71848 9.15567C9.8273 8.26744 12.0015 6.7942 12.9235 6.16943C12.9445 6.1552 12.9649 6.1414 12.9846 6.12807L15.8039 4.02971C16.9276 3.19333 18.5166 3.42627 19.3529 4.54999C20.1819 5.66377 19.9613 7.23706 18.858 8.07993L17.4338 9.16797L25.3869 8.82423C26.7029 8.76735 27.8158 9.78807 27.8727 11.1041C27.9109 11.9884 27.4625 12.7811 26.7649 13.2232L27.5093 13.2022Z" fill="url(#paint19_linear_20020_6505)"/>
<path d="M27.5093 13.2022C28.8373 13.1648 29.9443 14.2111 29.9817 15.5392C30.0191 16.8673 28.9728 17.9742 27.6447 18.0116L26.7003 18.0382C27.3471 18.4802 27.7656 19.2291 27.7499 20.0709C27.725 21.3993 26.6279 22.4559 25.2996 22.431L23.9301 22.4054C24.4209 22.8654 24.7171 23.5276 24.6895 24.2526C24.6391 25.5802 23.5219 26.6156 22.1942 26.5651L13.3719 26.2297C12.0412 26.2248 9.67673 26.0808 7.61116 25.2261C4.34491 24.0186 2.01732 20.8853 2.01732 17.2103C2.01732 13.4952 4.39601 10.3337 7.71848 9.15567C9.8273 8.26744 12.0015 6.7942 12.9235 6.16943C12.9445 6.1552 12.9649 6.1414 12.9846 6.12807L15.8039 4.02971C16.9276 3.19333 18.5166 3.42627 19.3529 4.54999C20.1819 5.66377 19.9613 7.23706 18.858 8.07993L17.4338 9.16797L25.3869 8.82423C26.7029 8.76735 27.8158 9.78807 27.8727 11.1041C27.9109 11.9884 27.4625 12.7811 26.7649 13.2232L27.5093 13.2022Z" fill="url(#paint20_radial_20020_6505)"/>
<path d="M27.5093 13.2022C28.8373 13.1648 29.9443 14.2111 29.9817 15.5392C30.0191 16.8673 28.9728 17.9742 27.6447 18.0116L26.7003 18.0382C27.3471 18.4802 27.7656 19.2291 27.7499 20.0709C27.725 21.3993 26.6279 22.4559 25.2996 22.431L23.9301 22.4054C24.4209 22.8654 24.7171 23.5276 24.6895 24.2526C24.6391 25.5802 23.5219 26.6156 22.1942 26.5651L13.3719 26.2297C12.0412 26.2248 9.67673 26.0808 7.61116 25.2261C4.34491 24.0186 2.01732 20.8853 2.01732 17.2103C2.01732 13.4952 4.39601 10.3337 7.71848 9.15567C9.8273 8.26744 12.0015 6.7942 12.9235 6.16943C12.9445 6.1552 12.9649 6.1414 12.9846 6.12807L15.8039 4.02971C16.9276 3.19333 18.5166 3.42627 19.3529 4.54999C20.1819 5.66377 19.9613 7.23706 18.858 8.07993L17.4338 9.16797L25.3869 8.82423C26.7029 8.76735 27.8158 9.78807 27.8727 11.1041C27.9109 11.9884 27.4625 12.7811 26.7649 13.2232L27.5093 13.2022Z" fill="url(#paint21_radial_20020_6505)"/>
<path d="M27.5093 13.2022C28.8373 13.1648 29.9443 14.2111 29.9817 15.5392C30.0191 16.8673 28.9728 17.9742 27.6447 18.0116L26.7003 18.0382C27.3471 18.4802 27.7656 19.2291 27.7499 20.0709C27.725 21.3993 26.6279 22.4559 25.2996 22.431L23.9301 22.4054C24.4209 22.8654 24.7171 23.5276 24.6895 24.2526C24.6391 25.5802 23.5219 26.6156 22.1942 26.5651L13.3719 26.2297C12.0412 26.2248 9.67673 26.0808 7.61116 25.2261C4.34491 24.0186 2.01732 20.8853 2.01732 17.2103C2.01732 13.4952 4.39601 10.3337 7.71848 9.15567C9.8273 8.26744 12.0015 6.7942 12.9235 6.16943C12.9445 6.1552 12.9649 6.1414 12.9846 6.12807L15.8039 4.02971C16.9276 3.19333 18.5166 3.42627 19.3529 4.54999C20.1819 5.66377 19.9613 7.23706 18.858 8.07993L17.4338 9.16797L25.3869 8.82423C26.7029 8.76735 27.8158 9.78807 27.8727 11.1041C27.9109 11.9884 27.4625 12.7811 26.7649 13.2232L27.5093 13.2022Z" fill="url(#paint22_radial_20020_6505)"/>
<path d="M27.5093 13.2022C28.8373 13.1648 29.9443 14.2111 29.9817 15.5392C30.0191 16.8673 28.9728 17.9742 27.6447 18.0116L26.7003 18.0382C27.3471 18.4802 27.7656 19.2291 27.7499 20.0709C27.725 21.3993 26.6279 22.4559 25.2996 22.431L23.9301 22.4054C24.4209 22.8654 24.7171 23.5276 24.6895 24.2526C24.6391 25.5802 23.5219 26.6156 22.1942 26.5651L13.3719 26.2297C12.0412 26.2248 9.67673 26.0808 7.61116 25.2261C4.34491 24.0186 2.01732 20.8853 2.01732 17.2103C2.01732 13.4952 4.39601 10.3337 7.71848 9.15567C9.8273 8.26744 12.0015 6.7942 12.9235 6.16943C12.9445 6.1552 12.9649 6.1414 12.9846 6.12807L15.8039 4.02971C16.9276 3.19333 18.5166 3.42627 19.3529 4.54999C20.1819 5.66377 19.9613 7.23706 18.858 8.07993L17.4338 9.16797L25.3869 8.82423C26.7029 8.76735 27.8158 9.78807 27.8727 11.1041C27.9109 11.9884 27.4625 12.7811 26.7649 13.2232L27.5093 13.2022Z" fill="url(#paint23_radial_20020_6505)"/>
<path d="M27.5093 13.2022C28.8373 13.1648 29.9443 14.2111 29.9817 15.5392C30.0191 16.8673 28.9728 17.9742 27.6447 18.0116L26.7003 18.0382C27.3471 18.4802 27.7656 19.2291 27.7499 20.0709C27.725 21.3993 26.6279 22.4559 25.2996 22.431L23.9301 22.4054C24.4209 22.8654 24.7171 23.5276 24.6895 24.2526C24.6391 25.5802 23.5219 26.6156 22.1942 26.5651L13.3719 26.2297C12.0412 26.2248 9.67673 26.0808 7.61116 25.2261C4.34491 24.0186 2.01732 20.8853 2.01732 17.2103C2.01732 13.4952 4.39601 10.3337 7.71848 9.15567C9.8273 8.26744 12.0015 6.7942 12.9235 6.16943C12.9445 6.1552 12.9649 6.1414 12.9846 6.12807L15.8039 4.02971C16.9276 3.19333 18.5166 3.42627 19.3529 4.54999C20.1819 5.66377 19.9613 7.23706 18.858 8.07993L17.4338 9.16797L25.3869 8.82423C26.7029 8.76735 27.8158 9.78807 27.8727 11.1041C27.9109 11.9884 27.4625 12.7811 26.7649 13.2232L27.5093 13.2022Z" fill="url(#paint24_radial_20020_6505)"/>
<g filter="url(#filter5_f_20020_6505)">
<path d="M11.9857 25.7866C8.3383 25.617 5.58422 23.8782 4.4179 22.0757L24.2452 23.9577C24.2452 25.9722 22.734 26.2097 21.7933 26.1843C19.8318 26.1313 15.6331 25.9563 11.9857 25.7866Z" fill="url(#paint25_linear_20020_6505)"/>
</g>
<path d="M23.9407 22.4154L15.3925 22.1479L15.0487 26.3042L22.1942 26.5652C23.5219 26.6157 24.639 25.5803 24.6895 24.2527C24.7169 23.533 24.4251 22.8751 23.9407 22.4154Z" fill="url(#paint26_linear_20020_6505)"/>
<path d="M23.9407 22.4154L15.3925 22.1479L15.0487 26.3042L22.1942 26.5652C23.5219 26.6157 24.639 25.5803 24.6895 24.2527C24.7169 23.533 24.4251 22.8751 23.9407 22.4154Z" fill="url(#paint27_linear_20020_6505)"/>
<path d="M23.9407 22.4154L15.3925 22.1479L15.0487 26.3042L22.1942 26.5652C23.5219 26.6157 24.639 25.5803 24.6895 24.2527C24.7169 23.533 24.4251 22.8751 23.9407 22.4154Z" fill="url(#paint28_radial_20020_6505)"/>
<g filter="url(#filter6_f_20020_6505)">
<path d="M23.4834 25.2475C23.4903 24.873 23.1933 24.5645 22.8188 24.5599C20.6772 24.5335 15.7164 24.4682 13.1924 24.3897C12.7593 24.3763 12.3983 24.6724 12.3914 25.0486C12.3846 25.4191 12.7249 25.7257 13.1515 25.7335L22.7959 25.9102C23.1688 25.9171 23.4766 25.6203 23.4834 25.2475V25.2475Z" fill="url(#paint29_linear_20020_6505)"/>
</g>
<defs>
<filter id="filter0_i_20020_6505" x="2.01733" y="2.52783" width="27.9653" height="24.039" filterUnits="userSpaceOnUse" color-interpolation-filters="sRGB">
<feFlood flood-opacity="0" result="BackgroundImageFix"/>
<feBlend mode="normal" in="SourceGraphic" in2="BackgroundImageFix" result="shape"/>
<feColorMatrix in="SourceAlpha" type="matrix" values="0 0 0 0 0 0 0 0 0 0 0 0 0 0 0 0 0 0 127 0" result="hardAlpha"/>
<feOffset dy="-1"/>
<feGaussianBlur stdDeviation="1.25"/>
<feComposite in2="hardAlpha" operator="arithmetic" k2="-1" k3="1"/>
<feColorMatrix type="matrix" values="0 0 0 0 0.729412 0 0 0 0 0.454902 0 0 0 0 0.541176 0 0 0 1 0"/>
<feBlend mode="normal" in2="shape" result="effect1_innerShadow_20020_6505"/>
</filter>
<filter id="filter1_f_20020_6505" x="11.8321" y="4.51204" width="7.82343" height="5.45779" filterUnits="userSpaceOnUse" color-interpolation-filters="sRGB">
<feFlood flood-opacity="0" result="BackgroundImageFix"/>
<feBlend mode="normal" in="SourceGraphic" in2="BackgroundImageFix" result="shape"/>
<feGaussianBlur stdDeviation="0.375" result="effect1_foregroundBlur_20020_6505"/>
</filter>
<filter id="filter2_f_20020_6505" x="15.3984" y="10.3201" width="12.1016" height="3.41388" filterUnits="userSpaceOnUse" color-interpolation-filters="sRGB">
<feFlood flood-opacity="0" result="BackgroundImageFix"/>
<feBlend mode="normal" in="SourceGraphic" in2="BackgroundImageFix" result="shape"/>
<feGaussianBlur stdDeviation="0.5" result="effect1_foregroundBlur_20020_6505"/>
</filter>
<filter id="filter3_f_20020_6505" x="14.4382" y="14.453" width="15.8079" height="4.06421" filterUnits="userSpaceOnUse" color-interpolation-filters="sRGB">
<feFlood flood-opacity="0" result="BackgroundImageFix"/>
<feBlend mode="normal" in="SourceGraphic" in2="BackgroundImageFix" result="shape"/>
<feGaussianBlur stdDeviation="0.5" result="effect1_foregroundBlur_20020_6505"/>
</filter>
<filter id="filter4_f_20020_6505" x="14.455" y="19.2326" width="13.0938" height="3.55455" filterUnits="userSpaceOnUse" color-interpolation-filters="sRGB">
<feFlood flood-opacity="0" result="BackgroundImageFix"/>
<feBlend mode="normal" in="SourceGraphic" in2="BackgroundImageFix" result="shape"/>
<feGaussianBlur stdDeviation="0.5" result="effect1_foregroundBlur_20020_6505"/>
</filter>
<filter id="filter5_f_20020_6505" x="3.41791" y="21.0757" width="21.8273" height="6.11031" filterUnits="userSpaceOnUse" color-interpolation-filters="sRGB">
<feFlood flood-opacity="0" result="BackgroundImageFix"/>
<feBlend mode="normal" in="SourceGraphic" in2="BackgroundImageFix" result="shape"/>
<feGaussianBlur stdDeviation="0.5" result="effect1_foregroundBlur_20020_6505"/>
</filter>
<filter id="filter6_f_20020_6505" x="11.3914" y="23.3893" width="13.0922" height="3.52104" filterUnits="userSpaceOnUse" color-interpolation-filters="sRGB">
<feFlood flood-opacity="0" result="BackgroundImageFix"/>
<feBlend mode="normal" in="SourceGraphic" in2="BackgroundImageFix" result="shape"/>
<feGaussianBlur stdDeviation="0.5" result="effect1_foregroundBlur_20020_6505"/>
</filter>
<radialGradient id="paint0_radial_20020_6505" cx="0" cy="0" r="1" gradientUnits="userSpaceOnUse" gradientTransform="translate(4.92374 9.08533) rotate(62.8787) scale(5.75815 20.6637)">
<stop stop-color="#C98F80"/>
<stop offset="1" stop-color="#C98F80" stop-opacity="0"/>
</radialGradient>
<radialGradient id="paint1_radial_20020_6505" cx="0" cy="0" r="1" gradientUnits="userSpaceOnUse" gradientTransform="translate(19.9234 5.48333) rotate(169.33) scale(2.48176 3.91796)">
<stop stop-color="#C99F80"/>
<stop offset="1" stop-color="#C99F80" stop-opacity="0"/>
</radialGradient>
<radialGradient id="paint2_radial_20020_6505" cx="0" cy="0" r="1" gradientUnits="userSpaceOnUse" gradientTransform="translate(16.6112 9.72354) rotate(-123.69) scale(1.33802 3.89834)">
<stop stop-color="#A9775C"/>
<stop offset="1" stop-color="#A9775C" stop-opacity="0"/>
</radialGradient>
<linearGradient id="paint3_linear_20020_6505" x1="18.4136" y1="6.01245" x2="11.6238" y2="10.321" gradientUnits="userSpaceOnUse">
<stop stop-color="#EEB99A"/>
<stop offset="1" stop-color="#EEB99A" stop-opacity="0"/>
</linearGradient>
<linearGradient id="paint4_linear_20020_6505" x1="20.1553" y1="8.63931" x2="20.2667" y2="10.6891" gradientUnits="userSpaceOnUse">
<stop stop-color="#BD8465"/>
<stop offset="1" stop-color="#BD8465" stop-opacity="0"/>
</linearGradient>
<linearGradient id="paint5_linear_20020_6505" x1="20.9394" y1="13.6635" x2="20.9238" y2="12.6791" gradientUnits="userSpaceOnUse">
<stop stop-color="#CC8E6E"/>
<stop offset="1" stop-color="#CC8E6E" stop-opacity="0"/>
</linearGradient>
<radialGradient id="paint6_radial_20020_6505" cx="0" cy="0" r="1" gradientUnits="userSpaceOnUse" gradientTransform="translate(26.7988 13.5229) rotate(-112.681) scale(1.13462 1.78724)">
<stop stop-color="#AE7956"/>
<stop offset="1" stop-color="#AE7956" stop-opacity="0"/>
</radialGradient>
<linearGradient id="paint7_linear_20020_6505" x1="15.2206" y1="11.1099" x2="17.2206" y2="10.4916" gradientUnits="userSpaceOnUse">
<stop offset="0.23634" stop-color="#E7AD97"/>
<stop offset="1" stop-color="#E7AD97" stop-opacity="0"/>
</linearGradient>
<radialGradient id="paint8_radial_20020_6505" cx="0" cy="0" r="1" gradientUnits="userSpaceOnUse" gradientTransform="translate(27.9642 9.96112) rotate(154.099) scale(2.62996 4.98199)">
<stop stop-color="#C89D7C"/>
<stop offset="1" stop-color="#C59878" stop-opacity="0"/>
</radialGradient>
<linearGradient id="paint9_linear_20020_6505" x1="22.1112" y1="12.3353" x2="22.1644" y2="15.414" gradientUnits="userSpaceOnUse">
<stop stop-color="#C68869"/>
<stop offset="1" stop-color="#C68869" stop-opacity="0"/>
</linearGradient>
<radialGradient id="paint10_radial_20020_6505" cx="0" cy="0" r="1" gradientUnits="userSpaceOnUse" gradientTransform="translate(29.9827 14.2416) rotate(151.258) scale(2.37956 4.82204)">
<stop stop-color="#C79A78"/>
<stop offset="1" stop-color="#C79A78" stop-opacity="0"/>
</radialGradient>
<linearGradient id="paint11_linear_20020_6505" x1="22.4853" y1="18.5174" x2="22.4853" y2="17.3097" gradientUnits="userSpaceOnUse">
<stop stop-color="#DB9B77"/>
<stop offset="1" stop-color="#DB9B77" stop-opacity="0"/>
</linearGradient>
<linearGradient id="paint12_linear_20020_6505" x1="14.9237" y1="14.8666" x2="17.855" y2="15.0713" gradientUnits="userSpaceOnUse">
<stop stop-color="#E7AD97"/>
<stop offset="1" stop-color="#E7AD97" stop-opacity="0"/>
</linearGradient>
<linearGradient id="paint13_linear_20020_6505" x1="29.8445" y1="17.1704" x2="23.6817" y2="25.8012" gradientUnits="userSpaceOnUse">
<stop stop-color="#FFD0AA"/>
<stop offset="1" stop-color="#FFD0AA" stop-opacity="0"/>
</linearGradient>
<linearGradient id="paint14_linear_20020_6505" x1="21.1771" y1="17.2383" x2="21.2292" y2="20.0226" gradientUnits="userSpaceOnUse">
<stop stop-color="#D89671"/>
<stop offset="1" stop-color="#D89671" stop-opacity="0"/>
</linearGradient>
<linearGradient id="paint15_linear_20020_6505" x1="21.1495" y1="23.1517" x2="21.1385" y2="21.6806" gradientUnits="userSpaceOnUse">
<stop stop-color="#E2AA80"/>
<stop offset="1" stop-color="#E2AA80" stop-opacity="0"/>
</linearGradient>
<linearGradient id="paint16_linear_20020_6505" x1="16.1113" y1="19.0542" x2="18.8496" y2="19.5833" gradientUnits="userSpaceOnUse">
<stop stop-color="#E7AD97"/>
<stop offset="1" stop-color="#E7AD97" stop-opacity="0"/>
</linearGradient>
<radialGradient id="paint17_radial_20020_6505" cx="0" cy="0" r="1" gradientUnits="userSpaceOnUse" gradientTransform="translate(27.7503 18.9624) rotate(149.696) scale(1.5683 2.46604)">
<stop stop-color="#CF9F7B"/>
<stop offset="1" stop-color="#CF9F7B" stop-opacity="0"/>
</radialGradient>
<linearGradient id="paint18_linear_20020_6505" x1="26.5487" y1="21.4434" x2="12.9862" y2="21.4434" gradientUnits="userSpaceOnUse">
<stop stop-color="#FCC9A8"/>
<stop offset="1" stop-color="#FCC9A8" stop-opacity="0"/>
</linearGradient>
<linearGradient id="paint19_linear_20020_6505" x1="9.40123" y1="26.9531" x2="9.40123" y2="21.5987" gradientUnits="userSpaceOnUse">
<stop stop-color="#EFBF9C"/>
<stop offset="1" stop-color="#EFBF9C" stop-opacity="0"/>
</linearGradient>
<radialGradient id="paint20_radial_20020_6505" cx="0" cy="0" r="1" gradientUnits="userSpaceOnUse" gradientTransform="translate(16 12.3041) rotate(-4.72706) scale(2.27523 1.78178)">
<stop stop-color="#F0B998"/>
<stop offset="1" stop-color="#F0B998" stop-opacity="0"/>
</radialGradient>
<radialGradient id="paint21_radial_20020_6505" cx="0" cy="0" r="1" gradientUnits="userSpaceOnUse" gradientTransform="translate(16 17.0228) rotate(-2.46953) scale(2.17576 2.00635)">
<stop stop-color="#F0B998"/>
<stop offset="1" stop-color="#F0B998" stop-opacity="0"/>
</radialGradient>
<radialGradient id="paint22_radial_20020_6505" cx="0" cy="0" r="1" gradientUnits="userSpaceOnUse" gradientTransform="translate(15.7675 20.8978) rotate(-1.90914) scale(1.87604)">
<stop stop-color="#F0B998"/>
<stop offset="1" stop-color="#F0B998" stop-opacity="0"/>
</radialGradient>
<radialGradient id="paint23_radial_20020_6505" cx="0" cy="0" r="1" gradientUnits="userSpaceOnUse" gradientTransform="translate(15.5175 24.4291) rotate(-63.435) scale(2.37582 3.13027)">
<stop stop-color="#F0B998"/>
<stop offset="1" stop-color="#F0B998" stop-opacity="0"/>
</radialGradient>
<radialGradient id="paint24_radial_20020_6505" cx="0" cy="0" r="1" gradientUnits="userSpaceOnUse" gradientTransform="translate(9.49639 8.06357) rotate(62.2415) scale(3.03562 12.0503)">
<stop stop-color="#C88C7E"/>
<stop offset="1" stop-color="#C88C7E" stop-opacity="0"/>
</radialGradient>
<linearGradient id="paint25_linear_20020_6505" x1="15.869" y1="26.794" x2="15.975" y2="23.8252" gradientUnits="userSpaceOnUse">
<stop stop-color="#FDC8A8"/>
<stop offset="1" stop-color="#FDC8A8" stop-opacity="0"/>
</linearGradient>
<linearGradient id="paint26_linear_20020_6505" x1="19.3912" y1="21.3247" x2="19.1448" y2="23.6515" gradientUnits="userSpaceOnUse">
<stop stop-color="#DB9B79"/>
<stop offset="1" stop-color="#DB9B79" stop-opacity="0"/>
</linearGradient>
<linearGradient id="paint27_linear_20020_6505" x1="15.0487" y1="23.9684" x2="18.5421" y2="24.1578" gradientUnits="userSpaceOnUse">
<stop stop-color="#EFBA9A"/>
<stop offset="1" stop-color="#EFBA9A" stop-opacity="0"/>
</linearGradient>
<radialGradient id="paint28_radial_20020_6505" cx="0" cy="0" r="1" gradientUnits="userSpaceOnUse" gradientTransform="translate(25.3612 23.0229) rotate(154.485) scale(1.95209 5.21489)">
<stop stop-color="#CE9E7B"/>
<stop offset="1" stop-color="#CE9E7B" stop-opacity="0"/>
</radialGradient>
<linearGradient id="paint29_linear_20020_6505" x1="23.4765" y1="25.6241" x2="9.91627" y2="25.3756" gradientUnits="userSpaceOnUse">
<stop stop-color="#FECEA7"/>
<stop offset="1" stop-color="#FECEA7" stop-opacity="0"/>
</linearGradient>
</defs>
</svg>
