<svg width="32" height="32" viewBox="0 0 32 32" fill="none" xmlns="http://www.w3.org/2000/svg">
<rect x="2" y="2" width="28" height="28" rx="4" fill="url(#paint0_linear_4_1034)"/>
<path d="M2 26H30V26C30 28.2091 28.2091 30 26 30H6C3.79086 30 2 28.2091 2 26V26Z" fill="url(#paint1_linear_4_1034)"/>
<path d="M6 2L6 30V30C3.79086 30 2 28.2091 2 26L2 6C2 3.79086 3.79086 2 6 2V2Z" fill="url(#paint2_linear_4_1034)"/>
<g opacity="0.2" filter="url(#filter0_f_4_1034)">
<rect x="5" y="4" width="23" height="1" fill="white"/>
</g>
<g opacity="0.2" filter="url(#filter1_f_4_1034)">
<rect x="27" y="4" width="1" height="22" fill="white"/>
</g>
<g opacity="0.6" filter="url(#filter2_f_4_1034)">
<circle cx="27" cy="5" r="1" fill="white"/>
</g>
<path d="M22.76 5.5C21.75 5.5 20.77 5.86 20.01 6.52C19.24 7.17 18.74 8.08 18.58 9.08L16.17 24.36C16.16 24.44 16.09 24.5 16 24.5C15.92 24.5 15.84 24.44 15.83 24.36L13.42 9.07C13.26 8.07 12.75 7.17 11.99 6.51C11.22 5.86 10.24 5.5 9.24 5.5C6.9 5.5 5 7.4 5 9.74C5 10.29 5.45 10.74 6 10.74C6.55 10.74 7 10.29 7 9.74C7 8.5 8 7.5 9.24 7.5C10.35 7.5 11.28 8.29 11.45 9.39L13.86 24.67C14.03 25.73 14.93 26.5 16 26.5C17.07 26.5 17.98 25.73 18.14 24.67L20.55 9.39C20.72 8.3 21.65 7.5 22.76 7.5C24 7.5 25 8.5 25 9.74C25 10.29 25.45 10.74 26 10.74C26.55 10.74 27 10.29 27 9.74C27 7.4 25.1 5.5 22.76 5.5Z" fill="#F4F4F4"/>
<path d="M4.99512 29.0205H4.13672L3.09961 25.4111H3.89355L4.55859 28.2471H4.57031L5.28516 25.4111H6.09082L6.78516 28.209H6.79688L7.47656 25.4111H8.24707L7.18945 29.0205H6.36914L5.70996 26.3047H5.70117L4.99512 29.0205Z" fill="#FFC444"/>
<path d="M9.60352 29H8.85938V25.4111H9.60352V29Z" fill="#FFC444"/>
<path d="M10.5996 29V25.4111H12.0322C12.3057 25.4111 12.5439 25.459 12.7471 25.5547C12.9521 25.6504 13.1104 25.79 13.2217 25.9736C13.333 26.1572 13.3887 26.377 13.3887 26.6328C13.3887 26.8887 13.333 27.1084 13.2217 27.292C13.1104 27.4756 12.9521 27.6162 12.7471 27.7139C12.5439 27.8096 12.3057 27.8574 12.0322 27.8574H11.3467V29H10.5996ZM11.918 27.2598C12.1523 27.2598 12.332 27.209 12.457 27.1074C12.582 27.0039 12.6445 26.8457 12.6445 26.6328C12.6445 26.4199 12.582 26.2627 12.457 26.1611C12.332 26.0576 12.1523 26.0059 11.918 26.0059H11.3467V27.2598H11.918Z" fill="#FFC444"/>
<path d="M0 0V-2H-2V0H0ZM32 0H34V-2H32V0ZM32 32V34H34V32H32ZM0 32H-2V34H0V32ZM0 2H32V-2H0V2ZM30 0V32H34V0H30ZM32 30H0V34H32V30ZM2 32V0H-2V32H2Z" fill="#FFC444"/>
<defs>
<filter id="filter0_f_4_1034" x="3" y="2" width="27" height="5" filterUnits="userSpaceOnUse" color-interpolation-filters="sRGB">
<feFlood flood-opacity="0" result="BackgroundImageFix"/>
<feBlend mode="normal" in="SourceGraphic" in2="BackgroundImageFix" result="shape"/>
<feGaussianBlur stdDeviation="1" result="effect1_foregroundBlur_4_1034"/>
</filter>
<filter id="filter1_f_4_1034" x="25" y="2" width="5" height="26" filterUnits="userSpaceOnUse" color-interpolation-filters="sRGB">
<feFlood flood-opacity="0" result="BackgroundImageFix"/>
<feBlend mode="normal" in="SourceGraphic" in2="BackgroundImageFix" result="shape"/>
<feGaussianBlur stdDeviation="1" result="effect1_foregroundBlur_4_1034"/>
</filter>
<filter id="filter2_f_4_1034" x="23" y="1" width="8" height="8" filterUnits="userSpaceOnUse" color-interpolation-filters="sRGB">
<feFlood flood-opacity="0" result="BackgroundImageFix"/>
<feBlend mode="normal" in="SourceGraphic" in2="BackgroundImageFix" result="shape"/>
<feGaussianBlur stdDeviation="1.5" result="effect1_foregroundBlur_4_1034"/>
</filter>
<linearGradient id="paint0_linear_4_1034" x1="30" y1="2" x2="2" y2="30" gradientUnits="userSpaceOnUse">
<stop stop-color="#B690FF"/>
<stop offset="1" stop-color="#5B46A2"/>
</linearGradient>
<linearGradient id="paint1_linear_4_1034" x1="19" y1="29" x2="19" y2="26" gradientUnits="userSpaceOnUse">
<stop stop-color="#5936B4"/>
<stop offset="1" stop-color="#6A50AD" stop-opacity="0"/>
</linearGradient>
<linearGradient id="paint2_linear_4_1034" x1="3" y1="19" x2="6" y2="19" gradientUnits="userSpaceOnUse">
<stop stop-color="#583EAC"/>
<stop offset="1" stop-color="#6A50AD" stop-opacity="0"/>
</linearGradient>
</defs>
</svg>
