<svg xmlns="http://www.w3.org/2000/svg" width="32" height="32" fill="none"><path fill="#FFF9BA" d="M23.163 15.925a3.253 3.253 0 0 0-.224-3.24 3.139 3.139 0 0 1-.524-1.77v-.009a3.293 3.293 0 0 0-3.292-3.296.541.541 0 0 1-.448-.234 3.284 3.284 0 0 0-5.35 0 .59.59 0 0 1-.458.225 3.293 3.293 0 0 0-3.292 3.296v.01c0 .627-.177 1.245-.523 1.769a3.3 3.3 0 0 0-.552 1.816c0 .515.112.993.327 1.424a.56.56 0 0 1 0 .459 3.199 3.199 0 0 0-.327 1.404C8.5 19.559 9.94 21 11.717 21h8.566a3.219 3.219 0 0 0 3.217-3.221c0-.506-.112-.983-.327-1.404a.505.505 0 0 1-.01-.45Z"/><path fill="#633589" d="m24 30 1-3.75-1-3.75a9.274 9.274 0 0 0-1.5-1H9.355c-.477.27-.93.642-1.355 1l-1 3.75L8 30h16Z"/><path fill="#8B62BF" d="M8 30H4.25a17.34 17.34 0 0 1 .639-2.645l.03-.09A11.123 11.123 0 0 1 8 22.5V30ZM27.123 27.326c.283.878.485 1.766.627 2.674H24v-7.5a10.99 10.99 0 0 1 3.123 4.826Z"/><path fill="#774AA6" d="M24 22.5v6.12c1.96 1.31 4.58-.09 4.58-2.44 0-2.03-1.65-3.68-3.68-3.68H24ZM8 22.5v6.12c-1.96 1.3-4.58-.1-4.58-2.45 0-2.03 1.65-3.68 3.68-3.67H8Z"/><path fill="#A17FD5" d="m22.5 21.5-4.5 6c-.97 1.16-3.04 1.16-4 0l-4.624-6.012c.315-.177.64-.337.975-.48 0 0 3.617-.008 5.649-.008 2.006 0 5.5.005 5.5.005.341.147.674.312 1 .495Z"/><path fill="#E4B29A" d="M16 20c2.5 0 4.015.403 5.5 1l-4.278 5.872c-.261.302-.71.498-1.226.498-.517 0-.961-.197-1.216-.496l-4.438-5.876C11.837 20.398 13.5 20 16 20ZM12.5 14.75a1.5 1.5 0 1 1-3 0 1.5 1.5 0 0 1 3 0ZM22.5 14.75a1.5 1.5 0 1 1-3 0 1.5 1.5 0 0 1 3 0Z"/><path fill="#F3EEF8" d="M13.5 20.085a.998.998 0 0 1-.398.799 1 1 0 0 1 .788 1.384 1 1 0 0 1 1.392.782.998.998 0 0 1 1.586.012 1 1 0 0 1 1.38-.799 1 1 0 0 1 .799-1.38.998.998 0 0 1 .603-1.798 1 1 0 0 1 .123 1.992 1 1 0 0 1-.992 1.72 1 1 0 0 1-1.72.991 1 1 0 0 1-1.982.012.998.998 0 0 1-1.789-.615c0-.14.029-.273.08-.393a1 1 0 0 1-1.002-1.715 1 1 0 1 1 1.132-.992Z"/><path fill="#EEBFAA" d="M11 12.502c.043-.903.561-1.257.788-1.367a.938.938 0 0 1 .051-.024 2.28 2.28 0 0 0 1.223-1.253l.074-.19a.259.259 0 0 1 .456-.056 3.77 3.77 0 0 0 3.124 1.674h3.152c.177 0 1.097.095 1.116 1.438l.016.003-.128 3.043C20.752 18.6 18.603 20.5 16 20.5c-2.613 0-4.751-1.901-4.872-4.73L11 12.502Z"/><path fill="#000" d="M13.46 13c.6 0 1.09.41 1.4.88a38.84 38.84 0 0 1-.966.286c-.387.111-.773.222-1.174.354l-.51-.46a.444.444 0 0 1 .04-.69c.33-.24.79-.37 1.21-.37ZM18.665 13c-.6 0-1.09.41-1.4.88.329.104.647.195.965.286.388.111.774.222 1.175.354l.51-.46c.21-.19.19-.52-.04-.69-.33-.24-.79-.37-1.21-.37Z"/><path fill="#fff" d="M12.21 14.24c.16-.65.74-1.13 1.44-1.13.72 0 1.32.51 1.47 1.2.03.15-.09.29-.24.29H12.5c-.19 0-.34-.18-.29-.36ZM19.915 14.24a1.48 1.48 0 0 0-1.44-1.13 1.5 1.5 0 0 0-1.47 1.2c-.03.15.09.29.24.29h2.38c.19 0 .34-.18.29-.36Z"/><path fill="#7D4533" d="M12.92 14.35a.95.95 0 1 1 1.9 0c0 .09-.01.17-.03.25h-1.84c-.02-.08-.03-.16-.03-.25ZM19.205 14.35a.95.95 0 1 0-1.9 0c0 .09.01.17.03.25h1.84c.02-.08.03-.16.03-.25Z"/><path fill="#000" d="M13.87 13.8c.3 0 .54.24.54.54 0 .09-.02.18-.06.25h-.96a.514.514 0 0 1-.06-.25c0-.3.24-.54.54-.54ZM18.255 13.8c-.3 0-.54.24-.54.54 0 .09.02.18.06.25h.96c.04-.07.06-.16.06-.25 0-.3-.24-.54-.54-.54Z"/><path fill="#fff" d="M13.71 13.97a.17.17 0 1 1-.34 0 .17.17 0 0 1 .34 0ZM18.48 13.97a.17.17 0 1 1-.34 0 .17.17 0 0 1 .34 0Z"/><path fill="#990838" d="M16 17.65a3.095 3.095 0 0 1-1.505-.378c-.15-.084-.309.094-.219.241.369.598.997.987 1.724.987s1.355-.389 1.724-.987c.09-.147-.07-.325-.22-.241A3.184 3.184 0 0 1 16 17.65Z"/><path fill="#D19479" d="m15.642 14.284-.494 1.747c-.101.36.146.719.485.719h.733c.348 0 .587-.36.486-.719l-.495-1.746c-.1-.38-.605-.38-.715 0Z"/><path fill="#37C9CD" d="M10.5 7.5a.5.5 0 1 1-1 0 .5.5 0 0 1 1 0ZM22.5 7.5a.5.5 0 1 1-1 0 .5.5 0 0 1 1 0Z"/><path fill="#F9C23C" d="m19.424 5.104-1.942 2.17 3.518.75-.892-2.78a.738.738 0 0 0 .535-.65.757.757 0 0 0-.674-.82.754.754 0 0 0-.545 1.33ZM12.586 5.105l1.932 2.17-3.518.75.892-2.78a.738.738 0 0 1-.535-.65.758.758 0 0 1 .674-.82.75.75 0 0 1 .822.68c.02.25-.089.49-.267.65Z"/><path fill="#FFB02E" d="M22.69 4.587a.757.757 0 0 0-.71.69c-.009.13.01.25.05.37l-2.534.791a.36.36 0 0 1-.355-.09l-2.83-2.872a.767.767 0 0 0 .425-.79.76.76 0 0 0-.661-.681.767.767 0 0 0-.414 1.45l-2.82 2.883a.34.34 0 0 1-.355.09l-2.534-.78a.77.77 0 0 0 .05-.37.765.765 0 0 0-.71-.691.76.76 0 0 0-.79.83c.03.35.297.641.632.701.089.02.187.01.266 0l.907 2.152c.06.14.197.23.345.23H21.34c.148 0 .286-.09.345-.23l.907-2.152c.089.02.178.02.276 0a.783.783 0 0 0 .631-.71.777.777 0 0 0-.808-.821Z"/><path fill="#F92F60" d="M16 8a1.25 1.25 0 1 0 0-2.5A1.25 1.25 0 0 0 16 8Z"/><path fill="#00D1ED" d="M13 7.5a.5.5 0 1 1-1 0 .5.5 0 0 1 1 0ZM20 7.5a.5.5 0 1 1-1 0 .5.5 0 0 1 1 0Z"/><path fill="#A56953" d="M19.4 12.648a.217.217 0 0 0 .132.038c.095 0 .18-.047.227-.142a.265.265 0 0 0-.094-.37c-.029-.018-.9-.501-1.894-.321a.267.267 0 0 0-.218.312c.028.152.17.246.313.218.736-.13 1.4.2 1.516.257l.018.008ZM12.23 12.553a.282.282 0 0 0 .238.133c.047 0 .094-.01.132-.029.01-.01.73-.407 1.534-.265a.256.256 0 0 0 .303-.218c.029-.142-.075-.284-.217-.312-.954-.182-1.785.263-1.886.317l-.008.005a.273.273 0 0 0-.095.37Z"/></svg>