<svg width="32" height="32" viewBox="0 0 32 32" fill="none" xmlns="http://www.w3.org/2000/svg">
<path d="M17 19.637H15V29.767H17V19.637Z" fill="url(#paint0_linear_28327_7495)"/>
<path d="M17 19.637H15V29.767H17V19.637Z" fill="url(#paint1_linear_28327_7495)"/>
<path d="M17 19.637H15V29.767H17V19.637Z" fill="url(#paint2_linear_28327_7495)"/>
<path d="M17 19.637H15V29.767H17V19.637Z" fill="url(#paint3_linear_28327_7495)"/>
<path d="M17 19.637H15V29.767H17V19.637Z" fill="url(#paint4_radial_28327_7495)"/>
<path d="M16.78 29.067C16.78 26.667 18.73 24.717 21.04 24.697L23.92 24.687C24.06 24.687 24.18 24.807 24.17 24.957C24.03 27.617 21.83 29.767 19.13 29.767H17.06C16.9 29.767 16.78 29.637 16.78 29.487V29.067Z" fill="url(#paint5_linear_28327_7495)"/>
<path d="M16.78 29.067C16.78 26.667 18.73 24.717 21.04 24.697L23.92 24.687C24.06 24.687 24.18 24.807 24.17 24.957C24.03 27.617 21.83 29.767 19.13 29.767H17.06C16.9 29.767 16.78 29.637 16.78 29.487V29.067Z" fill="url(#paint6_linear_28327_7495)"/>
<path d="M16.78 29.067C16.78 26.667 18.73 24.717 21.04 24.697L23.92 24.687C24.06 24.687 24.18 24.807 24.17 24.957C24.03 27.617 21.83 29.767 19.13 29.767H17.06C16.9 29.767 16.78 29.637 16.78 29.487V29.067Z" fill="url(#paint7_radial_28327_7495)"/>
<g filter="url(#filter0_f_28327_7495)">
<path d="M17.7397 28.4923C17.7397 26.7026 19.2692 25.2484 21.0811 25.2335L23.3401 25.2261C23.4499 25.2261 23.544 25.3156 23.5362 25.4274C23.4264 27.411 21.7008 29.0143 19.583 29.0143H17.9594C17.8339 29.0143 17.7397 28.9174 17.7397 28.8055V28.4923Z" fill="url(#paint8_linear_28327_7495)"/>
</g>
<path d="M7.90997 25.387C7.90997 27.787 9.85997 29.737 12.17 29.757L15.05 29.767C15.19 29.767 15.31 29.647 15.3 29.497C15.16 26.837 12.96 24.687 10.26 24.687H8.18997C8.02997 24.687 7.90997 24.817 7.90997 24.967V25.387Z" fill="url(#paint9_linear_28327_7495)"/>
<path d="M7.90997 25.387C7.90997 27.787 9.85997 29.737 12.17 29.757L15.05 29.767C15.19 29.767 15.31 29.647 15.3 29.497C15.16 26.837 12.96 24.687 10.26 24.687H8.18997C8.02997 24.687 7.90997 24.817 7.90997 24.967V25.387Z" fill="url(#paint10_linear_28327_7495)"/>
<path d="M7.90997 25.387C7.90997 27.787 9.85997 29.737 12.17 29.757L15.05 29.767C15.19 29.767 15.31 29.647 15.3 29.497C15.16 26.837 12.96 24.687 10.26 24.687H8.18997C8.02997 24.687 7.90997 24.817 7.90997 24.967V25.387Z" fill="url(#paint11_radial_28327_7495)"/>
<g filter="url(#filter1_f_28327_7495)">
<path d="M8.7464 25.8035C8.7464 27.6603 10.255 29.1689 12.0421 29.1843L14.2702 29.1921C14.3785 29.1921 14.4714 29.0992 14.4636 28.9832C14.3553 26.9253 12.6533 25.262 10.5645 25.262H8.96302C8.83924 25.262 8.7464 25.3625 8.7464 25.4786V25.8035Z" fill="url(#paint12_linear_28327_7495)"/>
</g>
<g filter="url(#filter2_f_28327_7495)">
<path d="M11.2375 25.4336C12.3938 25.5898 14.2766 26.9473 14.4641 28.9848" stroke="url(#paint13_linear_28327_7495)" stroke-width="0.5" stroke-linecap="round"/>
</g>
<path fill-rule="evenodd" clip-rule="evenodd" d="M23.4561 16.384C23.3201 16.219 23.4143 15.9455 23.6229 15.8987C25.6362 15.4475 27.1406 13.6495 27.1406 11.5C27.1406 9.0104 25.1224 6.99219 22.6328 6.99219C22.0119 6.99219 21.4203 7.11772 20.882 7.3448C20.6775 7.43108 20.4298 7.24569 20.455 7.02512C20.4744 6.85537 20.4844 6.68276 20.4844 6.50781C20.4844 4.01822 18.4662 2 15.9766 2C13.4869 2 11.4688 4.01822 11.4688 6.50781C11.4688 6.67755 11.4781 6.84509 11.4964 7.00995C11.5206 7.22807 11.2786 7.41041 11.0756 7.32718C10.5487 7.11124 9.97187 6.99219 9.36719 6.99219C6.87756 6.99219 4.85938 9.0104 4.85938 11.5C4.85938 13.6282 6.33415 15.4119 8.31745 15.8849C8.52391 15.9342 8.61446 16.2052 8.47869 16.3683C7.82853 17.1496 7.4375 18.1541 7.4375 19.25C7.4375 21.7396 9.45569 23.7578 11.9453 23.7578C13.522 23.7578 14.9095 22.9484 15.7152 21.7225C15.8272 21.5521 16.0947 21.5521 16.2067 21.7225C17.0123 22.9484 18.3999 23.7578 19.9766 23.7578C22.4662 23.7578 24.4844 21.7396 24.4844 19.25C24.4844 18.1614 24.0985 17.163 23.4561 16.384Z" fill="url(#paint14_radial_28327_7495)"/>
<path fill-rule="evenodd" clip-rule="evenodd" d="M23.4561 16.384C23.3201 16.219 23.4143 15.9455 23.6229 15.8987C25.6362 15.4475 27.1406 13.6495 27.1406 11.5C27.1406 9.0104 25.1224 6.99219 22.6328 6.99219C22.0119 6.99219 21.4203 7.11772 20.882 7.3448C20.6775 7.43108 20.4298 7.24569 20.455 7.02512C20.4744 6.85537 20.4844 6.68276 20.4844 6.50781C20.4844 4.01822 18.4662 2 15.9766 2C13.4869 2 11.4688 4.01822 11.4688 6.50781C11.4688 6.67755 11.4781 6.84509 11.4964 7.00995C11.5206 7.22807 11.2786 7.41041 11.0756 7.32718C10.5487 7.11124 9.97187 6.99219 9.36719 6.99219C6.87756 6.99219 4.85938 9.0104 4.85938 11.5C4.85938 13.6282 6.33415 15.4119 8.31745 15.8849C8.52391 15.9342 8.61446 16.2052 8.47869 16.3683C7.82853 17.1496 7.4375 18.1541 7.4375 19.25C7.4375 21.7396 9.45569 23.7578 11.9453 23.7578C13.522 23.7578 14.9095 22.9484 15.7152 21.7225C15.8272 21.5521 16.0947 21.5521 16.2067 21.7225C17.0123 22.9484 18.3999 23.7578 19.9766 23.7578C22.4662 23.7578 24.4844 21.7396 24.4844 19.25C24.4844 18.1614 24.0985 17.163 23.4561 16.384Z" fill="url(#paint15_radial_28327_7495)"/>
<path fill-rule="evenodd" clip-rule="evenodd" d="M23.4561 16.384C23.3201 16.219 23.4143 15.9455 23.6229 15.8987C25.6362 15.4475 27.1406 13.6495 27.1406 11.5C27.1406 9.0104 25.1224 6.99219 22.6328 6.99219C22.0119 6.99219 21.4203 7.11772 20.882 7.3448C20.6775 7.43108 20.4298 7.24569 20.455 7.02512C20.4744 6.85537 20.4844 6.68276 20.4844 6.50781C20.4844 4.01822 18.4662 2 15.9766 2C13.4869 2 11.4688 4.01822 11.4688 6.50781C11.4688 6.67755 11.4781 6.84509 11.4964 7.00995C11.5206 7.22807 11.2786 7.41041 11.0756 7.32718C10.5487 7.11124 9.97187 6.99219 9.36719 6.99219C6.87756 6.99219 4.85938 9.0104 4.85938 11.5C4.85938 13.6282 6.33415 15.4119 8.31745 15.8849C8.52391 15.9342 8.61446 16.2052 8.47869 16.3683C7.82853 17.1496 7.4375 18.1541 7.4375 19.25C7.4375 21.7396 9.45569 23.7578 11.9453 23.7578C13.522 23.7578 14.9095 22.9484 15.7152 21.7225C15.8272 21.5521 16.0947 21.5521 16.2067 21.7225C17.0123 22.9484 18.3999 23.7578 19.9766 23.7578C22.4662 23.7578 24.4844 21.7396 24.4844 19.25C24.4844 18.1614 24.0985 17.163 23.4561 16.384Z" fill="url(#paint16_radial_28327_7495)"/>
<g filter="url(#filter3_f_28327_7495)">
<path fill-rule="evenodd" clip-rule="evenodd" d="M22.8126 16.105C22.6786 15.9385 22.7731 15.6637 22.9811 15.6144C24.7881 15.1865 26.1326 13.5626 26.1326 11.6248C26.1326 9.36044 24.297 7.52485 22.0326 7.52485C21.4871 7.52485 20.9664 7.6314 20.4903 7.82483C20.2846 7.90839 20.0354 7.72184 20.0577 7.50096C20.0715 7.36395 20.0786 7.22495 20.0786 7.0843C20.0786 4.81997 18.243 2.98438 15.9787 2.98438C13.7143 2.98438 11.8788 4.81997 11.8788 7.0843C11.8788 7.22076 11.8854 7.35567 11.8984 7.48871C11.9198 7.70712 11.6765 7.8905 11.4724 7.80991C11.0065 7.62593 10.4987 7.52485 9.96736 7.52485C7.703 7.52485 5.86743 9.36044 5.86743 11.6248C5.86743 13.5435 7.1855 15.1544 8.96559 15.6014C9.17145 15.6531 9.26232 15.9253 9.12848 16.09C8.5556 16.7951 8.21228 17.6942 8.21228 18.6735C8.21228 20.9378 10.0478 22.7734 12.3122 22.7734C13.7303 22.7734 14.9803 22.0535 15.7165 20.9591C15.8303 20.7899 16.0987 20.7899 16.2125 20.9591C16.9486 22.0535 18.1986 22.7734 19.6167 22.7734C21.8811 22.7734 23.7167 20.9378 23.7167 18.6735C23.7167 17.7012 23.3782 16.8079 22.8126 16.105Z" fill="url(#paint17_radial_28327_7495)"/>
</g>
<g filter="url(#filter4_f_28327_7495)">
<path d="M15.6544 17.5339C17.742 17.5339 19.4344 15.8415 19.4344 13.7539C19.4344 11.6662 17.742 9.97388 15.6544 9.97388C13.5668 9.97388 11.8744 11.6662 11.8744 13.7539C11.8744 15.8415 13.5668 17.5339 15.6544 17.5339Z" fill="#D2B9DA"/>
</g>
<g filter="url(#filter5_i_28327_7495)">
<path d="M15.8999 17.1569C17.9876 17.1569 19.6799 15.4646 19.6799 13.3769C19.6799 11.2893 17.9876 9.59692 15.8999 9.59692C13.8123 9.59692 12.1199 11.2893 12.1199 13.3769C12.1199 15.4646 13.8123 17.1569 15.8999 17.1569Z" fill="url(#paint18_radial_28327_7495)"/>
<path d="M15.8999 17.1569C17.9876 17.1569 19.6799 15.4646 19.6799 13.3769C19.6799 11.2893 17.9876 9.59692 15.8999 9.59692C13.8123 9.59692 12.1199 11.2893 12.1199 13.3769C12.1199 15.4646 13.8123 17.1569 15.8999 17.1569Z" fill="url(#paint19_radial_28327_7495)"/>
</g>
<g filter="url(#filter6_f_28327_7495)">
<path d="M15.8732 2.70321C16.3523 2.60946 17.5982 2.69696 18.7482 3.79696C19.8982 4.89696 19.894 6.6303 19.7482 7.35946" stroke="url(#paint20_radial_28327_7495)" stroke-width="0.4" stroke-linecap="round"/>
</g>
<g filter="url(#filter7_f_28327_7495)">
<path d="M21.7482 7.54685C22.6544 7.46352 24.7232 7.6531 25.7482 9.0781C27.0294 10.8594 26.6544 12.6406 25.7482 13.7344" stroke="url(#paint21_radial_28327_7495)" stroke-width="0.4" stroke-linecap="round"/>
</g>
<g filter="url(#filter8_f_28327_7495)">
<path d="M22.8732 16.4219C23.7169 17.2969 24.6232 20.5469 22.0919 22.3281" stroke="url(#paint22_radial_28327_7495)" stroke-width="0.4" stroke-linecap="round"/>
</g>
<g filter="url(#filter9_f_28327_7495)">
<path d="M13.9669 22.2969C14.4044 22.1302 15.5107 21.5281 15.8107 20.4531" stroke="url(#paint23_radial_28327_7495)" stroke-width="0.4" stroke-linecap="round"/>
</g>
<g filter="url(#filter10_f_28327_7495)">
<path d="M9.84192 7.76562C10.3836 7.76562 11.7544 8.00313 12.9044 8.95312" stroke="url(#paint24_radial_28327_7495)" stroke-width="0.4" stroke-linecap="round"/>
</g>
<defs>
<filter id="filter0_f_28327_7495" x="17.1397" y="24.6261" width="6.99688" height="4.98821" filterUnits="userSpaceOnUse" color-interpolation-filters="sRGB">
<feFlood flood-opacity="0" result="BackgroundImageFix"/>
<feBlend mode="normal" in="SourceGraphic" in2="BackgroundImageFix" result="shape"/>
<feGaussianBlur stdDeviation="0.3" result="effect1_foregroundBlur_28327_7495"/>
</filter>
<filter id="filter1_f_28327_7495" x="7.9964" y="24.512" width="7.21771" height="5.43018" filterUnits="userSpaceOnUse" color-interpolation-filters="sRGB">
<feFlood flood-opacity="0" result="BackgroundImageFix"/>
<feBlend mode="normal" in="SourceGraphic" in2="BackgroundImageFix" result="shape"/>
<feGaussianBlur stdDeviation="0.375" result="effect1_foregroundBlur_28327_7495"/>
</filter>
<filter id="filter2_f_28327_7495" x="10.4875" y="24.6836" width="4.72656" height="5.05115" filterUnits="userSpaceOnUse" color-interpolation-filters="sRGB">
<feFlood flood-opacity="0" result="BackgroundImageFix"/>
<feBlend mode="normal" in="SourceGraphic" in2="BackgroundImageFix" result="shape"/>
<feGaussianBlur stdDeviation="0.25" result="effect1_foregroundBlur_28327_7495"/>
</filter>
<filter id="filter3_f_28327_7495" x="4.86743" y="1.98438" width="22.2651" height="21.7891" filterUnits="userSpaceOnUse" color-interpolation-filters="sRGB">
<feFlood flood-opacity="0" result="BackgroundImageFix"/>
<feBlend mode="normal" in="SourceGraphic" in2="BackgroundImageFix" result="shape"/>
<feGaussianBlur stdDeviation="0.5" result="effect1_foregroundBlur_28327_7495"/>
</filter>
<filter id="filter4_f_28327_7495" x="10.8744" y="8.97388" width="9.56" height="9.56006" filterUnits="userSpaceOnUse" color-interpolation-filters="sRGB">
<feFlood flood-opacity="0" result="BackgroundImageFix"/>
<feBlend mode="normal" in="SourceGraphic" in2="BackgroundImageFix" result="shape"/>
<feGaussianBlur stdDeviation="0.5" result="effect1_foregroundBlur_28327_7495"/>
</filter>
<filter id="filter5_i_28327_7495" x="12.1199" y="9.59692" width="7.56" height="7.56006" filterUnits="userSpaceOnUse" color-interpolation-filters="sRGB">
<feFlood flood-opacity="0" result="BackgroundImageFix"/>
<feBlend mode="normal" in="SourceGraphic" in2="BackgroundImageFix" result="shape"/>
<feColorMatrix in="SourceAlpha" type="matrix" values="0 0 0 0 0 0 0 0 0 0 0 0 0 0 0 0 0 0 127 0" result="hardAlpha"/>
<feOffset/>
<feGaussianBlur stdDeviation="0.25"/>
<feComposite in2="hardAlpha" operator="arithmetic" k2="-1" k3="1"/>
<feColorMatrix type="matrix" values="0 0 0 0 0.841667 0 0 0 0 0.504112 0 0 0 0 0.199896 0 0 0 1 0"/>
<feBlend mode="normal" in2="shape" result="effect1_innerShadow_28327_7495"/>
</filter>
<filter id="filter6_f_28327_7495" x="15.0732" y="1.8751" width="5.54229" height="6.28435" filterUnits="userSpaceOnUse" color-interpolation-filters="sRGB">
<feFlood flood-opacity="0" result="BackgroundImageFix"/>
<feBlend mode="normal" in="SourceGraphic" in2="BackgroundImageFix" result="shape"/>
<feGaussianBlur stdDeviation="0.3" result="effect1_foregroundBlur_28327_7495"/>
</filter>
<filter id="filter7_f_28327_7495" x="20.9482" y="6.73032" width="6.42632" height="7.804" filterUnits="userSpaceOnUse" color-interpolation-filters="sRGB">
<feFlood flood-opacity="0" result="BackgroundImageFix"/>
<feBlend mode="normal" in="SourceGraphic" in2="BackgroundImageFix" result="shape"/>
<feGaussianBlur stdDeviation="0.3" result="effect1_foregroundBlur_28327_7495"/>
</filter>
<filter id="filter8_f_28327_7495" x="21.2919" y="15.6219" width="3.2567" height="7.50627" filterUnits="userSpaceOnUse" color-interpolation-filters="sRGB">
<feFlood flood-opacity="0" result="BackgroundImageFix"/>
<feBlend mode="normal" in="SourceGraphic" in2="BackgroundImageFix" result="shape"/>
<feGaussianBlur stdDeviation="0.3" result="effect1_foregroundBlur_28327_7495"/>
</filter>
<filter id="filter9_f_28327_7495" x="13.1668" y="19.6531" width="3.4439" height="3.4439" filterUnits="userSpaceOnUse" color-interpolation-filters="sRGB">
<feFlood flood-opacity="0" result="BackgroundImageFix"/>
<feBlend mode="normal" in="SourceGraphic" in2="BackgroundImageFix" result="shape"/>
<feGaussianBlur stdDeviation="0.3" result="effect1_foregroundBlur_28327_7495"/>
</filter>
<filter id="filter10_f_28327_7495" x="9.04191" y="6.96567" width="4.66252" height="2.7874" filterUnits="userSpaceOnUse" color-interpolation-filters="sRGB">
<feFlood flood-opacity="0" result="BackgroundImageFix"/>
<feBlend mode="normal" in="SourceGraphic" in2="BackgroundImageFix" result="shape"/>
<feGaussianBlur stdDeviation="0.3" result="effect1_foregroundBlur_28327_7495"/>
</filter>
<linearGradient id="paint0_linear_28327_7495" x1="16.0015" y1="29.7721" x2="16.0015" y2="20.293" gradientUnits="userSpaceOnUse">
<stop stop-color="#5DA112"/>
<stop offset="1" stop-color="#74A93F"/>
</linearGradient>
<linearGradient id="paint1_linear_28327_7495" x1="14.8779" y1="27.9023" x2="15.5029" y2="27.8555" gradientUnits="userSpaceOnUse">
<stop stop-color="#51923C"/>
<stop offset="1" stop-color="#51923C" stop-opacity="0"/>
</linearGradient>
<linearGradient id="paint2_linear_28327_7495" x1="17" y1="27.9492" x2="16.5029" y2="27.9492" gradientUnits="userSpaceOnUse">
<stop stop-color="#51923C"/>
<stop offset="1" stop-color="#51923C" stop-opacity="0"/>
</linearGradient>
<linearGradient id="paint3_linear_28327_7495" x1="14.9091" y1="23.543" x2="15.3466" y2="23.5586" gradientUnits="userSpaceOnUse">
<stop stop-color="#8FB87F"/>
<stop offset="1" stop-color="#8FB87F" stop-opacity="0"/>
</linearGradient>
<radialGradient id="paint4_radial_28327_7495" cx="0" cy="0" r="1" gradientUnits="userSpaceOnUse" gradientTransform="translate(16.206 26.918) rotate(90) scale(3.625 0.46875)">
<stop stop-color="#83B15D"/>
<stop offset="1" stop-color="#83B15D" stop-opacity="0"/>
</radialGradient>
<linearGradient id="paint5_linear_28327_7495" x1="17.8335" y1="29.767" x2="25.0092" y2="24.9872" gradientUnits="userSpaceOnUse">
<stop stop-color="#528C39"/>
<stop offset="1" stop-color="#81BD52"/>
</linearGradient>
<linearGradient id="paint6_linear_28327_7495" x1="19.271" y1="30.1055" x2="19.271" y2="28.6993" gradientUnits="userSpaceOnUse">
<stop stop-color="#6A806E"/>
<stop offset="1" stop-color="#6A806E" stop-opacity="0"/>
</linearGradient>
<radialGradient id="paint7_radial_28327_7495" cx="0" cy="0" r="1" gradientUnits="userSpaceOnUse" gradientTransform="translate(23.9897 24.9024) rotate(133.898) scale(1.14926 0.24366)">
<stop stop-color="#9DD271"/>
<stop offset="1" stop-color="#9DD271" stop-opacity="0"/>
</radialGradient>
<linearGradient id="paint8_linear_28327_7495" x1="22.7395" y1="25.2261" x2="18.8319" y2="28.4598" gradientUnits="userSpaceOnUse">
<stop stop-color="#87BE58"/>
<stop offset="1" stop-color="#7BA561"/>
</linearGradient>
<linearGradient id="paint9_linear_28327_7495" x1="12.4485" y1="24.687" x2="8.22974" y2="30.398" gradientUnits="userSpaceOnUse">
<stop offset="0.0112" stop-color="#629B53"/>
<stop offset="1" stop-color="#008461"/>
<stop offset="1" stop-color="#4D9055"/>
</linearGradient>
<linearGradient id="paint10_linear_28327_7495" x1="13.8235" y1="30.1793" x2="13.8235" y2="28.2105" gradientUnits="userSpaceOnUse">
<stop stop-color="#6F7E82"/>
<stop offset="1" stop-color="#6F7E82" stop-opacity="0"/>
</linearGradient>
<radialGradient id="paint11_radial_28327_7495" cx="0" cy="0" r="1" gradientUnits="userSpaceOnUse" gradientTransform="translate(12.6594 25.0743) rotate(158.54) scale(4.86879 6.63165)">
<stop offset="0.840911" stop-color="#92B196" stop-opacity="0"/>
<stop offset="1" stop-color="#92B196"/>
</radialGradient>
<linearGradient id="paint12_linear_28327_7495" x1="14.4641" y1="28.7105" x2="9.19849" y2="25.3512" gradientUnits="userSpaceOnUse">
<stop stop-color="#6FA06A"/>
<stop offset="1" stop-color="#619A6A"/>
</linearGradient>
<linearGradient id="paint13_linear_28327_7495" x1="14.4641" y1="27.0785" x2="9.66724" y2="24.3285" gradientUnits="userSpaceOnUse">
<stop stop-color="#86AD7A"/>
<stop offset="1" stop-color="#86AD7A" stop-opacity="0"/>
</linearGradient>
<radialGradient id="paint14_radial_28327_7495" cx="0" cy="0" r="1" gradientUnits="userSpaceOnUse" gradientTransform="translate(9.40442 5.42188) rotate(61.675) scale(20.0223 28.0788)">
<stop stop-color="#BBB5C2"/>
<stop offset="0.965315" stop-color="#D7C0EF"/>
</radialGradient>
<radialGradient id="paint15_radial_28327_7495" cx="0" cy="0" r="1" gradientUnits="userSpaceOnUse" gradientTransform="translate(20.7325 7.01562) rotate(116.017) scale(2.921 0.565511)">
<stop stop-color="#E8DEF1"/>
<stop offset="1" stop-color="#E8DEF1" stop-opacity="0"/>
</radialGradient>
<radialGradient id="paint16_radial_28327_7495" cx="0" cy="0" r="1" gradientUnits="userSpaceOnUse" gradientTransform="translate(23.9669 16.4219) rotate(-148.213) scale(2.61026 0.682028)">
<stop stop-color="#E8DEF1"/>
<stop offset="1" stop-color="#E8DEF1" stop-opacity="0"/>
</radialGradient>
<radialGradient id="paint17_radial_28327_7495" cx="0" cy="0" r="1" gradientUnits="userSpaceOnUse" gradientTransform="translate(16 16.1581) rotate(-90) scale(15.6113 21.8929)">
<stop stop-color="#E7D4F9"/>
<stop offset="1" stop-color="#D0C3DC"/>
</radialGradient>
<radialGradient id="paint18_radial_28327_7495" cx="0" cy="0" r="1" gradientUnits="userSpaceOnUse" gradientTransform="translate(17.7794 12.4844) rotate(137.161) scale(4.68792 3.72969)">
<stop stop-color="#FFBA5F"/>
<stop offset="0.813851" stop-color="#FC8F39"/>
</radialGradient>
<radialGradient id="paint19_radial_28327_7495" cx="0" cy="0" r="1" gradientUnits="userSpaceOnUse" gradientTransform="translate(13.9044 16.7344) rotate(-55.4422) scale(4.07678 7.01291)">
<stop stop-color="#EC6F51"/>
<stop offset="1" stop-color="#EC6F51" stop-opacity="0"/>
</radialGradient>
<radialGradient id="paint20_radial_28327_7495" cx="0" cy="0" r="1" gradientUnits="userSpaceOnUse" gradientTransform="translate(19.3107 3.57821) rotate(135) scale(3.0494 3.53553)">
<stop stop-color="#E9E2F0"/>
<stop offset="1" stop-color="#E9E2F0" stop-opacity="0"/>
</radialGradient>
<radialGradient id="paint21_radial_28327_7495" cx="0" cy="0" r="1" gradientUnits="userSpaceOnUse" gradientTransform="translate(25.6232 9.2031) rotate(139.185) scale(2.72521 5.92852)">
<stop stop-color="#E9E2F0"/>
<stop offset="1" stop-color="#E9E2F0" stop-opacity="0"/>
</radialGradient>
<radialGradient id="paint22_radial_28327_7495" cx="0" cy="0" r="1" gradientUnits="userSpaceOnUse" gradientTransform="translate(23.7442 17.1406) rotate(101.415) scale(4.55893 1.85266)">
<stop stop-color="#E9E2F0"/>
<stop offset="1" stop-color="#E9E2F0" stop-opacity="0"/>
</radialGradient>
<radialGradient id="paint23_radial_28327_7495" cx="0" cy="0" r="1" gradientUnits="userSpaceOnUse" gradientTransform="translate(15.4384 20.8086) rotate(149.201) scale(2.11322 2.4415)">
<stop stop-color="#E9E2F0"/>
<stop offset="1" stop-color="#E9E2F0" stop-opacity="0"/>
</radialGradient>
<radialGradient id="paint24_radial_28327_7495" cx="0" cy="0" r="1" gradientUnits="userSpaceOnUse" gradientTransform="translate(10.0919 7.60937) rotate(26.7961) scale(3.46593 2.37024)">
<stop stop-color="#E9E2F0"/>
<stop offset="1" stop-color="#E9E2F0" stop-opacity="0"/>
</radialGradient>
</defs>
</svg>
