<svg xmlns="http://www.w3.org/2000/svg" width="32" height="32" fill="none"><path fill="#FFB02E" d="M15.999 29.998c9.334 0 13.999-6.268 13.999-14 0-7.73-4.665-13.998-14-13.998C6.665 2 2 8.268 2 15.999c0 7.731 4.664 13.999 13.999 13.999Z"/><path fill="#402A32" fill-rule="evenodd" d="M8.952 7.2c.54-.475.875-1.127 1.065-1.83a.5.5 0 0 1 .966.26c-.225.831-.64 1.68-1.371 2.321C8.873 8.6 7.855 9 6.5 9a.5.5 0 0 1 0-1c1.145 0 1.92-.333 2.452-.8Zm.495 2.905a1 1 0 0 0-.894 1.79L10.763 13l-2.21 1.105a1 1 0 0 0 .894 1.79l4-2a1 1 0 0 0 0-1.79l-4-2Zm13.106 0a1 1 0 0 1 .894 1.79L21.237 13l2.21 1.105a1 1 0 0 1-.894 1.79l-4-2a1 1 0 0 1 0-1.79l4-2Zm-.57-4.736c.19.704.525 1.356 1.065 1.83.533.468 1.307.8 2.452.8a.5.5 0 0 1 0 1c-1.355 0-2.373-.4-3.112-1.048-.73-.642-1.146-1.49-1.37-2.32a.5.5 0 1 1 .965-.262Z" clip-rule="evenodd"/><path fill="#BB1D80" d="M10.343 18a8.993 8.993 0 0 0-3.22 5.506C6.987 24.323 7.671 25 8.5 25h15c.829 0 1.513-.677 1.377-1.494A8.993 8.993 0 0 0 21.657 18L16 17l-5.657 1Z"/><path fill="#fff" fill-rule="evenodd" d="M21.657 18H10.343A8.962 8.962 0 0 1 16 16c2.143 0 4.112.75 5.657 2Z" clip-rule="evenodd"/></svg>