<svg width="32" height="32" viewBox="0 0 32 32" fill="none" xmlns="http://www.w3.org/2000/svg">
<path d="M26.97 21.97C26.97 23.0745 26.0745 23.97 24.97 23.97C23.8654 23.97 22.97 23.0745 22.97 21.97C22.97 20.8654 23.8654 19.97 24.97 19.97C26.0745 19.97 26.97 20.8654 26.97 21.97Z" fill="#212121"/>
<path d="M8.83425 3.17576L21.737 16.0786C22.138 16.0071 22.5502 15.97 22.97 15.97C26.836 15.97 29.97 19.104 29.97 22.97C29.97 26.836 26.836 29.97 22.97 29.97C19.104 29.97 15.97 26.836 15.97 22.97C15.97 22.5502 16.0071 22.138 16.0786 21.737L3.17579 8.83424C1.61474 7.27319 1.61474 4.73684 3.17579 3.17579C4.74178 1.60981 7.26124 1.62267 8.82518 3.16681L8.83425 3.17576ZM18.3139 21.1439C18.0919 21.7096 17.97 22.3255 17.97 22.97C17.97 25.7314 20.2085 27.97 22.97 27.97C25.7314 27.97 27.97 25.7314 27.97 22.97C27.97 20.2085 25.7314 17.97 22.97 17.97C22.3255 17.97 21.7096 18.0919 21.1439 18.3139L18.725 15.895L18 16.62C17.61 17.01 16.98 17.01 16.59 16.62C16.2 16.23 16.2 15.6 16.59 15.21L17.315 14.485L14.485 11.655L13.76 12.38C13.37 12.77 12.74 12.77 12.35 12.38C11.96 11.99 11.96 11.36 12.35 10.97L13.075 10.245L10.24 7.40999L9.52 8.12997C9.13 8.51997 8.5 8.51997 8.11 8.12997C7.72001 7.74997 7.72001 7.10997 8.11 6.71997L8.82999 5.99999L7.42 4.59001C6.63 3.81001 5.37 3.81001 4.59 4.59001C3.81 5.37001 3.81 6.64002 4.59 7.42002L18.3139 21.1439Z" fill="#212121"/>
</svg>
