<svg width="32" height="32" viewBox="0 0 32 32" fill="none" xmlns="http://www.w3.org/2000/svg">
<path d="M17.312 6.91195C17.1673 6.85451 17.0106 6.83423 16.856 6.85295C16.8405 6.85432 16.8249 6.85261 16.81 6.84792C16.7952 6.84322 16.7814 6.83564 16.7695 6.8256C16.7576 6.81556 16.7478 6.80327 16.7407 6.78942C16.7336 6.77558 16.7293 6.76047 16.728 6.74495C16.7243 6.71461 16.7328 6.68405 16.7515 6.65989C16.7702 6.63574 16.7977 6.61995 16.828 6.61595C17.0208 6.59294 17.2163 6.61802 17.397 6.68895C17.4763 6.71883 17.5515 6.75847 17.621 6.80695C17.6456 6.8258 17.6618 6.85356 17.6661 6.88424C17.6704 6.91493 17.6625 6.94607 17.644 6.97095C17.6254 6.99549 17.5978 7.01166 17.5672 7.01597C17.5367 7.02028 17.5057 7.01236 17.481 6.99395H17.473L17.441 6.97395C17.4001 6.94921 17.3569 6.92844 17.312 6.91195Z" fill="#212121"/>
<path d="M14.6 6.98999L14.622 6.97399C14.6549 6.95219 14.6901 6.93408 14.727 6.91999C14.8898 6.86399 15.0637 6.84787 15.234 6.87299C15.2636 6.87427 15.2926 6.86426 15.3151 6.84498C15.3377 6.8257 15.352 6.79859 15.3553 6.76913C15.3586 6.73967 15.3506 6.71006 15.3329 6.68627C15.3152 6.66249 15.2892 6.6463 15.26 6.64099C15.0524 6.61123 14.8406 6.63251 14.643 6.70299C14.5647 6.72953 14.4929 6.7721 14.432 6.82799C14.4127 6.85037 14.4027 6.87919 14.4038 6.90869C14.4049 6.93818 14.4171 6.96617 14.438 6.98704C14.4588 7.00791 14.4868 7.02012 14.5163 7.02123C14.5458 7.02233 14.5746 7.01225 14.597 6.99299L14.6 6.98999Z" fill="#212121"/>
<path d="M15.088 7.5199C15.1377 7.51918 15.1869 7.52859 15.2328 7.54756C15.2787 7.56653 15.3202 7.59467 15.3548 7.63024C15.3895 7.66581 15.4165 7.70807 15.4342 7.75443C15.452 7.8008 15.4601 7.8503 15.458 7.8999C15.4597 7.93355 15.4563 7.96725 15.448 7.9999H15.488C15.5027 7.9992 15.517 7.99546 15.5302 7.98892C15.5433 7.98237 15.555 7.97317 15.5644 7.96188C15.5738 7.9506 15.5807 7.93749 15.5848 7.92338C15.5889 7.90926 15.59 7.89446 15.588 7.8799C15.5601 7.74676 15.4879 7.62705 15.383 7.54038C15.2782 7.45371 15.147 7.40524 15.011 7.40292C14.875 7.40059 14.7422 7.44455 14.6345 7.52758C14.5267 7.61062 14.4504 7.7278 14.418 7.8599C14.4162 7.87707 14.418 7.89441 14.4231 7.91089C14.4282 7.92736 14.4367 7.94261 14.4479 7.95571C14.4591 7.96881 14.4729 7.97949 14.4884 7.98709C14.5039 7.99468 14.5208 7.99905 14.538 7.9999H14.718C14.7177 7.98313 14.716 7.96641 14.713 7.9499C14.7121 7.93325 14.7121 7.91656 14.713 7.8999C14.713 7.79998 14.7524 7.70408 14.8225 7.63296C14.8927 7.56183 14.9881 7.52122 15.088 7.5199Z" fill="#212121"/>
<path d="M15.645 8.71599L15.865 8.00499C15.8766 7.96965 15.8994 7.93903 15.9299 7.91773C15.9604 7.89642 15.997 7.88557 16.0341 7.88681C16.0713 7.88805 16.1071 7.90131 16.1361 7.9246C16.1651 7.94789 16.1858 7.97996 16.195 8.01599L16.415 8.72499C16.424 8.75896 16.4251 8.79452 16.4183 8.82899C16.4114 8.86345 16.3969 8.89592 16.3757 8.92394C16.3545 8.95196 16.3273 8.97481 16.296 8.99075C16.2647 9.0067 16.2301 9.01533 16.195 9.01599H15.865C15.8292 9.0149 15.794 9.00567 15.7623 8.98898C15.7306 8.97228 15.703 8.94858 15.6818 8.91966C15.6606 8.89074 15.6463 8.85736 15.6399 8.82207C15.6335 8.78678 15.6353 8.7505 15.645 8.71599Z" fill="#212121"/>
<path d="M16.563 7.99998H16.593C16.5847 7.96733 16.5814 7.93362 16.583 7.89998C16.581 7.85038 16.589 7.80088 16.6068 7.75451C16.6245 7.70814 16.6515 7.66588 16.6862 7.63031C16.7208 7.59474 16.7623 7.56661 16.8082 7.54764C16.8541 7.52867 16.9034 7.51926 16.953 7.51998C17.0538 7.51998 17.1504 7.56002 17.2217 7.63128C17.293 7.70254 17.333 7.7992 17.333 7.89998C17.3344 7.91662 17.3344 7.93334 17.333 7.94998C17.3322 7.96664 17.3322 7.98332 17.333 7.99998H17.523C17.5401 7.99983 17.5569 7.99584 17.5723 7.9883C17.5876 7.98076 17.6011 7.96986 17.6116 7.95642C17.6222 7.94297 17.6296 7.92732 17.6333 7.91063C17.637 7.89394 17.6369 7.87663 17.633 7.85998C17.5998 7.73134 17.5248 7.61737 17.4199 7.53593C17.3149 7.45449 17.1859 7.41019 17.053 7.40998C16.9166 7.4079 16.7837 7.45383 16.6777 7.53974C16.5717 7.62565 16.4992 7.74607 16.473 7.87998C16.471 7.89377 16.4718 7.90781 16.4752 7.92131C16.4787 7.93481 16.4848 7.94749 16.4931 7.95864C16.5015 7.96978 16.512 7.97917 16.5239 7.98626C16.5359 7.99336 16.5492 7.99802 16.563 7.99998Z" fill="#212121"/>
<path d="M16.963 7.67993C16.9366 7.6798 16.9104 7.6849 16.886 7.69493C16.8946 7.70129 16.9015 7.7096 16.9062 7.71917C16.9109 7.72873 16.9132 7.73928 16.913 7.74993C16.913 7.7685 16.9056 7.7863 16.8925 7.79943C16.8794 7.81256 16.8616 7.81993 16.843 7.81993C16.8298 7.82001 16.8168 7.81628 16.8056 7.80919C16.7945 7.80209 16.7856 7.79194 16.78 7.77993C16.7562 7.81544 16.7433 7.85717 16.743 7.89993C16.742 7.91851 16.7451 7.93708 16.752 7.95435C16.7589 7.97162 16.7695 7.98717 16.783 7.99993H17.163C17.1753 7.96799 17.1821 7.93417 17.183 7.89993C17.1825 7.84175 17.1591 7.78609 17.118 7.74495C17.0769 7.7038 17.0212 7.68046 16.963 7.67993Z" fill="#212121"/>
<path d="M16.03 9.34992C16.2455 9.34888 16.4578 9.29751 16.65 9.19992C16.6637 9.19328 16.6791 9.19126 16.694 9.19417C16.7089 9.19708 16.7225 9.20475 16.7326 9.21604C16.7428 9.22733 16.749 9.24162 16.7503 9.25675C16.7517 9.27188 16.748 9.28703 16.74 9.29992C16.6629 9.41759 16.5575 9.51403 16.4334 9.58042C16.3094 9.64681 16.1707 9.68102 16.03 9.67992C15.8898 9.67865 15.7519 9.64342 15.6283 9.57724C15.5046 9.51106 15.3988 9.4159 15.32 9.29992C15.312 9.28703 15.3083 9.27188 15.3097 9.25675C15.311 9.24162 15.3172 9.22733 15.3274 9.21604C15.3375 9.20475 15.3511 9.19708 15.366 9.19417C15.3809 9.19126 15.3963 9.19328 15.41 9.19992C15.6004 9.3021 15.8139 9.35375 16.03 9.34992Z" fill="#212121"/>
<path d="M15.088 7.67993C15.0576 7.68027 15.0276 7.68709 15 7.69993C15.0108 7.70928 15.0186 7.72172 15.0221 7.73558C15.0256 7.74944 15.0249 7.76405 15.0199 7.77745C15.0148 7.79085 15.0058 7.8024 14.9941 7.81053C14.9823 7.81866 14.9683 7.82299 14.954 7.82293C14.9423 7.82271 14.9309 7.81968 14.9206 7.81411C14.9104 7.80855 14.9016 7.8006 14.895 7.79093C14.8751 7.82494 14.8645 7.86354 14.864 7.90293C14.8649 7.93716 14.8717 7.97098 14.884 8.00293H15.264C15.2775 7.99017 15.2881 7.97461 15.295 7.95734C15.302 7.94007 15.305 7.92151 15.304 7.90293C15.3043 7.84491 15.2818 7.78908 15.2415 7.7474C15.2011 7.70572 15.146 7.6815 15.088 7.67993Z" fill="#212121"/>
<path d="M24.865 5.00893L24.974 5.63693C25.0036 5.82154 24.9882 6.01057 24.929 6.18793C25.3463 6.94514 25.5309 7.80862 25.4598 8.67027C25.3886 9.53191 25.0648 10.3534 24.529 11.0319C24.506 11.8239 24.477 12.8599 24.456 13.6419C24.4432 14.2068 24.209 14.7441 23.8038 15.138C23.3987 15.5319 22.8551 15.751 22.29 15.7479H22.251C22.259 15.8229 22.259 15.8989 22.259 15.9749C22.2602 16.5728 22.0951 17.1593 21.7822 17.6688C21.4693 18.1782 21.0208 18.5906 20.487 18.8599L21.125 21.0789C21.2217 21.4152 21.2468 21.7681 21.1986 22.1146C21.1503 22.4612 21.0299 22.7938 20.845 23.0909L17.706 28.1309C17.5555 28.3735 17.3264 28.5571 17.0569 28.6512C16.7874 28.7453 16.4938 28.7441 16.225 28.6479L16.193 29.0769C16.1754 29.3045 16.0985 29.5236 15.9699 29.7122C15.8413 29.9008 15.6655 30.0524 15.46 30.1519L14.138 30.7869C13.9475 30.8789 13.7368 30.921 13.5256 30.9092C13.3144 30.8974 13.1096 30.8322 12.9305 30.7197C12.7514 30.6071 12.6038 30.451 12.5016 30.2658C12.3993 30.0806 12.3458 29.8725 12.346 29.6609L12.338 19.1109C11.7912 18.9713 11.2913 18.6888 10.8896 18.2924C10.4879 17.896 10.1988 17.3999 10.052 16.8549C9.77001 16.8829 9.50101 16.8889 9.27001 16.8889H8.96201C8.60414 16.8817 8.24781 16.8398 7.89801 16.7639C7.69405 16.856 7.47452 16.9085 7.25101 16.9189C7.02049 17.0735 6.74953 17.1566 6.47201 17.1579C6.19062 17.1568 5.91644 17.0688 5.68701 16.9059C5.5109 16.7834 5.36292 16.6248 5.25291 16.4407C5.1429 16.2565 5.07339 16.051 5.04901 15.8379C5.01274 15.2211 5.22279 14.615 5.63301 14.1529C5.91165 13.8118 6.25675 13.531 6.64733 13.3274C7.03791 13.1239 7.46581 13.0019 7.90501 12.9689C8.11601 12.9559 8.32301 12.9559 8.53801 12.9559C8.78201 12.9549 9.01101 12.9539 9.23801 12.9359L7.77601 11.4739C7.02261 10.7176 6.56767 9.71467 6.49487 8.64962C6.42208 7.58458 6.73632 6.52906 7.37979 5.67726C8.02327 4.82546 8.95269 4.23467 9.99707 4.01358C11.0415 3.79248 12.1306 3.95596 13.064 4.47393C13.2171 4.35684 13.3853 4.26097 13.564 4.18893L13.842 3.91193C14.0593 3.69363 14.3177 3.5206 14.6023 3.40285C14.8869 3.2851 15.192 3.22496 15.5 3.22593C15.6681 3.22618 15.8357 3.24428 16 3.27993C16.0199 3.28282 16.04 3.28349 16.06 3.28193C16.0809 3.28213 16.1017 3.27978 16.122 3.27493C16.5146 3.19144 16.9221 3.21212 17.3042 3.33493C17.6863 3.45773 18.0296 3.67837 18.3 3.97493L18.437 4.11293C18.4491 4.12605 18.4642 4.136 18.481 4.14193C18.658 4.20229 18.8262 4.28603 18.981 4.39093C19.2461 4.25196 19.5245 4.14006 19.812 4.05693C19.751 3.84659 19.751 3.62326 19.812 3.41293C19.876 3.19707 20 3.00386 20.1696 2.85584C20.3393 2.70781 20.5475 2.61108 20.77 2.57693L21.385 2.48993L21.68 1.88993C21.7808 1.704 21.9299 1.54867 22.1115 1.44027C22.2931 1.33187 22.5005 1.27441 22.712 1.27393C22.9308 1.27678 23.1447 1.33941 23.3304 1.45503C23.5162 1.57066 23.6668 1.73488 23.766 1.92993L24.04 2.49293L24.69 2.58393C24.9037 2.61843 25.1036 2.71175 25.2673 2.85343C25.431 2.99512 25.552 3.17958 25.6168 3.38615C25.6815 3.59273 25.6875 3.81325 25.6341 4.02303C25.5806 4.23282 25.4698 4.42357 25.314 4.57393L24.865 5.00893ZM11.62 15.8999C11.47 15.9754 11.3157 16.0422 11.158 16.0999C11.1745 16.5502 11.3475 16.9806 11.6472 17.317C11.9469 17.6535 12.3546 17.8748 12.8 17.9429V15.1429C12.4312 15.4315 12.0361 15.685 11.62 15.8999ZM18.801 15.5759H13.301L13.3 16.4149H18.839V16.3419C18.829 16.2369 18.821 16.1299 18.814 16.0169V15.9169C18.8128 15.8903 18.8114 15.8634 18.8099 15.8361C18.8055 15.7528 18.801 15.6664 18.801 15.5759ZM11.616 11.2279L9.73901 9.52293C9.722 9.50743 9.70821 9.48874 9.69843 9.46791C9.68865 9.44709 9.68306 9.42454 9.682 9.40156C9.68093 9.37857 9.6844 9.35561 9.69221 9.33397C9.70001 9.31232 9.71201 9.29243 9.72751 9.27543C9.743 9.25842 9.7617 9.24463 9.78252 9.23485C9.80334 9.22507 9.82589 9.21948 9.84887 9.21842C9.87186 9.21735 9.89482 9.22082 9.91647 9.22863C9.93811 9.23643 9.958 9.24843 9.97501 9.26393L12.365 11.4329C12.495 11.2889 12.624 11.1489 12.75 11.0279C12.9281 10.8427 13.139 10.6921 13.372 10.5839C13.438 10.5569 13.505 10.5319 13.572 10.5089L9.79101 7.07593C9.77294 7.0608 9.75811 7.04217 9.74741 7.02117C9.73671 7.00017 9.73037 6.97723 9.72876 6.95371C9.72715 6.9302 9.7303 6.90661 9.73803 6.88434C9.74576 6.86208 9.75791 6.84161 9.77375 6.82415C9.78958 6.8067 9.80878 6.79262 9.83019 6.78277C9.8516 6.77292 9.87478 6.76749 9.89834 6.76682C9.92189 6.76614 9.94535 6.77023 9.96728 6.77884C9.98922 6.78745 10.0092 6.80041 10.026 6.81693L11.126 7.81693L10.937 6.29293C10.9331 6.26962 10.9339 6.24576 10.9394 6.22278C10.9449 6.1998 10.9551 6.17817 10.9692 6.15921C10.9833 6.14025 11.0011 6.12435 11.0215 6.11246C11.0419 6.10057 11.0646 6.09294 11.088 6.09003C11.1115 6.08713 11.1353 6.089 11.158 6.09555C11.1807 6.10209 11.2019 6.11317 11.2202 6.12811C11.2385 6.14305 11.2536 6.16155 11.2646 6.18249C11.2755 6.20342 11.2821 6.22636 11.284 6.24993L11.523 8.17793L13.594 10.0589C13.4957 9.85658 13.4302 9.63987 13.4 9.41693V9.39993L13.379 9.09993C13.1766 9.01258 13.0021 8.87116 12.8748 8.69118C12.7474 8.5112 12.6722 8.29961 12.6572 8.07965C12.6422 7.85969 12.6881 7.63985 12.7899 7.44427C12.8916 7.24868 13.0453 7.08491 13.234 6.97093V6.94893C13.2112 6.74567 13.2146 6.54033 13.244 6.33793C13.2329 6.29053 13.2253 6.24241 13.221 6.19393L13.121 6.09393C12.5243 5.49719 11.7149 5.16194 10.871 5.16194C10.0271 5.16194 9.21774 5.49719 8.62101 6.09393C8.02427 6.69066 7.68903 7.50001 7.68903 8.34393C7.68903 9.18784 8.02427 9.99719 8.62101 10.5939L10.901 12.8769C11.353 12.5302 11.7652 12.1345 12.13 11.6969L11.969 11.5509L10.719 11.6509C10.6727 11.6546 10.6269 11.6398 10.5915 11.6097C10.5562 11.5796 10.5342 11.5367 10.5305 11.4904C10.5268 11.4441 10.5416 11.3983 10.5717 11.3629C10.6018 11.3276 10.6447 11.3056 10.691 11.3019L11.616 11.2279ZM16.4875 6.01826C16.3152 5.90648 16.1783 5.74782 16.093 5.56093C16.0732 5.50472 16.0359 5.45635 15.9866 5.42288C15.9373 5.3894 15.8786 5.3726 15.819 5.37493H15.26C14.8712 5.37225 14.4972 5.52359 14.2197 5.79586C13.9422 6.06813 13.7838 6.43918 13.779 6.82793L13.742 7.14593L13.753 7.30793C13.579 7.33443 13.4213 7.42553 13.3115 7.56308C13.2016 7.70063 13.1476 7.87452 13.1602 8.0501C13.1728 8.22569 13.2511 8.39008 13.3795 8.51051C13.5079 8.63094 13.677 8.69857 13.853 8.69993L13.898 9.35193C13.9383 9.63166 14.0488 9.89664 14.2191 10.1222C14.3894 10.3477 14.614 10.5265 14.872 10.6419C15.0537 10.7244 15.2482 10.7755 15.447 10.7929C15.5 10.7999 15.553 10.7999 15.607 10.7999H16.441C16.7794 10.8008 17.1109 10.7043 17.396 10.5219C17.4806 10.4673 17.5602 10.4054 17.634 10.3369C17.9152 10.0783 18.0979 9.73021 18.151 9.35193L18.192 8.69993C18.3636 8.69128 18.526 8.61982 18.6483 8.49916C18.7707 8.3785 18.8443 8.21707 18.8553 8.04561C18.8663 7.87414 18.8139 7.70462 18.708 7.56933C18.6021 7.43404 18.4501 7.34242 18.281 7.31193L18.287 7.22693V6.81293C18.2817 6.65162 18.2159 6.49822 18.1027 6.38318C17.9895 6.26814 17.8372 6.19987 17.676 6.19193H17.066C16.8606 6.19029 16.6599 6.13003 16.4875 6.01826ZM21.845 14.6639C21.9811 14.7189 22.1263 14.7478 22.273 14.7489C22.5716 14.7437 22.8566 14.6237 23.0691 14.4138C23.2815 14.204 23.4051 13.9204 23.414 13.6219C23.444 12.4599 23.492 10.7329 23.514 10.0849L23.597 9.04093C23.6006 8.99528 23.5947 8.94938 23.5797 8.90611C23.5647 8.86285 23.5409 8.82316 23.5098 8.78954C23.4787 8.75592 23.441 8.72909 23.399 8.71074C23.3571 8.69239 23.3118 8.68292 23.266 8.68293C23.2213 8.68236 23.1769 8.69093 23.1357 8.70813C23.0944 8.72533 23.0571 8.75078 23.026 8.78293V9.36393C23.012 9.4466 22.9691 9.52165 22.9051 9.57576C22.841 9.62987 22.7599 9.65955 22.676 9.65955C22.5921 9.65955 22.511 9.62987 22.4469 9.57576C22.3829 9.52165 22.34 9.4466 22.326 9.36393V8.42293C22.2954 8.3407 22.241 8.26943 22.1698 8.21816C22.0985 8.16688 22.0137 8.13792 21.926 8.13493C21.8703 8.13426 21.815 8.14466 21.7634 8.16553C21.7117 8.18639 21.6647 8.21729 21.6251 8.25645C21.5855 8.29561 21.554 8.34225 21.5325 8.39365C21.5111 8.44506 21.5 8.50022 21.5 8.55593V9.34993C21.4999 9.46277 21.5299 9.57359 21.587 9.67093C21.597 9.68793 21.607 9.70393 21.618 9.71993C21.6367 9.74655 21.657 9.77194 21.679 9.79593C21.7113 9.83041 21.7398 9.8683 21.764 9.90893L21.79 9.95793C21.8622 10.108 21.8843 10.2773 21.853 10.4409C21.8229 10.6011 21.7857 10.8 21.7466 11.0089C21.695 11.2851 21.6401 11.5786 21.594 11.8229C21.554 12.0349 21.521 12.2089 21.502 12.3029V12.3249L21.49 12.3189L21.031 12.1309L18.792 11.2089C18.726 11.1769 18.662 11.1479 18.599 11.1199C18.7111 11.2835 18.772 11.4767 18.774 11.6749L18.793 13.5299C18.7951 13.5173 18.7999 13.5053 18.8073 13.4949C18.8146 13.4844 18.8242 13.4757 18.8353 13.4695C18.8465 13.4632 18.8589 13.4596 18.8717 13.4588C18.8844 13.458 18.8972 13.4601 18.909 13.4649L19.099 13.5439L19.285 13.6199H19.292L19.924 13.8819L20.21 13.9999L20.202 13.9939L20.208 13.9879L21.845 14.6639ZM19.385 16.6189C19.4479 17.034 19.5364 17.4448 19.65 17.8489V17.8519C19.9308 17.7529 20.1855 17.5915 20.395 17.3799C20.7538 17.0195 20.961 16.5354 20.9742 16.027C20.9874 15.5187 20.8056 15.0245 20.466 14.6459L19.292 14.1609C19.2667 14.9814 19.2978 15.8027 19.385 16.6189ZM21.368 10.3299L20.286 11.2809L21.129 11.6259C21.207 11.2119 21.304 10.6909 21.368 10.3469V10.3299ZM21.6267 4.66565C21.6347 4.69164 21.6362 4.71922 21.631 4.74593L21.415 5.79993C21.4095 5.82603 21.4103 5.85307 21.4175 5.87879C21.4246 5.9045 21.4377 5.92814 21.4558 5.94773C21.4739 5.96731 21.4965 5.98227 21.5216 5.99135C21.5467 6.00043 21.5736 6.00337 21.6 5.99993C21.611 5.99574 21.6211 5.98964 21.63 5.98193H21.641L22.591 5.48193C22.6161 5.47055 22.6434 5.46466 22.671 5.46466C22.6986 5.46466 22.7259 5.47055 22.751 5.48193L23.751 5.97393H23.767C23.7948 5.98431 23.8248 5.98707 23.854 5.98193C23.8892 5.96795 23.9185 5.94213 23.9367 5.90891C23.955 5.87569 23.9611 5.83716 23.954 5.79993L23.771 4.74593C23.7663 4.71922 23.768 4.69178 23.776 4.66588C23.784 4.63997 23.7981 4.61634 23.817 4.59693L24.583 3.85293C24.606 3.8315 24.6225 3.80397 24.6304 3.77355C24.6384 3.74314 24.6376 3.71108 24.6281 3.68111C24.6185 3.65115 24.6007 3.62451 24.5766 3.60429C24.5525 3.58408 24.5232 3.57112 24.492 3.56693L23.428 3.41793C23.4014 3.41342 23.3763 3.40287 23.3544 3.38709C23.3326 3.37131 23.3146 3.35073 23.302 3.32693L22.833 2.36593C22.8199 2.34077 22.8002 2.31968 22.7759 2.30497C22.7517 2.29025 22.7239 2.28247 22.6955 2.28247C22.6671 2.28247 22.6393 2.29025 22.6151 2.30497C22.5908 2.31968 22.5711 2.34077 22.558 2.36593L22.089 3.32693C22.0764 3.35073 22.0584 3.37131 22.0366 3.38709C22.0147 3.40287 21.9896 3.41342 21.963 3.41793L20.91 3.56693C20.8791 3.57148 20.85 3.58464 20.8262 3.6049C20.8023 3.62516 20.7847 3.6517 20.7752 3.68151C20.7657 3.71132 20.7648 3.74319 20.7725 3.7735C20.7803 3.8038 20.7964 3.83132 20.819 3.85293L21.585 4.59693C21.6044 4.61604 21.6187 4.63965 21.6267 4.66565ZM23.036 8.21493C23.1139 8.19156 23.1947 8.17976 23.276 8.17993C23.4965 8.17993 23.708 8.26744 23.864 8.42326C24.02 8.57907 24.1077 8.79044 24.108 9.01093C24.2071 8.57394 24.2125 8.12091 24.1237 7.68171C24.0349 7.24251 23.8541 6.82711 23.593 6.46293C23.5548 6.45025 23.5177 6.43454 23.482 6.41593L23.036 6.18693V8.21493ZM18.813 6.49193C18.8263 6.64679 18.8236 6.80261 18.805 6.95693L18.8 6.99193C18.9794 7.10768 19.1247 7.26922 19.2209 7.45986C19.317 7.65051 19.3606 7.86336 19.347 8.07645C19.3335 8.28954 19.2633 8.49516 19.1438 8.67208C19.0242 8.84901 18.8596 8.99083 18.667 9.08293L18.646 9.40093V9.41893C18.6243 9.57572 18.5854 9.72964 18.53 9.87793L20.344 8.24793L20.606 6.30093C20.6088 6.27773 20.6163 6.25534 20.6279 6.23511C20.6396 6.21488 20.6553 6.19722 20.674 6.18321C20.6927 6.16919 20.714 6.1591 20.7367 6.15355C20.7594 6.14801 20.783 6.14711 20.806 6.15093C20.8291 6.15399 20.8514 6.16162 20.8715 6.17336C20.8917 6.18511 20.9093 6.20074 20.9233 6.21935C20.9374 6.23796 20.9476 6.25917 20.9534 6.28176C20.9592 6.30435 20.9604 6.32786 20.957 6.35093L20.749 7.89093L21.949 6.81793C21.9836 6.7869 22.0291 6.77088 22.0756 6.77342C22.122 6.77595 22.1655 6.79681 22.1965 6.83143C22.2275 6.86604 22.2435 6.91156 22.241 6.95797C22.2385 7.00439 22.2176 7.0479 22.183 7.07893L18.368 10.4969C18.5844 10.5674 18.7956 10.6529 19 10.7529L19.923 11.1349L21.209 10.0049C21.0743 9.81296 21.0014 9.58444 21 9.34993V8.55593C21 8.39866 21.0402 8.24401 21.1167 8.10663C21.1933 7.96925 21.3036 7.85371 21.4374 7.77096C21.5711 7.68822 21.7238 7.64102 21.8809 7.63383C22.038 7.62665 22.1943 7.65973 22.335 7.72993V6.18693L21.879 6.42793H21.869C21.7589 6.48148 21.6361 6.50359 21.5142 6.49182C21.3924 6.48005 21.2761 6.43486 21.1783 6.36122C21.0804 6.28759 21.0048 6.18837 20.9598 6.07451C20.9147 5.96065 20.902 5.83656 20.923 5.71593L21.023 5.13493C20.2218 5.13033 19.4486 5.4294 18.859 5.97193C18.8856 6.14644 18.8698 6.32479 18.813 6.49193ZM16.384 12.0269L16.779 11.2739C16.6658 11.2911 16.5515 11.2994 16.437 11.2989H15.603C15.4936 11.2989 15.3843 11.2912 15.276 11.2759L15.676 12.0269C15.7099 12.0914 15.7608 12.1454 15.8232 12.1831C15.8856 12.2208 15.9571 12.2407 16.03 12.2407C16.1029 12.2407 16.1744 12.2208 16.2368 12.1831C16.2992 12.1454 16.3501 12.0914 16.384 12.0269ZM13.34 22.0079L13.345 28.1789L15.238 27.9999L15.35 26.4979L15.362 26.3289L15.686 22.0079H13.34ZM16.3 24.7999L17.445 26.6159L19.966 22.5669C20.0772 22.3886 20.1497 22.189 20.1788 21.9809C20.208 21.7728 20.193 21.5609 20.135 21.3589L19.908 20.5719L17.575 21.0919L17.675 21.3349C17.7245 21.455 17.7245 21.5898 17.675 21.7099C17.313 22.5869 16.734 23.8599 16.3 24.7999ZM7.46177 15.8674C7.55413 15.8284 7.63783 15.7715 7.70801 15.6999C8.1151 15.8108 8.53343 15.8752 8.95501 15.8919H9.45601C9.55101 15.8899 9.65101 15.8869 9.75601 15.8799L9.81701 15.8749C10.1069 15.8538 10.3941 15.8056 10.675 15.7309C10.8608 15.6799 11.0426 15.6154 11.219 15.5379C11.277 15.5119 11.336 15.4839 11.394 15.4549C11.8978 15.1917 12.3696 14.8712 12.8 14.4999L12.859 14.4519C12.914 14.4029 12.961 14.3609 12.997 14.3269C13.063 14.2699 13.097 14.2369 13.097 14.2369C13.1043 14.2303 13.1111 14.224 13.1175 14.2181C13.1631 14.176 13.1881 14.1529 13.21 14.1529C13.2209 14.1504 13.2322 14.1504 13.243 14.1529L13.271 11.7299C13.2736 11.4853 13.3657 11.2502 13.53 11.0689C13.2255 11.256 12.9566 11.4957 12.736 11.7769L12.679 11.8409L12.568 11.9669L12.517 12.0239L12.504 12.0389C12.1321 12.4803 11.7159 12.8824 11.262 13.2389C11.223 13.2679 11.1815 13.2933 11.1402 13.3186C11.1159 13.3335 11.0917 13.3484 11.068 13.3639L11.087 13.3839C10.8541 13.5373 10.6019 13.659 10.337 13.7459C10.1084 13.817 9.87428 13.8685 9.63701 13.8999H9.61201C9.25513 13.9447 8.89567 13.9657 8.53601 13.9629C8.33401 13.9639 8.13301 13.9649 7.92701 13.9759C7.62928 14.0058 7.3404 14.0943 7.07698 14.2362C6.81355 14.3782 6.58077 14.5708 6.39201 14.8029C6.16601 15.0599 5.78301 15.7619 6.25501 16.0939C6.31573 16.1392 6.38926 16.1641 6.46501 16.1649C6.55527 16.1527 6.64193 16.1215 6.7193 16.0734C6.79667 16.0253 6.86302 15.9614 6.91401 15.8859C6.99674 15.9126 7.08308 15.9264 7.17001 15.9269C7.27024 15.9266 7.36942 15.9064 7.46177 15.8674Z" fill="#212121"/>
</svg>
