<svg width="32" height="32" viewBox="0 0 32 32" fill="none" xmlns="http://www.w3.org/2000/svg">
<path d="M2.35608 29.6831V20.73L7.55991 18.7534L10.0735 20.0425C9.8531 19.6597 10.6721 19.5051 11.1438 20.4722C11.3782 20.9526 11.0305 22.2847 10.5461 22.894L9.22594 24.3744C9.08219 24.5356 9.09235 24.7817 9.2489 24.9305L14.2493 29.6831H2.35608Z" fill="url(#paint0_radial_4002_866)"/>
<path d="M2.35608 29.6831V20.73L7.55991 18.7534L10.0735 20.0425C9.8531 19.6597 10.6721 19.5051 11.1438 20.4722C11.3782 20.9526 11.0305 22.2847 10.5461 22.894L9.22594 24.3744C9.08219 24.5356 9.09235 24.7817 9.2489 24.9305L14.2493 29.6831H2.35608Z" fill="url(#paint1_linear_4002_866)"/>
<path d="M9.59129 16.6768C9.64697 16.2702 9.91929 16.0422 10.0485 15.9791L2.35608 18.6303V21.2914C3.03521 21.0157 4.58258 20.3705 5.64003 19.8761C6.52622 19.4619 7.35502 19.4675 7.81778 19.5871L11.1594 20.5112L9.83972 17.7432C9.59129 17.2221 9.5356 17.0834 9.59129 16.6768Z" fill="url(#paint2_linear_4002_866)"/>
<path d="M9.59129 16.6768C9.64697 16.2702 9.91929 16.0422 10.0485 15.9791L2.35608 18.6303V21.2914C3.03521 21.0157 4.58258 20.3705 5.64003 19.8761C6.52622 19.4619 7.35502 19.4675 7.81778 19.5871L11.1594 20.5112L9.83972 17.7432C9.59129 17.2221 9.5356 17.0834 9.59129 16.6768Z" fill="url(#paint3_linear_4002_866)"/>
<path d="M9.59129 16.6768C9.64697 16.2702 9.91929 16.0422 10.0485 15.9791L2.35608 18.6303V21.2914C3.03521 21.0157 4.58258 20.3705 5.64003 19.8761C6.52622 19.4619 7.35502 19.4675 7.81778 19.5871L11.1594 20.5112L9.83972 17.7432C9.59129 17.2221 9.5356 17.0834 9.59129 16.6768Z" fill="url(#paint4_radial_4002_866)"/>
<path d="M9.59129 16.6768C9.64697 16.2702 9.91929 16.0422 10.0485 15.9791L2.35608 18.6303V21.2914C3.03521 21.0157 4.58258 20.3705 5.64003 19.8761C6.52622 19.4619 7.35502 19.4675 7.81778 19.5871L11.1594 20.5112L9.83972 17.7432C9.59129 17.2221 9.5356 17.0834 9.59129 16.6768Z" fill="url(#paint5_radial_4002_866)"/>
<path d="M9.59129 16.6768C9.64697 16.2702 9.91929 16.0422 10.0485 15.9791L2.35608 18.6303V21.2914C3.03521 21.0157 4.58258 20.3705 5.64003 19.8761C6.52622 19.4619 7.35502 19.4675 7.81778 19.5871L11.1594 20.5112L9.83972 17.7432C9.59129 17.2221 9.5356 17.0834 9.59129 16.6768Z" fill="url(#paint6_radial_4002_866)"/>
<g filter="url(#filter0_ii_4002_866)">
<path d="M2.35608 22.7375V29.6831H10.6986C9.59127 29.1053 8.36938 28.4616 7.72583 28.105C6.68833 27.53 6.41569 26.959 6.24146 26.5815C6.17647 26.4407 6.05516 26.131 5.86973 25.6575C5.78767 25.4479 5.69306 25.2063 5.58521 24.9331C5.26295 24.1167 4.63208 23.7143 4.14771 23.5112L2.35608 22.7375Z" fill="#A29EA7"/>
</g>
<path d="M14.8032 14.4175L2.35608 18.7798V1.73779H18.3004C17.8995 4.58936 17.067 10.5972 16.8103 12.4175C16.6265 13.7205 16.009 13.9409 14.8032 14.4175Z" fill="url(#paint7_linear_4002_866)"/>
<path d="M14.8032 14.4175L2.35608 18.7798V1.73779H18.3004C17.8995 4.58936 17.067 10.5972 16.8103 12.4175C16.6265 13.7205 16.009 13.9409 14.8032 14.4175Z" fill="url(#paint8_linear_4002_866)"/>
<path d="M14.8032 14.4175L2.35608 18.7798V1.73779H18.3004C17.8995 4.58936 17.067 10.5972 16.8103 12.4175C16.6265 13.7205 16.009 13.9409 14.8032 14.4175Z" fill="url(#paint9_radial_4002_866)"/>
<g filter="url(#filter1_f_4002_866)">
<path d="M16.87 11.9926C16.8477 12.1519 16.8277 12.2943 16.8103 12.4175C16.697 13.2204 16.4191 13.6122 15.9403 13.9063L15.0825 12.6203L14.1374 11.2914C14.0632 11.1871 14.0876 11.0424 14.1919 10.9683C14.2745 10.9095 14.3825 10.9126 14.4606 10.9683L14.334 10.7902C14.2446 10.6646 14.2741 10.4903 14.3997 10.4009C14.4678 10.3525 14.5501 10.3389 14.6255 10.3566L14.602 10.3241C14.5126 10.1984 14.542 10.0241 14.6677 9.93474C14.7933 9.84538 14.9676 9.8748 15.057 10.0005L15.1635 10.1475C15.1396 10.0411 15.1797 9.92589 15.2742 9.8587C15.3998 9.76933 15.5742 9.79875 15.6635 9.92441L16.1627 10.7429L16.1886 10.5142C16.2077 10.3449 16.367 10.2277 16.5344 10.2598C16.6936 10.2903 16.7976 10.4445 16.7724 10.6047C16.7406 10.8064 16.7105 11.0447 16.7112 11.2041C16.713 11.5942 16.7836 11.8179 16.87 11.9926Z" fill="url(#paint10_linear_4002_866)"/>
</g>
<g filter="url(#filter2_i_4002_866)">
<path fill-rule="evenodd" clip-rule="evenodd" d="M23.6641 13.4975C20.0458 11.7864 18.7727 9.04247 18.1827 6.95262C18.0718 6.52554 18.218 5.95653 18.7727 5.86278L19.4663 5.70582C19.692 5.66377 19.9059 5.82015 19.9419 6.04694C20.2729 8.13165 21.1175 10.1377 24.4122 11.9155L23.6641 13.4975Z" fill="url(#paint11_radial_4002_866)"/>
</g>
<path d="M10.2204 1.73779C10.7711 2.79183 11.5904 4.69544 12.0696 6.57373C12.8508 9.63623 11.8196 11.855 8.31958 12.8862C6.6844 13.368 4.38703 14.0296 2.35608 14.6107V1.73779L10.2204 1.73779Z" fill="url(#paint12_linear_4002_866)"/>
<path d="M10.2204 1.73779C10.7711 2.79183 11.5904 4.69544 12.0696 6.57373C12.8508 9.63623 11.8196 11.855 8.31958 12.8862C6.6844 13.368 4.38703 14.0296 2.35608 14.6107V1.73779L10.2204 1.73779Z" fill="url(#paint13_radial_4002_866)"/>
<path d="M10.2204 1.73779C10.7711 2.79183 11.5904 4.69544 12.0696 6.57373C12.8508 9.63623 11.8196 11.855 8.31958 12.8862C6.6844 13.368 4.38703 14.0296 2.35608 14.6107V1.73779L10.2204 1.73779Z" fill="url(#paint14_linear_4002_866)"/>
<g filter="url(#filter3_i_4002_866)">
<path d="M13.9396 1.69385C14.3328 3.24733 14.7898 6.3871 14.0741 9.023C14.037 9.15953 14.1071 9.30347 14.2391 9.35425C14.2852 9.37198 14.3355 9.3777 14.3831 9.36444C14.7611 9.259 15.2189 8.85158 15.5361 8.07666C16.1028 6.69218 16.7155 4.32754 17.1729 2.56208C17.2534 2.25122 17.3292 1.95893 17.399 1.69385H13.9396Z" fill="url(#paint15_radial_4002_866)"/>
</g>
<g filter="url(#filter4_f_4002_866)">
<path d="M19.694 7.53198C19.7634 8.02372 20.1764 9.31611 21.2733 10.5518" stroke="url(#paint16_linear_4002_866)" stroke-width="0.5" stroke-linecap="round"/>
</g>
<g filter="url(#filter5_i_4002_866)">
<path d="M19.286 1.73779V11.3263C19.286 11.4581 19.3127 11.5886 19.3646 11.7097L21.0707 15.6988L21.4915 15.8354C21.5403 15.9497 21.6571 16.8138 21.7714 16.765C21.8856 16.7161 21.9386 16.5839 21.8898 16.4696L19.7783 11.5328C19.7504 11.4675 19.736 11.3973 19.736 11.3263V1.73779H19.286Z" fill="url(#paint17_linear_4002_866)"/>
</g>
<path d="M22.4523 7.97217C22.4836 7.76514 22.6047 7.70264 22.9016 7.62061C23.1185 7.56067 23.2433 7.43969 23.2891 7.37254L22.8313 8.3667C22.6203 8.3667 22.4211 8.1792 22.4523 7.97217Z" fill="url(#paint18_radial_4002_866)"/>
<path d="M24.6008 18.7339L26.5071 19.3646V20.0933C26.5071 20.6197 26.0804 21.0464 25.554 21.0464C25.0276 21.0464 24.6008 20.6197 24.6008 20.0933V18.7339Z" fill="url(#paint19_linear_4002_866)"/>
<path d="M24.6008 18.7339L26.5071 19.3646V20.0933C26.5071 20.6197 26.0804 21.0464 25.554 21.0464C25.0276 21.0464 24.6008 20.6197 24.6008 20.0933V18.7339Z" fill="url(#paint20_radial_4002_866)"/>
<path d="M24.6008 18.7339L26.5071 19.3646V20.0933C26.5071 20.6197 26.0804 21.0464 25.554 21.0464C25.0276 21.0464 24.6008 20.6197 24.6008 20.0933V18.7339Z" fill="url(#paint21_radial_4002_866)"/>
<rect x="23.7316" y="10.4391" width="1.9053" height="1.84375" transform="rotate(7.72995 23.7316 10.4391)" fill="url(#paint22_radial_4002_866)"/>
<g filter="url(#filter6_ii_4002_866)">
<path d="M22.3119 9.15967C22.5891 8.28467 23.2624 7.34456 23.5229 6.97217L26.4213 8.83936L25.8275 10.8862C25.5385 10.9565 24.7713 11.055 24.015 10.8862C23.0697 10.6753 21.9481 10.3078 22.3119 9.15967Z" fill="url(#paint23_radial_4002_866)"/>
<path d="M22.3119 9.15967C22.5891 8.28467 23.2624 7.34456 23.5229 6.97217L26.4213 8.83936L25.8275 10.8862C25.5385 10.9565 24.7713 11.055 24.015 10.8862C23.0697 10.6753 21.9481 10.3078 22.3119 9.15967Z" fill="url(#paint24_radial_4002_866)"/>
</g>
<path fill-rule="evenodd" clip-rule="evenodd" d="M24.675 17.6472C24.7854 17.6472 24.875 17.7368 24.875 17.8472V18.73C24.875 18.8405 24.7854 18.93 24.675 18.93C24.5645 18.93 24.475 18.8405 24.475 18.73V17.8472C24.475 17.7368 24.5645 17.6472 24.675 17.6472Z" fill="url(#paint25_linear_4002_866)"/>
<path fill-rule="evenodd" clip-rule="evenodd" d="M24.4861 18.6956C24.5224 18.5912 24.6363 18.536 24.7407 18.5723L26.4829 19.1778C26.5872 19.214 26.6424 19.328 26.6061 19.4323C26.5699 19.5367 26.4559 19.5919 26.3516 19.5556L24.6094 18.9501C24.505 18.9139 24.4499 18.7999 24.4861 18.6956Z" fill="url(#paint26_linear_4002_866)"/>
<path fill-rule="evenodd" clip-rule="evenodd" d="M24.4861 18.6956C24.5224 18.5912 24.6363 18.536 24.7407 18.5723L26.4829 19.1778C26.5872 19.214 26.6424 19.328 26.6061 19.4323C26.5699 19.5367 26.4559 19.5919 26.3516 19.5556L24.6094 18.9501C24.505 18.9139 24.4499 18.7999 24.4861 18.6956Z" fill="url(#paint27_radial_4002_866)"/>
<path fill-rule="evenodd" clip-rule="evenodd" d="M22.6774 8.87834C22.7076 8.83214 22.7696 8.81923 22.8158 8.8495C22.9007 8.90507 23.0663 8.95238 23.3363 8.89037C23.3901 8.878 23.4438 8.91161 23.4561 8.96544C23.4685 9.01927 23.4349 9.07292 23.3811 9.08529C23.0729 9.15609 22.848 9.10965 22.7062 9.01679C22.66 8.98652 22.6471 8.92454 22.6774 8.87834Z" fill="#86004D"/>
<path d="M23.804 7.48781C23.6027 7.51943 23.4784 7.70916 23.4172 7.80812L24.1516 8.2925C24.4094 7.6675 24.0774 7.44484 23.804 7.48781Z" fill="white"/>
<g filter="url(#filter7_i_4002_866)">
<path d="M19.1946 20.6831L19.5852 20.2769L21.6946 21.4644L21.2024 21.9644L23.0383 25.8862L23.8385 26.462C23.9275 26.526 23.9484 26.6499 23.8852 26.7395L22.1322 29.2263C22.0713 29.3128 21.9606 29.3535 21.8687 29.301C21.6908 29.1994 21.4993 29.0053 21.4993 28.7222C21.4618 28.1659 21.692 27.0216 21.8118 26.519C21.1503 25.5789 19.6743 23.4737 19.0618 22.5737C18.4493 21.6737 18.8951 20.9383 19.1946 20.6831Z" fill="#DDA49E"/>
<path d="M19.1946 20.6831L19.5852 20.2769L21.6946 21.4644L21.2024 21.9644L23.0383 25.8862L23.8385 26.462C23.9275 26.526 23.9484 26.6499 23.8852 26.7395L22.1322 29.2263C22.0713 29.3128 21.9606 29.3535 21.8687 29.301C21.6908 29.1994 21.4993 29.0053 21.4993 28.7222C21.4618 28.1659 21.692 27.0216 21.8118 26.519C21.1503 25.5789 19.6743 23.4737 19.0618 22.5737C18.4493 21.6737 18.8951 20.9383 19.1946 20.6831Z" fill="url(#paint28_linear_4002_866)"/>
<path d="M19.1946 20.6831L19.5852 20.2769L21.6946 21.4644L21.2024 21.9644L23.0383 25.8862L23.8385 26.462C23.9275 26.526 23.9484 26.6499 23.8852 26.7395L22.1322 29.2263C22.0713 29.3128 21.9606 29.3535 21.8687 29.301C21.6908 29.1994 21.4993 29.0053 21.4993 28.7222C21.4618 28.1659 21.692 27.0216 21.8118 26.519C21.1503 25.5789 19.6743 23.4737 19.0618 22.5737C18.4493 21.6737 18.8951 20.9383 19.1946 20.6831Z" fill="url(#paint29_radial_4002_866)"/>
</g>
<path d="M23.0395 25.8871L23.8385 26.462C23.9276 26.5261 23.9484 26.6499 23.8852 26.7396L22.1323 29.2263C22.0713 29.3128 21.9607 29.3536 21.8688 29.3011C21.6909 29.1995 21.4993 29.0054 21.4993 28.7222C21.4618 28.1659 21.692 27.0217 21.8118 26.5191L21.8102 26.5168L23.0395 25.8871Z" fill="#544583"/>
<path d="M23.0395 25.8871L23.8385 26.462C23.9276 26.5261 23.9484 26.6499 23.8852 26.7396L22.1323 29.2263C22.0713 29.3128 21.9607 29.3536 21.8688 29.3011C21.6909 29.1995 21.4993 29.0054 21.4993 28.7222C21.4618 28.1659 21.692 27.0217 21.8118 26.5191L21.8102 26.5168L23.0395 25.8871Z" fill="url(#paint30_radial_4002_866)"/>
<path d="M23.0395 25.8871L23.8385 26.462C23.9276 26.5261 23.9484 26.6499 23.8852 26.7396L22.1323 29.2263C22.0713 29.3128 21.9607 29.3536 21.8688 29.3011C21.6909 29.1995 21.4993 29.0054 21.4993 28.7222C21.4618 28.1659 21.692 27.0217 21.8118 26.5191L21.8102 26.5168L23.0395 25.8871Z" fill="url(#paint31_radial_4002_866)"/>
<path d="M23.0395 25.8871L23.8385 26.462C23.9276 26.5261 23.9484 26.6499 23.8852 26.7396L22.1323 29.2263C22.0713 29.3128 21.9607 29.3536 21.8688 29.3011C21.6909 29.1995 21.4993 29.0054 21.4993 28.7222C21.4618 28.1659 21.692 27.0217 21.8118 26.5191L21.8102 26.5168L23.0395 25.8871Z" fill="url(#paint32_linear_4002_866)"/>
<path d="M23.0395 25.8871L23.8385 26.462C23.9276 26.5261 23.9484 26.6499 23.8852 26.7396L22.1323 29.2263C22.0713 29.3128 21.9607 29.3536 21.8688 29.3011C21.6909 29.1995 21.4993 29.0054 21.4993 28.7222C21.4618 28.1659 21.692 27.0217 21.8118 26.5191L21.8102 26.5168L23.0395 25.8871Z" fill="url(#paint33_radial_4002_866)"/>
<path d="M23.8299 8.08036C23.8389 8.06728 23.8477 8.05377 23.8562 8.03984C23.9875 7.82408 23.9996 7.59181 23.8834 7.52106C23.7671 7.45032 23.5664 7.56788 23.4351 7.78364C23.4298 7.79235 23.4247 7.80109 23.4198 7.80985L23.8299 8.08036Z" fill="url(#paint34_linear_4002_866)"/>
<path d="M23.6723 7.9763C23.6912 7.95556 23.7092 7.93162 23.7254 7.90505C23.7983 7.78508 23.8065 7.65676 23.7435 7.61842C23.6805 7.58009 23.5702 7.64627 23.4972 7.76624C23.4828 7.78988 23.471 7.81385 23.4617 7.83738L23.6723 7.9763Z" fill="#414141"/>
<circle cx="23.7637" cy="7.61646" r="0.0722656" fill="#DFDFDF"/>
<path d="M22.6243 12.6362L21.3743 15.4565L24.7649 17.7143C25.3274 16.9877 26.0305 14.8627 26.0071 13.4721C25.9893 12.4174 25.5713 12.0682 24.9055 11.7065C24.5891 11.5346 23.8797 11.4266 23.5071 11.5463C23.1344 11.6661 22.7766 12.2104 22.6243 12.6362Z" fill="url(#paint35_linear_4002_866)"/>
<path d="M22.6243 12.6362L21.3743 15.4565L24.7649 17.7143C25.3274 16.9877 26.0305 14.8627 26.0071 13.4721C25.9893 12.4174 25.5713 12.0682 24.9055 11.7065C24.5891 11.5346 23.8797 11.4266 23.5071 11.5463C23.1344 11.6661 22.7766 12.2104 22.6243 12.6362Z" fill="url(#paint36_radial_4002_866)"/>
<path d="M22.6243 12.6362L21.3743 15.4565L24.7649 17.7143C25.3274 16.9877 26.0305 14.8627 26.0071 13.4721C25.9893 12.4174 25.5713 12.0682 24.9055 11.7065C24.5891 11.5346 23.8797 11.4266 23.5071 11.5463C23.1344 11.6661 22.7766 12.2104 22.6243 12.6362Z" fill="url(#paint37_radial_4002_866)"/>
<path d="M22.6243 12.6362L21.3743 15.4565L24.7649 17.7143C25.3274 16.9877 26.0305 14.8627 26.0071 13.4721C25.9893 12.4174 25.5713 12.0682 24.9055 11.7065C24.5891 11.5346 23.8797 11.4266 23.5071 11.5463C23.1344 11.6661 22.7766 12.2104 22.6243 12.6362Z" fill="url(#paint38_radial_4002_866)"/>
<path d="M22.6243 12.6362L21.3743 15.4565L24.7649 17.7143C25.3274 16.9877 26.0305 14.8627 26.0071 13.4721C25.9893 12.4174 25.5713 12.0682 24.9055 11.7065C24.5891 11.5346 23.8797 11.4266 23.5071 11.5463C23.1344 11.6661 22.7766 12.2104 22.6243 12.6362Z" fill="url(#paint39_radial_4002_866)"/>
<g filter="url(#filter8_i_4002_866)">
<path d="M19.4642 20.3961L20.4328 19.2261L24.4914 18.2378C23.7258 19.6323 22.4914 21.2901 22.3039 21.5151C22.0695 21.7964 21.7492 21.855 21.4133 21.6909C20.6008 21.2909 19.8041 20.7437 19.4642 20.3961Z" fill="#67636C"/>
<path d="M19.4642 20.3961L20.4328 19.2261L24.4914 18.2378C23.7258 19.6323 22.4914 21.2901 22.3039 21.5151C22.0695 21.7964 21.7492 21.855 21.4133 21.6909C20.6008 21.2909 19.8041 20.7437 19.4642 20.3961Z" fill="url(#paint40_radial_4002_866)"/>
<path d="M19.4642 20.3961L20.4328 19.2261L24.4914 18.2378C23.7258 19.6323 22.4914 21.2901 22.3039 21.5151C22.0695 21.7964 21.7492 21.855 21.4133 21.6909C20.6008 21.2909 19.8041 20.7437 19.4642 20.3961Z" fill="url(#paint41_radial_4002_866)"/>
<path d="M19.4642 20.3961L20.4328 19.2261L24.4914 18.2378C23.7258 19.6323 22.4914 21.2901 22.3039 21.5151C22.0695 21.7964 21.7492 21.855 21.4133 21.6909C20.6008 21.2909 19.8041 20.7437 19.4642 20.3961Z" fill="url(#paint42_radial_4002_866)"/>
</g>
<g filter="url(#filter9_i_4002_866)">
<path d="M18.425 15.0933L19.2219 15.4136L18.386 17.6636L17.5522 17.1442C17.4781 17.0981 17.3853 17.0939 17.3073 17.1332L11.2709 20.1812C11.171 20.2316 11.0492 20.1903 11.0006 20.0896L9.67013 17.3313C9.62394 17.2356 9.64055 17.1164 9.73024 17.0593C9.97126 16.906 10.2363 16.9618 10.636 17.1714C11.0172 17.3714 11.7792 18.066 12.1282 18.3863C13.2271 17.6206 15.4351 15.9936 16.1789 15.441C17.0149 14.8199 18.024 14.924 18.425 15.0933Z" fill="#E9B4A4"/>
<path d="M18.425 15.0933L19.2219 15.4136L18.386 17.6636L17.5522 17.1442C17.4781 17.0981 17.3853 17.0939 17.3073 17.1332L11.2709 20.1812C11.171 20.2316 11.0492 20.1903 11.0006 20.0896L9.67013 17.3313C9.62394 17.2356 9.64055 17.1164 9.73024 17.0593C9.97126 16.906 10.2363 16.9618 10.636 17.1714C11.0172 17.3714 11.7792 18.066 12.1282 18.3863C13.2271 17.6206 15.4351 15.9936 16.1789 15.441C17.0149 14.8199 18.024 14.924 18.425 15.0933Z" fill="url(#paint43_linear_4002_866)"/>
</g>
<g filter="url(#filter10_i_4002_866)">
<path d="M21.0931 16.1128L21.2884 15.6753L24.8041 17.6987C24.7702 17.8055 24.565 18.1972 24.015 18.9097C23.1555 19.9878 22.1672 19.9331 21.0618 19.6753C19.9563 19.4175 19.3393 19.1831 18.9994 19.0737C18.6594 18.9643 18.2752 18.7682 18.1634 18.4331C18.0735 18.1636 18.1973 17.6544 18.265 17.48L19.047 15.3428C19.0509 15.3323 19.0626 15.327 19.073 15.3311L21.0931 16.1128Z" fill="#A7959B"/>
<path d="M21.0931 16.1128L21.2884 15.6753L24.8041 17.6987C24.7702 17.8055 24.565 18.1972 24.015 18.9097C23.1555 19.9878 22.1672 19.9331 21.0618 19.6753C19.9563 19.4175 19.3393 19.1831 18.9994 19.0737C18.6594 18.9643 18.2752 18.7682 18.1634 18.4331C18.0735 18.1636 18.1973 17.6544 18.265 17.48L19.047 15.3428C19.0509 15.3323 19.0626 15.327 19.073 15.3311L21.0931 16.1128Z" fill="url(#paint44_radial_4002_866)"/>
<path d="M21.0931 16.1128L21.2884 15.6753L24.8041 17.6987C24.7702 17.8055 24.565 18.1972 24.015 18.9097C23.1555 19.9878 22.1672 19.9331 21.0618 19.6753C19.9563 19.4175 19.3393 19.1831 18.9994 19.0737C18.6594 18.9643 18.2752 18.7682 18.1634 18.4331C18.0735 18.1636 18.1973 17.6544 18.265 17.48L19.047 15.3428C19.0509 15.3323 19.0626 15.327 19.073 15.3311L21.0931 16.1128Z" fill="url(#paint45_linear_4002_866)"/>
<path d="M21.0931 16.1128L21.2884 15.6753L24.8041 17.6987C24.7702 17.8055 24.565 18.1972 24.015 18.9097C23.1555 19.9878 22.1672 19.9331 21.0618 19.6753C19.9563 19.4175 19.3393 19.1831 18.9994 19.0737C18.6594 18.9643 18.2752 18.7682 18.1634 18.4331C18.0735 18.1636 18.1973 17.6544 18.265 17.48L19.047 15.3428C19.0509 15.3323 19.0626 15.327 19.073 15.3311L21.0931 16.1128Z" fill="url(#paint46_radial_4002_866)"/>
</g>
<g filter="url(#filter11_i_4002_866)">
<path d="M21.0931 16.1128L21.2884 15.6753L24.8041 17.6987C24.7702 17.8055 24.565 18.1972 24.015 18.9097C23.1555 19.9878 22.1672 19.9331 21.0618 19.6753C19.9563 19.4175 19.3393 19.1831 18.9994 19.0737C18.6594 18.9643 18.2752 18.7682 18.1634 18.4331C18.0735 18.1636 18.1973 17.6544 18.265 17.48L19.047 15.3428C19.0509 15.3323 19.0626 15.327 19.073 15.3311L21.0931 16.1128Z" fill="#9F97A9"/>
<path d="M21.0931 16.1128L21.2884 15.6753L24.8041 17.6987C24.7702 17.8055 24.565 18.1972 24.015 18.9097C23.1555 19.9878 22.1672 19.9331 21.0618 19.6753C19.9563 19.4175 19.3393 19.1831 18.9994 19.0737C18.6594 18.9643 18.2752 18.7682 18.1634 18.4331C18.0735 18.1636 18.1973 17.6544 18.265 17.48L19.047 15.3428C19.0509 15.3323 19.0626 15.327 19.073 15.3311L21.0931 16.1128Z" fill="url(#paint47_radial_4002_866)"/>
<path d="M21.0931 16.1128L21.2884 15.6753L24.8041 17.6987C24.7702 17.8055 24.565 18.1972 24.015 18.9097C23.1555 19.9878 22.1672 19.9331 21.0618 19.6753C19.9563 19.4175 19.3393 19.1831 18.9994 19.0737C18.6594 18.9643 18.2752 18.7682 18.1634 18.4331C18.0735 18.1636 18.1973 17.6544 18.265 17.48L19.047 15.3428C19.0509 15.3323 19.0626 15.327 19.073 15.3311L21.0931 16.1128Z" fill="url(#paint48_linear_4002_866)"/>
<path d="M21.0931 16.1128L21.2884 15.6753L24.8041 17.6987C24.7702 17.8055 24.565 18.1972 24.015 18.9097C23.1555 19.9878 22.1672 19.9331 21.0618 19.6753C19.9563 19.4175 19.3393 19.1831 18.9994 19.0737C18.6594 18.9643 18.2752 18.7682 18.1634 18.4331C18.0735 18.1636 18.1973 17.6544 18.265 17.48L19.047 15.3428C19.0509 15.3323 19.0626 15.327 19.073 15.3311L21.0931 16.1128Z" fill="url(#paint49_radial_4002_866)"/>
</g>
<g filter="url(#filter12_i_4002_866)">
<path d="M12.1399 19.7424L11.2304 20.1967C11.1306 20.2471 11.0088 20.2058 10.9602 20.105L9.63989 17.3472C9.59371 17.2515 9.64051 17.1164 9.7302 17.0593C9.97122 16.906 10.2363 16.9618 10.6359 17.1714C11.0172 17.3714 11.7792 18.066 12.1281 18.3863C12.132 18.3836 12.1359 18.3808 12.1399 18.3781V19.7424Z" fill="#5C5089"/>
<path d="M12.1399 19.7424L11.2304 20.1967C11.1306 20.2471 11.0088 20.2058 10.9602 20.105L9.63989 17.3472C9.59371 17.2515 9.64051 17.1164 9.7302 17.0593C9.97122 16.906 10.2363 16.9618 10.6359 17.1714C11.0172 17.3714 11.7792 18.066 12.1281 18.3863C12.132 18.3836 12.1359 18.3808 12.1399 18.3781V19.7424Z" fill="url(#paint50_radial_4002_866)"/>
</g>
<path fill-rule="evenodd" clip-rule="evenodd" d="M21.0717 15.4803C21.1406 15.3606 21.2935 15.3195 21.4131 15.3884L25.042 17.4782C25.1617 17.5471 25.2028 17.7 25.1339 17.8196C25.065 17.9393 24.9122 17.9804 24.7925 17.9115L21.1636 15.8217C21.044 15.7528 21.0028 15.5999 21.0717 15.4803Z" fill="url(#paint51_linear_4002_866)"/>
<path fill-rule="evenodd" clip-rule="evenodd" d="M21.0717 15.4803C21.1406 15.3606 21.2935 15.3195 21.4131 15.3884L25.042 17.4782C25.1617 17.5471 25.2028 17.7 25.1339 17.8196C25.065 17.9393 24.9122 17.9804 24.7925 17.9115L21.1636 15.8217C21.044 15.7528 21.0028 15.5999 21.0717 15.4803Z" fill="url(#paint52_linear_4002_866)"/>
<path fill-rule="evenodd" clip-rule="evenodd" d="M21.0717 15.4803C21.1406 15.3606 21.2935 15.3195 21.4131 15.3884L25.042 17.4782C25.1617 17.5471 25.2028 17.7 25.1339 17.8196C25.065 17.9393 24.9122 17.9804 24.7925 17.9115L21.1636 15.8217C21.044 15.7528 21.0028 15.5999 21.0717 15.4803Z" fill="url(#paint53_radial_4002_866)"/>
<path d="M20.4836 6.61276C20.4867 7.00651 20.3182 7.3211 20.2336 7.42917L19.9524 6.73386C19.9394 6.73776 19.8672 6.75729 19.6829 6.80417C19.3665 6.88229 19.2453 6.71042 19.2258 6.61276C19.2063 6.51511 19.1828 6.22604 19.5969 6.14401C20.011 6.06198 20.4797 6.12058 20.4836 6.61276Z" fill="#F2C2A9"/>
<path d="M20.4836 6.61276C20.4867 7.00651 20.3182 7.3211 20.2336 7.42917L19.9524 6.73386C19.9394 6.73776 19.8672 6.75729 19.6829 6.80417C19.3665 6.88229 19.2453 6.71042 19.2258 6.61276C19.2063 6.51511 19.1828 6.22604 19.5969 6.14401C20.011 6.06198 20.4797 6.12058 20.4836 6.61276Z" fill="url(#paint54_radial_4002_866)"/>
<path d="M20.4836 6.61276C20.4867 7.00651 20.3182 7.3211 20.2336 7.42917L19.9524 6.73386C19.9394 6.73776 19.8672 6.75729 19.6829 6.80417C19.3665 6.88229 19.2453 6.71042 19.2258 6.61276C19.2063 6.51511 19.1828 6.22604 19.5969 6.14401C20.011 6.06198 20.4797 6.12058 20.4836 6.61276Z" fill="url(#paint55_radial_4002_866)"/>
<path d="M16.7799 9.69995L16.8587 10.3433L17.1985 11.4918L17.8899 11.1246C17.7141 10.941 17.58 10.7891 17.4485 10.2496C17.4108 10.0947 17.3848 9.85594 17.3688 9.65231C17.3561 9.49068 17.2192 9.36486 17.0572 9.37213C16.8869 9.37977 16.7592 9.53077 16.7799 9.69995Z" fill="#4D3C3D"/>
<path d="M16.7799 9.69995L16.8587 10.3433L17.1985 11.4918L17.8899 11.1246C17.7141 10.941 17.58 10.7891 17.4485 10.2496C17.4108 10.0947 17.3848 9.85594 17.3688 9.65231C17.3561 9.49068 17.2192 9.36486 17.0572 9.37213C16.8869 9.37977 16.7592 9.53077 16.7799 9.69995Z" fill="#F2BBA9"/>
<path d="M14.9652 10.9322C14.8689 10.848 14.859 10.7016 14.9432 10.6052C15.0274 10.5089 15.1738 10.499 15.2702 10.5832L16.5151 11.6711L16.2102 12.0201L14.9652 10.9322Z" fill="#F6BCA8"/>
<path d="M14.9652 10.9322C14.8689 10.848 14.859 10.7016 14.9432 10.6052C15.0274 10.5089 15.1738 10.499 15.2702 10.5832L16.5151 11.6711L16.2102 12.0201L14.9652 10.9322Z" fill="url(#paint56_linear_4002_866)"/>
<path d="M15.0401 10.3991C14.924 10.2977 14.9121 10.1213 15.0135 10.0052C15.115 9.88904 15.2914 9.87717 15.4075 9.97863L16.9076 11.2894L16.5401 11.7099L15.0401 10.3991Z" fill="#F6BCA8"/>
<path d="M15.0401 10.3991C14.924 10.2977 14.9121 10.1213 15.0135 10.0052C15.115 9.88904 15.2914 9.87717 15.4075 9.97863L16.9076 11.2894L16.5401 11.7099L15.0401 10.3991Z" fill="url(#paint57_linear_4002_866)"/>
<path d="M15.1924 9.88349C15.0763 9.78203 15.0644 9.60564 15.1659 9.48953C15.2674 9.37342 15.4437 9.36154 15.5599 9.46301L17.3138 10.9691L16.9464 11.3896L15.1924 9.88349Z" fill="#F6BCA8"/>
<path d="M15.1924 9.88349C15.0763 9.78203 15.0644 9.60564 15.1659 9.48953C15.2674 9.37342 15.4437 9.36154 15.5599 9.46301L17.3138 10.9691L16.9464 11.3896L15.1924 9.88349Z" fill="url(#paint58_linear_4002_866)"/>
<g filter="url(#filter13_i_4002_866)">
<path d="M25.161 9.97327L25.6493 8.60608L27.3125 9.77688C27.13 10.0524 26.5174 10.7975 26.2869 10.8795C25.9688 10.9927 25.5017 11.0709 25.2517 10.7623C25.0517 10.5155 25.1024 10.1126 25.161 9.97327Z" fill="url(#paint59_radial_4002_866)"/>
</g>
<circle cx="25.4485" cy="9.02881" r="0.558594" fill="url(#paint60_radial_4002_866)"/>
<path fill-rule="evenodd" clip-rule="evenodd" d="M25.7139 8.17843C25.82 8.26673 25.8345 8.42436 25.7461 8.5305L23.754 10.925C23.6657 11.0312 23.508 11.0456 23.4019 10.9573C23.2957 10.869 23.2813 10.7114 23.3696 10.6053L25.3618 8.21072C25.4501 8.10458 25.6077 8.09012 25.7139 8.17843Z" fill="#4D3771"/>
<path fill-rule="evenodd" clip-rule="evenodd" d="M25.7139 8.17843C25.82 8.26673 25.8345 8.42436 25.7461 8.5305L23.754 10.925C23.6657 11.0312 23.508 11.0456 23.4019 10.9573C23.2957 10.869 23.2813 10.7114 23.3696 10.6053L25.3618 8.21072C25.4501 8.10458 25.6077 8.09012 25.7139 8.17843Z" fill="url(#paint61_linear_4002_866)"/>
<path fill-rule="evenodd" clip-rule="evenodd" d="M25.7139 8.17843C25.82 8.26673 25.8345 8.42436 25.7461 8.5305L23.754 10.925C23.6657 11.0312 23.508 11.0456 23.4019 10.9573C23.2957 10.869 23.2813 10.7114 23.3696 10.6053L25.3618 8.21072C25.4501 8.10458 25.6077 8.09012 25.7139 8.17843Z" fill="url(#paint62_linear_4002_866)"/>
<path fill-rule="evenodd" clip-rule="evenodd" d="M25.7139 8.17843C25.82 8.26673 25.8345 8.42436 25.7461 8.5305L23.754 10.925C23.6657 11.0312 23.508 11.0456 23.4019 10.9573C23.2957 10.869 23.2813 10.7114 23.3696 10.6053L25.3618 8.21072C25.4501 8.10458 25.6077 8.09012 25.7139 8.17843Z" fill="url(#paint63_radial_4002_866)"/>
<g filter="url(#filter14_i_4002_866)">
<path d="M27.1102 9.74389L23.4816 7.0484C23.39 6.9803 23.3569 6.85888 23.4135 6.75974C23.5371 6.54349 23.7637 6.21495 24.068 5.89361C24.9743 4.93658 25.9769 5.40211 26.1227 5.45611C26.3336 5.53424 26.8766 5.76861 27.6227 6.47955C28.4982 7.31381 28.3649 8.18267 28.0993 8.70611C27.9322 9.03531 27.6416 9.44803 27.4357 9.7063C27.356 9.80628 27.2128 9.82013 27.1102 9.74389Z" fill="url(#paint64_radial_4002_866)"/>
</g>
<g filter="url(#filter15_i_4002_866)">
<path d="M25.111 7.12582C25.2127 6.99371 25.4022 6.96904 25.5344 7.07072L26.5184 7.82813C26.6505 7.92982 26.6752 8.11936 26.5735 8.25148C26.4718 8.3836 26.2823 8.40827 26.1502 8.30658L25.1661 7.54917C25.034 7.44748 25.0093 7.25794 25.111 7.12582Z" fill="url(#paint65_radial_4002_866)"/>
</g>
<path d="M15.7647 9.65302C15.6486 9.55156 15.6367 9.37518 15.7382 9.25906C15.8396 9.14295 16.016 9.13107 16.1321 9.23254L17.5421 10.6519L17.3156 11.1636L15.7647 9.65302Z" fill="#F6BCA8"/>
<path d="M15.7647 9.65302C15.6486 9.55156 15.6367 9.37518 15.7382 9.25906C15.8396 9.14295 16.016 9.13107 16.1321 9.23254L17.5421 10.6519L17.3156 11.1636L15.7647 9.65302Z" fill="url(#paint66_linear_4002_866)"/>
<g filter="url(#filter16_i_4002_866)">
<path fill-rule="evenodd" clip-rule="evenodd" d="M18.2641 13.9272L15.6086 11.4917L16.8679 10.1199L19.4576 12.6473C19.6133 12.7928 19.8325 12.8489 20.039 12.7961L21.6888 12.3744L22.1222 14.0699L20.4724 14.4916C19.6881 14.692 18.8559 14.4793 18.2641 13.9272Z" fill="#F2BBA9"/>
</g>
<path d="M21.0951 16.1084C21.7493 16.4097 22.5737 17.0971 23.1165 18.3393C23.311 18.7846 23.2594 19.2377 23.0749 19.6613C22.4561 19.9254 21.7839 19.8437 21.0618 19.6753C20.156 19.464 19.5782 19.2686 19.212 19.1446C19.1312 19.1173 19.0608 19.0935 18.9994 19.0737C18.6594 18.9643 18.2753 18.7682 18.1634 18.4331C18.0735 18.1636 18.1973 17.6544 18.265 17.48L19.047 15.3428C19.0509 15.3323 19.0626 15.327 19.073 15.3311L21.0931 16.1128L21.0951 16.1084Z" fill="url(#paint67_radial_4002_866)"/>
<path d="M21.0951 16.1084C21.7493 16.4097 22.5737 17.0971 23.1165 18.3393C23.311 18.7846 23.2594 19.2377 23.0749 19.6613C22.4561 19.9254 21.7839 19.8437 21.0618 19.6753C20.156 19.464 19.5782 19.2686 19.212 19.1446C19.1312 19.1173 19.0608 19.0935 18.9994 19.0737C18.6594 18.9643 18.2753 18.7682 18.1634 18.4331C18.0735 18.1636 18.1973 17.6544 18.265 17.48L19.047 15.3428C19.0509 15.3323 19.0626 15.327 19.073 15.3311L21.0931 16.1128L21.0951 16.1084Z" fill="url(#paint68_radial_4002_866)"/>
<path d="M21.0951 16.1084C21.7493 16.4097 22.5737 17.0971 23.1165 18.3393C23.311 18.7846 23.2594 19.2377 23.0749 19.6613C22.4561 19.9254 21.7839 19.8437 21.0618 19.6753C20.156 19.464 19.5782 19.2686 19.212 19.1446C19.1312 19.1173 19.0608 19.0935 18.9994 19.0737C18.6594 18.9643 18.2753 18.7682 18.1634 18.4331C18.0735 18.1636 18.1973 17.6544 18.265 17.48L19.047 15.3428C19.0509 15.3323 19.0626 15.327 19.073 15.3311L21.0931 16.1128L21.0951 16.1084Z" fill="url(#paint69_radial_4002_866)"/>
<path d="M21.5199 14.7221L20.973 12.5659C21.6136 12.4122 22.8222 12.0872 23.0629 12.0307C23.5121 11.9252 24.3286 11.8771 24.5277 12.8471C24.7113 13.7417 24.0095 14.0268 23.6683 14.1284L21.5199 14.7221Z" fill="url(#paint70_radial_4002_866)"/>
<path d="M21.5199 14.7221L20.973 12.5659C21.6136 12.4122 22.8222 12.0872 23.0629 12.0307C23.5121 11.9252 24.3286 11.8771 24.5277 12.8471C24.7113 13.7417 24.0095 14.0268 23.6683 14.1284L21.5199 14.7221Z" fill="url(#paint71_linear_4002_866)"/>
<path d="M21.5199 14.7221L20.973 12.5659C21.6136 12.4122 22.8222 12.0872 23.0629 12.0307C23.5121 11.9252 24.3286 11.8771 24.5277 12.8471C24.7113 13.7417 24.0095 14.0268 23.6683 14.1284L21.5199 14.7221Z" fill="url(#paint72_radial_4002_866)"/>
<g filter="url(#filter17_f_4002_866)">
<path d="M16.87 10.7739L19.4325 13.2114" stroke="#FFCEB7" stroke-width="0.3" stroke-linecap="round"/>
</g>
<defs>
<filter id="filter0_ii_4002_866" x="1.95608" y="22.7375" width="8.74256" height="7.34556" filterUnits="userSpaceOnUse" color-interpolation-filters="sRGB">
<feFlood flood-opacity="0" result="BackgroundImageFix"/>
<feBlend mode="normal" in="SourceGraphic" in2="BackgroundImageFix" result="shape"/>
<feColorMatrix in="SourceAlpha" type="matrix" values="0 0 0 0 0 0 0 0 0 0 0 0 0 0 0 0 0 0 127 0" result="hardAlpha"/>
<feOffset dx="-0.4" dy="0.4"/>
<feGaussianBlur stdDeviation="0.5"/>
<feComposite in2="hardAlpha" operator="arithmetic" k2="-1" k3="1"/>
<feColorMatrix type="matrix" values="0 0 0 0 0.635294 0 0 0 0 0.607843 0 0 0 0 0.670588 0 0 0 1 0"/>
<feBlend mode="normal" in2="shape" result="effect1_innerShadow_4002_866"/>
<feColorMatrix in="SourceAlpha" type="matrix" values="0 0 0 0 0 0 0 0 0 0 0 0 0 0 0 0 0 0 127 0" result="hardAlpha"/>
<feOffset dx="-0.1" dy="0.1"/>
<feGaussianBlur stdDeviation="0.5"/>
<feComposite in2="hardAlpha" operator="arithmetic" k2="-1" k3="1"/>
<feColorMatrix type="matrix" values="0 0 0 0 0.847059 0 0 0 0 0.831373 0 0 0 0 0.862745 0 0 0 1 0"/>
<feBlend mode="normal" in2="effect1_innerShadow_4002_866" result="effect2_innerShadow_4002_866"/>
</filter>
<filter id="filter1_f_4002_866" x="13.3445" y="9.05701" width="4.27553" height="5.59924" filterUnits="userSpaceOnUse" color-interpolation-filters="sRGB">
<feFlood flood-opacity="0" result="BackgroundImageFix"/>
<feBlend mode="normal" in="SourceGraphic" in2="BackgroundImageFix" result="shape"/>
<feGaussianBlur stdDeviation="0.375" result="effect1_foregroundBlur_4002_866"/>
</filter>
<filter id="filter2_i_4002_866" x="18.1482" y="5.69897" width="6.51405" height="7.79858" filterUnits="userSpaceOnUse" color-interpolation-filters="sRGB">
<feFlood flood-opacity="0" result="BackgroundImageFix"/>
<feBlend mode="normal" in="SourceGraphic" in2="BackgroundImageFix" result="shape"/>
<feColorMatrix in="SourceAlpha" type="matrix" values="0 0 0 0 0 0 0 0 0 0 0 0 0 0 0 0 0 0 127 0" result="hardAlpha"/>
<feOffset dx="0.25"/>
<feGaussianBlur stdDeviation="0.25"/>
<feComposite in2="hardAlpha" operator="arithmetic" k2="-1" k3="1"/>
<feColorMatrix type="matrix" values="0 0 0 0 1 0 0 0 0 0.784314 0 0 0 0 0.698039 0 0 0 1 0"/>
<feBlend mode="normal" in2="shape" result="effect1_innerShadow_4002_866"/>
</filter>
<filter id="filter3_i_4002_866" x="13.9196" y="1.63385" width="3.4794" height="7.73786" filterUnits="userSpaceOnUse" color-interpolation-filters="sRGB">
<feFlood flood-opacity="0" result="BackgroundImageFix"/>
<feBlend mode="normal" in="SourceGraphic" in2="BackgroundImageFix" result="shape"/>
<feColorMatrix in="SourceAlpha" type="matrix" values="0 0 0 0 0 0 0 0 0 0 0 0 0 0 0 0 0 0 127 0" result="hardAlpha"/>
<feOffset dx="-0.02" dy="-0.06"/>
<feGaussianBlur stdDeviation="0.05"/>
<feComposite in2="hardAlpha" operator="arithmetic" k2="-1" k3="1"/>
<feColorMatrix type="matrix" values="0 0 0 0 0.85098 0 0 0 0 0.792157 0 0 0 0 0.776471 0 0 0 1 0"/>
<feBlend mode="normal" in2="shape" result="effect1_innerShadow_4002_866"/>
</filter>
<filter id="filter4_f_4002_866" x="19.1439" y="6.98198" width="2.67938" height="4.1199" filterUnits="userSpaceOnUse" color-interpolation-filters="sRGB">
<feFlood flood-opacity="0" result="BackgroundImageFix"/>
<feBlend mode="normal" in="SourceGraphic" in2="BackgroundImageFix" result="shape"/>
<feGaussianBlur stdDeviation="0.15" result="effect1_foregroundBlur_4002_866"/>
</filter>
<filter id="filter5_i_4002_866" x="19.286" y="1.73779" width="2.82193" height="15.0292" filterUnits="userSpaceOnUse" color-interpolation-filters="sRGB">
<feFlood flood-opacity="0" result="BackgroundImageFix"/>
<feBlend mode="normal" in="SourceGraphic" in2="BackgroundImageFix" result="shape"/>
<feColorMatrix in="SourceAlpha" type="matrix" values="0 0 0 0 0 0 0 0 0 0 0 0 0 0 0 0 0 0 127 0" result="hardAlpha"/>
<feOffset dx="0.2"/>
<feGaussianBlur stdDeviation="0.125"/>
<feComposite in2="hardAlpha" operator="arithmetic" k2="-1" k3="1"/>
<feColorMatrix type="matrix" values="0 0 0 0 0.223529 0 0 0 0 0.47451 0 0 0 0 0.360784 0 0 0 1 0"/>
<feBlend mode="normal" in2="shape" result="effect1_innerShadow_4002_866"/>
</filter>
<filter id="filter6_ii_4002_866" x="21.9917" y="6.72217" width="4.6796" height="4.4072" filterUnits="userSpaceOnUse" color-interpolation-filters="sRGB">
<feFlood flood-opacity="0" result="BackgroundImageFix"/>
<feBlend mode="normal" in="SourceGraphic" in2="BackgroundImageFix" result="shape"/>
<feColorMatrix in="SourceAlpha" type="matrix" values="0 0 0 0 0 0 0 0 0 0 0 0 0 0 0 0 0 0 127 0" result="hardAlpha"/>
<feOffset dx="-0.25" dy="-0.25"/>
<feGaussianBlur stdDeviation="0.25"/>
<feComposite in2="hardAlpha" operator="arithmetic" k2="-1" k3="1"/>
<feColorMatrix type="matrix" values="0 0 0 0 0.866667 0 0 0 0 0.486275 0 0 0 0 0.486275 0 0 0 1 0"/>
<feBlend mode="normal" in2="shape" result="effect1_innerShadow_4002_866"/>
<feColorMatrix in="SourceAlpha" type="matrix" values="0 0 0 0 0 0 0 0 0 0 0 0 0 0 0 0 0 0 127 0" result="hardAlpha"/>
<feOffset dx="0.25" dy="0.15"/>
<feGaussianBlur stdDeviation="0.15"/>
<feComposite in2="hardAlpha" operator="arithmetic" k2="-1" k3="1"/>
<feColorMatrix type="matrix" values="0 0 0 0 1 0 0 0 0 0.745098 0 0 0 0 0.654902 0 0 0 1 0"/>
<feBlend mode="normal" in2="effect1_innerShadow_4002_866" result="effect2_innerShadow_4002_866"/>
</filter>
<filter id="filter7_i_4002_866" x="18.7555" y="20.1269" width="5.3162" height="9.19749" filterUnits="userSpaceOnUse" color-interpolation-filters="sRGB">
<feFlood flood-opacity="0" result="BackgroundImageFix"/>
<feBlend mode="normal" in="SourceGraphic" in2="BackgroundImageFix" result="shape"/>
<feColorMatrix in="SourceAlpha" type="matrix" values="0 0 0 0 0 0 0 0 0 0 0 0 0 0 0 0 0 0 127 0" result="hardAlpha"/>
<feOffset dx="0.15" dy="-0.15"/>
<feGaussianBlur stdDeviation="0.25"/>
<feComposite in2="hardAlpha" operator="arithmetic" k2="-1" k3="1"/>
<feColorMatrix type="matrix" values="0 0 0 0 1 0 0 0 0 0.784314 0 0 0 0 0.705882 0 0 0 1 0"/>
<feBlend mode="normal" in2="shape" result="effect1_innerShadow_4002_866"/>
</filter>
<filter id="filter8_i_4002_866" x="18.9642" y="18.2378" width="5.52719" height="3.54382" filterUnits="userSpaceOnUse" color-interpolation-filters="sRGB">
<feFlood flood-opacity="0" result="BackgroundImageFix"/>
<feBlend mode="normal" in="SourceGraphic" in2="BackgroundImageFix" result="shape"/>
<feColorMatrix in="SourceAlpha" type="matrix" values="0 0 0 0 0 0 0 0 0 0 0 0 0 0 0 0 0 0 127 0" result="hardAlpha"/>
<feOffset dx="-0.5"/>
<feGaussianBlur stdDeviation="0.5"/>
<feComposite in2="hardAlpha" operator="arithmetic" k2="-1" k3="1"/>
<feColorMatrix type="matrix" values="0 0 0 0 0.407843 0 0 0 0 0.4 0 0 0 0 0.407843 0 0 0 1 0"/>
<feBlend mode="normal" in2="shape" result="effect1_innerShadow_4002_866"/>
</filter>
<filter id="filter9_i_4002_866" x="9.64514" y="14.7134" width="9.57677" height="5.48938" filterUnits="userSpaceOnUse" color-interpolation-filters="sRGB">
<feFlood flood-opacity="0" result="BackgroundImageFix"/>
<feBlend mode="normal" in="SourceGraphic" in2="BackgroundImageFix" result="shape"/>
<feColorMatrix in="SourceAlpha" type="matrix" values="0 0 0 0 0 0 0 0 0 0 0 0 0 0 0 0 0 0 127 0" result="hardAlpha"/>
<feOffset dy="-0.25"/>
<feGaussianBlur stdDeviation="0.375"/>
<feComposite in2="hardAlpha" operator="arithmetic" k2="-1" k3="1"/>
<feColorMatrix type="matrix" values="0 0 0 0 0.74902 0 0 0 0 0.505882 0 0 0 0 0.568627 0 0 0 1 0"/>
<feBlend mode="normal" in2="shape" result="effect1_innerShadow_4002_866"/>
</filter>
<filter id="filter10_i_4002_866" x="18.1318" y="14.8297" width="6.67222" height="5.00171" filterUnits="userSpaceOnUse" color-interpolation-filters="sRGB">
<feFlood flood-opacity="0" result="BackgroundImageFix"/>
<feBlend mode="normal" in="SourceGraphic" in2="BackgroundImageFix" result="shape"/>
<feColorMatrix in="SourceAlpha" type="matrix" values="0 0 0 0 0 0 0 0 0 0 0 0 0 0 0 0 0 0 127 0" result="hardAlpha"/>
<feOffset dy="-0.5"/>
<feGaussianBlur stdDeviation="0.375"/>
<feComposite in2="hardAlpha" operator="arithmetic" k2="-1" k3="1"/>
<feColorMatrix type="matrix" values="0 0 0 0 0.423529 0 0 0 0 0.372549 0 0 0 0 0.407843 0 0 0 1 0"/>
<feBlend mode="normal" in2="shape" result="effect1_innerShadow_4002_866"/>
</filter>
<filter id="filter11_i_4002_866" x="18.1318" y="14.8297" width="6.92222" height="5.00171" filterUnits="userSpaceOnUse" color-interpolation-filters="sRGB">
<feFlood flood-opacity="0" result="BackgroundImageFix"/>
<feBlend mode="normal" in="SourceGraphic" in2="BackgroundImageFix" result="shape"/>
<feColorMatrix in="SourceAlpha" type="matrix" values="0 0 0 0 0 0 0 0 0 0 0 0 0 0 0 0 0 0 127 0" result="hardAlpha"/>
<feOffset dx="0.25" dy="-0.5"/>
<feGaussianBlur stdDeviation="0.375"/>
<feComposite in2="hardAlpha" operator="arithmetic" k2="-1" k3="1"/>
<feColorMatrix type="matrix" values="0 0 0 0 0.513726 0 0 0 0 0.364706 0 0 0 0 0.639216 0 0 0 1 0"/>
<feBlend mode="normal" in2="shape" result="effect1_innerShadow_4002_866"/>
</filter>
<filter id="filter12_i_4002_866" x="9.62183" y="16.572" width="2.56805" height="3.64609" filterUnits="userSpaceOnUse" color-interpolation-filters="sRGB">
<feFlood flood-opacity="0" result="BackgroundImageFix"/>
<feBlend mode="normal" in="SourceGraphic" in2="BackgroundImageFix" result="shape"/>
<feColorMatrix in="SourceAlpha" type="matrix" values="0 0 0 0 0 0 0 0 0 0 0 0 0 0 0 0 0 0 127 0" result="hardAlpha"/>
<feOffset dx="0.05" dy="-0.4"/>
<feGaussianBlur stdDeviation="0.2"/>
<feComposite in2="hardAlpha" operator="arithmetic" k2="-1" k3="1"/>
<feColorMatrix type="matrix" values="0 0 0 0 0.321569 0 0 0 0 0.247059 0 0 0 0 0.537255 0 0 0 1 0"/>
<feBlend mode="normal" in2="shape" result="effect1_innerShadow_4002_866"/>
</filter>
<filter id="filter13_i_4002_866" x="25.1088" y="8.50608" width="2.60374" height="2.47329" filterUnits="userSpaceOnUse" color-interpolation-filters="sRGB">
<feFlood flood-opacity="0" result="BackgroundImageFix"/>
<feBlend mode="normal" in="SourceGraphic" in2="BackgroundImageFix" result="shape"/>
<feColorMatrix in="SourceAlpha" type="matrix" values="0 0 0 0 0 0 0 0 0 0 0 0 0 0 0 0 0 0 127 0" result="hardAlpha"/>
<feOffset dx="0.4" dy="-0.1"/>
<feGaussianBlur stdDeviation="0.25"/>
<feComposite in2="hardAlpha" operator="arithmetic" k2="-1" k3="1"/>
<feColorMatrix type="matrix" values="0 0 0 0 0.0784314 0 0 0 0 0.0745098 0 0 0 0 0.12549 0 0 0 1 0"/>
<feBlend mode="normal" in2="shape" result="effect1_innerShadow_4002_866"/>
</filter>
<filter id="filter14_i_4002_866" x="23.3856" y="5.14565" width="4.91338" height="4.64695" filterUnits="userSpaceOnUse" color-interpolation-filters="sRGB">
<feFlood flood-opacity="0" result="BackgroundImageFix"/>
<feBlend mode="normal" in="SourceGraphic" in2="BackgroundImageFix" result="shape"/>
<feColorMatrix in="SourceAlpha" type="matrix" values="0 0 0 0 0 0 0 0 0 0 0 0 0 0 0 0 0 0 127 0" result="hardAlpha"/>
<feOffset dy="-0.15"/>
<feGaussianBlur stdDeviation="0.3"/>
<feComposite in2="hardAlpha" operator="arithmetic" k2="-1" k3="1"/>
<feColorMatrix type="matrix" values="0 0 0 0 0.305882 0 0 0 0 0.556863 0 0 0 0 0.882353 0 0 0 1 0"/>
<feBlend mode="normal" in2="shape" result="effect1_innerShadow_4002_866"/>
</filter>
<filter id="filter15_i_4002_866" x="25.0483" y="7.00806" width="1.58785" height="1.36121" filterUnits="userSpaceOnUse" color-interpolation-filters="sRGB">
<feFlood flood-opacity="0" result="BackgroundImageFix"/>
<feBlend mode="normal" in="SourceGraphic" in2="BackgroundImageFix" result="shape"/>
<feColorMatrix in="SourceAlpha" type="matrix" values="0 0 0 0 0 0 0 0 0 0 0 0 0 0 0 0 0 0 127 0" result="hardAlpha"/>
<feOffset/>
<feGaussianBlur stdDeviation="0.25"/>
<feComposite in2="hardAlpha" operator="arithmetic" k2="-1" k3="1"/>
<feColorMatrix type="matrix" values="0 0 0 0 0.137255 0 0 0 0 0.482353 0 0 0 0 0.796078 0 0 0 1 0"/>
<feBlend mode="normal" in2="shape" result="effect1_innerShadow_4002_866"/>
</filter>
<filter id="filter16_i_4002_866" x="15.6086" y="9.76987" width="6.51355" height="4.7958" filterUnits="userSpaceOnUse" color-interpolation-filters="sRGB">
<feFlood flood-opacity="0" result="BackgroundImageFix"/>
<feBlend mode="normal" in="SourceGraphic" in2="BackgroundImageFix" result="shape"/>
<feColorMatrix in="SourceAlpha" type="matrix" values="0 0 0 0 0 0 0 0 0 0 0 0 0 0 0 0 0 0 127 0" result="hardAlpha"/>
<feOffset dy="-0.35"/>
<feGaussianBlur stdDeviation="0.325"/>
<feComposite in2="hardAlpha" operator="arithmetic" k2="-1" k3="1"/>
<feColorMatrix type="matrix" values="0 0 0 0 0.866667 0 0 0 0 0.619608 0 0 0 0 0.584314 0 0 0 1 0"/>
<feBlend mode="normal" in2="shape" result="effect1_innerShadow_4002_866"/>
</filter>
<filter id="filter17_f_4002_866" x="16.22" y="10.1239" width="3.86249" height="3.73755" filterUnits="userSpaceOnUse" color-interpolation-filters="sRGB">
<feFlood flood-opacity="0" result="BackgroundImageFix"/>
<feBlend mode="normal" in="SourceGraphic" in2="BackgroundImageFix" result="shape"/>
<feGaussianBlur stdDeviation="0.25" result="effect1_foregroundBlur_4002_866"/>
</filter>
<radialGradient id="paint0_radial_4002_866" cx="0" cy="0" r="1" gradientUnits="userSpaceOnUse" gradientTransform="translate(7.50708 28.1362) rotate(-80.0683) scale(8.15344 17.6752)">
<stop offset="0.378" stop-color="#E2E0E4"/>
<stop offset="1" stop-color="#A297AD"/>
</radialGradient>
<linearGradient id="paint1_linear_4002_866" x1="11.4384" y1="29.6831" x2="11.4384" y2="28.3878" gradientUnits="userSpaceOnUse">
<stop stop-color="#D2CDD5"/>
<stop offset="1" stop-color="#E3E1E5" stop-opacity="0"/>
</linearGradient>
<linearGradient id="paint2_linear_4002_866" x1="5.31958" y1="17.2612" x2="6.47583" y2="20.5425" gradientUnits="userSpaceOnUse">
<stop offset="0.373084" stop-color="#A9A5AD"/>
<stop offset="1" stop-color="#A5A2A8"/>
</linearGradient>
<linearGradient id="paint3_linear_4002_866" x1="5.81958" y1="17.2612" x2="6.16333" y2="18.23" gradientUnits="userSpaceOnUse">
<stop offset="0.141619" stop-color="#948B99"/>
<stop offset="1" stop-color="#AAA6AE" stop-opacity="0"/>
</linearGradient>
<radialGradient id="paint4_radial_4002_866" cx="0" cy="0" r="1" gradientUnits="userSpaceOnUse" gradientTransform="translate(10.0383 21.2914) rotate(-83.2899) scale(2.67447 5.21781)">
<stop offset="0.355941" stop-color="#BCB9BE"/>
<stop offset="1" stop-color="#BCB9BE" stop-opacity="0"/>
</radialGradient>
<radialGradient id="paint5_radial_4002_866" cx="0" cy="0" r="1" gradientUnits="userSpaceOnUse" gradientTransform="translate(10.4446 18.6353) rotate(155.431) scale(1.5806 2.92056)">
<stop offset="0.125611" stop-color="#958E9B"/>
<stop offset="0.694843" stop-color="#958E9B" stop-opacity="0"/>
</radialGradient>
<radialGradient id="paint6_radial_4002_866" cx="0" cy="0" r="1" gradientUnits="userSpaceOnUse" gradientTransform="translate(3.91333 21.0112) rotate(-27.7868) scale(5.89897 1.11778)">
<stop offset="0.457061" stop-color="#9F9CA3"/>
<stop offset="1" stop-color="#9F9CA3" stop-opacity="0"/>
</radialGradient>
<linearGradient id="paint7_linear_4002_866" x1="13.4133" y1="1.57373" x2="11.5696" y2="14.6987" gradientUnits="userSpaceOnUse">
<stop offset="0.517648" stop-color="#E5E3E5"/>
<stop offset="1" stop-color="#AE9EA8"/>
</linearGradient>
<linearGradient id="paint8_linear_4002_866" x1="2.60083" y1="17.4487" x2="13.1321" y2="13.2925" gradientUnits="userSpaceOnUse">
<stop offset="0.292864" stop-color="#9C93A5"/>
<stop offset="1" stop-color="#9C93A5" stop-opacity="0"/>
</linearGradient>
<radialGradient id="paint9_radial_4002_866" cx="0" cy="0" r="1" gradientUnits="userSpaceOnUse" gradientTransform="translate(19.4133 9.29248) rotate(174.89) scale(3.85909 10.4756)">
<stop offset="0.351128" stop-color="#E3D5D2"/>
<stop offset="1" stop-color="#E3D5D2" stop-opacity="0"/>
</radialGradient>
<linearGradient id="paint10_linear_4002_866" x1="14.2689" y1="10.3997" x2="16.87" y2="14.9175" gradientUnits="userSpaceOnUse">
<stop offset="0.368" stop-color="#908790"/>
<stop offset="1" stop-color="#908790" stop-opacity="0"/>
</linearGradient>
<radialGradient id="paint11_radial_4002_866" cx="0" cy="0" r="1" gradientUnits="userSpaceOnUse" gradientTransform="translate(20.3196 6.82372) rotate(66.6869) scale(6.35158 4.4947)">
<stop offset="0.279975" stop-color="#E8AD9B"/>
<stop offset="1" stop-color="#CB7E70"/>
</radialGradient>
<linearGradient id="paint12_linear_4002_866" x1="4.50708" y1="4.97998" x2="6.88208" y2="13.2612" gradientUnits="userSpaceOnUse">
<stop stop-color="#C7C5C9"/>
<stop offset="1" stop-color="#C2BFC5"/>
</linearGradient>
<radialGradient id="paint13_radial_4002_866" cx="0" cy="0" r="1" gradientUnits="userSpaceOnUse" gradientTransform="translate(2.35608 8.17426) rotate(-16.7986) scale(10.4038 16.9101)">
<stop offset="0.897496" stop-color="#D1CFD2" stop-opacity="0"/>
<stop offset="0.981646" stop-color="#E5E3E5"/>
</radialGradient>
<linearGradient id="paint14_linear_4002_866" x1="5.78833" y1="13.8706" x2="5.50708" y2="12.8706" gradientUnits="userSpaceOnUse">
<stop stop-color="#9D94A6"/>
<stop offset="1" stop-color="#C3C0C6" stop-opacity="0"/>
</linearGradient>
<radialGradient id="paint15_radial_4002_866" cx="0" cy="0" r="1" gradientUnits="userSpaceOnUse" gradientTransform="translate(13.1633 7.01118) rotate(-15.7808) scale(2.9876 3.86631)">
<stop offset="0.27451" stop-color="#E2DFE2"/>
<stop offset="1" stop-color="#D6D4D7"/>
</radialGradient>
<linearGradient id="paint16_linear_4002_866" x1="19.6088" y1="7.429" x2="21.5818" y2="10.3739" gradientUnits="userSpaceOnUse">
<stop stop-color="#F4BDA7"/>
<stop offset="1" stop-color="#F4BDA7" stop-opacity="0"/>
</linearGradient>
<linearGradient id="paint17_linear_4002_866" x1="19.5763" y1="10.6822" x2="20.9353" y2="15.3417" gradientUnits="userSpaceOnUse">
<stop stop-color="#489778"/>
<stop offset="1" stop-color="#648431"/>
</linearGradient>
<radialGradient id="paint18_radial_4002_866" cx="0" cy="0" r="1" gradientUnits="userSpaceOnUse" gradientTransform="translate(22.9817 7.68799) rotate(98.9706) scale(0.687115 0.539188)">
<stop offset="0.390709" stop-color="#DFAF96"/>
<stop offset="1" stop-color="#E8AC93"/>
</radialGradient>
<linearGradient id="paint19_linear_4002_866" x1="25.1008" y1="20.0269" x2="26.5071" y2="20.0269" gradientUnits="userSpaceOnUse">
<stop stop-color="#554682"/>
<stop offset="1" stop-color="#66619B"/>
</linearGradient>
<radialGradient id="paint20_radial_4002_866" cx="0" cy="0" r="1" gradientUnits="userSpaceOnUse" gradientTransform="translate(25.554 21.2144) rotate(-90) scale(1.17188 1.40443)">
<stop stop-color="#5A3C98"/>
<stop offset="1" stop-color="#5A3C98" stop-opacity="0"/>
</radialGradient>
<radialGradient id="paint21_radial_4002_866" cx="0" cy="0" r="1" gradientUnits="userSpaceOnUse" gradientTransform="translate(24.4758 18.7339) rotate(60.2551) scale(0.78733 1.9613)">
<stop stop-color="#413B69"/>
<stop offset="1" stop-color="#413B69" stop-opacity="0"/>
</radialGradient>
<radialGradient id="paint22_radial_4002_866" cx="0" cy="0" r="1" gradientUnits="userSpaceOnUse" gradientTransform="translate(25.0396 11.5076) rotate(-89.7406) scale(1.12419 0.93573)">
<stop stop-color="#F0AD9F"/>
<stop offset="1" stop-color="#E19384"/>
</radialGradient>
<radialGradient id="paint23_radial_4002_866" cx="0" cy="0" r="1" gradientUnits="userSpaceOnUse" gradientTransform="translate(23.1633 8.30811) rotate(44.1048) scale(2.82877 2.93389)">
<stop offset="0.164144" stop-color="#DDAC9A"/>
<stop offset="1" stop-color="#D79F9B"/>
</radialGradient>
<radialGradient id="paint24_radial_4002_866" cx="0" cy="0" r="1" gradientUnits="userSpaceOnUse" gradientTransform="translate(25.8508 8.44873) rotate(119.268) scale(1.62995 1.31525)">
<stop stop-color="#B27D80"/>
<stop offset="1" stop-color="#B27D80" stop-opacity="0"/>
</radialGradient>
<linearGradient id="paint25_linear_4002_866" x1="24.875" y1="18.2886" x2="24.6008" y2="18.2886" gradientUnits="userSpaceOnUse">
<stop offset="0.268951" stop-color="#535478"/>
<stop offset="1" stop-color="#333061"/>
</linearGradient>
<linearGradient id="paint26_linear_4002_866" x1="26.4915" y1="19.5667" x2="24.475" y2="18.73" gradientUnits="userSpaceOnUse">
<stop stop-color="#40347F"/>
<stop offset="1" stop-color="#292557"/>
</linearGradient>
<radialGradient id="paint27_radial_4002_866" cx="0" cy="0" r="1" gradientUnits="userSpaceOnUse" gradientTransform="translate(26.011 19.105) rotate(108.004) scale(0.164295 1.05691)">
<stop stop-color="#63608C"/>
<stop offset="1" stop-color="#63608C" stop-opacity="0"/>
</radialGradient>
<linearGradient id="paint28_linear_4002_866" x1="22.7395" y1="25.1099" x2="21.3386" y2="25.7452" gradientUnits="userSpaceOnUse">
<stop stop-color="#FFD4BD"/>
<stop offset="1" stop-color="#FFD4BD" stop-opacity="0"/>
</linearGradient>
<radialGradient id="paint29_radial_4002_866" cx="0" cy="0" r="1" gradientUnits="userSpaceOnUse" gradientTransform="translate(21.6458 21.584) rotate(-157.923) scale(2.41117 1.05163)">
<stop offset="0.191434" stop-color="#CF9297"/>
<stop offset="1" stop-color="#CF9297" stop-opacity="0"/>
</radialGradient>
<radialGradient id="paint30_radial_4002_866" cx="0" cy="0" r="1" gradientUnits="userSpaceOnUse" gradientTransform="translate(23.6633 27.0113) rotate(-144.462) scale(0.806468 2.46845)">
<stop stop-color="#5E598C"/>
<stop offset="1" stop-color="#5E598C" stop-opacity="0"/>
</radialGradient>
<radialGradient id="paint31_radial_4002_866" cx="0" cy="0" r="1" gradientUnits="userSpaceOnUse" gradientTransform="translate(23.5071 27.9175) rotate(-171.191) scale(2.03585 4.1214)">
<stop offset="0.54009" stop-color="#4D407B" stop-opacity="0"/>
<stop offset="1" stop-color="#4D407B"/>
</radialGradient>
<linearGradient id="paint32_linear_4002_866" x1="23.261" y1="27.648" x2="23.1555" y2="27.5659" gradientUnits="userSpaceOnUse">
<stop stop-color="#4B4386"/>
<stop offset="1" stop-color="#4B4386" stop-opacity="0"/>
</linearGradient>
<radialGradient id="paint33_radial_4002_866" cx="0" cy="0" r="1" gradientUnits="userSpaceOnUse" gradientTransform="translate(23.1008 27.8238) rotate(-170.929) scale(1.88293 6.19701)">
<stop offset="0.604118" stop-color="#7A7996" stop-opacity="0"/>
<stop offset="1" stop-color="#7A7996"/>
</radialGradient>
<linearGradient id="paint34_linear_4002_866" x1="23.6594" y1="7.9722" x2="23.9055" y2="7.5347" gradientUnits="userSpaceOnUse">
<stop stop-color="#6F443D"/>
<stop offset="1" stop-color="#5A332D"/>
</linearGradient>
<linearGradient id="paint35_linear_4002_866" x1="24.8821" y1="15.5424" x2="22.6946" y2="11.7299" gradientUnits="userSpaceOnUse">
<stop stop-color="#3AADFF"/>
<stop offset="1" stop-color="#4D94CD"/>
</linearGradient>
<radialGradient id="paint36_radial_4002_866" cx="0" cy="0" r="1" gradientUnits="userSpaceOnUse" gradientTransform="translate(25.6008 12.8237) rotate(136.273) scale(2.98384 2.4723)">
<stop stop-color="#53BFFF"/>
<stop offset="1" stop-color="#53BFFF" stop-opacity="0"/>
</radialGradient>
<radialGradient id="paint37_radial_4002_866" cx="0" cy="0" r="1" gradientUnits="userSpaceOnUse" gradientTransform="translate(23.8508 11.3081) rotate(78.3106) scale(1.38816 3.93973)">
<stop stop-color="#4788C0"/>
<stop offset="1" stop-color="#4788C0" stop-opacity="0"/>
</radialGradient>
<radialGradient id="paint38_radial_4002_866" cx="0" cy="0" r="1" gradientUnits="userSpaceOnUse" gradientTransform="translate(22.929 13.6831) rotate(151.39) scale(2.34937 1.35679)">
<stop stop-color="#1B7EEC"/>
<stop offset="1" stop-color="#1B7EEC" stop-opacity="0"/>
</radialGradient>
<radialGradient id="paint39_radial_4002_866" cx="0" cy="0" r="1" gradientUnits="userSpaceOnUse" gradientTransform="translate(21.5071 14.8393) rotate(25.4633) scale(1.09028 4.37014)">
<stop offset="0.206004" stop-color="#67A3DB"/>
<stop offset="1" stop-color="#67A3DB" stop-opacity="0"/>
</radialGradient>
<radialGradient id="paint40_radial_4002_866" cx="0" cy="0" r="1" gradientUnits="userSpaceOnUse" gradientTransform="translate(20.6946 21.355) rotate(-54.8277) scale(2.84812 2.32241)">
<stop stop-color="#716170"/>
<stop offset="1" stop-color="#716170" stop-opacity="0"/>
</radialGradient>
<radialGradient id="paint41_radial_4002_866" cx="0" cy="0" r="1" gradientUnits="userSpaceOnUse" gradientTransform="translate(20.2415 19.23) rotate(36.4309) scale(0.815649 1.78408)">
<stop stop-color="#948F8F"/>
<stop offset="1" stop-color="#948F8F" stop-opacity="0"/>
</radialGradient>
<radialGradient id="paint42_radial_4002_866" cx="0" cy="0" r="1" gradientUnits="userSpaceOnUse" gradientTransform="translate(22.1165 19.1519) rotate(136.975) scale(2.56479 1.25033)">
<stop offset="0.119571" stop-color="#5E505B"/>
<stop offset="1" stop-color="#5E505B" stop-opacity="0"/>
</radialGradient>
<linearGradient id="paint43_linear_4002_866" x1="14.177" y1="16.584" x2="14.802" y2="17.583" gradientUnits="userSpaceOnUse">
<stop stop-color="#EEBBA3"/>
<stop offset="1" stop-color="#EEBBA3" stop-opacity="0"/>
</linearGradient>
<radialGradient id="paint44_radial_4002_866" cx="0" cy="0" r="1" gradientUnits="userSpaceOnUse" gradientTransform="translate(22.6008 17.4175) rotate(-157.537) scale(3.51684 1.25412)">
<stop stop-color="#AEA0A5"/>
<stop offset="1" stop-color="#AEA0A5" stop-opacity="0"/>
</radialGradient>
<linearGradient id="paint45_linear_4002_866" x1="20.1321" y1="19.8315" x2="21.1008" y2="16.855" gradientUnits="userSpaceOnUse">
<stop stop-color="#8C7786"/>
<stop offset="1" stop-color="#8C7786" stop-opacity="0"/>
</linearGradient>
<radialGradient id="paint46_radial_4002_866" cx="0" cy="0" r="1" gradientUnits="userSpaceOnUse" gradientTransform="translate(23.304 16.7612) rotate(119.197) scale(0.608573 3.53719)">
<stop stop-color="#816878"/>
<stop offset="1" stop-color="#816878" stop-opacity="0"/>
</radialGradient>
<radialGradient id="paint47_radial_4002_866" cx="0" cy="0" r="1" gradientUnits="userSpaceOnUse" gradientTransform="translate(22.6008 17.4175) rotate(-157.537) scale(3.51684 1.25412)">
<stop stop-color="#AEA0A5"/>
<stop offset="1" stop-color="#AEA0A5" stop-opacity="0"/>
</radialGradient>
<linearGradient id="paint48_linear_4002_866" x1="20.1321" y1="19.8315" x2="21.1008" y2="16.855" gradientUnits="userSpaceOnUse">
<stop stop-color="#8C7786"/>
<stop offset="1" stop-color="#8C7786" stop-opacity="0"/>
</linearGradient>
<radialGradient id="paint49_radial_4002_866" cx="0" cy="0" r="1" gradientUnits="userSpaceOnUse" gradientTransform="translate(23.304 16.7612) rotate(119.197) scale(0.608573 3.53719)">
<stop stop-color="#816878"/>
<stop offset="1" stop-color="#816878" stop-opacity="0"/>
</radialGradient>
<radialGradient id="paint50_radial_4002_866" cx="0" cy="0" r="1" gradientUnits="userSpaceOnUse" gradientTransform="translate(10.5383 18.9175) rotate(-54.2645) scale(1.57843 2.91744)">
<stop offset="0.679667" stop-color="#4A4476" stop-opacity="0"/>
<stop offset="0.964352" stop-color="#4A4476"/>
</radialGradient>
<linearGradient id="paint51_linear_4002_866" x1="23.1028" y1="16.4175" x2="23.1028" y2="17.855" gradientUnits="userSpaceOnUse">
<stop stop-color="#8BAD3A"/>
<stop offset="1" stop-color="#337267"/>
</linearGradient>
<linearGradient id="paint52_linear_4002_866" x1="24.2961" y1="17.9449" x2="24.5266" y2="17.4996" gradientUnits="userSpaceOnUse">
<stop offset="0.456682" stop-color="#3A5669"/>
<stop offset="1" stop-color="#417C62" stop-opacity="0"/>
</linearGradient>
<radialGradient id="paint53_radial_4002_866" cx="0" cy="0" r="1" gradientUnits="userSpaceOnUse" gradientTransform="translate(20.9602 15.7144) rotate(29.1481) scale(1.39547 0.435689)">
<stop stop-color="#A6CA7D"/>
<stop offset="1" stop-color="#A6CA7D" stop-opacity="0"/>
</radialGradient>
<radialGradient id="paint54_radial_4002_866" cx="0" cy="0" r="1" gradientUnits="userSpaceOnUse" gradientTransform="translate(19.9817 6.31833) rotate(-7.59464) scale(0.709347 0.242644)">
<stop stop-color="#FBCDB7"/>
<stop offset="1" stop-color="#FBCDB7" stop-opacity="0"/>
</radialGradient>
<radialGradient id="paint55_radial_4002_866" cx="0" cy="0" r="1" gradientUnits="userSpaceOnUse" gradientTransform="translate(19.7161 7.10983) rotate(-15.9088) scale(0.840797 0.586133)">
<stop offset="0.105187" stop-color="#D8937C"/>
<stop offset="1" stop-color="#D8937C" stop-opacity="0"/>
</radialGradient>
<linearGradient id="paint56_linear_4002_866" x1="15.6165" y1="11.4409" x2="15.756" y2="11.2732" gradientUnits="userSpaceOnUse">
<stop offset="0.00161153" stop-color="#ECAE9B"/>
<stop offset="1" stop-color="#ECAE9B" stop-opacity="0"/>
</linearGradient>
<linearGradient id="paint57_linear_4002_866" x1="15.8247" y1="11.012" x2="15.9928" y2="10.8099" gradientUnits="userSpaceOnUse">
<stop offset="0.00161153" stop-color="#ECAE9B"/>
<stop offset="1" stop-color="#ECAE9B" stop-opacity="0"/>
</linearGradient>
<linearGradient id="paint58_linear_4002_866" x1="16.0909" y1="10.616" x2="16.2766" y2="10.3886" gradientUnits="userSpaceOnUse">
<stop offset="0.00161153" stop-color="#ECAE9B"/>
<stop offset="1" stop-color="#ECAE9B" stop-opacity="0"/>
</linearGradient>
<radialGradient id="paint59_radial_4002_866" cx="0" cy="0" r="1" gradientUnits="userSpaceOnUse" gradientTransform="translate(26.7969 9.55813) rotate(126.754) scale(1.54063 1.00944)">
<stop stop-color="#231820"/>
<stop offset="1" stop-color="#151A31"/>
</radialGradient>
<radialGradient id="paint60_radial_4002_866" cx="0" cy="0" r="1" gradientUnits="userSpaceOnUse" gradientTransform="translate(25.4485 8.87061) rotate(83.69) scale(0.817452)">
<stop offset="0.392003" stop-color="#CF9F9D"/>
<stop offset="1" stop-color="#C58284"/>
</radialGradient>
<linearGradient id="paint61_linear_4002_866" x1="24.9446" y1="9.56788" x2="24.6243" y2="9.32374" gradientUnits="userSpaceOnUse">
<stop stop-color="#37234C"/>
<stop offset="1" stop-color="#37234C" stop-opacity="0"/>
</linearGradient>
<linearGradient id="paint62_linear_4002_866" x1="23.4915" y1="10.1206" x2="23.929" y2="10.4097" gradientUnits="userSpaceOnUse">
<stop offset="0.324467" stop-color="#72687C"/>
<stop offset="1" stop-color="#72687C" stop-opacity="0"/>
</linearGradient>
<radialGradient id="paint63_radial_4002_866" cx="0" cy="0" r="1" gradientUnits="userSpaceOnUse" gradientTransform="translate(24.9524 9.21436) rotate(39.6442) scale(0.177552 1.04073)">
<stop stop-color="#564975"/>
<stop offset="1" stop-color="#4D3A6E" stop-opacity="0"/>
</radialGradient>
<radialGradient id="paint64_radial_4002_866" cx="0" cy="0" r="1" gradientUnits="userSpaceOnUse" gradientTransform="translate(26.8352 6.88619) rotate(129.693) scale(2.03059 2.38667)">
<stop offset="0.0445853" stop-color="#4FBDFF"/>
<stop offset="0.918703" stop-color="#52ABE4"/>
</radialGradient>
<radialGradient id="paint65_radial_4002_866" cx="0" cy="0" r="1" gradientUnits="userSpaceOnUse" gradientTransform="translate(25.6633 7.91744) rotate(-50.9806) scale(0.583223 1.49562)">
<stop offset="0.217657" stop-color="#4B89D0"/>
<stop offset="1" stop-color="#337BCD"/>
</radialGradient>
<linearGradient id="paint66_linear_4002_866" x1="16.509" y1="10.3882" x2="16.6988" y2="10.1922" gradientUnits="userSpaceOnUse">
<stop offset="0.00161153" stop-color="#ECAE9B"/>
<stop offset="1" stop-color="#ECAE9B" stop-opacity="0"/>
</linearGradient>
<radialGradient id="paint67_radial_4002_866" cx="0" cy="0" r="1" gradientUnits="userSpaceOnUse" gradientTransform="translate(21.9758 17.1987) rotate(-160.017) scale(3.29195 1.49462)">
<stop stop-color="#AEA0A4"/>
<stop offset="1" stop-color="#AEA0A4" stop-opacity="0"/>
</radialGradient>
<radialGradient id="paint68_radial_4002_866" cx="0" cy="0" r="1" gradientUnits="userSpaceOnUse" gradientTransform="translate(19.7415 19.1675) rotate(-70.7581) scale(3.5085 9.81258)">
<stop offset="0.771343" stop-color="#A49BA8" stop-opacity="0"/>
<stop offset="1" stop-color="#7E7776"/>
</radialGradient>
<radialGradient id="paint69_radial_4002_866" cx="0" cy="0" r="1" gradientUnits="userSpaceOnUse" gradientTransform="translate(17.9133 17.5806) rotate(78.8692) scale(2.50907 0.740098)">
<stop stop-color="#ADA2A2"/>
<stop offset="1" stop-color="#ADA2A2" stop-opacity="0"/>
</radialGradient>
<radialGradient id="paint70_radial_4002_866" cx="0" cy="0" r="1" gradientUnits="userSpaceOnUse" gradientTransform="translate(23.4133 11.9767) rotate(98.903) scale(2.42307 5.69158)">
<stop offset="0.274424" stop-color="#34AEF0"/>
<stop offset="1" stop-color="#3A9CF8"/>
</radialGradient>
<linearGradient id="paint71_linear_4002_866" x1="23.2102" y1="14.4487" x2="23.0852" y2="13.5268" gradientUnits="userSpaceOnUse">
<stop stop-color="#2280E0"/>
<stop offset="1" stop-color="#2280E0" stop-opacity="0"/>
</linearGradient>
<radialGradient id="paint72_radial_4002_866" cx="0" cy="0" r="1" gradientUnits="userSpaceOnUse" gradientTransform="translate(24.6946 12.6362) rotate(166.651) scale(0.947473 1.09619)">
<stop stop-color="#56C0FF"/>
<stop offset="1" stop-color="#56C0FF" stop-opacity="0"/>
</radialGradient>
</defs>
</svg>
