<svg width="32" height="32" viewBox="0 0 32 32" fill="none" xmlns="http://www.w3.org/2000/svg">
<path d="M17 14C17 14 16 12 15 14C15 14 12 18.5 12 21.5C12 22.5 12.5 24.9999 16 25C19.5 25 20 22.5 20 21.5C20 18.5 17 14 17 14Z" fill="#212121"/>
<path d="M15 2C13 2 12 4 14 5L14 6.5C14.0004 6.96607 13.5615 7.12114 13.5019 7.14004C9.79967 7.84139 7 11.0937 7 15V26C7 28.2091 8.79086 30 11 30H21C23.2091 30 25 28.2091 25 26V15C25 11.0937 22.2002 7.84129 18.4979 7.14L18.5043 7.14C18.5043 7.14 18.0034 7 18 6.5V5H21C22 5 22.5 3.5 21 3C21 3 16 2 15 2ZM15 9H17C20.3137 9 23 11.6863 23 15V26C23 27.1046 22.1046 28 21 28H11C9.89543 28 9 27.1046 9 26V15C9 11.6863 11.6863 9 15 9Z" fill="#212121"/>
</svg>
