<svg width="32" height="32" viewBox="0 0 32 32" fill="none" xmlns="http://www.w3.org/2000/svg">
<g filter="url(#filter0_i_18_17427)">
<path d="M2.05688 22.5156C2.05688 18.9171 4.97403 16 8.57251 16H23.26C26.8585 16 29.7756 18.9171 29.7756 22.5156C29.7756 26.1141 26.421 29.0312 22.8225 29.0312H8.97876C5.38028 29.0312 2.05688 26.1141 2.05688 22.5156Z" fill="url(#paint0_linear_18_17427)"/>
<path d="M2.05688 22.5156C2.05688 18.9171 4.97403 16 8.57251 16H23.26C26.8585 16 29.7756 18.9171 29.7756 22.5156C29.7756 26.1141 26.421 29.0312 22.8225 29.0312H8.97876C5.38028 29.0312 2.05688 26.1141 2.05688 22.5156Z" fill="url(#paint1_radial_18_17427)"/>
</g>
<g filter="url(#filter1_f_18_17427)">
<path d="M28.3381 19.1094C28.9944 20.125 29.5015 20.9892 29.3694 22.7969C29.1677 25.5569 26.5256 27.7969 24.01 28.2031" stroke="url(#paint2_radial_18_17427)" stroke-width="0.25"/>
</g>
<g filter="url(#filter2_i_18_17427)">
<path d="M8.02563 14.7656C8.02563 12.1423 10.1523 10.0156 12.7756 10.0156H19.0569C21.6802 10.0156 23.8069 12.1423 23.8069 14.7656V20.9688C23.8069 22.0733 22.9115 22.9688 21.8069 22.9688H10.0256C8.92106 22.9688 8.02563 22.0733 8.02563 20.9688V14.7656Z" fill="url(#paint3_linear_18_17427)"/>
<path d="M8.02563 14.7656C8.02563 12.1423 10.1523 10.0156 12.7756 10.0156H19.0569C21.6802 10.0156 23.8069 12.1423 23.8069 14.7656V20.9688C23.8069 22.0733 22.9115 22.9688 21.8069 22.9688H10.0256C8.92106 22.9688 8.02563 22.0733 8.02563 20.9688V14.7656Z" fill="url(#paint4_linear_18_17427)"/>
</g>
<g filter="url(#filter3_ii_18_17427)">
<path d="M8.02563 17.9375V20.9688C8.02563 22.0733 8.92107 22.9688 10.0256 22.9688H21.8069C22.9115 22.9688 23.8069 22.0733 23.8069 20.9688V17.9375C23.8069 19.1801 22.7995 20.1875 21.5569 20.1875H10.2756C9.03299 20.1875 8.02563 19.1801 8.02563 17.9375Z" fill="#C42E65"/>
</g>
<g filter="url(#filter4_i_18_17427)">
<path d="M19.2235 23.2032L22.2237 24.2952L20.2869 29.6164C20.1781 29.9155 19.7589 29.9258 19.6354 29.6324L19.332 28.9111C19.1979 28.5924 18.8229 28.4527 18.513 28.6059L17.7641 28.9763C17.4812 29.1162 17.1721 28.8395 17.2801 28.5428L19.2235 23.2032Z" fill="url(#paint5_linear_18_17427)"/>
<path d="M19.2235 23.2032L22.2237 24.2952L20.2869 29.6164C20.1781 29.9155 19.7589 29.9258 19.6354 29.6324L19.332 28.9111C19.1979 28.5924 18.8229 28.4527 18.513 28.6059L17.7641 28.9763C17.4812 29.1162 17.1721 28.8395 17.2801 28.5428L19.2235 23.2032Z" fill="url(#paint6_radial_18_17427)"/>
</g>
<g filter="url(#filter5_i_18_17427)">
<path d="M24.9059 23.2032L21.9058 24.2952L23.8425 29.6164C23.9514 29.9155 24.3706 29.9258 24.494 29.6324L24.7974 28.9111C24.9315 28.5924 25.3065 28.4527 25.6165 28.6059L26.3653 28.9763C26.6483 29.1162 26.9573 28.8395 26.8493 28.5428L24.9059 23.2032Z" fill="url(#paint7_linear_18_17427)"/>
<path d="M24.9059 23.2032L21.9058 24.2952L23.8425 29.6164C23.9514 29.9155 24.3706 29.9258 24.494 29.6324L24.7974 28.9111C24.9315 28.5924 25.3065 28.4527 25.6165 28.6059L26.3653 28.9763C26.6483 29.1162 26.9573 28.8395 26.8493 28.5428L24.9059 23.2032Z" fill="url(#paint8_radial_18_17427)"/>
</g>
<path d="M21.8938 23.5073L22.0648 23.5817L22.2358 23.5073V21.1023L22.0648 21.0204L21.8938 21.1023V23.5073Z" fill="url(#paint9_linear_18_17427)"/>
<g filter="url(#filter6_i_18_17427)">
<path d="M15.658 20.5852C15.6606 19.4317 17.0334 18.5918 18.4535 19.0923L20.1697 19.8569C20.3488 19.9367 20.5395 19.9875 20.7345 20.0074V24.3024L15.658 24.0219V20.5852Z" fill="url(#paint10_linear_18_17427)"/>
<path d="M15.658 20.5852C15.6606 19.4317 17.0334 18.5918 18.4535 19.0923L20.1697 19.8569C20.3488 19.9367 20.5395 19.9875 20.7345 20.0074V24.3024L15.658 24.0219V20.5852Z" fill="url(#paint11_linear_18_17427)"/>
</g>
<path d="M16 24.0268C16 22.9606 17.4981 22.4627 18.4638 22.9406L20.6974 24.0294L18.4638 25.1181C17.4981 25.596 16 25.0981 16 24.0319L16 24.0294L16 24.0268Z" fill="url(#paint12_radial_18_17427)"/>
<path d="M16 24.0268C16 22.9606 17.4981 22.4627 18.4638 22.9406L20.6974 24.0294L18.4638 25.1181C17.4981 25.596 16 25.0981 16 24.0319L16 24.0294L16 24.0268Z" fill="url(#paint13_linear_18_17427)"/>
<path fill-rule="evenodd" clip-rule="evenodd" d="M16 24.0268C16 22.9607 17.498 22.4627 18.4638 22.9406L20.6973 24.0294L18.4638 25.1182C17.498 25.5961 16 25.0981 16 24.032L16 24.0294L16 24.0268ZM15.658 24.0299V24.029L15.658 24.0273C15.658 23.3067 16.1684 22.8168 16.7427 22.5872C17.3157 22.3581 18.0336 22.3466 18.6145 22.6336C18.6148 22.6338 18.6152 22.634 18.6155 22.6341L20.8472 23.722C20.9647 23.7793 21.0393 23.8986 21.0393 24.0294C21.0393 24.1602 20.9647 24.2795 20.8472 24.3368L18.6155 25.4247C18.6152 25.4249 18.6149 25.425 18.6145 25.4252C18.0336 25.7123 17.3157 25.7008 16.7427 25.4717C16.1684 25.242 15.658 24.7526 15.658 24.032L15.658 24.0299Z" fill="url(#paint14_linear_18_17427)"/>
<path d="M28.6194 20.5852C28.6167 19.4317 27.244 18.5918 25.8239 19.0923L24.1076 19.8569C23.9285 19.9367 23.7379 19.9875 23.5428 20.0074V24.3024L28.6194 24.0219V20.5852Z" fill="url(#paint15_linear_18_17427)"/>
<path d="M28.6194 20.5852C28.6167 19.4317 27.244 18.5918 25.8239 19.0923L24.1076 19.8569C23.9285 19.9367 23.7379 19.9875 23.5428 20.0074V24.3024L28.6194 24.0219V20.5852Z" fill="url(#paint16_linear_18_17427)"/>
<path d="M28.2773 24.0268C28.2773 22.9606 26.7793 22.4627 25.8135 22.9406L23.58 24.0294L25.8135 25.1181C26.7793 25.596 28.2773 25.0981 28.2773 24.0319L28.2773 24.0294L28.2773 24.0268Z" fill="url(#paint17_radial_18_17427)"/>
<path fill-rule="evenodd" clip-rule="evenodd" d="M28.2774 24.0268C28.2774 22.9607 26.7793 22.4627 25.8136 22.9406L23.58 24.0294L25.8136 25.1182C26.7793 25.5961 28.2774 25.0981 28.2774 24.032L28.2774 24.0294L28.2774 24.0268ZM28.6194 24.0299V24.029L28.6194 24.0273C28.6194 23.3067 28.109 22.8168 27.5346 22.5872C26.9616 22.3581 26.2437 22.3466 25.6628 22.6336C25.6625 22.6338 25.6622 22.634 25.6619 22.6341L23.4302 23.722C23.3126 23.7793 23.238 23.8986 23.238 24.0294C23.238 24.1602 23.3126 24.2795 23.4302 24.3368L25.6619 25.4247C25.6622 25.4249 25.6625 25.425 25.6628 25.4252C26.2437 25.7123 26.9616 25.7008 27.5346 25.4717C28.109 25.242 28.6194 24.7526 28.6194 24.032L28.6194 24.0299Z" fill="url(#paint18_linear_18_17427)"/>
<g filter="url(#filter7_i_18_17427)">
<rect x="20.4482" y="19.2388" width="3.23297" height="5.98501" rx="1" fill="url(#paint19_linear_18_17427)"/>
</g>
<g filter="url(#filter8_f_18_17427)">
<ellipse cx="22.9625" cy="23.8927" rx="0.425143" ry="0.27916" fill="#FF565B"/>
</g>
<g filter="url(#filter9_f_18_17427)">
<path d="M15.3743 14.5312H23.0379C23.0379 12.581 21.4569 11 19.5067 11H15.3743V14.5312Z" fill="url(#paint20_linear_18_17427)"/>
</g>
<g filter="url(#filter10_f_18_17427)">
<path d="M21.51 25.6875L20.3381 28.8438" stroke="url(#paint21_radial_18_17427)" stroke-width="0.15"/>
</g>
<g filter="url(#filter11_f_18_17427)">
<path d="M25.5959 25.7891L26.4397 28.0625" stroke="url(#paint22_radial_18_17427)" stroke-width="0.15"/>
</g>
<defs>
<filter id="filter0_i_18_17427" x="2.05688" y="15.5" width="27.7188" height="13.5312" filterUnits="userSpaceOnUse" color-interpolation-filters="sRGB">
<feFlood flood-opacity="0" result="BackgroundImageFix"/>
<feBlend mode="normal" in="SourceGraphic" in2="BackgroundImageFix" result="shape"/>
<feColorMatrix in="SourceAlpha" type="matrix" values="0 0 0 0 0 0 0 0 0 0 0 0 0 0 0 0 0 0 127 0" result="hardAlpha"/>
<feOffset dy="-0.5"/>
<feGaussianBlur stdDeviation="0.25"/>
<feComposite in2="hardAlpha" operator="arithmetic" k2="-1" k3="1"/>
<feColorMatrix type="matrix" values="0 0 0 0 0.843137 0 0 0 0 0.486275 0 0 0 0 0.501961 0 0 0 1 0"/>
<feBlend mode="normal" in2="shape" result="effect1_innerShadow_18_17427"/>
</filter>
<filter id="filter1_f_18_17427" x="23.74" y="18.7915" width="6.02539" height="9.78503" filterUnits="userSpaceOnUse" color-interpolation-filters="sRGB">
<feFlood flood-opacity="0" result="BackgroundImageFix"/>
<feBlend mode="normal" in="SourceGraphic" in2="BackgroundImageFix" result="shape"/>
<feGaussianBlur stdDeviation="0.125" result="effect1_foregroundBlur_18_17427"/>
</filter>
<filter id="filter2_i_18_17427" x="8.02563" y="9.51562" width="17.2812" height="13.4531" filterUnits="userSpaceOnUse" color-interpolation-filters="sRGB">
<feFlood flood-opacity="0" result="BackgroundImageFix"/>
<feBlend mode="normal" in="SourceGraphic" in2="BackgroundImageFix" result="shape"/>
<feColorMatrix in="SourceAlpha" type="matrix" values="0 0 0 0 0 0 0 0 0 0 0 0 0 0 0 0 0 0 127 0" result="hardAlpha"/>
<feOffset dx="1.5" dy="-0.5"/>
<feGaussianBlur stdDeviation="1"/>
<feComposite in2="hardAlpha" operator="arithmetic" k2="-1" k3="1"/>
<feColorMatrix type="matrix" values="0 0 0 0 0.792157 0 0 0 0 0.568627 0 0 0 0 0.4 0 0 0 1 0"/>
<feBlend mode="normal" in2="shape" result="effect1_innerShadow_18_17427"/>
</filter>
<filter id="filter3_ii_18_17427" x="8.02563" y="17.9375" width="15.7812" height="5.13125" filterUnits="userSpaceOnUse" color-interpolation-filters="sRGB">
<feFlood flood-opacity="0" result="BackgroundImageFix"/>
<feBlend mode="normal" in="SourceGraphic" in2="BackgroundImageFix" result="shape"/>
<feColorMatrix in="SourceAlpha" type="matrix" values="0 0 0 0 0 0 0 0 0 0 0 0 0 0 0 0 0 0 127 0" result="hardAlpha"/>
<feOffset/>
<feGaussianBlur stdDeviation="0.5"/>
<feComposite in2="hardAlpha" operator="arithmetic" k2="-1" k3="1"/>
<feColorMatrix type="matrix" values="0 0 0 0 0.713726 0 0 0 0 0.235294 0 0 0 0 0.337255 0 0 0 1 0"/>
<feBlend mode="normal" in2="shape" result="effect1_innerShadow_18_17427"/>
<feColorMatrix in="SourceAlpha" type="matrix" values="0 0 0 0 0 0 0 0 0 0 0 0 0 0 0 0 0 0 127 0" result="hardAlpha"/>
<feOffset dy="0.1"/>
<feGaussianBlur stdDeviation="0.05"/>
<feComposite in2="hardAlpha" operator="arithmetic" k2="-1" k3="1"/>
<feColorMatrix type="matrix" values="0 0 0 0 0.678431 0 0 0 0 0.152941 0 0 0 0 0.231373 0 0 0 1 0"/>
<feBlend mode="normal" in2="effect1_innerShadow_18_17427" result="effect2_innerShadow_18_17427"/>
</filter>
<filter id="filter4_i_18_17427" x="17.2581" y="23.2032" width="5.06558" height="6.64343" filterUnits="userSpaceOnUse" color-interpolation-filters="sRGB">
<feFlood flood-opacity="0" result="BackgroundImageFix"/>
<feBlend mode="normal" in="SourceGraphic" in2="BackgroundImageFix" result="shape"/>
<feColorMatrix in="SourceAlpha" type="matrix" values="0 0 0 0 0 0 0 0 0 0 0 0 0 0 0 0 0 0 127 0" result="hardAlpha"/>
<feOffset dx="0.1"/>
<feGaussianBlur stdDeviation="0.1"/>
<feComposite in2="hardAlpha" operator="arithmetic" k2="-1" k3="1"/>
<feColorMatrix type="matrix" values="0 0 0 0 0.737255 0 0 0 0 0.152941 0 0 0 0 0.266667 0 0 0 1 0"/>
<feBlend mode="normal" in2="shape" result="effect1_innerShadow_18_17427"/>
</filter>
<filter id="filter5_i_18_17427" x="21.9058" y="23.2032" width="5.06558" height="6.64343" filterUnits="userSpaceOnUse" color-interpolation-filters="sRGB">
<feFlood flood-opacity="0" result="BackgroundImageFix"/>
<feBlend mode="normal" in="SourceGraphic" in2="BackgroundImageFix" result="shape"/>
<feColorMatrix in="SourceAlpha" type="matrix" values="0 0 0 0 0 0 0 0 0 0 0 0 0 0 0 0 0 0 127 0" result="hardAlpha"/>
<feOffset dx="0.1"/>
<feGaussianBlur stdDeviation="0.1"/>
<feComposite in2="hardAlpha" operator="arithmetic" k2="-1" k3="1"/>
<feColorMatrix type="matrix" values="0 0 0 0 0.737255 0 0 0 0 0.152941 0 0 0 0 0.266667 0 0 0 1 0"/>
<feBlend mode="normal" in2="shape" result="effect1_innerShadow_18_17427"/>
</filter>
<filter id="filter6_i_18_17427" x="15.658" y="18.8446" width="5.07666" height="5.45779" filterUnits="userSpaceOnUse" color-interpolation-filters="sRGB">
<feFlood flood-opacity="0" result="BackgroundImageFix"/>
<feBlend mode="normal" in="SourceGraphic" in2="BackgroundImageFix" result="shape"/>
<feColorMatrix in="SourceAlpha" type="matrix" values="0 0 0 0 0 0 0 0 0 0 0 0 0 0 0 0 0 0 127 0" result="hardAlpha"/>
<feOffset dy="-0.1"/>
<feGaussianBlur stdDeviation="0.15"/>
<feComposite in2="hardAlpha" operator="arithmetic" k2="-1" k3="1"/>
<feColorMatrix type="matrix" values="0 0 0 0 0.815686 0 0 0 0 0.176471 0 0 0 0 0.258824 0 0 0 1 0"/>
<feBlend mode="normal" in2="shape" result="effect1_innerShadow_18_17427"/>
</filter>
<filter id="filter7_i_18_17427" x="20.4482" y="19.2388" width="3.33291" height="5.98499" filterUnits="userSpaceOnUse" color-interpolation-filters="sRGB">
<feFlood flood-opacity="0" result="BackgroundImageFix"/>
<feBlend mode="normal" in="SourceGraphic" in2="BackgroundImageFix" result="shape"/>
<feColorMatrix in="SourceAlpha" type="matrix" values="0 0 0 0 0 0 0 0 0 0 0 0 0 0 0 0 0 0 127 0" result="hardAlpha"/>
<feOffset dx="0.1"/>
<feGaussianBlur stdDeviation="0.25"/>
<feComposite in2="hardAlpha" operator="arithmetic" k2="-1" k3="1"/>
<feColorMatrix type="matrix" values="0 0 0 0 0.768627 0 0 0 0 0.054902 0 0 0 0 0.235294 0 0 0 1 0"/>
<feBlend mode="normal" in2="shape" result="effect1_innerShadow_18_17427"/>
</filter>
<filter id="filter8_f_18_17427" x="22.0374" y="23.1135" width="1.85034" height="1.55835" filterUnits="userSpaceOnUse" color-interpolation-filters="sRGB">
<feFlood flood-opacity="0" result="BackgroundImageFix"/>
<feBlend mode="normal" in="SourceGraphic" in2="BackgroundImageFix" result="shape"/>
<feGaussianBlur stdDeviation="0.25" result="effect1_foregroundBlur_18_17427"/>
</filter>
<filter id="filter9_f_18_17427" x="14.1243" y="9.75" width="10.1636" height="6.03125" filterUnits="userSpaceOnUse" color-interpolation-filters="sRGB">
<feFlood flood-opacity="0" result="BackgroundImageFix"/>
<feBlend mode="normal" in="SourceGraphic" in2="BackgroundImageFix" result="shape"/>
<feGaussianBlur stdDeviation="0.625" result="effect1_foregroundBlur_18_17427"/>
</filter>
<filter id="filter10_f_18_17427" x="20.1178" y="25.5114" width="1.6125" height="3.5085" filterUnits="userSpaceOnUse" color-interpolation-filters="sRGB">
<feFlood flood-opacity="0" result="BackgroundImageFix"/>
<feBlend mode="normal" in="SourceGraphic" in2="BackgroundImageFix" result="shape"/>
<feGaussianBlur stdDeviation="0.075" result="effect1_foregroundBlur_18_17427"/>
</filter>
<filter id="filter11_f_18_17427" x="25.3756" y="25.6129" width="1.28438" height="2.62568" filterUnits="userSpaceOnUse" color-interpolation-filters="sRGB">
<feFlood flood-opacity="0" result="BackgroundImageFix"/>
<feBlend mode="normal" in="SourceGraphic" in2="BackgroundImageFix" result="shape"/>
<feGaussianBlur stdDeviation="0.075" result="effect1_foregroundBlur_18_17427"/>
</filter>
<linearGradient id="paint0_linear_18_17427" x1="2.05688" y1="23" x2="29.7756" y2="23" gradientUnits="userSpaceOnUse">
<stop stop-color="#E6A679"/>
<stop offset="0.594138" stop-color="#CC6F52"/>
<stop offset="0.801578" stop-color="#FFC185"/>
</linearGradient>
<radialGradient id="paint1_radial_18_17427" cx="0" cy="0" r="1" gradientUnits="userSpaceOnUse" gradientTransform="translate(23.4006 29.0313) rotate(-100.181) scale(7.77874 3.32765)">
<stop offset="0.335736" stop-color="#E38F64"/>
<stop offset="1" stop-color="#E38F64" stop-opacity="0"/>
</radialGradient>
<radialGradient id="paint2_radial_18_17427" cx="0" cy="0" r="1" gradientUnits="userSpaceOnUse" gradientTransform="translate(30.1506 21.75) rotate(134.661) scale(7.46895 4.41908)">
<stop offset="0.444507" stop-color="#FFD5A1"/>
<stop offset="1" stop-color="#FFD5A1" stop-opacity="0"/>
</radialGradient>
<linearGradient id="paint3_linear_18_17427" x1="21.4631" y1="15.0625" x2="8.02563" y2="15.0625" gradientUnits="userSpaceOnUse">
<stop stop-color="#FFC883"/>
<stop offset="1" stop-color="#E09A6A"/>
</linearGradient>
<linearGradient id="paint4_linear_18_17427" x1="18.2131" y1="26.625" x2="18.7131" y2="18.5625" gradientUnits="userSpaceOnUse">
<stop stop-color="#C77F5D"/>
<stop offset="1" stop-color="#C77F5D" stop-opacity="0"/>
</linearGradient>
<linearGradient id="paint5_linear_18_17427" x1="21.1564" y1="24.4821" x2="19.3905" y2="29.6588" gradientUnits="userSpaceOnUse">
<stop offset="0.264743" stop-color="#CF3162"/>
<stop offset="1" stop-color="#ED193D"/>
</linearGradient>
<radialGradient id="paint6_radial_18_17427" cx="0" cy="0" r="1" gradientUnits="userSpaceOnUse" gradientTransform="translate(21.3983 24.3853) rotate(116.946) scale(3.25635 4.01953)">
<stop offset="0.0953037" stop-color="#AB0234"/>
<stop offset="1" stop-color="#AB0234" stop-opacity="0"/>
</radialGradient>
<linearGradient id="paint7_linear_18_17427" x1="23.963" y1="23.5625" x2="24.0382" y2="29.6588" gradientUnits="userSpaceOnUse">
<stop offset="0.264743" stop-color="#CF3162"/>
<stop offset="1" stop-color="#ED193D"/>
</linearGradient>
<radialGradient id="paint8_radial_18_17427" cx="0" cy="0" r="1" gradientUnits="userSpaceOnUse" gradientTransform="translate(25.0255 23.5937) rotate(102.529) scale(4.03355 4.97889)">
<stop offset="0.264697" stop-color="#AB0234"/>
<stop offset="1" stop-color="#AB0234" stop-opacity="0"/>
</radialGradient>
<linearGradient id="paint9_linear_18_17427" x1="15.1452" y1="22.3045" x2="22.2384" y2="22.3045" gradientUnits="userSpaceOnUse">
<stop stop-color="#ED1C26"/>
<stop offset="0.456" stop-color="#ED1452"/>
<stop offset="1" stop-color="#EC098C"/>
</linearGradient>
<linearGradient id="paint10_linear_18_17427" x1="20.463" y1="21.2419" x2="14.9499" y2="21.2419" gradientUnits="userSpaceOnUse">
<stop stop-color="#E1406F"/>
<stop offset="0.453469" stop-color="#DE2F5C"/>
<stop offset="0.917964" stop-color="#BF3941"/>
</linearGradient>
<linearGradient id="paint11_linear_18_17427" x1="20.7345" y1="23.7813" x2="19.6505" y2="23.7813" gradientUnits="userSpaceOnUse">
<stop offset="0.27933" stop-color="#C7174B"/>
<stop offset="1" stop-color="#D8396E" stop-opacity="0"/>
</linearGradient>
<radialGradient id="paint12_radial_18_17427" cx="0" cy="0" r="1" gradientUnits="userSpaceOnUse" gradientTransform="translate(17.1892 25.3002) rotate(-67.3421) scale(3.00973 7.89031)">
<stop stop-color="#D30631"/>
<stop offset="0.459362" stop-color="#A20A18"/>
</radialGradient>
<linearGradient id="paint13_linear_18_17427" x1="20.0195" y1="24.7966" x2="19.1728" y2="23.5871" gradientUnits="userSpaceOnUse">
<stop offset="0.15302" stop-color="#B80844"/>
<stop offset="1" stop-color="#B80844" stop-opacity="0"/>
</linearGradient>
<linearGradient id="paint14_linear_18_17427" x1="15.658" y1="23.6407" x2="20.4861" y2="23.6074" gradientUnits="userSpaceOnUse">
<stop stop-color="#DC164E"/>
<stop offset="1" stop-color="#D2186E"/>
</linearGradient>
<linearGradient id="paint15_linear_18_17427" x1="23.9631" y1="22.0313" x2="28.2444" y2="22.0313" gradientUnits="userSpaceOnUse">
<stop stop-color="#C52A54"/>
<stop offset="1" stop-color="#EB3452"/>
</linearGradient>
<linearGradient id="paint16_linear_18_17427" x1="28.9631" y1="23.9688" x2="27.5256" y2="23.9688" gradientUnits="userSpaceOnUse">
<stop stop-color="#FF5564"/>
<stop offset="1" stop-color="#FF5564" stop-opacity="0"/>
</linearGradient>
<radialGradient id="paint17_radial_18_17427" cx="0" cy="0" r="1" gradientUnits="userSpaceOnUse" gradientTransform="translate(25.293 25.3002) rotate(-70.3043) scale(2.58553 6.77823)">
<stop offset="0.0790682" stop-color="#D2134E"/>
<stop offset="0.817108" stop-color="#BB2825"/>
</radialGradient>
<linearGradient id="paint18_linear_18_17427" x1="28.6194" y1="23.6407" x2="23.7913" y2="23.6074" gradientUnits="userSpaceOnUse">
<stop stop-color="#CE2074"/>
<stop offset="1" stop-color="#EF1648"/>
</linearGradient>
<linearGradient id="paint19_linear_18_17427" x1="21.9005" y1="19.2388" x2="21.9005" y2="24.6874" gradientUnits="userSpaceOnUse">
<stop stop-color="#E1326F"/>
<stop offset="1" stop-color="#EB143E"/>
</linearGradient>
<linearGradient id="paint20_linear_18_17427" x1="23.5255" y1="14.125" x2="15.3743" y2="14.125" gradientUnits="userSpaceOnUse">
<stop stop-color="#FFE39F"/>
<stop offset="1" stop-color="#FFE39F" stop-opacity="0"/>
</linearGradient>
<radialGradient id="paint21_radial_18_17427" cx="0" cy="0" r="1" gradientUnits="userSpaceOnUse" gradientTransform="translate(21.2444 27) rotate(-158.199) scale(0.841432 1.1606)">
<stop offset="0.344902" stop-color="#D93864"/>
<stop offset="1" stop-color="#D93864" stop-opacity="0"/>
</radialGradient>
<radialGradient id="paint22_radial_18_17427" cx="0" cy="0" r="1" gradientUnits="userSpaceOnUse" gradientTransform="translate(26.0959 27.0625) rotate(-112.433) scale(0.921279 1.11798)">
<stop offset="0.362838" stop-color="#D93864"/>
<stop offset="1" stop-color="#D93864" stop-opacity="0"/>
</radialGradient>
</defs>
</svg>
