<svg width="32" height="32" viewBox="0 0 32 32" fill="none" xmlns="http://www.w3.org/2000/svg">
<path d="M17 25H15L15.95 29.74C15.98 29.89 16.11 30 16.26 30H17.63C17.82 30 17.97 29.83 17.94 29.64L17 25Z" fill="#FF5E59"/>
<path d="M20.94 25H22.94L21.99 29.74C21.96 29.89 21.83 30 21.68 30H20.31C20.12 30 19.97 29.83 20 29.64L20.94 25Z" fill="#FF5E59"/>
<path d="M22 10L9.66995 10.01C9.19995 9.38 8.44995 9 7.65995 9H5.94995C5.54995 9 5.30995 9.45 5.53995 9.78L7.03995 12C6.25995 12.69 5.60995 13.53 5.13995 14.48C4.98995 14.8 4.65995 15 4.30995 15H2.93995C2.86688 15 2.79578 15.0083 2.72754 15.024L2.72583 20.9756C2.79459 20.9916 2.86627 21 2.93995 21H4.35995C4.76995 21 5.16995 21.16 5.45995 21.46L10.73 26.73C10.9 26.9 11 27.14 11 27.39V29.69C11 29.86 11.14 30 11.31 30H12.69C12.86 30 13 29.86 13 29.69V26L18.9592 24.8985L23.67 25.82L25.78 27.4C25.93 27.58 26 27.78 26 28V29.69C26 29.86 26.14 30 26.31 30H27.69C27.86 30 28 29.86 28 29.69V23.29C29.24 21.88 30 20.03 30 18C30 17.9951 29.9999 17.9901 29.9999 17.9852V13.18C29.9999 12.19 29.3899 11.35 28.5199 11.01C28.2699 10.91 27.9999 11.1 27.9999 11.37V12.707C26.5343 11.0467 24.3899 10 22 10Z" fill="#FF8687"/>
<path d="M4 16.5V19.5C4 20.25 3.46 20.86 2.74 20.98C2.32 20.89 2 20.51 2 20.06V15.94C2 15.49 2.32 15.11 2.74 15.02C3.46 15.14 4 15.75 4 16.5Z" fill="#FBB8AB"/>
<path d="M13 26V24.84C13 24.38 13.38 24 13.84 24H21.85C22.85 24 23.67 24.81 23.67 25.82C23.13 25.94 22.57 26 22 26H13Z" fill="#FBB8AB"/>
<path d="M7.5 18C7.22 18 7 17.78 7 17.5V16.5C7 16.22 7.22 16 7.5 16C7.78 16 8 16.22 8 16.5V17.5C8 17.78 7.78 18 7.5 18Z" fill="#1C1C1C"/>
</svg>
