<svg width="32" height="32" viewBox="0 0 32 32" fill="none" xmlns="http://www.w3.org/2000/svg">
<path d="M29.1041 27.0625C27.4541 27.0625 26.1041 25.7125 26.1041 24.0625V18.0625C26.1041 17.5125 25.6541 17.0625 25.1041 17.0625H24.2841C23.7341 17.0625 23.2841 16.6125 23.2841 16.0625C23.2841 15.5125 23.7341 15.0625 24.2841 15.0625H25.1041C26.7541 15.0625 28.1041 16.4125 28.1041 18.0625V24.0625C28.1041 24.6125 28.5541 25.0625 29.1041 25.0625C29.6541 25.0625 30.1041 25.5125 30.1041 26.0625C30.1041 26.6125 29.6541 27.0625 29.1041 27.0625Z" fill="url(#paint0_linear_28327_2293)"/>
<path d="M29.1041 27.0625C27.4541 27.0625 26.1041 25.7125 26.1041 24.0625V18.0625C26.1041 17.5125 25.6541 17.0625 25.1041 17.0625H24.2841C23.7341 17.0625 23.2841 16.6125 23.2841 16.0625C23.2841 15.5125 23.7341 15.0625 24.2841 15.0625H25.1041C26.7541 15.0625 28.1041 16.4125 28.1041 18.0625V24.0625C28.1041 24.6125 28.5541 25.0625 29.1041 25.0625C29.6541 25.0625 30.1041 25.5125 30.1041 26.0625C30.1041 26.6125 29.6541 27.0625 29.1041 27.0625Z" fill="url(#paint1_linear_28327_2293)"/>
<path d="M29.1041 25.0625C28.7241 25.0625 28.4041 24.8525 28.2241 24.5425V26.9325C28.5041 27.0125 28.8041 27.0625 29.1041 27.0625C29.6541 27.0625 30.1041 26.6125 30.1041 26.0625C30.1041 25.5125 29.6541 25.0625 29.1041 25.0625Z" fill="url(#paint2_linear_28327_2293)"/>
<path d="M28.1041 21.0625H26.1041V23.0625H28.1041V21.0625Z" fill="url(#paint3_linear_28327_2293)"/>
<path d="M28.1041 19.0625V18.0625C28.1041 17.7125 28.0441 17.3725 27.9341 17.0625H25.1041C25.6541 17.0625 26.1041 17.5125 26.1041 18.0625V19.0625H28.1041Z" fill="url(#paint4_linear_28327_2293)"/>
<path d="M18.5441 22.5825L17.0948 27.9853C17.0826 28.0308 17.0412 28.0625 16.9941 28.0625V28.0625C16.5941 28.0625 16.2441 28.3525 16.1741 28.7525L16.0041 29.7025C15.9741 29.8925 16.1141 30.0625 16.3041 30.0625H16.9341H18.8141H19.1441C19.3741 30.0625 19.5641 29.9125 19.6241 29.6925L21.5241 22.5825H18.5441Z" fill="url(#paint5_linear_28327_2293)"/>
<path d="M18.5441 22.5825L17.0948 27.9853C17.0826 28.0308 17.0412 28.0625 16.9941 28.0625V28.0625C16.5941 28.0625 16.2441 28.3525 16.1741 28.7525L16.0041 29.7025C15.9741 29.8925 16.1141 30.0625 16.3041 30.0625H16.9341H18.8141H19.1441C19.3741 30.0625 19.5641 29.9125 19.6241 29.6925L21.5241 22.5825H18.5441Z" fill="url(#paint6_linear_28327_2293)"/>
<path d="M18.5441 22.5825L17.0948 27.9853C17.0826 28.0308 17.0412 28.0625 16.9941 28.0625V28.0625C16.5941 28.0625 16.2441 28.3525 16.1741 28.7525L16.0041 29.7025C15.9741 29.8925 16.1141 30.0625 16.3041 30.0625H16.9341H18.8141H19.1441C19.3741 30.0625 19.5641 29.9125 19.6241 29.6925L21.5241 22.5825H18.5441Z" fill="url(#paint7_linear_28327_2293)"/>
<path d="M18.5441 22.5825L17.0948 27.9853C17.0826 28.0308 17.0412 28.0625 16.9941 28.0625V28.0625C16.5941 28.0625 16.2441 28.3525 16.1741 28.7525L16.0041 29.7025C15.9741 29.8925 16.1141 30.0625 16.3041 30.0625H16.9341H18.8141H19.1441C19.3741 30.0625 19.5641 29.9125 19.6241 29.6925L21.5241 22.5825H18.5441Z" fill="url(#paint8_linear_28327_2293)"/>
<path d="M15.4941 29.6725L13.6041 22.5825H10.6041L11.9961 27.8003C12.0391 27.9613 11.9374 28.1228 11.8004 28.2177C11.6241 28.3398 11.495 28.5276 11.4541 28.7525L11.2841 29.7325C11.2541 29.9025 11.3841 30.0625 11.5641 30.0625H12.9841H14.1041H15.1941C15.4041 30.0625 15.5541 29.8725 15.4941 29.6725Z" fill="url(#paint9_linear_28327_2293)"/>
<path d="M15.4941 29.6725L13.6041 22.5825H10.6041L11.9961 27.8003C12.0391 27.9613 11.9374 28.1228 11.8004 28.2177C11.6241 28.3398 11.495 28.5276 11.4541 28.7525L11.2841 29.7325C11.2541 29.9025 11.3841 30.0625 11.5641 30.0625H12.9841H14.1041H15.1941C15.4041 30.0625 15.5541 29.8725 15.4941 29.6725Z" fill="url(#paint10_linear_28327_2293)"/>
<path d="M15.4941 29.6725L13.6041 22.5825H10.6041L11.9961 27.8003C12.0391 27.9613 11.9374 28.1228 11.8004 28.2177C11.6241 28.3398 11.495 28.5276 11.4541 28.7525L11.2841 29.7325C11.2541 29.9025 11.3841 30.0625 11.5641 30.0625H12.9841H14.1041H15.1941C15.4041 30.0625 15.5541 29.8725 15.4941 29.6725Z" fill="url(#paint11_linear_28327_2293)"/>
<path d="M15.4941 29.6725L13.6041 22.5825H10.6041L11.9961 27.8003C12.0391 27.9613 11.9374 28.1228 11.8004 28.2177C11.6241 28.3398 11.495 28.5276 11.4541 28.7525L11.2841 29.7325C11.2541 29.9025 11.3841 30.0625 11.5641 30.0625H12.9841H14.1041H15.1941C15.4041 30.0625 15.5541 29.8725 15.4941 29.6725Z" fill="url(#paint12_linear_28327_2293)"/>
<path d="M15.4941 29.6725L13.6041 22.5825H10.6041L11.9961 27.8003C12.0391 27.9613 11.9374 28.1228 11.8004 28.2177C11.6241 28.3398 11.495 28.5276 11.4541 28.7525L11.2841 29.7325C11.2541 29.9025 11.3841 30.0625 11.5641 30.0625H12.9841H14.1041H15.1941C15.4041 30.0625 15.5541 29.8725 15.4941 29.6725Z" fill="url(#paint13_linear_28327_2293)"/>
<path d="M25.6941 15.8225C25.3241 15.3425 24.7541 15.0625 24.1441 15.0625H14.5741C14.2741 15.0625 13.9841 14.9425 13.7641 14.7325L11.4741 12.4425C11.2341 12.2025 11.0941 11.8625 11.0941 11.5225V9.5625C11.0941 8.7325 10.4241 8.0625 9.59406 8.0625C8.76406 8.0625 8.09406 8.7325 8.09406 9.5625V9.7125C8.09406 9.9058 7.93736 10.0625 7.74406 10.0625V10.0625C7.01406 10.0625 6.33406 10.3825 5.86406 10.9325C5.13406 11.8025 4.10406 13.0225 4.10406 13.0625H2.82406C2.42406 13.0625 2.10406 13.3825 2.10406 13.7825V15.3225C2.10406 16.8325 3.33406 18.0625 4.84406 18.0625H6.10406V20.4825C6.10406 21.8825 6.91406 23.1025 8.09406 23.6925V27.5625C8.09406 27.8386 7.85668 28.0517 7.6145 28.1844C7.30924 28.3516 7.10406 28.6738 7.10406 29.0425V29.6425C7.10406 29.8725 7.29407 30.0625 7.52407 30.0625H8.40407H9.36407H10.7741C10.9441 30.0625 11.0841 29.9225 11.0841 29.7525V24.0625H19.6641L21.7576 26.156C21.9472 26.3457 22.0212 26.6221 21.9516 26.881L21.6912 27.85C21.6575 27.9754 21.5439 28.0625 21.4141 28.0625V28.0625C20.9341 28.0625 20.5141 28.3925 20.4041 28.8525L20.2041 29.6525C20.1541 29.8625 20.3141 30.0625 20.5341 30.0625H21.5141H22.9541H23.7541C23.9741 30.0625 24.1641 29.9225 24.2241 29.7225L25.7241 25.2225C25.9841 24.4525 26.1141 23.6525 26.1141 22.8425V17.0225C26.1041 16.5925 25.9641 16.1625 25.6941 15.8225Z" fill="url(#paint14_linear_28327_2293)"/>
<path d="M25.6941 15.8225C25.3241 15.3425 24.7541 15.0625 24.1441 15.0625H14.5741C14.2741 15.0625 13.9841 14.9425 13.7641 14.7325L11.4741 12.4425C11.2341 12.2025 11.0941 11.8625 11.0941 11.5225V9.5625C11.0941 8.7325 10.4241 8.0625 9.59406 8.0625C8.76406 8.0625 8.09406 8.7325 8.09406 9.5625V9.7125C8.09406 9.9058 7.93736 10.0625 7.74406 10.0625V10.0625C7.01406 10.0625 6.33406 10.3825 5.86406 10.9325C5.13406 11.8025 4.10406 13.0225 4.10406 13.0625H2.82406C2.42406 13.0625 2.10406 13.3825 2.10406 13.7825V15.3225C2.10406 16.8325 3.33406 18.0625 4.84406 18.0625H6.10406V20.4825C6.10406 21.8825 6.91406 23.1025 8.09406 23.6925V27.5625C8.09406 27.8386 7.85668 28.0517 7.6145 28.1844C7.30924 28.3516 7.10406 28.6738 7.10406 29.0425V29.6425C7.10406 29.8725 7.29407 30.0625 7.52407 30.0625H8.40407H9.36407H10.7741C10.9441 30.0625 11.0841 29.9225 11.0841 29.7525V24.0625H19.6641L21.7576 26.156C21.9472 26.3457 22.0212 26.6221 21.9516 26.881L21.6912 27.85C21.6575 27.9754 21.5439 28.0625 21.4141 28.0625V28.0625C20.9341 28.0625 20.5141 28.3925 20.4041 28.8525L20.2041 29.6525C20.1541 29.8625 20.3141 30.0625 20.5341 30.0625H21.5141H22.9541H23.7541C23.9741 30.0625 24.1641 29.9225 24.2241 29.7225L25.7241 25.2225C25.9841 24.4525 26.1141 23.6525 26.1141 22.8425V17.0225C26.1041 16.5925 25.9641 16.1625 25.6941 15.8225Z" fill="url(#paint15_radial_28327_2293)"/>
<path d="M25.6941 15.8225C25.3241 15.3425 24.7541 15.0625 24.1441 15.0625H14.5741C14.2741 15.0625 13.9841 14.9425 13.7641 14.7325L11.4741 12.4425C11.2341 12.2025 11.0941 11.8625 11.0941 11.5225V9.5625C11.0941 8.7325 10.4241 8.0625 9.59406 8.0625C8.76406 8.0625 8.09406 8.7325 8.09406 9.5625V9.7125C8.09406 9.9058 7.93736 10.0625 7.74406 10.0625V10.0625C7.01406 10.0625 6.33406 10.3825 5.86406 10.9325C5.13406 11.8025 4.10406 13.0225 4.10406 13.0625H2.82406C2.42406 13.0625 2.10406 13.3825 2.10406 13.7825V15.3225C2.10406 16.8325 3.33406 18.0625 4.84406 18.0625H6.10406V20.4825C6.10406 21.8825 6.91406 23.1025 8.09406 23.6925V27.5625C8.09406 27.8386 7.85668 28.0517 7.6145 28.1844C7.30924 28.3516 7.10406 28.6738 7.10406 29.0425V29.6425C7.10406 29.8725 7.29407 30.0625 7.52407 30.0625H8.40407H9.36407H10.7741C10.9441 30.0625 11.0841 29.9225 11.0841 29.7525V24.0625H19.6641L21.7576 26.156C21.9472 26.3457 22.0212 26.6221 21.9516 26.881L21.6912 27.85C21.6575 27.9754 21.5439 28.0625 21.4141 28.0625V28.0625C20.9341 28.0625 20.5141 28.3925 20.4041 28.8525L20.2041 29.6525C20.1541 29.8625 20.3141 30.0625 20.5341 30.0625H21.5141H22.9541H23.7541C23.9741 30.0625 24.1641 29.9225 24.2241 29.7225L25.7241 25.2225C25.9841 24.4525 26.1141 23.6525 26.1141 22.8425V17.0225C26.1041 16.5925 25.9641 16.1625 25.6941 15.8225Z" fill="url(#paint16_linear_28327_2293)"/>
<path d="M25.6941 15.8225C25.3241 15.3425 24.7541 15.0625 24.1441 15.0625H14.5741C14.2741 15.0625 13.9841 14.9425 13.7641 14.7325L11.4741 12.4425C11.2341 12.2025 11.0941 11.8625 11.0941 11.5225V9.5625C11.0941 8.7325 10.4241 8.0625 9.59406 8.0625C8.76406 8.0625 8.09406 8.7325 8.09406 9.5625V9.7125C8.09406 9.9058 7.93736 10.0625 7.74406 10.0625V10.0625C7.01406 10.0625 6.33406 10.3825 5.86406 10.9325C5.13406 11.8025 4.10406 13.0225 4.10406 13.0625H2.82406C2.42406 13.0625 2.10406 13.3825 2.10406 13.7825V15.3225C2.10406 16.8325 3.33406 18.0625 4.84406 18.0625H6.10406V20.4825C6.10406 21.8825 6.91406 23.1025 8.09406 23.6925V27.5625C8.09406 27.8386 7.85668 28.0517 7.6145 28.1844C7.30924 28.3516 7.10406 28.6738 7.10406 29.0425V29.6425C7.10406 29.8725 7.29407 30.0625 7.52407 30.0625H8.40407H9.36407H10.7741C10.9441 30.0625 11.0841 29.9225 11.0841 29.7525V24.0625H19.6641L21.7576 26.156C21.9472 26.3457 22.0212 26.6221 21.9516 26.881L21.6912 27.85C21.6575 27.9754 21.5439 28.0625 21.4141 28.0625V28.0625C20.9341 28.0625 20.5141 28.3925 20.4041 28.8525L20.2041 29.6525C20.1541 29.8625 20.3141 30.0625 20.5341 30.0625H21.5141H22.9541H23.7541C23.9741 30.0625 24.1641 29.9225 24.2241 29.7225L25.7241 25.2225C25.9841 24.4525 26.1141 23.6525 26.1141 22.8425V17.0225C26.1041 16.5925 25.9641 16.1625 25.6941 15.8225Z" fill="url(#paint17_radial_28327_2293)"/>
<path d="M25.6941 15.8225C25.3241 15.3425 24.7541 15.0625 24.1441 15.0625H14.5741C14.2741 15.0625 13.9841 14.9425 13.7641 14.7325L11.4741 12.4425C11.2341 12.2025 11.0941 11.8625 11.0941 11.5225V9.5625C11.0941 8.7325 10.4241 8.0625 9.59406 8.0625C8.76406 8.0625 8.09406 8.7325 8.09406 9.5625V9.7125C8.09406 9.9058 7.93736 10.0625 7.74406 10.0625V10.0625C7.01406 10.0625 6.33406 10.3825 5.86406 10.9325C5.13406 11.8025 4.10406 13.0225 4.10406 13.0625H2.82406C2.42406 13.0625 2.10406 13.3825 2.10406 13.7825V15.3225C2.10406 16.8325 3.33406 18.0625 4.84406 18.0625H6.10406V20.4825C6.10406 21.8825 6.91406 23.1025 8.09406 23.6925V27.5625C8.09406 27.8386 7.85668 28.0517 7.6145 28.1844C7.30924 28.3516 7.10406 28.6738 7.10406 29.0425V29.6425C7.10406 29.8725 7.29407 30.0625 7.52407 30.0625H8.40407H9.36407H10.7741C10.9441 30.0625 11.0841 29.9225 11.0841 29.7525V24.0625H19.6641L21.7576 26.156C21.9472 26.3457 22.0212 26.6221 21.9516 26.881L21.6912 27.85C21.6575 27.9754 21.5439 28.0625 21.4141 28.0625V28.0625C20.9341 28.0625 20.5141 28.3925 20.4041 28.8525L20.2041 29.6525C20.1541 29.8625 20.3141 30.0625 20.5341 30.0625H21.5141H22.9541H23.7541C23.9741 30.0625 24.1641 29.9225 24.2241 29.7225L25.7241 25.2225C25.9841 24.4525 26.1141 23.6525 26.1141 22.8425V17.0225C26.1041 16.5925 25.9641 16.1625 25.6941 15.8225Z" fill="url(#paint18_radial_28327_2293)"/>
<path d="M21.9029 27.062L21.9041 27.0625H23.6041C23.8841 27.0625 24.1041 26.8425 24.1041 26.5625V26.5525C24.1041 26.2725 23.8841 26.0525 23.6041 26.0525H21.6541L21.7576 26.156C21.9472 26.3457 22.0212 26.6221 21.9516 26.881L21.9029 27.062Z" fill="url(#paint19_linear_28327_2293)"/>
<path d="M14.5741 15.0625C14.2741 15.0625 13.9841 14.9425 13.7641 14.7325L13.1041 14.0625V18.0625C13.1041 18.6125 13.5541 19.0625 14.1041 19.0625C14.6541 19.0625 15.1041 18.6125 15.1041 18.0625V15.0625H14.5741Z" fill="url(#paint20_linear_28327_2293)"/>
<path d="M17.1041 15.0625V18.0625C17.1041 18.6125 17.5541 19.0625 18.1041 19.0625C18.6541 19.0625 19.1041 18.6125 19.1041 18.0625V15.0625H17.1041Z" fill="url(#paint21_linear_28327_2293)"/>
<path d="M21.1041 15.0625V18.0625C21.1041 18.6125 21.5541 19.0625 22.1041 19.0625C22.6541 19.0625 23.1041 18.6125 23.1041 18.0625V15.0625H21.1041Z" fill="url(#paint22_linear_28327_2293)"/>
<path d="M8.46407 17.5025L9.09406 16.5625C9.52406 15.9225 9.06406 15.0625 8.28406 15.0625H5.98407C5.44407 15.0625 4.95406 14.7525 4.71406 14.2725L4.10406 13.0625H2.82406C2.42406 13.0625 2.10406 13.3825 2.10406 13.7825V15.3225C2.10406 16.8325 3.33406 18.0625 4.84406 18.0625H5.60406C5.88021 18.0625 6.10406 18.2864 6.10406 18.5625V20.4825C6.10406 21.8825 6.91406 23.1025 8.09406 23.6925V18.7325C8.09406 18.2925 8.22407 17.8725 8.46407 17.5025Z" fill="url(#paint23_linear_28327_2293)"/>
<path d="M8.46407 17.5025L9.09406 16.5625C9.52406 15.9225 9.06406 15.0625 8.28406 15.0625H5.98407C5.44407 15.0625 4.95406 14.7525 4.71406 14.2725L4.10406 13.0625H2.82406C2.42406 13.0625 2.10406 13.3825 2.10406 13.7825V15.3225C2.10406 16.8325 3.33406 18.0625 4.84406 18.0625H5.60406C5.88021 18.0625 6.10406 18.2864 6.10406 18.5625V20.4825C6.10406 21.8825 6.91406 23.1025 8.09406 23.6925V18.7325C8.09406 18.2925 8.22407 17.8725 8.46407 17.5025Z" fill="url(#paint24_radial_28327_2293)"/>
<path d="M8.19799 18.0625H5.60406C5.88021 18.0625 6.10406 18.2864 6.10406 18.5625V20.4825C6.10406 21.8825 6.91406 23.1025 8.09406 23.6925V18.7325C8.09406 18.5023 8.12966 18.2775 8.19799 18.0625Z" fill="url(#paint25_linear_28327_2293)"/>
<path d="M5.60406 18.0625H4.84406C3.33406 18.0625 2.10406 16.8325 2.10406 15.3225V13.7825C2.10406 13.3825 2.42406 13.0625 2.82406 13.0625H4.10406L4.71406 14.2725C4.95406 14.7525 5.44407 15.0625 5.98407 15.0625H8.28406C8.43454 15.0625 8.5731 15.0945 8.69566 15.1508C7.74367 16.2956 6.80463 18.0625 5.60406 18.0625Z" fill="url(#paint26_linear_28327_2293)"/>
<path d="M5.60406 18.0625H4.84406C3.33406 18.0625 2.10406 16.8325 2.10406 15.3225V13.7825C2.10406 13.3825 2.42406 13.0625 2.82406 13.0625H4.10406L4.71406 14.2725C4.95406 14.7525 5.44407 15.0625 5.98407 15.0625H8.28406C8.43454 15.0625 8.5731 15.0945 8.69566 15.1508C7.74367 16.2956 6.80463 18.0625 5.60406 18.0625Z" fill="url(#paint27_linear_28327_2293)"/>
<path d="M2.82406 13.0625C2.42406 13.0625 2.10406 13.3825 2.10406 13.7825V15.0625L3.79406 13.0625H2.82406Z" fill="url(#paint28_radial_28327_2293)"/>
<path d="M17.6741 22.0625H11.0941V24.0625H19.6741C19.6741 22.9625 18.7741 22.0625 17.6741 22.0625Z" fill="url(#paint29_linear_28327_2293)"/>
<path d="M23.6041 24.0625H19.6641L20.6641 25.0625H23.6041C23.8841 25.0625 24.1041 24.8425 24.1041 24.5625C24.1041 24.2825 23.8841 24.0625 23.6041 24.0625Z" fill="url(#paint30_linear_28327_2293)"/>
<path d="M10.1041 26.5525C10.1041 26.2725 9.88406 26.0525 9.60406 26.0525H8.09406V27.0525H9.60406C9.88406 27.0525 10.1041 26.8325 10.1041 26.5525Z" fill="url(#paint31_linear_28327_2293)"/>
<path d="M10.1041 24.5625C10.1041 24.2825 9.88406 24.0625 9.60406 24.0625H8.09406V25.0625H9.60406C9.88406 25.0625 10.1041 24.8425 10.1041 24.5625Z" fill="url(#paint32_linear_28327_2293)"/>
<g filter="url(#filter0_f_28327_2293)">
<path d="M6.36188 14.0681C6.12698 14.0681 5.93219 13.8733 5.93219 13.6384V12.7791C5.93219 12.5442 6.12698 12.3494 6.36188 12.3494C6.59677 12.3494 6.79156 12.5442 6.79156 12.7791V13.6384C6.79156 13.8791 6.59677 14.0681 6.36188 14.0681Z" fill="#BC5A28"/>
</g>
<path d="M6.60406 14.0625C6.33073 14.0625 6.10406 13.8358 6.10406 13.5625V12.5625C6.10406 12.2892 6.33073 12.0625 6.60406 12.0625C6.8774 12.0625 7.10406 12.2892 7.10406 12.5625V13.5625C7.10406 13.8425 6.8774 14.0625 6.60406 14.0625Z" fill="url(#paint33_linear_28327_2293)"/>
<path d="M6.60406 14.0625C6.33073 14.0625 6.10406 13.8358 6.10406 13.5625V12.5625C6.10406 12.2892 6.33073 12.0625 6.60406 12.0625C6.8774 12.0625 7.10406 12.2892 7.10406 12.5625V13.5625C7.10406 13.8425 6.8774 14.0625 6.60406 14.0625Z" fill="url(#paint34_linear_28327_2293)"/>
<path d="M6.60406 14.0625C6.33073 14.0625 6.10406 13.8358 6.10406 13.5625V12.5625C6.10406 12.2892 6.33073 12.0625 6.60406 12.0625C6.8774 12.0625 7.10406 12.2892 7.10406 12.5625V13.5625C7.10406 13.8425 6.8774 14.0625 6.60406 14.0625Z" fill="url(#paint35_linear_28327_2293)"/>
<g filter="url(#filter1_f_28327_2293)">
<path d="M24.5923 21.3872C24.5923 21.3872 24.5923 19.0903 24.5923 17.5747C24.5923 16.5031 23.8423 16.1562 23.1041 16.1562" stroke="url(#paint36_radial_28327_2293)" stroke-width="1.5" stroke-linecap="round"/>
</g>
<g filter="url(#filter2_f_28327_2293)">
<path d="M9.76782 9.625V12.2121C9.76782 12.7427 9.97872 13.2516 10.3541 13.6268L12.8853 16.1562" stroke="url(#paint37_linear_28327_2293)" stroke-linecap="round"/>
</g>
<path d="M10.1041 10.0625V9.5625C10.1041 9.2825 9.88406 9.0625 9.60406 9.0625C9.32406 9.0625 9.10406 9.2825 9.10406 9.5625V10.0625H10.1041Z" fill="url(#paint38_radial_28327_2293)"/>
<g filter="url(#filter3_f_28327_2293)">
<path d="M13.4166 24.7188L14.6666 29.0938" stroke="url(#paint39_linear_28327_2293)" stroke-width="0.25" stroke-linecap="round"/>
</g>
<g filter="url(#filter4_f_28327_2293)">
<path d="M19.4478 25L18.2603 29.1875" stroke="url(#paint40_linear_28327_2293)" stroke-width="0.5" stroke-linecap="round"/>
</g>
<g filter="url(#filter5_f_28327_2293)">
<path d="M10.4528 23.125V28.7188" stroke="url(#paint41_linear_28327_2293)" stroke-width="0.25" stroke-linecap="round"/>
</g>
<g filter="url(#filter6_f_28327_2293)">
<path d="M26.6041 16.1875C26.8645 16.2812 27.3853 16.7938 27.3853 18.0938C27.3853 19.3937 27.3853 22.8021 27.3853 24.3438C27.4166 24.9167 27.8478 26.0625 29.3228 26.0625" stroke="url(#paint42_linear_28327_2293)" stroke-width="0.25" stroke-linecap="round"/>
</g>
<path d="M9.42405 15.0325C9.22405 14.8325 9.22405 14.5225 9.42405 14.3225L9.87405 13.8725C10.074 13.6725 10.384 13.6725 10.584 13.8725C10.784 14.0725 10.784 14.3825 10.584 14.5825L10.124 15.0325C9.93405 15.2225 9.61405 15.2225 9.42405 15.0325Z" fill="url(#paint43_linear_28327_2293)"/>
<path d="M9.42405 15.0325C9.22405 14.8325 9.22405 14.5225 9.42405 14.3225L9.87405 13.8725C10.074 13.6725 10.384 13.6725 10.584 13.8725C10.784 14.0725 10.784 14.3825 10.584 14.5825L10.124 15.0325C9.93405 15.2225 9.61405 15.2225 9.42405 15.0325Z" fill="url(#paint44_linear_28327_2293)"/>
<path d="M7.75406 14.2125C7.55406 14.0125 7.55406 13.7025 7.75406 13.5025L9.04406 12.2125C9.24406 12.0125 9.55407 12.0125 9.75407 12.2125C9.95407 12.4125 9.95407 12.7225 9.75407 12.9225L8.45406 14.2125C8.26406 14.4025 7.94406 14.4025 7.75406 14.2125Z" fill="url(#paint45_linear_28327_2293)"/>
<defs>
<filter id="filter0_f_28327_2293" x="5.33219" y="11.7494" width="2.05938" height="2.91875" filterUnits="userSpaceOnUse" color-interpolation-filters="sRGB">
<feFlood flood-opacity="0" result="BackgroundImageFix"/>
<feBlend mode="normal" in="SourceGraphic" in2="BackgroundImageFix" result="shape"/>
<feGaussianBlur stdDeviation="0.3" result="effect1_foregroundBlur_28327_2293"/>
</filter>
<filter id="filter1_f_28327_2293" x="21.3541" y="14.4062" width="4.98828" height="8.73096" filterUnits="userSpaceOnUse" color-interpolation-filters="sRGB">
<feFlood flood-opacity="0" result="BackgroundImageFix"/>
<feBlend mode="normal" in="SourceGraphic" in2="BackgroundImageFix" result="shape"/>
<feGaussianBlur stdDeviation="0.5" result="effect1_foregroundBlur_28327_2293"/>
</filter>
<filter id="filter2_f_28327_2293" x="7.76782" y="7.625" width="7.11749" height="10.5312" filterUnits="userSpaceOnUse" color-interpolation-filters="sRGB">
<feFlood flood-opacity="0" result="BackgroundImageFix"/>
<feBlend mode="normal" in="SourceGraphic" in2="BackgroundImageFix" result="shape"/>
<feGaussianBlur stdDeviation="0.75" result="effect1_foregroundBlur_28327_2293"/>
</filter>
<filter id="filter3_f_28327_2293" x="12.7915" y="24.0938" width="2.50012" height="5.625" filterUnits="userSpaceOnUse" color-interpolation-filters="sRGB">
<feFlood flood-opacity="0" result="BackgroundImageFix"/>
<feBlend mode="normal" in="SourceGraphic" in2="BackgroundImageFix" result="shape"/>
<feGaussianBlur stdDeviation="0.25" result="effect1_foregroundBlur_28327_2293"/>
</filter>
<filter id="filter4_f_28327_2293" x="17.0103" y="23.7499" width="3.68762" height="6.68774" filterUnits="userSpaceOnUse" color-interpolation-filters="sRGB">
<feFlood flood-opacity="0" result="BackgroundImageFix"/>
<feBlend mode="normal" in="SourceGraphic" in2="BackgroundImageFix" result="shape"/>
<feGaussianBlur stdDeviation="0.5" result="effect1_foregroundBlur_28327_2293"/>
</filter>
<filter id="filter5_f_28327_2293" x="9.82776" y="22.5" width="1.25" height="6.84375" filterUnits="userSpaceOnUse" color-interpolation-filters="sRGB">
<feFlood flood-opacity="0" result="BackgroundImageFix"/>
<feBlend mode="normal" in="SourceGraphic" in2="BackgroundImageFix" result="shape"/>
<feGaussianBlur stdDeviation="0.25" result="effect1_foregroundBlur_28327_2293"/>
</filter>
<filter id="filter6_f_28327_2293" x="25.879" y="15.4625" width="4.16881" height="11.325" filterUnits="userSpaceOnUse" color-interpolation-filters="sRGB">
<feFlood flood-opacity="0" result="BackgroundImageFix"/>
<feBlend mode="normal" in="SourceGraphic" in2="BackgroundImageFix" result="shape"/>
<feGaussianBlur stdDeviation="0.3" result="effect1_foregroundBlur_28327_2293"/>
</filter>
<linearGradient id="paint0_linear_28327_2293" x1="28.2291" y1="26.375" x2="28.2291" y2="14.25" gradientUnits="userSpaceOnUse">
<stop stop-color="#FC2F01"/>
<stop offset="1" stop-color="#FF8718"/>
</linearGradient>
<linearGradient id="paint1_linear_28327_2293" x1="24.9791" y1="19.4375" x2="26.6941" y2="19.125" gradientUnits="userSpaceOnUse">
<stop offset="0.203125" stop-color="#D03614"/>
<stop offset="0.822217" stop-color="#D03614" stop-opacity="0"/>
</linearGradient>
<linearGradient id="paint2_linear_28327_2293" x1="29.1666" y1="24.8626" x2="29.1666" y2="27.1886" gradientUnits="userSpaceOnUse">
<stop stop-color="#513468"/>
<stop offset="1" stop-color="#1C1C1C"/>
</linearGradient>
<linearGradient id="paint3_linear_28327_2293" x1="28.3853" y1="21.3145" x2="25.6822" y2="21.3145" gradientUnits="userSpaceOnUse">
<stop offset="0.00558659" stop-color="#513468"/>
<stop offset="1" stop-color="#1C1C1C"/>
</linearGradient>
<linearGradient id="paint4_linear_28327_2293" x1="28.5416" y1="17.3145" x2="25.1041" y2="17.3145" gradientUnits="userSpaceOnUse">
<stop offset="0.00558659" stop-color="#513468"/>
<stop offset="1" stop-color="#1C1C1C"/>
</linearGradient>
<linearGradient id="paint5_linear_28327_2293" x1="19.8541" y1="23.5" x2="18.7633" y2="31.125" gradientUnits="userSpaceOnUse">
<stop stop-color="#E42B2E"/>
<stop offset="0.753843" stop-color="#FC563C"/>
</linearGradient>
<linearGradient id="paint6_linear_28327_2293" x1="18.762" y1="30.1369" x2="18.762" y2="29.3438" gradientUnits="userSpaceOnUse">
<stop stop-color="#D03A56"/>
<stop offset="1" stop-color="#D03A56" stop-opacity="0"/>
</linearGradient>
<linearGradient id="paint7_linear_28327_2293" x1="20.2916" y1="24.125" x2="18.762" y2="29.3438" gradientUnits="userSpaceOnUse">
<stop stop-color="#BB1715"/>
<stop offset="1" stop-color="#D03A56" stop-opacity="0"/>
<stop offset="1" stop-color="#BB1715" stop-opacity="0"/>
</linearGradient>
<linearGradient id="paint8_linear_28327_2293" x1="20.3228" y1="27.9688" x2="18.9478" y2="27.8125" gradientUnits="userSpaceOnUse">
<stop stop-color="#BB1715"/>
<stop offset="0.720354" stop-color="#D03A56" stop-opacity="0"/>
<stop offset="1" stop-color="#BB1715" stop-opacity="0"/>
</linearGradient>
<linearGradient id="paint9_linear_28327_2293" x1="13.0557" y1="23.0625" x2="13.0569" y2="31.125" gradientUnits="userSpaceOnUse">
<stop stop-color="#E42B2E"/>
<stop offset="0.753843" stop-color="#FC563C"/>
</linearGradient>
<linearGradient id="paint10_linear_28327_2293" x1="13.0557" y1="30.1369" x2="13.0557" y2="29.4844" gradientUnits="userSpaceOnUse">
<stop stop-color="#D03A56"/>
<stop offset="1" stop-color="#D03A56" stop-opacity="0"/>
</linearGradient>
<linearGradient id="paint11_linear_28327_2293" x1="11.6978" y1="24.2188" x2="12.6395" y2="28.0295" gradientUnits="userSpaceOnUse">
<stop stop-color="#BB1715"/>
<stop offset="1" stop-color="#D03A56" stop-opacity="0"/>
<stop offset="1" stop-color="#BB1715" stop-opacity="0"/>
</linearGradient>
<linearGradient id="paint12_linear_28327_2293" x1="15.2916" y1="27" x2="14.0849" y2="27.2972" gradientUnits="userSpaceOnUse">
<stop stop-color="#BB1715"/>
<stop offset="1" stop-color="#D03A56" stop-opacity="0"/>
<stop offset="1" stop-color="#BB1715" stop-opacity="0"/>
</linearGradient>
<linearGradient id="paint13_linear_28327_2293" x1="11.2759" y1="24.0781" x2="11.9109" y2="24.6503" gradientUnits="userSpaceOnUse">
<stop stop-color="#8D1514"/>
<stop offset="1" stop-color="#D03A56" stop-opacity="0"/>
<stop offset="1" stop-color="#BB1715" stop-opacity="0"/>
</linearGradient>
<linearGradient id="paint14_linear_28327_2293" x1="12.3541" y1="9.625" x2="12.3541" y2="30.0625" gradientUnits="userSpaceOnUse">
<stop stop-color="#FF9B50"/>
<stop offset="0.666667" stop-color="#F65936"/>
<stop offset="1" stop-color="#F25038"/>
</linearGradient>
<radialGradient id="paint15_radial_28327_2293" cx="0" cy="0" r="1" gradientUnits="userSpaceOnUse" gradientTransform="translate(18.9791 23.5625) rotate(101.889) scale(3.64059 7.69806)">
<stop stop-color="#FC2F01"/>
<stop offset="1" stop-color="#FC2F01" stop-opacity="0"/>
</radialGradient>
<linearGradient id="paint16_linear_28327_2293" x1="14.1091" y1="30.2813" x2="14.1091" y2="28.875" gradientUnits="userSpaceOnUse">
<stop stop-color="#D03A56"/>
<stop offset="1" stop-color="#D03A56" stop-opacity="0"/>
</linearGradient>
<radialGradient id="paint17_radial_28327_2293" cx="0" cy="0" r="1" gradientUnits="userSpaceOnUse" gradientTransform="translate(7.36969 27.1719) rotate(22.3532) scale(1.80771 2.6857)">
<stop stop-color="#FF9288"/>
<stop offset="0.831244" stop-color="#FF9288" stop-opacity="0"/>
</radialGradient>
<radialGradient id="paint18_radial_28327_2293" cx="0" cy="0" r="1" gradientUnits="userSpaceOnUse" gradientTransform="translate(26.1141 15.0938) rotate(127.178) scale(4.98107 5.77109)">
<stop stop-color="#FFAC62"/>
<stop offset="0.532593" stop-color="#FFAC62" stop-opacity="0"/>
</radialGradient>
<linearGradient id="paint19_linear_28327_2293" x1="21.9322" y1="26.557" x2="24.1041" y2="26.557" gradientUnits="userSpaceOnUse">
<stop stop-color="#3E2B4D"/>
<stop offset="0.46875" stop-color="#48355B"/>
<stop offset="1" stop-color="#5B4E6B"/>
</linearGradient>
<linearGradient id="paint20_linear_28327_2293" x1="14.1041" y1="14.6958" x2="14.1041" y2="20.5625" gradientUnits="userSpaceOnUse">
<stop offset="0.00558659" stop-color="#57426A"/>
<stop offset="1" stop-color="#4E4757"/>
</linearGradient>
<linearGradient id="paint21_linear_28327_2293" x1="18.1041" y1="15.5691" x2="18.1041" y2="19.8438" gradientUnits="userSpaceOnUse">
<stop offset="0.00558659" stop-color="#57426A"/>
<stop offset="1" stop-color="#4E4757"/>
</linearGradient>
<linearGradient id="paint22_linear_28327_2293" x1="22.1041" y1="15.5691" x2="22.1041" y2="19.9375" gradientUnits="userSpaceOnUse">
<stop offset="0.00558659" stop-color="#57426A"/>
<stop offset="1" stop-color="#4E4757"/>
</linearGradient>
<linearGradient id="paint23_linear_28327_2293" x1="6.91656" y1="14.5625" x2="2.66656" y2="19" gradientUnits="userSpaceOnUse">
<stop stop-color="#FFD7B0"/>
<stop offset="0.49075" stop-color="#F9CCA9"/>
<stop offset="1" stop-color="#E6ABA2"/>
</linearGradient>
<radialGradient id="paint24_radial_28327_2293" cx="0" cy="0" r="1" gradientUnits="userSpaceOnUse" gradientTransform="translate(9.25902 15.3437) rotate(142.336) scale(2.76173 4.23882)">
<stop stop-color="#FFE5BF"/>
<stop offset="0.857143" stop-color="#FFE5BF" stop-opacity="0"/>
</radialGradient>
<linearGradient id="paint25_linear_28327_2293" x1="5.54873" y1="21.4335" x2="7.16656" y2="21.4335" gradientUnits="userSpaceOnUse">
<stop stop-color="#FFE5BF"/>
<stop offset="0.857143" stop-color="#FFE5BF" stop-opacity="0"/>
</linearGradient>
<linearGradient id="paint26_linear_28327_2293" x1="5.15094" y1="16.8906" x2="4.83844" y2="18.3338" gradientUnits="userSpaceOnUse">
<stop stop-color="#D37F97" stop-opacity="0"/>
<stop offset="0.64253" stop-color="#D37F97" stop-opacity="0.4"/>
<stop offset="1" stop-color="#D37F97"/>
</linearGradient>
<linearGradient id="paint27_linear_28327_2293" x1="1.96344" y1="16.2188" x2="3.04156" y2="16.2188" gradientUnits="userSpaceOnUse">
<stop stop-color="#FFE5BF"/>
<stop offset="0.857143" stop-color="#FFE5BF" stop-opacity="0"/>
</linearGradient>
<radialGradient id="paint28_radial_28327_2293" cx="0" cy="0" r="1" gradientUnits="userSpaceOnUse" gradientTransform="translate(3.18219 13.4844) rotate(-133.668) scale(0.475216 0.916307)">
<stop stop-color="#67545F"/>
<stop offset="1" stop-color="#3B2439"/>
</radialGradient>
<linearGradient id="paint29_linear_28327_2293" x1="15.3841" y1="22.0625" x2="15.3841" y2="24.4688" gradientUnits="userSpaceOnUse">
<stop stop-color="#F5BDAE"/>
<stop offset="1" stop-color="#D37F97"/>
</linearGradient>
<linearGradient id="paint30_linear_28327_2293" x1="20.1681" y1="24.562" x2="24.1041" y2="24.562" gradientUnits="userSpaceOnUse">
<stop stop-color="#3E2B4D"/>
<stop offset="0.650658" stop-color="#48355B"/>
<stop offset="1" stop-color="#5B4E6B"/>
</linearGradient>
<linearGradient id="paint31_linear_28327_2293" x1="8.32223" y1="26.552" x2="10.7291" y2="26.552" gradientUnits="userSpaceOnUse">
<stop stop-color="#3E2B4D"/>
<stop offset="0.46875" stop-color="#48355B"/>
<stop offset="1" stop-color="#5B4E6B"/>
</linearGradient>
<linearGradient id="paint32_linear_28327_2293" x1="8.32223" y1="24.562" x2="10.5259" y2="24.562" gradientUnits="userSpaceOnUse">
<stop stop-color="#3E2B4D"/>
<stop offset="0.46875" stop-color="#48355B"/>
<stop offset="1" stop-color="#5B4E6B"/>
</linearGradient>
<linearGradient id="paint33_linear_28327_2293" x1="7.04586" y1="13.0625" x2="6.4956" y2="13.0625" gradientUnits="userSpaceOnUse">
<stop offset="0.225" stop-color="#594C4F"/>
<stop offset="1" stop-color="#392833"/>
</linearGradient>
<linearGradient id="paint34_linear_28327_2293" x1="7.26032" y1="14.4124" x2="7.26032" y2="13.3523" gradientUnits="userSpaceOnUse">
<stop stop-color="#552D52"/>
<stop offset="1" stop-color="#552D52" stop-opacity="0"/>
</linearGradient>
<linearGradient id="paint35_linear_28327_2293" x1="5.71344" y1="13.6094" x2="6.49469" y2="13.6094" gradientUnits="userSpaceOnUse">
<stop stop-color="#594C4F"/>
<stop offset="0.84" stop-color="#594C4F" stop-opacity="0"/>
</linearGradient>
<radialGradient id="paint36_radial_28327_2293" cx="0" cy="0" r="1" gradientUnits="userSpaceOnUse" gradientTransform="translate(24.9664 17.1655) rotate(90) scale(5.29224 1.8623)">
<stop stop-color="#FFAC62"/>
<stop offset="1" stop-color="#FF9D61" stop-opacity="0"/>
</radialGradient>
<linearGradient id="paint37_linear_28327_2293" x1="13.8929" y1="5.9375" x2="17.8541" y2="19.5" gradientUnits="userSpaceOnUse">
<stop stop-color="#FFE092"/>
<stop offset="1" stop-color="#FFE092" stop-opacity="0"/>
</linearGradient>
<radialGradient id="paint38_radial_28327_2293" cx="0" cy="0" r="1" gradientUnits="userSpaceOnUse" gradientTransform="translate(9.33844 9.90625) rotate(-47.7792) scale(1.13934 0.86375)">
<stop stop-color="#FF8945"/>
<stop offset="0.87135" stop-color="#F32312"/>
</radialGradient>
<linearGradient id="paint39_linear_28327_2293" x1="14.8228" y1="28.6094" x2="13.4166" y2="23.5625" gradientUnits="userSpaceOnUse">
<stop stop-color="#FF8C82"/>
<stop offset="1" stop-color="#FF8C82" stop-opacity="0"/>
</linearGradient>
<linearGradient id="paint40_linear_28327_2293" x1="18.9183" y1="28.6094" x2="17.512" y2="23.5625" gradientUnits="userSpaceOnUse">
<stop stop-color="#FF8C82"/>
<stop offset="1" stop-color="#FF8C82" stop-opacity="0"/>
</linearGradient>
<linearGradient id="paint41_linear_28327_2293" x1="10.4528" y1="28.6563" x2="10.4528" y2="23.5625" gradientUnits="userSpaceOnUse">
<stop stop-color="#FF9288"/>
<stop offset="1" stop-color="#FF8C82" stop-opacity="0"/>
</linearGradient>
<linearGradient id="paint42_linear_28327_2293" x1="25.1041" y1="19.125" x2="34.9737" y2="28.6233" gradientUnits="userSpaceOnUse">
<stop stop-color="#FFC893"/>
<stop offset="1" stop-color="#FFEDDB" stop-opacity="0"/>
</linearGradient>
<linearGradient id="paint43_linear_28327_2293" x1="10.45" y1="14.0148" x2="9.38495" y2="15.0799" gradientUnits="userSpaceOnUse">
<stop offset="0.00558659" stop-color="#513468"/>
<stop offset="1" stop-color="#1C1C1C"/>
</linearGradient>
<linearGradient id="paint44_linear_28327_2293" x1="10.9205" y1="13.7225" x2="9.61363" y2="14.9724" gradientUnits="userSpaceOnUse">
<stop offset="0.00558659" stop-color="#735E88"/>
<stop offset="1" stop-color="#614979"/>
</linearGradient>
<linearGradient id="paint45_linear_28327_2293" x1="10.7916" y1="11.4375" x2="8.75406" y2="13.8125" gradientUnits="userSpaceOnUse">
<stop offset="0.00558659" stop-color="#735E88"/>
<stop offset="1" stop-color="#614979"/>
</linearGradient>
</defs>
</svg>
