<svg xmlns="http://www.w3.org/2000/svg" width="32" height="32" fill="none"><path fill="#F8312F" d="M9.815 24.34a11.867 11.867 0 0 1-4.68 2.13c-1.43.3-1.54 2.3-.15 2.76 4.75 1.56 10.16.85 14.46-2.38 4.44-3.33 6.64-8.54 6.31-13.7-.28-4.45-5.39-6.82-8.96-4.14a5.574 5.574 0 0 0-2.23 4.86c.29 3.93-1.37 7.93-4.75 10.47Z"/><path fill="#00D26A" d="M20.965 3a1 1 0 1 0-2 0v2.03h-1.61c-2.77 0-5.01 2.24-5.01 5 0 1.07.46 2.1 1.26 2.82l.01.01c.72.65 1.82.65 2.54 0s1.82-.65 2.54 0 1.82.65 2.54 0 1.82-.65 2.54 0 1.82.65 2.54 0l.01-.01a3.79 3.79 0 0 0 1.26-2.82c0-2.76-2.24-5-5-5h-1.62V3Z"/></svg>