<svg width="32" height="32" viewBox="0 0 32 32" fill="none" xmlns="http://www.w3.org/2000/svg">
<rect x="14.7129" y="7.69287" width="1.74374" height="2" transform="rotate(39.1592 14.7129 7.69287)" fill="url(#paint0_radial_3987_23068)"/>
<path d="M18.2319 8.04907C18.1507 7.9022 18.1655 7.63761 18.1851 7.54517L17.7397 8.5647C17.8804 8.63892 18.1179 8.70394 18.2554 8.53345C18.353 8.41235 18.3335 8.23267 18.2319 8.04907Z" fill="url(#paint1_radial_3987_23068)"/>
<g filter="url(#filter0_i_3987_23068)">
<path d="M15.9314 9.654C15.0169 9.20088 14.3955 8.41963 14.2202 8.03681L14.8833 6.44411C15.0589 6.02244 15.4596 5.7364 15.9172 5.70613L17.5734 5.59657C17.7024 5.58804 17.8364 5.59357 17.9454 5.66269C18.2332 5.84524 18.5211 6.30719 18.3136 7.13838C18.0855 8.21909 17.813 8.88205 17.5651 9.36482C17.3882 9.70929 17.0322 9.93684 16.6493 9.87053C16.4399 9.83427 16.1946 9.76862 15.9314 9.654Z" fill="url(#paint2_radial_3987_23068)"/>
<path d="M15.9314 9.654C15.0169 9.20088 14.3955 8.41963 14.2202 8.03681L14.8833 6.44411C15.0589 6.02244 15.4596 5.7364 15.9172 5.70613L17.5734 5.59657C17.7024 5.58804 17.8364 5.59357 17.9454 5.66269C18.2332 5.84524 18.5211 6.30719 18.3136 7.13838C18.0855 8.21909 17.813 8.88205 17.5651 9.36482C17.3882 9.70929 17.0322 9.93684 16.6493 9.87053C16.4399 9.83427 16.1946 9.76862 15.9314 9.654Z" fill="url(#paint3_radial_3987_23068)"/>
<path d="M15.9314 9.654C15.0169 9.20088 14.3955 8.41963 14.2202 8.03681L14.8833 6.44411C15.0589 6.02244 15.4596 5.7364 15.9172 5.70613L17.5734 5.59657C17.7024 5.58804 17.8364 5.59357 17.9454 5.66269C18.2332 5.84524 18.5211 6.30719 18.3136 7.13838C18.0855 8.21909 17.813 8.88205 17.5651 9.36482C17.3882 9.70929 17.0322 9.93684 16.6493 9.87053C16.4399 9.83427 16.1946 9.76862 15.9314 9.654Z" fill="url(#paint4_radial_3987_23068)"/>
</g>
<path fill-rule="evenodd" clip-rule="evenodd" d="M16.9795 8.45808C17.0298 8.43523 17.0891 8.45746 17.112 8.50774C17.1441 8.57846 17.2617 8.75109 17.4509 8.83221C17.5017 8.85396 17.5252 8.91275 17.5035 8.96351C17.4817 9.01428 17.4229 9.03779 17.3722 9.01604C17.1239 8.90965 16.9759 8.69166 16.9299 8.5905C16.907 8.54022 16.9293 8.48094 16.9795 8.45808Z" fill="#86004C"/>
<g filter="url(#filter1_i_3987_23068)">
<path fill-rule="evenodd" clip-rule="evenodd" d="M17.866 6.9369C17.6714 6.84773 17.4557 6.8822 17.3779 6.90921C17.3258 6.92733 17.2688 6.89972 17.2507 6.84755C17.2326 6.79537 17.2602 6.73839 17.3123 6.72028C17.422 6.68219 17.6939 6.63801 17.9493 6.75509C17.9995 6.7781 18.0216 6.83745 17.9986 6.88766C17.9755 6.93787 17.9162 6.95991 17.866 6.9369Z" fill="#453A3A"/>
</g>
<g filter="url(#filter2_i_3987_23068)">
<path d="M11.168 10.5608C10.1617 11.792 9.75391 13.2287 9.57422 13.8342L13.5664 15.0842C13.6914 14.0608 14.3164 12.3655 14.7383 11.7092C15.1602 11.053 15.2266 10.8381 15.293 10.3616C15.3594 9.88499 15.0374 9.16709 13.957 8.96702C13.1133 8.81077 12.103 9.41669 11.168 10.5608Z" fill="#7355BD"/>
<path d="M11.168 10.5608C10.1617 11.792 9.75391 13.2287 9.57422 13.8342L13.5664 15.0842C13.6914 14.0608 14.3164 12.3655 14.7383 11.7092C15.1602 11.053 15.2266 10.8381 15.293 10.3616C15.3594 9.88499 15.0374 9.16709 13.957 8.96702C13.1133 8.81077 12.103 9.41669 11.168 10.5608Z" fill="url(#paint5_radial_3987_23068)"/>
</g>
<path d="M9.59761 13.717C9.35538 14.6116 9.3945 15.4788 9.48823 15.7405L15.7969 15.678L9.59761 13.717Z" fill="url(#paint6_radial_3987_23068)"/>
<path d="M5.23242 16.9729L26.957 16.9514V23.2014L8.94922 23.0842L5.23242 16.9729Z" fill="url(#paint7_linear_3987_23068)"/>
<path d="M5.23242 16.9729L26.957 16.9514V23.2014L8.94922 23.0842L5.23242 16.9729Z" fill="url(#paint8_linear_3987_23068)"/>
<path d="M5.23242 16.9729L26.957 16.9514V23.2014L8.94922 23.0842L5.23242 16.9729Z" fill="url(#paint9_radial_3987_23068)"/>
<path d="M5.23242 16.9729L26.957 16.9514V23.2014L8.94922 23.0842L5.23242 16.9729Z" fill="url(#paint10_radial_3987_23068)"/>
<g filter="url(#filter3_i_3987_23068)">
<path d="M3.50391 20.9358C2.72891 20.5108 2.25 20.5139 2.05859 20.5139V26.4514H29.9414V20.5139C28.3789 20.5139 27.7266 21.6702 26.4102 21.6702C25.0938 21.6702 24.2227 20.5139 22.8633 20.5139C21.7461 20.5139 20.6211 21.6702 19.3555 21.6702C18.3828 21.6702 17.1523 20.5139 15.9648 20.5139C14.707 20.5139 13.7031 21.6702 12.5664 21.6702C12.0078 21.6702 11.7305 21.5686 11.0273 21.2327C10.3242 20.8967 9.70312 20.5295 9.04688 20.5295C8.39324 20.5295 7.73573 20.8628 7.16699 21.1511L7.16016 21.1545C6.58984 21.4436 6.12891 21.6702 5.50391 21.6702C4.87891 21.6702 4.47266 21.467 3.50391 20.9358Z" fill="url(#paint11_radial_3987_23068)"/>
<path d="M3.50391 20.9358C2.72891 20.5108 2.25 20.5139 2.05859 20.5139V26.4514H29.9414V20.5139C28.3789 20.5139 27.7266 21.6702 26.4102 21.6702C25.0938 21.6702 24.2227 20.5139 22.8633 20.5139C21.7461 20.5139 20.6211 21.6702 19.3555 21.6702C18.3828 21.6702 17.1523 20.5139 15.9648 20.5139C14.707 20.5139 13.7031 21.6702 12.5664 21.6702C12.0078 21.6702 11.7305 21.5686 11.0273 21.2327C10.3242 20.8967 9.70312 20.5295 9.04688 20.5295C8.39324 20.5295 7.73573 20.8628 7.16699 21.1511L7.16016 21.1545C6.58984 21.4436 6.12891 21.6702 5.50391 21.6702C4.87891 21.6702 4.47266 21.467 3.50391 20.9358Z" fill="url(#paint12_radial_3987_23068)"/>
<path d="M3.50391 20.9358C2.72891 20.5108 2.25 20.5139 2.05859 20.5139V26.4514H29.9414V20.5139C28.3789 20.5139 27.7266 21.6702 26.4102 21.6702C25.0938 21.6702 24.2227 20.5139 22.8633 20.5139C21.7461 20.5139 20.6211 21.6702 19.3555 21.6702C18.3828 21.6702 17.1523 20.5139 15.9648 20.5139C14.707 20.5139 13.7031 21.6702 12.5664 21.6702C12.0078 21.6702 11.7305 21.5686 11.0273 21.2327C10.3242 20.8967 9.70312 20.5295 9.04688 20.5295C8.39324 20.5295 7.73573 20.8628 7.16699 21.1511L7.16016 21.1545C6.58984 21.4436 6.12891 21.6702 5.50391 21.6702C4.87891 21.6702 4.47266 21.467 3.50391 20.9358Z" fill="url(#paint13_radial_3987_23068)"/>
</g>
<g filter="url(#filter4_i_3987_23068)">
<rect x="4.08569" y="15.5146" width="23.859" height="2.19068" rx="1.09534" fill="url(#paint14_linear_3987_23068)"/>
<rect x="4.08569" y="15.5146" width="23.859" height="2.19068" rx="1.09534" fill="url(#paint15_radial_3987_23068)"/>
<rect x="4.08569" y="15.5146" width="23.859" height="2.19068" rx="1.09534" fill="url(#paint16_radial_3987_23068)"/>
<rect x="4.08569" y="15.5146" width="23.859" height="2.19068" rx="1.09534" fill="url(#paint17_radial_3987_23068)"/>
</g>
<rect x="19.5227" y="13.0509" width="1.28028" height="0.636719" rx="0.318359" transform="rotate(-21.7872 19.5227 13.0509)" fill="url(#paint18_radial_3987_23068)"/>
<path d="M21.3341 12.2661C21.5659 12.0373 21.9393 12.0397 22.1682 12.2715C22.397 12.5033 22.3946 12.8767 22.1628 13.1055L13.7241 21.437C13.4923 21.6659 13.1189 21.6635 12.8901 21.4317C12.6612 21.1999 12.6636 20.8265 12.8954 20.5977L21.3341 12.2661Z" fill="url(#paint19_radial_3987_23068)"/>
<path d="M21.3341 12.2661C21.5659 12.0373 21.9393 12.0397 22.1682 12.2715C22.397 12.5033 22.3946 12.8767 22.1628 13.1055L13.7241 21.437C13.4923 21.6659 13.1189 21.6635 12.8901 21.4317C12.6612 21.1999 12.6636 20.8265 12.8954 20.5977L21.3341 12.2661Z" fill="url(#paint20_linear_3987_23068)"/>
<path d="M21.3341 12.2661C21.5659 12.0373 21.9393 12.0397 22.1682 12.2715C22.397 12.5033 22.3946 12.8767 22.1628 13.1055L13.7241 21.437C13.4923 21.6659 13.1189 21.6635 12.8901 21.4317C12.6612 21.1999 12.6636 20.8265 12.8954 20.5977L21.3341 12.2661Z" fill="url(#paint21_linear_3987_23068)"/>
<g filter="url(#filter5_i_3987_23068)">
<path d="M11.3663 20.3147C12.1149 19.5659 13.3287 19.5656 14.0775 20.3142C14.8264 21.0627 14.8266 22.2766 14.0781 23.0254L11.6102 25.4943C10.8616 26.2432 9.64778 26.2434 8.89895 25.4949C8.15011 24.7463 8.14986 23.5325 8.8984 22.7836L11.3663 20.3147Z" fill="url(#paint22_radial_3987_23068)"/>
</g>
<g filter="url(#filter6_i_3987_23068)">
<path d="M3.50391 24.4358C2.72891 24.0108 2.25 24.0139 2.05859 24.0139V29.9514H29.9414V24.0139C28.3789 24.0139 27.7266 25.1702 26.4102 25.1702C25.0938 25.1702 24.2227 24.0139 22.8633 24.0139C21.7461 24.0139 20.6211 25.1702 19.3555 25.1702C18.3828 25.1702 17.1523 24.0139 15.9648 24.0139C14.707 24.0139 13.7031 25.1702 12.5664 25.1702C12.0078 25.1702 11.7305 25.0686 11.0273 24.7327C10.3242 24.3967 9.70312 24.0295 9.04688 24.0295C8.39324 24.0295 7.73573 24.3628 7.16699 24.6511L7.16016 24.6545C6.58984 24.9436 6.12891 25.1702 5.50391 25.1702C4.87891 25.1702 4.47266 24.967 3.50391 24.4358Z" fill="url(#paint23_linear_3987_23068)"/>
<path d="M3.50391 24.4358C2.72891 24.0108 2.25 24.0139 2.05859 24.0139V29.9514H29.9414V24.0139C28.3789 24.0139 27.7266 25.1702 26.4102 25.1702C25.0938 25.1702 24.2227 24.0139 22.8633 24.0139C21.7461 24.0139 20.6211 25.1702 19.3555 25.1702C18.3828 25.1702 17.1523 24.0139 15.9648 24.0139C14.707 24.0139 13.7031 25.1702 12.5664 25.1702C12.0078 25.1702 11.7305 25.0686 11.0273 24.7327C10.3242 24.3967 9.70312 24.0295 9.04688 24.0295C8.39324 24.0295 7.73573 24.3628 7.16699 24.6511L7.16016 24.6545C6.58984 24.9436 6.12891 25.1702 5.50391 25.1702C4.87891 25.1702 4.47266 24.967 3.50391 24.4358Z" fill="url(#paint24_radial_3987_23068)"/>
<path d="M3.50391 24.4358C2.72891 24.0108 2.25 24.0139 2.05859 24.0139V29.9514H29.9414V24.0139C28.3789 24.0139 27.7266 25.1702 26.4102 25.1702C25.0938 25.1702 24.2227 24.0139 22.8633 24.0139C21.7461 24.0139 20.6211 25.1702 19.3555 25.1702C18.3828 25.1702 17.1523 24.0139 15.9648 24.0139C14.707 24.0139 13.7031 25.1702 12.5664 25.1702C12.0078 25.1702 11.7305 25.0686 11.0273 24.7327C10.3242 24.3967 9.70312 24.0295 9.04688 24.0295C8.39324 24.0295 7.73573 24.3628 7.16699 24.6511L7.16016 24.6545C6.58984 24.9436 6.12891 25.1702 5.50391 25.1702C4.87891 25.1702 4.47266 24.967 3.50391 24.4358Z" fill="url(#paint25_linear_3987_23068)"/>
</g>
<g filter="url(#filter7_i_3987_23068)">
<path d="M16.5039 13.7717C15.7914 13.4405 15.0612 12.8056 14.7852 12.5295L16.0664 11.3381C17.2227 12.4475 18.4413 12.6164 18.75 12.6897C19.1445 12.7834 20.2877 12.9905 20.918 13.4202C21.4336 13.7717 21.2969 14.4124 20.9883 14.6858C20.7344 14.9107 20.3125 15.0217 19.9766 14.8889C19.6406 14.7561 19.418 14.6194 18.75 14.4905C18.2466 14.3933 17.3945 14.1858 16.5039 13.7717Z" fill="#886657"/>
<path d="M16.5039 13.7717C15.7914 13.4405 15.0612 12.8056 14.7852 12.5295L16.0664 11.3381C17.2227 12.4475 18.4413 12.6164 18.75 12.6897C19.1445 12.7834 20.2877 12.9905 20.918 13.4202C21.4336 13.7717 21.2969 14.4124 20.9883 14.6858C20.7344 14.9107 20.3125 15.0217 19.9766 14.8889C19.6406 14.7561 19.418 14.6194 18.75 14.4905C18.2466 14.3933 17.3945 14.1858 16.5039 13.7717Z" fill="url(#paint26_radial_3987_23068)"/>
</g>
<g filter="url(#filter8_f_3987_23068)">
<path d="M15.4294 11.7124C15.7211 12.0614 16.3188 12.583 17.2341 12.8765C18.6716 13.3374 18.9685 13.3921 19.5935 13.603" stroke="url(#paint27_linear_3987_23068)" stroke-width="0.4"/>
</g>
<g filter="url(#filter9_i_3987_23068)">
<path d="M13.0039 11.0608C13.6039 11.7796 14.3372 12.6155 14.6289 12.9436L16.2851 11.4593C15.9544 11.0634 15.1679 10.1561 14.6679 9.69365C14.0429 9.11552 13.3984 9.50224 13.1992 9.69365C13.0267 9.85932 12.5273 10.3811 13.0039 11.0608Z" fill="url(#paint28_radial_3987_23068)"/>
</g>
<path d="M16.9139 7.46804L17.0298 7.5303L17.6001 7.24124C17.3208 7.08126 17.0569 7.11421 16.8777 7.26631C16.8101 7.32369 16.8358 7.42607 16.9139 7.46804Z" fill="url(#paint29_radial_3987_23068)"/>
<path d="M17.6453 7.77022C17.6926 7.7829 17.7436 7.7438 17.7689 7.68725C17.7689 7.68725 17.7689 7.68725 17.7716 7.6774C17.8376 7.4312 17.6759 7.2401 17.4773 7.18687C17.2882 7.13617 17.0431 7.21827 16.9772 7.46446C16.9772 7.46446 16.9772 7.46446 16.9745 7.47431C16.9587 7.5334 16.9833 7.59277 17.04 7.60798L17.6453 7.77022Z" fill="white"/>
<path d="M17.72 7.79081C17.7404 7.75402 17.7582 7.72708 17.7714 7.67778C17.819 7.50031 17.7502 7.32335 17.6023 7.2837C17.4643 7.2467 17.3063 7.36288 17.2587 7.54036C17.2482 7.5798 17.2474 7.62188 17.2467 7.66396L17.72 7.79081Z" fill="url(#paint30_radial_3987_23068)"/>
<path d="M17.6411 7.76904C17.6713 7.73493 17.6917 7.69818 17.7023 7.65879C17.7287 7.56031 17.6835 7.4532 17.6047 7.43208C17.5259 7.41097 17.4359 7.47127 17.4069 7.5796C17.3963 7.61899 17.3956 7.66102 17.4047 7.70569L17.6411 7.76904Z" fill="url(#paint31_radial_3987_23068)"/>
<path d="M17.545 7.39809C17.5614 7.36146 17.6145 7.3496 17.6636 7.3716C17.7126 7.39359 17.739 7.44112 17.7226 7.47774C17.7062 7.51437 17.6531 7.52624 17.6041 7.50424C17.555 7.48225 17.5286 7.43472 17.545 7.39809Z" fill="white"/>
<g filter="url(#filter10_i_3987_23068)">
<path d="M13.5993 6.77261L13.5996 6.77241C13.9317 6.54585 14.0176 6.331 14.1153 5.67866C14.334 4.58491 14.6574 4.37275 15.0837 4.13179C15.533 3.87788 16.2791 3.94429 16.7871 4.3271C17.3448 4.74724 17.4548 4.66832 18.1345 4.69038C18.8569 4.71382 19.1072 5.18647 19.1228 5.60053C19.1384 6.0146 18.9165 6.58104 18.1892 6.63178C17.3552 6.68997 17.3142 5.94428 16.6153 6.10053C16.019 6.23384 15.8884 7.41694 15.6387 7.89741C15.4801 8.2025 15.3397 8.91034 14.4744 9.10835C13.5525 9.31929 12.7948 8.54585 12.9198 7.78022C13.0198 7.16793 13.3023 6.97521 13.5993 6.77261Z" fill="url(#paint32_radial_3987_23068)"/>
<path d="M13.5993 6.77261L13.5996 6.77241C13.9317 6.54585 14.0176 6.331 14.1153 5.67866C14.334 4.58491 14.6574 4.37275 15.0837 4.13179C15.533 3.87788 16.2791 3.94429 16.7871 4.3271C17.3448 4.74724 17.4548 4.66832 18.1345 4.69038C18.8569 4.71382 19.1072 5.18647 19.1228 5.60053C19.1384 6.0146 18.9165 6.58104 18.1892 6.63178C17.3552 6.68997 17.3142 5.94428 16.6153 6.10053C16.019 6.23384 15.8884 7.41694 15.6387 7.89741C15.4801 8.2025 15.3397 8.91034 14.4744 9.10835C13.5525 9.31929 12.7948 8.54585 12.9198 7.78022C13.0198 7.16793 13.3023 6.97521 13.5993 6.77261Z" fill="url(#paint33_radial_3987_23068)"/>
</g>
<defs>
<filter id="filter0_i_3987_23068" x="14.2202" y="5.44351" width="4.36406" height="4.43851" filterUnits="userSpaceOnUse" color-interpolation-filters="sRGB">
<feFlood flood-opacity="0" result="BackgroundImageFix"/>
<feBlend mode="normal" in="SourceGraphic" in2="BackgroundImageFix" result="shape"/>
<feColorMatrix in="SourceAlpha" type="matrix" values="0 0 0 0 0 0 0 0 0 0 0 0 0 0 0 0 0 0 127 0" result="hardAlpha"/>
<feOffset dx="0.2" dy="-0.15"/>
<feGaussianBlur stdDeviation="0.25"/>
<feComposite in2="hardAlpha" operator="arithmetic" k2="-1" k3="1"/>
<feColorMatrix type="matrix" values="0 0 0 0 0.482353 0 0 0 0 0.25098 0 0 0 0 0.219608 0 0 0 1 0"/>
<feBlend mode="normal" in2="shape" result="effect1_innerShadow_3987_23068"/>
</filter>
<filter id="filter1_i_3987_23068" x="17.2451" y="6.57944" width="0.762543" height="0.366602" filterUnits="userSpaceOnUse" color-interpolation-filters="sRGB">
<feFlood flood-opacity="0" result="BackgroundImageFix"/>
<feBlend mode="normal" in="SourceGraphic" in2="BackgroundImageFix" result="shape"/>
<feColorMatrix in="SourceAlpha" type="matrix" values="0 0 0 0 0 0 0 0 0 0 0 0 0 0 0 0 0 0 127 0" result="hardAlpha"/>
<feOffset dy="-0.1"/>
<feGaussianBlur stdDeviation="0.05"/>
<feComposite in2="hardAlpha" operator="arithmetic" k2="-1" k3="1"/>
<feColorMatrix type="matrix" values="0 0 0 0 0.133333 0 0 0 0 0.0705882 0 0 0 0 0.0941176 0 0 0 1 0"/>
<feBlend mode="normal" in2="shape" result="effect1_innerShadow_3987_23068"/>
</filter>
<filter id="filter2_i_3987_23068" x="9.57422" y="8.94275" width="6.37705" height="6.14148" filterUnits="userSpaceOnUse" color-interpolation-filters="sRGB">
<feFlood flood-opacity="0" result="BackgroundImageFix"/>
<feBlend mode="normal" in="SourceGraphic" in2="BackgroundImageFix" result="shape"/>
<feColorMatrix in="SourceAlpha" type="matrix" values="0 0 0 0 0 0 0 0 0 0 0 0 0 0 0 0 0 0 127 0" result="hardAlpha"/>
<feOffset dx="0.65"/>
<feGaussianBlur stdDeviation="0.6"/>
<feComposite in2="hardAlpha" operator="arithmetic" k2="-1" k3="1"/>
<feColorMatrix type="matrix" values="0 0 0 0 0.407843 0 0 0 0 0.321569 0 0 0 0 0.666667 0 0 0 1 0"/>
<feBlend mode="normal" in2="shape" result="effect1_innerShadow_3987_23068"/>
</filter>
<filter id="filter3_i_3987_23068" x="2.05859" y="20.5139" width="27.9828" height="6.0375" filterUnits="userSpaceOnUse" color-interpolation-filters="sRGB">
<feFlood flood-opacity="0" result="BackgroundImageFix"/>
<feBlend mode="normal" in="SourceGraphic" in2="BackgroundImageFix" result="shape"/>
<feColorMatrix in="SourceAlpha" type="matrix" values="0 0 0 0 0 0 0 0 0 0 0 0 0 0 0 0 0 0 127 0" result="hardAlpha"/>
<feOffset dx="0.1" dy="0.1"/>
<feGaussianBlur stdDeviation="0.075"/>
<feComposite in2="hardAlpha" operator="arithmetic" k2="-1" k3="1"/>
<feColorMatrix type="matrix" values="0 0 0 0 0.180392 0 0 0 0 0.541176 0 0 0 0 0.729412 0 0 0 1 0"/>
<feBlend mode="normal" in2="shape" result="effect1_innerShadow_3987_23068"/>
</filter>
<filter id="filter4_i_3987_23068" x="3.88569" y="15.5146" width="24.059" height="2.19067" filterUnits="userSpaceOnUse" color-interpolation-filters="sRGB">
<feFlood flood-opacity="0" result="BackgroundImageFix"/>
<feBlend mode="normal" in="SourceGraphic" in2="BackgroundImageFix" result="shape"/>
<feColorMatrix in="SourceAlpha" type="matrix" values="0 0 0 0 0 0 0 0 0 0 0 0 0 0 0 0 0 0 127 0" result="hardAlpha"/>
<feOffset dx="-0.2"/>
<feGaussianBlur stdDeviation="0.375"/>
<feComposite in2="hardAlpha" operator="arithmetic" k2="-1" k3="1"/>
<feColorMatrix type="matrix" values="0 0 0 0 0.278431 0 0 0 0 0.529412 0 0 0 0 0.184314 0 0 0 1 0"/>
<feBlend mode="normal" in2="shape" result="effect1_innerShadow_3987_23068"/>
</filter>
<filter id="filter5_i_3987_23068" x="8.33716" y="19.2529" width="6.80219" height="6.80316" filterUnits="userSpaceOnUse" color-interpolation-filters="sRGB">
<feFlood flood-opacity="0" result="BackgroundImageFix"/>
<feBlend mode="normal" in="SourceGraphic" in2="BackgroundImageFix" result="shape"/>
<feColorMatrix in="SourceAlpha" type="matrix" values="0 0 0 0 0 0 0 0 0 0 0 0 0 0 0 0 0 0 127 0" result="hardAlpha"/>
<feOffset dx="0.5" dy="-0.5"/>
<feGaussianBlur stdDeviation="0.625"/>
<feComposite in2="hardAlpha" operator="arithmetic" k2="-1" k3="1"/>
<feColorMatrix type="matrix" values="0 0 0 0 0.776471 0 0 0 0 0.556863 0 0 0 0 0.341176 0 0 0 1 0"/>
<feBlend mode="normal" in2="shape" result="effect1_innerShadow_3987_23068"/>
</filter>
<filter id="filter6_i_3987_23068" x="1.95859" y="24.0139" width="27.9828" height="6.0375" filterUnits="userSpaceOnUse" color-interpolation-filters="sRGB">
<feFlood flood-opacity="0" result="BackgroundImageFix"/>
<feBlend mode="normal" in="SourceGraphic" in2="BackgroundImageFix" result="shape"/>
<feColorMatrix in="SourceAlpha" type="matrix" values="0 0 0 0 0 0 0 0 0 0 0 0 0 0 0 0 0 0 127 0" result="hardAlpha"/>
<feOffset dx="-0.1" dy="0.1"/>
<feGaussianBlur stdDeviation="0.2"/>
<feComposite in2="hardAlpha" operator="arithmetic" k2="-1" k3="1"/>
<feColorMatrix type="matrix" values="0 0 0 0 0.384314 0 0 0 0 0.843137 0 0 0 0 1 0 0 0 1 0"/>
<feBlend mode="normal" in2="shape" result="effect1_innerShadow_3987_23068"/>
</filter>
<filter id="filter7_i_3987_23068" x="14.7852" y="10.8381" width="6.67754" height="4.10803" filterUnits="userSpaceOnUse" color-interpolation-filters="sRGB">
<feFlood flood-opacity="0" result="BackgroundImageFix"/>
<feBlend mode="normal" in="SourceGraphic" in2="BackgroundImageFix" result="shape"/>
<feColorMatrix in="SourceAlpha" type="matrix" values="0 0 0 0 0 0 0 0 0 0 0 0 0 0 0 0 0 0 127 0" result="hardAlpha"/>
<feOffset dx="0.2" dy="-0.5"/>
<feGaussianBlur stdDeviation="0.4"/>
<feComposite in2="hardAlpha" operator="arithmetic" k2="-1" k3="1"/>
<feColorMatrix type="matrix" values="0 0 0 0 0.419608 0 0 0 0 0.286275 0 0 0 0 0.258824 0 0 0 1 0"/>
<feBlend mode="normal" in2="shape" result="effect1_innerShadow_3987_23068"/>
</filter>
<filter id="filter8_f_3987_23068" x="14.876" y="11.1842" width="5.18147" height="3.00837" filterUnits="userSpaceOnUse" color-interpolation-filters="sRGB">
<feFlood flood-opacity="0" result="BackgroundImageFix"/>
<feBlend mode="normal" in="SourceGraphic" in2="BackgroundImageFix" result="shape"/>
<feGaussianBlur stdDeviation="0.2" result="effect1_foregroundBlur_3987_23068"/>
</filter>
<filter id="filter9_i_3987_23068" x="12.8032" y="9.23867" width="3.88187" height="3.70499" filterUnits="userSpaceOnUse" color-interpolation-filters="sRGB">
<feFlood flood-opacity="0" result="BackgroundImageFix"/>
<feBlend mode="normal" in="SourceGraphic" in2="BackgroundImageFix" result="shape"/>
<feColorMatrix in="SourceAlpha" type="matrix" values="0 0 0 0 0 0 0 0 0 0 0 0 0 0 0 0 0 0 127 0" result="hardAlpha"/>
<feOffset dx="0.4" dy="-0.15"/>
<feGaussianBlur stdDeviation="0.4"/>
<feComposite in2="hardAlpha" operator="arithmetic" k2="-1" k3="1"/>
<feColorMatrix type="matrix" values="0 0 0 0 0.337255 0 0 0 0 0.243137 0 0 0 0 0.611765 0 0 0 1 0"/>
<feBlend mode="normal" in2="shape" result="effect1_innerShadow_3987_23068"/>
</filter>
<filter id="filter10_i_3987_23068" x="12.9062" y="3.83059" width="6.31732" height="5.31296" filterUnits="userSpaceOnUse" color-interpolation-filters="sRGB">
<feFlood flood-opacity="0" result="BackgroundImageFix"/>
<feBlend mode="normal" in="SourceGraphic" in2="BackgroundImageFix" result="shape"/>
<feColorMatrix in="SourceAlpha" type="matrix" values="0 0 0 0 0 0 0 0 0 0 0 0 0 0 0 0 0 0 127 0" result="hardAlpha"/>
<feOffset dx="0.1" dy="-0.15"/>
<feGaussianBlur stdDeviation="0.3"/>
<feComposite in2="hardAlpha" operator="arithmetic" k2="-1" k3="1"/>
<feColorMatrix type="matrix" values="0 0 0 0 0.164706 0 0 0 0 0.0588235 0 0 0 0 0.0784314 0 0 0 1 0"/>
<feBlend mode="normal" in2="shape" result="effect1_innerShadow_3987_23068"/>
</filter>
<radialGradient id="paint0_radial_3987_23068" cx="0" cy="0" r="1" gradientUnits="userSpaceOnUse" gradientTransform="translate(16.2721 8.42903) rotate(112.51) scale(1.02069 1.88161)">
<stop offset="0.141603" stop-color="#683A26"/>
<stop offset="1" stop-color="#754F43"/>
</radialGradient>
<radialGradient id="paint1_radial_3987_23068" cx="0" cy="0" r="1" gradientUnits="userSpaceOnUse" gradientTransform="translate(18.2656 8.09322) rotate(109.376) scale(0.624013 0.578083)">
<stop offset="0.462544" stop-color="#8D6E63"/>
<stop offset="1" stop-color="#7C5741"/>
</radialGradient>
<radialGradient id="paint2_radial_3987_23068" cx="0" cy="0" r="1" gradientUnits="userSpaceOnUse" gradientTransform="translate(17.582 7.73776) rotate(161.861) scale(2.84448 2.94485)">
<stop offset="0.175941" stop-color="#8F695D"/>
<stop offset="1" stop-color="#81534E"/>
</radialGradient>
<radialGradient id="paint3_radial_3987_23068" cx="0" cy="0" r="1" gradientUnits="userSpaceOnUse" gradientTransform="translate(17.3408 7.59524) rotate(107.289) scale(0.617756 0.643992)">
<stop stop-color="#9A796D"/>
<stop offset="1" stop-color="#9A796D" stop-opacity="0"/>
</radialGradient>
<radialGradient id="paint4_radial_3987_23068" cx="0" cy="0" r="1" gradientUnits="userSpaceOnUse" gradientTransform="translate(16.9033 6.08743) rotate(106.727) scale(2.08837 1.06406)">
<stop offset="0.127527" stop-color="#926D66"/>
<stop offset="1" stop-color="#926D66" stop-opacity="0"/>
</radialGradient>
<radialGradient id="paint5_radial_3987_23068" cx="0" cy="0" r="1" gradientUnits="userSpaceOnUse" gradientTransform="translate(13.8008 11.6389) rotate(72.4744) scale(4.35856 2.29046)">
<stop offset="0.0796495" stop-color="#57399F"/>
<stop offset="1" stop-color="#57399F" stop-opacity="0"/>
</radialGradient>
<radialGradient id="paint6_radial_3987_23068" cx="0" cy="0" r="1" gradientUnits="userSpaceOnUse" gradientTransform="translate(10.9883 14.4827) rotate(15.1167) scale(4.82315 2.16799)">
<stop offset="0.396256" stop-color="#8D8695"/>
<stop offset="0.769686" stop-color="#697167"/>
</radialGradient>
<linearGradient id="paint7_linear_3987_23068" x1="25.0508" y1="18.8577" x2="7.80078" y2="24.2327" gradientUnits="userSpaceOnUse">
<stop offset="0.352803" stop-color="#86BF45"/>
<stop offset="1" stop-color="#679951"/>
</linearGradient>
<linearGradient id="paint8_linear_3987_23068" x1="27.1445" y1="20.4202" x2="26.4414" y2="20.4202" gradientUnits="userSpaceOnUse">
<stop stop-color="#99D852"/>
<stop offset="1" stop-color="#99D852" stop-opacity="0"/>
</linearGradient>
<radialGradient id="paint9_radial_3987_23068" cx="0" cy="0" r="1" gradientUnits="userSpaceOnUse" gradientTransform="translate(13.1445 22.0139) rotate(-48.1882) scale(8.34352 3.02876)">
<stop stop-color="#659941"/>
<stop offset="1" stop-color="#79AF4C" stop-opacity="0"/>
</radialGradient>
<radialGradient id="paint10_radial_3987_23068" cx="0" cy="0" r="1" gradientUnits="userSpaceOnUse" gradientTransform="translate(11.332 21.9202) rotate(-139.467) scale(2.83705 2.10765)">
<stop stop-color="#528C3F"/>
<stop offset="1" stop-color="#528C3F" stop-opacity="0"/>
</radialGradient>
<radialGradient id="paint11_radial_3987_23068" cx="0" cy="0" r="1" gradientUnits="userSpaceOnUse" gradientTransform="translate(23.1758 20.1077) rotate(133.063) scale(9.15342 18.4848)">
<stop stop-color="#379FE9"/>
<stop offset="1" stop-color="#3691DF"/>
</radialGradient>
<radialGradient id="paint12_radial_3987_23068" cx="0" cy="0" r="1" gradientUnits="userSpaceOnUse" gradientTransform="translate(9.14453 24.7327) rotate(-133.468) scale(4.13363 7.33334)">
<stop stop-color="#286EC5"/>
<stop offset="1" stop-color="#286EC5" stop-opacity="0"/>
</radialGradient>
<radialGradient id="paint13_radial_3987_23068" cx="0" cy="0" r="1" gradientUnits="userSpaceOnUse" gradientTransform="translate(31.5508 23.1077) rotate(175.601) scale(4.8894 22.9609)">
<stop offset="0.288236" stop-color="#38A7FB"/>
<stop offset="1" stop-color="#38A7FB" stop-opacity="0"/>
</radialGradient>
<linearGradient id="paint14_linear_3987_23068" x1="16.0153" y1="15.2639" x2="16.3945" y2="18.7952" gradientUnits="userSpaceOnUse">
<stop stop-color="#79B34C"/>
<stop offset="1" stop-color="#4D8C4E"/>
</linearGradient>
<radialGradient id="paint15_radial_3987_23068" cx="0" cy="0" r="1" gradientUnits="userSpaceOnUse" gradientTransform="translate(27.5508 16.1389) rotate(-180) scale(1.28125 1)">
<stop stop-color="#78BB7D"/>
<stop offset="1" stop-color="#78BB7D" stop-opacity="0"/>
</radialGradient>
<radialGradient id="paint16_radial_3987_23068" cx="0" cy="0" r="1" gradientUnits="userSpaceOnUse" gradientTransform="translate(4.26953 16.61) scale(16.1875 0.716439)">
<stop stop-color="#7CAF55"/>
<stop offset="1" stop-color="#7CAF55" stop-opacity="0"/>
</radialGradient>
<radialGradient id="paint17_radial_3987_23068" cx="0" cy="0" r="1" gradientUnits="userSpaceOnUse" gradientTransform="translate(17.957 16.3889) rotate(90) scale(0.812501 9.78125)">
<stop stop-color="#70A762"/>
<stop offset="1" stop-color="#70A762" stop-opacity="0"/>
</radialGradient>
<radialGradient id="paint18_radial_3987_23068" cx="0" cy="0" r="1" gradientUnits="userSpaceOnUse" gradientTransform="translate(20.0178 13.3113) rotate(-1.3967) scale(0.679905 0.144917)">
<stop stop-color="#81675E"/>
<stop offset="1" stop-color="#76594D"/>
</radialGradient>
<radialGradient id="paint19_radial_3987_23068" cx="0" cy="0" r="1" gradientUnits="userSpaceOnUse" gradientTransform="translate(21.8008 12.5451) rotate(135.21) scale(12.0651 1.31103)">
<stop offset="0.235656" stop-color="#FECCA0"/>
<stop offset="1" stop-color="#DA9C63"/>
</radialGradient>
<linearGradient id="paint20_linear_3987_23068" x1="17.168" y1="16.2991" x2="17.582" y2="16.6936" gradientUnits="userSpaceOnUse">
<stop stop-color="#CD9157"/>
<stop offset="1" stop-color="#EEB683" stop-opacity="0"/>
</linearGradient>
<linearGradient id="paint21_linear_3987_23068" x1="19.5195" y1="15.9826" x2="19.1836" y2="15.6311" gradientUnits="userSpaceOnUse">
<stop stop-color="#D59C7A"/>
<stop offset="1" stop-color="#D59C7A" stop-opacity="0"/>
</linearGradient>
<radialGradient id="paint22_radial_3987_23068" cx="0" cy="0" r="1" gradientUnits="userSpaceOnUse" gradientTransform="translate(14.6394 20.9514) rotate(135.982) scale(4.94685 2.91358)">
<stop stop-color="#FBC998"/>
<stop offset="1" stop-color="#E9B37E"/>
</radialGradient>
<linearGradient id="paint23_linear_3987_23068" x1="18.457" y1="23.3889" x2="12.7383" y2="33.4827" gradientUnits="userSpaceOnUse">
<stop stop-color="#5FCDFF"/>
<stop offset="1" stop-color="#4AADFF"/>
</linearGradient>
<radialGradient id="paint24_radial_3987_23068" cx="0" cy="0" r="1" gradientUnits="userSpaceOnUse" gradientTransform="translate(30.1758 28.9202) rotate(180) scale(3.09375 12.375)">
<stop stop-color="#65DEFF"/>
<stop offset="1" stop-color="#5DC9FF" stop-opacity="0"/>
</radialGradient>
<linearGradient id="paint25_linear_3987_23068" x1="18.0195" y1="29.9514" x2="18.0195" y2="29.6702" gradientUnits="userSpaceOnUse">
<stop stop-color="#59A0FF"/>
<stop offset="1" stop-color="#55BEFF" stop-opacity="0"/>
</linearGradient>
<radialGradient id="paint26_radial_3987_23068" cx="0" cy="0" r="1" gradientUnits="userSpaceOnUse" gradientTransform="translate(20.7471 13.8999) rotate(-25.9744) scale(0.677844 0.371132)">
<stop stop-color="#977970"/>
<stop offset="1" stop-color="#977970" stop-opacity="0"/>
</radialGradient>
<linearGradient id="paint27_linear_3987_23068" x1="15.8044" y1="12.2437" x2="20.0857" y2="13.9624" gradientUnits="userSpaceOnUse">
<stop stop-color="#957168"/>
<stop offset="1" stop-color="#957168" stop-opacity="0"/>
</linearGradient>
<radialGradient id="paint28_radial_3987_23068" cx="0" cy="0" r="1" gradientUnits="userSpaceOnUse" gradientTransform="translate(15.1758 10.139) rotate(48.5035) scale(3.25435 1.93233)">
<stop offset="0.0488889" stop-color="#9178D3"/>
<stop offset="1" stop-color="#7151BE"/>
</radialGradient>
<radialGradient id="paint29_radial_3987_23068" cx="0" cy="0" r="1" gradientUnits="userSpaceOnUse" gradientTransform="translate(17.457 7.25925) rotate(143.52) scale(0.448486 0.472068)">
<stop stop-color="#3D3D3D"/>
<stop offset="1" stop-color="#191919"/>
</radialGradient>
<radialGradient id="paint30_radial_3987_23068" cx="0" cy="0" r="1" gradientUnits="userSpaceOnUse" gradientTransform="translate(17.5428 7.74833) rotate(-75.2127) scale(0.496927 0.557477)">
<stop offset="0.625996" stop-color="#6B4841"/>
<stop offset="1" stop-color="#A38C84"/>
</radialGradient>
<radialGradient id="paint31_radial_3987_23068" cx="0" cy="0" r="1" gradientUnits="userSpaceOnUse" gradientTransform="translate(17.49 7.48263) rotate(74.2418) scale(0.271939 0.263167)">
<stop stop-color="#3D3D3D"/>
<stop offset="1" stop-color="#191919"/>
</radialGradient>
<radialGradient id="paint32_radial_3987_23068" cx="0" cy="0" r="1" gradientUnits="userSpaceOnUse" gradientTransform="translate(18.6186 5.95364) rotate(163.724) scale(5.51064 6.88411)">
<stop offset="0.332135" stop-color="#31222A"/>
<stop offset="1" stop-color="#2D2029"/>
</radialGradient>
<radialGradient id="paint33_radial_3987_23068" cx="0" cy="0" r="1" gradientUnits="userSpaceOnUse" gradientTransform="translate(18.854 5.3061) rotate(172.47) scale(1.3712 1.21806)">
<stop stop-color="#3F3438"/>
<stop offset="1" stop-color="#3F3438" stop-opacity="0"/>
</radialGradient>
</defs>
</svg>
