<svg width="32" height="32" viewBox="0 0 32 32" fill="none" xmlns="http://www.w3.org/2000/svg">
<circle cx="10.6738" cy="16.1653" r="4.08594" fill="url(#paint0_radial_4002_793)"/>
<circle cx="10.6738" cy="16.1653" r="4.08594" fill="url(#paint1_radial_4002_793)"/>
<circle cx="8.27539" cy="23.3684" r="6.30469" fill="url(#paint2_radial_4002_793)"/>
<circle r="4.08594" transform="matrix(-1 0 0 1 21.3262 16.1653)" fill="url(#paint3_radial_4002_793)"/>
<circle r="4.08594" transform="matrix(-1 0 0 1 21.3262 16.1653)" fill="url(#paint4_radial_4002_793)"/>
<circle r="6.30469" transform="matrix(-1 0 0 1 23.7246 23.3684)" fill="url(#paint5_radial_4002_793)"/>
<path d="M26.9473 29.9387C26.9473 21.9778 22.3301 20.0637 21.5723 19.5559L16.5254 29.9387H26.9473Z" fill="url(#paint6_radial_4002_793)"/>
<path d="M26.9473 29.9387C26.9473 21.9778 22.3301 20.0637 21.5723 19.5559L16.5254 29.9387H26.9473Z" fill="url(#paint7_linear_4002_793)"/>
<path d="M26.9473 29.9387C26.9473 21.9778 22.3301 20.0637 21.5723 19.5559L16.5254 29.9387H26.9473Z" fill="url(#paint8_linear_4002_793)"/>
<path d="M5.0957 29.9387C5.0957 21.9778 9.71289 20.0637 10.4707 19.5559L15.5176 29.9387H5.0957Z" fill="url(#paint9_radial_4002_793)"/>
<path d="M5.0957 29.9387C5.0957 21.9778 9.71289 20.0637 10.4707 19.5559L15.5176 29.9387H5.0957Z" fill="url(#paint10_linear_4002_793)"/>
<path d="M9.89997 17.3528C10.5407 16.0403 11.7204 15.6028 12.4939 15.6028H15.1029L15.1029 18.4778H12.6341C12.4654 18.7809 12.6315 19.328 12.7357 19.5637L17.0525 29.9543H13.8767C12.809 27.371 10.5844 22.1372 10.1969 21.2122C9.77647 20.2083 9.30637 18.7356 9.89997 17.3528Z" fill="#2681E0"/>
<path d="M9.89997 17.3528C10.5407 16.0403 11.7204 15.6028 12.4939 15.6028H15.1029L15.1029 18.4778H12.6341C12.4654 18.7809 12.6315 19.328 12.7357 19.5637L17.0525 29.9543H13.8767C12.809 27.371 10.5844 22.1372 10.1969 21.2122C9.77647 20.2083 9.30637 18.7356 9.89997 17.3528Z" fill="url(#paint11_radial_4002_793)"/>
<path d="M9.89997 17.3528C10.5407 16.0403 11.7204 15.6028 12.4939 15.6028H15.1029L15.1029 18.4778H12.6341C12.4654 18.7809 12.6315 19.328 12.7357 19.5637L17.0525 29.9543H13.8767C12.809 27.371 10.5844 22.1372 10.1969 21.2122C9.77647 20.2083 9.30637 18.7356 9.89997 17.3528Z" fill="url(#paint12_linear_4002_793)"/>
<path d="M9.89997 17.3528C10.5407 16.0403 11.7204 15.6028 12.4939 15.6028H15.1029L15.1029 18.4778H12.6341C12.4654 18.7809 12.6315 19.328 12.7357 19.5637L17.0525 29.9543H13.8767C12.809 27.371 10.5844 22.1372 10.1969 21.2122C9.77647 20.2083 9.30637 18.7356 9.89997 17.3528Z" fill="url(#paint13_radial_4002_793)"/>
<path d="M9.89997 17.3528C10.5407 16.0403 11.7204 15.6028 12.4939 15.6028H15.1029L15.1029 18.4778H12.6341C12.4654 18.7809 12.6315 19.328 12.7357 19.5637L17.0525 29.9543H13.8767C12.809 27.371 10.5844 22.1372 10.1969 21.2122C9.77647 20.2083 9.30637 18.7356 9.89997 17.3528Z" fill="url(#paint14_linear_4002_793)"/>
<path d="M9.89997 17.3528C10.5407 16.0403 11.7204 15.6028 12.4939 15.6028H15.1029L15.1029 18.4778H12.6341C12.4654 18.7809 12.6315 19.328 12.7357 19.5637L17.0525 29.9543H13.8767C12.809 27.371 10.5844 22.1372 10.1969 21.2122C9.77647 20.2083 9.30637 18.7356 9.89997 17.3528Z" fill="url(#paint15_radial_4002_793)"/>
<path d="M9.89997 17.3528C10.5407 16.0403 11.7204 15.6028 12.4939 15.6028H15.1029L15.1029 18.4778H12.6341C12.4654 18.7809 12.6315 19.328 12.7357 19.5637L17.0525 29.9543H13.8767C12.809 27.371 10.5844 22.1372 10.1969 21.2122C9.77647 20.2083 9.30637 18.7356 9.89997 17.3528Z" fill="url(#paint16_radial_4002_793)"/>
<path d="M21.819 17.3528C21.1782 16.0403 19.9986 15.6028 19.2251 15.6028H16.6161L16.6161 18.4778H19.0849C19.2536 18.7809 19.0875 19.328 18.9833 19.5637L15.0447 29.9543H18.2205C19.2882 27.371 21.2158 22.1372 21.6033 21.2122C22.0237 20.2083 22.4126 18.7356 21.819 17.3528Z" fill="#2A87CE"/>
<path d="M21.819 17.3528C21.1782 16.0403 19.9986 15.6028 19.2251 15.6028H16.6161L16.6161 18.4778H19.0849C19.2536 18.7809 19.0875 19.328 18.9833 19.5637L15.0447 29.9543H18.2205C19.2882 27.371 21.2158 22.1372 21.6033 21.2122C22.0237 20.2083 22.4126 18.7356 21.819 17.3528Z" fill="url(#paint17_linear_4002_793)"/>
<path d="M21.819 17.3528C21.1782 16.0403 19.9986 15.6028 19.2251 15.6028H16.6161L16.6161 18.4778H19.0849C19.2536 18.7809 19.0875 19.328 18.9833 19.5637L15.0447 29.9543H18.2205C19.2882 27.371 21.2158 22.1372 21.6033 21.2122C22.0237 20.2083 22.4126 18.7356 21.819 17.3528Z" fill="url(#paint18_radial_4002_793)"/>
<path d="M21.819 17.3528C21.1782 16.0403 19.9986 15.6028 19.2251 15.6028H16.6161L16.6161 18.4778H19.0849C19.2536 18.7809 19.0875 19.328 18.9833 19.5637L15.0447 29.9543H18.2205C19.2882 27.371 21.2158 22.1372 21.6033 21.2122C22.0237 20.2083 22.4126 18.7356 21.819 17.3528Z" fill="url(#paint19_radial_4002_793)"/>
<g filter="url(#filter0_i_4002_793)">
<path d="M14.0097 16.5168H18.0097V17.4042C18.0204 17.5789 18.0549 17.7779 18.1621 17.9348C18.3039 18.1425 18.4668 18.22 18.6074 18.2668L19.0722 18.4309C19.1478 18.4986 19.2926 18.909 19.1114 19.4153C18.9306 19.9202 17.0687 24.9253 16.0175 27.4345V27.4543C16.0162 27.451 16.0147 27.4477 16.0134 27.4444C16.0121 27.4477 16.0106 27.4511 16.0092 27.4543V27.4346C14.9571 24.9253 12.8234 19.9202 12.6426 19.4153C12.4613 18.909 12.5671 18.5455 12.6425 18.4778L13.3222 18.2864C13.541 18.2239 13.6961 18.1464 13.8379 17.9387C13.9508 17.7735 13.9961 17.5495 14.0097 17.3666V16.5168Z" fill="url(#paint20_linear_4002_793)"/>
<path d="M14.0097 16.5168H18.0097V17.4042C18.0204 17.5789 18.0549 17.7779 18.1621 17.9348C18.3039 18.1425 18.4668 18.22 18.6074 18.2668L19.0722 18.4309C19.1478 18.4986 19.2926 18.909 19.1114 19.4153C18.9306 19.9202 17.0687 24.9253 16.0175 27.4345V27.4543C16.0162 27.451 16.0147 27.4477 16.0134 27.4444C16.0121 27.4477 16.0106 27.4511 16.0092 27.4543V27.4346C14.9571 24.9253 12.8234 19.9202 12.6426 19.4153C12.4613 18.909 12.5671 18.5455 12.6425 18.4778L13.3222 18.2864C13.541 18.2239 13.6961 18.1464 13.8379 17.9387C13.9508 17.7735 13.9961 17.5495 14.0097 17.3666V16.5168Z" fill="url(#paint21_radial_4002_793)"/>
<path d="M14.0097 16.5168H18.0097V17.4042C18.0204 17.5789 18.0549 17.7779 18.1621 17.9348C18.3039 18.1425 18.4668 18.22 18.6074 18.2668L19.0722 18.4309C19.1478 18.4986 19.2926 18.909 19.1114 19.4153C18.9306 19.9202 17.0687 24.9253 16.0175 27.4345V27.4543C16.0162 27.451 16.0147 27.4477 16.0134 27.4444C16.0121 27.4477 16.0106 27.4511 16.0092 27.4543V27.4346C14.9571 24.9253 12.8234 19.9202 12.6426 19.4153C12.4613 18.909 12.5671 18.5455 12.6425 18.4778L13.3222 18.2864C13.541 18.2239 13.6961 18.1464 13.8379 17.9387C13.9508 17.7735 13.9961 17.5495 14.0097 17.3666V16.5168Z" fill="url(#paint22_radial_4002_793)"/>
</g>
<path opacity="0.5" d="M1.9707 24.0168H5.26758C8.54677 24.0168 11.2051 26.6752 11.2051 29.9543H1.9707V24.0168Z" fill="#E8D6FF"/>
<path opacity="0.5" d="M30.0293 24.0168H26.7324C23.4532 24.0168 20.7949 26.6752 20.7949 29.9543H30.0293V24.0168Z" fill="#E8D6FF"/>
<g filter="url(#filter1_f_4002_793)">
<path d="M16.1514 18.3376C16.3413 18.3648 16.8623 18.3702 17.4268 18.1748" stroke="#FCC4B2" stroke-width="0.6" stroke-linecap="round"/>
</g>
<g filter="url(#filter2_i_4002_793)">
<circle cx="11.1097" cy="10.764" r="1.69218" fill="url(#paint23_radial_4002_793)"/>
</g>
<g filter="url(#filter3_f_4002_793)">
<circle cx="11.1096" cy="10.7639" r="1.00852" fill="url(#paint24_linear_4002_793)"/>
</g>
<g filter="url(#filter4_i_4002_793)">
<circle cx="20.7525" cy="10.764" r="1.69218" fill="url(#paint25_linear_4002_793)"/>
<circle cx="20.7525" cy="10.764" r="1.69218" fill="url(#paint26_radial_4002_793)"/>
</g>
<g filter="url(#filter5_f_4002_793)">
<circle cx="20.7524" cy="10.7639" r="1.00852" fill="#E4AF9A"/>
<circle cx="20.7524" cy="10.7639" r="1.00852" fill="url(#paint27_radial_4002_793)"/>
<circle cx="20.7524" cy="10.7639" r="1.00852" fill="url(#paint28_radial_4002_793)"/>
</g>
<g filter="url(#filter6_i_4002_793)">
<path d="M10.6938 8.68501C10.6938 8.41471 10.8026 8.09035 11.0201 7.92817L11.1832 7.76599C11.455 7.54975 11.5638 7.22539 11.5638 6.90103V6.03607C11.5638 5.76577 11.7269 5.54953 11.9987 5.49547C12.6512 5.33329 14.0104 5.06299 15.9677 5.06299C17.925 5.06299 19.2843 5.33329 19.9367 5.49547C20.1542 5.54953 20.3716 5.76577 20.3716 6.03607V6.90103C20.3716 7.22539 20.5348 7.54975 20.7522 7.76599C21.2612 8.1226 21.2295 8.31875 21.1872 8.73907C21.1328 9.27967 21.0785 10.1987 21.0785 10.1987C21.0846 10.1987 21.0907 10.1986 21.0968 10.1985L20.8273 14.2108C20.6646 16.0045 19.2545 17.2546 17.5732 17.2546H14.3192C12.5837 17.2546 11.2278 16.0045 11.0651 14.2108C10.9238 12.3696 10.8619 10.523 10.6938 8.68501Z" fill="url(#paint29_linear_4002_793)"/>
<path d="M10.6938 8.68501C10.6938 8.41471 10.8026 8.09035 11.0201 7.92817L11.1832 7.76599C11.455 7.54975 11.5638 7.22539 11.5638 6.90103V6.03607C11.5638 5.76577 11.7269 5.54953 11.9987 5.49547C12.6512 5.33329 14.0104 5.06299 15.9677 5.06299C17.925 5.06299 19.2843 5.33329 19.9367 5.49547C20.1542 5.54953 20.3716 5.76577 20.3716 6.03607V6.90103C20.3716 7.22539 20.5348 7.54975 20.7522 7.76599C21.2612 8.1226 21.2295 8.31875 21.1872 8.73907C21.1328 9.27967 21.0785 10.1987 21.0785 10.1987C21.0846 10.1987 21.0907 10.1986 21.0968 10.1985L20.8273 14.2108C20.6646 16.0045 19.2545 17.2546 17.5732 17.2546H14.3192C12.5837 17.2546 11.2278 16.0045 11.0651 14.2108C10.9238 12.3696 10.8619 10.523 10.6938 8.68501Z" fill="url(#paint30_radial_4002_793)"/>
<path d="M10.6938 8.68501C10.6938 8.41471 10.8026 8.09035 11.0201 7.92817L11.1832 7.76599C11.455 7.54975 11.5638 7.22539 11.5638 6.90103V6.03607C11.5638 5.76577 11.7269 5.54953 11.9987 5.49547C12.6512 5.33329 14.0104 5.06299 15.9677 5.06299C17.925 5.06299 19.2843 5.33329 19.9367 5.49547C20.1542 5.54953 20.3716 5.76577 20.3716 6.03607V6.90103C20.3716 7.22539 20.5348 7.54975 20.7522 7.76599C21.2612 8.1226 21.2295 8.31875 21.1872 8.73907C21.1328 9.27967 21.0785 10.1987 21.0785 10.1987C21.0846 10.1987 21.0907 10.1986 21.0968 10.1985L20.8273 14.2108C20.6646 16.0045 19.2545 17.2546 17.5732 17.2546H14.3192C12.5837 17.2546 11.2278 16.0045 11.0651 14.2108C10.9238 12.3696 10.8619 10.523 10.6938 8.68501Z" fill="url(#paint31_linear_4002_793)"/>
<path d="M10.6938 8.68501C10.6938 8.41471 10.8026 8.09035 11.0201 7.92817L11.1832 7.76599C11.455 7.54975 11.5638 7.22539 11.5638 6.90103V6.03607C11.5638 5.76577 11.7269 5.54953 11.9987 5.49547C12.6512 5.33329 14.0104 5.06299 15.9677 5.06299C17.925 5.06299 19.2843 5.33329 19.9367 5.49547C20.1542 5.54953 20.3716 5.76577 20.3716 6.03607V6.90103C20.3716 7.22539 20.5348 7.54975 20.7522 7.76599C21.2612 8.1226 21.2295 8.31875 21.1872 8.73907C21.1328 9.27967 21.0785 10.1987 21.0785 10.1987C21.0846 10.1987 21.0907 10.1986 21.0968 10.1985L20.8273 14.2108C20.6646 16.0045 19.2545 17.2546 17.5732 17.2546H14.3192C12.5837 17.2546 11.2278 16.0045 11.0651 14.2108C10.9238 12.3696 10.8619 10.523 10.6938 8.68501Z" fill="url(#paint32_linear_4002_793)"/>
<path d="M10.6938 8.68501C10.6938 8.41471 10.8026 8.09035 11.0201 7.92817L11.1832 7.76599C11.455 7.54975 11.5638 7.22539 11.5638 6.90103V6.03607C11.5638 5.76577 11.7269 5.54953 11.9987 5.49547C12.6512 5.33329 14.0104 5.06299 15.9677 5.06299C17.925 5.06299 19.2843 5.33329 19.9367 5.49547C20.1542 5.54953 20.3716 5.76577 20.3716 6.03607V6.90103C20.3716 7.22539 20.5348 7.54975 20.7522 7.76599C21.2612 8.1226 21.2295 8.31875 21.1872 8.73907C21.1328 9.27967 21.0785 10.1987 21.0785 10.1987C21.0846 10.1987 21.0907 10.1986 21.0968 10.1985L20.8273 14.2108C20.6646 16.0045 19.2545 17.2546 17.5732 17.2546H14.3192C12.5837 17.2546 11.2278 16.0045 11.0651 14.2108C10.9238 12.3696 10.8619 10.523 10.6938 8.68501Z" fill="url(#paint33_radial_4002_793)"/>
<path d="M10.6938 8.68501C10.6938 8.41471 10.8026 8.09035 11.0201 7.92817L11.1832 7.76599C11.455 7.54975 11.5638 7.22539 11.5638 6.90103V6.03607C11.5638 5.76577 11.7269 5.54953 11.9987 5.49547C12.6512 5.33329 14.0104 5.06299 15.9677 5.06299C17.925 5.06299 19.2843 5.33329 19.9367 5.49547C20.1542 5.54953 20.3716 5.76577 20.3716 6.03607V6.90103C20.3716 7.22539 20.5348 7.54975 20.7522 7.76599C21.2612 8.1226 21.2295 8.31875 21.1872 8.73907C21.1328 9.27967 21.0785 10.1987 21.0785 10.1987C21.0846 10.1987 21.0907 10.1986 21.0968 10.1985L20.8273 14.2108C20.6646 16.0045 19.2545 17.2546 17.5732 17.2546H14.3192C12.5837 17.2546 11.2278 16.0045 11.0651 14.2108C10.9238 12.3696 10.8619 10.523 10.6938 8.68501Z" fill="url(#paint34_radial_4002_793)"/>
</g>
<g filter="url(#filter7_f_4002_793)">
<path d="M19.9398 5.06299L16.8204 6.10297C16.2893 6.28004 15.987 6.83915 16.1298 7.38049C16.2662 7.89799 16.7665 8.23297 17.297 8.16195L20.3984 7.7467L19.9398 5.06299Z" fill="url(#paint35_linear_4002_793)"/>
</g>
<g filter="url(#filter8_i_4002_793)">
<path d="M20.8067 4.19805L21.2417 4.41429C22.0028 4.79271 22.4378 5.65767 22.2747 6.57669L21.6766 9.65811C21.6233 9.97635 21.4129 10.1905 21.0969 10.1985C21.0908 10.1986 21.0847 10.1987 21.0786 10.1987C21.0786 10.1987 21.1329 9.27966 21.1873 8.73906C21.2314 8.30007 21.1548 8.16615 20.7523 7.76598C20.5349 7.54974 20.3717 7.22538 20.3717 6.90102V6.03606C20.3717 5.76576 20.1543 5.54952 19.9368 5.49546C19.2844 5.33328 17.9251 5.06298 15.9678 5.06298C14.0105 5.06298 12.6513 5.33328 11.9988 5.49546C11.727 5.54952 11.5639 5.76576 11.5639 6.03606V6.90102C11.5639 7.22538 11.4551 7.54974 11.1833 7.76598L11.0202 7.92816C10.8027 8.09034 10.6939 8.4147 10.6939 8.685C10.7483 9.27966 10.8027 10.1446 10.8027 10.1446C10.786 10.1446 10.7694 10.1441 10.753 10.1429C10.4492 10.1222 10.2018 9.91178 10.1502 9.60405L9.55218 6.52263C9.44344 5.65767 9.8784 4.79271 10.6396 4.41429L11.0745 4.19805C11.3464 4.03587 11.6182 3.81963 11.8901 3.60339L12.8687 2.57625C13.4668 2.03565 14.3367 1.87347 15.0979 2.25189C15.6416 2.41407 16.2396 2.41407 16.7833 2.25189C17.5989 1.98159 18.5232 2.19783 19.1756 2.79249L19.9912 3.60339C20.2086 3.87369 20.4805 4.03587 20.8067 4.19805Z" fill="#242324"/>
<path d="M20.8067 4.19805L21.2417 4.41429C22.0028 4.79271 22.4378 5.65767 22.2747 6.57669L21.6766 9.65811C21.6233 9.97635 21.4129 10.1905 21.0969 10.1985C21.0908 10.1986 21.0847 10.1987 21.0786 10.1987C21.0786 10.1987 21.1329 9.27966 21.1873 8.73906C21.2314 8.30007 21.1548 8.16615 20.7523 7.76598C20.5349 7.54974 20.3717 7.22538 20.3717 6.90102V6.03606C20.3717 5.76576 20.1543 5.54952 19.9368 5.49546C19.2844 5.33328 17.9251 5.06298 15.9678 5.06298C14.0105 5.06298 12.6513 5.33328 11.9988 5.49546C11.727 5.54952 11.5639 5.76576 11.5639 6.03606V6.90102C11.5639 7.22538 11.4551 7.54974 11.1833 7.76598L11.0202 7.92816C10.8027 8.09034 10.6939 8.4147 10.6939 8.685C10.7483 9.27966 10.8027 10.1446 10.8027 10.1446C10.786 10.1446 10.7694 10.1441 10.753 10.1429C10.4492 10.1222 10.2018 9.91178 10.1502 9.60405L9.55218 6.52263C9.44344 5.65767 9.8784 4.79271 10.6396 4.41429L11.0745 4.19805C11.3464 4.03587 11.6182 3.81963 11.8901 3.60339L12.8687 2.57625C13.4668 2.03565 14.3367 1.87347 15.0979 2.25189C15.6416 2.41407 16.2396 2.41407 16.7833 2.25189C17.5989 1.98159 18.5232 2.19783 19.1756 2.79249L19.9912 3.60339C20.2086 3.87369 20.4805 4.03587 20.8067 4.19805Z" fill="url(#paint36_radial_4002_793)"/>
<path d="M20.8067 4.19805L21.2417 4.41429C22.0028 4.79271 22.4378 5.65767 22.2747 6.57669L21.6766 9.65811C21.6233 9.97635 21.4129 10.1905 21.0969 10.1985C21.0908 10.1986 21.0847 10.1987 21.0786 10.1987C21.0786 10.1987 21.1329 9.27966 21.1873 8.73906C21.2314 8.30007 21.1548 8.16615 20.7523 7.76598C20.5349 7.54974 20.3717 7.22538 20.3717 6.90102V6.03606C20.3717 5.76576 20.1543 5.54952 19.9368 5.49546C19.2844 5.33328 17.9251 5.06298 15.9678 5.06298C14.0105 5.06298 12.6513 5.33328 11.9988 5.49546C11.727 5.54952 11.5639 5.76576 11.5639 6.03606V6.90102C11.5639 7.22538 11.4551 7.54974 11.1833 7.76598L11.0202 7.92816C10.8027 8.09034 10.6939 8.4147 10.6939 8.685C10.7483 9.27966 10.8027 10.1446 10.8027 10.1446C10.786 10.1446 10.7694 10.1441 10.753 10.1429C10.4492 10.1222 10.2018 9.91178 10.1502 9.60405L9.55218 6.52263C9.44344 5.65767 9.8784 4.79271 10.6396 4.41429L11.0745 4.19805C11.3464 4.03587 11.6182 3.81963 11.8901 3.60339L12.8687 2.57625C13.4668 2.03565 14.3367 1.87347 15.0979 2.25189C15.6416 2.41407 16.2396 2.41407 16.7833 2.25189C17.5989 1.98159 18.5232 2.19783 19.1756 2.79249L19.9912 3.60339C20.2086 3.87369 20.4805 4.03587 20.8067 4.19805Z" fill="url(#paint37_radial_4002_793)"/>
<path d="M20.8067 4.19805L21.2417 4.41429C22.0028 4.79271 22.4378 5.65767 22.2747 6.57669L21.6766 9.65811C21.6233 9.97635 21.4129 10.1905 21.0969 10.1985C21.0908 10.1986 21.0847 10.1987 21.0786 10.1987C21.0786 10.1987 21.1329 9.27966 21.1873 8.73906C21.2314 8.30007 21.1548 8.16615 20.7523 7.76598C20.5349 7.54974 20.3717 7.22538 20.3717 6.90102V6.03606C20.3717 5.76576 20.1543 5.54952 19.9368 5.49546C19.2844 5.33328 17.9251 5.06298 15.9678 5.06298C14.0105 5.06298 12.6513 5.33328 11.9988 5.49546C11.727 5.54952 11.5639 5.76576 11.5639 6.03606V6.90102C11.5639 7.22538 11.4551 7.54974 11.1833 7.76598L11.0202 7.92816C10.8027 8.09034 10.6939 8.4147 10.6939 8.685C10.7483 9.27966 10.8027 10.1446 10.8027 10.1446C10.786 10.1446 10.7694 10.1441 10.753 10.1429C10.4492 10.1222 10.2018 9.91178 10.1502 9.60405L9.55218 6.52263C9.44344 5.65767 9.8784 4.79271 10.6396 4.41429L11.0745 4.19805C11.3464 4.03587 11.6182 3.81963 11.8901 3.60339L12.8687 2.57625C13.4668 2.03565 14.3367 1.87347 15.0979 2.25189C15.6416 2.41407 16.2396 2.41407 16.7833 2.25189C17.5989 1.98159 18.5232 2.19783 19.1756 2.79249L19.9912 3.60339C20.2086 3.87369 20.4805 4.03587 20.8067 4.19805Z" fill="url(#paint38_radial_4002_793)"/>
<path d="M20.8067 4.19805L21.2417 4.41429C22.0028 4.79271 22.4378 5.65767 22.2747 6.57669L21.6766 9.65811C21.6233 9.97635 21.4129 10.1905 21.0969 10.1985C21.0908 10.1986 21.0847 10.1987 21.0786 10.1987C21.0786 10.1987 21.1329 9.27966 21.1873 8.73906C21.2314 8.30007 21.1548 8.16615 20.7523 7.76598C20.5349 7.54974 20.3717 7.22538 20.3717 6.90102V6.03606C20.3717 5.76576 20.1543 5.54952 19.9368 5.49546C19.2844 5.33328 17.9251 5.06298 15.9678 5.06298C14.0105 5.06298 12.6513 5.33328 11.9988 5.49546C11.727 5.54952 11.5639 5.76576 11.5639 6.03606V6.90102C11.5639 7.22538 11.4551 7.54974 11.1833 7.76598L11.0202 7.92816C10.8027 8.09034 10.6939 8.4147 10.6939 8.685C10.7483 9.27966 10.8027 10.1446 10.8027 10.1446C10.786 10.1446 10.7694 10.1441 10.753 10.1429C10.4492 10.1222 10.2018 9.91178 10.1502 9.60405L9.55218 6.52263C9.44344 5.65767 9.8784 4.79271 10.6396 4.41429L11.0745 4.19805C11.3464 4.03587 11.6182 3.81963 11.8901 3.60339L12.8687 2.57625C13.4668 2.03565 14.3367 1.87347 15.0979 2.25189C15.6416 2.41407 16.2396 2.41407 16.7833 2.25189C17.5989 1.98159 18.5232 2.19783 19.1756 2.79249L19.9912 3.60339C20.2086 3.87369 20.4805 4.03587 20.8067 4.19805Z" fill="url(#paint39_radial_4002_793)"/>
</g>
<g filter="url(#filter9_f_4002_793)">
<path d="M15.6432 10.6402L14.8117 12.363C14.7086 12.7173 14.956 13.0717 15.3064 13.0717H16.0537C16.4041 13.0717 16.6515 12.7119 16.5484 12.363L16.0434 10.6402C15.9351 10.2586 15.7566 10.2586 15.6432 10.6402Z" fill="#D89992"/>
</g>
<g filter="url(#filter10_f_4002_793)">
<path d="M15.5349 10.4747L14.9963 12.1974C14.8864 12.5518 15.1502 12.9062 15.5239 12.9062H16.3208C16.6945 12.9062 16.9583 12.5463 16.8484 12.1974L16.3098 10.4747C16.1944 10.0931 15.6558 10.0931 15.5349 10.4747Z" fill="#FBC4B1"/>
<path d="M15.5349 10.4747L14.9963 12.1974C14.8864 12.5518 15.1502 12.9062 15.5239 12.9062H16.3208C16.6945 12.9062 16.9583 12.5463 16.8484 12.1974L16.3098 10.4747C16.1944 10.0931 15.6558 10.0931 15.5349 10.4747Z" fill="url(#paint40_linear_4002_793)"/>
<path d="M15.5349 10.4747L14.9963 12.1974C14.8864 12.5518 15.1502 12.9062 15.5239 12.9062H16.3208C16.6945 12.9062 16.9583 12.5463 16.8484 12.1974L16.3098 10.4747C16.1944 10.0931 15.6558 10.0931 15.5349 10.4747Z" fill="url(#paint41_linear_4002_793)"/>
<path d="M15.5349 10.4747L14.9963 12.1974C14.8864 12.5518 15.1502 12.9062 15.5239 12.9062H16.3208C16.6945 12.9062 16.9583 12.5463 16.8484 12.1974L16.3098 10.4747C16.1944 10.0931 15.6558 10.0931 15.5349 10.4747Z" fill="url(#paint42_linear_4002_793)"/>
<path d="M15.5349 10.4747L14.9963 12.1974C14.8864 12.5518 15.1502 12.9062 15.5239 12.9062H16.3208C16.6945 12.9062 16.9583 12.5463 16.8484 12.1974L16.3098 10.4747C16.1944 10.0931 15.6558 10.0931 15.5349 10.4747Z" fill="url(#paint43_radial_4002_793)"/>
</g>
<path d="M14.5413 13.5593L14.5413 13.5593C14.9401 13.7673 15.4156 13.8865 15.9221 13.8865C16.4337 13.8865 16.9041 13.7673 17.303 13.5593L17.3034 13.5591L17.3034 13.5591C17.3944 13.5128 17.4898 13.5396 17.5472 13.5992C17.6053 13.6595 17.6265 13.7558 17.5683 13.8431M14.5413 13.5593L17.5267 13.8155M14.5413 13.5593L14.5408 13.5591C14.4491 13.5125 14.3536 13.5415 14.2968 13.6014C14.2396 13.6615 14.2172 13.7579 14.2761 13.8435M14.5413 13.5593L14.3176 13.8155M17.5683 13.8431C17.5683 13.8431 17.5683 13.8432 17.5683 13.8432L17.5267 13.8155M17.5683 13.8431C17.5683 13.8431 17.5684 13.843 17.5684 13.843L17.5267 13.8155M17.5683 13.8431C17.2199 14.371 16.6131 14.7228 15.9221 14.7228C15.2313 14.7228 14.6246 14.3712 14.2761 13.8435M17.5267 13.8155C17.1872 14.3298 16.5958 14.6728 15.9221 14.6728C15.2484 14.6728 14.657 14.3298 14.3176 13.8155M14.2761 13.8435C14.2763 13.8436 14.2764 13.8438 14.2765 13.844L14.3176 13.8155M14.2761 13.8435C14.276 13.8433 14.2759 13.8432 14.2758 13.843L14.3176 13.8155" fill="#88024E" stroke="url(#paint44_linear_4002_793)" stroke-width="0.1"/>
<g filter="url(#filter11_i_4002_793)">
<path d="M19.6925 8.00703L19.6913 8.00599L19.6894 8.00443L19.6848 8.00073L19.6727 7.99106C19.6632 7.98366 19.6511 7.97436 19.6363 7.96351C19.6067 7.94182 19.5663 7.91378 19.5157 7.88209C19.4148 7.81888 19.2715 7.74012 19.0903 7.66847C18.7264 7.52461 18.2068 7.40871 17.5773 7.50811C17.2822 7.5547 17.0807 7.83171 17.1273 8.12681C17.1739 8.42192 17.4509 8.62338 17.746 8.57678C18.1492 8.51312 18.4721 8.58746 18.6925 8.6746C18.8034 8.71845 18.8878 8.76539 18.9414 8.79899C18.9681 8.81571 18.9868 8.82886 18.9969 8.83626C19.0011 8.83934 19.0037 8.84139 19.0049 8.84227C19.2343 9.02934 19.5722 8.99722 19.7622 8.76923C19.9534 8.53972 19.922 8.19829 19.6925 8.00703Z" fill="#1E1E1E"/>
</g>
<g filter="url(#filter12_i_4002_793)">
<path d="M12.0972 8.00735L12.098 8.00669L12.0989 8.00599L12.1008 8.00443L12.1053 8.00073L12.1175 7.99106C12.1269 7.98366 12.1391 7.97436 12.1539 7.96351C12.1835 7.94182 12.2239 7.91378 12.2744 7.88209C12.3754 7.81888 12.5186 7.74012 12.6999 7.66847C13.0638 7.52461 13.5834 7.40871 14.2129 7.50811C14.508 7.5547 14.7095 7.83171 14.6629 8.12681C14.6163 8.42192 14.3393 8.62337 14.0442 8.57678C13.6409 8.51312 13.3181 8.58746 13.0977 8.6746C12.9867 8.71845 12.9024 8.76539 12.8488 8.79899C12.8221 8.81571 12.8034 8.82886 12.7933 8.83626C12.7891 8.83934 12.7864 8.84139 12.7853 8.84227C12.5558 9.02934 12.218 8.99722 12.028 8.76923C11.8367 8.53972 11.8677 8.19861 12.0972 8.00735Z" fill="#1E1E1E"/>
</g>
<path d="M18.3426 9.31396C19.0045 9.31396 19.5636 9.77027 19.7157 10.3869C19.7609 10.5637 19.6252 10.7322 19.4444 10.7322H17.1834C17.0395 10.7322 16.9244 10.6007 16.9532 10.4568C17.0806 9.80727 17.652 9.31396 18.3426 9.31396Z" fill="white"/>
<path d="M18.1326 9.58936C18.6341 9.58936 19.037 9.99633 19.037 10.4937C19.037 10.576 19.0247 10.6582 19.0041 10.7322H17.257C17.2365 10.6541 17.2241 10.576 17.2241 10.4937C17.2241 9.99633 17.6311 9.58936 18.1326 9.58936Z" fill="url(#paint45_radial_4002_793)"/>
<path d="M17.6147 10.4936C17.6147 10.2058 17.845 9.97559 18.1327 9.97559C18.4205 9.97559 18.6507 10.2058 18.6507 10.4936C18.6507 10.5799 18.6301 10.6621 18.5931 10.732H17.6764C17.6353 10.6621 17.6147 10.5799 17.6147 10.4936Z" fill="black"/>
<g filter="url(#filter13_f_4002_793)">
<path d="M18.0662 9.78048C18.1307 9.86666 17.996 9.97172 17.8429 10.0862C17.6897 10.2007 17.5761 10.2813 17.5117 10.1951C17.4473 10.1089 17.5192 9.94625 17.6723 9.83175C17.8254 9.71726 18.0018 9.6943 18.0662 9.78048Z" fill="#C7A7A3"/>
<path d="M18.0662 9.78048C18.1307 9.86666 17.996 9.97172 17.8429 10.0862C17.6897 10.2007 17.5761 10.2813 17.5117 10.1951C17.4473 10.1089 17.5192 9.94625 17.6723 9.83175C17.8254 9.71726 18.0018 9.6943 18.0662 9.78048Z" fill="url(#paint46_radial_4002_793)"/>
</g>
<g filter="url(#filter14_f_4002_793)">
<path d="M18.9385 10.3747C18.9051 10.1409 18.7683 9.96464 18.704 9.90576L18.4407 10.1948L18.5595 10.426L18.9385 10.3747Z" fill="url(#paint47_linear_4002_793)"/>
</g>
<path d="M13.4966 9.31372C12.8347 9.31372 12.2756 9.77005 12.1235 10.3867C12.0783 10.5635 12.214 10.732 12.3948 10.732H14.6559C14.7998 10.732 14.9149 10.6005 14.8862 10.4566C14.7587 9.80705 14.1832 9.31372 13.4966 9.31372Z" fill="white"/>
<path d="M13.7062 9.58911C13.2046 9.58911 12.8018 9.99611 12.8018 10.4935C12.8018 10.5758 12.8141 10.658 12.8346 10.732H14.5819C14.6024 10.6539 14.6147 10.5758 14.6147 10.4935C14.6106 9.99611 14.2077 9.58911 13.7062 9.58911Z" fill="url(#paint48_radial_4002_793)"/>
<path d="M14.2242 10.4936C14.2242 10.2058 13.994 9.97559 13.7062 9.97559C13.4185 9.97559 13.1882 10.2058 13.1882 10.4936C13.1882 10.5799 13.2088 10.6621 13.2458 10.732H14.1626C14.1996 10.6621 14.2242 10.5799 14.2242 10.4936Z" fill="black"/>
<g filter="url(#filter15_f_4002_793)">
<path d="M14.5327 10.3873C14.5327 10.095 14.295 9.90019 14.2307 9.84131L13.9385 10.1239L14.1183 10.4901L14.5327 10.3873Z" fill="url(#paint49_linear_4002_793)"/>
</g>
<g filter="url(#filter16_f_4002_793)">
<ellipse cx="13.4334" cy="9.97562" rx="0.394835" ry="0.199823" transform="rotate(-27.914 13.4334 9.97562)" fill="#C7A7A3" fill-opacity="0.9"/>
<ellipse cx="13.4334" cy="9.97562" rx="0.394835" ry="0.199823" transform="rotate(-27.914 13.4334 9.97562)" fill="url(#paint50_radial_4002_793)"/>
</g>
<g filter="url(#filter17_f_4002_793)">
<path d="M17.6055 7.86036C18.0414 7.78407 18.8915 7.80587 19.48 8.26361" stroke="url(#paint51_linear_4002_793)" stroke-width="0.25" stroke-linecap="round"/>
</g>
<g filter="url(#filter18_f_4002_793)">
<path d="M12.3146 8.38596C12.6462 8.09287 13.3704 7.78427 14.268 7.92735" stroke="url(#paint52_linear_4002_793)" stroke-width="0.25" stroke-linecap="round"/>
</g>
<g filter="url(#filter19_f_4002_793)">
<path d="M11.3276 5.88721V6.79697C11.3196 6.9476 11.2562 7.28455 11.0659 7.42726" stroke="url(#paint53_linear_4002_793)" stroke-width="0.25" stroke-linecap="round"/>
</g>
<defs>
<filter id="filter0_i_4002_793" x="12.2925" y="16.5168" width="6.90628" height="10.9375" filterUnits="userSpaceOnUse" color-interpolation-filters="sRGB">
<feFlood flood-opacity="0" result="BackgroundImageFix"/>
<feBlend mode="normal" in="SourceGraphic" in2="BackgroundImageFix" result="shape"/>
<feColorMatrix in="SourceAlpha" type="matrix" values="0 0 0 0 0 0 0 0 0 0 0 0 0 0 0 0 0 0 127 0" result="hardAlpha"/>
<feOffset dx="-0.25"/>
<feGaussianBlur stdDeviation="0.5"/>
<feComposite in2="hardAlpha" operator="arithmetic" k2="-1" k3="1"/>
<feColorMatrix type="matrix" values="0 0 0 0 0.854902 0 0 0 0 0.568627 0 0 0 0 0.454902 0 0 0 1 0"/>
<feBlend mode="normal" in2="shape" result="effect1_innerShadow_4002_793"/>
</filter>
<filter id="filter1_f_4002_793" x="15.2513" y="17.2748" width="3.0755" height="1.97661" filterUnits="userSpaceOnUse" color-interpolation-filters="sRGB">
<feFlood flood-opacity="0" result="BackgroundImageFix"/>
<feBlend mode="normal" in="SourceGraphic" in2="BackgroundImageFix" result="shape"/>
<feGaussianBlur stdDeviation="0.3" result="effect1_foregroundBlur_4002_793"/>
</filter>
<filter id="filter2_i_4002_793" x="9.41748" y="9.07178" width="3.58437" height="3.3844" filterUnits="userSpaceOnUse" color-interpolation-filters="sRGB">
<feFlood flood-opacity="0" result="BackgroundImageFix"/>
<feBlend mode="normal" in="SourceGraphic" in2="BackgroundImageFix" result="shape"/>
<feColorMatrix in="SourceAlpha" type="matrix" values="0 0 0 0 0 0 0 0 0 0 0 0 0 0 0 0 0 0 127 0" result="hardAlpha"/>
<feOffset dx="0.2"/>
<feGaussianBlur stdDeviation="0.15"/>
<feComposite in2="hardAlpha" operator="arithmetic" k2="-1" k3="1"/>
<feColorMatrix type="matrix" values="0 0 0 0 0.917647 0 0 0 0 0.694118 0 0 0 0 0.607843 0 0 0 1 0"/>
<feBlend mode="normal" in2="shape" result="effect1_innerShadow_4002_793"/>
</filter>
<filter id="filter3_f_4002_793" x="9.60107" y="9.25537" width="3.01703" height="3.01709" filterUnits="userSpaceOnUse" color-interpolation-filters="sRGB">
<feFlood flood-opacity="0" result="BackgroundImageFix"/>
<feBlend mode="normal" in="SourceGraphic" in2="BackgroundImageFix" result="shape"/>
<feGaussianBlur stdDeviation="0.25" result="effect1_foregroundBlur_4002_793"/>
</filter>
<filter id="filter4_i_4002_793" x="19.0603" y="8.82178" width="3.63437" height="3.6344" filterUnits="userSpaceOnUse" color-interpolation-filters="sRGB">
<feFlood flood-opacity="0" result="BackgroundImageFix"/>
<feBlend mode="normal" in="SourceGraphic" in2="BackgroundImageFix" result="shape"/>
<feColorMatrix in="SourceAlpha" type="matrix" values="0 0 0 0 0 0 0 0 0 0 0 0 0 0 0 0 0 0 127 0" result="hardAlpha"/>
<feOffset dx="0.25" dy="-0.25"/>
<feGaussianBlur stdDeviation="0.25"/>
<feComposite in2="hardAlpha" operator="arithmetic" k2="-1" k3="1"/>
<feColorMatrix type="matrix" values="0 0 0 0 0.843137 0 0 0 0 0.623529 0 0 0 0 0.580392 0 0 0 1 0"/>
<feBlend mode="normal" in2="shape" result="effect1_innerShadow_4002_793"/>
</filter>
<filter id="filter5_f_4002_793" x="19.2439" y="9.25537" width="3.01703" height="3.01709" filterUnits="userSpaceOnUse" color-interpolation-filters="sRGB">
<feFlood flood-opacity="0" result="BackgroundImageFix"/>
<feBlend mode="normal" in="SourceGraphic" in2="BackgroundImageFix" result="shape"/>
<feGaussianBlur stdDeviation="0.25" result="effect1_foregroundBlur_4002_793"/>
</filter>
<filter id="filter6_i_4002_793" x="10.6938" y="5.06299" width="10.5149" height="12.4417" filterUnits="userSpaceOnUse" color-interpolation-filters="sRGB">
<feFlood flood-opacity="0" result="BackgroundImageFix"/>
<feBlend mode="normal" in="SourceGraphic" in2="BackgroundImageFix" result="shape"/>
<feColorMatrix in="SourceAlpha" type="matrix" values="0 0 0 0 0 0 0 0 0 0 0 0 0 0 0 0 0 0 127 0" result="hardAlpha"/>
<feOffset dy="0.25"/>
<feGaussianBlur stdDeviation="0.375"/>
<feComposite in2="hardAlpha" operator="arithmetic" k2="-1" k3="1"/>
<feColorMatrix type="matrix" values="0 0 0 0 0.819608 0 0 0 0 0.615686 0 0 0 0 0.509804 0 0 0 1 0"/>
<feBlend mode="normal" in2="shape" result="effect1_innerShadow_4002_793"/>
</filter>
<filter id="filter7_f_4002_793" x="14.0945" y="3.06299" width="8.30389" height="7.1084" filterUnits="userSpaceOnUse" color-interpolation-filters="sRGB">
<feFlood flood-opacity="0" result="BackgroundImageFix"/>
<feBlend mode="normal" in="SourceGraphic" in2="BackgroundImageFix" result="shape"/>
<feGaussianBlur stdDeviation="1" result="effect1_foregroundBlur_4002_793"/>
</filter>
<filter id="filter8_i_4002_793" x="9.53564" y="1.54565" width="12.7731" height="8.65308" filterUnits="userSpaceOnUse" color-interpolation-filters="sRGB">
<feFlood flood-opacity="0" result="BackgroundImageFix"/>
<feBlend mode="normal" in="SourceGraphic" in2="BackgroundImageFix" result="shape"/>
<feColorMatrix in="SourceAlpha" type="matrix" values="0 0 0 0 0 0 0 0 0 0 0 0 0 0 0 0 0 0 127 0" result="hardAlpha"/>
<feOffset dy="-0.5"/>
<feGaussianBlur stdDeviation="0.375"/>
<feComposite in2="hardAlpha" operator="arithmetic" k2="-1" k3="1"/>
<feColorMatrix type="matrix" values="0 0 0 0 0.0392157 0 0 0 0 0.00784314 0 0 0 0 0.0196078 0 0 0 1 0"/>
<feBlend mode="normal" in2="shape" result="effect1_innerShadow_4002_793"/>
</filter>
<filter id="filter9_f_4002_793" x="14.0381" y="9.604" width="3.28392" height="4.21765" filterUnits="userSpaceOnUse" color-interpolation-filters="sRGB">
<feFlood flood-opacity="0" result="BackgroundImageFix"/>
<feBlend mode="normal" in="SourceGraphic" in2="BackgroundImageFix" result="shape"/>
<feGaussianBlur stdDeviation="0.375" result="effect1_foregroundBlur_4002_793"/>
</filter>
<filter id="filter10_f_4002_793" x="14.7212" y="9.93848" width="2.40237" height="3.21765" filterUnits="userSpaceOnUse" color-interpolation-filters="sRGB">
<feFlood flood-opacity="0" result="BackgroundImageFix"/>
<feBlend mode="normal" in="SourceGraphic" in2="BackgroundImageFix" result="shape"/>
<feGaussianBlur stdDeviation="0.125" result="effect1_foregroundBlur_4002_793"/>
</filter>
<filter id="filter11_i_4002_793" x="17.1206" y="7.07095" width="3.01682" height="1.89292" filterUnits="userSpaceOnUse" color-interpolation-filters="sRGB">
<feFlood flood-opacity="0" result="BackgroundImageFix"/>
<feBlend mode="normal" in="SourceGraphic" in2="BackgroundImageFix" result="shape"/>
<feColorMatrix in="SourceAlpha" type="matrix" values="0 0 0 0 0 0 0 0 0 0 0 0 0 0 0 0 0 0 127 0" result="hardAlpha"/>
<feOffset dx="0.25" dy="-0.4"/>
<feGaussianBlur stdDeviation="0.3"/>
<feComposite in2="hardAlpha" operator="arithmetic" k2="-1" k3="1"/>
<feColorMatrix type="matrix" values="0 0 0 0 0.0431373 0 0 0 0 0.0196078 0 0 0 0 0.027451 0 0 0 1 0"/>
<feBlend mode="normal" in2="shape" result="effect1_innerShadow_4002_793"/>
</filter>
<filter id="filter12_i_4002_793" x="11.9026" y="7.07095" width="3.01697" height="1.89292" filterUnits="userSpaceOnUse" color-interpolation-filters="sRGB">
<feFlood flood-opacity="0" result="BackgroundImageFix"/>
<feBlend mode="normal" in="SourceGraphic" in2="BackgroundImageFix" result="shape"/>
<feColorMatrix in="SourceAlpha" type="matrix" values="0 0 0 0 0 0 0 0 0 0 0 0 0 0 0 0 0 0 127 0" result="hardAlpha"/>
<feOffset dx="0.25" dy="-0.4"/>
<feGaussianBlur stdDeviation="0.3"/>
<feComposite in2="hardAlpha" operator="arithmetic" k2="-1" k3="1"/>
<feColorMatrix type="matrix" values="0 0 0 0 0.0431373 0 0 0 0 0.0196078 0 0 0 0 0.027451 0 0 0 1 0"/>
<feBlend mode="normal" in2="shape" result="effect1_innerShadow_4002_793"/>
</filter>
<filter id="filter13_f_4002_793" x="17.3881" y="9.62827" width="0.794681" height="0.70293" filterUnits="userSpaceOnUse" color-interpolation-filters="sRGB">
<feFlood flood-opacity="0" result="BackgroundImageFix"/>
<feBlend mode="normal" in="SourceGraphic" in2="BackgroundImageFix" result="shape"/>
<feGaussianBlur stdDeviation="0.05" result="effect1_foregroundBlur_4002_793"/>
</filter>
<filter id="filter14_f_4002_793" x="18.2407" y="9.70576" width="0.897803" height="0.920264" filterUnits="userSpaceOnUse" color-interpolation-filters="sRGB">
<feFlood flood-opacity="0" result="BackgroundImageFix"/>
<feBlend mode="normal" in="SourceGraphic" in2="BackgroundImageFix" result="shape"/>
<feGaussianBlur stdDeviation="0.1" result="effect1_foregroundBlur_4002_793"/>
</filter>
<filter id="filter15_f_4002_793" x="13.7385" y="9.64131" width="0.994177" height="1.0488" filterUnits="userSpaceOnUse" color-interpolation-filters="sRGB">
<feFlood flood-opacity="0" result="BackgroundImageFix"/>
<feBlend mode="normal" in="SourceGraphic" in2="BackgroundImageFix" result="shape"/>
<feGaussianBlur stdDeviation="0.1" result="effect1_foregroundBlur_4002_793"/>
</filter>
<filter id="filter16_f_4002_793" x="12.9721" y="9.61997" width="0.922626" height="0.71123" filterUnits="userSpaceOnUse" color-interpolation-filters="sRGB">
<feFlood flood-opacity="0" result="BackgroundImageFix"/>
<feBlend mode="normal" in="SourceGraphic" in2="BackgroundImageFix" result="shape"/>
<feGaussianBlur stdDeviation="0.05" result="effect1_foregroundBlur_4002_793"/>
</filter>
<filter id="filter17_f_4002_793" x="16.9805" y="7.20166" width="3.1246" height="1.68701" filterUnits="userSpaceOnUse" color-interpolation-filters="sRGB">
<feFlood flood-opacity="0" result="BackgroundImageFix"/>
<feBlend mode="normal" in="SourceGraphic" in2="BackgroundImageFix" result="shape"/>
<feGaussianBlur stdDeviation="0.25" result="effect1_foregroundBlur_4002_793"/>
</filter>
<filter id="filter18_f_4002_793" x="11.6896" y="7.26624" width="3.20341" height="1.74475" filterUnits="userSpaceOnUse" color-interpolation-filters="sRGB">
<feFlood flood-opacity="0" result="BackgroundImageFix"/>
<feBlend mode="normal" in="SourceGraphic" in2="BackgroundImageFix" result="shape"/>
<feGaussianBlur stdDeviation="0.25" result="effect1_foregroundBlur_4002_793"/>
</filter>
<filter id="filter19_f_4002_793" x="10.6909" y="5.51221" width="1.01164" height="2.29004" filterUnits="userSpaceOnUse" color-interpolation-filters="sRGB">
<feFlood flood-opacity="0" result="BackgroundImageFix"/>
<feBlend mode="normal" in="SourceGraphic" in2="BackgroundImageFix" result="shape"/>
<feGaussianBlur stdDeviation="0.125" result="effect1_foregroundBlur_4002_793"/>
</filter>
<radialGradient id="paint0_radial_4002_793" cx="0" cy="0" r="1" gradientUnits="userSpaceOnUse" gradientTransform="translate(6.87695 17.3293) rotate(-34.1475) scale(4.3424 4.86032)">
<stop stop-color="#E1DAE6"/>
<stop offset="1" stop-color="#E6DEE6"/>
</radialGradient>
<radialGradient id="paint1_radial_4002_793" cx="0" cy="0" r="1" gradientUnits="userSpaceOnUse" gradientTransform="translate(8.5957 17.8293) rotate(-90.507) scale(1.76569 2.48234)">
<stop offset="0.384246" stop-color="#DAD4DE"/>
<stop offset="1" stop-color="#DAD4DE" stop-opacity="0"/>
</radialGradient>
<radialGradient id="paint2_radial_4002_793" cx="0" cy="0" r="1" gradientUnits="userSpaceOnUse" gradientTransform="translate(10.4606 19.2684) rotate(120.038) scale(10.9302 8.11064)">
<stop stop-color="#E0D6E3"/>
<stop offset="1" stop-color="#D5C4DF"/>
</radialGradient>
<radialGradient id="paint3_radial_4002_793" cx="0" cy="0" r="1" gradientUnits="userSpaceOnUse" gradientTransform="translate(0.404177 1.46024) rotate(44.4438) scale(4.68833)">
<stop stop-color="#FBF7FF"/>
<stop offset="0.835815" stop-color="#F2E8F1"/>
</radialGradient>
<radialGradient id="paint4_radial_4002_793" cx="0" cy="0" r="1" gradientUnits="userSpaceOnUse" gradientTransform="translate(2.31641 5.3125) rotate(-91.1233) scale(1.59406 5.11483)">
<stop offset="0.201384" stop-color="#E8DEE9"/>
<stop offset="1" stop-color="#E8DEE9" stop-opacity="0"/>
</radialGradient>
<radialGradient id="paint5_radial_4002_793" cx="0" cy="0" r="1" gradientUnits="userSpaceOnUse" gradientTransform="translate(1.35234 1.23915) rotate(55.9851) scale(8.85283 12.8565)">
<stop offset="0.192089" stop-color="#F3EBFE"/>
<stop offset="0.819302" stop-color="#DAC9F0"/>
</radialGradient>
<radialGradient id="paint6_radial_4002_793" cx="0" cy="0" r="1" gradientUnits="userSpaceOnUse" gradientTransform="translate(23.0957 22.5793) rotate(103.232) scale(5.93892 6.99802)">
<stop stop-color="#469FF7"/>
<stop offset="1" stop-color="#3984F1"/>
</radialGradient>
<linearGradient id="paint7_linear_4002_793" x1="24.1582" y1="30.3293" x2="24.1895" y2="26.6731" gradientUnits="userSpaceOnUse">
<stop offset="0.078159" stop-color="#286AF0"/>
<stop offset="1" stop-color="#3A87F2" stop-opacity="0"/>
</linearGradient>
<linearGradient id="paint8_linear_4002_793" x1="18.1205" y1="27.7651" x2="19.4722" y2="28.1513" gradientUnits="userSpaceOnUse">
<stop stop-color="#2F6FEC"/>
<stop offset="1" stop-color="#2F6FEC" stop-opacity="0"/>
</linearGradient>
<radialGradient id="paint9_radial_4002_793" cx="0" cy="0" r="1" gradientUnits="userSpaceOnUse" gradientTransform="translate(6.41827 22.3195) rotate(49.5798) scale(10.6026 14.7076)">
<stop stop-color="#4488CB"/>
<stop offset="1" stop-color="#2878EA"/>
</radialGradient>
<linearGradient id="paint10_linear_4002_793" x1="13.9277" y1="28.4934" x2="11.6777" y2="29.2747" gradientUnits="userSpaceOnUse">
<stop stop-color="#1D63C8"/>
<stop offset="1" stop-color="#2772E0" stop-opacity="0"/>
</linearGradient>
<radialGradient id="paint11_radial_4002_793" cx="0" cy="0" r="1" gradientUnits="userSpaceOnUse" gradientTransform="translate(13.7517 16.3918) rotate(136.439) scale(4.39871 9.16434)">
<stop offset="0.208029" stop-color="#1D4C88"/>
<stop offset="1" stop-color="#296094" stop-opacity="0"/>
</radialGradient>
<linearGradient id="paint12_linear_4002_793" x1="12.3142" y1="27.3918" x2="13.6892" y2="26.8293" gradientUnits="userSpaceOnUse">
<stop offset="0.223009" stop-color="#3A7CD9"/>
<stop offset="1" stop-color="#3A7CD9" stop-opacity="0"/>
</linearGradient>
<radialGradient id="paint13_radial_4002_793" cx="0" cy="0" r="1" gradientUnits="userSpaceOnUse" gradientTransform="translate(15.9575 28.9623) rotate(-112.485) scale(12.6232 1.44125)">
<stop offset="0.318404" stop-color="#4690E8"/>
<stop offset="1" stop-color="#4690E8" stop-opacity="0"/>
</radialGradient>
<linearGradient id="paint14_linear_4002_793" x1="15.6267" y1="30.1731" x2="14.2205" y2="29.4856" gradientUnits="userSpaceOnUse">
<stop offset="0.208449" stop-color="#236DD3"/>
<stop offset="1" stop-color="#236DD3" stop-opacity="0"/>
</linearGradient>
<radialGradient id="paint15_radial_4002_793" cx="0" cy="0" r="1" gradientUnits="userSpaceOnUse" gradientTransform="translate(16.3455 27.5793) rotate(-113.515) scale(3.44074 1.00436)">
<stop stop-color="#214186"/>
<stop offset="1" stop-color="#1F78C3" stop-opacity="0"/>
</radialGradient>
<radialGradient id="paint16_radial_4002_793" cx="0" cy="0" r="1" gradientUnits="userSpaceOnUse" gradientTransform="translate(14.3354 18.5153) rotate(-134.526) scale(1.65227 2.27836)">
<stop offset="0.328097" stop-color="#083169"/>
<stop offset="1" stop-color="#18467E" stop-opacity="0"/>
</radialGradient>
<linearGradient id="paint17_linear_4002_793" x1="16.0017" y1="24.8293" x2="18.033" y2="25.7356" gradientUnits="userSpaceOnUse">
<stop stop-color="#4B6B9A"/>
<stop offset="1" stop-color="#4B6B9A" stop-opacity="0"/>
</linearGradient>
<radialGradient id="paint18_radial_4002_793" cx="0" cy="0" r="1" gradientUnits="userSpaceOnUse" gradientTransform="translate(17.5017 18.3293) rotate(-18.435) scale(2.12466 2.63791)">
<stop offset="0.374338" stop-color="#114273"/>
<stop offset="1" stop-color="#245A89" stop-opacity="0"/>
</radialGradient>
<radialGradient id="paint19_radial_4002_793" cx="0" cy="0" r="1" gradientUnits="userSpaceOnUse" gradientTransform="translate(20.4705 22.4856) rotate(110.875) scale(11.8396 2.00952)">
<stop stop-color="#4A9CF7"/>
<stop offset="1" stop-color="#4695F7" stop-opacity="0"/>
</radialGradient>
<linearGradient id="paint20_linear_4002_793" x1="16.3665" y1="25.1455" x2="16.3665" y2="15.619" gradientUnits="userSpaceOnUse">
<stop stop-color="#F1B6A2"/>
<stop offset="1" stop-color="#FABFA6"/>
</linearGradient>
<radialGradient id="paint21_radial_4002_793" cx="0" cy="0" r="1" gradientUnits="userSpaceOnUse" gradientTransform="translate(13.1582 17.2043) rotate(43.9949) scale(2.51946 3.15328)">
<stop stop-color="#C3705C"/>
<stop offset="1" stop-color="#DF9981" stop-opacity="0"/>
</radialGradient>
<radialGradient id="paint22_radial_4002_793" cx="0" cy="0" r="1" gradientUnits="userSpaceOnUse" gradientTransform="translate(16.7458 16.5168) rotate(92.2277) scale(2.71839 2.59628)">
<stop stop-color="#F0AF9E"/>
<stop offset="1" stop-color="#E7A08D" stop-opacity="0"/>
</radialGradient>
<radialGradient id="paint23_radial_4002_793" cx="0" cy="0" r="1" gradientUnits="userSpaceOnUse" gradientTransform="translate(9.41748 10.764) scale(1.77875 3.11283)">
<stop offset="0.350532" stop-color="#CF9888"/>
<stop offset="1" stop-color="#BE8C77"/>
</radialGradient>
<linearGradient id="paint24_linear_4002_793" x1="11.1096" y1="11.0463" x2="10.4603" y2="11.0463" gradientUnits="userSpaceOnUse">
<stop stop-color="#BA7C6B"/>
<stop offset="1" stop-color="#BE8474"/>
</linearGradient>
<linearGradient id="paint25_linear_4002_793" x1="21.8537" y1="9.65755" x2="21.0239" y2="12.2284" gradientUnits="userSpaceOnUse">
<stop stop-color="#FBD3BD"/>
<stop offset="1" stop-color="#F0B8A4"/>
</linearGradient>
<radialGradient id="paint26_radial_4002_793" cx="0" cy="0" r="1" gradientUnits="userSpaceOnUse" gradientTransform="translate(21.1296 10.4955) rotate(-36.0604) scale(1.03657 1.18311)">
<stop offset="0.542503" stop-color="#D9AA94"/>
<stop offset="1" stop-color="#D9AA94" stop-opacity="0"/>
</radialGradient>
<radialGradient id="paint27_radial_4002_793" cx="0" cy="0" r="1" gradientUnits="userSpaceOnUse" gradientTransform="translate(20.7105 11.5963) rotate(-61.4675) scale(1.74276 1.02004)">
<stop offset="0.754913" stop-color="#D6A38D" stop-opacity="0"/>
<stop offset="0.915553" stop-color="#D6A38D"/>
</radialGradient>
<radialGradient id="paint28_radial_4002_793" cx="0" cy="0" r="1" gradientUnits="userSpaceOnUse" gradientTransform="translate(20.7524 10.7639) rotate(44.7077) scale(0.369799 0.476722)">
<stop stop-color="#D5A58E"/>
<stop offset="1" stop-color="#D5A58E" stop-opacity="0"/>
</radialGradient>
<linearGradient id="paint29_linear_4002_793" x1="20.013" y1="11.1588" x2="12.2722" y2="12.3123" gradientUnits="userSpaceOnUse">
<stop stop-color="#FFDABF"/>
<stop offset="1" stop-color="#EAAB97"/>
</linearGradient>
<radialGradient id="paint30_radial_4002_793" cx="0" cy="0" r="1" gradientUnits="userSpaceOnUse" gradientTransform="translate(15.9513 8.81274) rotate(90) scale(9.56372 12.9822)">
<stop offset="0.556791" stop-color="#D7A09D" stop-opacity="0"/>
<stop offset="1" stop-color="#B07F87"/>
</radialGradient>
<linearGradient id="paint31_linear_4002_793" x1="10.2028" y1="12.707" x2="13.6067" y2="12.8224" gradientUnits="userSpaceOnUse">
<stop stop-color="#A58787"/>
<stop offset="1" stop-color="#DEAD9D" stop-opacity="0"/>
</linearGradient>
<linearGradient id="paint32_linear_4002_793" x1="10.4528" y1="13.8915" x2="12.3598" y2="13.8235" gradientUnits="userSpaceOnUse">
<stop stop-color="#E8AD97"/>
<stop offset="1" stop-color="#E8AD97" stop-opacity="0"/>
</linearGradient>
<radialGradient id="paint33_radial_4002_793" cx="0" cy="0" r="1" gradientUnits="userSpaceOnUse" gradientTransform="translate(18.3001 9.47524) rotate(-90) scale(1.32487 1.63061)">
<stop stop-color="#F5B7A7"/>
<stop offset="1" stop-color="#F5B7A7" stop-opacity="0"/>
</radialGradient>
<radialGradient id="paint34_radial_4002_793" cx="0" cy="0" r="1" gradientUnits="userSpaceOnUse" gradientTransform="translate(13.68 9.44127) rotate(-90) scale(1.4098 1.75321)">
<stop stop-color="#D0958D"/>
<stop offset="1" stop-color="#D0958D" stop-opacity="0"/>
</radialGradient>
<linearGradient id="paint35_linear_4002_793" x1="15.3834" y1="8.13338" x2="23.6384" y2="5.1779" gradientUnits="userSpaceOnUse">
<stop stop-color="#FFDEC4"/>
<stop offset="1" stop-color="#FFDEC4" stop-opacity="0"/>
</linearGradient>
<radialGradient id="paint36_radial_4002_793" cx="0" cy="0" r="1" gradientUnits="userSpaceOnUse" gradientTransform="translate(20.3265 6.60184) rotate(-74.8989) scale(3.10406 1.15108)">
<stop stop-color="#464344"/>
<stop offset="1" stop-color="#464344" stop-opacity="0"/>
</radialGradient>
<radialGradient id="paint37_radial_4002_793" cx="0" cy="0" r="1" gradientUnits="userSpaceOnUse" gradientTransform="translate(18.6616 4.818) rotate(5.25781) scale(3.89328 2.09339)">
<stop offset="0.334886" stop-color="#4A4648"/>
<stop offset="1" stop-color="#4A4648" stop-opacity="0"/>
</radialGradient>
<radialGradient id="paint38_radial_4002_793" cx="0" cy="0" r="1" gradientUnits="userSpaceOnUse" gradientTransform="translate(15.9222 2.04565) rotate(90) scale(1.70203 2.63597)">
<stop stop-color="#423D3F"/>
<stop offset="1" stop-color="#423D3F" stop-opacity="0"/>
</radialGradient>
<radialGradient id="paint39_radial_4002_793" cx="0" cy="0" r="1" gradientUnits="userSpaceOnUse" gradientTransform="translate(9.38556 8.95652) rotate(-36.2349) scale(3.86286 6.05184)">
<stop stop-color="#463C39"/>
<stop offset="1" stop-color="#463C39" stop-opacity="0"/>
</radialGradient>
<linearGradient id="paint40_linear_4002_793" x1="15.0464" y1="11.8269" x2="15.9974" y2="11.8269" gradientUnits="userSpaceOnUse">
<stop stop-color="#DFA790"/>
<stop offset="1" stop-color="#DFA790" stop-opacity="0"/>
</linearGradient>
<linearGradient id="paint41_linear_4002_793" x1="16.8736" y1="12.1538" x2="15.834" y2="12.1389" gradientUnits="userSpaceOnUse">
<stop stop-color="#FFDFC4"/>
<stop offset="1" stop-color="#FFDFC4" stop-opacity="0"/>
</linearGradient>
<linearGradient id="paint42_linear_4002_793" x1="16.1196" y1="12.9062" x2="16.1196" y2="12.3253" gradientUnits="userSpaceOnUse">
<stop stop-color="#DC9C96"/>
<stop offset="1" stop-color="#DC9C96" stop-opacity="0"/>
</linearGradient>
<radialGradient id="paint43_radial_4002_793" cx="0" cy="0" r="1" gradientUnits="userSpaceOnUse" gradientTransform="translate(16.254 12.3924) rotate(90) scale(0.19958 0.641204)">
<stop stop-color="#FFD7C1"/>
<stop offset="1" stop-color="#FFD7C1" stop-opacity="0"/>
</radialGradient>
<linearGradient id="paint44_linear_4002_793" x1="14.871" y1="14.5433" x2="15.3118" y2="13.8464" gradientUnits="userSpaceOnUse">
<stop stop-color="#D9A4A4"/>
<stop offset="0.663171" stop-color="#D9A4A4" stop-opacity="0"/>
</linearGradient>
<radialGradient id="paint45_radial_4002_793" cx="0" cy="0" r="1" gradientUnits="userSpaceOnUse" gradientTransform="translate(18.1306 10.0728) rotate(90) scale(0.822173 1.30776)">
<stop offset="0.80198" stop-color="#7D574A"/>
<stop offset="1" stop-color="#694B43"/>
<stop offset="1" stop-color="#804D49"/>
<stop offset="1" stop-color="#664944"/>
</radialGradient>
<radialGradient id="paint46_radial_4002_793" cx="0" cy="0" r="1" gradientUnits="userSpaceOnUse" gradientTransform="translate(17.8994 10.158) rotate(-127.812) scale(0.383348 0.527778)">
<stop offset="0.765532" stop-color="#FFE6E2" stop-opacity="0"/>
<stop offset="0.966159" stop-color="#FFE6E2"/>
</radialGradient>
<linearGradient id="paint47_linear_4002_793" x1="18.9192" y1="10.1274" x2="18.6013" y2="10.3233" gradientUnits="userSpaceOnUse">
<stop stop-color="#B4948D"/>
<stop offset="1" stop-color="#B4948D" stop-opacity="0"/>
</linearGradient>
<radialGradient id="paint48_radial_4002_793" cx="0" cy="0" r="1" gradientUnits="userSpaceOnUse" gradientTransform="translate(13.7082 10.0725) rotate(90) scale(0.822215 1.30782)">
<stop offset="0.80198" stop-color="#7D574A"/>
<stop offset="1" stop-color="#694B43"/>
<stop offset="1" stop-color="#804D49"/>
<stop offset="1" stop-color="#664944"/>
</radialGradient>
<linearGradient id="paint49_linear_4002_793" x1="14.4622" y1="10.1272" x2="14.1443" y2="10.3231" gradientUnits="userSpaceOnUse">
<stop stop-color="#B4948D"/>
<stop offset="1" stop-color="#B4948D" stop-opacity="0"/>
</linearGradient>
<radialGradient id="paint50_radial_4002_793" cx="0" cy="0" r="1" gradientUnits="userSpaceOnUse" gradientTransform="translate(13.4181 10.2948) rotate(-90.897) scale(0.500755 0.601928)">
<stop offset="0.765532" stop-color="#FFE6E2" stop-opacity="0"/>
<stop offset="0.966159" stop-color="#FFE6E2"/>
</radialGradient>
<linearGradient id="paint51_linear_4002_793" x1="18.9351" y1="7.95845" x2="18.5092" y2="7.08813" gradientUnits="userSpaceOnUse">
<stop stop-color="#353435"/>
<stop offset="1" stop-color="#353435" stop-opacity="0"/>
</linearGradient>
<linearGradient id="paint52_linear_4002_793" x1="13.5579" y1="7.82897" x2="12.3526" y2="7.32345" gradientUnits="userSpaceOnUse">
<stop stop-color="#353435"/>
<stop offset="1" stop-color="#353435" stop-opacity="0"/>
</linearGradient>
<linearGradient id="paint53_linear_4002_793" x1="11.1967" y1="5.78715" x2="11.1967" y2="7.97354" gradientUnits="userSpaceOnUse">
<stop stop-color="#3C393A"/>
<stop offset="1" stop-color="#3C393A" stop-opacity="0"/>
</linearGradient>
</defs>
</svg>
