<svg xmlns="http://www.w3.org/2000/svg" width="32" height="32" fill="none"><path fill="#4E3233" d="M12.5 15.333a1.75 1.75 0 1 1-3.5 0 1.75 1.75 0 0 1 3.5 0ZM23 15.333a1.75 1.75 0 1 1-3.5 0 1.75 1.75 0 0 1 3.5 0Z"/><path fill="#573739" d="M15 2.62c0-.4-.312-.62-.702-.62l-1.798.1S12.382 2 12 2c-1.106 0-2.44.966-3 1.5L7.5 5 10 6.5c.868.579 1.484.237 2.188-.154.513-.285 1.073-.596 1.812-.596 1 0 1.2-.198 1.2-.9.2 0 .7-.35.4-.95 0 0 .456-.175.3-.8-.054-.215-.326-.48-.9-.48Z"/><path fill="#573739" d="M16.933 2.62c0-.4.311-.62.702-.62l1.798.1s.118-.1.5-.1c1.106 0 2.439.966 3 1.5l1.5 1.5-2.5 1.5c-.868.579-1.484.237-2.189-.154-.513-.285-1.073-.596-1.811-.596-1 0-1.2-.198-1.2-.9-.2 0-.7-.35-.4-.95 0 0-.457-.175-.3-.8.053-.215.325-.48.9-.48Z"/><path fill="#341A1C" d="M10.943 2.518c.01.033.045.052.078.042.801-.27 1.322-.42 1.482-.46 0 0-.028-.024-.101-.048a14.81 14.81 0 0 0-.544.138c-.305.083-.649.183-.873.25a.062.062 0 0 0-.042.078ZM14.405 4.463c.137 0 .302.024.442.088.219.099.356.238.356.299.018 0 .04-.003.062-.009V4.814c-.057-.214-.203-.303-.366-.377a1.237 1.237 0 0 0-.496-.1l-1.404.1a.063.063 0 0 0 .008.125l1.398-.1ZM15.307 3.636a.719.719 0 0 0-.304-.073h-2a.062.062 0 1 1 0-.125h2c.091 0 .231.021.36.086a.55.55 0 0 1 .297.346c-.034.021-.057.03-.057.03 0-.035-.06-.136-.296-.264ZM11.944 3.02c.01.033.046.05.079.04 1.53-.448 2.624-.48 2.98-.44 0-.021 0-.042-.003-.063-.564-.257-2.513.216-3.017.384a.063.063 0 0 0-.04.079ZM20.992 2.518a.063.063 0 0 1-.077.042c-.802-.27-1.322-.42-1.482-.46 0 0 .028-.024.1-.048.04.008.086.018.139.031.112.027.255.065.406.107.304.083.648.183.872.25.034.01.052.045.043.078ZM17.53 4.463c-.136 0-.3.024-.442.088-.218.099-.355.238-.355.299a.252.252 0 0 1-.062-.009V4.814c.056-.214.203-.303.366-.377.162-.074.346-.1.496-.1l1.404.1a.062.062 0 1 1-.009.125l-1.398-.1ZM16.628 3.636a.719.719 0 0 1 .305-.073h2a.063.063 0 0 0 0-.125h-2a.843.843 0 0 0-.361.086.55.55 0 0 0-.296.346c.034.021.057.03.057.03 0-.035.059-.136.295-.264ZM19.992 3.02a.063.063 0 0 1-.08.04c-1.53-.448-2.624-.48-2.98-.44l.003-.063c.565-.257 2.514.216 3.017.384.033.01.05.046.04.079Z"/><path fill="#0092E7" d="m25.47 6.27-3.36 2.09-.88-1.43a.309.309 0 0 1 .1-.43l2.83-1.76c.15-.09.34-.05.43.1l.88 1.43ZM6.54 6.28l3.35 2.08.89-1.42c.09-.15.05-.34-.1-.43L7.85 4.75a.309.309 0 0 0-.43.1l-.88 1.43Z"/><path fill="#00A6ED" d="m28.67 9.8-2.36-3.793a1.075 1.075 0 0 0-1.47-.347L22 7.398c-.5.307-.66.963-.35 1.46l2.36 3.793c.64 1.033.69 2.344.12 3.426l-3.27 6.187a.914.914 0 0 1-.379.384A9.233 9.233 0 0 0 16 21.5a9.268 9.268 0 0 0-4.475 1.149.963.963 0 0 1-.385-.385l-3.27-6.187a3.463 3.463 0 0 1 .12-3.426l2.36-3.794a1.06 1.06 0 0 0-.35-1.46L7.16 5.66a1.066 1.066 0 0 0-1.47.347L3.33 9.801a8.88 8.88 0 0 0-.31 8.808l3.61 6.823c.28.536.87 1.462.87 2.068 0 0-.5 1.25-.499 2.5H25c0-1.25-.499-2.5-.499-2.5 0-.596.62-1.572.9-2.108l3.58-6.773c1.46-2.78 1.35-6.157-.31-8.818Z"/><path fill="#452829" d="M16 24.5c-1.1 0-2-.84-2-1.886v-2.228c0-1.037.892-1.886 2-1.886 1.1 0 2 .84 2 1.886v2.228c-.008 1.045-.9 1.886-2 1.886Z"/><path fill="#573739" d="M15.55 7.62c-2.98 0-5.34 2.53-5.13 5.5l.42 5.98c.18 1.88 1.66 3.22 3.46 3.22h3.45c1.8 0 3.28-1.34 3.46-3.22l.42-5.98c.21-2.98-2.15-5.5-5.13-5.5h-.95Z"/><path fill="#000" d="m21.65 8.68-.45-.23c-.32-.16-.62-.37-.87-.63l-.89-.88c-.66-.66-1.65-.89-2.54-.58-.57.2-1.2.2-1.78 0-.78-.39-1.72-.24-2.34.38l-1.07 1.08c-.26.26-.55.47-.87.63l-.46.23a2.1 2.1 0 0 0-1.13 2.26l.61 3.31c.06.33.34.57.68.58l-.1-1.55c-.02-.31.1-.61.34-.82l.2-.18c.26-.24.42-.59.42-.95v-.93c0-.26.18-.49.43-.56.69-.17 2.15-.46 4.19-.46 2.04 0 3.5.29 4.19.46.26.06.43.29.43.56v.93c0 .36.15.71.43.95l.21.19c.23.21.36.51.34.82l-.1 1.53c.33-.02.6-.26.66-.58l.61-3.31a2.1 2.1 0 0 0-1.14-2.25Z"/><path fill="#fff" d="M11.925 14.964a1.521 1.521 0 0 1 2.966.075.25.25 0 0 1-.247.294h-2.425a.299.299 0 0 1-.294-.369ZM20.075 14.964a1.526 1.526 0 0 0-1.475-1.147c-.743 0-1.353.524-1.491 1.222a.25.25 0 0 0 .247.294h2.425c.196 0 .34-.178.294-.369Z"/><path fill="#7D4533" d="M12.65 15.075a.97.97 0 1 1 1.907.258h-1.872a.966.966 0 0 1-.034-.258ZM19.349 15.075c0-.54-.438-.971-.973-.971a.962.962 0 0 0-.968.97c0 .093.012.179.035.26h1.871a.966.966 0 0 0 .035-.26Z"/><path fill="#000" d="M13.624 14.523a.552.552 0 0 1 .49.81h-.98a.552.552 0 0 1 .49-.81ZM18.37 14.523a.552.552 0 0 0-.49.81h.98a.552.552 0 0 0-.49-.81Z"/><path fill="#fff" d="M13.463 14.703a.174.174 0 0 1-.173.175.174.174 0 0 1-.173-.175c0-.096.078-.175.173-.175.096 0 .173.079.173.175ZM18.243 14.703a.174.174 0 0 1-.173.175.174.174 0 0 1-.172-.175c0-.096.077-.175.172-.175.096 0 .173.079.173.175Z"/><path fill="#3D2123" d="m15.584 15.057-.578 1.849c-.118.38.165.76.566.76h.856a.588.588 0 0 0 .566-.76l-.578-1.849c-.124-.41-.702-.41-.832 0Z"/><path fill="#290118" d="M16 18.772c-.552 0-1.07-.13-1.507-.357-.149-.076-.309.092-.215.227.364.553.999.92 1.722.92a2.06 2.06 0 0 0 1.722-.92c.094-.14-.066-.303-.215-.227-.436.227-.95.357-1.507.357Z"/><path fill="#000" fill-rule="evenodd" d="M11.88 13.36c.12.15.29.23.47.23.12 0 .25-.04.35-.13l.017-.01c.097-.062.617-.39 1.343-.3.31.04.61-.19.65-.51a.584.584 0 0 0-.51-.65c-1.277-.15-2.166.517-2.21.55-.26.19-.31.56-.11.82Zm7.47.11c.1.08.23.12.35.12.18 0 .35-.08.47-.22.19-.25.15-.62-.11-.82-.03-.03-.92-.71-2.21-.55a.584.584 0 0 0 .14 1.16c.767-.097 1.298.268 1.356.307a.193.193 0 0 0 .004.003Z" clip-rule="evenodd"/></svg>