<svg width="32" height="32" viewBox="0 0 32 32" fill="none" xmlns="http://www.w3.org/2000/svg">
<rect width="32" height="32" fill="#EFEFEF"/>
<path d="M23.2821 9.00972C20.9421 8.88972 18.8621 9.88972 17.5021 11.5397C17.5021 11.5397 15.9721 13.5197 15.9721 13.5097C15.9721 13.5097 14.0421 16.0397 14.0521 16.0397L12.3921 18.2197L12.2621 18.3897C11.3121 19.6597 9.63206 20.3697 7.86206 19.8497C6.52206 19.4497 5.47206 18.3297 5.17206 16.9697C4.58206 14.3797 6.55206 12.0697 9.04206 12.0697C10.2521 12.0697 11.1521 12.5797 11.7721 13.1197C12.4321 13.6997 13.4421 13.6097 13.9821 12.9097C14.4521 12.2997 14.3921 11.4197 13.8321 10.8997C10.6721 7.99972 4.69206 8.65972 2.78206 12.6897C0.302058 17.9197 4.08206 23.0797 9.04206 23.0797C11.2221 23.0797 13.1721 22.1097 14.4621 20.5497L14.8921 19.9897C14.8921 19.9897 15.9821 18.5597 15.9821 18.5697C15.9821 18.5697 17.9121 16.0397 17.9021 16.0397L19.5921 13.8297C19.6321 13.7797 19.6721 13.7297 19.7121 13.6797C20.5821 12.4997 22.0821 11.8297 23.7321 12.1497C25.1921 12.4397 26.4021 13.5797 26.7621 15.0297C27.4221 17.6597 25.4421 20.0297 22.9121 20.0297C21.7221 20.0297 20.8221 19.5197 20.2021 18.9697C19.5421 18.3897 18.5221 18.4897 17.9921 19.1897C17.5021 19.8297 17.5921 20.7197 18.1921 21.2597C19.1221 22.0897 20.7121 23.0997 22.9121 23.0997C27.1121 23.0997 30.4621 19.4097 29.8921 15.0997C29.4521 11.7797 26.6121 9.17972 23.2821 9.00972Z" fill="url(#paint0_linear_4_1596)"/>
<path d="M4.99512 29.0205H4.13672L3.09961 25.4111H3.89355L4.55859 28.2471H4.57031L5.28516 25.4111H6.09082L6.78516 28.209H6.79688L7.47656 25.4111H8.24707L7.18945 29.0205H6.36914L5.70996 26.3047H5.70117L4.99512 29.0205Z" fill="#FFC444"/>
<path d="M9.60352 29H8.85938V25.4111H9.60352V29Z" fill="#FFC444"/>
<path d="M10.5996 29V25.4111H12.0322C12.3057 25.4111 12.5439 25.459 12.7471 25.5547C12.9521 25.6504 13.1104 25.79 13.2217 25.9736C13.333 26.1572 13.3887 26.377 13.3887 26.6328C13.3887 26.8887 13.333 27.1084 13.2217 27.292C13.1104 27.4756 12.9521 27.6162 12.7471 27.7139C12.5439 27.8096 12.3057 27.8574 12.0322 27.8574H11.3467V29H10.5996ZM11.918 27.2598C12.1523 27.2598 12.332 27.209 12.457 27.1074C12.582 27.0039 12.6445 26.8457 12.6445 26.6328C12.6445 26.4199 12.582 26.2627 12.457 26.1611C12.332 26.0576 12.1523 26.0059 11.918 26.0059H11.3467V27.2598H11.918Z" fill="#FFC444"/>
<path d="M0 0V-2H-2V0H0ZM32 0H34V-2H32V0ZM32 32V34H34V32H32ZM0 32H-2V34H0V32ZM0 2H32V-2H0V2ZM30 0V32H34V0H30ZM32 30H0V34H32V30ZM2 32V0H-2V32H2Z" fill="#FFC444"/>
<defs>
<linearGradient id="paint0_linear_4_1596" x1="2.00206" y1="16.0397" x2="29.9514" y2="16.0397" gradientUnits="userSpaceOnUse">
<stop stop-color="#00ADEE"/>
<stop offset="1" stop-color="#1B75BB"/>
</linearGradient>
</defs>
</svg>
