<svg width="32" height="32" viewBox="0 0 32 32" fill="none" xmlns="http://www.w3.org/2000/svg">
<g filter="url(#filter0_i_13929_4555)">
<path d="M17.0691 12.5541C14.865 13.2294 13.1832 15.8012 13.1832 18.1631V18.8802C13.1832 19.1211 13.0106 19.326 12.7767 19.3835C9.90755 20.089 7.75891 22.4901 7.75891 25.5322V26.747C7.75891 28.4037 9.10365 29.747 10.7625 29.747L20.9259 29.7587C21.8935 29.7587 22.6092 28.9755 22.6092 28.0087V15.7753C22.6092 14.4799 21.7639 13.5375 20.5717 13.2885C20.418 13.2563 20.2631 13.2255 20.1098 13.1899C19.8465 13.1288 19.5876 13.0536 19.3462 12.9335L19.2875 12.9042C18.5931 12.558 17.8111 12.3266 17.0691 12.5541Z" fill="#2695F4"/>
<path d="M17.0691 12.5541C14.865 13.2294 13.1832 15.8012 13.1832 18.1631V18.8802C13.1832 19.1211 13.0106 19.326 12.7767 19.3835C9.90755 20.089 7.75891 22.4901 7.75891 25.5322V26.747C7.75891 28.4037 9.10365 29.747 10.7625 29.747L20.9259 29.7587C21.8935 29.7587 22.6092 28.9755 22.6092 28.0087V15.7753C22.6092 14.4799 21.7639 13.5375 20.5717 13.2885C20.418 13.2563 20.2631 13.2255 20.1098 13.1899C19.8465 13.1288 19.5876 13.0536 19.3462 12.9335L19.2875 12.9042C18.5931 12.558 17.8111 12.3266 17.0691 12.5541Z" fill="url(#paint0_linear_13929_4555)"/>
<path d="M17.0691 12.5541C14.865 13.2294 13.1832 15.8012 13.1832 18.1631V18.8802C13.1832 19.1211 13.0106 19.326 12.7767 19.3835C9.90755 20.089 7.75891 22.4901 7.75891 25.5322V26.747C7.75891 28.4037 9.10365 29.747 10.7625 29.747L20.9259 29.7587C21.8935 29.7587 22.6092 28.9755 22.6092 28.0087V15.7753C22.6092 14.4799 21.7639 13.5375 20.5717 13.2885C20.418 13.2563 20.2631 13.2255 20.1098 13.1899C19.8465 13.1288 19.5876 13.0536 19.3462 12.9335L19.2875 12.9042C18.5931 12.558 17.8111 12.3266 17.0691 12.5541Z" fill="url(#paint1_radial_13929_4555)"/>
<path d="M17.0691 12.5541C14.865 13.2294 13.1832 15.8012 13.1832 18.1631V18.8802C13.1832 19.1211 13.0106 19.326 12.7767 19.3835C9.90755 20.089 7.75891 22.4901 7.75891 25.5322V26.747C7.75891 28.4037 9.10365 29.747 10.7625 29.747L20.9259 29.7587C21.8935 29.7587 22.6092 28.9755 22.6092 28.0087V15.7753C22.6092 14.4799 21.7639 13.5375 20.5717 13.2885C20.418 13.2563 20.2631 13.2255 20.1098 13.1899C19.8465 13.1288 19.5876 13.0536 19.3462 12.9335L19.2875 12.9042C18.5931 12.558 17.8111 12.3266 17.0691 12.5541Z" fill="url(#paint2_radial_13929_4555)"/>
<path d="M17.0691 12.5541C14.865 13.2294 13.1832 15.8012 13.1832 18.1631V18.8802C13.1832 19.1211 13.0106 19.326 12.7767 19.3835C9.90755 20.089 7.75891 22.4901 7.75891 25.5322V26.747C7.75891 28.4037 9.10365 29.747 10.7625 29.747L20.9259 29.7587C21.8935 29.7587 22.6092 28.9755 22.6092 28.0087V15.7753C22.6092 14.4799 21.7639 13.5375 20.5717 13.2885C20.418 13.2563 20.2631 13.2255 20.1098 13.1899C19.8465 13.1288 19.5876 13.0536 19.3462 12.9335L19.2875 12.9042C18.5931 12.558 17.8111 12.3266 17.0691 12.5541Z" fill="url(#paint3_radial_13929_4555)"/>
</g>
<g filter="url(#filter1_f_13929_4555)">
<path d="M10.6826 28.7923C10.8352 28.7737 10.9827 28.754 11.1228 28.7335C13.0094 28.509 14.6307 28.4119 16.8614 26.4355C18.1865 25.2614 19.2952 23.5396 20.132 22.0024C20.9854 20.4348 21.6348 18.9097 21.9999 18.0234C22.3497 17.1743 21.9775 16.1883 21.1688 15.8211C20.36 15.4539 19.4208 15.8446 19.071 16.6937C18.7217 17.5417 18.1273 18.9336 17.3615 20.3401C16.5792 21.7771 15.7179 23.1322 14.8277 23.921C13.4619 25.1311 11.9712 25.6959 10.6826 25.9367C10.1669 26.033 9.54721 25.7021 8.97819 24.9894C8.85436 24.8343 8.66651 24.751 8.48429 24.7735C8.45573 25.0214 8.44104 25.2746 8.44104 25.5323V26.7472C8.44104 27.9107 9.75906 28.2948 10.6826 28.7923Z" fill="#0C61A8"/>
</g>
<g filter="url(#filter2_i_13929_4555)">
<path d="M21.9028 15.6024C22.7519 15.9695 23.1425 16.9555 22.7754 17.8046C22.3921 18.691 21.7103 20.2161 20.8144 21.7837C19.9358 23.3208 18.7719 25.0426 17.3808 26.2167C15.039 28.1931 12.6164 28.9152 10.6359 29.1397C9.70667 29.2687 8.46661 29.3716 7.52692 29.3234C7.06989 29.2999 6.7915 29.0918 6.74174 28.8468C6.70928 28.687 6.75504 28.5603 6.80352 28.4812C6.5931 28.4127 6.44104 28.2149 6.44104 27.9816C6.44104 27.8211 6.51301 27.6774 6.62644 27.581C6.47326 27.4892 6.37073 27.3216 6.37073 27.13C6.37073 26.8399 6.60595 26.6046 6.89612 26.6046H7.07669C6.92129 26.5188 6.81604 26.3533 6.81604 26.1632C6.81604 25.8849 7.04165 25.6593 7.31995 25.6593H8.41703C8.30527 25.5311 8.22161 25.3744 8.15964 25.2288C8.05917 24.9927 8.1838 24.7226 8.41287 24.607C8.64935 24.4876 8.93465 24.5676 9.10481 24.7706C9.70218 25.4834 10.3528 25.8142 10.8941 25.7179C12.2469 25.4772 13.8119 24.9124 15.2457 23.7023C16.1804 22.9135 17.0846 21.5584 17.9059 20.1214C18.7097 18.7149 19.3338 17.323 19.7005 16.475C20.0677 15.6259 21.0537 15.2352 21.9028 15.6024Z" fill="url(#paint4_linear_13929_4555)"/>
<path d="M21.9028 15.6024C22.7519 15.9695 23.1425 16.9555 22.7754 17.8046C22.3921 18.691 21.7103 20.2161 20.8144 21.7837C19.9358 23.3208 18.7719 25.0426 17.3808 26.2167C15.039 28.1931 12.6164 28.9152 10.6359 29.1397C9.70667 29.2687 8.46661 29.3716 7.52692 29.3234C7.06989 29.2999 6.7915 29.0918 6.74174 28.8468C6.70928 28.687 6.75504 28.5603 6.80352 28.4812C6.5931 28.4127 6.44104 28.2149 6.44104 27.9816C6.44104 27.8211 6.51301 27.6774 6.62644 27.581C6.47326 27.4892 6.37073 27.3216 6.37073 27.13C6.37073 26.8399 6.60595 26.6046 6.89612 26.6046H7.07669C6.92129 26.5188 6.81604 26.3533 6.81604 26.1632C6.81604 25.8849 7.04165 25.6593 7.31995 25.6593H8.41703C8.30527 25.5311 8.22161 25.3744 8.15964 25.2288C8.05917 24.9927 8.1838 24.7226 8.41287 24.607C8.64935 24.4876 8.93465 24.5676 9.10481 24.7706C9.70218 25.4834 10.3528 25.8142 10.8941 25.7179C12.2469 25.4772 13.8119 24.9124 15.2457 23.7023C16.1804 22.9135 17.0846 21.5584 17.9059 20.1214C18.7097 18.7149 19.3338 17.323 19.7005 16.475C20.0677 15.6259 21.0537 15.2352 21.9028 15.6024Z" fill="url(#paint5_linear_13929_4555)"/>
<path d="M21.9028 15.6024C22.7519 15.9695 23.1425 16.9555 22.7754 17.8046C22.3921 18.691 21.7103 20.2161 20.8144 21.7837C19.9358 23.3208 18.7719 25.0426 17.3808 26.2167C15.039 28.1931 12.6164 28.9152 10.6359 29.1397C9.70667 29.2687 8.46661 29.3716 7.52692 29.3234C7.06989 29.2999 6.7915 29.0918 6.74174 28.8468C6.70928 28.687 6.75504 28.5603 6.80352 28.4812C6.5931 28.4127 6.44104 28.2149 6.44104 27.9816C6.44104 27.8211 6.51301 27.6774 6.62644 27.581C6.47326 27.4892 6.37073 27.3216 6.37073 27.13C6.37073 26.8399 6.60595 26.6046 6.89612 26.6046H7.07669C6.92129 26.5188 6.81604 26.3533 6.81604 26.1632C6.81604 25.8849 7.04165 25.6593 7.31995 25.6593H8.41703C8.30527 25.5311 8.22161 25.3744 8.15964 25.2288C8.05917 24.9927 8.1838 24.7226 8.41287 24.607C8.64935 24.4876 8.93465 24.5676 9.10481 24.7706C9.70218 25.4834 10.3528 25.8142 10.8941 25.7179C12.2469 25.4772 13.8119 24.9124 15.2457 23.7023C16.1804 22.9135 17.0846 21.5584 17.9059 20.1214C18.7097 18.7149 19.3338 17.323 19.7005 16.475C20.0677 15.6259 21.0537 15.2352 21.9028 15.6024Z" fill="url(#paint6_linear_13929_4555)"/>
</g>
<g filter="url(#filter3_i_13929_4555)">
<path d="M22.8785 18.1359C23.2692 17.046 22.7519 15.9695 21.9028 15.6024C21.0537 15.2352 20.0677 15.6259 19.7005 16.475C19.4343 17.0906 19.1676 17.7159 18.6598 18.7023L21.7067 20.6476C22.2733 19.5493 22.6307 18.8273 22.8785 18.1359Z" fill="url(#paint7_radial_13929_4555)"/>
<path d="M22.8785 18.1359C23.2692 17.046 22.7519 15.9695 21.9028 15.6024C21.0537 15.2352 20.0677 15.6259 19.7005 16.475C19.4343 17.0906 19.1676 17.7159 18.6598 18.7023L21.7067 20.6476C22.2733 19.5493 22.6307 18.8273 22.8785 18.1359Z" fill="url(#paint8_radial_13929_4555)"/>
</g>
<g filter="url(#filter4_f_13929_4555)">
<path d="M7.15979 26.624H8.40198" stroke="url(#paint9_linear_13929_4555)" stroke-width="0.1" stroke-linecap="round"/>
</g>
<g filter="url(#filter5_f_13929_4555)">
<path d="M6.7926 27.5615H8.03479" stroke="url(#paint10_linear_13929_4555)" stroke-width="0.1" stroke-linecap="round"/>
</g>
<g filter="url(#filter6_f_13929_4555)">
<path d="M6.9801 28.46H8.22229" stroke="url(#paint11_linear_13929_4555)" stroke-width="0.1" stroke-linecap="round"/>
</g>
<g filter="url(#filter7_i_13929_4555)">
<circle cx="14.4814" cy="9.31518" r="1.45336" fill="url(#paint12_radial_13929_4555)"/>
</g>
<circle cx="14.4814" cy="9.31518" r="1.45336" fill="url(#paint13_radial_13929_4555)"/>
<g filter="url(#filter8_f_13929_4555)">
<circle cx="14.4814" cy="9.3154" r="0.866182" fill="url(#paint14_linear_13929_4555)"/>
</g>
<g filter="url(#filter9_i_13929_4555)">
<circle cx="22.7632" cy="9.31518" r="1.45336" fill="url(#paint15_linear_13929_4555)"/>
<circle cx="22.7632" cy="9.31518" r="1.45336" fill="url(#paint16_radial_13929_4555)"/>
</g>
<g filter="url(#filter10_f_13929_4555)">
<circle cx="22.7634" cy="9.3154" r="0.866182" fill="#A57C70"/>
<circle cx="22.7634" cy="9.3154" r="0.866182" fill="url(#paint17_radial_13929_4555)"/>
<circle cx="22.7634" cy="9.3154" r="0.866182" fill="url(#paint18_radial_13929_4555)"/>
</g>
<g filter="url(#filter11_i_13929_4555)">
<path d="M14.175 8.78195C14.1891 8.78291 14.2033 8.7834 14.2177 8.7834C14.2177 8.7834 14.171 8.04051 14.1243 7.52978C14.1243 7.29763 14.2177 7.01905 14.4044 6.87976L14.5445 6.74046C14.778 6.55474 14.8714 6.27616 14.8714 5.99758V5.25469C14.8714 5.02254 15.0115 4.83682 15.245 4.79039C15.8053 4.6511 16.9727 4.41895 18.6538 4.41895C20.3349 4.41895 21.5023 4.6511 22.0626 4.79039C22.2494 4.83682 22.4362 5.02254 22.4362 5.25469V5.99758C22.4362 6.27616 22.5763 6.55474 22.7631 6.74046C23.2002 7.04675 23.173 7.21521 23.1367 7.57621C23.09 8.04051 23.0433 8.82983 23.0433 8.82983C23.0486 8.82983 23.0538 8.82977 23.059 8.82963L22.8276 12.2757C22.6878 13.8162 21.4768 14.8899 20.0328 14.8899H17.2379C15.7474 14.8899 14.5829 13.8162 14.4431 12.2757L14.175 8.78195Z" fill="url(#paint19_linear_13929_4555)"/>
<path d="M14.175 8.78195C14.1891 8.78291 14.2033 8.7834 14.2177 8.7834C14.2177 8.7834 14.171 8.04051 14.1243 7.52978C14.1243 7.29763 14.2177 7.01905 14.4044 6.87976L14.5445 6.74046C14.778 6.55474 14.8714 6.27616 14.8714 5.99758V5.25469C14.8714 5.02254 15.0115 4.83682 15.245 4.79039C15.8053 4.6511 16.9727 4.41895 18.6538 4.41895C20.3349 4.41895 21.5023 4.6511 22.0626 4.79039C22.2494 4.83682 22.4362 5.02254 22.4362 5.25469V5.99758C22.4362 6.27616 22.5763 6.55474 22.7631 6.74046C23.2002 7.04675 23.173 7.21521 23.1367 7.57621C23.09 8.04051 23.0433 8.82983 23.0433 8.82983C23.0486 8.82983 23.0538 8.82977 23.059 8.82963L22.8276 12.2757C22.6878 13.8162 21.4768 14.8899 20.0328 14.8899H17.2379C15.7474 14.8899 14.5829 13.8162 14.4431 12.2757L14.175 8.78195Z" fill="url(#paint20_radial_13929_4555)"/>
<path d="M14.175 8.78195C14.1891 8.78291 14.2033 8.7834 14.2177 8.7834C14.2177 8.7834 14.171 8.04051 14.1243 7.52978C14.1243 7.29763 14.2177 7.01905 14.4044 6.87976L14.5445 6.74046C14.778 6.55474 14.8714 6.27616 14.8714 5.99758V5.25469C14.8714 5.02254 15.0115 4.83682 15.245 4.79039C15.8053 4.6511 16.9727 4.41895 18.6538 4.41895C20.3349 4.41895 21.5023 4.6511 22.0626 4.79039C22.2494 4.83682 22.4362 5.02254 22.4362 5.25469V5.99758C22.4362 6.27616 22.5763 6.55474 22.7631 6.74046C23.2002 7.04675 23.173 7.21521 23.1367 7.57621C23.09 8.04051 23.0433 8.82983 23.0433 8.82983C23.0486 8.82983 23.0538 8.82977 23.059 8.82963L22.8276 12.2757C22.6878 13.8162 21.4768 14.8899 20.0328 14.8899H17.2379C15.7474 14.8899 14.5829 13.8162 14.4431 12.2757L14.175 8.78195Z" fill="url(#paint21_radial_13929_4555)"/>
</g>
<path d="M14.1243 7.52978C14.1243 7.29763 14.2177 7.01905 14.4044 6.87976L14.5445 6.74046C14.778 6.55474 14.8714 6.27616 14.8714 5.99758V5.25469C14.8714 5.02254 15.0115 4.83682 15.245 4.79039C15.8053 4.6511 16.9727 4.41895 18.6538 4.41895C20.3349 4.41895 21.5023 4.6511 22.0626 4.79039C22.2494 4.83682 22.4362 5.02254 22.4362 5.25469V5.99758C22.4362 6.27616 22.5763 6.55474 22.7631 6.74046C23.2002 7.04675 23.173 7.21521 23.1367 7.57621C23.09 8.04051 23.0433 8.82983 23.0433 8.82983C23.0486 8.82983 23.0538 8.82977 23.059 8.82963L22.8276 12.2757C22.6878 13.8162 21.4768 14.8899 20.0328 14.8899H17.2379C15.7474 14.8899 14.5829 13.8162 14.4431 12.2757C14.3217 10.6944 14.2686 9.1084 14.1243 7.52978Z" fill="url(#paint22_linear_13929_4555)"/>
<path d="M14.1243 7.52978C14.1243 7.29763 14.2177 7.01905 14.4044 6.87976L14.5445 6.74046C14.778 6.55474 14.8714 6.27616 14.8714 5.99758V5.25469C14.8714 5.02254 15.0115 4.83682 15.245 4.79039C15.8053 4.6511 16.9727 4.41895 18.6538 4.41895C20.3349 4.41895 21.5023 4.6511 22.0626 4.79039C22.2494 4.83682 22.4362 5.02254 22.4362 5.25469V5.99758C22.4362 6.27616 22.5763 6.55474 22.7631 6.74046C23.2002 7.04675 23.173 7.21521 23.1367 7.57621C23.09 8.04051 23.0433 8.82983 23.0433 8.82983C23.0486 8.82983 23.0538 8.82977 23.059 8.82963L22.8276 12.2757C22.6878 13.8162 21.4768 14.8899 20.0328 14.8899H17.2379C15.7474 14.8899 14.5829 13.8162 14.4431 12.2757C14.3217 10.6944 14.2686 9.1084 14.1243 7.52978Z" fill="url(#paint23_linear_13929_4555)"/>
<path d="M14.1243 7.52978C14.1243 7.29763 14.2177 7.01905 14.4044 6.87976L14.5445 6.74046C14.778 6.55474 14.8714 6.27616 14.8714 5.99758V5.25469C14.8714 5.02254 15.0115 4.83682 15.245 4.79039C15.8053 4.6511 16.9727 4.41895 18.6538 4.41895C20.3349 4.41895 21.5023 4.6511 22.0626 4.79039C22.2494 4.83682 22.4362 5.02254 22.4362 5.25469V5.99758C22.4362 6.27616 22.5763 6.55474 22.7631 6.74046C23.2002 7.04675 23.173 7.21521 23.1367 7.57621C23.09 8.04051 23.0433 8.82983 23.0433 8.82983C23.0486 8.82983 23.0538 8.82977 23.059 8.82963L22.8276 12.2757C22.6878 13.8162 21.4768 14.8899 20.0328 14.8899H17.2379C15.7474 14.8899 14.5829 13.8162 14.4431 12.2757C14.3217 10.6944 14.2686 9.1084 14.1243 7.52978Z" fill="url(#paint24_radial_13929_4555)"/>
<g filter="url(#filter12_f_13929_4555)">
<path d="M22.0652 4.41895L19.3861 5.31215C18.93 5.46423 18.6703 5.94444 18.7929 6.40938C18.9101 6.85383 19.3398 7.14154 19.7954 7.08054L22.4591 6.7239L22.0652 4.41895Z" fill="url(#paint25_linear_13929_4555)"/>
</g>
<g filter="url(#filter13_i_13929_4555)">
<path d="M22.8097 3.67577L23.1833 3.86149C23.8371 4.18651 24.2106 4.92939 24.0705 5.71871L23.5569 8.36524C23.5111 8.63857 23.3304 8.8225 23.059 8.82935C23.0538 8.82948 23.0485 8.82952 23.0432 8.82952C23.0432 8.82952 23.0899 8.0402 23.1366 7.5759C23.1745 7.19886 23.1087 7.08385 22.763 6.74015C22.5763 6.55443 22.4362 6.27585 22.4362 5.99727V5.25438C22.4362 5.02223 22.2494 4.83651 22.0626 4.79008C21.5022 4.65078 20.3348 4.41863 18.6538 4.41863C16.9727 4.41863 15.8053 4.65078 15.2449 4.79008C15.0115 4.83651 14.8714 5.02223 14.8714 5.25438V5.99727C14.8714 6.27585 14.778 6.55443 14.5445 6.74015L14.4044 6.87944C14.2176 7.01873 14.1242 7.29732 14.1242 7.52947C14.1709 8.0402 14.2176 8.78309 14.2176 8.78309C14.2032 8.78309 14.189 8.7826 14.1749 8.78164C13.914 8.7638 13.7016 8.58311 13.6573 8.31881L13.1436 5.67228C13.0502 4.92939 13.4238 4.18651 14.0775 3.86149L14.4511 3.67577C14.6846 3.53648 14.9181 3.35076 15.1515 3.16504L15.9921 2.28286C16.5057 1.81856 17.2529 1.67927 17.9066 2.00428C18.3736 2.14357 18.8872 2.14357 19.3542 2.00428C20.0547 1.77213 20.8485 1.95785 21.4088 2.46858L22.1093 3.16504C22.2961 3.39719 22.5296 3.53648 22.8097 3.67577Z" fill="#4F3332"/>
<path d="M22.8097 3.67577L23.1833 3.86149C23.8371 4.18651 24.2106 4.92939 24.0705 5.71871L23.5569 8.36524C23.5111 8.63857 23.3304 8.8225 23.059 8.82935C23.0538 8.82948 23.0485 8.82952 23.0432 8.82952C23.0432 8.82952 23.0899 8.0402 23.1366 7.5759C23.1745 7.19886 23.1087 7.08385 22.763 6.74015C22.5763 6.55443 22.4362 6.27585 22.4362 5.99727V5.25438C22.4362 5.02223 22.2494 4.83651 22.0626 4.79008C21.5022 4.65078 20.3348 4.41863 18.6538 4.41863C16.9727 4.41863 15.8053 4.65078 15.2449 4.79008C15.0115 4.83651 14.8714 5.02223 14.8714 5.25438V5.99727C14.8714 6.27585 14.778 6.55443 14.5445 6.74015L14.4044 6.87944C14.2176 7.01873 14.1242 7.29732 14.1242 7.52947C14.1709 8.0402 14.2176 8.78309 14.2176 8.78309C14.2032 8.78309 14.189 8.7826 14.1749 8.78164C13.914 8.7638 13.7016 8.58311 13.6573 8.31881L13.1436 5.67228C13.0502 4.92939 13.4238 4.18651 14.0775 3.86149L14.4511 3.67577C14.6846 3.53648 14.9181 3.35076 15.1515 3.16504L15.9921 2.28286C16.5057 1.81856 17.2529 1.67927 17.9066 2.00428C18.3736 2.14357 18.8872 2.14357 19.3542 2.00428C20.0547 1.77213 20.8485 1.95785 21.4088 2.46858L22.1093 3.16504C22.2961 3.39719 22.5296 3.53648 22.8097 3.67577Z" fill="url(#paint26_radial_13929_4555)"/>
<path d="M22.8097 3.67577L23.1833 3.86149C23.8371 4.18651 24.2106 4.92939 24.0705 5.71871L23.5569 8.36524C23.5111 8.63857 23.3304 8.8225 23.059 8.82935C23.0538 8.82948 23.0485 8.82952 23.0432 8.82952C23.0432 8.82952 23.0899 8.0402 23.1366 7.5759C23.1745 7.19886 23.1087 7.08385 22.763 6.74015C22.5763 6.55443 22.4362 6.27585 22.4362 5.99727V5.25438C22.4362 5.02223 22.2494 4.83651 22.0626 4.79008C21.5022 4.65078 20.3348 4.41863 18.6538 4.41863C16.9727 4.41863 15.8053 4.65078 15.2449 4.79008C15.0115 4.83651 14.8714 5.02223 14.8714 5.25438V5.99727C14.8714 6.27585 14.778 6.55443 14.5445 6.74015L14.4044 6.87944C14.2176 7.01873 14.1242 7.29732 14.1242 7.52947C14.1709 8.0402 14.2176 8.78309 14.2176 8.78309C14.2032 8.78309 14.189 8.7826 14.1749 8.78164C13.914 8.7638 13.7016 8.58311 13.6573 8.31881L13.1436 5.67228C13.0502 4.92939 13.4238 4.18651 14.0775 3.86149L14.4511 3.67577C14.6846 3.53648 14.9181 3.35076 15.1515 3.16504L15.9921 2.28286C16.5057 1.81856 17.2529 1.67927 17.9066 2.00428C18.3736 2.14357 18.8872 2.14357 19.3542 2.00428C20.0547 1.77213 20.8485 1.95785 21.4088 2.46858L22.1093 3.16504C22.2961 3.39719 22.5296 3.53648 22.8097 3.67577Z" fill="url(#paint27_radial_13929_4555)"/>
<path d="M22.8097 3.67577L23.1833 3.86149C23.8371 4.18651 24.2106 4.92939 24.0705 5.71871L23.5569 8.36524C23.5111 8.63857 23.3304 8.8225 23.059 8.82935C23.0538 8.82948 23.0485 8.82952 23.0432 8.82952C23.0432 8.82952 23.0899 8.0402 23.1366 7.5759C23.1745 7.19886 23.1087 7.08385 22.763 6.74015C22.5763 6.55443 22.4362 6.27585 22.4362 5.99727V5.25438C22.4362 5.02223 22.2494 4.83651 22.0626 4.79008C21.5022 4.65078 20.3348 4.41863 18.6538 4.41863C16.9727 4.41863 15.8053 4.65078 15.2449 4.79008C15.0115 4.83651 14.8714 5.02223 14.8714 5.25438V5.99727C14.8714 6.27585 14.778 6.55443 14.5445 6.74015L14.4044 6.87944C14.2176 7.01873 14.1242 7.29732 14.1242 7.52947C14.1709 8.0402 14.2176 8.78309 14.2176 8.78309C14.2032 8.78309 14.189 8.7826 14.1749 8.78164C13.914 8.7638 13.7016 8.58311 13.6573 8.31881L13.1436 5.67228C13.0502 4.92939 13.4238 4.18651 14.0775 3.86149L14.4511 3.67577C14.6846 3.53648 14.9181 3.35076 15.1515 3.16504L15.9921 2.28286C16.5057 1.81856 17.2529 1.67927 17.9066 2.00428C18.3736 2.14357 18.8872 2.14357 19.3542 2.00428C20.0547 1.77213 20.8485 1.95785 21.4088 2.46858L22.1093 3.16504C22.2961 3.39719 22.5296 3.53648 22.8097 3.67577Z" fill="url(#paint28_radial_13929_4555)"/>
<path d="M22.8097 3.67577L23.1833 3.86149C23.8371 4.18651 24.2106 4.92939 24.0705 5.71871L23.5569 8.36524C23.5111 8.63857 23.3304 8.8225 23.059 8.82935C23.0538 8.82948 23.0485 8.82952 23.0432 8.82952C23.0432 8.82952 23.0899 8.0402 23.1366 7.5759C23.1745 7.19886 23.1087 7.08385 22.763 6.74015C22.5763 6.55443 22.4362 6.27585 22.4362 5.99727V5.25438C22.4362 5.02223 22.2494 4.83651 22.0626 4.79008C21.5022 4.65078 20.3348 4.41863 18.6538 4.41863C16.9727 4.41863 15.8053 4.65078 15.2449 4.79008C15.0115 4.83651 14.8714 5.02223 14.8714 5.25438V5.99727C14.8714 6.27585 14.778 6.55443 14.5445 6.74015L14.4044 6.87944C14.2176 7.01873 14.1242 7.29732 14.1242 7.52947C14.1709 8.0402 14.2176 8.78309 14.2176 8.78309C14.2032 8.78309 14.189 8.7826 14.1749 8.78164C13.914 8.7638 13.7016 8.58311 13.6573 8.31881L13.1436 5.67228C13.0502 4.92939 13.4238 4.18651 14.0775 3.86149L14.4511 3.67577C14.6846 3.53648 14.9181 3.35076 15.1515 3.16504L15.9921 2.28286C16.5057 1.81856 17.2529 1.67927 17.9066 2.00428C18.3736 2.14357 18.8872 2.14357 19.3542 2.00428C20.0547 1.77213 20.8485 1.95785 21.4088 2.46858L22.1093 3.16504C22.2961 3.39719 22.5296 3.53648 22.8097 3.67577Z" fill="url(#paint29_radial_13929_4555)"/>
</g>
<g filter="url(#filter14_f_13929_4555)">
<path d="M18.3751 9.20871L17.6609 10.6883C17.5724 10.9927 17.7848 11.297 18.0858 11.297H18.7276C19.0286 11.297 19.241 10.988 19.1525 10.6883L18.7187 9.20871C18.6258 8.88095 18.4724 8.88095 18.3751 9.20871Z" fill="#87565C"/>
</g>
<g filter="url(#filter15_f_13929_4555)">
<path d="M18.282 9.06711L17.8195 10.5467C17.7251 10.8511 17.9516 11.1554 18.2726 11.1554H18.957C19.278 11.1554 19.5045 10.8464 19.4101 10.5467L18.9476 9.06711C18.8484 8.73935 18.3859 8.73935 18.282 9.06711Z" fill="#B7877D"/>
<path d="M18.282 9.06711L17.8195 10.5467C17.7251 10.8511 17.9516 11.1554 18.2726 11.1554H18.957C19.278 11.1554 19.5045 10.8464 19.4101 10.5467L18.9476 9.06711C18.8484 8.73935 18.3859 8.73935 18.282 9.06711Z" fill="url(#paint30_linear_13929_4555)"/>
<path d="M18.282 9.06711L17.8195 10.5467C17.7251 10.8511 17.9516 11.1554 18.2726 11.1554H18.957C19.278 11.1554 19.5045 10.8464 19.4101 10.5467L18.9476 9.06711C18.8484 8.73935 18.3859 8.73935 18.282 9.06711Z" fill="url(#paint31_linear_13929_4555)"/>
<path d="M18.282 9.06711L17.8195 10.5467C17.7251 10.8511 17.9516 11.1554 18.2726 11.1554H18.957C19.278 11.1554 19.5045 10.8464 19.4101 10.5467L18.9476 9.06711C18.8484 8.73935 18.3859 8.73935 18.282 9.06711Z" fill="url(#paint32_linear_13929_4555)"/>
<path d="M18.282 9.06711L17.8195 10.5467C17.7251 10.8511 17.9516 11.1554 18.2726 11.1554H18.957C19.278 11.1554 19.5045 10.8464 19.4101 10.5467L18.9476 9.06711C18.8484 8.73935 18.3859 8.73935 18.282 9.06711Z" fill="url(#paint33_radial_13929_4555)"/>
</g>
<path d="M18.282 9.06711L17.8195 10.5467C17.7251 10.8511 17.9516 11.1554 18.2726 11.1554H18.957C19.278 11.1554 19.5045 10.8464 19.4101 10.5467L18.9476 9.06711C18.8484 8.73935 18.3859 8.73935 18.282 9.06711Z" fill="url(#paint34_linear_13929_4555)"/>
<path d="M17.4319 11.7099L17.4319 11.7099C17.7734 11.8879 18.1806 11.9901 18.6146 11.9901C19.0529 11.9901 19.4557 11.8879 19.7973 11.7099L19.7978 11.7096L19.7978 11.7096C19.8789 11.6684 19.9642 11.6923 20.0154 11.7455C20.0673 11.7993 20.0863 11.8857 20.0343 11.9638M17.4319 11.7099L19.9927 11.9361M17.4319 11.7099L17.4314 11.7096C17.3495 11.668 17.2642 11.694 17.2135 11.7474C17.1625 11.801 17.1423 11.8875 17.1951 11.9641M17.4319 11.7099L17.2365 11.9361M20.0343 11.9638C20.0343 11.9638 20.0343 11.9638 20.0343 11.9639L19.9927 11.9361M20.0343 11.9638C20.0344 11.9637 20.0344 11.9637 20.0344 11.9637L19.9927 11.9361M20.0343 11.9638C19.7338 12.4191 19.2105 12.7224 18.6146 12.7224C18.0189 12.7224 17.4956 12.4193 17.1951 11.9641M19.9927 11.9361C19.7012 12.3779 19.1932 12.6724 18.6146 12.6724C18.036 12.6724 17.528 12.3779 17.2365 11.9361M17.1951 11.9641C17.1952 11.9643 17.1953 11.9644 17.1954 11.9646L17.2365 11.9361M17.1951 11.9641C17.195 11.964 17.1949 11.9638 17.1948 11.9637L17.2365 11.9361" fill="#88024E" stroke="url(#paint35_linear_13929_4555)" stroke-width="0.1"/>
<g filter="url(#filter16_i_13929_4555)">
<path d="M21.8527 6.94724L21.8517 6.94635L21.85 6.94501L21.8461 6.94183L21.8357 6.93353C21.8276 6.92717 21.8171 6.91918 21.8044 6.90986C21.779 6.89123 21.7443 6.86715 21.7009 6.83994C21.6142 6.78564 21.4911 6.718 21.3355 6.65646C21.023 6.5329 20.5767 6.43336 20.036 6.51873C19.7826 6.55875 19.6095 6.79666 19.6496 7.05012C19.6896 7.30357 19.9275 7.4766 20.1809 7.43658C20.5272 7.3819 20.8045 7.44575 20.9939 7.5206C21.0891 7.55826 21.1615 7.59857 21.2076 7.62743C21.2305 7.64179 21.2466 7.65308 21.2553 7.65944C21.2589 7.66208 21.2612 7.66385 21.2621 7.6646C21.4592 7.82527 21.7494 7.79769 21.9126 7.60187C22.0768 7.40475 22.0499 7.11151 21.8527 6.94724Z" fill="#4C3230"/>
<path d="M21.8527 6.94724L21.8517 6.94635L21.85 6.94501L21.8461 6.94183L21.8357 6.93353C21.8276 6.92717 21.8171 6.91918 21.8044 6.90986C21.779 6.89123 21.7443 6.86715 21.7009 6.83994C21.6142 6.78564 21.4911 6.718 21.3355 6.65646C21.023 6.5329 20.5767 6.43336 20.036 6.51873C19.7826 6.55875 19.6095 6.79666 19.6496 7.05012C19.6896 7.30357 19.9275 7.4766 20.1809 7.43658C20.5272 7.3819 20.8045 7.44575 20.9939 7.5206C21.0891 7.55826 21.1615 7.59857 21.2076 7.62743C21.2305 7.64179 21.2466 7.65308 21.2553 7.65944C21.2589 7.66208 21.2612 7.66385 21.2621 7.6646C21.4592 7.82527 21.7494 7.79769 21.9126 7.60187C22.0768 7.40475 22.0499 7.11151 21.8527 6.94724Z" fill="url(#paint36_radial_13929_4555)"/>
</g>
<g filter="url(#filter17_i_13929_4555)">
<path d="M15.3295 6.94751L15.3302 6.94695L15.3309 6.94635L15.3326 6.94501L15.3365 6.94183L15.3469 6.93353C15.355 6.92717 15.3655 6.91918 15.3782 6.90986C15.4036 6.89123 15.4383 6.86715 15.4817 6.83994C15.5684 6.78564 15.6915 6.718 15.8471 6.65646C16.1596 6.5329 16.6059 6.43336 17.1466 6.51873C17.4001 6.55875 17.5731 6.79666 17.5331 7.05012C17.493 7.30357 17.2551 7.4766 17.0017 7.43658C16.6554 7.3819 16.3781 7.44575 16.1888 7.5206C16.0935 7.55826 16.0211 7.59857 15.975 7.62743C15.9521 7.64179 15.936 7.65308 15.9274 7.65944C15.9237 7.66208 15.9214 7.66385 15.9205 7.6646C15.7234 7.82527 15.4332 7.79769 15.2701 7.60187C15.1058 7.40475 15.1324 7.11178 15.3295 6.94751Z" fill="#4C3230"/>
<path d="M15.3295 6.94751L15.3302 6.94695L15.3309 6.94635L15.3326 6.94501L15.3365 6.94183L15.3469 6.93353C15.355 6.92717 15.3655 6.91918 15.3782 6.90986C15.4036 6.89123 15.4383 6.86715 15.4817 6.83994C15.5684 6.78564 15.6915 6.718 15.8471 6.65646C16.1596 6.5329 16.6059 6.43336 17.1466 6.51873C17.4001 6.55875 17.5731 6.79666 17.5331 7.05012C17.493 7.30357 17.2551 7.4766 17.0017 7.43658C16.6554 7.3819 16.3781 7.44575 16.1888 7.5206C16.0935 7.55826 16.0211 7.59857 15.975 7.62743C15.9521 7.64179 15.936 7.65308 15.9274 7.65944C15.9237 7.66208 15.9214 7.66385 15.9205 7.6646C15.7234 7.82527 15.4332 7.79769 15.2701 7.60187C15.1058 7.40475 15.1324 7.11178 15.3295 6.94751Z" fill="url(#paint37_radial_13929_4555)"/>
</g>
<path d="M20.6933 8.06982C21.2617 8.06982 21.7419 8.46173 21.8725 8.99133C21.9114 9.14315 21.7949 9.28791 21.6395 9.28791H19.6976C19.5741 9.28791 19.4752 9.17493 19.4999 9.05136C19.6094 8.49351 20.1001 8.06982 20.6933 8.06982Z" fill="white"/>
<path d="M20.5132 8.30615C20.9439 8.30615 21.2899 8.65569 21.2899 9.0829C21.2899 9.15352 21.2794 9.22413 21.2617 9.28768H19.7612C19.7435 9.2206 19.7329 9.15352 19.7329 9.0829C19.7329 8.65569 20.0824 8.30615 20.5132 8.30615Z" fill="url(#paint38_radial_13929_4555)"/>
<path d="M20.0686 9.08305C20.0686 8.8359 20.2663 8.63818 20.5135 8.63818C20.7606 8.63818 20.9583 8.8359 20.9583 9.08305C20.9583 9.15719 20.9407 9.22781 20.9089 9.28783H20.1216C20.0863 9.22781 20.0686 9.15719 20.0686 9.08305Z" fill="black"/>
<g filter="url(#filter18_f_13929_4555)">
<path d="M20.4561 8.47029C20.5115 8.54431 20.3958 8.63454 20.2643 8.73288C20.1328 8.83122 20.0352 8.90042 19.9798 8.8264C19.9245 8.75238 19.9863 8.61267 20.1178 8.51433C20.2493 8.41599 20.4008 8.39628 20.4561 8.47029Z" fill="#C7A7A3"/>
<path d="M20.4561 8.47029C20.5115 8.54431 20.3958 8.63454 20.2643 8.73288C20.1328 8.83122 20.0352 8.90042 19.9798 8.8264C19.9245 8.75238 19.9863 8.61267 20.1178 8.51433C20.2493 8.41599 20.4008 8.39628 20.4561 8.47029Z" fill="url(#paint39_radial_13929_4555)"/>
</g>
<g filter="url(#filter19_f_13929_4555)">
<path d="M21.2051 8.98084C21.1764 8.78004 21.0589 8.62869 21.0038 8.57812L20.7776 8.82638L20.8796 9.02498L21.2051 8.98084Z" fill="url(#paint40_linear_13929_4555)"/>
</g>
<path d="M16.5313 8.06982C15.9629 8.06982 15.4827 8.46175 15.352 8.99138C15.3132 9.14321 15.4297 9.28797 15.585 9.28797H17.527C17.6506 9.28797 17.7495 9.17499 17.7248 9.05141C17.6153 8.49353 17.121 8.06982 16.5313 8.06982Z" fill="white"/>
<path d="M16.7114 8.30615C16.2806 8.30615 15.9346 8.65571 15.9346 9.08294C15.9346 9.15356 15.9452 9.22418 15.9628 9.28773H17.4634C17.4811 9.22065 17.4917 9.15356 17.4917 9.08294C17.4882 8.65571 17.1421 8.30615 16.7114 8.30615Z" fill="url(#paint41_radial_13929_4555)"/>
<path d="M17.1564 9.08307C17.1564 8.83591 16.9587 8.63818 16.7115 8.63818C16.4643 8.63818 16.2666 8.83591 16.2666 9.08307C16.2666 9.15722 16.2843 9.22784 16.316 9.28786H17.1034C17.1352 9.22784 17.1564 9.15722 17.1564 9.08307Z" fill="black"/>
<g filter="url(#filter20_f_13929_4555)">
<path d="M17.4212 8.99189C17.4212 8.74087 17.2171 8.57352 17.1619 8.52295L16.9109 8.7657L17.0654 9.08016L17.4212 8.99189Z" fill="url(#paint42_linear_13929_4555)"/>
</g>
<g filter="url(#filter21_f_13929_4555)">
<ellipse cx="16.4772" cy="8.63841" rx="0.339111" ry="0.171621" transform="rotate(-27.914 16.4772 8.63841)" fill="#C7A7A3" fill-opacity="0.9"/>
<ellipse cx="16.4772" cy="8.63841" rx="0.339111" ry="0.171621" transform="rotate(-27.914 16.4772 8.63841)" fill="url(#paint43_radial_13929_4555)"/>
</g>
<g filter="url(#filter22_f_13929_4555)">
<path d="M20.0603 6.82142C20.4347 6.7559 21.1648 6.77462 21.6703 7.16777" stroke="url(#paint44_linear_13929_4555)" stroke-width="0.2" stroke-linecap="round"/>
</g>
<g filter="url(#filter23_f_13929_4555)">
<path d="M15.5165 7.2731C15.8013 7.02138 16.4232 6.75632 17.1942 6.87921" stroke="url(#paint45_linear_13929_4555)" stroke-width="0.2" stroke-linecap="round"/>
</g>
<g filter="url(#filter24_f_13929_4555)">
<path d="M14.6686 5.12646V5.90783C14.6617 6.03721 14.6073 6.3266 14.4438 6.44917" stroke="url(#paint46_linear_13929_4555)" stroke-width="0.25" stroke-linecap="round"/>
</g>
<defs>
<filter id="filter0_i_13929_4555" x="7.75891" y="12.4634" width="16.1003" height="17.2954" filterUnits="userSpaceOnUse" color-interpolation-filters="sRGB">
<feFlood flood-opacity="0" result="BackgroundImageFix"/>
<feBlend mode="normal" in="SourceGraphic" in2="BackgroundImageFix" result="shape"/>
<feColorMatrix in="SourceAlpha" type="matrix" values="0 0 0 0 0 0 0 0 0 0 0 0 0 0 0 0 0 0 127 0" result="hardAlpha"/>
<feOffset dx="1.25"/>
<feGaussianBlur stdDeviation="1"/>
<feComposite in2="hardAlpha" operator="arithmetic" k2="-1" k3="1"/>
<feColorMatrix type="matrix" values="0 0 0 0 0.247059 0 0 0 0 0.470588 0 0 0 0 0.662745 0 0 0 1 0"/>
<feBlend mode="normal" in2="shape" result="effect1_innerShadow_13929_4555"/>
</filter>
<filter id="filter1_f_13929_4555" x="7.44104" y="14.6831" width="15.6904" height="15.1094" filterUnits="userSpaceOnUse" color-interpolation-filters="sRGB">
<feFlood flood-opacity="0" result="BackgroundImageFix"/>
<feBlend mode="normal" in="SourceGraphic" in2="BackgroundImageFix" result="shape"/>
<feGaussianBlur stdDeviation="0.5" result="effect1_foregroundBlur_13929_4555"/>
</filter>
<filter id="filter2_i_13929_4555" x="6.37073" y="15.2644" width="16.5426" height="14.0711" filterUnits="userSpaceOnUse" color-interpolation-filters="sRGB">
<feFlood flood-opacity="0" result="BackgroundImageFix"/>
<feBlend mode="normal" in="SourceGraphic" in2="BackgroundImageFix" result="shape"/>
<feColorMatrix in="SourceAlpha" type="matrix" values="0 0 0 0 0 0 0 0 0 0 0 0 0 0 0 0 0 0 127 0" result="hardAlpha"/>
<feOffset dy="-0.2"/>
<feGaussianBlur stdDeviation="0.375"/>
<feComposite in2="hardAlpha" operator="arithmetic" k2="-1" k3="1"/>
<feColorMatrix type="matrix" values="0 0 0 0 0.643137 0 0 0 0 0.411765 0 0 0 0 0.521569 0 0 0 1 0"/>
<feBlend mode="normal" in2="shape" result="effect1_innerShadow_13929_4555"/>
</filter>
<filter id="filter3_i_13929_4555" x="18.6598" y="15.3644" width="4.45121" height="5.28311" filterUnits="userSpaceOnUse" color-interpolation-filters="sRGB">
<feFlood flood-opacity="0" result="BackgroundImageFix"/>
<feBlend mode="normal" in="SourceGraphic" in2="BackgroundImageFix" result="shape"/>
<feColorMatrix in="SourceAlpha" type="matrix" values="0 0 0 0 0 0 0 0 0 0 0 0 0 0 0 0 0 0 127 0" result="hardAlpha"/>
<feOffset dx="0.1" dy="-0.1"/>
<feGaussianBlur stdDeviation="0.25"/>
<feComposite in2="hardAlpha" operator="arithmetic" k2="-1" k3="1"/>
<feColorMatrix type="matrix" values="0 0 0 0 0.113725 0 0 0 0 0.407843 0 0 0 0 0.623529 0 0 0 1 0"/>
<feBlend mode="normal" in2="shape" result="effect1_innerShadow_13929_4555"/>
</filter>
<filter id="filter4_f_13929_4555" x="7.00979" y="26.4742" width="1.54219" height="0.299609" filterUnits="userSpaceOnUse" color-interpolation-filters="sRGB">
<feFlood flood-opacity="0" result="BackgroundImageFix"/>
<feBlend mode="normal" in="SourceGraphic" in2="BackgroundImageFix" result="shape"/>
<feGaussianBlur stdDeviation="0.05" result="effect1_foregroundBlur_13929_4555"/>
</filter>
<filter id="filter5_f_13929_4555" x="6.6426" y="27.4117" width="1.54219" height="0.299609" filterUnits="userSpaceOnUse" color-interpolation-filters="sRGB">
<feFlood flood-opacity="0" result="BackgroundImageFix"/>
<feBlend mode="normal" in="SourceGraphic" in2="BackgroundImageFix" result="shape"/>
<feGaussianBlur stdDeviation="0.05" result="effect1_foregroundBlur_13929_4555"/>
</filter>
<filter id="filter6_f_13929_4555" x="6.8301" y="28.3102" width="1.54219" height="0.299609" filterUnits="userSpaceOnUse" color-interpolation-filters="sRGB">
<feFlood flood-opacity="0" result="BackgroundImageFix"/>
<feBlend mode="normal" in="SourceGraphic" in2="BackgroundImageFix" result="shape"/>
<feGaussianBlur stdDeviation="0.05" result="effect1_foregroundBlur_13929_4555"/>
</filter>
<filter id="filter7_i_13929_4555" x="13.0281" y="7.86182" width="3.10672" height="2.90674" filterUnits="userSpaceOnUse" color-interpolation-filters="sRGB">
<feFlood flood-opacity="0" result="BackgroundImageFix"/>
<feBlend mode="normal" in="SourceGraphic" in2="BackgroundImageFix" result="shape"/>
<feColorMatrix in="SourceAlpha" type="matrix" values="0 0 0 0 0 0 0 0 0 0 0 0 0 0 0 0 0 0 127 0" result="hardAlpha"/>
<feOffset dx="0.2"/>
<feGaussianBlur stdDeviation="0.15"/>
<feComposite in2="hardAlpha" operator="arithmetic" k2="-1" k3="1"/>
<feColorMatrix type="matrix" values="0 0 0 0 0.619608 0 0 0 0 0.470588 0 0 0 0 0.407843 0 0 0 1 0"/>
<feBlend mode="normal" in2="shape" result="effect1_innerShadow_13929_4555"/>
</filter>
<filter id="filter8_f_13929_4555" x="13.1152" y="7.94922" width="2.73236" height="2.73242" filterUnits="userSpaceOnUse" color-interpolation-filters="sRGB">
<feFlood flood-opacity="0" result="BackgroundImageFix"/>
<feBlend mode="normal" in="SourceGraphic" in2="BackgroundImageFix" result="shape"/>
<feGaussianBlur stdDeviation="0.25" result="effect1_foregroundBlur_13929_4555"/>
</filter>
<filter id="filter9_i_13929_4555" x="21.3098" y="7.61182" width="3.15672" height="3.15674" filterUnits="userSpaceOnUse" color-interpolation-filters="sRGB">
<feFlood flood-opacity="0" result="BackgroundImageFix"/>
<feBlend mode="normal" in="SourceGraphic" in2="BackgroundImageFix" result="shape"/>
<feColorMatrix in="SourceAlpha" type="matrix" values="0 0 0 0 0 0 0 0 0 0 0 0 0 0 0 0 0 0 127 0" result="hardAlpha"/>
<feOffset dx="0.25" dy="-0.25"/>
<feGaussianBlur stdDeviation="0.25"/>
<feComposite in2="hardAlpha" operator="arithmetic" k2="-1" k3="1"/>
<feColorMatrix type="matrix" values="0 0 0 0 0.584314 0 0 0 0 0.368627 0 0 0 0 0.470588 0 0 0 1 0"/>
<feBlend mode="normal" in2="shape" result="effect1_innerShadow_13929_4555"/>
</filter>
<filter id="filter10_f_13929_4555" x="21.3972" y="7.94922" width="2.73236" height="2.73242" filterUnits="userSpaceOnUse" color-interpolation-filters="sRGB">
<feFlood flood-opacity="0" result="BackgroundImageFix"/>
<feBlend mode="normal" in="SourceGraphic" in2="BackgroundImageFix" result="shape"/>
<feGaussianBlur stdDeviation="0.25" result="effect1_foregroundBlur_13929_4555"/>
</filter>
<filter id="filter11_i_13929_4555" x="14.1243" y="4.41895" width="9.03087" height="10.5712" filterUnits="userSpaceOnUse" color-interpolation-filters="sRGB">
<feFlood flood-opacity="0" result="BackgroundImageFix"/>
<feBlend mode="normal" in="SourceGraphic" in2="BackgroundImageFix" result="shape"/>
<feColorMatrix in="SourceAlpha" type="matrix" values="0 0 0 0 0 0 0 0 0 0 0 0 0 0 0 0 0 0 127 0" result="hardAlpha"/>
<feOffset dy="0.1"/>
<feGaussianBlur stdDeviation="0.05"/>
<feComposite in2="hardAlpha" operator="arithmetic" k2="-1" k3="1"/>
<feColorMatrix type="matrix" values="0 0 0 0 0.305882 0 0 0 0 0.2 0 0 0 0 0.172549 0 0 0 1 0"/>
<feBlend mode="normal" in2="shape" result="effect1_innerShadow_13929_4555"/>
</filter>
<filter id="filter12_f_13929_4555" x="16.7626" y="2.41895" width="7.69647" height="6.66992" filterUnits="userSpaceOnUse" color-interpolation-filters="sRGB">
<feFlood flood-opacity="0" result="BackgroundImageFix"/>
<feBlend mode="normal" in="SourceGraphic" in2="BackgroundImageFix" result="shape"/>
<feGaussianBlur stdDeviation="1" result="effect1_foregroundBlur_13929_4555"/>
</filter>
<filter id="filter13_i_13929_4555" x="13.1294" y="1.32715" width="10.9704" height="7.50244" filterUnits="userSpaceOnUse" color-interpolation-filters="sRGB">
<feFlood flood-opacity="0" result="BackgroundImageFix"/>
<feBlend mode="normal" in="SourceGraphic" in2="BackgroundImageFix" result="shape"/>
<feColorMatrix in="SourceAlpha" type="matrix" values="0 0 0 0 0 0 0 0 0 0 0 0 0 0 0 0 0 0 127 0" result="hardAlpha"/>
<feOffset dy="-0.5"/>
<feGaussianBlur stdDeviation="0.375"/>
<feComposite in2="hardAlpha" operator="arithmetic" k2="-1" k3="1"/>
<feColorMatrix type="matrix" values="0 0 0 0 0.207843 0 0 0 0 0.109804 0 0 0 0 0.109804 0 0 0 1 0"/>
<feBlend mode="normal" in2="shape" result="effect1_innerShadow_13929_4555"/>
</filter>
<filter id="filter14_f_13929_4555" x="16.8906" y="8.21289" width="3.03215" height="3.83398" filterUnits="userSpaceOnUse" color-interpolation-filters="sRGB">
<feFlood flood-opacity="0" result="BackgroundImageFix"/>
<feBlend mode="normal" in="SourceGraphic" in2="BackgroundImageFix" result="shape"/>
<feGaussianBlur stdDeviation="0.375" result="effect1_foregroundBlur_13929_4555"/>
</filter>
<filter id="filter15_f_13929_4555" x="17.5479" y="8.57129" width="2.1339" height="2.83398" filterUnits="userSpaceOnUse" color-interpolation-filters="sRGB">
<feFlood flood-opacity="0" result="BackgroundImageFix"/>
<feBlend mode="normal" in="SourceGraphic" in2="BackgroundImageFix" result="shape"/>
<feGaussianBlur stdDeviation="0.125" result="effect1_foregroundBlur_13929_4555"/>
</filter>
<filter id="filter16_i_13929_4555" x="19.6438" y="6.08682" width="2.62633" height="1.68223" filterUnits="userSpaceOnUse" color-interpolation-filters="sRGB">
<feFlood flood-opacity="0" result="BackgroundImageFix"/>
<feBlend mode="normal" in="SourceGraphic" in2="BackgroundImageFix" result="shape"/>
<feColorMatrix in="SourceAlpha" type="matrix" values="0 0 0 0 0 0 0 0 0 0 0 0 0 0 0 0 0 0 127 0" result="hardAlpha"/>
<feOffset dx="0.25" dy="-0.4"/>
<feGaussianBlur stdDeviation="0.3"/>
<feComposite in2="hardAlpha" operator="arithmetic" k2="-1" k3="1"/>
<feColorMatrix type="matrix" values="0 0 0 0 0.254902 0 0 0 0 0.156863 0 0 0 0 0.152941 0 0 0 1 0"/>
<feBlend mode="normal" in2="shape" result="effect1_innerShadow_13929_4555"/>
</filter>
<filter id="filter17_i_13929_4555" x="15.1624" y="6.08682" width="2.62646" height="1.68223" filterUnits="userSpaceOnUse" color-interpolation-filters="sRGB">
<feFlood flood-opacity="0" result="BackgroundImageFix"/>
<feBlend mode="normal" in="SourceGraphic" in2="BackgroundImageFix" result="shape"/>
<feColorMatrix in="SourceAlpha" type="matrix" values="0 0 0 0 0 0 0 0 0 0 0 0 0 0 0 0 0 0 127 0" result="hardAlpha"/>
<feOffset dx="0.25" dy="-0.4"/>
<feGaussianBlur stdDeviation="0.3"/>
<feComposite in2="hardAlpha" operator="arithmetic" k2="-1" k3="1"/>
<feColorMatrix type="matrix" values="0 0 0 0 0.254902 0 0 0 0 0.156863 0 0 0 0 0.152941 0 0 0 1 0"/>
<feBlend mode="normal" in2="shape" result="effect1_innerShadow_13929_4555"/>
</filter>
<filter id="filter18_f_13929_4555" x="19.8595" y="8.32529" width="0.710757" height="0.632129" filterUnits="userSpaceOnUse" color-interpolation-filters="sRGB">
<feFlood flood-opacity="0" result="BackgroundImageFix"/>
<feBlend mode="normal" in="SourceGraphic" in2="BackgroundImageFix" result="shape"/>
<feGaussianBlur stdDeviation="0.05" result="effect1_foregroundBlur_13929_4555"/>
</filter>
<filter id="filter19_f_13929_4555" x="20.5776" y="8.37812" width="0.827551" height="0.846777" filterUnits="userSpaceOnUse" color-interpolation-filters="sRGB">
<feFlood flood-opacity="0" result="BackgroundImageFix"/>
<feBlend mode="normal" in="SourceGraphic" in2="BackgroundImageFix" result="shape"/>
<feGaussianBlur stdDeviation="0.1" result="effect1_foregroundBlur_13929_4555"/>
</filter>
<filter id="filter20_f_13929_4555" x="16.7109" y="8.32295" width="0.910315" height="0.957129" filterUnits="userSpaceOnUse" color-interpolation-filters="sRGB">
<feFlood flood-opacity="0" result="BackgroundImageFix"/>
<feBlend mode="normal" in="SourceGraphic" in2="BackgroundImageFix" result="shape"/>
<feGaussianBlur stdDeviation="0.1" result="effect1_foregroundBlur_13929_4555"/>
</filter>
<filter id="filter21_f_13929_4555" x="16.0669" y="8.31895" width="0.820636" height="0.638965" filterUnits="userSpaceOnUse" color-interpolation-filters="sRGB">
<feFlood flood-opacity="0" result="BackgroundImageFix"/>
<feBlend mode="normal" in="SourceGraphic" in2="BackgroundImageFix" result="shape"/>
<feGaussianBlur stdDeviation="0.05" result="effect1_foregroundBlur_13929_4555"/>
</filter>
<filter id="filter22_f_13929_4555" x="19.7603" y="6.49238" width="2.21004" height="0.975195" filterUnits="userSpaceOnUse" color-interpolation-filters="sRGB">
<feFlood flood-opacity="0" result="BackgroundImageFix"/>
<feBlend mode="normal" in="SourceGraphic" in2="BackgroundImageFix" result="shape"/>
<feGaussianBlur stdDeviation="0.1" result="effect1_foregroundBlur_13929_4555"/>
</filter>
<filter id="filter23_f_13929_4555" x="15.2165" y="6.54805" width="2.27773" height="1.025" filterUnits="userSpaceOnUse" color-interpolation-filters="sRGB">
<feFlood flood-opacity="0" result="BackgroundImageFix"/>
<feBlend mode="normal" in="SourceGraphic" in2="BackgroundImageFix" result="shape"/>
<feGaussianBlur stdDeviation="0.1" result="effect1_foregroundBlur_13929_4555"/>
</filter>
<filter id="filter24_f_13929_4555" x="14.0688" y="4.75146" width="0.974716" height="2.07275" filterUnits="userSpaceOnUse" color-interpolation-filters="sRGB">
<feFlood flood-opacity="0" result="BackgroundImageFix"/>
<feBlend mode="normal" in="SourceGraphic" in2="BackgroundImageFix" result="shape"/>
<feGaussianBlur stdDeviation="0.125" result="effect1_foregroundBlur_13929_4555"/>
</filter>
<linearGradient id="paint0_linear_13929_4555" x1="15.184" y1="29.7587" x2="15.184" y2="27.5146" gradientUnits="userSpaceOnUse">
<stop stop-color="#546BDB"/>
<stop offset="1" stop-color="#2280E8" stop-opacity="0"/>
</linearGradient>
<radialGradient id="paint1_radial_13929_4555" cx="0" cy="0" r="1" gradientUnits="userSpaceOnUse" gradientTransform="translate(20.8473 16.0771) rotate(-90) scale(2.25 2.3125)">
<stop stop-color="#46B0F1"/>
<stop offset="1" stop-color="#46B0F1" stop-opacity="0"/>
</radialGradient>
<radialGradient id="paint2_radial_13929_4555" cx="0" cy="0" r="1" gradientUnits="userSpaceOnUse" gradientTransform="translate(20.8473 21.7959) rotate(90) scale(7.0625 2.6875)">
<stop offset="0.256637" stop-color="#31ACFF"/>
<stop offset="1" stop-color="#31ACFF" stop-opacity="0"/>
</radialGradient>
<radialGradient id="paint3_radial_13929_4555" cx="0" cy="0" r="1" gradientUnits="userSpaceOnUse" gradientTransform="translate(19.3473 12.9209) rotate(156.834) scale(7.30802 2.55936)">
<stop offset="0.448777" stop-color="#155AAC"/>
<stop offset="1" stop-color="#155AAC" stop-opacity="0"/>
</radialGradient>
<linearGradient id="paint4_linear_13929_4555" x1="20.2848" y1="20.8585" x2="7.62854" y2="30.6398" gradientUnits="userSpaceOnUse">
<stop stop-color="#B3867D"/>
<stop offset="1" stop-color="#A87B70"/>
</linearGradient>
<linearGradient id="paint5_linear_13929_4555" x1="6.62854" y1="27.7335" x2="9.25354" y2="27.546" gradientUnits="userSpaceOnUse">
<stop stop-color="#9C7568"/>
<stop offset="1" stop-color="#9C7568" stop-opacity="0"/>
</linearGradient>
<linearGradient id="paint6_linear_13929_4555" x1="19.941" y1="18.7648" x2="19.0035" y2="20.5773" gradientUnits="userSpaceOnUse">
<stop stop-color="#916865"/>
<stop offset="1" stop-color="#916865" stop-opacity="0"/>
</linearGradient>
<radialGradient id="paint7_radial_13929_4555" cx="0" cy="0" r="1" gradientUnits="userSpaceOnUse" gradientTransform="translate(22.6667 16.7771) rotate(115.321) scale(4.28183 3.28478)">
<stop offset="0.425418" stop-color="#279AE6"/>
<stop offset="1" stop-color="#1E79BD"/>
</radialGradient>
<radialGradient id="paint8_radial_13929_4555" cx="0" cy="0" r="1" gradientUnits="userSpaceOnUse" gradientTransform="translate(22.4773 16.43) rotate(118.72) scale(2.6272 1.65249)">
<stop stop-color="#48B8FF"/>
<stop offset="1" stop-color="#2B9AE8" stop-opacity="0"/>
</radialGradient>
<linearGradient id="paint9_linear_13929_4555" x1="7.15979" y1="26.624" x2="8.61292" y2="26.624" gradientUnits="userSpaceOnUse">
<stop stop-color="#85624E"/>
<stop offset="1" stop-color="#85624E" stop-opacity="0"/>
</linearGradient>
<linearGradient id="paint10_linear_13929_4555" x1="6.7926" y1="27.5615" x2="8.24573" y2="27.5615" gradientUnits="userSpaceOnUse">
<stop stop-color="#85624E"/>
<stop offset="1" stop-color="#85624E" stop-opacity="0"/>
</linearGradient>
<linearGradient id="paint11_linear_13929_4555" x1="6.9801" y1="28.46" x2="8.43323" y2="28.46" gradientUnits="userSpaceOnUse">
<stop stop-color="#85624E"/>
<stop offset="1" stop-color="#85624E" stop-opacity="0"/>
</linearGradient>
<radialGradient id="paint12_radial_13929_4555" cx="0" cy="0" r="1" gradientUnits="userSpaceOnUse" gradientTransform="translate(13.0281 9.31518) scale(1.52771 2.67351)">
<stop offset="0.350532" stop-color="#865D5F"/>
<stop offset="1" stop-color="#76594A"/>
</radialGradient>
<radialGradient id="paint13_radial_13929_4555" cx="0" cy="0" r="1" gradientUnits="userSpaceOnUse" gradientTransform="translate(14.4814 10.7685) rotate(-124.98) scale(1.44229)">
<stop offset="0.339551" stop-color="#834E63"/>
<stop offset="1" stop-color="#834E63" stop-opacity="0"/>
</radialGradient>
<linearGradient id="paint14_linear_13929_4555" x1="14.4814" y1="9.55799" x2="13.9238" y2="9.55799" gradientUnits="userSpaceOnUse">
<stop stop-color="#694448"/>
<stop offset="1" stop-color="#6E464D"/>
</linearGradient>
<linearGradient id="paint15_linear_13929_4555" x1="23.709" y1="8.36491" x2="22.9963" y2="10.5729" gradientUnits="userSpaceOnUse">
<stop stop-color="#CCA68C"/>
<stop offset="1" stop-color="#AE7F75"/>
</linearGradient>
<radialGradient id="paint16_radial_13929_4555" cx="0" cy="0" r="1" gradientUnits="userSpaceOnUse" gradientTransform="translate(23.0871 9.08461) rotate(-36.0604) scale(0.890273 1.01613)">
<stop offset="0.542503" stop-color="#8F6459"/>
<stop offset="1" stop-color="#8F6459" stop-opacity="0"/>
</radialGradient>
<radialGradient id="paint17_radial_13929_4555" cx="0" cy="0" r="1" gradientUnits="userSpaceOnUse" gradientTransform="translate(22.7274 10.0304) rotate(-61.4675) scale(1.4968 0.876081)">
<stop offset="0.754913" stop-color="#8A5D55" stop-opacity="0"/>
<stop offset="0.915553" stop-color="#8A5D55"/>
</radialGradient>
<radialGradient id="paint18_radial_13929_4555" cx="0" cy="0" r="1" gradientUnits="userSpaceOnUse" gradientTransform="translate(22.7634 9.3154) rotate(44.7077) scale(0.317608 0.409441)">
<stop stop-color="#895F52"/>
<stop offset="1" stop-color="#895F52" stop-opacity="0"/>
</radialGradient>
<linearGradient id="paint19_linear_13929_4555" x1="22.1281" y1="9.65444" x2="15.4798" y2="10.6451" gradientUnits="userSpaceOnUse">
<stop stop-color="#C69980"/>
<stop offset="1" stop-color="#916762"/>
</linearGradient>
<radialGradient id="paint20_radial_13929_4555" cx="0" cy="0" r="1" gradientUnits="userSpaceOnUse" gradientTransform="translate(20.657 8.20849) rotate(-90) scale(1.13789 1.40048)">
<stop stop-color="#AB7773"/>
<stop offset="1" stop-color="#AB7773" stop-opacity="0"/>
</radialGradient>
<radialGradient id="paint21_radial_13929_4555" cx="0" cy="0" r="1" gradientUnits="userSpaceOnUse" gradientTransform="translate(16.689 8.32519) rotate(-90) scale(1.19624 1.48763)">
<stop stop-color="#8F5D65"/>
<stop offset="1" stop-color="#8F5D65" stop-opacity="0"/>
</radialGradient>
<linearGradient id="paint22_linear_13929_4555" x1="13.9172" y1="12.0014" x2="15.5551" y2="11.9431" gradientUnits="userSpaceOnUse">
<stop stop-color="#9B7569"/>
<stop offset="1" stop-color="#9B7569" stop-opacity="0"/>
</linearGradient>
<linearGradient id="paint23_linear_13929_4555" x1="22.8985" y1="11.2689" x2="21.9302" y2="11.1845" gradientUnits="userSpaceOnUse">
<stop stop-color="#C1987F"/>
<stop offset="1" stop-color="#C1987F" stop-opacity="0"/>
</linearGradient>
<radialGradient id="paint24_radial_13929_4555" cx="0" cy="0" r="1" gradientUnits="userSpaceOnUse" gradientTransform="translate(18.503 7.98032) rotate(90) scale(7.48759 9.28039)">
<stop offset="0.686982" stop-color="#91636D" stop-opacity="0"/>
<stop offset="1" stop-color="#675770"/>
</radialGradient>
<linearGradient id="paint25_linear_13929_4555" x1="18.1519" y1="7.05601" x2="25.2418" y2="4.51764" gradientUnits="userSpaceOnUse">
<stop stop-color="#C89F8B"/>
<stop offset="1" stop-color="#C89F8B" stop-opacity="0"/>
</linearGradient>
<radialGradient id="paint26_radial_13929_4555" cx="0" cy="0" r="1" gradientUnits="userSpaceOnUse" gradientTransform="translate(22.3973 5.74031) rotate(-74.8989) scale(2.66597 0.988626)">
<stop stop-color="#554042"/>
<stop offset="1" stop-color="#554042" stop-opacity="0"/>
</radialGradient>
<radialGradient id="paint27_radial_13929_4555" cx="0" cy="0" r="1" gradientUnits="userSpaceOnUse" gradientTransform="translate(20.9674 4.20822) rotate(5.25781) scale(3.34381 1.79795)">
<stop offset="0.392334" stop-color="#644949"/>
<stop offset="1" stop-color="#644949" stop-opacity="0"/>
</radialGradient>
<radialGradient id="paint28_radial_13929_4555" cx="0" cy="0" r="1" gradientUnits="userSpaceOnUse" gradientTransform="translate(18.6146 1.82715) rotate(90) scale(1.46182 2.26394)">
<stop stop-color="#624C49"/>
<stop offset="1" stop-color="#624C49" stop-opacity="0"/>
</radialGradient>
<radialGradient id="paint29_radial_13929_4555" cx="0" cy="0" r="1" gradientUnits="userSpaceOnUse" gradientTransform="translate(13.0005 7.76267) rotate(-36.2349) scale(3.31769 5.19773)">
<stop stop-color="#4E3C3A"/>
<stop offset="1" stop-color="#4E3C3A" stop-opacity="0"/>
</radialGradient>
<linearGradient id="paint30_linear_13929_4555" x1="17.8625" y1="10.2284" x2="18.6792" y2="10.2284" gradientUnits="userSpaceOnUse">
<stop stop-color="#8B6455"/>
<stop offset="1" stop-color="#8B6455" stop-opacity="0"/>
</linearGradient>
<linearGradient id="paint31_linear_13929_4555" x1="19.4317" y1="10.5092" x2="18.5388" y2="10.4964" gradientUnits="userSpaceOnUse">
<stop stop-color="#CDA186"/>
<stop offset="1" stop-color="#CDA186" stop-opacity="0"/>
</linearGradient>
<linearGradient id="paint32_linear_13929_4555" x1="18.7841" y1="11.1554" x2="18.7841" y2="10.6566" gradientUnits="userSpaceOnUse">
<stop stop-color="#9C6073"/>
<stop offset="1" stop-color="#9C6073" stop-opacity="0"/>
</linearGradient>
<radialGradient id="paint33_radial_13929_4555" cx="0" cy="0" r="1" gradientUnits="userSpaceOnUse" gradientTransform="translate(18.8996 10.7141) rotate(90) scale(0.171413 0.550709)">
<stop stop-color="#C39787"/>
<stop offset="1" stop-color="#C39787" stop-opacity="0"/>
</radialGradient>
<linearGradient id="paint34_linear_13929_4555" x1="18.7242" y1="11.1919" x2="18.7242" y2="11.046" gradientUnits="userSpaceOnUse">
<stop stop-color="#8E5263"/>
<stop offset="1" stop-color="#8E5263" stop-opacity="0"/>
</linearGradient>
<linearGradient id="paint35_linear_13929_4555" x1="17.7118" y1="12.5612" x2="18.0904" y2="11.9627" gradientUnits="userSpaceOnUse">
<stop stop-color="#A87D7B"/>
<stop offset="0.663171" stop-color="#A87D7B" stop-opacity="0"/>
</linearGradient>
<radialGradient id="paint36_radial_13929_4555" cx="0" cy="0" r="1" gradientUnits="userSpaceOnUse" gradientTransform="translate(20.7413 7.5007) rotate(-80.2008) scale(0.532955 1.57671)">
<stop stop-color="#422235"/>
<stop offset="1" stop-color="#422235" stop-opacity="0"/>
</radialGradient>
<radialGradient id="paint37_radial_13929_4555" cx="0" cy="0" r="1" gradientUnits="userSpaceOnUse" gradientTransform="translate(16.2599 7.5007) rotate(-80.2002) scale(0.532956 1.57679)">
<stop stop-color="#422235"/>
<stop offset="1" stop-color="#422235" stop-opacity="0"/>
</radialGradient>
<radialGradient id="paint38_radial_13929_4555" cx="0" cy="0" r="1" gradientUnits="userSpaceOnUse" gradientTransform="translate(20.5114 8.72133) rotate(90) scale(0.706138 1.12319)">
<stop offset="0.80198" stop-color="#7D574A"/>
<stop offset="1" stop-color="#694B43"/>
<stop offset="1" stop-color="#804D49"/>
<stop offset="1" stop-color="#664944"/>
</radialGradient>
<radialGradient id="paint39_radial_13929_4555" cx="0" cy="0" r="1" gradientUnits="userSpaceOnUse" gradientTransform="translate(20.3129 8.79449) rotate(-127.812) scale(0.329245 0.453292)">
<stop offset="0.765532" stop-color="#FFE6E2" stop-opacity="0"/>
<stop offset="0.966159" stop-color="#FFE6E2"/>
</radialGradient>
<linearGradient id="paint40_linear_13929_4555" x1="21.1886" y1="8.76845" x2="20.9155" y2="8.93671" gradientUnits="userSpaceOnUse">
<stop stop-color="#B4948D"/>
<stop offset="1" stop-color="#B4948D" stop-opacity="0"/>
</linearGradient>
<radialGradient id="paint41_radial_13929_4555" cx="0" cy="0" r="1" gradientUnits="userSpaceOnUse" gradientTransform="translate(16.7131 8.72135) rotate(90) scale(0.706174 1.12325)">
<stop offset="0.80198" stop-color="#7D574A"/>
<stop offset="1" stop-color="#694B43"/>
<stop offset="1" stop-color="#804D49"/>
<stop offset="1" stop-color="#664944"/>
</radialGradient>
<linearGradient id="paint42_linear_13929_4555" x1="17.3607" y1="8.76845" x2="17.0876" y2="8.93672" gradientUnits="userSpaceOnUse">
<stop stop-color="#B4948D"/>
<stop offset="1" stop-color="#B4948D" stop-opacity="0"/>
</linearGradient>
<radialGradient id="paint43_radial_13929_4555" cx="0" cy="0" r="1" gradientUnits="userSpaceOnUse" gradientTransform="translate(16.464 8.9125) rotate(-90.897) scale(0.430082 0.516976)">
<stop offset="0.765532" stop-color="#FFE6E2" stop-opacity="0"/>
<stop offset="0.966159" stop-color="#FFE6E2"/>
</radialGradient>
<linearGradient id="paint44_linear_13929_4555" x1="21.2023" y1="6.90567" x2="20.8365" y2="6.15818" gradientUnits="userSpaceOnUse">
<stop stop-color="#5B4545"/>
<stop offset="1" stop-color="#5B4545" stop-opacity="0"/>
</linearGradient>
<linearGradient id="paint45_linear_13929_4555" x1="16.5843" y1="6.79471" x2="15.549" y2="6.36054" gradientUnits="userSpaceOnUse">
<stop stop-color="#5B4545"/>
<stop offset="1" stop-color="#5B4545" stop-opacity="0"/>
</linearGradient>
<linearGradient id="paint46_linear_13929_4555" x1="14.5562" y1="5.04053" x2="14.5562" y2="6.91834" gradientUnits="userSpaceOnUse">
<stop offset="0.227964" stop-color="#4A3236"/>
<stop offset="1" stop-color="#4A3236" stop-opacity="0"/>
</linearGradient>
</defs>
</svg>
