<svg width="32" height="32" viewBox="0 0 32 32" fill="none" xmlns="http://www.w3.org/2000/svg">
<g filter="url(#filter0_i_3987_24804)">
<path fill-rule="evenodd" clip-rule="evenodd" d="M25.0507 14.4848C25.3184 13.9367 25.4587 13.3248 25.4587 12.6874C25.4587 12.0988 25.3376 11.5464 25.1204 11.043H25.1271C25.0258 10.815 24.9119 10.5996 24.7729 10.3968L24.7703 10.3929C24.3369 9.72999 24.1074 8.95239 24.1074 8.16205V8.1493C24.1074 5.85475 22.2463 3.99362 19.9517 3.99362C19.7223 3.99362 19.5056 3.89164 19.3781 3.70043C18.626 2.65513 17.3894 1.96677 15.9999 1.96677C14.6104 1.96677 13.3739 2.65513 12.6218 3.70043C12.4943 3.87889 12.2776 3.99362 12.0482 3.99362C12.0124 3.99362 11.9767 3.99407 11.9411 3.99498C9.69598 4.05182 7.89249 5.89056 7.89249 8.1493V8.16205C7.89249 8.95239 7.66303 9.72999 7.22962 10.3929L7.22673 10.3975C6.79515 11.0593 6.54138 11.8353 6.54138 12.6874C6.54138 13.3375 6.69435 13.9367 6.9493 14.4848C7.03853 14.6633 7.03853 14.88 6.9493 15.0584C6.69435 15.5938 6.54138 16.193 6.54138 16.8303C6.54138 19.0739 8.35153 20.884 10.5951 20.884H21.405C23.6485 20.884 25.4587 19.0739 25.4587 16.8303C25.4587 16.193 25.3057 15.5938 25.0507 15.0584C24.9615 14.88 24.9615 14.6633 25.0507 14.4848ZM9.60749 11.1186H9.59198L11.1019 14.0857C11.2572 17.6158 12.6349 14.0857 15.9999 14.0857C19.3649 14.0857 20.8323 18.0149 20.9876 14.4848L22.4184 10.4576C22.3507 8.88957 21.2144 8.77951 20.9876 8.77951H16.9316C15.3298 8.77951 13.8185 7.99554 12.9143 6.67179C12.7593 6.45331 12.4364 6.49186 12.333 6.73605L12.2297 6.98024C11.9455 7.6871 11.403 8.22688 10.7313 8.53533C10.7119 8.54175 10.6893 8.55139 10.6667 8.56103C10.6441 8.57067 10.6215 8.58031 10.6021 8.58674C10.305 8.74096 9.60749 9.20363 9.58166 10.3989L9.59458 10.7844L9.60749 11.1186Z" fill="url(#paint0_linear_3987_24804)"/>
<path fill-rule="evenodd" clip-rule="evenodd" d="M25.0507 14.4848C25.3184 13.9367 25.4587 13.3248 25.4587 12.6874C25.4587 12.0988 25.3376 11.5464 25.1204 11.043H25.1271C25.0258 10.815 24.9119 10.5996 24.7729 10.3968L24.7703 10.3929C24.3369 9.72999 24.1074 8.95239 24.1074 8.16205V8.1493C24.1074 5.85475 22.2463 3.99362 19.9517 3.99362C19.7223 3.99362 19.5056 3.89164 19.3781 3.70043C18.626 2.65513 17.3894 1.96677 15.9999 1.96677C14.6104 1.96677 13.3739 2.65513 12.6218 3.70043C12.4943 3.87889 12.2776 3.99362 12.0482 3.99362C12.0124 3.99362 11.9767 3.99407 11.9411 3.99498C9.69598 4.05182 7.89249 5.89056 7.89249 8.1493V8.16205C7.89249 8.95239 7.66303 9.72999 7.22962 10.3929L7.22673 10.3975C6.79515 11.0593 6.54138 11.8353 6.54138 12.6874C6.54138 13.3375 6.69435 13.9367 6.9493 14.4848C7.03853 14.6633 7.03853 14.88 6.9493 15.0584C6.69435 15.5938 6.54138 16.193 6.54138 16.8303C6.54138 19.0739 8.35153 20.884 10.5951 20.884H21.405C23.6485 20.884 25.4587 19.0739 25.4587 16.8303C25.4587 16.193 25.3057 15.5938 25.0507 15.0584C24.9615 14.88 24.9615 14.6633 25.0507 14.4848ZM9.60749 11.1186H9.59198L11.1019 14.0857C11.2572 17.6158 12.6349 14.0857 15.9999 14.0857C19.3649 14.0857 20.8323 18.0149 20.9876 14.4848L22.4184 10.4576C22.3507 8.88957 21.2144 8.77951 20.9876 8.77951H16.9316C15.3298 8.77951 13.8185 7.99554 12.9143 6.67179C12.7593 6.45331 12.4364 6.49186 12.333 6.73605L12.2297 6.98024C11.9455 7.6871 11.403 8.22688 10.7313 8.53533C10.7119 8.54175 10.6893 8.55139 10.6667 8.56103C10.6441 8.57067 10.6215 8.58031 10.6021 8.58674C10.305 8.74096 9.60749 9.20363 9.58166 10.3989L9.59458 10.7844L9.60749 11.1186Z" fill="url(#paint1_radial_3987_24804)"/>
<path fill-rule="evenodd" clip-rule="evenodd" d="M25.0507 14.4848C25.3184 13.9367 25.4587 13.3248 25.4587 12.6874C25.4587 12.0988 25.3376 11.5464 25.1204 11.043H25.1271C25.0258 10.815 24.9119 10.5996 24.7729 10.3968L24.7703 10.3929C24.3369 9.72999 24.1074 8.95239 24.1074 8.16205V8.1493C24.1074 5.85475 22.2463 3.99362 19.9517 3.99362C19.7223 3.99362 19.5056 3.89164 19.3781 3.70043C18.626 2.65513 17.3894 1.96677 15.9999 1.96677C14.6104 1.96677 13.3739 2.65513 12.6218 3.70043C12.4943 3.87889 12.2776 3.99362 12.0482 3.99362C12.0124 3.99362 11.9767 3.99407 11.9411 3.99498C9.69598 4.05182 7.89249 5.89056 7.89249 8.1493V8.16205C7.89249 8.95239 7.66303 9.72999 7.22962 10.3929L7.22673 10.3975C6.79515 11.0593 6.54138 11.8353 6.54138 12.6874C6.54138 13.3375 6.69435 13.9367 6.9493 14.4848C7.03853 14.6633 7.03853 14.88 6.9493 15.0584C6.69435 15.5938 6.54138 16.193 6.54138 16.8303C6.54138 19.0739 8.35153 20.884 10.5951 20.884H21.405C23.6485 20.884 25.4587 19.0739 25.4587 16.8303C25.4587 16.193 25.3057 15.5938 25.0507 15.0584C24.9615 14.88 24.9615 14.6633 25.0507 14.4848ZM9.60749 11.1186H9.59198L11.1019 14.0857C11.2572 17.6158 12.6349 14.0857 15.9999 14.0857C19.3649 14.0857 20.8323 18.0149 20.9876 14.4848L22.4184 10.4576C22.3507 8.88957 21.2144 8.77951 20.9876 8.77951H16.9316C15.3298 8.77951 13.8185 7.99554 12.9143 6.67179C12.7593 6.45331 12.4364 6.49186 12.333 6.73605L12.2297 6.98024C11.9455 7.6871 11.403 8.22688 10.7313 8.53533C10.7119 8.54175 10.6893 8.55139 10.6667 8.56103C10.6441 8.57067 10.6215 8.58031 10.6021 8.58674C10.305 8.74096 9.60749 9.20363 9.58166 10.3989L9.59458 10.7844L9.60749 11.1186Z" fill="url(#paint2_radial_3987_24804)"/>
<path fill-rule="evenodd" clip-rule="evenodd" d="M25.0507 14.4848C25.3184 13.9367 25.4587 13.3248 25.4587 12.6874C25.4587 12.0988 25.3376 11.5464 25.1204 11.043H25.1271C25.0258 10.815 24.9119 10.5996 24.7729 10.3968L24.7703 10.3929C24.3369 9.72999 24.1074 8.95239 24.1074 8.16205V8.1493C24.1074 5.85475 22.2463 3.99362 19.9517 3.99362C19.7223 3.99362 19.5056 3.89164 19.3781 3.70043C18.626 2.65513 17.3894 1.96677 15.9999 1.96677C14.6104 1.96677 13.3739 2.65513 12.6218 3.70043C12.4943 3.87889 12.2776 3.99362 12.0482 3.99362C12.0124 3.99362 11.9767 3.99407 11.9411 3.99498C9.69598 4.05182 7.89249 5.89056 7.89249 8.1493V8.16205C7.89249 8.95239 7.66303 9.72999 7.22962 10.3929L7.22673 10.3975C6.79515 11.0593 6.54138 11.8353 6.54138 12.6874C6.54138 13.3375 6.69435 13.9367 6.9493 14.4848C7.03853 14.6633 7.03853 14.88 6.9493 15.0584C6.69435 15.5938 6.54138 16.193 6.54138 16.8303C6.54138 19.0739 8.35153 20.884 10.5951 20.884H21.405C23.6485 20.884 25.4587 19.0739 25.4587 16.8303C25.4587 16.193 25.3057 15.5938 25.0507 15.0584C24.9615 14.88 24.9615 14.6633 25.0507 14.4848ZM9.60749 11.1186H9.59198L11.1019 14.0857C11.2572 17.6158 12.6349 14.0857 15.9999 14.0857C19.3649 14.0857 20.8323 18.0149 20.9876 14.4848L22.4184 10.4576C22.3507 8.88957 21.2144 8.77951 20.9876 8.77951H16.9316C15.3298 8.77951 13.8185 7.99554 12.9143 6.67179C12.7593 6.45331 12.4364 6.49186 12.333 6.73605L12.2297 6.98024C11.9455 7.6871 11.403 8.22688 10.7313 8.53533C10.7119 8.54175 10.6893 8.55139 10.6667 8.56103C10.6441 8.57067 10.6215 8.58031 10.6021 8.58674C10.305 8.74096 9.60749 9.20363 9.58166 10.3989L9.59458 10.7844L9.60749 11.1186Z" fill="url(#paint3_radial_3987_24804)"/>
<path fill-rule="evenodd" clip-rule="evenodd" d="M25.0507 14.4848C25.3184 13.9367 25.4587 13.3248 25.4587 12.6874C25.4587 12.0988 25.3376 11.5464 25.1204 11.043H25.1271C25.0258 10.815 24.9119 10.5996 24.7729 10.3968L24.7703 10.3929C24.3369 9.72999 24.1074 8.95239 24.1074 8.16205V8.1493C24.1074 5.85475 22.2463 3.99362 19.9517 3.99362C19.7223 3.99362 19.5056 3.89164 19.3781 3.70043C18.626 2.65513 17.3894 1.96677 15.9999 1.96677C14.6104 1.96677 13.3739 2.65513 12.6218 3.70043C12.4943 3.87889 12.2776 3.99362 12.0482 3.99362C12.0124 3.99362 11.9767 3.99407 11.9411 3.99498C9.69598 4.05182 7.89249 5.89056 7.89249 8.1493V8.16205C7.89249 8.95239 7.66303 9.72999 7.22962 10.3929L7.22673 10.3975C6.79515 11.0593 6.54138 11.8353 6.54138 12.6874C6.54138 13.3375 6.69435 13.9367 6.9493 14.4848C7.03853 14.6633 7.03853 14.88 6.9493 15.0584C6.69435 15.5938 6.54138 16.193 6.54138 16.8303C6.54138 19.0739 8.35153 20.884 10.5951 20.884H21.405C23.6485 20.884 25.4587 19.0739 25.4587 16.8303C25.4587 16.193 25.3057 15.5938 25.0507 15.0584C24.9615 14.88 24.9615 14.6633 25.0507 14.4848ZM9.60749 11.1186H9.59198L11.1019 14.0857C11.2572 17.6158 12.6349 14.0857 15.9999 14.0857C19.3649 14.0857 20.8323 18.0149 20.9876 14.4848L22.4184 10.4576C22.3507 8.88957 21.2144 8.77951 20.9876 8.77951H16.9316C15.3298 8.77951 13.8185 7.99554 12.9143 6.67179C12.7593 6.45331 12.4364 6.49186 12.333 6.73605L12.2297 6.98024C11.9455 7.6871 11.403 8.22688 10.7313 8.53533C10.7119 8.54175 10.6893 8.55139 10.6667 8.56103C10.6441 8.57067 10.6215 8.58031 10.6021 8.58674C10.305 8.74096 9.60749 9.20363 9.58166 10.3989L9.59458 10.7844L9.60749 11.1186Z" fill="url(#paint4_radial_3987_24804)"/>
<path fill-rule="evenodd" clip-rule="evenodd" d="M25.0507 14.4848C25.3184 13.9367 25.4587 13.3248 25.4587 12.6874C25.4587 12.0988 25.3376 11.5464 25.1204 11.043H25.1271C25.0258 10.815 24.9119 10.5996 24.7729 10.3968L24.7703 10.3929C24.3369 9.72999 24.1074 8.95239 24.1074 8.16205V8.1493C24.1074 5.85475 22.2463 3.99362 19.9517 3.99362C19.7223 3.99362 19.5056 3.89164 19.3781 3.70043C18.626 2.65513 17.3894 1.96677 15.9999 1.96677C14.6104 1.96677 13.3739 2.65513 12.6218 3.70043C12.4943 3.87889 12.2776 3.99362 12.0482 3.99362C12.0124 3.99362 11.9767 3.99407 11.9411 3.99498C9.69598 4.05182 7.89249 5.89056 7.89249 8.1493V8.16205C7.89249 8.95239 7.66303 9.72999 7.22962 10.3929L7.22673 10.3975C6.79515 11.0593 6.54138 11.8353 6.54138 12.6874C6.54138 13.3375 6.69435 13.9367 6.9493 14.4848C7.03853 14.6633 7.03853 14.88 6.9493 15.0584C6.69435 15.5938 6.54138 16.193 6.54138 16.8303C6.54138 19.0739 8.35153 20.884 10.5951 20.884H21.405C23.6485 20.884 25.4587 19.0739 25.4587 16.8303C25.4587 16.193 25.3057 15.5938 25.0507 15.0584C24.9615 14.88 24.9615 14.6633 25.0507 14.4848ZM9.60749 11.1186H9.59198L11.1019 14.0857C11.2572 17.6158 12.6349 14.0857 15.9999 14.0857C19.3649 14.0857 20.8323 18.0149 20.9876 14.4848L22.4184 10.4576C22.3507 8.88957 21.2144 8.77951 20.9876 8.77951H16.9316C15.3298 8.77951 13.8185 7.99554 12.9143 6.67179C12.7593 6.45331 12.4364 6.49186 12.333 6.73605L12.2297 6.98024C11.9455 7.6871 11.403 8.22688 10.7313 8.53533C10.7119 8.54175 10.6893 8.55139 10.6667 8.56103C10.6441 8.57067 10.6215 8.58031 10.6021 8.58674C10.305 8.74096 9.60749 9.20363 9.58166 10.3989L9.59458 10.7844L9.60749 11.1186Z" fill="url(#paint5_radial_3987_24804)"/>
<path fill-rule="evenodd" clip-rule="evenodd" d="M25.0507 14.4848C25.3184 13.9367 25.4587 13.3248 25.4587 12.6874C25.4587 12.0988 25.3376 11.5464 25.1204 11.043H25.1271C25.0258 10.815 24.9119 10.5996 24.7729 10.3968L24.7703 10.3929C24.3369 9.72999 24.1074 8.95239 24.1074 8.16205V8.1493C24.1074 5.85475 22.2463 3.99362 19.9517 3.99362C19.7223 3.99362 19.5056 3.89164 19.3781 3.70043C18.626 2.65513 17.3894 1.96677 15.9999 1.96677C14.6104 1.96677 13.3739 2.65513 12.6218 3.70043C12.4943 3.87889 12.2776 3.99362 12.0482 3.99362C12.0124 3.99362 11.9767 3.99407 11.9411 3.99498C9.69598 4.05182 7.89249 5.89056 7.89249 8.1493V8.16205C7.89249 8.95239 7.66303 9.72999 7.22962 10.3929L7.22673 10.3975C6.79515 11.0593 6.54138 11.8353 6.54138 12.6874C6.54138 13.3375 6.69435 13.9367 6.9493 14.4848C7.03853 14.6633 7.03853 14.88 6.9493 15.0584C6.69435 15.5938 6.54138 16.193 6.54138 16.8303C6.54138 19.0739 8.35153 20.884 10.5951 20.884H21.405C23.6485 20.884 25.4587 19.0739 25.4587 16.8303C25.4587 16.193 25.3057 15.5938 25.0507 15.0584C24.9615 14.88 24.9615 14.6633 25.0507 14.4848ZM9.60749 11.1186H9.59198L11.1019 14.0857C11.2572 17.6158 12.6349 14.0857 15.9999 14.0857C19.3649 14.0857 20.8323 18.0149 20.9876 14.4848L22.4184 10.4576C22.3507 8.88957 21.2144 8.77951 20.9876 8.77951H16.9316C15.3298 8.77951 13.8185 7.99554 12.9143 6.67179C12.7593 6.45331 12.4364 6.49186 12.333 6.73605L12.2297 6.98024C11.9455 7.6871 11.403 8.22688 10.7313 8.53533C10.7119 8.54175 10.6893 8.55139 10.6667 8.56103C10.6441 8.57067 10.6215 8.58031 10.6021 8.58674C10.305 8.74096 9.60749 9.20363 9.58166 10.3989L9.59458 10.7844L9.60749 11.1186Z" fill="url(#paint6_radial_3987_24804)"/>
<path fill-rule="evenodd" clip-rule="evenodd" d="M25.0507 14.4848C25.3184 13.9367 25.4587 13.3248 25.4587 12.6874C25.4587 12.0988 25.3376 11.5464 25.1204 11.043H25.1271C25.0258 10.815 24.9119 10.5996 24.7729 10.3968L24.7703 10.3929C24.3369 9.72999 24.1074 8.95239 24.1074 8.16205V8.1493C24.1074 5.85475 22.2463 3.99362 19.9517 3.99362C19.7223 3.99362 19.5056 3.89164 19.3781 3.70043C18.626 2.65513 17.3894 1.96677 15.9999 1.96677C14.6104 1.96677 13.3739 2.65513 12.6218 3.70043C12.4943 3.87889 12.2776 3.99362 12.0482 3.99362C12.0124 3.99362 11.9767 3.99407 11.9411 3.99498C9.69598 4.05182 7.89249 5.89056 7.89249 8.1493V8.16205C7.89249 8.95239 7.66303 9.72999 7.22962 10.3929L7.22673 10.3975C6.79515 11.0593 6.54138 11.8353 6.54138 12.6874C6.54138 13.3375 6.69435 13.9367 6.9493 14.4848C7.03853 14.6633 7.03853 14.88 6.9493 15.0584C6.69435 15.5938 6.54138 16.193 6.54138 16.8303C6.54138 19.0739 8.35153 20.884 10.5951 20.884H21.405C23.6485 20.884 25.4587 19.0739 25.4587 16.8303C25.4587 16.193 25.3057 15.5938 25.0507 15.0584C24.9615 14.88 24.9615 14.6633 25.0507 14.4848ZM9.60749 11.1186H9.59198L11.1019 14.0857C11.2572 17.6158 12.6349 14.0857 15.9999 14.0857C19.3649 14.0857 20.8323 18.0149 20.9876 14.4848L22.4184 10.4576C22.3507 8.88957 21.2144 8.77951 20.9876 8.77951H16.9316C15.3298 8.77951 13.8185 7.99554 12.9143 6.67179C12.7593 6.45331 12.4364 6.49186 12.333 6.73605L12.2297 6.98024C11.9455 7.6871 11.403 8.22688 10.7313 8.53533C10.7119 8.54175 10.6893 8.55139 10.6667 8.56103C10.6441 8.57067 10.6215 8.58031 10.6021 8.58674C10.305 8.74096 9.60749 9.20363 9.58166 10.3989L9.59458 10.7844L9.60749 11.1186Z" fill="url(#paint7_radial_3987_24804)"/>
<path fill-rule="evenodd" clip-rule="evenodd" d="M25.0507 14.4848C25.3184 13.9367 25.4587 13.3248 25.4587 12.6874C25.4587 12.0988 25.3376 11.5464 25.1204 11.043H25.1271C25.0258 10.815 24.9119 10.5996 24.7729 10.3968L24.7703 10.3929C24.3369 9.72999 24.1074 8.95239 24.1074 8.16205V8.1493C24.1074 5.85475 22.2463 3.99362 19.9517 3.99362C19.7223 3.99362 19.5056 3.89164 19.3781 3.70043C18.626 2.65513 17.3894 1.96677 15.9999 1.96677C14.6104 1.96677 13.3739 2.65513 12.6218 3.70043C12.4943 3.87889 12.2776 3.99362 12.0482 3.99362C12.0124 3.99362 11.9767 3.99407 11.9411 3.99498C9.69598 4.05182 7.89249 5.89056 7.89249 8.1493V8.16205C7.89249 8.95239 7.66303 9.72999 7.22962 10.3929L7.22673 10.3975C6.79515 11.0593 6.54138 11.8353 6.54138 12.6874C6.54138 13.3375 6.69435 13.9367 6.9493 14.4848C7.03853 14.6633 7.03853 14.88 6.9493 15.0584C6.69435 15.5938 6.54138 16.193 6.54138 16.8303C6.54138 19.0739 8.35153 20.884 10.5951 20.884H21.405C23.6485 20.884 25.4587 19.0739 25.4587 16.8303C25.4587 16.193 25.3057 15.5938 25.0507 15.0584C24.9615 14.88 24.9615 14.6633 25.0507 14.4848ZM9.60749 11.1186H9.59198L11.1019 14.0857C11.2572 17.6158 12.6349 14.0857 15.9999 14.0857C19.3649 14.0857 20.8323 18.0149 20.9876 14.4848L22.4184 10.4576C22.3507 8.88957 21.2144 8.77951 20.9876 8.77951H16.9316C15.3298 8.77951 13.8185 7.99554 12.9143 6.67179C12.7593 6.45331 12.4364 6.49186 12.333 6.73605L12.2297 6.98024C11.9455 7.6871 11.403 8.22688 10.7313 8.53533C10.7119 8.54175 10.6893 8.55139 10.6667 8.56103C10.6441 8.57067 10.6215 8.58031 10.6021 8.58674C10.305 8.74096 9.60749 9.20363 9.58166 10.3989L9.59458 10.7844L9.60749 11.1186Z" fill="url(#paint8_radial_3987_24804)"/>
<path fill-rule="evenodd" clip-rule="evenodd" d="M25.0507 14.4848C25.3184 13.9367 25.4587 13.3248 25.4587 12.6874C25.4587 12.0988 25.3376 11.5464 25.1204 11.043H25.1271C25.0258 10.815 24.9119 10.5996 24.7729 10.3968L24.7703 10.3929C24.3369 9.72999 24.1074 8.95239 24.1074 8.16205V8.1493C24.1074 5.85475 22.2463 3.99362 19.9517 3.99362C19.7223 3.99362 19.5056 3.89164 19.3781 3.70043C18.626 2.65513 17.3894 1.96677 15.9999 1.96677C14.6104 1.96677 13.3739 2.65513 12.6218 3.70043C12.4943 3.87889 12.2776 3.99362 12.0482 3.99362C12.0124 3.99362 11.9767 3.99407 11.9411 3.99498C9.69598 4.05182 7.89249 5.89056 7.89249 8.1493V8.16205C7.89249 8.95239 7.66303 9.72999 7.22962 10.3929L7.22673 10.3975C6.79515 11.0593 6.54138 11.8353 6.54138 12.6874C6.54138 13.3375 6.69435 13.9367 6.9493 14.4848C7.03853 14.6633 7.03853 14.88 6.9493 15.0584C6.69435 15.5938 6.54138 16.193 6.54138 16.8303C6.54138 19.0739 8.35153 20.884 10.5951 20.884H21.405C23.6485 20.884 25.4587 19.0739 25.4587 16.8303C25.4587 16.193 25.3057 15.5938 25.0507 15.0584C24.9615 14.88 24.9615 14.6633 25.0507 14.4848ZM9.60749 11.1186H9.59198L11.1019 14.0857C11.2572 17.6158 12.6349 14.0857 15.9999 14.0857C19.3649 14.0857 20.8323 18.0149 20.9876 14.4848L22.4184 10.4576C22.3507 8.88957 21.2144 8.77951 20.9876 8.77951H16.9316C15.3298 8.77951 13.8185 7.99554 12.9143 6.67179C12.7593 6.45331 12.4364 6.49186 12.333 6.73605L12.2297 6.98024C11.9455 7.6871 11.403 8.22688 10.7313 8.53533C10.7119 8.54175 10.6893 8.55139 10.6667 8.56103C10.6441 8.57067 10.6215 8.58031 10.6021 8.58674C10.305 8.74096 9.60749 9.20363 9.58166 10.3989L9.59458 10.7844L9.60749 11.1186Z" fill="url(#paint9_radial_3987_24804)"/>
</g>
<path fill-rule="evenodd" clip-rule="evenodd" d="M25.0507 14.4848C25.3184 13.9367 25.4587 13.3248 25.4587 12.6874C25.4587 12.0988 25.3376 11.5464 25.1204 11.043H25.1271C25.0258 10.815 24.9119 10.5996 24.7729 10.3968L24.7703 10.3929C24.3369 9.72999 24.1074 8.95239 24.1074 8.16205V8.1493C24.1074 5.85475 22.2463 3.99362 19.9517 3.99362C19.7223 3.99362 19.5056 3.89164 19.3781 3.70043C18.626 2.65513 17.3894 1.96677 15.9999 1.96677C14.6104 1.96677 13.3739 2.65513 12.6218 3.70043C12.4943 3.87889 12.2776 3.99362 12.0482 3.99362C12.0124 3.99362 11.9767 3.99407 11.9411 3.99498C9.69598 4.05182 7.89249 5.89056 7.89249 8.1493V8.16205C7.89249 8.95239 7.66303 9.72999 7.22962 10.3929L7.22673 10.3975C6.79515 11.0593 6.54138 11.8353 6.54138 12.6874C6.54138 13.3375 6.69435 13.9367 6.9493 14.4848C7.03853 14.6633 7.03853 14.88 6.9493 15.0584C6.69435 15.5938 6.54138 16.193 6.54138 16.8303C6.54138 19.0739 8.35153 20.884 10.5951 20.884H21.405C23.6485 20.884 25.4587 19.0739 25.4587 16.8303C25.4587 16.193 25.3057 15.5938 25.0507 15.0584C24.9615 14.88 24.9615 14.6633 25.0507 14.4848ZM9.60749 11.1186H9.59198L11.1019 14.0857C11.2572 17.6158 12.6349 14.0857 15.9999 14.0857C19.3649 14.0857 20.8323 18.0149 20.9876 14.4848L22.4184 10.4576C22.3507 8.88957 21.2144 8.77951 20.9876 8.77951H16.9316C15.3298 8.77951 13.8185 7.99554 12.9143 6.67179C12.7593 6.45331 12.4364 6.49186 12.333 6.73605L12.2297 6.98024C11.9455 7.6871 11.403 8.22688 10.7313 8.53533C10.7119 8.54175 10.6893 8.55139 10.6667 8.56103C10.6441 8.57067 10.6215 8.58031 10.6021 8.58674C10.305 8.74096 9.60749 9.20363 9.58166 10.3989L9.59458 10.7844L9.60749 11.1186Z" fill="url(#paint10_linear_3987_24804)"/>
<g filter="url(#filter1_i_3987_24804)">
<path d="M10.0978 14.7359C11.2172 14.7359 12.1246 13.8285 12.1246 12.7091C12.1246 11.5897 11.2172 10.6822 10.0978 10.6822C8.97838 10.6822 8.07092 11.5897 8.07092 12.7091C8.07092 13.8285 8.97838 14.7359 10.0978 14.7359Z" fill="url(#paint11_linear_3987_24804)"/>
</g>
<g filter="url(#filter2_i_3987_24804)">
<path d="M22.0806 14.7359C23.2 14.7359 24.1074 13.8285 24.1074 12.7091C24.1074 11.5897 23.2 10.6822 22.0806 10.6822C20.9612 10.6822 20.0537 11.5897 20.0537 12.7091C20.0537 13.8285 20.9612 14.7359 22.0806 14.7359Z" fill="url(#paint12_radial_3987_24804)"/>
<path d="M22.0806 14.7359C23.2 14.7359 24.1074 13.8285 24.1074 12.7091C24.1074 11.5897 23.2 10.6822 22.0806 10.6822C20.9612 10.6822 20.0537 11.5897 20.0537 12.7091C20.0537 13.8285 20.9612 14.7359 22.0806 14.7359Z" fill="url(#paint13_radial_3987_24804)"/>
</g>
<g filter="url(#filter3_f_3987_24804)">
<path d="M22.0806 14.0621C22.8279 14.0621 23.4336 13.4563 23.4336 12.7091C23.4336 11.9618 22.8279 11.3561 22.0806 11.3561C21.3334 11.3561 20.7277 11.9618 20.7277 12.7091C20.7277 13.4563 21.3334 14.0621 22.0806 14.0621Z" fill="#E5AA8B"/>
<path d="M22.0806 14.0621C22.8279 14.0621 23.4336 13.4563 23.4336 12.7091C23.4336 11.9618 22.8279 11.3561 22.0806 11.3561C21.3334 11.3561 20.7277 11.9618 20.7277 12.7091C20.7277 13.4563 21.3334 14.0621 22.0806 14.0621Z" fill="url(#paint14_radial_3987_24804)"/>
</g>
<g filter="url(#filter4_f_3987_24804)">
<path d="M10.1221 14.0621C10.8694 14.0621 11.4751 13.4563 11.4751 12.7091C11.4751 11.9618 10.8694 11.3561 10.1221 11.3561C9.37492 11.3561 8.76917 11.9618 8.76917 12.7091C8.76917 13.4563 9.37492 14.0621 10.1221 14.0621Z" fill="#B47A6C"/>
<path d="M10.1221 14.0621C10.8694 14.0621 11.4751 13.4563 11.4751 12.7091C11.4751 11.9618 10.8694 11.3561 10.1221 11.3561C9.37492 11.3561 8.76917 11.9618 8.76917 12.7091C8.76917 13.4563 9.37492 14.0621 10.1221 14.0621Z" fill="url(#paint15_radial_3987_24804)"/>
</g>
<g filter="url(#filter5_i_3987_24804)">
<path d="M9.59458 10.7844L9.58167 10.3989C9.6075 9.20362 10.305 8.74095 10.6021 8.58673C10.6215 8.5803 10.6441 8.57066 10.6667 8.56102C10.6893 8.55138 10.7119 8.54174 10.7313 8.53532C11.403 8.22687 11.9455 7.68709 12.2297 6.98023L12.333 6.73604C12.4364 6.49185 12.7593 6.4533 12.9143 6.67178C13.8185 7.99553 15.3299 8.7795 16.9316 8.7795H20.9876C21.2144 8.7795 22.3507 8.88956 22.4184 10.4576L22.2688 14.3285C22.1135 17.8586 19.3568 20.229 15.9918 20.229C12.6268 20.229 9.87004 17.8586 9.71473 14.3285L9.59458 10.7844Z" fill="url(#paint16_radial_3987_24804)"/>
<path d="M9.59458 10.7844L9.58167 10.3989C9.6075 9.20362 10.305 8.74095 10.6021 8.58673C10.6215 8.5803 10.6441 8.57066 10.6667 8.56102C10.6893 8.55138 10.7119 8.54174 10.7313 8.53532C11.403 8.22687 11.9455 7.68709 12.2297 6.98023L12.333 6.73604C12.4364 6.49185 12.7593 6.4533 12.9143 6.67178C13.8185 7.99553 15.3299 8.7795 16.9316 8.7795H20.9876C21.2144 8.7795 22.3507 8.88956 22.4184 10.4576L22.2688 14.3285C22.1135 17.8586 19.3568 20.229 15.9918 20.229C12.6268 20.229 9.87004 17.8586 9.71473 14.3285L9.59458 10.7844Z" fill="url(#paint17_radial_3987_24804)"/>
<path d="M9.59458 10.7844L9.58167 10.3989C9.6075 9.20362 10.305 8.74095 10.6021 8.58673C10.6215 8.5803 10.6441 8.57066 10.6667 8.56102C10.6893 8.55138 10.7119 8.54174 10.7313 8.53532C11.403 8.22687 11.9455 7.68709 12.2297 6.98023L12.333 6.73604C12.4364 6.49185 12.7593 6.4533 12.9143 6.67178C13.8185 7.99553 15.3299 8.7795 16.9316 8.7795H20.9876C21.2144 8.7795 22.3507 8.88956 22.4184 10.4576L22.2688 14.3285C22.1135 17.8586 19.3568 20.229 15.9918 20.229C12.6268 20.229 9.87004 17.8586 9.71473 14.3285L9.59458 10.7844Z" fill="url(#paint18_radial_3987_24804)"/>
<path d="M9.59458 10.7844L9.58167 10.3989C9.6075 9.20362 10.305 8.74095 10.6021 8.58673C10.6215 8.5803 10.6441 8.57066 10.6667 8.56102C10.6893 8.55138 10.7119 8.54174 10.7313 8.53532C11.403 8.22687 11.9455 7.68709 12.2297 6.98023L12.333 6.73604C12.4364 6.49185 12.7593 6.4533 12.9143 6.67178C13.8185 7.99553 15.3299 8.7795 16.9316 8.7795H20.9876C21.2144 8.7795 22.3507 8.88956 22.4184 10.4576L22.2688 14.3285C22.1135 17.8586 19.3568 20.229 15.9918 20.229C12.6268 20.229 9.87004 17.8586 9.71473 14.3285L9.59458 10.7844Z" fill="url(#paint19_radial_3987_24804)"/>
<path d="M9.59458 10.7844L9.58167 10.3989C9.6075 9.20362 10.305 8.74095 10.6021 8.58673C10.6215 8.5803 10.6441 8.57066 10.6667 8.56102C10.6893 8.55138 10.7119 8.54174 10.7313 8.53532C11.403 8.22687 11.9455 7.68709 12.2297 6.98023L12.333 6.73604C12.4364 6.49185 12.7593 6.4533 12.9143 6.67178C13.8185 7.99553 15.3299 8.7795 16.9316 8.7795H20.9876C21.2144 8.7795 22.3507 8.88956 22.4184 10.4576L22.2688 14.3285C22.1135 17.8586 19.3568 20.229 15.9918 20.229C12.6268 20.229 9.87004 17.8586 9.71473 14.3285L9.59458 10.7844Z" fill="url(#paint20_radial_3987_24804)"/>
<path d="M9.59458 10.7844L9.58167 10.3989C9.6075 9.20362 10.305 8.74095 10.6021 8.58673C10.6215 8.5803 10.6441 8.57066 10.6667 8.56102C10.6893 8.55138 10.7119 8.54174 10.7313 8.53532C11.403 8.22687 11.9455 7.68709 12.2297 6.98023L12.333 6.73604C12.4364 6.49185 12.7593 6.4533 12.9143 6.67178C13.8185 7.99553 15.3299 8.7795 16.9316 8.7795H20.9876C21.2144 8.7795 22.3507 8.88956 22.4184 10.4576L22.2688 14.3285C22.1135 17.8586 19.3568 20.229 15.9918 20.229C12.6268 20.229 9.87004 17.8586 9.71473 14.3285L9.59458 10.7844Z" fill="url(#paint21_radial_3987_24804)"/>
<path d="M9.59458 10.7844L9.58167 10.3989C9.6075 9.20362 10.305 8.74095 10.6021 8.58673C10.6215 8.5803 10.6441 8.57066 10.6667 8.56102C10.6893 8.55138 10.7119 8.54174 10.7313 8.53532C11.403 8.22687 11.9455 7.68709 12.2297 6.98023L12.333 6.73604C12.4364 6.49185 12.7593 6.4533 12.9143 6.67178C13.8185 7.99553 15.3299 8.7795 16.9316 8.7795H20.9876C21.2144 8.7795 22.3507 8.88956 22.4184 10.4576L22.2688 14.3285C22.1135 17.8586 19.3568 20.229 15.9918 20.229C12.6268 20.229 9.87004 17.8586 9.71473 14.3285L9.59458 10.7844Z" fill="url(#paint22_radial_3987_24804)"/>
</g>
<path d="M9.59199 11.1186H9.6075L9.59458 10.7844L9.58167 10.3989C9.6075 9.20362 10.305 8.74095 10.6021 8.58673C10.6215 8.5803 10.6441 8.57066 10.6667 8.56102C10.6893 8.55138 10.7119 8.54174 10.7313 8.53532C11.403 8.22687 11.9455 7.68709 12.2297 6.98023L12.333 6.73604C12.4364 6.49185 12.7593 6.4533 12.9143 6.67178C13.8185 7.99553 15.3299 8.7795 16.9316 8.7795H20.9876C21.2144 8.7795 22.3507 8.88956 22.4184 10.4576L22.2688 14.3285C22.1135 17.8586 19.3568 20.229 15.9918 20.229C12.6268 20.229 9.87004 17.8586 9.71473 14.3285L9.59199 11.1186Z" fill="url(#paint23_radial_3987_24804)"/>
<path d="M9.59199 11.1186H9.6075L9.59458 10.7844L9.58167 10.3989C9.6075 9.20362 10.305 8.74095 10.6021 8.58673C10.6215 8.5803 10.6441 8.57066 10.6667 8.56102C10.6893 8.55138 10.7119 8.54174 10.7313 8.53532C11.403 8.22687 11.9455 7.68709 12.2297 6.98023L12.333 6.73604C12.4364 6.49185 12.7593 6.4533 12.9143 6.67178C13.8185 7.99553 15.3299 8.7795 16.9316 8.7795H20.9876C21.2144 8.7795 22.3507 8.88956 22.4184 10.4576L22.2688 14.3285C22.1135 17.8586 19.3568 20.229 15.9918 20.229C12.6268 20.229 9.87004 17.8586 9.71473 14.3285L9.59199 11.1186Z" fill="url(#paint24_radial_3987_24804)"/>
<g filter="url(#filter6_f_3987_24804)">
<path d="M15.5055 12.4285L14.6444 14.5699C14.5078 15.0104 14.8357 15.4508 15.3002 15.4508H16.2908C16.7553 15.4508 17.0832 15.0036 16.9465 14.5699L16.2771 12.4285C16.1336 11.9542 15.6558 11.9542 15.5055 12.4285Z" fill="#C28178"/>
</g>
<g filter="url(#filter7_f_3987_24804)">
<path d="M15.5185 12.2541L14.849 14.3955C14.7124 14.8359 15.0403 15.2764 15.5048 15.2764H16.4953C16.9599 15.2764 17.2878 14.8292 17.1511 14.3955L16.4817 12.2541C16.3382 11.7797 15.6688 11.7797 15.5185 12.2541Z" fill="#EFB696"/>
<path d="M15.5185 12.2541L14.849 14.3955C14.7124 14.8359 15.0403 15.2764 15.5048 15.2764H16.4953C16.9599 15.2764 17.2878 14.8292 17.1511 14.3955L16.4817 12.2541C16.3382 11.7797 15.6688 11.7797 15.5185 12.2541Z" fill="url(#paint25_radial_3987_24804)"/>
<path d="M15.5185 12.2541L14.849 14.3955C14.7124 14.8359 15.0403 15.2764 15.5048 15.2764H16.4953C16.9599 15.2764 17.2878 14.8292 17.1511 14.3955L16.4817 12.2541C16.3382 11.7797 15.6688 11.7797 15.5185 12.2541Z" fill="url(#paint26_linear_3987_24804)"/>
<path d="M15.5185 12.2541L14.849 14.3955C14.7124 14.8359 15.0403 15.2764 15.5048 15.2764H16.4953C16.9599 15.2764 17.2878 14.8292 17.1511 14.3955L16.4817 12.2541C16.3382 11.7797 15.6688 11.7797 15.5185 12.2541Z" fill="url(#paint27_linear_3987_24804)"/>
</g>
<path d="M15.5185 12.2541L14.849 14.3955C14.7124 14.8359 15.0403 15.2764 15.5048 15.2764H16.4953C16.9599 15.2764 17.2878 14.8292 17.1511 14.3955L16.4817 12.2541C16.3382 11.7797 15.6688 11.7797 15.5185 12.2541Z" fill="url(#paint28_linear_3987_24804)"/>
<path d="M15.5185 12.2541L14.849 14.3955C14.7124 14.8359 15.0403 15.2764 15.5048 15.2764H16.4953C16.9599 15.2764 17.2878 14.8292 17.1511 14.3955L16.4817 12.2541C16.3382 11.7797 15.6688 11.7797 15.5185 12.2541Z" fill="url(#paint29_radial_3987_24804)"/>
<g filter="url(#filter8_i_3987_24804)">
<path d="M17.4387 11.9922C17.773 11.4043 18.2813 10.9398 19.3752 10.9398C19.8542 10.9398 20.316 11.0725 20.7265 11.4043C21.0652 11.6779 21.0198 12.028 20.7576 12.1591L20.0572 12.559C19.2361 12.2936 18.3282 12.2576 17.4387 11.9922Z" fill="#635D5F"/>
</g>
<g filter="url(#filter9_i_3987_24804)">
<path d="M14.5616 11.9922C14.2272 11.4043 13.719 10.9398 12.6251 10.9398C12.1461 10.9398 11.6842 11.0725 11.2737 11.4043C10.9351 11.6779 10.9804 12.028 11.2427 12.1591L11.9431 12.559C12.7641 12.2936 13.6721 12.2576 14.5616 11.9922Z" fill="#635D5F"/>
</g>
<path d="M19.0118 11.0138C19.8345 11.0138 20.5294 11.5809 20.7185 12.3474C20.7747 12.5671 20.6061 12.7766 20.3812 12.7766H17.5708C17.392 12.7766 17.2489 12.6131 17.2847 12.4343C17.4431 11.6269 18.1534 11.0138 19.0118 11.0138Z" fill="white"/>
<path d="M18.7512 11.3561C19.3746 11.3561 19.8754 11.862 19.8754 12.4803C19.8754 12.5825 19.86 12.6847 19.8345 12.7766H17.6628C17.6373 12.6795 17.6219 12.5825 17.6219 12.4803C17.6219 11.862 18.1278 11.3561 18.7512 11.3561Z" fill="url(#paint30_radial_3987_24804)"/>
<path d="M18.1073 12.4803C18.1073 12.1226 18.3934 11.8364 18.7511 11.8364C19.1088 11.8364 19.395 12.1226 19.395 12.4803C19.395 12.5876 19.3694 12.6898 19.3234 12.7766H18.1839C18.1328 12.6898 18.1073 12.5876 18.1073 12.4803Z" fill="black"/>
<g filter="url(#filter10_f_3987_24804)">
<path d="M18.6684 11.5937C18.7485 11.7009 18.5811 11.8315 18.3908 11.9738C18.2004 12.1161 18.0592 12.2162 17.9791 12.1091C17.899 12.002 17.9884 11.7998 18.1788 11.6575C18.3691 11.5152 18.5883 11.4866 18.6684 11.5937Z" fill="#C7A7A3"/>
<path d="M18.6684 11.5937C18.7485 11.7009 18.5811 11.8315 18.3908 11.9738C18.2004 12.1161 18.0592 12.2162 17.9791 12.1091C17.899 12.002 17.9884 11.7998 18.1788 11.6575C18.3691 11.5152 18.5883 11.4866 18.6684 11.5937Z" fill="url(#paint31_radial_3987_24804)"/>
</g>
<g filter="url(#filter11_f_3987_24804)">
<path d="M19.7524 12.3322C19.7109 12.0416 19.5409 11.8226 19.461 11.7494L19.1337 12.1087L19.2814 12.3961L19.7524 12.3322Z" fill="url(#paint32_linear_3987_24804)"/>
</g>
<path d="M12.9882 11.0137C12.1655 11.0137 11.4706 11.5809 11.2815 12.3474C11.2253 12.5671 11.3939 12.7766 11.6188 12.7766H14.4292C14.608 12.7766 14.7511 12.6131 14.7153 12.4343C14.5569 11.6269 13.8415 11.0137 12.9882 11.0137Z" fill="white"/>
<path d="M13.2488 11.3561C12.6254 11.3561 12.1246 11.862 12.1246 12.4803C12.1246 12.5825 12.14 12.6846 12.1655 12.7766H14.3372C14.3627 12.6795 14.3781 12.5825 14.3781 12.4803C14.373 11.862 13.8722 11.3561 13.2488 11.3561Z" fill="url(#paint33_radial_3987_24804)"/>
<path d="M13.8928 12.4803C13.8928 12.1226 13.6066 11.8364 13.2489 11.8364C12.8913 11.8364 12.6051 12.1226 12.6051 12.4803C12.6051 12.5876 12.6307 12.6898 12.6766 12.7766H13.8161C13.8621 12.6898 13.8928 12.5876 13.8928 12.4803Z" fill="black"/>
<g filter="url(#filter12_f_3987_24804)">
<path d="M14.2759 12.3482C14.2759 11.9849 13.9805 11.7427 13.9006 11.6696L13.5374 12.0209L13.7609 12.4759L14.2759 12.3482Z" fill="url(#paint34_linear_3987_24804)"/>
</g>
<g filter="url(#filter13_f_3987_24804)">
<ellipse cx="12.9097" cy="11.8364" rx="0.490755" ry="0.248368" transform="rotate(-27.914 12.9097 11.8364)" fill="#C7A7A3" fill-opacity="0.9"/>
<ellipse cx="12.9097" cy="11.8364" rx="0.490755" ry="0.248368" transform="rotate(-27.914 12.9097 11.8364)" fill="url(#paint35_radial_3987_24804)"/>
</g>
<g filter="url(#filter14_f_3987_24804)">
<path d="M9.83522 5.13373C10.6175 4.437 11.7459 4.42996 12.3793 4.54257L12.8861 6.16827C12.5623 6.11901 12.2738 6.23161 12.031 6.46386C11.4608 8.57516 9.30725 8.25846 8.88499 9.84194C8.69497 7.96288 8.48399 6.33718 9.83522 5.13373Z" fill="url(#paint36_radial_3987_24804)"/>
<path d="M9.83522 5.13373C10.6175 4.437 11.7459 4.42996 12.3793 4.54257L12.8861 6.16827C12.5623 6.11901 12.2738 6.23161 12.031 6.46386C11.4608 8.57516 9.30725 8.25846 8.88499 9.84194C8.69497 7.96288 8.48399 6.33718 9.83522 5.13373Z" fill="url(#paint37_radial_3987_24804)"/>
</g>
<g filter="url(#filter15_f_3987_24804)">
<path d="M15.2401 2.89575C13.8134 2.58075 12.2843 4.09919 12.1365 4.62702C14.0789 9.18744 17.0615 8.75282 20.3706 8.38514C22.3514 8.16504 22.5663 9.06779 22.7352 9.50413C22.1863 4.39478 18.4915 3.6136 15.2401 2.89575Z" fill="url(#paint38_radial_3987_24804)"/>
<path d="M15.2401 2.89575C13.8134 2.58075 12.2843 4.09919 12.1365 4.62702C14.0789 9.18744 17.0615 8.75282 20.3706 8.38514C22.3514 8.16504 22.5663 9.06779 22.7352 9.50413C22.1863 4.39478 18.4915 3.6136 15.2401 2.89575Z" fill="url(#paint39_radial_3987_24804)"/>
<path d="M15.2401 2.89575C13.8134 2.58075 12.2843 4.09919 12.1365 4.62702C14.0789 9.18744 17.0615 8.75282 20.3706 8.38514C22.3514 8.16504 22.5663 9.06779 22.7352 9.50413C22.1863 4.39478 18.4915 3.6136 15.2401 2.89575Z" fill="url(#paint40_radial_3987_24804)"/>
</g>
<g filter="url(#filter16_f_3987_24804)">
<path d="M12.3582 4.46867C12.3875 4.77481 12.6537 5.92547 13.0443 6.6222" stroke="url(#paint41_linear_3987_24804)" stroke-width="0.2" stroke-linecap="round"/>
</g>
<g filter="url(#filter17_i_3987_24804)">
<path d="M11.3878 10.217C11.3389 10.0304 11.4508 9.83959 11.6374 9.79106L13.7238 9.24861C13.91 9.20021 14.1002 9.31168 14.149 9.49776C14.1978 9.68433 14.086 9.87516 13.8993 9.92369L11.8129 10.4661C11.6268 10.5145 11.4366 10.4031 11.3878 10.217Z" fill="#99622F"/>
</g>
<g filter="url(#filter18_i_3987_24804)">
<path d="M20.7113 10.217C20.7602 10.0304 20.6484 9.83959 20.4617 9.79106L18.3753 9.24861C18.1892 9.20021 17.9989 9.31168 17.9502 9.49776C17.9013 9.68433 18.0131 9.87516 18.1998 9.92369L20.2862 10.4661C20.4724 10.5145 20.6626 10.4031 20.7113 10.217Z" fill="#99622F"/>
</g>
<g filter="url(#filter19_f_3987_24804)">
<path d="M11.8358 10.0365L13.8529 9.50282" stroke="#99643B" stroke-width="0.2" stroke-linecap="round"/>
</g>
<g filter="url(#filter20_f_3987_24804)">
<path d="M20.4275 10.0729L18.2462 9.50285" stroke="#99643B" stroke-width="0.2" stroke-linecap="round"/>
</g>
<path d="M15.989 19.4836C16.7804 19.4836 17.4219 18.7952 17.4219 17.9459C17.4219 17.0967 16.7804 16.4082 15.989 16.4082C15.1977 16.4082 14.5562 17.0967 14.5562 17.9459C14.5562 18.7952 15.1977 19.4836 15.989 19.4836Z" fill="#86004D"/>
<path d="M25.5 30.0332H6.5C5.67 30.0332 5 29.3632 5 28.5332V24.2032C5 21.9032 6.87 20.0332 9.17 20.0332H22.83C25.13 20.0332 27 21.9032 27 24.2032V28.5332C27 29.3632 26.33 30.0332 25.5 30.0332Z" fill="url(#paint42_radial_3987_24804)"/>
<path d="M25.5 30.0332H6.5C5.67 30.0332 5 29.3632 5 28.5332V24.2032C5 21.9032 6.87 20.0332 9.17 20.0332H22.83C25.13 20.0332 27 21.9032 27 24.2032V28.5332C27 29.3632 26.33 30.0332 25.5 30.0332Z" fill="url(#paint43_radial_3987_24804)"/>
<path d="M25.5 30.0332H6.5C5.67 30.0332 5 29.3632 5 28.5332V24.2032C5 21.9032 6.87 20.0332 9.17 20.0332H22.83C25.13 20.0332 27 21.9032 27 24.2032V28.5332C27 29.3632 26.33 30.0332 25.5 30.0332Z" fill="url(#paint44_radial_3987_24804)"/>
<path d="M6.81006 20.6032L9.08996 21.6632L11.2 17.1432L8.97 16.0932L6.81006 20.6032Z" fill="url(#paint45_radial_3987_24804)"/>
<path d="M11.5598 16.1316L26.9669 23.3091C28.728 24.1357 29.4928 26.2325 28.6676 27.9966C27.8424 29.7607 25.7492 30.5269 23.9881 29.7003L8.58104 22.5127C8.07787 22.2808 7.85648 21.676 8.098 21.172L10.2214 16.6054C10.4528 16.1115 11.0566 15.8897 11.5598 16.1316Z" fill="url(#paint46_radial_3987_24804)"/>
<path d="M11.5598 16.1316L26.9669 23.3091C28.728 24.1357 29.4928 26.2325 28.6676 27.9966C27.8424 29.7607 25.7492 30.5269 23.9881 29.7003L8.58104 22.5127C8.07787 22.2808 7.85648 21.676 8.098 21.172L10.2214 16.6054C10.4528 16.1115 11.0566 15.8897 11.5598 16.1316Z" fill="url(#paint47_radial_3987_24804)"/>
<path d="M11.5598 16.1316L26.9669 23.3091C28.728 24.1357 29.4928 26.2325 28.6676 27.9966C27.8424 29.7607 25.7492 30.5269 23.9881 29.7003L8.58104 22.5127C8.07787 22.2808 7.85648 21.676 8.098 21.172L10.2214 16.6054C10.4528 16.1115 11.0566 15.8897 11.5598 16.1316Z" fill="url(#paint48_radial_3987_24804)"/>
<path d="M11.5598 16.1316L26.9669 23.3091C28.728 24.1357 29.4928 26.2325 28.6676 27.9966C27.8424 29.7607 25.7492 30.5269 23.9881 29.7003L8.58104 22.5127C8.07787 22.2808 7.85648 21.676 8.098 21.172L10.2214 16.6054C10.4528 16.1115 11.0566 15.8897 11.5598 16.1316Z" fill="url(#paint49_linear_3987_24804)"/>
<path d="M11.5598 16.1316L26.9669 23.3091C28.728 24.1357 29.4928 26.2325 28.6676 27.9966C27.8424 29.7607 25.7492 30.5269 23.9881 29.7003L8.58104 22.5127C8.07787 22.2808 7.85648 21.676 8.098 21.172L10.2214 16.6054C10.4528 16.1115 11.0566 15.8897 11.5598 16.1316Z" fill="url(#paint50_radial_3987_24804)"/>
<path d="M11.5598 16.1316L26.9669 23.3091C28.728 24.1357 29.4928 26.2325 28.6676 27.9966C27.8424 29.7607 25.7492 30.5269 23.9881 29.7003L8.58104 22.5127C8.07787 22.2808 7.85648 21.676 8.098 21.172L10.2214 16.6054C10.4528 16.1115 11.0566 15.8897 11.5598 16.1316Z" fill="url(#paint51_linear_3987_24804)"/>
<path d="M11.5598 16.1316L26.9669 23.3091C28.728 24.1357 29.4928 26.2325 28.6676 27.9966C27.8424 29.7607 25.7492 30.5269 23.9881 29.7003L8.58104 22.5127C8.07787 22.2808 7.85648 21.676 8.098 21.172L10.2214 16.6054C10.4528 16.1115 11.0566 15.8897 11.5598 16.1316Z" fill="url(#paint52_radial_3987_24804)"/>
<path d="M25.19 20.6032L22.9099 21.6632L20.7999 17.1432L23.06 16.0732L25.19 20.6032Z" fill="url(#paint53_radial_3987_24804)"/>
<path d="M25.19 20.6032L22.9099 21.6632L20.7999 17.1432L23.06 16.0732L25.19 20.6032Z" fill="url(#paint54_linear_3987_24804)"/>
<path d="M20.4402 16.1317L5.03313 23.3042C3.27203 24.1314 2.50721 26.2297 3.33241 27.9951C4.15761 29.7605 6.2508 30.5272 8.01189 29.7L23.419 22.5174C23.9221 22.2853 24.1435 21.6801 23.902 21.1757L21.7786 16.6058C21.5472 16.1115 20.9434 15.8896 20.4402 16.1317Z" fill="url(#paint55_radial_3987_24804)"/>
<path d="M20.4402 16.1317L5.03313 23.3042C3.27203 24.1314 2.50721 26.2297 3.33241 27.9951C4.15761 29.7605 6.2508 30.5272 8.01189 29.7L23.419 22.5174C23.9221 22.2853 24.1435 21.6801 23.902 21.1757L21.7786 16.6058C21.5472 16.1115 20.9434 15.8896 20.4402 16.1317Z" fill="url(#paint56_linear_3987_24804)"/>
<path d="M20.4402 16.1317L5.03313 23.3042C3.27203 24.1314 2.50721 26.2297 3.33241 27.9951C4.15761 29.7605 6.2508 30.5272 8.01189 29.7L23.419 22.5174C23.9221 22.2853 24.1435 21.6801 23.902 21.1757L21.7786 16.6058C21.5472 16.1115 20.9434 15.8896 20.4402 16.1317Z" fill="url(#paint57_linear_3987_24804)"/>
<path d="M20.4402 16.1317L5.03313 23.3042C3.27203 24.1314 2.50721 26.2297 3.33241 27.9951C4.15761 29.7605 6.2508 30.5272 8.01189 29.7L23.419 22.5174C23.9221 22.2853 24.1435 21.6801 23.902 21.1757L21.7786 16.6058C21.5472 16.1115 20.9434 15.8896 20.4402 16.1317Z" fill="url(#paint58_linear_3987_24804)"/>
<path d="M24.75 19.8365C24.514 19.4074 24.6712 18.8684 25.1007 18.6333L27.7089 17.2057C28.1444 16.9674 28.6906 17.1272 28.9289 17.5626C29.1687 18.0009 29.0052 18.5506 28.5648 18.7865L25.9436 20.1902C25.516 20.4192 24.9838 20.2615 24.75 19.8365Z" fill="url(#paint59_radial_3987_24804)"/>
<path d="M24.75 19.8365C24.514 19.4074 24.6712 18.8684 25.1007 18.6333L27.7089 17.2057C28.1444 16.9674 28.6906 17.1272 28.9289 17.5626C29.1687 18.0009 29.0052 18.5506 28.5648 18.7865L25.9436 20.1902C25.516 20.4192 24.9838 20.2615 24.75 19.8365Z" fill="url(#paint60_linear_3987_24804)"/>
<path d="M24.75 19.8365C24.514 19.4074 24.6712 18.8684 25.1007 18.6333L27.7089 17.2057C28.1444 16.9674 28.6906 17.1272 28.9289 17.5626C29.1687 18.0009 29.0052 18.5506 28.5648 18.7865L25.9436 20.1902C25.516 20.4192 24.9838 20.2615 24.75 19.8365Z" fill="url(#paint61_linear_3987_24804)"/>
<path d="M7.24574 19.8061C7.48169 19.3771 7.32457 18.838 6.89505 18.6029L4.34224 17.2057C3.90683 16.9674 3.36068 17.1272 3.12238 17.5626C2.88251 18.0008 3.0461 18.5506 3.48654 18.7864L6.05214 20.16C6.47976 20.389 7.012 20.2312 7.24574 19.8061Z" fill="url(#paint62_radial_3987_24804)"/>
<path d="M7.24574 19.8061C7.48169 19.3771 7.32457 18.838 6.89505 18.6029L4.34224 17.2057C3.90683 16.9674 3.36068 17.1272 3.12238 17.5626C2.88251 18.0008 3.0461 18.5506 3.48654 18.7864L6.05214 20.16C6.47976 20.389 7.012 20.2312 7.24574 19.8061Z" fill="url(#paint63_radial_3987_24804)"/>
<path d="M23 16.1032L25.12 20.6432L25.84 20.2632C26.58 19.8732 27.11 19.1832 27.28 18.3632L27.57 16.9732C27.65 16.5532 27.86 16.1732 28.16 15.8732L29.67 14.5732C29.88 14.3932 30 14.1332 30 13.8632C30 13.1532 29.24 12.7032 28.62 13.0432L23 16.1032Z" fill="url(#paint64_radial_3987_24804)"/>
<path d="M23 16.1032L25.12 20.6432L25.84 20.2632C26.58 19.8732 27.11 19.1832 27.28 18.3632L27.57 16.9732C27.65 16.5532 27.86 16.1732 28.16 15.8732L29.67 14.5732C29.88 14.3932 30 14.1332 30 13.8632C30 13.1532 29.24 12.7032 28.62 13.0432L23 16.1032Z" fill="url(#paint65_radial_3987_24804)"/>
<path d="M23 16.1032L25.12 20.6432L25.84 20.2632C26.58 19.8732 27.11 19.1832 27.28 18.3632L27.57 16.9732C27.65 16.5532 27.86 16.1732 28.16 15.8732L29.67 14.5732C29.88 14.3932 30 14.1332 30 13.8632C30 13.1532 29.24 12.7032 28.62 13.0432L23 16.1032Z" fill="url(#paint66_linear_3987_24804)"/>
<path d="M23 16.1032L25.12 20.6432L25.84 20.2632C26.58 19.8732 27.11 19.1832 27.28 18.3632L27.57 16.9732C27.65 16.5532 27.86 16.1732 28.16 15.8732L29.67 14.5732C29.88 14.3932 30 14.1332 30 13.8632C30 13.1532 29.24 12.7032 28.62 13.0432L23 16.1032Z" fill="url(#paint67_radial_3987_24804)"/>
<g filter="url(#filter21_i_3987_24804)">
<path d="M9 16.1032L6.88 20.6432L6.16 20.2632C5.42 19.8732 4.89 19.1832 4.72 18.3632L4.43 16.9732C4.35 16.5532 4.14 16.1732 3.84 15.8732L2.33 14.5732C2.12 14.3932 2 14.1332 2 13.8632C2 13.1532 2.76 12.7032 3.38 13.0432L9 16.1032Z" fill="url(#paint68_linear_3987_24804)"/>
<path d="M9 16.1032L6.88 20.6432L6.16 20.2632C5.42 19.8732 4.89 19.1832 4.72 18.3632L4.43 16.9732C4.35 16.5532 4.14 16.1732 3.84 15.8732L2.33 14.5732C2.12 14.3932 2 14.1332 2 13.8632C2 13.1532 2.76 12.7032 3.38 13.0432L9 16.1032Z" fill="url(#paint69_radial_3987_24804)"/>
</g>
<path d="M9 16.1032L6.88 20.6432L6.16 20.2632C5.42 19.8732 4.89 19.1832 4.72 18.3632L4.43 16.9732C4.35 16.5532 4.14 16.1732 3.84 15.8732L2.33 14.5732C2.12 14.3932 2 14.1332 2 13.8632C2 13.1532 2.76 12.7032 3.38 13.0432L9 16.1032Z" fill="url(#paint70_radial_3987_24804)"/>
<g filter="url(#filter22_f_3987_24804)">
<path d="M26.6912 15.6558C27.2185 14.8096 28.4858 13.9913 29.1528 13.6682C29.2055 13.6426 29.268 13.6574 29.3056 13.7024C29.3566 13.7637 29.3398 13.8568 29.272 13.8987C27.2126 15.1712 27.3971 15.6829 26.627 16.9955C26.2725 17.5998 25.4505 18.1078 25.0708 18.279L24.5974 17.3805C25.1268 17.0997 26.0597 16.6691 26.6912 15.6558Z" fill="url(#paint71_linear_3987_24804)"/>
</g>
<defs>
<filter id="filter0_i_3987_24804" x="6.54138" y="1.21677" width="19.1672" height="19.6673" filterUnits="userSpaceOnUse" color-interpolation-filters="sRGB">
<feFlood flood-opacity="0" result="BackgroundImageFix"/>
<feBlend mode="normal" in="SourceGraphic" in2="BackgroundImageFix" result="shape"/>
<feColorMatrix in="SourceAlpha" type="matrix" values="0 0 0 0 0 0 0 0 0 0 0 0 0 0 0 0 0 0 127 0" result="hardAlpha"/>
<feOffset dx="0.25" dy="-0.75"/>
<feGaussianBlur stdDeviation="0.75"/>
<feComposite in2="hardAlpha" operator="arithmetic" k2="-1" k3="1"/>
<feColorMatrix type="matrix" values="0 0 0 0 0.886275 0 0 0 0 0.698039 0 0 0 0 0.607843 0 0 0 1 0"/>
<feBlend mode="normal" in2="shape" result="effect1_innerShadow_3987_24804"/>
</filter>
<filter id="filter1_i_3987_24804" x="8.07092" y="10.6822" width="4.20371" height="4.3037" filterUnits="userSpaceOnUse" color-interpolation-filters="sRGB">
<feFlood flood-opacity="0" result="BackgroundImageFix"/>
<feBlend mode="normal" in="SourceGraphic" in2="BackgroundImageFix" result="shape"/>
<feColorMatrix in="SourceAlpha" type="matrix" values="0 0 0 0 0 0 0 0 0 0 0 0 0 0 0 0 0 0 127 0" result="hardAlpha"/>
<feOffset dx="0.15" dy="0.25"/>
<feGaussianBlur stdDeviation="0.25"/>
<feComposite in2="hardAlpha" operator="arithmetic" k2="-1" k3="1"/>
<feColorMatrix type="matrix" values="0 0 0 0 0.858824 0 0 0 0 0.635294 0 0 0 0 0.533333 0 0 0 1 0"/>
<feBlend mode="normal" in2="shape" result="effect1_innerShadow_3987_24804"/>
</filter>
<filter id="filter2_i_3987_24804" x="20.0537" y="10.4322" width="4.05371" height="4.3037" filterUnits="userSpaceOnUse" color-interpolation-filters="sRGB">
<feFlood flood-opacity="0" result="BackgroundImageFix"/>
<feBlend mode="normal" in="SourceGraphic" in2="BackgroundImageFix" result="shape"/>
<feColorMatrix in="SourceAlpha" type="matrix" values="0 0 0 0 0 0 0 0 0 0 0 0 0 0 0 0 0 0 127 0" result="hardAlpha"/>
<feOffset dy="-0.25"/>
<feGaussianBlur stdDeviation="0.25"/>
<feComposite in2="hardAlpha" operator="arithmetic" k2="-1" k3="1"/>
<feColorMatrix type="matrix" values="0 0 0 0 0.827451 0 0 0 0 0.568627 0 0 0 0 0.505882 0 0 0 1 0"/>
<feBlend mode="normal" in2="shape" result="effect1_innerShadow_3987_24804"/>
</filter>
<filter id="filter3_f_3987_24804" x="20.2277" y="10.8561" width="3.70593" height="3.70596" filterUnits="userSpaceOnUse" color-interpolation-filters="sRGB">
<feFlood flood-opacity="0" result="BackgroundImageFix"/>
<feBlend mode="normal" in="SourceGraphic" in2="BackgroundImageFix" result="shape"/>
<feGaussianBlur stdDeviation="0.25" result="effect1_foregroundBlur_3987_24804"/>
</filter>
<filter id="filter4_f_3987_24804" x="8.36917" y="10.9561" width="3.50593" height="3.50596" filterUnits="userSpaceOnUse" color-interpolation-filters="sRGB">
<feFlood flood-opacity="0" result="BackgroundImageFix"/>
<feBlend mode="normal" in="SourceGraphic" in2="BackgroundImageFix" result="shape"/>
<feGaussianBlur stdDeviation="0.2" result="effect1_foregroundBlur_3987_24804"/>
</filter>
<filter id="filter5_i_3987_24804" x="9.58167" y="6.52827" width="12.8367" height="14.1007" filterUnits="userSpaceOnUse" color-interpolation-filters="sRGB">
<feFlood flood-opacity="0" result="BackgroundImageFix"/>
<feBlend mode="normal" in="SourceGraphic" in2="BackgroundImageFix" result="shape"/>
<feColorMatrix in="SourceAlpha" type="matrix" values="0 0 0 0 0 0 0 0 0 0 0 0 0 0 0 0 0 0 127 0" result="hardAlpha"/>
<feOffset dy="0.4"/>
<feGaussianBlur stdDeviation="0.3"/>
<feComposite in2="hardAlpha" operator="arithmetic" k2="-1" k3="1"/>
<feColorMatrix type="matrix" values="0 0 0 0 0.745098 0 0 0 0 0.486275 0 0 0 0 0.384314 0 0 0 1 0"/>
<feBlend mode="normal" in2="shape" result="effect1_innerShadow_3987_24804"/>
</filter>
<filter id="filter6_f_3987_24804" x="14.1132" y="11.5728" width="3.36462" height="4.37808" filterUnits="userSpaceOnUse" color-interpolation-filters="sRGB">
<feFlood flood-opacity="0" result="BackgroundImageFix"/>
<feBlend mode="normal" in="SourceGraphic" in2="BackgroundImageFix" result="shape"/>
<feGaussianBlur stdDeviation="0.25" result="effect1_foregroundBlur_3987_24804"/>
</filter>
<filter id="filter7_f_3987_24804" x="14.5677" y="11.6483" width="2.86462" height="3.87808" filterUnits="userSpaceOnUse" color-interpolation-filters="sRGB">
<feFlood flood-opacity="0" result="BackgroundImageFix"/>
<feBlend mode="normal" in="SourceGraphic" in2="BackgroundImageFix" result="shape"/>
<feGaussianBlur stdDeviation="0.125" result="effect1_foregroundBlur_3987_24804"/>
</filter>
<filter id="filter8_i_3987_24804" x="17.2387" y="10.9398" width="3.72869" height="1.61916" filterUnits="userSpaceOnUse" color-interpolation-filters="sRGB">
<feFlood flood-opacity="0" result="BackgroundImageFix"/>
<feBlend mode="normal" in="SourceGraphic" in2="BackgroundImageFix" result="shape"/>
<feColorMatrix in="SourceAlpha" type="matrix" values="0 0 0 0 0 0 0 0 0 0 0 0 0 0 0 0 0 0 127 0" result="hardAlpha"/>
<feOffset dx="-0.2"/>
<feGaussianBlur stdDeviation="0.2"/>
<feComposite in2="hardAlpha" operator="arithmetic" k2="-1" k3="1"/>
<feColorMatrix type="matrix" values="0 0 0 0 0.141176 0 0 0 0 0.0862745 0 0 0 0 0.176471 0 0 0 1 0"/>
<feBlend mode="normal" in2="shape" result="effect1_innerShadow_3987_24804"/>
</filter>
<filter id="filter9_i_3987_24804" x="11.0328" y="10.9398" width="3.72869" height="1.61916" filterUnits="userSpaceOnUse" color-interpolation-filters="sRGB">
<feFlood flood-opacity="0" result="BackgroundImageFix"/>
<feBlend mode="normal" in="SourceGraphic" in2="BackgroundImageFix" result="shape"/>
<feColorMatrix in="SourceAlpha" type="matrix" values="0 0 0 0 0 0 0 0 0 0 0 0 0 0 0 0 0 0 127 0" result="hardAlpha"/>
<feOffset dx="0.2"/>
<feGaussianBlur stdDeviation="0.125"/>
<feComposite in2="hardAlpha" operator="arithmetic" k2="-1" k3="1"/>
<feColorMatrix type="matrix" values="0 0 0 0 0.133333 0 0 0 0 0.0784314 0 0 0 0 0.168627 0 0 0 1 0"/>
<feBlend mode="normal" in2="shape" result="effect1_innerShadow_3987_24804"/>
</filter>
<filter id="filter10_f_3987_24804" x="17.8497" y="11.4289" width="0.939258" height="0.82516" filterUnits="userSpaceOnUse" color-interpolation-filters="sRGB">
<feFlood flood-opacity="0" result="BackgroundImageFix"/>
<feBlend mode="normal" in="SourceGraphic" in2="BackgroundImageFix" result="shape"/>
<feGaussianBlur stdDeviation="0.05" result="effect1_foregroundBlur_3987_24804"/>
</filter>
<filter id="filter11_f_3987_24804" x="18.9337" y="11.5494" width="1.01877" height="1.04671" filterUnits="userSpaceOnUse" color-interpolation-filters="sRGB">
<feFlood flood-opacity="0" result="BackgroundImageFix"/>
<feBlend mode="normal" in="SourceGraphic" in2="BackgroundImageFix" result="shape"/>
<feGaussianBlur stdDeviation="0.1" result="effect1_foregroundBlur_3987_24804"/>
</filter>
<filter id="filter12_f_3987_24804" x="13.3374" y="11.4696" width="1.13853" height="1.2064" filterUnits="userSpaceOnUse" color-interpolation-filters="sRGB">
<feFlood flood-opacity="0" result="BackgroundImageFix"/>
<feBlend mode="normal" in="SourceGraphic" in2="BackgroundImageFix" result="shape"/>
<feGaussianBlur stdDeviation="0.1" result="effect1_foregroundBlur_3987_24804"/>
</filter>
<filter id="filter13_f_3987_24804" x="12.3606" y="11.4187" width="1.09819" height="0.835452" filterUnits="userSpaceOnUse" color-interpolation-filters="sRGB">
<feFlood flood-opacity="0" result="BackgroundImageFix"/>
<feBlend mode="normal" in="SourceGraphic" in2="BackgroundImageFix" result="shape"/>
<feGaussianBlur stdDeviation="0.05" result="effect1_foregroundBlur_3987_24804"/>
</filter>
<filter id="filter14_f_3987_24804" x="7.99548" y="3.73863" width="5.64062" height="6.85331" filterUnits="userSpaceOnUse" color-interpolation-filters="sRGB">
<feFlood flood-opacity="0" result="BackgroundImageFix"/>
<feBlend mode="normal" in="SourceGraphic" in2="BackgroundImageFix" result="shape"/>
<feGaussianBlur stdDeviation="0.375" result="effect1_foregroundBlur_3987_24804"/>
</filter>
<filter id="filter15_f_3987_24804" x="11.3865" y="2.10316" width="12.0988" height="8.15096" filterUnits="userSpaceOnUse" color-interpolation-filters="sRGB">
<feFlood flood-opacity="0" result="BackgroundImageFix"/>
<feBlend mode="normal" in="SourceGraphic" in2="BackgroundImageFix" result="shape"/>
<feGaussianBlur stdDeviation="0.375" result="effect1_foregroundBlur_3987_24804"/>
</filter>
<filter id="filter16_f_3987_24804" x="12.0582" y="4.16867" width="1.28611" height="2.75355" filterUnits="userSpaceOnUse" color-interpolation-filters="sRGB">
<feFlood flood-opacity="0" result="BackgroundImageFix"/>
<feBlend mode="normal" in="SourceGraphic" in2="BackgroundImageFix" result="shape"/>
<feGaussianBlur stdDeviation="0.1" result="effect1_foregroundBlur_3987_24804"/>
</filter>
<filter id="filter17_i_3987_24804" x="11.3763" y="9.0373" width="2.98406" height="1.44014" filterUnits="userSpaceOnUse" color-interpolation-filters="sRGB">
<feFlood flood-opacity="0" result="BackgroundImageFix"/>
<feBlend mode="normal" in="SourceGraphic" in2="BackgroundImageFix" result="shape"/>
<feColorMatrix in="SourceAlpha" type="matrix" values="0 0 0 0 0 0 0 0 0 0 0 0 0 0 0 0 0 0 127 0" result="hardAlpha"/>
<feOffset dx="0.2" dy="-0.2"/>
<feGaussianBlur stdDeviation="0.15"/>
<feComposite in2="hardAlpha" operator="arithmetic" k2="-1" k3="1"/>
<feColorMatrix type="matrix" values="0 0 0 0 0.447059 0 0 0 0 0.254902 0 0 0 0 0.141176 0 0 0 1 0"/>
<feBlend mode="normal" in2="shape" result="effect1_innerShadow_3987_24804"/>
</filter>
<filter id="filter18_i_3987_24804" x="17.9387" y="9.0373" width="2.98406" height="1.44014" filterUnits="userSpaceOnUse" color-interpolation-filters="sRGB">
<feFlood flood-opacity="0" result="BackgroundImageFix"/>
<feBlend mode="normal" in="SourceGraphic" in2="BackgroundImageFix" result="shape"/>
<feColorMatrix in="SourceAlpha" type="matrix" values="0 0 0 0 0 0 0 0 0 0 0 0 0 0 0 0 0 0 127 0" result="hardAlpha"/>
<feOffset dx="0.2" dy="-0.2"/>
<feGaussianBlur stdDeviation="0.15"/>
<feComposite in2="hardAlpha" operator="arithmetic" k2="-1" k3="1"/>
<feColorMatrix type="matrix" values="0 0 0 0 0.447059 0 0 0 0 0.254902 0 0 0 0 0.141176 0 0 0 1 0"/>
<feBlend mode="normal" in2="shape" result="effect1_innerShadow_3987_24804"/>
</filter>
<filter id="filter19_f_3987_24804" x="11.5357" y="9.20279" width="2.61716" height="1.13375" filterUnits="userSpaceOnUse" color-interpolation-filters="sRGB">
<feFlood flood-opacity="0" result="BackgroundImageFix"/>
<feBlend mode="normal" in="SourceGraphic" in2="BackgroundImageFix" result="shape"/>
<feGaussianBlur stdDeviation="0.1" result="effect1_foregroundBlur_3987_24804"/>
</filter>
<filter id="filter20_f_3987_24804" x="17.9462" y="9.20282" width="2.78123" height="1.17012" filterUnits="userSpaceOnUse" color-interpolation-filters="sRGB">
<feFlood flood-opacity="0" result="BackgroundImageFix"/>
<feBlend mode="normal" in="SourceGraphic" in2="BackgroundImageFix" result="shape"/>
<feGaussianBlur stdDeviation="0.1" result="effect1_foregroundBlur_3987_24804"/>
</filter>
<filter id="filter21_i_3987_24804" x="2" y="12.6275" width="7.3" height="8.0157" filterUnits="userSpaceOnUse" color-interpolation-filters="sRGB">
<feFlood flood-opacity="0" result="BackgroundImageFix"/>
<feBlend mode="normal" in="SourceGraphic" in2="BackgroundImageFix" result="shape"/>
<feColorMatrix in="SourceAlpha" type="matrix" values="0 0 0 0 0 0 0 0 0 0 0 0 0 0 0 0 0 0 127 0" result="hardAlpha"/>
<feOffset dx="0.3" dy="-0.3"/>
<feGaussianBlur stdDeviation="0.4"/>
<feComposite in2="hardAlpha" operator="arithmetic" k2="-1" k3="1"/>
<feColorMatrix type="matrix" values="0 0 0 0 0.745098 0 0 0 0 0.439216 0 0 0 0 0.415686 0 0 0 1 0"/>
<feBlend mode="normal" in2="shape" result="effect1_innerShadow_3987_24804"/>
</filter>
<filter id="filter22_f_3987_24804" x="24.1974" y="13.2557" width="5.53792" height="5.42325" filterUnits="userSpaceOnUse" color-interpolation-filters="sRGB">
<feFlood flood-opacity="0" result="BackgroundImageFix"/>
<feBlend mode="normal" in="SourceGraphic" in2="BackgroundImageFix" result="shape"/>
<feGaussianBlur stdDeviation="0.2" result="effect1_foregroundBlur_3987_24804"/>
</filter>
<linearGradient id="paint0_linear_3987_24804" x1="21.9118" y1="3.95141" x2="13.3399" y2="19.8284" gradientUnits="userSpaceOnUse">
<stop stop-color="#FFFFBE"/>
<stop offset="1" stop-color="#E5AE90"/>
</linearGradient>
<radialGradient id="paint1_radial_3987_24804" cx="0" cy="0" r="1" gradientUnits="userSpaceOnUse" gradientTransform="translate(21.9117 20.0395) rotate(-64.2901) scale(5.06149 11.5405)">
<stop stop-color="#F9BFA4"/>
<stop offset="1" stop-color="#FFC3A8" stop-opacity="0"/>
</radialGradient>
<radialGradient id="paint2_radial_3987_24804" cx="0" cy="0" r="1" gradientUnits="userSpaceOnUse" gradientTransform="translate(15.1555 14.9302) rotate(91.3887) scale(6.96935 6.52376)">
<stop offset="0.590551" stop-color="#C7897D"/>
<stop offset="1" stop-color="#C7897D" stop-opacity="0"/>
</radialGradient>
<radialGradient id="paint3_radial_3987_24804" cx="0" cy="0" r="1" gradientUnits="userSpaceOnUse" gradientTransform="translate(12.0731 16.197) rotate(142.167) scale(5.02561 6.18626)">
<stop offset="0.205322" stop-color="#CF987B"/>
<stop offset="1" stop-color="#CF987B" stop-opacity="0"/>
</radialGradient>
<radialGradient id="paint4_radial_3987_24804" cx="0" cy="0" r="1" gradientUnits="userSpaceOnUse" gradientTransform="translate(9.89846 12.9878) rotate(125.038) scale(2.24341 2.03916)">
<stop offset="0.333546" stop-color="#C58E72"/>
<stop offset="1" stop-color="#C58E72" stop-opacity="0"/>
</radialGradient>
<radialGradient id="paint5_radial_3987_24804" cx="0" cy="0" r="1" gradientUnits="userSpaceOnUse" gradientTransform="translate(10.574 11.1087) rotate(-167.428) scale(3.00681 4.42003)">
<stop offset="0.225789" stop-color="#C49070"/>
<stop offset="1" stop-color="#C49070" stop-opacity="0"/>
</radialGradient>
<radialGradient id="paint6_radial_3987_24804" cx="0" cy="0" r="1" gradientUnits="userSpaceOnUse" gradientTransform="translate(11.1651 3.17023) rotate(55.6839) scale(4.8313 8.43127)">
<stop stop-color="#DCC893"/>
<stop offset="1" stop-color="#DCC893" stop-opacity="0"/>
</radialGradient>
<radialGradient id="paint7_radial_3987_24804" cx="0" cy="0" r="1" gradientUnits="userSpaceOnUse" gradientTransform="translate(22.9252 5.47155) rotate(132.51) scale(2.06217 2.88185)">
<stop stop-color="#FFFFBF"/>
<stop offset="1" stop-color="#FFFFBF" stop-opacity="0"/>
</radialGradient>
<radialGradient id="paint8_radial_3987_24804" cx="0" cy="0" r="1" gradientUnits="userSpaceOnUse" gradientTransform="translate(25.4587 11.6366) rotate(163.779) scale(2.41861 5.26257)">
<stop stop-color="#FFFABE"/>
<stop offset="1" stop-color="#FFFABE" stop-opacity="0"/>
</radialGradient>
<radialGradient id="paint9_radial_3987_24804" cx="0" cy="0" r="1" gradientUnits="userSpaceOnUse" gradientTransform="translate(25.121 15.1413) rotate(156.949) scale(4.31368 6.873)">
<stop stop-color="#FFF4BC"/>
<stop offset="1" stop-color="#FFF4BC" stop-opacity="0"/>
</radialGradient>
<linearGradient id="paint10_linear_3987_24804" x1="16" y1="21.3486" x2="16" y2="19.5751" gradientUnits="userSpaceOnUse">
<stop stop-color="#D08D9C"/>
<stop offset="1" stop-color="#D08D9C" stop-opacity="0"/>
</linearGradient>
<linearGradient id="paint11_linear_3987_24804" x1="8.07092" y1="12.8189" x2="11.7985" y2="12.8189" gradientUnits="userSpaceOnUse">
<stop stop-color="#C48B78"/>
<stop offset="1" stop-color="#B47860"/>
</linearGradient>
<radialGradient id="paint12_radial_3987_24804" cx="0" cy="0" r="1" gradientUnits="userSpaceOnUse" gradientTransform="translate(21.0884 13.2623) rotate(-24.444) scale(3.44398 4.20494)">
<stop offset="0.572298" stop-color="#E1A792"/>
<stop offset="0.904617" stop-color="#F6C3A3"/>
</radialGradient>
<radialGradient id="paint13_radial_3987_24804" cx="0" cy="0" r="1" gradientUnits="userSpaceOnUse" gradientTransform="translate(22.3761 10.4648) rotate(15.9454) scale(1.30649 0.686876)">
<stop stop-color="#D59566"/>
<stop offset="1" stop-color="#D59566" stop-opacity="0"/>
</radialGradient>
<radialGradient id="paint14_radial_3987_24804" cx="0" cy="0" r="1" gradientUnits="userSpaceOnUse" gradientTransform="translate(21.7852 13.0089) rotate(-20.2976) scale(1.64329)">
<stop offset="0.71002" stop-color="#E3A280" stop-opacity="0"/>
<stop offset="1" stop-color="#E3A280"/>
</radialGradient>
<radialGradient id="paint15_radial_3987_24804" cx="0" cy="0" r="1" gradientUnits="userSpaceOnUse" gradientTransform="translate(10.1221 12.7091) rotate(180) scale(1.53279 1.46621)">
<stop offset="0.572999" stop-color="#B0725A" stop-opacity="0"/>
<stop offset="1" stop-color="#B0725A"/>
</radialGradient>
<radialGradient id="paint16_radial_3987_24804" cx="0" cy="0" r="1" gradientUnits="userSpaceOnUse" gradientTransform="translate(19.6016 12.032) rotate(155.244) scale(9.02114 12.0746)">
<stop stop-color="#FFC59D"/>
<stop offset="1" stop-color="#D39B88"/>
</radialGradient>
<radialGradient id="paint17_radial_3987_24804" cx="0" cy="0" r="1" gradientUnits="userSpaceOnUse" gradientTransform="translate(18.3937 12.9105) rotate(152.124) scale(3.00634 2.55066)">
<stop stop-color="#FFC89E"/>
<stop offset="1" stop-color="#FFC89E" stop-opacity="0"/>
</radialGradient>
<radialGradient id="paint18_radial_3987_24804" cx="0" cy="0" r="1" gradientUnits="userSpaceOnUse" gradientTransform="translate(13.2544 20.5755) rotate(-78.3106) scale(5.20328 6.60199)">
<stop stop-color="#B97783"/>
<stop offset="1" stop-color="#B97783" stop-opacity="0"/>
</radialGradient>
<radialGradient id="paint19_radial_3987_24804" cx="0" cy="0" r="1" gradientUnits="userSpaceOnUse" gradientTransform="translate(17.0557 12.0588) rotate(99.5055) scale(9.20499 11.0632)">
<stop offset="0.631131" stop-color="#B36D8D" stop-opacity="0"/>
<stop offset="1" stop-color="#B36D8D"/>
</radialGradient>
<radialGradient id="paint20_radial_3987_24804" cx="0" cy="0" r="1" gradientUnits="userSpaceOnUse" gradientTransform="translate(16.8023 14.9724) rotate(172.34) scale(7.28568 12.5437)">
<stop offset="0.813118" stop-color="#E3AB91" stop-opacity="0"/>
<stop offset="1" stop-color="#E3AB91"/>
</radialGradient>
<radialGradient id="paint21_radial_3987_24804" cx="0" cy="0" r="1" gradientUnits="userSpaceOnUse" gradientTransform="translate(18.8988 11.5049) rotate(-90) scale(1.44954 2.08389)">
<stop offset="0.258747" stop-color="#E3A48E"/>
<stop offset="1" stop-color="#E3A48E" stop-opacity="0"/>
</radialGradient>
<radialGradient id="paint22_radial_3987_24804" cx="0" cy="0" r="1" gradientUnits="userSpaceOnUse" gradientTransform="translate(13.5838 11.6147) rotate(-90) scale(1.7131 1.96333)">
<stop stop-color="#C2847A"/>
<stop offset="1" stop-color="#C2847A" stop-opacity="0"/>
</radialGradient>
<radialGradient id="paint23_radial_3987_24804" cx="0" cy="0" r="1" gradientUnits="userSpaceOnUse" gradientTransform="translate(22.4184 13.3786) rotate(-180) scale(1.69666 5.58546)">
<stop stop-color="#F4C099"/>
<stop offset="1" stop-color="#F4C099" stop-opacity="0"/>
</radialGradient>
<radialGradient id="paint24_radial_3987_24804" cx="0" cy="0" r="1" gradientUnits="userSpaceOnUse" gradientTransform="translate(15.3677 20.229) rotate(-118.684) scale(7.80865 7.12508)">
<stop stop-color="#A77367"/>
<stop offset="1" stop-color="#A77367" stop-opacity="0"/>
</radialGradient>
<radialGradient id="paint25_radial_3987_24804" cx="0" cy="0" r="1" gradientUnits="userSpaceOnUse" gradientTransform="translate(16.9881 14.2942) rotate(-105.892) scale(3.20839 1.83588)">
<stop offset="0.0168227" stop-color="#FDC9A8"/>
<stop offset="1" stop-color="#FDC9A8" stop-opacity="0"/>
</radialGradient>
<linearGradient id="paint26_linear_3987_24804" x1="14.682" y1="14.3161" x2="15.7582" y2="14.4479" gradientUnits="userSpaceOnUse">
<stop stop-color="#D1987A"/>
<stop offset="1" stop-color="#D1987A" stop-opacity="0"/>
</linearGradient>
<linearGradient id="paint27_linear_3987_24804" x1="16.0001" y1="15.3923" x2="16.0001" y2="14.6236" gradientUnits="userSpaceOnUse">
<stop stop-color="#C57F82"/>
<stop offset="1" stop-color="#C57F82" stop-opacity="0"/>
</linearGradient>
<linearGradient id="paint28_linear_3987_24804" x1="16.0986" y1="15.3594" x2="16.0986" y2="15.1837" gradientUnits="userSpaceOnUse">
<stop stop-color="#C27B7C"/>
<stop offset="1" stop-color="#C27B7C" stop-opacity="0"/>
</linearGradient>
<radialGradient id="paint29_radial_3987_24804" cx="0" cy="0" r="1" gradientUnits="userSpaceOnUse" gradientTransform="translate(16.3622 13.8439) rotate(144.462) scale(1.98378 2.65712)">
<stop offset="0.797297" stop-color="#C27B7C" stop-opacity="0"/>
<stop offset="1" stop-color="#C27B7C"/>
</radialGradient>
<radialGradient id="paint30_radial_3987_24804" cx="0" cy="0" r="1" gradientUnits="userSpaceOnUse" gradientTransform="translate(18.7487 11.957) rotate(90) scale(1.02196 1.62554)">
<stop offset="0.80198" stop-color="#925C51"/>
<stop offset="1" stop-color="#694B43"/>
<stop offset="1" stop-color="#804D49"/>
<stop offset="1" stop-color="#85534D"/>
</radialGradient>
<radialGradient id="paint31_radial_3987_24804" cx="0" cy="0" r="1" gradientUnits="userSpaceOnUse" gradientTransform="translate(18.4611 12.0629) rotate(-127.812) scale(0.4765 0.656026)">
<stop offset="0.765532" stop-color="#FFE6E2" stop-opacity="0"/>
<stop offset="0.966159" stop-color="#FFE6E2"/>
</radialGradient>
<linearGradient id="paint32_linear_3987_24804" x1="19.7285" y1="12.0248" x2="19.3333" y2="12.2684" gradientUnits="userSpaceOnUse">
<stop stop-color="#B4948D"/>
<stop offset="1" stop-color="#B4948D" stop-opacity="0"/>
</linearGradient>
<radialGradient id="paint33_radial_3987_24804" cx="0" cy="0" r="1" gradientUnits="userSpaceOnUse" gradientTransform="translate(13.2513 11.957) rotate(90) scale(1.02196 1.62555)">
<stop offset="0.80198" stop-color="#925C51"/>
<stop offset="1" stop-color="#694B43"/>
<stop offset="1" stop-color="#804D49"/>
<stop offset="1" stop-color="#85534D"/>
</radialGradient>
<linearGradient id="paint34_linear_3987_24804" x1="14.1883" y1="12.0248" x2="13.7931" y2="12.2684" gradientUnits="userSpaceOnUse">
<stop stop-color="#B4948D"/>
<stop offset="1" stop-color="#B4948D" stop-opacity="0"/>
</linearGradient>
<radialGradient id="paint35_radial_3987_24804" cx="0" cy="0" r="1" gradientUnits="userSpaceOnUse" gradientTransform="translate(12.8907 12.2331) rotate(-90.897) scale(0.622408 0.74816)">
<stop offset="0.765532" stop-color="#FFE6E2" stop-opacity="0"/>
<stop offset="0.966159" stop-color="#FFE6E2"/>
</radialGradient>
<radialGradient id="paint36_radial_3987_24804" cx="0" cy="0" r="1" gradientUnits="userSpaceOnUse" gradientTransform="translate(8.49573 4.83815) rotate(54.1904) scale(4.16551 8.27687)">
<stop offset="0.403078" stop-color="#DAA88F" stop-opacity="0"/>
<stop offset="1" stop-color="#DAA88F"/>
</radialGradient>
<radialGradient id="paint37_radial_3987_24804" cx="0" cy="0" r="1" gradientUnits="userSpaceOnUse" gradientTransform="translate(12.5799 5.13373) rotate(127.118) scale(3.91868 3.07327)">
<stop stop-color="#FEE2A9"/>
<stop offset="1" stop-color="#FEE2A9" stop-opacity="0"/>
</radialGradient>
<radialGradient id="paint38_radial_3987_24804" cx="0" cy="0" r="1" gradientUnits="userSpaceOnUse" gradientTransform="translate(18.407 2.72685) rotate(115.684) scale(6.13805 8.72806)">
<stop offset="0.595085" stop-color="#F0C6A3" stop-opacity="0"/>
<stop offset="1" stop-color="#F0C6A3"/>
</radialGradient>
<radialGradient id="paint39_radial_3987_24804" cx="0" cy="0" r="1" gradientUnits="userSpaceOnUse" gradientTransform="translate(18.9138 4.20476) rotate(104.957) scale(4.18158 7.46424)">
<stop stop-color="#FFFFC0"/>
<stop offset="1" stop-color="#FFFFC0" stop-opacity="0"/>
</radialGradient>
<radialGradient id="paint40_radial_3987_24804" cx="0" cy="0" r="1" gradientUnits="userSpaceOnUse" gradientTransform="translate(17.6259 11.0876) rotate(-119.068) scale(9.08251 8.13015)">
<stop offset="0.891192" stop-color="#DAC493" stop-opacity="0"/>
<stop offset="0.979491" stop-color="#DAC493"/>
</radialGradient>
<linearGradient id="paint41_linear_3987_24804" x1="12.3582" y1="4.90149" x2="13.0443" y2="6.50608" gradientUnits="userSpaceOnUse">
<stop stop-color="#EBCE91"/>
<stop offset="1" stop-color="#E6BD9F"/>
</linearGradient>
<radialGradient id="paint42_radial_3987_24804" cx="0" cy="0" r="1" gradientUnits="userSpaceOnUse" gradientTransform="translate(16.5616 30.4364) rotate(-90) scale(4.8125 10.4384)">
<stop stop-color="#6547AF"/>
<stop offset="0.714286" stop-color="#53329C"/>
</radialGradient>
<radialGradient id="paint43_radial_3987_24804" cx="0" cy="0" r="1" gradientUnits="userSpaceOnUse" gradientTransform="translate(26.4375 22.4707) rotate(-136.32) scale(9.59268 4.31766)">
<stop stop-color="#9F7DDA"/>
<stop offset="1" stop-color="#9F7DDA" stop-opacity="0"/>
</radialGradient>
<radialGradient id="paint44_radial_3987_24804" cx="0" cy="0" r="1" gradientUnits="userSpaceOnUse" gradientTransform="translate(6.0625 21.252) rotate(45.4063) scale(3.11577 4.21997)">
<stop stop-color="#785E96"/>
<stop offset="1" stop-color="#785E96" stop-opacity="0"/>
</radialGradient>
<radialGradient id="paint45_radial_3987_24804" cx="0" cy="0" r="1" gradientUnits="userSpaceOnUse" gradientTransform="translate(8.3449 17.2742) rotate(26.4613) scale(2.96581 4.60263)">
<stop offset="0.160584" stop-color="#76679F"/>
<stop offset="1" stop-color="#433169"/>
</radialGradient>
<radialGradient id="paint46_radial_3987_24804" cx="0" cy="0" r="1" gradientUnits="userSpaceOnUse" gradientTransform="translate(14.9127 18.6899) rotate(27.2893) scale(18.5908 6.44138)">
<stop offset="0.5683" stop-color="#8066BD"/>
<stop offset="1" stop-color="#593B97"/>
</radialGradient>
<radialGradient id="paint47_radial_3987_24804" cx="0" cy="0" r="1" gradientUnits="userSpaceOnUse" gradientTransform="translate(30.9991 24.2347) rotate(158.078) scale(5.52445 3.47815)">
<stop stop-color="#8E7CC9"/>
<stop offset="1" stop-color="#8E7CC9" stop-opacity="0"/>
</radialGradient>
<radialGradient id="paint48_radial_3987_24804" cx="0" cy="0" r="1" gradientUnits="userSpaceOnUse" gradientTransform="translate(14.2446 17.7174) rotate(116.107) scale(4.96085 7.77144)">
<stop offset="0.215033" stop-color="#9771D7"/>
<stop offset="1" stop-color="#9771D7" stop-opacity="0"/>
</radialGradient>
<linearGradient id="paint49_linear_3987_24804" x1="9.15625" y1="18.5332" x2="10.4855" y2="19.1568" gradientUnits="userSpaceOnUse">
<stop stop-color="#62429A"/>
<stop offset="1" stop-color="#62429A" stop-opacity="0"/>
</linearGradient>
<radialGradient id="paint50_radial_3987_24804" cx="0" cy="0" r="1" gradientUnits="userSpaceOnUse" gradientTransform="translate(8 21.627) rotate(-32.1712) scale(2.28894)">
<stop stop-color="#745B8C"/>
<stop offset="1" stop-color="#745B8C" stop-opacity="0"/>
</radialGradient>
<linearGradient id="paint51_linear_3987_24804" x1="17.4824" y1="26.7388" x2="17.9062" y2="25.7832" gradientUnits="userSpaceOnUse">
<stop stop-color="#684C9E"/>
<stop offset="0.460318" stop-color="#684C9E" stop-opacity="0"/>
</linearGradient>
<radialGradient id="paint52_radial_3987_24804" cx="0" cy="0" r="1" gradientUnits="userSpaceOnUse" gradientTransform="translate(18.1554 24.5145) rotate(-23.3852) scale(7.55837 0.732683)">
<stop offset="0.58541" stop-color="#5D3CA0"/>
<stop offset="1" stop-color="#5D3CA0" stop-opacity="0"/>
</radialGradient>
<radialGradient id="paint53_radial_3987_24804" cx="0" cy="0" r="1" gradientUnits="userSpaceOnUse" gradientTransform="translate(23.4054 17.8427) rotate(157.775) scale(1.56975 3.47726)">
<stop stop-color="#705F9F"/>
<stop offset="1" stop-color="#58448E"/>
</radialGradient>
<linearGradient id="paint54_linear_3987_24804" x1="24.1085" y1="18.3441" x2="23.9679" y2="18.4105" gradientUnits="userSpaceOnUse">
<stop stop-color="#8071AA"/>
<stop offset="1" stop-color="#8071AA" stop-opacity="0"/>
</linearGradient>
<radialGradient id="paint55_radial_3987_24804" cx="0" cy="0" r="1" gradientUnits="userSpaceOnUse" gradientTransform="translate(22.3125 18.9082) rotate(154.761) scale(25.3582 6.13931)">
<stop offset="0.302299" stop-color="#8B64CE"/>
<stop offset="1" stop-color="#69569A"/>
</radialGradient>
<linearGradient id="paint56_linear_3987_24804" x1="14.9455" y1="27.1775" x2="14.2313" y2="25.5703" gradientUnits="userSpaceOnUse">
<stop stop-color="#6A44B0"/>
<stop offset="1" stop-color="#6A44B0" stop-opacity="0"/>
</linearGradient>
<linearGradient id="paint57_linear_3987_24804" x1="22.9679" y1="18.7034" x2="21.8116" y2="19.2659" gradientUnits="userSpaceOnUse">
<stop stop-color="#A680DF"/>
<stop offset="1" stop-color="#A680DF" stop-opacity="0"/>
</linearGradient>
<linearGradient id="paint58_linear_3987_24804" x1="3.23126" y1="28.3203" x2="6.51697" y2="26.7132" gradientUnits="userSpaceOnUse">
<stop stop-color="#604C85" stop-opacity="0.938946"/>
<stop offset="1" stop-color="#604C85" stop-opacity="0"/>
</linearGradient>
<radialGradient id="paint59_radial_3987_24804" cx="0" cy="0" r="1" gradientUnits="userSpaceOnUse" gradientTransform="translate(29.1219 17.4942) rotate(154.201) scale(2.35158 0.926475)">
<stop stop-color="#EDBFA2"/>
<stop offset="0.615113" stop-color="#DEAD8C"/>
</radialGradient>
<linearGradient id="paint60_linear_3987_24804" x1="27.5204" y1="19.6895" x2="26.8398" y2="18.127" gradientUnits="userSpaceOnUse">
<stop stop-color="#CA8684"/>
<stop offset="1" stop-color="#CA8684" stop-opacity="0"/>
</linearGradient>
<linearGradient id="paint61_linear_3987_24804" x1="26.75" y1="17.4239" x2="27.4937" y2="18.1831" gradientUnits="userSpaceOnUse">
<stop offset="0.353287" stop-color="#D0976D"/>
<stop offset="1" stop-color="#D0976D" stop-opacity="0"/>
</linearGradient>
<radialGradient id="paint62_radial_3987_24804" cx="0" cy="0" r="1" gradientUnits="userSpaceOnUse" gradientTransform="translate(3.17811 17.6708) rotate(25.705) scale(1.9602 2.66792)">
<stop stop-color="#C68C71"/>
<stop offset="0.696769" stop-color="#BD756F"/>
</radialGradient>
<radialGradient id="paint63_radial_3987_24804" cx="0" cy="0" r="1" gradientUnits="userSpaceOnUse" gradientTransform="translate(4.81878 17.2322) rotate(162.875) scale(0.906597 1.69353)">
<stop stop-color="#BB7753"/>
<stop offset="1" stop-color="#BB7753" stop-opacity="0"/>
</radialGradient>
<radialGradient id="paint64_radial_3987_24804" cx="0" cy="0" r="1" gradientUnits="userSpaceOnUse" gradientTransform="translate(28.1801 16.7854) rotate(-163.652) scale(4.66351 7.27193)">
<stop offset="0.319905" stop-color="#E6B396"/>
<stop offset="1" stop-color="#DAA884"/>
</radialGradient>
<radialGradient id="paint65_radial_3987_24804" cx="0" cy="0" r="1" gradientUnits="userSpaceOnUse" gradientTransform="translate(30.161 13.252) rotate(150.068) scale(1.18996 0.409842)">
<stop stop-color="#F2C4A6"/>
<stop offset="1" stop-color="#F2C4A6" stop-opacity="0"/>
</radialGradient>
<linearGradient id="paint66_linear_3987_24804" x1="25.4889" y1="14.3149" x2="25.9974" y2="15.2146" gradientUnits="userSpaceOnUse">
<stop stop-color="#C6916F"/>
<stop offset="1" stop-color="#C6916F" stop-opacity="0"/>
</linearGradient>
<radialGradient id="paint67_radial_3987_24804" cx="0" cy="0" r="1" gradientUnits="userSpaceOnUse" gradientTransform="translate(24.1822 21.1019) rotate(-40.8404) scale(3.91768 4.19533)">
<stop stop-color="#CB7C77"/>
<stop offset="1" stop-color="#CB7C77" stop-opacity="0"/>
</radialGradient>
<linearGradient id="paint68_linear_3987_24804" x1="8" y1="15.7832" x2="5.5" y2="19.5493" gradientUnits="userSpaceOnUse">
<stop offset="0.20649" stop-color="#F1BF99"/>
<stop offset="1" stop-color="#D1927F"/>
</linearGradient>
<radialGradient id="paint69_radial_3987_24804" cx="0" cy="0" r="1" gradientUnits="userSpaceOnUse" gradientTransform="translate(8.58464 18.313) rotate(-152.468) scale(2.32532 1.33298)">
<stop stop-color="#EEBCA0"/>
<stop offset="1" stop-color="#EEBCA0" stop-opacity="0"/>
</radialGradient>
<radialGradient id="paint70_radial_3987_24804" cx="0" cy="0" r="1" gradientUnits="userSpaceOnUse" gradientTransform="translate(4.38241 18.2177) rotate(-14.6224) scale(1.03838 3.3969)">
<stop offset="0.295759" stop-color="#D59883"/>
<stop offset="1" stop-color="#D59883" stop-opacity="0"/>
</radialGradient>
<linearGradient id="paint71_linear_3987_24804" x1="29.2172" y1="14.8793" x2="24.0742" y2="17.7467" gradientUnits="userSpaceOnUse">
<stop stop-color="#F1C2A5"/>
<stop offset="1" stop-color="#F1C2A5" stop-opacity="0"/>
</linearGradient>
</defs>
</svg>
