<svg width="32" height="32" viewBox="0 0 32 32" fill="none" xmlns="http://www.w3.org/2000/svg">
<path d="M13.55 4.63C12.2979 4.63 11.1867 5.31584 10.5135 6.36646L10.1768 6.32685C10.1365 6.32211 10.1015 6.31603 10.0393 6.30521L9.98438 6.29571C9.89759 6.28079 9.77211 6.26015 9.62871 6.25172L9.62396 6.25146C9.35731 6.23705 9.10203 6.24379 8.85544 6.26556C9.73901 4.30096 11.6654 3 13.76 3H22.71C23.13 3 23.46 3.36 23.46 3.81C23.46 4.26 23.13 4.63 22.72 4.63H13.55Z" fill="#212121"/>
<path d="M8.70111 9.84633L8.46442 9.93509C8.84623 11.8783 10.1275 13.4609 11.81 14.11C12.32 14.31 12.87 14.42 13.45 14.44C13.465 14.44 13.4824 14.4425 13.4999 14.445C13.5174 14.4475 13.535 14.45 13.55 14.45H26.02C28.05 14.45 29.87 12.8 30 10.57C30.1 8.68999 29.06 7.06999 27.58 6.43999C27.26 6.25999 26.91 6.14999 26.53 6.14999H15.54C14.55 6.14999 13.71 6.82999 13.37 7.78999H13.39C13.38 7.78999 13.37 7.79999 13.36 7.80999C13.22 8.19999 13.16 8.62999 13.23 9.08999C13.41 10.4 14.54 11.3 15.74 11.3H22.72C23.13 11.3 23.46 10.93 23.46 10.48C23.46 10.03 23.13 9.65999 22.72 9.65999H15.54C15.07 9.65999 14.69 9.23999 14.69 8.71999C14.69 8.19999 15.07 7.77999 15.54 7.77999H26.23C26.49 7.77999 26.73 7.83999 26.96 7.91999C27.81 8.23999 28.43 9.07999 28.51 10.1C28.51 10.135 28.515 10.1675 28.52 10.2C28.525 10.2324 28.53 10.265 28.53 10.3C28.53 11.69 27.5 12.81 26.24 12.81H13.76C13.6933 12.81 13.6266 12.8011 13.56 12.7922C13.5267 12.7878 13.4933 12.7833 13.46 12.78C12.88 12.73 12.32 12.56 11.82 12.26C10.9396 11.7465 10.2586 10.8941 9.97193 9.84372L9.62306 9.76619C9.51652 9.74252 9.413 9.73086 9.31139 9.73005L9.29104 9.7328L9.24141 9.73995L9.20916 9.74456L9.17668 9.74706C8.99554 9.76099 8.83987 9.7943 8.70111 9.84633Z" fill="#212121"/>
<path d="M9.8572 7.28858C9.92328 7.30012 9.98995 7.31176 10.06 7.32001C12.03 7.67001 13.45 9.35001 13.46 11.23V11.7764C13.0419 11.7312 12.6651 11.6069 12.3245 11.4025L11.82 11.0998V11.02C11.82 9.93001 10.97 9.01001 9.84002 8.79001C9.66002 8.75001 9.48002 8.73001 9.30002 8.73001C9.26502 8.73001 9.23252 8.73501 9.20002 8.74001C9.16753 8.74501 9.13502 8.75001 9.10002 8.75001C8.84002 8.77001 8.59002 8.82001 8.35002 8.91001C7.68002 9.16001 7.15002 9.66001 6.92002 10.29C6.84002 10.52 6.78002 10.76 6.78002 11.02V21.7C6.78002 22.17 7.20002 22.55 7.72002 22.55C8.24002 22.55 8.66002 22.17 8.66002 21.7V14.52C8.66002 14.11 9.03002 13.78 9.48002 13.78C9.93002 13.78 10.3 14.11 10.3 14.52V21.5C10.3 22.7 9.40002 23.83 8.09002 24.01C7.63002 24.08 7.20002 24.02 6.81002 23.88C6.80002 23.87 6.79002 23.86 6.79002 23.85V23.87C5.83002 23.53 5.15002 22.69 5.15002 21.7V10.72C5.15002 10.33 5.26002 9.98001 5.44002 9.66001C5.94002 8.47001 7.10002 7.58001 8.50002 7.32001C8.85002 7.26001 9.20002 7.23001 9.57002 7.25001C9.66994 7.25588 9.76298 7.27213 9.8572 7.28858Z" fill="#212121"/>
<path d="M13.4155 15.4394C12.8626 15.4203 12.3244 15.3316 11.81 15.1698V23.49C11.81 25.45 10.24 27.22 8.1 27.39C5.68 27.59 3.64 25.85 3.64 23.69V14.52C3.64 14.11 3.27 13.78 2.82 13.78C2.37 13.78 2 14.12 2 14.53V23.48C2 26.14 4.1 28.53 7 28.86C10.48 29.25 13.45 26.78 13.45 23.69V15.4406L13.4155 15.4394Z" fill="#212121"/>
</svg>
