<svg width="32" height="32" viewBox="0 0 32 32" fill="none" xmlns="http://www.w3.org/2000/svg">
<g filter="url(#filter0_ii_4002_1304)">
<path d="M10.7006 19.1676C10.7006 17.7426 11.4597 17.066 11.8607 16.9254L17.5208 16.5856C19.1302 17.3043 20.4739 19.3668 20.6614 21.8668C20.8489 24.3668 20.4584 26.8199 18.3959 28.4293C16.7459 29.7168 14.4375 29.9814 13.4583 29.9606H10.9857C8.36072 29.9606 7.73956 28.0699 7.63018 27.6637C7.57133 27.4451 7.49859 27.2225 7.44618 27.0653C7.4085 26.9523 7.33316 26.8546 7.22496 26.8047C6.69723 26.5617 5.70429 26.3194 5.27866 25.4176C4.9871 24.7999 4.95581 24.2098 4.99875 23.7878C5.02047 23.5743 5.23001 23.4435 5.43923 23.4913C5.95882 23.6101 6.38968 23.7437 7.00909 24.0582C7.60752 24.3914 8.01351 24.8925 8.2463 25.2848C8.31137 25.3945 8.48418 25.3964 8.55001 25.2872C8.75611 24.9452 9.11132 24.4691 9.59509 24.1676C10.2773 23.7424 10.9452 23.5519 11.441 23.4893C11.6482 23.4632 11.8242 23.6252 11.8285 23.834C11.8651 25.5998 11.0808 26.1092 10.6302 26.3473C10.3423 26.4787 10.0104 26.6247 9.76473 26.7353C9.62539 26.7981 9.55609 26.9586 9.62399 27.0955C10.0982 28.0516 11.0922 27.9645 12.4818 27.9645C14.3334 27.9645 15.4427 26.6403 15.3256 25.2418C15.2631 23.4293 13.7631 22.7262 12.7552 22.0934C12.2321 21.7649 10.7006 20.9489 10.7006 19.1676Z" fill="#35BB78"/>
</g>
<path d="M10.7006 19.1676C10.7006 17.7426 11.4597 17.066 11.8607 16.9254L17.5208 16.5856C19.1302 17.3043 20.4739 19.3668 20.6614 21.8668C20.8489 24.3668 20.4584 26.8199 18.3959 28.4293C16.7459 29.7168 14.4375 29.9814 13.4583 29.9606H10.9857C8.36072 29.9606 7.73956 28.0699 7.63018 27.6637C7.57133 27.4451 7.49859 27.2225 7.44618 27.0653C7.4085 26.9523 7.33316 26.8546 7.22496 26.8047C6.69723 26.5617 5.70429 26.3194 5.27866 25.4176C4.9871 24.7999 4.95581 24.2098 4.99875 23.7878C5.02047 23.5743 5.23001 23.4435 5.43923 23.4913C5.95882 23.6101 6.38968 23.7437 7.00909 24.0582C7.60752 24.3914 8.01351 24.8925 8.2463 25.2848C8.31137 25.3945 8.48418 25.3964 8.55001 25.2872C8.75611 24.9452 9.11132 24.4691 9.59509 24.1676C10.2773 23.7424 10.9452 23.5519 11.441 23.4893C11.6482 23.4632 11.8242 23.6252 11.8285 23.834C11.8651 25.5998 11.0808 26.1092 10.6302 26.3473C10.3423 26.4787 10.0104 26.6247 9.76473 26.7353C9.62539 26.7981 9.55609 26.9586 9.62399 27.0955C10.0982 28.0516 11.0922 27.9645 12.4818 27.9645C14.3334 27.9645 15.4427 26.6403 15.3256 25.2418C15.2631 23.4293 13.7631 22.7262 12.7552 22.0934C12.2321 21.7649 10.7006 20.9489 10.7006 19.1676Z" fill="url(#paint0_radial_4002_1304)"/>
<g filter="url(#filter1_f_4002_1304)">
<path d="M18.6614 26.7418C18.6614 21.3981 14.7395 18.7731 13.427 17.7418L16.677 16.2887C17.802 16.8095 19.712 18.6464 20.1301 21.3981C20.6145 24.5856 19.203 26.3252 18.6614 26.7418Z" fill="url(#paint1_radial_4002_1304)"/>
</g>
<g filter="url(#filter2_f_4002_1304)">
<path d="M8.77303 26.9404C8.76597 27.5899 9.20931 28.8889 11.0392 28.8889C12.8691 28.8889 13.9196 28.8889 14.2161 28.8889C15.2256 28.8748 17.5328 28.3722 18.6849 26.4745" stroke="url(#paint2_linear_4002_1304)" stroke-width="0.4" stroke-linecap="round"/>
</g>
<g filter="url(#filter3_f_4002_1304)">
<path d="M6.18896 24.5048C6.59842 24.6671 7.591 25.2884 8.28571 26.4744" stroke="url(#paint3_linear_4002_1304)" stroke-width="0.4" stroke-linecap="round"/>
</g>
<g filter="url(#filter4_f_4002_1304)">
<path d="M11.3356 23.986C11.0285 24.339 10.2025 25.0873 9.45068 25.818" stroke="url(#paint4_linear_4002_1304)" stroke-width="0.4" stroke-linecap="round"/>
</g>
<g filter="url(#filter5_ii_4002_1304)">
<path d="M20.6456 13.3636L18.4644 11.2496C17.7847 10.6403 17.0034 10.5465 16.5503 10.4137L17.4956 14.0035C17.7144 14.1884 18.4487 14.8512 19.0815 15.4567C19.6597 15.9449 20.3354 15.9918 20.6909 15.9918H25.0034V13.8668C24.5773 13.8068 22.0518 13.5883 20.8834 13.4742C20.7936 13.4654 20.7104 13.4264 20.6456 13.3636Z" fill="url(#paint5_radial_4002_1304)"/>
<path d="M20.6456 13.3636L18.4644 11.2496C17.7847 10.6403 17.0034 10.5465 16.5503 10.4137L17.4956 14.0035C17.7144 14.1884 18.4487 14.8512 19.0815 15.4567C19.6597 15.9449 20.3354 15.9918 20.6909 15.9918H25.0034V13.8668C24.5773 13.8068 22.0518 13.5883 20.8834 13.4742C20.7936 13.4654 20.7104 13.4264 20.6456 13.3636Z" fill="url(#paint6_radial_4002_1304)"/>
<path d="M20.6456 13.3636L18.4644 11.2496C17.7847 10.6403 17.0034 10.5465 16.5503 10.4137L17.4956 14.0035C17.7144 14.1884 18.4487 14.8512 19.0815 15.4567C19.6597 15.9449 20.3354 15.9918 20.6909 15.9918H25.0034V13.8668C24.5773 13.8068 22.0518 13.5883 20.8834 13.4742C20.7936 13.4654 20.7104 13.4264 20.6456 13.3636Z" fill="url(#paint7_radial_4002_1304)"/>
</g>
<path d="M24.3586 10.441H25.2883V29.8184C25.2883 29.9012 25.2212 29.9684 25.1383 29.9684H24.5086C24.4258 29.9684 24.3586 29.9012 24.3586 29.8184V10.441Z" fill="url(#paint8_radial_4002_1304)"/>
<path d="M24.3586 10.441H25.2883V29.8184C25.2883 29.9012 25.2212 29.9684 25.1383 29.9684H24.5086C24.4258 29.9684 24.3586 29.9012 24.3586 29.8184V10.441Z" fill="url(#paint9_radial_4002_1304)"/>
<path d="M24.3586 10.441H25.2883V29.8184C25.2883 29.9012 25.2212 29.9684 25.1383 29.9684H24.5086C24.4258 29.9684 24.3586 29.9012 24.3586 29.8184V10.441Z" fill="url(#paint10_radial_4002_1304)"/>
<path d="M24.3586 10.441H25.2883V29.8184C25.2883 29.9012 25.2212 29.9684 25.1383 29.9684H24.5086C24.4258 29.9684 24.3586 29.9012 24.3586 29.8184V10.441Z" fill="url(#paint11_linear_4002_1304)"/>
<g filter="url(#filter6_i_4002_1304)">
<rect x="23.3635" y="9.53333" width="2.96329" height="0.907743" rx="0.453871" fill="#ECA63F"/>
<rect x="23.3635" y="9.53333" width="2.96329" height="0.907743" rx="0.453871" fill="url(#paint12_radial_4002_1304)"/>
</g>
<g filter="url(#filter7_i_4002_1304)">
<path d="M24.6461 2.20122L23.8934 3.22034C23.7955 3.353 23.8911 3.54055 24.056 3.53915L24.2664 3.53737C24.3497 3.53666 24.4177 3.60403 24.4177 3.68736V7.54254C24.4177 8.09482 23.9699 8.54254 23.4177 8.54254H23.386C22.4836 8.54254 21.8477 7.91819 21.6761 7.31463C21.571 6.94472 21.5635 6.66999 21.6429 6.40941C21.7254 6.13855 21.9178 5.82982 22.3126 5.42604C23.175 4.54379 23.1785 3.53947 23.1825 2.4063L23.1826 2.36688C23.1826 2.2416 23.0381 2.17152 22.9397 2.24908L21.6395 3.27419C21.5277 3.36231 21.59 3.54199 21.7323 3.54199H22.1012C22.1866 3.54199 22.2546 3.61335 22.2393 3.69738C22.1908 3.96467 22.0388 4.39 21.6547 4.78293C21.2093 5.23853 20.9058 5.67197 20.7628 6.14134C20.6167 6.62099 20.6543 7.08454 20.7912 7.56622C21.0545 8.49245 21.9925 9.53323 23.4524 9.53323H26.2241C27.684 9.53323 28.622 8.49245 28.8853 7.56622C29.0222 7.08454 29.0598 6.62099 28.9137 6.14134C28.7708 5.67197 28.4672 5.23853 28.0219 4.78293C27.6377 4.39 27.4857 3.96467 27.4372 3.69738C27.4219 3.61335 27.4899 3.54199 27.5753 3.54199H27.9442C28.0865 3.54199 28.1488 3.36231 28.0371 3.27419L26.7368 2.24908C26.6384 2.17152 26.4939 2.2416 26.4939 2.36688L26.4941 2.4063C26.498 3.53947 26.5015 4.54379 27.364 5.42604C27.7587 5.82982 27.9511 6.13855 28.0336 6.40941C28.113 6.66999 28.1055 6.94472 28.0004 7.31463C27.8288 7.91819 27.2017 8.54254 26.2241 8.54254C25.6987 8.54254 25.2727 8.11656 25.2727 7.59109V3.67759C25.2727 3.59524 25.3391 3.52829 25.4214 3.5276L25.6338 3.5258C25.7973 3.52441 25.8901 3.33816 25.7928 3.20679L25.0481 2.20096C24.9481 2.06588 24.7459 2.06601 24.6461 2.20122Z" fill="url(#paint13_radial_4002_1304)"/>
<path d="M24.6461 2.20122L23.8934 3.22034C23.7955 3.353 23.8911 3.54055 24.056 3.53915L24.2664 3.53737C24.3497 3.53666 24.4177 3.60403 24.4177 3.68736V7.54254C24.4177 8.09482 23.9699 8.54254 23.4177 8.54254H23.386C22.4836 8.54254 21.8477 7.91819 21.6761 7.31463C21.571 6.94472 21.5635 6.66999 21.6429 6.40941C21.7254 6.13855 21.9178 5.82982 22.3126 5.42604C23.175 4.54379 23.1785 3.53947 23.1825 2.4063L23.1826 2.36688C23.1826 2.2416 23.0381 2.17152 22.9397 2.24908L21.6395 3.27419C21.5277 3.36231 21.59 3.54199 21.7323 3.54199H22.1012C22.1866 3.54199 22.2546 3.61335 22.2393 3.69738C22.1908 3.96467 22.0388 4.39 21.6547 4.78293C21.2093 5.23853 20.9058 5.67197 20.7628 6.14134C20.6167 6.62099 20.6543 7.08454 20.7912 7.56622C21.0545 8.49245 21.9925 9.53323 23.4524 9.53323H26.2241C27.684 9.53323 28.622 8.49245 28.8853 7.56622C29.0222 7.08454 29.0598 6.62099 28.9137 6.14134C28.7708 5.67197 28.4672 5.23853 28.0219 4.78293C27.6377 4.39 27.4857 3.96467 27.4372 3.69738C27.4219 3.61335 27.4899 3.54199 27.5753 3.54199H27.9442C28.0865 3.54199 28.1488 3.36231 28.0371 3.27419L26.7368 2.24908C26.6384 2.17152 26.4939 2.2416 26.4939 2.36688L26.4941 2.4063C26.498 3.53947 26.5015 4.54379 27.364 5.42604C27.7587 5.82982 27.9511 6.13855 28.0336 6.40941C28.113 6.66999 28.1055 6.94472 28.0004 7.31463C27.8288 7.91819 27.2017 8.54254 26.2241 8.54254C25.6987 8.54254 25.2727 8.11656 25.2727 7.59109V3.67759C25.2727 3.59524 25.3391 3.52829 25.4214 3.5276L25.6338 3.5258C25.7973 3.52441 25.8901 3.33816 25.7928 3.20679L25.0481 2.20096C24.9481 2.06588 24.7459 2.06601 24.6461 2.20122Z" fill="url(#paint14_radial_4002_1304)"/>
<path d="M24.6461 2.20122L23.8934 3.22034C23.7955 3.353 23.8911 3.54055 24.056 3.53915L24.2664 3.53737C24.3497 3.53666 24.4177 3.60403 24.4177 3.68736V7.54254C24.4177 8.09482 23.9699 8.54254 23.4177 8.54254H23.386C22.4836 8.54254 21.8477 7.91819 21.6761 7.31463C21.571 6.94472 21.5635 6.66999 21.6429 6.40941C21.7254 6.13855 21.9178 5.82982 22.3126 5.42604C23.175 4.54379 23.1785 3.53947 23.1825 2.4063L23.1826 2.36688C23.1826 2.2416 23.0381 2.17152 22.9397 2.24908L21.6395 3.27419C21.5277 3.36231 21.59 3.54199 21.7323 3.54199H22.1012C22.1866 3.54199 22.2546 3.61335 22.2393 3.69738C22.1908 3.96467 22.0388 4.39 21.6547 4.78293C21.2093 5.23853 20.9058 5.67197 20.7628 6.14134C20.6167 6.62099 20.6543 7.08454 20.7912 7.56622C21.0545 8.49245 21.9925 9.53323 23.4524 9.53323H26.2241C27.684 9.53323 28.622 8.49245 28.8853 7.56622C29.0222 7.08454 29.0598 6.62099 28.9137 6.14134C28.7708 5.67197 28.4672 5.23853 28.0219 4.78293C27.6377 4.39 27.4857 3.96467 27.4372 3.69738C27.4219 3.61335 27.4899 3.54199 27.5753 3.54199H27.9442C28.0865 3.54199 28.1488 3.36231 28.0371 3.27419L26.7368 2.24908C26.6384 2.17152 26.4939 2.2416 26.4939 2.36688L26.4941 2.4063C26.498 3.53947 26.5015 4.54379 27.364 5.42604C27.7587 5.82982 27.9511 6.13855 28.0336 6.40941C28.113 6.66999 28.1055 6.94472 28.0004 7.31463C27.8288 7.91819 27.2017 8.54254 26.2241 8.54254C25.6987 8.54254 25.2727 8.11656 25.2727 7.59109V3.67759C25.2727 3.59524 25.3391 3.52829 25.4214 3.5276L25.6338 3.5258C25.7973 3.52441 25.8901 3.33816 25.7928 3.20679L25.0481 2.20096C24.9481 2.06588 24.7459 2.06601 24.6461 2.20122Z" fill="url(#paint15_radial_4002_1304)"/>
</g>
<g filter="url(#filter8_i_4002_1304)">
<path d="M25.2563 13.2184C25.0697 13.2184 24.9184 13.3697 24.9184 13.5563V13.5746C24.9184 13.7031 24.9901 13.8148 25.0957 13.872C25.1129 13.8812 25.1129 13.9116 25.0957 13.9209C24.9901 13.978 24.9184 14.0898 24.9184 14.2183V14.2366C24.9184 14.3661 24.9913 14.4786 25.0983 14.5353C25.105 14.5389 25.1025 14.5504 25.0949 14.5504C24.8711 14.5504 24.6897 14.7318 24.6897 14.9556C24.6897 15.129 24.7986 15.2769 24.9516 15.3348C24.9707 15.342 24.9738 15.3758 24.9566 15.3867C24.8589 15.4486 24.794 15.5576 24.794 15.6818C24.794 15.8746 24.9503 16.0309 25.1431 16.0309H25.9054C26.0981 16.0309 26.2544 15.8746 26.2544 15.6818C26.2544 15.563 26.1951 15.4581 26.1044 15.395C26.0705 15.3714 26.0635 15.286 26.0944 15.2585C26.1778 15.1843 26.2304 15.0761 26.2304 14.9556C26.2304 14.8189 26.1626 14.6979 26.0588 14.6246C26.0332 14.6064 26.0371 14.5437 26.0641 14.5277C26.1636 14.4689 26.2304 14.3605 26.2304 14.2366V14.2183C26.2304 14.0934 26.1626 13.9843 26.0618 13.9258C26.0364 13.9111 26.0333 13.8615 26.0567 13.8437C26.1378 13.782 26.1902 13.6844 26.1902 13.5746V13.5563C26.1902 13.3697 26.039 13.2184 25.8523 13.2184H25.2563Z" fill="url(#paint16_linear_4002_1304)"/>
<path d="M25.2563 13.2184C25.0697 13.2184 24.9184 13.3697 24.9184 13.5563V13.5746C24.9184 13.7031 24.9901 13.8148 25.0957 13.872C25.1129 13.8812 25.1129 13.9116 25.0957 13.9209C24.9901 13.978 24.9184 14.0898 24.9184 14.2183V14.2366C24.9184 14.3661 24.9913 14.4786 25.0983 14.5353C25.105 14.5389 25.1025 14.5504 25.0949 14.5504C24.8711 14.5504 24.6897 14.7318 24.6897 14.9556C24.6897 15.129 24.7986 15.2769 24.9516 15.3348C24.9707 15.342 24.9738 15.3758 24.9566 15.3867C24.8589 15.4486 24.794 15.5576 24.794 15.6818C24.794 15.8746 24.9503 16.0309 25.1431 16.0309H25.9054C26.0981 16.0309 26.2544 15.8746 26.2544 15.6818C26.2544 15.563 26.1951 15.4581 26.1044 15.395C26.0705 15.3714 26.0635 15.286 26.0944 15.2585C26.1778 15.1843 26.2304 15.0761 26.2304 14.9556C26.2304 14.8189 26.1626 14.6979 26.0588 14.6246C26.0332 14.6064 26.0371 14.5437 26.0641 14.5277C26.1636 14.4689 26.2304 14.3605 26.2304 14.2366V14.2183C26.2304 14.0934 26.1626 13.9843 26.0618 13.9258C26.0364 13.9111 26.0333 13.8615 26.0567 13.8437C26.1378 13.782 26.1902 13.6844 26.1902 13.5746V13.5563C26.1902 13.3697 26.039 13.2184 25.8523 13.2184H25.2563Z" fill="url(#paint17_radial_4002_1304)"/>
<path d="M25.2563 13.2184C25.0697 13.2184 24.9184 13.3697 24.9184 13.5563V13.5746C24.9184 13.7031 24.9901 13.8148 25.0957 13.872C25.1129 13.8812 25.1129 13.9116 25.0957 13.9209C24.9901 13.978 24.9184 14.0898 24.9184 14.2183V14.2366C24.9184 14.3661 24.9913 14.4786 25.0983 14.5353C25.105 14.5389 25.1025 14.5504 25.0949 14.5504C24.8711 14.5504 24.6897 14.7318 24.6897 14.9556C24.6897 15.129 24.7986 15.2769 24.9516 15.3348C24.9707 15.342 24.9738 15.3758 24.9566 15.3867C24.8589 15.4486 24.794 15.5576 24.794 15.6818C24.794 15.8746 24.9503 16.0309 25.1431 16.0309H25.9054C26.0981 16.0309 26.2544 15.8746 26.2544 15.6818C26.2544 15.563 26.1951 15.4581 26.1044 15.395C26.0705 15.3714 26.0635 15.286 26.0944 15.2585C26.1778 15.1843 26.2304 15.0761 26.2304 14.9556C26.2304 14.8189 26.1626 14.6979 26.0588 14.6246C26.0332 14.6064 26.0371 14.5437 26.0641 14.5277C26.1636 14.4689 26.2304 14.3605 26.2304 14.2366V14.2183C26.2304 14.0934 26.1626 13.9843 26.0618 13.9258C26.0364 13.9111 26.0333 13.8615 26.0567 13.8437C26.1378 13.782 26.1902 13.6844 26.1902 13.5746V13.5563C26.1902 13.3697 26.039 13.2184 25.8523 13.2184H25.2563Z" fill="url(#paint18_radial_4002_1304)"/>
<path d="M25.2563 13.2184C25.0697 13.2184 24.9184 13.3697 24.9184 13.5563V13.5746C24.9184 13.7031 24.9901 13.8148 25.0957 13.872C25.1129 13.8812 25.1129 13.9116 25.0957 13.9209C24.9901 13.978 24.9184 14.0898 24.9184 14.2183V14.2366C24.9184 14.3661 24.9913 14.4786 25.0983 14.5353C25.105 14.5389 25.1025 14.5504 25.0949 14.5504C24.8711 14.5504 24.6897 14.7318 24.6897 14.9556C24.6897 15.129 24.7986 15.2769 24.9516 15.3348C24.9707 15.342 24.9738 15.3758 24.9566 15.3867C24.8589 15.4486 24.794 15.5576 24.794 15.6818C24.794 15.8746 24.9503 16.0309 25.1431 16.0309H25.9054C26.0981 16.0309 26.2544 15.8746 26.2544 15.6818C26.2544 15.563 26.1951 15.4581 26.1044 15.395C26.0705 15.3714 26.0635 15.286 26.0944 15.2585C26.1778 15.1843 26.2304 15.0761 26.2304 14.9556C26.2304 14.8189 26.1626 14.6979 26.0588 14.6246C26.0332 14.6064 26.0371 14.5437 26.0641 14.5277C26.1636 14.4689 26.2304 14.3605 26.2304 14.2366V14.2183C26.2304 14.0934 26.1626 13.9843 26.0618 13.9258C26.0364 13.9111 26.0333 13.8615 26.0567 13.8437C26.1378 13.782 26.1902 13.6844 26.1902 13.5746V13.5563C26.1902 13.3697 26.039 13.2184 25.8523 13.2184H25.2563Z" fill="url(#paint19_radial_4002_1304)"/>
<path d="M25.2563 13.2184C25.0697 13.2184 24.9184 13.3697 24.9184 13.5563V13.5746C24.9184 13.7031 24.9901 13.8148 25.0957 13.872C25.1129 13.8812 25.1129 13.9116 25.0957 13.9209C24.9901 13.978 24.9184 14.0898 24.9184 14.2183V14.2366C24.9184 14.3661 24.9913 14.4786 25.0983 14.5353C25.105 14.5389 25.1025 14.5504 25.0949 14.5504C24.8711 14.5504 24.6897 14.7318 24.6897 14.9556C24.6897 15.129 24.7986 15.2769 24.9516 15.3348C24.9707 15.342 24.9738 15.3758 24.9566 15.3867C24.8589 15.4486 24.794 15.5576 24.794 15.6818C24.794 15.8746 24.9503 16.0309 25.1431 16.0309H25.9054C26.0981 16.0309 26.2544 15.8746 26.2544 15.6818C26.2544 15.563 26.1951 15.4581 26.1044 15.395C26.0705 15.3714 26.0635 15.286 26.0944 15.2585C26.1778 15.1843 26.2304 15.0761 26.2304 14.9556C26.2304 14.8189 26.1626 14.6979 26.0588 14.6246C26.0332 14.6064 26.0371 14.5437 26.0641 14.5277C26.1636 14.4689 26.2304 14.3605 26.2304 14.2366V14.2183C26.2304 14.0934 26.1626 13.9843 26.0618 13.9258C26.0364 13.9111 26.0333 13.8615 26.0567 13.8437C26.1378 13.782 26.1902 13.6844 26.1902 13.5746V13.5563C26.1902 13.3697 26.039 13.2184 25.8523 13.2184H25.2563Z" fill="url(#paint20_radial_4002_1304)"/>
</g>
<path d="M24.8079 13.027H24.3079C23.7774 13.027 23.5294 13.4091 23.4211 13.8903L24.2688 14.1559L24.3105 13.9788C24.3223 13.9286 24.3703 13.8956 24.4214 13.9027L24.6209 13.9301C24.6989 13.9409 24.7571 14.0075 24.7571 14.0863V14.402C24.7571 14.663 24.9687 14.8746 25.2297 14.8746C25.4908 14.8746 25.7024 14.663 25.7024 14.402V13.9489C25.7024 13.691 25.675 13.4879 25.3977 13.2574C25.1758 13.0731 24.912 13.027 24.8079 13.027Z" fill="url(#paint21_linear_4002_1304)"/>
<path d="M24.8079 13.027H24.3079C23.7774 13.027 23.5294 13.4091 23.4211 13.8903L24.2688 14.1559L24.3105 13.9788C24.3223 13.9286 24.3703 13.8956 24.4214 13.9027L24.6209 13.9301C24.6989 13.9409 24.7571 14.0075 24.7571 14.0863V14.402C24.7571 14.663 24.9687 14.8746 25.2297 14.8746C25.4908 14.8746 25.7024 14.663 25.7024 14.402V13.9489C25.7024 13.691 25.675 13.4879 25.3977 13.2574C25.1758 13.0731 24.912 13.027 24.8079 13.027Z" fill="url(#paint22_radial_4002_1304)"/>
<path d="M24.8079 13.027H24.3079C23.7774 13.027 23.5294 13.4091 23.4211 13.8903L24.2688 14.1559L24.3105 13.9788C24.3223 13.9286 24.3703 13.8956 24.4214 13.9027L24.6209 13.9301C24.6989 13.9409 24.7571 14.0075 24.7571 14.0863V14.402C24.7571 14.663 24.9687 14.8746 25.2297 14.8746C25.4908 14.8746 25.7024 14.663 25.7024 14.402V13.9489C25.7024 13.691 25.675 13.4879 25.3977 13.2574C25.1758 13.0731 24.912 13.027 24.8079 13.027Z" fill="url(#paint23_radial_4002_1304)"/>
<path d="M24.8079 13.027H24.3079C23.7774 13.027 23.5294 13.4091 23.4211 13.8903L24.2688 14.1559L24.3105 13.9788C24.3223 13.9286 24.3703 13.8956 24.4214 13.9027L24.6209 13.9301C24.6989 13.9409 24.7571 14.0075 24.7571 14.0863V14.402C24.7571 14.663 24.9687 14.8746 25.2297 14.8746C25.4908 14.8746 25.7024 14.663 25.7024 14.402V13.9489C25.7024 13.691 25.675 13.4879 25.3977 13.2574C25.1758 13.0731 24.912 13.027 24.8079 13.027Z" fill="url(#paint24_radial_4002_1304)"/>
<path d="M4.02171 16.0085C4.00444 15.7233 4.22164 15.4781 4.50684 15.4608C4.79204 15.4435 5.03724 15.6607 5.05451 15.9459L5.10716 16.8152C5.12443 17.1004 4.90723 17.3456 4.62204 17.3629C4.33684 17.3802 4.09164 17.163 4.07436 16.8778L4.02171 16.0085Z" fill="url(#paint25_radial_4002_1304)"/>
<path d="M4.02171 16.0085C4.00444 15.7233 4.22164 15.4781 4.50684 15.4608C4.79204 15.4435 5.03724 15.6607 5.05451 15.9459L5.10716 16.8152C5.12443 17.1004 4.90723 17.3456 4.62204 17.3629C4.33684 17.3802 4.09164 17.163 4.07436 16.8778L4.02171 16.0085Z" fill="url(#paint26_linear_4002_1304)"/>
<g filter="url(#filter9_i_4002_1304)">
<path d="M10.9329 11.3668C11.7079 10.6168 12.679 10.4423 13.0462 10.4527V14.5074H11.6244C11.5119 14.3761 11.4056 14.4162 11.3665 14.4527C10.8639 14.8772 9.74622 15.8246 9.29623 16.2183C8.84623 16.6121 8.08789 16.7157 7.76498 16.7183H6.12974C6.02838 16.7183 5.9308 16.7568 5.85673 16.826L5.38539 17.2662C5.18232 17.4558 4.86807 17.4591 4.66108 17.2737C4.43272 17.0692 4.42175 16.7153 4.63702 16.4971L4.99522 16.1339C5.04256 16.0859 5.03133 16.0061 4.97259 15.973L4.90523 15.935C4.77674 15.8627 4.61555 15.8866 4.51365 15.9932L3.86412 16.6725C3.69747 16.8467 3.43094 16.8791 3.22742 16.7498C2.96986 16.5861 2.91487 16.2333 3.1104 15.999L3.89796 15.0553C4.02825 14.8991 4.21356 14.7991 4.41557 14.7757L7.61887 14.4056C7.68329 14.3981 7.74352 14.3701 7.79054 14.3254C8.54863 13.6057 10.0745 12.1269 10.9329 11.3668Z" fill="url(#paint27_radial_4002_1304)"/>
<path d="M10.9329 11.3668C11.7079 10.6168 12.679 10.4423 13.0462 10.4527V14.5074H11.6244C11.5119 14.3761 11.4056 14.4162 11.3665 14.4527C10.8639 14.8772 9.74622 15.8246 9.29623 16.2183C8.84623 16.6121 8.08789 16.7157 7.76498 16.7183H6.12974C6.02838 16.7183 5.9308 16.7568 5.85673 16.826L5.38539 17.2662C5.18232 17.4558 4.86807 17.4591 4.66108 17.2737C4.43272 17.0692 4.42175 16.7153 4.63702 16.4971L4.99522 16.1339C5.04256 16.0859 5.03133 16.0061 4.97259 15.973L4.90523 15.935C4.77674 15.8627 4.61555 15.8866 4.51365 15.9932L3.86412 16.6725C3.69747 16.8467 3.43094 16.8791 3.22742 16.7498C2.96986 16.5861 2.91487 16.2333 3.1104 15.999L3.89796 15.0553C4.02825 14.8991 4.21356 14.7991 4.41557 14.7757L7.61887 14.4056C7.68329 14.3981 7.74352 14.3701 7.79054 14.3254C8.54863 13.6057 10.0745 12.1269 10.9329 11.3668Z" fill="url(#paint28_radial_4002_1304)"/>
<path d="M10.9329 11.3668C11.7079 10.6168 12.679 10.4423 13.0462 10.4527V14.5074H11.6244C11.5119 14.3761 11.4056 14.4162 11.3665 14.4527C10.8639 14.8772 9.74622 15.8246 9.29623 16.2183C8.84623 16.6121 8.08789 16.7157 7.76498 16.7183H6.12974C6.02838 16.7183 5.9308 16.7568 5.85673 16.826L5.38539 17.2662C5.18232 17.4558 4.86807 17.4591 4.66108 17.2737C4.43272 17.0692 4.42175 16.7153 4.63702 16.4971L4.99522 16.1339C5.04256 16.0859 5.03133 16.0061 4.97259 15.973L4.90523 15.935C4.77674 15.8627 4.61555 15.8866 4.51365 15.9932L3.86412 16.6725C3.69747 16.8467 3.43094 16.8791 3.22742 16.7498C2.96986 16.5861 2.91487 16.2333 3.1104 15.999L3.89796 15.0553C4.02825 14.8991 4.21356 14.7991 4.41557 14.7757L7.61887 14.4056C7.68329 14.3981 7.74352 14.3701 7.79054 14.3254C8.54863 13.6057 10.0745 12.1269 10.9329 11.3668Z" fill="url(#paint29_radial_4002_1304)"/>
</g>
<path d="M12.9659 10.4449C12.4913 10.9729 11.5422 12.4648 11.5422 14.2087V17.26C11.5422 17.619 11.8333 17.9098 12.1922 17.9098H17.5055C17.8645 17.9098 18.1555 17.619 18.1555 17.26V14.2087C18.1555 12.4648 17.2064 10.9729 16.7319 10.4449H12.9659Z" fill="url(#paint30_radial_4002_1304)"/>
<path d="M12.9659 10.4449C12.4913 10.9729 11.5422 12.4648 11.5422 14.2087V17.26C11.5422 17.619 11.8333 17.9098 12.1922 17.9098H17.5055C17.8645 17.9098 18.1555 17.619 18.1555 17.26V14.2087C18.1555 12.4648 17.2064 10.9729 16.7319 10.4449H12.9659Z" fill="url(#paint31_radial_4002_1304)"/>
<path d="M12.9659 10.4449C12.4913 10.9729 11.5422 12.4648 11.5422 14.2087V17.26C11.5422 17.619 11.8333 17.9098 12.1922 17.9098H17.5055C17.8645 17.9098 18.1555 17.619 18.1555 17.26V14.2087C18.1555 12.4648 17.2064 10.9729 16.7319 10.4449H12.9659Z" fill="url(#paint32_radial_4002_1304)"/>
<path d="M12.9659 10.4449C12.4913 10.9729 11.5422 12.4648 11.5422 14.2087V17.26C11.5422 17.619 11.8333 17.9098 12.1922 17.9098H17.5055C17.8645 17.9098 18.1555 17.619 18.1555 17.26V14.2087C18.1555 12.4648 17.2064 10.9729 16.7319 10.4449H12.9659Z" fill="url(#paint33_radial_4002_1304)"/>
<g filter="url(#filter10_f_4002_1304)">
<path d="M27.0774 3.42932C27.0774 3.81213 27.1945 4.31213 27.6788 4.88245C28.3475 5.66992 28.6868 6.1012 28.6868 6.7262C28.6868 7.12463 28.5694 8.03088 27.6788 8.65588" stroke="url(#paint34_linear_4002_1304)" stroke-width="0.2"/>
</g>
<g filter="url(#filter11_f_4002_1304)">
<path d="M26.8274 2.59338L27.8196 3.31213H27.1008" stroke="url(#paint35_linear_4002_1304)" stroke-width="0.2"/>
</g>
<g filter="url(#filter12_f_4002_1304)">
<path d="M25.5617 3.23401L24.9445 2.2887L24.7722 3.23401H25.5617Z" fill="url(#paint36_radial_4002_1304)"/>
</g>
<g filter="url(#filter13_f_4002_1304)">
<path d="M24.9602 3.50745V7.7262C24.9341 7.93974 25.0101 8.52463 25.5851 8.81213C26.1601 9.09963 26.7961 8.89026 27.007 8.81213" stroke="url(#paint37_linear_4002_1304)" stroke-width="0.2"/>
</g>
<g filter="url(#filter14_f_4002_1304)">
<path d="M22.9525 2.58557C22.9525 3.56995 22.8947 4.40432 22.0072 5.30432C20.8978 6.42932 21.3209 7.44865 21.4447 7.7262C21.6712 8.23401 22.2572 8.94495 23.7103 8.94495" stroke="url(#paint38_linear_4002_1304)" stroke-width="0.2"/>
</g>
<g filter="url(#filter15_f_4002_1304)">
<path d="M18.4578 12.4449L20.3417 14.3869C20.4359 14.4839 20.5653 14.5387 20.7006 14.5387H23.9578" stroke="url(#paint39_radial_4002_1304)" stroke-width="0.6" stroke-linecap="round"/>
</g>
<g filter="url(#filter16_i_4002_1304)">
<circle cx="12.1125" cy="6.97984" r="0.96043" fill="url(#paint40_radial_4002_1304)"/>
</g>
<g filter="url(#filter17_f_4002_1304)">
<circle cx="12.1124" cy="6.97975" r="0.572402" fill="url(#paint41_linear_4002_1304)"/>
</g>
<g filter="url(#filter18_i_4002_1304)">
<circle cx="17.5854" cy="6.97984" r="0.96043" fill="url(#paint42_linear_4002_1304)"/>
<circle cx="17.5854" cy="6.97984" r="0.96043" fill="url(#paint43_radial_4002_1304)"/>
</g>
<g filter="url(#filter19_f_4002_1304)">
<circle cx="17.5853" cy="6.97975" r="0.572402" fill="#E4AF9A"/>
<circle cx="17.5853" cy="6.97975" r="0.572402" fill="url(#paint44_radial_4002_1304)"/>
<circle cx="17.5853" cy="6.97975" r="0.572402" fill="url(#paint45_radial_4002_1304)"/>
</g>
<g filter="url(#filter20_i_4002_1304)">
<path d="M11.8765 5.79976C11.8765 5.64635 11.9382 5.46225 12.0616 5.3702L12.1542 5.27816C12.3085 5.15542 12.3702 4.97133 12.3702 4.78723V4.29631C12.3702 4.14289 12.4628 4.02016 12.6171 3.98948C12.9874 3.89743 13.7588 3.74402 14.8697 3.74402C15.9806 3.74402 16.7521 3.89743 17.1224 3.98948C17.2458 4.02016 17.3693 4.14289 17.3693 4.29631V4.78723C17.3693 4.97133 17.4619 5.15542 17.5853 5.27816C17.8741 5.48056 17.8561 5.59188 17.8322 5.83044C17.8013 6.13727 17.7704 6.65888 17.7704 6.65888C17.7739 6.65888 17.7774 6.65883 17.7808 6.65875L17.6279 8.93603C17.5356 9.95406 16.7352 10.6636 15.781 10.6636H13.9341C12.9491 10.6636 12.1795 9.95406 12.0872 8.93603C12.007 7.89102 11.9718 6.84297 11.8765 5.79976Z" fill="url(#paint46_linear_4002_1304)"/>
<path d="M11.8765 5.79976C11.8765 5.64635 11.9382 5.46225 12.0616 5.3702L12.1542 5.27816C12.3085 5.15542 12.3702 4.97133 12.3702 4.78723V4.29631C12.3702 4.14289 12.4628 4.02016 12.6171 3.98948C12.9874 3.89743 13.7588 3.74402 14.8697 3.74402C15.9806 3.74402 16.7521 3.89743 17.1224 3.98948C17.2458 4.02016 17.3693 4.14289 17.3693 4.29631V4.78723C17.3693 4.97133 17.4619 5.15542 17.5853 5.27816C17.8741 5.48056 17.8561 5.59188 17.8322 5.83044C17.8013 6.13727 17.7704 6.65888 17.7704 6.65888C17.7739 6.65888 17.7774 6.65883 17.7808 6.65875L17.6279 8.93603C17.5356 9.95406 16.7352 10.6636 15.781 10.6636H13.9341C12.9491 10.6636 12.1795 9.95406 12.0872 8.93603C12.007 7.89102 11.9718 6.84297 11.8765 5.79976Z" fill="url(#paint47_radial_4002_1304)"/>
<path d="M11.8765 5.79976C11.8765 5.64635 11.9382 5.46225 12.0616 5.3702L12.1542 5.27816C12.3085 5.15542 12.3702 4.97133 12.3702 4.78723V4.29631C12.3702 4.14289 12.4628 4.02016 12.6171 3.98948C12.9874 3.89743 13.7588 3.74402 14.8697 3.74402C15.9806 3.74402 16.7521 3.89743 17.1224 3.98948C17.2458 4.02016 17.3693 4.14289 17.3693 4.29631V4.78723C17.3693 4.97133 17.4619 5.15542 17.5853 5.27816C17.8741 5.48056 17.8561 5.59188 17.8322 5.83044C17.8013 6.13727 17.7704 6.65888 17.7704 6.65888C17.7739 6.65888 17.7774 6.65883 17.7808 6.65875L17.6279 8.93603C17.5356 9.95406 16.7352 10.6636 15.781 10.6636H13.9341C12.9491 10.6636 12.1795 9.95406 12.0872 8.93603C12.007 7.89102 11.9718 6.84297 11.8765 5.79976Z" fill="url(#paint48_linear_4002_1304)"/>
<path d="M11.8765 5.79976C11.8765 5.64635 11.9382 5.46225 12.0616 5.3702L12.1542 5.27816C12.3085 5.15542 12.3702 4.97133 12.3702 4.78723V4.29631C12.3702 4.14289 12.4628 4.02016 12.6171 3.98948C12.9874 3.89743 13.7588 3.74402 14.8697 3.74402C15.9806 3.74402 16.7521 3.89743 17.1224 3.98948C17.2458 4.02016 17.3693 4.14289 17.3693 4.29631V4.78723C17.3693 4.97133 17.4619 5.15542 17.5853 5.27816C17.8741 5.48056 17.8561 5.59188 17.8322 5.83044C17.8013 6.13727 17.7704 6.65888 17.7704 6.65888C17.7739 6.65888 17.7774 6.65883 17.7808 6.65875L17.6279 8.93603C17.5356 9.95406 16.7352 10.6636 15.781 10.6636H13.9341C12.9491 10.6636 12.1795 9.95406 12.0872 8.93603C12.007 7.89102 11.9718 6.84297 11.8765 5.79976Z" fill="url(#paint49_linear_4002_1304)"/>
<path d="M11.8765 5.79976C11.8765 5.64635 11.9382 5.46225 12.0616 5.3702L12.1542 5.27816C12.3085 5.15542 12.3702 4.97133 12.3702 4.78723V4.29631C12.3702 4.14289 12.4628 4.02016 12.6171 3.98948C12.9874 3.89743 13.7588 3.74402 14.8697 3.74402C15.9806 3.74402 16.7521 3.89743 17.1224 3.98948C17.2458 4.02016 17.3693 4.14289 17.3693 4.29631V4.78723C17.3693 4.97133 17.4619 5.15542 17.5853 5.27816C17.8741 5.48056 17.8561 5.59188 17.8322 5.83044C17.8013 6.13727 17.7704 6.65888 17.7704 6.65888C17.7739 6.65888 17.7774 6.65883 17.7808 6.65875L17.6279 8.93603C17.5356 9.95406 16.7352 10.6636 15.781 10.6636H13.9341C12.9491 10.6636 12.1795 9.95406 12.0872 8.93603C12.007 7.89102 11.9718 6.84297 11.8765 5.79976Z" fill="url(#paint50_radial_4002_1304)"/>
<path d="M11.8765 5.79976C11.8765 5.64635 11.9382 5.46225 12.0616 5.3702L12.1542 5.27816C12.3085 5.15542 12.3702 4.97133 12.3702 4.78723V4.29631C12.3702 4.14289 12.4628 4.02016 12.6171 3.98948C12.9874 3.89743 13.7588 3.74402 14.8697 3.74402C15.9806 3.74402 16.7521 3.89743 17.1224 3.98948C17.2458 4.02016 17.3693 4.14289 17.3693 4.29631V4.78723C17.3693 4.97133 17.4619 5.15542 17.5853 5.27816C17.8741 5.48056 17.8561 5.59188 17.8322 5.83044C17.8013 6.13727 17.7704 6.65888 17.7704 6.65888C17.7739 6.65888 17.7774 6.65883 17.7808 6.65875L17.6279 8.93603C17.5356 9.95406 16.7352 10.6636 15.781 10.6636H13.9341C12.9491 10.6636 12.1795 9.95406 12.0872 8.93603C12.007 7.89102 11.9718 6.84297 11.8765 5.79976Z" fill="url(#paint51_radial_4002_1304)"/>
</g>
<g filter="url(#filter21_f_4002_1304)">
<path d="M17.1241 3.74402L15.3537 4.33428C15.0522 4.43478 14.8807 4.75211 14.9617 5.05936C15.0391 5.35307 15.3231 5.5432 15.6241 5.50289L17.3844 5.26721L17.1241 3.74402Z" fill="url(#paint52_linear_4002_1304)"/>
</g>
<g filter="url(#filter22_i_4002_1304)">
<path d="M17.6161 3.25325L17.863 3.37598C18.295 3.59076 18.5418 4.08168 18.4493 4.60329L18.1098 6.3522C18.0795 6.53283 17.9602 6.65438 17.7808 6.6589C17.7773 6.65899 17.7739 6.65901 17.7704 6.65901C17.7704 6.65901 17.8012 6.13741 17.8321 5.83058C17.8572 5.58142 17.8137 5.50542 17.5852 5.27829C17.4618 5.15556 17.3692 4.97146 17.3692 4.78737V4.29644C17.3692 4.14303 17.2458 4.0203 17.1224 3.98962C16.752 3.89757 15.9806 3.74415 14.8697 3.74415C13.7588 3.74415 12.9873 3.89757 12.617 3.98962C12.4627 4.0203 12.3701 4.14303 12.3701 4.29644V4.78737C12.3701 4.97146 12.3084 5.15556 12.1541 5.27829L12.0616 5.37034C11.9381 5.46239 11.8764 5.64648 11.8764 5.7999C11.9073 6.13741 11.9381 6.62833 11.9381 6.62833C11.9286 6.62833 11.9192 6.62801 11.9099 6.62737C11.7375 6.61559 11.5971 6.49618 11.5678 6.32152L11.2284 4.57261C11.1667 4.08168 11.4135 3.59076 11.8455 3.37598L12.0924 3.25325C12.2467 3.1612 12.401 3.03847 12.5553 2.91574L13.1107 2.33277C13.4502 2.02594 13.9439 1.93389 14.3759 2.14867C14.6845 2.24072 15.024 2.24072 15.3326 2.14867C15.7954 1.99526 16.32 2.11799 16.6903 2.4555L17.1532 2.91574C17.2766 3.06915 17.4309 3.1612 17.6161 3.25325Z" fill="#242324"/>
<path d="M17.6161 3.25325L17.863 3.37598C18.295 3.59076 18.5418 4.08168 18.4493 4.60329L18.1098 6.3522C18.0795 6.53283 17.9602 6.65438 17.7808 6.6589C17.7773 6.65899 17.7739 6.65901 17.7704 6.65901C17.7704 6.65901 17.8012 6.13741 17.8321 5.83058C17.8572 5.58142 17.8137 5.50542 17.5852 5.27829C17.4618 5.15556 17.3692 4.97146 17.3692 4.78737V4.29644C17.3692 4.14303 17.2458 4.0203 17.1224 3.98962C16.752 3.89757 15.9806 3.74415 14.8697 3.74415C13.7588 3.74415 12.9873 3.89757 12.617 3.98962C12.4627 4.0203 12.3701 4.14303 12.3701 4.29644V4.78737C12.3701 4.97146 12.3084 5.15556 12.1541 5.27829L12.0616 5.37034C11.9381 5.46239 11.8764 5.64648 11.8764 5.7999C11.9073 6.13741 11.9381 6.62833 11.9381 6.62833C11.9286 6.62833 11.9192 6.62801 11.9099 6.62737C11.7375 6.61559 11.5971 6.49618 11.5678 6.32152L11.2284 4.57261C11.1667 4.08168 11.4135 3.59076 11.8455 3.37598L12.0924 3.25325C12.2467 3.1612 12.401 3.03847 12.5553 2.91574L13.1107 2.33277C13.4502 2.02594 13.9439 1.93389 14.3759 2.14867C14.6845 2.24072 15.024 2.24072 15.3326 2.14867C15.7954 1.99526 16.32 2.11799 16.6903 2.4555L17.1532 2.91574C17.2766 3.06915 17.4309 3.1612 17.6161 3.25325Z" fill="url(#paint53_radial_4002_1304)"/>
<path d="M17.6161 3.25325L17.863 3.37598C18.295 3.59076 18.5418 4.08168 18.4493 4.60329L18.1098 6.3522C18.0795 6.53283 17.9602 6.65438 17.7808 6.6589C17.7773 6.65899 17.7739 6.65901 17.7704 6.65901C17.7704 6.65901 17.8012 6.13741 17.8321 5.83058C17.8572 5.58142 17.8137 5.50542 17.5852 5.27829C17.4618 5.15556 17.3692 4.97146 17.3692 4.78737V4.29644C17.3692 4.14303 17.2458 4.0203 17.1224 3.98962C16.752 3.89757 15.9806 3.74415 14.8697 3.74415C13.7588 3.74415 12.9873 3.89757 12.617 3.98962C12.4627 4.0203 12.3701 4.14303 12.3701 4.29644V4.78737C12.3701 4.97146 12.3084 5.15556 12.1541 5.27829L12.0616 5.37034C11.9381 5.46239 11.8764 5.64648 11.8764 5.7999C11.9073 6.13741 11.9381 6.62833 11.9381 6.62833C11.9286 6.62833 11.9192 6.62801 11.9099 6.62737C11.7375 6.61559 11.5971 6.49618 11.5678 6.32152L11.2284 4.57261C11.1667 4.08168 11.4135 3.59076 11.8455 3.37598L12.0924 3.25325C12.2467 3.1612 12.401 3.03847 12.5553 2.91574L13.1107 2.33277C13.4502 2.02594 13.9439 1.93389 14.3759 2.14867C14.6845 2.24072 15.024 2.24072 15.3326 2.14867C15.7954 1.99526 16.32 2.11799 16.6903 2.4555L17.1532 2.91574C17.2766 3.06915 17.4309 3.1612 17.6161 3.25325Z" fill="url(#paint54_radial_4002_1304)"/>
<path d="M17.6161 3.25325L17.863 3.37598C18.295 3.59076 18.5418 4.08168 18.4493 4.60329L18.1098 6.3522C18.0795 6.53283 17.9602 6.65438 17.7808 6.6589C17.7773 6.65899 17.7739 6.65901 17.7704 6.65901C17.7704 6.65901 17.8012 6.13741 17.8321 5.83058C17.8572 5.58142 17.8137 5.50542 17.5852 5.27829C17.4618 5.15556 17.3692 4.97146 17.3692 4.78737V4.29644C17.3692 4.14303 17.2458 4.0203 17.1224 3.98962C16.752 3.89757 15.9806 3.74415 14.8697 3.74415C13.7588 3.74415 12.9873 3.89757 12.617 3.98962C12.4627 4.0203 12.3701 4.14303 12.3701 4.29644V4.78737C12.3701 4.97146 12.3084 5.15556 12.1541 5.27829L12.0616 5.37034C11.9381 5.46239 11.8764 5.64648 11.8764 5.7999C11.9073 6.13741 11.9381 6.62833 11.9381 6.62833C11.9286 6.62833 11.9192 6.62801 11.9099 6.62737C11.7375 6.61559 11.5971 6.49618 11.5678 6.32152L11.2284 4.57261C11.1667 4.08168 11.4135 3.59076 11.8455 3.37598L12.0924 3.25325C12.2467 3.1612 12.401 3.03847 12.5553 2.91574L13.1107 2.33277C13.4502 2.02594 13.9439 1.93389 14.3759 2.14867C14.6845 2.24072 15.024 2.24072 15.3326 2.14867C15.7954 1.99526 16.32 2.11799 16.6903 2.4555L17.1532 2.91574C17.2766 3.06915 17.4309 3.1612 17.6161 3.25325Z" fill="url(#paint55_radial_4002_1304)"/>
<path d="M17.6161 3.25325L17.863 3.37598C18.295 3.59076 18.5418 4.08168 18.4493 4.60329L18.1098 6.3522C18.0795 6.53283 17.9602 6.65438 17.7808 6.6589C17.7773 6.65899 17.7739 6.65901 17.7704 6.65901C17.7704 6.65901 17.8012 6.13741 17.8321 5.83058C17.8572 5.58142 17.8137 5.50542 17.5852 5.27829C17.4618 5.15556 17.3692 4.97146 17.3692 4.78737V4.29644C17.3692 4.14303 17.2458 4.0203 17.1224 3.98962C16.752 3.89757 15.9806 3.74415 14.8697 3.74415C13.7588 3.74415 12.9873 3.89757 12.617 3.98962C12.4627 4.0203 12.3701 4.14303 12.3701 4.29644V4.78737C12.3701 4.97146 12.3084 5.15556 12.1541 5.27829L12.0616 5.37034C11.9381 5.46239 11.8764 5.64648 11.8764 5.7999C11.9073 6.13741 11.9381 6.62833 11.9381 6.62833C11.9286 6.62833 11.9192 6.62801 11.9099 6.62737C11.7375 6.61559 11.5971 6.49618 11.5678 6.32152L11.2284 4.57261C11.1667 4.08168 11.4135 3.59076 11.8455 3.37598L12.0924 3.25325C12.2467 3.1612 12.401 3.03847 12.5553 2.91574L13.1107 2.33277C13.4502 2.02594 13.9439 1.93389 14.3759 2.14867C14.6845 2.24072 15.024 2.24072 15.3326 2.14867C15.7954 1.99526 16.32 2.11799 16.6903 2.4555L17.1532 2.91574C17.2766 3.06915 17.4309 3.1612 17.6161 3.25325Z" fill="url(#paint56_radial_4002_1304)"/>
</g>
<g filter="url(#filter23_f_4002_1304)">
<path d="M14.6855 6.9094L14.2136 7.88717C14.1551 8.0883 14.2955 8.28942 14.4944 8.28942H14.9185C15.1174 8.28942 15.2578 8.0852 15.1993 7.88717L14.9127 6.9094C14.8512 6.6928 14.7499 6.6928 14.6855 6.9094Z" fill="#D89992"/>
</g>
<g filter="url(#filter24_f_4002_1304)">
<path d="M14.6239 6.81565L14.3182 7.79342C14.2558 7.99455 14.4056 8.19567 14.6177 8.19567H15.07C15.2821 8.19567 15.4318 7.99145 15.3694 7.79342L15.0637 6.81565C14.9982 6.59905 14.6925 6.59905 14.6239 6.81565Z" fill="#FBC4B1"/>
<path d="M14.6239 6.81565L14.3182 7.79342C14.2558 7.99455 14.4056 8.19567 14.6177 8.19567H15.07C15.2821 8.19567 15.4318 7.99145 15.3694 7.79342L15.0637 6.81565C14.9982 6.59905 14.6925 6.59905 14.6239 6.81565Z" fill="url(#paint57_linear_4002_1304)"/>
<path d="M14.6239 6.81565L14.3182 7.79342C14.2558 7.99455 14.4056 8.19567 14.6177 8.19567H15.07C15.2821 8.19567 15.4318 7.99145 15.3694 7.79342L15.0637 6.81565C14.9982 6.59905 14.6925 6.59905 14.6239 6.81565Z" fill="url(#paint58_linear_4002_1304)"/>
<path d="M14.6239 6.81565L14.3182 7.79342C14.2558 7.99455 14.4056 8.19567 14.6177 8.19567H15.07C15.2821 8.19567 15.4318 7.99145 15.3694 7.79342L15.0637 6.81565C14.9982 6.59905 14.6925 6.59905 14.6239 6.81565Z" fill="url(#paint59_linear_4002_1304)"/>
<path d="M14.6239 6.81565L14.3182 7.79342C14.2558 7.99455 14.4056 8.19567 14.6177 8.19567H15.07C15.2821 8.19567 15.4318 7.99145 15.3694 7.79342L15.0637 6.81565C14.9982 6.59905 14.6925 6.59905 14.6239 6.81565Z" fill="url(#paint60_radial_4002_1304)"/>
</g>
<path d="M14.0702 8.54729L14.0702 8.54729C14.2934 8.66364 14.5598 8.73053 14.8439 8.73053C15.131 8.73053 15.3944 8.66366 15.6177 8.54729L15.6181 8.54705L15.6181 8.54705C15.6791 8.51606 15.7434 8.53414 15.7819 8.57411C15.821 8.61472 15.8356 8.68049 15.7963 8.73947M14.0702 8.54729L15.7546 8.71184M14.0702 8.54729L14.0698 8.54705C14.0081 8.5157 13.9437 8.53545 13.9058 8.57543C13.8675 8.61567 13.8518 8.68154 13.8918 8.73981M14.0702 8.54729L13.9333 8.71184M15.7963 8.73947C15.7963 8.73951 15.7962 8.73954 15.7962 8.73957L15.7546 8.71184M15.7963 8.73947C15.7963 8.73944 15.7963 8.73941 15.7964 8.73937L15.7546 8.71184M15.7963 8.73947C15.5947 9.04498 15.2436 9.24841 14.8439 9.24841C14.4445 9.24841 14.0935 9.04513 13.8918 8.73981M15.7546 8.71184C15.562 9.00378 15.2263 9.19841 14.8439 9.19841C14.4616 9.19841 14.1259 9.00378 13.9333 8.71184M13.8918 8.73981C13.8919 8.73998 13.892 8.74016 13.8922 8.74033L13.9333 8.71184M13.8918 8.73981C13.8917 8.73967 13.8916 8.73952 13.8915 8.73937L13.9333 8.71184" fill="#88024E" stroke="url(#paint61_linear_4002_1304)" stroke-width="0.1"/>
<g filter="url(#filter25_i_4002_1304)">
<path d="M16.9839 5.41498L16.9832 5.41439L16.9821 5.41351L16.9796 5.41141L16.9727 5.40592C16.9673 5.40171 16.9604 5.39644 16.952 5.39028C16.9352 5.37797 16.9123 5.36206 16.8836 5.34407C16.8263 5.30819 16.745 5.26349 16.6421 5.22282C16.4356 5.14117 16.1407 5.07539 15.7834 5.13181C15.6159 5.15826 15.5015 5.31547 15.528 5.48297C15.5544 5.65046 15.7116 5.7648 15.8791 5.73835C16.108 5.70222 16.2912 5.74441 16.4163 5.79387C16.4793 5.81876 16.5271 5.8454 16.5576 5.86447C16.5727 5.87396 16.5833 5.88143 16.5891 5.88563C16.5915 5.88737 16.593 5.88854 16.5936 5.88904C16.7238 5.99521 16.9156 5.97698 17.0234 5.84758C17.132 5.71732 17.1142 5.52353 16.9839 5.41498Z" fill="#1E1E1E"/>
</g>
<g filter="url(#filter26_i_4002_1304)">
<path d="M12.673 5.41516L12.6734 5.41479L12.6739 5.41439L12.675 5.41351L12.6776 5.41141L12.6845 5.40592C12.6898 5.40171 12.6967 5.39644 12.7051 5.39028C12.7219 5.37797 12.7448 5.36206 12.7736 5.34407C12.8308 5.30819 12.9122 5.26349 13.015 5.22282C13.2215 5.14117 13.5165 5.07539 13.8738 5.13181C14.0412 5.15826 14.1556 5.31547 14.1291 5.48297C14.1027 5.65046 13.9455 5.7648 13.778 5.73835C13.5491 5.70222 13.3659 5.74441 13.2408 5.79387C13.1778 5.81876 13.13 5.8454 13.0995 5.86447C13.0844 5.87396 13.0738 5.88143 13.068 5.88563C13.0657 5.88737 13.0641 5.88854 13.0635 5.88904C12.9333 5.99521 12.7415 5.97698 12.6337 5.84758C12.5251 5.71732 12.5427 5.52371 12.673 5.41516Z" fill="#1E1E1E"/>
</g>
<path d="M16.2177 6.15686C16.5933 6.15686 16.9106 6.41584 16.9969 6.76582C17.0226 6.86615 16.9456 6.96181 16.8429 6.96181H15.5597C15.478 6.96181 15.4127 6.88715 15.429 6.80549C15.5014 6.43684 15.8257 6.15686 16.2177 6.15686Z" fill="white"/>
<path d="M16.0986 6.31311C16.3833 6.31311 16.6119 6.5441 16.6119 6.82641C16.6119 6.87308 16.6049 6.91974 16.5933 6.96174H15.6017C15.59 6.91741 15.583 6.87308 15.583 6.82641C15.583 6.5441 15.814 6.31311 16.0986 6.31311Z" fill="url(#paint62_radial_4002_1304)"/>
<path d="M15.8047 6.82633C15.8047 6.66301 15.9353 6.53235 16.0987 6.53235C16.262 6.53235 16.3927 6.66301 16.3927 6.82633C16.3927 6.87533 16.381 6.92199 16.36 6.96166H15.8397C15.8164 6.92199 15.8047 6.87533 15.8047 6.82633Z" fill="black"/>
<g filter="url(#filter27_f_4002_1304)">
<path d="M16.0609 6.42172C16.0975 6.47063 16.021 6.53026 15.9341 6.59524C15.8472 6.66023 15.7827 6.70596 15.7461 6.65705C15.7096 6.60813 15.7504 6.5158 15.8373 6.45082C15.9242 6.38583 16.0243 6.37281 16.0609 6.42172Z" fill="#C7A7A3"/>
<path d="M16.0609 6.42172C16.0975 6.47063 16.021 6.53026 15.9341 6.59524C15.8472 6.66023 15.7827 6.70596 15.7461 6.65705C15.7096 6.60813 15.7504 6.5158 15.8373 6.45082C15.9242 6.38583 16.0243 6.37281 16.0609 6.42172Z" fill="url(#paint63_radial_4002_1304)"/>
</g>
<g filter="url(#filter28_f_4002_1304)">
<path d="M16.5557 6.75868C16.5368 6.62598 16.4591 6.52597 16.4227 6.49255L16.2732 6.65661L16.3406 6.78785L16.5557 6.75868Z" fill="url(#paint64_linear_4002_1304)"/>
</g>
<path d="M13.4672 6.15662C13.0915 6.15662 12.7742 6.41561 12.6878 6.76561C12.6622 6.86594 12.7392 6.96161 12.8418 6.96161H14.1252C14.2068 6.96161 14.2722 6.88694 14.2558 6.80528C14.1835 6.43661 13.8568 6.15662 13.4672 6.15662Z" fill="white"/>
<path d="M13.5863 6.31311C13.3017 6.31311 13.073 6.54411 13.073 6.82644C13.073 6.87311 13.08 6.91977 13.0917 6.96177H14.0833C14.095 6.91744 14.102 6.87311 14.102 6.82644C14.0997 6.54411 13.871 6.31311 13.5863 6.31311Z" fill="url(#paint65_radial_4002_1304)"/>
<path d="M13.8802 6.82635C13.8802 6.66301 13.7496 6.53235 13.5862 6.53235C13.4229 6.53235 13.2922 6.66301 13.2922 6.82635C13.2922 6.87535 13.3039 6.92201 13.3249 6.96168H13.8452C13.8662 6.92201 13.8802 6.87535 13.8802 6.82635Z" fill="black"/>
<g filter="url(#filter29_f_4002_1304)">
<path d="M14.0553 6.76607C14.0553 6.60019 13.9204 6.4896 13.8839 6.45618L13.718 6.61659L13.8201 6.8244L14.0553 6.76607Z" fill="url(#paint66_linear_4002_1304)"/>
</g>
<g filter="url(#filter30_f_4002_1304)">
<ellipse cx="13.4313" cy="6.5323" rx="0.224095" ry="0.113413" transform="rotate(-27.914 13.4313 6.5323)" fill="#C7A7A3" fill-opacity="0.9"/>
<ellipse cx="13.4313" cy="6.5323" rx="0.224095" ry="0.113413" transform="rotate(-27.914 13.4313 6.5323)" fill="url(#paint67_radial_4002_1304)"/>
</g>
<g filter="url(#filter31_f_4002_1304)">
<path d="M15.7993 5.33175C16.0467 5.28845 16.5292 5.30082 16.8633 5.56062" stroke="url(#paint68_linear_4002_1304)" stroke-width="0.1" stroke-linecap="round"/>
</g>
<g filter="url(#filter32_f_4002_1304)">
<path d="M12.7965 5.6301C12.9847 5.46375 13.3957 5.28859 13.9052 5.3698" stroke="url(#paint69_linear_4002_1304)" stroke-width="0.1" stroke-linecap="round"/>
</g>
<g filter="url(#filter33_f_4002_1304)">
<path d="M12.2361 4.21179V4.72814C12.2316 4.81364 12.1956 5.00488 12.0876 5.08588" stroke="url(#paint70_linear_4002_1304)" stroke-width="0.25" stroke-linecap="round"/>
</g>
<defs>
<filter id="filter0_ii_4002_1304" x="4.98315" y="16.3356" width="16.9701" height="13.6261" filterUnits="userSpaceOnUse" color-interpolation-filters="sRGB">
<feFlood flood-opacity="0" result="BackgroundImageFix"/>
<feBlend mode="normal" in="SourceGraphic" in2="BackgroundImageFix" result="shape"/>
<feColorMatrix in="SourceAlpha" type="matrix" values="0 0 0 0 0 0 0 0 0 0 0 0 0 0 0 0 0 0 127 0" result="hardAlpha"/>
<feOffset dx="1.25"/>
<feGaussianBlur stdDeviation="1.25"/>
<feComposite in2="hardAlpha" operator="arithmetic" k2="-1" k3="1"/>
<feColorMatrix type="matrix" values="0 0 0 0 0.223529 0 0 0 0 0.623529 0 0 0 0 0.317647 0 0 0 1 0"/>
<feBlend mode="normal" in2="shape" result="effect1_innerShadow_4002_1304"/>
<feColorMatrix in="SourceAlpha" type="matrix" values="0 0 0 0 0 0 0 0 0 0 0 0 0 0 0 0 0 0 127 0" result="hardAlpha"/>
<feOffset dy="-0.25"/>
<feGaussianBlur stdDeviation="0.5"/>
<feComposite in2="hardAlpha" operator="arithmetic" k2="-1" k3="1"/>
<feColorMatrix type="matrix" values="0 0 0 0 0.313726 0 0 0 0 0.576471 0 0 0 0 0.541176 0 0 0 1 0"/>
<feBlend mode="normal" in2="effect1_innerShadow_4002_1304" result="effect2_innerShadow_4002_1304"/>
</filter>
<filter id="filter1_f_4002_1304" x="12.427" y="15.2887" width="8.8027" height="12.4531" filterUnits="userSpaceOnUse" color-interpolation-filters="sRGB">
<feFlood flood-opacity="0" result="BackgroundImageFix"/>
<feBlend mode="normal" in="SourceGraphic" in2="BackgroundImageFix" result="shape"/>
<feGaussianBlur stdDeviation="0.5" result="effect1_foregroundBlur_4002_1304"/>
</filter>
<filter id="filter2_f_4002_1304" x="8.17295" y="25.8744" width="11.112" height="3.61458" filterUnits="userSpaceOnUse" color-interpolation-filters="sRGB">
<feFlood flood-opacity="0" result="BackgroundImageFix"/>
<feBlend mode="normal" in="SourceGraphic" in2="BackgroundImageFix" result="shape"/>
<feGaussianBlur stdDeviation="0.2" result="effect1_foregroundBlur_4002_1304"/>
</filter>
<filter id="filter3_f_4002_1304" x="5.58891" y="23.9047" width="3.29683" height="3.16975" filterUnits="userSpaceOnUse" color-interpolation-filters="sRGB">
<feFlood flood-opacity="0" result="BackgroundImageFix"/>
<feBlend mode="normal" in="SourceGraphic" in2="BackgroundImageFix" result="shape"/>
<feGaussianBlur stdDeviation="0.2" result="effect1_foregroundBlur_4002_1304"/>
</filter>
<filter id="filter4_f_4002_1304" x="8.85069" y="23.386" width="3.08494" height="3.03193" filterUnits="userSpaceOnUse" color-interpolation-filters="sRGB">
<feFlood flood-opacity="0" result="BackgroundImageFix"/>
<feBlend mode="normal" in="SourceGraphic" in2="BackgroundImageFix" result="shape"/>
<feGaussianBlur stdDeviation="0.2" result="effect1_foregroundBlur_4002_1304"/>
</filter>
<filter id="filter5_ii_4002_1304" x="16.5503" y="9.6137" width="8.45312" height="6.37813" filterUnits="userSpaceOnUse" color-interpolation-filters="sRGB">
<feFlood flood-opacity="0" result="BackgroundImageFix"/>
<feBlend mode="normal" in="SourceGraphic" in2="BackgroundImageFix" result="shape"/>
<feColorMatrix in="SourceAlpha" type="matrix" values="0 0 0 0 0 0 0 0 0 0 0 0 0 0 0 0 0 0 127 0" result="hardAlpha"/>
<feOffset dy="-0.8"/>
<feGaussianBlur stdDeviation="0.4"/>
<feComposite in2="hardAlpha" operator="arithmetic" k2="-1" k3="1"/>
<feColorMatrix type="matrix" values="0 0 0 0 0.890196 0 0 0 0 0.662745 0 0 0 0 0.615686 0 0 0 1 0"/>
<feBlend mode="normal" in2="shape" result="effect1_innerShadow_4002_1304"/>
<feColorMatrix in="SourceAlpha" type="matrix" values="0 0 0 0 0 0 0 0 0 0 0 0 0 0 0 0 0 0 127 0" result="hardAlpha"/>
<feOffset dy="-0.2"/>
<feGaussianBlur stdDeviation="0.2"/>
<feComposite in2="hardAlpha" operator="arithmetic" k2="-1" k3="1"/>
<feColorMatrix type="matrix" values="0 0 0 0 0.694118 0 0 0 0 0.517647 0 0 0 0 0.556863 0 0 0 1 0"/>
<feBlend mode="normal" in2="effect1_innerShadow_4002_1304" result="effect2_innerShadow_4002_1304"/>
</filter>
<filter id="filter6_i_4002_1304" x="23.3635" y="9.28333" width="2.96329" height="1.15771" filterUnits="userSpaceOnUse" color-interpolation-filters="sRGB">
<feFlood flood-opacity="0" result="BackgroundImageFix"/>
<feBlend mode="normal" in="SourceGraphic" in2="BackgroundImageFix" result="shape"/>
<feColorMatrix in="SourceAlpha" type="matrix" values="0 0 0 0 0 0 0 0 0 0 0 0 0 0 0 0 0 0 127 0" result="hardAlpha"/>
<feOffset dy="-0.25"/>
<feGaussianBlur stdDeviation="0.2"/>
<feComposite in2="hardAlpha" operator="arithmetic" k2="-1" k3="1"/>
<feColorMatrix type="matrix" values="0 0 0 0 0.870588 0 0 0 0 0.541176 0 0 0 0 0.227451 0 0 0 1 0"/>
<feBlend mode="normal" in2="shape" result="effect1_innerShadow_4002_1304"/>
</filter>
<filter id="filter7_i_4002_1304" x="20.6694" y="1.99973" width="8.43765" height="7.53347" filterUnits="userSpaceOnUse" color-interpolation-filters="sRGB">
<feFlood flood-opacity="0" result="BackgroundImageFix"/>
<feBlend mode="normal" in="SourceGraphic" in2="BackgroundImageFix" result="shape"/>
<feColorMatrix in="SourceAlpha" type="matrix" values="0 0 0 0 0 0 0 0 0 0 0 0 0 0 0 0 0 0 127 0" result="hardAlpha"/>
<feOffset dx="0.1" dy="-0.1"/>
<feGaussianBlur stdDeviation="0.3"/>
<feComposite in2="hardAlpha" operator="arithmetic" k2="-1" k3="1"/>
<feColorMatrix type="matrix" values="0 0 0 0 0.85098 0 0 0 0 0.517647 0 0 0 0 0.34902 0 0 0 1 0"/>
<feBlend mode="normal" in2="shape" result="effect1_innerShadow_4002_1304"/>
</filter>
<filter id="filter8_i_4002_1304" x="24.6897" y="13.0184" width="1.76473" height="3.0125" filterUnits="userSpaceOnUse" color-interpolation-filters="sRGB">
<feFlood flood-opacity="0" result="BackgroundImageFix"/>
<feBlend mode="normal" in="SourceGraphic" in2="BackgroundImageFix" result="shape"/>
<feColorMatrix in="SourceAlpha" type="matrix" values="0 0 0 0 0 0 0 0 0 0 0 0 0 0 0 0 0 0 127 0" result="hardAlpha"/>
<feOffset dx="0.2" dy="-0.2"/>
<feGaussianBlur stdDeviation="0.2"/>
<feComposite in2="hardAlpha" operator="arithmetic" k2="-1" k3="1"/>
<feColorMatrix type="matrix" values="0 0 0 0 0.803922 0 0 0 0 0.572549 0 0 0 0 0.576471 0 0 0 1 0"/>
<feBlend mode="normal" in2="shape" result="effect1_innerShadow_4002_1304"/>
</filter>
<filter id="filter9_i_4002_1304" x="2.99292" y="10.2023" width="10.0533" height="7.20837" filterUnits="userSpaceOnUse" color-interpolation-filters="sRGB">
<feFlood flood-opacity="0" result="BackgroundImageFix"/>
<feBlend mode="normal" in="SourceGraphic" in2="BackgroundImageFix" result="shape"/>
<feColorMatrix in="SourceAlpha" type="matrix" values="0 0 0 0 0 0 0 0 0 0 0 0 0 0 0 0 0 0 127 0" result="hardAlpha"/>
<feOffset dy="-0.25"/>
<feGaussianBlur stdDeviation="0.375"/>
<feComposite in2="hardAlpha" operator="arithmetic" k2="-1" k3="1"/>
<feColorMatrix type="matrix" values="0 0 0 0 0.733333 0 0 0 0 0.517647 0 0 0 0 0.556863 0 0 0 1 0"/>
<feBlend mode="normal" in2="shape" result="effect1_innerShadow_4002_1304"/>
</filter>
<filter id="filter10_f_4002_1304" x="26.7774" y="3.22932" width="2.20939" height="5.70847" filterUnits="userSpaceOnUse" color-interpolation-filters="sRGB">
<feFlood flood-opacity="0" result="BackgroundImageFix"/>
<feBlend mode="normal" in="SourceGraphic" in2="BackgroundImageFix" result="shape"/>
<feGaussianBlur stdDeviation="0.1" result="effect1_foregroundBlur_4002_1304"/>
</filter>
<filter id="filter11_f_4002_1304" x="26.5687" y="2.31245" width="1.75936" height="1.29966" filterUnits="userSpaceOnUse" color-interpolation-filters="sRGB">
<feFlood flood-opacity="0" result="BackgroundImageFix"/>
<feBlend mode="normal" in="SourceGraphic" in2="BackgroundImageFix" result="shape"/>
<feGaussianBlur stdDeviation="0.1" result="effect1_foregroundBlur_4002_1304"/>
</filter>
<filter id="filter12_f_4002_1304" x="24.5722" y="2.0887" width="1.18949" height="1.34531" filterUnits="userSpaceOnUse" color-interpolation-filters="sRGB">
<feFlood flood-opacity="0" result="BackgroundImageFix"/>
<feBlend mode="normal" in="SourceGraphic" in2="BackgroundImageFix" result="shape"/>
<feGaussianBlur stdDeviation="0.1" result="effect1_foregroundBlur_4002_1304"/>
</filter>
<filter id="filter13_f_4002_1304" x="24.6559" y="3.30745" width="2.58582" height="5.95164" filterUnits="userSpaceOnUse" color-interpolation-filters="sRGB">
<feFlood flood-opacity="0" result="BackgroundImageFix"/>
<feBlend mode="normal" in="SourceGraphic" in2="BackgroundImageFix" result="shape"/>
<feGaussianBlur stdDeviation="0.1" result="effect1_foregroundBlur_4002_1304"/>
</filter>
<filter id="filter14_f_4002_1304" x="20.962" y="2.38557" width="2.94837" height="6.85935" filterUnits="userSpaceOnUse" color-interpolation-filters="sRGB">
<feFlood flood-opacity="0" result="BackgroundImageFix"/>
<feBlend mode="normal" in="SourceGraphic" in2="BackgroundImageFix" result="shape"/>
<feGaussianBlur stdDeviation="0.1" result="effect1_foregroundBlur_4002_1304"/>
</filter>
<filter id="filter15_f_4002_1304" x="17.5578" y="11.5449" width="7.30001" height="3.89385" filterUnits="userSpaceOnUse" color-interpolation-filters="sRGB">
<feFlood flood-opacity="0" result="BackgroundImageFix"/>
<feBlend mode="normal" in="SourceGraphic" in2="BackgroundImageFix" result="shape"/>
<feGaussianBlur stdDeviation="0.3" result="effect1_foregroundBlur_4002_1304"/>
</filter>
<filter id="filter16_i_4002_1304" x="11.1521" y="6.01941" width="2.12085" height="1.9209" filterUnits="userSpaceOnUse" color-interpolation-filters="sRGB">
<feFlood flood-opacity="0" result="BackgroundImageFix"/>
<feBlend mode="normal" in="SourceGraphic" in2="BackgroundImageFix" result="shape"/>
<feColorMatrix in="SourceAlpha" type="matrix" values="0 0 0 0 0 0 0 0 0 0 0 0 0 0 0 0 0 0 127 0" result="hardAlpha"/>
<feOffset dx="0.2"/>
<feGaussianBlur stdDeviation="0.15"/>
<feComposite in2="hardAlpha" operator="arithmetic" k2="-1" k3="1"/>
<feColorMatrix type="matrix" values="0 0 0 0 0.917647 0 0 0 0 0.694118 0 0 0 0 0.607843 0 0 0 1 0"/>
<feBlend mode="normal" in2="shape" result="effect1_innerShadow_4002_1304"/>
</filter>
<filter id="filter17_f_4002_1304" x="11.04" y="5.90735" width="2.14481" height="2.14478" filterUnits="userSpaceOnUse" color-interpolation-filters="sRGB">
<feFlood flood-opacity="0" result="BackgroundImageFix"/>
<feBlend mode="normal" in="SourceGraphic" in2="BackgroundImageFix" result="shape"/>
<feGaussianBlur stdDeviation="0.25" result="effect1_foregroundBlur_4002_1304"/>
</filter>
<filter id="filter18_i_4002_1304" x="16.625" y="5.76941" width="2.17085" height="2.1709" filterUnits="userSpaceOnUse" color-interpolation-filters="sRGB">
<feFlood flood-opacity="0" result="BackgroundImageFix"/>
<feBlend mode="normal" in="SourceGraphic" in2="BackgroundImageFix" result="shape"/>
<feColorMatrix in="SourceAlpha" type="matrix" values="0 0 0 0 0 0 0 0 0 0 0 0 0 0 0 0 0 0 127 0" result="hardAlpha"/>
<feOffset dx="0.25" dy="-0.25"/>
<feGaussianBlur stdDeviation="0.25"/>
<feComposite in2="hardAlpha" operator="arithmetic" k2="-1" k3="1"/>
<feColorMatrix type="matrix" values="0 0 0 0 0.843137 0 0 0 0 0.623529 0 0 0 0 0.580392 0 0 0 1 0"/>
<feBlend mode="normal" in2="shape" result="effect1_innerShadow_4002_1304"/>
</filter>
<filter id="filter19_f_4002_1304" x="16.5129" y="5.90735" width="2.14481" height="2.14478" filterUnits="userSpaceOnUse" color-interpolation-filters="sRGB">
<feFlood flood-opacity="0" result="BackgroundImageFix"/>
<feBlend mode="normal" in="SourceGraphic" in2="BackgroundImageFix" result="shape"/>
<feGaussianBlur stdDeviation="0.25" result="effect1_foregroundBlur_4002_1304"/>
</filter>
<filter id="filter20_i_4002_1304" x="11.8765" y="3.74402" width="5.9679" height="7.16956" filterUnits="userSpaceOnUse" color-interpolation-filters="sRGB">
<feFlood flood-opacity="0" result="BackgroundImageFix"/>
<feBlend mode="normal" in="SourceGraphic" in2="BackgroundImageFix" result="shape"/>
<feColorMatrix in="SourceAlpha" type="matrix" values="0 0 0 0 0 0 0 0 0 0 0 0 0 0 0 0 0 0 127 0" result="hardAlpha"/>
<feOffset dy="0.25"/>
<feGaussianBlur stdDeviation="0.375"/>
<feComposite in2="hardAlpha" operator="arithmetic" k2="-1" k3="1"/>
<feColorMatrix type="matrix" values="0 0 0 0 0.819608 0 0 0 0 0.615686 0 0 0 0 0.509804 0 0 0 1 0"/>
<feBlend mode="normal" in2="shape" result="effect1_innerShadow_4002_1304"/>
</filter>
<filter id="filter21_f_4002_1304" x="12.9417" y="1.74402" width="6.44275" height="5.76428" filterUnits="userSpaceOnUse" color-interpolation-filters="sRGB">
<feFlood flood-opacity="0" result="BackgroundImageFix"/>
<feBlend mode="normal" in="SourceGraphic" in2="BackgroundImageFix" result="shape"/>
<feGaussianBlur stdDeviation="1" result="effect1_foregroundBlur_4002_1304"/>
</filter>
<filter id="filter22_i_4002_1304" x="11.219" y="1.53162" width="7.24962" height="5.12744" filterUnits="userSpaceOnUse" color-interpolation-filters="sRGB">
<feFlood flood-opacity="0" result="BackgroundImageFix"/>
<feBlend mode="normal" in="SourceGraphic" in2="BackgroundImageFix" result="shape"/>
<feColorMatrix in="SourceAlpha" type="matrix" values="0 0 0 0 0 0 0 0 0 0 0 0 0 0 0 0 0 0 127 0" result="hardAlpha"/>
<feOffset dy="-0.5"/>
<feGaussianBlur stdDeviation="0.375"/>
<feComposite in2="hardAlpha" operator="arithmetic" k2="-1" k3="1"/>
<feColorMatrix type="matrix" values="0 0 0 0 0.0392157 0 0 0 0 0.00784314 0 0 0 0 0.0196078 0 0 0 1 0"/>
<feBlend mode="normal" in2="shape" result="effect1_innerShadow_4002_1304"/>
</filter>
<filter id="filter23_f_4002_1304" x="13.4502" y="5.99695" width="2.5125" height="3.04248" filterUnits="userSpaceOnUse" color-interpolation-filters="sRGB">
<feFlood flood-opacity="0" result="BackgroundImageFix"/>
<feBlend mode="normal" in="SourceGraphic" in2="BackgroundImageFix" result="shape"/>
<feGaussianBlur stdDeviation="0.375" result="effect1_foregroundBlur_4002_1304"/>
</filter>
<filter id="filter24_f_4002_1304" x="14.204" y="6.5532" width="1.27973" height="1.74248" filterUnits="userSpaceOnUse" color-interpolation-filters="sRGB">
<feFlood flood-opacity="0" result="BackgroundImageFix"/>
<feBlend mode="normal" in="SourceGraphic" in2="BackgroundImageFix" result="shape"/>
<feGaussianBlur stdDeviation="0.05" result="effect1_foregroundBlur_4002_1304"/>
</filter>
<filter id="filter25_i_4002_1304" x="15.5242" y="4.71072" width="1.82036" height="1.24729" filterUnits="userSpaceOnUse" color-interpolation-filters="sRGB">
<feFlood flood-opacity="0" result="BackgroundImageFix"/>
<feBlend mode="normal" in="SourceGraphic" in2="BackgroundImageFix" result="shape"/>
<feColorMatrix in="SourceAlpha" type="matrix" values="0 0 0 0 0 0 0 0 0 0 0 0 0 0 0 0 0 0 127 0" result="hardAlpha"/>
<feOffset dx="0.25" dy="-0.4"/>
<feGaussianBlur stdDeviation="0.3"/>
<feComposite in2="hardAlpha" operator="arithmetic" k2="-1" k3="1"/>
<feColorMatrix type="matrix" values="0 0 0 0 0.0431373 0 0 0 0 0.0196078 0 0 0 0 0.027451 0 0 0 1 0"/>
<feBlend mode="normal" in2="shape" result="effect1_innerShadow_4002_1304"/>
</filter>
<filter id="filter26_i_4002_1304" x="12.5625" y="4.71072" width="1.82045" height="1.24729" filterUnits="userSpaceOnUse" color-interpolation-filters="sRGB">
<feFlood flood-opacity="0" result="BackgroundImageFix"/>
<feBlend mode="normal" in="SourceGraphic" in2="BackgroundImageFix" result="shape"/>
<feColorMatrix in="SourceAlpha" type="matrix" values="0 0 0 0 0 0 0 0 0 0 0 0 0 0 0 0 0 0 127 0" result="hardAlpha"/>
<feOffset dx="0.25" dy="-0.4"/>
<feGaussianBlur stdDeviation="0.3"/>
<feComposite in2="hardAlpha" operator="arithmetic" k2="-1" k3="1"/>
<feColorMatrix type="matrix" values="0 0 0 0 0.0431373 0 0 0 0 0.0196078 0 0 0 0 0.027451 0 0 0 1 0"/>
<feBlend mode="normal" in2="shape" result="effect1_innerShadow_4002_1304"/>
</filter>
<filter id="filter27_f_4002_1304" x="15.6327" y="6.29209" width="0.537524" height="0.485522" filterUnits="userSpaceOnUse" color-interpolation-filters="sRGB">
<feFlood flood-opacity="0" result="BackgroundImageFix"/>
<feBlend mode="normal" in="SourceGraphic" in2="BackgroundImageFix" result="shape"/>
<feGaussianBlur stdDeviation="0.05" result="effect1_foregroundBlur_4002_1304"/>
</filter>
<filter id="filter28_f_4002_1304" x="16.0732" y="6.29255" width="0.682532" height="0.695288" filterUnits="userSpaceOnUse" color-interpolation-filters="sRGB">
<feFlood flood-opacity="0" result="BackgroundImageFix"/>
<feBlend mode="normal" in="SourceGraphic" in2="BackgroundImageFix" result="shape"/>
<feGaussianBlur stdDeviation="0.1" result="effect1_foregroundBlur_4002_1304"/>
</filter>
<filter id="filter29_f_4002_1304" x="13.518" y="6.25618" width="0.737235" height="0.768286" filterUnits="userSpaceOnUse" color-interpolation-filters="sRGB">
<feFlood flood-opacity="0" result="BackgroundImageFix"/>
<feBlend mode="normal" in="SourceGraphic" in2="BackgroundImageFix" result="shape"/>
<feGaussianBlur stdDeviation="0.1" result="effect1_foregroundBlur_4002_1304"/>
</filter>
<filter id="filter30_f_4002_1304" x="13.1262" y="6.28721" width="0.610126" height="0.490161" filterUnits="userSpaceOnUse" color-interpolation-filters="sRGB">
<feFlood flood-opacity="0" result="BackgroundImageFix"/>
<feBlend mode="normal" in="SourceGraphic" in2="BackgroundImageFix" result="shape"/>
<feGaussianBlur stdDeviation="0.05" result="effect1_foregroundBlur_4002_1304"/>
</filter>
<filter id="filter31_f_4002_1304" x="15.5993" y="5.11257" width="1.46396" height="0.648022" filterUnits="userSpaceOnUse" color-interpolation-filters="sRGB">
<feFlood flood-opacity="0" result="BackgroundImageFix"/>
<feBlend mode="normal" in="SourceGraphic" in2="BackgroundImageFix" result="shape"/>
<feGaussianBlur stdDeviation="0.075" result="effect1_foregroundBlur_4002_1304"/>
</filter>
<filter id="filter32_f_4002_1304" x="12.5965" y="5.14932" width="1.50868" height="0.680737" filterUnits="userSpaceOnUse" color-interpolation-filters="sRGB">
<feFlood flood-opacity="0" result="BackgroundImageFix"/>
<feBlend mode="normal" in="SourceGraphic" in2="BackgroundImageFix" result="shape"/>
<feGaussianBlur stdDeviation="0.075" result="effect1_foregroundBlur_4002_1304"/>
</filter>
<filter id="filter33_f_4002_1304" x="11.7126" y="3.83679" width="0.898499" height="1.62415" filterUnits="userSpaceOnUse" color-interpolation-filters="sRGB">
<feFlood flood-opacity="0" result="BackgroundImageFix"/>
<feBlend mode="normal" in="SourceGraphic" in2="BackgroundImageFix" result="shape"/>
<feGaussianBlur stdDeviation="0.125" result="effect1_foregroundBlur_4002_1304"/>
</filter>
<radialGradient id="paint0_radial_4002_1304" cx="0" cy="0" r="1" gradientUnits="userSpaceOnUse" gradientTransform="translate(8.2012 25.1191) rotate(-17.3128) scale(13.0953 16.0195)">
<stop offset="0.80484" stop-color="#4DCD7D" stop-opacity="0"/>
<stop offset="1" stop-color="#4DCD7D"/>
</radialGradient>
<radialGradient id="paint1_radial_4002_1304" cx="0" cy="0" r="1" gradientUnits="userSpaceOnUse" gradientTransform="translate(20.0461 20.6481) rotate(151.837) scale(4.10507 13.4852)">
<stop stop-color="#4EDD83"/>
<stop offset="1" stop-color="#4EDD83" stop-opacity="0"/>
</radialGradient>
<linearGradient id="paint2_linear_4002_1304" x1="9.11185" y1="27.0463" x2="18.219" y2="28.8889" gradientUnits="userSpaceOnUse">
<stop stop-color="#40B87C"/>
<stop offset="1" stop-color="#40B87C" stop-opacity="0"/>
</linearGradient>
<linearGradient id="paint3_linear_4002_1304" x1="7.86215" y1="25.8391" x2="5.54737" y2="25.4667" gradientUnits="userSpaceOnUse">
<stop offset="0.302384" stop-color="#40B87C"/>
<stop offset="1" stop-color="#40B87C" stop-opacity="0"/>
</linearGradient>
<linearGradient id="paint4_linear_4002_1304" x1="11.3568" y1="24.1766" x2="10.8262" y2="26.286" gradientUnits="userSpaceOnUse">
<stop stop-color="#40B87C"/>
<stop offset="1" stop-color="#40B87C" stop-opacity="0"/>
</linearGradient>
<radialGradient id="paint5_radial_4002_1304" cx="0" cy="0" r="1" gradientUnits="userSpaceOnUse" gradientTransform="translate(16.862 11.1296) rotate(30.0544) scale(8.96368 6.21215)">
<stop stop-color="#FEC9B0"/>
<stop offset="1" stop-color="#E9B79E"/>
</radialGradient>
<radialGradient id="paint6_radial_4002_1304" cx="0" cy="0" r="1" gradientUnits="userSpaceOnUse" gradientTransform="translate(17.6921 13.7418) rotate(50.5769) scale(3.29702 1.12892)">
<stop stop-color="#D69585"/>
<stop offset="1" stop-color="#D69585" stop-opacity="0"/>
</radialGradient>
<radialGradient id="paint7_radial_4002_1304" cx="0" cy="0" r="1" gradientUnits="userSpaceOnUse" gradientTransform="translate(24.3952 14.8512) rotate(90) scale(1.92188 0.834953)">
<stop stop-color="#C87C71"/>
<stop offset="1" stop-color="#C28177" stop-opacity="0"/>
<stop offset="1" stop-color="#C87C71" stop-opacity="0"/>
</radialGradient>
<radialGradient id="paint8_radial_4002_1304" cx="0" cy="0" r="1" gradientUnits="userSpaceOnUse" gradientTransform="translate(24.8235 29.9684) rotate(-90) scale(19.5273 1.08984)">
<stop stop-color="#F8A33E"/>
<stop offset="1" stop-color="#E49C45"/>
</radialGradient>
<radialGradient id="paint9_radial_4002_1304" cx="0" cy="0" r="1" gradientUnits="userSpaceOnUse" gradientTransform="translate(24.8235 28.3356) rotate(-90) scale(17.8945 2.43359)">
<stop offset="0.906352" stop-color="#D6803E" stop-opacity="0"/>
<stop offset="1" stop-color="#D6803E"/>
</radialGradient>
<radialGradient id="paint10_radial_4002_1304" cx="0" cy="0" r="1" gradientUnits="userSpaceOnUse" gradientTransform="translate(24.8235 15.8356) rotate(90) scale(2.3125 1.10912)">
<stop stop-color="#D77735"/>
<stop offset="1" stop-color="#D77735" stop-opacity="0"/>
</radialGradient>
<linearGradient id="paint11_linear_4002_1304" x1="25.4172" y1="20.6793" x2="25.1125" y2="20.6793" gradientUnits="userSpaceOnUse">
<stop stop-color="#CC802A"/>
<stop offset="1" stop-color="#E69440" stop-opacity="0"/>
</linearGradient>
<radialGradient id="paint12_radial_4002_1304" cx="0" cy="0" r="1" gradientUnits="userSpaceOnUse" gradientTransform="translate(26.1633 9.88247) rotate(-180) scale(1.31815 1.07813)">
<stop stop-color="#EBAF51"/>
<stop offset="1" stop-color="#EBAF51" stop-opacity="0"/>
</radialGradient>
<radialGradient id="paint13_radial_4002_1304" cx="0" cy="0" r="1" gradientUnits="userSpaceOnUse" gradientTransform="translate(27.9758 3.52301) rotate(108.771) scale(5.04985 5.80366)">
<stop stop-color="#F0B438"/>
<stop offset="1" stop-color="#F0A23F"/>
</radialGradient>
<radialGradient id="paint14_radial_4002_1304" cx="0" cy="0" r="1" gradientUnits="userSpaceOnUse" gradientTransform="translate(23.3508 2.09973) rotate(76.1992) scale(8.38407 5.44597)">
<stop offset="0.195386" stop-color="#EBAD2F"/>
<stop offset="1" stop-color="#EBAD2F" stop-opacity="0"/>
</radialGradient>
<radialGradient id="paint15_radial_4002_1304" cx="0" cy="0" r="1" gradientUnits="userSpaceOnUse" gradientTransform="translate(23.1477 2.39801) rotate(131.689) scale(1.33911 0.857613)">
<stop offset="0.0475156" stop-color="#F1C057"/>
<stop offset="1" stop-color="#F1C057" stop-opacity="0"/>
</radialGradient>
<linearGradient id="paint16_linear_4002_1304" x1="25.4721" y1="13.2184" x2="25.4721" y2="16.0309" gradientUnits="userSpaceOnUse">
<stop stop-color="#F6C7AB"/>
<stop offset="1" stop-color="#DFA89D"/>
</linearGradient>
<radialGradient id="paint17_radial_4002_1304" cx="0" cy="0" r="1" gradientUnits="userSpaceOnUse" gradientTransform="translate(26.2545 15.5192) rotate(-180) scale(1.25757 0.320312)">
<stop stop-color="#FACEB7"/>
<stop offset="1" stop-color="#FACEB7" stop-opacity="0"/>
</radialGradient>
<radialGradient id="paint18_radial_4002_1304" cx="0" cy="0" r="1" gradientUnits="userSpaceOnUse" gradientTransform="translate(26.2545 14.7184) rotate(-180) scale(1.06226 0.270565)">
<stop stop-color="#FACEB7"/>
<stop offset="1" stop-color="#FACEB7" stop-opacity="0"/>
</radialGradient>
<radialGradient id="paint19_radial_4002_1304" cx="0" cy="0" r="1" gradientUnits="userSpaceOnUse" gradientTransform="translate(26.2545 13.9918) rotate(180) scale(0.976318 0.273438)">
<stop stop-color="#FACEB7"/>
<stop offset="1" stop-color="#FACEB7" stop-opacity="0"/>
</radialGradient>
<radialGradient id="paint20_radial_4002_1304" cx="0" cy="0" r="1" gradientUnits="userSpaceOnUse" gradientTransform="translate(26.2545 13.2184) rotate(-180) scale(1.17944 0.289063)">
<stop stop-color="#FACEB7"/>
<stop offset="1" stop-color="#FACEB7" stop-opacity="0"/>
</radialGradient>
<linearGradient id="paint21_linear_4002_1304" x1="24.1946" y1="13.9508" x2="25.7024" y2="13.9508" gradientUnits="userSpaceOnUse">
<stop offset="0.341969" stop-color="#EEBCA2"/>
<stop offset="1" stop-color="#F2BEA2"/>
</linearGradient>
<radialGradient id="paint22_radial_4002_1304" cx="0" cy="0" r="1" gradientUnits="userSpaceOnUse" gradientTransform="translate(23.9421 12.6698) rotate(77.6167) scale(1.31149 1.61926)">
<stop stop-color="#DCA58D"/>
<stop offset="1" stop-color="#DCA58D" stop-opacity="0"/>
</radialGradient>
<radialGradient id="paint23_radial_4002_1304" cx="0" cy="0" r="1" gradientUnits="userSpaceOnUse" gradientTransform="translate(25.6296 13.8434) rotate(-180) scale(0.609375 1)">
<stop stop-color="#FFD1BA"/>
<stop offset="1" stop-color="#FFD1BA" stop-opacity="0"/>
</radialGradient>
<radialGradient id="paint24_radial_4002_1304" cx="0" cy="0" r="1" gradientUnits="userSpaceOnUse" gradientTransform="translate(24.2702 14.4918) rotate(-91.9092) scale(0.938021 0.749063)">
<stop stop-color="#B9746F"/>
<stop offset="1" stop-color="#B9746F" stop-opacity="0"/>
</radialGradient>
<radialGradient id="paint25_radial_4002_1304" cx="0" cy="0" r="1" gradientUnits="userSpaceOnUse" gradientTransform="translate(4.24164 16.7573) rotate(-22.0362) scale(0.707969 1.73078)">
<stop stop-color="#D59583"/>
<stop offset="1" stop-color="#C78065"/>
</radialGradient>
<linearGradient id="paint26_linear_4002_1304" x1="4.02075" y1="16.8589" x2="4.28851" y2="16.8354" gradientUnits="userSpaceOnUse">
<stop stop-color="#EFB9A5"/>
<stop offset="1" stop-color="#D79583" stop-opacity="0"/>
</linearGradient>
<radialGradient id="paint27_radial_4002_1304" cx="0" cy="0" r="1" gradientUnits="userSpaceOnUse" gradientTransform="translate(4.72589 16.2105) rotate(-24.6769) scale(7.63473 2.90408)">
<stop stop-color="#EAB6A4"/>
<stop offset="1" stop-color="#E8B3A0"/>
</radialGradient>
<radialGradient id="paint28_radial_4002_1304" cx="0" cy="0" r="1" gradientUnits="userSpaceOnUse" gradientTransform="translate(12.2571 13.648) rotate(138.102) scale(4.49229 1.70257)">
<stop offset="0.15369" stop-color="#D09084"/>
<stop offset="1" stop-color="#D09084" stop-opacity="0"/>
</radialGradient>
<radialGradient id="paint29_radial_4002_1304" cx="0" cy="0" r="1" gradientUnits="userSpaceOnUse" gradientTransform="translate(13.1062 10.3729) rotate(-179.561) scale(2.03912 1.41902)">
<stop stop-color="#D7987B"/>
<stop offset="1" stop-color="#D7987B" stop-opacity="0"/>
</radialGradient>
<radialGradient id="paint30_radial_4002_1304" cx="0" cy="0" r="1" gradientUnits="userSpaceOnUse" gradientTransform="translate(18.1555 11.748) rotate(84.7691) scale(8.65491 5.44858)">
<stop offset="0.125188" stop-color="#FFCCB3"/>
<stop offset="1" stop-color="#E7B2A1"/>
</radialGradient>
<radialGradient id="paint31_radial_4002_1304" cx="0" cy="0" r="1" gradientUnits="userSpaceOnUse" gradientTransform="translate(11.0084 14.7302) rotate(85.8214) scale(4.96118 2.46819)">
<stop stop-color="#D39B89"/>
<stop offset="1" stop-color="#DFAA99" stop-opacity="0"/>
</radialGradient>
<radialGradient id="paint32_radial_4002_1304" cx="0" cy="0" r="1" gradientUnits="userSpaceOnUse" gradientTransform="translate(13.5202 14.5387) rotate(-21.9385) scale(4.8513 11.5042)">
<stop offset="0.832142" stop-color="#FFC7AD" stop-opacity="0"/>
<stop offset="1" stop-color="#FFC7AD"/>
</radialGradient>
<radialGradient id="paint33_radial_4002_1304" cx="0" cy="0" r="1" gradientUnits="userSpaceOnUse" gradientTransform="translate(15.2546 9.68546) rotate(157.647) scale(3.61542 1.74196)">
<stop offset="0.365335" stop-color="#B46C54"/>
<stop offset="1" stop-color="#CE8B72" stop-opacity="0"/>
</radialGradient>
<linearGradient id="paint34_linear_4002_1304" x1="27.2258" y1="3.67932" x2="28.9758" y2="9.4137" gradientUnits="userSpaceOnUse">
<stop stop-color="#F6C059"/>
<stop offset="1" stop-color="#F6C059" stop-opacity="0"/>
</linearGradient>
<linearGradient id="paint35_linear_4002_1304" x1="27.4368" y1="2.81213" x2="27.0666" y2="3.02814" gradientUnits="userSpaceOnUse">
<stop stop-color="#F6C059"/>
<stop offset="1" stop-color="#F6C059" stop-opacity="0"/>
</linearGradient>
<radialGradient id="paint36_radial_4002_1304" cx="0" cy="0" r="1" gradientUnits="userSpaceOnUse" gradientTransform="translate(25.3039 2.82776) rotate(150.945) scale(0.482608 0.957627)">
<stop offset="0.201258" stop-color="#F2BE56"/>
<stop offset="1" stop-color="#F2BE56" stop-opacity="0"/>
</radialGradient>
<linearGradient id="paint37_linear_4002_1304" x1="25.1699" y1="3.76467" x2="27.7175" y2="13.1346" gradientUnits="userSpaceOnUse">
<stop stop-color="#F6C059"/>
<stop offset="0.765094" stop-color="#F6C059" stop-opacity="0"/>
</linearGradient>
<linearGradient id="paint38_linear_4002_1304" x1="21.5175" y1="3.14615" x2="24.2006" y2="13.6973" gradientUnits="userSpaceOnUse">
<stop stop-color="#F6C059"/>
<stop offset="0.765094" stop-color="#F6C059" stop-opacity="0"/>
</linearGradient>
<radialGradient id="paint39_radial_4002_1304" cx="0" cy="0" r="1" gradientUnits="userSpaceOnUse" gradientTransform="translate(19.114 12.8199) rotate(27.8803) scale(5.47981 2.00568)">
<stop offset="0.257241" stop-color="#FFCFB6"/>
<stop offset="1" stop-color="#FFCFB6" stop-opacity="0"/>
</radialGradient>
<radialGradient id="paint40_radial_4002_1304" cx="0" cy="0" r="1" gradientUnits="userSpaceOnUse" gradientTransform="translate(11.1521 6.97984) scale(1.00956 1.76674)">
<stop offset="0.350532" stop-color="#CF9888"/>
<stop offset="1" stop-color="#BE8C77"/>
</radialGradient>
<linearGradient id="paint41_linear_4002_1304" x1="12.1124" y1="7.14006" x2="11.7439" y2="7.14006" gradientUnits="userSpaceOnUse">
<stop stop-color="#BA7C6B"/>
<stop offset="1" stop-color="#BE8474"/>
</linearGradient>
<linearGradient id="paint42_linear_4002_1304" x1="18.2104" y1="6.35187" x2="17.7395" y2="7.81099" gradientUnits="userSpaceOnUse">
<stop stop-color="#FBD3BD"/>
<stop offset="1" stop-color="#F0B8A4"/>
</linearGradient>
<radialGradient id="paint43_radial_4002_1304" cx="0" cy="0" r="1" gradientUnits="userSpaceOnUse" gradientTransform="translate(17.7995 6.82747) rotate(-36.0604) scale(0.588322 0.671493)">
<stop offset="0.542503" stop-color="#D9AA94"/>
<stop offset="1" stop-color="#D9AA94" stop-opacity="0"/>
</radialGradient>
<radialGradient id="paint44_radial_4002_1304" cx="0" cy="0" r="1" gradientUnits="userSpaceOnUse" gradientTransform="translate(17.5616 7.45222) rotate(-61.4675) scale(0.989133 0.578944)">
<stop offset="0.754913" stop-color="#D6A38D" stop-opacity="0"/>
<stop offset="0.915553" stop-color="#D6A38D"/>
</radialGradient>
<radialGradient id="paint45_radial_4002_1304" cx="0" cy="0" r="1" gradientUnits="userSpaceOnUse" gradientTransform="translate(17.5853 6.97975) rotate(44.7077) scale(0.209886 0.270572)">
<stop stop-color="#D5A58E"/>
<stop offset="1" stop-color="#D5A58E" stop-opacity="0"/>
</radialGradient>
<linearGradient id="paint46_linear_4002_1304" x1="17.1657" y1="7.20381" x2="12.7723" y2="7.8585" gradientUnits="userSpaceOnUse">
<stop stop-color="#FFDABF"/>
<stop offset="1" stop-color="#EAAB97"/>
</linearGradient>
<radialGradient id="paint47_radial_4002_1304" cx="0" cy="0" r="1" gradientUnits="userSpaceOnUse" gradientTransform="translate(14.8604 5.87226) rotate(90) scale(5.42806 7.3683)">
<stop offset="0.556791" stop-color="#D7A09D" stop-opacity="0"/>
<stop offset="1" stop-color="#B07F87"/>
</radialGradient>
<linearGradient id="paint48_linear_4002_1304" x1="11.5978" y1="8.0825" x2="13.5297" y2="8.14799" gradientUnits="userSpaceOnUse">
<stop stop-color="#A58787"/>
<stop offset="1" stop-color="#DEAD9D" stop-opacity="0"/>
</linearGradient>
<linearGradient id="paint49_linear_4002_1304" x1="11.7396" y1="8.75479" x2="12.822" y2="8.71623" gradientUnits="userSpaceOnUse">
<stop stop-color="#E8AD97"/>
<stop offset="1" stop-color="#E8AD97" stop-opacity="0"/>
</linearGradient>
<radialGradient id="paint50_radial_4002_1304" cx="0" cy="0" r="1" gradientUnits="userSpaceOnUse" gradientTransform="translate(16.1935 6.24827) rotate(-90) scale(0.751955 0.925482)">
<stop stop-color="#F5B7A7"/>
<stop offset="1" stop-color="#F5B7A7" stop-opacity="0"/>
</radialGradient>
<radialGradient id="paint51_radial_4002_1304" cx="0" cy="0" r="1" gradientUnits="userSpaceOnUse" gradientTransform="translate(13.5713 6.22899) rotate(-90) scale(0.800157 0.995067)">
<stop stop-color="#D0958D"/>
<stop offset="1" stop-color="#D0958D" stop-opacity="0"/>
</radialGradient>
<linearGradient id="paint52_linear_4002_1304" x1="14.5381" y1="5.48668" x2="19.2233" y2="3.80924" gradientUnits="userSpaceOnUse">
<stop stop-color="#FFDEC4"/>
<stop offset="1" stop-color="#FFDEC4" stop-opacity="0"/>
</linearGradient>
<radialGradient id="paint53_radial_4002_1304" cx="0" cy="0" r="1" gradientUnits="userSpaceOnUse" gradientTransform="translate(17.3435 4.61756) rotate(-74.8989) scale(1.76176 0.653317)">
<stop stop-color="#464344"/>
<stop offset="1" stop-color="#464344" stop-opacity="0"/>
</radialGradient>
<radialGradient id="paint54_radial_4002_1304" cx="0" cy="0" r="1" gradientUnits="userSpaceOnUse" gradientTransform="translate(16.3986 3.60511) rotate(5.25781) scale(2.2097 1.18814)">
<stop offset="0.334886" stop-color="#4A4648"/>
<stop offset="1" stop-color="#4A4648" stop-opacity="0"/>
</radialGradient>
<radialGradient id="paint55_radial_4002_1304" cx="0" cy="0" r="1" gradientUnits="userSpaceOnUse" gradientTransform="translate(14.8438 2.03162) rotate(90) scale(0.966018 1.49609)">
<stop stop-color="#423D3F"/>
<stop offset="1" stop-color="#423D3F" stop-opacity="0"/>
</radialGradient>
<radialGradient id="paint56_radial_4002_1304" cx="0" cy="0" r="1" gradientUnits="userSpaceOnUse" gradientTransform="translate(11.1338 5.954) rotate(-36.2349) scale(2.19244 3.43483)">
<stop stop-color="#463C39"/>
<stop offset="1" stop-color="#463C39" stop-opacity="0"/>
</radialGradient>
<linearGradient id="paint57_linear_4002_1304" x1="14.3467" y1="7.58309" x2="14.8864" y2="7.58309" gradientUnits="userSpaceOnUse">
<stop stop-color="#DFA790"/>
<stop offset="1" stop-color="#DFA790" stop-opacity="0"/>
</linearGradient>
<linearGradient id="paint58_linear_4002_1304" x1="15.3837" y1="7.76863" x2="14.7936" y2="7.76019" gradientUnits="userSpaceOnUse">
<stop stop-color="#FFDFC4"/>
<stop offset="1" stop-color="#FFDFC4" stop-opacity="0"/>
</linearGradient>
<linearGradient id="paint59_linear_4002_1304" x1="14.9557" y1="8.19567" x2="14.9557" y2="7.866" gradientUnits="userSpaceOnUse">
<stop stop-color="#DC9C96"/>
<stop offset="1" stop-color="#DC9C96" stop-opacity="0"/>
</linearGradient>
<radialGradient id="paint60_radial_4002_1304" cx="0" cy="0" r="1" gradientUnits="userSpaceOnUse" gradientTransform="translate(15.0321 7.90405) rotate(90) scale(0.113275 0.363927)">
<stop stop-color="#FFD7C1"/>
<stop offset="1" stop-color="#FFD7C1" stop-opacity="0"/>
</radialGradient>
<linearGradient id="paint61_linear_4002_1304" x1="14.2473" y1="9.12493" x2="14.4976" y2="8.7294" gradientUnits="userSpaceOnUse">
<stop stop-color="#E4B1A2"/>
<stop offset="0.663171" stop-color="#E4B1A2" stop-opacity="0"/>
</linearGradient>
<radialGradient id="paint62_radial_4002_1304" cx="0" cy="0" r="1" gradientUnits="userSpaceOnUse" gradientTransform="translate(16.0975 6.58748) rotate(90) scale(0.466639 0.742242)">
<stop offset="0.80198" stop-color="#7D574A"/>
<stop offset="1" stop-color="#694B43"/>
<stop offset="1" stop-color="#804D49"/>
<stop offset="1" stop-color="#664944"/>
</radialGradient>
<radialGradient id="paint63_radial_4002_1304" cx="0" cy="0" r="1" gradientUnits="userSpaceOnUse" gradientTransform="translate(15.9662 6.63596) rotate(-127.812) scale(0.217576 0.29955)">
<stop offset="0.765532" stop-color="#FFE6E2" stop-opacity="0"/>
<stop offset="0.966159" stop-color="#FFE6E2"/>
</radialGradient>
<linearGradient id="paint64_linear_4002_1304" x1="16.5448" y1="6.61833" x2="16.3643" y2="6.72952" gradientUnits="userSpaceOnUse">
<stop stop-color="#B4948D"/>
<stop offset="1" stop-color="#B4948D" stop-opacity="0"/>
</linearGradient>
<radialGradient id="paint65_radial_4002_1304" cx="0" cy="0" r="1" gradientUnits="userSpaceOnUse" gradientTransform="translate(13.5875 6.58749) rotate(90) scale(0.466663 0.74228)">
<stop offset="0.80198" stop-color="#7D574A"/>
<stop offset="1" stop-color="#694B43"/>
<stop offset="1" stop-color="#804D49"/>
<stop offset="1" stop-color="#664944"/>
</radialGradient>
<linearGradient id="paint66_linear_4002_1304" x1="14.0153" y1="6.61842" x2="13.8348" y2="6.72961" gradientUnits="userSpaceOnUse">
<stop stop-color="#B4948D"/>
<stop offset="1" stop-color="#B4948D" stop-opacity="0"/>
</linearGradient>
<radialGradient id="paint67_radial_4002_1304" cx="0" cy="0" r="1" gradientUnits="userSpaceOnUse" gradientTransform="translate(13.4226 6.71343) rotate(-90.897) scale(0.284212 0.341635)">
<stop offset="0.765532" stop-color="#FFE6E2" stop-opacity="0"/>
<stop offset="0.966159" stop-color="#FFE6E2"/>
</radialGradient>
<linearGradient id="paint68_linear_4002_1304" x1="16.554" y1="5.38742" x2="16.3122" y2="4.89345" gradientUnits="userSpaceOnUse">
<stop stop-color="#353435"/>
<stop offset="1" stop-color="#353435" stop-opacity="0"/>
</linearGradient>
<linearGradient id="paint69_linear_4002_1304" x1="13.5021" y1="5.31396" x2="12.818" y2="5.02705" gradientUnits="userSpaceOnUse">
<stop stop-color="#353435"/>
<stop offset="1" stop-color="#353435" stop-opacity="0"/>
</linearGradient>
<linearGradient id="paint70_linear_4002_1304" x1="12.1619" y1="4.155" x2="12.1619" y2="5.39593" gradientUnits="userSpaceOnUse">
<stop stop-color="#3C393A"/>
<stop offset="1" stop-color="#3C393A" stop-opacity="0"/>
</linearGradient>
</defs>
</svg>
