<svg width="32" height="32" viewBox="0 0 32 32" fill="none" xmlns="http://www.w3.org/2000/svg">
<path d="M4.97002 9.89508L4.78002 9.55508C4.66002 9.33508 4.34002 9.33508 4.21002 9.55508L4.03002 9.89508C4.00002 9.94508 3.96002 9.99508 3.90002 10.0251L3.56002 10.2051C3.34002 10.3351 3.34002 10.6551 3.56002 10.7751L3.90002 10.9651C3.96002 10.9951 4.00002 11.0351 4.03002 11.0951L4.21002 11.4251C4.34002 11.6451 4.66002 11.6451 4.78002 11.4251L4.97002 11.0951C5.00002 11.0351 5.04002 10.9951 5.10002 10.9651L5.44002 10.7751C5.66002 10.6451 5.66002 10.3251 5.44002 10.2051L5.10002 10.0251C5.04002 9.99508 5.00002 9.94508 4.97002 9.89508Z" fill="#212121"/>
<path d="M6.97856 11.9036L6.78856 11.5636C6.66856 11.3436 6.34856 11.3436 6.21856 11.5636L6.03856 11.9036C6.00856 11.9536 5.96856 12.0036 5.90856 12.0336L5.56856 12.2136C5.34856 12.3436 5.34856 12.6636 5.56856 12.7836L5.90856 12.9736C5.96856 13.0036 6.00856 13.0436 6.03856 13.1036L6.21856 13.4336C6.34856 13.6536 6.66856 13.6536 6.78856 13.4336L6.97856 13.1036C7.00856 13.0436 7.04856 13.0036 7.10856 12.9736L7.44856 12.7836C7.66856 12.6536 7.66856 12.3336 7.44856 12.2136L7.10856 12.0336C7.04856 12.0036 7.00856 11.9536 6.97856 11.9036Z" fill="#212121"/>
<path d="M4.78002 14.5727L4.96002 14.9127C5.00002 14.9627 5.04002 15.0127 5.10002 15.0427L5.44002 15.2227C5.66002 15.3427 5.66002 15.6627 5.44002 15.7927L5.10002 15.9827C5.04002 16.0127 5.00002 16.0527 4.97002 16.1127L4.79002 16.4527C4.67002 16.6727 4.35002 16.6727 4.22002 16.4527L4.03002 16.1127C4.00002 16.0527 3.96002 16.0127 3.90002 15.9827L3.56002 15.8027C3.34002 15.6827 3.34002 15.3627 3.56002 15.2327L3.90002 15.0527C3.96002 15.0127 4.00002 14.9627 4.03002 14.9127L4.21002 14.5727C4.34002 14.3527 4.66002 14.3527 4.78002 14.5727Z" fill="#212121"/>
<path d="M6.97247 17.9063L6.79247 17.5663C6.67247 17.3363 6.35247 17.3363 6.22247 17.5663L6.04247 17.9063C6.01247 17.9663 5.96247 18.0063 5.91247 18.0363L5.57247 18.2163C5.35247 18.3463 5.35247 18.6663 5.57247 18.7863L5.91247 18.9663C5.97247 18.9963 6.01247 19.0463 6.04247 19.0963L6.22247 19.4363C6.35247 19.6563 6.67247 19.6563 6.79247 19.4363L6.98247 19.0963C7.01247 19.0363 7.06247 18.9963 7.11247 18.9663L7.44247 18.7863C7.66247 18.6563 7.66247 18.3363 7.44247 18.2163L7.10247 18.0363C7.04247 18.0063 7.00247 17.9563 6.97247 17.9063Z" fill="#212121"/>
<path d="M19.78 20.617L19.96 20.957C19.99 21.007 20.03 21.057 20.09 21.087L20.43 21.267C20.65 21.387 20.65 21.707 20.43 21.837L20.1 22.017C20.05 22.047 20 22.087 19.97 22.147L19.79 22.487C19.67 22.707 19.35 22.707 19.22 22.487L19.04 22.147C19.01 22.097 18.97 22.047 18.91 22.017L18.57 21.837C18.35 21.717 18.35 21.397 18.57 21.267L18.91 21.087C18.96 21.057 19.01 21.017 19.04 20.957L19.22 20.617C19.34 20.387 19.66 20.387 19.78 20.617Z" fill="#212121"/>
<path d="M16.46 24.28L16.28 23.94C16.16 23.71 15.84 23.71 15.71 23.94L15.53 24.28C15.5 24.34 15.45 24.38 15.4 24.41L15.06 24.59C14.84 24.72 14.84 25.04 15.06 25.16L15.4 25.34C15.46 25.37 15.5 25.42 15.53 25.47L15.71 25.81C15.84 26.03 16.16 26.03 16.28 25.81L16.46 25.47C16.49 25.41 16.54 25.37 16.59 25.34L16.93 25.16C17.15 25.03 17.15 24.71 16.93 24.59L16.59 24.41C16.53 24.38 16.49 24.33 16.46 24.28Z" fill="#212121"/>
<path d="M12.78 20.5633L12.96 20.9033C12.99 20.9533 13.03 21.0033 13.09 21.0333L13.43 21.2133C13.65 21.3333 13.65 21.6533 13.43 21.7833L13.09 21.9633C13.04 21.9933 12.99 22.0333 12.96 22.0933L12.78 22.4333C12.66 22.6533 12.34 22.6533 12.21 22.4333L12.03 22.0933C12 22.0433 11.96 22.0033 11.9 21.9733L11.56 21.7933C11.34 21.6733 11.34 21.3533 11.56 21.2233L11.9 21.0433C11.95 21.0133 12 20.9733 12.03 20.9133L12.21 20.5733C12.34 20.3433 12.66 20.3433 12.78 20.5633Z" fill="#212121"/>
<path d="M19.9717 26.917L19.7917 26.577C19.6717 26.357 19.3517 26.357 19.2217 26.577L19.0417 26.917C19.0117 26.977 18.9617 27.017 18.9117 27.047L18.5717 27.227C18.3517 27.357 18.3517 27.677 18.5717 27.797L18.9117 27.977C18.9717 28.007 19.0117 28.057 19.0417 28.107L19.2217 28.447C19.3517 28.667 19.6717 28.667 19.7917 28.447L19.9717 28.107C20.0017 28.047 20.0517 28.007 20.1017 27.977L20.4417 27.797C20.6617 27.667 20.6617 27.347 20.4417 27.227L20.1017 27.047C20.0417 27.017 20.0017 26.967 19.9717 26.917Z" fill="#212121"/>
<path d="M12.78 26.577L12.96 26.917C12.99 26.967 13.03 27.017 13.09 27.047L13.43 27.227C13.65 27.347 13.65 27.667 13.43 27.797L13.09 27.977C13.04 28.007 12.99 28.047 12.96 28.107L12.78 28.447C12.66 28.667 12.34 28.667 12.21 28.447L12.03 28.107C12 28.057 11.96 28.017 11.9 27.987L11.56 27.807C11.34 27.687 11.34 27.367 11.56 27.237L11.9 27.057C11.95 27.027 12 26.987 12.03 26.927L12.21 26.587C12.34 26.357 12.66 26.357 12.78 26.577Z" fill="#212121"/>
<path d="M27.22 9.55471L27.03 9.89471C27 9.94471 26.96 9.99471 26.9 10.0247L26.56 10.2047C26.34 10.3247 26.34 10.6447 26.56 10.7747L26.9 10.9547C26.96 10.9947 27 11.0347 27.03 11.0947L27.21 11.4347C27.33 11.6547 27.65 11.6547 27.78 11.4347L27.96 11.0947C28 11.0347 28.04 10.9947 28.1 10.9647L28.44 10.7847C28.66 10.6647 28.66 10.3447 28.44 10.2147L28.1 10.0247C28.04 9.99471 28 9.94471 27.97 9.89471L27.79 9.55471C27.66 9.33471 27.34 9.33471 27.22 9.55471Z" fill="#212121"/>
<path d="M25.0253 11.8995L25.2153 11.5595C25.3353 11.3395 25.6553 11.3395 25.7853 11.5595L25.9653 11.8995C25.9953 11.9495 26.0353 11.9995 26.0953 12.0295L26.4353 12.2195C26.6553 12.3495 26.6553 12.6695 26.4353 12.7895L26.0953 12.9695C26.0353 12.9995 25.9953 13.0395 25.9553 13.0995L25.7753 13.4395C25.6453 13.6595 25.3253 13.6595 25.2053 13.4395L25.0253 13.0995C24.9953 13.0395 24.9553 12.9995 24.8953 12.9595L24.5553 12.7795C24.3353 12.6495 24.3353 12.3295 24.5553 12.2095L24.8953 12.0295C24.9553 11.9995 24.9953 11.9495 25.0253 11.8995Z" fill="#212121"/>
<path d="M27.22 14.5786L27.04 14.9186C27.01 14.9686 26.97 15.0186 26.91 15.0486L26.57 15.2286C26.35 15.3486 26.35 15.6686 26.57 15.7986L26.91 15.9786C26.96 16.0086 27.01 16.0486 27.04 16.1086L27.22 16.4486C27.34 16.6686 27.66 16.6686 27.79 16.4486L27.97 16.1086C28 16.0586 28.04 16.0086 28.1 15.9786L28.44 15.7986C28.66 15.6786 28.66 15.3586 28.44 15.2286L28.1 15.0486C28.05 15.0186 28 14.9786 27.97 14.9186L27.79 14.5786C27.66 14.3586 27.34 14.3586 27.22 14.5786Z" fill="#212121"/>
<path d="M25.0367 17.9047L25.2167 17.5647C25.3367 17.3347 25.6667 17.3347 25.7867 17.5647L25.9667 17.9047C25.9967 17.9647 26.0467 18.0047 26.0967 18.0347L26.4367 18.2147C26.6567 18.3447 26.6567 18.6647 26.4367 18.7847L26.0967 18.9647C26.0367 18.9947 25.9967 19.0447 25.9667 19.0947L25.7867 19.4347C25.6567 19.6547 25.3367 19.6547 25.2167 19.4347L25.0367 19.0947C25.0067 19.0347 24.9567 18.9947 24.9067 18.9647L24.5667 18.7847C24.3467 18.6547 24.3467 18.3347 24.5667 18.2147L24.9067 18.0347C24.9667 18.0047 25.0067 17.9547 25.0367 17.9047Z" fill="#212121"/>
<path d="M6.65103 5.09154C8.04555 4.36689 9.5833 4 11.14 4H14C14.0219 4 14.0437 4.00072 14.0654 4.00214H17.9346C17.9563 4.00072 17.9781 4 18 4H20.99C22.4712 4 23.9338 4.35907 25.2518 5.06832L25.2541 5.06953L29.4796 7.31713C29.4928 7.32415 29.5058 7.33147 29.5187 7.33907C29.6257 7.40231 29.7242 7.45624 29.8256 7.51176L29.8678 7.53469C30.0456 7.63102 30.343 7.79222 30.5668 8.02729C30.8901 8.3668 31.01 8.77533 31.01 9.2V14.62C31.01 18.7036 27.9507 22.0756 24 22.5681L24 30.2C24 30.4652 23.8946 30.7196 23.7071 30.9071C23.5196 31.0946 23.2652 31.2 23 31.2H9C8.44772 31.2 8 30.7523 8 30.2V22.5135C4.16301 21.9181 1 18.6359 1 14.6V9.09C1 8.49884 1.28311 8.07085 1.5936 7.79093C1.84835 7.56127 2.15674 7.40196 2.33608 7.30931L2.36663 7.29351C2.42701 7.26219 2.47573 7.23688 2.52115 7.2121C2.52848 7.20811 2.53586 7.2042 2.54329 7.20039L6.65103 5.09154ZM11.14 6C9.89759 6 8.6762 6.29269 7.57135 6.86722L7.56672 6.86963L3.4673 8.97418C3.40575 9.00756 3.34423 9.03947 3.29144 9.06685L3.28751 9.06889C3.18255 9.12333 3.10748 9.16261 3.04101 9.20226C3.02546 9.21154 3.01186 9.21999 3 9.22762V14.6C3 17.7916 5.74334 20.4727 9 20.6049V18H8.98999V12H9V11.0061C9 10.3135 10.0111 10.3001 10.0111 11.0061V12H13.756L13.7498 11.9975L15.2189 9.57881L13.0625 6H11.14ZM10.0111 21.6082L10 21.6082V29.2H22V18H10.0111V21.6082ZM23 11.0061V12H23.01V18H23L23 20.63C26.3177 20.63 29.01 17.9377 29.01 14.62V9.34608L29.0082 9.34507C28.9672 9.32187 28.9219 9.2971 28.8656 9.2663L28.8618 9.26419C28.7674 9.21253 28.6506 9.14862 28.5212 9.07268L24.3104 6.83287L24.3059 6.83047C23.2846 6.28052 22.1479 6 20.99 6H18.9173L15.3014 12H22V11.0061C22 10.3001 23 10.3135 23 11.0061ZM14.6043 6.00214L15.9882 8.31213L17.3913 6.00214H14.6043Z" fill="#212121"/>
</svg>
