<svg xmlns="http://www.w3.org/2000/svg" width="32" height="32" fill="none"><path fill="#FFB02E" d="M15.999 29.998c9.334 0 13.999-6.268 13.999-14 0-7.73-4.665-13.998-14-13.998C6.665 2 2 8.268 2 15.999c0 7.731 4.664 13.999 13.999 13.999Z"/><path fill="#fff" d="M10.5 19a4.5 4.5 0 1 0 0-9 4.5 4.5 0 0 0 0 9ZM21.5 19a4.5 4.5 0 1 0 0-9 4.5 4.5 0 0 0 0 9Z"/><path fill="#402A32" d="M8.07 7.988c-.594.562-.952 1.24-1.096 1.67a.5.5 0 1 1-.948-.316c.19-.57.63-1.392 1.355-2.08C8.113 6.567 9.148 6 10.5 6a.5.5 0 0 1 0 1c-1.048 0-1.846.433-2.43.988ZM12 17a2 2 0 1 0 0-4 2 2 0 0 0 0 4ZM20 17a2 2 0 1 0 0-4 2 2 0 0 0 0 4ZM25.026 9.658c-.144-.43-.503-1.108-1.095-1.67C23.346 7.433 22.548 7 21.5 7a.5.5 0 1 1 0-1c1.352 0 2.387.567 3.12 1.262.723.688 1.164 1.51 1.354 2.08a.5.5 0 1 1-.948.316Z"/><path fill="#BB1D80" d="M13.17 22c-.11.313-.17.65-.17 1v2a3 3 0 1 0 6 0v-2c0-.35-.06-.687-.17-1L16 21l-2.83 1Z"/><path fill="#fff" d="M13.17 22a3.001 3.001 0 0 1 5.66 0h-5.66Z"/></svg>