<svg width="32" height="32" viewBox="0 0 32 32" fill="none" xmlns="http://www.w3.org/2000/svg">
<path d="M18.5936 2H29.8054V19H22.1626C19.1976 19 16.8054 16.6078 16.8054 13.6429C16.8054 12.8005 17.0076 12.0088 17.3445 11.3012C17.4624 11.0654 17.4624 10.779 17.3445 10.5431C17.0076 9.81873 16.8054 9.02695 16.8054 8.16779C16.8054 7.04171 17.1408 6.01623 17.7111 5.14156L17.715 5.13545C18.2877 4.25943 18.591 3.23181 18.591 2.18733V2.17049C18.591 2.11345 18.5918 2.05662 18.5936 2Z" fill="#322A2E"/>
<path d="M18.5936 2H29.8054V19H22.1626C19.1976 19 16.8054 16.6078 16.8054 13.6429C16.8054 12.8005 17.0076 12.0088 17.3445 11.3012C17.4624 11.0654 17.4624 10.779 17.3445 10.5431C17.0076 9.81873 16.8054 9.02695 16.8054 8.16779C16.8054 7.04171 17.1408 6.01623 17.7111 5.14156L17.715 5.13545C18.2877 4.25943 18.591 3.23181 18.591 2.18733V2.17049C18.591 2.11345 18.5918 2.05662 18.5936 2Z" fill="url(#paint0_radial_4002_3951)"/>
<path d="M18.5936 2H29.8054V19H22.1626C19.1976 19 16.8054 16.6078 16.8054 13.6429C16.8054 12.8005 17.0076 12.0088 17.3445 11.3012C17.4624 11.0654 17.4624 10.779 17.3445 10.5431C17.0076 9.81873 16.8054 9.02695 16.8054 8.16779C16.8054 7.04171 17.1408 6.01623 17.7111 5.14156L17.715 5.13545C18.2877 4.25943 18.591 3.23181 18.591 2.18733V2.17049C18.591 2.11345 18.5918 2.05662 18.5936 2Z" fill="url(#paint1_radial_4002_3951)"/>
<path d="M18.5936 2H29.8054V19H22.1626C19.1976 19 16.8054 16.6078 16.8054 13.6429C16.8054 12.8005 17.0076 12.0088 17.3445 11.3012C17.4624 11.0654 17.4624 10.779 17.3445 10.5431C17.0076 9.81873 16.8054 9.02695 16.8054 8.16779C16.8054 7.04171 17.1408 6.01623 17.7111 5.14156L17.715 5.13545C18.2877 4.25943 18.591 3.23181 18.591 2.18733V2.17049C18.591 2.11345 18.5918 2.05662 18.5936 2Z" fill="url(#paint2_radial_4002_3951)"/>
<g filter="url(#filter0_i_4002_3951)">
<path d="M21.8054 11C23.3242 11 24.5554 9.76878 24.5554 8.25C24.5554 6.73122 23.3242 5.5 21.8054 5.5C20.2866 5.5 19.0554 6.73122 19.0554 8.25C19.0554 9.76878 20.2866 11 21.8054 11Z" fill="url(#paint3_radial_4002_3951)"/>
</g>
<g filter="url(#filter1_f_4002_3951)">
<path d="M19.4692 8.18132C19.4692 7.4921 19.7668 6.87237 20.2405 6.4436" stroke="#685246" stroke-width="0.15" stroke-linecap="round"/>
</g>
<g filter="url(#filter2_f_4002_3951)">
<path d="M21.8055 9.81494C22.6698 9.81494 23.3705 9.11426 23.3705 8.24994C23.3705 7.38561 22.6698 6.68494 21.8055 6.68494C20.9412 6.68494 20.2405 7.38561 20.2405 8.24994C20.2405 9.11426 20.9412 9.81494 21.8055 9.81494Z" fill="#2F1D21"/>
</g>
<path d="M30.0554 16.84L30.0554 30H12.6722C13.5197 26.9987 15.1374 24.2411 17.3997 22.0188C20.777 18.7014 25.3213 16.8418 30.0554 16.84Z" fill="url(#paint4_radial_4002_3951)"/>
<path d="M30.0554 16.84L30.0554 30H12.6722C13.5197 26.9987 15.1374 24.2411 17.3997 22.0188C20.777 18.7014 25.3213 16.8418 30.0554 16.84Z" fill="url(#paint5_radial_4002_3951)"/>
<path d="M30.0554 12C28.3986 12 27.0554 13.3795 27.0554 15.0811V18.9189C27.0554 20.6205 28.3986 22 30.0554 22V12Z" fill="url(#paint6_linear_4002_3951)"/>
<path d="M30.0554 12C28.3986 12 27.0554 13.3795 27.0554 15.0811V18.9189C27.0554 20.6205 28.3986 22 30.0554 22V12Z" fill="url(#paint7_radial_4002_3951)"/>
<path d="M22.3146 2C21.9372 2.19 21.6188 2.48812 21.396 2.85994C21.1732 3.23177 21.0551 3.66214 21.0554 4.10138V4.2422L21.2825 10.1239C21.3039 11.251 21.5375 12.3624 21.97 13.3943C22.4024 14.4262 23.0251 15.3581 23.8021 16.1364C24.5792 16.9147 25.4953 17.5239 26.4976 17.929C27.5 18.3341 28.5688 18.5272 29.6426 18.4969H30.0554V2H22.3146Z" fill="#462C2D"/>
<path d="M22.3146 2C21.9372 2.19 21.6188 2.48812 21.396 2.85994C21.1732 3.23177 21.0551 3.66214 21.0554 4.10138V4.2422L21.2825 10.1239C21.3039 11.251 21.5375 12.3624 21.97 13.3943C22.4024 14.4262 23.0251 15.3581 23.8021 16.1364C24.5792 16.9147 25.4953 17.5239 26.4976 17.929C27.5 18.3341 28.5688 18.5272 29.6426 18.4969H30.0554V2H22.3146Z" fill="url(#paint8_linear_4002_3951)"/>
<path d="M22.3146 2C21.9372 2.19 21.6188 2.48812 21.396 2.85994C21.1732 3.23177 21.0551 3.66214 21.0554 4.10138V4.2422L21.2825 10.1239C21.3039 11.251 21.5375 12.3624 21.97 13.3943C22.4024 14.4262 23.0251 15.3581 23.8021 16.1364C24.5792 16.9147 25.4953 17.5239 26.4976 17.929C27.5 18.3341 28.5688 18.5272 29.6426 18.4969H30.0554V2H22.3146Z" fill="url(#paint9_radial_4002_3951)"/>
<path d="M22.3146 2C21.9372 2.19 21.6188 2.48812 21.396 2.85994C21.1732 3.23177 21.0551 3.66214 21.0554 4.10138V4.2422L21.2825 10.1239C21.3039 11.251 21.5375 12.3624 21.97 13.3943C22.4024 14.4262 23.0251 15.3581 23.8021 16.1364C24.5792 16.9147 25.4953 17.5239 26.4976 17.929C27.5 18.3341 28.5688 18.5272 29.6426 18.4969H30.0554V2H22.3146Z" fill="url(#paint10_radial_4002_3951)"/>
<path d="M22.3146 2C21.9372 2.19 21.6188 2.48812 21.396 2.85994C21.1732 3.23177 21.0551 3.66214 21.0554 4.10138V4.2422L21.2825 10.1239C21.3039 11.251 21.5375 12.3624 21.97 13.3943C22.4024 14.4262 23.0251 15.3581 23.8021 16.1364C24.5792 16.9147 25.4953 17.5239 26.4976 17.929C27.5 18.3341 28.5688 18.5272 29.6426 18.4969H30.0554V2H22.3146Z" fill="url(#paint11_radial_4002_3951)"/>
<path d="M22.3146 2C21.9372 2.19 21.6188 2.48812 21.396 2.85994C21.1732 3.23177 21.0551 3.66214 21.0554 4.10138V4.2422L21.2825 10.1239C21.3039 11.251 21.5375 12.3624 21.97 13.3943C22.4024 14.4262 23.0251 15.3581 23.8021 16.1364C24.5792 16.9147 25.4953 17.5239 26.4976 17.929C27.5 18.3341 28.5688 18.5272 29.6426 18.4969H30.0554V2H22.3146Z" fill="url(#paint12_radial_4002_3951)"/>
<path d="M19.3285 25.9141L18.8441 26.8359L12.1879 24.3359C12.2399 24.0807 12.4097 23.3422 12.6722 22.4297C12.9347 21.5172 13.516 20.1016 13.8129 19.4766L20.4535 21.6641L21.1898 20.2945C21.6244 19.4862 22.6769 19.255 23.4102 19.8066C24.0693 20.3024 24.204 21.2377 23.6987 21.8896C23.3376 22.3556 22.9392 22.8594 22.5941 23.2734C21.7238 24.3178 20.9535 24.7266 20.2972 25.0234C19.7722 25.2609 19.4327 25.7161 19.3285 25.9141Z" fill="#523132"/>
<path d="M19.3285 25.9141L18.8441 26.8359L12.1879 24.3359C12.2399 24.0807 12.4097 23.3422 12.6722 22.4297C12.9347 21.5172 13.516 20.1016 13.8129 19.4766L20.4535 21.6641L21.1898 20.2945C21.6244 19.4862 22.6769 19.255 23.4102 19.8066C24.0693 20.3024 24.204 21.2377 23.6987 21.8896C23.3376 22.3556 22.9392 22.8594 22.5941 23.2734C21.7238 24.3178 20.9535 24.7266 20.2972 25.0234C19.7722 25.2609 19.4327 25.7161 19.3285 25.9141Z" fill="url(#paint13_radial_4002_3951)"/>
<path d="M19.3285 25.9141L18.8441 26.8359L12.1879 24.3359C12.2399 24.0807 12.4097 23.3422 12.6722 22.4297C12.9347 21.5172 13.516 20.1016 13.8129 19.4766L20.4535 21.6641L21.1898 20.2945C21.6244 19.4862 22.6769 19.255 23.4102 19.8066C24.0693 20.3024 24.204 21.2377 23.6987 21.8896C23.3376 22.3556 22.9392 22.8594 22.5941 23.2734C21.7238 24.3178 20.9535 24.7266 20.2972 25.0234C19.7722 25.2609 19.4327 25.7161 19.3285 25.9141Z" fill="url(#paint14_radial_4002_3951)"/>
<path d="M19.3285 25.9141L18.8441 26.8359L12.1879 24.3359C12.2399 24.0807 12.4097 23.3422 12.6722 22.4297C12.9347 21.5172 13.516 20.1016 13.8129 19.4766L20.4535 21.6641L21.1898 20.2945C21.6244 19.4862 22.6769 19.255 23.4102 19.8066C24.0693 20.3024 24.204 21.2377 23.6987 21.8896C23.3376 22.3556 22.9392 22.8594 22.5941 23.2734C21.7238 24.3178 20.9535 24.7266 20.2972 25.0234C19.7722 25.2609 19.4327 25.7161 19.3285 25.9141Z" fill="url(#paint15_radial_4002_3951)"/>
<path d="M19.3285 25.9141L18.8441 26.8359L12.1879 24.3359C12.2399 24.0807 12.4097 23.3422 12.6722 22.4297C12.9347 21.5172 13.516 20.1016 13.8129 19.4766L20.4535 21.6641L21.1898 20.2945C21.6244 19.4862 22.6769 19.255 23.4102 19.8066C24.0693 20.3024 24.204 21.2377 23.6987 21.8896C23.3376 22.3556 22.9392 22.8594 22.5941 23.2734C21.7238 24.3178 20.9535 24.7266 20.2972 25.0234C19.7722 25.2609 19.4327 25.7161 19.3285 25.9141Z" fill="url(#paint16_radial_4002_3951)"/>
<path d="M19.3285 25.9141L18.8441 26.8359L12.1879 24.3359C12.2399 24.0807 12.4097 23.3422 12.6722 22.4297C12.9347 21.5172 13.516 20.1016 13.8129 19.4766L20.4535 21.6641L21.1898 20.2945C21.6244 19.4862 22.6769 19.255 23.4102 19.8066C24.0693 20.3024 24.204 21.2377 23.6987 21.8896C23.3376 22.3556 22.9392 22.8594 22.5941 23.2734C21.7238 24.3178 20.9535 24.7266 20.2972 25.0234C19.7722 25.2609 19.4327 25.7161 19.3285 25.9141Z" fill="url(#paint17_radial_4002_3951)"/>
<path d="M19.3285 25.9141L18.8441 26.8359L12.1879 24.3359C12.2399 24.0807 12.4097 23.3422 12.6722 22.4297C12.9347 21.5172 13.516 20.1016 13.8129 19.4766L20.4535 21.6641L21.1898 20.2945C21.6244 19.4862 22.6769 19.255 23.4102 19.8066C24.0693 20.3024 24.204 21.2377 23.6987 21.8896C23.3376 22.3556 22.9392 22.8594 22.5941 23.2734C21.7238 24.3178 20.9535 24.7266 20.2972 25.0234C19.7722 25.2609 19.4327 25.7161 19.3285 25.9141Z" fill="url(#paint18_radial_4002_3951)"/>
<rect x="21.3409" y="13.4659" width="2.8588" height="8.14723" rx="1.4294" transform="rotate(25.4088 21.3409 13.4659)" fill="url(#paint19_radial_4002_3951)"/>
<rect x="21.3409" y="13.4659" width="2.8588" height="8.14723" rx="1.4294" transform="rotate(25.4088 21.3409 13.4659)" fill="url(#paint20_radial_4002_3951)"/>
<rect x="21.3409" y="13.4659" width="2.8588" height="8.14723" rx="1.4294" transform="rotate(25.4088 21.3409 13.4659)" fill="url(#paint21_radial_4002_3951)"/>
<path d="M19.5702 17.4636C18.3836 17.2695 17.5599 17.956 17.2738 18.3383L18.501 20.3597C18.4433 21.0923 18.5944 22.6001 19.7207 22.7413C21.1287 22.9177 21.6557 21.6534 21.7159 20.3597C21.7758 19.0746 20.9923 17.6961 19.5702 17.4636Z" fill="url(#paint22_radial_4002_3951)"/>
<path d="M19.5702 17.4636C18.3836 17.2695 17.5599 17.956 17.2738 18.3383L18.501 20.3597C18.4433 21.0923 18.5944 22.6001 19.7207 22.7413C21.1287 22.9177 21.6557 21.6534 21.7159 20.3597C21.7758 19.0746 20.9923 17.6961 19.5702 17.4636Z" fill="url(#paint23_radial_4002_3951)"/>
<path d="M19.5702 17.4636C18.3836 17.2695 17.5599 17.956 17.2738 18.3383L18.501 20.3597C18.4433 21.0923 18.5944 22.6001 19.7207 22.7413C21.1287 22.9177 21.6557 21.6534 21.7159 20.3597C21.7758 19.0746 20.9923 17.6961 19.5702 17.4636Z" fill="url(#paint24_radial_4002_3951)"/>
<path d="M19.5702 17.4636C18.3836 17.2695 17.5599 17.956 17.2738 18.3383L18.501 20.3597C18.4433 21.0923 18.5944 22.6001 19.7207 22.7413C21.1287 22.9177 21.6557 21.6534 21.7159 20.3597C21.7758 19.0746 20.9923 17.6961 19.5702 17.4636Z" fill="url(#paint25_radial_4002_3951)"/>
<path d="M18.1722 17.414C16.941 17.2078 16.0863 17.9375 15.7894 18.3437L17.0629 20.4922C17.003 21.2708 17.1597 22.8734 18.3285 23.0234C19.7894 23.2109 20.3363 21.8672 20.3988 20.4922C20.4609 19.1264 19.648 17.6612 18.1722 17.414Z" fill="url(#paint26_radial_4002_3951)"/>
<path d="M18.1722 17.414C16.941 17.2078 16.0863 17.9375 15.7894 18.3437L17.0629 20.4922C17.003 21.2708 17.1597 22.8734 18.3285 23.0234C19.7894 23.2109 20.3363 21.8672 20.3988 20.4922C20.4609 19.1264 19.648 17.6612 18.1722 17.414Z" fill="url(#paint27_radial_4002_3951)"/>
<path d="M18.1722 17.414C16.941 17.2078 16.0863 17.9375 15.7894 18.3437L17.0629 20.4922C17.003 21.2708 17.1597 22.8734 18.3285 23.0234C19.7894 23.2109 20.3363 21.8672 20.3988 20.4922C20.4609 19.1264 19.648 17.6612 18.1722 17.414Z" fill="url(#paint28_radial_4002_3951)"/>
<path d="M18.1722 17.414C16.941 17.2078 16.0863 17.9375 15.7894 18.3437L17.0629 20.4922C17.003 21.2708 17.1597 22.8734 18.3285 23.0234C19.7894 23.2109 20.3363 21.8672 20.3988 20.4922C20.4609 19.1264 19.648 17.6612 18.1722 17.414Z" fill="url(#paint29_radial_4002_3951)"/>
<path d="M17.9691 21.4101C18.5666 19.8028 17.7641 18.547 16.9066 18.1874C15.8691 17.7523 14.4066 18.1015 13.7582 19.6015L14.0472 20.6171L15.2219 20.1052C15.304 20.0695 15.3887 20.1527 15.3586 20.237C14.7195 22.0259 15.6102 22.3358 16.0004 22.5234C16.2488 22.6428 17.4144 22.9023 17.9691 21.4101Z" fill="url(#paint30_radial_4002_3951)"/>
<path d="M17.9691 21.4101C18.5666 19.8028 17.7641 18.547 16.9066 18.1874C15.8691 17.7523 14.4066 18.1015 13.7582 19.6015L14.0472 20.6171L15.2219 20.1052C15.304 20.0695 15.3887 20.1527 15.3586 20.237C14.7195 22.0259 15.6102 22.3358 16.0004 22.5234C16.2488 22.6428 17.4144 22.9023 17.9691 21.4101Z" fill="url(#paint31_radial_4002_3951)"/>
<g filter="url(#filter3_f_4002_3951)">
<path d="M29.8053 7.43896C29.5204 7.47276 29.3005 7.61865 29.1819 7.92334L28.1849 10.8011C28.1379 10.9319 28.128 11.0702 28.1559 11.2048C28.1838 11.3395 28.2487 11.4668 28.3456 11.5766C28.4425 11.6863 28.5685 11.7756 28.7137 11.8371C28.8589 11.8987 29.0192 11.9309 29.1819 11.9312H29.8053V7.43896Z" fill="url(#paint32_linear_4002_3951)"/>
</g>
<path d="M30.0553 7.3125C29.7704 7.3463 29.5505 7.49219 29.4319 7.79688L28.4349 10.6746C28.3879 10.8055 28.378 10.9437 28.4059 11.0784C28.4338 11.213 28.4987 11.3403 28.5956 11.4501C28.6925 11.5599 28.8185 11.6491 28.9637 11.7107C29.1089 11.7722 29.2692 11.8044 29.4319 11.8047H30.0553L30.0553 7.3125Z" fill="url(#paint33_linear_4002_3951)"/>
<path d="M30.0553 7.3125C29.7704 7.3463 29.5505 7.49219 29.4319 7.79688L28.4349 10.6746C28.3879 10.8055 28.378 10.9437 28.4059 11.0784C28.4338 11.213 28.4987 11.3403 28.5956 11.4501C28.6925 11.5599 28.8185 11.6491 28.9637 11.7107C29.1089 11.7722 29.2692 11.8044 29.4319 11.8047H30.0553L30.0553 7.3125Z" fill="url(#paint34_linear_4002_3951)"/>
<path d="M30.0553 7.3125C29.7704 7.3463 29.5505 7.49219 29.4319 7.79688L28.4349 10.6746C28.3879 10.8055 28.378 10.9437 28.4059 11.0784C28.4338 11.213 28.4987 11.3403 28.5956 11.4501C28.6925 11.5599 28.8185 11.6491 28.9637 11.7107C29.1089 11.7722 29.2692 11.8044 29.4319 11.8047H30.0553L30.0553 7.3125Z" fill="url(#paint35_radial_4002_3951)"/>
<g filter="url(#filter4_f_4002_3951)">
<path d="M30.0554 13.6271C29.9722 13.6309 29.8889 13.6325 29.8054 13.632C28.9806 13.6384 28.1666 13.4311 27.4334 13.0279C27.3825 13.0017 27.325 12.9937 27.2695 13.005C27.214 13.0163 27.1634 13.0464 27.1251 13.0907C27.0868 13.1351 27.0629 13.1914 27.0569 13.2513C27.0509 13.3113 27.0631 13.3717 27.0917 13.4237C27.3847 13.9074 27.7865 14.305 28.2605 14.5804C28.7346 14.8557 29.2657 15 29.8054 15C29.889 15 29.9724 14.9965 30.0554 14.9897V13.6271Z" stroke="url(#paint36_radial_4002_3951)" stroke-width="0.2"/>
</g>
<path d="M30.0554 13.6271C29.9722 13.6309 29.8889 13.6325 29.8054 13.632C28.9806 13.6384 28.1666 13.4311 27.4334 13.0279C27.3825 13.0017 27.325 12.9937 27.2695 13.005C27.214 13.0163 27.1634 13.0464 27.1251 13.0907C27.0868 13.1351 27.0629 13.1914 27.0569 13.2513C27.0509 13.3113 27.0631 13.3717 27.0917 13.4237C27.3847 13.9074 27.7865 14.305 28.2605 14.5804C28.7346 14.8557 29.2657 15 29.8054 15C29.889 15 29.9724 14.9965 30.0554 14.9897V13.6271Z" fill="#2C021A"/>
<g filter="url(#filter5_i_4002_3951)">
<path fill-rule="evenodd" clip-rule="evenodd" d="M26.6309 4.02579C25.7421 3.89523 24.834 4.04557 24.0384 4.45499C23.7938 4.58085 23.4914 4.48867 23.3629 4.2491C23.2344 4.00953 23.3285 3.71329 23.5731 3.58743C24.557 3.0811 25.6801 2.89516 26.7793 3.05663C27.0525 3.09677 27.2408 3.34626 27.1998 3.61388C27.1588 3.88151 26.9041 4.06593 26.6309 4.02579Z" fill="#1F1E1E"/>
</g>
<path d="M18.7027 26.3416L12.7624 23.703C12.51 23.5909 12.2145 23.7046 12.1025 23.9569L11.4854 25.3461C11.3733 25.5984 11.487 25.8939 11.7394 26.006L17.6798 28.6446C17.9321 28.7567 18.2276 28.643 18.3397 28.3906L18.9567 27.0015C19.0688 26.7491 18.9551 26.4537 18.7027 26.3416Z" fill="url(#paint37_linear_4002_3951)"/>
<path d="M18.7027 26.3416L12.7624 23.703C12.51 23.5909 12.2145 23.7046 12.1025 23.9569L11.4854 25.3461C11.3733 25.5984 11.487 25.8939 11.7394 26.006L17.6798 28.6446C17.9321 28.7567 18.2276 28.643 18.3397 28.3906L18.9567 27.0015C19.0688 26.7491 18.9551 26.4537 18.7027 26.3416Z" fill="url(#paint38_linear_4002_3951)"/>
<path d="M18.7027 26.3416L12.7624 23.703C12.51 23.5909 12.2145 23.7046 12.1025 23.9569L11.4854 25.3461C11.3733 25.5984 11.487 25.8939 11.7394 26.006L17.6798 28.6446C17.9321 28.7567 18.2276 28.643 18.3397 28.3906L18.9567 27.0015C19.0688 26.7491 18.9551 26.4537 18.7027 26.3416Z" fill="url(#paint39_radial_4002_3951)"/>
<path d="M18.7027 26.3416L12.7624 23.703C12.51 23.5909 12.2145 23.7046 12.1025 23.9569L11.4854 25.3461C11.3733 25.5984 11.487 25.8939 11.7394 26.006L17.6798 28.6446C17.9321 28.7567 18.2276 28.643 18.3397 28.3906L18.9567 27.0015C19.0688 26.7491 18.9551 26.4537 18.7027 26.3416Z" fill="url(#paint40_linear_4002_3951)"/>
<path d="M18.7027 26.3416L12.7624 23.703C12.51 23.5909 12.2145 23.7046 12.1025 23.9569L11.4854 25.3461C11.3733 25.5984 11.487 25.8939 11.7394 26.006L17.6798 28.6446C17.9321 28.7567 18.2276 28.643 18.3397 28.3906L18.9567 27.0015C19.0688 26.7491 18.9551 26.4537 18.7027 26.3416Z" fill="url(#paint41_radial_4002_3951)"/>
<path d="M18.7027 26.3416L12.7624 23.703C12.51 23.5909 12.2145 23.7046 12.1025 23.9569L11.4854 25.3461C11.3733 25.5984 11.487 25.8939 11.7394 26.006L17.6798 28.6446C17.9321 28.7567 18.2276 28.643 18.3397 28.3906L18.9567 27.0015C19.0688 26.7491 18.9551 26.4537 18.7027 26.3416Z" fill="url(#paint42_radial_4002_3951)"/>
<path d="M18.9291 30H8.09814L9.85753 25.9442C10.0272 25.5592 10.3398 25.2581 10.7273 25.1066C11.1148 24.9551 11.5455 24.9654 11.9255 25.1354L18.1292 27.9082C18.5063 28.0827 18.801 28.4005 18.9498 28.7933C19.0976 29.1831 19.0901 29.6159 18.9291 30Z" fill="url(#paint43_linear_4002_3951)"/>
<path d="M18.9291 30H8.09814L9.85753 25.9442C10.0272 25.5592 10.3398 25.2581 10.7273 25.1066C11.1148 24.9551 11.5455 24.9654 11.9255 25.1354L18.1292 27.9082C18.5063 28.0827 18.801 28.4005 18.9498 28.7933C19.0976 29.1831 19.0901 29.6159 18.9291 30Z" fill="url(#paint44_linear_4002_3951)"/>
<path d="M18.9291 30H8.09814L9.85753 25.9442C10.0272 25.5592 10.3398 25.2581 10.7273 25.1066C11.1148 24.9551 11.5455 24.9654 11.9255 25.1354L18.1292 27.9082C18.5063 28.0827 18.801 28.4005 18.9498 28.7933C19.0976 29.1831 19.0901 29.6159 18.9291 30Z" fill="url(#paint45_radial_4002_3951)"/>
<path d="M18.9291 30H8.09814L9.85753 25.9442C10.0272 25.5592 10.3398 25.2581 10.7273 25.1066C11.1148 24.9551 11.5455 24.9654 11.9255 25.1354L18.1292 27.9082C18.5063 28.0827 18.801 28.4005 18.9498 28.7933C19.0976 29.1831 19.0901 29.6159 18.9291 30Z" fill="url(#paint46_radial_4002_3951)"/>
<path d="M18.9291 30H8.09814L9.85753 25.9442C10.0272 25.5592 10.3398 25.2581 10.7273 25.1066C11.1148 24.9551 11.5455 24.9654 11.9255 25.1354L18.1292 27.9082C18.5063 28.0827 18.801 28.4005 18.9498 28.7933C19.0976 29.1831 19.0901 29.6159 18.9291 30Z" fill="url(#paint47_radial_4002_3951)"/>
<g filter="url(#filter6_ii_4002_3951)">
<path fill-rule="evenodd" clip-rule="evenodd" d="M14.6769 8.86604C15.1436 8.81518 15.5632 9.15228 15.614 9.61896C15.7462 10.8321 16.268 11.9698 17.1013 12.8614C17.4218 13.2044 17.4036 13.7423 17.0606 14.0628C16.7177 14.3833 16.1798 14.3651 15.8592 14.0221C14.775 12.862 14.096 11.3817 13.924 9.80311C13.8732 9.33643 14.2103 8.91689 14.6769 8.86604Z" fill="url(#paint48_radial_4002_3951)"/>
</g>
<g filter="url(#filter7_ii_4002_3951)">
<path fill-rule="evenodd" clip-rule="evenodd" d="M11.776 9.3463C12.2423 9.29231 12.6641 9.62657 12.7181 10.0929C12.9251 11.8807 13.7264 13.3916 14.9375 14.8008C15.2434 15.1568 15.2029 15.6935 14.8468 15.9995C14.4908 16.3054 13.9541 16.2648 13.6482 15.9088C12.2811 14.3181 11.2855 12.5008 11.0294 10.2884C10.9754 9.82208 11.3097 9.40028 11.776 9.3463Z" fill="url(#paint49_radial_4002_3951)"/>
</g>
<g filter="url(#filter8_f_4002_3951)">
<path d="M12.1438 10.0316C12.2637 11.0734 12.9925 13.5213 14.5799 15.1782" stroke="#D4D2DD" stroke-width="0.5" stroke-linecap="round"/>
</g>
<g filter="url(#filter9_f_4002_3951)">
<path d="M15.011 9.63135C15.1542 10.4621 15.6813 12.347 16.6438 13.2407" stroke="#D4D2DD" stroke-width="0.5" stroke-linecap="round"/>
</g>
<path d="M23.2186 6.80463C23.2248 7.14838 23.5337 7.31244 23.6873 7.3515H25.6795L27.8436 6.64057C26.5373 5.11557 24.6899 5.57807 23.9295 5.99994C23.6899 6.12494 23.2123 6.46088 23.2186 6.80463Z" fill="url(#paint50_radial_4002_3951)"/>
<path d="M25.8853 5.68372C24.7225 5.68372 23.7402 6.48545 23.4729 7.56888C23.3935 7.87946 23.6318 8.1756 23.9496 8.1756H27.9222C28.175 8.1756 28.3772 7.94446 28.3267 7.69167C28.1028 6.55046 27.0916 5.68372 25.8853 5.68372Z" fill="white"/>
<path d="M26.2537 6.1676C25.3725 6.1676 24.6647 6.88266 24.6647 7.75663C24.6647 7.90108 24.6863 8.04554 24.7225 8.17555H27.7922C27.8283 8.03832 27.8499 7.90108 27.8499 7.75663C27.8427 6.88266 27.1349 6.1676 26.2537 6.1676Z" fill="url(#paint51_radial_4002_3951)"/>
<path d="M27.1637 7.75664C27.1637 7.25104 26.7592 6.84656 26.2536 6.84656C25.748 6.84656 25.3435 7.25104 25.3435 7.75664C25.3435 7.90832 25.3796 8.05277 25.4446 8.17556H27.0553C27.1203 8.05277 27.1637 7.90832 27.1637 7.75664Z" fill="black"/>
<g filter="url(#filter10_f_4002_3951)">
<path d="M27.7053 7.57C27.7053 7.0565 27.2877 6.71417 27.1749 6.61072L26.6614 7.10729L26.9774 7.75057L27.7053 7.57Z" fill="url(#paint52_linear_4002_3951)"/>
</g>
<g filter="url(#filter11_f_4002_3951)">
<path d="M26.3434 6.62682C26.4343 6.79831 26.3889 7.0071 25.9933 7.03977C25.8871 7.04854 25.7943 7.11318 25.7344 7.2013C25.5694 7.44415 25.3518 7.36408 25.2641 7.19861C25.1611 7.00417 25.3192 6.71856 25.6173 6.56066C25.9153 6.40277 26.2404 6.43239 26.3434 6.62682Z" fill="url(#paint53_radial_4002_3951)" fill-opacity="0.9"/>
<path d="M26.3434 6.62682C26.4343 6.79831 26.3889 7.0071 25.9933 7.03977C25.8871 7.04854 25.7943 7.11318 25.7344 7.2013C25.5694 7.44415 25.3518 7.36408 25.2641 7.19861C25.1611 7.00417 25.3192 6.71856 25.6173 6.56066C25.9153 6.40277 26.2404 6.43239 26.3434 6.62682Z" fill="url(#paint54_radial_4002_3951)"/>
</g>
<g filter="url(#filter12_f_4002_3951)">
<path d="M23.793 4C24.2695 3.76562 25.2852 3.29687 26.7773 3.49999" stroke="url(#paint55_linear_4002_3951)" stroke-width="0.25" stroke-linecap="round"/>
</g>
<g filter="url(#filter13_f_4002_3951)">
<path d="M15.967 18.7231C15.0374 18.7231 14.1686 19.2685 13.1936 23.1685" stroke="url(#paint56_linear_4002_3951)" stroke-width="0.35" stroke-linecap="round"/>
</g>
<defs>
<filter id="filter0_i_4002_3951" x="19.0554" y="5.25" width="5.5" height="5.75" filterUnits="userSpaceOnUse" color-interpolation-filters="sRGB">
<feFlood flood-opacity="0" result="BackgroundImageFix"/>
<feBlend mode="normal" in="SourceGraphic" in2="BackgroundImageFix" result="shape"/>
<feColorMatrix in="SourceAlpha" type="matrix" values="0 0 0 0 0 0 0 0 0 0 0 0 0 0 0 0 0 0 127 0" result="hardAlpha"/>
<feOffset dy="-0.25"/>
<feGaussianBlur stdDeviation="0.25"/>
<feComposite in2="hardAlpha" operator="arithmetic" k2="-1" k3="1"/>
<feColorMatrix type="matrix" values="0 0 0 0 0.231373 0 0 0 0 0.109804 0 0 0 0 0.176471 0 0 0 1 0"/>
<feBlend mode="normal" in2="shape" result="effect1_innerShadow_4002_3951"/>
</filter>
<filter id="filter1_f_4002_3951" x="19.1443" y="6.11865" width="1.42114" height="2.3877" filterUnits="userSpaceOnUse" color-interpolation-filters="sRGB">
<feFlood flood-opacity="0" result="BackgroundImageFix"/>
<feBlend mode="normal" in="SourceGraphic" in2="BackgroundImageFix" result="shape"/>
<feGaussianBlur stdDeviation="0.125" result="effect1_foregroundBlur_4002_3951"/>
</filter>
<filter id="filter2_f_4002_3951" x="19.7405" y="6.18494" width="4.13" height="4.13" filterUnits="userSpaceOnUse" color-interpolation-filters="sRGB">
<feFlood flood-opacity="0" result="BackgroundImageFix"/>
<feBlend mode="normal" in="SourceGraphic" in2="BackgroundImageFix" result="shape"/>
<feGaussianBlur stdDeviation="0.25" result="effect1_foregroundBlur_4002_3951"/>
</filter>
<filter id="filter3_f_4002_3951" x="27.6404" y="6.93896" width="2.66492" height="5.49219" filterUnits="userSpaceOnUse" color-interpolation-filters="sRGB">
<feFlood flood-opacity="0" result="BackgroundImageFix"/>
<feBlend mode="normal" in="SourceGraphic" in2="BackgroundImageFix" result="shape"/>
<feGaussianBlur stdDeviation="0.25" result="effect1_foregroundBlur_4002_3951"/>
</filter>
<filter id="filter4_f_4002_3951" x="26.8554" y="12.8" width="3.39995" height="2.39995" filterUnits="userSpaceOnUse" color-interpolation-filters="sRGB">
<feFlood flood-opacity="0" result="BackgroundImageFix"/>
<feBlend mode="normal" in="SourceGraphic" in2="BackgroundImageFix" result="shape"/>
<feGaussianBlur stdDeviation="0.05" result="effect1_foregroundBlur_4002_3951"/>
</filter>
<filter id="filter5_i_4002_3951" x="23.3054" y="2.75" width="4.05002" height="1.76135" filterUnits="userSpaceOnUse" color-interpolation-filters="sRGB">
<feFlood flood-opacity="0" result="BackgroundImageFix"/>
<feBlend mode="normal" in="SourceGraphic" in2="BackgroundImageFix" result="shape"/>
<feColorMatrix in="SourceAlpha" type="matrix" values="0 0 0 0 0 0 0 0 0 0 0 0 0 0 0 0 0 0 127 0" result="hardAlpha"/>
<feOffset dx="0.15" dy="-0.25"/>
<feGaussianBlur stdDeviation="0.2"/>
<feComposite in2="hardAlpha" operator="arithmetic" k2="-1" k3="1"/>
<feColorMatrix type="matrix" values="0 0 0 0 0.0666667 0 0 0 0 0.0313726 0 0 0 0 0.0901961 0 0 0 1 0"/>
<feBlend mode="normal" in2="shape" result="effect1_innerShadow_4002_3951"/>
</filter>
<filter id="filter6_ii_4002_3951" x="13.8189" y="8.76096" width="3.71138" height="5.58079" filterUnits="userSpaceOnUse" color-interpolation-filters="sRGB">
<feFlood flood-opacity="0" result="BackgroundImageFix"/>
<feBlend mode="normal" in="SourceGraphic" in2="BackgroundImageFix" result="shape"/>
<feColorMatrix in="SourceAlpha" type="matrix" values="0 0 0 0 0 0 0 0 0 0 0 0 0 0 0 0 0 0 127 0" result="hardAlpha"/>
<feOffset dx="0.2" dy="-0.1"/>
<feGaussianBlur stdDeviation="0.3"/>
<feComposite in2="hardAlpha" operator="arithmetic" k2="-1" k3="1"/>
<feColorMatrix type="matrix" values="0 0 0 0 0.427451 0 0 0 0 0.380392 0 0 0 0 0.478431 0 0 0 1 0"/>
<feBlend mode="normal" in2="shape" result="effect1_innerShadow_4002_3951"/>
<feColorMatrix in="SourceAlpha" type="matrix" values="0 0 0 0 0 0 0 0 0 0 0 0 0 0 0 0 0 0 127 0" result="hardAlpha"/>
<feOffset dx="-0.1" dy="0.05"/>
<feGaussianBlur stdDeviation="0.15"/>
<feComposite in2="hardAlpha" operator="arithmetic" k2="-1" k3="1"/>
<feColorMatrix type="matrix" values="0 0 0 0 0.678431 0 0 0 0 0.678431 0 0 0 0 0.694118 0 0 0 1 0"/>
<feBlend mode="normal" in2="effect1_innerShadow_4002_3951" result="effect2_innerShadow_4002_3951"/>
</filter>
<filter id="filter7_ii_4002_3951" x="10.9237" y="9.24058" width="4.41914" height="7.01426" filterUnits="userSpaceOnUse" color-interpolation-filters="sRGB">
<feFlood flood-opacity="0" result="BackgroundImageFix"/>
<feBlend mode="normal" in="SourceGraphic" in2="BackgroundImageFix" result="shape"/>
<feColorMatrix in="SourceAlpha" type="matrix" values="0 0 0 0 0 0 0 0 0 0 0 0 0 0 0 0 0 0 127 0" result="hardAlpha"/>
<feOffset dx="0.2" dy="-0.1"/>
<feGaussianBlur stdDeviation="0.3"/>
<feComposite in2="hardAlpha" operator="arithmetic" k2="-1" k3="1"/>
<feColorMatrix type="matrix" values="0 0 0 0 0.427451 0 0 0 0 0.380392 0 0 0 0 0.478431 0 0 0 1 0"/>
<feBlend mode="normal" in2="shape" result="effect1_innerShadow_4002_3951"/>
<feColorMatrix in="SourceAlpha" type="matrix" values="0 0 0 0 0 0 0 0 0 0 0 0 0 0 0 0 0 0 127 0" result="hardAlpha"/>
<feOffset dx="-0.1" dy="0.05"/>
<feGaussianBlur stdDeviation="0.15"/>
<feComposite in2="hardAlpha" operator="arithmetic" k2="-1" k3="1"/>
<feColorMatrix type="matrix" values="0 0 0 0 0.678431 0 0 0 0 0.678431 0 0 0 0 0.694118 0 0 0 1 0"/>
<feBlend mode="normal" in2="effect1_innerShadow_4002_3951" result="effect2_innerShadow_4002_3951"/>
</filter>
<filter id="filter8_f_4002_3951" x="11.3938" y="9.28162" width="3.93616" height="6.64661" filterUnits="userSpaceOnUse" color-interpolation-filters="sRGB">
<feFlood flood-opacity="0" result="BackgroundImageFix"/>
<feBlend mode="normal" in="SourceGraphic" in2="BackgroundImageFix" result="shape"/>
<feGaussianBlur stdDeviation="0.25" result="effect1_foregroundBlur_4002_3951"/>
</filter>
<filter id="filter9_f_4002_3951" x="14.261" y="8.88135" width="3.13281" height="5.10938" filterUnits="userSpaceOnUse" color-interpolation-filters="sRGB">
<feFlood flood-opacity="0" result="BackgroundImageFix"/>
<feBlend mode="normal" in="SourceGraphic" in2="BackgroundImageFix" result="shape"/>
<feGaussianBlur stdDeviation="0.25" result="effect1_foregroundBlur_4002_3951"/>
</filter>
<filter id="filter10_f_4002_3951" x="26.4614" y="6.41072" width="1.44395" height="1.53989" filterUnits="userSpaceOnUse" color-interpolation-filters="sRGB">
<feFlood flood-opacity="0" result="BackgroundImageFix"/>
<feBlend mode="normal" in="SourceGraphic" in2="BackgroundImageFix" result="shape"/>
<feGaussianBlur stdDeviation="0.1" result="effect1_foregroundBlur_4002_3951"/>
</filter>
<filter id="filter11_f_4002_3951" x="25.1327" y="6.35923" width="1.35039" height="1.09539" filterUnits="userSpaceOnUse" color-interpolation-filters="sRGB">
<feFlood flood-opacity="0" result="BackgroundImageFix"/>
<feBlend mode="normal" in="SourceGraphic" in2="BackgroundImageFix" result="shape"/>
<feGaussianBlur stdDeviation="0.05" result="effect1_foregroundBlur_4002_3951"/>
</filter>
<filter id="filter12_f_4002_3951" x="23.418" y="3.0752" width="3.73438" height="1.2998" filterUnits="userSpaceOnUse" color-interpolation-filters="sRGB">
<feFlood flood-opacity="0" result="BackgroundImageFix"/>
<feBlend mode="normal" in="SourceGraphic" in2="BackgroundImageFix" result="shape"/>
<feGaussianBlur stdDeviation="0.125" result="effect1_foregroundBlur_4002_3951"/>
</filter>
<filter id="filter13_f_4002_3951" x="12.5186" y="18.0481" width="4.12354" height="5.79541" filterUnits="userSpaceOnUse" color-interpolation-filters="sRGB">
<feFlood flood-opacity="0" result="BackgroundImageFix"/>
<feBlend mode="normal" in="SourceGraphic" in2="BackgroundImageFix" result="shape"/>
<feGaussianBlur stdDeviation="0.25" result="effect1_foregroundBlur_4002_3951"/>
</filter>
<radialGradient id="paint0_radial_4002_3951" cx="0" cy="0" r="1" gradientUnits="userSpaceOnUse" gradientTransform="translate(26.9024 13.6953) rotate(138.425) scale(10.949 12.1957)">
<stop offset="0.390646" stop-color="#1C0E25"/>
<stop offset="1" stop-color="#1C0E25" stop-opacity="0"/>
</radialGradient>
<radialGradient id="paint1_radial_4002_3951" cx="0" cy="0" r="1" gradientUnits="userSpaceOnUse" gradientTransform="translate(22.1339 3.7983) rotate(97.9975) scale(3.12067 2.7251)">
<stop offset="0.368266" stop-color="#0B030A"/>
<stop offset="1" stop-color="#0B030A" stop-opacity="0"/>
</radialGradient>
<radialGradient id="paint2_radial_4002_3951" cx="0" cy="0" r="1" gradientUnits="userSpaceOnUse" gradientTransform="translate(18.3437 2) rotate(24.4096) scale(2.45184 10.7504)">
<stop offset="0.230673" stop-color="#555151"/>
<stop offset="1" stop-color="#555151" stop-opacity="0"/>
</radialGradient>
<radialGradient id="paint3_radial_4002_3951" cx="0" cy="0" r="1" gradientUnits="userSpaceOnUse" gradientTransform="translate(19.6492 7.02818) rotate(46.3447) scale(4.70798 5.47836)">
<stop stop-color="#47302C"/>
<stop offset="1" stop-color="#2F1C20"/>
</radialGradient>
<radialGradient id="paint4_radial_4002_3951" cx="0" cy="0" r="1" gradientUnits="userSpaceOnUse" gradientTransform="translate(28.6804 21.6532) rotate(142.035) scale(10.4644 9.67005)">
<stop stop-color="#7E62B9"/>
<stop offset="0.744595" stop-color="#765DAD"/>
</radialGradient>
<radialGradient id="paint5_radial_4002_3951" cx="0" cy="0" r="1" gradientUnits="userSpaceOnUse" gradientTransform="translate(27.6524 17.1953) rotate(161.749) scale(9.00525 4.90279)">
<stop stop-color="#50366C"/>
<stop offset="1" stop-color="#50366C" stop-opacity="0"/>
</radialGradient>
<linearGradient id="paint6_linear_4002_3951" x1="30.0643" y1="18.299" x2="30.0643" y2="22" gradientUnits="userSpaceOnUse">
<stop stop-color="#412333"/>
<stop offset="1" stop-color="#4C2741"/>
</linearGradient>
<radialGradient id="paint7_radial_4002_3951" cx="0" cy="0" r="1" gradientUnits="userSpaceOnUse" gradientTransform="translate(27.5867 17.9772) rotate(90) scale(2.80525 0.67168)">
<stop offset="0.279817" stop-color="#503D41"/>
<stop offset="1" stop-color="#503D41" stop-opacity="0"/>
</radialGradient>
<linearGradient id="paint8_linear_4002_3951" x1="21.0554" y1="9.38365" x2="23.6948" y2="9.2241" gradientUnits="userSpaceOnUse">
<stop offset="0.27763" stop-color="#4E332F"/>
<stop offset="1" stop-color="#4E332F" stop-opacity="0"/>
</linearGradient>
<radialGradient id="paint9_radial_4002_3951" cx="0" cy="0" r="1" gradientUnits="userSpaceOnUse" gradientTransform="translate(29.1869 8.19833) rotate(90) scale(10.6679 11.8137)">
<stop offset="0.418519" stop-color="#391E2F" stop-opacity="0"/>
<stop offset="1" stop-color="#411C47"/>
</radialGradient>
<radialGradient id="paint10_radial_4002_3951" cx="0" cy="0" r="1" gradientUnits="userSpaceOnUse" gradientTransform="translate(30.2656 8.5452) rotate(119.105) scale(10.4079 12.0481)">
<stop offset="0.93812" stop-color="#452647" stop-opacity="0"/>
<stop offset="1" stop-color="#452844"/>
</radialGradient>
<radialGradient id="paint11_radial_4002_3951" cx="0" cy="0" r="1" gradientUnits="userSpaceOnUse" gradientTransform="translate(26.0068 5.6702) rotate(-90) scale(2.61637 3.38383)">
<stop offset="0.209877" stop-color="#381E22"/>
<stop offset="1" stop-color="#381E22" stop-opacity="0"/>
</radialGradient>
<radialGradient id="paint12_radial_4002_3951" cx="0" cy="0" r="1" gradientUnits="userSpaceOnUse" gradientTransform="translate(21.9219 2.4202) rotate(45) scale(3.27037 9.2039)">
<stop offset="0.133975" stop-color="#5E483F"/>
<stop offset="1" stop-color="#5E483F" stop-opacity="0"/>
</radialGradient>
<radialGradient id="paint13_radial_4002_3951" cx="0" cy="0" r="1" gradientUnits="userSpaceOnUse" gradientTransform="translate(18.3129 21.6641) rotate(98.3659) scale(3.22178 3.3991)">
<stop offset="0.440452" stop-color="#472F30"/>
<stop offset="1" stop-color="#472F30" stop-opacity="0"/>
</radialGradient>
<radialGradient id="paint14_radial_4002_3951" cx="0" cy="0" r="1" gradientUnits="userSpaceOnUse" gradientTransform="translate(23.8308 20.1936) rotate(146.31) scale(2.74459 0.736453)">
<stop offset="0.247321" stop-color="#695655"/>
<stop offset="1" stop-color="#695655" stop-opacity="0"/>
</radialGradient>
<radialGradient id="paint15_radial_4002_3951" cx="0" cy="0" r="1" gradientUnits="userSpaceOnUse" gradientTransform="translate(13.5004 22.6328) rotate(6.97055) scale(4.31313 6.02121)">
<stop offset="0.0208334" stop-color="#43272A"/>
<stop offset="1" stop-color="#43272A" stop-opacity="0"/>
</radialGradient>
<radialGradient id="paint16_radial_4002_3951" cx="0" cy="0" r="1" gradientUnits="userSpaceOnUse" gradientTransform="translate(16.5629 20.8984) rotate(116.167) scale(2.51564 1.96559)">
<stop offset="0.654656" stop-color="#381624"/>
<stop offset="1" stop-color="#381624" stop-opacity="0"/>
</radialGradient>
<radialGradient id="paint17_radial_4002_3951" cx="0" cy="0" r="1" gradientUnits="userSpaceOnUse" gradientTransform="translate(18.016 21.6328) rotate(105.479) scale(2.1077 1.97052)">
<stop offset="0.504955" stop-color="#381624"/>
<stop offset="1" stop-color="#381624" stop-opacity="0"/>
</radialGradient>
<radialGradient id="paint18_radial_4002_3951" cx="0" cy="0" r="1" gradientUnits="userSpaceOnUse" gradientTransform="translate(21.3204 20.0965) rotate(-1.16124) scale(1.19875 1.42643)">
<stop offset="0.169643" stop-color="#4C3531"/>
<stop offset="1" stop-color="#4C3531" stop-opacity="0"/>
</radialGradient>
<radialGradient id="paint19_radial_4002_3951" cx="0" cy="0" r="1" gradientUnits="userSpaceOnUse" gradientTransform="translate(21.7427 17.7685) rotate(-7.34035) scale(2.3174 4.35558)">
<stop stop-color="#3A2320"/>
<stop offset="1" stop-color="#4A3032"/>
</radialGradient>
<radialGradient id="paint20_radial_4002_3951" cx="0" cy="0" r="1" gradientUnits="userSpaceOnUse" gradientTransform="translate(23.8046 13.2602) rotate(-54.0819) scale(2.27954 0.780487)">
<stop offset="0.201425" stop-color="#695655"/>
<stop offset="1" stop-color="#695655" stop-opacity="0"/>
</radialGradient>
<radialGradient id="paint21_radial_4002_3951" cx="0" cy="0" r="1" gradientUnits="userSpaceOnUse" gradientTransform="translate(21.7455 16.9369) rotate(91.1562) scale(3.52879 0.494248)">
<stop offset="0.237624" stop-color="#634E42"/>
<stop offset="1" stop-color="#634E42" stop-opacity="0"/>
</radialGradient>
<radialGradient id="paint22_radial_4002_3951" cx="0" cy="0" r="1" gradientUnits="userSpaceOnUse" gradientTransform="translate(22.0608 19.3686) rotate(173.089) scale(2.0776 1.54328)">
<stop offset="0.261991" stop-color="#6C5855"/>
<stop offset="1" stop-color="#4F3435"/>
</radialGradient>
<radialGradient id="paint23_radial_4002_3951" cx="0" cy="0" r="1" gradientUnits="userSpaceOnUse" gradientTransform="translate(20.1431 22.7578) rotate(-24.478) scale(1.35309 1.73099)">
<stop stop-color="#421F33"/>
<stop offset="1" stop-color="#421F33" stop-opacity="0"/>
</radialGradient>
<radialGradient id="paint24_radial_4002_3951" cx="0" cy="0" r="1" gradientUnits="userSpaceOnUse" gradientTransform="translate(19.6136 18.9288) rotate(76.1806) scale(4.22758 2.87689)">
<stop offset="0.874124" stop-color="#704C65" stop-opacity="0"/>
<stop offset="0.927666" stop-color="#704C65"/>
</radialGradient>
<radialGradient id="paint25_radial_4002_3951" cx="0" cy="0" r="1" gradientUnits="userSpaceOnUse" gradientTransform="translate(18.4046 19.6498) rotate(-31.8908) scale(2.48437 2.73467)">
<stop offset="0.590961" stop-color="#402628"/>
<stop offset="1" stop-color="#402628" stop-opacity="0"/>
</radialGradient>
<radialGradient id="paint26_radial_4002_3951" cx="0" cy="0" r="1" gradientUnits="userSpaceOnUse" gradientTransform="translate(20.7567 19.4388) rotate(172.923) scale(2.15659 1.63968)">
<stop offset="0.261991" stop-color="#6C5855"/>
<stop offset="1" stop-color="#4F3435"/>
</radialGradient>
<radialGradient id="paint27_radial_4002_3951" cx="0" cy="0" r="1" gradientUnits="userSpaceOnUse" gradientTransform="translate(18.7668 23.041) rotate(-25.0003) scale(1.40995 1.83205)">
<stop stop-color="#4C1F2B"/>
<stop offset="1" stop-color="#4C1F2B" stop-opacity="0"/>
</radialGradient>
<radialGradient id="paint28_radial_4002_3951" cx="0" cy="0" r="1" gradientUnits="userSpaceOnUse" gradientTransform="translate(18.2173 18.9714) rotate(76.496) scale(4.48724 2.98921)">
<stop offset="0.874124" stop-color="#704C65" stop-opacity="0"/>
<stop offset="0.927666" stop-color="#704C65"/>
</radialGradient>
<radialGradient id="paint29_radial_4002_3951" cx="0" cy="0" r="1" gradientUnits="userSpaceOnUse" gradientTransform="translate(16.4827 19.9467) rotate(-29.396) scale(2.54664 3.27373)">
<stop offset="0.590961" stop-color="#402628"/>
<stop offset="1" stop-color="#402628" stop-opacity="0"/>
</radialGradient>
<radialGradient id="paint30_radial_4002_3951" cx="0" cy="0" r="1" gradientUnits="userSpaceOnUse" gradientTransform="translate(18.176 19.2548) rotate(147.824) scale(2.9396 1.7606)">
<stop offset="0.0855395" stop-color="#6A5756"/>
<stop offset="1" stop-color="#492B2D"/>
</radialGradient>
<radialGradient id="paint31_radial_4002_3951" cx="0" cy="0" r="1" gradientUnits="userSpaceOnUse" gradientTransform="translate(16.3441 22.789) rotate(-86.5167) scale(1.8002 3.61142)">
<stop offset="0.0949978" stop-color="#4B202C"/>
<stop offset="1" stop-color="#4B202C" stop-opacity="0"/>
</radialGradient>
<linearGradient id="paint32_linear_4002_3951" x1="28.5281" y1="11.6459" x2="29.201" y2="8.93091" gradientUnits="userSpaceOnUse">
<stop stop-color="#341B23"/>
<stop offset="1" stop-color="#341B23" stop-opacity="0"/>
</linearGradient>
<linearGradient id="paint33_linear_4002_3951" x1="29.8086" y1="11.8047" x2="29.8086" y2="7.13281" gradientUnits="userSpaceOnUse">
<stop offset="0.528428" stop-color="#492F2C"/>
<stop offset="1" stop-color="#492F2C" stop-opacity="0"/>
</linearGradient>
<linearGradient id="paint34_linear_4002_3951" x1="29.8448" y1="11.8047" x2="29.8448" y2="9.95964" gradientUnits="userSpaceOnUse">
<stop stop-color="#391F2F"/>
<stop offset="0.721455" stop-color="#391F2F" stop-opacity="0"/>
</linearGradient>
<radialGradient id="paint35_radial_4002_3951" cx="0" cy="0" r="1" gradientUnits="userSpaceOnUse" gradientTransform="translate(28.6798 10.0053) rotate(-70.1046) scale(2.37658 0.642074)">
<stop offset="0.339655" stop-color="#5D453B"/>
<stop offset="1" stop-color="#5D453B" stop-opacity="0"/>
</radialGradient>
<radialGradient id="paint36_radial_4002_3951" cx="0" cy="0" r="1" gradientUnits="userSpaceOnUse" gradientTransform="translate(27.8399 14.5703) rotate(-45.4182) scale(1.51369 2.53166)">
<stop stop-color="#4D3C3C"/>
<stop offset="1" stop-color="#4D3C3C" stop-opacity="0"/>
</radialGradient>
<linearGradient id="paint37_linear_4002_3951" x1="12.1212" y1="24.5391" x2="16.3271" y2="29.8244" gradientUnits="userSpaceOnUse">
<stop stop-color="#7F5DBC"/>
<stop offset="1" stop-color="#926CDC"/>
</linearGradient>
<linearGradient id="paint38_linear_4002_3951" x1="11.5899" y1="24.4141" x2="14.7149" y2="25.8203" gradientUnits="userSpaceOnUse">
<stop stop-color="#977EB0"/>
<stop offset="1" stop-color="#977EB0" stop-opacity="0"/>
</linearGradient>
<radialGradient id="paint39_radial_4002_3951" cx="0" cy="0" r="1" gradientUnits="userSpaceOnUse" gradientTransform="translate(16.1524 27.3828) rotate(-65.4099) scale(2.02764 1.57877)">
<stop stop-color="#946FDE"/>
<stop offset="1" stop-color="#946FDE" stop-opacity="0"/>
</radialGradient>
<linearGradient id="paint40_linear_4002_3951" x1="15.7325" y1="25.0223" x2="14.7096" y2="27.3253" gradientUnits="userSpaceOnUse">
<stop stop-color="#8B6BA9"/>
<stop offset="0.160083" stop-color="#8B6BA9" stop-opacity="0"/>
</linearGradient>
<radialGradient id="paint41_radial_4002_3951" cx="0" cy="0" r="1" gradientUnits="userSpaceOnUse" gradientTransform="translate(16.2774 27.1953) rotate(-65.556) scale(0.943988 12.9326)">
<stop offset="0.115385" stop-color="#9C84D9"/>
<stop offset="0.313699" stop-color="#9C84D9" stop-opacity="0"/>
</radialGradient>
<radialGradient id="paint42_radial_4002_3951" cx="0" cy="0" r="1" gradientUnits="userSpaceOnUse" gradientTransform="translate(17.5587 25.7578) rotate(113.181) scale(1.37241 14.645)">
<stop offset="0.0732765" stop-color="#AC8CE9"/>
<stop offset="0.417094" stop-color="#AC8CE9" stop-opacity="0"/>
</radialGradient>
<linearGradient id="paint43_linear_4002_3951" x1="9.36798" y1="28.0594" x2="17.5555" y2="31.1532" gradientUnits="userSpaceOnUse">
<stop stop-color="#7D5DBB"/>
<stop offset="1" stop-color="#8C6AD7"/>
</linearGradient>
<linearGradient id="paint44_linear_4002_3951" x1="15.0899" y1="26.4141" x2="14.493" y2="27.9032" gradientUnits="userSpaceOnUse">
<stop stop-color="#7D699C"/>
<stop offset="1" stop-color="#7E6A9F" stop-opacity="0"/>
</linearGradient>
<radialGradient id="paint45_radial_4002_3951" cx="0" cy="0" r="1" gradientUnits="userSpaceOnUse" gradientTransform="translate(16.9337 27.1953) rotate(110.556) scale(1.335 7.37895)">
<stop offset="0.207192" stop-color="#A28BE1"/>
<stop offset="1" stop-color="#A28BE1" stop-opacity="0"/>
</radialGradient>
<radialGradient id="paint46_radial_4002_3951" cx="0" cy="0" r="1" gradientUnits="userSpaceOnUse" gradientTransform="translate(8.68365 30) rotate(-67.4437) scale(5.94708 3.33283)">
<stop stop-color="#957DB3"/>
<stop offset="1" stop-color="#957DB3" stop-opacity="0"/>
</radialGradient>
<radialGradient id="paint47_radial_4002_3951" cx="0" cy="0" r="1" gradientUnits="userSpaceOnUse" gradientTransform="translate(15.8399 31.0078) rotate(-90) scale(2.9375 3.65625)">
<stop stop-color="#946FE2"/>
<stop offset="1" stop-color="#946FE2" stop-opacity="0"/>
</radialGradient>
<radialGradient id="paint48_radial_4002_3951" cx="0" cy="0" r="1" gradientUnits="userSpaceOnUse" gradientTransform="translate(16.4562 11.3001) rotate(151.783) scale(2.18107 6.10648)">
<stop offset="0.255889" stop-color="#CFCBD9"/>
<stop offset="1" stop-color="#978CA5"/>
</radialGradient>
<radialGradient id="paint49_radial_4002_3951" cx="0" cy="0" r="1" gradientUnits="userSpaceOnUse" gradientTransform="translate(14.0874 12.4235) rotate(150.678) scale(2.66165 7.63701)">
<stop offset="0.255889" stop-color="#CFCBD9"/>
<stop offset="1" stop-color="#978CA5"/>
</radialGradient>
<radialGradient id="paint50_radial_4002_3951" cx="0" cy="0" r="1" gradientUnits="userSpaceOnUse" gradientTransform="translate(25.0086 7.08947) rotate(-168.376) scale(1.90128 1.90707)">
<stop offset="0.700015" stop-color="#2B2A2C"/>
<stop offset="1" stop-color="#201724"/>
</radialGradient>
<radialGradient id="paint51_radial_4002_3951" cx="0" cy="0" r="1" gradientUnits="userSpaceOnUse" gradientTransform="translate(26.2573 7.01695) rotate(90) scale(1.44457 2.29775)">
<stop offset="0.80198" stop-color="#925C51"/>
<stop offset="1" stop-color="#694B43"/>
<stop offset="1" stop-color="#804D49"/>
<stop offset="1" stop-color="#85534D"/>
</radialGradient>
<linearGradient id="paint52_linear_4002_3951" x1="27.5816" y1="7.11293" x2="27.0229" y2="7.45714" gradientUnits="userSpaceOnUse">
<stop stop-color="#B4948D"/>
<stop offset="1" stop-color="#B4948D" stop-opacity="0"/>
</linearGradient>
<radialGradient id="paint53_radial_4002_3951" cx="0" cy="0" r="1" gradientUnits="userSpaceOnUse" gradientTransform="translate(25.9989 7.28172) rotate(-121.329) scale(0.66917 1.21906)">
<stop offset="0.208046" stop-color="#C7A7A3" stop-opacity="0.25"/>
<stop offset="0.789885" stop-color="#C7A7A3"/>
</radialGradient>
<radialGradient id="paint54_radial_4002_3951" cx="0" cy="0" r="1" gradientUnits="userSpaceOnUse" gradientTransform="translate(26.0808 7.48604) rotate(-118.61) scale(0.998343 0.931051)">
<stop offset="0.765532" stop-color="#FFE6E2" stop-opacity="0"/>
<stop offset="0.966159" stop-color="#FFE6E2"/>
</radialGradient>
<linearGradient id="paint55_linear_4002_3951" x1="26.543" y1="3.55467" x2="23.6055" y2="4.1953" gradientUnits="userSpaceOnUse">
<stop stop-color="#323232"/>
<stop offset="1" stop-color="#323232" stop-opacity="0"/>
</linearGradient>
<linearGradient id="paint56_linear_4002_3951" x1="14.5374" y1="18.5675" x2="14.5374" y2="23.1685" gradientUnits="userSpaceOnUse">
<stop stop-color="#715B4E"/>
<stop offset="1" stop-color="#715B4E" stop-opacity="0"/>
</linearGradient>
</defs>
</svg>
