<svg width="32" height="32" viewBox="0 0 32 32" fill="none" xmlns="http://www.w3.org/2000/svg">
<path d="M16.5599 14.1128C16.4954 14.0411 16.3848 14.0338 16.3131 14.0982L15.0233 15.2482C14.9844 15.2823 14.9637 15.3321 14.9649 15.3832C14.9661 15.4342 14.9905 15.4828 15.0306 15.5157L16.4103 16.6158C16.4432 16.6414 16.4809 16.6535 16.5198 16.6535C16.5708 16.6535 16.6219 16.6304 16.6571 16.5879C16.7179 16.5125 16.7045 16.4019 16.6292 16.3423L15.4111 15.3722L16.5465 14.3608C16.6182 14.2952 16.6243 14.1845 16.5599 14.1128Z" fill="#212121"/>
<path fill-rule="evenodd" clip-rule="evenodd" d="M15.3892 13.6338C15.2081 13.6338 15.05 13.5816 14.9321 13.4843C14.8227 13.3944 14.751 13.2704 14.7242 13.1257C14.6695 12.8169 14.8385 12.5069 15.1181 12.4048C15.3041 12.3367 15.5436 12.3209 15.7928 12.3574V10.8099C15.7928 10.7126 15.8719 10.6348 15.9679 10.6348C16.0651 10.6348 16.143 10.7138 16.143 10.8099V11.4043H17.0073C17.1046 11.4043 17.1824 11.4821 17.1824 11.5794C17.1824 11.6766 17.1034 11.7544 17.0073 11.7544H16.143V12.4413C16.4201 12.5349 16.7873 12.7257 17.0863 13.1111C17.1459 13.1877 17.1325 13.2971 17.0559 13.3567C16.9794 13.4162 16.8699 13.4029 16.8104 13.3263C16.6025 13.0576 16.3545 12.9044 16.1442 12.8157V12.8826C16.1478 12.9421 16.1515 13.2071 15.9642 13.4126C15.8305 13.5597 15.636 13.6338 15.3892 13.6338ZM15.5424 12.6881C15.416 12.6881 15.3126 12.7063 15.2397 12.733C15.106 12.7817 15.0488 12.9397 15.0707 13.0649C15.095 13.2059 15.2081 13.2837 15.3892 13.2837C15.5339 13.2837 15.6397 13.2485 15.7053 13.178C15.8026 13.0734 15.7965 12.9154 15.7953 12.9032V12.7112C15.7041 12.6954 15.619 12.6881 15.5424 12.6881Z" fill="#212121"/>
<path d="M18.5985 13.5743C18.6192 13.5743 18.6411 13.5706 18.6617 13.5621C18.6751 13.5573 18.9802 13.4357 19.306 13.1622C19.5807 12.9324 19.7898 12.6613 19.926 12.3635C20.0998 12.7148 20.445 13.1622 21.1306 13.4965C21.155 13.5086 21.1817 13.5147 21.2072 13.5147C21.2717 13.5147 21.3349 13.4782 21.364 13.4162C21.4066 13.3299 21.3701 13.2242 21.2838 13.1828C20.8231 12.9579 20.4839 12.6528 20.2761 12.2772C20.1329 12.017 20.1055 11.8099 20.1015 11.78L20.101 11.7763V11.7751H21.0261C21.1221 11.7751 21.2011 11.6973 21.2011 11.6001C21.2011 11.5028 21.1234 11.425 21.0261 11.425H20.0913V10.8901C20.0913 10.7941 20.0135 10.7151 19.9162 10.7151C19.819 10.7151 19.7412 10.7929 19.7412 10.8901V11.425H18.7663C18.6702 11.425 18.5912 11.5028 18.5912 11.6001C18.5912 11.6973 18.669 11.7751 18.7663 11.7751H19.74C19.6731 12.2042 19.4543 12.5787 19.0884 12.8874C18.8064 13.1269 18.5377 13.2351 18.5316 13.2375C18.4417 13.2728 18.3979 13.3737 18.4332 13.4636C18.4636 13.5317 18.5292 13.5743 18.5985 13.5743Z" fill="#212121"/>
<path fill-rule="evenodd" clip-rule="evenodd" d="M10.6666 13.0358C10.6313 12.7598 10.804 12.4085 11.2659 12.2893C11.4166 12.2504 11.5783 12.2456 11.7437 12.2748V12.0146H10.8988C10.8015 12.0146 10.7237 11.9368 10.7237 11.8396C10.7237 11.7423 10.8027 11.6645 10.8988 11.6645H11.7437V11.4031H10.8988C10.8015 11.4031 10.7237 11.3253 10.7237 11.2281C10.7237 11.1308 10.8027 11.053 10.8988 11.053H11.7437V10.8184C11.7437 10.7212 11.8215 10.6433 11.9187 10.6433C12.016 10.6433 12.0938 10.7224 12.0938 10.8184V11.053H12.8292C12.9265 11.053 13.0043 11.1308 13.0043 11.2281C13.0043 11.3253 12.9253 11.4031 12.8292 11.4031H12.0938V11.6633H12.8292C12.9265 11.6633 13.0043 11.7411 13.0043 11.8383C13.0043 11.9356 12.9253 12.0134 12.8292 12.0134H12.0938V12.3793C12.1813 12.4158 12.2688 12.462 12.3576 12.5155C12.6518 12.6942 12.9058 12.9385 13.0444 13.1063C13.1064 13.1816 13.0955 13.291 13.0213 13.353C12.9459 13.415 12.8365 13.4041 12.7745 13.3299C12.6603 13.1914 12.4013 12.9385 12.0962 12.7707C12.0974 12.8862 12.0767 13.1391 11.9005 13.3324C11.7668 13.4795 11.5783 13.5536 11.3401 13.5536C10.9207 13.5536 10.6994 13.2935 10.6666 13.0358ZM11.3388 13.2047C11.4762 13.2047 11.5747 13.1695 11.6403 13.0978C11.7575 12.9712 11.7471 12.7623 11.7461 12.744L11.7461 12.7428C11.7449 12.7379 11.7449 12.7331 11.7449 12.7282V12.6309C11.6756 12.6139 11.6051 12.6054 11.5358 12.6054C11.475 12.6054 11.4142 12.6127 11.3534 12.6285C11.0957 12.6954 10.9972 12.8631 11.0131 12.992C11.0289 13.1233 11.1541 13.2047 11.3388 13.2047Z" fill="#212121"/>
<path d="M12.7926 15.3564C12.5895 15.9983 12.2662 16.3241 11.8298 16.3241C11.7045 16.3241 11.6085 16.29 11.5392 16.2195C11.3958 16.0749 11.3946 15.822 11.3946 15.822V14.1602C11.3946 14.0642 11.3168 13.9852 11.2195 13.9852C11.1222 13.9852 11.0444 14.063 11.0444 14.1602V15.8184C11.0444 15.8658 11.0481 16.2207 11.2876 16.4639C11.4249 16.6037 11.6073 16.6742 11.8285 16.6742C12.1653 16.6742 12.4546 16.5429 12.688 16.2852C12.8679 16.0858 13.015 15.8086 13.1256 15.4622C13.1548 15.3698 13.1038 15.2713 13.0114 15.2421C12.9202 15.213 12.8217 15.264 12.7926 15.3564Z" fill="#212121"/>
<path d="M12.1847 17.7877C12.1847 17.885 12.1057 17.9628 12.0097 17.9628V17.9616H11.4955C11.4067 18.4308 11.2414 19.0776 10.9314 19.824C10.9034 19.8921 10.8378 19.9322 10.7697 19.9322C10.7478 19.9322 10.7247 19.9285 10.7028 19.9188C10.6129 19.8824 10.5703 19.779 10.608 19.6903C10.8913 19.0083 11.0493 18.4077 11.1368 17.9628H10.6895C10.5922 17.9628 10.5144 17.885 10.5144 17.7877C10.5144 17.6905 10.5934 17.6127 10.6895 17.6127H11.1976C11.239 17.3306 11.245 17.1665 11.245 17.1629C11.2475 17.0656 11.3289 16.9903 11.4249 16.9927C11.5222 16.9963 11.5976 17.0766 11.5951 17.1726L11.5946 17.1836C11.5924 17.2261 11.585 17.3763 11.5526 17.6127H12.0097C12.1069 17.6127 12.1847 17.6905 12.1847 17.7877Z" fill="#212121"/>
<path d="M11.9295 18.1731C11.8335 18.1731 11.7544 18.2509 11.7544 18.3482C11.7544 18.4455 11.8322 18.5233 11.9295 18.5233H12.919C13.015 18.5233 13.094 18.4455 13.094 18.3482C13.094 18.2509 13.0162 18.1731 12.919 18.1731H11.9295Z" fill="#212121"/>
<path d="M13.3092 19.4447C13.3323 19.5383 13.2764 19.6331 13.1828 19.6574C13.1281 19.672 12.7816 19.7571 12.4412 19.7547C12.2747 19.7547 12.1094 19.7352 11.9793 19.6757C11.7896 19.5918 11.7118 19.4629 11.679 19.3705C11.6036 19.1541 11.7033 18.9487 11.7155 18.9256C11.7155 18.9256 11.793 18.7777 11.9492 18.8516C12.1055 18.9256 12.0267 19.0861 12.0267 19.0861L12.0279 19.0848C12.0145 19.1116 11.9866 19.193 12.0097 19.2563C12.0145 19.2721 12.0316 19.317 12.1215 19.3572L12.1227 19.3584C12.3355 19.4556 12.8327 19.3851 13.0965 19.3183C13.1901 19.2952 13.2849 19.3511 13.3092 19.4447Z" fill="#212121"/>
<path fill-rule="evenodd" clip-rule="evenodd" d="M12.7695 20.2129C12.4023 20.2129 12.1045 20.5108 12.1045 20.8779C12.1045 21.245 12.4023 21.5429 12.7695 21.5429C13.1366 21.5429 13.4344 21.245 13.4344 20.8779C13.4344 20.5108 13.1366 20.2129 12.7695 20.2129ZM12.7695 21.1928C12.5956 21.1928 12.4546 21.0518 12.4546 20.8779C12.4546 20.7041 12.5956 20.5631 12.7695 20.5631C12.9433 20.5631 13.0843 20.7041 13.0843 20.8779C13.0843 21.0518 12.9433 21.1928 12.7695 21.1928Z" fill="#212121"/>
<path d="M15.6955 19.4811C15.5022 19.3085 15.4037 19.0653 15.4037 18.7578C15.4037 18.3979 15.5569 18.0964 15.8474 17.8752H14.6792C14.582 17.8752 14.5042 17.7973 14.5042 17.7001C14.5042 17.6028 14.5832 17.525 14.6792 17.525H16.7397C16.8321 17.525 16.9087 17.5968 16.9148 17.6891C16.9208 17.7815 16.854 17.863 16.7616 17.8739C16.7592 17.8739 16.4917 17.908 16.2328 18.0441C15.9155 18.2107 15.7551 18.4514 15.7551 18.7602C15.7551 18.9656 15.811 19.1152 15.9277 19.2197C16.1539 19.4225 16.5372 19.3891 16.5676 19.3864L16.5695 19.3863C16.6643 19.3753 16.7519 19.4434 16.7628 19.5395C16.7737 19.6343 16.7057 19.7218 16.6096 19.7328C16.6096 19.7328 16.6038 19.7331 16.5977 19.7336C16.5778 19.7353 16.5358 19.7388 16.4784 19.7388C16.2924 19.7388 15.9471 19.7048 15.6955 19.4811Z" fill="#212121"/>
<path d="M16.5089 18.2825C16.4334 18.3434 16.4212 18.4542 16.4821 18.5284L16.7329 18.8388C16.767 18.8814 16.8181 18.9046 16.8692 18.9046C16.9082 18.9046 16.9472 18.8924 16.9788 18.8656C17.0543 18.8047 17.0665 18.694 17.0056 18.6197L16.7548 18.3093C16.6952 18.2326 16.5844 18.2217 16.5089 18.2825Z" fill="#212121"/>
<path d="M16.9708 17.9908C17.0463 17.9311 17.1571 17.9445 17.2167 18.02L17.4772 18.3499C17.5369 18.4254 17.5235 18.5362 17.448 18.5958C17.4164 18.6214 17.3774 18.6335 17.3397 18.6335C17.2885 18.6335 17.2362 18.6104 17.2021 18.5666L16.9416 18.2367C16.882 18.1612 16.8954 18.0504 16.9708 17.9908Z" fill="#212121"/>
<path d="M16.9975 21.1902C16.8662 21.2316 16.6923 21.262 16.5039 21.2838L16.3945 21.0517C16.6194 21.02 16.8455 20.9726 17.04 20.9009C17.1312 20.8681 17.1774 20.7672 17.1433 20.676C17.1093 20.5848 17.0096 20.5386 16.9184 20.5727C16.7191 20.6456 16.476 20.6918 16.2377 20.7186L16.1076 20.4426C16.0663 20.3551 15.9617 20.3174 15.8742 20.3587C15.7867 20.4 15.749 20.5046 15.7903 20.5921L15.8645 20.7489C15.5278 20.7656 15.2561 20.7549 15.2063 20.7529L15.1983 20.7526C15.1023 20.7477 15.0196 20.8219 15.0148 20.9179C15.0099 21.014 15.0841 21.0966 15.1801 21.1027C15.1947 21.1039 15.3138 21.11 15.4913 21.11C15.6372 21.11 15.8244 21.1064 16.025 21.0918L16.1331 21.3203C15.6513 21.3557 15.1877 21.3533 15.1529 21.3532L15.1509 21.3531C15.0537 21.3519 14.9759 21.4297 14.9746 21.527C14.9734 21.6242 15.0512 21.702 15.1485 21.7033H15.1959C15.3466 21.7033 15.8219 21.6996 16.2936 21.6583L16.3945 21.8735H15.6323C15.5812 21.8722 15.2591 21.8735 15.0379 22.0874C14.9114 22.2102 14.8446 22.3792 14.8446 22.5786C14.8446 22.8022 14.9467 22.9895 15.1315 23.1074C15.2761 23.1998 15.4694 23.2472 15.6979 23.2472C15.7612 23.2472 15.8268 23.2435 15.8949 23.2362C16.2109 23.2022 16.5635 23.0952 16.944 22.9177C17.0315 22.8764 17.0692 22.7731 17.0278 22.6855C16.9865 22.598 16.8832 22.5603 16.7957 22.6017C16.0262 22.9615 15.5192 22.9408 15.3199 22.8132C15.2348 22.7597 15.1959 22.6855 15.1959 22.5798C15.1959 22.4752 15.2239 22.3974 15.281 22.3415C15.3831 22.2418 15.5642 22.2236 15.625 22.2248H16.6705C16.73 22.2248 16.7859 22.1944 16.8188 22.1433C16.8504 22.0923 16.8552 22.0291 16.8297 21.9756L16.6619 21.6194C16.8273 21.5963 16.9804 21.5659 17.1032 21.527C17.1956 21.4978 17.2467 21.4006 17.2187 21.3082C17.1871 21.2133 17.0898 21.1623 16.9975 21.1902Z" fill="#212121"/>
<path d="M19.8433 15.2081C19.8433 15.1109 19.9224 15.0331 20.0184 15.0331H20.2141V14.4726H19.9187C19.8579 14.762 19.7497 14.9978 19.5978 15.1765C19.4616 15.3358 19.3376 15.3905 19.3145 15.4002C19.3145 15.4002 19.1484 15.4532 19.0898 15.3165C19.0312 15.1797 19.1845 15.0756 19.1845 15.0756L19.1831 15.0759C19.2063 15.0637 19.4396 14.9415 19.5589 14.4726H18.7687C18.6714 14.4726 18.5936 14.3948 18.5936 14.2976C18.5936 14.2003 18.6727 14.1225 18.7687 14.1225H19.723V13.9681C19.723 13.8709 19.8008 13.7931 19.898 13.7931C19.9953 13.7931 20.0731 13.8721 20.0731 13.9681V14.1225H21.138C21.2353 14.1225 21.3131 14.2003 21.3131 14.2976C21.3131 14.3948 21.234 14.4726 21.138 14.4726H20.563V15.2081C20.563 15.3054 20.484 15.3832 20.3879 15.3832H20.0184C19.9211 15.3832 19.8433 15.3054 19.8433 15.2081Z" fill="#212121"/>
<path d="M21.4078 15.1328C21.2425 14.9164 21.0407 14.7133 21.0322 14.7048C20.9641 14.6368 20.8535 14.6368 20.7842 14.7048C20.7162 14.7729 20.7162 14.8835 20.7842 14.9528C20.7867 14.9553 20.9775 15.1474 21.1282 15.3455C21.1623 15.3905 21.2145 15.4148 21.268 15.4148C21.3045 15.4148 21.3422 15.4027 21.3738 15.3796C21.4516 15.3188 21.4662 15.2094 21.4078 15.1328Z" fill="#212121"/>
<path d="M18.7395 15.3261C18.7055 15.3577 18.6629 15.3735 18.6192 15.3735C18.573 15.3735 18.5268 15.3552 18.4915 15.3188C18.4247 15.2495 18.4271 15.1388 18.4976 15.072C18.6678 14.9103 18.7979 14.7 18.7991 14.6975C18.8502 14.6149 18.9571 14.5893 19.0398 14.6392C19.1225 14.6902 19.148 14.7972 19.0982 14.8799C19.0921 14.8908 18.9438 15.1328 18.7395 15.3261Z" fill="#212121"/>
<path fill-rule="evenodd" clip-rule="evenodd" d="M21.0663 16.5441C20.7539 16.5295 20.473 16.4699 20.2384 16.3678C20.2494 16.3605 20.2591 16.3532 20.2688 16.3459C20.6047 16.1036 20.7583 15.8566 20.7681 15.8407C20.8009 15.7873 20.8025 15.7187 20.7709 15.664C20.7393 15.6093 20.6821 15.5752 20.6189 15.5752H19.8056C19.8208 15.5587 19.8324 15.5457 19.8403 15.5369C19.8464 15.5301 19.8503 15.5258 19.8518 15.5242C19.9151 15.4512 19.9065 15.3406 19.8336 15.2774C19.7607 15.2142 19.65 15.2227 19.5868 15.2956C19.5832 15.3005 19.1796 15.7649 18.7748 15.9278C18.6848 15.9642 18.6411 16.0651 18.6775 16.1551C18.7055 16.2232 18.7711 16.2657 18.8404 16.2657C18.8623 16.2657 18.8842 16.2621 18.9049 16.2536C19.0471 16.1964 19.1869 16.1113 19.3133 16.0202C19.3571 16.098 19.4337 16.2122 19.5577 16.3338C19.2841 16.4347 18.9802 16.4857 18.6508 16.4857C18.5547 16.4857 18.4757 16.5635 18.4757 16.6608C18.4757 16.758 18.5535 16.8358 18.6508 16.8358C19.1662 16.8358 19.5722 16.7204 19.8774 16.5781C20.1472 16.7386 20.5253 16.8723 21.0529 16.8966H21.0614C21.155 16.8966 21.2316 16.8237 21.2365 16.7301C21.2377 16.6292 21.1635 16.5477 21.0663 16.5441ZM19.8762 16.1478C19.7789 16.0676 19.712 15.9873 19.6671 15.9241H20.2348C20.1825 15.9715 20.1217 16.0226 20.05 16.0724C20.0014 16.1065 19.9527 16.1381 19.9017 16.1685C19.8932 16.1612 19.8847 16.1539 19.8762 16.1478Z" fill="#212121"/>
<path d="M14.9097 1.08517L14.8984 1.0851C14.8348 1.08456 14.6134 1.08266 14.3667 1.14539C12.7044 1.54303 11.3016 2.50693 10.3505 3.80657C8.43625 4.0205 6.74755 5.26596 5.98092 7.03642C4.39254 7.54059 2.99999 8.61016 2.11155 10.067C1.81155 10.5499 1.71481 11.1098 1.79958 11.6405C1.4152 12.0166 1.15624 12.5261 1.11253 13.1097C0.963688 14.8844 1.4923 16.585 2.51456 17.9208C2.27919 19.6231 2.87789 21.3713 4.11749 22.571C4.00926 24.3339 4.5755 26.123 5.79848 27.5416C6.16993 27.9747 6.67836 28.2406 7.21329 28.3227C7.45081 28.7996 7.85088 29.2007 8.39143 29.4247C9.24687 29.7839 10.1558 29.9705 11.0901 29.9705C11.9908 29.9705 12.8701 29.794 13.6826 29.4662C15.1221 30.1233 16.8037 30.1186 18.241 29.4518C19.0631 29.7886 19.9543 29.9705 20.8688 29.9705C21.8038 29.9705 22.7025 29.7838 23.5393 29.4567L23.5506 29.4523L23.5617 29.4478C24.105 29.2244 24.507 28.8223 24.7454 28.344C25.2931 28.2613 25.7931 27.9892 26.1598 27.5631L26.1608 27.5619C27.3982 26.1207 27.9639 24.3057 27.8368 22.5218C29.0228 21.3431 29.5997 19.6571 29.3976 18.0065C30.454 16.663 30.9996 14.9374 30.8488 13.1304C30.8045 12.5519 30.5488 12.0447 30.1679 11.6687C30.2582 11.1359 30.1656 10.5721 29.8658 10.0785C28.9614 8.58234 27.5323 7.50184 25.9081 7.01029C25.1454 5.27434 23.4948 4.04904 21.6183 3.81456C20.6629 2.50457 19.2512 1.53761 17.5759 1.14152L17.5123 1.12646L17.4474 1.11752L17.4346 1.11572C17.372 1.1069 17.2178 1.08517 17.0493 1.08517C16.6656 1.08517 16.3022 1.18006 15.981 1.347C15.6533 1.1778 15.2861 1.08517 14.9097 1.08517ZM23.0296 6.32292C23.5183 6.67789 23.8927 7.12647 24.1395 7.63339L24.1359 7.63328C24.063 7.63088 23.9912 7.62853 23.9182 7.62853C23.2885 7.62853 22.6588 7.72821 22.0583 7.9288C22.0541 7.9288 22.0518 7.9288 22.0497 7.92954C22.0468 7.93055 22.0444 7.93293 22.0388 7.93852V7.91907C22.0388 7.13984 21.8917 6.39221 21.6194 5.70294C22.1142 5.79897 22.5932 6.00685 23.0296 6.32292ZM8.86845 6.32292C9.32189 5.99348 9.82274 5.78195 10.3394 5.69078C10.0671 6.38006 9.91999 7.1289 9.91999 7.90813V7.92758C9.91027 7.92758 9.91027 7.92758 9.90054 7.91786C9.30123 7.71727 8.6703 7.61759 8.0406 7.61759C7.94821 7.61759 7.8546 7.62002 7.76221 7.62488C8.00899 7.12282 8.38219 6.67667 8.86845 6.32292ZM4.50791 19.7668C4.36811 19.3353 4.31097 18.8976 4.33286 18.4721C4.86896 18.8879 5.48408 19.2173 6.1612 19.4374L6.16536 19.4374L6.16982 19.4381C6.17268 19.4391 6.17506 19.4415 6.18065 19.4471L6.17092 19.4568C5.79164 19.9783 5.50596 20.5436 5.3151 21.1308C4.95649 20.7564 4.67932 20.2956 4.50791 19.7668ZM15.946 28.088H15.9411C15.4998 28.088 15.0792 28.0102 14.689 27.8667C15.174 27.5081 15.6068 27.0741 15.9691 26.5781L15.9788 26.5684L15.9885 26.5781C16.3447 27.0668 16.7702 27.4947 17.2467 27.8509C16.8443 28.0053 16.4055 28.088 15.946 28.088ZM24.7485 26.3374C24.6586 26.4468 24.5188 26.5076 24.379 26.5076C24.3085 26.5076 24.2294 26.4979 24.1687 26.4578C24.1687 26.4578 23.3785 26.1077 23.2083 26.0274C23.1986 26.0177 23.1779 26.0177 23.1682 26.0177C23.0977 26.0177 23.0284 26.0882 23.0381 26.1575C23.0575 26.3471 23.1475 27.1969 23.1475 27.1969C23.167 27.4169 23.0575 27.6369 22.8472 27.7172C22.2078 27.9871 21.527 28.1171 20.8572 28.1171C19.2878 28.1171 17.7379 27.3975 16.7374 26.0177C16.3277 25.4476 16.087 24.7984 15.9776 24.1079C15.8572 24.8081 15.6275 25.4573 15.2178 26.0177C14.2173 27.3877 12.6686 28.1171 11.098 28.1171C10.4281 28.1171 9.74859 27.9871 9.10794 27.7172C8.90857 27.6369 8.78822 27.4169 8.80767 27.1969C8.80767 27.1969 8.89763 26.3374 8.91708 26.1575C8.92681 26.087 8.85751 26.0274 8.78701 26.0274C8.76756 26.0274 8.75661 26.0274 8.73716 26.0372C8.55725 26.1174 7.78774 26.4566 7.78774 26.4566C7.71723 26.4869 7.64794 26.5064 7.57743 26.5064C7.43763 26.5064 7.29783 26.4468 7.20787 26.3362C5.68831 24.5759 5.50839 21.9562 6.92827 19.9966C7.33795 19.4264 7.89836 19.007 8.52807 18.6764C8.2582 18.7165 7.98832 18.7359 7.72817 18.7359C7.29783 18.7359 6.86871 18.6764 6.45782 18.5463C4.16023 17.7987 2.77074 15.568 2.96039 13.2582C2.97984 13.0382 3.15003 12.8583 3.36033 12.8181C3.36033 12.8181 4.21008 12.6382 4.38999 12.5981C4.47023 12.5787 4.51034 12.4583 4.44956 12.3878C4.31948 12.248 3.74934 11.6183 3.74934 11.6183C3.59982 11.4578 3.5597 11.2184 3.67884 11.0287C4.60881 9.48848 6.27912 8.5585 8.04789 8.5585C8.56819 8.5585 9.09821 8.63874 9.6173 8.80893C10.2774 9.02896 10.8573 9.40946 11.3569 9.90909C11.0493 9.26966 10.85 8.60956 10.85 7.90935C10.85 5.4902 12.5397 3.47951 14.7996 2.94949C14.8397 2.93976 14.8701 2.93976 14.909 2.93976C15.0889 2.93976 15.2591 3.03944 15.3491 3.19991C15.3491 3.19991 15.7892 3.94997 15.8791 4.10922C15.8986 4.14933 15.9387 4.15906 15.9788 4.15906C16.0189 4.15906 16.0688 4.13961 16.0882 4.09949C16.1879 3.9293 16.6085 3.19991 16.6085 3.19991C16.7082 3.02972 16.8784 2.93003 17.0486 2.93003C17.0887 2.93003 17.1191 2.93003 17.158 2.93976C19.4179 3.46978 21.1076 5.47926 21.1076 7.89962C21.1076 8.59984 20.918 9.25994 20.5983 9.89937C21.1076 9.39974 21.6778 9.01924 22.3379 8.7992C22.8582 8.62901 23.3882 8.54878 23.9073 8.54878C25.6773 8.54878 27.3464 9.48848 28.2763 11.019C28.3857 11.2086 28.3566 11.4493 28.2058 11.6086C28.2058 11.6086 27.626 12.2589 27.5056 12.389C27.4461 12.4486 27.4862 12.5787 27.5761 12.5993C27.7658 12.6394 28.5961 12.8194 28.5961 12.8194C28.8064 12.8692 28.9766 13.0394 28.996 13.2594C29.1856 15.5692 27.7962 17.7987 25.4961 18.5487C25.0767 18.6885 24.6561 18.7384 24.2258 18.7384C23.9656 18.7384 23.6958 18.7189 23.4259 18.6788C24.0556 19.0082 24.616 19.4289 25.0257 19.999C26.448 21.9574 26.2681 24.5772 24.7485 26.3374ZM27.3926 19.7705C27.2284 20.275 26.9683 20.7187 26.6328 21.0846C26.4407 20.5144 26.1599 19.9662 25.7879 19.458L25.7782 19.4483C25.7879 19.4483 25.7879 19.4483 25.7976 19.4386C26.4504 19.2259 27.0461 18.911 27.57 18.5159C27.5871 18.9292 27.5287 19.3523 27.3926 19.7705Z" fill="#212121"/>
</svg>
