<svg width="32" height="32" viewBox="0 0 32 32" fill="none" xmlns="http://www.w3.org/2000/svg">
<path d="M30 4.04047C28.1625 4.35129 26.4587 5.16356 25.0567 6.43144C25.0909 6.35169 25.1098 6.26383 25.1098 6.17156C25.1098 5.96384 25.0138 5.77854 24.8638 5.65756C25.1475 5.25186 25.1783 4.72502 24.9565 4.29727C24.8967 4.17088 24.8113 4.05342 24.704 3.94611C24.594 3.83611 24.464 3.75611 24.334 3.69611L24.3302 3.69985C23.8418 3.47314 23.2479 3.56248 22.8425 3.96788L20.3425 6.46788C19.9365 6.8739 19.8475 7.4689 20.0756 7.95777L20.0742 7.95911C20.1342 8.08911 20.2025 8.20848 20.3125 8.31848C20.4056 8.4116 20.5194 8.49721 20.6311 8.55769C21.0826 8.8131 21.6474 8.78102 22.0706 8.46148C22.1917 8.6081 22.3748 8.70156 22.5798 8.70156C22.6609 8.70156 22.7385 8.68695 22.8102 8.66021L20.6541 10.8164C20.6888 10.7362 20.708 10.6477 20.708 10.5547C20.708 10.347 20.612 10.1617 20.462 10.0407C20.7689 9.60168 20.7799 9.02076 20.4948 8.57708C20.4418 8.49007 20.376 8.40783 20.299 8.33081C20.189 8.22081 20.059 8.14081 19.929 8.08081L19.9273 8.08252C19.4391 7.85645 18.8458 7.94596 18.4407 8.35106L15.9407 10.8511C15.535 11.2568 15.4458 11.8512 15.6732 12.3399L15.6693 12.3438C15.7095 12.4309 15.7534 12.5133 15.8111 12.5913C15.7638 12.5571 15.7146 12.5268 15.6647 12.4999C15.1594 12.21 14.5099 12.2819 14.0761 12.7157L11.5761 15.2157C11.1557 15.6361 11.0752 16.2592 11.3346 16.7573C11.3904 16.8724 11.4557 16.979 11.5547 17.0781C11.6647 17.1881 11.8036 17.2876 11.9336 17.3476L11.9374 17.3437C12.3758 17.5567 12.9035 17.5119 13.3042 17.2093C13.4252 17.3559 13.6084 17.4494 13.8134 17.4494C13.9063 17.4494 13.9948 17.4302 14.075 17.3955L13.31 18.1605C10.31 21.1605 5.77 21.9005 2 20.0905V29.44H3V22.5911C3.6596 22.7847 4.32863 22.9208 5 22.9973V29.4399H6V23.0669C6.09336 23.0693 6.1867 23.0705 6.28 23.0705C6.85593 23.0705 7.43081 23.0285 8 22.9452V29.4399H9V22.755C9.68191 22.5948 10.3514 22.3742 11 22.0942V29.44H12V21.6061C12.7025 21.2218 13.3731 20.7632 14 20.232V29.4399H15V19.2905L17 17.2905V29.44H18V16.2905L20 14.2905V29.44H21V13.2905L23 11.2905V29.44H24V10.2905L26 8.29046V29.4399H27V7.42102C27.6157 6.96962 28.2892 6.613 29 6.35755V29.4399H30L30 4.04047ZM23.0097 7.54073L23.949 6.60143C24.07 6.74232 24.2495 6.83155 24.4498 6.83155C24.5308 6.83155 24.6085 6.81694 24.6802 6.79023L24.67 6.80046L23.1985 8.272C23.2252 8.20026 23.2398 8.12261 23.2398 8.04155C23.2398 7.84124 23.1506 7.66178 23.0097 7.54073ZM16.2016 13.0679L16.2031 13.0663C16.1661 12.9862 16.1189 12.9096 16.0623 12.8368C16.1352 12.8914 16.2123 12.9385 16.2865 12.9727L16.2873 12.9718C16.7285 13.193 17.2636 13.1506 17.6688 12.8447C17.7898 12.9913 17.973 13.0847 18.178 13.0847C18.2709 13.0847 18.3594 13.0655 18.4396 13.0308L16.2895 15.1809C16.3242 15.1007 16.3434 15.0123 16.3434 14.9194C16.3434 14.7116 16.2474 14.5263 16.0974 14.4054C16.376 14.0068 16.4107 13.4914 16.2016 13.0679ZM20.048 11.2147C20.1409 11.2147 20.2294 11.1955 20.3096 11.1608L18.7841 12.6864C18.8188 12.6061 18.838 12.5177 18.838 12.4247C18.838 12.2244 18.7487 12.045 18.6079 11.9239L19.5472 10.9846C19.6682 11.1255 19.8477 11.2147 20.048 11.2147ZM15.6834 15.5793C15.7763 15.5793 15.8648 15.5601 15.945 15.5255L14.4195 17.0509C14.4542 16.9707 14.4734 16.8823 14.4734 16.7894C14.4734 16.589 14.3842 16.4096 14.2433 16.2885L15.1826 15.3492C15.3036 15.4901 15.4831 15.5793 15.6834 15.5793Z" fill="#212121"/>
</svg>
