<svg width="32" height="32" viewBox="0 0 32 32" fill="none" xmlns="http://www.w3.org/2000/svg">
<path d="M18.5397 8.21121C19.3637 8.71639 19.6221 9.79387 19.1169 10.6178L17.2255 13.7027C19.6123 14.1966 21.4062 16.3107 21.4062 18.8438C21.4062 21.7432 19.0557 24.0938 16.1562 24.0938C13.2568 24.0938 10.9062 21.7432 10.9062 18.8438C10.9062 18.0275 11.0925 17.2548 11.4249 16.5657C11.467 16.433 11.5258 16.3031 11.6018 16.179L16.1331 8.78842C16.6383 7.96446 17.7157 7.70604 18.5397 8.21121ZM16.1562 17.0938C15.1898 17.0938 14.4062 17.8773 14.4062 18.8438C14.4062 19.8102 15.1898 20.5938 16.1562 20.5938C17.1227 20.5938 17.9062 19.8102 17.9062 18.8438C17.9062 17.8773 17.1227 17.0938 16.1562 17.0938Z" fill="#212121"/>
<path d="M6 1C3.23858 1 1 3.23858 1 6V26C1 28.7614 3.23858 31 6 31H26C28.7614 31 31 28.7614 31 26V6C31 3.23858 28.7614 1 26 1H6ZM3 6C3 4.34315 4.34315 3 6 3H26C27.6569 3 29 4.34315 29 6V26C29 27.6569 27.6569 29 26 29H6C4.34315 29 3 27.6569 3 26V6Z" fill="#212121"/>
</svg>
