<svg width="32" height="32" viewBox="0 0 32 32" fill="none" xmlns="http://www.w3.org/2000/svg">
<g filter="url(#filter0_i_4002_2325)">
<path fill-rule="evenodd" clip-rule="evenodd" d="M22.4522 13.3746C22.6697 12.9292 22.7837 12.4319 22.7837 11.914C22.7837 11.4357 22.6853 10.9868 22.5088 10.5777H22.5142C22.4319 10.3925 22.3393 10.2174 22.2264 10.0526L22.2243 10.0494C21.8721 9.51076 21.6856 8.87888 21.6856 8.23663V8.22627C21.6856 6.36169 20.1733 4.84931 18.3087 4.84931C18.1222 4.84931 17.9461 4.76644 17.8425 4.61106C17.2314 3.76164 16.2265 3.20227 15.0974 3.20227C13.9682 3.20227 12.9634 3.76164 12.3523 4.61106C12.2487 4.75609 12.0726 4.84931 11.8861 4.84931C11.857 4.84932 11.828 4.84968 11.7991 4.85042C9.97472 4.89661 8.50918 6.39079 8.50918 8.22627V8.23663C8.50918 8.87888 8.32272 9.51076 7.97052 10.0494L7.96817 10.0532C7.61747 10.591 7.41125 11.2216 7.41125 11.914C7.41125 12.4423 7.53556 12.9292 7.74274 13.3746C7.81525 13.5196 7.81525 13.6957 7.74274 13.8407C7.53556 14.2758 7.41125 14.7627 7.41125 15.2806C7.41125 17.1037 8.8822 18.5747 10.7053 18.5747H19.4896C21.3127 18.5747 22.7837 17.1037 22.7837 15.2806C22.7837 14.7627 22.6594 14.2758 22.4522 13.8407C22.3797 13.6957 22.3797 13.5196 22.4522 13.3746ZM9.90281 10.6391H9.89021L11.1172 13.0502C11.2434 15.9189 12.3629 13.0502 15.0974 13.0502C17.8318 13.0502 19.0242 16.2432 19.1504 13.3746L20.3131 10.102C20.2581 8.82783 19.3347 8.73839 19.1504 8.73839H15.8545C14.5529 8.73839 13.3247 8.10133 12.59 7.02563C12.464 6.84809 12.2016 6.87942 12.1176 7.07785L12.0337 7.27628C11.8027 7.85068 11.3619 8.28932 10.816 8.53996C10.8003 8.54519 10.7819 8.55302 10.7635 8.56085C10.7452 8.56868 10.7268 8.57652 10.7111 8.58174C10.4696 8.70706 9.90281 9.08303 9.88182 10.0543L9.89232 10.3676L9.90281 10.6391Z" fill="url(#paint0_linear_4002_2325)"/>
<path fill-rule="evenodd" clip-rule="evenodd" d="M22.4522 13.3746C22.6697 12.9292 22.7837 12.4319 22.7837 11.914C22.7837 11.4357 22.6853 10.9868 22.5088 10.5777H22.5142C22.4319 10.3925 22.3393 10.2174 22.2264 10.0526L22.2243 10.0494C21.8721 9.51076 21.6856 8.87888 21.6856 8.23663V8.22627C21.6856 6.36169 20.1733 4.84931 18.3087 4.84931C18.1222 4.84931 17.9461 4.76644 17.8425 4.61106C17.2314 3.76164 16.2265 3.20227 15.0974 3.20227C13.9682 3.20227 12.9634 3.76164 12.3523 4.61106C12.2487 4.75609 12.0726 4.84931 11.8861 4.84931C11.857 4.84932 11.828 4.84968 11.7991 4.85042C9.97472 4.89661 8.50918 6.39079 8.50918 8.22627V8.23663C8.50918 8.87888 8.32272 9.51076 7.97052 10.0494L7.96817 10.0532C7.61747 10.591 7.41125 11.2216 7.41125 11.914C7.41125 12.4423 7.53556 12.9292 7.74274 13.3746C7.81525 13.5196 7.81525 13.6957 7.74274 13.8407C7.53556 14.2758 7.41125 14.7627 7.41125 15.2806C7.41125 17.1037 8.8822 18.5747 10.7053 18.5747H19.4896C21.3127 18.5747 22.7837 17.1037 22.7837 15.2806C22.7837 14.7627 22.6594 14.2758 22.4522 13.8407C22.3797 13.6957 22.3797 13.5196 22.4522 13.3746ZM9.90281 10.6391H9.89021L11.1172 13.0502C11.2434 15.9189 12.3629 13.0502 15.0974 13.0502C17.8318 13.0502 19.0242 16.2432 19.1504 13.3746L20.3131 10.102C20.2581 8.82783 19.3347 8.73839 19.1504 8.73839H15.8545C14.5529 8.73839 13.3247 8.10133 12.59 7.02563C12.464 6.84809 12.2016 6.87942 12.1176 7.07785L12.0337 7.27628C11.8027 7.85068 11.3619 8.28932 10.816 8.53996C10.8003 8.54519 10.7819 8.55302 10.7635 8.56085C10.7452 8.56868 10.7268 8.57652 10.7111 8.58174C10.4696 8.70706 9.90281 9.08303 9.88182 10.0543L9.89232 10.3676L9.90281 10.6391Z" fill="url(#paint1_radial_4002_2325)"/>
<path fill-rule="evenodd" clip-rule="evenodd" d="M22.4522 13.3746C22.6697 12.9292 22.7837 12.4319 22.7837 11.914C22.7837 11.4357 22.6853 10.9868 22.5088 10.5777H22.5142C22.4319 10.3925 22.3393 10.2174 22.2264 10.0526L22.2243 10.0494C21.8721 9.51076 21.6856 8.87888 21.6856 8.23663V8.22627C21.6856 6.36169 20.1733 4.84931 18.3087 4.84931C18.1222 4.84931 17.9461 4.76644 17.8425 4.61106C17.2314 3.76164 16.2265 3.20227 15.0974 3.20227C13.9682 3.20227 12.9634 3.76164 12.3523 4.61106C12.2487 4.75609 12.0726 4.84931 11.8861 4.84931C11.857 4.84932 11.828 4.84968 11.7991 4.85042C9.97472 4.89661 8.50918 6.39079 8.50918 8.22627V8.23663C8.50918 8.87888 8.32272 9.51076 7.97052 10.0494L7.96817 10.0532C7.61747 10.591 7.41125 11.2216 7.41125 11.914C7.41125 12.4423 7.53556 12.9292 7.74274 13.3746C7.81525 13.5196 7.81525 13.6957 7.74274 13.8407C7.53556 14.2758 7.41125 14.7627 7.41125 15.2806C7.41125 17.1037 8.8822 18.5747 10.7053 18.5747H19.4896C21.3127 18.5747 22.7837 17.1037 22.7837 15.2806C22.7837 14.7627 22.6594 14.2758 22.4522 13.8407C22.3797 13.6957 22.3797 13.5196 22.4522 13.3746ZM9.90281 10.6391H9.89021L11.1172 13.0502C11.2434 15.9189 12.3629 13.0502 15.0974 13.0502C17.8318 13.0502 19.0242 16.2432 19.1504 13.3746L20.3131 10.102C20.2581 8.82783 19.3347 8.73839 19.1504 8.73839H15.8545C14.5529 8.73839 13.3247 8.10133 12.59 7.02563C12.464 6.84809 12.2016 6.87942 12.1176 7.07785L12.0337 7.27628C11.8027 7.85068 11.3619 8.28932 10.816 8.53996C10.8003 8.54519 10.7819 8.55302 10.7635 8.56085C10.7452 8.56868 10.7268 8.57652 10.7111 8.58174C10.4696 8.70706 9.90281 9.08303 9.88182 10.0543L9.89232 10.3676L9.90281 10.6391Z" fill="url(#paint2_radial_4002_2325)"/>
<path fill-rule="evenodd" clip-rule="evenodd" d="M22.4522 13.3746C22.6697 12.9292 22.7837 12.4319 22.7837 11.914C22.7837 11.4357 22.6853 10.9868 22.5088 10.5777H22.5142C22.4319 10.3925 22.3393 10.2174 22.2264 10.0526L22.2243 10.0494C21.8721 9.51076 21.6856 8.87888 21.6856 8.23663V8.22627C21.6856 6.36169 20.1733 4.84931 18.3087 4.84931C18.1222 4.84931 17.9461 4.76644 17.8425 4.61106C17.2314 3.76164 16.2265 3.20227 15.0974 3.20227C13.9682 3.20227 12.9634 3.76164 12.3523 4.61106C12.2487 4.75609 12.0726 4.84931 11.8861 4.84931C11.857 4.84932 11.828 4.84968 11.7991 4.85042C9.97472 4.89661 8.50918 6.39079 8.50918 8.22627V8.23663C8.50918 8.87888 8.32272 9.51076 7.97052 10.0494L7.96817 10.0532C7.61747 10.591 7.41125 11.2216 7.41125 11.914C7.41125 12.4423 7.53556 12.9292 7.74274 13.3746C7.81525 13.5196 7.81525 13.6957 7.74274 13.8407C7.53556 14.2758 7.41125 14.7627 7.41125 15.2806C7.41125 17.1037 8.8822 18.5747 10.7053 18.5747H19.4896C21.3127 18.5747 22.7837 17.1037 22.7837 15.2806C22.7837 14.7627 22.6594 14.2758 22.4522 13.8407C22.3797 13.6957 22.3797 13.5196 22.4522 13.3746ZM9.90281 10.6391H9.89021L11.1172 13.0502C11.2434 15.9189 12.3629 13.0502 15.0974 13.0502C17.8318 13.0502 19.0242 16.2432 19.1504 13.3746L20.3131 10.102C20.2581 8.82783 19.3347 8.73839 19.1504 8.73839H15.8545C14.5529 8.73839 13.3247 8.10133 12.59 7.02563C12.464 6.84809 12.2016 6.87942 12.1176 7.07785L12.0337 7.27628C11.8027 7.85068 11.3619 8.28932 10.816 8.53996C10.8003 8.54519 10.7819 8.55302 10.7635 8.56085C10.7452 8.56868 10.7268 8.57652 10.7111 8.58174C10.4696 8.70706 9.90281 9.08303 9.88182 10.0543L9.89232 10.3676L9.90281 10.6391Z" fill="url(#paint3_radial_4002_2325)"/>
<path fill-rule="evenodd" clip-rule="evenodd" d="M22.4522 13.3746C22.6697 12.9292 22.7837 12.4319 22.7837 11.914C22.7837 11.4357 22.6853 10.9868 22.5088 10.5777H22.5142C22.4319 10.3925 22.3393 10.2174 22.2264 10.0526L22.2243 10.0494C21.8721 9.51076 21.6856 8.87888 21.6856 8.23663V8.22627C21.6856 6.36169 20.1733 4.84931 18.3087 4.84931C18.1222 4.84931 17.9461 4.76644 17.8425 4.61106C17.2314 3.76164 16.2265 3.20227 15.0974 3.20227C13.9682 3.20227 12.9634 3.76164 12.3523 4.61106C12.2487 4.75609 12.0726 4.84931 11.8861 4.84931C11.857 4.84932 11.828 4.84968 11.7991 4.85042C9.97472 4.89661 8.50918 6.39079 8.50918 8.22627V8.23663C8.50918 8.87888 8.32272 9.51076 7.97052 10.0494L7.96817 10.0532C7.61747 10.591 7.41125 11.2216 7.41125 11.914C7.41125 12.4423 7.53556 12.9292 7.74274 13.3746C7.81525 13.5196 7.81525 13.6957 7.74274 13.8407C7.53556 14.2758 7.41125 14.7627 7.41125 15.2806C7.41125 17.1037 8.8822 18.5747 10.7053 18.5747H19.4896C21.3127 18.5747 22.7837 17.1037 22.7837 15.2806C22.7837 14.7627 22.6594 14.2758 22.4522 13.8407C22.3797 13.6957 22.3797 13.5196 22.4522 13.3746ZM9.90281 10.6391H9.89021L11.1172 13.0502C11.2434 15.9189 12.3629 13.0502 15.0974 13.0502C17.8318 13.0502 19.0242 16.2432 19.1504 13.3746L20.3131 10.102C20.2581 8.82783 19.3347 8.73839 19.1504 8.73839H15.8545C14.5529 8.73839 13.3247 8.10133 12.59 7.02563C12.464 6.84809 12.2016 6.87942 12.1176 7.07785L12.0337 7.27628C11.8027 7.85068 11.3619 8.28932 10.816 8.53996C10.8003 8.54519 10.7819 8.55302 10.7635 8.56085C10.7452 8.56868 10.7268 8.57652 10.7111 8.58174C10.4696 8.70706 9.90281 9.08303 9.88182 10.0543L9.89232 10.3676L9.90281 10.6391Z" fill="url(#paint4_radial_4002_2325)"/>
<path fill-rule="evenodd" clip-rule="evenodd" d="M22.4522 13.3746C22.6697 12.9292 22.7837 12.4319 22.7837 11.914C22.7837 11.4357 22.6853 10.9868 22.5088 10.5777H22.5142C22.4319 10.3925 22.3393 10.2174 22.2264 10.0526L22.2243 10.0494C21.8721 9.51076 21.6856 8.87888 21.6856 8.23663V8.22627C21.6856 6.36169 20.1733 4.84931 18.3087 4.84931C18.1222 4.84931 17.9461 4.76644 17.8425 4.61106C17.2314 3.76164 16.2265 3.20227 15.0974 3.20227C13.9682 3.20227 12.9634 3.76164 12.3523 4.61106C12.2487 4.75609 12.0726 4.84931 11.8861 4.84931C11.857 4.84932 11.828 4.84968 11.7991 4.85042C9.97472 4.89661 8.50918 6.39079 8.50918 8.22627V8.23663C8.50918 8.87888 8.32272 9.51076 7.97052 10.0494L7.96817 10.0532C7.61747 10.591 7.41125 11.2216 7.41125 11.914C7.41125 12.4423 7.53556 12.9292 7.74274 13.3746C7.81525 13.5196 7.81525 13.6957 7.74274 13.8407C7.53556 14.2758 7.41125 14.7627 7.41125 15.2806C7.41125 17.1037 8.8822 18.5747 10.7053 18.5747H19.4896C21.3127 18.5747 22.7837 17.1037 22.7837 15.2806C22.7837 14.7627 22.6594 14.2758 22.4522 13.8407C22.3797 13.6957 22.3797 13.5196 22.4522 13.3746ZM9.90281 10.6391H9.89021L11.1172 13.0502C11.2434 15.9189 12.3629 13.0502 15.0974 13.0502C17.8318 13.0502 19.0242 16.2432 19.1504 13.3746L20.3131 10.102C20.2581 8.82783 19.3347 8.73839 19.1504 8.73839H15.8545C14.5529 8.73839 13.3247 8.10133 12.59 7.02563C12.464 6.84809 12.2016 6.87942 12.1176 7.07785L12.0337 7.27628C11.8027 7.85068 11.3619 8.28932 10.816 8.53996C10.8003 8.54519 10.7819 8.55302 10.7635 8.56085C10.7452 8.56868 10.7268 8.57652 10.7111 8.58174C10.4696 8.70706 9.90281 9.08303 9.88182 10.0543L9.89232 10.3676L9.90281 10.6391Z" fill="url(#paint5_radial_4002_2325)"/>
<path fill-rule="evenodd" clip-rule="evenodd" d="M22.4522 13.3746C22.6697 12.9292 22.7837 12.4319 22.7837 11.914C22.7837 11.4357 22.6853 10.9868 22.5088 10.5777H22.5142C22.4319 10.3925 22.3393 10.2174 22.2264 10.0526L22.2243 10.0494C21.8721 9.51076 21.6856 8.87888 21.6856 8.23663V8.22627C21.6856 6.36169 20.1733 4.84931 18.3087 4.84931C18.1222 4.84931 17.9461 4.76644 17.8425 4.61106C17.2314 3.76164 16.2265 3.20227 15.0974 3.20227C13.9682 3.20227 12.9634 3.76164 12.3523 4.61106C12.2487 4.75609 12.0726 4.84931 11.8861 4.84931C11.857 4.84932 11.828 4.84968 11.7991 4.85042C9.97472 4.89661 8.50918 6.39079 8.50918 8.22627V8.23663C8.50918 8.87888 8.32272 9.51076 7.97052 10.0494L7.96817 10.0532C7.61747 10.591 7.41125 11.2216 7.41125 11.914C7.41125 12.4423 7.53556 12.9292 7.74274 13.3746C7.81525 13.5196 7.81525 13.6957 7.74274 13.8407C7.53556 14.2758 7.41125 14.7627 7.41125 15.2806C7.41125 17.1037 8.8822 18.5747 10.7053 18.5747H19.4896C21.3127 18.5747 22.7837 17.1037 22.7837 15.2806C22.7837 14.7627 22.6594 14.2758 22.4522 13.8407C22.3797 13.6957 22.3797 13.5196 22.4522 13.3746ZM9.90281 10.6391H9.89021L11.1172 13.0502C11.2434 15.9189 12.3629 13.0502 15.0974 13.0502C17.8318 13.0502 19.0242 16.2432 19.1504 13.3746L20.3131 10.102C20.2581 8.82783 19.3347 8.73839 19.1504 8.73839H15.8545C14.5529 8.73839 13.3247 8.10133 12.59 7.02563C12.464 6.84809 12.2016 6.87942 12.1176 7.07785L12.0337 7.27628C11.8027 7.85068 11.3619 8.28932 10.816 8.53996C10.8003 8.54519 10.7819 8.55302 10.7635 8.56085C10.7452 8.56868 10.7268 8.57652 10.7111 8.58174C10.4696 8.70706 9.90281 9.08303 9.88182 10.0543L9.89232 10.3676L9.90281 10.6391Z" fill="url(#paint6_radial_4002_2325)"/>
<path fill-rule="evenodd" clip-rule="evenodd" d="M22.4522 13.3746C22.6697 12.9292 22.7837 12.4319 22.7837 11.914C22.7837 11.4357 22.6853 10.9868 22.5088 10.5777H22.5142C22.4319 10.3925 22.3393 10.2174 22.2264 10.0526L22.2243 10.0494C21.8721 9.51076 21.6856 8.87888 21.6856 8.23663V8.22627C21.6856 6.36169 20.1733 4.84931 18.3087 4.84931C18.1222 4.84931 17.9461 4.76644 17.8425 4.61106C17.2314 3.76164 16.2265 3.20227 15.0974 3.20227C13.9682 3.20227 12.9634 3.76164 12.3523 4.61106C12.2487 4.75609 12.0726 4.84931 11.8861 4.84931C11.857 4.84932 11.828 4.84968 11.7991 4.85042C9.97472 4.89661 8.50918 6.39079 8.50918 8.22627V8.23663C8.50918 8.87888 8.32272 9.51076 7.97052 10.0494L7.96817 10.0532C7.61747 10.591 7.41125 11.2216 7.41125 11.914C7.41125 12.4423 7.53556 12.9292 7.74274 13.3746C7.81525 13.5196 7.81525 13.6957 7.74274 13.8407C7.53556 14.2758 7.41125 14.7627 7.41125 15.2806C7.41125 17.1037 8.8822 18.5747 10.7053 18.5747H19.4896C21.3127 18.5747 22.7837 17.1037 22.7837 15.2806C22.7837 14.7627 22.6594 14.2758 22.4522 13.8407C22.3797 13.6957 22.3797 13.5196 22.4522 13.3746ZM9.90281 10.6391H9.89021L11.1172 13.0502C11.2434 15.9189 12.3629 13.0502 15.0974 13.0502C17.8318 13.0502 19.0242 16.2432 19.1504 13.3746L20.3131 10.102C20.2581 8.82783 19.3347 8.73839 19.1504 8.73839H15.8545C14.5529 8.73839 13.3247 8.10133 12.59 7.02563C12.464 6.84809 12.2016 6.87942 12.1176 7.07785L12.0337 7.27628C11.8027 7.85068 11.3619 8.28932 10.816 8.53996C10.8003 8.54519 10.7819 8.55302 10.7635 8.56085C10.7452 8.56868 10.7268 8.57652 10.7111 8.58174C10.4696 8.70706 9.90281 9.08303 9.88182 10.0543L9.89232 10.3676L9.90281 10.6391Z" fill="url(#paint7_radial_4002_2325)"/>
<path fill-rule="evenodd" clip-rule="evenodd" d="M22.4522 13.3746C22.6697 12.9292 22.7837 12.4319 22.7837 11.914C22.7837 11.4357 22.6853 10.9868 22.5088 10.5777H22.5142C22.4319 10.3925 22.3393 10.2174 22.2264 10.0526L22.2243 10.0494C21.8721 9.51076 21.6856 8.87888 21.6856 8.23663V8.22627C21.6856 6.36169 20.1733 4.84931 18.3087 4.84931C18.1222 4.84931 17.9461 4.76644 17.8425 4.61106C17.2314 3.76164 16.2265 3.20227 15.0974 3.20227C13.9682 3.20227 12.9634 3.76164 12.3523 4.61106C12.2487 4.75609 12.0726 4.84931 11.8861 4.84931C11.857 4.84932 11.828 4.84968 11.7991 4.85042C9.97472 4.89661 8.50918 6.39079 8.50918 8.22627V8.23663C8.50918 8.87888 8.32272 9.51076 7.97052 10.0494L7.96817 10.0532C7.61747 10.591 7.41125 11.2216 7.41125 11.914C7.41125 12.4423 7.53556 12.9292 7.74274 13.3746C7.81525 13.5196 7.81525 13.6957 7.74274 13.8407C7.53556 14.2758 7.41125 14.7627 7.41125 15.2806C7.41125 17.1037 8.8822 18.5747 10.7053 18.5747H19.4896C21.3127 18.5747 22.7837 17.1037 22.7837 15.2806C22.7837 14.7627 22.6594 14.2758 22.4522 13.8407C22.3797 13.6957 22.3797 13.5196 22.4522 13.3746ZM9.90281 10.6391H9.89021L11.1172 13.0502C11.2434 15.9189 12.3629 13.0502 15.0974 13.0502C17.8318 13.0502 19.0242 16.2432 19.1504 13.3746L20.3131 10.102C20.2581 8.82783 19.3347 8.73839 19.1504 8.73839H15.8545C14.5529 8.73839 13.3247 8.10133 12.59 7.02563C12.464 6.84809 12.2016 6.87942 12.1176 7.07785L12.0337 7.27628C11.8027 7.85068 11.3619 8.28932 10.816 8.53996C10.8003 8.54519 10.7819 8.55302 10.7635 8.56085C10.7452 8.56868 10.7268 8.57652 10.7111 8.58174C10.4696 8.70706 9.90281 9.08303 9.88182 10.0543L9.89232 10.3676L9.90281 10.6391Z" fill="url(#paint8_radial_4002_2325)"/>
<path fill-rule="evenodd" clip-rule="evenodd" d="M22.4522 13.3746C22.6697 12.9292 22.7837 12.4319 22.7837 11.914C22.7837 11.4357 22.6853 10.9868 22.5088 10.5777H22.5142C22.4319 10.3925 22.3393 10.2174 22.2264 10.0526L22.2243 10.0494C21.8721 9.51076 21.6856 8.87888 21.6856 8.23663V8.22627C21.6856 6.36169 20.1733 4.84931 18.3087 4.84931C18.1222 4.84931 17.9461 4.76644 17.8425 4.61106C17.2314 3.76164 16.2265 3.20227 15.0974 3.20227C13.9682 3.20227 12.9634 3.76164 12.3523 4.61106C12.2487 4.75609 12.0726 4.84931 11.8861 4.84931C11.857 4.84932 11.828 4.84968 11.7991 4.85042C9.97472 4.89661 8.50918 6.39079 8.50918 8.22627V8.23663C8.50918 8.87888 8.32272 9.51076 7.97052 10.0494L7.96817 10.0532C7.61747 10.591 7.41125 11.2216 7.41125 11.914C7.41125 12.4423 7.53556 12.9292 7.74274 13.3746C7.81525 13.5196 7.81525 13.6957 7.74274 13.8407C7.53556 14.2758 7.41125 14.7627 7.41125 15.2806C7.41125 17.1037 8.8822 18.5747 10.7053 18.5747H19.4896C21.3127 18.5747 22.7837 17.1037 22.7837 15.2806C22.7837 14.7627 22.6594 14.2758 22.4522 13.8407C22.3797 13.6957 22.3797 13.5196 22.4522 13.3746ZM9.90281 10.6391H9.89021L11.1172 13.0502C11.2434 15.9189 12.3629 13.0502 15.0974 13.0502C17.8318 13.0502 19.0242 16.2432 19.1504 13.3746L20.3131 10.102C20.2581 8.82783 19.3347 8.73839 19.1504 8.73839H15.8545C14.5529 8.73839 13.3247 8.10133 12.59 7.02563C12.464 6.84809 12.2016 6.87942 12.1176 7.07785L12.0337 7.27628C11.8027 7.85068 11.3619 8.28932 10.816 8.53996C10.8003 8.54519 10.7819 8.55302 10.7635 8.56085C10.7452 8.56868 10.7268 8.57652 10.7111 8.58174C10.4696 8.70706 9.90281 9.08303 9.88182 10.0543L9.89232 10.3676L9.90281 10.6391Z" fill="url(#paint9_radial_4002_2325)"/>
<path fill-rule="evenodd" clip-rule="evenodd" d="M22.4522 13.3746C22.6697 12.9292 22.7837 12.4319 22.7837 11.914C22.7837 11.4357 22.6853 10.9868 22.5088 10.5777H22.5142C22.4319 10.3925 22.3393 10.2174 22.2264 10.0526L22.2243 10.0494C21.8721 9.51076 21.6856 8.87888 21.6856 8.23663V8.22627C21.6856 6.36169 20.1733 4.84931 18.3087 4.84931C18.1222 4.84931 17.9461 4.76644 17.8425 4.61106C17.2314 3.76164 16.2265 3.20227 15.0974 3.20227C13.9682 3.20227 12.9634 3.76164 12.3523 4.61106C12.2487 4.75609 12.0726 4.84931 11.8861 4.84931C11.857 4.84932 11.828 4.84968 11.7991 4.85042C9.97472 4.89661 8.50918 6.39079 8.50918 8.22627V8.23663C8.50918 8.87888 8.32272 9.51076 7.97052 10.0494L7.96817 10.0532C7.61747 10.591 7.41125 11.2216 7.41125 11.914C7.41125 12.4423 7.53556 12.9292 7.74274 13.3746C7.81525 13.5196 7.81525 13.6957 7.74274 13.8407C7.53556 14.2758 7.41125 14.7627 7.41125 15.2806C7.41125 17.1037 8.8822 18.5747 10.7053 18.5747H19.4896C21.3127 18.5747 22.7837 17.1037 22.7837 15.2806C22.7837 14.7627 22.6594 14.2758 22.4522 13.8407C22.3797 13.6957 22.3797 13.5196 22.4522 13.3746ZM9.90281 10.6391H9.89021L11.1172 13.0502C11.2434 15.9189 12.3629 13.0502 15.0974 13.0502C17.8318 13.0502 19.0242 16.2432 19.1504 13.3746L20.3131 10.102C20.2581 8.82783 19.3347 8.73839 19.1504 8.73839H15.8545C14.5529 8.73839 13.3247 8.10133 12.59 7.02563C12.464 6.84809 12.2016 6.87942 12.1176 7.07785L12.0337 7.27628C11.8027 7.85068 11.3619 8.28932 10.816 8.53996C10.8003 8.54519 10.7819 8.55302 10.7635 8.56085C10.7452 8.56868 10.7268 8.57652 10.7111 8.58174C10.4696 8.70706 9.90281 9.08303 9.88182 10.0543L9.89232 10.3676L9.90281 10.6391Z" fill="url(#paint10_radial_4002_2325)"/>
</g>
<g filter="url(#filter1_i_4002_2325)">
<path d="M12.8475 24.0477V28.7877H18.1606L17.3575 24.0977C16.6775 24.3477 15.9375 24.4777 15.1675 24.4777C14.3575 24.4877 13.5675 24.3277 12.8475 24.0477Z" fill="#E7C1F2"/>
<path d="M12.8475 24.0477V28.7877H18.1606L17.3575 24.0977C16.6775 24.3477 15.9375 24.4777 15.1675 24.4777C14.3575 24.4877 13.5675 24.3277 12.8475 24.0477Z" fill="url(#paint11_linear_4002_2325)"/>
</g>
<path d="M7.07752 28.7875V20.8575C5.63752 22.2075 4.51752 23.9275 3.89752 25.8975L3.86752 25.9875C3.57752 26.8975 3.35752 27.8375 3.20752 28.7875H7.07752Z" fill="url(#paint12_radial_4002_2325)"/>
<path d="M7.07752 28.7875V20.8575C5.63752 22.2075 4.51752 23.9275 3.89752 25.8975L3.86752 25.9875C3.57752 26.8975 3.35752 27.8375 3.20752 28.7875H7.07752Z" fill="url(#paint13_linear_4002_2325)"/>
<path d="M27.0176 28.7875C26.8776 27.8275 26.6576 26.8775 26.3676 25.9475C25.7376 23.9375 24.6076 22.1875 23.1276 20.8175V28.7875H27.0176Z" fill="url(#paint14_radial_4002_2325)"/>
<path d="M27.0176 28.7875C26.8776 27.8275 26.6576 26.8775 26.3676 25.9475C25.7376 23.9375 24.6076 22.1875 23.1276 20.8175V28.7875H27.0176Z" fill="url(#paint15_linear_4002_2325)"/>
<path d="M23.1275 28.7877V21.4855L19.6075 28.7877H23.1275Z" fill="url(#paint16_linear_4002_2325)"/>
<path d="M24.3129 16.8011L19.534 16.8223C19.0546 16.8244 18.6441 17.1665 18.5556 17.6377L16.4595 28.7977H19.6075L24.9329 17.7811C25.1529 17.3211 24.8129 16.8011 24.3129 16.8011Z" fill="url(#paint17_linear_4002_2325)"/>
<path d="M24.3129 16.8011L19.534 16.8223C19.0546 16.8244 18.6441 17.1665 18.5556 17.6377L16.4595 28.7977H19.6075L24.9329 17.7811C25.1529 17.3211 24.8129 16.8011 24.3129 16.8011Z" fill="url(#paint18_linear_4002_2325)"/>
<path d="M24.3129 16.8011L19.534 16.8223C19.0546 16.8244 18.6441 17.1665 18.5556 17.6377L16.4595 28.7977H19.6075L24.9329 17.7811C25.1529 17.3211 24.8129 16.8011 24.3129 16.8011Z" fill="url(#paint19_linear_4002_2325)"/>
<path d="M24.3129 16.8011L19.534 16.8223C19.0546 16.8244 18.6441 17.1665 18.5556 17.6377L16.4595 28.7977H19.6075L24.9329 17.7811C25.1529 17.3211 24.8129 16.8011 24.3129 16.8011Z" fill="url(#paint20_radial_4002_2325)"/>
<path d="M5.40465 16.809H10.6608C11.142 16.809 11.555 17.1517 11.6437 17.6247L13.7389 28.7977H10.9489L5.06871 17.2692C4.98299 17.1442 4.99866 16.809 5.40465 16.809Z" fill="url(#paint21_linear_4002_2325)"/>
<path d="M5.40465 16.809H10.6608C11.142 16.809 11.555 17.1517 11.6437 17.6247L13.7389 28.7977H10.9489L5.06871 17.2692C4.98299 17.1442 4.99866 16.809 5.40465 16.809Z" fill="url(#paint22_linear_4002_2325)"/>
<path d="M5.40465 16.809H10.6608C11.142 16.809 11.555 17.1517 11.6437 17.6247L13.7389 28.7977H10.9489L5.06871 17.2692C4.98299 17.1442 4.99866 16.809 5.40465 16.809Z" fill="url(#paint23_radial_4002_2325)"/>
<path d="M7.07751 28.7877H10.9475L7.07751 21.1918V28.7877Z" fill="url(#paint24_linear_4002_2325)"/>
<path d="M7.07751 28.7877H10.9475L7.07751 21.1918V28.7877Z" fill="url(#paint25_linear_4002_2325)"/>
<path d="M15.1176 17.6876C13.9576 17.6876 12.8199 17.8591 11.7399 18.1791L12.8376 24.0476C13.5576 24.3276 14.3376 24.4876 15.1576 24.4876C15.9276 24.4876 16.6676 24.3476 17.3476 24.1076L18.4576 18.1876C17.4076 17.8576 16.2776 17.6876 15.1176 17.6876Z" fill="url(#paint26_radial_4002_2325)"/>
<path d="M15.1176 17.6876C13.9576 17.6876 12.8199 17.8591 11.7399 18.1791L12.8376 24.0476C13.5576 24.3276 14.3376 24.4876 15.1576 24.4876C15.9276 24.4876 16.6676 24.3476 17.3476 24.1076L18.4576 18.1876C17.4076 17.8576 16.2776 17.6876 15.1176 17.6876Z" fill="url(#paint27_radial_4002_2325)"/>
<path d="M15.1176 17.6876C13.9576 17.6876 12.8199 17.8591 11.7399 18.1791L12.8376 24.0476C13.5576 24.3276 14.3376 24.4876 15.1576 24.4876C15.9276 24.4876 16.6676 24.3476 17.3476 24.1076L18.4576 18.1876C17.4076 17.8576 16.2776 17.6876 15.1176 17.6876Z" fill="url(#paint28_linear_4002_2325)"/>
<g filter="url(#filter2_f_4002_2325)">
<path d="M12.8119 15.6542H17.3831V18.4534C17.3831 19.7157 16.3598 20.4308 15.0975 20.4308C13.8352 20.4308 12.8119 19.7157 12.8119 18.4534V15.6542Z" stroke="url(#paint29_radial_4002_2325)" stroke-width="0.25"/>
</g>
<path d="M12.8119 15.6542H17.3831V18.4534C17.3831 19.7157 16.3598 20.4308 15.0975 20.4308C13.8352 20.4308 12.8119 19.7157 12.8119 18.4534V15.6542Z" fill="url(#paint30_radial_4002_2325)"/>
<path d="M12.8119 15.6542H17.3831V18.4534C17.3831 19.7157 16.3598 20.4308 15.0975 20.4308C13.8352 20.4308 12.8119 19.7157 12.8119 18.4534V15.6542Z" fill="url(#paint31_radial_4002_2325)"/>
<path d="M12.8119 15.6542H17.3831V18.4534C17.3831 19.7157 16.3598 20.4308 15.0975 20.4308C13.8352 20.4308 12.8119 19.7157 12.8119 18.4534V15.6542Z" fill="url(#paint32_radial_4002_2325)"/>
<path d="M12.8119 15.6542H17.3831V18.4534C17.3831 19.7157 16.3598 20.4308 15.0975 20.4308C13.8352 20.4308 12.8119 19.7157 12.8119 18.4534V15.6542Z" fill="url(#paint33_radial_4002_2325)"/>
<path d="M27.2767 21.1122C27.8667 21.1122 28.3467 21.5922 28.3467 22.1822V24.6322H26.2067V22.1822C26.2067 21.5922 26.6867 21.1122 27.2767 21.1122Z" fill="url(#paint34_radial_4002_2325)"/>
<path d="M27.2767 21.1122C27.8667 21.1122 28.3467 21.5922 28.3467 22.1822V24.6322H26.2067V22.1822C26.2067 21.5922 26.6867 21.1122 27.2767 21.1122Z" fill="url(#paint35_radial_4002_2325)"/>
<path d="M25.7663 19.9863C27.146 19.9863 28.2644 18.8679 28.2644 17.4882C28.2644 16.1085 27.146 14.9901 25.7663 14.9901C24.3866 14.9901 23.2682 16.1085 23.2682 17.4882C23.2682 18.8679 24.3866 19.9863 25.7663 19.9863Z" fill="url(#paint36_linear_4002_2325)"/>
<path d="M25.7663 19.9863C27.146 19.9863 28.2644 18.8679 28.2644 17.4882C28.2644 16.1085 27.146 14.9901 25.7663 14.9901C24.3866 14.9901 23.2682 16.1085 23.2682 17.4882C23.2682 18.8679 24.3866 19.9863 25.7663 19.9863Z" fill="url(#paint37_radial_4002_2325)"/>
<path d="M25.7663 19.9863C27.146 19.9863 28.2644 18.8679 28.2644 17.4882C28.2644 16.1085 27.146 14.9901 25.7663 14.9901C24.3866 14.9901 23.2682 16.1085 23.2682 17.4882C23.2682 18.8679 24.3866 19.9863 25.7663 19.9863Z" fill="url(#paint38_radial_4002_2325)"/>
<path d="M25.7663 19.9863C27.146 19.9863 28.2644 18.8679 28.2644 17.4882C28.2644 16.1085 27.146 14.9901 25.7663 14.9901C24.3866 14.9901 23.2682 16.1085 23.2682 17.4882C23.2682 18.8679 24.3866 19.9863 25.7663 19.9863Z" fill="url(#paint39_radial_4002_2325)"/>
<g filter="url(#filter3_i_4002_2325)">
<path d="M28.2136 16.828L23.3697 16.8077C23.0448 16.8077 22.7909 17.0616 22.7909 17.3866C22.7909 17.7115 23.0448 17.9654 23.3697 17.9654L28.2136 17.9857C28.5386 17.9857 28.7924 17.7318 28.7924 17.4069C28.7924 17.0921 28.5284 16.828 28.2136 16.828Z" fill="url(#paint40_linear_4002_2325)"/>
<path d="M28.2136 16.828L23.3697 16.8077C23.0448 16.8077 22.7909 17.0616 22.7909 17.3866C22.7909 17.7115 23.0448 17.9654 23.3697 17.9654L28.2136 17.9857C28.5386 17.9857 28.7924 17.7318 28.7924 17.4069C28.7924 17.0921 28.5284 16.828 28.2136 16.828Z" fill="url(#paint41_radial_4002_2325)"/>
<path d="M28.2136 16.828L23.3697 16.8077C23.0448 16.8077 22.7909 17.0616 22.7909 17.3866C22.7909 17.7115 23.0448 17.9654 23.3697 17.9654L28.2136 17.9857C28.5386 17.9857 28.7924 17.7318 28.7924 17.4069C28.7924 17.0921 28.5284 16.828 28.2136 16.828Z" fill="url(#paint42_linear_4002_2325)"/>
</g>
<path d="M25.7257 26.6275C25.3195 26.6275 24.9844 26.3229 24.9438 25.9167L24.2736 19.4886L27.2489 19.4988L26.5178 25.9268C26.467 26.333 26.1217 26.6275 25.7257 26.6275Z" fill="url(#paint43_linear_4002_2325)"/>
<path d="M25.7257 26.6275C25.3195 26.6275 24.9844 26.3229 24.9438 25.9167L24.2736 19.4886L27.2489 19.4988L26.5178 25.9268C26.467 26.333 26.1217 26.6275 25.7257 26.6275Z" fill="url(#paint44_linear_4002_2325)"/>
<path d="M25.7257 26.6275C25.3195 26.6275 24.9844 26.3229 24.9438 25.9167L24.2736 19.4886L27.2489 19.4988L26.5178 25.9268C26.467 26.333 26.1217 26.6275 25.7257 26.6275Z" fill="url(#paint45_linear_4002_2325)"/>
<g filter="url(#filter4_ii_4002_2325)">
<path d="M25.7358 21.9157C26.0051 21.9157 26.2233 21.6974 26.2233 21.4282C26.2233 21.159 26.0051 20.9408 25.7358 20.9408C25.4666 20.9408 25.2484 21.159 25.2484 21.4282C25.2484 21.6974 25.4666 21.9157 25.7358 21.9157Z" fill="url(#paint46_radial_4002_2325)"/>
</g>
<g filter="url(#filter5_i_4002_2325)">
<path d="M23.1275 23.6743C23.1275 23.2345 23.493 22.8722 23.9439 22.8722H26.9984C27.743 22.8722 28.3467 23.4611 28.3467 24.1875V27.7017C28.3467 28.307 27.8436 28.7977 27.2231 28.7977H23.9439C23.493 28.7977 23.1275 28.4354 23.1275 27.9956C23.1275 27.6813 23.3142 27.4066 23.5852 27.2754C23.3142 27.1441 23.1275 26.8694 23.1275 26.5552C23.1275 26.2409 23.3142 25.9662 23.5852 25.835C23.3142 25.7037 23.1275 25.429 23.1275 25.1148C23.1275 24.8005 23.3142 24.5258 23.5852 24.3945C23.3142 24.2633 23.1275 23.9886 23.1275 23.6743Z" fill="url(#paint47_linear_4002_2325)"/>
<path d="M23.1275 23.6743C23.1275 23.2345 23.493 22.8722 23.9439 22.8722H26.9984C27.743 22.8722 28.3467 23.4611 28.3467 24.1875V27.7017C28.3467 28.307 27.8436 28.7977 27.2231 28.7977H23.9439C23.493 28.7977 23.1275 28.4354 23.1275 27.9956C23.1275 27.6813 23.3142 27.4066 23.5852 27.2754C23.3142 27.1441 23.1275 26.8694 23.1275 26.5552C23.1275 26.2409 23.3142 25.9662 23.5852 25.835C23.3142 25.7037 23.1275 25.429 23.1275 25.1148C23.1275 24.8005 23.3142 24.5258 23.5852 24.3945C23.3142 24.2633 23.1275 23.9886 23.1275 23.6743Z" fill="url(#paint48_radial_4002_2325)"/>
<path d="M23.1275 23.6743C23.1275 23.2345 23.493 22.8722 23.9439 22.8722H26.9984C27.743 22.8722 28.3467 23.4611 28.3467 24.1875V27.7017C28.3467 28.307 27.8436 28.7977 27.2231 28.7977H23.9439C23.493 28.7977 23.1275 28.4354 23.1275 27.9956C23.1275 27.6813 23.3142 27.4066 23.5852 27.2754C23.3142 27.1441 23.1275 26.8694 23.1275 26.5552C23.1275 26.2409 23.3142 25.9662 23.5852 25.835C23.3142 25.7037 23.1275 25.429 23.1275 25.1148C23.1275 24.8005 23.3142 24.5258 23.5852 24.3945C23.3142 24.2633 23.1275 23.9886 23.1275 23.6743Z" fill="url(#paint49_radial_4002_2325)"/>
<path d="M23.1275 23.6743C23.1275 23.2345 23.493 22.8722 23.9439 22.8722H26.9984C27.743 22.8722 28.3467 23.4611 28.3467 24.1875V27.7017C28.3467 28.307 27.8436 28.7977 27.2231 28.7977H23.9439C23.493 28.7977 23.1275 28.4354 23.1275 27.9956C23.1275 27.6813 23.3142 27.4066 23.5852 27.2754C23.3142 27.1441 23.1275 26.8694 23.1275 26.5552C23.1275 26.2409 23.3142 25.9662 23.5852 25.835C23.3142 25.7037 23.1275 25.429 23.1275 25.1148C23.1275 24.8005 23.3142 24.5258 23.5852 24.3945C23.3142 24.2633 23.1275 23.9886 23.1275 23.6743Z" fill="url(#paint50_radial_4002_2325)"/>
<path d="M23.1275 23.6743C23.1275 23.2345 23.493 22.8722 23.9439 22.8722H26.9984C27.743 22.8722 28.3467 23.4611 28.3467 24.1875V27.7017C28.3467 28.307 27.8436 28.7977 27.2231 28.7977H23.9439C23.493 28.7977 23.1275 28.4354 23.1275 27.9956C23.1275 27.6813 23.3142 27.4066 23.5852 27.2754C23.3142 27.1441 23.1275 26.8694 23.1275 26.5552C23.1275 26.2409 23.3142 25.9662 23.5852 25.835C23.3142 25.7037 23.1275 25.429 23.1275 25.1148C23.1275 24.8005 23.3142 24.5258 23.5852 24.3945C23.3142 24.2633 23.1275 23.9886 23.1275 23.6743Z" fill="url(#paint51_radial_4002_2325)"/>
</g>
<path d="M23.1275 23.6743C23.1275 23.2345 23.493 22.8722 23.9439 22.8722H26.9984C27.743 22.8722 28.3467 23.4611 28.3467 24.1875V27.7017C28.3467 28.307 27.8436 28.7977 27.2231 28.7977H23.9439C23.493 28.7977 23.1275 28.4354 23.1275 27.9956C23.1275 27.6813 23.3142 27.4066 23.5852 27.2754C23.3142 27.1441 23.1275 26.8694 23.1275 26.5552C23.1275 26.2409 23.3142 25.9662 23.5852 25.835C23.3142 25.7037 23.1275 25.429 23.1275 25.1148C23.1275 24.8005 23.3142 24.5258 23.5852 24.3945C23.3142 24.2633 23.1275 23.9886 23.1275 23.6743Z" fill="url(#paint52_radial_4002_2325)"/>
<g filter="url(#filter6_f_4002_2325)">
<path d="M23.7423 24.3932H25.7613" stroke="url(#paint53_linear_4002_2325)" stroke-width="0.1" stroke-linecap="round"/>
</g>
<g filter="url(#filter7_f_4002_2325)">
<path d="M23.7423 25.8348H25.7613" stroke="url(#paint54_linear_4002_2325)" stroke-width="0.1" stroke-linecap="round"/>
</g>
<g filter="url(#filter8_f_4002_2325)">
<path d="M23.7423 27.2653H25.7613" stroke="url(#paint55_linear_4002_2325)" stroke-width="0.1" stroke-linecap="round"/>
</g>
<path d="M15.4608 16.8243C15.7167 16.8346 15.9828 16.855 16.249 16.8755C15.9828 16.855 15.7269 16.8346 15.4608 16.8243Z" fill="url(#paint56_linear_4002_2325)"/>
<path d="M15.123 16.8243C15.1127 16.8243 15.1025 16.8243 15.082 16.8243C15.1844 16.8243 15.2765 16.8243 15.3789 16.8346C15.297 16.8243 15.2049 16.8243 15.123 16.8243Z" fill="url(#paint57_linear_4002_2325)"/>
<g filter="url(#filter9_i_4002_2325)">
<path d="M10.3013 13.5786C11.211 13.5786 11.9484 12.8412 11.9484 11.9316C11.9484 11.022 11.211 10.2845 10.3013 10.2845C9.3917 10.2845 8.6543 11.022 8.6543 11.9316C8.6543 12.8412 9.3917 13.5786 10.3013 13.5786Z" fill="url(#paint58_linear_4002_2325)"/>
</g>
<g filter="url(#filter10_i_4002_2325)">
<path d="M20.0386 13.5786C20.9483 13.5786 21.6857 12.8412 21.6857 11.9316C21.6857 11.022 20.9483 10.2845 20.0386 10.2845C19.129 10.2845 18.3916 11.022 18.3916 11.9316C18.3916 12.8412 19.129 13.5786 20.0386 13.5786Z" fill="url(#paint59_radial_4002_2325)"/>
<path d="M20.0386 13.5786C20.9483 13.5786 21.6857 12.8412 21.6857 11.9316C21.6857 11.022 20.9483 10.2845 20.0386 10.2845C19.129 10.2845 18.3916 11.022 18.3916 11.9316C18.3916 12.8412 19.129 13.5786 20.0386 13.5786Z" fill="url(#paint60_radial_4002_2325)"/>
</g>
<g filter="url(#filter11_f_4002_2325)">
<path d="M20.0387 13.0311C20.6459 13.0311 21.1381 12.5388 21.1381 11.9316C21.1381 11.3244 20.6459 10.8322 20.0387 10.8322C19.4314 10.8322 18.9392 11.3244 18.9392 11.9316C18.9392 12.5388 19.4314 13.0311 20.0387 13.0311Z" fill="#F6BCA5"/>
<path d="M20.0387 13.0311C20.6459 13.0311 21.1381 12.5388 21.1381 11.9316C21.1381 11.3244 20.6459 10.8322 20.0387 10.8322C19.4314 10.8322 18.9392 11.3244 18.9392 11.9316C18.9392 12.5388 19.4314 13.0311 20.0387 13.0311Z" fill="url(#paint61_radial_4002_2325)"/>
</g>
<g filter="url(#filter12_f_4002_2325)">
<path d="M10.321 13.0311C10.9282 13.0311 11.4205 12.5388 11.4205 11.9316C11.4205 11.3244 10.9282 10.8322 10.321 10.8322C9.7138 10.8322 9.22156 11.3244 9.22156 11.9316C9.22156 12.5388 9.7138 13.0311 10.321 13.0311Z" fill="#C58C80"/>
<path d="M10.321 13.0311C10.9282 13.0311 11.4205 12.5388 11.4205 11.9316C11.4205 11.3244 10.9282 10.8322 10.321 10.8322C9.7138 10.8322 9.22156 11.3244 9.22156 11.9316C9.22156 12.5388 9.7138 13.0311 10.321 13.0311Z" fill="url(#paint62_radial_4002_2325)"/>
</g>
<g filter="url(#filter13_i_4002_2325)">
<path d="M9.89023 10.6392H9.90283L9.89233 10.3676L9.88184 10.0543C9.90283 9.08308 10.4697 8.7071 10.7111 8.58178C10.7268 8.57656 10.7452 8.56872 10.7636 8.56089C10.7819 8.55306 10.8003 8.54523 10.816 8.54C11.3619 8.28936 11.8027 7.85072 12.0337 7.27632L12.1176 7.07789C12.2016 6.87946 12.464 6.84813 12.59 7.02567C13.3248 8.10137 14.5529 8.73843 15.8545 8.73843H19.1505C19.3348 8.73843 20.2581 8.82787 20.3131 10.1021L20.1916 13.2476C20.0653 16.1162 17.8252 18.0424 15.0908 18.0424C12.3563 18.0424 10.1162 16.1162 9.98997 13.2476L9.89023 10.6392Z" fill="url(#paint63_radial_4002_2325)"/>
<path d="M9.89023 10.6392H9.90283L9.89233 10.3676L9.88184 10.0543C9.90283 9.08308 10.4697 8.7071 10.7111 8.58178C10.7268 8.57656 10.7452 8.56872 10.7636 8.56089C10.7819 8.55306 10.8003 8.54523 10.816 8.54C11.3619 8.28936 11.8027 7.85072 12.0337 7.27632L12.1176 7.07789C12.2016 6.87946 12.464 6.84813 12.59 7.02567C13.3248 8.10137 14.5529 8.73843 15.8545 8.73843H19.1505C19.3348 8.73843 20.2581 8.82787 20.3131 10.1021L20.1916 13.2476C20.0653 16.1162 17.8252 18.0424 15.0908 18.0424C12.3563 18.0424 10.1162 16.1162 9.98997 13.2476L9.89023 10.6392Z" fill="url(#paint64_radial_4002_2325)"/>
<path d="M9.89023 10.6392H9.90283L9.89233 10.3676L9.88184 10.0543C9.90283 9.08308 10.4697 8.7071 10.7111 8.58178C10.7268 8.57656 10.7452 8.56872 10.7636 8.56089C10.7819 8.55306 10.8003 8.54523 10.816 8.54C11.3619 8.28936 11.8027 7.85072 12.0337 7.27632L12.1176 7.07789C12.2016 6.87946 12.464 6.84813 12.59 7.02567C13.3248 8.10137 14.5529 8.73843 15.8545 8.73843H19.1505C19.3348 8.73843 20.2581 8.82787 20.3131 10.1021L20.1916 13.2476C20.0653 16.1162 17.8252 18.0424 15.0908 18.0424C12.3563 18.0424 10.1162 16.1162 9.98997 13.2476L9.89023 10.6392Z" fill="url(#paint65_radial_4002_2325)"/>
<path d="M9.89023 10.6392H9.90283L9.89233 10.3676L9.88184 10.0543C9.90283 9.08308 10.4697 8.7071 10.7111 8.58178C10.7268 8.57656 10.7452 8.56872 10.7636 8.56089C10.7819 8.55306 10.8003 8.54523 10.816 8.54C11.3619 8.28936 11.8027 7.85072 12.0337 7.27632L12.1176 7.07789C12.2016 6.87946 12.464 6.84813 12.59 7.02567C13.3248 8.10137 14.5529 8.73843 15.8545 8.73843H19.1505C19.3348 8.73843 20.2581 8.82787 20.3131 10.1021L20.1916 13.2476C20.0653 16.1162 17.8252 18.0424 15.0908 18.0424C12.3563 18.0424 10.1162 16.1162 9.98997 13.2476L9.89023 10.6392Z" fill="url(#paint66_radial_4002_2325)"/>
<path d="M9.89023 10.6392H9.90283L9.89233 10.3676L9.88184 10.0543C9.90283 9.08308 10.4697 8.7071 10.7111 8.58178C10.7268 8.57656 10.7452 8.56872 10.7636 8.56089C10.7819 8.55306 10.8003 8.54523 10.816 8.54C11.3619 8.28936 11.8027 7.85072 12.0337 7.27632L12.1176 7.07789C12.2016 6.87946 12.464 6.84813 12.59 7.02567C13.3248 8.10137 14.5529 8.73843 15.8545 8.73843H19.1505C19.3348 8.73843 20.2581 8.82787 20.3131 10.1021L20.1916 13.2476C20.0653 16.1162 17.8252 18.0424 15.0908 18.0424C12.3563 18.0424 10.1162 16.1162 9.98997 13.2476L9.89023 10.6392Z" fill="url(#paint67_radial_4002_2325)"/>
<path d="M9.89023 10.6392H9.90283L9.89233 10.3676L9.88184 10.0543C9.90283 9.08308 10.4697 8.7071 10.7111 8.58178C10.7268 8.57656 10.7452 8.56872 10.7636 8.56089C10.7819 8.55306 10.8003 8.54523 10.816 8.54C11.3619 8.28936 11.8027 7.85072 12.0337 7.27632L12.1176 7.07789C12.2016 6.87946 12.464 6.84813 12.59 7.02567C13.3248 8.10137 14.5529 8.73843 15.8545 8.73843H19.1505C19.3348 8.73843 20.2581 8.82787 20.3131 10.1021L20.1916 13.2476C20.0653 16.1162 17.8252 18.0424 15.0908 18.0424C12.3563 18.0424 10.1162 16.1162 9.98997 13.2476L9.89023 10.6392Z" fill="url(#paint68_radial_4002_2325)"/>
<path d="M9.89023 10.6392H9.90283L9.89233 10.3676L9.88184 10.0543C9.90283 9.08308 10.4697 8.7071 10.7111 8.58178C10.7268 8.57656 10.7452 8.56872 10.7636 8.56089C10.7819 8.55306 10.8003 8.54523 10.816 8.54C11.3619 8.28936 11.8027 7.85072 12.0337 7.27632L12.1176 7.07789C12.2016 6.87946 12.464 6.84813 12.59 7.02567C13.3248 8.10137 14.5529 8.73843 15.8545 8.73843H19.1505C19.3348 8.73843 20.2581 8.82787 20.3131 10.1021L20.1916 13.2476C20.0653 16.1162 17.8252 18.0424 15.0908 18.0424C12.3563 18.0424 10.1162 16.1162 9.98997 13.2476L9.89023 10.6392Z" fill="url(#paint69_radial_4002_2325)"/>
</g>
<path d="M9.89023 10.6392H9.90283L9.89233 10.3676L9.88184 10.0543C9.90283 9.08308 10.4697 8.7071 10.7111 8.58178C10.7268 8.57656 10.7452 8.56872 10.7636 8.56089C10.7819 8.55306 10.8003 8.54523 10.816 8.54C11.3619 8.28936 11.8027 7.85072 12.0337 7.27632L12.1176 7.07789C12.2016 6.87946 12.464 6.84813 12.59 7.02567C13.3248 8.10137 14.5529 8.73843 15.8545 8.73843H19.1505C19.3348 8.73843 20.2581 8.82787 20.3131 10.1021L20.1916 13.2476C20.0653 16.1162 17.8252 18.0424 15.0908 18.0424C12.3563 18.0424 10.1162 16.1162 9.98997 13.2476L9.89023 10.6392Z" fill="url(#paint70_radial_4002_2325)"/>
<path d="M9.89023 10.6392H9.90283L9.89233 10.3676L9.88184 10.0543C9.90283 9.08308 10.4697 8.7071 10.7111 8.58178C10.7268 8.57656 10.7452 8.56872 10.7636 8.56089C10.7819 8.55306 10.8003 8.54523 10.816 8.54C11.3619 8.28936 11.8027 7.85072 12.0337 7.27632L12.1176 7.07789C12.2016 6.87946 12.464 6.84813 12.59 7.02567C13.3248 8.10137 14.5529 8.73843 15.8545 8.73843H19.1505C19.3348 8.73843 20.2581 8.82787 20.3131 10.1021L20.1916 13.2476C20.0653 16.1162 17.8252 18.0424 15.0908 18.0424C12.3563 18.0424 10.1162 16.1162 9.98997 13.2476L9.89023 10.6392Z" fill="url(#paint71_radial_4002_2325)"/>
<g filter="url(#filter14_f_4002_2325)">
<path d="M14.6956 11.7035L13.9959 13.4436C13.8848 13.8016 14.1513 14.1595 14.5288 14.1595H15.3337C15.7112 14.1595 15.9776 13.7961 15.8666 13.4436L15.3226 11.7035C15.206 11.3181 14.8177 11.3181 14.6956 11.7035Z" fill="#D19590"/>
</g>
<g filter="url(#filter15_f_4002_2325)">
<path d="M14.7061 11.5619L14.1621 13.302C14.0511 13.66 14.3176 14.0179 14.695 14.0179H15.5C15.8774 14.0179 16.1439 13.6545 16.0329 13.302L15.4888 11.5619C15.3723 11.1765 14.8283 11.1765 14.7061 11.5619Z" fill="#F1C4B2"/>
<path d="M14.7061 11.5619L14.1621 13.302C14.0511 13.66 14.3176 14.0179 14.695 14.0179H15.5C15.8774 14.0179 16.1439 13.6545 16.0329 13.302L15.4888 11.5619C15.3723 11.1765 14.8283 11.1765 14.7061 11.5619Z" fill="url(#paint72_radial_4002_2325)"/>
<path d="M14.7061 11.5619L14.1621 13.302C14.0511 13.66 14.3176 14.0179 14.695 14.0179H15.5C15.8774 14.0179 16.1439 13.6545 16.0329 13.302L15.4888 11.5619C15.3723 11.1765 14.8283 11.1765 14.7061 11.5619Z" fill="url(#paint73_linear_4002_2325)"/>
<path d="M14.7061 11.5619L14.1621 13.302C14.0511 13.66 14.3176 14.0179 14.695 14.0179H15.5C15.8774 14.0179 16.1439 13.6545 16.0329 13.302L15.4888 11.5619C15.3723 11.1765 14.8283 11.1765 14.7061 11.5619Z" fill="url(#paint74_linear_4002_2325)"/>
<path d="M14.7061 11.5619L14.1621 13.302C14.0511 13.66 14.3176 14.0179 14.695 14.0179H15.5C15.8774 14.0179 16.1439 13.6545 16.0329 13.302L15.4888 11.5619C15.3723 11.1765 14.8283 11.1765 14.7061 11.5619Z" fill="url(#paint75_radial_4002_2325)"/>
</g>
<path d="M14.7061 11.5619L14.1621 13.302C14.0511 13.66 14.3176 14.0179 14.695 14.0179H15.5C15.8774 14.0179 16.1439 13.6545 16.0329 13.302L15.4888 11.5619C15.3723 11.1765 14.8283 11.1765 14.7061 11.5619Z" fill="url(#paint76_linear_4002_2325)"/>
<path d="M14.7061 11.5619L14.1621 13.302C14.0511 13.66 14.3176 14.0179 14.695 14.0179H15.5C15.8774 14.0179 16.1439 13.6545 16.0329 13.302L15.4888 11.5619C15.3723 11.1765 14.8283 11.1765 14.7061 11.5619Z" fill="url(#paint77_radial_4002_2325)"/>
<path d="M14.0957 8.32907C13.4983 8.03484 12.9761 7.59078 12.5901 7.02567C12.4668 6.85188 12.2128 6.87823 12.1233 7.06553L10.2174 12.6765H12.1123L11.5901 15.5972L15.5108 10.0929H13.4905L14.0957 8.32907Z" fill="url(#paint78_radial_4002_2325)"/>
<path d="M14.0957 8.32907C13.4983 8.03484 12.9761 7.59078 12.5901 7.02567C12.4668 6.85188 12.2128 6.87823 12.1233 7.06553L10.2174 12.6765H12.1123L11.5901 15.5972L15.5108 10.0929H13.4905L14.0957 8.32907Z" fill="url(#paint79_radial_4002_2325)"/>
<path d="M13.6659 14.5149L13.6659 14.5149C14.0795 14.7354 14.5724 14.8618 15.0975 14.8618C15.6279 14.8618 16.1155 14.7354 16.5291 14.5149L16.5296 14.5146L16.5296 14.5146C16.6236 14.4657 16.722 14.4942 16.7809 14.5568C16.8402 14.6198 16.8617 14.7198 16.8025 14.8107M13.6659 14.5149L16.7605 14.7835M13.6659 14.5149L13.6654 14.5146C13.5707 14.4654 13.4722 14.4962 13.4138 14.559C13.3554 14.622 13.3328 14.7221 13.3928 14.8111M13.6659 14.5149L13.4345 14.7835M16.8025 14.8107C16.8025 14.8107 16.8024 14.8108 16.8024 14.8108L16.7605 14.7835M16.8025 14.8107C16.8025 14.8107 16.8025 14.8106 16.8025 14.8106L16.7605 14.7835M16.8025 14.8107C16.4419 15.3695 15.8135 15.7423 15.0975 15.7423C14.3816 15.7423 13.7534 15.3697 13.3928 14.8111M16.7605 14.7835C16.4087 15.3288 15.7958 15.6923 15.0975 15.6923C14.3993 15.6923 13.7863 15.3288 13.4345 14.7835M13.3928 14.8111C13.3929 14.8112 13.393 14.8114 13.3931 14.8116L13.4345 14.7835M13.3928 14.8111C13.3927 14.8109 13.3926 14.8108 13.3925 14.8106L13.4345 14.7835" fill="#88024E" stroke="url(#paint80_linear_4002_2325)" stroke-width="0.1"/>
<g filter="url(#filter16_i_4002_2325)">
<path d="M16.2664 11.349C16.5381 10.8712 16.9511 10.4938 17.8401 10.4938C18.2293 10.4938 18.6046 10.6016 18.9382 10.8712C19.2133 11.0936 19.1765 11.378 18.9634 11.4846L18.3942 11.8095C17.727 11.5939 16.9892 11.5647 16.2664 11.349Z" fill="#2D2B2E"/>
</g>
<g filter="url(#filter17_i_4002_2325)">
<path d="M13.9286 11.349C13.657 10.8712 13.244 10.4938 12.355 10.4938C11.9658 10.4938 11.5905 10.6016 11.2569 10.8712C10.9817 11.0936 11.0186 11.378 11.2317 11.4846L11.8008 11.8095C12.468 11.5939 13.2058 11.5647 13.9286 11.349Z" fill="#272528"/>
</g>
<g filter="url(#filter18_i_4002_2325)">
<path d="M11.6197 10.1117L11.6152 10.1143C11.6151 10.1143 11.6149 10.1144 11.6148 10.1145C11.4848 10.1921 11.3165 10.1499 11.2386 10.0201C11.1606 9.8901 11.2029 9.72139 11.3329 9.64339L11.3335 9.64303L11.3345 9.64241L11.3376 9.64062L11.3472 9.63505C11.3552 9.63048 11.3663 9.62424 11.3804 9.61661C11.4085 9.60136 11.4486 9.58052 11.4991 9.55644C11.6 9.50836 11.7437 9.4468 11.9189 9.39089C12.2668 9.27986 12.7533 9.18645 13.2785 9.27913C13.4278 9.30548 13.5275 9.44787 13.5011 9.59717C13.4748 9.74646 13.3324 9.84614 13.1831 9.81979C12.775 9.74777 12.383 9.81906 12.0859 9.91391C11.9385 9.96094 11.8181 10.0126 11.7353 10.052C11.6941 10.0717 11.6625 10.0882 11.642 10.0993C11.6317 10.1049 11.6242 10.1091 11.6197 10.1117Z" fill="#1E1E1E"/>
</g>
<g filter="url(#filter19_i_4002_2325)">
<path fill-rule="evenodd" clip-rule="evenodd" d="M18.917 9.64339C18.9171 9.64343 18.9171 9.64348 18.7759 9.87887L18.917 9.64339C19.047 9.72139 19.0893 9.8901 19.0113 10.0201C18.9334 10.1499 18.7651 10.1921 18.6352 10.1146C18.6351 10.1145 18.635 10.1144 18.6347 10.1143L18.6302 10.1117C18.6257 10.1091 18.6182 10.1049 18.6079 10.0993C18.5874 10.0882 18.5558 10.0717 18.5145 10.052C18.4318 10.0126 18.3114 9.96094 18.164 9.91391C17.8668 9.81906 17.4749 9.74777 17.0668 9.81979C16.9175 9.84614 16.7751 9.74646 16.7487 9.59717C16.7224 9.44787 16.8221 9.30548 16.9714 9.27913C17.4965 9.18645 17.983 9.27986 18.3309 9.39089C18.5061 9.4468 18.6499 9.50836 18.7508 9.55644C18.8013 9.58052 18.8413 9.60136 18.8695 9.61661C18.8836 9.62424 18.8947 9.63048 18.9027 9.63505L18.9123 9.64062L18.9153 9.64241L18.9164 9.64303L18.917 9.64339Z" fill="#1E1E1E"/>
</g>
<path d="M17.5448 10.5541C18.2133 10.5541 18.778 11.015 18.9317 11.6378C18.9773 11.8164 18.8403 11.9866 18.6576 11.9866H16.3739C16.2285 11.9866 16.1123 11.8537 16.1413 11.7084C16.27 11.0524 16.8472 10.5541 17.5448 10.5541Z" fill="white"/>
<path d="M17.3331 10.8322C17.8396 10.8322 18.2466 11.2432 18.2466 11.7457C18.2466 11.8287 18.2341 11.9117 18.2133 11.9865H16.4486C16.4279 11.9076 16.4154 11.8287 16.4154 11.7457C16.4154 11.2432 16.8265 10.8322 17.3331 10.8322Z" fill="url(#paint81_radial_4002_2325)"/>
<path d="M16.8099 11.7457C16.8099 11.4551 17.0425 11.2225 17.3331 11.2225C17.6238 11.2225 17.8563 11.4551 17.8563 11.7457C17.8563 11.8329 17.8355 11.916 17.7982 11.9866H16.8722C16.8307 11.916 16.8099 11.8329 16.8099 11.7457Z" fill="black"/>
<g filter="url(#filter20_f_4002_2325)">
<path d="M17.2659 11.0253C17.331 11.1124 17.1949 11.2185 17.0402 11.3341C16.8856 11.4498 16.7708 11.5312 16.7057 11.4441C16.6407 11.3571 16.7133 11.1927 16.868 11.0771C17.0226 10.9615 17.2008 10.9383 17.2659 11.0253Z" fill="#C7A7A3"/>
<path d="M17.2659 11.0253C17.331 11.1124 17.1949 11.2185 17.0402 11.3341C16.8856 11.4498 16.7708 11.5312 16.7057 11.4441C16.6407 11.3571 16.7133 11.1927 16.868 11.0771C17.0226 10.9615 17.2008 10.9383 17.2659 11.0253Z" fill="url(#paint82_radial_4002_2325)"/>
</g>
<g filter="url(#filter21_f_4002_2325)">
<path d="M18.1467 11.6254C18.113 11.3892 17.9748 11.2112 17.9099 11.1517L17.6439 11.4437L17.7639 11.6773L18.1467 11.6254Z" fill="url(#paint83_linear_4002_2325)"/>
</g>
<path d="M12.6501 10.5538C11.9816 10.5538 11.4169 11.0147 11.2632 11.6376C11.2176 11.8161 11.3546 11.9864 11.5373 11.9864H13.8211C13.9664 11.9864 14.0827 11.8535 14.0536 11.7082C13.9249 11.0521 13.3435 10.5538 12.6501 10.5538Z" fill="white"/>
<path d="M12.8619 10.8322C12.3553 10.8322 11.9484 11.2432 11.9484 11.7457C11.9484 11.8287 11.9608 11.9118 11.9816 11.9865H13.7463C13.7671 11.9076 13.7795 11.8287 13.7795 11.7457C13.7754 11.2432 13.3685 10.8322 12.8619 10.8322Z" fill="url(#paint84_radial_4002_2325)"/>
<path d="M13.385 11.7457C13.385 11.4551 13.1525 11.2225 12.8618 11.2225C12.5712 11.2225 12.3386 11.4551 12.3386 11.7457C12.3386 11.8329 12.3594 11.916 12.3968 11.9866H13.3227C13.3601 11.916 13.385 11.8329 13.385 11.7457Z" fill="black"/>
<g filter="url(#filter22_f_4002_2325)">
<path d="M13.6963 11.6383C13.6963 11.3431 13.4563 11.1463 13.3914 11.0868L13.0962 11.3723L13.2779 11.7421L13.6963 11.6383Z" fill="url(#paint85_linear_4002_2325)"/>
</g>
<g filter="url(#filter23_f_4002_2325)">
<ellipse cx="12.5863" cy="11.2225" rx="0.398794" ry="0.201827" transform="rotate(-27.914 12.5863 11.2225)" fill="#C7A7A3" fill-opacity="0.9"/>
<ellipse cx="12.5863" cy="11.2225" rx="0.398794" ry="0.201827" transform="rotate(-27.914 12.5863 11.2225)" fill="url(#paint86_radial_4002_2325)"/>
</g>
<g filter="url(#filter24_f_4002_2325)">
<path d="M17.0828 9.50302C17.4129 9.42271 18.2339 9.46287 18.7827 9.85551" stroke="#323233" stroke-width="0.2" stroke-linecap="round"/>
</g>
<g filter="url(#filter25_f_4002_2325)">
<path d="M13.2024 9.50302C12.8722 9.42271 12.0513 9.46287 11.5025 9.85551" stroke="#323233" stroke-width="0.2" stroke-linecap="round"/>
</g>
<g filter="url(#filter26_if_4002_2325)">
<path d="M9.90882 5.80202C10.4879 5.18865 11.5837 5.18767 12.09 5.27917L12.495 6.60024C12.2362 6.56021 12.0056 6.65171 11.8115 6.84044C11.3525 8.13062 9.77519 8.84205 9.04391 9.0365C8.89203 7.50955 9.15526 6.60024 9.90882 5.80202Z" fill="#232121"/>
<path d="M9.90882 5.80202C10.4879 5.18865 11.5837 5.18767 12.09 5.27917L12.495 6.60024C12.2362 6.56021 12.0056 6.65171 11.8115 6.84044C11.3525 8.13062 9.77519 8.84205 9.04391 9.0365C8.89203 7.50955 9.15526 6.60024 9.90882 5.80202Z" fill="url(#paint87_radial_4002_2325)"/>
</g>
<g filter="url(#filter27_if_4002_2325)">
<path d="M14.48 3.9571C13.3206 3.70113 12.2795 4.85783 12.1594 5.28675C13.236 8.91539 15.96 8.71662 18.649 8.41785C20.2587 8.23899 20.4333 8.97258 20.5706 9.32715C20.5706 5.30167 17.1475 4.54599 14.5093 3.96357L14.48 3.9571Z" fill="#2A2A2A"/>
<path d="M14.48 3.9571C13.3206 3.70113 12.2795 4.85783 12.1594 5.28675C13.236 8.91539 15.96 8.71662 18.649 8.41785C20.2587 8.23899 20.4333 8.97258 20.5706 9.32715C20.5706 5.30167 17.1475 4.54599 14.5093 3.96357L14.48 3.9571Z" fill="url(#paint88_radial_4002_2325)"/>
<path d="M14.48 3.9571C13.3206 3.70113 12.2795 4.85783 12.1594 5.28675C13.236 8.91539 15.96 8.71662 18.649 8.41785C20.2587 8.23899 20.4333 8.97258 20.5706 9.32715C20.5706 5.30167 17.1475 4.54599 14.5093 3.96357L14.48 3.9571Z" fill="url(#paint89_radial_4002_2325)"/>
</g>
<g filter="url(#filter28_f_4002_2325)">
<path d="M12.1379 5.23523C12.1618 5.484 12.3781 6.41904 12.6955 6.98521" stroke="url(#paint90_linear_4002_2325)" stroke-width="0.2" stroke-linecap="round"/>
</g>
<g filter="url(#filter29_f_4002_2325)">
<path d="M17.5606 7.65208L16.1016 7.92046C15.6688 8.00008 15.2698 7.66776 15.2698 7.2277C15.2698 6.83868 15.5847 6.52332 15.9737 6.52332H18.3697C19.7867 6.52332 20.2558 7.95147 20.3132 8.43948C19.5691 7.76126 18.5508 7.46994 17.5606 7.65208Z" fill="#4B4648"/>
</g>
<defs>
<filter id="filter0_i_4002_2325" x="7.41125" y="2.45227" width="15.6224" height="16.1224" filterUnits="userSpaceOnUse" color-interpolation-filters="sRGB">
<feFlood flood-opacity="0" result="BackgroundImageFix"/>
<feBlend mode="normal" in="SourceGraphic" in2="BackgroundImageFix" result="shape"/>
<feColorMatrix in="SourceAlpha" type="matrix" values="0 0 0 0 0 0 0 0 0 0 0 0 0 0 0 0 0 0 127 0" result="hardAlpha"/>
<feOffset dx="0.25" dy="-0.75"/>
<feGaussianBlur stdDeviation="0.75"/>
<feComposite in2="hardAlpha" operator="arithmetic" k2="-1" k3="1"/>
<feColorMatrix type="matrix" values="0 0 0 0 0.121569 0 0 0 0 0.0705882 0 0 0 0 0.164706 0 0 0 1 0"/>
<feBlend mode="normal" in2="shape" result="effect1_innerShadow_4002_2325"/>
</filter>
<filter id="filter1_i_4002_2325" x="12.8475" y="24.0477" width="5.51311" height="4.73999" filterUnits="userSpaceOnUse" color-interpolation-filters="sRGB">
<feFlood flood-opacity="0" result="BackgroundImageFix"/>
<feBlend mode="normal" in="SourceGraphic" in2="BackgroundImageFix" result="shape"/>
<feColorMatrix in="SourceAlpha" type="matrix" values="0 0 0 0 0 0 0 0 0 0 0 0 0 0 0 0 0 0 127 0" result="hardAlpha"/>
<feOffset dx="0.2"/>
<feGaussianBlur stdDeviation="0.15"/>
<feComposite in2="hardAlpha" operator="arithmetic" k2="-1" k3="1"/>
<feColorMatrix type="matrix" values="0 0 0 0 0.976471 0 0 0 0 0.780392 0 0 0 0 0.866667 0 0 0 1 0"/>
<feBlend mode="normal" in2="shape" result="effect1_innerShadow_4002_2325"/>
</filter>
<filter id="filter2_f_4002_2325" x="12.4869" y="15.3292" width="5.22126" height="5.42667" filterUnits="userSpaceOnUse" color-interpolation-filters="sRGB">
<feFlood flood-opacity="0" result="BackgroundImageFix"/>
<feBlend mode="normal" in="SourceGraphic" in2="BackgroundImageFix" result="shape"/>
<feGaussianBlur stdDeviation="0.1" result="effect1_foregroundBlur_4002_2325"/>
</filter>
<filter id="filter3_i_4002_2325" x="22.7909" y="16.7577" width="6.10153" height="1.22798" filterUnits="userSpaceOnUse" color-interpolation-filters="sRGB">
<feFlood flood-opacity="0" result="BackgroundImageFix"/>
<feBlend mode="normal" in="SourceGraphic" in2="BackgroundImageFix" result="shape"/>
<feColorMatrix in="SourceAlpha" type="matrix" values="0 0 0 0 0 0 0 0 0 0 0 0 0 0 0 0 0 0 127 0" result="hardAlpha"/>
<feOffset dx="0.1" dy="-0.05"/>
<feGaussianBlur stdDeviation="0.1"/>
<feComposite in2="hardAlpha" operator="arithmetic" k2="-1" k3="1"/>
<feColorMatrix type="matrix" values="0 0 0 0 0.647059 0 0 0 0 0.47451 0 0 0 0 0.54902 0 0 0 1 0"/>
<feBlend mode="normal" in2="shape" result="effect1_innerShadow_4002_2325"/>
</filter>
<filter id="filter4_ii_4002_2325" x="25.1984" y="20.8908" width="1.07488" height="1.07485" filterUnits="userSpaceOnUse" color-interpolation-filters="sRGB">
<feFlood flood-opacity="0" result="BackgroundImageFix"/>
<feBlend mode="normal" in="SourceGraphic" in2="BackgroundImageFix" result="shape"/>
<feColorMatrix in="SourceAlpha" type="matrix" values="0 0 0 0 0 0 0 0 0 0 0 0 0 0 0 0 0 0 127 0" result="hardAlpha"/>
<feOffset dx="0.05" dy="-0.05"/>
<feGaussianBlur stdDeviation="0.025"/>
<feComposite in2="hardAlpha" operator="arithmetic" k2="-1" k3="1"/>
<feColorMatrix type="matrix" values="0 0 0 0 0.694118 0 0 0 0 0.560784 0 0 0 0 0.764706 0 0 0 1 0"/>
<feBlend mode="normal" in2="shape" result="effect1_innerShadow_4002_2325"/>
<feColorMatrix in="SourceAlpha" type="matrix" values="0 0 0 0 0 0 0 0 0 0 0 0 0 0 0 0 0 0 127 0" result="hardAlpha"/>
<feOffset dx="-0.05" dy="0.05"/>
<feGaussianBlur stdDeviation="0.025"/>
<feComposite in2="hardAlpha" operator="arithmetic" k2="-1" k3="1"/>
<feColorMatrix type="matrix" values="0 0 0 0 0.917647 0 0 0 0 0.87451 0 0 0 0 0.976471 0 0 0 1 0"/>
<feBlend mode="normal" in2="effect1_innerShadow_4002_2325" result="effect2_innerShadow_4002_2325"/>
</filter>
<filter id="filter5_i_4002_2325" x="23.1275" y="22.7222" width="5.36918" height="6.07554" filterUnits="userSpaceOnUse" color-interpolation-filters="sRGB">
<feFlood flood-opacity="0" result="BackgroundImageFix"/>
<feBlend mode="normal" in="SourceGraphic" in2="BackgroundImageFix" result="shape"/>
<feColorMatrix in="SourceAlpha" type="matrix" values="0 0 0 0 0 0 0 0 0 0 0 0 0 0 0 0 0 0 127 0" result="hardAlpha"/>
<feOffset dx="0.15" dy="-0.15"/>
<feGaussianBlur stdDeviation="0.5"/>
<feComposite in2="hardAlpha" operator="arithmetic" k2="-1" k3="1"/>
<feColorMatrix type="matrix" values="0 0 0 0 0.729412 0 0 0 0 0.509804 0 0 0 0 0.603922 0 0 0 1 0"/>
<feBlend mode="normal" in2="shape" result="effect1_innerShadow_4002_2325"/>
</filter>
<filter id="filter6_f_4002_2325" x="23.5923" y="24.2432" width="2.31896" height="0.299976" filterUnits="userSpaceOnUse" color-interpolation-filters="sRGB">
<feFlood flood-opacity="0" result="BackgroundImageFix"/>
<feBlend mode="normal" in="SourceGraphic" in2="BackgroundImageFix" result="shape"/>
<feGaussianBlur stdDeviation="0.05" result="effect1_foregroundBlur_4002_2325"/>
</filter>
<filter id="filter7_f_4002_2325" x="23.5923" y="25.6849" width="2.31896" height="0.299976" filterUnits="userSpaceOnUse" color-interpolation-filters="sRGB">
<feFlood flood-opacity="0" result="BackgroundImageFix"/>
<feBlend mode="normal" in="SourceGraphic" in2="BackgroundImageFix" result="shape"/>
<feGaussianBlur stdDeviation="0.05" result="effect1_foregroundBlur_4002_2325"/>
</filter>
<filter id="filter8_f_4002_2325" x="23.5923" y="27.1153" width="2.31896" height="0.299976" filterUnits="userSpaceOnUse" color-interpolation-filters="sRGB">
<feFlood flood-opacity="0" result="BackgroundImageFix"/>
<feBlend mode="normal" in="SourceGraphic" in2="BackgroundImageFix" result="shape"/>
<feGaussianBlur stdDeviation="0.05" result="effect1_foregroundBlur_4002_2325"/>
</filter>
<filter id="filter9_i_4002_2325" x="8.6543" y="10.2845" width="3.4441" height="3.29407" filterUnits="userSpaceOnUse" color-interpolation-filters="sRGB">
<feFlood flood-opacity="0" result="BackgroundImageFix"/>
<feBlend mode="normal" in="SourceGraphic" in2="BackgroundImageFix" result="shape"/>
<feColorMatrix in="SourceAlpha" type="matrix" values="0 0 0 0 0 0 0 0 0 0 0 0 0 0 0 0 0 0 127 0" result="hardAlpha"/>
<feOffset dx="0.15"/>
<feGaussianBlur stdDeviation="0.25"/>
<feComposite in2="hardAlpha" operator="arithmetic" k2="-1" k3="1"/>
<feColorMatrix type="matrix" values="0 0 0 0 0.894118 0 0 0 0 0.682353 0 0 0 0 0.6 0 0 0 1 0"/>
<feBlend mode="normal" in2="shape" result="effect1_innerShadow_4002_2325"/>
</filter>
<filter id="filter10_i_4002_2325" x="18.3916" y="10.0345" width="3.2941" height="3.54407" filterUnits="userSpaceOnUse" color-interpolation-filters="sRGB">
<feFlood flood-opacity="0" result="BackgroundImageFix"/>
<feBlend mode="normal" in="SourceGraphic" in2="BackgroundImageFix" result="shape"/>
<feColorMatrix in="SourceAlpha" type="matrix" values="0 0 0 0 0 0 0 0 0 0 0 0 0 0 0 0 0 0 127 0" result="hardAlpha"/>
<feOffset dy="-0.25"/>
<feGaussianBlur stdDeviation="0.25"/>
<feComposite in2="hardAlpha" operator="arithmetic" k2="-1" k3="1"/>
<feColorMatrix type="matrix" values="0 0 0 0 0.784314 0 0 0 0 0.572549 0 0 0 0 0.513726 0 0 0 1 0"/>
<feBlend mode="normal" in2="shape" result="effect1_innerShadow_4002_2325"/>
</filter>
<filter id="filter11_f_4002_2325" x="18.4392" y="10.3322" width="3.19888" height="3.19891" filterUnits="userSpaceOnUse" color-interpolation-filters="sRGB">
<feFlood flood-opacity="0" result="BackgroundImageFix"/>
<feBlend mode="normal" in="SourceGraphic" in2="BackgroundImageFix" result="shape"/>
<feGaussianBlur stdDeviation="0.25" result="effect1_foregroundBlur_4002_2325"/>
</filter>
<filter id="filter12_f_4002_2325" x="8.82156" y="10.4322" width="2.99888" height="2.99891" filterUnits="userSpaceOnUse" color-interpolation-filters="sRGB">
<feFlood flood-opacity="0" result="BackgroundImageFix"/>
<feBlend mode="normal" in="SourceGraphic" in2="BackgroundImageFix" result="shape"/>
<feGaussianBlur stdDeviation="0.2" result="effect1_foregroundBlur_4002_2325"/>
</filter>
<filter id="filter13_i_4002_2325" x="9.88184" y="6.90906" width="10.4313" height="11.5334" filterUnits="userSpaceOnUse" color-interpolation-filters="sRGB">
<feFlood flood-opacity="0" result="BackgroundImageFix"/>
<feBlend mode="normal" in="SourceGraphic" in2="BackgroundImageFix" result="shape"/>
<feColorMatrix in="SourceAlpha" type="matrix" values="0 0 0 0 0 0 0 0 0 0 0 0 0 0 0 0 0 0 127 0" result="hardAlpha"/>
<feOffset dy="0.4"/>
<feGaussianBlur stdDeviation="0.3"/>
<feComposite in2="hardAlpha" operator="arithmetic" k2="-1" k3="1"/>
<feColorMatrix type="matrix" values="0 0 0 0 0.807843 0 0 0 0 0.592157 0 0 0 0 0.52549 0 0 0 1 0"/>
<feBlend mode="normal" in2="shape" result="effect1_innerShadow_4002_2325"/>
</filter>
<filter id="filter14_f_4002_2325" x="13.4705" y="10.9144" width="2.92154" height="3.74506" filterUnits="userSpaceOnUse" color-interpolation-filters="sRGB">
<feFlood flood-opacity="0" result="BackgroundImageFix"/>
<feBlend mode="normal" in="SourceGraphic" in2="BackgroundImageFix" result="shape"/>
<feGaussianBlur stdDeviation="0.25" result="effect1_foregroundBlur_4002_2325"/>
</filter>
<filter id="filter15_f_4002_2325" x="13.8867" y="11.0228" width="2.42154" height="3.24506" filterUnits="userSpaceOnUse" color-interpolation-filters="sRGB">
<feFlood flood-opacity="0" result="BackgroundImageFix"/>
<feBlend mode="normal" in="SourceGraphic" in2="BackgroundImageFix" result="shape"/>
<feGaussianBlur stdDeviation="0.125" result="effect1_foregroundBlur_4002_2325"/>
</filter>
<filter id="filter16_i_4002_2325" x="16.0664" y="10.4938" width="3.06749" height="1.31573" filterUnits="userSpaceOnUse" color-interpolation-filters="sRGB">
<feFlood flood-opacity="0" result="BackgroundImageFix"/>
<feBlend mode="normal" in="SourceGraphic" in2="BackgroundImageFix" result="shape"/>
<feColorMatrix in="SourceAlpha" type="matrix" values="0 0 0 0 0 0 0 0 0 0 0 0 0 0 0 0 0 0 127 0" result="hardAlpha"/>
<feOffset dx="-0.2"/>
<feGaussianBlur stdDeviation="0.2"/>
<feComposite in2="hardAlpha" operator="arithmetic" k2="-1" k3="1"/>
<feColorMatrix type="matrix" values="0 0 0 0 0.0941176 0 0 0 0 0.0666667 0 0 0 0 0.117647 0 0 0 1 0"/>
<feBlend mode="normal" in2="shape" result="effect1_innerShadow_4002_2325"/>
</filter>
<filter id="filter17_i_4002_2325" x="11.0612" y="10.4938" width="3.06749" height="1.31573" filterUnits="userSpaceOnUse" color-interpolation-filters="sRGB">
<feFlood flood-opacity="0" result="BackgroundImageFix"/>
<feBlend mode="normal" in="SourceGraphic" in2="BackgroundImageFix" result="shape"/>
<feColorMatrix in="SourceAlpha" type="matrix" values="0 0 0 0 0 0 0 0 0 0 0 0 0 0 0 0 0 0 127 0" result="hardAlpha"/>
<feOffset dx="0.2"/>
<feGaussianBlur stdDeviation="0.125"/>
<feComposite in2="hardAlpha" operator="arithmetic" k2="-1" k3="1"/>
<feColorMatrix type="matrix" values="0 0 0 0 0.0862745 0 0 0 0 0.054902 0 0 0 0 0.113725 0 0 0 1 0"/>
<feBlend mode="normal" in2="shape" result="effect1_innerShadow_4002_2325"/>
</filter>
<filter id="filter18_i_4002_2325" x="11.1995" y="9.04133" width="2.50591" height="1.11205" filterUnits="userSpaceOnUse" color-interpolation-filters="sRGB">
<feFlood flood-opacity="0" result="BackgroundImageFix"/>
<feBlend mode="normal" in="SourceGraphic" in2="BackgroundImageFix" result="shape"/>
<feColorMatrix in="SourceAlpha" type="matrix" values="0 0 0 0 0 0 0 0 0 0 0 0 0 0 0 0 0 0 127 0" result="hardAlpha"/>
<feOffset dx="0.2" dy="-0.2"/>
<feGaussianBlur stdDeviation="0.15"/>
<feComposite in2="hardAlpha" operator="arithmetic" k2="-1" k3="1"/>
<feColorMatrix type="matrix" values="0 0 0 0 0.0431373 0 0 0 0 0.0235294 0 0 0 0 0.0313726 0 0 0 1 0"/>
<feBlend mode="normal" in2="shape" result="effect1_innerShadow_4002_2325"/>
</filter>
<filter id="filter19_i_4002_2325" x="16.7445" y="9.04133" width="2.50591" height="1.11211" filterUnits="userSpaceOnUse" color-interpolation-filters="sRGB">
<feFlood flood-opacity="0" result="BackgroundImageFix"/>
<feBlend mode="normal" in="SourceGraphic" in2="BackgroundImageFix" result="shape"/>
<feColorMatrix in="SourceAlpha" type="matrix" values="0 0 0 0 0 0 0 0 0 0 0 0 0 0 0 0 0 0 127 0" result="hardAlpha"/>
<feOffset dx="0.2" dy="-0.2"/>
<feGaussianBlur stdDeviation="0.15"/>
<feComposite in2="hardAlpha" operator="arithmetic" k2="-1" k3="1"/>
<feColorMatrix type="matrix" values="0 0 0 0 0.0431373 0 0 0 0 0.0235294 0 0 0 0 0.0313726 0 0 0 1 0"/>
<feBlend mode="normal" in2="shape" result="effect1_innerShadow_4002_2325"/>
</filter>
<filter id="filter20_f_4002_2325" x="16.5819" y="10.8726" width="0.800647" height="0.708057" filterUnits="userSpaceOnUse" color-interpolation-filters="sRGB">
<feFlood flood-opacity="0" result="BackgroundImageFix"/>
<feBlend mode="normal" in="SourceGraphic" in2="BackgroundImageFix" result="shape"/>
<feGaussianBlur stdDeviation="0.05" result="effect1_foregroundBlur_4002_2325"/>
</filter>
<filter id="filter21_f_4002_2325" x="17.4439" y="10.9517" width="0.902808" height="0.925513" filterUnits="userSpaceOnUse" color-interpolation-filters="sRGB">
<feFlood flood-opacity="0" result="BackgroundImageFix"/>
<feBlend mode="normal" in="SourceGraphic" in2="BackgroundImageFix" result="shape"/>
<feGaussianBlur stdDeviation="0.1" result="effect1_foregroundBlur_4002_2325"/>
</filter>
<filter id="filter22_f_4002_2325" x="12.8962" y="10.8868" width="1.00013" height="1.05527" filterUnits="userSpaceOnUse" color-interpolation-filters="sRGB">
<feFlood flood-opacity="0" result="BackgroundImageFix"/>
<feBlend mode="normal" in="SourceGraphic" in2="BackgroundImageFix" result="shape"/>
<feGaussianBlur stdDeviation="0.1" result="effect1_foregroundBlur_4002_2325"/>
</filter>
<filter id="filter23_f_4002_2325" x="12.1213" y="10.8643" width="0.929858" height="0.716357" filterUnits="userSpaceOnUse" color-interpolation-filters="sRGB">
<feFlood flood-opacity="0" result="BackgroundImageFix"/>
<feBlend mode="normal" in="SourceGraphic" in2="BackgroundImageFix" result="shape"/>
<feGaussianBlur stdDeviation="0.05" result="effect1_foregroundBlur_4002_2325"/>
</filter>
<filter id="filter24_f_4002_2325" x="16.7827" y="9.1689" width="2.29999" height="0.986609" filterUnits="userSpaceOnUse" color-interpolation-filters="sRGB">
<feFlood flood-opacity="0" result="BackgroundImageFix"/>
<feBlend mode="normal" in="SourceGraphic" in2="BackgroundImageFix" result="shape"/>
<feGaussianBlur stdDeviation="0.1" result="effect1_foregroundBlur_4002_2325"/>
</filter>
<filter id="filter25_f_4002_2325" x="11.2024" y="9.1689" width="2.29999" height="0.986609" filterUnits="userSpaceOnUse" color-interpolation-filters="sRGB">
<feFlood flood-opacity="0" result="BackgroundImageFix"/>
<feBlend mode="normal" in="SourceGraphic" in2="BackgroundImageFix" result="shape"/>
<feGaussianBlur stdDeviation="0.1" result="effect1_foregroundBlur_4002_2325"/>
</filter>
<filter id="filter26_if_4002_2325" x="8.70269" y="4.93547" width="4.29228" height="4.60103" filterUnits="userSpaceOnUse" color-interpolation-filters="sRGB">
<feFlood flood-opacity="0" result="BackgroundImageFix"/>
<feBlend mode="normal" in="SourceGraphic" in2="BackgroundImageFix" result="shape"/>
<feColorMatrix in="SourceAlpha" type="matrix" values="0 0 0 0 0 0 0 0 0 0 0 0 0 0 0 0 0 0 127 0" result="hardAlpha"/>
<feOffset dx="0.5" dy="0.5"/>
<feGaussianBlur stdDeviation="0.5"/>
<feComposite in2="hardAlpha" operator="arithmetic" k2="-1" k3="1"/>
<feColorMatrix type="matrix" values="0 0 0 0 0.352941 0 0 0 0 0.341176 0 0 0 0 0.341176 0 0 0 1 0"/>
<feBlend mode="normal" in2="shape" result="effect1_innerShadow_4002_2325"/>
<feGaussianBlur stdDeviation="0.15" result="effect2_foregroundBlur_4002_2325"/>
</filter>
<filter id="filter27_if_4002_2325" x="11.8594" y="3.67053" width="8.96116" height="5.90662" filterUnits="userSpaceOnUse" color-interpolation-filters="sRGB">
<feFlood flood-opacity="0" result="BackgroundImageFix"/>
<feBlend mode="normal" in="SourceGraphic" in2="BackgroundImageFix" result="shape"/>
<feColorMatrix in="SourceAlpha" type="matrix" values="0 0 0 0 0 0 0 0 0 0 0 0 0 0 0 0 0 0 127 0" result="hardAlpha"/>
<feOffset dx="-0.3" dy="0.2"/>
<feGaussianBlur stdDeviation="0.4"/>
<feComposite in2="hardAlpha" operator="arithmetic" k2="-1" k3="1"/>
<feColorMatrix type="matrix" values="0 0 0 0 0.345098 0 0 0 0 0.329412 0 0 0 0 0.333333 0 0 0 1 0"/>
<feBlend mode="normal" in2="shape" result="effect1_innerShadow_4002_2325"/>
<feGaussianBlur stdDeviation="0.125" result="effect2_foregroundBlur_4002_2325"/>
</filter>
<filter id="filter28_f_4002_2325" x="11.8379" y="4.93519" width="1.15763" height="2.35001" filterUnits="userSpaceOnUse" color-interpolation-filters="sRGB">
<feFlood flood-opacity="0" result="BackgroundImageFix"/>
<feBlend mode="normal" in="SourceGraphic" in2="BackgroundImageFix" result="shape"/>
<feGaussianBlur stdDeviation="0.1" result="effect1_foregroundBlur_4002_2325"/>
</filter>
<filter id="filter29_f_4002_2325" x="14.5198" y="5.77332" width="6.5434" height="3.4162" filterUnits="userSpaceOnUse" color-interpolation-filters="sRGB">
<feFlood flood-opacity="0" result="BackgroundImageFix"/>
<feBlend mode="normal" in="SourceGraphic" in2="BackgroundImageFix" result="shape"/>
<feGaussianBlur stdDeviation="0.375" result="effect1_foregroundBlur_4002_2325"/>
</filter>
<linearGradient id="paint0_linear_4002_2325" x1="19.9014" y1="4.81502" x2="12.9358" y2="17.7169" gradientUnits="userSpaceOnUse">
<stop stop-color="#393134"/>
<stop offset="1" stop-color="#1A1718"/>
</linearGradient>
<radialGradient id="paint1_radial_4002_2325" cx="0" cy="0" r="1" gradientUnits="userSpaceOnUse" gradientTransform="translate(14.7887 14.4914) rotate(97.5394) scale(4.70732 5.8804)">
<stop offset="0.590551" stop-color="#171418"/>
<stop offset="1" stop-color="#171418" stop-opacity="0"/>
</radialGradient>
<radialGradient id="paint2_radial_4002_2325" cx="0" cy="0" r="1" gradientUnits="userSpaceOnUse" gradientTransform="translate(11.9064 14.7659) rotate(146.004) scale(3.55941 4.67679)">
<stop offset="0.258378" stop-color="#181518"/>
<stop offset="1" stop-color="#181518" stop-opacity="0"/>
</radialGradient>
<radialGradient id="paint3_radial_4002_2325" cx="0" cy="0" r="1" gradientUnits="userSpaceOnUse" gradientTransform="translate(10.1393 12.1581) rotate(127.405) scale(2.20302 1.69161)">
<stop offset="0.333546" stop-color="#040101"/>
<stop offset="1" stop-color="#040101" stop-opacity="0"/>
</radialGradient>
<radialGradient id="paint4_radial_4002_2325" cx="0" cy="0" r="1" gradientUnits="userSpaceOnUse" gradientTransform="translate(10.6024 10.0821) rotate(121.43) scale(2.53345 1.78459)">
<stop offset="0.320588" stop-color="#040002"/>
<stop offset="1" stop-color="#040002" stop-opacity="0"/>
</radialGradient>
<radialGradient id="paint5_radial_4002_2325" cx="0" cy="0" r="1" gradientUnits="userSpaceOnUse" gradientTransform="translate(11.4946 3.68267) rotate(62.2717) scale(3.02367 4.19732)">
<stop stop-color="#474445"/>
<stop offset="1" stop-color="#474445" stop-opacity="0"/>
</radialGradient>
<radialGradient id="paint6_radial_4002_2325" cx="0" cy="0" r="1" gradientUnits="userSpaceOnUse" gradientTransform="translate(21.068 5.81011) rotate(134.998) scale(2.08658 2.91596)">
<stop stop-color="#4A4446"/>
<stop offset="1" stop-color="#4A4446" stop-opacity="0"/>
</radialGradient>
<radialGradient id="paint7_radial_4002_2325" cx="0" cy="0" r="1" gradientUnits="userSpaceOnUse" gradientTransform="translate(22.7837 11.0601) rotate(163.779) scale(1.96539 4.09867)">
<stop stop-color="#3B3638"/>
<stop offset="1" stop-color="#3B3638" stop-opacity="0"/>
</radialGradient>
<radialGradient id="paint8_radial_4002_2325" cx="0" cy="0" r="1" gradientUnits="userSpaceOnUse" gradientTransform="translate(22.166 14.56) rotate(165.963) scale(2.97095 3.78455)">
<stop stop-color="#464444"/>
<stop offset="1" stop-color="#464444" stop-opacity="0"/>
</radialGradient>
<radialGradient id="paint9_radial_4002_2325" cx="0" cy="0" r="1" gradientUnits="userSpaceOnUse" gradientTransform="translate(19.9417 8.56864) rotate(-108.843) scale(2.8664 2.26716)">
<stop stop-color="#575455"/>
<stop offset="1" stop-color="#575455" stop-opacity="0"/>
</radialGradient>
<radialGradient id="paint10_radial_4002_2325" cx="0" cy="0" r="1" gradientUnits="userSpaceOnUse" gradientTransform="translate(8.8107 11.0231) rotate(5.98813) scale(1.54784 2.50795)">
<stop stop-color="#413733"/>
<stop offset="1" stop-color="#413733" stop-opacity="0"/>
</radialGradient>
<linearGradient id="paint11_linear_4002_2325" x1="16.9014" y1="26.4177" x2="15.5041" y2="26.1152" gradientUnits="userSpaceOnUse">
<stop stop-color="#C296BF"/>
<stop offset="1" stop-color="#E7C1F5" stop-opacity="0"/>
</linearGradient>
<radialGradient id="paint12_radial_4002_2325" cx="0" cy="0" r="1" gradientUnits="userSpaceOnUse" gradientTransform="translate(3.70752 25.8964) rotate(17.7447) scale(3.2811 6.83147)">
<stop offset="0.175617" stop-color="#675890"/>
<stop offset="1" stop-color="#58497E"/>
</radialGradient>
<linearGradient id="paint13_linear_4002_2325" x1="7.19879" y1="26.2171" x2="6.02707" y2="26.2171" gradientUnits="userSpaceOnUse">
<stop stop-color="#504665"/>
<stop offset="1" stop-color="#504665" stop-opacity="0"/>
</linearGradient>
<radialGradient id="paint14_radial_4002_2325" cx="0" cy="0" r="1" gradientUnits="userSpaceOnUse" gradientTransform="translate(24.6189 22.2286) rotate(110.288) scale(5.49596 3.74438)">
<stop stop-color="#746B8D"/>
<stop offset="1" stop-color="#4D396F"/>
</radialGradient>
<linearGradient id="paint15_linear_4002_2325" x1="23.1276" y1="26.3026" x2="23.7701" y2="26.2714" gradientUnits="userSpaceOnUse">
<stop offset="0.478057" stop-color="#604E83"/>
<stop offset="1" stop-color="#604E83" stop-opacity="0"/>
</linearGradient>
<linearGradient id="paint16_linear_4002_2325" x1="23.395" y1="26.3339" x2="21.6138" y2="26.3339" gradientUnits="userSpaceOnUse">
<stop stop-color="#7C739F"/>
<stop offset="1" stop-color="#5F4B8A"/>
</linearGradient>
<linearGradient id="paint17_linear_4002_2325" x1="22.77" y1="16.2877" x2="18.395" y2="28.7977" gradientUnits="userSpaceOnUse">
<stop stop-color="#8866B4"/>
<stop offset="1" stop-color="#7F54C6"/>
</linearGradient>
<linearGradient id="paint18_linear_4002_2325" x1="17.4857" y1="23.0557" x2="17.9545" y2="23.1417" gradientUnits="userSpaceOnUse">
<stop stop-color="#8E5280"/>
<stop offset="1" stop-color="#845EBF" stop-opacity="0"/>
</linearGradient>
<linearGradient id="paint19_linear_4002_2325" x1="23.5013" y1="20.6417" x2="22.8295" y2="20.3604" gradientUnits="userSpaceOnUse">
<stop offset="0.258439" stop-color="#876BC0"/>
<stop offset="1" stop-color="#8263BD" stop-opacity="0"/>
</linearGradient>
<radialGradient id="paint20_radial_4002_2325" cx="0" cy="0" r="1" gradientUnits="userSpaceOnUse" gradientTransform="translate(22.8295 21.2667) rotate(44.5018) scale(2.54126 2.34764)">
<stop stop-color="#7955B5"/>
<stop offset="1" stop-color="#7955B5" stop-opacity="0"/>
</radialGradient>
<linearGradient id="paint21_linear_4002_2325" x1="8.95447" y1="16.809" x2="11.895" y2="29.1776" gradientUnits="userSpaceOnUse">
<stop stop-color="#7C5AAD"/>
<stop offset="1" stop-color="#9266DF"/>
</linearGradient>
<linearGradient id="paint22_linear_4002_2325" x1="13.4076" y1="25.8761" x2="12.8607" y2="25.9854" gradientUnits="userSpaceOnUse">
<stop stop-color="#6E3C78"/>
<stop offset="1" stop-color="#825DB9" stop-opacity="0"/>
</linearGradient>
<radialGradient id="paint23_radial_4002_2325" cx="0" cy="0" r="1" gradientUnits="userSpaceOnUse" gradientTransform="translate(11.4545 16.809) rotate(127.231) scale(5.01003 5.42155)">
<stop offset="0.0544742" stop-color="#6C3B70"/>
<stop offset="1" stop-color="#815EB7" stop-opacity="0"/>
</radialGradient>
<linearGradient id="paint24_linear_4002_2325" x1="8.11377" y1="28.1463" x2="10.395" y2="26.9901" gradientUnits="userSpaceOnUse">
<stop stop-color="#665395"/>
<stop offset="1" stop-color="#5D4C7D"/>
</linearGradient>
<linearGradient id="paint25_linear_4002_2325" x1="9.87677" y1="26.1654" x2="9.01251" y2="26.6799" gradientUnits="userSpaceOnUse">
<stop stop-color="#55447C"/>
<stop offset="1" stop-color="#55447C" stop-opacity="0"/>
</linearGradient>
<radialGradient id="paint26_radial_4002_2325" cx="0" cy="0" r="1" gradientUnits="userSpaceOnUse" gradientTransform="translate(15.0975 21.0876) rotate(90) scale(8.19791 5.21858)">
<stop stop-color="#EDB5A7"/>
<stop offset="1" stop-color="#AE756B"/>
</radialGradient>
<radialGradient id="paint27_radial_4002_2325" cx="0" cy="0" r="1" gradientUnits="userSpaceOnUse" gradientTransform="translate(15.0975 24.4876) rotate(-90) scale(7.03341 12.2744)">
<stop offset="0.688984" stop-color="#8E5F51" stop-opacity="0"/>
<stop offset="1" stop-color="#8E5F51"/>
</radialGradient>
<linearGradient id="paint28_linear_4002_2325" x1="17.8596" y1="22.6822" x2="16.5397" y2="22.5226" gradientUnits="userSpaceOnUse">
<stop offset="0.0612722" stop-color="#A87171"/>
<stop offset="1" stop-color="#C48F89" stop-opacity="0"/>
</linearGradient>
<radialGradient id="paint29_radial_4002_2325" cx="0" cy="0" r="1" gradientUnits="userSpaceOnUse" gradientTransform="translate(16.2529 20.0161) rotate(-134.697) scale(2.35978 2.2583)">
<stop stop-color="#DCA89E"/>
<stop offset="1" stop-color="#DCA89E" stop-opacity="0"/>
</radialGradient>
<radialGradient id="paint30_radial_4002_2325" cx="0" cy="0" r="1" gradientUnits="userSpaceOnUse" gradientTransform="translate(15.0975 17.6031) rotate(90) scale(2.44554 3.83658)">
<stop stop-color="#C88491"/>
<stop offset="0.736253" stop-color="#CD8D94"/>
</radialGradient>
<radialGradient id="paint31_radial_4002_2325" cx="0" cy="0" r="1" gradientUnits="userSpaceOnUse" gradientTransform="translate(13.1951 17.5022) rotate(90) scale(2.08555 0.865645)">
<stop offset="0.434829" stop-color="#D4948D"/>
<stop offset="1" stop-color="#D4948D" stop-opacity="0"/>
</radialGradient>
<radialGradient id="paint32_radial_4002_2325" cx="0" cy="0" r="1" gradientUnits="userSpaceOnUse" gradientTransform="translate(17.267 17.4403) rotate(90) scale(1.875 0.821781)">
<stop stop-color="#D3A59B"/>
<stop offset="1" stop-color="#D3A59B" stop-opacity="0"/>
</radialGradient>
<radialGradient id="paint33_radial_4002_2325" cx="0" cy="0" r="1" gradientUnits="userSpaceOnUse" gradientTransform="translate(15.0975 18.0425) rotate(90) scale(2.38834 3.3618)">
<stop offset="0.575571" stop-color="#D49493" stop-opacity="0"/>
<stop offset="1" stop-color="#D3928E"/>
</radialGradient>
<radialGradient id="paint34_radial_4002_2325" cx="0" cy="0" r="1" gradientUnits="userSpaceOnUse" gradientTransform="translate(28.9412 22.1355) rotate(154.426) scale(2.61925 2.56966)">
<stop offset="0.524489" stop-color="#F3C6AF"/>
<stop offset="0.955844" stop-color="#C79175"/>
</radialGradient>
<radialGradient id="paint35_radial_4002_2325" cx="0" cy="0" r="1" gradientUnits="userSpaceOnUse" gradientTransform="translate(28.086 21.6444) rotate(-37.2838) scale(1.05996 0.812267)">
<stop offset="0.131677" stop-color="#F7CEB9"/>
<stop offset="1" stop-color="#F7CEB9" stop-opacity="0"/>
</radialGradient>
<linearGradient id="paint36_linear_4002_2325" x1="25.7389" y1="15.984" x2="25.7389" y2="20.0405" gradientUnits="userSpaceOnUse">
<stop offset="0.312923" stop-color="#453357"/>
<stop offset="0.562033" stop-color="#562D79"/>
</linearGradient>
<radialGradient id="paint37_radial_4002_2325" cx="0" cy="0" r="1" gradientUnits="userSpaceOnUse" gradientTransform="translate(27.2185 16.8567) rotate(148.849) scale(4.17157)">
<stop offset="0.83785" stop-color="#473558" stop-opacity="0"/>
<stop offset="1" stop-color="#673D45"/>
</radialGradient>
<radialGradient id="paint38_radial_4002_2325" cx="0" cy="0" r="1" gradientUnits="userSpaceOnUse" gradientTransform="translate(23.8418 15.4928) rotate(44.6155) scale(1.77729 4.13398)">
<stop stop-color="#7B5E40"/>
<stop offset="1" stop-color="#463358" stop-opacity="0"/>
</radialGradient>
<radialGradient id="paint39_radial_4002_2325" cx="0" cy="0" r="1" gradientUnits="userSpaceOnUse" gradientTransform="translate(26.9119 16.8508) rotate(-90) scale(1.37479 2.10625)">
<stop stop-color="#7D718C"/>
<stop offset="1" stop-color="#7D718C" stop-opacity="0"/>
</radialGradient>
<linearGradient id="paint40_linear_4002_2325" x1="25.9334" y1="16.9199" x2="25.7916" y2="18.1232" gradientUnits="userSpaceOnUse">
<stop offset="0.120322" stop-color="#BFBAC7"/>
<stop offset="1" stop-color="#AA7BD1"/>
</linearGradient>
<radialGradient id="paint41_radial_4002_2325" cx="0" cy="0" r="1" gradientUnits="userSpaceOnUse" gradientTransform="translate(27.506 17.2416) rotate(90) scale(0.440797 2.66861)">
<stop stop-color="#EAE5F7"/>
<stop offset="1" stop-color="#C1BCC8" stop-opacity="0"/>
</radialGradient>
<linearGradient id="paint42_linear_4002_2325" x1="23.2358" y1="16.8566" x2="23.3627" y2="17.293" gradientUnits="userSpaceOnUse">
<stop stop-color="#B19A83"/>
<stop offset="1" stop-color="#B19A83" stop-opacity="0"/>
</linearGradient>
<linearGradient id="paint43_linear_4002_2325" x1="26.9361" y1="21.4268" x2="24.6485" y2="21.4268" gradientUnits="userSpaceOnUse">
<stop stop-color="#D9CBEA"/>
<stop offset="1" stop-color="#A78BC1"/>
</linearGradient>
<linearGradient id="paint44_linear_4002_2325" x1="24.4656" y1="21.2692" x2="24.8468" y2="21.2412" gradientUnits="userSpaceOnUse">
<stop stop-color="#A0768F"/>
<stop offset="1" stop-color="#AD93C6" stop-opacity="0"/>
</linearGradient>
<linearGradient id="paint45_linear_4002_2325" x1="27.0836" y1="21.1407" x2="26.8218" y2="21.1169" gradientUnits="userSpaceOnUse">
<stop stop-color="#CBC6D6"/>
<stop offset="1" stop-color="#D3C3E5" stop-opacity="0"/>
</linearGradient>
<radialGradient id="paint46_radial_4002_2325" cx="0" cy="0" r="1" gradientUnits="userSpaceOnUse" gradientTransform="translate(25.9808 21.113) rotate(127.034) scale(0.829847)">
<stop stop-color="#D2BFE7"/>
<stop offset="1" stop-color="#C0A6D9"/>
</radialGradient>
<linearGradient id="paint47_linear_4002_2325" x1="27.9963" y1="26.6741" x2="23.1276" y2="26.6741" gradientUnits="userSpaceOnUse">
<stop offset="0.145558" stop-color="#FFD7BF"/>
<stop offset="0.861163" stop-color="#D8A696"/>
</linearGradient>
<radialGradient id="paint48_radial_4002_2325" cx="0" cy="0" r="1" gradientUnits="userSpaceOnUse" gradientTransform="translate(26.0734 23.6513) rotate(90) scale(0.878707 1.6371)">
<stop offset="0.106061" stop-color="#FFD1BB"/>
<stop offset="1" stop-color="#FFD1BB" stop-opacity="0"/>
</radialGradient>
<radialGradient id="paint49_radial_4002_2325" cx="0" cy="0" r="1" gradientUnits="userSpaceOnUse" gradientTransform="translate(26.0734 25.0701) rotate(90) scale(0.941919 1.75486)">
<stop offset="0.109091" stop-color="#FFD1BB"/>
<stop offset="1" stop-color="#FFD1BB" stop-opacity="0"/>
</radialGradient>
<radialGradient id="paint50_radial_4002_2325" cx="0" cy="0" r="1" gradientUnits="userSpaceOnUse" gradientTransform="translate(26.0734 26.4402) rotate(90) scale(0.787787 1.4677)">
<stop offset="0.109091" stop-color="#FFD1BB"/>
<stop offset="1" stop-color="#FFD1BB" stop-opacity="0"/>
</radialGradient>
<radialGradient id="paint51_radial_4002_2325" cx="0" cy="0" r="1" gradientUnits="userSpaceOnUse" gradientTransform="translate(26.0734 27.9216) rotate(90) scale(0.876159 2.08784)">
<stop offset="0.186046" stop-color="#FFD1BB"/>
<stop offset="1" stop-color="#FFD1BB" stop-opacity="0"/>
</radialGradient>
<radialGradient id="paint52_radial_4002_2325" cx="0" cy="0" r="1" gradientUnits="userSpaceOnUse" gradientTransform="translate(28.6054 23.2983) rotate(90) scale(5.49946 4.50112)">
<stop stop-color="#FFE0C3"/>
<stop offset="1" stop-color="#FFE0C3" stop-opacity="0"/>
</radialGradient>
<linearGradient id="paint53_linear_4002_2325" x1="23.7423" y1="24.4713" x2="25.6628" y2="24.4713" gradientUnits="userSpaceOnUse">
<stop stop-color="#CA8B73"/>
<stop offset="1" stop-color="#CA8B73" stop-opacity="0"/>
</linearGradient>
<linearGradient id="paint54_linear_4002_2325" x1="23.7423" y1="25.913" x2="25.6628" y2="25.913" gradientUnits="userSpaceOnUse">
<stop stop-color="#CA8B73"/>
<stop offset="1" stop-color="#CA8B73" stop-opacity="0"/>
</linearGradient>
<linearGradient id="paint55_linear_4002_2325" x1="23.7423" y1="27.3434" x2="25.6628" y2="27.3434" gradientUnits="userSpaceOnUse">
<stop stop-color="#CA8B73"/>
<stop offset="1" stop-color="#CA8B73" stop-opacity="0"/>
</linearGradient>
<linearGradient id="paint56_linear_4002_2325" x1="7.74326" y1="16.8546" x2="22.4584" y2="16.8546" gradientUnits="userSpaceOnUse">
<stop offset="0.00558659" stop-color="#CCCCCC"/>
<stop offset="1" stop-color="#E6E6E6"/>
</linearGradient>
<linearGradient id="paint57_linear_4002_2325" x1="7.7432" y1="16.8236" x2="22.4583" y2="16.8236" gradientUnits="userSpaceOnUse">
<stop offset="0.00558659" stop-color="#CCCCCC"/>
<stop offset="1" stop-color="#E6E6E6"/>
</linearGradient>
<linearGradient id="paint58_linear_4002_2325" x1="8.6543" y1="12.0208" x2="11.6834" y2="12.0208" gradientUnits="userSpaceOnUse">
<stop stop-color="#CC9987"/>
<stop offset="1" stop-color="#AC7864"/>
</linearGradient>
<radialGradient id="paint59_radial_4002_2325" cx="0" cy="0" r="1" gradientUnits="userSpaceOnUse" gradientTransform="translate(19.7127 12.9301) rotate(-48.1041) scale(2.80045 3.41922)">
<stop offset="0.444268" stop-color="#E5B1A5"/>
<stop offset="0.94391" stop-color="#FFD8C1"/>
</radialGradient>
<radialGradient id="paint60_radial_4002_2325" cx="0" cy="0" r="1" gradientUnits="userSpaceOnUse" gradientTransform="translate(20.2874 10.2108) rotate(29.2711) scale(1.54394 0.436495)">
<stop stop-color="#DBA98B"/>
<stop offset="1" stop-color="#DBA98B" stop-opacity="0"/>
</radialGradient>
<radialGradient id="paint61_radial_4002_2325" cx="0" cy="0" r="1" gradientUnits="userSpaceOnUse" gradientTransform="translate(19.5926 12.0466) rotate(-4.25413) scale(1.54978 1.2115)">
<stop offset="0.719132" stop-color="#F4B89E" stop-opacity="0"/>
<stop offset="1" stop-color="#F5B99D"/>
</radialGradient>
<radialGradient id="paint62_radial_4002_2325" cx="0" cy="0" r="1" gradientUnits="userSpaceOnUse" gradientTransform="translate(10.3879 11.9316) rotate(180) scale(1.23528 0.974487)">
<stop offset="0.666667" stop-color="#BC8272" stop-opacity="0"/>
<stop offset="1" stop-color="#BC8272"/>
</radialGradient>
<radialGradient id="paint63_radial_4002_2325" cx="0" cy="0" r="1" gradientUnits="userSpaceOnUse" gradientTransform="translate(18.0242 11.3815) rotate(155.244) scale(7.33069 9.812)">
<stop stop-color="#FFD7BF"/>
<stop offset="1" stop-color="#D59F97"/>
</radialGradient>
<radialGradient id="paint64_radial_4002_2325" cx="0" cy="0" r="1" gradientUnits="userSpaceOnUse" gradientTransform="translate(18.4259 12.7758) rotate(172.574) scale(3.57278 3.94372)">
<stop stop-color="#FFDEBF"/>
<stop offset="1" stop-color="#FFDEBF" stop-opacity="0"/>
</radialGradient>
<radialGradient id="paint65_radial_4002_2325" cx="0" cy="0" r="1" gradientUnits="userSpaceOnUse" gradientTransform="translate(12.6612 18.8836) rotate(-70.9588) scale(4.10185 5.20449)">
<stop stop-color="#B87C92"/>
<stop offset="1" stop-color="#B87C92" stop-opacity="0"/>
</radialGradient>
<radialGradient id="paint66_radial_4002_2325" cx="0" cy="0" r="1" gradientUnits="userSpaceOnUse" gradientTransform="translate(15.0975 11.1591) rotate(90) scale(6.88331 7.96768)">
<stop offset="0.566942" stop-color="#D496A4" stop-opacity="0"/>
<stop offset="1" stop-color="#CD879F"/>
</radialGradient>
<radialGradient id="paint67_radial_4002_2325" cx="0" cy="0" r="1" gradientUnits="userSpaceOnUse" gradientTransform="translate(16.9504 13.1532) rotate(168.897) scale(7.2034 12.402)">
<stop offset="0.794964" stop-color="#E2A895" stop-opacity="0"/>
<stop offset="1" stop-color="#E2A895"/>
</radialGradient>
<radialGradient id="paint68_radial_4002_2325" cx="0" cy="0" r="1" gradientUnits="userSpaceOnUse" gradientTransform="translate(17.4531 10.9531) rotate(-90) scale(1.17792 1.44563)">
<stop stop-color="#F6BAA9"/>
<stop offset="1" stop-color="#F6BAA9" stop-opacity="0"/>
</radialGradient>
<radialGradient id="paint69_radial_4002_2325" cx="0" cy="0" r="1" gradientUnits="userSpaceOnUse" gradientTransform="translate(12.972 10.7192) rotate(-90) scale(1.34348 1.53971)">
<stop stop-color="#D09790"/>
<stop offset="1" stop-color="#D09790" stop-opacity="0"/>
</radialGradient>
<radialGradient id="paint70_radial_4002_2325" cx="0" cy="0" r="1" gradientUnits="userSpaceOnUse" gradientTransform="translate(20.3131 12.4758) rotate(180) scale(1.3156 6.59762)">
<stop stop-color="#FFD8BC"/>
<stop offset="1" stop-color="#FFD8BC" stop-opacity="0"/>
</radialGradient>
<radialGradient id="paint71_radial_4002_2325" cx="0" cy="0" r="1" gradientUnits="userSpaceOnUse" gradientTransform="translate(12.8612 5.24151) rotate(71.834) scale(4.30914 7.50704)">
<stop stop-color="#A47463"/>
<stop offset="1" stop-color="#A47463" stop-opacity="0"/>
</radialGradient>
<radialGradient id="paint72_radial_4002_2325" cx="0" cy="0" r="1" gradientUnits="userSpaceOnUse" gradientTransform="translate(15.9004 13.2197) rotate(-102.564) scale(2.14356 0.660626)">
<stop offset="0.0168227" stop-color="#FFDCC5"/>
<stop offset="1" stop-color="#FFDCC5" stop-opacity="0"/>
</radialGradient>
<linearGradient id="paint73_linear_4002_2325" x1="14.1367" y1="13.2943" x2="15.0975" y2="13.2943" gradientUnits="userSpaceOnUse">
<stop stop-color="#DFA791"/>
<stop offset="1" stop-color="#DFA791" stop-opacity="0"/>
</linearGradient>
<linearGradient id="paint74_linear_4002_2325" x1="15.0975" y1="14.1121" x2="15.0975" y2="13.4874" gradientUnits="userSpaceOnUse">
<stop stop-color="#D29394"/>
<stop offset="1" stop-color="#D29394" stop-opacity="0"/>
</linearGradient>
<radialGradient id="paint75_radial_4002_2325" cx="0" cy="0" r="1" gradientUnits="userSpaceOnUse" gradientTransform="translate(15.6551 13.4363) rotate(-180) scale(0.797787 0.223037)">
<stop stop-color="#FFD6C2"/>
<stop offset="1" stop-color="#FFD6C2" stop-opacity="0"/>
</radialGradient>
<linearGradient id="paint76_linear_4002_2325" x1="15.1776" y1="14.0853" x2="15.1776" y2="13.9425" gradientUnits="userSpaceOnUse">
<stop stop-color="#CC8C8D"/>
<stop offset="1" stop-color="#CC8C8D" stop-opacity="0"/>
</linearGradient>
<radialGradient id="paint77_radial_4002_2325" cx="0" cy="0" r="1" gradientUnits="userSpaceOnUse" gradientTransform="translate(15.4835 12.8272) rotate(145.529) scale(1.70249 2.04613)">
<stop offset="0.777645" stop-color="#CC8C8D" stop-opacity="0"/>
<stop offset="1" stop-color="#CC8C8D"/>
</radialGradient>
<radialGradient id="paint78_radial_4002_2325" cx="0" cy="0" r="1" gradientUnits="userSpaceOnUse" gradientTransform="translate(15.1733 10.5793) rotate(159.839) scale(6.89096 6.0187)">
<stop stop-color="#F63273"/>
<stop offset="1" stop-color="#BC2F50"/>
<stop offset="1" stop-color="#D5415E"/>
</radialGradient>
<radialGradient id="paint79_radial_4002_2325" cx="0" cy="0" r="1" gradientUnits="userSpaceOnUse" gradientTransform="translate(13.5327 7.65741) rotate(131.12) scale(0.665254 2.54785)">
<stop offset="0.202966" stop-color="#860C4F"/>
<stop offset="1" stop-color="#860C4F" stop-opacity="0"/>
</radialGradient>
<linearGradient id="paint80_linear_4002_2325" x1="14.0081" y1="15.5551" x2="14.4799" y2="14.8259" gradientUnits="userSpaceOnUse">
<stop stop-color="#D9A4A4"/>
<stop offset="0.663171" stop-color="#D9A4A4" stop-opacity="0"/>
</linearGradient>
<radialGradient id="paint81_radial_4002_2325" cx="0" cy="0" r="1" gradientUnits="userSpaceOnUse" gradientTransform="translate(17.331 11.3204) rotate(90) scale(0.830455 1.32093)">
<stop offset="0.80198" stop-color="#7D574A"/>
<stop offset="1" stop-color="#694B43"/>
<stop offset="1" stop-color="#804D49"/>
<stop offset="1" stop-color="#664944"/>
</radialGradient>
<radialGradient id="paint82_radial_4002_2325" cx="0" cy="0" r="1" gradientUnits="userSpaceOnUse" gradientTransform="translate(17.0974 11.4066) rotate(-127.812) scale(0.387209 0.533095)">
<stop offset="0.765532" stop-color="#FFE6E2" stop-opacity="0"/>
<stop offset="0.966159" stop-color="#FFE6E2"/>
</radialGradient>
<linearGradient id="paint83_linear_4002_2325" x1="18.1273" y1="11.3756" x2="17.8061" y2="11.5734" gradientUnits="userSpaceOnUse">
<stop stop-color="#B4948D"/>
<stop offset="1" stop-color="#B4948D" stop-opacity="0"/>
</linearGradient>
<radialGradient id="paint84_radial_4002_2325" cx="0" cy="0" r="1" gradientUnits="userSpaceOnUse" gradientTransform="translate(12.8639 11.3204) rotate(90) scale(0.83046 1.32094)">
<stop offset="0.80198" stop-color="#7D574A"/>
<stop offset="1" stop-color="#694B43"/>
<stop offset="1" stop-color="#804D49"/>
<stop offset="1" stop-color="#664944"/>
</radialGradient>
<linearGradient id="paint85_linear_4002_2325" x1="13.6252" y1="11.3755" x2="13.304" y2="11.5734" gradientUnits="userSpaceOnUse">
<stop stop-color="#B4948D"/>
<stop offset="1" stop-color="#B4948D" stop-opacity="0"/>
</linearGradient>
<radialGradient id="paint86_radial_4002_2325" cx="0" cy="0" r="1" gradientUnits="userSpaceOnUse" gradientTransform="translate(12.5708 11.5448) rotate(-90.897) scale(0.505776 0.607964)">
<stop offset="0.765532" stop-color="#FFE6E2" stop-opacity="0"/>
<stop offset="0.966159" stop-color="#FFE6E2"/>
</radialGradient>
<radialGradient id="paint87_radial_4002_2325" cx="0" cy="0" r="1" gradientUnits="userSpaceOnUse" gradientTransform="translate(9.30597 9.14994) rotate(-65.3915) scale(3.10219 1.587)">
<stop stop-color="#433838"/>
<stop offset="1" stop-color="#433838" stop-opacity="0"/>
</radialGradient>
<radialGradient id="paint88_radial_4002_2325" cx="0" cy="0" r="1" gradientUnits="userSpaceOnUse" gradientTransform="translate(17.0535 3.81985) rotate(115.684) scale(4.98785 8.15485)">
<stop offset="0.639192" stop-color="#1F0D24" stop-opacity="0"/>
<stop offset="1" stop-color="#1F0D24"/>
</radialGradient>
<radialGradient id="paint89_radial_4002_2325" cx="0" cy="0" r="1" gradientUnits="userSpaceOnUse" gradientTransform="translate(15.3128 4.19797) rotate(98.7461) scale(1.41591 3.04626)">
<stop stop-color="#4C4749"/>
<stop offset="1" stop-color="#4C4749" stop-opacity="0"/>
</radialGradient>
<linearGradient id="paint90_linear_4002_2325" x1="12.1379" y1="5.58694" x2="12.6955" y2="6.89085" gradientUnits="userSpaceOnUse">
<stop stop-color="#1A1316"/>
<stop offset="1" stop-color="#24182D"/>
</linearGradient>
</defs>
</svg>
