<svg width="32" height="32" viewBox="0 0 32 32" fill="none" xmlns="http://www.w3.org/2000/svg">
<path d="M15.8392 29.9989C25.1737 29.9989 29.8381 23.7313 29.8381 16C29.8381 8.26861 25.1737 2.0011 15.8392 2.0011C6.50477 2.0011 1.84033 8.26861 1.84033 16C1.84033 23.7313 6.50477 29.9989 15.8392 29.9989Z" fill="#FFB02E"/>
<path d="M14.8393 11.4996C14.8393 13.9852 12.8243 16.0001 10.3387 16.0001C7.8531 16.0001 5.83813 13.9852 5.83813 11.4996C5.83813 9.01399 7.8531 6.99902 10.3387 6.99902C12.8243 6.99902 14.8393 9.01399 14.8393 11.4996Z" fill="white"/>
<path d="M16.8381 11.4996C16.8381 13.9852 18.8531 16.0001 21.3387 16.0001C23.8243 16.0001 25.8392 13.9852 25.8392 11.4996C25.8392 9.01399 23.8243 6.99902 21.3387 6.99902C18.8531 6.99902 16.8381 9.01399 16.8381 11.4996Z" fill="white"/>
<path d="M10.9604 14.6898C12.7333 14.6898 14.1705 13.2526 14.1705 11.4797C14.1705 9.70675 12.7333 8.26953 10.9604 8.26953C9.18747 8.26953 7.75024 9.70675 7.75024 11.4797C7.75024 13.2526 9.18747 14.6898 10.9604 14.6898Z" fill="#402A32"/>
<path d="M20.7171 14.6898C18.9442 14.6898 17.507 13.2526 17.507 11.4797C17.507 9.70675 18.9442 8.26953 20.7171 8.26953C22.49 8.26953 23.9272 9.70675 23.9272 11.4797C23.9272 13.2526 22.49 14.6898 20.7171 14.6898Z" fill="#402A32"/>
<path d="M11.096 20.281C10.6988 20.3987 10.4723 20.8161 10.59 21.2132C10.7077 21.6104 11.1251 21.8369 11.5222 21.7192L20.5825 19.0339C20.9796 18.9162 21.2062 18.4989 21.0884 18.1017C20.9707 17.7046 20.5534 17.4781 20.1562 17.5958L11.096 20.281Z" fill="#402A32"/>
</svg>
