<svg width="32" height="32" viewBox="0 0 32 32" fill="none" xmlns="http://www.w3.org/2000/svg">
<path d="M16 15.4189C9.92 15.4189 5 20.3389 5 26.4189V29.9189H27V26.4189C27 20.3489 22.07 15.4189 16 15.4189Z" fill="url(#paint0_linear_4002_2090)"/>
<path d="M16 15.4189C9.92 15.4189 5 20.3389 5 26.4189V29.9189H27V26.4189C27 20.3489 22.07 15.4189 16 15.4189Z" fill="url(#paint1_radial_4002_2090)"/>
<g filter="url(#filter0_f_4002_2090)">
<path d="M13.4187 16.7677C12.9063 16.7677 12.1232 16.7384 11.6488 16.9338L10.2687 19.6577C10.1787 19.8477 10.3287 20.0677 10.5387 20.0677H12.0887C12.3287 20.0677 12.4387 20.3577 12.2787 20.5177L10.4987 21.8605C10.2387 22.1205 10.1387 22.5105 10.2687 22.8605L13.1815 29.361L14.7677 28.2447L13.4287 16.7677H13.4187Z" fill="#46375F"/>
</g>
<g filter="url(#filter1_f_4002_2090)">
<path d="M20.9045 21.1003L19.7154 20.2723C19.5668 20.1237 19.6717 19.8789 19.8815 19.8789H20.7996C20.9832 19.8789 21.1056 19.6865 21.0269 19.5204L19.9515 17.2297C19.7416 17.1423 19.5231 17.0636 19.3045 16.9937H18.71V28.8554L21.1143 21.9834C21.2192 21.6686 21.1405 21.3276 20.9045 21.1003Z" fill="#493E6A"/>
</g>
<path d="M18.71 16.0388H13.29V29.9288H18.71V16.0388Z" fill="url(#paint2_radial_4002_2090)"/>
<path d="M18.71 16.0388H13.29V29.9288H18.71V16.0388Z" fill="url(#paint3_linear_4002_2090)"/>
<path d="M18.71 16.0388H13.29V29.9288H18.71V16.0388Z" fill="url(#paint4_linear_4002_2090)"/>
<path d="M23 17.9365V29.9188H27V26.4188C27 23.0068 25.4423 19.955 23 17.9365Z" fill="url(#paint5_radial_4002_2090)"/>
<path d="M23 17.9365V29.9188H27V26.4188C27 23.0068 25.4423 19.955 23 17.9365Z" fill="url(#paint6_linear_4002_2090)"/>
<g filter="url(#filter2_i_4002_2090)">
<path d="M13.29 16.0088H12.44C12.26 16.0688 12.08 16.1388 11.91 16.2088L10.64 18.8988C10.55 19.0888 10.7 19.3088 10.91 19.3088H11.96C12.2 19.3088 12.31 19.5988 12.15 19.7588L10.79 21.0888C10.53 21.3488 10.43 21.7388 10.56 22.0888L13.29 29.9088H13.3V16.0088H13.29Z" fill="url(#paint7_linear_4002_2090)"/>
<path d="M13.29 16.0088H12.44C12.26 16.0688 12.08 16.1388 11.91 16.2088L10.64 18.8988C10.55 19.0888 10.7 19.3088 10.91 19.3088H11.96C12.2 19.3088 12.31 19.5988 12.15 19.7588L10.79 21.0888C10.53 21.3488 10.43 21.7388 10.56 22.0888L13.29 29.9088H13.3V16.0088H13.29Z" fill="url(#paint8_linear_4002_2090)"/>
<path d="M13.29 16.0088H12.44C12.26 16.0688 12.08 16.1388 11.91 16.2088L10.64 18.8988C10.55 19.0888 10.7 19.3088 10.91 19.3088H11.96C12.2 19.3088 12.31 19.5988 12.15 19.7588L10.79 21.0888C10.53 21.3488 10.43 21.7388 10.56 22.0888L13.29 29.9088H13.3V16.0088H13.29Z" fill="url(#paint9_radial_4002_2090)"/>
</g>
<path d="M13.29 16.0088H12.44C12.26 16.0688 12.08 16.1388 11.91 16.2088L10.64 18.8988C10.55 19.0888 10.7 19.3088 10.91 19.3088H11.96C12.2 19.3088 12.31 19.5988 12.15 19.7588L10.79 21.0888C10.53 21.3488 10.43 21.7388 10.56 22.0888L13.29 29.9088H13.3V16.0088H13.29Z" fill="url(#paint10_linear_4002_2090)"/>
<path d="M13.29 16.0088H12.44C12.26 16.0688 12.08 16.1388 11.91 16.2088L10.64 18.8988C10.55 19.0888 10.7 19.3088 10.91 19.3088H11.96C12.2 19.3088 12.31 19.5988 12.15 19.7588L10.79 21.0888C10.53 21.3488 10.43 21.7388 10.56 22.0888L13.29 29.9088H13.3V16.0088H13.29Z" fill="url(#paint11_radial_4002_2090)"/>
<path d="M13.29 16.0088H12.44C12.26 16.0688 12.08 16.1388 11.91 16.2088L10.64 18.8988C10.55 19.0888 10.7 19.3088 10.91 19.3088H11.96C12.2 19.3088 12.31 19.5988 12.15 19.7588L10.79 21.0888C10.53 21.3488 10.43 21.7388 10.56 22.0888L13.29 29.9088H13.3V16.0088H13.29Z" fill="url(#paint12_linear_4002_2090)"/>
<g filter="url(#filter3_ii_4002_2090)">
<path d="M16.0125 18.2461L14.6563 19.5212C14.608 19.5666 14.5952 19.6382 14.6248 19.6975L15.221 20.8906C15.2633 20.9753 15.3499 21.0289 15.4446 21.0289H16.5347C16.6299 21.0289 16.7167 20.9749 16.7589 20.8896L17.3582 19.6769C17.3872 19.6181 17.3747 19.5473 17.3273 19.502L16.0125 18.2461Z" fill="url(#paint13_linear_4002_2090)"/>
</g>
<g filter="url(#filter4_i_4002_2090)">
<path d="M21.22 21.039L19.86 19.709C19.69 19.539 19.81 19.259 20.05 19.259H21.1C21.31 19.259 21.45 19.039 21.36 18.849L20.13 16.229C19.89 16.129 19.64 16.039 19.39 15.959H18.71V29.909L21.46 22.049C21.58 21.689 21.49 21.299 21.22 21.039Z" fill="#615990"/>
<path d="M21.22 21.039L19.86 19.709C19.69 19.539 19.81 19.259 20.05 19.259H21.1C21.31 19.259 21.45 19.039 21.36 18.849L20.13 16.229C19.89 16.129 19.64 16.039 19.39 15.959H18.71V29.909L21.46 22.049C21.58 21.689 21.49 21.299 21.22 21.039Z" fill="url(#paint14_linear_4002_2090)"/>
</g>
<path d="M16 14.9756H13.29V19.7156C13.29 20.0256 13.65 20.2056 13.9 20.0056L16 18.6131L18.1 20.0056C18.35 20.2056 18.71 20.0256 18.71 19.7156V14.9756H16Z" fill="url(#paint15_radial_4002_2090)"/>
<path d="M16 14.9756H13.29V19.7156C13.29 20.0256 13.65 20.2056 13.9 20.0056L16 18.6131L18.1 20.0056C18.35 20.2056 18.71 20.0256 18.71 19.7156V14.9756H16Z" fill="url(#paint16_radial_4002_2090)"/>
<path d="M7.03187 29.9187H8.9701V17.9546C7.18742 19.4364 5.88126 21.4713 5.31367 23.7972C5.11021 24.6412 5.00465 25.5226 5.00996 26.4287L5.02992 29.9187H7.03187Z" fill="url(#paint17_linear_4002_2090)"/>
<path d="M15.5047 21.0288C15.3812 21.0288 15.2763 21.1189 15.2576 21.241L13.9301 29.9088H18.0401L16.7223 21.2412C16.7038 21.1191 16.5987 21.0288 16.4752 21.0288H15.5047Z" fill="url(#paint18_radial_4002_2090)"/>
<path d="M15.5047 21.0288C15.3812 21.0288 15.2763 21.1189 15.2576 21.241L13.9301 29.9088H18.0401L16.7223 21.2412C16.7038 21.1191 16.5987 21.0288 16.4752 21.0288H15.5047Z" fill="url(#paint19_linear_4002_2090)"/>
<path d="M15.5047 21.0288C15.3812 21.0288 15.2763 21.1189 15.2576 21.241L13.9301 29.9088H18.0401L16.7223 21.2412C16.7038 21.1191 16.5987 21.0288 16.4752 21.0288H15.5047Z" fill="url(#paint20_linear_4002_2090)"/>
<path d="M14.045 16.8086C14.0659 17.0221 14.25 17.4996 14.7911 17.8633C15.0046 18.0067 16.0042 18.4919 15.9838 18.4821C16.14 18.404 16.7911 18.1836 17.2677 17.8633C17.8088 17.4996 17.993 17.0221 18.0138 16.8086L16.0294 15.8555L14.045 16.8086Z" fill="url(#paint21_radial_4002_2090)"/>
<path d="M20.8613 12.1684C21.1965 12.1576 21.5105 12.0439 21.7659 11.8599V12.7909C21.7659 13.684 21.2338 14.4797 20.425 14.8099C20.5952 14.4472 20.7123 14.0521 20.7708 13.6299L20.8613 12.1684Z" fill="url(#paint22_radial_4002_2090)"/>
<path d="M20.8613 12.1684C21.1965 12.1576 21.5105 12.0439 21.7659 11.8599V12.7909C21.7659 13.684 21.2338 14.4797 20.425 14.8099C20.5952 14.4472 20.7123 14.0521 20.7708 13.6299L20.8613 12.1684Z" fill="url(#paint23_radial_4002_2090)"/>
<path d="M11.1387 12.1684C10.8035 12.1576 10.4895 12.0439 10.2341 11.8599V12.7909C10.2341 13.684 10.7662 14.4797 11.575 14.8099C11.4048 14.4472 11.2877 14.0521 11.2292 13.6299L11.1387 12.1684Z" fill="url(#paint24_radial_4002_2090)"/>
<path d="M11.1387 12.1684C10.8035 12.1576 10.4895 12.0439 10.2341 11.8599V12.7909C10.2341 13.684 10.7662 14.4797 11.575 14.8099C11.4048 14.4472 11.2877 14.0521 11.2292 13.6299L11.1387 12.1684Z" fill="url(#paint25_radial_4002_2090)"/>
<g filter="url(#filter5_ii_4002_2090)">
<path d="M11.175 13.6833C11.4323 15.6357 13.0938 17.0892 15.0607 17.0892H16.9473C18.9143 17.0892 20.5758 15.6357 20.833 13.6833C20.951 11.7996 21.0696 9.92352 21.1572 8.04082C21.1466 7.27382 20.5419 6.64092 19.7782 6.60873H18.378C17.4233 6.60873 16.5588 6.04555 16.1663 5.16592C16.0655 4.91383 15.8216 4.74756 15.5511 4.74756H14.2782C12.4324 4.74756 10.9368 6.26009 10.9368 8.12663C10.9368 9.98735 11.053 11.8179 11.175 13.6833Z" fill="url(#paint26_radial_4002_2090)"/>
</g>
<path d="M11.175 13.6833C11.4323 15.6357 13.0938 17.0892 15.0607 17.0892H16.9473C18.9143 17.0892 20.5758 15.6357 20.833 13.6833C20.951 11.7996 21.0696 9.92352 21.1572 8.04082C21.1466 7.27382 20.5419 6.64092 19.7782 6.60873H18.378C17.4233 6.60873 16.5588 6.04555 16.1663 5.16592C16.0655 4.91383 15.8216 4.74756 15.5511 4.74756H14.2782C12.4324 4.74756 10.9368 6.26009 10.9368 8.12663C10.9368 9.98735 11.053 11.8179 11.175 13.6833Z" fill="url(#paint27_radial_4002_2090)"/>
<path d="M11.175 13.6833C11.4323 15.6357 13.0938 17.0892 15.0607 17.0892H16.9473C18.9143 17.0892 20.5758 15.6357 20.833 13.6833C20.951 11.7996 21.0696 9.92352 21.1572 8.04082C21.1466 7.27382 20.5419 6.64092 19.7782 6.60873H18.378C17.4233 6.60873 16.5588 6.04555 16.1663 5.16592C16.0655 4.91383 15.8216 4.74756 15.5511 4.74756H14.2782C12.4324 4.74756 10.9368 6.26009 10.9368 8.12663C10.9368 9.98735 11.053 11.8179 11.175 13.6833Z" fill="url(#paint28_radial_4002_2090)"/>
<path d="M11.175 13.6833C11.4323 15.6357 13.0938 17.0892 15.0607 17.0892H16.9473C18.9143 17.0892 20.5758 15.6357 20.833 13.6833C20.951 11.7996 21.0696 9.92352 21.1572 8.04082C21.1466 7.27382 20.5419 6.64092 19.7782 6.60873H18.378C17.4233 6.60873 16.5588 6.04555 16.1663 5.16592C16.0655 4.91383 15.8216 4.74756 15.5511 4.74756H14.2782C12.4324 4.74756 10.9368 6.26009 10.9368 8.12663C10.9368 9.98735 11.053 11.8179 11.175 13.6833Z" fill="url(#paint29_radial_4002_2090)"/>
<path d="M11.175 13.6833C11.4323 15.6357 13.0938 17.0892 15.0607 17.0892H16.9473C18.9143 17.0892 20.5758 15.6357 20.833 13.6833C20.951 11.7996 21.0696 9.92352 21.1572 8.04082C21.1466 7.27382 20.5419 6.64092 19.7782 6.60873H18.378C17.4233 6.60873 16.5588 6.04555 16.1663 5.16592C16.0655 4.91383 15.8216 4.74756 15.5511 4.74756H14.2782C12.4324 4.74756 10.9368 6.26009 10.9368 8.12663C10.9368 9.98735 11.053 11.8179 11.175 13.6833Z" fill="url(#paint30_radial_4002_2090)"/>
<g filter="url(#filter6_f_4002_2090)">
<path d="M15.5139 10.3997L14.879 12.238C14.7705 12.6162 15.0308 12.9943 15.3996 12.9943H16.1859C16.5547 12.9943 16.815 12.6103 16.7066 12.238L16.1751 10.3997C16.0612 9.99243 15.6332 9.99243 15.5139 10.3997Z" fill="#EE9020"/>
</g>
<g filter="url(#filter7_f_4002_2090)">
<path d="M15.6178 10.2039L15.0863 12.0422C14.9779 12.4203 15.2382 12.7985 15.607 12.7985H16.3933C16.7621 12.7985 17.0224 12.4145 16.914 12.0422L16.3825 10.2039C16.2686 9.79663 15.7371 9.79663 15.6178 10.2039Z" fill="url(#paint31_linear_4002_2090)"/>
<path d="M15.6178 10.2039L15.0863 12.0422C14.9779 12.4203 15.2382 12.7985 15.607 12.7985H16.3933C16.7621 12.7985 17.0224 12.4145 16.914 12.0422L16.3825 10.2039C16.2686 9.79663 15.7371 9.79663 15.6178 10.2039Z" fill="url(#paint32_linear_4002_2090)"/>
<path d="M15.6178 10.2039L15.0863 12.0422C14.9779 12.4203 15.2382 12.7985 15.607 12.7985H16.3933C16.7621 12.7985 17.0224 12.4145 16.914 12.0422L16.3825 10.2039C16.2686 9.79663 15.7371 9.79663 15.6178 10.2039Z" fill="url(#paint33_linear_4002_2090)"/>
<path d="M15.6178 10.2039L15.0863 12.0422C14.9779 12.4203 15.2382 12.7985 15.607 12.7985H16.3933C16.7621 12.7985 17.0224 12.4145 16.914 12.0422L16.3825 10.2039C16.2686 9.79663 15.7371 9.79663 15.6178 10.2039Z" fill="url(#paint34_linear_4002_2090)"/>
</g>
<g filter="url(#filter8_f_4002_2090)">
<path d="M14.6492 13.42L14.6492 13.42C15.039 13.6232 15.5041 13.7399 16 13.7399C16.5008 13.7399 16.9608 13.6232 17.3507 13.42L17.3514 13.4196L17.3514 13.4196C17.4522 13.3684 17.5584 13.3982 17.6221 13.4643C17.6867 13.5314 17.7106 13.6396 17.6458 13.7369M14.6492 13.42L17.5833 13.6955M14.6492 13.42L14.6485 13.4196C14.5466 13.3678 14.4403 13.4003 14.3774 13.4666C14.3142 13.5331 14.2884 13.6415 14.3544 13.7375M14.6492 13.42L14.4166 13.6955M17.6458 13.7369C17.6458 13.737 17.6458 13.737 17.6457 13.7371L17.5833 13.6955M17.6458 13.7369C17.6459 13.7369 17.6459 13.7368 17.6459 13.7368L17.5833 13.6955M17.6458 13.7369C17.2974 14.2649 16.6906 14.6165 16 14.6165C15.3095 14.6165 14.7029 14.2651 14.3544 13.7375M17.5833 13.6955C17.2484 14.2031 16.6648 14.5415 16 14.5415C15.3351 14.5415 14.7515 14.2031 14.4166 13.6955M14.3544 13.7375C14.3546 13.7377 14.3548 13.738 14.355 13.7382L14.4166 13.6955M14.3544 13.7375C14.3543 13.7372 14.3541 13.737 14.354 13.7368L14.4166 13.6955" stroke="url(#paint35_radial_4002_2090)" stroke-width="0.15"/>
</g>
<path d="M16 13.8149C15.4925 13.8149 15.0154 13.6955 14.6145 13.4865C14.4775 13.4168 14.3303 13.5711 14.4166 13.6955C14.7515 14.2031 15.3351 14.5415 16 14.5415C16.6648 14.5415 17.2484 14.2031 17.5833 13.6955C17.6696 13.5661 17.5224 13.4168 17.3854 13.4865C16.9845 13.6955 16.5125 13.8149 16 13.8149Z" fill="url(#paint36_radial_4002_2090)"/>
<g filter="url(#filter9_ii_4002_2090)">
<path d="M20.8549 4.27574C21.3694 4.45274 21.8308 4.8121 22.1225 5.32701C22.5893 6.14764 22.5203 7.12918 22.0164 7.85327C21.8414 8.11072 21.746 8.41645 21.746 8.72754V9.91558C21.5589 9.78528 21.3121 9.68868 21.0787 9.6474L21.1572 8.041C21.1466 7.274 20.542 6.64109 19.7782 6.60891H18.3781C17.4234 6.60891 16.5589 6.04573 16.1664 5.1661C16.0656 4.91401 15.8216 4.74773 15.5511 4.74773H14.2782C12.4325 4.74773 10.9368 6.26028 10.9368 8.12681L10.9675 9.66416C10.7135 9.70148 10.4482 9.78638 10.2474 9.92783V8.72754C10.2474 8.41645 10.1519 8.11072 9.97686 7.85327C9.49952 7.15064 9.41466 6.20664 9.83366 5.40746C10.1254 4.85501 10.5974 4.46883 11.1331 4.2811C11.7059 4.07728 12.1938 3.6911 12.5174 3.17083C12.9311 2.51111 13.6577 2.07129 14.4904 2.07129C14.8139 2.07129 15.1215 2.14102 15.4079 2.25902C15.7898 2.42529 16.2194 2.42529 16.6013 2.25902C16.8824 2.14102 17.19 2.07129 17.5135 2.07129C18.3568 2.07129 19.0941 2.5272 19.5025 3.20301C19.8101 3.71256 20.2927 4.08265 20.8549 4.27574Z" fill="url(#paint37_linear_4002_2090)"/>
<path d="M20.8549 4.27574C21.3694 4.45274 21.8308 4.8121 22.1225 5.32701C22.5893 6.14764 22.5203 7.12918 22.0164 7.85327C21.8414 8.11072 21.746 8.41645 21.746 8.72754V9.91558C21.5589 9.78528 21.3121 9.68868 21.0787 9.6474L21.1572 8.041C21.1466 7.274 20.542 6.64109 19.7782 6.60891H18.3781C17.4234 6.60891 16.5589 6.04573 16.1664 5.1661C16.0656 4.91401 15.8216 4.74773 15.5511 4.74773H14.2782C12.4325 4.74773 10.9368 6.26028 10.9368 8.12681L10.9675 9.66416C10.7135 9.70148 10.4482 9.78638 10.2474 9.92783V8.72754C10.2474 8.41645 10.1519 8.11072 9.97686 7.85327C9.49952 7.15064 9.41466 6.20664 9.83366 5.40746C10.1254 4.85501 10.5974 4.46883 11.1331 4.2811C11.7059 4.07728 12.1938 3.6911 12.5174 3.17083C12.9311 2.51111 13.6577 2.07129 14.4904 2.07129C14.8139 2.07129 15.1215 2.14102 15.4079 2.25902C15.7898 2.42529 16.2194 2.42529 16.6013 2.25902C16.8824 2.14102 17.19 2.07129 17.5135 2.07129C18.3568 2.07129 19.0941 2.5272 19.5025 3.20301C19.8101 3.71256 20.2927 4.08265 20.8549 4.27574Z" fill="url(#paint38_radial_4002_2090)"/>
<path d="M20.8549 4.27574C21.3694 4.45274 21.8308 4.8121 22.1225 5.32701C22.5893 6.14764 22.5203 7.12918 22.0164 7.85327C21.8414 8.11072 21.746 8.41645 21.746 8.72754V9.91558C21.5589 9.78528 21.3121 9.68868 21.0787 9.6474L21.1572 8.041C21.1466 7.274 20.542 6.64109 19.7782 6.60891H18.3781C17.4234 6.60891 16.5589 6.04573 16.1664 5.1661C16.0656 4.91401 15.8216 4.74773 15.5511 4.74773H14.2782C12.4325 4.74773 10.9368 6.26028 10.9368 8.12681L10.9675 9.66416C10.7135 9.70148 10.4482 9.78638 10.2474 9.92783V8.72754C10.2474 8.41645 10.1519 8.11072 9.97686 7.85327C9.49952 7.15064 9.41466 6.20664 9.83366 5.40746C10.1254 4.85501 10.5974 4.46883 11.1331 4.2811C11.7059 4.07728 12.1938 3.6911 12.5174 3.17083C12.9311 2.51111 13.6577 2.07129 14.4904 2.07129C14.8139 2.07129 15.1215 2.14102 15.4079 2.25902C15.7898 2.42529 16.2194 2.42529 16.6013 2.25902C16.8824 2.14102 17.19 2.07129 17.5135 2.07129C18.3568 2.07129 19.0941 2.5272 19.5025 3.20301C19.8101 3.71256 20.2927 4.08265 20.8549 4.27574Z" fill="url(#paint39_radial_4002_2090)"/>
<path d="M20.8549 4.27574C21.3694 4.45274 21.8308 4.8121 22.1225 5.32701C22.5893 6.14764 22.5203 7.12918 22.0164 7.85327C21.8414 8.11072 21.746 8.41645 21.746 8.72754V9.91558C21.5589 9.78528 21.3121 9.68868 21.0787 9.6474L21.1572 8.041C21.1466 7.274 20.542 6.64109 19.7782 6.60891H18.3781C17.4234 6.60891 16.5589 6.04573 16.1664 5.1661C16.0656 4.91401 15.8216 4.74773 15.5511 4.74773H14.2782C12.4325 4.74773 10.9368 6.26028 10.9368 8.12681L10.9675 9.66416C10.7135 9.70148 10.4482 9.78638 10.2474 9.92783V8.72754C10.2474 8.41645 10.1519 8.11072 9.97686 7.85327C9.49952 7.15064 9.41466 6.20664 9.83366 5.40746C10.1254 4.85501 10.5974 4.46883 11.1331 4.2811C11.7059 4.07728 12.1938 3.6911 12.5174 3.17083C12.9311 2.51111 13.6577 2.07129 14.4904 2.07129C14.8139 2.07129 15.1215 2.14102 15.4079 2.25902C15.7898 2.42529 16.2194 2.42529 16.6013 2.25902C16.8824 2.14102 17.19 2.07129 17.5135 2.07129C18.3568 2.07129 19.0941 2.5272 19.5025 3.20301C19.8101 3.71256 20.2927 4.08265 20.8549 4.27574Z" fill="url(#paint40_radial_4002_2090)"/>
<path d="M20.8549 4.27574C21.3694 4.45274 21.8308 4.8121 22.1225 5.32701C22.5893 6.14764 22.5203 7.12918 22.0164 7.85327C21.8414 8.11072 21.746 8.41645 21.746 8.72754V9.91558C21.5589 9.78528 21.3121 9.68868 21.0787 9.6474L21.1572 8.041C21.1466 7.274 20.542 6.64109 19.7782 6.60891H18.3781C17.4234 6.60891 16.5589 6.04573 16.1664 5.1661C16.0656 4.91401 15.8216 4.74773 15.5511 4.74773H14.2782C12.4325 4.74773 10.9368 6.26028 10.9368 8.12681L10.9675 9.66416C10.7135 9.70148 10.4482 9.78638 10.2474 9.92783V8.72754C10.2474 8.41645 10.1519 8.11072 9.97686 7.85327C9.49952 7.15064 9.41466 6.20664 9.83366 5.40746C10.1254 4.85501 10.5974 4.46883 11.1331 4.2811C11.7059 4.07728 12.1938 3.6911 12.5174 3.17083C12.9311 2.51111 13.6577 2.07129 14.4904 2.07129C14.8139 2.07129 15.1215 2.14102 15.4079 2.25902C15.7898 2.42529 16.2194 2.42529 16.6013 2.25902C16.8824 2.14102 17.19 2.07129 17.5135 2.07129C18.3568 2.07129 19.0941 2.5272 19.5025 3.20301C19.8101 3.71256 20.2927 4.08265 20.8549 4.27574Z" fill="url(#paint41_radial_4002_2090)"/>
</g>
<g filter="url(#filter10_i_4002_2090)">
<path d="M19.733 7.93855C19.5578 7.78597 19.3541 7.62428 19.0455 7.52714C18.7413 7.43136 18.3602 7.40563 17.833 7.47013C17.681 7.48873 17.5728 7.62705 17.5914 7.77908C17.61 7.93111 17.7484 8.03928 17.9004 8.02068C18.3816 7.96181 18.6763 7.9924 18.879 8.05619C19.0772 8.11861 19.2114 8.21975 19.3687 8.3568C19.4842 8.4574 19.6594 8.44532 19.76 8.32982C19.8606 8.21433 19.8485 8.03915 19.733 7.93855Z" fill="#C05029"/>
</g>
<g filter="url(#filter11_i_4002_2090)">
<path d="M12.5892 7.82966C12.6793 7.77572 12.8089 7.70672 12.9727 7.64233C13.3001 7.51359 13.7681 7.40177 14.3281 7.47028C14.4801 7.48888 14.5883 7.6272 14.5697 7.77923C14.5511 7.93126 14.4128 8.03942 14.2607 8.02083C13.8123 7.96597 13.4382 8.05529 13.1757 8.15852C13.0444 8.21012 12.9421 8.26482 12.874 8.30558C12.84 8.32592 12.8148 8.34266 12.7989 8.35362C12.791 8.3591 12.7854 8.36311 12.7823 8.3654L12.7796 8.36745C12.6587 8.46062 12.4851 8.43867 12.3913 8.31808C12.2973 8.19719 12.3191 8.02295 12.44 7.92892L12.5892 7.82966Z" fill="#C05029"/>
</g>
<g filter="url(#filter12_f_4002_2090)">
<path d="M16.2325 5.30289C16.2092 5.2582 16.1871 5.21258 16.1664 5.16608C16.0656 4.91399 15.8216 4.74772 15.5511 4.74772H14.2782C12.4325 4.74772 10.9368 6.26026 10.9368 8.1268V8.40196C10.5968 8.14322 10.1692 7.59741 10.1692 6.71415C10.1692 5.64232 10.9509 5.10054 11.4496 4.75496C11.5904 4.65739 11.7086 4.57547 11.7803 4.50166C11.8107 4.47031 11.8439 4.43514 11.8799 4.39689C12.2295 4.02617 12.8523 3.36563 13.9398 3.07695C14.4712 2.93588 15.0097 2.90136 15.4475 2.91192C15.9202 2.92333 16.2535 3.33161 16.2535 3.80445V5.28944L16.2325 5.30289Z" fill="url(#paint42_radial_4002_2090)"/>
<path d="M16.2325 5.30289C16.2092 5.2582 16.1871 5.21258 16.1664 5.16608C16.0656 4.91399 15.8216 4.74772 15.5511 4.74772H14.2782C12.4325 4.74772 10.9368 6.26026 10.9368 8.1268V8.40196C10.5968 8.14322 10.1692 7.59741 10.1692 6.71415C10.1692 5.64232 10.9509 5.10054 11.4496 4.75496C11.5904 4.65739 11.7086 4.57547 11.7803 4.50166C11.8107 4.47031 11.8439 4.43514 11.8799 4.39689C12.2295 4.02617 12.8523 3.36563 13.9398 3.07695C14.4712 2.93588 15.0097 2.90136 15.4475 2.91192C15.9202 2.92333 16.2535 3.33161 16.2535 3.80445V5.28944L16.2325 5.30289Z" fill="url(#paint43_radial_4002_2090)"/>
</g>
<g filter="url(#filter13_f_4002_2090)">
<path d="M21.2127 8.67508L21.1835 8.04389C21.1729 7.28043 20.542 6.65045 19.7782 6.61842H18.378C17.4892 6.61842 16.6785 6.13246 16.2541 5.35877C16.2541 5.35877 16.1955 5.22307 16.1341 4.99064C15.8779 4.02085 16.805 3.2783 17.7898 3.46928C18.7632 3.65807 19.872 3.98619 20.6918 4.52091C22.4364 5.65877 22.131 7.70941 21.2127 8.67508Z" fill="url(#paint44_radial_4002_2090)"/>
<path d="M21.2127 8.67508L21.1835 8.04389C21.1729 7.28043 20.542 6.65045 19.7782 6.61842H18.378C17.4892 6.61842 16.6785 6.13246 16.2541 5.35877C16.2541 5.35877 16.1955 5.22307 16.1341 4.99064C15.8779 4.02085 16.805 3.2783 17.7898 3.46928C18.7632 3.65807 19.872 3.98619 20.6918 4.52091C22.4364 5.65877 22.131 7.70941 21.2127 8.67508Z" fill="url(#paint45_radial_4002_2090)"/>
<path d="M21.2127 8.67508L21.1835 8.04389C21.1729 7.28043 20.542 6.65045 19.7782 6.61842H18.378C17.4892 6.61842 16.6785 6.13246 16.2541 5.35877C16.2541 5.35877 16.1955 5.22307 16.1341 4.99064C15.8779 4.02085 16.805 3.2783 17.7898 3.46928C18.7632 3.65807 19.872 3.98619 20.6918 4.52091C22.4364 5.65877 22.131 7.70941 21.2127 8.67508Z" fill="url(#paint46_radial_4002_2090)"/>
<path d="M21.2127 8.67508L21.1835 8.04389C21.1729 7.28043 20.542 6.65045 19.7782 6.61842H18.378C17.4892 6.61842 16.6785 6.13246 16.2541 5.35877C16.2541 5.35877 16.1955 5.22307 16.1341 4.99064C15.8779 4.02085 16.805 3.2783 17.7898 3.46928C18.7632 3.65807 19.872 3.98619 20.6918 4.52091C22.4364 5.65877 22.131 7.70941 21.2127 8.67508Z" fill="url(#paint47_radial_4002_2090)"/>
<path d="M21.2127 8.67508L21.1835 8.04389C21.1729 7.28043 20.542 6.65045 19.7782 6.61842H18.378C17.4892 6.61842 16.6785 6.13246 16.2541 5.35877C16.2541 5.35877 16.1955 5.22307 16.1341 4.99064C15.8779 4.02085 16.805 3.2783 17.7898 3.46928C18.7632 3.65807 19.872 3.98619 20.6918 4.52091C22.4364 5.65877 22.131 7.70941 21.2127 8.67508Z" fill="url(#paint48_radial_4002_2090)"/>
</g>
<path d="M18.3911 9.25342C19.0442 9.25342 19.5959 9.7037 19.746 10.3122C19.7907 10.4866 19.6568 10.6529 19.4783 10.6529H17.2472C17.1052 10.6529 16.9916 10.5231 17.02 10.3812C17.1458 9.74021 17.7096 9.25342 18.3911 9.25342Z" fill="white"/>
<path d="M18.1841 9.52515C18.679 9.52515 19.0766 9.92675 19.0766 10.4176C19.0766 10.4987 19.0644 10.5799 19.0441 10.6529H17.3201C17.2998 10.5758 17.2876 10.4987 17.2876 10.4176C17.2876 9.92675 17.6892 9.52515 18.1841 9.52515Z" fill="url(#paint49_radial_4002_2090)"/>
<path d="M17.673 10.4176C17.673 10.1337 17.9001 9.90649 18.1841 9.90649C18.4681 9.90649 18.6952 10.1337 18.6952 10.4176C18.6952 10.5028 18.675 10.5839 18.6384 10.6529H17.7338C17.6933 10.5839 17.673 10.5028 17.673 10.4176Z" fill="black"/>
<g filter="url(#filter14_f_4002_2090)">
<path d="M18.1184 9.71382C18.182 9.79887 18.0491 9.90254 17.898 10.0155C17.7469 10.1285 17.6348 10.208 17.5712 10.123C17.5076 10.0379 17.5786 9.8774 17.7297 9.76442C17.8808 9.65144 18.0548 9.62878 18.1184 9.71382Z" fill="#C7A7A3"/>
<path d="M18.1184 9.71382C18.182 9.79887 18.0491 9.90254 17.898 10.0155C17.7469 10.1285 17.6348 10.208 17.5712 10.123C17.5076 10.0379 17.5786 9.8774 17.7297 9.76442C17.8808 9.65144 18.0548 9.62878 18.1184 9.71382Z" fill="url(#paint50_radial_4002_2090)"/>
</g>
<g filter="url(#filter15_f_4002_2090)">
<path d="M18.979 10.3001C18.9461 10.0694 18.8111 9.8955 18.7477 9.8374L18.4878 10.1226L18.6051 10.3508L18.979 10.3001Z" fill="url(#paint51_linear_4002_2090)"/>
</g>
<path d="M13.6092 9.25342C12.9561 9.25342 12.4044 9.70372 12.2543 10.3122C12.2096 10.4867 12.3435 10.653 12.522 10.653H14.7532C14.8952 10.653 15.0088 10.5232 14.9804 10.3812C14.8547 9.74023 14.2867 9.25342 13.6092 9.25342Z" fill="white"/>
<path d="M13.816 9.52515C13.321 9.52515 12.9235 9.92677 12.9235 10.4176C12.9235 10.4988 12.9356 10.5799 12.9559 10.6529H14.6801C14.7003 10.5759 14.7125 10.4988 14.7125 10.4176C14.7085 9.92677 14.3109 9.52515 13.816 9.52515Z" fill="url(#paint52_radial_4002_2090)"/>
<path d="M14.327 10.4177C14.327 10.1337 14.0998 9.90649 13.8158 9.90649C13.5319 9.90649 13.3047 10.1337 13.3047 10.4177C13.3047 10.5028 13.325 10.584 13.3615 10.6529H14.2661C14.3027 10.584 14.327 10.5028 14.327 10.4177Z" fill="black"/>
<g filter="url(#filter16_f_4002_2090)">
<path d="M14.6314 10.3127C14.6314 10.0243 14.3968 9.83203 14.3335 9.77393L14.045 10.0528L14.2225 10.4141L14.6314 10.3127Z" fill="url(#paint53_linear_4002_2090)"/>
</g>
<g filter="url(#filter17_f_4002_2090)">
<ellipse cx="13.5467" cy="9.90639" rx="0.389622" ry="0.197185" transform="rotate(-27.914 13.5467 9.90639)" fill="#C7A7A3" fill-opacity="0.9"/>
<ellipse cx="13.5467" cy="9.90639" rx="0.389622" ry="0.197185" transform="rotate(-27.914 13.5467 9.90639)" fill="url(#paint54_radial_4002_2090)"/>
</g>
<path d="M20.9219 12.2592C20.9877 11.195 21.0511 10.1321 21.1065 9.06787C21.862 9.20007 22.4363 9.85938 22.4363 10.6528C22.4363 11.5097 21.7665 12.2102 20.9219 12.2592Z" fill="url(#paint55_linear_4002_2090)"/>
<path d="M20.9219 12.2592C20.9877 11.195 21.0511 10.1321 21.1065 9.06787C21.862 9.20007 22.4363 9.85938 22.4363 10.6528C22.4363 11.5097 21.7665 12.2102 20.9219 12.2592Z" fill="url(#paint56_radial_4002_2090)"/>
<path d="M20.9219 12.2592C20.9877 11.195 21.0511 10.1321 21.1065 9.06787C21.862 9.20007 22.4363 9.85938 22.4363 10.6528C22.4363 11.5097 21.7665 12.2102 20.9219 12.2592Z" fill="url(#paint57_radial_4002_2090)"/>
<path d="M10.9461 9.05957C10.1648 9.16974 9.56372 9.84108 9.56372 10.6528C9.56372 11.5119 10.2369 12.2137 11.0846 12.2595C11.02 11.191 10.9668 10.1285 10.9461 9.05957Z" fill="url(#paint58_linear_4002_2090)"/>
<path d="M10.9461 9.05957C10.1648 9.16974 9.56372 9.84108 9.56372 10.6528C9.56372 11.5119 10.2369 12.2137 11.0846 12.2595C11.02 11.191 10.9668 10.1285 10.9461 9.05957Z" fill="url(#paint59_radial_4002_2090)"/>
<g filter="url(#filter18_f_4002_2090)">
<path d="M10.963 9.7207C10.5363 9.81636 10.2175 10.1974 10.2175 10.653C10.2175 11.1377 10.5786 11.5382 11.0464 11.6001C11.0118 10.9732 10.9825 10.3476 10.963 9.7207Z" fill="#DD8224"/>
</g>
<g filter="url(#filter19_f_4002_2090)">
<path d="M20.9619 11.6082C21.0004 10.9736 21.0377 10.3394 21.0725 9.70483C21.5438 9.76363 21.9084 10.1656 21.9084 10.6528C21.9084 11.1775 21.4855 11.6034 20.9619 11.6082Z" fill="#FFC837"/>
</g>
<g filter="url(#filter20_f_4002_2090)">
<path d="M12.6268 8.10949C12.8838 7.92511 13.4187 7.64453 14.2469 7.64453" stroke="#CC6854" stroke-width="0.15" stroke-linecap="round"/>
</g>
<g filter="url(#filter21_f_4002_2090)">
<path d="M19.5281 7.98811C19.3093 7.75373 18.6921 7.52717 17.9058 7.6819" stroke="#CC6854" stroke-width="0.15" stroke-linecap="round"/>
</g>
<defs>
<filter id="filter0_f_4002_2090" x="9.21191" y="15.7661" width="6.55583" height="14.595" filterUnits="userSpaceOnUse" color-interpolation-filters="sRGB">
<feFlood flood-opacity="0" result="BackgroundImageFix"/>
<feBlend mode="normal" in="SourceGraphic" in2="BackgroundImageFix" result="shape"/>
<feGaussianBlur stdDeviation="0.5" result="effect1_foregroundBlur_4002_2090"/>
</filter>
<filter id="filter1_f_4002_2090" x="17.96" y="16.2437" width="3.94995" height="13.3618" filterUnits="userSpaceOnUse" color-interpolation-filters="sRGB">
<feFlood flood-opacity="0" result="BackgroundImageFix"/>
<feBlend mode="normal" in="SourceGraphic" in2="BackgroundImageFix" result="shape"/>
<feGaussianBlur stdDeviation="0.375" result="effect1_foregroundBlur_4002_2090"/>
</filter>
<filter id="filter2_i_4002_2090" x="10.5032" y="16.0088" width="2.8968" height="13.9999" filterUnits="userSpaceOnUse" color-interpolation-filters="sRGB">
<feFlood flood-opacity="0" result="BackgroundImageFix"/>
<feBlend mode="normal" in="SourceGraphic" in2="BackgroundImageFix" result="shape"/>
<feColorMatrix in="SourceAlpha" type="matrix" values="0 0 0 0 0 0 0 0 0 0 0 0 0 0 0 0 0 0 127 0" result="hardAlpha"/>
<feOffset dx="0.1" dy="0.1"/>
<feGaussianBlur stdDeviation="0.1"/>
<feComposite in2="hardAlpha" operator="arithmetic" k2="-1" k3="1"/>
<feColorMatrix type="matrix" values="0 0 0 0 0.403922 0 0 0 0 0.368627 0 0 0 0 0.494118 0 0 0 1 0"/>
<feBlend mode="normal" in2="shape" result="effect1_innerShadow_4002_2090"/>
</filter>
<filter id="filter3_ii_4002_2090" x="14.509" y="18.1461" width="2.96466" height="2.88271" filterUnits="userSpaceOnUse" color-interpolation-filters="sRGB">
<feFlood flood-opacity="0" result="BackgroundImageFix"/>
<feBlend mode="normal" in="SourceGraphic" in2="BackgroundImageFix" result="shape"/>
<feColorMatrix in="SourceAlpha" type="matrix" values="0 0 0 0 0 0 0 0 0 0 0 0 0 0 0 0 0 0 127 0" result="hardAlpha"/>
<feOffset dx="0.1" dy="-0.1"/>
<feGaussianBlur stdDeviation="0.25"/>
<feComposite in2="hardAlpha" operator="arithmetic" k2="-1" k3="1"/>
<feColorMatrix type="matrix" values="0 0 0 0 0.156863 0 0 0 0 0.0980392 0 0 0 0 0.215686 0 0 0 1 0"/>
<feBlend mode="normal" in2="shape" result="effect1_innerShadow_4002_2090"/>
<feColorMatrix in="SourceAlpha" type="matrix" values="0 0 0 0 0 0 0 0 0 0 0 0 0 0 0 0 0 0 127 0" result="hardAlpha"/>
<feOffset dx="-0.1" dy="-0.1"/>
<feGaussianBlur stdDeviation="0.25"/>
<feComposite in2="hardAlpha" operator="arithmetic" k2="-1" k3="1"/>
<feColorMatrix type="matrix" values="0 0 0 0 0.156863 0 0 0 0 0.0980392 0 0 0 0 0.215686 0 0 0 1 0"/>
<feBlend mode="normal" in2="effect1_innerShadow_4002_2090" result="effect2_innerShadow_4002_2090"/>
</filter>
<filter id="filter4_i_4002_2090" x="18.61" y="15.959" width="2.90215" height="14.05" filterUnits="userSpaceOnUse" color-interpolation-filters="sRGB">
<feFlood flood-opacity="0" result="BackgroundImageFix"/>
<feBlend mode="normal" in="SourceGraphic" in2="BackgroundImageFix" result="shape"/>
<feColorMatrix in="SourceAlpha" type="matrix" values="0 0 0 0 0 0 0 0 0 0 0 0 0 0 0 0 0 0 127 0" result="hardAlpha"/>
<feOffset dx="-0.1" dy="0.1"/>
<feGaussianBlur stdDeviation="0.1"/>
<feComposite in2="hardAlpha" operator="arithmetic" k2="-1" k3="1"/>
<feColorMatrix type="matrix" values="0 0 0 0 0.439216 0 0 0 0 0.415686 0 0 0 0 0.584314 0 0 0 1 0"/>
<feBlend mode="normal" in2="shape" result="effect1_innerShadow_4002_2090"/>
</filter>
<filter id="filter5_ii_4002_2090" x="10.9368" y="4.74756" width="10.7204" height="12.5418" filterUnits="userSpaceOnUse" color-interpolation-filters="sRGB">
<feFlood flood-opacity="0" result="BackgroundImageFix"/>
<feBlend mode="normal" in="SourceGraphic" in2="BackgroundImageFix" result="shape"/>
<feColorMatrix in="SourceAlpha" type="matrix" values="0 0 0 0 0 0 0 0 0 0 0 0 0 0 0 0 0 0 127 0" result="hardAlpha"/>
<feOffset dx="0.5"/>
<feGaussianBlur stdDeviation="0.5"/>
<feComposite in2="hardAlpha" operator="arithmetic" k2="-1" k3="1"/>
<feColorMatrix type="matrix" values="0 0 0 0 0.823529 0 0 0 0 0.623529 0 0 0 0 0.313726 0 0 0 1 0"/>
<feBlend mode="normal" in2="shape" result="effect1_innerShadow_4002_2090"/>
<feColorMatrix in="SourceAlpha" type="matrix" values="0 0 0 0 0 0 0 0 0 0 0 0 0 0 0 0 0 0 127 0" result="hardAlpha"/>
<feOffset dy="0.2"/>
<feGaussianBlur stdDeviation="0.375"/>
<feComposite in2="hardAlpha" operator="arithmetic" k2="-1" k3="1"/>
<feColorMatrix type="matrix" values="0 0 0 0 0.980392 0 0 0 0 0.54902 0 0 0 0 0.0941176 0 0 0 1 0"/>
<feBlend mode="normal" in2="effect1_innerShadow_4002_2090" result="effect2_innerShadow_4002_2090"/>
</filter>
<filter id="filter6_f_4002_2090" x="13.8541" y="9.09424" width="3.87727" height="4.90015" filterUnits="userSpaceOnUse" color-interpolation-filters="sRGB">
<feFlood flood-opacity="0" result="BackgroundImageFix"/>
<feBlend mode="normal" in="SourceGraphic" in2="BackgroundImageFix" result="shape"/>
<feGaussianBlur stdDeviation="0.5" result="effect1_foregroundBlur_4002_2090"/>
</filter>
<filter id="filter7_f_4002_2090" x="14.9615" y="9.79844" width="2.07727" height="3.10015" filterUnits="userSpaceOnUse" color-interpolation-filters="sRGB">
<feFlood flood-opacity="0" result="BackgroundImageFix"/>
<feBlend mode="normal" in="SourceGraphic" in2="BackgroundImageFix" result="shape"/>
<feGaussianBlur stdDeviation="0.05" result="effect1_foregroundBlur_4002_2090"/>
</filter>
<filter id="filter8_f_4002_2090" x="14.1407" y="13.2186" width="3.71845" height="1.5728" filterUnits="userSpaceOnUse" color-interpolation-filters="sRGB">
<feFlood flood-opacity="0" result="BackgroundImageFix"/>
<feBlend mode="normal" in="SourceGraphic" in2="BackgroundImageFix" result="shape"/>
<feGaussianBlur stdDeviation="0.05" result="effect1_foregroundBlur_4002_2090"/>
</filter>
<filter id="filter9_ii_4002_2090" x="9.56372" y="1.57129" width="12.8727" height="8.35645" filterUnits="userSpaceOnUse" color-interpolation-filters="sRGB">
<feFlood flood-opacity="0" result="BackgroundImageFix"/>
<feBlend mode="normal" in="SourceGraphic" in2="BackgroundImageFix" result="shape"/>
<feColorMatrix in="SourceAlpha" type="matrix" values="0 0 0 0 0 0 0 0 0 0 0 0 0 0 0 0 0 0 127 0" result="hardAlpha"/>
<feOffset dy="-0.5"/>
<feGaussianBlur stdDeviation="0.625"/>
<feComposite in2="hardAlpha" operator="arithmetic" k2="-1" k3="1"/>
<feColorMatrix type="matrix" values="0 0 0 0 0.945098 0 0 0 0 0.509804 0 0 0 0 0.0627451 0 0 0 1 0"/>
<feBlend mode="normal" in2="shape" result="effect1_innerShadow_4002_2090"/>
<feColorMatrix in="SourceAlpha" type="matrix" values="0 0 0 0 0 0 0 0 0 0 0 0 0 0 0 0 0 0 127 0" result="hardAlpha"/>
<feOffset dy="-0.2"/>
<feGaussianBlur stdDeviation="0.2"/>
<feComposite in2="hardAlpha" operator="arithmetic" k2="-1" k3="1"/>
<feColorMatrix type="matrix" values="0 0 0 0 0.862745 0 0 0 0 0.486275 0 0 0 0 0.0470588 0 0 0 1 0"/>
<feBlend mode="normal" in2="effect1_innerShadow_4002_2090" result="effect2_innerShadow_4002_2090"/>
</filter>
<filter id="filter10_i_4002_2090" x="17.5894" y="7.23457" width="2.33886" height="1.19048" filterUnits="userSpaceOnUse" color-interpolation-filters="sRGB">
<feFlood flood-opacity="0" result="BackgroundImageFix"/>
<feBlend mode="normal" in="SourceGraphic" in2="BackgroundImageFix" result="shape"/>
<feColorMatrix in="SourceAlpha" type="matrix" values="0 0 0 0 0 0 0 0 0 0 0 0 0 0 0 0 0 0 127 0" result="hardAlpha"/>
<feOffset dx="0.1" dy="-0.2"/>
<feGaussianBlur stdDeviation="0.125"/>
<feComposite in2="hardAlpha" operator="arithmetic" k2="-1" k3="1"/>
<feColorMatrix type="matrix" values="0 0 0 0 0.603922 0 0 0 0 0.243137 0 0 0 0 0.152941 0 0 0 1 0"/>
<feBlend mode="normal" in2="shape" result="effect1_innerShadow_4002_2090"/>
</filter>
<filter id="filter11_i_4002_2090" x="12.3329" y="7.24946" width="2.33888" height="1.17559" filterUnits="userSpaceOnUse" color-interpolation-filters="sRGB">
<feFlood flood-opacity="0" result="BackgroundImageFix"/>
<feBlend mode="normal" in="SourceGraphic" in2="BackgroundImageFix" result="shape"/>
<feColorMatrix in="SourceAlpha" type="matrix" values="0 0 0 0 0 0 0 0 0 0 0 0 0 0 0 0 0 0 127 0" result="hardAlpha"/>
<feOffset dx="0.1" dy="-0.2"/>
<feGaussianBlur stdDeviation="0.125"/>
<feComposite in2="hardAlpha" operator="arithmetic" k2="-1" k3="1"/>
<feColorMatrix type="matrix" values="0 0 0 0 0.603922 0 0 0 0 0.243137 0 0 0 0 0.152941 0 0 0 1 0"/>
<feBlend mode="normal" in2="shape" result="effect1_innerShadow_4002_2090"/>
</filter>
<filter id="filter12_f_4002_2090" x="9.91919" y="2.66016" width="6.58435" height="5.9917" filterUnits="userSpaceOnUse" color-interpolation-filters="sRGB">
<feFlood flood-opacity="0" result="BackgroundImageFix"/>
<feBlend mode="normal" in="SourceGraphic" in2="BackgroundImageFix" result="shape"/>
<feGaussianBlur stdDeviation="0.125" result="effect1_foregroundBlur_4002_2090"/>
</filter>
<filter id="filter13_f_4002_2090" x="15.841" y="3.18921" width="6.3615" height="5.73584" filterUnits="userSpaceOnUse" color-interpolation-filters="sRGB">
<feFlood flood-opacity="0" result="BackgroundImageFix"/>
<feBlend mode="normal" in="SourceGraphic" in2="BackgroundImageFix" result="shape"/>
<feGaussianBlur stdDeviation="0.125" result="effect1_foregroundBlur_4002_2090"/>
</filter>
<filter id="filter14_f_4002_2090" x="17.4479" y="9.56235" width="0.786838" height="0.696338" filterUnits="userSpaceOnUse" color-interpolation-filters="sRGB">
<feFlood flood-opacity="0" result="BackgroundImageFix"/>
<feBlend mode="normal" in="SourceGraphic" in2="BackgroundImageFix" result="shape"/>
<feGaussianBlur stdDeviation="0.05" result="effect1_foregroundBlur_4002_2090"/>
</filter>
<filter id="filter15_f_4002_2090" x="18.2878" y="9.6374" width="0.891226" height="0.913428" filterUnits="userSpaceOnUse" color-interpolation-filters="sRGB">
<feFlood flood-opacity="0" result="BackgroundImageFix"/>
<feBlend mode="normal" in="SourceGraphic" in2="BackgroundImageFix" result="shape"/>
<feGaussianBlur stdDeviation="0.1" result="effect1_foregroundBlur_4002_2090"/>
</filter>
<filter id="filter16_f_4002_2090" x="13.845" y="9.57393" width="0.986334" height="1.04014" filterUnits="userSpaceOnUse" color-interpolation-filters="sRGB">
<feFlood flood-opacity="0" result="BackgroundImageFix"/>
<feBlend mode="normal" in="SourceGraphic" in2="BackgroundImageFix" result="shape"/>
<feGaussianBlur stdDeviation="0.1" result="effect1_foregroundBlur_4002_2090"/>
</filter>
<filter id="filter17_f_4002_2090" x="13.0902" y="9.55405" width="0.913074" height="0.704639" filterUnits="userSpaceOnUse" color-interpolation-filters="sRGB">
<feFlood flood-opacity="0" result="BackgroundImageFix"/>
<feBlend mode="normal" in="SourceGraphic" in2="BackgroundImageFix" result="shape"/>
<feGaussianBlur stdDeviation="0.05" result="effect1_foregroundBlur_4002_2090"/>
</filter>
<filter id="filter18_f_4002_2090" x="9.96753" y="9.4707" width="1.3289" height="2.37939" filterUnits="userSpaceOnUse" color-interpolation-filters="sRGB">
<feFlood flood-opacity="0" result="BackgroundImageFix"/>
<feBlend mode="normal" in="SourceGraphic" in2="BackgroundImageFix" result="shape"/>
<feGaussianBlur stdDeviation="0.125" result="effect1_foregroundBlur_4002_2090"/>
</filter>
<filter id="filter19_f_4002_2090" x="20.7119" y="9.45483" width="1.44653" height="2.40332" filterUnits="userSpaceOnUse" color-interpolation-filters="sRGB">
<feFlood flood-opacity="0" result="BackgroundImageFix"/>
<feBlend mode="normal" in="SourceGraphic" in2="BackgroundImageFix" result="shape"/>
<feGaussianBlur stdDeviation="0.125" result="effect1_foregroundBlur_4002_2090"/>
</filter>
<filter id="filter20_f_4002_2090" x="12.4018" y="7.41958" width="2.07003" height="0.91499" filterUnits="userSpaceOnUse" color-interpolation-filters="sRGB">
<feFlood flood-opacity="0" result="BackgroundImageFix"/>
<feBlend mode="normal" in="SourceGraphic" in2="BackgroundImageFix" result="shape"/>
<feGaussianBlur stdDeviation="0.075" result="effect1_foregroundBlur_4002_2090"/>
</filter>
<filter id="filter21_f_4002_2090" x="17.6808" y="7.40615" width="2.07226" height="0.806836" filterUnits="userSpaceOnUse" color-interpolation-filters="sRGB">
<feFlood flood-opacity="0" result="BackgroundImageFix"/>
<feBlend mode="normal" in="SourceGraphic" in2="BackgroundImageFix" result="shape"/>
<feGaussianBlur stdDeviation="0.075" result="effect1_foregroundBlur_4002_2090"/>
</filter>
<linearGradient id="paint0_linear_4002_2090" x1="15.9999" y1="16.2305" x2="15.9999" y2="31.168" gradientUnits="userSpaceOnUse">
<stop stop-color="#594E72"/>
<stop offset="1" stop-color="#594984"/>
</linearGradient>
<radialGradient id="paint1_radial_4002_2090" cx="0" cy="0" r="1" gradientUnits="userSpaceOnUse" gradientTransform="translate(22.9949 25.4117) rotate(-90) scale(16.4313 6.37009)">
<stop offset="0.155797" stop-color="#7B74A6"/>
<stop offset="1" stop-color="#5F5490" stop-opacity="0"/>
</radialGradient>
<radialGradient id="paint2_radial_4002_2090" cx="0" cy="0" r="1" gradientUnits="userSpaceOnUse" gradientTransform="translate(16 22.9838) rotate(90) scale(10.1215 4.59696)">
<stop offset="0.397031" stop-color="#C6BBD1"/>
<stop offset="1" stop-color="#A89CB3"/>
</radialGradient>
<linearGradient id="paint3_linear_4002_2090" x1="18.9031" y1="25.2303" x2="17.0593" y2="25.2303" gradientUnits="userSpaceOnUse">
<stop stop-color="#7A6C85"/>
<stop offset="1" stop-color="#C7BCD2" stop-opacity="0"/>
</linearGradient>
<linearGradient id="paint4_linear_4002_2090" x1="15.5906" y1="17.7772" x2="15.6687" y2="21.6678" gradientUnits="userSpaceOnUse">
<stop stop-color="#877F93"/>
<stop offset="1" stop-color="#877F93" stop-opacity="0"/>
</linearGradient>
<radialGradient id="paint5_radial_4002_2090" cx="0" cy="0" r="1" gradientUnits="userSpaceOnUse" gradientTransform="translate(25 29.9188) rotate(-90) scale(10.3135 1.68433)">
<stop stop-color="#776D9F"/>
<stop offset="1" stop-color="#6D6193"/>
</radialGradient>
<linearGradient id="paint6_linear_4002_2090" x1="23" y1="29.4058" x2="23.7438" y2="29.382" gradientUnits="userSpaceOnUse">
<stop offset="0.275571" stop-color="#504176"/>
<stop offset="1" stop-color="#504176" stop-opacity="0"/>
</linearGradient>
<linearGradient id="paint7_linear_4002_2090" x1="11.9016" y1="16.0088" x2="11.9016" y2="29.9088" gradientUnits="userSpaceOnUse">
<stop stop-color="#594B78"/>
<stop offset="0.524033" stop-color="#5D5087"/>
</linearGradient>
<linearGradient id="paint8_linear_4002_2090" x1="13.6709" y1="22.4681" x2="13.0501" y2="22.4681" gradientUnits="userSpaceOnUse">
<stop stop-color="#553A63"/>
<stop offset="1" stop-color="#553A63" stop-opacity="0"/>
</linearGradient>
<radialGradient id="paint9_radial_4002_2090" cx="0" cy="0" r="1" gradientUnits="userSpaceOnUse" gradientTransform="translate(13.7156 16.2928) rotate(126.18) scale(2.59394 3.59462)">
<stop stop-color="#4E3360"/>
<stop offset="1" stop-color="#4E3360" stop-opacity="0"/>
</radialGradient>
<linearGradient id="paint10_linear_4002_2090" x1="11.9016" y1="25.8848" x2="12.8388" y2="25.4833" gradientUnits="userSpaceOnUse">
<stop offset="0.195813" stop-color="#594C7D"/>
<stop offset="1" stop-color="#594C7D" stop-opacity="0"/>
</linearGradient>
<radialGradient id="paint11_radial_4002_2090" cx="0" cy="0" r="1" gradientUnits="userSpaceOnUse" gradientTransform="translate(11.3953 19.6757) rotate(-15.9454) scale(1.13752 0.559025)">
<stop offset="0.241347" stop-color="#4B3B6D"/>
<stop offset="1" stop-color="#4B3B6D" stop-opacity="0"/>
</radialGradient>
<linearGradient id="paint12_linear_4002_2090" x1="12.2234" y1="16.0088" x2="12.4343" y2="16.41" gradientUnits="userSpaceOnUse">
<stop stop-color="#584360"/>
<stop offset="1" stop-color="#584360" stop-opacity="0"/>
</linearGradient>
<linearGradient id="paint13_linear_4002_2090" x1="15.9882" y1="18.9023" x2="15.9882" y2="20.8867" gradientUnits="userSpaceOnUse">
<stop offset="0.00558659" stop-color="#5A3859"/>
<stop offset="1" stop-color="#463952"/>
</linearGradient>
<linearGradient id="paint14_linear_4002_2090" x1="18.71" y1="21.5158" x2="20.111" y2="21.5158" gradientUnits="userSpaceOnUse">
<stop offset="0.0932249" stop-color="#5A4C74"/>
<stop offset="1" stop-color="#625A91" stop-opacity="0"/>
</linearGradient>
<radialGradient id="paint15_radial_4002_2090" cx="0" cy="0" r="1" gradientUnits="userSpaceOnUse" gradientTransform="translate(16 18.4334) rotate(90) scale(3.75 4.3769)">
<stop offset="0.3625" stop-color="#CDBED0"/>
<stop offset="1" stop-color="#A093A3"/>
</radialGradient>
<radialGradient id="paint16_radial_4002_2090" cx="0" cy="0" r="1" gradientUnits="userSpaceOnUse" gradientTransform="translate(16 20.9304) rotate(-90) scale(5.1875 6.81546)">
<stop offset="0.532569" stop-color="#9D8392" stop-opacity="0"/>
<stop offset="0.875943" stop-color="#815A72"/>
</radialGradient>
<linearGradient id="paint17_linear_4002_2090" x1="9.45187" y1="23.926" x2="7.01987" y2="23.926" gradientUnits="userSpaceOnUse">
<stop stop-color="#43395F"/>
<stop offset="1" stop-color="#43395F" stop-opacity="0"/>
</linearGradient>
<radialGradient id="paint18_radial_4002_2090" cx="0" cy="0" r="1" gradientUnits="userSpaceOnUse" gradientTransform="translate(15.9829 21.3241) rotate(90) scale(8.8125 3.45478)">
<stop offset="0.00558659" stop-color="#59416D"/>
<stop offset="0.939716" stop-color="#3D3247"/>
</radialGradient>
<linearGradient id="paint19_linear_4002_2090" x1="14.6062" y1="24.7889" x2="14.8992" y2="24.828" gradientUnits="userSpaceOnUse">
<stop stop-color="#2B1B3A"/>
<stop offset="1" stop-color="#2B1B3A" stop-opacity="0"/>
</linearGradient>
<linearGradient id="paint20_linear_4002_2090" x1="17.4109" y1="24.6053" x2="17.0125" y2="24.6522" gradientUnits="userSpaceOnUse">
<stop stop-color="#2B1B3A"/>
<stop offset="1" stop-color="#2B1B3A" stop-opacity="0"/>
</linearGradient>
<radialGradient id="paint21_radial_4002_2090" cx="0" cy="0" r="1" gradientUnits="userSpaceOnUse" gradientTransform="translate(16.0294 17.1797) rotate(90) scale(2.48828 3.72875)">
<stop offset="0.271586" stop-color="#DD8931"/>
<stop offset="1" stop-color="#A85F21"/>
</radialGradient>
<radialGradient id="paint22_radial_4002_2090" cx="0" cy="0" r="1" gradientUnits="userSpaceOnUse" gradientTransform="translate(21.548 11.8599) rotate(103.169) scale(3.82897 4.54852)">
<stop offset="0.0431525" stop-color="#FFC135"/>
<stop offset="1" stop-color="#E26839"/>
</radialGradient>
<radialGradient id="paint23_radial_4002_2090" cx="0" cy="0" r="1" gradientUnits="userSpaceOnUse" gradientTransform="translate(20.8021 12.128) rotate(53.9017) scale(0.497856 0.422937)">
<stop stop-color="#E18C2A"/>
<stop offset="1" stop-color="#E18C2A" stop-opacity="0"/>
</radialGradient>
<radialGradient id="paint24_radial_4002_2090" cx="0" cy="0" r="1" gradientUnits="userSpaceOnUse" gradientTransform="translate(10.452 11.9772) rotate(71.2338) scale(4.14373 1.88352)">
<stop stop-color="#D57A26"/>
<stop offset="1" stop-color="#D06A3C"/>
</radialGradient>
<radialGradient id="paint25_radial_4002_2090" cx="0" cy="0" r="1" gradientUnits="userSpaceOnUse" gradientTransform="translate(11.1141 11.9688) rotate(72.2903) scale(1.04691 0.918358)">
<stop offset="0.263377" stop-color="#BE691E"/>
<stop offset="0.977292" stop-color="#BE691E" stop-opacity="0"/>
</radialGradient>
<radialGradient id="paint26_radial_4002_2090" cx="0" cy="0" r="1" gradientUnits="userSpaceOnUse" gradientTransform="translate(18.8077 10.9184) rotate(180) scale(5.22785 9.24801)">
<stop stop-color="#FFE846"/>
<stop offset="1" stop-color="#F5A129"/>
</radialGradient>
<radialGradient id="paint27_radial_4002_2090" cx="0" cy="0" r="1" gradientUnits="userSpaceOnUse" gradientTransform="translate(15.8061 17.2537) rotate(-90) scale(3.38582 13.1712)">
<stop offset="0.0824176" stop-color="#E27426"/>
<stop offset="1" stop-color="#FFA041" stop-opacity="0"/>
</radialGradient>
<radialGradient id="paint28_radial_4002_2090" cx="0" cy="0" r="1" gradientUnits="userSpaceOnUse" gradientTransform="translate(21.1572 10.6867) rotate(93.7745) scale(6.11518 2.2482)">
<stop offset="0.389903" stop-color="#FFD930"/>
<stop offset="1" stop-color="#FFD930" stop-opacity="0"/>
</radialGradient>
<radialGradient id="paint29_radial_4002_2090" cx="0" cy="0" r="1" gradientUnits="userSpaceOnUse" gradientTransform="translate(13.9086 9.73797) rotate(-90) scale(1.41386 1.70221)">
<stop offset="0.276316" stop-color="#F59632"/>
<stop offset="1" stop-color="#F59632" stop-opacity="0"/>
</radialGradient>
<radialGradient id="paint30_radial_4002_2090" cx="0" cy="0" r="1" gradientUnits="userSpaceOnUse" gradientTransform="translate(18.4886 9.32637) rotate(-90) scale(1.53524 1.99125)">
<stop offset="0.178218" stop-color="#FFBE3A"/>
<stop offset="1" stop-color="#FFBE3A" stop-opacity="0"/>
</radialGradient>
<linearGradient id="paint31_linear_4002_2090" x1="16.0002" y1="11.7472" x2="16.855" y2="11.7472" gradientUnits="userSpaceOnUse">
<stop stop-color="#FFC92F"/>
<stop offset="1" stop-color="#FFEA47"/>
</linearGradient>
<linearGradient id="paint32_linear_4002_2090" x1="14.9274" y1="11.5917" x2="16.0015" y2="11.6509" gradientUnits="userSpaceOnUse">
<stop stop-color="#F49F22"/>
<stop offset="1" stop-color="#E88830" stop-opacity="0"/>
<stop offset="1" stop-color="#F49F22" stop-opacity="0"/>
</linearGradient>
<linearGradient id="paint33_linear_4002_2090" x1="16.0002" y1="12.146" x2="16.0002" y2="12.9979" gradientUnits="userSpaceOnUse">
<stop stop-color="#E88830" stop-opacity="0"/>
<stop offset="0.844655" stop-color="#E88830"/>
</linearGradient>
<linearGradient id="paint34_linear_4002_2090" x1="16.0002" y1="9.89844" x2="16.0002" y2="10.3178" gradientUnits="userSpaceOnUse">
<stop stop-color="#FAC137"/>
<stop offset="1" stop-color="#FAC137" stop-opacity="0"/>
</linearGradient>
<radialGradient id="paint35_radial_4002_2090" cx="0" cy="0" r="1" gradientUnits="userSpaceOnUse" gradientTransform="translate(14.8731 14.2074) rotate(-60.732) scale(0.710095 2.0664)">
<stop stop-color="#FFB534"/>
<stop offset="1" stop-color="#FFB534" stop-opacity="0"/>
</radialGradient>
<radialGradient id="paint36_radial_4002_2090" cx="0" cy="0" r="1" gradientUnits="userSpaceOnUse" gradientTransform="translate(16 14.4577) rotate(-90) scale(0.720736 2.89971)">
<stop stop-color="#89014E"/>
<stop offset="1" stop-color="#87004D"/>
</radialGradient>
<linearGradient id="paint37_linear_4002_2090" x1="21.3637" y1="5.25594" x2="11.2399" y2="5.25594" gradientUnits="userSpaceOnUse">
<stop stop-color="#FFE235"/>
<stop offset="1" stop-color="#D29935"/>
</linearGradient>
<radialGradient id="paint38_radial_4002_2090" cx="0" cy="0" r="1" gradientUnits="userSpaceOnUse" gradientTransform="translate(10.7705 9.33659) rotate(-90) scale(5.71897 10.1329)">
<stop offset="0.314517" stop-color="#C98537"/>
<stop offset="1" stop-color="#C98537" stop-opacity="0"/>
</radialGradient>
<radialGradient id="paint39_radial_4002_2090" cx="0" cy="0" r="1" gradientUnits="userSpaceOnUse" gradientTransform="translate(20.8608 9.33659) rotate(-90) scale(3.63265 6.43634)">
<stop stop-color="#FFB52A"/>
<stop offset="1" stop-color="#FFB52A" stop-opacity="0"/>
</radialGradient>
<radialGradient id="paint40_radial_4002_2090" cx="0" cy="0" r="1" gradientUnits="userSpaceOnUse" gradientTransform="translate(20.1066 3.06021) rotate(-160.666) scale(4.35194 2.3177)">
<stop offset="0.347073" stop-color="#FFE639"/>
<stop offset="1" stop-color="#FFE639" stop-opacity="0"/>
</radialGradient>
<radialGradient id="paint41_radial_4002_2090" cx="0" cy="0" r="1" gradientUnits="userSpaceOnUse" gradientTransform="translate(15.095 1.46788) rotate(58.4652) scale(1.73056 4.00716)">
<stop offset="0.286771" stop-color="#F3C130"/>
<stop offset="1" stop-color="#F3C130" stop-opacity="0"/>
</radialGradient>
<radialGradient id="paint42_radial_4002_2090" cx="0" cy="0" r="1" gradientUnits="userSpaceOnUse" gradientTransform="translate(16.2535 2.91016) rotate(160.16) scale(4.04714 1.12641)">
<stop stop-color="#FFDD30"/>
<stop offset="1" stop-color="#FFDC2B" stop-opacity="0"/>
</radialGradient>
<radialGradient id="paint43_radial_4002_2090" cx="0" cy="0" r="1" gradientUnits="userSpaceOnUse" gradientTransform="translate(10.5694 7.66955) rotate(-57.7244) scale(6.02662 6.67687)">
<stop offset="0.0926981" stop-color="#D67227"/>
<stop offset="0.233498" stop-color="#EF8A23"/>
<stop offset="1" stop-color="#EF8A23" stop-opacity="0"/>
</radialGradient>
<radialGradient id="paint44_radial_4002_2090" cx="0" cy="0" r="1" gradientUnits="userSpaceOnUse" gradientTransform="translate(19.6205 4.07044) rotate(13.3074) scale(3.4792 1.94581)">
<stop stop-color="#FFEB3B"/>
<stop offset="1" stop-color="#FFEB3B" stop-opacity="0"/>
</radialGradient>
<radialGradient id="paint45_radial_4002_2090" cx="0" cy="0" r="1" gradientUnits="userSpaceOnUse" gradientTransform="translate(21.129 8.67508) rotate(-120.119) scale(4.28181 2.38793)">
<stop stop-color="#EB8F29"/>
<stop offset="1" stop-color="#EB8F29" stop-opacity="0"/>
</radialGradient>
<radialGradient id="paint46_radial_4002_2090" cx="0" cy="0" r="1" gradientUnits="userSpaceOnUse" gradientTransform="translate(20.5088 8.3749) rotate(-120.695) scale(2.56111 1.83441)">
<stop offset="0.394122" stop-color="#E48421"/>
<stop offset="1" stop-color="#E48421" stop-opacity="0"/>
</radialGradient>
<radialGradient id="paint47_radial_4002_2090" cx="0" cy="0" r="1" gradientUnits="userSpaceOnUse" gradientTransform="translate(20.7938 3.95366) rotate(166.509) scale(4.93459 5.33448)">
<stop offset="0.734853" stop-color="#F29415" stop-opacity="0"/>
<stop offset="1" stop-color="#F29415"/>
</radialGradient>
<radialGradient id="paint48_radial_4002_2090" cx="0" cy="0" r="1" gradientUnits="userSpaceOnUse" gradientTransform="translate(19.4529 3.82853) rotate(107.002) scale(0.401267 1.83454)">
<stop offset="0.461072" stop-color="#FFCE3C"/>
<stop offset="1" stop-color="#FFCE3C" stop-opacity="0"/>
</radialGradient>
<radialGradient id="paint49_radial_4002_2090" cx="0" cy="0" r="1" gradientUnits="userSpaceOnUse" gradientTransform="translate(18.1821 10.0022) rotate(90) scale(0.811319 1.29049)">
<stop offset="0.80198" stop-color="#925C51"/>
<stop offset="1" stop-color="#694B43"/>
<stop offset="1" stop-color="#804D49"/>
<stop offset="1" stop-color="#85534D"/>
</radialGradient>
<radialGradient id="paint50_radial_4002_2090" cx="0" cy="0" r="1" gradientUnits="userSpaceOnUse" gradientTransform="translate(17.9538 10.0863) rotate(-127.812) scale(0.378287 0.520811)">
<stop offset="0.765532" stop-color="#FFE6E2" stop-opacity="0"/>
<stop offset="0.966159" stop-color="#FFE6E2"/>
</radialGradient>
<linearGradient id="paint51_linear_4002_2090" x1="18.96" y1="10.0561" x2="18.6463" y2="10.2494" gradientUnits="userSpaceOnUse">
<stop stop-color="#B4948D"/>
<stop offset="1" stop-color="#B4948D" stop-opacity="0"/>
</linearGradient>
<radialGradient id="paint52_radial_4002_2090" cx="0" cy="0" r="1" gradientUnits="userSpaceOnUse" gradientTransform="translate(13.818 10.0022) rotate(90) scale(0.811361 1.29056)">
<stop offset="0.80198" stop-color="#925C51"/>
<stop offset="1" stop-color="#694B43"/>
<stop offset="1" stop-color="#804D49"/>
<stop offset="1" stop-color="#85534D"/>
</radialGradient>
<linearGradient id="paint53_linear_4002_2090" x1="14.5619" y1="10.056" x2="14.2481" y2="10.2493" gradientUnits="userSpaceOnUse">
<stop stop-color="#B4948D"/>
<stop offset="1" stop-color="#B4948D" stop-opacity="0"/>
</linearGradient>
<radialGradient id="paint54_radial_4002_2090" cx="0" cy="0" r="1" gradientUnits="userSpaceOnUse" gradientTransform="translate(13.5316 10.2213) rotate(-90.897) scale(0.494144 0.593981)">
<stop offset="0.765532" stop-color="#FFE6E2" stop-opacity="0"/>
<stop offset="0.966159" stop-color="#FFE6E2"/>
</radialGradient>
<linearGradient id="paint55_linear_4002_2090" x1="22.4363" y1="10.0829" x2="21.2295" y2="12.2592" gradientUnits="userSpaceOnUse">
<stop stop-color="#FFE343"/>
<stop offset="1" stop-color="#FFC136"/>
</linearGradient>
<radialGradient id="paint56_radial_4002_2090" cx="0" cy="0" r="1" gradientUnits="userSpaceOnUse" gradientTransform="translate(20.6177 10.0159) rotate(74.3475) scale(2.32967 2.22268)">
<stop offset="0.856273" stop-color="#E1943D" stop-opacity="0"/>
<stop offset="1" stop-color="#E08F2E"/>
</radialGradient>
<radialGradient id="paint57_radial_4002_2090" cx="0" cy="0" r="1" gradientUnits="userSpaceOnUse" gradientTransform="translate(20.9781 10.5606) rotate(-53.9198) scale(1.33768 1.12124)">
<stop offset="0.663731" stop-color="#FFBD22"/>
<stop offset="1" stop-color="#FFBD22" stop-opacity="0"/>
</radialGradient>
<linearGradient id="paint58_linear_4002_2090" x1="10.1504" y1="10.7869" x2="11.6086" y2="10.6595" gradientUnits="userSpaceOnUse">
<stop stop-color="#E39726"/>
<stop offset="1" stop-color="#D9851D"/>
</linearGradient>
<radialGradient id="paint59_radial_4002_2090" cx="0" cy="0" r="1" gradientUnits="userSpaceOnUse" gradientTransform="translate(10.737 10.1835) rotate(101.248) scale(2.11668 2.08089)">
<stop offset="0.77507" stop-color="#C77937" stop-opacity="0"/>
<stop offset="1" stop-color="#C77937"/>
</radialGradient>
</defs>
</svg>
