<svg width="32" height="32" viewBox="0 0 32 32" fill="none" xmlns="http://www.w3.org/2000/svg">
<g filter="url(#filter0_i_28327_7824)">
<path d="M9.3858 29.5281C9.27716 29.8418 8.93536 30.0085 8.62127 29.9011C8.30566 29.7931 8.13781 29.4493 8.24676 29.1341L9.3688 25.8875C9.38179 25.8499 9.37932 25.8087 9.36193 25.773L7.55926 22.0655C7.4093 21.7655 7.53924 21.4054 7.83929 21.2554C8.13928 21.1054 8.49926 21.2354 8.64929 21.5354L9.80802 23.9186C9.8651 24.036 10.0353 24.0297 10.0859 23.9094C11.1434 21.3923 12.7723 19.3645 15.0447 17.8257C15.0447 17.8257 15.0957 17.7765 15.1455 17.7282L15.1529 17.7209C15.2062 17.6691 15.2218 17.5816 15.1893 17.5148L13.4393 13.9155C13.2893 13.6155 13.4192 13.2555 13.7193 13.1055C14.0193 12.9555 14.3793 13.0855 14.5293 13.3855L16.1495 16.7178C16.192 16.8052 16.3052 16.8297 16.3792 16.7667C18.1527 15.2537 19.5157 13.2732 20.2793 11.0654L20.6593 9.9754C20.7693 9.6554 21.1093 9.49541 21.4293 9.60541C21.7493 9.71541 21.9093 10.0554 21.7993 10.3754L21.4193 11.4654C20.6597 13.6759 19.3461 15.6787 17.6452 17.2677C17.5501 17.3565 17.6023 17.518 17.7318 17.5318L20.2993 17.8055C20.6293 17.8355 20.8693 18.1355 20.8393 18.4655C20.8093 18.7955 20.5093 19.0354 20.1793 19.0054L16.0922 18.5709C16.0565 18.567 16.0207 18.5763 15.9915 18.5973C15.9681 18.6141 15.9389 18.6352 15.9087 18.657C15.8379 18.7082 15.7613 18.7635 15.7396 18.7782C13.5183 20.2845 11.9511 22.3518 11.0126 24.8462C10.9782 24.9374 11.0399 25.036 11.1369 25.0461L14.6793 25.4156C15.0093 25.4456 15.2493 25.7456 15.2193 26.0756C15.1893 26.4056 14.8893 26.6456 14.5593 26.6156L10.6577 26.2095C10.5884 26.2023 10.5232 26.2438 10.5004 26.3096L9.3858 29.5281Z" fill="#4E7C2F"/>
</g>
<g filter="url(#filter1_f_28327_7824)">
<path d="M8.90625 29.144L10.75 24.144C11.2812 22.7378 12.1858 21.2311 13.4844 19.9722C15.5312 17.9878 17.5156 17.1128 18.8594 15.1753C20.2031 13.2378 20.8125 11.9253 21.3438 10.0815" stroke="#77975C" stroke-width="0.25"/>
</g>
<g filter="url(#filter2_f_28327_7824)">
<path d="M8.42188 22.082L10.0156 25.5039" stroke="#83A763" stroke-width="0.25"/>
</g>
<g filter="url(#filter3_f_28327_7824)">
<path d="M13.9531 25.8164L10.1455 25.3979" stroke="#77975C" stroke-width="0.25"/>
</g>
<g filter="url(#filter4_f_28327_7824)">
<path d="M19.9763 18.2852L16.1687 17.8666" stroke="#77975C" stroke-width="0.25"/>
</g>
<g filter="url(#filter5_f_28327_7824)">
<path d="M16.0781 17.7695L14.2767 14.1676" stroke="#83A763" stroke-width="0.25"/>
</g>
<g filter="url(#filter6_i_28327_7824)">
<path d="M10.3581 15.5063L8.14771 10.9713C8.08717 10.8471 7.93688 10.7951 7.81562 10.8614C5.29697 12.2376 4.27492 15.3617 5.54807 17.9663L7.7584 22.5014C7.81895 22.6256 7.96924 22.6776 8.09049 22.6113C10.6086 21.2351 11.6215 18.111 10.3581 15.5063Z" fill="url(#paint0_radial_28327_7824)"/>
<path d="M10.3581 15.5063L8.14771 10.9713C8.08717 10.8471 7.93688 10.7951 7.81562 10.8614C5.29697 12.2376 4.27492 15.3617 5.54807 17.9663L7.7584 22.5014C7.81895 22.6256 7.96924 22.6776 8.09049 22.6113C10.6086 21.2351 11.6215 18.111 10.3581 15.5063Z" fill="url(#paint1_radial_28327_7824)"/>
<path d="M10.3581 15.5063L8.14771 10.9713C8.08717 10.8471 7.93688 10.7951 7.81562 10.8614C5.29697 12.2376 4.27492 15.3617 5.54807 17.9663L7.7584 22.5014C7.81895 22.6256 7.96924 22.6776 8.09049 22.6113C10.6086 21.2351 11.6215 18.111 10.3581 15.5063Z" fill="url(#paint2_radial_28327_7824)"/>
</g>
<g filter="url(#filter7_f_28327_7824)">
<path d="M10.338 16.2797L7.95352 11.6034C6.92083 12.2737 7.4946 13.9187 7.83605 14.5093L10.3067 19.2695C10.9299 18.1863 10.5872 16.825 10.338 16.2797Z" fill="url(#paint3_linear_28327_7824)"/>
</g>
<g filter="url(#filter8_i_28327_7824)">
<path d="M15.788 9.11649L14.0873 5.62113C14.027 5.49704 13.8769 5.44476 13.7565 5.51219C11.818 6.59774 11.0447 9.02193 12.028 11.0465L13.7283 14.541C13.7889 14.6654 13.9395 14.7175 14.06 14.6495C15.9982 13.5556 16.7713 11.1409 15.788 9.11649Z" fill="url(#paint4_radial_28327_7824)"/>
<path d="M15.788 9.11649L14.0873 5.62113C14.027 5.49704 13.8769 5.44476 13.7565 5.51219C11.818 6.59774 11.0447 9.02193 12.028 11.0465L13.7283 14.541C13.7889 14.6654 13.9395 14.7175 14.06 14.6495C15.9982 13.5556 16.7713 11.1409 15.788 9.11649Z" fill="url(#paint5_radial_28327_7824)"/>
<path d="M15.788 9.11649L14.0873 5.62113C14.027 5.49704 13.8769 5.44476 13.7565 5.51219C11.818 6.59774 11.0447 9.02193 12.028 11.0465L13.7283 14.541C13.7889 14.6654 13.9395 14.7175 14.06 14.6495C15.9982 13.5556 16.7713 11.1409 15.788 9.11649Z" fill="url(#paint6_radial_28327_7824)"/>
</g>
<g filter="url(#filter9_f_28327_7824)">
<path d="M15.5883 9.7279L13.8183 6.27456C13.0559 6.77165 13.4826 7.98689 13.7359 8.42292L15.5697 11.9382C16.0288 11.1365 15.7734 10.1306 15.5883 9.7279Z" fill="url(#paint7_linear_28327_7824)"/>
</g>
<path d="M24.0838 2.29341C24.0278 2.16719 23.8769 2.11526 23.7551 2.18031C20.6497 3.83869 19.3358 7.62204 20.7625 10.8397C20.8184 10.9658 20.9692 11.0177 21.0909 10.9529C24.2055 9.29478 25.5108 5.51124 24.0838 2.29341Z" fill="#B2DC52"/>
<path d="M24.0838 2.29341C24.0278 2.16719 23.8769 2.11526 23.7551 2.18031C20.6497 3.83869 19.3358 7.62204 20.7625 10.8397C20.8184 10.9658 20.9692 11.0177 21.0909 10.9529C24.2055 9.29478 25.5108 5.51124 24.0838 2.29341Z" fill="url(#paint8_radial_28327_7824)"/>
<path d="M24.0838 2.29341C24.0278 2.16719 23.8769 2.11526 23.7551 2.18031C20.6497 3.83869 19.3358 7.62204 20.7625 10.8397C20.8184 10.9658 20.9692 11.0177 21.0909 10.9529C24.2055 9.29478 25.5108 5.51124 24.0838 2.29341Z" fill="url(#paint9_radial_28327_7824)"/>
<path d="M24.0838 2.29341C24.0278 2.16719 23.8769 2.11526 23.7551 2.18031C20.6497 3.83869 19.3358 7.62204 20.7625 10.8397C20.8184 10.9658 20.9692 11.0177 21.0909 10.9529C24.2055 9.29478 25.5108 5.51124 24.0838 2.29341Z" fill="url(#paint10_radial_28327_7824)"/>
<path d="M24.0838 2.29341C24.0278 2.16719 23.8769 2.11526 23.7551 2.18031C20.6497 3.83869 19.3358 7.62204 20.7625 10.8397C20.8184 10.9658 20.9692 11.0177 21.0909 10.9529C24.2055 9.29478 25.5108 5.51124 24.0838 2.29341Z" fill="url(#paint11_radial_28327_7824)"/>
<path d="M24.0838 2.29341C24.0278 2.16719 23.8769 2.11526 23.7551 2.18031C20.6497 3.83869 19.3358 7.62204 20.7625 10.8397C20.8184 10.9658 20.9692 11.0177 21.0909 10.9529C24.2055 9.29478 25.5108 5.51124 24.0838 2.29341Z" fill="url(#paint12_radial_28327_7824)"/>
<g filter="url(#filter10_i_28327_7824)">
<path d="M23.8059 15.1378L27.6775 15.5419C27.8147 15.5562 27.9151 15.6794 27.8929 15.8155C27.536 18.0061 25.5225 19.5592 23.2859 19.3278L19.4154 18.9239C19.2777 18.9095 19.1772 18.7857 19.2 18.6492C19.5656 16.4584 21.5696 14.8968 23.8059 15.1378Z" fill="url(#paint13_radial_28327_7824)"/>
<path d="M23.8059 15.1378L27.6775 15.5419C27.8147 15.5562 27.9151 15.6794 27.8929 15.8155C27.536 18.0061 25.5225 19.5592 23.2859 19.3278L19.4154 18.9239C19.2777 18.9095 19.1772 18.7857 19.2 18.6492C19.5656 16.4584 21.5696 14.8968 23.8059 15.1378Z" fill="url(#paint14_radial_28327_7824)"/>
<path d="M23.8059 15.1378L27.6775 15.5419C27.8147 15.5562 27.9151 15.6794 27.8929 15.8155C27.536 18.0061 25.5225 19.5592 23.2859 19.3278L19.4154 18.9239C19.2777 18.9095 19.1772 18.7857 19.2 18.6492C19.5656 16.4584 21.5696 14.8968 23.8059 15.1378Z" fill="url(#paint15_radial_28327_7824)"/>
</g>
<g filter="url(#filter11_f_28327_7824)">
<path d="M23.6102 15.5445L27.4758 15.8842C27.3023 16.7776 26.0159 16.8398 25.5165 16.7693L21.5695 16.3938C22.1395 15.6667 23.1675 15.5246 23.6102 15.5445Z" fill="url(#paint16_linear_28327_7824)"/>
</g>
<g filter="url(#filter12_i_28327_7824)">
<path d="M19.3481 21.6821L24.3694 22.2061C24.5067 22.2204 24.607 22.3437 24.5865 22.4802C24.1585 25.3208 21.5647 27.3433 18.6781 27.0421L13.6567 26.518C13.5194 26.5037 13.4191 26.3805 13.4397 26.2439C13.8677 23.4033 16.4615 21.3808 19.3481 21.6821Z" fill="url(#paint17_radial_28327_7824)"/>
<path d="M19.3481 21.6821L24.3694 22.2061C24.5067 22.2204 24.607 22.3437 24.5865 22.4802C24.1585 25.3208 21.5647 27.3433 18.6781 27.0421L13.6567 26.518C13.5194 26.5037 13.4191 26.3805 13.4397 26.2439C13.8677 23.4033 16.4615 21.3808 19.3481 21.6821Z" fill="url(#paint18_radial_28327_7824)"/>
<path d="M19.3481 21.6821L24.3694 22.2061C24.5067 22.2204 24.607 22.3437 24.5865 22.4802C24.1585 25.3208 21.5647 27.3433 18.6781 27.0421L13.6567 26.518C13.5194 26.5037 13.4191 26.3805 13.4397 26.2439C13.8677 23.4033 16.4615 21.3808 19.3481 21.6821Z" fill="url(#paint19_radial_28327_7824)"/>
<path d="M19.3481 21.6821L24.3694 22.2061C24.5067 22.2204 24.607 22.3437 24.5865 22.4802C24.1585 25.3208 21.5647 27.3433 18.6781 27.0421L13.6567 26.518C13.5194 26.5037 13.4191 26.3805 13.4397 26.2439C13.8677 23.4033 16.4615 21.3808 19.3481 21.6821Z" fill="url(#paint20_radial_28327_7824)"/>
</g>
<g filter="url(#filter13_f_28327_7824)">
<path d="M18.7151 22.4147L23.8682 22.8676C23.6369 24.0586 21.922 24.1415 21.2563 24.0475L15.9948 23.5469C16.7545 22.5776 18.1249 22.3883 18.7151 22.4147Z" fill="url(#paint21_linear_28327_7824)"/>
</g>
<defs>
<filter id="filter0_i_28327_7824" x="7.3967" y="9.4708" width="14.4372" height="20.4628" filterUnits="userSpaceOnUse" color-interpolation-filters="sRGB">
<feFlood flood-opacity="0" result="BackgroundImageFix"/>
<feBlend mode="normal" in="SourceGraphic" in2="BackgroundImageFix" result="shape"/>
<feColorMatrix in="SourceAlpha" type="matrix" values="0 0 0 0 0 0 0 0 0 0 0 0 0 0 0 0 0 0 127 0" result="hardAlpha"/>
<feOffset dx="-0.1" dy="-0.1"/>
<feGaussianBlur stdDeviation="0.5"/>
<feComposite in2="hardAlpha" operator="arithmetic" k2="-1" k3="1"/>
<feColorMatrix type="matrix" values="0 0 0 0 0.580392 0 0 0 0 0.462745 0 0 0 0 0.658824 0 0 0 1 0"/>
<feBlend mode="normal" in2="shape" result="effect1_innerShadow_28327_7824"/>
</filter>
<filter id="filter1_f_28327_7824" x="8.38894" y="9.64687" width="13.4749" height="19.9404" filterUnits="userSpaceOnUse" color-interpolation-filters="sRGB">
<feFlood flood-opacity="0" result="BackgroundImageFix"/>
<feBlend mode="normal" in="SourceGraphic" in2="BackgroundImageFix" result="shape"/>
<feGaussianBlur stdDeviation="0.2" result="effect1_foregroundBlur_28327_7824"/>
</filter>
<filter id="filter2_f_28327_7824" x="7.90853" y="21.6293" width="2.62043" height="4.32734" filterUnits="userSpaceOnUse" color-interpolation-filters="sRGB">
<feFlood flood-opacity="0" result="BackgroundImageFix"/>
<feBlend mode="normal" in="SourceGraphic" in2="BackgroundImageFix" result="shape"/>
<feGaussianBlur stdDeviation="0.2" result="effect1_foregroundBlur_28327_7824"/>
</filter>
<filter id="filter3_f_28327_7824" x="9.73184" y="24.8737" width="4.63496" height="1.46699" filterUnits="userSpaceOnUse" color-interpolation-filters="sRGB">
<feFlood flood-opacity="0" result="BackgroundImageFix"/>
<feBlend mode="normal" in="SourceGraphic" in2="BackgroundImageFix" result="shape"/>
<feGaussianBlur stdDeviation="0.2" result="effect1_foregroundBlur_28327_7824"/>
</filter>
<filter id="filter4_f_28327_7824" x="15.755" y="17.3424" width="4.63496" height="1.46699" filterUnits="userSpaceOnUse" color-interpolation-filters="sRGB">
<feFlood flood-opacity="0" result="BackgroundImageFix"/>
<feBlend mode="normal" in="SourceGraphic" in2="BackgroundImageFix" result="shape"/>
<feGaussianBlur stdDeviation="0.2" result="effect1_foregroundBlur_28327_7824"/>
</filter>
<filter id="filter5_f_28327_7824" x="13.7649" y="13.7116" width="2.82502" height="4.51387" filterUnits="userSpaceOnUse" color-interpolation-filters="sRGB">
<feFlood flood-opacity="0" result="BackgroundImageFix"/>
<feBlend mode="normal" in="SourceGraphic" in2="BackgroundImageFix" result="shape"/>
<feGaussianBlur stdDeviation="0.2" result="effect1_foregroundBlur_28327_7824"/>
</filter>
<filter id="filter6_i_28327_7824" x="5" y="10.8325" width="6.10173" height="12.0076" filterUnits="userSpaceOnUse" color-interpolation-filters="sRGB">
<feFlood flood-opacity="0" result="BackgroundImageFix"/>
<feBlend mode="normal" in="SourceGraphic" in2="BackgroundImageFix" result="shape"/>
<feColorMatrix in="SourceAlpha" type="matrix" values="0 0 0 0 0 0 0 0 0 0 0 0 0 0 0 0 0 0 127 0" result="hardAlpha"/>
<feOffset dx="0.2" dy="0.2"/>
<feGaussianBlur stdDeviation="0.375"/>
<feComposite in2="hardAlpha" operator="arithmetic" k2="-1" k3="1"/>
<feColorMatrix type="matrix" values="0 0 0 0 0.564706 0 0 0 0 0.760784 0 0 0 0 0.329412 0 0 0 1 0"/>
<feBlend mode="normal" in2="shape" result="effect1_innerShadow_28327_7824"/>
</filter>
<filter id="filter7_f_28327_7824" x="6.36621" y="10.6035" width="5.29309" height="9.66602" filterUnits="userSpaceOnUse" color-interpolation-filters="sRGB">
<feFlood flood-opacity="0" result="BackgroundImageFix"/>
<feBlend mode="normal" in="SourceGraphic" in2="BackgroundImageFix" result="shape"/>
<feGaussianBlur stdDeviation="0.5" result="effect1_foregroundBlur_28327_7824"/>
</filter>
<filter id="filter8_i_28327_7824" x="11.6012" y="5.48242" width="4.81365" height="9.39727" filterUnits="userSpaceOnUse" color-interpolation-filters="sRGB">
<feFlood flood-opacity="0" result="BackgroundImageFix"/>
<feBlend mode="normal" in="SourceGraphic" in2="BackgroundImageFix" result="shape"/>
<feColorMatrix in="SourceAlpha" type="matrix" values="0 0 0 0 0 0 0 0 0 0 0 0 0 0 0 0 0 0 127 0" result="hardAlpha"/>
<feOffset dx="0.2" dy="0.2"/>
<feGaussianBlur stdDeviation="0.375"/>
<feComposite in2="hardAlpha" operator="arithmetic" k2="-1" k3="1"/>
<feColorMatrix type="matrix" values="0 0 0 0 0.592157 0 0 0 0 0.784314 0 0 0 0 0.368627 0 0 0 1 0"/>
<feBlend mode="normal" in2="shape" result="effect1_innerShadow_28327_7824"/>
</filter>
<filter id="filter9_f_28327_7824" x="12.386" y="5.27466" width="4.4422" height="7.66357" filterUnits="userSpaceOnUse" color-interpolation-filters="sRGB">
<feFlood flood-opacity="0" result="BackgroundImageFix"/>
<feBlend mode="normal" in="SourceGraphic" in2="BackgroundImageFix" result="shape"/>
<feGaussianBlur stdDeviation="0.5" result="effect1_foregroundBlur_28327_7824"/>
</filter>
<filter id="filter10_i_28327_7824" x="19.1968" y="15.1133" width="8.89922" height="4.4373" filterUnits="userSpaceOnUse" color-interpolation-filters="sRGB">
<feFlood flood-opacity="0" result="BackgroundImageFix"/>
<feBlend mode="normal" in="SourceGraphic" in2="BackgroundImageFix" result="shape"/>
<feColorMatrix in="SourceAlpha" type="matrix" values="0 0 0 0 0 0 0 0 0 0 0 0 0 0 0 0 0 0 127 0" result="hardAlpha"/>
<feOffset dx="0.2" dy="0.2"/>
<feGaussianBlur stdDeviation="0.375"/>
<feComposite in2="hardAlpha" operator="arithmetic" k2="-1" k3="1"/>
<feColorMatrix type="matrix" values="0 0 0 0 0.564706 0 0 0 0 0.760784 0 0 0 0 0.329412 0 0 0 1 0"/>
<feBlend mode="normal" in2="shape" result="effect1_innerShadow_28327_7824"/>
</filter>
<filter id="filter11_f_28327_7824" x="20.5695" y="14.5427" width="7.90631" height="3.24756" filterUnits="userSpaceOnUse" color-interpolation-filters="sRGB">
<feFlood flood-opacity="0" result="BackgroundImageFix"/>
<feBlend mode="normal" in="SourceGraphic" in2="BackgroundImageFix" result="shape"/>
<feGaussianBlur stdDeviation="0.5" result="effect1_foregroundBlur_28327_7824"/>
</filter>
<filter id="filter12_i_28327_7824" x="13.437" y="21.6523" width="11.3521" height="5.61943" filterUnits="userSpaceOnUse" color-interpolation-filters="sRGB">
<feFlood flood-opacity="0" result="BackgroundImageFix"/>
<feBlend mode="normal" in="SourceGraphic" in2="BackgroundImageFix" result="shape"/>
<feColorMatrix in="SourceAlpha" type="matrix" values="0 0 0 0 0 0 0 0 0 0 0 0 0 0 0 0 0 0 127 0" result="hardAlpha"/>
<feOffset dx="0.2" dy="0.2"/>
<feGaussianBlur stdDeviation="0.375"/>
<feComposite in2="hardAlpha" operator="arithmetic" k2="-1" k3="1"/>
<feColorMatrix type="matrix" values="0 0 0 0 0.564706 0 0 0 0 0.760784 0 0 0 0 0.329412 0 0 0 1 0"/>
<feBlend mode="normal" in2="shape" result="effect1_innerShadow_28327_7824"/>
</filter>
<filter id="filter13_f_28327_7824" x="14.9948" y="21.4124" width="9.87335" height="3.66333" filterUnits="userSpaceOnUse" color-interpolation-filters="sRGB">
<feFlood flood-opacity="0" result="BackgroundImageFix"/>
<feBlend mode="normal" in="SourceGraphic" in2="BackgroundImageFix" result="shape"/>
<feGaussianBlur stdDeviation="0.5" result="effect1_foregroundBlur_28327_7824"/>
</filter>
<radialGradient id="paint0_radial_28327_7824" cx="0" cy="0" r="1" gradientUnits="userSpaceOnUse" gradientTransform="translate(8.67906 15.3131) rotate(89.1048) scale(14.4662 6.81423)">
<stop stop-color="#B5E64B"/>
<stop offset="1" stop-color="#8EC347"/>
</radialGradient>
<radialGradient id="paint1_radial_28327_7824" cx="0" cy="0" r="1" gradientUnits="userSpaceOnUse" gradientTransform="translate(7.95088 23.0977) rotate(-86.7469) scale(5.82188 3.3897)">
<stop stop-color="#B2C770"/>
<stop offset="1" stop-color="#B2C770" stop-opacity="0"/>
</radialGradient>
<radialGradient id="paint2_radial_28327_7824" cx="0" cy="0" r="1" gradientUnits="userSpaceOnUse" gradientTransform="translate(8.40625 10.0352) rotate(102.162) scale(3.70823 0.752596)">
<stop stop-color="#B1EB4B"/>
<stop offset="1" stop-color="#B1EB4B" stop-opacity="0"/>
</radialGradient>
<linearGradient id="paint3_linear_28327_7824" x1="9.90551" y1="15.0386" x2="8.62016" y2="15.7433" gradientUnits="userSpaceOnUse">
<stop stop-color="#CFFF73"/>
<stop offset="1" stop-color="#CFFF73" stop-opacity="0"/>
</linearGradient>
<radialGradient id="paint4_radial_28327_7824" cx="0" cy="0" r="1" gradientUnits="userSpaceOnUse" gradientTransform="translate(14.4773 8.96827) rotate(89.1053) scale(11.3145 5.32699)">
<stop stop-color="#B5E64B"/>
<stop offset="1" stop-color="#8EC347"/>
</radialGradient>
<radialGradient id="paint5_radial_28327_7824" cx="0" cy="0" r="1" gradientUnits="userSpaceOnUse" gradientTransform="translate(13.908 15.0569) rotate(-86.7486) scale(4.55349 2.64988)">
<stop stop-color="#B2C770"/>
<stop offset="1" stop-color="#B2C770" stop-opacity="0"/>
</radialGradient>
<radialGradient id="paint6_radial_28327_7824" cx="0" cy="0" r="1" gradientUnits="userSpaceOnUse" gradientTransform="translate(14.264 4.84024) rotate(102.156) scale(2.90028 0.588351)">
<stop stop-color="#B1EB4B"/>
<stop offset="1" stop-color="#B1EB4B" stop-opacity="0"/>
</radialGradient>
<linearGradient id="paint7_linear_28327_7824" x1="15.2666" y1="8.81104" x2="14.3175" y2="9.33399" gradientUnits="userSpaceOnUse">
<stop stop-color="#CFFF73"/>
<stop offset="1" stop-color="#CFFF73" stop-opacity="0"/>
</linearGradient>
<radialGradient id="paint8_radial_28327_7824" cx="0" cy="0" r="1" gradientUnits="userSpaceOnUse" gradientTransform="translate(25.6295 7.62884) rotate(-162.658) scale(5.30757 7.17012)">
<stop offset="0.808068" stop-color="#96C860" stop-opacity="0"/>
<stop offset="1" stop-color="#96C860"/>
</radialGradient>
<radialGradient id="paint9_radial_28327_7824" cx="0" cy="0" r="1" gradientUnits="userSpaceOnUse" gradientTransform="translate(18.8117 5.12394) rotate(25.1448) scale(6.1168 8.26332)">
<stop offset="0.909987" stop-color="#96C860" stop-opacity="0"/>
<stop offset="1" stop-color="#96C860"/>
</radialGradient>
<radialGradient id="paint10_radial_28327_7824" cx="0" cy="0" r="1" gradientUnits="userSpaceOnUse" gradientTransform="translate(24.3826 2.18837) rotate(105.482) scale(4.8457 0.599864)">
<stop stop-color="#C8FF74"/>
<stop offset="1" stop-color="#C8FF74" stop-opacity="0"/>
</radialGradient>
<radialGradient id="paint11_radial_28327_7824" cx="0" cy="0" r="1" gradientUnits="userSpaceOnUse" gradientTransform="translate(25.8296 2.06641) rotate(115.337) scale(6.66023 3.31004)">
<stop stop-color="#C7FD61"/>
<stop offset="1" stop-color="#C7FD61" stop-opacity="0"/>
</radialGradient>
<radialGradient id="paint12_radial_28327_7824" cx="0" cy="0" r="1" gradientUnits="userSpaceOnUse" gradientTransform="translate(20.8773 10.8149) rotate(-157.166) scale(0.425393 2.36693)">
<stop stop-color="#AFCE6D"/>
<stop offset="1" stop-color="#AFCE6D" stop-opacity="0"/>
</radialGradient>
<radialGradient id="paint13_radial_28327_7824" cx="0" cy="0" r="1" gradientUnits="userSpaceOnUse" gradientTransform="translate(24.6267 16.7285) rotate(86.2485) scale(5.12707 10.0939)">
<stop stop-color="#B5E64B"/>
<stop offset="1" stop-color="#8EC347"/>
</radialGradient>
<radialGradient id="paint14_radial_28327_7824" cx="0" cy="0" r="1" gradientUnits="userSpaceOnUse" gradientTransform="translate(23.5459 19.482) rotate(-76.5846) scale(2.11356 4.90194)">
<stop stop-color="#B2C770"/>
<stop offset="1" stop-color="#B2C770" stop-opacity="0"/>
</radialGradient>
<radialGradient id="paint15_radial_28327_7824" cx="0" cy="0" r="1" gradientUnits="userSpaceOnUse" gradientTransform="translate(28.3494 15.3066) rotate(147.529) scale(2.7012 0.788859)">
<stop stop-color="#B1EB4B"/>
<stop offset="1" stop-color="#B1EB4B" stop-opacity="0"/>
</radialGradient>
<linearGradient id="paint16_linear_28327_7824" x1="24.5807" y1="15.4973" x2="24.4536" y2="16.5735" gradientUnits="userSpaceOnUse">
<stop stop-color="#CFFF73"/>
<stop offset="1" stop-color="#CFFF73" stop-opacity="0"/>
</linearGradient>
<radialGradient id="paint17_radial_28327_7824" cx="0" cy="0" r="1" gradientUnits="userSpaceOnUse" gradientTransform="translate(20.3962 23.7182) rotate(86.2464) scale(6.55737 12.917)">
<stop stop-color="#B5E64B"/>
<stop offset="1" stop-color="#8EC347"/>
</radialGradient>
<radialGradient id="paint18_radial_28327_7824" cx="0" cy="0" r="1" gradientUnits="userSpaceOnUse" gradientTransform="translate(19.0131 27.2397) rotate(-76.5774) scale(2.70326 6.27273)">
<stop stop-color="#B2C770"/>
<stop offset="1" stop-color="#B2C770" stop-opacity="0"/>
</radialGradient>
<radialGradient id="paint19_radial_28327_7824" cx="0" cy="0" r="1" gradientUnits="userSpaceOnUse" gradientTransform="translate(24.6181 22.1089) rotate(147.587) scale(2.95147 0.984947)">
<stop stop-color="#B1EB4B"/>
<stop offset="1" stop-color="#B1EB4B" stop-opacity="0"/>
</radialGradient>
<radialGradient id="paint20_radial_28327_7824" cx="0" cy="0" r="1" gradientUnits="userSpaceOnUse" gradientTransform="translate(18.1875 28) rotate(-79.6951) scale(2.79509 9.35794)">
<stop stop-color="#C0BA90"/>
<stop offset="1" stop-color="#C0BA90" stop-opacity="0"/>
</radialGradient>
<linearGradient id="paint21_linear_28327_7824" x1="20.0089" y1="22.3519" x2="19.8393" y2="23.7865" gradientUnits="userSpaceOnUse">
<stop stop-color="#CFFF73"/>
<stop offset="1" stop-color="#CFFF73" stop-opacity="0"/>
</linearGradient>
</defs>
</svg>
