<svg width="32" height="32" viewBox="0 0 32 32" fill="none" xmlns="http://www.w3.org/2000/svg">
<path d="M17.0461 7.2875C17.0976 7.28526 17.1412 7.3252 17.1434 7.37671C17.1511 7.55392 17.2963 7.68532 17.4761 7.6775C17.5276 7.67526 17.5712 7.7152 17.5734 7.76671C17.5756 7.81822 17.5357 7.86179 17.4842 7.86403C17.204 7.87621 16.9692 7.66762 16.9569 7.38482C16.9546 7.33331 16.9946 7.28974 17.0461 7.2875Z" fill="#212121"/>
<path d="M17.77 6.65073C17.7752 6.65178 17.7805 6.65238 17.7859 6.65257L17.7714 6.64934C17.8006 6.61979 17.8203 6.58995 17.84 6.54072C17.8502 6.5067 17.8523 6.47269 17.8475 6.44143C17.8342 6.45657 17.8151 6.46387 17.7971 6.45868C17.7706 6.45101 17.7566 6.41899 17.7658 6.38716C17.7716 6.36682 17.7856 6.35147 17.8018 6.34504C17.7873 6.32999 17.7699 6.31818 17.75 6.31072C17.67 6.29072 17.58 6.35072 17.55 6.45072C17.54 6.49072 17.54 6.54072 17.55 6.57072L17.758 6.64638L17.7411 6.64262L17.77 6.65073Z" fill="#212121"/>
<path d="M17.7401 6.16079C17.7787 6.17182 17.8134 6.19351 17.8423 6.22292C17.7833 6.14214 17.695 6.08449 17.6 6.06073C17.4 6.01073 17.15 6.08073 17.07 6.32073V6.33073C17.05 6.39073 17.08 6.45073 17.13 6.47073L17.3735 6.53922C17.3754 6.49888 17.3817 6.4443 17.3901 6.41079C17.4401 6.23079 17.6001 6.12079 17.7401 6.16079Z" fill="#212121"/>
<path d="M17.227 5.71611C17.2074 5.66463 17.2333 5.60706 17.2848 5.58754L17.2869 5.58678L17.2906 5.58545L17.303 5.58132C17.3134 5.578 17.328 5.57367 17.3464 5.56906C17.383 5.55986 17.4348 5.54947 17.4977 5.54394C17.6234 5.53289 17.7955 5.54108 17.9791 5.61897C18.0298 5.64048 18.0535 5.699 18.032 5.74969C18.0105 5.80038 17.9519 5.82404 17.9012 5.80254C17.7548 5.74043 17.617 5.73362 17.5152 5.74257C17.4643 5.74704 17.423 5.7554 17.3949 5.76245C17.3809 5.76597 17.3703 5.76914 17.3636 5.77129L17.3555 5.77398C17.2895 5.7907 17.2423 5.74237 17.227 5.71611Z" fill="#212121"/>
<path d="M17.9639 14.507L19.6729 14.4979L14.3954 19.7755C14.7398 20.4733 14.6214 21.3415 14.0401 21.9308L11.9169 24.0539C12.0756 24.0969 12.2598 24.1207 12.5 24.1207C13.1004 24.1207 13.3509 23.9718 13.7279 23.7477L13.7391 23.741C14.2309 23.4488 14.8563 23.0807 16 23.0807C17.1437 23.0807 17.7691 23.4488 18.2609 23.741L18.2721 23.7477C18.6491 23.9718 18.8996 24.1207 19.5 24.1207C20.1004 24.1207 20.3509 23.9718 20.7279 23.7477L20.7391 23.741C21.2309 23.4488 21.8563 23.0807 23 23.0807C24.1437 23.0807 24.7691 23.4488 25.2609 23.741L25.2721 23.7477C25.6491 23.9718 25.8996 24.1207 26.5 24.1207C27.1004 24.1207 27.3509 23.9718 27.7279 23.7477L27.7391 23.741C28.2292 23.4498 28.8522 23.0831 29.9886 23.0807L30 19.4707C29.125 19.4707 28.6875 19.7307 28.25 19.9907C27.8967 20.2007 27.5433 20.4107 26.9595 20.4837L26.9401 16.5907L26.82 16.5907C27.41 16.5907 27.89 16.1107 27.89 15.5207C27.88 14.9307 27.4 14.4507 26.81 14.4507H21.3553C21.7072 14.3764 22.0331 14.2015 22.2912 13.9433C22.6419 13.5926 22.8389 13.117 22.8389 12.621C22.8389 12.1251 22.6419 11.6494 22.2912 11.2987C21.9405 10.948 21.4649 10.751 20.9689 10.751L17.3759 10.77L17.1229 10.363L16.9999 10.154L16.7449 9.70802H16.7819C17.1976 9.70125 17.6009 9.56563 17.9362 9.31988C18.2716 9.07413 18.5223 8.73036 18.6539 8.33602C18.8105 8.25639 18.9493 8.146 19.0622 8.01147C19.1751 7.87693 19.2597 7.72101 19.3109 7.55302C19.3953 7.26184 19.3773 6.95055 19.2599 6.67102L19.2539 6.65344C19.2426 6.62061 19.2307 6.58569 19.2179 6.54502L19.3009 6.26202C19.3693 6.02561 19.4007 5.78004 19.3939 5.53402C19.5278 5.34227 19.6292 5.12975 19.6939 4.90502C19.7626 4.68401 19.7858 4.45138 19.7622 4.22115C19.7386 3.99092 19.6686 3.76785 19.5565 3.56539C19.4444 3.36292 19.2924 3.18524 19.1098 3.04305C18.9272 2.90086 18.7177 2.7971 18.4939 2.73802C18.1947 2.64826 17.8844 2.60047 17.5719 2.59602C17.542 2.59754 17.5119 2.59754 17.4819 2.59602C17.4417 2.57676 17.4026 2.55506 17.3649 2.53102C16.8318 2.19846 16.2191 2.01508 15.5909 2.00002C15.0579 1.99408 14.5388 2.17097 14.1203 2.50123C13.7018 2.83148 13.4091 3.29516 13.2909 3.81502C13.0624 4.48996 12.9879 5.20753 13.0729 5.91502C12.9032 6.19743 12.8371 6.53016 12.8859 6.85602C12.5841 6.93841 12.2975 7.06873 12.0369 7.24202C10.0686 8.78256 8.30389 11.4872 8.36195 14.094C8.38186 14.2145 8.40815 14.3335 8.44065 14.4507H5.01995C4.42995 14.4507 3.94995 14.9307 3.94995 15.5207C3.94995 16.1107 4.42995 16.5907 5.01995 16.5907L5.59009 16.5907L7.53723 19.8252C7.43863 19.8786 7.34441 19.9346 7.25019 19.9906C6.81269 20.2506 6.375 20.5107 5.5 20.5107C4.625 20.5107 4.1875 20.2507 3.75 19.9907C3.3125 19.7307 2.875 19.4707 2 19.4707V23.0807C3.14368 23.0807 3.76915 23.4488 4.26088 23.741L4.2721 23.7477C4.64907 23.9718 4.89962 24.1207 5.5 24.1207C6.10038 24.1207 6.35093 23.9718 6.7279 23.7477L6.73912 23.741C7.13782 23.5041 7.62445 23.2173 8.40394 23.1172C8.38493 22.6137 8.56698 22.1039 8.95009 21.7208L11.3901 19.2808C11.9715 18.6993 12.8448 18.581 13.545 18.9258L17.9639 14.507ZM18.3422 5.15987C18.3382 5.16229 18.3341 5.16467 18.3299 5.16702C18.4147 5.42934 18.4195 5.71093 18.3439 5.97602L18.1849 6.51902C18.2168 6.68225 18.2602 6.84299 18.3149 7.00002C18.3588 7.08213 18.3712 7.1774 18.3499 7.26802C18.3215 7.3366 18.2727 7.39477 18.2101 7.43466C18.1475 7.47455 18.0741 7.49422 17.9999 7.49102C17.9662 7.49132 17.9325 7.48695 17.8999 7.47802C17.6799 8.18402 17.4279 8.70602 16.7819 8.70602C16.6191 8.70275 16.4576 8.67683 16.3019 8.62902C16.0568 8.55172 15.8241 8.43957 15.6109 8.29602L15.2359 8.70202C15.2469 8.72502 15.2519 8.73902 15.2519 8.73902C15.3106 8.90208 15.3374 9.07487 15.3309 9.24802L16.0183 10.4508L14.2974 11.519C14.2902 11.5168 14.2831 11.5145 14.2759 11.512C14.0739 11.9427 13.9089 12.3891 13.7826 12.8465L9.89888 11.7368C10.4497 10.3201 11.3612 9.06494 12.5499 8.10002C12.8399 7.89257 13.1855 7.77723 13.5419 7.76902C13.5807 7.76871 13.6194 7.77038 13.6579 7.77402L14.3262 7.06085C14.5837 7.15031 15.0823 6.98228 15.07 6.65079C15.0287 5.53402 15.91 5.50079 15.91 5.50079C15.91 5.50079 16.11 4.81079 17.25 5.14079C17.6868 5.26818 18.0553 5.25879 18.3422 5.15987ZM16.5296 11.3104L16.6199 11.455L16.6299 11.475C16.6848 11.5636 16.7613 11.6368 16.8523 11.6875C16.9433 11.7383 17.0458 11.7649 17.1499 11.765L20.9599 11.745C21.1907 11.745 21.412 11.8367 21.5751 11.9998C21.7383 12.163 21.8299 12.3843 21.8299 12.615C21.8299 12.8458 21.7383 13.067 21.5751 13.2302C21.412 13.3934 21.1907 13.485 20.9599 13.485L17.1799 13.505H17.1409C16.547 13.5057 15.975 13.2805 15.5409 12.875C15.3801 12.726 15.2419 12.5542 15.1309 12.365L15.0476 12.2303L16.5296 11.3104ZM9.35995 14.06C9.35918 13.5931 9.43589 13.1294 9.58686 12.6877L13.7171 13.8678L15.1903 14.4507H9.45743C9.40004 14.3218 9.36355 14.1899 9.35995 14.06Z" fill="#212121"/>
<path d="M2 28.9707V24.0807C2.41686 24.0807 2.73443 24.1397 3 24.2296C3.29186 24.3284 3.52093 24.4646 3.75 24.6007C4.1875 24.8607 4.625 25.1207 5.5 25.1207C6.375 25.1207 6.8125 24.8607 7.25 24.6007C7.6875 24.3407 8.125 24.0807 9 24.0807C9.875 24.0807 10.3125 24.3407 10.75 24.6007C11.1875 24.8607 11.625 25.1207 12.5 25.1207C13.375 25.1207 13.8125 24.8607 14.25 24.6007C14.6875 24.3407 15.125 24.0807 16 24.0807C16.875 24.0807 17.3125 24.3407 17.75 24.6007C18.1875 24.8607 18.625 25.1207 19.5 25.1207C20.375 25.1207 20.8125 24.8607 21.25 24.6007C21.6875 24.3407 22.125 24.0807 23 24.0807C23.875 24.0807 24.3125 24.3407 24.75 24.6007C25.1875 24.8607 25.625 25.1207 26.5 25.1207C27.375 25.1207 27.8125 24.8607 28.25 24.6007C28.4789 24.4647 28.7077 24.3287 28.9992 24.2299C29.2619 24.1409 29.5753 24.0821 29.9854 24.0807L29.97 28.9707H2Z" fill="#212121"/>
</svg>
