<svg width="32" height="32" viewBox="0 0 32 32" fill="none" xmlns="http://www.w3.org/2000/svg">
<g filter="url(#filter0_i_3987_22999)">
<path d="M19.7506 29.748H6.01624C9.44853 28.4221 16.785 25.4023 18.6725 23.9298C21.0319 22.0892 21.61 20.6385 22.7819 18.9539C23.9537 17.2693 24.8444 16.6606 26.7037 16.9184C28.3955 17.153 29.8678 18.4929 29.9928 20.9575C29.9928 25.5512 27.2536 27.5129 25.8287 28.4689C23.9225 29.748 21.2037 29.7948 19.7506 29.748Z" fill="#4BC4FD"/>
<path d="M19.7506 29.748H6.01624C9.44853 28.4221 16.785 25.4023 18.6725 23.9298C21.0319 22.0892 21.61 20.6385 22.7819 18.9539C23.9537 17.2693 24.8444 16.6606 26.7037 16.9184C28.3955 17.153 29.8678 18.4929 29.9928 20.9575C29.9928 25.5512 27.2536 27.5129 25.8287 28.4689C23.9225 29.748 21.2037 29.7948 19.7506 29.748Z" fill="url(#paint0_linear_3987_22999)"/>
</g>
<path d="M19.7506 29.748H6.01624C9.44853 28.4221 16.785 25.4023 18.6725 23.9298C21.0319 22.0892 21.61 20.6385 22.7819 18.9539C23.9537 17.2693 24.8444 16.6606 26.7037 16.9184C28.3955 17.153 29.8678 18.4929 29.9928 20.9575C29.9928 25.5512 27.2536 27.5129 25.8287 28.4689C23.9225 29.748 21.2037 29.7948 19.7506 29.748Z" fill="url(#paint1_radial_3987_22999)"/>
<path d="M19.7506 29.748H6.01624C9.44853 28.4221 16.785 25.4023 18.6725 23.9298C21.0319 22.0892 21.61 20.6385 22.7819 18.9539C23.9537 17.2693 24.8444 16.6606 26.7037 16.9184C28.3955 17.153 29.8678 18.4929 29.9928 20.9575C29.9928 25.5512 27.2536 27.5129 25.8287 28.4689C23.9225 29.748 21.2037 29.7948 19.7506 29.748Z" fill="url(#paint2_linear_3987_22999)"/>
<path d="M19.7506 29.748H6.01624C9.44853 28.4221 16.785 25.4023 18.6725 23.9298C21.0319 22.0892 21.61 20.6385 22.7819 18.9539C23.9537 17.2693 24.8444 16.6606 26.7037 16.9184C28.3955 17.153 29.8678 18.4929 29.9928 20.9575C29.9928 25.5512 27.2536 27.5129 25.8287 28.4689C23.9225 29.748 21.2037 29.7948 19.7506 29.748Z" fill="url(#paint3_radial_3987_22999)"/>
<path d="M19.7506 29.748H6.01624C9.44853 28.4221 16.785 25.4023 18.6725 23.9298C21.0319 22.0892 21.61 20.6385 22.7819 18.9539C23.9537 17.2693 24.8444 16.6606 26.7037 16.9184C28.3955 17.153 29.8678 18.4929 29.9928 20.9575C29.9928 25.5512 27.2536 27.5129 25.8287 28.4689C23.9225 29.748 21.2037 29.7948 19.7506 29.748Z" fill="url(#paint4_radial_3987_22999)"/>
<g filter="url(#filter1_f_3987_22999)">
<path d="M21.985 27.3325L7.60999 28.8325C12.2975 26.5929 19.5475 24.4262 21.985 22.645C23.8109 21.3107 24.8809 21.4458 25.2662 23.2075C25.485 24.2075 24.235 26.8325 21.985 27.3325Z" fill="#1B71CC"/>
<path d="M21.985 27.3325L7.60999 28.8325C12.2975 26.5929 19.5475 24.4262 21.985 22.645C23.8109 21.3107 24.8809 21.4458 25.2662 23.2075C25.485 24.2075 24.235 26.8325 21.985 27.3325Z" fill="url(#paint5_radial_3987_22999)"/>
</g>
<path d="M7.3053 27.348L8.47717 24.9574L10.2428 25.2621V26.3011L7.3053 27.348Z" fill="#AB7F67"/>
<path d="M7.3053 27.348L8.47717 24.9574L10.2428 25.2621V26.3011L7.3053 27.348Z" fill="url(#paint6_radial_3987_22999)"/>
<path d="M19.8365 23.0121C19.6678 22.8683 19.1621 22.3741 18.9303 22.1449L20.7975 21.2621C20.8725 21.3933 21.3079 22.0616 21.5162 22.3793L19.8365 23.0121Z" fill="url(#paint7_linear_3987_22999)"/>
<path d="M23.4685 25.327L23.0475 24.184L20.6959 24.7203L22.9214 25.8191C23.0147 25.8652 23.1224 25.8727 23.2212 25.84C23.4338 25.7696 23.5458 25.5372 23.4685 25.327Z" fill="url(#paint8_linear_3987_22999)"/>
<path d="M23.4685 25.327L23.0475 24.184L20.6959 24.7203L22.9214 25.8191C23.0147 25.8652 23.1224 25.8727 23.2212 25.84C23.4338 25.7696 23.5458 25.5372 23.4685 25.327Z" fill="url(#paint9_radial_3987_22999)"/>
<g filter="url(#filter2_i_3987_22999)">
<path d="M24.4577 21.2622L2.29042 28.9508C2.1177 29.0107 2.00333 29.1751 2.0073 29.3579C2.01228 29.5869 2.19892 29.77 2.42801 29.77H6.37564C6.86314 29.77 7.34439 29.6711 7.53189 29.6138C13.4538 27.5981 24.9381 23.7544 25.7077 23.4145C26.1507 23.2189 26.2192 23.0362 26.3127 22.7868L26.3131 22.7856C26.4069 22.5356 26.36 21.7544 25.8131 21.3325C25.3756 20.995 24.7077 21.1476 24.4577 21.2622Z" fill="url(#paint10_linear_3987_22999)"/>
<path d="M24.4577 21.2622L2.29042 28.9508C2.1177 29.0107 2.00333 29.1751 2.0073 29.3579C2.01228 29.5869 2.19892 29.77 2.42801 29.77H6.37564C6.86314 29.77 7.34439 29.6711 7.53189 29.6138C13.4538 27.5981 24.9381 23.7544 25.7077 23.4145C26.1507 23.2189 26.2192 23.0362 26.3127 22.7868L26.3131 22.7856C26.4069 22.5356 26.36 21.7544 25.8131 21.3325C25.3756 20.995 24.7077 21.1476 24.4577 21.2622Z" fill="url(#paint11_radial_3987_22999)"/>
</g>
<g filter="url(#filter3_i_3987_22999)">
<circle cx="25.8639" cy="14.7621" r="1.29297" fill="url(#paint12_radial_3987_22999)"/>
</g>
<g filter="url(#filter4_i_3987_22999)">
<circle cx="28.8639" cy="12.8129" r="1.04297" fill="url(#paint13_radial_3987_22999)"/>
</g>
<g filter="url(#filter5_i_3987_22999)">
<circle cx="26.86" cy="10.7269" r="0.914062" fill="url(#paint14_radial_3987_22999)"/>
</g>
<rect x="20.6615" y="12.8092" width="0.598694" height="1.03067" rx="0.299347" transform="rotate(26.5952 20.6615 12.8092)" fill="url(#paint15_radial_3987_22999)"/>
<g filter="url(#filter6_i_3987_22999)">
<path d="M20.6802 13.8489C20.9364 13.2611 21.0526 12.6294 21.0786 12.3871L23.1256 12.4105C23.1725 12.6794 23.0865 12.9942 23.0475 13.1141C23.135 13.4362 23.0839 13.8007 23.0475 13.9427C22.9928 14.1681 22.8686 14.6556 22.8092 14.8026C22.735 14.9863 22.6256 15.0489 22.4615 15.0332C22.4043 15.0278 22.354 15.0107 22.3127 14.9903C22.244 14.9563 22.1557 14.9468 22.0831 14.9715C22.0178 14.9938 21.9371 15.0075 21.8561 14.9902C21.7718 14.9723 21.7024 14.9252 21.6524 14.8778C21.6006 14.8286 21.5268 14.802 21.457 14.8174C21.3904 14.832 21.3104 14.8403 21.2311 14.8222C21.1651 14.8071 21.1044 14.7571 21.0591 14.7072C21.0149 14.6585 20.9491 14.6303 20.8836 14.6362C20.7993 14.6437 20.7008 14.6391 20.6489 14.5955C20.5513 14.5134 20.4302 14.4196 20.6802 13.8489Z" fill="url(#paint16_radial_3987_22999)"/>
</g>
<path d="M7.60242 12.7758H8.19617C8.08992 13.4446 8.20837 14.3841 8.30994 14.7721C7.30369 14.9034 6.67273 14.6638 6.45398 14.5258L6.3446 13.0649C6.67585 12.8086 7.32117 12.7654 7.60242 12.7758Z" fill="#AA846A"/>
<g filter="url(#filter7_i_3987_22999)">
<path d="M10.6842 11.6957C9.71682 12.4102 8.47968 12.7126 7.96145 12.7543C7.8302 13.7543 8.06822 14.5251 8.20363 14.7855C8.50452 14.7582 9.35217 14.6761 10.7036 14.0668C12.3828 13.3096 13.1621 12.2634 13.3444 11.8207L13.0631 8.43396C12.6881 9.46521 12.0592 10.6801 10.6842 11.6957Z" fill="#3086D6"/>
<path d="M10.6842 11.6957C9.71682 12.4102 8.47968 12.7126 7.96145 12.7543C7.8302 13.7543 8.06822 14.5251 8.20363 14.7855C8.50452 14.7582 9.35217 14.6761 10.7036 14.0668C12.3828 13.3096 13.1621 12.2634 13.3444 11.8207L13.0631 8.43396C12.6881 9.46521 12.0592 10.6801 10.6842 11.6957Z" fill="url(#paint17_radial_3987_22999)"/>
<path d="M10.6842 11.6957C9.71682 12.4102 8.47968 12.7126 7.96145 12.7543C7.8302 13.7543 8.06822 14.5251 8.20363 14.7855C8.50452 14.7582 9.35217 14.6761 10.7036 14.0668C12.3828 13.3096 13.1621 12.2634 13.3444 11.8207L13.0631 8.43396C12.6881 9.46521 12.0592 10.6801 10.6842 11.6957Z" fill="url(#paint18_radial_3987_22999)"/>
</g>
<g filter="url(#filter8_i_3987_22999)">
<path d="M12.7585 11.6527C12.3274 9.93741 12.9277 8.49125 13.2663 8.16833L15.61 7.60583H17.3522C18.8757 7.60583 20.1741 7.7949 21.5554 8.86365C22.9085 9.91068 23.1775 11.663 23.1438 12.4562C23.1426 12.4833 23.1196 12.5035 23.0925 12.5025L21.1043 12.4283C21.0742 12.4271 21.0519 12.4002 21.055 12.3702C21.0933 11.999 20.9887 11.0966 20.0554 10.3558C19.4493 9.87484 18.536 9.82417 17.9087 9.86196C17.6615 9.87686 17.5083 10.1249 17.5861 10.36C17.9022 11.3153 18.4266 12.8725 18.7975 13.8793C19.3444 15.3636 18.6882 16.8324 19.1725 18.3636C19.5495 19.5554 20.3761 20.7822 20.8091 21.2843C20.8267 21.3046 20.8199 21.336 20.7956 21.3473L18.9617 22.1986C18.9455 22.2061 18.926 22.2017 18.9143 22.1881C17.0663 20.0313 16.4145 18.3631 16.3522 18.1996C16.2897 18.0355 16.1218 17.6683 15.778 17.6683C15.503 17.6683 15.1882 18.0199 14.9694 18.3988L10.3022 25.5358C10.2901 25.5542 10.2675 25.5626 10.2463 25.5564L8.46319 25.0363C8.43366 25.0277 8.41821 24.9961 8.43137 24.9683C9.92988 21.8044 12.9725 15.4587 13.2038 14.9105C13.4147 14.4105 13.3851 13.994 13.3444 13.8246C13.3131 13.6944 13.1256 13.1136 12.7585 11.6527Z" fill="url(#paint19_linear_3987_22999)"/>
<path d="M12.7585 11.6527C12.3274 9.93741 12.9277 8.49125 13.2663 8.16833L15.61 7.60583H17.3522C18.8757 7.60583 20.1741 7.7949 21.5554 8.86365C22.9085 9.91068 23.1775 11.663 23.1438 12.4562C23.1426 12.4833 23.1196 12.5035 23.0925 12.5025L21.1043 12.4283C21.0742 12.4271 21.0519 12.4002 21.055 12.3702C21.0933 11.999 20.9887 11.0966 20.0554 10.3558C19.4493 9.87484 18.536 9.82417 17.9087 9.86196C17.6615 9.87686 17.5083 10.1249 17.5861 10.36C17.9022 11.3153 18.4266 12.8725 18.7975 13.8793C19.3444 15.3636 18.6882 16.8324 19.1725 18.3636C19.5495 19.5554 20.3761 20.7822 20.8091 21.2843C20.8267 21.3046 20.8199 21.336 20.7956 21.3473L18.9617 22.1986C18.9455 22.2061 18.926 22.2017 18.9143 22.1881C17.0663 20.0313 16.4145 18.3631 16.3522 18.1996C16.2897 18.0355 16.1218 17.6683 15.778 17.6683C15.503 17.6683 15.1882 18.0199 14.9694 18.3988L10.3022 25.5358C10.2901 25.5542 10.2675 25.5626 10.2463 25.5564L8.46319 25.0363C8.43366 25.0277 8.41821 24.9961 8.43137 24.9683C9.92988 21.8044 12.9725 15.4587 13.2038 14.9105C13.4147 14.4105 13.3851 13.994 13.3444 13.8246C13.3131 13.6944 13.1256 13.1136 12.7585 11.6527Z" fill="url(#paint20_radial_3987_22999)"/>
<path d="M12.7585 11.6527C12.3274 9.93741 12.9277 8.49125 13.2663 8.16833L15.61 7.60583H17.3522C18.8757 7.60583 20.1741 7.7949 21.5554 8.86365C22.9085 9.91068 23.1775 11.663 23.1438 12.4562C23.1426 12.4833 23.1196 12.5035 23.0925 12.5025L21.1043 12.4283C21.0742 12.4271 21.0519 12.4002 21.055 12.3702C21.0933 11.999 20.9887 11.0966 20.0554 10.3558C19.4493 9.87484 18.536 9.82417 17.9087 9.86196C17.6615 9.87686 17.5083 10.1249 17.5861 10.36C17.9022 11.3153 18.4266 12.8725 18.7975 13.8793C19.3444 15.3636 18.6882 16.8324 19.1725 18.3636C19.5495 19.5554 20.3761 20.7822 20.8091 21.2843C20.8267 21.3046 20.8199 21.336 20.7956 21.3473L18.9617 22.1986C18.9455 22.2061 18.926 22.2017 18.9143 22.1881C17.0663 20.0313 16.4145 18.3631 16.3522 18.1996C16.2897 18.0355 16.1218 17.6683 15.778 17.6683C15.503 17.6683 15.1882 18.0199 14.9694 18.3988L10.3022 25.5358C10.2901 25.5542 10.2675 25.5626 10.2463 25.5564L8.46319 25.0363C8.43366 25.0277 8.41821 24.9961 8.43137 24.9683C9.92988 21.8044 12.9725 15.4587 13.2038 14.9105C13.4147 14.4105 13.3851 13.994 13.3444 13.8246C13.3131 13.6944 13.1256 13.1136 12.7585 11.6527Z" fill="url(#paint21_radial_3987_22999)"/>
</g>
<path d="M12.7585 11.6527C12.3274 9.93741 12.9277 8.49125 13.2663 8.16833L15.61 7.60583H17.3522C18.8757 7.60583 20.1741 7.7949 21.5554 8.86365C22.9085 9.91068 23.1775 11.663 23.1438 12.4562C23.1426 12.4833 23.1196 12.5035 23.0925 12.5025L21.1043 12.4283C21.0742 12.4271 21.0519 12.4002 21.055 12.3702C21.0933 11.999 20.9887 11.0966 20.0554 10.3558C19.4493 9.87484 18.536 9.82417 17.9087 9.86196C17.6615 9.87686 17.5083 10.1249 17.5861 10.36C17.9022 11.3153 18.4266 12.8725 18.7975 13.8793C19.3444 15.3636 18.6882 16.8324 19.1725 18.3636C19.5495 19.5554 20.3761 20.7822 20.8091 21.2843C20.8267 21.3046 20.8199 21.336 20.7956 21.3473L18.9617 22.1986C18.9455 22.2061 18.926 22.2017 18.9143 22.1881C17.0663 20.0313 16.4145 18.3631 16.3522 18.1996C16.2897 18.0355 16.1218 17.6683 15.778 17.6683C15.503 17.6683 15.1882 18.0199 14.9694 18.3988L10.3022 25.5358C10.2901 25.5542 10.2675 25.5626 10.2463 25.5564L8.46319 25.0363C8.43366 25.0277 8.41821 24.9961 8.43137 24.9683C9.92988 21.8044 12.9725 15.4587 13.2038 14.9105C13.4147 14.4105 13.3851 13.994 13.3444 13.8246C13.3131 13.6944 13.1256 13.1136 12.7585 11.6527Z" fill="url(#paint22_radial_3987_22999)"/>
<path d="M17.568 10.2774C17.5454 10.0701 17.6904 9.87512 17.9086 9.86196C18.5359 9.82417 19.4492 9.87484 20.0553 10.3558C20.9887 11.0966 21.0932 11.999 21.0549 12.3702C21.0518 12.4002 21.0742 12.4271 21.1043 12.4283L23.0924 12.5025C23.1196 12.5035 23.1426 12.4833 23.1437 12.4562C23.1774 11.663 22.9085 9.91068 21.5553 8.86365C20.174 7.7949 18.8756 7.60583 17.3522 7.60583L16.9619 7.60583C16.8045 8.89107 17.2121 9.79873 17.568 10.2774Z" fill="url(#paint23_linear_3987_22999)"/>
<path d="M17.568 10.2774C17.5454 10.0701 17.6904 9.87512 17.9086 9.86196C18.5359 9.82417 19.4492 9.87484 20.0553 10.3558C20.9887 11.0966 21.0932 11.999 21.0549 12.3702C21.0518 12.4002 21.0742 12.4271 21.1043 12.4283L23.0924 12.5025C23.1196 12.5035 23.1426 12.4833 23.1437 12.4562C23.1774 11.663 22.9085 9.91068 21.5553 8.86365C20.174 7.7949 18.8756 7.60583 17.3522 7.60583L16.9619 7.60583C16.8045 8.89107 17.2121 9.79873 17.568 10.2774Z" fill="url(#paint24_radial_3987_22999)"/>
<path fill-rule="evenodd" clip-rule="evenodd" d="M7.12687 13.5437C6.18562 13.2602 5.8325 13.5534 5.73885 13.6628C5.60415 13.8202 5.36743 13.8385 5.2101 13.7038C5.05278 13.5691 5.03443 13.3324 5.16913 13.1751C5.49686 12.7923 6.18281 12.4761 7.34311 12.8255C7.54143 12.8852 7.65378 13.0944 7.59407 13.2927C7.53435 13.491 7.32518 13.6034 7.12687 13.5437Z" fill="#AB8572"/>
<path fill-rule="evenodd" clip-rule="evenodd" d="M7.12687 13.5437C6.18562 13.2602 5.8325 13.5534 5.73885 13.6628C5.60415 13.8202 5.36743 13.8385 5.2101 13.7038C5.05278 13.5691 5.03443 13.3324 5.16913 13.1751C5.49686 12.7923 6.18281 12.4761 7.34311 12.8255C7.54143 12.8852 7.65378 13.0944 7.59407 13.2927C7.53435 13.491 7.32518 13.6034 7.12687 13.5437Z" fill="url(#paint25_radial_3987_22999)"/>
<path fill-rule="evenodd" clip-rule="evenodd" d="M5.40354 14.1389C5.40322 14.1397 5.40309 14.1401 5.40318 14.1402C5.40404 14.1407 5.42373 14.1123 5.48744 14.0606C5.56064 14.0012 5.66622 13.9321 5.79812 13.8673C6.06325 13.7369 6.40637 13.6374 6.76623 13.6487C6.97324 13.6552 7.14634 13.4927 7.15286 13.2857C7.15939 13.0787 6.99687 12.9056 6.78987 12.8991C6.28254 12.8831 5.81784 13.0218 5.46721 13.1942C5.29123 13.2807 5.13694 13.3791 5.01487 13.4782C4.9054 13.567 4.7807 13.689 4.71887 13.833C4.63716 14.0233 4.72519 14.2438 4.9155 14.3255C5.10242 14.4058 5.31849 14.3223 5.40354 14.1389Z" fill="#AB8572"/>
<path fill-rule="evenodd" clip-rule="evenodd" d="M5.40354 14.1389C5.40322 14.1397 5.40309 14.1401 5.40318 14.1402C5.40404 14.1407 5.42373 14.1123 5.48744 14.0606C5.56064 14.0012 5.66622 13.9321 5.79812 13.8673C6.06325 13.7369 6.40637 13.6374 6.76623 13.6487C6.97324 13.6552 7.14634 13.4927 7.15286 13.2857C7.15939 13.0787 6.99687 12.9056 6.78987 12.8991C6.28254 12.8831 5.81784 13.0218 5.46721 13.1942C5.29123 13.2807 5.13694 13.3791 5.01487 13.4782C4.9054 13.567 4.7807 13.689 4.71887 13.833C4.63716 14.0233 4.72519 14.2438 4.9155 14.3255C5.10242 14.4058 5.31849 14.3223 5.40354 14.1389Z" fill="url(#paint26_radial_3987_22999)"/>
<path fill-rule="evenodd" clip-rule="evenodd" d="M5.24982 14.6668C5.24652 14.6713 5.2462 14.6718 5.24787 14.6679C5.16616 14.8582 4.94565 14.9462 4.75534 14.8645C4.56503 14.7828 4.477 14.5623 4.55872 14.372C4.61405 14.2431 4.72267 14.1186 4.82861 14.018C4.94427 13.9083 5.09278 13.7935 5.26587 13.6896C5.60951 13.4834 6.07736 13.3043 6.60237 13.3209C6.80937 13.3274 6.97189 13.5005 6.96536 13.7075C6.95884 13.9145 6.78574 14.077 6.57873 14.0705C6.23656 14.0597 5.91025 14.1776 5.6518 14.3327C5.52384 14.4095 5.41933 14.4914 5.34485 14.5621C5.28474 14.6191 5.25804 14.6556 5.24982 14.6668Z" fill="#AB8572"/>
<path fill-rule="evenodd" clip-rule="evenodd" d="M5.24982 14.6668C5.24652 14.6713 5.2462 14.6718 5.24787 14.6679C5.16616 14.8582 4.94565 14.9462 4.75534 14.8645C4.56503 14.7828 4.477 14.5623 4.55872 14.372C4.61405 14.2431 4.72267 14.1186 4.82861 14.018C4.94427 13.9083 5.09278 13.7935 5.26587 13.6896C5.60951 13.4834 6.07736 13.3043 6.60237 13.3209C6.80937 13.3274 6.97189 13.5005 6.96536 13.7075C6.95884 13.9145 6.78574 14.077 6.57873 14.0705C6.23656 14.0597 5.91025 14.1776 5.6518 14.3327C5.52384 14.4095 5.41933 14.4914 5.34485 14.5621C5.28474 14.6191 5.25804 14.6556 5.24982 14.6668Z" fill="url(#paint27_radial_3987_22999)"/>
<path fill-rule="evenodd" clip-rule="evenodd" d="M5.61135 14.9446C5.6109 14.9454 5.61077 14.9456 5.61091 14.9453C5.5292 15.1356 5.30868 15.2236 5.11838 15.1419C4.92807 15.0602 4.84004 14.8397 4.92175 14.6494C5.01449 14.4334 5.24913 14.2041 5.52132 14.0449C5.80921 13.8765 6.19889 13.7501 6.63969 13.8084C6.84501 13.8355 6.98946 14.0239 6.96232 14.2293C6.93518 14.4346 6.74673 14.579 6.54141 14.5519C6.30253 14.5203 6.07957 14.5872 5.90001 14.6923C5.81067 14.7445 5.73746 14.8033 5.68457 14.8562C5.63399 14.9068 5.61457 14.9392 5.61135 14.9446Z" fill="#AB8572"/>
<path fill-rule="evenodd" clip-rule="evenodd" d="M5.61135 14.9446C5.6109 14.9454 5.61077 14.9456 5.61091 14.9453C5.5292 15.1356 5.30868 15.2236 5.11838 15.1419C4.92807 15.0602 4.84004 14.8397 4.92175 14.6494C5.01449 14.4334 5.24913 14.2041 5.52132 14.0449C5.80921 13.8765 6.19889 13.7501 6.63969 13.8084C6.84501 13.8355 6.98946 14.0239 6.96232 14.2293C6.93518 14.4346 6.74673 14.579 6.54141 14.5519C6.30253 14.5203 6.07957 14.5872 5.90001 14.6923C5.81067 14.7445 5.73746 14.8033 5.68457 14.8562C5.63399 14.9068 5.61457 14.9392 5.61135 14.9446Z" fill="url(#paint28_radial_3987_22999)"/>
<path d="M6.12563 14.8871C6.25063 14.7496 6.52407 14.4261 6.64516 14.2816C6.87643 14.2816 7.55662 14.2152 7.84436 14.184C7.45374 14.8988 7.00452 15.1879 6.77014 15.3793C6.45374 15.5902 6.16467 15.3793 6.12563 15.3129C6.07876 15.266 5.96938 15.059 6.12563 14.8871Z" fill="#AA846A"/>
<path d="M6.12563 14.8871C6.25063 14.7496 6.52407 14.4261 6.64516 14.2816C6.87643 14.2816 7.55662 14.2152 7.84436 14.184C7.45374 14.8988 7.00452 15.1879 6.77014 15.3793C6.45374 15.5902 6.16467 15.3793 6.12563 15.3129C6.07876 15.266 5.96938 15.059 6.12563 14.8871Z" fill="url(#paint29_radial_3987_22999)"/>
<g filter="url(#filter9_f_3987_22999)">
<path d="M26.485 24.3324C27.466 22.054 27.1114 20.4456 26.5402 19.3191C26.0656 18.3833 26.5371 17.6567 27.5582 17.898C28.2953 18.0723 28.9221 18.5923 29.0977 19.329C29.8191 22.3539 28.7849 25.5106 25.5162 27.1449C22.5662 28.6199 17.6621 28.7387 15.5787 28.6137C18.5787 28.6137 25.3832 26.8915 26.485 24.3324Z" fill="url(#paint30_radial_3987_22999)"/>
</g>
<g filter="url(#filter10_f_3987_22999)">
<path d="M16.7818 13.4499C16.1314 12.1694 15.6159 10.2651 15.3395 9.02669C15.25 8.62542 15.5209 8.23814 15.9265 8.17055C16.3742 8.09593 16.7815 8.44225 16.8361 8.89285C17.042 10.5912 17.7875 12.2658 18.2818 13.5749C18.8599 15.1061 18.5943 14.6374 18.5162 17.0905C18.4594 18.8717 19.7818 20.3405 20.3287 21.1999L19.9224 21.4108C19.313 20.5827 17.7193 18.4655 17.7193 16.5593C17.7193 14.7682 17.7818 15.4186 16.7818 13.4499Z" fill="url(#paint31_linear_3987_22999)"/>
</g>
<g filter="url(#filter11_f_3987_22999)">
<path d="M18.5944 8.28564C19.8027 8.2648 22.3756 9.11376 22.6984 12.2858" stroke="url(#paint32_linear_3987_22999)" stroke-width="0.4"/>
</g>
<g filter="url(#filter12_i_3987_22999)">
<circle cx="12.0742" cy="6.03658" r="0.738851" fill="url(#paint33_radial_3987_22999)"/>
</g>
<circle cx="12.0742" cy="6.03658" r="0.738851" fill="url(#paint34_radial_3987_22999)"/>
<g filter="url(#filter13_f_3987_22999)">
<circle cx="12.0743" cy="6.03666" r="0.440344" fill="url(#paint35_linear_3987_22999)"/>
</g>
<g filter="url(#filter14_i_3987_22999)">
<circle cx="16.2844" cy="6.03658" r="0.738851" fill="url(#paint36_linear_3987_22999)"/>
<circle cx="16.2844" cy="6.03658" r="0.738851" fill="url(#paint37_radial_3987_22999)"/>
</g>
<g filter="url(#filter15_f_3987_22999)">
<circle cx="16.2845" cy="6.03666" r="0.440344" fill="#A57C70"/>
<circle cx="16.2845" cy="6.03666" r="0.440344" fill="url(#paint38_radial_3987_22999)"/>
<circle cx="16.2845" cy="6.03666" r="0.440344" fill="url(#paint39_radial_3987_22999)"/>
</g>
<g filter="url(#filter16_i_3987_22999)">
<path d="M11.9185 5.7654C11.9256 5.76589 11.9329 5.76614 11.9402 5.76614C11.9402 5.76614 11.9164 5.38847 11.8927 5.12883C11.8927 5.01081 11.9402 4.86919 12.0351 4.79837L12.1064 4.72756C12.225 4.63315 12.2725 4.49152 12.2725 4.3499V3.97224C12.2725 3.85422 12.3437 3.7598 12.4624 3.7362C12.7473 3.66538 13.3408 3.54736 14.1954 3.54736C15.05 3.54736 15.6435 3.66538 15.9284 3.7362C16.0233 3.7598 16.1183 3.85422 16.1183 3.97224V4.3499C16.1183 4.49152 16.1895 4.63315 16.2844 4.72756C16.5067 4.88327 16.4928 4.96891 16.4744 5.15243C16.4506 5.38847 16.4269 5.78974 16.4269 5.78974C16.4296 5.78974 16.4322 5.78971 16.4349 5.78964L16.3172 7.54154C16.2462 8.3247 15.6305 8.87054 14.8964 8.87054H13.4756C12.7178 8.87054 12.1258 8.3247 12.0548 7.54154L11.9185 5.7654Z" fill="url(#paint40_linear_3987_22999)"/>
<path d="M11.9185 5.7654C11.9256 5.76589 11.9329 5.76614 11.9402 5.76614C11.9402 5.76614 11.9164 5.38847 11.8927 5.12883C11.8927 5.01081 11.9402 4.86919 12.0351 4.79837L12.1064 4.72756C12.225 4.63315 12.2725 4.49152 12.2725 4.3499V3.97224C12.2725 3.85422 12.3437 3.7598 12.4624 3.7362C12.7473 3.66538 13.3408 3.54736 14.1954 3.54736C15.05 3.54736 15.6435 3.66538 15.9284 3.7362C16.0233 3.7598 16.1183 3.85422 16.1183 3.97224V4.3499C16.1183 4.49152 16.1895 4.63315 16.2844 4.72756C16.5067 4.88327 16.4928 4.96891 16.4744 5.15243C16.4506 5.38847 16.4269 5.78974 16.4269 5.78974C16.4296 5.78974 16.4322 5.78971 16.4349 5.78964L16.3172 7.54154C16.2462 8.3247 15.6305 8.87054 14.8964 8.87054H13.4756C12.7178 8.87054 12.1258 8.3247 12.0548 7.54154L11.9185 5.7654Z" fill="url(#paint41_radial_3987_22999)"/>
<path d="M11.9185 5.7654C11.9256 5.76589 11.9329 5.76614 11.9402 5.76614C11.9402 5.76614 11.9164 5.38847 11.8927 5.12883C11.8927 5.01081 11.9402 4.86919 12.0351 4.79837L12.1064 4.72756C12.225 4.63315 12.2725 4.49152 12.2725 4.3499V3.97224C12.2725 3.85422 12.3437 3.7598 12.4624 3.7362C12.7473 3.66538 13.3408 3.54736 14.1954 3.54736C15.05 3.54736 15.6435 3.66538 15.9284 3.7362C16.0233 3.7598 16.1183 3.85422 16.1183 3.97224V4.3499C16.1183 4.49152 16.1895 4.63315 16.2844 4.72756C16.5067 4.88327 16.4928 4.96891 16.4744 5.15243C16.4506 5.38847 16.4269 5.78974 16.4269 5.78974C16.4296 5.78974 16.4322 5.78971 16.4349 5.78964L16.3172 7.54154C16.2462 8.3247 15.6305 8.87054 14.8964 8.87054H13.4756C12.7178 8.87054 12.1258 8.3247 12.0548 7.54154L11.9185 5.7654Z" fill="url(#paint42_radial_3987_22999)"/>
</g>
<path d="M11.8927 5.12883C11.8927 5.01081 11.9402 4.86919 12.0351 4.79837L12.1064 4.72756C12.225 4.63315 12.2725 4.49152 12.2725 4.3499V3.97224C12.2725 3.85422 12.3437 3.7598 12.4624 3.7362C12.7473 3.66538 13.3408 3.54736 14.1954 3.54736C15.05 3.54736 15.6435 3.66538 15.9284 3.7362C16.0233 3.7598 16.1183 3.85422 16.1183 3.97224V4.3499C16.1183 4.49152 16.1895 4.63315 16.2844 4.72756C16.5067 4.88327 16.4928 4.96891 16.4744 5.15243C16.4506 5.38847 16.4269 5.78974 16.4269 5.78974C16.4296 5.78974 16.4322 5.78971 16.4349 5.78964L16.3172 7.54154C16.2462 8.3247 15.6305 8.87054 14.8964 8.87054H13.4756C12.7178 8.87054 12.1258 8.3247 12.0548 7.54154C11.9931 6.73762 11.9661 5.93136 11.8927 5.12883Z" fill="url(#paint43_linear_3987_22999)"/>
<path d="M11.8927 5.12883C11.8927 5.01081 11.9402 4.86919 12.0351 4.79837L12.1064 4.72756C12.225 4.63315 12.2725 4.49152 12.2725 4.3499V3.97224C12.2725 3.85422 12.3437 3.7598 12.4624 3.7362C12.7473 3.66538 13.3408 3.54736 14.1954 3.54736C15.05 3.54736 15.6435 3.66538 15.9284 3.7362C16.0233 3.7598 16.1183 3.85422 16.1183 3.97224V4.3499C16.1183 4.49152 16.1895 4.63315 16.2844 4.72756C16.5067 4.88327 16.4928 4.96891 16.4744 5.15243C16.4506 5.38847 16.4269 5.78974 16.4269 5.78974C16.4296 5.78974 16.4322 5.78971 16.4349 5.78964L16.3172 7.54154C16.2462 8.3247 15.6305 8.87054 14.8964 8.87054H13.4756C12.7178 8.87054 12.1258 8.3247 12.0548 7.54154C11.9931 6.73762 11.9661 5.93136 11.8927 5.12883Z" fill="url(#paint44_linear_3987_22999)"/>
<path d="M11.8927 5.12883C11.8927 5.01081 11.9402 4.86919 12.0351 4.79837L12.1064 4.72756C12.225 4.63315 12.2725 4.49152 12.2725 4.3499V3.97224C12.2725 3.85422 12.3437 3.7598 12.4624 3.7362C12.7473 3.66538 13.3408 3.54736 14.1954 3.54736C15.05 3.54736 15.6435 3.66538 15.9284 3.7362C16.0233 3.7598 16.1183 3.85422 16.1183 3.97224V4.3499C16.1183 4.49152 16.1895 4.63315 16.2844 4.72756C16.5067 4.88327 16.4928 4.96891 16.4744 5.15243C16.4506 5.38847 16.4269 5.78974 16.4269 5.78974C16.4296 5.78974 16.4322 5.78971 16.4349 5.78964L16.3172 7.54154C16.2462 8.3247 15.6305 8.87054 14.8964 8.87054H13.4756C12.7178 8.87054 12.1258 8.3247 12.0548 7.54154C11.9931 6.73762 11.9661 5.93136 11.8927 5.12883Z" fill="url(#paint45_radial_3987_22999)"/>
<g filter="url(#filter17_f_3987_22999)">
<path d="M15.9295 3.54736L14.5675 4.00145C14.3356 4.07876 14.2036 4.32288 14.266 4.55925C14.3255 4.7852 14.544 4.93146 14.7756 4.90045L16.1297 4.71914L15.9295 3.54736Z" fill="url(#paint46_linear_3987_22999)"/>
</g>
<g filter="url(#filter18_i_3987_22999)">
<path d="M16.3081 3.16977L16.498 3.26419C16.8303 3.42942 17.0202 3.80708 16.949 4.20835L16.6879 5.55378C16.6646 5.69273 16.5728 5.78624 16.4348 5.78971C16.4321 5.78978 16.4295 5.7898 16.4268 5.7898C16.4268 5.7898 16.4505 5.38853 16.4742 5.15249C16.4935 4.96082 16.4601 4.90235 16.2843 4.72762C16.1894 4.63321 16.1182 4.49158 16.1182 4.34996V3.97229C16.1182 3.85428 16.0232 3.75986 15.9282 3.73626C15.6434 3.66544 15.0499 3.54742 14.1953 3.54742C13.3407 3.54742 12.7472 3.66544 12.4623 3.73626C12.3436 3.75986 12.2724 3.85428 12.2724 3.97229V4.34996C12.2724 4.49158 12.2249 4.63321 12.1062 4.72762L12.035 4.79843C11.9401 4.86925 11.8926 5.01087 11.8926 5.12889C11.9163 5.38853 11.9401 5.7662 11.9401 5.7662C11.9328 5.7662 11.9255 5.76595 11.9184 5.76546C11.7857 5.75639 11.6777 5.66453 11.6552 5.53017L11.3941 4.18474C11.3466 3.80708 11.5365 3.42942 11.8688 3.26419L12.0588 3.16977C12.1775 3.09896 12.2961 3.00455 12.4148 2.91013L12.8422 2.46165C13.1033 2.22561 13.4831 2.1548 13.8155 2.32003C14.0528 2.39084 14.314 2.39084 14.5514 2.32003C14.9075 2.20201 15.311 2.29642 15.5959 2.55607L15.952 2.91013C16.0469 3.02815 16.1656 3.09896 16.3081 3.16977Z" fill="#4F3332"/>
<path d="M16.3081 3.16977L16.498 3.26419C16.8303 3.42942 17.0202 3.80708 16.949 4.20835L16.6879 5.55378C16.6646 5.69273 16.5728 5.78624 16.4348 5.78971C16.4321 5.78978 16.4295 5.7898 16.4268 5.7898C16.4268 5.7898 16.4505 5.38853 16.4742 5.15249C16.4935 4.96082 16.4601 4.90235 16.2843 4.72762C16.1894 4.63321 16.1182 4.49158 16.1182 4.34996V3.97229C16.1182 3.85428 16.0232 3.75986 15.9282 3.73626C15.6434 3.66544 15.0499 3.54742 14.1953 3.54742C13.3407 3.54742 12.7472 3.66544 12.4623 3.73626C12.3436 3.75986 12.2724 3.85428 12.2724 3.97229V4.34996C12.2724 4.49158 12.2249 4.63321 12.1062 4.72762L12.035 4.79843C11.9401 4.86925 11.8926 5.01087 11.8926 5.12889C11.9163 5.38853 11.9401 5.7662 11.9401 5.7662C11.9328 5.7662 11.9255 5.76595 11.9184 5.76546C11.7857 5.75639 11.6777 5.66453 11.6552 5.53017L11.3941 4.18474C11.3466 3.80708 11.5365 3.42942 11.8688 3.26419L12.0588 3.16977C12.1775 3.09896 12.2961 3.00455 12.4148 2.91013L12.8422 2.46165C13.1033 2.22561 13.4831 2.1548 13.8155 2.32003C14.0528 2.39084 14.314 2.39084 14.5514 2.32003C14.9075 2.20201 15.311 2.29642 15.5959 2.55607L15.952 2.91013C16.0469 3.02815 16.1656 3.09896 16.3081 3.16977Z" fill="url(#paint47_radial_3987_22999)"/>
<path d="M16.3081 3.16977L16.498 3.26419C16.8303 3.42942 17.0202 3.80708 16.949 4.20835L16.6879 5.55378C16.6646 5.69273 16.5728 5.78624 16.4348 5.78971C16.4321 5.78978 16.4295 5.7898 16.4268 5.7898C16.4268 5.7898 16.4505 5.38853 16.4742 5.15249C16.4935 4.96082 16.4601 4.90235 16.2843 4.72762C16.1894 4.63321 16.1182 4.49158 16.1182 4.34996V3.97229C16.1182 3.85428 16.0232 3.75986 15.9282 3.73626C15.6434 3.66544 15.0499 3.54742 14.1953 3.54742C13.3407 3.54742 12.7472 3.66544 12.4623 3.73626C12.3436 3.75986 12.2724 3.85428 12.2724 3.97229V4.34996C12.2724 4.49158 12.2249 4.63321 12.1062 4.72762L12.035 4.79843C11.9401 4.86925 11.8926 5.01087 11.8926 5.12889C11.9163 5.38853 11.9401 5.7662 11.9401 5.7662C11.9328 5.7662 11.9255 5.76595 11.9184 5.76546C11.7857 5.75639 11.6777 5.66453 11.6552 5.53017L11.3941 4.18474C11.3466 3.80708 11.5365 3.42942 11.8688 3.26419L12.0588 3.16977C12.1775 3.09896 12.2961 3.00455 12.4148 2.91013L12.8422 2.46165C13.1033 2.22561 13.4831 2.1548 13.8155 2.32003C14.0528 2.39084 14.314 2.39084 14.5514 2.32003C14.9075 2.20201 15.311 2.29642 15.5959 2.55607L15.952 2.91013C16.0469 3.02815 16.1656 3.09896 16.3081 3.16977Z" fill="url(#paint48_radial_3987_22999)"/>
<path d="M16.3081 3.16977L16.498 3.26419C16.8303 3.42942 17.0202 3.80708 16.949 4.20835L16.6879 5.55378C16.6646 5.69273 16.5728 5.78624 16.4348 5.78971C16.4321 5.78978 16.4295 5.7898 16.4268 5.7898C16.4268 5.7898 16.4505 5.38853 16.4742 5.15249C16.4935 4.96082 16.4601 4.90235 16.2843 4.72762C16.1894 4.63321 16.1182 4.49158 16.1182 4.34996V3.97229C16.1182 3.85428 16.0232 3.75986 15.9282 3.73626C15.6434 3.66544 15.0499 3.54742 14.1953 3.54742C13.3407 3.54742 12.7472 3.66544 12.4623 3.73626C12.3436 3.75986 12.2724 3.85428 12.2724 3.97229V4.34996C12.2724 4.49158 12.2249 4.63321 12.1062 4.72762L12.035 4.79843C11.9401 4.86925 11.8926 5.01087 11.8926 5.12889C11.9163 5.38853 11.9401 5.7662 11.9401 5.7662C11.9328 5.7662 11.9255 5.76595 11.9184 5.76546C11.7857 5.75639 11.6777 5.66453 11.6552 5.53017L11.3941 4.18474C11.3466 3.80708 11.5365 3.42942 11.8688 3.26419L12.0588 3.16977C12.1775 3.09896 12.2961 3.00455 12.4148 2.91013L12.8422 2.46165C13.1033 2.22561 13.4831 2.1548 13.8155 2.32003C14.0528 2.39084 14.314 2.39084 14.5514 2.32003C14.9075 2.20201 15.311 2.29642 15.5959 2.55607L15.952 2.91013C16.0469 3.02815 16.1656 3.09896 16.3081 3.16977Z" fill="url(#paint49_radial_3987_22999)"/>
<path d="M16.3081 3.16977L16.498 3.26419C16.8303 3.42942 17.0202 3.80708 16.949 4.20835L16.6879 5.55378C16.6646 5.69273 16.5728 5.78624 16.4348 5.78971C16.4321 5.78978 16.4295 5.7898 16.4268 5.7898C16.4268 5.7898 16.4505 5.38853 16.4742 5.15249C16.4935 4.96082 16.4601 4.90235 16.2843 4.72762C16.1894 4.63321 16.1182 4.49158 16.1182 4.34996V3.97229C16.1182 3.85428 16.0232 3.75986 15.9282 3.73626C15.6434 3.66544 15.0499 3.54742 14.1953 3.54742C13.3407 3.54742 12.7472 3.66544 12.4623 3.73626C12.3436 3.75986 12.2724 3.85428 12.2724 3.97229V4.34996C12.2724 4.49158 12.2249 4.63321 12.1062 4.72762L12.035 4.79843C11.9401 4.86925 11.8926 5.01087 11.8926 5.12889C11.9163 5.38853 11.9401 5.7662 11.9401 5.7662C11.9328 5.7662 11.9255 5.76595 11.9184 5.76546C11.7857 5.75639 11.6777 5.66453 11.6552 5.53017L11.3941 4.18474C11.3466 3.80708 11.5365 3.42942 11.8688 3.26419L12.0588 3.16977C12.1775 3.09896 12.2961 3.00455 12.4148 2.91013L12.8422 2.46165C13.1033 2.22561 13.4831 2.1548 13.8155 2.32003C14.0528 2.39084 14.314 2.39084 14.5514 2.32003C14.9075 2.20201 15.311 2.29642 15.5959 2.55607L15.952 2.91013C16.0469 3.02815 16.1656 3.09896 16.3081 3.16977Z" fill="url(#paint50_radial_3987_22999)"/>
</g>
<g filter="url(#filter19_f_3987_22999)">
<path d="M14.0537 5.98251L13.6906 6.73471C13.6456 6.88943 13.7536 7.04416 13.9066 7.04416H14.2329C14.3859 7.04416 14.4939 6.88705 14.4489 6.73471L14.2284 5.98251C14.1811 5.81589 14.1032 5.81589 14.0537 5.98251Z" fill="#87565C"/>
</g>
<g filter="url(#filter20_f_3987_22999)">
<path d="M14.0063 5.91037L13.7711 6.66256C13.7231 6.81729 13.8383 6.97201 14.0015 6.97201H14.3494C14.5126 6.97201 14.6278 6.81491 14.5798 6.66256L14.3446 5.91037C14.2942 5.74374 14.0591 5.74374 14.0063 5.91037Z" fill="#B7877D"/>
<path d="M14.0063 5.91037L13.7711 6.66256C13.7231 6.81729 13.8383 6.97201 14.0015 6.97201H14.3494C14.5126 6.97201 14.6278 6.81491 14.5798 6.66256L14.3446 5.91037C14.2942 5.74374 14.0591 5.74374 14.0063 5.91037Z" fill="url(#paint51_linear_3987_22999)"/>
<path d="M14.0063 5.91037L13.7711 6.66256C13.7231 6.81729 13.8383 6.97201 14.0015 6.97201H14.3494C14.5126 6.97201 14.6278 6.81491 14.5798 6.66256L14.3446 5.91037C14.2942 5.74374 14.0591 5.74374 14.0063 5.91037Z" fill="url(#paint52_linear_3987_22999)"/>
<path d="M14.0063 5.91037L13.7711 6.66256C13.7231 6.81729 13.8383 6.97201 14.0015 6.97201H14.3494C14.5126 6.97201 14.6278 6.81491 14.5798 6.66256L14.3446 5.91037C14.2942 5.74374 14.0591 5.74374 14.0063 5.91037Z" fill="url(#paint53_linear_3987_22999)"/>
<path d="M14.0063 5.91037L13.7711 6.66256C13.7231 6.81729 13.8383 6.97201 14.0015 6.97201H14.3494C14.5126 6.97201 14.6278 6.81491 14.5798 6.66256L14.3446 5.91037C14.2942 5.74374 14.0591 5.74374 14.0063 5.91037Z" fill="url(#paint54_radial_3987_22999)"/>
</g>
<path d="M14.9177 7.39664C14.9513 7.34624 14.9387 7.28972 14.9053 7.25505C14.8726 7.22102 14.8177 7.20559 14.7658 7.23196L14.7658 7.23195L14.7654 7.23219C14.5953 7.32083 14.3945 7.37185 14.1755 7.37185C13.9587 7.37185 13.7556 7.32081 13.5856 7.23219L13.5856 7.23219L13.5851 7.23196C13.5325 7.20523 13.4776 7.22216 13.4454 7.25613C13.4129 7.29033 13.3991 7.34695 13.4334 7.39697M14.9177 7.39664C14.9177 7.39668 14.9177 7.39671 14.9177 7.39674L14.8761 7.36901L14.9178 7.39654C14.9178 7.39658 14.9177 7.39661 14.9177 7.39664ZM14.9177 7.39664C14.7605 7.63479 14.4869 7.79332 14.1755 7.79332C13.8642 7.79332 13.5907 7.63494 13.4334 7.39697M13.4334 7.39697C13.4336 7.39715 13.4337 7.39732 13.4338 7.3975L13.4749 7.369M13.4334 7.39697C13.4333 7.39683 13.4332 7.39669 13.4332 7.39654L13.4749 7.369M13.4749 7.369C13.6231 7.59359 13.8813 7.74332 14.1755 7.74332C14.4696 7.74332 14.7279 7.59359 14.8761 7.369C14.9142 7.31176 14.8491 7.2457 14.7885 7.27653C14.6111 7.369 14.4023 7.42185 14.1755 7.42185C13.9509 7.42185 13.7398 7.369 13.5625 7.27653C13.5018 7.2457 13.4367 7.31396 13.4749 7.369Z" fill="#88024E" stroke="url(#paint55_linear_3987_22999)" stroke-width="0.1"/>
<g filter="url(#filter21_i_3987_22999)">
<path d="M15.8216 4.83282L15.821 4.83237L15.8202 4.83169L15.8182 4.83007L15.8129 4.82585C15.8088 4.82262 15.8035 4.81856 15.797 4.81382C15.7841 4.80435 15.7665 4.79211 15.7444 4.77827C15.7003 4.75067 15.6378 4.71628 15.5586 4.685C15.3997 4.62218 15.1729 4.57158 14.898 4.61498C14.7691 4.63532 14.6812 4.75627 14.7015 4.88512C14.7219 5.01397 14.8428 5.10193 14.9717 5.08159C15.1477 5.05379 15.2887 5.08625 15.3849 5.1243C15.4334 5.14345 15.4702 5.16394 15.4936 5.17861C15.5053 5.18591 15.5134 5.19165 15.5178 5.19489C15.5197 5.19623 15.5208 5.19713 15.5213 5.19751C15.6215 5.27919 15.769 5.26517 15.852 5.16562C15.9355 5.06541 15.9218 4.91633 15.8216 4.83282Z" fill="#4C3230"/>
<path d="M15.8216 4.83282L15.821 4.83237L15.8202 4.83169L15.8182 4.83007L15.8129 4.82585C15.8088 4.82262 15.8035 4.81856 15.797 4.81382C15.7841 4.80435 15.7665 4.79211 15.7444 4.77827C15.7003 4.75067 15.6378 4.71628 15.5586 4.685C15.3997 4.62218 15.1729 4.57158 14.898 4.61498C14.7691 4.63532 14.6812 4.75627 14.7015 4.88512C14.7219 5.01397 14.8428 5.10193 14.9717 5.08159C15.1477 5.05379 15.2887 5.08625 15.3849 5.1243C15.4334 5.14345 15.4702 5.16394 15.4936 5.17861C15.5053 5.18591 15.5134 5.19165 15.5178 5.19489C15.5197 5.19623 15.5208 5.19713 15.5213 5.19751C15.6215 5.27919 15.769 5.26517 15.852 5.16562C15.9355 5.06541 15.9218 4.91633 15.8216 4.83282Z" fill="url(#paint56_radial_3987_22999)"/>
</g>
<g filter="url(#filter22_i_3987_22999)">
<path d="M12.5053 4.83296L12.5056 4.83268L12.506 4.83237L12.5068 4.83169L12.5088 4.83007L12.5141 4.82585C12.5182 4.82262 12.5235 4.81856 12.53 4.81382C12.5429 4.80435 12.5606 4.79211 12.5827 4.77827C12.6267 4.75067 12.6893 4.71628 12.7684 4.685C12.9273 4.62218 13.1542 4.57158 13.429 4.61498C13.5579 4.63532 13.6458 4.75627 13.6255 4.88512C13.6051 5.01397 13.4842 5.10193 13.3554 5.08159C13.1793 5.05379 13.0383 5.08625 12.9421 5.1243C12.8937 5.14345 12.8568 5.16394 12.8334 5.17861C12.8218 5.18591 12.8136 5.19165 12.8092 5.19489C12.8074 5.19623 12.8062 5.19713 12.8057 5.19751C12.7055 5.27919 12.558 5.26517 12.475 5.16562C12.3915 5.06541 12.4051 4.91647 12.5053 4.83296Z" fill="#4C3230"/>
<path d="M12.5053 4.83296L12.5056 4.83268L12.506 4.83237L12.5068 4.83169L12.5088 4.83007L12.5141 4.82585C12.5182 4.82262 12.5235 4.81856 12.53 4.81382C12.5429 4.80435 12.5606 4.79211 12.5827 4.77827C12.6267 4.75067 12.6893 4.71628 12.7684 4.685C12.9273 4.62218 13.1542 4.57158 13.429 4.61498C13.5579 4.63532 13.6458 4.75627 13.6255 4.88512C13.6051 5.01397 13.4842 5.10193 13.3554 5.08159C13.1793 5.05379 13.0383 5.08625 12.9421 5.1243C12.8937 5.14345 12.8568 5.16394 12.8334 5.17861C12.8218 5.18591 12.8136 5.19165 12.8092 5.19489C12.8074 5.19623 12.8062 5.19713 12.8057 5.19751C12.7055 5.27919 12.558 5.26517 12.475 5.16562C12.3915 5.06541 12.4051 4.91647 12.5053 4.83296Z" fill="url(#paint57_radial_3987_22999)"/>
</g>
<path d="M15.2323 5.40344C15.5213 5.40344 15.7654 5.60268 15.8318 5.87191C15.8515 5.94909 15.7923 6.02269 15.7133 6.02269H14.7261C14.6633 6.02269 14.613 5.96525 14.6256 5.90243C14.6812 5.61883 14.9307 5.40344 15.2323 5.40344Z" fill="white"/>
<path d="M15.1407 5.52368C15.3597 5.52368 15.5356 5.70138 15.5356 5.91856C15.5356 5.95446 15.5302 5.99036 15.5212 6.02267H14.7584C14.7494 5.98856 14.744 5.95446 14.744 5.91856C14.744 5.70138 14.9217 5.52368 15.1407 5.52368Z" fill="url(#paint58_radial_3987_22999)"/>
<path d="M14.9147 5.91866C14.9147 5.79302 15.0152 5.6925 15.1408 5.6925C15.2665 5.6925 15.367 5.79302 15.367 5.91866C15.367 5.95636 15.358 5.99225 15.3419 6.02277H14.9416C14.9236 5.99225 14.9147 5.95636 14.9147 5.91866Z" fill="black"/>
<g filter="url(#filter23_f_3987_22999)">
<path d="M15.1118 5.60719C15.1399 5.64482 15.0811 5.69069 15.0143 5.74068C14.9474 5.79067 14.8978 5.82585 14.8697 5.78822C14.8415 5.7506 14.8729 5.67957 14.9398 5.62958C15.0067 5.57958 15.0837 5.56956 15.1118 5.60719Z" fill="#C7A7A3"/>
<path d="M15.1118 5.60719C15.1399 5.64482 15.0811 5.69069 15.0143 5.74068C14.9474 5.79067 14.8978 5.82585 14.8697 5.78822C14.8415 5.7506 14.8729 5.67957 14.9398 5.62958C15.0067 5.57958 15.0837 5.56956 15.1118 5.60719Z" fill="url(#paint59_radial_3987_22999)"/>
</g>
<g filter="url(#filter24_f_3987_22999)">
<path d="M15.4924 5.8666C15.4778 5.76451 15.4181 5.68757 15.39 5.66187L15.275 5.78807L15.3269 5.88903L15.4924 5.8666Z" fill="url(#paint60_linear_3987_22999)"/>
</g>
<path d="M13.1164 5.40344C12.8274 5.40344 12.5833 5.60269 12.5169 5.87194C12.4971 5.94912 12.5564 6.02272 12.6354 6.02272H13.6226C13.6854 6.02272 13.7357 5.96528 13.7231 5.90245C13.6675 5.61884 13.4162 5.40344 13.1164 5.40344Z" fill="white"/>
<path d="M13.208 5.52368C12.989 5.52368 12.8131 5.70139 12.8131 5.91858C12.8131 5.95448 12.8185 5.99038 12.8275 6.02269H13.5903C13.5993 5.98859 13.6047 5.95448 13.6047 5.91858C13.6029 5.70139 13.427 5.52368 13.208 5.52368Z" fill="url(#paint61_radial_3987_22999)"/>
<path d="M13.4342 5.91855C13.4342 5.7929 13.3336 5.69238 13.208 5.69238C13.0823 5.69238 12.9818 5.7929 12.9818 5.91855C12.9818 5.95625 12.9908 5.99215 13.0069 6.02266H13.4072C13.4234 5.99215 13.4342 5.95625 13.4342 5.91855Z" fill="black"/>
<g filter="url(#filter25_f_3987_22999)">
<path d="M13.5686 5.87219C13.5686 5.74457 13.4649 5.6595 13.4368 5.63379L13.3092 5.7572L13.3877 5.91706L13.5686 5.87219Z" fill="url(#paint62_linear_3987_22999)"/>
</g>
<g filter="url(#filter26_f_3987_22999)">
<ellipse cx="13.0888" cy="5.69244" rx="0.172395" ry="0.0872477" transform="rotate(-27.914 13.0888 5.69244)" fill="#C7A7A3" fill-opacity="0.9"/>
<ellipse cx="13.0888" cy="5.69244" rx="0.172395" ry="0.0872477" transform="rotate(-27.914 13.0888 5.69244)" fill="url(#paint63_radial_3987_22999)"/>
</g>
<g filter="url(#filter27_f_3987_22999)">
<path d="M14.9105 4.76886C15.1009 4.73555 15.472 4.74507 15.729 4.94494" stroke="url(#paint64_linear_3987_22999)" stroke-width="0.1" stroke-linecap="round"/>
</g>
<g filter="url(#filter28_f_3987_22999)">
<path d="M12.6004 4.99837C12.7451 4.8704 13.0613 4.73566 13.4533 4.79813" stroke="url(#paint65_linear_3987_22999)" stroke-width="0.1" stroke-linecap="round"/>
</g>
<g filter="url(#filter29_f_3987_22999)">
<path d="M12.1693 3.90735V4.30457C12.1658 4.37035 12.1381 4.51747 12.0551 4.57978" stroke="url(#paint66_linear_3987_22999)" stroke-width="0.25" stroke-linecap="round"/>
</g>
<defs>
<filter id="filter0_i_3987_22999" x="6.01624" y="16.3616" width="23.9766" height="13.3975" filterUnits="userSpaceOnUse" color-interpolation-filters="sRGB">
<feFlood flood-opacity="0" result="BackgroundImageFix"/>
<feBlend mode="normal" in="SourceGraphic" in2="BackgroundImageFix" result="shape"/>
<feColorMatrix in="SourceAlpha" type="matrix" values="0 0 0 0 0 0 0 0 0 0 0 0 0 0 0 0 0 0 127 0" result="hardAlpha"/>
<feOffset dy="-0.5"/>
<feGaussianBlur stdDeviation="0.5"/>
<feComposite in2="hardAlpha" operator="arithmetic" k2="-1" k3="1"/>
<feColorMatrix type="matrix" values="0 0 0 0 0.25098 0 0 0 0 0.729412 0 0 0 0 1 0 0 0 1 0"/>
<feBlend mode="normal" in2="shape" result="effect1_innerShadow_3987_22999"/>
</filter>
<filter id="filter1_f_3987_22999" x="6.10999" y="20.2505" width="20.6809" height="10.082" filterUnits="userSpaceOnUse" color-interpolation-filters="sRGB">
<feFlood flood-opacity="0" result="BackgroundImageFix"/>
<feBlend mode="normal" in="SourceGraphic" in2="BackgroundImageFix" result="shape"/>
<feGaussianBlur stdDeviation="0.75" result="effect1_foregroundBlur_3987_22999"/>
</filter>
<filter id="filter2_i_3987_22999" x="2.0072" y="21.1265" width="24.3443" height="8.64355" filterUnits="userSpaceOnUse" color-interpolation-filters="sRGB">
<feFlood flood-opacity="0" result="BackgroundImageFix"/>
<feBlend mode="normal" in="SourceGraphic" in2="BackgroundImageFix" result="shape"/>
<feColorMatrix in="SourceAlpha" type="matrix" values="0 0 0 0 0 0 0 0 0 0 0 0 0 0 0 0 0 0 127 0" result="hardAlpha"/>
<feOffset/>
<feGaussianBlur stdDeviation="0.25"/>
<feComposite in2="hardAlpha" operator="arithmetic" k2="-1" k3="1"/>
<feColorMatrix type="matrix" values="0 0 0 0 0.490196 0 0 0 0 0.415686 0 0 0 0 0.839216 0 0 0 1 0"/>
<feBlend mode="normal" in2="shape" result="effect1_innerShadow_3987_22999"/>
</filter>
<filter id="filter3_i_3987_22999" x="24.5709" y="13.3691" width="2.68594" height="2.68594" filterUnits="userSpaceOnUse" color-interpolation-filters="sRGB">
<feFlood flood-opacity="0" result="BackgroundImageFix"/>
<feBlend mode="normal" in="SourceGraphic" in2="BackgroundImageFix" result="shape"/>
<feColorMatrix in="SourceAlpha" type="matrix" values="0 0 0 0 0 0 0 0 0 0 0 0 0 0 0 0 0 0 127 0" result="hardAlpha"/>
<feOffset dx="0.1" dy="-0.1"/>
<feGaussianBlur stdDeviation="0.3"/>
<feComposite in2="hardAlpha" operator="arithmetic" k2="-1" k3="1"/>
<feColorMatrix type="matrix" values="0 0 0 0 0.290196 0 0 0 0 0.619608 0 0 0 0 0.952941 0 0 0 1 0"/>
<feBlend mode="normal" in2="shape" result="effect1_innerShadow_3987_22999"/>
</filter>
<filter id="filter4_i_3987_22999" x="27.8209" y="11.6699" width="2.18594" height="2.18594" filterUnits="userSpaceOnUse" color-interpolation-filters="sRGB">
<feFlood flood-opacity="0" result="BackgroundImageFix"/>
<feBlend mode="normal" in="SourceGraphic" in2="BackgroundImageFix" result="shape"/>
<feColorMatrix in="SourceAlpha" type="matrix" values="0 0 0 0 0 0 0 0 0 0 0 0 0 0 0 0 0 0 127 0" result="hardAlpha"/>
<feOffset dx="0.1" dy="-0.1"/>
<feGaussianBlur stdDeviation="0.3"/>
<feComposite in2="hardAlpha" operator="arithmetic" k2="-1" k3="1"/>
<feColorMatrix type="matrix" values="0 0 0 0 0.290196 0 0 0 0 0.619608 0 0 0 0 0.952941 0 0 0 1 0"/>
<feBlend mode="normal" in2="shape" result="effect1_innerShadow_3987_22999"/>
</filter>
<filter id="filter5_i_3987_22999" x="25.9459" y="9.71287" width="1.92813" height="1.92813" filterUnits="userSpaceOnUse" color-interpolation-filters="sRGB">
<feFlood flood-opacity="0" result="BackgroundImageFix"/>
<feBlend mode="normal" in="SourceGraphic" in2="BackgroundImageFix" result="shape"/>
<feColorMatrix in="SourceAlpha" type="matrix" values="0 0 0 0 0 0 0 0 0 0 0 0 0 0 0 0 0 0 127 0" result="hardAlpha"/>
<feOffset dx="0.1" dy="-0.1"/>
<feGaussianBlur stdDeviation="0.225"/>
<feComposite in2="hardAlpha" operator="arithmetic" k2="-1" k3="1"/>
<feColorMatrix type="matrix" values="0 0 0 0 0.290196 0 0 0 0 0.619608 0 0 0 0 0.952941 0 0 0 1 0"/>
<feBlend mode="normal" in2="shape" result="effect1_innerShadow_3987_22999"/>
</filter>
<filter id="filter6_i_3987_22999" x="20.5321" y="12.1371" width="2.85715" height="2.89844" filterUnits="userSpaceOnUse" color-interpolation-filters="sRGB">
<feFlood flood-opacity="0" result="BackgroundImageFix"/>
<feBlend mode="normal" in="SourceGraphic" in2="BackgroundImageFix" result="shape"/>
<feColorMatrix in="SourceAlpha" type="matrix" values="0 0 0 0 0 0 0 0 0 0 0 0 0 0 0 0 0 0 127 0" result="hardAlpha"/>
<feOffset dx="0.25" dy="-0.25"/>
<feGaussianBlur stdDeviation="0.5"/>
<feComposite in2="hardAlpha" operator="arithmetic" k2="-1" k3="1"/>
<feColorMatrix type="matrix" values="0 0 0 0 0.592157 0 0 0 0 0.34902 0 0 0 0 0.313726 0 0 0 1 0"/>
<feBlend mode="normal" in2="shape" result="effect1_innerShadow_3987_22999"/>
</filter>
<filter id="filter7_i_3987_22999" x="7.77322" y="7.83396" width="5.57114" height="6.95156" filterUnits="userSpaceOnUse" color-interpolation-filters="sRGB">
<feFlood flood-opacity="0" result="BackgroundImageFix"/>
<feBlend mode="normal" in="SourceGraphic" in2="BackgroundImageFix" result="shape"/>
<feColorMatrix in="SourceAlpha" type="matrix" values="0 0 0 0 0 0 0 0 0 0 0 0 0 0 0 0 0 0 127 0" result="hardAlpha"/>
<feOffset dx="-0.15" dy="-0.6"/>
<feGaussianBlur stdDeviation="0.3"/>
<feComposite in2="hardAlpha" operator="arithmetic" k2="-1" k3="1"/>
<feColorMatrix type="matrix" values="0 0 0 0 0.156863 0 0 0 0 0.396078 0 0 0 0 0.768627 0 0 0 1 0"/>
<feBlend mode="normal" in2="shape" result="effect1_innerShadow_3987_22999"/>
</filter>
<filter id="filter8_i_3987_22999" x="8.42664" y="7.60583" width="14.9698" height="18.1526" filterUnits="userSpaceOnUse" color-interpolation-filters="sRGB">
<feFlood flood-opacity="0" result="BackgroundImageFix"/>
<feBlend mode="normal" in="SourceGraphic" in2="BackgroundImageFix" result="shape"/>
<feColorMatrix in="SourceAlpha" type="matrix" values="0 0 0 0 0 0 0 0 0 0 0 0 0 0 0 0 0 0 127 0" result="hardAlpha"/>
<feOffset dx="0.25" dy="0.2"/>
<feGaussianBlur stdDeviation="0.15"/>
<feComposite in2="hardAlpha" operator="arithmetic" k2="-1" k3="1"/>
<feColorMatrix type="matrix" values="0 0 0 0 0.270588 0 0 0 0 0.537255 0 0 0 0 0.8 0 0 0 1 0"/>
<feBlend mode="normal" in2="shape" result="effect1_innerShadow_3987_22999"/>
</filter>
<filter id="filter9_f_3987_22999" x="13.5787" y="15.8513" width="17.7373" height="14.7997" filterUnits="userSpaceOnUse" color-interpolation-filters="sRGB">
<feFlood flood-opacity="0" result="BackgroundImageFix"/>
<feBlend mode="normal" in="SourceGraphic" in2="BackgroundImageFix" result="shape"/>
<feGaussianBlur stdDeviation="1" result="effect1_foregroundBlur_3987_22999"/>
</filter>
<filter id="filter10_f_3987_22999" x="14.5724" y="7.4104" width="6.50629" height="14.7504" filterUnits="userSpaceOnUse" color-interpolation-filters="sRGB">
<feFlood flood-opacity="0" result="BackgroundImageFix"/>
<feBlend mode="normal" in="SourceGraphic" in2="BackgroundImageFix" result="shape"/>
<feGaussianBlur stdDeviation="0.375" result="effect1_foregroundBlur_3987_22999"/>
</filter>
<filter id="filter11_f_3987_22999" x="17.9909" y="7.48527" width="5.50643" height="5.42083" filterUnits="userSpaceOnUse" color-interpolation-filters="sRGB">
<feFlood flood-opacity="0" result="BackgroundImageFix"/>
<feBlend mode="normal" in="SourceGraphic" in2="BackgroundImageFix" result="shape"/>
<feGaussianBlur stdDeviation="0.3" result="effect1_foregroundBlur_3987_22999"/>
</filter>
<filter id="filter12_i_3987_22999" x="11.3353" y="5.29773" width="1.67769" height="1.47772" filterUnits="userSpaceOnUse" color-interpolation-filters="sRGB">
<feFlood flood-opacity="0" result="BackgroundImageFix"/>
<feBlend mode="normal" in="SourceGraphic" in2="BackgroundImageFix" result="shape"/>
<feColorMatrix in="SourceAlpha" type="matrix" values="0 0 0 0 0 0 0 0 0 0 0 0 0 0 0 0 0 0 127 0" result="hardAlpha"/>
<feOffset dx="0.2"/>
<feGaussianBlur stdDeviation="0.15"/>
<feComposite in2="hardAlpha" operator="arithmetic" k2="-1" k3="1"/>
<feColorMatrix type="matrix" values="0 0 0 0 0.619608 0 0 0 0 0.470588 0 0 0 0 0.407843 0 0 0 1 0"/>
<feBlend mode="normal" in2="shape" result="effect1_innerShadow_3987_22999"/>
</filter>
<filter id="filter13_f_3987_22999" x="11.1339" y="5.09631" width="1.88068" height="1.88068" filterUnits="userSpaceOnUse" color-interpolation-filters="sRGB">
<feFlood flood-opacity="0" result="BackgroundImageFix"/>
<feBlend mode="normal" in="SourceGraphic" in2="BackgroundImageFix" result="shape"/>
<feGaussianBlur stdDeviation="0.25" result="effect1_foregroundBlur_3987_22999"/>
</filter>
<filter id="filter14_i_3987_22999" x="15.5455" y="5.04773" width="1.72769" height="1.72772" filterUnits="userSpaceOnUse" color-interpolation-filters="sRGB">
<feFlood flood-opacity="0" result="BackgroundImageFix"/>
<feBlend mode="normal" in="SourceGraphic" in2="BackgroundImageFix" result="shape"/>
<feColorMatrix in="SourceAlpha" type="matrix" values="0 0 0 0 0 0 0 0 0 0 0 0 0 0 0 0 0 0 127 0" result="hardAlpha"/>
<feOffset dx="0.25" dy="-0.25"/>
<feGaussianBlur stdDeviation="0.25"/>
<feComposite in2="hardAlpha" operator="arithmetic" k2="-1" k3="1"/>
<feColorMatrix type="matrix" values="0 0 0 0 0.584314 0 0 0 0 0.368627 0 0 0 0 0.470588 0 0 0 1 0"/>
<feBlend mode="normal" in2="shape" result="effect1_innerShadow_3987_22999"/>
</filter>
<filter id="filter15_f_3987_22999" x="15.3441" y="5.09631" width="1.88068" height="1.88068" filterUnits="userSpaceOnUse" color-interpolation-filters="sRGB">
<feFlood flood-opacity="0" result="BackgroundImageFix"/>
<feBlend mode="normal" in="SourceGraphic" in2="BackgroundImageFix" result="shape"/>
<feGaussianBlur stdDeviation="0.25" result="effect1_foregroundBlur_3987_22999"/>
</filter>
<filter id="filter16_i_3987_22999" x="11.8927" y="3.49736" width="4.59106" height="5.37318" filterUnits="userSpaceOnUse" color-interpolation-filters="sRGB">
<feFlood flood-opacity="0" result="BackgroundImageFix"/>
<feBlend mode="normal" in="SourceGraphic" in2="BackgroundImageFix" result="shape"/>
<feColorMatrix in="SourceAlpha" type="matrix" values="0 0 0 0 0 0 0 0 0 0 0 0 0 0 0 0 0 0 127 0" result="hardAlpha"/>
<feOffset dy="-0.05"/>
<feGaussianBlur stdDeviation="0.075"/>
<feComposite in2="hardAlpha" operator="arithmetic" k2="-1" k3="1"/>
<feColorMatrix type="matrix" values="0 0 0 0 0.305882 0 0 0 0 0.2 0 0 0 0 0.172549 0 0 0 1 0"/>
<feBlend mode="normal" in2="shape" result="effect1_innerShadow_3987_22999"/>
</filter>
<filter id="filter17_f_3987_22999" x="13.2505" y="2.54736" width="3.87921" height="3.35718" filterUnits="userSpaceOnUse" color-interpolation-filters="sRGB">
<feFlood flood-opacity="0" result="BackgroundImageFix"/>
<feBlend mode="normal" in="SourceGraphic" in2="BackgroundImageFix" result="shape"/>
<feGaussianBlur stdDeviation="0.5" result="effect1_foregroundBlur_3987_22999"/>
</filter>
<filter id="filter18_i_3987_22999" x="11.3868" y="2.12998" width="5.57709" height="3.65981" filterUnits="userSpaceOnUse" color-interpolation-filters="sRGB">
<feFlood flood-opacity="0" result="BackgroundImageFix"/>
<feBlend mode="normal" in="SourceGraphic" in2="BackgroundImageFix" result="shape"/>
<feColorMatrix in="SourceAlpha" type="matrix" values="0 0 0 0 0 0 0 0 0 0 0 0 0 0 0 0 0 0 127 0" result="hardAlpha"/>
<feOffset dy="-0.1"/>
<feGaussianBlur stdDeviation="0.1"/>
<feComposite in2="hardAlpha" operator="arithmetic" k2="-1" k3="1"/>
<feColorMatrix type="matrix" values="0 0 0 0 0.207843 0 0 0 0 0.109804 0 0 0 0 0.109804 0 0 0 1 0"/>
<feBlend mode="normal" in2="shape" result="effect1_innerShadow_3987_22999"/>
</filter>
<filter id="filter19_f_3987_22999" x="12.9303" y="5.10754" width="2.2789" height="2.68658" filterUnits="userSpaceOnUse" color-interpolation-filters="sRGB">
<feFlood flood-opacity="0" result="BackgroundImageFix"/>
<feBlend mode="normal" in="SourceGraphic" in2="BackgroundImageFix" result="shape"/>
<feGaussianBlur stdDeviation="0.375" result="effect1_foregroundBlur_3987_22999"/>
</filter>
<filter id="filter20_f_3987_22999" x="13.6601" y="5.6854" width="1.03063" height="1.38658" filterUnits="userSpaceOnUse" color-interpolation-filters="sRGB">
<feFlood flood-opacity="0" result="BackgroundImageFix"/>
<feBlend mode="normal" in="SourceGraphic" in2="BackgroundImageFix" result="shape"/>
<feGaussianBlur stdDeviation="0.05" result="effect1_foregroundBlur_3987_22999"/>
</filter>
<filter id="filter21_i_3987_22999" x="14.6986" y="4.19875" width="1.45807" height="1.05186" filterUnits="userSpaceOnUse" color-interpolation-filters="sRGB">
<feFlood flood-opacity="0" result="BackgroundImageFix"/>
<feBlend mode="normal" in="SourceGraphic" in2="BackgroundImageFix" result="shape"/>
<feColorMatrix in="SourceAlpha" type="matrix" values="0 0 0 0 0 0 0 0 0 0 0 0 0 0 0 0 0 0 127 0" result="hardAlpha"/>
<feOffset dx="0.25" dy="-0.4"/>
<feGaussianBlur stdDeviation="0.3"/>
<feComposite in2="hardAlpha" operator="arithmetic" k2="-1" k3="1"/>
<feColorMatrix type="matrix" values="0 0 0 0 0.254902 0 0 0 0 0.156863 0 0 0 0 0.152941 0 0 0 1 0"/>
<feBlend mode="normal" in2="shape" result="effect1_innerShadow_3987_22999"/>
</filter>
<filter id="filter22_i_3987_22999" x="12.4203" y="4.19875" width="1.45813" height="1.05186" filterUnits="userSpaceOnUse" color-interpolation-filters="sRGB">
<feFlood flood-opacity="0" result="BackgroundImageFix"/>
<feBlend mode="normal" in="SourceGraphic" in2="BackgroundImageFix" result="shape"/>
<feColorMatrix in="SourceAlpha" type="matrix" values="0 0 0 0 0 0 0 0 0 0 0 0 0 0 0 0 0 0 127 0" result="hardAlpha"/>
<feOffset dx="0.25" dy="-0.4"/>
<feGaussianBlur stdDeviation="0.3"/>
<feComposite in2="hardAlpha" operator="arithmetic" k2="-1" k3="1"/>
<feColorMatrix type="matrix" values="0 0 0 0 0.254902 0 0 0 0 0.156863 0 0 0 0 0.152941 0 0 0 1 0"/>
<feBlend mode="normal" in2="shape" result="effect1_innerShadow_3987_22999"/>
</filter>
<filter id="filter23_f_3987_22999" x="14.7593" y="5.48441" width="0.459674" height="0.419604" filterUnits="userSpaceOnUse" color-interpolation-filters="sRGB">
<feFlood flood-opacity="0" result="BackgroundImageFix"/>
<feBlend mode="normal" in="SourceGraphic" in2="BackgroundImageFix" result="shape"/>
<feGaussianBlur stdDeviation="0.05" result="effect1_foregroundBlur_3987_22999"/>
</filter>
<filter id="filter24_f_3987_22999" x="15.075" y="5.46187" width="0.617346" height="0.627173" filterUnits="userSpaceOnUse" color-interpolation-filters="sRGB">
<feFlood flood-opacity="0" result="BackgroundImageFix"/>
<feBlend mode="normal" in="SourceGraphic" in2="BackgroundImageFix" result="shape"/>
<feGaussianBlur stdDeviation="0.1" result="effect1_foregroundBlur_3987_22999"/>
</filter>
<filter id="filter25_f_3987_22999" x="13.1092" y="5.43379" width="0.65943" height="0.683264" filterUnits="userSpaceOnUse" color-interpolation-filters="sRGB">
<feFlood flood-opacity="0" result="BackgroundImageFix"/>
<feBlend mode="normal" in="SourceGraphic" in2="BackgroundImageFix" result="shape"/>
<feGaussianBlur stdDeviation="0.1" result="effect1_foregroundBlur_3987_22999"/>
</filter>
<filter id="filter26_f_3987_22999" x="12.8311" y="5.48081" width="0.515521" height="0.423267" filterUnits="userSpaceOnUse" color-interpolation-filters="sRGB">
<feFlood flood-opacity="0" result="BackgroundImageFix"/>
<feBlend mode="normal" in="SourceGraphic" in2="BackgroundImageFix" result="shape"/>
<feGaussianBlur stdDeviation="0.05" result="effect1_foregroundBlur_3987_22999"/>
</filter>
<filter id="filter27_f_3987_22999" x="14.7105" y="4.5541" width="1.21852" height="0.590894" filterUnits="userSpaceOnUse" color-interpolation-filters="sRGB">
<feFlood flood-opacity="0" result="BackgroundImageFix"/>
<feBlend mode="normal" in="SourceGraphic" in2="BackgroundImageFix" result="shape"/>
<feGaussianBlur stdDeviation="0.075" result="effect1_foregroundBlur_3987_22999"/>
</filter>
<filter id="filter28_f_3987_22999" x="12.4004" y="4.5823" width="1.25291" height="0.616101" filterUnits="userSpaceOnUse" color-interpolation-filters="sRGB">
<feFlood flood-opacity="0" result="BackgroundImageFix"/>
<feBlend mode="normal" in="SourceGraphic" in2="BackgroundImageFix" result="shape"/>
<feGaussianBlur stdDeviation="0.075" result="effect1_foregroundBlur_3987_22999"/>
</filter>
<filter id="filter29_f_3987_22999" x="11.6801" y="3.53235" width="0.864227" height="1.42249" filterUnits="userSpaceOnUse" color-interpolation-filters="sRGB">
<feFlood flood-opacity="0" result="BackgroundImageFix"/>
<feBlend mode="normal" in="SourceGraphic" in2="BackgroundImageFix" result="shape"/>
<feGaussianBlur stdDeviation="0.125" result="effect1_foregroundBlur_3987_22999"/>
</filter>
<linearGradient id="paint0_linear_3987_22999" x1="7.17249" y1="29.3637" x2="16.735" y2="29.3637" gradientUnits="userSpaceOnUse">
<stop stop-color="#2D7CF2"/>
<stop offset="1" stop-color="#2D7CF2" stop-opacity="0"/>
</linearGradient>
<radialGradient id="paint1_radial_3987_22999" cx="0" cy="0" r="1" gradientUnits="userSpaceOnUse" gradientTransform="translate(20.985 21.77) rotate(63.8028) scale(8.70687 12.5694)">
<stop offset="0.699635" stop-color="#3EB9FF" stop-opacity="0"/>
<stop offset="0.912945" stop-color="#7196FF"/>
</radialGradient>
<linearGradient id="paint2_linear_3987_22999" x1="16.86" y1="30.27" x2="16.7662" y2="28.645" gradientUnits="userSpaceOnUse">
<stop offset="0.177664" stop-color="#7F8FFF"/>
<stop offset="1" stop-color="#7F8FFF" stop-opacity="0"/>
</linearGradient>
<radialGradient id="paint3_radial_3987_22999" cx="0" cy="0" r="1" gradientUnits="userSpaceOnUse" gradientTransform="translate(22.2037 21.9262) rotate(-59.8163) scale(7.08569 4.41477)">
<stop stop-color="#4DB5E2"/>
<stop offset="1" stop-color="#4DB5E2" stop-opacity="0"/>
</radialGradient>
<radialGradient id="paint4_radial_3987_22999" cx="0" cy="0" r="1" gradientUnits="userSpaceOnUse" gradientTransform="translate(23.61 28.77) rotate(-79.9162) scale(12.3152 23.5278)">
<stop offset="0.930601" stop-color="#66B4DD" stop-opacity="0"/>
<stop offset="1" stop-color="#66B4DD"/>
</radialGradient>
<radialGradient id="paint5_radial_3987_22999" cx="0" cy="0" r="1" gradientUnits="userSpaceOnUse" gradientTransform="translate(16.1692 25.2075) rotate(71.9932) scale(3.54882 17.4764)">
<stop offset="0.715914" stop-color="#37A9FF" stop-opacity="0"/>
<stop offset="1" stop-color="#37A9FF"/>
</radialGradient>
<radialGradient id="paint6_radial_3987_22999" cx="0" cy="0" r="1" gradientUnits="userSpaceOnUse" gradientTransform="translate(9.76116 25.1404) rotate(108.435) scale(2.64749 0.681344)">
<stop stop-color="#BA917F"/>
<stop offset="1" stop-color="#BA917F" stop-opacity="0"/>
</radialGradient>
<linearGradient id="paint7_linear_3987_22999" x1="21.1725" y1="21.9261" x2="19.4694" y2="23.0121" gradientUnits="userSpaceOnUse">
<stop stop-color="#C5A18A"/>
<stop offset="1" stop-color="#82574C"/>
</linearGradient>
<linearGradient id="paint8_linear_3987_22999" x1="22.0945" y1="24.8324" x2="23.3287" y2="26.1136" gradientUnits="userSpaceOnUse">
<stop stop-color="#B041AB"/>
<stop offset="1" stop-color="#9157C5"/>
</linearGradient>
<radialGradient id="paint9_radial_3987_22999" cx="0" cy="0" r="1" gradientUnits="userSpaceOnUse" gradientTransform="translate(23.5787 25.473) rotate(-119.67) scale(1.48357 0.494264)">
<stop stop-color="#B77DC7"/>
<stop offset="1" stop-color="#B77DC7" stop-opacity="0"/>
</radialGradient>
<linearGradient id="paint10_linear_3987_22999" x1="5.89124" y1="29.2388" x2="25.735" y2="22.3325" gradientUnits="userSpaceOnUse">
<stop stop-color="#F54696"/>
<stop offset="1" stop-color="#84A6E9"/>
</linearGradient>
<radialGradient id="paint11_radial_3987_22999" cx="0" cy="0" r="1" gradientUnits="userSpaceOnUse" gradientTransform="translate(25.2037 23.27) rotate(-110.045) scale(2.46162 1.62421)">
<stop stop-color="#9EAEF5"/>
<stop offset="1" stop-color="#9EAEF5" stop-opacity="0"/>
</radialGradient>
<radialGradient id="paint12_radial_3987_22999" cx="0" cy="0" r="1" gradientUnits="userSpaceOnUse" gradientTransform="translate(26.7037 14.2855) rotate(146.686) scale(2.36974 1.91739)">
<stop offset="0.171296" stop-color="#64DDFF"/>
<stop offset="1" stop-color="#36B0FC"/>
</radialGradient>
<radialGradient id="paint13_radial_3987_22999" cx="0" cy="0" r="1" gradientUnits="userSpaceOnUse" gradientTransform="translate(29.42 12.5558) rotate(147.995) scale(1.74065 1.40839)">
<stop stop-color="#65E0FF"/>
<stop offset="1" stop-color="#36B0FC"/>
</radialGradient>
<radialGradient id="paint14_radial_3987_22999" cx="0" cy="0" r="1" gradientUnits="userSpaceOnUse" gradientTransform="translate(27.3474 10.5016) rotate(147.995) scale(1.52552 1.23432)">
<stop stop-color="#65E0FF"/>
<stop offset="1" stop-color="#36B0FC"/>
</radialGradient>
<radialGradient id="paint15_radial_3987_22999" cx="0" cy="0" r="1" gradientUnits="userSpaceOnUse" gradientTransform="translate(21.0243 13.1079) rotate(94.9521) scale(0.734733 0.562046)">
<stop offset="0.316525" stop-color="#94625A"/>
<stop offset="1" stop-color="#8D5050"/>
</radialGradient>
<radialGradient id="paint16_radial_3987_22999" cx="0" cy="0" r="1" gradientUnits="userSpaceOnUse" gradientTransform="translate(23.2975 13.2074) rotate(139.295) scale(2.80315 2.75944)">
<stop stop-color="#C9A38E"/>
<stop offset="1" stop-color="#A1706F"/>
</radialGradient>
<radialGradient id="paint17_radial_3987_22999" cx="0" cy="0" r="1" gradientUnits="userSpaceOnUse" gradientTransform="translate(12.9225 9.05115) rotate(142.524) scale(4.72526 1.21438)">
<stop offset="0.262684" stop-color="#5391BE"/>
<stop offset="1" stop-color="#5391BE" stop-opacity="0"/>
</radialGradient>
<radialGradient id="paint18_radial_3987_22999" cx="0" cy="0" r="1" gradientUnits="userSpaceOnUse" gradientTransform="translate(13.1412 10.7386) rotate(103.462) scale(4.16121 1.35388)">
<stop stop-color="#1154B9"/>
<stop offset="1" stop-color="#1154B9" stop-opacity="0"/>
</radialGradient>
<linearGradient id="paint19_linear_3987_22999" x1="15.7766" y1="7.60583" x2="15.7766" y2="25.5668" gradientUnits="userSpaceOnUse">
<stop stop-color="#3794E2"/>
<stop offset="1" stop-color="#3066BF"/>
</linearGradient>
<radialGradient id="paint20_radial_3987_22999" cx="0" cy="0" r="1" gradientUnits="userSpaceOnUse" gradientTransform="translate(11.3287 24.4261) rotate(-58.1134) scale(7.98644 0.632664)">
<stop stop-color="#2B68B8"/>
<stop offset="1" stop-color="#2B68B8" stop-opacity="0"/>
</radialGradient>
<radialGradient id="paint21_radial_3987_22999" cx="0" cy="0" r="1" gradientUnits="userSpaceOnUse" gradientTransform="translate(13.7762 7.60583) rotate(90) scale(1.49191 2.04898)">
<stop offset="0.183779" stop-color="#3168C8"/>
<stop offset="1" stop-color="#3168C8" stop-opacity="0"/>
</radialGradient>
<radialGradient id="paint22_radial_3987_22999" cx="0" cy="0" r="1" gradientUnits="userSpaceOnUse" gradientTransform="translate(17.3387 21.2384) rotate(-30.9607) scale(1.60973 5.99952)">
<stop offset="0.256007" stop-color="#4861AB"/>
<stop offset="1" stop-color="#4861AB" stop-opacity="0"/>
</radialGradient>
<linearGradient id="paint23_linear_3987_22999" x1="23.6512" y1="12.5025" x2="16.5175" y2="8.54855" gradientUnits="userSpaceOnUse">
<stop stop-color="#46A5EF"/>
<stop offset="0.910063" stop-color="#418DD5"/>
</linearGradient>
<radialGradient id="paint24_radial_3987_22999" cx="0" cy="0" r="1" gradientUnits="userSpaceOnUse" gradientTransform="translate(18.61 10.7531) rotate(24.5654) scale(3.91087 2.24819)">
<stop offset="0.316958" stop-color="#2965CE"/>
<stop offset="0.9999" stop-color="#2965CE" stop-opacity="0"/>
<stop offset="1" stop-color="#815ECD" stop-opacity="0"/>
</radialGradient>
<radialGradient id="paint25_radial_3987_22999" cx="0" cy="0" r="1" gradientUnits="userSpaceOnUse" gradientTransform="translate(5.36462 13.794) rotate(-139.897) scale(1.34825 1.69882)">
<stop offset="0.32144" stop-color="#9B686D"/>
<stop offset="0.769429" stop-color="#9B686D" stop-opacity="0"/>
</radialGradient>
<radialGradient id="paint26_radial_3987_22999" cx="0" cy="0" r="1" gradientUnits="userSpaceOnUse" gradientTransform="translate(5.77065 14.6898) rotate(-142.859) scale(1.5604 2.20716)">
<stop offset="0.32144" stop-color="#9B686D"/>
<stop offset="0.769429" stop-color="#9B686D" stop-opacity="0"/>
</radialGradient>
<radialGradient id="paint27_radial_3987_22999" cx="0" cy="0" r="1" gradientUnits="userSpaceOnUse" gradientTransform="translate(5.59849 15.2556) rotate(-140.396) scale(1.59652 2.30445)">
<stop offset="0.32144" stop-color="#9B686D"/>
<stop offset="0.769429" stop-color="#9B686D" stop-opacity="0"/>
</radialGradient>
<radialGradient id="paint28_radial_3987_22999" cx="0" cy="0" r="1" gradientUnits="userSpaceOnUse" gradientTransform="translate(5.80212 15.4879) rotate(-139.611) scale(1.37447 1.99357)">
<stop offset="0.32144" stop-color="#9B686D"/>
<stop offset="0.769429" stop-color="#9B686D" stop-opacity="0"/>
</radialGradient>
<radialGradient id="paint29_radial_3987_22999" cx="0" cy="0" r="1" gradientUnits="userSpaceOnUse" gradientTransform="translate(7.0365 14.7799) rotate(48.0128) scale(0.210213 0.887666)">
<stop stop-color="#BD9484"/>
<stop offset="1" stop-color="#BD9484" stop-opacity="0"/>
</radialGradient>
<radialGradient id="paint30_radial_3987_22999" cx="0" cy="0" r="1" gradientUnits="userSpaceOnUse" gradientTransform="translate(28.8287 18.8637) rotate(135) scale(15.9541 20.2938)">
<stop stop-color="#67ECFF"/>
<stop offset="1" stop-color="#67ECFF" stop-opacity="0"/>
</radialGradient>
<linearGradient id="paint31_linear_3987_22999" x1="17.8255" y1="8.1604" x2="20.2687" y2="21.3966" gradientUnits="userSpaceOnUse">
<stop stop-color="#54ACFA"/>
<stop offset="1" stop-color="#6096E0"/>
</linearGradient>
<linearGradient id="paint32_linear_3987_22999" x1="22.4381" y1="11.8794" x2="18.7662" y2="7.98876" gradientUnits="userSpaceOnUse">
<stop stop-color="#57B4FD"/>
<stop offset="1" stop-color="#57B4FD" stop-opacity="0"/>
</linearGradient>
<radialGradient id="paint33_radial_3987_22999" cx="0" cy="0" r="1" gradientUnits="userSpaceOnUse" gradientTransform="translate(11.3353 6.03658) scale(0.776648 1.35914)">
<stop offset="0.350532" stop-color="#865D5F"/>
<stop offset="1" stop-color="#76594A"/>
</radialGradient>
<radialGradient id="paint34_radial_3987_22999" cx="0" cy="0" r="1" gradientUnits="userSpaceOnUse" gradientTransform="translate(12.0742 6.77543) rotate(-124.98) scale(0.733222)">
<stop offset="0.339551" stop-color="#834E63"/>
<stop offset="1" stop-color="#834E63" stop-opacity="0"/>
</radialGradient>
<linearGradient id="paint35_linear_3987_22999" x1="12.0743" y1="6.15998" x2="11.7908" y2="6.15998" gradientUnits="userSpaceOnUse">
<stop stop-color="#694448"/>
<stop offset="1" stop-color="#6E464D"/>
</linearGradient>
<linearGradient id="paint36_linear_3987_22999" x1="16.7652" y1="5.55349" x2="16.4029" y2="6.67598" gradientUnits="userSpaceOnUse">
<stop stop-color="#CCA68C"/>
<stop offset="1" stop-color="#AE7F75"/>
</linearGradient>
<radialGradient id="paint37_radial_3987_22999" cx="0" cy="0" r="1" gradientUnits="userSpaceOnUse" gradientTransform="translate(16.4491 5.91936) rotate(-36.0604) scale(0.452591 0.516574)">
<stop offset="0.542503" stop-color="#8F6459"/>
<stop offset="1" stop-color="#8F6459" stop-opacity="0"/>
</radialGradient>
<radialGradient id="paint38_radial_3987_22999" cx="0" cy="0" r="1" gradientUnits="userSpaceOnUse" gradientTransform="translate(16.2662 6.40013) rotate(-61.4675) scale(0.760933 0.445377)">
<stop offset="0.754913" stop-color="#8A5D55" stop-opacity="0"/>
<stop offset="0.915553" stop-color="#8A5D55"/>
</radialGradient>
<radialGradient id="paint39_radial_3987_22999" cx="0" cy="0" r="1" gradientUnits="userSpaceOnUse" gradientTransform="translate(16.2845 6.03666) rotate(44.7077) scale(0.161464 0.208149)">
<stop stop-color="#895F52"/>
<stop offset="1" stop-color="#895F52" stop-opacity="0"/>
</radialGradient>
<linearGradient id="paint40_linear_3987_22999" x1="15.9617" y1="6.20895" x2="12.5818" y2="6.7126" gradientUnits="userSpaceOnUse">
<stop stop-color="#C69980"/>
<stop offset="1" stop-color="#916762"/>
</linearGradient>
<radialGradient id="paint41_radial_3987_22999" cx="0" cy="0" r="1" gradientUnits="userSpaceOnUse" gradientTransform="translate(15.2138 5.47387) rotate(-90) scale(0.578473 0.711966)">
<stop stop-color="#AB7773"/>
<stop offset="1" stop-color="#AB7773" stop-opacity="0"/>
</radialGradient>
<radialGradient id="paint42_radial_3987_22999" cx="0" cy="0" r="1" gradientUnits="userSpaceOnUse" gradientTransform="translate(13.1965 5.5332) rotate(-90) scale(0.608138 0.756274)">
<stop stop-color="#8F5D65"/>
<stop offset="1" stop-color="#8F5D65" stop-opacity="0"/>
</radialGradient>
<linearGradient id="paint43_linear_3987_22999" x1="11.7874" y1="7.40211" x2="12.6201" y2="7.37244" gradientUnits="userSpaceOnUse">
<stop stop-color="#9B7569"/>
<stop offset="1" stop-color="#9B7569" stop-opacity="0"/>
</linearGradient>
<linearGradient id="paint44_linear_3987_22999" x1="16.3533" y1="7.02972" x2="15.861" y2="6.98679" gradientUnits="userSpaceOnUse">
<stop stop-color="#C1987F"/>
<stop offset="1" stop-color="#C1987F" stop-opacity="0"/>
</linearGradient>
<radialGradient id="paint45_radial_3987_22999" cx="0" cy="0" r="1" gradientUnits="userSpaceOnUse" gradientTransform="translate(14.1188 5.35787) rotate(90) scale(3.68591 4.56845)">
<stop offset="0.607961" stop-color="#9B7168" stop-opacity="0"/>
<stop offset="0.884019" stop-color="#8F5D78"/>
<stop offset="1" stop-color="#7C5267"/>
</radialGradient>
<linearGradient id="paint46_linear_3987_22999" x1="13.9401" y1="4.88798" x2="17.5444" y2="3.59754" gradientUnits="userSpaceOnUse">
<stop stop-color="#C89F8B"/>
<stop offset="1" stop-color="#C89F8B" stop-opacity="0"/>
</linearGradient>
<radialGradient id="paint47_radial_3987_22999" cx="0" cy="0" r="1" gradientUnits="userSpaceOnUse" gradientTransform="translate(16.0984 4.21933) rotate(-74.8989) scale(1.35531 0.502591)">
<stop stop-color="#554042"/>
<stop offset="1" stop-color="#554042" stop-opacity="0"/>
</radialGradient>
<radialGradient id="paint48_radial_3987_22999" cx="0" cy="0" r="1" gradientUnits="userSpaceOnUse" gradientTransform="translate(15.3715 3.44046) rotate(5.25781) scale(1.69991 0.914028)">
<stop offset="0.392334" stop-color="#644949"/>
<stop offset="1" stop-color="#644949" stop-opacity="0"/>
</radialGradient>
<radialGradient id="paint49_radial_3987_22999" cx="0" cy="0" r="1" gradientUnits="userSpaceOnUse" gradientTransform="translate(14.1754 2.22998) rotate(90) scale(0.743151 1.15093)">
<stop stop-color="#624C49"/>
<stop offset="1" stop-color="#624C49" stop-opacity="0"/>
</radialGradient>
<radialGradient id="paint50_radial_3987_22999" cx="0" cy="0" r="1" gradientUnits="userSpaceOnUse" gradientTransform="translate(11.3213 5.24744) rotate(-36.2349) scale(1.68663 2.64239)">
<stop stop-color="#4E3C3A"/>
<stop offset="1" stop-color="#4E3C3A" stop-opacity="0"/>
</radialGradient>
<linearGradient id="paint51_linear_3987_22999" x1="13.793" y1="6.50076" x2="14.2082" y2="6.50076" gradientUnits="userSpaceOnUse">
<stop stop-color="#8B6455"/>
<stop offset="1" stop-color="#8B6455" stop-opacity="0"/>
</linearGradient>
<linearGradient id="paint52_linear_3987_22999" x1="14.5908" y1="6.64349" x2="14.1368" y2="6.637" gradientUnits="userSpaceOnUse">
<stop stop-color="#CDA186"/>
<stop offset="1" stop-color="#CDA186" stop-opacity="0"/>
</linearGradient>
<linearGradient id="paint53_linear_3987_22999" x1="14.2615" y1="6.97201" x2="14.2615" y2="6.7184" gradientUnits="userSpaceOnUse">
<stop stop-color="#9C6073"/>
<stop offset="1" stop-color="#9C6073" stop-opacity="0"/>
</linearGradient>
<radialGradient id="paint54_radial_3987_22999" cx="0" cy="0" r="1" gradientUnits="userSpaceOnUse" gradientTransform="translate(14.3203 6.74767) rotate(90) scale(0.0871417 0.279966)">
<stop stop-color="#C39787"/>
<stop offset="1" stop-color="#C39787" stop-opacity="0"/>
</radialGradient>
<linearGradient id="paint55_linear_3987_22999" x1="13.7165" y1="7.6868" x2="13.909" y2="7.38251" gradientUnits="userSpaceOnUse">
<stop stop-color="#A87D7B"/>
<stop offset="0.663171" stop-color="#A87D7B" stop-opacity="0"/>
</linearGradient>
<radialGradient id="paint56_radial_3987_22999" cx="0" cy="0" r="1" gradientUnits="userSpaceOnUse" gradientTransform="translate(15.2565 5.11419) rotate(-80.2008) scale(0.27094 0.801556)">
<stop stop-color="#422235"/>
<stop offset="1" stop-color="#422235" stop-opacity="0"/>
</radialGradient>
<radialGradient id="paint57_radial_3987_22999" cx="0" cy="0" r="1" gradientUnits="userSpaceOnUse" gradientTransform="translate(12.9782 5.11419) rotate(-80.2002) scale(0.270941 0.8016)">
<stop stop-color="#422235"/>
<stop offset="1" stop-color="#422235" stop-opacity="0"/>
</radialGradient>
<radialGradient id="paint58_radial_3987_22999" cx="0" cy="0" r="1" gradientUnits="userSpaceOnUse" gradientTransform="translate(15.1398 5.73475) rotate(90) scale(0.358982 0.571001)">
<stop offset="0.80198" stop-color="#7D574A"/>
<stop offset="1" stop-color="#694B43"/>
<stop offset="1" stop-color="#804D49"/>
<stop offset="1" stop-color="#664944"/>
</radialGradient>
<radialGradient id="paint59_radial_3987_22999" cx="0" cy="0" r="1" gradientUnits="userSpaceOnUse" gradientTransform="translate(15.039 5.772) rotate(-127.812) scale(0.16738 0.230442)">
<stop offset="0.765532" stop-color="#FFE6E2" stop-opacity="0"/>
<stop offset="0.966159" stop-color="#FFE6E2"/>
</radialGradient>
<linearGradient id="paint60_linear_3987_22999" x1="15.484" y1="5.75862" x2="15.3451" y2="5.84416" gradientUnits="userSpaceOnUse">
<stop stop-color="#B4948D"/>
<stop offset="1" stop-color="#B4948D" stop-opacity="0"/>
</linearGradient>
<radialGradient id="paint61_radial_3987_22999" cx="0" cy="0" r="1" gradientUnits="userSpaceOnUse" gradientTransform="translate(13.2089 5.73476) rotate(90) scale(0.359 0.57103)">
<stop offset="0.80198" stop-color="#7D574A"/>
<stop offset="1" stop-color="#694B43"/>
<stop offset="1" stop-color="#804D49"/>
<stop offset="1" stop-color="#664944"/>
</radialGradient>
<linearGradient id="paint62_linear_3987_22999" x1="13.5379" y1="5.7586" x2="13.3991" y2="5.84414" gradientUnits="userSpaceOnUse">
<stop stop-color="#B4948D"/>
<stop offset="1" stop-color="#B4948D" stop-opacity="0"/>
</linearGradient>
<radialGradient id="paint63_radial_3987_22999" cx="0" cy="0" r="1" gradientUnits="userSpaceOnUse" gradientTransform="translate(13.0821 5.83178) rotate(-90.897) scale(0.218642 0.262817)">
<stop offset="0.765532" stop-color="#FFE6E2" stop-opacity="0"/>
<stop offset="0.966159" stop-color="#FFE6E2"/>
</radialGradient>
<linearGradient id="paint64_linear_3987_22999" x1="15.4911" y1="4.81169" x2="15.3051" y2="4.43169" gradientUnits="userSpaceOnUse">
<stop stop-color="#5B4545"/>
<stop offset="1" stop-color="#5B4545" stop-opacity="0"/>
</linearGradient>
<linearGradient id="paint65_linear_3987_22999" x1="13.1432" y1="4.75517" x2="12.6169" y2="4.53445" gradientUnits="userSpaceOnUse">
<stop stop-color="#5B4545"/>
<stop offset="1" stop-color="#5B4545" stop-opacity="0"/>
</linearGradient>
<linearGradient id="paint66_linear_3987_22999" x1="12.1122" y1="3.86366" x2="12.1122" y2="4.81829" gradientUnits="userSpaceOnUse">
<stop offset="0.227964" stop-color="#4A3236"/>
<stop offset="1" stop-color="#4A3236" stop-opacity="0"/>
</linearGradient>
</defs>
</svg>
