<svg width="32" height="32" viewBox="0 0 32 32" fill="none" xmlns="http://www.w3.org/2000/svg">
<g filter="url(#filter0_ii_3987_22981)">
<path fill-rule="evenodd" clip-rule="evenodd" d="M20.9613 7.80422C21.8134 6.72208 21.442 5.591 21.1801 5.12704L23.0959 4.04553C23.5632 4.87324 24.3377 7.07237 22.6898 9.16523C21.7999 10.2954 20.3593 10.7319 19.2058 10.918C18.0075 11.1112 16.836 11.0764 16.2206 11.0527L16.3055 8.85429C16.9036 8.8774 17.8883 8.902 18.8555 8.74602C19.8673 8.58284 20.6012 8.26152 20.9613 7.80422Z" fill="url(#paint0_linear_3987_22981)"/>
</g>
<g filter="url(#filter1_i_3987_22981)">
<path d="M8.94826 12.9141C8.78444 13.0116 8.72885 13.2224 8.82323 13.3881L9.70357 14.9334C9.97694 15.4132 9.80954 16.0239 9.32967 16.2973L9.2149 16.3626C8.73502 16.636 8.12439 16.4686 7.85101 15.9887L7.12322 14.7112C6.67215 13.9194 6.94836 12.9119 7.74016 12.4608L8.08269 12.2657L24.3862 2.55675C24.576 2.44372 24.8215 2.50596 24.9345 2.69577L25.0369 2.8676C25.1499 3.05741 25.0876 3.30291 24.8978 3.41594L8.94826 12.9141Z" fill="#AFA2B8"/>
<path d="M8.94826 12.9141C8.78444 13.0116 8.72885 13.2224 8.82323 13.3881L9.70357 14.9334C9.97694 15.4132 9.80954 16.0239 9.32967 16.2973L9.2149 16.3626C8.73502 16.636 8.12439 16.4686 7.85101 15.9887L7.12322 14.7112C6.67215 13.9194 6.94836 12.9119 7.74016 12.4608L8.08269 12.2657L24.3862 2.55675C24.576 2.44372 24.8215 2.50596 24.9345 2.69577L25.0369 2.8676C25.1499 3.05741 25.0876 3.30291 24.8978 3.41594L8.94826 12.9141Z" fill="url(#paint1_radial_3987_22981)"/>
<path d="M8.94826 12.9141C8.78444 13.0116 8.72885 13.2224 8.82323 13.3881L9.70357 14.9334C9.97694 15.4132 9.80954 16.0239 9.32967 16.2973L9.2149 16.3626C8.73502 16.636 8.12439 16.4686 7.85101 15.9887L7.12322 14.7112C6.67215 13.9194 6.94836 12.9119 7.74016 12.4608L8.08269 12.2657L24.3862 2.55675C24.576 2.44372 24.8215 2.50596 24.9345 2.69577L25.0369 2.8676C25.1499 3.05741 25.0876 3.30291 24.8978 3.41594L8.94826 12.9141Z" fill="url(#paint2_linear_3987_22981)"/>
</g>
<path d="M8.94826 12.9141C8.78444 13.0116 8.72885 13.2224 8.82323 13.3881L9.70357 14.9334C9.97694 15.4132 9.80954 16.0239 9.32967 16.2973L9.2149 16.3626C8.73502 16.636 8.12439 16.4686 7.85101 15.9887L7.12322 14.7112C6.67215 13.9194 6.94836 12.9119 7.74016 12.4608L8.08269 12.2657L24.3862 2.55675C24.576 2.44372 24.8215 2.50596 24.9345 2.69577L25.0369 2.8676C25.1499 3.05741 25.0876 3.30291 24.8978 3.41594L8.94826 12.9141Z" fill="url(#paint3_radial_3987_22981)"/>
<path d="M21.765 5.28172L21.265 4.41564L24.3865 2.55675C24.5763 2.44372 24.8218 2.50596 24.9348 2.69577L25.0371 2.8676C25.1501 3.05741 25.0879 3.30291 24.8981 3.41594L21.765 5.28172Z" fill="url(#paint4_linear_3987_22981)"/>
<path d="M21.765 5.28172L21.265 4.41564L24.3865 2.55675C24.5763 2.44372 24.8218 2.50596 24.9348 2.69577L25.0371 2.8676C25.1501 3.05741 25.0879 3.30291 24.8981 3.41594L21.765 5.28172Z" fill="url(#paint5_linear_3987_22981)"/>
<path d="M21.765 5.28172L21.265 4.41564L24.3865 2.55675C24.5763 2.44372 24.8218 2.50596 24.9348 2.69577L25.0371 2.8676C25.1501 3.05741 25.0879 3.30291 24.8981 3.41594L21.765 5.28172Z" fill="url(#paint6_radial_3987_22981)"/>
<g filter="url(#filter2_i_3987_22981)">
<path d="M18.1771 30.2035V28.434H20.3373C20.5013 28.5902 21.1263 28.9847 21.8412 29.2152C22.3349 29.3465 22.4662 29.7035 22.4701 29.8363V30.2035H18.1771Z" fill="#4C3765"/>
</g>
<path d="M11.5951 27.8129C11.5951 27.0066 12.0534 26.654 12.2826 26.5785L13.6498 27.7582V29.0413C13.6498 29.1932 13.7188 29.3369 13.8374 29.4317L14.0404 29.5941C14.168 29.6879 14.3373 29.8324 14.2904 30.0082C14.2084 30.1801 14.0404 30.2035 13.7513 30.2035H12.2451C11.8861 30.2035 11.5951 29.9127 11.5951 29.5537V27.8129Z" fill="#47385D"/>
<path d="M11.5951 27.8129C11.5951 27.0066 12.0534 26.654 12.2826 26.5785L13.6498 27.7582V29.0413C13.6498 29.1932 13.7188 29.3369 13.8374 29.4317L14.0404 29.5941C14.168 29.6879 14.3373 29.8324 14.2904 30.0082C14.2084 30.1801 14.0404 30.2035 13.7513 30.2035H12.2451C11.8861 30.2035 11.5951 29.9127 11.5951 29.5537V27.8129Z" fill="url(#paint7_linear_3987_22981)"/>
<path d="M11.5951 27.8129C11.5951 27.0066 12.0534 26.654 12.2826 26.5785L13.6498 27.7582V29.0413C13.6498 29.1932 13.7188 29.3369 13.8374 29.4317L14.0404 29.5941C14.168 29.6879 14.3373 29.8324 14.2904 30.0082C14.2084 30.1801 14.0404 30.2035 13.7513 30.2035H12.2451C11.8861 30.2035 11.5951 29.9127 11.5951 29.5537V27.8129Z" fill="url(#paint8_radial_3987_22981)"/>
<path d="M11.5951 27.8129C11.5951 27.0066 12.0534 26.654 12.2826 26.5785L13.6498 27.7582V29.0413C13.6498 29.1932 13.7188 29.3369 13.8374 29.4317L14.0404 29.5941C14.168 29.6879 14.3373 29.8324 14.2904 30.0082C14.2084 30.1801 14.0404 30.2035 13.7513 30.2035H12.2451C11.8861 30.2035 11.5951 29.9127 11.5951 29.5537V27.8129Z" fill="url(#paint9_radial_3987_22981)"/>
<path d="M11.5951 27.8129C11.5951 27.0066 12.0534 26.654 12.2826 26.5785L13.6498 27.7582V29.0413C13.6498 29.1932 13.7188 29.3369 13.8374 29.4317L14.0404 29.5941C14.168 29.6879 14.3373 29.8324 14.2904 30.0082C14.2084 30.1801 14.0404 30.2035 13.7513 30.2035H12.2451C11.8861 30.2035 11.5951 29.9127 11.5951 29.5537V27.8129Z" fill="url(#paint10_radial_3987_22981)"/>
<g filter="url(#filter3_i_3987_22981)">
<path d="M14.5219 23.9714C14.7041 23.7798 14.8029 23.5239 14.7969 23.2596L14.6305 15.9691H20.65L20.3375 28.4457H18.1813L17.9221 18.4437C17.9185 18.3057 17.8056 18.1957 17.6675 18.1957C17.5311 18.1957 17.4189 18.3027 17.4133 18.439C17.3643 19.6347 17.2829 21.8936 17.2829 23.0238C17.2829 24.2363 16.5901 25.2373 16.2438 25.5863L13.771 27.874C13.6844 27.9541 13.566 27.9931 13.4542 27.9555C13.2595 27.8901 12.986 27.7544 12.736 27.5316C12.4838 27.307 12.2975 26.9789 12.1894 26.7367C12.1298 26.6032 12.1658 26.4501 12.2666 26.344L14.5219 23.9714Z" fill="#9785A9"/>
</g>
<path d="M14.5219 23.9714C14.7041 23.7798 14.8029 23.5239 14.7969 23.2596L14.6305 15.9691H20.65L20.3375 28.4457H18.1813L17.9221 18.4437C17.9185 18.3057 17.8056 18.1957 17.6675 18.1957C17.5311 18.1957 17.4189 18.3027 17.4133 18.439C17.3643 19.6347 17.2829 21.8936 17.2829 23.0238C17.2829 24.2363 16.5901 25.2373 16.2438 25.5863L13.771 27.874C13.6844 27.9541 13.566 27.9931 13.4542 27.9555C13.2595 27.8901 12.986 27.7544 12.736 27.5316C12.4838 27.307 12.2975 26.9789 12.1894 26.7367C12.1298 26.6032 12.1658 26.4501 12.2666 26.344L14.5219 23.9714Z" fill="url(#paint11_linear_3987_22981)"/>
<path d="M14.5219 23.9714C14.7041 23.7798 14.8029 23.5239 14.7969 23.2596L14.6305 15.9691H20.65L20.3375 28.4457H18.1813L17.9221 18.4437C17.9185 18.3057 17.8056 18.1957 17.6675 18.1957C17.5311 18.1957 17.4189 18.3027 17.4133 18.439C17.3643 19.6347 17.2829 21.8936 17.2829 23.0238C17.2829 24.2363 16.5901 25.2373 16.2438 25.5863L13.771 27.874C13.6844 27.9541 13.566 27.9931 13.4542 27.9555C13.2595 27.8901 12.986 27.7544 12.736 27.5316C12.4838 27.307 12.2975 26.9789 12.1894 26.7367C12.1298 26.6032 12.1658 26.4501 12.2666 26.344L14.5219 23.9714Z" fill="url(#paint12_radial_3987_22981)"/>
<path d="M14.5219 23.9714C14.7041 23.7798 14.8029 23.5239 14.7969 23.2596L14.6305 15.9691H20.65L20.3375 28.4457H18.1813L17.9221 18.4437C17.9185 18.3057 17.8056 18.1957 17.6675 18.1957C17.5311 18.1957 17.4189 18.3027 17.4133 18.439C17.3643 19.6347 17.2829 21.8936 17.2829 23.0238C17.2829 24.2363 16.5901 25.2373 16.2438 25.5863L13.771 27.874C13.6844 27.9541 13.566 27.9931 13.4542 27.9555C13.2595 27.8901 12.986 27.7544 12.736 27.5316C12.4838 27.307 12.2975 26.9789 12.1894 26.7367C12.1298 26.6032 12.1658 26.4501 12.2666 26.344L14.5219 23.9714Z" fill="url(#paint13_radial_3987_22981)"/>
<path d="M14.5219 23.9714C14.7041 23.7798 14.8029 23.5239 14.7969 23.2596L14.6305 15.9691H20.65L20.3375 28.4457H18.1813L17.9221 18.4437C17.9185 18.3057 17.8056 18.1957 17.6675 18.1957C17.5311 18.1957 17.4189 18.3027 17.4133 18.439C17.3643 19.6347 17.2829 21.8936 17.2829 23.0238C17.2829 24.2363 16.5901 25.2373 16.2438 25.5863L13.771 27.874C13.6844 27.9541 13.566 27.9931 13.4542 27.9555C13.2595 27.8901 12.986 27.7544 12.736 27.5316C12.4838 27.307 12.2975 26.9789 12.1894 26.7367C12.1298 26.6032 12.1658 26.4501 12.2666 26.344L14.5219 23.9714Z" fill="url(#paint14_radial_3987_22981)"/>
<path d="M14.5219 23.9714C14.7041 23.7798 14.8029 23.5239 14.7969 23.2596L14.6305 15.9691H20.65L20.3375 28.4457H18.1813L17.9221 18.4437C17.9185 18.3057 17.8056 18.1957 17.6675 18.1957C17.5311 18.1957 17.4189 18.3027 17.4133 18.439C17.3643 19.6347 17.2829 21.8936 17.2829 23.0238C17.2829 24.2363 16.5901 25.2373 16.2438 25.5863L13.771 27.874C13.6844 27.9541 13.566 27.9931 13.4542 27.9555C13.2595 27.8901 12.986 27.7544 12.736 27.5316C12.4838 27.307 12.2975 26.9789 12.1894 26.7367C12.1298 26.6032 12.1658 26.4501 12.2666 26.344L14.5219 23.9714Z" fill="url(#paint15_radial_3987_22981)"/>
<path d="M14.5219 23.9714C14.7041 23.7798 14.8029 23.5239 14.7969 23.2596L14.6305 15.9691H20.65L20.3375 28.4457H18.1813L17.9221 18.4437C17.9185 18.3057 17.8056 18.1957 17.6675 18.1957C17.5311 18.1957 17.4189 18.3027 17.4133 18.439C17.3643 19.6347 17.2829 21.8936 17.2829 23.0238C17.2829 24.2363 16.5901 25.2373 16.2438 25.5863L13.771 27.874C13.6844 27.9541 13.566 27.9931 13.4542 27.9555C13.2595 27.8901 12.986 27.7544 12.736 27.5316C12.4838 27.307 12.2975 26.9789 12.1894 26.7367C12.1298 26.6032 12.1658 26.4501 12.2666 26.344L14.5219 23.9714Z" fill="url(#paint16_radial_3987_22981)"/>
<path d="M14.5219 23.9714C14.7041 23.7798 14.8029 23.5239 14.7969 23.2596L14.6305 15.9691H20.65L20.3375 28.4457H18.1813L17.9221 18.4437C17.9185 18.3057 17.8056 18.1957 17.6675 18.1957C17.5311 18.1957 17.4189 18.3027 17.4133 18.439C17.3643 19.6347 17.2829 21.8936 17.2829 23.0238C17.2829 24.2363 16.5901 25.2373 16.2438 25.5863L13.771 27.874C13.6844 27.9541 13.566 27.9931 13.4542 27.9555C13.2595 27.8901 12.986 27.7544 12.736 27.5316C12.4838 27.307 12.2975 26.9789 12.1894 26.7367C12.1298 26.6032 12.1658 26.4501 12.2666 26.344L14.5219 23.9714Z" fill="url(#paint17_radial_3987_22981)"/>
<path d="M13.9271 9.85972C14.1029 8.57456 14.6302 7.99774 14.9271 7.78941C15.4371 7.4315 16.5912 6.8441 18.2631 7.78941C20.0209 8.88316 20.6667 11.8467 20.638 13.1644V15.9691H14.638V12.7269C14.638 12.2394 14.5326 11.9847 14.3802 11.766C14.2358 11.5082 13.8607 10.7855 13.9271 9.85972Z" fill="url(#paint18_radial_3987_22981)"/>
<path d="M13.9271 9.85972C14.1029 8.57456 14.6302 7.99774 14.9271 7.78941C15.4371 7.4315 16.5912 6.8441 18.2631 7.78941C20.0209 8.88316 20.6667 11.8467 20.638 13.1644V15.9691H14.638V12.7269C14.638 12.2394 14.5326 11.9847 14.3802 11.766C14.2358 11.5082 13.8607 10.7855 13.9271 9.85972Z" fill="url(#paint19_radial_3987_22981)"/>
<path d="M13.9271 9.85972C14.1029 8.57456 14.6302 7.99774 14.9271 7.78941C15.4371 7.4315 16.5912 6.8441 18.2631 7.78941C20.0209 8.88316 20.6667 11.8467 20.638 13.1644V15.9691H14.638V12.7269C14.638 12.2394 14.5326 11.9847 14.3802 11.766C14.2358 11.5082 13.8607 10.7855 13.9271 9.85972Z" fill="url(#paint20_linear_3987_22981)"/>
<path d="M13.9271 9.85972C14.1029 8.57456 14.6302 7.99774 14.9271 7.78941C15.4371 7.4315 16.5912 6.8441 18.2631 7.78941C20.0209 8.88316 20.6667 11.8467 20.638 13.1644V15.9691H14.638V12.7269C14.638 12.2394 14.5326 11.9847 14.3802 11.766C14.2358 11.5082 13.8607 10.7855 13.9271 9.85972Z" fill="url(#paint21_radial_3987_22981)"/>
<path d="M13.9271 9.85972C14.1029 8.57456 14.6302 7.99774 14.9271 7.78941C15.4371 7.4315 16.5912 6.8441 18.2631 7.78941C20.0209 8.88316 20.6667 11.8467 20.638 13.1644V15.9691H14.638V12.7269C14.638 12.2394 14.5326 11.9847 14.3802 11.766C14.2358 11.5082 13.8607 10.7855 13.9271 9.85972Z" fill="url(#paint22_radial_3987_22981)"/>
<rect x="20.6508" y="4.06226" width="0.692073" height="1.15669" rx="0.346037" transform="rotate(-26.7833 20.6508 4.06226)" fill="#6F4D40"/>
<rect x="21.0844" y="3.80237" width="0.692073" height="1.15669" rx="0.346037" transform="rotate(-26.7833 21.0844 3.80237)" fill="url(#paint23_radial_3987_22981)"/>
<rect x="21.6034" y="3.55627" width="0.692073" height="1.15669" rx="0.346037" transform="rotate(-26.7833 21.6034 3.55627)" fill="url(#paint24_radial_3987_22981)"/>
<rect x="22.1727" y="3.30237" width="0.692073" height="1.15669" rx="0.346037" transform="rotate(-26.7833 22.1727 3.30237)" fill="url(#paint25_radial_3987_22981)"/>
<rect x="21.976" y="4.33362" width="0.737393" height="1.25169" rx="0.368697" transform="rotate(60 21.976 4.33362)" fill="url(#paint26_radial_3987_22981)"/>
<g filter="url(#filter4_ii_3987_22981)">
<path d="M19.3174 6.01585C19.3307 5.94433 19.3331 5.85554 19.302 5.76214C19.2426 5.58402 19.1262 5.33897 19.0754 5.23871C19.0559 5.15016 19.0504 4.94808 19.1848 4.84808C19.3192 4.74808 19.4648 4.76996 19.5208 4.79339C19.5338 4.72829 19.5934 4.58011 19.7278 4.50824C19.8622 4.43636 20.026 4.47829 20.0911 4.50824C20.1093 4.44183 20.1809 4.29964 20.3215 4.26214C20.4622 4.22464 20.6171 4.28558 20.677 4.32074C20.7174 4.24522 20.8458 4.09652 21.0364 4.10589C21.2747 4.11761 21.4114 4.36761 21.4465 4.55511C21.4817 4.74261 21.5403 4.9887 21.5989 5.13324C21.6575 5.27777 21.7161 5.7387 21.509 6.33245L21.508 6.33234C21.0543 8.2169 20.0162 9.43559 18.8443 10.1857C17.6602 10.9436 16.39 11.1939 15.547 11.2681C14.9418 11.3213 14.408 10.8739 14.3548 10.2688C14.3015 9.66358 14.7489 9.12981 15.3541 9.07654C15.9902 9.02054 16.8763 8.83327 17.6583 8.33274C18.3406 7.89602 18.985 7.19751 19.3174 6.01585Z" fill="#7C564F"/>
<path d="M19.3174 6.01585C19.3307 5.94433 19.3331 5.85554 19.302 5.76214C19.2426 5.58402 19.1262 5.33897 19.0754 5.23871C19.0559 5.15016 19.0504 4.94808 19.1848 4.84808C19.3192 4.74808 19.4648 4.76996 19.5208 4.79339C19.5338 4.72829 19.5934 4.58011 19.7278 4.50824C19.8622 4.43636 20.026 4.47829 20.0911 4.50824C20.1093 4.44183 20.1809 4.29964 20.3215 4.26214C20.4622 4.22464 20.6171 4.28558 20.677 4.32074C20.7174 4.24522 20.8458 4.09652 21.0364 4.10589C21.2747 4.11761 21.4114 4.36761 21.4465 4.55511C21.4817 4.74261 21.5403 4.9887 21.5989 5.13324C21.6575 5.27777 21.7161 5.7387 21.509 6.33245L21.508 6.33234C21.0543 8.2169 20.0162 9.43559 18.8443 10.1857C17.6602 10.9436 16.39 11.1939 15.547 11.2681C14.9418 11.3213 14.408 10.8739 14.3548 10.2688C14.3015 9.66358 14.7489 9.12981 15.3541 9.07654C15.9902 9.02054 16.8763 8.83327 17.6583 8.33274C18.3406 7.89602 18.985 7.19751 19.3174 6.01585Z" fill="url(#paint27_radial_3987_22981)"/>
</g>
<g filter="url(#filter5_i_3987_22981)">
<path d="M16.0011 8.8949C16.3292 8.86365 16.6535 8.7699 16.8487 8.68005L17.7081 10.8754C17.4738 10.9965 15.9933 11.4691 15.169 11.3051C14.3448 11.141 14.1497 10.1097 14.4386 9.56677C14.712 8.9574 15.5569 8.93721 16.0011 8.8949Z" fill="url(#paint28_linear_3987_22981)"/>
<path d="M16.0011 8.8949C16.3292 8.86365 16.6535 8.7699 16.8487 8.68005L17.7081 10.8754C17.4738 10.9965 15.9933 11.4691 15.169 11.3051C14.3448 11.141 14.1497 10.1097 14.4386 9.56677C14.712 8.9574 15.5569 8.93721 16.0011 8.8949Z" fill="url(#paint29_radial_3987_22981)"/>
<path d="M16.0011 8.8949C16.3292 8.86365 16.6535 8.7699 16.8487 8.68005L17.7081 10.8754C17.4738 10.9965 15.9933 11.4691 15.169 11.3051C14.3448 11.141 14.1497 10.1097 14.4386 9.56677C14.712 8.9574 15.5569 8.93721 16.0011 8.8949Z" fill="url(#paint30_radial_3987_22981)"/>
</g>
<g filter="url(#filter6_f_3987_22981)">
<path d="M8.50936 12.9379C8.45467 13.0186 8.37811 13.2394 8.50936 13.4769C8.64061 13.7144 9.22815 14.7543 9.47034 15.1918C9.51982 15.2946 9.58127 15.5472 9.43127 15.7347" stroke="#C3B8C3" stroke-width="0.2" stroke-linecap="round"/>
</g>
<g filter="url(#filter7_f_3987_22981)">
<path d="M19.8217 16.641L19.6342 27.8285" stroke="url(#paint31_linear_3987_22981)" stroke-width="0.8" stroke-linecap="square"/>
</g>
<g filter="url(#filter8_f_3987_22981)">
<path d="M16.1498 23.5785L15.7748 17.6254L16.8373 18.1254V23.5785H16.1498Z" fill="url(#paint32_linear_3987_22981)"/>
</g>
<g filter="url(#filter9_i_3987_22981)">
<circle cx="12.9125" cy="7.20245" r="0.704188" transform="rotate(-30 12.9125 7.20245)" fill="url(#paint33_radial_3987_22981)"/>
</g>
<g filter="url(#filter10_f_3987_22981)">
<circle cx="12.9128" cy="7.20244" r="0.419685" transform="rotate(-30 12.9128 7.20244)" fill="url(#paint34_linear_3987_22981)"/>
</g>
<g filter="url(#filter11_i_3987_22981)">
<circle cx="16.3878" cy="5.19598" r="0.704188" transform="rotate(-30 16.3878 5.19598)" fill="url(#paint35_linear_3987_22981)"/>
<circle cx="16.3878" cy="5.19598" r="0.704188" transform="rotate(-30 16.3878 5.19598)" fill="url(#paint36_radial_3987_22981)"/>
</g>
<g filter="url(#filter12_f_3987_22981)">
<circle cx="16.3876" cy="5.19597" r="0.419685" transform="rotate(-30 16.3876 5.19597)" fill="#7A5654"/>
<circle cx="16.3876" cy="5.19597" r="0.419685" transform="rotate(-30 16.3876 5.19597)" fill="url(#paint37_radial_3987_22981)"/>
<circle cx="16.3876" cy="5.19597" r="0.419685" transform="rotate(-30 16.3876 5.19597)" fill="url(#paint38_radial_3987_22981)"/>
</g>
<path d="M12.3165 6.4787C12.2602 6.38129 12.1903 6.21673 12.235 6.11304L12.1641 5.94275C12.2171 5.80825 12.3401 5.8325 12.2726 5.7156L12.0927 5.40388C12.0364 5.30647 12.0502 5.1946 12.1369 5.11855C12.3383 4.92435 12.7719 4.54412 13.4773 4.13686C14.1827 3.7296 14.7288 3.5442 14.9977 3.46689C15.0873 3.44113 15.2107 3.47381 15.2669 3.57122L15.4469 3.88294C15.5144 3.99984 15.4667 3.49433 15.59 3.52701C15.8476 3.54964 16.051 4.21538 16.1232 4.37566C16.435 5.06743 16.7975 5.74139 17.1321 6.42249C17.4466 7.10276 17.1986 7.8467 16.5927 8.19652L15.4199 8.8736C14.7945 9.23471 14.0457 9.06629 13.6139 8.45373C13.1815 7.82199 12.6996 7.14262 12.3165 6.4787Z" fill="url(#paint39_linear_3987_22981)"/>
<path d="M12.3165 6.4787C12.2602 6.38129 12.1903 6.21673 12.235 6.11304L12.1641 5.94275C12.2171 5.80825 12.3401 5.8325 12.2726 5.7156L12.0927 5.40388C12.0364 5.30647 12.0502 5.1946 12.1369 5.11855C12.3383 4.92435 12.7719 4.54412 13.4773 4.13686C14.1827 3.7296 14.7288 3.5442 14.9977 3.46689C15.0873 3.44113 15.2107 3.47381 15.2669 3.57122L15.4469 3.88294C15.5144 3.99984 15.4667 3.49433 15.59 3.52701C15.8476 3.54964 16.051 4.21538 16.1232 4.37566C16.435 5.06743 16.7975 5.74139 17.1321 6.42249C17.4466 7.10276 17.1986 7.8467 16.5927 8.19652L15.4199 8.8736C14.7945 9.23471 14.0457 9.06629 13.6139 8.45373C13.1815 7.82199 12.6996 7.14262 12.3165 6.4787Z" fill="url(#paint40_radial_3987_22981)"/>
<path d="M12.3165 6.4787C12.2602 6.38129 12.1903 6.21673 12.235 6.11304L12.1641 5.94275C12.2171 5.80825 12.3401 5.8325 12.2726 5.7156L12.0927 5.40388C12.0364 5.30647 12.0502 5.1946 12.1369 5.11855C12.3383 4.92435 12.7719 4.54412 13.4773 4.13686C14.1827 3.7296 14.7288 3.5442 14.9977 3.46689C15.0873 3.44113 15.2107 3.47381 15.2669 3.57122L15.4469 3.88294C15.5144 3.99984 15.4667 3.49433 15.59 3.52701C15.8476 3.54964 16.051 4.21538 16.1232 4.37566C16.435 5.06743 16.7975 5.74139 17.1321 6.42249C17.4466 7.10276 17.1986 7.8467 16.5927 8.19652L15.4199 8.8736C14.7945 9.23471 14.0457 9.06629 13.6139 8.45373C13.1815 7.82199 12.6996 7.14262 12.3165 6.4787Z" fill="url(#paint41_radial_3987_22981)"/>
<path d="M12.3165 6.4787C12.2602 6.38129 12.1903 6.21673 12.235 6.11304L12.1641 5.94275C12.2171 5.80825 12.3401 5.8325 12.2726 5.7156L12.0927 5.40388C12.0364 5.30647 12.0502 5.1946 12.1369 5.11855C12.3383 4.92435 12.7719 4.54412 13.4773 4.13686C14.1827 3.7296 14.7288 3.5442 14.9977 3.46689C15.0873 3.44113 15.2107 3.47381 15.2669 3.57122L15.1117 3.2262C15.1791 3.3431 15.4148 3.38196 15.5381 3.41464C15.7957 3.43727 16.051 4.21538 16.1232 4.37566C16.435 5.06743 16.7975 5.74139 17.1321 6.42249C17.4466 7.10276 17.1986 7.8467 16.5927 8.19652L15.4199 8.8736C14.7945 9.23471 14.0457 9.06629 13.6139 8.45373C13.1815 7.82199 12.6996 7.14262 12.3165 6.4787Z" fill="url(#paint42_linear_3987_22981)"/>
<path d="M12.3165 6.4787C12.2602 6.38129 12.1903 6.21673 12.235 6.11304L12.1641 5.94275C12.2171 5.80825 12.3401 5.8325 12.2726 5.7156L12.0927 5.40388C12.0364 5.30647 12.0502 5.1946 12.1369 5.11855C12.3383 4.92435 12.7719 4.54412 13.4773 4.13686C14.1827 3.7296 14.7288 3.5442 14.9977 3.46689C15.0873 3.44113 15.2107 3.47381 15.2669 3.57122L15.1117 3.2262C15.1791 3.3431 15.4148 3.38196 15.5381 3.41464C15.7957 3.43727 16.051 4.21538 16.1232 4.37566C16.435 5.06743 16.7975 5.74139 17.1321 6.42249C17.4466 7.10276 17.1986 7.8467 16.5927 8.19652L15.4199 8.8736C14.7945 9.23471 14.0457 9.06629 13.6139 8.45373C13.1815 7.82199 12.6996 7.14262 12.3165 6.4787Z" fill="url(#paint43_linear_3987_22981)"/>
<path d="M12.3165 6.4787C12.2602 6.38129 12.1903 6.21673 12.235 6.11304L12.1641 5.94275C12.2171 5.80825 12.3401 5.8325 12.2726 5.7156L12.0927 5.40388C12.0364 5.30647 12.0502 5.1946 12.1369 5.11855C12.3383 4.92435 12.7719 4.54412 13.4773 4.13686C14.1827 3.7296 14.7288 3.5442 14.9977 3.46689C15.0873 3.44113 15.2107 3.47381 15.2669 3.57122L15.1117 3.2262C15.1791 3.3431 15.4148 3.38196 15.5381 3.41464C15.7957 3.43727 16.051 4.21538 16.1232 4.37566C16.435 5.06743 16.7975 5.74139 17.1321 6.42249C17.4466 7.10276 17.1986 7.8467 16.5927 8.19652L15.4199 8.8736C14.7945 9.23471 14.0457 9.06629 13.6139 8.45373C13.1815 7.82199 12.6996 7.14262 12.3165 6.4787Z" fill="url(#paint44_radial_3987_22981)"/>
<path d="M12.3165 6.4787C12.2602 6.38129 12.1903 6.21673 12.235 6.11304L12.1641 5.94275C12.2171 5.80825 12.3401 5.8325 12.2726 5.7156L12.0927 5.40388C12.0364 5.30647 12.0502 5.1946 12.1369 5.11855C12.3383 4.92435 12.7719 4.54412 13.4773 4.13686C14.1827 3.7296 14.7288 3.5442 14.9977 3.46689C15.0873 3.44113 15.2107 3.47381 15.2669 3.57122L15.1117 3.2262C15.1791 3.3431 15.4148 3.38196 15.5381 3.41464C15.7957 3.43727 16.051 4.21538 16.1232 4.37566C16.435 5.06743 16.7975 5.74139 17.1321 6.42249C17.4466 7.10276 17.1986 7.8467 16.5927 8.19652L15.4199 8.8736C14.7945 9.23471 14.0457 9.06629 13.6139 8.45373C13.1815 7.82199 12.6996 7.14262 12.3165 6.4787Z" fill="url(#paint45_radial_3987_22981)"/>
<g filter="url(#filter13_f_3987_22981)">
<path d="M14.5207 6.21441L14.5795 7.00828C14.616 7.15744 14.7789 7.23368 14.9052 7.16076L15.1745 7.00528C15.3008 6.93236 15.3151 6.75122 15.2054 6.64692L14.6649 6.13115C14.5465 6.01613 14.4821 6.05329 14.5207 6.21441Z" fill="#71404A"/>
</g>
<g filter="url(#filter14_f_3987_22981)">
<path d="M14.4474 6.1775L14.6118 6.91042C14.6459 7.061 14.8147 7.13382 14.9494 7.05606L15.2366 6.89026C15.3712 6.8125 15.3914 6.62794 15.2792 6.52506L14.7267 6.01627C14.6057 5.90275 14.4116 6.01481 14.4474 6.1775Z" fill="#8C5F5E"/>
<path d="M14.4474 6.1775L14.6118 6.91042C14.6459 7.061 14.8147 7.13382 14.9494 7.05606L15.2366 6.89026C15.3712 6.8125 15.3914 6.62794 15.2792 6.52506L14.7267 6.01627C14.6057 5.90275 14.4116 6.01481 14.4474 6.1775Z" fill="url(#paint46_linear_3987_22981)"/>
<path d="M14.4474 6.1775L14.6118 6.91042C14.6459 7.061 14.8147 7.13382 14.9494 7.05606L15.2366 6.89026C15.3712 6.8125 15.3914 6.62794 15.2792 6.52506L14.7267 6.01627C14.6057 5.90275 14.4116 6.01481 14.4474 6.1775Z" fill="url(#paint47_linear_3987_22981)"/>
<path d="M14.4474 6.1775L14.6118 6.91042C14.6459 7.061 14.8147 7.13382 14.9494 7.05606L15.2366 6.89026C15.3712 6.8125 15.3914 6.62794 15.2792 6.52506L14.7267 6.01627C14.6057 5.90275 14.4116 6.01481 14.4474 6.1775Z" fill="url(#paint48_linear_3987_22981)"/>
<path d="M14.4474 6.1775L14.6118 6.91042C14.6459 7.061 14.8147 7.13382 14.9494 7.05606L15.2366 6.89026C15.3712 6.8125 15.3914 6.62794 15.2792 6.52506L14.7267 6.01627C14.6057 5.90275 14.4116 6.01481 14.4474 6.1775Z" fill="url(#paint49_radial_3987_22981)"/>
<path d="M14.4474 6.1775L14.6118 6.91042C14.6459 7.061 14.8147 7.13382 14.9494 7.05606L15.2366 6.89026C15.3712 6.8125 15.3914 6.62794 15.2792 6.52506L14.7267 6.01627C14.6057 5.90275 14.4116 6.01481 14.4474 6.1775Z" fill="url(#paint50_linear_3987_22981)"/>
</g>
<path d="M15.91 6.97002C15.9137 6.91121 15.8756 6.86963 15.8306 6.85666C15.7864 6.84393 15.7327 6.85763 15.7018 6.90505L15.7018 6.90505L15.7015 6.90548C15.6037 7.05935 15.4625 7.19692 15.282 7.3011C15.1034 7.40423 14.9118 7.45877 14.7296 7.46662L14.7296 7.46662L14.7291 7.46664C14.6718 7.4697 14.6338 7.5107 14.6231 7.55498C14.6124 7.59959 14.6283 7.65409 14.6817 7.67958M15.91 6.97002C15.91 6.97006 15.91 6.9701 15.91 6.97014L15.8601 6.96692L15.91 6.9699C15.91 6.96994 15.91 6.96998 15.91 6.97002ZM15.91 6.97002C15.8937 7.24226 15.7429 7.50424 15.4852 7.65304C15.2276 7.80177 14.9255 7.8014 14.6817 7.67958M14.6817 7.67958C14.6818 7.67967 14.682 7.67976 14.6822 7.67986L14.7036 7.63464M14.6817 7.67958C14.6815 7.6795 14.6813 7.67943 14.6812 7.67935L14.7036 7.63464M14.7036 7.63464C14.9329 7.74939 15.2174 7.74992 15.4602 7.60974C15.703 7.46956 15.8448 7.22292 15.8601 6.96692C15.8643 6.90148 15.7791 6.87799 15.7437 6.93232C15.6414 7.09319 15.4942 7.23632 15.307 7.3444C15.1217 7.4514 14.9223 7.50837 14.7318 7.51657C14.667 7.52002 14.6458 7.60739 14.7036 7.63464Z" fill="#88014F" stroke="url(#paint51_linear_3987_22981)" stroke-width="0.1"/>
<path d="M15.2176 5.17493C15.4561 5.03722 15.7525 5.08534 15.9356 5.27592C15.9887 5.33022 15.9749 5.41919 15.9097 5.45682L15.0949 5.92726C15.043 5.9572 14.9742 5.93374 14.9546 5.8759C14.8654 5.61531 14.9687 5.31863 15.2176 5.17493Z" fill="white"/>
<path d="M15.1991 5.3178C15.3799 5.21345 15.6097 5.2763 15.7132 5.45556C15.7303 5.48519 15.743 5.51739 15.751 5.54833L15.1213 5.91185C15.0977 5.88798 15.077 5.8624 15.0599 5.83277C14.9564 5.65351 15.0184 5.42216 15.1991 5.3178Z" fill="url(#paint52_radial_3987_22981)"/>
<path d="M15.2007 5.75114C15.1409 5.64763 15.1759 5.51701 15.2795 5.45725C15.383 5.39749 15.5136 5.43249 15.5733 5.536C15.5913 5.56705 15.601 5.60089 15.6022 5.63371L15.2724 5.82409C15.2431 5.80749 15.2186 5.78219 15.2007 5.75114Z" fill="black"/>
<g filter="url(#filter15_f_3987_22981)">
<path d="M15.2151 5.40057C15.2562 5.41822 15.2296 5.48411 15.1982 5.55723C15.1668 5.63036 15.1426 5.68303 15.1015 5.66538C15.0603 5.64773 15.0524 5.57414 15.0838 5.50102C15.1151 5.42789 15.1739 5.38292 15.2151 5.40057Z" fill="#C7A7A3"/>
<path d="M15.2151 5.40057C15.2562 5.41822 15.2296 5.48411 15.1982 5.55723C15.1668 5.63036 15.1426 5.68303 15.1015 5.66538C15.0603 5.64773 15.0524 5.57414 15.0838 5.50102C15.1151 5.42789 15.1739 5.38292 15.2151 5.40057Z" fill="url(#paint53_radial_3987_22981)"/>
</g>
<g filter="url(#filter16_f_3987_22981)">
<path d="M15.6531 5.43308C15.5924 5.35577 15.5064 5.32073 15.471 5.31288L15.4362 5.47184L15.5272 5.53045L15.6531 5.43308Z" fill="url(#paint54_linear_3987_22981)"/>
</g>
<path d="M13.471 6.18318C13.2325 6.3209 13.1259 6.60169 13.1994 6.85557C13.2199 6.92869 13.3039 6.96121 13.3691 6.92357L14.1839 6.4531C14.2358 6.42317 14.2499 6.3518 14.2096 6.30594C14.0285 6.09836 13.7185 6.04033 13.471 6.18318Z" fill="white"/>
<path d="M13.6039 6.23869C13.4231 6.34305 13.3626 6.57356 13.4661 6.75283C13.4832 6.78246 13.5048 6.80953 13.5276 6.83192L14.1573 6.46838C14.1484 6.43595 14.1366 6.40523 14.1195 6.3756C14.0145 6.19718 13.7847 6.13434 13.6039 6.23869Z" fill="url(#paint55_radial_3987_22981)"/>
<path d="M13.9779 6.45702C13.9181 6.3535 13.7875 6.3185 13.684 6.37826C13.5805 6.43803 13.5455 6.56865 13.6053 6.67217C13.6232 6.70322 13.6477 6.72853 13.6755 6.74598L14.0052 6.55559C14.004 6.52277 13.9958 6.48807 13.9779 6.45702Z" fill="black"/>
<g filter="url(#filter17_f_3987_22981)">
<path d="M14.0679 6.35451C14.007 6.24918 13.8808 6.22841 13.8454 6.22056L13.7989 6.38323L13.9399 6.47776L14.0679 6.35451Z" fill="url(#paint56_linear_3987_22981)"/>
</g>
<g filter="url(#filter18_f_3987_22981)">
<ellipse cx="13.5858" cy="6.43505" rx="0.163995" ry="0.0829968" transform="rotate(-57.914 13.5858 6.43505)" fill="#C7A7A3" fill-opacity="0.9"/>
<ellipse cx="13.5858" cy="6.43505" rx="0.163995" ry="0.0829968" transform="rotate(-57.914 13.5858 6.43505)" fill="url(#paint57_radial_3987_22981)"/>
</g>
<g filter="url(#filter19_i_3987_22981)">
<path fill-rule="evenodd" clip-rule="evenodd" d="M14.8049 4.97339C15.0536 4.797 15.2814 4.80226 15.3441 4.81634C15.4515 4.84046 15.558 4.77298 15.5821 4.66564C15.6063 4.55829 15.5388 4.45171 15.4314 4.42759C15.2601 4.38909 14.9165 4.40579 14.5744 4.64838C14.4846 4.71203 14.4635 4.83638 14.5271 4.92612C14.5908 5.01587 14.7151 5.03703 14.8049 4.97339Z" fill="#261629"/>
</g>
<g filter="url(#filter20_i_3987_22981)">
<path fill-rule="evenodd" clip-rule="evenodd" d="M13.5049 5.72413C13.2278 5.85134 13.1184 6.05129 13.0993 6.1126C13.0665 6.21763 12.9548 6.27619 12.8497 6.24341C12.7447 6.21062 12.6862 6.0989 12.7189 5.99387C12.7713 5.82621 12.9576 5.53698 13.3387 5.36202C13.4387 5.31612 13.5569 5.35997 13.6028 5.45997C13.6487 5.55996 13.6049 5.67823 13.5049 5.72413Z" fill="#261629"/>
</g>
<path d="M12.3823 6.9453L11.8885 6.09L12.3254 5.83774C12.3373 5.89823 12.3521 6.05114 12.3155 6.17883C12.279 6.30653 12.3306 6.4596 12.3754 6.53713L12.6685 7.04487C12.5708 7.10131 12.4458 7.0654 12.3823 6.9453Z" fill="url(#paint58_linear_3987_22981)"/>
<path d="M16.4572 4.59268L15.9634 3.73738L15.5264 3.98964C15.5728 4.03024 15.6979 4.11947 15.8267 4.15167C15.9556 4.18387 16.0624 4.3051 16.1071 4.38264L16.3829 4.90042C16.4806 4.84398 16.5294 4.70776 16.4572 4.59268Z" fill="url(#paint59_linear_3987_22981)"/>
<g filter="url(#filter21_i_3987_22981)">
<path d="M12.3651 5.32602C12.1822 5.58243 12.0502 5.86789 11.9513 6.20233L12.2084 6.30207C12.4016 6.37543 12.6219 6.3018 12.7282 6.12361C12.9171 5.81019 13.2897 5.31772 13.9429 4.94056C14.5962 4.5634 15.209 4.48697 15.5748 4.48012C15.7823 4.4771 15.9562 4.32318 15.9856 4.12129L16.0278 3.84877C15.6887 3.76718 15.3776 3.74243 15.062 3.76892C13.9784 3.86417 12.9894 4.43518 12.3651 5.32602Z" fill="url(#paint60_radial_3987_22981)"/>
<path d="M12.3651 5.32602C12.1822 5.58243 12.0502 5.86789 11.9513 6.20233L12.2084 6.30207C12.4016 6.37543 12.6219 6.3018 12.7282 6.12361C12.9171 5.81019 13.2897 5.31772 13.9429 4.94056C14.5962 4.5634 15.209 4.48697 15.5748 4.48012C15.7823 4.4771 15.9562 4.32318 15.9856 4.12129L16.0278 3.84877C15.6887 3.76718 15.3776 3.74243 15.062 3.76892C13.9784 3.86417 12.9894 4.43518 12.3651 5.32602Z" fill="url(#paint61_radial_3987_22981)"/>
</g>
<path d="M13.2013 2.7705C13.7269 2.46708 14.3211 2.33324 14.8808 2.53565C15.3111 2.69106 15.7722 3.16937 16.0282 3.84878C15.6891 3.76718 15.378 3.74243 15.0624 3.76892C13.9788 3.86417 12.9897 4.43518 12.3654 5.32602C12.1826 5.58243 12.0506 5.86789 11.9517 6.20234C11.4892 5.63727 11.3076 5.00248 11.3882 4.55208C11.4927 3.96619 11.9058 3.51849 12.4313 3.21508L13.2013 2.7705Z" fill="url(#paint62_radial_3987_22981)"/>
<path d="M13.2013 2.7705C13.7269 2.46708 14.3211 2.33324 14.8808 2.53565C15.3111 2.69106 15.7722 3.16937 16.0282 3.84878C15.6891 3.76718 15.378 3.74243 15.0624 3.76892C13.9788 3.86417 12.9897 4.43518 12.3654 5.32602C12.1826 5.58243 12.0506 5.86789 11.9517 6.20234C11.4892 5.63727 11.3076 5.00248 11.3882 4.55208C11.4927 3.96619 11.9058 3.51849 12.4313 3.21508L13.2013 2.7705Z" fill="url(#paint63_radial_3987_22981)"/>
<path d="M13.2013 2.7705C13.7269 2.46708 14.3211 2.33324 14.8808 2.53565C15.3111 2.69106 15.7722 3.16937 16.0282 3.84878C15.6891 3.76718 15.378 3.74243 15.0624 3.76892C13.9788 3.86417 12.9897 4.43518 12.3654 5.32602C12.1826 5.58243 12.0506 5.86789 11.9517 6.20234C11.4892 5.63727 11.3076 5.00248 11.3882 4.55208C11.4927 3.96619 11.9058 3.51849 12.4313 3.21508L13.2013 2.7705Z" fill="url(#paint64_radial_3987_22981)"/>
<path d="M13.2013 2.7705C13.7269 2.46708 14.3211 2.33324 14.8808 2.53565C15.3111 2.69106 15.7722 3.16937 16.0282 3.84878C15.6891 3.76718 15.378 3.74243 15.0624 3.76892C13.9788 3.86417 12.9897 4.43518 12.3654 5.32602C12.1826 5.58243 12.0506 5.86789 11.9517 6.20234C11.4892 5.63727 11.3076 5.00248 11.3882 4.55208C11.4927 3.96619 11.9058 3.51849 12.4313 3.21508L13.2013 2.7705Z" fill="url(#paint65_radial_3987_22981)"/>
<defs>
<filter id="filter0_ii_3987_22981" x="16.2206" y="3.89553" width="8.47128" height="7.17588" filterUnits="userSpaceOnUse" color-interpolation-filters="sRGB">
<feFlood flood-opacity="0" result="BackgroundImageFix"/>
<feBlend mode="normal" in="SourceGraphic" in2="BackgroundImageFix" result="shape"/>
<feColorMatrix in="SourceAlpha" type="matrix" values="0 0 0 0 0 0 0 0 0 0 0 0 0 0 0 0 0 0 127 0" result="hardAlpha"/>
<feOffset dx="1"/>
<feGaussianBlur stdDeviation="0.5"/>
<feComposite in2="hardAlpha" operator="arithmetic" k2="-1" k3="1"/>
<feColorMatrix type="matrix" values="0 0 0 0 0.447059 0 0 0 0 0.262745 0 0 0 0 0.247059 0 0 0 1 0"/>
<feBlend mode="normal" in2="shape" result="effect1_innerShadow_3987_22981"/>
<feColorMatrix in="SourceAlpha" type="matrix" values="0 0 0 0 0 0 0 0 0 0 0 0 0 0 0 0 0 0 127 0" result="hardAlpha"/>
<feOffset dx="0.15" dy="-0.15"/>
<feGaussianBlur stdDeviation="0.25"/>
<feComposite in2="hardAlpha" operator="arithmetic" k2="-1" k3="1"/>
<feColorMatrix type="matrix" values="0 0 0 0 0.529412 0 0 0 0 0.380392 0 0 0 0 0.34902 0 0 0 1 0"/>
<feBlend mode="normal" in2="effect1_innerShadow_3987_22981" result="effect2_innerShadow_3987_22981"/>
</filter>
<filter id="filter1_i_3987_22981" x="6.90662" y="2.30037" width="18.1866" height="14.1935" filterUnits="userSpaceOnUse" color-interpolation-filters="sRGB">
<feFlood flood-opacity="0" result="BackgroundImageFix"/>
<feBlend mode="normal" in="SourceGraphic" in2="BackgroundImageFix" result="shape"/>
<feColorMatrix in="SourceAlpha" type="matrix" values="0 0 0 0 0 0 0 0 0 0 0 0 0 0 0 0 0 0 127 0" result="hardAlpha"/>
<feOffset dy="-0.2"/>
<feGaussianBlur stdDeviation="0.2"/>
<feComposite in2="hardAlpha" operator="arithmetic" k2="-1" k3="1"/>
<feColorMatrix type="matrix" values="0 0 0 0 0.568627 0 0 0 0 0.454902 0 0 0 0 0.647059 0 0 0 1 0"/>
<feBlend mode="normal" in2="shape" result="effect1_innerShadow_3987_22981"/>
</filter>
<filter id="filter2_i_3987_22981" x="18.1771" y="27.934" width="4.79297" height="2.26953" filterUnits="userSpaceOnUse" color-interpolation-filters="sRGB">
<feFlood flood-opacity="0" result="BackgroundImageFix"/>
<feBlend mode="normal" in="SourceGraphic" in2="BackgroundImageFix" result="shape"/>
<feColorMatrix in="SourceAlpha" type="matrix" values="0 0 0 0 0 0 0 0 0 0 0 0 0 0 0 0 0 0 127 0" result="hardAlpha"/>
<feOffset dx="0.5" dy="-0.5"/>
<feGaussianBlur stdDeviation="0.5"/>
<feComposite in2="hardAlpha" operator="arithmetic" k2="-1" k3="1"/>
<feColorMatrix type="matrix" values="0 0 0 0 0.262745 0 0 0 0 0.188235 0 0 0 0 0.341176 0 0 0 1 0"/>
<feBlend mode="normal" in2="shape" result="effect1_innerShadow_3987_22981"/>
</filter>
<filter id="filter3_i_3987_22981" x="12.1605" y="15.9691" width="8.9895" height="12.4766" filterUnits="userSpaceOnUse" color-interpolation-filters="sRGB">
<feFlood flood-opacity="0" result="BackgroundImageFix"/>
<feBlend mode="normal" in="SourceGraphic" in2="BackgroundImageFix" result="shape"/>
<feColorMatrix in="SourceAlpha" type="matrix" values="0 0 0 0 0 0 0 0 0 0 0 0 0 0 0 0 0 0 127 0" result="hardAlpha"/>
<feOffset dx="0.5"/>
<feGaussianBlur stdDeviation="0.5"/>
<feComposite in2="hardAlpha" operator="arithmetic" k2="-1" k3="1"/>
<feColorMatrix type="matrix" values="0 0 0 0 0.67451 0 0 0 0 0.635294 0 0 0 0 0.686275 0 0 0 1 0"/>
<feBlend mode="normal" in2="shape" result="effect1_innerShadow_3987_22981"/>
</filter>
<filter id="filter4_ii_3987_22981" x="14.3505" y="3.85547" width="7.55347" height="7.56687" filterUnits="userSpaceOnUse" color-interpolation-filters="sRGB">
<feFlood flood-opacity="0" result="BackgroundImageFix"/>
<feBlend mode="normal" in="SourceGraphic" in2="BackgroundImageFix" result="shape"/>
<feColorMatrix in="SourceAlpha" type="matrix" values="0 0 0 0 0 0 0 0 0 0 0 0 0 0 0 0 0 0 127 0" result="hardAlpha"/>
<feOffset dx="0.25" dy="0.15"/>
<feGaussianBlur stdDeviation="0.25"/>
<feComposite in2="hardAlpha" operator="arithmetic" k2="-1" k3="1"/>
<feColorMatrix type="matrix" values="0 0 0 0 0.435294 0 0 0 0 0.278431 0 0 0 0 0.239216 0 0 0 1 0"/>
<feBlend mode="normal" in2="shape" result="effect1_innerShadow_3987_22981"/>
<feColorMatrix in="SourceAlpha" type="matrix" values="0 0 0 0 0 0 0 0 0 0 0 0 0 0 0 0 0 0 127 0" result="hardAlpha"/>
<feOffset dy="-0.25"/>
<feGaussianBlur stdDeviation="0.25"/>
<feComposite in2="hardAlpha" operator="arithmetic" k2="-1" k3="1"/>
<feColorMatrix type="matrix" values="0 0 0 0 0.494118 0 0 0 0 0.309804 0 0 0 0 0.345098 0 0 0 1 0"/>
<feBlend mode="normal" in2="effect1_innerShadow_3987_22981" result="effect2_innerShadow_3987_22981"/>
</filter>
<filter id="filter5_i_3987_22981" x="14.3129" y="8.43005" width="3.39526" height="2.90918" filterUnits="userSpaceOnUse" color-interpolation-filters="sRGB">
<feFlood flood-opacity="0" result="BackgroundImageFix"/>
<feBlend mode="normal" in="SourceGraphic" in2="BackgroundImageFix" result="shape"/>
<feColorMatrix in="SourceAlpha" type="matrix" values="0 0 0 0 0 0 0 0 0 0 0 0 0 0 0 0 0 0 127 0" result="hardAlpha"/>
<feOffset dy="-0.25"/>
<feGaussianBlur stdDeviation="0.25"/>
<feComposite in2="hardAlpha" operator="arithmetic" k2="-1" k3="1"/>
<feColorMatrix type="matrix" values="0 0 0 0 0.145098 0 0 0 0 0.4 0 0 0 0 0.835294 0 0 0 1 0"/>
<feBlend mode="normal" in2="shape" result="effect1_innerShadow_3987_22981"/>
</filter>
<filter id="filter6_f_3987_22981" x="8.08682" y="12.5879" width="1.78903" height="3.49683" filterUnits="userSpaceOnUse" color-interpolation-filters="sRGB">
<feFlood flood-opacity="0" result="BackgroundImageFix"/>
<feBlend mode="normal" in="SourceGraphic" in2="BackgroundImageFix" result="shape"/>
<feGaussianBlur stdDeviation="0.125" result="effect1_foregroundBlur_3987_22981"/>
</filter>
<filter id="filter7_f_3987_22981" x="18.4275" y="15.4344" width="2.60079" height="13.6007" filterUnits="userSpaceOnUse" color-interpolation-filters="sRGB">
<feFlood flood-opacity="0" result="BackgroundImageFix"/>
<feBlend mode="normal" in="SourceGraphic" in2="BackgroundImageFix" result="shape"/>
<feGaussianBlur stdDeviation="0.4" result="effect1_foregroundBlur_3987_22981"/>
</filter>
<filter id="filter8_f_3987_22981" x="15.0248" y="16.8754" width="2.5625" height="7.45312" filterUnits="userSpaceOnUse" color-interpolation-filters="sRGB">
<feFlood flood-opacity="0" result="BackgroundImageFix"/>
<feBlend mode="normal" in="SourceGraphic" in2="BackgroundImageFix" result="shape"/>
<feGaussianBlur stdDeviation="0.375" result="effect1_foregroundBlur_3987_22981"/>
</filter>
<filter id="filter9_i_3987_22981" x="12.2082" y="6.49817" width="1.6086" height="1.40857" filterUnits="userSpaceOnUse" color-interpolation-filters="sRGB">
<feFlood flood-opacity="0" result="BackgroundImageFix"/>
<feBlend mode="normal" in="SourceGraphic" in2="BackgroundImageFix" result="shape"/>
<feColorMatrix in="SourceAlpha" type="matrix" values="0 0 0 0 0 0 0 0 0 0 0 0 0 0 0 0 0 0 127 0" result="hardAlpha"/>
<feOffset dx="0.2"/>
<feGaussianBlur stdDeviation="0.15"/>
<feComposite in2="hardAlpha" operator="arithmetic" k2="-1" k3="1"/>
<feColorMatrix type="matrix" values="0 0 0 0 0.517647 0 0 0 0 0.384314 0 0 0 0 0.34902 0 0 0 1 0"/>
<feBlend mode="normal" in2="shape" result="effect1_innerShadow_3987_22981"/>
</filter>
<filter id="filter10_f_3987_22981" x="11.993" y="6.28271" width="1.83951" height="1.83948" filterUnits="userSpaceOnUse" color-interpolation-filters="sRGB">
<feFlood flood-opacity="0" result="BackgroundImageFix"/>
<feBlend mode="normal" in="SourceGraphic" in2="BackgroundImageFix" result="shape"/>
<feGaussianBlur stdDeviation="0.25" result="effect1_foregroundBlur_3987_22981"/>
</filter>
<filter id="filter11_i_3987_22981" x="15.6835" y="4.2417" width="1.6586" height="1.65857" filterUnits="userSpaceOnUse" color-interpolation-filters="sRGB">
<feFlood flood-opacity="0" result="BackgroundImageFix"/>
<feBlend mode="normal" in="SourceGraphic" in2="BackgroundImageFix" result="shape"/>
<feColorMatrix in="SourceAlpha" type="matrix" values="0 0 0 0 0 0 0 0 0 0 0 0 0 0 0 0 0 0 127 0" result="hardAlpha"/>
<feOffset dx="0.25" dy="-0.25"/>
<feGaussianBlur stdDeviation="0.25"/>
<feComposite in2="hardAlpha" operator="arithmetic" k2="-1" k3="1"/>
<feColorMatrix type="matrix" values="0 0 0 0 0.482353 0 0 0 0 0.278431 0 0 0 0 0.372549 0 0 0 1 0"/>
<feBlend mode="normal" in2="shape" result="effect1_innerShadow_3987_22981"/>
</filter>
<filter id="filter12_f_3987_22981" x="15.4679" y="4.27625" width="1.83951" height="1.83948" filterUnits="userSpaceOnUse" color-interpolation-filters="sRGB">
<feFlood flood-opacity="0" result="BackgroundImageFix"/>
<feBlend mode="normal" in="SourceGraphic" in2="BackgroundImageFix" result="shape"/>
<feGaussianBlur stdDeviation="0.25" result="effect1_foregroundBlur_3987_22981"/>
</filter>
<filter id="filter13_f_3987_22981" x="13.7595" y="5.31433" width="2.26978" height="2.62439" filterUnits="userSpaceOnUse" color-interpolation-filters="sRGB">
<feFlood flood-opacity="0" result="BackgroundImageFix"/>
<feBlend mode="normal" in="SourceGraphic" in2="BackgroundImageFix" result="shape"/>
<feGaussianBlur stdDeviation="0.375" result="effect1_foregroundBlur_3987_22981"/>
</filter>
<filter id="filter14_f_3987_22981" x="14.3431" y="5.87009" width="1.10891" height="1.31743" filterUnits="userSpaceOnUse" color-interpolation-filters="sRGB">
<feFlood flood-opacity="0" result="BackgroundImageFix"/>
<feBlend mode="normal" in="SourceGraphic" in2="BackgroundImageFix" result="shape"/>
<feGaussianBlur stdDeviation="0.05" result="effect1_foregroundBlur_3987_22981"/>
</filter>
<filter id="filter15_f_3987_22981" x="14.9646" y="5.29673" width="0.371509" height="0.472095" filterUnits="userSpaceOnUse" color-interpolation-filters="sRGB">
<feFlood flood-opacity="0" result="BackgroundImageFix"/>
<feBlend mode="normal" in="SourceGraphic" in2="BackgroundImageFix" result="shape"/>
<feGaussianBlur stdDeviation="0.05" result="effect1_foregroundBlur_3987_22981"/>
</filter>
<filter id="filter16_f_3987_22981" x="15.2362" y="5.11287" width="0.616827" height="0.617529" filterUnits="userSpaceOnUse" color-interpolation-filters="sRGB">
<feFlood flood-opacity="0" result="BackgroundImageFix"/>
<feBlend mode="normal" in="SourceGraphic" in2="BackgroundImageFix" result="shape"/>
<feGaussianBlur stdDeviation="0.1" result="effect1_foregroundBlur_3987_22981"/>
</filter>
<filter id="filter17_f_3987_22981" x="13.5989" y="6.02058" width="0.668921" height="0.657202" filterUnits="userSpaceOnUse" color-interpolation-filters="sRGB">
<feFlood flood-opacity="0" result="BackgroundImageFix"/>
<feBlend mode="normal" in="SourceGraphic" in2="BackgroundImageFix" result="shape"/>
<feGaussianBlur stdDeviation="0.1" result="effect1_foregroundBlur_3987_22981"/>
</filter>
<filter id="filter18_f_3987_22981" x="13.3738" y="6.18918" width="0.423907" height="0.491626" filterUnits="userSpaceOnUse" color-interpolation-filters="sRGB">
<feFlood flood-opacity="0" result="BackgroundImageFix"/>
<feBlend mode="normal" in="SourceGraphic" in2="BackgroundImageFix" result="shape"/>
<feGaussianBlur stdDeviation="0.05" result="effect1_foregroundBlur_3987_22981"/>
</filter>
<filter id="filter19_i_3987_22981" x="14.4904" y="4.01174" width="1.34665" height="0.998389" filterUnits="userSpaceOnUse" color-interpolation-filters="sRGB">
<feFlood flood-opacity="0" result="BackgroundImageFix"/>
<feBlend mode="normal" in="SourceGraphic" in2="BackgroundImageFix" result="shape"/>
<feColorMatrix in="SourceAlpha" type="matrix" values="0 0 0 0 0 0 0 0 0 0 0 0 0 0 0 0 0 0 127 0" result="hardAlpha"/>
<feOffset dx="0.25" dy="-0.4"/>
<feGaussianBlur stdDeviation="0.3"/>
<feComposite in2="hardAlpha" operator="arithmetic" k2="-1" k3="1"/>
<feColorMatrix type="matrix" values="0 0 0 0 0.156863 0 0 0 0 0.0784314 0 0 0 0 0.109804 0 0 0 1 0"/>
<feBlend mode="normal" in2="shape" result="effect1_innerShadow_3987_22981"/>
</filter>
<filter id="filter20_i_3987_22981" x="12.7098" y="4.94387" width="1.16122" height="1.30869" filterUnits="userSpaceOnUse" color-interpolation-filters="sRGB">
<feFlood flood-opacity="0" result="BackgroundImageFix"/>
<feBlend mode="normal" in="SourceGraphic" in2="BackgroundImageFix" result="shape"/>
<feColorMatrix in="SourceAlpha" type="matrix" values="0 0 0 0 0 0 0 0 0 0 0 0 0 0 0 0 0 0 127 0" result="hardAlpha"/>
<feOffset dx="0.25" dy="-0.4"/>
<feGaussianBlur stdDeviation="0.3"/>
<feComposite in2="hardAlpha" operator="arithmetic" k2="-1" k3="1"/>
<feColorMatrix type="matrix" values="0 0 0 0 0.156863 0 0 0 0 0.0784314 0 0 0 0 0.109804 0 0 0 1 0"/>
<feBlend mode="normal" in2="shape" result="effect1_innerShadow_3987_22981"/>
</filter>
<filter id="filter21_i_3987_22981" x="11.9513" y="3.70879" width="4.07648" height="2.62141" filterUnits="userSpaceOnUse" color-interpolation-filters="sRGB">
<feFlood flood-opacity="0" result="BackgroundImageFix"/>
<feBlend mode="normal" in="SourceGraphic" in2="BackgroundImageFix" result="shape"/>
<feColorMatrix in="SourceAlpha" type="matrix" values="0 0 0 0 0 0 0 0 0 0 0 0 0 0 0 0 0 0 127 0" result="hardAlpha"/>
<feOffset dy="-0.05"/>
<feGaussianBlur stdDeviation="0.05"/>
<feComposite in2="hardAlpha" operator="arithmetic" k2="-1" k3="1"/>
<feColorMatrix type="matrix" values="0 0 0 0 0.160784 0 0 0 0 0.396078 0 0 0 0 0.721569 0 0 0 1 0"/>
<feBlend mode="normal" in2="shape" result="effect1_innerShadow_3987_22981"/>
</filter>
<linearGradient id="paint0_linear_3987_22981" x1="23.0134" y1="5.06653" x2="19.9562" y2="11.0715" gradientUnits="userSpaceOnUse">
<stop stop-color="#82615C"/>
<stop offset="0.798664" stop-color="#7D4F55"/>
</linearGradient>
<radialGradient id="paint1_radial_3987_22981" cx="0" cy="0" r="1" gradientUnits="userSpaceOnUse" gradientTransform="translate(19.3529 6.04731) rotate(146.915) scale(4.92324 2.04943)">
<stop stop-color="#A99797"/>
<stop offset="1" stop-color="#A99797" stop-opacity="0"/>
</radialGradient>
<linearGradient id="paint2_linear_3987_22981" x1="12.4935" y1="9.49714" x2="12.8217" y2="9.96918" gradientUnits="userSpaceOnUse">
<stop offset="0.348988" stop-color="#B39FBC"/>
<stop offset="1" stop-color="#B39FBC" stop-opacity="0"/>
</linearGradient>
<radialGradient id="paint3_radial_3987_22981" cx="0" cy="0" r="1" gradientUnits="userSpaceOnUse" gradientTransform="translate(6.50916 13.6411) rotate(-2.48957) scale(1.43886 5.43915)">
<stop stop-color="#B8ACBD"/>
<stop offset="1" stop-color="#B8ACBD" stop-opacity="0"/>
</radialGradient>
<linearGradient id="paint4_linear_3987_22981" x1="24.9156" y1="3.01606" x2="22.775" y2="4.32856" gradientUnits="userSpaceOnUse">
<stop stop-color="#533D66"/>
<stop offset="1" stop-color="#482A5B"/>
</linearGradient>
<linearGradient id="paint5_linear_3987_22981" x1="23.8844" y1="4.01606" x2="23.6188" y2="3.48481" gradientUnits="userSpaceOnUse">
<stop stop-color="#482C58"/>
<stop offset="1" stop-color="#482C58" stop-opacity="0"/>
</linearGradient>
<radialGradient id="paint6_radial_3987_22981" cx="0" cy="0" r="1" gradientUnits="userSpaceOnUse" gradientTransform="translate(24.8414 2.89497) rotate(149.642) scale(0.316888 0.431488)">
<stop offset="0.181008" stop-color="#615273"/>
<stop offset="1" stop-color="#615273" stop-opacity="0"/>
</radialGradient>
<linearGradient id="paint7_linear_3987_22981" x1="12.6967" y1="30.3519" x2="12.6967" y2="29.6801" gradientUnits="userSpaceOnUse">
<stop stop-color="#442563"/>
<stop offset="1" stop-color="#442563" stop-opacity="0"/>
</linearGradient>
<radialGradient id="paint8_radial_3987_22981" cx="0" cy="0" r="1" gradientUnits="userSpaceOnUse" gradientTransform="translate(14.1342 29.5004) rotate(-151.821) scale(0.992649 0.520584)">
<stop stop-color="#403451"/>
<stop offset="1" stop-color="#403451" stop-opacity="0"/>
</radialGradient>
<radialGradient id="paint9_radial_3987_22981" cx="0" cy="0" r="1" gradientUnits="userSpaceOnUse" gradientTransform="translate(12.7435 26.9926) rotate(131.958) scale(1.14514 1.55778)">
<stop offset="0.115085" stop-color="#271938"/>
<stop offset="1" stop-color="#271938" stop-opacity="0"/>
</radialGradient>
<radialGradient id="paint10_radial_3987_22981" cx="0" cy="0" r="1" gradientUnits="userSpaceOnUse" gradientTransform="translate(11.3685 28.391) rotate(10.8855) scale(0.827388 3.1027)">
<stop stop-color="#655E6D"/>
<stop offset="1" stop-color="#655E6D" stop-opacity="0"/>
</radialGradient>
<linearGradient id="paint11_linear_3987_22981" x1="20.4781" y1="22.891" x2="19.8844" y2="22.8597" gradientUnits="userSpaceOnUse">
<stop stop-color="#A19CA8"/>
<stop offset="1" stop-color="#A49FAA" stop-opacity="0"/>
</linearGradient>
<radialGradient id="paint12_radial_3987_22981" cx="0" cy="0" r="1" gradientUnits="userSpaceOnUse" gradientTransform="translate(13.1656 27.9535) rotate(-42.9546) scale(3.71468 1.19248)">
<stop stop-color="#937DA8"/>
<stop offset="1" stop-color="#937DA8" stop-opacity="0"/>
</radialGradient>
<radialGradient id="paint13_radial_3987_22981" cx="0" cy="0" r="1" gradientUnits="userSpaceOnUse" gradientTransform="translate(12.275 26.2972) rotate(-46.0354) scale(3.66872 0.402075)">
<stop offset="0.284564" stop-color="#9F9C9D"/>
<stop offset="1" stop-color="#9F9C9D" stop-opacity="0"/>
</radialGradient>
<radialGradient id="paint14_radial_3987_22981" cx="0" cy="0" r="1" gradientUnits="userSpaceOnUse" gradientTransform="translate(17.3688 21.641) rotate(-180) scale(0.765625 5.02098)">
<stop offset="0.000540103" stop-color="#827A8B"/>
<stop offset="1" stop-color="#827A8B" stop-opacity="0"/>
</radialGradient>
<radialGradient id="paint15_radial_3987_22981" cx="0" cy="0" r="1" gradientUnits="userSpaceOnUse" gradientTransform="translate(17.6188 18.3129) rotate(-87.2737) scale(0.98549 1.15323)">
<stop offset="0.153846" stop-color="#7F5D9D"/>
<stop offset="1" stop-color="#9C8CAD" stop-opacity="0"/>
</radialGradient>
<radialGradient id="paint16_radial_3987_22981" cx="0" cy="0" r="1" gradientUnits="userSpaceOnUse" gradientTransform="translate(17.9781 23.0004) scale(0.78125 7.6823)">
<stop stop-color="#5D5467"/>
<stop offset="1" stop-color="#8C7E97" stop-opacity="0"/>
</radialGradient>
<radialGradient id="paint17_radial_3987_22981" cx="0" cy="0" r="1" gradientUnits="userSpaceOnUse" gradientTransform="translate(13.6656 28.016) rotate(-44.4695) scale(4.77318 1.72432)">
<stop stop-color="#8C6FA7"/>
<stop offset="1" stop-color="#8C6FA7" stop-opacity="0"/>
</radialGradient>
<radialGradient id="paint18_radial_3987_22981" cx="0" cy="0" r="1" gradientUnits="userSpaceOnUse" gradientTransform="translate(19.7906 9.98472) rotate(150.356) scale(4.42262 6.15908)">
<stop stop-color="#53AFF7"/>
<stop offset="1" stop-color="#347FDA"/>
</radialGradient>
<radialGradient id="paint19_radial_3987_22981" cx="0" cy="0" r="1" gradientUnits="userSpaceOnUse" gradientTransform="translate(17.2791 7.27795) rotate(78.1592) scale(2.79754 4.7274)">
<stop offset="0.305939" stop-color="#3090BC"/>
<stop offset="1" stop-color="#3090BC" stop-opacity="0"/>
</radialGradient>
<linearGradient id="paint20_linear_3987_22981" x1="17.2791" y1="16.2972" x2="17.2791" y2="13.1097" gradientUnits="userSpaceOnUse">
<stop offset="0.0392156" stop-color="#366BC5"/>
<stop offset="1" stop-color="#366BC5" stop-opacity="0"/>
</linearGradient>
<radialGradient id="paint21_radial_3987_22981" cx="0" cy="0" r="1" gradientUnits="userSpaceOnUse" gradientTransform="translate(15.2906 7.98472) rotate(61.2323) scale(1.81815 2.96678)">
<stop offset="0.284934" stop-color="#246C9D"/>
<stop offset="1" stop-color="#246C9D" stop-opacity="0"/>
</radialGradient>
<radialGradient id="paint22_radial_3987_22981" cx="0" cy="0" r="1" gradientUnits="userSpaceOnUse" gradientTransform="translate(13.4781 10.391) rotate(-0.520857) scale(1.71882 6.46923)">
<stop stop-color="#56A2E0"/>
<stop offset="1" stop-color="#56A2E0" stop-opacity="0"/>
</radialGradient>
<radialGradient id="paint23_radial_3987_22981" cx="0" cy="0" r="1" gradientUnits="userSpaceOnUse" gradientTransform="translate(21.7606 4.47083) rotate(179.579) scale(0.64638 0.858104)">
<stop offset="0.183294" stop-color="#8C6D67"/>
<stop offset="1" stop-color="#794B50"/>
</radialGradient>
<radialGradient id="paint24_radial_3987_22981" cx="0" cy="0" r="1" gradientUnits="userSpaceOnUse" gradientTransform="translate(22.2796 4.22473) rotate(179.579) scale(0.64638 0.858104)">
<stop offset="0.183294" stop-color="#8C6D67"/>
<stop offset="1" stop-color="#794B50"/>
</radialGradient>
<radialGradient id="paint25_radial_3987_22981" cx="0" cy="0" r="1" gradientUnits="userSpaceOnUse" gradientTransform="translate(22.8489 3.97083) rotate(179.579) scale(0.64638 0.858104)">
<stop offset="0.183294" stop-color="#8C6D67"/>
<stop offset="1" stop-color="#794B50"/>
</radialGradient>
<radialGradient id="paint26_radial_3987_22981" cx="0" cy="0" r="1" gradientUnits="userSpaceOnUse" gradientTransform="translate(22.3692 4.48596) rotate(92.97) scale(0.474156 0.467843)">
<stop stop-color="#876B66"/>
<stop offset="1" stop-color="#79534A"/>
</radialGradient>
<radialGradient id="paint27_radial_3987_22981" cx="0" cy="0" r="1" gradientUnits="userSpaceOnUse" gradientTransform="translate(17.5762 5.62537) rotate(4.52245) scale(3.81576 7.91064)">
<stop offset="0.628834" stop-color="#917169" stop-opacity="0"/>
<stop offset="1" stop-color="#917169"/>
</radialGradient>
<linearGradient id="paint28_linear_3987_22981" x1="16.0105" y1="8.68005" x2="16.0105" y2="10.891" gradientUnits="userSpaceOnUse">
<stop stop-color="#2D9DE0"/>
<stop offset="1" stop-color="#3083EA"/>
</linearGradient>
<radialGradient id="paint29_radial_3987_22981" cx="0" cy="0" r="1" gradientUnits="userSpaceOnUse" gradientTransform="translate(14.0406 9.79724) rotate(7.04551) scale(1.73183 4.58209)">
<stop offset="0.204232" stop-color="#579FDE"/>
<stop offset="1" stop-color="#579FDE" stop-opacity="0"/>
</radialGradient>
<radialGradient id="paint30_radial_3987_22981" cx="0" cy="0" r="1" gradientUnits="userSpaceOnUse" gradientTransform="translate(16.1813 8.78162) rotate(84.8056) scale(0.517751 1.9965)">
<stop stop-color="#2F89B9"/>
<stop offset="1" stop-color="#2F89B9" stop-opacity="0"/>
</radialGradient>
<linearGradient id="paint31_linear_3987_22981" x1="19.7435" y1="16.9222" x2="19.7435" y2="27.8285" gradientUnits="userSpaceOnUse">
<stop stop-color="#A89EB3"/>
<stop offset="1" stop-color="#A599B3"/>
</linearGradient>
<linearGradient id="paint32_linear_3987_22981" x1="16.306" y1="18.3597" x2="16.306" y2="24.9222" gradientUnits="userSpaceOnUse">
<stop stop-color="#A59AB1"/>
<stop offset="1" stop-color="#A59AB1" stop-opacity="0"/>
</linearGradient>
<radialGradient id="paint33_radial_3987_22981" cx="0" cy="0" r="1" gradientUnits="userSpaceOnUse" gradientTransform="translate(12.2083 7.20245) scale(0.740212 1.29538)">
<stop offset="0.350532" stop-color="#664249"/>
<stop offset="1" stop-color="#613641"/>
</radialGradient>
<linearGradient id="paint34_linear_3987_22981" x1="12.9128" y1="7.31998" x2="12.6426" y2="7.31998" gradientUnits="userSpaceOnUse">
<stop stop-color="#553038"/>
<stop offset="1" stop-color="#59323C"/>
</linearGradient>
<linearGradient id="paint35_linear_3987_22981" x1="16.8461" y1="4.73556" x2="16.5008" y2="5.80538" gradientUnits="userSpaceOnUse">
<stop stop-color="#96776B"/>
<stop offset="1" stop-color="#855A5B"/>
</linearGradient>
<radialGradient id="paint36_radial_3987_22981" cx="0" cy="0" r="1" gradientUnits="userSpaceOnUse" gradientTransform="translate(16.5448 5.08427) rotate(-36.0604) scale(0.431358 0.492339)">
<stop offset="0.542503" stop-color="#7C524C"/>
<stop offset="1" stop-color="#7C524C" stop-opacity="0"/>
</radialGradient>
<radialGradient id="paint37_radial_3987_22981" cx="0" cy="0" r="1" gradientUnits="userSpaceOnUse" gradientTransform="translate(16.3702 5.54239) rotate(-61.4675) scale(0.725233 0.424482)">
<stop offset="0.754913" stop-color="#73443E" stop-opacity="0"/>
<stop offset="0.915553" stop-color="#73443E"/>
</radialGradient>
<radialGradient id="paint38_radial_3987_22981" cx="0" cy="0" r="1" gradientUnits="userSpaceOnUse" gradientTransform="translate(16.3876 5.19597) rotate(44.7077) scale(0.153889 0.198384)">
<stop stop-color="#6C443E"/>
<stop offset="1" stop-color="#6C443E" stop-opacity="0"/>
</radialGradient>
<linearGradient id="paint39_linear_3987_22981" x1="16.2054" y1="5.49098" x2="13.665" y2="7.5074" gradientUnits="userSpaceOnUse">
<stop stop-color="#9B6C5E"/>
<stop offset="1" stop-color="#744D4A"/>
</linearGradient>
<radialGradient id="paint40_radial_3987_22981" cx="0" cy="0" r="1" gradientUnits="userSpaceOnUse" gradientTransform="translate(15.2404 5.23914) rotate(-120) scale(0.551334 0.675704)">
<stop stop-color="#855354"/>
<stop offset="1" stop-color="#855354" stop-opacity="0"/>
</radialGradient>
<radialGradient id="paint41_radial_3987_22981" cx="0" cy="0" r="1" gradientUnits="userSpaceOnUse" gradientTransform="translate(13.6106 6.24536) rotate(-120) scale(0.579607 0.717756)">
<stop stop-color="#6F414D"/>
<stop offset="1" stop-color="#6F414D" stop-opacity="0"/>
</radialGradient>
<linearGradient id="paint42_linear_3987_22981" x1="13.3431" y1="8.45662" x2="14.0135" y2="8.0372" gradientUnits="userSpaceOnUse">
<stop stop-color="#84615A"/>
<stop offset="1" stop-color="#84615A" stop-opacity="0"/>
</linearGradient>
<linearGradient id="paint43_linear_3987_22981" x1="16.8986" y1="5.99577" x2="16.4935" y2="6.18108" gradientUnits="userSpaceOnUse">
<stop stop-color="#966D5F"/>
<stop offset="1" stop-color="#966D5F" stop-opacity="0"/>
</linearGradient>
<radialGradient id="paint44_radial_3987_22981" cx="0" cy="0" r="1" gradientUnits="userSpaceOnUse" gradientTransform="translate(14.1712 5.61154) rotate(60) scale(3.73152 5.04399)">
<stop offset="0.618855" stop-color="#714250" stop-opacity="0"/>
<stop offset="1" stop-color="#5F3E52"/>
</radialGradient>
<radialGradient id="paint45_radial_3987_22981" cx="0" cy="0" r="1" gradientUnits="userSpaceOnUse" gradientTransform="translate(13.9563 4.89088) rotate(60) scale(1.83518 2.70934)">
<stop offset="0.153846" stop-color="#563450"/>
<stop offset="1" stop-color="#633E4F" stop-opacity="0"/>
</radialGradient>
<linearGradient id="paint46_linear_3987_22981" x1="14.5527" y1="6.76645" x2="14.8954" y2="6.56858" gradientUnits="userSpaceOnUse">
<stop stop-color="#754E46"/>
<stop offset="1" stop-color="#754E46" stop-opacity="0"/>
</linearGradient>
<linearGradient id="paint47_linear_3987_22981" x1="15.2792" y1="6.50408" x2="14.9014" y2="6.71504" gradientUnits="userSpaceOnUse">
<stop stop-color="#9D766B"/>
<stop offset="1" stop-color="#9D766B" stop-opacity="0"/>
</linearGradient>
<linearGradient id="paint48_linear_3987_22981" x1="15.164" y1="6.93213" x2="15.0432" y2="6.72281" gradientUnits="userSpaceOnUse">
<stop stop-color="#7C4559"/>
<stop offset="1" stop-color="#7C4559" stop-opacity="0"/>
</linearGradient>
<radialGradient id="paint49_radial_3987_22981" cx="0" cy="0" r="1" gradientUnits="userSpaceOnUse" gradientTransform="translate(15.1056 6.71898) rotate(60) scale(0.0830535 0.266831)">
<stop stop-color="#976F6A"/>
<stop offset="1" stop-color="#976F6A" stop-opacity="0"/>
</radialGradient>
<linearGradient id="paint50_linear_3987_22981" x1="14.5275" y1="5.99374" x2="14.8102" y2="6.48345" gradientUnits="userSpaceOnUse">
<stop stop-color="#764E53"/>
<stop offset="1" stop-color="#764E53" stop-opacity="0"/>
</linearGradient>
<linearGradient id="paint51_linear_3987_22981" x1="15.0544" y1="7.7818" x2="15.0683" y2="7.43891" gradientUnits="userSpaceOnUse">
<stop stop-color="#865E63"/>
<stop offset="0.663171" stop-color="#865E63" stop-opacity="0"/>
</linearGradient>
<radialGradient id="paint52_radial_3987_22981" cx="0" cy="0" r="1" gradientUnits="userSpaceOnUse" gradientTransform="translate(15.299 5.49245) rotate(60) scale(0.34214 0.544212)">
<stop offset="0.80198" stop-color="#7D574A"/>
<stop offset="1" stop-color="#694B43"/>
<stop offset="1" stop-color="#804D49"/>
<stop offset="1" stop-color="#664944"/>
</radialGradient>
<radialGradient id="paint53_radial_3987_22981" cx="0" cy="0" r="1" gradientUnits="userSpaceOnUse" gradientTransform="translate(15.2335 5.57131) rotate(-157.812) scale(0.159527 0.21963)">
<stop offset="0.765532" stop-color="#FFE6E2" stop-opacity="0"/>
<stop offset="0.966159" stop-color="#FFE6E2"/>
</radialGradient>
<linearGradient id="paint54_linear_3987_22981" x1="15.5947" y1="5.34797" x2="15.5208" y2="5.48473" gradientUnits="userSpaceOnUse">
<stop stop-color="#B4948D"/>
<stop offset="1" stop-color="#B4948D" stop-opacity="0"/>
</linearGradient>
<radialGradient id="paint55_radial_3987_22981" cx="0" cy="0" r="1" gradientUnits="userSpaceOnUse" gradientTransform="translate(13.7052 6.41249) rotate(60) scale(0.342158 0.54424)">
<stop offset="0.80198" stop-color="#7D574A"/>
<stop offset="1" stop-color="#694B43"/>
<stop offset="1" stop-color="#804D49"/>
<stop offset="1" stop-color="#664944"/>
</radialGradient>
<linearGradient id="paint56_linear_3987_22981" x1="13.9883" y1="6.27541" x2="13.9145" y2="6.41218" gradientUnits="userSpaceOnUse">
<stop stop-color="#B4948D"/>
<stop offset="1" stop-color="#B4948D" stop-opacity="0"/>
</linearGradient>
<radialGradient id="paint57_radial_3987_22981" cx="0" cy="0" r="1" gradientUnits="userSpaceOnUse" gradientTransform="translate(13.5794 6.5676) rotate(-90.897) scale(0.20799 0.250012)">
<stop offset="0.765532" stop-color="#FFE6E2" stop-opacity="0"/>
<stop offset="0.966159" stop-color="#FFE6E2"/>
</radialGradient>
<linearGradient id="paint58_linear_3987_22981" x1="12.3636" y1="6.4988" x2="12.1836" y2="6.60268" gradientUnits="userSpaceOnUse">
<stop stop-color="#1E191C"/>
<stop offset="1" stop-color="#463F3D"/>
</linearGradient>
<linearGradient id="paint59_linear_3987_22981" x1="16.0798" y1="4.35324" x2="16.2598" y2="4.24935" gradientUnits="userSpaceOnUse">
<stop offset="0.54842" stop-color="#252224"/>
<stop offset="1" stop-color="#5B5A5A"/>
</linearGradient>
<radialGradient id="paint60_radial_3987_22981" cx="0" cy="0" r="1" gradientUnits="userSpaceOnUse" gradientTransform="translate(12.5341 5.98845) rotate(-33.5232) scale(3.24627 12.0294)">
<stop stop-color="#3E82BC"/>
<stop offset="1" stop-color="#1D78B8"/>
</radialGradient>
<radialGradient id="paint61_radial_3987_22981" cx="0" cy="0" r="1" gradientUnits="userSpaceOnUse" gradientTransform="translate(15.1102 4.60881) rotate(-91.6062) scale(0.629826 1.11622)">
<stop stop-color="#3386C4"/>
<stop offset="1" stop-color="#3386C4" stop-opacity="0"/>
</radialGradient>
<radialGradient id="paint62_radial_3987_22981" cx="0" cy="0" r="1" gradientUnits="userSpaceOnUse" gradientTransform="translate(14.7775 3.97063) rotate(153.246) scale(2.78311 2.65355)">
<stop stop-color="#30A2E5"/>
<stop offset="1" stop-color="#1B96DC"/>
</radialGradient>
<radialGradient id="paint63_radial_3987_22981" cx="0" cy="0" r="1" gradientUnits="userSpaceOnUse" gradientTransform="translate(12.1876 5.98252) rotate(-87.8422) scale(2.39851 3.71622)">
<stop stop-color="#4199E0"/>
<stop offset="1" stop-color="#4199E0" stop-opacity="0"/>
</radialGradient>
<radialGradient id="paint64_radial_3987_22981" cx="0" cy="0" r="1" gradientUnits="userSpaceOnUse" gradientTransform="translate(13.8408 4.83353) rotate(-115.648) scale(1.01724 2.24938)">
<stop offset="0.154606" stop-color="#1A7CCC"/>
<stop offset="1" stop-color="#1A7CCC" stop-opacity="0"/>
</radialGradient>
<radialGradient id="paint65_radial_3987_22981" cx="0" cy="0" r="1" gradientUnits="userSpaceOnUse" gradientTransform="translate(12.781 2.98878) rotate(56.6923) scale(0.629235 3.41568)">
<stop stop-color="#4195CB"/>
<stop offset="1" stop-color="#4195CB" stop-opacity="0"/>
</radialGradient>
</defs>
</svg>
