<svg width="32" height="32" viewBox="0 0 32 32" fill="none" xmlns="http://www.w3.org/2000/svg">
<path d="M28.99 30V16.98C28.99 16.44 28.55 15.99 28 15.99H20V12H22V13.19C22 13.64 22.36 14 22.8 14H26.19C26.64 14 27 13.64 27 13.2V4.81C27 4.36 26.64 4 26.2 4H22.81C22.36 4 22 4.36 22 4.81V6H20V2.92C20 2.41 19.59 2 19.08 2H3.92C3.41 2 3 2.41 3 2.92V29.98H4.97998V25.03C4.97998 24.46 5.43998 24 6.00998 24H16.97C17.54 24 18 24.46 18 25.03V30H17.01V25.35C17.01 25.16 16.86 25 16.66 25H14.38C14.19 25 14.03 25.15 14.03 25.35V30H13L11 30H28.99ZM20 27.01V24H21.5C21.78 24 22 24.23 22 24.5V26.5C22 26.78 21.78 27 21.5 27.01H20ZM20 22.01V19H21.5C21.78 19 22 19.23 22 19.5V21.5C22 21.78 21.78 22 21.5 22.01H20ZM22 11H20V7H22V11ZM27 19.5V21.5C27 21.78 26.78 22 26.5 22.01H24.48C24.2 22.01 23.98 21.78 23.98 21.51V19.5C23.98 19.22 24.21 19 24.48 19H26.5C26.78 19 27 19.23 27 19.5ZM27 24.5V26.5C27 26.78 26.78 27 26.5 27.01H24.48C24.2 27.01 23.98 26.78 23.98 26.51V24.5C23.98 24.22 24.21 24 24.48 24H26.5C26.78 24 27 24.23 27 24.5ZM13.01 4.5V6.5C13.01 6.78 12.79 7 12.51 7H10.49C10.21 7 9.98999 6.77 9.98999 6.5V4.5C9.98999 4.22 10.22 4 10.49 4H12.51C12.79 4 13.01 4.23 13.01 4.5ZM13.01 11.5C13.01 11.78 12.79 12 12.51 12H10.49C10.21 12 9.98999 11.77 9.98999 11.5V9.5C9.98999 9.22 10.22 9 10.49 9H12.51C12.79 9 13.01 9.23 13.01 9.5V11.5ZM13.01 14.5V16.5C13.01 16.78 12.79 17 12.51 17.01H10.49C10.21 17.01 9.98999 16.78 9.98999 16.51V14.5C9.98999 14.22 10.22 14 10.49 14H12.51C12.79 14 13.01 14.23 13.01 14.5ZM13.01 19.5V21.5C13.01 21.78 12.79 22 12.51 22.01H10.49C10.21 22.01 9.98999 21.78 9.98999 21.51V19.5C9.98999 19.22 10.22 19 10.49 19H12.51C12.79 19 13.01 19.23 13.01 19.5ZM18.02 21.5C18.02 21.78 17.79 22 17.52 22.01H15.5C15.22 22.01 15 21.78 15 21.51V19.5C15 19.22 15.23 19 15.5 19H17.52C17.8 19 18.02 19.23 18.02 19.5V21.5ZM18.02 14.5V16.5C18.02 16.78 17.79 17 17.52 17.01H15.5C15.22 17.01 15 16.78 15 16.51V14.5C15 14.22 15.23 14 15.5 14H17.52C17.8 14 18.02 14.23 18.02 14.5ZM18.02 11.5C18.02 11.78 17.79 12 17.52 12H15.5C15.22 12 15 11.77 15 11.5V9.5C15 9.22 15.22 9 15.5 9H17.52C17.8 9 18.02 9.23 18.02 9.5V11.5ZM18.02 4.5V6.5C18.02 6.78 17.79 7 17.52 7H15.5C15.22 7 15 6.78 15 6.5V4.5C15 4.22 15.22 4 15.5 4H17.52C17.8 4 18.02 4.23 18.02 4.5ZM8.00999 21.5C8.00999 21.78 7.78999 22 7.50999 22.01H5.48999C5.20999 22.01 4.98999 21.78 4.98999 21.51V19.5C4.98999 19.22 5.21999 19 5.48999 19H7.50999C7.78999 19 8.00999 19.23 8.00999 19.5V21.5ZM8.00999 14.5V16.5C8.00999 16.78 7.78999 17 7.50999 17.01H5.48999C5.20999 17.01 4.98999 16.78 4.98999 16.51V14.5C4.98999 14.22 5.21999 14 5.48999 14H7.50999C7.78999 14 8.00999 14.23 8.00999 14.5ZM8.00999 11.5C8.00999 11.78 7.78999 12 7.50999 12H5.48999C5.20999 12 4.98999 11.77 4.98999 11.5V9.5C4.98999 9.22 5.21999 9 5.48999 9H7.50999C7.78999 9 8.00999 9.23 8.00999 9.5V11.5ZM8.00999 4.5V6.5C8.00999 6.78 7.78999 7 7.50999 7H5.48999C5.20999 7 4.98999 6.77 4.98999 6.5V4.5C4.98999 4.22 5.21999 4 5.48999 4H7.50999C7.78999 4 8.00999 4.23 8.00999 4.5Z" fill="#212121"/>
<path d="M13 30H10.02V25.35C10.02 25.15 10.18 25 10.37 25H12.65C12.84 25 13 25.15 13 25.35V30Z" fill="#212121"/>
<path d="M8.98 25.35V30H6V25.35C6 25.15 6.15 25 6.35 25H8.63C8.83 25 8.98 25.16 8.98 25.35Z" fill="#212121"/>
</svg>
