<svg width="32" height="32" viewBox="0 0 32 32" fill="none" xmlns="http://www.w3.org/2000/svg">
<path d="M20.9125 29.37L1.6525 10.11C0.7825 9.23997 0.7825 7.83997 1.6525 6.97997L5.9625 2.67997C6.8325 1.80997 8.2325 1.80997 9.0925 2.67997L28.3425 21.93C29.2125 22.8 29.2125 24.2 28.3425 25.06L24.0425 29.36C23.1825 30.23 21.7725 30.23 20.9125 29.37Z" fill="url(#paint0_linear_18_23242)"/>
<path fill-rule="evenodd" clip-rule="evenodd" d="M27.929 21.5164L28.3425 21.9299C28.4429 22.0303 28.5317 22.1378 28.6089 22.2506L26.7061 24.1535C26.5108 24.3488 26.1942 24.3488 25.999 24.1535C25.8037 23.9582 25.8037 23.6417 25.999 23.4464L27.929 21.5164ZM25.4492 19.0367L26.1564 19.7439L24.9818 20.9577C24.7898 21.1561 24.4732 21.1613 24.2748 20.9692C24.0764 20.7772 24.0712 20.4607 24.2632 20.2622L25.4492 19.0367ZM23.109 16.6964L23.8161 17.4035L21.8861 19.3335C21.6908 19.5288 21.3742 19.5288 21.179 19.3335C20.9837 19.1382 20.9837 18.8217 21.179 18.6264L23.109 16.6964ZM20.6692 14.2567L21.3764 14.9639L20.2018 16.1777C20.0098 16.3761 19.6932 16.3813 19.4948 16.1892C19.2964 15.9972 19.2912 15.6807 19.4832 15.4822L20.6692 14.2567ZM18.329 11.9164L19.0361 12.6235L17.1061 14.5535C16.9108 14.7488 16.5942 14.7488 16.399 14.5535C16.2037 14.3582 16.2037 14.0417 16.399 13.8464L18.329 11.9164ZM15.9091 9.49655L16.6162 10.2037L15.429 11.4106C15.2353 11.6074 14.9187 11.61 14.7219 11.4164C14.525 11.2227 14.5224 10.9062 14.7161 10.7093L15.9091 9.49655ZM13.559 7.1464L14.2661 7.85351L12.3361 9.7835C12.1408 9.97876 11.8242 9.97876 11.629 9.7835C11.4337 9.58824 11.4337 9.27166 11.629 9.07639L13.559 7.1464ZM11.1292 4.71662L11.8363 5.42378L10.6604 6.62911C10.4676 6.82677 10.151 6.83068 9.95335 6.63784C9.7557 6.445 9.75179 6.12844 9.94462 5.93079L11.1292 4.71662ZM9.48606 3.07351L7.55607 5.0035C7.36081 5.19876 7.04422 5.19876 6.84896 5.0035C6.6537 4.80824 6.6537 4.49166 6.84896 4.29639L8.74924 2.39612C8.87062 2.47731 8.98572 2.57192 9.0925 2.67994L9.48606 3.07351Z" fill="url(#paint1_linear_18_23242)"/>
<path d="M4.99512 29.0205H4.13672L3.09961 25.4111H3.89355L4.55859 28.2471H4.57031L5.28516 25.4111H6.09082L6.78516 28.209H6.79688L7.47656 25.4111H8.24707L7.18945 29.0205H6.36914L5.70996 26.3047H5.70117L4.99512 29.0205Z" fill="#FFC444"/>
<path d="M9.60352 29H8.85938V25.4111H9.60352V29Z" fill="#FFC444"/>
<path d="M10.5996 29V25.4111H12.0322C12.3057 25.4111 12.5439 25.459 12.7471 25.5547C12.9521 25.6504 13.1104 25.79 13.2217 25.9736C13.333 26.1572 13.3887 26.377 13.3887 26.6328C13.3887 26.8887 13.333 27.1084 13.2217 27.292C13.1104 27.4756 12.9521 27.6162 12.7471 27.7139C12.5439 27.8096 12.3057 27.8574 12.0322 27.8574H11.3467V29H10.5996ZM11.918 27.2598C12.1523 27.2598 12.332 27.209 12.457 27.1074C12.582 27.0039 12.6445 26.8457 12.6445 26.6328C12.6445 26.4199 12.582 26.2627 12.457 26.1611C12.332 26.0576 12.1523 26.0059 11.918 26.0059H11.3467V27.2598H11.918Z" fill="#FFC444"/>
<path d="M0 0V-2H-2V0H0ZM32 0H34V-2H32V0ZM32 32V34H34V32H32ZM0 32H-2V34H0V32ZM0 2H32V-2H0V2ZM30 0V32H34V0H30ZM32 30H0V34H32V30ZM2 32V0H-2V32H2Z" fill="#FFC444"/>
<defs>
<linearGradient id="paint0_linear_18_23242" x1="18.7212" y1="12.3052" x2="11.2864" y2="19.7401" gradientUnits="userSpaceOnUse">
<stop stop-color="#DCDCDC"/>
<stop offset="0.419" stop-color="#E6E6E6"/>
<stop offset="1" stop-color="#CCCCCC"/>
</linearGradient>
<linearGradient id="paint1_linear_18_23242" x1="19" y1="11.9999" x2="16" y2="14.9999" gradientUnits="userSpaceOnUse">
<stop stop-color="#9C72E8"/>
<stop offset="1" stop-color="#9D73E9"/>
</linearGradient>
</defs>
</svg>
