<svg width="32" height="32" viewBox="0 0 32 32" fill="none" xmlns="http://www.w3.org/2000/svg">
<path d="M18.7531 5.39696C18.6631 5.37696 18.5731 5.46696 18.5531 5.57696C18.5451 5.62358 18.5474 5.67138 18.5601 5.71696L18.8201 5.75696C18.8516 5.72389 18.8725 5.68208 18.8801 5.63696C18.8876 5.60204 18.8876 5.56589 18.8801 5.53096C18.8737 5.53659 18.8662 5.54076 18.8581 5.54318C18.85 5.54559 18.8414 5.54621 18.8331 5.54496C18.8247 5.54297 18.8168 5.53934 18.8099 5.53428C18.8029 5.52922 18.797 5.52283 18.7926 5.51548C18.7881 5.50814 18.7851 5.49998 18.7839 5.49148C18.7826 5.48298 18.783 5.4743 18.7851 5.46596C18.7876 5.44893 18.7961 5.43334 18.8091 5.42196C18.7924 5.40965 18.7733 5.40112 18.7531 5.39696Z" fill="black"/>
<path d="M18.3852 5.57396C18.3784 5.61098 18.3784 5.64894 18.3852 5.68596L18.1072 5.63696C18.0767 5.63025 18.0502 5.61176 18.0333 5.58553C18.0165 5.55929 18.0107 5.52745 18.0172 5.49696V5.48696C18.0457 5.37351 18.1142 5.27415 18.21 5.20711C18.3059 5.14007 18.4227 5.10986 18.5391 5.12202C18.6554 5.13417 18.7635 5.18788 18.8434 5.27329C18.8833 5.31597 18.9149 5.36514 18.9371 5.41823C18.9642 5.46991 18.9771 5.52814 18.9742 5.58696C18.972 5.52848 18.9593 5.47139 18.9371 5.41823C18.9303 5.40529 18.9226 5.39276 18.9141 5.38073C18.8714 5.32069 18.8098 5.27674 18.7392 5.25596C18.5752 5.22396 18.4152 5.37396 18.3852 5.57396Z" fill="black"/>
<path d="M18.0394 6.60563C18.0232 6.62795 18.0166 6.65576 18.021 6.68294C18.0322 6.75547 18.0576 6.82507 18.0958 6.88777C18.1339 6.95046 18.1841 7.00501 18.2433 7.0483C18.3026 7.09158 18.3698 7.12275 18.4412 7.14002C18.5125 7.1573 18.5865 7.16033 18.659 7.14894C18.6725 7.14678 18.6854 7.14198 18.697 7.13483C18.7086 7.12767 18.7187 7.1183 18.7267 7.10725C18.7346 7.0962 18.7404 7.08369 18.7435 7.07042C18.7467 7.05716 18.7472 7.0434 18.745 7.02994C18.7429 7.01648 18.7381 7.00358 18.7309 6.99197C18.7237 6.98037 18.7144 6.97028 18.7033 6.9623C18.6923 6.95431 18.6798 6.94858 18.6665 6.94543C18.6532 6.94228 18.6395 6.94177 18.626 6.94394C18.5804 6.95118 18.5338 6.94929 18.489 6.9384C18.4441 6.9275 18.4018 6.90781 18.3646 6.88047C18.3274 6.85312 18.296 6.81867 18.2722 6.77909C18.2484 6.73952 18.2327 6.69563 18.226 6.64994C18.2216 6.62276 18.2066 6.59842 18.1843 6.5823C18.162 6.56617 18.1342 6.55957 18.107 6.56394C18.0798 6.56832 18.0555 6.58331 18.0394 6.60563Z" fill="black"/>
<path d="M11.3002 22.6069C11.5336 22.6069 11.7617 22.6761 11.9558 22.8058C12.1498 22.9355 12.3011 23.1198 12.3904 23.3354C12.4797 23.551 12.5031 23.7882 12.4576 24.0171C12.412 24.246 12.2996 24.4563 12.1346 24.6213C11.9696 24.7863 11.7593 24.8987 11.5304 24.9443C11.3015 24.9898 11.0643 24.9664 10.8487 24.8771C10.633 24.7878 10.4487 24.6366 10.3191 24.4425C10.1894 24.2485 10.1202 24.0203 10.1202 23.7869C10.1202 23.474 10.2445 23.1738 10.4658 22.9525C10.6871 22.7313 10.9873 22.6069 11.3002 22.6069Z" fill="black"/>
<path d="M5.50011 21.254C5.94064 20.2462 6.63623 19.3708 7.5183 18.7139C8.40036 18.057 9.43843 17.6413 10.5301 17.508L10.8491 15.663L10.3621 13.656C10.2961 13.3755 10.2961 13.0835 10.3621 12.803L10.1961 12.239H7.67411C7.50437 12.239 7.34158 12.1715 7.22156 12.0515C7.10153 11.9315 7.03411 11.7687 7.03411 11.599C7.03411 11.4292 7.10153 11.2664 7.22156 11.1464C7.34158 11.0264 7.50437 10.959 7.67411 10.959H10.7161C10.7498 10.9639 10.7832 10.9709 10.8161 10.98C10.8677 10.99 10.918 11.0058 10.9661 11.027L10.9841 11.039L11.0001 11.057C11.0607 11.0926 11.115 11.1379 11.1611 11.191L11.1671 11.2C11.2163 11.2591 11.254 11.3269 11.2781 11.4L11.6601 10.954L11.9001 9.54795V9.51895L11.9071 9.48895C12.0298 8.97132 12.2758 8.49101 12.6241 8.08895C12.645 8.06519 12.6679 8.04367 12.6907 8.02221C12.7082 8.00575 12.7256 7.98932 12.7421 7.97195C12.4997 7.58723 12.3692 7.14264 12.3651 6.68795C12.361 6.34003 12.4355 5.99567 12.583 5.68054C12.7305 5.36542 12.9473 5.08765 13.2171 4.86795C13.276 4.81912 13.3374 4.77339 13.4011 4.73095C13.3959 4.2163 13.4489 3.7027 13.5591 3.19995C13.6381 2.5734 13.9488 1.9991 14.43 1.5901C14.9112 1.1811 15.528 0.967003 16.1591 0.989953C16.7575 0.998644 17.3463 1.14149 17.8821 1.40795C17.963 1.45453 18.0498 1.49017 18.1401 1.51395C18.212 1.506 18.2834 1.49431 18.3541 1.47895C18.4601 1.45895 18.5781 1.43695 18.7181 1.41595C18.8063 1.40133 18.8957 1.3943 18.9851 1.39495C19.4942 1.43095 19.9724 1.65271 20.3288 2.01811C20.6851 2.38351 20.8949 2.86708 20.9181 3.37695C20.9415 3.66238 20.9051 3.94955 20.8115 4.22018C20.7178 4.49082 20.5689 4.739 20.3741 4.94895C20.3741 4.99177 20.3665 5.03459 20.3589 5.07741C20.3566 5.09059 20.3542 5.10378 20.3521 5.11695L20.2941 5.45995C20.3213 5.52816 20.352 5.59491 20.3861 5.65995C20.5388 5.92703 20.5979 6.23745 20.5541 6.54195C20.5173 6.73308 20.4412 6.9145 20.3307 7.07474C20.2202 7.23498 20.0777 7.37058 19.9121 7.47295C19.8263 7.88274 19.621 8.25794 19.3222 8.55123C19.0234 8.84451 18.6444 9.04275 18.2331 9.12095C18.229 9.12095 18.2251 9.12283 18.2211 9.12478C18.2173 9.12659 18.2134 9.12847 18.2091 9.12895C18.4193 9.71427 18.4578 10.3475 18.3201 10.954L17.8381 13.954L21.1001 14.24C21.7051 14.2739 22.2783 14.522 22.7171 14.94C23.1559 15.3579 23.4317 15.9183 23.4951 16.521L24.4951 21.381L26.8381 21.601H26.8741L26.9091 21.607C27.1831 21.6527 27.4355 21.7846 27.6294 21.9835C27.8234 22.1824 27.949 22.438 27.9879 22.7131C28.0268 22.9882 27.977 23.2685 27.8458 23.5134C27.7145 23.7583 27.5087 23.955 27.2581 24.075L26.7201 24.325C26.8155 24.387 26.892 24.4742 26.9411 24.577C26.9774 24.6552 26.9978 24.7398 27.0011 24.826C27.005 24.9118 26.9914 24.9975 26.9611 25.078C26.9319 25.159 26.8867 25.2334 26.8283 25.2968C26.7699 25.3601 26.6995 25.4112 26.6211 25.447L23.3911 26.937C23.3028 26.9758 23.2076 26.9963 23.1111 26.997C22.9863 26.9986 22.8638 26.9634 22.7588 26.8959C22.6539 26.8283 22.5712 26.7313 22.5211 26.617C22.4849 26.536 22.4652 26.4486 22.4631 26.36C22.4608 26.2714 22.4764 26.1833 22.5091 26.101C22.4439 26.0428 22.3912 25.972 22.3541 25.893L20.8941 22.747V26.725C21.268 26.8739 21.5784 27.1485 21.7718 27.5015C21.9651 27.8545 22.0294 28.2639 21.9536 28.6592C21.8778 29.0545 21.6666 29.411 21.3563 29.6674C21.046 29.9238 20.6561 30.0641 20.2536 30.0641C19.8511 30.0641 19.4612 29.9238 19.1509 29.6674C18.8406 29.411 18.6294 29.0545 18.5536 28.6592C18.4778 28.2639 18.5421 27.8545 18.7354 27.5015C18.9288 27.1485 19.2392 26.8739 19.6131 26.725V24.575C19.3672 24.6917 19.1586 24.8744 19.0103 25.1027C18.862 25.3309 18.7799 25.5958 18.7731 25.868C18.7702 26.0358 18.7015 26.1958 18.5818 26.3134C18.4621 26.4311 18.301 26.497 18.1331 26.497H17.0171C16.3218 28.0242 15.0484 29.2127 13.4768 29.801C11.9052 30.3893 10.1644 30.3292 8.63711 29.634C7.10986 28.9387 5.92135 27.6652 5.33305 26.0936C4.74475 24.5221 4.80484 22.7812 5.50011 21.254ZM19.0831 6.68695C19.1041 6.68844 19.1251 6.68844 19.1461 6.68695C19.2383 6.69086 19.3292 6.66414 19.4047 6.61096C19.4801 6.55777 19.5358 6.48112 19.5631 6.39295C19.5741 6.29287 19.5481 6.19223 19.4901 6.10995C19.4038 5.94037 19.3312 5.76414 19.2731 5.58295C19.2708 5.5742 19.2667 5.56603 19.2611 5.55895L19.3611 4.95295C19.3877 4.79553 19.3894 4.6349 19.3661 4.47695C19.3749 4.47256 19.3667 4.4758 19.3469 4.48361C19.2992 4.50247 19.1842 4.54796 19.0781 4.57695C19.0169 4.58658 18.9551 4.59159 18.8931 4.59195H18.9311C18.9569 4.6018 18.9782 4.62092 18.9906 4.64558C19.0031 4.67024 19.0059 4.69867 18.9985 4.7253C18.9912 4.75194 18.9741 4.77486 18.9507 4.78959C18.9274 4.80432 18.8993 4.8098 18.8721 4.80495C18.6705 4.74726 18.4551 4.76176 18.2631 4.84595C18.2476 4.85476 18.23 4.85925 18.2121 4.85895C18.1876 4.85874 18.1639 4.85043 18.1446 4.83531C18.1253 4.82019 18.1116 4.79911 18.1055 4.77536C18.0994 4.75162 18.1014 4.72654 18.1111 4.70403C18.1208 4.68153 18.1377 4.66286 18.1591 4.65095C18.2698 4.60439 18.3867 4.5744 18.5061 4.56195C18.3318 4.52843 18.1658 4.46043 18.0181 4.36195C17.9004 4.28042 17.7613 4.23522 17.6181 4.23195C17.4363 4.22924 17.2606 4.29738 17.1281 4.42195C16.968 4.56543 16.862 4.75963 16.8281 4.97195L16.8211 5.01495C16.6647 5.00652 16.5108 5.05626 16.3889 5.15458C16.267 5.25291 16.1858 5.39286 16.161 5.54747C16.1362 5.70209 16.1694 5.86043 16.2544 5.99198C16.3393 6.12353 16.47 6.21898 16.6211 6.25995L16.5801 6.51195C16.5222 6.9004 16.3398 7.25955 16.0603 7.53545C15.7808 7.81135 15.4193 7.98909 15.0301 8.04195H15.0491L14.9631 8.29195L16.8431 8.95195L17.1431 8.05195C17.2454 8.08311 17.3496 8.10749 17.4551 8.12495C17.5783 8.14666 17.703 8.15803 17.8281 8.15895C18.6741 8.15895 18.9101 7.53195 19.0711 6.68095L19.0831 6.68695ZM20.3431 17.672C20.4141 17.672 20.4844 17.686 20.5501 17.713C20.616 17.7398 20.6759 17.7796 20.7261 17.83C20.7758 17.8804 20.8155 17.9397 20.8431 18.005C20.8698 18.0707 20.8834 18.141 20.8831 18.212V19.652C20.888 19.6683 20.8913 19.685 20.8931 19.702L20.9421 19.818L23.2631 24.818C23.283 24.8167 23.3026 24.8123 23.3211 24.805L26.8211 23.175C26.879 23.1469 26.9263 23.101 26.9561 23.044C26.9866 22.9874 26.9982 22.9226 26.9891 22.859C26.9805 22.7954 26.9522 22.7362 26.908 22.6897C26.8638 22.6432 26.8061 22.6118 26.7431 22.6L23.6631 22.311L22.5131 16.721C22.3031 15.671 21.7431 15.291 21.0131 15.241L16.6931 14.871H16.6841V14.882L14.7841 15.602H17.1431C17.7227 15.604 18.2823 15.8142 18.72 16.1941C19.1577 16.574 19.4445 17.0984 19.5281 17.672H20.3431ZM17.6361 23.787C17.6343 24.2684 17.5779 24.7482 17.4681 25.217H17.5781C17.7035 24.7301 17.9593 24.2867 18.3178 23.9343C18.6764 23.5819 19.1242 23.3339 19.6131 23.217V20.337H16.6001C17.275 21.3611 17.6351 22.5605 17.6361 23.787ZM18.2121 17.667C18.1399 17.4395 17.9976 17.2406 17.8056 17.0987C17.6137 16.9569 17.3818 16.8792 17.1431 16.877H13.9291L13.0941 13.44L14.1351 12.224L12.8661 11.087L11.6201 12.542L11.5201 12.663C11.4326 12.7657 11.3707 12.8876 11.3392 13.0188C11.3078 13.15 11.3077 13.2867 11.3391 13.418L11.8651 15.6L11.9651 16.021L12.3441 17.581C12.3752 17.7095 12.4358 17.8289 12.5211 17.93V18.351C12.5311 18.393 12.5411 18.434 12.5531 18.482C12.5711 18.549 12.5911 18.621 12.6151 18.69C12.6491 18.8145 12.7091 18.9303 12.7911 19.03C12.8479 19.0801 12.9169 19.1146 12.9911 19.13H13.0001C13.0294 19.1369 13.0591 19.1419 13.0891 19.145C13.1518 19.1573 13.2153 19.1646 13.2791 19.167H13.3601C13.5077 19.165 13.6545 19.1449 13.7971 19.107L13.8501 19.09L13.8861 19.077C14.1113 19.0001 14.3163 18.8736 14.4861 18.707C14.5251 18.6674 14.5509 18.6167 14.5601 18.562V18.529C14.563 18.4868 14.5583 18.4444 14.5461 18.404V18.4C14.5266 18.3494 14.4989 18.3024 14.4641 18.261C14.4641 18.261 14.4811 18.193 14.5361 18.037C14.5541 17.985 14.5771 17.923 14.6041 17.851C14.6275 17.794 14.6347 17.7317 14.6251 17.671L18.2121 17.667ZM7.35611 25.119C7.59771 25.8334 8.02977 26.4682 8.60569 26.9551C9.18161 27.442 9.87953 27.7624 10.6242 27.8818C11.3688 28.0012 12.1319 27.915 12.8312 27.6325C13.5304 27.3501 14.1393 26.882 14.5921 26.279L14.6161 26.248L14.6281 26.2321C14.685 26.1565 14.7417 26.0814 14.7921 26.002C14.8685 25.8769 14.9379 25.7477 15.0001 25.615C15.0501 25.515 15.1001 25.4149 15.1451 25.315C15.523 24.3797 15.5419 23.3377 15.1982 22.3893C14.8545 21.4409 14.1725 20.653 13.2831 20.177C13.1856 20.1252 13.0854 20.0784 12.9831 20.037L12.9031 20.002C12.8003 19.9551 12.6951 19.9133 12.5881 19.877L12.5441 19.863C12.4107 19.8158 12.2744 19.7771 12.1361 19.747H12.1201L12.0501 19.731C11.3395 19.594 10.6054 19.6459 9.92117 19.8815C9.23691 20.1171 8.62645 20.5281 8.15074 21.0734C7.67503 21.6188 7.35073 22.2794 7.21024 22.9893C7.06975 23.6992 7.11798 24.4335 7.35011 25.119H7.35611Z" fill="black"/>
</svg>
