<svg width="32" height="32" viewBox="0 0 32 32" fill="none" xmlns="http://www.w3.org/2000/svg">
<g filter="url(#filter0_i_4002_3097)">
<path d="M6.95422 21.6791C8.64427 21.6791 10.0143 20.309 10.0143 18.619C10.0143 16.9289 8.64427 15.5588 6.95422 15.5588C5.26416 15.5588 3.8941 16.9289 3.8941 18.619C3.8941 20.309 5.26416 21.6791 6.95422 21.6791Z" fill="url(#paint0_linear_4002_3097)"/>
</g>
<g filter="url(#filter1_i_4002_3097)">
<path d="M25.0458 21.6791C26.7358 21.6791 28.1059 20.309 28.1059 18.619C28.1059 16.9289 26.7358 15.5588 25.0458 15.5588C23.3557 15.5588 21.9857 16.9289 21.9857 18.619C21.9857 20.309 23.3557 21.6791 25.0458 21.6791Z" fill="url(#paint1_radial_4002_3097)"/>
<path d="M25.0458 21.6791C26.7358 21.6791 28.1059 20.309 28.1059 18.619C28.1059 16.9289 26.7358 15.5588 25.0458 15.5588C23.3557 15.5588 21.9857 16.9289 21.9857 18.619C21.9857 20.309 23.3557 21.6791 25.0458 21.6791Z" fill="url(#paint2_radial_4002_3097)"/>
</g>
<g filter="url(#filter2_f_4002_3097)">
<path d="M25.0457 20.6618C26.1739 20.6618 27.0884 19.7473 27.0884 18.6191C27.0884 17.491 26.1739 16.5764 25.0457 16.5764C23.9175 16.5764 23.003 17.491 23.003 18.6191C23.003 19.7473 23.9175 20.6618 25.0457 20.6618Z" fill="#4C3637"/>
<path d="M25.0457 20.6618C26.1739 20.6618 27.0884 19.7473 27.0884 18.6191C27.0884 17.491 26.1739 16.5764 25.0457 16.5764C23.9175 16.5764 23.003 17.491 23.003 18.6191C23.003 19.7473 23.9175 20.6618 25.0457 20.6618Z" fill="url(#paint3_radial_4002_3097)"/>
</g>
<g filter="url(#filter3_f_4002_3097)">
<path d="M6.99077 20.6618C8.11893 20.6618 9.03348 19.7473 9.03348 18.6191C9.03348 17.491 8.11893 16.5764 6.99077 16.5764C5.86261 16.5764 4.94806 17.491 4.94806 18.6191C4.94806 19.7473 5.86261 20.6618 6.99077 20.6618Z" fill="#35252B"/>
<path d="M6.99077 20.6618C8.11893 20.6618 9.03348 19.7473 9.03348 18.6191C9.03348 17.491 8.11893 16.5764 6.99077 16.5764C5.86261 16.5764 4.94806 17.491 4.94806 18.6191C4.94806 19.7473 5.86261 20.6618 6.99077 20.6618Z" fill="url(#paint4_radial_4002_3097)"/>
</g>
<g filter="url(#filter4_i_4002_3097)">
<path d="M6.2923 14.8193C6.2995 14.8251 6.30646 14.8307 6.31305 14.836C6.31305 14.7873 6.31244 14.7317 6.31171 14.6701C6.30463 14.0797 6.2912 12.943 6.78912 12.1999C7.59039 11.0038 8.50006 10.9148 9.39032 10.9148H22.3498C24.8148 10.9148 25.431 12.7109 25.431 13.6089L25.358 14.5096C25.3488 14.5437 25.3394 14.5779 25.3298 14.6122V21.0642C25.0953 26.394 20.9332 29.9728 15.8527 29.9728C10.7723 29.9728 6.61029 26.394 6.37579 21.0642L6.2923 14.8193Z" fill="url(#paint5_radial_4002_3097)"/>
<path d="M6.2923 14.8193C6.2995 14.8251 6.30646 14.8307 6.31305 14.836C6.31305 14.7873 6.31244 14.7317 6.31171 14.6701C6.30463 14.0797 6.2912 12.943 6.78912 12.1999C7.59039 11.0038 8.50006 10.9148 9.39032 10.9148H22.3498C24.8148 10.9148 25.431 12.7109 25.431 13.6089L25.358 14.5096C25.3488 14.5437 25.3394 14.5779 25.3298 14.6122V21.0642C25.0953 26.394 20.9332 29.9728 15.8527 29.9728C10.7723 29.9728 6.61029 26.394 6.37579 21.0642L6.2923 14.8193Z" fill="url(#paint6_radial_4002_3097)"/>
<path d="M6.2923 14.8193C6.2995 14.8251 6.30646 14.8307 6.31305 14.836C6.31305 14.7873 6.31244 14.7317 6.31171 14.6701C6.30463 14.0797 6.2912 12.943 6.78912 12.1999C7.59039 11.0038 8.50006 10.9148 9.39032 10.9148H22.3498C24.8148 10.9148 25.431 12.7109 25.431 13.6089L25.358 14.5096C25.3488 14.5437 25.3394 14.5779 25.3298 14.6122V21.0642C25.0953 26.394 20.9332 29.9728 15.8527 29.9728C10.7723 29.9728 6.61029 26.394 6.37579 21.0642L6.2923 14.8193Z" fill="url(#paint7_radial_4002_3097)"/>
<path d="M6.2923 14.8193C6.2995 14.8251 6.30646 14.8307 6.31305 14.836C6.31305 14.7873 6.31244 14.7317 6.31171 14.6701C6.30463 14.0797 6.2912 12.943 6.78912 12.1999C7.59039 11.0038 8.50006 10.9148 9.39032 10.9148H22.3498C24.8148 10.9148 25.431 12.7109 25.431 13.6089L25.358 14.5096C25.3488 14.5437 25.3394 14.5779 25.3298 14.6122V21.0642C25.0953 26.394 20.9332 29.9728 15.8527 29.9728C10.7723 29.9728 6.61029 26.394 6.37579 21.0642L6.2923 14.8193Z" fill="url(#paint8_radial_4002_3097)"/>
<path d="M6.2923 14.8193C6.2995 14.8251 6.30646 14.8307 6.31305 14.836C6.31305 14.7873 6.31244 14.7317 6.31171 14.6701C6.30463 14.0797 6.2912 12.943 6.78912 12.1999C7.59039 11.0038 8.50006 10.9148 9.39032 10.9148H22.3498C24.8148 10.9148 25.431 12.7109 25.431 13.6089L25.358 14.5096C25.3488 14.5437 25.3394 14.5779 25.3298 14.6122V21.0642C25.0953 26.394 20.9332 29.9728 15.8527 29.9728C10.7723 29.9728 6.61029 26.394 6.37579 21.0642L6.2923 14.8193Z" fill="url(#paint9_radial_4002_3097)"/>
<path d="M6.2923 14.8193C6.2995 14.8251 6.30646 14.8307 6.31305 14.836C6.31305 14.7873 6.31244 14.7317 6.31171 14.6701C6.30463 14.0797 6.2912 12.943 6.78912 12.1999C7.59039 11.0038 8.50006 10.9148 9.39032 10.9148H22.3498C24.8148 10.9148 25.431 12.7109 25.431 13.6089L25.358 14.5096C25.3488 14.5437 25.3394 14.5779 25.3298 14.6122V21.0642C25.0953 26.394 20.9332 29.9728 15.8527 29.9728C10.7723 29.9728 6.61029 26.394 6.37579 21.0642L6.2923 14.8193Z" fill="url(#paint10_radial_4002_3097)"/>
<path d="M6.2923 14.8193C6.2995 14.8251 6.30646 14.8307 6.31305 14.836C6.31305 14.7873 6.31244 14.7317 6.31171 14.6701C6.30463 14.0797 6.2912 12.943 6.78912 12.1999C7.59039 11.0038 8.50006 10.9148 9.39032 10.9148H22.3498C24.8148 10.9148 25.431 12.7109 25.431 13.6089L25.358 14.5096C25.3488 14.5437 25.3394 14.5779 25.3298 14.6122V21.0642C25.0953 26.394 20.9332 29.9728 15.8527 29.9728C10.7723 29.9728 6.61029 26.394 6.37579 21.0642L6.2923 14.8193Z" fill="url(#paint11_radial_4002_3097)"/>
<path d="M6.2923 14.8193C6.2995 14.8251 6.30646 14.8307 6.31305 14.836C6.31305 14.7873 6.31244 14.7317 6.31171 14.6701C6.30463 14.0797 6.2912 12.943 6.78912 12.1999C7.59039 11.0038 8.50006 10.9148 9.39032 10.9148H22.3498C24.8148 10.9148 25.431 12.7109 25.431 13.6089L25.358 14.5096C25.3488 14.5437 25.3394 14.5779 25.3298 14.6122V21.0642C25.0953 26.394 20.9332 29.9728 15.8527 29.9728C10.7723 29.9728 6.61029 26.394 6.37579 21.0642L6.2923 14.8193Z" fill="url(#paint12_radial_4002_3097)"/>
</g>
<path d="M6.2923 14.8193C6.2995 14.8251 6.30646 14.8307 6.31305 14.836C6.31305 14.7873 6.31244 14.7317 6.31171 14.6701C6.30463 14.0797 6.2912 12.943 6.78912 12.1999C7.59039 11.0038 8.50006 10.9148 9.39032 10.9148H22.3498C24.8148 10.9148 25.431 12.7109 25.431 13.6089L25.358 14.5096C25.3488 14.5437 25.3394 14.5779 25.3298 14.6122V21.0642C25.0953 26.394 20.9332 29.9728 15.8527 29.9728C10.7723 29.9728 6.61029 26.394 6.37579 21.0642L6.2923 14.8193Z" fill="url(#paint13_radial_4002_3097)"/>
<path d="M6.2923 14.8193C6.2995 14.8251 6.30646 14.8307 6.31305 14.836C6.31305 14.7873 6.31244 14.7317 6.31171 14.6701C6.30463 14.0797 6.2912 12.943 6.78912 12.1999C7.59039 11.0038 8.50006 10.9148 9.39032 10.9148H22.3498C24.8148 10.9148 25.431 12.7109 25.431 13.6089L25.358 14.5096C25.3488 14.5437 25.3394 14.5779 25.3298 14.6122V21.0642C25.0953 26.394 20.9332 29.9728 15.8527 29.9728C10.7723 29.9728 6.61029 26.394 6.37579 21.0642L6.2923 14.8193Z" fill="url(#paint14_radial_4002_3097)"/>
<path d="M6.2923 14.8193C6.2995 14.8251 6.30646 14.8307 6.31305 14.836C6.31305 14.7873 6.31244 14.7317 6.31171 14.6701C6.30463 14.0797 6.2912 12.943 6.78912 12.1999C7.59039 11.0038 8.50006 10.9148 9.39032 10.9148H22.3498C24.8148 10.9148 25.431 12.7109 25.431 13.6089L25.358 14.5096C25.3488 14.5437 25.3394 14.5779 25.3298 14.6122V21.0642C25.0953 26.394 20.9332 29.9728 15.8527 29.9728C10.7723 29.9728 6.61029 26.394 6.37579 21.0642L6.2923 14.8193Z" fill="url(#paint15_radial_4002_3097)"/>
<g filter="url(#filter5_f_4002_3097)">
<path d="M15.119 18.1956L13.819 21.4286C13.6127 22.0936 14.1078 22.7586 14.8091 22.7586H16.3046C17.0059 22.7586 17.501 22.0834 17.2947 21.4286L16.284 18.1956C16.0674 17.4794 15.3459 17.4794 15.119 18.1956Z" fill="#331B25"/>
</g>
<g filter="url(#filter6_f_4002_3097)">
<path d="M15.1381 17.9324L14.1274 21.1654C13.9211 21.8304 14.4161 22.4955 15.1175 22.4955H16.6129C17.3143 22.4955 17.8093 21.8202 17.6031 21.1654L16.5923 17.9324C16.3757 17.2162 15.365 17.2162 15.1381 17.9324Z" fill="#4A302D"/>
<path d="M15.1381 17.9324L14.1274 21.1654C13.9211 21.8304 14.4161 22.4955 15.1175 22.4955H16.6129C17.3143 22.4955 17.8093 21.8202 17.6031 21.1654L16.5923 17.9324C16.3757 17.2162 15.365 17.2162 15.1381 17.9324Z" fill="url(#paint16_radial_4002_3097)"/>
<path d="M15.1381 17.9324L14.1274 21.1654C13.9211 21.8304 14.4161 22.4955 15.1175 22.4955H16.6129C17.3143 22.4955 17.8093 21.8202 17.6031 21.1654L16.5923 17.9324C16.3757 17.2162 15.365 17.2162 15.1381 17.9324Z" fill="url(#paint17_linear_4002_3097)"/>
<path d="M15.1381 17.9324L14.1274 21.1654C13.9211 21.8304 14.4161 22.4955 15.1175 22.4955H16.6129C17.3143 22.4955 17.8093 21.8202 17.6031 21.1654L16.5923 17.9324C16.3757 17.2162 15.365 17.2162 15.1381 17.9324Z" fill="url(#paint18_linear_4002_3097)"/>
<path d="M15.1381 17.9324L14.1274 21.1654C13.9211 21.8304 14.4161 22.4955 15.1175 22.4955H16.6129C17.3143 22.4955 17.8093 21.8202 17.6031 21.1654L16.5923 17.9324C16.3757 17.2162 15.365 17.2162 15.1381 17.9324Z" fill="url(#paint19_radial_4002_3097)"/>
</g>
<g filter="url(#filter7_f_4002_3097)">
<path d="M15.8651 24.156C14.8748 24.156 13.9439 23.9177 13.1616 23.5005C12.8942 23.3614 12.607 23.6694 12.7754 23.9177C13.429 24.9308 14.5678 25.6062 15.8651 25.6062C17.1625 25.6062 18.3013 24.9308 18.9549 23.9177C19.1233 23.6594 18.8361 23.3614 18.5687 23.5005C17.7864 23.9177 16.8654 24.156 15.8651 24.156Z" stroke="url(#paint20_linear_4002_3097)" stroke-width="0.2"/>
</g>
<path d="M15.8651 24.156C14.8748 24.156 13.9439 23.9177 13.1616 23.5005C12.8942 23.3614 12.607 23.6694 12.7754 23.9177C13.429 24.9308 14.5678 25.6062 15.8651 25.6062C17.1625 25.6062 18.3013 24.9308 18.9549 23.9177C19.1233 23.6594 18.8361 23.3614 18.5687 23.5005C17.7864 23.9177 16.8654 24.156 15.8651 24.156Z" fill="#2A0219"/>
<g filter="url(#filter8_i_4002_3097)">
<path d="M18.0372 17.5369C18.542 16.6492 19.3093 15.948 20.9609 15.948C21.684 15.948 22.3813 16.1483 23.0011 16.6492C23.5124 17.0623 23.4439 17.5909 23.048 17.7889L21.9905 18.3926C20.7509 17.9919 19.3801 17.9376 18.0372 17.5369Z" fill="#2D2B2E"/>
</g>
<g filter="url(#filter9_i_4002_3097)">
<path d="M13.6936 17.5369C13.1889 16.6492 12.4215 15.948 10.7699 15.948C10.0468 15.948 9.34951 16.1483 8.72969 16.6492C8.21845 17.0623 8.28691 17.5909 8.68282 17.7889L9.74029 18.3926C10.9799 17.9919 12.3507 17.9376 13.6936 17.5369Z" fill="#272528"/>
</g>
<g filter="url(#filter10_i_4002_3097)">
<path d="M9.40387 15.2379L9.39553 15.2427C9.39526 15.2429 9.39499 15.243 9.39472 15.2432C9.15333 15.3872 8.84049 15.3089 8.69579 15.0678C8.55087 14.8262 8.62948 14.5128 8.87102 14.3678L8.87211 14.3672L8.87407 14.366L8.87969 14.3627L8.89759 14.3524C8.91245 14.3439 8.93312 14.3323 8.95928 14.3181C9.01157 14.2898 9.08597 14.251 9.17985 14.2063C9.36724 14.117 9.63434 14.0026 9.95984 13.8987C10.6062 13.6924 11.5101 13.5189 12.4859 13.6911C12.7633 13.74 12.9485 14.0046 12.8995 14.282C12.8506 14.5594 12.586 14.7445 12.3086 14.6956C11.5503 14.5618 10.8221 14.6942 10.27 14.8705C9.99621 14.9578 9.77242 15.0538 9.61873 15.1271C9.54207 15.1636 9.48339 15.1943 9.44523 15.2149C9.42617 15.2253 9.41228 15.2331 9.40387 15.2379Z" fill="#1E1E1E"/>
</g>
<g filter="url(#filter11_i_4002_3097)">
<path fill-rule="evenodd" clip-rule="evenodd" d="M22.9617 14.3678C22.9618 14.3679 22.962 14.368 22.6996 14.8054L22.9617 14.3678C23.2032 14.5128 23.2818 14.8262 23.1369 15.0678C22.9922 15.309 22.6796 15.3874 22.4382 15.2433C22.438 15.2432 22.4377 15.243 22.4373 15.2428L22.4288 15.2379C22.4204 15.2331 22.4065 15.2253 22.3875 15.2149C22.3493 15.1943 22.2906 15.1636 22.214 15.1271C22.0603 15.0538 21.8365 14.9578 21.5627 14.8705C21.0106 14.6942 20.2824 14.5618 19.5241 14.6956C19.2467 14.7445 18.9822 14.5594 18.9332 14.282C18.8842 14.0046 19.0694 13.74 19.3468 13.6911C20.3226 13.5189 21.2265 13.6924 21.8729 13.8987C22.1984 14.0026 22.4655 14.117 22.6529 14.2063C22.7467 14.251 22.8211 14.2898 22.8734 14.3181C22.8996 14.3323 22.9203 14.3439 22.9351 14.3524L22.953 14.3627L22.9586 14.366L22.9606 14.3672L22.9617 14.3678Z" fill="#1E1E1E"/>
</g>
<path d="M20.4123 16.0593C21.6544 16.0593 22.7036 16.9157 22.989 18.0729C23.0739 18.4046 22.8193 18.7209 22.4799 18.7209H18.2368C17.9668 18.7209 17.7508 18.474 17.8048 18.204C18.0439 16.9851 19.1163 16.0593 20.4123 16.0593Z" fill="white"/>
<path d="M20.019 16.5764C20.9602 16.5764 21.7162 17.3402 21.7162 18.2736C21.7162 18.4279 21.6931 18.5822 21.6545 18.7211H18.3757C18.3372 18.5745 18.314 18.4279 18.314 18.2736C18.314 17.3402 19.0778 16.5764 20.019 16.5764Z" fill="url(#paint21_radial_4002_3097)"/>
<path d="M19.0467 18.2736C19.0467 17.7335 19.4787 17.3015 20.0187 17.3015C20.5588 17.3015 20.9908 17.7335 20.9908 18.2736C20.9908 18.4356 20.9522 18.5899 20.8828 18.721H19.1624C19.0853 18.5899 19.0467 18.4356 19.0467 18.2736Z" fill="black"/>
<g filter="url(#filter12_f_4002_3097)">
<path d="M19.894 16.9354C20.0149 17.0971 19.7622 17.2943 19.4748 17.5091C19.1874 17.724 18.9742 17.8752 18.8533 17.7135C18.7324 17.5518 18.8673 17.2465 19.1547 17.0316C19.4421 16.8167 19.7731 16.7737 19.894 16.9354Z" fill="#C7A7A3"/>
<path d="M19.894 16.9354C20.0149 17.0971 19.7622 17.2943 19.4748 17.5091C19.1874 17.724 18.9742 17.8752 18.8533 17.7135C18.7324 17.5518 18.8673 17.2465 19.1547 17.0316C19.4421 16.8167 19.7731 16.7737 19.894 16.9354Z" fill="url(#paint22_radial_4002_3097)"/>
</g>
<g filter="url(#filter13_f_4002_3097)">
<path d="M21.5307 18.0501C21.468 17.6113 21.2113 17.2807 21.0907 17.1702L20.5965 17.7126L20.8195 18.1466L21.5307 18.0501Z" fill="url(#paint23_linear_4002_3097)"/>
</g>
<path d="M11.3181 16.0593C10.076 16.0593 9.02681 16.9157 8.74136 18.0729C8.6565 18.4046 8.91109 18.7209 9.25053 18.7209H13.4936C13.7637 18.7209 13.9797 18.474 13.9257 18.204C13.6865 16.9851 12.6064 16.0593 11.3181 16.0593Z" fill="white"/>
<path d="M11.7115 16.5764C10.7703 16.5764 10.0142 17.3402 10.0142 18.2737C10.0142 18.428 10.0374 18.5822 10.0759 18.7211H13.3547C13.3933 18.5745 13.4164 18.428 13.4164 18.2737C13.4087 17.3402 12.6527 16.5764 11.7115 16.5764Z" fill="url(#paint24_radial_4002_3097)"/>
<path d="M12.6837 18.2736C12.6837 17.7335 12.2517 17.3015 11.7116 17.3015C11.1716 17.3015 10.7396 17.7335 10.7396 18.2736C10.7396 18.4356 10.7781 18.5899 10.8476 18.721H12.568C12.6374 18.5899 12.6837 18.4356 12.6837 18.2736Z" fill="black"/>
<g filter="url(#filter14_f_4002_3097)">
<path d="M13.2621 18.0742C13.2621 17.5257 12.816 17.1601 12.6955 17.0496L12.147 17.5799L12.4846 18.267L13.2621 18.0742Z" fill="url(#paint25_linear_4002_3097)"/>
</g>
<g filter="url(#filter15_f_4002_3097)">
<ellipse cx="11.1995" cy="17.3016" rx="0.740936" ry="0.374982" transform="rotate(-27.914 11.1995 17.3016)" fill="#C7A7A3" fill-opacity="0.9"/>
<ellipse cx="11.1995" cy="17.3016" rx="0.740936" ry="0.374982" transform="rotate(-27.914 11.1995 17.3016)" fill="url(#paint26_radial_4002_3097)"/>
</g>
<g filter="url(#filter16_f_4002_3097)">
<path d="M19.5538 14.1072C20.1672 13.9579 21.6925 14.0325 22.7122 14.762" stroke="#323233" stroke-width="0.4" stroke-linecap="round"/>
</g>
<g filter="url(#filter17_f_4002_3097)">
<path d="M12.3443 14.1072C11.7309 13.9579 10.2055 14.0325 9.18591 14.762" stroke="#323233" stroke-width="0.4" stroke-linecap="round"/>
</g>
<path d="M4.55177 10.6552C4.74531 13.4615 5.94915 14.5454 6.313 14.8357C6.313 14.3209 6.23932 13.0203 6.78907 12.1996C7.59038 11.0036 8.50002 10.9145 9.39027 10.9145H22.3498C24.8148 10.9145 25.431 12.7106 25.431 13.6086L25.3381 14.7544C25.5549 14.7544 26.2044 14.5178 26.4529 14.0267C27.1032 12.7416 27.5213 10.0629 27.6142 8.49913C27.7071 6.93532 27.6452 5.73536 26.422 4.04767C25.4434 2.69753 23.6272 2.0271 22.0015 2.0271H10.4506C6.73926 2.0271 5.77265 3.43366 5.03038 4.82685C4.43656 5.94141 4.35648 7.02821 4.35651 7.67033C4.3565 8.42946 4.36916 9.79871 4.55177 10.6552Z" fill="url(#paint27_radial_4002_3097)"/>
<path d="M4.55177 10.6552C4.74531 13.4615 5.94915 14.5454 6.313 14.8357C6.313 14.3209 6.23932 13.0203 6.78907 12.1996C7.59038 11.0036 8.50002 10.9145 9.39027 10.9145H22.3498C24.8148 10.9145 25.431 12.7106 25.431 13.6086L25.3381 14.7544C25.5549 14.7544 26.2044 14.5178 26.4529 14.0267C27.1032 12.7416 27.5213 10.0629 27.6142 8.49913C27.7071 6.93532 27.6452 5.73536 26.422 4.04767C25.4434 2.69753 23.6272 2.0271 22.0015 2.0271H10.4506C6.73926 2.0271 5.77265 3.43366 5.03038 4.82685C4.43656 5.94141 4.35648 7.02821 4.35651 7.67033C4.3565 8.42946 4.36916 9.79871 4.55177 10.6552Z" fill="url(#paint28_radial_4002_3097)"/>
<path d="M4.55177 10.6552C4.74531 13.4615 5.94915 14.5454 6.313 14.8357C6.313 14.3209 6.23932 13.0203 6.78907 12.1996C7.59038 11.0036 8.50002 10.9145 9.39027 10.9145H22.3498C24.8148 10.9145 25.431 12.7106 25.431 13.6086L25.3381 14.7544C25.5549 14.7544 26.2044 14.5178 26.4529 14.0267C27.1032 12.7416 27.5213 10.0629 27.6142 8.49913C27.7071 6.93532 27.6452 5.73536 26.422 4.04767C25.4434 2.69753 23.6272 2.0271 22.0015 2.0271H10.4506C6.73926 2.0271 5.77265 3.43366 5.03038 4.82685C4.43656 5.94141 4.35648 7.02821 4.35651 7.67033C4.3565 8.42946 4.36916 9.79871 4.55177 10.6552Z" fill="url(#paint29_radial_4002_3097)"/>
<g filter="url(#filter18_i_4002_3097)">
<path d="M20.4172 2.0271L20.4724 4.45411C21.6956 4.42314 24.0343 4.53694 26.0503 5.68117C26.8993 6.16305 27.3391 6.6739 27.6238 7.09495C27.5511 6.12581 27.2575 5.20054 26.4219 4.04767C25.4434 2.69753 23.6272 2.0271 22.0014 2.0271H20.4172Z" fill="url(#paint30_radial_4002_3097)"/>
<path d="M20.4172 2.0271L20.4724 4.45411C21.6956 4.42314 24.0343 4.53694 26.0503 5.68117C26.8993 6.16305 27.3391 6.6739 27.6238 7.09495C27.5511 6.12581 27.2575 5.20054 26.4219 4.04767C25.4434 2.69753 23.6272 2.0271 22.0014 2.0271H20.4172Z" fill="url(#paint31_radial_4002_3097)"/>
</g>
<g filter="url(#filter19_ii_4002_3097)">
<path d="M26.9904 12.4951C26.9951 11.0125 25.9046 9.88802 25.0593 9.38963C23.72 8.59998 21.7924 8.3858 20.9563 8.39096H19.4699L14.5152 9.19609L14.7708 10.9147H22.3498C24.8147 10.9147 25.4521 12.707 25.3935 13.6088L25.338 14.7546C25.5548 14.7546 26.2043 14.518 26.4528 14.0269C26.6555 13.6263 26.8357 13.0904 26.9904 12.4951Z" fill="url(#paint32_linear_4002_3097)"/>
</g>
<path d="M26.9904 12.4951C26.9951 11.0125 25.9046 9.88802 25.0593 9.38963C23.72 8.59998 21.7924 8.3858 20.9563 8.39096H19.4699L14.5152 9.19609L14.7708 10.9147H22.3498C24.8147 10.9147 25.4521 12.707 25.3935 13.6088L25.338 14.7546C25.5548 14.7546 26.2043 14.518 26.4528 14.0269C26.6555 13.6263 26.8357 13.0904 26.9904 12.4951Z" fill="url(#paint33_radial_4002_3097)"/>
<path d="M26.9904 12.4951C26.9951 11.0125 25.9046 9.88802 25.0593 9.38963C23.72 8.59998 21.7924 8.3858 20.9563 8.39096H19.4699L14.5152 9.19609L14.7708 10.9147H22.3498C24.8147 10.9147 25.4521 12.707 25.3935 13.6088L25.338 14.7546C25.5548 14.7546 26.2043 14.518 26.4528 14.0269C26.6555 13.6263 26.8357 13.0904 26.9904 12.4951Z" fill="url(#paint34_radial_4002_3097)"/>
<path d="M26.9904 12.4951C26.9951 11.0125 25.9046 9.88802 25.0593 9.38963C23.72 8.59998 21.7924 8.3858 20.9563 8.39096H19.4699L14.5152 9.19609L14.7708 10.9147H22.3498C24.8147 10.9147 25.4521 12.707 25.3935 13.6088L25.338 14.7546C25.5548 14.7546 26.2043 14.518 26.4528 14.0269C26.6555 13.6263 26.8357 13.0904 26.9904 12.4951Z" fill="url(#paint35_radial_4002_3097)"/>
<g filter="url(#filter20_i_4002_3097)">
<path d="M20.9457 2.0271C21.303 3.98848 21.1391 6.5681 19.9267 8.45268C19.0046 9.88607 17.7452 10.9145 16.4539 10.9145H9.39027C8.50002 10.9145 7.59038 11.0036 6.78907 12.1996C6.29122 12.9428 6.30465 14.0796 6.31162 14.6699C6.31235 14.7315 6.313 14.7871 6.313 14.8357C5.94915 14.5454 4.74531 13.4615 4.55177 10.6552C4.36916 9.79871 4.3565 8.42946 4.35651 7.67033C4.35648 7.02821 4.43656 5.94141 5.03038 4.82685C5.77265 3.43366 6.73926 2.0271 10.4506 2.0271H20.9457Z" fill="url(#paint36_radial_4002_3097)"/>
</g>
<path d="M20.9457 2.0271C21.303 3.98848 21.1391 6.5681 19.9267 8.45268C19.0046 9.88607 17.7452 10.9145 16.4539 10.9145H9.39027C8.50002 10.9145 7.59038 11.0036 6.78907 12.1996C6.29122 12.9428 6.30465 14.0796 6.31162 14.6699C6.31235 14.7315 6.313 14.7871 6.313 14.8357C5.94915 14.5454 4.74531 13.4615 4.55177 10.6552C4.36916 9.79871 4.3565 8.42946 4.35651 7.67033C4.35648 7.02821 4.43656 5.94141 5.03038 4.82685C5.77265 3.43366 6.73926 2.0271 10.4506 2.0271H20.9457Z" fill="url(#paint37_radial_4002_3097)"/>
<path d="M20.9457 2.0271C21.303 3.98848 21.1391 6.5681 19.9267 8.45268C19.0046 9.88607 17.7452 10.9145 16.4539 10.9145H9.39027C8.50002 10.9145 7.59038 11.0036 6.78907 12.1996C6.29122 12.9428 6.30465 14.0796 6.31162 14.6699C6.31235 14.7315 6.313 14.7871 6.313 14.8357C5.94915 14.5454 4.74531 13.4615 4.55177 10.6552C4.36916 9.79871 4.3565 8.42946 4.35651 7.67033C4.35648 7.02821 4.43656 5.94141 5.03038 4.82685C5.77265 3.43366 6.73926 2.0271 10.4506 2.0271H20.9457Z" fill="url(#paint38_radial_4002_3097)"/>
<path d="M20.9457 2.0271C21.303 3.98848 21.1391 6.5681 19.9267 8.45268C19.0046 9.88607 17.7452 10.9145 16.4539 10.9145H9.39027C8.50002 10.9145 7.59038 11.0036 6.78907 12.1996C6.29122 12.9428 6.30465 14.0796 6.31162 14.6699C6.31235 14.7315 6.313 14.7871 6.313 14.8357C5.94915 14.5454 4.74531 13.4615 4.55177 10.6552C4.36916 9.79871 4.3565 8.42946 4.35651 7.67033C4.35648 7.02821 4.43656 5.94141 5.03038 4.82685C5.77265 3.43366 6.73926 2.0271 10.4506 2.0271H20.9457Z" fill="url(#paint39_radial_4002_3097)"/>
<path d="M20.9457 2.0271C21.303 3.98848 21.1391 6.5681 19.9267 8.45268C19.0046 9.88607 17.7452 10.9145 16.4539 10.9145H9.39027C8.50002 10.9145 7.59038 11.0036 6.78907 12.1996C6.29122 12.9428 6.30465 14.0796 6.31162 14.6699C6.31235 14.7315 6.313 14.7871 6.313 14.8357C5.94915 14.5454 4.74531 13.4615 4.55177 10.6552C4.36916 9.79871 4.3565 8.42946 4.35651 7.67033C4.35648 7.02821 4.43656 5.94141 5.03038 4.82685C5.77265 3.43366 6.73926 2.0271 10.4506 2.0271H20.9457Z" fill="url(#paint40_radial_4002_3097)"/>
<path d="M20.9457 2.0271C21.303 3.98848 21.1391 6.5681 19.9267 8.45268C19.0046 9.88607 17.7452 10.9145 16.4539 10.9145H9.39027C8.50002 10.9145 7.59038 11.0036 6.78907 12.1996C6.29122 12.9428 6.30465 14.0796 6.31162 14.6699C6.31235 14.7315 6.313 14.7871 6.313 14.8357C5.94915 14.5454 4.74531 13.4615 4.55177 10.6552C4.36916 9.79871 4.3565 8.42946 4.35651 7.67033C4.35648 7.02821 4.43656 5.94141 5.03038 4.82685C5.77265 3.43366 6.73926 2.0271 10.4506 2.0271H20.9457Z" fill="url(#paint41_radial_4002_3097)"/>
<g filter="url(#filter21_i_4002_3097)">
<path d="M4.54159 10.606C4.99875 9.69416 6.15582 8.40024 10.2186 7.98044C10.6247 7.93848 11.2222 7.92057 11.8914 7.90052C13.5569 7.85061 15.6664 7.78739 16.3733 7.30692C17.3063 6.86194 18.3457 4.06164 17.9126 2.0271H11.9433L4.95408 4.9755C4.42959 6.03729 4.35648 7.0568 4.35651 7.67033C4.3565 8.41509 4.36869 9.74711 4.54159 10.606Z" fill="url(#paint42_radial_4002_3097)"/>
<path d="M4.54159 10.606C4.99875 9.69416 6.15582 8.40024 10.2186 7.98044C10.6247 7.93848 11.2222 7.92057 11.8914 7.90052C13.5569 7.85061 15.6664 7.78739 16.3733 7.30692C17.3063 6.86194 18.3457 4.06164 17.9126 2.0271H11.9433L4.95408 4.9755C4.42959 6.03729 4.35648 7.0568 4.35651 7.67033C4.3565 8.41509 4.36869 9.74711 4.54159 10.606Z" fill="url(#paint43_radial_4002_3097)"/>
<path d="M4.54159 10.606C4.99875 9.69416 6.15582 8.40024 10.2186 7.98044C10.6247 7.93848 11.2222 7.92057 11.8914 7.90052C13.5569 7.85061 15.6664 7.78739 16.3733 7.30692C17.3063 6.86194 18.3457 4.06164 17.9126 2.0271H11.9433L4.95408 4.9755C4.42959 6.03729 4.35648 7.0568 4.35651 7.67033C4.3565 8.41509 4.36869 9.74711 4.54159 10.606Z" fill="url(#paint44_linear_4002_3097)"/>
<path d="M4.54159 10.606C4.99875 9.69416 6.15582 8.40024 10.2186 7.98044C10.6247 7.93848 11.2222 7.92057 11.8914 7.90052C13.5569 7.85061 15.6664 7.78739 16.3733 7.30692C17.3063 6.86194 18.3457 4.06164 17.9126 2.0271H11.9433L4.95408 4.9755C4.42959 6.03729 4.35648 7.0568 4.35651 7.67033C4.3565 8.41509 4.36869 9.74711 4.54159 10.606Z" fill="url(#paint45_radial_4002_3097)"/>
<path d="M4.54159 10.606C4.99875 9.69416 6.15582 8.40024 10.2186 7.98044C10.6247 7.93848 11.2222 7.92057 11.8914 7.90052C13.5569 7.85061 15.6664 7.78739 16.3733 7.30692C17.3063 6.86194 18.3457 4.06164 17.9126 2.0271H11.9433L4.95408 4.9755C4.42959 6.03729 4.35648 7.0568 4.35651 7.67033C4.3565 8.41509 4.36869 9.74711 4.54159 10.606Z" fill="url(#paint46_radial_4002_3097)"/>
</g>
<g filter="url(#filter22_ii_4002_3097)">
<path d="M4.35657 7.76315C4.91418 7.09365 5.92045 6.15049 7.25358 5.78955C9.13284 5.28075 12.0895 5.05667 13.323 4.96893C13.7721 4.99474 14.8791 4.52766 14.8791 3.35867C14.8791 2.92566 14.8627 2.46974 14.8257 2.0271H10.4506C6.73926 2.0271 5.77265 3.43366 5.03038 4.82685C4.43656 5.94141 4.35648 7.02822 4.35651 7.67033C4.35651 7.70034 4.35653 7.73131 4.35657 7.76315Z" fill="url(#paint47_radial_4002_3097)"/>
</g>
<path d="M4.35657 7.76315C4.91418 7.09365 5.92045 6.15049 7.25358 5.78955C9.13284 5.28075 12.0895 5.05667 13.323 4.96893C13.7721 4.99474 14.8791 4.52766 14.8791 3.35867C14.8791 2.92566 14.8627 2.46974 14.8257 2.0271H10.4506C6.73926 2.0271 5.77265 3.43366 5.03038 4.82685C4.43656 5.94141 4.35648 7.02822 4.35651 7.67033C4.35651 7.70034 4.35653 7.73131 4.35657 7.76315Z" fill="url(#paint48_radial_4002_3097)"/>
<path d="M4.35657 7.76315C4.91418 7.09365 5.92045 6.15049 7.25358 5.78955C9.13284 5.28075 12.0895 5.05667 13.323 4.96893C13.7721 4.99474 14.8791 4.52766 14.8791 3.35867C14.8791 2.92566 14.8627 2.46974 14.8257 2.0271H10.4506C6.73926 2.0271 5.77265 3.43366 5.03038 4.82685C4.43656 5.94141 4.35648 7.02822 4.35651 7.67033C4.35651 7.70034 4.35653 7.73131 4.35657 7.76315Z" fill="url(#paint49_radial_4002_3097)"/>
<defs>
<filter id="filter0_i_4002_3097" x="3.8941" y="15.5588" width="6.27024" height="6.12012" filterUnits="userSpaceOnUse" color-interpolation-filters="sRGB">
<feFlood flood-opacity="0" result="BackgroundImageFix"/>
<feBlend mode="normal" in="SourceGraphic" in2="BackgroundImageFix" result="shape"/>
<feColorMatrix in="SourceAlpha" type="matrix" values="0 0 0 0 0 0 0 0 0 0 0 0 0 0 0 0 0 0 127 0" result="hardAlpha"/>
<feOffset dx="0.15"/>
<feGaussianBlur stdDeviation="0.25"/>
<feComposite in2="hardAlpha" operator="arithmetic" k2="-1" k3="1"/>
<feColorMatrix type="matrix" values="0 0 0 0 0.337255 0 0 0 0 0.266667 0 0 0 0 0.25098 0 0 0 1 0"/>
<feBlend mode="normal" in2="shape" result="effect1_innerShadow_4002_3097"/>
</filter>
<filter id="filter1_i_4002_3097" x="21.9857" y="15.3088" width="6.12024" height="6.37012" filterUnits="userSpaceOnUse" color-interpolation-filters="sRGB">
<feFlood flood-opacity="0" result="BackgroundImageFix"/>
<feBlend mode="normal" in="SourceGraphic" in2="BackgroundImageFix" result="shape"/>
<feColorMatrix in="SourceAlpha" type="matrix" values="0 0 0 0 0 0 0 0 0 0 0 0 0 0 0 0 0 0 127 0" result="hardAlpha"/>
<feOffset dy="-0.25"/>
<feGaussianBlur stdDeviation="0.25"/>
<feComposite in2="hardAlpha" operator="arithmetic" k2="-1" k3="1"/>
<feColorMatrix type="matrix" values="0 0 0 0 0.184314 0 0 0 0 0.0901961 0 0 0 0 0.117647 0 0 0 1 0"/>
<feBlend mode="normal" in2="shape" result="effect1_innerShadow_4002_3097"/>
</filter>
<filter id="filter2_f_4002_3097" x="22.503" y="16.0764" width="5.08542" height="5.08545" filterUnits="userSpaceOnUse" color-interpolation-filters="sRGB">
<feFlood flood-opacity="0" result="BackgroundImageFix"/>
<feBlend mode="normal" in="SourceGraphic" in2="BackgroundImageFix" result="shape"/>
<feGaussianBlur stdDeviation="0.25" result="effect1_foregroundBlur_4002_3097"/>
</filter>
<filter id="filter3_f_4002_3097" x="4.69806" y="16.3264" width="4.58542" height="4.58545" filterUnits="userSpaceOnUse" color-interpolation-filters="sRGB">
<feFlood flood-opacity="0" result="BackgroundImageFix"/>
<feBlend mode="normal" in="SourceGraphic" in2="BackgroundImageFix" result="shape"/>
<feGaussianBlur stdDeviation="0.125" result="effect1_foregroundBlur_4002_3097"/>
</filter>
<filter id="filter4_i_4002_3097" x="6.2923" y="10.9148" width="19.1387" height="19.4581" filterUnits="userSpaceOnUse" color-interpolation-filters="sRGB">
<feFlood flood-opacity="0" result="BackgroundImageFix"/>
<feBlend mode="normal" in="SourceGraphic" in2="BackgroundImageFix" result="shape"/>
<feColorMatrix in="SourceAlpha" type="matrix" values="0 0 0 0 0 0 0 0 0 0 0 0 0 0 0 0 0 0 127 0" result="hardAlpha"/>
<feOffset dy="0.4"/>
<feGaussianBlur stdDeviation="0.2"/>
<feComposite in2="hardAlpha" operator="arithmetic" k2="-1" k3="1"/>
<feColorMatrix type="matrix" values="0 0 0 0 0.14902 0 0 0 0 0.0901961 0 0 0 0 0.0941176 0 0 0 1 0"/>
<feBlend mode="normal" in2="shape" result="effect1_innerShadow_4002_3097"/>
</filter>
<filter id="filter5_f_4002_3097" x="13.2718" y="17.1584" width="4.57013" height="6.1001" filterUnits="userSpaceOnUse" color-interpolation-filters="sRGB">
<feFlood flood-opacity="0" result="BackgroundImageFix"/>
<feBlend mode="normal" in="SourceGraphic" in2="BackgroundImageFix" result="shape"/>
<feGaussianBlur stdDeviation="0.25" result="effect1_foregroundBlur_4002_3097"/>
</filter>
<filter id="filter6_f_4002_3097" x="13.8301" y="17.1453" width="4.07013" height="5.6001" filterUnits="userSpaceOnUse" color-interpolation-filters="sRGB">
<feFlood flood-opacity="0" result="BackgroundImageFix"/>
<feBlend mode="normal" in="SourceGraphic" in2="BackgroundImageFix" result="shape"/>
<feGaussianBlur stdDeviation="0.125" result="effect1_foregroundBlur_4002_3097"/>
</filter>
<filter id="filter7_f_4002_3097" x="12.5251" y="23.265" width="6.68013" height="2.54131" filterUnits="userSpaceOnUse" color-interpolation-filters="sRGB">
<feFlood flood-opacity="0" result="BackgroundImageFix"/>
<feBlend mode="normal" in="SourceGraphic" in2="BackgroundImageFix" result="shape"/>
<feGaussianBlur stdDeviation="0.05" result="effect1_foregroundBlur_4002_3097"/>
</filter>
<filter id="filter8_i_4002_3097" x="17.8372" y="15.948" width="5.52761" height="2.44458" filterUnits="userSpaceOnUse" color-interpolation-filters="sRGB">
<feFlood flood-opacity="0" result="BackgroundImageFix"/>
<feBlend mode="normal" in="SourceGraphic" in2="BackgroundImageFix" result="shape"/>
<feColorMatrix in="SourceAlpha" type="matrix" values="0 0 0 0 0 0 0 0 0 0 0 0 0 0 0 0 0 0 127 0" result="hardAlpha"/>
<feOffset dx="-0.2"/>
<feGaussianBlur stdDeviation="0.2"/>
<feComposite in2="hardAlpha" operator="arithmetic" k2="-1" k3="1"/>
<feColorMatrix type="matrix" values="0 0 0 0 0.0941176 0 0 0 0 0.0666667 0 0 0 0 0.117647 0 0 0 1 0"/>
<feBlend mode="normal" in2="shape" result="effect1_innerShadow_4002_3097"/>
</filter>
<filter id="filter9_i_4002_3097" x="8.36603" y="15.948" width="5.52761" height="2.44458" filterUnits="userSpaceOnUse" color-interpolation-filters="sRGB">
<feFlood flood-opacity="0" result="BackgroundImageFix"/>
<feBlend mode="normal" in="SourceGraphic" in2="BackgroundImageFix" result="shape"/>
<feColorMatrix in="SourceAlpha" type="matrix" values="0 0 0 0 0 0 0 0 0 0 0 0 0 0 0 0 0 0 127 0" result="hardAlpha"/>
<feOffset dx="0.2"/>
<feGaussianBlur stdDeviation="0.125"/>
<feComposite in2="hardAlpha" operator="arithmetic" k2="-1" k3="1"/>
<feColorMatrix type="matrix" values="0 0 0 0 0.0862745 0 0 0 0 0.054902 0 0 0 0 0.113725 0 0 0 1 0"/>
<feBlend mode="normal" in2="shape" result="effect1_innerShadow_4002_3097"/>
</filter>
<filter id="filter10_i_4002_3097" x="8.62311" y="13.4208" width="4.48424" height="1.89458" filterUnits="userSpaceOnUse" color-interpolation-filters="sRGB">
<feFlood flood-opacity="0" result="BackgroundImageFix"/>
<feBlend mode="normal" in="SourceGraphic" in2="BackgroundImageFix" result="shape"/>
<feColorMatrix in="SourceAlpha" type="matrix" values="0 0 0 0 0 0 0 0 0 0 0 0 0 0 0 0 0 0 127 0" result="hardAlpha"/>
<feOffset dx="0.2" dy="-0.2"/>
<feGaussianBlur stdDeviation="0.15"/>
<feComposite in2="hardAlpha" operator="arithmetic" k2="-1" k3="1"/>
<feColorMatrix type="matrix" values="0 0 0 0 0.0431373 0 0 0 0 0.0235294 0 0 0 0 0.0313726 0 0 0 1 0"/>
<feBlend mode="normal" in2="shape" result="effect1_innerShadow_4002_3097"/>
</filter>
<filter id="filter11_i_4002_3097" x="18.9254" y="13.4208" width="4.48424" height="1.89458" filterUnits="userSpaceOnUse" color-interpolation-filters="sRGB">
<feFlood flood-opacity="0" result="BackgroundImageFix"/>
<feBlend mode="normal" in="SourceGraphic" in2="BackgroundImageFix" result="shape"/>
<feColorMatrix in="SourceAlpha" type="matrix" values="0 0 0 0 0 0 0 0 0 0 0 0 0 0 0 0 0 0 127 0" result="hardAlpha"/>
<feOffset dx="0.2" dy="-0.2"/>
<feGaussianBlur stdDeviation="0.15"/>
<feComposite in2="hardAlpha" operator="arithmetic" k2="-1" k3="1"/>
<feColorMatrix type="matrix" values="0 0 0 0 0.0431373 0 0 0 0 0.0235294 0 0 0 0 0.0313726 0 0 0 1 0"/>
<feBlend mode="normal" in2="shape" result="effect1_innerShadow_4002_3097"/>
</filter>
<filter id="filter12_f_4002_3097" x="18.709" y="16.7374" width="1.316" height="1.14385" filterUnits="userSpaceOnUse" color-interpolation-filters="sRGB">
<feFlood flood-opacity="0" result="BackgroundImageFix"/>
<feBlend mode="normal" in="SourceGraphic" in2="BackgroundImageFix" result="shape"/>
<feGaussianBlur stdDeviation="0.05" result="effect1_foregroundBlur_4002_3097"/>
</filter>
<filter id="filter13_f_4002_3097" x="20.3965" y="16.9702" width="1.3342" height="1.37632" filterUnits="userSpaceOnUse" color-interpolation-filters="sRGB">
<feFlood flood-opacity="0" result="BackgroundImageFix"/>
<feBlend mode="normal" in="SourceGraphic" in2="BackgroundImageFix" result="shape"/>
<feGaussianBlur stdDeviation="0.1" result="effect1_foregroundBlur_4002_3097"/>
</filter>
<filter id="filter14_f_4002_3097" x="11.947" y="16.8496" width="1.51502" height="1.61753" filterUnits="userSpaceOnUse" color-interpolation-filters="sRGB">
<feFlood flood-opacity="0" result="BackgroundImageFix"/>
<feBlend mode="normal" in="SourceGraphic" in2="BackgroundImageFix" result="shape"/>
<feGaussianBlur stdDeviation="0.1" result="effect1_foregroundBlur_4002_3097"/>
</filter>
<filter id="filter15_f_4002_3097" x="10.4215" y="16.722" width="1.55605" height="1.15923" filterUnits="userSpaceOnUse" color-interpolation-filters="sRGB">
<feFlood flood-opacity="0" result="BackgroundImageFix"/>
<feBlend mode="normal" in="SourceGraphic" in2="BackgroundImageFix" result="shape"/>
<feGaussianBlur stdDeviation="0.05" result="effect1_foregroundBlur_4002_3097"/>
</filter>
<filter id="filter16_f_4002_3097" x="19.1537" y="13.6437" width="3.95844" height="1.51841" filterUnits="userSpaceOnUse" color-interpolation-filters="sRGB">
<feFlood flood-opacity="0" result="BackgroundImageFix"/>
<feBlend mode="normal" in="SourceGraphic" in2="BackgroundImageFix" result="shape"/>
<feGaussianBlur stdDeviation="0.1" result="effect1_foregroundBlur_4002_3097"/>
</filter>
<filter id="filter17_f_4002_3097" x="8.7859" y="13.6437" width="3.95844" height="1.51841" filterUnits="userSpaceOnUse" color-interpolation-filters="sRGB">
<feFlood flood-opacity="0" result="BackgroundImageFix"/>
<feBlend mode="normal" in="SourceGraphic" in2="BackgroundImageFix" result="shape"/>
<feGaussianBlur stdDeviation="0.1" result="effect1_foregroundBlur_4002_3097"/>
</filter>
<filter id="filter18_i_4002_3097" x="20.4172" y="1.9271" width="7.30657" height="5.16787" filterUnits="userSpaceOnUse" color-interpolation-filters="sRGB">
<feFlood flood-opacity="0" result="BackgroundImageFix"/>
<feBlend mode="normal" in="SourceGraphic" in2="BackgroundImageFix" result="shape"/>
<feColorMatrix in="SourceAlpha" type="matrix" values="0 0 0 0 0 0 0 0 0 0 0 0 0 0 0 0 0 0 127 0" result="hardAlpha"/>
<feOffset dx="0.1" dy="-0.1"/>
<feGaussianBlur stdDeviation="0.15"/>
<feComposite in2="hardAlpha" operator="arithmetic" k2="-1" k3="1"/>
<feColorMatrix type="matrix" values="0 0 0 0 0.843137 0 0 0 0 0.8 0 0 0 0 0.890196 0 0 0 1 0"/>
<feBlend mode="normal" in2="shape" result="effect1_innerShadow_4002_3097"/>
</filter>
<filter id="filter19_ii_4002_3097" x="14.4652" y="8.14087" width="12.9252" height="6.71377" filterUnits="userSpaceOnUse" color-interpolation-filters="sRGB">
<feFlood flood-opacity="0" result="BackgroundImageFix"/>
<feBlend mode="normal" in="SourceGraphic" in2="BackgroundImageFix" result="shape"/>
<feColorMatrix in="SourceAlpha" type="matrix" values="0 0 0 0 0 0 0 0 0 0 0 0 0 0 0 0 0 0 127 0" result="hardAlpha"/>
<feOffset dx="-0.05" dy="0.1"/>
<feGaussianBlur stdDeviation="0.125"/>
<feComposite in2="hardAlpha" operator="arithmetic" k2="-1" k3="1"/>
<feColorMatrix type="matrix" values="0 0 0 0 1 0 0 0 0 0.992157 0 0 0 0 1 0 0 0 1 0"/>
<feBlend mode="normal" in2="shape" result="effect1_innerShadow_4002_3097"/>
<feColorMatrix in="SourceAlpha" type="matrix" values="0 0 0 0 0 0 0 0 0 0 0 0 0 0 0 0 0 0 127 0" result="hardAlpha"/>
<feOffset dx="0.4" dy="-0.25"/>
<feGaussianBlur stdDeviation="0.325"/>
<feComposite in2="hardAlpha" operator="arithmetic" k2="-1" k3="1"/>
<feColorMatrix type="matrix" values="0 0 0 0 0.670588 0 0 0 0 0.560784 0 0 0 0 0.756863 0 0 0 1 0"/>
<feBlend mode="normal" in2="effect1_innerShadow_4002_3097" result="effect2_innerShadow_4002_3097"/>
</filter>
<filter id="filter20_i_4002_3097" x="4.10651" y="1.7771" width="17.0058" height="13.0586" filterUnits="userSpaceOnUse" color-interpolation-filters="sRGB">
<feFlood flood-opacity="0" result="BackgroundImageFix"/>
<feBlend mode="normal" in="SourceGraphic" in2="BackgroundImageFix" result="shape"/>
<feColorMatrix in="SourceAlpha" type="matrix" values="0 0 0 0 0 0 0 0 0 0 0 0 0 0 0 0 0 0 127 0" result="hardAlpha"/>
<feOffset dx="-0.25" dy="-0.25"/>
<feGaussianBlur stdDeviation="0.3"/>
<feComposite in2="hardAlpha" operator="arithmetic" k2="-1" k3="1"/>
<feColorMatrix type="matrix" values="0 0 0 0 0.603922 0 0 0 0 0.45098 0 0 0 0 0.721569 0 0 0 1 0"/>
<feBlend mode="normal" in2="shape" result="effect1_innerShadow_4002_3097"/>
</filter>
<filter id="filter21_i_4002_3097" x="4.25651" y="1.9271" width="13.7574" height="8.67886" filterUnits="userSpaceOnUse" color-interpolation-filters="sRGB">
<feFlood flood-opacity="0" result="BackgroundImageFix"/>
<feBlend mode="normal" in="SourceGraphic" in2="BackgroundImageFix" result="shape"/>
<feColorMatrix in="SourceAlpha" type="matrix" values="0 0 0 0 0 0 0 0 0 0 0 0 0 0 0 0 0 0 127 0" result="hardAlpha"/>
<feOffset dx="-0.1" dy="-0.1"/>
<feGaussianBlur stdDeviation="0.15"/>
<feComposite in2="hardAlpha" operator="arithmetic" k2="-1" k3="1"/>
<feColorMatrix type="matrix" values="0 0 0 0 0.611765 0 0 0 0 0.588235 0 0 0 0 0.635294 0 0 0 1 0"/>
<feBlend mode="normal" in2="shape" result="effect1_innerShadow_4002_3097"/>
</filter>
<filter id="filter22_ii_4002_3097" x="4.35651" y="1.8271" width="10.5226" height="5.98608" filterUnits="userSpaceOnUse" color-interpolation-filters="sRGB">
<feFlood flood-opacity="0" result="BackgroundImageFix"/>
<feBlend mode="normal" in="SourceGraphic" in2="BackgroundImageFix" result="shape"/>
<feColorMatrix in="SourceAlpha" type="matrix" values="0 0 0 0 0 0 0 0 0 0 0 0 0 0 0 0 0 0 127 0" result="hardAlpha"/>
<feOffset dy="-0.2"/>
<feGaussianBlur stdDeviation="0.2"/>
<feComposite in2="hardAlpha" operator="arithmetic" k2="-1" k3="1"/>
<feColorMatrix type="matrix" values="0 0 0 0 0.686275 0 0 0 0 0.619608 0 0 0 0 0.752941 0 0 0 1 0"/>
<feBlend mode="normal" in2="shape" result="effect1_innerShadow_4002_3097"/>
<feColorMatrix in="SourceAlpha" type="matrix" values="0 0 0 0 0 0 0 0 0 0 0 0 0 0 0 0 0 0 127 0" result="hardAlpha"/>
<feOffset dy="0.05"/>
<feGaussianBlur stdDeviation="0.15"/>
<feComposite in2="hardAlpha" operator="arithmetic" k2="-1" k3="1"/>
<feColorMatrix type="matrix" values="0 0 0 0 0.705882 0 0 0 0 0.701961 0 0 0 0 0.705882 0 0 0 1 0"/>
<feBlend mode="normal" in2="effect1_innerShadow_4002_3097" result="effect2_innerShadow_4002_3097"/>
</filter>
<linearGradient id="paint0_linear_4002_3097" x1="3.8941" y1="18.7847" x2="9.52202" y2="18.7847" gradientUnits="userSpaceOnUse">
<stop stop-color="#392526"/>
<stop offset="1" stop-color="#2A1C1F"/>
</linearGradient>
<radialGradient id="paint1_radial_4002_3097" cx="0" cy="0" r="1" gradientUnits="userSpaceOnUse" gradientTransform="translate(23.5477 19.4541) rotate(-24.444) scale(5.19968 6.34856)">
<stop offset="0.63975" stop-color="#493033"/>
<stop offset="0.94391" stop-color="#6A5956"/>
</radialGradient>
<radialGradient id="paint2_radial_4002_3097" cx="0" cy="0" r="1" gradientUnits="userSpaceOnUse" gradientTransform="translate(25.508 15.4218) rotate(29.2711) scale(2.86855 0.810982)">
<stop stop-color="#402824"/>
<stop offset="1" stop-color="#402824" stop-opacity="0"/>
</radialGradient>
<radialGradient id="paint3_radial_4002_3097" cx="0" cy="0" r="1" gradientUnits="userSpaceOnUse" gradientTransform="translate(24.2169 18.8327) rotate(-4.25413) scale(2.8794 2.25089)">
<stop offset="0.719132" stop-color="#371D1F" stop-opacity="0"/>
<stop offset="1" stop-color="#371D1F"/>
</radialGradient>
<radialGradient id="paint4_radial_4002_3097" cx="0" cy="0" r="1" gradientUnits="userSpaceOnUse" gradientTransform="translate(7.11511 18.6191) rotate(180) scale(2.29508 1.81054)">
<stop offset="0.666667" stop-color="#2D181A" stop-opacity="0"/>
<stop offset="1" stop-color="#2D181A"/>
</radialGradient>
<radialGradient id="paint5_radial_4002_3097" cx="0" cy="0" r="1" gradientUnits="userSpaceOnUse" gradientTransform="translate(21.3029 17.597) rotate(155.244) scale(13.62 18.2301)">
<stop stop-color="#4F322E"/>
<stop offset="1" stop-color="#402A29"/>
</radialGradient>
<radialGradient id="paint6_radial_4002_3097" cx="0" cy="0" r="1" gradientUnits="userSpaceOnUse" gradientTransform="translate(19.3397 19.1994) rotate(154.513) scale(4.29038 2.98775)">
<stop stop-color="#533632"/>
<stop offset="1" stop-color="#533632" stop-opacity="0"/>
</radialGradient>
<radialGradient id="paint7_radial_4002_3097" cx="0" cy="0" r="1" gradientUnits="userSpaceOnUse" gradientTransform="translate(11.7199 30.4959) rotate(-72.8383) scale(6.91875 8.77861)">
<stop stop-color="#3A1F30"/>
<stop offset="1" stop-color="#3A1F30" stop-opacity="0"/>
</radialGradient>
<radialGradient id="paint8_radial_4002_3097" cx="0" cy="0" r="1" gradientUnits="userSpaceOnUse" gradientTransform="translate(16.8927 17.8955) rotate(96.7269) scale(13.0217 13.0914)">
<stop offset="0.72739" stop-color="#3F243B" stop-opacity="0"/>
<stop offset="1" stop-color="#3F243B"/>
</radialGradient>
<radialGradient id="paint9_radial_4002_3097" cx="0" cy="0" r="1" gradientUnits="userSpaceOnUse" gradientTransform="translate(15.3674 18.3388) rotate(90) scale(12.4887 12.5556)">
<stop offset="0.79368" stop-color="#3B232B" stop-opacity="0"/>
<stop offset="1" stop-color="#2B151B"/>
</radialGradient>
<radialGradient id="paint10_radial_4002_3097" cx="0" cy="0" r="1" gradientUnits="userSpaceOnUse" gradientTransform="translate(19.3079 20.8889) rotate(168.897) scale(13.3835 23.0423)">
<stop offset="0.794964" stop-color="#5E4543" stop-opacity="0"/>
<stop offset="1" stop-color="#5E4543"/>
</radialGradient>
<radialGradient id="paint11_radial_4002_3097" cx="0" cy="0" r="1" gradientUnits="userSpaceOnUse" gradientTransform="translate(20.2418 16.8012) rotate(-90) scale(2.1885 2.68589)">
<stop stop-color="#43272A"/>
<stop offset="1" stop-color="#43272A" stop-opacity="0"/>
</radialGradient>
<radialGradient id="paint12_radial_4002_3097" cx="0" cy="0" r="1" gradientUnits="userSpaceOnUse" gradientTransform="translate(11.9162 16.3666) rotate(-90) scale(2.4961 2.8607)">
<stop stop-color="#371E27"/>
<stop offset="1" stop-color="#371E27" stop-opacity="0"/>
</radialGradient>
<radialGradient id="paint13_radial_4002_3097" cx="0" cy="0" r="1" gradientUnits="userSpaceOnUse" gradientTransform="translate(25.431 14.9638) rotate(90) scale(11.1875 3.41528)">
<stop stop-color="#553835"/>
<stop offset="1" stop-color="#553835" stop-opacity="0"/>
</radialGradient>
<radialGradient id="paint14_radial_4002_3097" cx="0" cy="0" r="1" gradientUnits="userSpaceOnUse" gradientTransform="translate(20.0782 9.90128) rotate(131.403) scale(7.74924 5.184)">
<stop stop-color="#655352"/>
<stop offset="1" stop-color="#655352" stop-opacity="0"/>
</radialGradient>
<radialGradient id="paint15_radial_4002_3097" cx="0" cy="0" r="1" gradientUnits="userSpaceOnUse" gradientTransform="translate(15.8616 14.5263) rotate(90) scale(15.4465 12.4709)">
<stop offset="0.926" stop-color="#422742" stop-opacity="0"/>
<stop offset="1" stop-color="#5E4964"/>
</radialGradient>
<radialGradient id="paint16_radial_4002_3097" cx="0" cy="0" r="1" gradientUnits="userSpaceOnUse" gradientTransform="translate(17.3569 21.0125) rotate(-102.564) scale(3.98261 1.22741)">
<stop offset="0.0168227" stop-color="#634D4B"/>
<stop offset="1" stop-color="#634D4B" stop-opacity="0"/>
</radialGradient>
<linearGradient id="paint17_linear_4002_3097" x1="14.0801" y1="21.151" x2="15.8652" y2="21.151" gradientUnits="userSpaceOnUse">
<stop stop-color="#3D2928"/>
<stop offset="1" stop-color="#3D2928" stop-opacity="0"/>
</linearGradient>
<linearGradient id="paint18_linear_4002_3097" x1="15.8652" y1="22.6704" x2="15.8652" y2="21.5099" gradientUnits="userSpaceOnUse">
<stop stop-color="#3A1F30"/>
<stop offset="1" stop-color="#3A1F30" stop-opacity="0"/>
</linearGradient>
<radialGradient id="paint19_radial_4002_3097" cx="0" cy="0" r="1" gradientUnits="userSpaceOnUse" gradientTransform="translate(16.9012 21.4149) rotate(-180) scale(1.48224 0.414391)">
<stop stop-color="#655251"/>
<stop offset="1" stop-color="#655251" stop-opacity="0"/>
</radialGradient>
<linearGradient id="paint20_linear_4002_3097" x1="13.841" y1="25.3512" x2="14.7176" y2="23.9965" gradientUnits="userSpaceOnUse">
<stop stop-color="#564848"/>
<stop offset="0.663171" stop-color="#564848" stop-opacity="0"/>
</linearGradient>
<radialGradient id="paint21_radial_4002_3097" cx="0" cy="0" r="1" gradientUnits="userSpaceOnUse" gradientTransform="translate(20.0151 17.4836) rotate(90) scale(1.54294 2.45421)">
<stop offset="0.80198" stop-color="#7D574A"/>
<stop offset="1" stop-color="#694B43"/>
<stop offset="1" stop-color="#804D49"/>
<stop offset="1" stop-color="#664944"/>
</radialGradient>
<radialGradient id="paint22_radial_4002_3097" cx="0" cy="0" r="1" gradientUnits="userSpaceOnUse" gradientTransform="translate(19.581 17.6438) rotate(-127.812) scale(0.719413 0.990459)">
<stop offset="0.765532" stop-color="#FFE6E2" stop-opacity="0"/>
<stop offset="0.966159" stop-color="#FFE6E2"/>
</radialGradient>
<linearGradient id="paint23_linear_4002_3097" x1="21.4945" y1="17.586" x2="20.8979" y2="17.9537" gradientUnits="userSpaceOnUse">
<stop stop-color="#B4948D"/>
<stop offset="1" stop-color="#B4948D" stop-opacity="0"/>
</linearGradient>
<radialGradient id="paint24_radial_4002_3097" cx="0" cy="0" r="1" gradientUnits="userSpaceOnUse" gradientTransform="translate(11.7153 17.4836) rotate(90) scale(1.54295 2.45423)">
<stop offset="0.80198" stop-color="#7D574A"/>
<stop offset="1" stop-color="#694B43"/>
<stop offset="1" stop-color="#804D49"/>
<stop offset="1" stop-color="#664944"/>
</radialGradient>
<linearGradient id="paint25_linear_4002_3097" x1="13.1299" y1="17.586" x2="12.5332" y2="17.9536" gradientUnits="userSpaceOnUse">
<stop stop-color="#B4948D"/>
<stop offset="1" stop-color="#B4948D" stop-opacity="0"/>
</linearGradient>
<radialGradient id="paint26_radial_4002_3097" cx="0" cy="0" r="1" gradientUnits="userSpaceOnUse" gradientTransform="translate(11.1708 17.9005) rotate(-90.897) scale(0.939703 1.12956)">
<stop offset="0.765532" stop-color="#FFE6E2" stop-opacity="0"/>
<stop offset="0.966159" stop-color="#FFE6E2"/>
</radialGradient>
<radialGradient id="paint27_radial_4002_3097" cx="0" cy="0" r="1" gradientUnits="userSpaceOnUse" gradientTransform="translate(25.881 5.05385) rotate(102.642) scale(3.84807 9.00302)">
<stop stop-color="#F8F6FB"/>
<stop offset="0.789023" stop-color="#EBE6F2"/>
</radialGradient>
<radialGradient id="paint28_radial_4002_3097" cx="0" cy="0" r="1" gradientUnits="userSpaceOnUse" gradientTransform="translate(20.3466 6.68726) rotate(14.2373) scale(2.1601 4.68885)">
<stop offset="0.151966" stop-color="#CFCAD4"/>
<stop offset="1" stop-color="#ECE8F1" stop-opacity="0"/>
</radialGradient>
<radialGradient id="paint29_radial_4002_3097" cx="0" cy="0" r="1" gradientUnits="userSpaceOnUse" gradientTransform="translate(22.2841 10.531) rotate(-60.2551) scale(3.02335 7.29286)">
<stop stop-color="#D3CFD9"/>
<stop offset="1" stop-color="#D3CFD9" stop-opacity="0"/>
</radialGradient>
<radialGradient id="paint30_radial_4002_3097" cx="0" cy="0" r="1" gradientUnits="userSpaceOnUse" gradientTransform="translate(21.2529 2.0271) rotate(86.62) scale(2.91523 14.5608)">
<stop stop-color="#DBDBDC"/>
<stop offset="1" stop-color="#FAFAFA"/>
</radialGradient>
<radialGradient id="paint31_radial_4002_3097" cx="0" cy="0" r="1" gradientUnits="userSpaceOnUse" gradientTransform="translate(20.7997 3.34351) scale(1.45313 5.1925)">
<stop offset="0.253333" stop-color="#E2DCE8"/>
<stop offset="1" stop-color="#E2DCE8" stop-opacity="0"/>
</radialGradient>
<linearGradient id="paint32_linear_4002_3097" x1="26.1591" y1="13.5937" x2="15.4091" y2="13.5937" gradientUnits="userSpaceOnUse">
<stop stop-color="#EEE8F4"/>
<stop offset="1" stop-color="#DDD6E4"/>
</linearGradient>
<radialGradient id="paint33_radial_4002_3097" cx="0" cy="0" r="1" gradientUnits="userSpaceOnUse" gradientTransform="translate(17.6904 9.06246) rotate(34.8457) scale(3.00813 5.30524)">
<stop offset="0.390909" stop-color="#BFB1C9"/>
<stop offset="1" stop-color="#E0DAE8" stop-opacity="0"/>
</radialGradient>
<radialGradient id="paint34_radial_4002_3097" cx="0" cy="0" r="1" gradientUnits="userSpaceOnUse" gradientTransform="translate(24.6528 14.5112) rotate(-90) scale(2.93844 1.49148)">
<stop offset="0.305556" stop-color="#B384B3"/>
<stop offset="1" stop-color="#B384B3" stop-opacity="0"/>
</radialGradient>
<radialGradient id="paint35_radial_4002_3097" cx="0" cy="0" r="1" gradientUnits="userSpaceOnUse" gradientTransform="translate(18.7529 8.68746) scale(3.71875 0.303372)">
<stop stop-color="#D0CCD3"/>
<stop offset="1" stop-color="#D0CCD3" stop-opacity="0"/>
</radialGradient>
<radialGradient id="paint36_radial_4002_3097" cx="0" cy="0" r="1" gradientUnits="userSpaceOnUse" gradientTransform="translate(21.5654 5.59351) rotate(-178.746) scale(4.28228 8.93452)">
<stop stop-color="#F5F4F6"/>
<stop offset="1" stop-color="#CFC8D7"/>
</radialGradient>
<radialGradient id="paint37_radial_4002_3097" cx="0" cy="0" r="1" gradientUnits="userSpaceOnUse" gradientTransform="translate(9.12986 5.74753) rotate(16.9588) scale(12.0758 16.4858)">
<stop offset="0.632838" stop-color="#D1CAD9" stop-opacity="0"/>
<stop offset="0.952334" stop-color="#F1EDF4"/>
</radialGradient>
<radialGradient id="paint38_radial_4002_3097" cx="0" cy="0" r="1" gradientUnits="userSpaceOnUse" gradientTransform="translate(16.8409 4.60516) rotate(-76.7809) scale(4.85684 1.6553)">
<stop offset="0.347947" stop-color="#C5C2C8"/>
<stop offset="1" stop-color="#C5C2C8" stop-opacity="0"/>
</radialGradient>
<radialGradient id="paint39_radial_4002_3097" cx="0" cy="0" r="1" gradientUnits="userSpaceOnUse" gradientTransform="translate(9.19332 7.39762) rotate(92.7263) scale(1.33428 6.76658)">
<stop stop-color="#BDBBBE"/>
<stop offset="1" stop-color="#BDBBBE" stop-opacity="0"/>
</radialGradient>
<radialGradient id="paint40_radial_4002_3097" cx="0" cy="0" r="1" gradientUnits="userSpaceOnUse" gradientTransform="translate(17.539 7.52455) rotate(168.173) scale(13.7789 18.0251)">
<stop offset="0.680971" stop-color="#BFB7C6" stop-opacity="0"/>
<stop offset="1" stop-color="#BFB7C6"/>
</radialGradient>
<radialGradient id="paint41_radial_4002_3097" cx="0" cy="0" r="1" gradientUnits="userSpaceOnUse" gradientTransform="translate(6.94031 14.5057) rotate(-77.2756) scale(4.0339 2.37789)">
<stop offset="0.200918" stop-color="#A87B9C"/>
<stop offset="1" stop-color="#A87B9C" stop-opacity="0"/>
</radialGradient>
<radialGradient id="paint42_radial_4002_3097" cx="0" cy="0" r="1" gradientUnits="userSpaceOnUse" gradientTransform="translate(18.0139 2.37476) rotate(137.988) scale(9.89862 9.45071)">
<stop stop-color="#DDDDDE"/>
<stop offset="1" stop-color="#C0BBC4"/>
</radialGradient>
<radialGradient id="paint43_radial_4002_3097" cx="0" cy="0" r="1" gradientUnits="userSpaceOnUse" gradientTransform="translate(18.4404 3.49976) rotate(-180) scale(1.78125 4.75)">
<stop stop-color="#EBEAEC"/>
<stop offset="1" stop-color="#EBEAEC" stop-opacity="0"/>
</radialGradient>
<linearGradient id="paint44_linear_4002_3097" x1="4.35651" y1="9.56226" x2="8.53412" y2="8.59351" gradientUnits="userSpaceOnUse">
<stop stop-color="#B6B0BB"/>
<stop offset="1" stop-color="#B6B0BB" stop-opacity="0"/>
</linearGradient>
<radialGradient id="paint45_radial_4002_3097" cx="0" cy="0" r="1" gradientUnits="userSpaceOnUse" gradientTransform="translate(10.1279 4.12476) rotate(1.21243) scale(5.90757 1.31221)">
<stop stop-color="#B8B2BE"/>
<stop offset="1" stop-color="#B8B2BE" stop-opacity="0"/>
</radialGradient>
<radialGradient id="paint46_radial_4002_3097" cx="0" cy="0" r="1" gradientUnits="userSpaceOnUse" gradientTransform="translate(14.1279 2.46851) rotate(-4.18492) scale(1.28468 2.43328)">
<stop offset="0.255949" stop-color="#BBB9BD"/>
<stop offset="1" stop-color="#BBB9BD" stop-opacity="0"/>
</radialGradient>
<radialGradient id="paint47_radial_4002_3097" cx="0" cy="0" r="1" gradientUnits="userSpaceOnUse" gradientTransform="translate(14.5341 2.59351) rotate(168.391) scale(8.23086 15.0993)">
<stop stop-color="#D2D1D3"/>
<stop offset="1" stop-color="#B5B4B6"/>
</radialGradient>
<radialGradient id="paint48_radial_4002_3097" cx="0" cy="0" r="1" gradientUnits="userSpaceOnUse" gradientTransform="translate(7.25287 3.24976) rotate(6.87793) scale(8.08947 9.30886)">
<stop offset="0.868811" stop-color="#A5A0A9" stop-opacity="0"/>
<stop offset="1" stop-color="#A5A0A9"/>
</radialGradient>
<radialGradient id="paint49_radial_4002_3097" cx="0" cy="0" r="1" gradientUnits="userSpaceOnUse" gradientTransform="translate(4.59662 7.76315) rotate(-40.5471) scale(3.5779 2.63113)">
<stop stop-color="#BCB7C1"/>
<stop offset="1" stop-color="#BCB7C1" stop-opacity="0"/>
</radialGradient>
</defs>
</svg>
