<svg width="32" height="32" viewBox="0 0 32 32" fill="none" xmlns="http://www.w3.org/2000/svg">
<path d="M14.4271 9.9941C14.4271 12.4407 12.4438 14.4241 9.99714 14.4241C7.55052 14.4241 5.56714 12.4407 5.56714 9.9941C5.56714 7.54748 7.55052 5.5641 9.99714 5.5641C12.4438 5.5641 14.4271 7.54748 14.4271 9.9941Z" fill="#212121"/>
<path d="M25.9736 6.01638C19.8676 -0.0791082 10.3904 -0.782484 4.80072 4.7963C-0.791459 10.3776 -0.074604 19.8566 6.03003 25.9612C12.1352 32.0663 21.6135 32.782 27.2042 27.1912C32.795 21.6004 32.0788 12.1215 25.9736 6.01638ZM6.21355 6.2119C10.8638 1.57076 19.0664 1.9473 24.5604 7.43154C30.0549 12.9264 30.4392 21.1279 25.79 25.777C21.1408 30.4262 12.9391 30.0419 7.44424 24.547C1.94888 19.0516 1.56574 10.8506 6.21355 6.2119Z" fill="#212121"/>
</svg>
