<svg width="32" height="32" viewBox="0 0 32 32" fill="none" xmlns="http://www.w3.org/2000/svg">
<path d="M20.8111 2.90934C18.675 5.08769 16.1705 8.0578 15.2955 11.5422L15.0727 14.3078H20.1039C21.1352 12.4848 22.9164 8.98743 24.6783 7.00311C26.4401 5.01879 25.2332 3.22546 24.6119 2.69449C24.1822 2.3273 22.3892 1.29999 20.8111 2.90934Z" fill="#4A2C29"/>
<path d="M20.8111 2.90934C18.675 5.08769 16.1705 8.0578 15.2955 11.5422L15.0727 14.3078H20.1039C21.1352 12.4848 22.9164 8.98743 24.6783 7.00311C26.4401 5.01879 25.2332 3.22546 24.6119 2.69449C24.1822 2.3273 22.3892 1.29999 20.8111 2.90934Z" fill="url(#paint0_radial_20020_2204)"/>
<path d="M20.8111 2.90934C18.675 5.08769 16.1705 8.0578 15.2955 11.5422L15.0727 14.3078H20.1039C21.1352 12.4848 22.9164 8.98743 24.6783 7.00311C26.4401 5.01879 25.2332 3.22546 24.6119 2.69449C24.1822 2.3273 22.3892 1.29999 20.8111 2.90934Z" fill="url(#paint1_radial_20020_2204)"/>
<path d="M20.8111 2.90934C18.675 5.08769 16.1705 8.0578 15.2955 11.5422L15.0727 14.3078H20.1039C21.1352 12.4848 22.9164 8.98743 24.6783 7.00311C26.4401 5.01879 25.2332 3.22546 24.6119 2.69449C24.1822 2.3273 22.3892 1.29999 20.8111 2.90934Z" fill="url(#paint2_radial_20020_2204)"/>
<path d="M20.8111 2.90934C18.675 5.08769 16.1705 8.0578 15.2955 11.5422L15.0727 14.3078H20.1039C21.1352 12.4848 22.9164 8.98743 24.6783 7.00311C26.4401 5.01879 25.2332 3.22546 24.6119 2.69449C24.1822 2.3273 22.3892 1.29999 20.8111 2.90934Z" fill="url(#paint3_radial_20020_2204)"/>
<path d="M20.8111 2.90934C18.675 5.08769 16.1705 8.0578 15.2955 11.5422L15.0727 14.3078H20.1039C21.1352 12.4848 22.9164 8.98743 24.6783 7.00311C26.4401 5.01879 25.2332 3.22546 24.6119 2.69449C24.1822 2.3273 22.3892 1.29999 20.8111 2.90934Z" fill="url(#paint4_radial_20020_2204)"/>
<g filter="url(#filter0_f_20020_2204)">
<path d="M23.581 4.65827C22.6522 5.80998 21.6346 7.2775 20.3343 9.07342" stroke="#64514E" stroke-width="2.5" stroke-linecap="round"/>
</g>
<g filter="url(#filter1_i_20020_2204)">
<path d="M6.01019 20.8209L5.82269 15.7066V14.1516H20.2914C20.3019 13.3078 18.4478 10.036 16.0377 6.83125C14.6158 4.94063 15.4176 3.26568 16.5533 2.52657C18.0299 1.56562 19.772 2.27651 20.4986 3.42498C20.4986 3.42498 26.1352 9.35468 26.1352 16.7295C26.2623 21.3699 26.1666 22.1266 24.9164 24.5891C23.1014 28.1643 19.1997 29.9464 15.6685 29.9464C9.85598 29.9464 6.19769 25.8078 6.01019 20.8209Z" fill="#452B32"/>
<path d="M6.01019 20.8209L5.82269 15.7066V14.1516H20.2914C20.3019 13.3078 18.4478 10.036 16.0377 6.83125C14.6158 4.94063 15.4176 3.26568 16.5533 2.52657C18.0299 1.56562 19.772 2.27651 20.4986 3.42498C20.4986 3.42498 26.1352 9.35468 26.1352 16.7295C26.2623 21.3699 26.1666 22.1266 24.9164 24.5891C23.1014 28.1643 19.1997 29.9464 15.6685 29.9464C9.85598 29.9464 6.19769 25.8078 6.01019 20.8209Z" fill="url(#paint5_radial_20020_2204)"/>
</g>
<g filter="url(#filter2_f_20020_2204)">
<path d="M16.8422 15.1047C15.1101 15.1047 13.7059 16.3504 13.7059 17.8871C13.7059 19.4237 15.1101 20.6695 16.8422 20.6695H18.513C21.0385 20.6695 21.6927 20.8019 21.8918 21.0285L23.4278 20.8511C24.6577 22.2502 24.4234 21.5026 24.4234 19.7283V19.2236C24.4234 16.3834 22.8636 15.5125 19.7727 15.1526C19.584 15.1211 19.3893 15.1047 19.1903 15.1047H16.8422Z" fill="#221013"/>
</g>
<g filter="url(#filter3_f_20020_2204)">
<path d="M6.37534 12.1542C6.37534 10.7979 7.52996 9.69843 8.95426 9.69843C10.3786 9.69843 11.5332 10.7979 11.5332 12.1542V14.414C11.5332 15.7703 10.3786 16.8698 8.95426 16.8698C7.52996 16.8698 6.37534 15.7703 6.37534 14.414V12.1542Z" fill="#221013"/>
</g>
<g filter="url(#filter4_f_20020_2204)">
<path d="M9.82745 12.9127C9.82745 11.5643 10.9754 10.4712 12.3914 10.4712C13.8074 10.4712 14.9554 11.5643 14.9554 12.9127V15.1595C14.9554 16.5079 13.8074 17.6009 12.3914 17.6009C10.9754 17.6009 9.82745 16.5079 9.82745 15.1595V12.9127Z" fill="#221013"/>
</g>
<path d="M5.82269 11.6631C5.82269 10.2329 7.0723 9.07343 8.61377 9.07343C10.1552 9.07343 11.4049 10.2329 11.4049 11.6631V14.0462C11.4049 15.4765 10.1552 16.6359 8.61377 16.6359C7.0723 16.6359 5.82269 15.4765 5.82269 14.0462V11.6631Z" fill="#4B312D"/>
<path d="M5.82269 11.6631C5.82269 10.2329 7.0723 9.07343 8.61377 9.07343C10.1552 9.07343 11.4049 10.2329 11.4049 11.6631V14.0462C11.4049 15.4765 10.1552 16.6359 8.61377 16.6359C7.0723 16.6359 5.82269 15.4765 5.82269 14.0462V11.6631Z" fill="url(#paint6_linear_20020_2204)"/>
<path d="M5.82269 11.6631C5.82269 10.2329 7.0723 9.07343 8.61377 9.07343C10.1552 9.07343 11.4049 10.2329 11.4049 11.6631V14.0462C11.4049 15.4765 10.1552 16.6359 8.61377 16.6359C7.0723 16.6359 5.82269 15.4765 5.82269 14.0462V11.6631Z" fill="url(#paint7_radial_20020_2204)"/>
<path d="M5.82269 11.6631C5.82269 10.2329 7.0723 9.07343 8.61377 9.07343C10.1552 9.07343 11.4049 10.2329 11.4049 11.6631V14.0462C11.4049 15.4765 10.1552 16.6359 8.61377 16.6359C7.0723 16.6359 5.82269 15.4765 5.82269 14.0462V11.6631Z" fill="url(#paint8_radial_20020_2204)"/>
<path d="M10.3345 10.9131C10.3345 9.26711 11.6058 7.9328 13.1741 7.9328C14.7423 7.9328 16.0136 9.26711 16.0136 10.9131V13.6557C16.0136 15.3016 14.7423 16.6359 13.1741 16.6359C11.6058 16.6359 10.3345 15.3016 10.3345 13.6557V10.9131Z" fill="#4B312D"/>
<path d="M10.3345 10.9131C10.3345 9.26711 11.6058 7.9328 13.1741 7.9328C14.7423 7.9328 16.0136 9.26711 16.0136 10.9131V13.6557C16.0136 15.3016 14.7423 16.6359 13.1741 16.6359C11.6058 16.6359 10.3345 15.3016 10.3345 13.6557V10.9131Z" fill="url(#paint9_radial_20020_2204)"/>
<path d="M10.3345 10.9131C10.3345 9.26711 11.6058 7.9328 13.1741 7.9328C14.7423 7.9328 16.0136 9.26711 16.0136 10.9131V13.6557C16.0136 15.3016 14.7423 16.6359 13.1741 16.6359C11.6058 16.6359 10.3345 15.3016 10.3345 13.6557V10.9131Z" fill="url(#paint10_linear_20020_2204)"/>
<path d="M10.3345 10.9131C10.3345 9.26711 11.6058 7.9328 13.1741 7.9328C14.7423 7.9328 16.0136 9.26711 16.0136 10.9131V13.6557C16.0136 15.3016 14.7423 16.6359 13.1741 16.6359C11.6058 16.6359 10.3345 15.3016 10.3345 13.6557V10.9131Z" fill="url(#paint11_radial_20020_2204)"/>
<g filter="url(#filter5_f_20020_2204)">
<path d="M18.7304 4.228C20.8401 6.47297 23.6261 10.422 23.9507 13.83C24.2952 17.4468 24.5638 20.1051 24.3834 21.0247" stroke="#634F4D" stroke-width="2" stroke-linecap="round"/>
</g>
<path d="M17.8265 13.4797C16.1783 13.4797 14.8421 14.8158 14.8421 16.4641C14.8421 18.1123 16.1783 19.4484 17.8265 19.4484H19.4163C19.7245 19.4484 20.0154 19.5905 20.2049 19.8335L22.2494 22.4551C23.4196 23.9558 25.8265 23.1283 25.8265 21.2252V19.4797C25.8265 16.4332 23.5561 13.9171 20.6151 13.531C20.4355 13.4973 20.2502 13.4797 20.0609 13.4797H17.8265Z" fill="url(#paint12_radial_20020_2204)"/>
<path d="M17.8265 13.4797C16.1783 13.4797 14.8421 14.8158 14.8421 16.4641C14.8421 18.1123 16.1783 19.4484 17.8265 19.4484H19.4163C19.7245 19.4484 20.0154 19.5905 20.2049 19.8335L22.2494 22.4551C23.4196 23.9558 25.8265 23.1283 25.8265 21.2252V19.4797C25.8265 16.4332 23.5561 13.9171 20.6151 13.531C20.4355 13.4973 20.2502 13.4797 20.0609 13.4797H17.8265Z" fill="url(#paint13_linear_20020_2204)"/>
<path d="M17.8265 13.4797C16.1783 13.4797 14.8421 14.8158 14.8421 16.4641C14.8421 18.1123 16.1783 19.4484 17.8265 19.4484H19.4163C19.7245 19.4484 20.0154 19.5905 20.2049 19.8335L22.2494 22.4551C23.4196 23.9558 25.8265 23.1283 25.8265 21.2252V19.4797C25.8265 16.4332 23.5561 13.9171 20.6151 13.531C20.4355 13.4973 20.2502 13.4797 20.0609 13.4797H17.8265Z" fill="url(#paint14_radial_20020_2204)"/>
<path d="M17.8265 13.4797C16.1783 13.4797 14.8421 14.8158 14.8421 16.4641C14.8421 18.1123 16.1783 19.4484 17.8265 19.4484H19.4163C19.7245 19.4484 20.0154 19.5905 20.2049 19.8335L22.2494 22.4551C23.4196 23.9558 25.8265 23.1283 25.8265 21.2252V19.4797C25.8265 16.4332 23.5561 13.9171 20.6151 13.531C20.4355 13.4973 20.2502 13.4797 20.0609 13.4797H17.8265Z" fill="url(#paint15_radial_20020_2204)"/>
<path d="M17.8265 13.4797C16.1783 13.4797 14.8421 14.8158 14.8421 16.4641C14.8421 18.1123 16.1783 19.4484 17.8265 19.4484H19.4163C19.7245 19.4484 20.0154 19.5905 20.2049 19.8335L22.2494 22.4551C23.4196 23.9558 25.8265 23.1283 25.8265 21.2252V19.4797C25.8265 16.4332 23.5561 13.9171 20.6151 13.531C20.4355 13.4973 20.2502 13.4797 20.0609 13.4797H17.8265Z" fill="url(#paint16_radial_20020_2204)"/>
<g filter="url(#filter6_f_20020_2204)">
<rect x="8.46716" y="10.4859" width="1.36028" height="4.48432" rx="0.680138" fill="url(#paint17_linear_20020_2204)"/>
</g>
<g filter="url(#filter7_f_20020_2204)">
<rect x="13.3793" y="9.51276" width="1.69343" height="5.45743" rx="0.846714" fill="#6D524F"/>
</g>
<path d="M6.01019 20.8209L5.82269 15.7066V14.1516H20.2914C20.3019 13.3078 18.4478 10.036 16.0377 6.83125C14.6158 4.94063 15.4176 3.26568 16.5533 2.52657C18.0299 1.56562 19.772 2.27651 20.4986 3.42498C20.4986 3.42498 26.1352 9.35468 26.1352 16.7295C26.2623 21.3699 26.1666 22.1266 24.9164 24.5891C23.1014 28.1643 19.1997 29.9464 15.6685 29.9464C9.85598 29.9464 6.19769 25.8078 6.01019 20.8209Z" fill="url(#paint18_radial_20020_2204)"/>
<path d="M6.01019 20.8209L5.82269 15.7066V14.1516H20.2914C20.3019 13.3078 18.4478 10.036 16.0377 6.83125C14.6158 4.94063 15.4176 3.26568 16.5533 2.52657C18.0299 1.56562 19.772 2.27651 20.4986 3.42498C20.4986 3.42498 26.1352 9.35468 26.1352 16.7295C26.2623 21.3699 26.1666 22.1266 24.9164 24.5891C23.1014 28.1643 19.1997 29.9464 15.6685 29.9464C9.85598 29.9464 6.19769 25.8078 6.01019 20.8209Z" fill="url(#paint19_radial_20020_2204)"/>
<g filter="url(#filter8_f_20020_2204)">
<path d="M18.7352 16H19.3501C21.3791 16 23.5503 16.5871 24.0735 18.5475C24.1729 18.92 24.2482 19.3357 24.288 19.7969" stroke="url(#paint20_linear_20020_2204)" stroke-width="2" stroke-linecap="round"/>
</g>
<path d="M20.1254 13.4797C21.1525 13.592 23.3045 13.8572 24.9044 16.2397C25.7913 8.50112 20.4986 3.42499 20.4986 3.42499C19.7721 2.27652 18.0299 1.56562 16.5533 2.52657C15.4176 3.26569 14.6158 4.94063 16.0377 6.83126C18.0166 9.4625 19.6205 12.139 20.1254 13.4797Z" fill="url(#paint21_radial_20020_2204)"/>
<defs>
<filter id="filter0_f_20020_2204" x="17.0842" y="1.40823" width="9.74686" height="10.9153" filterUnits="userSpaceOnUse" color-interpolation-filters="sRGB">
<feFlood flood-opacity="0" result="BackgroundImageFix"/>
<feBlend mode="normal" in="SourceGraphic" in2="BackgroundImageFix" result="shape"/>
<feGaussianBlur stdDeviation="1" result="effect1_foregroundBlur_20020_2204"/>
</filter>
<filter id="filter1_i_20020_2204" x="5.82269" y="1.32703" width="20.8546" height="28.6194" filterUnits="userSpaceOnUse" color-interpolation-filters="sRGB">
<feFlood flood-opacity="0" result="BackgroundImageFix"/>
<feBlend mode="normal" in="SourceGraphic" in2="BackgroundImageFix" result="shape"/>
<feColorMatrix in="SourceAlpha" type="matrix" values="0 0 0 0 0 0 0 0 0 0 0 0 0 0 0 0 0 0 127 0" result="hardAlpha"/>
<feOffset dx="0.5" dy="-0.75"/>
<feGaussianBlur stdDeviation="0.75"/>
<feComposite in2="hardAlpha" operator="arithmetic" k2="-1" k3="1"/>
<feColorMatrix type="matrix" values="0 0 0 0 0.239216 0 0 0 0 0.12549 0 0 0 0 0.219608 0 0 0 1 0"/>
<feBlend mode="normal" in2="shape" result="effect1_innerShadow_20020_2204"/>
</filter>
<filter id="filter2_f_20020_2204" x="11.7059" y="13.1047" width="14.7354" height="10.475" filterUnits="userSpaceOnUse" color-interpolation-filters="sRGB">
<feFlood flood-opacity="0" result="BackgroundImageFix"/>
<feBlend mode="normal" in="SourceGraphic" in2="BackgroundImageFix" result="shape"/>
<feGaussianBlur stdDeviation="1" result="effect1_foregroundBlur_20020_2204"/>
</filter>
<filter id="filter3_f_20020_2204" x="5.37534" y="8.69843" width="7.15784" height="9.17133" filterUnits="userSpaceOnUse" color-interpolation-filters="sRGB">
<feFlood flood-opacity="0" result="BackgroundImageFix"/>
<feBlend mode="normal" in="SourceGraphic" in2="BackgroundImageFix" result="shape"/>
<feGaussianBlur stdDeviation="0.5" result="effect1_foregroundBlur_20020_2204"/>
</filter>
<filter id="filter4_f_20020_2204" x="7.82745" y="8.47122" width="9.1279" height="11.1297" filterUnits="userSpaceOnUse" color-interpolation-filters="sRGB">
<feFlood flood-opacity="0" result="BackgroundImageFix"/>
<feBlend mode="normal" in="SourceGraphic" in2="BackgroundImageFix" result="shape"/>
<feGaussianBlur stdDeviation="1" result="effect1_foregroundBlur_20020_2204"/>
</filter>
<filter id="filter5_f_20020_2204" x="15.7304" y="1.228" width="11.7107" height="22.7969" filterUnits="userSpaceOnUse" color-interpolation-filters="sRGB">
<feFlood flood-opacity="0" result="BackgroundImageFix"/>
<feBlend mode="normal" in="SourceGraphic" in2="BackgroundImageFix" result="shape"/>
<feGaussianBlur stdDeviation="1" result="effect1_foregroundBlur_20020_2204"/>
</filter>
<filter id="filter6_f_20020_2204" x="7.21716" y="9.2359" width="3.86029" height="6.98431" filterUnits="userSpaceOnUse" color-interpolation-filters="sRGB">
<feFlood flood-opacity="0" result="BackgroundImageFix"/>
<feBlend mode="normal" in="SourceGraphic" in2="BackgroundImageFix" result="shape"/>
<feGaussianBlur stdDeviation="0.625" result="effect1_foregroundBlur_20020_2204"/>
</filter>
<filter id="filter7_f_20020_2204" x="11.6293" y="7.76276" width="5.19342" height="8.95743" filterUnits="userSpaceOnUse" color-interpolation-filters="sRGB">
<feFlood flood-opacity="0" result="BackgroundImageFix"/>
<feBlend mode="normal" in="SourceGraphic" in2="BackgroundImageFix" result="shape"/>
<feGaussianBlur stdDeviation="0.875" result="effect1_foregroundBlur_20020_2204"/>
</filter>
<filter id="filter8_f_20020_2204" x="15.7352" y="13" width="11.5528" height="9.79694" filterUnits="userSpaceOnUse" color-interpolation-filters="sRGB">
<feFlood flood-opacity="0" result="BackgroundImageFix"/>
<feBlend mode="normal" in="SourceGraphic" in2="BackgroundImageFix" result="shape"/>
<feGaussianBlur stdDeviation="1" result="effect1_foregroundBlur_20020_2204"/>
</filter>
<radialGradient id="paint0_radial_20020_2204" cx="0" cy="0" r="1" gradientUnits="userSpaceOnUse" gradientTransform="translate(23.3111 10.7922) rotate(-145.784) scale(7.55811 20.3298)">
<stop offset="0.549602" stop-color="#40302D" stop-opacity="0"/>
<stop offset="1" stop-color="#40302D"/>
</radialGradient>
<radialGradient id="paint1_radial_20020_2204" cx="0" cy="0" r="1" gradientUnits="userSpaceOnUse" gradientTransform="translate(20.1259 11.5685) rotate(146.31) scale(1.74138 14.1268)">
<stop offset="0.330855" stop-color="#261716"/>
<stop offset="1" stop-color="#261716" stop-opacity="0"/>
</radialGradient>
<radialGradient id="paint2_radial_20020_2204" cx="0" cy="0" r="1" gradientUnits="userSpaceOnUse" gradientTransform="translate(19.8524 11.6992) rotate(148.855) scale(1.26883 10.2933)">
<stop offset="0.478621" stop-color="#372A29"/>
<stop offset="0.652069" stop-color="#372A29" stop-opacity="0"/>
</radialGradient>
<radialGradient id="paint3_radial_20020_2204" cx="0" cy="0" r="1" gradientUnits="userSpaceOnUse" gradientTransform="translate(19.1971 14.8007) rotate(-90) scale(3.26935 1.63468)">
<stop stop-color="#55413F"/>
<stop offset="1" stop-color="#55413F" stop-opacity="0"/>
</radialGradient>
<radialGradient id="paint4_radial_20020_2204" cx="0" cy="0" r="1" gradientUnits="userSpaceOnUse" gradientTransform="translate(25.8101 2.46632) rotate(128.409) scale(3.53833 4.6463)">
<stop offset="0.14637" stop-color="#624B48"/>
<stop offset="1" stop-color="#624B48" stop-opacity="0"/>
</radialGradient>
<radialGradient id="paint5_radial_20020_2204" cx="0" cy="0" r="1" gradientUnits="userSpaceOnUse" gradientTransform="translate(20.704 20.7617) rotate(180) scale(5.53125 2.78125)">
<stop stop-color="#564243"/>
<stop offset="1" stop-color="#564243" stop-opacity="0"/>
</radialGradient>
<linearGradient id="paint6_linear_20020_2204" x1="5.82269" y1="13.3547" x2="8.15485" y2="13.3547" gradientUnits="userSpaceOnUse">
<stop stop-color="#483B38"/>
<stop offset="1" stop-color="#483B38" stop-opacity="0"/>
</linearGradient>
<radialGradient id="paint7_radial_20020_2204" cx="0" cy="0" r="1" gradientUnits="userSpaceOnUse" gradientTransform="translate(8.61377 10.4889) rotate(90) scale(6.14698 4.32661)">
<stop offset="0.613333" stop-color="#3B202D" stop-opacity="0"/>
<stop offset="1" stop-color="#3B202D"/>
</radialGradient>
<radialGradient id="paint8_radial_20020_2204" cx="0" cy="0" r="1" gradientUnits="userSpaceOnUse" gradientTransform="translate(10.8736 12.6984) rotate(180) scale(1.375 3.75)">
<stop offset="0.423077" stop-color="#210F0F"/>
<stop offset="1" stop-color="#210F0F" stop-opacity="0"/>
</radialGradient>
<radialGradient id="paint9_radial_20020_2204" cx="0" cy="0" r="1" gradientUnits="userSpaceOnUse" gradientTransform="translate(13.1741 9.56181) rotate(90) scale(7.07411 4.40172)">
<stop offset="0.613333" stop-color="#3B202D" stop-opacity="0"/>
<stop offset="1" stop-color="#3B202D"/>
</radialGradient>
<linearGradient id="paint10_linear_20020_2204" x1="9.94376" y1="12.8598" x2="12.7072" y2="12.8598" gradientUnits="userSpaceOnUse">
<stop stop-color="#281815"/>
<stop offset="1" stop-color="#281815" stop-opacity="0"/>
</linearGradient>
<radialGradient id="paint11_radial_20020_2204" cx="0" cy="0" r="1" gradientUnits="userSpaceOnUse" gradientTransform="translate(15.5975 15.8771) rotate(-144.782) scale(1.42324 1.98119)">
<stop offset="0.174177" stop-color="#17070A"/>
<stop offset="1" stop-color="#17070A" stop-opacity="0"/>
</radialGradient>
<radialGradient id="paint12_radial_20020_2204" cx="0" cy="0" r="1" gradientUnits="userSpaceOnUse" gradientTransform="translate(23.4725 14.9356) rotate(111.359) scale(6.73931 15.6499)">
<stop stop-color="#543B37"/>
<stop offset="1" stop-color="#3A202F"/>
</radialGradient>
<linearGradient id="paint13_linear_20020_2204" x1="23.3776" y1="23.8111" x2="23.3776" y2="20.1519" gradientUnits="userSpaceOnUse">
<stop stop-color="#472C33"/>
<stop offset="0.542056" stop-color="#472C33"/>
<stop offset="1" stop-color="#472C33" stop-opacity="0"/>
</linearGradient>
<radialGradient id="paint14_radial_20020_2204" cx="0" cy="0" r="1" gradientUnits="userSpaceOnUse" gradientTransform="translate(14.657 14.6118) rotate(35.0958) scale(3.093 6.55806)">
<stop stop-color="#2F1C19"/>
<stop offset="1" stop-color="#2F1C19" stop-opacity="0"/>
</radialGradient>
<radialGradient id="paint15_radial_20020_2204" cx="0" cy="0" r="1" gradientUnits="userSpaceOnUse" gradientTransform="translate(16.9026 20.6998) rotate(-13.8463) scale(9.80013 9.02245)">
<stop offset="0.897741" stop-color="#6C5A58" stop-opacity="0"/>
<stop offset="1" stop-color="#6C5A58"/>
</radialGradient>
<radialGradient id="paint16_radial_20020_2204" cx="0" cy="0" r="1" gradientUnits="userSpaceOnUse" gradientTransform="translate(15.3861 17.91) rotate(-32.6609) scale(1.0725 1.70121)">
<stop stop-color="#3F2C2B"/>
<stop offset="1" stop-color="#3F2C2B" stop-opacity="0"/>
</radialGradient>
<linearGradient id="paint17_linear_20020_2204" x1="9.49701" y1="14.5563" x2="9.49701" y2="10.4859" gradientUnits="userSpaceOnUse">
<stop stop-color="#6D524F"/>
<stop offset="1" stop-color="#6D524F" stop-opacity="0"/>
</linearGradient>
<radialGradient id="paint18_radial_20020_2204" cx="0" cy="0" r="1" gradientUnits="userSpaceOnUse" gradientTransform="translate(5.82269 17.8027) rotate(-8.84015) scale(20.9074 21.9078)">
<stop offset="0.933679" stop-color="#584340" stop-opacity="0"/>
<stop offset="1" stop-color="#584340"/>
</radialGradient>
<radialGradient id="paint19_radial_20020_2204" cx="0" cy="0" r="1" gradientUnits="userSpaceOnUse" gradientTransform="translate(17.9539 19.8867) rotate(159.044) scale(12.5822 23.0248)">
<stop offset="0.838334" stop-color="#503E3A" stop-opacity="0"/>
<stop offset="1" stop-color="#503E3A"/>
</radialGradient>
<linearGradient id="paint20_linear_20020_2204" x1="17.6657" y1="16" x2="24.8561" y2="19.7369" gradientUnits="userSpaceOnUse">
<stop stop-color="#66514F"/>
<stop offset="1" stop-color="#66514F" stop-opacity="0"/>
</linearGradient>
<radialGradient id="paint21_radial_20020_2204" cx="0" cy="0" r="1" gradientUnits="userSpaceOnUse" gradientTransform="translate(17.1485 10.5879) rotate(-32.6374) scale(3.67583 9.95172)">
<stop stop-color="#200E0D"/>
<stop offset="1" stop-color="#200E0D" stop-opacity="0"/>
</radialGradient>
</defs>
</svg>
