<svg xmlns="http://www.w3.org/2000/svg" width="32" height="32" fill="none"><path fill="#212121" d="m13.277 24.953-2.433-1.414-2.664 4.64a1.405 1.405 0 0 0 2.43 1.41l2.667-4.636Z"/><path fill="#CA0B4A" d="M18.024 17.585c.49.115.988.168 1.482.163l.314.411-3.06 2.34c-1.07.82-1.97 1.85-2.65 3.02l-.85 1.47-2.44-1.41.85-1.47c.68-1.17 1.11-2.47 1.29-3.81l.5-3.81.533.07c.24.425.53.825.87 1.189l-.443 3.411c-.03.22.08.44.27.55.19.11.43.09.61-.04l2.724-2.084Z"/><path fill="#F8312F" d="M14.641 5.763c1.947-3.356 6.234-4.51 9.594-2.573 3.36 1.938 4.5 6.226 2.576 9.591l-.001.003-1.27 2.2-.001.002c-1.947 3.356-6.234 4.51-9.594 2.573h-.001c-3.356-1.947-4.511-6.235-2.574-9.594l1.27-2.2.001-.002Zm1.298.753-1.27 2.198a5.53 5.53 0 0 0 2.026 7.546 5.53 5.53 0 0 0 7.546-2.027l1.268-2.196v-.001c1.516-2.655.615-6.025-2.024-7.547a5.53 5.53 0 0 0-7.546 2.027Z"/><path fill="#D3D3D3" d="M22.408 4.012a5.477 5.477 0 0 0-.887-.205l.769 1.442-1.77.06-.791-1.467c-.232.043-.46.1-.685.172l.706 1.325-1.77.07-.367-.697c-.191.13-.375.273-.55.429l.157.288-.477.018c-.21.217-.403.455-.578.71l1.415-.048.83 1.56-1.77.06-.671-1.265-.03.051-.377.654.318.59-.675.028-.404.7 1.429-.048.83 1.57-1.77.06-.671-1.265a5.55 5.55 0 0 0-.364.802l.265.493-.421.018c-.058.229-.1.46-.129.69l.91-.028.83 1.56-1.7.058c.04.23.093.457.16.68l1.9-.068.83 1.57-1.965.069c.165.235.35.46.553.67l1.772-.059.834 1.57c.284.073.571.122.859.148l-.923-1.748 1.77-.06.892 1.687c.23-.052.455-.12.675-.201l-.797-1.506 1.77-.06.426.806c.189-.141.37-.295.54-.462l-.196-.374.562-.017c.186-.22.357-.457.51-.71l-1.422.047-.83-1.56 1.77-.06.669 1.253.41-.71-.309-.573.655-.026.384-.666v-.001l.02-.034-1.419.047-.83-1.57 1.77-.06.66 1.234c.131-.278.238-.563.32-.851l-.23-.413.334-.008a5.54 5.54 0 0 0 .096-.69l-.79.028-.83-1.56 1.511-.048a5.56 5.56 0 0 0-.191-.68l-1.68.058-.84-1.58 1.652-.057a5.464 5.464 0 0 0-.624-.67l-1.388.047-.642-1.217ZM20.11 6.029l.83 1.56-1.77.06-.83-1.56 1.77-.06Zm1.19 2.24.83 1.56-1.77.06-.83-1.56 1.77-.06Zm-2.28 3.95-.83-1.56 1.77-.06.83 1.56-1.77.06Zm-.26-3.86.83 1.57-1.77.06-.83-1.57 1.77-.06Zm-1.35 2.33.83 1.56-1.76.06-.84-1.56 1.77-.06Zm-.57 2.3 1.77-.06.83 1.56-1.77.07-.83-1.57Zm3.37 1.48-.83-1.56 1.77-.06.83 1.56-1.77.06Zm1.34-2.34-.83-1.57 1.77-.06.83 1.57-1.77.06Zm1.35-2.32-.83-1.56 1.77-.06.83 1.55-1.77.07Zm-1.19-2.25L20.88 6l1.77-.06.83 1.56-1.77.06Z"/><path fill="#C3EF3C" d="M11 16a3 3 0 1 1-6 0 3 3 0 0 1 6 0Z"/><path fill="#D3D3D3" d="M10.99 15.75a2.8 2.8 0 0 1-1.59-.427 2.371 2.371 0 0 1-.8-.935 3.435 3.435 0 0 1-.344-1.277V13.011a3.011 3.011 0 0 0-.5-.001v.135a3.986 3.986 0 0 0 .395 1.463c.221.455.558.843.976 1.127a3.293 3.293 0 0 0 1.863.515 3.047 3.047 0 0 0 0-.5Zm-2.746 3.24v-.03l.005-.002c0-.025 0-.06-.005-.1a3.987 3.987 0 0 0-.395-1.463 2.888 2.888 0 0 0-.976-1.127 3.293 3.293 0 0 0-1.863-.518 3.043 3.043 0 0 0 0 .5 2.8 2.8 0 0 1 1.59.427c.344.236.62.558.8.935a3.435 3.435 0 0 1 .344 1.277V18.989a3.011 3.011 0 0 0 .5.001Z"/></svg>