<svg width="32" height="32" viewBox="0 0 32 32" fill="none" xmlns="http://www.w3.org/2000/svg">
<path d="M8.32886 29.6574C8.3316 29.6034 8.33301 29.5491 8.33301 29.4944C8.33301 27.7615 6.92816 26.3567 5.19525 26.3567C3.46234 26.3567 2.05756 27.7615 2.05756 29.4944C2.05756 29.5491 2.05896 29.6034 2.06171 29.6574H8.32886Z" fill="url(#paint0_radial_3_1220)"/>
<path d="M8.32886 29.6574C8.3316 29.6034 8.33301 29.5491 8.33301 29.4944C8.33301 27.7615 6.92816 26.3567 5.19525 26.3567C3.46234 26.3567 2.05756 27.7615 2.05756 29.4944C2.05756 29.5491 2.05896 29.6034 2.06171 29.6574H8.32886Z" fill="url(#paint1_radial_3_1220)"/>
<path d="M29.9383 29.6574C29.9411 29.6034 29.9425 29.5491 29.9425 29.4944C29.9425 27.7615 28.5377 26.3567 26.8048 26.3567C25.0719 26.3567 23.6671 27.7615 23.6671 29.4944C23.6671 29.5491 23.6685 29.6034 23.6712 29.6574H29.9383Z" fill="#F2BD98"/>
<path d="M29.9383 29.6574C29.9411 29.6034 29.9425 29.5491 29.9425 29.4944C29.9425 27.7615 28.5377 26.3567 26.8048 26.3567C25.0719 26.3567 23.6671 27.7615 23.6671 29.4944C23.6671 29.5491 23.6685 29.6034 23.6712 29.6574H29.9383Z" fill="url(#paint2_radial_3_1220)"/>
<path d="M29.9383 29.6574C29.9411 29.6034 29.9425 29.5491 29.9425 29.4944C29.9425 27.7615 28.5377 26.3567 26.8048 26.3567C25.0719 26.3567 23.6671 27.7615 23.6671 29.4944C23.6671 29.5491 23.6685 29.6034 23.6712 29.6574H29.9383Z" fill="url(#paint3_linear_3_1220)"/>
<path d="M16.0001 15.1572C9.93006 15.1572 5.00006 20.0772 5.00006 26.1572V29.6572H27.0001V26.1572C27.0001 20.0772 22.0701 15.1572 16.0001 15.1572Z" fill="url(#paint4_linear_3_1220)"/>
<path d="M8.98012 17.6572C6.54012 19.6872 5.00012 22.7472 5.01012 26.1572L5.03012 29.6572L9.03012 29.6372L8.98012 17.6572Z" fill="url(#paint5_linear_3_1220)"/>
<path d="M23.0001 17.6672V29.6472H27.0001V26.1472C27.0001 22.7372 25.4401 19.6872 23.0001 17.6672Z" fill="url(#paint6_linear_3_1220)"/>
<g filter="url(#filter0_i_3_1220)">
<circle cx="11.2391" cy="10.943" r="1.66932" fill="url(#paint7_radial_3_1220)"/>
</g>
<g filter="url(#filter1_f_3_1220)">
<circle cx="11.2392" cy="10.9431" r="0.994887" fill="url(#paint8_linear_3_1220)"/>
</g>
<g filter="url(#filter2_i_3_1220)">
<circle cx="20.7518" cy="10.943" r="1.66932" fill="url(#paint9_linear_3_1220)"/>
<circle cx="20.7518" cy="10.943" r="1.66932" fill="url(#paint10_radial_3_1220)"/>
</g>
<g filter="url(#filter3_f_3_1220)">
<circle cx="20.7517" cy="10.9431" r="0.994887" fill="#D79E81"/>
<circle cx="20.7517" cy="10.9431" r="0.994887" fill="url(#paint11_radial_3_1220)"/>
<circle cx="20.7517" cy="10.9431" r="0.994887" fill="url(#paint12_radial_3_1220)"/>
</g>
<g filter="url(#filter4_i_3_1220)">
<path d="M10.8873 10.3304C10.9035 10.3315 10.9198 10.3321 10.9363 10.3321C10.9363 10.3321 10.8827 9.47879 10.829 8.89216C10.829 8.62552 10.9363 8.30554 11.1509 8.14555L11.3118 7.98556C11.5799 7.77225 11.6872 7.45227 11.6872 7.13229V6.27902C11.6872 6.01237 11.8481 5.79906 12.1163 5.74573C12.7599 5.58574 14.1008 5.31909 16.0316 5.31909C17.9625 5.31909 19.3034 5.58574 19.947 5.74573C20.1615 5.79906 20.3761 6.01237 20.3761 6.27902V7.13229C20.3761 7.45227 20.537 7.77225 20.7515 7.98556C21.2535 8.33736 21.2223 8.53085 21.1806 8.94549C21.1269 9.47879 21.0733 10.3854 21.0733 10.3854C21.0794 10.3854 21.0854 10.3853 21.0914 10.3852L20.8256 14.3433C20.6651 16.1127 19.274 17.346 17.6155 17.346H14.4054C12.6933 17.346 11.3558 16.1127 11.1953 14.3433L10.8873 10.3304Z" fill="url(#paint13_linear_3_1220)"/>
<path d="M10.8873 10.3304C10.9035 10.3315 10.9198 10.3321 10.9363 10.3321C10.9363 10.3321 10.8827 9.47879 10.829 8.89216C10.829 8.62552 10.9363 8.30554 11.1509 8.14555L11.3118 7.98556C11.5799 7.77225 11.6872 7.45227 11.6872 7.13229V6.27902C11.6872 6.01237 11.8481 5.79906 12.1163 5.74573C12.7599 5.58574 14.1008 5.31909 16.0316 5.31909C17.9625 5.31909 19.3034 5.58574 19.947 5.74573C20.1615 5.79906 20.3761 6.01237 20.3761 6.27902V7.13229C20.3761 7.45227 20.537 7.77225 20.7515 7.98556C21.2535 8.33736 21.2223 8.53085 21.1806 8.94549C21.1269 9.47879 21.0733 10.3854 21.0733 10.3854C21.0794 10.3854 21.0854 10.3853 21.0914 10.3852L20.8256 14.3433C20.6651 16.1127 19.274 17.346 17.6155 17.346H14.4054C12.6933 17.346 11.3558 16.1127 11.1953 14.3433L10.8873 10.3304Z" fill="url(#paint14_radial_3_1220)"/>
<path d="M10.8873 10.3304C10.9035 10.3315 10.9198 10.3321 10.9363 10.3321C10.9363 10.3321 10.8827 9.47879 10.829 8.89216C10.829 8.62552 10.9363 8.30554 11.1509 8.14555L11.3118 7.98556C11.5799 7.77225 11.6872 7.45227 11.6872 7.13229V6.27902C11.6872 6.01237 11.8481 5.79906 12.1163 5.74573C12.7599 5.58574 14.1008 5.31909 16.0316 5.31909C17.9625 5.31909 19.3034 5.58574 19.947 5.74573C20.1615 5.79906 20.3761 6.01237 20.3761 6.27902V7.13229C20.3761 7.45227 20.537 7.77225 20.7515 7.98556C21.2535 8.33736 21.2223 8.53085 21.1806 8.94549C21.1269 9.47879 21.0733 10.3854 21.0733 10.3854C21.0794 10.3854 21.0854 10.3853 21.0914 10.3852L20.8256 14.3433C20.6651 16.1127 19.274 17.346 17.6155 17.346H14.4054C12.6933 17.346 11.3558 16.1127 11.1953 14.3433L10.8873 10.3304Z" fill="url(#paint15_linear_3_1220)"/>
<path d="M10.8873 10.3304C10.9035 10.3315 10.9198 10.3321 10.9363 10.3321C10.9363 10.3321 10.8827 9.47879 10.829 8.89216C10.829 8.62552 10.9363 8.30554 11.1509 8.14555L11.3118 7.98556C11.5799 7.77225 11.6872 7.45227 11.6872 7.13229V6.27902C11.6872 6.01237 11.8481 5.79906 12.1163 5.74573C12.7599 5.58574 14.1008 5.31909 16.0316 5.31909C17.9625 5.31909 19.3034 5.58574 19.947 5.74573C20.1615 5.79906 20.3761 6.01237 20.3761 6.27902V7.13229C20.3761 7.45227 20.537 7.77225 20.7515 7.98556C21.2535 8.33736 21.2223 8.53085 21.1806 8.94549C21.1269 9.47879 21.0733 10.3854 21.0733 10.3854C21.0794 10.3854 21.0854 10.3853 21.0914 10.3852L20.8256 14.3433C20.6651 16.1127 19.274 17.346 17.6155 17.346H14.4054C12.6933 17.346 11.3558 16.1127 11.1953 14.3433L10.8873 10.3304Z" fill="url(#paint16_radial_3_1220)"/>
<path d="M10.8873 10.3304C10.9035 10.3315 10.9198 10.3321 10.9363 10.3321C10.9363 10.3321 10.8827 9.47879 10.829 8.89216C10.829 8.62552 10.9363 8.30554 11.1509 8.14555L11.3118 7.98556C11.5799 7.77225 11.6872 7.45227 11.6872 7.13229V6.27902C11.6872 6.01237 11.8481 5.79906 12.1163 5.74573C12.7599 5.58574 14.1008 5.31909 16.0316 5.31909C17.9625 5.31909 19.3034 5.58574 19.947 5.74573C20.1615 5.79906 20.3761 6.01237 20.3761 6.27902V7.13229C20.3761 7.45227 20.537 7.77225 20.7515 7.98556C21.2535 8.33736 21.2223 8.53085 21.1806 8.94549C21.1269 9.47879 21.0733 10.3854 21.0733 10.3854C21.0794 10.3854 21.0854 10.3853 21.0914 10.3852L20.8256 14.3433C20.6651 16.1127 19.274 17.346 17.6155 17.346H14.4054C12.6933 17.346 11.3558 16.1127 11.1953 14.3433L10.8873 10.3304Z" fill="url(#paint17_radial_3_1220)"/>
</g>
<g filter="url(#filter5_i_3_1220)">
<path d="M20.8052 4.46584L21.2343 4.67916C21.9852 5.05246 22.4142 5.90573 22.2533 6.81233L21.6634 9.85211C21.6107 10.1661 21.4032 10.3773 21.0915 10.3852C21.0855 10.3853 21.0794 10.3854 21.0734 10.3854C21.0734 10.3854 21.127 9.47878 21.1806 8.94548C21.2242 8.51242 21.1486 8.38032 20.7516 7.98555C20.537 7.77223 20.3761 7.45226 20.3761 7.13228V6.27901C20.3761 6.01236 20.1616 5.79905 19.947 5.74572C19.3034 5.58573 17.9626 5.31908 16.0317 5.31908C14.1008 5.31908 12.76 5.58573 12.1163 5.74572C11.8482 5.79905 11.6873 6.01236 11.6873 6.27901V7.13228C11.6873 7.45226 11.58 7.77223 11.3118 7.98555L11.1509 8.14554C10.9364 8.30553 10.8291 8.6255 10.8291 8.89215C10.8827 9.47878 10.9364 10.332 10.9364 10.332C10.9199 10.332 10.9035 10.3315 10.8873 10.3304C10.5876 10.3099 10.3436 10.1024 10.2928 9.79878L9.70277 6.759C9.5955 5.90573 10.0246 5.05246 10.7755 4.67916L11.2046 4.46584C11.4727 4.30585 11.7409 4.09253 12.0091 3.87922L12.9745 2.86596C13.5645 2.33266 14.4226 2.17267 15.1735 2.54598C15.7099 2.70597 16.2999 2.70597 16.8362 2.54598C17.6407 2.27933 18.5525 2.49265 19.1962 3.07927L20.0007 3.87922C20.2152 4.14586 20.4834 4.30585 20.8052 4.46584Z" fill="#EBCC94"/>
<path d="M20.8052 4.46584L21.2343 4.67916C21.9852 5.05246 22.4142 5.90573 22.2533 6.81233L21.6634 9.85211C21.6107 10.1661 21.4032 10.3773 21.0915 10.3852C21.0855 10.3853 21.0794 10.3854 21.0734 10.3854C21.0734 10.3854 21.127 9.47878 21.1806 8.94548C21.2242 8.51242 21.1486 8.38032 20.7516 7.98555C20.537 7.77223 20.3761 7.45226 20.3761 7.13228V6.27901C20.3761 6.01236 20.1616 5.79905 19.947 5.74572C19.3034 5.58573 17.9626 5.31908 16.0317 5.31908C14.1008 5.31908 12.76 5.58573 12.1163 5.74572C11.8482 5.79905 11.6873 6.01236 11.6873 6.27901V7.13228C11.6873 7.45226 11.58 7.77223 11.3118 7.98555L11.1509 8.14554C10.9364 8.30553 10.8291 8.6255 10.8291 8.89215C10.8827 9.47878 10.9364 10.332 10.9364 10.332C10.9199 10.332 10.9035 10.3315 10.8873 10.3304C10.5876 10.3099 10.3436 10.1024 10.2928 9.79878L9.70277 6.759C9.5955 5.90573 10.0246 5.05246 10.7755 4.67916L11.2046 4.46584C11.4727 4.30585 11.7409 4.09253 12.0091 3.87922L12.9745 2.86596C13.5645 2.33266 14.4226 2.17267 15.1735 2.54598C15.7099 2.70597 16.2999 2.70597 16.8362 2.54598C17.6407 2.27933 18.5525 2.49265 19.1962 3.07927L20.0007 3.87922C20.2152 4.14586 20.4834 4.30585 20.8052 4.46584Z" fill="url(#paint18_radial_3_1220)"/>
<path d="M20.8052 4.46584L21.2343 4.67916C21.9852 5.05246 22.4142 5.90573 22.2533 6.81233L21.6634 9.85211C21.6107 10.1661 21.4032 10.3773 21.0915 10.3852C21.0855 10.3853 21.0794 10.3854 21.0734 10.3854C21.0734 10.3854 21.127 9.47878 21.1806 8.94548C21.2242 8.51242 21.1486 8.38032 20.7516 7.98555C20.537 7.77223 20.3761 7.45226 20.3761 7.13228V6.27901C20.3761 6.01236 20.1616 5.79905 19.947 5.74572C19.3034 5.58573 17.9626 5.31908 16.0317 5.31908C14.1008 5.31908 12.76 5.58573 12.1163 5.74572C11.8482 5.79905 11.6873 6.01236 11.6873 6.27901V7.13228C11.6873 7.45226 11.58 7.77223 11.3118 7.98555L11.1509 8.14554C10.9364 8.30553 10.8291 8.6255 10.8291 8.89215C10.8827 9.47878 10.9364 10.332 10.9364 10.332C10.9199 10.332 10.9035 10.3315 10.8873 10.3304C10.5876 10.3099 10.3436 10.1024 10.2928 9.79878L9.70277 6.759C9.5955 5.90573 10.0246 5.05246 10.7755 4.67916L11.2046 4.46584C11.4727 4.30585 11.7409 4.09253 12.0091 3.87922L12.9745 2.86596C13.5645 2.33266 14.4226 2.17267 15.1735 2.54598C15.7099 2.70597 16.2999 2.70597 16.8362 2.54598C17.6407 2.27933 18.5525 2.49265 19.1962 3.07927L20.0007 3.87922C20.2152 4.14586 20.4834 4.30585 20.8052 4.46584Z" fill="url(#paint19_linear_3_1220)"/>
<path d="M20.8052 4.46584L21.2343 4.67916C21.9852 5.05246 22.4142 5.90573 22.2533 6.81233L21.6634 9.85211C21.6107 10.1661 21.4032 10.3773 21.0915 10.3852C21.0855 10.3853 21.0794 10.3854 21.0734 10.3854C21.0734 10.3854 21.127 9.47878 21.1806 8.94548C21.2242 8.51242 21.1486 8.38032 20.7516 7.98555C20.537 7.77223 20.3761 7.45226 20.3761 7.13228V6.27901C20.3761 6.01236 20.1616 5.79905 19.947 5.74572C19.3034 5.58573 17.9626 5.31908 16.0317 5.31908C14.1008 5.31908 12.76 5.58573 12.1163 5.74572C11.8482 5.79905 11.6873 6.01236 11.6873 6.27901V7.13228C11.6873 7.45226 11.58 7.77223 11.3118 7.98555L11.1509 8.14554C10.9364 8.30553 10.8291 8.6255 10.8291 8.89215C10.8827 9.47878 10.9364 10.332 10.9364 10.332C10.9199 10.332 10.9035 10.3315 10.8873 10.3304C10.5876 10.3099 10.3436 10.1024 10.2928 9.79878L9.70277 6.759C9.5955 5.90573 10.0246 5.05246 10.7755 4.67916L11.2046 4.46584C11.4727 4.30585 11.7409 4.09253 12.0091 3.87922L12.9745 2.86596C13.5645 2.33266 14.4226 2.17267 15.1735 2.54598C15.7099 2.70597 16.2999 2.70597 16.8362 2.54598C17.6407 2.27933 18.5525 2.49265 19.1962 3.07927L20.0007 3.87922C20.2152 4.14586 20.4834 4.30585 20.8052 4.46584Z" fill="url(#paint20_radial_3_1220)"/>
<path d="M20.8052 4.46584L21.2343 4.67916C21.9852 5.05246 22.4142 5.90573 22.2533 6.81233L21.6634 9.85211C21.6107 10.1661 21.4032 10.3773 21.0915 10.3852C21.0855 10.3853 21.0794 10.3854 21.0734 10.3854C21.0734 10.3854 21.127 9.47878 21.1806 8.94548C21.2242 8.51242 21.1486 8.38032 20.7516 7.98555C20.537 7.77223 20.3761 7.45226 20.3761 7.13228V6.27901C20.3761 6.01236 20.1616 5.79905 19.947 5.74572C19.3034 5.58573 17.9626 5.31908 16.0317 5.31908C14.1008 5.31908 12.76 5.58573 12.1163 5.74572C11.8482 5.79905 11.6873 6.01236 11.6873 6.27901V7.13228C11.6873 7.45226 11.58 7.77223 11.3118 7.98555L11.1509 8.14554C10.9364 8.30553 10.8291 8.6255 10.8291 8.89215C10.8827 9.47878 10.9364 10.332 10.9364 10.332C10.9199 10.332 10.9035 10.3315 10.8873 10.3304C10.5876 10.3099 10.3436 10.1024 10.2928 9.79878L9.70277 6.759C9.5955 5.90573 10.0246 5.05246 10.7755 4.67916L11.2046 4.46584C11.4727 4.30585 11.7409 4.09253 12.0091 3.87922L12.9745 2.86596C13.5645 2.33266 14.4226 2.17267 15.1735 2.54598C15.7099 2.70597 16.2999 2.70597 16.8362 2.54598C17.6407 2.27933 18.5525 2.49265 19.1962 3.07927L20.0007 3.87922C20.2152 4.14586 20.4834 4.30585 20.8052 4.46584Z" fill="url(#paint21_radial_3_1220)"/>
<path d="M20.8052 4.46584L21.2343 4.67916C21.9852 5.05246 22.4142 5.90573 22.2533 6.81233L21.6634 9.85211C21.6107 10.1661 21.4032 10.3773 21.0915 10.3852C21.0855 10.3853 21.0794 10.3854 21.0734 10.3854C21.0734 10.3854 21.127 9.47878 21.1806 8.94548C21.2242 8.51242 21.1486 8.38032 20.7516 7.98555C20.537 7.77223 20.3761 7.45226 20.3761 7.13228V6.27901C20.3761 6.01236 20.1616 5.79905 19.947 5.74572C19.3034 5.58573 17.9626 5.31908 16.0317 5.31908C14.1008 5.31908 12.76 5.58573 12.1163 5.74572C11.8482 5.79905 11.6873 6.01236 11.6873 6.27901V7.13228C11.6873 7.45226 11.58 7.77223 11.3118 7.98555L11.1509 8.14554C10.9364 8.30553 10.8291 8.6255 10.8291 8.89215C10.8827 9.47878 10.9364 10.332 10.9364 10.332C10.9199 10.332 10.9035 10.3315 10.8873 10.3304C10.5876 10.3099 10.3436 10.1024 10.2928 9.79878L9.70277 6.759C9.5955 5.90573 10.0246 5.05246 10.7755 4.67916L11.2046 4.46584C11.4727 4.30585 11.7409 4.09253 12.0091 3.87922L12.9745 2.86596C13.5645 2.33266 14.4226 2.17267 15.1735 2.54598C15.7099 2.70597 16.2999 2.70597 16.8362 2.54598C17.6407 2.27933 18.5525 2.49265 19.1962 3.07927L20.0007 3.87922C20.2152 4.14586 20.4834 4.30585 20.8052 4.46584Z" fill="url(#paint22_radial_3_1220)"/>
</g>
<path d="M20.8052 4.46584L21.2343 4.67916C21.9852 5.05246 22.4142 5.90573 22.2533 6.81233L21.6634 9.85211C21.6107 10.1661 21.4032 10.3773 21.0915 10.3852C21.0855 10.3853 21.0794 10.3854 21.0734 10.3854C21.0734 10.3854 21.127 9.47878 21.1806 8.94548C21.2242 8.51242 21.1486 8.38032 20.7516 7.98555C20.537 7.77223 20.3761 7.45226 20.3761 7.13228V6.27901C20.3761 6.01236 20.1616 5.79905 19.947 5.74572C19.3034 5.58573 17.9626 5.31908 16.0317 5.31908C14.1008 5.31908 12.76 5.58573 12.1163 5.74572C11.8482 5.79905 11.6873 6.01236 11.6873 6.27901V7.13228C11.6873 7.45226 11.58 7.77223 11.3118 7.98555L11.1509 8.14554C10.9364 8.30553 10.8291 8.6255 10.8291 8.89215C10.8827 9.47878 10.9364 10.332 10.9364 10.332C10.9199 10.332 10.9035 10.3315 10.8873 10.3304C10.5876 10.3099 10.3436 10.1024 10.2928 9.79878L9.70277 6.759C9.5955 5.90573 10.0246 5.05246 10.7755 4.67916L11.2046 4.46584C11.4727 4.30585 11.7409 4.09253 12.0091 3.87922L12.9745 2.86596C13.5645 2.33266 14.4226 2.17267 15.1735 2.54598C15.7099 2.70597 16.2999 2.70597 16.8362 2.54598C17.6407 2.27933 18.5525 2.49265 19.1962 3.07927L20.0007 3.87922C20.2152 4.14586 20.4834 4.30585 20.8052 4.46584Z" fill="url(#paint23_radial_3_1220)"/>
<path d="M20.8052 4.46584L21.2343 4.67916C21.9852 5.05246 22.4142 5.90573 22.2533 6.81233L21.6634 9.85211C21.6107 10.1661 21.4032 10.3773 21.0915 10.3852C21.0855 10.3853 21.0794 10.3854 21.0734 10.3854C21.0734 10.3854 21.127 9.47878 21.1806 8.94548C21.2242 8.51242 21.1486 8.38032 20.7516 7.98555C20.537 7.77223 20.3761 7.45226 20.3761 7.13228V6.27901C20.3761 6.01236 20.1616 5.79905 19.947 5.74572C19.3034 5.58573 17.9626 5.31908 16.0317 5.31908C14.1008 5.31908 12.76 5.58573 12.1163 5.74572C11.8482 5.79905 11.6873 6.01236 11.6873 6.27901V7.13228C11.6873 7.45226 11.58 7.77223 11.3118 7.98555L11.1509 8.14554C10.9364 8.30553 10.8291 8.6255 10.8291 8.89215C10.8827 9.47878 10.9364 10.332 10.9364 10.332C10.9199 10.332 10.9035 10.3315 10.8873 10.3304C10.5876 10.3099 10.3436 10.1024 10.2928 9.79878L9.70277 6.759C9.5955 5.90573 10.0246 5.05246 10.7755 4.67916L11.2046 4.46584C11.4727 4.30585 11.7409 4.09253 12.0091 3.87922L12.9745 2.86596C13.5645 2.33266 14.4226 2.17267 15.1735 2.54598C15.7099 2.70597 16.2999 2.70597 16.8362 2.54598C17.6407 2.27933 18.5525 2.49265 19.1962 3.07927L20.0007 3.87922C20.2152 4.14586 20.4834 4.30585 20.8052 4.46584Z" fill="url(#paint24_radial_3_1220)"/>
<g filter="url(#filter6_f_3_1220)">
<path d="M15.7114 10.8209L14.8911 12.5204C14.7895 12.87 15.0335 13.2195 15.3792 13.2195H16.1163C16.462 13.2195 16.7061 12.8646 16.6044 12.5204L16.1062 10.8209C15.9994 10.4445 15.8233 10.4445 15.7114 10.8209Z" fill="#C68378"/>
</g>
<g filter="url(#filter7_f_3_1220)">
<path d="M15.6044 10.6578L15.0731 12.3573C14.9647 12.7069 15.2249 13.0564 15.5936 13.0564H16.3797C16.7483 13.0564 17.0086 12.7015 16.9001 12.3573L16.3688 10.6578C16.255 10.2814 15.7237 10.2814 15.6044 10.6578Z" fill="#E4AC8F"/>
<path d="M15.6044 10.6578L15.0731 12.3573C14.9647 12.7069 15.2249 13.0564 15.5936 13.0564H16.3797C16.7483 13.0564 17.0086 12.7015 16.9001 12.3573L16.3688 10.6578C16.255 10.2814 15.7237 10.2814 15.6044 10.6578Z" fill="url(#paint25_linear_3_1220)"/>
<path d="M15.6044 10.6578L15.0731 12.3573C14.9647 12.7069 15.2249 13.0564 15.5936 13.0564H16.3797C16.7483 13.0564 17.0086 12.7015 16.9001 12.3573L16.3688 10.6578C16.255 10.2814 15.7237 10.2814 15.6044 10.6578Z" fill="url(#paint26_linear_3_1220)"/>
<path d="M15.6044 10.6578L15.0731 12.3573C14.9647 12.7069 15.2249 13.0564 15.5936 13.0564H16.3797C16.7483 13.0564 17.0086 12.7015 16.9001 12.3573L16.3688 10.6578C16.255 10.2814 15.7237 10.2814 15.6044 10.6578Z" fill="url(#paint27_linear_3_1220)"/>
</g>
<path d="M15.6044 10.6578L15.0731 12.3573C14.9647 12.7069 15.2249 13.0564 15.5936 13.0564H16.3797C16.7483 13.0564 17.0086 12.7015 16.9001 12.3573L16.3688 10.6578C16.255 10.2814 15.7237 10.2814 15.6044 10.6578Z" fill="url(#paint28_linear_3_1220)"/>
<path d="M14.6248 13.7L14.6248 13.7L14.6244 13.6997C14.5336 13.6536 14.4391 13.6823 14.3828 13.7416C14.3263 13.8011 14.304 13.8965 14.3624 13.9812C14.7063 14.502 15.305 14.8489 15.9867 14.8489C16.6685 14.8489 17.2674 14.5019 17.6112 13.9809C17.6688 13.8944 17.6478 13.7991 17.5903 13.7395C17.5335 13.6805 17.4391 13.6539 17.349 13.6997L17.349 13.6997L17.3486 13.7C16.9551 13.9051 16.4913 14.0226 15.9867 14.0226C15.4871 14.0226 15.0182 13.905 14.6248 13.7Z" fill="#88024E" stroke="url(#paint29_linear_3_1220)" stroke-width="0.1"/>
<g filter="url(#filter8_i_3_1220)">
<path d="M19.7058 8.22341L19.7046 8.22239L19.7027 8.22086L19.6982 8.2172L19.6862 8.20767C19.6769 8.20036 19.6649 8.19119 19.6503 8.18048C19.6211 8.15909 19.5813 8.13143 19.5314 8.10017C19.4318 8.03781 19.2905 7.96011 19.1117 7.88943C18.7527 7.74752 18.2401 7.63318 17.6191 7.73124C17.328 7.7772 17.1293 8.05046 17.1752 8.34158C17.2212 8.6327 17.4945 8.83143 17.7856 8.78547C18.1833 8.72266 18.5019 8.796 18.7193 8.88197C18.8287 8.92522 18.9119 8.97152 18.9648 9.00467C18.9912 9.02117 19.0096 9.03414 19.0195 9.04144C19.0237 9.04448 19.0263 9.04651 19.0274 9.04737C19.2538 9.23191 19.5871 9.20023 19.7745 8.97532C19.9632 8.74891 19.9322 8.41209 19.7058 8.22341Z" fill="#9A6634"/>
</g>
<g filter="url(#filter9_i_3_1220)">
<path d="M12.2135 8.22373L12.2142 8.22309L12.2151 8.22239L12.2169 8.22086L12.2214 8.2172L12.2334 8.20767C12.2427 8.20036 12.2547 8.19119 12.2693 8.18048C12.2985 8.15909 12.3384 8.13143 12.3883 8.10017C12.4878 8.03781 12.6292 7.96011 12.8079 7.88943C13.1669 7.74752 13.6795 7.63318 14.3005 7.73124C14.5916 7.7772 14.7904 8.05046 14.7444 8.34158C14.6984 8.6327 14.4252 8.83143 14.134 8.78547C13.7363 8.72266 13.4178 8.796 13.2003 8.88197C13.0909 8.92522 13.0077 8.97152 12.9548 9.00467C12.9285 9.02117 12.9101 9.03414 12.9001 9.04144C12.896 9.04448 12.8933 9.04651 12.8922 9.04737C12.6658 9.23191 12.3326 9.20023 12.1451 8.97532C11.9564 8.74891 11.987 8.41241 12.2135 8.22373Z" fill="#9A6634"/>
</g>
<path d="M18.3743 9.51245C19.0272 9.51245 19.5787 9.96259 19.7288 10.5709C19.7734 10.7453 19.6395 10.9115 19.4611 10.9115H17.2307C17.0887 10.9115 16.9752 10.7818 17.0036 10.6398C17.1293 9.99909 17.693 9.51245 18.3743 9.51245Z" fill="white"/>
<path d="M18.1674 9.78418C18.6622 9.78418 19.0596 10.1857 19.0596 10.6763C19.0596 10.7575 19.0474 10.8386 19.0271 10.9116H17.3036C17.2833 10.8345 17.2712 10.7575 17.2712 10.6763C17.2712 10.1857 17.6727 9.78418 18.1674 9.78418Z" fill="url(#paint30_radial_3_1220)"/>
<path d="M17.6564 10.6765C17.6564 10.3926 17.8835 10.1655 18.1674 10.1655C18.4513 10.1655 18.6784 10.3926 18.6784 10.6765C18.6784 10.7617 18.6581 10.8428 18.6216 10.9117H17.7173C17.6767 10.8428 17.6564 10.7617 17.6564 10.6765Z" fill="black"/>
<g filter="url(#filter10_f_3_1220)">
<path d="M18.1018 9.97294C18.1653 10.058 18.0325 10.1616 17.8814 10.2745C17.7304 10.3875 17.6183 10.467 17.5547 10.382C17.4912 10.2969 17.5621 10.1365 17.7132 10.0235C17.8642 9.91057 18.0382 9.88792 18.1018 9.97294Z" fill="#C7A7A3"/>
<path d="M18.1018 9.97294C18.1653 10.058 18.0325 10.1616 17.8814 10.2745C17.7304 10.3875 17.6183 10.467 17.5547 10.382C17.4912 10.2969 17.5621 10.1365 17.7132 10.0235C17.8642 9.91057 18.0382 9.88792 18.1018 9.97294Z" fill="url(#paint31_radial_3_1220)"/>
</g>
<g filter="url(#filter11_f_3_1220)">
<path d="M18.9622 10.559C18.9293 10.3283 18.7943 10.1545 18.7309 10.0964L18.4711 10.3816L18.5884 10.6097L18.9622 10.559Z" fill="url(#paint32_linear_3_1220)"/>
</g>
<path d="M13.5938 9.51245C12.9409 9.51245 12.3894 9.96261 12.2393 10.5709C12.1947 10.7453 12.3285 10.9116 12.507 10.9116H14.7375C14.8794 10.9116 14.993 10.7818 14.9646 10.6399C14.8389 9.99911 14.2711 9.51245 13.5938 9.51245Z" fill="white"/>
<path d="M13.8006 9.78418C13.3058 9.78418 12.9084 10.1857 12.9084 10.6764C12.9084 10.7575 12.9206 10.8386 12.9408 10.9116H14.6644C14.6847 10.8346 14.6969 10.7575 14.6969 10.6764C14.6928 10.1857 14.2954 9.78418 13.8006 9.78418Z" fill="url(#paint33_radial_3_1220)"/>
<path d="M14.3117 10.6765C14.3117 10.3926 14.0846 10.1655 13.8007 10.1655C13.5168 10.1655 13.2897 10.3926 13.2897 10.6765C13.2897 10.7617 13.31 10.8428 13.3465 10.9117H14.2509C14.2874 10.8428 14.3117 10.7617 14.3117 10.6765Z" fill="black"/>
<g filter="url(#filter12_f_3_1220)">
<path d="M14.6159 10.5716C14.6159 10.2833 14.3814 10.091 14.318 10.033L14.0297 10.3118L14.2072 10.673L14.6159 10.5716Z" fill="url(#paint34_linear_3_1220)"/>
</g>
<g filter="url(#filter13_f_3_1220)">
<ellipse cx="13.5314" cy="10.1654" rx="0.389499" ry="0.197122" transform="rotate(-27.914 13.5314 10.1654)" fill="#C7A7A3" fill-opacity="0.9"/>
<ellipse cx="13.5314" cy="10.1654" rx="0.389499" ry="0.197122" transform="rotate(-27.914 13.5314 10.1654)" fill="url(#paint35_radial_3_1220)"/>
</g>
<g filter="url(#filter14_f_3_1220)">
<path d="M17.6472 8.0789C18.0772 8.00364 18.9158 8.02514 19.4964 8.4767" stroke="url(#paint36_linear_3_1220)" stroke-width="0.25" stroke-linecap="round"/>
</g>
<g filter="url(#filter15_f_3_1220)">
<path d="M12.4282 8.59715C12.7553 8.30802 13.4697 8.00359 14.3552 8.14473" stroke="url(#paint37_linear_3_1220)" stroke-width="0.25" stroke-linecap="round"/>
</g>
<g filter="url(#filter16_i_3_1220)">
<path d="M26.0301 15.6572H5.97006C5.44006 15.6572 5.00006 16.0872 5.00006 16.6272V29.6572H27.0001V16.6272C27.0001 16.0872 26.5601 15.6572 26.0301 15.6572Z" fill="url(#paint38_linear_3_1220)"/>
<path d="M26.0301 15.6572H5.97006C5.44006 15.6572 5.00006 16.0872 5.00006 16.6272V29.6572H27.0001V16.6272C27.0001 16.0872 26.5601 15.6572 26.0301 15.6572Z" fill="url(#paint39_radial_3_1220)"/>
<path d="M26.0301 15.6572H5.97006C5.44006 15.6572 5.00006 16.0872 5.00006 16.6272V29.6572H27.0001V16.6272C27.0001 16.0872 26.5601 15.6572 26.0301 15.6572Z" fill="url(#paint40_linear_3_1220)"/>
<path d="M26.0301 15.6572H5.97006C5.44006 15.6572 5.00006 16.0872 5.00006 16.6272V29.6572H27.0001V16.6272C27.0001 16.0872 26.5601 15.6572 26.0301 15.6572Z" fill="url(#paint41_linear_3_1220)"/>
<path d="M26.0301 15.6572H5.97006C5.44006 15.6572 5.00006 16.0872 5.00006 16.6272V29.6572H27.0001V16.6272C27.0001 16.0872 26.5601 15.6572 26.0301 15.6572Z" fill="url(#paint42_linear_3_1220)"/>
<path d="M26.0301 15.6572H5.97006C5.44006 15.6572 5.00006 16.0872 5.00006 16.6272V29.6572H27.0001V16.6272C27.0001 16.0872 26.5601 15.6572 26.0301 15.6572Z" fill="url(#paint43_radial_3_1220)"/>
</g>
<path d="M14.444 21.8909C14.444 21.7528 14.5559 21.6409 14.694 21.6409H17.3041C17.4421 21.6409 17.5541 21.7528 17.5541 21.8909V24.3066C17.5541 24.4447 17.4421 24.5566 17.3041 24.5566H14.694C14.5559 24.5566 14.444 24.4447 14.444 24.3066V21.8909Z" fill="url(#paint44_linear_3_1220)"/>
<path d="M14.444 21.8909C14.444 21.7528 14.5559 21.6409 14.694 21.6409H17.3041C17.4421 21.6409 17.5541 21.7528 17.5541 21.8909V24.3066C17.5541 24.4447 17.4421 24.5566 17.3041 24.5566H14.694C14.5559 24.5566 14.444 24.4447 14.444 24.3066V21.8909Z" fill="url(#paint45_linear_3_1220)"/>
<path d="M14.444 21.8909C14.444 21.7528 14.5559 21.6409 14.694 21.6409H17.3041C17.4421 21.6409 17.5541 21.7528 17.5541 21.8909V24.3066C17.5541 24.4447 17.4421 24.5566 17.3041 24.5566H14.694C14.5559 24.5566 14.444 24.4447 14.444 24.3066V21.8909Z" fill="url(#paint46_linear_3_1220)"/>
<path d="M14.444 21.8909C14.444 21.7528 14.5559 21.6409 14.694 21.6409H17.3041C17.4421 21.6409 17.5541 21.7528 17.5541 21.8909V24.3066C17.5541 24.4447 17.4421 24.5566 17.3041 24.5566H14.694C14.5559 24.5566 14.444 24.4447 14.444 24.3066V21.8909Z" fill="url(#paint47_linear_3_1220)"/>
<path d="M14.444 21.8909C14.444 21.7528 14.5559 21.6409 14.694 21.6409H17.3041C17.4421 21.6409 17.5541 21.7528 17.5541 21.8909V24.3066C17.5541 24.4447 17.4421 24.5566 17.3041 24.5566H14.694C14.5559 24.5566 14.444 24.4447 14.444 24.3066V21.8909Z" fill="url(#paint48_linear_3_1220)"/>
<path d="M14.444 21.8909C14.444 21.7528 14.5559 21.6409 14.694 21.6409H17.3041C17.4421 21.6409 17.5541 21.7528 17.5541 21.8909V24.3066C17.5541 24.4447 17.4421 24.5566 17.3041 24.5566H14.694C14.5559 24.5566 14.444 24.4447 14.444 24.3066V21.8909Z" fill="url(#paint49_radial_3_1220)" fill-opacity="0.6"/>
<defs>
<filter id="filter0_i_3_1220" x="9.56976" y="9.27368" width="3.53862" height="3.33862" filterUnits="userSpaceOnUse" color-interpolation-filters="sRGB">
<feFlood flood-opacity="0" result="BackgroundImageFix"/>
<feBlend mode="normal" in="SourceGraphic" in2="BackgroundImageFix" result="shape"/>
<feColorMatrix in="SourceAlpha" type="matrix" values="0 0 0 0 0 0 0 0 0 0 0 0 0 0 0 0 0 0 127 0" result="hardAlpha"/>
<feOffset dx="0.2"/>
<feGaussianBlur stdDeviation="0.2"/>
<feComposite in2="hardAlpha" operator="arithmetic" k2="-1" k3="1"/>
<feColorMatrix type="matrix" values="0 0 0 0 0.866667 0 0 0 0 0.643137 0 0 0 0 0.533333 0 0 0 1 0"/>
<feBlend mode="normal" in2="shape" result="effect1_innerShadow_3_1220"/>
</filter>
<filter id="filter1_f_3_1220" x="9.74432" y="9.44824" width="2.98978" height="2.98975" filterUnits="userSpaceOnUse" color-interpolation-filters="sRGB">
<feFlood flood-opacity="0" result="BackgroundImageFix"/>
<feBlend mode="normal" in="SourceGraphic" in2="BackgroundImageFix" result="shape"/>
<feGaussianBlur stdDeviation="0.25" result="effect1_foregroundBlur_3_1220"/>
</filter>
<filter id="filter2_i_3_1220" x="19.0825" y="9.02368" width="3.58862" height="3.58862" filterUnits="userSpaceOnUse" color-interpolation-filters="sRGB">
<feFlood flood-opacity="0" result="BackgroundImageFix"/>
<feBlend mode="normal" in="SourceGraphic" in2="BackgroundImageFix" result="shape"/>
<feColorMatrix in="SourceAlpha" type="matrix" values="0 0 0 0 0 0 0 0 0 0 0 0 0 0 0 0 0 0 127 0" result="hardAlpha"/>
<feOffset dx="0.25" dy="-0.25"/>
<feGaussianBlur stdDeviation="0.25"/>
<feComposite in2="hardAlpha" operator="arithmetic" k2="-1" k3="1"/>
<feColorMatrix type="matrix" values="0 0 0 0 0.768627 0 0 0 0 0.529412 0 0 0 0 0.505882 0 0 0 1 0"/>
<feBlend mode="normal" in2="shape" result="effect1_innerShadow_3_1220"/>
</filter>
<filter id="filter3_f_3_1220" x="19.2568" y="9.44824" width="2.98978" height="2.98975" filterUnits="userSpaceOnUse" color-interpolation-filters="sRGB">
<feFlood flood-opacity="0" result="BackgroundImageFix"/>
<feBlend mode="normal" in="SourceGraphic" in2="BackgroundImageFix" result="shape"/>
<feGaussianBlur stdDeviation="0.25" result="effect1_foregroundBlur_3_1220"/>
</filter>
<filter id="filter4_i_3_1220" x="10.829" y="5.31909" width="10.3728" height="12.1769" filterUnits="userSpaceOnUse" color-interpolation-filters="sRGB">
<feFlood flood-opacity="0" result="BackgroundImageFix"/>
<feBlend mode="normal" in="SourceGraphic" in2="BackgroundImageFix" result="shape"/>
<feColorMatrix in="SourceAlpha" type="matrix" values="0 0 0 0 0 0 0 0 0 0 0 0 0 0 0 0 0 0 127 0" result="hardAlpha"/>
<feOffset dy="0.15"/>
<feGaussianBlur stdDeviation="0.15"/>
<feComposite in2="hardAlpha" operator="arithmetic" k2="-1" k3="1"/>
<feColorMatrix type="matrix" values="0 0 0 0 0.752941 0 0 0 0 0.501961 0 0 0 0 0.34902 0 0 0 1 0"/>
<feBlend mode="normal" in2="shape" result="effect1_innerShadow_3_1220"/>
</filter>
<filter id="filter5_i_3_1220" x="9.68646" y="1.84253" width="12.6005" height="8.54297" filterUnits="userSpaceOnUse" color-interpolation-filters="sRGB">
<feFlood flood-opacity="0" result="BackgroundImageFix"/>
<feBlend mode="normal" in="SourceGraphic" in2="BackgroundImageFix" result="shape"/>
<feColorMatrix in="SourceAlpha" type="matrix" values="0 0 0 0 0 0 0 0 0 0 0 0 0 0 0 0 0 0 127 0" result="hardAlpha"/>
<feOffset dy="-0.5"/>
<feGaussianBlur stdDeviation="0.375"/>
<feComposite in2="hardAlpha" operator="arithmetic" k2="-1" k3="1"/>
<feColorMatrix type="matrix" values="0 0 0 0 0.858824 0 0 0 0 0.690196 0 0 0 0 0.533333 0 0 0 1 0"/>
<feBlend mode="normal" in2="shape" result="effect1_innerShadow_3_1220"/>
</filter>
<filter id="filter6_f_3_1220" x="14.1179" y="9.78857" width="3.2598" height="4.18091" filterUnits="userSpaceOnUse" color-interpolation-filters="sRGB">
<feFlood flood-opacity="0" result="BackgroundImageFix"/>
<feBlend mode="normal" in="SourceGraphic" in2="BackgroundImageFix" result="shape"/>
<feGaussianBlur stdDeviation="0.375" result="effect1_foregroundBlur_3_1220"/>
</filter>
<filter id="filter7_f_3_1220" x="14.7983" y="10.1255" width="2.37668" height="3.18091" filterUnits="userSpaceOnUse" color-interpolation-filters="sRGB">
<feFlood flood-opacity="0" result="BackgroundImageFix"/>
<feBlend mode="normal" in="SourceGraphic" in2="BackgroundImageFix" result="shape"/>
<feGaussianBlur stdDeviation="0.125" result="effect1_foregroundBlur_3_1220"/>
</filter>
<filter id="filter8_i_3_1220" x="17.1686" y="7.29458" width="2.97943" height="1.87266" filterUnits="userSpaceOnUse" color-interpolation-filters="sRGB">
<feFlood flood-opacity="0" result="BackgroundImageFix"/>
<feBlend mode="normal" in="SourceGraphic" in2="BackgroundImageFix" result="shape"/>
<feColorMatrix in="SourceAlpha" type="matrix" values="0 0 0 0 0 0 0 0 0 0 0 0 0 0 0 0 0 0 127 0" result="hardAlpha"/>
<feOffset dx="0.25" dy="-0.4"/>
<feGaussianBlur stdDeviation="0.3"/>
<feComposite in2="hardAlpha" operator="arithmetic" k2="-1" k3="1"/>
<feColorMatrix type="matrix" values="0 0 0 0 0.47451 0 0 0 0 0.262745 0 0 0 0 0.168627 0 0 0 1 0"/>
<feBlend mode="normal" in2="shape" result="effect1_innerShadow_3_1220"/>
</filter>
<filter id="filter9_i_3_1220" x="12.0214" y="7.29458" width="2.97958" height="1.87266" filterUnits="userSpaceOnUse" color-interpolation-filters="sRGB">
<feFlood flood-opacity="0" result="BackgroundImageFix"/>
<feBlend mode="normal" in="SourceGraphic" in2="BackgroundImageFix" result="shape"/>
<feColorMatrix in="SourceAlpha" type="matrix" values="0 0 0 0 0 0 0 0 0 0 0 0 0 0 0 0 0 0 127 0" result="hardAlpha"/>
<feOffset dx="0.25" dy="-0.4"/>
<feGaussianBlur stdDeviation="0.3"/>
<feComposite in2="hardAlpha" operator="arithmetic" k2="-1" k3="1"/>
<feColorMatrix type="matrix" values="0 0 0 0 0.47451 0 0 0 0 0.262745 0 0 0 0 0.168627 0 0 0 1 0"/>
<feBlend mode="normal" in2="shape" result="effect1_innerShadow_3_1220"/>
</filter>
<filter id="filter10_f_3_1220" x="17.4314" y="9.82139" width="0.786639" height="0.696338" filterUnits="userSpaceOnUse" color-interpolation-filters="sRGB">
<feFlood flood-opacity="0" result="BackgroundImageFix"/>
<feBlend mode="normal" in="SourceGraphic" in2="BackgroundImageFix" result="shape"/>
<feGaussianBlur stdDeviation="0.05" result="effect1_foregroundBlur_3_1220"/>
</filter>
<filter id="filter11_f_3_1220" x="18.2711" y="9.89644" width="0.891058" height="0.913184" filterUnits="userSpaceOnUse" color-interpolation-filters="sRGB">
<feFlood flood-opacity="0" result="BackgroundImageFix"/>
<feBlend mode="normal" in="SourceGraphic" in2="BackgroundImageFix" result="shape"/>
<feGaussianBlur stdDeviation="0.1" result="effect1_foregroundBlur_3_1220"/>
</filter>
<filter id="filter12_f_3_1220" x="13.8297" y="9.83296" width="0.986151" height="1.03989" filterUnits="userSpaceOnUse" color-interpolation-filters="sRGB">
<feFlood flood-opacity="0" result="BackgroundImageFix"/>
<feBlend mode="normal" in="SourceGraphic" in2="BackgroundImageFix" result="shape"/>
<feGaussianBlur stdDeviation="0.1" result="effect1_foregroundBlur_3_1220"/>
</filter>
<filter id="filter13_f_3_1220" x="13.075" y="9.81333" width="0.91283" height="0.70415" filterUnits="userSpaceOnUse" color-interpolation-filters="sRGB">
<feFlood flood-opacity="0" result="BackgroundImageFix"/>
<feBlend mode="normal" in="SourceGraphic" in2="BackgroundImageFix" result="shape"/>
<feGaussianBlur stdDeviation="0.05" result="effect1_foregroundBlur_3_1220"/>
</filter>
<filter id="filter14_f_3_1220" x="17.0221" y="7.42065" width="3.09927" height="1.68115" filterUnits="userSpaceOnUse" color-interpolation-filters="sRGB">
<feFlood flood-opacity="0" result="BackgroundImageFix"/>
<feBlend mode="normal" in="SourceGraphic" in2="BackgroundImageFix" result="shape"/>
<feGaussianBlur stdDeviation="0.25" result="effect1_foregroundBlur_3_1220"/>
</filter>
<filter id="filter15_f_3_1220" x="11.8032" y="7.48413" width="3.17703" height="1.73804" filterUnits="userSpaceOnUse" color-interpolation-filters="sRGB">
<feFlood flood-opacity="0" result="BackgroundImageFix"/>
<feBlend mode="normal" in="SourceGraphic" in2="BackgroundImageFix" result="shape"/>
<feGaussianBlur stdDeviation="0.25" result="effect1_foregroundBlur_3_1220"/>
</filter>
<filter id="filter16_i_3_1220" x="5.00006" y="15.6572" width="22" height="14.1" filterUnits="userSpaceOnUse" color-interpolation-filters="sRGB">
<feFlood flood-opacity="0" result="BackgroundImageFix"/>
<feBlend mode="normal" in="SourceGraphic" in2="BackgroundImageFix" result="shape"/>
<feColorMatrix in="SourceAlpha" type="matrix" values="0 0 0 0 0 0 0 0 0 0 0 0 0 0 0 0 0 0 127 0" result="hardAlpha"/>
<feOffset dy="0.1"/>
<feGaussianBlur stdDeviation="0.25"/>
<feComposite in2="hardAlpha" operator="arithmetic" k2="-1" k3="1"/>
<feColorMatrix type="matrix" values="0 0 0 0 0.678431 0 0 0 0 0.670588 0 0 0 0 0.682353 0 0 0 1 0"/>
<feBlend mode="normal" in2="shape" result="effect1_innerShadow_3_1220"/>
</filter>
<radialGradient id="paint0_radial_3_1220" cx="0" cy="0" r="1" gradientUnits="userSpaceOnUse" gradientTransform="translate(2.74762 29.6574) rotate(-25.8303) scale(3.11934 3.38798)">
<stop offset="0.406184" stop-color="#E2AC90"/>
<stop offset="1" stop-color="#C29173"/>
</radialGradient>
<radialGradient id="paint1_radial_3_1220" cx="0" cy="0" r="1" gradientUnits="userSpaceOnUse" gradientTransform="translate(5.40387 29.4912) rotate(177.157) scale(3.35044 4.79049)">
<stop offset="0.763821" stop-color="#FBBF9F" stop-opacity="0"/>
<stop offset="0.927153" stop-color="#FBBF9F"/>
</radialGradient>
<radialGradient id="paint2_radial_3_1220" cx="0" cy="0" r="1" gradientUnits="userSpaceOnUse" gradientTransform="translate(27.0914 29.7568) rotate(-33.3961) scale(6.75616 1.88662)">
<stop offset="0.127243" stop-color="#FEC6A9"/>
<stop offset="1" stop-color="#FEC6A9" stop-opacity="0"/>
</radialGradient>
<linearGradient id="paint3_linear_3_1220" x1="26.607" y1="28.4756" x2="27.3023" y2="28.4756" gradientUnits="userSpaceOnUse">
<stop stop-color="#DFB290"/>
<stop offset="1" stop-color="#B38F78" stop-opacity="0"/>
<stop offset="1" stop-color="#DFB290" stop-opacity="0"/>
</linearGradient>
<linearGradient id="paint4_linear_3_1220" x1="16.0001" y1="6.34043" x2="16.0001" y2="34.2488" gradientUnits="userSpaceOnUse">
<stop stop-color="#636363"/>
<stop offset="1" stop-color="#1C1C1C"/>
</linearGradient>
<linearGradient id="paint5_linear_3_1220" x1="10.9177" y1="23.6409" x2="1.42823" y2="23.6819" gradientUnits="userSpaceOnUse">
<stop stop-color="#1C1C1C"/>
<stop offset="1" stop-color="#636363"/>
</linearGradient>
<linearGradient id="paint6_linear_3_1220" x1="22.998" y1="23.6577" x2="28.6524" y2="23.6577" gradientUnits="userSpaceOnUse">
<stop stop-color="#1C1C1C"/>
<stop offset="1" stop-color="#636363"/>
</linearGradient>
<radialGradient id="paint7_radial_3_1220" cx="0" cy="0" r="1" gradientUnits="userSpaceOnUse" gradientTransform="translate(9.56976 10.943) scale(1.75471 3.07076)">
<stop offset="0.350532" stop-color="#C28775"/>
<stop offset="1" stop-color="#BA7867"/>
</radialGradient>
<linearGradient id="paint8_linear_3_1220" x1="11.2392" y1="11.2218" x2="10.5987" y2="11.2218" gradientUnits="userSpaceOnUse">
<stop stop-color="#AF6F5D"/>
<stop offset="1" stop-color="#B87862"/>
</linearGradient>
<linearGradient id="paint9_linear_3_1220" x1="21.8381" y1="9.85154" x2="21.0195" y2="12.3876" gradientUnits="userSpaceOnUse">
<stop stop-color="#F5C8A5"/>
<stop offset="1" stop-color="#DCA189"/>
</linearGradient>
<radialGradient id="paint10_radial_3_1220" cx="0" cy="0" r="1" gradientUnits="userSpaceOnUse" gradientTransform="translate(21.1238 10.6782) rotate(-36.0604) scale(1.02256 1.16712)">
<stop offset="0.542503" stop-color="#E3AB88"/>
<stop offset="1" stop-color="#E3AB88" stop-opacity="0"/>
</radialGradient>
<radialGradient id="paint11_radial_3_1220" cx="0" cy="0" r="1" gradientUnits="userSpaceOnUse" gradientTransform="translate(20.7103 11.7643) rotate(-61.4675) scale(1.71921 1.00626)">
<stop offset="0.689542" stop-color="#D79A76" stop-opacity="0"/>
<stop offset="1" stop-color="#D79A76"/>
</radialGradient>
<radialGradient id="paint12_radial_3_1220" cx="0" cy="0" r="1" gradientUnits="userSpaceOnUse" gradientTransform="translate(20.7517 10.9431) rotate(44.7077) scale(0.364801 0.47028)">
<stop stop-color="#CB8E6D"/>
<stop offset="1" stop-color="#CB8E6D" stop-opacity="0"/>
</radialGradient>
<linearGradient id="paint13_linear_3_1220" x1="20.0222" y1="11.3325" x2="12.386" y2="12.4704" gradientUnits="userSpaceOnUse">
<stop stop-color="#FAC39E"/>
<stop offset="1" stop-color="#C9917C"/>
</linearGradient>
<radialGradient id="paint14_radial_3_1220" cx="0" cy="0" r="1" gradientUnits="userSpaceOnUse" gradientTransform="translate(17.2423 7.30688) rotate(94.0945) scale(10.992 10.5018)">
<stop offset="0.618379" stop-color="#C88D87" stop-opacity="0"/>
<stop offset="0.903797" stop-color="#BD787A"/>
</radialGradient>
<linearGradient id="paint15_linear_3_1220" x1="10.5912" y1="14.0283" x2="12.9035" y2="13.7267" gradientUnits="userSpaceOnUse">
<stop stop-color="#D99E84"/>
<stop offset="1" stop-color="#D99E84" stop-opacity="0"/>
</linearGradient>
<radialGradient id="paint16_radial_3_1220" cx="0" cy="0" r="1" gradientUnits="userSpaceOnUse" gradientTransform="translate(18.3325 9.67172) rotate(-90) scale(1.30697 1.60857)">
<stop stop-color="#E2A18C"/>
<stop offset="1" stop-color="#E2A18C" stop-opacity="0"/>
</radialGradient>
<radialGradient id="paint17_radial_3_1220" cx="0" cy="0" r="1" gradientUnits="userSpaceOnUse" gradientTransform="translate(13.7749 9.6382) rotate(-90) scale(1.39075 1.72952)">
<stop stop-color="#C2837A"/>
<stop offset="1" stop-color="#C2837A" stop-opacity="0"/>
</radialGradient>
<radialGradient id="paint18_radial_3_1220" cx="0" cy="0" r="1" gradientUnits="userSpaceOnUse" gradientTransform="translate(19.6786 3.23066) rotate(127.807) scale(5.6057 9.53299)">
<stop stop-color="#FFFFC2"/>
<stop offset="1" stop-color="#FFFFC2" stop-opacity="0"/>
</radialGradient>
<linearGradient id="paint19_linear_3_1220" x1="11.1261" y1="10.6759" x2="14.0279" y2="5.52151" gradientUnits="userSpaceOnUse">
<stop stop-color="#E8AD8E"/>
<stop offset="1" stop-color="#E8AD8E" stop-opacity="0"/>
</linearGradient>
<radialGradient id="paint20_radial_3_1220" cx="0" cy="0" r="1" gradientUnits="userSpaceOnUse" gradientTransform="translate(11.7943 7.48782) rotate(-92.0559) scale(1.86251 0.914723)">
<stop offset="0.227435" stop-color="#EEC19C"/>
<stop offset="1" stop-color="#EEC19C" stop-opacity="0"/>
</radialGradient>
<radialGradient id="paint21_radial_3_1220" cx="0" cy="0" r="1" gradientUnits="userSpaceOnUse" gradientTransform="translate(20.2132 9.20596) rotate(-66.3998) scale(2.14578 1.75005)">
<stop offset="0.478737" stop-color="#E3AB85"/>
<stop offset="1" stop-color="#E3AB85" stop-opacity="0"/>
</radialGradient>
<radialGradient id="paint22_radial_3_1220" cx="0" cy="0" r="1" gradientUnits="userSpaceOnUse" gradientTransform="translate(15.2115 2.34253) rotate(51.1339) scale(1.58199 1.39678)">
<stop stop-color="#FBECAF"/>
<stop offset="1" stop-color="#FBECAF" stop-opacity="0"/>
</radialGradient>
<radialGradient id="paint23_radial_3_1220" cx="0" cy="0" r="1" gradientUnits="userSpaceOnUse" gradientTransform="translate(16.6814 2.34253) rotate(76.9613) scale(0.803859 1.32155)">
<stop offset="0.207744" stop-color="#E1D19F"/>
<stop offset="1" stop-color="#E1D19F" stop-opacity="0"/>
</radialGradient>
<radialGradient id="paint24_radial_3_1220" cx="0" cy="0" r="1" gradientUnits="userSpaceOnUse" gradientTransform="translate(11.6416 4.07064) rotate(51.0441) scale(1.15383 2.5853)">
<stop stop-color="#DCC291"/>
<stop offset="1" stop-color="#DCC291" stop-opacity="0"/>
</radialGradient>
<linearGradient id="paint25_linear_3_1220" x1="15.1225" y1="11.9917" x2="16.0606" y2="11.9917" gradientUnits="userSpaceOnUse">
<stop stop-color="#CB9173"/>
<stop offset="1" stop-color="#CB9173" stop-opacity="0"/>
</linearGradient>
<linearGradient id="paint26_linear_3_1220" x1="16.925" y1="12.3142" x2="15.8994" y2="12.2995" gradientUnits="userSpaceOnUse">
<stop stop-color="#FEC8A4"/>
<stop offset="1" stop-color="#FEC8A4" stop-opacity="0"/>
</linearGradient>
<linearGradient id="paint27_linear_3_1220" x1="16.1811" y1="13.0564" x2="16.1811" y2="12.4835" gradientUnits="userSpaceOnUse">
<stop stop-color="#C98583"/>
<stop offset="1" stop-color="#C98583" stop-opacity="0"/>
</linearGradient>
<linearGradient id="paint28_linear_3_1220" x1="16.1123" y1="13.0983" x2="16.1123" y2="12.9308" gradientUnits="userSpaceOnUse">
<stop stop-color="#C27B77"/>
<stop offset="1" stop-color="#C27B77" stop-opacity="0"/>
</linearGradient>
<linearGradient id="paint29_linear_3_1220" x1="14.9498" y1="14.6712" x2="15.3847" y2="13.9838" gradientUnits="userSpaceOnUse">
<stop stop-color="#D79E8E"/>
<stop offset="0.663171" stop-color="#D79E8E" stop-opacity="0"/>
</linearGradient>
<radialGradient id="paint30_radial_3_1220" cx="0" cy="0" r="1" gradientUnits="userSpaceOnUse" gradientTransform="translate(18.1654 10.5946) rotate(90) scale(0.903078 1.06858)">
<stop offset="0.75" stop-color="#925C51"/>
<stop offset="1" stop-color="#694B43"/>
<stop offset="1" stop-color="#804D49"/>
<stop offset="1" stop-color="#85534D"/>
</radialGradient>
<radialGradient id="paint31_radial_3_1220" cx="0" cy="0" r="1" gradientUnits="userSpaceOnUse" gradientTransform="translate(17.9372 10.3453) rotate(-127.812) scale(0.378167 0.520646)">
<stop offset="0.765532" stop-color="#FFE6E2" stop-opacity="0"/>
<stop offset="0.966159" stop-color="#FFE6E2"/>
</radialGradient>
<linearGradient id="paint32_linear_3_1220" x1="18.9432" y1="10.315" x2="18.6295" y2="10.5083" gradientUnits="userSpaceOnUse">
<stop stop-color="#B4948D"/>
<stop offset="1" stop-color="#B4948D" stop-opacity="0"/>
</linearGradient>
<radialGradient id="paint33_radial_3_1220" cx="0" cy="0" r="1" gradientUnits="userSpaceOnUse" gradientTransform="translate(13.8026 10.5946) rotate(90) scale(0.903123 1.06863)">
<stop offset="0.75" stop-color="#925C51"/>
<stop offset="1" stop-color="#694B43"/>
<stop offset="1" stop-color="#804D49"/>
<stop offset="1" stop-color="#85534D"/>
</radialGradient>
<linearGradient id="paint34_linear_3_1220" x1="14.5464" y1="10.3149" x2="14.2327" y2="10.5082" gradientUnits="userSpaceOnUse">
<stop stop-color="#B4948D"/>
<stop offset="1" stop-color="#B4948D" stop-opacity="0"/>
</linearGradient>
<radialGradient id="paint35_radial_3_1220" cx="0" cy="0" r="1" gradientUnits="userSpaceOnUse" gradientTransform="translate(13.5163 10.4803) rotate(-90.897) scale(0.493987 0.593793)">
<stop offset="0.765532" stop-color="#FFE6E2" stop-opacity="0"/>
<stop offset="0.966159" stop-color="#FFE6E2"/>
</radialGradient>
<linearGradient id="paint36_linear_3_1220" x1="18.9588" y1="8.17566" x2="18.5387" y2="7.3171" gradientUnits="userSpaceOnUse">
<stop stop-color="#A57146"/>
<stop offset="1" stop-color="#A57146" stop-opacity="0"/>
</linearGradient>
<linearGradient id="paint37_linear_3_1220" x1="13.6547" y1="8.04768" x2="12.4656" y2="7.54899" gradientUnits="userSpaceOnUse">
<stop stop-color="#A57146"/>
<stop offset="1" stop-color="#A57146" stop-opacity="0"/>
</linearGradient>
<linearGradient id="paint38_linear_3_1220" x1="7.4928" y1="19.3919" x2="11.2842" y2="30.4426" gradientUnits="userSpaceOnUse">
<stop stop-color="#AB9CBE"/>
<stop offset="1" stop-color="#847498"/>
</linearGradient>
<radialGradient id="paint39_radial_3_1220" cx="0" cy="0" r="1" gradientUnits="userSpaceOnUse" gradientTransform="translate(17.2428 30.7044) rotate(-90) scale(7.59705 13.2772)">
<stop offset="0.0273225" stop-color="#78698C"/>
<stop offset="1" stop-color="#7A6B8E" stop-opacity="0"/>
</radialGradient>
<linearGradient id="paint40_linear_3_1220" x1="16.0001" y1="15.6572" x2="16.0001" y2="17.0169" gradientUnits="userSpaceOnUse">
<stop stop-color="#BEB0B0"/>
<stop offset="0.267777" stop-color="#BEB7C7"/>
<stop offset="0.863185" stop-color="#BEB7C7" stop-opacity="0"/>
</linearGradient>
<linearGradient id="paint41_linear_3_1220" x1="5.00006" y1="23.8919" x2="6.0553" y2="23.8919" gradientUnits="userSpaceOnUse">
<stop stop-color="#9F93B2"/>
<stop offset="1" stop-color="#9F93B2" stop-opacity="0"/>
</linearGradient>
<linearGradient id="paint42_linear_3_1220" x1="27.0001" y1="24.8294" x2="25.524" y2="24.8294" gradientUnits="userSpaceOnUse">
<stop offset="0.174296" stop-color="#BAB9C0"/>
<stop offset="1" stop-color="#A191B5" stop-opacity="0"/>
</linearGradient>
<radialGradient id="paint43_radial_3_1220" cx="0" cy="0" r="1" gradientUnits="userSpaceOnUse" gradientTransform="translate(26.6959 16.2981) rotate(150.751) scale(0.895409 0.830326)">
<stop stop-color="#E5DFF1"/>
<stop offset="0.723783" stop-color="#E5DFF1" stop-opacity="0"/>
</radialGradient>
<linearGradient id="paint44_linear_3_1220" x1="17.9769" y1="23.0987" x2="13.911" y2="23.0987" gradientUnits="userSpaceOnUse">
<stop offset="0.0957634" stop-color="#56416B"/>
<stop offset="0.129627" stop-color="#614C77"/>
<stop offset="0.165482" stop-color="#51366C"/>
<stop offset="1" stop-color="#4F3568"/>
</linearGradient>
<linearGradient id="paint45_linear_3_1220" x1="15.999" y1="21.6409" x2="15.999" y2="23.1959" gradientUnits="userSpaceOnUse">
<stop stop-color="#60407F"/>
<stop offset="1" stop-color="#543870" stop-opacity="0"/>
</linearGradient>
<linearGradient id="paint46_linear_3_1220" x1="15.999" y1="21.6409" x2="15.999" y2="24.5566" gradientUnits="userSpaceOnUse">
<stop stop-color="#594170"/>
<stop offset="0.0367115" stop-color="#6D5686"/>
<stop offset="0.0580102" stop-color="#6F5783"/>
<stop offset="0.096735" stop-color="#5F447B" stop-opacity="0"/>
</linearGradient>
<linearGradient id="paint47_linear_3_1220" x1="14.444" y1="23.1216" x2="15.0201" y2="23.1216" gradientUnits="userSpaceOnUse">
<stop offset="0.0862049" stop-color="#3B2B50"/>
<stop offset="0.662599" stop-color="#52376C" stop-opacity="0"/>
</linearGradient>
<linearGradient id="paint48_linear_3_1220" x1="15.999" y1="24.8418" x2="15.999" y2="24.1678" gradientUnits="userSpaceOnUse">
<stop offset="0.50729" stop-color="#3D2555"/>
<stop offset="0.735619" stop-color="#4A3261" stop-opacity="0"/>
</linearGradient>
<radialGradient id="paint49_radial_3_1220" cx="0" cy="0" r="1" gradientUnits="userSpaceOnUse" gradientTransform="translate(17.3711 21.8242) rotate(140.08) scale(0.124786 0.186048)">
<stop stop-color="#806B97"/>
<stop offset="1" stop-color="#8D78A4" stop-opacity="0"/>
</radialGradient>
</defs>
</svg>
