<svg width="32" height="32" viewBox="0 0 32 32" fill="none" xmlns="http://www.w3.org/2000/svg">
<path d="M17.0288 8.01587C17.0288 7.46358 16.5811 7.01587 16.0288 7.01587C15.4765 7.01587 15.0288 7.46358 15.0288 8.01587V14.293C14.4387 14.638 14.0424 15.2783 14.0424 16.0112C14.0424 17.1096 14.9328 18 16.0312 18C16.7696 18 17.4141 17.5975 17.7572 17H22C22.5523 17 23 16.5523 23 16C23 15.4477 22.5523 15 22 15H17.7441C17.5706 14.7066 17.3237 14.4616 17.0288 14.2903V8.01587Z" fill="#212121"/>
<path d="M30 16C30 8.26801 23.732 2 16 2C8.26801 2 2 8.26801 2 16C2 23.732 8.26801 30 16 30C23.732 30 30 23.732 30 16ZM27 16C27 22.0751 22.0751 27 16 27C9.92487 27 5 22.0751 5 16C5 9.92487 9.92487 5 16 5C22.0751 5 27 9.92487 27 16Z" fill="#212121"/>
</svg>
