<svg xmlns="http://www.w3.org/2000/svg" width="32" height="32" fill="none"><path fill="#BEBEBE" d="m13.52 2.3-1.79.94.18.342-1.902 3.622L7.86 3.12l-1.79.94 2.796 5.317-1.857 3.535-.427-.812L5.56 3.61l-2.8.33 3.1 25.75 2.8-.34-.393-3.262 1.694-3.221 1.905 3.62-1.196 2.273 1.79.94.684-1.303 1.576-.827-.57-1.085 1.856-3.533 1.86 3.534-1.096 2.084 1.79.94.448-.852.022.042 1.79-.94-.67-1.274 1.903-3.62 1.634 3.106-.407 3.378 2.8.34 3.1-25.75-2.8-.33-1.044 8.665-.332.632-1.86-3.535L25.41 5.06l-1.78-.94-1.625 3.09-2.515-4.78-1.78.94.111.212-1.813 3.448L13.52 2.3Zm11.137 15.611-.545 4.527-.917-1.744 1.462-2.783ZM7.841 22.554l-.58-4.822 1.558 2.963-.978 1.859Zm16.022-7.476-1.81 3.444-1.86-3.536 1.81-3.446 1.86 3.538Zm-2.953 5.616-1.903 3.62-1.859-3.535 1.903-3.62 1.86 3.535Zm-6.044.089-1.858 3.532-1.904-3.62 1.858-3.532 1.904 3.62Zm3.045-5.79-1.903 3.618-1.904-3.62 1.904-3.618 1.903 3.62Zm2.955-5.618-1.813 3.445-1.903-3.619 1.813-3.446 1.903 3.62ZM8.148 15.077l1.858-3.533 1.813 3.448-1.858 3.532-1.813-3.447Zm3-5.704 1.904-3.62 1.813 3.448-1.903 3.62-1.813-3.448Z"/><path fill="#9B9B9B" d="M4 6h24c1.1 0 2-.9 2-2s-.9-2-2-2H4c-1.1 0-2 .9-2 2s.9 2 2 2ZM7 30h18c1.1 0 2-.9 2-2s-.9-2-2-2H7c-1.1 0-2 .9-2 2s.9 2 2 2Z"/></svg>