<svg width="32" height="32" viewBox="0 0 32 32" fill="none" xmlns="http://www.w3.org/2000/svg">
<path d="M4.21545 18.81C3.76785 19.2407 3.41648 19.7536 3.17678 20.315L3.15812 20.3206C2.95487 20.8361 2.84913 21.3377 2.8181 21.8147C2.81693 21.8325 2.81586 21.8502 2.81489 21.8681C2.80605 22.0305 2.80589 22.1927 2.81419 22.3538C2.87026 23.4602 3.31418 24.396 3.82103 25.0043C4.47716 25.7918 5.41966 26.365 6.656 26.4901C6.787 26.5051 6.91883 26.5143 7.05112 26.5176C7.23859 26.5223 7.42574 26.515 7.61147 26.4961C8.52183 26.4136 9.20137 26.0807 9.71935 25.7059C9.8938 25.5826 10.0594 25.4465 10.2148 25.2987C10.3105 25.2108 10.3987 25.1247 10.4805 25.043L10.4804 25.0347L15.7255 19.78C16.166 19.3361 16.5065 18.803 16.7238 18.2165C16.9411 17.63 16.9955 17.023 16.9955 16.4023V16.1368C16.9959 16.1009 16.9961 16.0647 16.9961 16.0282L16.9955 7.01821H17.0054V5.99371H16.9955V4.99463H17.0054V4.00708H16.9955V3.66334C16.9955 3.44581 16.9524 3.23043 16.8689 3.02959C16.7854 2.82875 16.6629 2.64641 16.5086 2.49306C16.3544 2.33971 16.1713 2.21838 15.97 2.13605C15.7686 2.05372 15.553 2.01202 15.3355 2.01334H9.65565C9.43467 2.01453 9.21618 2.0601 9.01314 2.14734C8.81011 2.23459 8.62667 2.36172 8.47371 2.52121C8.32075 2.6807 8.20138 2.86929 8.1227 3.07579C8.04401 3.2823 8.00761 3.5025 8.01565 3.72334V13.0017C8.01406 14.1574 7.70348 15.3236 6.88545 16.14L4.21545 18.81ZM13.0688 19.6105L9.80311 22.8822C9.47837 22.3122 9.01308 21.7124 8.35891 21.1655C7.58732 20.5205 6.62411 20.2317 5.71995 20.1339L8.2983 17.5556L8.29913 17.5548C9.62398 16.2319 10.0136 14.4682 10.0156 13.0045V7.01821H14.9955V16.0282H11.9897C11.7601 16.0282 11.6797 16.1523 11.6954 16.3047C11.6962 16.3128 11.6967 16.3311 11.6975 16.3586C11.7076 16.7133 11.7609 18.5897 13.0688 19.6105ZM10.0156 5.99371V4.99463H14.9955V5.99371H10.0156Z" fill="#212121"/>
<path d="M14.1679 24.2954C14.4076 23.734 14.7589 23.2211 15.2065 22.7904L17.8765 20.1204C18.6946 19.304 19.0052 18.1379 19.0067 16.9821V9.00781H18.9957V7.9953H19.0067V7.70374C18.9987 7.48291 19.0351 7.2627 19.1138 7.0562C19.1925 6.8497 19.3118 6.66111 19.4648 6.50162C19.6178 6.34213 19.8012 6.21499 20.0042 6.12775C20.2073 6.04051 20.4258 5.99494 20.6467 5.99374H26.3265C26.5441 5.99243 26.7597 6.03413 26.961 6.11646C27.1624 6.19879 27.3455 6.32012 27.4997 6.47347C27.654 6.62682 27.7764 6.80916 27.86 7.01C27.9435 7.21084 27.9865 7.42622 27.9865 7.64374V20.0086C27.9865 20.0608 27.987 20.1122 27.9865 20.1626V20.4062C27.9865 20.9996 27.9322 21.6104 27.7149 22.1969C27.4976 22.7834 27.1571 23.3165 26.7165 23.7604L21.4715 29.0151C21.4715 29.0179 21.4716 29.0206 21.4716 29.0234C21.3898 29.1051 21.3016 29.1912 21.2059 29.2791C21.0505 29.4269 20.8849 29.563 20.7104 29.6863C20.1925 30.0611 19.5129 30.394 18.6026 30.4765C18.4168 30.4955 18.2297 30.5027 18.0422 30.498C17.9099 30.4947 17.7781 30.4855 17.6471 30.4705C16.4108 30.3454 15.4683 29.7722 14.8121 28.9847C14.3053 28.3765 13.8614 27.4408 13.8053 26.3345C13.797 26.1733 13.7971 26.0111 13.806 25.8485C13.8069 25.8316 13.8079 25.8147 13.809 25.7979C13.8398 25.3201 13.9456 24.8175 14.1492 24.301C14.1553 24.2992 14.1616 24.2973 14.1679 24.2954ZM25.9865 10.9986H21.0067V16.9849C21.0047 18.4486 20.6151 20.2123 19.2902 21.5352L19.2894 21.536L16.711 24.1143C17.6152 24.2121 18.5784 24.5009 19.35 25.1459C20.0042 25.6928 20.4695 26.2926 20.7942 26.8626L24.0599 23.5909C22.752 22.5701 22.6986 20.6936 22.6886 20.339C22.6878 20.3115 22.6873 20.2932 22.6864 20.2851C22.6708 20.1328 22.7512 20.0086 22.9808 20.0086H25.9865V10.9986ZM25.9865 10.0078V9.00781H21.0067V10.0078H25.9865Z" fill="#212121"/>
</svg>
