<svg width="32" height="32" viewBox="0 0 32 32" fill="none" xmlns="http://www.w3.org/2000/svg">
<path d="M24.53 16.77C24.53 17.93 24.95 19.04 25.68 19.94C26.24 20.63 26.57 21.53 26.52 22.5C26.43 24.44 24.87 26.02 22.93 26.12C21.11 26.22 19.54 25.02 19.07 23.37H16C16.51 26.66 19.37 29.17 22.82 29.13C26.45 29.08 29.43 26.14 29.52 22.51C29.59 19.67 27.93 17.22 25.51 16.13C25.06 15.93 24.53 16.26 24.53 16.77Z" fill="url(#paint0_linear_28327_1801)"/>
<path d="M24.53 16.77C24.53 17.93 24.95 19.04 25.68 19.94C26.24 20.63 26.57 21.53 26.52 22.5C26.43 24.44 24.87 26.02 22.93 26.12C21.11 26.22 19.54 25.02 19.07 23.37H16C16.51 26.66 19.37 29.17 22.82 29.13C26.45 29.08 29.43 26.14 29.52 22.51C29.59 19.67 27.93 17.22 25.51 16.13C25.06 15.93 24.53 16.26 24.53 16.77Z" fill="url(#paint1_radial_28327_1801)"/>
<path d="M24.53 16.77C24.53 17.93 24.95 19.04 25.68 19.94C26.24 20.63 26.57 21.53 26.52 22.5C26.43 24.44 24.87 26.02 22.93 26.12C21.11 26.22 19.54 25.02 19.07 23.37H16C16.51 26.66 19.37 29.17 22.82 29.13C26.45 29.08 29.43 26.14 29.52 22.51C29.59 19.67 27.93 17.22 25.51 16.13C25.06 15.93 24.53 16.26 24.53 16.77Z" fill="url(#paint2_linear_28327_1801)"/>
<path d="M26.57 2.13989L23.65 10.0099C22.97 11.8899 21.16 13.1599 19.16 13.1599H13.53V14.6599H19.16C21.79 14.6599 24.16 12.9999 25.06 10.5299L28.17 2.13989H26.57Z" fill="url(#paint3_linear_28327_1801)"/>
<path d="M26.57 2.13989L23.65 10.0099C22.97 11.8899 21.16 13.1599 19.16 13.1599H13.53V14.6599H19.16C21.79 14.6599 24.16 12.9999 25.06 10.5299L28.17 2.13989H26.57Z" fill="url(#paint4_linear_28327_1801)"/>
<path d="M26.57 2.13989L23.65 10.0099C22.97 11.8899 21.16 13.1599 19.16 13.1599H13.53V14.6599H19.16C21.79 14.6599 24.16 12.9999 25.06 10.5299L28.17 2.13989H26.57Z" fill="url(#paint5_linear_28327_1801)"/>
<path d="M26.57 2.13989L23.65 10.0099C22.97 11.8899 21.16 13.1599 19.16 13.1599H13.53V14.6599H19.16C21.79 14.6599 24.16 12.9999 25.06 10.5299L28.17 2.13989H26.57Z" fill="url(#paint6_linear_28327_1801)"/>
<g filter="url(#filter0_i_28327_1801)">
<path d="M7.53 18.1399V23.9499C7.53 24.0899 7.51 24.2299 7.48 24.3599L5.83018 29.4867C5.72631 29.8095 5.96706 30.1399 6.30615 30.1399H8.62L10.33 24.8799C10.46 24.3999 10.53 23.8899 10.53 23.3899V18.1399H7.53Z" fill="url(#paint7_linear_28327_1801)"/>
<path d="M7.53 18.1399V23.9499C7.53 24.0899 7.51 24.2299 7.48 24.3599L5.83018 29.4867C5.72631 29.8095 5.96706 30.1399 6.30615 30.1399H8.62L10.33 24.8799C10.46 24.3999 10.53 23.8899 10.53 23.3899V18.1399H7.53Z" fill="url(#paint8_linear_28327_1801)"/>
</g>
<path d="M7.53 18.1399V23.9499C7.53 24.0899 7.51 24.2299 7.48 24.3599L5.83018 29.4867C5.72631 29.8095 5.96706 30.1399 6.30615 30.1399H8.62L10.33 24.8799C10.46 24.3999 10.53 23.8899 10.53 23.3899V18.1399H7.53Z" fill="url(#paint9_linear_28327_1801)"/>
<path d="M19.8 15.3L14.7243 12.2565C14.6038 12.1842 14.53 12.054 14.53 11.9134V7.11998C14.53 5.54998 13.71 4.06998 12.41 3.23998C12.03 2.99998 11.53 3.28998 11.53 3.73998L11.5537 5.63373C11.5572 5.91229 11.3323 6.13998 11.0537 6.13998H10.12C9.11 6.13998 8.17 6.64998 7.62 7.48998L6.81 8.71998C6.64 8.97998 6.35 9.13998 6.03 9.13998H3.24C2.84 9.13998 2.52 9.45998 2.52 9.85998V10.13C2.51 12.34 4.3 14.14 6.51 14.14H7.12C7.34 14.14 7.53 14.32 7.53 14.54L7.54 18.06C7.54 19.134 8.08945 20.0756 8.92444 20.6262C9.27214 20.8555 9.54 21.2158 9.54 21.6323V24.3C9.54 24.44 9.52 24.58 9.49 24.71L7.84826 29.4772C7.73645 29.8018 7.97764 30.14 8.32101 30.14H10.2652C10.4777 30.14 10.667 30.0056 10.7371 29.805L12.33 25.25C12.46 24.77 12.53 24.26 12.53 23.76V23.6623C12.53 23.4308 12.7812 23.2865 12.9812 23.4032L15.53 24.89V30.14H20.39C22.68 30.14 24.53 28.29 24.53 26V23.66C24.53 20.24 22.74 17.06 19.8 15.3Z" fill="url(#paint10_linear_28327_1801)"/>
<path d="M19.8 15.3L14.7243 12.2565C14.6038 12.1842 14.53 12.054 14.53 11.9134V7.11998C14.53 5.54998 13.71 4.06998 12.41 3.23998C12.03 2.99998 11.53 3.28998 11.53 3.73998L11.5537 5.63373C11.5572 5.91229 11.3323 6.13998 11.0537 6.13998H10.12C9.11 6.13998 8.17 6.64998 7.62 7.48998L6.81 8.71998C6.64 8.97998 6.35 9.13998 6.03 9.13998H3.24C2.84 9.13998 2.52 9.45998 2.52 9.85998V10.13C2.51 12.34 4.3 14.14 6.51 14.14H7.12C7.34 14.14 7.53 14.32 7.53 14.54L7.54 18.06C7.54 19.134 8.08945 20.0756 8.92444 20.6262C9.27214 20.8555 9.54 21.2158 9.54 21.6323V24.3C9.54 24.44 9.52 24.58 9.49 24.71L7.84826 29.4772C7.73645 29.8018 7.97764 30.14 8.32101 30.14H10.2652C10.4777 30.14 10.667 30.0056 10.7371 29.805L12.33 25.25C12.46 24.77 12.53 24.26 12.53 23.76V23.6623C12.53 23.4308 12.7812 23.2865 12.9812 23.4032L15.53 24.89V30.14H20.39C22.68 30.14 24.53 28.29 24.53 26V23.66C24.53 20.24 22.74 17.06 19.8 15.3Z" fill="url(#paint11_radial_28327_1801)"/>
<path d="M19.8 15.3L14.7243 12.2565C14.6038 12.1842 14.53 12.054 14.53 11.9134V7.11998C14.53 5.54998 13.71 4.06998 12.41 3.23998C12.03 2.99998 11.53 3.28998 11.53 3.73998L11.5537 5.63373C11.5572 5.91229 11.3323 6.13998 11.0537 6.13998H10.12C9.11 6.13998 8.17 6.64998 7.62 7.48998L6.81 8.71998C6.64 8.97998 6.35 9.13998 6.03 9.13998H3.24C2.84 9.13998 2.52 9.45998 2.52 9.85998V10.13C2.51 12.34 4.3 14.14 6.51 14.14H7.12C7.34 14.14 7.53 14.32 7.53 14.54L7.54 18.06C7.54 19.134 8.08945 20.0756 8.92444 20.6262C9.27214 20.8555 9.54 21.2158 9.54 21.6323V24.3C9.54 24.44 9.52 24.58 9.49 24.71L7.84826 29.4772C7.73645 29.8018 7.97764 30.14 8.32101 30.14H10.2652C10.4777 30.14 10.667 30.0056 10.7371 29.805L12.33 25.25C12.46 24.77 12.53 24.26 12.53 23.76V23.6623C12.53 23.4308 12.7812 23.2865 12.9812 23.4032L15.53 24.89V30.14H20.39C22.68 30.14 24.53 28.29 24.53 26V23.66C24.53 20.24 22.74 17.06 19.8 15.3Z" fill="url(#paint12_linear_28327_1801)"/>
<path d="M19.8 15.3L14.7243 12.2565C14.6038 12.1842 14.53 12.054 14.53 11.9134V7.11998C14.53 5.54998 13.71 4.06998 12.41 3.23998C12.03 2.99998 11.53 3.28998 11.53 3.73998L11.5537 5.63373C11.5572 5.91229 11.3323 6.13998 11.0537 6.13998H10.12C9.11 6.13998 8.17 6.64998 7.62 7.48998L6.81 8.71998C6.64 8.97998 6.35 9.13998 6.03 9.13998H3.24C2.84 9.13998 2.52 9.45998 2.52 9.85998V10.13C2.51 12.34 4.3 14.14 6.51 14.14H7.12C7.34 14.14 7.53 14.32 7.53 14.54L7.54 18.06C7.54 19.134 8.08945 20.0756 8.92444 20.6262C9.27214 20.8555 9.54 21.2158 9.54 21.6323V24.3C9.54 24.44 9.52 24.58 9.49 24.71L7.84826 29.4772C7.73645 29.8018 7.97764 30.14 8.32101 30.14H10.2652C10.4777 30.14 10.667 30.0056 10.7371 29.805L12.33 25.25C12.46 24.77 12.53 24.26 12.53 23.76V23.6623C12.53 23.4308 12.7812 23.2865 12.9812 23.4032L15.53 24.89V30.14H20.39C22.68 30.14 24.53 28.29 24.53 26V23.66C24.53 20.24 22.74 17.06 19.8 15.3Z" fill="url(#paint13_radial_28327_1801)"/>
<path d="M19.8 15.3L14.7243 12.2565C14.6038 12.1842 14.53 12.054 14.53 11.9134V7.11998C14.53 5.54998 13.71 4.06998 12.41 3.23998C12.03 2.99998 11.53 3.28998 11.53 3.73998L11.5537 5.63373C11.5572 5.91229 11.3323 6.13998 11.0537 6.13998H10.12C9.11 6.13998 8.17 6.64998 7.62 7.48998L6.81 8.71998C6.64 8.97998 6.35 9.13998 6.03 9.13998H3.24C2.84 9.13998 2.52 9.45998 2.52 9.85998V10.13C2.51 12.34 4.3 14.14 6.51 14.14H7.12C7.34 14.14 7.53 14.32 7.53 14.54L7.54 18.06C7.54 19.134 8.08945 20.0756 8.92444 20.6262C9.27214 20.8555 9.54 21.2158 9.54 21.6323V24.3C9.54 24.44 9.52 24.58 9.49 24.71L7.84826 29.4772C7.73645 29.8018 7.97764 30.14 8.32101 30.14H10.2652C10.4777 30.14 10.667 30.0056 10.7371 29.805L12.33 25.25C12.46 24.77 12.53 24.26 12.53 23.76V23.6623C12.53 23.4308 12.7812 23.2865 12.9812 23.4032L15.53 24.89V30.14H20.39C22.68 30.14 24.53 28.29 24.53 26V23.66C24.53 20.24 22.74 17.06 19.8 15.3Z" fill="url(#paint14_radial_28327_1801)"/>
<path d="M19.8 15.3L14.7243 12.2565C14.6038 12.1842 14.53 12.054 14.53 11.9134V7.11998C14.53 5.54998 13.71 4.06998 12.41 3.23998C12.03 2.99998 11.53 3.28998 11.53 3.73998L11.5537 5.63373C11.5572 5.91229 11.3323 6.13998 11.0537 6.13998H10.12C9.11 6.13998 8.17 6.64998 7.62 7.48998L6.81 8.71998C6.64 8.97998 6.35 9.13998 6.03 9.13998H3.24C2.84 9.13998 2.52 9.45998 2.52 9.85998V10.13C2.51 12.34 4.3 14.14 6.51 14.14H7.12C7.34 14.14 7.53 14.32 7.53 14.54L7.54 18.06C7.54 19.134 8.08945 20.0756 8.92444 20.6262C9.27214 20.8555 9.54 21.2158 9.54 21.6323V24.3C9.54 24.44 9.52 24.58 9.49 24.71L7.84826 29.4772C7.73645 29.8018 7.97764 30.14 8.32101 30.14H10.2652C10.4777 30.14 10.667 30.0056 10.7371 29.805L12.33 25.25C12.46 24.77 12.53 24.26 12.53 23.76V23.6623C12.53 23.4308 12.7812 23.2865 12.9812 23.4032L15.53 24.89V30.14H20.39C22.68 30.14 24.53 28.29 24.53 26V23.66C24.53 20.24 22.74 17.06 19.8 15.3Z" fill="url(#paint15_linear_28327_1801)"/>
<path d="M19.8 15.3L14.7243 12.2565C14.6038 12.1842 14.53 12.054 14.53 11.9134V7.11998C14.53 5.54998 13.71 4.06998 12.41 3.23998C12.03 2.99998 11.53 3.28998 11.53 3.73998L11.5537 5.63373C11.5572 5.91229 11.3323 6.13998 11.0537 6.13998H10.12C9.11 6.13998 8.17 6.64998 7.62 7.48998L6.81 8.71998C6.64 8.97998 6.35 9.13998 6.03 9.13998H3.24C2.84 9.13998 2.52 9.45998 2.52 9.85998V10.13C2.51 12.34 4.3 14.14 6.51 14.14H7.12C7.34 14.14 7.53 14.32 7.53 14.54L7.54 18.06C7.54 19.134 8.08945 20.0756 8.92444 20.6262C9.27214 20.8555 9.54 21.2158 9.54 21.6323V24.3C9.54 24.44 9.52 24.58 9.49 24.71L7.84826 29.4772C7.73645 29.8018 7.97764 30.14 8.32101 30.14H10.2652C10.4777 30.14 10.667 30.0056 10.7371 29.805L12.33 25.25C12.46 24.77 12.53 24.26 12.53 23.76V23.6623C12.53 23.4308 12.7812 23.2865 12.9812 23.4032L15.53 24.89V30.14H20.39C22.68 30.14 24.53 28.29 24.53 26V23.66C24.53 20.24 22.74 17.06 19.8 15.3Z" fill="url(#paint16_linear_28327_1801)"/>
<path d="M19.8 15.3L14.7243 12.2565C14.6038 12.1842 14.53 12.054 14.53 11.9134V7.11998C14.53 5.54998 13.71 4.06998 12.41 3.23998C12.03 2.99998 11.53 3.28998 11.53 3.73998L11.5537 5.63373C11.5572 5.91229 11.3323 6.13998 11.0537 6.13998H10.12C9.11 6.13998 8.17 6.64998 7.62 7.48998L6.81 8.71998C6.64 8.97998 6.35 9.13998 6.03 9.13998H3.24C2.84 9.13998 2.52 9.45998 2.52 9.85998V10.13C2.51 12.34 4.3 14.14 6.51 14.14H7.12C7.34 14.14 7.53 14.32 7.53 14.54L7.54 18.06C7.54 19.134 8.08945 20.0756 8.92444 20.6262C9.27214 20.8555 9.54 21.2158 9.54 21.6323V24.3C9.54 24.44 9.52 24.58 9.49 24.71L7.84826 29.4772C7.73645 29.8018 7.97764 30.14 8.32101 30.14H10.2652C10.4777 30.14 10.667 30.0056 10.7371 29.805L12.33 25.25C12.46 24.77 12.53 24.26 12.53 23.76V23.6623C12.53 23.4308 12.7812 23.2865 12.9812 23.4032L15.53 24.89V30.14H20.39C22.68 30.14 24.53 28.29 24.53 26V23.66C24.53 20.24 22.74 17.06 19.8 15.3Z" fill="url(#paint17_radial_28327_1801)"/>
<path d="M19.8 15.3L14.7243 12.2565C14.6038 12.1842 14.53 12.054 14.53 11.9134V7.11998C14.53 5.54998 13.71 4.06998 12.41 3.23998C12.03 2.99998 11.53 3.28998 11.53 3.73998L11.5537 5.63373C11.5572 5.91229 11.3323 6.13998 11.0537 6.13998H10.12C9.11 6.13998 8.17 6.64998 7.62 7.48998L6.81 8.71998C6.64 8.97998 6.35 9.13998 6.03 9.13998H3.24C2.84 9.13998 2.52 9.45998 2.52 9.85998V10.13C2.51 12.34 4.3 14.14 6.51 14.14H7.12C7.34 14.14 7.53 14.32 7.53 14.54L7.54 18.06C7.54 19.134 8.08945 20.0756 8.92444 20.6262C9.27214 20.8555 9.54 21.2158 9.54 21.6323V24.3C9.54 24.44 9.52 24.58 9.49 24.71L7.84826 29.4772C7.73645 29.8018 7.97764 30.14 8.32101 30.14H10.2652C10.4777 30.14 10.667 30.0056 10.7371 29.805L12.33 25.25C12.46 24.77 12.53 24.26 12.53 23.76V23.6623C12.53 23.4308 12.7812 23.2865 12.9812 23.4032L15.53 24.89V30.14H20.39C22.68 30.14 24.53 28.29 24.53 26V23.66C24.53 20.24 22.74 17.06 19.8 15.3Z" fill="url(#paint18_radial_28327_1801)"/>
<path d="M19.8 15.3L14.7243 12.2565C14.6038 12.1842 14.53 12.054 14.53 11.9134V7.11998C14.53 5.54998 13.71 4.06998 12.41 3.23998C12.03 2.99998 11.53 3.28998 11.53 3.73998L11.5537 5.63373C11.5572 5.91229 11.3323 6.13998 11.0537 6.13998H10.12C9.11 6.13998 8.17 6.64998 7.62 7.48998L6.81 8.71998C6.64 8.97998 6.35 9.13998 6.03 9.13998H3.24C2.84 9.13998 2.52 9.45998 2.52 9.85998V10.13C2.51 12.34 4.3 14.14 6.51 14.14H7.12C7.34 14.14 7.53 14.32 7.53 14.54L7.54 18.06C7.54 19.134 8.08945 20.0756 8.92444 20.6262C9.27214 20.8555 9.54 21.2158 9.54 21.6323V24.3C9.54 24.44 9.52 24.58 9.49 24.71L7.84826 29.4772C7.73645 29.8018 7.97764 30.14 8.32101 30.14H10.2652C10.4777 30.14 10.667 30.0056 10.7371 29.805L12.33 25.25C12.46 24.77 12.53 24.26 12.53 23.76V23.6623C12.53 23.4308 12.7812 23.2865 12.9812 23.4032L15.53 24.89V30.14H20.39C22.68 30.14 24.53 28.29 24.53 26V23.66C24.53 20.24 22.74 17.06 19.8 15.3Z" fill="url(#paint19_radial_28327_1801)"/>
<path d="M19.8 15.3L14.7243 12.2565C14.6038 12.1842 14.53 12.054 14.53 11.9134V7.11998C14.53 5.54998 13.71 4.06998 12.41 3.23998C12.03 2.99998 11.53 3.28998 11.53 3.73998L11.5537 5.63373C11.5572 5.91229 11.3323 6.13998 11.0537 6.13998H10.12C9.11 6.13998 8.17 6.64998 7.62 7.48998L6.81 8.71998C6.64 8.97998 6.35 9.13998 6.03 9.13998H3.24C2.84 9.13998 2.52 9.45998 2.52 9.85998V10.13C2.51 12.34 4.3 14.14 6.51 14.14H7.12C7.34 14.14 7.53 14.32 7.53 14.54L7.54 18.06C7.54 19.134 8.08945 20.0756 8.92444 20.6262C9.27214 20.8555 9.54 21.2158 9.54 21.6323V24.3C9.54 24.44 9.52 24.58 9.49 24.71L7.84826 29.4772C7.73645 29.8018 7.97764 30.14 8.32101 30.14H10.2652C10.4777 30.14 10.667 30.0056 10.7371 29.805L12.33 25.25C12.46 24.77 12.53 24.26 12.53 23.76V23.6623C12.53 23.4308 12.7812 23.2865 12.9812 23.4032L15.53 24.89V30.14H20.39C22.68 30.14 24.53 28.29 24.53 26V23.66C24.53 20.24 22.74 17.06 19.8 15.3Z" fill="url(#paint20_radial_28327_1801)"/>
<path d="M19.8 15.3L14.7243 12.2565C14.6038 12.1842 14.53 12.054 14.53 11.9134V7.11998C14.53 5.54998 13.71 4.06998 12.41 3.23998C12.03 2.99998 11.53 3.28998 11.53 3.73998L11.5537 5.63373C11.5572 5.91229 11.3323 6.13998 11.0537 6.13998H10.12C9.11 6.13998 8.17 6.64998 7.62 7.48998L6.81 8.71998C6.64 8.97998 6.35 9.13998 6.03 9.13998H3.24C2.84 9.13998 2.52 9.45998 2.52 9.85998V10.13C2.51 12.34 4.3 14.14 6.51 14.14H7.12C7.34 14.14 7.53 14.32 7.53 14.54L7.54 18.06C7.54 19.134 8.08945 20.0756 8.92444 20.6262C9.27214 20.8555 9.54 21.2158 9.54 21.6323V24.3C9.54 24.44 9.52 24.58 9.49 24.71L7.84826 29.4772C7.73645 29.8018 7.97764 30.14 8.32101 30.14H10.2652C10.4777 30.14 10.667 30.0056 10.7371 29.805L12.33 25.25C12.46 24.77 12.53 24.26 12.53 23.76V23.6623C12.53 23.4308 12.7812 23.2865 12.9812 23.4032L15.53 24.89V30.14H20.39C22.68 30.14 24.53 28.29 24.53 26V23.66C24.53 20.24 22.74 17.06 19.8 15.3Z" fill="url(#paint21_radial_28327_1801)"/>
<g filter="url(#filter1_f_28327_1801)">
<path d="M13.9731 12.5662V14.4724L15.3169 14.6599V13.3162L13.9731 12.5662Z" fill="#D98126"/>
</g>
<g filter="url(#filter2_f_28327_1801)">
<rect x="12.53" y="7.11499" width="1.60523" height="9.3125" fill="url(#paint22_linear_28327_1801)"/>
</g>
<path d="M19.03 23.1399H17.37C15.25 23.1399 13.53 24.8599 13.53 26.9799V28.1399C12.6007 28.1399 11.814 28.7823 11.5924 29.6451C11.5237 29.9125 11.7539 30.1399 12.03 30.1399H17.53H19.03C20.96 30.1399 22.53 28.5699 22.53 26.6399C22.53 24.7099 20.97 23.1399 19.03 23.1399Z" fill="url(#paint23_linear_28327_1801)"/>
<path d="M19.03 23.1399H17.37C15.25 23.1399 13.53 24.8599 13.53 26.9799V28.1399C12.6007 28.1399 11.814 28.7823 11.5924 29.6451C11.5237 29.9125 11.7539 30.1399 12.03 30.1399H17.53H19.03C20.96 30.1399 22.53 28.5699 22.53 26.6399C22.53 24.7099 20.97 23.1399 19.03 23.1399Z" fill="url(#paint24_radial_28327_1801)"/>
<path d="M19.03 23.1399H17.37C15.25 23.1399 13.53 24.8599 13.53 26.9799V28.1399C12.6007 28.1399 11.814 28.7823 11.5924 29.6451C11.5237 29.9125 11.7539 30.1399 12.03 30.1399H17.53H19.03C20.96 30.1399 22.53 28.5699 22.53 26.6399C22.53 24.7099 20.97 23.1399 19.03 23.1399Z" fill="url(#paint25_radial_28327_1801)"/>
<path d="M19.03 23.1399H17.37C15.25 23.1399 13.53 24.8599 13.53 26.9799V28.1399C12.6007 28.1399 11.814 28.7823 11.5924 29.6451C11.5237 29.9125 11.7539 30.1399 12.03 30.1399H17.53H19.03C20.96 30.1399 22.53 28.5699 22.53 26.6399C22.53 24.7099 20.97 23.1399 19.03 23.1399Z" fill="url(#paint26_linear_28327_1801)"/>
<path d="M19.03 23.1399H17.37C15.25 23.1399 13.53 24.8599 13.53 26.9799V28.1399C12.6007 28.1399 11.814 28.7823 11.5924 29.6451C11.5237 29.9125 11.7539 30.1399 12.03 30.1399H17.53H19.03C20.96 30.1399 22.53 28.5699 22.53 26.6399C22.53 24.7099 20.97 23.1399 19.03 23.1399Z" fill="url(#paint27_radial_28327_1801)"/>
<path d="M12.53 16.1399H7.55283C7.46999 16.1399 7.40283 16.207 7.40283 16.2899C7.40283 16.8566 7.40283 17.4232 7.40283 17.9899C7.40283 18.0727 7.46999 18.1399 7.55283 18.1399H12.53V16.1399Z" fill="url(#paint28_linear_28327_1801)"/>
<path d="M12.53 16.1399H7.55283C7.46999 16.1399 7.40283 16.207 7.40283 16.2899C7.40283 16.8566 7.40283 17.4232 7.40283 17.9899C7.40283 18.0727 7.46999 18.1399 7.55283 18.1399H12.53V16.1399Z" fill="url(#paint29_linear_28327_1801)"/>
<path d="M12.53 16.1399H7.55283C7.46999 16.1399 7.40283 16.207 7.40283 16.2899C7.40283 16.8566 7.40283 17.4232 7.40283 17.9899C7.40283 18.0727 7.46999 18.1399 7.55283 18.1399H12.53V16.1399Z" fill="url(#paint30_linear_28327_1801)"/>
<path d="M19.8 15.2999L14.8329 12.3215C14.6996 12.2416 14.53 12.3376 14.53 12.493V13.8299C14.53 13.9999 14.39 14.1399 14.22 14.1399H13.47C12.95 14.1399 12.53 14.5599 12.53 15.0799V19.1999C12.53 19.7199 12.95 20.1399 13.47 20.1399H14.22C14.39 20.1399 14.53 20.2799 14.53 20.4499V21.1999C14.53 21.7199 14.95 22.1399 15.47 22.1399H24.1764C24.2992 22.1399 24.3931 22.0303 24.3712 21.9095C23.8782 19.183 22.2317 16.7589 19.8 15.2999Z" fill="url(#paint31_radial_28327_1801)"/>
<path d="M19.8 15.2999L19.53 15.1399V22.1399H20.53V15.7899C20.3 15.6099 20.05 15.4499 19.8 15.2999Z" fill="#636363"/>
<path d="M19.8 15.2999L19.53 15.1399V22.1399H20.53V15.7899C20.3 15.6099 20.05 15.4499 19.8 15.2999Z" fill="url(#paint32_radial_28327_1801)"/>
<path d="M15.5339 21.1672L15.53 20.4722C15.53 19.7522 14.94 19.1622 14.22 19.1622H13.53V15.1399H14.22C14.94 15.1399 15.53 14.5499 15.53 13.8299V12.7399L14.8329 12.3216C14.6996 12.2416 14.53 12.3377 14.53 12.4931V13.8299C14.53 13.8699 14.52 13.9099 14.51 13.9499C14.48 14.0199 14.42 14.0799 14.34 14.1199C14.3 14.1299 14.26 14.1399 14.22 14.1399H13.47C13.15 14.1399 12.86 14.2999 12.69 14.5499C12.59 14.6999 12.53 14.8799 12.53 15.0699V19.2122C12.53 19.4022 12.59 19.5822 12.69 19.7322C12.86 19.9822 13.14 20.1422 13.47 20.1422H14.22C14.26 20.1422 14.3 20.1522 14.34 20.1622C14.41 20.1922 14.47 20.2522 14.51 20.3322C14.53 20.3722 14.53 20.4122 14.53 20.4522L14.5339 21.2072C14.5339 21.3972 14.5939 21.5772 14.6939 21.7272C14.8639 21.9772 15.1439 22.1372 15.4739 22.1372H24.1824C24.3044 22.1372 24.3982 22.0288 24.3771 21.9086C24.3313 21.6484 24.2736 21.3928 24.2039 21.1372H15.5339V21.1672Z" fill="#636363"/>
<path d="M15.5339 21.1672L15.53 20.4722C15.53 19.7522 14.94 19.1622 14.22 19.1622H13.53V15.1399H14.22C14.94 15.1399 15.53 14.5499 15.53 13.8299V12.7399L14.8329 12.3216C14.6996 12.2416 14.53 12.3377 14.53 12.4931V13.8299C14.53 13.8699 14.52 13.9099 14.51 13.9499C14.48 14.0199 14.42 14.0799 14.34 14.1199C14.3 14.1299 14.26 14.1399 14.22 14.1399H13.47C13.15 14.1399 12.86 14.2999 12.69 14.5499C12.59 14.6999 12.53 14.8799 12.53 15.0699V19.2122C12.53 19.4022 12.59 19.5822 12.69 19.7322C12.86 19.9822 13.14 20.1422 13.47 20.1422H14.22C14.26 20.1422 14.3 20.1522 14.34 20.1622C14.41 20.1922 14.47 20.2522 14.51 20.3322C14.53 20.3722 14.53 20.4122 14.53 20.4522L14.5339 21.2072C14.5339 21.3972 14.5939 21.5772 14.6939 21.7272C14.8639 21.9772 15.1439 22.1372 15.4739 22.1372H24.1824C24.3044 22.1372 24.3982 22.0288 24.3771 21.9086C24.3313 21.6484 24.2736 21.3928 24.2039 21.1372H15.5339V21.1672Z" fill="url(#paint33_linear_28327_1801)"/>
<path d="M15.5339 21.1672L15.53 20.4722C15.53 19.7522 14.94 19.1622 14.22 19.1622H13.53V15.1399H14.22C14.94 15.1399 15.53 14.5499 15.53 13.8299V12.7399L14.8329 12.3216C14.6996 12.2416 14.53 12.3377 14.53 12.4931V13.8299C14.53 13.8699 14.52 13.9099 14.51 13.9499C14.48 14.0199 14.42 14.0799 14.34 14.1199C14.3 14.1299 14.26 14.1399 14.22 14.1399H13.47C13.15 14.1399 12.86 14.2999 12.69 14.5499C12.59 14.6999 12.53 14.8799 12.53 15.0699V19.2122C12.53 19.4022 12.59 19.5822 12.69 19.7322C12.86 19.9822 13.14 20.1422 13.47 20.1422H14.22C14.26 20.1422 14.3 20.1522 14.34 20.1622C14.41 20.1922 14.47 20.2522 14.51 20.3322C14.53 20.3722 14.53 20.4122 14.53 20.4522L14.5339 21.2072C14.5339 21.3972 14.5939 21.5772 14.6939 21.7272C14.8639 21.9772 15.1439 22.1372 15.4739 22.1372H24.1824C24.3044 22.1372 24.3982 22.0288 24.3771 21.9086C24.3313 21.6484 24.2736 21.3928 24.2039 21.1372H15.5339V21.1672Z" fill="url(#paint34_linear_28327_1801)"/>
<path d="M15.5339 21.1672L15.53 20.4722C15.53 19.7522 14.94 19.1622 14.22 19.1622H13.53V15.1399H14.22C14.94 15.1399 15.53 14.5499 15.53 13.8299V12.7399L14.8329 12.3216C14.6996 12.2416 14.53 12.3377 14.53 12.4931V13.8299C14.53 13.8699 14.52 13.9099 14.51 13.9499C14.48 14.0199 14.42 14.0799 14.34 14.1199C14.3 14.1299 14.26 14.1399 14.22 14.1399H13.47C13.15 14.1399 12.86 14.2999 12.69 14.5499C12.59 14.6999 12.53 14.8799 12.53 15.0699V19.2122C12.53 19.4022 12.59 19.5822 12.69 19.7322C12.86 19.9822 13.14 20.1422 13.47 20.1422H14.22C14.26 20.1422 14.3 20.1522 14.34 20.1622C14.41 20.1922 14.47 20.2522 14.51 20.3322C14.53 20.3722 14.53 20.4122 14.53 20.4522L14.5339 21.2072C14.5339 21.3972 14.5939 21.5772 14.6939 21.7272C14.8639 21.9772 15.1439 22.1372 15.4739 22.1372H24.1824C24.3044 22.1372 24.3982 22.0288 24.3771 21.9086C24.3313 21.6484 24.2736 21.3928 24.2039 21.1372H15.5339V21.1672Z" fill="url(#paint35_radial_28327_1801)"/>
<path d="M15.5339 21.1672L15.53 20.4722C15.53 19.7522 14.94 19.1622 14.22 19.1622H13.53V15.1399H14.22C14.94 15.1399 15.53 14.5499 15.53 13.8299V12.7399L14.8329 12.3216C14.6996 12.2416 14.53 12.3377 14.53 12.4931V13.8299C14.53 13.8699 14.52 13.9099 14.51 13.9499C14.48 14.0199 14.42 14.0799 14.34 14.1199C14.3 14.1299 14.26 14.1399 14.22 14.1399H13.47C13.15 14.1399 12.86 14.2999 12.69 14.5499C12.59 14.6999 12.53 14.8799 12.53 15.0699V19.2122C12.53 19.4022 12.59 19.5822 12.69 19.7322C12.86 19.9822 13.14 20.1422 13.47 20.1422H14.22C14.26 20.1422 14.3 20.1522 14.34 20.1622C14.41 20.1922 14.47 20.2522 14.51 20.3322C14.53 20.3722 14.53 20.4122 14.53 20.4522L14.5339 21.2072C14.5339 21.3972 14.5939 21.5772 14.6939 21.7272C14.8639 21.9772 15.1439 22.1372 15.4739 22.1372H24.1824C24.3044 22.1372 24.3982 22.0288 24.3771 21.9086C24.3313 21.6484 24.2736 21.3928 24.2039 21.1372H15.5339V21.1672Z" fill="url(#paint36_radial_28327_1801)"/>
<path d="M16.03 18.28C16.6596 18.28 17.17 17.7696 17.17 17.14C17.17 16.5104 16.6596 16 16.03 16C15.4004 16 14.89 16.5104 14.89 17.14C14.89 17.7696 15.4004 18.28 16.03 18.28Z" fill="#FF939C"/>
<path d="M6.53 10.2099C6.53 9.61989 6.05 9.13989 5.47 9.13989H3.23C2.84 9.14989 2.52 9.45989 2.52 9.85989V10.1299C2.51 12.3399 4.3 14.1399 6.51 14.1399H6.53V10.2099Z" fill="url(#paint37_linear_28327_1801)"/>
<path d="M6.53 10.2099C6.53 9.61989 6.05 9.13989 5.47 9.13989H3.23C2.84 9.14989 2.52 9.45989 2.52 9.85989V10.1299C2.51 12.3399 4.3 14.1399 6.51 14.1399H6.53V10.2099Z" fill="url(#paint38_radial_28327_1801)"/>
<path d="M3.77002 10.6399H3.27002C2.86002 10.6399 2.52002 10.2999 2.52002 9.88989C2.52002 9.47989 2.86002 9.13989 3.27002 9.13989H3.77002C4.19002 9.13989 4.52002 9.47989 4.52002 9.88989C4.52002 10.2999 4.19002 10.6399 3.77002 10.6399Z" fill="url(#paint39_linear_28327_1801)"/>
<path d="M3.77002 10.6399H3.27002C2.86002 10.6399 2.52002 10.2999 2.52002 9.88989C2.52002 9.47989 2.86002 9.13989 3.27002 9.13989H3.77002C4.19002 9.13989 4.52002 9.47989 4.52002 9.88989C4.52002 10.2999 4.19002 10.6399 3.77002 10.6399Z" fill="url(#paint40_linear_28327_1801)"/>
<rect x="8.52002" y="9.13989" width="1" height="2" rx="0.5" fill="url(#paint41_linear_28327_1801)"/>
<rect x="8.52002" y="9.13989" width="1" height="2" rx="0.5" fill="url(#paint42_linear_28327_1801)"/>
<g filter="url(#filter3_f_28327_1801)">
<path d="M25.9435 17.1831C26.6902 17.6337 28.2454 19.0448 28.4926 21.0841C28.8016 23.6332 27.9519 25.8734 25.6731 27.148" stroke="url(#paint43_linear_28327_1801)" stroke-width="0.3" stroke-linecap="round"/>
</g>
<g filter="url(#filter4_f_28327_1801)">
<path d="M12.3794 3.72437C12.8528 3.85663 13.9817 4.97904 14.1079 7.39156C14.1183 7.59122 14.1274 9.87387 14.1353 10.0525H13.0669C13.0669 5.72437 12.3794 3.72437 12.3794 3.72437Z" fill="url(#paint44_linear_28327_1801)"/>
</g>
<g filter="url(#filter5_f_28327_1801)">
<ellipse cx="20.2041" cy="25.9586" rx="1.88381" ry="2.383" transform="rotate(-37.5193 20.2041 25.9586)" fill="url(#paint45_radial_28327_1801)"/>
</g>
<defs>
<filter id="filter0_i_28327_1801" x="5.80579" y="17.8899" width="4.97418" height="12.25" filterUnits="userSpaceOnUse" color-interpolation-filters="sRGB">
<feFlood flood-opacity="0" result="BackgroundImageFix"/>
<feBlend mode="normal" in="SourceGraphic" in2="BackgroundImageFix" result="shape"/>
<feColorMatrix in="SourceAlpha" type="matrix" values="0 0 0 0 0 0 0 0 0 0 0 0 0 0 0 0 0 0 127 0" result="hardAlpha"/>
<feOffset dx="0.25" dy="-0.25"/>
<feGaussianBlur stdDeviation="0.125"/>
<feComposite in2="hardAlpha" operator="arithmetic" k2="-1" k3="1"/>
<feColorMatrix type="matrix" values="0 0 0 0 0.854167 0 0 0 0 0.599194 0 0 0 0 0.40217 0 0 0 0.5 0"/>
<feBlend mode="normal" in2="shape" result="effect1_innerShadow_28327_1801"/>
</filter>
<filter id="filter1_f_28327_1801" x="12.9731" y="11.5662" width="3.34375" height="4.09375" filterUnits="userSpaceOnUse" color-interpolation-filters="sRGB">
<feFlood flood-opacity="0" result="BackgroundImageFix"/>
<feBlend mode="normal" in="SourceGraphic" in2="BackgroundImageFix" result="shape"/>
<feGaussianBlur stdDeviation="0.5" result="effect1_foregroundBlur_28327_1801"/>
</filter>
<filter id="filter2_f_28327_1801" x="11.53" y="6.11499" width="3.60522" height="11.3125" filterUnits="userSpaceOnUse" color-interpolation-filters="sRGB">
<feFlood flood-opacity="0" result="BackgroundImageFix"/>
<feBlend mode="normal" in="SourceGraphic" in2="BackgroundImageFix" result="shape"/>
<feGaussianBlur stdDeviation="0.5" result="effect1_foregroundBlur_28327_1801"/>
</filter>
<filter id="filter3_f_28327_1801" x="24.5231" y="16.0332" width="5.1806" height="12.2649" filterUnits="userSpaceOnUse" color-interpolation-filters="sRGB">
<feFlood flood-opacity="0" result="BackgroundImageFix"/>
<feBlend mode="normal" in="SourceGraphic" in2="BackgroundImageFix" result="shape"/>
<feGaussianBlur stdDeviation="0.5" result="effect1_foregroundBlur_28327_1801"/>
</filter>
<filter id="filter4_f_28327_1801" x="11.9794" y="3.32437" width="2.55586" height="7.12813" filterUnits="userSpaceOnUse" color-interpolation-filters="sRGB">
<feFlood flood-opacity="0" result="BackgroundImageFix"/>
<feBlend mode="normal" in="SourceGraphic" in2="BackgroundImageFix" result="shape"/>
<feGaussianBlur stdDeviation="0.2" result="effect1_foregroundBlur_28327_1801"/>
</filter>
<filter id="filter5_f_28327_1801" x="17.1212" y="22.7473" width="6.16595" height="6.42261" filterUnits="userSpaceOnUse" color-interpolation-filters="sRGB">
<feFlood flood-opacity="0" result="BackgroundImageFix"/>
<feBlend mode="normal" in="SourceGraphic" in2="BackgroundImageFix" result="shape"/>
<feGaussianBlur stdDeviation="0.5" result="effect1_foregroundBlur_28327_1801"/>
</filter>
<linearGradient id="paint0_linear_28327_1801" x1="22.3325" y1="28.7399" x2="27.8325" y2="21.2399" gradientUnits="userSpaceOnUse">
<stop stop-color="#63332A"/>
<stop offset="1" stop-color="#9C634D"/>
</linearGradient>
<radialGradient id="paint1_radial_28327_1801" cx="0" cy="0" r="1" gradientUnits="userSpaceOnUse" gradientTransform="translate(25.0825 22.6006) rotate(6.42878) scale(2.5001 7.35137)">
<stop stop-color="#914135"/>
<stop offset="1" stop-color="#914135" stop-opacity="0"/>
</radialGradient>
<linearGradient id="paint2_linear_28327_1801" x1="31.8529" y1="29.1305" x2="27.4112" y2="22.3586" gradientUnits="userSpaceOnUse">
<stop stop-color="#793875"/>
<stop offset="1" stop-color="#793875" stop-opacity="0"/>
</linearGradient>
<linearGradient id="paint3_linear_28327_1801" x1="24.8325" y1="9.05233" x2="24.145" y2="8.83358" gradientUnits="userSpaceOnUse">
<stop stop-color="#229BFF"/>
<stop offset="1" stop-color="#1E6CA5"/>
</linearGradient>
<linearGradient id="paint4_linear_28327_1801" x1="22.1763" y1="13.8883" x2="29.0513" y2="13.8883" gradientUnits="userSpaceOnUse">
<stop stop-color="#01A6F0"/>
<stop offset="1" stop-color="#01A6F0" stop-opacity="0"/>
</linearGradient>
<linearGradient id="paint5_linear_28327_1801" x1="21.2075" y1="14.9898" x2="21.2075" y2="12.9742" gradientUnits="userSpaceOnUse">
<stop stop-color="#1E6CA5"/>
<stop offset="0.651163" stop-color="#1E6CA5" stop-opacity="0"/>
</linearGradient>
<linearGradient id="paint6_linear_28327_1801" x1="26.645" y1="7.67733" x2="25.7075" y2="7.36483" gradientUnits="userSpaceOnUse">
<stop stop-color="#75C6FF"/>
<stop offset="1" stop-color="#53B7FF" stop-opacity="0"/>
</linearGradient>
<linearGradient id="paint7_linear_28327_1801" x1="6.95749" y1="24.8648" x2="10.27" y2="23.3961" gradientUnits="userSpaceOnUse">
<stop stop-color="#D29169"/>
<stop offset="1" stop-color="#CD6A3D"/>
</linearGradient>
<linearGradient id="paint8_linear_28327_1801" x1="8.51999" y1="24.9273" x2="10.53" y2="25.8023" gradientUnits="userSpaceOnUse">
<stop stop-color="#CD6A3D" stop-opacity="0"/>
<stop offset="1" stop-color="#CD6A3D"/>
</linearGradient>
<linearGradient id="paint9_linear_28327_1801" x1="8.075" y1="30.8565" x2="8.075" y2="29.2086" gradientUnits="userSpaceOnUse">
<stop stop-color="#EF74E3"/>
<stop offset="1" stop-color="#EB8D98" stop-opacity="0"/>
</linearGradient>
<linearGradient id="paint10_linear_28327_1801" x1="18.5825" y1="18.9899" x2="9.645" y2="30.14" gradientUnits="userSpaceOnUse">
<stop offset="0.288499" stop-color="#EEAD71"/>
<stop offset="1" stop-color="#D38C84"/>
</linearGradient>
<radialGradient id="paint11_radial_28327_1801" cx="0" cy="0" r="1" gradientUnits="userSpaceOnUse" gradientTransform="translate(13.0825 15.5524) rotate(58.1495) scale(17.1734 29.466)">
<stop offset="0.77868" stop-color="#EF9766" stop-opacity="0"/>
<stop offset="1" stop-color="#EF9766"/>
</radialGradient>
<linearGradient id="paint12_linear_28327_1801" x1="13.525" y1="30.8024" x2="13.525" y2="29.7087" gradientUnits="userSpaceOnUse">
<stop stop-color="#EF74E3"/>
<stop offset="1" stop-color="#EB8D98" stop-opacity="0"/>
</linearGradient>
<radialGradient id="paint13_radial_28327_1801" cx="0" cy="0" r="1" gradientUnits="userSpaceOnUse" gradientTransform="translate(16.145 25.0524) rotate(-121.947) scale(6.55543 5.24434)">
<stop stop-color="#C67040"/>
<stop offset="1" stop-color="#C67040" stop-opacity="0"/>
</radialGradient>
<radialGradient id="paint14_radial_28327_1801" cx="0" cy="0" r="1" gradientUnits="userSpaceOnUse" gradientTransform="translate(10.6919 4.73991) rotate(52.125) scale(2.49413 1.80567)">
<stop stop-color="#E07B42"/>
<stop offset="1" stop-color="#E07B42" stop-opacity="0"/>
</radialGradient>
<linearGradient id="paint15_linear_28327_1801" x1="25.8325" y1="22.2399" x2="23.4575" y2="22.2399" gradientUnits="userSpaceOnUse">
<stop stop-color="#E07B42"/>
<stop offset="1" stop-color="#E07B42" stop-opacity="0"/>
</linearGradient>
<linearGradient id="paint16_linear_28327_1801" x1="20.02" y1="32.9274" x2="19.3325" y2="28.3649" gradientUnits="userSpaceOnUse">
<stop stop-color="#D23AC3"/>
<stop offset="1" stop-color="#D23AC3" stop-opacity="0"/>
</linearGradient>
<radialGradient id="paint17_radial_28327_1801" cx="0" cy="0" r="1" gradientUnits="userSpaceOnUse" gradientTransform="translate(15.895 26.3649) rotate(-120.192) scale(3.97698 3.24362)">
<stop stop-color="#E966DC"/>
<stop offset="0.967241" stop-color="#D23AC3" stop-opacity="0"/>
</radialGradient>
<radialGradient id="paint18_radial_28327_1801" cx="0" cy="0" r="1" gradientUnits="userSpaceOnUse" gradientTransform="translate(5.3325 23.9899) rotate(-22.0679) scale(7.48593 13.0088)">
<stop stop-color="#D49177"/>
<stop offset="1" stop-color="#D49177" stop-opacity="0"/>
</radialGradient>
<radialGradient id="paint19_radial_28327_1801" cx="0" cy="0" r="1" gradientUnits="userSpaceOnUse" gradientTransform="translate(6.77 22.7399) rotate(-28.5746) scale(3.98545 3.42677)">
<stop stop-color="#E966DC"/>
<stop offset="0.967241" stop-color="#D23AC3" stop-opacity="0"/>
</radialGradient>
<radialGradient id="paint20_radial_28327_1801" cx="0" cy="0" r="1" gradientUnits="userSpaceOnUse" gradientTransform="translate(4.27 16.0524) rotate(-48.8506) scale(4.60659 3.09541)">
<stop stop-color="#EC52DC"/>
<stop offset="0.967241" stop-color="#D23AC3" stop-opacity="0"/>
</radialGradient>
<radialGradient id="paint21_radial_28327_1801" cx="0" cy="0" r="1" gradientUnits="userSpaceOnUse" gradientTransform="translate(4.895 6.92741) rotate(37.0928) scale(6.42505 11.1652)">
<stop stop-color="#D49177"/>
<stop offset="1" stop-color="#D49177" stop-opacity="0"/>
</radialGradient>
<linearGradient id="paint22_linear_28327_1801" x1="13.8325" y1="15.1775" x2="13.3538" y2="7.64251" gradientUnits="userSpaceOnUse">
<stop stop-color="#F4D4A3" stop-opacity="0.5"/>
<stop offset="1" stop-color="#FFC38B" stop-opacity="0"/>
</linearGradient>
<linearGradient id="paint23_linear_28327_1801" x1="17.03" y1="32.0523" x2="17.03" y2="23.8648" gradientUnits="userSpaceOnUse">
<stop stop-color="#F3A250"/>
<stop offset="1" stop-color="#F3A372"/>
</linearGradient>
<radialGradient id="paint24_radial_28327_1801" cx="0" cy="0" r="1" gradientUnits="userSpaceOnUse" gradientTransform="translate(15.02 31.4898) rotate(-62.1896) scale(6.43021 4.53187)">
<stop stop-color="#C67040"/>
<stop offset="1" stop-color="#C67040" stop-opacity="0"/>
</radialGradient>
<radialGradient id="paint25_radial_28327_1801" cx="0" cy="0" r="1" gradientUnits="userSpaceOnUse" gradientTransform="translate(12.0825 30.1399) rotate(-25.6141) scale(7.06977 13.1349)">
<stop stop-color="#F0B392"/>
<stop offset="1" stop-color="#F0B392" stop-opacity="0"/>
</radialGradient>
<linearGradient id="paint26_linear_28327_1801" x1="17.03" y1="30.8023" x2="17.03" y2="28.2398" gradientUnits="userSpaceOnUse">
<stop stop-color="#EB64DD"/>
<stop offset="1" stop-color="#EB8D98" stop-opacity="0"/>
</linearGradient>
<radialGradient id="paint27_radial_28327_1801" cx="0" cy="0" r="1" gradientUnits="userSpaceOnUse" gradientTransform="translate(11.145 27.0523) rotate(0.142175) scale(12.5938 8.11631)">
<stop offset="0.838235" stop-color="#CD6A3D" stop-opacity="0"/>
<stop offset="1" stop-color="#CD6A3D"/>
</radialGradient>
<linearGradient id="paint28_linear_28327_1801" x1="12.53" y1="16.1399" x2="7.40283" y2="16.1399" gradientUnits="userSpaceOnUse">
<stop stop-color="#626067"/>
<stop offset="1" stop-color="#605D65"/>
</linearGradient>
<linearGradient id="paint29_linear_28327_1801" x1="9.96643" y1="18.3336" x2="9.96643" y2="17.7555" gradientUnits="userSpaceOnUse">
<stop stop-color="#5E4A66"/>
<stop offset="1" stop-color="#5E4A66" stop-opacity="0"/>
</linearGradient>
<linearGradient id="paint30_linear_28327_1801" x1="13.6294" y1="17.7555" x2="12.145" y2="17.7555" gradientUnits="userSpaceOnUse">
<stop stop-color="#5E4A66"/>
<stop offset="1" stop-color="#5E4A66" stop-opacity="0"/>
</linearGradient>
<radialGradient id="paint31_radial_28327_1801" cx="0" cy="0" r="1" gradientUnits="userSpaceOnUse" gradientTransform="translate(22.5825 18.5149) rotate(180) scale(10.75 10.5461)">
<stop stop-color="#FF6064"/>
<stop offset="1" stop-color="#FB3252"/>
</radialGradient>
<radialGradient id="paint32_radial_28327_1801" cx="0" cy="0" r="1" gradientUnits="userSpaceOnUse" gradientTransform="translate(20.8638 15.5211) rotate(111.932) scale(3.57093 9.6989)">
<stop stop-color="#8A898D"/>
<stop offset="1" stop-color="#79787D" stop-opacity="0"/>
</radialGradient>
<linearGradient id="paint33_linear_28327_1801" x1="18.472" y1="22.4273" x2="18.472" y2="21.568" gradientUnits="userSpaceOnUse">
<stop stop-color="#5E4A66"/>
<stop offset="1" stop-color="#5E4A66" stop-opacity="0"/>
</linearGradient>
<linearGradient id="paint34_linear_28327_1801" x1="12.3325" y1="21.568" x2="12.9888" y2="21.568" gradientUnits="userSpaceOnUse">
<stop stop-color="#5E4A66"/>
<stop offset="1" stop-color="#5E4A66" stop-opacity="0"/>
</linearGradient>
<radialGradient id="paint35_radial_28327_1801" cx="0" cy="0" r="1" gradientUnits="userSpaceOnUse" gradientTransform="translate(16.0513 13.5211) rotate(136.715) scale(3.69187 7.12318)">
<stop stop-color="#8A898D"/>
<stop offset="1" stop-color="#79787D" stop-opacity="0"/>
</radialGradient>
<radialGradient id="paint36_radial_28327_1801" cx="0" cy="0" r="1" gradientUnits="userSpaceOnUse" gradientTransform="translate(24.7388 19.8961) rotate(157.238) scale(4.84617 8.40102)">
<stop stop-color="#8A898D"/>
<stop offset="1" stop-color="#79787D" stop-opacity="0"/>
</radialGradient>
<linearGradient id="paint37_linear_28327_1801" x1="4.5265" y1="9.13989" x2="4.5265" y2="14.4407" gradientUnits="userSpaceOnUse">
<stop stop-color="#A4745F"/>
<stop offset="1" stop-color="#63332A"/>
</linearGradient>
<radialGradient id="paint38_radial_28327_1801" cx="0" cy="0" r="1" gradientUnits="userSpaceOnUse" gradientTransform="translate(5.85919 10.9259) rotate(90) scale(4.01685 8.11095)">
<stop offset="0.365385" stop-color="#793875" stop-opacity="0"/>
<stop offset="1" stop-color="#793875"/>
</radialGradient>
<linearGradient id="paint39_linear_28327_1801" x1="4.2177" y1="9.61272" x2="3.05899" y2="9.88989" gradientUnits="userSpaceOnUse">
<stop offset="0.225" stop-color="#6B5E60"/>
<stop offset="1" stop-color="#433338"/>
</linearGradient>
<linearGradient id="paint40_linear_28327_1801" x1="4.83252" y1="10.9023" x2="4.83252" y2="9.63672" gradientUnits="userSpaceOnUse">
<stop stop-color="#552D52"/>
<stop offset="1" stop-color="#552D52" stop-opacity="0"/>
</linearGradient>
<linearGradient id="paint41_linear_28327_1801" x1="9.37939" y1="10.1399" x2="8.75439" y2="10.1399" gradientUnits="userSpaceOnUse">
<stop offset="0.225" stop-color="#6B5E60"/>
<stop offset="1" stop-color="#433338"/>
</linearGradient>
<linearGradient id="paint42_linear_28327_1801" x1="9.67627" y1="11.4898" x2="9.67627" y2="9.80233" gradientUnits="userSpaceOnUse">
<stop stop-color="#552D52"/>
<stop offset="1" stop-color="#552D52" stop-opacity="0"/>
</linearGradient>
<linearGradient id="paint43_linear_28327_1801" x1="27.1134" y1="17.6852" x2="30.1182" y2="24.8411" gradientUnits="userSpaceOnUse">
<stop stop-color="#FADCAF"/>
<stop offset="1" stop-color="#FFDEAB" stop-opacity="0"/>
</linearGradient>
<linearGradient id="paint44_linear_28327_1801" x1="13.7075" y1="3.17749" x2="13.9144" y2="8.41933" gradientUnits="userSpaceOnUse">
<stop stop-color="#F4D4A3"/>
<stop offset="1" stop-color="#FFC38B" stop-opacity="0"/>
</linearGradient>
<radialGradient id="paint45_radial_28327_1801" cx="0" cy="0" r="1" gradientUnits="userSpaceOnUse" gradientTransform="translate(21.4184 26.2464) rotate(133.402) scale(3.55781 2.74876)">
<stop stop-color="#FFBF7A"/>
<stop offset="1" stop-color="#FFBF7A" stop-opacity="0"/>
</radialGradient>
</defs>
</svg>
