<svg width="32" height="32" viewBox="0 0 32 32" fill="none" xmlns="http://www.w3.org/2000/svg">
<path d="M16.8674 7.10546C16.9526 6.91785 17 6.70947 17 6.49C17 5.6671 16.3329 5 15.51 5C14.6871 5 14.02 5.6671 14.02 6.49C14.02 6.70947 14.0675 6.91785 14.1527 7.10546C12.321 7.39298 10.6792 8.25337 9.41767 9.5H7.75C7.34 9.5 7 9.84 7 10.25C7 10.66 7.34 11 7.75 11H7.81999L6.20579 14.882L6.05 14.8C5.62 14.58 5.35 14.13 5.35 13.64V11.53C5.35 11.24 5.11 11 4.82 11H2.53C2.24 11 2 11.24 2 11.53V16.59C2 18.79 2.9 20.9 4.5 22.42L8.18539 25.922C8.35412 26.0967 8.5291 26.2653 8.71 26.4275V26.43H8.71283C9.41315 27.0574 10.2019 27.5883 11.0582 28.0017L10.09 28.94C9.68997 29.33 9.96997 30 10.52 30H20.43C20.98 30 21.25 29.33 20.86 28.94L19.89 28H19.8249C21.9956 26.9506 23.732 25.1458 24.6934 22.9263C27.6969 22.4621 30 19.8624 30 16.73C30 14.67 28.33 13 26.27 13C25.5062 13 24.7756 13.2355 24.1662 13.6535L23.06 11H23.26C23.67 11 24.01 10.66 24.01 10.25C24.01 9.84 23.67 9.5 23.26 9.5H21.6024C20.3409 8.25337 18.699 7.39299 16.8674 7.10546ZM25.3685 20.6717C25.4681 20.1029 25.52 19.5175 25.52 18.92C25.52 17.7589 25.3236 16.637 24.9586 15.5962C25.2837 15.2231 25.7583 15 26.27 15C27.22 15 28 15.78 28 16.73C28 18.5002 26.9106 20.0264 25.3685 20.6717Z" fill="#212121"/>
</svg>
