<svg width="32" height="32" viewBox="0 0 32 32" fill="none" xmlns="http://www.w3.org/2000/svg">
<g clip-path="url(#clip0_23_481)">
<path d="M15.9989 29.9978C25.3333 29.9978 29.9978 23.7303 29.9978 15.9989C29.9978 8.26751 25.3333 2 15.9989 2C6.66443 2 2 8.26751 2 15.9989C2 23.7303 6.66443 29.9978 15.9989 29.9978Z" fill="url(#paint0_radial_23_481)"/>
<path d="M15.9989 29.9978C25.3333 29.9978 29.9978 23.7303 29.9978 15.9989C29.9978 8.26751 25.3333 2 15.9989 2C6.66443 2 2 8.26751 2 15.9989C2 23.7303 6.66443 29.9978 15.9989 29.9978Z" fill="url(#paint1_radial_23_481)"/>
<path d="M15.9989 29.9978C25.3333 29.9978 29.9978 23.7303 29.9978 15.9989C29.9978 8.26751 25.3333 2 15.9989 2C6.66443 2 2 8.26751 2 15.9989C2 23.7303 6.66443 29.9978 15.9989 29.9978Z" fill="url(#paint2_radial_23_481)"/>
<path d="M15.9989 29.9978C25.3333 29.9978 29.9978 23.7303 29.9978 15.9989C29.9978 8.26751 25.3333 2 15.9989 2C6.66443 2 2 8.26751 2 15.9989C2 23.7303 6.66443 29.9978 15.9989 29.9978Z" fill="url(#paint3_radial_23_481)" fill-opacity="0.6"/>
<path d="M15.9989 29.9978C25.3333 29.9978 29.9978 23.7303 29.9978 15.9989C29.9978 8.26751 25.3333 2 15.9989 2C6.66443 2 2 8.26751 2 15.9989C2 23.7303 6.66443 29.9978 15.9989 29.9978Z" fill="url(#paint4_radial_23_481)"/>
<path d="M15.9989 29.9978C25.3333 29.9978 29.9978 23.7303 29.9978 15.9989C29.9978 8.26751 25.3333 2 15.9989 2C6.66443 2 2 8.26751 2 15.9989C2 23.7303 6.66443 29.9978 15.9989 29.9978Z" fill="url(#paint5_radial_23_481)"/>
<path d="M15.9989 29.9978C25.3333 29.9978 29.9978 23.7303 29.9978 15.9989C29.9978 8.26751 25.3333 2 15.9989 2C6.66443 2 2 8.26751 2 15.9989C2 23.7303 6.66443 29.9978 15.9989 29.9978Z" fill="url(#paint6_radial_23_481)"/>
<path d="M15.9989 29.9978C25.3333 29.9978 29.9978 23.7303 29.9978 15.9989C29.9978 8.26751 25.3333 2 15.9989 2C6.66443 2 2 8.26751 2 15.9989C2 23.7303 6.66443 29.9978 15.9989 29.9978Z" fill="url(#paint7_radial_23_481)"/>
<path opacity="0.5" d="M7.5 25C11.0899 25 14 22.0899 14 18.5C14 14.9101 11.0899 12 7.5 12C3.91015 12 1 14.9101 1 18.5C1 22.0899 3.91015 25 7.5 25Z" fill="url(#paint8_radial_23_481)"/>
<path opacity="0.5" d="M24.5 25C28.0899 25 31 22.0899 31 18.5C31 14.9101 28.0899 12 24.5 12C20.9101 12 18 14.9101 18 18.5C18 22.0899 20.9101 25 24.5 25Z" fill="url(#paint9_radial_23_481)"/>
<g opacity="0.5" filter="url(#filter0_f_23_481)">
<path d="M7.5 14.5C7.5 14.5 7.75 12.5 10 12.5C12.25 12.5 12.5 14.5 12.5 14.5" stroke="#9A4609" stroke-width="2" stroke-linecap="round"/>
</g>
<g opacity="0.5" filter="url(#filter1_f_23_481)">
<path d="M18.5 14.5C18.5 14.5 19 12.5 21 12.5C23 12.5 23.5 14.5 23.5 14.5" stroke="#9A4609" stroke-width="2" stroke-linecap="round"/>
</g>
<path d="M8 14C8 14 8.25 12 10.5 12C12.75 12 13 14 13 14" stroke="#43273B" stroke-width="2" stroke-linecap="round" stroke-linejoin="round"/>
<g opacity="0.26" filter="url(#filter2_f_23_481)">
<path d="M8.25 13.75C8.25 13.75 8.5 11.75 10.75 11.75C13 11.75 13.25 13.75 13.25 13.75" stroke="white" stroke-width="0.75" stroke-linecap="round" stroke-linejoin="round"/>
</g>
<path d="M19 14C19 14 19.5 12 21.5 12C23.5 12 24 14 24 14" stroke="#43273B" stroke-width="2" stroke-linecap="round" stroke-linejoin="round"/>
<g opacity="0.26" filter="url(#filter3_f_23_481)">
<path d="M19.25 13.75C19.25 13.75 19.5 11.75 21.75 11.75C24 11.75 24.25 13.75 24.25 13.75" stroke="white" stroke-width="0.75" stroke-linecap="round" stroke-linejoin="round"/>
</g>
<mask id="path-10-inside-1_23_481" fill="white">
<path fill-rule="evenodd" clip-rule="evenodd" d="M17.6699 16.9199C17.1176 16.9199 16.6699 17.3676 16.6699 17.9199C16.6699 18.4722 17.1176 18.9199 17.6699 18.9199C17.9576 18.9199 18.1899 19.1522 18.1899 19.4399C18.1899 19.7276 17.9576 19.9599 17.6699 19.9599C17.1176 19.9599 16.6699 20.4076 16.6699 20.9599C16.6699 20.9599 16.6699 20.9599 16.6699 20.96C16.6699 21.5122 17.1176 21.96 17.6699 21.96C17.9576 21.96 18.1899 22.1922 18.1899 22.48C18.1899 22.7677 17.9576 23 17.6699 23C17.1176 23 16.6699 23.4477 16.6699 24C16.6699 24.5522 17.1176 25 17.6699 25C19.0622 25 20.1899 23.8722 20.1899 22.48C20.1899 21.9089 20.0002 21.3824 19.6804 20.9599C20.0002 20.5375 20.1899 20.0109 20.1899 19.4399C20.1899 18.0476 19.0622 16.9199 17.6699 16.9199Z"/>
</mask>
<path fill-rule="evenodd" clip-rule="evenodd" d="M17.6699 16.9199C17.1176 16.9199 16.6699 17.3676 16.6699 17.9199C16.6699 18.4722 17.1176 18.9199 17.6699 18.9199C17.9576 18.9199 18.1899 19.1522 18.1899 19.4399C18.1899 19.7276 17.9576 19.9599 17.6699 19.9599C17.1176 19.9599 16.6699 20.4076 16.6699 20.9599C16.6699 20.9599 16.6699 20.9599 16.6699 20.96C16.6699 21.5122 17.1176 21.96 17.6699 21.96C17.9576 21.96 18.1899 22.1922 18.1899 22.48C18.1899 22.7677 17.9576 23 17.6699 23C17.1176 23 16.6699 23.4477 16.6699 24C16.6699 24.5522 17.1176 25 17.6699 25C19.0622 25 20.1899 23.8722 20.1899 22.48C20.1899 21.9089 20.0002 21.3824 19.6804 20.9599C20.0002 20.5375 20.1899 20.0109 20.1899 19.4399C20.1899 18.0476 19.0622 16.9199 17.6699 16.9199Z" fill="url(#paint10_radial_23_481)"/>
<path d="M19.6804 20.9599L19.2817 20.6581L19.0533 20.9599L19.2817 21.2617L19.6804 20.9599ZM17.1699 17.9199C17.1699 17.6438 17.3938 17.4199 17.6699 17.4199V16.4199C16.8415 16.4199 16.1699 17.0915 16.1699 17.9199H17.1699ZM17.6699 18.4199C17.3938 18.4199 17.1699 18.1961 17.1699 17.9199H16.1699C16.1699 18.7483 16.8415 19.4199 17.6699 19.4199V18.4199ZM18.6899 19.4399C18.6899 18.8761 18.2338 18.4199 17.6699 18.4199V19.4199C17.6815 19.4199 17.6899 19.4283 17.6899 19.4399H18.6899ZM17.6699 20.4599C18.2338 20.4599 18.6899 20.0038 18.6899 19.4399H17.6899C17.6899 19.4515 17.6815 19.4599 17.6699 19.4599V20.4599ZM17.1699 20.9599C17.1699 20.6838 17.3938 20.4599 17.6699 20.4599V19.4599C16.8415 19.4599 16.1699 20.1315 16.1699 20.9599H17.1699ZM17.1699 20.96C17.1699 20.96 17.1699 20.96 17.1699 20.96C17.1699 20.96 17.1699 20.96 17.1699 20.96C17.1699 20.96 17.1699 20.96 17.1699 20.96C17.1699 20.96 17.1699 20.96 17.1699 20.96V20.96V20.96V20.96C17.1699 20.96 17.1699 20.96 17.1699 20.96C17.1699 20.96 17.1699 20.96 17.1699 20.96C17.1699 20.96 17.1699 20.96 17.1699 20.96C17.1699 20.96 17.1699 20.96 17.1699 20.96C17.1699 20.96 17.1699 20.96 17.1699 20.96C17.1699 20.96 17.1699 20.96 17.1699 20.96C17.1699 20.96 17.1699 20.96 17.1699 20.96V20.96V20.96V20.96V20.96C17.1699 20.96 17.1699 20.96 17.1699 20.96C17.1699 20.96 17.1699 20.96 17.1699 20.96C17.1699 20.96 17.1699 20.96 17.1699 20.96C17.1699 20.96 17.1699 20.96 17.1699 20.96C17.1699 20.9599 17.1699 20.9599 17.1699 20.9599C17.1699 20.9599 17.1699 20.9599 17.1699 20.9599V20.9599V20.9599V20.9599V20.9599C17.1699 20.9599 17.1699 20.9599 17.1699 20.9599C17.1699 20.9599 17.1699 20.9599 17.1699 20.9599C17.1699 20.9599 17.1699 20.9599 17.1699 20.9599C17.1699 20.9599 17.1699 20.9599 17.1699 20.9599C17.1699 20.9599 17.1699 20.9599 17.1699 20.9599C17.1699 20.9599 17.1699 20.9599 17.1699 20.9599C17.1699 20.9599 17.1699 20.9599 17.1699 20.9599V20.9599V20.9599V20.9599C17.1699 20.9599 17.1699 20.9599 17.1699 20.9599C17.1699 20.9599 17.1699 20.9599 17.1699 20.9599C17.1699 20.9599 17.1699 20.9599 17.1699 20.9599C17.1699 20.9599 17.1699 20.9599 17.1699 20.9599C17.1699 20.9599 17.1699 20.9599 17.1699 20.9599C17.1699 20.9599 17.1699 20.9599 17.1699 20.9599C17.1699 20.9599 17.1699 20.9599 17.1699 20.9599C17.1699 20.9599 17.1699 20.9599 17.1699 20.9599V20.9599V20.9599V20.9599C17.1699 20.9599 17.1699 20.9599 17.1699 20.9599C17.1699 20.9599 17.1699 20.9599 17.1699 20.9599C17.1699 20.9599 17.1699 20.9599 17.1699 20.9599C17.1699 20.9599 17.1699 20.9599 17.1699 20.9599C17.1699 20.9599 17.1699 20.9599 17.1699 20.9599C17.1699 20.9599 17.1699 20.9599 17.1699 20.9599C17.1699 20.9599 17.1699 20.9599 17.1699 20.9599V20.9599V20.9599V20.9599V20.9599C17.1699 20.9599 17.1699 20.9599 17.1699 20.9599C17.1699 20.9599 17.1699 20.9599 17.1699 20.9599C17.1699 20.9599 17.1699 20.9599 17.1699 20.9599C17.1699 20.9599 17.1699 20.9599 17.1699 20.9599C17.1699 20.9599 17.1699 20.9599 17.1699 20.9599C17.1699 20.9599 17.1699 20.9599 17.1699 20.9599V20.9599V20.9599V20.9599V20.9599C17.1699 20.9599 17.1699 20.9599 17.1699 20.9599C17.1699 20.9599 17.1699 20.9599 17.1699 20.9599C17.1699 20.9599 17.1699 20.9599 17.1699 20.9599C17.1699 20.9599 17.1699 20.9599 17.1699 20.9599C17.1699 20.9599 17.1699 20.9599 17.1699 20.9599C17.1699 20.9599 17.1699 20.9599 17.1699 20.9599C17.1699 20.9599 17.1699 20.9599 17.1699 20.9599V20.9599V20.9599V20.9599C17.1699 20.9599 17.1699 20.9599 17.1699 20.9599C17.1699 20.9599 17.1699 20.9599 17.1699 20.9599C17.1699 20.9599 17.1699 20.9599 17.1699 20.9599C17.1699 20.9599 17.1699 20.9599 17.1699 20.9599H16.1699C16.1699 20.9599 16.1699 20.9599 16.1699 20.9599C16.1699 20.9599 16.1699 20.9599 16.1699 20.9599C16.1699 20.9599 16.1699 20.9599 16.1699 20.9599C16.1699 20.9599 16.1699 20.9599 16.1699 20.9599V20.9599V20.9599V20.9599C16.1699 20.9599 16.1699 20.9599 16.1699 20.9599C16.1699 20.9599 16.1699 20.9599 16.1699 20.9599C16.1699 20.9599 16.1699 20.9599 16.1699 20.9599C16.1699 20.9599 16.1699 20.9599 16.1699 20.9599C16.1699 20.9599 16.1699 20.9599 16.1699 20.9599C16.1699 20.9599 16.1699 20.9599 16.1699 20.9599C16.1699 20.9599 16.1699 20.9599 16.1699 20.9599V20.9599V20.9599V20.9599V20.9599C16.1699 20.9599 16.1699 20.9599 16.1699 20.9599C16.1699 20.9599 16.1699 20.9599 16.1699 20.9599C16.1699 20.9599 16.1699 20.9599 16.1699 20.9599C16.1699 20.9599 16.1699 20.9599 16.1699 20.9599C16.1699 20.9599 16.1699 20.9599 16.1699 20.9599C16.1699 20.9599 16.1699 20.9599 16.1699 20.9599V20.9599V20.9599V20.9599V20.9599C16.1699 20.9599 16.1699 20.9599 16.1699 20.9599C16.1699 20.9599 16.1699 20.9599 16.1699 20.9599C16.1699 20.9599 16.1699 20.9599 16.1699 20.9599C16.1699 20.9599 16.1699 20.9599 16.1699 20.9599C16.1699 20.9599 16.1699 20.9599 16.1699 20.9599C16.1699 20.9599 16.1699 20.9599 16.1699 20.9599C16.1699 20.9599 16.1699 20.9599 16.1699 20.9599V20.9599V20.9599V20.9599C16.1699 20.9599 16.1699 20.9599 16.1699 20.9599C16.1699 20.9599 16.1699 20.9599 16.1699 20.9599C16.1699 20.9599 16.1699 20.9599 16.1699 20.9599C16.1699 20.9599 16.1699 20.9599 16.1699 20.9599C16.1699 20.9599 16.1699 20.9599 16.1699 20.9599C16.1699 20.9599 16.1699 20.9599 16.1699 20.9599C16.1699 20.9599 16.1699 20.9599 16.1699 20.9599C16.1699 20.9599 16.1699 20.9599 16.1699 20.9599V20.9599V20.9599V20.9599C16.1699 20.9599 16.1699 20.9599 16.1699 20.9599C16.1699 20.9599 16.1699 20.9599 16.1699 20.9599C16.1699 20.9599 16.1699 20.9599 16.1699 20.9599C16.1699 20.9599 16.1699 20.9599 16.1699 20.9599C16.1699 20.9599 16.1699 20.9599 16.1699 20.9599C16.1699 20.9599 16.1699 20.9599 16.1699 20.9599C16.1699 20.9599 16.1699 20.9599 16.1699 20.9599V20.9599V20.9599V20.9599V20.9599C16.1699 20.9599 16.1699 20.9599 16.1699 20.9599C16.1699 20.9599 16.1699 20.9599 16.1699 20.96C16.1699 20.96 16.1699 20.96 16.1699 20.96C16.1699 20.96 16.1699 20.96 16.1699 20.96C16.1699 20.96 16.1699 20.96 16.1699 20.96C16.1699 20.96 16.1699 20.96 16.1699 20.96V20.96V20.96V20.96V20.96C16.1699 20.96 16.1699 20.96 16.1699 20.96C16.1699 20.96 16.1699 20.96 16.1699 20.96C16.1699 20.96 16.1699 20.96 16.1699 20.96C16.1699 20.96 16.1699 20.96 16.1699 20.96C16.1699 20.96 16.1699 20.96 16.1699 20.96C16.1699 20.96 16.1699 20.96 16.1699 20.96C16.1699 20.96 16.1699 20.96 16.1699 20.96V20.96V20.96V20.96C16.1699 20.96 16.1699 20.96 16.1699 20.96C16.1699 20.96 16.1699 20.96 16.1699 20.96C16.1699 20.96 16.1699 20.96 16.1699 20.96C16.1699 20.96 16.1699 20.96 16.1699 20.96H17.1699ZM17.6699 21.46C17.3938 21.46 17.1699 21.2361 17.1699 20.96H16.1699C16.1699 21.7884 16.8415 22.46 17.6699 22.46V21.46ZM18.6899 22.48C18.6899 21.9161 18.2338 21.46 17.6699 21.46V22.46C17.6815 22.46 17.6899 22.4684 17.6899 22.48H18.6899ZM17.6699 23.5C18.2338 23.5 18.6899 23.0438 18.6899 22.48H17.6899C17.6899 22.4915 17.6815 22.5 17.6699 22.5V23.5ZM17.1699 24C17.1699 23.7238 17.3938 23.5 17.6699 23.5V22.5C16.8415 22.5 16.1699 23.1715 16.1699 24H17.1699ZM17.6699 24.5C17.3938 24.5 17.1699 24.2761 17.1699 24H16.1699C16.1699 24.8284 16.8415 25.5 17.6699 25.5V24.5ZM19.6899 22.48C19.6899 23.5961 18.7861 24.5 17.6699 24.5V25.5C19.3383 25.5 20.6899 24.1484 20.6899 22.48H19.6899ZM19.2817 21.2617C19.5381 21.6003 19.6899 22.0215 19.6899 22.48H20.6899C20.6899 21.7963 20.4624 21.1645 20.079 20.6581L19.2817 21.2617ZM19.6899 19.4399C19.6899 19.8983 19.5381 20.3196 19.2817 20.6581L20.079 21.2617C20.4624 20.7554 20.6899 20.1236 20.6899 19.4399H19.6899ZM17.6699 17.4199C18.7861 17.4199 19.6899 18.3238 19.6899 19.4399H20.6899C20.6899 17.7715 19.3383 16.4199 17.6699 16.4199V17.4199Z" fill="url(#paint11_linear_23_481)" mask="url(#path-10-inside-1_23_481)"/>
<path d="M6.5 9.5C6.83333 8.5 8.1 6.5 10.5 6.5" stroke="url(#paint12_linear_23_481)" stroke-linecap="round" stroke-linejoin="round"/>
<path d="M25.5 9.5C25.1667 8.5 23.9 6.5 21.5 6.5" stroke="url(#paint13_linear_23_481)" stroke-linecap="round" stroke-linejoin="round"/>
</g>
<defs>
<filter id="filter0_f_23_481" x="5" y="10" width="10" height="7.00012" filterUnits="userSpaceOnUse" color-interpolation-filters="sRGB">
<feFlood flood-opacity="0" result="BackgroundImageFix"/>
<feBlend mode="normal" in="SourceGraphic" in2="BackgroundImageFix" result="shape"/>
<feGaussianBlur stdDeviation="0.75" result="effect1_foregroundBlur_23_481"/>
</filter>
<filter id="filter1_f_23_481" x="15.9998" y="10" width="10.0005" height="7.00024" filterUnits="userSpaceOnUse" color-interpolation-filters="sRGB">
<feFlood flood-opacity="0" result="BackgroundImageFix"/>
<feBlend mode="normal" in="SourceGraphic" in2="BackgroundImageFix" result="shape"/>
<feGaussianBlur stdDeviation="0.75" result="effect1_foregroundBlur_23_481"/>
</filter>
<filter id="filter2_f_23_481" x="6.375" y="9.875" width="8.75" height="5.75" filterUnits="userSpaceOnUse" color-interpolation-filters="sRGB">
<feFlood flood-opacity="0" result="BackgroundImageFix"/>
<feBlend mode="normal" in="SourceGraphic" in2="BackgroundImageFix" result="shape"/>
<feGaussianBlur stdDeviation="0.75" result="effect1_foregroundBlur_23_481"/>
</filter>
<filter id="filter3_f_23_481" x="17.375" y="9.875" width="8.75" height="5.75" filterUnits="userSpaceOnUse" color-interpolation-filters="sRGB">
<feFlood flood-opacity="0" result="BackgroundImageFix"/>
<feBlend mode="normal" in="SourceGraphic" in2="BackgroundImageFix" result="shape"/>
<feGaussianBlur stdDeviation="0.75" result="effect1_foregroundBlur_23_481"/>
</filter>
<radialGradient id="paint0_radial_23_481" cx="0" cy="0" r="1" gradientUnits="userSpaceOnUse" gradientTransform="translate(25.5 9) rotate(132.839) scale(37.5033)">
<stop stop-color="#FFF478"/>
<stop offset="0.474827" stop-color="#FFB02E"/>
<stop offset="1" stop-color="#F70A8D"/>
</radialGradient>
<radialGradient id="paint1_radial_23_481" cx="0" cy="0" r="1" gradientUnits="userSpaceOnUse" gradientTransform="translate(25.5 9) rotate(131.878) scale(38.9487)">
<stop stop-color="#FFF478"/>
<stop offset="0.474827" stop-color="#FFB02E"/>
<stop offset="1" stop-color="#F70A8D"/>
</radialGradient>
<radialGradient id="paint2_radial_23_481" cx="0" cy="0" r="1" gradientUnits="userSpaceOnUse" gradientTransform="translate(16 12.5) rotate(101.31) scale(17.8466 22.8581)">
<stop offset="0.787821" stop-color="#F59639" stop-opacity="0"/>
<stop offset="0.972509" stop-color="#FF7DCE"/>
</radialGradient>
<radialGradient id="paint3_radial_23_481" cx="0" cy="0" r="1" gradientUnits="userSpaceOnUse" gradientTransform="translate(18 14) rotate(135) scale(41.0122)">
<stop offset="0.314853" stop-opacity="0"/>
<stop offset="1"/>
</radialGradient>
<radialGradient id="paint4_radial_23_481" cx="0" cy="0" r="1" gradientUnits="userSpaceOnUse" gradientTransform="translate(16 17) rotate(77.692) scale(28.1469)">
<stop offset="0.507903" stop-color="#7D6133" stop-opacity="0"/>
<stop offset="1" stop-color="#715B32"/>
</radialGradient>
<radialGradient id="paint5_radial_23_481" cx="0" cy="0" r="1" gradientUnits="userSpaceOnUse" gradientTransform="translate(16.5 16.5) rotate(55.7131) scale(13.3135 9.65032)">
<stop stop-color="#FFB849"/>
<stop offset="1" stop-color="#FFB847" stop-opacity="0"/>
</radialGradient>
<radialGradient id="paint6_radial_23_481" cx="0" cy="0" r="1" gradientUnits="userSpaceOnUse" gradientTransform="translate(20.5 18) rotate(9.86581) scale(11.6726)">
<stop stop-color="#FFA64B"/>
<stop offset="0.900412" stop-color="#FFAE46" stop-opacity="0"/>
</radialGradient>
<radialGradient id="paint7_radial_23_481" cx="0" cy="0" r="1" gradientUnits="userSpaceOnUse" gradientTransform="translate(17.5 15) rotate(43.9708) scale(59.0529)">
<stop offset="0.185425" stop-opacity="0"/>
<stop offset="1" stop-opacity="0.4"/>
</radialGradient>
<radialGradient id="paint8_radial_23_481" cx="0" cy="0" r="1" gradientUnits="userSpaceOnUse" gradientTransform="translate(7.50513 18.5012) scale(6.49487)">
<stop stop-color="#F70A8D" stop-opacity="0.59"/>
<stop offset="1" stop-color="#FF6DC6" stop-opacity="0"/>
</radialGradient>
<radialGradient id="paint9_radial_23_481" cx="0" cy="0" r="1" gradientUnits="userSpaceOnUse" gradientTransform="translate(24.5051 18.5012) scale(6.49487)">
<stop stop-color="#F70A8D" stop-opacity="0.59"/>
<stop offset="1" stop-color="#FF6DC6" stop-opacity="0"/>
</radialGradient>
<radialGradient id="paint10_radial_23_481" cx="0" cy="0" r="1" gradientUnits="userSpaceOnUse" gradientTransform="translate(16.6699 20.9599) scale(6.33008 7.26524)">
<stop stop-color="#3E3537"/>
<stop offset="0.313085" stop-color="#523A4F"/>
<stop offset="0.675586" stop-color="#6A5763"/>
</radialGradient>
<linearGradient id="paint11_linear_23_481" x1="19" y1="20.9999" x2="20.5" y2="20.4999" gradientUnits="userSpaceOnUse">
<stop stop-color="#664F62" stop-opacity="0"/>
<stop offset="1" stop-color="#765D72"/>
</linearGradient>
<linearGradient id="paint12_linear_23_481" x1="6.83333" y1="10.4" x2="6.83333" y2="8.6" gradientUnits="userSpaceOnUse">
<stop offset="0.0299084" stop-color="#524049"/>
<stop offset="1" stop-color="#4A2C42"/>
</linearGradient>
<linearGradient id="paint13_linear_23_481" x1="25.1667" y1="10.4" x2="25.1667" y2="8.6" gradientUnits="userSpaceOnUse">
<stop offset="0.0299084" stop-color="#524049"/>
<stop offset="1" stop-color="#4A2C42"/>
</linearGradient>
<clipPath id="clip0_23_481">
<rect width="32" height="32" fill="white"/>
</clipPath>
</defs>
</svg>
