<svg xmlns="http://www.w3.org/2000/svg" width="32" height="32" fill="none"><path fill="#D3D3D3" d="M14.5 30C20.851 30 26 24.851 26 18.5S20.851 7 14.5 7 3 12.149 3 18.5 8.149 30 14.5 30Z"/><path fill="#9B9B9B" d="M14.42 27.5c-5.17 0-9.38-4.7-9.38-9.87H23.8c0 5.17-4.21 9.87-9.38 9.87Z"/><path fill="#E6E6E6" d="M21.4 12.38a9.348 9.348 0 0 0-6.98-3.13 9.37 9.37 0 0 0-6.99 3.13H5.04v5.25c0 5.17 4.21 9.38 9.38 9.38 4.378 0 8.068-3.019 9.095-7.083l1.06-1.04s-.788-.652-.779-.996c.003-.087.004-.174.004-.261v-5.25h-2.4Z"/><path fill="#F4F4F4" d="M23.79 12.38a9.38 9.38 0 1 1-1.08-4.372A5.983 5.983 0 0 1 29 13.98a5.984 5.984 0 0 1-5.487 5.96 9.35 9.35 0 0 0 .285-2.056A3.994 3.994 0 0 0 27 13.98c0-2.03-1.53-3.718-3.507-3.952.194.752.297 1.54.297 2.352Z"/><path fill="#7D4533" d="M14.41 20.67a8.29 8.29 0 0 0 8.29-8.29c0-4.578-5.035-7.29-8.29-7.29-2.786 0-8.29 2.712-8.29 7.29a8.29 8.29 0 0 0 8.29 8.29Z"/><path fill="#9B9B9B" d="M6.14 12.966c.301-3.1 3.889-6.876 8.27-6.876 4.38 0 7.966 3.827 8.27 6.88a8.29 8.29 0 1 0-16.539-.004Z"/></svg>