<svg xmlns="http://www.w3.org/2000/svg" width="32" height="32" fill="none"><path fill="#F3AD61" d="M13 5a3 3 0 1 1 6 0v22a3 3 0 1 1-6 0V5Z"/><path fill="#D3883E" d="M13 18h6v2h-6z"/><path fill="#CDC4D6" d="M5 7.5A2.5 2.5 0 0 1 7.5 5h17A2.5 2.5 0 0 1 27 7.5v9a2.5 2.5 0 0 1-2.5 2.5h-17A2.5 2.5 0 0 1 5 16.5v-9Z"/><path fill="#998EA4" d="M11 8.5a.5.5 0 0 1 .5-.5h9a.5.5 0 0 1 0 1h-9a.5.5 0 0 1-.5-.5ZM13 11.5a.5.5 0 0 1 .5-.5h5a.5.5 0 0 1 0 1h-5a.5.5 0 0 1-.5-.5ZM12.5 14a.5.5 0 0 0 0 1h7a.5.5 0 0 0 0-1h-7Z"/></svg>