<svg width="32" height="32" viewBox="0 0 32 32" fill="none" xmlns="http://www.w3.org/2000/svg">
<path d="M21.0605 13.3549L22.7598 14.1408L23.5405 12.4527L21.8413 11.6667L22.622 9.97854L24.3213 10.7645L25.1021 9.07626L23.4028 8.29037L22.622 9.97854L20.9227 9.19265L20.142 10.8808L21.8413 11.6667L21.0605 13.3549Z" fill="#212121"/>
<path d="M21.0605 13.3549L19.3612 12.569L18.5804 14.2572L20.2797 15.0431L21.0605 13.3549Z" fill="#212121"/>
<path d="M5.91089 15.7125L6.69162 17.4008L4.99234 18.1867L4.21157 16.4985L5.91089 15.7125Z" fill="#212121"/>
<path d="M7.47238 19.0889L8.25314 20.7771L6.55384 21.563L5.77308 19.8748L7.47238 19.0889Z" fill="#212121"/>
<path d="M9.44712 9.97857L7.74783 10.7645L6.96728 9.07616L8.66633 8.29037L9.44712 9.97857Z" fill="#212121"/>
<path d="M9.44712 9.97857L10.2279 11.6668L11.927 10.8809L11.1464 9.19267L9.44712 9.97857Z" fill="#212121"/>
<path d="M11.0086 13.3549L12.7079 12.569L13.4885 14.2573L11.7894 15.0431L11.0086 13.3549Z" fill="#212121"/>
<path d="M26.2961 19.8748L25.5153 21.563L23.816 20.7771L24.5968 19.0889L26.2961 19.8748Z" fill="#212121"/>
<path d="M10.096 4.27173C10.3462 4.15484 10.6437 4.26291 10.7606 4.5131L10.883 4.77269C11.5067 4.6359 12.1636 4.94177 12.4475 5.54267L16.0352 13.1358L19.6228 5.54266C19.9078 4.93941 20.5688 4.6335 21.1947 4.77432L21.3178 4.5131C21.4347 4.26291 21.7323 4.15484 21.9824 4.27173C22.2326 4.38861 22.3407 4.68617 22.2238 4.93636L22.1167 5.16559L26.9097 7.37731C27.9009 7.83469 28.3422 9.0024 27.9014 10.001L27.398 11.1412L29.5258 12.0929C30.5341 12.544 30.9858 13.727 30.5348 14.7353L27.2164 22.1539C26.7654 23.1622 25.5824 23.614 24.5741 23.163L21.158 21.635C20.4522 21.3193 20.136 20.4911 20.4517 19.7853L21.1534 18.2167L20.5136 17.9179L20.5178 17.909L16.9476 16.2302L16.5911 16.9934L21.2958 27.0639C21.4127 27.3141 21.3046 27.6116 21.0544 27.7285C20.8042 27.8454 20.5066 27.7373 20.3898 27.4871L16.0392 18.1747L11.6887 27.4871C11.5718 27.7373 11.2742 27.8454 11.024 27.7285C10.7738 27.6116 10.6658 27.3141 10.7827 27.0639L15.4873 16.9934L15.1294 16.2271L10.9204 18.2062L11.6268 19.7853C11.9425 20.4911 11.6262 21.3193 10.9204 21.635L7.50442 23.163C6.49612 23.614 5.31311 23.1622 4.8621 22.1539L1.54366 14.7353C1.09264 13.727 1.5444 12.544 2.55269 12.0929L4.67366 11.1442L4.16897 10.001C4.09946 9.84361 4.05188 9.68197 4.02492 9.51958L4.01154 9.49084L4.01979 9.487C3.89208 8.6297 4.33612 7.75777 5.16061 7.37731L9.96026 5.16251L9.85461 4.93636C9.73773 4.68617 9.8458 4.38861 10.096 4.27173ZM22.9739 17.9632L23.6156 16.5858L21.9791 15.829L21.3477 17.1942L22.4702 17.722L22.468 17.7269L22.9739 17.9632ZM20.2797 15.0431L21.9791 15.829L22.7598 14.1408L24.401 14.8998L25.1865 13.2138L23.5405 12.4527L24.3213 10.7645L25.972 11.5279L26.7575 9.84184L25.1021 9.07626L25.664 7.90379L23.9421 7.10922L23.4028 8.29037L21.7035 7.50447L22.2385 6.32311L21.0562 5.77755C20.8569 5.68558 20.6207 5.7714 20.5269 5.96986L20.1429 6.78273L21.7035 7.50447L20.9227 9.19265L19.3483 8.46452L18.5537 10.1463L20.142 10.8808L19.3612 12.569L17.7591 11.8281L16.9644 13.5099L18.5804 14.2572L17.9592 15.6009L19.6534 16.3975L20.2797 15.0431ZM4.36801 12.3764L5.13014 14.0243L5.9475 13.6463L5.18551 12.0107L4.36801 12.3764ZM5.91089 15.7125L5.13014 14.0243L3.43085 14.8103L2.68227 13.1917C2.38201 13.4754 2.27825 13.9285 2.45649 14.3269L2.80265 15.1008L3.43085 14.8103L4.21157 16.4985L3.56219 16.7988L4.32171 18.4968L4.99234 18.1867L5.77308 19.8748L5.08124 20.1948L5.77493 21.7456C5.79732 21.7957 5.82331 21.843 5.85246 21.8874L6.55384 21.563L6.9013 22.3144L6.88689 22.3175C6.95748 22.3031 7.02759 22.2808 7.09609 22.2501L8.61931 21.5688L8.25314 20.7771L9.08939 20.3904L8.30392 18.7044L7.47238 19.0889L6.69162 17.4008L7.51844 17.0183L6.73296 15.3323L5.91089 15.7125ZM7.64059 14.9125L9.30932 14.1408L8.52859 12.4527L6.85514 13.2266L7.64059 14.9125ZM11.0086 13.3549L9.30932 14.1408L10.0901 15.829L8.42607 16.5986L9.06184 17.9632L10.7192 17.1893L10.0901 15.829L11.7894 15.0431L12.4159 16.3979L14.1228 15.6009L13.4885 14.2573L15.1057 13.5094L14.3111 11.8276L12.7079 12.569L11.927 10.8809L13.5164 10.1458L12.7219 8.46406L11.1464 9.19267L10.3656 7.50447L11.9272 6.78227L11.5434 5.96986C11.4496 5.7714 11.2134 5.68558 11.0141 5.77755L9.82149 6.32788L10.3656 7.50447L8.66633 8.29037L8.12151 7.11233L6.42179 7.89667L6.96728 9.07616L5.28418 9.85456L6.06966 11.5406L7.74783 10.7645L8.52859 12.4527L10.2279 11.6668L11.0086 13.3549ZM9.99703 19.9706L10.3756 20.7832L10.5121 20.7221C10.7138 20.6319 10.8041 20.3953 10.7139 20.1937L10.5084 19.7342L9.99703 19.9706ZM25.3087 15.3196L24.5232 17.0056L25.3775 17.4008L26.1582 15.7125L25.3087 15.3196ZM27.0768 18.1867L25.3775 17.4008L24.5968 19.0889L23.7377 18.6916L22.9522 20.3776L23.816 20.7771L23.4514 21.5653L24.9824 22.2501C25.0435 22.2775 25.1058 22.2982 25.1687 22.3125L25.5153 21.563L26.2383 21.8947L26.9955 20.2011L26.8241 20.1191L26.2961 19.8748L27.0768 18.1867ZM27.8576 16.4985L27.0768 18.1867L27.651 18.4522L27.7561 18.5001L28.5161 16.8003L28.508 16.7967L28.507 16.7988L28.2744 16.6912L28.2551 16.6826L27.8576 16.4985ZM28.6383 14.8103L26.939 14.0243L26.1582 15.7125L27.8576 16.4985L28.6383 14.8103ZM28.6383 14.8103L29.1964 15.0684L29.2746 15.1038L29.622 14.3269C29.8016 13.9254 29.6949 13.4684 29.3892 13.1851L29.3869 13.1916L29.3753 13.2168L29.2652 13.4663L29.2608 13.4642L28.6383 14.8103ZM26.939 14.0243L27.5732 12.6529L27.5717 12.6522L27.7013 12.3723L26.8576 11.9949L26.0941 13.6336L26.939 14.0243ZM21.6675 20.7674L22.0446 19.9579L21.5685 19.7377L21.3646 20.1937C21.2744 20.3953 21.3647 20.6319 21.5664 20.7221L21.6675 20.7674Z" fill="#212121"/>
</svg>
