<svg width="32" height="32" viewBox="0 0 32 32" fill="none" xmlns="http://www.w3.org/2000/svg">
<path d="M7.54999 9.16C7.40726 9.48229 7.33078 9.81729 7.31468 10.1496C7.26084 11.261 7.88227 12.3427 8.95999 12.82C10.0376 13.2972 11.2574 13.0339 12.0448 12.2488C12.2794 12.0149 12.4756 11.7347 12.6182 11.414L12.62 11.41L7.54999 9.16Z" fill="#212121"/>
<path d="M19.107 9.95609L22.0668 6.51517L22.0621 6.51334L22.72 5.75004C22.987 5.98027 23.1995 6.25025 23.3562 6.54363C23.8799 7.52456 23.7797 8.7671 23.01 9.66004C22.2395 10.5537 21.024 10.842 19.976 10.4654C19.6721 10.3562 19.3822 10.1911 19.1215 9.96856L19.107 9.95609Z" fill="#212121"/>
<path d="M14.57 10.49C15.5807 10.49 16.4 9.67064 16.4 8.65996C16.4 7.64927 15.5807 6.82996 14.57 6.82996C13.5593 6.82996 12.74 7.64927 12.74 8.65996C12.74 9.67064 13.5593 10.49 14.57 10.49Z" fill="#212121"/>
<path d="M25.98 15.22C25.98 16.2307 25.1607 17.05 24.15 17.05C23.1393 17.05 22.32 16.2307 22.32 15.22C22.32 14.2093 23.1393 13.39 24.15 13.39C25.1607 13.39 25.98 14.2093 25.98 15.22Z" fill="#212121"/>
<path d="M14.52 18.15C15.5307 18.15 16.35 17.3307 16.35 16.32C16.35 15.3093 15.5307 14.49 14.52 14.49C13.5093 14.49 12.69 15.3093 12.69 16.32C12.69 17.3307 13.5093 18.15 14.52 18.15Z" fill="#212121"/>
<path d="M16 1C14.1957 1 12.546 1.70173 11.322 2.84122C11.0505 3.09393 10.8228 3.36024 10.6693 3.53973L10.6566 3.55455C10.4799 3.76119 10.3859 3.86907 10.2925 3.95787L10.2903 3.95996H10C5.02772 3.95996 1 7.98768 1 12.96V18.23C1 25.0111 6.49656 30.52 13.28 30.52H18.69C25.4734 30.52 30.97 25.0111 30.97 18.23V12.96C30.97 8.89775 28.2817 5.46599 24.5864 4.34584C24.5527 4.33319 24.5183 4.32301 24.4835 4.31532C23.6858 4.08397 22.8425 3.95996 21.97 3.95996H21.7097L21.7075 3.95787C21.6023 3.85781 21.5014 3.74072 21.3074 3.51529L21.3066 3.51438C21.1378 3.31816 20.8864 3.02597 20.5788 2.75067C19.3657 1.66466 17.7558 1 16 1ZM21.1443 6.04649L22.289 4.7184C22.4693 4.50922 22.785 4.48581 22.9942 4.66613L23.3729 4.99263C24.951 6.35308 25.1282 8.73449 23.7674 10.313C23.3085 10.8453 22.732 11.2201 22.1087 11.4296C21.4198 11.3836 20.7461 11.4233 20.098 11.5397C19.5104 11.4106 18.9448 11.1374 18.4548 10.7142L18.08 11.15C17.8183 11.4539 17.8416 11.8931 18.1018 12.1731C17.8579 12.287 17.6205 12.4128 17.3903 12.5497C16.5114 13.0682 15.4096 13.1097 14.4948 12.6746C14.4705 12.4107 14.3124 12.1621 14.05 12.04L13.5356 11.8121L13.5343 11.8149C12.6899 13.7218 10.4582 14.5772 8.55506 13.7344C6.64911 12.8903 5.79362 10.6603 6.63447 8.75774L6.11999 8.53002C5.67999 8.33002 5.17999 8.58002 5.05999 9.04002C4.74229 10.327 4.93781 11.6603 5.54975 12.7777C5.03891 13.1198 4.56842 13.5176 4.14737 13.9616C3.89651 13.2508 3.76001 12.4862 3.76001 11.69C3.76001 11.59 3.76001 11.48 3.77001 11.38C3.95001 8.97 5.89001 7.03 8.29001 6.86C8.32001 6.85 8.35001 6.85 8.38001 6.85C9.88001 6.77 11.25 6.02 12.19 4.84C13.08 3.72 14.46 3 16 3C17.54 3 18.92 3.72 19.81 4.84C20.1908 5.31806 20.6422 5.72554 21.1443 6.04649ZM4.58183 14.9758C5.02395 14.4496 5.5398 13.9869 6.11258 13.6043C6.60296 14.1924 7.23225 14.6795 7.97999 15.01C10.1485 15.9686 12.6288 15.3248 14.0667 13.5783C15.28 14.1551 16.7334 14.099 17.9 13.41C18.3369 13.1501 18.8037 12.9358 19.2939 12.7732C20.1615 12.4854 21.1024 12.3597 22.08 12.43C22.4075 12.453 22.7293 12.4986 23.0437 12.5651C24.7527 12.9268 26.2454 13.9089 27.2734 15.2603C27.0752 15.716 26.82 16.1414 26.5168 16.5272C25.4581 17.8742 23.8144 18.7399 21.97 18.7399H10C7.51885 18.7399 5.40067 17.1731 4.58183 14.9758ZM27.7427 14.2522C26.8036 13.166 25.5832 12.3241 24.1966 11.8481C24.4212 11.6634 24.6333 11.4574 24.83 11.23C25.7105 10.2063 26.1211 8.93504 26.0783 7.68179C27.286 8.49944 28.1153 9.8443 28.23 11.38C28.23 11.4363 28.2326 11.49 28.2352 11.5424C28.2376 11.5923 28.24 11.6412 28.24 11.69C28.24 12.5959 28.0633 13.4609 27.7427 14.2522ZM28.97 18.23C28.97 23.9088 24.3666 28.52 18.69 28.52H13.28C7.60344 28.52 3 23.9088 3 18.23V16.8374C4.36444 19.2965 6.98706 20.96 10 20.96H21.97C24.9829 20.96 27.6056 19.2965 28.97 16.8374V18.23Z" fill="#212121"/>
</svg>
