<svg width="32" height="32" viewBox="0 0 32 32" fill="none" xmlns="http://www.w3.org/2000/svg">
<g filter="url(#filter0_i_20020_2100)">
<path d="M12.5578 5.4577C12.2316 4.03909 13.1482 2.59971 14.5668 2.2735C15.9854 1.94728 17.4174 2.81471 17.7437 4.23332L19.2714 11.2263L19.3523 5.81442C19.374 4.35896 20.5715 3.1967 22.027 3.21843C23.4824 3.24017 24.6447 4.43768 24.623 5.89314L24.5114 13.3647C24.5032 13.9119 24.5699 14.4576 24.7097 14.9867L25.2085 16.8752C25.555 17.9622 26.2378 20.7375 25.6365 22.7859C25.0251 25.4355 22.8646 27.5552 20.9895 28.6151C19.1143 29.6749 17.0456 30.1947 14.0189 29.7667C10.1158 28.931 7.90434 26.1896 7.11963 22.6432C6.4511 19.9039 6.07895 17.0085 5.91879 15.8835L14.5049 13.7668L12.5578 5.4577Z" fill="#AA7A77"/>
<path d="M12.5578 5.4577C12.2316 4.03909 13.1482 2.59971 14.5668 2.2735C15.9854 1.94728 17.4174 2.81471 17.7437 4.23332L19.2714 11.2263L19.3523 5.81442C19.374 4.35896 20.5715 3.1967 22.027 3.21843C23.4824 3.24017 24.6447 4.43768 24.623 5.89314L24.5114 13.3647C24.5032 13.9119 24.5699 14.4576 24.7097 14.9867L25.2085 16.8752C25.555 17.9622 26.2378 20.7375 25.6365 22.7859C25.0251 25.4355 22.8646 27.5552 20.9895 28.6151C19.1143 29.6749 17.0456 30.1947 14.0189 29.7667C10.1158 28.931 7.90434 26.1896 7.11963 22.6432C6.4511 19.9039 6.07895 17.0085 5.91879 15.8835L14.5049 13.7668L12.5578 5.4577Z" fill="url(#paint0_radial_20020_2100)"/>
</g>
<g filter="url(#filter1_f_20020_2100)">
<rect x="7.86926" y="13.3203" width="5.30918" height="6.74556" transform="rotate(-8.49371 7.86926 13.3203)" fill="#5C3339"/>
</g>
<g filter="url(#filter2_f_20020_2100)">
<path d="M24.9235 21.0661C24.9146 20.8989 24.9016 20.7325 24.8852 20.5682C24.1947 16.8047 20.9355 16 19.8479 16H18.0185C16.6177 16.0052 15.4837 17.1274 15.4837 18.5109C15.4837 19.5128 16.0783 20.3777 16.9384 20.7806L16.9373 20.7854C17.0186 20.8274 17.1518 20.8788 17.3313 20.9265C17.4022 20.9464 17.4744 20.9633 17.5476 20.9772C17.8251 21.0339 18.1777 21.0765 18.5926 21.0765C18.6226 21.0765 18.652 21.0765 18.6806 21.0765V21.0661H24.9235Z" fill="#5C3339"/>
</g>
<rect x="5.33575" y="12.0057" width="5.18159" height="7.43698" rx="2.5908" transform="rotate(-8.49371 5.33575 12.0057)" fill="#A98168"/>
<rect x="5.33575" y="12.0057" width="5.18159" height="7.43698" rx="2.5908" transform="rotate(-8.49371 5.33575 12.0057)" fill="url(#paint1_linear_20020_2100)"/>
<rect x="5.33575" y="12.0057" width="5.18159" height="7.43698" rx="2.5908" transform="rotate(-8.49371 5.33575 12.0057)" fill="url(#paint2_radial_20020_2100)"/>
<rect x="5.33575" y="12.0057" width="5.18159" height="7.43698" rx="2.5908" transform="rotate(-8.49371 5.33575 12.0057)" fill="url(#paint3_linear_20020_2100)"/>
<path d="M12.5578 5.4577C12.2316 4.0391 13.1482 2.59971 14.5668 2.2735C15.9854 1.94728 17.4174 2.81472 17.7437 4.23332L19.4631 11.9671C19.7893 13.3857 18.2756 13.4046 17.1506 13.7171C16.0256 14.0296 14.5081 14.0834 14.1818 12.6648L12.5578 5.4577Z" fill="url(#paint4_linear_20020_2100)"/>
<path d="M12.5578 5.4577C12.2316 4.0391 13.1482 2.59971 14.5668 2.2735C15.9854 1.94728 17.4174 2.81472 17.7437 4.23332L19.4631 11.9671C19.7893 13.3857 18.2756 13.4046 17.1506 13.7171C16.0256 14.0296 14.5081 14.0834 14.1818 12.6648L12.5578 5.4577Z" fill="url(#paint5_linear_20020_2100)"/>
<path d="M12.5578 5.4577C12.2316 4.0391 13.1482 2.59971 14.5668 2.2735C15.9854 1.94728 17.4174 2.81472 17.7437 4.23332L19.4631 11.9671C19.7893 13.3857 18.2756 13.4046 17.1506 13.7171C16.0256 14.0296 14.5081 14.0834 14.1818 12.6648L12.5578 5.4577Z" fill="url(#paint6_linear_20020_2100)"/>
<path d="M12.5578 5.4577C12.2316 4.0391 13.1482 2.59971 14.5668 2.2735C15.9854 1.94728 17.4174 2.81472 17.7437 4.23332L19.4631 11.9671C19.7893 13.3857 18.2756 13.4046 17.1506 13.7171C16.0256 14.0296 14.5081 14.0834 14.1818 12.6648L12.5578 5.4577Z" fill="url(#paint7_linear_20020_2100)"/>
<path d="M12.5578 5.4577C12.2316 4.0391 13.1482 2.59971 14.5668 2.2735C15.9854 1.94728 17.4174 2.81472 17.7437 4.23332L19.4631 11.9671C19.7893 13.3857 18.2756 13.4046 17.1506 13.7171C16.0256 14.0296 14.5081 14.0834 14.1818 12.6648L12.5578 5.4577Z" fill="url(#paint8_radial_20020_2100)"/>
<path d="M19.3037 5.81443C19.3254 4.35896 20.5229 3.1967 21.9784 3.21844C23.4339 3.24018 24.645 4.43737 24.6233 5.89284L24.5373 11.6585C24.5156 13.1139 23.4339 13.4575 21.9784 13.4358C20.5229 13.4141 19.2819 13.0487 19.3037 11.5932L19.3037 5.81443Z" fill="url(#paint9_linear_20020_2100)"/>
<path d="M19.3037 5.81443C19.3254 4.35896 20.5229 3.1967 21.9784 3.21844C23.4339 3.24018 24.645 4.43737 24.6233 5.89284L24.5373 11.6585C24.5156 13.1139 23.4339 13.4575 21.9784 13.4358C20.5229 13.4141 19.2819 13.0487 19.3037 11.5932L19.3037 5.81443Z" fill="url(#paint10_linear_20020_2100)"/>
<path d="M19.3037 5.81443C19.3254 4.35896 20.5229 3.1967 21.9784 3.21844C23.4339 3.24018 24.645 4.43737 24.6233 5.89284L24.5373 11.6585C24.5156 13.1139 23.4339 13.4575 21.9784 13.4358C20.5229 13.4141 19.2819 13.0487 19.3037 11.5932L19.3037 5.81443Z" fill="url(#paint11_radial_20020_2100)"/>
<path d="M12.5578 5.4577C12.2316 4.03909 13.1482 2.59971 14.5668 2.2735C15.9854 1.94728 17.4174 2.81471 17.7437 4.23332L19.2714 11.2263L19.3523 5.81442C19.374 4.35896 20.5715 3.1967 22.027 3.21843C23.4824 3.24017 24.6447 4.43768 24.623 5.89314L24.5114 13.3647C24.5032 13.9119 24.5699 14.4576 24.7097 14.9867L25.2085 16.8752C25.555 17.9622 26.2378 20.7375 25.6365 22.7859C25.0251 25.4355 22.8646 27.5552 20.9895 28.6151C19.1143 29.6749 17.0456 30.1947 14.0189 29.7667C10.1158 28.931 7.90434 26.1896 7.11963 22.6432C6.4511 19.9039 6.07895 17.0085 5.91879 15.8835L14.5049 13.7668L12.5578 5.4577Z" fill="url(#paint12_radial_20020_2100)"/>
<g filter="url(#filter3_f_20020_2100)">
<rect x="9.10492" y="12.5361" width="0.873951" height="5.30293" rx="0.436975" transform="rotate(-8.13858 9.10492 12.5361)" fill="#6C4839"/>
</g>
<rect x="9.19467" y="10.4371" width="5.30918" height="8.69331" rx="2.5908" transform="rotate(-8.49371 9.19467 10.4371)" fill="#BC8E76"/>
<rect x="9.19467" y="10.4371" width="5.30918" height="8.69331" rx="2.5908" transform="rotate(-8.49371 9.19467 10.4371)" fill="url(#paint13_linear_20020_2100)"/>
<rect x="9.19467" y="10.4371" width="5.30918" height="8.69331" rx="2.5908" transform="rotate(-8.49371 9.19467 10.4371)" fill="url(#paint14_radial_20020_2100)"/>
<rect x="9.19467" y="10.4371" width="5.30918" height="8.69331" rx="2.5908" transform="rotate(-8.49371 9.19467 10.4371)" fill="url(#paint15_radial_20020_2100)"/>
<g opacity="0.5" filter="url(#filter4_f_20020_2100)">
<rect x="8.33612" y="13.4322" width="1.01905" height="3.65325" rx="0.509526" transform="rotate(-8.33034 8.33612 13.4322)" fill="url(#paint16_linear_20020_2100)"/>
</g>
<g opacity="0.5" filter="url(#filter5_f_20020_2100)">
<rect x="11.7748" y="11.1143" width="1.98407" height="5.58761" rx="0.992035" transform="rotate(-8.33034 11.7748 11.1143)" fill="url(#paint17_linear_20020_2100)"/>
</g>
<g filter="url(#filter6_f_20020_2100)">
<path d="M15.9728 4.48706L17.6829 11.7242" stroke="#C49D85" stroke-width="1.5" stroke-linecap="square"/>
</g>
<g filter="url(#filter7_f_20020_2100)">
<path d="M22.9046 5.15881L22.6297 13.1288" stroke="#CBA38C" stroke-width="1.5" stroke-linecap="square"/>
</g>
<path d="M25.8208 19.8483C25.9172 20.8303 25.9026 21.8793 25.6365 22.7859C25.2429 24.4914 24.2075 25.9774 23.0196 27.1025L21.523 24.7702C21.6701 22.4795 21.363 21.3138 20.9834 20.8785C20.5555 20.3878 20.3006 20.3878 19.2306 20.3878C18.796 20.3878 18.4268 20.3425 18.1361 20.2824C18.0594 20.2677 17.9838 20.2497 17.9096 20.2286C17.7216 20.1779 17.5821 20.1234 17.4969 20.0788L17.4981 20.0737C16.5974 19.6461 15.9746 18.7283 15.9746 17.6649C15.9746 16.1965 17.1622 15.0055 18.6293 15H20.5452C21.6842 15 25.0976 15.8541 25.8208 19.8483Z" fill="#B18481"/>
<path d="M25.8208 19.8483C25.9172 20.8303 25.9026 21.8793 25.6365 22.7859C25.2429 24.4914 24.2075 25.9774 23.0196 27.1025L21.523 24.7702C21.6701 22.4795 21.363 21.3138 20.9834 20.8785C20.5555 20.3878 20.3006 20.3878 19.2306 20.3878C18.796 20.3878 18.4268 20.3425 18.1361 20.2824C18.0594 20.2677 17.9838 20.2497 17.9096 20.2286C17.7216 20.1779 17.5821 20.1234 17.4969 20.0788L17.4981 20.0737C16.5974 19.6461 15.9746 18.7283 15.9746 17.6649C15.9746 16.1965 17.1622 15.0055 18.6293 15H20.5452C21.6842 15 25.0976 15.8541 25.8208 19.8483Z" fill="url(#paint18_radial_20020_2100)"/>
<path d="M25.8208 19.8483C25.9172 20.8303 25.9026 21.8793 25.6365 22.7859C25.2429 24.4914 24.2075 25.9774 23.0196 27.1025L21.523 24.7702C21.6701 22.4795 21.363 21.3138 20.9834 20.8785C20.5555 20.3878 20.3006 20.3878 19.2306 20.3878C18.796 20.3878 18.4268 20.3425 18.1361 20.2824C18.0594 20.2677 17.9838 20.2497 17.9096 20.2286C17.7216 20.1779 17.5821 20.1234 17.4969 20.0788L17.4981 20.0737C16.5974 19.6461 15.9746 18.7283 15.9746 17.6649C15.9746 16.1965 17.1622 15.0055 18.6293 15H20.5452C21.6842 15 25.0976 15.8541 25.8208 19.8483Z" fill="url(#paint19_radial_20020_2100)"/>
<path d="M25.8208 19.8483C25.9172 20.8303 25.9026 21.8793 25.6365 22.7859C25.2429 24.4914 24.2075 25.9774 23.0196 27.1025L21.523 24.7702C21.6701 22.4795 21.363 21.3138 20.9834 20.8785C20.5555 20.3878 20.3006 20.3878 19.2306 20.3878C18.796 20.3878 18.4268 20.3425 18.1361 20.2824C18.0594 20.2677 17.9838 20.2497 17.9096 20.2286C17.7216 20.1779 17.5821 20.1234 17.4969 20.0788L17.4981 20.0737C16.5974 19.6461 15.9746 18.7283 15.9746 17.6649C15.9746 16.1965 17.1622 15.0055 18.6293 15H20.5452C21.6842 15 25.0976 15.8541 25.8208 19.8483Z" fill="url(#paint20_radial_20020_2100)"/>
<path d="M25.8208 19.8483C25.9172 20.8303 25.9026 21.8793 25.6365 22.7859C25.2429 24.4914 24.2075 25.9774 23.0196 27.1025L21.523 24.7702C21.6701 22.4795 21.363 21.3138 20.9834 20.8785C20.5555 20.3878 20.3006 20.3878 19.2306 20.3878C18.796 20.3878 18.4268 20.3425 18.1361 20.2824C18.0594 20.2677 17.9838 20.2497 17.9096 20.2286C17.7216 20.1779 17.5821 20.1234 17.4969 20.0788L17.4981 20.0737C16.5974 19.6461 15.9746 18.7283 15.9746 17.6649C15.9746 16.1965 17.1622 15.0055 18.6293 15H20.5452C21.6842 15 25.0976 15.8541 25.8208 19.8483Z" fill="url(#paint21_linear_20020_2100)"/>
<g filter="url(#filter8_f_20020_2100)">
<path d="M19.184 17.1597H20.9911C22.1846 17.1597 23.4217 17.5615 23.9145 18.6486C24.1753 19.224 24.3748 19.9589 24.3748 20.8584" stroke="url(#paint22_linear_20020_2100)" stroke-width="1.5" stroke-linecap="round"/>
</g>
<path fill-rule="evenodd" clip-rule="evenodd" d="M14.5668 2.2735C13.1482 2.59971 12.2316 4.03909 12.5578 5.4577L14.5049 13.7668L10.968 14.6387L11.1763 16.0335C11.3876 17.4486 10.4117 18.7672 8.99657 18.9785C7.58141 19.1898 6.26286 18.214 6.05152 16.7988L5.97876 16.3116C6.16352 17.6373 6.5239 20.2022 7.11962 22.6432C7.90433 26.1896 10.1158 28.931 14.0189 29.7667C17.0456 30.1947 19.1143 29.6749 20.9895 28.6151C22.8646 27.5552 25.0251 25.4355 25.6365 22.7859C26.2378 20.7375 25.555 17.9622 25.2085 16.8752L24.7097 14.9867C24.5699 14.4576 24.5032 13.9119 24.5114 13.3647L24.6229 5.89314C24.6447 4.43768 23.4824 3.24017 22.027 3.21843C20.5715 3.1967 19.374 4.35896 19.3523 5.81442L19.2714 11.2263L17.7437 4.23332C17.4174 2.81471 15.9854 1.94728 14.5668 2.2735Z" fill="url(#paint23_radial_20020_2100)"/>
<path fill-rule="evenodd" clip-rule="evenodd" d="M14.5668 2.2735C13.1482 2.59971 12.2316 4.03909 12.5578 5.4577L14.5049 13.7668L10.968 14.6387L11.1763 16.0335C11.3876 17.4486 10.4117 18.7672 8.99657 18.9785C7.58141 19.1898 6.26286 18.214 6.05152 16.7988L5.97876 16.3116C6.16352 17.6373 6.5239 20.2022 7.11962 22.6432C7.90433 26.1896 10.1158 28.931 14.0189 29.7667C17.0456 30.1947 19.1143 29.6749 20.9895 28.6151C22.8646 27.5552 25.0251 25.4355 25.6365 22.7859C26.2378 20.7375 25.555 17.9622 25.2085 16.8752L24.7097 14.9867C24.5699 14.4576 24.5032 13.9119 24.5114 13.3647L24.6229 5.89314C24.6447 4.43768 23.4824 3.24017 22.027 3.21843C20.5715 3.1967 19.374 4.35896 19.3523 5.81442L19.2714 11.2263L17.7437 4.23332C17.4174 2.81471 15.9854 1.94728 14.5668 2.2735Z" fill="url(#paint24_radial_20020_2100)"/>
<path fill-rule="evenodd" clip-rule="evenodd" d="M14.5668 2.2735C13.1482 2.59971 12.2316 4.03909 12.5578 5.4577L14.5049 13.7668L10.968 14.6387L11.1763 16.0335C11.3876 17.4486 10.4117 18.7672 8.99657 18.9785C7.58141 19.1898 6.26286 18.214 6.05152 16.7988L5.97876 16.3116C6.16352 17.6373 6.5239 20.2022 7.11962 22.6432C7.90433 26.1896 10.1158 28.931 14.0189 29.7667C17.0456 30.1947 19.1143 29.6749 20.9895 28.6151C22.8646 27.5552 25.0251 25.4355 25.6365 22.7859C26.2378 20.7375 25.555 17.9622 25.2085 16.8752L24.7097 14.9867C24.5699 14.4576 24.5032 13.9119 24.5114 13.3647L24.6229 5.89314C24.6447 4.43768 23.4824 3.24017 22.027 3.21843C20.5715 3.1967 19.374 4.35896 19.3523 5.81442L19.2714 11.2263L17.7437 4.23332C17.4174 2.81471 15.9854 1.94728 14.5668 2.2735Z" fill="url(#paint25_radial_20020_2100)"/>
<defs>
<filter id="filter0_i_20020_2100" x="5.91879" y="1.4549" width="20.4565" height="28.4618" filterUnits="userSpaceOnUse" color-interpolation-filters="sRGB">
<feFlood flood-opacity="0" result="BackgroundImageFix"/>
<feBlend mode="normal" in="SourceGraphic" in2="BackgroundImageFix" result="shape"/>
<feColorMatrix in="SourceAlpha" type="matrix" values="0 0 0 0 0 0 0 0 0 0 0 0 0 0 0 0 0 0 127 0" result="hardAlpha"/>
<feOffset dx="0.5" dy="-0.75"/>
<feGaussianBlur stdDeviation="0.75"/>
<feComposite in2="hardAlpha" operator="arithmetic" k2="-1" k3="1"/>
<feColorMatrix type="matrix" values="0 0 0 0 0.596078 0 0 0 0 0.341176 0 0 0 0 0.513726 0 0 0 1 0"/>
<feBlend mode="normal" in2="shape" result="effect1_innerShadow_20020_2100"/>
</filter>
<filter id="filter1_f_20020_2100" x="5.86926" y="10.5361" width="10.2473" height="11.4557" filterUnits="userSpaceOnUse" color-interpolation-filters="sRGB">
<feFlood flood-opacity="0" result="BackgroundImageFix"/>
<feBlend mode="normal" in="SourceGraphic" in2="BackgroundImageFix" result="shape"/>
<feGaussianBlur stdDeviation="1" result="effect1_foregroundBlur_20020_2100"/>
</filter>
<filter id="filter2_f_20020_2100" x="13.4837" y="14" width="13.4398" height="9.07648" filterUnits="userSpaceOnUse" color-interpolation-filters="sRGB">
<feFlood flood-opacity="0" result="BackgroundImageFix"/>
<feBlend mode="normal" in="SourceGraphic" in2="BackgroundImageFix" result="shape"/>
<feGaussianBlur stdDeviation="1" result="effect1_foregroundBlur_20020_2100"/>
</filter>
<filter id="filter3_f_20020_2100" x="8.16232" y="11.4698" width="3.50107" height="7.25848" filterUnits="userSpaceOnUse" color-interpolation-filters="sRGB">
<feFlood flood-opacity="0" result="BackgroundImageFix"/>
<feBlend mode="normal" in="SourceGraphic" in2="BackgroundImageFix" result="shape"/>
<feGaussianBlur stdDeviation="0.5" result="effect1_foregroundBlur_20020_2100"/>
</filter>
<filter id="filter4_f_20020_2100" x="7.65451" y="12.6029" width="2.90082" height="5.12561" filterUnits="userSpaceOnUse" color-interpolation-filters="sRGB">
<feFlood flood-opacity="0" result="BackgroundImageFix"/>
<feBlend mode="normal" in="SourceGraphic" in2="BackgroundImageFix" result="shape"/>
<feGaussianBlur stdDeviation="0.375" result="effect1_foregroundBlur_20020_2100"/>
</filter>
<filter id="filter5_f_20020_2100" x="11.1579" y="10.21" width="4.00641" height="7.0498" filterUnits="userSpaceOnUse" color-interpolation-filters="sRGB">
<feFlood flood-opacity="0" result="BackgroundImageFix"/>
<feBlend mode="normal" in="SourceGraphic" in2="BackgroundImageFix" result="shape"/>
<feGaussianBlur stdDeviation="0.375" result="effect1_foregroundBlur_20020_2100"/>
</filter>
<filter id="filter6_f_20020_2100" x="13.5705" y="2.08472" width="6.51477" height="12.0418" filterUnits="userSpaceOnUse" color-interpolation-filters="sRGB">
<feFlood flood-opacity="0" result="BackgroundImageFix"/>
<feBlend mode="normal" in="SourceGraphic" in2="BackgroundImageFix" result="shape"/>
<feGaussianBlur stdDeviation="0.75" result="effect1_foregroundBlur_20020_2100"/>
</filter>
<filter id="filter7_f_20020_2100" x="20.3543" y="2.88342" width="4.82562" height="12.5208" filterUnits="userSpaceOnUse" color-interpolation-filters="sRGB">
<feFlood flood-opacity="0" result="BackgroundImageFix"/>
<feBlend mode="normal" in="SourceGraphic" in2="BackgroundImageFix" result="shape"/>
<feGaussianBlur stdDeviation="0.75" result="effect1_foregroundBlur_20020_2100"/>
</filter>
<filter id="filter8_f_20020_2100" x="16.934" y="14.9097" width="9.6908" height="8.19873" filterUnits="userSpaceOnUse" color-interpolation-filters="sRGB">
<feFlood flood-opacity="0" result="BackgroundImageFix"/>
<feBlend mode="normal" in="SourceGraphic" in2="BackgroundImageFix" result="shape"/>
<feGaussianBlur stdDeviation="0.75" result="effect1_foregroundBlur_20020_2100"/>
</filter>
<radialGradient id="paint0_radial_20020_2100" cx="0" cy="0" r="1" gradientUnits="userSpaceOnUse" gradientTransform="translate(20.8295 20.2519) rotate(139.399) scale(5.03756 4.51569)">
<stop stop-color="#AE8482"/>
<stop offset="1" stop-color="#AE8482" stop-opacity="0"/>
</radialGradient>
<linearGradient id="paint1_linear_20020_2100" x1="5.59694" y1="16.4313" x2="7.45494" y2="16.3883" gradientUnits="userSpaceOnUse">
<stop stop-color="#916C5D"/>
<stop offset="1" stop-color="#916C5D" stop-opacity="0"/>
</linearGradient>
<radialGradient id="paint2_radial_20020_2100" cx="0" cy="0" r="1" gradientUnits="userSpaceOnUse" gradientTransform="translate(7.03837 19.4266) rotate(-76.8213) scale(4.05977 5.49119)">
<stop stop-color="#8D5369"/>
<stop offset="1" stop-color="#8D5369" stop-opacity="0"/>
</radialGradient>
<linearGradient id="paint3_linear_20020_2100" x1="5.44803" y1="16.419" x2="6.14148" y2="16.3905" gradientUnits="userSpaceOnUse">
<stop stop-color="#9C7467"/>
<stop offset="1" stop-color="#9C7467" stop-opacity="0"/>
</linearGradient>
<linearGradient id="paint4_linear_20020_2100" x1="13.3846" y1="8.67473" x2="16.3455" y2="7.93449" gradientUnits="userSpaceOnUse">
<stop stop-color="#805943"/>
<stop offset="1" stop-color="#805943" stop-opacity="0"/>
</linearGradient>
<linearGradient id="paint5_linear_20020_2100" x1="13.2677" y1="8.65525" x2="13.969" y2="8.53837" gradientUnits="userSpaceOnUse">
<stop stop-color="#906B58"/>
<stop offset="1" stop-color="#906B58" stop-opacity="0"/>
</linearGradient>
<linearGradient id="paint6_linear_20020_2100" x1="19.272" y1="9.75002" x2="18.0338" y2="10.0871" gradientUnits="userSpaceOnUse">
<stop stop-color="#95735F"/>
<stop offset="0.990345" stop-color="#95735F" stop-opacity="0"/>
</linearGradient>
<linearGradient id="paint7_linear_20020_2100" x1="16.9943" y1="15.2171" x2="16.4787" y2="11.2796" gradientUnits="userSpaceOnUse">
<stop offset="0.306897" stop-color="#AA7A77"/>
<stop offset="1" stop-color="#AA7A77" stop-opacity="0"/>
</linearGradient>
<radialGradient id="paint8_radial_20020_2100" cx="0" cy="0" r="1" gradientUnits="userSpaceOnUse" gradientTransform="translate(15.772 2.2049) rotate(95.1685) scale(2.77515 3.11918)">
<stop stop-color="#BD9A7D"/>
<stop offset="1" stop-color="#BD9A7D" stop-opacity="0"/>
</radialGradient>
<linearGradient id="paint9_linear_20020_2100" x1="18.9963" y1="7.80099" x2="21.8924" y2="7.9055" gradientUnits="userSpaceOnUse">
<stop stop-color="#745245"/>
<stop offset="1" stop-color="#5A3730" stop-opacity="0"/>
<stop offset="1" stop-color="#745245" stop-opacity="0"/>
</linearGradient>
<linearGradient id="paint10_linear_20020_2100" x1="21.5472" y1="13.7492" x2="21.6615" y2="11.1069" gradientUnits="userSpaceOnUse">
<stop stop-color="#AA7A77"/>
<stop offset="1" stop-color="#AA7A77" stop-opacity="0"/>
</linearGradient>
<radialGradient id="paint11_radial_20020_2100" cx="0" cy="0" r="1" gradientUnits="userSpaceOnUse" gradientTransform="translate(23.8769 3.21814) rotate(111.633) scale(3.88192 3.36866)">
<stop stop-color="#BD9A7D"/>
<stop offset="1" stop-color="#BD9A7D" stop-opacity="0"/>
</radialGradient>
<radialGradient id="paint12_radial_20020_2100" cx="0" cy="0" r="1" gradientUnits="userSpaceOnUse" gradientTransform="translate(24.6612 16.5195) rotate(-167.551) scale(11.1157 8.78497)">
<stop stop-color="#D0A78D"/>
<stop offset="1" stop-color="#D0A78D" stop-opacity="0"/>
</radialGradient>
<linearGradient id="paint13_linear_20020_2100" x1="9.46229" y1="15.6102" x2="11.3663" y2="15.5716" gradientUnits="userSpaceOnUse">
<stop stop-color="#795445"/>
<stop offset="1" stop-color="#795445" stop-opacity="0"/>
</linearGradient>
<radialGradient id="paint14_radial_20020_2100" cx="0" cy="0" r="1" gradientUnits="userSpaceOnUse" gradientTransform="translate(9.73951 8.37029) rotate(70.6597) scale(4.41732 3.70064)">
<stop stop-color="#795445"/>
<stop offset="1" stop-color="#795445" stop-opacity="0"/>
</radialGradient>
<radialGradient id="paint15_radial_20020_2100" cx="0" cy="0" r="1" gradientUnits="userSpaceOnUse" gradientTransform="translate(11.1962 19.1569) rotate(-77.8191) scale(2.83317 4.49658)">
<stop stop-color="#90566B"/>
<stop offset="1" stop-color="#90566B" stop-opacity="0"/>
</radialGradient>
<linearGradient id="paint16_linear_20020_2100" x1="9.04987" y1="16.4134" x2="9.07362" y2="12.5786" gradientUnits="userSpaceOnUse">
<stop stop-color="#B78B7F"/>
<stop offset="1" stop-color="#B78B7F" stop-opacity="0"/>
</linearGradient>
<linearGradient id="paint17_linear_20020_2100" x1="13.1644" y1="15.674" x2="13.078" y2="8.4112" gradientUnits="userSpaceOnUse">
<stop stop-color="#DDB49F"/>
<stop offset="1" stop-color="#DDB49F" stop-opacity="0"/>
</linearGradient>
<radialGradient id="paint18_radial_20020_2100" cx="0" cy="0" r="1" gradientUnits="userSpaceOnUse" gradientTransform="translate(19.057 24.5799) rotate(-71.9433) scale(10.328 13.8167)">
<stop offset="0.816234" stop-color="#AD8768" stop-opacity="0"/>
<stop offset="1" stop-color="#88614F"/>
<stop offset="1" stop-color="#AD8768"/>
</radialGradient>
<radialGradient id="paint19_radial_20020_2100" cx="0" cy="0" r="1" gradientUnits="userSpaceOnUse" gradientTransform="translate(15.4916 15) rotate(30.3564) scale(3.5506 5.62295)">
<stop stop-color="#815C43"/>
<stop offset="1" stop-color="#815C43" stop-opacity="0"/>
</radialGradient>
<radialGradient id="paint20_radial_20020_2100" cx="0" cy="0" r="1" gradientUnits="userSpaceOnUse" gradientTransform="translate(19.9954 20.644) rotate(96.5827) scale(2.99005 6.10541)">
<stop stop-color="#93586F"/>
<stop offset="1" stop-color="#93586F" stop-opacity="0"/>
</radialGradient>
<linearGradient id="paint21_linear_20020_2100" x1="22.0114" y1="26.1159" x2="23.3691" y2="24.8817" gradientUnits="userSpaceOnUse">
<stop stop-color="#AA7A77"/>
<stop offset="1" stop-color="#AA7A77" stop-opacity="0"/>
</linearGradient>
<linearGradient id="paint22_linear_20020_2100" x1="19.5393" y1="17.1597" x2="25.0053" y2="20.1338" gradientUnits="userSpaceOnUse">
<stop stop-color="#CAA18C"/>
<stop offset="1" stop-color="#CAA18C" stop-opacity="0"/>
</linearGradient>
<radialGradient id="paint23_radial_20020_2100" cx="0" cy="0" r="1" gradientUnits="userSpaceOnUse" gradientTransform="translate(12.4943 20.1858) rotate(11.8499) scale(14.3049 25.7029)">
<stop offset="0.865218" stop-color="#A47F71" stop-opacity="0"/>
<stop offset="1" stop-color="#D1A88C"/>
</radialGradient>
<radialGradient id="paint24_radial_20020_2100" cx="0" cy="0" r="1" gradientUnits="userSpaceOnUse" gradientTransform="translate(10.9439 15.7069) rotate(38.5711) scale(16.629 20.6696)">
<stop offset="0.945678" stop-color="#9B5B88" stop-opacity="0"/>
<stop offset="1" stop-color="#9B5B88"/>
</radialGradient>
<radialGradient id="paint25_radial_20020_2100" cx="0" cy="0" r="1" gradientUnits="userSpaceOnUse" gradientTransform="translate(20.733 18.1498) rotate(162.562) scale(14.1075 18.8055)">
<stop offset="0.911282" stop-color="#9D716B" stop-opacity="0"/>
<stop offset="1" stop-color="#9D716B"/>
</radialGradient>
</defs>
</svg>
