<svg width="32" height="32" viewBox="0 0 32 32" fill="none" xmlns="http://www.w3.org/2000/svg">
<path d="M13 5.5C13 5.22386 12.7761 5 12.5 5C12.2239 5 12 5.22386 12 5.5C12 6.36432 11.6809 6.97582 11.2303 7.3763C10.7706 7.78495 10.1435 8 9.5 8C9.22386 8 9 8.22386 9 8.5C9 8.77614 9.22386 9 9.5 9C10.3565 9 11.2294 8.71505 11.8947 8.1237C12.5691 7.52418 13 6.63568 13 5.5Z" fill="#212121"/>
<path d="M19.5 5C19.2239 5 19 5.22386 19 5.5C19 6.63568 19.4309 7.52418 20.1053 8.1237C20.7706 8.71505 21.6435 9 22.5 9C22.7761 9 23 8.77614 23 8.5C23 8.22386 22.7761 8 22.5 8C21.8565 8 21.2294 7.78495 20.7697 7.3763C20.3191 6.97582 20 6.36432 20 5.5C20 5.22386 19.7761 5 19.5 5Z" fill="#212121"/>
<path d="M23.5003 24C24.3287 24 25.0131 23.3234 24.8766 22.5063C24.1651 18.2466 20.4617 15 16 15C11.5383 15 7.83491 18.2466 7.12339 22.5063C6.9869 23.3234 7.67127 24 8.4997 24H23.5003Z" fill="#212121"/>
<path d="M8.10555 10.5528C8.35254 10.0588 8.95321 9.85856 9.44719 10.1055L13.4472 12.1055C13.786 12.2749 14 12.6212 14 13C14 13.3787 13.786 13.725 13.4472 13.8944L9.44719 15.8944C8.95321 16.1414 8.35254 15.9412 8.10555 15.4472C7.85856 14.9532 8.05878 14.3525 8.55276 14.1055L10.7639 13L8.55276 11.8944C8.05878 11.6474 7.85856 11.0467 8.10555 10.5528Z" fill="#212121"/>
<path d="M22.5528 10.1055C23.0468 9.85856 23.6475 10.0588 23.8945 10.5528C24.1414 11.0467 23.9412 11.6474 23.4472 11.8944L21.2361 13L23.4472 14.1055C23.9412 14.3525 24.1414 14.9532 23.8945 15.4472C23.6475 15.9412 23.0468 16.1414 22.5528 15.8944L18.5528 13.8944C18.214 13.725 18 13.3787 18 13C18 12.6212 18.214 12.2749 18.5528 12.1055L22.5528 10.1055Z" fill="#212121"/>
<path d="M15.9989 1C11.0952 1 7.313 2.65419 4.76342 5.42276C2.22626 8.17785 1 11.9378 1 15.9989C1 20.06 2.22626 23.8199 4.76342 26.575C7.313 29.3436 11.0952 30.9978 15.9989 30.9978C20.9026 30.9978 24.6848 29.3436 27.2343 26.575C29.7715 23.8199 30.9978 20.06 30.9978 15.9989C30.9978 11.9378 29.7715 8.17785 27.2343 5.42276C24.6848 2.65419 20.9026 1 15.9989 1ZM3 15.9989C3 12.3286 4.10595 9.08911 6.23462 6.77759C8.35088 4.47956 11.5681 3 15.9989 3C20.4296 3 23.6469 4.47956 25.7631 6.77759C27.8918 9.08911 28.9978 12.3286 28.9978 15.9989C28.9978 19.6691 27.8918 22.9087 25.7631 25.2202C23.6469 27.5182 20.4296 28.9978 15.9989 28.9978C11.5681 28.9978 8.35088 27.5182 6.23462 25.2202C4.10595 22.9087 3 19.6691 3 15.9989Z" fill="#212121"/>
</svg>
