<svg width="32" height="32" viewBox="0 0 32 32" fill="none" xmlns="http://www.w3.org/2000/svg">
<path d="M5.75605 15H8.24998C9.21648 15 9.99998 15.7835 9.99998 16.75V19.25C9.99998 20.2165 9.21648 21 8.24998 21H5.75605C4.78955 21 4.00605 20.2165 4.00605 19.25V16.75C4.00605 15.7835 4.78955 15 5.75605 15ZM5.75605 16C5.34184 16 5.00605 16.3358 5.00605 16.75V19.25C5.00605 19.6642 5.34184 20 5.75605 20H8.24998C8.6642 20 8.99998 19.6642 8.99998 19.25V16.75C8.99998 16.3358 8.6642 16 8.24998 16H5.75605Z" fill="#212121"/>
<path d="M17.2439 15H14.75C13.7835 15 13 15.7835 13 16.75V19.25C13 20.2165 13.7835 21 14.75 21H17.2439C18.2104 21 18.9939 20.2165 18.9939 19.25V16.75C18.9939 15.7835 18.2104 15 17.2439 15ZM14 16.75C14 16.3358 14.3358 16 14.75 16H17.2439C17.6581 16 17.9939 16.3358 17.9939 16.75V19.25C17.9939 19.6642 17.6581 20 17.2439 20H14.75C14.3358 20 14 19.6642 14 19.25V16.75Z" fill="#212121"/>
<path d="M12.82 7.9939L9.83819 6.46442C9.67909 6.38281 9.57568 6.22245 9.56699 6.04385C9.55829 5.86526 9.64563 5.69561 9.79604 5.59892L14.0076 2.8919C14.0604 2.39062 14.4845 2 14.9997 2H17.0023C17.5133 2 17.9345 2.38412 17.993 2.87935L22.0984 5.60288C22.2453 5.70032 22.33 5.8679 22.3214 6.04395C22.3128 6.22 22.2122 6.37851 22.0565 6.46116L19.1693 7.9939H20C20.5523 7.9939 21 8.44161 21 8.9939V9H26.7099C29.0814 9 31.0039 10.9225 31.0039 13.294V25C31.0039 26.1046 30.1085 27 29.0039 27H27V27.5C27 27.7761 26.7761 28 26.5 28H24.0117C24.0117 29.1078 23.1136 30.0059 22.0058 30.0059C20.898 30.0059 20 29.1078 20 28L12 28C12 29.1045 11.1046 30 9.99999 30C8.89542 30 7.99998 29.1046 7.99998 28L5.50293 28C5.22679 28 5.00293 27.7761 5.00293 27.5V27H2.99902C1.89445 27 0.999023 26.1046 0.999023 25V13H1.00989C1.16099 10.7656 3.02131 9 5.29401 9H10.9948V8.9939C10.9948 8.44161 11.4425 7.9939 11.9948 7.9939H12.82ZM11.0669 5.9708L15.0111 7.9939H17.0366L20.8456 5.9718L17.5842 3.80817C17.4204 3.92598 17.2195 3.99536 17.0023 3.99536H14.9997C14.7854 3.99536 14.5869 3.92779 14.4243 3.8128L11.0669 5.9708ZM28.9852 13H3.01865C3.00633 13.0963 2.99998 13.1944 2.99998 13.294V24H22V14.75C22 14.3358 22.3358 14 22.75 14H27.25C27.6642 14 28 14.3358 28 14.75V24H29.0039V13.294C29.0039 13.1944 28.9975 13.0963 28.9852 13ZM22.9939 16.75V19.25C22.9939 19.6642 23.3297 20 23.7439 20H26.2379C26.6521 20 26.9879 19.6642 26.9879 19.25V16.75C26.9879 16.3358 26.6521 16 26.2379 16H23.7439C23.3297 16 22.9939 16.3358 22.9939 16.75Z" fill="#212121"/>
</svg>
