<svg width="32" height="32" viewBox="0 0 32 32" fill="none" xmlns="http://www.w3.org/2000/svg">
<g filter="url(#filter0_i_4002_3628)">
<path d="M6.48834 20.8916C8.28327 20.8916 9.73834 19.4365 9.73834 17.6416C9.73834 15.8467 8.28327 14.3916 6.48834 14.3916C4.69342 14.3916 3.23834 15.8467 3.23834 17.6416C3.23834 19.4365 4.69342 20.8916 6.48834 20.8916Z" fill="url(#paint0_linear_4002_3628)"/>
<path d="M6.48834 20.8916C8.28327 20.8916 9.73834 19.4365 9.73834 17.6416C9.73834 15.8467 8.28327 14.3916 6.48834 14.3916C4.69342 14.3916 3.23834 15.8467 3.23834 17.6416C3.23834 19.4365 4.69342 20.8916 6.48834 20.8916Z" fill="url(#paint1_radial_4002_3628)"/>
</g>
<g filter="url(#filter1_i_4002_3628)">
<path d="M25.4883 20.8916C27.2833 20.8916 28.7383 19.4365 28.7383 17.6416C28.7383 15.8467 27.2833 14.3916 25.4883 14.3916C23.6934 14.3916 22.2383 15.8467 22.2383 17.6416C22.2383 19.4365 23.6934 20.8916 25.4883 20.8916Z" fill="url(#paint2_radial_4002_3628)"/>
<path d="M25.4883 20.8916C27.2833 20.8916 28.7383 19.4365 28.7383 17.6416C28.7383 15.8467 27.2833 14.3916 25.4883 14.3916C23.6934 14.3916 22.2383 15.8467 22.2383 17.6416C22.2383 19.4365 23.6934 20.8916 25.4883 20.8916Z" fill="url(#paint3_radial_4002_3628)"/>
</g>
<g filter="url(#filter2_f_4002_3628)">
<path d="M25.4883 19.6709C26.6091 19.6709 27.5176 18.7623 27.5176 17.6416C27.5176 16.5208 26.6091 15.6123 25.4883 15.6123C24.3676 15.6123 23.459 16.5208 23.459 17.6416C23.459 18.7623 24.3676 19.6709 25.4883 19.6709Z" fill="url(#paint4_radial_4002_3628)"/>
<path d="M25.4883 19.6709C26.6091 19.6709 27.5176 18.7623 27.5176 17.6416C27.5176 16.5208 26.6091 15.6123 25.4883 15.6123C24.3676 15.6123 23.459 16.5208 23.459 17.6416C23.459 18.7623 24.3676 19.6709 25.4883 19.6709Z" fill="url(#paint5_radial_4002_3628)"/>
</g>
<g filter="url(#filter3_f_4002_3628)">
<path d="M6.48836 19.6709C7.6091 19.6709 8.51764 18.7623 8.51764 17.6416C8.51764 16.5208 7.6091 15.6123 6.48836 15.6123C5.36762 15.6123 4.45908 16.5208 4.45908 17.6416C4.45908 18.7623 5.36762 19.6709 6.48836 19.6709Z" fill="url(#paint6_linear_4002_3628)"/>
</g>
<g filter="url(#filter4_i_4002_3628)">
<path d="M23.6171 21.1116L29.6171 25.1416C30.1671 25.5116 30.2071 26.3116 29.6971 26.7416L26.5071 29.5516C25.7871 30.1916 24.6571 29.8916 24.3271 28.9916L22.0071 22.5016L23.6171 21.1116Z" fill="#262229"/>
<path d="M23.6171 21.1116L29.6171 25.1416C30.1671 25.5116 30.2071 26.3116 29.6971 26.7416L26.5071 29.5516C25.7871 30.1916 24.6571 29.8916 24.3271 28.9916L22.0071 22.5016L23.6171 21.1116Z" fill="url(#paint7_linear_4002_3628)"/>
<path d="M23.6171 21.1116L29.6171 25.1416C30.1671 25.5116 30.2071 26.3116 29.6971 26.7416L26.5071 29.5516C25.7871 30.1916 24.6571 29.8916 24.3271 28.9916L22.0071 22.5016L23.6171 21.1116Z" fill="url(#paint8_radial_4002_3628)"/>
<path d="M23.6171 21.1116L29.6171 25.1416C30.1671 25.5116 30.2071 26.3116 29.6971 26.7416L26.5071 29.5516C25.7871 30.1916 24.6571 29.8916 24.3271 28.9916L22.0071 22.5016L23.6171 21.1116Z" fill="url(#paint9_radial_4002_3628)"/>
<path d="M23.6171 21.1116L29.6171 25.1416C30.1671 25.5116 30.2071 26.3116 29.6971 26.7416L26.5071 29.5516C25.7871 30.1916 24.6571 29.8916 24.3271 28.9916L22.0071 22.5016L23.6171 21.1116Z" fill="url(#paint10_radial_4002_3628)"/>
</g>
<g filter="url(#filter5_i_4002_3628)">
<path d="M8.42711 21.1116L2.42711 25.1416C1.87711 25.5116 1.83711 26.3116 2.34711 26.7416L5.53711 29.5516C6.25711 30.1916 7.38711 29.8916 7.71711 28.9916L10.0371 22.5016L8.42711 21.1116Z" fill="#221F26"/>
<path d="M8.42711 21.1116L2.42711 25.1416C1.87711 25.5116 1.83711 26.3116 2.34711 26.7416L5.53711 29.5516C6.25711 30.1916 7.38711 29.8916 7.71711 28.9916L10.0371 22.5016L8.42711 21.1116Z" fill="url(#paint11_radial_4002_3628)"/>
<path d="M8.42711 21.1116L2.42711 25.1416C1.87711 25.5116 1.83711 26.3116 2.34711 26.7416L5.53711 29.5516C6.25711 30.1916 7.38711 29.8916 7.71711 28.9916L10.0371 22.5016L8.42711 21.1116Z" fill="url(#paint12_linear_4002_3628)"/>
</g>
<g filter="url(#filter6_i_4002_3628)">
<path d="M18.8471 12.8916C15.2461 12.2845 12.2655 10.5108 10.8772 7.74908C10.4939 10.0647 9.42108 12.2821 6.55521 13.5166C6.22168 13.6603 5.88675 13.8388 5.83121 14.4244L6.02399 20.1066C6.26315 25.9656 10.6475 29.8916 15.9883 29.8916C21.3193 29.8916 25.7135 25.9656 25.9527 20.1066L26.1632 13.9027C26.1716 13.6546 25.9968 13.4372 25.7507 13.4045C24.9014 13.2917 23.7749 13.2336 22.5942 13.1728C21.3142 13.1068 19.9704 13.0375 18.8471 12.8916Z" fill="url(#paint13_radial_4002_3628)"/>
<path d="M18.8471 12.8916C15.2461 12.2845 12.2655 10.5108 10.8772 7.74908C10.4939 10.0647 9.42108 12.2821 6.55521 13.5166C6.22168 13.6603 5.88675 13.8388 5.83121 14.4244L6.02399 20.1066C6.26315 25.9656 10.6475 29.8916 15.9883 29.8916C21.3193 29.8916 25.7135 25.9656 25.9527 20.1066L26.1632 13.9027C26.1716 13.6546 25.9968 13.4372 25.7507 13.4045C24.9014 13.2917 23.7749 13.2336 22.5942 13.1728C21.3142 13.1068 19.9704 13.0375 18.8471 12.8916Z" fill="url(#paint14_radial_4002_3628)"/>
<path d="M18.8471 12.8916C15.2461 12.2845 12.2655 10.5108 10.8772 7.74908C10.4939 10.0647 9.42108 12.2821 6.55521 13.5166C6.22168 13.6603 5.88675 13.8388 5.83121 14.4244L6.02399 20.1066C6.26315 25.9656 10.6475 29.8916 15.9883 29.8916C21.3193 29.8916 25.7135 25.9656 25.9527 20.1066L26.1632 13.9027C26.1716 13.6546 25.9968 13.4372 25.7507 13.4045C24.9014 13.2917 23.7749 13.2336 22.5942 13.1728C21.3142 13.1068 19.9704 13.0375 18.8471 12.8916Z" fill="url(#paint15_radial_4002_3628)"/>
<path d="M18.8471 12.8916C15.2461 12.2845 12.2655 10.5108 10.8772 7.74908C10.4939 10.0647 9.42108 12.2821 6.55521 13.5166C6.22168 13.6603 5.88675 13.8388 5.83121 14.4244L6.02399 20.1066C6.26315 25.9656 10.6475 29.8916 15.9883 29.8916C21.3193 29.8916 25.7135 25.9656 25.9527 20.1066L26.1632 13.9027C26.1716 13.6546 25.9968 13.4372 25.7507 13.4045C24.9014 13.2917 23.7749 13.2336 22.5942 13.1728C21.3142 13.1068 19.9704 13.0375 18.8471 12.8916Z" fill="url(#paint16_radial_4002_3628)"/>
</g>
<path d="M18.8471 12.8916C15.2461 12.2845 12.2655 10.5108 10.8772 7.74908C10.4939 10.0647 9.42108 12.2821 6.55521 13.5166C6.22168 13.6603 5.88675 13.8388 5.83121 14.4244L6.02399 20.1066C6.26315 25.9656 10.6475 29.8916 15.9883 29.8916C21.3193 29.8916 25.7135 25.9656 25.9527 20.1066L26.1632 13.9027C26.1716 13.6546 25.9968 13.4372 25.7507 13.4045C24.9014 13.2917 23.7749 13.2336 22.5942 13.1728C21.3142 13.1068 19.9704 13.0375 18.8471 12.8916Z" fill="url(#paint17_radial_4002_3628)"/>
<path d="M18.8471 12.8916C15.2461 12.2845 12.2655 10.5108 10.8772 7.74908C10.4939 10.0647 9.42108 12.2821 6.55521 13.5166C6.22168 13.6603 5.88675 13.8388 5.83121 14.4244L6.02399 20.1066C6.26315 25.9656 10.6475 29.8916 15.9883 29.8916C21.3193 29.8916 25.7135 25.9656 25.9527 20.1066L26.1632 13.9027C26.1716 13.6546 25.9968 13.4372 25.7507 13.4045C24.9014 13.2917 23.7749 13.2336 22.5942 13.1728C21.3142 13.1068 19.9704 13.0375 18.8471 12.8916Z" fill="url(#paint18_radial_4002_3628)"/>
<path d="M18.8471 12.8916C15.2461 12.2845 12.2655 10.5108 10.8772 7.74908C10.4939 10.0647 9.42108 12.2821 6.55521 13.5166C6.22168 13.6603 5.88675 13.8388 5.83121 14.4244L6.02399 20.1066C6.26315 25.9656 10.6475 29.8916 15.9883 29.8916C21.3193 29.8916 25.7135 25.9656 25.9527 20.1066L26.1632 13.9027C26.1716 13.6546 25.9968 13.4372 25.7507 13.4045C24.9014 13.2917 23.7749 13.2336 22.5942 13.1728C21.3142 13.1068 19.9704 13.0375 18.8471 12.8916Z" fill="url(#paint19_radial_4002_3628)"/>
<path d="M13.0099 22.4876C12.6651 22.303 12.297 22.696 12.5152 23.0308L12.5571 23.0035L13.0099 22.4876Z" fill="#2A0219" stroke="url(#paint20_linear_4002_3628)" stroke-width="0.1"/>
<g filter="url(#filter7_i_4002_3628)">
<path d="M9.59897 13.9822C10.189 13.7722 10.9686 13.6666 12.0286 13.7666" stroke="#110A18" stroke-width="1.1" stroke-miterlimit="10" stroke-linecap="round" stroke-linejoin="round"/>
</g>
<g filter="url(#filter8_f_4002_3628)">
<path d="M9.59897 13.9822C10.189 13.7722 10.9686 13.6666 12.0286 13.7666" stroke="url(#paint21_linear_4002_3628)" stroke-width="0.5" stroke-miterlimit="10" stroke-linecap="round" stroke-linejoin="round"/>
</g>
<g filter="url(#filter9_i_4002_3628)">
<path d="M22.3777 14.0013C21.7877 13.7913 20.9677 13.6413 19.9077 13.7413" stroke="#110A18" stroke-width="1.1" stroke-miterlimit="10" stroke-linecap="round" stroke-linejoin="round"/>
</g>
<g filter="url(#filter10_f_4002_3628)">
<path d="M22.3777 14.0013C21.7877 13.7913 20.9677 13.6413 19.9077 13.7413" stroke="url(#paint22_linear_4002_3628)" stroke-width="0.5" stroke-miterlimit="10" stroke-linecap="round" stroke-linejoin="round"/>
</g>
<g filter="url(#filter11_i_4002_3628)">
<path d="M4.01712 10.9516C4.01712 7.0516 7.17712 3.8916 11.0771 3.8916V4.8616C11.0771 8.0416 10.6177 11.7666 6.55521 13.5166C6.21609 13.6627 5.87552 13.8448 5.82864 14.4541C5.22708 14.5948 4.53819 14.931 4.03446 15.5106C4.02294 15.3483 4.01712 15.1853 4.01712 15.0216V10.9516Z" fill="url(#paint23_radial_4002_3628)"/>
</g>
<path d="M4.01712 10.9516C4.01712 7.0516 7.17712 3.8916 11.0771 3.8916V4.8616C11.0771 8.0416 10.6177 11.7666 6.55521 13.5166C6.21609 13.6627 5.87552 13.8448 5.82864 14.4541C5.22708 14.5948 4.53819 14.931 4.03446 15.5106C4.02294 15.3483 4.01712 15.1853 4.01712 15.0216V10.9516Z" fill="url(#paint24_radial_4002_3628)"/>
<g filter="url(#filter12_f_4002_3628)">
<path d="M17.3096 20.9514C17.3537 21.1433 17.318 21.3558 17.1784 21.5322C16.8073 22.0058 16.2133 22.2877 15.5788 22.2374C14.9444 22.1871 14.4022 21.8152 14.1009 21.2883C13.9561 21.0305 13.9986 20.7393 14.1537 20.5333L15.4601 18.1056C15.5513 17.9361 15.734 17.8366 15.9258 17.8518C16.1177 17.867 16.2824 17.9941 16.3457 18.1758L17.2792 20.8528C17.2854 20.8687 17.2911 20.8849 17.2961 20.9013L17.3137 20.9517L17.3096 20.9514Z" fill="url(#paint25_linear_4002_3628)"/>
</g>
<g filter="url(#filter13_f_4002_3628)">
<path d="M17.7028 20.398C17.765 20.5958 17.7453 20.8218 17.6134 21.0185C17.2633 21.5464 16.6634 21.8916 15.9934 21.8916C15.3233 21.8916 14.7234 21.5464 14.3634 21.0185C14.19 20.76 14.2103 20.4509 14.356 20.2218L15.5252 17.5653C15.6068 17.3799 15.7902 17.2602 15.9928 17.2602C16.1954 17.2602 16.3788 17.3799 16.4604 17.5653L17.6627 20.2971C17.6705 20.3133 17.6778 20.3298 17.6845 20.3466L17.7071 20.398H17.7028Z" fill="#492F30"/>
<path d="M17.7028 20.398C17.765 20.5958 17.7453 20.8218 17.6134 21.0185C17.2633 21.5464 16.6634 21.8916 15.9934 21.8916C15.3233 21.8916 14.7234 21.5464 14.3634 21.0185C14.19 20.76 14.2103 20.4509 14.356 20.2218L15.5252 17.5653C15.6068 17.3799 15.7902 17.2602 15.9928 17.2602C16.1954 17.2602 16.3788 17.3799 16.4604 17.5653L17.6627 20.2971C17.6705 20.3133 17.6778 20.3298 17.6845 20.3466L17.7071 20.398H17.7028Z" fill="url(#paint26_radial_4002_3628)"/>
<path d="M17.7028 20.398C17.765 20.5958 17.7453 20.8218 17.6134 21.0185C17.2633 21.5464 16.6634 21.8916 15.9934 21.8916C15.3233 21.8916 14.7234 21.5464 14.3634 21.0185C14.19 20.76 14.2103 20.4509 14.356 20.2218L15.5252 17.5653C15.6068 17.3799 15.7902 17.2602 15.9928 17.2602C16.1954 17.2602 16.3788 17.3799 16.4604 17.5653L17.6627 20.2971C17.6705 20.3133 17.6778 20.3298 17.6845 20.3466L17.7071 20.398H17.7028Z" fill="url(#paint27_radial_4002_3628)"/>
<path d="M17.7028 20.398C17.765 20.5958 17.7453 20.8218 17.6134 21.0185C17.2633 21.5464 16.6634 21.8916 15.9934 21.8916C15.3233 21.8916 14.7234 21.5464 14.3634 21.0185C14.19 20.76 14.2103 20.4509 14.356 20.2218L15.5252 17.5653C15.6068 17.3799 15.7902 17.2602 15.9928 17.2602C16.1954 17.2602 16.3788 17.3799 16.4604 17.5653L17.6627 20.2971C17.6705 20.3133 17.6778 20.3298 17.6845 20.3466L17.7071 20.398H17.7028Z" fill="url(#paint28_linear_4002_3628)"/>
<path d="M17.7028 20.398C17.765 20.5958 17.7453 20.8218 17.6134 21.0185C17.2633 21.5464 16.6634 21.8916 15.9934 21.8916C15.3233 21.8916 14.7234 21.5464 14.3634 21.0185C14.19 20.76 14.2103 20.4509 14.356 20.2218L15.5252 17.5653C15.6068 17.3799 15.7902 17.2602 15.9928 17.2602C16.1954 17.2602 16.3788 17.3799 16.4604 17.5653L17.6627 20.2971C17.6705 20.3133 17.6778 20.3298 17.6845 20.3466L17.7071 20.398H17.7028Z" fill="url(#paint29_linear_4002_3628)"/>
</g>
<path d="M17.7028 20.398C17.765 20.5958 17.7453 20.8218 17.6134 21.0185C17.2633 21.5464 16.6634 21.8916 15.9934 21.8916C15.3233 21.8916 14.7234 21.5464 14.3634 21.0185C14.19 20.76 14.2103 20.4509 14.356 20.2218L15.5252 17.5653C15.6068 17.3799 15.7902 17.2602 15.9928 17.2602C16.1954 17.2602 16.3788 17.3799 16.4604 17.5653L17.6627 20.2971C17.6705 20.3133 17.6778 20.3298 17.6845 20.3466L17.7071 20.398H17.7028Z" fill="url(#paint30_radial_4002_3628)"/>
<path d="M17.7028 20.398C17.765 20.5958 17.7453 20.8218 17.6134 21.0185C17.2633 21.5464 16.6634 21.8916 15.9934 21.8916C15.3233 21.8916 14.7234 21.5464 14.3634 21.0185C14.19 20.76 14.2103 20.4509 14.356 20.2218L15.5252 17.5653C15.6068 17.3799 15.7902 17.2602 15.9928 17.2602C16.1954 17.2602 16.3788 17.3799 16.4604 17.5653L17.6627 20.2971C17.6705 20.3133 17.6778 20.3298 17.6845 20.3466L17.7071 20.398H17.7028Z" fill="url(#paint31_linear_4002_3628)"/>
<g filter="url(#filter14_i_4002_3628)">
<path d="M18.8471 12.8916C13.843 12.0479 10.0371 8.9516 10.0371 4.0816C10.0371 2.8716 11.0171 1.8916 12.2171 1.8916H18.0271C23.5471 1.8916 28.0271 6.3716 28.0271 11.8916V15.6123C27.5618 15.031 26.901 14.6129 26.1443 14.4578L26.1632 13.9027C26.1716 13.6545 25.9968 13.4372 25.7507 13.4045C24.9014 13.2917 23.7749 13.2336 22.5942 13.1727C21.3142 13.1067 19.9704 13.0375 18.8471 12.8916Z" fill="#32272A"/>
<path d="M18.8471 12.8916C13.843 12.0479 10.0371 8.9516 10.0371 4.0816C10.0371 2.8716 11.0171 1.8916 12.2171 1.8916H18.0271C23.5471 1.8916 28.0271 6.3716 28.0271 11.8916V15.6123C27.5618 15.031 26.901 14.6129 26.1443 14.4578L26.1632 13.9027C26.1716 13.6545 25.9968 13.4372 25.7507 13.4045C24.9014 13.2917 23.7749 13.2336 22.5942 13.1727C21.3142 13.1067 19.9704 13.0375 18.8471 12.8916Z" fill="url(#paint32_radial_4002_3628)"/>
<path d="M18.8471 12.8916C13.843 12.0479 10.0371 8.9516 10.0371 4.0816C10.0371 2.8716 11.0171 1.8916 12.2171 1.8916H18.0271C23.5471 1.8916 28.0271 6.3716 28.0271 11.8916V15.6123C27.5618 15.031 26.901 14.6129 26.1443 14.4578L26.1632 13.9027C26.1716 13.6545 25.9968 13.4372 25.7507 13.4045C24.9014 13.2917 23.7749 13.2336 22.5942 13.1727C21.3142 13.1067 19.9704 13.0375 18.8471 12.8916Z" fill="url(#paint33_radial_4002_3628)"/>
</g>
<path d="M20.7949 16C22.247 16 23.4736 17.0011 23.8073 18.354C23.9065 18.7418 23.6089 19.1116 23.212 19.1116H18.2515C17.9358 19.1116 17.6833 18.823 17.7464 18.5073C18.026 17.0823 19.2797 16 20.7949 16Z" fill="white"/>
<path d="M20.3349 16.6043C21.4352 16.6043 22.3191 17.4972 22.3191 18.5885C22.3191 18.7689 22.292 18.9492 22.2469 19.1116H18.4138C18.3687 18.9402 18.3417 18.7689 18.3417 18.5885C18.3417 17.4972 19.2346 16.6043 20.3349 16.6043Z" fill="url(#paint34_radial_4002_3628)"/>
<path d="M19.1985 18.5885C19.1985 17.9572 19.7035 17.4521 20.3349 17.4521C20.9662 17.4521 21.4713 17.9572 21.4713 18.5885C21.4713 18.7779 21.4262 18.9583 21.345 19.1116H19.3337C19.2436 18.9583 19.1985 18.7779 19.1985 18.5885Z" fill="black"/>
<g filter="url(#filter15_f_4002_3628)">
<path d="M20.1889 17.0237C20.3303 17.2128 20.0348 17.4433 19.6988 17.6945C19.3629 17.9457 19.1136 18.1225 18.9722 17.9334C18.8309 17.7443 18.9886 17.3874 19.3246 17.1362C19.6606 16.885 20.0476 16.8347 20.1889 17.0237Z" fill="#C7A7A3"/>
<path d="M20.1889 17.0237C20.3303 17.2128 20.0348 17.4433 19.6988 17.6945C19.3629 17.9457 19.1136 18.1225 18.9722 17.9334C18.8309 17.7443 18.9886 17.3874 19.3246 17.1362C19.6606 16.885 20.0476 16.8347 20.1889 17.0237Z" fill="url(#paint35_radial_4002_3628)"/>
</g>
<g filter="url(#filter16_f_4002_3628)">
<path d="M22.1023 18.3272C22.029 17.8142 21.7288 17.4276 21.5879 17.2985L21.0101 17.9326L21.2708 18.4399L22.1023 18.3272Z" fill="url(#paint36_linear_4002_3628)"/>
</g>
<path d="M11.2136 16.0216C9.7643 16.0216 8.54001 17.0208 8.20694 18.3712C8.10791 18.7582 8.40498 19.1273 8.80108 19.1273H13.7522C14.0673 19.1273 14.3194 18.8393 14.2563 18.5242C13.9773 17.1019 12.717 16.0216 11.2136 16.0216Z" fill="white"/>
<path d="M11.6728 16.6247C10.5745 16.6247 9.69229 17.5159 9.69229 18.6052C9.69229 18.7852 9.7193 18.9653 9.76431 19.1273H13.5902C13.6352 18.9563 13.6622 18.7852 13.6622 18.6052C13.6532 17.5159 12.771 16.6247 11.6728 16.6247Z" fill="url(#paint37_radial_4002_3628)"/>
<path d="M12.807 18.6052C12.807 17.975 12.3029 17.4709 11.6727 17.4709C11.0426 17.4709 10.5385 17.975 10.5385 18.6052C10.5385 18.7942 10.5835 18.9743 10.6645 19.1273H12.672C12.753 18.9743 12.807 18.7942 12.807 18.6052Z" fill="black"/>
<g filter="url(#filter17_f_4002_3628)">
<path d="M13.4821 18.3725C13.4821 17.7325 12.9617 17.3059 12.821 17.1769L12.181 17.7958L12.5748 18.5976L13.4821 18.3725Z" fill="url(#paint38_linear_4002_3628)"/>
</g>
<g filter="url(#filter18_f_4002_3628)">
<ellipse cx="11.0752" cy="17.4709" rx="0.864577" ry="0.437556" transform="rotate(-27.914 11.0752 17.4709)" fill="#C7A7A3" fill-opacity="0.9"/>
<ellipse cx="11.0752" cy="17.4709" rx="0.864577" ry="0.437556" transform="rotate(-27.914 11.0752 17.4709)" fill="url(#paint39_radial_4002_3628)"/>
</g>
<g filter="url(#filter19_f_4002_3628)">
<path d="M26.9537 12.2053C16.1099 13.0381 11.6354 7.79441 11.6354 2.76663H17.8402C25.131 2.76663 26.9537 9.05907 26.9537 12.2053Z" fill="url(#paint40_radial_4002_3628)"/>
</g>
<g filter="url(#filter20_f_4002_3628)">
<path d="M9.53125 4.84378C8.20833 5.27391 5.45625 7.01984 5.03125 10.5625" stroke="url(#paint41_linear_4002_3628)" stroke-width="0.4" stroke-linecap="round"/>
</g>
<defs>
<filter id="filter0_i_4002_3628" x="3.23834" y="13.9916" width="6.5" height="6.9" filterUnits="userSpaceOnUse" color-interpolation-filters="sRGB">
<feFlood flood-opacity="0" result="BackgroundImageFix"/>
<feBlend mode="normal" in="SourceGraphic" in2="BackgroundImageFix" result="shape"/>
<feColorMatrix in="SourceAlpha" type="matrix" values="0 0 0 0 0 0 0 0 0 0 0 0 0 0 0 0 0 0 127 0" result="hardAlpha"/>
<feOffset dy="-0.4"/>
<feGaussianBlur stdDeviation="0.2"/>
<feComposite in2="hardAlpha" operator="arithmetic" k2="-1" k3="1"/>
<feColorMatrix type="matrix" values="0 0 0 0 0.188235 0 0 0 0 0.113725 0 0 0 0 0.168627 0 0 0 1 0"/>
<feBlend mode="normal" in2="shape" result="effect1_innerShadow_4002_3628"/>
</filter>
<filter id="filter1_i_4002_3628" x="22.2383" y="14.1416" width="6.7" height="6.75" filterUnits="userSpaceOnUse" color-interpolation-filters="sRGB">
<feFlood flood-opacity="0" result="BackgroundImageFix"/>
<feBlend mode="normal" in="SourceGraphic" in2="BackgroundImageFix" result="shape"/>
<feColorMatrix in="SourceAlpha" type="matrix" values="0 0 0 0 0 0 0 0 0 0 0 0 0 0 0 0 0 0 127 0" result="hardAlpha"/>
<feOffset dx="0.2" dy="-0.25"/>
<feGaussianBlur stdDeviation="0.25"/>
<feComposite in2="hardAlpha" operator="arithmetic" k2="-1" k3="1"/>
<feColorMatrix type="matrix" values="0 0 0 0 0.207843 0 0 0 0 0.12549 0 0 0 0 0.164706 0 0 0 1 0"/>
<feBlend mode="normal" in2="shape" result="effect1_innerShadow_4002_3628"/>
</filter>
<filter id="filter2_f_4002_3628" x="22.959" y="15.1123" width="5.05856" height="5.05856" filterUnits="userSpaceOnUse" color-interpolation-filters="sRGB">
<feFlood flood-opacity="0" result="BackgroundImageFix"/>
<feBlend mode="normal" in="SourceGraphic" in2="BackgroundImageFix" result="shape"/>
<feGaussianBlur stdDeviation="0.25" result="effect1_foregroundBlur_4002_3628"/>
</filter>
<filter id="filter3_f_4002_3628" x="3.95908" y="15.1123" width="5.05856" height="5.05856" filterUnits="userSpaceOnUse" color-interpolation-filters="sRGB">
<feFlood flood-opacity="0" result="BackgroundImageFix"/>
<feBlend mode="normal" in="SourceGraphic" in2="BackgroundImageFix" result="shape"/>
<feGaussianBlur stdDeviation="0.25" result="effect1_foregroundBlur_4002_3628"/>
</filter>
<filter id="filter4_i_4002_3628" x="22.0071" y="20.3116" width="8.69877" height="9.58165" filterUnits="userSpaceOnUse" color-interpolation-filters="sRGB">
<feFlood flood-opacity="0" result="BackgroundImageFix"/>
<feBlend mode="normal" in="SourceGraphic" in2="BackgroundImageFix" result="shape"/>
<feColorMatrix in="SourceAlpha" type="matrix" values="0 0 0 0 0 0 0 0 0 0 0 0 0 0 0 0 0 0 127 0" result="hardAlpha"/>
<feOffset dx="0.65" dy="-0.8"/>
<feGaussianBlur stdDeviation="0.75"/>
<feComposite in2="hardAlpha" operator="arithmetic" k2="-1" k3="1"/>
<feColorMatrix type="matrix" values="0 0 0 0 0.113725 0 0 0 0 0.0666667 0 0 0 0 0.152941 0 0 0 1 0"/>
<feBlend mode="normal" in2="shape" result="effect1_innerShadow_4002_3628"/>
</filter>
<filter id="filter5_i_4002_3628" x="1.73834" y="20.3616" width="8.29877" height="9.53165" filterUnits="userSpaceOnUse" color-interpolation-filters="sRGB">
<feFlood flood-opacity="0" result="BackgroundImageFix"/>
<feBlend mode="normal" in="SourceGraphic" in2="BackgroundImageFix" result="shape"/>
<feColorMatrix in="SourceAlpha" type="matrix" values="0 0 0 0 0 0 0 0 0 0 0 0 0 0 0 0 0 0 127 0" result="hardAlpha"/>
<feOffset dx="-0.25" dy="-0.75"/>
<feGaussianBlur stdDeviation="0.5"/>
<feComposite in2="hardAlpha" operator="arithmetic" k2="-1" k3="1"/>
<feColorMatrix type="matrix" values="0 0 0 0 0.0941176 0 0 0 0 0.054902 0 0 0 0 0.12549 0 0 0 1 0"/>
<feBlend mode="normal" in2="shape" result="effect1_innerShadow_4002_3628"/>
</filter>
<filter id="filter6_i_4002_3628" x="5.83121" y="7.74908" width="20.3323" height="22.5425" filterUnits="userSpaceOnUse" color-interpolation-filters="sRGB">
<feFlood flood-opacity="0" result="BackgroundImageFix"/>
<feBlend mode="normal" in="SourceGraphic" in2="BackgroundImageFix" result="shape"/>
<feColorMatrix in="SourceAlpha" type="matrix" values="0 0 0 0 0 0 0 0 0 0 0 0 0 0 0 0 0 0 127 0" result="hardAlpha"/>
<feOffset dy="0.4"/>
<feGaussianBlur stdDeviation="0.3"/>
<feComposite in2="hardAlpha" operator="arithmetic" k2="-1" k3="1"/>
<feColorMatrix type="matrix" values="0 0 0 0 0.113725 0 0 0 0 0.0509804 0 0 0 0 0.0588235 0 0 0 1 0"/>
<feBlend mode="normal" in2="shape" result="effect1_innerShadow_4002_3628"/>
</filter>
<filter id="filter7_i_4002_3628" x="9.04883" y="12.9786" width="3.72985" height="1.55382" filterUnits="userSpaceOnUse" color-interpolation-filters="sRGB">
<feFlood flood-opacity="0" result="BackgroundImageFix"/>
<feBlend mode="normal" in="SourceGraphic" in2="BackgroundImageFix" result="shape"/>
<feColorMatrix in="SourceAlpha" type="matrix" values="0 0 0 0 0 0 0 0 0 0 0 0 0 0 0 0 0 0 127 0" result="hardAlpha"/>
<feOffset dx="0.2" dy="-0.2"/>
<feGaussianBlur stdDeviation="0.1"/>
<feComposite in2="hardAlpha" operator="arithmetic" k2="-1" k3="1"/>
<feColorMatrix type="matrix" values="0 0 0 0 0.0431373 0 0 0 0 0.0196078 0 0 0 0 0.0431373 0 0 0 1 0"/>
<feBlend mode="normal" in2="shape" result="effect1_innerShadow_4002_3628"/>
</filter>
<filter id="filter8_f_4002_3628" x="8.84891" y="12.9785" width="3.92975" height="1.75375" filterUnits="userSpaceOnUse" color-interpolation-filters="sRGB">
<feFlood flood-opacity="0" result="BackgroundImageFix"/>
<feBlend mode="normal" in="SourceGraphic" in2="BackgroundImageFix" result="shape"/>
<feGaussianBlur stdDeviation="0.25" result="effect1_foregroundBlur_4002_3628"/>
</filter>
<filter id="filter9_i_4002_3628" x="19.3577" y="12.9595" width="3.77019" height="1.59188" filterUnits="userSpaceOnUse" color-interpolation-filters="sRGB">
<feFlood flood-opacity="0" result="BackgroundImageFix"/>
<feBlend mode="normal" in="SourceGraphic" in2="BackgroundImageFix" result="shape"/>
<feColorMatrix in="SourceAlpha" type="matrix" values="0 0 0 0 0 0 0 0 0 0 0 0 0 0 0 0 0 0 127 0" result="hardAlpha"/>
<feOffset dx="0.2" dy="-0.2"/>
<feGaussianBlur stdDeviation="0.1"/>
<feComposite in2="hardAlpha" operator="arithmetic" k2="-1" k3="1"/>
<feColorMatrix type="matrix" values="0 0 0 0 0.0431373 0 0 0 0 0.0196078 0 0 0 0 0.0431373 0 0 0 1 0"/>
<feBlend mode="normal" in2="shape" result="effect1_innerShadow_4002_3628"/>
</filter>
<filter id="filter10_f_4002_3628" x="19.1577" y="12.9595" width="3.97009" height="1.79178" filterUnits="userSpaceOnUse" color-interpolation-filters="sRGB">
<feFlood flood-opacity="0" result="BackgroundImageFix"/>
<feBlend mode="normal" in="SourceGraphic" in2="BackgroundImageFix" result="shape"/>
<feGaussianBlur stdDeviation="0.25" result="effect1_foregroundBlur_4002_3628"/>
</filter>
<filter id="filter11_i_4002_3628" x="3.51712" y="3.3916" width="7.56" height="12.119" filterUnits="userSpaceOnUse" color-interpolation-filters="sRGB">
<feFlood flood-opacity="0" result="BackgroundImageFix"/>
<feBlend mode="normal" in="SourceGraphic" in2="BackgroundImageFix" result="shape"/>
<feColorMatrix in="SourceAlpha" type="matrix" values="0 0 0 0 0 0 0 0 0 0 0 0 0 0 0 0 0 0 127 0" result="hardAlpha"/>
<feOffset dx="-0.5" dy="-0.5"/>
<feGaussianBlur stdDeviation="0.5"/>
<feComposite in2="hardAlpha" operator="arithmetic" k2="-1" k3="1"/>
<feColorMatrix type="matrix" values="0 0 0 0 0.0784314 0 0 0 0 0.0117647 0 0 0 0 0.0470588 0 0 0 1 0"/>
<feBlend mode="normal" in2="shape" result="effect1_innerShadow_4002_3628"/>
</filter>
<filter id="filter12_f_4002_3628" x="13.262" y="17.1003" width="4.81537" height="5.89288" filterUnits="userSpaceOnUse" color-interpolation-filters="sRGB">
<feFlood flood-opacity="0" result="BackgroundImageFix"/>
<feBlend mode="normal" in="SourceGraphic" in2="BackgroundImageFix" result="shape"/>
<feGaussianBlur stdDeviation="0.375" result="effect1_foregroundBlur_4002_3628"/>
</filter>
<filter id="filter13_f_4002_3628" x="13.99" y="17.0102" width="3.99673" height="5.13138" filterUnits="userSpaceOnUse" color-interpolation-filters="sRGB">
<feFlood flood-opacity="0" result="BackgroundImageFix"/>
<feBlend mode="normal" in="SourceGraphic" in2="BackgroundImageFix" result="shape"/>
<feGaussianBlur stdDeviation="0.125" result="effect1_foregroundBlur_4002_3628"/>
</filter>
<filter id="filter14_i_4002_3628" x="10.0371" y="1.1416" width="18.74" height="14.4707" filterUnits="userSpaceOnUse" color-interpolation-filters="sRGB">
<feFlood flood-opacity="0" result="BackgroundImageFix"/>
<feBlend mode="normal" in="SourceGraphic" in2="BackgroundImageFix" result="shape"/>
<feColorMatrix in="SourceAlpha" type="matrix" values="0 0 0 0 0 0 0 0 0 0 0 0 0 0 0 0 0 0 127 0" result="hardAlpha"/>
<feOffset dx="0.75" dy="-0.75"/>
<feGaussianBlur stdDeviation="0.625"/>
<feComposite in2="hardAlpha" operator="arithmetic" k2="-1" k3="1"/>
<feColorMatrix type="matrix" values="0 0 0 0 0.0745098 0 0 0 0 0.0156863 0 0 0 0 0.054902 0 0 0 1 0"/>
<feBlend mode="normal" in2="shape" result="effect1_innerShadow_4002_3628"/>
</filter>
<filter id="filter15_f_4002_3628" x="18.8204" y="16.8093" width="1.50472" height="1.30345" filterUnits="userSpaceOnUse" color-interpolation-filters="sRGB">
<feFlood flood-opacity="0" result="BackgroundImageFix"/>
<feBlend mode="normal" in="SourceGraphic" in2="BackgroundImageFix" result="shape"/>
<feGaussianBlur stdDeviation="0.05" result="effect1_foregroundBlur_4002_3628"/>
</filter>
<filter id="filter16_f_4002_3628" x="20.8101" y="17.0985" width="1.49216" height="1.54148" filterUnits="userSpaceOnUse" color-interpolation-filters="sRGB">
<feFlood flood-opacity="0" result="BackgroundImageFix"/>
<feBlend mode="normal" in="SourceGraphic" in2="BackgroundImageFix" result="shape"/>
<feGaussianBlur stdDeviation="0.1" result="effect1_foregroundBlur_4002_3628"/>
</filter>
<filter id="filter17_f_4002_3628" x="11.981" y="16.9769" width="1.70109" height="1.82065" filterUnits="userSpaceOnUse" color-interpolation-filters="sRGB">
<feFlood flood-opacity="0" result="BackgroundImageFix"/>
<feBlend mode="normal" in="SourceGraphic" in2="BackgroundImageFix" result="shape"/>
<feGaussianBlur stdDeviation="0.1" result="effect1_foregroundBlur_4002_3628"/>
</filter>
<filter id="filter18_f_4002_3628" x="10.1841" y="16.8112" width="1.78231" height="1.31951" filterUnits="userSpaceOnUse" color-interpolation-filters="sRGB">
<feFlood flood-opacity="0" result="BackgroundImageFix"/>
<feBlend mode="normal" in="SourceGraphic" in2="BackgroundImageFix" result="shape"/>
<feGaussianBlur stdDeviation="0.05" result="effect1_foregroundBlur_4002_3628"/>
</filter>
<filter id="filter19_f_4002_3628" x="9.63538" y="0.766632" width="19.3183" height="13.5264" filterUnits="userSpaceOnUse" color-interpolation-filters="sRGB">
<feFlood flood-opacity="0" result="BackgroundImageFix"/>
<feBlend mode="normal" in="SourceGraphic" in2="BackgroundImageFix" result="shape"/>
<feGaussianBlur stdDeviation="1" result="effect1_foregroundBlur_4002_3628"/>
</filter>
<filter id="filter20_f_4002_3628" x="4.08124" y="3.89374" width="6.40005" height="7.6188" filterUnits="userSpaceOnUse" color-interpolation-filters="sRGB">
<feFlood flood-opacity="0" result="BackgroundImageFix"/>
<feBlend mode="normal" in="SourceGraphic" in2="BackgroundImageFix" result="shape"/>
<feGaussianBlur stdDeviation="0.375" result="effect1_foregroundBlur_4002_3628"/>
</filter>
<linearGradient id="paint0_linear_4002_3628" x1="4.17239" y1="18.6022" x2="6.71505" y2="18.6022" gradientUnits="userSpaceOnUse">
<stop stop-color="#362324"/>
<stop offset="1" stop-color="#291B1B"/>
</linearGradient>
<radialGradient id="paint1_radial_4002_3628" cx="0" cy="0" r="1" gradientUnits="userSpaceOnUse" gradientTransform="translate(6.39063 17.3282) rotate(-180) scale(2.8125 3.21299)">
<stop offset="0.56973" stop-color="#49343A"/>
<stop offset="1" stop-color="#38282C" stop-opacity="0"/>
</radialGradient>
<radialGradient id="paint2_radial_4002_3628" cx="0" cy="0" r="1" gradientUnits="userSpaceOnUse" gradientTransform="translate(25.1562 19.125) rotate(-38.1374) scale(4.55429 3.6528)">
<stop offset="0.573409" stop-color="#4C3232"/>
<stop offset="0.954871" stop-color="#6A5654"/>
</radialGradient>
<radialGradient id="paint3_radial_4002_3628" cx="0" cy="0" r="1" gradientUnits="userSpaceOnUse" gradientTransform="translate(25.4883 18.3281) rotate(-67.6829) scale(4.1043 3.51315)">
<stop offset="0.825693" stop-color="#422A25" stop-opacity="0"/>
<stop offset="1" stop-color="#422A25"/>
</radialGradient>
<radialGradient id="paint4_radial_4002_3628" cx="0" cy="0" r="1" gradientUnits="userSpaceOnUse" gradientTransform="translate(25.4883 18.8904) rotate(-66.4257) scale(3.21465 2.50404)">
<stop stop-color="#4D3939"/>
<stop offset="1" stop-color="#473030"/>
</radialGradient>
<radialGradient id="paint5_radial_4002_3628" cx="0" cy="0" r="1" gradientUnits="userSpaceOnUse" gradientTransform="translate(24.7661 17.6416) scale(2.89063)">
<stop offset="0.733391" stop-color="#371D1E" stop-opacity="0"/>
<stop offset="1" stop-color="#371D1E"/>
</radialGradient>
<linearGradient id="paint6_linear_4002_3628" x1="6.48836" y1="17.25" x2="4.84375" y2="17.25" gradientUnits="userSpaceOnUse">
<stop stop-color="#2D1C23"/>
<stop offset="1" stop-color="#2C1D22"/>
</linearGradient>
<linearGradient id="paint7_linear_4002_3628" x1="27.9224" y1="24.001" x2="26.8599" y2="25.6416" gradientUnits="userSpaceOnUse">
<stop stop-color="#323131"/>
<stop offset="1" stop-color="#323131" stop-opacity="0"/>
</linearGradient>
<radialGradient id="paint8_radial_4002_3628" cx="0" cy="0" r="1" gradientUnits="userSpaceOnUse" gradientTransform="translate(24.6563 23.1094) rotate(38.4802) scale(5.44903 0.939363)">
<stop stop-color="#3C3B3B"/>
<stop offset="1" stop-color="#3C3B3B" stop-opacity="0"/>
</radialGradient>
<radialGradient id="paint9_radial_4002_3628" cx="0" cy="0" r="1" gradientUnits="userSpaceOnUse" gradientTransform="translate(30.25 25.7188) rotate(170.242) scale(2.48914 0.559658)">
<stop offset="0.152652" stop-color="#494949"/>
<stop offset="1" stop-color="#494949" stop-opacity="0"/>
</radialGradient>
<radialGradient id="paint10_radial_4002_3628" cx="0" cy="0" r="1" gradientUnits="userSpaceOnUse" gradientTransform="translate(22.6875 25.0313) rotate(32.9977) scale(2.86905 5.19009)">
<stop stop-color="#09040C"/>
<stop offset="1" stop-color="#09040C" stop-opacity="0"/>
</radialGradient>
<radialGradient id="paint11_radial_4002_3628" cx="0" cy="0" r="1" gradientUnits="userSpaceOnUse" gradientTransform="translate(8.14114 25.8916) rotate(153.831) scale(2.37151 5.41349)">
<stop stop-color="#140F18"/>
<stop offset="1" stop-color="#140F18" stop-opacity="0"/>
</radialGradient>
<linearGradient id="paint12_linear_4002_3628" x1="3.98489" y1="23.6729" x2="4.98489" y2="25.1104" gradientUnits="userSpaceOnUse">
<stop stop-color="#3C3A3A"/>
<stop offset="1" stop-color="#3C3A3A" stop-opacity="0"/>
</linearGradient>
<radialGradient id="paint13_radial_4002_3628" cx="0" cy="0" r="1" gradientUnits="userSpaceOnUse" gradientTransform="translate(21.0995 16.9025) rotate(121.935) scale(13.391 14.0248)">
<stop offset="0.102798" stop-color="#513230"/>
<stop offset="1" stop-color="#3D2829"/>
</radialGradient>
<radialGradient id="paint14_radial_4002_3628" cx="0" cy="0" r="1" gradientUnits="userSpaceOnUse" gradientTransform="translate(17.3911 14.2666) rotate(94.7696) scale(16.8709 15.8687)">
<stop offset="0.761538" stop-color="#462D45" stop-opacity="0"/>
<stop offset="1" stop-color="#462D45"/>
</radialGradient>
<radialGradient id="paint15_radial_4002_3628" cx="0" cy="0" r="1" gradientUnits="userSpaceOnUse" gradientTransform="translate(22.4375 18.8204) rotate(180) scale(16.6063 17.8828)">
<stop offset="0.875045" stop-color="#544745" stop-opacity="0"/>
<stop offset="1" stop-color="#544745"/>
</radialGradient>
<radialGradient id="paint16_radial_4002_3628" cx="0" cy="0" r="1" gradientUnits="userSpaceOnUse" gradientTransform="translate(18.3251 12.3143) rotate(98.308) scale(6.57507 5.58105)">
<stop offset="0.265173" stop-color="#402E31"/>
<stop offset="1" stop-color="#402E31" stop-opacity="0"/>
</radialGradient>
<radialGradient id="paint17_radial_4002_3628" cx="0" cy="0" r="1" gradientUnits="userSpaceOnUse" gradientTransform="translate(26.1635 18.8204) rotate(180) scale(2.16825 11.9901)">
<stop stop-color="#63514F"/>
<stop offset="1" stop-color="#63514F" stop-opacity="0"/>
</radialGradient>
<radialGradient id="paint18_radial_4002_3628" cx="0" cy="0" r="1" gradientUnits="userSpaceOnUse" gradientTransform="translate(21.0365 16.7813) rotate(-90) scale(2.33392 3.24473)">
<stop offset="0.374906" stop-color="#43282A"/>
<stop offset="1" stop-color="#43282A" stop-opacity="0"/>
</radialGradient>
<radialGradient id="paint19_radial_4002_3628" cx="0" cy="0" r="1" gradientUnits="userSpaceOnUse" gradientTransform="translate(11.5625 16.7188) rotate(-80.4413) scale(2.46299 2.61318)">
<stop offset="0.146341" stop-color="#361F26"/>
<stop offset="1" stop-color="#361F26" stop-opacity="0"/>
</radialGradient>
<linearGradient id="paint20_linear_4002_3628" x1="13.9219" y1="24.4531" x2="14.4062" y2="23.6906" gradientUnits="userSpaceOnUse">
<stop stop-color="#594B4C"/>
<stop offset="1" stop-color="#594B4C" stop-opacity="0"/>
</linearGradient>
<linearGradient id="paint21_linear_4002_3628" x1="12.0286" y1="13.9822" x2="9.38286" y2="13.9822" gradientUnits="userSpaceOnUse">
<stop stop-color="#353535"/>
<stop offset="1" stop-color="#353535" stop-opacity="0"/>
</linearGradient>
<linearGradient id="paint22_linear_4002_3628" x1="22.3777" y1="14.0013" x2="19.688" y2="14.0013" gradientUnits="userSpaceOnUse">
<stop stop-color="#353535"/>
<stop offset="1" stop-color="#353535" stop-opacity="0"/>
</linearGradient>
<radialGradient id="paint23_radial_4002_3628" cx="0" cy="0" r="1" gradientUnits="userSpaceOnUse" gradientTransform="translate(10.1331 9.19352) rotate(-176.074) scale(6.64718 11.0947)">
<stop offset="0.412383" stop-color="#22181C"/>
<stop offset="1" stop-color="#5E5959"/>
</radialGradient>
<radialGradient id="paint24_radial_4002_3628" cx="0" cy="0" r="1" gradientUnits="userSpaceOnUse" gradientTransform="translate(9.45045 8.31581) rotate(110.487) scale(3.15794 0.910851)">
<stop offset="0.209947" stop-color="#3B3438"/>
<stop offset="1" stop-color="#3B3438" stop-opacity="0"/>
</radialGradient>
<linearGradient id="paint25_linear_4002_3628" x1="14.3285" y1="21.6609" x2="17.8175" y2="19.87" gradientUnits="userSpaceOnUse">
<stop offset="0.274389" stop-color="#352125"/>
<stop offset="1" stop-color="#5B4543"/>
</linearGradient>
<radialGradient id="paint26_radial_4002_3628" cx="0" cy="0" r="1" gradientUnits="userSpaceOnUse" gradientTransform="translate(17.5427 20.4907) rotate(-103.678) scale(3.66057 1.55577)">
<stop stop-color="#634D4A"/>
<stop offset="1" stop-color="#634D4A" stop-opacity="0"/>
</radialGradient>
<radialGradient id="paint27_radial_4002_3628" cx="0" cy="0" r="1" gradientUnits="userSpaceOnUse" gradientTransform="translate(17.5156 20.6563) rotate(-180) scale(2.125 0.359375)">
<stop offset="0.360294" stop-color="#634D4A"/>
<stop offset="1" stop-color="#634D4A" stop-opacity="0"/>
</radialGradient>
<linearGradient id="paint28_linear_4002_3628" x1="14.0804" y1="20.0186" x2="15.481" y2="20.0815" gradientUnits="userSpaceOnUse">
<stop stop-color="#3A2725"/>
<stop offset="1" stop-color="#3A2725" stop-opacity="0"/>
</linearGradient>
<linearGradient id="paint29_linear_4002_3628" x1="15.8115" y1="22.1904" x2="15.8115" y2="20.4278" gradientUnits="userSpaceOnUse">
<stop stop-color="#3B1F30"/>
<stop offset="1" stop-color="#3B1F30" stop-opacity="0"/>
</linearGradient>
<radialGradient id="paint30_radial_4002_3628" cx="0" cy="0" r="1" gradientUnits="userSpaceOnUse" gradientTransform="translate(15.9884 18.6719) rotate(90) scale(3.51563 2.65432)">
<stop offset="0.826667" stop-color="#2F161F" stop-opacity="0"/>
<stop offset="1" stop-color="#2F161F"/>
</radialGradient>
<linearGradient id="paint31_linear_4002_3628" x1="14.875" y1="19.7813" x2="14" y2="19.5759" gradientUnits="userSpaceOnUse">
<stop stop-color="#2F161F" stop-opacity="0"/>
<stop offset="0.897776" stop-color="#2F161F"/>
</linearGradient>
<radialGradient id="paint32_radial_4002_3628" cx="0" cy="0" r="1" gradientUnits="userSpaceOnUse" gradientTransform="translate(17.935 0.221387) rotate(90) scale(4.94118 10.2724)">
<stop stop-color="#433D3F"/>
<stop offset="1" stop-color="#433D3F" stop-opacity="0"/>
</radialGradient>
<radialGradient id="paint33_radial_4002_3628" cx="0" cy="0" r="1" gradientUnits="userSpaceOnUse" gradientTransform="translate(30.375 12.9375) rotate(180) scale(7.125 7.6875)">
<stop stop-color="#565253"/>
<stop offset="1" stop-color="#565253" stop-opacity="0"/>
</radialGradient>
<radialGradient id="paint34_radial_4002_3628" cx="0" cy="0" r="1" gradientUnits="userSpaceOnUse" gradientTransform="translate(20.3304 17.6649) rotate(90) scale(1.80382 2.86918)">
<stop offset="0.80198" stop-color="#7D574A"/>
<stop offset="1" stop-color="#694B43"/>
<stop offset="1" stop-color="#804D49"/>
<stop offset="1" stop-color="#644945"/>
</radialGradient>
<radialGradient id="paint35_radial_4002_3628" cx="0" cy="0" r="1" gradientUnits="userSpaceOnUse" gradientTransform="translate(19.823 17.8519) rotate(-127.812) scale(0.841053 1.15793)">
<stop offset="0.765532" stop-color="#FFE6E2" stop-opacity="0"/>
<stop offset="0.966159" stop-color="#FFE6E2"/>
</radialGradient>
<linearGradient id="paint36_linear_4002_3628" x1="22.06" y1="17.7846" x2="21.3624" y2="18.2145" gradientUnits="userSpaceOnUse">
<stop stop-color="#B4948D"/>
<stop offset="1" stop-color="#B4948D" stop-opacity="0"/>
</linearGradient>
<radialGradient id="paint37_radial_4002_3628" cx="0" cy="0" r="1" gradientUnits="userSpaceOnUse" gradientTransform="translate(11.6773 17.6833) rotate(90) scale(1.80042 2.86377)">
<stop offset="0.80198" stop-color="#7D574A"/>
<stop offset="1" stop-color="#694B43"/>
<stop offset="1" stop-color="#804D49"/>
<stop offset="1" stop-color="#644945"/>
</radialGradient>
<linearGradient id="paint38_linear_4002_3628" x1="13.3279" y1="17.8029" x2="12.6316" y2="18.2319" gradientUnits="userSpaceOnUse">
<stop stop-color="#B4948D"/>
<stop offset="1" stop-color="#B4948D" stop-opacity="0"/>
</linearGradient>
<radialGradient id="paint39_radial_4002_3628" cx="0" cy="0" r="1" gradientUnits="userSpaceOnUse" gradientTransform="translate(11.0417 18.1697) rotate(-90.897) scale(1.09651 1.31805)">
<stop offset="0.765532" stop-color="#FFE6E2" stop-opacity="0"/>
<stop offset="0.966159" stop-color="#FFE6E2"/>
</radialGradient>
<radialGradient id="paint40_radial_4002_3628" cx="0" cy="0" r="1" gradientUnits="userSpaceOnUse" gradientTransform="translate(22.356 11.7941) rotate(-147.45) scale(10.8755 4.00738)">
<stop offset="0.212415" stop-color="#4A4446"/>
<stop offset="1" stop-color="#4A4446" stop-opacity="0"/>
</radialGradient>
<linearGradient id="paint41_linear_4002_3628" x1="9.21875" y1="5.0784" x2="5.398" y2="11.4284" gradientUnits="userSpaceOnUse">
<stop stop-color="#504E4E"/>
<stop offset="1" stop-color="#504E4E" stop-opacity="0"/>
</linearGradient>
</defs>
</svg>
