<svg width="32" height="32" viewBox="0 0 32 32" fill="none" xmlns="http://www.w3.org/2000/svg">
<rect x="7.00745" y="14.0626" width="18.0864" height="4.18344" fill="#653E45"/>
<g filter="url(#filter0_i_18_8919)">
<path d="M23.7984 15.3219C19.9439 12.863 16.2722 7.97253 16.2722 7.97253H16.7054C17.5974 8.70775 19.8355 10.4734 21.652 11.6541C22.9691 12.5102 24.2809 13.3009 25.3053 13.9184C25.7837 14.2067 26.1994 14.4573 26.5238 14.6592C26.8062 14.835 26.9716 15.1459 26.9716 15.4785V15.66C26.9716 15.66 27.6529 17.7808 23.7984 15.3219Z" fill="url(#paint0_linear_18_8919)"/>
<path d="M23.7984 15.3219C19.9439 12.863 16.2722 7.97253 16.2722 7.97253H16.7054C17.5974 8.70775 19.8355 10.4734 21.652 11.6541C22.9691 12.5102 24.2809 13.3009 25.3053 13.9184C25.7837 14.2067 26.1994 14.4573 26.5238 14.6592C26.8062 14.835 26.9716 15.1459 26.9716 15.4785V15.66C26.9716 15.66 27.6529 17.7808 23.7984 15.3219Z" fill="url(#paint1_linear_18_8919)"/>
<path d="M23.7984 15.3219C19.9439 12.863 16.2722 7.97253 16.2722 7.97253H16.7054C17.5974 8.70775 19.8355 10.4734 21.652 11.6541C22.9691 12.5102 24.2809 13.3009 25.3053 13.9184C25.7837 14.2067 26.1994 14.4573 26.5238 14.6592C26.8062 14.835 26.9716 15.1459 26.9716 15.4785V15.66C26.9716 15.66 27.6529 17.7808 23.7984 15.3219Z" fill="url(#paint2_linear_18_8919)"/>
</g>
<g filter="url(#filter1_i_18_8919)">
<path d="M8.55462 15.66C8.65755 15.2754 8.72547 15.0901 8.89675 15.0136C8.92644 14.9223 9.01811 14.7553 9.23175 14.5645C9.26236 14.5372 9.32096 14.4877 9.40408 14.4176C10.1974 13.7487 13.2246 11.1961 15.4793 7.97253H15.2651C13.1892 9.96738 9.29681 12.3515 7.83716 13.2435C6.84019 13.8528 5.83534 14.4659 5.2869 14.8004C5.13804 14.8912 5.04761 15.0528 5.04761 15.2271V15.66H8.55462Z" fill="#ADAAB0"/>
<path d="M8.55462 15.66C8.65755 15.2754 8.72547 15.0901 8.89675 15.0136C8.92644 14.9223 9.01811 14.7553 9.23175 14.5645C9.26236 14.5372 9.32096 14.4877 9.40408 14.4176C10.1974 13.7487 13.2246 11.1961 15.4793 7.97253H15.2651C13.1892 9.96738 9.29681 12.3515 7.83716 13.2435C6.84019 13.8528 5.83534 14.4659 5.2869 14.8004C5.13804 14.8912 5.04761 15.0528 5.04761 15.2271V15.66H8.55462Z" fill="url(#paint3_linear_18_8919)"/>
<path d="M8.55462 15.66C8.65755 15.2754 8.72547 15.0901 8.89675 15.0136C8.92644 14.9223 9.01811 14.7553 9.23175 14.5645C9.26236 14.5372 9.32096 14.4877 9.40408 14.4176C10.1974 13.7487 13.2246 11.1961 15.4793 7.97253H15.2651C13.1892 9.96738 9.29681 12.3515 7.83716 13.2435C6.84019 13.8528 5.83534 14.4659 5.2869 14.8004C5.13804 14.8912 5.04761 15.0528 5.04761 15.2271V15.66H8.55462Z" fill="url(#paint4_linear_18_8919)"/>
</g>
<path d="M11.009 15.2361V29.9997C8.68173 30.0021 6.35448 30.0038 4.02722 30.0038C3.34369 30.0038 2.96216 29.6382 3.00986 29.0182C3.05755 28.3983 4.5995 16.9052 4.82205 15.9514C6.25908 15.3919 8.05961 15.2414 8.78024 15.2361H11.009Z" fill="url(#paint5_linear_18_8919)"/>
<path d="M11.009 15.2361V29.9997C8.68173 30.0021 6.35448 30.0038 4.02722 30.0038C3.34369 30.0038 2.96216 29.6382 3.00986 29.0182C3.05755 28.3983 4.5995 16.9052 4.82205 15.9514C6.25908 15.3919 8.05961 15.2414 8.78024 15.2361H11.009Z" fill="url(#paint6_linear_18_8919)"/>
<path d="M11.009 15.2361V29.9997C8.68173 30.0021 6.35448 30.0038 4.02722 30.0038C3.34369 30.0038 2.96216 29.6382 3.00986 29.0182C3.05755 28.3983 4.5995 16.9052 4.82205 15.9514C6.25908 15.3919 8.05961 15.2414 8.78024 15.2361H11.009Z" fill="url(#paint7_radial_18_8919)"/>
<path fill-rule="evenodd" clip-rule="evenodd" d="M11.009 29.9997C12.7014 29.998 14.3937 29.9958 16.086 29.9937C20.1056 29.9886 24.1252 29.9836 28.1448 29.9836C28.9193 29.9836 29.0511 29.4947 28.9852 28.9399C28.9584 28.7145 28.8892 28.1495 28.7981 27.4043C28.6648 26.3153 28.4845 24.8419 28.3205 23.4819C28.0444 21.1911 27.3219 16.654 27.2322 16.0983C27.1426 15.5425 26.9812 15.2361 26.5689 15.2361H11.009V29.9997Z" fill="url(#paint8_linear_18_8919)"/>
<path fill-rule="evenodd" clip-rule="evenodd" d="M11.009 29.9997C12.7014 29.998 14.3937 29.9958 16.086 29.9937C20.1056 29.9886 24.1252 29.9836 28.1448 29.9836C28.9193 29.9836 29.0511 29.4947 28.9852 28.9399C28.9584 28.7145 28.8892 28.1495 28.7981 27.4043C28.6648 26.3153 28.4845 24.8419 28.3205 23.4819C28.0444 21.1911 27.3219 16.654 27.2322 16.0983C27.1426 15.5425 26.9812 15.2361 26.5689 15.2361H11.009V29.9997Z" fill="url(#paint9_linear_18_8919)"/>
<path d="M16.0027 15.2902H13.4587L8.68767 15.9964C8.13526 20.3341 7.02257 29.0883 6.99113 29.4026C6.95184 29.7956 7.16797 30.0019 7.58061 30.0019L16.0027 29.9933V15.2902Z" fill="url(#paint10_linear_18_8919)"/>
<path d="M16.0027 15.2902H13.4587L8.68767 15.9964C8.13526 20.3341 7.02257 29.0883 6.99113 29.4026C6.95184 29.7956 7.16797 30.0019 7.58061 30.0019L16.0027 29.9933V15.2902Z" fill="url(#paint11_linear_18_8919)"/>
<path d="M16.0027 15.2902H13.4587L8.68767 15.9964C8.13526 20.3341 7.02257 29.0883 6.99113 29.4026C6.95184 29.7956 7.16797 30.0019 7.58061 30.0019L16.0027 29.9933V15.2902Z" fill="url(#paint12_linear_18_8919)"/>
<path d="M16.0027 15.2902H13.4587L8.68767 15.9964C8.13526 20.3341 7.02257 29.0883 6.99113 29.4026C6.95184 29.7956 7.16797 30.0019 7.58061 30.0019L16.0027 29.9933V15.2902Z" fill="url(#paint13_radial_18_8919)"/>
<path d="M16.0027 29.9933L16.0567 29.9933C20.3523 29.9889 24.2774 29.9851 24.5689 29.9851C25.0653 29.9851 25.1216 29.5775 25.0847 29.2415C25.0332 28.773 23.9939 20.3368 23.4657 16.1342L18.643 15.2902H16.0027V29.9933Z" fill="url(#paint14_linear_18_8919)"/>
<path d="M16.0027 29.9933L16.0567 29.9933C20.3523 29.9889 24.2774 29.9851 24.5689 29.9851C25.0653 29.9851 25.1216 29.5775 25.0847 29.2415C25.0332 28.773 23.9939 20.3368 23.4657 16.1342L18.643 15.2902H16.0027V29.9933Z" fill="url(#paint15_linear_18_8919)"/>
<path d="M16.0027 29.9933L16.0567 29.9933C20.3523 29.9889 24.2774 29.9851 24.5689 29.9851C25.0653 29.9851 25.1216 29.5775 25.0847 29.2415C25.0332 28.773 23.9939 20.3368 23.4657 16.1342L18.643 15.2902H16.0027V29.9933Z" fill="url(#paint16_linear_18_8919)"/>
<path d="M16.0027 29.9933L16.0567 29.9933C20.3523 29.9889 24.2774 29.9851 24.5689 29.9851C25.0653 29.9851 25.1216 29.5775 25.0847 29.2415C25.0332 28.773 23.9939 20.3368 23.4657 16.1342L18.643 15.2902H16.0027V29.9933Z" fill="url(#paint17_linear_18_8919)"/>
<g filter="url(#filter2_i_18_8919)">
<path d="M4.89181 17.4744C4.23226 16.609 4.54098 15.7156 4.75148 15.318C4.94571 14.9511 5.13037 14.9578 5.46716 14.9578H8.38137C8.78834 14.9578 8.88189 15.0466 8.68543 15.5472C8.48896 16.0477 7.98377 16.9271 7.38502 17.4276C6.78628 17.9281 5.55137 18.3398 4.89181 17.4744Z" fill="url(#paint18_linear_18_8919)"/>
<path d="M4.89181 17.4744C4.23226 16.609 4.54098 15.7156 4.75148 15.318C4.94571 14.9511 5.13037 14.9578 5.46716 14.9578H8.38137C8.78834 14.9578 8.88189 15.0466 8.68543 15.5472C8.48896 16.0477 7.98377 16.9271 7.38502 17.4276C6.78628 17.9281 5.55137 18.3398 4.89181 17.4744Z" fill="url(#paint19_radial_18_8919)"/>
</g>
<path d="M4.89181 17.4744C4.23226 16.609 4.54098 15.7156 4.75148 15.318C4.94571 14.9511 5.13037 14.9578 5.46716 14.9578H8.38137C8.78834 14.9578 8.88189 15.0466 8.68543 15.5472C8.48896 16.0477 7.98377 16.9271 7.38502 17.4276C6.78628 17.9281 5.55137 18.3398 4.89181 17.4744Z" fill="url(#paint20_linear_18_8919)"/>
<path d="M4.89181 17.4744C4.23226 16.609 4.54098 15.7156 4.75148 15.318C4.94571 14.9511 5.13037 14.9578 5.46716 14.9578H8.38137C8.78834 14.9578 8.88189 15.0466 8.68543 15.5472C8.48896 16.0477 7.98377 16.9271 7.38502 17.4276C6.78628 17.9281 5.55137 18.3398 4.89181 17.4744Z" fill="url(#paint21_radial_18_8919)"/>
<g filter="url(#filter3_i_18_8919)">
<path d="M27.1394 17.4744C27.7944 16.609 27.4878 15.7156 27.2788 15.318C27.0859 14.9511 26.9025 14.9578 26.568 14.9578H23.6739C23.2698 14.9578 23.1768 15.0466 23.372 15.5472C23.5671 16.0477 24.0688 16.9271 24.6634 17.4276C25.258 17.9281 26.4844 18.3398 27.1394 17.4744Z" fill="url(#paint22_radial_18_8919)"/>
<path d="M27.1394 17.4744C27.7944 16.609 27.4878 15.7156 27.2788 15.318C27.0859 14.9511 26.9025 14.9578 26.568 14.9578H23.6739C23.2698 14.9578 23.1768 15.0466 23.372 15.5472C23.5671 16.0477 24.0688 16.9271 24.6634 17.4276C25.258 17.9281 26.4844 18.3398 27.1394 17.4744Z" fill="url(#paint23_linear_18_8919)"/>
</g>
<path d="M27.1394 17.4744C27.7944 16.609 27.4878 15.7156 27.2788 15.318C27.0859 14.9511 26.9025 14.9578 26.568 14.9578H23.6739C23.2698 14.9578 23.1768 15.0466 23.372 15.5472C23.5671 16.0477 24.0688 16.9271 24.6634 17.4276C25.258 17.9281 26.4844 18.3398 27.1394 17.4744Z" fill="url(#paint24_radial_18_8919)"/>
<path d="M13.1658 22.4725L13.5102 15.5658H18.584L18.9475 22.4725H13.1658Z" fill="url(#paint25_linear_18_8919)"/>
<g filter="url(#filter4_i_18_8919)">
<path d="M16.0502 19.97C13.3802 19.97 11.009 22.14 11.009 24.81L11.009 29.996H20.9963L20.9963 24.81C20.9963 22.14 18.7202 19.97 16.0502 19.97Z" fill="url(#paint26_linear_18_8919)"/>
</g>
<g filter="url(#filter5_ii_18_8919)">
<path d="M18.6716 15.2499C17.9305 13.5347 16.7108 9.59797 16.2445 7.97253H15.8622C15.3982 9.59797 14.1707 13.5347 13.4333 15.2499H18.6716Z" fill="#D2C9DC"/>
</g>
<path d="M18.6716 15.2499C17.9305 13.5347 16.7108 9.59797 16.2445 7.97253H15.8622C15.3982 9.59797 14.1707 13.5347 13.4333 15.2499H18.6716Z" fill="url(#paint27_radial_18_8919)"/>
<g filter="url(#filter6_ii_18_8919)">
<path d="M9.23175 14.5644C8.97339 14.7951 8.89341 14.9912 8.88571 15.0603C8.81548 15.2331 9.77383 15.3257 10.9849 15.3257C12.1959 15.3257 13.4416 15.2565 13.5454 14.9912C14.2836 13.2842 15.3985 9.59717 15.8637 7.96704H15.4831C12.9918 11.531 9.55469 14.2761 9.23175 14.5644Z" fill="#E62E8A"/>
</g>
<path d="M9.23175 14.5644C8.97339 14.7951 8.89341 14.9912 8.88571 15.0603C8.81548 15.2331 9.77383 15.3257 10.9849 15.3257C12.1959 15.3257 13.4416 15.2565 13.5454 14.9912C14.2836 13.2842 15.3985 9.59717 15.8637 7.96704H15.4831C12.9918 11.531 9.55469 14.2761 9.23175 14.5644Z" fill="url(#paint28_linear_18_8919)"/>
<path d="M22.9087 14.5644C23.1684 14.7951 23.2487 14.9912 23.2565 15.0603C23.3271 15.2331 22.3638 15.3257 21.1466 15.3257C19.9294 15.3257 18.6774 15.2565 18.5731 14.9912C17.8312 13.2842 16.7105 9.59717 16.243 7.96704H16.6255C19.1295 11.531 22.5841 14.2761 22.9087 14.5644Z" fill="#FF5E59"/>
<g filter="url(#filter7_i_18_8919)">
<path d="M22.9087 14.5644C23.1684 14.7951 23.2487 14.9912 23.2565 15.0603C23.3271 15.2331 22.3638 15.3257 21.1466 15.3257C19.9294 15.3257 18.6823 15.2925 18.5779 15.0272C17.836 13.3202 16.7105 9.59717 16.243 7.96704H16.6255C19.1295 11.531 22.5841 14.2761 22.9087 14.5644Z" fill="#FF5B65"/>
<path d="M22.9087 14.5644C23.1684 14.7951 23.2487 14.9912 23.2565 15.0603C23.3271 15.2331 22.3638 15.3257 21.1466 15.3257C19.9294 15.3257 18.6823 15.2925 18.5779 15.0272C17.836 13.3202 16.7105 9.59717 16.243 7.96704H16.6255C19.1295 11.531 22.5841 14.2761 22.9087 14.5644Z" fill="url(#paint29_linear_18_8919)"/>
<path d="M22.9087 14.5644C23.1684 14.7951 23.2487 14.9912 23.2565 15.0603C23.3271 15.2331 22.3638 15.3257 21.1466 15.3257C19.9294 15.3257 18.6823 15.2925 18.5779 15.0272C17.836 13.3202 16.7105 9.59717 16.243 7.96704H16.6255C19.1295 11.531 22.5841 14.2761 22.9087 14.5644Z" fill="url(#paint30_linear_18_8919)"/>
</g>
<path d="M18.6827 2.90151C17.1344 2.25313 16.4306 2.13297 16.2722 2.15393C16.2722 3.08958 16.2854 4.02554 16.2722 4.96111C16.8133 4.96111 19.5463 3.97961 19.7943 3.8688C20.0423 3.75798 20.0476 3.46776 19.7943 3.35167C19.541 3.23558 19.0555 3.04561 18.6827 2.90151Z" fill="url(#paint31_linear_18_8919)"/>
<path d="M18.6827 2.90151C17.1344 2.25313 16.4306 2.13297 16.2722 2.15393C16.2722 3.08958 16.2854 4.02554 16.2722 4.96111C16.8133 4.96111 19.5463 3.97961 19.7943 3.8688C20.0423 3.75798 20.0476 3.46776 19.7943 3.35167C19.541 3.23558 19.0555 3.04561 18.6827 2.90151Z" fill="url(#paint32_linear_18_8919)"/>
<g filter="url(#filter8_iii_18_8919)">
<path d="M14.9988 7.64759C14.9988 7.90186 15.1464 8.03309 15.3351 8.03309H16.59C16.8607 8.03309 16.992 7.84445 16.992 7.64759V7.14725C16.992 6.50747 16.59 6.41722 16.59 5.85128V2.76716C16.59 2.24223 16.3194 2.06995 16.0159 2.06995C15.7124 2.06995 15.4335 2.2422 15.4335 2.76716V5.85128C15.4335 6.48287 14.9988 6.39264 14.9988 7.14725V7.64759Z" fill="url(#paint33_linear_18_8919)"/>
</g>
<path d="M14.9988 7.64759C14.9988 7.90186 15.1464 8.03309 15.3351 8.03309H16.59C16.8607 8.03309 16.992 7.84445 16.992 7.64759V7.14725C16.992 6.50747 16.59 6.41722 16.59 5.85128V2.76716C16.59 2.24223 16.3194 2.06995 16.0159 2.06995C15.7124 2.06995 15.4335 2.2422 15.4335 2.76716V5.85128C15.4335 6.48287 14.9988 6.39264 14.9988 7.14725V7.64759Z" fill="url(#paint34_radial_18_8919)"/>
<path d="M14.9988 7.64759C14.9988 7.90186 15.1464 8.03309 15.3351 8.03309H16.59C16.8607 8.03309 16.992 7.84445 16.992 7.64759V7.14725C16.992 6.50747 16.59 6.41722 16.59 5.85128V2.76716C16.59 2.24223 16.3194 2.06995 16.0159 2.06995C15.7124 2.06995 15.4335 2.2422 15.4335 2.76716V5.85128C15.4335 6.48287 14.9988 6.39264 14.9988 7.14725V7.64759Z" fill="url(#paint35_radial_18_8919)"/>
<path d="M14.9988 7.64759C14.9988 7.90186 15.1464 8.03309 15.3351 8.03309H16.59C16.8607 8.03309 16.992 7.84445 16.992 7.64759V7.14725C16.992 6.50747 16.59 6.41722 16.59 5.85128V2.76716C16.59 2.24223 16.3194 2.06995 16.0159 2.06995C15.7124 2.06995 15.4335 2.2422 15.4335 2.76716V5.85128C15.4335 6.48287 14.9988 6.39264 14.9988 7.14725V7.64759Z" fill="url(#paint36_linear_18_8919)"/>
<g filter="url(#filter9_i_18_8919)">
<path d="M23.5118 15.6981C23.3588 15.1169 23.2898 14.9678 22.8754 14.9678H18.9045C18.5243 14.9678 18.567 15.2811 18.5864 15.4218C18.6019 15.5343 18.6302 15.6793 18.6425 15.7378C18.9533 17.0542 20.1866 17.9683 21.4989 17.9683C23.2602 17.9683 23.7387 16.4631 23.5118 15.6981Z" fill="url(#paint37_radial_18_8919)"/>
</g>
<path d="M23.5118 15.6981C23.3588 15.1169 23.2898 14.9678 22.8754 14.9678H18.9045C18.5243 14.9678 18.567 15.2811 18.5864 15.4218C18.6019 15.5343 18.6302 15.6793 18.6425 15.7378C18.9533 17.0542 20.1866 17.9683 21.4989 17.9683C23.2602 17.9683 23.7387 16.4631 23.5118 15.6981Z" fill="url(#paint38_linear_18_8919)"/>
<g filter="url(#filter10_i_18_8919)">
<path d="M14.0177 15.0015H14.0177H18.301C18.59 15.0015 18.6213 15.16 18.6559 15.4489C18.7809 17.0739 17.3599 17.9752 15.998 17.9752C14.3335 17.9752 13.3335 16.6199 13.4585 15.4489C13.5062 15.0015 13.6164 15.0015 14.0177 15.0015Z" fill="url(#paint39_linear_18_8919)"/>
</g>
<path d="M14.0177 15.0015H14.0177H18.301C18.59 15.0015 18.6213 15.16 18.6559 15.4489C18.7809 17.0739 17.3599 17.9752 15.998 17.9752C14.3335 17.9752 13.3335 16.6199 13.4585 15.4489C13.5062 15.0015 13.6164 15.0015 14.0177 15.0015Z" fill="url(#paint40_linear_18_8919)"/>
<path d="M14.0177 15.0015H14.0177H18.301C18.59 15.0015 18.6213 15.16 18.6559 15.4489C18.7809 17.0739 17.3599 17.9752 15.998 17.9752C14.3335 17.9752 13.3335 16.6199 13.4585 15.4489C13.5062 15.0015 13.6164 15.0015 14.0177 15.0015Z" fill="url(#paint41_radial_18_8919)"/>
<g filter="url(#filter11_f_18_8919)">
<path d="M13.5163 21.8276C12.939 22.0375 11.7845 22.9401 11.7845 24.8712C11.7845 26.8024 11.7845 28.5183 11.7845 29.3055" stroke="url(#paint42_linear_18_8919)" stroke-width="0.6" stroke-linecap="square"/>
</g>
<g filter="url(#filter12_i_18_8919)">
<path d="M8.5445 15.6981C8.69849 15.1169 8.76806 14.9678 9.18534 14.9678H13.1838C13.5666 14.9678 13.5236 15.2811 13.5041 15.4218C13.4885 15.5343 13.4599 15.6793 13.4476 15.7378C13.1347 17.0542 11.8927 17.9683 10.5713 17.9683C8.79787 17.9683 8.31598 16.4631 8.5445 15.6981Z" fill="url(#paint43_linear_18_8919)"/>
</g>
<defs>
<filter id="filter0_i_18_8919" x="16.2722" y="7.97253" width="11.2458" height="8.53729" filterUnits="userSpaceOnUse" color-interpolation-filters="sRGB">
<feFlood flood-opacity="0" result="BackgroundImageFix"/>
<feBlend mode="normal" in="SourceGraphic" in2="BackgroundImageFix" result="shape"/>
<feColorMatrix in="SourceAlpha" type="matrix" values="0 0 0 0 0 0 0 0 0 0 0 0 0 0 0 0 0 0 127 0" result="hardAlpha"/>
<feOffset dx="0.5"/>
<feGaussianBlur stdDeviation="0.25"/>
<feComposite in2="hardAlpha" operator="arithmetic" k2="-1" k3="1"/>
<feColorMatrix type="matrix" values="0 0 0 0 0.67451 0 0 0 0 0.529412 0 0 0 0 0.588235 0 0 0 1 0"/>
<feBlend mode="normal" in2="shape" result="effect1_innerShadow_18_8919"/>
</filter>
<filter id="filter1_i_18_8919" x="4.79761" y="7.97253" width="10.6817" height="7.68744" filterUnits="userSpaceOnUse" color-interpolation-filters="sRGB">
<feFlood flood-opacity="0" result="BackgroundImageFix"/>
<feBlend mode="normal" in="SourceGraphic" in2="BackgroundImageFix" result="shape"/>
<feColorMatrix in="SourceAlpha" type="matrix" values="0 0 0 0 0 0 0 0 0 0 0 0 0 0 0 0 0 0 127 0" result="hardAlpha"/>
<feOffset dx="-0.25"/>
<feGaussianBlur stdDeviation="0.225"/>
<feComposite in2="hardAlpha" operator="arithmetic" k2="-1" k3="1"/>
<feColorMatrix type="matrix" values="0 0 0 0 0.870588 0 0 0 0 0.784314 0 0 0 0 0.87451 0 0 0 1 0"/>
<feBlend mode="normal" in2="shape" result="effect1_innerShadow_18_8919"/>
</filter>
<filter id="filter2_i_18_8919" x="4.29243" y="14.7578" width="4.49193" height="3.21923" filterUnits="userSpaceOnUse" color-interpolation-filters="sRGB">
<feFlood flood-opacity="0" result="BackgroundImageFix"/>
<feBlend mode="normal" in="SourceGraphic" in2="BackgroundImageFix" result="shape"/>
<feColorMatrix in="SourceAlpha" type="matrix" values="0 0 0 0 0 0 0 0 0 0 0 0 0 0 0 0 0 0 127 0" result="hardAlpha"/>
<feOffset dx="-0.2" dy="-0.2"/>
<feGaussianBlur stdDeviation="0.2"/>
<feComposite in2="hardAlpha" operator="arithmetic" k2="-1" k3="1"/>
<feColorMatrix type="matrix" values="0 0 0 0 0.781851 0 0 0 0 0.554688 0 0 0 0 0.9375 0 0 0 1 0"/>
<feBlend mode="normal" in2="shape" result="effect1_innerShadow_18_8919"/>
</filter>
<filter id="filter3_i_18_8919" x="23.2737" y="14.8578" width="4.51233" height="3.11923" filterUnits="userSpaceOnUse" color-interpolation-filters="sRGB">
<feFlood flood-opacity="0" result="BackgroundImageFix"/>
<feBlend mode="normal" in="SourceGraphic" in2="BackgroundImageFix" result="shape"/>
<feColorMatrix in="SourceAlpha" type="matrix" values="0 0 0 0 0 0 0 0 0 0 0 0 0 0 0 0 0 0 127 0" result="hardAlpha"/>
<feOffset dx="0.25" dy="-0.1"/>
<feGaussianBlur stdDeviation="0.15"/>
<feComposite in2="hardAlpha" operator="arithmetic" k2="-1" k3="1"/>
<feColorMatrix type="matrix" values="0 0 0 0 0.635294 0 0 0 0 0.427451 0 0 0 0 0.694118 0 0 0 1 0"/>
<feBlend mode="normal" in2="shape" result="effect1_innerShadow_18_8919"/>
</filter>
<filter id="filter4_i_18_8919" x="10.509" y="19.97" width="10.4873" height="10.526" filterUnits="userSpaceOnUse" color-interpolation-filters="sRGB">
<feFlood flood-opacity="0" result="BackgroundImageFix"/>
<feBlend mode="normal" in="SourceGraphic" in2="BackgroundImageFix" result="shape"/>
<feColorMatrix in="SourceAlpha" type="matrix" values="0 0 0 0 0 0 0 0 0 0 0 0 0 0 0 0 0 0 127 0" result="hardAlpha"/>
<feOffset dx="-0.5" dy="0.5"/>
<feGaussianBlur stdDeviation="0.5"/>
<feComposite in2="hardAlpha" operator="arithmetic" k2="-1" k3="1"/>
<feColorMatrix type="matrix" values="0 0 0 0 0.176471 0 0 0 0 0.12549 0 0 0 0 0.211765 0 0 0 1 0"/>
<feBlend mode="normal" in2="shape" result="effect1_innerShadow_18_8919"/>
</filter>
<filter id="filter5_ii_18_8919" x="13.0333" y="7.97253" width="5.93828" height="7.2774" filterUnits="userSpaceOnUse" color-interpolation-filters="sRGB">
<feFlood flood-opacity="0" result="BackgroundImageFix"/>
<feBlend mode="normal" in="SourceGraphic" in2="BackgroundImageFix" result="shape"/>
<feColorMatrix in="SourceAlpha" type="matrix" values="0 0 0 0 0 0 0 0 0 0 0 0 0 0 0 0 0 0 127 0" result="hardAlpha"/>
<feOffset dx="0.3"/>
<feGaussianBlur stdDeviation="0.3"/>
<feComposite in2="hardAlpha" operator="arithmetic" k2="-1" k3="1"/>
<feColorMatrix type="matrix" values="0 0 0 0 0.584314 0 0 0 0 0.427451 0 0 0 0 0.52549 0 0 0 1 0"/>
<feBlend mode="normal" in2="shape" result="effect1_innerShadow_18_8919"/>
<feColorMatrix in="SourceAlpha" type="matrix" values="0 0 0 0 0 0 0 0 0 0 0 0 0 0 0 0 0 0 127 0" result="hardAlpha"/>
<feOffset dx="-0.4"/>
<feGaussianBlur stdDeviation="0.35"/>
<feComposite in2="hardAlpha" operator="arithmetic" k2="-1" k3="1"/>
<feColorMatrix type="matrix" values="0 0 0 0 0.996078 0 0 0 0 0.94902 0 0 0 0 1 0 0 0 1 0"/>
<feBlend mode="normal" in2="effect1_innerShadow_18_8919" result="effect2_innerShadow_18_8919"/>
</filter>
<filter id="filter6_ii_18_8919" x="8.48208" y="7.56704" width="7.38163" height="8.15864" filterUnits="userSpaceOnUse" color-interpolation-filters="sRGB">
<feFlood flood-opacity="0" result="BackgroundImageFix"/>
<feBlend mode="normal" in="SourceGraphic" in2="BackgroundImageFix" result="shape"/>
<feColorMatrix in="SourceAlpha" type="matrix" values="0 0 0 0 0 0 0 0 0 0 0 0 0 0 0 0 0 0 127 0" result="hardAlpha"/>
<feOffset dy="0.4"/>
<feGaussianBlur stdDeviation="0.3"/>
<feComposite in2="hardAlpha" operator="arithmetic" k2="-1" k3="1"/>
<feColorMatrix type="matrix" values="0 0 0 0 0.686275 0 0 0 0 0.227451 0 0 0 0 0.45098 0 0 0 1 0"/>
<feBlend mode="normal" in2="shape" result="effect1_innerShadow_18_8919"/>
<feColorMatrix in="SourceAlpha" type="matrix" values="0 0 0 0 0 0 0 0 0 0 0 0 0 0 0 0 0 0 127 0" result="hardAlpha"/>
<feOffset dx="-0.4" dy="-0.4"/>
<feGaussianBlur stdDeviation="0.2"/>
<feComposite in2="hardAlpha" operator="arithmetic" k2="-1" k3="1"/>
<feColorMatrix type="matrix" values="0 0 0 0 1 0 0 0 0 0.301961 0 0 0 0 0.717647 0 0 0 1 0"/>
<feBlend mode="normal" in2="effect1_innerShadow_18_8919" result="effect2_innerShadow_18_8919"/>
</filter>
<filter id="filter7_i_18_8919" x="16.243" y="7.96704" width="7.31715" height="7.35864" filterUnits="userSpaceOnUse" color-interpolation-filters="sRGB">
<feFlood flood-opacity="0" result="BackgroundImageFix"/>
<feBlend mode="normal" in="SourceGraphic" in2="BackgroundImageFix" result="shape"/>
<feColorMatrix in="SourceAlpha" type="matrix" values="0 0 0 0 0 0 0 0 0 0 0 0 0 0 0 0 0 0 127 0" result="hardAlpha"/>
<feOffset dx="0.3"/>
<feGaussianBlur stdDeviation="0.25"/>
<feComposite in2="hardAlpha" operator="arithmetic" k2="-1" k3="1"/>
<feColorMatrix type="matrix" values="0 0 0 0 0.913725 0 0 0 0 0.223529 0 0 0 0 0.278431 0 0 0 1 0"/>
<feBlend mode="normal" in2="shape" result="effect1_innerShadow_18_8919"/>
</filter>
<filter id="filter8_iii_18_8919" x="14.8488" y="2.06995" width="2.44316" height="5.96313" filterUnits="userSpaceOnUse" color-interpolation-filters="sRGB">
<feFlood flood-opacity="0" result="BackgroundImageFix"/>
<feBlend mode="normal" in="SourceGraphic" in2="BackgroundImageFix" result="shape"/>
<feColorMatrix in="SourceAlpha" type="matrix" values="0 0 0 0 0 0 0 0 0 0 0 0 0 0 0 0 0 0 127 0" result="hardAlpha"/>
<feOffset dx="0.3"/>
<feGaussianBlur stdDeviation="0.2"/>
<feComposite in2="hardAlpha" operator="arithmetic" k2="-1" k3="1"/>
<feColorMatrix type="matrix" values="0 0 0 0 0.709804 0 0 0 0 0.333333 0 0 0 0 0.243137 0 0 0 1 0"/>
<feBlend mode="normal" in2="shape" result="effect1_innerShadow_18_8919"/>
<feColorMatrix in="SourceAlpha" type="matrix" values="0 0 0 0 0 0 0 0 0 0 0 0 0 0 0 0 0 0 127 0" result="hardAlpha"/>
<feOffset dx="-0.15"/>
<feGaussianBlur stdDeviation="0.25"/>
<feComposite in2="hardAlpha" operator="arithmetic" k2="-1" k3="1"/>
<feColorMatrix type="matrix" values="0 0 0 0 1 0 0 0 0 0.87451 0 0 0 0 0.356863 0 0 0 1 0"/>
<feBlend mode="normal" in2="effect1_innerShadow_18_8919" result="effect2_innerShadow_18_8919"/>
<feColorMatrix in="SourceAlpha" type="matrix" values="0 0 0 0 0 0 0 0 0 0 0 0 0 0 0 0 0 0 127 0" result="hardAlpha"/>
<feOffset dx="0.1"/>
<feGaussianBlur stdDeviation="0.125"/>
<feComposite in2="hardAlpha" operator="arithmetic" k2="-1" k3="1"/>
<feColorMatrix type="matrix" values="0 0 0 0 0.682353 0 0 0 0 0.478431 0 0 0 0 0.262745 0 0 0 1 0"/>
<feBlend mode="normal" in2="effect2_innerShadow_18_8919" result="effect3_innerShadow_18_8919"/>
</filter>
<filter id="filter9_i_18_8919" x="18.5744" y="14.7178" width="5.23993" height="3.25049" filterUnits="userSpaceOnUse" color-interpolation-filters="sRGB">
<feFlood flood-opacity="0" result="BackgroundImageFix"/>
<feBlend mode="normal" in="SourceGraphic" in2="BackgroundImageFix" result="shape"/>
<feColorMatrix in="SourceAlpha" type="matrix" values="0 0 0 0 0 0 0 0 0 0 0 0 0 0 0 0 0 0 127 0" result="hardAlpha"/>
<feOffset dx="0.25" dy="-0.25"/>
<feGaussianBlur stdDeviation="0.25"/>
<feComposite in2="hardAlpha" operator="arithmetic" k2="-1" k3="1"/>
<feColorMatrix type="matrix" values="0 0 0 0 0.866667 0 0 0 0 0.176471 0 0 0 0 0.388235 0 0 0 1 0"/>
<feBlend mode="normal" in2="shape" result="effect1_innerShadow_18_8919"/>
</filter>
<filter id="filter10_i_18_8919" x="13.448" y="14.8015" width="5.31558" height="3.17369" filterUnits="userSpaceOnUse" color-interpolation-filters="sRGB">
<feFlood flood-opacity="0" result="BackgroundImageFix"/>
<feBlend mode="normal" in="SourceGraphic" in2="BackgroundImageFix" result="shape"/>
<feColorMatrix in="SourceAlpha" type="matrix" values="0 0 0 0 0 0 0 0 0 0 0 0 0 0 0 0 0 0 127 0" result="hardAlpha"/>
<feOffset dx="0.1" dy="-0.2"/>
<feGaussianBlur stdDeviation="0.25"/>
<feComposite in2="hardAlpha" operator="arithmetic" k2="-1" k3="1"/>
<feColorMatrix type="matrix" values="0 0 0 0 0.717647 0 0 0 0 0.407843 0 0 0 0 0.807843 0 0 0 1 0"/>
<feBlend mode="normal" in2="shape" result="effect1_innerShadow_18_8919"/>
</filter>
<filter id="filter11_f_18_8919" x="10.8846" y="20.8432" width="3.6162" height="9.36229" filterUnits="userSpaceOnUse" color-interpolation-filters="sRGB">
<feFlood flood-opacity="0" result="BackgroundImageFix"/>
<feBlend mode="normal" in="SourceGraphic" in2="BackgroundImageFix" result="shape"/>
<feGaussianBlur stdDeviation="0.3" result="effect1_foregroundBlur_18_8919"/>
</filter>
<filter id="filter12_i_18_8919" x="8.49158" y="14.8678" width="5.2246" height="3.10049" filterUnits="userSpaceOnUse" color-interpolation-filters="sRGB">
<feFlood flood-opacity="0" result="BackgroundImageFix"/>
<feBlend mode="normal" in="SourceGraphic" in2="BackgroundImageFix" result="shape"/>
<feColorMatrix in="SourceAlpha" type="matrix" values="0 0 0 0 0 0 0 0 0 0 0 0 0 0 0 0 0 0 127 0" result="hardAlpha"/>
<feOffset dx="0.2" dy="-0.1"/>
<feGaussianBlur stdDeviation="0.2"/>
<feComposite in2="hardAlpha" operator="arithmetic" k2="-1" k3="1"/>
<feColorMatrix type="matrix" values="0 0 0 0 0.705882 0 0 0 0 0.235294 0 0 0 0 0.254902 0 0 0 1 0"/>
<feBlend mode="normal" in2="shape" result="effect1_innerShadow_18_8919"/>
</filter>
<linearGradient id="paint0_linear_18_8919" x1="17.402" y1="8.29413" x2="26.4733" y2="15.2721" gradientUnits="userSpaceOnUse">
<stop stop-color="#C1BFC2"/>
<stop offset="0.0001" stop-color="#C0BCBD"/>
<stop offset="1" stop-color="#C3C1C4"/>
</linearGradient>
<linearGradient id="paint1_linear_18_8919" x1="27.3721" y1="15.5711" x2="21.9559" y2="13.511" gradientUnits="userSpaceOnUse">
<stop stop-color="#EBE8EE"/>
<stop offset="1" stop-color="#EBE8EE" stop-opacity="0"/>
</linearGradient>
<linearGradient id="paint2_linear_18_8919" x1="25.453" y1="15.7499" x2="25.453" y2="14.5624" gradientUnits="userSpaceOnUse">
<stop offset="0.105263" stop-color="#9C97A1"/>
<stop offset="1" stop-color="#9C97A1" stop-opacity="0"/>
</linearGradient>
<linearGradient id="paint3_linear_18_8919" x1="6.45288" y1="15.0312" x2="6.45288" y2="14.8359" gradientUnits="userSpaceOnUse">
<stop stop-color="#817E84"/>
<stop offset="1" stop-color="#817E84" stop-opacity="0"/>
</linearGradient>
<linearGradient id="paint4_linear_18_8919" x1="7.89038" y1="13.1562" x2="8.60913" y2="13.9062" gradientUnits="userSpaceOnUse">
<stop stop-color="#9C9B9D"/>
<stop offset="1" stop-color="#9C9B9D" stop-opacity="0"/>
</linearGradient>
<linearGradient id="paint5_linear_18_8919" x1="3.66924" y1="21.7652" x2="7.79754" y2="22.3549" gradientUnits="userSpaceOnUse">
<stop stop-color="#AA4350"/>
<stop offset="0.250236" stop-color="#BD3152"/>
<stop offset="0.738303" stop-color="#CC2D70"/>
<stop offset="0.885456" stop-color="#EC3095"/>
</linearGradient>
<linearGradient id="paint6_linear_18_8919" x1="4.97848" y1="30.4211" x2="4.97848" y2="29.1236" gradientUnits="userSpaceOnUse">
<stop stop-color="#E849A5"/>
<stop offset="1" stop-color="#E849A5" stop-opacity="0"/>
</linearGradient>
<radialGradient id="paint7_radial_18_8919" cx="0" cy="0" r="1" gradientUnits="userSpaceOnUse" gradientTransform="translate(6.81229 16.0312) rotate(121.718) scale(2.64506 1.76959)">
<stop offset="0.506283" stop-color="#B32F73"/>
<stop offset="1" stop-color="#B32F73" stop-opacity="0"/>
</radialGradient>
<linearGradient id="paint8_linear_18_8919" x1="24.1525" y1="23.0347" x2="28.2981" y2="22.7723" gradientUnits="userSpaceOnUse">
<stop stop-color="#FF436D"/>
<stop offset="0.209712" stop-color="#F63B5E"/>
<stop offset="1" stop-color="#FF55AB"/>
</linearGradient>
<linearGradient id="paint9_linear_18_8919" x1="15.4435" y1="30.4169" x2="15.4435" y2="29.1197" gradientUnits="userSpaceOnUse">
<stop stop-color="#E849A5"/>
<stop offset="1" stop-color="#E849A5" stop-opacity="0"/>
</linearGradient>
<linearGradient id="paint10_linear_18_8919" x1="7.89795" y1="20.9735" x2="13.3718" y2="21.6425" gradientUnits="userSpaceOnUse">
<stop offset="0.0424523" stop-color="#806586"/>
<stop offset="0.146049" stop-color="#9E87B5"/>
<stop offset="1" stop-color="#C8AFE2"/>
</linearGradient>
<linearGradient id="paint11_linear_18_8919" x1="13.311" y1="19.7368" x2="12.3987" y2="19.6963" gradientUnits="userSpaceOnUse">
<stop stop-color="#F1D3FF"/>
<stop offset="1" stop-color="#F1D3FF" stop-opacity="0"/>
</linearGradient>
<linearGradient id="paint12_linear_18_8919" x1="9.31711" y1="30.421" x2="9.31711" y2="28.9208" gradientUnits="userSpaceOnUse">
<stop stop-color="#BF70FC"/>
<stop offset="1" stop-color="#BF70FC" stop-opacity="0"/>
</linearGradient>
<radialGradient id="paint13_radial_18_8919" cx="0" cy="0" r="1" gradientUnits="userSpaceOnUse" gradientTransform="translate(10.3715 16.1278) rotate(96.0333) scale(2.07418 2.4816)">
<stop offset="0.84547" stop-color="#9663A3"/>
<stop offset="1" stop-color="#9663A3" stop-opacity="0"/>
</radialGradient>
<linearGradient id="paint14_linear_18_8919" x1="18.8863" y1="20.2234" x2="24.0358" y2="19.9193" gradientUnits="userSpaceOnUse">
<stop offset="0.0361131" stop-color="#AA88BB"/>
<stop offset="0.200445" stop-color="#D3C1E6"/>
<stop offset="1" stop-color="#F2E0FF"/>
</linearGradient>
<linearGradient id="paint15_linear_18_8919" x1="24.5629" y1="24.0146" x2="23.1438" y2="24.1362" gradientUnits="userSpaceOnUse">
<stop stop-color="#FFF4FF"/>
<stop offset="1" stop-color="#FFF4FF" stop-opacity="0"/>
</linearGradient>
<linearGradient id="paint16_linear_18_8919" x1="25.7388" y1="31.1914" x2="20.792" y2="25.6365" gradientUnits="userSpaceOnUse">
<stop stop-color="#FFEEFF"/>
<stop offset="1" stop-color="#FFEEFF" stop-opacity="0"/>
</linearGradient>
<linearGradient id="paint17_linear_18_8919" x1="22.6977" y1="30.2386" x2="22.6977" y2="29.1235" gradientUnits="userSpaceOnUse">
<stop offset="0.0895521" stop-color="#CC85FF"/>
<stop offset="1" stop-color="#CC85FF" stop-opacity="0"/>
</linearGradient>
<linearGradient id="paint18_linear_18_8919" x1="4.94516" y1="17.7535" x2="8.78435" y2="14.739" gradientUnits="userSpaceOnUse">
<stop stop-color="#9481A7"/>
<stop offset="1" stop-color="#BBB1C5"/>
</linearGradient>
<radialGradient id="paint19_radial_18_8919" cx="0" cy="0" r="1" gradientUnits="userSpaceOnUse" gradientTransform="translate(7.36697 16.6249) rotate(-174.104) scale(2.88983 3.35794)">
<stop offset="0.922306" stop-color="#81788B" stop-opacity="0"/>
<stop offset="1" stop-color="#81788B"/>
</radialGradient>
<linearGradient id="paint20_linear_18_8919" x1="6.63839" y1="14.8128" x2="6.63839" y2="15.2732" gradientUnits="userSpaceOnUse">
<stop stop-color="#A19FA4"/>
<stop offset="1" stop-color="#A19FA4" stop-opacity="0"/>
</linearGradient>
<radialGradient id="paint21_radial_18_8919" cx="0" cy="0" r="1" gradientUnits="userSpaceOnUse" gradientTransform="translate(5.89384 15.3323) rotate(22.0772) scale(2.76699 3.40683)">
<stop offset="0.841361" stop-color="#DED2E4" stop-opacity="0"/>
<stop offset="0.989672" stop-color="#DED2E4"/>
</radialGradient>
<radialGradient id="paint22_radial_18_8919" cx="0" cy="0" r="1" gradientUnits="userSpaceOnUse" gradientTransform="translate(27.1404 14.9578) rotate(126.76) scale(2.90003 4.09403)">
<stop stop-color="#F2EFF4"/>
<stop offset="1" stop-color="#CBC4D4"/>
</radialGradient>
<linearGradient id="paint23_linear_18_8919" x1="25.4049" y1="14.8671" x2="25.4049" y2="15.0624" gradientUnits="userSpaceOnUse">
<stop stop-color="#A5A2A8"/>
<stop offset="1" stop-color="#A5A2A8" stop-opacity="0"/>
</linearGradient>
<radialGradient id="paint24_radial_18_8919" cx="0" cy="0" r="1" gradientUnits="userSpaceOnUse" gradientTransform="translate(22.5936 14.9578) rotate(55.8037) scale(2.7523 0.689266)">
<stop offset="0.341638" stop-color="#957D8D"/>
<stop offset="1" stop-color="#957D8D" stop-opacity="0"/>
</radialGradient>
<linearGradient id="paint25_linear_18_8919" x1="13.3555" y1="19.0192" x2="18.7736" y2="19.0192" gradientUnits="userSpaceOnUse">
<stop stop-color="#D33643"/>
<stop offset="0.135593" stop-color="#F63B5E"/>
<stop offset="0.857143" stop-color="#FF43A4"/>
<stop offset="1" stop-color="#FF4DBB"/>
</linearGradient>
<linearGradient id="paint26_linear_18_8919" x1="11.009" y1="25.7934" x2="20.9963" y2="25.7934" gradientUnits="userSpaceOnUse">
<stop stop-color="#533F68"/>
<stop offset="1" stop-color="#40364B"/>
</linearGradient>
<radialGradient id="paint27_radial_18_8919" cx="0" cy="0" r="1" gradientUnits="userSpaceOnUse" gradientTransform="translate(16.0525 15.2499) rotate(-90) scale(1.11313 3.38489)">
<stop stop-color="#B597D3"/>
<stop offset="1" stop-color="#B597D3" stop-opacity="0"/>
</radialGradient>
<linearGradient id="paint28_linear_18_8919" x1="11.4529" y1="15.0624" x2="11.4529" y2="14.6014" gradientUnits="userSpaceOnUse">
<stop stop-color="#D30D68"/>
<stop offset="1" stop-color="#D30D68" stop-opacity="0"/>
</linearGradient>
<linearGradient id="paint29_linear_18_8919" x1="23.4184" y1="15.3257" x2="19.3936" y2="13.78" gradientUnits="userSpaceOnUse">
<stop stop-color="#FF5EA9"/>
<stop offset="1" stop-color="#FF5EA9" stop-opacity="0"/>
</linearGradient>
<linearGradient id="paint30_linear_18_8919" x1="20.9258" y1="15.3257" x2="20.9258" y2="14.3748" gradientUnits="userSpaceOnUse">
<stop stop-color="#FF2464"/>
<stop offset="1" stop-color="#FF2464" stop-opacity="0"/>
</linearGradient>
<linearGradient id="paint31_linear_18_8919" x1="16.453" y1="4.96111" x2="19.9823" y2="4.96111" gradientUnits="userSpaceOnUse">
<stop stop-color="#FF4564"/>
<stop offset="1" stop-color="#FF51AA"/>
</linearGradient>
<linearGradient id="paint32_linear_18_8919" x1="18.4373" y1="4.57805" x2="18.2967" y2="4.14055" gradientUnits="userSpaceOnUse">
<stop stop-color="#F33161"/>
<stop offset="1" stop-color="#F33161" stop-opacity="0"/>
</linearGradient>
<linearGradient id="paint33_linear_18_8919" x1="14.9988" y1="6.71219" x2="16.3002" y2="6.71219" gradientUnits="userSpaceOnUse">
<stop stop-color="#EC622E"/>
<stop offset="1" stop-color="#FFA94B"/>
</linearGradient>
<radialGradient id="paint34_radial_18_8919" cx="0" cy="0" r="1" gradientUnits="userSpaceOnUse" gradientTransform="translate(16.4725 2.19594) rotate(124.216) scale(0.592793 0.577051)">
<stop stop-color="#FFE65E"/>
<stop offset="1" stop-color="#FFE65E" stop-opacity="0"/>
</radialGradient>
<radialGradient id="paint35_radial_18_8919" cx="0" cy="0" r="1" gradientUnits="userSpaceOnUse" gradientTransform="translate(16.4726 -0.666804) rotate(90) scale(6.62745 0.872549)">
<stop stop-color="#FFE65E"/>
<stop offset="1" stop-color="#FFE65E" stop-opacity="0"/>
</radialGradient>
<linearGradient id="paint36_linear_18_8919" x1="16.4824" y1="8.20575" x2="16.4824" y2="7.82339" gradientUnits="userSpaceOnUse">
<stop stop-color="#E44730"/>
<stop offset="1" stop-color="#E44730" stop-opacity="0"/>
</linearGradient>
<radialGradient id="paint37_radial_18_8919" cx="0" cy="0" r="1" gradientUnits="userSpaceOnUse" gradientTransform="translate(18.8592 15.6561) rotate(6.06582) scale(4.73168 5.02703)">
<stop offset="0.619559" stop-color="#FF5768"/>
<stop offset="1" stop-color="#FF59BC"/>
</radialGradient>
<linearGradient id="paint38_linear_18_8919" x1="21.0694" y1="14.7342" x2="21.0694" y2="15.2342" gradientUnits="userSpaceOnUse">
<stop stop-color="#FD2230"/>
<stop offset="1" stop-color="#FD2230" stop-opacity="0"/>
</linearGradient>
<linearGradient id="paint39_linear_18_8919" x1="14.4217" y1="16.4883" x2="19.2654" y2="16.4883" gradientUnits="userSpaceOnUse">
<stop stop-color="#A89BB6"/>
<stop offset="1" stop-color="#FFF4FF"/>
</linearGradient>
<linearGradient id="paint40_linear_18_8919" x1="16.0558" y1="14.7108" x2="16.0558" y2="15.2186" gradientUnits="userSpaceOnUse">
<stop stop-color="#8A779C"/>
<stop offset="1" stop-color="#8A779C" stop-opacity="0"/>
</linearGradient>
<radialGradient id="paint41_radial_18_8919" cx="0" cy="0" r="1" gradientUnits="userSpaceOnUse" gradientTransform="translate(18.0154 15.4061) rotate(162.174) scale(4.79776 5.79734)">
<stop offset="0.771592" stop-color="#8B688A" stop-opacity="0"/>
<stop offset="1" stop-color="#8B688A"/>
</radialGradient>
<linearGradient id="paint42_linear_18_8919" x1="11.8358" y1="29.6466" x2="11.8358" y2="20.9093" gradientUnits="userSpaceOnUse">
<stop stop-color="#644F7C"/>
<stop offset="1" stop-color="#644F7C" stop-opacity="0"/>
</linearGradient>
<linearGradient id="paint43_linear_18_8919" x1="8.91157" y1="16.468" x2="13.1082" y2="16.468" gradientUnits="userSpaceOnUse">
<stop stop-color="#DC364A"/>
<stop offset="1" stop-color="#FF3EAC"/>
</linearGradient>
</defs>
</svg>
