<svg width="32" height="32" viewBox="0 0 32 32" fill="none" xmlns="http://www.w3.org/2000/svg">
<g filter="url(#filter0_i_4002_2605)">
<path d="M22.1738 7.97229H7.15178C6.75727 8.29229 6.37287 9.30854 5.98846 9.62854V10.9723C5.98846 15.6623 9.84259 19.4723 14.5869 19.4723C19.3312 19.4723 23.1854 15.6623 23.1854 10.9723V9.62854C22.8313 9.20854 22.4975 8.42229 22.1738 7.97229Z" fill="url(#paint0_linear_4002_2605)"/>
<path d="M22.1738 7.97229H7.15178C6.75727 8.29229 6.37287 9.30854 5.98846 9.62854V10.9723C5.98846 15.6623 9.84259 19.4723 14.5869 19.4723C19.3312 19.4723 23.1854 15.6623 23.1854 10.9723V9.62854C22.8313 9.20854 22.4975 8.42229 22.1738 7.97229Z" fill="url(#paint1_linear_4002_2605)"/>
</g>
<g filter="url(#filter1_i_4002_2605)">
<path fill-rule="evenodd" clip-rule="evenodd" d="M21.7821 12.5007C21.9946 12.0656 22.106 11.5798 22.106 11.0738C22.106 10.6065 22.0098 10.168 21.8374 9.76833H21.8427C21.7623 9.58734 21.6719 9.41635 21.5615 9.25534L21.5595 9.25221C21.2154 8.72597 21.0332 8.10865 21.0332 7.4812L20.8663 7.47108C20.8663 5.64948 19.5557 4.17195 17.7341 4.17195C17.5519 4.17195 17.3799 4.09099 17.2787 3.93919C16.6816 3.10935 15.6999 2.56287 14.5968 2.56287C13.4937 2.56287 12.5121 3.10935 11.915 3.93919C11.8138 4.08087 11.6417 4.17195 11.4596 4.17195C11.4312 4.17195 11.4028 4.17231 11.3746 4.17303C9.59222 4.21815 8.49127 5.68803 8.49127 7.4812H8.16045C8.16045 8.10865 7.97829 8.72597 7.63421 9.25221L7.63191 9.25588C7.28929 9.78132 7.08783 10.3974 7.08783 11.0738C7.08783 11.5899 7.20927 12.0656 7.41167 12.5007C7.48251 12.6424 7.48251 12.8145 7.41167 12.9561C6.48162 14.9092 8.24198 17.1238 10.306 17.1238H18.8878C20.6689 17.1238 22.106 15.6707 22.106 14.2176C22.106 13.7116 21.9845 13.3812 21.7821 12.9561C21.7113 12.8145 21.7113 12.6424 21.7821 12.5007ZM9.52197 9.82835H9.50966L10.7084 12.1839C10.8317 14.9864 11.9254 12.1839 14.5968 12.1839C17.2682 12.1839 18.4332 15.3033 18.5565 12.5007L19.6436 9.31131C19.5899 8.06648 18.7365 7.9714 18.5565 7.9714H15.3365C14.0649 7.9714 12.865 7.34902 12.1472 6.29811C12.0241 6.12466 11.7678 6.15527 11.6857 6.34913L11.6037 6.54298C11.3781 7.10415 10.9474 7.53267 10.4141 7.77755C10.3988 7.78265 10.3808 7.7903 10.3629 7.79795C10.3449 7.8056 10.327 7.81326 10.3116 7.81836C10.0757 7.94079 9.52197 8.3081 9.50146 9.25698L9.51171 9.56307L9.52197 9.82835Z" fill="url(#paint2_linear_4002_2605)"/>
<path fill-rule="evenodd" clip-rule="evenodd" d="M21.7821 12.5007C21.9946 12.0656 22.106 11.5798 22.106 11.0738C22.106 10.6065 22.0098 10.168 21.8374 9.76833H21.8427C21.7623 9.58734 21.6719 9.41635 21.5615 9.25534L21.5595 9.25221C21.2154 8.72597 21.0332 8.10865 21.0332 7.4812L20.8663 7.47108C20.8663 5.64948 19.5557 4.17195 17.7341 4.17195C17.5519 4.17195 17.3799 4.09099 17.2787 3.93919C16.6816 3.10935 15.6999 2.56287 14.5968 2.56287C13.4937 2.56287 12.5121 3.10935 11.915 3.93919C11.8138 4.08087 11.6417 4.17195 11.4596 4.17195C11.4312 4.17195 11.4028 4.17231 11.3746 4.17303C9.59222 4.21815 8.49127 5.68803 8.49127 7.4812H8.16045C8.16045 8.10865 7.97829 8.72597 7.63421 9.25221L7.63191 9.25588C7.28929 9.78132 7.08783 10.3974 7.08783 11.0738C7.08783 11.5899 7.20927 12.0656 7.41167 12.5007C7.48251 12.6424 7.48251 12.8145 7.41167 12.9561C6.48162 14.9092 8.24198 17.1238 10.306 17.1238H18.8878C20.6689 17.1238 22.106 15.6707 22.106 14.2176C22.106 13.7116 21.9845 13.3812 21.7821 12.9561C21.7113 12.8145 21.7113 12.6424 21.7821 12.5007ZM9.52197 9.82835H9.50966L10.7084 12.1839C10.8317 14.9864 11.9254 12.1839 14.5968 12.1839C17.2682 12.1839 18.4332 15.3033 18.5565 12.5007L19.6436 9.31131C19.5899 8.06648 18.7365 7.9714 18.5565 7.9714H15.3365C14.0649 7.9714 12.865 7.34902 12.1472 6.29811C12.0241 6.12466 11.7678 6.15527 11.6857 6.34913L11.6037 6.54298C11.3781 7.10415 10.9474 7.53267 10.4141 7.77755C10.3988 7.78265 10.3808 7.7903 10.3629 7.79795C10.3449 7.8056 10.327 7.81326 10.3116 7.81836C10.0757 7.94079 9.52197 8.3081 9.50146 9.25698L9.51171 9.56307L9.52197 9.82835Z" fill="url(#paint3_radial_4002_2605)"/>
<path fill-rule="evenodd" clip-rule="evenodd" d="M21.7821 12.5007C21.9946 12.0656 22.106 11.5798 22.106 11.0738C22.106 10.6065 22.0098 10.168 21.8374 9.76833H21.8427C21.7623 9.58734 21.6719 9.41635 21.5615 9.25534L21.5595 9.25221C21.2154 8.72597 21.0332 8.10865 21.0332 7.4812L20.8663 7.47108C20.8663 5.64948 19.5557 4.17195 17.7341 4.17195C17.5519 4.17195 17.3799 4.09099 17.2787 3.93919C16.6816 3.10935 15.6999 2.56287 14.5968 2.56287C13.4937 2.56287 12.5121 3.10935 11.915 3.93919C11.8138 4.08087 11.6417 4.17195 11.4596 4.17195C11.4312 4.17195 11.4028 4.17231 11.3746 4.17303C9.59222 4.21815 8.49127 5.68803 8.49127 7.4812H8.16045C8.16045 8.10865 7.97829 8.72597 7.63421 9.25221L7.63191 9.25588C7.28929 9.78132 7.08783 10.3974 7.08783 11.0738C7.08783 11.5899 7.20927 12.0656 7.41167 12.5007C7.48251 12.6424 7.48251 12.8145 7.41167 12.9561C6.48162 14.9092 8.24198 17.1238 10.306 17.1238H18.8878C20.6689 17.1238 22.106 15.6707 22.106 14.2176C22.106 13.7116 21.9845 13.3812 21.7821 12.9561C21.7113 12.8145 21.7113 12.6424 21.7821 12.5007ZM9.52197 9.82835H9.50966L10.7084 12.1839C10.8317 14.9864 11.9254 12.1839 14.5968 12.1839C17.2682 12.1839 18.4332 15.3033 18.5565 12.5007L19.6436 9.31131C19.5899 8.06648 18.7365 7.9714 18.5565 7.9714H15.3365C14.0649 7.9714 12.865 7.34902 12.1472 6.29811C12.0241 6.12466 11.7678 6.15527 11.6857 6.34913L11.6037 6.54298C11.3781 7.10415 10.9474 7.53267 10.4141 7.77755C10.3988 7.78265 10.3808 7.7903 10.3629 7.79795C10.3449 7.8056 10.327 7.81326 10.3116 7.81836C10.0757 7.94079 9.52197 8.3081 9.50146 9.25698L9.51171 9.56307L9.52197 9.82835Z" fill="url(#paint4_radial_4002_2605)"/>
<path fill-rule="evenodd" clip-rule="evenodd" d="M21.7821 12.5007C21.9946 12.0656 22.106 11.5798 22.106 11.0738C22.106 10.6065 22.0098 10.168 21.8374 9.76833H21.8427C21.7623 9.58734 21.6719 9.41635 21.5615 9.25534L21.5595 9.25221C21.2154 8.72597 21.0332 8.10865 21.0332 7.4812L20.8663 7.47108C20.8663 5.64948 19.5557 4.17195 17.7341 4.17195C17.5519 4.17195 17.3799 4.09099 17.2787 3.93919C16.6816 3.10935 15.6999 2.56287 14.5968 2.56287C13.4937 2.56287 12.5121 3.10935 11.915 3.93919C11.8138 4.08087 11.6417 4.17195 11.4596 4.17195C11.4312 4.17195 11.4028 4.17231 11.3746 4.17303C9.59222 4.21815 8.49127 5.68803 8.49127 7.4812H8.16045C8.16045 8.10865 7.97829 8.72597 7.63421 9.25221L7.63191 9.25588C7.28929 9.78132 7.08783 10.3974 7.08783 11.0738C7.08783 11.5899 7.20927 12.0656 7.41167 12.5007C7.48251 12.6424 7.48251 12.8145 7.41167 12.9561C6.48162 14.9092 8.24198 17.1238 10.306 17.1238H18.8878C20.6689 17.1238 22.106 15.6707 22.106 14.2176C22.106 13.7116 21.9845 13.3812 21.7821 12.9561C21.7113 12.8145 21.7113 12.6424 21.7821 12.5007ZM9.52197 9.82835H9.50966L10.7084 12.1839C10.8317 14.9864 11.9254 12.1839 14.5968 12.1839C17.2682 12.1839 18.4332 15.3033 18.5565 12.5007L19.6436 9.31131C19.5899 8.06648 18.7365 7.9714 18.5565 7.9714H15.3365C14.0649 7.9714 12.865 7.34902 12.1472 6.29811C12.0241 6.12466 11.7678 6.15527 11.6857 6.34913L11.6037 6.54298C11.3781 7.10415 10.9474 7.53267 10.4141 7.77755C10.3988 7.78265 10.3808 7.7903 10.3629 7.79795C10.3449 7.8056 10.327 7.81326 10.3116 7.81836C10.0757 7.94079 9.52197 8.3081 9.50146 9.25698L9.51171 9.56307L9.52197 9.82835Z" fill="url(#paint5_radial_4002_2605)"/>
</g>
<path d="M14.587 15.4723C8.51697 15.4723 3.58698 20.3923 3.58698 26.4723V29.9723H25.577V26.4723C25.577 20.3923 20.657 15.4723 14.587 15.4723Z" fill="#DC375E"/>
<path d="M14.587 15.4723C8.51697 15.4723 3.58698 20.3923 3.58698 26.4723V29.9723H25.577V26.4723C25.577 20.3923 20.657 15.4723 14.587 15.4723Z" fill="url(#paint6_radial_4002_2605)"/>
<path d="M14.587 15.4723C8.51697 15.4723 3.58698 20.3923 3.58698 26.4723V29.9723H25.577V26.4723C25.577 20.3923 20.657 15.4723 14.587 15.4723Z" fill="url(#paint7_radial_4002_2605)"/>
<path d="M14.587 15.4723C8.51697 15.4723 3.58698 20.3923 3.58698 26.4723V29.9723H25.577V26.4723C25.577 20.3923 20.657 15.4723 14.587 15.4723Z" fill="url(#paint8_radial_4002_2605)"/>
<path d="M14.587 15.4723C8.51697 15.4723 3.58698 20.3923 3.58698 26.4723V29.9723H25.577V26.4723C25.577 20.3923 20.657 15.4723 14.587 15.4723Z" fill="url(#paint9_radial_4002_2605)"/>
<path d="M14.587 15.4723C8.51697 15.4723 3.58698 20.3923 3.58698 26.4723V29.9723H25.577V26.4723C25.577 20.3923 20.657 15.4723 14.587 15.4723Z" fill="url(#paint10_radial_4002_2605)"/>
<path d="M14.587 15.4723C8.51697 15.4723 3.58698 20.3923 3.58698 26.4723V29.9723H25.577V26.4723C25.577 20.3923 20.657 15.4723 14.587 15.4723Z" fill="url(#paint11_radial_4002_2605)"/>
<path d="M7.60699 29.9723V17.9703C5.1532 19.987 3.58698 23.0454 3.58698 26.4723V29.9723H7.60699Z" fill="url(#paint12_radial_4002_2605)"/>
<path d="M7.60699 29.9723V17.9703C5.1532 19.987 3.58698 23.0454 3.58698 26.4723V29.9723H7.60699Z" fill="url(#paint13_linear_4002_2605)"/>
<path d="M7.60699 29.9723V17.9703C5.1532 19.987 3.58698 23.0454 3.58698 26.4723V29.9723H7.60699Z" fill="url(#paint14_radial_4002_2605)"/>
<path d="M21.577 17.9821V29.9724H25.5769V26.4724C25.5769 23.0521 24.0199 19.9988 21.577 17.9821Z" fill="url(#paint15_radial_4002_2605)"/>
<path d="M21.577 17.9821V29.9724H25.5769V26.4724C25.5769 23.0521 24.0199 19.9988 21.577 17.9821Z" fill="url(#paint16_radial_4002_2605)"/>
<path d="M14.9468 15.8326C15.1968 15.8426 15.4568 15.8626 15.7168 15.8826C15.4568 15.8626 15.2068 15.8426 14.9468 15.8326Z" fill="url(#paint17_linear_4002_2605)"/>
<path d="M14.617 15.8326C14.607 15.8326 14.597 15.8326 14.577 15.8326C14.677 15.8326 14.767 15.8326 14.867 15.8426C14.787 15.8326 14.697 15.8326 14.617 15.8326Z" fill="url(#paint18_linear_4002_2605)"/>
<g filter="url(#filter2_i_4002_2605)">
<path d="M9.90627 12.6619C10.7949 12.6619 11.5154 11.9415 11.5154 11.0528C11.5154 10.1641 10.7949 9.44373 9.90627 9.44373C9.01759 9.44373 8.29718 10.1641 8.29718 11.0528C8.29718 11.9415 9.01759 12.6619 9.90627 12.6619Z" fill="url(#paint19_linear_4002_2605)"/>
</g>
<g filter="url(#filter3_i_4002_2605)">
<path d="M19.4192 12.6619C20.3079 12.6619 21.0283 11.9415 21.0283 11.0528C21.0283 10.1641 20.3079 9.44373 19.4192 9.44373C18.5305 9.44373 17.8101 10.1641 17.8101 11.0528C17.8101 11.9415 18.5305 12.6619 19.4192 12.6619Z" fill="url(#paint20_radial_4002_2605)"/>
<path d="M19.4192 12.6619C20.3079 12.6619 21.0283 11.9415 21.0283 11.0528C21.0283 10.1641 20.3079 9.44373 19.4192 9.44373C18.5305 9.44373 17.8101 10.1641 17.8101 11.0528C17.8101 11.9415 18.5305 12.6619 19.4192 12.6619Z" fill="url(#paint21_radial_4002_2605)"/>
</g>
<g filter="url(#filter4_f_4002_2605)">
<path d="M19.4191 12.1269C20.0124 12.1269 20.4933 11.646 20.4933 11.0527C20.4933 10.4595 20.0124 9.97864 19.4191 9.97864C18.8259 9.97864 18.345 10.4595 18.345 11.0527C18.345 11.646 18.8259 12.1269 19.4191 12.1269Z" fill="#4C3637"/>
<path d="M19.4191 12.1269C20.0124 12.1269 20.4933 11.646 20.4933 11.0527C20.4933 10.4595 20.0124 9.97864 19.4191 9.97864C18.8259 9.97864 18.345 10.4595 18.345 11.0527C18.345 11.646 18.8259 12.1269 19.4191 12.1269Z" fill="url(#paint22_radial_4002_2605)"/>
</g>
<g filter="url(#filter5_f_4002_2605)">
<path d="M9.92549 12.1269C10.5187 12.1269 10.9996 11.646 10.9996 11.0527C10.9996 10.4595 10.5187 9.97864 9.92549 9.97864C9.33227 9.97864 8.85138 10.4595 8.85138 11.0527C8.85138 11.646 9.33227 12.1269 9.92549 12.1269Z" fill="#35252B"/>
<path d="M9.92549 12.1269C10.5187 12.1269 10.9996 11.646 10.9996 11.0527C10.9996 10.4595 10.5187 9.97864 9.92549 9.97864C9.33227 9.97864 8.85138 10.4595 8.85138 11.0527C8.85138 11.646 9.33227 12.1269 9.92549 12.1269Z" fill="url(#paint23_radial_4002_2605)"/>
</g>
<g filter="url(#filter6_i_4002_2605)">
<path d="M9.50472 9.79004H9.51703L9.50678 9.52476L9.49652 9.21867C9.51703 8.26979 10.0708 7.90248 10.3067 7.78005C10.322 7.77494 10.34 7.76729 10.3579 7.75964C10.3759 7.75199 10.3938 7.74434 10.4092 7.73923C10.9425 7.49436 11.3732 7.06584 11.5988 6.50467L11.6808 6.31082C11.7628 6.11696 12.0192 6.08635 12.1423 6.2598C12.8601 7.31071 14.0599 7.75964 15.3315 7.75964H18.5515C18.8975 7.75964 19.6337 8.02046 19.6874 9.2653L19.5686 12.3383C19.4453 15.1408 17.2568 17.0227 14.5854 17.0227C11.914 17.0227 9.72546 15.1408 9.60216 12.3383L9.50472 9.79004Z" fill="url(#paint24_radial_4002_2605)"/>
<path d="M9.50472 9.79004H9.51703L9.50678 9.52476L9.49652 9.21867C9.51703 8.26979 10.0708 7.90248 10.3067 7.78005C10.322 7.77494 10.34 7.76729 10.3579 7.75964C10.3759 7.75199 10.3938 7.74434 10.4092 7.73923C10.9425 7.49436 11.3732 7.06584 11.5988 6.50467L11.6808 6.31082C11.7628 6.11696 12.0192 6.08635 12.1423 6.2598C12.8601 7.31071 14.0599 7.75964 15.3315 7.75964H18.5515C18.8975 7.75964 19.6337 8.02046 19.6874 9.2653L19.5686 12.3383C19.4453 15.1408 17.2568 17.0227 14.5854 17.0227C11.914 17.0227 9.72546 15.1408 9.60216 12.3383L9.50472 9.79004Z" fill="url(#paint25_radial_4002_2605)"/>
<path d="M9.50472 9.79004H9.51703L9.50678 9.52476L9.49652 9.21867C9.51703 8.26979 10.0708 7.90248 10.3067 7.78005C10.322 7.77494 10.34 7.76729 10.3579 7.75964C10.3759 7.75199 10.3938 7.74434 10.4092 7.73923C10.9425 7.49436 11.3732 7.06584 11.5988 6.50467L11.6808 6.31082C11.7628 6.11696 12.0192 6.08635 12.1423 6.2598C12.8601 7.31071 14.0599 7.75964 15.3315 7.75964H18.5515C18.8975 7.75964 19.6337 8.02046 19.6874 9.2653L19.5686 12.3383C19.4453 15.1408 17.2568 17.0227 14.5854 17.0227C11.914 17.0227 9.72546 15.1408 9.60216 12.3383L9.50472 9.79004Z" fill="url(#paint26_radial_4002_2605)"/>
<path d="M9.50472 9.79004H9.51703L9.50678 9.52476L9.49652 9.21867C9.51703 8.26979 10.0708 7.90248 10.3067 7.78005C10.322 7.77494 10.34 7.76729 10.3579 7.75964C10.3759 7.75199 10.3938 7.74434 10.4092 7.73923C10.9425 7.49436 11.3732 7.06584 11.5988 6.50467L11.6808 6.31082C11.7628 6.11696 12.0192 6.08635 12.1423 6.2598C12.8601 7.31071 14.0599 7.75964 15.3315 7.75964H18.5515C18.8975 7.75964 19.6337 8.02046 19.6874 9.2653L19.5686 12.3383C19.4453 15.1408 17.2568 17.0227 14.5854 17.0227C11.914 17.0227 9.72546 15.1408 9.60216 12.3383L9.50472 9.79004Z" fill="url(#paint27_radial_4002_2605)"/>
<path d="M9.50472 9.79004H9.51703L9.50678 9.52476L9.49652 9.21867C9.51703 8.26979 10.0708 7.90248 10.3067 7.78005C10.322 7.77494 10.34 7.76729 10.3579 7.75964C10.3759 7.75199 10.3938 7.74434 10.4092 7.73923C10.9425 7.49436 11.3732 7.06584 11.5988 6.50467L11.6808 6.31082C11.7628 6.11696 12.0192 6.08635 12.1423 6.2598C12.8601 7.31071 14.0599 7.75964 15.3315 7.75964H18.5515C18.8975 7.75964 19.6337 8.02046 19.6874 9.2653L19.5686 12.3383C19.4453 15.1408 17.2568 17.0227 14.5854 17.0227C11.914 17.0227 9.72546 15.1408 9.60216 12.3383L9.50472 9.79004Z" fill="url(#paint28_radial_4002_2605)"/>
<path d="M9.50472 9.79004H9.51703L9.50678 9.52476L9.49652 9.21867C9.51703 8.26979 10.0708 7.90248 10.3067 7.78005C10.322 7.77494 10.34 7.76729 10.3579 7.75964C10.3759 7.75199 10.3938 7.74434 10.4092 7.73923C10.9425 7.49436 11.3732 7.06584 11.5988 6.50467L11.6808 6.31082C11.7628 6.11696 12.0192 6.08635 12.1423 6.2598C12.8601 7.31071 14.0599 7.75964 15.3315 7.75964H18.5515C18.8975 7.75964 19.6337 8.02046 19.6874 9.2653L19.5686 12.3383C19.4453 15.1408 17.2568 17.0227 14.5854 17.0227C11.914 17.0227 9.72546 15.1408 9.60216 12.3383L9.50472 9.79004Z" fill="url(#paint29_radial_4002_2605)"/>
<path d="M9.50472 9.79004H9.51703L9.50678 9.52476L9.49652 9.21867C9.51703 8.26979 10.0708 7.90248 10.3067 7.78005C10.322 7.77494 10.34 7.76729 10.3579 7.75964C10.3759 7.75199 10.3938 7.74434 10.4092 7.73923C10.9425 7.49436 11.3732 7.06584 11.5988 6.50467L11.6808 6.31082C11.7628 6.11696 12.0192 6.08635 12.1423 6.2598C12.8601 7.31071 14.0599 7.75964 15.3315 7.75964H18.5515C18.8975 7.75964 19.6337 8.02046 19.6874 9.2653L19.5686 12.3383C19.4453 15.1408 17.2568 17.0227 14.5854 17.0227C11.914 17.0227 9.72546 15.1408 9.60216 12.3383L9.50472 9.79004Z" fill="url(#paint30_radial_4002_2605)"/>
<path d="M9.50472 9.79004H9.51703L9.50678 9.52476L9.49652 9.21867C9.51703 8.26979 10.0708 7.90248 10.3067 7.78005C10.322 7.77494 10.34 7.76729 10.3579 7.75964C10.3759 7.75199 10.3938 7.74434 10.4092 7.73923C10.9425 7.49436 11.3732 7.06584 11.5988 6.50467L11.6808 6.31082C11.7628 6.11696 12.0192 6.08635 12.1423 6.2598C12.8601 7.31071 14.0599 7.75964 15.3315 7.75964H18.5515C18.8975 7.75964 19.6337 8.02046 19.6874 9.2653L19.5686 12.3383C19.4453 15.1408 17.2568 17.0227 14.5854 17.0227C11.914 17.0227 9.72546 15.1408 9.60216 12.3383L9.50472 9.79004Z" fill="url(#paint31_radial_4002_2605)"/>
</g>
<path d="M9.50472 9.79004H9.51703L9.50678 9.52476L9.49652 9.21867C9.51703 8.26979 10.0708 7.90248 10.3067 7.78005C10.322 7.77494 10.34 7.76729 10.3579 7.75964C10.3759 7.75199 10.3938 7.74434 10.4092 7.73923C10.9425 7.49436 11.3732 7.06584 11.5988 6.50467L11.6808 6.31082C11.7628 6.11696 12.0192 6.08635 12.1423 6.2598C12.8601 7.31071 14.0599 7.75964 15.3315 7.75964H18.5515C18.8975 7.75964 19.6337 8.02046 19.6874 9.2653L19.5686 12.3383C19.4453 15.1408 17.2568 17.0227 14.5854 17.0227C11.914 17.0227 9.72546 15.1408 9.60216 12.3383L9.50472 9.79004Z" fill="url(#paint32_radial_4002_2605)"/>
<path d="M9.50472 9.79004H9.51703L9.50678 9.52476L9.49652 9.21867C9.51703 8.26979 10.0708 7.90248 10.3067 7.78005C10.322 7.77494 10.34 7.76729 10.3579 7.75964C10.3759 7.75199 10.3938 7.74434 10.4092 7.73923C10.9425 7.49436 11.3732 7.06584 11.5988 6.50467L11.6808 6.31082C11.7628 6.11696 12.0192 6.08635 12.1423 6.2598C12.8601 7.31071 14.0599 7.75964 15.3315 7.75964H18.5515C18.8975 7.75964 19.6337 8.02046 19.6874 9.2653L19.5686 12.3383C19.4453 15.1408 17.2568 17.0227 14.5854 17.0227C11.914 17.0227 9.72546 15.1408 9.60216 12.3383L9.50472 9.79004Z" fill="url(#paint33_radial_4002_2605)"/>
<path d="M9.50472 9.79004H9.51703L9.50678 9.52476L9.49652 9.21867C9.51703 8.26979 10.0708 7.90248 10.3067 7.78005C10.322 7.77494 10.34 7.76729 10.3579 7.75964C10.3759 7.75199 10.3938 7.74434 10.4092 7.73923C10.9425 7.49436 11.3732 7.06584 11.5988 6.50467L11.6808 6.31082C11.7628 6.11696 12.0192 6.08635 12.1423 6.2598C12.8601 7.31071 14.0599 7.75964 15.3315 7.75964H18.5515C18.8975 7.75964 19.6337 8.02046 19.6874 9.2653L19.5686 12.3383C19.4453 15.1408 17.2568 17.0227 14.5854 17.0227C11.914 17.0227 9.72546 15.1408 9.60216 12.3383L9.50472 9.79004Z" fill="url(#paint34_radial_4002_2605)"/>
<g filter="url(#filter7_f_4002_2605)">
<path d="M14.1994 10.8299L13.5159 12.5299C13.4074 12.8796 13.6677 13.2293 14.0365 13.2293H14.8228C15.1916 13.2293 15.4519 12.8742 15.3435 12.5299L14.812 10.8299C14.6981 10.4533 14.3187 10.4533 14.1994 10.8299Z" fill="#331B25"/>
</g>
<g filter="url(#filter8_f_4002_2605)">
<path d="M14.2097 10.6915L13.6782 12.3915C13.5697 12.7412 13.8301 13.0909 14.1988 13.0909H14.9852C15.354 13.0909 15.6143 12.7358 15.5058 12.3915L14.9744 10.6915C14.8605 10.3149 14.329 10.3149 14.2097 10.6915Z" fill="#4A302D"/>
<path d="M14.2097 10.6915L13.6782 12.3915C13.5697 12.7412 13.8301 13.0909 14.1988 13.0909H14.9852C15.354 13.0909 15.6143 12.7358 15.5058 12.3915L14.9744 10.6915C14.8605 10.3149 14.329 10.3149 14.2097 10.6915Z" fill="url(#paint35_radial_4002_2605)"/>
<path d="M14.2097 10.6915L13.6782 12.3915C13.5697 12.7412 13.8301 13.0909 14.1988 13.0909H14.9852C15.354 13.0909 15.6143 12.7358 15.5058 12.3915L14.9744 10.6915C14.8605 10.3149 14.329 10.3149 14.2097 10.6915Z" fill="url(#paint36_linear_4002_2605)"/>
<path d="M14.2097 10.6915L13.6782 12.3915C13.5697 12.7412 13.8301 13.0909 14.1988 13.0909H14.9852C15.354 13.0909 15.6143 12.7358 15.5058 12.3915L14.9744 10.6915C14.8605 10.3149 14.329 10.3149 14.2097 10.6915Z" fill="url(#paint37_linear_4002_2605)"/>
<path d="M14.2097 10.6915L13.6782 12.3915C13.5697 12.7412 13.8301 13.0909 14.1988 13.0909H14.9852C15.354 13.0909 15.6143 12.7358 15.5058 12.3915L14.9744 10.6915C14.8605 10.3149 14.329 10.3149 14.2097 10.6915Z" fill="url(#paint38_radial_4002_2605)"/>
</g>
<path d="M14.2097 10.6915L13.6782 12.3915C13.5697 12.7412 13.8301 13.0909 14.1988 13.0909H14.9852C15.354 13.0909 15.6143 12.7358 15.5058 12.3915L14.9744 10.6915C14.8605 10.3149 14.329 10.3149 14.2097 10.6915Z" fill="url(#paint39_linear_4002_2605)"/>
<path d="M14.2097 10.6915L13.6782 12.3915C13.5697 12.7412 13.8301 13.0909 14.1988 13.0909H14.9852C15.354 13.0909 15.6143 12.7358 15.5058 12.3915L14.9744 10.6915C14.8605 10.3149 14.329 10.3149 14.2097 10.6915Z" fill="url(#paint40_radial_4002_2605)"/>
<g filter="url(#filter9_f_4002_2605)">
<path d="M14.5919 13.9643C14.0712 13.9643 13.5817 13.8389 13.1703 13.6196C13.0297 13.5465 12.8787 13.7084 12.9673 13.8389C13.3109 14.3717 13.9098 14.7268 14.5919 14.7268C15.2741 14.7268 15.8729 14.3717 16.2166 13.8389C16.3052 13.7031 16.1541 13.5465 16.0135 13.6196C15.6022 13.8389 15.1179 13.9643 14.5919 13.9643Z" stroke="url(#paint41_linear_4002_2605)" stroke-width="0.2"/>
</g>
<path d="M14.5919 13.9643C14.0712 13.9643 13.5817 13.8389 13.1703 13.6196C13.0297 13.5465 12.8787 13.7084 12.9673 13.8389C13.3109 14.3717 13.9098 14.7268 14.5919 14.7268C15.2741 14.7268 15.8729 14.3717 16.2166 13.8389C16.3052 13.7031 16.1541 13.5465 16.0135 13.6196C15.6022 13.8389 15.1179 13.9643 14.5919 13.9643Z" fill="#2A0219"/>
<g filter="url(#filter10_i_4002_2605)">
<path d="M15.7341 10.4836C15.9995 10.0168 16.403 9.64807 17.2714 9.64807C17.6517 9.64807 18.0183 9.75342 18.3442 10.0168C18.6131 10.234 18.5771 10.512 18.3689 10.616L17.8128 10.9335C17.161 10.7228 16.4402 10.6943 15.7341 10.4836Z" fill="#2D2B2E"/>
</g>
<g filter="url(#filter11_i_4002_2605)">
<path d="M13.4501 10.4836C13.1847 10.0168 12.7812 9.64807 11.9128 9.64807C11.5325 9.64807 11.1659 9.75342 10.84 10.0168C10.5711 10.234 10.6071 10.512 10.8153 10.616L11.3714 10.9335C12.0232 10.7228 12.744 10.6943 13.4501 10.4836Z" fill="#272528"/>
</g>
<g filter="url(#filter12_i_4002_2605)">
<path d="M11.1943 8.82916L11.1899 8.83169C11.1898 8.83177 11.1896 8.83185 11.1895 8.83193C11.0626 8.90769 10.8981 8.86653 10.822 8.7397C10.7458 8.6127 10.7871 8.44787 10.9141 8.37167L10.9147 8.37132L10.9157 8.37071L10.9187 8.36897L10.9281 8.36353C10.9359 8.35906 10.9468 8.35296 10.9605 8.34551C10.988 8.33061 11.0271 8.31025 11.0765 8.28673C11.175 8.23976 11.3155 8.17962 11.4866 8.12499C11.8265 8.01652 12.3018 7.92526 12.8149 8.01581C12.9608 8.04155 13.0581 8.18066 13.0324 8.32651C13.0067 8.47237 12.8675 8.56975 12.7217 8.54401C12.3229 8.47364 11.9401 8.5433 11.6497 8.63596C11.5058 8.6819 11.3881 8.73238 11.3073 8.7709C11.267 8.79011 11.2361 8.80622 11.216 8.81709C11.206 8.82252 11.1987 8.82663 11.1943 8.82916Z" fill="#1E1E1E"/>
</g>
<g filter="url(#filter13_i_4002_2605)">
<path fill-rule="evenodd" clip-rule="evenodd" d="M18.3234 8.37167C18.3235 8.37172 18.3236 8.37176 18.1856 8.60173L18.3234 8.37167C18.4504 8.44787 18.4917 8.6127 18.4155 8.7397C18.3394 8.86654 18.175 8.90778 18.0481 8.832C18.048 8.83195 18.0479 8.83185 18.0476 8.83172L18.0432 8.82916C18.0388 8.82663 18.0315 8.82252 18.0215 8.81709C18.0014 8.80622 17.9705 8.79011 17.9302 8.7709C17.8494 8.73238 17.7317 8.6819 17.5878 8.63596C17.2974 8.5433 16.9146 8.47364 16.5158 8.54401C16.37 8.56975 16.2309 8.47237 16.2051 8.32651C16.1794 8.18066 16.2768 8.04155 16.4226 8.01581C16.9357 7.92526 17.411 8.01652 17.7509 8.12499C17.922 8.17962 18.0625 8.23976 18.161 8.28673C18.2104 8.31025 18.2495 8.33061 18.277 8.34551C18.2907 8.35296 18.3016 8.35906 18.3094 8.36353L18.3188 8.36897L18.3218 8.37071L18.3228 8.37132L18.3234 8.37167Z" fill="#1E1E1E"/>
</g>
<path d="M16.983 9.70691C17.6361 9.70691 18.1878 10.1572 18.3379 10.7657C18.3825 10.9401 18.2486 11.1064 18.0702 11.1064H15.839C15.6971 11.1064 15.5835 10.9766 15.6119 10.8346C15.7376 10.1937 16.3015 9.70691 16.983 9.70691Z" fill="white"/>
<path d="M16.776 9.97864C17.2709 9.97864 17.6684 10.3802 17.6684 10.8711C17.6684 10.9522 17.6562 11.0333 17.636 11.1064H15.9119C15.8916 11.0293 15.8795 10.9522 15.8795 10.8711C15.8795 10.3802 16.2811 9.97864 16.776 9.97864Z" fill="url(#paint42_radial_4002_2605)"/>
<path d="M16.265 10.8711C16.265 10.5872 16.4921 10.36 16.7761 10.36C17.06 10.36 17.2872 10.5872 17.2872 10.8711C17.2872 10.9563 17.2669 11.0374 17.2304 11.1064H16.3258C16.2852 11.0374 16.265 10.9563 16.265 10.8711Z" fill="black"/>
<g filter="url(#filter14_f_4002_2605)">
<path d="M16.7103 10.1673C16.7739 10.2524 16.641 10.356 16.4898 10.469C16.3387 10.582 16.2266 10.6615 16.163 10.5765C16.0995 10.4914 16.1704 10.3309 16.3215 10.2179C16.4726 10.1049 16.6467 10.0823 16.7103 10.1673Z" fill="#C7A7A3"/>
<path d="M16.7103 10.1673C16.7739 10.2524 16.641 10.356 16.4898 10.469C16.3387 10.582 16.2266 10.6615 16.163 10.5765C16.0995 10.4914 16.1704 10.3309 16.3215 10.2179C16.4726 10.1049 16.6467 10.0823 16.7103 10.1673Z" fill="url(#paint43_radial_4002_2605)"/>
</g>
<g filter="url(#filter15_f_4002_2605)">
<path d="M17.5709 10.7536C17.5379 10.5229 17.4029 10.349 17.3395 10.2909L17.0797 10.5761L17.1969 10.8043L17.5709 10.7536Z" fill="url(#paint44_linear_4002_2605)"/>
</g>
<path d="M12.201 9.70691C11.5479 9.70691 10.9962 10.1572 10.8461 10.7657C10.8015 10.9401 10.9354 11.1064 11.1138 11.1064H13.345C13.487 11.1064 13.6005 10.9766 13.5722 10.8346C13.4464 10.1937 12.8785 9.70691 12.201 9.70691Z" fill="white"/>
<path d="M12.4079 9.97864C11.913 9.97864 11.5154 10.3802 11.5154 10.8711C11.5154 10.9522 11.5276 11.0334 11.5479 11.1064H13.272C13.2922 11.0293 13.3044 10.9522 13.3044 10.8711C13.3003 10.3802 12.9028 9.97864 12.4079 9.97864Z" fill="url(#paint45_radial_4002_2605)"/>
<path d="M12.9191 10.8711C12.9191 10.5872 12.6919 10.36 12.4079 10.36C12.124 10.36 11.8968 10.5872 11.8968 10.8711C11.8968 10.9563 11.9171 11.0374 11.9536 11.1064H12.8582C12.8947 11.0374 12.9191 10.9563 12.9191 10.8711Z" fill="black"/>
<g filter="url(#filter16_f_4002_2605)">
<path d="M13.2231 10.7662C13.2231 10.4778 12.9886 10.2855 12.9252 10.2274L12.6368 10.5063L12.8143 10.8676L13.2231 10.7662Z" fill="url(#paint46_linear_4002_2605)"/>
</g>
<g filter="url(#filter17_f_4002_2605)">
<ellipse cx="12.1385" cy="10.3599" rx="0.389603" ry="0.197175" transform="rotate(-27.914 12.1385 10.3599)" fill="#C7A7A3" fill-opacity="0.9"/>
<ellipse cx="12.1385" cy="10.3599" rx="0.389603" ry="0.197175" transform="rotate(-27.914 12.1385 10.3599)" fill="url(#paint47_radial_4002_2605)"/>
</g>
<path d="M20.8853 7.33246H8.28851V6.95467C8.28851 4.2207 10.2988 2.02746 13.3089 2.02746H15.7202C19.0488 2.02746 20.8853 4.2207 20.8853 6.95467V7.33246Z" fill="url(#paint48_radial_4002_2605)"/>
<path d="M20.8853 7.33246H8.28851V6.95467C8.28851 4.2207 10.2988 2.02746 13.3089 2.02746H15.7202C19.0488 2.02746 20.8853 4.2207 20.8853 6.95467V7.33246Z" fill="url(#paint49_linear_4002_2605)"/>
<path d="M20.8853 7.33246H8.28851V6.95467C8.28851 4.2207 10.2988 2.02746 13.3089 2.02746H15.7202C19.0488 2.02746 20.8853 4.2207 20.8853 6.95467V7.33246Z" fill="url(#paint50_radial_4002_2605)"/>
<path d="M20.8853 7.33246H8.28851V6.95467C8.28851 4.2207 10.2988 2.02746 13.3089 2.02746H15.7202C19.0488 2.02746 20.8853 4.2207 20.8853 6.95467V7.33246Z" fill="url(#paint51_radial_4002_2605)"/>
<path d="M20.8853 7.33246H8.28851V6.95467C8.28851 4.2207 10.2988 2.02746 13.3089 2.02746H15.7202C19.0488 2.02746 20.8853 4.2207 20.8853 6.95467V7.33246Z" fill="url(#paint52_radial_4002_2605)"/>
<path d="M21.577 26.1722H7.60699V29.9722H21.577V26.1722Z" fill="#ECB845"/>
<path d="M21.577 26.1722H7.60699V29.9722H21.577V26.1722Z" fill="url(#paint53_radial_4002_2605)"/>
<path d="M21.577 26.1722H7.60699V29.9722H21.577V26.1722Z" fill="url(#paint54_linear_4002_2605)"/>
<path d="M21.577 26.1722H7.60699V29.9722H21.577V26.1722Z" fill="url(#paint55_linear_4002_2605)"/>
<path d="M21.577 26.1722H7.60699V29.9722H21.577V26.1722Z" fill="url(#paint56_radial_4002_2605)"/>
<path d="M8.65857 7.97229H20.5055C21.4543 7.97229 22.4942 8.45667 22.4942 10.6523H23.1855V9.34729C23.1855 7.9176 22.338 6.97229 20.7286 6.97229H8.43546C6.82608 6.97229 5.97858 7.9176 5.97858 9.34729V10.6523H6.66983C6.66983 8.45667 7.70978 7.97229 8.65857 7.97229Z" fill="url(#paint57_linear_4002_2605)"/>
<path d="M8.65857 7.97229H20.5055C21.4543 7.97229 22.4942 8.45667 22.4942 10.6523H23.1855V9.34729C23.1855 7.9176 22.338 6.97229 20.7286 6.97229H8.43546C6.82608 6.97229 5.97858 7.9176 5.97858 9.34729V10.6523H6.66983C6.66983 8.45667 7.70978 7.97229 8.65857 7.97229Z" fill="url(#paint58_radial_4002_2605)"/>
<path d="M8.65857 7.97229H20.5055C21.4543 7.97229 22.4942 8.45667 22.4942 10.6523H23.1855V9.34729C23.1855 7.9176 22.338 6.97229 20.7286 6.97229H8.43546C6.82608 6.97229 5.97858 7.9176 5.97858 9.34729V10.6523H6.66983C6.66983 8.45667 7.70978 7.97229 8.65857 7.97229Z" fill="url(#paint59_radial_4002_2605)"/>
<path d="M8.65857 7.97229H20.5055C21.4543 7.97229 22.4942 8.45667 22.4942 10.6523H23.1855V9.34729C23.1855 7.9176 22.338 6.97229 20.7286 6.97229H8.43546C6.82608 6.97229 5.97858 7.9176 5.97858 9.34729V10.6523H6.66983C6.66983 8.45667 7.70978 7.97229 8.65857 7.97229Z" fill="url(#paint60_radial_4002_2605)"/>
<path d="M8.65857 7.97229H20.5055C21.4543 7.97229 22.4942 8.45667 22.4942 10.6523H23.1855V9.34729C23.1855 7.9176 22.338 6.97229 20.7286 6.97229H8.43546C6.82608 6.97229 5.97858 7.9176 5.97858 9.34729V10.6523H6.66983C6.66983 8.45667 7.70978 7.97229 8.65857 7.97229Z" fill="url(#paint61_radial_4002_2605)"/>
<path d="M15.1669 19.6051H13.9969V26.1754H15.1669V19.6051Z" fill="url(#paint62_linear_4002_2605)"/>
<path d="M15.1669 19.6051H13.9969V26.1754H15.1669V19.6051Z" fill="url(#paint63_radial_4002_2605)"/>
<path d="M15.1669 19.6051H13.9969V26.1754H15.1669V19.6051Z" fill="url(#paint64_radial_4002_2605)"/>
<g filter="url(#filter18_ii_4002_2605)">
<path d="M17.2469 6.97234H11.9269V5.68234C11.9269 4.21234 13.1169 3.02234 14.5869 3.02234C16.0569 3.02234 17.2469 4.21234 17.2469 5.68234V6.97234Z" fill="url(#paint65_radial_4002_2605)"/>
<path d="M17.2469 6.97234H11.9269V5.68234C11.9269 4.21234 13.1169 3.02234 14.5869 3.02234C16.0569 3.02234 17.2469 4.21234 17.2469 5.68234V6.97234Z" fill="url(#paint66_radial_4002_2605)"/>
</g>
<g filter="url(#filter19_ii_4002_2605)">
<path d="M22.6362 16.1367L21.2552 15.7684C20.979 15.6968 20.7028 15.8605 20.6312 16.1265L16.827 29.9724H19.3742L23.0045 16.7607C23.0659 16.4947 22.9022 16.2083 22.6362 16.1367Z" fill="url(#paint67_linear_4002_2605)"/>
<path d="M22.6362 16.1367L21.2552 15.7684C20.979 15.6968 20.7028 15.8605 20.6312 16.1265L16.827 29.9724H19.3742L23.0045 16.7607C23.0659 16.4947 22.9022 16.2083 22.6362 16.1367Z" fill="url(#paint68_radial_4002_2605)"/>
</g>
<path d="M22.6362 16.1367L21.2552 15.7684C20.979 15.6968 20.7028 15.8605 20.6312 16.1265L16.827 29.9724H19.3742L23.0045 16.7607C23.0659 16.4947 22.9022 16.2083 22.6362 16.1367Z" fill="url(#paint69_radial_4002_2605)"/>
<path d="M22.6362 16.1367L21.2552 15.7684C20.979 15.6968 20.7028 15.8605 20.6312 16.1265L16.827 29.9724H19.3742L23.0045 16.7607C23.0659 16.4947 22.9022 16.2083 22.6362 16.1367Z" fill="url(#paint70_radial_4002_2605)"/>
<g filter="url(#filter20_ii_4002_2605)">
<path d="M20.0123 16.7315L24.4277 17.8917C25.1092 18.0772 25.8347 18.0635 26.4992 17.8388L26.6472 17.7842C26.8254 17.722 27.048 17.7306 27.2014 17.8917C28.273 19.0168 28.6319 20.5128 28.1847 22.1273C27.7375 23.7418 26.4524 24.8915 25.205 25.1608C25.1207 25.181 24.8569 25.2064 24.6994 25.0034L24.5577 24.8629C24.1005 24.3222 23.4841 23.9376 22.8131 23.7522L18.5701 22.55C18.3185 22.4844 18.0148 22.2019 18.1391 21.7709L19.3906 17.0962C19.4349 16.8759 19.7607 16.6659 20.0123 16.7315Z" fill="url(#paint71_linear_4002_2605)"/>
<path d="M20.0123 16.7315L24.4277 17.8917C25.1092 18.0772 25.8347 18.0635 26.4992 17.8388L26.6472 17.7842C26.8254 17.722 27.048 17.7306 27.2014 17.8917C28.273 19.0168 28.6319 20.5128 28.1847 22.1273C27.7375 23.7418 26.4524 24.8915 25.205 25.1608C25.1207 25.181 24.8569 25.2064 24.6994 25.0034L24.5577 24.8629C24.1005 24.3222 23.4841 23.9376 22.8131 23.7522L18.5701 22.55C18.3185 22.4844 18.0148 22.2019 18.1391 21.7709L19.3906 17.0962C19.4349 16.8759 19.7607 16.6659 20.0123 16.7315Z" fill="url(#paint72_radial_4002_2605)"/>
<path d="M20.0123 16.7315L24.4277 17.8917C25.1092 18.0772 25.8347 18.0635 26.4992 17.8388L26.6472 17.7842C26.8254 17.722 27.048 17.7306 27.2014 17.8917C28.273 19.0168 28.6319 20.5128 28.1847 22.1273C27.7375 23.7418 26.4524 24.8915 25.205 25.1608C25.1207 25.181 24.8569 25.2064 24.6994 25.0034L24.5577 24.8629C24.1005 24.3222 23.4841 23.9376 22.8131 23.7522L18.5701 22.55C18.3185 22.4844 18.0148 22.2019 18.1391 21.7709L19.3906 17.0962C19.4349 16.8759 19.7607 16.6659 20.0123 16.7315Z" fill="url(#paint73_radial_4002_2605)"/>
</g>
<g filter="url(#filter21_i_4002_2605)">
<path d="M25.6486 18.0104C25.9376 17.9889 26.2237 17.932 26.4992 17.8389L26.6472 17.7842C26.8254 17.7221 27.048 17.7306 27.2014 17.8918C28.273 19.0168 28.6319 20.5129 28.1847 22.1274C27.7375 23.7418 26.4524 24.8915 25.205 25.1609C25.1207 25.1811 24.8569 25.2065 24.6994 25.0034L24.5576 24.863C24.3685 24.6393 24.152 24.4422 23.9157 24.275C25.4827 24.223 26.7327 23.1908 27.1194 21.7458C27.5097 20.2769 26.8829 18.7427 25.6468 18.0105L25.6486 18.0104Z" fill="url(#paint74_radial_4002_2605)"/>
<path d="M25.6486 18.0104C25.9376 17.9889 26.2237 17.932 26.4992 17.8389L26.6472 17.7842C26.8254 17.7221 27.048 17.7306 27.2014 17.8918C28.273 19.0168 28.6319 20.5129 28.1847 22.1274C27.7375 23.7418 26.4524 24.8915 25.205 25.1609C25.1207 25.1811 24.8569 25.2065 24.6994 25.0034L24.5576 24.863C24.3685 24.6393 24.152 24.4422 23.9157 24.275C25.4827 24.223 26.7327 23.1908 27.1194 21.7458C27.5097 20.2769 26.8829 18.7427 25.6468 18.0105L25.6486 18.0104Z" fill="url(#paint75_radial_4002_2605)"/>
<path d="M25.6486 18.0104C25.9376 17.9889 26.2237 17.932 26.4992 17.8389L26.6472 17.7842C26.8254 17.7221 27.048 17.7306 27.2014 17.8918C28.273 19.0168 28.6319 20.5129 28.1847 22.1274C27.7375 23.7418 26.4524 24.8915 25.205 25.1609C25.1207 25.1811 24.8569 25.2065 24.6994 25.0034L24.5576 24.863C24.3685 24.6393 24.152 24.4422 23.9157 24.275C25.4827 24.223 26.7327 23.1908 27.1194 21.7458C27.5097 20.2769 26.8829 18.7427 25.6468 18.0105L25.6486 18.0104Z" fill="url(#paint76_radial_4002_2605)"/>
</g>
<g filter="url(#filter22_dii_4002_2605)">
<path d="M13.3039 4.90912C13.3039 4.75634 13.4873 4.67836 13.5973 4.78436L13.7515 4.93285C13.7817 4.96198 13.8221 4.97826 13.864 4.97826C13.9537 4.97826 14.0263 4.9056 14.0263 4.81599V4.64606C14.0263 4.30127 14.2045 3.98097 14.4975 3.79921L14.6772 3.68778C14.83 3.59298 15.0275 3.70289 15.0275 3.88273V5.07707C15.0275 5.17136 15.1039 5.24779 15.1982 5.24779C15.2376 5.24779 15.2758 5.23415 15.3063 5.20921L15.4017 5.13113C15.486 5.0622 15.6125 5.12215 15.6125 5.23102V5.56419H15.6113C15.5837 6.17722 15.078 6.66576 14.4582 6.66576C13.8207 6.66576 13.3039 6.14896 13.3039 5.51146V4.90912Z" fill="url(#paint77_linear_4002_2605)"/>
</g>
<g filter="url(#filter23_f_4002_2605)">
<path d="M19.5459 17.9718L18.4661 21.9398" stroke="url(#paint78_linear_4002_2605)" stroke-width="0.25" stroke-linecap="round"/>
</g>
<g filter="url(#filter24_f_4002_2605)">
<path d="M18.9212 29.6285C18.9212 29.4285 20.067 25.5244 20.64 23.5973" stroke="#87625E" stroke-width="0.25" stroke-linecap="round"/>
</g>
<g filter="url(#filter25_i_4002_2605)">
<path d="M11.1569 15.6778V17.6525C11.1569 18.7425 12.0469 19.6325 13.1369 19.6325H16.0569C17.1469 19.6325 18.0369 18.7524 18.0369 17.6525V15.6659C17.1405 16.4863 15.9258 16.9566 14.5904 16.9566C13.2614 16.9566 12.052 16.4909 11.1569 15.6778Z" fill="#D53260"/>
<path d="M11.1569 15.6778V17.6525C11.1569 18.7425 12.0469 19.6325 13.1369 19.6325H16.0569C17.1469 19.6325 18.0369 18.7524 18.0369 17.6525V15.6659C17.1405 16.4863 15.9258 16.9566 14.5904 16.9566C13.2614 16.9566 12.052 16.4909 11.1569 15.6778Z" fill="url(#paint79_radial_4002_2605)"/>
<path d="M11.1569 15.6778V17.6525C11.1569 18.7425 12.0469 19.6325 13.1369 19.6325H16.0569C17.1469 19.6325 18.0369 18.7524 18.0369 17.6525V15.6659C17.1405 16.4863 15.9258 16.9566 14.5904 16.9566C13.2614 16.9566 12.052 16.4909 11.1569 15.6778Z" fill="url(#paint80_radial_4002_2605)"/>
</g>
<g filter="url(#filter26_i_4002_2605)">
<path d="M13.2769 16.7978V18.6324C13.2769 19.1924 13.7269 19.6424 14.2869 19.6424H16.0669C17.1569 19.6424 18.0469 18.7524 18.0469 17.6624V15.6566C17.1495 16.4827 15.9308 16.9564 14.5904 16.9564C14.136 16.9564 13.6956 16.902 13.2769 16.7978Z" fill="url(#paint81_radial_4002_2605)"/>
</g>
<path d="M13.2769 16.7978V18.6324C13.2769 19.1924 13.7269 19.6424 14.2869 19.6424H16.0669C17.1569 19.6424 18.0469 18.7524 18.0469 17.6624V15.6566C17.1495 16.4827 15.9308 16.9564 14.5904 16.9564C14.136 16.9564 13.6956 16.902 13.2769 16.7978Z" fill="url(#paint82_linear_4002_2605)"/>
<path d="M13.2769 16.7978V18.6324C13.2769 19.1924 13.7269 19.6424 14.2869 19.6424H16.0669C17.1569 19.6424 18.0469 18.7524 18.0469 17.6624V15.6566C17.1495 16.4827 15.9308 16.9564 14.5904 16.9564C14.136 16.9564 13.6956 16.902 13.2769 16.7978Z" fill="url(#paint83_radial_4002_2605)"/>
<defs>
<filter id="filter0_i_4002_2605" x="5.98846" y="7.57229" width="17.1969" height="11.9" filterUnits="userSpaceOnUse" color-interpolation-filters="sRGB">
<feFlood flood-opacity="0" result="BackgroundImageFix"/>
<feBlend mode="normal" in="SourceGraphic" in2="BackgroundImageFix" result="shape"/>
<feColorMatrix in="SourceAlpha" type="matrix" values="0 0 0 0 0 0 0 0 0 0 0 0 0 0 0 0 0 0 127 0" result="hardAlpha"/>
<feOffset dy="-0.4"/>
<feGaussianBlur stdDeviation="0.2"/>
<feComposite in2="hardAlpha" operator="arithmetic" k2="-1" k3="1"/>
<feColorMatrix type="matrix" values="0 0 0 0 0.596078 0 0 0 0 0.137255 0 0 0 0 0.235294 0 0 0 1 0"/>
<feBlend mode="normal" in2="shape" result="effect1_innerShadow_4002_2605"/>
</filter>
<filter id="filter1_i_4002_2605" x="6.98783" y="2.56287" width="15.1181" height="14.5609" filterUnits="userSpaceOnUse" color-interpolation-filters="sRGB">
<feFlood flood-opacity="0" result="BackgroundImageFix"/>
<feBlend mode="normal" in="SourceGraphic" in2="BackgroundImageFix" result="shape"/>
<feColorMatrix in="SourceAlpha" type="matrix" values="0 0 0 0 0 0 0 0 0 0 0 0 0 0 0 0 0 0 127 0" result="hardAlpha"/>
<feOffset dx="-0.1"/>
<feGaussianBlur stdDeviation="0.05"/>
<feComposite in2="hardAlpha" operator="arithmetic" k2="-1" k3="1"/>
<feColorMatrix type="matrix" values="0 0 0 0 0.262745 0 0 0 0 0.254902 0 0 0 0 0.258824 0 0 0 1 0"/>
<feBlend mode="normal" in2="shape" result="effect1_innerShadow_4002_2605"/>
</filter>
<filter id="filter2_i_4002_2605" x="8.29718" y="9.44373" width="3.36817" height="3.21817" filterUnits="userSpaceOnUse" color-interpolation-filters="sRGB">
<feFlood flood-opacity="0" result="BackgroundImageFix"/>
<feBlend mode="normal" in="SourceGraphic" in2="BackgroundImageFix" result="shape"/>
<feColorMatrix in="SourceAlpha" type="matrix" values="0 0 0 0 0 0 0 0 0 0 0 0 0 0 0 0 0 0 127 0" result="hardAlpha"/>
<feOffset dx="0.15"/>
<feGaussianBlur stdDeviation="0.25"/>
<feComposite in2="hardAlpha" operator="arithmetic" k2="-1" k3="1"/>
<feColorMatrix type="matrix" values="0 0 0 0 0.337255 0 0 0 0 0.266667 0 0 0 0 0.25098 0 0 0 1 0"/>
<feBlend mode="normal" in2="shape" result="effect1_innerShadow_4002_2605"/>
</filter>
<filter id="filter3_i_4002_2605" x="17.8101" y="9.19373" width="3.21817" height="3.46817" filterUnits="userSpaceOnUse" color-interpolation-filters="sRGB">
<feFlood flood-opacity="0" result="BackgroundImageFix"/>
<feBlend mode="normal" in="SourceGraphic" in2="BackgroundImageFix" result="shape"/>
<feColorMatrix in="SourceAlpha" type="matrix" values="0 0 0 0 0 0 0 0 0 0 0 0 0 0 0 0 0 0 127 0" result="hardAlpha"/>
<feOffset dy="-0.25"/>
<feGaussianBlur stdDeviation="0.25"/>
<feComposite in2="hardAlpha" operator="arithmetic" k2="-1" k3="1"/>
<feColorMatrix type="matrix" values="0 0 0 0 0.184314 0 0 0 0 0.0901961 0 0 0 0 0.117647 0 0 0 1 0"/>
<feBlend mode="normal" in2="shape" result="effect1_innerShadow_4002_2605"/>
</filter>
<filter id="filter4_f_4002_2605" x="17.845" y="9.47864" width="3.14822" height="3.14822" filterUnits="userSpaceOnUse" color-interpolation-filters="sRGB">
<feFlood flood-opacity="0" result="BackgroundImageFix"/>
<feBlend mode="normal" in="SourceGraphic" in2="BackgroundImageFix" result="shape"/>
<feGaussianBlur stdDeviation="0.25" result="effect1_foregroundBlur_4002_2605"/>
</filter>
<filter id="filter5_f_4002_2605" x="8.60138" y="9.72864" width="2.64822" height="2.64822" filterUnits="userSpaceOnUse" color-interpolation-filters="sRGB">
<feFlood flood-opacity="0" result="BackgroundImageFix"/>
<feBlend mode="normal" in="SourceGraphic" in2="BackgroundImageFix" result="shape"/>
<feGaussianBlur stdDeviation="0.125" result="effect1_foregroundBlur_4002_2605"/>
</filter>
<filter id="filter6_i_4002_2605" x="9.49652" y="6.14587" width="10.1909" height="11.0268" filterUnits="userSpaceOnUse" color-interpolation-filters="sRGB">
<feFlood flood-opacity="0" result="BackgroundImageFix"/>
<feBlend mode="normal" in="SourceGraphic" in2="BackgroundImageFix" result="shape"/>
<feColorMatrix in="SourceAlpha" type="matrix" values="0 0 0 0 0 0 0 0 0 0 0 0 0 0 0 0 0 0 127 0" result="hardAlpha"/>
<feOffset dy="0.15"/>
<feGaussianBlur stdDeviation="0.075"/>
<feComposite in2="hardAlpha" operator="arithmetic" k2="-1" k3="1"/>
<feColorMatrix type="matrix" values="0 0 0 0 0.14902 0 0 0 0 0.0901961 0 0 0 0 0.0941176 0 0 0 1 0"/>
<feBlend mode="normal" in2="shape" result="effect1_innerShadow_4002_2605"/>
</filter>
<filter id="filter7_f_4002_2605" x="12.991" y="10.0475" width="2.87726" height="3.68181" filterUnits="userSpaceOnUse" color-interpolation-filters="sRGB">
<feFlood flood-opacity="0" result="BackgroundImageFix"/>
<feBlend mode="normal" in="SourceGraphic" in2="BackgroundImageFix" result="shape"/>
<feGaussianBlur stdDeviation="0.25" result="effect1_foregroundBlur_4002_2605"/>
</filter>
<filter id="filter8_f_4002_2605" x="13.4034" y="10.1591" width="2.37726" height="3.18181" filterUnits="userSpaceOnUse" color-interpolation-filters="sRGB">
<feFlood flood-opacity="0" result="BackgroundImageFix"/>
<feBlend mode="normal" in="SourceGraphic" in2="BackgroundImageFix" result="shape"/>
<feGaussianBlur stdDeviation="0.125" result="effect1_foregroundBlur_4002_2605"/>
</filter>
<filter id="filter9_f_4002_2605" x="12.7408" y="13.4009" width="3.70235" height="1.52594" filterUnits="userSpaceOnUse" color-interpolation-filters="sRGB">
<feFlood flood-opacity="0" result="BackgroundImageFix"/>
<feBlend mode="normal" in="SourceGraphic" in2="BackgroundImageFix" result="shape"/>
<feGaussianBlur stdDeviation="0.05" result="effect1_foregroundBlur_4002_2605"/>
</filter>
<filter id="filter10_i_4002_2605" x="15.5341" y="9.64807" width="3.00139" height="1.28543" filterUnits="userSpaceOnUse" color-interpolation-filters="sRGB">
<feFlood flood-opacity="0" result="BackgroundImageFix"/>
<feBlend mode="normal" in="SourceGraphic" in2="BackgroundImageFix" result="shape"/>
<feColorMatrix in="SourceAlpha" type="matrix" values="0 0 0 0 0 0 0 0 0 0 0 0 0 0 0 0 0 0 127 0" result="hardAlpha"/>
<feOffset dx="-0.2"/>
<feGaussianBlur stdDeviation="0.2"/>
<feComposite in2="hardAlpha" operator="arithmetic" k2="-1" k3="1"/>
<feColorMatrix type="matrix" values="0 0 0 0 0.0941176 0 0 0 0 0.0666667 0 0 0 0 0.117647 0 0 0 1 0"/>
<feBlend mode="normal" in2="shape" result="effect1_innerShadow_4002_2605"/>
</filter>
<filter id="filter11_i_4002_2605" x="10.6487" y="9.64807" width="3.00139" height="1.28543" filterUnits="userSpaceOnUse" color-interpolation-filters="sRGB">
<feFlood flood-opacity="0" result="BackgroundImageFix"/>
<feBlend mode="normal" in="SourceGraphic" in2="BackgroundImageFix" result="shape"/>
<feColorMatrix in="SourceAlpha" type="matrix" values="0 0 0 0 0 0 0 0 0 0 0 0 0 0 0 0 0 0 127 0" result="hardAlpha"/>
<feOffset dx="0.2"/>
<feGaussianBlur stdDeviation="0.125"/>
<feComposite in2="hardAlpha" operator="arithmetic" k2="-1" k3="1"/>
<feColorMatrix type="matrix" values="0 0 0 0 0.0862745 0 0 0 0 0.054902 0 0 0 0 0.113725 0 0 0 1 0"/>
<feBlend mode="normal" in2="shape" result="effect1_innerShadow_4002_2605"/>
</filter>
<filter id="filter12_i_4002_2605" x="10.7838" y="7.77888" width="2.45278" height="1.09101" filterUnits="userSpaceOnUse" color-interpolation-filters="sRGB">
<feFlood flood-opacity="0" result="BackgroundImageFix"/>
<feBlend mode="normal" in="SourceGraphic" in2="BackgroundImageFix" result="shape"/>
<feColorMatrix in="SourceAlpha" type="matrix" values="0 0 0 0 0 0 0 0 0 0 0 0 0 0 0 0 0 0 127 0" result="hardAlpha"/>
<feOffset dx="0.2" dy="-0.2"/>
<feGaussianBlur stdDeviation="0.15"/>
<feComposite in2="hardAlpha" operator="arithmetic" k2="-1" k3="1"/>
<feColorMatrix type="matrix" values="0 0 0 0 0.0431373 0 0 0 0 0.0235294 0 0 0 0 0.0313726 0 0 0 1 0"/>
<feBlend mode="normal" in2="shape" result="effect1_innerShadow_4002_2605"/>
</filter>
<filter id="filter13_i_4002_2605" x="16.201" y="7.77888" width="2.45278" height="1.09107" filterUnits="userSpaceOnUse" color-interpolation-filters="sRGB">
<feFlood flood-opacity="0" result="BackgroundImageFix"/>
<feBlend mode="normal" in="SourceGraphic" in2="BackgroundImageFix" result="shape"/>
<feColorMatrix in="SourceAlpha" type="matrix" values="0 0 0 0 0 0 0 0 0 0 0 0 0 0 0 0 0 0 127 0" result="hardAlpha"/>
<feOffset dx="0.2" dy="-0.2"/>
<feGaussianBlur stdDeviation="0.15"/>
<feComposite in2="hardAlpha" operator="arithmetic" k2="-1" k3="1"/>
<feColorMatrix type="matrix" values="0 0 0 0 0.0431373 0 0 0 0 0.0235294 0 0 0 0 0.0313726 0 0 0 1 0"/>
<feBlend mode="normal" in2="shape" result="effect1_innerShadow_4002_2605"/>
</filter>
<filter id="filter14_f_4002_2605" x="16.0397" y="10.0158" width="0.786823" height="0.696307" filterUnits="userSpaceOnUse" color-interpolation-filters="sRGB">
<feFlood flood-opacity="0" result="BackgroundImageFix"/>
<feBlend mode="normal" in="SourceGraphic" in2="BackgroundImageFix" result="shape"/>
<feGaussianBlur stdDeviation="0.05" result="effect1_foregroundBlur_4002_2605"/>
</filter>
<filter id="filter15_f_4002_2605" x="16.8797" y="10.0909" width="0.891241" height="0.913412" filterUnits="userSpaceOnUse" color-interpolation-filters="sRGB">
<feFlood flood-opacity="0" result="BackgroundImageFix"/>
<feBlend mode="normal" in="SourceGraphic" in2="BackgroundImageFix" result="shape"/>
<feGaussianBlur stdDeviation="0.1" result="effect1_foregroundBlur_4002_2605"/>
</filter>
<filter id="filter16_f_4002_2605" x="12.4368" y="10.0274" width="0.986304" height="1.04018" filterUnits="userSpaceOnUse" color-interpolation-filters="sRGB">
<feFlood flood-opacity="0" result="BackgroundImageFix"/>
<feBlend mode="normal" in="SourceGraphic" in2="BackgroundImageFix" result="shape"/>
<feGaussianBlur stdDeviation="0.1" result="effect1_foregroundBlur_4002_2605"/>
</filter>
<filter id="filter17_f_4002_2605" x="11.682" y="10.0076" width="0.913043" height="0.704478" filterUnits="userSpaceOnUse" color-interpolation-filters="sRGB">
<feFlood flood-opacity="0" result="BackgroundImageFix"/>
<feBlend mode="normal" in="SourceGraphic" in2="BackgroundImageFix" result="shape"/>
<feGaussianBlur stdDeviation="0.05" result="effect1_foregroundBlur_4002_2605"/>
</filter>
<filter id="filter18_ii_4002_2605" x="11.8269" y="3.02234" width="5.52001" height="4.05" filterUnits="userSpaceOnUse" color-interpolation-filters="sRGB">
<feFlood flood-opacity="0" result="BackgroundImageFix"/>
<feBlend mode="normal" in="SourceGraphic" in2="BackgroundImageFix" result="shape"/>
<feColorMatrix in="SourceAlpha" type="matrix" values="0 0 0 0 0 0 0 0 0 0 0 0 0 0 0 0 0 0 127 0" result="hardAlpha"/>
<feOffset dx="-0.1" dy="0.1"/>
<feGaussianBlur stdDeviation="0.125"/>
<feComposite in2="hardAlpha" operator="arithmetic" k2="-1" k3="1"/>
<feColorMatrix type="matrix" values="0 0 0 0 0.454902 0 0 0 0 0.415686 0 0 0 0 0.490196 0 0 0 1 0"/>
<feBlend mode="normal" in2="shape" result="effect1_innerShadow_4002_2605"/>
<feColorMatrix in="SourceAlpha" type="matrix" values="0 0 0 0 0 0 0 0 0 0 0 0 0 0 0 0 0 0 127 0" result="hardAlpha"/>
<feOffset dx="0.1" dy="0.1"/>
<feGaussianBlur stdDeviation="0.125"/>
<feComposite in2="hardAlpha" operator="arithmetic" k2="-1" k3="1"/>
<feColorMatrix type="matrix" values="0 0 0 0 0.247059 0 0 0 0 0.2 0 0 0 0 0.262745 0 0 0 1 0"/>
<feBlend mode="normal" in2="effect1_innerShadow_4002_2605" result="effect2_innerShadow_4002_2605"/>
</filter>
<filter id="filter19_ii_4002_2605" x="16.577" y="15.7516" width="6.94043" height="14.2208" filterUnits="userSpaceOnUse" color-interpolation-filters="sRGB">
<feFlood flood-opacity="0" result="BackgroundImageFix"/>
<feBlend mode="normal" in="SourceGraphic" in2="BackgroundImageFix" result="shape"/>
<feColorMatrix in="SourceAlpha" type="matrix" values="0 0 0 0 0 0 0 0 0 0 0 0 0 0 0 0 0 0 127 0" result="hardAlpha"/>
<feOffset dx="0.5"/>
<feGaussianBlur stdDeviation="0.25"/>
<feComposite in2="hardAlpha" operator="arithmetic" k2="-1" k3="1"/>
<feColorMatrix type="matrix" values="0 0 0 0 0.431373 0 0 0 0 0.270588 0 0 0 0 0.239216 0 0 0 1 0"/>
<feBlend mode="normal" in2="shape" result="effect1_innerShadow_4002_2605"/>
<feColorMatrix in="SourceAlpha" type="matrix" values="0 0 0 0 0 0 0 0 0 0 0 0 0 0 0 0 0 0 127 0" result="hardAlpha"/>
<feOffset dx="-0.25"/>
<feGaussianBlur stdDeviation="0.25"/>
<feComposite in2="hardAlpha" operator="arithmetic" k2="-1" k3="1"/>
<feColorMatrix type="matrix" values="0 0 0 0 0.447059 0 0 0 0 0.266667 0 0 0 0 0.247059 0 0 0 1 0"/>
<feBlend mode="normal" in2="effect1_innerShadow_4002_2605" result="effect2_innerShadow_4002_2605"/>
</filter>
<filter id="filter20_ii_4002_2605" x="17.8604" y="16.4693" width="11.0124" height="8.85483" filterUnits="userSpaceOnUse" color-interpolation-filters="sRGB">
<feFlood flood-opacity="0" result="BackgroundImageFix"/>
<feBlend mode="normal" in="SourceGraphic" in2="BackgroundImageFix" result="shape"/>
<feColorMatrix in="SourceAlpha" type="matrix" values="0 0 0 0 0 0 0 0 0 0 0 0 0 0 0 0 0 0 127 0" result="hardAlpha"/>
<feOffset dx="0.5" dy="-0.25"/>
<feGaussianBlur stdDeviation="0.5"/>
<feComposite in2="hardAlpha" operator="arithmetic" k2="-1" k3="1"/>
<feColorMatrix type="matrix" values="0 0 0 0 0.729412 0 0 0 0 0.0980392 0 0 0 0 0.376471 0 0 0 1 0"/>
<feBlend mode="normal" in2="shape" result="effect1_innerShadow_4002_2605"/>
<feColorMatrix in="SourceAlpha" type="matrix" values="0 0 0 0 0 0 0 0 0 0 0 0 0 0 0 0 0 0 127 0" result="hardAlpha"/>
<feOffset dx="-0.25" dy="0.15"/>
<feGaussianBlur stdDeviation="0.15"/>
<feComposite in2="hardAlpha" operator="arithmetic" k2="-1" k3="1"/>
<feColorMatrix type="matrix" values="0 0 0 0 0.964706 0 0 0 0 0.270588 0 0 0 0 0.466667 0 0 0 1 0"/>
<feBlend mode="normal" in2="effect1_innerShadow_4002_2605" result="effect2_innerShadow_4002_2605"/>
</filter>
<filter id="filter21_i_4002_2605" x="23.8157" y="17.6984" width="4.55709" height="7.47582" filterUnits="userSpaceOnUse" color-interpolation-filters="sRGB">
<feFlood flood-opacity="0" result="BackgroundImageFix"/>
<feBlend mode="normal" in="SourceGraphic" in2="BackgroundImageFix" result="shape"/>
<feColorMatrix in="SourceAlpha" type="matrix" values="0 0 0 0 0 0 0 0 0 0 0 0 0 0 0 0 0 0 127 0" result="hardAlpha"/>
<feOffset dx="-0.1" dy="-0.05"/>
<feGaussianBlur stdDeviation="0.1"/>
<feComposite in2="hardAlpha" operator="arithmetic" k2="-1" k3="1"/>
<feColorMatrix type="matrix" values="0 0 0 0 0.768627 0 0 0 0 0.760784 0 0 0 0 0.776471 0 0 0 1 0"/>
<feBlend mode="normal" in2="shape" result="effect1_innerShadow_4002_2605"/>
</filter>
<filter id="filter22_dii_4002_2605" x="13.1539" y="3.60295" width="2.50859" height="3.2128" filterUnits="userSpaceOnUse" color-interpolation-filters="sRGB">
<feFlood flood-opacity="0" result="BackgroundImageFix"/>
<feColorMatrix in="SourceAlpha" type="matrix" values="0 0 0 0 0 0 0 0 0 0 0 0 0 0 0 0 0 0 127 0" result="hardAlpha"/>
<feOffset dx="-0.05" dy="0.05"/>
<feGaussianBlur stdDeviation="0.05"/>
<feComposite in2="hardAlpha" operator="out"/>
<feColorMatrix type="matrix" values="0 0 0 0 0.223529 0 0 0 0 0.141176 0 0 0 0 0.215686 0 0 0 1 0"/>
<feBlend mode="normal" in2="BackgroundImageFix" result="effect1_dropShadow_4002_2605"/>
<feBlend mode="normal" in="SourceGraphic" in2="effect1_dropShadow_4002_2605" result="shape"/>
<feColorMatrix in="SourceAlpha" type="matrix" values="0 0 0 0 0 0 0 0 0 0 0 0 0 0 0 0 0 0 127 0" result="hardAlpha"/>
<feOffset dx="-0.05"/>
<feGaussianBlur stdDeviation="0.05"/>
<feComposite in2="hardAlpha" operator="arithmetic" k2="-1" k3="1"/>
<feColorMatrix type="matrix" values="0 0 0 0 1 0 0 0 0 0.768627 0 0 0 0 0.341176 0 0 0 1 0"/>
<feBlend mode="normal" in2="shape" result="effect2_innerShadow_4002_2605"/>
<feColorMatrix in="SourceAlpha" type="matrix" values="0 0 0 0 0 0 0 0 0 0 0 0 0 0 0 0 0 0 127 0" result="hardAlpha"/>
<feOffset dy="-0.05"/>
<feGaussianBlur stdDeviation="0.05"/>
<feComposite in2="hardAlpha" operator="arithmetic" k2="-1" k3="1"/>
<feColorMatrix type="matrix" values="0 0 0 0 0.858824 0 0 0 0 0.337255 0 0 0 0 0.109804 0 0 0 1 0"/>
<feBlend mode="normal" in2="effect2_innerShadow_4002_2605" result="effect3_innerShadow_4002_2605"/>
</filter>
<filter id="filter23_f_4002_2605" x="18.0911" y="17.5968" width="1.8298" height="4.71809" filterUnits="userSpaceOnUse" color-interpolation-filters="sRGB">
<feFlood flood-opacity="0" result="BackgroundImageFix"/>
<feBlend mode="normal" in="SourceGraphic" in2="BackgroundImageFix" result="shape"/>
<feGaussianBlur stdDeviation="0.125" result="effect1_foregroundBlur_4002_2605"/>
</filter>
<filter id="filter24_f_4002_2605" x="18.3962" y="23.0723" width="2.76878" height="7.08128" filterUnits="userSpaceOnUse" color-interpolation-filters="sRGB">
<feFlood flood-opacity="0" result="BackgroundImageFix"/>
<feBlend mode="normal" in="SourceGraphic" in2="BackgroundImageFix" result="shape"/>
<feGaussianBlur stdDeviation="0.2" result="effect1_foregroundBlur_4002_2605"/>
</filter>
<filter id="filter25_i_4002_2605" x="11.1569" y="15.5659" width="6.88" height="4.06656" filterUnits="userSpaceOnUse" color-interpolation-filters="sRGB">
<feFlood flood-opacity="0" result="BackgroundImageFix"/>
<feBlend mode="normal" in="SourceGraphic" in2="BackgroundImageFix" result="shape"/>
<feColorMatrix in="SourceAlpha" type="matrix" values="0 0 0 0 0 0 0 0 0 0 0 0 0 0 0 0 0 0 127 0" result="hardAlpha"/>
<feOffset dy="-0.1"/>
<feGaussianBlur stdDeviation="0.2"/>
<feComposite in2="hardAlpha" operator="arithmetic" k2="-1" k3="1"/>
<feColorMatrix type="matrix" values="0 0 0 0 0.741176 0 0 0 0 0.0470588 0 0 0 0 0.254902 0 0 0 1 0"/>
<feBlend mode="normal" in2="shape" result="effect1_innerShadow_4002_2605"/>
</filter>
<filter id="filter26_i_4002_2605" x="13.2769" y="15.4066" width="4.96999" height="4.23576" filterUnits="userSpaceOnUse" color-interpolation-filters="sRGB">
<feFlood flood-opacity="0" result="BackgroundImageFix"/>
<feBlend mode="normal" in="SourceGraphic" in2="BackgroundImageFix" result="shape"/>
<feColorMatrix in="SourceAlpha" type="matrix" values="0 0 0 0 0 0 0 0 0 0 0 0 0 0 0 0 0 0 127 0" result="hardAlpha"/>
<feOffset dx="0.2" dy="-0.25"/>
<feGaussianBlur stdDeviation="0.375"/>
<feComposite in2="hardAlpha" operator="arithmetic" k2="-1" k3="1"/>
<feColorMatrix type="matrix" values="0 0 0 0 0.733333 0 0 0 0 0.12549 0 0 0 0 0.309804 0 0 0 1 0"/>
<feBlend mode="normal" in2="shape" result="effect1_innerShadow_4002_2605"/>
</filter>
<linearGradient id="paint0_linear_4002_2605" x1="14.5869" y1="7.97229" x2="14.5869" y2="19.4723" gradientUnits="userSpaceOnUse">
<stop stop-color="#A9112C"/>
<stop offset="1" stop-color="#A11339"/>
</linearGradient>
<linearGradient id="paint1_linear_4002_2605" x1="14.5869" y1="7.24894" x2="14.5869" y2="10.8427" gradientUnits="userSpaceOnUse">
<stop offset="0.183933" stop-color="#710425"/>
<stop offset="1" stop-color="#A81330" stop-opacity="0"/>
</linearGradient>
<linearGradient id="paint2_linear_4002_2605" x1="14.5969" y1="8.00369" x2="14.5969" y2="17.1238" gradientUnits="userSpaceOnUse">
<stop stop-color="#1E0106"/>
<stop offset="1" stop-color="#170810"/>
</linearGradient>
<radialGradient id="paint3_radial_4002_2605" cx="0" cy="0" r="1" gradientUnits="userSpaceOnUse" gradientTransform="translate(7.1944 12.0662) rotate(-65.0765) scale(4.63476 0.73541)">
<stop stop-color="#3A312E"/>
<stop offset="1" stop-color="#3A312E" stop-opacity="0"/>
</radialGradient>
<radialGradient id="paint4_radial_4002_2605" cx="0" cy="0" r="1" gradientUnits="userSpaceOnUse" gradientTransform="translate(14.5969 9.84334) rotate(90) scale(8.55404 9.91719)">
<stop offset="0.930819" stop-color="#483C3D" stop-opacity="0"/>
<stop offset="0.995388" stop-color="#483C3D"/>
</radialGradient>
<radialGradient id="paint5_radial_4002_2605" cx="0" cy="0" r="1" gradientUnits="userSpaceOnUse" gradientTransform="translate(22.106 12.736) rotate(173.648) scale(1.60475 1.63343)">
<stop stop-color="#3F3C3D"/>
<stop offset="1" stop-color="#3F3C3D" stop-opacity="0"/>
</radialGradient>
<radialGradient id="paint6_radial_4002_2605" cx="0" cy="0" r="1" gradientUnits="userSpaceOnUse" gradientTransform="translate(14.582 15.9422) rotate(90) scale(4.43636 8.2868)">
<stop offset="0.687463" stop-color="#C51B40"/>
<stop offset="1" stop-color="#C51B40" stop-opacity="0"/>
</radialGradient>
<radialGradient id="paint7_radial_4002_2605" cx="0" cy="0" r="1" gradientUnits="userSpaceOnUse" gradientTransform="translate(13.302 26.2535) rotate(180) scale(3.15625 8.375)">
<stop stop-color="#DD365E"/>
<stop offset="1" stop-color="#DD365E" stop-opacity="0"/>
</radialGradient>
<radialGradient id="paint8_radial_4002_2605" cx="0" cy="0" r="1" gradientUnits="userSpaceOnUse" gradientTransform="translate(21.6457 26.1285) rotate(-180) scale(1.625 5.46875)">
<stop stop-color="#D23B59"/>
<stop offset="1" stop-color="#D23B59" stop-opacity="0"/>
</radialGradient>
<radialGradient id="paint9_radial_4002_2605" cx="0" cy="0" r="1" gradientUnits="userSpaceOnUse" gradientTransform="translate(19.552 23.941) rotate(-164.539) scale(4.5717 6.4833)">
<stop offset="0.273059" stop-color="#C6284C"/>
<stop offset="1" stop-color="#C6284C" stop-opacity="0"/>
</radialGradient>
<radialGradient id="paint10_radial_4002_2605" cx="0" cy="0" r="1" gradientUnits="userSpaceOnUse" gradientTransform="translate(18.302 22.7223) rotate(-180) scale(11.0625 16.6672)">
<stop offset="0.824859" stop-color="#D0465E" stop-opacity="0"/>
<stop offset="1" stop-color="#D0465E"/>
</radialGradient>
<radialGradient id="paint11_radial_4002_2605" cx="0" cy="0" r="1" gradientUnits="userSpaceOnUse" gradientTransform="translate(19.0208 16.2599) rotate(110.508) scale(4.44336 7.98147)">
<stop stop-color="#FF385E"/>
<stop offset="1" stop-color="#FF385E" stop-opacity="0"/>
</radialGradient>
<radialGradient id="paint12_radial_4002_2605" cx="0" cy="0" r="1" gradientUnits="userSpaceOnUse" gradientTransform="translate(6.86447 29.7536) rotate(-90) scale(11.7832 3.37648)">
<stop offset="0.657895" stop-color="#D93B60"/>
<stop offset="1" stop-color="#DF6277"/>
</radialGradient>
<linearGradient id="paint13_linear_4002_2605" x1="7.60699" y1="26.6598" x2="6.48947" y2="26.6286" gradientUnits="userSpaceOnUse">
<stop stop-color="#BF415A"/>
<stop offset="1" stop-color="#BF415A" stop-opacity="0"/>
</linearGradient>
<radialGradient id="paint14_radial_4002_2605" cx="0" cy="0" r="1" gradientUnits="userSpaceOnUse" gradientTransform="translate(7.60699 29.9723) rotate(-90) scale(11.8437 2.89364)">
<stop stop-color="#99344A"/>
<stop offset="1" stop-color="#C03959" stop-opacity="0"/>
</radialGradient>
<radialGradient id="paint15_radial_4002_2605" cx="0" cy="0" r="1" gradientUnits="userSpaceOnUse" gradientTransform="translate(24.1144 23.9772) rotate(90) scale(8.40144 2.74144)">
<stop stop-color="#F94D70"/>
<stop offset="1" stop-color="#C7425F"/>
</radialGradient>
<radialGradient id="paint16_radial_4002_2605" cx="0" cy="0" r="1" gradientUnits="userSpaceOnUse" gradientTransform="translate(21.577 22.9724) rotate(90) scale(8.5625 2.47704)">
<stop offset="0.0357143" stop-color="#B91A3E"/>
<stop offset="1" stop-color="#D54161" stop-opacity="0"/>
</radialGradient>
<linearGradient id="paint17_linear_4002_2605" x1="7.40714" y1="15.8622" x2="21.7831" y2="15.8622" gradientUnits="userSpaceOnUse">
<stop offset="0.00558659" stop-color="#CCCCCC"/>
<stop offset="1" stop-color="#E6E6E6"/>
</linearGradient>
<linearGradient id="paint18_linear_4002_2605" x1="7.40727" y1="15.8319" x2="21.7833" y2="15.8319" gradientUnits="userSpaceOnUse">
<stop offset="0.00558659" stop-color="#CCCCCC"/>
<stop offset="1" stop-color="#E6E6E6"/>
</linearGradient>
<linearGradient id="paint19_linear_4002_2605" x1="8.29718" y1="11.14" x2="11.2565" y2="11.14" gradientUnits="userSpaceOnUse">
<stop stop-color="#392526"/>
<stop offset="1" stop-color="#2A1C1F"/>
</linearGradient>
<radialGradient id="paint20_radial_4002_2605" cx="0" cy="0" r="1" gradientUnits="userSpaceOnUse" gradientTransform="translate(18.6315 11.492) rotate(-24.444) scale(2.73412 3.33824)">
<stop offset="0.63975" stop-color="#493033"/>
<stop offset="0.94391" stop-color="#6A5956"/>
</radialGradient>
<radialGradient id="paint21_radial_4002_2605" cx="0" cy="0" r="1" gradientUnits="userSpaceOnUse" gradientTransform="translate(19.6622 9.37167) rotate(29.2711) scale(1.50836 0.426435)">
<stop stop-color="#402824"/>
<stop offset="1" stop-color="#402824" stop-opacity="0"/>
</radialGradient>
<radialGradient id="paint22_radial_4002_2605" cx="0" cy="0" r="1" gradientUnits="userSpaceOnUse" gradientTransform="translate(18.9834 11.1651) rotate(-4.25413) scale(1.51406 1.18358)">
<stop offset="0.719132" stop-color="#371D1F" stop-opacity="0"/>
<stop offset="1" stop-color="#371D1F"/>
</radialGradient>
<radialGradient id="paint23_radial_4002_2605" cx="0" cy="0" r="1" gradientUnits="userSpaceOnUse" gradientTransform="translate(9.99087 11.0527) rotate(180) scale(1.20681 0.952029)">
<stop offset="0.666667" stop-color="#2D181A" stop-opacity="0"/>
<stop offset="1" stop-color="#2D181A"/>
</radialGradient>
<radialGradient id="paint24_radial_4002_2605" cx="0" cy="0" r="1" gradientUnits="userSpaceOnUse" gradientTransform="translate(17.4512 10.5152) rotate(155.244) scale(7.16175 9.58587)">
<stop stop-color="#4F322E"/>
<stop offset="1" stop-color="#402A29"/>
</radialGradient>
<radialGradient id="paint25_radial_4002_2605" cx="0" cy="0" r="1" gradientUnits="userSpaceOnUse" gradientTransform="translate(16.4189 11.3578) rotate(154.513) scale(2.25599 1.57104)">
<stop stop-color="#533632"/>
<stop offset="1" stop-color="#533632" stop-opacity="0"/>
</radialGradient>
<radialGradient id="paint26_radial_4002_2605" cx="0" cy="0" r="1" gradientUnits="userSpaceOnUse" gradientTransform="translate(12.4122 17.2978) rotate(-72.8383) scale(3.63806 4.61602)">
<stop stop-color="#3A1F30"/>
<stop offset="1" stop-color="#3A1F30" stop-opacity="0"/>
</radialGradient>
<radialGradient id="paint27_radial_4002_2605" cx="0" cy="0" r="1" gradientUnits="userSpaceOnUse" gradientTransform="translate(14.592 10.3788) rotate(90) scale(6.76308 6.7993)">
<stop offset="0.744681" stop-color="#401E26" stop-opacity="0"/>
<stop offset="1" stop-color="#451521"/>
</radialGradient>
<radialGradient id="paint28_radial_4002_2605" cx="0" cy="0" r="1" gradientUnits="userSpaceOnUse" gradientTransform="translate(14.3302 10.9052) rotate(90) scale(6.56691 6.60207)">
<stop offset="0.79368" stop-color="#3B232B" stop-opacity="0"/>
<stop offset="1" stop-color="#2B151B"/>
</radialGradient>
<radialGradient id="paint29_radial_4002_2605" cx="0" cy="0" r="1" gradientUnits="userSpaceOnUse" gradientTransform="translate(16.4022 12.2461) rotate(168.897) scale(7.03739 12.1162)">
<stop offset="0.794964" stop-color="#5E4543" stop-opacity="0"/>
<stop offset="1" stop-color="#5E4543"/>
</radialGradient>
<radialGradient id="paint30_radial_4002_2605" cx="0" cy="0" r="1" gradientUnits="userSpaceOnUse" gradientTransform="translate(16.8933 10.0967) rotate(-90) scale(1.15077 1.41231)">
<stop stop-color="#43272A"/>
<stop offset="1" stop-color="#43272A" stop-opacity="0"/>
</radialGradient>
<radialGradient id="paint31_radial_4002_2605" cx="0" cy="0" r="1" gradientUnits="userSpaceOnUse" gradientTransform="translate(12.5155 9.86817) rotate(-90) scale(1.31251 1.50423)">
<stop stop-color="#371E27"/>
<stop offset="1" stop-color="#371E27" stop-opacity="0"/>
</radialGradient>
<radialGradient id="paint32_radial_4002_2605" cx="0" cy="0" r="1" gradientUnits="userSpaceOnUse" gradientTransform="translate(19.6874 11.5843) rotate(180) scale(1.28528 6.44557)">
<stop stop-color="#59403D"/>
<stop offset="1" stop-color="#59403D" stop-opacity="0"/>
</radialGradient>
<radialGradient id="paint33_radial_4002_2605" cx="0" cy="0" r="1" gradientUnits="userSpaceOnUse" gradientTransform="translate(18.5133 15.6311) rotate(139.279) scale(2.41326 1.61743)">
<stop stop-color="#594D4D"/>
<stop offset="0.693603" stop-color="#594D4D" stop-opacity="0"/>
</radialGradient>
<radialGradient id="paint34_radial_4002_2605" cx="0" cy="0" r="1" gradientUnits="userSpaceOnUse" gradientTransform="translate(14.592 14.16) rotate(-90) scale(6.84375 9.69619)">
<stop offset="0.767123" stop-color="#2E1315" stop-opacity="0"/>
<stop offset="1" stop-color="#2E1315"/>
</radialGradient>
<radialGradient id="paint35_radial_4002_2605" cx="0" cy="0" r="1" gradientUnits="userSpaceOnUse" gradientTransform="translate(15.3764 12.3111) rotate(-102.564) scale(2.09416 0.645401)">
<stop offset="0.0168227" stop-color="#634D4B"/>
<stop offset="1" stop-color="#634D4B" stop-opacity="0"/>
</radialGradient>
<linearGradient id="paint36_linear_4002_2605" x1="13.6534" y1="12.3839" x2="14.592" y2="12.3839" gradientUnits="userSpaceOnUse">
<stop stop-color="#3D2928"/>
<stop offset="1" stop-color="#3D2928" stop-opacity="0"/>
</linearGradient>
<linearGradient id="paint37_linear_4002_2605" x1="14.592" y1="13.1829" x2="14.592" y2="12.5726" gradientUnits="userSpaceOnUse">
<stop stop-color="#3A1F30"/>
<stop offset="1" stop-color="#3A1F30" stop-opacity="0"/>
</linearGradient>
<radialGradient id="paint38_radial_4002_2605" cx="0" cy="0" r="1" gradientUnits="userSpaceOnUse" gradientTransform="translate(15.1368 12.5227) rotate(-180) scale(0.779401 0.217897)">
<stop stop-color="#655251"/>
<stop offset="1" stop-color="#655251" stop-opacity="0"/>
</radialGradient>
<linearGradient id="paint39_linear_4002_2605" x1="14.6702" y1="13.1567" x2="14.6702" y2="13.0172" gradientUnits="userSpaceOnUse">
<stop stop-color="#311620"/>
<stop offset="1" stop-color="#311620" stop-opacity="0"/>
</linearGradient>
<radialGradient id="paint40_radial_4002_2605" cx="0" cy="0" r="1" gradientUnits="userSpaceOnUse" gradientTransform="translate(14.9691 11.9276) rotate(145.529) scale(1.66326 1.99898)">
<stop offset="0.777645" stop-color="#2D151C" stop-opacity="0"/>
<stop offset="1" stop-color="#2D151C"/>
</radialGradient>
<linearGradient id="paint41_linear_4002_2605" x1="13.5276" y1="14.5927" x2="13.9885" y2="13.8804" gradientUnits="userSpaceOnUse">
<stop stop-color="#564848"/>
<stop offset="0.663171" stop-color="#564848" stop-opacity="0"/>
</linearGradient>
<radialGradient id="paint42_radial_4002_2605" cx="0" cy="0" r="1" gradientUnits="userSpaceOnUse" gradientTransform="translate(16.7739 10.4557) rotate(90) scale(0.811316 1.29049)">
<stop offset="0.80198" stop-color="#7D574A"/>
<stop offset="1" stop-color="#694B43"/>
<stop offset="1" stop-color="#804D49"/>
<stop offset="1" stop-color="#664944"/>
</radialGradient>
<radialGradient id="paint43_radial_4002_2605" cx="0" cy="0" r="1" gradientUnits="userSpaceOnUse" gradientTransform="translate(16.5457 10.5398) rotate(-127.812) scale(0.378286 0.520809)">
<stop offset="0.765532" stop-color="#FFE6E2" stop-opacity="0"/>
<stop offset="0.966159" stop-color="#FFE6E2"/>
</radialGradient>
<linearGradient id="paint44_linear_4002_2605" x1="17.5519" y1="10.5096" x2="17.2381" y2="10.7029" gradientUnits="userSpaceOnUse">
<stop stop-color="#B4948D"/>
<stop offset="1" stop-color="#B4948D" stop-opacity="0"/>
</linearGradient>
<radialGradient id="paint45_radial_4002_2605" cx="0" cy="0" r="1" gradientUnits="userSpaceOnUse" gradientTransform="translate(12.4099 10.4557) rotate(90) scale(0.811321 1.2905)">
<stop offset="0.80198" stop-color="#7D574A"/>
<stop offset="1" stop-color="#694B43"/>
<stop offset="1" stop-color="#804D49"/>
<stop offset="1" stop-color="#664944"/>
</radialGradient>
<linearGradient id="paint46_linear_4002_2605" x1="13.1536" y1="10.5095" x2="12.8398" y2="10.7028" gradientUnits="userSpaceOnUse">
<stop stop-color="#B4948D"/>
<stop offset="1" stop-color="#B4948D" stop-opacity="0"/>
</linearGradient>
<radialGradient id="paint47_radial_4002_2605" cx="0" cy="0" r="1" gradientUnits="userSpaceOnUse" gradientTransform="translate(12.1234 10.6748) rotate(-90.897) scale(0.49412 0.593952)">
<stop offset="0.765532" stop-color="#FFE6E2" stop-opacity="0"/>
<stop offset="0.966159" stop-color="#FFE6E2"/>
</radialGradient>
<radialGradient id="paint48_radial_4002_2605" cx="0" cy="0" r="1" gradientUnits="userSpaceOnUse" gradientTransform="translate(17.9894 3.09744) rotate(116.696) scale(6.12125 6.5789)">
<stop stop-color="#F0406F"/>
<stop offset="1" stop-color="#F44F5A"/>
</radialGradient>
<linearGradient id="paint49_linear_4002_2605" x1="10.6457" y1="6.72244" x2="16.9894" y2="6.72244" gradientUnits="userSpaceOnUse">
<stop stop-color="#BE324C"/>
<stop offset="1" stop-color="#BE324C" stop-opacity="0"/>
</linearGradient>
<radialGradient id="paint50_radial_4002_2605" cx="0" cy="0" r="1" gradientUnits="userSpaceOnUse" gradientTransform="translate(8.28851 7.06619) rotate(-79.3006) scale(3.94356 1.74576)">
<stop stop-color="#BD585D"/>
<stop offset="1" stop-color="#BD585D" stop-opacity="0"/>
</radialGradient>
<radialGradient id="paint51_radial_4002_2605" cx="0" cy="0" r="1" gradientUnits="userSpaceOnUse" gradientTransform="translate(19.6457 3.09744) rotate(131.285) scale(1.70506 4.79716)">
<stop stop-color="#FD5C7C"/>
<stop offset="1" stop-color="#FD5C7C" stop-opacity="0"/>
</radialGradient>
<radialGradient id="paint52_radial_4002_2605" cx="0" cy="0" r="1" gradientUnits="userSpaceOnUse" gradientTransform="translate(10.8332 7.19119) rotate(-90) scale(0.734375 4.0625)">
<stop stop-color="#C52632"/>
<stop offset="1" stop-color="#C52632" stop-opacity="0"/>
</radialGradient>
<radialGradient id="paint53_radial_4002_2605" cx="0" cy="0" r="1" gradientUnits="userSpaceOnUse" gradientTransform="translate(21.577 27.816) rotate(-180) scale(14.5563 2.0625)">
<stop stop-color="#FEC852"/>
<stop offset="1" stop-color="#FEC852" stop-opacity="0"/>
</radialGradient>
<linearGradient id="paint54_linear_4002_2605" x1="14.592" y1="30.316" x2="14.592" y2="28.7223" gradientUnits="userSpaceOnUse">
<stop stop-color="#B78426"/>
<stop offset="1" stop-color="#D9A73C" stop-opacity="0"/>
</linearGradient>
<linearGradient id="paint55_linear_4002_2605" x1="14.592" y1="26.1722" x2="14.592" y2="27.441" gradientUnits="userSpaceOnUse">
<stop stop-color="#EDB63D"/>
<stop offset="1" stop-color="#EDB63D" stop-opacity="0"/>
</linearGradient>
<radialGradient id="paint56_radial_4002_2605" cx="0" cy="0" r="1" gradientUnits="userSpaceOnUse" gradientTransform="translate(17.8957 27.5973) rotate(104.338) scale(7.1928 1.69685)">
<stop stop-color="#BC832D"/>
<stop offset="1" stop-color="#BC832D" stop-opacity="0"/>
</radialGradient>
<linearGradient id="paint57_linear_4002_2605" x1="14.582" y1="6.97229" x2="14.582" y2="11.7535" gradientUnits="userSpaceOnUse">
<stop offset="0.526495" stop-color="#BB2B57"/>
<stop offset="0.653595" stop-color="#BB2B57" stop-opacity="0"/>
</linearGradient>
<radialGradient id="paint58_radial_4002_2605" cx="0" cy="0" r="1" gradientUnits="userSpaceOnUse" gradientTransform="translate(18.7032 7.17391) rotate(-180) scale(7.33866 0.953073)">
<stop offset="0.168831" stop-color="#FC5083"/>
<stop offset="1" stop-color="#FC5083" stop-opacity="0"/>
</radialGradient>
<radialGradient id="paint59_radial_4002_2605" cx="0" cy="0" r="1" gradientUnits="userSpaceOnUse" gradientTransform="translate(6.63013 8.14416) rotate(55.2109) scale(1.80744 16.5933)">
<stop stop-color="#B3576B"/>
<stop offset="1" stop-color="#B3576B" stop-opacity="0"/>
</radialGradient>
<radialGradient id="paint60_radial_4002_2605" cx="0" cy="0" r="1" gradientUnits="userSpaceOnUse" gradientTransform="translate(7.677 9.12854) rotate(-147.288) scale(1.14207 1.56031)">
<stop offset="0.500702" stop-color="#A21E3E"/>
<stop offset="1" stop-color="#A21E3E" stop-opacity="0"/>
</radialGradient>
<radialGradient id="paint61_radial_4002_2605" cx="0" cy="0" r="1" gradientUnits="userSpaceOnUse" gradientTransform="translate(22.0208 9.03479) rotate(-36.8699) scale(0.9375 1.75625)">
<stop offset="0.161709" stop-color="#BE1E3B"/>
<stop offset="1" stop-color="#BE1E3B" stop-opacity="0"/>
</radialGradient>
<linearGradient id="paint62_linear_4002_2605" x1="14.5819" y1="19.6051" x2="14.5819" y2="26.1754" gradientUnits="userSpaceOnUse">
<stop stop-color="#BA2F50"/>
<stop offset="1" stop-color="#B93054"/>
</linearGradient>
<radialGradient id="paint63_radial_4002_2605" cx="0" cy="0" r="1" gradientUnits="userSpaceOnUse" gradientTransform="translate(14.9614 21.7553) rotate(90) scale(4.27624 0.62648)">
<stop stop-color="#C1415C"/>
<stop offset="1" stop-color="#C1415C" stop-opacity="0"/>
</radialGradient>
<radialGradient id="paint64_radial_4002_2605" cx="0" cy="0" r="1" gradientUnits="userSpaceOnUse" gradientTransform="translate(14.5819 25.8271) rotate(-90) scale(6.41436 1.45816)">
<stop offset="0.862745" stop-color="#AB0D36" stop-opacity="0"/>
<stop offset="1" stop-color="#AB0D36"/>
</radialGradient>
<radialGradient id="paint65_radial_4002_2605" cx="0" cy="0" r="1" gradientUnits="userSpaceOnUse" gradientTransform="translate(17.4895 4.99734) rotate(167.143) scale(2.97716 4.69784)">
<stop stop-color="#675B70"/>
<stop offset="1" stop-color="#524361"/>
</radialGradient>
<radialGradient id="paint66_radial_4002_2605" cx="0" cy="0" r="1" gradientUnits="userSpaceOnUse" gradientTransform="translate(11.9269 7.28479) rotate(-39.1217) scale(3.6253 4.50935)">
<stop stop-color="#3D2B40"/>
<stop offset="1" stop-color="#3D2B40" stop-opacity="0"/>
</radialGradient>
<linearGradient id="paint67_linear_4002_2605" x1="22.0208" y1="16.7537" x2="18.3333" y2="29.9724" gradientUnits="userSpaceOnUse">
<stop stop-color="#8F5B56"/>
<stop offset="1" stop-color="#785253"/>
</linearGradient>
<radialGradient id="paint68_radial_4002_2605" cx="0" cy="0" r="1" gradientUnits="userSpaceOnUse" gradientTransform="translate(19.9222 22.7381) rotate(100.623) scale(1.16051 4.42408)">
<stop stop-color="#734145"/>
<stop offset="1" stop-color="#734145" stop-opacity="0"/>
</radialGradient>
<radialGradient id="paint69_radial_4002_2605" cx="0" cy="0" r="1" gradientUnits="userSpaceOnUse" gradientTransform="translate(23.1067 16.3944) rotate(157.647) scale(0.903856 0.374373)">
<stop stop-color="#A17D74"/>
<stop offset="1" stop-color="#A17D74" stop-opacity="0"/>
</radialGradient>
<radialGradient id="paint70_radial_4002_2605" cx="0" cy="0" r="1" gradientUnits="userSpaceOnUse" gradientTransform="translate(21.7864 16.3319) rotate(12.1313) scale(0.855031 0.279013)">
<stop stop-color="#8C5E57"/>
<stop offset="1" stop-color="#8C5E57" stop-opacity="0"/>
</radialGradient>
<linearGradient id="paint71_linear_4002_2605" x1="20.0207" y1="22.191" x2="28.2082" y2="18.8785" gradientUnits="userSpaceOnUse">
<stop stop-color="#EE2F8C"/>
<stop offset="1" stop-color="#FC3D5F"/>
</linearGradient>
<radialGradient id="paint72_radial_4002_2605" cx="0" cy="0" r="1" gradientUnits="userSpaceOnUse" gradientTransform="translate(19.8524 16.9457) rotate(53.0429) scale(2.21001 0.821743)">
<stop stop-color="#FC4B93"/>
<stop offset="1" stop-color="#ED2E7C" stop-opacity="0"/>
</radialGradient>
<radialGradient id="paint73_radial_4002_2605" cx="0" cy="0" r="1" gradientUnits="userSpaceOnUse" gradientTransform="translate(18.8332 19.3785) rotate(16.5873) scale(1.53252 4.40513)">
<stop stop-color="#C93271"/>
<stop offset="1" stop-color="#C93271" stop-opacity="0"/>
</radialGradient>
<radialGradient id="paint74_radial_4002_2605" cx="0" cy="0" r="1" gradientUnits="userSpaceOnUse" gradientTransform="translate(28.2082 20.1286) rotate(135.9) scale(4.22106 5.23602)">
<stop stop-color="#DED9E3"/>
<stop offset="1" stop-color="#CDC6D4"/>
</radialGradient>
<radialGradient id="paint75_radial_4002_2605" cx="0" cy="0" r="1" gradientUnits="userSpaceOnUse" gradientTransform="translate(28.6457 22.5036) rotate(-170.248) scale(4.05865 6.1655)">
<stop offset="0.710695" stop-color="#BAB3B6" stop-opacity="0"/>
<stop offset="1" stop-color="#A39BA9"/>
</radialGradient>
<radialGradient id="paint76_radial_4002_2605" cx="0" cy="0" r="1" gradientUnits="userSpaceOnUse" gradientTransform="translate(28.0832 19.363) rotate(156.903) scale(1.15509 2.08846)">
<stop offset="0.143458" stop-color="#EEECF0"/>
<stop offset="1" stop-color="#EEECF0" stop-opacity="0"/>
</radialGradient>
<linearGradient id="paint77_linear_4002_2605" x1="14.4582" y1="4.22044" x2="14.4582" y2="6.66576" gradientUnits="userSpaceOnUse">
<stop stop-color="#F1B244"/>
<stop offset="1" stop-color="#F48942"/>
</linearGradient>
<linearGradient id="paint78_linear_4002_2605" x1="18.6892" y1="21.6466" x2="20.1925" y2="16.4568" gradientUnits="userSpaceOnUse">
<stop stop-color="#CD517B"/>
<stop offset="1" stop-color="#CD517B" stop-opacity="0"/>
</linearGradient>
<radialGradient id="paint79_radial_4002_2605" cx="0" cy="0" r="1" gradientUnits="userSpaceOnUse" gradientTransform="translate(11.1569 16.0664) rotate(60.2107) scale(2.5564 1.83182)">
<stop stop-color="#C75567"/>
<stop offset="1" stop-color="#C75567" stop-opacity="0"/>
</radialGradient>
<radialGradient id="paint80_radial_4002_2605" cx="0" cy="0" r="1" gradientUnits="userSpaceOnUse" gradientTransform="translate(12.1905 16.0664) rotate(27.1383) scale(2.60302 0.912551)">
<stop offset="0.341844" stop-color="#C71931"/>
<stop offset="1" stop-color="#C71931" stop-opacity="0"/>
</radialGradient>
<radialGradient id="paint81_radial_4002_2605" cx="0" cy="0" r="1" gradientUnits="userSpaceOnUse" gradientTransform="translate(18.0469 16.1911) rotate(136.408) scale(4.35086 4.82952)">
<stop stop-color="#FF547F"/>
<stop offset="1" stop-color="#DF3D67"/>
</radialGradient>
<linearGradient id="paint82_linear_4002_2605" x1="13.2769" y1="18.0839" x2="13.4895" y2="18.0839" gradientUnits="userSpaceOnUse">
<stop stop-color="#CA435D"/>
<stop offset="1" stop-color="#CA435D" stop-opacity="0"/>
</linearGradient>
<radialGradient id="paint83_radial_4002_2605" cx="0" cy="0" r="1" gradientUnits="userSpaceOnUse" gradientTransform="translate(13.9935 16.0331) scale(4.58258 1.41506)">
<stop offset="0.296342" stop-color="#C71931"/>
<stop offset="1" stop-color="#C71931" stop-opacity="0"/>
</radialGradient>
</defs>
</svg>
