<svg xmlns="http://www.w3.org/2000/svg" width="32" height="32" fill="none"><path fill="#000" d="M4 21h24v6H4v-6Z"/><path fill="#636363" d="M21.79 11.01c.74 0 1.42.42 1.75 1.08l.452.904.94 3.003L26.996 19h1.046c1.08 0 1.959.879 1.959 1.957l-.386 1.52.386 1.519v1.046c0 1.08-.88 1.958-1.96 1.958h-.571a4 4 0 1 0-7.938 0h-7.062a4 4 0 1 0-7.938 0h-.572C2.88 27 2 26.121 2 25.042v-1.038l1.32-1.498L2 21.008c0-1.15.88-1.998 1.96-1.998L7 19.009l2.197-2.912.808-3.097.455-.91a1.96 1.96 0 0 1 1.75-1.08h9.58Z"/><path fill="#321B41" d="M12 26.5a3.5 3.5 0 1 1-7 0 3.5 3.5 0 0 1 7 0Zm15 0a3.5 3.5 0 1 1-7 0 3.5 3.5 0 0 1 7 0Z"/><path fill="#D3D3D3" d="M16 10h2v1h-2v-1ZM8 22.53V19h16v3.53A4 4 0 0 0 19.53 27h-7.06A4 4 0 0 0 8 22.53ZM10 26.5a1.5 1.5 0 1 1-3 0 1.5 1.5 0 0 1 3 0ZM25 26.5a1.5 1.5 0 1 1-3 0 1.5 1.5 0 0 1 3 0Z"/><path fill="#FFF478" d="M4 22c0-.55-.45-1-1-1H2v3h1c.55 0 1-.45 1-1v-1Z"/><path fill="#F92F60" fill-rule="evenodd" d="M16 9c0-.55.45-1 1-1s1 .45 1 1v1h-2V9Zm12 13.57c-.04-.86.65-1.57 1.5-1.57h.5v3h-.45c-.81 0-1.51-.62-1.55-1.43Z" clip-rule="evenodd"/><path fill="#26C9FC" d="M15.02 19H7l3-6h5.02c.54 0 .98.44.98.98v4.04c0 .54-.44.98-.98.98Zm3.96 0H27l-3-6h-5.02c-.54 0-.98.44-.98.98v4.04c0 .54.44.98.98.98Z"/><path fill="#D3D3D3" d="M11.13 20h.39c.27 0 .48-.22.48-.48v-2.04a.48.48 0 0 0-.48-.48h-.39c-.62 0-1.13.51-1.13 1.13v.74c0 .63.51 1.13 1.13 1.13Z"/><path fill="#9B9B9B" d="M11.13 20h.39c.27 0 .48-.22.48-.48v-2.04a.48.48 0 0 0-.48-.48h-.39c-.62 0-1.13.51-1.13 1.13v.74c0 .63.51 1.13 1.13 1.13Z"/></svg>