<svg width="32" height="32" viewBox="0 0 32 32" fill="none" xmlns="http://www.w3.org/2000/svg">
<g filter="url(#filter0_i_4002_3603)">
<path d="M10.2788 27.8481H9.22881C6.87881 27.8481 4.96881 25.9381 4.96881 23.5881V20.0981H10.2688V27.8481H10.2788Z" fill="url(#paint0_linear_4002_3603)"/>
</g>
<g filter="url(#filter1_i_4002_3603)">
<path d="M21.6788 27.8481H22.7288C25.0788 27.8481 26.9888 25.9381 26.9888 23.5881V20.0981H21.6888V27.8481H21.6788Z" fill="url(#paint1_linear_4002_3603)"/>
<path d="M21.6788 27.8481H22.7288C25.0788 27.8481 26.9888 25.9381 26.9888 23.5881V20.0981H21.6888V27.8481H21.6788Z" fill="url(#paint2_radial_4002_3603)"/>
</g>
<path d="M6.46881 20.8281C8.26374 20.8281 9.71881 19.3731 9.71881 17.5781C9.71881 15.7832 8.26374 14.3281 6.46881 14.3281C4.67389 14.3281 3.21881 15.7832 3.21881 17.5781C3.21881 19.3731 4.67389 20.8281 6.46881 20.8281Z" fill="url(#paint3_linear_4002_3603)"/>
<path d="M6.46881 20.8281C8.26374 20.8281 9.71881 19.3731 9.71881 17.5781C9.71881 15.7832 8.26374 14.3281 6.46881 14.3281C4.67389 14.3281 3.21881 15.7832 3.21881 17.5781C3.21881 19.3731 4.67389 20.8281 6.46881 20.8281Z" fill="url(#paint4_radial_4002_3603)"/>
<g filter="url(#filter2_f_4002_3603)">
<path d="M6.46881 19.6406C7.6079 19.6406 8.53131 18.7172 8.53131 17.5781C8.53131 16.439 7.6079 15.5156 6.46881 15.5156C5.32972 15.5156 4.40631 16.439 4.40631 17.5781C4.40631 18.7172 5.32972 19.6406 6.46881 19.6406Z" fill="url(#paint5_radial_4002_3603)"/>
</g>
<path d="M25.4688 20.8281C27.2637 20.8281 28.7188 19.3731 28.7188 17.5781C28.7188 15.7832 27.2637 14.3281 25.4688 14.3281C23.6739 14.3281 22.2188 15.7832 22.2188 17.5781C22.2188 19.3731 23.6739 20.8281 25.4688 20.8281Z" fill="url(#paint6_radial_4002_3603)"/>
<path d="M25.4688 20.8281C27.2637 20.8281 28.7188 19.3731 28.7188 17.5781C28.7188 15.7832 27.2637 14.3281 25.4688 14.3281C23.6739 14.3281 22.2188 15.7832 22.2188 17.5781C22.2188 19.3731 23.6739 20.8281 25.4688 20.8281Z" fill="url(#paint7_radial_4002_3603)"/>
<path d="M25.4688 20.8281C27.2637 20.8281 28.7188 19.3731 28.7188 17.5781C28.7188 15.7832 27.2637 14.3281 25.4688 14.3281C23.6739 14.3281 22.2188 15.7832 22.2188 17.5781C22.2188 19.3731 23.6739 20.8281 25.4688 20.8281Z" fill="url(#paint8_radial_4002_3603)"/>
<path d="M25.4688 20.8281C27.2637 20.8281 28.7188 19.3731 28.7188 17.5781C28.7188 15.7832 27.2637 14.3281 25.4688 14.3281C23.6739 14.3281 22.2188 15.7832 22.2188 17.5781C22.2188 19.3731 23.6739 20.8281 25.4688 20.8281Z" fill="url(#paint9_radial_4002_3603)"/>
<g filter="url(#filter3_f_4002_3603)">
<path d="M25.4688 19.5781C26.5734 19.5781 27.4688 18.6827 27.4688 17.5781C27.4688 16.4736 26.5734 15.5781 25.4688 15.5781C24.3642 15.5781 23.4688 16.4736 23.4688 17.5781C23.4688 18.6827 24.3642 19.5781 25.4688 19.5781Z" fill="#52393A"/>
<path d="M25.4688 19.5781C26.5734 19.5781 27.4688 18.6827 27.4688 17.5781C27.4688 16.4736 26.5734 15.5781 25.4688 15.5781C24.3642 15.5781 23.4688 16.4736 23.4688 17.5781C23.4688 18.6827 24.3642 19.5781 25.4688 19.5781Z" fill="url(#paint10_radial_4002_3603)"/>
</g>
<g filter="url(#filter4_ii_4002_3603)">
<path d="M13.4931 3.88904C9.14863 3.88904 5.63318 7.50563 5.81254 11.8673L6.11947 20.1053C6.35861 25.9575 10.7529 29.889 16.0938 29.889C21.4347 29.889 25.829 25.9575 26.0681 20.1053L26.4375 11.8947C26.6169 7.53298 23.0389 3.88904 18.6945 3.88904H13.4931Z" fill="url(#paint11_radial_4002_3603)"/>
<path d="M13.4931 3.88904C9.14863 3.88904 5.63318 7.50563 5.81254 11.8673L6.11947 20.1053C6.35861 25.9575 10.7529 29.889 16.0938 29.889C21.4347 29.889 25.829 25.9575 26.0681 20.1053L26.4375 11.8947C26.6169 7.53298 23.0389 3.88904 18.6945 3.88904H13.4931Z" fill="url(#paint12_radial_4002_3603)"/>
<path d="M13.4931 3.88904C9.14863 3.88904 5.63318 7.50563 5.81254 11.8673L6.11947 20.1053C6.35861 25.9575 10.7529 29.889 16.0938 29.889C21.4347 29.889 25.829 25.9575 26.0681 20.1053L26.4375 11.8947C26.6169 7.53298 23.0389 3.88904 18.6945 3.88904H13.4931Z" fill="url(#paint13_radial_4002_3603)"/>
<path d="M13.4931 3.88904C9.14863 3.88904 5.63318 7.50563 5.81254 11.8673L6.11947 20.1053C6.35861 25.9575 10.7529 29.889 16.0938 29.889C21.4347 29.889 25.829 25.9575 26.0681 20.1053L26.4375 11.8947C26.6169 7.53298 23.0389 3.88904 18.6945 3.88904H13.4931Z" fill="url(#paint14_radial_4002_3603)"/>
<path d="M13.4931 3.88904C9.14863 3.88904 5.63318 7.50563 5.81254 11.8673L6.11947 20.1053C6.35861 25.9575 10.7529 29.889 16.0938 29.889C21.4347 29.889 25.829 25.9575 26.0681 20.1053L26.4375 11.8947C26.6169 7.53298 23.0389 3.88904 18.6945 3.88904H13.4931Z" fill="url(#paint15_radial_4002_3603)"/>
<path d="M13.4931 3.88904C9.14863 3.88904 5.63318 7.50563 5.81254 11.8673L6.11947 20.1053C6.35861 25.9575 10.7529 29.889 16.0938 29.889C21.4347 29.889 25.829 25.9575 26.0681 20.1053L26.4375 11.8947C26.6169 7.53298 23.0389 3.88904 18.6945 3.88904H13.4931Z" fill="url(#paint16_radial_4002_3603)"/>
<path d="M13.4931 3.88904C9.14863 3.88904 5.63318 7.50563 5.81254 11.8673L6.11947 20.1053C6.35861 25.9575 10.7529 29.889 16.0938 29.889C21.4347 29.889 25.829 25.9575 26.0681 20.1053L26.4375 11.8947C26.6169 7.53298 23.0389 3.88904 18.6945 3.88904H13.4931Z" fill="url(#paint17_radial_4002_3603)"/>
</g>
<g filter="url(#filter5_f_4002_3603)">
<path d="M21.4293 11.7917C18.8865 11.7917 16.7372 16.393 16.3437 18.1488V9.88458H21.4293V11.7917Z" fill="url(#paint18_linear_4002_3603)"/>
</g>
<g filter="url(#filter6_i_4002_3603)">
<path d="M9.68881 13.9181C10.2788 13.7081 11.0988 13.5581 12.1588 13.6581" stroke="#131212" stroke-miterlimit="10" stroke-linecap="round" stroke-linejoin="round"/>
</g>
<g filter="url(#filter7_f_4002_3603)">
<path d="M9.71881 13.8244C10.3088 13.6144 11.1288 13.4644 12.1888 13.5644" stroke="#333333" stroke-width="0.25" stroke-miterlimit="10" stroke-linecap="round" stroke-linejoin="round"/>
</g>
<g filter="url(#filter8_i_4002_3603)">
<path d="M22.2688 13.9181C21.6788 13.7081 20.8588 13.5581 19.7988 13.6581" stroke="#131212" stroke-miterlimit="10" stroke-linecap="round" stroke-linejoin="round"/>
</g>
<g filter="url(#filter9_f_4002_3603)">
<path d="M22.2688 13.7723C21.6788 13.5623 20.8588 13.4123 19.7988 13.5123" stroke="#333333" stroke-width="0.25" stroke-miterlimit="10" stroke-linecap="round" stroke-linejoin="round"/>
</g>
<g filter="url(#filter10_f_4002_3603)">
<path d="M19.4788 22.7816L19.4788 22.7815C19.7004 22.435 19.319 22.0181 18.9526 22.2023L18.9526 22.2023L18.9508 22.2032C18.0835 22.6689 17.0673 22.927 15.9708 22.927C14.8748 22.927 13.8584 22.6591 12.9904 22.203C12.6231 22.0064 12.2306 22.4254 12.463 22.782L12.5259 22.7411L12.4628 22.7816C13.2049 23.9364 14.5063 24.7031 15.9708 24.7031C17.4353 24.7031 18.7366 23.9364 19.4788 22.7816Z" stroke="url(#paint19_linear_4002_3603)" stroke-width="0.15"/>
</g>
<path d="M15.9708 23.002C14.8624 23.002 13.8339 22.731 12.9552 22.2693C12.6557 22.1087 12.3361 22.45 12.5259 22.7411C13.2548 23.8753 14.5329 24.6281 15.9708 24.6281C17.4086 24.6281 18.6867 23.8753 19.4157 22.7411C19.5954 22.46 19.2859 22.1187 18.9863 22.2693C18.1076 22.7411 17.0791 23.002 15.9708 23.002Z" fill="#2A0219"/>
<g filter="url(#filter11_ii_4002_3603)">
<path d="M27.1136 4.6116C27.3136 5.21236 26.8636 5.83313 26.2336 5.83313H25.7708C25.6655 5.83313 25.6305 5.97416 25.7236 6.02337C27.8136 7.14477 29.1136 9.31749 29.0936 11.6804V13.5528C29.0936 14.2637 28.5136 14.8444 27.8036 14.8444H27.5142C27.3799 14.8444 27.2696 14.9506 27.2644 15.0848L27.2536 15.365L27.1936 16.8469C27.1736 17.3976 26.7236 17.8281 26.1736 17.8281L26.2936 14.1535C26.3336 12.8819 25.3236 11.8406 24.0636 11.8406H18.8936C16.5508 11.8406 14.4868 10.6493 13.2663 8.8499C13.2162 8.77602 13.098 8.79604 13.0733 8.8818C12.5812 10.5857 11.0088 11.8406 9.14363 11.8406H7.90363C6.77363 11.8406 5.86363 12.7718 5.89363 13.9032C5.92934 15.2119 5.98997 16.5159 6.03503 17.8242C5.48503 17.8242 5.01363 17.3976 4.99363 16.8469L4.93242 15.169C4.92751 15.0346 4.81711 14.9281 4.68258 14.9281H4.34363C3.4989 14.9281 3.09363 14.2281 3.09363 13.3826V10.4789C3.09363 6.87443 6.01363 3.95078 9.61363 3.95078C9.90515 3.95078 10.1435 3.72897 10.2368 3.45277C10.5553 2.50971 11.4299 1.82812 12.4736 1.82812H23.3036C25.0836 1.82812 26.6036 2.99959 27.1136 4.6116Z" fill="url(#paint20_linear_4002_3603)"/>
<path d="M27.1136 4.6116C27.3136 5.21236 26.8636 5.83313 26.2336 5.83313H25.7708C25.6655 5.83313 25.6305 5.97416 25.7236 6.02337C27.8136 7.14477 29.1136 9.31749 29.0936 11.6804V13.5528C29.0936 14.2637 28.5136 14.8444 27.8036 14.8444H27.5142C27.3799 14.8444 27.2696 14.9506 27.2644 15.0848L27.2536 15.365L27.1936 16.8469C27.1736 17.3976 26.7236 17.8281 26.1736 17.8281L26.2936 14.1535C26.3336 12.8819 25.3236 11.8406 24.0636 11.8406H18.8936C16.5508 11.8406 14.4868 10.6493 13.2663 8.8499C13.2162 8.77602 13.098 8.79604 13.0733 8.8818C12.5812 10.5857 11.0088 11.8406 9.14363 11.8406H7.90363C6.77363 11.8406 5.86363 12.7718 5.89363 13.9032C5.92934 15.2119 5.98997 16.5159 6.03503 17.8242C5.48503 17.8242 5.01363 17.3976 4.99363 16.8469L4.93242 15.169C4.92751 15.0346 4.81711 14.9281 4.68258 14.9281H4.34363C3.4989 14.9281 3.09363 14.2281 3.09363 13.3826V10.4789C3.09363 6.87443 6.01363 3.95078 9.61363 3.95078C9.90515 3.95078 10.1435 3.72897 10.2368 3.45277C10.5553 2.50971 11.4299 1.82812 12.4736 1.82812H23.3036C25.0836 1.82812 26.6036 2.99959 27.1136 4.6116Z" fill="url(#paint21_radial_4002_3603)"/>
<path d="M27.1136 4.6116C27.3136 5.21236 26.8636 5.83313 26.2336 5.83313H25.7708C25.6655 5.83313 25.6305 5.97416 25.7236 6.02337C27.8136 7.14477 29.1136 9.31749 29.0936 11.6804V13.5528C29.0936 14.2637 28.5136 14.8444 27.8036 14.8444H27.5142C27.3799 14.8444 27.2696 14.9506 27.2644 15.0848L27.2536 15.365L27.1936 16.8469C27.1736 17.3976 26.7236 17.8281 26.1736 17.8281L26.2936 14.1535C26.3336 12.8819 25.3236 11.8406 24.0636 11.8406H18.8936C16.5508 11.8406 14.4868 10.6493 13.2663 8.8499C13.2162 8.77602 13.098 8.79604 13.0733 8.8818C12.5812 10.5857 11.0088 11.8406 9.14363 11.8406H7.90363C6.77363 11.8406 5.86363 12.7718 5.89363 13.9032C5.92934 15.2119 5.98997 16.5159 6.03503 17.8242C5.48503 17.8242 5.01363 17.3976 4.99363 16.8469L4.93242 15.169C4.92751 15.0346 4.81711 14.9281 4.68258 14.9281H4.34363C3.4989 14.9281 3.09363 14.2281 3.09363 13.3826V10.4789C3.09363 6.87443 6.01363 3.95078 9.61363 3.95078C9.90515 3.95078 10.1435 3.72897 10.2368 3.45277C10.5553 2.50971 11.4299 1.82812 12.4736 1.82812H23.3036C25.0836 1.82812 26.6036 2.99959 27.1136 4.6116Z" fill="url(#paint22_radial_4002_3603)"/>
<path d="M27.1136 4.6116C27.3136 5.21236 26.8636 5.83313 26.2336 5.83313H25.7708C25.6655 5.83313 25.6305 5.97416 25.7236 6.02337C27.8136 7.14477 29.1136 9.31749 29.0936 11.6804V13.5528C29.0936 14.2637 28.5136 14.8444 27.8036 14.8444H27.5142C27.3799 14.8444 27.2696 14.9506 27.2644 15.0848L27.2536 15.365L27.1936 16.8469C27.1736 17.3976 26.7236 17.8281 26.1736 17.8281L26.2936 14.1535C26.3336 12.8819 25.3236 11.8406 24.0636 11.8406H18.8936C16.5508 11.8406 14.4868 10.6493 13.2663 8.8499C13.2162 8.77602 13.098 8.79604 13.0733 8.8818C12.5812 10.5857 11.0088 11.8406 9.14363 11.8406H7.90363C6.77363 11.8406 5.86363 12.7718 5.89363 13.9032C5.92934 15.2119 5.98997 16.5159 6.03503 17.8242C5.48503 17.8242 5.01363 17.3976 4.99363 16.8469L4.93242 15.169C4.92751 15.0346 4.81711 14.9281 4.68258 14.9281H4.34363C3.4989 14.9281 3.09363 14.2281 3.09363 13.3826V10.4789C3.09363 6.87443 6.01363 3.95078 9.61363 3.95078C9.90515 3.95078 10.1435 3.72897 10.2368 3.45277C10.5553 2.50971 11.4299 1.82812 12.4736 1.82812H23.3036C25.0836 1.82812 26.6036 2.99959 27.1136 4.6116Z" fill="url(#paint23_radial_4002_3603)"/>
<path d="M27.1136 4.6116C27.3136 5.21236 26.8636 5.83313 26.2336 5.83313H25.7708C25.6655 5.83313 25.6305 5.97416 25.7236 6.02337C27.8136 7.14477 29.1136 9.31749 29.0936 11.6804V13.5528C29.0936 14.2637 28.5136 14.8444 27.8036 14.8444H27.5142C27.3799 14.8444 27.2696 14.9506 27.2644 15.0848L27.2536 15.365L27.1936 16.8469C27.1736 17.3976 26.7236 17.8281 26.1736 17.8281L26.2936 14.1535C26.3336 12.8819 25.3236 11.8406 24.0636 11.8406H18.8936C16.5508 11.8406 14.4868 10.6493 13.2663 8.8499C13.2162 8.77602 13.098 8.79604 13.0733 8.8818C12.5812 10.5857 11.0088 11.8406 9.14363 11.8406H7.90363C6.77363 11.8406 5.86363 12.7718 5.89363 13.9032C5.92934 15.2119 5.98997 16.5159 6.03503 17.8242C5.48503 17.8242 5.01363 17.3976 4.99363 16.8469L4.93242 15.169C4.92751 15.0346 4.81711 14.9281 4.68258 14.9281H4.34363C3.4989 14.9281 3.09363 14.2281 3.09363 13.3826V10.4789C3.09363 6.87443 6.01363 3.95078 9.61363 3.95078C9.90515 3.95078 10.1435 3.72897 10.2368 3.45277C10.5553 2.50971 11.4299 1.82812 12.4736 1.82812H23.3036C25.0836 1.82812 26.6036 2.99959 27.1136 4.6116Z" fill="url(#paint24_radial_4002_3603)"/>
<path d="M27.1136 4.6116C27.3136 5.21236 26.8636 5.83313 26.2336 5.83313H25.7708C25.6655 5.83313 25.6305 5.97416 25.7236 6.02337C27.8136 7.14477 29.1136 9.31749 29.0936 11.6804V13.5528C29.0936 14.2637 28.5136 14.8444 27.8036 14.8444H27.5142C27.3799 14.8444 27.2696 14.9506 27.2644 15.0848L27.2536 15.365L27.1936 16.8469C27.1736 17.3976 26.7236 17.8281 26.1736 17.8281L26.2936 14.1535C26.3336 12.8819 25.3236 11.8406 24.0636 11.8406H18.8936C16.5508 11.8406 14.4868 10.6493 13.2663 8.8499C13.2162 8.77602 13.098 8.79604 13.0733 8.8818C12.5812 10.5857 11.0088 11.8406 9.14363 11.8406H7.90363C6.77363 11.8406 5.86363 12.7718 5.89363 13.9032C5.92934 15.2119 5.98997 16.5159 6.03503 17.8242C5.48503 17.8242 5.01363 17.3976 4.99363 16.8469L4.93242 15.169C4.92751 15.0346 4.81711 14.9281 4.68258 14.9281H4.34363C3.4989 14.9281 3.09363 14.2281 3.09363 13.3826V10.4789C3.09363 6.87443 6.01363 3.95078 9.61363 3.95078C9.90515 3.95078 10.1435 3.72897 10.2368 3.45277C10.5553 2.50971 11.4299 1.82812 12.4736 1.82812H23.3036C25.0836 1.82812 26.6036 2.99959 27.1136 4.6116Z" fill="url(#paint25_radial_4002_3603)"/>
</g>
<path d="M20.7802 15.33C22.2353 15.33 23.4645 16.3332 23.7989 17.6889C23.8983 18.0776 23.6001 18.4481 23.2024 18.4481H18.2314C17.9151 18.4481 17.662 18.1589 17.7253 17.8426C18.0055 16.4145 19.2618 15.33 20.7802 15.33Z" fill="white"/>
<path d="M20.3192 15.9355C21.4219 15.9355 22.3076 16.8303 22.3076 17.9239C22.3076 18.1047 22.2805 18.2854 22.2353 18.4481H18.3941C18.3489 18.2764 18.3218 18.1047 18.3218 17.9239C18.3218 16.8303 19.2166 15.9355 20.3192 15.9355Z" fill="url(#paint26_radial_4002_3603)"/>
<path d="M19.1804 17.9239C19.1804 17.2912 19.6866 16.7851 20.3192 16.7851C20.9519 16.7851 21.458 17.2912 21.458 17.9239C21.458 18.1137 21.4128 18.2945 21.3315 18.4481H19.316C19.2256 18.2945 19.1804 18.1137 19.1804 17.9239Z" fill="black"/>
<g filter="url(#filter12_f_4002_3603)">
<path d="M20.173 16.3559C20.3146 16.5453 20.0185 16.7763 19.6818 17.028C19.3451 17.2798 19.0954 17.4569 18.9537 17.2674C18.812 17.078 18.9701 16.7203 19.3068 16.4686C19.6435 16.2169 20.0313 16.1664 20.173 16.3559Z" fill="#C7A7A3"/>
<path d="M20.173 16.3559C20.3146 16.5453 20.0185 16.7763 19.6818 17.028C19.3451 17.2798 19.0954 17.4569 18.9537 17.2674C18.812 17.078 18.9701 16.7203 19.3068 16.4686C19.6435 16.2169 20.0313 16.1664 20.173 16.3559Z" fill="url(#paint27_radial_4002_3603)"/>
</g>
<g filter="url(#filter13_f_4002_3603)">
<path d="M22.0903 17.6621C22.0169 17.148 21.7161 16.7606 21.5749 16.6312L20.9959 17.2667L21.2571 17.7751L22.0903 17.6621Z" fill="url(#paint28_linear_4002_3603)"/>
</g>
<path d="M11.1659 15.3419C9.71626 15.3419 8.49177 16.3413 8.15863 17.6918C8.05959 18.079 8.35671 18.4481 8.75287 18.4481H13.7049C14.02 18.4481 14.2721 18.16 14.2091 17.8449C13.93 16.4223 12.6695 15.3419 11.1659 15.3419Z" fill="white"/>
<path d="M11.625 15.9451C10.5266 15.9451 9.64423 16.8364 9.64423 17.9259C9.64423 18.1059 9.67124 18.286 9.71626 18.4481H13.5428C13.5878 18.277 13.6148 18.1059 13.6148 17.9259C13.6058 16.8364 12.7235 15.9451 11.625 15.9451Z" fill="url(#paint29_radial_4002_3603)"/>
<path d="M12.7595 17.9259C12.7595 17.2956 12.2553 16.7914 11.625 16.7914C10.9948 16.7914 10.4906 17.2956 10.4906 17.9259C10.4906 18.115 10.5356 18.2951 10.6166 18.4481H12.6244C12.7055 18.2951 12.7595 18.115 12.7595 17.9259Z" fill="black"/>
<g filter="url(#filter14_f_4002_3603)">
<path d="M13.4347 17.6932C13.4347 17.0531 12.9141 16.6263 12.7735 16.4974L12.1334 17.1164L12.5273 17.9183L13.4347 17.6932Z" fill="url(#paint30_linear_4002_3603)"/>
</g>
<g filter="url(#filter15_f_4002_3603)">
<ellipse cx="11.0274" cy="16.7914" rx="0.864727" ry="0.437632" transform="rotate(-27.914 11.0274 16.7914)" fill="#C7A7A3" fill-opacity="0.9"/>
<ellipse cx="11.0274" cy="16.7914" rx="0.864727" ry="0.437632" transform="rotate(-27.914 11.0274 16.7914)" fill="url(#paint31_radial_4002_3603)"/>
</g>
<g filter="url(#filter16_f_4002_3603)">
<path d="M17.2287 20.7623C17.3459 21.0111 17.3321 21.3226 17.1339 21.5678C16.7087 22.0854 16.0604 22.3908 15.3503 22.3274C14.6506 22.2648 14.0563 21.8483 13.7401 21.2644C13.5885 20.988 13.6301 20.679 13.7897 20.4549L15.1365 17.9715C15.2621 17.74 15.5132 17.6053 15.7755 17.6287V17.6287C16.0378 17.6522 16.2611 17.8293 16.3436 18.0794L17.2287 20.7623Z" fill="url(#paint32_linear_4002_3603)"/>
</g>
<g filter="url(#filter17_f_4002_3603)">
<path d="M17.6138 20.1818C17.7463 20.4082 17.7597 20.7053 17.5922 20.955C17.2322 21.4829 16.6422 21.8281 15.9622 21.8281C15.2922 21.8281 14.6922 21.4829 14.3422 20.955C14.1747 20.7053 14.188 20.4082 14.3205 20.1818L15.3892 17.708C15.4888 17.4774 15.716 17.3281 15.9672 17.3281V17.3281C16.2184 17.3281 16.4455 17.4774 16.5451 17.708L17.6138 20.1818Z" fill="#49302E"/>
<path d="M17.6138 20.1818C17.7463 20.4082 17.7597 20.7053 17.5922 20.955C17.2322 21.4829 16.6422 21.8281 15.9622 21.8281C15.2922 21.8281 14.6922 21.4829 14.3422 20.955C14.1747 20.7053 14.188 20.4082 14.3205 20.1818L15.3892 17.708C15.4888 17.4774 15.716 17.3281 15.9672 17.3281V17.3281C16.2184 17.3281 16.4455 17.4774 16.5451 17.708L17.6138 20.1818Z" fill="url(#paint33_radial_4002_3603)"/>
<path d="M17.6138 20.1818C17.7463 20.4082 17.7597 20.7053 17.5922 20.955C17.2322 21.4829 16.6422 21.8281 15.9622 21.8281C15.2922 21.8281 14.6922 21.4829 14.3422 20.955C14.1747 20.7053 14.188 20.4082 14.3205 20.1818L15.3892 17.708C15.4888 17.4774 15.716 17.3281 15.9672 17.3281V17.3281C16.2184 17.3281 16.4455 17.4774 16.5451 17.708L17.6138 20.1818Z" fill="url(#paint34_radial_4002_3603)"/>
<path d="M17.6138 20.1818C17.7463 20.4082 17.7597 20.7053 17.5922 20.955C17.2322 21.4829 16.6422 21.8281 15.9622 21.8281C15.2922 21.8281 14.6922 21.4829 14.3422 20.955C14.1747 20.7053 14.188 20.4082 14.3205 20.1818L15.3892 17.708C15.4888 17.4774 15.716 17.3281 15.9672 17.3281V17.3281C16.2184 17.3281 16.4455 17.4774 16.5451 17.708L17.6138 20.1818Z" fill="url(#paint35_linear_4002_3603)"/>
<path d="M17.6138 20.1818C17.7463 20.4082 17.7597 20.7053 17.5922 20.955C17.2322 21.4829 16.6422 21.8281 15.9622 21.8281C15.2922 21.8281 14.6922 21.4829 14.3422 20.955C14.1747 20.7053 14.188 20.4082 14.3205 20.1818L15.3892 17.708C15.4888 17.4774 15.716 17.3281 15.9672 17.3281V17.3281C16.2184 17.3281 16.4455 17.4774 16.5451 17.708L17.6138 20.1818Z" fill="url(#paint36_radial_4002_3603)"/>
<path d="M17.6138 20.1818C17.7463 20.4082 17.7597 20.7053 17.5922 20.955C17.2322 21.4829 16.6422 21.8281 15.9622 21.8281C15.2922 21.8281 14.6922 21.4829 14.3422 20.955C14.1747 20.7053 14.188 20.4082 14.3205 20.1818L15.3892 17.708C15.4888 17.4774 15.716 17.3281 15.9672 17.3281V17.3281C16.2184 17.3281 16.4455 17.4774 16.5451 17.708L17.6138 20.1818Z" fill="url(#paint37_linear_4002_3603)"/>
</g>
<g filter="url(#filter18_f_4002_3603)">
<path d="M24.2813 5.82812C23.4376 5.49479 21.0376 4.76562 18.1876 4.51562" stroke="#443E40" stroke-width="0.25" stroke-linecap="round"/>
</g>
<g filter="url(#filter19_f_4002_3603)">
<path d="M12.0157 5.48438C12.2136 6.27604 13.0032 8.20312 14.5782 9.57812" stroke="url(#paint38_linear_4002_3603)" stroke-width="0.25" stroke-linecap="round"/>
</g>
<g filter="url(#filter20_f_4002_3603)">
<path d="M18.8477 5.4871C16.5642 6.53017 15.6409 8.48242 15.4647 9.32815C16.0638 9.12847 17.8398 8.72204 20.1515 8.69385C22.4632 8.66566 24.0278 9.10497 24.5212 9.32815L25.4021 5.4871C24.1688 5.05248 21.1312 4.44402 18.8477 5.4871Z" fill="url(#paint39_radial_4002_3603)"/>
</g>
<g filter="url(#filter21_f_4002_3603)">
<rect x="26.6566" y="13.9989" width="0.476964" height="3.15606" rx="0.238482" transform="rotate(3.30155 26.6566 13.9989)" fill="url(#paint40_linear_4002_3603)"/>
</g>
<g filter="url(#filter22_f_4002_3603)">
<rect width="0.329475" height="3.8004" rx="0.164737" transform="matrix(-0.999188 0.040301 0.040301 0.999188 5.28854 13.4478)" fill="url(#paint41_linear_4002_3603)"/>
</g>
<defs>
<filter id="filter0_i_4002_3603" x="4.96881" y="20.0981" width="5.56" height="7.75" filterUnits="userSpaceOnUse" color-interpolation-filters="sRGB">
<feFlood flood-opacity="0" result="BackgroundImageFix"/>
<feBlend mode="normal" in="SourceGraphic" in2="BackgroundImageFix" result="shape"/>
<feColorMatrix in="SourceAlpha" type="matrix" values="0 0 0 0 0 0 0 0 0 0 0 0 0 0 0 0 0 0 127 0" result="hardAlpha"/>
<feOffset dx="0.25"/>
<feGaussianBlur stdDeviation="0.3"/>
<feComposite in2="hardAlpha" operator="arithmetic" k2="-1" k3="1"/>
<feColorMatrix type="matrix" values="0 0 0 0 0.290196 0 0 0 0 0.254902 0 0 0 0 0.247059 0 0 0 1 0"/>
<feBlend mode="normal" in2="shape" result="effect1_innerShadow_4002_3603"/>
</filter>
<filter id="filter1_i_4002_3603" x="21.6788" y="19.5981" width="5.56" height="8.25" filterUnits="userSpaceOnUse" color-interpolation-filters="sRGB">
<feFlood flood-opacity="0" result="BackgroundImageFix"/>
<feBlend mode="normal" in="SourceGraphic" in2="BackgroundImageFix" result="shape"/>
<feColorMatrix in="SourceAlpha" type="matrix" values="0 0 0 0 0 0 0 0 0 0 0 0 0 0 0 0 0 0 127 0" result="hardAlpha"/>
<feOffset dx="0.25" dy="-0.5"/>
<feGaussianBlur stdDeviation="0.375"/>
<feComposite in2="hardAlpha" operator="arithmetic" k2="-1" k3="1"/>
<feColorMatrix type="matrix" values="0 0 0 0 0.121569 0 0 0 0 0.0745098 0 0 0 0 0.164706 0 0 0 1 0"/>
<feBlend mode="normal" in2="shape" result="effect1_innerShadow_4002_3603"/>
</filter>
<filter id="filter2_f_4002_3603" x="4.15631" y="15.2656" width="4.625" height="4.625" filterUnits="userSpaceOnUse" color-interpolation-filters="sRGB">
<feFlood flood-opacity="0" result="BackgroundImageFix"/>
<feBlend mode="normal" in="SourceGraphic" in2="BackgroundImageFix" result="shape"/>
<feGaussianBlur stdDeviation="0.125" result="effect1_foregroundBlur_4002_3603"/>
</filter>
<filter id="filter3_f_4002_3603" x="23.2188" y="15.3281" width="4.5" height="4.5" filterUnits="userSpaceOnUse" color-interpolation-filters="sRGB">
<feFlood flood-opacity="0" result="BackgroundImageFix"/>
<feBlend mode="normal" in="SourceGraphic" in2="BackgroundImageFix" result="shape"/>
<feGaussianBlur stdDeviation="0.125" result="effect1_foregroundBlur_4002_3603"/>
</filter>
<filter id="filter4_ii_4002_3603" x="5.30597" y="3.88904" width="22.388" height="26" filterUnits="userSpaceOnUse" color-interpolation-filters="sRGB">
<feFlood flood-opacity="0" result="BackgroundImageFix"/>
<feBlend mode="normal" in="SourceGraphic" in2="BackgroundImageFix" result="shape"/>
<feColorMatrix in="SourceAlpha" type="matrix" values="0 0 0 0 0 0 0 0 0 0 0 0 0 0 0 0 0 0 127 0" result="hardAlpha"/>
<feOffset dx="1.25"/>
<feGaussianBlur stdDeviation="0.75"/>
<feComposite in2="hardAlpha" operator="arithmetic" k2="-1" k3="1"/>
<feColorMatrix type="matrix" values="0 0 0 0 0.3875 0 0 0 0 0.308045 0 0 0 0 0.298698 0 0 0 1 0"/>
<feBlend mode="normal" in2="shape" result="effect1_innerShadow_4002_3603"/>
<feColorMatrix in="SourceAlpha" type="matrix" values="0 0 0 0 0 0 0 0 0 0 0 0 0 0 0 0 0 0 127 0" result="hardAlpha"/>
<feOffset dx="-0.5"/>
<feGaussianBlur stdDeviation="0.25"/>
<feComposite in2="hardAlpha" operator="arithmetic" k2="-1" k3="1"/>
<feColorMatrix type="matrix" values="0 0 0 0 0.32549 0 0 0 0 0.239216 0 0 0 0 0.27451 0 0 0 1 0"/>
<feBlend mode="normal" in2="effect1_innerShadow_4002_3603" result="effect2_innerShadow_4002_3603"/>
</filter>
<filter id="filter5_f_4002_3603" x="15.0937" y="8.63458" width="7.58566" height="10.7642" filterUnits="userSpaceOnUse" color-interpolation-filters="sRGB">
<feFlood flood-opacity="0" result="BackgroundImageFix"/>
<feBlend mode="normal" in="SourceGraphic" in2="BackgroundImageFix" result="shape"/>
<feGaussianBlur stdDeviation="0.625" result="effect1_foregroundBlur_4002_3603"/>
</filter>
<filter id="filter6_i_4002_3603" x="9.18869" y="12.8264" width="3.72015" height="1.59187" filterUnits="userSpaceOnUse" color-interpolation-filters="sRGB">
<feFlood flood-opacity="0" result="BackgroundImageFix"/>
<feBlend mode="normal" in="SourceGraphic" in2="BackgroundImageFix" result="shape"/>
<feColorMatrix in="SourceAlpha" type="matrix" values="0 0 0 0 0 0 0 0 0 0 0 0 0 0 0 0 0 0 127 0" result="hardAlpha"/>
<feOffset dx="0.25" dy="-0.3"/>
<feGaussianBlur stdDeviation="0.15"/>
<feComposite in2="hardAlpha" operator="arithmetic" k2="-1" k3="1"/>
<feColorMatrix type="matrix" values="0 0 0 0 0.0431373 0 0 0 0 0.0196078 0 0 0 0 0.0509804 0 0 0 1 0"/>
<feBlend mode="normal" in2="shape" result="effect1_innerShadow_4002_3603"/>
</filter>
<filter id="filter7_f_4002_3603" x="9.34378" y="13.1577" width="3.22003" height="1.04175" filterUnits="userSpaceOnUse" color-interpolation-filters="sRGB">
<feFlood flood-opacity="0" result="BackgroundImageFix"/>
<feBlend mode="normal" in="SourceGraphic" in2="BackgroundImageFix" result="shape"/>
<feGaussianBlur stdDeviation="0.125" result="effect1_foregroundBlur_4002_3603"/>
</filter>
<filter id="filter8_i_4002_3603" x="19.2988" y="12.8264" width="3.72015" height="1.59187" filterUnits="userSpaceOnUse" color-interpolation-filters="sRGB">
<feFlood flood-opacity="0" result="BackgroundImageFix"/>
<feBlend mode="normal" in="SourceGraphic" in2="BackgroundImageFix" result="shape"/>
<feColorMatrix in="SourceAlpha" type="matrix" values="0 0 0 0 0 0 0 0 0 0 0 0 0 0 0 0 0 0 127 0" result="hardAlpha"/>
<feOffset dx="0.25" dy="-0.3"/>
<feGaussianBlur stdDeviation="0.15"/>
<feComposite in2="hardAlpha" operator="arithmetic" k2="-1" k3="1"/>
<feColorMatrix type="matrix" values="0 0 0 0 0.0431373 0 0 0 0 0.0196078 0 0 0 0 0.0509804 0 0 0 1 0"/>
<feBlend mode="normal" in2="shape" result="effect1_innerShadow_4002_3603"/>
</filter>
<filter id="filter9_f_4002_3603" x="19.4238" y="13.1055" width="3.22003" height="1.04175" filterUnits="userSpaceOnUse" color-interpolation-filters="sRGB">
<feFlood flood-opacity="0" result="BackgroundImageFix"/>
<feBlend mode="normal" in="SourceGraphic" in2="BackgroundImageFix" result="shape"/>
<feGaussianBlur stdDeviation="0.125" result="effect1_foregroundBlur_4002_3603"/>
</filter>
<filter id="filter10_f_4002_3603" x="12.2177" y="21.9774" width="7.50234" height="2.90074" filterUnits="userSpaceOnUse" color-interpolation-filters="sRGB">
<feFlood flood-opacity="0" result="BackgroundImageFix"/>
<feBlend mode="normal" in="SourceGraphic" in2="BackgroundImageFix" result="shape"/>
<feGaussianBlur stdDeviation="0.05" result="effect1_foregroundBlur_4002_3603"/>
</filter>
<filter id="filter11_ii_4002_3603" x="3.09363" y="1.07812" width="26.0002" height="16.75" filterUnits="userSpaceOnUse" color-interpolation-filters="sRGB">
<feFlood flood-opacity="0" result="BackgroundImageFix"/>
<feBlend mode="normal" in="SourceGraphic" in2="BackgroundImageFix" result="shape"/>
<feColorMatrix in="SourceAlpha" type="matrix" values="0 0 0 0 0 0 0 0 0 0 0 0 0 0 0 0 0 0 127 0" result="hardAlpha"/>
<feOffset dy="-0.75"/>
<feGaussianBlur stdDeviation="0.625"/>
<feComposite in2="hardAlpha" operator="arithmetic" k2="-1" k3="1"/>
<feColorMatrix type="matrix" values="0 0 0 0 0.101961 0 0 0 0 0.0431373 0 0 0 0 0.101961 0 0 0 1 0"/>
<feBlend mode="normal" in2="shape" result="effect1_innerShadow_4002_3603"/>
<feColorMatrix in="SourceAlpha" type="matrix" values="0 0 0 0 0 0 0 0 0 0 0 0 0 0 0 0 0 0 127 0" result="hardAlpha"/>
<feOffset dy="-0.35"/>
<feGaussianBlur stdDeviation="0.5"/>
<feComposite in2="hardAlpha" operator="arithmetic" k2="-1" k3="1"/>
<feColorMatrix type="matrix" values="0 0 0 0 0.0941176 0 0 0 0 0.0352941 0 0 0 0 0.054902 0 0 0 1 0"/>
<feBlend mode="normal" in2="effect1_innerShadow_4002_3603" result="effect2_innerShadow_4002_3603"/>
</filter>
<filter id="filter12_f_4002_3603" x="18.8018" y="16.1411" width="1.50746" height="1.30577" filterUnits="userSpaceOnUse" color-interpolation-filters="sRGB">
<feFlood flood-opacity="0" result="BackgroundImageFix"/>
<feBlend mode="normal" in="SourceGraphic" in2="BackgroundImageFix" result="shape"/>
<feGaussianBlur stdDeviation="0.05" result="effect1_foregroundBlur_4002_3603"/>
</filter>
<filter id="filter13_f_4002_3603" x="20.7959" y="16.4312" width="1.49445" height="1.54389" filterUnits="userSpaceOnUse" color-interpolation-filters="sRGB">
<feFlood flood-opacity="0" result="BackgroundImageFix"/>
<feBlend mode="normal" in="SourceGraphic" in2="BackgroundImageFix" result="shape"/>
<feGaussianBlur stdDeviation="0.1" result="effect1_foregroundBlur_4002_3603"/>
</filter>
<filter id="filter14_f_4002_3603" x="11.9334" y="16.2974" width="1.7013" height="1.8209" filterUnits="userSpaceOnUse" color-interpolation-filters="sRGB">
<feFlood flood-opacity="0" result="BackgroundImageFix"/>
<feBlend mode="normal" in="SourceGraphic" in2="BackgroundImageFix" result="shape"/>
<feGaussianBlur stdDeviation="0.1" result="effect1_foregroundBlur_4002_3603"/>
</filter>
<filter id="filter15_f_4002_3603" x="10.1361" y="16.1316" width="1.78258" height="1.31969" filterUnits="userSpaceOnUse" color-interpolation-filters="sRGB">
<feFlood flood-opacity="0" result="BackgroundImageFix"/>
<feBlend mode="normal" in="SourceGraphic" in2="BackgroundImageFix" result="shape"/>
<feGaussianBlur stdDeviation="0.05" result="effect1_foregroundBlur_4002_3603"/>
</filter>
<filter id="filter16_f_4002_3603" x="13.0457" y="17.0261" width="4.85741" height="5.90956" filterUnits="userSpaceOnUse" color-interpolation-filters="sRGB">
<feFlood flood-opacity="0" result="BackgroundImageFix"/>
<feBlend mode="normal" in="SourceGraphic" in2="BackgroundImageFix" result="shape"/>
<feGaussianBlur stdDeviation="0.3" result="effect1_foregroundBlur_4002_3603"/>
</filter>
<filter id="filter17_f_4002_3603" x="14.0188" y="17.1281" width="3.8967" height="4.9" filterUnits="userSpaceOnUse" color-interpolation-filters="sRGB">
<feFlood flood-opacity="0" result="BackgroundImageFix"/>
<feBlend mode="normal" in="SourceGraphic" in2="BackgroundImageFix" result="shape"/>
<feGaussianBlur stdDeviation="0.1" result="effect1_foregroundBlur_4002_3603"/>
</filter>
<filter id="filter18_f_4002_3603" x="17.4626" y="3.79062" width="7.54378" height="2.76253" filterUnits="userSpaceOnUse" color-interpolation-filters="sRGB">
<feFlood flood-opacity="0" result="BackgroundImageFix"/>
<feBlend mode="normal" in="SourceGraphic" in2="BackgroundImageFix" result="shape"/>
<feGaussianBlur stdDeviation="0.3" result="effect1_foregroundBlur_4002_3603"/>
</filter>
<filter id="filter19_f_4002_3603" x="11.4907" y="4.95934" width="3.61253" height="5.14378" filterUnits="userSpaceOnUse" color-interpolation-filters="sRGB">
<feFlood flood-opacity="0" result="BackgroundImageFix"/>
<feBlend mode="normal" in="SourceGraphic" in2="BackgroundImageFix" result="shape"/>
<feGaussianBlur stdDeviation="0.2" result="effect1_foregroundBlur_4002_3603"/>
</filter>
<filter id="filter20_f_4002_3603" x="13.9647" y="3.41116" width="12.9374" height="7.41699" filterUnits="userSpaceOnUse" color-interpolation-filters="sRGB">
<feFlood flood-opacity="0" result="BackgroundImageFix"/>
<feBlend mode="normal" in="SourceGraphic" in2="BackgroundImageFix" result="shape"/>
<feGaussianBlur stdDeviation="0.75" result="effect1_foregroundBlur_4002_3603"/>
</filter>
<filter id="filter21_f_4002_3603" x="26.2381" y="13.7622" width="1.13126" height="3.65161" filterUnits="userSpaceOnUse" color-interpolation-filters="sRGB">
<feFlood flood-opacity="0" result="BackgroundImageFix"/>
<feBlend mode="normal" in="SourceGraphic" in2="BackgroundImageFix" result="shape"/>
<feGaussianBlur stdDeviation="0.125" result="effect1_foregroundBlur_4002_3603"/>
</filter>
<filter id="filter22_f_4002_3603" x="4.71585" y="13.2043" width="0.96936" height="4.29758" filterUnits="userSpaceOnUse" color-interpolation-filters="sRGB">
<feFlood flood-opacity="0" result="BackgroundImageFix"/>
<feBlend mode="normal" in="SourceGraphic" in2="BackgroundImageFix" result="shape"/>
<feGaussianBlur stdDeviation="0.125" result="effect1_foregroundBlur_4002_3603"/>
</filter>
<linearGradient id="paint0_linear_4002_3603" x1="7.62381" y1="20.0981" x2="7.62381" y2="27.8481" gradientUnits="userSpaceOnUse">
<stop stop-color="#191619"/>
<stop offset="1" stop-color="#1A1023"/>
</linearGradient>
<linearGradient id="paint1_linear_4002_3603" x1="24.3338" y1="19.7031" x2="24.3338" y2="27.8481" gradientUnits="userSpaceOnUse">
<stop stop-color="#272328"/>
<stop offset="1" stop-color="#190E22"/>
</linearGradient>
<radialGradient id="paint2_radial_4002_3603" cx="0" cy="0" r="1" gradientUnits="userSpaceOnUse" gradientTransform="translate(26.9888 20.9844) rotate(90) scale(5.5 1.36374)">
<stop stop-color="#3A3739"/>
<stop offset="1" stop-color="#3A3739" stop-opacity="0"/>
</radialGradient>
<linearGradient id="paint3_linear_4002_3603" x1="4.53767" y1="16.9228" x2="7.15631" y2="20.0469" gradientUnits="userSpaceOnUse">
<stop stop-color="#342322"/>
<stop offset="1" stop-color="#2E1826"/>
</linearGradient>
<radialGradient id="paint4_radial_4002_3603" cx="0" cy="0" r="1" gradientUnits="userSpaceOnUse" gradientTransform="translate(6.46881 17.445) rotate(90) scale(2.90609)">
<stop offset="0.245444" stop-color="#564441"/>
<stop offset="1" stop-color="#564441" stop-opacity="0"/>
</radialGradient>
<radialGradient id="paint5_radial_4002_3603" cx="0" cy="0" r="1" gradientUnits="userSpaceOnUse" gradientTransform="translate(6.46881 17.5781) rotate(149.647) scale(2.00986)">
<stop stop-color="#281920"/>
<stop offset="1" stop-color="#261316"/>
</radialGradient>
<radialGradient id="paint6_radial_4002_3603" cx="0" cy="0" r="1" gradientUnits="userSpaceOnUse" gradientTransform="translate(25.2501 19.0469) rotate(-43.4089) scale(4.77481 4.46833)">
<stop offset="0.452453" stop-color="#41272E"/>
<stop offset="0.862492" stop-color="#776261"/>
</radialGradient>
<radialGradient id="paint7_radial_4002_3603" cx="0" cy="0" r="1" gradientUnits="userSpaceOnUse" gradientTransform="translate(25.4688 16.7969) rotate(90) scale(4.03125)">
<stop offset="0.880536" stop-color="#2F171B" stop-opacity="0"/>
<stop offset="1" stop-color="#2F171B"/>
</radialGradient>
<radialGradient id="paint8_radial_4002_3603" cx="0" cy="0" r="1" gradientUnits="userSpaceOnUse" gradientTransform="translate(26.4686 16.9495) rotate(102.397) scale(1.89149 1.99471)">
<stop offset="0.175374" stop-color="#311B1B"/>
<stop offset="1" stop-color="#311B1B" stop-opacity="0"/>
</radialGradient>
<radialGradient id="paint9_radial_4002_3603" cx="0" cy="0" r="1" gradientUnits="userSpaceOnUse" gradientTransform="translate(27.5157 14.5469) rotate(107.435) scale(0.990833 3.04282)">
<stop stop-color="#281210"/>
<stop offset="1" stop-color="#281210" stop-opacity="0"/>
</radialGradient>
<radialGradient id="paint10_radial_4002_3603" cx="0" cy="0" r="1" gradientUnits="userSpaceOnUse" gradientTransform="translate(25.9688 16.4062) rotate(91.2545) scale(2.14114 1.84922)">
<stop offset="0.56434" stop-color="#311C1F"/>
<stop offset="1" stop-color="#311C1F" stop-opacity="0"/>
</radialGradient>
<radialGradient id="paint11_radial_4002_3603" cx="0" cy="0" r="1" gradientUnits="userSpaceOnUse" gradientTransform="translate(22.9688 17.5665) rotate(-180) scale(13.25 14.629)">
<stop stop-color="#543732"/>
<stop offset="1" stop-color="#3B2728"/>
</radialGradient>
<radialGradient id="paint12_radial_4002_3603" cx="0" cy="0" r="1" gradientUnits="userSpaceOnUse" gradientTransform="translate(16.125 15.129) rotate(90) scale(14.76 14.0937)">
<stop offset="0.746044" stop-color="#40243E" stop-opacity="0"/>
<stop offset="1" stop-color="#40243E"/>
</radialGradient>
<radialGradient id="paint13_radial_4002_3603" cx="0" cy="0" r="1" gradientUnits="userSpaceOnUse" gradientTransform="translate(10.1682 28.6834) rotate(-43.6801) scale(6.9693 12.2652)">
<stop stop-color="#3B2133"/>
<stop offset="1" stop-color="#3B2133" stop-opacity="0"/>
</radialGradient>
<radialGradient id="paint14_radial_4002_3603" cx="0" cy="0" r="1" gradientUnits="userSpaceOnUse" gradientTransform="translate(17.3438 8.50403) rotate(26.565) scale(5.86968 3.94631)">
<stop offset="0.291825" stop-color="#29181B"/>
<stop offset="1" stop-color="#29181B" stop-opacity="0"/>
</radialGradient>
<radialGradient id="paint15_radial_4002_3603" cx="0" cy="0" r="1" gradientUnits="userSpaceOnUse" gradientTransform="translate(20.8163 16.4006) rotate(-90) scale(1.92982 2.72446)">
<stop offset="0.411765" stop-color="#45292B"/>
<stop offset="1" stop-color="#45292B" stop-opacity="0"/>
</radialGradient>
<radialGradient id="paint16_radial_4002_3603" cx="0" cy="0" r="1" gradientUnits="userSpaceOnUse" gradientTransform="translate(11.3488 16.4233) rotate(-90) scale(2.4066 3.39756)">
<stop offset="0.411765" stop-color="#361F26"/>
<stop offset="1" stop-color="#361F26" stop-opacity="0"/>
</radialGradient>
<radialGradient id="paint17_radial_4002_3603" cx="0" cy="0" r="1" gradientUnits="userSpaceOnUse" gradientTransform="translate(13.3728 8.3151) rotate(54.6783) scale(3.13938 1.54467)">
<stop stop-color="#1A090D"/>
<stop offset="1" stop-color="#1A090D" stop-opacity="0"/>
</radialGradient>
<linearGradient id="paint18_linear_4002_3603" x1="19.5222" y1="10.8381" x2="15.9804" y2="19.0569" gradientUnits="userSpaceOnUse">
<stop stop-color="#574647"/>
<stop offset="1" stop-color="#574647" stop-opacity="0"/>
</linearGradient>
<linearGradient id="paint19_linear_4002_3603" x1="13.7018" y1="24.1911" x2="14.5614" y2="22.77" gradientUnits="userSpaceOnUse">
<stop offset="0.301813" stop-color="#524343"/>
<stop offset="0.484468" stop-color="#524343" stop-opacity="0"/>
</linearGradient>
<linearGradient id="paint20_linear_4002_3603" x1="11.2186" y1="14.4531" x2="24.25" y2="7.51565" gradientUnits="userSpaceOnUse">
<stop stop-color="#251C1E"/>
<stop offset="1" stop-color="#261722"/>
</linearGradient>
<radialGradient id="paint21_radial_4002_3603" cx="0" cy="0" r="1" gradientUnits="userSpaceOnUse" gradientTransform="translate(11.5625 10.3125) rotate(-64.1398) scale(3.97631 0.962058)">
<stop stop-color="#3E333B"/>
<stop offset="1" stop-color="#2C242A" stop-opacity="0"/>
</radialGradient>
<radialGradient id="paint22_radial_4002_3603" cx="0" cy="0" r="1" gradientUnits="userSpaceOnUse" gradientTransform="translate(9.81249 3.07815) rotate(101.31) scale(1.59344 2.55409)">
<stop offset="0.253846" stop-color="#454243"/>
<stop offset="1" stop-color="#454243" stop-opacity="0"/>
</radialGradient>
<radialGradient id="paint23_radial_4002_3603" cx="0" cy="0" r="1" gradientUnits="userSpaceOnUse" gradientTransform="translate(6.87499 12.6407) rotate(-126.939) scale(10.4 4.68005)">
<stop offset="0.226227" stop-color="#423735"/>
<stop offset="1" stop-color="#423735" stop-opacity="0"/>
</radialGradient>
<radialGradient id="paint24_radial_4002_3603" cx="0" cy="0" r="1" gradientUnits="userSpaceOnUse" gradientTransform="translate(26.9062 5.51565) rotate(-152.7) scale(5.45086 1.22812)">
<stop stop-color="#4E4649"/>
<stop offset="1" stop-color="#4E4649" stop-opacity="0"/>
</radialGradient>
<radialGradient id="paint25_radial_4002_3603" cx="0" cy="0" r="1" gradientUnits="userSpaceOnUse" gradientTransform="translate(20.5625 4.4219) rotate(5.2739) scale(4.07977 1.24851)">
<stop stop-color="#433D3F"/>
<stop offset="1" stop-color="#433D3F" stop-opacity="0"/>
</radialGradient>
<radialGradient id="paint26_radial_4002_3603" cx="0" cy="0" r="1" gradientUnits="userSpaceOnUse" gradientTransform="translate(20.3147 16.9983) rotate(90) scale(1.80763 2.87524)">
<stop offset="0.80198" stop-color="#7F594C"/>
<stop offset="1" stop-color="#694B43"/>
<stop offset="1" stop-color="#804D49"/>
<stop offset="1" stop-color="#644844"/>
</radialGradient>
<radialGradient id="paint27_radial_4002_3603" cx="0" cy="0" r="1" gradientUnits="userSpaceOnUse" gradientTransform="translate(19.8062 17.1858) rotate(-127.812) scale(0.84283 1.16038)">
<stop offset="0.765532" stop-color="#FFE6E2" stop-opacity="0"/>
<stop offset="0.966159" stop-color="#FFE6E2"/>
</radialGradient>
<linearGradient id="paint28_linear_4002_3603" x1="22.048" y1="17.1184" x2="21.3489" y2="17.5491" gradientUnits="userSpaceOnUse">
<stop stop-color="#B4948D"/>
<stop offset="1" stop-color="#B4948D" stop-opacity="0"/>
</linearGradient>
<radialGradient id="paint29_radial_4002_3603" cx="0" cy="0" r="1" gradientUnits="userSpaceOnUse" gradientTransform="translate(11.6295 17.0038) rotate(90) scale(1.80073 2.86427)">
<stop offset="0.80198" stop-color="#7F594C"/>
<stop offset="1" stop-color="#694B43"/>
<stop offset="1" stop-color="#804D49"/>
<stop offset="1" stop-color="#644844"/>
</radialGradient>
<linearGradient id="paint30_linear_4002_3603" x1="13.2804" y1="17.1234" x2="12.5841" y2="17.5525" gradientUnits="userSpaceOnUse">
<stop stop-color="#B4948D"/>
<stop offset="1" stop-color="#B4948D" stop-opacity="0"/>
</linearGradient>
<radialGradient id="paint31_radial_4002_3603" cx="0" cy="0" r="1" gradientUnits="userSpaceOnUse" gradientTransform="translate(10.9939 17.4904) rotate(-90.897) scale(1.0967 1.31828)">
<stop offset="0.765532" stop-color="#FFE6E2" stop-opacity="0"/>
<stop offset="0.966159" stop-color="#FFE6E2"/>
</radialGradient>
<linearGradient id="paint32_linear_4002_3603" x1="15.7755" y1="17.6287" x2="15.3555" y2="22.3278" gradientUnits="userSpaceOnUse">
<stop stop-color="#352122"/>
<stop offset="1" stop-color="#341B29"/>
</linearGradient>
<radialGradient id="paint33_radial_4002_3603" cx="0" cy="0" r="1" gradientUnits="userSpaceOnUse" gradientTransform="translate(16.8125 17.7657) rotate(84.5771) scale(2.91216 1.02289)">
<stop stop-color="#634F4D"/>
<stop offset="1" stop-color="#634F4D" stop-opacity="0"/>
</radialGradient>
<radialGradient id="paint34_radial_4002_3603" cx="0" cy="0" r="1" gradientUnits="userSpaceOnUse" gradientTransform="translate(16.807 20.4718) rotate(180) scale(1.36842 0.368421)">
<stop stop-color="#634F4D"/>
<stop offset="1" stop-color="#634F4D" stop-opacity="0"/>
</radialGradient>
<linearGradient id="paint35_linear_4002_3603" x1="13.7368" y1="19.8928" x2="15.2456" y2="20.1735" gradientUnits="userSpaceOnUse">
<stop stop-color="#2F1B1A"/>
<stop offset="1" stop-color="#2F1B1A" stop-opacity="0"/>
</linearGradient>
<radialGradient id="paint36_radial_4002_3603" cx="0" cy="0" r="1" gradientUnits="userSpaceOnUse" gradientTransform="translate(16.1251 18.1406) rotate(90) scale(3.6875 6.12314)">
<stop offset="0.679757" stop-color="#3A1F2F" stop-opacity="0"/>
<stop offset="1" stop-color="#3A1F2F"/>
</radialGradient>
<linearGradient id="paint37_linear_4002_3603" x1="15.6094" y1="17.3281" x2="15.9672" y2="18.2969" gradientUnits="userSpaceOnUse">
<stop stop-color="#47302E"/>
<stop offset="1" stop-color="#47302E" stop-opacity="0"/>
</linearGradient>
<linearGradient id="paint38_linear_4002_3603" x1="12.2188" y1="6.26565" x2="15.1719" y2="10.0157" gradientUnits="userSpaceOnUse">
<stop stop-color="#403637"/>
<stop offset="1" stop-color="#403637" stop-opacity="0"/>
</linearGradient>
<radialGradient id="paint39_radial_4002_3603" cx="0" cy="0" r="1" gradientUnits="userSpaceOnUse" gradientTransform="translate(21.125 6.07815) rotate(66.7099) scale(5.13737 18.2387)">
<stop stop-color="#4D4749"/>
<stop offset="1" stop-color="#4D4749" stop-opacity="0"/>
</radialGradient>
<linearGradient id="paint40_linear_4002_3603" x1="27.1685" y1="16.969" x2="27.1672" y2="12.3921" gradientUnits="userSpaceOnUse">
<stop stop-color="#3B3639"/>
<stop offset="1" stop-color="#3B3639" stop-opacity="0"/>
</linearGradient>
<linearGradient id="paint41_linear_4002_3603" x1="0.353608" y1="3.57653" x2="0.350996" y2="-1.93478" gradientUnits="userSpaceOnUse">
<stop offset="0.384531" stop-color="#362C2A"/>
<stop offset="1" stop-color="#362C2A" stop-opacity="0"/>
</linearGradient>
</defs>
</svg>
