<svg xmlns="http://www.w3.org/2000/svg" width="32" height="32" fill="none"><path fill="#FFB02E" d="M15.999 29.998c9.334 0 13.999-6.268 13.999-14 0-7.73-4.665-13.998-14-13.998C6.665 2 2 8.268 2 15.999c0 7.731 4.664 13.999 13.999 13.999Z"/><path fill="#BB1D80" d="M16 25c-9 0-9-9-9-9h18s0 9-9 9Z"/><path fill="#fff" d="M8 16.5V16h16v.5a1 1 0 0 1-1 1H9a1 1 0 0 1-1-1Z"/><path fill="#F70A8D" d="M3.181 9.75c2.016 2.327 4.698 3.346 6.073 3.74.563.16 1.154-.001 1.57-.412 1.194-1.178 3.6-3.879 4.114-6.963.718-4.306-4.682-5.62-6.858-2.07C2.99 1.655.296 6.421 3.18 9.75ZM28.817 9.752c-2.015 2.325-4.695 3.344-6.07 3.737-.563.162-1.154 0-1.57-.411-1.194-1.177-3.598-3.877-4.112-6.96-.718-4.304 4.68-5.617 6.855-2.069 5.089-2.39 7.78 2.375 4.897 5.703Z"/></svg>