<svg xmlns="http://www.w3.org/2000/svg" width="32" height="32" fill="none"><path fill="#B4ACBC" d="M12 6h1v1h9c.55 0 1 .45 1 1s-.45 1-1 1h-9v1h-1V9H4c-.55 0-1-.45-1-1s.45-1 1-1h8V6Zm2 17.71.71-.71 5.5 5.5-.71.71-5.5-5.5Zm-6-.04H7v5.66h1v-5.66Z"/><path fill="#FFB02E" d="M28.06 7c-.25 0-.49.1-.67.28L23.67 11H10.5c-.83 0-1.5.67-1.5 1.5s.67 1.5 1.5 1.5H18v5l5-5h4.5c.83 0 1.5-.67 1.5-1.5V7.94c0-.51-.42-.94-.94-.94Z"/><path fill="#F8312F" d="M13 5.5c0-.28-.22-.5-.5-.5s-.5.22-.5.5V6h1v-.5Z"/><path fill="#FF822D" d="M2 29c0-.55.45-1 1-1h20c.55 0 1 .45 1 1s-.45 1-1 1H3c-.55 0-1-.44-1-1Z"/><path fill="#FCD53F" d="M13.41 10h-1.82c-.33 0-.59.27-.59.59V12h3v-1.41c0-.32-.27-.59-.59-.59Z"/><path fill="#FF822D" d="M27.39 7.28c.18-.18.42-.28.67-.28.52 0 .94.43.94.94v4.56c0 .83-.67 1.5-1.5 1.5H23l-3.063 3.063c.042.306.063.62.063.937 0 3.87-3.142 7-7.027 7H8.957A7.024 7.024 0 0 1 2 19l4.598-2.91.402-4.8A6.617 6.617 0 0 1 8.957 11H23.67l3.72-3.72Z"/><path fill="#E6E6E6" d="M27 13a1 1 0 1 0 0-2 1 1 0 0 0 0 2Z"/><path fill="#00A6ED" d="M2.07 19A7.005 7.005 0 0 1 7 11.29l4.16 6.42a.835.835 0 0 1-.7 1.29H2.07Zm10.4-2.36-2.18-3.35c-.36-.55.04-1.29.7-1.28h2.18c.46 0 .83.37.83.83v3.35c0 .83-1.08 1.15-1.53.45Z"/><path fill="#FCD53F" d="M2.607 21c.36.75.845 1.43 1.425 2H17.89a6.8 6.8 0 0 0 1.438-2H2.607Z"/></svg>