<svg width="32" height="32" viewBox="0 0 32 32" fill="none" xmlns="http://www.w3.org/2000/svg">
<path d="M22.2304 2.43035C18.7518 0.423507 14.3034 1.61622 12.2963 5.09469L10.976 7.37521C9.19074 10.4696 9.93738 14.3315 12.5727 16.5596L6.16559 27.65C5.83559 28.24 6.03557 28.98 6.61557 29.32C7.19557 29.65 7.94558 29.45 8.28558 28.87L14.6783 17.8045C17.9602 19.0632 21.7629 17.7855 23.5752 14.6448L24.8947 12.3658L24.8961 12.3632C26.8913 8.88561 25.6995 4.43821 22.2313 2.43087L22.2304 2.43035ZM21.1596 3.55738L20.1286 5.31455L17.9343 4.04733L18.575 2.95633C19.4483 2.95234 20.3326 3.14657 21.1596 3.55738ZM17.7564 3.01836L17.3501 3.71001L16.6384 3.299C17.0007 3.16869 17.3753 3.07461 17.7564 3.01836ZM15.8755 3.6373L17.0085 4.29164L15.7603 6.41689L13.9145 5.35054C14.442 4.61808 15.1175 4.04115 15.8755 3.6373ZM13.5517 5.91992L15.4187 6.99852L14.1663 9.13106L12.3118 8.06155L13.5517 5.91992ZM12.0016 8.66123L13.8247 9.71269L12.5745 11.8414L11.5063 11.225C11.4734 10.3642 11.6325 9.48756 12.0016 8.66123ZM11.5987 12.057L12.2329 12.423L11.8711 13.0389C11.7517 12.7203 11.6606 12.3916 11.5987 12.057ZM12.2139 13.7872L12.8171 12.7601L15.0157 14.0288L13.9982 15.7629C13.236 15.2386 12.635 14.5567 12.2139 13.7872ZM14.5751 16.1126L15.5999 14.3659L17.7984 15.6345L17.1241 16.7819C16.2588 16.76 15.387 16.5428 14.5751 16.1126ZM17.9274 16.7462L18.3826 15.9716L19.21 16.4491C18.7956 16.5963 18.3651 16.6961 17.9274 16.7462ZM19.9767 16.1128L18.7243 15.3901L19.9759 13.2603L21.9499 14.3988C21.419 15.1329 20.7392 15.7102 19.9767 16.1128ZM22.3137 13.83L20.3177 12.6788L21.5681 10.551L23.5494 11.6957L22.3137 13.83ZM23.8601 11.0962L21.9098 9.96951L23.1591 7.84356L24.359 8.53651C24.3896 9.39641 24.2292 10.2716 23.8601 11.0962ZM24.2695 7.70588L23.5009 7.26202L23.9279 6.53534C24.0824 6.91251 24.1968 7.30505 24.2695 7.70588ZM23.5709 5.81152L22.9167 6.9247L20.7127 5.65187L21.7451 3.89221C22.5169 4.39565 23.1317 5.05819 23.5709 5.81152ZM19.3916 12.9233L18.1401 15.053L15.9412 13.7841L17.191 11.6541L19.3916 12.9233ZM16.6067 11.3172L15.357 13.447L13.1587 12.1785L14.409 10.0497L16.6067 11.3172ZM14.7506 9.46805L16.0028 7.33593L18.1984 8.60433L16.948 10.7354L14.7506 9.46805ZM17.5323 11.0724L18.7824 8.94175L20.984 10.2136L19.7334 12.3418L17.5323 11.0724ZM22.575 7.50624L21.3257 9.63209L19.1238 8.35998L20.3714 6.23364L22.575 7.50624ZM19.7872 5.89632L18.5397 8.02256L16.3444 6.75431L17.5927 4.62896L19.7872 5.89632Z" fill="#212121"/>
<path d="M21.5056 23.94C21.8156 23.39 21.4956 22.69 20.8756 22.57L17.88 21.97L17.8737 21.9734L17.8756 21.97L17.3656 21.69C16.5356 21.23 15.4856 21.52 15.0256 22.35C14.5656 23.17 14.8556 24.22 15.6856 24.68L16.1956 24.96L16.1983 24.9551L16.2 24.96L18.2656 27.22C18.6956 27.69 19.4556 27.6 19.7656 27.05C19.996 26.6352 19.8781 26.1185 19.498 25.8365C19.9059 26.0469 20.4079 25.896 20.6356 25.5C20.8656 25.09 20.7156 24.58 20.3156 24.35L20.2024 24.2865L20.2356 24.3C20.6856 24.55 21.2556 24.39 21.5056 23.94Z" fill="#212121"/>
</svg>
