<svg xmlns="http://www.w3.org/2000/svg" width="32" height="32" fill="none"><path fill="#8D65C5" d="M2 6a4 4 0 0 1 4-4h20a4 4 0 0 1 4 4v20a4 4 0 0 1-4 4H6a4 4 0 0 1-4-4V6Z"/><path fill="#fff" d="M22.76 5.5c-1.01 0-1.99.36-2.75 1.02-.77.65-1.27 1.56-1.43 2.56l-2.41 15.28c-.01.08-.08.14-.17.14-.08 0-.16-.06-.17-.14L13.42 9.07c-.16-1-.67-1.9-1.43-2.56A4.242 4.242 0 0 0 5 9.74c0 .55.45 1 1 1s1-.45 1-1C7 8.5 8 7.5 9.24 7.5c1.11 0 2.04.79 2.21 1.89l2.41 15.28A2.161 2.161 0 0 0 16 26.5c1.07 0 1.98-.77 2.14-1.83l2.41-15.28c.17-1.09 1.1-1.89 2.21-1.89C24 7.5 25 8.5 25 9.74c0 .55.45 1 1 1s1-.45 1-1c0-2.34-1.9-4.24-4.24-4.24Z"/></svg>