<svg width="32" height="32" viewBox="0 0 32 32" fill="none" xmlns="http://www.w3.org/2000/svg">
<circle cx="15.9995" cy="15.9656" r="13.9995" fill="url(#paint0_radial_18_14713)"/>
<circle cx="15.9995" cy="15.9656" r="13.9995" fill="url(#paint1_radial_18_14713)"/>
<circle cx="15.9995" cy="15.9656" r="13.9995" fill="url(#paint2_radial_18_14713)"/>
<circle cx="15.9995" cy="15.9656" r="13.9995" fill="url(#paint3_radial_18_14713)"/>
<circle cx="15.9995" cy="15.9656" r="13.9995" fill="url(#paint4_radial_18_14713)"/>
<circle cx="15.9995" cy="15.9656" r="13.9995" fill="url(#paint5_radial_18_14713)"/>
<circle cx="15.9995" cy="15.9656" r="13.9995" fill="url(#paint6_radial_18_14713)"/>
<g filter="url(#filter0_f_18_14713)">
<path d="M29.6997 17.0343C29.5647 17.0118 29.426 17 29.2846 17C27.9056 17 26.7877 18.1179 26.7877 19.4969C26.7877 20.6066 27.5117 21.5473 28.5131 21.8723" stroke="url(#paint7_linear_18_14713)" stroke-width="0.2"/>
</g>
<path d="M29.9545 17.0909C29.8181 18.8057 29.3727 20.4335 28.6739 21.9186C27.5901 21.6461 26.7877 20.6652 26.7877 19.4969C26.7877 18.1179 27.9056 17 29.2846 17C29.5166 17 29.7413 17.0317 29.9545 17.0909Z" fill="url(#paint8_radial_18_14713)"/>
<path d="M29.9545 17.0909C29.8181 18.8057 29.3727 20.4335 28.6739 21.9186C27.5901 21.6461 26.7877 20.6652 26.7877 19.4969C26.7877 18.1179 27.9056 17 29.2846 17C29.5166 17 29.7413 17.0317 29.9545 17.0909Z" fill="url(#paint9_radial_18_14713)"/>
<path d="M29.9545 17.0909C29.8181 18.8057 29.3727 20.4335 28.6739 21.9186C27.5901 21.6461 26.7877 20.6652 26.7877 19.4969C26.7877 18.1179 27.9056 17 29.2846 17C29.5166 17 29.7413 17.0317 29.9545 17.0909Z" fill="url(#paint10_radial_18_14713)"/>
<g filter="url(#filter1_f_18_14713)">
<path d="M19.7806 29.0918C19.5906 28.6498 19.4854 28.1628 19.4854 27.6512C19.4854 25.6347 21.12 24 23.1365 24C24.2889 24 25.3166 24.5339 25.9857 25.3677" stroke="url(#paint11_linear_18_14713)" stroke-width="0.2"/>
</g>
<path d="M26.1571 25.5994C24.4773 27.37 22.3394 28.7017 19.9333 29.4048C19.6477 28.8844 19.4854 28.2867 19.4854 27.6512C19.4854 25.6347 21.12 24 23.1365 24C24.3923 24 25.5001 24.634 26.1571 25.5994Z" fill="url(#paint12_radial_18_14713)"/>
<path d="M26.1571 25.5994C24.4773 27.37 22.3394 28.7017 19.9333 29.4048C19.6477 28.8844 19.4854 28.2867 19.4854 27.6512C19.4854 25.6347 21.12 24 23.1365 24C24.3923 24 25.5001 24.634 26.1571 25.5994Z" fill="url(#paint13_radial_18_14713)"/>
<path d="M26.1571 25.5994C24.4773 27.37 22.3394 28.7017 19.9333 29.4048C19.6477 28.8844 19.4854 28.2867 19.4854 27.6512C19.4854 25.6347 21.12 24 23.1365 24C24.3923 24 25.5001 24.634 26.1571 25.5994Z" fill="url(#paint14_radial_18_14713)"/>
<path d="M26.1571 25.5994C24.4773 27.37 22.3394 28.7017 19.9333 29.4048C19.6477 28.8844 19.4854 28.2867 19.4854 27.6512C19.4854 25.6347 21.12 24 23.1365 24C24.3923 24 25.5001 24.634 26.1571 25.5994Z" fill="url(#paint15_radial_18_14713)"/>
<g filter="url(#filter2_f_18_14713)">
<path d="M14.7894 22.615C15.8399 23.4374 16.1262 24.8262 15.4289 25.7167C14.7316 26.6073 13.3148 26.6625 12.2643 25.84C11.2138 25.0175 10.9275 23.6288 11.6248 22.7382C12.3221 21.8477 13.7389 21.7925 14.7894 22.615Z" stroke="url(#paint16_linear_18_14713)" stroke-width="0.2"/>
</g>
<path d="M14.7894 22.615C15.8399 23.4374 16.1262 24.8262 15.4289 25.7167C14.7316 26.6073 13.3148 26.6625 12.2643 25.84C11.2138 25.0175 10.9275 23.6288 11.6248 22.7382C12.3221 21.8477 13.7389 21.7925 14.7894 22.615Z" fill="url(#paint17_radial_18_14713)"/>
<path d="M14.7894 22.615C15.8399 23.4374 16.1262 24.8262 15.4289 25.7167C14.7316 26.6073 13.3148 26.6625 12.2643 25.84C11.2138 25.0175 10.9275 23.6288 11.6248 22.7382C12.3221 21.8477 13.7389 21.7925 14.7894 22.615Z" fill="url(#paint18_radial_18_14713)"/>
<path d="M14.7894 22.615C15.8399 23.4374 16.1262 24.8262 15.4289 25.7167C14.7316 26.6073 13.3148 26.6625 12.2643 25.84C11.2138 25.0175 10.9275 23.6288 11.6248 22.7382C12.3221 21.8477 13.7389 21.7925 14.7894 22.615Z" fill="url(#paint19_radial_18_14713)"/>
<path d="M14.7894 22.615C15.8399 23.4374 16.1262 24.8262 15.4289 25.7167C14.7316 26.6073 13.3148 26.6625 12.2643 25.84C11.2138 25.0175 10.9275 23.6288 11.6248 22.7382C12.3221 21.8477 13.7389 21.7925 14.7894 22.615Z" fill="url(#paint20_radial_18_14713)"/>
<g filter="url(#filter3_f_18_14713)">
<path d="M2.31482 15.0943C2.5809 15.0326 2.85813 15 3.14297 15C5.15947 15 6.79416 16.6347 6.79416 18.6512C6.79416 20.4562 5.48439 21.9553 3.76342 22.2499" stroke="url(#paint21_linear_18_14713)" stroke-width="0.2"/>
</g>
<path d="M2.02193 15.1753C2.37516 15.0615 2.7519 15 3.14301 15C5.1595 15 6.79419 16.6347 6.79419 18.6512C6.79419 20.5459 5.35102 22.1035 3.50396 22.2848C2.54205 20.3864 2 18.2393 2 15.9656C2 15.7004 2.00737 15.4369 2.02193 15.1753Z" fill="url(#paint22_radial_18_14713)"/>
<path d="M2.02193 15.1753C2.37516 15.0615 2.7519 15 3.14301 15C5.1595 15 6.79419 16.6347 6.79419 18.6512C6.79419 20.5459 5.35102 22.1035 3.50396 22.2848C2.54205 20.3864 2 18.2393 2 15.9656C2 15.7004 2.00737 15.4369 2.02193 15.1753Z" fill="url(#paint23_radial_18_14713)"/>
<path d="M2.02193 15.1753C2.37516 15.0615 2.7519 15 3.14301 15C5.1595 15 6.79419 16.6347 6.79419 18.6512C6.79419 20.5459 5.35102 22.1035 3.50396 22.2848C2.54205 20.3864 2 18.2393 2 15.9656C2 15.7004 2.00737 15.4369 2.02193 15.1753Z" fill="url(#paint24_radial_18_14713)"/>
<g filter="url(#filter4_f_18_14713)">
<path d="M15.4925 8.00012C16.8715 8.00012 17.9894 6.88223 17.9894 5.50323C17.9894 4.12424 16.8715 3.00635 15.4925 3.00635C14.1135 3.00635 12.9956 4.12424 12.9956 5.50323C12.9956 6.88223 14.1135 8.00012 15.4925 8.00012Z" stroke="url(#paint25_linear_18_14713)" stroke-width="0.3"/>
</g>
<path d="M15.4925 8.00012C16.8715 8.00012 17.9894 6.88223 17.9894 5.50323C17.9894 4.12424 16.8715 3.00635 15.4925 3.00635C14.1135 3.00635 12.9956 4.12424 12.9956 5.50323C12.9956 6.88223 14.1135 8.00012 15.4925 8.00012Z" fill="url(#paint26_linear_18_14713)"/>
<path d="M15.4925 8.00012C16.8715 8.00012 17.9894 6.88223 17.9894 5.50323C17.9894 4.12424 16.8715 3.00635 15.4925 3.00635C14.1135 3.00635 12.9956 4.12424 12.9956 5.50323C12.9956 6.88223 14.1135 8.00012 15.4925 8.00012Z" fill="url(#paint27_radial_18_14713)"/>
<path d="M15.4925 8.00012C16.8715 8.00012 17.9894 6.88223 17.9894 5.50323C17.9894 4.12424 16.8715 3.00635 15.4925 3.00635C14.1135 3.00635 12.9956 4.12424 12.9956 5.50323C12.9956 6.88223 14.1135 8.00012 15.4925 8.00012Z" fill="url(#paint28_radial_18_14713)"/>
<g filter="url(#filter5_f_18_14713)">
<path fill-rule="evenodd" clip-rule="evenodd" d="M10.4347 8.35156C9.06976 8.35156 7.95471 9.4588 7.95471 10.8316C7.95471 11.1077 7.73085 11.3316 7.45471 11.3316C7.17857 11.3316 6.95471 11.1077 6.95471 10.8316C6.95471 8.90433 8.51966 7.35156 10.4347 7.35156C10.7109 7.35156 10.9347 7.57542 10.9347 7.85156C10.9347 8.1277 10.7109 8.35156 10.4347 8.35156Z" fill="#AA7E32"/>
</g>
<g filter="url(#filter6_i_18_14713)">
<path fill-rule="evenodd" clip-rule="evenodd" d="M10.6699 8.04004C9.30499 8.04004 8.18994 9.14727 8.18994 10.52C8.18994 10.7962 7.96608 11.02 7.68994 11.02C7.4138 11.02 7.18994 10.7962 7.18994 10.52C7.18994 8.59281 8.75489 7.04004 10.6699 7.04004C10.9461 7.04004 11.1699 7.2639 11.1699 7.54004C11.1699 7.81618 10.9461 8.04004 10.6699 8.04004Z" fill="#443452"/>
</g>
<g filter="url(#filter7_f_18_14713)">
<path fill-rule="evenodd" clip-rule="evenodd" d="M20.822 7.78078C20.822 7.58135 20.9837 7.41968 21.1831 7.41968C22.5662 7.41968 23.9375 8.93848 23.9375 10.3303C23.9375 10.5297 23.7758 10.6914 23.5764 10.6914C23.377 10.6914 23.2153 10.5297 23.2153 10.3303C23.2153 9.33891 22.1689 8.14187 21.1831 8.14187C20.9837 8.14187 20.822 7.98021 20.822 7.78078Z" fill="#885F1F"/>
<path d="M21.1831 7.21968C20.8732 7.21968 20.622 7.47089 20.622 7.78078C20.622 8.09066 20.8732 8.34187 21.1831 8.34187C21.5989 8.34187 22.0573 8.599 22.4209 8.99887C22.7835 9.39764 23.0153 9.89892 23.0153 10.3303C23.0153 10.6402 23.2665 10.8914 23.5764 10.8914C23.8863 10.8914 24.1375 10.6402 24.1375 10.3303C24.1375 9.57216 23.7666 8.79793 23.2253 8.21674C22.6844 7.636 21.9463 7.21968 21.1831 7.21968Z" stroke="#E9B15A" stroke-width="0.4" stroke-miterlimit="10" stroke-linecap="round" stroke-linejoin="round"/>
</g>
<g filter="url(#filter8_i_18_14713)">
<path fill-rule="evenodd" clip-rule="evenodd" d="M20.55 7.54004C20.55 7.2639 20.7739 7.04004 21.05 7.04004C22.9651 7.04004 24.5301 8.59281 24.5301 10.52C24.5301 10.7962 24.3062 11.02 24.0301 11.02C23.7539 11.02 23.5301 10.7962 23.5301 10.52C23.5301 9.14727 22.415 8.04004 21.05 8.04004C20.7739 8.04004 20.55 7.81618 20.55 7.54004Z" fill="#443452"/>
</g>
<g filter="url(#filter9_f_18_14713)">
<path fill-rule="evenodd" clip-rule="evenodd" d="M11.2237 11.8325C10.6366 11.8325 10.1408 12.1895 9.94184 12.6965C9.79053 13.0821 9.35529 13.272 8.9697 13.1207C8.58412 12.9694 8.39419 12.5341 8.5455 12.1486C8.96654 11.0756 10.0107 10.3325 11.2237 10.3325C12.496 10.3325 13.5774 11.1585 13.956 12.3079C14.0856 12.7013 13.8717 13.1253 13.4783 13.2549C13.0849 13.3845 12.6609 13.1706 12.5313 12.7772C12.3499 12.2266 11.8314 11.8325 11.2237 11.8325Z" fill="url(#paint29_linear_18_14713)"/>
</g>
<g filter="url(#filter10_f_18_14713)">
<path fill-rule="evenodd" clip-rule="evenodd" d="M19.9653 11.8325C19.3783 11.8325 18.8824 12.1895 18.6835 12.6965C18.5322 13.0821 18.0969 13.272 17.7113 13.1207C17.3258 12.9694 17.1358 12.5341 17.2871 12.1486C17.7082 11.0756 18.7524 10.3325 19.9653 10.3325C21.2376 10.3325 22.319 11.1585 22.6977 12.3079C22.8273 12.7013 22.6134 13.1253 22.22 13.2549C21.8265 13.3845 21.4026 13.1706 21.273 12.7772C21.0916 12.2266 20.573 11.8325 19.9653 11.8325Z" fill="url(#paint30_linear_18_14713)"/>
</g>
<path fill-rule="evenodd" clip-rule="evenodd" d="M11.5899 11.52C11.0029 11.52 10.5071 11.877 10.3081 12.384C10.1568 12.7696 9.72157 12.9595 9.33598 12.8082C8.95039 12.6569 8.76046 12.2216 8.91177 11.8361C9.33281 10.7631 10.377 10.02 11.5899 10.02C12.8622 10.02 13.9437 10.846 14.3223 11.9954C14.4519 12.3888 14.238 12.8128 13.8446 12.9424C13.4512 13.072 13.0272 12.8581 12.8976 12.4647C12.7162 11.9141 12.1976 11.52 11.5899 11.52Z" fill="url(#paint31_radial_18_14713)"/>
<path fill-rule="evenodd" clip-rule="evenodd" d="M20.2099 11.52C19.6229 11.52 19.1271 11.877 18.9281 12.384C18.7768 12.7696 18.3416 12.9595 17.956 12.8082C17.5704 12.6569 17.3805 12.2216 17.5318 11.8361C17.9528 10.7631 18.997 10.02 20.2099 10.02C21.4822 10.02 22.5637 10.846 22.9423 11.9954C23.0719 12.3888 22.858 12.8128 22.4646 12.9424C22.0712 13.072 21.6472 12.8581 21.5176 12.4647C21.3362 11.9141 20.8176 11.52 20.2099 11.52Z" fill="url(#paint32_radial_18_14713)"/>
<g filter="url(#filter11_f_18_14713)">
<path fill-rule="evenodd" clip-rule="evenodd" d="M10.3997 16.8923C10.6926 16.5994 11.1675 16.5994 11.4604 16.8923C13.6175 19.0494 17.1126 19.0494 19.2697 16.8923C19.5626 16.5994 20.0375 16.5994 20.3304 16.8923C20.6233 17.1852 20.6233 17.66 20.3304 17.9529C17.5875 20.6958 13.1426 20.6958 10.3997 17.9529C10.1068 17.66 10.1068 17.1852 10.3997 16.8923Z" fill="url(#paint33_linear_18_14713)"/>
</g>
<path fill-rule="evenodd" clip-rule="evenodd" d="M10.9096 16.5798C11.2025 16.2869 11.6774 16.2869 11.9703 16.5798C14.1274 18.7369 17.6225 18.7369 19.7796 16.5798C20.0725 16.2869 20.5474 16.2869 20.8403 16.5798C21.1332 16.8727 21.1332 17.3475 20.8403 17.6404C18.0974 20.3833 13.6525 20.3833 10.9096 17.6404C10.6167 17.3475 10.6167 16.8727 10.9096 16.5798Z" fill="url(#paint34_linear_18_14713)"/>
<g filter="url(#filter12_f_18_14713)">
<path d="M9.5614 12.0878C9.66083 11.7018 10.1299 10.8703 11.2105 10.6317C12.5614 10.3334 13.5439 11.2807 13.8421 12.0878" stroke="url(#paint35_linear_18_14713)" stroke-width="0.5" stroke-linecap="round"/>
<path d="M9.5614 12.0878C9.66083 11.7018 10.1299 10.8703 11.2105 10.6317C12.5614 10.3334 13.5439 11.2807 13.8421 12.0878" stroke="url(#paint36_linear_18_14713)" stroke-width="0.5" stroke-linecap="round"/>
</g>
<g filter="url(#filter13_f_18_14713)">
<path d="M18.1046 12.1205C18.2657 11.6519 18.8722 10.6488 20.0156 10.6488C21.6121 10.6488 22.344 11.616 22.344 12.2303" stroke="url(#paint37_linear_18_14713)" stroke-width="0.5" stroke-linecap="round"/>
<path d="M18.1046 12.1205C18.2657 11.6519 18.8722 10.6488 20.0156 10.6488C21.6121 10.6488 22.344 11.616 22.344 12.2303" stroke="url(#paint38_linear_18_14713)" stroke-width="0.5" stroke-linecap="round"/>
</g>
<g filter="url(#filter14_f_18_14713)">
<path d="M11.6339 17.2495C12.2384 17.8749 13.6512 18.8725 15.9257 18.8725C18.2003 18.8725 19.9095 17.7706 20.3056 17.2495" stroke="url(#paint39_linear_18_14713)" stroke-width="0.5" stroke-linecap="round"/>
</g>
<g filter="url(#filter15_f_18_14713)">
<path d="M21.1567 7.50049C22.2869 7.50049 23.995 8.10383 24.1054 10.5172" stroke="url(#paint40_linear_18_14713)" stroke-width="0.25" stroke-linecap="round"/>
<path d="M21.1567 7.50049C22.2869 7.50049 23.995 8.10383 24.1054 10.5172" stroke="url(#paint41_linear_18_14713)" stroke-width="0.25" stroke-linecap="round"/>
</g>
<g filter="url(#filter16_f_18_14713)">
<path d="M10.6899 7.50049C9.55975 7.50049 7.85171 8.10383 7.74123 10.5172" stroke="url(#paint42_linear_18_14713)" stroke-width="0.25" stroke-linecap="round"/>
<path d="M10.6899 7.50049C9.55975 7.50049 7.85171 8.10383 7.74123 10.5172" stroke="url(#paint43_linear_18_14713)" stroke-width="0.25" stroke-linecap="round"/>
</g>
<defs>
<filter id="filter0_f_18_14713" x="26.4877" y="16.7" width="3.42844" height="5.46738" filterUnits="userSpaceOnUse" color-interpolation-filters="sRGB">
<feFlood flood-opacity="0" result="BackgroundImageFix"/>
<feBlend mode="normal" in="SourceGraphic" in2="BackgroundImageFix" result="shape"/>
<feGaussianBlur stdDeviation="0.1" result="effect1_foregroundBlur_18_14713"/>
</filter>
<filter id="filter1_f_18_14713" x="19.1854" y="23.7" width="7.07834" height="5.63132" filterUnits="userSpaceOnUse" color-interpolation-filters="sRGB">
<feFlood flood-opacity="0" result="BackgroundImageFix"/>
<feBlend mode="normal" in="SourceGraphic" in2="BackgroundImageFix" result="shape"/>
<feGaussianBlur stdDeviation="0.1" result="effect1_foregroundBlur_18_14713"/>
</filter>
<filter id="filter2_f_18_14713" x="10.8432" y="21.6326" width="5.36727" height="5.18984" filterUnits="userSpaceOnUse" color-interpolation-filters="sRGB">
<feFlood flood-opacity="0" result="BackgroundImageFix"/>
<feBlend mode="normal" in="SourceGraphic" in2="BackgroundImageFix" result="shape"/>
<feGaussianBlur stdDeviation="0.15" result="effect1_foregroundBlur_18_14713"/>
</filter>
<filter id="filter3_f_18_14713" x="1.99224" y="14.6" width="5.20193" height="8.04836" filterUnits="userSpaceOnUse" color-interpolation-filters="sRGB">
<feFlood flood-opacity="0" result="BackgroundImageFix"/>
<feBlend mode="normal" in="SourceGraphic" in2="BackgroundImageFix" result="shape"/>
<feGaussianBlur stdDeviation="0.15" result="effect1_foregroundBlur_18_14713"/>
</filter>
<filter id="filter4_f_18_14713" x="12.5456" y="2.55632" width="5.89382" height="5.89382" filterUnits="userSpaceOnUse" color-interpolation-filters="sRGB">
<feFlood flood-opacity="0" result="BackgroundImageFix"/>
<feBlend mode="normal" in="SourceGraphic" in2="BackgroundImageFix" result="shape"/>
<feGaussianBlur stdDeviation="0.15" result="effect1_foregroundBlur_18_14713"/>
</filter>
<filter id="filter5_f_18_14713" x="5.95471" y="6.35156" width="5.97998" height="5.97998" filterUnits="userSpaceOnUse" color-interpolation-filters="sRGB">
<feFlood flood-opacity="0" result="BackgroundImageFix"/>
<feBlend mode="normal" in="SourceGraphic" in2="BackgroundImageFix" result="shape"/>
<feGaussianBlur stdDeviation="0.5" result="effect1_foregroundBlur_18_14713"/>
</filter>
<filter id="filter6_i_18_14713" x="7.18994" y="6.89004" width="4.12998" height="4.12998" filterUnits="userSpaceOnUse" color-interpolation-filters="sRGB">
<feFlood flood-opacity="0" result="BackgroundImageFix"/>
<feBlend mode="normal" in="SourceGraphic" in2="BackgroundImageFix" result="shape"/>
<feColorMatrix in="SourceAlpha" type="matrix" values="0 0 0 0 0 0 0 0 0 0 0 0 0 0 0 0 0 0 127 0" result="hardAlpha"/>
<feOffset dx="0.15" dy="-0.15"/>
<feGaussianBlur stdDeviation="0.15"/>
<feComposite in2="hardAlpha" operator="arithmetic" k2="-1" k3="1"/>
<feColorMatrix type="matrix" values="0 0 0 0 0.27451 0 0 0 0 0.203922 0 0 0 0 0.160784 0 0 0 1 0"/>
<feBlend mode="normal" in2="shape" result="effect1_innerShadow_18_14713"/>
</filter>
<filter id="filter7_f_18_14713" x="19.922" y="6.51965" width="4.91553" height="5.07178" filterUnits="userSpaceOnUse" color-interpolation-filters="sRGB">
<feFlood flood-opacity="0" result="BackgroundImageFix"/>
<feBlend mode="normal" in="SourceGraphic" in2="BackgroundImageFix" result="shape"/>
<feGaussianBlur stdDeviation="0.25" result="effect1_foregroundBlur_18_14713"/>
</filter>
<filter id="filter8_i_18_14713" x="20.55" y="6.89004" width="4.12998" height="4.12998" filterUnits="userSpaceOnUse" color-interpolation-filters="sRGB">
<feFlood flood-opacity="0" result="BackgroundImageFix"/>
<feBlend mode="normal" in="SourceGraphic" in2="BackgroundImageFix" result="shape"/>
<feColorMatrix in="SourceAlpha" type="matrix" values="0 0 0 0 0 0 0 0 0 0 0 0 0 0 0 0 0 0 127 0" result="hardAlpha"/>
<feOffset dx="0.15" dy="-0.15"/>
<feGaussianBlur stdDeviation="0.15"/>
<feComposite in2="hardAlpha" operator="arithmetic" k2="-1" k3="1"/>
<feColorMatrix type="matrix" values="0 0 0 0 0.27451 0 0 0 0 0.203922 0 0 0 0 0.160784 0 0 0 1 0"/>
<feBlend mode="normal" in2="shape" result="effect1_innerShadow_18_14713"/>
</filter>
<filter id="filter9_f_18_14713" x="8.09347" y="9.93252" width="6.30043" height="3.76021" filterUnits="userSpaceOnUse" color-interpolation-filters="sRGB">
<feFlood flood-opacity="0" result="BackgroundImageFix"/>
<feBlend mode="normal" in="SourceGraphic" in2="BackgroundImageFix" result="shape"/>
<feGaussianBlur stdDeviation="0.2" result="effect1_foregroundBlur_18_14713"/>
</filter>
<filter id="filter10_f_18_14713" x="16.8351" y="9.93252" width="6.30043" height="3.76021" filterUnits="userSpaceOnUse" color-interpolation-filters="sRGB">
<feFlood flood-opacity="0" result="BackgroundImageFix"/>
<feBlend mode="normal" in="SourceGraphic" in2="BackgroundImageFix" result="shape"/>
<feGaussianBlur stdDeviation="0.2" result="effect1_foregroundBlur_18_14713"/>
</filter>
<filter id="filter11_f_18_14713" x="9.18005" y="15.6726" width="12.37" height="5.33752" filterUnits="userSpaceOnUse" color-interpolation-filters="sRGB">
<feFlood flood-opacity="0" result="BackgroundImageFix"/>
<feBlend mode="normal" in="SourceGraphic" in2="BackgroundImageFix" result="shape"/>
<feGaussianBlur stdDeviation="0.5" result="effect1_foregroundBlur_18_14713"/>
</filter>
<filter id="filter12_f_18_14713" x="8.81134" y="9.82483" width="5.78082" height="3.01306" filterUnits="userSpaceOnUse" color-interpolation-filters="sRGB">
<feFlood flood-opacity="0" result="BackgroundImageFix"/>
<feBlend mode="normal" in="SourceGraphic" in2="BackgroundImageFix" result="shape"/>
<feGaussianBlur stdDeviation="0.25" result="effect1_foregroundBlur_18_14713"/>
</filter>
<filter id="filter13_f_18_14713" x="17.3546" y="9.8988" width="5.73944" height="3.08154" filterUnits="userSpaceOnUse" color-interpolation-filters="sRGB">
<feFlood flood-opacity="0" result="BackgroundImageFix"/>
<feBlend mode="normal" in="SourceGraphic" in2="BackgroundImageFix" result="shape"/>
<feGaussianBlur stdDeviation="0.25" result="effect1_foregroundBlur_18_14713"/>
</filter>
<filter id="filter14_f_18_14713" x="10.8839" y="16.4995" width="10.1717" height="3.12292" filterUnits="userSpaceOnUse" color-interpolation-filters="sRGB">
<feFlood flood-opacity="0" result="BackgroundImageFix"/>
<feBlend mode="normal" in="SourceGraphic" in2="BackgroundImageFix" result="shape"/>
<feGaussianBlur stdDeviation="0.25" result="effect1_foregroundBlur_18_14713"/>
</filter>
<filter id="filter15_f_18_14713" x="20.7817" y="7.12549" width="3.69873" height="3.76672" filterUnits="userSpaceOnUse" color-interpolation-filters="sRGB">
<feFlood flood-opacity="0" result="BackgroundImageFix"/>
<feBlend mode="normal" in="SourceGraphic" in2="BackgroundImageFix" result="shape"/>
<feGaussianBlur stdDeviation="0.125" result="effect1_foregroundBlur_18_14713"/>
</filter>
<filter id="filter16_f_18_14713" x="7.36621" y="7.12549" width="3.69873" height="3.76672" filterUnits="userSpaceOnUse" color-interpolation-filters="sRGB">
<feFlood flood-opacity="0" result="BackgroundImageFix"/>
<feBlend mode="normal" in="SourceGraphic" in2="BackgroundImageFix" result="shape"/>
<feGaussianBlur stdDeviation="0.125" result="effect1_foregroundBlur_18_14713"/>
</filter>
<radialGradient id="paint0_radial_18_14713" cx="0" cy="0" r="1" gradientUnits="userSpaceOnUse" gradientTransform="translate(24.6218 9.55315) rotate(135.952) scale(21.858 24.4467)">
<stop stop-color="#FFF6A6"/>
<stop offset="0.870037" stop-color="#F6B246"/>
</radialGradient>
<radialGradient id="paint1_radial_18_14713" cx="0" cy="0" r="1" gradientUnits="userSpaceOnUse" gradientTransform="translate(23.5312 19.6021) rotate(-155.287) scale(22.8347 27.1137)">
<stop offset="0.683178" stop-color="#BA9D76" stop-opacity="0"/>
<stop offset="1" stop-color="#BA9D76"/>
</radialGradient>
<radialGradient id="paint2_radial_18_14713" cx="0" cy="0" r="1" gradientUnits="userSpaceOnUse" gradientTransform="translate(8.68089 27.8523) rotate(-54.4053) scale(13.7694 26.2166)">
<stop stop-color="#CA7044"/>
<stop offset="1" stop-color="#CA7044" stop-opacity="0"/>
</radialGradient>
<radialGradient id="paint3_radial_18_14713" cx="0" cy="0" r="1" gradientUnits="userSpaceOnUse" gradientTransform="translate(17.5625 13.0625) rotate(99.7962) scale(17.6321 18.0867)">
<stop offset="0.863874" stop-color="#C07583" stop-opacity="0"/>
<stop offset="1" stop-color="#C07583"/>
</radialGradient>
<radialGradient id="paint4_radial_18_14713" cx="0" cy="0" r="1" gradientUnits="userSpaceOnUse" gradientTransform="translate(23.25 21.375) rotate(97.8707) scale(8.67178)">
<stop stop-color="#FFC94E"/>
<stop offset="1" stop-color="#FFC94E" stop-opacity="0"/>
</radialGradient>
<radialGradient id="paint5_radial_18_14713" cx="0" cy="0" r="1" gradientUnits="userSpaceOnUse" gradientTransform="translate(8.3125 15.1875) rotate(46.5208) scale(4.9957)">
<stop stop-color="#EB7F4D"/>
<stop offset="0.959931" stop-color="#EB7F4D" stop-opacity="0"/>
</radialGradient>
<radialGradient id="paint6_radial_18_14713" cx="0" cy="0" r="1" gradientUnits="userSpaceOnUse" gradientTransform="translate(23.0625 15.5) rotate(110.659) scale(4.0745)">
<stop stop-color="#FFA95E"/>
<stop offset="1" stop-color="#FFB370" stop-opacity="0"/>
</radialGradient>
<linearGradient id="paint7_linear_18_14713" x1="29.1562" y1="16.7187" x2="27.5937" y2="22" gradientUnits="userSpaceOnUse">
<stop stop-color="#F2BE70"/>
<stop offset="1" stop-color="#FFEC98"/>
</linearGradient>
<radialGradient id="paint8_radial_18_14713" cx="0" cy="0" r="1" gradientUnits="userSpaceOnUse" gradientTransform="translate(26.3684 18.6316) rotate(14.7248) scale(2.07067 4.57582)">
<stop stop-color="#FFE486"/>
<stop offset="1" stop-color="#FFD68B"/>
</radialGradient>
<radialGradient id="paint9_radial_18_14713" cx="0" cy="0" r="1" gradientUnits="userSpaceOnUse" gradientTransform="translate(29.1579 19.7237) rotate(-112.782) scale(2.85426 3.23309)">
<stop offset="0.795257" stop-color="#E3B065" stop-opacity="0"/>
<stop offset="0.944024" stop-color="#E3B065"/>
</radialGradient>
<radialGradient id="paint10_radial_18_14713" cx="0" cy="0" r="1" gradientUnits="userSpaceOnUse" gradientTransform="translate(29.5895 18.4437) rotate(118.811) scale(3.72923 3.20041)">
<stop offset="0.846426" stop-color="#FFF1A6" stop-opacity="0"/>
<stop offset="1" stop-color="#FFF1A6"/>
</radialGradient>
<linearGradient id="paint11_linear_18_14713" x1="24.3439" y1="24" x2="18.7644" y2="28.2351" gradientUnits="userSpaceOnUse">
<stop stop-color="#DFA055"/>
<stop offset="1" stop-color="#E1945D"/>
</linearGradient>
<radialGradient id="paint12_radial_18_14713" cx="0" cy="0" r="1" gradientUnits="userSpaceOnUse" gradientTransform="translate(22.8212 24) rotate(95.3771) scale(5.42873 8.14923)">
<stop stop-color="#FEB862"/>
<stop offset="1" stop-color="#D78B6C"/>
</radialGradient>
<radialGradient id="paint13_radial_18_14713" cx="0" cy="0" r="1" gradientUnits="userSpaceOnUse" gradientTransform="translate(21.612 24) rotate(61.633) scale(4.59394 12.0167)">
<stop offset="0.727047" stop-color="#D8A294" stop-opacity="0"/>
<stop offset="1" stop-color="#D8A294"/>
</radialGradient>
<radialGradient id="paint14_radial_18_14713" cx="0" cy="0" r="1" gradientUnits="userSpaceOnUse" gradientTransform="translate(23.5232 27.5709) rotate(155.573) scale(4.4348 3.92197)">
<stop offset="0.662245" stop-color="#EFA970" stop-opacity="0"/>
<stop offset="0.978537" stop-color="#EFA970"/>
</radialGradient>
<radialGradient id="paint15_radial_18_14713" cx="0" cy="0" r="1" gradientUnits="userSpaceOnUse" gradientTransform="translate(22.6427 28.5388) rotate(-67.9692) scale(5.027 5.20621)">
<stop offset="0.777969" stop-color="#C17967" stop-opacity="0"/>
<stop offset="0.950812" stop-color="#C17967"/>
</radialGradient>
<linearGradient id="paint16_linear_18_14713" x1="14.8413" y1="22.7416" x2="12.2525" y2="25.8132" gradientUnits="userSpaceOnUse">
<stop stop-color="#D47C4B"/>
<stop offset="1" stop-color="#E28050"/>
</linearGradient>
<radialGradient id="paint17_radial_18_14713" cx="0" cy="0" r="1" gradientUnits="userSpaceOnUse" gradientTransform="translate(13.8437 22.6563) rotate(99.8844) scale(3.82294 3.97651)">
<stop stop-color="#D97C5E"/>
<stop offset="1" stop-color="#F79965"/>
</radialGradient>
<radialGradient id="paint18_radial_18_14713" cx="0" cy="0" r="1" gradientUnits="userSpaceOnUse" gradientTransform="translate(14.229 22.9304) rotate(110.163) scale(3.72007 3.18028)">
<stop offset="0.742386" stop-color="#FFA969" stop-opacity="0"/>
<stop offset="1" stop-color="#FFA969"/>
</radialGradient>
<radialGradient id="paint19_radial_18_14713" cx="0" cy="0" r="1" gradientUnits="userSpaceOnUse" gradientTransform="translate(13.1666 24.9637) rotate(-104.912) scale(3.48795 3.28978)">
<stop offset="0.625503" stop-color="#C16653" stop-opacity="0"/>
<stop offset="1" stop-color="#C16653"/>
</radialGradient>
<radialGradient id="paint20_radial_18_14713" cx="0" cy="0" r="1" gradientUnits="userSpaceOnUse" gradientTransform="translate(15.81 26.1463) rotate(-158.194) scale(2.45915 2.55794)">
<stop stop-color="#CE8050"/>
<stop offset="1" stop-color="#CE8050" stop-opacity="0"/>
</radialGradient>
<linearGradient id="paint21_linear_18_14713" x1="4.55449" y1="15" x2="4.55449" y2="22.2499" gradientUnits="userSpaceOnUse">
<stop stop-color="#A2723B"/>
<stop offset="1" stop-color="#AC6E43"/>
</linearGradient>
<radialGradient id="paint22_radial_18_14713" cx="0" cy="0" r="1" gradientUnits="userSpaceOnUse" gradientTransform="translate(1.61102 15.5904) rotate(58.6636) scale(7.83768 5.15808)">
<stop stop-color="#A98861"/>
<stop offset="1" stop-color="#B1724D"/>
</radialGradient>
<radialGradient id="paint23_radial_18_14713" cx="0" cy="0" r="1" gradientUnits="userSpaceOnUse" gradientTransform="translate(2.8868 19.2691) rotate(-58.7652) scale(4.99283 4.56979)">
<stop offset="0.695704" stop-color="#9C6544" stop-opacity="0"/>
<stop offset="1" stop-color="#9C6544"/>
</radialGradient>
<radialGradient id="paint24_radial_18_14713" cx="0" cy="0" r="1" gradientUnits="userSpaceOnUse" gradientTransform="translate(4.3971 17.2433) rotate(90) scale(5.04143 3.31783)">
<stop offset="0.821343" stop-color="#AF7D6F" stop-opacity="0"/>
<stop offset="1" stop-color="#AF7D6F"/>
</radialGradient>
<linearGradient id="paint25_linear_18_14713" x1="14.7642" y1="5.50323" x2="17.9894" y2="5.50323" gradientUnits="userSpaceOnUse">
<stop stop-color="#FFE27E"/>
<stop offset="1" stop-color="#F1B966"/>
</linearGradient>
<linearGradient id="paint26_linear_18_14713" x1="18.25" y1="5.50324" x2="12.9956" y2="5.50324" gradientUnits="userSpaceOnUse">
<stop stop-color="#FFC770"/>
<stop offset="1" stop-color="#FFDF81"/>
</linearGradient>
<radialGradient id="paint27_radial_18_14713" cx="0" cy="0" r="1" gradientUnits="userSpaceOnUse" gradientTransform="translate(14.875 5.50323) scale(3.28125 3.94765)">
<stop offset="0.6" stop-color="#C59853" stop-opacity="0"/>
<stop offset="1" stop-color="#C59853"/>
</radialGradient>
<radialGradient id="paint28_radial_18_14713" cx="0" cy="0" r="1" gradientUnits="userSpaceOnUse" gradientTransform="translate(17.9894 5.50324) rotate(180) scale(4.99377 3.78436)">
<stop offset="0.898995" stop-color="#FFF4A4" stop-opacity="0"/>
<stop offset="1" stop-color="#FFF4A4"/>
</radialGradient>
<linearGradient id="paint29_linear_18_14713" x1="9.42903" y1="12.4128" x2="12.4811" y2="11.0267" gradientUnits="userSpaceOnUse">
<stop stop-color="#C06E3F"/>
<stop offset="1" stop-color="#9B672E"/>
</linearGradient>
<linearGradient id="paint30_linear_18_14713" x1="22.7355" y1="13.2927" x2="19.4207" y2="13.8635" gradientUnits="userSpaceOnUse">
<stop stop-color="#C06E3F"/>
<stop offset="1" stop-color="#9B672E"/>
</linearGradient>
<radialGradient id="paint31_radial_18_14713" cx="0" cy="0" r="1" gradientUnits="userSpaceOnUse" gradientTransform="translate(9.79688 12.7188) rotate(-41.9872) scale(3.15319 2.71026)">
<stop stop-color="#3A2D43"/>
<stop offset="1" stop-color="#342D3A"/>
</radialGradient>
<radialGradient id="paint32_radial_18_14713" cx="0" cy="0" r="1" gradientUnits="userSpaceOnUse" gradientTransform="translate(20.0267 11.9777) rotate(-90) scale(1.28499 2.69079)">
<stop stop-color="#3E294C"/>
<stop offset="1" stop-color="#483C4E"/>
</radialGradient>
<linearGradient id="paint33_linear_18_14713" x1="10.1801" y1="17.6876" x2="15.3651" y2="20.0101" gradientUnits="userSpaceOnUse">
<stop stop-color="#B2673E"/>
<stop offset="1" stop-color="#BA6E47"/>
</linearGradient>
<linearGradient id="paint34_linear_18_14713" x1="15.8749" y1="17.7904" x2="15.8749" y2="19.6976" gradientUnits="userSpaceOnUse">
<stop stop-color="#4A393E"/>
<stop offset="1" stop-color="#391E47"/>
</linearGradient>
<linearGradient id="paint35_linear_18_14713" x1="13.9463" y1="12.3665" x2="11.4009" y2="10.8077" gradientUnits="userSpaceOnUse">
<stop stop-color="#51495A"/>
<stop offset="1" stop-color="#51495A" stop-opacity="0"/>
</linearGradient>
<linearGradient id="paint36_linear_18_14713" x1="9.5614" y1="12.5244" x2="10.0788" y2="11.3316" gradientUnits="userSpaceOnUse">
<stop stop-color="#51495A"/>
<stop offset="1" stop-color="#51495A" stop-opacity="0"/>
</linearGradient>
<linearGradient id="paint37_linear_18_14713" x1="22.4472" y1="12.5222" x2="19.8518" y2="11.0187" gradientUnits="userSpaceOnUse">
<stop offset="0.184864" stop-color="#564A62"/>
<stop offset="1" stop-color="#564A62" stop-opacity="0"/>
</linearGradient>
<linearGradient id="paint38_linear_18_14713" x1="18.1046" y1="12.6874" x2="20.5644" y2="10.2732" gradientUnits="userSpaceOnUse">
<stop stop-color="#5F4C6F"/>
<stop offset="1" stop-color="#5F4C6F" stop-opacity="0"/>
</linearGradient>
<linearGradient id="paint39_linear_18_14713" x1="13.0722" y1="17.7707" x2="17.5123" y2="18.6462" gradientUnits="userSpaceOnUse">
<stop stop-color="#463E4C"/>
<stop offset="1" stop-color="#4F425A"/>
</linearGradient>
<linearGradient id="paint40_linear_18_14713" x1="21.4627" y1="7.68744" x2="23.944" y2="9.18304" gradientUnits="userSpaceOnUse">
<stop stop-color="#594C63"/>
<stop offset="1" stop-color="#594C63" stop-opacity="0"/>
</linearGradient>
<linearGradient id="paint41_linear_18_14713" x1="23.944" y1="10.5172" x2="23.842" y2="8.5627" gradientUnits="userSpaceOnUse">
<stop stop-color="#594C63"/>
<stop offset="1" stop-color="#594C63" stop-opacity="0"/>
</linearGradient>
<linearGradient id="paint42_linear_18_14713" x1="10.9171" y1="7.50049" x2="8.82662" y2="8.39275" gradientUnits="userSpaceOnUse">
<stop stop-color="#594C63"/>
<stop offset="1" stop-color="#594C63" stop-opacity="0"/>
</linearGradient>
<linearGradient id="paint43_linear_18_14713" x1="7.9027" y1="10.5172" x2="9.03057" y2="8.12082" gradientUnits="userSpaceOnUse">
<stop stop-color="#594C63"/>
<stop offset="1" stop-color="#594C63" stop-opacity="0"/>
</linearGradient>
</defs>
</svg>
