<svg width="32" height="32" viewBox="0 0 32 32" fill="none" xmlns="http://www.w3.org/2000/svg">
<path d="M15.5786 11.6364L14.5564 13.3774C14.52 13.4403 14.5006 13.512 14.5 13.5852C14.4995 13.6585 14.5178 13.7305 14.5532 13.794C14.5887 13.8574 14.6398 13.9099 14.7015 13.9462C14.7631 13.9824 14.833 14.0009 14.904 14H16.846C16.917 14.0009 16.9869 13.9824 17.0485 13.9462C17.1102 13.9099 17.1613 13.8574 17.1968 13.794C17.2322 13.7305 17.2505 13.6585 17.25 13.5852C17.2494 13.512 17.23 13.4403 17.1936 13.3774L16.1714 11.6364C16.134 11.5934 16.0883 11.5591 16.0373 11.5356C15.9862 11.5121 15.9309 11.5 15.875 11.5C15.8191 11.5 15.7638 11.5121 15.7127 11.5356C15.6617 11.5591 15.616 11.5934 15.5786 11.6364Z" fill="#212121"/>
<path d="M4 16C4 15.4477 4.44772 15 5 15H6.52779C5.57771 16.0615 5 17.4633 5 19C5 20.5367 5.57771 21.9385 6.52779 23H5C4.44772 23 4 22.5523 4 22V16Z" fill="#212121"/>
<path d="M11 16C11 15.5634 10.7203 15.1922 10.3303 15.0558C8.43996 15.3744 7 17.019 7 19C7 20.9809 8.43996 22.6255 10.3303 22.9441C10.7203 22.8077 11 22.4365 11 22V21C9.89543 21 9 20.1046 9 19C9 17.8954 9.89543 17 11 17V16Z" fill="#212121"/>
<path d="M28 16C28 15.4477 27.5523 15 27 15H25.4722C26.4223 16.0615 27 17.4633 27 19C27 20.5367 26.4223 21.9385 25.4722 23H27C27.5523 23 28 22.5523 28 22V16Z" fill="#212121"/>
<path d="M21 16C21 15.5634 21.2797 15.1922 21.6697 15.0558C23.56 15.3744 25 17.019 25 19C25 20.9809 23.56 22.6255 21.6697 22.9441C21.2797 22.8077 21 22.4365 21 22V21C22.1046 21 23 20.1046 23 19C23 17.8954 22.1046 17 21 17V16Z" fill="#212121"/>
<path d="M12 16C12 15.4477 12.4477 15 13 15H19C19.5523 15 20 15.4477 20 16V22C20 22.5523 19.5523 23 19 23H13C12.4477 23 12 22.5523 12 22V16ZM13.5 18C13.2239 18 13 18.2239 13 18.5C13 18.7761 13.2239 19 13.5 19H18.5C18.7761 19 19 18.7761 19 18.5C19 18.2239 18.7761 18 18.5 18H13.5ZM13.5 20C13.2239 20 13 20.2239 13 20.5C13 20.7761 13.2239 21 13.5 21H18.5C18.7761 21 19 20.7761 19 20.5C19 20.2239 18.7761 20 18.5 20H13.5Z" fill="#212121"/>
<path d="M5 9C2.79086 9 1 10.7909 1 13V27C1 29.2091 2.79086 31 5 31H27C29.2091 31 31 29.2091 31 27V13C31 10.7909 29.2091 9 27 9H5ZM3 13C3 11.8954 3.89543 11 5 11H27C28.1046 11 29 11.8954 29 13V26.2361C28.4692 26.7111 27.7684 27 27 27H5C4.23165 27 3.53076 26.7111 3 26.2361V13Z" fill="#212121"/>
</svg>
