<svg width="32" height="32" viewBox="0 0 32 32" fill="none" xmlns="http://www.w3.org/2000/svg">
<g filter="url(#filter0_ii_3987_19459)">
<path fill-rule="evenodd" clip-rule="evenodd" d="M29.3962 20.5283C29.7925 19.717 30 18.8113 30 17.8679C30 16.9966 29.8207 16.1792 29.4993 15.434H29.5092C29.3593 15.0965 29.1907 14.7777 28.9849 14.4775L28.9811 14.4717C28.3396 13.4906 28 12.3396 28 11.1698V11.1509C28 7.75472 25.2453 5 21.8491 5C21.5094 5 21.1887 4.84906 21 4.56604C19.8868 3.01887 18.0564 2 15.9998 2C13.9432 2 12.113 3.01887 10.9998 4.56604C10.8111 4.83019 10.4904 5 10.1507 5C10.0977 5 10.0449 5.00067 9.99222 5.00201C6.66921 5.08614 3.99981 7.80772 3.99981 11.1509V11.1698C3.99981 12.3396 3.66018 13.4906 3.01867 14.4717L3.0144 14.4785C2.37561 15.4582 2 16.6067 2 17.8679C2 18.8302 2.22641 19.717 2.60377 20.5283C2.73585 20.7925 2.73585 21.1132 2.60377 21.3774C2.22641 22.1698 2 23.0566 2 24C2 27.3208 4.67924 30 8 30H24C27.3208 30 30 27.3208 30 24C30 23.0566 29.7736 22.1698 29.3962 21.3774C29.2642 21.1132 29.2642 20.7925 29.3962 20.5283ZM8 15.8125L7.75 16.7812L8.75015 19.9375C8.98003 25.1626 11.0192 19.9375 15.9998 19.9375C20.9804 19.9375 23.1524 25.7533 23.3823 20.5283L25.0469 14.5675C24.9467 12.2466 23.718 12.0837 23.3823 12.0837H17.3788C15.0081 12.0837 12.7711 10.9234 11.4328 8.96404C11.2033 8.64065 10.7253 8.69772 10.5724 9.05915L10.4194 9.42058C9.99882 10.4668 9.19581 11.2658 8.20161 11.7223C8.17293 11.7318 8.13947 11.7461 8.10602 11.7604C8.07256 11.7746 8.03909 11.7889 8.01042 11.7984C7.57068 12.0267 6.53824 12.7115 6.5 14.4806L7.75 14.9375L8 15.8125Z" fill="url(#paint0_linear_3987_19459)"/>
<path fill-rule="evenodd" clip-rule="evenodd" d="M29.3962 20.5283C29.7925 19.717 30 18.8113 30 17.8679C30 16.9966 29.8207 16.1792 29.4993 15.434H29.5092C29.3593 15.0965 29.1907 14.7777 28.9849 14.4775L28.9811 14.4717C28.3396 13.4906 28 12.3396 28 11.1698V11.1509C28 7.75472 25.2453 5 21.8491 5C21.5094 5 21.1887 4.84906 21 4.56604C19.8868 3.01887 18.0564 2 15.9998 2C13.9432 2 12.113 3.01887 10.9998 4.56604C10.8111 4.83019 10.4904 5 10.1507 5C10.0977 5 10.0449 5.00067 9.99222 5.00201C6.66921 5.08614 3.99981 7.80772 3.99981 11.1509V11.1698C3.99981 12.3396 3.66018 13.4906 3.01867 14.4717L3.0144 14.4785C2.37561 15.4582 2 16.6067 2 17.8679C2 18.8302 2.22641 19.717 2.60377 20.5283C2.73585 20.7925 2.73585 21.1132 2.60377 21.3774C2.22641 22.1698 2 23.0566 2 24C2 27.3208 4.67924 30 8 30H24C27.3208 30 30 27.3208 30 24C30 23.0566 29.7736 22.1698 29.3962 21.3774C29.2642 21.1132 29.2642 20.7925 29.3962 20.5283ZM8 15.8125L7.75 16.7812L8.75015 19.9375C8.98003 25.1626 11.0192 19.9375 15.9998 19.9375C20.9804 19.9375 23.1524 25.7533 23.3823 20.5283L25.0469 14.5675C24.9467 12.2466 23.718 12.0837 23.3823 12.0837H17.3788C15.0081 12.0837 12.7711 10.9234 11.4328 8.96404C11.2033 8.64065 10.7253 8.69772 10.5724 9.05915L10.4194 9.42058C9.99882 10.4668 9.19581 11.2658 8.20161 11.7223C8.17293 11.7318 8.13947 11.7461 8.10602 11.7604C8.07256 11.7746 8.03909 11.7889 8.01042 11.7984C7.57068 12.0267 6.53824 12.7115 6.5 14.4806L7.75 14.9375L8 15.8125Z" fill="url(#paint1_radial_3987_19459)"/>
<path fill-rule="evenodd" clip-rule="evenodd" d="M29.3962 20.5283C29.7925 19.717 30 18.8113 30 17.8679C30 16.9966 29.8207 16.1792 29.4993 15.434H29.5092C29.3593 15.0965 29.1907 14.7777 28.9849 14.4775L28.9811 14.4717C28.3396 13.4906 28 12.3396 28 11.1698V11.1509C28 7.75472 25.2453 5 21.8491 5C21.5094 5 21.1887 4.84906 21 4.56604C19.8868 3.01887 18.0564 2 15.9998 2C13.9432 2 12.113 3.01887 10.9998 4.56604C10.8111 4.83019 10.4904 5 10.1507 5C10.0977 5 10.0449 5.00067 9.99222 5.00201C6.66921 5.08614 3.99981 7.80772 3.99981 11.1509V11.1698C3.99981 12.3396 3.66018 13.4906 3.01867 14.4717L3.0144 14.4785C2.37561 15.4582 2 16.6067 2 17.8679C2 18.8302 2.22641 19.717 2.60377 20.5283C2.73585 20.7925 2.73585 21.1132 2.60377 21.3774C2.22641 22.1698 2 23.0566 2 24C2 27.3208 4.67924 30 8 30H24C27.3208 30 30 27.3208 30 24C30 23.0566 29.7736 22.1698 29.3962 21.3774C29.2642 21.1132 29.2642 20.7925 29.3962 20.5283ZM8 15.8125L7.75 16.7812L8.75015 19.9375C8.98003 25.1626 11.0192 19.9375 15.9998 19.9375C20.9804 19.9375 23.1524 25.7533 23.3823 20.5283L25.0469 14.5675C24.9467 12.2466 23.718 12.0837 23.3823 12.0837H17.3788C15.0081 12.0837 12.7711 10.9234 11.4328 8.96404C11.2033 8.64065 10.7253 8.69772 10.5724 9.05915L10.4194 9.42058C9.99882 10.4668 9.19581 11.2658 8.20161 11.7223C8.17293 11.7318 8.13947 11.7461 8.10602 11.7604C8.07256 11.7746 8.03909 11.7889 8.01042 11.7984C7.57068 12.0267 6.53824 12.7115 6.5 14.4806L7.75 14.9375L8 15.8125Z" fill="url(#paint2_radial_3987_19459)"/>
<path fill-rule="evenodd" clip-rule="evenodd" d="M29.3962 20.5283C29.7925 19.717 30 18.8113 30 17.8679C30 16.9966 29.8207 16.1792 29.4993 15.434H29.5092C29.3593 15.0965 29.1907 14.7777 28.9849 14.4775L28.9811 14.4717C28.3396 13.4906 28 12.3396 28 11.1698V11.1509C28 7.75472 25.2453 5 21.8491 5C21.5094 5 21.1887 4.84906 21 4.56604C19.8868 3.01887 18.0564 2 15.9998 2C13.9432 2 12.113 3.01887 10.9998 4.56604C10.8111 4.83019 10.4904 5 10.1507 5C10.0977 5 10.0449 5.00067 9.99222 5.00201C6.66921 5.08614 3.99981 7.80772 3.99981 11.1509V11.1698C3.99981 12.3396 3.66018 13.4906 3.01867 14.4717L3.0144 14.4785C2.37561 15.4582 2 16.6067 2 17.8679C2 18.8302 2.22641 19.717 2.60377 20.5283C2.73585 20.7925 2.73585 21.1132 2.60377 21.3774C2.22641 22.1698 2 23.0566 2 24C2 27.3208 4.67924 30 8 30H24C27.3208 30 30 27.3208 30 24C30 23.0566 29.7736 22.1698 29.3962 21.3774C29.2642 21.1132 29.2642 20.7925 29.3962 20.5283ZM8 15.8125L7.75 16.7812L8.75015 19.9375C8.98003 25.1626 11.0192 19.9375 15.9998 19.9375C20.9804 19.9375 23.1524 25.7533 23.3823 20.5283L25.0469 14.5675C24.9467 12.2466 23.718 12.0837 23.3823 12.0837H17.3788C15.0081 12.0837 12.7711 10.9234 11.4328 8.96404C11.2033 8.64065 10.7253 8.69772 10.5724 9.05915L10.4194 9.42058C9.99882 10.4668 9.19581 11.2658 8.20161 11.7223C8.17293 11.7318 8.13947 11.7461 8.10602 11.7604C8.07256 11.7746 8.03909 11.7889 8.01042 11.7984C7.57068 12.0267 6.53824 12.7115 6.5 14.4806L7.75 14.9375L8 15.8125Z" fill="url(#paint3_radial_3987_19459)"/>
<path fill-rule="evenodd" clip-rule="evenodd" d="M29.3962 20.5283C29.7925 19.717 30 18.8113 30 17.8679C30 16.9966 29.8207 16.1792 29.4993 15.434H29.5092C29.3593 15.0965 29.1907 14.7777 28.9849 14.4775L28.9811 14.4717C28.3396 13.4906 28 12.3396 28 11.1698V11.1509C28 7.75472 25.2453 5 21.8491 5C21.5094 5 21.1887 4.84906 21 4.56604C19.8868 3.01887 18.0564 2 15.9998 2C13.9432 2 12.113 3.01887 10.9998 4.56604C10.8111 4.83019 10.4904 5 10.1507 5C10.0977 5 10.0449 5.00067 9.99222 5.00201C6.66921 5.08614 3.99981 7.80772 3.99981 11.1509V11.1698C3.99981 12.3396 3.66018 13.4906 3.01867 14.4717L3.0144 14.4785C2.37561 15.4582 2 16.6067 2 17.8679C2 18.8302 2.22641 19.717 2.60377 20.5283C2.73585 20.7925 2.73585 21.1132 2.60377 21.3774C2.22641 22.1698 2 23.0566 2 24C2 27.3208 4.67924 30 8 30H24C27.3208 30 30 27.3208 30 24C30 23.0566 29.7736 22.1698 29.3962 21.3774C29.2642 21.1132 29.2642 20.7925 29.3962 20.5283ZM8 15.8125L7.75 16.7812L8.75015 19.9375C8.98003 25.1626 11.0192 19.9375 15.9998 19.9375C20.9804 19.9375 23.1524 25.7533 23.3823 20.5283L25.0469 14.5675C24.9467 12.2466 23.718 12.0837 23.3823 12.0837H17.3788C15.0081 12.0837 12.7711 10.9234 11.4328 8.96404C11.2033 8.64065 10.7253 8.69772 10.5724 9.05915L10.4194 9.42058C9.99882 10.4668 9.19581 11.2658 8.20161 11.7223C8.17293 11.7318 8.13947 11.7461 8.10602 11.7604C8.07256 11.7746 8.03909 11.7889 8.01042 11.7984C7.57068 12.0267 6.53824 12.7115 6.5 14.4806L7.75 14.9375L8 15.8125Z" fill="url(#paint4_radial_3987_19459)"/>
<path fill-rule="evenodd" clip-rule="evenodd" d="M29.3962 20.5283C29.7925 19.717 30 18.8113 30 17.8679C30 16.9966 29.8207 16.1792 29.4993 15.434H29.5092C29.3593 15.0965 29.1907 14.7777 28.9849 14.4775L28.9811 14.4717C28.3396 13.4906 28 12.3396 28 11.1698V11.1509C28 7.75472 25.2453 5 21.8491 5C21.5094 5 21.1887 4.84906 21 4.56604C19.8868 3.01887 18.0564 2 15.9998 2C13.9432 2 12.113 3.01887 10.9998 4.56604C10.8111 4.83019 10.4904 5 10.1507 5C10.0977 5 10.0449 5.00067 9.99222 5.00201C6.66921 5.08614 3.99981 7.80772 3.99981 11.1509V11.1698C3.99981 12.3396 3.66018 13.4906 3.01867 14.4717L3.0144 14.4785C2.37561 15.4582 2 16.6067 2 17.8679C2 18.8302 2.22641 19.717 2.60377 20.5283C2.73585 20.7925 2.73585 21.1132 2.60377 21.3774C2.22641 22.1698 2 23.0566 2 24C2 27.3208 4.67924 30 8 30H24C27.3208 30 30 27.3208 30 24C30 23.0566 29.7736 22.1698 29.3962 21.3774C29.2642 21.1132 29.2642 20.7925 29.3962 20.5283ZM8 15.8125L7.75 16.7812L8.75015 19.9375C8.98003 25.1626 11.0192 19.9375 15.9998 19.9375C20.9804 19.9375 23.1524 25.7533 23.3823 20.5283L25.0469 14.5675C24.9467 12.2466 23.718 12.0837 23.3823 12.0837H17.3788C15.0081 12.0837 12.7711 10.9234 11.4328 8.96404C11.2033 8.64065 10.7253 8.69772 10.5724 9.05915L10.4194 9.42058C9.99882 10.4668 9.19581 11.2658 8.20161 11.7223C8.17293 11.7318 8.13947 11.7461 8.10602 11.7604C8.07256 11.7746 8.03909 11.7889 8.01042 11.7984C7.57068 12.0267 6.53824 12.7115 6.5 14.4806L7.75 14.9375L8 15.8125Z" fill="url(#paint5_radial_3987_19459)"/>
<path fill-rule="evenodd" clip-rule="evenodd" d="M29.3962 20.5283C29.7925 19.717 30 18.8113 30 17.8679C30 16.9966 29.8207 16.1792 29.4993 15.434H29.5092C29.3593 15.0965 29.1907 14.7777 28.9849 14.4775L28.9811 14.4717C28.3396 13.4906 28 12.3396 28 11.1698V11.1509C28 7.75472 25.2453 5 21.8491 5C21.5094 5 21.1887 4.84906 21 4.56604C19.8868 3.01887 18.0564 2 15.9998 2C13.9432 2 12.113 3.01887 10.9998 4.56604C10.8111 4.83019 10.4904 5 10.1507 5C10.0977 5 10.0449 5.00067 9.99222 5.00201C6.66921 5.08614 3.99981 7.80772 3.99981 11.1509V11.1698C3.99981 12.3396 3.66018 13.4906 3.01867 14.4717L3.0144 14.4785C2.37561 15.4582 2 16.6067 2 17.8679C2 18.8302 2.22641 19.717 2.60377 20.5283C2.73585 20.7925 2.73585 21.1132 2.60377 21.3774C2.22641 22.1698 2 23.0566 2 24C2 27.3208 4.67924 30 8 30H24C27.3208 30 30 27.3208 30 24C30 23.0566 29.7736 22.1698 29.3962 21.3774C29.2642 21.1132 29.2642 20.7925 29.3962 20.5283ZM8 15.8125L7.75 16.7812L8.75015 19.9375C8.98003 25.1626 11.0192 19.9375 15.9998 19.9375C20.9804 19.9375 23.1524 25.7533 23.3823 20.5283L25.0469 14.5675C24.9467 12.2466 23.718 12.0837 23.3823 12.0837H17.3788C15.0081 12.0837 12.7711 10.9234 11.4328 8.96404C11.2033 8.64065 10.7253 8.69772 10.5724 9.05915L10.4194 9.42058C9.99882 10.4668 9.19581 11.2658 8.20161 11.7223C8.17293 11.7318 8.13947 11.7461 8.10602 11.7604C8.07256 11.7746 8.03909 11.7889 8.01042 11.7984C7.57068 12.0267 6.53824 12.7115 6.5 14.4806L7.75 14.9375L8 15.8125Z" fill="url(#paint6_radial_3987_19459)"/>
<path fill-rule="evenodd" clip-rule="evenodd" d="M29.3962 20.5283C29.7925 19.717 30 18.8113 30 17.8679C30 16.9966 29.8207 16.1792 29.4993 15.434H29.5092C29.3593 15.0965 29.1907 14.7777 28.9849 14.4775L28.9811 14.4717C28.3396 13.4906 28 12.3396 28 11.1698V11.1509C28 7.75472 25.2453 5 21.8491 5C21.5094 5 21.1887 4.84906 21 4.56604C19.8868 3.01887 18.0564 2 15.9998 2C13.9432 2 12.113 3.01887 10.9998 4.56604C10.8111 4.83019 10.4904 5 10.1507 5C10.0977 5 10.0449 5.00067 9.99222 5.00201C6.66921 5.08614 3.99981 7.80772 3.99981 11.1509V11.1698C3.99981 12.3396 3.66018 13.4906 3.01867 14.4717L3.0144 14.4785C2.37561 15.4582 2 16.6067 2 17.8679C2 18.8302 2.22641 19.717 2.60377 20.5283C2.73585 20.7925 2.73585 21.1132 2.60377 21.3774C2.22641 22.1698 2 23.0566 2 24C2 27.3208 4.67924 30 8 30H24C27.3208 30 30 27.3208 30 24C30 23.0566 29.7736 22.1698 29.3962 21.3774C29.2642 21.1132 29.2642 20.7925 29.3962 20.5283ZM8 15.8125L7.75 16.7812L8.75015 19.9375C8.98003 25.1626 11.0192 19.9375 15.9998 19.9375C20.9804 19.9375 23.1524 25.7533 23.3823 20.5283L25.0469 14.5675C24.9467 12.2466 23.718 12.0837 23.3823 12.0837H17.3788C15.0081 12.0837 12.7711 10.9234 11.4328 8.96404C11.2033 8.64065 10.7253 8.69772 10.5724 9.05915L10.4194 9.42058C9.99882 10.4668 9.19581 11.2658 8.20161 11.7223C8.17293 11.7318 8.13947 11.7461 8.10602 11.7604C8.07256 11.7746 8.03909 11.7889 8.01042 11.7984C7.57068 12.0267 6.53824 12.7115 6.5 14.4806L7.75 14.9375L8 15.8125Z" fill="url(#paint7_radial_3987_19459)"/>
</g>
<path fill-rule="evenodd" clip-rule="evenodd" d="M29.3962 20.5283C29.7925 19.717 30 18.8113 30 17.8679C30 16.9966 29.8207 16.1792 29.4993 15.434H29.5092C29.3593 15.0965 29.1907 14.7777 28.9849 14.4775L28.9811 14.4717C28.3396 13.4906 28 12.3396 28 11.1698V11.1509C28 7.75472 25.2453 5 21.8491 5C21.5094 5 21.1887 4.84906 21 4.56604C19.8868 3.01887 18.0564 2 15.9998 2C13.9432 2 12.113 3.01887 10.9998 4.56604C10.8111 4.83019 10.4904 5 10.1507 5C10.0977 5 10.0449 5.00067 9.99222 5.00201C6.66921 5.08614 3.99981 7.80772 3.99981 11.1509V11.1698C3.99981 12.3396 3.66018 13.4906 3.01867 14.4717L3.0144 14.4785C2.37561 15.4582 2 16.6067 2 17.8679C2 18.8302 2.22641 19.717 2.60377 20.5283C2.73585 20.7925 2.73585 21.1132 2.60377 21.3774C2.22641 22.1698 2 23.0566 2 24C2 27.3208 4.67924 30 8 30H24C27.3208 30 30 27.3208 30 24C30 23.0566 29.7736 22.1698 29.3962 21.3774C29.2642 21.1132 29.2642 20.7925 29.3962 20.5283ZM8 15.8125L7.75 16.7812L8.75015 19.9375C8.98003 25.1626 11.0192 19.9375 15.9998 19.9375C20.9804 19.9375 23.1524 25.7533 23.3823 20.5283L25.0469 14.5675C24.9467 12.2466 23.718 12.0837 23.3823 12.0837H17.3788C15.0081 12.0837 12.7711 10.9234 11.4328 8.96404C11.2033 8.64065 10.7253 8.69772 10.5724 9.05915L10.4194 9.42058C9.99882 10.4668 9.19581 11.2658 8.20161 11.7223C8.17293 11.7318 8.13947 11.7461 8.10602 11.7604C8.07256 11.7746 8.03909 11.7889 8.01042 11.7984C7.57068 12.0267 6.53824 12.7115 6.5 14.4806L7.75 14.9375L8 15.8125Z" fill="url(#paint8_radial_3987_19459)"/>
<path fill-rule="evenodd" clip-rule="evenodd" d="M29.3962 20.5283C29.7925 19.717 30 18.8113 30 17.8679C30 16.9966 29.8207 16.1792 29.4993 15.434H29.5092C29.3593 15.0965 29.1907 14.7777 28.9849 14.4775L28.9811 14.4717C28.3396 13.4906 28 12.3396 28 11.1698V11.1509C28 7.75472 25.2453 5 21.8491 5C21.5094 5 21.1887 4.84906 21 4.56604C19.8868 3.01887 18.0564 2 15.9998 2C13.9432 2 12.113 3.01887 10.9998 4.56604C10.8111 4.83019 10.4904 5 10.1507 5C10.0977 5 10.0449 5.00067 9.99222 5.00201C6.66921 5.08614 3.99981 7.80772 3.99981 11.1509V11.1698C3.99981 12.3396 3.66018 13.4906 3.01867 14.4717L3.0144 14.4785C2.37561 15.4582 2 16.6067 2 17.8679C2 18.8302 2.22641 19.717 2.60377 20.5283C2.73585 20.7925 2.73585 21.1132 2.60377 21.3774C2.22641 22.1698 2 23.0566 2 24C2 27.3208 4.67924 30 8 30H24C27.3208 30 30 27.3208 30 24C30 23.0566 29.7736 22.1698 29.3962 21.3774C29.2642 21.1132 29.2642 20.7925 29.3962 20.5283ZM8 15.8125L7.75 16.7812L8.75015 19.9375C8.98003 25.1626 11.0192 19.9375 15.9998 19.9375C20.9804 19.9375 23.1524 25.7533 23.3823 20.5283L25.0469 14.5675C24.9467 12.2466 23.718 12.0837 23.3823 12.0837H17.3788C15.0081 12.0837 12.7711 10.9234 11.4328 8.96404C11.2033 8.64065 10.7253 8.69772 10.5724 9.05915L10.4194 9.42058C9.99882 10.4668 9.19581 11.2658 8.20161 11.7223C8.17293 11.7318 8.13947 11.7461 8.10602 11.7604C8.07256 11.7746 8.03909 11.7889 8.01042 11.7984C7.57068 12.0267 6.53824 12.7115 6.5 14.4806L7.75 14.9375L8 15.8125Z" fill="url(#paint9_radial_3987_19459)"/>
<path fill-rule="evenodd" clip-rule="evenodd" d="M29.3962 20.5283C29.7925 19.717 30 18.8113 30 17.8679C30 16.9966 29.8207 16.1792 29.4993 15.434H29.5092C29.3593 15.0965 29.1907 14.7777 28.9849 14.4775L28.9811 14.4717C28.3396 13.4906 28 12.3396 28 11.1698V11.1509C28 7.75472 25.2453 5 21.8491 5C21.5094 5 21.1887 4.84906 21 4.56604C19.8868 3.01887 18.0564 2 15.9998 2C13.9432 2 12.113 3.01887 10.9998 4.56604C10.8111 4.83019 10.4904 5 10.1507 5C10.0977 5 10.0449 5.00067 9.99222 5.00201C6.66921 5.08614 3.99981 7.80772 3.99981 11.1509V11.1698C3.99981 12.3396 3.66018 13.4906 3.01867 14.4717L3.0144 14.4785C2.37561 15.4582 2 16.6067 2 17.8679C2 18.8302 2.22641 19.717 2.60377 20.5283C2.73585 20.7925 2.73585 21.1132 2.60377 21.3774C2.22641 22.1698 2 23.0566 2 24C2 27.3208 4.67924 30 8 30H24C27.3208 30 30 27.3208 30 24C30 23.0566 29.7736 22.1698 29.3962 21.3774C29.2642 21.1132 29.2642 20.7925 29.3962 20.5283ZM8 15.8125L7.75 16.7812L8.75015 19.9375C8.98003 25.1626 11.0192 19.9375 15.9998 19.9375C20.9804 19.9375 23.1524 25.7533 23.3823 20.5283L25.0469 14.5675C24.9467 12.2466 23.718 12.0837 23.3823 12.0837H17.3788C15.0081 12.0837 12.7711 10.9234 11.4328 8.96404C11.2033 8.64065 10.7253 8.69772 10.5724 9.05915L10.4194 9.42058C9.99882 10.4668 9.19581 11.2658 8.20161 11.7223C8.17293 11.7318 8.13947 11.7461 8.10602 11.7604C8.07256 11.7746 8.03909 11.7889 8.01042 11.7984C7.57068 12.0267 6.53824 12.7115 6.5 14.4806L7.75 14.9375L8 15.8125Z" fill="url(#paint10_radial_3987_19459)"/>
<g filter="url(#filter1_i_3987_19459)">
<path d="M7.26404 20.9C8.92089 20.9 10.264 19.5569 10.264 17.9C10.264 16.2432 8.92089 14.9 7.26404 14.9C5.60718 14.9 4.26404 16.2432 4.26404 17.9C4.26404 19.5569 5.60718 20.9 7.26404 20.9Z" fill="url(#paint11_linear_3987_19459)"/>
</g>
<g filter="url(#filter2_i_3987_19459)">
<path d="M25 20.9C26.6569 20.9 28 19.5569 28 17.9C28 16.2432 26.6569 14.9 25 14.9C23.3431 14.9 22 16.2432 22 17.9C22 19.5569 23.3431 20.9 25 20.9Z" fill="url(#paint12_radial_3987_19459)"/>
<path d="M25 20.9C26.6569 20.9 28 19.5569 28 17.9C28 16.2432 26.6569 14.9 25 14.9C23.3431 14.9 22 16.2432 22 17.9C22 19.5569 23.3431 20.9 25 20.9Z" fill="url(#paint13_radial_3987_19459)"/>
</g>
<g filter="url(#filter3_f_3987_19459)">
<path d="M25 19.9026C26.106 19.9026 27.0026 19.006 27.0026 17.9C27.0026 16.794 26.106 15.8975 25 15.8975C23.894 15.8975 22.9974 16.794 22.9974 17.9C22.9974 19.006 23.894 19.9026 25 19.9026Z" fill="#4C3637"/>
<path d="M25 19.9026C26.106 19.9026 27.0026 19.006 27.0026 17.9C27.0026 16.794 26.106 15.8975 25 15.8975C23.894 15.8975 22.9974 16.794 22.9974 17.9C22.9974 19.006 23.894 19.9026 25 19.9026Z" fill="url(#paint14_radial_3987_19459)"/>
</g>
<g filter="url(#filter4_f_3987_19459)">
<path d="M7.29995 19.9026C8.40595 19.9026 9.30253 19.006 9.30253 17.9C9.30253 16.794 8.40595 15.8975 7.29995 15.8975C6.19395 15.8975 5.29736 16.794 5.29736 17.9C5.29736 19.006 6.19395 19.9026 7.29995 19.9026Z" fill="#35252B"/>
<path d="M7.29995 19.9026C8.40595 19.9026 9.30253 19.006 9.30253 17.9C9.30253 16.794 8.40595 15.8975 7.29995 15.8975C6.19395 15.8975 5.29736 16.794 5.29736 17.9C5.29736 19.006 6.19395 19.9026 7.29995 19.9026Z" fill="url(#paint15_radial_3987_19459)"/>
</g>
<g filter="url(#filter5_i_3987_19459)">
<path d="M6.51528 15.5458H6.53824L6.51912 15.0512L6.5 14.4805C6.53824 12.7114 7.57068 12.0266 8.01042 11.7984C8.0391 11.7888 8.07256 11.7746 8.10602 11.7603C8.13947 11.746 8.17293 11.7318 8.20161 11.7223C9.19581 11.2657 9.99882 10.4668 10.4194 9.42053L10.5724 9.05911C10.7253 8.69768 11.2033 8.64061 11.4328 8.96399C12.7711 10.9233 15.0081 12.0837 17.3788 12.0837H23.3823C23.718 12.0837 25.3999 12.2466 25.5 14.5675L25.2786 20.2969C25.0487 25.5219 20.9684 29.0304 15.9878 29.0304C11.0071 29.0304 6.92683 25.5219 6.69695 20.2969L6.51528 15.5458Z" fill="url(#paint16_radial_3987_19459)"/>
<path d="M6.51528 15.5458H6.53824L6.51912 15.0512L6.5 14.4805C6.53824 12.7114 7.57068 12.0266 8.01042 11.7984C8.0391 11.7888 8.07256 11.7746 8.10602 11.7603C8.13947 11.746 8.17293 11.7318 8.20161 11.7223C9.19581 11.2657 9.99882 10.4668 10.4194 9.42053L10.5724 9.05911C10.7253 8.69768 11.2033 8.64061 11.4328 8.96399C12.7711 10.9233 15.0081 12.0837 17.3788 12.0837H23.3823C23.718 12.0837 25.3999 12.2466 25.5 14.5675L25.2786 20.2969C25.0487 25.5219 20.9684 29.0304 15.9878 29.0304C11.0071 29.0304 6.92683 25.5219 6.69695 20.2969L6.51528 15.5458Z" fill="url(#paint17_radial_3987_19459)"/>
<path d="M6.51528 15.5458H6.53824L6.51912 15.0512L6.5 14.4805C6.53824 12.7114 7.57068 12.0266 8.01042 11.7984C8.0391 11.7888 8.07256 11.7746 8.10602 11.7603C8.13947 11.746 8.17293 11.7318 8.20161 11.7223C9.19581 11.2657 9.99882 10.4668 10.4194 9.42053L10.5724 9.05911C10.7253 8.69768 11.2033 8.64061 11.4328 8.96399C12.7711 10.9233 15.0081 12.0837 17.3788 12.0837H23.3823C23.718 12.0837 25.3999 12.2466 25.5 14.5675L25.2786 20.2969C25.0487 25.5219 20.9684 29.0304 15.9878 29.0304C11.0071 29.0304 6.92683 25.5219 6.69695 20.2969L6.51528 15.5458Z" fill="url(#paint18_radial_3987_19459)"/>
<path d="M6.51528 15.5458H6.53824L6.51912 15.0512L6.5 14.4805C6.53824 12.7114 7.57068 12.0266 8.01042 11.7984C8.0391 11.7888 8.07256 11.7746 8.10602 11.7603C8.13947 11.746 8.17293 11.7318 8.20161 11.7223C9.19581 11.2657 9.99882 10.4668 10.4194 9.42053L10.5724 9.05911C10.7253 8.69768 11.2033 8.64061 11.4328 8.96399C12.7711 10.9233 15.0081 12.0837 17.3788 12.0837H23.3823C23.718 12.0837 25.3999 12.2466 25.5 14.5675L25.2786 20.2969C25.0487 25.5219 20.9684 29.0304 15.9878 29.0304C11.0071 29.0304 6.92683 25.5219 6.69695 20.2969L6.51528 15.5458Z" fill="url(#paint19_radial_3987_19459)"/>
<path d="M6.51528 15.5458H6.53824L6.51912 15.0512L6.5 14.4805C6.53824 12.7114 7.57068 12.0266 8.01042 11.7984C8.0391 11.7888 8.07256 11.7746 8.10602 11.7603C8.13947 11.746 8.17293 11.7318 8.20161 11.7223C9.19581 11.2657 9.99882 10.4668 10.4194 9.42053L10.5724 9.05911C10.7253 8.69768 11.2033 8.64061 11.4328 8.96399C12.7711 10.9233 15.0081 12.0837 17.3788 12.0837H23.3823C23.718 12.0837 25.3999 12.2466 25.5 14.5675L25.2786 20.2969C25.0487 25.5219 20.9684 29.0304 15.9878 29.0304C11.0071 29.0304 6.92683 25.5219 6.69695 20.2969L6.51528 15.5458Z" fill="url(#paint20_radial_3987_19459)"/>
<path d="M6.51528 15.5458H6.53824L6.51912 15.0512L6.5 14.4805C6.53824 12.7114 7.57068 12.0266 8.01042 11.7984C8.0391 11.7888 8.07256 11.7746 8.10602 11.7603C8.13947 11.746 8.17293 11.7318 8.20161 11.7223C9.19581 11.2657 9.99882 10.4668 10.4194 9.42053L10.5724 9.05911C10.7253 8.69768 11.2033 8.64061 11.4328 8.96399C12.7711 10.9233 15.0081 12.0837 17.3788 12.0837H23.3823C23.718 12.0837 25.3999 12.2466 25.5 14.5675L25.2786 20.2969C25.0487 25.5219 20.9684 29.0304 15.9878 29.0304C11.0071 29.0304 6.92683 25.5219 6.69695 20.2969L6.51528 15.5458Z" fill="url(#paint21_radial_3987_19459)"/>
<path d="M6.51528 15.5458H6.53824L6.51912 15.0512L6.5 14.4805C6.53824 12.7114 7.57068 12.0266 8.01042 11.7984C8.0391 11.7888 8.07256 11.7746 8.10602 11.7603C8.13947 11.746 8.17293 11.7318 8.20161 11.7223C9.19581 11.2657 9.99882 10.4668 10.4194 9.42053L10.5724 9.05911C10.7253 8.69768 11.2033 8.64061 11.4328 8.96399C12.7711 10.9233 15.0081 12.0837 17.3788 12.0837H23.3823C23.718 12.0837 25.3999 12.2466 25.5 14.5675L25.2786 20.2969C25.0487 25.5219 20.9684 29.0304 15.9878 29.0304C11.0071 29.0304 6.92683 25.5219 6.69695 20.2969L6.51528 15.5458Z" fill="url(#paint22_radial_3987_19459)"/>
<path d="M6.51528 15.5458H6.53824L6.51912 15.0512L6.5 14.4805C6.53824 12.7114 7.57068 12.0266 8.01042 11.7984C8.0391 11.7888 8.07256 11.7746 8.10602 11.7603C8.13947 11.746 8.17293 11.7318 8.20161 11.7223C9.19581 11.2657 9.99882 10.4668 10.4194 9.42053L10.5724 9.05911C10.7253 8.69768 11.2033 8.64061 11.4328 8.96399C12.7711 10.9233 15.0081 12.0837 17.3788 12.0837H23.3823C23.718 12.0837 25.3999 12.2466 25.5 14.5675L25.2786 20.2969C25.0487 25.5219 20.9684 29.0304 15.9878 29.0304C11.0071 29.0304 6.92683 25.5219 6.69695 20.2969L6.51528 15.5458Z" fill="url(#paint23_radial_3987_19459)"/>
</g>
<path d="M6.51528 15.5458H6.53824L6.51912 15.0512L6.5 14.4805C6.53824 12.7114 7.57068 12.0266 8.01042 11.7984C8.0391 11.7888 8.07256 11.7746 8.10602 11.7603C8.13947 11.746 8.17293 11.7318 8.20161 11.7223C9.19581 11.2657 9.99882 10.4668 10.4194 9.42053L10.5724 9.05911C10.7253 8.69768 11.2033 8.64061 11.4328 8.96399C12.7711 10.9233 15.0081 12.0837 17.3788 12.0837H23.3823C23.718 12.0837 25.3999 12.2466 25.5 14.5675L25.2786 20.2969C25.0487 25.5219 20.9684 29.0304 15.9878 29.0304C11.0071 29.0304 6.92683 25.5219 6.69695 20.2969L6.51528 15.5458Z" fill="url(#paint24_radial_3987_19459)"/>
<g filter="url(#filter6_f_3987_19459)">
<path d="M15.2681 17.4847L13.9937 20.6542C13.7915 21.3062 14.2768 21.9581 14.9643 21.9581H16.4304C17.118 21.9581 17.6033 21.2961 17.4011 20.6542L16.4102 17.4847C16.1979 16.7826 15.4906 16.7826 15.2681 17.4847Z" fill="#331B25"/>
</g>
<g filter="url(#filter7_f_3987_19459)">
<path d="M15.2872 17.2265L14.2963 20.396C14.0941 21.048 14.5794 21.7 15.2669 21.7H16.7331C17.4206 21.7 17.9059 21.038 17.7037 20.396L16.7128 17.2265C16.5005 16.5244 15.5096 16.5244 15.2872 17.2265Z" fill="#4A302D"/>
<path d="M15.2872 17.2265L14.2963 20.396C14.0941 21.048 14.5794 21.7 15.2669 21.7H16.7331C17.4206 21.7 17.9059 21.038 17.7037 20.396L16.7128 17.2265C16.5005 16.5244 15.5096 16.5244 15.2872 17.2265Z" fill="url(#paint25_radial_3987_19459)"/>
<path d="M15.2872 17.2265L14.2963 20.396C14.0941 21.048 14.5794 21.7 15.2669 21.7H16.7331C17.4206 21.7 17.9059 21.038 17.7037 20.396L16.7128 17.2265C16.5005 16.5244 15.5096 16.5244 15.2872 17.2265Z" fill="url(#paint26_linear_3987_19459)"/>
<path d="M15.2872 17.2265L14.2963 20.396C14.0941 21.048 14.5794 21.7 15.2669 21.7H16.7331C17.4206 21.7 17.9059 21.038 17.7037 20.396L16.7128 17.2265C16.5005 16.5244 15.5096 16.5244 15.2872 17.2265Z" fill="url(#paint27_linear_3987_19459)"/>
<path d="M15.2872 17.2265L14.2963 20.396C14.0941 21.048 14.5794 21.7 15.2669 21.7H16.7331C17.4206 21.7 17.9059 21.038 17.7037 20.396L16.7128 17.2265C16.5005 16.5244 15.5096 16.5244 15.2872 17.2265Z" fill="url(#paint28_radial_3987_19459)"/>
</g>
<path d="M15.2872 17.2265L14.2963 20.396C14.0941 21.048 14.5794 21.7 15.2669 21.7H16.7331C17.4206 21.7 17.9059 21.038 17.7037 20.396L16.7128 17.2265C16.5005 16.5244 15.5096 16.5244 15.2872 17.2265Z" fill="url(#paint29_linear_3987_19459)"/>
<path d="M15.2872 17.2265L14.2963 20.396C14.0941 21.048 14.5794 21.7 15.2669 21.7H16.7331C17.4206 21.7 17.9059 21.038 17.7037 20.396L16.7128 17.2265C16.5005 16.5244 15.5096 16.5244 15.2872 17.2265Z" fill="url(#paint30_radial_3987_19459)"/>
<path d="M13.3731 22.6415L13.3731 22.6415L13.3726 22.6412C13.2188 22.5612 13.059 22.6107 12.9634 22.7136C12.8677 22.8166 12.832 22.9783 12.9292 23.1221C13.5788 24.1287 14.7106 24.7999 16 24.7999C17.2896 24.7999 18.4215 24.1285 19.071 23.1218C19.1674 22.9738 19.1329 22.8122 19.0364 22.7097C18.9403 22.6077 18.7805 22.5616 18.6274 22.6412L18.6274 22.6412L18.6269 22.6415C17.8674 23.0465 16.9726 23.2783 16 23.2783C15.0371 23.2783 14.1326 23.0465 13.3731 22.6415Z" fill="#2A0219" stroke="url(#paint31_linear_3987_19459)" stroke-width="0.1"/>
<g filter="url(#filter8_i_3987_19459)">
<path d="M18.1293 16.839C18.6242 15.9687 19.3764 15.2812 20.9956 15.2812C21.7045 15.2812 22.3881 15.4777 22.9958 15.9687C23.497 16.3737 23.4299 16.8919 23.0417 17.086L22.005 17.6778C20.7897 17.285 19.4459 17.2318 18.1293 16.839Z" fill="#2D2B2E"/>
</g>
<g filter="url(#filter9_i_3987_19459)">
<path d="M13.871 16.839C13.3762 15.9687 12.6239 15.2812 11.0048 15.2812C10.2958 15.2812 9.61223 15.4777 9.00459 15.9687C8.50339 16.3737 8.57051 16.8919 8.95864 17.086L9.99533 17.6778C11.2106 17.285 12.5545 17.2318 13.871 16.839Z" fill="#272528"/>
</g>
<g filter="url(#filter10_i_3987_19459)">
<path d="M9.66545 14.5853L9.65727 14.59C9.65701 14.5901 9.65676 14.5903 9.6565 14.5904C9.41985 14.7317 9.11315 14.6549 8.97128 14.4185C8.8292 14.1817 8.90627 13.8744 9.14306 13.7323L9.14414 13.7317L9.14606 13.7305L9.15156 13.7273L9.16911 13.7171C9.18368 13.7088 9.20395 13.6974 9.22959 13.6835C9.28086 13.6558 9.35379 13.6178 9.44583 13.5739C9.62954 13.4864 9.8914 13.3742 10.2105 13.2724C10.8442 13.0702 11.7303 12.9 12.6869 13.0688C12.9589 13.1168 13.1404 13.3762 13.0924 13.6481C13.0444 13.9201 12.7851 14.1016 12.5131 14.0536C11.7697 13.9224 11.0559 14.0523 10.5145 14.2251C10.2462 14.3107 10.0268 14.4048 9.87609 14.4767C9.80094 14.5125 9.74341 14.5425 9.706 14.5628C9.68731 14.5729 9.67369 14.5806 9.66545 14.5853Z" fill="#1E1E1E"/>
</g>
<g filter="url(#filter11_i_3987_19459)">
<path fill-rule="evenodd" clip-rule="evenodd" d="M22.957 13.7323C22.9572 13.7324 22.9573 13.7325 22.7001 14.1612L22.957 13.7323C23.1938 13.8744 23.2709 14.1817 23.1288 14.4185C22.9869 14.655 22.6805 14.7318 22.4438 14.5906C22.4436 14.5905 22.4433 14.5903 22.4429 14.59L22.4347 14.5853C22.4264 14.5806 22.4128 14.5729 22.3941 14.5628C22.3567 14.5425 22.2992 14.5125 22.224 14.4767C22.0734 14.4048 21.854 14.3107 21.5856 14.2251C21.0442 14.0523 20.3304 13.9224 19.587 14.0536C19.315 14.1016 19.0557 13.9201 19.0077 13.6481C18.9597 13.3762 19.1413 13.1168 19.4132 13.0688C20.3698 12.9 21.2559 13.0702 21.8896 13.2724C22.2087 13.3742 22.4706 13.4864 22.6543 13.5739C22.7463 13.6178 22.8193 13.6558 22.8705 13.6835C22.8962 13.6974 22.9164 13.7088 22.931 13.7171L22.9485 13.7273L22.954 13.7305L22.956 13.7317L22.957 13.7323Z" fill="#1E1E1E"/>
</g>
<path d="M20.4578 15.3907C21.6754 15.3907 22.704 16.2303 22.9838 17.3647C23.067 17.6899 22.8175 18 22.4847 18H18.325C18.0602 18 17.8485 17.758 17.9014 17.4933C18.1359 16.2983 19.1871 15.3907 20.4578 15.3907Z" fill="white"/>
<path d="M20.072 15.8975C20.9947 15.8975 21.7359 16.6462 21.7359 17.5614C21.7359 17.7126 21.7132 17.8639 21.6754 18H18.4611C18.4233 17.8563 18.4006 17.7126 18.4006 17.5614C18.4006 16.6462 19.1493 15.8975 20.072 15.8975Z" fill="url(#paint32_radial_3987_19459)"/>
<path d="M19.119 17.5614C19.119 17.0319 19.5426 16.6084 20.072 16.6084C20.6014 16.6084 21.0249 17.0319 21.0249 17.5614C21.0249 17.7202 20.9871 17.8714 20.919 18H19.2325C19.1568 17.8714 19.119 17.7202 19.119 17.5614Z" fill="black"/>
<g filter="url(#filter12_f_3987_19459)">
<path d="M19.9496 16.2492C20.0682 16.4078 19.8204 16.6011 19.5387 16.8117C19.2569 17.0224 19.0479 17.1706 18.9294 17.0121C18.8108 16.8535 18.9431 16.5542 19.2249 16.3436C19.5066 16.1329 19.8311 16.0907 19.9496 16.2492Z" fill="#C7A7A3"/>
<path d="M19.9496 16.2492C20.0682 16.4078 19.8204 16.6011 19.5387 16.8117C19.2569 17.0224 19.0479 17.1706 18.9294 17.0121C18.8108 16.8535 18.9431 16.5542 19.2249 16.3436C19.5066 16.1329 19.8311 16.0907 19.9496 16.2492Z" fill="url(#paint33_radial_3987_19459)"/>
</g>
<g filter="url(#filter13_f_3987_19459)">
<path d="M21.5541 17.3423C21.4926 16.9121 21.2409 16.5879 21.1228 16.4796L20.6382 17.0114L20.8569 17.4368L21.5541 17.3423Z" fill="url(#paint34_linear_3987_19459)"/>
</g>
<path d="M11.5422 15.3907C10.3246 15.3907 9.29596 16.2303 9.01612 17.3647C8.93293 17.69 9.18251 18 9.51529 18H13.675C13.9398 18 14.1515 17.758 14.0986 17.4933C13.8641 16.2983 12.8053 15.3907 11.5422 15.3907Z" fill="white"/>
<path d="M11.9279 15.8975C11.0052 15.8975 10.264 16.6462 10.264 17.5614C10.264 17.7126 10.2867 17.8639 10.3245 18H13.5389C13.5767 17.8563 13.5994 17.7126 13.5994 17.5614C13.5918 16.6462 12.8506 15.8975 11.9279 15.8975Z" fill="url(#paint35_radial_3987_19459)"/>
<path d="M12.8809 17.5614C12.8809 17.0319 12.4574 16.6084 11.9279 16.6084C11.3985 16.6084 10.975 17.0319 10.975 17.5614C10.975 17.7202 11.0128 17.8715 11.0809 18H12.7675C12.8355 17.8715 12.8809 17.7202 12.8809 17.5614Z" fill="black"/>
<g filter="url(#filter14_f_3987_19459)">
<path d="M13.448 17.3658C13.448 16.8281 13.0108 16.4697 12.8926 16.3613L12.3549 16.8813L12.6858 17.5549L13.448 17.3658Z" fill="url(#paint36_linear_3987_19459)"/>
</g>
<g filter="url(#filter15_f_3987_19459)">
<ellipse cx="11.4259" cy="16.6083" rx="0.726381" ry="0.367616" transform="rotate(-27.914 11.4259 16.6083)" fill="#C7A7A3" fill-opacity="0.9"/>
<ellipse cx="11.4259" cy="16.6083" rx="0.726381" ry="0.367616" transform="rotate(-27.914 11.4259 16.6083)" fill="url(#paint37_radial_3987_19459)"/>
</g>
<g filter="url(#filter16_f_3987_19459)">
<path d="M19.6161 13.4764C20.2175 13.3301 21.7128 13.4032 22.7124 14.1184" stroke="#323233" stroke-width="0.4" stroke-linecap="round"/>
</g>
<g filter="url(#filter17_f_3987_19459)">
<path d="M12.5482 13.4764C11.9468 13.3301 10.4515 13.4032 9.45187 14.1184" stroke="#323233" stroke-width="0.4" stroke-linecap="round"/>
</g>
<g filter="url(#filter18_f_3987_19459)">
<path d="M14.9003 3.37508C12.7578 2.90884 10.8339 5.0157 10.6119 5.79695C12.6015 12.4063 16.7932 11.5001 22.6049 11.5001C25.5233 11.5001 25.9339 12.9792 26.1875 13.6251C26.1875 6.26568 19.7831 4.43759 14.9003 3.37508Z" fill="#D16C37"/>
<path d="M14.9003 3.37508C12.7578 2.90884 10.8339 5.0157 10.6119 5.79695C12.6015 12.4063 16.7932 11.5001 22.6049 11.5001C25.5233 11.5001 25.9339 12.9792 26.1875 13.6251C26.1875 6.26568 19.7831 4.43759 14.9003 3.37508Z" fill="url(#paint38_radial_3987_19459)"/>
<path d="M14.9003 3.37508C12.7578 2.90884 10.8339 5.0157 10.6119 5.79695C12.6015 12.4063 16.7932 11.5001 22.6049 11.5001C25.5233 11.5001 25.9339 12.9792 26.1875 13.6251C26.1875 6.26568 19.7831 4.43759 14.9003 3.37508Z" fill="url(#paint39_radial_3987_19459)"/>
<path d="M14.9003 3.37508C12.7578 2.90884 10.8339 5.0157 10.6119 5.79695C12.6015 12.4063 16.7932 11.5001 22.6049 11.5001C25.5233 11.5001 25.9339 12.9792 26.1875 13.6251C26.1875 6.26568 19.7831 4.43759 14.9003 3.37508Z" fill="url(#paint40_radial_3987_19459)"/>
<path d="M14.9003 3.37508C12.7578 2.90884 10.8339 5.0157 10.6119 5.79695C12.6015 12.4063 16.7932 11.5001 22.6049 11.5001C25.5233 11.5001 25.9339 12.9792 26.1875 13.6251C26.1875 6.26568 19.7831 4.43759 14.9003 3.37508Z" fill="url(#paint41_radial_3987_19459)"/>
</g>
<g filter="url(#filter19_f_3987_19459)">
<path d="M10.4922 5.56409C10.5356 6.01721 10.9297 7.72034 11.5078 8.75159" stroke="url(#paint42_linear_3987_19459)" stroke-width="0.1" stroke-linecap="round"/>
</g>
<g filter="url(#filter20_f_3987_19459)">
<path d="M21.1273 7.79009H18.4784C17.8172 7.79009 17.2811 8.32615 17.2811 8.98741C17.2811 9.64866 17.8172 10.1847 18.4784 10.1847H21.1273C22.9386 10.1847 24.4097 10.8942 24.9189 11.249C23.7405 8.29563 21.9002 7.71249 21.1273 7.79009Z" fill="#FD8C60"/>
</g>
<g filter="url(#filter21_f_3987_19459)">
<path d="M5.17016 10.4183C5.264 8.23277 6.45746 7.14755 7.26403 6.81726C6.50436 7.75429 6.1461 9.17773 6.1848 10.4618C6.2235 11.7459 6.15916 13.2445 4.67247 15.0887C3.24018 16.8654 3.74951 19.4646 3.89348 20.4821C1.83758 17.7352 3.43248 15.1919 3.86785 14.5224C4.30322 13.853 5.05869 13.0143 5.17016 10.4183Z" fill="#D98C73"/>
</g>
<g filter="url(#filter22_f_3987_19459)">
<path d="M5.90625 10.75C5.90625 7.15 9.01042 5.91667 10.5312 5.75C11.25 8.1875 9.23438 10.8594 7.84375 11.5469C6.265 12.3274 6.03125 13.4062 5.90625 13.875V10.75Z" fill="url(#paint43_linear_3987_19459)"/>
<path d="M5.90625 10.75C5.90625 7.15 9.01042 5.91667 10.5312 5.75C11.25 8.1875 9.23438 10.8594 7.84375 11.5469C6.265 12.3274 6.03125 13.4062 5.90625 13.875V10.75Z" fill="url(#paint44_radial_3987_19459)"/>
</g>
<defs>
<filter id="filter0_ii_3987_19459" x="2" y="1.25" width="28.25" height="29.25" filterUnits="userSpaceOnUse" color-interpolation-filters="sRGB">
<feFlood flood-opacity="0" result="BackgroundImageFix"/>
<feBlend mode="normal" in="SourceGraphic" in2="BackgroundImageFix" result="shape"/>
<feColorMatrix in="SourceAlpha" type="matrix" values="0 0 0 0 0 0 0 0 0 0 0 0 0 0 0 0 0 0 127 0" result="hardAlpha"/>
<feOffset dx="0.25" dy="-0.75"/>
<feGaussianBlur stdDeviation="0.75"/>
<feComposite in2="hardAlpha" operator="arithmetic" k2="-1" k3="1"/>
<feColorMatrix type="matrix" values="0 0 0 0 0.65098 0 0 0 0 0.305882 0 0 0 0 0.4 0 0 0 1 0"/>
<feBlend mode="normal" in2="shape" result="effect1_innerShadow_3987_19459"/>
<feColorMatrix in="SourceAlpha" type="matrix" values="0 0 0 0 0 0 0 0 0 0 0 0 0 0 0 0 0 0 127 0" result="hardAlpha"/>
<feOffset dx="0.25" dy="0.5"/>
<feGaussianBlur stdDeviation="0.25"/>
<feComposite in2="hardAlpha" operator="arithmetic" k2="-1" k3="1"/>
<feColorMatrix type="matrix" values="0 0 0 0 0.862745 0 0 0 0 0.537255 0 0 0 0 0.427451 0 0 0 1 0"/>
<feBlend mode="normal" in2="effect1_innerShadow_3987_19459" result="effect2_innerShadow_3987_19459"/>
</filter>
<filter id="filter1_i_3987_19459" x="4.26404" y="14.9" width="6.15" height="6" filterUnits="userSpaceOnUse" color-interpolation-filters="sRGB">
<feFlood flood-opacity="0" result="BackgroundImageFix"/>
<feBlend mode="normal" in="SourceGraphic" in2="BackgroundImageFix" result="shape"/>
<feColorMatrix in="SourceAlpha" type="matrix" values="0 0 0 0 0 0 0 0 0 0 0 0 0 0 0 0 0 0 127 0" result="hardAlpha"/>
<feOffset dx="0.15"/>
<feGaussianBlur stdDeviation="0.25"/>
<feComposite in2="hardAlpha" operator="arithmetic" k2="-1" k3="1"/>
<feColorMatrix type="matrix" values="0 0 0 0 0.337255 0 0 0 0 0.266667 0 0 0 0 0.25098 0 0 0 1 0"/>
<feBlend mode="normal" in2="shape" result="effect1_innerShadow_3987_19459"/>
</filter>
<filter id="filter2_i_3987_19459" x="22" y="14.65" width="6" height="6.25" filterUnits="userSpaceOnUse" color-interpolation-filters="sRGB">
<feFlood flood-opacity="0" result="BackgroundImageFix"/>
<feBlend mode="normal" in="SourceGraphic" in2="BackgroundImageFix" result="shape"/>
<feColorMatrix in="SourceAlpha" type="matrix" values="0 0 0 0 0 0 0 0 0 0 0 0 0 0 0 0 0 0 127 0" result="hardAlpha"/>
<feOffset dy="-0.25"/>
<feGaussianBlur stdDeviation="0.25"/>
<feComposite in2="hardAlpha" operator="arithmetic" k2="-1" k3="1"/>
<feColorMatrix type="matrix" values="0 0 0 0 0.184314 0 0 0 0 0.0901961 0 0 0 0 0.117647 0 0 0 1 0"/>
<feBlend mode="normal" in2="shape" result="effect1_innerShadow_3987_19459"/>
</filter>
<filter id="filter3_f_3987_19459" x="22.4974" y="15.3975" width="5.00516" height="5.00513" filterUnits="userSpaceOnUse" color-interpolation-filters="sRGB">
<feFlood flood-opacity="0" result="BackgroundImageFix"/>
<feBlend mode="normal" in="SourceGraphic" in2="BackgroundImageFix" result="shape"/>
<feGaussianBlur stdDeviation="0.25" result="effect1_foregroundBlur_3987_19459"/>
</filter>
<filter id="filter4_f_3987_19459" x="5.04736" y="15.6475" width="4.50516" height="4.50513" filterUnits="userSpaceOnUse" color-interpolation-filters="sRGB">
<feFlood flood-opacity="0" result="BackgroundImageFix"/>
<feBlend mode="normal" in="SourceGraphic" in2="BackgroundImageFix" result="shape"/>
<feGaussianBlur stdDeviation="0.125" result="effect1_foregroundBlur_3987_19459"/>
</filter>
<filter id="filter5_i_3987_19459" x="6.5" y="8.75159" width="19" height="20.6788" filterUnits="userSpaceOnUse" color-interpolation-filters="sRGB">
<feFlood flood-opacity="0" result="BackgroundImageFix"/>
<feBlend mode="normal" in="SourceGraphic" in2="BackgroundImageFix" result="shape"/>
<feColorMatrix in="SourceAlpha" type="matrix" values="0 0 0 0 0 0 0 0 0 0 0 0 0 0 0 0 0 0 127 0" result="hardAlpha"/>
<feOffset dy="0.4"/>
<feGaussianBlur stdDeviation="0.3"/>
<feComposite in2="hardAlpha" operator="arithmetic" k2="-1" k3="1"/>
<feColorMatrix type="matrix" values="0 0 0 0 0.14902 0 0 0 0 0.0901961 0 0 0 0 0.0941176 0 0 0 1 0"/>
<feBlend mode="normal" in2="shape" result="effect1_innerShadow_3987_19459"/>
</filter>
<filter id="filter6_f_3987_19459" x="13.4474" y="16.4581" width="4.5" height="6" filterUnits="userSpaceOnUse" color-interpolation-filters="sRGB">
<feFlood flood-opacity="0" result="BackgroundImageFix"/>
<feBlend mode="normal" in="SourceGraphic" in2="BackgroundImageFix" result="shape"/>
<feGaussianBlur stdDeviation="0.25" result="effect1_foregroundBlur_3987_19459"/>
</filter>
<filter id="filter7_f_3987_19459" x="14" y="16.45" width="4" height="5.5" filterUnits="userSpaceOnUse" color-interpolation-filters="sRGB">
<feFlood flood-opacity="0" result="BackgroundImageFix"/>
<feBlend mode="normal" in="SourceGraphic" in2="BackgroundImageFix" result="shape"/>
<feGaussianBlur stdDeviation="0.125" result="effect1_foregroundBlur_3987_19459"/>
</filter>
<filter id="filter8_i_3987_19459" x="17.9293" y="15.2812" width="5.42296" height="2.39661" filterUnits="userSpaceOnUse" color-interpolation-filters="sRGB">
<feFlood flood-opacity="0" result="BackgroundImageFix"/>
<feBlend mode="normal" in="SourceGraphic" in2="BackgroundImageFix" result="shape"/>
<feColorMatrix in="SourceAlpha" type="matrix" values="0 0 0 0 0 0 0 0 0 0 0 0 0 0 0 0 0 0 127 0" result="hardAlpha"/>
<feOffset dx="-0.2"/>
<feGaussianBlur stdDeviation="0.2"/>
<feComposite in2="hardAlpha" operator="arithmetic" k2="-1" k3="1"/>
<feColorMatrix type="matrix" values="0 0 0 0 0.0941176 0 0 0 0 0.0666667 0 0 0 0 0.117647 0 0 0 1 0"/>
<feBlend mode="normal" in2="shape" result="effect1_innerShadow_3987_19459"/>
</filter>
<filter id="filter9_i_3987_19459" x="8.64807" y="15.2812" width="5.42296" height="2.39661" filterUnits="userSpaceOnUse" color-interpolation-filters="sRGB">
<feFlood flood-opacity="0" result="BackgroundImageFix"/>
<feBlend mode="normal" in="SourceGraphic" in2="BackgroundImageFix" result="shape"/>
<feColorMatrix in="SourceAlpha" type="matrix" values="0 0 0 0 0 0 0 0 0 0 0 0 0 0 0 0 0 0 127 0" result="hardAlpha"/>
<feOffset dx="0.2"/>
<feGaussianBlur stdDeviation="0.125"/>
<feComposite in2="hardAlpha" operator="arithmetic" k2="-1" k3="1"/>
<feColorMatrix type="matrix" values="0 0 0 0 0.0862745 0 0 0 0 0.054902 0 0 0 0 0.113725 0 0 0 1 0"/>
<feBlend mode="normal" in2="shape" result="effect1_innerShadow_3987_19459"/>
</filter>
<filter id="filter10_i_3987_19459" x="8.90002" y="12.8" width="4.40007" height="1.86125" filterUnits="userSpaceOnUse" color-interpolation-filters="sRGB">
<feFlood flood-opacity="0" result="BackgroundImageFix"/>
<feBlend mode="normal" in="SourceGraphic" in2="BackgroundImageFix" result="shape"/>
<feColorMatrix in="SourceAlpha" type="matrix" values="0 0 0 0 0 0 0 0 0 0 0 0 0 0 0 0 0 0 127 0" result="hardAlpha"/>
<feOffset dx="0.2" dy="-0.2"/>
<feGaussianBlur stdDeviation="0.15"/>
<feComposite in2="hardAlpha" operator="arithmetic" k2="-1" k3="1"/>
<feColorMatrix type="matrix" values="0 0 0 0 0.0431373 0 0 0 0 0.0235294 0 0 0 0 0.0313726 0 0 0 1 0"/>
<feBlend mode="normal" in2="shape" result="effect1_innerShadow_3987_19459"/>
</filter>
<filter id="filter11_i_3987_19459" x="19" y="12.8" width="4.40007" height="1.86125" filterUnits="userSpaceOnUse" color-interpolation-filters="sRGB">
<feFlood flood-opacity="0" result="BackgroundImageFix"/>
<feBlend mode="normal" in="SourceGraphic" in2="BackgroundImageFix" result="shape"/>
<feColorMatrix in="SourceAlpha" type="matrix" values="0 0 0 0 0 0 0 0 0 0 0 0 0 0 0 0 0 0 127 0" result="hardAlpha"/>
<feOffset dx="0.2" dy="-0.2"/>
<feGaussianBlur stdDeviation="0.15"/>
<feComposite in2="hardAlpha" operator="arithmetic" k2="-1" k3="1"/>
<feColorMatrix type="matrix" values="0 0 0 0 0.0431373 0 0 0 0 0.0235294 0 0 0 0 0.0313726 0 0 0 1 0"/>
<feBlend mode="normal" in2="shape" result="effect1_innerShadow_3987_19459"/>
</filter>
<filter id="filter12_f_3987_19459" x="18.7859" y="16.0532" width="1.29409" height="1.12542" filterUnits="userSpaceOnUse" color-interpolation-filters="sRGB">
<feFlood flood-opacity="0" result="BackgroundImageFix"/>
<feBlend mode="normal" in="SourceGraphic" in2="BackgroundImageFix" result="shape"/>
<feGaussianBlur stdDeviation="0.05" result="effect1_foregroundBlur_3987_19459"/>
</filter>
<filter id="filter13_f_3987_19459" x="20.4382" y="16.2796" width="1.31586" height="1.35715" filterUnits="userSpaceOnUse" color-interpolation-filters="sRGB">
<feFlood flood-opacity="0" result="BackgroundImageFix"/>
<feBlend mode="normal" in="SourceGraphic" in2="BackgroundImageFix" result="shape"/>
<feGaussianBlur stdDeviation="0.1" result="effect1_foregroundBlur_3987_19459"/>
</filter>
<filter id="filter14_f_3987_19459" x="12.1549" y="16.1613" width="1.49311" height="1.5936" filterUnits="userSpaceOnUse" color-interpolation-filters="sRGB">
<feFlood flood-opacity="0" result="BackgroundImageFix"/>
<feBlend mode="normal" in="SourceGraphic" in2="BackgroundImageFix" result="shape"/>
<feGaussianBlur stdDeviation="0.1" result="effect1_foregroundBlur_3987_19459"/>
</filter>
<filter id="filter15_f_3987_19459" x="10.6612" y="16.0381" width="1.52941" height="1.14055" filterUnits="userSpaceOnUse" color-interpolation-filters="sRGB">
<feFlood flood-opacity="0" result="BackgroundImageFix"/>
<feBlend mode="normal" in="SourceGraphic" in2="BackgroundImageFix" result="shape"/>
<feGaussianBlur stdDeviation="0.05" result="effect1_foregroundBlur_3987_19459"/>
</filter>
<filter id="filter16_f_3987_19459" x="19.016" y="12.8142" width="4.2964" height="1.90425" filterUnits="userSpaceOnUse" color-interpolation-filters="sRGB">
<feFlood flood-opacity="0" result="BackgroundImageFix"/>
<feBlend mode="normal" in="SourceGraphic" in2="BackgroundImageFix" result="shape"/>
<feGaussianBlur stdDeviation="0.2" result="effect1_foregroundBlur_3987_19459"/>
</filter>
<filter id="filter17_f_3987_19459" x="8.85186" y="12.8142" width="4.2964" height="1.90425" filterUnits="userSpaceOnUse" color-interpolation-filters="sRGB">
<feFlood flood-opacity="0" result="BackgroundImageFix"/>
<feBlend mode="normal" in="SourceGraphic" in2="BackgroundImageFix" result="shape"/>
<feGaussianBlur stdDeviation="0.2" result="effect1_foregroundBlur_3987_19459"/>
</filter>
<filter id="filter18_f_3987_19459" x="9.86194" y="2.55847" width="17.0756" height="11.8165" filterUnits="userSpaceOnUse" color-interpolation-filters="sRGB">
<feFlood flood-opacity="0" result="BackgroundImageFix"/>
<feBlend mode="normal" in="SourceGraphic" in2="BackgroundImageFix" result="shape"/>
<feGaussianBlur stdDeviation="0.375" result="effect1_foregroundBlur_3987_19459"/>
</filter>
<filter id="filter19_f_3987_19459" x="10.2422" y="5.31404" width="1.51566" height="3.6876" filterUnits="userSpaceOnUse" color-interpolation-filters="sRGB">
<feFlood flood-opacity="0" result="BackgroundImageFix"/>
<feBlend mode="normal" in="SourceGraphic" in2="BackgroundImageFix" result="shape"/>
<feGaussianBlur stdDeviation="0.1" result="effect1_foregroundBlur_3987_19459"/>
</filter>
<filter id="filter20_f_3987_19459" x="15.2811" y="5.78357" width="11.6378" height="7.46545" filterUnits="userSpaceOnUse" color-interpolation-filters="sRGB">
<feFlood flood-opacity="0" result="BackgroundImageFix"/>
<feBlend mode="normal" in="SourceGraphic" in2="BackgroundImageFix" result="shape"/>
<feGaussianBlur stdDeviation="1" result="effect1_foregroundBlur_3987_19459"/>
</filter>
<filter id="filter21_f_3987_19459" x="1.6171" y="5.56726" width="6.89694" height="16.1649" filterUnits="userSpaceOnUse" color-interpolation-filters="sRGB">
<feFlood flood-opacity="0" result="BackgroundImageFix"/>
<feBlend mode="normal" in="SourceGraphic" in2="BackgroundImageFix" result="shape"/>
<feGaussianBlur stdDeviation="0.625" result="effect1_foregroundBlur_3987_19459"/>
</filter>
<filter id="filter22_f_3987_19459" x="4.90625" y="4.75" width="6.77542" height="10.125" filterUnits="userSpaceOnUse" color-interpolation-filters="sRGB">
<feFlood flood-opacity="0" result="BackgroundImageFix"/>
<feBlend mode="normal" in="SourceGraphic" in2="BackgroundImageFix" result="shape"/>
<feGaussianBlur stdDeviation="0.5" result="effect1_foregroundBlur_3987_19459"/>
</filter>
<linearGradient id="paint0_linear_3987_19459" x1="24.125" y1="6.3125" x2="10.25" y2="22.5" gradientUnits="userSpaceOnUse">
<stop stop-color="#E3875E"/>
<stop offset="1" stop-color="#B25734"/>
</linearGradient>
<radialGradient id="paint1_radial_3987_19459" cx="0" cy="0" r="1" gradientUnits="userSpaceOnUse" gradientTransform="translate(15.1875 21) rotate(90) scale(10.5625 11.686)">
<stop offset="0.574665" stop-color="#9F3D3D"/>
<stop offset="1" stop-color="#9F3D3D" stop-opacity="0"/>
</radialGradient>
<radialGradient id="paint2_radial_3987_19459" cx="0" cy="0" r="1" gradientUnits="userSpaceOnUse" gradientTransform="translate(6.9375 18.9375) rotate(90) scale(3.09375 2.85937)">
<stop offset="0.37811" stop-color="#8F3727"/>
<stop offset="1" stop-color="#8F3727" stop-opacity="0"/>
</radialGradient>
<radialGradient id="paint3_radial_3987_19459" cx="0" cy="0" r="1" gradientUnits="userSpaceOnUse" gradientTransform="translate(25.1875 20.7031) rotate(43.5312) scale(1.72414 1.75367)">
<stop stop-color="#B9583B"/>
<stop offset="1" stop-color="#B9583B" stop-opacity="0"/>
</radialGradient>
<radialGradient id="paint4_radial_3987_19459" cx="0" cy="0" r="1" gradientUnits="userSpaceOnUse" gradientTransform="translate(31.1875 22.3125) rotate(71.0124) scale(6.14696 6.86389)">
<stop stop-color="#EE8B5F"/>
<stop offset="1" stop-color="#EE8B5F" stop-opacity="0"/>
</radialGradient>
<radialGradient id="paint5_radial_3987_19459" cx="0" cy="0" r="1" gradientUnits="userSpaceOnUse" gradientTransform="translate(23.9375 10.1875) rotate(72.1213) scale(6.10744 6.14005)">
<stop stop-color="#DF8D6B"/>
<stop offset="1" stop-color="#DF8D6B" stop-opacity="0"/>
</radialGradient>
<radialGradient id="paint6_radial_3987_19459" cx="0" cy="0" r="1" gradientUnits="userSpaceOnUse" gradientTransform="translate(24.8125 15.1875) rotate(-112.011) scale(4.75267 2.95369)">
<stop offset="0.342512" stop-color="#AD4325"/>
<stop offset="1" stop-color="#AD4325" stop-opacity="0"/>
</radialGradient>
<radialGradient id="paint7_radial_3987_19459" cx="0" cy="0" r="1" gradientUnits="userSpaceOnUse" gradientTransform="translate(6.875 16) rotate(-73.1416) scale(4.31024 2.51431)">
<stop offset="0.374264" stop-color="#88311C"/>
<stop offset="1" stop-color="#88311C" stop-opacity="0"/>
</radialGradient>
<radialGradient id="paint8_radial_3987_19459" cx="0" cy="0" r="1" gradientUnits="userSpaceOnUse" gradientTransform="translate(10.0625 3.3125) rotate(61.742) scale(5.6765 14.6754)">
<stop stop-color="#B26D56"/>
<stop offset="1" stop-color="#B26D56" stop-opacity="0"/>
</radialGradient>
<radialGradient id="paint9_radial_3987_19459" cx="0" cy="0" r="1" gradientUnits="userSpaceOnUse" gradientTransform="translate(2.4375 13.3437) rotate(26.5651) scale(3.00472 9.60112)">
<stop offset="0.255814" stop-color="#D78B73"/>
<stop offset="1" stop-color="#D78B73" stop-opacity="0"/>
</radialGradient>
<radialGradient id="paint10_radial_3987_19459" cx="0" cy="0" r="1" gradientUnits="userSpaceOnUse" gradientTransform="translate(11.125 10.1406) rotate(-95.0131) scale(2.68213 0.961767)">
<stop offset="0.232438" stop-color="#902B1B"/>
<stop offset="1" stop-color="#902B1B" stop-opacity="0"/>
</radialGradient>
<linearGradient id="paint11_linear_3987_19459" x1="4.26404" y1="18.0625" x2="9.7814" y2="18.0625" gradientUnits="userSpaceOnUse">
<stop stop-color="#392526"/>
<stop offset="1" stop-color="#2A1C1F"/>
</linearGradient>
<radialGradient id="paint12_radial_3987_19459" cx="0" cy="0" r="1" gradientUnits="userSpaceOnUse" gradientTransform="translate(23.5314 18.7188) rotate(-24.444) scale(5.09754 6.22385)">
<stop offset="0.63975" stop-color="#493033"/>
<stop offset="0.94391" stop-color="#6A5956"/>
</radialGradient>
<radialGradient id="paint13_radial_3987_19459" cx="0" cy="0" r="1" gradientUnits="userSpaceOnUse" gradientTransform="translate(25.4531 14.7657) rotate(29.2711) scale(2.8122 0.795051)">
<stop stop-color="#402824"/>
<stop offset="1" stop-color="#402824" stop-opacity="0"/>
</radialGradient>
<radialGradient id="paint14_radial_3987_19459" cx="0" cy="0" r="1" gradientUnits="userSpaceOnUse" gradientTransform="translate(24.1875 18.1094) rotate(-4.25413) scale(2.82284 2.20668)">
<stop offset="0.719132" stop-color="#371D1F" stop-opacity="0"/>
<stop offset="1" stop-color="#371D1F"/>
</radialGradient>
<radialGradient id="paint15_radial_3987_19459" cx="0" cy="0" r="1" gradientUnits="userSpaceOnUse" gradientTransform="translate(7.42184 17.9) rotate(180) scale(2.25 1.77497)">
<stop offset="0.666667" stop-color="#2D181A" stop-opacity="0"/>
<stop offset="1" stop-color="#2D181A"/>
</radialGradient>
<radialGradient id="paint16_radial_3987_19459" cx="0" cy="0" r="1" gradientUnits="userSpaceOnUse" gradientTransform="translate(21.3308 16.8978) rotate(155.244) scale(13.3525 17.872)">
<stop stop-color="#4F322E"/>
<stop offset="1" stop-color="#402A29"/>
</radialGradient>
<radialGradient id="paint17_radial_3987_19459" cx="0" cy="0" r="1" gradientUnits="userSpaceOnUse" gradientTransform="translate(19.4063 18.4687) rotate(154.513) scale(4.2061 2.92906)">
<stop stop-color="#533632"/>
<stop offset="1" stop-color="#533632" stop-opacity="0"/>
</radialGradient>
<radialGradient id="paint18_radial_3987_19459" cx="0" cy="0" r="1" gradientUnits="userSpaceOnUse" gradientTransform="translate(11.9361 29.5433) rotate(-72.8383) scale(6.78284 8.60617)">
<stop stop-color="#3A1F30"/>
<stop offset="1" stop-color="#3A1F30" stop-opacity="0"/>
</radialGradient>
<radialGradient id="paint19_radial_3987_19459" cx="0" cy="0" r="1" gradientUnits="userSpaceOnUse" gradientTransform="translate(17.0073 17.1904) rotate(96.7269) scale(12.7659 12.8343)">
<stop offset="0.72739" stop-color="#3F243B" stop-opacity="0"/>
<stop offset="1" stop-color="#3F243B"/>
</radialGradient>
<radialGradient id="paint20_radial_3987_19459" cx="0" cy="0" r="1" gradientUnits="userSpaceOnUse" gradientTransform="translate(15.5119 17.625) rotate(90) scale(12.2434 12.309)">
<stop offset="0.857603" stop-color="#5C4761" stop-opacity="0"/>
<stop offset="1" stop-color="#5C4761"/>
</radialGradient>
<radialGradient id="paint21_radial_3987_19459" cx="0" cy="0" r="1" gradientUnits="userSpaceOnUse" gradientTransform="translate(19.375 20.125) rotate(168.897) scale(13.1206 22.5896)">
<stop offset="0.794964" stop-color="#5E4543" stop-opacity="0"/>
<stop offset="1" stop-color="#5E4543"/>
</radialGradient>
<radialGradient id="paint22_radial_3987_19459" cx="0" cy="0" r="1" gradientUnits="userSpaceOnUse" gradientTransform="translate(20.2906 16.1176) rotate(-90) scale(2.14551 2.63313)">
<stop stop-color="#43272A"/>
<stop offset="1" stop-color="#43272A" stop-opacity="0"/>
</radialGradient>
<radialGradient id="paint23_radial_3987_19459" cx="0" cy="0" r="1" gradientUnits="userSpaceOnUse" gradientTransform="translate(12.1286 15.6915) rotate(-90) scale(2.44707 2.8045)">
<stop stop-color="#371E27"/>
<stop offset="1" stop-color="#371E27" stop-opacity="0"/>
</radialGradient>
<radialGradient id="paint24_radial_3987_19459" cx="0" cy="0" r="1" gradientUnits="userSpaceOnUse" gradientTransform="translate(25.5 18.891) rotate(180) scale(2.3963 12.0172)">
<stop stop-color="#59403D"/>
<stop offset="1" stop-color="#59403D" stop-opacity="0"/>
</radialGradient>
<radialGradient id="paint25_radial_3987_19459" cx="0" cy="0" r="1" gradientUnits="userSpaceOnUse" gradientTransform="translate(17.4624 20.2461) rotate(-102.564) scale(3.90438 1.20329)">
<stop offset="0.0168227" stop-color="#634D4B"/>
<stop offset="1" stop-color="#634D4B" stop-opacity="0"/>
</radialGradient>
<linearGradient id="paint26_linear_3987_19459" x1="14.25" y1="20.3819" x2="16" y2="20.3819" gradientUnits="userSpaceOnUse">
<stop stop-color="#3D2928"/>
<stop offset="1" stop-color="#3D2928" stop-opacity="0"/>
</linearGradient>
<linearGradient id="paint27_linear_3987_19459" x1="16" y1="21.8715" x2="16" y2="20.7337" gradientUnits="userSpaceOnUse">
<stop stop-color="#3A1F30"/>
<stop offset="1" stop-color="#3A1F30" stop-opacity="0"/>
</linearGradient>
<radialGradient id="paint28_radial_3987_19459" cx="0" cy="0" r="1" gradientUnits="userSpaceOnUse" gradientTransform="translate(17.0156 20.6406) rotate(-180) scale(1.45312 0.40625)">
<stop stop-color="#655251"/>
<stop offset="1" stop-color="#655251" stop-opacity="0"/>
</radialGradient>
<linearGradient id="paint29_linear_3987_19459" x1="16.1458" y1="21.8227" x2="16.1458" y2="21.5627" gradientUnits="userSpaceOnUse">
<stop stop-color="#311620"/>
<stop offset="1" stop-color="#311620" stop-opacity="0"/>
</linearGradient>
<radialGradient id="paint30_radial_3987_19459" cx="0" cy="0" r="1" gradientUnits="userSpaceOnUse" gradientTransform="translate(16.7031 19.5312) rotate(145.529) scale(3.101 3.72692)">
<stop offset="0.777645" stop-color="#2D151C" stop-opacity="0"/>
<stop offset="1" stop-color="#2D151C"/>
</radialGradient>
<linearGradient id="paint31_linear_3987_19459" x1="14.0156" y1="24.5" x2="14.875" y2="23.1718" gradientUnits="userSpaceOnUse">
<stop stop-color="#564848"/>
<stop offset="0.663171" stop-color="#564848" stop-opacity="0"/>
</linearGradient>
<radialGradient id="paint32_radial_3987_19459" cx="0" cy="0" r="1" gradientUnits="userSpaceOnUse" gradientTransform="translate(20.0682 16.7868) rotate(90) scale(1.51263 2.406)">
<stop offset="0.80198" stop-color="#7D574A"/>
<stop offset="1" stop-color="#694B43"/>
<stop offset="1" stop-color="#804D49"/>
<stop offset="1" stop-color="#664944"/>
</radialGradient>
<radialGradient id="paint33_radial_3987_19459" cx="0" cy="0" r="1" gradientUnits="userSpaceOnUse" gradientTransform="translate(19.6428 16.9437) rotate(-127.812) scale(0.705281 0.971003)">
<stop offset="0.765532" stop-color="#FFE6E2" stop-opacity="0"/>
<stop offset="0.966159" stop-color="#FFE6E2"/>
</radialGradient>
<linearGradient id="paint34_linear_3987_19459" x1="21.5186" y1="16.8873" x2="20.9337" y2="17.2477" gradientUnits="userSpaceOnUse">
<stop stop-color="#B4948D"/>
<stop offset="1" stop-color="#B4948D" stop-opacity="0"/>
</linearGradient>
<radialGradient id="paint35_radial_3987_19459" cx="0" cy="0" r="1" gradientUnits="userSpaceOnUse" gradientTransform="translate(11.9317 16.7868) rotate(90) scale(1.51264 2.40602)">
<stop offset="0.80198" stop-color="#7D574A"/>
<stop offset="1" stop-color="#694B43"/>
<stop offset="1" stop-color="#804D49"/>
<stop offset="1" stop-color="#664944"/>
</radialGradient>
<linearGradient id="paint36_linear_3987_19459" x1="13.3185" y1="16.8872" x2="12.7335" y2="17.2476" gradientUnits="userSpaceOnUse">
<stop stop-color="#B4948D"/>
<stop offset="1" stop-color="#B4948D" stop-opacity="0"/>
</linearGradient>
<radialGradient id="paint37_radial_3987_19459" cx="0" cy="0" r="1" gradientUnits="userSpaceOnUse" gradientTransform="translate(11.3978 17.1954) rotate(-90.897) scale(0.921243 1.10737)">
<stop offset="0.765532" stop-color="#FFE6E2" stop-opacity="0"/>
<stop offset="0.966159" stop-color="#FFE6E2"/>
</radialGradient>
<radialGradient id="paint38_radial_3987_19459" cx="0" cy="0" r="1" gradientUnits="userSpaceOnUse" gradientTransform="translate(19.689 3.1247) rotate(114.129) scale(9.17718 16.6645)">
<stop offset="0.595085" stop-color="#B14C3D" stop-opacity="0"/>
<stop offset="1" stop-color="#B14C3D"/>
</radialGradient>
<radialGradient id="paint39_radial_3987_19459" cx="0" cy="0" r="1" gradientUnits="userSpaceOnUse" gradientTransform="translate(20.4461 5.31227) rotate(105.092) scale(6.19342 11.1456)">
<stop stop-color="#ED804D"/>
<stop offset="1" stop-color="#ED804D" stop-opacity="0"/>
</radialGradient>
<radialGradient id="paint40_radial_3987_19459" cx="0" cy="0" r="1" gradientUnits="userSpaceOnUse" gradientTransform="translate(18.5218 15.5002) rotate(-119.297) scale(13.4738 12.1205)">
<stop offset="0.900418" stop-color="#BC7962" stop-opacity="0"/>
<stop offset="1" stop-color="#BC7962"/>
</radialGradient>
<radialGradient id="paint41_radial_3987_19459" cx="0" cy="0" r="1" gradientUnits="userSpaceOnUse" gradientTransform="translate(17.8241 13.9526) rotate(-55.3804) scale(10.0376 15.7485)">
<stop offset="0.773365" stop-color="#E18E6D" stop-opacity="0"/>
<stop offset="0.931397" stop-color="#E18E6D"/>
</radialGradient>
<linearGradient id="paint42_linear_3987_19459" x1="10.7187" y1="6.57808" x2="11.3125" y2="8.67183" gradientUnits="userSpaceOnUse">
<stop offset="0.538144" stop-color="#BD5422"/>
<stop offset="1" stop-color="#9E3623" stop-opacity="0"/>
</linearGradient>
<linearGradient id="paint43_linear_3987_19459" x1="11.25" y1="6.3125" x2="7.0625" y2="10.8125" gradientUnits="userSpaceOnUse">
<stop stop-color="#DA7240"/>
<stop offset="1" stop-color="#DA7240" stop-opacity="0"/>
</linearGradient>
<radialGradient id="paint44_radial_3987_19459" cx="0" cy="0" r="1" gradientUnits="userSpaceOnUse" gradientTransform="translate(11 8.0625) rotate(121.95) scale(3.42512 1.76887)">
<stop stop-color="#C97250"/>
<stop offset="1" stop-color="#C97250" stop-opacity="0"/>
</radialGradient>
</defs>
</svg>
