<svg width="32" height="32" viewBox="0 0 32 32" fill="none" xmlns="http://www.w3.org/2000/svg">
<path d="M15.9587 18.999C15.9773 18.9996 15.9959 19 16.0145 19C16.2997 19 16.5793 18.9225 16.8221 18.7762C18.2528 17.8958 19.9176 16.5981 21.3869 15.1236C21.6673 15.0473 21.9575 15.0083 22.2501 15.0083C22.7746 15.0083 23.2915 15.1337 23.7577 15.3741C24.2239 15.6144 24.6259 15.9627 24.9301 16.39C24.9818 16.4609 25.0495 16.5187 25.1277 16.5586C25.2059 16.5986 25.2923 16.6196 25.3801 16.62C25.8122 16.62 26.24 16.7051 26.6391 16.8704C27.0383 17.0358 27.401 17.2781 27.7065 17.5836C28.012 17.8891 28.2543 18.2518 28.4197 18.6509C28.585 19.0501 28.6701 19.4779 28.6701 19.91C28.6683 20.5393 28.8527 21.1552 29.2001 21.68C29.5167 22.1537 29.7037 22.7021 29.7423 23.2706C29.7809 23.8391 29.6698 24.4078 29.4201 24.92C29.3897 24.9931 29.3749 25.0718 29.3766 25.151C29.3784 25.2302 29.3966 25.3082 29.4301 25.38C29.6403 25.8203 29.7497 26.302 29.7501 26.79C29.7501 27.6413 29.4119 28.4578 28.8099 29.0598C28.2079 29.6618 27.3915 30 26.5401 30H17.9601C17.5386 30 17.1212 29.9169 16.7317 29.7556C16.3422 29.5943 15.9884 29.3579 15.6903 29.0598C15.3922 28.7617 15.1558 28.4078 14.9945 28.0184C14.8331 27.6289 14.7501 27.2115 14.7501 26.79C14.7506 26.302 14.8599 25.8203 15.0701 25.38C15.1047 25.3082 15.1226 25.2296 15.1226 25.15C15.1226 25.0703 15.1047 24.9917 15.0701 24.92C14.861 24.4757 14.7517 23.991 14.7501 23.5C14.7447 22.8485 14.9364 22.2105 15.3001 21.67C15.6475 21.1452 15.8319 20.5293 15.8301 19.9C15.831 19.5924 15.875 19.2894 15.9587 18.999Z" fill="black"/>
<path d="M19.25 23.75C19.25 24.7165 18.4665 25.5 17.5 25.5C16.5335 25.5 15.75 24.7165 15.75 23.75C15.75 22.7835 16.5335 22 17.5 22C18.4665 22 19.25 22.7835 19.25 23.75Z" fill="#4E3233"/>
<path d="M29 23.75C29 24.7165 28.2165 25.5 27.25 25.5C26.2835 25.5 25.5 24.7165 25.5 23.75C25.5 22.7835 26.2835 22 27.25 22C28.2165 22 29 22.7835 29 23.75Z" fill="#4E3233"/>
<path d="M26.1518 20.3602H22.9818C22.3612 20.3609 21.7499 20.2101 21.2009 19.9208C20.652 19.6315 20.182 19.2125 19.8318 18.7002C19.8048 18.6628 19.7685 18.6333 19.7264 18.6146C19.6843 18.596 19.638 18.5888 19.5922 18.5939C19.5464 18.599 19.5028 18.6161 19.4659 18.6436C19.4289 18.671 19.3999 18.7078 19.3818 18.7502L19.3018 18.9402C19.0775 19.4819 18.6557 19.918 18.1218 20.1602C17.8247 20.295 17.5454 20.517 17.411 20.7572C17.269 21.0109 17.2034 21.3001 17.2218 21.5902L17.3518 24.7502C17.3647 25.3792 17.502 25.9995 17.7557 26.5752C18.0094 27.151 18.3744 27.6709 18.8299 28.105C19.2853 28.539 19.8222 28.8787 20.4094 29.1044C20.9967 29.3302 21.6229 29.4375 22.2518 29.4202C22.8807 29.4375 23.5069 29.3302 24.0941 29.1044C24.6814 28.8787 25.2182 28.539 25.6737 28.105C26.1291 27.6709 26.4942 27.151 26.7479 26.5752C27.0016 25.9995 27.1388 25.3792 27.1518 24.7502L27.2718 21.7502C27.2618 20.4502 26.3318 20.3602 26.1518 20.3602Z" fill="#573739"/>
<path d="M22.0086 23.2341L21.4886 24.829C21.4638 24.9061 21.4583 24.9876 21.4726 25.067C21.4869 25.1465 21.5207 25.2217 21.5711 25.2867C21.6216 25.3517 21.6874 25.4047 21.7633 25.4416C21.8393 25.4784 21.9233 25.4981 22.0086 25.499H22.7486C22.8374 25.5042 22.9261 25.489 23.0072 25.4548C23.0884 25.4206 23.1595 25.3683 23.2146 25.3024C23.2696 25.2365 23.307 25.159 23.3233 25.0766C23.3397 24.9941 23.3347 24.9092 23.3086 24.829L22.7486 23.2341C22.7185 23.1648 22.6672 23.1056 22.6014 23.0639C22.5355 23.0223 22.458 23 22.3786 23C22.2993 23 22.2218 23.0223 22.1559 23.0639C22.09 23.1056 22.0388 23.1648 22.0086 23.2341Z" fill="#3D2123"/>
<path d="M21.0441 23.0278C21.0772 23.0095 21.1141 23 21.1515 23C21.1989 23.0028 21.2447 23.0192 21.2839 23.0475C21.3231 23.0757 21.3542 23.1148 21.3737 23.1603C21.3933 23.2058 21.4007 23.2561 21.395 23.3057C21.3893 23.3553 21.3708 23.4023 21.3415 23.4416C21.2007 23.6166 21.0253 23.7572 20.8275 23.8536C20.6298 23.95 20.4144 24 20.1965 24C19.9785 24 19.7632 23.95 19.5654 23.8536C19.3677 23.7572 19.1923 23.6166 19.0515 23.4416C19.0222 23.4023 19.0037 23.3553 18.998 23.3057C18.9923 23.2561 18.9996 23.2058 19.0192 23.1603C19.0388 23.1148 19.0699 23.0757 19.109 23.0475C19.1482 23.0192 19.194 23.0028 19.2415 23C19.2784 23.0023 19.3145 23.0129 19.3473 23.031C19.38 23.0491 19.4088 23.0744 19.4315 23.1052C19.5254 23.2206 19.6419 23.3132 19.7731 23.3768C19.9043 23.4403 20.047 23.4732 20.1915 23.4732C20.3371 23.4713 20.4807 23.4377 20.6133 23.3743C20.7458 23.3109 20.8644 23.2193 20.9615 23.1052C20.9826 23.0727 21.011 23.0462 21.0441 23.0278Z" fill="black"/>
<path d="M25.45 23.0289C25.4846 23.0107 25.5226 23.0009 25.5613 23.0001C25.6088 23.0029 25.6546 23.0193 25.6937 23.0476C25.7329 23.0759 25.764 23.115 25.7836 23.1605C25.8032 23.2061 25.8105 23.2564 25.8048 23.3061C25.7991 23.3557 25.7806 23.4028 25.7513 23.4422C25.6081 23.6156 25.4316 23.7551 25.2333 23.8512C25.035 23.9474 24.8196 23.9981 24.6013 24C24.3845 23.998 24.1706 23.9472 23.974 23.8509C23.7773 23.7547 23.6025 23.6153 23.4613 23.4422C23.4278 23.4042 23.4057 23.3566 23.3978 23.3055C23.3899 23.2544 23.3965 23.2019 23.4168 23.1547C23.437 23.1075 23.4701 23.0676 23.5119 23.0401C23.5536 23.0126 23.6021 22.9987 23.6513 23.0001C23.6883 23.0024 23.7244 23.013 23.7571 23.0311C23.7899 23.0493 23.8186 23.0746 23.8413 23.1054C23.9352 23.2209 24.0518 23.3136 24.1829 23.3772C24.3141 23.4408 24.4569 23.4737 24.6013 23.4737C24.7458 23.4737 24.8885 23.4408 25.0197 23.3772C25.1509 23.3136 25.2674 23.2209 25.3613 23.1054C25.3851 23.0733 25.4154 23.0471 25.45 23.0289Z" fill="black"/>
<path d="M18.8909 21.7065C19.3429 21.3982 19.7953 21.25 20.5 21.25C20.6381 21.25 20.75 21.1381 20.75 21C20.75 20.8619 20.6381 20.75 20.5 20.75C19.7048 20.75 19.1521 20.9231 18.6091 21.2935C18.4951 21.3713 18.4657 21.5268 18.5435 21.6409C18.6213 21.7549 18.7768 21.7843 18.8909 21.7065Z" fill="black"/>
<path d="M24 20.75C23.862 20.75 23.75 20.8619 23.75 21C23.75 21.1381 23.862 21.25 24 21.25C24.7048 21.25 25.1571 21.3982 25.6091 21.7065C25.7232 21.7843 25.8787 21.7549 25.9565 21.6409C26.0344 21.5268 26.005 21.3713 25.8909 21.2935C25.3479 20.9231 24.7953 20.75 24 20.75Z" fill="black"/>
<path d="M21.25 28.49C21.3163 28.49 21.3799 28.4637 21.4268 28.4168C21.4737 28.3699 21.5 28.3063 21.5 28.24C21.5 28.1737 21.4737 28.1101 21.4268 28.0632C21.3799 28.0163 21.3163 27.99 21.25 27.99C21.2137 27.9974 21.1762 27.9966 21.1403 27.9877C21.1043 27.9788 21.0708 27.962 21.0421 27.9386C21.0134 27.9151 20.9903 27.8856 20.9744 27.8521C20.9585 27.8186 20.9503 27.7821 20.9503 27.745C20.9503 27.708 20.9585 27.6714 20.9744 27.6379C20.9903 27.6044 21.0134 27.5749 21.0421 27.5514C21.0708 27.528 21.1043 27.5112 21.1403 27.5023C21.1762 27.4934 21.2137 27.4926 21.25 27.5C21.3163 27.5 21.3799 27.4737 21.4268 27.4268C21.4737 27.3799 21.5 27.3163 21.5 27.25C21.5 27.1837 21.4737 27.1201 21.4268 27.0732C21.3799 27.0263 21.3163 27 21.25 27C21.1837 27 21.1201 26.9737 21.0733 26.9268C21.0264 26.8799 21 26.8163 21 26.75C21 26.6837 21.0264 26.6201 21.0733 26.5732C21.1201 26.5263 21.1837 26.5 21.25 26.5C21.3163 26.5 21.3799 26.4737 21.4268 26.4268C21.4737 26.3799 21.5 26.3163 21.5 26.25C21.5 26.1837 21.4737 26.1201 21.4268 26.0732C21.3799 26.0263 21.3163 26 21.25 26C21.0519 26.0026 20.8627 26.0824 20.7226 26.2225C20.5825 26.3626 20.5026 26.5519 20.5 26.75C20.4988 26.9345 20.5666 27.1129 20.69 27.25C20.5664 27.383 20.4984 27.5584 20.5 27.74C20.5 27.9389 20.579 28.1297 20.7197 28.2703C20.8604 28.411 21.0511 28.49 21.25 28.49Z" fill="black"/>
</svg>
