<svg width="32" height="32" viewBox="0 0 32 32" fill="none" xmlns="http://www.w3.org/2000/svg">
<path d="M28.517 12H27.675C27.485 11.405 27.216 10.846 26.887 10.33L27.617 9.6C28.008 9.209 28.008 8.577 27.617 8.186C27.324 7.893 26.895 7.82 26.534 7.966C26.834 7.553 27.017 7.05 27.017 6.5C27.016 5.119 25.898 4.001 24.517 4H22.017C21.674 4 21.34 4.033 21.01 4.081C21.04 3.7 20.854 3.319 20.498 3.123C20.345 3.04 20.181 3 20.018 3C19.664 3 19.323 3.188 19.14 3.519L18.713 4.297C18.179 4.15 17.61 4.053 17.017 4.019V3C17.017 2.447 16.57 2 16.017 2C15.465 2 15.017 2.447 15.017 3V4.139C14.639 4.207 14.274 4.301 13.927 4.417L12.824 2.909C12.628 2.642 12.324 2.5 12.016 2.5C11.811 2.5 11.604 2.562 11.427 2.693C10.98 3.019 10.883 3.645 11.209 4.091L12.12 5.335C12.091 5.356 12.065 5.38 12.037 5.402H12C11.318 5.402 10.656 5.485 10.017 5.629V5.5C10.017 4.119 8.898 3 7.517 3C6.136 3 5.017 4.119 5.017 5.5V6.6L4.724 6.293C4.528 6.098 4.272 6 4.017 6C3.762 6 3.505 6.098 3.31 6.293C2.919 6.684 2.919 7.316 3.31 7.707L4.779 9.047C3.667 10.544 3 12.393 3 14.402V15.773C3 17.561 3.896 19.134 5.259 20.084C5.643 20.671 6.108 21.21 6.659 21.67L15.28 28.864C16.629 30.182 18.481 31 20.517 31C22.585 31 24.466 30.159 25.82 28.804L25.821 28.803C27.176 27.449 28.017 25.567 28.017 23.5V14.189C28.017 14.125 28.009 14.063 28.007 14H28.517C29.07 14 29.517 13.553 29.517 13C29.517 12.447 29.069 12 28.517 12ZM24.406 27.389C23.407 28.386 22.039 29 20.517 29C18.995 29 17.626 28.386 16.628 27.389L16.596 27.357L8.934 20.962C11.516 20.627 13.517 18.445 13.517 15.772V12.433C14.027 12.639 14.582 12.793 15.167 12.888C15.335 13.543 15.639 14.15 16.076 14.649C16.739 15.408 17.702 15.937 18.803 15.994L19.016 16C21.225 15.999 23.016 14.21 23.017 12V10.5C23.018 10.182 23.118 9.888 23.287 9.646C23.596 9.814 23.885 10.01 24.153 10.236C24.267 10.332 24.392 10.415 24.498 10.52C24.867 10.889 25.159 11.325 25.404 11.789C25.517 12.004 25.617 12.225 25.7 12.457C25.854 12.889 25.947 13.345 25.981 13.822C25.99 13.946 26.018 14.063 26.018 14.189V23.5C26.016 25.022 25.403 26.391 24.406 27.389ZM17.084 6.035C16.786 6.331 16.518 6.655 16.277 7C16.057 7.315 15.866 7.65 15.7 8C15.547 8.321 15.414 8.654 15.311 9C15.139 9.578 15.043 10.188 15.026 10.818C14.444 10.677 13.93 10.468 13.517 10.204C13.042 9.901 12.709 9.536 12.517 9.158C12.49 9.105 12.456 9.053 12.435 9C12.371 8.833 12.329 8.666 12.329 8.5C12.329 8.322 12.366 8.155 12.426 8C12.451 7.934 12.483 7.872 12.516 7.81C13.083 6.758 14.262 6.308 15.373 6.106C15.374 6.106 17.023 6.03 17.084 6.035ZM25.017 6.5C25.017 6.775 24.792 7 24.517 7C23.11 7 21.82 7.891 21.303 9.193C20.942 10.101 21.018 11.049 21.017 12C21.015 13.104 20.12 13.998 19.016 14L18.908 13.997C18.387 13.969 17.931 13.727 17.58 13.331C17.481 13.218 17.396 13.091 17.32 12.958C16.487 11.489 17.094 9.203 18.073 7.956C19.726 5.849 22.132 6 24.517 6C24.792 6 25.016 6.225 25.017 6.5ZM5 14.402C5.001 11.35 7.092 8.554 10.017 7.691C10.163 7.648 10.311 7.61 10.461 7.577C10.375 7.875 10.329 8.184 10.329 8.5C10.329 9.241 10.58 9.939 11.017 10.556C11.163 10.762 11.331 10.958 11.517 11.144V12V15.773C11.514 17.572 10.058 19.028 8.259 19.031C7.696 19.03 7.175 18.874 6.713 18.622C5.914 18.187 5.318 17.438 5.099 16.531C5.04 16.287 5 16.036 5 15.773V14.402ZM7.017 6.6V5.5C7.017 5.225 7.241 5 7.517 5C7.793 5 8.017 5.225 8.017 5.5V6.341C7.672 6.512 7.335 6.698 7.017 6.91V6.6Z" fill="#212121"/>
</svg>
