<svg width="32" height="32" viewBox="0 0 32 32" fill="none" xmlns="http://www.w3.org/2000/svg">
<path d="M30 8.5C30 6.568 28.432 5 26.5 5C25.715 5 24.998 5.268 24.414 5.704L23.86 5.15C23.66 4.95 23.35 4.95 23.15 5.15C22.95 5.35 22.95 5.66 23.15 5.86L23.704 6.414C23.267 6.998 23 7.715 23 8.5V11.32C23 11.698 22.698 12 22.32 12H22V7C22 5.768 21.627 4.624 20.99 3.671C21.043 3.646 21.095 3.615 21.14 3.57L21.85 2.86C22.05 2.66 22.05 2.35 21.85 2.15C21.65 1.95 21.34 1.95 21.14 2.15L20.43 2.86C20.412 2.878 20.404 2.901 20.39 2.92C19.294 1.742 17.735 1 16 1C14.267 1 12.71 1.74 11.614 2.916C11.598 2.894 11.59 2.869 11.57 2.85L10.86 2.15C10.66 1.95 10.35 1.95 10.15 2.15C9.95 2.35 9.95 2.66 10.15 2.86L10.86 3.57C10.905 3.615 10.957 3.646 11.01 3.671C10.373 4.624 10 5.768 10 7V9H9.5C9.22 9 9 9.22 9 9.5C9 9.78 9.22 10 9.5 10H10V19H9.68C9.302 19 9 18.698 9 18.32V15.31L9.71 14.6C9.91 14.4 9.91 14.09 9.71 13.89C9.51 13.69 9.2 13.69 9 13.89V11.55C9 9.618 7.417 7.957 5.429 8H5.428C4.671 8.017 3.979 8.28 3.413 8.703L2.86 8.15C2.66 7.95 2.35 7.95 2.15 8.15C1.95 8.35 1.95 8.66 2.15 8.86L2.702 9.42C2.267 10.003 2 10.718 2 11.5V18.32C2 20.265 2.729 22.036 3.921 23.389C3.901 23.404 3.879 23.412 3.86 23.43L3.15 24.14C2.95 24.34 2.95 24.65 3.15 24.85C3.35 25.05 3.66 25.05 3.86 24.85L4.57 24.14C4.588 24.122 4.596 24.099 4.611 24.079C5.964 25.271 7.735 26 9.68 26H10V29.06C10 30.132 10.868 31 11.94 31H20.06C21.132 31 22 30.132 22 29.06V25H22.875C23.155 25 23.375 24.78 23.375 24.5C23.375 24.22 23.155 24 22.875 24H22V19H22.32C24.276 19 26.058 18.258 27.416 17.048C27.422 17.055 27.424 17.063 27.43 17.069L28.14 17.779C28.34 17.979 28.65 17.979 28.85 17.779C29.05 17.579 29.05 17.269 28.85 17.069L28.14 16.359C28.132 16.351 28.122 16.349 28.115 16.342C29.285 14.994 30 13.24 30 11.32V8.5ZM20 14H22.32C23.802 14 25 12.802 25 11.32V8.5C25 7.848 25.419 7.299 26 7.092V11.32C26 13.35 24.35 15 22.32 15H19V12H19.5C19.78 12 20 11.78 20 11.5C20 11.22 19.78 11 19.5 11H19V4.381C19.615 5.084 20 5.994 20 7V14ZM18 3.555V29H14V3.555C14.591 3.211 15.268 3 16 3C16.732 3 17.41 3.211 18 3.555ZM4 18.32V11.5C4 10.686 4.653 10.018 5.472 10C6.283 9.983 7 10.683 7 11.55V18.32C7 19.802 8.198 21 9.68 21H12V7C12 5.993 12.385 5.084 13 4.381V15.542L12.9 15.44C12.7 15.24 12.39 15.24 12.19 15.44C11.99 15.64 11.99 15.95 12.19 16.15L13 16.978V22H9.68C7.65 22 6 20.35 6 18.32V11.55C6 11.26 5.77 11 5.5 11H5.49C5.22 11.01 5 11.23 5 11.5V18.32C5 20.9 7.1 23 9.68 23H13V29H12V24H9.68C6.542 24 4 21.458 4 18.32ZM22.32 17H20V29H19V21.118L19.83 20.27C20.03 20.08 20.03 19.76 19.83 19.56C19.63 19.36 19.32 19.36 19.12 19.56L19 19.682V16H22.32C24.9 16 27 13.9 27 11.32V7.092C27.581 7.299 28 7.848 28 8.5V11.32C28 14.448 25.448 17 22.32 17Z" fill="#212121"/>
</svg>
