<svg xmlns="http://www.w3.org/2000/svg" width="32" height="32" fill="none"><path fill="#E1D8EC" d="M26.969 11H28.5a.5.5 0 0 1 .5.5v4a.5.5 0 0 1-.5.5h-1.531v-5Z"/><path fill="#FFD7C2" d="M16.762 2.977 17 2.5c2.333.167 7.3 1.7 8.5 6.5 1.2 4.8-1.167 9-2.5 10.5l-.909.454-2.336 4.186c-.204.37-.407.735-.61 1.091l-.21.352c-.94 1.59-2.61 4.417-6.152 4.417C9.74 30 7 27.208 7 23.36V11.71c0-4.677 3.653-8.752 9.101-8.752.225 0 .445.007.66.019Z"/><path fill="#F1B99B" d="M11.754 10.504a.493.493 0 0 0-.007-.083c.17-1.377 2.486-2.649 4.537-2.649 2.724 0 4.23 3.184 4.23 4.814 0 1.283 1.934 1.298 1.934 0 0-1.871-1.826-6.73-5.845-6.73-3.881 0-5.71 2.668-5.83 4.51a.5.5 0 0 0-.02.138v14.833a1.235 1.235 0 0 0 .322.845c.557.667 1.753.89 2.591.89 1.126 0 3.577-.739 3.912-3.063.19-1.326 0-2.294-1.157-2.294-.599 0-.956.69-1.371 1.49-.604 1.164-1.329 2.563-3.097 2.41a.483.483 0 0 1-.155-.127.237.237 0 0 1-.044-.15v-9.863c1.213.794 7.074 4.625 7.36 4.747.32.135.533-.197.214-.483-.287-.258-6.34-5.867-7.574-7.011v-2.224Z"/><path fill="#E1D8EC" d="M7.06 13.073c-.197-1.874.25-4.397 1.708-6.439 1.442-2.018 3.896-3.603 7.81-3.603v-1c-4.226 0-6.988 1.733-8.624 4.022-1.618 2.265-2.108 5.04-1.889 7.124.096.91.352 1.618.718 2.175a3.87 3.87 0 0 0 1.295 1.214c.462.273.94.448 1.332.588l.015.006c.413.148.682.245.857.363.199.135.332.306.422.485-.046.106-.535 1.287-.117 1.867.16.22.371.161.68.075.143-.04.308-.087.499-.113v3.194C12.547 23.005 14 22.5 14 20.563l-.002-.003c.035-.747-.454-2.06-2.2-2.448-.112-.459-.368-1.019-.955-1.417-.284-.192-.667-.329-1.01-.451l-.085-.03c-.394-.142-.79-.29-1.162-.51a2.871 2.871 0 0 1-.967-.902c-.266-.403-.478-.954-.56-1.73Z"/><path fill="#9B9B9B" d="M16.563 3.031V2.027c8.125 0 11.453 8.332 11.453 11.692v3.312c0 1.89-2.01 2.89-3.016 2.938h-2.938s.478-.746 1.258-2.125c.869-1.536 2.097-3.838 2.055-5.89-.125-6.173-5.172-8.923-8.813-8.923Z"/></svg>