<svg xmlns="http://www.w3.org/2000/svg" width="32" height="32" fill="none"><path fill="#FF5E59" d="M2 6a4 4 0 0 1 4-4h20a4 4 0 0 1 4 4v14L2 15V6Z"/><path fill="#FF9F2E" d="M19.11 4.345a2 2 0 0 1 2.78 0l.607.587a1 1 0 0 0 .835.272l.836-.119a2 2 0 0 1 2.25 1.635l.146.831a1 1 0 0 0 .516.711l.746.396a2 2 0 0 1 .86 2.645l-.371.758a1 1 0 0 0 0 .878l.37.758a2 2 0 0 1-.86 2.646l-.745.395a1 1 0 0 0-.516.71l-.146.832a2 2 0 0 1-2.25 1.635l-.835-.118a1 1 0 0 0-.836.27l-.606.588a2 2 0 0 1-2.782 0l-.606-.587a1 1 0 0 0-.835-.271l-.836.118a2 2 0 0 1-2.25-1.635l-.146-.831a1 1 0 0 0-.516-.71l-.746-.396a2 2 0 0 1-.86-2.646l.371-.758a1 1 0 0 0 0-.878l-.37-.758a2 2 0 0 1 .86-2.645l.745-.396a1 1 0 0 0 .516-.71l.146-.832a2 2 0 0 1 2.25-1.635l.835.119a1 1 0 0 0 .836-.272l.606-.587Z"/><path fill="#FCD53F" d="M27 12.5a6.5 6.5 0 1 1-13 0 6.5 6.5 0 0 1 13 0Z"/><path fill="#321B41" d="M6.972 30h2.025L13 29V7.25C13 6.56 12.44 6 11.75 6h-1.5C9.56 6 9 6.56 9 7.25V8H5.25C4.56 8 4 8.56 4 9.25v19.215S6.46 29.472 6.972 30ZM18 29l3.003 1h1.986c1.622 0 3.543-.686 5.011-1.535V17.25c0-.69-.56-1.25-1.25-1.25h-7.5c-.69 0-1.25.56-1.25 1.25V29Z"/><path fill="#635994" d="M2 14v12a4 4 0 0 0 4 4h1V15.25C7 14.56 6.44 14 5.75 14H2Zm7 16h12v-5.75c0-.69-.56-1.25-1.25-1.25H19V12.25c0-.69-.56-1.25-1.25-1.25h-7.5C9.56 11 9 11.56 9 12.25V30Zm14 0h3a4 4 0 0 0 4-4v-7h-5.75c-.69 0-1.25.56-1.25 1.25V30Z"/><path fill="#FFF478" d="M11.5 13a.5.5 0 0 0-.5.5v1a.5.5 0 0 0 .5.5h1a.5.5 0 0 0 .5-.5v-1a.5.5 0 0 0-.5-.5h-1Zm-8 7a.5.5 0 0 0-.5.5v1a.5.5 0 0 0 .5.5h1a.5.5 0 0 0 .5-.5v-1a.5.5 0 0 0-.5-.5h-1Zm7.5-2.5a.5.5 0 0 1 .5-.5h1a.5.5 0 0 1 .5.5v1a.5.5 0 0 1-.5.5h-1a.5.5 0 0 1-.5-.5v-1Zm.5 7.5a.5.5 0 0 0-.5.5v1a.5.5 0 0 0 .5.5h1a.5.5 0 0 0 .5-.5v-1a.5.5 0 0 0-.5-.5h-1Zm3.5-7.5a.5.5 0 0 1 .5-.5h1a.5.5 0 0 1 .5.5v1a.5.5 0 0 1-.5.5h-1a.5.5 0 0 1-.5-.5v-1Zm.5 3.5a.5.5 0 0 0-.5.5v1a.5.5 0 0 0 .5.5h1a.5.5 0 0 0 .5-.5v-1a.5.5 0 0 0-.5-.5h-1Zm8.5 1a1 1 0 0 1 1-1h5v2h-5a1 1 0 0 1-1-1Zm1 3a1 1 0 1 0 0 2h5v-2h-5Z"/><path fill="#FCD53F" d="M11.5 13a.5.5 0 0 0-.5.5h1a.5.5 0 0 1 .5.5v1a.5.5 0 0 0 .5-.5v-1a.5.5 0 0 0-.5-.5h-1ZM3.5 20a.5.5 0 0 0-.5.5h1a.5.5 0 0 1 .5.5v1a.5.5 0 0 0 .5-.5v-1a.5.5 0 0 0-.5-.5h-1ZM11 17.5a.5.5 0 0 1 .5-.5h1a.5.5 0 0 1 .5.5v1a.5.5 0 0 1-.5.5v-1a.5.5 0 0 0-.5-.5h-1ZM11.5 25a.5.5 0 0 0-.5.5h1a.5.5 0 0 1 .5.5v1a.5.5 0 0 0 .5-.5v-1a.5.5 0 0 0-.5-.5h-1ZM15 17.5a.5.5 0 0 1 .5-.5h1a.5.5 0 0 1 .5.5v1a.5.5 0 0 1-.5.5v-1a.5.5 0 0 0-.5-.5h-1ZM15.5 21a.5.5 0 0 0-.5.5h1a.5.5 0 0 1 .5.5v1a.5.5 0 0 0 .5-.5v-1a.5.5 0 0 0-.5-.5h-1ZM25 21a1 1 0 0 0-.866.5H30V21h-5ZM25 25a1 1 0 0 0-.866.5H30V25h-5Z"/><path fill="#321B41" d="M15 13.5a.5.5 0 0 1 .5-.5h1a.5.5 0 0 1 .5.5v1a.5.5 0 0 1-.5.5h-1a.5.5 0 0 1-.5-.5v-1Zm-12 3a.5.5 0 0 1 .5-.5h1a.5.5 0 0 1 .5.5v1a.5.5 0 0 1-.5.5h-1a.5.5 0 0 1-.5-.5v-1Zm0 8a.5.5 0 0 1 .5-.5h1a.5.5 0 0 1 .5.5v1a.5.5 0 0 1-.5.5h-1a.5.5 0 0 1-.5-.5v-1Zm8.5-3.5a.5.5 0 0 0-.5.5v1a.5.5 0 0 0 .5.5h1a.5.5 0 0 0 .5-.5v-1a.5.5 0 0 0-.5-.5h-1Zm4 4a.5.5 0 0 0-.5.5v1a.5.5 0 0 0 .5.5h1a.5.5 0 0 0 .5-.5v-1a.5.5 0 0 0-.5-.5h-1Z"/><path fill="#7167A4" d="M20.5 24v6h.5v-6a1 1 0 0 0-1-1h-1V12a1 1 0 0 0-1-1h-3l3 .5a.5.5 0 0 1 .5.5v11.25c0 .138.112.25.25.25H20a.5.5 0 0 1 .5.5Z"/></svg>