<svg width="32" height="32" viewBox="0 0 32 32" fill="none" xmlns="http://www.w3.org/2000/svg">
<path d="M25.065 21.973L24.84 21.861C26.2831 19.976 27.0439 17.6571 26.9979 15.2835C26.9519 12.91 26.1018 10.6223 24.5868 8.79464C23.0717 6.96696 20.9813 5.70747 18.6575 5.22215C16.3336 4.73684 13.9139 5.05443 11.794 6.12299L10.664 3.52799C10.6183 3.41856 10.5504 3.31982 10.4645 3.23805C10.3786 3.15629 10.2767 3.09328 10.1652 3.05302C10.0536 3.01277 9.93494 2.99616 9.81664 3.00425C9.69834 3.01233 9.58301 3.04494 9.47799 3.09999C9.37224 3.15707 9.27882 3.23449 9.20309 3.3278C9.12736 3.42111 9.07082 3.52846 9.03671 3.6437C9.00261 3.75893 8.99161 3.87976 9.00436 3.99925C9.01711 4.11875 9.05334 4.23454 9.11099 4.33999L10.5 6.88999C9.5352 7.56392 8.69017 8.39476 7.99999 9.34799L5.41999 7.19999C5.32653 7.12232 5.21739 7.06575 5.10005 7.03415C4.98271 7.00255 4.85993 6.99666 4.74011 7.01689C4.62028 7.03711 4.50624 7.08297 4.40577 7.15133C4.3053 7.2197 4.22078 7.30895 4.15799 7.41299C4.0202 7.6278 3.96974 7.88716 4.01697 8.13795C4.06419 8.38875 4.20551 8.612 4.41199 8.76199L7.18399 10.672C6.01537 12.924 5.70256 15.5233 6.30351 17.9883C6.90445 20.4532 8.37842 22.6169 10.4524 24.0784C12.5263 25.5399 15.0597 26.2002 17.5832 25.9371C20.1067 25.6739 22.4493 24.505 24.177 22.647L24.617 22.868C25.0565 23.0876 25.4091 23.4493 25.6174 23.8943C25.8257 24.3393 25.8777 24.8416 25.7648 25.3199C25.652 25.7981 25.3809 26.2242 24.9956 26.5292C24.6103 26.8341 24.1334 27 23.642 27H15C14.4696 27 13.9608 27.2107 13.5858 27.5858C13.2107 27.9608 13 28.4696 13 29C13 29.5304 13.2107 30.0391 13.5858 30.4142C13.9608 30.7893 14.4696 31 15 31H19C19.1326 31 19.2598 30.9473 19.3535 30.8535C19.4473 30.7598 19.5 30.6326 19.5 30.5C19.5 30.3674 19.4473 30.2402 19.3535 30.1464C19.2598 30.0527 19.1326 30 19 30H15C14.7348 30 14.4804 29.8946 14.2929 29.7071C14.1053 29.5196 14 29.2652 14 29C14 28.7348 14.1053 28.4804 14.2929 28.2929C14.4804 28.1053 14.7348 28 15 28H23.642C24.3589 28.0005 25.055 27.7587 25.6173 27.314C26.1796 26.8693 26.5752 26.2477 26.7399 25.5499C26.9047 24.8522 26.8289 24.1193 26.5249 23.47C26.2208 22.8208 25.7064 22.2932 25.065 21.973V21.973ZM22.777 21.062C20.0697 20.0046 17.6257 18.3693 15.6155 16.2701C13.6053 14.1709 12.0772 11.6585 11.138 8.90799C11.172 8.87999 11.209 8.85599 11.244 8.82799C11.444 8.66799 11.658 8.51499 11.877 8.37299C12.1959 8.16714 12.5283 7.98306 12.872 7.82199C13.021 8.24899 13.186 8.68099 13.372 9.11299C13.514 9.45099 13.6667 9.78899 13.83 10.127C14.099 10.684 14.398 11.24 14.73 11.788C14.9007 12.0733 15.0803 12.3557 15.269 12.635C15.6496 13.2008 16.0605 13.7456 16.5 14.267C16.7147 14.5203 16.9373 14.7687 17.168 15.012C17.6596 15.53 18.1833 16.0167 18.736 16.469C19.0027 16.685 19.2753 16.8947 19.554 17.098C20.0483 17.4535 20.5617 17.7817 21.092 18.081C21.4253 18.2703 21.771 18.4497 22.129 18.619C22.7541 18.9161 23.3966 19.1753 24.053 19.395C23.7543 19.9728 23.3906 20.5147 22.969 21.01C22.9021 21.0138 22.8367 21.0315 22.777 21.062V21.062ZM11.877 8.37299C11.659 8.51499 11.45 8.66799 11.246 8.82699C11.449 8.66699 11.659 8.51499 11.877 8.37299ZM14.637 9.50599C15.8057 8.63587 17.0462 7.86645 18.345 7.20599C19.2504 7.40783 20.1163 7.75752 20.908 8.24099C19.0062 9.00964 17.2007 9.99766 15.528 11.185C15.2 10.632 14.9 10.07 14.637 9.50599ZM17.945 14.379C19.6979 12.9339 21.7936 11.9647 24.03 11.565C24.3655 12.2063 24.617 12.8883 24.778 13.594C22.8877 13.9341 21.1014 14.7058 19.558 15.849C18.9877 15.396 18.4488 14.9049 17.945 14.379V14.379ZM24.454 18.479C24.058 18.3457 23.6743 18.2033 23.303 18.052C23.7613 17.8673 24.2361 17.7263 24.721 17.631C24.6465 17.9167 24.5574 18.1984 24.454 18.475V18.479ZM24.924 16.579C23.9412 16.7278 22.9896 17.0369 22.107 17.494C21.5195 17.1914 20.9517 16.8521 20.407 16.478C21.7616 15.5174 23.312 14.8686 24.947 14.578C25.0237 15.243 25.0156 15.915 24.923 16.578L24.924 16.579ZM23.468 10.64C21.195 11.1339 19.0718 12.1603 17.273 13.635C16.8391 13.1252 16.4348 12.591 16.062 12.035C17.8632 10.7552 19.822 9.71328 21.89 8.93499C22.4911 9.42892 23.022 10.0025 23.468 10.64V10.64ZM16.625 7.00599C15.786 7.45569 14.9754 7.95663 14.198 8.50599C14.053 8.15099 13.921 7.79799 13.798 7.44599C14.6686 7.15225 15.5811 7.00163 16.5 6.99999C16.542 6.99999 16.583 7.00599 16.625 7.00599ZM10.241 9.76299C10.052 9.97199 9.86999 10.187 9.70199 10.413C9.8706 10.1874 10.0505 9.97044 10.241 9.76299V9.76299ZM9.70199 10.413C9.86999 10.187 10.052 9.97099 10.241 9.76299C10.277 9.72399 10.312 9.68299 10.349 9.64499C11.3456 12.392 12.9066 14.8999 14.9314 17.007C16.9562 19.1141 19.3998 20.7737 22.105 21.879C21.5021 22.4095 20.827 22.8519 20.1 23.193C19.4793 22.903 18.884 22.591 18.314 22.257C18.024 22.087 17.7403 21.912 17.463 21.732C16.977 21.416 16.5103 21.0853 16.063 20.74C15.796 20.54 15.537 20.324 15.284 20.11C14.746 19.6527 14.2383 19.1783 13.761 18.687C13.5217 18.4417 13.2903 18.193 13.067 17.941C12.581 17.3943 12.1277 16.834 11.707 16.26C11.4983 15.976 11.2983 15.6897 11.107 15.401C10.739 14.851 10.398 14.2963 10.084 13.737C9.89465 13.4037 9.71465 13.067 9.54399 12.727C9.34399 12.336 8.98599 11.553 8.98699 11.556C9.01899 11.495 9.05099 11.434 9.08699 11.375C9.06099 11.42 9.03199 11.462 9.00499 11.506C9.20833 11.1244 9.44068 10.759 9.69999 10.413H9.70199ZM18.808 23.674C18.3974 23.7905 17.9785 23.8755 17.555 23.928C17.6258 23.6575 17.7195 23.3936 17.835 23.139C18.1523 23.3243 18.4767 23.5027 18.808 23.674ZM13.619 23.489C12.9546 23.2522 12.3224 22.9334 11.737 22.54C11.977 21.7644 12.3031 21.0181 12.709 20.315C12.8563 20.055 13.0143 19.793 13.183 19.529C13.669 20.0197 14.1843 20.4943 14.729 20.953C14.6043 21.1603 14.4873 21.3663 14.378 21.571C14.0486 22.1774 13.7937 22.8214 13.619 23.489V23.489ZM8.45199 12.782C8.57932 13.0453 8.71265 13.3083 8.85199 13.571C8.57399 13.9283 8.30432 14.2973 8.04299 14.678C8.10578 14.0323 8.24302 13.3961 8.45199 12.782ZM10.476 16.257C9.83824 17.1811 9.29517 18.1671 8.85499 19.2C8.4476 18.3622 8.182 17.4627 8.06899 16.538C8.47664 15.8589 8.92305 15.2038 9.40599 14.576C9.73532 15.1393 10.092 15.6997 10.476 16.257V16.257ZM9.47599 20.288L9.49099 20.308C9.9002 19.1864 10.4403 18.117 11.1 17.122C11.5267 17.6873 11.985 18.241 12.475 18.783C12.245 19.131 12.031 19.483 11.837 19.825C11.4622 20.4809 11.1476 21.1694 10.897 21.882C10.3658 21.4173 9.89422 20.8886 9.49299 20.308L9.47599 20.288ZM14.562 23.754C14.7155 23.1491 14.945 22.5662 15.245 22.019C15.325 21.869 15.41 21.719 15.499 21.565C15.9657 21.9217 16.4527 22.264 16.96 22.592C16.7505 23.0396 16.6016 23.5131 16.517 24H16.5C15.8531 23.998 15.2086 23.9222 14.579 23.774L14.562 23.754Z" fill="#212121"/>
</svg>
