<svg width="32" height="32" viewBox="0 0 32 32" fill="none" xmlns="http://www.w3.org/2000/svg">
<path d="M16 19.6315C10.4977 19.6315 6.03711 24.092 6.03711 29.5944V29.8033H25.9629V29.5944C25.9629 24.092 21.5023 19.6315 16 19.6315Z" fill="url(#paint0_radial_3987_21941)"/>
<path d="M16 19.6315C10.4977 19.6315 6.03711 24.092 6.03711 29.5944V29.8033H25.9629V29.5944C25.9629 24.092 21.5023 19.6315 16 19.6315Z" fill="url(#paint1_radial_3987_21941)"/>
<path d="M16 19.6315C10.4977 19.6315 6.03711 24.092 6.03711 29.5944V29.8033H25.9629V29.5944C25.9629 24.092 21.5023 19.6315 16 19.6315Z" fill="url(#paint2_radial_3987_21941)"/>
<path d="M16 19.6315C10.4977 19.6315 6.03711 24.092 6.03711 29.5944V29.8033H25.9629V29.5944C25.9629 24.092 21.5023 19.6315 16 19.6315Z" fill="url(#paint3_linear_3987_21941)"/>
<path d="M16 19.6315C10.4977 19.6315 6.03711 24.092 6.03711 29.5944V29.8033H25.9629V29.5944C25.9629 24.092 21.5023 19.6315 16 19.6315Z" fill="url(#paint4_radial_3987_21941)"/>
<rect x="13.4509" y="17.1406" width="5.1875" height="6.78906" rx="2.59375" fill="url(#paint5_radial_3987_21941)"/>
<g filter="url(#filter0_i_3987_21941)">
<circle cx="9.85798" cy="13.3032" r="2.15571" fill="url(#paint6_radial_3987_21941)"/>
</g>
<g filter="url(#filter1_f_3987_21941)">
<circle cx="9.85789" cy="13.3032" r="1.28477" fill="url(#paint7_linear_3987_21941)"/>
</g>
<g filter="url(#filter2_i_3987_21941)">
<circle cx="22.142" cy="13.3032" r="2.15571" fill="url(#paint8_linear_3987_21941)"/>
<circle cx="22.142" cy="13.3032" r="2.15571" fill="url(#paint9_radial_3987_21941)"/>
</g>
<g filter="url(#filter3_f_3987_21941)">
<circle cx="22.1421" cy="13.3032" r="1.28477" fill="#7A5654"/>
<circle cx="22.1421" cy="13.3032" r="1.28477" fill="url(#paint10_radial_3987_21941)"/>
<circle cx="22.1421" cy="13.3032" r="1.28477" fill="url(#paint11_radial_3987_21941)"/>
</g>
<g filter="url(#filter4_i_3987_21941)">
<path d="M9.40355 12.512C9.42446 12.5134 9.44559 12.5141 9.46689 12.5141C9.46689 12.5141 9.39763 11.4122 9.32837 10.6547C9.32837 10.3104 9.46689 9.89714 9.74395 9.69054L9.95173 9.48393C10.298 9.20846 10.4366 8.79525 10.4366 8.38204V7.28015C10.4366 6.93581 10.6444 6.66034 10.9907 6.59147C11.8218 6.38487 13.5534 6.04053 16.0468 6.04053C18.5403 6.04053 20.2719 6.38487 21.103 6.59147C21.3801 6.66034 21.6571 6.93581 21.6571 7.28015V8.38204C21.6571 8.79525 21.8649 9.20846 22.142 9.48393C22.7903 9.93823 22.7499 10.1881 22.6961 10.7236C22.6268 11.4122 22.5575 12.583 22.5575 12.583C22.5654 12.583 22.5732 12.5829 22.5809 12.5827L22.2376 17.6941C22.0303 19.9791 20.234 21.5717 18.0922 21.5717H13.9467C11.7358 21.5717 10.0086 19.9791 9.8013 17.6941L9.40355 12.512Z" fill="url(#paint12_linear_3987_21941)"/>
<path d="M9.40355 12.512C9.42446 12.5134 9.44559 12.5141 9.46689 12.5141C9.46689 12.5141 9.39763 11.4122 9.32837 10.6547C9.32837 10.3104 9.46689 9.89714 9.74395 9.69054L9.95173 9.48393C10.298 9.20846 10.4366 8.79525 10.4366 8.38204V7.28015C10.4366 6.93581 10.6444 6.66034 10.9907 6.59147C11.8218 6.38487 13.5534 6.04053 16.0468 6.04053C18.5403 6.04053 20.2719 6.38487 21.103 6.59147C21.3801 6.66034 21.6571 6.93581 21.6571 7.28015V8.38204C21.6571 8.79525 21.8649 9.20846 22.142 9.48393C22.7903 9.93823 22.7499 10.1881 22.6961 10.7236C22.6268 11.4122 22.5575 12.583 22.5575 12.583C22.5654 12.583 22.5732 12.5829 22.5809 12.5827L22.2376 17.6941C22.0303 19.9791 20.234 21.5717 18.0922 21.5717H13.9467C11.7358 21.5717 10.0086 19.9791 9.8013 17.6941L9.40355 12.512Z" fill="url(#paint13_radial_3987_21941)"/>
<path d="M9.40355 12.512C9.42446 12.5134 9.44559 12.5141 9.46689 12.5141C9.46689 12.5141 9.39763 11.4122 9.32837 10.6547C9.32837 10.3104 9.46689 9.89714 9.74395 9.69054L9.95173 9.48393C10.298 9.20846 10.4366 8.79525 10.4366 8.38204V7.28015C10.4366 6.93581 10.6444 6.66034 10.9907 6.59147C11.8218 6.38487 13.5534 6.04053 16.0468 6.04053C18.5403 6.04053 20.2719 6.38487 21.103 6.59147C21.3801 6.66034 21.6571 6.93581 21.6571 7.28015V8.38204C21.6571 8.79525 21.8649 9.20846 22.142 9.48393C22.7903 9.93823 22.7499 10.1881 22.6961 10.7236C22.6268 11.4122 22.5575 12.583 22.5575 12.583C22.5654 12.583 22.5732 12.5829 22.5809 12.5827L22.2376 17.6941C22.0303 19.9791 20.234 21.5717 18.0922 21.5717H13.9467C11.7358 21.5717 10.0086 19.9791 9.8013 17.6941L9.40355 12.512Z" fill="url(#paint14_radial_3987_21941)"/>
</g>
<path d="M9.32837 10.6547C9.32837 10.3104 9.46689 9.89714 9.74395 9.69054L9.95173 9.48393C10.298 9.20846 10.4366 8.79525 10.4366 8.38204V7.28015C10.4366 6.93581 10.6444 6.66034 10.9907 6.59147C11.8218 6.38487 13.5534 6.04053 16.0468 6.04053C18.5403 6.04053 20.2719 6.38487 21.103 6.59147C21.3801 6.66034 21.6571 6.93581 21.6571 7.28015V8.38204C21.6571 8.79525 21.8649 9.20846 22.142 9.48393C22.7903 9.93823 22.7499 10.1881 22.6961 10.7236C22.6268 11.4122 22.5575 12.583 22.5575 12.583C22.5654 12.583 22.5732 12.5829 22.5809 12.5827L22.2376 17.6941C22.0303 19.9791 20.234 21.5717 18.0922 21.5717H13.9467C11.7358 21.5717 10.0086 19.9791 9.8013 17.6941C9.62127 15.3486 9.54245 12.9962 9.32837 10.6547Z" fill="url(#paint15_linear_3987_21941)"/>
<path d="M9.32837 10.6547C9.32837 10.3104 9.46689 9.89714 9.74395 9.69054L9.95173 9.48393C10.298 9.20846 10.4366 8.79525 10.4366 8.38204V7.28015C10.4366 6.93581 10.6444 6.66034 10.9907 6.59147C11.8218 6.38487 13.5534 6.04053 16.0468 6.04053C18.5403 6.04053 20.2719 6.38487 21.103 6.59147C21.3801 6.66034 21.6571 6.93581 21.6571 7.28015V8.38204C21.6571 8.79525 21.8649 9.20846 22.142 9.48393C22.7903 9.93823 22.7499 10.1881 22.6961 10.7236C22.6268 11.4122 22.5575 12.583 22.5575 12.583C22.5654 12.583 22.5732 12.5829 22.5809 12.5827L22.2376 17.6941C22.0303 19.9791 20.234 21.5717 18.0922 21.5717H13.9467C11.7358 21.5717 10.0086 19.9791 9.8013 17.6941C9.62127 15.3486 9.54245 12.9962 9.32837 10.6547Z" fill="url(#paint16_linear_3987_21941)"/>
<path d="M9.32837 10.6547C9.32837 10.3104 9.46689 9.89714 9.74395 9.69054L9.95173 9.48393C10.298 9.20846 10.4366 8.79525 10.4366 8.38204V7.28015C10.4366 6.93581 10.6444 6.66034 10.9907 6.59147C11.8218 6.38487 13.5534 6.04053 16.0468 6.04053C18.5403 6.04053 20.2719 6.38487 21.103 6.59147C21.3801 6.66034 21.6571 6.93581 21.6571 7.28015V8.38204C21.6571 8.79525 21.8649 9.20846 22.142 9.48393C22.7903 9.93823 22.7499 10.1881 22.6961 10.7236C22.6268 11.4122 22.5575 12.583 22.5575 12.583C22.5654 12.583 22.5732 12.5829 22.5809 12.5827L22.2376 17.6941C22.0303 19.9791 20.234 21.5717 18.0922 21.5717H13.9467C11.7358 21.5717 10.0086 19.9791 9.8013 17.6941C9.62127 15.3486 9.54245 12.9962 9.32837 10.6547Z" fill="url(#paint17_radial_3987_21941)"/>
<path d="M9.32837 10.6547C9.32837 10.3104 9.46689 9.89714 9.74395 9.69054L9.95173 9.48393C10.298 9.20846 10.4366 8.79525 10.4366 8.38204V7.28015C10.4366 6.93581 10.6444 6.66034 10.9907 6.59147C11.8218 6.38487 13.5534 6.04053 16.0468 6.04053C18.5403 6.04053 20.2719 6.38487 21.103 6.59147C21.3801 6.66034 21.6571 6.93581 21.6571 7.28015V8.38204C21.6571 8.79525 21.8649 9.20846 22.142 9.48393C22.7903 9.93823 22.7499 10.1881 22.6961 10.7236C22.6268 11.4122 22.5575 12.583 22.5575 12.583C22.5654 12.583 22.5732 12.5829 22.5809 12.5827L22.2376 17.6941C22.0303 19.9791 20.234 21.5717 18.0922 21.5717H13.9467C11.7358 21.5717 10.0086 19.9791 9.8013 17.6941C9.62127 15.3486 9.54245 12.9962 9.32837 10.6547Z" fill="url(#paint18_linear_3987_21941)"/>
<g filter="url(#filter5_f_3987_21941)">
<path d="M21.1068 6.04053L17.1329 7.36538C16.4564 7.59095 16.0713 8.30322 16.2531 8.99285C16.4269 9.65209 17.0643 10.0788 17.7401 9.98835L21.691 9.45937L21.1068 6.04053Z" fill="url(#paint19_linear_3987_21941)"/>
</g>
<g filter="url(#filter6_i_3987_21941)">
<path d="M22.2112 4.93864L22.7653 5.21411C23.735 5.69619 24.2891 6.79808 24.0813 7.96884L23.3194 11.8943C23.2515 12.2997 22.9835 12.5726 22.5809 12.5827C22.5732 12.5829 22.5654 12.583 22.5575 12.583C22.5575 12.583 22.6268 11.4122 22.6961 10.7235C22.7523 10.1643 22.6547 9.99368 22.142 9.4839C21.8649 9.20843 21.6571 8.79522 21.6571 8.38201V7.28012C21.6571 6.93578 21.3801 6.6603 21.103 6.59144C20.2719 6.38483 18.5403 6.04049 16.0468 6.04049C13.5534 6.04049 11.8218 6.38483 10.9907 6.59144C10.6444 6.6603 10.4366 6.93578 10.4366 7.28012V8.38201C10.4366 8.79522 10.298 9.20843 9.95173 9.4839L9.74394 9.6905C9.46689 9.89711 9.32837 10.3103 9.32837 10.6547C9.39763 11.4122 9.46689 12.5141 9.46689 12.5141C9.44558 12.5141 9.42446 12.5134 9.40354 12.5119C9.01653 12.4855 8.70145 12.2175 8.63574 11.8255L7.87385 7.89997C7.73532 6.79808 8.28942 5.69619 9.2591 5.21411L9.8132 4.93864C10.1595 4.73203 10.5058 4.45656 10.8521 4.18109L12.0989 2.87259C12.8608 2.18391 13.969 1.97731 14.9386 2.45939C15.6313 2.66599 16.3932 2.66599 17.0858 2.45939C18.1247 2.11504 19.3022 2.39052 20.1333 3.14807L21.1723 4.18109C21.4493 4.52543 21.7956 4.73203 22.2112 4.93864Z" fill="#27151C"/>
<path d="M22.2112 4.93864L22.7653 5.21411C23.735 5.69619 24.2891 6.79808 24.0813 7.96884L23.3194 11.8943C23.2515 12.2997 22.9835 12.5726 22.5809 12.5827C22.5732 12.5829 22.5654 12.583 22.5575 12.583C22.5575 12.583 22.6268 11.4122 22.6961 10.7235C22.7523 10.1643 22.6547 9.99368 22.142 9.4839C21.8649 9.20843 21.6571 8.79522 21.6571 8.38201V7.28012C21.6571 6.93578 21.3801 6.6603 21.103 6.59144C20.2719 6.38483 18.5403 6.04049 16.0468 6.04049C13.5534 6.04049 11.8218 6.38483 10.9907 6.59144C10.6444 6.6603 10.4366 6.93578 10.4366 7.28012V8.38201C10.4366 8.79522 10.298 9.20843 9.95173 9.4839L9.74394 9.6905C9.46689 9.89711 9.32837 10.3103 9.32837 10.6547C9.39763 11.4122 9.46689 12.5141 9.46689 12.5141C9.44558 12.5141 9.42446 12.5134 9.40354 12.5119C9.01653 12.4855 8.70145 12.2175 8.63574 11.8255L7.87385 7.89997C7.73532 6.79808 8.28942 5.69619 9.2591 5.21411L9.8132 4.93864C10.1595 4.73203 10.5058 4.45656 10.8521 4.18109L12.0989 2.87259C12.8608 2.18391 13.969 1.97731 14.9386 2.45939C15.6313 2.66599 16.3932 2.66599 17.0858 2.45939C18.1247 2.11504 19.3022 2.39052 20.1333 3.14807L21.1723 4.18109C21.4493 4.52543 21.7956 4.73203 22.2112 4.93864Z" fill="url(#paint20_radial_3987_21941)"/>
<path d="M22.2112 4.93864L22.7653 5.21411C23.735 5.69619 24.2891 6.79808 24.0813 7.96884L23.3194 11.8943C23.2515 12.2997 22.9835 12.5726 22.5809 12.5827C22.5732 12.5829 22.5654 12.583 22.5575 12.583C22.5575 12.583 22.6268 11.4122 22.6961 10.7235C22.7523 10.1643 22.6547 9.99368 22.142 9.4839C21.8649 9.20843 21.6571 8.79522 21.6571 8.38201V7.28012C21.6571 6.93578 21.3801 6.6603 21.103 6.59144C20.2719 6.38483 18.5403 6.04049 16.0468 6.04049C13.5534 6.04049 11.8218 6.38483 10.9907 6.59144C10.6444 6.6603 10.4366 6.93578 10.4366 7.28012V8.38201C10.4366 8.79522 10.298 9.20843 9.95173 9.4839L9.74394 9.6905C9.46689 9.89711 9.32837 10.3103 9.32837 10.6547C9.39763 11.4122 9.46689 12.5141 9.46689 12.5141C9.44558 12.5141 9.42446 12.5134 9.40354 12.5119C9.01653 12.4855 8.70145 12.2175 8.63574 11.8255L7.87385 7.89997C7.73532 6.79808 8.28942 5.69619 9.2591 5.21411L9.8132 4.93864C10.1595 4.73203 10.5058 4.45656 10.8521 4.18109L12.0989 2.87259C12.8608 2.18391 13.969 1.97731 14.9386 2.45939C15.6313 2.66599 16.3932 2.66599 17.0858 2.45939C18.1247 2.11504 19.3022 2.39052 20.1333 3.14807L21.1723 4.18109C21.4493 4.52543 21.7956 4.73203 22.2112 4.93864Z" fill="url(#paint21_radial_3987_21941)"/>
<path d="M22.2112 4.93864L22.7653 5.21411C23.735 5.69619 24.2891 6.79808 24.0813 7.96884L23.3194 11.8943C23.2515 12.2997 22.9835 12.5726 22.5809 12.5827C22.5732 12.5829 22.5654 12.583 22.5575 12.583C22.5575 12.583 22.6268 11.4122 22.6961 10.7235C22.7523 10.1643 22.6547 9.99368 22.142 9.4839C21.8649 9.20843 21.6571 8.79522 21.6571 8.38201V7.28012C21.6571 6.93578 21.3801 6.6603 21.103 6.59144C20.2719 6.38483 18.5403 6.04049 16.0468 6.04049C13.5534 6.04049 11.8218 6.38483 10.9907 6.59144C10.6444 6.6603 10.4366 6.93578 10.4366 7.28012V8.38201C10.4366 8.79522 10.298 9.20843 9.95173 9.4839L9.74394 9.6905C9.46689 9.89711 9.32837 10.3103 9.32837 10.6547C9.39763 11.4122 9.46689 12.5141 9.46689 12.5141C9.44558 12.5141 9.42446 12.5134 9.40354 12.5119C9.01653 12.4855 8.70145 12.2175 8.63574 11.8255L7.87385 7.89997C7.73532 6.79808 8.28942 5.69619 9.2591 5.21411L9.8132 4.93864C10.1595 4.73203 10.5058 4.45656 10.8521 4.18109L12.0989 2.87259C12.8608 2.18391 13.969 1.97731 14.9386 2.45939C15.6313 2.66599 16.3932 2.66599 17.0858 2.45939C18.1247 2.11504 19.3022 2.39052 20.1333 3.14807L21.1723 4.18109C21.4493 4.52543 21.7956 4.73203 22.2112 4.93864Z" fill="url(#paint22_radial_3987_21941)"/>
<path d="M22.2112 4.93864L22.7653 5.21411C23.735 5.69619 24.2891 6.79808 24.0813 7.96884L23.3194 11.8943C23.2515 12.2997 22.9835 12.5726 22.5809 12.5827C22.5732 12.5829 22.5654 12.583 22.5575 12.583C22.5575 12.583 22.6268 11.4122 22.6961 10.7235C22.7523 10.1643 22.6547 9.99368 22.142 9.4839C21.8649 9.20843 21.6571 8.79522 21.6571 8.38201V7.28012C21.6571 6.93578 21.3801 6.6603 21.103 6.59144C20.2719 6.38483 18.5403 6.04049 16.0468 6.04049C13.5534 6.04049 11.8218 6.38483 10.9907 6.59144C10.6444 6.6603 10.4366 6.93578 10.4366 7.28012V8.38201C10.4366 8.79522 10.298 9.20843 9.95173 9.4839L9.74394 9.6905C9.46689 9.89711 9.32837 10.3103 9.32837 10.6547C9.39763 11.4122 9.46689 12.5141 9.46689 12.5141C9.44558 12.5141 9.42446 12.5134 9.40354 12.5119C9.01653 12.4855 8.70145 12.2175 8.63574 11.8255L7.87385 7.89997C7.73532 6.79808 8.28942 5.69619 9.2591 5.21411L9.8132 4.93864C10.1595 4.73203 10.5058 4.45656 10.8521 4.18109L12.0989 2.87259C12.8608 2.18391 13.969 1.97731 14.9386 2.45939C15.6313 2.66599 16.3932 2.66599 17.0858 2.45939C18.1247 2.11504 19.3022 2.39052 20.1333 3.14807L21.1723 4.18109C21.4493 4.52543 21.7956 4.73203 22.2112 4.93864Z" fill="url(#paint23_radial_3987_21941)"/>
</g>
<g filter="url(#filter7_f_3987_21941)">
<path d="M15.6332 13.1454L14.5739 15.34C14.4426 15.7914 14.7577 16.2429 15.2041 16.2429H16.1561C16.6025 16.2429 16.9176 15.7845 16.7863 15.34L16.1429 13.1454C16.0051 12.6592 15.7776 12.6592 15.6332 13.1454Z" fill="#71404A"/>
</g>
<g filter="url(#filter8_f_3987_21941)">
<path d="M15.4951 12.9348L14.809 15.1294C14.669 15.5809 15.0051 16.0323 15.4811 16.0323H16.4963C16.9724 16.0323 17.3084 15.5739 17.1684 15.1294L16.4823 12.9348C16.3353 12.4487 15.6492 12.4487 15.4951 12.9348Z" fill="#8C5F5E"/>
<path d="M15.4951 12.9348L14.809 15.1294C14.669 15.5809 15.0051 16.0323 15.4811 16.0323H16.4963C16.9724 16.0323 17.3084 15.5739 17.1684 15.1294L16.4823 12.9348C16.3353 12.4487 15.6492 12.4487 15.4951 12.9348Z" fill="url(#paint24_linear_3987_21941)"/>
<path d="M15.4951 12.9348L14.809 15.1294C14.669 15.5809 15.0051 16.0323 15.4811 16.0323H16.4963C16.9724 16.0323 17.3084 15.5739 17.1684 15.1294L16.4823 12.9348C16.3353 12.4487 15.6492 12.4487 15.4951 12.9348Z" fill="url(#paint25_linear_3987_21941)"/>
<path d="M15.4951 12.9348L14.809 15.1294C14.669 15.5809 15.0051 16.0323 15.4811 16.0323H16.4963C16.9724 16.0323 17.3084 15.5739 17.1684 15.1294L16.4823 12.9348C16.3353 12.4487 15.6492 12.4487 15.4951 12.9348Z" fill="url(#paint26_linear_3987_21941)"/>
<path d="M15.4951 12.9348L14.809 15.1294C14.669 15.5809 15.0051 16.0323 15.4811 16.0323H16.4963C16.9724 16.0323 17.3084 15.5739 17.1684 15.1294L16.4823 12.9348C16.3353 12.4487 15.6492 12.4487 15.4951 12.9348Z" fill="url(#paint27_radial_3987_21941)"/>
</g>
<path d="M15.4951 12.9348L14.809 15.1294C14.669 15.5809 15.0051 16.0323 15.4811 16.0323H16.4963C16.9724 16.0323 17.3084 15.5739 17.1684 15.1294L16.4823 12.9348C16.3353 12.4487 15.6492 12.4487 15.4951 12.9348Z" fill="url(#paint28_linear_3987_21941)"/>
<path d="M19.072 11.4558C19.9151 11.4558 20.6274 12.0371 20.8211 12.8226C20.8787 13.0478 20.7059 13.2625 20.4755 13.2625H17.5952C17.4119 13.2625 17.2653 13.095 17.3019 12.9117C17.4643 12.0842 18.1922 11.4558 19.072 11.4558Z" fill="white"/>
<path d="M18.8048 11.8068C19.4437 11.8068 19.9569 12.3252 19.9569 12.9589C19.9569 13.0636 19.9412 13.1684 19.915 13.2626H17.6894C17.6632 13.1631 17.6475 13.0636 17.6475 12.9589C17.6475 12.3252 18.1659 11.8068 18.8048 11.8068Z" fill="url(#paint29_radial_3987_21941)"/>
<path d="M18.145 12.9588C18.145 12.5922 18.4383 12.299 18.8049 12.299C19.1715 12.299 19.4647 12.5922 19.4647 12.9588C19.4647 13.0688 19.4385 13.1735 19.3914 13.2625H18.2236C18.1712 13.1735 18.145 13.0688 18.145 12.9588Z" fill="black"/>
<g filter="url(#filter9_f_3987_21941)">
<path d="M18.7201 12.0502C18.8022 12.16 18.6306 12.2938 18.4355 12.4397C18.2404 12.5856 18.0957 12.6882 18.0136 12.5784C17.9315 12.4686 18.0231 12.2614 18.2182 12.1155C18.4133 11.9697 18.638 11.9404 18.7201 12.0502Z" fill="#C7A7A3"/>
<path d="M18.7201 12.0502C18.8022 12.16 18.6306 12.2938 18.4355 12.4397C18.2404 12.5856 18.0957 12.6882 18.0136 12.5784C17.9315 12.4686 18.0231 12.2614 18.2182 12.1155C18.4133 11.9697 18.638 11.9404 18.7201 12.0502Z" fill="url(#paint30_radial_3987_21941)"/>
</g>
<g filter="url(#filter10_f_3987_21941)">
<path d="M19.8311 12.8072C19.7885 12.5093 19.6142 12.2848 19.5324 12.2098L19.1969 12.5781L19.3483 12.8726L19.8311 12.8072Z" fill="url(#paint31_linear_3987_21941)"/>
</g>
<path d="M12.8987 11.4558C12.0555 11.4558 11.3432 12.0371 11.1495 12.8227C11.0919 13.0479 11.2647 13.2626 11.4951 13.2626H14.3756C14.5589 13.2626 14.7055 13.095 14.6689 12.9117C14.5065 12.0843 13.7733 11.4558 12.8987 11.4558Z" fill="white"/>
<path d="M13.1659 11.8066C12.5269 11.8066 12.0137 12.3251 12.0137 12.9588C12.0137 13.0636 12.0294 13.1683 12.0556 13.2626H14.2814C14.3076 13.1631 14.3233 13.0636 14.3233 12.9588C14.318 12.3251 13.8048 11.8066 13.1659 11.8066Z" fill="url(#paint32_radial_3987_21941)"/>
<path d="M13.8258 12.9588C13.8258 12.5922 13.5325 12.299 13.1659 12.299C12.7993 12.299 12.506 12.5922 12.506 12.9588C12.506 13.0688 12.5322 13.1736 12.5793 13.2626H13.7472C13.7943 13.1736 13.8258 13.0688 13.8258 12.9588Z" fill="black"/>
<g filter="url(#filter11_f_3987_21941)">
<path d="M14.2185 12.8235C14.2185 12.4512 13.9157 12.2029 13.8339 12.1279L13.4615 12.488L13.6907 12.9544L14.2185 12.8235Z" fill="url(#paint33_linear_3987_21941)"/>
</g>
<g filter="url(#filter12_f_3987_21941)">
<ellipse cx="12.8182" cy="12.2989" rx="0.502988" ry="0.254558" transform="rotate(-27.914 12.8182 12.2989)" fill="#C7A7A3" fill-opacity="0.9"/>
<ellipse cx="12.8182" cy="12.2989" rx="0.502988" ry="0.254558" transform="rotate(-27.914 12.8182 12.2989)" fill="url(#paint34_radial_3987_21941)"/>
</g>
<g filter="url(#filter13_f_3987_21941)">
<path d="M10.1355 7.09045V8.24942C10.1254 8.44132 10.0446 8.87056 9.80225 9.05236" stroke="url(#paint35_linear_3987_21941)" stroke-width="0.25" stroke-linecap="round"/>
</g>
<g filter="url(#filter14_i_3987_21941)">
<path fill-rule="evenodd" clip-rule="evenodd" d="M14.0867 9.37114C14.3254 9.62048 14.3168 10.0161 14.0675 10.2548C13.2987 10.9907 12.3535 11.2799 11.5532 11.2799C11.208 11.2799 10.9282 11.0001 10.9282 10.6549C10.9282 10.3097 11.208 10.0299 11.5532 10.0299C12.0655 10.0299 12.6905 9.84253 13.2031 9.35187C13.4524 9.11318 13.848 9.1218 14.0867 9.37114Z" fill="#121212"/>
</g>
<g filter="url(#filter15_i_3987_21941)">
<path fill-rule="evenodd" clip-rule="evenodd" d="M17.8908 9.37114C17.6521 9.62048 17.6607 10.0161 17.9101 10.2548C18.6788 10.9907 19.6241 11.2799 20.4243 11.2799C20.7695 11.2799 21.0493 11.0001 21.0493 10.6549C21.0493 10.3097 20.7695 10.0299 20.4243 10.0299C19.9121 10.0299 19.287 9.84253 18.7745 9.35187C18.5251 9.11318 18.1295 9.1218 17.8908 9.37114Z" fill="#3E3231"/>
</g>
<g filter="url(#filter16_f_3987_21941)">
<path d="M11.5532 10.4987C12.2095 10.4987 12.9946 10.2604 13.6353 9.64709" stroke="#453A3B" stroke-width="0.4" stroke-linecap="round"/>
</g>
<g filter="url(#filter17_f_3987_21941)">
<path d="M20.5056 10.4127C19.8494 10.4127 19.0642 10.1744 18.4236 9.56116" stroke="#453A3B" stroke-width="0.4" stroke-linecap="round"/>
</g>
<g filter="url(#filter18_f_3987_21941)">
<path fill-rule="evenodd" clip-rule="evenodd" d="M17.0966 17.6709C16.1785 17.0429 15.1674 17.4105 14.7562 17.6752C14.6284 17.7574 14.4583 17.7205 14.3761 17.5928C14.2939 17.4651 14.3308 17.2949 14.4585 17.2127C14.9535 16.894 16.2236 16.4074 17.4071 17.217C17.5325 17.3027 17.5646 17.4738 17.4788 17.5992C17.3931 17.7246 17.2219 17.7567 17.0966 17.6709Z" stroke="url(#paint36_radial_3987_21941)" stroke-width="0.3" stroke-linecap="round"/>
<path fill-rule="evenodd" clip-rule="evenodd" d="M17.0966 17.6709C16.1785 17.0429 15.1674 17.4105 14.7562 17.6752C14.6284 17.7574 14.4583 17.7205 14.3761 17.5928C14.2939 17.4651 14.3308 17.2949 14.4585 17.2127C14.9535 16.894 16.2236 16.4074 17.4071 17.217C17.5325 17.3027 17.5646 17.4738 17.4788 17.5992C17.3931 17.7246 17.2219 17.7567 17.0966 17.6709Z" stroke="url(#paint37_radial_3987_21941)" stroke-width="0.3" stroke-linecap="round"/>
</g>
<path fill-rule="evenodd" clip-rule="evenodd" d="M17.0966 17.6709C16.1785 17.0429 15.1674 17.4105 14.7562 17.6752C14.6284 17.7574 14.4583 17.7205 14.3761 17.5928C14.2939 17.4651 14.3308 17.2949 14.4585 17.2127C14.9535 16.894 16.2236 16.4074 17.4071 17.217C17.5325 17.3027 17.5646 17.4738 17.4788 17.5992C17.3931 17.7246 17.2219 17.7567 17.0966 17.6709Z" fill="#87004D"/>
<defs>
<filter id="filter0_i_3987_21941" x="7.70227" y="11.1475" width="4.5114" height="4.3114" filterUnits="userSpaceOnUse" color-interpolation-filters="sRGB">
<feFlood flood-opacity="0" result="BackgroundImageFix"/>
<feBlend mode="normal" in="SourceGraphic" in2="BackgroundImageFix" result="shape"/>
<feColorMatrix in="SourceAlpha" type="matrix" values="0 0 0 0 0 0 0 0 0 0 0 0 0 0 0 0 0 0 127 0" result="hardAlpha"/>
<feOffset dx="0.2"/>
<feGaussianBlur stdDeviation="0.15"/>
<feComposite in2="hardAlpha" operator="arithmetic" k2="-1" k3="1"/>
<feColorMatrix type="matrix" values="0 0 0 0 0.517647 0 0 0 0 0.384314 0 0 0 0 0.34902 0 0 0 1 0"/>
<feBlend mode="normal" in2="shape" result="effect1_innerShadow_3987_21941"/>
</filter>
<filter id="filter1_f_3987_21941" x="8.07312" y="11.5184" width="3.56958" height="3.56952" filterUnits="userSpaceOnUse" color-interpolation-filters="sRGB">
<feFlood flood-opacity="0" result="BackgroundImageFix"/>
<feBlend mode="normal" in="SourceGraphic" in2="BackgroundImageFix" result="shape"/>
<feGaussianBlur stdDeviation="0.25" result="effect1_foregroundBlur_3987_21941"/>
</filter>
<filter id="filter2_i_3987_21941" x="19.9863" y="10.8975" width="4.5614" height="4.5614" filterUnits="userSpaceOnUse" color-interpolation-filters="sRGB">
<feFlood flood-opacity="0" result="BackgroundImageFix"/>
<feBlend mode="normal" in="SourceGraphic" in2="BackgroundImageFix" result="shape"/>
<feColorMatrix in="SourceAlpha" type="matrix" values="0 0 0 0 0 0 0 0 0 0 0 0 0 0 0 0 0 0 127 0" result="hardAlpha"/>
<feOffset dx="0.25" dy="-0.25"/>
<feGaussianBlur stdDeviation="0.25"/>
<feComposite in2="hardAlpha" operator="arithmetic" k2="-1" k3="1"/>
<feColorMatrix type="matrix" values="0 0 0 0 0.482353 0 0 0 0 0.278431 0 0 0 0 0.372549 0 0 0 1 0"/>
<feBlend mode="normal" in2="shape" result="effect1_innerShadow_3987_21941"/>
</filter>
<filter id="filter3_f_3987_21941" x="20.3573" y="11.5184" width="3.56958" height="3.56952" filterUnits="userSpaceOnUse" color-interpolation-filters="sRGB">
<feFlood flood-opacity="0" result="BackgroundImageFix"/>
<feBlend mode="normal" in="SourceGraphic" in2="BackgroundImageFix" result="shape"/>
<feGaussianBlur stdDeviation="0.25" result="effect1_foregroundBlur_3987_21941"/>
</filter>
<filter id="filter4_i_3987_21941" x="9.32837" y="6.04053" width="13.3951" height="15.7812" filterUnits="userSpaceOnUse" color-interpolation-filters="sRGB">
<feFlood flood-opacity="0" result="BackgroundImageFix"/>
<feBlend mode="normal" in="SourceGraphic" in2="BackgroundImageFix" result="shape"/>
<feColorMatrix in="SourceAlpha" type="matrix" values="0 0 0 0 0 0 0 0 0 0 0 0 0 0 0 0 0 0 127 0" result="hardAlpha"/>
<feOffset dy="0.25"/>
<feGaussianBlur stdDeviation="0.375"/>
<feComposite in2="hardAlpha" operator="arithmetic" k2="-1" k3="1"/>
<feColorMatrix type="matrix" values="0 0 0 0 0.254902 0 0 0 0 0.137255 0 0 0 0 0.113725 0 0 0 1 0"/>
<feBlend mode="normal" in2="shape" result="effect1_innerShadow_3987_21941"/>
</filter>
<filter id="filter5_f_3987_21941" x="14.2081" y="4.04053" width="9.48291" height="7.9599" filterUnits="userSpaceOnUse" color-interpolation-filters="sRGB">
<feFlood flood-opacity="0" result="BackgroundImageFix"/>
<feBlend mode="normal" in="SourceGraphic" in2="BackgroundImageFix" result="shape"/>
<feGaussianBlur stdDeviation="1" result="effect1_foregroundBlur_3987_21941"/>
</filter>
<filter id="filter6_i_3987_21941" x="7.85278" y="1.69666" width="16.272" height="10.8863" filterUnits="userSpaceOnUse" color-interpolation-filters="sRGB">
<feFlood flood-opacity="0" result="BackgroundImageFix"/>
<feBlend mode="normal" in="SourceGraphic" in2="BackgroundImageFix" result="shape"/>
<feColorMatrix in="SourceAlpha" type="matrix" values="0 0 0 0 0 0 0 0 0 0 0 0 0 0 0 0 0 0 127 0" result="hardAlpha"/>
<feOffset dy="-0.5"/>
<feGaussianBlur stdDeviation="0.375"/>
<feComposite in2="hardAlpha" operator="arithmetic" k2="-1" k3="1"/>
<feColorMatrix type="matrix" values="0 0 0 0 0.0392157 0 0 0 0 0.00784314 0 0 0 0 0.0196078 0 0 0 1 0"/>
<feBlend mode="normal" in2="shape" result="effect1_innerShadow_3987_21941"/>
</filter>
<filter id="filter7_f_3987_21941" x="13.7938" y="12.0308" width="3.77258" height="4.9621" filterUnits="userSpaceOnUse" color-interpolation-filters="sRGB">
<feFlood flood-opacity="0" result="BackgroundImageFix"/>
<feBlend mode="normal" in="SourceGraphic" in2="BackgroundImageFix" result="shape"/>
<feGaussianBlur stdDeviation="0.375" result="effect1_foregroundBlur_3987_21941"/>
</filter>
<filter id="filter8_f_3987_21941" x="14.527" y="12.3202" width="2.92346" height="3.9621" filterUnits="userSpaceOnUse" color-interpolation-filters="sRGB">
<feFlood flood-opacity="0" result="BackgroundImageFix"/>
<feBlend mode="normal" in="SourceGraphic" in2="BackgroundImageFix" result="shape"/>
<feGaussianBlur stdDeviation="0.125" result="effect1_foregroundBlur_3987_21941"/>
</filter>
<filter id="filter9_f_3987_21941" x="17.8835" y="11.8838" width="0.957568" height="0.840686" filterUnits="userSpaceOnUse" color-interpolation-filters="sRGB">
<feFlood flood-opacity="0" result="BackgroundImageFix"/>
<feBlend mode="normal" in="SourceGraphic" in2="BackgroundImageFix" result="shape"/>
<feGaussianBlur stdDeviation="0.05" result="effect1_foregroundBlur_3987_21941"/>
</filter>
<filter id="filter10_f_3987_21941" x="18.9969" y="12.0098" width="1.03416" height="1.06278" filterUnits="userSpaceOnUse" color-interpolation-filters="sRGB">
<feFlood flood-opacity="0" result="BackgroundImageFix"/>
<feBlend mode="normal" in="SourceGraphic" in2="BackgroundImageFix" result="shape"/>
<feGaussianBlur stdDeviation="0.1" result="effect1_foregroundBlur_3987_21941"/>
</filter>
<filter id="filter11_f_3987_21941" x="13.2615" y="11.9279" width="1.15696" height="1.22648" filterUnits="userSpaceOnUse" color-interpolation-filters="sRGB">
<feFlood flood-opacity="0" result="BackgroundImageFix"/>
<feBlend mode="normal" in="SourceGraphic" in2="BackgroundImageFix" result="shape"/>
<feGaussianBlur stdDeviation="0.1" result="effect1_foregroundBlur_3987_21941"/>
</filter>
<filter id="filter12_f_3987_21941" x="12.2579" y="11.8733" width="1.12053" height="0.851306" filterUnits="userSpaceOnUse" color-interpolation-filters="sRGB">
<feFlood flood-opacity="0" result="BackgroundImageFix"/>
<feBlend mode="normal" in="SourceGraphic" in2="BackgroundImageFix" result="shape"/>
<feGaussianBlur stdDeviation="0.05" result="effect1_foregroundBlur_3987_21941"/>
</filter>
<filter id="filter13_f_3987_21941" x="9.42725" y="6.71545" width="1.08325" height="2.71191" filterUnits="userSpaceOnUse" color-interpolation-filters="sRGB">
<feFlood flood-opacity="0" result="BackgroundImageFix"/>
<feBlend mode="normal" in="SourceGraphic" in2="BackgroundImageFix" result="shape"/>
<feGaussianBlur stdDeviation="0.125" result="effect1_foregroundBlur_3987_21941"/>
</filter>
<filter id="filter14_i_3987_21941" x="10.9282" y="8.77834" width="3.58203" height="2.50156" filterUnits="userSpaceOnUse" color-interpolation-filters="sRGB">
<feFlood flood-opacity="0" result="BackgroundImageFix"/>
<feBlend mode="normal" in="SourceGraphic" in2="BackgroundImageFix" result="shape"/>
<feColorMatrix in="SourceAlpha" type="matrix" values="0 0 0 0 0 0 0 0 0 0 0 0 0 0 0 0 0 0 127 0" result="hardAlpha"/>
<feOffset dx="0.25" dy="-0.4"/>
<feGaussianBlur stdDeviation="0.3"/>
<feComposite in2="hardAlpha" operator="arithmetic" k2="-1" k3="1"/>
<feColorMatrix type="matrix" values="0 0 0 0 0.14902 0 0 0 0 0.0980392 0 0 0 0 0.0980392 0 0 0 1 0"/>
<feBlend mode="normal" in2="shape" result="effect1_innerShadow_3987_21941"/>
</filter>
<filter id="filter15_i_3987_21941" x="17.7173" y="8.77834" width="3.58203" height="2.50156" filterUnits="userSpaceOnUse" color-interpolation-filters="sRGB">
<feFlood flood-opacity="0" result="BackgroundImageFix"/>
<feBlend mode="normal" in="SourceGraphic" in2="BackgroundImageFix" result="shape"/>
<feColorMatrix in="SourceAlpha" type="matrix" values="0 0 0 0 0 0 0 0 0 0 0 0 0 0 0 0 0 0 127 0" result="hardAlpha"/>
<feOffset dx="0.25" dy="-0.4"/>
<feGaussianBlur stdDeviation="0.3"/>
<feComposite in2="hardAlpha" operator="arithmetic" k2="-1" k3="1"/>
<feColorMatrix type="matrix" values="0 0 0 0 0.14902 0 0 0 0 0.0980392 0 0 0 0 0.0980392 0 0 0 1 0"/>
<feBlend mode="normal" in2="shape" result="effect1_innerShadow_3987_21941"/>
</filter>
<filter id="filter16_f_3987_21941" x="10.9533" y="9.04708" width="3.28193" height="2.05159" filterUnits="userSpaceOnUse" color-interpolation-filters="sRGB">
<feFlood flood-opacity="0" result="BackgroundImageFix"/>
<feBlend mode="normal" in="SourceGraphic" in2="BackgroundImageFix" result="shape"/>
<feGaussianBlur stdDeviation="0.2" result="effect1_foregroundBlur_3987_21941"/>
</filter>
<filter id="filter17_f_3987_21941" x="17.8236" y="8.96115" width="3.28193" height="2.05159" filterUnits="userSpaceOnUse" color-interpolation-filters="sRGB">
<feFlood flood-opacity="0" result="BackgroundImageFix"/>
<feBlend mode="normal" in="SourceGraphic" in2="BackgroundImageFix" result="shape"/>
<feGaussianBlur stdDeviation="0.2" result="effect1_foregroundBlur_3987_21941"/>
</filter>
<filter id="filter18_f_3987_21941" x="14.0823" y="16.5237" width="3.69463" height="1.44536" filterUnits="userSpaceOnUse" color-interpolation-filters="sRGB">
<feFlood flood-opacity="0" result="BackgroundImageFix"/>
<feBlend mode="normal" in="SourceGraphic" in2="BackgroundImageFix" result="shape"/>
<feGaussianBlur stdDeviation="0.05" result="effect1_foregroundBlur_3987_21941"/>
</filter>
<radialGradient id="paint0_radial_3987_21941" cx="0" cy="0" r="1" gradientUnits="userSpaceOnUse" gradientTransform="translate(22.8239 24.194) rotate(160.481) scale(12.5328 12.8728)">
<stop stop-color="#47B4FF"/>
<stop offset="0.578289" stop-color="#2E8BD7"/>
</radialGradient>
<radialGradient id="paint1_radial_3987_21941" cx="0" cy="0" r="1" gradientUnits="userSpaceOnUse" gradientTransform="translate(25.1989 29.069) rotate(180) scale(20.8125 13.0625)">
<stop offset="0.765766" stop-color="#3891C9" stop-opacity="0"/>
<stop offset="1" stop-color="#3891C9"/>
</radialGradient>
<radialGradient id="paint2_radial_3987_21941" cx="0" cy="0" r="1" gradientUnits="userSpaceOnUse" gradientTransform="translate(10.8357 30.1485) rotate(-90) scale(5.43107 5.625)">
<stop stop-color="#2683D3"/>
<stop offset="1" stop-color="#2683D3" stop-opacity="0"/>
</radialGradient>
<linearGradient id="paint3_linear_3987_21941" x1="16" y1="29.8893" x2="16" y2="29.3034" gradientUnits="userSpaceOnUse">
<stop stop-color="#1B70C9"/>
<stop offset="1" stop-color="#1B70C9" stop-opacity="0"/>
</linearGradient>
<radialGradient id="paint4_radial_3987_21941" cx="0" cy="0" r="1" gradientUnits="userSpaceOnUse" gradientTransform="translate(15.703 21.0829) rotate(180) scale(5.61736 2.43441)">
<stop offset="0.20625" stop-color="#045D9A"/>
<stop offset="1" stop-color="#045D9A" stop-opacity="0"/>
</radialGradient>
<radialGradient id="paint5_radial_3987_21941" cx="0" cy="0" r="1" gradientUnits="userSpaceOnUse" gradientTransform="translate(15.2494 20.7578) rotate(49.2006) scale(3.92172 6.18451)">
<stop offset="0.177853" stop-color="#5E353E"/>
<stop offset="0.963236" stop-color="#8C6560"/>
</radialGradient>
<radialGradient id="paint6_radial_3987_21941" cx="0" cy="0" r="1" gradientUnits="userSpaceOnUse" gradientTransform="translate(7.70227 13.3032) scale(2.26599 3.9655)">
<stop offset="0.350532" stop-color="#664249"/>
<stop offset="1" stop-color="#613641"/>
</radialGradient>
<linearGradient id="paint7_linear_3987_21941" x1="9.85788" y1="13.663" x2="9.03075" y2="13.663" gradientUnits="userSpaceOnUse">
<stop stop-color="#553038"/>
<stop offset="1" stop-color="#59323C"/>
</linearGradient>
<linearGradient id="paint8_linear_3987_21941" x1="23.5449" y1="11.8937" x2="22.4878" y2="15.1687" gradientUnits="userSpaceOnUse">
<stop stop-color="#96776B"/>
<stop offset="1" stop-color="#855A5B"/>
</linearGradient>
<radialGradient id="paint9_radial_3987_21941" cx="0" cy="0" r="1" gradientUnits="userSpaceOnUse" gradientTransform="translate(22.6225 12.9612) rotate(-36.0604) scale(1.3205 1.50718)">
<stop offset="0.542503" stop-color="#7C524C"/>
<stop offset="1" stop-color="#7C524C" stop-opacity="0"/>
</radialGradient>
<radialGradient id="paint10_radial_3987_21941" cx="0" cy="0" r="1" gradientUnits="userSpaceOnUse" gradientTransform="translate(22.0887 14.3637) rotate(-61.4675) scale(2.22013 1.29945)">
<stop offset="0.754913" stop-color="#73443E" stop-opacity="0"/>
<stop offset="0.915553" stop-color="#73443E"/>
</radialGradient>
<radialGradient id="paint11_radial_3987_21941" cx="0" cy="0" r="1" gradientUnits="userSpaceOnUse" gradientTransform="translate(22.1421 13.3032) rotate(44.7077) scale(0.471094 0.607306)">
<stop stop-color="#6C443E"/>
<stop offset="1" stop-color="#6C443E" stop-opacity="0"/>
</radialGradient>
<linearGradient id="paint12_linear_3987_21941" x1="21.2002" y1="13.8061" x2="11.339" y2="15.2756" gradientUnits="userSpaceOnUse">
<stop stop-color="#9B6C5E"/>
<stop offset="1" stop-color="#744D4A"/>
</linearGradient>
<radialGradient id="paint13_radial_3987_21941" cx="0" cy="0" r="1" gradientUnits="userSpaceOnUse" gradientTransform="translate(19.0181 11.6614) rotate(-90) scale(1.68778 2.07727)">
<stop stop-color="#855354"/>
<stop offset="1" stop-color="#855354" stop-opacity="0"/>
</radialGradient>
<radialGradient id="paint14_radial_3987_21941" cx="0" cy="0" r="1" gradientUnits="userSpaceOnUse" gradientTransform="translate(13.1325 11.8345) rotate(-90) scale(1.77433 2.20654)">
<stop stop-color="#6F414D"/>
<stop offset="1" stop-color="#6F414D" stop-opacity="0"/>
</radialGradient>
<linearGradient id="paint15_linear_3987_21941" x1="9.02125" y1="17.2873" x2="11.4507" y2="17.2008" gradientUnits="userSpaceOnUse">
<stop stop-color="#84615A"/>
<stop offset="1" stop-color="#84615A" stop-opacity="0"/>
</linearGradient>
<linearGradient id="paint16_linear_3987_21941" x1="22.2698" y1="16.2054" x2="20.9066" y2="16.0756" gradientUnits="userSpaceOnUse">
<stop stop-color="#966D5F"/>
<stop offset="1" stop-color="#966D5F" stop-opacity="0"/>
</linearGradient>
<radialGradient id="paint17_radial_3987_21941" cx="0" cy="0" r="1" gradientUnits="userSpaceOnUse" gradientTransform="translate(15.5993 11.0122) rotate(90) scale(10.5595 14.3339)">
<stop offset="0.710425" stop-color="#7D4371" stop-opacity="0"/>
<stop offset="1" stop-color="#7D4371"/>
</radialGradient>
<linearGradient id="paint18_linear_3987_21941" x1="16.0259" y1="20.383" x2="16.0259" y2="21.7378" gradientUnits="userSpaceOnUse">
<stop offset="0.532839" stop-color="#8E5B8E" stop-opacity="0"/>
<stop offset="1" stop-color="#8E5B8E"/>
</linearGradient>
<linearGradient id="paint19_linear_3987_21941" x1="15.3023" y1="9.95197" x2="25.8185" y2="6.18692" gradientUnits="userSpaceOnUse">
<stop stop-color="#A27B71"/>
<stop offset="1" stop-color="#A27B71" stop-opacity="0"/>
</linearGradient>
<radialGradient id="paint20_radial_3987_21941" cx="0" cy="0" r="1" gradientUnits="userSpaceOnUse" gradientTransform="translate(21.5995 8.00088) rotate(-74.8989) scale(3.95432 1.46639)">
<stop stop-color="#3D3437"/>
<stop offset="1" stop-color="#3D3437" stop-opacity="0"/>
</radialGradient>
<radialGradient id="paint21_radial_3987_21941" cx="0" cy="0" r="1" gradientUnits="userSpaceOnUse" gradientTransform="translate(19.4785 5.7284) rotate(5.25781) scale(4.95973 2.66681)">
<stop offset="0.12243" stop-color="#46383D"/>
<stop offset="1" stop-color="#46383D" stop-opacity="0"/>
</radialGradient>
<radialGradient id="paint22_radial_3987_21941" cx="0" cy="0" r="1" gradientUnits="userSpaceOnUse" gradientTransform="translate(15.9888 2.19666) rotate(90) scale(2.16825 3.35801)">
<stop stop-color="#3E3034"/>
<stop offset="1" stop-color="#3E3034" stop-opacity="0"/>
</radialGradient>
<radialGradient id="paint23_radial_3987_21941" cx="0" cy="0" r="1" gradientUnits="userSpaceOnUse" gradientTransform="translate(7.66159 11.0006) rotate(-36.2349) scale(4.92098 7.70957)">
<stop stop-color="#453938"/>
<stop offset="1" stop-color="#453938" stop-opacity="0"/>
</radialGradient>
<linearGradient id="paint24_linear_3987_21941" x1="14.8728" y1="14.6574" x2="16.0843" y2="14.6574" gradientUnits="userSpaceOnUse">
<stop stop-color="#754E46"/>
<stop offset="1" stop-color="#754E46" stop-opacity="0"/>
</linearGradient>
<linearGradient id="paint25_linear_3987_21941" x1="17.2005" y1="15.0738" x2="15.8761" y2="15.0549" gradientUnits="userSpaceOnUse">
<stop stop-color="#9D766B"/>
<stop offset="1" stop-color="#9D766B" stop-opacity="0"/>
</linearGradient>
<linearGradient id="paint26_linear_3987_21941" x1="16.2399" y1="16.0323" x2="16.2399" y2="15.2924" gradientUnits="userSpaceOnUse">
<stop stop-color="#7C4559"/>
<stop offset="1" stop-color="#7C4559" stop-opacity="0"/>
</linearGradient>
<radialGradient id="paint27_radial_3987_21941" cx="0" cy="0" r="1" gradientUnits="userSpaceOnUse" gradientTransform="translate(16.4112 15.3777) rotate(90) scale(0.254249 0.816843)">
<stop stop-color="#976F6A"/>
<stop offset="1" stop-color="#976F6A" stop-opacity="0"/>
</radialGradient>
<linearGradient id="paint28_linear_3987_21941" x1="16.151" y1="16.0864" x2="16.151" y2="15.87" gradientUnits="userSpaceOnUse">
<stop stop-color="#743B4A"/>
<stop offset="1" stop-color="#743B4A" stop-opacity="0"/>
</linearGradient>
<radialGradient id="paint29_radial_3987_21941" cx="0" cy="0" r="1" gradientUnits="userSpaceOnUse" gradientTransform="translate(18.8022 12.4226) rotate(90) scale(1.04738 1.66598)">
<stop offset="0.80198" stop-color="#7D574A"/>
<stop offset="1" stop-color="#694B43"/>
<stop offset="1" stop-color="#804D49"/>
<stop offset="1" stop-color="#664944"/>
</radialGradient>
<radialGradient id="paint30_radial_3987_21941" cx="0" cy="0" r="1" gradientUnits="userSpaceOnUse" gradientTransform="translate(18.5076 12.5311) rotate(-127.812) scale(0.488355 0.672348)">
<stop offset="0.765532" stop-color="#FFE6E2" stop-opacity="0"/>
<stop offset="0.966159" stop-color="#FFE6E2"/>
</radialGradient>
<linearGradient id="paint31_linear_3987_21941" x1="19.8065" y1="12.4921" x2="19.4015" y2="12.7417" gradientUnits="userSpaceOnUse">
<stop stop-color="#B4948D"/>
<stop offset="1" stop-color="#B4948D" stop-opacity="0"/>
</linearGradient>
<radialGradient id="paint32_radial_3987_21941" cx="0" cy="0" r="1" gradientUnits="userSpaceOnUse" gradientTransform="translate(13.1685 12.4225) rotate(90) scale(1.04744 1.66606)">
<stop offset="0.80198" stop-color="#7D574A"/>
<stop offset="1" stop-color="#694B43"/>
<stop offset="1" stop-color="#804D49"/>
<stop offset="1" stop-color="#664944"/>
</radialGradient>
<linearGradient id="paint33_linear_3987_21941" x1="14.1288" y1="12.4921" x2="13.7237" y2="12.7417" gradientUnits="userSpaceOnUse">
<stop stop-color="#B4948D"/>
<stop offset="1" stop-color="#B4948D" stop-opacity="0"/>
</linearGradient>
<radialGradient id="paint34_radial_3987_21941" cx="0" cy="0" r="1" gradientUnits="userSpaceOnUse" gradientTransform="translate(12.7987 12.7055) rotate(-90.897) scale(0.637922 0.766808)">
<stop offset="0.765532" stop-color="#FFE6E2" stop-opacity="0"/>
<stop offset="0.966159" stop-color="#FFE6E2"/>
</radialGradient>
<linearGradient id="paint35_linear_3987_21941" x1="9.96891" y1="6.96299" x2="9.96891" y2="9.74827" gradientUnits="userSpaceOnUse">
<stop offset="0.227964" stop-color="#32272D"/>
<stop offset="1" stop-color="#32272D" stop-opacity="0"/>
</linearGradient>
<radialGradient id="paint36_radial_3987_21941" cx="0" cy="0" r="1" gradientUnits="userSpaceOnUse" gradientTransform="translate(16.2655 17.3711) rotate(106.991) scale(0.294086 1.61789)">
<stop stop-color="#936B67"/>
<stop offset="1" stop-color="#936B67" stop-opacity="0"/>
</radialGradient>
<radialGradient id="paint37_radial_3987_21941" cx="0" cy="0" r="1" gradientUnits="userSpaceOnUse" gradientTransform="translate(14.3323 17.6875) rotate(-37.1137) scale(0.239528 0.94938)">
<stop stop-color="#936B67"/>
<stop offset="1" stop-color="#936B67" stop-opacity="0"/>
</radialGradient>
</defs>
</svg>
