<svg xmlns="http://www.w3.org/2000/svg" width="32" height="32" fill="none"><path fill="#6D4534" d="M24 6.5H8v19c0 1.933 3.582 3.5 8 3.5s8-1.567 8-3.5v-19Z"/><path fill="#A56953" d="M16 10c4.418 0 8-1.567 8-3.5S20.418 3 16 3 8 4.567 8 6.5c0 .637.32 1.181 1 1.696.022.017-.023-.018 0 0V14.5a.5.5 0 0 0 1 0V8.815c.027.014-.028-.014 0 0 1.467.75 3.566 1.185 6 1.185ZM27.354 10.768 24 14.12V25.5c0 .888-.755 1.698-2 2.315V23.5a.5.5 0 0 0-1-.008v-9.578a2.5 2.5 0 0 1 .732-1.768l3.5-3.5a1 1 0 0 1 1.414 0l.708.708a1 1 0 0 1 0 1.414ZM4.146 19.268 8 23.12V25.5c0 1.105 1.171 2.09 3 2.732v-5.318a2.5 2.5 0 0 0-.732-1.768l-4-4a1 1 0 0 0-1.414 0l-.708.707a1 1 0 0 0 0 1.415ZM12 15.5a.5.5 0 0 1 1 0v4a.5.5 0 1 1-1 0v-4Z"/><path fill="#F3AD61" d="M23 6.25C23 7.769 19.866 9 16 9S9 7.769 9 6.25s3.134-2.75 7-2.75 7 1.231 7 2.75Z"/><path fill="#6D4534" d="M16 8c2.761 0 5-.84 5-1.875 0-1.036-2.239-1.875-5-1.875s-5 .84-5 1.875C11 7.161 13.239 8 16 8Zm0-1c-1.657 0-3-.448-3-1s1.343-1 3-1 3 .448 3 1-1.343 1-3 1Z"/></svg>