<svg width="32" height="32" viewBox="0 0 32 32" fill="none" xmlns="http://www.w3.org/2000/svg">
<path d="M16.0209 19.3193C15.2409 19.3193 14.4709 19.3993 13.7209 19.5493V29.9293H18.3009V19.5493C17.5609 19.3993 16.8009 19.3193 16.0209 19.3193Z" fill="url(#paint0_radial_4002_2960)"/>
<path d="M16.0209 19.3193C15.2409 19.3193 14.4709 19.3993 13.7209 19.5493V29.9293H18.3009V19.5493C17.5609 19.3993 16.8009 19.3193 16.0209 19.3193Z" fill="url(#paint1_radial_4002_2960)"/>
<path d="M13.7209 19.1978C13.1132 19.3322 12.5254 19.5079 11.9575 19.7354V29.9296H13.7209V19.1978Z" fill="url(#paint2_radial_4002_2960)"/>
<path d="M13.7209 19.1978C13.1132 19.3322 12.5254 19.5079 11.9575 19.7354V29.9296H13.7209V19.1978Z" fill="url(#paint3_radial_4002_2960)"/>
<path d="M13.7209 19.1978C13.1132 19.3322 12.5254 19.5079 11.9575 19.7354V29.9296H13.7209V19.1978Z" fill="url(#paint4_radial_4002_2960)"/>
<path d="M18.2791 19.1978C18.8868 19.3322 19.4746 19.5079 20.0425 19.7354V29.9296H18.2791V19.1978Z" fill="url(#paint5_radial_4002_2960)"/>
<path d="M18.2791 19.1978C18.8868 19.3322 19.4746 19.5079 20.0425 19.7354V29.9296H18.2791V19.1978Z" fill="url(#paint6_radial_4002_2960)"/>
<path d="M8.38854 22.0176C8.3581 22.0458 8.34093 22.0854 8.34093 22.127V29.9298H9.97485V20.7695C9.41501 21.1402 8.88322 21.5593 8.38854 22.0176Z" fill="url(#paint7_linear_4002_2960)"/>
<path d="M8.38854 22.0176C8.3581 22.0458 8.34093 22.0854 8.34093 22.127V29.9298H9.97485V20.7695C9.41501 21.1402 8.88322 21.5593 8.38854 22.0176Z" fill="url(#paint8_radial_4002_2960)"/>
<path d="M8.38854 22.0176C8.3581 22.0458 8.34093 22.0854 8.34093 22.127V29.9298H9.97485V20.7695C9.41501 21.1402 8.88322 21.5593 8.38854 22.0176Z" fill="url(#paint9_radial_4002_2960)"/>
<path d="M23.6591 22.0619V29.9298H22.0251V20.7695C22.603 21.1521 23.151 21.5863 23.6591 22.0619Z" fill="url(#paint10_radial_4002_2960)"/>
<path d="M23.6591 22.0619V29.9298H22.0251V20.7695C22.603 21.1521 23.151 21.5863 23.6591 22.0619Z" fill="url(#paint11_radial_4002_2960)"/>
<path d="M9.9749 20.7692V29.9295H11.9575V19.7354C11.2601 20.0145 10.6026 20.3557 9.9749 20.7692Z" fill="#FFCA44"/>
<path d="M9.9749 20.7692V29.9295H11.9575V19.7354C11.2601 20.0145 10.6026 20.3557 9.9749 20.7692Z" fill="url(#paint12_radial_4002_2960)"/>
<path d="M22.0251 20.7692V29.9295H20.0425V19.7354C20.7399 20.0145 21.3974 20.3557 22.0251 20.7692Z" fill="url(#paint13_linear_4002_2960)"/>
<path d="M22.0251 20.7692V29.9295H20.0425V19.7354C20.7399 20.0145 21.3974 20.3557 22.0251 20.7692Z" fill="url(#paint14_radial_4002_2960)"/>
<path d="M4.60105 29.9294C4.74092 28.9835 4.94075 28.0479 5.2205 27.1431C5.81997 25.169 6.93231 23.4611 8.34106 22.1245V29.9294H4.60105Z" fill="url(#paint15_radial_4002_2960)"/>
<path d="M4.60105 29.9294C4.74092 28.9835 4.94075 28.0479 5.2205 27.1431C5.81997 25.169 6.93231 23.4611 8.34106 22.1245V29.9294H4.60105Z" fill="url(#paint16_linear_4002_2960)"/>
<path d="M27.399 29.9294C27.2591 28.9835 27.0593 28.0479 26.7795 27.1431C26.18 25.169 25.0677 23.4611 23.6589 22.1245V29.9294H27.399Z" fill="url(#paint17_radial_4002_2960)"/>
<path d="M27.399 29.9294C27.2591 28.9835 27.0593 28.0479 26.7795 27.1431C26.18 25.169 25.0677 23.4611 23.6589 22.1245V29.9294H27.399Z" fill="url(#paint18_radial_4002_2960)"/>
<path d="M13.8101 20.4062C13.8697 21.1667 14.3953 22.6875 16.021 22.6875C17.6467 22.6875 18.1723 21.1667 18.2319 20.4062H13.8101Z" fill="url(#paint19_radial_4002_2960)"/>
<path d="M13.8101 20.4062C13.8697 21.1667 14.3953 22.6875 16.021 22.6875C17.6467 22.6875 18.1723 21.1667 18.2319 20.4062H13.8101Z" fill="url(#paint20_radial_4002_2960)"/>
<path d="M13.8101 20.4062C13.8697 21.1667 14.3953 22.6875 16.021 22.6875C17.6467 22.6875 18.1723 21.1667 18.2319 20.4062H13.8101Z" fill="url(#paint21_radial_4002_2960)"/>
<rect x="9.677" y="11.6211" width="0.953068" height="1.08203" fill="#2F2728"/>
<rect x="21.3296" y="11.6211" width="0.835938" height="1.08203" fill="#2A282B"/>
<path d="M21.2606 15.5357C21.622 15.524 21.9603 15.4015 22.2356 15.2031V16.2066C22.2356 17.1691 21.6621 18.0267 20.7904 18.3826C20.9739 17.9917 21.1001 17.5659 21.1632 17.1108L21.2606 15.5357Z" fill="url(#paint22_radial_4002_2960)"/>
<path d="M10.7816 15.5357C10.4203 15.524 10.0819 15.4015 9.80664 15.2031V16.2066C9.80664 17.1691 10.3801 18.0267 11.2519 18.3826C11.0683 17.9917 10.9422 17.5659 10.8791 17.1108L10.7816 15.5357Z" fill="url(#paint23_radial_4002_2960)"/>
<g filter="url(#filter0_ii_4002_2960)">
<path d="M10.821 17.1685C11.0983 19.2727 12.889 20.8394 15.009 20.8394H17.0423C19.1623 20.8394 20.953 19.2727 21.2303 17.1685C21.3575 15.1383 21.4853 13.1162 21.5797 11.087C21.5682 10.2604 20.9166 9.57824 20.0934 9.54356H18.5843C17.5553 9.54356 16.6236 8.93657 16.2006 7.9885C16.0919 7.7168 15.829 7.5376 15.5375 7.5376H14.1655C12.1762 7.5376 10.5642 9.1678 10.5642 11.1795C10.5642 13.185 10.6895 15.158 10.821 17.1685Z" fill="url(#paint24_radial_4002_2960)"/>
</g>
<path d="M10.821 17.1685C11.0983 19.2727 12.889 20.8394 15.009 20.8394H17.0423C19.1623 20.8394 20.953 19.2727 21.2303 17.1685C21.3575 15.1383 21.4853 13.1162 21.5797 11.087C21.5682 10.2604 20.9166 9.57824 20.0934 9.54356H18.5843C17.5553 9.54356 16.6236 8.93657 16.2006 7.9885C16.0919 7.7168 15.829 7.5376 15.5375 7.5376H14.1655C12.1762 7.5376 10.5642 9.1678 10.5642 11.1795C10.5642 13.185 10.6895 15.158 10.821 17.1685Z" fill="url(#paint25_linear_4002_2960)"/>
<path d="M10.821 17.1685C11.0983 19.2727 12.889 20.8394 15.009 20.8394H17.0423C19.1623 20.8394 20.953 19.2727 21.2303 17.1685C21.3575 15.1383 21.4853 13.1162 21.5797 11.087C21.5682 10.2604 20.9166 9.57824 20.0934 9.54356H18.5843C17.5553 9.54356 16.6236 8.93657 16.2006 7.9885C16.0919 7.7168 15.829 7.5376 15.5375 7.5376H14.1655C12.1762 7.5376 10.5642 9.1678 10.5642 11.1795C10.5642 13.185 10.6895 15.158 10.821 17.1685Z" fill="url(#paint26_radial_4002_2960)"/>
<path d="M10.821 17.1685C11.0983 19.2727 12.889 20.8394 15.009 20.8394H17.0423C19.1623 20.8394 20.953 19.2727 21.2303 17.1685C21.3575 15.1383 21.4853 13.1162 21.5797 11.087C21.5682 10.2604 20.9166 9.57824 20.0934 9.54356H18.5843C17.5553 9.54356 16.6236 8.93657 16.2006 7.9885C16.0919 7.7168 15.829 7.5376 15.5375 7.5376H14.1655C12.1762 7.5376 10.5642 9.1678 10.5642 11.1795C10.5642 13.185 10.6895 15.158 10.821 17.1685Z" fill="url(#paint27_radial_4002_2960)"/>
<path d="M10.821 17.1685C11.0983 19.2727 12.889 20.8394 15.009 20.8394H17.0423C19.1623 20.8394 20.953 19.2727 21.2303 17.1685C21.3575 15.1383 21.4853 13.1162 21.5797 11.087C21.5682 10.2604 20.9166 9.57824 20.0934 9.54356H18.5843C17.5553 9.54356 16.6236 8.93657 16.2006 7.9885C16.0919 7.7168 15.829 7.5376 15.5375 7.5376H14.1655C12.1762 7.5376 10.5642 9.1678 10.5642 11.1795C10.5642 13.185 10.6895 15.158 10.821 17.1685Z" fill="url(#paint28_radial_4002_2960)"/>
<path d="M10.821 17.1685C11.0983 19.2727 12.889 20.8394 15.009 20.8394H17.0423C19.1623 20.8394 20.953 19.2727 21.2303 17.1685C21.3575 15.1383 21.4853 13.1162 21.5797 11.087C21.5682 10.2604 20.9166 9.57824 20.0934 9.54356H18.5843C17.5553 9.54356 16.6236 8.93657 16.2006 7.9885C16.0919 7.7168 15.829 7.5376 15.5375 7.5376H14.1655C12.1762 7.5376 10.5642 9.1678 10.5642 11.1795C10.5642 13.185 10.6895 15.158 10.821 17.1685Z" fill="url(#paint29_radial_4002_2960)"/>
<path d="M10.821 17.1685C11.0983 19.2727 12.889 20.8394 15.009 20.8394H17.0423C19.1623 20.8394 20.953 19.2727 21.2303 17.1685C21.3575 15.1383 21.4853 13.1162 21.5797 11.087C21.5682 10.2604 20.9166 9.57824 20.0934 9.54356H18.5843C17.5553 9.54356 16.6236 8.93657 16.2006 7.9885C16.0919 7.7168 15.829 7.5376 15.5375 7.5376H14.1655C12.1762 7.5376 10.5642 9.1678 10.5642 11.1795C10.5642 13.185 10.6895 15.158 10.821 17.1685Z" fill="url(#paint30_radial_4002_2960)"/>
<path d="M10.821 17.1685C11.0983 19.2727 12.889 20.8394 15.009 20.8394H17.0423C19.1623 20.8394 20.953 19.2727 21.2303 17.1685C21.3575 15.1383 21.4853 13.1162 21.5797 11.087C21.5682 10.2604 20.9166 9.57824 20.0934 9.54356H18.5843C17.5553 9.54356 16.6236 8.93657 16.2006 7.9885C16.0919 7.7168 15.829 7.5376 15.5375 7.5376H14.1655C12.1762 7.5376 10.5642 9.1678 10.5642 11.1795C10.5642 13.185 10.6895 15.158 10.821 17.1685Z" fill="url(#paint31_radial_4002_2960)"/>
<path d="M10.821 17.1685C11.0983 19.2727 12.889 20.8394 15.009 20.8394H17.0423C19.1623 20.8394 20.953 19.2727 21.2303 17.1685C21.3575 15.1383 21.4853 13.1162 21.5797 11.087C21.5682 10.2604 20.9166 9.57824 20.0934 9.54356H18.5843C17.5553 9.54356 16.6236 8.93657 16.2006 7.9885C16.0919 7.7168 15.829 7.5376 15.5375 7.5376H14.1655C12.1762 7.5376 10.5642 9.1678 10.5642 11.1795C10.5642 13.185 10.6895 15.158 10.821 17.1685Z" fill="url(#paint32_linear_4002_2960)"/>
<g filter="url(#filter1_f_4002_2960)">
<path d="M15.5887 13.6241L14.9519 15.6055C14.8431 16.013 15.1042 16.4206 15.474 16.4206H16.2626C16.6324 16.4206 16.8935 16.0067 16.7847 15.6055L16.2517 13.6241C16.1375 13.1852 15.7083 13.1852 15.5887 13.6241Z" fill="#D69790"/>
</g>
<g filter="url(#filter2_f_4002_2960)">
<path d="M15.6091 13.4185L15.0363 15.3999C14.9194 15.8075 15.1999 16.215 15.5974 16.215H16.4449C16.8424 16.215 17.123 15.8012 17.0061 15.3999L16.4332 13.4185C16.3105 12.9796 15.7377 12.9796 15.6091 13.4185Z" fill="#DFA598"/>
<path d="M15.6091 13.4185L15.0363 15.3999C14.9194 15.8075 15.1999 16.215 15.5974 16.215H16.4449C16.8424 16.215 17.123 15.8012 17.0061 15.3999L16.4332 13.4185C16.3105 12.9796 15.7377 12.9796 15.6091 13.4185Z" fill="url(#paint33_linear_4002_2960)"/>
<path d="M15.6091 13.4185L15.0363 15.3999C14.9194 15.8075 15.1999 16.215 15.5974 16.215H16.4449C16.8424 16.215 17.123 15.8012 17.0061 15.3999L16.4332 13.4185C16.3105 12.9796 15.7377 12.9796 15.6091 13.4185Z" fill="url(#paint34_radial_4002_2960)"/>
<path d="M15.6091 13.4185L15.0363 15.3999C14.9194 15.8075 15.1999 16.215 15.5974 16.215H16.4449C16.8424 16.215 17.123 15.8012 17.0061 15.3999L16.4332 13.4185C16.3105 12.9796 15.7377 12.9796 15.6091 13.4185Z" fill="url(#paint35_linear_4002_2960)"/>
</g>
<g filter="url(#filter3_f_4002_2960)">
<path d="M15.6919 13.4185L15.119 15.3999C15.0021 15.8075 15.2827 16.215 15.6802 16.215H16.5277C16.9252 16.215 17.2057 15.8012 17.0888 15.3999L16.516 13.4185C16.3933 12.9796 15.8204 12.9796 15.6919 13.4185Z" fill="url(#paint36_linear_4002_2960)"/>
</g>
<g filter="url(#filter4_f_4002_2960)">
<path d="M14.5626 16.8901L14.5626 16.8901L14.5619 16.8898C14.4547 16.8352 14.3429 16.8694 14.2766 16.9392C14.21 17.0093 14.1831 17.1231 14.2524 17.2239C14.627 17.791 15.279 18.1687 16.0211 18.1687C16.7635 18.1687 17.4157 17.7907 17.7902 17.2233C17.8583 17.1209 17.8332 17.0073 17.7653 16.9368C17.6982 16.8672 17.5865 16.8358 17.4803 16.8898L17.4803 16.8898L17.4797 16.8901C17.0586 17.1096 16.5619 17.2356 16.0211 17.2356C15.4858 17.2356 14.9836 17.1096 14.5626 16.8901Z" stroke="url(#paint37_linear_4002_2960)" stroke-width="0.15"/>
</g>
<path d="M16.0211 17.3106C15.4742 17.3106 14.96 17.1819 14.5279 16.9566C14.3802 16.8815 14.2216 17.0478 14.3146 17.1819C14.6756 17.729 15.3046 18.0937 16.0211 18.0937C16.7376 18.0937 17.3667 17.729 17.7277 17.1819C17.8206 17.0424 17.662 16.8815 17.5143 16.9566C17.0822 17.1819 16.5736 17.3106 16.0211 17.3106Z" fill="url(#paint38_radial_4002_2960)"/>
<path d="M18.5982 12.394C19.3022 12.394 19.8968 12.8794 20.0585 13.5352C20.1066 13.7232 19.9624 13.9024 19.77 13.9024H17.3653C17.2123 13.9024 17.0898 13.7625 17.1204 13.6095C17.256 12.9187 17.8637 12.394 18.5982 12.394Z" fill="white"/>
<path d="M18.3752 12.687C18.9086 12.687 19.3371 13.1199 19.3371 13.6489C19.3371 13.7363 19.3239 13.8238 19.3021 13.9025H17.4439C17.4221 13.8194 17.4089 13.7363 17.4089 13.6489C17.4089 13.1199 17.8418 12.687 18.3752 12.687Z" fill="url(#paint39_radial_4002_2960)"/>
<path d="M17.8242 13.649C17.8242 13.343 18.0691 13.0981 18.3751 13.0981C18.6812 13.0981 18.926 13.343 18.926 13.649C18.926 13.7409 18.9041 13.8283 18.8648 13.9026H17.8898C17.8461 13.8283 17.8242 13.7409 17.8242 13.649Z" fill="black"/>
<g filter="url(#filter5_f_4002_2960)">
<path d="M18.3045 12.8905C18.373 12.9822 18.2298 13.0939 18.0669 13.2157C17.904 13.3374 17.7832 13.4231 17.7147 13.3315C17.6461 13.2398 17.7226 13.0668 17.8855 12.945C18.0483 12.8233 18.2359 12.7989 18.3045 12.8905Z" fill="#C7A7A3"/>
<path d="M18.3045 12.8905C18.373 12.9822 18.2298 13.0939 18.0669 13.2157C17.904 13.3374 17.7832 13.4231 17.7147 13.3315C17.6461 13.2398 17.7226 13.0668 17.8855 12.945C18.0483 12.8233 18.2359 12.7989 18.3045 12.8905Z" fill="url(#paint40_radial_4002_2960)"/>
</g>
<g filter="url(#filter6_f_4002_2960)">
<path d="M19.2321 13.5221C19.1966 13.2735 19.051 13.0861 18.9827 13.0234L18.7026 13.3309L18.829 13.5768L19.2321 13.5221Z" fill="url(#paint41_linear_4002_2960)"/>
</g>
<path d="M13.4441 12.394C12.7401 12.394 12.1455 12.8794 11.9837 13.5352C11.9356 13.7232 12.0799 13.9025 12.2723 13.9025H14.6771C14.8301 13.9025 14.9525 13.7626 14.9219 13.6096C14.7864 12.9187 14.1743 12.394 13.4441 12.394Z" fill="white"/>
<path d="M13.6672 12.687C13.1338 12.687 12.7053 13.1199 12.7053 13.6489C12.7053 13.7364 12.7184 13.8238 12.7403 13.9025H14.5986C14.6204 13.8195 14.6335 13.7364 14.6335 13.6489C14.6292 13.1199 14.2007 12.687 13.6672 12.687Z" fill="url(#paint42_radial_4002_2960)"/>
<path d="M14.2181 13.6491C14.2181 13.343 13.9732 13.0981 13.6671 13.0981C13.3611 13.0981 13.1162 13.343 13.1162 13.6491C13.1162 13.7409 13.1381 13.8283 13.1774 13.9027H14.1525C14.1918 13.8283 14.2181 13.7409 14.2181 13.6491Z" fill="black"/>
<g filter="url(#filter7_f_4002_2960)">
<path d="M14.546 13.5358C14.546 13.2249 14.2932 13.0177 14.2249 12.9551L13.9141 13.2557L14.1054 13.6451L14.546 13.5358Z" fill="url(#paint43_linear_4002_2960)"/>
</g>
<g filter="url(#filter8_f_4002_2960)">
<ellipse cx="13.3771" cy="13.0981" rx="0.419932" ry="0.212524" transform="rotate(-27.914 13.3771 13.0981)" fill="#C7A7A3" fill-opacity="0.9"/>
<ellipse cx="13.3771" cy="13.0981" rx="0.419932" ry="0.212524" transform="rotate(-27.914 13.3771 13.0981)" fill="url(#paint44_radial_4002_2960)"/>
</g>
<path d="M21.3259 15.6339C21.3968 14.4869 21.4652 13.3413 21.5249 12.1943C22.3392 12.3368 22.9582 13.0474 22.9582 13.9026C22.9582 14.8261 22.2362 15.5811 21.3259 15.6339Z" fill="url(#paint45_linear_4002_2960)"/>
<path d="M21.3259 15.6339C21.3968 14.4869 21.4652 13.3413 21.5249 12.1943C22.3392 12.3368 22.9582 13.0474 22.9582 13.9026C22.9582 14.8261 22.2362 15.5811 21.3259 15.6339Z" fill="url(#paint46_radial_4002_2960)"/>
<path d="M21.3259 15.6339C21.3968 14.4869 21.4652 13.3413 21.5249 12.1943C22.3392 12.3368 22.9582 13.0474 22.9582 13.9026C22.9582 14.8261 22.2362 15.5811 21.3259 15.6339Z" fill="url(#paint47_radial_4002_2960)"/>
<path d="M21.3259 15.6339C21.3968 14.4869 21.4652 13.3413 21.5249 12.1943C22.3392 12.3368 22.9582 13.0474 22.9582 13.9026C22.9582 14.8261 22.2362 15.5811 21.3259 15.6339Z" fill="url(#paint48_radial_4002_2960)"/>
<path d="M10.5843 12.1846C9.74223 12.3033 9.08398 13.0275 9.08398 13.9024C9.08398 14.8283 9.80957 15.5847 10.7231 15.6341C10.6536 14.4824 10.6066 13.3366 10.5843 12.1846Z" fill="url(#paint49_linear_4002_2960)"/>
<path d="M10.5843 12.1846C9.74223 12.3033 9.08398 13.0275 9.08398 13.9024C9.08398 14.8283 9.80957 15.5847 10.7231 15.6341C10.6536 14.4824 10.6066 13.3366 10.5843 12.1846Z" fill="url(#paint50_radial_4002_2960)"/>
<g filter="url(#filter9_f_4002_2960)">
<path d="M10.54 12.897C10.0802 13.0001 9.73657 13.4108 9.73657 13.9018C9.73657 14.4242 10.1257 14.8558 10.63 14.9225C10.5926 14.2469 10.5611 13.5727 10.54 12.897Z" fill="url(#paint51_radial_4002_2960)"/>
</g>
<g filter="url(#filter10_f_4002_2960)">
<path d="M21.4163 14.9396C21.4578 14.2557 21.498 13.5721 21.5355 12.8882C22.0434 12.9516 22.4364 13.3848 22.4364 13.9099C22.4364 14.4754 21.9806 14.9345 21.4163 14.9396Z" fill="url(#paint52_linear_4002_2960)"/>
</g>
<path d="M9.771 7.17812C9.771 4.91376 11.6066 3.07812 13.871 3.07812H17.8585C20.1229 3.07812 21.9585 4.91376 21.9585 7.17812V9.85938H9.771V7.17812Z" fill="url(#paint53_radial_4002_2960)"/>
<path d="M9.771 7.17812C9.771 4.91376 11.6066 3.07812 13.871 3.07812H17.8585C20.1229 3.07812 21.9585 4.91376 21.9585 7.17812V9.85938H9.771V7.17812Z" fill="url(#paint54_radial_4002_2960)"/>
<path d="M9.771 7.17812C9.771 4.91376 11.6066 3.07812 13.871 3.07812H17.8585C20.1229 3.07812 21.9585 4.91376 21.9585 7.17812V9.85938H9.771V7.17812Z" fill="url(#paint55_radial_4002_2960)"/>
<path d="M9.771 7.17812C9.771 4.91376 11.6066 3.07812 13.871 3.07812H17.8585C20.1229 3.07812 21.9585 4.91376 21.9585 7.17812V9.85938H9.771V7.17812Z" fill="url(#paint56_radial_4002_2960)"/>
<path d="M9.771 7.17812C9.771 4.91376 11.6066 3.07812 13.871 3.07812H17.8585C20.1229 3.07812 21.9585 4.91376 21.9585 7.17812V9.85938H9.771V7.17812Z" fill="url(#paint57_radial_4002_2960)"/>
<path d="M9.771 7.17812C9.771 4.91376 11.6066 3.07812 13.871 3.07812H17.8585C20.1229 3.07812 21.9585 4.91376 21.9585 7.17812V9.85938H9.771V7.17812Z" fill="url(#paint58_radial_4002_2960)"/>
<path d="M9.771 7.17812C9.771 4.91376 11.6066 3.07812 13.871 3.07812H17.8585C20.1229 3.07812 21.9585 4.91376 21.9585 7.17812V9.85938H9.771V7.17812Z" fill="url(#paint59_linear_4002_2960)"/>
<path d="M9.771 7.17812C9.771 4.91376 11.6066 3.07812 13.871 3.07812H17.8585C20.1229 3.07812 21.9585 4.91376 21.9585 7.17812V9.85938H9.771V7.17812Z" fill="url(#paint60_radial_4002_2960)"/>
<g filter="url(#filter11_ii_4002_2960)">
<path d="M14.6147 2.07031H17.0054C17.8338 2.07031 18.5054 2.67285 18.5054 3.70251V10.4983H13.1147V3.70251C13.1147 2.67285 13.7863 2.07031 14.6147 2.07031Z" fill="url(#paint61_linear_4002_2960)"/>
<path d="M14.6147 2.07031H17.0054C17.8338 2.07031 18.5054 2.67285 18.5054 3.70251V10.4983H13.1147V3.70251C13.1147 2.67285 13.7863 2.07031 14.6147 2.07031Z" fill="url(#paint62_linear_4002_2960)"/>
<path d="M14.6147 2.07031H17.0054C17.8338 2.07031 18.5054 2.67285 18.5054 3.70251V10.4983H13.1147V3.70251C13.1147 2.67285 13.7863 2.07031 14.6147 2.07031Z" fill="url(#paint63_radial_4002_2960)"/>
<path d="M14.6147 2.07031H17.0054C17.8338 2.07031 18.5054 2.67285 18.5054 3.70251V10.4983H13.1147V3.70251C13.1147 2.67285 13.7863 2.07031 14.6147 2.07031Z" fill="url(#paint64_radial_4002_2960)"/>
</g>
<path d="M22.266 9.8418H9.67251C9.0308 9.8418 8.51929 10.3626 8.51929 10.995C8.51929 11.6367 9.0401 12.1482 9.67251 12.1482H22.266C22.9077 12.1482 23.4192 11.6274 23.4192 10.995C23.4285 10.3626 22.9077 9.8418 22.266 9.8418Z" fill="url(#paint65_linear_4002_2960)"/>
<path d="M22.266 9.8418H9.67251C9.0308 9.8418 8.51929 10.3626 8.51929 10.995C8.51929 11.6367 9.0401 12.1482 9.67251 12.1482H22.266C22.9077 12.1482 23.4192 11.6274 23.4192 10.995C23.4285 10.3626 22.9077 9.8418 22.266 9.8418Z" fill="url(#paint66_linear_4002_2960)"/>
<path d="M22.266 9.8418H9.67251C9.0308 9.8418 8.51929 10.3626 8.51929 10.995C8.51929 11.6367 9.0401 12.1482 9.67251 12.1482H22.266C22.9077 12.1482 23.4192 11.6274 23.4192 10.995C23.4285 10.3626 22.9077 9.8418 22.266 9.8418Z" fill="url(#paint67_linear_4002_2960)"/>
<path d="M22.266 9.8418H9.67251C9.0308 9.8418 8.51929 10.3626 8.51929 10.995C8.51929 11.6367 9.0401 12.1482 9.67251 12.1482H22.266C22.9077 12.1482 23.4192 11.6274 23.4192 10.995C23.4285 10.3626 22.9077 9.8418 22.266 9.8418Z" fill="url(#paint68_radial_4002_2960)"/>
<defs>
<filter id="filter0_ii_4002_2960" x="10.5642" y="7.5376" width="12.0154" height="13.5018" filterUnits="userSpaceOnUse" color-interpolation-filters="sRGB">
<feFlood flood-opacity="0" result="BackgroundImageFix"/>
<feBlend mode="normal" in="SourceGraphic" in2="BackgroundImageFix" result="shape"/>
<feColorMatrix in="SourceAlpha" type="matrix" values="0 0 0 0 0 0 0 0 0 0 0 0 0 0 0 0 0 0 127 0" result="hardAlpha"/>
<feOffset dx="1"/>
<feGaussianBlur stdDeviation="0.7"/>
<feComposite in2="hardAlpha" operator="arithmetic" k2="-1" k3="1"/>
<feColorMatrix type="matrix" values="0 0 0 0 0.913725 0 0 0 0 0.686275 0 0 0 0 0.592157 0 0 0 1 0"/>
<feBlend mode="normal" in2="shape" result="effect1_innerShadow_4002_2960"/>
<feColorMatrix in="SourceAlpha" type="matrix" values="0 0 0 0 0 0 0 0 0 0 0 0 0 0 0 0 0 0 127 0" result="hardAlpha"/>
<feOffset dy="0.2"/>
<feGaussianBlur stdDeviation="0.375"/>
<feComposite in2="hardAlpha" operator="arithmetic" k2="-1" k3="1"/>
<feColorMatrix type="matrix" values="0 0 0 0 0.780392 0 0 0 0 0.568627 0 0 0 0 0.486275 0 0 0 1 0"/>
<feBlend mode="normal" in2="effect1_innerShadow_4002_2960" result="effect2_innerShadow_4002_2960"/>
</filter>
<filter id="filter1_f_4002_2960" x="13.927" y="12.2949" width="3.88261" height="5.12561" filterUnits="userSpaceOnUse" color-interpolation-filters="sRGB">
<feFlood flood-opacity="0" result="BackgroundImageFix"/>
<feBlend mode="normal" in="SourceGraphic" in2="BackgroundImageFix" result="shape"/>
<feGaussianBlur stdDeviation="0.5" result="effect1_foregroundBlur_4002_2960"/>
</filter>
<filter id="filter2_f_4002_2960" x="14.8095" y="12.8894" width="2.4233" height="3.52561" filterUnits="userSpaceOnUse" color-interpolation-filters="sRGB">
<feFlood flood-opacity="0" result="BackgroundImageFix"/>
<feBlend mode="normal" in="SourceGraphic" in2="BackgroundImageFix" result="shape"/>
<feGaussianBlur stdDeviation="0.1" result="effect1_foregroundBlur_4002_2960"/>
</filter>
<filter id="filter3_f_4002_2960" x="14.8923" y="12.8894" width="2.4233" height="3.52561" filterUnits="userSpaceOnUse" color-interpolation-filters="sRGB">
<feFlood flood-opacity="0" result="BackgroundImageFix"/>
<feBlend mode="normal" in="SourceGraphic" in2="BackgroundImageFix" result="shape"/>
<feGaussianBlur stdDeviation="0.1" result="effect1_foregroundBlur_4002_2960"/>
</filter>
<filter id="filter4_f_4002_2960" x="14.0367" y="16.6874" width="3.9688" height="1.6563" filterUnits="userSpaceOnUse" color-interpolation-filters="sRGB">
<feFlood flood-opacity="0" result="BackgroundImageFix"/>
<feBlend mode="normal" in="SourceGraphic" in2="BackgroundImageFix" result="shape"/>
<feGaussianBlur stdDeviation="0.05" result="effect1_foregroundBlur_4002_2960"/>
</filter>
<filter id="filter5_f_4002_2960" x="17.5895" y="12.735" width="0.832492" height="0.734912" filterUnits="userSpaceOnUse" color-interpolation-filters="sRGB">
<feFlood flood-opacity="0" result="BackgroundImageFix"/>
<feBlend mode="normal" in="SourceGraphic" in2="BackgroundImageFix" result="shape"/>
<feGaussianBlur stdDeviation="0.05" result="effect1_foregroundBlur_4002_2960"/>
</filter>
<filter id="filter6_f_4002_2960" x="18.5026" y="12.8234" width="0.929434" height="0.953345" filterUnits="userSpaceOnUse" color-interpolation-filters="sRGB">
<feFlood flood-opacity="0" result="BackgroundImageFix"/>
<feBlend mode="normal" in="SourceGraphic" in2="BackgroundImageFix" result="shape"/>
<feGaussianBlur stdDeviation="0.1" result="effect1_foregroundBlur_4002_2960"/>
</filter>
<filter id="filter7_f_4002_2960" x="13.7141" y="12.7551" width="1.03194" height="1.09006" filterUnits="userSpaceOnUse" color-interpolation-filters="sRGB">
<feFlood flood-opacity="0" result="BackgroundImageFix"/>
<feBlend mode="normal" in="SourceGraphic" in2="BackgroundImageFix" result="shape"/>
<feGaussianBlur stdDeviation="0.1" result="effect1_foregroundBlur_4002_2960"/>
</filter>
<filter id="filter8_f_4002_2960" x="12.8928" y="12.7263" width="0.968555" height="0.743701" filterUnits="userSpaceOnUse" color-interpolation-filters="sRGB">
<feFlood flood-opacity="0" result="BackgroundImageFix"/>
<feBlend mode="normal" in="SourceGraphic" in2="BackgroundImageFix" result="shape"/>
<feGaussianBlur stdDeviation="0.05" result="effect1_foregroundBlur_4002_2960"/>
</filter>
<filter id="filter9_f_4002_2960" x="9.48657" y="12.647" width="1.39339" height="2.52551" filterUnits="userSpaceOnUse" color-interpolation-filters="sRGB">
<feFlood flood-opacity="0" result="BackgroundImageFix"/>
<feBlend mode="normal" in="SourceGraphic" in2="BackgroundImageFix" result="shape"/>
<feGaussianBlur stdDeviation="0.125" result="effect1_foregroundBlur_4002_2960"/>
</filter>
<filter id="filter10_f_4002_2960" x="20.9163" y="12.3882" width="2.02016" height="3.05139" filterUnits="userSpaceOnUse" color-interpolation-filters="sRGB">
<feFlood flood-opacity="0" result="BackgroundImageFix"/>
<feBlend mode="normal" in="SourceGraphic" in2="BackgroundImageFix" result="shape"/>
<feGaussianBlur stdDeviation="0.25" result="effect1_foregroundBlur_4002_2960"/>
</filter>
<filter id="filter11_ii_4002_2960" x="12.9147" y="2.07031" width="5.79063" height="8.42798" filterUnits="userSpaceOnUse" color-interpolation-filters="sRGB">
<feFlood flood-opacity="0" result="BackgroundImageFix"/>
<feBlend mode="normal" in="SourceGraphic" in2="BackgroundImageFix" result="shape"/>
<feColorMatrix in="SourceAlpha" type="matrix" values="0 0 0 0 0 0 0 0 0 0 0 0 0 0 0 0 0 0 127 0" result="hardAlpha"/>
<feOffset dx="0.2"/>
<feGaussianBlur stdDeviation="0.3"/>
<feComposite in2="hardAlpha" operator="arithmetic" k2="-1" k3="1"/>
<feColorMatrix type="matrix" values="0 0 0 0 0.768627 0 0 0 0 0.658824 0 0 0 0 0.321569 0 0 0 1 0"/>
<feBlend mode="normal" in2="shape" result="effect1_innerShadow_4002_2960"/>
<feColorMatrix in="SourceAlpha" type="matrix" values="0 0 0 0 0 0 0 0 0 0 0 0 0 0 0 0 0 0 127 0" result="hardAlpha"/>
<feOffset dx="-0.2"/>
<feGaussianBlur stdDeviation="0.3"/>
<feComposite in2="hardAlpha" operator="arithmetic" k2="-1" k3="1"/>
<feColorMatrix type="matrix" values="0 0 0 0 1 0 0 0 0 0.92549 0 0 0 0 0.372549 0 0 0 1 0"/>
<feBlend mode="normal" in2="effect1_innerShadow_4002_2960" result="effect2_innerShadow_4002_2960"/>
</filter>
<radialGradient id="paint0_radial_4002_2960" cx="0" cy="0" r="1" gradientUnits="userSpaceOnUse" gradientTransform="translate(16.0109 29.7342) rotate(-90) scale(9.625 6.57257)">
<stop stop-color="#FF804B"/>
<stop offset="1" stop-color="#FF8B3C"/>
</radialGradient>
<radialGradient id="paint1_radial_4002_2960" cx="0" cy="0" r="1" gradientUnits="userSpaceOnUse" gradientTransform="translate(18.6772 26.1717) rotate(180) scale(1.28125 12.5036)">
<stop stop-color="#FF8E3D"/>
<stop offset="1" stop-color="#FF8E3D" stop-opacity="0"/>
</radialGradient>
<radialGradient id="paint2_radial_4002_2960" cx="0" cy="0" r="1" gradientUnits="userSpaceOnUse" gradientTransform="translate(13.7209 24.5637) rotate(90) scale(5.91396 1.61702)">
<stop stop-color="#FF7446"/>
<stop offset="1" stop-color="#FF6F4E"/>
</radialGradient>
<radialGradient id="paint3_radial_4002_2960" cx="0" cy="0" r="1" gradientUnits="userSpaceOnUse" gradientTransform="translate(13.7209 26.2311) rotate(90) scale(4.55816 0.70149)">
<stop offset="0.350427" stop-color="#FF7E58"/>
<stop offset="1" stop-color="#FF7E58" stop-opacity="0"/>
</radialGradient>
<radialGradient id="paint4_radial_4002_2960" cx="0" cy="0" r="1" gradientUnits="userSpaceOnUse" gradientTransform="translate(14.2082 20.0367) rotate(116.713) scale(3.38004 5.52184)">
<stop offset="0.343087" stop-color="#DA4708"/>
<stop offset="1" stop-color="#DC5314" stop-opacity="0"/>
</radialGradient>
<radialGradient id="paint5_radial_4002_2960" cx="0" cy="0" r="1" gradientUnits="userSpaceOnUse" gradientTransform="translate(20.0425 20.2656) rotate(90) scale(9.4375 2.83386)">
<stop stop-color="#FF7523"/>
<stop offset="1" stop-color="#FB684A"/>
</radialGradient>
<radialGradient id="paint6_radial_4002_2960" cx="0" cy="0" r="1" gradientUnits="userSpaceOnUse" gradientTransform="translate(18.2791 27.384) scale(0.881714 11.0473)">
<stop offset="0.213767" stop-color="#F25937"/>
<stop offset="1" stop-color="#F25937" stop-opacity="0"/>
</radialGradient>
<linearGradient id="paint7_linear_4002_2960" x1="9.15789" y1="21.1994" x2="9.15789" y2="29.9298" gradientUnits="userSpaceOnUse">
<stop stop-color="#E6743E"/>
<stop offset="1" stop-color="#F46D40"/>
</linearGradient>
<radialGradient id="paint8_radial_4002_2960" cx="0" cy="0" r="1" gradientUnits="userSpaceOnUse" gradientTransform="translate(12.4159 28.8848) rotate(-112.642) scale(9.16237 10.4518)">
<stop offset="0.683649" stop-color="#E07241" stop-opacity="0"/>
<stop offset="0.950951" stop-color="#CC6E42"/>
</radialGradient>
<radialGradient id="paint9_radial_4002_2960" cx="0" cy="0" r="1" gradientUnits="userSpaceOnUse" gradientTransform="translate(8.34094 29.9298) scale(0.13057 9.00654)">
<stop offset="0.24463" stop-color="#DE521D"/>
<stop offset="1" stop-color="#DE521D" stop-opacity="0"/>
</radialGradient>
<radialGradient id="paint10_radial_4002_2960" cx="0" cy="0" r="1" gradientUnits="userSpaceOnUse" gradientTransform="translate(23.6591 22.5437) rotate(90) scale(8.78322 2.01004)">
<stop offset="0.308824" stop-color="#FF905A"/>
<stop offset="1" stop-color="#FF7955"/>
</radialGradient>
<radialGradient id="paint11_radial_4002_2960" cx="0" cy="0" r="1" gradientUnits="userSpaceOnUse" gradientTransform="translate(23.6591 27.9378) rotate(90) scale(4.375 0.278564)">
<stop offset="0.325" stop-color="#FE713A"/>
<stop offset="1" stop-color="#FE713A" stop-opacity="0"/>
</radialGradient>
<radialGradient id="paint12_radial_4002_2960" cx="0" cy="0" r="1" gradientUnits="userSpaceOnUse" gradientTransform="translate(14.5883 30.8233) rotate(-108.091) scale(11.6646 18.6686)">
<stop offset="0.566287" stop-color="#FDBF28" stop-opacity="0"/>
<stop offset="0.970564" stop-color="#CD963A"/>
</radialGradient>
<linearGradient id="paint13_linear_4002_2960" x1="21.0338" y1="19.7354" x2="21.0338" y2="29.9295" gradientUnits="userSpaceOnUse">
<stop stop-color="#FFDA42"/>
<stop offset="1" stop-color="#FFCF4C"/>
</linearGradient>
<radialGradient id="paint14_radial_4002_2960" cx="0" cy="0" r="1" gradientUnits="userSpaceOnUse" gradientTransform="translate(19.2399 25.3594) rotate(-71.0296) scale(5.51848 8.52327)">
<stop offset="0.833575" stop-color="#FFCE64" stop-opacity="0"/>
<stop offset="0.998494" stop-color="#FFCE64"/>
</radialGradient>
<radialGradient id="paint15_radial_4002_2960" cx="0" cy="0" r="1" gradientUnits="userSpaceOnUse" gradientTransform="translate(6.47107 28.8905) rotate(-75.6554) scale(7.54782 3.04034)">
<stop stop-color="#F37D42"/>
<stop offset="1" stop-color="#CE763C"/>
</radialGradient>
<linearGradient id="paint16_linear_4002_2960" x1="8.46821" y1="29.9294" x2="7.08999" y2="29.772" gradientUnits="userSpaceOnUse">
<stop offset="0.332672" stop-color="#D15D2A"/>
<stop offset="1" stop-color="#D15D2A" stop-opacity="0"/>
</linearGradient>
<radialGradient id="paint17_radial_4002_2960" cx="0" cy="0" r="1" gradientUnits="userSpaceOnUse" gradientTransform="translate(25.6772 29.9294) rotate(-99.8102) scale(8.25336 2.51684)">
<stop stop-color="#FF9C5E"/>
<stop offset="1" stop-color="#FF9457"/>
</radialGradient>
<radialGradient id="paint18_radial_4002_2960" cx="0" cy="0" r="1" gradientUnits="userSpaceOnUse" gradientTransform="translate(23.6589 29.9294) rotate(-90) scale(8.32422 0.625138)">
<stop offset="0.352773" stop-color="#EE6A13"/>
<stop offset="1" stop-color="#EE6A13" stop-opacity="0"/>
</radialGradient>
<radialGradient id="paint19_radial_4002_2960" cx="0" cy="0" r="1" gradientUnits="userSpaceOnUse" gradientTransform="translate(16.021 20.6875) rotate(90) scale(2 4.86609)">
<stop offset="0.132812" stop-color="#DB898D"/>
<stop offset="0.88" stop-color="#E19A9B"/>
</radialGradient>
<radialGradient id="paint20_radial_4002_2960" cx="0" cy="0" r="1" gradientUnits="userSpaceOnUse" gradientTransform="translate(18.396 20.875) rotate(125.503) scale(3.01336 1.49475)">
<stop offset="0.239481" stop-color="#F3A69A"/>
<stop offset="1" stop-color="#F3A69A" stop-opacity="0"/>
</radialGradient>
<radialGradient id="paint21_radial_4002_2960" cx="0" cy="0" r="1" gradientUnits="userSpaceOnUse" gradientTransform="translate(16.6929 20.4062) rotate(143.436) scale(3.25711 4.25849)">
<stop offset="0.694303" stop-color="#D98E90" stop-opacity="0"/>
<stop offset="1" stop-color="#D98E90"/>
</radialGradient>
<radialGradient id="paint22_radial_4002_2960" cx="0" cy="0" r="1" gradientUnits="userSpaceOnUse" gradientTransform="translate(21.1443 15.2031) rotate(69.6569) scale(2.32143 2.75768)">
<stop offset="0.214643" stop-color="#313131"/>
<stop offset="1" stop-color="#1A161E"/>
</radialGradient>
<radialGradient id="paint23_radial_4002_2960" cx="0" cy="0" r="1" gradientUnits="userSpaceOnUse" gradientTransform="translate(9.49347 15.7316) rotate(17.4472) scale(1.66806 5.14607)">
<stop stop-color="#564943"/>
<stop offset="0.745836" stop-color="#1E191C"/>
</radialGradient>
<radialGradient id="paint24_radial_4002_2960" cx="0" cy="0" r="1" gradientUnits="userSpaceOnUse" gradientTransform="translate(18.9675 14.4851) rotate(-180) scale(4.09375 6.58694)">
<stop stop-color="#FFD6B8"/>
<stop offset="1" stop-color="#DFA899"/>
</radialGradient>
<linearGradient id="paint25_linear_4002_2960" x1="21.5797" y1="16.005" x2="16.8884" y2="16.005" gradientUnits="userSpaceOnUse">
<stop stop-color="#FFD6BA"/>
<stop offset="1" stop-color="#FFD6BA" stop-opacity="0"/>
</linearGradient>
<radialGradient id="paint26_radial_4002_2960" cx="0" cy="0" r="1" gradientUnits="userSpaceOnUse" gradientTransform="translate(16.65 7.5376) rotate(90) scale(14.0386 14.2137)">
<stop offset="0.730846" stop-color="#D69B93" stop-opacity="0"/>
<stop offset="0.980159" stop-color="#C9747E"/>
</radialGradient>
<radialGradient id="paint27_radial_4002_2960" cx="0" cy="0" r="1" gradientUnits="userSpaceOnUse" gradientTransform="translate(18.6588 12.7735) rotate(-90) scale(1.23768 1.53163)">
<stop offset="0.325" stop-color="#F6B8A8"/>
<stop offset="1" stop-color="#F6B8A8" stop-opacity="0"/>
</radialGradient>
<radialGradient id="paint28_radial_4002_2960" cx="0" cy="0" r="1" gradientUnits="userSpaceOnUse" gradientTransform="translate(13.5421 12.8236) rotate(-89.7942) scale(1.17941 1.28348)">
<stop offset="0.377617" stop-color="#D39991"/>
<stop offset="1" stop-color="#D39991" stop-opacity="0"/>
</radialGradient>
<radialGradient id="paint29_radial_4002_2960" cx="0" cy="0" r="1" gradientUnits="userSpaceOnUse" gradientTransform="translate(19.7211 15.2534) rotate(176.388) scale(9.17512 23.4378)">
<stop offset="0.835902" stop-color="#E6AD97" stop-opacity="0"/>
<stop offset="1" stop-color="#E6AD97"/>
</radialGradient>
<radialGradient id="paint30_radial_4002_2960" cx="0" cy="0" r="1" gradientUnits="userSpaceOnUse" gradientTransform="translate(10.1285 9.52671) rotate(-46.6112) scale(4.86129 1.77957)">
<stop offset="0.427646" stop-color="#9F6D5C"/>
<stop offset="1" stop-color="#9F6D5C" stop-opacity="0"/>
</radialGradient>
<radialGradient id="paint31_radial_4002_2960" cx="0" cy="0" r="1" gradientUnits="userSpaceOnUse" gradientTransform="translate(18.6372 8.82216) rotate(121.159) scale(3.63106 2.99773)">
<stop offset="0.0780198" stop-color="#F6C3B0"/>
<stop offset="1" stop-color="#F6C3B0" stop-opacity="0"/>
</radialGradient>
<linearGradient id="paint32_linear_4002_2960" x1="16.0719" y1="11.9176" x2="16.0719" y2="13.9961" gradientUnits="userSpaceOnUse">
<stop offset="0.252747" stop-color="#E59B89"/>
<stop offset="1" stop-color="#E59B89" stop-opacity="0"/>
</linearGradient>
<linearGradient id="paint33_linear_4002_2960" x1="16.9015" y1="14.8416" x2="16.0212" y2="14.9537" gradientUnits="userSpaceOnUse">
<stop stop-color="#FFD1BB"/>
<stop offset="1" stop-color="#FFD1BB" stop-opacity="0"/>
</linearGradient>
<radialGradient id="paint34_radial_4002_2960" cx="0" cy="0" r="1" gradientUnits="userSpaceOnUse" gradientTransform="translate(16.5237 15.6553) rotate(90) scale(0.263092 0.82686)">
<stop stop-color="#FFD1BB"/>
<stop offset="1" stop-color="#FFD1BB" stop-opacity="0"/>
</radialGradient>
<linearGradient id="paint35_linear_4002_2960" x1="16.0212" y1="16.1439" x2="16.0212" y2="15.6428" gradientUnits="userSpaceOnUse">
<stop stop-color="#D89793"/>
<stop offset="1" stop-color="#D89793" stop-opacity="0"/>
</linearGradient>
<linearGradient id="paint36_linear_4002_2960" x1="16.1039" y1="12.6946" x2="16.3419" y2="14.7959" gradientUnits="userSpaceOnUse">
<stop stop-color="#E59D8A"/>
<stop offset="1" stop-color="#E59D8A" stop-opacity="0"/>
</linearGradient>
<linearGradient id="paint37_linear_4002_2960" x1="14.7259" y1="17.8369" x2="15.0691" y2="16.9375" gradientUnits="userSpaceOnUse">
<stop stop-color="#E1ACA6"/>
<stop offset="1" stop-color="#E1ACA6" stop-opacity="0"/>
</linearGradient>
<radialGradient id="paint38_radial_4002_2960" cx="0" cy="0" r="1" gradientUnits="userSpaceOnUse" gradientTransform="translate(16.0211 18.0033) rotate(-90) scale(0.776803 3.12528)">
<stop stop-color="#88014E"/>
<stop offset="1" stop-color="#86004D"/>
</radialGradient>
<radialGradient id="paint39_radial_4002_2960" cx="0" cy="0" r="1" gradientUnits="userSpaceOnUse" gradientTransform="translate(18.373 13.2011) rotate(90) scale(0.874433 1.39088)">
<stop offset="0.80198" stop-color="#7D574A"/>
<stop offset="1" stop-color="#694B43"/>
<stop offset="1" stop-color="#804D49"/>
<stop offset="1" stop-color="#664842"/>
</radialGradient>
<radialGradient id="paint40_radial_4002_2960" cx="0" cy="0" r="1" gradientUnits="userSpaceOnUse" gradientTransform="translate(18.1271 13.292) rotate(-127.812) scale(0.407715 0.561326)">
<stop offset="0.765532" stop-color="#FFE6E2" stop-opacity="0"/>
<stop offset="0.966159" stop-color="#FFE6E2"/>
</radialGradient>
<linearGradient id="paint41_linear_4002_2960" x1="19.2116" y1="13.2591" x2="18.8734" y2="13.4675" gradientUnits="userSpaceOnUse">
<stop stop-color="#B4948D"/>
<stop offset="1" stop-color="#B4948D" stop-opacity="0"/>
</linearGradient>
<radialGradient id="paint42_radial_4002_2960" cx="0" cy="0" r="1" gradientUnits="userSpaceOnUse" gradientTransform="translate(13.6694 13.2012) rotate(90) scale(0.874477 1.39095)">
<stop offset="0.80198" stop-color="#7D574A"/>
<stop offset="1" stop-color="#694B43"/>
<stop offset="1" stop-color="#804D49"/>
<stop offset="1" stop-color="#664842"/>
</radialGradient>
<linearGradient id="paint43_linear_4002_2960" x1="14.4711" y1="13.2591" x2="14.1329" y2="13.4675" gradientUnits="userSpaceOnUse">
<stop stop-color="#B4948D"/>
<stop offset="1" stop-color="#B4948D" stop-opacity="0"/>
</linearGradient>
<radialGradient id="paint44_radial_4002_2960" cx="0" cy="0" r="1" gradientUnits="userSpaceOnUse" gradientTransform="translate(13.3608 13.4376) rotate(-90.897) scale(0.532584 0.640188)">
<stop offset="0.765532" stop-color="#FFE6E2" stop-opacity="0"/>
<stop offset="0.966159" stop-color="#FFE6E2"/>
</radialGradient>
<linearGradient id="paint45_linear_4002_2960" x1="22.9582" y1="13.2884" x2="21.6575" y2="15.6339" gradientUnits="userSpaceOnUse">
<stop stop-color="#FFD6BD"/>
<stop offset="1" stop-color="#F0B8A6"/>
</linearGradient>
<radialGradient id="paint46_radial_4002_2960" cx="0" cy="0" r="1" gradientUnits="userSpaceOnUse" gradientTransform="translate(20.9981 13.2161) rotate(74.3475) scale(2.5109 2.39559)">
<stop offset="0.856273" stop-color="#CE978E" stop-opacity="0"/>
<stop offset="1" stop-color="#CE978E"/>
</radialGradient>
<radialGradient id="paint47_radial_4002_2960" cx="0" cy="0" r="1" gradientUnits="userSpaceOnUse" gradientTransform="translate(21.3865 13.8032) rotate(-53.9198) scale(1.44174 1.20846)">
<stop offset="0.663731" stop-color="#F7B99C"/>
<stop offset="1" stop-color="#F7B99C" stop-opacity="0"/>
</radialGradient>
<radialGradient id="paint48_radial_4002_2960" cx="0" cy="0" r="1" gradientUnits="userSpaceOnUse" gradientTransform="translate(21.5094 13.9891) rotate(-69.2631) scale(1.78679 2.38739)">
<stop offset="0.803247" stop-color="#EBBB9D" stop-opacity="0"/>
<stop offset="1" stop-color="#EBBB9D"/>
</radialGradient>
<linearGradient id="paint49_linear_4002_2960" x1="9.71627" y1="14.0469" x2="11.2879" y2="13.9096" gradientUnits="userSpaceOnUse">
<stop stop-color="#D19787"/>
<stop offset="1" stop-color="#C9887D"/>
</linearGradient>
<radialGradient id="paint50_radial_4002_2960" cx="0" cy="0" r="1" gradientUnits="userSpaceOnUse" gradientTransform="translate(10.7231 13.9096) rotate(-173.034) scale(1.75158 1.88025)">
<stop offset="0.77507" stop-color="#E8AF99" stop-opacity="0"/>
<stop offset="1" stop-color="#E8AF99"/>
</radialGradient>
<radialGradient id="paint51_radial_4002_2960" cx="0" cy="0" r="1" gradientUnits="userSpaceOnUse" gradientTransform="translate(10.7243 13.9097) rotate(170.26) scale(1.00222 1.22978)">
<stop stop-color="#C18472"/>
<stop offset="1" stop-color="#CA8B7A"/>
</radialGradient>
<linearGradient id="paint52_linear_4002_2960" x1="21.9263" y1="12.8882" x2="21.9263" y2="14.9396" gradientUnits="userSpaceOnUse">
<stop stop-color="#F9BB9E"/>
<stop offset="1" stop-color="#F6BBA0"/>
</linearGradient>
<radialGradient id="paint53_radial_4002_2960" cx="0" cy="0" r="1" gradientUnits="userSpaceOnUse" gradientTransform="translate(19.5835 6.79688) rotate(90) scale(4.5625 2.88065)">
<stop stop-color="#FFEE61"/>
<stop offset="1" stop-color="#FFDD44"/>
</radialGradient>
<radialGradient id="paint54_radial_4002_2960" cx="0" cy="0" r="1" gradientUnits="userSpaceOnUse" gradientTransform="translate(11.8335 9.85938) rotate(-90) scale(16 5.79775)">
<stop offset="0.300781" stop-color="#E9B840"/>
<stop offset="1" stop-color="#E9B840" stop-opacity="0"/>
</radialGradient>
<radialGradient id="paint55_radial_4002_2960" cx="0" cy="0" r="1" gradientUnits="userSpaceOnUse" gradientTransform="translate(17.2397 10.2969) rotate(-80.901) scale(8.10195 15.4635)">
<stop offset="0.813976" stop-color="#EECD67" stop-opacity="0"/>
<stop offset="0.94608" stop-color="#EECD67"/>
</radialGradient>
<radialGradient id="paint56_radial_4002_2960" cx="0" cy="0" r="1" gradientUnits="userSpaceOnUse" gradientTransform="translate(13.1772 6.46875) rotate(90) scale(6.875 0.590373)">
<stop offset="0.304545" stop-color="#D7A439"/>
<stop offset="1" stop-color="#E1B037" stop-opacity="0"/>
</radialGradient>
<radialGradient id="paint57_radial_4002_2960" cx="0" cy="0" r="1" gradientUnits="userSpaceOnUse" gradientTransform="translate(13.3022 2.70313) rotate(84.9204) scale(4.23538 1.69194)">
<stop offset="0.102941" stop-color="#B59741"/>
<stop offset="1" stop-color="#CBA731" stop-opacity="0"/>
</radialGradient>
<radialGradient id="paint58_radial_4002_2960" cx="0" cy="0" r="1" gradientUnits="userSpaceOnUse" gradientTransform="translate(16.7397 9.70312) rotate(-129.472) scale(8.25852 10.1515)">
<stop offset="0.781425" stop-color="#C3A852" stop-opacity="0"/>
<stop offset="1" stop-color="#C3A852"/>
</radialGradient>
<linearGradient id="paint59_linear_4002_2960" x1="9.771" y1="9.23438" x2="10.5835" y2="9.23438" gradientUnits="userSpaceOnUse">
<stop stop-color="#CDAC54"/>
<stop offset="1" stop-color="#CDAC54" stop-opacity="0"/>
</linearGradient>
<radialGradient id="paint60_radial_4002_2960" cx="0" cy="0" r="1" gradientUnits="userSpaceOnUse" gradientTransform="translate(10.9585 10.0938) rotate(-90) scale(0.59375 5.79687)">
<stop offset="0.263158" stop-color="#C8A03F"/>
<stop offset="1" stop-color="#C8A03F" stop-opacity="0"/>
</radialGradient>
<linearGradient id="paint61_linear_4002_2960" x1="15.8101" y1="2.07031" x2="15.8101" y2="10.4983" gradientUnits="userSpaceOnUse">
<stop stop-color="#F9CD2E"/>
<stop offset="1" stop-color="#FFCA3D"/>
</linearGradient>
<linearGradient id="paint62_linear_4002_2960" x1="15.8101" y1="2.07031" x2="15.8101" y2="4.67188" gradientUnits="userSpaceOnUse">
<stop stop-color="#E7C44C"/>
<stop offset="1" stop-color="#E7C44C" stop-opacity="0"/>
</linearGradient>
<radialGradient id="paint63_radial_4002_2960" cx="0" cy="0" r="1" gradientUnits="userSpaceOnUse" gradientTransform="translate(13.4585 9.85937) rotate(-90) scale(9.0625 1)">
<stop stop-color="#E3B438"/>
<stop offset="1" stop-color="#E3B438" stop-opacity="0"/>
</radialGradient>
<radialGradient id="paint64_radial_4002_2960" cx="0" cy="0" r="1" gradientUnits="userSpaceOnUse" gradientTransform="translate(18.3335 9.92187) rotate(-90) scale(8.78125 1.6875)">
<stop stop-color="#FFE550"/>
<stop offset="1" stop-color="#FFE550" stop-opacity="0"/>
</radialGradient>
<linearGradient id="paint65_linear_4002_2960" x1="21.7861" y1="11.2429" x2="5.1583" y2="11.2429" gradientUnits="userSpaceOnUse">
<stop stop-color="#FFE24A"/>
<stop offset="1" stop-color="#F0BC33"/>
</linearGradient>
<linearGradient id="paint66_linear_4002_2960" x1="15.5873" y1="9.8418" x2="15.5873" y2="10.1554" gradientUnits="userSpaceOnUse">
<stop offset="0.0269463" stop-color="#FFD131"/>
<stop offset="1" stop-color="#FFD131" stop-opacity="0"/>
</linearGradient>
<linearGradient id="paint67_linear_4002_2960" x1="16.5048" y1="12.1482" x2="16.5048" y2="10.8954" gradientUnits="userSpaceOnUse">
<stop stop-color="#E1926F"/>
<stop offset="1" stop-color="#F9B14D" stop-opacity="0"/>
</linearGradient>
<radialGradient id="paint68_radial_4002_2960" cx="0" cy="0" r="1" gradientUnits="userSpaceOnUse" gradientTransform="translate(11.6975 8.93476) rotate(75.7527) scale(2.12564 12.7111)">
<stop offset="0.173346" stop-color="#C4A966"/>
<stop offset="1" stop-color="#DFB83E" stop-opacity="0"/>
</radialGradient>
</defs>
</svg>
