<svg width="32" height="32" viewBox="0 0 32 32" fill="none" xmlns="http://www.w3.org/2000/svg">
<path d="M18.02 16.0112C18.02 16.746 17.6215 17.3877 17.0288 17.7321V24.0066C17.0288 24.5589 16.5811 25.0066 16.0288 25.0066C15.4765 25.0066 15.0288 24.5589 15.0288 24.0066V17.7293C14.4387 17.3843 14.0424 16.744 14.0424 16.0112C14.0424 14.9254 14.9124 14.0428 15.9934 14.0227L18.1176 10.3435C18.3937 9.86521 19.0053 9.70134 19.4836 9.97748C19.9619 10.2536 20.1257 10.8652 19.8496 11.3435L17.7413 14.9952C17.9183 15.2925 18.02 15.64 18.02 16.0112Z" fill="#212121"/>
<path d="M30 16C30 8.26801 23.732 2 16 2C8.26801 2 2 8.26801 2 16C2 23.732 8.26801 30 16 30C23.732 30 30 23.732 30 16ZM27 16C27 22.0751 22.0751 27 16 27C9.92487 27 5 22.0751 5 16C5 9.92487 9.92487 5 16 5C22.0751 5 27 9.92487 27 16Z" fill="#212121"/>
</svg>
