<svg width="32" height="32" viewBox="0 0 32 32" fill="none" xmlns="http://www.w3.org/2000/svg">
<path d="M20.5 19.2C20.5 18.8134 20.8134 18.5 21.2 18.5H23.8C24.1866 18.5 24.5 18.8134 24.5 19.2V21.8C24.5 22.1866 24.1866 22.5 23.8 22.5H21.2C20.8134 22.5 20.5 22.1866 20.5 21.8V19.2Z" fill="#212121"/>
<path d="M7.5 14.2C7.5 13.8134 7.8134 13.5 8.2 13.5H10.8C11.1866 13.5 11.5 13.8134 11.5 14.2V16.8C11.5 17.1866 11.1866 17.5 10.8 17.5H8.2C7.8134 17.5 7.5 17.1866 7.5 16.8V14.2ZM8.5 14.5V16.5H10.5V14.5H8.5Z" fill="#212121"/>
<path d="M14 14.2C14 13.8134 14.3134 13.5 14.7 13.5H17.3C17.6866 13.5 18 13.8134 18 14.2V16.8C18 17.1866 17.6866 17.5 17.3 17.5H14.7C14.3134 17.5 14 17.1866 14 16.8V14.2ZM15 14.5V16.5H17V14.5H15Z" fill="#212121"/>
<path d="M20.5 14.2C20.5 13.8134 20.8134 13.5 21.2 13.5H23.8C24.1866 13.5 24.5 13.8134 24.5 14.2V16.8C24.5 17.1866 24.1866 17.5 23.8 17.5H21.2C20.8134 17.5 20.5 17.1866 20.5 16.8V14.2ZM21.5 14.5V16.5H23.5V14.5H21.5Z" fill="#212121"/>
<path d="M7.5 19.2C7.5 18.8134 7.8134 18.5 8.2 18.5H10.8C11.1866 18.5 11.5 18.8134 11.5 19.2V21.8C11.5 22.1866 11.1866 22.5 10.8 22.5H8.2C7.8134 22.5 7.5 22.1866 7.5 21.8V19.2ZM8.5 19.5V21.5H10.5V19.5H8.5Z" fill="#212121"/>
<path d="M14 19.2C14 18.8134 14.3134 18.5 14.7 18.5H17.3C17.6866 18.5 18 18.8134 18 19.2V21.8C18 22.1866 17.6866 22.5 17.3 22.5H14.7C14.3134 22.5 14 22.1866 14 21.8V19.2ZM15 19.5V21.5H17V19.5H15Z" fill="#212121"/>
<path d="M7.5 24.2C7.5 23.8134 7.8134 23.5 8.2 23.5H10.8C11.1866 23.5 11.5 23.8134 11.5 24.2V26.8C11.5 27.1866 11.1866 27.5 10.8 27.5H8.2C7.8134 27.5 7.5 27.1866 7.5 26.8V24.2ZM8.5 24.5V26.5H10.5V24.5H8.5Z" fill="#212121"/>
<path d="M14 24.2C14 23.8134 14.3134 23.5 14.7 23.5H17.3C17.6866 23.5 18 23.8134 18 24.2V26.8C18 27.1866 17.6866 27.5 17.3 27.5H14.7C14.3134 27.5 14 27.1866 14 26.8V24.2ZM15 24.5V26.5H17V24.5H15Z" fill="#212121"/>
<path d="M15.011 5.00004C15.0037 5.08907 15 5.1791 15 5.27C15 6.77277 16.0137 8.03877 17.3946 8.42151C17.8546 8.54901 18.25 8.15143 18.25 7.67406C18.25 7.32269 17.9581 7.04793 17.6305 6.92093C16.969 6.66451 16.5 6.02203 16.5 5.27C16.5 5.17822 16.507 5.08806 16.5204 5.00004H20.011C20.0037 5.08907 20 5.1791 20 5.27C20 6.77277 21.0137 8.03877 22.3946 8.42151C22.8546 8.54901 23.25 8.15143 23.25 7.67406C23.25 7.32269 22.9581 7.04793 22.6305 6.92093C21.969 6.66451 21.5 6.02203 21.5 5.27C21.5 5.17822 21.507 5.08806 21.5204 5.00004H27.2413C29.3106 5.00004 31 6.69131 31 8.78525V26.24C31 28.8602 28.875 31 26.2413 31H5.75866C3.13678 31 1 28.8619 1 26.24V8.78525C1 6.69131 2.6894 4.98998 4.75866 5.00004H5.01097C5.14823 3.32036 6.55491 2 8.26998 2C9.27278 2 10.1701 2.45139 10.77 3.16207C11.3698 2.45139 12.2672 2 13.27 2C14.2728 2 15.1701 2.45139 15.77 3.16207C16.3698 2.45139 17.2672 2 18.27 2C19.2728 2 20.1701 2.45139 20.77 3.16207C21.3698 2.45139 22.2672 2 23.27 2C24.985 2 26.3917 3.32034 26.529 5H25.0195C24.8895 4.15061 24.1557 3.5 23.27 3.5C22.3962 3.5 21.6702 4.13321 21.526 4.96582L21.529 5L21.5204 5.00004H20.011L20.0139 4.96581C19.8697 4.13321 19.1438 3.5 18.27 3.5C17.3962 3.5 16.6702 4.13321 16.526 4.96582L16.529 5L16.5204 5.00004H15.011ZM11.5204 5.00004H10.011C10.0037 5.08907 10 5.1791 10 5.27C10 6.77277 11.0137 8.03877 12.3946 8.42151C12.8546 8.54901 13.25 8.15143 13.25 7.67406C13.25 7.32269 12.9581 7.04793 12.6305 6.92093C11.969 6.66451 11.5 6.02203 11.5 5.27C11.5 5.17822 11.507 5.08806 11.5204 5.00004H15.011L15.0139 4.96581C14.8697 4.13321 14.1438 3.5 13.27 3.5C12.3962 3.5 11.6702 4.13321 11.526 4.96581L11.529 5L11.5204 5.00004ZM5.00582 5.07335C5.00196 5.13841 5 5.20397 5 5.27C5 6.77277 6.01371 8.03877 7.39462 8.42151C7.85464 8.54901 8.25 8.15143 8.25 7.67406C8.25 7.32269 7.95807 7.04793 7.63046 6.92093C6.969 6.66451 6.5 6.02203 6.5 5.27C6.5 5.17822 6.50697 5.08806 6.52044 5.00004H10.011L10.0139 4.96581C9.86973 4.13321 9.14381 3.5 8.26998 3.5C7.38422 3.5 6.65043 4.15063 6.52044 5.00004H5.75864C5.50097 4.99879 5.24918 5.02407 5.00582 5.07335ZM3 26.24C3 27.7581 4.24202 29 5.75866 29H22.51V27.5H21.2C20.8134 27.5 20.5 27.1866 20.5 26.8V24.2C20.5 23.8134 20.8134 23.5 21.2 23.5H23.8C23.8692 23.5 23.936 23.51 23.9991 23.5287C24.7449 22.888 25.7137 22.5 26.77 22.5H29V11H3V26.24ZM23.51 26.76V28.7929L28.8029 23.5H26.77C25.0322 23.5 23.602 24.8759 23.5143 26.5928C23.5114 26.6482 23.51 26.7039 23.51 26.76ZM21.5 24.5V26.5H22.5179L22.5187 26.4871L22.5219 26.4406C22.5749 25.732 22.8025 25.0708 23.1617 24.5H21.5Z" fill="#212121"/>
</svg>
