<svg xmlns="http://www.w3.org/2000/svg" width="32" height="32" fill="none"><path fill="#341A1C" d="M22.75 21.5H16v3h-4.17c-.351 0-.663.168-.77.5l-1.014 3.681c-.204.655.293 1.319.994 1.319.293 0 .575-.114.77-.323l1.208-1.28c.195-.21.487-.397.78-.397h8.952a3.25 3.25 0 1 0 0-6.5Z"/><path fill="#422426" d="M16 21.5H9.25A3.25 3.25 0 0 0 9 27.99V28h9.202c.293 0 .585.188.78.397l1.208 1.28c.195.21.477.323.77.323.701 0 1.198-.664.993-1.319L20.94 25c-.1-.311-.38-.478-.704-.498a1.087 1.087 0 0 0-.066-.002H16v-3Z"/><path fill="#573739" d="M10 17a6 6 0 0 1 12 0v.648c0 .352.158.572.25.852.304.946 1.42 1.85 2.433 2.694.353.294.693.577.982.847l.91-.15c.25-.04.48.12.52.37.04.248-.12.477-.37.517l-.17.03c.08.1.14.21.19.329.24.14.52.2.8.17.21-.02.41.109.45.318.03.19-.07.369-.24.438.1.06.18.17.19.3.03.218-.13.418-.35.438h-.01v.02c.03.219-.13.418-.35.438-.23.03-.46.02-.68-.03a.404.404 0 0 1-.42.269c-.42-.04-.81-.19-1.14-.448-3.503-2.708-3.934-3.042-4.325-3.418a15.859 15.859 0 0 1-.17-.169c-.5-.498-1-1.494-1-1.992h-1V18h-5v1.471h-1c0 .498-.5 1.494-1 1.992l-.17.169c-.39.376-.822.71-4.325 3.418-.33.259-.72.408-1.14.448-.19.02-.36-.1-.42-.27-.22.05-.45.06-.68.03a.388.388 0 0 1-.35-.438v-.02h-.01a.388.388 0 0 1-.35-.438.39.39 0 0 1 .19-.299.401.401 0 0 1-.24-.438c.04-.21.24-.339.45-.319.28.03.56-.03.8-.169.05-.12.11-.23.19-.329l-.17-.03a.445.445 0 0 1-.37-.518.446.446 0 0 1 .52-.368l.91.15c.29-.27.63-.554.982-.848 1.013-.843 2.129-1.748 2.433-2.694.092-.28.25-.5.25-.852V17Z"/><path fill="#00A6ED" d="M20 21.5h-8v-8.972c.193-.197.536-.47 1-.731h5.99c.362.208.7.454 1.01.73V21.5Z"/><path fill="#422426" d="M15.848 15h.294C17.718 15 19 13.77 19 12.26v-.464A6.098 6.098 0 0 0 15.995 11c-1.061 0-2.08.282-2.995.786v.484c-.01 1.51 1.271 2.73 2.848 2.73Z"/><path fill="#341A1C" d="M6.418 22.95a.063.063 0 0 1 .076.1l-.956.742a1.416 1.416 0 0 1-1.035.29H4.5L4.5 24.08a.378.378 0 0 0-.21.043.32.32 0 0 0-.157.246v.003a.322.322 0 0 0 .245.355.447.447 0 0 1 .196-.247.49.49 0 0 1 .303-.07c.344.037.678-.057.945-.264l1.23-.956a.062.062 0 0 1 .078.098.059.059 0 0 1-.01.01l-1.23.957c-.294.227-.66.33-1.036.289h-.001a.33.33 0 0 0-.216.044.313.313 0 0 0-.144.218l-.008.054h-.005c-.01.17.12.323.296.338h.003c.2.026.4.021.593-.015a.465.465 0 0 0 .019.065v.003l.009-.003a.44.44 0 0 1-.017-.067l-.01.002a.228.228 0 0 1-.005-.038v.003h.01v-.006h-.01v.003a.462.462 0 0 1 .417-.499 1.38 1.38 0 0 0 .688-.273.061.061 0 0 1 .025-.011l1.214-.945a.063.063 0 1 1 .077.098l-1.23.957c-.22.165-.47.268-.751.299h-.002a.337.337 0 0 0-.303.366.34.34 0 0 0 .372.298c.076-.007.151-.018.225-.033a.063.063 0 0 1 .025.122 2.288 2.288 0 0 1-.238.036.472.472 0 0 1-.466-.259c-.213.043-.435.05-.657.022a.448.448 0 0 1-.408-.473.447.447 0 0 1-.347-.494.442.442 0 0 1 .138-.281.448.448 0 0 1-.188-.418.45.45 0 0 1 .51-.4 1.3 1.3 0 0 0 .944-.264.063.063 0 0 1 .076.099c-.293.227-.659.33-1.035.288h-.001a.325.325 0 0 0-.37.29.326.326 0 0 0 .177.328.453.453 0 0 1 .258-.042 1.29 1.29 0 0 0 .949-.267l.952-.74Z"/><path fill="#341A1C" fill-rule="evenodd" d="M25.598 22.95a.063.063 0 0 0-.077.1l.956.742a1.415 1.415 0 0 0 1.035.29h.002l.002-.001a.378.378 0 0 1 .21.043.32.32 0 0 1 .157.246v.003a.322.322 0 0 1-.244.355.447.447 0 0 0-.197-.247.49.49 0 0 0-.302-.07 1.302 1.302 0 0 1-.946-.264l-1.23-.956a.062.062 0 0 0-.078.098.059.059 0 0 0 .011.01l1.23.957c.293.227.66.33 1.035.289h.002a.33.33 0 0 1 .215.044.313.313 0 0 1 .145.218l.008.054h.004c.01.17-.12.323-.296.338h-.003c-.2.026-.4.021-.593-.015a.462.462 0 0 0-.412-.537 1.38 1.38 0 0 1-.69-.273.061.061 0 0 0-.023-.011l-1.215-.945a.063.063 0 1 0-.077.098l1.23.957c.22.165.47.268.752.299.186.016.321.183.304.366a.34.34 0 0 1-.372.298 2.143 2.143 0 0 1-.225-.033.063.063 0 0 0-.025.122c.079.016.158.028.239.036a.472.472 0 0 0 .465-.259c.214.043.436.05.657.022a.448.448 0 0 0 .409-.473.447.447 0 0 0 .347-.494.442.442 0 0 0-.139-.281.448.448 0 0 0 .188-.418.45.45 0 0 0-.51-.4 1.3 1.3 0 0 1-.944-.264.063.063 0 1 0-.076.099c.293.227.66.33 1.035.288h.002a.325.325 0 0 1 .369.29.326.326 0 0 1-.176.328.453.453 0 0 0-.255-.042h-.004a1.29 1.29 0 0 1-.944-.263l-.005-.003-.951-.74Zm1.05 2.196v.003h-.01v-.006h.01v.003Zm-.004.038c-.005.025-.012.047-.018.065l-.001.003-.008-.003a.435.435 0 0 0 .016-.067l.01.002Z" clip-rule="evenodd"/><path fill="#9B9B9B" d="M20 21.5h-8l1.63 3h4.684l1.686-3Z"/><path fill="#000" d="m19.211 3.46-.262-.133a1.922 1.922 0 0 1-.495-.358l-.504-.51a1.404 1.404 0 0 0-1.444-.337 1.554 1.554 0 0 1-1.009 0 1.157 1.157 0 0 0-1.332.215l-.626.632a1.92 1.92 0 0 1-.494.358l-.263.132a1.195 1.195 0 0 0-.636 1.296l.344 1.908c.03.194.191.337.383.337 0 0-.04-.54-.06-.888a.607.607 0 0 1 .191-.48l.111-.101a.753.753 0 0 0 .243-.551v-.531c0-.153.1-.286.252-.316.394-.102 1.231-.266 2.392-.266 1.16 0 1.998.174 2.392.266.141.04.252.173.252.316v.53c0 .215.09.409.242.552l.121.112a.6.6 0 0 1 .192.47c-.02.346-.06.887-.06.887a.399.399 0 0 0 .373-.337l.343-1.908a1.215 1.215 0 0 0-.646-1.296Z"/><path fill="#4E3233" fill-rule="evenodd" d="M19.19 6.308c-.022.324-.05.692-.05.692a.399.399 0 0 0 .374-.337l.037-.207a1 1 0 1 1-.362-.148Zm-6.738.146.038.21c.03.193.191.336.383.336 0 0-.027-.37-.048-.695a1 1 0 1 1-.373.148Z" clip-rule="evenodd"/><path fill="#573739" fill-rule="evenodd" d="M12.816 6.996a.38.38 0 0 0 .057.004s-.04-.54-.06-.888a.607.607 0 0 1 .191-.48l.111-.101a.753.753 0 0 0 .242-.551v-.531c0-.153.101-.286.253-.316.393-.102 1.231-.266 2.392-.266 1.16 0 1.998.174 2.392.266.141.04.252.173.252.316v.53c0 .215.09.409.242.552l.121.112a.6.6 0 0 1 .192.47c-.02.346-.06.887-.06.887.014 0 .029-.002.043-.005l-.188 2.643C18.894 10.723 18.044 11.5 17 11.5H15c-1.035 0-1.895-.777-1.998-1.862l-.188-2.642Z" clip-rule="evenodd"/><path fill="#290118" d="M16 9.492c-.318 0-.608-.083-.861-.228-.084-.052-.178.062-.122.145.206.353.571.591.983.591.412 0 .777-.238.983-.591.056-.093-.038-.197-.122-.145a1.688 1.688 0 0 1-.861.228Z"/><path fill="#3D2123" d="m15.798 7.168-.284 1.11c-.06.23.086.46.275.46h.421c.198 0 .336-.23.276-.46l-.284-1.11c-.06-.24-.344-.24-.404 0Z"/><path fill="#000" fill-rule="evenodd" d="M16.87 6.91a.15.15 0 0 0-.24.179c.167.227.448.361.745.361a.926.926 0 0 0 .746-.361.15.15 0 0 0-.242-.178.626.626 0 0 1-.504.239.626.626 0 0 1-.504-.24Zm-2.75 0a.15.15 0 0 0-.24.179c.167.227.448.361.745.361a.926.926 0 0 0 .746-.361.15.15 0 0 0-.242-.178.626.626 0 0 1-.504.239.626.626 0 0 1-.504-.24ZM18.436 6.07a.332.332 0 0 0-.065-.465l-.002-.001-.002-.002-.007-.006a1.143 1.143 0 0 0-.095-.06 1.86 1.86 0 0 0-1.143-.236.332.332 0 0 0 .078.66 1.196 1.196 0 0 1 .767.172l.006.005c.146.108.353.079.463-.067Zm-4.625-.465a.332.332 0 0 0 .398.532l.007-.005a1.116 1.116 0 0 1 .196-.099c.14-.054.337-.1.57-.073a.332.332 0 0 0 .078-.66 1.86 1.86 0 0 0-1.143.236l-.106.07Z" clip-rule="evenodd"/></svg>