<svg width="32" height="32" viewBox="0 0 32 32" fill="none" xmlns="http://www.w3.org/2000/svg">
<path d="M12 28.5C12 29.3284 12.6716 30 13.5 30H18.5C19.3284 30 20 29.3284 20 28.5V27H12V28.5Z" fill="#635994"/>
<path d="M11.8728 5C8.97844 6.49623 7 9.51707 7 13V19C7 22.4829 8.97844 25.5038 11.8728 27H20.1272C23.0216 25.5038 25 22.4829 25 19V13C25 9.51707 23.0216 6.49623 20.1272 5H11.8728Z" fill="#FF822D"/>
<path d="M22.7083 7H9.29168C8.7863 7.56466 8.35116 8.1935 8 8.8728V9H24V8.8728C23.6488 8.1935 23.2137 7.56466 22.7083 7Z" fill="#CA0B4A"/>
<path d="M24.777 11H7.22302C7.07706 11.6432 7 12.3126 7 13H25C25 12.3126 24.9229 11.6432 24.777 11Z" fill="#CA0B4A"/>
<path d="M25 15H7V17H25V15Z" fill="#CA0B4A"/>
<path d="M25 19H7C7 19.6874 7.07706 20.3568 7.22302 21H24.777C24.9229 20.3568 25 19.6874 25 19Z" fill="#CA0B4A"/>
<path d="M24 23.1272V23H8V23.1272C8.35116 23.8065 8.7863 24.4353 9.29168 25H22.7083C23.2137 24.4353 23.6488 23.8065 24 23.1272Z" fill="#CA0B4A"/>
<path d="M12 3.5C12 2.67157 12.6716 2 13.5 2H18.5C19.3284 2 20 2.67157 20 3.5V5H12V3.5Z" fill="#635994"/>
</svg>
