<svg width="32" height="33" viewBox="0 0 32 33" fill="none" xmlns="http://www.w3.org/2000/svg">
<g filter="url(#filter0_ii_28327_1998)">
<path d="M6.24772 7.74626C6.37215 9.55396 7.1422 10.9943 7.81052 11.8018L10.9199 8.45805C9.66332 7.53087 7.94002 7.14346 6.91017 7.06526C6.51967 7.03561 6.22082 7.35557 6.24772 7.74626Z" fill="url(#paint0_linear_28327_1998)"/>
<path d="M6.24772 7.74626C6.37215 9.55396 7.1422 10.9943 7.81052 11.8018L10.9199 8.45805C9.66332 7.53087 7.94002 7.14346 6.91017 7.06526C6.51967 7.03561 6.22082 7.35557 6.24772 7.74626Z" fill="url(#paint1_linear_28327_1998)"/>
</g>
<path d="M7.1942 12.3118L7.77549 13.0142L8.39636 12.3466L11.5057 9.00283L12.1161 8.34647L11.3949 7.81432C9.97322 6.76533 8.08423 6.35211 6.97074 6.26756C6.05577 6.19808 5.3919 6.96298 5.4496 7.8012C5.58713 9.79901 6.43496 11.3944 7.1942 12.3118Z" stroke="#AEAAB3" stroke-width="1.6"/>
<path d="M7.1942 12.3118L7.77549 13.0142L8.39636 12.3466L11.5057 9.00283L12.1161 8.34647L11.3949 7.81432C9.97322 6.76533 8.08423 6.35211 6.97074 6.26756C6.05577 6.19808 5.3919 6.96298 5.4496 7.8012C5.58713 9.79901 6.43496 11.3944 7.1942 12.3118Z" stroke="url(#paint2_linear_28327_1998)" stroke-width="1.6"/>
<path d="M7.1942 12.3118L7.77549 13.0142L8.39636 12.3466L11.5057 9.00283L12.1161 8.34647L11.3949 7.81432C9.97322 6.76533 8.08423 6.35211 6.97074 6.26756C6.05577 6.19808 5.3919 6.96298 5.4496 7.8012C5.58713 9.79901 6.43496 11.3944 7.1942 12.3118Z" stroke="url(#paint3_radial_28327_1998)" stroke-width="1.6"/>
<g filter="url(#filter1_f_28327_1998)">
<path d="M6.31506 5.97681C7.22131 5.98722 9.89319 6.44556 11.4869 7.49243" stroke="url(#paint4_linear_28327_1998)" stroke-width="0.15" stroke-linecap="round"/>
</g>
<g filter="url(#filter2_f_28327_1998)">
<path d="M6.61975 7.82056C6.70569 8.85962 7.22913 10.4612 7.68225 11.0431" stroke="url(#paint5_linear_28327_1998)" stroke-width="0.15" stroke-linecap="round"/>
</g>
<g filter="url(#filter3_ii_28327_1998)">
<path d="M26.333 7.74626C26.2085 9.55396 25.4385 10.9943 24.7702 11.8018L21.6608 8.45805C22.9174 7.53087 24.6407 7.14346 25.6705 7.06526C26.061 7.03561 26.3599 7.35557 26.333 7.74626Z" fill="url(#paint6_linear_28327_1998)"/>
</g>
<path d="M25.3865 12.3118L24.8052 13.0142L24.1843 12.3466L21.075 9.00283L20.4646 8.34647L21.1858 7.81432C22.6075 6.76533 24.4965 6.35211 25.61 6.26756C26.5249 6.19808 27.1888 6.96298 27.1311 7.8012C26.9936 9.79901 26.1457 11.3944 25.3865 12.3118Z" stroke="#AEAAB3" stroke-width="1.6"/>
<path d="M25.3865 12.3118L24.8052 13.0142L24.1843 12.3466L21.075 9.00283L20.4646 8.34647L21.1858 7.81432C22.6075 6.76533 24.4965 6.35211 25.61 6.26756C26.5249 6.19808 27.1888 6.96298 27.1311 7.8012C26.9936 9.79901 26.1457 11.3944 25.3865 12.3118Z" stroke="url(#paint7_linear_28327_1998)" stroke-width="1.6"/>
<path d="M25.3865 12.3118L24.8052 13.0142L24.1843 12.3466L21.075 9.00283L20.4646 8.34647L21.1858 7.81432C22.6075 6.76533 24.4965 6.35211 25.61 6.26756C26.5249 6.19808 27.1888 6.96298 27.1311 7.8012C26.9936 9.79901 26.1457 11.3944 25.3865 12.3118Z" stroke="url(#paint8_radial_28327_1998)" stroke-width="1.6"/>
<path d="M25.3865 12.3118L24.8052 13.0142L24.1843 12.3466L21.075 9.00283L20.4646 8.34647L21.1858 7.81432C22.6075 6.76533 24.4965 6.35211 25.61 6.26756C26.5249 6.19808 27.1888 6.96298 27.1311 7.8012C26.9936 9.79901 26.1457 11.3944 25.3865 12.3118Z" stroke="url(#paint9_radial_28327_1998)" stroke-width="1.6"/>
<g filter="url(#filter4_f_28327_1998)">
<path d="M27.0182 6.64868C27.4557 7.16431 27.2838 9.67993 26.065 11.5862" stroke="url(#paint10_linear_28327_1998)" stroke-width="0.15" stroke-linecap="round"/>
</g>
<g filter="url(#filter5_f_28327_1998)">
<path d="M25.5963 7.46118C24.4817 7.46118 22.5182 8.19181 22.0651 8.77368" stroke="url(#paint11_linear_28327_1998)" stroke-opacity="0.3" stroke-width="0.15" stroke-linecap="round"/>
</g>
<path d="M23.505 9.44C23.445 9.36 23.375 9.28 23.305 9.21C21.535 7.16 18.925 5.87 16.005 5.87C13.085 5.87 10.475 7.16 8.695 9.2C8.635 9.28 8.565 9.36 8.505 9.44L2.705 16.36C1.965 17.25 1.795 18.48 2.265 19.53C4.615 24.77 9.885 28.43 16.005 28.43C22.125 28.43 27.395 24.77 29.745 19.52C30.215 18.46 30.055 17.23 29.305 16.35L23.505 9.44Z" fill="url(#paint12_radial_28327_1998)"/>
<path d="M23.505 9.44C23.445 9.36 23.375 9.28 23.305 9.21C21.535 7.16 18.925 5.87 16.005 5.87C13.085 5.87 10.475 7.16 8.695 9.2C8.635 9.28 8.565 9.36 8.505 9.44L2.705 16.36C1.965 17.25 1.795 18.48 2.265 19.53C4.615 24.77 9.885 28.43 16.005 28.43C22.125 28.43 27.395 24.77 29.745 19.52C30.215 18.46 30.055 17.23 29.305 16.35L23.505 9.44Z" fill="url(#paint13_radial_28327_1998)"/>
<path d="M23.505 9.44C23.445 9.36 23.375 9.28 23.305 9.21C21.535 7.16 18.925 5.87 16.005 5.87C13.085 5.87 10.475 7.16 8.695 9.2C8.635 9.28 8.565 9.36 8.505 9.44L2.705 16.36C1.965 17.25 1.795 18.48 2.265 19.53C4.615 24.77 9.885 28.43 16.005 28.43C22.125 28.43 27.395 24.77 29.745 19.52C30.215 18.46 30.055 17.23 29.305 16.35L23.505 9.44Z" fill="url(#paint14_radial_28327_1998)"/>
<path d="M23.505 9.44C23.445 9.36 23.375 9.28 23.305 9.21C21.535 7.16 18.925 5.87 16.005 5.87C13.085 5.87 10.475 7.16 8.695 9.2C8.635 9.28 8.565 9.36 8.505 9.44L2.705 16.36C1.965 17.25 1.795 18.48 2.265 19.53C4.615 24.77 9.885 28.43 16.005 28.43C22.125 28.43 27.395 24.77 29.745 19.52C30.215 18.46 30.055 17.23 29.305 16.35L23.505 9.44Z" fill="url(#paint15_radial_28327_1998)"/>
<path d="M23.505 9.44C23.445 9.36 23.375 9.28 23.305 9.21C21.535 7.16 18.925 5.87 16.005 5.87C13.085 5.87 10.475 7.16 8.695 9.2C8.635 9.28 8.565 9.36 8.505 9.44L2.705 16.36C1.965 17.25 1.795 18.48 2.265 19.53C4.615 24.77 9.885 28.43 16.005 28.43C22.125 28.43 27.395 24.77 29.745 19.52C30.215 18.46 30.055 17.23 29.305 16.35L23.505 9.44Z" fill="url(#paint16_linear_28327_1998)"/>
<path d="M23.505 9.44C23.445 9.36 23.375 9.28 23.305 9.21C21.535 7.16 18.925 5.87 16.005 5.87C13.085 5.87 10.475 7.16 8.695 9.2C8.635 9.28 8.565 9.36 8.505 9.44L2.705 16.36C1.965 17.25 1.795 18.48 2.265 19.53C4.615 24.77 9.885 28.43 16.005 28.43C22.125 28.43 27.395 24.77 29.745 19.52C30.215 18.46 30.055 17.23 29.305 16.35L23.505 9.44Z" fill="url(#paint17_radial_28327_1998)"/>
<path d="M23.505 9.44C23.445 9.36 23.375 9.28 23.305 9.21C21.535 7.16 18.925 5.87 16.005 5.87C13.085 5.87 10.475 7.16 8.695 9.2C8.635 9.28 8.565 9.36 8.505 9.44L2.705 16.36C1.965 17.25 1.795 18.48 2.265 19.53C4.615 24.77 9.885 28.43 16.005 28.43C22.125 28.43 27.395 24.77 29.745 19.52C30.215 18.46 30.055 17.23 29.305 16.35L23.505 9.44Z" fill="url(#paint18_radial_28327_1998)"/>
<path d="M23.505 9.44C23.445 9.36 23.375 9.28 23.305 9.21C21.535 7.16 18.925 5.87 16.005 5.87C13.085 5.87 10.475 7.16 8.695 9.2C8.635 9.28 8.565 9.36 8.505 9.44L2.705 16.36C1.965 17.25 1.795 18.48 2.265 19.53C4.615 24.77 9.885 28.43 16.005 28.43C22.125 28.43 27.395 24.77 29.745 19.52C30.215 18.46 30.055 17.23 29.305 16.35L23.505 9.44Z" fill="url(#paint19_radial_28327_1998)"/>
<path d="M11.785 13.9299C11.755 13.9299 11.735 13.9299 11.705 13.9299C10.595 13.9299 9.55498 14.4199 8.83498 15.2599L6.24498 18.2399C5.01498 19.6599 4.47498 21.5199 4.75498 23.3699C7.39499 26.3499 11.205 28.2699 15.475 28.4199V17.7299C15.465 15.6699 13.815 13.9699 11.785 13.9299Z" fill="url(#paint20_linear_28327_1998)"/>
<path d="M20.245 13.9299C20.275 13.9299 20.295 13.9299 20.325 13.9299C21.435 13.9299 22.475 14.4199 23.195 15.2599L25.785 18.2399C27.015 19.6599 27.555 21.5199 27.275 23.3699C24.635 26.3499 20.825 28.2699 16.555 28.4199V17.7299C16.565 15.6699 18.215 13.9699 20.245 13.9299Z" fill="url(#paint21_linear_28327_1998)"/>
<path d="M11.6888 15.5399C11.0088 15.5299 10.3988 15.8299 9.99884 16.3099L7.39884 19.2999C5.42884 21.5699 6.01884 25.0899 8.64884 26.5499C10.2088 27.4199 11.9488 28.0199 13.7888 28.2799V17.7299C13.7888 16.5499 12.8588 15.5599 11.6888 15.5399Z" fill="url(#paint22_linear_28327_1998)"/>
<path d="M11.6888 15.5399C11.0088 15.5299 10.3988 15.8299 9.99884 16.3099L7.39884 19.2999C5.42884 21.5699 6.01884 25.0899 8.64884 26.5499C10.2088 27.4199 11.9488 28.0199 13.7888 28.2799V17.7299C13.7888 16.5499 12.8588 15.5599 11.6888 15.5399Z" fill="url(#paint23_radial_28327_1998)"/>
<path d="M20.275 15.5399C20.955 15.5299 21.565 15.8299 21.965 16.3099L24.565 19.2999C26.535 21.5699 25.945 25.0899 23.315 26.5499C21.755 27.4199 20.015 28.0199 18.175 28.2799V17.7299C18.175 16.5499 19.105 15.5599 20.275 15.5399Z" fill="url(#paint24_linear_28327_1998)"/>
<path d="M20.275 15.5399C20.955 15.5299 21.565 15.8299 21.965 16.3099L24.565 19.2999C26.535 21.5699 25.945 25.0899 23.315 26.5499C21.755 27.4199 20.015 28.0199 18.175 28.2799V17.7299C18.175 16.5499 19.105 15.5599 20.275 15.5399Z" fill="url(#paint25_radial_28327_1998)"/>
<g filter="url(#filter6_f_28327_1998)">
<path d="M19.8737 19.9543C19.4637 19.9543 19.1237 19.6143 19.1237 19.2043V17.7043C19.1237 17.2943 19.4637 16.9543 19.8737 16.9543C20.2837 16.9543 20.6237 17.2943 20.6237 17.7043V19.2043C20.6237 19.6243 20.2837 19.9543 19.8737 19.9543Z" fill="#574F5E"/>
</g>
<g filter="url(#filter7_f_28327_1998)">
<path d="M11.755 19.9543C11.345 19.9543 11.005 19.6143 11.005 19.2043V17.7043C11.005 17.2943 11.345 16.9543 11.755 16.9543C12.165 16.9543 12.505 17.2943 12.505 17.7043V19.2043C12.505 19.6243 12.165 19.9543 11.755 19.9543Z" fill="#574F5E"/>
</g>
<path d="M20.0525 19.72C19.6425 19.72 19.3025 19.38 19.3025 18.97V17.47C19.3025 17.06 19.6425 16.72 20.0525 16.72C20.4625 16.72 20.8025 17.06 20.8025 17.47V18.97C20.8025 19.39 20.4625 19.72 20.0525 19.72Z" fill="url(#paint26_linear_28327_1998)"/>
<path d="M20.0525 19.72C19.6425 19.72 19.3025 19.38 19.3025 18.97V17.47C19.3025 17.06 19.6425 16.72 20.0525 16.72C20.4625 16.72 20.8025 17.06 20.8025 17.47V18.97C20.8025 19.39 20.4625 19.72 20.0525 19.72Z" fill="url(#paint27_linear_28327_1998)"/>
<path d="M12.005 19.72C11.595 19.72 11.255 19.38 11.255 18.97V17.47C11.255 17.06 11.595 16.72 12.005 16.72C12.415 16.72 12.755 17.06 12.755 17.47V18.97C12.755 19.39 12.415 19.72 12.005 19.72Z" fill="url(#paint28_linear_28327_1998)"/>
<path d="M12.005 19.72C11.595 19.72 11.255 19.38 11.255 18.97V17.47C11.255 17.06 11.595 16.72 12.005 16.72C12.415 16.72 12.755 17.06 12.755 17.47V18.97C12.755 19.39 12.415 19.72 12.005 19.72Z" fill="url(#paint29_linear_28327_1998)"/>
<path d="M21.375 23.6311C21.375 21.5374 19.705 19.83 17.635 19.83H14.365C12.305 19.83 10.625 21.5273 10.625 23.6311C10.625 26.2431 12.635 28.4079 15.205 28.5502C15.475 28.5604 15.745 28.5706 16.005 28.5706C16.265 28.5706 16.535 28.5604 16.795 28.5502C19.365 28.4181 21.375 26.2533 21.375 23.6311Z" fill="url(#paint30_radial_28327_1998)"/>
<path d="M21.375 23.6311C21.375 21.5374 19.705 19.83 17.635 19.83H14.365C12.305 19.83 10.625 21.5273 10.625 23.6311C10.625 26.2431 12.635 28.4079 15.205 28.5502C15.475 28.5604 15.745 28.5706 16.005 28.5706C16.265 28.5706 16.535 28.5604 16.795 28.5502C19.365 28.4181 21.375 26.2533 21.375 23.6311Z" fill="url(#paint31_radial_28327_1998)"/>
<path d="M21.375 23.6311C21.375 21.5374 19.705 19.83 17.635 19.83H14.365C12.305 19.83 10.625 21.5273 10.625 23.6311C10.625 26.2431 12.635 28.4079 15.205 28.5502C15.475 28.5604 15.745 28.5706 16.005 28.5706C16.265 28.5706 16.535 28.5604 16.795 28.5502C19.365 28.4181 21.375 26.2533 21.375 23.6311Z" fill="url(#paint32_radial_28327_1998)"/>
<path d="M21.375 23.6311C21.375 21.5374 19.705 19.83 17.635 19.83H14.365C12.305 19.83 10.625 21.5273 10.625 23.6311C10.625 26.2431 12.635 28.4079 15.205 28.5502C15.475 28.5604 15.745 28.5706 16.005 28.5706C16.265 28.5706 16.535 28.5604 16.795 28.5502C19.365 28.4181 21.375 26.2533 21.375 23.6311Z" fill="url(#paint33_radial_28327_1998)"/>
<path d="M21.375 23.6311C21.375 21.5374 19.705 19.83 17.635 19.83H14.365C12.305 19.83 10.625 21.5273 10.625 23.6311C10.625 26.2431 12.635 28.4079 15.205 28.5502C15.475 28.5604 15.745 28.5706 16.005 28.5706C16.265 28.5706 16.535 28.5604 16.795 28.5502C19.365 28.4181 21.375 26.2533 21.375 23.6311Z" fill="url(#paint34_radial_28327_1998)"/>
<path d="M14.075 21.49L15.325 22.75C15.705 23.13 16.315 23.13 16.685 22.75L17.935 21.49C18.545 20.88 18.115 19.83 17.255 19.83H14.755C13.895 19.83 13.465 20.88 14.075 21.49Z" fill="url(#paint35_linear_28327_1998)"/>
<path d="M14.075 21.49L15.325 22.75C15.705 23.13 16.315 23.13 16.685 22.75L17.935 21.49C18.545 20.88 18.115 19.83 17.255 19.83H14.755C13.895 19.83 13.465 20.88 14.075 21.49Z" fill="url(#paint36_radial_28327_1998)"/>
<path d="M14.075 21.49L15.325 22.75C15.705 23.13 16.315 23.13 16.685 22.75L17.935 21.49C18.545 20.88 18.115 19.83 17.255 19.83H14.755C13.895 19.83 13.465 20.88 14.075 21.49Z" fill="url(#paint37_linear_28327_1998)"/>
<path d="M14.075 21.49L15.325 22.75C15.705 23.13 16.315 23.13 16.685 22.75L17.935 21.49C18.545 20.88 18.115 19.83 17.255 19.83H14.755C13.895 19.83 13.465 20.88 14.075 21.49Z" fill="url(#paint38_linear_28327_1998)"/>
<path d="M14.075 21.49L15.325 22.75C15.705 23.13 16.315 23.13 16.685 22.75L17.935 21.49C18.545 20.88 18.115 19.83 17.255 19.83H14.755C13.895 19.83 13.465 20.88 14.075 21.49Z" fill="url(#paint39_radial_28327_1998)"/>
<g filter="url(#filter8_f_28327_1998)">
<ellipse cx="25.62" cy="18.0107" rx="3.47628" ry="0.919355" fill="#E1DDE6" fill-opacity="0.5"/>
</g>
<g filter="url(#filter9_f_28327_1998)">
<path d="M17.425 7.84131C18.05 7.86214 19.6 8.26631 20.8 9.71631C22 11.1663 25.3417 15.2371 26.8625 17.0913" stroke="#E1DDE6" stroke-linecap="round"/>
</g>
<path d="M12.8984 24.1174C12.8984 24.6487 13.2266 25.6252 14.4141 25.6252C15.6016 25.6252 15.9479 24.6982 16 24.219" stroke="url(#paint40_radial_28327_1998)" stroke-linecap="round"/>
<path d="M12.8984 24.1174C12.8984 24.6487 13.2266 25.6252 14.4141 25.6252C15.6016 25.6252 15.9479 24.6982 16 24.219" stroke="url(#paint41_radial_28327_1998)" stroke-linecap="round"/>
<path d="M12.8984 24.1174C12.8984 24.6487 13.2266 25.6252 14.4141 25.6252C15.6016 25.6252 15.9479 24.6982 16 24.219" stroke="url(#paint42_radial_28327_1998)" stroke-linecap="round"/>
<path d="M19.1016 24.1174C19.1016 24.6487 18.7734 25.6252 17.5859 25.6252C16.3984 25.6252 16.0521 24.6982 16 24.219" stroke="url(#paint43_radial_28327_1998)" stroke-linecap="round"/>
<path d="M19.1016 24.1174C19.1016 24.6487 18.7734 25.6252 17.5859 25.6252C16.3984 25.6252 16.0521 24.6982 16 24.219" stroke="url(#paint44_radial_28327_1998)" stroke-linecap="round"/>
<defs>
<filter id="filter0_ii_28327_1998" x="4.64618" y="5.46301" width="9.16608" height="9.26367" filterUnits="userSpaceOnUse" color-interpolation-filters="sRGB">
<feFlood flood-opacity="0" result="BackgroundImageFix"/>
<feBlend mode="normal" in="SourceGraphic" in2="BackgroundImageFix" result="shape"/>
<feColorMatrix in="SourceAlpha" type="matrix" values="0 0 0 0 0 0 0 0 0 0 0 0 0 0 0 0 0 0 127 0" result="hardAlpha"/>
<feOffset dx="2"/>
<feGaussianBlur stdDeviation="0.25"/>
<feComposite in2="hardAlpha" operator="arithmetic" k2="-1" k3="1"/>
<feColorMatrix type="matrix" values="0 0 0 0 0.26434 0 0 0 0 0.25276 0 0 0 0 0.2875 0 0 0 0.5 0"/>
<feBlend mode="normal" in2="shape" result="effect1_innerShadow_28327_1998"/>
<feColorMatrix in="SourceAlpha" type="matrix" values="0 0 0 0 0 0 0 0 0 0 0 0 0 0 0 0 0 0 127 0" result="hardAlpha"/>
<feOffset dy="2"/>
<feGaussianBlur stdDeviation="0.25"/>
<feComposite in2="hardAlpha" operator="arithmetic" k2="-1" k3="1"/>
<feColorMatrix type="matrix" values="0 0 0 0 0.26434 0 0 0 0 0.25276 0 0 0 0 0.2875 0 0 0 0.5 0"/>
<feBlend mode="normal" in2="effect1_innerShadow_28327_1998" result="effect2_innerShadow_28327_1998"/>
</filter>
<filter id="filter1_f_28327_1998" x="5.94005" y="5.60186" width="5.9219" height="2.26553" filterUnits="userSpaceOnUse" color-interpolation-filters="sRGB">
<feFlood flood-opacity="0" result="BackgroundImageFix"/>
<feBlend mode="normal" in="SourceGraphic" in2="BackgroundImageFix" result="shape"/>
<feGaussianBlur stdDeviation="0.15" result="effect1_foregroundBlur_28327_1998"/>
</filter>
<filter id="filter2_f_28327_1998" x="6.29474" y="7.49561" width="1.71252" height="3.87244" filterUnits="userSpaceOnUse" color-interpolation-filters="sRGB">
<feFlood flood-opacity="0" result="BackgroundImageFix"/>
<feBlend mode="normal" in="SourceGraphic" in2="BackgroundImageFix" result="shape"/>
<feGaussianBlur stdDeviation="0.125" result="effect1_foregroundBlur_28327_1998"/>
</filter>
<filter id="filter3_ii_28327_1998" x="19.2684" y="5.46301" width="9.16608" height="9.26367" filterUnits="userSpaceOnUse" color-interpolation-filters="sRGB">
<feFlood flood-opacity="0" result="BackgroundImageFix"/>
<feBlend mode="normal" in="SourceGraphic" in2="BackgroundImageFix" result="shape"/>
<feColorMatrix in="SourceAlpha" type="matrix" values="0 0 0 0 0 0 0 0 0 0 0 0 0 0 0 0 0 0 127 0" result="hardAlpha"/>
<feOffset dx="2"/>
<feGaussianBlur stdDeviation="0.25"/>
<feComposite in2="hardAlpha" operator="arithmetic" k2="-1" k3="1"/>
<feColorMatrix type="matrix" values="0 0 0 0 0.26434 0 0 0 0 0.25276 0 0 0 0 0.2875 0 0 0 0.5 0"/>
<feBlend mode="normal" in2="shape" result="effect1_innerShadow_28327_1998"/>
<feColorMatrix in="SourceAlpha" type="matrix" values="0 0 0 0 0 0 0 0 0 0 0 0 0 0 0 0 0 0 127 0" result="hardAlpha"/>
<feOffset dy="2"/>
<feGaussianBlur stdDeviation="0.25"/>
<feComposite in2="hardAlpha" operator="arithmetic" k2="-1" k3="1"/>
<feColorMatrix type="matrix" values="0 0 0 0 0.26434 0 0 0 0 0.25276 0 0 0 0 0.2875 0 0 0 0.5 0"/>
<feBlend mode="normal" in2="effect1_innerShadow_28327_1998" result="effect2_innerShadow_28327_1998"/>
</filter>
<filter id="filter4_f_28327_1998" x="25.69" y="6.27373" width="1.92166" height="5.6874" filterUnits="userSpaceOnUse" color-interpolation-filters="sRGB">
<feFlood flood-opacity="0" result="BackgroundImageFix"/>
<feBlend mode="normal" in="SourceGraphic" in2="BackgroundImageFix" result="shape"/>
<feGaussianBlur stdDeviation="0.15" result="effect1_foregroundBlur_28327_1998"/>
</filter>
<filter id="filter5_f_28327_1998" x="21.7401" y="7.13623" width="4.18127" height="1.9624" filterUnits="userSpaceOnUse" color-interpolation-filters="sRGB">
<feFlood flood-opacity="0" result="BackgroundImageFix"/>
<feBlend mode="normal" in="SourceGraphic" in2="BackgroundImageFix" result="shape"/>
<feGaussianBlur stdDeviation="0.125" result="effect1_foregroundBlur_28327_1998"/>
</filter>
<filter id="filter6_f_28327_1998" x="18.6237" y="16.4543" width="2.5" height="4" filterUnits="userSpaceOnUse" color-interpolation-filters="sRGB">
<feFlood flood-opacity="0" result="BackgroundImageFix"/>
<feBlend mode="normal" in="SourceGraphic" in2="BackgroundImageFix" result="shape"/>
<feGaussianBlur stdDeviation="0.25" result="effect1_foregroundBlur_28327_1998"/>
</filter>
<filter id="filter7_f_28327_1998" x="10.505" y="16.4543" width="2.5" height="4" filterUnits="userSpaceOnUse" color-interpolation-filters="sRGB">
<feFlood flood-opacity="0" result="BackgroundImageFix"/>
<feBlend mode="normal" in="SourceGraphic" in2="BackgroundImageFix" result="shape"/>
<feGaussianBlur stdDeviation="0.25" result="effect1_foregroundBlur_28327_1998"/>
</filter>
<filter id="filter8_f_28327_1998" x="20.1437" y="15.0913" width="10.9526" height="5.83875" filterUnits="userSpaceOnUse" color-interpolation-filters="sRGB">
<feFlood flood-opacity="0" result="BackgroundImageFix"/>
<feBlend mode="normal" in="SourceGraphic" in2="BackgroundImageFix" result="shape"/>
<feGaussianBlur stdDeviation="1" result="effect1_foregroundBlur_28327_1998"/>
</filter>
<filter id="filter9_f_28327_1998" x="13.925" y="4.34131" width="16.4375" height="16.25" filterUnits="userSpaceOnUse" color-interpolation-filters="sRGB">
<feFlood flood-opacity="0" result="BackgroundImageFix"/>
<feBlend mode="normal" in="SourceGraphic" in2="BackgroundImageFix" result="shape"/>
<feGaussianBlur stdDeviation="1.5" result="effect1_foregroundBlur_28327_1998"/>
</filter>
<linearGradient id="paint0_linear_28327_1998" x1="8.57512" y1="7.04993" x2="8.20566" y2="10.0706" gradientUnits="userSpaceOnUse">
<stop stop-color="#656169"/>
<stop offset="1" stop-color="#77747C"/>
</linearGradient>
<linearGradient id="paint1_linear_28327_1998" x1="8.72129" y1="9.9143" x2="7.75254" y2="9.00805" gradientUnits="userSpaceOnUse">
<stop stop-color="#5A585D"/>
<stop offset="0.737991" stop-color="#5A585D" stop-opacity="0"/>
</linearGradient>
<linearGradient id="paint2_linear_28327_1998" x1="9.69004" y1="10.7424" x2="7.12754" y2="7.99243" gradientUnits="userSpaceOnUse">
<stop stop-color="#A19EA5"/>
<stop offset="1" stop-color="#A19EA5" stop-opacity="0"/>
</linearGradient>
<radialGradient id="paint3_radial_28327_1998" cx="0" cy="0" r="1" gradientUnits="userSpaceOnUse" gradientTransform="translate(9.53379 8.24243) rotate(166.185) scale(4.95587 10.6481)">
<stop offset="0.783876" stop-color="#BDBAC0" stop-opacity="0"/>
<stop offset="1" stop-color="#BDBAC0"/>
</radialGradient>
<linearGradient id="paint4_linear_28327_1998" x1="11.0494" y1="7.58618" x2="6.33069" y2="6.72681" gradientUnits="userSpaceOnUse">
<stop stop-color="#CBC7CE"/>
<stop offset="1" stop-color="#CBC7CE" stop-opacity="0"/>
</linearGradient>
<linearGradient id="paint5_linear_28327_1998" x1="10.4746" y1="9.33993" x2="5.75585" y2="8.48056" gradientUnits="userSpaceOnUse">
<stop stop-color="#CBC7CE"/>
<stop offset="1" stop-color="#CBC7CE" stop-opacity="0"/>
</linearGradient>
<linearGradient id="paint6_linear_28327_1998" x1="24.0056" y1="6.49243" x2="24.5338" y2="9.42586" gradientUnits="userSpaceOnUse">
<stop stop-color="#656169"/>
<stop offset="1" stop-color="#77747C"/>
</linearGradient>
<linearGradient id="paint7_linear_28327_1998" x1="24.0056" y1="5.14868" x2="25.4532" y2="7.99243" gradientUnits="userSpaceOnUse">
<stop stop-color="#A19EA5"/>
<stop offset="1" stop-color="#A19EA5" stop-opacity="0"/>
</linearGradient>
<radialGradient id="paint8_radial_28327_1998" cx="0" cy="0" r="1" gradientUnits="userSpaceOnUse" gradientTransform="translate(23.0469 8.24243) rotate(13.8154) scale(4.95587 10.6481)">
<stop offset="0.783876" stop-color="#BDBAC0" stop-opacity="0"/>
<stop offset="1" stop-color="#BDBAC0"/>
</radialGradient>
<radialGradient id="paint9_radial_28327_1998" cx="0" cy="0" r="1" gradientUnits="userSpaceOnUse" gradientTransform="translate(28.5026 5.9768) rotate(103.069) scale(1.79654 2.92202)">
<stop stop-color="#BFBDC2"/>
<stop offset="1" stop-color="#BFBDC2" stop-opacity="0"/>
</radialGradient>
<linearGradient id="paint10_linear_28327_1998" x1="21.5312" y1="7.58618" x2="26.25" y2="6.72681" gradientUnits="userSpaceOnUse">
<stop stop-color="#CBC7CE"/>
<stop offset="1" stop-color="#CBC7CE" stop-opacity="0"/>
</linearGradient>
<linearGradient id="paint11_linear_28327_1998" x1="22.1061" y1="9.33993" x2="26.8248" y2="8.48056" gradientUnits="userSpaceOnUse">
<stop stop-color="#CBC7CE"/>
<stop offset="1" stop-color="#CBC7CE" stop-opacity="0"/>
</linearGradient>
<radialGradient id="paint12_radial_28327_1998" cx="0" cy="0" r="1" gradientUnits="userSpaceOnUse" gradientTransform="translate(20.1276 10.18) rotate(100.521) scale(17.7992 33.527)">
<stop stop-color="#C6C5C7"/>
<stop offset="1" stop-color="#B0A7B9"/>
</radialGradient>
<radialGradient id="paint13_radial_28327_1998" cx="0" cy="0" r="1" gradientUnits="userSpaceOnUse" gradientTransform="translate(28.9401 25.6175) rotate(-133.345) scale(7.64878 26.8589)">
<stop offset="0.0942793" stop-color="#978EA0"/>
<stop offset="0.64732" stop-color="#978EA0" stop-opacity="0"/>
</radialGradient>
<radialGradient id="paint14_radial_28327_1998" cx="0" cy="0" r="1" gradientUnits="userSpaceOnUse" gradientTransform="translate(9.06506 19.1175) rotate(90) scale(4.375 6.91532)">
<stop offset="0.479167" stop-color="#9C93A7"/>
<stop offset="1" stop-color="#A098A9" stop-opacity="0"/>
</radialGradient>
<radialGradient id="paint15_radial_28327_1998" cx="0" cy="0" r="1" gradientUnits="userSpaceOnUse" gradientTransform="translate(23.8151 20.055) rotate(90) scale(3.5 5.53226)">
<stop offset="0.277778" stop-color="#A99EB6"/>
<stop offset="1" stop-color="#A098A9" stop-opacity="0"/>
</radialGradient>
<linearGradient id="paint16_linear_28327_1998" x1="3.37756" y1="11.6175" x2="7.25256" y2="15.18" gradientUnits="userSpaceOnUse">
<stop stop-color="#E1DDE6"/>
<stop offset="0.707654" stop-color="#E1DDE6" stop-opacity="0"/>
</linearGradient>
<radialGradient id="paint17_radial_28327_1998" cx="0" cy="0" r="1" gradientUnits="userSpaceOnUse" gradientTransform="translate(17.5026 12.555) rotate(145.919) scale(20.299 22.0288)">
<stop offset="0.730729" stop-color="#E1DDE6" stop-opacity="0"/>
<stop offset="1" stop-color="#E1DDE6"/>
</radialGradient>
<radialGradient id="paint18_radial_28327_1998" cx="0" cy="0" r="1" gradientUnits="userSpaceOnUse" gradientTransform="translate(16.0063 24.43) rotate(-90) scale(20.375 19.4539)">
<stop offset="0.868167" stop-color="#B0A9B8" stop-opacity="0"/>
<stop offset="1" stop-color="#B0A9B8"/>
</radialGradient>
<radialGradient id="paint19_radial_28327_1998" cx="0" cy="0" r="1" gradientUnits="userSpaceOnUse" gradientTransform="translate(11.5651 9.49249) rotate(55.2348) scale(6.46686 7.14113)">
<stop stop-color="#B6B2B9"/>
<stop offset="1" stop-color="#B6B2B9" stop-opacity="0"/>
</radialGradient>
<linearGradient id="paint20_linear_28327_1998" x1="13.8776" y1="14.6799" x2="11.3775" y2="27.6174" gradientUnits="userSpaceOnUse">
<stop stop-color="#E1DAEA"/>
<stop offset="1" stop-color="#B7A8C7"/>
</linearGradient>
<linearGradient id="paint21_linear_28327_1998" x1="21.9512" y1="16.5549" x2="26.6276" y2="27.0549" gradientUnits="userSpaceOnUse">
<stop stop-color="#E6E1ED"/>
<stop offset="1" stop-color="#B7A8C7"/>
</linearGradient>
<linearGradient id="paint22_linear_28327_1998" x1="13.4364" y1="15.5397" x2="13.4364" y2="29.8049" gradientUnits="userSpaceOnUse">
<stop stop-color="#6F6C72"/>
<stop offset="1" stop-color="#574F60"/>
</linearGradient>
<radialGradient id="paint23_radial_28327_1998" cx="0" cy="0" r="1" gradientUnits="userSpaceOnUse" gradientTransform="translate(8.8739 19.8674) rotate(109.567) scale(7.89334 19.6076)">
<stop offset="0.652159" stop-color="#8664A8" stop-opacity="0"/>
<stop offset="1" stop-color="#8664A8"/>
</radialGradient>
<linearGradient id="paint24_linear_28327_1998" x1="25.381" y1="15.5397" x2="25.381" y2="30.4924" gradientUnits="userSpaceOnUse">
<stop stop-color="#868488"/>
<stop offset="1" stop-color="#574F60"/>
</linearGradient>
<radialGradient id="paint25_radial_28327_1998" cx="0" cy="0" r="1" gradientUnits="userSpaceOnUse" gradientTransform="translate(20.8185 19.8674) rotate(76.6492) scale(8.64617 21.4777)">
<stop offset="0.652159" stop-color="#8664A8" stop-opacity="0"/>
<stop offset="1" stop-color="#8664A8"/>
</radialGradient>
<linearGradient id="paint26_linear_28327_1998" x1="20.7152" y1="18.22" x2="19.8898" y2="18.22" gradientUnits="userSpaceOnUse">
<stop offset="0.225" stop-color="#594C4F"/>
<stop offset="1" stop-color="#392833"/>
</linearGradient>
<linearGradient id="paint27_linear_28327_1998" x1="21.0369" y1="20.2449" x2="21.0369" y2="18.6547" gradientUnits="userSpaceOnUse">
<stop stop-color="#552D52"/>
<stop offset="1" stop-color="#552D52" stop-opacity="0"/>
</linearGradient>
<linearGradient id="paint28_linear_28327_1998" x1="12.6677" y1="18.22" x2="11.8423" y2="18.22" gradientUnits="userSpaceOnUse">
<stop offset="0.225" stop-color="#594C4F"/>
<stop offset="1" stop-color="#392833"/>
</linearGradient>
<linearGradient id="paint29_linear_28327_1998" x1="12.9894" y1="20.2449" x2="12.9894" y2="18.6547" gradientUnits="userSpaceOnUse">
<stop stop-color="#552D52"/>
<stop offset="1" stop-color="#552D52" stop-opacity="0"/>
</linearGradient>
<radialGradient id="paint30_radial_28327_1998" cx="0" cy="0" r="1" gradientUnits="userSpaceOnUse" gradientTransform="translate(19.3776 21.4561) rotate(111.165) scale(9.35488 9.26794)">
<stop stop-color="#DFDBE4"/>
<stop offset="1" stop-color="#978EA2"/>
</radialGradient>
<radialGradient id="paint31_radial_28327_1998" cx="0" cy="0" r="1" gradientUnits="userSpaceOnUse" gradientTransform="translate(16 30.4612) rotate(-90) scale(7.09375 14.8776)">
<stop stop-color="#8664A8"/>
<stop offset="1" stop-color="#8664A8" stop-opacity="0"/>
</radialGradient>
<radialGradient id="paint32_radial_28327_1998" cx="0" cy="0" r="1" gradientUnits="userSpaceOnUse" gradientTransform="translate(16.5026 23.555) rotate(145.763) scale(7.10955 6.98471)">
<stop offset="0.677908" stop-color="#E1DDE6" stop-opacity="0"/>
<stop offset="1" stop-color="#E1DDE6"/>
</radialGradient>
<radialGradient id="paint33_radial_28327_1998" cx="0" cy="0" r="1" gradientUnits="userSpaceOnUse" gradientTransform="translate(15.4401 26.18) rotate(-49.1028) scale(8.40074 8.25323)">
<stop offset="0.609581" stop-color="#ABA5B1" stop-opacity="0"/>
<stop offset="1" stop-color="#ABA5B1"/>
</radialGradient>
<radialGradient id="paint34_radial_28327_1998" cx="0" cy="0" r="1" gradientUnits="userSpaceOnUse" gradientTransform="translate(15.4401 25.8675) rotate(-90) scale(6.0375 9.5625)">
<stop offset="0.561023" stop-color="#ABA5B1" stop-opacity="0"/>
<stop offset="1" stop-color="#ABA5B1"/>
</radialGradient>
<linearGradient id="paint35_linear_28327_1998" x1="17.2277" y1="19.5641" x2="14.3974" y2="22.0406" gradientUnits="userSpaceOnUse">
<stop offset="0.191489" stop-color="#5F5254"/>
<stop offset="1" stop-color="#2E2127"/>
</linearGradient>
<radialGradient id="paint36_radial_28327_1998" cx="0" cy="0" r="1" gradientUnits="userSpaceOnUse" gradientTransform="translate(16.324 20.4451) rotate(132.042) scale(2.00441 3.67132)">
<stop offset="0.462647" stop-color="#34222C" stop-opacity="0"/>
<stop offset="0.955607" stop-color="#34222C"/>
</radialGradient>
<linearGradient id="paint37_linear_28327_1998" x1="16.3587" y1="20.6985" x2="16.3587" y2="19.1449" gradientUnits="userSpaceOnUse">
<stop offset="0.146552" stop-color="#34222C" stop-opacity="0"/>
<stop offset="0.872727" stop-color="#34222C"/>
</linearGradient>
<linearGradient id="paint38_linear_28327_1998" x1="17.1269" y1="23.3041" x2="17.1269" y2="20.9554" gradientUnits="userSpaceOnUse">
<stop stop-color="#552D52"/>
<stop offset="1" stop-color="#552D52" stop-opacity="0"/>
</linearGradient>
<radialGradient id="paint39_radial_28327_1998" cx="0" cy="0" r="1" gradientUnits="userSpaceOnUse" gradientTransform="translate(18.7838 22.1487) rotate(-161.02) scale(5.71706 2.5936)">
<stop offset="0.827602" stop-color="#5C5458" stop-opacity="0"/>
<stop offset="0.935007" stop-color="#5C5458"/>
</radialGradient>
<radialGradient id="paint40_radial_28327_1998" cx="0" cy="0" r="1" gradientUnits="userSpaceOnUse" gradientTransform="translate(14.7057 23.5393) rotate(100.835) scale(3.3249 2.8652)">
<stop stop-color="#261317"/>
<stop offset="0.588542" stop-color="#4E4647"/>
<stop offset="0.747451" stop-color="#2F172A"/>
</radialGradient>
<radialGradient id="paint41_radial_28327_1998" cx="0" cy="0" r="1" gradientUnits="userSpaceOnUse" gradientTransform="translate(15.5338 24.6331) rotate(138.918) scale(0.808433 1.03129)">
<stop stop-color="#261317"/>
<stop offset="1" stop-color="#261317" stop-opacity="0"/>
</radialGradient>
<radialGradient id="paint42_radial_28327_1998" cx="0" cy="0" r="1" gradientUnits="userSpaceOnUse" gradientTransform="translate(12.7369 23.2424) rotate(50.1104) scale(1.36439 1.02305)">
<stop stop-color="#261317"/>
<stop offset="1" stop-color="#261317" stop-opacity="0"/>
</radialGradient>
<radialGradient id="paint43_radial_28327_1998" cx="0" cy="0" r="1" gradientUnits="userSpaceOnUse" gradientTransform="translate(17.6901 24.0393) rotate(81.3546) scale(2.70258 2.8068)">
<stop stop-color="#261317"/>
<stop offset="0.588542" stop-color="#4E4647"/>
<stop offset="0.747451" stop-color="#2F172A"/>
</radialGradient>
<radialGradient id="paint44_radial_28327_1998" cx="0" cy="0" r="1" gradientUnits="userSpaceOnUse" gradientTransform="translate(15.7057 23.7581) rotate(43.5057) scale(1.27101 1.40586)">
<stop stop-color="#261317"/>
<stop offset="1" stop-color="#261317" stop-opacity="0"/>
</radialGradient>
</defs>
</svg>
