<svg width="32" height="32" viewBox="0 0 32 32" fill="none" xmlns="http://www.w3.org/2000/svg">
<circle cx="11.3057" cy="4.5" r="2.5" fill="#DE904C"/>
<circle cx="11.3057" cy="4.5" r="2.5" fill="url(#paint0_radial_18_3767)"/>
<circle cx="11.3057" cy="4.5" r="2.5" fill="url(#paint1_radial_18_3767)"/>
<circle cx="11.3057" cy="4.5" r="2.5" fill="url(#paint2_radial_18_3767)"/>
<circle cx="20.7119" cy="4.5" r="2.5" fill="#D68640"/>
<circle cx="20.7119" cy="4.5" r="2.5" fill="url(#paint3_radial_18_3767)"/>
<circle cx="20.7119" cy="4.5" r="2.5" fill="url(#paint4_radial_18_3767)"/>
<g filter="url(#filter0_f_18_3767)">
<circle cx="20.7666" cy="4.5" r="2.12585" stroke="url(#paint5_linear_18_3767)" stroke-width="0.3"/>
</g>
<circle cx="11.3057" cy="4.57031" r="1.61804" fill="url(#paint6_radial_18_3767)"/>
<circle cx="20.7119" cy="4.57031" r="1.61804" fill="#F9BF76"/>
<circle cx="20.7119" cy="4.57031" r="1.61804" fill="url(#paint7_radial_18_3767)"/>
<g filter="url(#filter1_i_18_3767)">
<rect x="19.087" y="12.7969" width="14" height="6" rx="3" transform="rotate(31.3889 19.087 12.7969)" fill="#DE773D"/>
<rect x="19.087" y="12.7969" width="14" height="6" rx="3" transform="rotate(31.3889 19.087 12.7969)" fill="url(#paint8_radial_18_3767)"/>
<rect x="19.087" y="12.7969" width="14" height="6" rx="3" transform="rotate(31.3889 19.087 12.7969)" fill="url(#paint9_linear_18_3767)"/>
<rect x="19.087" y="12.7969" width="14" height="6" rx="3" transform="rotate(31.3889 19.087 12.7969)" fill="url(#paint10_radial_18_3767)"/>
<rect x="19.087" y="12.7969" width="14" height="6" rx="3" transform="rotate(31.3889 19.087 12.7969)" fill="url(#paint11_radial_18_3767)"/>
</g>
<g filter="url(#filter2_i_18_3767)">
<rect x="0.961914" y="19.9057" width="14" height="6" rx="3" transform="rotate(-30 0.961914 19.9057)" fill="#D77940"/>
<rect x="0.961914" y="19.9057" width="14" height="6" rx="3" transform="rotate(-30 0.961914 19.9057)" fill="url(#paint12_linear_18_3767)"/>
<rect x="0.961914" y="19.9057" width="14" height="6" rx="3" transform="rotate(-30 0.961914 19.9057)" fill="url(#paint13_radial_18_3767)"/>
<rect x="0.961914" y="19.9057" width="14" height="6" rx="3" transform="rotate(-30 0.961914 19.9057)" fill="url(#paint14_radial_18_3767)"/>
<rect x="0.961914" y="19.9057" width="14" height="6" rx="3" transform="rotate(-30 0.961914 19.9057)" fill="url(#paint15_radial_18_3767)"/>
</g>
<g filter="url(#filter3_f_18_3767)">
<path d="M21.4062 16.3429L27.8438 20.2804" stroke="#FA9C66" stroke-linecap="round"/>
</g>
<circle cx="15.9619" cy="20.7969" r="8" fill="url(#paint16_linear_18_3767)"/>
<circle cx="15.9619" cy="20.7969" r="8" fill="url(#paint17_radial_18_3767)"/>
<circle cx="15.9619" cy="20.7969" r="8" fill="url(#paint18_radial_18_3767)"/>
<circle cx="15.9619" cy="20.7969" r="8" fill="url(#paint19_radial_18_3767)"/>
<circle cx="15.9619" cy="20.7969" r="8" fill="url(#paint20_radial_18_3767)"/>
<circle cx="15.9619" cy="20.7969" r="8" fill="url(#paint21_radial_18_3767)"/>
<circle cx="15.9619" cy="20.7969" r="8" fill="url(#paint22_radial_18_3767)"/>
<circle cx="15.9619" cy="20.7969" r="8" fill="url(#paint23_radial_18_3767)"/>
<circle cx="15.9619" cy="20.7969" r="8" fill="url(#paint24_radial_18_3767)"/>
<circle cx="15.9619" cy="21.7969" r="5" fill="url(#paint25_linear_18_3767)"/>
<circle cx="15.9619" cy="21.7969" r="5" fill="url(#paint26_radial_18_3767)"/>
<circle cx="15.9619" cy="21.7969" r="5" fill="url(#paint27_radial_18_3767)"/>
<circle cx="15.9619" cy="21.7969" r="5" fill="url(#paint28_radial_18_3767)"/>
<g filter="url(#filter4_i_18_3767)">
<path d="M23.8513 10.1664C23.8513 14.634 20.3191 16.1508 15.9619 16.1508C11.6048 16.1508 8.0726 14.634 8.0726 10.1664C8.0726 5.69878 12.0948 2.5 15.9619 2.5C19.9478 2.5 23.8513 5.69878 23.8513 10.1664Z" fill="url(#paint29_linear_18_3767)"/>
<path d="M23.8513 10.1664C23.8513 14.634 20.3191 16.1508 15.9619 16.1508C11.6048 16.1508 8.0726 14.634 8.0726 10.1664C8.0726 5.69878 12.0948 2.5 15.9619 2.5C19.9478 2.5 23.8513 5.69878 23.8513 10.1664Z" fill="url(#paint30_radial_18_3767)"/>
<path d="M23.8513 10.1664C23.8513 14.634 20.3191 16.1508 15.9619 16.1508C11.6048 16.1508 8.0726 14.634 8.0726 10.1664C8.0726 5.69878 12.0948 2.5 15.9619 2.5C19.9478 2.5 23.8513 5.69878 23.8513 10.1664Z" fill="url(#paint31_radial_18_3767)"/>
<path d="M23.8513 10.1664C23.8513 14.634 20.3191 16.1508 15.9619 16.1508C11.6048 16.1508 8.0726 14.634 8.0726 10.1664C8.0726 5.69878 12.0948 2.5 15.9619 2.5C19.9478 2.5 23.8513 5.69878 23.8513 10.1664Z" fill="url(#paint32_radial_18_3767)"/>
</g>
<circle cx="13.4619" cy="8.42188" r="0.5" fill="url(#paint33_radial_18_3767)"/>
<circle cx="18.4619" cy="8.42188" r="0.5" fill="url(#paint34_radial_18_3767)"/>
<g filter="url(#filter5_i_18_3767)">
<path d="M15.9619 9.10852C15.4892 9.10852 14.456 9.10853 13.4469 9.76477C12.5964 10.3179 12.5178 11.6398 13.0465 12.7804C13.5751 13.921 14.4722 14.6398 15.9619 14.6398C17.4517 14.6398 18.3488 13.921 18.8774 12.7804C19.406 11.6398 19.3275 10.3179 18.4769 9.76477C17.4678 9.10853 16.4346 9.10852 15.9619 9.10852Z" fill="url(#paint35_radial_18_3767)"/>
<path d="M15.9619 9.10852C15.4892 9.10852 14.456 9.10853 13.4469 9.76477C12.5964 10.3179 12.5178 11.6398 13.0465 12.7804C13.5751 13.921 14.4722 14.6398 15.9619 14.6398C17.4517 14.6398 18.3488 13.921 18.8774 12.7804C19.406 11.6398 19.3275 10.3179 18.4769 9.76477C17.4678 9.10853 16.4346 9.10852 15.9619 9.10852Z" fill="url(#paint36_radial_18_3767)"/>
</g>
<g filter="url(#filter6_ii_18_3767)">
<rect width="7" height="8.5" rx="3.5" transform="matrix(-0.872609 0.488419 0.488419 0.872609 9.89496 20.3085)" fill="url(#paint37_linear_18_3767)"/>
<rect width="7" height="8.5" rx="3.5" transform="matrix(-0.872609 0.488419 0.488419 0.872609 9.89496 20.3085)" fill="url(#paint38_radial_18_3767)"/>
</g>
<g filter="url(#filter7_ii_18_3767)">
<rect x="22.032" y="20.3085" width="7" height="8.5" rx="3.5" transform="rotate(29.2367 22.032 20.3085)" fill="url(#paint39_linear_18_3767)"/>
</g>
<rect x="22.032" y="20.3085" width="7" height="8.5" rx="3.5" transform="rotate(29.2367 22.032 20.3085)" fill="url(#paint40_radial_18_3767)"/>
<rect width="4" height="5.5" rx="2" transform="matrix(-0.872609 0.488419 0.488419 0.872609 9.34552 22.3707)" fill="url(#paint41_linear_18_3767)"/>
<rect x="22.5814" y="22.3707" width="4" height="5.5" rx="2" transform="rotate(29.2367 22.5814 22.3707)" fill="url(#paint42_linear_18_3767)"/>
<g filter="url(#filter8_f_18_3767)">
<path d="M14.8364 10.1241C14.5429 10.1241 14.3379 10.3968 14.4901 10.6478C14.6607 10.9294 14.9325 11.2456 15.3366 11.4741C15.451 11.5388 15.5912 11.5388 15.7056 11.4741C16.1096 11.2456 16.3814 10.9294 16.5521 10.6478C16.7042 10.3968 16.4993 10.1241 16.2058 10.1241H14.8364Z" fill="#D18A74"/>
</g>
<path d="M15.2133 9.81946C14.8925 9.81946 14.6684 10.1176 14.8348 10.392C15.0213 10.6998 15.3184 11.0455 15.7602 11.2953C15.8853 11.366 16.0385 11.366 16.1636 11.2953C16.6054 11.0455 16.9025 10.6998 17.0891 10.392C17.2554 10.1176 17.0313 9.81946 16.7105 9.81946H15.2133Z" fill="url(#paint43_linear_18_3767)"/>
<path d="M15.2133 9.81946C14.8925 9.81946 14.6684 10.1176 14.8348 10.392C15.0213 10.6998 15.3184 11.0455 15.7602 11.2953C15.8853 11.366 16.0385 11.366 16.1636 11.2953C16.6054 11.0455 16.9025 10.6998 17.0891 10.392C17.2554 10.1176 17.0313 9.81946 16.7105 9.81946H15.2133Z" fill="url(#paint44_radial_18_3767)"/>
<g filter="url(#filter9_f_18_3767)">
<path d="M9.608 22.5571C9.7917 22.6413 10.2509 22.9199 10.6183 23.3608C10.9857 23.8017 11.598 24.8916 11.8582 25.3814" stroke="#FA9E75" stroke-width="0.5" stroke-linecap="round"/>
</g>
<defs>
<filter id="filter0_f_18_3767" x="18.1908" y="1.92415" width="5.1517" height="5.1517" filterUnits="userSpaceOnUse" color-interpolation-filters="sRGB">
<feFlood flood-opacity="0" result="BackgroundImageFix"/>
<feBlend mode="normal" in="SourceGraphic" in2="BackgroundImageFix" result="shape"/>
<feGaussianBlur stdDeviation="0.15" result="effect1_foregroundBlur_18_3767"/>
</filter>
<filter id="filter1_i_18_3767" x="17.085" y="13.7699" width="12.9801" height="10.3176" filterUnits="userSpaceOnUse" color-interpolation-filters="sRGB">
<feFlood flood-opacity="0" result="BackgroundImageFix"/>
<feBlend mode="normal" in="SourceGraphic" in2="BackgroundImageFix" result="shape"/>
<feColorMatrix in="SourceAlpha" type="matrix" values="0 0 0 0 0 0 0 0 0 0 0 0 0 0 0 0 0 0 127 0" result="hardAlpha"/>
<feOffset dx="0.15" dy="-0.15"/>
<feGaussianBlur stdDeviation="0.5"/>
<feComposite in2="hardAlpha" operator="arithmetic" k2="-1" k3="1"/>
<feColorMatrix type="matrix" values="0 0 0 0 0.580392 0 0 0 0 0.25098 0 0 0 0 0.309804 0 0 0 1 0"/>
<feBlend mode="normal" in2="shape" result="effect1_innerShadow_18_3767"/>
</filter>
<filter id="filter2_i_18_3767" x="1.55948" y="13.5033" width="13.4292" height="10.501" filterUnits="userSpaceOnUse" color-interpolation-filters="sRGB">
<feFlood flood-opacity="0" result="BackgroundImageFix"/>
<feBlend mode="normal" in="SourceGraphic" in2="BackgroundImageFix" result="shape"/>
<feColorMatrix in="SourceAlpha" type="matrix" values="0 0 0 0 0 0 0 0 0 0 0 0 0 0 0 0 0 0 127 0" result="hardAlpha"/>
<feOffset dx="-0.5" dy="-0.5"/>
<feGaussianBlur stdDeviation="0.5"/>
<feComposite in2="hardAlpha" operator="arithmetic" k2="-1" k3="1"/>
<feColorMatrix type="matrix" values="0 0 0 0 0.709804 0 0 0 0 0.341176 0 0 0 0 0.278431 0 0 0 1 0"/>
<feBlend mode="normal" in2="shape" result="effect1_innerShadow_18_3767"/>
</filter>
<filter id="filter3_f_18_3767" x="18.9062" y="13.8428" width="11.4376" height="8.93764" filterUnits="userSpaceOnUse" color-interpolation-filters="sRGB">
<feFlood flood-opacity="0" result="BackgroundImageFix"/>
<feBlend mode="normal" in="SourceGraphic" in2="BackgroundImageFix" result="shape"/>
<feGaussianBlur stdDeviation="1" result="effect1_foregroundBlur_18_3767"/>
</filter>
<filter id="filter4_i_18_3767" x="8.0726" y="2.5" width="16.2787" height="13.9008" filterUnits="userSpaceOnUse" color-interpolation-filters="sRGB">
<feFlood flood-opacity="0" result="BackgroundImageFix"/>
<feBlend mode="normal" in="SourceGraphic" in2="BackgroundImageFix" result="shape"/>
<feColorMatrix in="SourceAlpha" type="matrix" values="0 0 0 0 0 0 0 0 0 0 0 0 0 0 0 0 0 0 127 0" result="hardAlpha"/>
<feOffset dx="0.5" dy="0.25"/>
<feGaussianBlur stdDeviation="0.75"/>
<feComposite in2="hardAlpha" operator="arithmetic" k2="-1" k3="1"/>
<feColorMatrix type="matrix" values="0 0 0 0 0.741176 0 0 0 0 0.498039 0 0 0 0 0.266667 0 0 0 1 0"/>
<feBlend mode="normal" in2="shape" result="effect1_innerShadow_18_3767"/>
</filter>
<filter id="filter5_i_18_3767" x="12.7138" y="9.10852" width="6.59625" height="5.63125" filterUnits="userSpaceOnUse" color-interpolation-filters="sRGB">
<feFlood flood-opacity="0" result="BackgroundImageFix"/>
<feBlend mode="normal" in="SourceGraphic" in2="BackgroundImageFix" result="shape"/>
<feColorMatrix in="SourceAlpha" type="matrix" values="0 0 0 0 0 0 0 0 0 0 0 0 0 0 0 0 0 0 127 0" result="hardAlpha"/>
<feOffset dx="0.1" dy="0.1"/>
<feGaussianBlur stdDeviation="0.2"/>
<feComposite in2="hardAlpha" operator="arithmetic" k2="-1" k3="1"/>
<feColorMatrix type="matrix" values="0 0 0 0 0.823529 0 0 0 0 0.568627 0 0 0 0 0.384314 0 0 0 1 0"/>
<feBlend mode="normal" in2="shape" result="effect1_innerShadow_18_3767"/>
</filter>
<filter id="filter6_ii_18_3767" x="4.89965" y="21.2714" width="8.03389" height="8.91017" filterUnits="userSpaceOnUse" color-interpolation-filters="sRGB">
<feFlood flood-opacity="0" result="BackgroundImageFix"/>
<feBlend mode="normal" in="SourceGraphic" in2="BackgroundImageFix" result="shape"/>
<feColorMatrix in="SourceAlpha" type="matrix" values="0 0 0 0 0 0 0 0 0 0 0 0 0 0 0 0 0 0 127 0" result="hardAlpha"/>
<feOffset dx="0.15" dy="0.3"/>
<feGaussianBlur stdDeviation="0.3"/>
<feComposite in2="hardAlpha" operator="arithmetic" k2="-1" k3="1"/>
<feColorMatrix type="matrix" values="0 0 0 0 0.807843 0 0 0 0 0.407843 0 0 0 0 0.231373 0 0 0 1 0"/>
<feBlend mode="normal" in2="shape" result="effect1_innerShadow_18_3767"/>
<feColorMatrix in="SourceAlpha" type="matrix" values="0 0 0 0 0 0 0 0 0 0 0 0 0 0 0 0 0 0 127 0" result="hardAlpha"/>
<feOffset dx="-0.15" dy="-0.3"/>
<feGaussianBlur stdDeviation="0.3"/>
<feComposite in2="hardAlpha" operator="arithmetic" k2="-1" k3="1"/>
<feColorMatrix type="matrix" values="0 0 0 0 0.72549 0 0 0 0 0.4 0 0 0 0 0.341176 0 0 0 1 0"/>
<feBlend mode="normal" in2="effect1_innerShadow_18_3767" result="effect2_innerShadow_18_3767"/>
</filter>
<filter id="filter7_ii_18_3767" x="18.9934" y="21.2714" width="8.03389" height="8.91017" filterUnits="userSpaceOnUse" color-interpolation-filters="sRGB">
<feFlood flood-opacity="0" result="BackgroundImageFix"/>
<feBlend mode="normal" in="SourceGraphic" in2="BackgroundImageFix" result="shape"/>
<feColorMatrix in="SourceAlpha" type="matrix" values="0 0 0 0 0 0 0 0 0 0 0 0 0 0 0 0 0 0 127 0" result="hardAlpha"/>
<feOffset dx="-0.15" dy="-0.3"/>
<feGaussianBlur stdDeviation="0.3"/>
<feComposite in2="hardAlpha" operator="arithmetic" k2="-1" k3="1"/>
<feColorMatrix type="matrix" values="0 0 0 0 0.682353 0 0 0 0 0.356863 0 0 0 0 0.32549 0 0 0 1 0"/>
<feBlend mode="normal" in2="shape" result="effect1_innerShadow_18_3767"/>
<feColorMatrix in="SourceAlpha" type="matrix" values="0 0 0 0 0 0 0 0 0 0 0 0 0 0 0 0 0 0 127 0" result="hardAlpha"/>
<feOffset dx="0.15" dy="0.3"/>
<feGaussianBlur stdDeviation="0.3"/>
<feComposite in2="hardAlpha" operator="arithmetic" k2="-1" k3="1"/>
<feColorMatrix type="matrix" values="0 0 0 0 0.815686 0 0 0 0 0.384314 0 0 0 0 0.176471 0 0 0 1 0"/>
<feBlend mode="normal" in2="effect1_innerShadow_18_3767" result="effect2_innerShadow_18_3767"/>
</filter>
<filter id="filter8_f_18_3767" x="13.9385" y="9.62415" width="3.16519" height="2.39844" filterUnits="userSpaceOnUse" color-interpolation-filters="sRGB">
<feFlood flood-opacity="0" result="BackgroundImageFix"/>
<feBlend mode="normal" in="SourceGraphic" in2="BackgroundImageFix" result="shape"/>
<feGaussianBlur stdDeviation="0.25" result="effect1_foregroundBlur_18_3767"/>
</filter>
<filter id="filter9_f_18_3767" x="8.60794" y="21.5571" width="4.25037" height="4.82441" filterUnits="userSpaceOnUse" color-interpolation-filters="sRGB">
<feFlood flood-opacity="0" result="BackgroundImageFix"/>
<feBlend mode="normal" in="SourceGraphic" in2="BackgroundImageFix" result="shape"/>
<feGaussianBlur stdDeviation="0.375" result="effect1_foregroundBlur_18_3767"/>
</filter>
<radialGradient id="paint0_radial_18_3767" cx="0" cy="0" r="1" gradientUnits="userSpaceOnUse" gradientTransform="translate(13.5 3.18665) rotate(-139.844) scale(2.6168 0.786256)">
<stop stop-color="#F4A161"/>
<stop offset="1" stop-color="#F4A161" stop-opacity="0"/>
</radialGradient>
<radialGradient id="paint1_radial_18_3767" cx="0" cy="0" r="1" gradientUnits="userSpaceOnUse" gradientTransform="translate(11.3057 4.5) rotate(99.5615) scale(2.12238)">
<stop offset="0.713086" stop-color="#CE7032"/>
<stop offset="1" stop-color="#CE7032" stop-opacity="0"/>
</radialGradient>
<radialGradient id="paint2_radial_18_3767" cx="0" cy="0" r="1" gradientUnits="userSpaceOnUse" gradientTransform="translate(11.3057 4.5) rotate(-135) scale(2.64742 3.25371)">
<stop offset="0.841414" stop-color="#C17B3B" stop-opacity="0"/>
<stop offset="0.979133" stop-color="#C17B3B"/>
</radialGradient>
<radialGradient id="paint3_radial_18_3767" cx="0" cy="0" r="1" gradientUnits="userSpaceOnUse" gradientTransform="translate(21.0625 4.5) rotate(99.5095) scale(2.12206)">
<stop offset="0.659151" stop-color="#DC692A"/>
<stop offset="1" stop-color="#DC692A" stop-opacity="0"/>
</radialGradient>
<radialGradient id="paint4_radial_18_3767" cx="0" cy="0" r="1" gradientUnits="userSpaceOnUse" gradientTransform="translate(21.3828 4.58508) rotate(-143.383) scale(3.18284 2.61524)">
<stop offset="0.828064" stop-color="#B56E32" stop-opacity="0"/>
<stop offset="0.923978" stop-color="#B56E32"/>
</radialGradient>
<linearGradient id="paint5_linear_18_3767" x1="22.8925" y1="3.5929" x2="22.1641" y2="3.9679" gradientUnits="userSpaceOnUse">
<stop stop-color="#FFAF7E"/>
<stop offset="1" stop-color="#FFAF7E" stop-opacity="0"/>
</linearGradient>
<radialGradient id="paint6_radial_18_3767" cx="0" cy="0" r="1" gradientUnits="userSpaceOnUse" gradientTransform="translate(10.375 3.48352) rotate(49.548) scale(1.95069 3.60563)">
<stop stop-color="#FECC85"/>
<stop offset="1" stop-color="#DCA86A"/>
</radialGradient>
<radialGradient id="paint7_radial_18_3767" cx="0" cy="0" r="1" gradientUnits="userSpaceOnUse" gradientTransform="translate(20.1406 4.2804) rotate(6.91464) scale(2.40814)">
<stop offset="0.617592" stop-color="#E8A869" stop-opacity="0"/>
<stop offset="0.906457" stop-color="#E8A869"/>
</radialGradient>
<radialGradient id="paint8_radial_18_3767" cx="0" cy="0" r="1" gradientUnits="userSpaceOnUse" gradientTransform="translate(28.5912 19.9011) rotate(-84.3783) scale(5.08751 7.13795)">
<stop offset="0.175294" stop-color="#983C50"/>
<stop offset="1" stop-color="#983C50" stop-opacity="0"/>
</radialGradient>
<linearGradient id="paint9_linear_18_3767" x1="26.0987" y1="12.6361" x2="25.9033" y2="14.4759" gradientUnits="userSpaceOnUse">
<stop stop-color="#EB9251"/>
<stop offset="1" stop-color="#EB9251" stop-opacity="0"/>
</linearGradient>
<radialGradient id="paint10_radial_18_3767" cx="0" cy="0" r="1" gradientUnits="userSpaceOnUse" gradientTransform="translate(31.5998 13.6726) rotate(95.481) scale(2.5 1.64694)">
<stop stop-color="#FFB075"/>
<stop offset="1" stop-color="#FFB075" stop-opacity="0"/>
</radialGradient>
<radialGradient id="paint11_radial_18_3767" cx="0" cy="0" r="1" gradientUnits="userSpaceOnUse" gradientTransform="translate(23.9116 17.6313) rotate(-45.9881) scale(3.47146 4.6882)">
<stop offset="0.845647" stop-color="#FFAA6F"/>
<stop offset="1" stop-color="#FFAA6F" stop-opacity="0"/>
</radialGradient>
<linearGradient id="paint12_linear_18_3767" x1="7.96543" y1="19.1984" x2="7.93192" y2="21.5418" gradientUnits="userSpaceOnUse">
<stop offset="0.202564" stop-color="#A2643B"/>
<stop offset="1" stop-color="#A2643B" stop-opacity="0"/>
</linearGradient>
<radialGradient id="paint13_radial_18_3767" cx="0" cy="0" r="1" gradientUnits="userSpaceOnUse" gradientTransform="translate(7.49338 25.2776) rotate(153.857) scale(5.05601 3.6258)">
<stop offset="0.15499" stop-color="#BB5124"/>
<stop offset="1" stop-color="#BB5124" stop-opacity="0"/>
</radialGradient>
<radialGradient id="paint14_radial_18_3767" cx="0" cy="0" r="1" gradientUnits="userSpaceOnUse" gradientTransform="translate(2.5756 22.3156) rotate(28.1524) scale(1.64843 1.57452)">
<stop stop-color="#E38B4D"/>
<stop offset="1" stop-color="#E38B4D" stop-opacity="0"/>
</radialGradient>
<radialGradient id="paint15_radial_18_3767" cx="0" cy="0" r="1" gradientUnits="userSpaceOnUse" gradientTransform="translate(8.70697 24.398) rotate(-140.952) scale(2.11232 4.19938)">
<stop offset="0.92332" stop-color="#D77C46"/>
<stop offset="1" stop-color="#D77C46" stop-opacity="0"/>
</radialGradient>
<linearGradient id="paint16_linear_18_3767" x1="18.0736" y1="27.723" x2="18.0736" y2="15.0739" gradientUnits="userSpaceOnUse">
<stop stop-color="#CA6645"/>
<stop offset="1" stop-color="#D57E40"/>
</linearGradient>
<radialGradient id="paint17_radial_18_3767" cx="0" cy="0" r="1" gradientUnits="userSpaceOnUse" gradientTransform="translate(22.8569 16.5089) rotate(128.517) scale(9.98524 6.5074)">
<stop stop-color="#FFA66F"/>
<stop offset="1" stop-color="#FFA66F" stop-opacity="0"/>
</radialGradient>
<radialGradient id="paint18_radial_18_3767" cx="0" cy="0" r="1" gradientUnits="userSpaceOnUse" gradientTransform="translate(15.9619 14.1704) rotate(90) scale(3.87977 6.87021)">
<stop offset="0.465753" stop-color="#B54322"/>
<stop offset="1" stop-color="#B54322" stop-opacity="0"/>
</radialGradient>
<radialGradient id="paint19_radial_18_3767" cx="0" cy="0" r="1" gradientUnits="userSpaceOnUse" gradientTransform="translate(16.4792 22.0362) rotate(-125.505) scale(10.707 11.7823)">
<stop offset="0.714895" stop-color="#A3633D" stop-opacity="0"/>
<stop offset="0.923718" stop-color="#A3633D"/>
</radialGradient>
<radialGradient id="paint20_radial_18_3767" cx="0" cy="0" r="1" gradientUnits="userSpaceOnUse" gradientTransform="translate(8.40079 22.7271) rotate(-8.1301) scale(2.63067 6.76458)">
<stop stop-color="#C7733E"/>
<stop offset="1" stop-color="#C7733E" stop-opacity="0"/>
</radialGradient>
<radialGradient id="paint21_radial_18_3767" cx="0" cy="0" r="1" gradientUnits="userSpaceOnUse" gradientTransform="translate(11.8288 27.0852) rotate(55.4375) scale(2.90421 2.27211)">
<stop offset="0.254938" stop-color="#A03434"/>
<stop offset="1" stop-color="#A03434" stop-opacity="0"/>
</radialGradient>
<radialGradient id="paint22_radial_18_3767" cx="0" cy="0" r="1" gradientUnits="userSpaceOnUse" gradientTransform="translate(20.4653 26.8195) rotate(136.5) scale(3.59022 2.07018)">
<stop offset="0.317149" stop-color="#A14750"/>
<stop offset="1" stop-color="#A14750" stop-opacity="0"/>
</radialGradient>
<radialGradient id="paint23_radial_18_3767" cx="0" cy="0" r="1" gradientUnits="userSpaceOnUse" gradientTransform="translate(15.9619 17.3061) rotate(90) scale(11.4908)">
<stop offset="0.839082" stop-color="#AC4F52" stop-opacity="0"/>
<stop offset="1" stop-color="#AC4F52"/>
</radialGradient>
<radialGradient id="paint24_radial_18_3767" cx="0" cy="0" r="1" gradientUnits="userSpaceOnUse" gradientTransform="translate(21.9534 23.6307) rotate(-63.1836) scale(2.70961 1.95044)">
<stop offset="0.538765" stop-color="#DC6A27"/>
<stop offset="1" stop-color="#DC6A27" stop-opacity="0"/>
</radialGradient>
<linearGradient id="paint25_linear_18_3767" x1="15.9619" y1="16.5089" x2="15.9619" y2="24.6936" gradientUnits="userSpaceOnUse">
<stop stop-color="#E6A04E"/>
<stop offset="1" stop-color="#FFC286"/>
</linearGradient>
<radialGradient id="paint26_radial_18_3767" cx="0" cy="0" r="1" gradientUnits="userSpaceOnUse" gradientTransform="translate(15.9619 18.8474) rotate(90) scale(8.55676)">
<stop offset="0.588337" stop-color="#E2A48D" stop-opacity="0"/>
<stop offset="1" stop-color="#E2A48D"/>
</radialGradient>
<radialGradient id="paint27_radial_18_3767" cx="0" cy="0" r="1" gradientUnits="userSpaceOnUse" gradientTransform="translate(21.7408 18.7942) rotate(151.504) scale(4.23316)">
<stop stop-color="#FFD992"/>
<stop offset="1" stop-color="#FFD992" stop-opacity="0"/>
</radialGradient>
<radialGradient id="paint28_radial_18_3767" cx="0" cy="0" r="1" gradientUnits="userSpaceOnUse" gradientTransform="translate(10.5001 24.7999) rotate(-28.2174) scale(2.47293 4.20872)">
<stop offset="0.545951" stop-color="#BC8A66"/>
<stop offset="1" stop-color="#BC8A66" stop-opacity="0"/>
</radialGradient>
<linearGradient id="paint29_linear_18_3767" x1="15.9619" y1="3.88918" x2="15.9619" y2="16.1508" gradientUnits="userSpaceOnUse">
<stop stop-color="#EC9D55"/>
<stop offset="1" stop-color="#DE7944"/>
</linearGradient>
<radialGradient id="paint30_radial_18_3767" cx="0" cy="0" r="1" gradientUnits="userSpaceOnUse" gradientTransform="translate(20.8363 7.65492) rotate(118.974) scale(6.35176 7.55636)">
<stop stop-color="#FFBE88"/>
<stop offset="1" stop-color="#FFBE88" stop-opacity="0"/>
</radialGradient>
<radialGradient id="paint31_radial_18_3767" cx="0" cy="0" r="1" gradientUnits="userSpaceOnUse" gradientTransform="translate(15.4633 5.49651) rotate(81.8699) scale(12.015 13.8879)">
<stop offset="0.659866" stop-color="#BA5137" stop-opacity="0"/>
<stop offset="1" stop-color="#BA5137"/>
</radialGradient>
<radialGradient id="paint32_radial_18_3767" cx="0" cy="0" r="1" gradientUnits="userSpaceOnUse" gradientTransform="translate(15.1923 13.0264) rotate(112.62) scale(4.34675 3.61372)">
<stop offset="0.345414" stop-color="#CE6D54"/>
<stop offset="1" stop-color="#CE6D54" stop-opacity="0"/>
</radialGradient>
<radialGradient id="paint33_radial_18_3767" cx="0" cy="0" r="1" gradientUnits="userSpaceOnUse" gradientTransform="translate(13.9619 8.17156) rotate(142.749) scale(0.796625)">
<stop stop-color="#635556"/>
<stop offset="1" stop-color="#452B30"/>
</radialGradient>
<radialGradient id="paint34_radial_18_3767" cx="0" cy="0" r="1" gradientUnits="userSpaceOnUse" gradientTransform="translate(18.8846 8.18304) rotate(142.561) scale(0.462703)">
<stop stop-color="#635556"/>
<stop offset="1" stop-color="#452B30"/>
</radialGradient>
<radialGradient id="paint35_radial_18_3767" cx="0" cy="0" r="1" gradientUnits="userSpaceOnUse" gradientTransform="translate(15.9619 9.84996) rotate(90) scale(5.85139 10.7808)">
<stop offset="0.20438" stop-color="#FFBD96"/>
<stop offset="0.965215" stop-color="#D27067"/>
</radialGradient>
<radialGradient id="paint36_radial_18_3767" cx="0" cy="0" r="1" gradientUnits="userSpaceOnUse" gradientTransform="translate(19.2101 10.0171) rotate(146.39) scale(2.11419 2.83605)">
<stop stop-color="#FFDFAF"/>
<stop offset="1" stop-color="#FFDFAF" stop-opacity="0"/>
</radialGradient>
<linearGradient id="paint37_linear_18_3767" x1="3.42395" y1="-0.19386" x2="3.67074" y2="8.69267" gradientUnits="userSpaceOnUse">
<stop stop-color="#E27749"/>
<stop offset="1" stop-color="#DA835D"/>
</linearGradient>
<radialGradient id="paint38_radial_18_3767" cx="0" cy="0" r="1" gradientUnits="userSpaceOnUse" gradientTransform="translate(-0.484635 4.61123) rotate(-4.46155) scale(4.60268 7.28058)">
<stop stop-color="#E68F58"/>
<stop offset="1" stop-color="#E68F58" stop-opacity="0"/>
</radialGradient>
<linearGradient id="paint39_linear_18_3767" x1="25.532" y1="20.3085" x2="25.532" y2="28.8085" gradientUnits="userSpaceOnUse">
<stop stop-color="#E17341"/>
<stop offset="1" stop-color="#D48461"/>
</linearGradient>
<radialGradient id="paint40_radial_18_3767" cx="0" cy="0" r="1" gradientUnits="userSpaceOnUse" gradientTransform="translate(27.3222 21.2155) rotate(129.909) scale(1.19434 2.51403)">
<stop stop-color="#FD9C79"/>
<stop offset="1" stop-color="#FD9C79" stop-opacity="0"/>
</radialGradient>
<linearGradient id="paint41_linear_18_3767" x1="1.80588" y1="0.855428" x2="1.84625" y2="5.91815" gradientUnits="userSpaceOnUse">
<stop stop-color="#FFBE7B"/>
<stop offset="1" stop-color="#FFDDA2"/>
</linearGradient>
<linearGradient id="paint42_linear_18_3767" x1="24.5207" y1="24.0826" x2="24.5543" y2="29.0053" gradientUnits="userSpaceOnUse">
<stop stop-color="#F7B678"/>
<stop offset="1" stop-color="#FFDDA2"/>
</linearGradient>
<linearGradient id="paint43_linear_18_3767" x1="15.9619" y1="9.71719" x2="15.9619" y2="11.3483" gradientUnits="userSpaceOnUse">
<stop stop-color="#49393F"/>
<stop offset="1" stop-color="#45323F"/>
</linearGradient>
<radialGradient id="paint44_radial_18_3767" cx="0" cy="0" r="1" gradientUnits="userSpaceOnUse" gradientTransform="translate(17.1455 10.0553) rotate(180) scale(1.37347 0.616666)">
<stop stop-color="#635759"/>
<stop offset="1" stop-color="#635759" stop-opacity="0"/>
</radialGradient>
</defs>
</svg>
