<svg width="32" height="32" viewBox="0 0 32 32" fill="none" xmlns="http://www.w3.org/2000/svg">
<path d="M7.41724 16.9435C7.04468 16.5563 7.04468 15.9439 7.41724 15.5567L12.5295 10.2439C13.1536 9.59527 14.25 10.0371 14.25 10.9373L14.25 14.0001C14.25 14.1382 14.362 14.2501 14.5 14.2501L24.25 14.2501C24.8023 14.2501 25.25 14.6978 25.25 15.2501V17.2501C25.25 17.8024 24.8023 18.2501 24.25 18.2501L14.5 18.2501C14.362 18.2501 14.25 18.362 14.25 18.5001V21.5629C14.25 22.4631 13.1536 22.9049 12.5295 22.2562L7.41724 16.9435Z" fill="#212121"/>
<path d="M6 1C3.23858 1 1 3.23858 1 6V26C1 28.7614 3.23858 31 6 31H26C28.7614 31 31 28.7614 31 26V6C31 3.23858 28.7614 1 26 1H6ZM3 6C3 4.34315 4.34315 3 6 3H26C27.6569 3 29 4.34315 29 6V26C29 27.6569 27.6569 29 26 29H6C4.34315 29 3 27.6569 3 26V6Z" fill="#212121"/>
</svg>
