<svg xmlns="http://www.w3.org/2000/svg" width="32" height="32" fill="none"><path fill="#433B6B" d="M10.018 14h11.964C23.1 14 24 13.05 24 11.873V6.127C24 4.95 23.099 4 21.982 4H10.018C8.9 4 8 4.95 8 6.127v5.735C8 13.05 8.901 14 10.018 14Z"/><path fill="#635994" d="M26 9H6l-1 8 1 8h20l1-8-1-8Z"/><path fill="#1C1C1C" d="M23.01 20H9A1.99 1.99 0 0 0 7 21.98V25h18v-3.02c.01-1.095-.885-1.98-1.99-1.98Z"/><path fill="#433B6B" d="M21.4 30H10.61C9.724 30 9 29.304 9 28.451V20h14v8.451c0 .853-.714 1.549-1.6 1.549Z"/><path fill="#D3D3D3" d="M20.505 2h-9.01C10.673 2 10 2.588 10 3.307V9h12V3.307C22 2.588 21.327 2 20.505 2ZM4.367 9H6v16H4.367C3.063 25 2 24.003 2 22.78V11.22C2 9.987 3.063 9 4.367 9Zm23.266 0H26v16h1.633C28.937 25 30 24.003 30 22.78V11.22C30 9.987 28.948 9 27.633 9ZM11.495 28h9.01c.822 0 1.495-.623 1.495-1.397V20H10v6.593c0 .774.673 1.407 1.495 1.407Z"/><path fill="#9B9B9B" d="M28 17a1 1 0 1 0 0-2 1 1 0 0 0 0 2Zm-16 4a.5.5 0 0 0 0 1h8a.5.5 0 0 0 0-1h-8Zm-.5 2.5a.5.5 0 0 1 .5-.5h8a.5.5 0 0 1 0 1h-8a.5.5 0 0 1-.5-.5Zm0 2a.5.5 0 0 1 .5-.5h8a.5.5 0 0 1 0 1h-8a.5.5 0 0 1-.5-.5ZM29 19a1 1 0 1 1-2 0 1 1 0 0 1 2 0Z"/><path fill="#1C1C1C" d="M19 16h-5c-.555 0-1 .445-1 1 0 .555.445 1 1 1h5c.555 0 1-.445 1-1 0-.555-.445-1-1-1Z"/><path fill="#F70A8D" d="M28 23a1 1 0 1 0 0-2 1 1 0 0 0 0 2Z"/></svg>