<svg width="32" height="32" viewBox="0 0 32 32" fill="none" xmlns="http://www.w3.org/2000/svg">
<path d="M17.79 17.9581L16.606 18.7801C16.538 18.6823 16.4476 18.6022 16.3425 18.5462C16.2374 18.4903 16.1205 18.4601 16.0014 18.4582C15.8823 18.4564 15.7645 18.4829 15.6577 18.5355C15.5508 18.5882 15.4581 18.6655 15.387 18.7611L14.23 17.9611C14.1789 17.9274 14.1196 17.9081 14.0584 17.9051C13.9972 17.9022 13.9364 17.9157 13.8822 17.9443C13.8281 17.9729 13.7826 18.0156 13.7505 18.0678C13.7185 18.12 13.701 18.1798 13.7 18.2411V20.1711C13.7 20.2327 13.7169 20.2932 13.7487 20.346C13.7805 20.3988 13.8261 20.4419 13.8807 20.4707C13.9352 20.4995 13.9965 20.5129 14.0581 20.5094C14.1196 20.506 14.1791 20.4858 14.23 20.4511L15.385 19.6511C15.456 19.7474 15.5489 19.8254 15.6562 19.8786C15.7634 19.9317 15.8817 19.9585 16.0014 19.9566C16.1211 19.9548 16.2385 19.9244 16.3441 19.8679C16.4496 19.8114 16.5401 19.7306 16.608 19.6321L17.79 20.4471C17.841 20.4818 17.9004 20.502 17.962 20.5054C18.0235 20.5089 18.0849 20.4955 18.1394 20.4667C18.1939 20.4379 18.2395 20.3948 18.2713 20.342C18.3032 20.2892 18.32 20.2287 18.32 20.1671V18.2371C18.3188 18.1759 18.3013 18.1162 18.2691 18.0641C18.237 18.0121 18.1915 17.9696 18.1374 17.9411C18.0833 17.9126 18.0225 17.8991 17.9614 17.9021C17.9003 17.9051 17.8411 17.9244 17.79 17.9581Z" fill="#212121"/>
<path d="M16.51 22.7801C16.51 23.0562 16.2862 23.2801 16.01 23.2801C15.7339 23.2801 15.51 23.0562 15.51 22.7801C15.51 22.5039 15.7339 22.2801 16.01 22.2801C16.2862 22.2801 16.51 22.5039 16.51 22.7801Z" fill="#212121"/>
<path d="M16.01 26.4301C16.2862 26.4301 16.51 26.2062 16.51 25.9301C16.51 25.6539 16.2862 25.4301 16.01 25.4301C15.7339 25.4301 15.51 25.6539 15.51 25.9301C15.51 26.2062 15.7339 26.4301 16.01 26.4301Z" fill="#212121"/>
<path d="M21.22 9.11606V9.05399C21.2203 9.07467 21.2203 9.09537 21.22 9.11606Z" fill="#212121"/>
<path d="M12.45 8.94006C12.4094 8.95944 12.365 8.96968 12.32 8.97007C12.2705 8.9703 12.222 8.95689 12.1796 8.93131C12.1373 8.90573 12.1028 8.86897 12.08 8.82506C12.0599 8.79401 12.0466 8.75911 12.0407 8.7226C12.0349 8.68609 12.0368 8.64876 12.0462 8.61301C12.0556 8.57725 12.0723 8.54385 12.0954 8.51493C12.1184 8.48601 12.1472 8.46222 12.18 8.44506H12.189C12.7938 8.12716 13.4841 8.00984 14.16 8.11006C14.2316 8.12343 14.2949 8.16461 14.3361 8.2246C14.3774 8.28458 14.3931 8.35847 14.38 8.43007C14.3632 8.50247 14.3202 8.56607 14.2593 8.60857C14.1983 8.65106 14.1237 8.66941 14.05 8.66006C13.5005 8.58077 12.9399 8.67886 12.45 8.94006Z" fill="#212121"/>
<path d="M19.511 8.92106C19.0244 8.6705 18.4723 8.57588 17.93 8.65006C17.8937 8.65886 17.856 8.66016 17.8191 8.65389C17.7823 8.64761 17.7471 8.63389 17.7157 8.61357C17.6843 8.59324 17.6575 8.56673 17.6367 8.53566C17.6159 8.50459 17.6017 8.46962 17.5949 8.43286C17.5881 8.39611 17.5888 8.35836 17.5971 8.32191C17.6054 8.28546 17.621 8.25108 17.643 8.22087C17.665 8.19066 17.6929 8.16525 17.7251 8.1462C17.7572 8.12715 17.793 8.11485 17.83 8.11006C18.5065 8.01137 19.1967 8.13044 19.801 8.45006H19.81C19.8734 8.4874 19.9195 8.54829 19.9383 8.61947C19.957 8.69064 19.9468 8.76633 19.91 8.83006C19.8865 8.87303 19.8518 8.90877 19.8095 8.93344C19.7672 8.95811 19.719 8.97077 19.67 8.97006C19.6204 8.97091 19.5717 8.95699 19.53 8.93006L19.511 8.92106Z" fill="#212121"/>
<path d="M16.38 12.9701C16.4651 12.9712 16.5492 12.9521 16.6255 12.9143C16.7018 12.8766 16.7681 12.8212 16.8188 12.7529C16.8696 12.6846 16.9034 12.6052 16.9175 12.5213C16.9316 12.4373 16.9256 12.3512 16.9 12.2701L16.37 10.5701C16.3437 10.49 16.2928 10.4203 16.2245 10.3709C16.1563 10.3215 16.0742 10.295 15.99 10.295C15.9057 10.295 15.8236 10.3215 15.7554 10.3709C15.6872 10.4203 15.6363 10.49 15.61 10.5701L15.08 12.2701C15.0543 12.3512 15.0483 12.4373 15.0624 12.5213C15.0765 12.6052 15.1104 12.6846 15.1611 12.7529C15.2119 12.8212 15.2781 12.8766 15.3544 12.9143C15.4307 12.9521 15.5149 12.9712 15.6 12.9701H16.38Z" fill="#212121"/>
<path d="M15.99 13.9401C16.5072 13.9416 17.0176 13.8217 17.48 13.5901C17.5115 13.5744 17.5473 13.5695 17.5819 13.5759C17.6164 13.5824 17.648 13.6 17.6717 13.6259C17.6954 13.6519 17.71 13.6849 17.7133 13.7199C17.7166 13.755 17.7085 13.7901 17.69 13.8201C17.5076 14.1024 17.2574 14.3346 16.9622 14.4953C16.667 14.656 16.3362 14.7403 16 14.7403C15.6639 14.7403 15.3331 14.656 15.0379 14.4953C14.7427 14.3346 14.4924 14.1024 14.31 13.8201C14.2897 13.7903 14.28 13.7545 14.2826 13.7186C14.2851 13.6826 14.2997 13.6486 14.324 13.622C14.3483 13.5953 14.3809 13.5777 14.4165 13.5719C14.4521 13.5661 14.4885 13.5725 14.52 13.5901C14.9749 13.8228 15.4791 13.9428 15.99 13.9401Z" fill="#212121"/>
<path d="M12.1 10.5681C12.0838 10.6112 12.0701 10.6553 12.059 10.7001C12.0501 10.7428 12.051 10.787 12.0616 10.8294C12.0721 10.8717 12.092 10.9112 12.1199 10.9448C12.1477 10.9784 12.1828 11.0053 12.2224 11.0235C12.2621 11.0417 12.3054 11.0508 12.349 11.0501H12.787C12.7767 11.0083 12.7693 10.9659 12.765 10.9231C12.761 10.8899 12.759 10.8565 12.759 10.8231V10.8101C12.7589 10.5999 12.83 10.3959 12.9607 10.2312C13.0913 10.0665 13.2738 9.95091 13.4785 9.90316C13.6832 9.8554 13.898 9.87832 14.088 9.96818C14.278 10.058 14.432 10.2095 14.525 10.3981C14.5868 10.5224 14.6189 10.6593 14.619 10.7981C14.6167 10.8778 14.6053 10.9569 14.585 11.0341V11.0481H14.663C14.6983 11.0491 14.7335 11.0422 14.7658 11.0279C14.7982 11.0136 14.8269 10.9922 14.8499 10.9654C14.8729 10.9386 14.8896 10.9069 14.8988 10.8727C14.908 10.8386 14.9094 10.8028 14.903 10.7681C14.8548 10.5225 14.7438 10.2937 14.5808 10.1039C14.4179 9.91408 14.2084 9.76978 13.973 9.68506C13.7667 9.56411 13.5322 9.49961 13.293 9.49806C12.8728 9.49903 12.4622 9.62429 12.113 9.85806C12.0602 9.8963 12.0166 9.94578 11.9852 10.0029C11.9539 10.0601 11.9357 10.1235 11.9319 10.1886C11.928 10.2537 11.9387 10.3188 11.9631 10.3792C11.9875 10.4396 12.0251 10.4939 12.073 10.5381L12.1 10.5681Z" fill="#212121"/>
<path d="M13.483 10.3131C13.5483 10.2846 13.6187 10.2699 13.69 10.2701C13.8307 10.2711 13.9654 10.3277 14.0646 10.4275C14.1639 10.5273 14.2197 10.6623 14.22 10.8031C14.2215 10.8901 14.2008 10.9762 14.16 11.0531H13.22C13.1802 10.9758 13.1596 10.89 13.16 10.8031C13.16 10.711 13.1845 10.6206 13.231 10.5411C13.2465 10.5635 13.2673 10.5818 13.2915 10.5944C13.3158 10.6069 13.3427 10.6133 13.37 10.6131C13.4051 10.6138 13.4396 10.6036 13.4688 10.5839C13.4979 10.5642 13.5202 10.5359 13.5326 10.503C13.545 10.4701 13.5468 10.4342 13.538 10.4002C13.5291 10.3661 13.5099 10.3357 13.483 10.3131Z" fill="#212121"/>
<path d="M17.36 11.0501H17.438V11.0361C17.4164 10.9591 17.4037 10.8799 17.4 10.8001C17.4001 10.6613 17.4323 10.5244 17.494 10.4001C17.587 10.2115 17.741 10.06 17.931 9.97017C18.121 9.88031 18.3358 9.85739 18.5405 9.90515C18.7452 9.9529 18.9277 10.0685 19.0584 10.2332C19.189 10.3978 19.2601 10.6019 19.26 10.8121V10.8261C19.2601 10.8595 19.2581 10.8929 19.254 10.9261C19.2497 10.9689 19.2423 11.0113 19.232 11.0531H19.67C19.7132 11.0536 19.756 11.0443 19.7951 11.0259C19.8342 11.0074 19.8686 10.9802 19.8956 10.9465C19.9226 10.9127 19.9415 10.8733 19.951 10.8311C19.9604 10.7889 19.9601 10.7451 19.95 10.7031C19.939 10.6601 19.927 10.6191 19.912 10.5771L19.95 10.5431C19.998 10.4989 20.0355 10.4446 20.0599 10.3842C20.0843 10.3238 20.095 10.2586 20.0912 10.1936C20.0873 10.1285 20.0691 10.0651 20.0378 10.0079C20.0065 9.95077 19.9628 9.90129 19.91 9.86305C19.5608 9.62928 19.1503 9.50402 18.73 9.50305C18.5055 9.5049 18.2852 9.5641 18.09 9.67505C17.8451 9.75554 17.6261 9.89991 17.4556 10.0933C17.2851 10.2866 17.1692 10.522 17.12 10.7751C17.1144 10.8095 17.1165 10.8447 17.126 10.8782C17.1356 10.9117 17.1525 10.9427 17.1754 10.969C17.1983 10.9952 17.2267 11.0161 17.2586 11.0301C17.2906 11.0441 17.3252 11.0509 17.36 11.0501Z" fill="#212121"/>
<path d="M18.13 10.3101C18.1933 10.2835 18.2613 10.2699 18.33 10.2701C18.4702 10.2711 18.6044 10.3273 18.7036 10.4265C18.8028 10.5256 18.859 10.6598 18.86 10.8001C18.8603 10.887 18.8398 10.9728 18.8 11.0501H17.86C17.8191 10.9732 17.7985 10.8871 17.8 10.8001C17.8003 10.705 17.8262 10.6117 17.875 10.5301C17.8905 10.5545 17.9119 10.5747 17.9372 10.5887C17.9626 10.6026 17.9911 10.61 18.02 10.6101C18.0549 10.6102 18.089 10.5995 18.1176 10.5796C18.1462 10.5596 18.1681 10.5314 18.1801 10.4986C18.1921 10.4658 18.1937 10.4302 18.1848 10.3964C18.1758 10.3627 18.1567 10.3326 18.13 10.3101Z" fill="#212121"/>
<path d="M23.81 14.2801C23.8113 15.1644 23.4617 16.0132 22.838 16.6401C24.4298 17.7447 25.7301 19.2188 26.6273 20.9361C27.5246 22.6533 27.9922 24.5625 27.99 26.5001V30.0001C27.99 30.2653 27.8846 30.5196 27.6971 30.7072C27.5096 30.8947 27.2552 31.0001 26.99 31.0001H5C4.73479 31.0001 4.48043 30.8947 4.2929 30.7072C4.10536 30.5196 4 30.2653 4 30.0001V26.5001C3.99828 24.5627 4.4664 22.6538 5.36423 20.937C6.26206 19.2203 7.56282 17.7468 9.155 16.6431C8.84525 16.3325 8.59972 15.964 8.43242 15.5586C8.26513 15.1531 8.17936 14.7187 8.18001 14.2801C8.17861 13.7736 8.29501 13.2738 8.52001 12.8201C8.55458 12.7448 8.57249 12.6629 8.57249 12.5801C8.57249 12.4972 8.55458 12.4153 8.52001 12.3401C8.29507 11.8756 8.1788 11.3661 8.18001 10.8501C8.18008 10.1746 8.37826 9.51401 8.75 8.95006C9.11104 8.4045 9.30242 7.76425 9.3 7.11006V7.10006C9.30159 6.19085 9.66347 5.31934 10.3064 4.67644C10.9493 4.03353 11.8208 3.67165 12.73 3.67006C12.8236 3.67254 12.9163 3.65194 13 3.61008C13.0837 3.56823 13.1559 3.5064 13.21 3.43006C13.5282 2.98679 13.9475 2.62583 14.4332 2.37716C14.9189 2.12849 15.4569 1.99927 16.0026 2.00025C16.5482 2.00123 17.0858 2.13237 17.5706 2.38278C18.0553 2.6332 18.4734 2.99565 18.79 3.44006C18.8437 3.5145 18.9143 3.5751 18.996 3.61683C19.0777 3.65856 19.1682 3.68024 19.26 3.68006C19.7105 3.67993 20.1566 3.76856 20.5728 3.94089C20.989 4.11321 21.3671 4.36586 21.6857 4.68439C22.0042 5.00292 22.2569 5.38109 22.4292 5.7973C22.6015 6.21351 22.6901 6.65959 22.69 7.11006V7.12006C22.6905 7.77383 22.8816 8.41327 23.24 8.96006C23.5681 9.45515 23.7619 10.0271 23.8022 10.6196C23.8425 11.2122 23.728 11.8051 23.47 12.3401C23.4354 12.4153 23.4175 12.4972 23.4175 12.5801C23.4175 12.6629 23.4354 12.7448 23.47 12.8201C23.6961 13.2734 23.8125 13.7735 23.81 14.2801ZM13.25 21.7501C13.2518 24.3126 13.9695 26.8236 15.322 29.0001H16.68C18.0337 26.8021 18.7503 24.2714 18.75 21.6901V17.4441C17.8902 17.8503 16.951 18.0611 16 18.0611C15.049 18.0611 14.1098 17.8503 13.25 17.4441V21.7501ZM9.61 9.94506C9.57754 9.9973 9.54816 10.0514 9.52201 10.1071L9.517 10.1161C9.43101 10.353 9.39992 10.6063 9.42609 10.857C9.45226 11.1077 9.535 11.3492 9.66807 11.5632C9.80114 11.7773 9.98108 11.9583 10.1943 12.0927C10.4075 12.2271 10.6485 12.3113 10.899 12.3391C10.9173 12.5912 10.9531 12.8418 11.006 13.0891C11.018 13.1491 11.031 13.2091 11.045 13.2681C11.099 13.5021 11.1695 13.732 11.256 13.9561C11.3434 14.1717 11.446 14.3809 11.563 14.5821C11.575 14.6018 11.5872 14.6226 11.5996 14.6438C11.6161 14.672 11.6329 14.7007 11.65 14.7281C11.7673 14.9227 11.8987 15.1085 12.043 15.2841C12.259 15.5419 12.5013 15.7765 12.766 15.9841L12.782 15.9951C13.0198 16.1764 13.2739 16.3354 13.541 16.4701C13.653 16.5281 13.766 16.5841 13.882 16.6331C14.5594 16.9226 15.2891 17.0692 16.0257 17.0639C16.7623 17.0586 17.4899 16.9013 18.163 16.6021C18.1718 16.5982 18.1806 16.5943 18.1894 16.5905C18.2966 16.5434 18.4034 16.4965 18.506 16.4411C18.7364 16.3166 18.9561 16.1735 19.163 16.0131C19.284 15.9201 19.401 15.8201 19.512 15.7201C19.5228 15.7102 19.5339 15.7007 19.5451 15.6913C19.5587 15.6797 19.5723 15.6682 19.585 15.6561C19.7242 15.5207 19.8551 15.3771 19.977 15.2261C20.6393 14.4005 21.0261 13.388 21.083 12.3311C21.4749 12.2819 21.8366 12.0954 22.1041 11.8048C22.3715 11.5141 22.5272 11.1381 22.5436 10.7435C22.5601 10.3489 22.4361 9.96125 22.1938 9.64938C21.9515 9.33752 21.6064 9.12163 21.22 9.04006V9.05399C21.2183 8.92429 21.2063 8.7949 21.184 8.66706V8.63606C21.1632 8.53514 21.1331 8.43638 21.094 8.34106C21.09 8.33093 21.0867 8.31964 21.0833 8.30829C21.0789 8.29387 21.0746 8.27937 21.069 8.26706C21.0372 8.19966 20.9987 8.13567 20.954 8.07606C20.9467 8.06577 20.94 8.05438 20.9332 8.043C20.9243 8.02781 20.9153 8.01263 20.905 8.00006C20.8625 7.94875 20.8153 7.90155 20.764 7.85906C20.7565 7.85284 20.7493 7.84544 20.7421 7.838C20.7331 7.82868 20.724 7.81929 20.714 7.81206C20.5238 7.67291 20.2956 7.59543 20.06 7.59006H16.75C16.2141 7.58711 15.6844 7.47573 15.1927 7.26262C14.701 7.04952 14.2575 6.7391 13.889 6.35006C13.7396 6.19668 13.6028 6.03148 13.48 5.85606C13.4413 5.80337 13.3854 5.76587 13.322 5.75006H13.289C13.2426 5.74448 13.1954 5.75067 13.152 5.76806C13.1383 5.77252 13.125 5.77787 13.112 5.78406C13.0618 5.81251 13.0224 5.85683 13 5.91006L12.915 6.10306C12.889 6.16906 12.86 6.23406 12.828 6.29706C12.813 6.32606 12.803 6.34506 12.781 6.38406C12.759 6.42306 12.736 6.46106 12.712 6.49906C12.5997 6.66772 12.4652 6.82044 12.312 6.95306C12.276 6.98706 12.239 7.01706 12.2 7.04806C12.0444 7.17552 11.873 7.2824 11.69 7.36606C11.6563 7.38864 11.6192 7.40553 11.58 7.41606C11.5064 7.45447 11.4362 7.49896 11.37 7.54906C11.3608 7.55596 11.3509 7.56485 11.341 7.57382C11.3336 7.58045 11.3262 7.58711 11.319 7.59306C11.2513 7.65122 11.1887 7.71512 11.132 7.78406C11.108 7.81673 11.084 7.85006 11.06 7.88406C11.0031 7.97146 10.9548 8.06423 10.916 8.16106C10.9081 8.18068 10.8996 8.19901 10.8911 8.2173C10.8771 8.24749 10.8632 8.27756 10.852 8.31306C10.7923 8.50305 10.7613 8.7009 10.76 8.90006L10.771 9.03006H10.763C10.765 9.08906 10.769 9.15006 10.775 9.21406L10.669 9.06606C10.5828 9.09265 10.4989 9.12609 10.418 9.16606C10.3458 9.19448 10.2756 9.22789 10.208 9.26606C10.1173 9.32864 10.0335 9.40071 9.958 9.48106C9.90228 9.52666 9.84951 9.57576 9.8 9.62806C9.72523 9.72643 9.66151 9.83274 9.61 9.94506ZM11.69 17.5001C10.687 17.9727 9.76924 18.6084 8.974 19.3811L9.025 29.0011H14.374C11.15 26.4921 10.628 22.2911 10.55 20.9411C10.547 20.8863 10.5551 20.8316 10.5738 20.78C10.5925 20.7285 10.6213 20.6812 10.6587 20.6411C10.696 20.601 10.741 20.5688 10.7911 20.5464C10.8412 20.5241 10.8952 20.5121 10.95 20.5111H11.48C11.5086 20.5115 11.5369 20.5061 11.5633 20.4951C11.5896 20.484 11.6134 20.4677 11.6332 20.447C11.6529 20.4264 11.6681 20.4018 11.6779 20.375C11.6877 20.3481 11.6918 20.3196 11.69 20.2911C11.6868 20.0625 11.6877 19.715 11.6888 19.3048C11.6894 19.0743 11.69 18.8241 11.69 18.5641V17.5001ZM17.646 29.0001H22.99V19.3551C22.2095 18.5993 21.3111 17.9758 20.33 17.5091V18.5631C20.335 19.2901 20.336 19.9331 20.33 20.2901C20.3282 20.3186 20.3323 20.3471 20.3421 20.374C20.3519 20.4008 20.3671 20.4254 20.3869 20.446C20.4066 20.4667 20.4304 20.483 20.4567 20.4941C20.4831 20.5051 20.5114 20.5105 20.54 20.5101H21.07C21.1248 20.5111 21.1789 20.5231 21.2289 20.5454C21.279 20.5678 21.324 20.6 21.3613 20.6401C21.3987 20.6802 21.4275 20.7275 21.4462 20.779C21.4649 20.8306 21.473 20.8853 21.47 20.9401C21.392 22.2901 20.871 26.4911 17.646 29.0001Z" fill="#212121"/>
</svg>
