<svg width="32" height="32" viewBox="0 0 32 32" fill="none" xmlns="http://www.w3.org/2000/svg">
<path d="M4.43359 14.79L13.5636 10.12L11.6336 8C4.43359 8 4.43359 14.79 4.43359 14.79Z" fill="black"/>
<path d="M27.13 14.79L18 10.12L19.93 8C27.13 8 27.13 14.79 27.13 14.79Z" fill="black"/>
<path d="M27.1783 12.5111C26.6686 10.3712 24.8197 9 22.601 9H9.3691C7.16045 9 5.30158 10.3712 4.79189 12.5111C4.79189 12.5111 1.1541 24.1662 2.18347 27.7188C2.51327 28.8615 3.59261 29.5263 4.38213 29.8795C4.87183 30.0976 5.45149 30.0145 5.87123 29.6717C5.87123 29.6717 10.5033 25.7064 10.8731 25.4259C11.2429 25.1454 11.6926 25 12.1523 25C12.6121 25 13.9313 25 13.9313 25H19.8477C20.3074 25 20.7571 25.1558 21.1269 25.4259L26.1389 29.6717C26.5586 30.0145 27.2654 30.0389 27.628 29.8795C28.4075 29.5367 29.4868 28.8615 29.8266 27.7188C30.826 24.1662 27.1783 12.5111 27.1783 12.5111Z" fill="#533566"/>
<path d="M22.7135 13.59C23.2658 13.59 23.7135 13.1423 23.7135 12.59C23.7135 12.0377 23.2658 11.59 22.7135 11.59C22.1612 11.59 21.7135 12.0377 21.7135 12.59C21.7135 13.1423 22.1612 13.59 22.7135 13.59Z" fill="#FCD53F"/>
<path d="M22.7135 18.11C23.2658 18.11 23.7135 17.6623 23.7135 17.11C23.7135 16.5577 23.2658 16.11 22.7135 16.11C22.1612 16.11 21.7135 16.5577 21.7135 17.11C21.7135 17.6623 22.1612 18.11 22.7135 18.11Z" fill="#86D72F"/>
<path d="M20.4536 15.85C21.0059 15.85 21.4536 15.4023 21.4536 14.85C21.4536 14.2977 21.0059 13.85 20.4536 13.85C19.9013 13.85 19.4536 14.2977 19.4536 14.85C19.4536 15.4023 19.9013 15.85 20.4536 15.85Z" fill="#00A6ED"/>
<path d="M24.9735 15.85C25.5258 15.85 25.9735 15.4023 25.9735 14.85C25.9735 14.2977 25.5258 13.85 24.9735 13.85C24.4212 13.85 23.9735 14.2977 23.9735 14.85C23.9735 15.4023 24.4212 15.85 24.9735 15.85Z" fill="#F8312F"/>
<path d="M16.0036 13.47C16.7271 13.47 17.3136 12.8835 17.3136 12.16C17.3136 11.4365 16.7271 10.85 16.0036 10.85C15.2801 10.85 14.6936 11.4365 14.6936 12.16C14.6936 12.8835 15.2801 13.47 16.0036 13.47Z" fill="#D3D3D3"/>
<path d="M9.67356 17.04C10.861 17.04 11.8236 16.0774 11.8236 14.89C11.8236 13.7026 10.861 12.74 9.67356 12.74C8.48615 12.74 7.52356 13.7026 7.52356 14.89C7.52356 16.0774 8.48615 17.04 9.67356 17.04Z" fill="#A4AEEB"/>
<path d="M19.6736 22.86C20.861 22.86 21.8236 21.8974 21.8236 20.71C21.8236 19.5226 20.861 18.56 19.6736 18.56C18.4861 18.56 17.5236 19.5226 17.5236 20.71C17.5236 21.8974 18.4861 22.86 19.6736 22.86Z" fill="#A4AEEB"/>
<path d="M14.2936 20.06H14.6936C14.9736 20.06 15.2436 20.25 15.2736 20.53C15.3436 20.89 15.0636 21.21 14.7136 21.21H14.2836C13.9636 21.21 13.7036 21.47 13.7036 21.79V22.22C13.7036 22.57 13.3836 22.85 13.0236 22.78C12.7436 22.73 12.5536 22.46 12.5536 22.18V21.78C12.5536 21.46 12.2936 21.2 11.9736 21.2H11.5436C11.1936 21.2 10.9136 20.88 10.9836 20.52C11.0336 20.24 11.3036 20.05 11.5836 20.05H11.9836C12.3036 20.05 12.5636 19.79 12.5636 19.47V19.04C12.5636 18.69 12.8836 18.41 13.2436 18.48C13.5236 18.53 13.7136 18.8 13.7136 19.08V19.48C13.7136 19.8 13.9736 20.06 14.2936 20.06Z" fill="#A4AEEB"/>
</svg>
