<svg width="32" height="32" viewBox="0 0 32 32" fill="none" xmlns="http://www.w3.org/2000/svg">
<g filter="url(#filter0_i_4002_315)">
<path fill-rule="evenodd" clip-rule="evenodd" d="M18.2188 11.7353C18.7404 11.9887 18.9578 12.617 18.7043 13.1386C16.8722 16.9091 14.4686 18.0507 12.9837 17.7655C12.4143 17.6562 12.0413 17.1058 12.1506 16.5363C12.26 15.9669 12.8103 15.5939 13.3798 15.7032C13.3796 15.7032 13.3795 15.7032 13.3795 15.7032C13.3795 15.7031 13.406 15.7074 13.4617 15.7036C13.5192 15.6997 13.5997 15.6878 13.7012 15.6595C13.9041 15.603 14.1798 15.4846 14.5052 15.2556C15.1551 14.7983 15.9989 13.9014 16.8155 12.2208C17.0689 11.6992 17.6972 11.4818 18.2188 11.7353Z" fill="#EB9A29"/>
<path fill-rule="evenodd" clip-rule="evenodd" d="M18.2188 11.7353C18.7404 11.9887 18.9578 12.617 18.7043 13.1386C16.8722 16.9091 14.4686 18.0507 12.9837 17.7655C12.4143 17.6562 12.0413 17.1058 12.1506 16.5363C12.26 15.9669 12.8103 15.5939 13.3798 15.7032C13.3796 15.7032 13.3795 15.7032 13.3795 15.7032C13.3795 15.7031 13.406 15.7074 13.4617 15.7036C13.5192 15.6997 13.5997 15.6878 13.7012 15.6595C13.9041 15.603 14.1798 15.4846 14.5052 15.2556C15.1551 14.7983 15.9989 13.9014 16.8155 12.2208C17.0689 11.6992 17.6972 11.4818 18.2188 11.7353Z" fill="url(#paint0_radial_4002_315)"/>
<path fill-rule="evenodd" clip-rule="evenodd" d="M18.2188 11.7353C18.7404 11.9887 18.9578 12.617 18.7043 13.1386C16.8722 16.9091 14.4686 18.0507 12.9837 17.7655C12.4143 17.6562 12.0413 17.1058 12.1506 16.5363C12.26 15.9669 12.8103 15.5939 13.3798 15.7032C13.3796 15.7032 13.3795 15.7032 13.3795 15.7032C13.3795 15.7031 13.406 15.7074 13.4617 15.7036C13.5192 15.6997 13.5997 15.6878 13.7012 15.6595C13.9041 15.603 14.1798 15.4846 14.5052 15.2556C15.1551 14.7983 15.9989 13.9014 16.8155 12.2208C17.0689 11.6992 17.6972 11.4818 18.2188 11.7353Z" fill="url(#paint1_radial_4002_315)"/>
</g>
<path d="M12.4917 15.9762C12.6893 15.576 13.1016 15.3008 13.5781 15.3008C14.2469 15.3008 14.789 15.8429 14.789 16.5117C14.789 17.1805 14.2469 17.7227 13.5781 17.7227C13.1722 17.7227 12.813 17.523 12.5932 17.2165" stroke="#33241A" stroke-width="0.35"/>
<g filter="url(#filter1_f_4002_315)">
<path d="M12.4775 16.006C12.6691 15.5898 13.0899 15.3008 13.5782 15.3008C14.2469 15.3008 14.7891 15.8429 14.7891 16.5117C14.7891 17.1805 14.2469 17.7227 13.5782 17.7227C13.1731 17.7227 12.8145 17.5238 12.5946 17.2183" stroke="url(#paint2_linear_4002_315)" stroke-width="0.1"/>
</g>
<g filter="url(#filter2_i_4002_315)">
<path fill-rule="evenodd" clip-rule="evenodd" d="M12.6709 17.7688C12.8719 17.9149 12.9165 18.1964 12.7703 18.3974L4.9969 29.0927C4.85079 29.2937 4.56936 29.3383 4.36833 29.1922C4.16729 29.046 4.12277 28.7646 4.26888 28.5636L12.0423 17.8683C12.1884 17.6672 12.4699 17.6227 12.6709 17.7688Z" fill="url(#paint3_linear_4002_315)"/>
</g>
<path d="M7.08921 26.2139L4.9969 29.0927C4.85079 29.2937 4.56936 29.3382 4.36833 29.1921C4.16729 29.046 4.12277 28.7646 4.26888 28.5635L6.36089 25.6852L7.08921 26.2139Z" fill="url(#paint4_linear_4002_315)"/>
<path d="M7.08921 26.2139L4.9969 29.0927C4.85079 29.2937 4.56936 29.3382 4.36833 29.1921C4.16729 29.046 4.12277 28.7646 4.26888 28.5635L6.36089 25.6852L7.08921 26.2139Z" fill="url(#paint5_linear_4002_315)"/>
<g filter="url(#filter3_i_4002_315)">
<circle cx="4.45703" cy="29.0664" r="0.839844" fill="url(#paint6_radial_4002_315)"/>
<circle cx="4.45703" cy="29.0664" r="0.839844" fill="url(#paint7_radial_4002_315)"/>
<circle cx="4.45703" cy="29.0664" r="0.839844" fill="url(#paint8_radial_4002_315)"/>
</g>
<g filter="url(#filter4_i_4002_315)">
<path d="M13.0852 16.0013C13.1499 15.9118 13.2749 15.8917 13.3644 15.9564L14.1817 16.5468C14.2712 16.6115 14.2913 16.7365 14.2267 16.8261L12.7175 18.9149C12.6528 19.0045 12.5278 19.0246 12.4382 18.9599L11.621 18.3695C11.5314 18.3048 11.5113 18.1798 11.576 18.0902L13.0852 16.0013Z" fill="url(#paint9_linear_4002_315)"/>
<path d="M13.0852 16.0013C13.1499 15.9118 13.2749 15.8917 13.3644 15.9564L14.1817 16.5468C14.2712 16.6115 14.2913 16.7365 14.2267 16.8261L12.7175 18.9149C12.6528 19.0045 12.5278 19.0246 12.4382 18.9599L11.621 18.3695C11.5314 18.3048 11.5113 18.1798 11.576 18.0902L13.0852 16.0013Z" fill="url(#paint10_linear_4002_315)"/>
</g>
<path d="M17.3831 10.4883C17.6643 9.77584 18.1565 9.26438 18.3674 9.09772L18.3284 13.5665L16.5432 12.7305C16.8206 12.2071 17.0315 11.379 17.3831 10.4883Z" fill="url(#paint11_linear_4002_315)"/>
<g filter="url(#filter5_i_4002_315)">
<rect x="12.1316" y="15.6024" width="0.831665" height="1.66861" rx="0.415833" transform="rotate(-7.65743 12.1316 15.6024)" fill="#FFBD35"/>
</g>
<rect x="18.1843" y="6.69861" width="1.94553" height="3.44006" transform="rotate(-4.33696 18.1843 6.69861)" fill="url(#paint12_radial_4002_315)"/>
<rect x="18.1843" y="6.69861" width="1.94553" height="3.44006" transform="rotate(-4.33696 18.1843 6.69861)" fill="url(#paint13_radial_4002_315)"/>
<path d="M15.637 5.76868C15.7933 5.6218 15.874 5.40279 15.8948 5.31165H16.0746V6.43665C15.8597 6.57336 15.5525 6.55186 15.4612 6.3468C15.3831 6.17102 15.4417 5.95227 15.637 5.76868Z" fill="url(#paint14_radial_4002_315)"/>
<g filter="url(#filter6_i_4002_315)">
<path d="M15.861 4.80489C15.8995 4.0037 16.159 3.61752 16.2812 3.50458H20.0135L20.076 6.66817C19.2096 8.78995 16.5646 8.8809 16.1696 8.11349C15.7746 7.34607 15.8164 5.73247 15.861 4.80489Z" fill="url(#paint15_linear_4002_315)"/>
<path d="M15.861 4.80489C15.8995 4.0037 16.159 3.61752 16.2812 3.50458H20.0135L20.076 6.66817C19.2096 8.78995 16.5646 8.8809 16.1696 8.11349C15.7746 7.34607 15.8164 5.73247 15.861 4.80489Z" fill="url(#paint16_radial_4002_315)"/>
</g>
<g filter="url(#filter7_ii_4002_315)">
<path d="M16.5 4.05183C15.8438 4.05183 15.5312 3.68073 15.5 3.21589C15.5 2.55964 16.0011 2.42029 16.1953 2.39948C16.4141 2.37605 16.5 2.35261 16.8047 2.13777C17.1929 1.86402 17.5664 1.9698 17.7148 2.04011C17.8633 2.11042 18.1914 2.14558 18.4258 2.07527C18.8164 1.95808 19.1212 1.9619 19.4219 2.19245C19.6308 2.35261 19.7847 2.35261 20.0352 2.35261C20.3789 2.35261 20.6707 2.5065 20.8906 2.67292C21.5479 3.17032 21.4727 4.87995 21.1484 5.84089C20.8383 6.76023 20.3711 6.86824 19.9805 6.83308C19.5104 6.79077 19.3906 6.43464 19.3203 6.13777C19.2641 5.90027 19.1198 5.3461 19.0547 5.0987C18.9193 5.0362 18.6234 4.81433 18.5234 4.42683C18.4234 4.03933 18.031 3.99489 17.7656 4.02058C17.6042 4.0362 17.1562 4.05183 16.5 4.05183Z" fill="url(#paint17_radial_4002_315)"/>
</g>
<path d="M16.5 4.05183C15.8438 4.05183 15.5312 3.68073 15.5 3.21589C15.5 2.55964 16.0011 2.42029 16.1953 2.39948C16.4141 2.37605 16.5 2.35261 16.8047 2.13777C17.1929 1.86402 17.5664 1.9698 17.7148 2.04011C17.8633 2.11042 18.1914 2.14558 18.4258 2.07527C18.8164 1.95808 19.1212 1.9619 19.4219 2.19245C19.6308 2.35261 19.7847 2.35261 20.0352 2.35261C20.3789 2.35261 20.6707 2.5065 20.8906 2.67292C21.5479 3.17032 21.4727 4.87995 21.1484 5.84089C20.8383 6.76023 20.3711 6.86824 19.9805 6.83308C19.5104 6.79077 19.3906 6.43464 19.3203 6.13777C19.2641 5.90027 19.1198 5.3461 19.0547 5.0987C18.9193 5.0362 18.6234 4.81433 18.5234 4.42683C18.4234 4.03933 18.031 3.99489 17.7656 4.02058C17.6042 4.0362 17.1562 4.05183 16.5 4.05183Z" fill="url(#paint18_radial_4002_315)"/>
<path d="M18.6318 6.25914L18.8313 4.8197C19.1812 4.87203 19.4495 5.1738 19.4495 5.53824C19.4495 5.93951 19.1242 6.2648 18.7229 6.2648C18.6921 6.2648 18.6617 6.26288 18.6318 6.25914Z" fill="url(#paint19_radial_4002_315)"/>
<g filter="url(#filter8_iii_4002_315)">
<path d="M23.3365 19.9015L22.4459 16.1671H20.6646C20.6125 16.7817 20.5126 18.3827 20.3751 19.6827C20.2376 20.9827 20.8673 21.714 21.141 21.9952L25.5865 26.3077C25.3886 26.9692 24.9595 28.3327 24.8595 28.9327C24.7825 29.3945 25.0045 29.7008 25.2106 29.8851C25.3038 29.9685 25.4452 29.9493 25.5287 29.8562L28.2163 26.8607C28.3084 26.758 28.3 26.6002 28.1975 26.5079L27.2115 25.6202C26.1698 24.2557 24.0209 21.4265 23.7584 21.0265C23.577 20.7501 23.3678 20.1098 23.3365 19.9015Z" fill="url(#paint20_linear_4002_315)"/>
<path d="M23.3365 19.9015L22.4459 16.1671H20.6646C20.6125 16.7817 20.5126 18.3827 20.3751 19.6827C20.2376 20.9827 20.8673 21.714 21.141 21.9952L25.5865 26.3077C25.3886 26.9692 24.9595 28.3327 24.8595 28.9327C24.7825 29.3945 25.0045 29.7008 25.2106 29.8851C25.3038 29.9685 25.4452 29.9493 25.5287 29.8562L28.2163 26.8607C28.3084 26.758 28.3 26.6002 28.1975 26.5079L27.2115 25.6202C26.1698 24.2557 24.0209 21.4265 23.7584 21.0265C23.577 20.7501 23.3678 20.1098 23.3365 19.9015Z" fill="url(#paint21_radial_4002_315)"/>
<path d="M23.3365 19.9015L22.4459 16.1671H20.6646C20.6125 16.7817 20.5126 18.3827 20.3751 19.6827C20.2376 20.9827 20.8673 21.714 21.141 21.9952L25.5865 26.3077C25.3886 26.9692 24.9595 28.3327 24.8595 28.9327C24.7825 29.3945 25.0045 29.7008 25.2106 29.8851C25.3038 29.9685 25.4452 29.9493 25.5287 29.8562L28.2163 26.8607C28.3084 26.758 28.3 26.6002 28.1975 26.5079L27.2115 25.6202C26.1698 24.2557 24.0209 21.4265 23.7584 21.0265C23.577 20.7501 23.3678 20.1098 23.3365 19.9015Z" fill="url(#paint22_radial_4002_315)"/>
</g>
<g filter="url(#filter9_i_4002_315)">
<path d="M16.9846 18.5187C17.3677 17.4678 17.7007 16.49 17.758 16.1359L22.5002 16.1359C22.6002 17.5109 22.3561 17.848 21.7268 18.5577C21.0341 19.339 19.5549 20.9874 19.1877 21.4523C18.8377 21.8023 18.6877 22.2413 18.633 22.4327L16.3707 29.8628C16.3302 29.9959 16.1888 30.0703 16.0561 30.0284L12.3187 28.8456C12.1241 28.784 11.993 28.5803 12.0748 28.3934C12.1821 28.1486 12.4075 27.8941 12.9612 27.7374C13.6237 27.5499 14.9039 27.4536 15.4768 27.4015C15.6903 25.6359 16.1362 21.9702 16.2112 21.4327C16.3049 20.7609 16.4377 20.0187 16.9846 18.5187Z" fill="#8C8393"/>
<path d="M16.9846 18.5187C17.3677 17.4678 17.7007 16.49 17.758 16.1359L22.5002 16.1359C22.6002 17.5109 22.3561 17.848 21.7268 18.5577C21.0341 19.339 19.5549 20.9874 19.1877 21.4523C18.8377 21.8023 18.6877 22.2413 18.633 22.4327L16.3707 29.8628C16.3302 29.9959 16.1888 30.0703 16.0561 30.0284L12.3187 28.8456C12.1241 28.784 11.993 28.5803 12.0748 28.3934C12.1821 28.1486 12.4075 27.8941 12.9612 27.7374C13.6237 27.5499 14.9039 27.4536 15.4768 27.4015C15.6903 25.6359 16.1362 21.9702 16.2112 21.4327C16.3049 20.7609 16.4377 20.0187 16.9846 18.5187Z" fill="url(#paint23_radial_4002_315)"/>
<path d="M16.9846 18.5187C17.3677 17.4678 17.7007 16.49 17.758 16.1359L22.5002 16.1359C22.6002 17.5109 22.3561 17.848 21.7268 18.5577C21.0341 19.339 19.5549 20.9874 19.1877 21.4523C18.8377 21.8023 18.6877 22.2413 18.633 22.4327L16.3707 29.8628C16.3302 29.9959 16.1888 30.0703 16.0561 30.0284L12.3187 28.8456C12.1241 28.784 11.993 28.5803 12.0748 28.3934C12.1821 28.1486 12.4075 27.8941 12.9612 27.7374C13.6237 27.5499 14.9039 27.4536 15.4768 27.4015C15.6903 25.6359 16.1362 21.9702 16.2112 21.4327C16.3049 20.7609 16.4377 20.0187 16.9846 18.5187Z" fill="url(#paint24_radial_4002_315)"/>
<path d="M16.9846 18.5187C17.3677 17.4678 17.7007 16.49 17.758 16.1359L22.5002 16.1359C22.6002 17.5109 22.3561 17.848 21.7268 18.5577C21.0341 19.339 19.5549 20.9874 19.1877 21.4523C18.8377 21.8023 18.6877 22.2413 18.633 22.4327L16.3707 29.8628C16.3302 29.9959 16.1888 30.0703 16.0561 30.0284L12.3187 28.8456C12.1241 28.784 11.993 28.5803 12.0748 28.3934C12.1821 28.1486 12.4075 27.8941 12.9612 27.7374C13.6237 27.5499 14.9039 27.4536 15.4768 27.4015C15.6903 25.6359 16.1362 21.9702 16.2112 21.4327C16.3049 20.7609 16.4377 20.0187 16.9846 18.5187Z" fill="url(#paint25_linear_4002_315)"/>
<path d="M16.9846 18.5187C17.3677 17.4678 17.7007 16.49 17.758 16.1359L22.5002 16.1359C22.6002 17.5109 22.3561 17.848 21.7268 18.5577C21.0341 19.339 19.5549 20.9874 19.1877 21.4523C18.8377 21.8023 18.6877 22.2413 18.633 22.4327L16.3707 29.8628C16.3302 29.9959 16.1888 30.0703 16.0561 30.0284L12.3187 28.8456C12.1241 28.784 11.993 28.5803 12.0748 28.3934C12.1821 28.1486 12.4075 27.8941 12.9612 27.7374C13.6237 27.5499 14.9039 27.4536 15.4768 27.4015C15.6903 25.6359 16.1362 21.9702 16.2112 21.4327C16.3049 20.7609 16.4377 20.0187 16.9846 18.5187Z" fill="url(#paint26_radial_4002_315)"/>
<path d="M16.9846 18.5187C17.3677 17.4678 17.7007 16.49 17.758 16.1359L22.5002 16.1359C22.6002 17.5109 22.3561 17.848 21.7268 18.5577C21.0341 19.339 19.5549 20.9874 19.1877 21.4523C18.8377 21.8023 18.6877 22.2413 18.633 22.4327L16.3707 29.8628C16.3302 29.9959 16.1888 30.0703 16.0561 30.0284L12.3187 28.8456C12.1241 28.784 11.993 28.5803 12.0748 28.3934C12.1821 28.1486 12.4075 27.8941 12.9612 27.7374C13.6237 27.5499 14.9039 27.4536 15.4768 27.4015C15.6903 25.6359 16.1362 21.9702 16.2112 21.4327C16.3049 20.7609 16.4377 20.0187 16.9846 18.5187Z" fill="url(#paint27_radial_4002_315)"/>
</g>
<path d="M16.7621 28.5773L16.3707 29.8628C16.3302 29.996 16.1888 30.0704 16.0561 30.0284L12.3187 28.8456C12.1241 28.7841 11.993 28.5803 12.0748 28.3934C12.1821 28.1486 12.4075 27.8941 12.9612 27.7374C13.5518 27.5703 14.6335 27.4756 15.2672 27.4201C15.3442 27.4133 15.4147 27.4072 15.4768 27.4015L15.477 27.3999L16.7621 28.5773Z" fill="url(#paint28_radial_4002_315)"/>
<path d="M16.7621 28.5773L16.3707 29.8628C16.3302 29.996 16.1888 30.0704 16.0561 30.0284L12.3187 28.8456C12.1241 28.7841 11.993 28.5803 12.0748 28.3934C12.1821 28.1486 12.4075 27.8941 12.9612 27.7374C13.5518 27.5703 14.6335 27.4756 15.2672 27.4201C15.3442 27.4133 15.4147 27.4072 15.4768 27.4015L15.477 27.3999L16.7621 28.5773Z" fill="url(#paint29_radial_4002_315)"/>
<path d="M16.7621 28.5773L16.3707 29.8628C16.3302 29.996 16.1888 30.0704 16.0561 30.0284L12.3187 28.8456C12.1241 28.7841 11.993 28.5803 12.0748 28.3934C12.1821 28.1486 12.4075 27.8941 12.9612 27.7374C13.5518 27.5703 14.6335 27.4756 15.2672 27.4201C15.3442 27.4133 15.4147 27.4072 15.4768 27.4015L15.477 27.3999L16.7621 28.5773Z" fill="url(#paint30_radial_4002_315)"/>
<path d="M16.7621 28.5773L16.3707 29.8628C16.3302 29.996 16.1888 30.0704 16.0561 30.0284L12.3187 28.8456C12.1241 28.7841 11.993 28.5803 12.0748 28.3934C12.1821 28.1486 12.4075 27.8941 12.9612 27.7374C13.5518 27.5703 14.6335 27.4756 15.2672 27.4201C15.3442 27.4133 15.4147 27.4072 15.4768 27.4015L15.477 27.3999L16.7621 28.5773Z" fill="url(#paint31_linear_4002_315)"/>
<path d="M16.7621 28.5773L16.3707 29.8628C16.3302 29.996 16.1888 30.0704 16.0561 30.0284L12.3187 28.8456C12.1241 28.7841 11.993 28.5803 12.0748 28.3934C12.1821 28.1486 12.4075 27.8941 12.9612 27.7374C13.5518 27.5703 14.6335 27.4756 15.2672 27.4201C15.3442 27.4133 15.4147 27.4072 15.4768 27.4015L15.477 27.3999L16.7621 28.5773Z" fill="url(#paint32_linear_4002_315)"/>
<path d="M27.2032 25.6093L25.5653 26.287L25.5866 26.3078C25.5558 26.4108 25.5194 26.5308 25.4795 26.6624C25.263 27.3754 24.9439 28.4262 24.8596 28.9328C24.7827 29.3945 25.0046 29.7008 25.2107 29.8851C25.3039 29.9685 25.4453 29.9493 25.5288 29.8562L28.2164 26.8607C28.3084 26.7581 28.3 26.6002 28.1976 26.508L27.2116 25.6203C27.2088 25.6166 27.206 25.6129 27.2032 25.6093Z" fill="#45437A"/>
<path d="M27.2032 25.6093L25.5653 26.287L25.5866 26.3078C25.5558 26.4108 25.5194 26.5308 25.4795 26.6624C25.263 27.3754 24.9439 28.4262 24.8596 28.9328C24.7827 29.3945 25.0046 29.7008 25.2107 29.8851C25.3039 29.9685 25.4453 29.9493 25.5288 29.8562L28.2164 26.8607C28.3084 26.7581 28.3 26.6002 28.1976 26.508L27.2116 25.6203C27.2088 25.6166 27.206 25.6129 27.2032 25.6093Z" fill="url(#paint33_linear_4002_315)"/>
<path d="M27.2032 25.6093L25.5653 26.287L25.5866 26.3078C25.5558 26.4108 25.5194 26.5308 25.4795 26.6624C25.263 27.3754 24.9439 28.4262 24.8596 28.9328C24.7827 29.3945 25.0046 29.7008 25.2107 29.8851C25.3039 29.9685 25.4453 29.9493 25.5288 29.8562L28.2164 26.8607C28.3084 26.7581 28.3 26.6002 28.1976 26.508L27.2116 25.6203C27.2088 25.6166 27.206 25.6129 27.2032 25.6093Z" fill="url(#paint34_linear_4002_315)"/>
<path d="M27.2032 25.6093L25.5653 26.287L25.5866 26.3078C25.5558 26.4108 25.5194 26.5308 25.4795 26.6624C25.263 27.3754 24.9439 28.4262 24.8596 28.9328C24.7827 29.3945 25.0046 29.7008 25.2107 29.8851C25.3039 29.9685 25.4453 29.9493 25.5288 29.8562L28.2164 26.8607C28.3084 26.7581 28.3 26.6002 28.1976 26.508L27.2116 25.6203C27.2088 25.6166 27.206 25.6129 27.2032 25.6093Z" fill="url(#paint35_radial_4002_315)"/>
<path d="M19.6918 8.55383C20.5824 8.55383 20.8285 8.76868 21.1253 8.96008L22.1488 11.5577C22.4488 12.9577 22.5134 15.1932 22.5082 16.1359H17.7617C17.5039 15.4796 17.0651 13.4609 17.2268 11.5577C17.3908 9.62805 18.4339 8.6554 19.6918 8.55383Z" fill="#397EC9"/>
<path d="M19.6918 8.55383C20.5824 8.55383 20.8285 8.76868 21.1253 8.96008L22.1488 11.5577C22.4488 12.9577 22.5134 15.1932 22.5082 16.1359H17.7617C17.5039 15.4796 17.0651 13.4609 17.2268 11.5577C17.3908 9.62805 18.4339 8.6554 19.6918 8.55383Z" fill="url(#paint36_radial_4002_315)"/>
<path d="M19.6918 8.55383C20.5824 8.55383 20.8285 8.76868 21.1253 8.96008L22.1488 11.5577C22.4488 12.9577 22.5134 15.1932 22.5082 16.1359H17.7617C17.5039 15.4796 17.0651 13.4609 17.2268 11.5577C17.3908 9.62805 18.4339 8.6554 19.6918 8.55383Z" fill="url(#paint37_radial_4002_315)"/>
<path d="M19.6918 8.55383C20.5824 8.55383 20.8285 8.76868 21.1253 8.96008L22.1488 11.5577C22.4488 12.9577 22.5134 15.1932 22.5082 16.1359H17.7617C17.5039 15.4796 17.0651 13.4609 17.2268 11.5577C17.3908 9.62805 18.4339 8.6554 19.6918 8.55383Z" fill="url(#paint38_radial_4002_315)"/>
<path d="M19.6918 8.55383C20.5824 8.55383 20.8285 8.76868 21.1253 8.96008L22.1488 11.5577C22.4488 12.9577 22.5134 15.1932 22.5082 16.1359H17.7617C17.5039 15.4796 17.0651 13.4609 17.2268 11.5577C17.3908 9.62805 18.4339 8.6554 19.6918 8.55383Z" fill="url(#paint39_radial_4002_315)"/>
<path d="M19.6918 8.55383C20.5824 8.55383 20.8285 8.76868 21.1253 8.96008L22.1488 11.5577C22.4488 12.9577 22.5134 15.1932 22.5082 16.1359H17.7617C17.5039 15.4796 17.0651 13.4609 17.2268 11.5577C17.3908 9.62805 18.4339 8.6554 19.6918 8.55383Z" fill="url(#paint40_radial_4002_315)"/>
<path d="M19.6918 8.55383C20.5824 8.55383 20.8285 8.76868 21.1253 8.96008L22.1488 11.5577C22.4488 12.9577 22.5134 15.1932 22.5082 16.1359H17.7617C17.5039 15.4796 17.0651 13.4609 17.2268 11.5577C17.3908 9.62805 18.4339 8.6554 19.6918 8.55383Z" fill="url(#paint41_linear_4002_315)"/>
<circle cx="25.0979" cy="17.9835" r="0.550781" fill="url(#paint42_radial_4002_315)"/>
<g filter="url(#filter10_f_4002_315)">
<path d="M19.6407 11.2315C19.3304 10.9831 19.1785 10.5933 19.1785 10.1649C19.1785 9.41625 19.3634 9.005 20.1121 9.005C20.4492 9.005 20.7576 9.12807 20.9948 9.33173C21.9454 10.0232 22.7839 10.923 23.2644 11.4659L21.2253 13.38C20.9376 12.9971 20.1564 11.9346 19.6407 11.2315Z" fill="#1049AC"/>
</g>
<g filter="url(#filter11_ii_4002_315)">
<path fill-rule="evenodd" clip-rule="evenodd" d="M26.0044 19.1796C25.679 19.2876 25.3299 19.1001 25.2284 18.7726C24.0135 14.851 22.0627 12.4826 20.6871 11.2276C20.2492 10.8282 20.1712 10.1455 20.5588 9.69715C20.9051 9.2964 21.5032 9.22549 21.907 9.56827C23.533 10.9486 25.8176 13.5436 27.2233 18.1729C27.3163 18.4791 27.1444 18.801 26.8407 18.9019L26.0044 19.1796Z" fill="#FFBF35"/>
</g>
<g filter="url(#filter12_i_4002_315)">
<path d="M19.5563 11.1596C19.246 10.9112 19.0471 10.5291 19.0471 10.1007C19.0471 9.3521 19.6539 8.74524 20.4026 8.74524C20.7397 8.74524 21.0481 8.86831 21.2853 9.07197C22.2359 9.76348 23.0745 10.6632 23.5549 11.2062L21.5159 13.1202C21.2081 12.8004 20.1339 11.7277 19.5563 11.1596Z" fill="url(#paint43_linear_4002_315)"/>
<path d="M19.5563 11.1596C19.246 10.9112 19.0471 10.5291 19.0471 10.1007C19.0471 9.3521 19.6539 8.74524 20.4026 8.74524C20.7397 8.74524 21.0481 8.86831 21.2853 9.07197C22.2359 9.76348 23.0745 10.6632 23.5549 11.2062L21.5159 13.1202C21.2081 12.8004 20.1339 11.7277 19.5563 11.1596Z" fill="url(#paint44_radial_4002_315)"/>
<path d="M19.5563 11.1596C19.246 10.9112 19.0471 10.5291 19.0471 10.1007C19.0471 9.3521 19.6539 8.74524 20.4026 8.74524C20.7397 8.74524 21.0481 8.86831 21.2853 9.07197C22.2359 9.76348 23.0745 10.6632 23.5549 11.2062L21.5159 13.1202C21.2081 12.8004 20.1339 11.7277 19.5563 11.1596Z" fill="url(#paint45_radial_4002_315)"/>
</g>
<path d="M19.5563 11.1596C19.246 10.9112 19.0471 10.5291 19.0471 10.1007C19.0471 9.3521 19.6539 8.74524 20.4026 8.74524C20.7397 8.74524 21.0481 8.86831 21.2853 9.07197C22.2359 9.76348 23.0745 10.6632 23.5549 11.2062L21.5159 13.1202C21.2081 12.8004 20.1339 11.7277 19.5563 11.1596Z" fill="url(#paint46_radial_4002_315)"/>
<path fill-rule="evenodd" clip-rule="evenodd" d="M17.1129 6.71238C17.1613 6.76166 17.1605 6.8408 17.1112 6.88915C16.8731 7.12279 16.5288 7.18257 16.4193 7.19381C16.3506 7.20085 16.2892 7.15089 16.2822 7.08221C16.2751 7.01354 16.3251 6.95215 16.3938 6.94511C16.4874 6.93551 16.7602 6.88332 16.9361 6.7107C16.9854 6.66235 17.0646 6.66311 17.1129 6.71238Z" fill="#87014D"/>
<path d="M16.3674 5.59875H17.3557C17.3557 5.20719 17.1345 4.88977 16.8616 4.88977C16.5887 4.88977 16.3674 5.20719 16.3674 5.59875Z" fill="white"/>
<path d="M16.9729 5.59875L16.9729 5.59485C16.9729 5.27448 16.8356 5.01477 16.6663 5.01477C16.4969 5.01477 16.3596 5.27448 16.3596 5.59485L16.3596 5.59875H16.9729Z" fill="url(#paint47_radial_4002_315)"/>
<path d="M16.7774 5.59875C16.7801 5.57548 16.7815 5.5513 16.7815 5.52649C16.7815 5.34096 16.7028 5.19055 16.6057 5.19055C16.5086 5.19055 16.4299 5.34096 16.4299 5.52649C16.4299 5.5513 16.4313 5.57548 16.434 5.59875H16.7774Z" fill="url(#paint48_radial_4002_315)"/>
<ellipse cx="16.5413" cy="5.24719" rx="0.0644531" ry="0.0878906" transform="rotate(24.6101 16.5413 5.24719)" fill="url(#paint49_linear_4002_315)"/>
<g filter="url(#filter13_f_4002_315)">
<path d="M17.3674 21.1359L16.0237 27.6359L16.3831 27.9484L17.8518 21.4171L20.8674 17.5421L20.1643 17.0577L17.3674 21.1359Z" fill="url(#paint50_linear_4002_315)"/>
</g>
<g filter="url(#filter14_f_4002_315)">
<path d="M23.1957 21.0834L26.6719 25.5114L26.1579 25.7104L22.6734 22.0023C22.2831 21.587 22.0193 21.0691 21.9126 20.5092L21.7222 19.5094L22.4739 18.7357L23.0175 20.729C23.0526 20.8579 23.1132 20.9784 23.1957 21.0834Z" fill="url(#paint51_linear_4002_315)"/>
</g>
<g filter="url(#filter15_i_4002_315)">
<path d="M16.6365 4.43073C16.7656 4.43073 17.0466 4.43073 17.2537 4.57916" stroke="#BC5F4E" stroke-width="0.4" stroke-linecap="round"/>
</g>
<defs>
<filter id="filter0_i_4002_315" x="11.6316" y="10.8795" width="7.17856" height="6.92767" filterUnits="userSpaceOnUse" color-interpolation-filters="sRGB">
<feFlood flood-opacity="0" result="BackgroundImageFix"/>
<feBlend mode="normal" in="SourceGraphic" in2="BackgroundImageFix" result="shape"/>
<feColorMatrix in="SourceAlpha" type="matrix" values="0 0 0 0 0 0 0 0 0 0 0 0 0 0 0 0 0 0 127 0" result="hardAlpha"/>
<feOffset dx="-0.5" dy="-0.75"/>
<feGaussianBlur stdDeviation="0.5"/>
<feComposite in2="hardAlpha" operator="arithmetic" k2="-1" k3="1"/>
<feColorMatrix type="matrix" values="0 0 0 0 0.760784 0 0 0 0 0.447059 0 0 0 0 0.180392 0 0 0 1 0"/>
<feBlend mode="normal" in2="shape" result="effect1_innerShadow_4002_315"/>
</filter>
<filter id="filter1_f_4002_315" x="12.3321" y="15.1508" width="2.60698" height="2.72185" filterUnits="userSpaceOnUse" color-interpolation-filters="sRGB">
<feFlood flood-opacity="0" result="BackgroundImageFix"/>
<feBlend mode="normal" in="SourceGraphic" in2="BackgroundImageFix" result="shape"/>
<feGaussianBlur stdDeviation="0.05" result="effect1_foregroundBlur_4002_315"/>
</filter>
<filter id="filter2_i_4002_315" x="4.18286" y="17.4828" width="8.67351" height="11.7954" filterUnits="userSpaceOnUse" color-interpolation-filters="sRGB">
<feFlood flood-opacity="0" result="BackgroundImageFix"/>
<feBlend mode="normal" in="SourceGraphic" in2="BackgroundImageFix" result="shape"/>
<feColorMatrix in="SourceAlpha" type="matrix" values="0 0 0 0 0 0 0 0 0 0 0 0 0 0 0 0 0 0 127 0" result="hardAlpha"/>
<feOffset dy="-0.2"/>
<feGaussianBlur stdDeviation="0.2"/>
<feComposite in2="hardAlpha" operator="arithmetic" k2="-1" k3="1"/>
<feColorMatrix type="matrix" values="0 0 0 0 0.741176 0 0 0 0 0.647059 0 0 0 0 0.811765 0 0 0 1 0"/>
<feBlend mode="normal" in2="shape" result="effect1_innerShadow_4002_315"/>
</filter>
<filter id="filter3_i_4002_315" x="3.61719" y="28.2266" width="1.67969" height="1.67969" filterUnits="userSpaceOnUse" color-interpolation-filters="sRGB">
<feFlood flood-opacity="0" result="BackgroundImageFix"/>
<feBlend mode="normal" in="SourceGraphic" in2="BackgroundImageFix" result="shape"/>
<feColorMatrix in="SourceAlpha" type="matrix" values="0 0 0 0 0 0 0 0 0 0 0 0 0 0 0 0 0 0 127 0" result="hardAlpha"/>
<feOffset/>
<feGaussianBlur stdDeviation="0.1"/>
<feComposite in2="hardAlpha" operator="arithmetic" k2="-1" k3="1"/>
<feColorMatrix type="matrix" values="0 0 0 0 0.835294 0 0 0 0 0.819608 0 0 0 0 0.835294 0 0 0 1 0"/>
<feBlend mode="normal" in2="shape" result="effect1_innerShadow_4002_315"/>
</filter>
<filter id="filter4_i_4002_315" x="11.5381" y="15.9185" width="2.72647" height="3.07935" filterUnits="userSpaceOnUse" color-interpolation-filters="sRGB">
<feFlood flood-opacity="0" result="BackgroundImageFix"/>
<feBlend mode="normal" in="SourceGraphic" in2="BackgroundImageFix" result="shape"/>
<feColorMatrix in="SourceAlpha" type="matrix" values="0 0 0 0 0 0 0 0 0 0 0 0 0 0 0 0 0 0 127 0" result="hardAlpha"/>
<feOffset/>
<feGaussianBlur stdDeviation="0.25"/>
<feComposite in2="hardAlpha" operator="arithmetic" k2="-1" k3="1"/>
<feColorMatrix type="matrix" values="0 0 0 0 0.211765 0 0 0 0 0.133333 0 0 0 0 0.27451 0 0 0 1 0"/>
<feBlend mode="normal" in2="shape" result="effect1_innerShadow_4002_315"/>
</filter>
<filter id="filter5_i_4002_315" x="12.0332" y="15.5433" width="1.09328" height="1.66119" filterUnits="userSpaceOnUse" color-interpolation-filters="sRGB">
<feFlood flood-opacity="0" result="BackgroundImageFix"/>
<feBlend mode="normal" in="SourceGraphic" in2="BackgroundImageFix" result="shape"/>
<feColorMatrix in="SourceAlpha" type="matrix" values="0 0 0 0 0 0 0 0 0 0 0 0 0 0 0 0 0 0 127 0" result="hardAlpha"/>
<feOffset dx="-0.15"/>
<feGaussianBlur stdDeviation="0.25"/>
<feComposite in2="hardAlpha" operator="arithmetic" k2="-1" k3="1"/>
<feColorMatrix type="matrix" values="0 0 0 0 0.933333 0 0 0 0 0.678431 0 0 0 0 0.105882 0 0 0 1 0"/>
<feBlend mode="normal" in2="shape" result="effect1_innerShadow_4002_315"/>
</filter>
<filter id="filter6_i_4002_315" x="15.6333" y="3.30458" width="4.4428" height="5.24926" filterUnits="userSpaceOnUse" color-interpolation-filters="sRGB">
<feFlood flood-opacity="0" result="BackgroundImageFix"/>
<feBlend mode="normal" in="SourceGraphic" in2="BackgroundImageFix" result="shape"/>
<feColorMatrix in="SourceAlpha" type="matrix" values="0 0 0 0 0 0 0 0 0 0 0 0 0 0 0 0 0 0 127 0" result="hardAlpha"/>
<feOffset dx="-0.2" dy="-0.2"/>
<feGaussianBlur stdDeviation="0.5"/>
<feComposite in2="hardAlpha" operator="arithmetic" k2="-1" k3="1"/>
<feColorMatrix type="matrix" values="0 0 0 0 0.780392 0 0 0 0 0.576471 0 0 0 0 0.2 0 0 0 1 0"/>
<feBlend mode="normal" in2="shape" result="effect1_innerShadow_4002_315"/>
</filter>
<filter id="filter7_ii_4002_315" x="15.2" y="1.6599" width="6.39082" height="5.47878" filterUnits="userSpaceOnUse" color-interpolation-filters="sRGB">
<feFlood flood-opacity="0" result="BackgroundImageFix"/>
<feBlend mode="normal" in="SourceGraphic" in2="BackgroundImageFix" result="shape"/>
<feColorMatrix in="SourceAlpha" type="matrix" values="0 0 0 0 0 0 0 0 0 0 0 0 0 0 0 0 0 0 127 0" result="hardAlpha"/>
<feOffset dx="-0.3" dy="0.3"/>
<feGaussianBlur stdDeviation="0.3"/>
<feComposite in2="hardAlpha" operator="arithmetic" k2="-1" k3="1"/>
<feColorMatrix type="matrix" values="0 0 0 0 1 0 0 0 0 0.835294 0 0 0 0 0.211765 0 0 0 1 0"/>
<feBlend mode="normal" in2="shape" result="effect1_innerShadow_4002_315"/>
<feColorMatrix in="SourceAlpha" type="matrix" values="0 0 0 0 0 0 0 0 0 0 0 0 0 0 0 0 0 0 127 0" result="hardAlpha"/>
<feOffset dx="0.2" dy="-0.3"/>
<feGaussianBlur stdDeviation="0.375"/>
<feComposite in2="hardAlpha" operator="arithmetic" k2="-1" k3="1"/>
<feColorMatrix type="matrix" values="0 0 0 0 0.976471 0 0 0 0 0.592157 0 0 0 0 0.109804 0 0 0 1 0"/>
<feBlend mode="normal" in2="effect1_innerShadow_4002_315" result="effect2_innerShadow_4002_315"/>
</filter>
<filter id="filter8_iii_4002_315" x="20.3557" y="15.4171" width="8.67448" height="14.7709" filterUnits="userSpaceOnUse" color-interpolation-filters="sRGB">
<feFlood flood-opacity="0" result="BackgroundImageFix"/>
<feBlend mode="normal" in="SourceGraphic" in2="BackgroundImageFix" result="shape"/>
<feColorMatrix in="SourceAlpha" type="matrix" values="0 0 0 0 0 0 0 0 0 0 0 0 0 0 0 0 0 0 127 0" result="hardAlpha"/>
<feOffset dx="0.75" dy="-0.75"/>
<feGaussianBlur stdDeviation="0.5"/>
<feComposite in2="hardAlpha" operator="arithmetic" k2="-1" k3="1"/>
<feColorMatrix type="matrix" values="0 0 0 0 0.439216 0 0 0 0 0.388235 0 0 0 0 0.486275 0 0 0 1 0"/>
<feBlend mode="normal" in2="shape" result="effect1_innerShadow_4002_315"/>
<feColorMatrix in="SourceAlpha" type="matrix" values="0 0 0 0 0 0 0 0 0 0 0 0 0 0 0 0 0 0 127 0" result="hardAlpha"/>
<feOffset dy="-0.5"/>
<feGaussianBlur stdDeviation="0.375"/>
<feComposite in2="hardAlpha" operator="arithmetic" k2="-1" k3="1"/>
<feColorMatrix type="matrix" values="0 0 0 0 0.537255 0 0 0 0 0.423529 0 0 0 0 0.635294 0 0 0 1 0"/>
<feBlend mode="normal" in2="effect1_innerShadow_4002_315" result="effect2_innerShadow_4002_315"/>
<feColorMatrix in="SourceAlpha" type="matrix" values="0 0 0 0 0 0 0 0 0 0 0 0 0 0 0 0 0 0 127 0" result="hardAlpha"/>
<feOffset dx="0.25" dy="0.25"/>
<feGaussianBlur stdDeviation="0.375"/>
<feComposite in2="hardAlpha" operator="arithmetic" k2="-1" k3="1"/>
<feColorMatrix type="matrix" values="0 0 0 0 0.529412 0 0 0 0 0.490196 0 0 0 0 0.537255 0 0 0 1 0"/>
<feBlend mode="normal" in2="effect2_innerShadow_4002_315" result="effect3_innerShadow_4002_315"/>
</filter>
<filter id="filter9_i_4002_315" x="12.05" y="15.9359" width="10.9719" height="14.1042" filterUnits="userSpaceOnUse" color-interpolation-filters="sRGB">
<feFlood flood-opacity="0" result="BackgroundImageFix"/>
<feBlend mode="normal" in="SourceGraphic" in2="BackgroundImageFix" result="shape"/>
<feColorMatrix in="SourceAlpha" type="matrix" values="0 0 0 0 0 0 0 0 0 0 0 0 0 0 0 0 0 0 127 0" result="hardAlpha"/>
<feOffset dx="0.5" dy="-0.2"/>
<feGaussianBlur stdDeviation="0.25"/>
<feComposite in2="hardAlpha" operator="arithmetic" k2="-1" k3="1"/>
<feColorMatrix type="matrix" values="0 0 0 0 0.619608 0 0 0 0 0.592157 0 0 0 0 0.611765 0 0 0 1 0"/>
<feBlend mode="normal" in2="shape" result="effect1_innerShadow_4002_315"/>
</filter>
<filter id="filter10_f_4002_315" x="18.4285" y="8.255" width="5.58594" height="5.875" filterUnits="userSpaceOnUse" color-interpolation-filters="sRGB">
<feFlood flood-opacity="0" result="BackgroundImageFix"/>
<feBlend mode="normal" in="SourceGraphic" in2="BackgroundImageFix" result="shape"/>
<feGaussianBlur stdDeviation="0.375" result="effect1_foregroundBlur_4002_315"/>
</filter>
<filter id="filter11_ii_4002_315" x="19.9086" y="9.09888" width="7.58994" height="10.5113" filterUnits="userSpaceOnUse" color-interpolation-filters="sRGB">
<feFlood flood-opacity="0" result="BackgroundImageFix"/>
<feBlend mode="normal" in="SourceGraphic" in2="BackgroundImageFix" result="shape"/>
<feColorMatrix in="SourceAlpha" type="matrix" values="0 0 0 0 0 0 0 0 0 0 0 0 0 0 0 0 0 0 127 0" result="hardAlpha"/>
<feOffset dx="0.25" dy="-0.25"/>
<feGaussianBlur stdDeviation="0.4"/>
<feComposite in2="hardAlpha" operator="arithmetic" k2="-1" k3="1"/>
<feColorMatrix type="matrix" values="0 0 0 0 0.901961 0 0 0 0 0.623529 0 0 0 0 0.188235 0 0 0 1 0"/>
<feBlend mode="normal" in2="shape" result="effect1_innerShadow_4002_315"/>
<feColorMatrix in="SourceAlpha" type="matrix" values="0 0 0 0 0 0 0 0 0 0 0 0 0 0 0 0 0 0 127 0" result="hardAlpha"/>
<feOffset dx="-0.4" dy="0.4"/>
<feGaussianBlur stdDeviation="0.4"/>
<feComposite in2="hardAlpha" operator="arithmetic" k2="-1" k3="1"/>
<feColorMatrix type="matrix" values="0 0 0 0 1 0 0 0 0 0.835294 0 0 0 0 0.25098 0 0 0 1 0"/>
<feBlend mode="normal" in2="effect1_innerShadow_4002_315" result="effect2_innerShadow_4002_315"/>
</filter>
<filter id="filter12_i_4002_315" x="19.0471" y="8.59524" width="4.75781" height="4.525" filterUnits="userSpaceOnUse" color-interpolation-filters="sRGB">
<feFlood flood-opacity="0" result="BackgroundImageFix"/>
<feBlend mode="normal" in="SourceGraphic" in2="BackgroundImageFix" result="shape"/>
<feColorMatrix in="SourceAlpha" type="matrix" values="0 0 0 0 0 0 0 0 0 0 0 0 0 0 0 0 0 0 127 0" result="hardAlpha"/>
<feOffset dx="0.25" dy="-0.15"/>
<feGaussianBlur stdDeviation="0.25"/>
<feComposite in2="hardAlpha" operator="arithmetic" k2="-1" k3="1"/>
<feColorMatrix type="matrix" values="0 0 0 0 0.160784 0 0 0 0 0.47451 0 0 0 0 0.866667 0 0 0 1 0"/>
<feBlend mode="normal" in2="shape" result="effect1_innerShadow_4002_315"/>
</filter>
<filter id="filter13_f_4002_315" x="15.0237" y="16.0577" width="6.84375" height="12.8906" filterUnits="userSpaceOnUse" color-interpolation-filters="sRGB">
<feFlood flood-opacity="0" result="BackgroundImageFix"/>
<feBlend mode="normal" in="SourceGraphic" in2="BackgroundImageFix" result="shape"/>
<feGaussianBlur stdDeviation="0.5" result="effect1_foregroundBlur_4002_315"/>
</filter>
<filter id="filter14_f_4002_315" x="20.9722" y="17.9857" width="6.44972" height="8.47473" filterUnits="userSpaceOnUse" color-interpolation-filters="sRGB">
<feFlood flood-opacity="0" result="BackgroundImageFix"/>
<feBlend mode="normal" in="SourceGraphic" in2="BackgroundImageFix" result="shape"/>
<feGaussianBlur stdDeviation="0.375" result="effect1_foregroundBlur_4002_315"/>
</filter>
<filter id="filter15_i_4002_315" x="16.4365" y="4.23071" width="1.1172" height="0.648462" filterUnits="userSpaceOnUse" color-interpolation-filters="sRGB">
<feFlood flood-opacity="0" result="BackgroundImageFix"/>
<feBlend mode="normal" in="SourceGraphic" in2="BackgroundImageFix" result="shape"/>
<feColorMatrix in="SourceAlpha" type="matrix" values="0 0 0 0 0 0 0 0 0 0 0 0 0 0 0 0 0 0 127 0" result="hardAlpha"/>
<feOffset dx="0.1" dy="0.1"/>
<feGaussianBlur stdDeviation="0.2"/>
<feComposite in2="hardAlpha" operator="arithmetic" k2="-1" k3="1"/>
<feColorMatrix type="matrix" values="0 0 0 0 0.619608 0 0 0 0 0.2 0 0 0 0 0.0862745 0 0 0 1 0"/>
<feBlend mode="normal" in2="shape" result="effect1_innerShadow_4002_315"/>
</filter>
<radialGradient id="paint0_radial_4002_315" cx="0" cy="0" r="1" gradientUnits="userSpaceOnUse" gradientTransform="translate(16.5432 12.5) rotate(130.44) scale(3.61326 1.4551)">
<stop stop-color="#FFC146"/>
<stop offset="1" stop-color="#FFC146" stop-opacity="0"/>
</radialGradient>
<radialGradient id="paint1_radial_4002_315" cx="0" cy="0" r="1" gradientUnits="userSpaceOnUse" gradientTransform="translate(12.9182 16.2813) rotate(3.57634) scale(1.50293 1.62478)">
<stop stop-color="#D2941C"/>
<stop offset="1" stop-color="#D2941C" stop-opacity="0"/>
</radialGradient>
<linearGradient id="paint2_linear_4002_315" x1="14.3323" y1="15.5234" x2="12.4495" y2="17.5625" gradientUnits="userSpaceOnUse">
<stop stop-color="#443D44"/>
<stop offset="1" stop-color="#443D44" stop-opacity="0"/>
</linearGradient>
<linearGradient id="paint3_linear_4002_315" x1="8.88702" y1="21.8125" x2="10.137" y2="22.75" gradientUnits="userSpaceOnUse">
<stop stop-color="#D4C6DC"/>
<stop offset="1" stop-color="#CDB4E3"/>
</linearGradient>
<linearGradient id="paint4_linear_4002_315" x1="5.22296" y1="28.6562" x2="6.95734" y2="26.3125" gradientUnits="userSpaceOnUse">
<stop stop-color="#E82B8E"/>
<stop offset="1" stop-color="#F3386A"/>
</linearGradient>
<linearGradient id="paint5_linear_4002_315" x1="5.27765" y1="27.0937" x2="5.63603" y2="27.3437" gradientUnits="userSpaceOnUse">
<stop stop-color="#F35886"/>
<stop offset="1" stop-color="#F35886" stop-opacity="0"/>
</linearGradient>
<radialGradient id="paint6_radial_4002_315" cx="0" cy="0" r="1" gradientUnits="userSpaceOnUse" gradientTransform="translate(4.45703 28.4609) rotate(90) scale(1.57031 1.46069)">
<stop offset="0.237838" stop-color="#D8CBDD"/>
<stop offset="1" stop-color="#CCAAE9"/>
</radialGradient>
<radialGradient id="paint7_radial_4002_315" cx="0" cy="0" r="1" gradientUnits="userSpaceOnUse" gradientTransform="translate(4.82446 28.8125) rotate(-14.8208) scale(0.48867)">
<stop stop-color="#E9D9F5"/>
<stop offset="1" stop-color="#E9D9F5" stop-opacity="0"/>
</radialGradient>
<radialGradient id="paint8_radial_4002_315" cx="0" cy="0" r="1" gradientUnits="userSpaceOnUse" gradientTransform="translate(3.61719 28.9531) scale(0.50415 0.668771)">
<stop stop-color="#E4D4EA"/>
<stop offset="1" stop-color="#E4D4EA" stop-opacity="0"/>
</radialGradient>
<linearGradient id="paint9_linear_4002_315" x1="13.7464" y1="16.3594" x2="11.9964" y2="18.6563" gradientUnits="userSpaceOnUse">
<stop stop-color="#4D3B5C"/>
<stop offset="1" stop-color="#3F3647"/>
</linearGradient>
<linearGradient id="paint10_linear_4002_315" x1="13.8558" y1="16.4219" x2="13.3324" y2="17.1875" gradientUnits="userSpaceOnUse">
<stop offset="0.0976148" stop-color="#62516B"/>
<stop offset="1" stop-color="#483A55" stop-opacity="0"/>
</linearGradient>
<linearGradient id="paint11_linear_4002_315" x1="16.6736" y1="12.7656" x2="17.2673" y2="13.0313" gradientUnits="userSpaceOnUse">
<stop stop-color="#5DA9E3"/>
<stop offset="0.787267" stop-color="#4587CC"/>
</linearGradient>
<radialGradient id="paint12_radial_4002_315" cx="0" cy="0" r="1" gradientUnits="userSpaceOnUse" gradientTransform="translate(19.8923 8.70828) rotate(-91.3334) scale(2.21396 1.59901)">
<stop offset="0.116409" stop-color="#FCCE3F"/>
<stop offset="1" stop-color="#DAA238"/>
</radialGradient>
<radialGradient id="paint13_radial_4002_315" cx="0" cy="0" r="1" gradientUnits="userSpaceOnUse" gradientTransform="translate(20.2466 7.13682) rotate(128.9) scale(0.853817 1.15634)">
<stop stop-color="#BB851E"/>
<stop offset="1" stop-color="#E2B639" stop-opacity="0"/>
</radialGradient>
<radialGradient id="paint14_radial_4002_315" cx="0" cy="0" r="1" gradientUnits="userSpaceOnUse" gradientTransform="translate(15.469 5.91747) rotate(62.7143) scale(0.681678 0.868154)">
<stop offset="0.332173" stop-color="#FFBF42"/>
<stop offset="1" stop-color="#EBA544"/>
</radialGradient>
<linearGradient id="paint15_linear_4002_315" x1="18.6956" y1="6.24527" x2="15.8333" y2="6.41714" gradientUnits="userSpaceOnUse">
<stop stop-color="#FFC33E"/>
<stop offset="1" stop-color="#FFC247"/>
</linearGradient>
<radialGradient id="paint16_radial_4002_315" cx="0" cy="0" r="1" gradientUnits="userSpaceOnUse" gradientTransform="translate(19.0081 5.50308) rotate(-176.82) scale(0.845051 1.03029)">
<stop offset="0.155748" stop-color="#FFAB1D"/>
<stop offset="1" stop-color="#FFAB1D" stop-opacity="0"/>
</radialGradient>
<radialGradient id="paint17_radial_4002_315" cx="0" cy="0" r="1" gradientUnits="userSpaceOnUse" gradientTransform="translate(20.8828 2.84089) rotate(137.726) scale(4.64565 5.26787)">
<stop offset="0.363348" stop-color="#FFBC2B"/>
<stop offset="1" stop-color="#FFA629"/>
</radialGradient>
<radialGradient id="paint18_radial_4002_315" cx="0" cy="0" r="1" gradientUnits="userSpaceOnUse" gradientTransform="translate(20.25 7.0362) rotate(-95.1325) scale(1.30994 2.7776)">
<stop offset="0.063527" stop-color="#B28146"/>
<stop offset="1" stop-color="#EF9926" stop-opacity="0"/>
</radialGradient>
<radialGradient id="paint19_radial_4002_315" cx="0" cy="0" r="1" gradientUnits="userSpaceOnUse" gradientTransform="translate(19.3127 5.32339) rotate(115.703) scale(1.04478 1.69772)">
<stop offset="0.0404354" stop-color="#FFD040"/>
<stop offset="1" stop-color="#FEAD30"/>
</radialGradient>
<linearGradient id="paint20_linear_4002_315" x1="22.1409" y1="22.8391" x2="24.3693" y2="20.8956" gradientUnits="userSpaceOnUse">
<stop offset="0.210898" stop-color="#8B8290"/>
<stop offset="1" stop-color="#9F9C9F"/>
</linearGradient>
<radialGradient id="paint21_radial_4002_315" cx="0" cy="0" r="1" gradientUnits="userSpaceOnUse" gradientTransform="translate(21.1206 17.9803) rotate(50.1479) scale(3.82906 7.77204)">
<stop offset="0.434038" stop-color="#887E8B"/>
<stop offset="1" stop-color="#887E8B" stop-opacity="0"/>
</radialGradient>
<radialGradient id="paint22_radial_4002_315" cx="0" cy="0" r="1" gradientUnits="userSpaceOnUse" gradientTransform="translate(20.8048 18.9952) rotate(36.3844) scale(1.10629 6.64432)">
<stop offset="0.0427458" stop-color="#695C75"/>
<stop offset="1" stop-color="#695C75" stop-opacity="0"/>
</radialGradient>
<radialGradient id="paint23_radial_4002_315" cx="0" cy="0" r="1" gradientUnits="userSpaceOnUse" gradientTransform="translate(20.0237 20.839) rotate(-57.6982) scale(6.08182 1.60193)">
<stop offset="0.0699383" stop-color="#897998"/>
<stop offset="1" stop-color="#897998" stop-opacity="0"/>
</radialGradient>
<radialGradient id="paint24_radial_4002_315" cx="0" cy="0" r="1" gradientUnits="userSpaceOnUse" gradientTransform="translate(20.8362 16.1359) rotate(90) scale(1.42188 1.38588)">
<stop stop-color="#99919A"/>
<stop offset="1" stop-color="#8C8393" stop-opacity="0"/>
</radialGradient>
<linearGradient id="paint25_linear_4002_315" x1="19.9143" y1="16.0265" x2="19.9143" y2="16.3702" gradientUnits="userSpaceOnUse">
<stop offset="0.136364" stop-color="#817076"/>
<stop offset="1" stop-color="#817076" stop-opacity="0"/>
</linearGradient>
<radialGradient id="paint26_radial_4002_315" cx="0" cy="0" r="1" gradientUnits="userSpaceOnUse" gradientTransform="translate(16.1409 28.0499) rotate(-51.953) scale(0.228173 0.820067)">
<stop stop-color="#A19DA6"/>
<stop offset="1" stop-color="#A19DA6" stop-opacity="0"/>
</radialGradient>
<radialGradient id="paint27_radial_4002_315" cx="0" cy="0" r="1" gradientUnits="userSpaceOnUse" gradientTransform="translate(16.4612 19.1827) rotate(-15.8712) scale(6.62765 17.0931)">
<stop offset="0.801823" stop-color="#8C8388" stop-opacity="0"/>
<stop offset="1" stop-color="#8C8388"/>
</radialGradient>
<radialGradient id="paint28_radial_4002_315" cx="0" cy="0" r="1" gradientUnits="userSpaceOnUse" gradientTransform="translate(15.0081 29.4015) rotate(-93.5035) scale(1.53412 2.46095)">
<stop stop-color="#4A4B75"/>
<stop offset="1" stop-color="#47456F"/>
</radialGradient>
<radialGradient id="paint29_radial_4002_315" cx="0" cy="0" r="1" gradientUnits="userSpaceOnUse" gradientTransform="translate(11.8987 28.464) rotate(-11.6336) scale(1.08478 0.750632)">
<stop stop-color="#63617E"/>
<stop offset="1" stop-color="#63617E" stop-opacity="0"/>
</radialGradient>
<radialGradient id="paint30_radial_4002_315" cx="0" cy="0" r="1" gradientUnits="userSpaceOnUse" gradientTransform="translate(15.9143 29.6984) rotate(-70.9423) scale(1.81842 0.89694)">
<stop offset="0.0797402" stop-color="#515279"/>
<stop offset="1" stop-color="#515279" stop-opacity="0"/>
</radialGradient>
<linearGradient id="paint31_linear_4002_315" x1="14.4456" y1="29.5734" x2="14.5315" y2="29.2609" gradientUnits="userSpaceOnUse">
<stop stop-color="#282955"/>
<stop offset="1" stop-color="#282955" stop-opacity="0"/>
</linearGradient>
<linearGradient id="paint32_linear_4002_315" x1="16.4143" y1="29.9484" x2="15.8362" y2="29.7296" gradientUnits="userSpaceOnUse">
<stop offset="0.0638969" stop-color="#444571"/>
<stop offset="1" stop-color="#444571" stop-opacity="0"/>
</linearGradient>
<linearGradient id="paint33_linear_4002_315" x1="25.0237" y1="27.9328" x2="25.6174" y2="28.1046" gradientUnits="userSpaceOnUse">
<stop stop-color="#5A577E"/>
<stop offset="1" stop-color="#5A577E" stop-opacity="0"/>
</linearGradient>
<linearGradient id="paint34_linear_4002_315" x1="27.1487" y1="28.007" x2="26.969" y2="27.8585" gradientUnits="userSpaceOnUse">
<stop stop-color="#492D85"/>
<stop offset="0.0001" stop-color="#443A80"/>
<stop offset="1" stop-color="#46437B" stop-opacity="0"/>
</linearGradient>
<radialGradient id="paint35_radial_4002_315" cx="0" cy="0" r="1" gradientUnits="userSpaceOnUse" gradientTransform="translate(28.0393 27.0734) rotate(-132.875) scale(1.99789 1.10527)">
<stop stop-color="#60618D"/>
<stop offset="1" stop-color="#46437B" stop-opacity="0"/>
</radialGradient>
<radialGradient id="paint36_radial_4002_315" cx="0" cy="0" r="1" gradientUnits="userSpaceOnUse" gradientTransform="translate(20.0391 9.66901) rotate(-160.71) scale(1.65544 2.30985)">
<stop offset="0.265556" stop-color="#3D98C9"/>
<stop offset="1" stop-color="#3D98C9" stop-opacity="0"/>
</radialGradient>
<radialGradient id="paint37_radial_4002_315" cx="0" cy="0" r="1" gradientUnits="userSpaceOnUse" gradientTransform="translate(20.7316 16.1359) rotate(-91.0847) scale(4.95211 1.34022)">
<stop stop-color="#407BBE"/>
<stop offset="1" stop-color="#407BBE" stop-opacity="0"/>
</radialGradient>
<radialGradient id="paint38_radial_4002_315" cx="0" cy="0" r="1" gradientUnits="userSpaceOnUse" gradientTransform="translate(18.8566 14.2471) scale(3.65186 15.6875)">
<stop offset="0.436422" stop-color="#4475A6" stop-opacity="0"/>
<stop offset="1" stop-color="#4475A6"/>
</radialGradient>
<radialGradient id="paint39_radial_4002_315" cx="0" cy="0" r="1" gradientUnits="userSpaceOnUse" gradientTransform="translate(22.2316 15.0596) rotate(170.72) scale(4.84466 11.1068)">
<stop offset="0.781102" stop-color="#588FC4" stop-opacity="0"/>
<stop offset="0.930515" stop-color="#588FC4"/>
</radialGradient>
<radialGradient id="paint40_radial_4002_315" cx="0" cy="0" r="1" gradientUnits="userSpaceOnUse" gradientTransform="translate(20.8203 16.1359) rotate(-104.777) scale(7.84138 5.87909)">
<stop offset="0.907562" stop-color="#648BA6" stop-opacity="0"/>
<stop offset="0.98275" stop-color="#648BA6"/>
</radialGradient>
<linearGradient id="paint41_linear_4002_315" x1="20.2266" y1="16.169" x2="20.2266" y2="15.9893" gradientUnits="userSpaceOnUse">
<stop stop-color="#445B8B"/>
<stop offset="1" stop-color="#417AB5" stop-opacity="0"/>
</linearGradient>
<radialGradient id="paint42_radial_4002_315" cx="0" cy="0" r="1" gradientUnits="userSpaceOnUse" gradientTransform="translate(24.9612 17.8312) rotate(90) scale(0.90625)">
<stop offset="0.256412" stop-color="#E99F2E"/>
<stop offset="1" stop-color="#CE853F"/>
</radialGradient>
<linearGradient id="paint43_linear_4002_315" x1="20.8987" y1="9.07336" x2="22.0081" y2="12.5265" gradientUnits="userSpaceOnUse">
<stop offset="0.118333" stop-color="#2E83D0"/>
<stop offset="1" stop-color="#3384E0"/>
</linearGradient>
<radialGradient id="paint44_radial_4002_315" cx="0" cy="0" r="1" gradientUnits="userSpaceOnUse" gradientTransform="translate(19.0471 10.294) rotate(10.5496) scale(1.10945 2.29717)">
<stop offset="0.119508" stop-color="#5696DC"/>
<stop offset="1" stop-color="#5696DC" stop-opacity="0"/>
</radialGradient>
<radialGradient id="paint45_radial_4002_315" cx="0" cy="0" r="1" gradientUnits="userSpaceOnUse" gradientTransform="translate(23.1328 11.6378) rotate(-132.997) scale(3.16181 1.21321)">
<stop stop-color="#4D95E1"/>
<stop offset="1" stop-color="#4D95E1" stop-opacity="0"/>
</radialGradient>
<radialGradient id="paint46_radial_4002_315" cx="0" cy="0" r="1" gradientUnits="userSpaceOnUse" gradientTransform="translate(19.7109 8.74524) rotate(67.6929) scale(1.23495 2.7533)">
<stop offset="0.125686" stop-color="#5B789D"/>
<stop offset="1" stop-color="#4080BE" stop-opacity="0"/>
</radialGradient>
<radialGradient id="paint47_radial_4002_315" cx="0" cy="0" r="1" gradientUnits="userSpaceOnUse" gradientTransform="translate(16.6448 5.57727) scale(0.273437 0.53125)">
<stop offset="0.894737" stop-color="#916A62"/>
<stop offset="1" stop-color="#824D44"/>
</radialGradient>
<radialGradient id="paint48_radial_4002_315" cx="0" cy="0" r="1" gradientUnits="userSpaceOnUse" gradientTransform="translate(16.4768 5.59875) scale(0.25 0.541016)">
<stop stop-color="#666361"/>
<stop offset="0.8125" stop-color="#565352"/>
</radialGradient>
<linearGradient id="paint49_linear_4002_315" x1="16.47" y1="5.20894" x2="16.6563" y2="5.2697" gradientUnits="userSpaceOnUse">
<stop stop-color="white"/>
<stop offset="1" stop-color="white" stop-opacity="0"/>
</linearGradient>
<linearGradient id="paint50_linear_4002_315" x1="16.2424" y1="27.3702" x2="20.8674" y2="17.2296" gradientUnits="userSpaceOnUse">
<stop stop-color="#94899E"/>
<stop offset="1" stop-color="#94899E" stop-opacity="0"/>
</linearGradient>
<linearGradient id="paint51_linear_4002_315" x1="26.3868" y1="25.2793" x2="22.0759" y2="19.9073" gradientUnits="userSpaceOnUse">
<stop stop-color="#A39FA7"/>
<stop offset="1" stop-color="#A39FA7" stop-opacity="0"/>
</linearGradient>
</defs>
</svg>
