<svg width="32" height="32" viewBox="0 0 32 32" fill="none" xmlns="http://www.w3.org/2000/svg">
<path fill-rule="evenodd" clip-rule="evenodd" d="M2 27.6667V4.12132C2 2.94975 2.94975 2 4.12132 2C4.68393 2 5.2235 2.2235 5.62132 2.62132L29.3787 26.3787C29.7765 26.7765 30 27.3161 30 27.8787C30 29.0503 29.0503 30 27.8787 30H4.33333C3.04467 30 2 28.9553 2 27.6667ZM9 24H16.2618C16.9032 24 17.2245 23.2245 16.7709 22.7709L9.22912 15.2291C8.77554 14.7755 8 15.0968 8 15.7382V23C8 23.5523 8.44772 24 9 24Z" fill="#D3D3D3"/>
<path fill-rule="evenodd" clip-rule="evenodd" d="M28.3906 25.3906L29.1094 26.1094L27.3594 27.8594C27.1609 28.0579 26.8391 28.0579 26.6406 27.8594C26.4421 27.6609 26.4421 27.3391 26.6406 27.1406L28.3906 25.3906ZM22.8906 19.8906L23.6094 20.6094L21.8594 22.3594C21.6609 22.5579 21.3391 22.5579 21.1406 22.3594C20.9421 22.1609 20.9421 21.8391 21.1406 21.6406L22.8906 19.8906ZM17.3906 14.3906L18.1094 15.1094L16.3594 16.8594C16.1609 17.0579 15.8391 17.0579 15.6406 16.8594C15.4421 16.6609 15.4421 16.3391 15.6406 16.1406L17.3906 14.3906ZM11.8906 8.89056L12.6094 9.60941L10.8594 11.3594C10.6609 11.5579 10.3391 11.5579 10.1406 11.3594C9.94207 11.1609 9.94207 10.8391 10.1406 10.6406L11.8906 8.89056ZM7.10942 4.10941L5.35942 5.85941C5.16092 6.05791 4.83908 6.05791 4.64058 5.85941C4.44207 5.66091 4.44207 5.33907 4.64058 5.14056L6.39058 3.39056L7.10942 4.10941ZM9.35942 7.35941C9.55793 7.16091 9.55793 6.83907 9.35942 6.64056C9.16092 6.44206 8.83908 6.44206 8.64058 6.64056L7.64058 7.64056C7.44207 7.83907 7.44207 8.1609 7.64058 8.35941C7.83908 8.55791 8.16092 8.55791 8.35942 8.35941L9.35942 7.35941ZM14.8594 12.8594C15.0579 12.6609 15.0579 12.3391 14.8594 12.1406C14.6609 11.9421 14.3391 11.9421 14.1406 12.1406L13.1406 13.1406C12.9421 13.3391 12.9421 13.6609 13.1406 13.8594C13.3391 14.0579 13.6609 14.0579 13.8594 13.8594L14.8594 12.8594ZM20.3594 18.3594C20.5579 18.1609 20.5579 17.8391 20.3594 17.6406C20.1609 17.4421 19.8391 17.4421 19.6406 17.6406L18.6406 18.6406C18.4421 18.8391 18.4421 19.1609 18.6406 19.3594C18.8391 19.5579 19.1609 19.5579 19.3594 19.3594L20.3594 18.3594ZM25.8594 23.8594C26.0579 23.6609 26.0579 23.3391 25.8594 23.1406C25.6609 22.9421 25.3391 22.9421 25.1406 23.1406L24.1406 24.1406C23.9421 24.3391 23.9421 24.6609 24.1406 24.8594C24.3391 25.0579 24.6609 25.0579 24.8594 24.8594L25.8594 23.8594Z" fill="#8C65C9"/>
<path d="M4.99512 29.0205H4.13672L3.09961 25.4111H3.89355L4.55859 28.2471H4.57031L5.28516 25.4111H6.09082L6.78516 28.209H6.79688L7.47656 25.4111H8.24707L7.18945 29.0205H6.36914L5.70996 26.3047H5.70117L4.99512 29.0205Z" fill="#FFC444"/>
<path d="M9.60352 29H8.85938V25.4111H9.60352V29Z" fill="#FFC444"/>
<path d="M10.5996 29V25.4111H12.0322C12.3057 25.4111 12.5439 25.459 12.7471 25.5547C12.9521 25.6504 13.1104 25.79 13.2217 25.9736C13.333 26.1572 13.3887 26.377 13.3887 26.6328C13.3887 26.8887 13.333 27.1084 13.2217 27.292C13.1104 27.4756 12.9521 27.6162 12.7471 27.7139C12.5439 27.8096 12.3057 27.8574 12.0322 27.8574H11.3467V29H10.5996ZM11.918 27.2598C12.1523 27.2598 12.332 27.209 12.457 27.1074C12.582 27.0039 12.6445 26.8457 12.6445 26.6328C12.6445 26.4199 12.582 26.2627 12.457 26.1611C12.332 26.0576 12.1523 26.0059 11.918 26.0059H11.3467V27.2598H11.918Z" fill="#FFC444"/>
<path d="M0 0V-2H-2V0H0ZM32 0H34V-2H32V0ZM32 32V34H34V32H32ZM0 32H-2V34H0V32ZM0 2H32V-2H0V2ZM30 0V32H34V0H30ZM32 30H0V34H32V30ZM2 32V0H-2V32H2Z" fill="#FFC444"/>
</svg>
