<svg width="32" height="32" viewBox="0 0 32 32" fill="none" xmlns="http://www.w3.org/2000/svg">
<path d="M21 1C19.8954 1 19 1.89543 19 3V12H3.5C2.11929 12 1 13.1193 1 14.5V16.5C1 17.2994 1.62541 17.9528 2.41366 17.9976C2.98586 20.0223 4.12241 21.8087 5.64226 23.1771C5.69751 23.2268 5.75326 23.276 5.80952 23.3246C6.35873 23.7995 6.95543 24.2209 7.59156 24.5808L6.09705 27.5698C6.00411 27.7557 5.87048 28.0228 5.76949 28.303C5.66975 28.5796 5.55839 28.9813 5.61086 29.4135C5.67151 29.913 5.9428 30.372 6.44334 30.6624C6.8821 30.9169 7.42451 31 8 31H22C22.8252 31 23.5668 30.5975 24.0821 30.0821C24.5975 29.5668 25 28.8252 25 28V20C25 19.732 25.155 19.3731 25.4447 18.9756C27.4446 18.7543 29 17.0588 29 15V3C29 1.89543 28.1046 1 27 1H21ZM9.41646 25.4031C10.5397 25.79 11.7453 26 13 26C17.2199 26 21.1141 23.9188 23 20.418V28C23 28.1748 22.9025 28.4332 22.6679 28.6679C22.4332 28.9025 22.1748 29 22 29H8C7.85351 29 7.73905 28.9918 7.65139 28.9801C7.70886 28.821 7.79259 28.6509 7.89443 28.4472L9.41646 25.4031ZM20.4998 17C20.8343 17.4452 21.3139 17.7752 21.8684 17.9195C20.8114 21.5871 17.2229 24 13 24C10.7109 24 8.62083 23.1451 7.03224 21.7371C5.73183 20.5842 4.76778 19.0609 4.30543 17.3342C4.27583 17.2236 4.24828 17.1122 4.22283 17H20.4998ZM20.05 16H3V14.5C3 14.2239 3.22386 14 3.5 14H20V15.5C20 15.6712 20.0172 15.8384 20.05 16ZM27 15C27 16.1046 26.1046 17 25 17H22.5C21.6716 17 21 16.3284 21 15.5V3H27V15Z" fill="#212121"/>
</svg>
