<svg width="32" height="32" viewBox="0 0 32 32" fill="none" xmlns="http://www.w3.org/2000/svg">
<g filter="url(#filter0_i_20020_2067)">
<path d="M12.4832 5.56677C12.1569 4.14816 13.0735 2.70878 14.4921 2.38257C15.9107 2.05635 17.3428 2.92378 17.669 4.34239L19.1968 11.3354L19.2776 5.92349C19.2993 4.46803 20.4968 3.30577 21.9523 3.3275C23.4078 3.34924 24.57 4.54675 24.5483 6.00221L24.4367 13.4738C24.4285 14.021 24.4952 14.5667 24.635 15.0958L25.1338 16.9842C25.4803 18.0713 26.1631 20.8466 25.5619 22.895C24.9504 25.5446 22.7899 27.6643 20.9148 28.7242C19.0397 29.784 16.9709 30.3037 13.9442 29.8757C10.0411 29.0401 7.82966 26.2987 7.04495 22.7523C6.37643 20.013 6.00427 17.1176 5.84412 15.9926L14.4302 13.8758L12.4832 5.56677Z" fill="#472E32"/>
<path d="M12.4832 5.56677C12.1569 4.14816 13.0735 2.70878 14.4921 2.38257C15.9107 2.05635 17.3428 2.92378 17.669 4.34239L19.1968 11.3354L19.2776 5.92349C19.2993 4.46803 20.4968 3.30577 21.9523 3.3275C23.4078 3.34924 24.57 4.54675 24.5483 6.00221L24.4367 13.4738C24.4285 14.021 24.4952 14.5667 24.635 15.0958L25.1338 16.9842C25.4803 18.0713 26.1631 20.8466 25.5619 22.895C24.9504 25.5446 22.7899 27.6643 20.9148 28.7242C19.0397 29.784 16.9709 30.3037 13.9442 29.8757C10.0411 29.0401 7.82966 26.2987 7.04495 22.7523C6.37643 20.013 6.00427 17.1176 5.84412 15.9926L14.4302 13.8758L12.4832 5.56677Z" fill="url(#paint0_radial_20020_2067)"/>
</g>
<g filter="url(#filter1_f_20020_2067)">
<rect x="7.79456" y="13.4294" width="5.30918" height="6.74556" transform="rotate(-8.49371 7.79456 13.4294)" fill="#2A161D"/>
</g>
<g filter="url(#filter2_f_20020_2067)">
<path d="M25.2953 21.1751C25.2859 21.0079 25.2723 20.8416 25.2552 20.6773C24.5321 16.9138 21.1186 16.1091 19.9796 16.1091H18.0637C16.5966 16.1142 15.409 17.2365 15.409 18.62C15.409 19.6219 16.0318 20.4868 16.9325 20.8896L16.9313 20.8944C17.0165 20.9365 17.1561 20.9878 17.344 21.0356C17.4183 21.0555 17.4938 21.0724 17.5706 21.0862C17.8612 21.1429 18.2305 21.1855 18.665 21.1855C18.6964 21.1855 18.7271 21.1856 18.7572 21.1856V21.1751H25.2953Z" fill="#2A161D"/>
</g>
<rect x="5.26105" y="12.1148" width="5.18159" height="7.43698" rx="2.5908" transform="rotate(-8.49371 5.26105 12.1148)" fill="#46302D"/>
<rect x="5.26105" y="12.1148" width="5.18159" height="7.43698" rx="2.5908" transform="rotate(-8.49371 5.26105 12.1148)" fill="url(#paint1_linear_20020_2067)"/>
<rect x="5.26105" y="12.1148" width="5.18159" height="7.43698" rx="2.5908" transform="rotate(-8.49371 5.26105 12.1148)" fill="url(#paint2_radial_20020_2067)"/>
<path d="M12.4831 5.56677C12.1569 4.14817 13.0735 2.70878 14.4921 2.38256C15.9107 2.05635 17.3428 2.92379 17.669 4.34239L19.511 12.7738C19.8372 14.1924 19.0265 15.6062 17.6079 15.9324C16.1893 16.2586 14.7749 15.373 14.4487 13.9544L12.4831 5.56677Z" fill="url(#paint3_linear_20020_2067)"/>
<path d="M12.4831 5.56677C12.1569 4.14817 13.0735 2.70878 14.4921 2.38256C15.9107 2.05635 17.3428 2.92379 17.669 4.34239L19.511 12.7738C19.8372 14.1924 19.0265 15.6062 17.6079 15.9324C16.1893 16.2586 14.7749 15.373 14.4487 13.9544L12.4831 5.56677Z" fill="url(#paint4_linear_20020_2067)"/>
<path d="M12.4831 5.56677C12.1569 4.14817 13.0735 2.70878 14.4921 2.38256C15.9107 2.05635 17.3428 2.92379 17.669 4.34239L19.511 12.7738C19.8372 14.1924 19.0265 15.6062 17.6079 15.9324C16.1893 16.2586 14.7749 15.373 14.4487 13.9544L12.4831 5.56677Z" fill="url(#paint5_radial_20020_2067)"/>
<rect x="19.3169" y="3.28815" width="5.27129" height="13.9035" rx="2.63564" transform="rotate(0.85565 19.3169 3.28815)" fill="url(#paint6_linear_20020_2067)"/>
<rect x="19.3169" y="3.28815" width="5.27129" height="13.9035" rx="2.63564" transform="rotate(0.85565 19.3169 3.28815)" fill="url(#paint7_linear_20020_2067)"/>
<rect x="19.3169" y="3.28815" width="5.27129" height="13.9035" rx="2.63564" transform="rotate(0.85565 19.3169 3.28815)" fill="url(#paint8_radial_20020_2067)"/>
<path d="M12.4832 5.56677C12.1569 4.14816 13.0735 2.70878 14.4921 2.38257C15.9107 2.05635 17.3428 2.92378 17.669 4.34239L19.1968 11.3354L19.2776 5.92349C19.2993 4.46803 20.4968 3.30577 21.9523 3.3275C23.4078 3.34924 24.57 4.54675 24.5483 6.00221L24.4367 13.4738C24.4285 14.021 24.4952 14.5667 24.635 15.0958L25.1338 16.9842C25.4803 18.0713 26.1631 20.8466 25.5619 22.895C24.9504 25.5446 22.7899 27.6643 20.9148 28.7242C19.0397 29.784 16.9709 30.3037 13.9442 29.8757C10.0411 29.0401 7.82966 26.2987 7.04495 22.7523C6.37643 20.013 6.00427 17.1176 5.84412 15.9926L14.4302 13.8758L12.4832 5.56677Z" fill="url(#paint9_radial_20020_2067)"/>
<g filter="url(#filter3_f_20020_2067)">
<rect x="9.15851" y="12.5316" width="0.873951" height="5.30293" rx="0.436975" transform="rotate(-8.13858 9.15851 12.5316)" fill="#2A1816"/>
</g>
<rect x="9.12" y="10.5461" width="5.30918" height="8.69331" rx="2.5908" transform="rotate(-8.49371 9.12 10.5461)" fill="#46302D"/>
<rect x="9.12" y="10.5461" width="5.30918" height="8.69331" rx="2.5908" transform="rotate(-8.49371 9.12 10.5461)" fill="url(#paint10_radial_20020_2067)"/>
<rect x="9.12" y="10.5461" width="5.30918" height="8.69331" rx="2.5908" transform="rotate(-8.49371 9.12 10.5461)" fill="url(#paint11_linear_20020_2067)"/>
<g opacity="0.5" filter="url(#filter4_f_20020_2067)">
<rect x="8.26141" y="13.5413" width="1.01905" height="3.65325" rx="0.509526" transform="rotate(-8.33034 8.26141 13.5413)" fill="url(#paint12_linear_20020_2067)"/>
</g>
<g opacity="0.5" filter="url(#filter5_f_20020_2067)">
<rect x="11.7001" y="11.2233" width="1.98407" height="5.58761" rx="0.992035" transform="rotate(-8.33034 11.7001 11.2233)" fill="url(#paint13_linear_20020_2067)"/>
</g>
<g filter="url(#filter6_f_20020_2067)">
<path d="M15.8981 4.59613L17.6082 11.8332" stroke="url(#paint14_linear_20020_2067)" stroke-width="1.5" stroke-linecap="square"/>
</g>
<g filter="url(#filter7_f_20020_2067)">
<path d="M22.8299 5.26794L22.5551 13.2379" stroke="url(#paint15_linear_20020_2067)" stroke-width="1.5" stroke-linecap="square"/>
</g>
<path d="M25.7461 19.9574C25.8426 20.9394 25.828 21.9884 25.5619 22.8949C25.1683 24.6005 24.1329 26.0865 22.9449 27.2115L21.4483 24.8792C21.5954 22.5885 21.2883 21.4228 20.9087 20.9876C20.4808 20.4968 20.2259 20.4968 19.1559 20.4968C18.7214 20.4968 18.3521 20.4516 18.0615 20.3914C17.9847 20.3768 17.9092 20.3588 17.8349 20.3377C17.647 20.287 17.5074 20.2325 17.4222 20.1879L17.4234 20.1828C16.5227 19.7552 15.8999 18.8373 15.8999 17.774C15.8999 16.3056 17.0875 15.1146 18.5546 15.1091H20.4705C21.6095 15.1091 25.023 15.9631 25.7461 19.9574Z" fill="#472E32"/>
<path d="M25.7461 19.9574C25.8426 20.9394 25.828 21.9884 25.5619 22.8949C25.1683 24.6005 24.1329 26.0865 22.9449 27.2115L21.4483 24.8792C21.5954 22.5885 21.2883 21.4228 20.9087 20.9876C20.4808 20.4968 20.2259 20.4968 19.1559 20.4968C18.7214 20.4968 18.3521 20.4516 18.0615 20.3914C17.9847 20.3768 17.9092 20.3588 17.8349 20.3377C17.647 20.287 17.5074 20.2325 17.4222 20.1879L17.4234 20.1828C16.5227 19.7552 15.8999 18.8373 15.8999 17.774C15.8999 16.3056 17.0875 15.1146 18.5546 15.1091H20.4705C21.6095 15.1091 25.023 15.9631 25.7461 19.9574Z" fill="url(#paint16_radial_20020_2067)"/>
<path d="M25.7461 19.9574C25.8426 20.9394 25.828 21.9884 25.5619 22.8949C25.1683 24.6005 24.1329 26.0865 22.9449 27.2115L21.4483 24.8792C21.5954 22.5885 21.2883 21.4228 20.9087 20.9876C20.4808 20.4968 20.2259 20.4968 19.1559 20.4968C18.7214 20.4968 18.3521 20.4516 18.0615 20.3914C17.9847 20.3768 17.9092 20.3588 17.8349 20.3377C17.647 20.287 17.5074 20.2325 17.4222 20.1879L17.4234 20.1828C16.5227 19.7552 15.8999 18.8373 15.8999 17.774C15.8999 16.3056 17.0875 15.1146 18.5546 15.1091H20.4705C21.6095 15.1091 25.023 15.9631 25.7461 19.9574Z" fill="url(#paint17_radial_20020_2067)"/>
<path d="M25.7461 19.9574C25.8426 20.9394 25.828 21.9884 25.5619 22.8949C25.1683 24.6005 24.1329 26.0865 22.9449 27.2115L21.4483 24.8792C21.5954 22.5885 21.2883 21.4228 20.9087 20.9876C20.4808 20.4968 20.2259 20.4968 19.1559 20.4968C18.7214 20.4968 18.3521 20.4516 18.0615 20.3914C17.9847 20.3768 17.9092 20.3588 17.8349 20.3377C17.647 20.287 17.5074 20.2325 17.4222 20.1879L17.4234 20.1828C16.5227 19.7552 15.8999 18.8373 15.8999 17.774C15.8999 16.3056 17.0875 15.1146 18.5546 15.1091H20.4705C21.6095 15.1091 25.023 15.9631 25.7461 19.9574Z" fill="url(#paint18_radial_20020_2067)"/>
<g filter="url(#filter8_f_20020_2067)">
<path d="M19.1093 17.2688H20.9164C22.1099 17.2688 23.347 17.6706 23.8398 18.7577C24.1007 19.3331 24.3001 20.0681 24.3001 20.9675" stroke="url(#paint19_linear_20020_2067)" stroke-width="1.5" stroke-linecap="round"/>
</g>
<defs>
<filter id="filter0_i_20020_2067" x="5.84412" y="1.56396" width="20.4565" height="28.4618" filterUnits="userSpaceOnUse" color-interpolation-filters="sRGB">
<feFlood flood-opacity="0" result="BackgroundImageFix"/>
<feBlend mode="normal" in="SourceGraphic" in2="BackgroundImageFix" result="shape"/>
<feColorMatrix in="SourceAlpha" type="matrix" values="0 0 0 0 0 0 0 0 0 0 0 0 0 0 0 0 0 0 127 0" result="hardAlpha"/>
<feOffset dx="0.5" dy="-0.75"/>
<feGaussianBlur stdDeviation="1.5"/>
<feComposite in2="hardAlpha" operator="arithmetic" k2="-1" k3="1"/>
<feColorMatrix type="matrix" values="0 0 0 0 0.227451 0 0 0 0 0.121569 0 0 0 0 0.196078 0 0 0 1 0"/>
<feBlend mode="normal" in2="shape" result="effect1_innerShadow_20020_2067"/>
</filter>
<filter id="filter1_f_20020_2067" x="5.79456" y="10.6452" width="10.2473" height="11.4557" filterUnits="userSpaceOnUse" color-interpolation-filters="sRGB">
<feFlood flood-opacity="0" result="BackgroundImageFix"/>
<feBlend mode="normal" in="SourceGraphic" in2="BackgroundImageFix" result="shape"/>
<feGaussianBlur stdDeviation="1" result="effect1_foregroundBlur_20020_2067"/>
</filter>
<filter id="filter2_f_20020_2067" x="13.409" y="14.1091" width="13.8863" height="9.07648" filterUnits="userSpaceOnUse" color-interpolation-filters="sRGB">
<feFlood flood-opacity="0" result="BackgroundImageFix"/>
<feBlend mode="normal" in="SourceGraphic" in2="BackgroundImageFix" result="shape"/>
<feGaussianBlur stdDeviation="1" result="effect1_foregroundBlur_20020_2067"/>
</filter>
<filter id="filter3_f_20020_2067" x="8.21591" y="11.4653" width="3.50107" height="7.25848" filterUnits="userSpaceOnUse" color-interpolation-filters="sRGB">
<feFlood flood-opacity="0" result="BackgroundImageFix"/>
<feBlend mode="normal" in="SourceGraphic" in2="BackgroundImageFix" result="shape"/>
<feGaussianBlur stdDeviation="0.5" result="effect1_foregroundBlur_20020_2067"/>
</filter>
<filter id="filter4_f_20020_2067" x="7.5798" y="12.712" width="2.90082" height="5.12561" filterUnits="userSpaceOnUse" color-interpolation-filters="sRGB">
<feFlood flood-opacity="0" result="BackgroundImageFix"/>
<feBlend mode="normal" in="SourceGraphic" in2="BackgroundImageFix" result="shape"/>
<feGaussianBlur stdDeviation="0.375" result="effect1_foregroundBlur_20020_2067"/>
</filter>
<filter id="filter5_f_20020_2067" x="10.6332" y="9.86903" width="4.90641" height="7.9498" filterUnits="userSpaceOnUse" color-interpolation-filters="sRGB">
<feFlood flood-opacity="0" result="BackgroundImageFix"/>
<feBlend mode="normal" in="SourceGraphic" in2="BackgroundImageFix" result="shape"/>
<feGaussianBlur stdDeviation="0.6" result="effect1_foregroundBlur_20020_2067"/>
</filter>
<filter id="filter6_f_20020_2067" x="13.4958" y="2.19379" width="6.51477" height="12.0418" filterUnits="userSpaceOnUse" color-interpolation-filters="sRGB">
<feFlood flood-opacity="0" result="BackgroundImageFix"/>
<feBlend mode="normal" in="SourceGraphic" in2="BackgroundImageFix" result="shape"/>
<feGaussianBlur stdDeviation="0.75" result="effect1_foregroundBlur_20020_2067"/>
</filter>
<filter id="filter7_f_20020_2067" x="20.2797" y="2.99255" width="4.82562" height="12.5208" filterUnits="userSpaceOnUse" color-interpolation-filters="sRGB">
<feFlood flood-opacity="0" result="BackgroundImageFix"/>
<feBlend mode="normal" in="SourceGraphic" in2="BackgroundImageFix" result="shape"/>
<feGaussianBlur stdDeviation="0.75" result="effect1_foregroundBlur_20020_2067"/>
</filter>
<filter id="filter8_f_20020_2067" x="16.8593" y="15.0188" width="9.6908" height="8.19873" filterUnits="userSpaceOnUse" color-interpolation-filters="sRGB">
<feFlood flood-opacity="0" result="BackgroundImageFix"/>
<feBlend mode="normal" in="SourceGraphic" in2="BackgroundImageFix" result="shape"/>
<feGaussianBlur stdDeviation="0.75" result="effect1_foregroundBlur_20020_2067"/>
</filter>
<radialGradient id="paint0_radial_20020_2067" cx="0" cy="0" r="1" gradientUnits="userSpaceOnUse" gradientTransform="translate(20.7548 20.3609) rotate(139.399) scale(5.03756 4.51569)">
<stop stop-color="#5E4A4D"/>
<stop offset="1" stop-color="#4C3A3C" stop-opacity="0"/>
</radialGradient>
<linearGradient id="paint1_linear_20020_2067" x1="5.52223" y1="16.5404" x2="7.38023" y2="16.4974" gradientUnits="userSpaceOnUse">
<stop stop-color="#3E2A29"/>
<stop offset="1" stop-color="#3E2A29" stop-opacity="0"/>
</linearGradient>
<radialGradient id="paint2_radial_20020_2067" cx="0" cy="0" r="1" gradientUnits="userSpaceOnUse" gradientTransform="translate(7.86431 19.4971) rotate(-89.6349) scale(3.91433 5.29446)">
<stop stop-color="#472336"/>
<stop offset="1" stop-color="#472336" stop-opacity="0"/>
</radialGradient>
<linearGradient id="paint3_linear_20020_2067" x1="13.1193" y1="8.99336" x2="16" y2="8.19942" gradientUnits="userSpaceOnUse">
<stop stop-color="#261110"/>
<stop offset="1" stop-color="#261110" stop-opacity="0"/>
</linearGradient>
<linearGradient id="paint4_linear_20020_2067" x1="16.2951" y1="14.551" x2="15.7455" y2="11.8027" gradientUnits="userSpaceOnUse">
<stop stop-color="#442C30"/>
<stop offset="1" stop-color="#442C30" stop-opacity="0"/>
</linearGradient>
<radialGradient id="paint5_radial_20020_2067" cx="0" cy="0" r="1" gradientUnits="userSpaceOnUse" gradientTransform="translate(12.4171 13.6349) rotate(-72.4384) scale(11.8743 9.2653)">
<stop offset="0.840906" stop-color="#624D4A" stop-opacity="0"/>
<stop offset="1" stop-color="#624D4A"/>
</radialGradient>
<linearGradient id="paint6_linear_20020_2067" x1="19.0393" y1="9.15084" x2="21.937" y2="9.19919" gradientUnits="userSpaceOnUse">
<stop stop-color="#261110"/>
<stop offset="1" stop-color="#261110" stop-opacity="0"/>
</linearGradient>
<linearGradient id="paint7_linear_20020_2067" x1="21.4911" y1="13.8173" x2="21.2757" y2="11.4306" gradientUnits="userSpaceOnUse">
<stop stop-color="#442C30"/>
<stop offset="1" stop-color="#442C30" stop-opacity="0"/>
</linearGradient>
<radialGradient id="paint8_radial_20020_2067" cx="0" cy="0" r="1" gradientUnits="userSpaceOnUse" gradientTransform="translate(19.3169 14.7889) rotate(-73.329) scale(12.641 7.46571)">
<stop offset="0.840906" stop-color="#624D4A" stop-opacity="0"/>
<stop offset="1" stop-color="#624D4A"/>
</radialGradient>
<radialGradient id="paint9_radial_20020_2067" cx="0" cy="0" r="1" gradientUnits="userSpaceOnUse" gradientTransform="translate(21.6695 15.6503) rotate(-88.7811) scale(4.30659 8.5599)">
<stop stop-color="#5E4A4D"/>
<stop offset="1" stop-color="#4C3A3C" stop-opacity="0"/>
</radialGradient>
<radialGradient id="paint10_radial_20020_2067" cx="0" cy="0" r="1" gradientUnits="userSpaceOnUse" gradientTransform="translate(11.7874 19.1755) rotate(-89.68) scale(4.57555 5.42486)">
<stop stop-color="#472336"/>
<stop offset="1" stop-color="#472336" stop-opacity="0"/>
</radialGradient>
<linearGradient id="paint11_linear_20020_2067" x1="9.38761" y1="15.7193" x2="11.657" y2="15.6952" gradientUnits="userSpaceOnUse">
<stop stop-color="#3E2A29"/>
<stop offset="1" stop-color="#3E2A29" stop-opacity="0"/>
</linearGradient>
<linearGradient id="paint12_linear_20020_2067" x1="8.97516" y1="16.5225" x2="8.99892" y2="12.6877" gradientUnits="userSpaceOnUse">
<stop stop-color="#675252"/>
<stop offset="1" stop-color="#675252" stop-opacity="0"/>
</linearGradient>
<linearGradient id="paint13_linear_20020_2067" x1="13.3766" y1="14.2755" x2="10.7872" y2="9.32415" gradientUnits="userSpaceOnUse">
<stop stop-color="#745E5C"/>
<stop offset="1" stop-color="#745E5C" stop-opacity="0"/>
</linearGradient>
<linearGradient id="paint14_linear_20020_2067" x1="17.486" y1="12.9936" x2="14.2384" y2="12.2933" gradientUnits="userSpaceOnUse">
<stop stop-color="#604D4B"/>
<stop offset="1" stop-color="#624D4A"/>
</linearGradient>
<linearGradient id="paint15_linear_20020_2067" x1="23.807" y1="14.1235" x2="20.5594" y2="13.4232" gradientUnits="userSpaceOnUse">
<stop stop-color="#604D4B"/>
<stop offset="1" stop-color="#624D4A"/>
</linearGradient>
<radialGradient id="paint16_radial_20020_2067" cx="0" cy="0" r="1" gradientUnits="userSpaceOnUse" gradientTransform="translate(18.9823 24.689) rotate(-73.725) scale(9.47969 12.6818)">
<stop offset="0.765766" stop-color="#593A34" stop-opacity="0"/>
<stop offset="1" stop-color="#593A34"/>
</radialGradient>
<radialGradient id="paint17_radial_20020_2067" cx="0" cy="0" r="1" gradientUnits="userSpaceOnUse" gradientTransform="translate(15.4169 15.1091) rotate(30.3564) scale(3.5506 5.62295)">
<stop stop-color="#251412"/>
<stop offset="1" stop-color="#251412" stop-opacity="0"/>
</radialGradient>
<radialGradient id="paint18_radial_20020_2067" cx="0" cy="0" r="1" gradientUnits="userSpaceOnUse" gradientTransform="translate(20.0613 20.7812) rotate(99.3295) scale(2.98159 6.08814)">
<stop stop-color="#3B202E"/>
<stop offset="1" stop-color="#3B202E" stop-opacity="0"/>
</radialGradient>
<linearGradient id="paint19_linear_20020_2067" x1="19.4646" y1="17.2688" x2="24.9306" y2="20.2429" gradientUnits="userSpaceOnUse">
<stop stop-color="#634F4D"/>
<stop offset="1" stop-color="#634F4D" stop-opacity="0"/>
</linearGradient>
</defs>
</svg>
