<svg width="32" height="32" viewBox="0 0 32 32" fill="none" xmlns="http://www.w3.org/2000/svg">
<rect x="2" y="2" width="28" height="28" rx="4" fill="url(#paint0_linear_4_1067)"/>
<path d="M2 26H30V26C30 28.2091 28.2091 30 26 30H6C3.79086 30 2 28.2091 2 26V26Z" fill="url(#paint1_linear_4_1067)"/>
<path d="M6 2L6 30V30C3.79086 30 2 28.2091 2 26L2 6C2 3.79086 3.79086 2 6 2V2Z" fill="url(#paint2_linear_4_1067)"/>
<g opacity="0.2" filter="url(#filter0_f_4_1067)">
<rect x="5" y="4" width="23" height="1" fill="white"/>
</g>
<g opacity="0.2" filter="url(#filter1_f_4_1067)">
<rect x="27" y="4" width="1" height="22" fill="white"/>
</g>
<g opacity="0.6" filter="url(#filter2_f_4_1067)">
<circle cx="27" cy="5" r="1" fill="white"/>
</g>
<path fill-rule="evenodd" clip-rule="evenodd" d="M17.06 11.39C17.06 14.57 14.47 17.16 11.29 17.16C8.10996 17.16 5.51996 14.57 5.51996 11.39C5.51996 8.95 7.03996 6.87 9.17996 6.03C9.17996 6.02 9.18996 6.02 9.18996 6.02C10.86 5.34 12.63 5 14.45 5C16.86 5 19.24 5.62 21.33 6.8C23.36 7.94 25.09 9.58 26.33 11.55C26.63 12.02 26.49 12.63 26.02 12.93C25.86 13.04 25.67 13.09 25.49 13.09C25.15 13.09 24.83 12.92 24.64 12.62C22.53 9.27 18.97 7.21 15.05 7.02C16.28 8.07 17.06 9.64 17.06 11.39ZM15.06 11.39C15.06 9.31 13.37 7.62 11.29 7.62C9.20996 7.62 7.51996 9.31 7.51996 11.39C7.51996 13.47 9.20996 15.16 11.29 15.16C13.37 15.16 15.06 13.47 15.06 11.39ZM20.71 14.84C23.89 14.84 26.48 17.43 26.48 20.61C26.48 23.04 24.96 25.13 22.82 25.97C22.82 25.975 22.82 25.9775 22.8187 25.9787C22.8175 25.98 22.815 25.98 22.81 25.98C21.14 26.66 19.37 27 17.55 27C15.14 27 12.76 26.38 10.67 25.2C8.63997 24.06 6.90997 22.42 5.66997 20.45C5.36997 19.98 5.50997 19.37 5.97997 19.07C6.44997 18.77 7.05997 18.91 7.35997 19.38C9.46997 22.73 13.03 24.79 16.95 24.98C15.72 23.93 14.94 22.36 14.94 20.61C14.94 17.43 17.53 14.84 20.71 14.84ZM16.94 20.61C16.94 22.69 18.63 24.38 20.71 24.38C22.79 24.38 24.48 22.69 24.48 20.61C24.48 18.53 22.79 16.84 20.71 16.84C18.63 16.84 16.94 18.53 16.94 20.61Z" fill="#F4F4F4"/>
<path d="M4.99512 29.0205H4.13672L3.09961 25.4111H3.89355L4.55859 28.2471H4.57031L5.28516 25.4111H6.09082L6.78516 28.209H6.79688L7.47656 25.4111H8.24707L7.18945 29.0205H6.36914L5.70996 26.3047H5.70117L4.99512 29.0205Z" fill="#FFC444"/>
<path d="M9.60352 29H8.85938V25.4111H9.60352V29Z" fill="#FFC444"/>
<path d="M10.5996 29V25.4111H12.0322C12.3057 25.4111 12.5439 25.459 12.7471 25.5547C12.9521 25.6504 13.1104 25.79 13.2217 25.9736C13.333 26.1572 13.3887 26.377 13.3887 26.6328C13.3887 26.8887 13.333 27.1084 13.2217 27.292C13.1104 27.4756 12.9521 27.6162 12.7471 27.7139C12.5439 27.8096 12.3057 27.8574 12.0322 27.8574H11.3467V29H10.5996ZM11.918 27.2598C12.1523 27.2598 12.332 27.209 12.457 27.1074C12.582 27.0039 12.6445 26.8457 12.6445 26.6328C12.6445 26.4199 12.582 26.2627 12.457 26.1611C12.332 26.0576 12.1523 26.0059 11.918 26.0059H11.3467V27.2598H11.918Z" fill="#FFC444"/>
<path d="M0 0V-2H-2V0H0ZM32 0H34V-2H32V0ZM32 32V34H34V32H32ZM0 32H-2V34H0V32ZM0 2H32V-2H0V2ZM30 0V32H34V0H30ZM32 30H0V34H32V30ZM2 32V0H-2V32H2Z" fill="#FFC444"/>
<defs>
<filter id="filter0_f_4_1067" x="3" y="2" width="27" height="5" filterUnits="userSpaceOnUse" color-interpolation-filters="sRGB">
<feFlood flood-opacity="0" result="BackgroundImageFix"/>
<feBlend mode="normal" in="SourceGraphic" in2="BackgroundImageFix" result="shape"/>
<feGaussianBlur stdDeviation="1" result="effect1_foregroundBlur_4_1067"/>
</filter>
<filter id="filter1_f_4_1067" x="25" y="2" width="5" height="26" filterUnits="userSpaceOnUse" color-interpolation-filters="sRGB">
<feFlood flood-opacity="0" result="BackgroundImageFix"/>
<feBlend mode="normal" in="SourceGraphic" in2="BackgroundImageFix" result="shape"/>
<feGaussianBlur stdDeviation="1" result="effect1_foregroundBlur_4_1067"/>
</filter>
<filter id="filter2_f_4_1067" x="23" y="1" width="8" height="8" filterUnits="userSpaceOnUse" color-interpolation-filters="sRGB">
<feFlood flood-opacity="0" result="BackgroundImageFix"/>
<feBlend mode="normal" in="SourceGraphic" in2="BackgroundImageFix" result="shape"/>
<feGaussianBlur stdDeviation="1.5" result="effect1_foregroundBlur_4_1067"/>
</filter>
<linearGradient id="paint0_linear_4_1067" x1="30" y1="2" x2="2" y2="30" gradientUnits="userSpaceOnUse">
<stop stop-color="#B690FF"/>
<stop offset="1" stop-color="#5B46A2"/>
</linearGradient>
<linearGradient id="paint1_linear_4_1067" x1="19" y1="29" x2="19" y2="26" gradientUnits="userSpaceOnUse">
<stop stop-color="#5936B4"/>
<stop offset="1" stop-color="#6A50AD" stop-opacity="0"/>
</linearGradient>
<linearGradient id="paint2_linear_4_1067" x1="3" y1="19" x2="6" y2="19" gradientUnits="userSpaceOnUse">
<stop stop-color="#583EAC"/>
<stop offset="1" stop-color="#6A50AD" stop-opacity="0"/>
</linearGradient>
</defs>
</svg>
