<svg width="32" height="32" viewBox="0 0 32 32" fill="none" xmlns="http://www.w3.org/2000/svg">
<path d="M11.3194 5.22494C11.4621 5.22733 11.5991 5.28135 11.705 5.37699L11.702 5.38299C11.7551 5.43203 11.7979 5.49115 11.8279 5.55691C11.858 5.62266 11.8746 5.69373 11.877 5.76599C11.8787 5.80243 11.8665 5.83817 11.843 5.86599C11.8307 5.87974 11.8162 5.89125 11.8 5.89999C11.784 5.90627 11.7671 5.90966 11.75 5.90999H11.441C11.452 5.86517 11.4574 5.81915 11.457 5.77299C11.4684 5.66433 11.4371 5.55548 11.3697 5.46946C11.3024 5.38343 11.2042 5.32696 11.096 5.31199C11.0364 5.31235 10.9782 5.33045 10.929 5.36399C11.038 5.27195 11.1767 5.22255 11.3194 5.22494Z" fill="#212121"/>
<path d="M11.3039 7.53829C11.1453 7.61881 10.9613 7.63348 10.7919 7.57909C10.7758 7.57456 10.7607 7.56681 10.7476 7.55632C10.7345 7.54583 10.7236 7.5328 10.7156 7.51802C10.7077 7.50324 10.7028 7.487 10.7012 7.47028C10.6997 7.45356 10.7015 7.4367 10.7066 7.42071C10.7117 7.40471 10.72 7.38991 10.7309 7.37718C10.7419 7.36446 10.7553 7.35407 10.7704 7.34664C10.7854 7.33921 10.8018 7.33488 10.8186 7.33393C10.8354 7.33298 10.8521 7.33541 10.8679 7.34109C10.9744 7.37501 11.09 7.36571 11.1897 7.3152C11.2894 7.26469 11.3653 7.17702 11.4009 7.07109C11.4113 7.03953 11.4337 7.01337 11.4634 6.99837C11.493 6.98337 11.5274 6.98075 11.5589 6.99109C11.5905 7.00143 11.6167 7.02389 11.6317 7.05352C11.6467 7.08315 11.6493 7.11753 11.6389 7.14909C11.5829 7.31791 11.4625 7.45778 11.3039 7.53829Z" fill="#212121"/>
<path d="M10.9099 5.67005H10.8959C10.8845 5.70868 10.8788 5.74877 10.8789 5.78905C10.8788 5.83079 10.8852 5.87229 10.8979 5.91205H11.2609C11.2736 5.87229 11.28 5.83079 11.2799 5.78905C11.2799 5.62805 11.1899 5.49805 11.0799 5.49805C11.04 5.49866 11.0017 5.51438 10.9729 5.54205C10.9773 5.55493 10.9797 5.56843 10.9799 5.58205C10.9819 5.60292 10.9757 5.62376 10.9627 5.64017C10.9496 5.65658 10.9307 5.66729 10.9099 5.67005Z" fill="#212121"/>
<path d="M28.646 18.9L30.819 22.085C30.9602 22.2878 31.0359 22.529 31.0359 22.776C31.0359 23.0231 30.9602 23.2643 30.819 23.467L30.767 23.541L30.703 23.605C30.6382 23.6701 30.5676 23.729 30.492 23.781C30.3559 23.9393 30.1888 24.068 30.001 24.159C29.8133 24.2501 29.6092 24.3021 29.401 24.312C29.219 24.3124 29.0395 24.2699 28.877 24.188L26.309 22.8881L20.9 24.1C20.345 24.2208 19.7671 24.1816 19.2335 23.9868C18.7 23.7921 18.2327 23.4499 17.886 23L17.092 21.909L16.935 22.1271C16.8178 22.2854 16.6803 22.4276 16.526 22.55C16.5195 22.5559 16.5134 22.5622 16.508 22.569C16.5021 22.5762 16.4958 22.5829 16.489 22.5891H16.467C16.387 22.6552 16.3028 22.716 16.215 22.771C15.9307 22.9323 15.6147 23.0299 15.289 23.057C15.2262 23.0637 15.1631 23.0664 15.1 23.0651C14.8579 23.06 14.6181 23.0161 14.39 22.935L14.358 22.9401L14.325 22.9291C14.248 22.8961 14.1729 22.859 14.1 22.8181C14.085 22.811 14.0697 22.805 14.054 22.8C14.0352 22.7946 14.0171 22.7873 14 22.778L13.638 23.053L10.402 28.726L9.64896 30.1201C9.52458 30.3615 9.33601 30.5639 9.104 30.705C8.87198 30.8462 8.60553 30.9206 8.33396 30.92C8.28151 30.9204 8.22909 30.9177 8.17696 30.9121C7.9844 30.8922 7.79775 30.834 7.62796 30.741C7.33796 30.586 4.77596 29.212 4.18496 28.8321C3.94603 28.6471 3.77451 28.3887 3.69681 28.0967C3.61912 27.8047 3.63955 27.4953 3.75496 27.216C3.81444 26.9252 3.96914 26.6626 4.19461 26.4695C4.42008 26.2764 4.70346 26.164 4.99996 26.15H7.40796L9.04696 21.761C9.29794 20.8624 9.69599 20.0116 10.225 19.243L10.3 19.135L10.4 19.05L12.1 17.6L12.44 17.3C12.0394 16.5707 11.7349 15.7925 11.534 14.9851C11.465 14.996 11.4 15.0061 11.334 15.0141C10.9211 15.0709 10.5047 15.0993 10.088 15.0991C8.15728 15.1027 6.27463 14.4973 4.70796 13.3691L4.35796 13.1761L4.30796 13.1481L4.26096 13.1151C3.89598 12.855 3.59363 12.5168 3.37596 12.1251L3.32996 12.0421L3.29996 11.9521C3.18587 11.6069 3.15268 11.2402 3.20297 10.8802C3.25325 10.5203 3.38566 10.1767 3.58996 9.87605L3.61096 9.84605L3.63396 9.81705C3.93208 9.44187 4.30717 9.13497 4.73396 8.91705L4.76596 8.90005L4.79796 8.88905C4.96895 8.81592 5.15298 8.77816 5.33896 8.77805C5.52762 8.7779 5.71413 8.81814 5.88596 8.89605C5.92648 8.89187 5.96723 8.8902 6.00796 8.89105C6.26105 8.89101 6.50933 8.96017 6.72596 9.09105C7.13893 9.32019 7.45506 9.69102 7.61596 10.1351C8.18969 10.4675 8.82463 10.6808 9.48273 10.762C10.1408 10.8433 10.8086 10.7909 11.446 10.6081C11.475 10.4721 11.506 10.3371 11.54 10.2031L11.598 9.98005C11.559 9.97645 11.521 9.96853 11.4831 9.96061C11.4578 9.95533 11.4326 9.95005 11.407 9.94605C10.8483 9.884 10.3317 9.61954 9.95476 9.20259C9.5778 8.78565 9.36656 8.24511 9.36096 7.68305C9.18564 7.55226 9.04736 7.37811 8.9597 7.17772C8.87204 6.97732 8.83801 6.75757 8.86096 6.54005C8.87972 6.22938 8.99549 5.93244 9.19196 5.69105L9.20668 5.67076C9.24307 5.62067 9.28728 5.55985 9.33996 5.47205V4.99005C9.34173 4.82019 9.35879 4.65084 9.39096 4.48405C9.22863 4.22782 9.12211 3.94026 9.07834 3.64011C9.03458 3.33997 9.05455 3.03396 9.13696 2.74205C9.25391 2.2688 9.5182 1.84494 9.8917 1.53166C10.2652 1.21838 10.7286 1.03187 11.215 0.99905C11.4196 0.997904 11.6228 1.03347 11.815 1.10405C11.9539 1.15195 12.0716 1.19801 12.178 1.23959L12.192 1.24505C12.2816 1.28948 12.3773 1.32048 12.476 1.33705C12.5937 1.32893 12.7099 1.30609 12.822 1.26905C13.2274 1.15259 13.6471 1.09269 14.069 1.09105C14.4672 1.05952 14.8676 1.11294 15.2436 1.24776C15.6197 1.38258 15.9628 1.59573 16.2503 1.87311C16.5378 2.15048 16.7631 2.48576 16.9113 2.85673C17.0595 3.22771 17.1272 3.62594 17.11 4.02505C17.1271 4.61642 17.0751 5.20777 16.955 5.78705C17.0436 5.86771 17.1247 5.95643 17.197 6.05205C17.4005 6.30563 17.5521 6.59685 17.643 6.90905L17.687 6.89305L17.7 6.90005L17.84 6.84105C18.3343 6.63541 18.8645 6.52971 19.4 6.53005C19.5833 6.53108 19.7663 6.5441 19.948 6.56905C20.6659 6.6661 21.3449 6.95297 21.915 7.40005L23.419 8.57605L24.182 9.14305L24.858 9.64305C25.2388 9.89409 25.5653 10.2192 25.818 10.5991L25.874 10.6831L25.912 10.7771C26.005 11.1578 26.0009 11.5559 25.9001 11.9347C25.7993 12.3135 25.6049 12.6609 25.335 12.9451C25.0213 13.3097 24.6278 13.5972 24.185 13.7851L24.149 13.8001L24.112 13.8131C23.9705 13.8609 23.8222 13.8852 23.673 13.8851C23.381 13.8851 23.097 13.79 22.864 13.6141H22.71C22.39 13.5902 22.0867 13.4624 21.8462 13.2501C21.6057 13.0377 21.4412 12.7526 21.378 12.4381L19.363 10.8681L18.3 11.2881L18.06 11.4001C18.3876 12.4547 18.8324 13.4694 19.386 14.4251C19.5429 14.6252 19.6771 14.8422 19.786 15.0721L20.438 16.092L21.606 18.085C21.8448 18.4746 21.9553 18.9293 21.922 19.385L25.792 19.0441L26.532 18.534L26.661 18.441C26.878 18.2842 27.1391 18.1998 27.407 18.2001C27.6529 18.214 27.8923 18.2842 28.107 18.4051C28.3227 18.5258 28.5073 18.6953 28.646 18.9ZM18.1537 21.6412L20.38 20.2299C20.4636 20.1754 20.5393 20.1111 20.606 20.039C20.7832 19.8475 20.8931 19.6034 20.9191 19.3437C20.9451 19.084 20.8857 18.8229 20.75 18.6L19.99 17.342L19.9822 17.3693L18.9657 15.6874C18.94 15.6229 18.9117 15.5594 18.881 15.4971C18.8615 15.458 18.8395 15.4202 18.815 15.3841L18.805 15.3689C18.7934 15.3512 18.7819 15.3337 18.771 15.3151L13.729 17.4921V17.4991L12.758 18.35L11.71 19.25L14.21 21.703C14.4381 21.922 14.7389 22.0492 15.055 22.06H15.198C15.3443 22.0449 15.487 22.005 15.62 21.942C15.6316 21.9362 15.6436 21.9312 15.656 21.927C15.676 21.9202 15.6955 21.9115 15.714 21.901C15.7327 21.8889 15.7495 21.8741 15.764 21.857C15.7768 21.8431 15.7908 21.8304 15.806 21.819C15.924 21.7438 16.0287 21.6495 16.116 21.5401L16.161 21.4781C16.2379 21.3713 16.4122 21.1329 16.6304 20.8337L16.7687 20.6658C16.986 20.402 17.3981 20.4291 17.5789 20.7192L18.1537 21.6412ZM18.7366 22.4557C18.9529 22.7115 19.2306 22.9097 19.5448 23.0307C19.909 23.1711 20.3064 23.2018 20.688 23.119L26.492 21.819L26.101 20.0401L26.13 20.0131L21.5756 20.4143C21.409 20.6733 21.1885 20.8968 20.9257 21.0679L20.9155 21.0745L18.7366 22.4557ZM19.4 7.53005C18.9976 7.53017 18.5991 7.60898 18.227 7.76205L17.724 7.96405C17.7214 7.98259 17.7207 8.00254 17.7199 8.02302C17.7188 8.05115 17.7177 8.08027 17.712 8.10805C17.7066 8.13361 17.6968 8.15662 17.6869 8.17965C17.6782 8.19986 17.6696 8.22008 17.664 8.24205C17.6655 8.24551 17.6682 8.24898 17.671 8.2525C17.6754 8.25813 17.68 8.2639 17.68 8.27005L17.7 8.31405L18.427 10.1561L19.1 9.89005H19.107C19.202 9.85026 19.304 9.82986 19.407 9.83005C19.4404 9.8299 19.4738 9.83223 19.507 9.83705C19.6431 9.85495 19.772 9.90918 19.88 9.99405L22.297 11.8801C22.317 12.1921 22.415 12.5841 22.774 12.6081H23.294C23.3282 12.6818 23.3809 12.7455 23.4469 12.793C23.513 12.8405 23.5901 12.8701 23.671 12.8791C23.7128 12.8781 23.7542 12.871 23.794 12.8581C24.0947 12.7312 24.3618 12.5361 24.574 12.2881C24.854 11.9581 25.094 11.4181 24.984 11.1481C24.8 10.8729 24.5618 10.6381 24.284 10.4581L23.584 9.93805L23.569 9.95605L21.294 8.18405C20.8639 7.84671 20.3516 7.63027 19.81 7.55705C19.674 7.53907 19.5371 7.53005 19.4 7.53005ZM10.217 5.95005C10.127 6.10005 10.055 6.20005 9.99996 6.27605C9.91931 6.36199 9.86998 6.47262 9.85996 6.59005C9.82996 6.90005 10.12 6.98005 10.26 7.00005C10.2797 7.00183 10.2979 7.01114 10.311 7.02603C10.324 7.04093 10.3308 7.06027 10.33 7.08005C10.35 8.19005 10.55 8.98005 11.87 8.99005H11.9C12.2265 8.98588 12.5506 8.93365 12.862 8.83505L13.13 9.36505C13.3613 9.10015 13.6513 8.89297 13.977 8.76005C13.7219 8.56028 13.5177 8.30307 13.3809 8.00938C13.2441 7.71568 13.1787 7.39383 13.19 7.07005L13.198 6.63305C13.2925 6.64007 13.3876 6.62887 13.478 6.60005C13.5786 6.56795 13.6714 6.51492 13.7501 6.44443C13.8288 6.37395 13.8917 6.28761 13.9346 6.19109C13.9776 6.09457 13.9997 5.99004 13.9994 5.88439C13.9991 5.77873 13.9765 5.67433 13.933 5.57805C13.8902 5.48141 13.8271 5.39512 13.748 5.32505C13.5993 5.19306 13.4045 5.12513 13.206 5.13605C13.1811 4.95217 13.1091 4.77785 12.997 4.63005C12.8734 4.47308 12.6945 4.36931 12.497 4.34005H12.487C12.3279 4.31036 12.1635 4.33134 12.017 4.40005C11.8251 4.48514 11.6178 4.52992 11.408 4.53165C11.3643 4.532 11.3207 4.53049 11.2773 4.52714C11.4858 4.54944 11.6873 4.6229 11.863 4.74306C11.8787 4.7519 11.8923 4.76391 11.9031 4.77831C11.9139 4.79272 11.9216 4.80921 11.9257 4.82674C11.9298 4.84427 11.9302 4.86246 11.9269 4.88016C11.9236 4.89786 11.9166 4.91467 11.9065 4.92954C11.8963 4.94442 11.8832 4.95702 11.868 4.96655C11.8527 4.97609 11.8356 4.98235 11.8178 4.98493C11.8 4.98752 11.7818 4.98638 11.7645 4.98158C11.7471 4.97678 11.7309 4.96843 11.717 4.95706C11.5089 4.81596 11.2562 4.75617 11.007 4.78906C10.99 4.79129 10.9728 4.79016 10.9563 4.78574C10.9398 4.78132 10.9243 4.77369 10.9108 4.76329C10.8972 4.75289 10.8858 4.73992 10.8773 4.72513C10.8688 4.71033 10.8632 4.694 10.861 4.67706C10.8587 4.66012 10.8599 4.6429 10.8643 4.6264C10.8687 4.60989 10.8763 4.59442 10.8867 4.58086C10.8971 4.5673 10.9101 4.55593 10.9249 4.54738C10.9397 4.53884 10.956 4.53329 10.973 4.53106C11.0609 4.51936 11.1492 4.51693 11.2365 4.52344C11.0855 4.5077 10.9373 4.46957 10.797 4.41005C10.6976 4.36304 10.6011 4.31028 10.508 4.25205C10.3979 4.4862 10.3395 4.74132 10.337 5.00005V5.50005C10.3375 5.65803 10.2961 5.81332 10.217 5.95005ZM11.197 14.0241C11.5742 13.972 11.9474 13.8942 12.314 13.7911H12.317C12.2569 12.9831 12.2582 12.1718 12.321 11.3641C11.4182 11.7326 10.4385 11.8727 9.46868 11.772C8.49883 11.6714 7.56879 11.3331 6.76096 10.7871C6.73965 10.6182 6.68012 10.4563 6.58689 10.3139C6.49367 10.1715 6.3692 10.0522 6.22296 9.96505C6.16336 9.92605 6.09415 9.90425 6.02296 9.90205V9.91805C5.7428 10.1953 5.49059 10.4994 5.26996 10.8261C5.24724 10.8791 5.24267 10.9381 5.25696 10.9941C5.27118 11.0373 5.29799 11.0752 5.33396 11.1031C5.36667 11.1288 5.40508 11.1463 5.44596 11.1541C5.45586 11.156 5.46606 11.156 5.47596 11.1541C5.57296 11.0541 5.66596 10.9541 5.75296 10.8541C5.76972 10.8233 5.79021 10.7948 5.81396 10.7691C5.91396 10.6601 5.99696 10.7011 6.03396 10.7461C6.05215 10.7684 6.06209 10.7963 6.06209 10.8251C6.06209 10.8538 6.05215 10.8817 6.03396 10.9041C6.00996 10.9341 5.98496 10.9651 5.95996 10.9941L5.95096 11.0141C5.8872 11.2017 5.86669 11.4013 5.89096 11.5981C5.89216 11.6144 5.88977 11.6308 5.88396 11.6461C5.87917 11.6617 5.87097 11.676 5.85996 11.6881C5.8493 11.7008 5.83599 11.711 5.82096 11.7181C5.80586 11.7251 5.78957 11.7291 5.77296 11.7301C5.75672 11.731 5.74045 11.729 5.72496 11.7241C5.70958 11.7183 5.69536 11.7098 5.68296 11.6991C5.67081 11.6879 5.66066 11.6747 5.65296 11.6601C5.64607 11.6453 5.642 11.6293 5.64096 11.6131V11.3401C5.60873 11.3662 5.57119 11.3849 5.53096 11.3951C5.49051 11.4046 5.44841 11.4046 5.40796 11.3951C5.32474 11.3815 5.24631 11.3471 5.17996 11.2951C5.10305 11.2359 5.04672 11.154 5.01896 11.0611C4.98724 10.948 4.99572 10.8275 5.04296 10.7201L5.05296 10.7001C5.23053 10.4356 5.4274 10.1845 5.64196 9.94905C5.61462 9.91022 5.58079 9.87639 5.54196 9.84905C5.48177 9.81038 5.41318 9.78671 5.34196 9.78005C5.29026 9.78003 5.23915 9.79094 5.19196 9.81205C4.89362 9.96523 4.63118 10.18 4.42196 10.4421C4.30341 10.6156 4.22641 10.8141 4.19693 11.0222C4.16745 11.2303 4.18628 11.4424 4.25196 11.6421C4.39735 11.903 4.59886 12.1284 4.84196 12.3021L5.24196 12.5241C6.95944 13.7729 9.09282 14.3102 11.197 14.0241ZM9.30996 28.6201L12.865 22.38L13.209 22.119L10.979 19.934C10.5418 20.5898 10.2113 21.3108 9.99996 22.07L8.09996 27.15H8.18996L9.23396 28.569L9.30996 28.6201Z" fill="#212121"/>
</svg>
