<svg width="32" height="32" viewBox="0 0 32 32" fill="none" xmlns="http://www.w3.org/2000/svg">
<path d="M25.0723 20.9279C25.6973 20.9077 26.2826 20.6958 26.7588 20.3527V22.0884C26.7588 23.7536 25.7667 25.2371 24.2588 25.8527C24.5762 25.1765 24.7945 24.4398 24.9036 23.6527L25.0723 20.9279Z" fill="url(#paint0_radial_3930_2168)"/>
<path d="M25.0723 20.9279C25.6973 20.9077 26.2826 20.6958 26.7588 20.3527V22.0884C26.7588 23.7536 25.7667 25.2371 24.2588 25.8527C24.5762 25.1765 24.7945 24.4398 24.9036 23.6527L25.0723 20.9279Z" fill="url(#paint1_radial_3930_2168)"/>
<path d="M6.94527 20.9279C6.32027 20.9077 5.73495 20.6958 5.25876 20.3527V22.0884C5.25876 23.7536 6.25082 25.2371 7.75876 25.8527C7.4413 25.1765 7.22304 24.4398 7.11392 23.6527L6.94527 20.9279Z" fill="url(#paint2_radial_3930_2168)"/>
<path d="M6.94527 20.9279C6.32027 20.9077 5.73495 20.6958 5.25876 20.3527V22.0884C5.25876 23.7536 6.25082 25.2371 7.75876 25.8527C7.4413 25.1765 7.22304 24.4398 7.11392 23.6527L6.94527 20.9279Z" fill="url(#paint3_radial_3930_2168)"/>
<g filter="url(#filter0_ii_3930_2168)">
<path d="M7.01307 23.7526C7.49271 27.3926 10.5904 30.1026 14.2576 30.1026H17.775C21.4422 30.1026 24.5399 27.3926 25.0195 23.7526C25.2395 20.2407 25.4607 16.7428 25.6238 13.2327C25.6041 11.8026 24.4768 10.6227 23.0528 10.5627H20.4423C18.6624 10.5627 17.0506 9.51265 16.3188 7.87265C16.1309 7.40265 15.6761 7.09265 15.1718 7.09265H12.7985C9.35736 7.09265 6.56882 9.91264 6.56882 13.3926C6.56882 16.8618 6.78551 20.2748 7.01307 23.7526Z" fill="url(#paint4_radial_3930_2168)"/>
</g>
<path d="M7.01307 23.7526C7.49271 27.3926 10.5904 30.1026 14.2576 30.1026H17.775C21.4422 30.1026 24.5399 27.3926 25.0195 23.7526C25.2395 20.2407 25.4607 16.7428 25.6238 13.2327C25.6041 11.8026 24.4768 10.6227 23.0528 10.5627H20.4423C18.6624 10.5627 17.0506 9.51265 16.3188 7.87265C16.1309 7.40265 15.6761 7.09265 15.1718 7.09265H12.7985C9.35736 7.09265 6.56882 9.91264 6.56882 13.3926C6.56882 16.8618 6.78551 20.2748 7.01307 23.7526Z" fill="url(#paint5_linear_3930_2168)"/>
<path d="M7.01307 23.7526C7.49271 27.3926 10.5904 30.1026 14.2576 30.1026H17.775C21.4422 30.1026 24.5399 27.3926 25.0195 23.7526C25.2395 20.2407 25.4607 16.7428 25.6238 13.2327C25.6041 11.8026 24.4768 10.6227 23.0528 10.5627H20.4423C18.6624 10.5627 17.0506 9.51265 16.3188 7.87265C16.1309 7.40265 15.6761 7.09265 15.1718 7.09265H12.7985C9.35736 7.09265 6.56882 9.91264 6.56882 13.3926C6.56882 16.8618 6.78551 20.2748 7.01307 23.7526Z" fill="url(#paint6_radial_3930_2168)"/>
<path d="M7.01307 23.7526C7.49271 27.3926 10.5904 30.1026 14.2576 30.1026H17.775C21.4422 30.1026 24.5399 27.3926 25.0195 23.7526C25.2395 20.2407 25.4607 16.7428 25.6238 13.2327C25.6041 11.8026 24.4768 10.6227 23.0528 10.5627H20.4423C18.6624 10.5627 17.0506 9.51265 16.3188 7.87265C16.1309 7.40265 15.6761 7.09265 15.1718 7.09265H12.7985C9.35736 7.09265 6.56882 9.91264 6.56882 13.3926C6.56882 16.8618 6.78551 20.2748 7.01307 23.7526Z" fill="url(#paint7_radial_3930_2168)"/>
<path d="M7.01307 23.7526C7.49271 27.3926 10.5904 30.1026 14.2576 30.1026H17.775C21.4422 30.1026 24.5399 27.3926 25.0195 23.7526C25.2395 20.2407 25.4607 16.7428 25.6238 13.2327C25.6041 11.8026 24.4768 10.6227 23.0528 10.5627H20.4423C18.6624 10.5627 17.0506 9.51265 16.3188 7.87265C16.1309 7.40265 15.6761 7.09265 15.1718 7.09265H12.7985C9.35736 7.09265 6.56882 9.91264 6.56882 13.3926C6.56882 16.8618 6.78551 20.2748 7.01307 23.7526Z" fill="url(#paint8_radial_3930_2168)"/>
<path d="M7.01307 23.7526C7.49271 27.3926 10.5904 30.1026 14.2576 30.1026H17.775C21.4422 30.1026 24.5399 27.3926 25.0195 23.7526C25.2395 20.2407 25.4607 16.7428 25.6238 13.2327C25.6041 11.8026 24.4768 10.6227 23.0528 10.5627H20.4423C18.6624 10.5627 17.0506 9.51265 16.3188 7.87265C16.1309 7.40265 15.6761 7.09265 15.1718 7.09265H12.7985C9.35736 7.09265 6.56882 9.91264 6.56882 13.3926C6.56882 16.8618 6.78551 20.2748 7.01307 23.7526Z" fill="url(#paint9_radial_3930_2168)"/>
<g filter="url(#filter1_f_3930_2168)">
<path d="M14.9912 17.6302L13.9145 21.0577C13.7306 21.7627 14.172 22.4677 14.7973 22.4677H16.1308C16.7561 22.4677 17.1976 21.7518 17.0136 21.0577L16.1124 17.6302C15.9193 16.871 15.1935 16.871 14.9912 17.6302Z" fill="#EE9020"/>
</g>
<g filter="url(#filter2_f_3930_2168)">
<path d="M15.2959 17.2652L14.305 20.6927C14.1028 21.3977 14.5882 22.1027 15.2757 22.1027H16.7418C17.4294 22.1027 17.9147 21.3868 17.7125 20.6927L16.7216 17.2652C16.5093 16.506 15.5184 16.506 15.2959 17.2652Z" fill="url(#paint10_linear_3930_2168)"/>
<path d="M15.2959 17.2652L14.305 20.6927C14.1028 21.3977 14.5882 22.1027 15.2757 22.1027H16.7418C17.4294 22.1027 17.9147 21.3868 17.7125 20.6927L16.7216 17.2652C16.5093 16.506 15.5184 16.506 15.2959 17.2652Z" fill="url(#paint11_linear_3930_2168)"/>
<path d="M15.2959 17.2652L14.305 20.6927C14.1028 21.3977 14.5882 22.1027 15.2757 22.1027H16.7418C17.4294 22.1027 17.9147 21.3868 17.7125 20.6927L16.7216 17.2652C16.5093 16.506 15.5184 16.506 15.2959 17.2652Z" fill="url(#paint12_linear_3930_2168)"/>
<path d="M15.2959 17.2652L14.305 20.6927C14.1028 21.3977 14.5882 22.1027 15.2757 22.1027H16.7418C17.4294 22.1027 17.9147 21.3868 17.7125 20.6927L16.7216 17.2652C16.5093 16.506 15.5184 16.506 15.2959 17.2652Z" fill="url(#paint13_linear_3930_2168)"/>
</g>
<g filter="url(#filter3_f_3930_2168)">
<path d="M13.4604 23.3192L13.4604 23.3192L13.4597 23.3189C13.2986 23.237 13.1309 23.2878 13.0307 23.3932C12.9302 23.4991 12.8913 23.6677 12.9946 23.8174C13.6326 24.7838 14.7437 25.4277 16.0088 25.4277C17.2741 25.4277 18.3853 24.7835 19.0233 23.8169C19.1254 23.6636 19.0883 23.4951 18.9864 23.3894C18.8855 23.2846 18.7178 23.2375 18.5578 23.3189L18.5578 23.3189L18.5571 23.3192C17.8207 23.7032 16.9527 23.9231 16.0088 23.9231C15.0742 23.9231 14.1968 23.7031 13.4604 23.3192Z" stroke="url(#paint14_radial_3930_2168)" stroke-width="0.15"/>
</g>
<path d="M16.0088 23.9981C15.0626 23.9981 14.1732 23.7754 13.4257 23.3857C13.1703 23.2558 12.8959 23.5435 13.0567 23.7754C13.6812 24.7218 14.7693 25.3527 16.0088 25.3527C17.2482 25.3527 18.3363 24.7218 18.9608 23.7754C19.1216 23.5342 18.8473 23.2558 18.5918 23.3857C17.8443 23.7754 16.9644 23.9981 16.0088 23.9981Z" fill="url(#paint15_radial_3930_2168)"/>
<g filter="url(#filter4_ii_3930_2168)">
<path d="M25.0602 6.21266C26.0194 6.54266 26.8797 7.21266 27.4235 8.17266C28.2937 9.70266 28.1652 11.5327 27.2258 12.8827C26.8995 13.3627 26.7215 13.9327 26.7215 14.5127V16.7277C26.3727 16.4847 25.9127 16.3046 25.4775 16.2277L25.6239 13.2327C25.6041 11.8027 24.4768 10.6227 23.0529 10.5627H20.4423C18.6624 10.5627 17.0506 9.51266 16.3188 7.87266C16.131 7.40266 15.6761 7.09266 15.1718 7.09266H12.7985C9.35737 7.09266 6.56883 9.91266 6.56883 13.3927L6.62595 16.2589C6.15245 16.3285 5.6578 16.4868 5.28333 16.7505V14.5127C5.28333 13.9327 5.10534 13.3627 4.77902 12.8827C3.88906 11.5727 3.73085 9.81266 4.51203 8.32266C5.0559 7.29266 5.93597 6.57266 6.9347 6.22266C8.00265 5.84266 8.91239 5.12266 9.51558 4.15266C10.2869 2.92266 11.6416 2.10266 13.1941 2.10266C13.7973 2.10266 14.3708 2.23266 14.9048 2.45266C15.6168 2.76266 16.4177 2.76266 17.1297 2.45266C17.6538 2.23266 18.2273 2.10266 18.8305 2.10266C20.4028 2.10266 21.7772 2.95266 22.5387 4.21266C23.1122 5.16266 24.012 5.85266 25.0602 6.21266Z" fill="url(#paint16_linear_3930_2168)"/>
<path d="M25.0602 6.21266C26.0194 6.54266 26.8797 7.21266 27.4235 8.17266C28.2937 9.70266 28.1652 11.5327 27.2258 12.8827C26.8995 13.3627 26.7215 13.9327 26.7215 14.5127V16.7277C26.3727 16.4847 25.9127 16.3046 25.4775 16.2277L25.6239 13.2327C25.6041 11.8027 24.4768 10.6227 23.0529 10.5627H20.4423C18.6624 10.5627 17.0506 9.51266 16.3188 7.87266C16.131 7.40266 15.6761 7.09266 15.1718 7.09266H12.7985C9.35737 7.09266 6.56883 9.91266 6.56883 13.3927L6.62595 16.2589C6.15245 16.3285 5.6578 16.4868 5.28333 16.7505V14.5127C5.28333 13.9327 5.10534 13.3627 4.77902 12.8827C3.88906 11.5727 3.73085 9.81266 4.51203 8.32266C5.0559 7.29266 5.93597 6.57266 6.9347 6.22266C8.00265 5.84266 8.91239 5.12266 9.51558 4.15266C10.2869 2.92266 11.6416 2.10266 13.1941 2.10266C13.7973 2.10266 14.3708 2.23266 14.9048 2.45266C15.6168 2.76266 16.4177 2.76266 17.1297 2.45266C17.6538 2.23266 18.2273 2.10266 18.8305 2.10266C20.4028 2.10266 21.7772 2.95266 22.5387 4.21266C23.1122 5.16266 24.012 5.85266 25.0602 6.21266Z" fill="url(#paint17_radial_3930_2168)"/>
<path d="M25.0602 6.21266C26.0194 6.54266 26.8797 7.21266 27.4235 8.17266C28.2937 9.70266 28.1652 11.5327 27.2258 12.8827C26.8995 13.3627 26.7215 13.9327 26.7215 14.5127V16.7277C26.3727 16.4847 25.9127 16.3046 25.4775 16.2277L25.6239 13.2327C25.6041 11.8027 24.4768 10.6227 23.0529 10.5627H20.4423C18.6624 10.5627 17.0506 9.51266 16.3188 7.87266C16.131 7.40266 15.6761 7.09266 15.1718 7.09266H12.7985C9.35737 7.09266 6.56883 9.91266 6.56883 13.3927L6.62595 16.2589C6.15245 16.3285 5.6578 16.4868 5.28333 16.7505V14.5127C5.28333 13.9327 5.10534 13.3627 4.77902 12.8827C3.88906 11.5727 3.73085 9.81266 4.51203 8.32266C5.0559 7.29266 5.93597 6.57266 6.9347 6.22266C8.00265 5.84266 8.91239 5.12266 9.51558 4.15266C10.2869 2.92266 11.6416 2.10266 13.1941 2.10266C13.7973 2.10266 14.3708 2.23266 14.9048 2.45266C15.6168 2.76266 16.4177 2.76266 17.1297 2.45266C17.6538 2.23266 18.2273 2.10266 18.8305 2.10266C20.4028 2.10266 21.7772 2.95266 22.5387 4.21266C23.1122 5.16266 24.012 5.85266 25.0602 6.21266Z" fill="url(#paint18_radial_3930_2168)"/>
<path d="M25.0602 6.21266C26.0194 6.54266 26.8797 7.21266 27.4235 8.17266C28.2937 9.70266 28.1652 11.5327 27.2258 12.8827C26.8995 13.3627 26.7215 13.9327 26.7215 14.5127V16.7277C26.3727 16.4847 25.9127 16.3046 25.4775 16.2277L25.6239 13.2327C25.6041 11.8027 24.4768 10.6227 23.0529 10.5627H20.4423C18.6624 10.5627 17.0506 9.51266 16.3188 7.87266C16.131 7.40266 15.6761 7.09266 15.1718 7.09266H12.7985C9.35737 7.09266 6.56883 9.91266 6.56883 13.3927L6.62595 16.2589C6.15245 16.3285 5.6578 16.4868 5.28333 16.7505V14.5127C5.28333 13.9327 5.10534 13.3627 4.77902 12.8827C3.88906 11.5727 3.73085 9.81266 4.51203 8.32266C5.0559 7.29266 5.93597 6.57266 6.9347 6.22266C8.00265 5.84266 8.91239 5.12266 9.51558 4.15266C10.2869 2.92266 11.6416 2.10266 13.1941 2.10266C13.7973 2.10266 14.3708 2.23266 14.9048 2.45266C15.6168 2.76266 16.4177 2.76266 17.1297 2.45266C17.6538 2.23266 18.2273 2.10266 18.8305 2.10266C20.4028 2.10266 21.7772 2.95266 22.5387 4.21266C23.1122 5.16266 24.012 5.85266 25.0602 6.21266Z" fill="url(#paint19_radial_3930_2168)"/>
<path d="M25.0602 6.21266C26.0194 6.54266 26.8797 7.21266 27.4235 8.17266C28.2937 9.70266 28.1652 11.5327 27.2258 12.8827C26.8995 13.3627 26.7215 13.9327 26.7215 14.5127V16.7277C26.3727 16.4847 25.9127 16.3046 25.4775 16.2277L25.6239 13.2327C25.6041 11.8027 24.4768 10.6227 23.0529 10.5627H20.4423C18.6624 10.5627 17.0506 9.51266 16.3188 7.87266C16.131 7.40266 15.6761 7.09266 15.1718 7.09266H12.7985C9.35737 7.09266 6.56883 9.91266 6.56883 13.3927L6.62595 16.2589C6.15245 16.3285 5.6578 16.4868 5.28333 16.7505V14.5127C5.28333 13.9327 5.10534 13.3627 4.77902 12.8827C3.88906 11.5727 3.73085 9.81266 4.51203 8.32266C5.0559 7.29266 5.93597 6.57266 6.9347 6.22266C8.00265 5.84266 8.91239 5.12266 9.51558 4.15266C10.2869 2.92266 11.6416 2.10266 13.1941 2.10266C13.7973 2.10266 14.3708 2.23266 14.9048 2.45266C15.6168 2.76266 16.4177 2.76266 17.1297 2.45266C17.6538 2.23266 18.2273 2.10266 18.8305 2.10266C20.4028 2.10266 21.7772 2.95266 22.5387 4.21266C23.1122 5.16266 24.012 5.85266 25.0602 6.21266Z" fill="url(#paint20_radial_3930_2168)"/>
</g>
<g filter="url(#filter5_i_3930_2168)">
<path d="M22.9683 13.0423C22.6417 12.7578 22.2619 12.4564 21.6865 12.2752C21.1193 12.0967 20.4089 12.0487 19.426 12.169C19.1425 12.2036 18.9409 12.4615 18.9755 12.745C19.0102 13.0284 19.2681 13.2301 19.5515 13.1954C20.4486 13.0857 20.9982 13.1427 21.376 13.2616C21.7457 13.378 21.9958 13.5666 22.2892 13.8221C22.5045 14.0096 22.8311 13.9871 23.0186 13.7718C23.2062 13.5564 23.1837 13.2298 22.9683 13.0423Z" fill="#96602E"/>
</g>
<g filter="url(#filter6_i_3930_2168)">
<path d="M9.64948 12.839C9.81751 12.7384 10.0593 12.6098 10.3646 12.4897C10.9751 12.2497 11.8476 12.0412 12.8916 12.1689C13.175 12.2036 13.3767 12.4615 13.342 12.7449C13.3073 13.0284 13.0494 13.2301 12.766 13.1954C11.93 13.0931 11.2325 13.2596 10.743 13.4521C10.4983 13.5483 10.3075 13.6503 10.1806 13.7263C10.1172 13.7642 10.0701 13.7954 10.0405 13.8159C10.0258 13.8261 10.0154 13.8336 10.0096 13.8378L10.0045 13.8416C9.77915 14.0154 9.45549 13.9744 9.28063 13.7496C9.10531 13.5242 9.14592 13.1993 9.37133 13.024L9.64948 12.839Z" fill="#96602E"/>
</g>
<g filter="url(#filter7_f_3930_2168)">
<path d="M16.4421 8.12779C16.3986 8.04446 16.3575 7.95942 16.3188 7.87272C16.1309 7.40272 15.6761 7.09272 15.1718 7.09272H12.7985C9.35736 7.09272 6.56882 9.91272 6.56882 13.3927V13.9057C5.93493 13.4233 5.13763 12.4057 5.13763 10.759C5.13763 8.76063 6.59511 7.75053 7.5248 7.10622C7.78727 6.92432 8.00767 6.77157 8.14133 6.63397C8.19812 6.57552 8.25993 6.50995 8.32717 6.43864C8.97884 5.74746 10.14 4.51595 12.1676 3.97773C13.4661 3.63303 14.7871 3.62953 15.6787 3.70928C16.1497 3.75141 16.4814 4.15994 16.4814 4.63278V8.10272L16.4421 8.12779Z" fill="url(#paint21_radial_3930_2168)"/>
<path d="M16.4421 8.12779C16.3986 8.04446 16.3575 7.95942 16.3188 7.87272C16.1309 7.40272 15.6761 7.09272 15.1718 7.09272H12.7985C9.35736 7.09272 6.56882 9.91272 6.56882 13.3927V13.9057C5.93493 13.4233 5.13763 12.4057 5.13763 10.759C5.13763 8.76063 6.59511 7.75053 7.5248 7.10622C7.78727 6.92432 8.00767 6.77157 8.14133 6.63397C8.19812 6.57552 8.25993 6.50995 8.32717 6.43864C8.97884 5.74746 10.14 4.51595 12.1676 3.97773C13.4661 3.63303 14.7871 3.62953 15.6787 3.70928C16.1497 3.75141 16.4814 4.15994 16.4814 4.63278V8.10272L16.4421 8.12779Z" fill="url(#paint22_radial_3930_2168)"/>
</g>
<g filter="url(#filter8_f_3930_2168)">
<path d="M25.7272 14.4149L25.6728 13.2381C25.653 11.8147 24.4768 10.6402 23.0528 10.5804H20.4423C18.7851 10.5804 17.2736 9.67442 16.4825 8.23193C16.4825 8.23193 16.1004 7.34703 16.0163 6.0524C15.9512 5.05144 16.8565 4.33403 17.851 4.4656C19.9172 4.73899 22.7848 5.38404 24.7561 6.66982C28.0087 8.79126 27.4393 12.6145 25.7272 14.4149Z" fill="url(#paint23_radial_3930_2168)"/>
<path d="M25.7272 14.4149L25.6728 13.2381C25.653 11.8147 24.4768 10.6402 23.0528 10.5804H20.4423C18.7851 10.5804 17.2736 9.67442 16.4825 8.23193C16.4825 8.23193 16.1004 7.34703 16.0163 6.0524C15.9512 5.05144 16.8565 4.33403 17.851 4.4656C19.9172 4.73899 22.7848 5.38404 24.7561 6.66982C28.0087 8.79126 27.4393 12.6145 25.7272 14.4149Z" fill="url(#paint24_radial_3930_2168)"/>
<path d="M25.7272 14.4149L25.6728 13.2381C25.653 11.8147 24.4768 10.6402 23.0528 10.5804H20.4423C18.7851 10.5804 17.2736 9.67442 16.4825 8.23193C16.4825 8.23193 16.1004 7.34703 16.0163 6.0524C15.9512 5.05144 16.8565 4.33403 17.851 4.4656C19.9172 4.73899 22.7848 5.38404 24.7561 6.66982C28.0087 8.79126 27.4393 12.6145 25.7272 14.4149Z" fill="url(#paint25_radial_3930_2168)"/>
<path d="M25.7272 14.4149L25.6728 13.2381C25.653 11.8147 24.4768 10.6402 23.0528 10.5804H20.4423C18.7851 10.5804 17.2736 9.67442 16.4825 8.23193C16.4825 8.23193 16.1004 7.34703 16.0163 6.0524C15.9512 5.05144 16.8565 4.33403 17.851 4.4656C19.9172 4.73899 22.7848 5.38404 24.7561 6.66982C28.0087 8.79126 27.4393 12.6145 25.7272 14.4149Z" fill="url(#paint26_radial_3930_2168)"/>
<path d="M25.7272 14.4149L25.6728 13.2381C25.653 11.8147 24.4768 10.6402 23.0528 10.5804H20.4423C18.7851 10.5804 17.2736 9.67442 16.4825 8.23193C16.4825 8.23193 16.1004 7.34703 16.0163 6.0524C15.9512 5.05144 16.8565 4.33403 17.851 4.4656C19.9172 4.73899 22.7848 5.38404 24.7561 6.66982C28.0087 8.79126 27.4393 12.6145 25.7272 14.4149Z" fill="url(#paint27_radial_3930_2168)"/>
</g>
<path d="M20.4665 15.4934C21.6842 15.4934 22.7128 16.3329 22.9926 17.4674C23.0758 17.7926 22.8262 18.1027 22.4935 18.1027H18.3337C18.069 18.1027 17.8572 17.8607 17.9102 17.596C18.1446 16.401 19.1959 15.4934 20.4665 15.4934Z" fill="white"/>
<path d="M20.0808 16.0001C21.0035 16.0001 21.7447 16.7489 21.7447 17.664C21.7447 17.8153 21.722 17.9665 21.6842 18.1027H18.4698C18.432 17.959 18.4093 17.8153 18.4093 17.664C18.4093 16.7489 19.1581 16.0001 20.0808 16.0001Z" fill="url(#paint28_radial_3930_2168)"/>
<path d="M19.1278 17.664C19.1278 17.1346 19.5514 16.7111 20.0808 16.7111C20.6102 16.7111 21.0338 17.1346 21.0338 17.664C21.0338 17.8228 20.9959 17.9741 20.9279 18.1027H19.2413C19.1657 17.9741 19.1278 17.8228 19.1278 17.664Z" fill="black"/>
<g filter="url(#filter9_f_3930_2168)">
<path d="M19.9584 16.3519C20.0769 16.5104 19.8292 16.7037 19.5474 16.9144C19.2657 17.125 19.0567 17.2733 18.9381 17.1147C18.8196 16.9562 18.9519 16.6569 19.2336 16.4462C19.5154 16.2356 19.8399 16.1933 19.9584 16.3519Z" fill="#C7A7A3"/>
<path d="M19.9584 16.3519C20.0769 16.5104 19.8292 16.7037 19.5474 16.9144C19.2657 17.125 19.0567 17.2733 18.9381 17.1147C18.8196 16.9562 18.9519 16.6569 19.2336 16.4462C19.5154 16.2356 19.8399 16.1933 19.9584 16.3519Z" fill="url(#paint29_radial_3930_2168)"/>
</g>
<g filter="url(#filter10_f_3930_2168)">
<path d="M21.5629 17.4449C21.5014 17.0148 21.2497 16.6906 21.1315 16.5823L20.647 17.1141L20.8657 17.5395L21.5629 17.4449Z" fill="url(#paint30_linear_3930_2168)"/>
</g>
<path d="M11.5511 15.4933C10.3334 15.4933 9.30474 16.3328 9.02488 17.4674C8.94168 17.7926 9.19128 18.1027 9.52408 18.1027H13.684C13.9488 18.1027 14.1605 17.8607 14.1076 17.596C13.8731 16.4009 12.8142 15.4933 11.5511 15.4933Z" fill="white"/>
<path d="M11.9369 16C11.0141 16 10.2729 16.7488 10.2729 17.664C10.2729 17.8153 10.2956 17.9665 10.3334 18.1027H13.5479C13.5857 17.959 13.6084 17.8153 13.6084 17.664C13.6009 16.7488 12.8596 16 11.9369 16Z" fill="url(#paint31_radial_3930_2168)"/>
<path d="M12.8899 17.6639C12.8899 17.1345 12.4663 16.7109 11.9369 16.7109C11.4074 16.7109 10.9839 17.1345 10.9839 17.6639C10.9839 17.8228 11.0217 17.9741 11.0897 18.1026H12.7764C12.8445 17.9741 12.8899 17.8228 12.8899 17.6639Z" fill="black"/>
<g filter="url(#filter11_f_3930_2168)">
<path d="M13.4571 17.4685C13.4571 16.9308 13.0198 16.5723 12.9016 16.464L12.3639 16.984L12.6948 17.6576L13.4571 17.4685Z" fill="url(#paint32_linear_3930_2168)"/>
</g>
<g filter="url(#filter12_f_3930_2168)">
<ellipse cx="11.4348" cy="16.711" rx="0.726417" ry="0.367634" transform="rotate(-27.914 11.4348 16.711)" fill="#C7A7A3" fill-opacity="0.9"/>
<ellipse cx="11.4348" cy="16.711" rx="0.726417" ry="0.367634" transform="rotate(-27.914 11.4348 16.711)" fill="url(#paint33_radial_3930_2168)"/>
</g>
<path d="M25.1852 21.0976C25.3079 19.1135 25.4262 17.1318 25.5294 15.1477C26.9381 15.3942 28.0088 16.6234 28.0088 18.1027C28.0088 19.7003 26.76 21.0062 25.1852 21.0976Z" fill="url(#paint34_linear_3930_2168)"/>
<path d="M25.1852 21.0976C25.3079 19.1135 25.4262 17.1318 25.5294 15.1477C26.9381 15.3942 28.0088 16.6234 28.0088 18.1027C28.0088 19.7003 26.76 21.0062 25.1852 21.0976Z" fill="url(#paint35_radial_3930_2168)"/>
<path d="M25.1852 21.0976C25.3079 19.1135 25.4262 17.1318 25.5294 15.1477C26.9381 15.3942 28.0088 16.6234 28.0088 18.1027C28.0088 19.7003 26.76 21.0062 25.1852 21.0976Z" fill="url(#paint36_radial_3930_2168)"/>
<path d="M6.58611 15.1322C5.12938 15.3376 4.00876 16.5893 4.00876 18.1027C4.00876 19.7043 5.26391 21.0128 6.84426 21.0982C6.7239 19.106 6.62467 17.1251 6.58611 15.1322Z" fill="url(#paint37_linear_3930_2168)"/>
<path d="M6.58611 15.1322C5.12938 15.3376 4.00876 16.5893 4.00876 18.1027C4.00876 19.7043 5.26391 21.0128 6.84426 21.0982C6.7239 19.106 6.62467 17.1251 6.58611 15.1322Z" fill="url(#paint38_radial_3930_2168)"/>
<g filter="url(#filter13_f_3930_2168)">
<path d="M6.61738 16.3645C5.8219 16.5428 5.22751 17.2533 5.22751 18.1026C5.22751 19.0064 5.90064 19.753 6.77292 19.8684C6.70829 18.6998 6.65377 17.5334 6.61738 16.3645Z" fill="#DD8224"/>
</g>
<g filter="url(#filter14_f_3930_2168)">
<path d="M25.267 19.7251C25.3322 18.6517 25.3953 17.5787 25.4541 16.5052C26.2513 16.6047 26.8682 17.2848 26.8682 18.109C26.8682 18.9966 26.1527 19.7171 25.267 19.7251Z" fill="#FFC837"/>
</g>
<g filter="url(#filter15_f_3930_2168)">
<path d="M9.7197 13.3605C10.1989 13.0167 11.3931 12.4121 12.8056 12.6496" stroke="#9D6840" stroke-width="0.25" stroke-linecap="round"/>
</g>
<g filter="url(#filter16_f_3930_2168)">
<path d="M22.6479 13.2746C22.1688 12.9308 20.9745 12.3261 19.562 12.5636" stroke="#9D6840" stroke-width="0.25" stroke-linecap="round"/>
</g>
<defs>
<filter id="filter0_ii_3930_2168" x="6.56882" y="7.09265" width="19.805" height="23.21" filterUnits="userSpaceOnUse" color-interpolation-filters="sRGB">
<feFlood flood-opacity="0" result="BackgroundImageFix"/>
<feBlend mode="normal" in="SourceGraphic" in2="BackgroundImageFix" result="shape"/>
<feColorMatrix in="SourceAlpha" type="matrix" values="0 0 0 0 0 0 0 0 0 0 0 0 0 0 0 0 0 0 127 0" result="hardAlpha"/>
<feOffset dx="0.75"/>
<feGaussianBlur stdDeviation="0.6"/>
<feComposite in2="hardAlpha" operator="arithmetic" k2="-1" k3="1"/>
<feColorMatrix type="matrix" values="0 0 0 0 0.823529 0 0 0 0 0.623529 0 0 0 0 0.313726 0 0 0 1 0"/>
<feBlend mode="normal" in2="shape" result="effect1_innerShadow_3930_2168"/>
<feColorMatrix in="SourceAlpha" type="matrix" values="0 0 0 0 0 0 0 0 0 0 0 0 0 0 0 0 0 0 127 0" result="hardAlpha"/>
<feOffset dy="0.2"/>
<feGaussianBlur stdDeviation="0.375"/>
<feComposite in2="hardAlpha" operator="arithmetic" k2="-1" k3="1"/>
<feColorMatrix type="matrix" values="0 0 0 0 0.980392 0 0 0 0 0.54902 0 0 0 0 0.0941176 0 0 0 1 0"/>
<feBlend mode="normal" in2="effect1_innerShadow_3930_2168" result="effect2_innerShadow_3930_2168"/>
</filter>
<filter id="filter1_f_3930_2168" x="12.8724" y="16.0608" width="5.18332" height="7.40686" filterUnits="userSpaceOnUse" color-interpolation-filters="sRGB">
<feFlood flood-opacity="0" result="BackgroundImageFix"/>
<feBlend mode="normal" in="SourceGraphic" in2="BackgroundImageFix" result="shape"/>
<feGaussianBlur stdDeviation="0.5" result="effect1_foregroundBlur_3930_2168"/>
</filter>
<filter id="filter2_f_3930_2168" x="14.1588" y="16.5958" width="3.7" height="5.60686" filterUnits="userSpaceOnUse" color-interpolation-filters="sRGB">
<feFlood flood-opacity="0" result="BackgroundImageFix"/>
<feBlend mode="normal" in="SourceGraphic" in2="BackgroundImageFix" result="shape"/>
<feGaussianBlur stdDeviation="0.05" result="effect1_foregroundBlur_3930_2168"/>
</filter>
<filter id="filter3_f_3930_2168" x="12.7586" y="23.1025" width="6.50029" height="2.50017" filterUnits="userSpaceOnUse" color-interpolation-filters="sRGB">
<feFlood flood-opacity="0" result="BackgroundImageFix"/>
<feBlend mode="normal" in="SourceGraphic" in2="BackgroundImageFix" result="shape"/>
<feGaussianBlur stdDeviation="0.05" result="effect1_foregroundBlur_3930_2168"/>
</filter>
<filter id="filter4_ii_3930_2168" x="4.00876" y="1.60266" width="24" height="15.1478" filterUnits="userSpaceOnUse" color-interpolation-filters="sRGB">
<feFlood flood-opacity="0" result="BackgroundImageFix"/>
<feBlend mode="normal" in="SourceGraphic" in2="BackgroundImageFix" result="shape"/>
<feColorMatrix in="SourceAlpha" type="matrix" values="0 0 0 0 0 0 0 0 0 0 0 0 0 0 0 0 0 0 127 0" result="hardAlpha"/>
<feOffset dy="-0.5"/>
<feGaussianBlur stdDeviation="0.625"/>
<feComposite in2="hardAlpha" operator="arithmetic" k2="-1" k3="1"/>
<feColorMatrix type="matrix" values="0 0 0 0 0.92549 0 0 0 0 0.741176 0 0 0 0 0.568627 0 0 0 1 0"/>
<feBlend mode="normal" in2="shape" result="effect1_innerShadow_3930_2168"/>
<feColorMatrix in="SourceAlpha" type="matrix" values="0 0 0 0 0 0 0 0 0 0 0 0 0 0 0 0 0 0 127 0" result="hardAlpha"/>
<feOffset dy="-0.2"/>
<feGaussianBlur stdDeviation="0.2"/>
<feComposite in2="hardAlpha" operator="arithmetic" k2="-1" k3="1"/>
<feColorMatrix type="matrix" values="0 0 0 0 0.894118 0 0 0 0 0.658824 0 0 0 0 0.443137 0 0 0 1 0"/>
<feBlend mode="normal" in2="effect1_innerShadow_3930_2168" result="effect2_innerShadow_3930_2168"/>
</filter>
<filter id="filter5_i_3930_2168" x="18.9716" y="11.9027" width="4.27416" height="2.04656" filterUnits="userSpaceOnUse" color-interpolation-filters="sRGB">
<feFlood flood-opacity="0" result="BackgroundImageFix"/>
<feBlend mode="normal" in="SourceGraphic" in2="BackgroundImageFix" result="shape"/>
<feColorMatrix in="SourceAlpha" type="matrix" values="0 0 0 0 0 0 0 0 0 0 0 0 0 0 0 0 0 0 127 0" result="hardAlpha"/>
<feOffset dx="0.1" dy="-0.2"/>
<feGaussianBlur stdDeviation="0.125"/>
<feComposite in2="hardAlpha" operator="arithmetic" k2="-1" k3="1"/>
<feColorMatrix type="matrix" values="0 0 0 0 0.462745 0 0 0 0 0.258824 0 0 0 0 0.184314 0 0 0 1 0"/>
<feBlend mode="normal" in2="shape" result="effect1_innerShadow_3930_2168"/>
</filter>
<filter id="filter6_i_3930_2168" x="9.17169" y="11.9301" width="4.27416" height="2.01909" filterUnits="userSpaceOnUse" color-interpolation-filters="sRGB">
<feFlood flood-opacity="0" result="BackgroundImageFix"/>
<feBlend mode="normal" in="SourceGraphic" in2="BackgroundImageFix" result="shape"/>
<feColorMatrix in="SourceAlpha" type="matrix" values="0 0 0 0 0 0 0 0 0 0 0 0 0 0 0 0 0 0 127 0" result="hardAlpha"/>
<feOffset dx="0.1" dy="-0.2"/>
<feGaussianBlur stdDeviation="0.125"/>
<feComposite in2="hardAlpha" operator="arithmetic" k2="-1" k3="1"/>
<feColorMatrix type="matrix" values="0 0 0 0 0.462745 0 0 0 0 0.258824 0 0 0 0 0.184314 0 0 0 1 0"/>
<feBlend mode="normal" in2="shape" result="effect1_innerShadow_3930_2168"/>
</filter>
<filter id="filter7_f_3930_2168" x="4.63763" y="3.16675" width="12.3438" height="11.239" filterUnits="userSpaceOnUse" color-interpolation-filters="sRGB">
<feFlood flood-opacity="0" result="BackgroundImageFix"/>
<feBlend mode="normal" in="SourceGraphic" in2="BackgroundImageFix" result="shape"/>
<feGaussianBlur stdDeviation="0.25" result="effect1_foregroundBlur_3930_2168"/>
</filter>
<filter id="filter8_f_3930_2168" x="15.513" y="3.95007" width="12.0935" height="10.9648" filterUnits="userSpaceOnUse" color-interpolation-filters="sRGB">
<feFlood flood-opacity="0" result="BackgroundImageFix"/>
<feBlend mode="normal" in="SourceGraphic" in2="BackgroundImageFix" result="shape"/>
<feGaussianBlur stdDeviation="0.25" result="effect1_foregroundBlur_3930_2168"/>
</filter>
<filter id="filter9_f_3930_2168" x="18.7947" y="16.1559" width="1.29412" height="1.12542" filterUnits="userSpaceOnUse" color-interpolation-filters="sRGB">
<feFlood flood-opacity="0" result="BackgroundImageFix"/>
<feBlend mode="normal" in="SourceGraphic" in2="BackgroundImageFix" result="shape"/>
<feGaussianBlur stdDeviation="0.05" result="effect1_foregroundBlur_3930_2168"/>
</filter>
<filter id="filter10_f_3930_2168" x="20.447" y="16.3823" width="1.31586" height="1.35715" filterUnits="userSpaceOnUse" color-interpolation-filters="sRGB">
<feFlood flood-opacity="0" result="BackgroundImageFix"/>
<feBlend mode="normal" in="SourceGraphic" in2="BackgroundImageFix" result="shape"/>
<feGaussianBlur stdDeviation="0.1" result="effect1_foregroundBlur_3930_2168"/>
</filter>
<filter id="filter11_f_3930_2168" x="12.1639" y="16.264" width="1.49317" height="1.5936" filterUnits="userSpaceOnUse" color-interpolation-filters="sRGB">
<feFlood flood-opacity="0" result="BackgroundImageFix"/>
<feBlend mode="normal" in="SourceGraphic" in2="BackgroundImageFix" result="shape"/>
<feGaussianBlur stdDeviation="0.1" result="effect1_foregroundBlur_3930_2168"/>
</filter>
<filter id="filter12_f_3930_2168" x="10.6701" y="16.1407" width="1.52947" height="1.14055" filterUnits="userSpaceOnUse" color-interpolation-filters="sRGB">
<feFlood flood-opacity="0" result="BackgroundImageFix"/>
<feBlend mode="normal" in="SourceGraphic" in2="BackgroundImageFix" result="shape"/>
<feGaussianBlur stdDeviation="0.05" result="effect1_foregroundBlur_3930_2168"/>
</filter>
<filter id="filter13_f_3930_2168" x="4.97751" y="16.1145" width="2.04541" height="4.00391" filterUnits="userSpaceOnUse" color-interpolation-filters="sRGB">
<feFlood flood-opacity="0" result="BackgroundImageFix"/>
<feBlend mode="normal" in="SourceGraphic" in2="BackgroundImageFix" result="shape"/>
<feGaussianBlur stdDeviation="0.125" result="effect1_foregroundBlur_3930_2168"/>
</filter>
<filter id="filter14_f_3930_2168" x="25.017" y="16.2552" width="2.10123" height="3.71985" filterUnits="userSpaceOnUse" color-interpolation-filters="sRGB">
<feFlood flood-opacity="0" result="BackgroundImageFix"/>
<feBlend mode="normal" in="SourceGraphic" in2="BackgroundImageFix" result="shape"/>
<feGaussianBlur stdDeviation="0.125" result="effect1_foregroundBlur_3930_2168"/>
</filter>
<filter id="filter15_f_3930_2168" x="9.3447" y="12.2207" width="3.83597" height="1.51477" filterUnits="userSpaceOnUse" color-interpolation-filters="sRGB">
<feFlood flood-opacity="0" result="BackgroundImageFix"/>
<feBlend mode="normal" in="SourceGraphic" in2="BackgroundImageFix" result="shape"/>
<feGaussianBlur stdDeviation="0.125" result="effect1_foregroundBlur_3930_2168"/>
</filter>
<filter id="filter16_f_3930_2168" x="19.187" y="12.1348" width="3.83597" height="1.51477" filterUnits="userSpaceOnUse" color-interpolation-filters="sRGB">
<feFlood flood-opacity="0" result="BackgroundImageFix"/>
<feBlend mode="normal" in="SourceGraphic" in2="BackgroundImageFix" result="shape"/>
<feGaussianBlur stdDeviation="0.125" result="effect1_foregroundBlur_3930_2168"/>
</filter>
<radialGradient id="paint0_radial_3930_2168" cx="0" cy="0" r="1" gradientUnits="userSpaceOnUse" gradientTransform="translate(26.3525 20.3527) rotate(103.679) scale(6.07867 7.22099)">
<stop offset="0.28005" stop-color="#FFE1B0"/>
<stop offset="1" stop-color="#E0A598"/>
</radialGradient>
<radialGradient id="paint1_radial_3930_2168" cx="0" cy="0" r="1" gradientUnits="userSpaceOnUse" gradientTransform="translate(24.9619 20.8527) rotate(53.9017) scale(0.928209 0.788529)">
<stop stop-color="#F1B78D"/>
<stop offset="1" stop-color="#F1B78D" stop-opacity="0"/>
</radialGradient>
<radialGradient id="paint2_radial_3930_2168" cx="0" cy="0" r="1" gradientUnits="userSpaceOnUse" gradientTransform="translate(5.66501 20.5714) rotate(64.5923) scale(5.5354 2.51609)">
<stop stop-color="#F0B78E"/>
<stop offset="1" stop-color="#D9988C"/>
</radialGradient>
<radialGradient id="paint3_radial_3930_2168" cx="0" cy="0" r="1" gradientUnits="userSpaceOnUse" gradientTransform="translate(6.89938 20.5558) rotate(72.2903) scale(1.95187 1.7122)">
<stop offset="0.263377" stop-color="#D69B78"/>
<stop offset="1" stop-color="#D69B78" stop-opacity="0"/>
</radialGradient>
<radialGradient id="paint4_radial_3930_2168" cx="0" cy="0" r="1" gradientUnits="userSpaceOnUse" gradientTransform="translate(21.2435 18.5976) rotate(180) scale(9.74687 17.2421)">
<stop stop-color="#FFE846"/>
<stop offset="1" stop-color="#F5A129"/>
</radialGradient>
<linearGradient id="paint5_linear_3930_2168" x1="25.6238" y1="21.74" x2="16.0963" y2="21.74" gradientUnits="userSpaceOnUse">
<stop stop-color="#FFD93B"/>
<stop offset="1" stop-color="#FFD93B" stop-opacity="0"/>
</linearGradient>
<radialGradient id="paint6_radial_3930_2168" cx="0" cy="0" r="1" gradientUnits="userSpaceOnUse" gradientTransform="translate(18.9573 7.5725) rotate(95.0389) scale(24.2622 20.092)">
<stop offset="0.777698" stop-color="#D77869" stop-opacity="0"/>
<stop offset="0.970665" stop-color="#D77869"/>
</radialGradient>
<radialGradient id="paint7_radial_3930_2168" cx="0" cy="0" r="1" gradientUnits="userSpaceOnUse" gradientTransform="translate(20.5712 16.5089) rotate(-90) scale(2.5 3.09375)">
<stop offset="0.325" stop-color="#FFBD38"/>
<stop offset="1" stop-color="#FFBD38" stop-opacity="0"/>
</radialGradient>
<radialGradient id="paint8_radial_3930_2168" cx="0" cy="0" r="1" gradientUnits="userSpaceOnUse" gradientTransform="translate(11.7587 16.6964) rotate(-90.7162) scale(2.50019 2.7208)">
<stop offset="0.377617" stop-color="#EF9330"/>
<stop offset="1" stop-color="#EF9330" stop-opacity="0"/>
</radialGradient>
<radialGradient id="paint9_radial_3930_2168" cx="0" cy="0" r="1" gradientUnits="userSpaceOnUse" gradientTransform="translate(5.83093 11.724) rotate(-54.2051) scale(6.35311 1.43296)">
<stop offset="0.316943" stop-color="#C77A1C"/>
<stop offset="1" stop-color="#C77A1C" stop-opacity="0"/>
</radialGradient>
<linearGradient id="paint10_linear_3930_2168" x1="16.0088" y1="20.1427" x2="17.6025" y2="20.1427" gradientUnits="userSpaceOnUse">
<stop stop-color="#FFC92F"/>
<stop offset="1" stop-color="#FFEA47"/>
</linearGradient>
<linearGradient id="paint11_linear_3930_2168" x1="14.0088" y1="19.8527" x2="16.0113" y2="19.9632" gradientUnits="userSpaceOnUse">
<stop stop-color="#F49F22"/>
<stop offset="1" stop-color="#E88830" stop-opacity="0"/>
<stop offset="1" stop-color="#F49F22" stop-opacity="0"/>
</linearGradient>
<linearGradient id="paint12_linear_3930_2168" x1="16.0088" y1="20.8861" x2="16.0088" y2="22.4744" gradientUnits="userSpaceOnUse">
<stop stop-color="#E88830" stop-opacity="0"/>
<stop offset="0.844655" stop-color="#E88830"/>
</linearGradient>
<linearGradient id="paint13_linear_3930_2168" x1="16.0088" y1="16.6958" x2="16.0088" y2="17.4777" gradientUnits="userSpaceOnUse">
<stop stop-color="#FAC137"/>
<stop offset="1" stop-color="#FAC137" stop-opacity="0"/>
</linearGradient>
<radialGradient id="paint14_radial_3930_2168" cx="0" cy="0" r="1" gradientUnits="userSpaceOnUse" gradientTransform="translate(13.9079 24.7298) rotate(-60.732) scale(1.32391 3.85262)">
<stop stop-color="#FFB534"/>
<stop offset="1" stop-color="#FFB534" stop-opacity="0"/>
</radialGradient>
<radialGradient id="paint15_radial_3930_2168" cx="0" cy="0" r="1" gradientUnits="userSpaceOnUse" gradientTransform="translate(16.0088 25.1964) rotate(-90) scale(1.34375 5.40625)">
<stop stop-color="#89014E"/>
<stop offset="1" stop-color="#87004D"/>
</radialGradient>
<linearGradient id="paint16_linear_3930_2168" x1="26.0088" y1="8.04016" x2="7.13376" y2="8.04016" gradientUnits="userSpaceOnUse">
<stop stop-color="#FFFFC1"/>
<stop offset="1" stop-color="#EFCB95"/>
</linearGradient>
<radialGradient id="paint17_radial_3930_2168" cx="0" cy="0" r="1" gradientUnits="userSpaceOnUse" gradientTransform="translate(6.25876 15.6482) rotate(-90) scale(6.77276 12)">
<stop offset="0.216133" stop-color="#E6B386"/>
<stop offset="1" stop-color="#E6B386" stop-opacity="0"/>
</radialGradient>
<radialGradient id="paint18_radial_3930_2168" cx="0" cy="0" r="1" gradientUnits="userSpaceOnUse" gradientTransform="translate(25.0713 15.6482) rotate(-90) scale(6.77276 12)">
<stop stop-color="#FED69F"/>
<stop offset="1" stop-color="#FED69F" stop-opacity="0"/>
</radialGradient>
<radialGradient id="paint19_radial_3930_2168" cx="0" cy="0" r="1" gradientUnits="userSpaceOnUse" gradientTransform="translate(23.665 3.94641) rotate(-159.121) scale(6.48857 3.45559)">
<stop stop-color="#FFFFC0"/>
<stop offset="1" stop-color="#FFFFC0" stop-opacity="0"/>
</radialGradient>
<radialGradient id="paint20_radial_3930_2168" cx="0" cy="0" r="1" gradientUnits="userSpaceOnUse" gradientTransform="translate(8.82135 3.43437) rotate(38.9275) scale(4.17769 10.1562)">
<stop offset="0.286771" stop-color="#E0CA93"/>
<stop offset="1" stop-color="#E0CA93" stop-opacity="0"/>
</radialGradient>
<radialGradient id="paint21_radial_3930_2168" cx="0" cy="0" r="1" gradientUnits="userSpaceOnUse" gradientTransform="translate(16.4814 3.66675) rotate(160.18) scale(8.64358 2.40571)">
<stop stop-color="#FFF9B8"/>
<stop offset="1" stop-color="#FFF9B8" stop-opacity="0"/>
</radialGradient>
<radialGradient id="paint22_radial_3930_2168" cx="0" cy="0" r="1" gradientUnits="userSpaceOnUse" gradientTransform="translate(5.70168 13.2381) rotate(-58.7753) scale(11.9254 13.2121)">
<stop stop-color="#CC9571"/>
<stop offset="0.233498" stop-color="#E8B391"/>
<stop offset="1" stop-color="#E8B391" stop-opacity="0"/>
</radialGradient>
<radialGradient id="paint23_radial_3930_2168" cx="0" cy="0" r="1" gradientUnits="userSpaceOnUse" gradientTransform="translate(22.7588 5.82997) rotate(13.3074) scale(6.48667 2.48758)">
<stop stop-color="#FFFFC5"/>
<stop offset="1" stop-color="#FFFFC5" stop-opacity="0"/>
</radialGradient>
<radialGradient id="paint24_radial_3930_2168" cx="0" cy="0" r="1" gradientUnits="userSpaceOnUse" gradientTransform="translate(25.5712 14.4149) rotate(-120.119) scale(7.98306 4.45209)">
<stop stop-color="#F0C297"/>
<stop offset="1" stop-color="#F0C297" stop-opacity="0"/>
</radialGradient>
<radialGradient id="paint25_radial_3930_2168" cx="0" cy="0" r="1" gradientUnits="userSpaceOnUse" gradientTransform="translate(24.415 13.8553) rotate(-120.695) scale(4.77497 3.42011)">
<stop offset="0.394122" stop-color="#EAB68A"/>
<stop offset="1" stop-color="#EAB68A" stop-opacity="0"/>
</radialGradient>
<radialGradient id="paint26_radial_3930_2168" cx="0" cy="0" r="1" gradientUnits="userSpaceOnUse" gradientTransform="translate(24.9463 5.61223) rotate(166.509) scale(9.20011 9.94567)">
<stop offset="0.734853" stop-color="#E6B383" stop-opacity="0"/>
<stop offset="1" stop-color="#E6B383"/>
</radialGradient>
<radialGradient id="paint27_radial_3930_2168" cx="0" cy="0" r="1" gradientUnits="userSpaceOnUse" gradientTransform="translate(22.4463 5.37894) rotate(107.002) scale(0.748128 3.42034)">
<stop offset="0.461072" stop-color="#FFF1B2"/>
<stop offset="1" stop-color="#FFF1B2" stop-opacity="0"/>
</radialGradient>
<radialGradient id="paint28_radial_3930_2168" cx="0" cy="0" r="1" gradientUnits="userSpaceOnUse" gradientTransform="translate(20.077 16.8895) rotate(90) scale(1.51263 2.40601)">
<stop offset="0.80198" stop-color="#925C51"/>
<stop offset="1" stop-color="#694B43"/>
<stop offset="1" stop-color="#804D49"/>
<stop offset="1" stop-color="#85534D"/>
</radialGradient>
<radialGradient id="paint29_radial_3930_2168" cx="0" cy="0" r="1" gradientUnits="userSpaceOnUse" gradientTransform="translate(19.6515 17.0464) rotate(-127.812) scale(0.705284 0.971007)">
<stop offset="0.765532" stop-color="#FFE6E2" stop-opacity="0"/>
<stop offset="0.966159" stop-color="#FFE6E2"/>
</radialGradient>
<linearGradient id="paint30_linear_3930_2168" x1="21.5274" y1="16.99" x2="20.9425" y2="17.3504" gradientUnits="userSpaceOnUse">
<stop stop-color="#B4948D"/>
<stop offset="1" stop-color="#B4948D" stop-opacity="0"/>
</linearGradient>
<radialGradient id="paint31_radial_3930_2168" cx="0" cy="0" r="1" gradientUnits="userSpaceOnUse" gradientTransform="translate(11.9407 16.8894) rotate(90) scale(1.51271 2.40614)">
<stop offset="0.80198" stop-color="#925C51"/>
<stop offset="1" stop-color="#694B43"/>
<stop offset="1" stop-color="#804D49"/>
<stop offset="1" stop-color="#85534D"/>
</radialGradient>
<linearGradient id="paint32_linear_3930_2168" x1="13.3275" y1="16.9899" x2="12.7425" y2="17.3503" gradientUnits="userSpaceOnUse">
<stop stop-color="#B4948D"/>
<stop offset="1" stop-color="#B4948D" stop-opacity="0"/>
</linearGradient>
<radialGradient id="paint33_radial_3930_2168" cx="0" cy="0" r="1" gradientUnits="userSpaceOnUse" gradientTransform="translate(11.4067 17.2981) rotate(-90.897) scale(0.921289 1.10743)">
<stop offset="0.765532" stop-color="#FFE6E2" stop-opacity="0"/>
<stop offset="0.966159" stop-color="#FFE6E2"/>
</radialGradient>
<linearGradient id="paint34_linear_3930_2168" x1="28.0088" y1="17.0402" x2="25.7588" y2="21.0976" gradientUnits="userSpaceOnUse">
<stop stop-color="#FFE343"/>
<stop offset="1" stop-color="#FFC136"/>
</linearGradient>
<radialGradient id="paint35_radial_3930_2168" cx="0" cy="0" r="1" gradientUnits="userSpaceOnUse" gradientTransform="translate(24.6181 16.9152) rotate(74.3475) scale(4.34346 4.144)">
<stop offset="0.856273" stop-color="#E1943D" stop-opacity="0"/>
<stop offset="1" stop-color="#E08F2E"/>
</radialGradient>
<radialGradient id="paint36_radial_3930_2168" cx="0" cy="0" r="1" gradientUnits="userSpaceOnUse" gradientTransform="translate(25.29 17.9308) rotate(-53.9198) scale(2.49399 2.09046)">
<stop offset="0.663731" stop-color="#FFBD22"/>
<stop offset="1" stop-color="#FFBD22" stop-opacity="0"/>
</radialGradient>
<linearGradient id="paint37_linear_3930_2168" x1="5.10251" y1="18.3527" x2="7.82126" y2="18.1152" gradientUnits="userSpaceOnUse">
<stop stop-color="#E39726"/>
<stop offset="1" stop-color="#D9851D"/>
</linearGradient>
<radialGradient id="paint38_radial_3930_2168" cx="0" cy="0" r="1" gradientUnits="userSpaceOnUse" gradientTransform="translate(6.19626 17.2277) rotate(101.248) scale(3.94637 3.87964)">
<stop offset="0.77507" stop-color="#C77937" stop-opacity="0"/>
<stop offset="1" stop-color="#C77937"/>
</radialGradient>
</defs>
</svg>
