<svg width="32" height="32" viewBox="0 0 32 32" fill="none" xmlns="http://www.w3.org/2000/svg">
<path d="M6.00009 1.99998C5.50009 1.49998 4.2129 0.740272 3.00021 1.09997C1.4003 1.57453 0.400103 3.99997 1.4001 5.99997C1.7377 6.67517 2.28304 7.40379 2.8633 8.09567C3.26717 8.57722 3.68792 9.04103 4.06735 9.45656C4.14147 9.53774 4.22204 9.61058 4.30754 9.67462C4.85188 10.0823 5.59638 10.1333 6.1531 9.70922C7.38383 8.7717 8.91141 7.38308 9.50015 6.49997C10.5002 4.99997 11.0248 3.02476 9.75 1.75001C8.16818 0.168183 6.49997 1.50001 6.00009 1.99998Z" fill="#212121"/>
<path d="M10.959 1.67003C11.3371 2.2718 11.4952 2.93666 11.5015 3.59474C12.8324 3.21003 14.3295 3 15.9989 3C20.4296 3 23.6469 4.47956 25.7631 6.77759C27.8918 9.08911 28.9978 12.3286 28.9978 15.9989V16L29.0001 16C29.8121 16 30.4777 16.2554 30.9867 16.6643C30.9941 16.4435 30.9978 16.2216 30.9978 15.9989C30.9978 11.9378 29.7715 8.17785 27.2343 5.42276C24.6848 2.65419 20.9026 1 15.9989 1C14.1591 1 12.4772 1.23285 10.959 1.67003Z" fill="#212121"/>
<path d="M25.6643 25.9023C25.5495 25.8452 25.4437 25.7642 25.3546 25.6599C24.3916 24.5336 22.6252 22.4378 22 21.5C21 20 21.1026 17.7325 23 17.1C24.5 16.6 26.1667 18 26.5 18.5C26.6667 18 27.4 17 29 17C29.1349 17 29.2633 17.0096 29.3852 17.0279C29.5782 17.0569 29.755 17.1078 29.916 17.1771C30.3537 17.3655 30.6746 17.6903 30.8865 18.0821C31.2772 18.8043 31.2982 19.7546 31 20.5C30.7523 21.1192 30.3206 21.7941 29.8113 22.4593C28.8189 23.7552 27.5317 25.0141 26.7361 25.7502C26.512 25.9576 26.2198 26.0353 25.9433 25.9916C25.8472 25.9764 25.753 25.9465 25.6643 25.9023Z" fill="#212121"/>
<path d="M15.9989 28.9978C19.6813 28.9978 22.5254 27.9758 24.596 26.3114C25.2223 27.0423 26.2793 27.2163 27.0911 26.7281C24.5439 29.4044 20.8115 30.9978 15.9989 30.9978C13.5239 30.9978 11.3345 30.5764 9.44519 29.803C9.82625 29.3231 10.2502 28.7371 10.607 28.1094C12.1509 28.6797 13.9444 28.9978 15.9989 28.9978Z" fill="#212121"/>
<path d="M8.50429 29.3766C8.42401 29.4747 8.34577 29.5681 8.2707 29.6561C7.83861 30.1624 7.10261 30.2351 6.55273 29.86C5.62817 29.2293 4.3159 28.3157 4.00015 28C2.88205 26.882 2.50013 25 3.50012 24C4.50011 23 6.50007 23.5 6.50007 23.5C6.50007 23.5 7.00015 22.25 8.50015 22.5C10.5002 22.75 10.7502 25 10.2502 26.5C10.1151 26.9052 9.91212 27.3199 9.67645 27.7216C9.31995 28.3292 8.88862 28.907 8.50429 29.3766Z" fill="#212121"/>
<path d="M4.37897 22.4734C3.84022 22.5874 3.26269 22.8232 2.79302 23.2929C2.73777 23.3482 2.68549 23.4049 2.63611 23.4628C1.53719 21.2428 1 18.6868 1 15.9989C1 13.5261 1.45465 11.165 2.38304 9.07434C2.71524 9.4582 3.04159 9.81622 3.32888 10.1309C3.50069 10.319 3.69875 10.4814 3.91468 10.6134C3.30899 12.2392 3 14.0589 3 15.9989C3 18.3846 3.46728 20.5883 4.37897 22.4734Z" fill="#212121"/>
<path d="M8.98156 11.1909C9.02964 10.9436 9.13971 10.6405 9.34896 10.4125C9.52829 10.2171 9.84698 10 10.4999 10C11.1417 10 11.4685 10.2216 11.6572 10.4288C11.8753 10.6683 11.9804 10.9737 12.0147 11.1711C12.1092 11.7152 12.6269 12.0797 13.171 11.9853C13.7152 11.8908 14.0797 11.373 13.9852 10.8289C13.9062 10.374 13.6799 9.6794 13.1357 9.08196C12.562 8.45218 11.6955 8 10.4999 8C9.31564 8 8.45269 8.4313 7.87551 9.06013C7.32826 9.65637 7.10696 10.3533 7.01833 10.8091C6.91291 11.3513 7.26694 11.8762 7.80907 11.9816C8.3512 12.087 8.87614 11.733 8.98156 11.1909Z" fill="#212121"/>
<path d="M19.9818 11.1909C20.0299 10.9436 20.1399 10.6405 20.3492 10.4125C20.5285 10.2171 20.8472 10 21.5002 10C22.1419 10 22.4687 10.2216 22.6574 10.4288C22.8756 10.6683 22.9807 10.9737 23.0149 11.1711C23.1094 11.7152 23.6271 12.0797 24.1713 11.9853C24.7154 11.8908 25.0799 11.373 24.9854 10.8289C24.9064 10.374 24.6802 9.6794 24.1359 9.08196C23.5623 8.45218 22.6957 8 21.5002 8C20.3159 8 19.4529 8.4313 18.8758 9.06013C18.3285 9.65637 18.1072 10.3533 18.0186 10.8091C17.9132 11.3513 18.2672 11.8762 18.8093 11.9816C19.3514 12.087 19.8764 11.733 19.9818 11.1909Z" fill="#212121"/>
<path d="M13 16C13 15.4477 12.5523 15 12 15C11.4477 15 11 15.4477 11 16C11 16.8267 11.2398 18.0445 11.9885 19.0843C12.7739 20.1751 14.0741 21 16 21C17.9259 21 19.2261 20.1751 20.0115 19.0843C20.7602 18.0445 21 16.8267 21 16C21 15.4477 20.5523 15 20 15C19.4477 15 19 15.4477 19 16C19 16.5066 18.8398 17.2889 18.3885 17.9157C17.9739 18.4915 17.2741 19 16 19C14.7259 19 14.0261 18.4915 13.6115 17.9157C13.1602 17.2889 13 16.5066 13 16Z" fill="#212121"/>
</svg>
