<svg width="32" height="32" viewBox="0 0 32 32" fill="none" xmlns="http://www.w3.org/2000/svg">
<circle cx="10.6738" cy="16.1199" r="4.08594" fill="url(#paint0_radial_4002_783)"/>
<circle cx="10.6738" cy="16.1199" r="4.08594" fill="url(#paint1_radial_4002_783)"/>
<circle cx="8.27539" cy="23.323" r="6.30469" fill="url(#paint2_radial_4002_783)"/>
<circle r="4.08594" transform="matrix(-1 0 0 1 21.3262 16.1199)" fill="url(#paint3_radial_4002_783)"/>
<circle r="4.08594" transform="matrix(-1 0 0 1 21.3262 16.1199)" fill="url(#paint4_radial_4002_783)"/>
<circle r="6.30469" transform="matrix(-1 0 0 1 23.7246 23.323)" fill="url(#paint5_radial_4002_783)"/>
<g filter="url(#filter0_i_4002_783)">
<path fill-rule="evenodd" clip-rule="evenodd" d="M23.1503 12.097C23.3643 11.6588 23.4764 11.1697 23.4764 10.6603C23.4764 10.1898 23.3796 9.74828 23.206 9.34585H23.2114C23.1304 9.16363 23.0393 8.99146 22.9282 8.82935L22.9262 8.8262C22.5797 8.29635 22.3963 7.67481 22.3963 7.04307V7.03288C22.3963 5.1988 20.9087 3.71116 19.0746 3.71116C18.8912 3.71116 18.718 3.62965 18.6161 3.47681C18.0149 2.64129 17.0265 2.09106 15.9158 2.09106C14.8052 2.09106 13.8168 2.64129 13.2157 3.47681C13.1138 3.61946 12.9406 3.71116 12.7571 3.71116C12.7285 3.71117 12.7 3.71153 12.6715 3.71225C10.877 3.75768 9.43543 5.22743 9.43543 7.03288V7.04307C9.43543 7.67481 9.25202 8.29635 8.90559 8.8262L8.90328 8.8299C8.55831 9.35893 8.35547 9.97918 8.35547 10.6603C8.35547 11.1799 8.47774 11.6588 8.68153 12.097C8.75285 12.2396 8.75285 12.4128 8.68153 12.5555C8.47774 12.9834 8.35547 13.4623 8.35547 13.9718C8.35547 15.7651 9.80235 17.212 11.5957 17.212H20.2362C22.0295 17.212 23.4764 15.7651 23.4764 13.9718C23.4764 13.4623 23.3541 12.9834 23.1503 12.5555C23.079 12.4128 23.079 12.2396 23.1503 12.097ZM10.8063 9.40628H10.7939L12.0008 11.7779C12.1249 14.5996 13.2261 11.7779 15.9158 11.7779C18.6055 11.7779 19.7785 14.9187 19.9026 12.097L21.0463 8.87795C20.9922 7.62459 20.0839 7.53662 19.9026 7.53662H16.6606C15.3803 7.53662 14.1722 6.90998 13.4495 5.85188C13.3256 5.67724 13.0674 5.70806 12.9848 5.90324L12.9022 6.09843C12.6751 6.66343 12.2414 7.09489 11.7045 7.34144C11.6891 7.34658 11.671 7.35428 11.6529 7.36198C11.6349 7.36969 11.6168 7.37739 11.6013 7.38253C11.3638 7.5058 10.8063 7.87563 10.7856 8.831L10.7959 9.13918L10.8063 9.40628Z" fill="url(#paint6_linear_4002_783)"/>
<path fill-rule="evenodd" clip-rule="evenodd" d="M23.1503 12.097C23.3643 11.6588 23.4764 11.1697 23.4764 10.6603C23.4764 10.1898 23.3796 9.74828 23.206 9.34585H23.2114C23.1304 9.16363 23.0393 8.99146 22.9282 8.82935L22.9262 8.8262C22.5797 8.29635 22.3963 7.67481 22.3963 7.04307V7.03288C22.3963 5.1988 20.9087 3.71116 19.0746 3.71116C18.8912 3.71116 18.718 3.62965 18.6161 3.47681C18.0149 2.64129 17.0265 2.09106 15.9158 2.09106C14.8052 2.09106 13.8168 2.64129 13.2157 3.47681C13.1138 3.61946 12.9406 3.71116 12.7571 3.71116C12.7285 3.71117 12.7 3.71153 12.6715 3.71225C10.877 3.75768 9.43543 5.22743 9.43543 7.03288V7.04307C9.43543 7.67481 9.25202 8.29635 8.90559 8.8262L8.90328 8.8299C8.55831 9.35893 8.35547 9.97918 8.35547 10.6603C8.35547 11.1799 8.47774 11.6588 8.68153 12.097C8.75285 12.2396 8.75285 12.4128 8.68153 12.5555C8.47774 12.9834 8.35547 13.4623 8.35547 13.9718C8.35547 15.7651 9.80235 17.212 11.5957 17.212H20.2362C22.0295 17.212 23.4764 15.7651 23.4764 13.9718C23.4764 13.4623 23.3541 12.9834 23.1503 12.5555C23.079 12.4128 23.079 12.2396 23.1503 12.097ZM10.8063 9.40628H10.7939L12.0008 11.7779C12.1249 14.5996 13.2261 11.7779 15.9158 11.7779C18.6055 11.7779 19.7785 14.9187 19.9026 12.097L21.0463 8.87795C20.9922 7.62459 20.0839 7.53662 19.9026 7.53662H16.6606C15.3803 7.53662 14.1722 6.90998 13.4495 5.85188C13.3256 5.67724 13.0674 5.70806 12.9848 5.90324L12.9022 6.09843C12.6751 6.66343 12.2414 7.09489 11.7045 7.34144C11.6891 7.34658 11.671 7.35428 11.6529 7.36198C11.6349 7.36969 11.6168 7.37739 11.6013 7.38253C11.3638 7.5058 10.8063 7.87563 10.7856 8.831L10.7959 9.13918L10.8063 9.40628Z" fill="url(#paint7_radial_4002_783)"/>
<path fill-rule="evenodd" clip-rule="evenodd" d="M23.1503 12.097C23.3643 11.6588 23.4764 11.1697 23.4764 10.6603C23.4764 10.1898 23.3796 9.74828 23.206 9.34585H23.2114C23.1304 9.16363 23.0393 8.99146 22.9282 8.82935L22.9262 8.8262C22.5797 8.29635 22.3963 7.67481 22.3963 7.04307V7.03288C22.3963 5.1988 20.9087 3.71116 19.0746 3.71116C18.8912 3.71116 18.718 3.62965 18.6161 3.47681C18.0149 2.64129 17.0265 2.09106 15.9158 2.09106C14.8052 2.09106 13.8168 2.64129 13.2157 3.47681C13.1138 3.61946 12.9406 3.71116 12.7571 3.71116C12.7285 3.71117 12.7 3.71153 12.6715 3.71225C10.877 3.75768 9.43543 5.22743 9.43543 7.03288V7.04307C9.43543 7.67481 9.25202 8.29635 8.90559 8.8262L8.90328 8.8299C8.55831 9.35893 8.35547 9.97918 8.35547 10.6603C8.35547 11.1799 8.47774 11.6588 8.68153 12.097C8.75285 12.2396 8.75285 12.4128 8.68153 12.5555C8.47774 12.9834 8.35547 13.4623 8.35547 13.9718C8.35547 15.7651 9.80235 17.212 11.5957 17.212H20.2362C22.0295 17.212 23.4764 15.7651 23.4764 13.9718C23.4764 13.4623 23.3541 12.9834 23.1503 12.5555C23.079 12.4128 23.079 12.2396 23.1503 12.097ZM10.8063 9.40628H10.7939L12.0008 11.7779C12.1249 14.5996 13.2261 11.7779 15.9158 11.7779C18.6055 11.7779 19.7785 14.9187 19.9026 12.097L21.0463 8.87795C20.9922 7.62459 20.0839 7.53662 19.9026 7.53662H16.6606C15.3803 7.53662 14.1722 6.90998 13.4495 5.85188C13.3256 5.67724 13.0674 5.70806 12.9848 5.90324L12.9022 6.09843C12.6751 6.66343 12.2414 7.09489 11.7045 7.34144C11.6891 7.34658 11.671 7.35428 11.6529 7.36198C11.6349 7.36969 11.6168 7.37739 11.6013 7.38253C11.3638 7.5058 10.8063 7.87563 10.7856 8.831L10.7959 9.13918L10.8063 9.40628Z" fill="url(#paint8_radial_4002_783)"/>
<path fill-rule="evenodd" clip-rule="evenodd" d="M23.1503 12.097C23.3643 11.6588 23.4764 11.1697 23.4764 10.6603C23.4764 10.1898 23.3796 9.74828 23.206 9.34585H23.2114C23.1304 9.16363 23.0393 8.99146 22.9282 8.82935L22.9262 8.8262C22.5797 8.29635 22.3963 7.67481 22.3963 7.04307V7.03288C22.3963 5.1988 20.9087 3.71116 19.0746 3.71116C18.8912 3.71116 18.718 3.62965 18.6161 3.47681C18.0149 2.64129 17.0265 2.09106 15.9158 2.09106C14.8052 2.09106 13.8168 2.64129 13.2157 3.47681C13.1138 3.61946 12.9406 3.71116 12.7571 3.71116C12.7285 3.71117 12.7 3.71153 12.6715 3.71225C10.877 3.75768 9.43543 5.22743 9.43543 7.03288V7.04307C9.43543 7.67481 9.25202 8.29635 8.90559 8.8262L8.90328 8.8299C8.55831 9.35893 8.35547 9.97918 8.35547 10.6603C8.35547 11.1799 8.47774 11.6588 8.68153 12.097C8.75285 12.2396 8.75285 12.4128 8.68153 12.5555C8.47774 12.9834 8.35547 13.4623 8.35547 13.9718C8.35547 15.7651 9.80235 17.212 11.5957 17.212H20.2362C22.0295 17.212 23.4764 15.7651 23.4764 13.9718C23.4764 13.4623 23.3541 12.9834 23.1503 12.5555C23.079 12.4128 23.079 12.2396 23.1503 12.097ZM10.8063 9.40628H10.7939L12.0008 11.7779C12.1249 14.5996 13.2261 11.7779 15.9158 11.7779C18.6055 11.7779 19.7785 14.9187 19.9026 12.097L21.0463 8.87795C20.9922 7.62459 20.0839 7.53662 19.9026 7.53662H16.6606C15.3803 7.53662 14.1722 6.90998 13.4495 5.85188C13.3256 5.67724 13.0674 5.70806 12.9848 5.90324L12.9022 6.09843C12.6751 6.66343 12.2414 7.09489 11.7045 7.34144C11.6891 7.34658 11.671 7.35428 11.6529 7.36198C11.6349 7.36969 11.6168 7.37739 11.6013 7.38253C11.3638 7.5058 10.8063 7.87563 10.7856 8.831L10.7959 9.13918L10.8063 9.40628Z" fill="url(#paint9_radial_4002_783)"/>
<path fill-rule="evenodd" clip-rule="evenodd" d="M23.1503 12.097C23.3643 11.6588 23.4764 11.1697 23.4764 10.6603C23.4764 10.1898 23.3796 9.74828 23.206 9.34585H23.2114C23.1304 9.16363 23.0393 8.99146 22.9282 8.82935L22.9262 8.8262C22.5797 8.29635 22.3963 7.67481 22.3963 7.04307V7.03288C22.3963 5.1988 20.9087 3.71116 19.0746 3.71116C18.8912 3.71116 18.718 3.62965 18.6161 3.47681C18.0149 2.64129 17.0265 2.09106 15.9158 2.09106C14.8052 2.09106 13.8168 2.64129 13.2157 3.47681C13.1138 3.61946 12.9406 3.71116 12.7571 3.71116C12.7285 3.71117 12.7 3.71153 12.6715 3.71225C10.877 3.75768 9.43543 5.22743 9.43543 7.03288V7.04307C9.43543 7.67481 9.25202 8.29635 8.90559 8.8262L8.90328 8.8299C8.55831 9.35893 8.35547 9.97918 8.35547 10.6603C8.35547 11.1799 8.47774 11.6588 8.68153 12.097C8.75285 12.2396 8.75285 12.4128 8.68153 12.5555C8.47774 12.9834 8.35547 13.4623 8.35547 13.9718C8.35547 15.7651 9.80235 17.212 11.5957 17.212H20.2362C22.0295 17.212 23.4764 15.7651 23.4764 13.9718C23.4764 13.4623 23.3541 12.9834 23.1503 12.5555C23.079 12.4128 23.079 12.2396 23.1503 12.097ZM10.8063 9.40628H10.7939L12.0008 11.7779C12.1249 14.5996 13.2261 11.7779 15.9158 11.7779C18.6055 11.7779 19.7785 14.9187 19.9026 12.097L21.0463 8.87795C20.9922 7.62459 20.0839 7.53662 19.9026 7.53662H16.6606C15.3803 7.53662 14.1722 6.90998 13.4495 5.85188C13.3256 5.67724 13.0674 5.70806 12.9848 5.90324L12.9022 6.09843C12.6751 6.66343 12.2414 7.09489 11.7045 7.34144C11.6891 7.34658 11.671 7.35428 11.6529 7.36198C11.6349 7.36969 11.6168 7.37739 11.6013 7.38253C11.3638 7.5058 10.8063 7.87563 10.7856 8.831L10.7959 9.13918L10.8063 9.40628Z" fill="url(#paint10_radial_4002_783)"/>
<path fill-rule="evenodd" clip-rule="evenodd" d="M23.1503 12.097C23.3643 11.6588 23.4764 11.1697 23.4764 10.6603C23.4764 10.1898 23.3796 9.74828 23.206 9.34585H23.2114C23.1304 9.16363 23.0393 8.99146 22.9282 8.82935L22.9262 8.8262C22.5797 8.29635 22.3963 7.67481 22.3963 7.04307V7.03288C22.3963 5.1988 20.9087 3.71116 19.0746 3.71116C18.8912 3.71116 18.718 3.62965 18.6161 3.47681C18.0149 2.64129 17.0265 2.09106 15.9158 2.09106C14.8052 2.09106 13.8168 2.64129 13.2157 3.47681C13.1138 3.61946 12.9406 3.71116 12.7571 3.71116C12.7285 3.71117 12.7 3.71153 12.6715 3.71225C10.877 3.75768 9.43543 5.22743 9.43543 7.03288V7.04307C9.43543 7.67481 9.25202 8.29635 8.90559 8.8262L8.90328 8.8299C8.55831 9.35893 8.35547 9.97918 8.35547 10.6603C8.35547 11.1799 8.47774 11.6588 8.68153 12.097C8.75285 12.2396 8.75285 12.4128 8.68153 12.5555C8.47774 12.9834 8.35547 13.4623 8.35547 13.9718C8.35547 15.7651 9.80235 17.212 11.5957 17.212H20.2362C22.0295 17.212 23.4764 15.7651 23.4764 13.9718C23.4764 13.4623 23.3541 12.9834 23.1503 12.5555C23.079 12.4128 23.079 12.2396 23.1503 12.097ZM10.8063 9.40628H10.7939L12.0008 11.7779C12.1249 14.5996 13.2261 11.7779 15.9158 11.7779C18.6055 11.7779 19.7785 14.9187 19.9026 12.097L21.0463 8.87795C20.9922 7.62459 20.0839 7.53662 19.9026 7.53662H16.6606C15.3803 7.53662 14.1722 6.90998 13.4495 5.85188C13.3256 5.67724 13.0674 5.70806 12.9848 5.90324L12.9022 6.09843C12.6751 6.66343 12.2414 7.09489 11.7045 7.34144C11.6891 7.34658 11.671 7.35428 11.6529 7.36198C11.6349 7.36969 11.6168 7.37739 11.6013 7.38253C11.3638 7.5058 10.8063 7.87563 10.7856 8.831L10.7959 9.13918L10.8063 9.40628Z" fill="url(#paint11_radial_4002_783)"/>
<path fill-rule="evenodd" clip-rule="evenodd" d="M23.1503 12.097C23.3643 11.6588 23.4764 11.1697 23.4764 10.6603C23.4764 10.1898 23.3796 9.74828 23.206 9.34585H23.2114C23.1304 9.16363 23.0393 8.99146 22.9282 8.82935L22.9262 8.8262C22.5797 8.29635 22.3963 7.67481 22.3963 7.04307V7.03288C22.3963 5.1988 20.9087 3.71116 19.0746 3.71116C18.8912 3.71116 18.718 3.62965 18.6161 3.47681C18.0149 2.64129 17.0265 2.09106 15.9158 2.09106C14.8052 2.09106 13.8168 2.64129 13.2157 3.47681C13.1138 3.61946 12.9406 3.71116 12.7571 3.71116C12.7285 3.71117 12.7 3.71153 12.6715 3.71225C10.877 3.75768 9.43543 5.22743 9.43543 7.03288V7.04307C9.43543 7.67481 9.25202 8.29635 8.90559 8.8262L8.90328 8.8299C8.55831 9.35893 8.35547 9.97918 8.35547 10.6603C8.35547 11.1799 8.47774 11.6588 8.68153 12.097C8.75285 12.2396 8.75285 12.4128 8.68153 12.5555C8.47774 12.9834 8.35547 13.4623 8.35547 13.9718C8.35547 15.7651 9.80235 17.212 11.5957 17.212H20.2362C22.0295 17.212 23.4764 15.7651 23.4764 13.9718C23.4764 13.4623 23.3541 12.9834 23.1503 12.5555C23.079 12.4128 23.079 12.2396 23.1503 12.097ZM10.8063 9.40628H10.7939L12.0008 11.7779C12.1249 14.5996 13.2261 11.7779 15.9158 11.7779C18.6055 11.7779 19.7785 14.9187 19.9026 12.097L21.0463 8.87795C20.9922 7.62459 20.0839 7.53662 19.9026 7.53662H16.6606C15.3803 7.53662 14.1722 6.90998 13.4495 5.85188C13.3256 5.67724 13.0674 5.70806 12.9848 5.90324L12.9022 6.09843C12.6751 6.66343 12.2414 7.09489 11.7045 7.34144C11.6891 7.34658 11.671 7.35428 11.6529 7.36198C11.6349 7.36969 11.6168 7.37739 11.6013 7.38253C11.3638 7.5058 10.8063 7.87563 10.7856 8.831L10.7959 9.13918L10.8063 9.40628Z" fill="url(#paint12_radial_4002_783)"/>
<path fill-rule="evenodd" clip-rule="evenodd" d="M23.1503 12.097C23.3643 11.6588 23.4764 11.1697 23.4764 10.6603C23.4764 10.1898 23.3796 9.74828 23.206 9.34585H23.2114C23.1304 9.16363 23.0393 8.99146 22.9282 8.82935L22.9262 8.8262C22.5797 8.29635 22.3963 7.67481 22.3963 7.04307V7.03288C22.3963 5.1988 20.9087 3.71116 19.0746 3.71116C18.8912 3.71116 18.718 3.62965 18.6161 3.47681C18.0149 2.64129 17.0265 2.09106 15.9158 2.09106C14.8052 2.09106 13.8168 2.64129 13.2157 3.47681C13.1138 3.61946 12.9406 3.71116 12.7571 3.71116C12.7285 3.71117 12.7 3.71153 12.6715 3.71225C10.877 3.75768 9.43543 5.22743 9.43543 7.03288V7.04307C9.43543 7.67481 9.25202 8.29635 8.90559 8.8262L8.90328 8.8299C8.55831 9.35893 8.35547 9.97918 8.35547 10.6603C8.35547 11.1799 8.47774 11.6588 8.68153 12.097C8.75285 12.2396 8.75285 12.4128 8.68153 12.5555C8.47774 12.9834 8.35547 13.4623 8.35547 13.9718C8.35547 15.7651 9.80235 17.212 11.5957 17.212H20.2362C22.0295 17.212 23.4764 15.7651 23.4764 13.9718C23.4764 13.4623 23.3541 12.9834 23.1503 12.5555C23.079 12.4128 23.079 12.2396 23.1503 12.097ZM10.8063 9.40628H10.7939L12.0008 11.7779C12.1249 14.5996 13.2261 11.7779 15.9158 11.7779C18.6055 11.7779 19.7785 14.9187 19.9026 12.097L21.0463 8.87795C20.9922 7.62459 20.0839 7.53662 19.9026 7.53662H16.6606C15.3803 7.53662 14.1722 6.90998 13.4495 5.85188C13.3256 5.67724 13.0674 5.70806 12.9848 5.90324L12.9022 6.09843C12.6751 6.66343 12.2414 7.09489 11.7045 7.34144C11.6891 7.34658 11.671 7.35428 11.6529 7.36198C11.6349 7.36969 11.6168 7.37739 11.6013 7.38253C11.3638 7.5058 10.8063 7.87563 10.7856 8.831L10.7959 9.13918L10.8063 9.40628Z" fill="url(#paint13_radial_4002_783)"/>
<path fill-rule="evenodd" clip-rule="evenodd" d="M23.1503 12.097C23.3643 11.6588 23.4764 11.1697 23.4764 10.6603C23.4764 10.1898 23.3796 9.74828 23.206 9.34585H23.2114C23.1304 9.16363 23.0393 8.99146 22.9282 8.82935L22.9262 8.8262C22.5797 8.29635 22.3963 7.67481 22.3963 7.04307V7.03288C22.3963 5.1988 20.9087 3.71116 19.0746 3.71116C18.8912 3.71116 18.718 3.62965 18.6161 3.47681C18.0149 2.64129 17.0265 2.09106 15.9158 2.09106C14.8052 2.09106 13.8168 2.64129 13.2157 3.47681C13.1138 3.61946 12.9406 3.71116 12.7571 3.71116C12.7285 3.71117 12.7 3.71153 12.6715 3.71225C10.877 3.75768 9.43543 5.22743 9.43543 7.03288V7.04307C9.43543 7.67481 9.25202 8.29635 8.90559 8.8262L8.90328 8.8299C8.55831 9.35893 8.35547 9.97918 8.35547 10.6603C8.35547 11.1799 8.47774 11.6588 8.68153 12.097C8.75285 12.2396 8.75285 12.4128 8.68153 12.5555C8.47774 12.9834 8.35547 13.4623 8.35547 13.9718C8.35547 15.7651 9.80235 17.212 11.5957 17.212H20.2362C22.0295 17.212 23.4764 15.7651 23.4764 13.9718C23.4764 13.4623 23.3541 12.9834 23.1503 12.5555C23.079 12.4128 23.079 12.2396 23.1503 12.097ZM10.8063 9.40628H10.7939L12.0008 11.7779C12.1249 14.5996 13.2261 11.7779 15.9158 11.7779C18.6055 11.7779 19.7785 14.9187 19.9026 12.097L21.0463 8.87795C20.9922 7.62459 20.0839 7.53662 19.9026 7.53662H16.6606C15.3803 7.53662 14.1722 6.90998 13.4495 5.85188C13.3256 5.67724 13.0674 5.70806 12.9848 5.90324L12.9022 6.09843C12.6751 6.66343 12.2414 7.09489 11.7045 7.34144C11.6891 7.34658 11.671 7.35428 11.6529 7.36198C11.6349 7.36969 11.6168 7.37739 11.6013 7.38253C11.3638 7.5058 10.8063 7.87563 10.7856 8.831L10.7959 9.13918L10.8063 9.40628Z" fill="url(#paint14_radial_4002_783)"/>
<path fill-rule="evenodd" clip-rule="evenodd" d="M23.1503 12.097C23.3643 11.6588 23.4764 11.1697 23.4764 10.6603C23.4764 10.1898 23.3796 9.74828 23.206 9.34585H23.2114C23.1304 9.16363 23.0393 8.99146 22.9282 8.82935L22.9262 8.8262C22.5797 8.29635 22.3963 7.67481 22.3963 7.04307V7.03288C22.3963 5.1988 20.9087 3.71116 19.0746 3.71116C18.8912 3.71116 18.718 3.62965 18.6161 3.47681C18.0149 2.64129 17.0265 2.09106 15.9158 2.09106C14.8052 2.09106 13.8168 2.64129 13.2157 3.47681C13.1138 3.61946 12.9406 3.71116 12.7571 3.71116C12.7285 3.71117 12.7 3.71153 12.6715 3.71225C10.877 3.75768 9.43543 5.22743 9.43543 7.03288V7.04307C9.43543 7.67481 9.25202 8.29635 8.90559 8.8262L8.90328 8.8299C8.55831 9.35893 8.35547 9.97918 8.35547 10.6603C8.35547 11.1799 8.47774 11.6588 8.68153 12.097C8.75285 12.2396 8.75285 12.4128 8.68153 12.5555C8.47774 12.9834 8.35547 13.4623 8.35547 13.9718C8.35547 15.7651 9.80235 17.212 11.5957 17.212H20.2362C22.0295 17.212 23.4764 15.7651 23.4764 13.9718C23.4764 13.4623 23.3541 12.9834 23.1503 12.5555C23.079 12.4128 23.079 12.2396 23.1503 12.097ZM10.8063 9.40628H10.7939L12.0008 11.7779C12.1249 14.5996 13.2261 11.7779 15.9158 11.7779C18.6055 11.7779 19.7785 14.9187 19.9026 12.097L21.0463 8.87795C20.9922 7.62459 20.0839 7.53662 19.9026 7.53662H16.6606C15.3803 7.53662 14.1722 6.90998 13.4495 5.85188C13.3256 5.67724 13.0674 5.70806 12.9848 5.90324L12.9022 6.09843C12.6751 6.66343 12.2414 7.09489 11.7045 7.34144C11.6891 7.34658 11.671 7.35428 11.6529 7.36198C11.6349 7.36969 11.6168 7.37739 11.6013 7.38253C11.3638 7.5058 10.8063 7.87563 10.7856 8.831L10.7959 9.13918L10.8063 9.40628Z" fill="url(#paint15_radial_4002_783)"/>
<path fill-rule="evenodd" clip-rule="evenodd" d="M23.1503 12.097C23.3643 11.6588 23.4764 11.1697 23.4764 10.6603C23.4764 10.1898 23.3796 9.74828 23.206 9.34585H23.2114C23.1304 9.16363 23.0393 8.99146 22.9282 8.82935L22.9262 8.8262C22.5797 8.29635 22.3963 7.67481 22.3963 7.04307V7.03288C22.3963 5.1988 20.9087 3.71116 19.0746 3.71116C18.8912 3.71116 18.718 3.62965 18.6161 3.47681C18.0149 2.64129 17.0265 2.09106 15.9158 2.09106C14.8052 2.09106 13.8168 2.64129 13.2157 3.47681C13.1138 3.61946 12.9406 3.71116 12.7571 3.71116C12.7285 3.71117 12.7 3.71153 12.6715 3.71225C10.877 3.75768 9.43543 5.22743 9.43543 7.03288V7.04307C9.43543 7.67481 9.25202 8.29635 8.90559 8.8262L8.90328 8.8299C8.55831 9.35893 8.35547 9.97918 8.35547 10.6603C8.35547 11.1799 8.47774 11.6588 8.68153 12.097C8.75285 12.2396 8.75285 12.4128 8.68153 12.5555C8.47774 12.9834 8.35547 13.4623 8.35547 13.9718C8.35547 15.7651 9.80235 17.212 11.5957 17.212H20.2362C22.0295 17.212 23.4764 15.7651 23.4764 13.9718C23.4764 13.4623 23.3541 12.9834 23.1503 12.5555C23.079 12.4128 23.079 12.2396 23.1503 12.097ZM10.8063 9.40628H10.7939L12.0008 11.7779C12.1249 14.5996 13.2261 11.7779 15.9158 11.7779C18.6055 11.7779 19.7785 14.9187 19.9026 12.097L21.0463 8.87795C20.9922 7.62459 20.0839 7.53662 19.9026 7.53662H16.6606C15.3803 7.53662 14.1722 6.90998 13.4495 5.85188C13.3256 5.67724 13.0674 5.70806 12.9848 5.90324L12.9022 6.09843C12.6751 6.66343 12.2414 7.09489 11.7045 7.34144C11.6891 7.34658 11.671 7.35428 11.6529 7.36198C11.6349 7.36969 11.6168 7.37739 11.6013 7.38253C11.3638 7.5058 10.8063 7.87563 10.7856 8.831L10.7959 9.13918L10.8063 9.40628Z" fill="url(#paint16_radial_4002_783)"/>
</g>
<path d="M26.9473 29.8933C26.9473 21.9324 22.3301 20.0183 21.5723 19.5105L16.5254 29.8933H26.9473Z" fill="url(#paint17_radial_4002_783)"/>
<path d="M26.9473 29.8933C26.9473 21.9324 22.3301 20.0183 21.5723 19.5105L16.5254 29.8933H26.9473Z" fill="url(#paint18_linear_4002_783)"/>
<path d="M26.9473 29.8933C26.9473 21.9324 22.3301 20.0183 21.5723 19.5105L16.5254 29.8933H26.9473Z" fill="url(#paint19_linear_4002_783)"/>
<path d="M5.0957 29.8933C5.0957 21.9324 9.71289 20.0183 10.4707 19.5105L15.5176 29.8933H5.0957Z" fill="url(#paint20_radial_4002_783)"/>
<path d="M5.0957 29.8933C5.0957 21.9324 9.71289 20.0183 10.4707 19.5105L15.5176 29.8933H5.0957Z" fill="url(#paint21_linear_4002_783)"/>
<path d="M9.90021 17.3074C10.541 15.9949 11.7207 15.5574 12.4941 15.5574H15.1031L15.1031 18.4324H12.6344C12.4656 18.7355 12.6318 19.2826 12.7359 19.5183L17.0527 29.9089H13.877C12.8093 27.3256 10.5846 22.0917 10.1971 21.1667C9.77672 20.1629 9.30662 18.6902 9.90021 17.3074Z" fill="#795CC2"/>
<path d="M9.90021 17.3074C10.541 15.9949 11.7207 15.5574 12.4941 15.5574H15.1031L15.1031 18.4324H12.6344C12.4656 18.7355 12.6318 19.2826 12.7359 19.5183L17.0527 29.9089H13.877C12.8093 27.3256 10.5846 22.0917 10.1971 21.1667C9.77672 20.1629 9.30662 18.6902 9.90021 17.3074Z" fill="url(#paint22_radial_4002_783)"/>
<path d="M9.90021 17.3074C10.541 15.9949 11.7207 15.5574 12.4941 15.5574H15.1031L15.1031 18.4324H12.6344C12.4656 18.7355 12.6318 19.2826 12.7359 19.5183L17.0527 29.9089H13.877C12.8093 27.3256 10.5846 22.0917 10.1971 21.1667C9.77672 20.1629 9.30662 18.6902 9.90021 17.3074Z" fill="url(#paint23_linear_4002_783)"/>
<path d="M9.90021 17.3074C10.541 15.9949 11.7207 15.5574 12.4941 15.5574H15.1031L15.1031 18.4324H12.6344C12.4656 18.7355 12.6318 19.2826 12.7359 19.5183L17.0527 29.9089H13.877C12.8093 27.3256 10.5846 22.0917 10.1971 21.1667C9.77672 20.1629 9.30662 18.6902 9.90021 17.3074Z" fill="url(#paint24_radial_4002_783)"/>
<path d="M9.90021 17.3074C10.541 15.9949 11.7207 15.5574 12.4941 15.5574H15.1031L15.1031 18.4324H12.6344C12.4656 18.7355 12.6318 19.2826 12.7359 19.5183L17.0527 29.9089H13.877C12.8093 27.3256 10.5846 22.0917 10.1971 21.1667C9.77672 20.1629 9.30662 18.6902 9.90021 17.3074Z" fill="url(#paint25_linear_4002_783)"/>
<path d="M9.90021 17.3074C10.541 15.9949 11.7207 15.5574 12.4941 15.5574H15.1031L15.1031 18.4324H12.6344C12.4656 18.7355 12.6318 19.2826 12.7359 19.5183L17.0527 29.9089H13.877C12.8093 27.3256 10.5846 22.0917 10.1971 21.1667C9.77672 20.1629 9.30662 18.6902 9.90021 17.3074Z" fill="url(#paint26_radial_4002_783)"/>
<path d="M9.90021 17.3074C10.541 15.9949 11.7207 15.5574 12.4941 15.5574H15.1031L15.1031 18.4324H12.6344C12.4656 18.7355 12.6318 19.2826 12.7359 19.5183L17.0527 29.9089H13.877C12.8093 27.3256 10.5846 22.0917 10.1971 21.1667C9.77672 20.1629 9.30662 18.6902 9.90021 17.3074Z" fill="url(#paint27_radial_4002_783)"/>
<path d="M21.8193 17.3074C21.1785 15.9949 19.9988 15.5574 19.2254 15.5574H16.6163L16.6164 18.4324H19.0851C19.2539 18.7355 19.0877 19.2826 18.9835 19.5183L15.0449 29.9089H18.2207C19.2884 27.3256 21.216 22.0917 21.6035 21.1667C22.0239 20.1629 22.4129 18.6902 21.8193 17.3074Z" fill="#7A60BC"/>
<path d="M21.8193 17.3074C21.1785 15.9949 19.9988 15.5574 19.2254 15.5574H16.6163L16.6164 18.4324H19.0851C19.2539 18.7355 19.0877 19.2826 18.9835 19.5183L15.0449 29.9089H18.2207C19.2884 27.3256 21.216 22.0917 21.6035 21.1667C22.0239 20.1629 22.4129 18.6902 21.8193 17.3074Z" fill="url(#paint28_linear_4002_783)"/>
<path d="M21.8193 17.3074C21.1785 15.9949 19.9988 15.5574 19.2254 15.5574H16.6163L16.6164 18.4324H19.0851C19.2539 18.7355 19.0877 19.2826 18.9835 19.5183L15.0449 29.9089H18.2207C19.2884 27.3256 21.216 22.0917 21.6035 21.1667C22.0239 20.1629 22.4129 18.6902 21.8193 17.3074Z" fill="url(#paint29_radial_4002_783)"/>
<path d="M21.8193 17.3074C21.1785 15.9949 19.9988 15.5574 19.2254 15.5574H16.6163L16.6164 18.4324H19.0851C19.2539 18.7355 19.0877 19.2826 18.9835 19.5183L15.0449 29.9089H18.2207C19.2884 27.3256 21.216 22.0917 21.6035 21.1667C22.0239 20.1629 22.4129 18.6902 21.8193 17.3074Z" fill="url(#paint30_radial_4002_783)"/>
<g filter="url(#filter1_i_4002_783)">
<path d="M14.0097 15.3699H18.0097V17.3588C18.0204 17.5335 18.0549 17.7325 18.1621 17.8894C18.3039 18.0971 18.4668 18.1746 18.6074 18.2214L19.0722 18.3855C19.1478 18.4532 19.2926 18.8636 19.1114 19.3699C18.9306 19.8748 17.0687 24.8799 16.0176 27.3891V27.4089C16.0162 27.4056 16.0147 27.4023 16.0134 27.399C16.0121 27.4023 16.0106 27.4056 16.0093 27.4089V27.3891C14.9571 24.8799 12.8234 19.8748 12.6426 19.3699C12.4613 18.8636 12.5671 18.5001 12.6426 18.4324L13.3222 18.241C13.541 18.1785 13.6961 18.101 13.8379 17.8933C13.9508 17.7281 13.9961 17.5041 14.0097 17.3212V15.3699Z" fill="url(#paint31_linear_4002_783)"/>
<path d="M14.0097 15.3699H18.0097V17.3588C18.0204 17.5335 18.0549 17.7325 18.1621 17.8894C18.3039 18.0971 18.4668 18.1746 18.6074 18.2214L19.0722 18.3855C19.1478 18.4532 19.2926 18.8636 19.1114 19.3699C18.9306 19.8748 17.0687 24.8799 16.0176 27.3891V27.4089C16.0162 27.4056 16.0147 27.4023 16.0134 27.399C16.0121 27.4023 16.0106 27.4056 16.0093 27.4089V27.3891C14.9571 24.8799 12.8234 19.8748 12.6426 19.3699C12.4613 18.8636 12.5671 18.5001 12.6426 18.4324L13.3222 18.241C13.541 18.1785 13.6961 18.101 13.8379 17.8933C13.9508 17.7281 13.9961 17.5041 14.0097 17.3212V15.3699Z" fill="url(#paint32_radial_4002_783)"/>
<path d="M14.0097 15.3699H18.0097V17.3588C18.0204 17.5335 18.0549 17.7325 18.1621 17.8894C18.3039 18.0971 18.4668 18.1746 18.6074 18.2214L19.0722 18.3855C19.1478 18.4532 19.2926 18.8636 19.1114 19.3699C18.9306 19.8748 17.0687 24.8799 16.0176 27.3891V27.4089C16.0162 27.4056 16.0147 27.4023 16.0134 27.399C16.0121 27.4023 16.0106 27.4056 16.0093 27.4089V27.3891C14.9571 24.8799 12.8234 19.8748 12.6426 19.3699C12.4613 18.8636 12.5671 18.5001 12.6426 18.4324L13.3222 18.241C13.541 18.1785 13.6961 18.101 13.8379 17.8933C13.9508 17.7281 13.9961 17.5041 14.0097 17.3212V15.3699Z" fill="url(#paint33_radial_4002_783)"/>
</g>
<path opacity="0.5" d="M1.9707 23.9714H5.26758C8.54677 23.9714 11.2051 26.6297 11.2051 29.9089H1.9707V23.9714Z" fill="#E8D6FF"/>
<path opacity="0.5" d="M30.0293 23.9714H26.7324C23.4532 23.9714 20.7949 26.6297 20.7949 29.9089H30.0293V23.9714Z" fill="#E8D6FF"/>
<g filter="url(#filter2_f_4002_783)">
<path d="M16.1445 18.2922C16.3345 18.3193 16.8554 18.3248 17.4199 18.1294" stroke="#907066" stroke-width="0.6" stroke-linecap="round"/>
</g>
<path d="M16.2893 15.4856C16.5417 15.4957 16.8042 15.5159 17.0667 15.5361C16.8042 15.5159 16.5518 15.4957 16.2893 15.4856Z" fill="url(#paint34_linear_4002_783)"/>
<path d="M15.9562 15.4856C15.9461 15.4856 15.936 15.4856 15.9158 15.4856C16.0167 15.4856 16.1076 15.4856 16.2086 15.4957C16.1278 15.4856 16.0369 15.4856 15.9562 15.4856Z" fill="url(#paint35_linear_4002_783)"/>
<g filter="url(#filter3_i_4002_783)">
<path d="M11.1982 12.2978C12.093 12.2978 12.8183 11.5725 12.8183 10.6777C12.8183 9.78296 12.093 9.05762 11.1982 9.05762C10.3035 9.05762 9.57812 9.78296 9.57812 10.6777C9.57812 11.5725 10.3035 12.2978 11.1982 12.2978Z" fill="url(#paint36_linear_4002_783)"/>
</g>
<g filter="url(#filter4_i_4002_783)">
<path d="M20.7761 12.2978C21.6709 12.2978 22.3962 11.5725 22.3962 10.6777C22.3962 9.78296 21.6709 9.05762 20.7761 9.05762C19.8813 9.05762 19.156 9.78296 19.156 10.6777C19.156 11.5725 19.8813 12.2978 20.7761 12.2978Z" fill="url(#paint37_radial_4002_783)"/>
<path d="M20.7761 12.2978C21.6709 12.2978 22.3962 11.5725 22.3962 10.6777C22.3962 9.78296 21.6709 9.05762 20.7761 9.05762C19.8813 9.05762 19.156 9.78296 19.156 10.6777C19.156 11.5725 19.8813 12.2978 20.7761 12.2978Z" fill="url(#paint38_radial_4002_783)"/>
</g>
<g filter="url(#filter5_f_4002_783)">
<path d="M20.776 11.7591C21.3733 11.7591 21.8575 11.2749 21.8575 10.6777C21.8575 10.0804 21.3733 9.59619 20.776 9.59619C20.1788 9.59619 19.6946 10.0804 19.6946 10.6777C19.6946 11.2749 20.1788 11.7591 20.776 11.7591Z" fill="#845F59"/>
<path d="M20.776 11.7591C21.3733 11.7591 21.8575 11.2749 21.8575 10.6777C21.8575 10.0804 21.3733 9.59619 20.776 9.59619C20.1788 9.59619 19.6946 10.0804 19.6946 10.6777C19.6946 11.2749 20.1788 11.7591 20.776 11.7591Z" fill="url(#paint39_radial_4002_783)"/>
</g>
<g filter="url(#filter6_f_4002_783)">
<path d="M11.2174 11.7591C11.8147 11.7591 12.2989 11.2749 12.2989 10.6777C12.2989 10.0804 11.8147 9.59619 11.2174 9.59619C10.6202 9.59619 10.136 10.0804 10.136 10.6777C10.136 11.2749 10.6202 11.7591 11.2174 11.7591Z" fill="#5F3C45"/>
<path d="M11.2174 11.7591C11.8147 11.7591 12.2989 11.2749 12.2989 10.6777C12.2989 10.0804 11.8147 9.59619 11.2174 9.59619C10.6202 9.59619 10.136 10.0804 10.136 10.6777C10.136 11.2749 10.6202 11.7591 11.2174 11.7591Z" fill="url(#paint40_radial_4002_783)"/>
</g>
<g filter="url(#filter7_i_4002_783)">
<path d="M10.7937 9.40641H10.8061L10.7957 9.13932L10.7854 8.83113C10.8061 7.87576 11.3636 7.50594 11.6011 7.38266C11.6166 7.37753 11.6346 7.36982 11.6527 7.36212C11.6708 7.35441 11.6888 7.34671 11.7043 7.34157C12.2412 7.09502 12.6749 6.66356 12.902 6.09856L12.9846 5.90338C13.0672 5.70819 13.3254 5.67737 13.4493 5.85201C14.172 6.91011 15.38 7.53676 16.6603 7.53676H19.9024C20.0837 7.53676 20.992 7.62473 21.046 8.87808L20.9265 11.9722C20.8023 14.7939 18.5988 16.6886 15.9091 16.6886C13.2194 16.6886 11.0159 14.7939 10.8918 11.9722L10.7937 9.40641Z" fill="url(#paint41_radial_4002_783)"/>
<path d="M10.7937 9.40641H10.8061L10.7957 9.13932L10.7854 8.83113C10.8061 7.87576 11.3636 7.50594 11.6011 7.38266C11.6166 7.37753 11.6346 7.36982 11.6527 7.36212C11.6708 7.35441 11.6888 7.34671 11.7043 7.34157C12.2412 7.09502 12.6749 6.66356 12.902 6.09856L12.9846 5.90338C13.0672 5.70819 13.3254 5.67737 13.4493 5.85201C14.172 6.91011 15.38 7.53676 16.6603 7.53676H19.9024C20.0837 7.53676 20.992 7.62473 21.046 8.87808L20.9265 11.9722C20.8023 14.7939 18.5988 16.6886 15.9091 16.6886C13.2194 16.6886 11.0159 14.7939 10.8918 11.9722L10.7937 9.40641Z" fill="url(#paint42_radial_4002_783)"/>
<path d="M10.7937 9.40641H10.8061L10.7957 9.13932L10.7854 8.83113C10.8061 7.87576 11.3636 7.50594 11.6011 7.38266C11.6166 7.37753 11.6346 7.36982 11.6527 7.36212C11.6708 7.35441 11.6888 7.34671 11.7043 7.34157C12.2412 7.09502 12.6749 6.66356 12.902 6.09856L12.9846 5.90338C13.0672 5.70819 13.3254 5.67737 13.4493 5.85201C14.172 6.91011 15.38 7.53676 16.6603 7.53676H19.9024C20.0837 7.53676 20.992 7.62473 21.046 8.87808L20.9265 11.9722C20.8023 14.7939 18.5988 16.6886 15.9091 16.6886C13.2194 16.6886 11.0159 14.7939 10.8918 11.9722L10.7937 9.40641Z" fill="url(#paint43_radial_4002_783)"/>
<path d="M10.7937 9.40641H10.8061L10.7957 9.13932L10.7854 8.83113C10.8061 7.87576 11.3636 7.50594 11.6011 7.38266C11.6166 7.37753 11.6346 7.36982 11.6527 7.36212C11.6708 7.35441 11.6888 7.34671 11.7043 7.34157C12.2412 7.09502 12.6749 6.66356 12.902 6.09856L12.9846 5.90338C13.0672 5.70819 13.3254 5.67737 13.4493 5.85201C14.172 6.91011 15.38 7.53676 16.6603 7.53676H19.9024C20.0837 7.53676 20.992 7.62473 21.046 8.87808L20.9265 11.9722C20.8023 14.7939 18.5988 16.6886 15.9091 16.6886C13.2194 16.6886 11.0159 14.7939 10.8918 11.9722L10.7937 9.40641Z" fill="url(#paint44_radial_4002_783)"/>
<path d="M10.7937 9.40641H10.8061L10.7957 9.13932L10.7854 8.83113C10.8061 7.87576 11.3636 7.50594 11.6011 7.38266C11.6166 7.37753 11.6346 7.36982 11.6527 7.36212C11.6708 7.35441 11.6888 7.34671 11.7043 7.34157C12.2412 7.09502 12.6749 6.66356 12.902 6.09856L12.9846 5.90338C13.0672 5.70819 13.3254 5.67737 13.4493 5.85201C14.172 6.91011 15.38 7.53676 16.6603 7.53676H19.9024C20.0837 7.53676 20.992 7.62473 21.046 8.87808L20.9265 11.9722C20.8023 14.7939 18.5988 16.6886 15.9091 16.6886C13.2194 16.6886 11.0159 14.7939 10.8918 11.9722L10.7937 9.40641Z" fill="url(#paint45_radial_4002_783)"/>
<path d="M10.7937 9.40641H10.8061L10.7957 9.13932L10.7854 8.83113C10.8061 7.87576 11.3636 7.50594 11.6011 7.38266C11.6166 7.37753 11.6346 7.36982 11.6527 7.36212C11.6708 7.35441 11.6888 7.34671 11.7043 7.34157C12.2412 7.09502 12.6749 6.66356 12.902 6.09856L12.9846 5.90338C13.0672 5.70819 13.3254 5.67737 13.4493 5.85201C14.172 6.91011 15.38 7.53676 16.6603 7.53676H19.9024C20.0837 7.53676 20.992 7.62473 21.046 8.87808L20.9265 11.9722C20.8023 14.7939 18.5988 16.6886 15.9091 16.6886C13.2194 16.6886 11.0159 14.7939 10.8918 11.9722L10.7937 9.40641Z" fill="url(#paint46_radial_4002_783)"/>
<path d="M10.7937 9.40641H10.8061L10.7957 9.13932L10.7854 8.83113C10.8061 7.87576 11.3636 7.50594 11.6011 7.38266C11.6166 7.37753 11.6346 7.36982 11.6527 7.36212C11.6708 7.35441 11.6888 7.34671 11.7043 7.34157C12.2412 7.09502 12.6749 6.66356 12.902 6.09856L12.9846 5.90338C13.0672 5.70819 13.3254 5.67737 13.4493 5.85201C14.172 6.91011 15.38 7.53676 16.6603 7.53676H19.9024C20.0837 7.53676 20.992 7.62473 21.046 8.87808L20.9265 11.9722C20.8023 14.7939 18.5988 16.6886 15.9091 16.6886C13.2194 16.6886 11.0159 14.7939 10.8918 11.9722L10.7937 9.40641Z" fill="url(#paint47_radial_4002_783)"/>
<path d="M10.7937 9.40641H10.8061L10.7957 9.13932L10.7854 8.83113C10.8061 7.87576 11.3636 7.50594 11.6011 7.38266C11.6166 7.37753 11.6346 7.36982 11.6527 7.36212C11.6708 7.35441 11.6888 7.34671 11.7043 7.34157C12.2412 7.09502 12.6749 6.66356 12.902 6.09856L12.9846 5.90338C13.0672 5.70819 13.3254 5.67737 13.4493 5.85201C14.172 6.91011 15.38 7.53676 16.6603 7.53676H19.9024C20.0837 7.53676 20.992 7.62473 21.046 8.87808L20.9265 11.9722C20.8023 14.7939 18.5988 16.6886 15.9091 16.6886C13.2194 16.6886 11.0159 14.7939 10.8918 11.9722L10.7937 9.40641Z" fill="url(#paint48_radial_4002_783)"/>
</g>
<path d="M10.7937 9.40641H10.8061L10.7957 9.13932L10.7854 8.83113C10.8061 7.87576 11.3636 7.50594 11.6011 7.38266C11.6166 7.37753 11.6346 7.36982 11.6527 7.36212C11.6708 7.35441 11.6888 7.34671 11.7043 7.34157C12.2412 7.09502 12.6749 6.66356 12.902 6.09856L12.9846 5.90338C13.0672 5.70819 13.3254 5.67737 13.4493 5.85201C14.172 6.91011 15.38 7.53676 16.6603 7.53676H19.9024C20.0837 7.53676 20.992 7.62473 21.046 8.87808L20.9265 11.9722C20.8023 14.7939 18.5988 16.6886 15.9091 16.6886C13.2194 16.6886 11.0159 14.7939 10.8918 11.9722L10.7937 9.40641Z" fill="url(#paint49_radial_4002_783)"/>
<path d="M10.7937 9.40641H10.8061L10.7957 9.13932L10.7854 8.83113C10.8061 7.87576 11.3636 7.50594 11.6011 7.38266C11.6166 7.37753 11.6346 7.36982 11.6527 7.36212C11.6708 7.35441 11.6888 7.34671 11.7043 7.34157C12.2412 7.09502 12.6749 6.66356 12.902 6.09856L12.9846 5.90338C13.0672 5.70819 13.3254 5.67737 13.4493 5.85201C14.172 6.91011 15.38 7.53676 16.6603 7.53676H19.9024C20.0837 7.53676 20.992 7.62473 21.046 8.87808L20.9265 11.9722C20.8023 14.7939 18.5988 16.6886 15.9091 16.6886C13.2194 16.6886 11.0159 14.7939 10.8918 11.9722L10.7937 9.40641Z" fill="url(#paint50_radial_4002_783)"/>
<path d="M10.7937 9.40641H10.8061L10.7957 9.13932L10.7854 8.83113C10.8061 7.87576 11.3636 7.50594 11.6011 7.38266C11.6166 7.37753 11.6346 7.36982 11.6527 7.36212C11.6708 7.35441 11.6888 7.34671 11.7043 7.34157C12.2412 7.09502 12.6749 6.66356 12.902 6.09856L12.9846 5.90338C13.0672 5.70819 13.3254 5.67737 13.4493 5.85201C14.172 6.91011 15.38 7.53676 16.6603 7.53676H19.9024C20.0837 7.53676 20.992 7.62473 21.046 8.87808L20.9265 11.9722C20.8023 14.7939 18.5988 16.6886 15.9091 16.6886C13.2194 16.6886 11.0159 14.7939 10.8918 11.9722L10.7937 9.40641Z" fill="url(#paint51_radial_4002_783)"/>
<g filter="url(#filter8_f_4002_783)">
<path d="M15.5206 10.4533L14.8324 12.165C14.7232 12.517 14.9853 12.8691 15.3566 12.8691H16.1483C16.5196 12.8691 16.7817 12.5116 16.6725 12.165L16.1374 10.4533C16.0227 10.0742 15.6407 10.0742 15.5206 10.4533Z" fill="#70404A"/>
</g>
<g filter="url(#filter9_f_4002_783)">
<path d="M15.5311 10.3139L14.9959 12.0256C14.8867 12.3776 15.1488 12.7297 15.5201 12.7297H16.3119C16.6832 12.7297 16.9453 12.3722 16.8361 12.0256L16.301 10.3139C16.1863 9.93475 15.6512 9.93475 15.5311 10.3139Z" fill="#8A6058"/>
<path d="M15.5311 10.3139L14.9959 12.0256C14.8867 12.3776 15.1488 12.7297 15.5201 12.7297H16.3119C16.6832 12.7297 16.9453 12.3722 16.8361 12.0256L16.301 10.3139C16.1863 9.93475 15.6512 9.93475 15.5311 10.3139Z" fill="url(#paint52_radial_4002_783)"/>
<path d="M15.5311 10.3139L14.9959 12.0256C14.8867 12.3776 15.1488 12.7297 15.5201 12.7297H16.3119C16.6832 12.7297 16.9453 12.3722 16.8361 12.0256L16.301 10.3139C16.1863 9.93475 15.6512 9.93475 15.5311 10.3139Z" fill="url(#paint53_linear_4002_783)"/>
<path d="M15.5311 10.3139L14.9959 12.0256C14.8867 12.3776 15.1488 12.7297 15.5201 12.7297H16.3119C16.6832 12.7297 16.9453 12.3722 16.8361 12.0256L16.301 10.3139C16.1863 9.93475 15.6512 9.93475 15.5311 10.3139Z" fill="url(#paint54_linear_4002_783)"/>
<path d="M15.5311 10.3139L14.9959 12.0256C14.8867 12.3776 15.1488 12.7297 15.5201 12.7297H16.3119C16.6832 12.7297 16.9453 12.3722 16.8361 12.0256L16.301 10.3139C16.1863 9.93475 15.6512 9.93475 15.5311 10.3139Z" fill="url(#paint55_radial_4002_783)"/>
</g>
<g filter="url(#filter10_f_4002_783)">
<path d="M15.916 13.6092C15.3918 13.6092 14.8989 13.483 14.4847 13.2622C14.3432 13.1885 14.1911 13.3515 14.2802 13.483C14.6263 14.0194 15.2292 14.377 15.916 14.377C16.6029 14.377 17.2058 14.0194 17.5519 13.483C17.641 13.3463 17.4889 13.1885 17.3474 13.2622C16.9332 13.483 16.4456 13.6092 15.916 13.6092Z" fill="#88014F"/>
<path d="M15.916 13.6092C15.3918 13.6092 14.8989 13.483 14.4847 13.2622C14.3432 13.1885 14.1911 13.3515 14.2802 13.483C14.6263 14.0194 15.2292 14.377 15.916 14.377C16.6029 14.377 17.2058 14.0194 17.5519 13.483C17.641 13.3463 17.4889 13.1885 17.3474 13.2622C16.9332 13.483 16.4456 13.6092 15.916 13.6092Z" stroke="url(#paint56_linear_4002_783)" stroke-width="0.2"/>
</g>
<path d="M15.916 13.6092C15.3918 13.6092 14.8989 13.483 14.4847 13.2622C14.3432 13.1885 14.1911 13.3515 14.2802 13.483C14.6263 14.0194 15.2292 14.377 15.916 14.377C16.6029 14.377 17.2058 14.0194 17.5519 13.483C17.641 13.3463 17.4889 13.1885 17.3474 13.2622C16.9332 13.483 16.4456 13.6092 15.916 13.6092Z" fill="#88014F"/>
<g filter="url(#filter11_i_4002_783)">
<path d="M17.0659 10.1047C17.3331 9.63467 17.7394 9.26343 18.6138 9.26343C18.9966 9.26343 19.3658 9.3695 19.6939 9.63467C19.9646 9.85339 19.9284 10.1332 19.7188 10.238L19.1589 10.5577C18.5026 10.3455 17.7769 10.3168 17.0659 10.1047Z" fill="#2D2B2E"/>
</g>
<g filter="url(#filter12_i_4002_783)">
<path d="M14.7661 10.1047C14.4989 9.63467 14.0927 9.26343 13.2182 9.26343C12.8354 9.26343 12.4662 9.3695 12.1381 9.63467C11.8674 9.85339 11.9037 10.1332 12.1133 10.238L12.6731 10.5577C13.3294 10.3455 14.0551 10.3168 14.7661 10.1047Z" fill="#272528"/>
</g>
<g filter="url(#filter13_i_4002_783)">
<path d="M12.4951 8.88759L12.4907 8.89014C12.4906 8.89022 12.4905 8.8903 12.4903 8.89038C12.3625 8.96667 12.1969 8.92522 12.1203 8.79752C12.0435 8.66965 12.0852 8.50369 12.213 8.42697L12.2136 8.42662L12.2147 8.42601L12.2176 8.42425L12.2271 8.41877C12.235 8.41428 12.2459 8.40813 12.2598 8.40063C12.2874 8.38563 12.3268 8.36513 12.3765 8.34144C12.4758 8.29416 12.6172 8.2336 12.7895 8.1786C13.1317 8.06939 13.6102 7.97751 14.1268 8.06867C14.2737 8.09459 14.3717 8.23465 14.3458 8.38151C14.3199 8.52836 14.1798 8.6264 14.033 8.60049C13.6315 8.52964 13.246 8.59977 12.9537 8.69307C12.8087 8.73933 12.6903 8.79015 12.6089 8.82894C12.5683 8.84828 12.5372 8.86449 12.517 8.87544C12.5069 8.88091 12.4996 8.88505 12.4951 8.88759Z" fill="#352827"/>
</g>
<g filter="url(#filter14_i_4002_783)">
<path fill-rule="evenodd" clip-rule="evenodd" d="M19.6728 8.42697C19.6729 8.42702 19.673 8.42706 19.5341 8.6586L19.6728 8.42697C19.8007 8.50369 19.8423 8.66965 19.7656 8.79752C19.689 8.92522 19.5235 8.96675 19.3957 8.89045C19.3956 8.8904 19.3954 8.89031 19.3952 8.89017L19.3907 8.88759C19.3863 8.88505 19.3789 8.88091 19.3688 8.87544C19.3486 8.86449 19.3176 8.84828 19.277 8.82894C19.1956 8.79015 19.0771 8.73933 18.9322 8.69307C18.6399 8.59977 18.2543 8.52964 17.8529 8.60049C17.706 8.6264 17.566 8.52836 17.54 8.38151C17.5141 8.23465 17.6122 8.09459 17.759 8.06867C18.2756 7.97751 18.7542 8.06939 19.0964 8.1786C19.2687 8.2336 19.4101 8.29416 19.5093 8.34144C19.559 8.36513 19.5984 8.38563 19.6261 8.40063C19.6399 8.40813 19.6509 8.41428 19.6588 8.41877L19.6682 8.42425L19.6712 8.42601L19.6722 8.42662L19.6728 8.42697Z" fill="#352827"/>
</g>
<path d="M18.3232 9.32251C18.9807 9.32251 19.5362 9.77587 19.6873 10.3885C19.7323 10.5642 19.5975 10.7316 19.4178 10.7316H17.1714C17.0284 10.7316 16.9141 10.6009 16.9426 10.458C17.0693 9.81263 17.637 9.32251 18.3232 9.32251Z" fill="white"/>
<path d="M18.1148 9.59619C18.6131 9.59619 19.0134 10.0005 19.0134 10.4947C19.0134 10.5764 19.0011 10.6581 18.9807 10.7316H17.2448C17.2244 10.654 17.2122 10.5764 17.2122 10.4947C17.2122 10.0005 17.6165 9.59619 18.1148 9.59619Z" fill="url(#paint57_radial_4002_783)"/>
<path d="M17.6003 10.4949C17.6003 10.2089 17.8291 9.98022 18.115 9.98022C18.4009 9.98022 18.6296 10.2089 18.6296 10.4949C18.6296 10.5806 18.6092 10.6623 18.5724 10.7317H17.6616C17.6208 10.6623 17.6003 10.5806 17.6003 10.4949Z" fill="black"/>
<g filter="url(#filter15_f_4002_783)">
<path d="M18.049 9.7863C18.113 9.87192 17.9792 9.9763 17.827 10.0901C17.6749 10.2038 17.562 10.2839 17.498 10.1982C17.434 10.1126 17.5054 9.95099 17.6576 9.83724C17.8097 9.72348 17.985 9.70067 18.049 9.7863Z" fill="#C7A7A3"/>
<path d="M18.049 9.7863C18.113 9.87192 17.9792 9.9763 17.827 10.0901C17.6749 10.2038 17.562 10.2839 17.498 10.1982C17.434 10.1126 17.5054 9.95099 17.6576 9.83724C17.8097 9.72348 17.985 9.70067 18.049 9.7863Z" fill="url(#paint58_radial_4002_783)"/>
</g>
<g filter="url(#filter16_f_4002_783)">
<path d="M18.9152 10.3765C18.8821 10.1442 18.7461 9.96914 18.6823 9.91064L18.4207 10.1978L18.5387 10.4276L18.9152 10.3765Z" fill="url(#paint59_linear_4002_783)"/>
</g>
<path d="M13.5084 9.32251C12.8508 9.32251 12.2953 9.77588 12.1442 10.3885C12.0993 10.5642 12.2341 10.7316 12.4138 10.7316H14.6602C14.8031 10.7316 14.9175 10.6009 14.8889 10.458C14.7623 9.81263 14.1905 9.32251 13.5084 9.32251Z" fill="white"/>
<path d="M13.7167 9.59619C13.2184 9.59619 12.8181 10.0005 12.8181 10.4948C12.8181 10.5764 12.8304 10.6581 12.8508 10.7316H14.5866C14.6071 10.654 14.6193 10.5764 14.6193 10.4948C14.6152 10.0005 14.215 9.59619 13.7167 9.59619Z" fill="url(#paint60_radial_4002_783)"/>
<path d="M14.2317 10.4949C14.2317 10.2089 14.0029 9.98022 13.717 9.98022C13.4311 9.98022 13.2024 10.2089 13.2024 10.4949C13.2024 10.5806 13.2228 10.6623 13.2596 10.7317H14.1704C14.2071 10.6623 14.2317 10.5806 14.2317 10.4949Z" fill="black"/>
<g filter="url(#filter17_f_4002_783)">
<path d="M14.5378 10.3891C14.5378 10.0988 14.3017 9.90518 14.2379 9.84668L13.9475 10.1275L14.1262 10.4912L14.5378 10.3891Z" fill="url(#paint61_linear_4002_783)"/>
</g>
<g filter="url(#filter18_f_4002_783)">
<ellipse cx="13.4457" cy="9.98007" rx="0.39227" ry="0.198525" transform="rotate(-27.914 13.4457 9.98007)" fill="#C7A7A3" fill-opacity="0.9"/>
<ellipse cx="13.4457" cy="9.98007" rx="0.39227" ry="0.198525" transform="rotate(-27.914 13.4457 9.98007)" fill="url(#paint62_radial_4002_783)"/>
</g>
<g filter="url(#filter19_f_4002_783)">
<path d="M17.8689 8.28872C18.1937 8.20972 19.0012 8.24922 19.541 8.63544" stroke="#473C3C" stroke-width="0.2" stroke-linecap="round"/>
</g>
<g filter="url(#filter20_f_4002_783)">
<path d="M14.0518 8.28872C13.727 8.20972 12.9194 8.24922 12.3796 8.63544" stroke="#473C3C" stroke-width="0.2" stroke-linecap="round"/>
</g>
<g filter="url(#filter21_if_4002_783)">
<path d="M10.812 4.64835C11.3815 4.04501 12.4594 4.04405 12.9574 4.13405L13.3558 5.43351C13.1013 5.39413 12.8744 5.48413 12.6835 5.66977C12.232 6.93885 10.6805 7.63865 9.96121 7.82991C9.81181 6.32794 10.0707 5.43351 10.812 4.64835Z" fill="#2A191E"/>
<path d="M10.812 4.64835C11.3815 4.04501 12.4594 4.04405 12.9574 4.13405L13.3558 5.43351C13.1013 5.39413 12.8744 5.48413 12.6835 5.66977C12.232 6.93885 10.6805 7.63865 9.96121 7.82991C9.81181 6.32794 10.0707 5.43351 10.812 4.64835Z" fill="url(#paint63_radial_4002_783)"/>
</g>
<g filter="url(#filter22_if_4002_783)">
<path d="M15.3084 2.83382C14.168 2.58204 13.144 3.71981 13.0259 4.14172C14.0849 7.711 16.7643 7.51549 19.4093 7.2216C20.9927 7.04567 21.1644 7.76725 21.2994 8.11602C21.2994 4.15639 17.9324 3.41308 15.3373 2.84019L15.3084 2.83382Z" fill="#2F1920"/>
<path d="M15.3084 2.83382C14.168 2.58204 13.144 3.71981 13.0259 4.14172C14.0849 7.711 16.7643 7.51549 19.4093 7.2216C20.9927 7.04567 21.1644 7.76725 21.2994 8.11602C21.2994 4.15639 17.9324 3.41308 15.3373 2.84019L15.3084 2.83382Z" fill="url(#paint64_radial_4002_783)"/>
<path d="M15.3084 2.83382C14.168 2.58204 13.144 3.71981 13.0259 4.14172C14.0849 7.711 16.7643 7.51549 19.4093 7.2216C20.9927 7.04567 21.1644 7.76725 21.2994 8.11602C21.2994 4.15639 17.9324 3.41308 15.3373 2.84019L15.3084 2.83382Z" fill="url(#paint65_radial_4002_783)"/>
</g>
<g filter="url(#filter23_f_4002_783)">
<path d="M13.0049 4.09106C13.0283 4.33577 13.2411 5.25551 13.5534 5.81242" stroke="url(#paint66_linear_4002_783)" stroke-width="0.2" stroke-linecap="round"/>
</g>
<g filter="url(#filter24_f_4002_783)">
<path d="M18.3386 6.46821L16.9034 6.7322C16.4777 6.81051 16.0852 6.48363 16.0852 6.05077C16.0852 5.66812 16.3949 5.35791 16.7776 5.35791H19.1344C20.5282 5.35791 20.9896 6.7627 21.0461 7.24273C20.3142 6.5756 19.3125 6.28905 18.3386 6.46821Z" fill="#47383D"/>
</g>
<defs>
<filter id="filter0_i_4002_783" x="8.35547" y="1.34106" width="15.3709" height="15.871" filterUnits="userSpaceOnUse" color-interpolation-filters="sRGB">
<feFlood flood-opacity="0" result="BackgroundImageFix"/>
<feBlend mode="normal" in="SourceGraphic" in2="BackgroundImageFix" result="shape"/>
<feColorMatrix in="SourceAlpha" type="matrix" values="0 0 0 0 0 0 0 0 0 0 0 0 0 0 0 0 0 0 127 0" result="hardAlpha"/>
<feOffset dx="0.25" dy="-0.75"/>
<feGaussianBlur stdDeviation="0.75"/>
<feComposite in2="hardAlpha" operator="arithmetic" k2="-1" k3="1"/>
<feColorMatrix type="matrix" values="0 0 0 0 0.121569 0 0 0 0 0.0705882 0 0 0 0 0.164706 0 0 0 1 0"/>
<feBlend mode="normal" in2="shape" result="effect1_innerShadow_4002_783"/>
</filter>
<filter id="filter1_i_4002_783" x="12.2925" y="15.3699" width="6.90628" height="12.0391" filterUnits="userSpaceOnUse" color-interpolation-filters="sRGB">
<feFlood flood-opacity="0" result="BackgroundImageFix"/>
<feBlend mode="normal" in="SourceGraphic" in2="BackgroundImageFix" result="shape"/>
<feColorMatrix in="SourceAlpha" type="matrix" values="0 0 0 0 0 0 0 0 0 0 0 0 0 0 0 0 0 0 127 0" result="hardAlpha"/>
<feOffset dx="-0.25"/>
<feGaussianBlur stdDeviation="0.5"/>
<feComposite in2="hardAlpha" operator="arithmetic" k2="-1" k3="1"/>
<feColorMatrix type="matrix" values="0 0 0 0 0.364706 0 0 0 0 0.160784 0 0 0 0 0.113725 0 0 0 1 0"/>
<feBlend mode="normal" in2="shape" result="effect1_innerShadow_4002_783"/>
</filter>
<filter id="filter2_f_4002_783" x="15.2445" y="17.2293" width="3.07552" height="1.97661" filterUnits="userSpaceOnUse" color-interpolation-filters="sRGB">
<feFlood flood-opacity="0" result="BackgroundImageFix"/>
<feBlend mode="normal" in="SourceGraphic" in2="BackgroundImageFix" result="shape"/>
<feGaussianBlur stdDeviation="0.3" result="effect1_foregroundBlur_4002_783"/>
</filter>
<filter id="filter3_i_4002_783" x="9.57812" y="9.05762" width="3.3902" height="3.24023" filterUnits="userSpaceOnUse" color-interpolation-filters="sRGB">
<feFlood flood-opacity="0" result="BackgroundImageFix"/>
<feBlend mode="normal" in="SourceGraphic" in2="BackgroundImageFix" result="shape"/>
<feColorMatrix in="SourceAlpha" type="matrix" values="0 0 0 0 0 0 0 0 0 0 0 0 0 0 0 0 0 0 127 0" result="hardAlpha"/>
<feOffset dx="0.15"/>
<feGaussianBlur stdDeviation="0.25"/>
<feComposite in2="hardAlpha" operator="arithmetic" k2="-1" k3="1"/>
<feColorMatrix type="matrix" values="0 0 0 0 0.509804 0 0 0 0 0.376471 0 0 0 0 0.34902 0 0 0 1 0"/>
<feBlend mode="normal" in2="shape" result="effect1_innerShadow_4002_783"/>
</filter>
<filter id="filter4_i_4002_783" x="19.156" y="8.80762" width="3.2402" height="3.49023" filterUnits="userSpaceOnUse" color-interpolation-filters="sRGB">
<feFlood flood-opacity="0" result="BackgroundImageFix"/>
<feBlend mode="normal" in="SourceGraphic" in2="BackgroundImageFix" result="shape"/>
<feColorMatrix in="SourceAlpha" type="matrix" values="0 0 0 0 0 0 0 0 0 0 0 0 0 0 0 0 0 0 127 0" result="hardAlpha"/>
<feOffset dy="-0.25"/>
<feGaussianBlur stdDeviation="0.25"/>
<feComposite in2="hardAlpha" operator="arithmetic" k2="-1" k3="1"/>
<feColorMatrix type="matrix" values="0 0 0 0 0.431373 0 0 0 0 0.243137 0 0 0 0 0.282353 0 0 0 1 0"/>
<feBlend mode="normal" in2="shape" result="effect1_innerShadow_4002_783"/>
</filter>
<filter id="filter5_f_4002_783" x="19.1946" y="9.09619" width="3.16293" height="3.16296" filterUnits="userSpaceOnUse" color-interpolation-filters="sRGB">
<feFlood flood-opacity="0" result="BackgroundImageFix"/>
<feBlend mode="normal" in="SourceGraphic" in2="BackgroundImageFix" result="shape"/>
<feGaussianBlur stdDeviation="0.25" result="effect1_foregroundBlur_4002_783"/>
</filter>
<filter id="filter6_f_4002_783" x="9.88599" y="9.34619" width="2.66293" height="2.66296" filterUnits="userSpaceOnUse" color-interpolation-filters="sRGB">
<feFlood flood-opacity="0" result="BackgroundImageFix"/>
<feBlend mode="normal" in="SourceGraphic" in2="BackgroundImageFix" result="shape"/>
<feGaussianBlur stdDeviation="0.125" result="effect1_foregroundBlur_4002_783"/>
</filter>
<filter id="filter7_i_4002_783" x="10.7854" y="5.7373" width="10.2606" height="11.2013" filterUnits="userSpaceOnUse" color-interpolation-filters="sRGB">
<feFlood flood-opacity="0" result="BackgroundImageFix"/>
<feBlend mode="normal" in="SourceGraphic" in2="BackgroundImageFix" result="shape"/>
<feColorMatrix in="SourceAlpha" type="matrix" values="0 0 0 0 0 0 0 0 0 0 0 0 0 0 0 0 0 0 127 0" result="hardAlpha"/>
<feOffset dy="0.25"/>
<feGaussianBlur stdDeviation="0.175"/>
<feComposite in2="hardAlpha" operator="arithmetic" k2="-1" k3="1"/>
<feColorMatrix type="matrix" values="0 0 0 0 0.407843 0 0 0 0 0.223529 0 0 0 0 0.25098 0 0 0 1 0"/>
<feBlend mode="normal" in2="shape" result="effect1_innerShadow_4002_783"/>
</filter>
<filter id="filter8_f_4002_783" x="14.3074" y="9.66895" width="2.89011" height="3.7002" filterUnits="userSpaceOnUse" color-interpolation-filters="sRGB">
<feFlood flood-opacity="0" result="BackgroundImageFix"/>
<feBlend mode="normal" in="SourceGraphic" in2="BackgroundImageFix" result="shape"/>
<feGaussianBlur stdDeviation="0.25" result="effect1_foregroundBlur_4002_783"/>
</filter>
<filter id="filter9_f_4002_783" x="14.7209" y="9.77954" width="2.39011" height="3.2002" filterUnits="userSpaceOnUse" color-interpolation-filters="sRGB">
<feFlood flood-opacity="0" result="BackgroundImageFix"/>
<feBlend mode="normal" in="SourceGraphic" in2="BackgroundImageFix" result="shape"/>
<feGaussianBlur stdDeviation="0.125" result="effect1_foregroundBlur_4002_783"/>
</filter>
<filter id="filter10_f_4002_783" x="14.0536" y="13.0433" width="3.72493" height="1.53362" filterUnits="userSpaceOnUse" color-interpolation-filters="sRGB">
<feFlood flood-opacity="0" result="BackgroundImageFix"/>
<feBlend mode="normal" in="SourceGraphic" in2="BackgroundImageFix" result="shape"/>
<feGaussianBlur stdDeviation="0.05" result="effect1_foregroundBlur_4002_783"/>
</filter>
<filter id="filter11_i_4002_783" x="16.8659" y="9.26343" width="3.02056" height="1.29419" filterUnits="userSpaceOnUse" color-interpolation-filters="sRGB">
<feFlood flood-opacity="0" result="BackgroundImageFix"/>
<feBlend mode="normal" in="SourceGraphic" in2="BackgroundImageFix" result="shape"/>
<feColorMatrix in="SourceAlpha" type="matrix" values="0 0 0 0 0 0 0 0 0 0 0 0 0 0 0 0 0 0 127 0" result="hardAlpha"/>
<feOffset dx="-0.2"/>
<feGaussianBlur stdDeviation="0.2"/>
<feComposite in2="hardAlpha" operator="arithmetic" k2="-1" k3="1"/>
<feColorMatrix type="matrix" values="0 0 0 0 0.0941176 0 0 0 0 0.0666667 0 0 0 0 0.117647 0 0 0 1 0"/>
<feBlend mode="normal" in2="shape" result="effect1_innerShadow_4002_783"/>
</filter>
<filter id="filter12_i_4002_783" x="11.9456" y="9.26343" width="3.02056" height="1.29419" filterUnits="userSpaceOnUse" color-interpolation-filters="sRGB">
<feFlood flood-opacity="0" result="BackgroundImageFix"/>
<feBlend mode="normal" in="SourceGraphic" in2="BackgroundImageFix" result="shape"/>
<feColorMatrix in="SourceAlpha" type="matrix" values="0 0 0 0 0 0 0 0 0 0 0 0 0 0 0 0 0 0 127 0" result="hardAlpha"/>
<feOffset dx="0.2"/>
<feGaussianBlur stdDeviation="0.125"/>
<feComposite in2="hardAlpha" operator="arithmetic" k2="-1" k3="1"/>
<feColorMatrix type="matrix" values="0 0 0 0 0.0862745 0 0 0 0 0.054902 0 0 0 0 0.113725 0 0 0 1 0"/>
<feBlend mode="normal" in2="shape" result="effect1_innerShadow_4002_783"/>
</filter>
<filter id="filter13_i_4002_783" x="12.0818" y="7.83149" width="2.46819" height="1.09709" filterUnits="userSpaceOnUse" color-interpolation-filters="sRGB">
<feFlood flood-opacity="0" result="BackgroundImageFix"/>
<feBlend mode="normal" in="SourceGraphic" in2="BackgroundImageFix" result="shape"/>
<feColorMatrix in="SourceAlpha" type="matrix" values="0 0 0 0 0 0 0 0 0 0 0 0 0 0 0 0 0 0 127 0" result="hardAlpha"/>
<feOffset dx="0.2" dy="-0.2"/>
<feGaussianBlur stdDeviation="0.15"/>
<feComposite in2="hardAlpha" operator="arithmetic" k2="-1" k3="1"/>
<feColorMatrix type="matrix" values="0 0 0 0 0.164706 0 0 0 0 0.0901961 0 0 0 0 0.109804 0 0 0 1 0"/>
<feBlend mode="normal" in2="shape" result="effect1_innerShadow_4002_783"/>
</filter>
<filter id="filter14_i_4002_783" x="17.5359" y="7.83149" width="2.46819" height="1.09722" filterUnits="userSpaceOnUse" color-interpolation-filters="sRGB">
<feFlood flood-opacity="0" result="BackgroundImageFix"/>
<feBlend mode="normal" in="SourceGraphic" in2="BackgroundImageFix" result="shape"/>
<feColorMatrix in="SourceAlpha" type="matrix" values="0 0 0 0 0 0 0 0 0 0 0 0 0 0 0 0 0 0 127 0" result="hardAlpha"/>
<feOffset dx="0.2" dy="-0.2"/>
<feGaussianBlur stdDeviation="0.15"/>
<feComposite in2="hardAlpha" operator="arithmetic" k2="-1" k3="1"/>
<feColorMatrix type="matrix" values="0 0 0 0 0.164706 0 0 0 0 0.0901961 0 0 0 0 0.109804 0 0 0 1 0"/>
<feBlend mode="normal" in2="shape" result="effect1_innerShadow_4002_783"/>
</filter>
<filter id="filter15_f_4002_783" x="17.3745" y="9.6345" width="0.790851" height="0.699634" filterUnits="userSpaceOnUse" color-interpolation-filters="sRGB">
<feFlood flood-opacity="0" result="BackgroundImageFix"/>
<feBlend mode="normal" in="SourceGraphic" in2="BackgroundImageFix" result="shape"/>
<feGaussianBlur stdDeviation="0.05" result="effect1_foregroundBlur_4002_783"/>
</filter>
<filter id="filter16_f_4002_783" x="18.2207" y="9.71064" width="0.894598" height="0.916968" filterUnits="userSpaceOnUse" color-interpolation-filters="sRGB">
<feFlood flood-opacity="0" result="BackgroundImageFix"/>
<feBlend mode="normal" in="SourceGraphic" in2="BackgroundImageFix" result="shape"/>
<feGaussianBlur stdDeviation="0.1" result="effect1_foregroundBlur_4002_783"/>
</filter>
<filter id="filter17_f_4002_783" x="13.7475" y="9.64668" width="0.990332" height="1.04453" filterUnits="userSpaceOnUse" color-interpolation-filters="sRGB">
<feFlood flood-opacity="0" result="BackgroundImageFix"/>
<feBlend mode="normal" in="SourceGraphic" in2="BackgroundImageFix" result="shape"/>
<feGaussianBlur stdDeviation="0.1" result="effect1_foregroundBlur_4002_783"/>
</filter>
<filter id="filter18_f_4002_783" x="12.9867" y="9.62607" width="0.917926" height="0.707935" filterUnits="userSpaceOnUse" color-interpolation-filters="sRGB">
<feFlood flood-opacity="0" result="BackgroundImageFix"/>
<feBlend mode="normal" in="SourceGraphic" in2="BackgroundImageFix" result="shape"/>
<feGaussianBlur stdDeviation="0.05" result="effect1_foregroundBlur_4002_783"/>
</filter>
<filter id="filter19_f_4002_783" x="17.5689" y="7.95515" width="2.27216" height="0.980322" filterUnits="userSpaceOnUse" color-interpolation-filters="sRGB">
<feFlood flood-opacity="0" result="BackgroundImageFix"/>
<feBlend mode="normal" in="SourceGraphic" in2="BackgroundImageFix" result="shape"/>
<feGaussianBlur stdDeviation="0.1" result="effect1_foregroundBlur_4002_783"/>
</filter>
<filter id="filter20_f_4002_783" x="12.0796" y="7.95515" width="2.27216" height="0.980322" filterUnits="userSpaceOnUse" color-interpolation-filters="sRGB">
<feFlood flood-opacity="0" result="BackgroundImageFix"/>
<feBlend mode="normal" in="SourceGraphic" in2="BackgroundImageFix" result="shape"/>
<feGaussianBlur stdDeviation="0.1" result="effect1_foregroundBlur_4002_783"/>
</filter>
<filter id="filter21_if_4002_783" x="9.52065" y="3.69106" width="4.33515" height="4.63889" filterUnits="userSpaceOnUse" color-interpolation-filters="sRGB">
<feFlood flood-opacity="0" result="BackgroundImageFix"/>
<feBlend mode="normal" in="SourceGraphic" in2="BackgroundImageFix" result="shape"/>
<feColorMatrix in="SourceAlpha" type="matrix" values="0 0 0 0 0 0 0 0 0 0 0 0 0 0 0 0 0 0 127 0" result="hardAlpha"/>
<feOffset dx="0.5" dy="0.5"/>
<feGaussianBlur stdDeviation="0.5"/>
<feComposite in2="hardAlpha" operator="arithmetic" k2="-1" k3="1"/>
<feColorMatrix type="matrix" values="0 0 0 0 0.294118 0 0 0 0 0.262745 0 0 0 0 0.262745 0 0 0 1 0"/>
<feBlend mode="normal" in2="shape" result="effect1_innerShadow_4002_783"/>
<feGaussianBlur stdDeviation="0.2" result="effect2_foregroundBlur_4002_783"/>
</filter>
<filter id="filter22_if_4002_783" x="12.7259" y="2.54785" width="8.82356" height="5.81812" filterUnits="userSpaceOnUse" color-interpolation-filters="sRGB">
<feFlood flood-opacity="0" result="BackgroundImageFix"/>
<feBlend mode="normal" in="SourceGraphic" in2="BackgroundImageFix" result="shape"/>
<feColorMatrix in="SourceAlpha" type="matrix" values="0 0 0 0 0 0 0 0 0 0 0 0 0 0 0 0 0 0 127 0" result="hardAlpha"/>
<feOffset dx="-0.3" dy="0.2"/>
<feGaussianBlur stdDeviation="0.4"/>
<feComposite in2="hardAlpha" operator="arithmetic" k2="-1" k3="1"/>
<feColorMatrix type="matrix" values="0 0 0 0 0.345098 0 0 0 0 0.329412 0 0 0 0 0.333333 0 0 0 1 0"/>
<feBlend mode="normal" in2="shape" result="effect1_innerShadow_4002_783"/>
<feGaussianBlur stdDeviation="0.125" result="effect2_foregroundBlur_4002_783"/>
</filter>
<filter id="filter23_f_4002_783" x="12.7049" y="3.79109" width="1.1485" height="2.32139" filterUnits="userSpaceOnUse" color-interpolation-filters="sRGB">
<feFlood flood-opacity="0" result="BackgroundImageFix"/>
<feBlend mode="normal" in="SourceGraphic" in2="BackgroundImageFix" result="shape"/>
<feGaussianBlur stdDeviation="0.1" result="effect1_foregroundBlur_4002_783"/>
</filter>
<filter id="filter24_f_4002_783" x="15.0852" y="4.35791" width="6.96091" height="3.88477" filterUnits="userSpaceOnUse" color-interpolation-filters="sRGB">
<feFlood flood-opacity="0" result="BackgroundImageFix"/>
<feBlend mode="normal" in="SourceGraphic" in2="BackgroundImageFix" result="shape"/>
<feGaussianBlur stdDeviation="0.5" result="effect1_foregroundBlur_4002_783"/>
</filter>
<radialGradient id="paint0_radial_4002_783" cx="0" cy="0" r="1" gradientUnits="userSpaceOnUse" gradientTransform="translate(6.87695 17.2839) rotate(-34.1475) scale(4.3424 4.86032)">
<stop stop-color="#E1DAE6"/>
<stop offset="1" stop-color="#E6DEE6"/>
</radialGradient>
<radialGradient id="paint1_radial_4002_783" cx="0" cy="0" r="1" gradientUnits="userSpaceOnUse" gradientTransform="translate(8.5957 17.7839) rotate(-90.507) scale(1.76569 2.48234)">
<stop offset="0.384246" stop-color="#DAD4DE"/>
<stop offset="1" stop-color="#DAD4DE" stop-opacity="0"/>
</radialGradient>
<radialGradient id="paint2_radial_4002_783" cx="0" cy="0" r="1" gradientUnits="userSpaceOnUse" gradientTransform="translate(10.4606 19.223) rotate(120.038) scale(10.9302 8.11064)">
<stop stop-color="#E0D6E3"/>
<stop offset="1" stop-color="#D5C4DF"/>
</radialGradient>
<radialGradient id="paint3_radial_4002_783" cx="0" cy="0" r="1" gradientUnits="userSpaceOnUse" gradientTransform="translate(0.404177 1.46024) rotate(44.4438) scale(4.68833)">
<stop stop-color="#FBF7FF"/>
<stop offset="0.835815" stop-color="#F2E8F1"/>
</radialGradient>
<radialGradient id="paint4_radial_4002_783" cx="0" cy="0" r="1" gradientUnits="userSpaceOnUse" gradientTransform="translate(2.31641 5.3125) rotate(-91.1233) scale(1.59406 5.11483)">
<stop offset="0.201384" stop-color="#E8DEE9"/>
<stop offset="1" stop-color="#E8DEE9" stop-opacity="0"/>
</radialGradient>
<radialGradient id="paint5_radial_4002_783" cx="0" cy="0" r="1" gradientUnits="userSpaceOnUse" gradientTransform="translate(1.35234 1.23915) rotate(55.9851) scale(8.85283 12.8565)">
<stop offset="0.192089" stop-color="#F3EBFE"/>
<stop offset="0.819302" stop-color="#DAC9F0"/>
</radialGradient>
<linearGradient id="paint6_linear_4002_783" x1="20.6413" y1="3.67743" x2="13.7896" y2="16.3682" gradientUnits="userSpaceOnUse">
<stop stop-color="#45363A"/>
<stop offset="1" stop-color="#1C151F"/>
</linearGradient>
<radialGradient id="paint7_radial_4002_783" cx="0" cy="0" r="1" gradientUnits="userSpaceOnUse" gradientTransform="translate(15.6123 13.1955) rotate(97.5394) scale(4.63031 5.7842)">
<stop offset="0.590551" stop-color="#171418"/>
<stop offset="1" stop-color="#171418" stop-opacity="0"/>
</radialGradient>
<radialGradient id="paint8_radial_4002_783" cx="0" cy="0" r="1" gradientUnits="userSpaceOnUse" gradientTransform="translate(12.7771 13.4655) rotate(146.004) scale(3.50119 4.60028)">
<stop offset="0.258378" stop-color="#181518"/>
<stop offset="1" stop-color="#181518" stop-opacity="0"/>
</radialGradient>
<radialGradient id="paint9_radial_4002_783" cx="0" cy="0" r="1" gradientUnits="userSpaceOnUse" gradientTransform="translate(11.0388 10.9004) rotate(127.405) scale(2.16698 1.66394)">
<stop offset="0.333546" stop-color="#040101"/>
<stop offset="1" stop-color="#040101" stop-opacity="0"/>
</radialGradient>
<radialGradient id="paint10_radial_4002_783" cx="0" cy="0" r="1" gradientUnits="userSpaceOnUse" gradientTransform="translate(11.4944 8.85837) rotate(121.43) scale(2.492 1.7554)">
<stop offset="0.320588" stop-color="#040002"/>
<stop offset="1" stop-color="#040002" stop-opacity="0"/>
</radialGradient>
<radialGradient id="paint11_radial_4002_783" cx="0" cy="0" r="1" gradientUnits="userSpaceOnUse" gradientTransform="translate(12.372 2.56361) rotate(62.2717) scale(2.97421 4.12866)">
<stop stop-color="#474445"/>
<stop offset="1" stop-color="#474445" stop-opacity="0"/>
</radialGradient>
<radialGradient id="paint12_radial_4002_783" cx="0" cy="0" r="1" gradientUnits="userSpaceOnUse" gradientTransform="translate(21.7888 4.65624) rotate(134.998) scale(2.05245 2.86826)">
<stop stop-color="#4A4446"/>
<stop offset="1" stop-color="#4A4446" stop-opacity="0"/>
</radialGradient>
<radialGradient id="paint13_radial_4002_783" cx="0" cy="0" r="1" gradientUnits="userSpaceOnUse" gradientTransform="translate(23.4764 9.82031) rotate(163.779) scale(1.93324 4.03163)">
<stop stop-color="#3B3638"/>
<stop offset="1" stop-color="#3B3638" stop-opacity="0"/>
</radialGradient>
<radialGradient id="paint14_radial_4002_783" cx="0" cy="0" r="1" gradientUnits="userSpaceOnUse" gradientTransform="translate(22.8689 13.263) rotate(165.963) scale(2.92235 3.72264)">
<stop stop-color="#464444"/>
<stop offset="1" stop-color="#464444" stop-opacity="0"/>
</radialGradient>
<radialGradient id="paint15_radial_4002_783" cx="0" cy="0" r="1" gradientUnits="userSpaceOnUse" gradientTransform="translate(20.6809 7.36964) rotate(-108.843) scale(2.81951 2.23007)">
<stop stop-color="#575455"/>
<stop offset="1" stop-color="#575455" stop-opacity="0"/>
</radialGradient>
<radialGradient id="paint16_radial_4002_783" cx="0" cy="0" r="1" gradientUnits="userSpaceOnUse" gradientTransform="translate(9.73202 9.78391) rotate(5.98813) scale(1.52252 2.46692)">
<stop stop-color="#413733"/>
<stop offset="1" stop-color="#413733" stop-opacity="0"/>
</radialGradient>
<radialGradient id="paint17_radial_4002_783" cx="0" cy="0" r="1" gradientUnits="userSpaceOnUse" gradientTransform="translate(23.0957 22.5339) rotate(103.232) scale(5.93892 6.99802)">
<stop stop-color="#9279D5"/>
<stop offset="1" stop-color="#8067C6"/>
</radialGradient>
<linearGradient id="paint18_linear_4002_783" x1="24.1582" y1="30.2839" x2="24.1895" y2="26.6277" gradientUnits="userSpaceOnUse">
<stop offset="0.078159" stop-color="#704CC0"/>
<stop offset="1" stop-color="#7E64C5" stop-opacity="0"/>
</linearGradient>
<linearGradient id="paint19_linear_4002_783" x1="18.1205" y1="27.7197" x2="19.4722" y2="28.1059" gradientUnits="userSpaceOnUse">
<stop stop-color="#6B47BB"/>
<stop offset="1" stop-color="#6B47BB" stop-opacity="0"/>
</linearGradient>
<radialGradient id="paint20_radial_4002_783" cx="0" cy="0" r="1" gradientUnits="userSpaceOnUse" gradientTransform="translate(6.41827 22.2741) rotate(49.5798) scale(10.6026 14.7076)">
<stop stop-color="#7A67AB"/>
<stop offset="1" stop-color="#7353BF"/>
</radialGradient>
<linearGradient id="paint21_linear_4002_783" x1="13.6582" y1="28.6902" x2="12.1582" y2="29.2214" gradientUnits="userSpaceOnUse">
<stop stop-color="#5E40AA"/>
<stop offset="1" stop-color="#5E40AA" stop-opacity="0"/>
</linearGradient>
<radialGradient id="paint22_radial_4002_783" cx="0" cy="0" r="1" gradientUnits="userSpaceOnUse" gradientTransform="translate(13.752 16.3464) rotate(136.439) scale(4.39871 9.16434)">
<stop offset="0.208029" stop-color="#4F3466"/>
<stop offset="1" stop-color="#6D4F8C" stop-opacity="0"/>
</radialGradient>
<linearGradient id="paint23_linear_4002_783" x1="12.3145" y1="27.3464" x2="13.6895" y2="26.7839" gradientUnits="userSpaceOnUse">
<stop offset="0.223009" stop-color="#775CBC"/>
<stop offset="1" stop-color="#795CC2" stop-opacity="0"/>
</linearGradient>
<radialGradient id="paint24_radial_4002_783" cx="0" cy="0" r="1" gradientUnits="userSpaceOnUse" gradientTransform="translate(15.9577 28.9169) rotate(-112.485) scale(12.6232 1.712)">
<stop stop-color="#8870C8"/>
<stop offset="1" stop-color="#8870C8" stop-opacity="0"/>
</radialGradient>
<linearGradient id="paint25_linear_4002_783" x1="15.627" y1="30.1277" x2="14.2207" y2="29.4402" gradientUnits="userSpaceOnUse">
<stop offset="0.208449" stop-color="#6349AA"/>
<stop offset="1" stop-color="#7C60C4" stop-opacity="0"/>
</linearGradient>
<radialGradient id="paint26_radial_4002_783" cx="0" cy="0" r="1" gradientUnits="userSpaceOnUse" gradientTransform="translate(16.3457 27.5339) rotate(-113.515) scale(3.44074 1.00436)">
<stop stop-color="#442D6D"/>
<stop offset="1" stop-color="#7C5FAC" stop-opacity="0"/>
</radialGradient>
<radialGradient id="paint27_radial_4002_783" cx="0" cy="0" r="1" gradientUnits="userSpaceOnUse" gradientTransform="translate(14.3356 18.4699) rotate(-134.526) scale(1.65227 2.27836)">
<stop offset="0.328097" stop-color="#342554"/>
<stop offset="1" stop-color="#614279" stop-opacity="0"/>
</radialGradient>
<linearGradient id="paint28_linear_4002_783" x1="16.002" y1="24.7839" x2="18.0332" y2="25.6902" gradientUnits="userSpaceOnUse">
<stop stop-color="#684C87"/>
<stop offset="1" stop-color="#684C87" stop-opacity="0"/>
</linearGradient>
<radialGradient id="paint29_radial_4002_783" cx="0" cy="0" r="1" gradientUnits="userSpaceOnUse" gradientTransform="translate(17.502 18.2839) rotate(-18.435) scale(2.12466 2.63791)">
<stop offset="0.285033" stop-color="#2C1C48"/>
<stop offset="1" stop-color="#593D6E" stop-opacity="0"/>
</radialGradient>
<radialGradient id="paint30_radial_4002_783" cx="0" cy="0" r="1" gradientUnits="userSpaceOnUse" gradientTransform="translate(20.4707 22.4402) rotate(110.875) scale(11.8396 2.00952)">
<stop stop-color="#9078D3"/>
<stop offset="1" stop-color="#7B63B3" stop-opacity="0"/>
</radialGradient>
<linearGradient id="paint31_linear_4002_783" x1="16.3549" y1="24.8676" x2="16.3549" y2="14.3816" gradientUnits="userSpaceOnUse">
<stop stop-color="#835953"/>
<stop offset="1" stop-color="#855C4E"/>
</linearGradient>
<radialGradient id="paint32_radial_4002_783" cx="0" cy="0" r="1" gradientUnits="userSpaceOnUse" gradientTransform="translate(13.1334 16.1266) rotate(46.6256) scale(2.65002 3.31339)">
<stop offset="0.275385" stop-color="#5D2921"/>
<stop offset="1" stop-color="#714A3D" stop-opacity="0"/>
</radialGradient>
<radialGradient id="paint33_radial_4002_783" cx="0" cy="0" r="1" gradientUnits="userSpaceOnUse" gradientTransform="translate(16.6296 15.0443) rotate(90) scale(3.31547 0.766197)">
<stop stop-color="#7D5855"/>
<stop offset="1" stop-color="#7D5855" stop-opacity="0"/>
</radialGradient>
<linearGradient id="paint34_linear_4002_783" x1="8.67712" y1="15.5155" x2="23.1913" y2="15.5155" gradientUnits="userSpaceOnUse">
<stop offset="0.00558659" stop-color="#CCCCCC"/>
<stop offset="1" stop-color="#E6E6E6"/>
</linearGradient>
<linearGradient id="paint35_linear_4002_783" x1="8.67714" y1="15.4849" x2="23.1914" y2="15.4849" gradientUnits="userSpaceOnUse">
<stop offset="0.00558659" stop-color="#CCCCCC"/>
<stop offset="1" stop-color="#E6E6E6"/>
</linearGradient>
<linearGradient id="paint36_linear_4002_783" x1="9.62961" y1="10.7655" x2="10.8784" y2="10.7655" gradientUnits="userSpaceOnUse">
<stop stop-color="#6A4745"/>
<stop offset="1" stop-color="#533335"/>
</linearGradient>
<radialGradient id="paint37_radial_4002_783" cx="0" cy="0" r="1" gradientUnits="userSpaceOnUse" gradientTransform="translate(19.983 11.1199) rotate(-24.444) scale(2.75284 3.36109)">
<stop offset="0.63975" stop-color="#875E5E"/>
<stop offset="0.94391" stop-color="#9D7E72"/>
</radialGradient>
<radialGradient id="paint38_radial_4002_783" cx="0" cy="0" r="1" gradientUnits="userSpaceOnUse" gradientTransform="translate(21.0208 8.98506) rotate(29.2711) scale(1.51868 0.429354)">
<stop stop-color="#755041"/>
<stop offset="1" stop-color="#755041" stop-opacity="0"/>
</radialGradient>
<radialGradient id="paint39_radial_4002_783" cx="0" cy="0" r="1" gradientUnits="userSpaceOnUse" gradientTransform="translate(20.3373 10.7907) rotate(-4.25413) scale(1.52443 1.19168)">
<stop offset="0.719132" stop-color="#7D4D48" stop-opacity="0"/>
<stop offset="1" stop-color="#7D4D48"/>
</radialGradient>
<radialGradient id="paint40_radial_4002_783" cx="0" cy="0" r="1" gradientUnits="userSpaceOnUse" gradientTransform="translate(11.2833 10.6777) rotate(-180) scale(1.06319)">
<stop offset="0.722222" stop-color="#5A3638" stop-opacity="0"/>
<stop offset="1" stop-color="#5A3638"/>
</radialGradient>
<radialGradient id="paint41_radial_4002_783" cx="0" cy="0" r="1" gradientUnits="userSpaceOnUse" gradientTransform="translate(18.7945 10.1365) rotate(155.244) scale(7.21077 9.65149)">
<stop stop-color="#996B5E"/>
<stop offset="1" stop-color="#764E4C"/>
</radialGradient>
<radialGradient id="paint42_radial_4002_783" cx="0" cy="0" r="1" gradientUnits="userSpaceOnUse" gradientTransform="translate(17.9 10.9963) rotate(156.249) scale(2.39833 1.67016)">
<stop stop-color="#986B5A"/>
<stop offset="1" stop-color="#986B5A" stop-opacity="0"/>
</radialGradient>
<radialGradient id="paint43_radial_4002_783" cx="0" cy="0" r="1" gradientUnits="userSpaceOnUse" gradientTransform="translate(13.7389 16.6886) rotate(-71.832) scale(4.16278 5.2818)">
<stop stop-color="#743F5A"/>
<stop offset="1" stop-color="#743F5A" stop-opacity="0"/>
</radialGradient>
<radialGradient id="paint44_radial_4002_783" cx="0" cy="0" r="1" gradientUnits="userSpaceOnUse" gradientTransform="translate(16.9456 9.71743) rotate(99.8838) scale(7.53551 9.41929)">
<stop offset="0.636944" stop-color="#794958" stop-opacity="0"/>
<stop offset="1" stop-color="#5F363F"/>
</radialGradient>
<radialGradient id="paint45_radial_4002_783" cx="0" cy="0" r="1" gradientUnits="userSpaceOnUse" gradientTransform="translate(17.7383 11.8793) rotate(168.897) scale(7.08556 12.1992)">
<stop offset="0.794964" stop-color="#805C54" stop-opacity="0"/>
<stop offset="1" stop-color="#805C54"/>
</radialGradient>
<radialGradient id="paint46_radial_4002_783" cx="0" cy="0" r="1" gradientUnits="userSpaceOnUse" gradientTransform="translate(18.2328 9.71521) rotate(-90) scale(1.15865 1.42198)">
<stop stop-color="#875555"/>
<stop offset="1" stop-color="#875555" stop-opacity="0"/>
</radialGradient>
<radialGradient id="paint47_radial_4002_783" cx="0" cy="0" r="1" gradientUnits="userSpaceOnUse" gradientTransform="translate(13.825 9.48509) rotate(-90) scale(1.3215 1.51453)">
<stop stop-color="#714350"/>
<stop offset="1" stop-color="#714350" stop-opacity="0"/>
</radialGradient>
<radialGradient id="paint48_radial_4002_783" cx="0" cy="0" r="1" gradientUnits="userSpaceOnUse" gradientTransform="translate(17.3084 7.38341) rotate(105.092) scale(3.36489 2.69247)">
<stop stop-color="#815A5B"/>
<stop offset="1" stop-color="#815A5B" stop-opacity="0"/>
</radialGradient>
<radialGradient id="paint49_radial_4002_783" cx="0" cy="0" r="1" gradientUnits="userSpaceOnUse" gradientTransform="translate(21.046 11.2129) rotate(180) scale(1.29408 6.48969)">
<stop stop-color="#986F60"/>
<stop offset="1" stop-color="#986F60" stop-opacity="0"/>
</radialGradient>
<radialGradient id="paint50_radial_4002_783" cx="0" cy="0" r="1" gradientUnits="userSpaceOnUse" gradientTransform="translate(19.5763 15.9205) rotate(-121.569) scale(1.53255 1.62848)">
<stop stop-color="#836462"/>
<stop offset="1" stop-color="#836462" stop-opacity="0"/>
</radialGradient>
<radialGradient id="paint51_radial_4002_783" cx="0" cy="0" r="1" gradientUnits="userSpaceOnUse" gradientTransform="translate(11.8519 15.9048) rotate(-41.7603) scale(2.3621 2.80468)">
<stop stop-color="#6E494B"/>
<stop offset="1" stop-color="#6E494B" stop-opacity="0"/>
</radialGradient>
<radialGradient id="paint52_radial_4002_783" cx="0" cy="0" r="1" gradientUnits="userSpaceOnUse" gradientTransform="translate(16.7058 11.9446) rotate(-102.564) scale(2.10849 0.649819)">
<stop offset="0.0168227" stop-color="#A07A6F"/>
<stop offset="1" stop-color="#A07A6F" stop-opacity="0"/>
</radialGradient>
<linearGradient id="paint53_linear_4002_783" x1="14.9709" y1="12.0179" x2="15.916" y2="12.0179" gradientUnits="userSpaceOnUse">
<stop stop-color="#744C45"/>
<stop offset="1" stop-color="#744C45" stop-opacity="0"/>
</linearGradient>
<linearGradient id="paint54_linear_4002_783" x1="15.916" y1="12.8223" x2="15.916" y2="12.2079" gradientUnits="userSpaceOnUse">
<stop stop-color="#7C455C"/>
<stop offset="1" stop-color="#7C455C" stop-opacity="0"/>
</linearGradient>
<radialGradient id="paint55_radial_4002_783" cx="0" cy="0" r="1" gradientUnits="userSpaceOnUse" gradientTransform="translate(16.4645 12.1576) rotate(-180) scale(0.784736 0.219389)">
<stop stop-color="#A07A6F"/>
<stop offset="1" stop-color="#A07A6F" stop-opacity="0"/>
</radialGradient>
<linearGradient id="paint56_linear_4002_783" x1="14.8444" y1="14.242" x2="15.3085" y2="13.5247" gradientUnits="userSpaceOnUse">
<stop stop-color="#865E63"/>
<stop offset="0.663171" stop-color="#865E63" stop-opacity="0"/>
</linearGradient>
<radialGradient id="paint57_radial_4002_783" cx="0" cy="0" r="1" gradientUnits="userSpaceOnUse" gradientTransform="translate(18.1128 10.0765) rotate(90) scale(0.81687 1.29932)">
<stop offset="0.80198" stop-color="#7D574A"/>
<stop offset="1" stop-color="#694B43"/>
<stop offset="1" stop-color="#804D49"/>
<stop offset="1" stop-color="#664944"/>
</radialGradient>
<radialGradient id="paint58_radial_4002_783" cx="0" cy="0" r="1" gradientUnits="userSpaceOnUse" gradientTransform="translate(17.8832 10.1613) rotate(-127.812) scale(0.380875 0.524374)">
<stop offset="0.765532" stop-color="#FFE6E2" stop-opacity="0"/>
<stop offset="0.966159" stop-color="#FFE6E2"/>
</radialGradient>
<linearGradient id="paint59_linear_4002_783" x1="18.8961" y1="10.1308" x2="18.5802" y2="10.3255" gradientUnits="userSpaceOnUse">
<stop stop-color="#B4948D"/>
<stop offset="1" stop-color="#B4948D" stop-opacity="0"/>
</linearGradient>
<radialGradient id="paint60_radial_4002_783" cx="0" cy="0" r="1" gradientUnits="userSpaceOnUse" gradientTransform="translate(13.7187 10.0765) rotate(90) scale(0.816875 1.29933)">
<stop offset="0.80198" stop-color="#7D574A"/>
<stop offset="1" stop-color="#694B43"/>
<stop offset="1" stop-color="#804D49"/>
<stop offset="1" stop-color="#664944"/>
</radialGradient>
<linearGradient id="paint61_linear_4002_783" x1="14.4679" y1="10.1307" x2="14.152" y2="10.3253" gradientUnits="userSpaceOnUse">
<stop stop-color="#B4948D"/>
<stop offset="1" stop-color="#B4948D" stop-opacity="0"/>
</linearGradient>
<radialGradient id="paint62_radial_4002_783" cx="0" cy="0" r="1" gradientUnits="userSpaceOnUse" gradientTransform="translate(13.4305 10.2971) rotate(-90.897) scale(0.497502 0.598018)">
<stop offset="0.765532" stop-color="#FFE6E2" stop-opacity="0"/>
<stop offset="0.966159" stop-color="#FFE6E2"/>
</radialGradient>
<radialGradient id="paint63_radial_4002_783" cx="0" cy="0" r="1" gradientUnits="userSpaceOnUse" gradientTransform="translate(10.219 7.94149) rotate(-65.3915) scale(3.05144 1.56104)">
<stop stop-color="#433838"/>
<stop offset="1" stop-color="#433838" stop-opacity="0"/>
</radialGradient>
<radialGradient id="paint64_radial_4002_783" cx="0" cy="0" r="1" gradientUnits="userSpaceOnUse" gradientTransform="translate(17.8399 2.69882) rotate(115.684) scale(4.90626 8.02145)">
<stop offset="0.639192" stop-color="#1F0D24" stop-opacity="0"/>
<stop offset="1" stop-color="#1F0D24"/>
</radialGradient>
<radialGradient id="paint65_radial_4002_783" cx="0" cy="0" r="1" gradientUnits="userSpaceOnUse" gradientTransform="translate(16.1277 3.07075) rotate(98.7461) scale(1.39275 2.99643)">
<stop stop-color="#4C4749"/>
<stop offset="1" stop-color="#4C4749" stop-opacity="0"/>
</radialGradient>
<linearGradient id="paint66_linear_4002_783" x1="13.0049" y1="4.43702" x2="13.5534" y2="5.7196" gradientUnits="userSpaceOnUse">
<stop stop-color="#1A1316"/>
<stop offset="1" stop-color="#24182D"/>
</linearGradient>
</defs>
</svg>
