<svg width="32" height="32" viewBox="0 0 32 32" fill="none" xmlns="http://www.w3.org/2000/svg">
<path d="M14.2673 12.355L13.6673 14.285C13.5473 14.685 13.8373 15.085 14.2573 15.085H15.1373C15.5473 15.085 15.8473 14.685 15.7273 14.285L15.1273 12.355C14.9973 11.925 14.3973 11.925 14.2673 12.355Z" fill="#212121"/>
<path d="M12.9974 15.8853C13.4874 16.1453 14.0774 16.2953 14.6974 16.2953C15.3174 16.2953 15.8974 16.1453 16.3974 15.8853C16.5574 15.7953 16.7374 15.9853 16.6374 16.1453C16.2274 16.7853 15.5074 17.2053 14.6974 17.2053C13.8874 17.2053 13.1674 16.7853 12.7574 16.1453C12.6474 15.9853 12.8274 15.7953 12.9974 15.8853Z" fill="#212121"/>
<path d="M12.255 11.925C12.585 11.925 12.845 12.195 12.845 12.515C12.845 12.615 12.815 12.705 12.775 12.785H11.735C11.685 12.705 11.665 12.615 11.665 12.515C11.665 12.4 11.6979 12.2934 11.7542 12.2034C11.7863 12.2526 11.8419 12.285 11.905 12.285C12.0044 12.285 12.085 12.2045 12.085 12.105C12.085 12.0522 12.0622 12.0046 12.0259 11.9717C12.0967 11.9416 12.1743 11.925 12.255 11.925Z" fill="#212121"/>
<path d="M17.295 11.925C17.221 11.925 17.1506 11.9386 17.0859 11.9632C17.128 11.9962 17.155 12.0474 17.155 12.105C17.155 12.2045 17.0745 12.285 16.975 12.285C16.9019 12.285 16.8389 12.2414 16.8108 12.1787C16.7439 12.2748 16.705 12.3912 16.705 12.515C16.705 12.615 16.725 12.705 16.775 12.785H17.815C17.865 12.705 17.885 12.615 17.885 12.515C17.885 12.185 17.615 11.925 17.295 11.925Z" fill="#212121"/>
<path d="M23.0998 12.598C21.9573 13.2476 21.1264 14.386 20.895 15.7255L20.8549 16.2898L20.8541 16.297C20.8474 16.3635 20.8394 16.4295 20.83 16.4948L20.8301 16.5268C20.8337 16.9343 20.8922 17.329 20.9986 17.7037C21.0795 17.9886 21.188 18.262 21.321 18.5208C21.7201 19.2973 22.3399 19.9425 23.0963 20.3735C23.0402 20.5715 23.01 20.7806 23.01 20.9968L23.01 22.9363C23.0446 22.9289 23.0796 22.9229 23.115 22.9182C23.1695 22.8979 23.2284 22.8867 23.29 22.8867H24.01V20.9968C24.01 20.5298 24.2609 20.119 24.6348 19.8926C23.0406 19.5805 21.83 18.1695 21.83 16.4868C21.83 14.5768 23.39 13.0168 25.3 13.0168C27.21 13.0168 28.77 14.5768 28.77 16.4868C28.77 18.1694 27.5593 19.5804 25.9652 19.8925C26.2439 20.0614 26.4543 20.3327 26.5434 20.6533C26.6186 20.6422 26.6955 20.6365 26.7737 20.6365C27.1598 20.6365 27.5136 20.7763 27.7873 21.008C28.3657 21.3753 28.75 22.0216 28.75 22.7568V25.2068L28.75 25.2159V27.9872C28.75 29.0282 27.9604 30.007 26.82 30.007H26.6911C26.6446 30.0136 26.5975 30.017 26.55 30.017H22.8512C22.8051 30.0235 22.7579 30.0269 22.71 30.0269H6.82996C6.78149 30.0269 6.73381 30.0235 6.68718 30.0168H3.00001C2.70726 30.0168 2.42922 29.8885 2.23922 29.6658C2.04923 29.4431 1.96637 29.1483 2.0125 28.8592C2.16944 27.8757 2.39027 26.9063 2.69722 25.9432L2.70124 25.9305L2.72917 25.847C3.38477 23.789 4.53441 21.9748 6.03049 20.5462C5.75167 19.8695 5.95609 19.0725 6.5587 18.6262L4.93585 17.1845L4.92524 17.1749C3.92509 16.2605 4.52575 14.5369 5.94001 14.5369H7.01157C6.56298 14.0295 6.28992 13.3622 6.28992 12.6303C6.28992 12.168 6.39908 11.7312 6.59252 11.3443C5.84991 10.9354 5.17609 10.418 4.59279 9.81368C3.44751 8.64105 4.27465 6.6668 5.91998 6.6668H7.36922L7.83464 5.32973L7.83563 5.32689L8.51464 3.35713C8.51934 3.3435 8.52434 3.32996 8.52963 3.31654C9.37824 1.16218 11.9632 0.323219 13.8847 1.60402L13.8865 1.6052C14.4198 1.96233 15.1103 1.96233 15.6436 1.6052L15.6482 1.60217C17.5817 0.322624 20.1518 1.17602 20.9996 3.31447C21.0047 3.32717 21.0095 3.33997 21.014 3.35286L21.7045 5.3269L22.1709 6.6668H23.63C25.2529 6.6668 26.1111 8.63224 24.9572 9.81366C24.3408 10.4523 23.6234 10.9937 22.8305 11.4128C22.9989 11.7733 23.0951 12.1747 23.0998 12.598ZM9.86494 5.5769L9.72447 5.98438L9.38938 6.94702H20.1507L19.8161 5.98581L19.6731 5.5769H9.86494ZM13.3611 28.0269H13.4022L14.1799 24.4158L13.7155 23.5569L13.2024 23.9684C13.0125 24.1204 12.7913 24.1824 12.5781 24.1704L13.3611 28.0269ZM16.1797 28.0269L16.9637 24.1801C16.7501 24.1925 16.5283 24.1306 16.3379 23.9784L15.8132 23.5592L15.35 24.4158L16.0296 28.0269H16.1797ZM13.0122 20.207C13.1869 20.9992 13.8845 21.5961 14.724 21.6171L14.7625 21.618L14.8011 21.6174C15.6473 21.6031 16.3521 21.0039 16.5278 20.207H13.0122ZM11.7824 19.0489C12.1056 19.1521 12.4512 19.207 12.8109 19.207H16.5787C18.2777 19.207 19.6778 17.9669 19.8584 16.204L20.1763 11.7383C19.7973 11.7904 19.4105 11.8173 19.0178 11.8173H18.8207C18.9487 11.987 19.0435 12.1828 19.095 12.395C19.145 12.595 18.995 12.785 18.785 12.785H18.285C18.315 12.7051 18.325 12.6051 18.325 12.5151C18.325 12.2456 18.2222 12.0006 18.0535 11.8173H16.5366C16.3679 12.0006 16.265 12.2456 16.265 12.5151C16.265 12.6051 16.285 12.6951 16.305 12.785H16.215C16.045 12.785 15.915 12.635 15.955 12.475C16.001 12.2319 16.1021 12.0081 16.2452 11.8173H13.3027C13.4468 12.0081 13.549 12.2319 13.595 12.475C13.635 12.635 13.505 12.785 13.335 12.785H13.245C13.265 12.6951 13.285 12.6051 13.285 12.5151C13.285 12.2456 13.1821 12.0006 13.0134 11.8173H11.4965C11.3278 12.0006 11.225 12.2456 11.225 12.5151C11.225 12.6051 11.235 12.7051 11.265 12.785H10.765C10.555 12.785 10.405 12.595 10.455 12.395C10.5065 12.1828 10.6013 11.987 10.7293 11.8173H10.3651C9.97435 11.8173 9.58986 11.7909 9.21339 11.7397L9.53118 16.204C9.62761 17.1452 10.0686 17.937 10.7186 18.4709L10.7124 18.4402L11.7824 19.0489ZM27.3437 22.8752V22.2065C27.3437 21.8926 27.0876 21.6365 26.7737 21.6365C26.7095 21.6365 26.6477 21.6472 26.59 21.667V22.8752H27.3437ZM27.25 24.3167C27.25 24.0794 27.0603 23.8867 26.82 23.8867H23.4304C23.3859 23.8998 23.3387 23.9067 23.29 23.9067C23.1037 23.9067 22.9682 24.0492 22.9596 24.197C22.9571 24.3028 23.0134 24.3972 23.0884 24.4449C23.2326 24.5367 23.32 24.6958 23.32 24.8667C23.32 25.0377 23.2326 25.1968 23.0884 25.2886C23.0153 25.3351 22.96 25.4245 22.96 25.5367C22.96 25.6394 23.008 25.7298 23.1016 25.7936C23.2406 25.8883 23.3226 26.0465 23.3199 26.2147C23.3172 26.3828 23.2303 26.5383 23.0884 26.6286C23.0153 26.6751 22.96 26.7645 22.96 26.8767C22.96 26.9794 23.008 27.0698 23.1016 27.1336C23.2382 27.2268 23.32 27.3814 23.32 27.5467C23.32 27.7121 23.2382 27.8667 23.1016 27.9599C23.0765 27.977 23.0545 27.9962 23.0359 28.017H26.4074C26.4538 28.0104 26.501 28.007 26.5485 28.007H26.7486C26.7494 28.0014 26.75 27.9948 26.75 27.9872V25.2068L26.75 25.1978V24.5315H27.25V24.3167ZM13.6043 22.3641C13.0226 22.0974 12.5482 21.6372 12.2631 21.0659L12.6759 23.1088L13.6043 22.3641ZM15.9254 22.3688L16.8642 23.1188L17.2804 21.0588C16.9941 21.6368 16.5142 22.1017 15.9254 22.3688ZM27.4 16.487C27.4 15.3272 26.4597 14.387 25.2999 14.387C24.1402 14.387 23.2 15.3272 23.2 16.487C23.2 17.6468 24.1402 18.587 25.2999 18.587C26.4597 18.587 27.4 17.6468 27.4 16.487Z" fill="#212121"/>
</svg>
