<svg width="32" height="32" viewBox="0 0 32 32" fill="none" xmlns="http://www.w3.org/2000/svg">
<path d="M15.7957 15.2977C16.0457 15.3077 16.3057 15.3277 16.5657 15.3477C16.3157 15.3277 16.0557 15.3077 15.7957 15.2977Z" fill="url(#paint0_linear_4002_2175)"/>
<path d="M15.4657 15.2977C15.4557 15.2977 15.4457 15.2977 15.4257 15.2977C15.5257 15.2977 15.6157 15.2977 15.7257 15.3077C15.6357 15.2977 15.5457 15.2977 15.4657 15.2977Z" fill="url(#paint1_linear_4002_2175)"/>
<path d="M15.4656 15.3478C12.7156 15.3478 10.1456 16.4078 8.2356 18.1978V18.2119L8.22565 18.1978C6.93567 19.4078 5.92566 20.9578 5.36566 22.7278L5.33566 22.8078C4.81564 24.4678 4.54565 26.1878 4.54565 27.9178V29.9878L26.3357 29.9878L26.3456 27.9578C26.3557 26.1978 26.0956 24.4478 25.5757 22.7778C25.0056 20.9678 23.9857 19.3978 22.6656 18.1678C20.7456 16.3978 18.1956 15.3478 15.4656 15.3478Z" fill="url(#paint2_radial_4002_2175)"/>
<path d="M15.4656 15.3478C12.7156 15.3478 10.1456 16.4078 8.2356 18.1978V18.2119L8.22565 18.1978C6.93567 19.4078 5.92566 20.9578 5.36566 22.7278L5.33566 22.8078C4.81564 24.4678 4.54565 26.1878 4.54565 27.9178V29.9878L26.3357 29.9878L26.3456 27.9578C26.3557 26.1978 26.0956 24.4478 25.5757 22.7778C25.0056 20.9678 23.9857 19.3978 22.6656 18.1678C20.7456 16.3978 18.1956 15.3478 15.4656 15.3478Z" fill="url(#paint3_radial_4002_2175)"/>
<path d="M11.1139 16.2804C10.0531 16.7579 9.0799 17.4065 8.2356 18.1977V18.2118L8.22565 18.1977C6.93567 19.4077 5.92566 20.9577 5.36566 22.7277L5.33566 22.8077C4.81564 24.4677 4.54565 26.1877 4.54565 27.9177V29.9877H14.9988V23.4686L11.1139 16.2804Z" fill="url(#paint4_radial_4002_2175)"/>
<path d="M11.1139 16.2804C10.0531 16.7579 9.0799 17.4065 8.2356 18.1977V18.2118L8.22565 18.1977C6.93567 19.4077 5.92566 20.9577 5.36566 22.7277L5.33566 22.8077C4.81564 24.4677 4.54565 26.1877 4.54565 27.9177V29.9877H14.9988V23.4686L11.1139 16.2804Z" fill="url(#paint5_linear_4002_2175)"/>
<path d="M11.1139 16.2804C10.0531 16.7579 9.0799 17.4065 8.2356 18.1977V18.2118L8.22565 18.1977C6.93567 19.4077 5.92566 20.9577 5.36566 22.7277L5.33566 22.8077C4.81564 24.4677 4.54565 26.1877 4.54565 27.9177V29.9877H14.9988V23.4686L11.1139 16.2804Z" fill="url(#paint6_linear_4002_2175)"/>
<path d="M11.1139 16.2804C10.0531 16.7579 9.0799 17.4065 8.2356 18.1977V18.2118L8.22565 18.1977C6.93567 19.4077 5.92566 20.9577 5.36566 22.7277L5.33566 22.8077C4.81564 24.4677 4.54565 26.1877 4.54565 27.9177V29.9877H14.9988V23.4686L11.1139 16.2804Z" fill="url(#paint7_radial_4002_2175)"/>
<path d="M19.8649 16.2804C20.9256 16.7579 21.8989 17.4065 22.7432 18.1977V18.2118L22.7531 18.1977C24.0431 19.4077 25.0531 20.9577 25.6131 22.7277L25.6431 22.8077C26.1631 24.4677 26.4331 26.1877 26.4331 27.9177V29.9877H15.98V23.4686L19.8649 16.2804Z" fill="url(#paint8_radial_4002_2175)"/>
<path d="M19.8649 16.2804C20.9256 16.7579 21.8989 17.4065 22.7432 18.1977V18.2118L22.7531 18.1977C24.0431 19.4077 25.0531 20.9577 25.6131 22.7277L25.6431 22.8077C26.1631 24.4677 26.4331 26.1877 26.4331 27.9177V29.9877H15.98V23.4686L19.8649 16.2804Z" fill="url(#paint9_radial_4002_2175)"/>
<path d="M19.8649 16.2804C20.9256 16.7579 21.8989 17.4065 22.7432 18.1977V18.2118L22.7531 18.1977C24.0431 19.4077 25.0531 20.9577 25.6131 22.7277L25.6431 22.8077C26.1631 24.4677 26.4331 26.1877 26.4331 27.9177V29.9877H15.98V23.4686L19.8649 16.2804Z" fill="url(#paint10_linear_4002_2175)"/>
<path d="M19.8649 16.2804C20.9256 16.7579 21.8989 17.4065 22.7432 18.1977V18.2118L22.7531 18.1977C24.0431 19.4077 25.0531 20.9577 25.6131 22.7277L25.6431 22.8077C26.1631 24.4677 26.4331 26.1877 26.4331 27.9177V29.9877H15.98V23.4686L19.8649 16.2804Z" fill="url(#paint11_linear_4002_2175)"/>
<g filter="url(#filter0_f_4002_2175)">
<path d="M9.47359 17.7202L9.34279 19.4533C9.31959 19.7607 9.53307 20.0356 9.83661 20.0893L10.3159 20.1741C10.4321 20.1946 10.4802 20.335 10.401 20.4225L9.7751 21.1136C9.5972 21.31 9.60346 21.6111 9.78937 21.8L14.5219 26.6077C14.6474 26.7352 14.8644 26.6463 14.8644 26.4674V23.0872C14.8644 22.8048 14.8046 22.5256 14.689 22.268L12.0833 16.4645C11.1544 16.7631 10.2765 17.1872 9.47359 17.7202Z" fill="url(#paint12_linear_4002_2175)"/>
</g>
<g filter="url(#filter1_i_4002_2175)">
<path d="M9.60799 17.1118L9.47719 18.8449C9.45399 19.1523 9.66747 19.4272 9.97101 19.4809L10.4503 19.5657C10.5665 19.5862 10.6146 19.7266 10.5354 19.8141L9.9095 20.5052C9.7316 20.7016 9.73786 21.0027 9.92377 21.1916L14.6563 25.9993C14.7818 26.1268 14.9988 26.0379 14.9988 25.859V22.4788C14.9988 22.1964 14.939 21.9172 14.8234 21.6596L12.2177 15.8561C11.2888 16.1547 10.4109 16.5788 9.60799 17.1118Z" fill="url(#paint13_radial_4002_2175)"/>
</g>
<g filter="url(#filter2_f_4002_2175)">
<path d="M21.0192 18.1416L21.135 19.6753C21.1555 19.9472 20.9666 20.1906 20.698 20.238L20.2738 20.3131C20.171 20.3312 20.1284 20.4555 20.1985 20.5329L20.7524 21.1444C20.9098 21.3183 20.9043 21.5847 20.7398 21.7518L16.5519 26.0063C16.4408 26.1191 16.2488 26.0405 16.2488 25.8821V22.8909C16.2488 22.641 16.3017 22.394 16.404 22.166L18.7098 17.0304C19.5318 17.2947 20.3087 17.6699 21.0192 18.1416Z" fill="url(#paint14_linear_4002_2175)"/>
</g>
<path d="M21.3708 17.1118L21.5016 18.8449C21.5248 19.1523 21.3113 19.4272 21.0078 19.4809L20.5285 19.5657C20.4123 19.5862 20.3642 19.7266 20.4434 19.8141L21.0693 20.5052C21.2472 20.7016 21.2409 21.0027 21.055 21.1916L16.3225 25.9993C16.197 26.1268 15.98 26.0379 15.98 25.859V22.4788C15.98 22.1964 16.0398 21.9172 16.1554 21.6596L18.7611 15.8561C19.69 16.1547 20.5679 16.5788 21.3708 17.1118Z" fill="url(#paint15_radial_4002_2175)"/>
<path d="M21.3708 17.1118L21.5016 18.8449C21.5248 19.1523 21.3113 19.4272 21.0078 19.4809L20.5285 19.5657C20.4123 19.5862 20.3642 19.7266 20.4434 19.8141L21.0693 20.5052C21.2472 20.7016 21.2409 21.0027 21.055 21.1916L16.3225 25.9993C16.197 26.1268 15.98 26.0379 15.98 25.859V22.4788C15.98 22.1964 16.0398 21.9172 16.1554 21.6596L18.7611 15.8561C19.69 16.1547 20.5679 16.5788 21.3708 17.1118Z" fill="url(#paint16_radial_4002_2175)"/>
<path d="M21.3708 17.1118L21.5016 18.8449C21.5248 19.1523 21.3113 19.4272 21.0078 19.4809L20.5285 19.5657C20.4123 19.5862 20.3642 19.7266 20.4434 19.8141L21.0693 20.5052C21.2472 20.7016 21.2409 21.0027 21.055 21.1916L16.3225 25.9993C16.197 26.1268 15.98 26.0379 15.98 25.859V22.4788C15.98 22.1964 16.0398 21.9172 16.1554 21.6596L18.7611 15.8561C19.69 16.1547 20.5679 16.5788 21.3708 17.1118Z" fill="url(#paint17_radial_4002_2175)"/>
<path d="M21.3708 17.1118L21.5016 18.8449C21.5248 19.1523 21.3113 19.4272 21.0078 19.4809L20.5285 19.5657C20.4123 19.5862 20.3642 19.7266 20.4434 19.8141L21.0693 20.5052C21.2472 20.7016 21.2409 21.0027 21.055 21.1916L16.3225 25.9993C16.197 26.1268 15.98 26.0379 15.98 25.859V22.4788C15.98 22.1964 16.0398 21.9172 16.1554 21.6596L18.7611 15.8561C19.69 16.1547 20.5679 16.5788 21.3708 17.1118Z" fill="url(#paint18_linear_4002_2175)"/>
<path d="M21.3708 17.1118L21.5016 18.8449C21.5248 19.1523 21.3113 19.4272 21.0078 19.4809L20.5285 19.5657C20.4123 19.5862 20.3642 19.7266 20.4434 19.8141L21.0693 20.5052C21.2472 20.7016 21.2409 21.0027 21.055 21.1916L16.3225 25.9993C16.197 26.1268 15.98 26.0379 15.98 25.859V22.4788C15.98 22.1964 16.0398 21.9172 16.1554 21.6596L18.7611 15.8561C19.69 16.1547 20.5679 16.5788 21.3708 17.1118Z" fill="url(#paint19_linear_4002_2175)"/>
<path d="M8.22565 29.9876V18.1976C6.93567 19.4076 5.92566 20.9576 5.36566 22.7276L5.33566 22.8076C4.81564 24.4676 4.54565 26.1876 4.54565 27.9176V29.9876H8.22565Z" fill="url(#paint20_radial_4002_2175)"/>
<path d="M8.22565 29.9876V18.1976C6.93567 19.4076 5.92566 20.9576 5.36566 22.7276L5.33566 22.8076C4.81564 24.4676 4.54565 26.1876 4.54565 27.9176V29.9876H8.22565Z" fill="url(#paint21_linear_4002_2175)"/>
<path d="M8.22565 29.9876V18.1976C6.93567 19.4076 5.92566 20.9576 5.36566 22.7276L5.33566 22.8076C4.81564 24.4676 4.54565 26.1876 4.54565 27.9176V29.9876H8.22565Z" fill="url(#paint22_radial_4002_2175)"/>
<path d="M8.22565 29.9876V18.1976C6.93567 19.4076 5.92566 20.9576 5.36566 22.7276L5.33566 22.8076C4.81564 24.4676 4.54565 26.1876 4.54565 27.9176V29.9876H8.22565Z" fill="url(#paint23_linear_4002_2175)"/>
<path d="M9.60799 17.1118L9.47719 18.8449C9.45399 19.1523 9.66747 19.4272 9.97101 19.4809L10.4503 19.5657C10.5665 19.5862 10.6146 19.7266 10.5354 19.8141L9.9095 20.5052C9.7316 20.7016 9.73786 21.0027 9.92377 21.1916L14.6563 25.9993C14.7818 26.1268 14.9988 26.0379 14.9988 25.859V22.4788C14.9988 22.1964 14.939 21.9172 14.8234 21.6596L12.2177 15.8561C11.2888 16.1547 10.4109 16.5788 9.60799 17.1118Z" fill="url(#paint24_radial_4002_2175)"/>
<path d="M22.7528 29.9877V18.1981C24.0428 19.4081 25.0531 20.9577 25.6131 22.7277L25.6431 22.8077C26.1631 24.4677 26.4331 26.1877 26.4331 27.9177V29.9877H22.7528Z" fill="url(#paint25_radial_4002_2175)"/>
<path d="M22.7528 29.9877V18.1981C24.0428 19.4081 25.0531 20.9577 25.6131 22.7277L25.6431 22.8077C26.1631 24.4677 26.4331 26.1877 26.4331 27.9177V29.9877H22.7528Z" fill="url(#paint26_linear_4002_2175)"/>
<path d="M15.7957 15.2977C16.0457 15.3077 16.3057 15.3277 16.5657 15.3477C16.3157 15.3277 16.0557 15.3077 15.7957 15.2977Z" fill="url(#paint27_linear_4002_2175)"/>
<path d="M15.4657 15.2977C15.4557 15.2977 15.4457 15.2977 15.4257 15.2977C15.5257 15.2977 15.6157 15.2977 15.7257 15.3077C15.6357 15.2977 15.5457 15.2977 15.4657 15.2977Z" fill="url(#paint28_linear_4002_2175)"/>
<path d="M15.4257 18.6176C14.2657 18.6176 13.3157 17.6776 13.3157 16.5076V15.1176H17.5357V16.5076C17.5357 17.6776 16.5857 18.6176 15.4257 18.6176Z" fill="url(#paint29_radial_4002_2175)"/>
<path d="M15.4257 18.6176C14.2657 18.6176 13.3157 17.6776 13.3157 16.5076V15.1176H17.5357V16.5076C17.5357 17.6776 16.5857 18.6176 15.4257 18.6176Z" fill="url(#paint30_radial_4002_2175)"/>
<path d="M26.4343 22.9576C26.9943 22.9576 27.4543 23.4176 27.4543 23.9776V26.3176H25.4143V23.9776C25.4243 23.4176 25.8743 22.9576 26.4343 22.9576Z" fill="url(#paint31_radial_4002_2175)"/>
<path d="M26.4343 22.9576C26.9943 22.9576 27.4543 23.4176 27.4543 23.9776V26.3176H25.4143V23.9776C25.4243 23.4176 25.8743 22.9576 26.4343 22.9576Z" fill="url(#paint32_radial_4002_2175)"/>
<rect x="23.8254" y="19.4567" width="2.70312" height="5.9375" fill="url(#paint33_linear_4002_2175)"/>
<rect x="23.8254" y="19.4567" width="2.70312" height="5.9375" fill="url(#paint34_linear_4002_2175)"/>
<rect x="23.8254" y="19.4567" width="2.70312" height="5.9375" fill="url(#paint35_radial_4002_2175)"/>
<g filter="url(#filter3_i_4002_2175)">
<rect x="23.1731" y="18.6754" width="4.00781" height="0.78125" rx="0.390625" fill="#ADDAFF"/>
<rect x="23.1731" y="18.6754" width="4.00781" height="0.78125" rx="0.390625" fill="url(#paint36_radial_4002_2175)"/>
<rect x="23.1731" y="18.6754" width="4.00781" height="0.78125" rx="0.390625" fill="url(#paint37_radial_4002_2175)"/>
<rect x="23.1731" y="18.6754" width="4.00781" height="0.78125" rx="0.390625" fill="url(#paint38_radial_4002_2175)"/>
</g>
<path d="M26.5286 21.2223V25.3942H23.8254V21.2223H26.5286Z" fill="url(#paint39_linear_4002_2175)"/>
<path d="M26.5286 21.2223V25.3942H23.8254V21.2223H26.5286Z" fill="url(#paint40_linear_4002_2175)"/>
<path d="M26.5286 21.2223V25.3942H23.8254V21.2223H26.5286Z" fill="url(#paint41_linear_4002_2175)"/>
<path d="M26.5286 21.2223V25.3942H23.8254V21.2223H26.5286Z" fill="url(#paint42_radial_4002_2175)"/>
<path d="M23.8254 22.0348V21.566H24.6301C24.7596 21.566 24.8645 21.671 24.8645 21.8004C24.8645 21.9299 24.7596 22.0348 24.6301 22.0348H23.8254Z" fill="url(#paint43_linear_4002_2175)"/>
<path d="M23.8254 23.816V23.3473H24.6301C24.7596 23.3473 24.8645 23.4522 24.8645 23.5817C24.8645 23.7111 24.7596 23.816 24.6301 23.816H23.8254Z" fill="url(#paint44_linear_4002_2175)"/>
<g filter="url(#filter4_i_4002_2175)">
<path d="M23.1365 25.3133C23.1365 24.912 23.4618 24.5814 23.863 24.5814H26.2543C26.9171 24.5814 27.4543 25.1187 27.4543 25.7814V28.9877C27.4543 29.54 27.0066 29.9877 26.4543 29.9877H23.863C23.4618 29.9877 23.1365 29.6571 23.1365 29.2558C23.1365 28.9691 23.3026 28.7185 23.5438 28.5987C23.3026 28.479 23.1365 28.2284 23.1365 27.9416C23.1365 27.6549 23.3026 27.4043 23.5438 27.2845C23.3026 27.1648 23.1365 26.9142 23.1365 26.6275C23.1365 26.3407 23.3026 26.0901 23.5438 25.9704C23.3026 25.8506 23.1365 25.6 23.1365 25.3133Z" fill="url(#paint45_linear_4002_2175)"/>
<path d="M23.1365 25.3133C23.1365 24.912 23.4618 24.5814 23.863 24.5814H26.2543C26.9171 24.5814 27.4543 25.1187 27.4543 25.7814V28.9877C27.4543 29.54 27.0066 29.9877 26.4543 29.9877H23.863C23.4618 29.9877 23.1365 29.6571 23.1365 29.2558C23.1365 28.9691 23.3026 28.7185 23.5438 28.5987C23.3026 28.479 23.1365 28.2284 23.1365 27.9416C23.1365 27.6549 23.3026 27.4043 23.5438 27.2845C23.3026 27.1648 23.1365 26.9142 23.1365 26.6275C23.1365 26.3407 23.3026 26.0901 23.5438 25.9704C23.3026 25.8506 23.1365 25.6 23.1365 25.3133Z" fill="url(#paint46_radial_4002_2175)"/>
<path d="M23.1365 25.3133C23.1365 24.912 23.4618 24.5814 23.863 24.5814H26.2543C26.9171 24.5814 27.4543 25.1187 27.4543 25.7814V28.9877C27.4543 29.54 27.0066 29.9877 26.4543 29.9877H23.863C23.4618 29.9877 23.1365 29.6571 23.1365 29.2558C23.1365 28.9691 23.3026 28.7185 23.5438 28.5987C23.3026 28.479 23.1365 28.2284 23.1365 27.9416C23.1365 27.6549 23.3026 27.4043 23.5438 27.2845C23.3026 27.1648 23.1365 26.9142 23.1365 26.6275C23.1365 26.3407 23.3026 26.0901 23.5438 25.9704C23.3026 25.8506 23.1365 25.6 23.1365 25.3133Z" fill="url(#paint47_radial_4002_2175)"/>
<path d="M23.1365 25.3133C23.1365 24.912 23.4618 24.5814 23.863 24.5814H26.2543C26.9171 24.5814 27.4543 25.1187 27.4543 25.7814V28.9877C27.4543 29.54 27.0066 29.9877 26.4543 29.9877H23.863C23.4618 29.9877 23.1365 29.6571 23.1365 29.2558C23.1365 28.9691 23.3026 28.7185 23.5438 28.5987C23.3026 28.479 23.1365 28.2284 23.1365 27.9416C23.1365 27.6549 23.3026 27.4043 23.5438 27.2845C23.3026 27.1648 23.1365 26.9142 23.1365 26.6275C23.1365 26.3407 23.3026 26.0901 23.5438 25.9704C23.3026 25.8506 23.1365 25.6 23.1365 25.3133Z" fill="url(#paint48_radial_4002_2175)"/>
<path d="M23.1365 25.3133C23.1365 24.912 23.4618 24.5814 23.863 24.5814H26.2543C26.9171 24.5814 27.4543 25.1187 27.4543 25.7814V28.9877C27.4543 29.54 27.0066 29.9877 26.4543 29.9877H23.863C23.4618 29.9877 23.1365 29.6571 23.1365 29.2558C23.1365 28.9691 23.3026 28.7185 23.5438 28.5987C23.3026 28.479 23.1365 28.2284 23.1365 27.9416C23.1365 27.6549 23.3026 27.4043 23.5438 27.2845C23.3026 27.1648 23.1365 26.9142 23.1365 26.6275C23.1365 26.3407 23.3026 26.0901 23.5438 25.9704C23.3026 25.8506 23.1365 25.6 23.1365 25.3133Z" fill="url(#paint49_radial_4002_2175)"/>
</g>
<g filter="url(#filter5_f_4002_2175)">
<path d="M23.754 25.9899H25.5509" stroke="url(#paint50_linear_4002_2175)" stroke-width="0.1" stroke-linecap="round"/>
</g>
<g filter="url(#filter6_f_4002_2175)">
<path d="M23.6759 27.2946H25.4728" stroke="url(#paint51_linear_4002_2175)" stroke-width="0.1" stroke-linecap="round"/>
</g>
<g filter="url(#filter7_f_4002_2175)">
<path d="M23.754 28.5992H25.5509" stroke="url(#paint52_linear_4002_2175)" stroke-width="0.1" stroke-linecap="round"/>
</g>
<path d="M20.2869 12.1094C20.6222 12.0986 20.9361 11.9849 21.1915 11.8009V12.7319C21.1915 13.625 20.6594 14.4207 19.8506 14.7509C20.0209 14.3882 20.138 13.9931 20.1965 13.5709L20.2869 12.1094Z" fill="url(#paint53_radial_4002_2175)"/>
<path d="M10.5644 12.1094C10.2291 12.0986 9.9152 11.9849 9.65979 11.8009V12.7319C9.65979 13.625 10.1919 14.4207 11.0007 14.7509C10.8304 14.3882 10.7134 13.9931 10.6548 13.5709L10.5644 12.1094Z" fill="url(#paint54_radial_4002_2175)"/>
<path d="M10.5644 12.1094C10.2291 12.0986 9.9152 11.9849 9.65979 11.8009V12.7319C9.65979 13.625 10.1919 14.4207 11.0007 14.7509C10.8304 14.3882 10.7134 13.9931 10.6548 13.5709L10.5644 12.1094Z" fill="url(#paint55_radial_4002_2175)"/>
<path d="M10.5644 12.1094C10.2291 12.0986 9.9152 11.9849 9.65979 11.8009V12.7319C9.65979 13.625 10.1919 14.4207 11.0007 14.7509C10.8304 14.3882 10.7134 13.9931 10.6548 13.5709L10.5644 12.1094Z" fill="url(#paint56_radial_4002_2175)"/>
<path d="M10.5644 12.1094C10.2291 12.0986 9.9152 11.9849 9.65979 11.8009V12.7319C9.65979 13.625 10.1919 14.4207 11.0007 14.7509C10.8304 14.3882 10.7134 13.9931 10.6548 13.5709L10.5644 12.1094Z" fill="url(#paint57_radial_4002_2175)"/>
<g filter="url(#filter8_ii_4002_2175)">
<path d="M10.6008 13.6244C10.8581 15.5767 12.5196 17.0303 14.4865 17.0303H16.3731C18.3401 17.0303 20.0015 15.5767 20.2588 13.6244C20.3768 11.7407 20.4954 9.86457 20.583 7.98186C20.5723 7.21486 19.9677 6.58196 19.204 6.54978H17.8038C16.8491 6.54978 15.9846 5.98659 15.5921 5.10696C15.4913 4.85487 15.2473 4.6886 14.9768 4.6886H13.7039C11.8582 4.6886 10.3625 6.20114 10.3625 8.06768C10.3625 9.9284 10.4788 11.759 10.6008 13.6244Z" fill="url(#paint58_radial_4002_2175)"/>
</g>
<path d="M10.6008 13.6244C10.8581 15.5767 12.5196 17.0303 14.4865 17.0303H16.3731C18.3401 17.0303 20.0015 15.5767 20.2588 13.6244C20.3768 11.7407 20.4954 9.86457 20.583 7.98186C20.5723 7.21486 19.9677 6.58196 19.204 6.54978H17.8038C16.8491 6.54978 15.9846 5.98659 15.5921 5.10696C15.4913 4.85487 15.2473 4.6886 14.9768 4.6886H13.7039C11.8582 4.6886 10.3625 6.20114 10.3625 8.06768C10.3625 9.9284 10.4788 11.759 10.6008 13.6244Z" fill="url(#paint59_linear_4002_2175)"/>
<path d="M10.6008 13.6244C10.8581 15.5767 12.5196 17.0303 14.4865 17.0303H16.3731C18.3401 17.0303 20.0015 15.5767 20.2588 13.6244C20.3768 11.7407 20.4954 9.86457 20.583 7.98186C20.5723 7.21486 19.9677 6.58196 19.204 6.54978H17.8038C16.8491 6.54978 15.9846 5.98659 15.5921 5.10696C15.4913 4.85487 15.2473 4.6886 14.9768 4.6886H13.7039C11.8582 4.6886 10.3625 6.20114 10.3625 8.06768C10.3625 9.9284 10.4788 11.759 10.6008 13.6244Z" fill="url(#paint60_radial_4002_2175)"/>
<path d="M10.6008 13.6244C10.8581 15.5767 12.5196 17.0303 14.4865 17.0303H16.3731C18.3401 17.0303 20.0015 15.5767 20.2588 13.6244C20.3768 11.7407 20.4954 9.86457 20.583 7.98186C20.5723 7.21486 19.9677 6.58196 19.204 6.54978H17.8038C16.8491 6.54978 15.9846 5.98659 15.5921 5.10696C15.4913 4.85487 15.2473 4.6886 14.9768 4.6886H13.7039C11.8582 4.6886 10.3625 6.20114 10.3625 8.06768C10.3625 9.9284 10.4788 11.759 10.6008 13.6244Z" fill="url(#paint61_radial_4002_2175)"/>
<path d="M10.6008 13.6244C10.8581 15.5767 12.5196 17.0303 14.4865 17.0303H16.3731C18.3401 17.0303 20.0015 15.5767 20.2588 13.6244C20.3768 11.7407 20.4954 9.86457 20.583 7.98186C20.5723 7.21486 19.9677 6.58196 19.204 6.54978H17.8038C16.8491 6.54978 15.9846 5.98659 15.5921 5.10696C15.4913 4.85487 15.2473 4.6886 14.9768 4.6886H13.7039C11.8582 4.6886 10.3625 6.20114 10.3625 8.06768C10.3625 9.9284 10.4788 11.759 10.6008 13.6244Z" fill="url(#paint62_radial_4002_2175)"/>
<path d="M10.6008 13.6244C10.8581 15.5767 12.5196 17.0303 14.4865 17.0303H16.3731C18.3401 17.0303 20.0015 15.5767 20.2588 13.6244C20.3768 11.7407 20.4954 9.86457 20.583 7.98186C20.5723 7.21486 19.9677 6.58196 19.204 6.54978H17.8038C16.8491 6.54978 15.9846 5.98659 15.5921 5.10696C15.4913 4.85487 15.2473 4.6886 14.9768 4.6886H13.7039C11.8582 4.6886 10.3625 6.20114 10.3625 8.06768C10.3625 9.9284 10.4788 11.759 10.6008 13.6244Z" fill="url(#paint63_radial_4002_2175)"/>
<path d="M10.6008 13.6244C10.8581 15.5767 12.5196 17.0303 14.4865 17.0303H16.3731C18.3401 17.0303 20.0015 15.5767 20.2588 13.6244C20.3768 11.7407 20.4954 9.86457 20.583 7.98186C20.5723 7.21486 19.9677 6.58196 19.204 6.54978H17.8038C16.8491 6.54978 15.9846 5.98659 15.5921 5.10696C15.4913 4.85487 15.2473 4.6886 14.9768 4.6886H13.7039C11.8582 4.6886 10.3625 6.20114 10.3625 8.06768C10.3625 9.9284 10.4788 11.759 10.6008 13.6244Z" fill="url(#paint64_radial_4002_2175)"/>
<path d="M10.6008 13.6244C10.8581 15.5767 12.5196 17.0303 14.4865 17.0303H16.3731C18.3401 17.0303 20.0015 15.5767 20.2588 13.6244C20.3768 11.7407 20.4954 9.86457 20.583 7.98186C20.5723 7.21486 19.9677 6.58196 19.204 6.54978H17.8038C16.8491 6.54978 15.9846 5.98659 15.5921 5.10696C15.4913 4.85487 15.2473 4.6886 14.9768 4.6886H13.7039C11.8582 4.6886 10.3625 6.20114 10.3625 8.06768C10.3625 9.9284 10.4788 11.759 10.6008 13.6244Z" fill="url(#paint65_radial_4002_2175)"/>
<path d="M10.6008 13.6244C10.8581 15.5767 12.5196 17.0303 14.4865 17.0303H16.3731C18.3401 17.0303 20.0015 15.5767 20.2588 13.6244C20.3768 11.7407 20.4954 9.86457 20.583 7.98186C20.5723 7.21486 19.9677 6.58196 19.204 6.54978H17.8038C16.8491 6.54978 15.9846 5.98659 15.5921 5.10696C15.4913 4.85487 15.2473 4.6886 14.9768 4.6886H13.7039C11.8582 4.6886 10.3625 6.20114 10.3625 8.06768C10.3625 9.9284 10.4788 11.759 10.6008 13.6244Z" fill="url(#paint66_radial_4002_2175)"/>
<g filter="url(#filter9_f_4002_2175)">
<path d="M14.9949 10.6772L14.303 12.3328C14.2016 12.7109 14.4449 13.0891 14.7895 13.0891H15.5244C15.869 13.0891 16.1123 12.7051 16.0109 12.3328L15.5143 10.4944C15.4078 10.0872 15.1064 10.27 14.9949 10.6772Z" fill="#C48377"/>
</g>
<g filter="url(#filter10_f_4002_2175)">
<path d="M15.0434 10.2987L14.5119 12.1371C14.4034 12.5152 14.6637 12.8933 15.0325 12.8933H15.8189C16.1877 12.8933 16.448 12.5094 16.3395 12.1371L15.808 10.2987C15.6941 9.89148 15.1627 9.89148 15.0434 10.2987Z" fill="url(#paint67_linear_4002_2175)"/>
<path d="M15.0434 10.2987L14.5119 12.1371C14.4034 12.5152 14.6637 12.8933 15.0325 12.8933H15.8189C16.1877 12.8933 16.448 12.5094 16.3395 12.1371L15.808 10.2987C15.6941 9.89148 15.1627 9.89148 15.0434 10.2987Z" fill="url(#paint68_linear_4002_2175)"/>
<path d="M15.0434 10.2987L14.5119 12.1371C14.4034 12.5152 14.6637 12.8933 15.0325 12.8933H15.8189C16.1877 12.8933 16.448 12.5094 16.3395 12.1371L15.808 10.2987C15.6941 9.89148 15.1627 9.89148 15.0434 10.2987Z" fill="url(#paint69_linear_4002_2175)"/>
<path d="M15.0434 10.2987L14.5119 12.1371C14.4034 12.5152 14.6637 12.8933 15.0325 12.8933H15.8189C16.1877 12.8933 16.448 12.5094 16.3395 12.1371L15.808 10.2987C15.6941 9.89148 15.1627 9.89148 15.0434 10.2987Z" fill="url(#paint70_linear_4002_2175)"/>
</g>
<g filter="url(#filter11_f_4002_2175)">
<path d="M14.075 13.3613L14.075 13.3613L14.0743 13.3609C13.9724 13.3091 13.8661 13.3416 13.8032 13.4078C13.74 13.4744 13.7142 13.5828 13.7802 13.6788C14.1287 14.2064 14.7353 14.5578 15.4257 14.5578C16.1164 14.5578 16.7232 14.2062 17.0716 13.6782C17.1364 13.5809 17.1125 13.4727 17.0479 13.4056C16.9842 13.3395 16.878 13.3097 16.7772 13.3609L16.7772 13.3609L16.7765 13.3613C16.3866 13.5645 15.9266 13.6812 15.4257 13.6812C14.9299 13.6812 14.4648 13.5645 14.075 13.3613Z" stroke="url(#paint71_radial_4002_2175)" stroke-width="0.15"/>
</g>
<path d="M15.4257 13.7562C14.9183 13.7562 14.4412 13.6368 14.0403 13.4278C13.9033 13.3581 13.7561 13.5124 13.8424 13.6368C14.1773 14.1444 14.7609 14.4828 15.4257 14.4828C16.0905 14.4828 16.6742 14.1444 17.0091 13.6368C17.0954 13.5074 16.9482 13.3581 16.8112 13.4278C16.4103 13.6368 15.9383 13.7562 15.4257 13.7562Z" fill="url(#paint72_radial_4002_2175)"/>
<g filter="url(#filter12_ii_4002_2175)">
<path d="M20.2805 4.21678C20.7949 4.39378 21.2564 4.75314 21.5481 5.26805C22.0148 6.08868 21.9459 7.07023 21.442 7.79432C21.267 8.05177 21.1715 8.3575 21.1715 8.66859V9.85663C20.9844 9.72633 20.7377 9.62973 20.5043 9.58845L20.5828 7.98204C20.5722 7.21504 19.9675 6.58214 19.2038 6.54996H17.8036C16.8489 6.54996 15.9844 5.98677 15.5919 5.10714C15.4911 4.85505 15.2472 4.68878 14.9767 4.68878H13.7038C11.8581 4.68878 10.3624 6.20132 10.3624 8.06786L10.393 9.60521C10.1391 9.64253 9.87374 9.72743 9.67289 9.86888V8.66859C9.67289 8.3575 9.57742 8.05177 9.4024 7.79432C8.92506 7.09168 8.8402 6.14768 9.2592 5.3485C9.5509 4.79605 10.0229 4.40987 10.5586 4.22214C11.1314 4.01832 11.6194 3.63214 11.9429 3.11187C12.3566 2.45215 13.0832 2.01233 13.9159 2.01233C14.2395 2.01233 14.5471 2.08206 14.8335 2.20006C15.2154 2.36633 15.645 2.36633 16.0268 2.20006C16.3079 2.08206 16.6155 2.01233 16.9391 2.01233C17.7824 2.01233 18.5196 2.46824 18.928 3.14405C19.2356 3.6536 19.7183 4.02369 20.2805 4.21678Z" fill="url(#paint73_linear_4002_2175)"/>
<path d="M20.2805 4.21678C20.7949 4.39378 21.2564 4.75314 21.5481 5.26805C22.0148 6.08868 21.9459 7.07023 21.442 7.79432C21.267 8.05177 21.1715 8.3575 21.1715 8.66859V9.85663C20.9844 9.72633 20.7377 9.62973 20.5043 9.58845L20.5828 7.98204C20.5722 7.21504 19.9675 6.58214 19.2038 6.54996H17.8036C16.8489 6.54996 15.9844 5.98677 15.5919 5.10714C15.4911 4.85505 15.2472 4.68878 14.9767 4.68878H13.7038C11.8581 4.68878 10.3624 6.20132 10.3624 8.06786L10.393 9.60521C10.1391 9.64253 9.87374 9.72743 9.67289 9.86888V8.66859C9.67289 8.3575 9.57742 8.05177 9.4024 7.79432C8.92506 7.09168 8.8402 6.14768 9.2592 5.3485C9.5509 4.79605 10.0229 4.40987 10.5586 4.22214C11.1314 4.01832 11.6194 3.63214 11.9429 3.11187C12.3566 2.45215 13.0832 2.01233 13.9159 2.01233C14.2395 2.01233 14.5471 2.08206 14.8335 2.20006C15.2154 2.36633 15.645 2.36633 16.0268 2.20006C16.3079 2.08206 16.6155 2.01233 16.9391 2.01233C17.7824 2.01233 18.5196 2.46824 18.928 3.14405C19.2356 3.6536 19.7183 4.02369 20.2805 4.21678Z" fill="url(#paint74_radial_4002_2175)"/>
<path d="M20.2805 4.21678C20.7949 4.39378 21.2564 4.75314 21.5481 5.26805C22.0148 6.08868 21.9459 7.07023 21.442 7.79432C21.267 8.05177 21.1715 8.3575 21.1715 8.66859V9.85663C20.9844 9.72633 20.7377 9.62973 20.5043 9.58845L20.5828 7.98204C20.5722 7.21504 19.9675 6.58214 19.2038 6.54996H17.8036C16.8489 6.54996 15.9844 5.98677 15.5919 5.10714C15.4911 4.85505 15.2472 4.68878 14.9767 4.68878H13.7038C11.8581 4.68878 10.3624 6.20132 10.3624 8.06786L10.393 9.60521C10.1391 9.64253 9.87374 9.72743 9.67289 9.86888V8.66859C9.67289 8.3575 9.57742 8.05177 9.4024 7.79432C8.92506 7.09168 8.8402 6.14768 9.2592 5.3485C9.5509 4.79605 10.0229 4.40987 10.5586 4.22214C11.1314 4.01832 11.6194 3.63214 11.9429 3.11187C12.3566 2.45215 13.0832 2.01233 13.9159 2.01233C14.2395 2.01233 14.5471 2.08206 14.8335 2.20006C15.2154 2.36633 15.645 2.36633 16.0268 2.20006C16.3079 2.08206 16.6155 2.01233 16.9391 2.01233C17.7824 2.01233 18.5196 2.46824 18.928 3.14405C19.2356 3.6536 19.7183 4.02369 20.2805 4.21678Z" fill="url(#paint75_radial_4002_2175)"/>
<path d="M20.2805 4.21678C20.7949 4.39378 21.2564 4.75314 21.5481 5.26805C22.0148 6.08868 21.9459 7.07023 21.442 7.79432C21.267 8.05177 21.1715 8.3575 21.1715 8.66859V9.85663C20.9844 9.72633 20.7377 9.62973 20.5043 9.58845L20.5828 7.98204C20.5722 7.21504 19.9675 6.58214 19.2038 6.54996H17.8036C16.8489 6.54996 15.9844 5.98677 15.5919 5.10714C15.4911 4.85505 15.2472 4.68878 14.9767 4.68878H13.7038C11.8581 4.68878 10.3624 6.20132 10.3624 8.06786L10.393 9.60521C10.1391 9.64253 9.87374 9.72743 9.67289 9.86888V8.66859C9.67289 8.3575 9.57742 8.05177 9.4024 7.79432C8.92506 7.09168 8.8402 6.14768 9.2592 5.3485C9.5509 4.79605 10.0229 4.40987 10.5586 4.22214C11.1314 4.01832 11.6194 3.63214 11.9429 3.11187C12.3566 2.45215 13.0832 2.01233 13.9159 2.01233C14.2395 2.01233 14.5471 2.08206 14.8335 2.20006C15.2154 2.36633 15.645 2.36633 16.0268 2.20006C16.3079 2.08206 16.6155 2.01233 16.9391 2.01233C17.7824 2.01233 18.5196 2.46824 18.928 3.14405C19.2356 3.6536 19.7183 4.02369 20.2805 4.21678Z" fill="url(#paint76_radial_4002_2175)"/>
<path d="M20.2805 4.21678C20.7949 4.39378 21.2564 4.75314 21.5481 5.26805C22.0148 6.08868 21.9459 7.07023 21.442 7.79432C21.267 8.05177 21.1715 8.3575 21.1715 8.66859V9.85663C20.9844 9.72633 20.7377 9.62973 20.5043 9.58845L20.5828 7.98204C20.5722 7.21504 19.9675 6.58214 19.2038 6.54996H17.8036C16.8489 6.54996 15.9844 5.98677 15.5919 5.10714C15.4911 4.85505 15.2472 4.68878 14.9767 4.68878H13.7038C11.8581 4.68878 10.3624 6.20132 10.3624 8.06786L10.393 9.60521C10.1391 9.64253 9.87374 9.72743 9.67289 9.86888V8.66859C9.67289 8.3575 9.57742 8.05177 9.4024 7.79432C8.92506 7.09168 8.8402 6.14768 9.2592 5.3485C9.5509 4.79605 10.0229 4.40987 10.5586 4.22214C11.1314 4.01832 11.6194 3.63214 11.9429 3.11187C12.3566 2.45215 13.0832 2.01233 13.9159 2.01233C14.2395 2.01233 14.5471 2.08206 14.8335 2.20006C15.2154 2.36633 15.645 2.36633 16.0268 2.20006C16.3079 2.08206 16.6155 2.01233 16.9391 2.01233C17.7824 2.01233 18.5196 2.46824 18.928 3.14405C19.2356 3.6536 19.7183 4.02369 20.2805 4.21678Z" fill="url(#paint77_radial_4002_2175)"/>
</g>
<g filter="url(#filter13_i_4002_2175)">
<path d="M19.1251 8.02412C18.9499 7.87154 18.7462 7.70986 18.4376 7.61271C18.1334 7.51693 17.7523 7.49121 17.2251 7.5557C17.0731 7.5743 16.9649 7.71262 16.9835 7.86465C17.0021 8.01668 17.1404 8.12485 17.2925 8.10625C17.7736 8.04738 18.0684 8.07797 18.271 8.14176C18.4693 8.20418 18.6035 8.30532 18.7608 8.44237C18.8763 8.54297 19.0515 8.53089 19.1521 8.41539C19.2527 8.2999 19.2406 8.12472 19.1251 8.02412Z" fill="#A06937"/>
</g>
<g filter="url(#filter14_i_4002_2175)">
<path d="M11.9814 7.91499C12.0715 7.86105 12.2012 7.79204 12.3649 7.72766C12.6924 7.59891 13.1603 7.4871 13.7203 7.55561C13.8723 7.5742 13.9805 7.71253 13.9619 7.86456C13.9433 8.01659 13.805 8.12475 13.6529 8.10615C13.2045 8.0513 12.8304 8.14062 12.5679 8.24385C12.4366 8.29545 12.3343 8.35015 12.2662 8.39091C12.2322 8.41125 12.207 8.42799 12.1911 8.43895C12.1832 8.44443 12.1776 8.44844 12.1745 8.45072L12.1718 8.45277C12.0509 8.54595 11.8773 8.52399 11.7835 8.40341C11.6895 8.28251 11.7113 8.10828 11.8322 8.01424L11.9814 7.91499Z" fill="#A06937"/>
</g>
<g filter="url(#filter15_f_4002_2175)">
<path d="M15.658 5.24393C15.6347 5.19924 15.6126 5.15362 15.5919 5.10712C15.4911 4.85503 15.2471 4.68876 14.9767 4.68876H13.7037C11.858 4.68876 10.3624 6.2013 10.3624 8.06784V8.34301C10.0224 8.08426 9.59473 7.53846 9.59473 6.6552C9.59473 5.58336 10.3765 5.04159 10.8751 4.696C11.0159 4.59843 11.1341 4.51651 11.2058 4.4427C11.2363 4.41135 11.2694 4.37619 11.3055 4.33794C11.655 3.96721 12.2778 3.30667 13.3653 3.01799C13.8968 2.87692 14.4352 2.8424 14.873 2.85296C15.3458 2.86437 15.6791 3.27265 15.6791 3.74549V5.23049L15.658 5.24393Z" fill="url(#paint78_radial_4002_2175)"/>
<path d="M15.658 5.24393C15.6347 5.19924 15.6126 5.15362 15.5919 5.10712C15.4911 4.85503 15.2471 4.68876 14.9767 4.68876H13.7037C11.858 4.68876 10.3624 6.2013 10.3624 8.06784V8.34301C10.0224 8.08426 9.59473 7.53846 9.59473 6.6552C9.59473 5.58336 10.3765 5.04159 10.8751 4.696C11.0159 4.59843 11.1341 4.51651 11.2058 4.4427C11.2363 4.41135 11.2694 4.37619 11.3055 4.33794C11.655 3.96721 12.2778 3.30667 13.3653 3.01799C13.8968 2.87692 14.4352 2.8424 14.873 2.85296C15.3458 2.86437 15.6791 3.27265 15.6791 3.74549V5.23049L15.658 5.24393Z" fill="url(#paint79_radial_4002_2175)"/>
</g>
<g filter="url(#filter16_f_4002_2175)">
<path d="M20.6383 8.61613L20.6092 7.98494C20.5985 7.22148 19.9676 6.59149 19.2039 6.55946H17.8037C16.9148 6.55946 16.1041 6.0735 15.6798 5.29981C15.6798 5.29981 15.6212 5.16411 15.5598 4.93168C15.3035 3.96189 16.2307 3.21934 17.2154 3.41032C18.1888 3.59911 19.2977 3.92723 20.1175 4.46195C21.862 5.59981 21.5566 7.65046 20.6383 8.61613Z" fill="url(#paint80_radial_4002_2175)"/>
<path d="M20.6383 8.61613L20.6092 7.98494C20.5985 7.22148 19.9676 6.59149 19.2039 6.55946H17.8037C16.9148 6.55946 16.1041 6.0735 15.6798 5.29981C15.6798 5.29981 15.6212 5.16411 15.5598 4.93168C15.3035 3.96189 16.2307 3.21934 17.2154 3.41032C18.1888 3.59911 19.2977 3.92723 20.1175 4.46195C21.862 5.59981 21.5566 7.65046 20.6383 8.61613Z" fill="url(#paint81_radial_4002_2175)"/>
<path d="M20.6383 8.61613L20.6092 7.98494C20.5985 7.22148 19.9676 6.59149 19.2039 6.55946H17.8037C16.9148 6.55946 16.1041 6.0735 15.6798 5.29981C15.6798 5.29981 15.6212 5.16411 15.5598 4.93168C15.3035 3.96189 16.2307 3.21934 17.2154 3.41032C18.1888 3.59911 19.2977 3.92723 20.1175 4.46195C21.862 5.59981 21.5566 7.65046 20.6383 8.61613Z" fill="url(#paint82_radial_4002_2175)"/>
<path d="M20.6383 8.61613L20.6092 7.98494C20.5985 7.22148 19.9676 6.59149 19.2039 6.55946H17.8037C16.9148 6.55946 16.1041 6.0735 15.6798 5.29981C15.6798 5.29981 15.6212 5.16411 15.5598 4.93168C15.3035 3.96189 16.2307 3.21934 17.2154 3.41032C18.1888 3.59911 19.2977 3.92723 20.1175 4.46195C21.862 5.59981 21.5566 7.65046 20.6383 8.61613Z" fill="url(#paint83_radial_4002_2175)"/>
<path d="M20.6383 8.61613L20.6092 7.98494C20.5985 7.22148 19.9676 6.59149 19.2039 6.55946H17.8037C16.9148 6.55946 16.1041 6.0735 15.6798 5.29981C15.6798 5.29981 15.6212 5.16411 15.5598 4.93168C15.3035 3.96189 16.2307 3.21934 17.2154 3.41032C18.1888 3.59911 19.2977 3.92723 20.1175 4.46195C21.862 5.59981 21.5566 7.65046 20.6383 8.61613Z" fill="url(#paint84_radial_4002_2175)"/>
<path d="M20.6383 8.61613L20.6092 7.98494C20.5985 7.22148 19.9676 6.59149 19.2039 6.55946H17.8037C16.9148 6.55946 16.1041 6.0735 15.6798 5.29981C15.6798 5.29981 15.6212 5.16411 15.5598 4.93168C15.3035 3.96189 16.2307 3.21934 17.2154 3.41032C18.1888 3.59911 19.2977 3.92723 20.1175 4.46195C21.862 5.59981 21.5566 7.65046 20.6383 8.61613Z" fill="url(#paint85_radial_4002_2175)"/>
</g>
<path d="M17.8167 9.46008C18.4698 9.46008 19.0215 9.91037 19.1716 10.5189C19.2162 10.6933 19.0823 10.8596 18.9038 10.8596H16.6727C16.5307 10.8596 16.4171 10.7298 16.4455 10.5878C16.5713 9.94688 17.1352 9.46008 17.8167 9.46008Z" fill="white"/>
<path d="M17.6098 9.73181C18.1047 9.73181 18.5022 10.1334 18.5022 10.6243C18.5022 10.7054 18.49 10.7865 18.4698 10.8595H16.7457C16.7254 10.7825 16.7133 10.7054 16.7133 10.6243C16.7133 10.1334 17.1149 9.73181 17.6098 9.73181Z" fill="url(#paint86_radial_4002_2175)"/>
<path d="M17.0986 10.6243C17.0986 10.3403 17.3258 10.1132 17.6098 10.1132C17.8937 10.1132 18.1209 10.3403 18.1209 10.6243C18.1209 10.7095 18.1006 10.7906 18.0641 10.8596H17.1595C17.1189 10.7906 17.0986 10.7095 17.0986 10.6243Z" fill="black"/>
<g filter="url(#filter17_f_4002_2175)">
<path d="M17.5442 9.92049C17.6078 10.0055 17.4749 10.1092 17.3238 10.2222C17.1727 10.3352 17.0605 10.4147 16.997 10.3296C16.9334 10.2446 17.0043 10.0841 17.1555 9.97108C17.3066 9.8581 17.4806 9.83545 17.5442 9.92049Z" fill="#C7A7A3"/>
<path d="M17.5442 9.92049C17.6078 10.0055 17.4749 10.1092 17.3238 10.2222C17.1727 10.3352 17.0605 10.4147 16.997 10.3296C16.9334 10.2446 17.0043 10.0841 17.1555 9.97108C17.3066 9.8581 17.4806 9.83545 17.5442 9.92049Z" fill="url(#paint87_radial_4002_2175)"/>
</g>
<g filter="url(#filter18_f_4002_2175)">
<path d="M18.4047 10.5068C18.3717 10.2761 18.2367 10.1022 18.1733 10.0441L17.9135 10.3293L18.0307 10.5575L18.4047 10.5068Z" fill="url(#paint88_linear_4002_2175)"/>
</g>
<path d="M13.0348 9.45984C12.3816 9.45984 11.8299 9.91014 11.6798 10.5187C11.6352 10.6931 11.769 10.8594 11.9475 10.8594H14.1788C14.3208 10.8594 14.4344 10.7296 14.406 10.5876C14.2802 9.94666 13.7123 9.45984 13.0348 9.45984Z" fill="white"/>
<path d="M13.2416 9.73157C12.7467 9.73157 12.3491 10.1332 12.3491 10.6241C12.3491 10.7052 12.3613 10.7863 12.3816 10.8594H14.1057C14.126 10.7823 14.1382 10.7052 14.1382 10.6241C14.1341 10.1332 13.7365 9.73157 13.2416 9.73157Z" fill="url(#paint89_radial_4002_2175)"/>
<path d="M13.7528 10.6241C13.7528 10.3401 13.5256 10.1129 13.2416 10.1129C12.9577 10.1129 12.7305 10.3401 12.7305 10.6241C12.7305 10.7093 12.7508 10.7904 12.7873 10.8594H13.6919C13.7284 10.7904 13.7528 10.7093 13.7528 10.6241Z" fill="black"/>
<g filter="url(#filter19_f_4002_2175)">
<path d="M14.057 10.5194C14.057 10.231 13.8225 10.0387 13.7591 9.98059L13.4707 10.2595L13.6482 10.6208L14.057 10.5194Z" fill="url(#paint90_linear_4002_2175)"/>
</g>
<g filter="url(#filter20_f_4002_2175)">
<ellipse cx="12.9724" cy="10.1131" rx="0.389623" ry="0.197185" transform="rotate(-27.914 12.9724 10.1131)" fill="#C7A7A3" fill-opacity="0.9"/>
<ellipse cx="12.9724" cy="10.1131" rx="0.389623" ry="0.197185" transform="rotate(-27.914 12.9724 10.1131)" fill="url(#paint91_radial_4002_2175)"/>
</g>
<path d="M20.3477 12.2004C20.4135 11.1363 20.4769 10.0733 20.5322 9.00916C21.2878 9.14136 21.8621 9.80066 21.8621 10.5941C21.8621 11.451 21.1923 12.1515 20.3477 12.2004Z" fill="url(#paint92_linear_4002_2175)"/>
<path d="M20.3477 12.2004C20.4135 11.1363 20.4769 10.0733 20.5322 9.00916C21.2878 9.14136 21.8621 9.80066 21.8621 10.5941C21.8621 11.451 21.1923 12.1515 20.3477 12.2004Z" fill="url(#paint93_radial_4002_2175)"/>
<path d="M20.3477 12.2004C20.4135 11.1363 20.4769 10.0733 20.5322 9.00916C21.2878 9.14136 21.8621 9.80066 21.8621 10.5941C21.8621 11.451 21.1923 12.1515 20.3477 12.2004Z" fill="url(#paint94_radial_4002_2175)"/>
<path d="M10.3717 9.00085C9.59032 9.11102 8.98926 9.78237 8.98926 10.5941C8.98926 11.4532 9.66247 12.155 10.5101 12.2008C10.4456 11.1322 10.3923 10.0698 10.3717 9.00085Z" fill="url(#paint95_linear_4002_2175)"/>
<path d="M10.3717 9.00085C9.59032 9.11102 8.98926 9.78237 8.98926 10.5941C8.98926 11.4532 9.66247 12.155 10.5101 12.2008C10.4456 11.1322 10.3923 10.0698 10.3717 9.00085Z" fill="url(#paint96_radial_4002_2175)"/>
<g filter="url(#filter21_f_4002_2175)">
<path d="M10.3884 9.66174C9.96175 9.7574 9.64294 10.1385 9.64294 10.594C9.64294 11.0788 10.004 11.4792 10.4718 11.5411C10.4372 10.9143 10.4079 10.2887 10.3884 9.66174Z" fill="#B57562"/>
</g>
<g filter="url(#filter22_f_4002_2175)">
<path d="M20.3876 11.5495C20.4261 10.9149 20.4634 10.2807 20.4982 9.64612C20.9694 9.70491 21.3341 10.1069 21.3341 10.5941C21.3341 11.1188 20.9111 11.5447 20.3876 11.5495Z" fill="#E6AA8B"/>
</g>
<g filter="url(#filter23_f_4002_2175)">
<path d="M12.019 8.19475C12.276 8.01037 12.9166 7.68605 13.6742 7.81343" stroke="#B17847" stroke-width="0.15" stroke-linecap="round"/>
</g>
<g filter="url(#filter24_f_4002_2175)">
<path d="M18.9532 8.14868C18.7676 7.8754 18.0557 7.63998 17.2981 7.76736" stroke="#B17847" stroke-width="0.15" stroke-linecap="round"/>
</g>
<g opacity="0.6" filter="url(#filter25_i_4002_2175)">
<path d="M18.0829 6.46423H12.8079C11.3107 6.46423 10.0713 7.66398 10.0614 9.17111C10.0614 10.6683 11.281 11.8879 12.7782 11.8879C13.7201 11.8879 14.5924 11.402 15.0783 10.6683C15.2667 10.3907 15.6109 10.3907 15.7993 10.6683C16.305 11.4219 17.1905 11.9077 18.1721 11.878C19.5801 11.8284 20.7699 10.6088 20.7897 9.20085C20.8096 7.70365 19.59 6.46423 18.0829 6.46423Z" fill="url(#paint97_linear_4002_2175)"/>
</g>
<g filter="url(#filter26_ii_4002_2175)">
<path fill-rule="evenodd" clip-rule="evenodd" d="M9.76136 9.16909C9.77238 7.49325 11.1496 6.16418 12.8079 6.16418H18.0828C19.757 6.16418 21.1117 7.54015 21.0897 9.20478L21.0897 9.20503C21.0676 10.7724 19.751 12.1225 18.1826 12.1777L18.1811 12.1778C17.0944 12.2107 16.1126 11.6731 15.5506 10.8362C15.5059 10.7705 15.4613 10.76 15.4387 10.76C15.4162 10.76 15.3718 10.7705 15.3272 10.8356C14.7857 11.6522 13.8202 12.1878 12.7781 12.1878C11.1152 12.1878 9.76135 10.834 9.76135 9.17106V9.16909H9.76136ZM10.3614 9.17204C10.3619 10.5031 11.4469 11.5878 12.7781 11.5878C13.6193 11.5878 14.3977 11.1526 14.8281 10.5026L14.83 10.4998L14.83 10.4998C14.9735 10.2883 15.1951 10.16 15.4387 10.16C15.6824 10.16 15.904 10.2883 16.0475 10.4998L16.0484 10.5011L16.0484 10.5011C16.4977 11.1707 17.2864 11.6044 18.1622 11.5781C19.4095 11.5338 20.4721 10.4449 20.4897 9.19658C20.5072 7.86691 19.4228 6.76418 18.0828 6.76418H12.8079C11.4721 6.76418 10.3707 7.83409 10.3614 9.17204Z" fill="#9F9BA5"/>
</g>
<defs>
<filter id="filter0_f_4002_2175" x="8.59106" y="15.7145" width="7.02336" height="11.7034" filterUnits="userSpaceOnUse" color-interpolation-filters="sRGB">
<feFlood flood-opacity="0" result="BackgroundImageFix"/>
<feBlend mode="normal" in="SourceGraphic" in2="BackgroundImageFix" result="shape"/>
<feGaussianBlur stdDeviation="0.375" result="effect1_foregroundBlur_4002_2175"/>
</filter>
<filter id="filter1_i_4002_2175" x="9.47546" y="15.6061" width="5.67336" height="10.4534" filterUnits="userSpaceOnUse" color-interpolation-filters="sRGB">
<feFlood flood-opacity="0" result="BackgroundImageFix"/>
<feBlend mode="normal" in="SourceGraphic" in2="BackgroundImageFix" result="shape"/>
<feColorMatrix in="SourceAlpha" type="matrix" values="0 0 0 0 0 0 0 0 0 0 0 0 0 0 0 0 0 0 127 0" result="hardAlpha"/>
<feOffset dx="0.15" dy="-0.25"/>
<feGaussianBlur stdDeviation="0.5"/>
<feComposite in2="hardAlpha" operator="arithmetic" k2="-1" k3="1"/>
<feColorMatrix type="matrix" values="0 0 0 0 0.831373 0 0 0 0 0.721569 0 0 0 0 0.941176 0 0 0 1 0"/>
<feBlend mode="normal" in2="shape" result="effect1_innerShadow_4002_2175"/>
</filter>
<filter id="filter2_f_4002_2175" x="15.4988" y="16.2804" width="6.3877" height="10.5291" filterUnits="userSpaceOnUse" color-interpolation-filters="sRGB">
<feFlood flood-opacity="0" result="BackgroundImageFix"/>
<feBlend mode="normal" in="SourceGraphic" in2="BackgroundImageFix" result="shape"/>
<feGaussianBlur stdDeviation="0.375" result="effect1_foregroundBlur_4002_2175"/>
</filter>
<filter id="filter3_i_4002_2175" x="23.1731" y="18.6754" width="4.00781" height="0.78125" filterUnits="userSpaceOnUse" color-interpolation-filters="sRGB">
<feFlood flood-opacity="0" result="BackgroundImageFix"/>
<feBlend mode="normal" in="SourceGraphic" in2="BackgroundImageFix" result="shape"/>
<feColorMatrix in="SourceAlpha" type="matrix" values="0 0 0 0 0 0 0 0 0 0 0 0 0 0 0 0 0 0 127 0" result="hardAlpha"/>
<feOffset/>
<feGaussianBlur stdDeviation="0.125"/>
<feComposite in2="hardAlpha" operator="arithmetic" k2="-1" k3="1"/>
<feColorMatrix type="matrix" values="0 0 0 0 0.67451 0 0 0 0 0.796078 0 0 0 0 0.94902 0 0 0 1 0"/>
<feBlend mode="normal" in2="shape" result="effect1_innerShadow_4002_2175"/>
</filter>
<filter id="filter4_i_4002_2175" x="23.1365" y="24.4314" width="4.46787" height="5.55625" filterUnits="userSpaceOnUse" color-interpolation-filters="sRGB">
<feFlood flood-opacity="0" result="BackgroundImageFix"/>
<feBlend mode="normal" in="SourceGraphic" in2="BackgroundImageFix" result="shape"/>
<feColorMatrix in="SourceAlpha" type="matrix" values="0 0 0 0 0 0 0 0 0 0 0 0 0 0 0 0 0 0 127 0" result="hardAlpha"/>
<feOffset dx="0.15" dy="-0.15"/>
<feGaussianBlur stdDeviation="0.5"/>
<feComposite in2="hardAlpha" operator="arithmetic" k2="-1" k3="1"/>
<feColorMatrix type="matrix" values="0 0 0 0 0.658824 0 0 0 0 0.443137 0 0 0 0 0.411765 0 0 0 1 0"/>
<feBlend mode="normal" in2="shape" result="effect1_innerShadow_4002_2175"/>
</filter>
<filter id="filter5_f_4002_2175" x="23.604" y="25.8398" width="2.09688" height="0.300098" filterUnits="userSpaceOnUse" color-interpolation-filters="sRGB">
<feFlood flood-opacity="0" result="BackgroundImageFix"/>
<feBlend mode="normal" in="SourceGraphic" in2="BackgroundImageFix" result="shape"/>
<feGaussianBlur stdDeviation="0.05" result="effect1_foregroundBlur_4002_2175"/>
</filter>
<filter id="filter6_f_4002_2175" x="23.5259" y="27.1445" width="2.09688" height="0.300098" filterUnits="userSpaceOnUse" color-interpolation-filters="sRGB">
<feFlood flood-opacity="0" result="BackgroundImageFix"/>
<feBlend mode="normal" in="SourceGraphic" in2="BackgroundImageFix" result="shape"/>
<feGaussianBlur stdDeviation="0.05" result="effect1_foregroundBlur_4002_2175"/>
</filter>
<filter id="filter7_f_4002_2175" x="23.604" y="28.4492" width="2.09688" height="0.300098" filterUnits="userSpaceOnUse" color-interpolation-filters="sRGB">
<feFlood flood-opacity="0" result="BackgroundImageFix"/>
<feBlend mode="normal" in="SourceGraphic" in2="BackgroundImageFix" result="shape"/>
<feGaussianBlur stdDeviation="0.05" result="effect1_foregroundBlur_4002_2175"/>
</filter>
<filter id="filter8_ii_4002_2175" x="10.3625" y="4.6886" width="10.9704" height="12.5417" filterUnits="userSpaceOnUse" color-interpolation-filters="sRGB">
<feFlood flood-opacity="0" result="BackgroundImageFix"/>
<feBlend mode="normal" in="SourceGraphic" in2="BackgroundImageFix" result="shape"/>
<feColorMatrix in="SourceAlpha" type="matrix" values="0 0 0 0 0 0 0 0 0 0 0 0 0 0 0 0 0 0 127 0" result="hardAlpha"/>
<feOffset dx="0.75"/>
<feGaussianBlur stdDeviation="0.6"/>
<feComposite in2="hardAlpha" operator="arithmetic" k2="-1" k3="1"/>
<feColorMatrix type="matrix" values="0 0 0 0 0.843137 0 0 0 0 0.611765 0 0 0 0 0.498039 0 0 0 1 0"/>
<feBlend mode="normal" in2="shape" result="effect1_innerShadow_4002_2175"/>
<feColorMatrix in="SourceAlpha" type="matrix" values="0 0 0 0 0 0 0 0 0 0 0 0 0 0 0 0 0 0 127 0" result="hardAlpha"/>
<feOffset dy="0.2"/>
<feGaussianBlur stdDeviation="0.375"/>
<feComposite in2="hardAlpha" operator="arithmetic" k2="-1" k3="1"/>
<feColorMatrix type="matrix" values="0 0 0 0 0.776471 0 0 0 0 0.54902 0 0 0 0 0.423529 0 0 0 1 0"/>
<feBlend mode="normal" in2="effect1_innerShadow_4002_2175" result="effect2_innerShadow_4002_2175"/>
</filter>
<filter id="filter9_f_4002_2175" x="13.2798" y="9.2655" width="3.75435" height="4.82361" filterUnits="userSpaceOnUse" color-interpolation-filters="sRGB">
<feFlood flood-opacity="0" result="BackgroundImageFix"/>
<feBlend mode="normal" in="SourceGraphic" in2="BackgroundImageFix" result="shape"/>
<feGaussianBlur stdDeviation="0.5" result="effect1_foregroundBlur_4002_2175"/>
</filter>
<filter id="filter10_f_4002_2175" x="14.3871" y="9.89329" width="2.07727" height="3.10002" filterUnits="userSpaceOnUse" color-interpolation-filters="sRGB">
<feFlood flood-opacity="0" result="BackgroundImageFix"/>
<feBlend mode="normal" in="SourceGraphic" in2="BackgroundImageFix" result="shape"/>
<feGaussianBlur stdDeviation="0.05" result="effect1_foregroundBlur_4002_2175"/>
</filter>
<filter id="filter11_f_4002_2175" x="13.5665" y="13.1599" width="3.71845" height="1.57292" filterUnits="userSpaceOnUse" color-interpolation-filters="sRGB">
<feFlood flood-opacity="0" result="BackgroundImageFix"/>
<feBlend mode="normal" in="SourceGraphic" in2="BackgroundImageFix" result="shape"/>
<feGaussianBlur stdDeviation="0.05" result="effect1_foregroundBlur_4002_2175"/>
</filter>
<filter id="filter12_ii_4002_2175" x="8.98926" y="1.51233" width="12.8727" height="8.35657" filterUnits="userSpaceOnUse" color-interpolation-filters="sRGB">
<feFlood flood-opacity="0" result="BackgroundImageFix"/>
<feBlend mode="normal" in="SourceGraphic" in2="BackgroundImageFix" result="shape"/>
<feColorMatrix in="SourceAlpha" type="matrix" values="0 0 0 0 0 0 0 0 0 0 0 0 0 0 0 0 0 0 127 0" result="hardAlpha"/>
<feOffset dy="-0.5"/>
<feGaussianBlur stdDeviation="0.625"/>
<feComposite in2="hardAlpha" operator="arithmetic" k2="-1" k3="1"/>
<feColorMatrix type="matrix" values="0 0 0 0 0.913725 0 0 0 0 0.733333 0 0 0 0 0.592157 0 0 0 1 0"/>
<feBlend mode="normal" in2="shape" result="effect1_innerShadow_4002_2175"/>
<feColorMatrix in="SourceAlpha" type="matrix" values="0 0 0 0 0 0 0 0 0 0 0 0 0 0 0 0 0 0 127 0" result="hardAlpha"/>
<feOffset dy="-0.2"/>
<feGaussianBlur stdDeviation="0.2"/>
<feComposite in2="hardAlpha" operator="arithmetic" k2="-1" k3="1"/>
<feColorMatrix type="matrix" values="0 0 0 0 0.87451 0 0 0 0 0.678431 0 0 0 0 0.556863 0 0 0 1 0"/>
<feBlend mode="normal" in2="effect1_innerShadow_4002_2175" result="effect2_innerShadow_4002_2175"/>
</filter>
<filter id="filter13_i_4002_2175" x="16.9814" y="7.32014" width="2.33886" height="1.19048" filterUnits="userSpaceOnUse" color-interpolation-filters="sRGB">
<feFlood flood-opacity="0" result="BackgroundImageFix"/>
<feBlend mode="normal" in="SourceGraphic" in2="BackgroundImageFix" result="shape"/>
<feColorMatrix in="SourceAlpha" type="matrix" values="0 0 0 0 0 0 0 0 0 0 0 0 0 0 0 0 0 0 127 0" result="hardAlpha"/>
<feOffset dx="0.1" dy="-0.2"/>
<feGaussianBlur stdDeviation="0.125"/>
<feComposite in2="hardAlpha" operator="arithmetic" k2="-1" k3="1"/>
<feColorMatrix type="matrix" values="0 0 0 0 0.470588 0 0 0 0 0.270588 0 0 0 0 0.160784 0 0 0 1 0"/>
<feBlend mode="normal" in2="shape" result="effect1_innerShadow_4002_2175"/>
</filter>
<filter id="filter14_i_4002_2175" x="11.7251" y="7.33479" width="2.33888" height="1.17571" filterUnits="userSpaceOnUse" color-interpolation-filters="sRGB">
<feFlood flood-opacity="0" result="BackgroundImageFix"/>
<feBlend mode="normal" in="SourceGraphic" in2="BackgroundImageFix" result="shape"/>
<feColorMatrix in="SourceAlpha" type="matrix" values="0 0 0 0 0 0 0 0 0 0 0 0 0 0 0 0 0 0 127 0" result="hardAlpha"/>
<feOffset dx="0.1" dy="-0.2"/>
<feGaussianBlur stdDeviation="0.125"/>
<feComposite in2="hardAlpha" operator="arithmetic" k2="-1" k3="1"/>
<feColorMatrix type="matrix" values="0 0 0 0 0.470588 0 0 0 0 0.270588 0 0 0 0 0.160784 0 0 0 1 0"/>
<feBlend mode="normal" in2="shape" result="effect1_innerShadow_4002_2175"/>
</filter>
<filter id="filter15_f_4002_2175" x="9.34473" y="2.6012" width="6.58437" height="5.99182" filterUnits="userSpaceOnUse" color-interpolation-filters="sRGB">
<feFlood flood-opacity="0" result="BackgroundImageFix"/>
<feBlend mode="normal" in="SourceGraphic" in2="BackgroundImageFix" result="shape"/>
<feGaussianBlur stdDeviation="0.125" result="effect1_foregroundBlur_4002_2175"/>
</filter>
<filter id="filter16_f_4002_2175" x="15.2666" y="3.13025" width="6.3615" height="5.73584" filterUnits="userSpaceOnUse" color-interpolation-filters="sRGB">
<feFlood flood-opacity="0" result="BackgroundImageFix"/>
<feBlend mode="normal" in="SourceGraphic" in2="BackgroundImageFix" result="shape"/>
<feGaussianBlur stdDeviation="0.125" result="effect1_foregroundBlur_4002_2175"/>
</filter>
<filter id="filter17_f_4002_2175" x="16.8736" y="9.76902" width="0.786838" height="0.696338" filterUnits="userSpaceOnUse" color-interpolation-filters="sRGB">
<feFlood flood-opacity="0" result="BackgroundImageFix"/>
<feBlend mode="normal" in="SourceGraphic" in2="BackgroundImageFix" result="shape"/>
<feGaussianBlur stdDeviation="0.05" result="effect1_foregroundBlur_4002_2175"/>
</filter>
<filter id="filter18_f_4002_2175" x="17.7135" y="9.84407" width="0.891226" height="0.913428" filterUnits="userSpaceOnUse" color-interpolation-filters="sRGB">
<feFlood flood-opacity="0" result="BackgroundImageFix"/>
<feBlend mode="normal" in="SourceGraphic" in2="BackgroundImageFix" result="shape"/>
<feGaussianBlur stdDeviation="0.1" result="effect1_foregroundBlur_4002_2175"/>
</filter>
<filter id="filter19_f_4002_2175" x="13.2707" y="9.78059" width="0.986334" height="1.04026" filterUnits="userSpaceOnUse" color-interpolation-filters="sRGB">
<feFlood flood-opacity="0" result="BackgroundImageFix"/>
<feBlend mode="normal" in="SourceGraphic" in2="BackgroundImageFix" result="shape"/>
<feGaussianBlur stdDeviation="0.1" result="effect1_foregroundBlur_4002_2175"/>
</filter>
<filter id="filter20_f_4002_2175" x="12.5158" y="9.76084" width="0.913074" height="0.704517" filterUnits="userSpaceOnUse" color-interpolation-filters="sRGB">
<feFlood flood-opacity="0" result="BackgroundImageFix"/>
<feBlend mode="normal" in="SourceGraphic" in2="BackgroundImageFix" result="shape"/>
<feGaussianBlur stdDeviation="0.05" result="effect1_foregroundBlur_4002_2175"/>
</filter>
<filter id="filter21_f_4002_2175" x="9.39294" y="9.41174" width="1.3289" height="2.37939" filterUnits="userSpaceOnUse" color-interpolation-filters="sRGB">
<feFlood flood-opacity="0" result="BackgroundImageFix"/>
<feBlend mode="normal" in="SourceGraphic" in2="BackgroundImageFix" result="shape"/>
<feGaussianBlur stdDeviation="0.125" result="effect1_foregroundBlur_4002_2175"/>
</filter>
<filter id="filter22_f_4002_2175" x="20.1376" y="9.39612" width="1.44653" height="2.40332" filterUnits="userSpaceOnUse" color-interpolation-filters="sRGB">
<feFlood flood-opacity="0" result="BackgroundImageFix"/>
<feBlend mode="normal" in="SourceGraphic" in2="BackgroundImageFix" result="shape"/>
<feGaussianBlur stdDeviation="0.125" result="effect1_foregroundBlur_4002_2175"/>
</filter>
<filter id="filter23_f_4002_2175" x="11.794" y="7.55947" width="2.10521" height="0.860303" filterUnits="userSpaceOnUse" color-interpolation-filters="sRGB">
<feFlood flood-opacity="0" result="BackgroundImageFix"/>
<feBlend mode="normal" in="SourceGraphic" in2="BackgroundImageFix" result="shape"/>
<feGaussianBlur stdDeviation="0.075" result="effect1_foregroundBlur_4002_2175"/>
</filter>
<filter id="filter24_f_4002_2175" x="17.0731" y="7.50686" width="2.10521" height="0.866772" filterUnits="userSpaceOnUse" color-interpolation-filters="sRGB">
<feFlood flood-opacity="0" result="BackgroundImageFix"/>
<feBlend mode="normal" in="SourceGraphic" in2="BackgroundImageFix" result="shape"/>
<feGaussianBlur stdDeviation="0.075" result="effect1_foregroundBlur_4002_2175"/>
</filter>
<filter id="filter25_i_4002_2175" x="10.0614" y="6.46423" width="10.7286" height="5.62371" filterUnits="userSpaceOnUse" color-interpolation-filters="sRGB">
<feFlood flood-opacity="0" result="BackgroundImageFix"/>
<feBlend mode="normal" in="SourceGraphic" in2="BackgroundImageFix" result="shape"/>
<feColorMatrix in="SourceAlpha" type="matrix" values="0 0 0 0 0 0 0 0 0 0 0 0 0 0 0 0 0 0 127 0" result="hardAlpha"/>
<feOffset dy="0.4"/>
<feGaussianBlur stdDeviation="0.1"/>
<feComposite in2="hardAlpha" operator="arithmetic" k2="-1" k3="1"/>
<feColorMatrix type="matrix" values="0 0 0 0 0.235294 0 0 0 0 0.239216 0 0 0 0 0.231373 0 0 0 1 0"/>
<feBlend mode="normal" in2="shape" result="effect1_innerShadow_4002_2175"/>
</filter>
<filter id="filter26_ii_4002_2175" x="9.61135" y="5.96418" width="11.4786" height="6.32368" filterUnits="userSpaceOnUse" color-interpolation-filters="sRGB">
<feFlood flood-opacity="0" result="BackgroundImageFix"/>
<feBlend mode="normal" in="SourceGraphic" in2="BackgroundImageFix" result="shape"/>
<feColorMatrix in="SourceAlpha" type="matrix" values="0 0 0 0 0 0 0 0 0 0 0 0 0 0 0 0 0 0 127 0" result="hardAlpha"/>
<feOffset dy="-0.2"/>
<feGaussianBlur stdDeviation="0.1"/>
<feComposite in2="hardAlpha" operator="arithmetic" k2="-1" k3="1"/>
<feColorMatrix type="matrix" values="0 0 0 0 0.541176 0 0 0 0 0.494118 0 0 0 0 0.592157 0 0 0 1 0"/>
<feBlend mode="normal" in2="shape" result="effect1_innerShadow_4002_2175"/>
<feColorMatrix in="SourceAlpha" type="matrix" values="0 0 0 0 0 0 0 0 0 0 0 0 0 0 0 0 0 0 127 0" result="hardAlpha"/>
<feOffset dx="-0.15" dy="0.1"/>
<feGaussianBlur stdDeviation="0.125"/>
<feComposite in2="hardAlpha" operator="arithmetic" k2="-1" k3="1"/>
<feColorMatrix type="matrix" values="0 0 0 0 0.760784 0 0 0 0 0.752941 0 0 0 0 0.776471 0 0 0 1 0"/>
<feBlend mode="normal" in2="effect1_innerShadow_4002_2175" result="effect2_innerShadow_4002_2175"/>
</filter>
<linearGradient id="paint0_linear_4002_2175" x1="8.22955" y1="15.3265" x2="22.6589" y2="15.3265" gradientUnits="userSpaceOnUse">
<stop offset="0.00558659" stop-color="#CCCCCC"/>
<stop offset="1" stop-color="#E6E6E6"/>
</linearGradient>
<linearGradient id="paint1_linear_4002_2175" x1="8.22955" y1="15.2961" x2="22.6589" y2="15.2961" gradientUnits="userSpaceOnUse">
<stop offset="0.00558659" stop-color="#CCCCCC"/>
<stop offset="1" stop-color="#E6E6E6"/>
</linearGradient>
<radialGradient id="paint2_radial_4002_2175" cx="0" cy="0" r="1" gradientUnits="userSpaceOnUse" gradientTransform="translate(15.4458 18.3161) rotate(90) scale(5.8125 3.29991)">
<stop stop-color="#E07221"/>
<stop offset="1" stop-color="#B64118"/>
</radialGradient>
<radialGradient id="paint3_radial_4002_2175" cx="0" cy="0" r="1" gradientUnits="userSpaceOnUse" gradientTransform="translate(15.4458 30.3161) rotate(-90) scale(4.65625 6.93357)">
<stop stop-color="#ED5030"/>
<stop offset="1" stop-color="#ED5030" stop-opacity="0"/>
</radialGradient>
<radialGradient id="paint4_radial_4002_2175" cx="0" cy="0" r="1" gradientUnits="userSpaceOnUse" gradientTransform="translate(13.3334 26.9723) rotate(161.686) scale(4.67425 7.57955)">
<stop stop-color="#E1D2F9"/>
<stop offset="1" stop-color="#CDC1DB"/>
</radialGradient>
<linearGradient id="paint5_linear_4002_2175" x1="11.2391" y1="30.4098" x2="11.2391" y2="29.0973" gradientUnits="userSpaceOnUse">
<stop stop-color="#C7AAE2"/>
<stop offset="1" stop-color="#C7AAE2" stop-opacity="0"/>
</linearGradient>
<linearGradient id="paint6_linear_4002_2175" x1="15.1771" y1="29.0973" x2="14.2084" y2="29.0973" gradientUnits="userSpaceOnUse">
<stop offset="0.129033" stop-color="#BE9BB3"/>
<stop offset="1" stop-color="#E2D2F8" stop-opacity="0"/>
</linearGradient>
<radialGradient id="paint7_radial_4002_2175" cx="0" cy="0" r="1" gradientUnits="userSpaceOnUse" gradientTransform="translate(9.30212 17.4098) rotate(90) scale(3.375 2.57376)">
<stop stop-color="#BDBABB"/>
<stop offset="1" stop-color="#BDBABB" stop-opacity="0"/>
</radialGradient>
<radialGradient id="paint8_radial_4002_2175" cx="0" cy="0" r="1" gradientUnits="userSpaceOnUse" gradientTransform="translate(21.2065 30.2848) rotate(-90) scale(7.15073 2.71782)">
<stop stop-color="#BEA0DC"/>
<stop offset="1" stop-color="#CCB8E5"/>
</radialGradient>
<radialGradient id="paint9_radial_4002_2175" cx="0" cy="0" r="1" gradientUnits="userSpaceOnUse" gradientTransform="translate(22.7709 18.5348) rotate(90) scale(9.15625 3.9375)">
<stop stop-color="#F6F4FF"/>
<stop offset="1" stop-color="#D7CCEA" stop-opacity="0"/>
</radialGradient>
<linearGradient id="paint10_linear_4002_2175" x1="19.7396" y1="30.4098" x2="19.7396" y2="29.0973" gradientUnits="userSpaceOnUse">
<stop stop-color="#C7AAE2"/>
<stop offset="1" stop-color="#C7AAE2" stop-opacity="0"/>
</linearGradient>
<linearGradient id="paint11_linear_4002_2175" x1="15.8021" y1="27.9723" x2="16.5052" y2="27.9723" gradientUnits="userSpaceOnUse">
<stop stop-color="#B28598"/>
<stop offset="1" stop-color="#D1BEE7" stop-opacity="0"/>
</linearGradient>
<linearGradient id="paint12_linear_4002_2175" x1="10.6771" y1="17.9411" x2="12.8958" y2="24.6286" gradientUnits="userSpaceOnUse">
<stop stop-color="#B0A6B5"/>
<stop offset="1" stop-color="#BFA7D3"/>
</linearGradient>
<radialGradient id="paint13_radial_4002_2175" cx="0" cy="0" r="1" gradientUnits="userSpaceOnUse" gradientTransform="translate(14.9988 21.9098) rotate(160.604) scale(3.95221 8.12059)">
<stop stop-color="#FCEFFF"/>
<stop offset="1" stop-color="#E6D7E3"/>
</radialGradient>
<linearGradient id="paint14_linear_4002_2175" x1="20.4496" y1="18.97" x2="18.099" y2="23.6711" gradientUnits="userSpaceOnUse">
<stop stop-color="#C8C2CC"/>
<stop offset="1" stop-color="#C5B2DD"/>
</linearGradient>
<radialGradient id="paint15_radial_4002_2175" cx="0" cy="0" r="1" gradientUnits="userSpaceOnUse" gradientTransform="translate(22.4896 17.691) rotate(135.224) scale(5.27981 5.3213)">
<stop stop-color="#FFFBFF"/>
<stop offset="1" stop-color="#E6D2DE"/>
</radialGradient>
<radialGradient id="paint16_radial_4002_2175" cx="0" cy="0" r="1" gradientUnits="userSpaceOnUse" gradientTransform="translate(16.7396 26.2223) rotate(-64.1101) scale(8.30198 11.1931)">
<stop stop-color="#D8BBF3"/>
<stop offset="0.930076" stop-color="#D8BBF3" stop-opacity="0"/>
</radialGradient>
<radialGradient id="paint17_radial_4002_2175" cx="0" cy="0" r="1" gradientUnits="userSpaceOnUse" gradientTransform="translate(19.9427 15.9879) rotate(108.558) scale(2.30748 4.15047)">
<stop offset="0.0725389" stop-color="#CEC5CA"/>
<stop offset="1" stop-color="#ECE2E9" stop-opacity="0"/>
</radialGradient>
<linearGradient id="paint18_linear_4002_2175" x1="18.9584" y1="24.0973" x2="17.5521" y2="22.5973" gradientUnits="userSpaceOnUse">
<stop stop-color="#D2B4ED"/>
<stop offset="1" stop-color="#E2D2EE" stop-opacity="0"/>
</linearGradient>
<linearGradient id="paint19_linear_4002_2175" x1="17.1459" y1="18.8785" x2="17.974" y2="19.2223" gradientUnits="userSpaceOnUse">
<stop offset="0.0807772" stop-color="#C79F97"/>
<stop offset="1" stop-color="#E7D3DF" stop-opacity="0"/>
</linearGradient>
<radialGradient id="paint20_radial_4002_2175" cx="0" cy="0" r="1" gradientUnits="userSpaceOnUse" gradientTransform="translate(8.22565 26.112) rotate(-180) scale(2.95848 8.5991)">
<stop stop-color="#DDCEF1"/>
<stop offset="1" stop-color="#D6CBE2"/>
</radialGradient>
<linearGradient id="paint21_linear_4002_2175" x1="6.56721" y1="30.3522" x2="6.56721" y2="29.2185" gradientUnits="userSpaceOnUse">
<stop stop-color="#C7AAE2"/>
<stop offset="1" stop-color="#C7AAE2" stop-opacity="0"/>
</linearGradient>
<radialGradient id="paint22_radial_4002_2175" cx="0" cy="0" r="1" gradientUnits="userSpaceOnUse" gradientTransform="translate(10.0047 28.9679) rotate(-180) scale(7.51743 10.8202)">
<stop offset="0.65625" stop-color="#C4C1C3" stop-opacity="0"/>
<stop offset="1" stop-color="#C4C1C3"/>
</radialGradient>
<linearGradient id="paint23_linear_4002_2175" x1="8.37985" y1="29.3863" x2="7.93495" y2="29.3836" gradientUnits="userSpaceOnUse">
<stop offset="0.1747" stop-color="#BFA6DA"/>
<stop offset="1" stop-color="#C0A9D9" stop-opacity="0"/>
</linearGradient>
<radialGradient id="paint24_radial_4002_2175" cx="0" cy="0" r="1" gradientUnits="userSpaceOnUse" gradientTransform="translate(12.5522 16.066) rotate(109.374) scale(3.01445 3.41031)">
<stop offset="0.0578183" stop-color="#A27D98"/>
<stop offset="1" stop-color="#AA9FA6" stop-opacity="0"/>
</radialGradient>
<radialGradient id="paint25_radial_4002_2175" cx="0" cy="0" r="1" gradientUnits="userSpaceOnUse" gradientTransform="translate(24.1771 17.8786) rotate(88.0332) scale(12.1163 8.53047)">
<stop stop-color="#FAF8FE"/>
<stop offset="1" stop-color="#C6A5E0"/>
</radialGradient>
<linearGradient id="paint26_linear_4002_2175" x1="22.7528" y1="27.6598" x2="23.1615" y2="27.6442" gradientUnits="userSpaceOnUse">
<stop stop-color="#B59FC2"/>
<stop offset="1" stop-color="#B59FC2" stop-opacity="0"/>
</linearGradient>
<linearGradient id="paint27_linear_4002_2175" x1="8.22955" y1="15.3265" x2="22.6589" y2="15.3265" gradientUnits="userSpaceOnUse">
<stop offset="0.00558659" stop-color="#CCCCCC"/>
<stop offset="1" stop-color="#E6E6E6"/>
</linearGradient>
<linearGradient id="paint28_linear_4002_2175" x1="8.22955" y1="15.2961" x2="22.6589" y2="15.2961" gradientUnits="userSpaceOnUse">
<stop offset="0.00558659" stop-color="#CCCCCC"/>
<stop offset="1" stop-color="#E6E6E6"/>
</linearGradient>
<radialGradient id="paint29_radial_4002_2175" cx="0" cy="0" r="1" gradientUnits="userSpaceOnUse" gradientTransform="translate(15.4257 17.1717) rotate(90) scale(1.92264 3.05629)">
<stop stop-color="#C0737B"/>
<stop offset="1" stop-color="#A66955"/>
</radialGradient>
<radialGradient id="paint30_radial_4002_2175" cx="0" cy="0" r="1" gradientUnits="userSpaceOnUse" gradientTransform="translate(13.6663 16.7654) rotate(90) scale(1.45312 1.20313)">
<stop stop-color="#CD8472"/>
<stop offset="1" stop-color="#CD8472" stop-opacity="0"/>
</radialGradient>
<radialGradient id="paint31_radial_4002_2175" cx="0" cy="0" r="1" gradientUnits="userSpaceOnUse" gradientTransform="translate(27.8083 23.6202) rotate(145.655) scale(2.47007 2.42652)">
<stop offset="0.463759" stop-color="#DEAF8E"/>
<stop offset="1" stop-color="#B27959"/>
</radialGradient>
<radialGradient id="paint32_radial_4002_2175" cx="0" cy="0" r="1" gradientUnits="userSpaceOnUse" gradientTransform="translate(27.2058 23.4657) rotate(-37.3207) scale(1.01093 0.774966)">
<stop offset="0.131677" stop-color="#E6BEA1"/>
<stop offset="1" stop-color="#E6BEA1" stop-opacity="0"/>
</radialGradient>
<linearGradient id="paint33_linear_4002_2175" x1="23.8254" y1="20.8473" x2="26.5286" y2="20.8473" gradientUnits="userSpaceOnUse">
<stop offset="0.252755" stop-color="#A3D3FF"/>
<stop offset="0.772986" stop-color="#BFF0FF"/>
</linearGradient>
<linearGradient id="paint34_linear_4002_2175" x1="26.5286" y1="20.8317" x2="26.1805" y2="20.8317" gradientUnits="userSpaceOnUse">
<stop stop-color="#AEDCFF"/>
<stop offset="1" stop-color="#AEDCFF" stop-opacity="0"/>
</linearGradient>
<radialGradient id="paint35_radial_4002_2175" cx="0" cy="0" r="1" gradientUnits="userSpaceOnUse" gradientTransform="translate(25.5712 19.3785) rotate(90) scale(1.54688 0.394165)">
<stop stop-color="#BCEBFF"/>
<stop offset="1" stop-color="#BCEBFF" stop-opacity="0"/>
</radialGradient>
<radialGradient id="paint36_radial_4002_2175" cx="0" cy="0" r="1" gradientUnits="userSpaceOnUse" gradientTransform="translate(25.177 19.066) rotate(180) scale(2.91833 0.207411)">
<stop offset="0.496038" stop-color="#B8E0FF"/>
<stop offset="1" stop-color="#B8E0FF" stop-opacity="0"/>
</radialGradient>
<radialGradient id="paint37_radial_4002_2175" cx="0" cy="0" r="1" gradientUnits="userSpaceOnUse" gradientTransform="translate(27.0048 18.9176) rotate(152.501) scale(0.321478 0.273036)">
<stop stop-color="#D3FAFF"/>
<stop offset="1" stop-color="#D3FAFF" stop-opacity="0"/>
</radialGradient>
<radialGradient id="paint38_radial_4002_2175" cx="0" cy="0" r="1" gradientUnits="userSpaceOnUse" gradientTransform="translate(23.4071 19.277) rotate(143.531) scale(0.223443 0.148325)">
<stop stop-color="#CAEDFF"/>
<stop offset="1" stop-color="#CAEDFF" stop-opacity="0"/>
</radialGradient>
<linearGradient id="paint39_linear_4002_2175" x1="26.5286" y1="23.1598" x2="25.177" y2="23.1598" gradientUnits="userSpaceOnUse">
<stop offset="0.477116" stop-color="#CCFF86"/>
<stop offset="1" stop-color="#83B651"/>
</linearGradient>
<linearGradient id="paint40_linear_4002_2175" x1="26.5286" y1="23.3082" x2="26.1287" y2="23.3082" gradientUnits="userSpaceOnUse">
<stop stop-color="#C0F07E"/>
<stop offset="1" stop-color="#C0F07E" stop-opacity="0"/>
</linearGradient>
<linearGradient id="paint41_linear_4002_2175" x1="23.6962" y1="23.3082" x2="24.2274" y2="23.3082" gradientUnits="userSpaceOnUse">
<stop stop-color="#A4C098"/>
<stop offset="1" stop-color="#A4C098" stop-opacity="0"/>
</linearGradient>
<radialGradient id="paint42_radial_4002_2175" cx="0" cy="0" r="1" gradientUnits="userSpaceOnUse" gradientTransform="translate(26.2274 21.2223) rotate(90) scale(1.34375 0.515625)">
<stop stop-color="#E6FF81"/>
<stop offset="1" stop-color="#E6FF81" stop-opacity="0"/>
</radialGradient>
<linearGradient id="paint43_linear_4002_2175" x1="24.7821" y1="21.8004" x2="23.8915" y2="21.8004" gradientUnits="userSpaceOnUse">
<stop stop-color="#0E7268"/>
<stop offset="1" stop-color="#29615D"/>
</linearGradient>
<linearGradient id="paint44_linear_4002_2175" x1="24.7821" y1="23.5817" x2="23.8915" y2="23.5817" gradientUnits="userSpaceOnUse">
<stop stop-color="#0E7268"/>
<stop offset="1" stop-color="#29615D"/>
</linearGradient>
<linearGradient id="paint45_linear_4002_2175" x1="27.1645" y1="28.0502" x2="23.1365" y2="28.0502" gradientUnits="userSpaceOnUse">
<stop offset="0.145558" stop-color="#F3C29F"/>
<stop offset="0.861163" stop-color="#C68B80"/>
</linearGradient>
<radialGradient id="paint46_radial_4002_2175" cx="0" cy="0" r="1" gradientUnits="userSpaceOnUse" gradientTransform="translate(25.5736 25.2923) rotate(90) scale(0.801703 1.35439)">
<stop offset="0.106061" stop-color="#F8C8AD"/>
<stop offset="1" stop-color="#F2C49E" stop-opacity="0"/>
</radialGradient>
<radialGradient id="paint47_radial_4002_2175" cx="0" cy="0" r="1" gradientUnits="userSpaceOnUse" gradientTransform="translate(25.5736 26.5867) rotate(90) scale(0.859375 1.45182)">
<stop offset="0.109091" stop-color="#F8C8AD"/>
<stop offset="1" stop-color="#F2C49E" stop-opacity="0"/>
</radialGradient>
<radialGradient id="paint48_radial_4002_2175" cx="0" cy="0" r="1" gradientUnits="userSpaceOnUse" gradientTransform="translate(25.5736 27.8367) rotate(90) scale(0.71875 1.21425)">
<stop offset="0.109091" stop-color="#F8C8AD"/>
<stop offset="1" stop-color="#F2C49E" stop-opacity="0"/>
</radialGradient>
<radialGradient id="paint49_radial_4002_2175" cx="0" cy="0" r="1" gradientUnits="userSpaceOnUse" gradientTransform="translate(25.5736 29.1883) rotate(90) scale(0.799377 1.7273)">
<stop offset="0.186046" stop-color="#F8C8AD"/>
<stop offset="1" stop-color="#F2C49E" stop-opacity="0"/>
</radialGradient>
<linearGradient id="paint50_linear_4002_2175" x1="23.754" y1="26.068" x2="25.4633" y2="26.068" gradientUnits="userSpaceOnUse">
<stop stop-color="#AE7759"/>
<stop offset="1" stop-color="#C08666" stop-opacity="0"/>
</linearGradient>
<linearGradient id="paint51_linear_4002_2175" x1="23.6759" y1="27.3727" x2="25.3851" y2="27.3727" gradientUnits="userSpaceOnUse">
<stop stop-color="#AE7759"/>
<stop offset="1" stop-color="#C08666" stop-opacity="0"/>
</linearGradient>
<linearGradient id="paint52_linear_4002_2175" x1="23.754" y1="28.6774" x2="25.4633" y2="28.6774" gradientUnits="userSpaceOnUse">
<stop stop-color="#AE7759"/>
<stop offset="1" stop-color="#C08666" stop-opacity="0"/>
</linearGradient>
<radialGradient id="paint53_radial_4002_2175" cx="0" cy="0" r="1" gradientUnits="userSpaceOnUse" gradientTransform="translate(20.8845 11.6353) rotate(99.7817) scale(3.58661 4.26061)">
<stop offset="0.28005" stop-color="#F7BF94"/>
<stop offset="1" stop-color="#DA8F78"/>
</radialGradient>
<radialGradient id="paint54_radial_4002_2175" cx="0" cy="0" r="1" gradientUnits="userSpaceOnUse" gradientTransform="translate(9.87769 11.9182) rotate(64.5923) scale(2.96898 1.34954)">
<stop stop-color="#F8BF95"/>
<stop offset="1" stop-color="#DC998E"/>
</radialGradient>
<radialGradient id="paint55_radial_4002_2175" cx="0" cy="0" r="1" gradientUnits="userSpaceOnUse" gradientTransform="translate(10.6789 11.7135) rotate(81.4572) scale(1.20702 1.05881)">
<stop offset="0.263377" stop-color="#D79B77"/>
<stop offset="1" stop-color="#D79B77" stop-opacity="0"/>
</radialGradient>
<radialGradient id="paint56_radial_4002_2175" cx="0" cy="0" r="1" gradientUnits="userSpaceOnUse" gradientTransform="translate(9.87769 11.9182) rotate(64.5923) scale(2.96898 1.34954)">
<stop stop-color="#F8BF95"/>
<stop offset="1" stop-color="#DC998E"/>
</radialGradient>
<radialGradient id="paint57_radial_4002_2175" cx="0" cy="0" r="1" gradientUnits="userSpaceOnUse" gradientTransform="translate(10.6789 11.7135) rotate(81.4572) scale(1.20702 1.05881)">
<stop offset="0.263377" stop-color="#D79B77"/>
<stop offset="1" stop-color="#D79B77" stop-opacity="0"/>
</radialGradient>
<radialGradient id="paint58_radial_4002_2175" cx="0" cy="0" r="1" gradientUnits="userSpaceOnUse" gradientTransform="translate(18.2335 10.8594) rotate(180) scale(5.22785 9.24802)">
<stop stop-color="#FFC59F"/>
<stop offset="1" stop-color="#C8917D"/>
</radialGradient>
<linearGradient id="paint59_linear_4002_2175" x1="20.5829" y1="12.5449" x2="16.2303" y2="12.5449" gradientUnits="userSpaceOnUse">
<stop stop-color="#F7C29D"/>
<stop offset="1" stop-color="#F7C29D" stop-opacity="0"/>
</linearGradient>
<radialGradient id="paint60_radial_4002_2175" cx="0" cy="0" r="1" gradientUnits="userSpaceOnUse" gradientTransform="translate(15.8643 4.6886) rotate(90) scale(13.2204 10.9481)">
<stop offset="0.7786" stop-color="#C7868B" stop-opacity="0"/>
<stop offset="0.957064" stop-color="#BD718F"/>
</radialGradient>
<radialGradient id="paint61_radial_4002_2175" cx="0" cy="0" r="1" gradientUnits="userSpaceOnUse" gradientTransform="translate(17.8729 9.73912) rotate(-90) scale(1.34091 1.65937)">
<stop offset="0.325" stop-color="#E4A38D"/>
<stop offset="1" stop-color="#E4A38D" stop-opacity="0"/>
</radialGradient>
<radialGradient id="paint62_radial_4002_2175" cx="0" cy="0" r="1" gradientUnits="userSpaceOnUse" gradientTransform="translate(13.1875 9.60218) rotate(-93.0123) scale(1.10493 1.20242)">
<stop offset="0.377617" stop-color="#C2847C"/>
<stop offset="1" stop-color="#C2847C" stop-opacity="0"/>
</radialGradient>
<radialGradient id="paint63_radial_4002_2175" cx="0" cy="0" r="1" gradientUnits="userSpaceOnUse" gradientTransform="translate(10.5449 11.2441) scale(1.20682 6.13397)">
<stop stop-color="#DBA085"/>
<stop offset="1" stop-color="#DBA085" stop-opacity="0"/>
</radialGradient>
<radialGradient id="paint64_radial_4002_2175" cx="0" cy="0" r="1" gradientUnits="userSpaceOnUse" gradientTransform="translate(9.57276 7.85827) rotate(-54.4126) scale(4.49316 1.01771)">
<stop offset="0.450932" stop-color="#B67459"/>
<stop offset="1" stop-color="#B67459" stop-opacity="0"/>
</radialGradient>
<radialGradient id="paint65_radial_4002_2175" cx="0" cy="0" r="1" gradientUnits="userSpaceOnUse" gradientTransform="translate(15.2716 14.9316) rotate(-103.259) scale(10.5235 11.5919)">
<stop offset="0.92388" stop-color="#C17F5F" stop-opacity="0"/>
<stop offset="1" stop-color="#C17F5F"/>
</radialGradient>
<radialGradient id="paint66_radial_4002_2175" cx="0" cy="0" r="1" gradientUnits="userSpaceOnUse" gradientTransform="translate(17.3835 5.47817) rotate(19.4155) scale(2.16818 1.30067)">
<stop offset="0.258114" stop-color="#C17F5F"/>
<stop offset="1" stop-color="#C17F5F" stop-opacity="0"/>
</radialGradient>
<linearGradient id="paint67_linear_4002_2175" x1="15.4257" y1="11.8421" x2="16.2805" y2="11.8421" gradientUnits="userSpaceOnUse">
<stop stop-color="#E1AA8C"/>
<stop offset="1" stop-color="#FECAA8"/>
</linearGradient>
<linearGradient id="paint68_linear_4002_2175" x1="14.353" y1="11.6865" x2="15.427" y2="11.7458" gradientUnits="userSpaceOnUse">
<stop stop-color="#D29879" stop-opacity="0.915033"/>
<stop offset="0.203125" stop-color="#D29879"/>
<stop offset="1" stop-color="#D29879" stop-opacity="0"/>
</linearGradient>
<linearGradient id="paint69_linear_4002_2175" x1="15.4257" y1="12.2408" x2="15.4257" y2="13.0927" gradientUnits="userSpaceOnUse">
<stop stop-color="#CB8685" stop-opacity="0"/>
<stop offset="0.844655" stop-color="#CB8685"/>
</linearGradient>
<linearGradient id="paint70_linear_4002_2175" x1="15.4257" y1="9.99329" x2="15.4257" y2="10.4127" gradientUnits="userSpaceOnUse">
<stop stop-color="#E0A78C"/>
<stop offset="1" stop-color="#E0A78C" stop-opacity="0"/>
</linearGradient>
<radialGradient id="paint71_radial_4002_2175" cx="0" cy="0" r="1" gradientUnits="userSpaceOnUse" gradientTransform="translate(14.2989 14.1487) rotate(-60.732) scale(0.710095 2.0664)">
<stop stop-color="#D0978E"/>
<stop offset="1" stop-color="#D0978E" stop-opacity="0"/>
</radialGradient>
<radialGradient id="paint72_radial_4002_2175" cx="0" cy="0" r="1" gradientUnits="userSpaceOnUse" gradientTransform="translate(15.4257 14.399) rotate(-90) scale(0.720737 2.89971)">
<stop stop-color="#89024E"/>
<stop offset="1" stop-color="#87004D"/>
</radialGradient>
<linearGradient id="paint73_linear_4002_2175" x1="20.7892" y1="5.19698" x2="10.6654" y2="5.19698" gradientUnits="userSpaceOnUse">
<stop stop-color="#FFF6B9"/>
<stop offset="1" stop-color="#E7C991"/>
</linearGradient>
<radialGradient id="paint74_radial_4002_2175" cx="0" cy="0" r="1" gradientUnits="userSpaceOnUse" gradientTransform="translate(10.1961 9.27764) rotate(-90) scale(3.63266 6.43635)">
<stop stop-color="#E7B286"/>
<stop offset="1" stop-color="#E7B286" stop-opacity="0"/>
</radialGradient>
<radialGradient id="paint75_radial_4002_2175" cx="0" cy="0" r="1" gradientUnits="userSpaceOnUse" gradientTransform="translate(20.2864 9.27764) rotate(-90) scale(3.63266 6.43635)">
<stop stop-color="#F6CB9C"/>
<stop offset="1" stop-color="#F6CB9C" stop-opacity="0"/>
</radialGradient>
<radialGradient id="paint76_radial_4002_2175" cx="0" cy="0" r="1" gradientUnits="userSpaceOnUse" gradientTransform="translate(19.5321 3.00125) rotate(-159.121) scale(3.48023 1.85345)">
<stop stop-color="#FFFFC1"/>
<stop offset="1" stop-color="#FFFFC1" stop-opacity="0"/>
</radialGradient>
<radialGradient id="paint77_radial_4002_2175" cx="0" cy="0" r="1" gradientUnits="userSpaceOnUse" gradientTransform="translate(14.5205 1.40892) rotate(58.4652) scale(1.73056 4.00717)">
<stop offset="0.286771" stop-color="#DDCA94"/>
<stop offset="1" stop-color="#DDCA94" stop-opacity="0"/>
</radialGradient>
<radialGradient id="paint78_radial_4002_2175" cx="0" cy="0" r="1" gradientUnits="userSpaceOnUse" gradientTransform="translate(15.6791 2.8512) rotate(160.16) scale(4.04714 1.12642)">
<stop stop-color="#FFFCBE"/>
<stop offset="1" stop-color="#FFFCBE" stop-opacity="0"/>
</radialGradient>
<radialGradient id="paint79_radial_4002_2175" cx="0" cy="0" r="1" gradientUnits="userSpaceOnUse" gradientTransform="translate(9.99491 7.6106) rotate(-57.7244) scale(6.02662 6.67688)">
<stop offset="0.0926981" stop-color="#D5A088"/>
<stop offset="0.233498" stop-color="#E4B99B"/>
<stop offset="1" stop-color="#E4B99B" stop-opacity="0"/>
</radialGradient>
<radialGradient id="paint80_radial_4002_2175" cx="0" cy="0" r="1" gradientUnits="userSpaceOnUse" gradientTransform="translate(19.0462 4.01148) rotate(13.3074) scale(3.47921 1.94581)">
<stop stop-color="#FFFFC7"/>
<stop offset="1" stop-color="#FFFFC7" stop-opacity="0"/>
</radialGradient>
<radialGradient id="paint81_radial_4002_2175" cx="0" cy="0" r="1" gradientUnits="userSpaceOnUse" gradientTransform="translate(20.5547 8.61613) rotate(-120.119) scale(4.28182 2.38794)">
<stop stop-color="#E3B593"/>
<stop offset="1" stop-color="#E4B78D" stop-opacity="0"/>
</radialGradient>
<radialGradient id="paint82_radial_4002_2175" cx="0" cy="0" r="1" gradientUnits="userSpaceOnUse" gradientTransform="translate(19.9345 8.31595) rotate(-120.695) scale(2.56111 1.83442)">
<stop offset="0.0574152" stop-color="#DFB086"/>
<stop offset="1" stop-color="#DFB086" stop-opacity="0"/>
</radialGradient>
<radialGradient id="paint83_radial_4002_2175" cx="0" cy="0" r="1" gradientUnits="userSpaceOnUse" gradientTransform="translate(20.2195 3.8947) rotate(166.509) scale(4.93459 5.33448)">
<stop offset="0.651546" stop-color="#EBCD93" stop-opacity="0"/>
<stop offset="1" stop-color="#EBCD93"/>
</radialGradient>
<radialGradient id="paint84_radial_4002_2175" cx="0" cy="0" r="1" gradientUnits="userSpaceOnUse" gradientTransform="translate(18.8785 3.76957) rotate(107.002) scale(0.401268 1.83454)">
<stop offset="0.461072" stop-color="#FFED93"/>
<stop offset="1" stop-color="#FFED93" stop-opacity="0"/>
</radialGradient>
<radialGradient id="paint85_radial_4002_2175" cx="0" cy="0" r="1" gradientUnits="userSpaceOnUse" gradientTransform="translate(18.8752 2.94735) rotate(117.979) scale(4.25147 10.9633)">
<stop offset="0.651289" stop-color="#E1B395" stop-opacity="0"/>
<stop offset="1" stop-color="#E1B395"/>
</radialGradient>
<radialGradient id="paint86_radial_4002_2175" cx="0" cy="0" r="1" gradientUnits="userSpaceOnUse" gradientTransform="translate(17.6077 10.2088) rotate(90) scale(0.81132 1.2905)">
<stop offset="0.80198" stop-color="#925C51"/>
<stop offset="1" stop-color="#694B43"/>
<stop offset="1" stop-color="#804D49"/>
<stop offset="1" stop-color="#85534D"/>
</radialGradient>
<radialGradient id="paint87_radial_4002_2175" cx="0" cy="0" r="1" gradientUnits="userSpaceOnUse" gradientTransform="translate(17.3796 10.293) rotate(-127.812) scale(0.378288 0.520812)">
<stop offset="0.765532" stop-color="#FFE6E2" stop-opacity="0"/>
<stop offset="0.966159" stop-color="#FFE6E2"/>
</radialGradient>
<linearGradient id="paint88_linear_4002_2175" x1="18.3857" y1="10.2627" x2="18.0719" y2="10.4561" gradientUnits="userSpaceOnUse">
<stop stop-color="#B4948D"/>
<stop offset="1" stop-color="#B4948D" stop-opacity="0"/>
</linearGradient>
<radialGradient id="paint89_radial_4002_2175" cx="0" cy="0" r="1" gradientUnits="userSpaceOnUse" gradientTransform="translate(13.2436 10.2086) rotate(90) scale(0.811362 1.29056)">
<stop offset="0.80198" stop-color="#925C51"/>
<stop offset="1" stop-color="#694B43"/>
<stop offset="1" stop-color="#804D49"/>
<stop offset="1" stop-color="#85534D"/>
</radialGradient>
<linearGradient id="paint90_linear_4002_2175" x1="13.9875" y1="10.2627" x2="13.6738" y2="10.456" gradientUnits="userSpaceOnUse">
<stop stop-color="#B4948D"/>
<stop offset="1" stop-color="#B4948D" stop-opacity="0"/>
</linearGradient>
<radialGradient id="paint91_radial_4002_2175" cx="0" cy="0" r="1" gradientUnits="userSpaceOnUse" gradientTransform="translate(12.9573 10.428) rotate(-90.897) scale(0.494145 0.593982)">
<stop offset="0.765532" stop-color="#FFE6E2" stop-opacity="0"/>
<stop offset="0.966159" stop-color="#FFE6E2"/>
</radialGradient>
<linearGradient id="paint92_linear_4002_2175" x1="21.8621" y1="10.0242" x2="20.6553" y2="12.2004" gradientUnits="userSpaceOnUse">
<stop stop-color="#F8C5A2"/>
<stop offset="1" stop-color="#E0A48C"/>
</linearGradient>
<radialGradient id="paint93_radial_4002_2175" cx="0" cy="0" r="1" gradientUnits="userSpaceOnUse" gradientTransform="translate(20.0435 9.95717) rotate(74.3475) scale(2.32967 2.22269)">
<stop offset="0.856273" stop-color="#CE8D79" stop-opacity="0"/>
<stop offset="1" stop-color="#CE8D79"/>
</radialGradient>
<radialGradient id="paint94_radial_4002_2175" cx="0" cy="0" r="1" gradientUnits="userSpaceOnUse" gradientTransform="translate(20.4038 10.5019) rotate(-53.9198) scale(1.33768 1.12124)">
<stop offset="0.663731" stop-color="#E3A17B"/>
<stop offset="1" stop-color="#E3A17B" stop-opacity="0"/>
</radialGradient>
<linearGradient id="paint95_linear_4002_2175" x1="9.5759" y1="10.7282" x2="11.0341" y2="10.6008" gradientUnits="userSpaceOnUse">
<stop stop-color="#C48874"/>
<stop offset="1" stop-color="#BD776C"/>
</linearGradient>
<radialGradient id="paint96_radial_4002_2175" cx="0" cy="0" r="1" gradientUnits="userSpaceOnUse" gradientTransform="translate(10.5101 10.6008) rotate(-171.68) scale(1.69283 1.66421)">
<stop offset="0.77507" stop-color="#DCA187" stop-opacity="0"/>
<stop offset="1" stop-color="#C77937"/>
<stop offset="1" stop-color="#DCA187"/>
</radialGradient>
<linearGradient id="paint97_linear_4002_2175" x1="10.5882" y1="9.72714" x2="22.1772" y2="9.72715" gradientUnits="userSpaceOnUse">
<stop stop-color="#9CC4AC"/>
<stop offset="0.115129" stop-color="#77A78A"/>
<stop offset="0.256665" stop-color="#77A78A"/>
<stop offset="0.917166" stop-color="#97C1A5" stop-opacity="0.75"/>
</linearGradient>
</defs>
</svg>
