<svg width="32" height="32" viewBox="0 0 32 32" fill="none" xmlns="http://www.w3.org/2000/svg">
<path d="M13 18.5C13 19.3284 12.3284 20 11.5 20C10.6716 20 10 19.3284 10 18.5C10 17.6716 10.6716 17 11.5 17C12.3284 17 13 17.6716 13 18.5Z" fill="#212121"/>
<path d="M22 18.5C22 19.3284 21.3284 20 20.5 20C19.6716 20 19 19.3284 19 18.5C19 17.6716 19.6716 17 20.5 17C21.3284 17 22 17.6716 22 18.5Z" fill="#212121"/>
<path d="M14 18.5C14 18.2239 14.2239 18 14.5 18H17.5C17.7761 18 18 18.2239 18 18.5C18 18.7761 17.7761 19 17.5 19H14.5C14.2239 19 14 18.7761 14 18.5Z" fill="#212121"/>
<path fill-rule="evenodd" clip-rule="evenodd" d="M10.2425 8.97014C9.61139 6.44555 11.5208 4 14.1231 4H17.8769C20.4792 4 22.3886 6.44555 21.7575 8.97014L20.9701 12.1194C20.4 14.4001 18.3508 16 16 16C13.6492 16 11.6 14.4001 11.0299 12.1194L10.2425 8.97014ZM14.1231 5H17.8769C19.8286 5 21.2607 6.83417 20.7873 8.72761L20 11.8769C19.5411 13.7124 17.892 15 16 15C14.108 15 12.4589 13.7124 12 11.8769L11.2127 8.7276C10.7393 6.83416 12.1714 5 14.1231 5Z" fill="#212121"/>
<path d="M15 1C10.0294 1 6 5.02944 6 10V16C6 18.9169 7.24884 21.542 9.24099 23.37L6.38697 27.4472C6.1351 27.807 6 28.2356 6 28.6748C6 29.4067 6.59331 30 7.3252 30H24.6748C25.4067 30 26 29.4067 26 28.6748C26 28.2356 25.8649 27.807 25.613 27.4472L22.759 23.37C24.7512 21.542 26 18.9169 26 16V10C26 5.02944 21.9706 1 17 1H15ZM11.6359 25C12.9546 25.6407 14.4354 26 16 26C17.5646 26 19.0454 25.6407 20.3641 25H20.992C21.5307 25 21.7236 25.2411 21.9327 25.5466C22.0999 25.7911 22.206 25.9564 22.2382 26.0085H9.96423C10.0116 25.943 10.1449 25.7493 10.2993 25.4985C10.4923 25.1849 10.9827 25 11.2721 25H11.6359ZM13.5893 3.14222C14.0449 3.04897 14.5168 3 15 3H17C20.866 3 24 6.13401 24 10L22.1877 13.6247C22.0248 13.9504 22 14.1302 22 14.5001C22 15.3285 22.6716 16.0001 23.5 16.0001H23.9381C23.446 19.9463 20.0796 23 16 23C11.9204 23 8.55403 19.9463 8.0619 16.0001H8.5C9.32843 16.0001 10 15.3285 10 14.5001C10 14.0951 9.95226 13.9046 9.77225 13.5446L8 10.0001C8 10 8 10.0001 8 10.0001C8 9.69756 8.01919 9.39948 8.05641 9.10709C8.43547 6.12983 10.6847 3.73657 13.5893 3.14222ZM8 12.2361L8.87783 13.9918C8.95357 14.1433 8.97263 14.203 8.98133 14.2392C8.98971 14.2741 9 14.3349 9 14.5001C9 14.7762 8.77614 15.0001 8.5 15.0001H8V12.2361ZM24 15L23.5 15.0001C23.2239 15.0001 23 14.7762 23 14.5001C23 14.3289 23.007 14.2735 23.0131 14.2433C23.0168 14.2246 23.0259 14.1843 23.0821 14.072L24 12.2361V15ZM24 28H8L8.4207 27.4157C8.60862 27.1547 8.91061 27 9.23223 27H22.7678C23.0894 27 23.3914 27.1547 23.5793 27.4157L24 28Z" fill="#212121"/>
</svg>
