<svg xmlns="http://www.w3.org/2000/svg" width="32" height="32" fill="none"><path fill="#7D4533" d="m13.121 8.879 15 15a3 3 0 1 1-4.242 4.242l-15-15L13.12 8.88Z"/><path fill="#B4ACBC" d="M11.427 2.23 4.353 9.303a.5.5 0 0 0 0 .707L6 13l2.95 1.607a.5.5 0 0 0 .707 0l4.95-4.95a.5.5 0 0 0 0-.707L12.657 7c-.477-.48-.05-1-.05-1l2.724-2.724a.5.5 0 0 0-.301-.85l-3.196-.34a.5.5 0 0 0-.407.144ZM26.32 9.125l2.55-2.55c.32-.33.88-.17.99.28.4 1.66-.04 3.48-1.34 4.78a5.058 5.058 0 0 1-5.115 1.244l-9.736 9.804a5.077 5.077 0 0 1-1.32 5.102 5.062 5.062 0 0 1-4.72 1.28.592.592 0 0 1-.28-.99l2.55-2.55c.23-.23.23-.6 0-.83l-1.61-1.61a.585.585 0 0 0-.83 0l-2.55 2.55c-.32.33-.88.17-.99-.28-.4-1.66.04-3.48 1.34-4.78a5.058 5.058 0 0 1 5.166-1.228l9.702-9.77a5.078 5.078 0 0 1 1.303-5.152 5.062 5.062 0 0 1 4.72-1.28c.45.11.6.67.28.99l-2.55 2.55c-.23.23-.23.6 0 .83l1.61 1.61c.23.23.6.23.83 0Z"/><path fill="#CDC4D6" d="M1.177 11.298a.25.25 0 0 1 0-.353l.643-.644a2 2 0 0 1 2.829 0l3.889 3.89a2 2 0 0 1 0 2.828l-.644.643a.25.25 0 0 1-.353 0l-6.364-6.364Z"/></svg>