<svg width="32" height="32" viewBox="0 0 32 32" fill="none" xmlns="http://www.w3.org/2000/svg">
<path d="M6.42188 13.3086V10.4648C6.42188 9.36027 7.31731 8.46484 8.42187 8.46484H19.7305" stroke="url(#paint0_linear_28327_6540)" stroke-width="1.5" stroke-linecap="round"/>
<path d="M6.42188 13.3086V10.4648C6.42188 9.36027 7.31731 8.46484 8.42187 8.46484H19.7305" stroke="url(#paint1_radial_28327_6540)" stroke-width="1.5" stroke-linecap="round"/>
<path d="M6.42188 13.3086V10.4648C6.42188 9.36027 7.31731 8.46484 8.42187 8.46484H19.7305" stroke="url(#paint2_radial_28327_6540)" stroke-width="1.5" stroke-linecap="round"/>
<path d="M6.42188 13.3086V10.4648C6.42188 9.36027 7.31731 8.46484 8.42187 8.46484H19.7305" stroke="url(#paint3_radial_28327_6540)" stroke-width="1.5" stroke-linecap="round"/>
<path d="M6.42188 13.3086V10.4648C6.42188 9.36027 7.31731 8.46484 8.42187 8.46484H19.7305" stroke="url(#paint4_linear_28327_6540)" stroke-width="1.5" stroke-linecap="round"/>
<g filter="url(#filter0_f_28327_6540)">
<path d="M6.71875 13.0742V10.3555C6.71875 9.2509 7.61418 8.35547 8.71875 8.35547H19.8281" stroke="url(#paint5_linear_28327_6540)" stroke-width="0.3" stroke-linecap="round"/>
</g>
<path d="M22.1981 14.4792C22.0381 14.4792 21.8681 14.4892 21.7081 14.4992V14.4792H9.03809V19.9492H15.9281H21.7181H26.1881C27.0581 19.9492 27.6781 19.1092 27.4181 18.2792C26.7081 16.0792 24.6381 14.4792 22.1981 14.4792Z" fill="url(#paint6_linear_28327_6540)"/>
<path d="M22.1981 14.4792C22.0381 14.4792 21.8681 14.4892 21.7081 14.4992V14.4792H9.03809V19.9492H15.9281H21.7181H26.1881C27.0581 19.9492 27.6781 19.1092 27.4181 18.2792C26.7081 16.0792 24.6381 14.4792 22.1981 14.4792Z" fill="url(#paint7_linear_28327_6540)"/>
<path d="M22.1981 14.4792C22.0381 14.4792 21.8681 14.4892 21.7081 14.4992V14.4792H9.03809V19.9492H15.9281H21.7181H26.1881C27.0581 19.9492 27.6781 19.1092 27.4181 18.2792C26.7081 16.0792 24.6381 14.4792 22.1981 14.4792Z" fill="url(#paint8_radial_28327_6540)"/>
<g filter="url(#filter1_f_28327_6540)">
<rect x="11.8677" y="17.8901" width="14.0867" height="0.375645" fill="url(#paint9_linear_28327_6540)"/>
</g>
<g filter="url(#filter2_i_28327_6540)">
<path d="M24.1881 16.9492H9.03809V11.9492H28.6781C29.6281 11.9492 30.2181 12.9892 29.7281 13.8092C28.5581 15.7592 26.4581 16.9492 24.1881 16.9492Z" fill="url(#paint10_linear_28327_6540)"/>
<path d="M24.1881 16.9492H9.03809V11.9492H28.6781C29.6281 11.9492 30.2181 12.9892 29.7281 13.8092C28.5581 15.7592 26.4581 16.9492 24.1881 16.9492Z" fill="url(#paint11_radial_28327_6540)"/>
<path d="M24.1881 16.9492H9.03809V11.9492H28.6781C29.6281 11.9492 30.2181 12.9892 29.7281 13.8092C28.5581 15.7592 26.4581 16.9492 24.1881 16.9492Z" fill="url(#paint12_radial_28327_6540)"/>
<path d="M24.1881 16.9492H9.03809V11.9492H28.6781C29.6281 11.9492 30.2181 12.9892 29.7281 13.8092C28.5581 15.7592 26.4581 16.9492 24.1881 16.9492Z" fill="url(#paint13_radial_28327_6540)"/>
<path d="M24.1881 16.9492H9.03809V11.9492H28.6781C29.6281 11.9492 30.2181 12.9892 29.7281 13.8092C28.5581 15.7592 26.4581 16.9492 24.1881 16.9492Z" fill="url(#paint14_radial_28327_6540)"/>
<path d="M24.1881 16.9492H9.03809V11.9492H28.6781C29.6281 11.9492 30.2181 12.9892 29.7281 13.8092C28.5581 15.7592 26.4581 16.9492 24.1881 16.9492Z" fill="url(#paint15_radial_28327_6540)"/>
</g>
<path d="M24.1881 16.9492H9.03809V11.9492H28.6781C29.6281 11.9492 30.2181 12.9892 29.7281 13.8092C28.5581 15.7592 26.4581 16.9492 24.1881 16.9492Z" fill="url(#paint16_linear_28327_6540)"/>
<path d="M24.1881 16.9492H9.03809V11.9492H28.6781C29.6281 11.9492 30.2181 12.9892 29.7281 13.8092C28.5581 15.7592 26.4581 16.9492 24.1881 16.9492Z" fill="url(#paint17_radial_28327_6540)"/>
<path d="M10.2681 25.6446C9.85807 25.6446 9.51807 25.3046 9.51807 24.8946V18.2192C9.51807 17.8092 9.85807 17.4692 10.2681 17.4692C10.6781 17.4692 11.0181 17.8092 11.0181 18.2192V24.8946C11.0181 25.3046 10.6881 25.6446 10.2681 25.6446Z" fill="url(#paint18_linear_28327_6540)"/>
<path d="M10.2681 25.6446C9.85807 25.6446 9.51807 25.3046 9.51807 24.8946V18.2192C9.51807 17.8092 9.85807 17.4692 10.2681 17.4692C10.6781 17.4692 11.0181 17.8092 11.0181 18.2192V24.8946C11.0181 25.3046 10.6881 25.6446 10.2681 25.6446Z" fill="url(#paint19_linear_28327_6540)"/>
<path d="M10.2681 25.6446C9.85807 25.6446 9.51807 25.3046 9.51807 24.8946V18.2192C9.51807 17.8092 9.85807 17.4692 10.2681 17.4692C10.6781 17.4692 11.0181 17.8092 11.0181 18.2192V24.8946C11.0181 25.3046 10.6881 25.6446 10.2681 25.6446Z" fill="url(#paint20_linear_28327_6540)"/>
<g filter="url(#filter3_f_28327_6540)">
<path d="M10.5 19.7461V24.7148" stroke="url(#paint21_linear_28327_6540)" stroke-width="0.3" stroke-linecap="round"/>
</g>
<path d="M23.2896 25.6367C22.8796 25.6367 22.5396 25.2967 22.5396 24.8867V9.69922C22.5396 9.28922 22.8796 8.94922 23.2896 8.94922C23.6996 8.94922 24.0396 9.28922 24.0396 9.69922V24.8867C24.0396 25.2967 23.6996 25.6367 23.2896 25.6367Z" fill="url(#paint22_linear_28327_6540)"/>
<path d="M23.2896 25.6367C22.8796 25.6367 22.5396 25.2967 22.5396 24.8867V9.69922C22.5396 9.28922 22.8796 8.94922 23.2896 8.94922C23.6996 8.94922 24.0396 9.28922 24.0396 9.69922V24.8867C24.0396 25.2967 23.6996 25.6367 23.2896 25.6367Z" fill="url(#paint23_linear_28327_6540)"/>
<path d="M23.2896 25.6367C22.8796 25.6367 22.5396 25.2967 22.5396 24.8867V9.69922C22.5396 9.28922 22.8796 8.94922 23.2896 8.94922C23.6996 8.94922 24.0396 9.28922 24.0396 9.69922V24.8867C24.0396 25.2967 23.6996 25.6367 23.2896 25.6367Z" fill="url(#paint24_radial_28327_6540)"/>
<path d="M13.4698 19.1691L22.5382 9.21262C22.8584 8.85812 23.4111 8.78128 23.7656 9.10148C24.0744 9.37593 24.1277 9.87588 23.9219 10.2304L17.1563 21.7148C16.493 22.8354 15.0287 23.4707 13.8966 22.8075C12.7759 22.1442 12.5 20.5194 13.1953 19.5351C13.2754 19.4093 13.3669 19.2835 13.4698 19.1691Z" fill="url(#paint25_linear_28327_6540)"/>
<path d="M13.4698 19.1691L22.5382 9.21262C22.8584 8.85812 23.4111 8.78128 23.7656 9.10148C24.0744 9.37593 24.1277 9.87588 23.9219 10.2304L17.1563 21.7148C16.493 22.8354 15.0287 23.4707 13.8966 22.8075C12.7759 22.1442 12.5 20.5194 13.1953 19.5351C13.2754 19.4093 13.3669 19.2835 13.4698 19.1691Z" fill="url(#paint26_linear_28327_6540)"/>
<path d="M13.4698 19.1691L22.5382 9.21262C22.8584 8.85812 23.4111 8.78128 23.7656 9.10148C24.0744 9.37593 24.1277 9.87588 23.9219 10.2304L17.1563 21.7148C16.493 22.8354 15.0287 23.4707 13.8966 22.8075C12.7759 22.1442 12.5 20.5194 13.1953 19.5351C13.2754 19.4093 13.3669 19.2835 13.4698 19.1691Z" fill="url(#paint27_radial_28327_6540)"/>
<path d="M13.4698 19.1691L22.5382 9.21262C22.8584 8.85812 23.4111 8.78128 23.7656 9.10148C24.0744 9.37593 24.1277 9.87588 23.9219 10.2304L17.1563 21.7148C16.493 22.8354 15.0287 23.4707 13.8966 22.8075C12.7759 22.1442 12.5 20.5194 13.1953 19.5351C13.2754 19.4093 13.3669 19.2835 13.4698 19.1691Z" fill="url(#paint28_radial_28327_6540)"/>
<path d="M13.4698 19.1691L22.5382 9.21262C22.8584 8.85812 23.4111 8.78128 23.7656 9.10148C24.0744 9.37593 24.1277 9.87588 23.9219 10.2304L17.1563 21.7148C16.493 22.8354 15.0287 23.4707 13.8966 22.8075C12.7759 22.1442 12.5 20.5194 13.1953 19.5351C13.2754 19.4093 13.3669 19.2835 13.4698 19.1691Z" fill="url(#paint29_radial_28327_6540)"/>
<path d="M13.4698 19.1691L22.5382 9.21262C22.8584 8.85812 23.4111 8.78128 23.7656 9.10148C24.0744 9.37593 24.1277 9.87588 23.9219 10.2304L17.1563 21.7148C16.493 22.8354 15.0287 23.4707 13.8966 22.8075C12.7759 22.1442 12.5 20.5194 13.1953 19.5351C13.2754 19.4093 13.3669 19.2835 13.4698 19.1691Z" fill="url(#paint30_radial_28327_6540)"/>
<path d="M13.4698 19.1691L22.5382 9.21262C22.8584 8.85812 23.4111 8.78128 23.7656 9.10148C24.0744 9.37593 24.1277 9.87588 23.9219 10.2304L17.1563 21.7148C16.493 22.8354 15.0287 23.4707 13.8966 22.8075C12.7759 22.1442 12.5 20.5194 13.1953 19.5351C13.2754 19.4093 13.3669 19.2835 13.4698 19.1691Z" fill="url(#paint31_radial_28327_6540)"/>
<path d="M13.4698 19.1691L22.5382 9.21262C22.8584 8.85812 23.4111 8.78128 23.7656 9.10148C24.0744 9.37593 24.1277 9.87588 23.9219 10.2304L17.1563 21.7148C16.493 22.8354 15.0287 23.4707 13.8966 22.8075C12.7759 22.1442 12.5 20.5194 13.1953 19.5351C13.2754 19.4093 13.3669 19.2835 13.4698 19.1691Z" fill="url(#paint32_radial_28327_6540)"/>
<g filter="url(#filter4_i_28327_6540)">
<path d="M4.75909 25.6359C4.56909 25.6359 4.37909 25.5659 4.22909 25.4159C3.93909 25.1259 3.93909 24.6459 4.22909 24.3559L6.50211 22.0044C6.66211 21.8444 6.75211 21.6344 6.75211 21.4044V17.9644C6.75211 17.5444 7.09211 17.2144 7.50211 17.2144C7.91211 17.2144 8.2521 17.5444 8.2521 17.9644V21.7306C8.2521 22.3606 8.00211 22.6244 7.56211 23.0744L5.28909 25.4259C5.13909 25.5659 4.94909 25.6359 4.75909 25.6359Z" fill="url(#paint33_linear_28327_6540)"/>
<path d="M4.75909 25.6359C4.56909 25.6359 4.37909 25.5659 4.22909 25.4159C3.93909 25.1259 3.93909 24.6459 4.22909 24.3559L6.50211 22.0044C6.66211 21.8444 6.75211 21.6344 6.75211 21.4044V17.9644C6.75211 17.5444 7.09211 17.2144 7.50211 17.2144C7.91211 17.2144 8.2521 17.5444 8.2521 17.9644V21.7306C8.2521 22.3606 8.00211 22.6244 7.56211 23.0744L5.28909 25.4259C5.13909 25.5659 4.94909 25.6359 4.75909 25.6359Z" fill="url(#paint34_linear_28327_6540)"/>
<path d="M4.75909 25.6359C4.56909 25.6359 4.37909 25.5659 4.22909 25.4159C3.93909 25.1259 3.93909 24.6459 4.22909 24.3559L6.50211 22.0044C6.66211 21.8444 6.75211 21.6344 6.75211 21.4044V17.9644C6.75211 17.5444 7.09211 17.2144 7.50211 17.2144C7.91211 17.2144 8.2521 17.5444 8.2521 17.9644V21.7306C8.2521 22.3606 8.00211 22.6244 7.56211 23.0744L5.28909 25.4259C5.13909 25.5659 4.94909 25.6359 4.75909 25.6359Z" fill="url(#paint35_linear_28327_6540)"/>
</g>
<g filter="url(#filter5_f_28327_6540)">
<path d="M7.76322 19.4165V21.7316C7.76322 21.9944 7.65973 22.2467 7.47515 22.4338L5.0932 24.8486" stroke="url(#paint36_linear_28327_6540)" stroke-width="0.3" stroke-linecap="round"/>
</g>
<path d="M8.65808 11.7461C7.69159 11.7461 6.90808 12.5296 6.90808 13.4961V18.4023C6.90808 19.3688 7.69159 20.1523 8.65808 20.1523H9.04935C11.3089 20.1523 13.1406 18.2705 13.1406 15.9492C13.1406 13.6279 11.3089 11.7461 9.04935 11.7461H8.65808Z" fill="url(#paint37_radial_28327_6540)"/>
<path d="M8.65808 11.7461C7.69159 11.7461 6.90808 12.5296 6.90808 13.4961V18.4023C6.90808 19.3688 7.69159 20.1523 8.65808 20.1523H9.04935C11.3089 20.1523 13.1406 18.2705 13.1406 15.9492C13.1406 13.6279 11.3089 11.7461 9.04935 11.7461H8.65808Z" fill="url(#paint38_radial_28327_6540)"/>
<path d="M8.65808 11.7461C7.69159 11.7461 6.90808 12.5296 6.90808 13.4961V18.4023C6.90808 19.3688 7.69159 20.1523 8.65808 20.1523H9.04935C11.3089 20.1523 13.1406 18.2705 13.1406 15.9492C13.1406 13.6279 11.3089 11.7461 9.04935 11.7461H8.65808Z" fill="url(#paint39_radial_28327_6540)"/>
<path d="M8.65808 11.7461C7.69159 11.7461 6.90808 12.5296 6.90808 13.4961V18.4023C6.90808 19.3688 7.69159 20.1523 8.65808 20.1523H9.04935C11.3089 20.1523 13.1406 18.2705 13.1406 15.9492C13.1406 13.6279 11.3089 11.7461 9.04935 11.7461H8.65808Z" fill="url(#paint40_radial_28327_6540)"/>
<path d="M8.65808 11.7461C7.69159 11.7461 6.90808 12.5296 6.90808 13.4961V18.4023C6.90808 19.3688 7.69159 20.1523 8.65808 20.1523H9.04935C11.3089 20.1523 13.1406 18.2705 13.1406 15.9492C13.1406 13.6279 11.3089 11.7461 9.04935 11.7461H8.65808Z" fill="url(#paint41_radial_28327_6540)"/>
<path d="M8.65808 11.7461C7.69159 11.7461 6.90808 12.5296 6.90808 13.4961V18.4023C6.90808 19.3688 7.69159 20.1523 8.65808 20.1523H9.04935C11.3089 20.1523 13.1406 18.2705 13.1406 15.9492C13.1406 13.6279 11.3089 11.7461 9.04935 11.7461H8.65808Z" fill="url(#paint42_radial_28327_6540)"/>
<path d="M7.24014 13.4134C7.24014 12.8508 6.94141 12.2571 6.20703 12.054C4.21484 11.6399 2.22266 13.6951 2.22266 15.9412C2.22266 18.1872 4.00391 19.8352 6.14453 19.8352C6.82422 19.8352 7.24014 19.1322 7.24014 18.5696V13.4134Z" fill="#64C468"/>
<path d="M7.24014 13.4134C7.24014 12.8508 6.94141 12.2571 6.20703 12.054C4.21484 11.6399 2.22266 13.6951 2.22266 15.9412C2.22266 18.1872 4.00391 19.8352 6.14453 19.8352C6.82422 19.8352 7.24014 19.1322 7.24014 18.5696V13.4134Z" fill="url(#paint43_radial_28327_6540)"/>
<path d="M7.24014 13.4134C7.24014 12.8508 6.94141 12.2571 6.20703 12.054C4.21484 11.6399 2.22266 13.6951 2.22266 15.9412C2.22266 18.1872 4.00391 19.8352 6.14453 19.8352C6.82422 19.8352 7.24014 19.1322 7.24014 18.5696V13.4134Z" fill="url(#paint44_radial_28327_6540)"/>
<path d="M7.24014 13.4134C7.24014 12.8508 6.94141 12.2571 6.20703 12.054C4.21484 11.6399 2.22266 13.6951 2.22266 15.9412C2.22266 18.1872 4.00391 19.8352 6.14453 19.8352C6.82422 19.8352 7.24014 19.1322 7.24014 18.5696V13.4134Z" fill="url(#paint45_radial_28327_6540)"/>
<path d="M7.24014 13.4134C7.24014 12.8508 6.94141 12.2571 6.20703 12.054C4.21484 11.6399 2.22266 13.6951 2.22266 15.9412C2.22266 18.1872 4.00391 19.8352 6.14453 19.8352C6.82422 19.8352 7.24014 19.1322 7.24014 18.5696V13.4134Z" fill="url(#paint46_radial_28327_6540)"/>
<path d="M7.24014 13.4134C7.24014 12.8508 6.94141 12.2571 6.20703 12.054C4.21484 11.6399 2.22266 13.6951 2.22266 15.9412C2.22266 18.1872 4.00391 19.8352 6.14453 19.8352C6.82422 19.8352 7.24014 19.1322 7.24014 18.5696V13.4134Z" fill="url(#paint47_linear_28327_6540)"/>
<path d="M7.24014 13.4134C7.24014 12.8508 6.94141 12.2571 6.20703 12.054C4.21484 11.6399 2.22266 13.6951 2.22266 15.9412C2.22266 18.1872 4.00391 19.8352 6.14453 19.8352C6.82422 19.8352 7.24014 19.1322 7.24014 18.5696V13.4134Z" fill="url(#paint48_radial_28327_6540)"/>
<circle cx="4.42188" cy="15.918" r="0.625" fill="url(#paint49_radial_28327_6540)"/>
<circle cx="4.42188" cy="15.918" r="0.625" fill="url(#paint50_radial_28327_6540)"/>
<circle cx="4.42188" cy="15.918" r="0.625" fill="url(#paint51_linear_28327_6540)"/>
<g filter="url(#filter6_f_28327_6540)">
<path d="M23.5 10.1055V24.793" stroke="url(#paint52_linear_28327_6540)" stroke-width="0.3" stroke-linecap="round"/>
</g>
<g filter="url(#filter7_f_28327_6540)">
<path d="M23.4375 9.69922L15.25 21.668" stroke="url(#paint53_linear_28327_6540)" stroke-width="0.5" stroke-linecap="round"/>
</g>
<defs>
<filter id="filter0_f_28327_6540" x="6.11876" y="7.75557" width="14.3094" height="5.91855" filterUnits="userSpaceOnUse" color-interpolation-filters="sRGB">
<feFlood flood-opacity="0" result="BackgroundImageFix"/>
<feBlend mode="normal" in="SourceGraphic" in2="BackgroundImageFix" result="shape"/>
<feGaussianBlur stdDeviation="0.225" result="effect1_foregroundBlur_28327_6540"/>
</filter>
<filter id="filter1_f_28327_6540" x="11.1177" y="17.1401" width="15.5867" height="1.87573" filterUnits="userSpaceOnUse" color-interpolation-filters="sRGB">
<feFlood flood-opacity="0" result="BackgroundImageFix"/>
<feBlend mode="normal" in="SourceGraphic" in2="BackgroundImageFix" result="shape"/>
<feGaussianBlur stdDeviation="0.375" result="effect1_foregroundBlur_28327_6540"/>
</filter>
<filter id="filter2_i_28327_6540" x="9.03809" y="11.9492" width="20.8663" height="5.1" filterUnits="userSpaceOnUse" color-interpolation-filters="sRGB">
<feFlood flood-opacity="0" result="BackgroundImageFix"/>
<feBlend mode="normal" in="SourceGraphic" in2="BackgroundImageFix" result="shape"/>
<feColorMatrix in="SourceAlpha" type="matrix" values="0 0 0 0 0 0 0 0 0 0 0 0 0 0 0 0 0 0 127 0" result="hardAlpha"/>
<feOffset dy="0.1"/>
<feGaussianBlur stdDeviation="0.5"/>
<feComposite in2="hardAlpha" operator="arithmetic" k2="-1" k3="1"/>
<feColorMatrix type="matrix" values="0 0 0 0 0.623529 0 0 0 0 0.796078 0 0 0 0 0.45098 0 0 0 1 0"/>
<feBlend mode="normal" in2="shape" result="effect1_innerShadow_28327_6540"/>
</filter>
<filter id="filter3_f_28327_6540" x="9.95001" y="19.1962" width="1.09999" height="6.06855" filterUnits="userSpaceOnUse" color-interpolation-filters="sRGB">
<feFlood flood-opacity="0" result="BackgroundImageFix"/>
<feBlend mode="normal" in="SourceGraphic" in2="BackgroundImageFix" result="shape"/>
<feGaussianBlur stdDeviation="0.2" result="effect1_foregroundBlur_28327_6540"/>
</filter>
<filter id="filter4_i_28327_6540" x="4.0116" y="17.2144" width="4.34051" height="8.52163" filterUnits="userSpaceOnUse" color-interpolation-filters="sRGB">
<feFlood flood-opacity="0" result="BackgroundImageFix"/>
<feBlend mode="normal" in="SourceGraphic" in2="BackgroundImageFix" result="shape"/>
<feColorMatrix in="SourceAlpha" type="matrix" values="0 0 0 0 0 0 0 0 0 0 0 0 0 0 0 0 0 0 127 0" result="hardAlpha"/>
<feOffset dx="0.1" dy="0.1"/>
<feGaussianBlur stdDeviation="0.125"/>
<feComposite in2="hardAlpha" operator="arithmetic" k2="-1" k3="1"/>
<feColorMatrix type="matrix" values="0 0 0 0 0.658824 0 0 0 0 0.831373 0 0 0 0 0.580392 0 0 0 1 0"/>
<feBlend mode="normal" in2="shape" result="effect1_innerShadow_28327_6540"/>
</filter>
<filter id="filter5_f_28327_6540" x="4.69321" y="19.0166" width="3.47" height="6.23193" filterUnits="userSpaceOnUse" color-interpolation-filters="sRGB">
<feFlood flood-opacity="0" result="BackgroundImageFix"/>
<feBlend mode="normal" in="SourceGraphic" in2="BackgroundImageFix" result="shape"/>
<feGaussianBlur stdDeviation="0.125" result="effect1_foregroundBlur_28327_6540"/>
</filter>
<filter id="filter6_f_28327_6540" x="22.85" y="9.45557" width="1.29999" height="15.9873" filterUnits="userSpaceOnUse" color-interpolation-filters="sRGB">
<feFlood flood-opacity="0" result="BackgroundImageFix"/>
<feBlend mode="normal" in="SourceGraphic" in2="BackgroundImageFix" result="shape"/>
<feGaussianBlur stdDeviation="0.25" result="effect1_foregroundBlur_28327_6540"/>
</filter>
<filter id="filter7_f_28327_6540" x="14" y="8.44922" width="10.6876" height="14.4688" filterUnits="userSpaceOnUse" color-interpolation-filters="sRGB">
<feFlood flood-opacity="0" result="BackgroundImageFix"/>
<feBlend mode="normal" in="SourceGraphic" in2="BackgroundImageFix" result="shape"/>
<feGaussianBlur stdDeviation="0.5" result="effect1_foregroundBlur_28327_6540"/>
</filter>
<linearGradient id="paint0_linear_28327_6540" x1="7.59375" y1="14.1055" x2="18.9426" y2="12.2732" gradientUnits="userSpaceOnUse">
<stop stop-color="#A5CF2D"/>
<stop offset="1" stop-color="#60C674"/>
</linearGradient>
<radialGradient id="paint1_radial_28327_6540" cx="0" cy="0" r="1" gradientUnits="userSpaceOnUse" gradientTransform="translate(20.2109 8.26953) rotate(156.038) scale(0.615553 0.599689)">
<stop stop-color="#87E08E"/>
<stop offset="1" stop-color="#87E08E" stop-opacity="0"/>
</radialGradient>
<radialGradient id="paint2_radial_28327_6540" cx="0" cy="0" r="1" gradientUnits="userSpaceOnUse" gradientTransform="translate(7.70469 9.70361) rotate(40.9922) scale(0.527524 1.44941)">
<stop stop-color="#9EC956"/>
<stop offset="1" stop-color="#9EC956" stop-opacity="0"/>
</radialGradient>
<radialGradient id="paint3_radial_28327_6540" cx="0" cy="0" r="1" gradientUnits="userSpaceOnUse" gradientTransform="translate(6.0172 9.13953) rotate(-62.6625) scale(1.35755 0.292028)">
<stop stop-color="#B8DC88"/>
<stop offset="1" stop-color="#B8DC88" stop-opacity="0"/>
</radialGradient>
<linearGradient id="paint4_linear_28327_6540" x1="5.58594" y1="11.3008" x2="5.89844" y2="11.3008" gradientUnits="userSpaceOnUse">
<stop stop-color="#B8DC88"/>
<stop offset="1" stop-color="#B8DC88" stop-opacity="0"/>
</linearGradient>
<linearGradient id="paint5_linear_28327_6540" x1="5.71875" y1="12.1856" x2="18.7941" y2="7.836" gradientUnits="userSpaceOnUse">
<stop stop-color="#B1D756"/>
<stop offset="1" stop-color="#6DCF7A"/>
</linearGradient>
<linearGradient id="paint6_linear_28327_6540" x1="18.258" y1="16.6055" x2="18.258" y2="19.9492" gradientUnits="userSpaceOnUse">
<stop stop-color="#74BC3F"/>
<stop offset="1" stop-color="#71C48E"/>
</linearGradient>
<linearGradient id="paint7_linear_28327_6540" x1="18.258" y1="18.9232" x2="18.258" y2="19.9492" gradientUnits="userSpaceOnUse">
<stop stop-color="#92A5C1" stop-opacity="0"/>
<stop offset="1" stop-color="#92A5C1"/>
</linearGradient>
<radialGradient id="paint8_radial_28327_6540" cx="0" cy="0" r="1" gradientUnits="userSpaceOnUse" gradientTransform="translate(26.8466 17.984) rotate(160.931) scale(2.01212 1.56833)">
<stop stop-color="#9CDA82"/>
<stop offset="0.723861" stop-color="#9CDA82" stop-opacity="0"/>
</radialGradient>
<linearGradient id="paint9_linear_28327_6540" x1="25.1562" y1="18.2658" x2="12.173" y2="18.2658" gradientUnits="userSpaceOnUse">
<stop stop-color="#8BD27C"/>
<stop offset="1" stop-color="#8BD27C" stop-opacity="0"/>
</linearGradient>
<linearGradient id="paint10_linear_28327_6540" x1="8.59375" y1="14.4492" x2="25.4688" y2="14.4492" gradientUnits="userSpaceOnUse">
<stop stop-color="#A6D63F"/>
<stop offset="1" stop-color="#70DB76"/>
</linearGradient>
<radialGradient id="paint11_radial_28327_6540" cx="0" cy="0" r="1" gradientUnits="userSpaceOnUse" gradientTransform="translate(20.5625 12.168) rotate(147.995) scale(4.71699 2.68643)">
<stop stop-color="#83C555"/>
<stop offset="1" stop-color="#83C555" stop-opacity="0"/>
</radialGradient>
<radialGradient id="paint12_radial_28327_6540" cx="0" cy="0" r="1" gradientUnits="userSpaceOnUse" gradientTransform="translate(18.125 15.1992) rotate(-130.815) scale(1.81681 8.5632)">
<stop stop-color="#6DAE3C"/>
<stop offset="1" stop-color="#6DAE3C" stop-opacity="0"/>
</radialGradient>
<radialGradient id="paint13_radial_28327_6540" cx="0" cy="0" r="1" gradientUnits="userSpaceOnUse" gradientTransform="translate(14.5938 18.543) scale(9.375 4.64939)">
<stop stop-color="#89B553"/>
<stop offset="1" stop-color="#89B553" stop-opacity="0"/>
</radialGradient>
<radialGradient id="paint14_radial_28327_6540" cx="0" cy="0" r="1" gradientUnits="userSpaceOnUse" gradientTransform="translate(22.7188 16.418) rotate(-0.747482) scale(7.18622 1.78354)">
<stop stop-color="#6EC68A"/>
<stop offset="1" stop-color="#6EC68A" stop-opacity="0"/>
</radialGradient>
<radialGradient id="paint15_radial_28327_6540" cx="0" cy="0" r="1" gradientUnits="userSpaceOnUse" gradientTransform="translate(29.25 12.8867) rotate(150.255) scale(4.53502 1.24347)">
<stop stop-color="#8CED95"/>
<stop offset="0.7034" stop-color="#8CED95" stop-opacity="0"/>
</radialGradient>
<linearGradient id="paint16_linear_28327_6540" x1="19.4712" y1="17.5145" x2="19.4712" y2="16.1762" gradientUnits="userSpaceOnUse">
<stop stop-color="#59C261"/>
<stop offset="1" stop-color="#59C261" stop-opacity="0"/>
</linearGradient>
<radialGradient id="paint17_radial_28327_6540" cx="0" cy="0" r="1" gradientUnits="userSpaceOnUse" gradientTransform="translate(21.4375 19.6367) rotate(12.5288) scale(2.593 7.86373)">
<stop offset="0.0358345" stop-color="#75B06E"/>
<stop offset="1" stop-color="#75B06E" stop-opacity="0"/>
</radialGradient>
<linearGradient id="paint18_linear_28327_6540" x1="10.2693" y1="15.3034" x2="10.2693" y2="25.0973" gradientUnits="userSpaceOnUse">
<stop stop-color="#6EA86B"/>
<stop offset="1" stop-color="#7FB664"/>
</linearGradient>
<linearGradient id="paint19_linear_28327_6540" x1="10.4375" y1="25.8086" x2="10.4375" y2="25.168" gradientUnits="userSpaceOnUse">
<stop stop-color="#A6ACB3"/>
<stop offset="1" stop-color="#A6ACB3" stop-opacity="0"/>
</linearGradient>
<linearGradient id="paint20_linear_28327_6540" x1="9.375" y1="22.9961" x2="9.74219" y2="22.9961" gradientUnits="userSpaceOnUse">
<stop stop-color="#9FC997"/>
<stop offset="1" stop-color="#9FC997" stop-opacity="0"/>
</linearGradient>
<linearGradient id="paint21_linear_28327_6540" x1="11" y1="19.7461" x2="11" y2="24.7148" gradientUnits="userSpaceOnUse">
<stop stop-color="#8FC190"/>
<stop offset="1" stop-color="#8FC190" stop-opacity="0"/>
</linearGradient>
<linearGradient id="paint22_linear_28327_6540" x1="23.2896" y1="9.66797" x2="23.2896" y2="26.6055" gradientUnits="userSpaceOnUse">
<stop stop-color="#B3C93B"/>
<stop offset="1" stop-color="#83BE69"/>
</linearGradient>
<linearGradient id="paint23_linear_28327_6540" x1="23.459" y1="25.9716" x2="23.459" y2="24.664" gradientUnits="userSpaceOnUse">
<stop stop-color="#A6ACB3"/>
<stop offset="1" stop-color="#A6ACB3" stop-opacity="0"/>
</linearGradient>
<radialGradient id="paint24_radial_28327_6540" cx="0" cy="0" r="1" gradientUnits="userSpaceOnUse" gradientTransform="translate(23.6641 10.9258) scale(0.375488 1.8884)">
<stop stop-color="#C1E36F"/>
<stop offset="1" stop-color="#C1E36F" stop-opacity="0"/>
</radialGradient>
<linearGradient id="paint25_linear_28327_6540" x1="12.816" y1="23.5429" x2="24.6563" y2="8.89918" gradientUnits="userSpaceOnUse">
<stop stop-color="#6FB867"/>
<stop offset="1" stop-color="#ADC72D"/>
</linearGradient>
<linearGradient id="paint26_linear_28327_6540" x1="14.4375" y1="22.8554" x2="17.5625" y2="18.2616" gradientUnits="userSpaceOnUse">
<stop stop-color="#6BA78D"/>
<stop offset="1" stop-color="#6BA78D" stop-opacity="0"/>
</linearGradient>
<radialGradient id="paint27_radial_28327_6540" cx="0" cy="0" r="1" gradientUnits="userSpaceOnUse" gradientTransform="translate(24.25 8.69914) rotate(118.757) scale(2.923 2.31499)">
<stop stop-color="#ABD756"/>
<stop offset="1" stop-color="#ABD756" stop-opacity="0"/>
</radialGradient>
<radialGradient id="paint28_radial_28327_6540" cx="0" cy="0" r="1" gradientUnits="userSpaceOnUse" gradientTransform="translate(13.4688 8.89917) rotate(77.3063) scale(15.0747 15.0407)">
<stop offset="0.790476" stop-color="#9AA1CC" stop-opacity="0"/>
<stop offset="1" stop-color="#9AA1CC"/>
</radialGradient>
<radialGradient id="paint29_radial_28327_6540" cx="0" cy="0" r="1" gradientUnits="userSpaceOnUse" gradientTransform="translate(12.5313 17.1366) rotate(32.4067) scale(4.25666 7.82781)">
<stop stop-color="#45A256"/>
<stop offset="1" stop-color="#45A256" stop-opacity="0"/>
</radialGradient>
<radialGradient id="paint30_radial_28327_6540" cx="0" cy="0" r="1" gradientUnits="userSpaceOnUse" gradientTransform="translate(13.3359 21.7226) rotate(-25.2011) scale(0.587134 1.1647)">
<stop stop-color="#71B182"/>
<stop offset="1" stop-color="#71B182" stop-opacity="0"/>
</radialGradient>
<radialGradient id="paint31_radial_28327_6540" cx="0" cy="0" r="1" gradientUnits="userSpaceOnUse" gradientTransform="translate(18.2187 13.9179) rotate(42.5105) scale(0.508714 4.7444)">
<stop stop-color="#A1CB73"/>
<stop offset="1" stop-color="#A1CB73" stop-opacity="0"/>
</radialGradient>
<radialGradient id="paint32_radial_28327_6540" cx="0" cy="0" r="1" gradientUnits="userSpaceOnUse" gradientTransform="translate(23.2656 10.0273) rotate(36.3842) scale(0.368764 1.54207)">
<stop stop-color="#C1E36F"/>
<stop offset="1" stop-color="#C1E36F" stop-opacity="0"/>
</radialGradient>
<linearGradient id="paint33_linear_28327_6540" x1="8.2521" y1="19.6276" x2="4.35484" y2="25.2623" gradientUnits="userSpaceOnUse">
<stop stop-color="#56AA6E"/>
<stop offset="1" stop-color="#97BE60"/>
</linearGradient>
<linearGradient id="paint34_linear_28327_6540" x1="7.48705" y1="18.9748" x2="7.48705" y2="20.9267" gradientUnits="userSpaceOnUse">
<stop stop-color="#41A05E"/>
<stop offset="1" stop-color="#41A05E" stop-opacity="0"/>
</linearGradient>
<linearGradient id="paint35_linear_28327_6540" x1="5.25" y1="25.8087" x2="5.25" y2="25.0275" gradientUnits="userSpaceOnUse">
<stop stop-color="#B0B5CF"/>
<stop offset="1" stop-color="#B0B5CF" stop-opacity="0"/>
</linearGradient>
<linearGradient id="paint36_linear_28327_6540" x1="4.88953" y1="23.9679" x2="7.28512" y2="24.2352" gradientUnits="userSpaceOnUse">
<stop stop-color="#9FBE77"/>
<stop offset="1" stop-color="#74B988"/>
</linearGradient>
<radialGradient id="paint37_radial_28327_6540" cx="0" cy="0" r="1" gradientUnits="userSpaceOnUse" gradientTransform="translate(11.3438 14.543) rotate(129.489) scale(5.06154 4.49065)">
<stop stop-color="#64E59D"/>
<stop offset="1" stop-color="#3DC07C"/>
</radialGradient>
<radialGradient id="paint38_radial_28327_6540" cx="0" cy="0" r="1" gradientUnits="userSpaceOnUse" gradientTransform="translate(8.875 22.543) rotate(-90) scale(6.03125 5.53125)">
<stop stop-color="#469A93"/>
<stop offset="1" stop-color="#469A93" stop-opacity="0"/>
</radialGradient>
<radialGradient id="paint39_radial_28327_6540" cx="0" cy="0" r="1" gradientUnits="userSpaceOnUse" gradientTransform="translate(9.09375 21.543) rotate(-90) scale(4.46875 4.21648)">
<stop stop-color="#8EA3C9"/>
<stop offset="1" stop-color="#8EA3C9" stop-opacity="0"/>
</radialGradient>
<radialGradient id="paint40_radial_28327_6540" cx="0" cy="0" r="1" gradientUnits="userSpaceOnUse" gradientTransform="translate(6.71875 18.293) rotate(-74.3806) scale(6.03538 2.43745)">
<stop stop-color="#29B476"/>
<stop offset="1" stop-color="#29B476" stop-opacity="0"/>
</radialGradient>
<radialGradient id="paint41_radial_28327_6540" cx="0" cy="0" r="1" gradientUnits="userSpaceOnUse" gradientTransform="translate(7.28125 13.1211) rotate(21.5713) scale(1.44495 2.11336)">
<stop stop-color="#57CE77"/>
<stop offset="1" stop-color="#57CC77" stop-opacity="0"/>
</radialGradient>
<radialGradient id="paint42_radial_28327_6540" cx="0" cy="0" r="1" gradientUnits="userSpaceOnUse" gradientTransform="translate(13.9063 17.6055) rotate(-163.664) scale(1.88875 3.90935)">
<stop stop-color="#3FB568"/>
<stop offset="1" stop-color="#3FB568" stop-opacity="0"/>
</radialGradient>
<radialGradient id="paint43_radial_28327_6540" cx="0" cy="0" r="1" gradientUnits="userSpaceOnUse" gradientTransform="translate(6.18405 20.4973) rotate(-116.779) scale(4.39094 3.14106)">
<stop stop-color="#6FA58E"/>
<stop offset="1" stop-color="#6FA58E" stop-opacity="0"/>
</radialGradient>
<radialGradient id="paint44_radial_28327_6540" cx="0" cy="0" r="1" gradientUnits="userSpaceOnUse" gradientTransform="translate(7.64948 15.9179) rotate(180) scale(5.42683 6.08153)">
<stop offset="0.783099" stop-color="#9EDE94" stop-opacity="0"/>
<stop offset="1" stop-color="#9EDE94"/>
</radialGradient>
<radialGradient id="paint45_radial_28327_6540" cx="0" cy="0" r="1" gradientUnits="userSpaceOnUse" gradientTransform="translate(5.76274 20.2226) rotate(-110.957) scale(2.88348 2.82979)">
<stop stop-color="#9AA5CA"/>
<stop offset="1" stop-color="#9AA5CA" stop-opacity="0"/>
</radialGradient>
<radialGradient id="paint46_radial_28327_6540" cx="0" cy="0" r="1" gradientUnits="userSpaceOnUse" gradientTransform="translate(6.23438 15.1522) rotate(90) scale(2.0625 0.711491)">
<stop stop-color="#89DE96"/>
<stop offset="1" stop-color="#89DE96" stop-opacity="0"/>
</radialGradient>
<linearGradient id="paint47_linear_28327_6540" x1="7.24014" y1="15.7616" x2="6.5" y2="15.7616" gradientUnits="userSpaceOnUse">
<stop stop-color="#35C046"/>
<stop offset="1" stop-color="#35C046" stop-opacity="0"/>
</linearGradient>
<radialGradient id="paint48_radial_28327_6540" cx="0" cy="0" r="1" gradientUnits="userSpaceOnUse" gradientTransform="translate(7.0625 12.0005) rotate(109.142) scale(3.71663 3.97839)">
<stop stop-color="#69CF62"/>
<stop offset="1" stop-color="#69CF62" stop-opacity="0"/>
</radialGradient>
<radialGradient id="paint49_radial_28327_6540" cx="0" cy="0" r="1" gradientUnits="userSpaceOnUse" gradientTransform="translate(4.60742 15.7169) rotate(125.838) scale(0.867328 0.773258)">
<stop offset="0.00558659" stop-color="#433437"/>
<stop offset="1" stop-color="#3B2838"/>
</radialGradient>
<radialGradient id="paint50_radial_28327_6540" cx="0" cy="0" r="1" gradientUnits="userSpaceOnUse" gradientTransform="translate(4.65545 15.7617) rotate(137.643) scale(0.449325 0.395297)">
<stop stop-color="#5C5051"/>
<stop offset="1" stop-color="#5C5051" stop-opacity="0"/>
</radialGradient>
<linearGradient id="paint51_linear_28327_6540" x1="4.299" y1="15.4271" x2="3.86932" y2="15.1536" gradientUnits="userSpaceOnUse">
<stop stop-color="#5C5051" stop-opacity="0"/>
<stop offset="1" stop-color="#5C5051"/>
</linearGradient>
<linearGradient id="paint52_linear_28327_6540" x1="24" y1="10.1055" x2="24" y2="24.793" gradientUnits="userSpaceOnUse">
<stop stop-color="#C1DA5B"/>
<stop offset="1" stop-color="#9FD281"/>
</linearGradient>
<linearGradient id="paint53_linear_28327_6540" x1="23.4375" y1="10.293" x2="17.25" y2="20.4492" gradientUnits="userSpaceOnUse">
<stop stop-color="#C2E471"/>
<stop offset="1" stop-color="#94CB83"/>
</linearGradient>
</defs>
</svg>
