<svg width="32" height="32" viewBox="0 0 32 32" fill="none" xmlns="http://www.w3.org/2000/svg">
<path d="M16.3551 15.2537C16.6051 15.2637 16.8651 15.2837 17.1251 15.3037C16.8651 15.2837 16.6151 15.2637 16.3551 15.2537Z" fill="url(#paint0_linear_3_1290)"/>
<path d="M16.0251 15.2537C16.0151 15.2537 16.0051 15.2537 15.9851 15.2537C16.0851 15.2537 16.1751 15.2537 16.2751 15.2637C16.1951 15.2537 16.1051 15.2537 16.0251 15.2537Z" fill="url(#paint1_linear_3_1290)"/>
<path d="M8.3288 29.9845C8.33154 29.9306 8.33295 29.8762 8.33295 29.8216C8.33295 28.0886 6.9281 26.6838 5.19519 26.6838C3.46228 26.6838 2.0575 28.0886 2.0575 29.8216C2.0575 29.8762 2.0589 29.9306 2.06165 29.9845H8.3288Z" fill="url(#paint2_radial_3_1290)"/>
<path d="M8.3288 29.9845C8.33154 29.9306 8.33295 29.8762 8.33295 29.8216C8.33295 28.0886 6.9281 26.6838 5.19519 26.6838C3.46228 26.6838 2.0575 28.0886 2.0575 29.8216C2.0575 29.8762 2.0589 29.9306 2.06165 29.9845H8.3288Z" fill="url(#paint3_radial_3_1290)"/>
<path d="M8.3288 29.9845C8.33154 29.9306 8.33295 29.8762 8.33295 29.8216C8.33295 28.0886 6.9281 26.6838 5.19519 26.6838C3.46228 26.6838 2.0575 28.0886 2.0575 29.8216C2.0575 29.8762 2.0589 29.9306 2.06165 29.9845H8.3288Z" fill="url(#paint4_radial_3_1290)"/>
<path d="M29.9384 29.9845C29.9412 29.9306 29.9425 29.8762 29.9425 29.8216C29.9425 28.0886 28.5377 26.6838 26.8048 26.6838C25.0719 26.6838 23.6671 28.0886 23.6671 29.8216C23.6671 29.8762 23.6685 29.9306 23.6713 29.9845H29.9384Z" fill="#FFD2B6"/>
<path d="M29.9384 29.9845C29.9412 29.9306 29.9425 29.8762 29.9425 29.8216C29.9425 28.0886 28.5377 26.6838 26.8048 26.6838C25.0719 26.6838 23.6671 28.0886 23.6671 29.8216C23.6671 29.8762 23.6685 29.9306 23.6713 29.9845H29.9384Z" fill="url(#paint5_radial_3_1290)"/>
<path d="M29.9384 29.9845C29.9412 29.9306 29.9425 29.8762 29.9425 29.8216C29.9425 28.0886 28.5377 26.6838 26.8048 26.6838C25.0719 26.6838 23.6671 28.0886 23.6671 29.8216C23.6671 29.8762 23.6685 29.9306 23.6713 29.9845H29.9384Z" fill="url(#paint6_linear_3_1290)"/>
<path d="M8.98018 17.9844C6.54018 20.0144 5.00018 23.0744 5.01018 26.4844L5.03018 29.9844L9.03018 29.9644L8.98018 17.9844Z" fill="url(#paint7_linear_3_1290)"/>
<path d="M23.0001 17.9944V29.9744H27.0001V26.4744C27.0001 23.0644 25.4401 20.0144 23.0001 17.9944Z" fill="url(#paint8_linear_3_1290)"/>
<g filter="url(#filter0_i_3_1290)">
<path fill-rule="evenodd" clip-rule="evenodd" d="M23.1853 11.9533C23.3978 11.5181 23.5091 11.0323 23.5091 10.5263C23.5091 10.059 23.4129 9.62053 23.2405 9.22084H23.2459C23.1654 9.03985 23.075 8.86886 22.9647 8.70785L22.9626 8.70472C22.6185 8.17848 22.4364 7.56116 22.4364 6.93372V6.9236C22.4364 5.10199 20.9588 3.62447 19.1372 3.62447C18.9551 3.62447 18.783 3.54351 18.6818 3.39171C18.0848 2.56186 17.103 2.01538 15.9999 2.01538C14.8968 2.01538 13.9152 2.56186 13.3181 3.39171C13.2169 3.53339 13.0449 3.62447 12.8627 3.62447C12.8343 3.62447 12.8059 3.62483 12.7777 3.62554C10.9954 3.67067 9.56359 5.13042 9.56359 6.9236V6.93372C9.56359 7.56116 9.38143 8.17848 9.03734 8.70472L9.03505 8.70839C8.69243 9.23383 8.49097 9.84986 8.49097 10.5263C8.49097 11.0424 8.61241 11.5181 8.81481 11.9533C8.88565 12.0949 8.88565 12.267 8.81481 12.4087C8.61241 12.8337 8.49097 13.3093 8.49097 13.8153C8.49097 15.5965 9.92801 17.0335 11.7091 17.0335H20.2909C22.072 17.0335 23.5091 15.5965 23.5091 13.8153C23.5091 13.3093 23.3877 12.8337 23.1853 12.4087C23.1144 12.267 23.1144 12.0949 23.1853 11.9533ZM10.9251 9.28086H10.9128L12.1115 11.6364C12.2348 14.4389 13.3285 11.6364 15.9999 11.6364C18.6714 11.6364 19.8363 14.7558 19.9596 11.9533L21.0955 8.75612C21.0418 7.51129 20.1397 7.42391 19.9596 7.42391H16.7396C15.468 7.42391 14.2682 6.80153 13.5503 5.75062C13.4273 5.57717 13.1709 5.60778 13.0889 5.80164L13.0068 5.9955C12.7812 6.55666 12.3505 6.98519 11.8173 7.23006C11.8019 7.23516 11.7839 7.24281 11.766 7.25046C11.7481 7.25811 11.7301 7.26577 11.7147 7.27087C11.4789 7.3933 10.9251 7.76061 10.9046 8.70949L10.9148 9.01558L10.9251 9.28086Z" fill="url(#paint9_linear_3_1290)"/>
<path fill-rule="evenodd" clip-rule="evenodd" d="M23.1853 11.9533C23.3978 11.5181 23.5091 11.0323 23.5091 10.5263C23.5091 10.059 23.4129 9.62053 23.2405 9.22084H23.2459C23.1654 9.03985 23.075 8.86886 22.9647 8.70785L22.9626 8.70472C22.6185 8.17848 22.4364 7.56116 22.4364 6.93372V6.9236C22.4364 5.10199 20.9588 3.62447 19.1372 3.62447C18.9551 3.62447 18.783 3.54351 18.6818 3.39171C18.0848 2.56186 17.103 2.01538 15.9999 2.01538C14.8968 2.01538 13.9152 2.56186 13.3181 3.39171C13.2169 3.53339 13.0449 3.62447 12.8627 3.62447C12.8343 3.62447 12.8059 3.62483 12.7777 3.62554C10.9954 3.67067 9.56359 5.13042 9.56359 6.9236V6.93372C9.56359 7.56116 9.38143 8.17848 9.03734 8.70472L9.03505 8.70839C8.69243 9.23383 8.49097 9.84986 8.49097 10.5263C8.49097 11.0424 8.61241 11.5181 8.81481 11.9533C8.88565 12.0949 8.88565 12.267 8.81481 12.4087C8.61241 12.8337 8.49097 13.3093 8.49097 13.8153C8.49097 15.5965 9.92801 17.0335 11.7091 17.0335H20.2909C22.072 17.0335 23.5091 15.5965 23.5091 13.8153C23.5091 13.3093 23.3877 12.8337 23.1853 12.4087C23.1144 12.267 23.1144 12.0949 23.1853 11.9533ZM10.9251 9.28086H10.9128L12.1115 11.6364C12.2348 14.4389 13.3285 11.6364 15.9999 11.6364C18.6714 11.6364 19.8363 14.7558 19.9596 11.9533L21.0955 8.75612C21.0418 7.51129 20.1397 7.42391 19.9596 7.42391H16.7396C15.468 7.42391 14.2682 6.80153 13.5503 5.75062C13.4273 5.57717 13.1709 5.60778 13.0889 5.80164L13.0068 5.9955C12.7812 6.55666 12.3505 6.98519 11.8173 7.23006C11.8019 7.23516 11.7839 7.24281 11.766 7.25046C11.7481 7.25811 11.7301 7.26577 11.7147 7.27087C11.4789 7.3933 10.9251 7.76061 10.9046 8.70949L10.9148 9.01558L10.9251 9.28086Z" fill="url(#paint10_radial_3_1290)"/>
<path fill-rule="evenodd" clip-rule="evenodd" d="M23.1853 11.9533C23.3978 11.5181 23.5091 11.0323 23.5091 10.5263C23.5091 10.059 23.4129 9.62053 23.2405 9.22084H23.2459C23.1654 9.03985 23.075 8.86886 22.9647 8.70785L22.9626 8.70472C22.6185 8.17848 22.4364 7.56116 22.4364 6.93372V6.9236C22.4364 5.10199 20.9588 3.62447 19.1372 3.62447C18.9551 3.62447 18.783 3.54351 18.6818 3.39171C18.0848 2.56186 17.103 2.01538 15.9999 2.01538C14.8968 2.01538 13.9152 2.56186 13.3181 3.39171C13.2169 3.53339 13.0449 3.62447 12.8627 3.62447C12.8343 3.62447 12.8059 3.62483 12.7777 3.62554C10.9954 3.67067 9.56359 5.13042 9.56359 6.9236V6.93372C9.56359 7.56116 9.38143 8.17848 9.03734 8.70472L9.03505 8.70839C8.69243 9.23383 8.49097 9.84986 8.49097 10.5263C8.49097 11.0424 8.61241 11.5181 8.81481 11.9533C8.88565 12.0949 8.88565 12.267 8.81481 12.4087C8.61241 12.8337 8.49097 13.3093 8.49097 13.8153C8.49097 15.5965 9.92801 17.0335 11.7091 17.0335H20.2909C22.072 17.0335 23.5091 15.5965 23.5091 13.8153C23.5091 13.3093 23.3877 12.8337 23.1853 12.4087C23.1144 12.267 23.1144 12.0949 23.1853 11.9533ZM10.9251 9.28086H10.9128L12.1115 11.6364C12.2348 14.4389 13.3285 11.6364 15.9999 11.6364C18.6714 11.6364 19.8363 14.7558 19.9596 11.9533L21.0955 8.75612C21.0418 7.51129 20.1397 7.42391 19.9596 7.42391H16.7396C15.468 7.42391 14.2682 6.80153 13.5503 5.75062C13.4273 5.57717 13.1709 5.60778 13.0889 5.80164L13.0068 5.9955C12.7812 6.55666 12.3505 6.98519 11.8173 7.23006C11.8019 7.23516 11.7839 7.24281 11.766 7.25046C11.7481 7.25811 11.7301 7.26577 11.7147 7.27087C11.4789 7.3933 10.9251 7.76061 10.9046 8.70949L10.9148 9.01558L10.9251 9.28086Z" fill="url(#paint11_radial_3_1290)"/>
<path fill-rule="evenodd" clip-rule="evenodd" d="M23.1853 11.9533C23.3978 11.5181 23.5091 11.0323 23.5091 10.5263C23.5091 10.059 23.4129 9.62053 23.2405 9.22084H23.2459C23.1654 9.03985 23.075 8.86886 22.9647 8.70785L22.9626 8.70472C22.6185 8.17848 22.4364 7.56116 22.4364 6.93372V6.9236C22.4364 5.10199 20.9588 3.62447 19.1372 3.62447C18.9551 3.62447 18.783 3.54351 18.6818 3.39171C18.0848 2.56186 17.103 2.01538 15.9999 2.01538C14.8968 2.01538 13.9152 2.56186 13.3181 3.39171C13.2169 3.53339 13.0449 3.62447 12.8627 3.62447C12.8343 3.62447 12.8059 3.62483 12.7777 3.62554C10.9954 3.67067 9.56359 5.13042 9.56359 6.9236V6.93372C9.56359 7.56116 9.38143 8.17848 9.03734 8.70472L9.03505 8.70839C8.69243 9.23383 8.49097 9.84986 8.49097 10.5263C8.49097 11.0424 8.61241 11.5181 8.81481 11.9533C8.88565 12.0949 8.88565 12.267 8.81481 12.4087C8.61241 12.8337 8.49097 13.3093 8.49097 13.8153C8.49097 15.5965 9.92801 17.0335 11.7091 17.0335H20.2909C22.072 17.0335 23.5091 15.5965 23.5091 13.8153C23.5091 13.3093 23.3877 12.8337 23.1853 12.4087C23.1144 12.267 23.1144 12.0949 23.1853 11.9533ZM10.9251 9.28086H10.9128L12.1115 11.6364C12.2348 14.4389 13.3285 11.6364 15.9999 11.6364C18.6714 11.6364 19.8363 14.7558 19.9596 11.9533L21.0955 8.75612C21.0418 7.51129 20.1397 7.42391 19.9596 7.42391H16.7396C15.468 7.42391 14.2682 6.80153 13.5503 5.75062C13.4273 5.57717 13.1709 5.60778 13.0889 5.80164L13.0068 5.9955C12.7812 6.55666 12.3505 6.98519 11.8173 7.23006C11.8019 7.23516 11.7839 7.24281 11.766 7.25046C11.7481 7.25811 11.7301 7.26577 11.7147 7.27087C11.4789 7.3933 10.9251 7.76061 10.9046 8.70949L10.9148 9.01558L10.9251 9.28086Z" fill="url(#paint12_radial_3_1290)"/>
<path fill-rule="evenodd" clip-rule="evenodd" d="M23.1853 11.9533C23.3978 11.5181 23.5091 11.0323 23.5091 10.5263C23.5091 10.059 23.4129 9.62053 23.2405 9.22084H23.2459C23.1654 9.03985 23.075 8.86886 22.9647 8.70785L22.9626 8.70472C22.6185 8.17848 22.4364 7.56116 22.4364 6.93372V6.9236C22.4364 5.10199 20.9588 3.62447 19.1372 3.62447C18.9551 3.62447 18.783 3.54351 18.6818 3.39171C18.0848 2.56186 17.103 2.01538 15.9999 2.01538C14.8968 2.01538 13.9152 2.56186 13.3181 3.39171C13.2169 3.53339 13.0449 3.62447 12.8627 3.62447C12.8343 3.62447 12.8059 3.62483 12.7777 3.62554C10.9954 3.67067 9.56359 5.13042 9.56359 6.9236V6.93372C9.56359 7.56116 9.38143 8.17848 9.03734 8.70472L9.03505 8.70839C8.69243 9.23383 8.49097 9.84986 8.49097 10.5263C8.49097 11.0424 8.61241 11.5181 8.81481 11.9533C8.88565 12.0949 8.88565 12.267 8.81481 12.4087C8.61241 12.8337 8.49097 13.3093 8.49097 13.8153C8.49097 15.5965 9.92801 17.0335 11.7091 17.0335H20.2909C22.072 17.0335 23.5091 15.5965 23.5091 13.8153C23.5091 13.3093 23.3877 12.8337 23.1853 12.4087C23.1144 12.267 23.1144 12.0949 23.1853 11.9533ZM10.9251 9.28086H10.9128L12.1115 11.6364C12.2348 14.4389 13.3285 11.6364 15.9999 11.6364C18.6714 11.6364 19.8363 14.7558 19.9596 11.9533L21.0955 8.75612C21.0418 7.51129 20.1397 7.42391 19.9596 7.42391H16.7396C15.468 7.42391 14.2682 6.80153 13.5503 5.75062C13.4273 5.57717 13.1709 5.60778 13.0889 5.80164L13.0068 5.9955C12.7812 6.55666 12.3505 6.98519 11.8173 7.23006C11.8019 7.23516 11.7839 7.24281 11.766 7.25046C11.7481 7.25811 11.7301 7.26577 11.7147 7.27087C11.4789 7.3933 10.9251 7.76061 10.9046 8.70949L10.9148 9.01558L10.9251 9.28086Z" fill="url(#paint13_radial_3_1290)"/>
<path fill-rule="evenodd" clip-rule="evenodd" d="M23.1853 11.9533C23.3978 11.5181 23.5091 11.0323 23.5091 10.5263C23.5091 10.059 23.4129 9.62053 23.2405 9.22084H23.2459C23.1654 9.03985 23.075 8.86886 22.9647 8.70785L22.9626 8.70472C22.6185 8.17848 22.4364 7.56116 22.4364 6.93372V6.9236C22.4364 5.10199 20.9588 3.62447 19.1372 3.62447C18.9551 3.62447 18.783 3.54351 18.6818 3.39171C18.0848 2.56186 17.103 2.01538 15.9999 2.01538C14.8968 2.01538 13.9152 2.56186 13.3181 3.39171C13.2169 3.53339 13.0449 3.62447 12.8627 3.62447C12.8343 3.62447 12.8059 3.62483 12.7777 3.62554C10.9954 3.67067 9.56359 5.13042 9.56359 6.9236V6.93372C9.56359 7.56116 9.38143 8.17848 9.03734 8.70472L9.03505 8.70839C8.69243 9.23383 8.49097 9.84986 8.49097 10.5263C8.49097 11.0424 8.61241 11.5181 8.81481 11.9533C8.88565 12.0949 8.88565 12.267 8.81481 12.4087C8.61241 12.8337 8.49097 13.3093 8.49097 13.8153C8.49097 15.5965 9.92801 17.0335 11.7091 17.0335H20.2909C22.072 17.0335 23.5091 15.5965 23.5091 13.8153C23.5091 13.3093 23.3877 12.8337 23.1853 12.4087C23.1144 12.267 23.1144 12.0949 23.1853 11.9533ZM10.9251 9.28086H10.9128L12.1115 11.6364C12.2348 14.4389 13.3285 11.6364 15.9999 11.6364C18.6714 11.6364 19.8363 14.7558 19.9596 11.9533L21.0955 8.75612C21.0418 7.51129 20.1397 7.42391 19.9596 7.42391H16.7396C15.468 7.42391 14.2682 6.80153 13.5503 5.75062C13.4273 5.57717 13.1709 5.60778 13.0889 5.80164L13.0068 5.9955C12.7812 6.55666 12.3505 6.98519 11.8173 7.23006C11.8019 7.23516 11.7839 7.24281 11.766 7.25046C11.7481 7.25811 11.7301 7.26577 11.7147 7.27087C11.4789 7.3933 10.9251 7.76061 10.9046 8.70949L10.9148 9.01558L10.9251 9.28086Z" fill="url(#paint14_radial_3_1290)"/>
<path fill-rule="evenodd" clip-rule="evenodd" d="M23.1853 11.9533C23.3978 11.5181 23.5091 11.0323 23.5091 10.5263C23.5091 10.059 23.4129 9.62053 23.2405 9.22084H23.2459C23.1654 9.03985 23.075 8.86886 22.9647 8.70785L22.9626 8.70472C22.6185 8.17848 22.4364 7.56116 22.4364 6.93372V6.9236C22.4364 5.10199 20.9588 3.62447 19.1372 3.62447C18.9551 3.62447 18.783 3.54351 18.6818 3.39171C18.0848 2.56186 17.103 2.01538 15.9999 2.01538C14.8968 2.01538 13.9152 2.56186 13.3181 3.39171C13.2169 3.53339 13.0449 3.62447 12.8627 3.62447C12.8343 3.62447 12.8059 3.62483 12.7777 3.62554C10.9954 3.67067 9.56359 5.13042 9.56359 6.9236V6.93372C9.56359 7.56116 9.38143 8.17848 9.03734 8.70472L9.03505 8.70839C8.69243 9.23383 8.49097 9.84986 8.49097 10.5263C8.49097 11.0424 8.61241 11.5181 8.81481 11.9533C8.88565 12.0949 8.88565 12.267 8.81481 12.4087C8.61241 12.8337 8.49097 13.3093 8.49097 13.8153C8.49097 15.5965 9.92801 17.0335 11.7091 17.0335H20.2909C22.072 17.0335 23.5091 15.5965 23.5091 13.8153C23.5091 13.3093 23.3877 12.8337 23.1853 12.4087C23.1144 12.267 23.1144 12.0949 23.1853 11.9533ZM10.9251 9.28086H10.9128L12.1115 11.6364C12.2348 14.4389 13.3285 11.6364 15.9999 11.6364C18.6714 11.6364 19.8363 14.7558 19.9596 11.9533L21.0955 8.75612C21.0418 7.51129 20.1397 7.42391 19.9596 7.42391H16.7396C15.468 7.42391 14.2682 6.80153 13.5503 5.75062C13.4273 5.57717 13.1709 5.60778 13.0889 5.80164L13.0068 5.9955C12.7812 6.55666 12.3505 6.98519 11.8173 7.23006C11.8019 7.23516 11.7839 7.24281 11.766 7.25046C11.7481 7.25811 11.7301 7.26577 11.7147 7.27087C11.4789 7.3933 10.9251 7.76061 10.9046 8.70949L10.9148 9.01558L10.9251 9.28086Z" fill="url(#paint15_radial_3_1290)"/>
<path fill-rule="evenodd" clip-rule="evenodd" d="M23.1853 11.9533C23.3978 11.5181 23.5091 11.0323 23.5091 10.5263C23.5091 10.059 23.4129 9.62053 23.2405 9.22084H23.2459C23.1654 9.03985 23.075 8.86886 22.9647 8.70785L22.9626 8.70472C22.6185 8.17848 22.4364 7.56116 22.4364 6.93372V6.9236C22.4364 5.10199 20.9588 3.62447 19.1372 3.62447C18.9551 3.62447 18.783 3.54351 18.6818 3.39171C18.0848 2.56186 17.103 2.01538 15.9999 2.01538C14.8968 2.01538 13.9152 2.56186 13.3181 3.39171C13.2169 3.53339 13.0449 3.62447 12.8627 3.62447C12.8343 3.62447 12.8059 3.62483 12.7777 3.62554C10.9954 3.67067 9.56359 5.13042 9.56359 6.9236V6.93372C9.56359 7.56116 9.38143 8.17848 9.03734 8.70472L9.03505 8.70839C8.69243 9.23383 8.49097 9.84986 8.49097 10.5263C8.49097 11.0424 8.61241 11.5181 8.81481 11.9533C8.88565 12.0949 8.88565 12.267 8.81481 12.4087C8.61241 12.8337 8.49097 13.3093 8.49097 13.8153C8.49097 15.5965 9.92801 17.0335 11.7091 17.0335H20.2909C22.072 17.0335 23.5091 15.5965 23.5091 13.8153C23.5091 13.3093 23.3877 12.8337 23.1853 12.4087C23.1144 12.267 23.1144 12.0949 23.1853 11.9533ZM10.9251 9.28086H10.9128L12.1115 11.6364C12.2348 14.4389 13.3285 11.6364 15.9999 11.6364C18.6714 11.6364 19.8363 14.7558 19.9596 11.9533L21.0955 8.75612C21.0418 7.51129 20.1397 7.42391 19.9596 7.42391H16.7396C15.468 7.42391 14.2682 6.80153 13.5503 5.75062C13.4273 5.57717 13.1709 5.60778 13.0889 5.80164L13.0068 5.9955C12.7812 6.55666 12.3505 6.98519 11.8173 7.23006C11.8019 7.23516 11.7839 7.24281 11.766 7.25046C11.7481 7.25811 11.7301 7.26577 11.7147 7.27087C11.4789 7.3933 10.9251 7.76061 10.9046 8.70949L10.9148 9.01558L10.9251 9.28086Z" fill="url(#paint16_radial_3_1290)"/>
<path fill-rule="evenodd" clip-rule="evenodd" d="M23.1853 11.9533C23.3978 11.5181 23.5091 11.0323 23.5091 10.5263C23.5091 10.059 23.4129 9.62053 23.2405 9.22084H23.2459C23.1654 9.03985 23.075 8.86886 22.9647 8.70785L22.9626 8.70472C22.6185 8.17848 22.4364 7.56116 22.4364 6.93372V6.9236C22.4364 5.10199 20.9588 3.62447 19.1372 3.62447C18.9551 3.62447 18.783 3.54351 18.6818 3.39171C18.0848 2.56186 17.103 2.01538 15.9999 2.01538C14.8968 2.01538 13.9152 2.56186 13.3181 3.39171C13.2169 3.53339 13.0449 3.62447 12.8627 3.62447C12.8343 3.62447 12.8059 3.62483 12.7777 3.62554C10.9954 3.67067 9.56359 5.13042 9.56359 6.9236V6.93372C9.56359 7.56116 9.38143 8.17848 9.03734 8.70472L9.03505 8.70839C8.69243 9.23383 8.49097 9.84986 8.49097 10.5263C8.49097 11.0424 8.61241 11.5181 8.81481 11.9533C8.88565 12.0949 8.88565 12.267 8.81481 12.4087C8.61241 12.8337 8.49097 13.3093 8.49097 13.8153C8.49097 15.5965 9.92801 17.0335 11.7091 17.0335H20.2909C22.072 17.0335 23.5091 15.5965 23.5091 13.8153C23.5091 13.3093 23.3877 12.8337 23.1853 12.4087C23.1144 12.267 23.1144 12.0949 23.1853 11.9533ZM10.9251 9.28086H10.9128L12.1115 11.6364C12.2348 14.4389 13.3285 11.6364 15.9999 11.6364C18.6714 11.6364 19.8363 14.7558 19.9596 11.9533L21.0955 8.75612C21.0418 7.51129 20.1397 7.42391 19.9596 7.42391H16.7396C15.468 7.42391 14.2682 6.80153 13.5503 5.75062C13.4273 5.57717 13.1709 5.60778 13.0889 5.80164L13.0068 5.9955C12.7812 6.55666 12.3505 6.98519 11.8173 7.23006C11.8019 7.23516 11.7839 7.24281 11.766 7.25046C11.7481 7.25811 11.7301 7.26577 11.7147 7.27087C11.4789 7.3933 10.9251 7.76061 10.9046 8.70949L10.9148 9.01558L10.9251 9.28086Z" fill="url(#paint17_radial_3_1290)"/>
<path fill-rule="evenodd" clip-rule="evenodd" d="M23.1853 11.9533C23.3978 11.5181 23.5091 11.0323 23.5091 10.5263C23.5091 10.059 23.4129 9.62053 23.2405 9.22084H23.2459C23.1654 9.03985 23.075 8.86886 22.9647 8.70785L22.9626 8.70472C22.6185 8.17848 22.4364 7.56116 22.4364 6.93372V6.9236C22.4364 5.10199 20.9588 3.62447 19.1372 3.62447C18.9551 3.62447 18.783 3.54351 18.6818 3.39171C18.0848 2.56186 17.103 2.01538 15.9999 2.01538C14.8968 2.01538 13.9152 2.56186 13.3181 3.39171C13.2169 3.53339 13.0449 3.62447 12.8627 3.62447C12.8343 3.62447 12.8059 3.62483 12.7777 3.62554C10.9954 3.67067 9.56359 5.13042 9.56359 6.9236V6.93372C9.56359 7.56116 9.38143 8.17848 9.03734 8.70472L9.03505 8.70839C8.69243 9.23383 8.49097 9.84986 8.49097 10.5263C8.49097 11.0424 8.61241 11.5181 8.81481 11.9533C8.88565 12.0949 8.88565 12.267 8.81481 12.4087C8.61241 12.8337 8.49097 13.3093 8.49097 13.8153C8.49097 15.5965 9.92801 17.0335 11.7091 17.0335H20.2909C22.072 17.0335 23.5091 15.5965 23.5091 13.8153C23.5091 13.3093 23.3877 12.8337 23.1853 12.4087C23.1144 12.267 23.1144 12.0949 23.1853 11.9533ZM10.9251 9.28086H10.9128L12.1115 11.6364C12.2348 14.4389 13.3285 11.6364 15.9999 11.6364C18.6714 11.6364 19.8363 14.7558 19.9596 11.9533L21.0955 8.75612C21.0418 7.51129 20.1397 7.42391 19.9596 7.42391H16.7396C15.468 7.42391 14.2682 6.80153 13.5503 5.75062C13.4273 5.57717 13.1709 5.60778 13.0889 5.80164L13.0068 5.9955C12.7812 6.55666 12.3505 6.98519 11.8173 7.23006C11.8019 7.23516 11.7839 7.24281 11.766 7.25046C11.7481 7.25811 11.7301 7.26577 11.7147 7.27087C11.4789 7.3933 10.9251 7.76061 10.9046 8.70949L10.9148 9.01558L10.9251 9.28086Z" fill="url(#paint18_radial_3_1290)"/>
<path fill-rule="evenodd" clip-rule="evenodd" d="M23.1853 11.9533C23.3978 11.5181 23.5091 11.0323 23.5091 10.5263C23.5091 10.059 23.4129 9.62053 23.2405 9.22084H23.2459C23.1654 9.03985 23.075 8.86886 22.9647 8.70785L22.9626 8.70472C22.6185 8.17848 22.4364 7.56116 22.4364 6.93372V6.9236C22.4364 5.10199 20.9588 3.62447 19.1372 3.62447C18.9551 3.62447 18.783 3.54351 18.6818 3.39171C18.0848 2.56186 17.103 2.01538 15.9999 2.01538C14.8968 2.01538 13.9152 2.56186 13.3181 3.39171C13.2169 3.53339 13.0449 3.62447 12.8627 3.62447C12.8343 3.62447 12.8059 3.62483 12.7777 3.62554C10.9954 3.67067 9.56359 5.13042 9.56359 6.9236V6.93372C9.56359 7.56116 9.38143 8.17848 9.03734 8.70472L9.03505 8.70839C8.69243 9.23383 8.49097 9.84986 8.49097 10.5263C8.49097 11.0424 8.61241 11.5181 8.81481 11.9533C8.88565 12.0949 8.88565 12.267 8.81481 12.4087C8.61241 12.8337 8.49097 13.3093 8.49097 13.8153C8.49097 15.5965 9.92801 17.0335 11.7091 17.0335H20.2909C22.072 17.0335 23.5091 15.5965 23.5091 13.8153C23.5091 13.3093 23.3877 12.8337 23.1853 12.4087C23.1144 12.267 23.1144 12.0949 23.1853 11.9533ZM10.9251 9.28086H10.9128L12.1115 11.6364C12.2348 14.4389 13.3285 11.6364 15.9999 11.6364C18.6714 11.6364 19.8363 14.7558 19.9596 11.9533L21.0955 8.75612C21.0418 7.51129 20.1397 7.42391 19.9596 7.42391H16.7396C15.468 7.42391 14.2682 6.80153 13.5503 5.75062C13.4273 5.57717 13.1709 5.60778 13.0889 5.80164L13.0068 5.9955C12.7812 6.55666 12.3505 6.98519 11.8173 7.23006C11.8019 7.23516 11.7839 7.24281 11.766 7.25046C11.7481 7.25811 11.7301 7.26577 11.7147 7.27087C11.4789 7.3933 10.9251 7.76061 10.9046 8.70949L10.9148 9.01558L10.9251 9.28086Z" fill="url(#paint19_radial_3_1290)"/>
</g>
<g filter="url(#filter1_i_3_1290)">
<path d="M11.3144 12.1527C12.2031 12.1527 12.9235 11.4323 12.9235 10.5437C12.9235 9.65498 12.2031 8.93457 11.3144 8.93457C10.4257 8.93457 9.70532 9.65498 9.70532 10.5437C9.70532 11.4323 10.4257 12.1527 11.3144 12.1527Z" fill="url(#paint20_linear_3_1290)"/>
</g>
<g filter="url(#filter2_i_3_1290)">
<path d="M20.8273 12.1527C21.716 12.1527 22.4364 11.4323 22.4364 10.5437C22.4364 9.65498 21.716 8.93457 20.8273 8.93457C19.9387 8.93457 19.2183 9.65498 19.2183 10.5437C19.2183 11.4323 19.9387 12.1527 20.8273 12.1527Z" fill="url(#paint21_radial_3_1290)"/>
<path d="M20.8273 12.1527C21.716 12.1527 22.4364 11.4323 22.4364 10.5437C22.4364 9.65498 21.716 8.93457 20.8273 8.93457C19.9387 8.93457 19.2183 9.65498 19.2183 10.5437C19.2183 11.4323 19.9387 12.1527 20.8273 12.1527Z" fill="url(#paint22_radial_3_1290)"/>
</g>
<g filter="url(#filter3_f_3_1290)">
<path d="M20.8273 11.6177C21.4205 11.6177 21.9014 11.1368 21.9014 10.5436C21.9014 9.95038 21.4205 9.46948 20.8273 9.46948C20.2341 9.46948 19.7532 9.95038 19.7532 10.5436C19.7532 11.1368 20.2341 11.6177 20.8273 11.6177Z" fill="#F6BCA5"/>
<path d="M20.8273 11.6177C21.4205 11.6177 21.9014 11.1368 21.9014 10.5436C21.9014 9.95038 21.4205 9.46948 20.8273 9.46948C20.2341 9.46948 19.7532 9.95038 19.7532 10.5436C19.7532 11.1368 20.2341 11.6177 20.8273 11.6177Z" fill="url(#paint23_radial_3_1290)"/>
</g>
<g filter="url(#filter4_f_3_1290)">
<path d="M11.3336 11.6177C11.9268 11.6177 12.4077 11.1368 12.4077 10.5436C12.4077 9.95038 11.9268 9.46948 11.3336 9.46948C10.7404 9.46948 10.2595 9.95038 10.2595 10.5436C10.2595 11.1368 10.7404 11.6177 11.3336 11.6177Z" fill="#C58C80"/>
<path d="M11.3336 11.6177C11.9268 11.6177 12.4077 11.1368 12.4077 10.5436C12.4077 9.95038 11.9268 9.46948 11.3336 9.46948C10.7404 9.46948 10.2595 9.95038 10.2595 10.5436C10.2595 11.1368 10.7404 11.6177 11.3336 11.6177Z" fill="url(#paint24_radial_3_1290)"/>
</g>
<g filter="url(#filter5_i_3_1290)">
<path d="M10.9129 9.28088H10.9252L10.9149 9.0156L10.9047 8.70951C10.9252 7.76063 11.4789 7.39333 11.7148 7.27089C11.7302 7.26579 11.7481 7.25814 11.7661 7.25048C11.784 7.24283 11.802 7.23518 11.8173 7.23008C12.3506 6.98521 12.7813 6.55668 13.0069 5.99552L13.0889 5.80166C13.171 5.6078 13.4273 5.57719 13.5504 5.75065C14.2682 6.80155 15.4681 7.42393 16.7397 7.42393H19.9597C20.1397 7.42393 21.0418 7.51131 21.0955 8.75614L20.9768 11.8292C20.8535 14.6317 18.665 16.5135 15.9935 16.5135C13.3221 16.5135 11.1336 14.6317 11.0103 11.8292L10.9129 9.28088Z" fill="url(#paint25_radial_3_1290)"/>
<path d="M10.9129 9.28088H10.9252L10.9149 9.0156L10.9047 8.70951C10.9252 7.76063 11.4789 7.39333 11.7148 7.27089C11.7302 7.26579 11.7481 7.25814 11.7661 7.25048C11.784 7.24283 11.802 7.23518 11.8173 7.23008C12.3506 6.98521 12.7813 6.55668 13.0069 5.99552L13.0889 5.80166C13.171 5.6078 13.4273 5.57719 13.5504 5.75065C14.2682 6.80155 15.4681 7.42393 16.7397 7.42393H19.9597C20.1397 7.42393 21.0418 7.51131 21.0955 8.75614L20.9768 11.8292C20.8535 14.6317 18.665 16.5135 15.9935 16.5135C13.3221 16.5135 11.1336 14.6317 11.0103 11.8292L10.9129 9.28088Z" fill="url(#paint26_radial_3_1290)"/>
<path d="M10.9129 9.28088H10.9252L10.9149 9.0156L10.9047 8.70951C10.9252 7.76063 11.4789 7.39333 11.7148 7.27089C11.7302 7.26579 11.7481 7.25814 11.7661 7.25048C11.784 7.24283 11.802 7.23518 11.8173 7.23008C12.3506 6.98521 12.7813 6.55668 13.0069 5.99552L13.0889 5.80166C13.171 5.6078 13.4273 5.57719 13.5504 5.75065C14.2682 6.80155 15.4681 7.42393 16.7397 7.42393H19.9597C20.1397 7.42393 21.0418 7.51131 21.0955 8.75614L20.9768 11.8292C20.8535 14.6317 18.665 16.5135 15.9935 16.5135C13.3221 16.5135 11.1336 14.6317 11.0103 11.8292L10.9129 9.28088Z" fill="url(#paint27_radial_3_1290)"/>
<path d="M10.9129 9.28088H10.9252L10.9149 9.0156L10.9047 8.70951C10.9252 7.76063 11.4789 7.39333 11.7148 7.27089C11.7302 7.26579 11.7481 7.25814 11.7661 7.25048C11.784 7.24283 11.802 7.23518 11.8173 7.23008C12.3506 6.98521 12.7813 6.55668 13.0069 5.99552L13.0889 5.80166C13.171 5.6078 13.4273 5.57719 13.5504 5.75065C14.2682 6.80155 15.4681 7.42393 16.7397 7.42393H19.9597C20.1397 7.42393 21.0418 7.51131 21.0955 8.75614L20.9768 11.8292C20.8535 14.6317 18.665 16.5135 15.9935 16.5135C13.3221 16.5135 11.1336 14.6317 11.0103 11.8292L10.9129 9.28088Z" fill="url(#paint28_radial_3_1290)"/>
<path d="M10.9129 9.28088H10.9252L10.9149 9.0156L10.9047 8.70951C10.9252 7.76063 11.4789 7.39333 11.7148 7.27089C11.7302 7.26579 11.7481 7.25814 11.7661 7.25048C11.784 7.24283 11.802 7.23518 11.8173 7.23008C12.3506 6.98521 12.7813 6.55668 13.0069 5.99552L13.0889 5.80166C13.171 5.6078 13.4273 5.57719 13.5504 5.75065C14.2682 6.80155 15.4681 7.42393 16.7397 7.42393H19.9597C20.1397 7.42393 21.0418 7.51131 21.0955 8.75614L20.9768 11.8292C20.8535 14.6317 18.665 16.5135 15.9935 16.5135C13.3221 16.5135 11.1336 14.6317 11.0103 11.8292L10.9129 9.28088Z" fill="url(#paint29_radial_3_1290)"/>
<path d="M10.9129 9.28088H10.9252L10.9149 9.0156L10.9047 8.70951C10.9252 7.76063 11.4789 7.39333 11.7148 7.27089C11.7302 7.26579 11.7481 7.25814 11.7661 7.25048C11.784 7.24283 11.802 7.23518 11.8173 7.23008C12.3506 6.98521 12.7813 6.55668 13.0069 5.99552L13.0889 5.80166C13.171 5.6078 13.4273 5.57719 13.5504 5.75065C14.2682 6.80155 15.4681 7.42393 16.7397 7.42393H19.9597C20.1397 7.42393 21.0418 7.51131 21.0955 8.75614L20.9768 11.8292C20.8535 14.6317 18.665 16.5135 15.9935 16.5135C13.3221 16.5135 11.1336 14.6317 11.0103 11.8292L10.9129 9.28088Z" fill="url(#paint30_radial_3_1290)"/>
<path d="M10.9129 9.28088H10.9252L10.9149 9.0156L10.9047 8.70951C10.9252 7.76063 11.4789 7.39333 11.7148 7.27089C11.7302 7.26579 11.7481 7.25814 11.7661 7.25048C11.784 7.24283 11.802 7.23518 11.8173 7.23008C12.3506 6.98521 12.7813 6.55668 13.0069 5.99552L13.0889 5.80166C13.171 5.6078 13.4273 5.57719 13.5504 5.75065C14.2682 6.80155 15.4681 7.42393 16.7397 7.42393H19.9597C20.1397 7.42393 21.0418 7.51131 21.0955 8.75614L20.9768 11.8292C20.8535 14.6317 18.665 16.5135 15.9935 16.5135C13.3221 16.5135 11.1336 14.6317 11.0103 11.8292L10.9129 9.28088Z" fill="url(#paint31_radial_3_1290)"/>
</g>
<path d="M10.9129 9.28088H10.9252L10.9149 9.0156L10.9047 8.70951C10.9252 7.76063 11.4789 7.39333 11.7148 7.27089C11.7302 7.26579 11.7481 7.25814 11.7661 7.25048C11.784 7.24283 11.802 7.23518 11.8173 7.23008C12.3506 6.98521 12.7813 6.55668 13.0069 5.99552L13.0889 5.80166C13.171 5.6078 13.4273 5.57719 13.5504 5.75065C14.2682 6.80155 15.4681 7.42393 16.7397 7.42393H19.9597C20.1397 7.42393 21.0418 7.51131 21.0955 8.75614L20.9768 11.8292C20.8535 14.6317 18.665 16.5135 15.9935 16.5135C13.3221 16.5135 11.1336 14.6317 11.0103 11.8292L10.9129 9.28088Z" fill="url(#paint32_radial_3_1290)"/>
<path d="M10.9129 9.28088H10.9252L10.9149 9.0156L10.9047 8.70951C10.9252 7.76063 11.4789 7.39333 11.7148 7.27089C11.7302 7.26579 11.7481 7.25814 11.7661 7.25048C11.784 7.24283 11.802 7.23518 11.8173 7.23008C12.3506 6.98521 12.7813 6.55668 13.0069 5.99552L13.0889 5.80166C13.171 5.6078 13.4273 5.57719 13.5504 5.75065C14.2682 6.80155 15.4681 7.42393 16.7397 7.42393H19.9597C20.1397 7.42393 21.0418 7.51131 21.0955 8.75614L20.9768 11.8292C20.8535 14.6317 18.665 16.5135 15.9935 16.5135C13.3221 16.5135 11.1336 14.6317 11.0103 11.8292L10.9129 9.28088Z" fill="url(#paint33_radial_3_1290)"/>
<g filter="url(#filter6_f_3_1290)">
<path d="M15.6074 10.3208L14.9239 12.0208C14.8154 12.3705 15.0757 12.7201 15.4445 12.7201H16.2309C16.5996 12.7201 16.86 12.3651 16.7515 12.0208L16.22 10.3208C16.1061 9.94418 15.7268 9.94418 15.6074 10.3208Z" fill="#D19590"/>
</g>
<g filter="url(#filter7_f_3_1290)">
<path d="M15.6177 10.1823L15.0862 11.8823C14.9778 12.232 15.2381 12.5817 15.6069 12.5817H16.3932C16.762 12.5817 17.0223 12.2266 16.9138 11.8823L16.3824 10.1823C16.2685 9.80576 15.737 9.80576 15.6177 10.1823Z" fill="#F1C4B2"/>
<path d="M15.6177 10.1823L15.0862 11.8823C14.9778 12.232 15.2381 12.5817 15.6069 12.5817H16.3932C16.762 12.5817 17.0223 12.2266 16.9138 11.8823L16.3824 10.1823C16.2685 9.80576 15.737 9.80576 15.6177 10.1823Z" fill="url(#paint34_radial_3_1290)"/>
<path d="M15.6177 10.1823L15.0862 11.8823C14.9778 12.232 15.2381 12.5817 15.6069 12.5817H16.3932C16.762 12.5817 17.0223 12.2266 16.9138 11.8823L16.3824 10.1823C16.2685 9.80576 15.737 9.80576 15.6177 10.1823Z" fill="url(#paint35_linear_3_1290)"/>
<path d="M15.6177 10.1823L15.0862 11.8823C14.9778 12.232 15.2381 12.5817 15.6069 12.5817H16.3932C16.762 12.5817 17.0223 12.2266 16.9138 11.8823L16.3824 10.1823C16.2685 9.80576 15.737 9.80576 15.6177 10.1823Z" fill="url(#paint36_linear_3_1290)"/>
<path d="M15.6177 10.1823L15.0862 11.8823C14.9778 12.232 15.2381 12.5817 15.6069 12.5817H16.3932C16.762 12.5817 17.0223 12.2266 16.9138 11.8823L16.3824 10.1823C16.2685 9.80576 15.737 9.80576 15.6177 10.1823Z" fill="url(#paint37_radial_3_1290)"/>
</g>
<path d="M15.6177 10.1823L15.0862 11.8823C14.9778 12.232 15.2381 12.5817 15.6069 12.5817H16.3932C16.762 12.5817 17.0223 12.2266 16.9138 11.8823L16.3824 10.1823C16.2685 9.80576 15.737 9.80576 15.6177 10.1823Z" fill="url(#paint38_linear_3_1290)"/>
<path d="M15.6177 10.1823L15.0862 11.8823C14.9778 12.232 15.2381 12.5817 15.6069 12.5817H16.3932C16.762 12.5817 17.0223 12.2266 16.9138 11.8823L16.3824 10.1823C16.2685 9.80576 15.737 9.80576 15.6177 10.1823Z" fill="url(#paint39_radial_3_1290)"/>
<path d="M14.602 13.0663L14.602 13.0663C15.0059 13.2817 15.4873 13.4051 16.0001 13.4051C16.518 13.4051 16.9942 13.2817 17.3982 13.0663L17.3986 13.0661L17.3986 13.0661C17.4909 13.018 17.5877 13.046 17.6455 13.1075C17.7038 13.1693 17.7249 13.2677 17.6667 13.357M14.602 13.0663L17.6248 13.3298M14.602 13.0663L14.6016 13.0661C14.5085 13.0177 14.4117 13.048 14.3544 13.1097C14.297 13.1715 14.2747 13.2699 14.3337 13.3573M14.602 13.0663L14.3754 13.3298M17.6667 13.357C17.6667 13.357 17.6667 13.357 17.6667 13.3571L17.6248 13.3298M17.6667 13.357C17.6668 13.3569 17.6668 13.3569 17.6668 13.3569L17.6248 13.3298M17.6667 13.357C17.3143 13.9032 16.7 14.2677 16.0001 14.2677C15.3003 14.2677 14.6862 13.9034 14.3337 13.3573M17.6248 13.3298C17.2811 13.8625 16.6822 14.2177 16.0001 14.2177C15.3179 14.2177 14.7191 13.8625 14.3754 13.3298M14.3337 13.3573C14.3338 13.3575 14.3339 13.3577 14.334 13.3578L14.3754 13.3298M14.3337 13.3573C14.3336 13.3572 14.3335 13.357 14.3334 13.3569L14.3754 13.3298" fill="#88024E" stroke="url(#paint40_linear_3_1290)" stroke-width="0.1"/>
<g filter="url(#filter8_i_3_1290)">
<path d="M17.1421 9.97442C17.4075 9.50763 17.811 9.13892 18.6794 9.13892C19.0597 9.13892 19.4263 9.24426 19.7523 9.50763C20.0211 9.72487 19.9851 10.0028 19.7769 10.1069L19.2209 10.4243C18.569 10.2137 17.8482 10.1851 17.1421 9.97442Z" fill="#2D2B2E"/>
</g>
<g filter="url(#filter9_i_3_1290)">
<path d="M14.8582 9.97442C14.5927 9.50763 14.1893 9.13892 13.3208 9.13892C12.9406 9.13892 12.5739 9.24426 12.248 9.50763C11.9792 9.72487 12.0152 10.0028 12.2233 10.1069L12.7794 10.4243C13.4312 10.2137 14.152 10.1851 14.8582 9.97442Z" fill="#272528"/>
</g>
<g filter="url(#filter10_i_3_1290)">
<path d="M12.6024 8.76556L12.5981 8.76809C12.5979 8.76817 12.5978 8.76825 12.5977 8.76832C12.4707 8.8441 12.3062 8.80293 12.2301 8.6761C12.1539 8.5491 12.1952 8.38427 12.3223 8.30807L12.3228 8.30773L12.3239 8.30711L12.3268 8.30537L12.3362 8.29993C12.344 8.29546 12.3549 8.28936 12.3687 8.28191C12.3962 8.26701 12.4353 8.24666 12.4846 8.22313C12.5832 8.17616 12.7236 8.11602 12.8948 8.06139C13.2347 7.95292 13.71 7.86167 14.223 7.95221C14.3689 7.97795 14.4663 8.11706 14.4405 8.26291C14.4148 8.40877 14.2757 8.50615 14.1298 8.48041C13.7311 8.41004 13.3482 8.4797 13.0579 8.57236C12.9139 8.6183 12.7962 8.66879 12.7154 8.7073C12.6751 8.72651 12.6443 8.74262 12.6242 8.75349C12.6142 8.75892 12.6069 8.76303 12.6024 8.76556Z" fill="#1E1E1E"/>
</g>
<g filter="url(#filter11_i_3_1290)">
<path fill-rule="evenodd" clip-rule="evenodd" d="M19.7315 8.30807C19.7316 8.30812 19.7317 8.30816 19.5937 8.53813L19.7315 8.30807C19.8585 8.38427 19.8999 8.5491 19.8237 8.6761C19.7476 8.80294 19.5832 8.84418 19.4563 8.7684C19.4562 8.76835 19.456 8.76826 19.4558 8.76812L19.4513 8.76556C19.4469 8.76303 19.4396 8.75892 19.4296 8.75349C19.4095 8.74262 19.3787 8.72651 19.3384 8.7073C19.2576 8.66879 19.1399 8.6183 18.9959 8.57236C18.7056 8.4797 18.3227 8.41004 17.924 8.48041C17.7781 8.50615 17.639 8.40877 17.6133 8.26291C17.5875 8.11706 17.6849 7.97795 17.8308 7.95221C18.3438 7.86167 18.8191 7.95292 19.159 8.06139C19.3302 8.11602 19.4706 8.17616 19.5691 8.22313C19.6185 8.24666 19.6576 8.26701 19.6851 8.28191C19.6989 8.28936 19.7098 8.29546 19.7176 8.29993L19.727 8.30537L19.7299 8.30711L19.731 8.30773L19.7315 8.30807Z" fill="#1E1E1E"/>
</g>
<path d="M18.391 9.19775C19.0441 9.19775 19.5958 9.64803 19.7459 10.2565C19.7905 10.431 19.6567 10.5973 19.4782 10.5973H17.2471C17.1051 10.5973 16.9915 10.4675 17.0199 10.3255C17.1456 9.68454 17.7095 9.19775 18.391 9.19775Z" fill="white"/>
<path d="M18.1841 9.46948C18.679 9.46948 19.0765 9.87108 19.0765 10.3619C19.0765 10.4431 19.0644 10.5242 19.0441 10.5972H17.3201C17.2998 10.5201 17.2876 10.4431 17.2876 10.3619C17.2876 9.87108 17.6892 9.46948 18.1841 9.46948Z" fill="url(#paint41_radial_3_1290)"/>
<path d="M17.673 10.362C17.673 10.078 17.9001 9.85083 18.1841 9.85083C18.4681 9.85083 18.6952 10.078 18.6952 10.362C18.6952 10.4471 18.6749 10.5283 18.6384 10.5972H17.7338C17.6933 10.5283 17.673 10.4471 17.673 10.362Z" fill="black"/>
<g filter="url(#filter12_f_3_1290)">
<path d="M18.1184 9.65816C18.182 9.7432 18.0491 9.84688 17.898 9.95986C17.7469 10.0728 17.6348 10.1524 17.5712 10.0673C17.5076 9.98227 17.5786 9.82174 17.7297 9.70876C17.8808 9.59577 18.0548 9.57312 18.1184 9.65816Z" fill="#C7A7A3"/>
<path d="M18.1184 9.65816C18.182 9.7432 18.0491 9.84688 17.898 9.95986C17.7469 10.0728 17.6348 10.1524 17.5712 10.0673C17.5076 9.98227 17.5786 9.82174 17.7297 9.70876C17.8808 9.59577 18.0548 9.57312 18.1184 9.65816Z" fill="url(#paint42_radial_3_1290)"/>
</g>
<g filter="url(#filter13_f_3_1290)">
<path d="M18.979 10.2444C18.9461 10.0137 18.8111 9.83984 18.7477 9.78174L18.4878 10.067L18.6051 10.2951L18.979 10.2444Z" fill="url(#paint43_linear_3_1290)"/>
</g>
<path d="M13.609 9.19775C12.9559 9.19775 12.4042 9.64804 12.2541 10.2565C12.2095 10.431 12.3434 10.5973 12.5219 10.5973H14.753C14.895 10.5973 15.0086 10.4675 14.9802 10.3255C14.8544 9.68455 14.2865 9.19775 13.609 9.19775Z" fill="white"/>
<path d="M13.8159 9.46948C13.321 9.46948 12.9235 9.87109 12.9235 10.3619C12.9235 10.4431 12.9356 10.5242 12.9559 10.5972H14.68C14.7003 10.5201 14.7124 10.4431 14.7124 10.3619C14.7084 9.87109 14.3108 9.46948 13.8159 9.46948Z" fill="url(#paint44_radial_3_1290)"/>
<path d="M14.3271 10.362C14.3271 10.078 14.0999 9.85083 13.8159 9.85083C13.532 9.85083 13.3048 10.078 13.3048 10.362C13.3048 10.4472 13.3251 10.5283 13.3616 10.5972H14.2662C14.3027 10.5283 14.3271 10.4472 14.3271 10.362Z" fill="black"/>
<g filter="url(#filter14_f_3_1290)">
<path d="M14.6312 10.257C14.6312 9.96863 14.3967 9.77636 14.3333 9.71826L14.0449 9.99715L14.2224 10.3584L14.6312 10.257Z" fill="url(#paint45_linear_3_1290)"/>
</g>
<g filter="url(#filter15_f_3_1290)">
<ellipse cx="13.5467" cy="9.85073" rx="0.389603" ry="0.197175" transform="rotate(-27.914 13.5467 9.85073)" fill="#C7A7A3" fill-opacity="0.9"/>
<ellipse cx="13.5467" cy="9.85073" rx="0.389603" ry="0.197175" transform="rotate(-27.914 13.5467 9.85073)" fill="url(#paint46_radial_3_1290)"/>
</g>
<g filter="url(#filter16_f_3_1290)">
<path d="M17.9396 8.17082C18.2621 8.09235 19.0642 8.13158 19.6003 8.51517" stroke="#323233" stroke-width="0.2" stroke-linecap="round"/>
</g>
<g filter="url(#filter17_f_3_1290)">
<path d="M14.1487 8.17082C13.8261 8.09235 13.0241 8.13158 12.4879 8.51517" stroke="#323233" stroke-width="0.2" stroke-linecap="round"/>
</g>
<g filter="url(#filter18_if_3_1290)">
<path d="M10.9309 4.5552C11.4966 3.95596 12.5672 3.95501 13.0618 4.0444L13.4575 5.33502C13.2047 5.29591 12.9793 5.38531 12.7898 5.56968C12.3413 6.83013 10.8004 7.52517 10.0859 7.71513C9.93755 6.22337 10.1947 5.33502 10.9309 4.5552Z" fill="#232121"/>
<path d="M10.9309 4.5552C11.4966 3.95596 12.5672 3.95501 13.0618 4.0444L13.4575 5.33502C13.2047 5.29591 12.9793 5.38531 12.7898 5.56968C12.3413 6.83013 10.8004 7.52517 10.0859 7.71513C9.93755 6.22337 10.1947 5.33502 10.9309 4.5552Z" fill="url(#paint47_radial_3_1290)"/>
</g>
<g filter="url(#filter19_if_3_1290)">
<path d="M15.3967 2.75301C14.264 2.50294 13.247 3.63298 13.1296 4.05201C14.1814 7.59703 16.8427 7.40284 19.4697 7.11095C21.0423 6.93622 21.2129 7.6529 21.3469 7.9993C21.3469 4.06659 18.0028 3.32833 15.4253 2.75933L15.3967 2.75301Z" fill="#2A2A2A"/>
<path d="M15.3967 2.75301C14.264 2.50294 13.247 3.63298 13.1296 4.05201C14.1814 7.59703 16.8427 7.40284 19.4697 7.11095C21.0423 6.93622 21.2129 7.6529 21.3469 7.9993C21.3469 4.06659 18.0028 3.32833 15.4253 2.75933L15.3967 2.75301Z" fill="url(#paint48_radial_3_1290)"/>
<path d="M15.3967 2.75301C14.264 2.50294 13.247 3.63298 13.1296 4.05201C14.1814 7.59703 16.8427 7.40284 19.4697 7.11095C21.0423 6.93622 21.2129 7.6529 21.3469 7.9993C21.3469 4.06659 18.0028 3.32833 15.4253 2.75933L15.3967 2.75301Z" fill="url(#paint49_radial_3_1290)"/>
</g>
<g filter="url(#filter20_f_3_1290)">
<path d="M13.1088 4.00171C13.132 4.24475 13.3434 5.15824 13.6535 5.71136" stroke="url(#paint50_linear_3_1290)" stroke-width="0.2" stroke-linecap="round"/>
</g>
<g filter="url(#filter21_f_3_1290)">
<path d="M18.4064 6.36251L16.981 6.62471C16.5582 6.70249 16.1683 6.37783 16.1683 5.94792C16.1683 5.56786 16.476 5.25977 16.856 5.25977H19.1968C20.5812 5.25977 21.0394 6.65501 21.0955 7.13177C20.3686 6.46918 19.3737 6.18457 18.4064 6.36251Z" fill="#4B4648"/>
</g>
<g filter="url(#filter22_i_3_1290)">
<path d="M26.0301 15.9844H5.97012C5.44012 15.9844 5.00012 16.4144 5.00012 16.9544V29.9844H27.0001V16.9544C27.0001 16.4144 26.5601 15.9844 26.0301 15.9844Z" fill="url(#paint51_linear_3_1290)"/>
<path d="M26.0301 15.9844H5.97012C5.44012 15.9844 5.00012 16.4144 5.00012 16.9544V29.9844H27.0001V16.9544C27.0001 16.4144 26.5601 15.9844 26.0301 15.9844Z" fill="url(#paint52_radial_3_1290)"/>
<path d="M26.0301 15.9844H5.97012C5.44012 15.9844 5.00012 16.4144 5.00012 16.9544V29.9844H27.0001V16.9544C27.0001 16.4144 26.5601 15.9844 26.0301 15.9844Z" fill="url(#paint53_linear_3_1290)"/>
<path d="M26.0301 15.9844H5.97012C5.44012 15.9844 5.00012 16.4144 5.00012 16.9544V29.9844H27.0001V16.9544C27.0001 16.4144 26.5601 15.9844 26.0301 15.9844Z" fill="url(#paint54_linear_3_1290)"/>
<path d="M26.0301 15.9844H5.97012C5.44012 15.9844 5.00012 16.4144 5.00012 16.9544V29.9844H27.0001V16.9544C27.0001 16.4144 26.5601 15.9844 26.0301 15.9844Z" fill="url(#paint55_linear_3_1290)"/>
<path d="M26.0301 15.9844H5.97012C5.44012 15.9844 5.00012 16.4144 5.00012 16.9544V29.9844H27.0001V16.9544C27.0001 16.4144 26.5601 15.9844 26.0301 15.9844Z" fill="url(#paint56_radial_3_1290)"/>
</g>
<path d="M14.444 21.8909C14.444 21.7528 14.5559 21.6409 14.694 21.6409H17.3041C17.4421 21.6409 17.5541 21.7528 17.5541 21.8909V24.3066C17.5541 24.4447 17.4421 24.5566 17.3041 24.5566H14.694C14.5559 24.5566 14.444 24.4447 14.444 24.3066V21.8909Z" fill="url(#paint57_linear_3_1290)"/>
<path d="M14.444 21.8909C14.444 21.7528 14.5559 21.6409 14.694 21.6409H17.3041C17.4421 21.6409 17.5541 21.7528 17.5541 21.8909V24.3066C17.5541 24.4447 17.4421 24.5566 17.3041 24.5566H14.694C14.5559 24.5566 14.444 24.4447 14.444 24.3066V21.8909Z" fill="url(#paint58_linear_3_1290)"/>
<path d="M14.444 21.8909C14.444 21.7528 14.5559 21.6409 14.694 21.6409H17.3041C17.4421 21.6409 17.5541 21.7528 17.5541 21.8909V24.3066C17.5541 24.4447 17.4421 24.5566 17.3041 24.5566H14.694C14.5559 24.5566 14.444 24.4447 14.444 24.3066V21.8909Z" fill="url(#paint59_linear_3_1290)"/>
<path d="M14.444 21.8909C14.444 21.7528 14.5559 21.6409 14.694 21.6409H17.3041C17.4421 21.6409 17.5541 21.7528 17.5541 21.8909V24.3066C17.5541 24.4447 17.4421 24.5566 17.3041 24.5566H14.694C14.5559 24.5566 14.444 24.4447 14.444 24.3066V21.8909Z" fill="url(#paint60_linear_3_1290)"/>
<path d="M14.444 21.8909C14.444 21.7528 14.5559 21.6409 14.694 21.6409H17.3041C17.4421 21.6409 17.5541 21.7528 17.5541 21.8909V24.3066C17.5541 24.4447 17.4421 24.5566 17.3041 24.5566H14.694C14.5559 24.5566 14.444 24.4447 14.444 24.3066V21.8909Z" fill="url(#paint61_linear_3_1290)"/>
<path d="M14.444 21.8909C14.444 21.7528 14.5559 21.6409 14.694 21.6409H17.3041C17.4421 21.6409 17.5541 21.7528 17.5541 21.8909V24.3066C17.5541 24.4447 17.4421 24.5566 17.3041 24.5566H14.694C14.5559 24.5566 14.444 24.4447 14.444 24.3066V21.8909Z" fill="url(#paint62_radial_3_1290)" fill-opacity="0.6"/>
<defs>
<filter id="filter0_i_3_1290" x="8.49097" y="1.26538" width="15.2681" height="15.7681" filterUnits="userSpaceOnUse" color-interpolation-filters="sRGB">
<feFlood flood-opacity="0" result="BackgroundImageFix"/>
<feBlend mode="normal" in="SourceGraphic" in2="BackgroundImageFix" result="shape"/>
<feColorMatrix in="SourceAlpha" type="matrix" values="0 0 0 0 0 0 0 0 0 0 0 0 0 0 0 0 0 0 127 0" result="hardAlpha"/>
<feOffset dx="0.25" dy="-0.75"/>
<feGaussianBlur stdDeviation="0.75"/>
<feComposite in2="hardAlpha" operator="arithmetic" k2="-1" k3="1"/>
<feColorMatrix type="matrix" values="0 0 0 0 0.121569 0 0 0 0 0.0705882 0 0 0 0 0.164706 0 0 0 1 0"/>
<feBlend mode="normal" in2="shape" result="effect1_innerShadow_3_1290"/>
</filter>
<filter id="filter1_i_3_1290" x="9.70532" y="8.93457" width="3.36817" height="3.21826" filterUnits="userSpaceOnUse" color-interpolation-filters="sRGB">
<feFlood flood-opacity="0" result="BackgroundImageFix"/>
<feBlend mode="normal" in="SourceGraphic" in2="BackgroundImageFix" result="shape"/>
<feColorMatrix in="SourceAlpha" type="matrix" values="0 0 0 0 0 0 0 0 0 0 0 0 0 0 0 0 0 0 127 0" result="hardAlpha"/>
<feOffset dx="0.15"/>
<feGaussianBlur stdDeviation="0.25"/>
<feComposite in2="hardAlpha" operator="arithmetic" k2="-1" k3="1"/>
<feColorMatrix type="matrix" values="0 0 0 0 0.894118 0 0 0 0 0.682353 0 0 0 0 0.6 0 0 0 1 0"/>
<feBlend mode="normal" in2="shape" result="effect1_innerShadow_3_1290"/>
</filter>
<filter id="filter2_i_3_1290" x="19.2183" y="8.68457" width="3.21817" height="3.46826" filterUnits="userSpaceOnUse" color-interpolation-filters="sRGB">
<feFlood flood-opacity="0" result="BackgroundImageFix"/>
<feBlend mode="normal" in="SourceGraphic" in2="BackgroundImageFix" result="shape"/>
<feColorMatrix in="SourceAlpha" type="matrix" values="0 0 0 0 0 0 0 0 0 0 0 0 0 0 0 0 0 0 127 0" result="hardAlpha"/>
<feOffset dy="-0.25"/>
<feGaussianBlur stdDeviation="0.25"/>
<feComposite in2="hardAlpha" operator="arithmetic" k2="-1" k3="1"/>
<feColorMatrix type="matrix" values="0 0 0 0 0.784314 0 0 0 0 0.572549 0 0 0 0 0.513726 0 0 0 1 0"/>
<feBlend mode="normal" in2="shape" result="effect1_innerShadow_3_1290"/>
</filter>
<filter id="filter3_f_3_1290" x="19.2532" y="8.96948" width="3.14822" height="3.14819" filterUnits="userSpaceOnUse" color-interpolation-filters="sRGB">
<feFlood flood-opacity="0" result="BackgroundImageFix"/>
<feBlend mode="normal" in="SourceGraphic" in2="BackgroundImageFix" result="shape"/>
<feGaussianBlur stdDeviation="0.25" result="effect1_foregroundBlur_3_1290"/>
</filter>
<filter id="filter4_f_3_1290" x="9.85952" y="9.06948" width="2.94822" height="2.94819" filterUnits="userSpaceOnUse" color-interpolation-filters="sRGB">
<feFlood flood-opacity="0" result="BackgroundImageFix"/>
<feBlend mode="normal" in="SourceGraphic" in2="BackgroundImageFix" result="shape"/>
<feGaussianBlur stdDeviation="0.2" result="effect1_foregroundBlur_3_1290"/>
</filter>
<filter id="filter5_i_3_1290" x="10.9047" y="5.63672" width="10.1909" height="11.2767" filterUnits="userSpaceOnUse" color-interpolation-filters="sRGB">
<feFlood flood-opacity="0" result="BackgroundImageFix"/>
<feBlend mode="normal" in="SourceGraphic" in2="BackgroundImageFix" result="shape"/>
<feColorMatrix in="SourceAlpha" type="matrix" values="0 0 0 0 0 0 0 0 0 0 0 0 0 0 0 0 0 0 127 0" result="hardAlpha"/>
<feOffset dy="0.4"/>
<feGaussianBlur stdDeviation="0.3"/>
<feComposite in2="hardAlpha" operator="arithmetic" k2="-1" k3="1"/>
<feColorMatrix type="matrix" values="0 0 0 0 0.807843 0 0 0 0 0.592157 0 0 0 0 0.52549 0 0 0 1 0"/>
<feBlend mode="normal" in2="shape" result="effect1_innerShadow_3_1290"/>
</filter>
<filter id="filter6_f_3_1290" x="14.399" y="9.53833" width="2.87726" height="3.68188" filterUnits="userSpaceOnUse" color-interpolation-filters="sRGB">
<feFlood flood-opacity="0" result="BackgroundImageFix"/>
<feBlend mode="normal" in="SourceGraphic" in2="BackgroundImageFix" result="shape"/>
<feGaussianBlur stdDeviation="0.25" result="effect1_foregroundBlur_3_1290"/>
</filter>
<filter id="filter7_f_3_1290" x="14.8114" y="9.6499" width="2.37726" height="3.18188" filterUnits="userSpaceOnUse" color-interpolation-filters="sRGB">
<feFlood flood-opacity="0" result="BackgroundImageFix"/>
<feBlend mode="normal" in="SourceGraphic" in2="BackgroundImageFix" result="shape"/>
<feGaussianBlur stdDeviation="0.125" result="effect1_foregroundBlur_3_1290"/>
</filter>
<filter id="filter8_i_3_1290" x="16.9421" y="9.13892" width="3.00139" height="1.2854" filterUnits="userSpaceOnUse" color-interpolation-filters="sRGB">
<feFlood flood-opacity="0" result="BackgroundImageFix"/>
<feBlend mode="normal" in="SourceGraphic" in2="BackgroundImageFix" result="shape"/>
<feColorMatrix in="SourceAlpha" type="matrix" values="0 0 0 0 0 0 0 0 0 0 0 0 0 0 0 0 0 0 127 0" result="hardAlpha"/>
<feOffset dx="-0.2"/>
<feGaussianBlur stdDeviation="0.2"/>
<feComposite in2="hardAlpha" operator="arithmetic" k2="-1" k3="1"/>
<feColorMatrix type="matrix" values="0 0 0 0 0.0941176 0 0 0 0 0.0666667 0 0 0 0 0.117647 0 0 0 1 0"/>
<feBlend mode="normal" in2="shape" result="effect1_innerShadow_3_1290"/>
</filter>
<filter id="filter9_i_3_1290" x="12.0568" y="9.13892" width="3.00139" height="1.2854" filterUnits="userSpaceOnUse" color-interpolation-filters="sRGB">
<feFlood flood-opacity="0" result="BackgroundImageFix"/>
<feBlend mode="normal" in="SourceGraphic" in2="BackgroundImageFix" result="shape"/>
<feColorMatrix in="SourceAlpha" type="matrix" values="0 0 0 0 0 0 0 0 0 0 0 0 0 0 0 0 0 0 127 0" result="hardAlpha"/>
<feOffset dx="0.2"/>
<feGaussianBlur stdDeviation="0.125"/>
<feComposite in2="hardAlpha" operator="arithmetic" k2="-1" k3="1"/>
<feColorMatrix type="matrix" values="0 0 0 0 0.0862745 0 0 0 0 0.054902 0 0 0 0 0.113725 0 0 0 1 0"/>
<feBlend mode="normal" in2="shape" result="effect1_innerShadow_3_1290"/>
</filter>
<filter id="filter10_i_3_1290" x="12.1919" y="7.71528" width="2.45276" height="1.09111" filterUnits="userSpaceOnUse" color-interpolation-filters="sRGB">
<feFlood flood-opacity="0" result="BackgroundImageFix"/>
<feBlend mode="normal" in="SourceGraphic" in2="BackgroundImageFix" result="shape"/>
<feColorMatrix in="SourceAlpha" type="matrix" values="0 0 0 0 0 0 0 0 0 0 0 0 0 0 0 0 0 0 127 0" result="hardAlpha"/>
<feOffset dx="0.2" dy="-0.2"/>
<feGaussianBlur stdDeviation="0.15"/>
<feComposite in2="hardAlpha" operator="arithmetic" k2="-1" k3="1"/>
<feColorMatrix type="matrix" values="0 0 0 0 0.0431373 0 0 0 0 0.0235294 0 0 0 0 0.0313726 0 0 0 1 0"/>
<feBlend mode="normal" in2="shape" result="effect1_innerShadow_3_1290"/>
</filter>
<filter id="filter11_i_3_1290" x="17.6091" y="7.71528" width="2.45276" height="1.09111" filterUnits="userSpaceOnUse" color-interpolation-filters="sRGB">
<feFlood flood-opacity="0" result="BackgroundImageFix"/>
<feBlend mode="normal" in="SourceGraphic" in2="BackgroundImageFix" result="shape"/>
<feColorMatrix in="SourceAlpha" type="matrix" values="0 0 0 0 0 0 0 0 0 0 0 0 0 0 0 0 0 0 127 0" result="hardAlpha"/>
<feOffset dx="0.2" dy="-0.2"/>
<feGaussianBlur stdDeviation="0.15"/>
<feComposite in2="hardAlpha" operator="arithmetic" k2="-1" k3="1"/>
<feColorMatrix type="matrix" values="0 0 0 0 0.0431373 0 0 0 0 0.0235294 0 0 0 0 0.0313726 0 0 0 1 0"/>
<feBlend mode="normal" in2="shape" result="effect1_innerShadow_3_1290"/>
</filter>
<filter id="filter12_f_3_1290" x="17.4479" y="9.50669" width="0.786838" height="0.696338" filterUnits="userSpaceOnUse" color-interpolation-filters="sRGB">
<feFlood flood-opacity="0" result="BackgroundImageFix"/>
<feBlend mode="normal" in="SourceGraphic" in2="BackgroundImageFix" result="shape"/>
<feGaussianBlur stdDeviation="0.05" result="effect1_foregroundBlur_3_1290"/>
</filter>
<filter id="filter13_f_3_1290" x="18.2878" y="9.58174" width="0.891226" height="0.913428" filterUnits="userSpaceOnUse" color-interpolation-filters="sRGB">
<feFlood flood-opacity="0" result="BackgroundImageFix"/>
<feBlend mode="normal" in="SourceGraphic" in2="BackgroundImageFix" result="shape"/>
<feGaussianBlur stdDeviation="0.1" result="effect1_foregroundBlur_3_1290"/>
</filter>
<filter id="filter14_f_3_1290" x="13.8449" y="9.51826" width="0.986304" height="1.04014" filterUnits="userSpaceOnUse" color-interpolation-filters="sRGB">
<feFlood flood-opacity="0" result="BackgroundImageFix"/>
<feBlend mode="normal" in="SourceGraphic" in2="BackgroundImageFix" result="shape"/>
<feGaussianBlur stdDeviation="0.1" result="effect1_foregroundBlur_3_1290"/>
</filter>
<filter id="filter15_f_3_1290" x="13.0902" y="9.49839" width="0.913043" height="0.704639" filterUnits="userSpaceOnUse" color-interpolation-filters="sRGB">
<feFlood flood-opacity="0" result="BackgroundImageFix"/>
<feBlend mode="normal" in="SourceGraphic" in2="BackgroundImageFix" result="shape"/>
<feGaussianBlur stdDeviation="0.05" result="effect1_foregroundBlur_3_1290"/>
</filter>
<filter id="filter16_f_3_1290" x="17.6396" y="7.83735" width="2.26079" height="0.977881" filterUnits="userSpaceOnUse" color-interpolation-filters="sRGB">
<feFlood flood-opacity="0" result="BackgroundImageFix"/>
<feBlend mode="normal" in="SourceGraphic" in2="BackgroundImageFix" result="shape"/>
<feGaussianBlur stdDeviation="0.1" result="effect1_foregroundBlur_3_1290"/>
</filter>
<filter id="filter17_f_3_1290" x="12.1879" y="7.83735" width="2.26079" height="0.977881" filterUnits="userSpaceOnUse" color-interpolation-filters="sRGB">
<feFlood flood-opacity="0" result="BackgroundImageFix"/>
<feBlend mode="normal" in="SourceGraphic" in2="BackgroundImageFix" result="shape"/>
<feGaussianBlur stdDeviation="0.1" result="effect1_foregroundBlur_3_1290"/>
</filter>
<filter id="filter18_if_3_1290" x="9.74565" y="3.70171" width="4.2118" height="4.51338" filterUnits="userSpaceOnUse" color-interpolation-filters="sRGB">
<feFlood flood-opacity="0" result="BackgroundImageFix"/>
<feBlend mode="normal" in="SourceGraphic" in2="BackgroundImageFix" result="shape"/>
<feColorMatrix in="SourceAlpha" type="matrix" values="0 0 0 0 0 0 0 0 0 0 0 0 0 0 0 0 0 0 127 0" result="hardAlpha"/>
<feOffset dx="0.5" dy="0.5"/>
<feGaussianBlur stdDeviation="0.5"/>
<feComposite in2="hardAlpha" operator="arithmetic" k2="-1" k3="1"/>
<feColorMatrix type="matrix" values="0 0 0 0 0.352941 0 0 0 0 0.341176 0 0 0 0 0.341176 0 0 0 1 0"/>
<feBlend mode="normal" in2="shape" result="effect1_innerShadow_3_1290"/>
<feGaussianBlur stdDeviation="0.15" result="effect2_foregroundBlur_3_1290"/>
</filter>
<filter id="filter19_if_3_1290" x="12.8296" y="2.46729" width="8.76732" height="5.78198" filterUnits="userSpaceOnUse" color-interpolation-filters="sRGB">
<feFlood flood-opacity="0" result="BackgroundImageFix"/>
<feBlend mode="normal" in="SourceGraphic" in2="BackgroundImageFix" result="shape"/>
<feColorMatrix in="SourceAlpha" type="matrix" values="0 0 0 0 0 0 0 0 0 0 0 0 0 0 0 0 0 0 127 0" result="hardAlpha"/>
<feOffset dx="-0.3" dy="0.2"/>
<feGaussianBlur stdDeviation="0.4"/>
<feComposite in2="hardAlpha" operator="arithmetic" k2="-1" k3="1"/>
<feColorMatrix type="matrix" values="0 0 0 0 0.345098 0 0 0 0 0.329412 0 0 0 0 0.333333 0 0 0 1 0"/>
<feBlend mode="normal" in2="shape" result="effect1_innerShadow_3_1290"/>
<feGaussianBlur stdDeviation="0.125" result="effect2_foregroundBlur_3_1290"/>
</filter>
<filter id="filter20_f_3_1290" x="12.8088" y="3.70161" width="1.14477" height="2.30967" filterUnits="userSpaceOnUse" color-interpolation-filters="sRGB">
<feFlood flood-opacity="0" result="BackgroundImageFix"/>
<feBlend mode="normal" in="SourceGraphic" in2="BackgroundImageFix" result="shape"/>
<feGaussianBlur stdDeviation="0.1" result="effect1_foregroundBlur_3_1290"/>
</filter>
<filter id="filter21_f_3_1290" x="15.4183" y="4.50977" width="6.42717" height="3.37207" filterUnits="userSpaceOnUse" color-interpolation-filters="sRGB">
<feFlood flood-opacity="0" result="BackgroundImageFix"/>
<feBlend mode="normal" in="SourceGraphic" in2="BackgroundImageFix" result="shape"/>
<feGaussianBlur stdDeviation="0.375" result="effect1_foregroundBlur_3_1290"/>
</filter>
<filter id="filter22_i_3_1290" x="5.00012" y="15.9844" width="22" height="14.1" filterUnits="userSpaceOnUse" color-interpolation-filters="sRGB">
<feFlood flood-opacity="0" result="BackgroundImageFix"/>
<feBlend mode="normal" in="SourceGraphic" in2="BackgroundImageFix" result="shape"/>
<feColorMatrix in="SourceAlpha" type="matrix" values="0 0 0 0 0 0 0 0 0 0 0 0 0 0 0 0 0 0 127 0" result="hardAlpha"/>
<feOffset dy="0.1"/>
<feGaussianBlur stdDeviation="0.25"/>
<feComposite in2="hardAlpha" operator="arithmetic" k2="-1" k3="1"/>
<feColorMatrix type="matrix" values="0 0 0 0 0.678431 0 0 0 0 0.670588 0 0 0 0 0.682353 0 0 0 1 0"/>
<feBlend mode="normal" in2="shape" result="effect1_innerShadow_3_1290"/>
</filter>
<linearGradient id="paint0_linear_3_1290" x1="8.81541" y1="15.2833" x2="23.1914" y2="15.2833" gradientUnits="userSpaceOnUse">
<stop offset="0.00558659" stop-color="#CCCCCC"/>
<stop offset="1" stop-color="#E6E6E6"/>
</linearGradient>
<linearGradient id="paint1_linear_3_1290" x1="8.81541" y1="15.253" x2="23.1914" y2="15.253" gradientUnits="userSpaceOnUse">
<stop offset="0.00558659" stop-color="#CCCCCC"/>
<stop offset="1" stop-color="#E6E6E6"/>
</linearGradient>
<radialGradient id="paint2_radial_3_1290" cx="0" cy="0" r="1" gradientUnits="userSpaceOnUse" gradientTransform="translate(5.49756 29.9845) rotate(-156.777) scale(2.6864 2.91777)">
<stop stop-color="#DFA49E"/>
<stop offset="1" stop-color="#F4C0A9"/>
</radialGradient>
<radialGradient id="paint3_radial_3_1290" cx="0" cy="0" r="1" gradientUnits="userSpaceOnUse" gradientTransform="translate(5.40381 29.8184) rotate(177.157) scale(3.35044 4.79049)">
<stop offset="0.763821" stop-color="#FFD1B6" stop-opacity="0"/>
<stop offset="0.927153" stop-color="#FFD1B6"/>
</radialGradient>
<radialGradient id="paint4_radial_3_1290" cx="0" cy="0" r="1" gradientUnits="userSpaceOnUse" gradientTransform="translate(5.65381 26.9253) rotate(142.141) scale(2.29569 2.48045)">
<stop stop-color="#D5A58F"/>
<stop offset="1" stop-color="#D5A58F" stop-opacity="0"/>
</radialGradient>
<radialGradient id="paint5_radial_3_1290" cx="0" cy="0" r="1" gradientUnits="userSpaceOnUse" gradientTransform="translate(27.0914 30.084) rotate(-33.3961) scale(6.75616 1.88662)">
<stop offset="0.127243" stop-color="#FFE6CB"/>
<stop offset="1" stop-color="#FFE6CB" stop-opacity="0"/>
</radialGradient>
<linearGradient id="paint6_linear_3_1290" x1="26.6071" y1="28.8027" x2="27.3024" y2="28.8027" gradientUnits="userSpaceOnUse">
<stop stop-color="#F5C7AD"/>
<stop offset="1" stop-color="#B38F78" stop-opacity="0"/>
<stop offset="1" stop-color="#F5C7AD" stop-opacity="0"/>
</linearGradient>
<linearGradient id="paint7_linear_3_1290" x1="10.9178" y1="23.9681" x2="1.4283" y2="24.0091" gradientUnits="userSpaceOnUse">
<stop stop-color="#1C1C1C"/>
<stop offset="1" stop-color="#636363"/>
</linearGradient>
<linearGradient id="paint8_linear_3_1290" x1="22.998" y1="23.9849" x2="28.6524" y2="23.9849" gradientUnits="userSpaceOnUse">
<stop stop-color="#1C1C1C"/>
<stop offset="1" stop-color="#636363"/>
</linearGradient>
<linearGradient id="paint9_linear_3_1290" x1="20.6933" y1="3.59096" x2="13.8882" y2="16.1955" gradientUnits="userSpaceOnUse">
<stop stop-color="#393134"/>
<stop offset="1" stop-color="#1A1718"/>
</linearGradient>
<radialGradient id="paint10_radial_3_1290" cx="0" cy="0" r="1" gradientUnits="userSpaceOnUse" gradientTransform="translate(15.6984 13.0443) rotate(97.5394) scale(4.59883 5.74487)">
<stop offset="0.590551" stop-color="#171418"/>
<stop offset="1" stop-color="#171418" stop-opacity="0"/>
</radialGradient>
<radialGradient id="paint11_radial_3_1290" cx="0" cy="0" r="1" gradientUnits="userSpaceOnUse" gradientTransform="translate(12.8825 13.3125) rotate(146.004) scale(3.47738 4.56901)">
<stop offset="0.258378" stop-color="#181518"/>
<stop offset="1" stop-color="#181518" stop-opacity="0"/>
</radialGradient>
<radialGradient id="paint12_radial_3_1290" cx="0" cy="0" r="1" gradientUnits="userSpaceOnUse" gradientTransform="translate(11.1561 10.7648) rotate(127.405) scale(2.15225 1.65263)">
<stop offset="0.333546" stop-color="#040101"/>
<stop offset="1" stop-color="#040101" stop-opacity="0"/>
</radialGradient>
<radialGradient id="paint13_radial_3_1290" cx="0" cy="0" r="1" gradientUnits="userSpaceOnUse" gradientTransform="translate(11.6086 8.73668) rotate(121.43) scale(2.47506 1.74346)">
<stop offset="0.320588" stop-color="#040002"/>
<stop offset="1" stop-color="#040002" stop-opacity="0"/>
</radialGradient>
<radialGradient id="paint14_radial_3_1290" cx="0" cy="0" r="1" gradientUnits="userSpaceOnUse" gradientTransform="translate(12.4802 2.48471) rotate(62.2717) scale(2.95399 4.10058)">
<stop stop-color="#474445"/>
<stop offset="1" stop-color="#474445" stop-opacity="0"/>
</radialGradient>
<radialGradient id="paint15_radial_3_1290" cx="0" cy="0" r="1" gradientUnits="userSpaceOnUse" gradientTransform="translate(21.833 4.56311) rotate(134.998) scale(2.03849 2.84876)">
<stop stop-color="#4A4446"/>
<stop offset="1" stop-color="#4A4446" stop-opacity="0"/>
</radialGradient>
<radialGradient id="paint16_radial_3_1290" cx="0" cy="0" r="1" gradientUnits="userSpaceOnUse" gradientTransform="translate(23.5091 9.69207) rotate(163.779) scale(1.9201 4.00421)">
<stop stop-color="#3B3638"/>
<stop offset="1" stop-color="#3B3638" stop-opacity="0"/>
</radialGradient>
<radialGradient id="paint17_radial_3_1290" cx="0" cy="0" r="1" gradientUnits="userSpaceOnUse" gradientTransform="translate(22.9057 13.1114) rotate(165.963) scale(2.90248 3.69733)">
<stop stop-color="#464444"/>
<stop offset="1" stop-color="#464444" stop-opacity="0"/>
</radialGradient>
<radialGradient id="paint18_radial_3_1290" cx="0" cy="0" r="1" gradientUnits="userSpaceOnUse" gradientTransform="translate(20.7326 7.25807) rotate(-108.843) scale(2.80034 2.21491)">
<stop stop-color="#575455"/>
<stop offset="1" stop-color="#575455" stop-opacity="0"/>
</radialGradient>
<radialGradient id="paint19_radial_3_1290" cx="0" cy="0" r="1" gradientUnits="userSpaceOnUse" gradientTransform="translate(9.85816 9.65592) rotate(5.98813) scale(1.51217 2.45015)">
<stop stop-color="#413733"/>
<stop offset="1" stop-color="#413733" stop-opacity="0"/>
</radialGradient>
<linearGradient id="paint20_linear_3_1290" x1="9.70532" y1="10.6308" x2="12.6646" y2="10.6308" gradientUnits="userSpaceOnUse">
<stop stop-color="#CC9987"/>
<stop offset="1" stop-color="#AC7864"/>
</linearGradient>
<radialGradient id="paint21_radial_3_1290" cx="0" cy="0" r="1" gradientUnits="userSpaceOnUse" gradientTransform="translate(20.5089 11.5192) rotate(-48.1041) scale(2.73591 3.34042)">
<stop offset="0.444268" stop-color="#E5B1A5"/>
<stop offset="0.94391" stop-color="#FFD8C1"/>
</radialGradient>
<radialGradient id="paint22_radial_3_1290" cx="0" cy="0" r="1" gradientUnits="userSpaceOnUse" gradientTransform="translate(21.0704 8.86251) rotate(29.2711) scale(1.50835 0.426435)">
<stop stop-color="#DBA98B"/>
<stop offset="1" stop-color="#DBA98B" stop-opacity="0"/>
</radialGradient>
<radialGradient id="paint23_radial_3_1290" cx="0" cy="0" r="1" gradientUnits="userSpaceOnUse" gradientTransform="translate(20.3915 10.6559) rotate(-4.25413) scale(1.51406 1.18358)">
<stop offset="0.719132" stop-color="#F4B89E" stop-opacity="0"/>
<stop offset="1" stop-color="#F5B99D"/>
</radialGradient>
<radialGradient id="paint24_radial_3_1290" cx="0" cy="0" r="1" gradientUnits="userSpaceOnUse" gradientTransform="translate(11.399 10.5436) rotate(180) scale(1.20681 0.952028)">
<stop offset="0.666667" stop-color="#BC8272" stop-opacity="0"/>
<stop offset="1" stop-color="#BC8272"/>
</radialGradient>
<radialGradient id="paint25_radial_3_1290" cx="0" cy="0" r="1" gradientUnits="userSpaceOnUse" gradientTransform="translate(18.8594 10.006) rotate(155.244) scale(7.16174 9.58587)">
<stop stop-color="#FFD7BF"/>
<stop offset="1" stop-color="#D59F97"/>
</radialGradient>
<radialGradient id="paint26_radial_3_1290" cx="0" cy="0" r="1" gradientUnits="userSpaceOnUse" gradientTransform="translate(19.2518 11.3682) rotate(172.574) scale(3.49044 3.85283)">
<stop stop-color="#FFDEBF"/>
<stop offset="1" stop-color="#FFDEBF" stop-opacity="0"/>
</radialGradient>
<radialGradient id="paint27_radial_3_1290" cx="0" cy="0" r="1" gradientUnits="userSpaceOnUse" gradientTransform="translate(13.62 17.3352) rotate(-70.9588) scale(4.00732 5.08454)">
<stop stop-color="#B87C92"/>
<stop offset="1" stop-color="#B87C92" stop-opacity="0"/>
</radialGradient>
<radialGradient id="paint28_radial_3_1290" cx="0" cy="0" r="1" gradientUnits="userSpaceOnUse" gradientTransform="translate(16.0001 9.78885) rotate(90) scale(6.72467 13.4232)">
<stop offset="0.695885" stop-color="#DD9FA2" stop-opacity="0"/>
<stop offset="0.966102" stop-color="#C37D95"/>
</radialGradient>
<radialGradient id="paint29_radial_3_1290" cx="0" cy="0" r="1" gradientUnits="userSpaceOnUse" gradientTransform="translate(17.8103 11.737) rotate(168.897) scale(7.03738 12.1162)">
<stop offset="0.794964" stop-color="#E2A895" stop-opacity="0"/>
<stop offset="1" stop-color="#E2A895"/>
</radialGradient>
<radialGradient id="paint30_radial_3_1290" cx="0" cy="0" r="1" gradientUnits="userSpaceOnUse" gradientTransform="translate(18.3014 9.58758) rotate(-90) scale(1.15077 1.41231)">
<stop stop-color="#F6BAA9"/>
<stop offset="1" stop-color="#F6BAA9" stop-opacity="0"/>
</radialGradient>
<radialGradient id="paint31_radial_3_1290" cx="0" cy="0" r="1" gradientUnits="userSpaceOnUse" gradientTransform="translate(13.9236 9.35902) rotate(-90) scale(1.31251 1.50423)">
<stop stop-color="#D09790"/>
<stop offset="1" stop-color="#D09790" stop-opacity="0"/>
</radialGradient>
<radialGradient id="paint32_radial_3_1290" cx="0" cy="0" r="1" gradientUnits="userSpaceOnUse" gradientTransform="translate(21.0955 11.0751) rotate(180) scale(1.28528 6.44557)">
<stop stop-color="#FFD8BC"/>
<stop offset="1" stop-color="#FFD8BC" stop-opacity="0"/>
</radialGradient>
<radialGradient id="paint33_radial_3_1290" cx="0" cy="0" r="1" gradientUnits="userSpaceOnUse" gradientTransform="translate(13.8154 4.0076) rotate(71.834) scale(4.20983 7.33403)">
<stop stop-color="#A47463"/>
<stop offset="1" stop-color="#A47463" stop-opacity="0"/>
</radialGradient>
<radialGradient id="paint34_radial_3_1290" cx="0" cy="0" r="1" gradientUnits="userSpaceOnUse" gradientTransform="translate(16.7844 11.8019) rotate(-102.564) scale(2.09416 0.645401)">
<stop offset="0.0168227" stop-color="#FFDCC5"/>
<stop offset="1" stop-color="#FFDCC5" stop-opacity="0"/>
</radialGradient>
<linearGradient id="paint35_linear_3_1290" x1="15.0614" y1="11.8748" x2="16" y2="11.8748" gradientUnits="userSpaceOnUse">
<stop stop-color="#DFA791"/>
<stop offset="1" stop-color="#DFA791" stop-opacity="0"/>
</linearGradient>
<linearGradient id="paint36_linear_3_1290" x1="16" y1="12.6737" x2="16" y2="12.0635" gradientUnits="userSpaceOnUse">
<stop stop-color="#D29394"/>
<stop offset="1" stop-color="#D29394" stop-opacity="0"/>
</linearGradient>
<radialGradient id="paint37_radial_3_1290" cx="0" cy="0" r="1" gradientUnits="userSpaceOnUse" gradientTransform="translate(16.5448 12.0135) rotate(-180) scale(0.7794 0.217897)">
<stop stop-color="#FFD6C2"/>
<stop offset="1" stop-color="#FFD6C2" stop-opacity="0"/>
</radialGradient>
<linearGradient id="paint38_linear_3_1290" x1="16.0783" y1="12.6476" x2="16.0783" y2="12.5081" gradientUnits="userSpaceOnUse">
<stop stop-color="#CC8C8D"/>
<stop offset="1" stop-color="#CC8C8D" stop-opacity="0"/>
</linearGradient>
<radialGradient id="paint39_radial_3_1290" cx="0" cy="0" r="1" gradientUnits="userSpaceOnUse" gradientTransform="translate(16.3772 11.4185) rotate(145.529) scale(1.66326 1.99898)">
<stop offset="0.777645" stop-color="#CC8C8D" stop-opacity="0"/>
<stop offset="1" stop-color="#CC8C8D"/>
</radialGradient>
<linearGradient id="paint40_linear_3_1290" x1="14.9357" y1="14.0836" x2="15.3967" y2="13.3712" gradientUnits="userSpaceOnUse">
<stop stop-color="#D9A4A4"/>
<stop offset="0.663171" stop-color="#D9A4A4" stop-opacity="0"/>
</linearGradient>
<radialGradient id="paint41_radial_3_1290" cx="0" cy="0" r="1" gradientUnits="userSpaceOnUse" gradientTransform="translate(18.1821 9.9465) rotate(90) scale(0.811316 1.29049)">
<stop offset="0.80198" stop-color="#7D574A"/>
<stop offset="1" stop-color="#694B43"/>
<stop offset="1" stop-color="#804D49"/>
<stop offset="1" stop-color="#664944"/>
</radialGradient>
<radialGradient id="paint42_radial_3_1290" cx="0" cy="0" r="1" gradientUnits="userSpaceOnUse" gradientTransform="translate(17.9538 10.0307) rotate(-127.812) scale(0.378286 0.520809)">
<stop offset="0.765532" stop-color="#FFE6E2" stop-opacity="0"/>
<stop offset="0.966159" stop-color="#FFE6E2"/>
</radialGradient>
<linearGradient id="paint43_linear_3_1290" x1="18.96" y1="10.0004" x2="18.6463" y2="10.1937" gradientUnits="userSpaceOnUse">
<stop stop-color="#B4948D"/>
<stop offset="1" stop-color="#B4948D" stop-opacity="0"/>
</linearGradient>
<radialGradient id="paint44_radial_3_1290" cx="0" cy="0" r="1" gradientUnits="userSpaceOnUse" gradientTransform="translate(13.8179 9.94651) rotate(90) scale(0.81132 1.2905)">
<stop offset="0.80198" stop-color="#7D574A"/>
<stop offset="1" stop-color="#694B43"/>
<stop offset="1" stop-color="#804D49"/>
<stop offset="1" stop-color="#664944"/>
</radialGradient>
<linearGradient id="paint45_linear_3_1290" x1="14.5617" y1="10.0003" x2="14.248" y2="10.1936" gradientUnits="userSpaceOnUse">
<stop stop-color="#B4948D"/>
<stop offset="1" stop-color="#B4948D" stop-opacity="0"/>
</linearGradient>
<radialGradient id="paint46_radial_3_1290" cx="0" cy="0" r="1" gradientUnits="userSpaceOnUse" gradientTransform="translate(13.5316 10.1656) rotate(-90.897) scale(0.49412 0.593952)">
<stop offset="0.765532" stop-color="#FFE6E2" stop-opacity="0"/>
<stop offset="0.966159" stop-color="#FFE6E2"/>
</radialGradient>
<radialGradient id="paint47_radial_3_1290" cx="0" cy="0" r="1" gradientUnits="userSpaceOnUse" gradientTransform="translate(10.342 7.82596) rotate(-65.3915) scale(3.03069 1.55043)">
<stop stop-color="#433838"/>
<stop offset="1" stop-color="#433838" stop-opacity="0"/>
</radialGradient>
<radialGradient id="paint48_radial_3_1290" cx="0" cy="0" r="1" gradientUnits="userSpaceOnUse" gradientTransform="translate(17.9109 2.61892) rotate(115.684) scale(4.8729 7.96691)">
<stop offset="0.639192" stop-color="#1F0D24" stop-opacity="0"/>
<stop offset="1" stop-color="#1F0D24"/>
</radialGradient>
<radialGradient id="paint49_radial_3_1290" cx="0" cy="0" r="1" gradientUnits="userSpaceOnUse" gradientTransform="translate(16.2103 2.98833) rotate(98.7461) scale(1.38328 2.97605)">
<stop stop-color="#4C4749"/>
<stop offset="1" stop-color="#4C4749" stop-opacity="0"/>
</radialGradient>
<linearGradient id="paint50_linear_3_1290" x1="13.1088" y1="4.34532" x2="13.6535" y2="5.61917" gradientUnits="userSpaceOnUse">
<stop stop-color="#1A1316"/>
<stop offset="1" stop-color="#24182D"/>
</linearGradient>
<linearGradient id="paint51_linear_3_1290" x1="7.49286" y1="19.719" x2="11.2842" y2="30.7697" gradientUnits="userSpaceOnUse">
<stop stop-color="#AB9CBE"/>
<stop offset="1" stop-color="#847498"/>
</linearGradient>
<radialGradient id="paint52_radial_3_1290" cx="0" cy="0" r="1" gradientUnits="userSpaceOnUse" gradientTransform="translate(17.2429 31.0315) rotate(-90) scale(7.59705 13.2772)">
<stop offset="0.0273225" stop-color="#78698C"/>
<stop offset="1" stop-color="#7A6B8E" stop-opacity="0"/>
</radialGradient>
<linearGradient id="paint53_linear_3_1290" x1="16.0001" y1="15.9844" x2="16.0001" y2="17.344" gradientUnits="userSpaceOnUse">
<stop stop-color="#BEB0B0"/>
<stop offset="0.267777" stop-color="#BEB7C7"/>
<stop offset="0.863185" stop-color="#BEB7C7" stop-opacity="0"/>
</linearGradient>
<linearGradient id="paint54_linear_3_1290" x1="5.00012" y1="24.219" x2="6.05536" y2="24.219" gradientUnits="userSpaceOnUse">
<stop stop-color="#9F93B2"/>
<stop offset="1" stop-color="#9F93B2" stop-opacity="0"/>
</linearGradient>
<linearGradient id="paint55_linear_3_1290" x1="27.0001" y1="25.1565" x2="25.5241" y2="25.1565" gradientUnits="userSpaceOnUse">
<stop offset="0.174296" stop-color="#BAB9C0"/>
<stop offset="1" stop-color="#A191B5" stop-opacity="0"/>
</linearGradient>
<radialGradient id="paint56_radial_3_1290" cx="0" cy="0" r="1" gradientUnits="userSpaceOnUse" gradientTransform="translate(26.696 16.6253) rotate(150.751) scale(0.895409 0.830326)">
<stop stop-color="#E5DFF1"/>
<stop offset="0.723783" stop-color="#E5DFF1" stop-opacity="0"/>
</radialGradient>
<linearGradient id="paint57_linear_3_1290" x1="17.9769" y1="23.0987" x2="13.911" y2="23.0987" gradientUnits="userSpaceOnUse">
<stop offset="0.0957634" stop-color="#56416B"/>
<stop offset="0.129627" stop-color="#614C77"/>
<stop offset="0.165482" stop-color="#51366C"/>
<stop offset="1" stop-color="#4F3568"/>
</linearGradient>
<linearGradient id="paint58_linear_3_1290" x1="15.999" y1="21.6409" x2="15.999" y2="23.1959" gradientUnits="userSpaceOnUse">
<stop stop-color="#60407F"/>
<stop offset="1" stop-color="#543870" stop-opacity="0"/>
</linearGradient>
<linearGradient id="paint59_linear_3_1290" x1="15.999" y1="21.6409" x2="15.999" y2="24.5566" gradientUnits="userSpaceOnUse">
<stop stop-color="#594170"/>
<stop offset="0.0367115" stop-color="#6D5686"/>
<stop offset="0.0580102" stop-color="#6F5783"/>
<stop offset="0.096735" stop-color="#5F447B" stop-opacity="0"/>
</linearGradient>
<linearGradient id="paint60_linear_3_1290" x1="14.444" y1="23.1216" x2="15.0201" y2="23.1216" gradientUnits="userSpaceOnUse">
<stop offset="0.0862049" stop-color="#3B2B50"/>
<stop offset="0.662599" stop-color="#52376C" stop-opacity="0"/>
</linearGradient>
<linearGradient id="paint61_linear_3_1290" x1="15.999" y1="24.8418" x2="15.999" y2="24.1678" gradientUnits="userSpaceOnUse">
<stop offset="0.50729" stop-color="#3D2555"/>
<stop offset="0.735619" stop-color="#4A3261" stop-opacity="0"/>
</linearGradient>
<radialGradient id="paint62_radial_3_1290" cx="0" cy="0" r="1" gradientUnits="userSpaceOnUse" gradientTransform="translate(17.3711 21.8242) rotate(140.08) scale(0.124786 0.186048)">
<stop stop-color="#806B97"/>
<stop offset="1" stop-color="#8D78A4" stop-opacity="0"/>
</radialGradient>
</defs>
</svg>
