<svg width="32" height="32" viewBox="0 0 32 32" fill="none" xmlns="http://www.w3.org/2000/svg">
<path d="M10.9082 2.49375C10.9082 2.27284 11.0873 2.09375 11.3082 2.09375H11.7113C11.9322 2.09375 12.1113 2.27284 12.1113 2.49375V4.61719H10.9082V2.49375Z" fill="#2D83CB"/>
<path d="M10.9082 2.49375C10.9082 2.27284 11.0873 2.09375 11.3082 2.09375H11.7113C11.9322 2.09375 12.1113 2.27284 12.1113 2.49375V4.61719H10.9082V2.49375Z" fill="url(#paint0_linear_18_16638)"/>
<path d="M10.9082 2.49375C10.9082 2.27284 11.0873 2.09375 11.3082 2.09375H11.7113C11.9322 2.09375 12.1113 2.27284 12.1113 2.49375V4.61719H10.9082V2.49375Z" fill="url(#paint1_radial_18_16638)"/>
<path d="M19.9863 2.49375C19.9863 2.27284 20.1654 2.09375 20.3863 2.09375H20.7895C21.0104 2.09375 21.1895 2.27284 21.1895 2.49375V4.61719H19.9863V2.49375Z" fill="#2D83CB"/>
<path d="M19.9863 2.49375C19.9863 2.27284 20.1654 2.09375 20.3863 2.09375H20.7895C21.0104 2.09375 21.1895 2.27284 21.1895 2.49375V4.61719H19.9863V2.49375Z" fill="url(#paint2_linear_18_16638)"/>
<path d="M19.9863 2.49375C19.9863 2.27284 20.1654 2.09375 20.3863 2.09375H20.7895C21.0104 2.09375 21.1895 2.27284 21.1895 2.49375V4.61719H19.9863V2.49375Z" fill="url(#paint3_radial_18_16638)"/>
<g filter="url(#filter0_i_18_16638)">
<path d="M10.0056 5.6339L11.2564 10.9176C11.2724 10.9848 11.3356 11.0277 11.4047 11.0282H20.682C20.7511 11.0277 20.811 10.98 20.8269 10.9128L22.0919 5.6339C22.2631 4.91158 21.7152 4.21875 20.9729 4.21875H19.1101C18.0021 4.21875 16.9844 4.82939 16.463 5.80699L16.0929 6.50094C16.0741 6.53624 16.0235 6.53624 16.0047 6.50094L15.6346 5.80699C15.1132 4.82939 14.0954 4.21875 12.9875 4.21875H11.1246C10.3823 4.21875 9.83447 4.91158 10.0056 5.6339Z" fill="url(#paint4_linear_18_16638)"/>
<path d="M10.0056 5.6339L11.2564 10.9176C11.2724 10.9848 11.3356 11.0277 11.4047 11.0282H20.682C20.7511 11.0277 20.811 10.98 20.8269 10.9128L22.0919 5.6339C22.2631 4.91158 21.7152 4.21875 20.9729 4.21875H19.1101C18.0021 4.21875 16.9844 4.82939 16.463 5.80699L16.0929 6.50094C16.0741 6.53624 16.0235 6.53624 16.0047 6.50094L15.6346 5.80699C15.1132 4.82939 14.0954 4.21875 12.9875 4.21875H11.1246C10.3823 4.21875 9.83447 4.91158 10.0056 5.6339Z" fill="url(#paint5_linear_18_16638)"/>
<path d="M10.0056 5.6339L11.2564 10.9176C11.2724 10.9848 11.3356 11.0277 11.4047 11.0282H20.682C20.7511 11.0277 20.811 10.98 20.8269 10.9128L22.0919 5.6339C22.2631 4.91158 21.7152 4.21875 20.9729 4.21875H19.1101C18.0021 4.21875 16.9844 4.82939 16.463 5.80699L16.0929 6.50094C16.0741 6.53624 16.0235 6.53624 16.0047 6.50094L15.6346 5.80699C15.1132 4.82939 14.0954 4.21875 12.9875 4.21875H11.1246C10.3823 4.21875 9.83447 4.91158 10.0056 5.6339Z" fill="url(#paint6_linear_18_16638)"/>
</g>
<rect x="11.2642" y="11.0312" width="9.57031" height="1" rx="0.1" fill="url(#paint7_linear_18_16638)"/>
<rect x="11.2642" y="11.0312" width="9.57031" height="1" rx="0.1" fill="url(#paint8_radial_18_16638)"/>
<rect x="11.2642" y="11.0312" width="9.57031" height="1" rx="0.1" fill="url(#paint9_linear_18_16638)"/>
<rect x="11.2642" y="11.0312" width="9.57031" height="1" rx="0.1" fill="url(#paint10_linear_18_16638)"/>
<g filter="url(#filter1_iii_18_16638)">
<path d="M11.3591 12.0868L4.40059 26.0312C3.95997 26.75 3.50367 28.1719 4.54218 29.2109C5.72957 30.3989 7.11481 29.8805 7.83862 29.2109C8.00608 29.056 8.14973 28.9269 8.27085 28.82C8.52166 28.5987 8.95243 28.6648 9.17209 28.9167C9.61211 29.4213 10.2892 29.969 11.0407 29.969C12.0814 29.969 12.6256 29.4184 12.8787 29.1624L12.8817 29.1593L13.1601 28.8662C13.4128 28.6002 13.7697 28.5934 14.0309 28.8512L14.5417 29.3555C14.817 29.65 15.3206 29.9453 16.0601 29.9453C16.7997 29.9453 17.2985 29.65 17.5739 29.3555L18.0846 28.8512C18.3458 28.5934 18.7074 28.6002 18.9601 28.8662L19.2386 29.1593L19.2416 29.1624C19.4947 29.4184 20.0389 29.969 21.0795 29.969C21.831 29.969 22.5081 29.4213 22.9482 28.9167C23.1678 28.6648 23.5986 28.5987 23.8494 28.82C23.9705 28.9269 24.1142 29.056 24.2816 29.2109C25.0054 29.8805 26.3907 30.3989 27.5781 29.2109C28.6166 28.1719 28.1603 26.75 27.7197 26.0312L20.7611 12.0868C20.7441 12.0528 20.7092 12.0312 20.6709 12.0312H11.4494C11.4111 12.0312 11.3761 12.0528 11.3591 12.0868Z" fill="url(#paint11_linear_18_16638)"/>
</g>
<g filter="url(#filter2_iii_18_16638)">
<path d="M11.3591 12.0868L4.40059 26.0312C3.95997 26.75 3.50367 28.1719 4.54218 29.2109C5.72957 30.3989 7.11481 29.8805 7.83862 29.2109C8.00608 29.056 8.14973 28.9269 8.27085 28.82C8.52166 28.5987 8.95243 28.6648 9.17209 28.9167C9.61211 29.4213 10.2892 29.969 11.0407 29.969C12.0814 29.969 12.6256 29.4184 12.8787 29.1624L12.8817 29.1593L13.1601 28.8662C13.4128 28.6002 13.7697 28.5934 14.0309 28.8512L14.5417 29.3555C14.817 29.65 15.3206 29.9453 16.0601 29.9453C16.7997 29.9453 17.2985 29.65 17.5739 29.3555L18.0846 28.8512C18.3458 28.5934 18.7074 28.6002 18.9601 28.8662L19.2386 29.1593L19.2416 29.1624C19.4947 29.4184 20.0389 29.969 21.0795 29.969C21.831 29.969 22.5081 29.4213 22.9482 28.9167C23.1678 28.6648 23.5986 28.5987 23.8494 28.82C23.9705 28.9269 24.1142 29.056 24.2816 29.2109C25.0054 29.8805 26.3907 30.3989 27.5781 29.2109C28.6166 28.1719 28.1603 26.75 27.7197 26.0312L20.7611 12.0868C20.7441 12.0528 20.7092 12.0312 20.6709 12.0312H11.4494C11.4111 12.0312 11.3761 12.0528 11.3591 12.0868Z" fill="url(#paint12_linear_18_16638)"/>
</g>
<path d="M11.3591 12.0868L4.40059 26.0312C3.95997 26.75 3.50367 28.1719 4.54218 29.2109C5.72957 30.3989 7.11481 29.8805 7.83862 29.2109C8.00608 29.056 8.14973 28.9269 8.27085 28.82C8.52166 28.5987 8.95243 28.6648 9.17209 28.9167C9.61211 29.4213 10.2892 29.969 11.0407 29.969C12.0814 29.969 12.6256 29.4184 12.8787 29.1624L12.8817 29.1593L13.1601 28.8662C13.4128 28.6002 13.7697 28.5934 14.0309 28.8512L14.5417 29.3555C14.817 29.65 15.3206 29.9453 16.0601 29.9453C16.7997 29.9453 17.2985 29.65 17.5739 29.3555L18.0846 28.8512C18.3458 28.5934 18.7074 28.6002 18.9601 28.8662L19.2386 29.1593L19.2416 29.1624C19.4947 29.4184 20.0389 29.969 21.0795 29.969C21.831 29.969 22.5081 29.4213 22.9482 28.9167C23.1678 28.6648 23.5986 28.5987 23.8494 28.82C23.9705 28.9269 24.1142 29.056 24.2816 29.2109C25.0054 29.8805 26.3907 30.3989 27.5781 29.2109C28.6166 28.1719 28.1603 26.75 27.7197 26.0312L20.7611 12.0868C20.7441 12.0528 20.7092 12.0312 20.6709 12.0312H11.4494C11.4111 12.0312 11.3761 12.0528 11.3591 12.0868Z" fill="url(#paint13_linear_18_16638)"/>
<g filter="url(#filter3_f_18_16638)">
<path d="M13.7847 4.61719C14.134 4.71262 14.932 5.08284 15.3296 5.80023C15.7271 6.51762 15.8649 6.75653 15.8841 6.78631" stroke="url(#paint14_linear_18_16638)" stroke-width="0.25" stroke-linecap="round"/>
</g>
<g filter="url(#filter4_f_18_16638)">
<path d="M17.2407 5.33594C17.4022 5.08594 17.9001 4.58594 18.6001 4.58594C19.3001 4.58594 20.3032 4.58594 20.7173 4.58594C20.884 4.59115 21.2751 4.64531 21.5063 4.82031" stroke="url(#paint15_radial_18_16638)" stroke-width="0.25" stroke-linecap="round"/>
</g>
<defs>
<filter id="filter0_i_18_16638" x="9.97412" y="4.21875" width="12.1494" height="6.95945" filterUnits="userSpaceOnUse" color-interpolation-filters="sRGB">
<feFlood flood-opacity="0" result="BackgroundImageFix"/>
<feBlend mode="normal" in="SourceGraphic" in2="BackgroundImageFix" result="shape"/>
<feColorMatrix in="SourceAlpha" type="matrix" values="0 0 0 0 0 0 0 0 0 0 0 0 0 0 0 0 0 0 127 0" result="hardAlpha"/>
<feOffset dy="0.15"/>
<feGaussianBlur stdDeviation="0.125"/>
<feComposite in2="hardAlpha" operator="arithmetic" k2="-1" k3="1"/>
<feColorMatrix type="matrix" values="0 0 0 0 0.196078 0 0 0 0 0.427451 0 0 0 0 0.74902 0 0 0 1 0"/>
<feBlend mode="normal" in2="shape" result="effect1_innerShadow_18_16638"/>
</filter>
<filter id="filter1_iii_18_16638" x="3.41064" y="11.2812" width="24.7991" height="18.6877" filterUnits="userSpaceOnUse" color-interpolation-filters="sRGB">
<feFlood flood-opacity="0" result="BackgroundImageFix"/>
<feBlend mode="normal" in="SourceGraphic" in2="BackgroundImageFix" result="shape"/>
<feColorMatrix in="SourceAlpha" type="matrix" values="0 0 0 0 0 0 0 0 0 0 0 0 0 0 0 0 0 0 127 0" result="hardAlpha"/>
<feOffset dx="-0.25" dy="-0.25"/>
<feGaussianBlur stdDeviation="0.25"/>
<feComposite in2="hardAlpha" operator="arithmetic" k2="-1" k3="1"/>
<feColorMatrix type="matrix" values="0 0 0 0 0.356863 0 0 0 0 0.627451 0 0 0 0 0.917647 0 0 0 1 0"/>
<feBlend mode="normal" in2="shape" result="effect1_innerShadow_18_16638"/>
<feColorMatrix in="SourceAlpha" type="matrix" values="0 0 0 0 0 0 0 0 0 0 0 0 0 0 0 0 0 0 127 0" result="hardAlpha"/>
<feOffset dx="-0.5" dy="-0.75"/>
<feGaussianBlur stdDeviation="0.375"/>
<feComposite in2="hardAlpha" operator="arithmetic" k2="-1" k3="1"/>
<feColorMatrix type="matrix" values="0 0 0 0 0.34902 0 0 0 0 0.596078 0 0 0 0 1 0 0 0 1 0"/>
<feBlend mode="normal" in2="effect1_innerShadow_18_16638" result="effect2_innerShadow_18_16638"/>
<feColorMatrix in="SourceAlpha" type="matrix" values="0 0 0 0 0 0 0 0 0 0 0 0 0 0 0 0 0 0 127 0" result="hardAlpha"/>
<feOffset dy="-0.5"/>
<feGaussianBlur stdDeviation="0.375"/>
<feComposite in2="hardAlpha" operator="arithmetic" k2="-1" k3="1"/>
<feColorMatrix type="matrix" values="0 0 0 0 0.290196 0 0 0 0 0.34902 0 0 0 0 1 0 0 0 1 0"/>
<feBlend mode="normal" in2="effect2_innerShadow_18_16638" result="effect3_innerShadow_18_16638"/>
</filter>
<filter id="filter2_iii_18_16638" x="3.41064" y="11.2812" width="24.7991" height="18.6877" filterUnits="userSpaceOnUse" color-interpolation-filters="sRGB">
<feFlood flood-opacity="0" result="BackgroundImageFix"/>
<feBlend mode="normal" in="SourceGraphic" in2="BackgroundImageFix" result="shape"/>
<feColorMatrix in="SourceAlpha" type="matrix" values="0 0 0 0 0 0 0 0 0 0 0 0 0 0 0 0 0 0 127 0" result="hardAlpha"/>
<feOffset dx="-0.25" dy="-0.25"/>
<feGaussianBlur stdDeviation="0.25"/>
<feComposite in2="hardAlpha" operator="arithmetic" k2="-1" k3="1"/>
<feColorMatrix type="matrix" values="0 0 0 0 0.356863 0 0 0 0 0.627451 0 0 0 0 0.917647 0 0 0 1 0"/>
<feBlend mode="normal" in2="shape" result="effect1_innerShadow_18_16638"/>
<feColorMatrix in="SourceAlpha" type="matrix" values="0 0 0 0 0 0 0 0 0 0 0 0 0 0 0 0 0 0 127 0" result="hardAlpha"/>
<feOffset dx="-0.5" dy="-0.75"/>
<feGaussianBlur stdDeviation="0.375"/>
<feComposite in2="hardAlpha" operator="arithmetic" k2="-1" k3="1"/>
<feColorMatrix type="matrix" values="0 0 0 0 0.34902 0 0 0 0 0.596078 0 0 0 0 1 0 0 0 1 0"/>
<feBlend mode="normal" in2="effect1_innerShadow_18_16638" result="effect2_innerShadow_18_16638"/>
<feColorMatrix in="SourceAlpha" type="matrix" values="0 0 0 0 0 0 0 0 0 0 0 0 0 0 0 0 0 0 127 0" result="hardAlpha"/>
<feOffset dy="-0.5"/>
<feGaussianBlur stdDeviation="0.375"/>
<feComposite in2="hardAlpha" operator="arithmetic" k2="-1" k3="1"/>
<feColorMatrix type="matrix" values="0 0 0 0 0.290196 0 0 0 0 0.34902 0 0 0 0 1 0 0 0 1 0"/>
<feBlend mode="normal" in2="effect2_innerShadow_18_16638" result="effect3_innerShadow_18_16638"/>
</filter>
<filter id="filter3_f_18_16638" x="13.5097" y="4.34219" width="2.64937" height="2.71919" filterUnits="userSpaceOnUse" color-interpolation-filters="sRGB">
<feFlood flood-opacity="0" result="BackgroundImageFix"/>
<feBlend mode="normal" in="SourceGraphic" in2="BackgroundImageFix" result="shape"/>
<feGaussianBlur stdDeviation="0.075" result="effect1_foregroundBlur_18_16638"/>
</filter>
<filter id="filter4_f_18_16638" x="16.9657" y="4.31094" width="4.81563" height="1.3" filterUnits="userSpaceOnUse" color-interpolation-filters="sRGB">
<feFlood flood-opacity="0" result="BackgroundImageFix"/>
<feBlend mode="normal" in="SourceGraphic" in2="BackgroundImageFix" result="shape"/>
<feGaussianBlur stdDeviation="0.075" result="effect1_foregroundBlur_18_16638"/>
</filter>
<linearGradient id="paint0_linear_18_16638" x1="10.8032" y1="4.375" x2="11.5098" y2="4.375" gradientUnits="userSpaceOnUse">
<stop stop-color="#2A5FA6"/>
<stop offset="1" stop-color="#2A5FA6" stop-opacity="0"/>
</linearGradient>
<radialGradient id="paint1_radial_18_16638" cx="0" cy="0" r="1" gradientUnits="userSpaceOnUse" gradientTransform="translate(12.0688 4.51172) rotate(-89.1175) scale(2.76205 0.391657)">
<stop offset="0.165152" stop-color="#5D9CDB"/>
<stop offset="1" stop-color="#2E84CC" stop-opacity="0"/>
</radialGradient>
<linearGradient id="paint2_linear_18_16638" x1="19.8813" y1="4.375" x2="20.5879" y2="4.375" gradientUnits="userSpaceOnUse">
<stop stop-color="#2A5FA6"/>
<stop offset="1" stop-color="#2A5FA6" stop-opacity="0"/>
</linearGradient>
<radialGradient id="paint3_radial_18_16638" cx="0" cy="0" r="1" gradientUnits="userSpaceOnUse" gradientTransform="translate(21.1469 4.51172) rotate(-89.1175) scale(2.76205 0.391657)">
<stop offset="0.165152" stop-color="#5D9CDB"/>
<stop offset="1" stop-color="#2E84CC" stop-opacity="0"/>
</radialGradient>
<linearGradient id="paint4_linear_18_16638" x1="12.5219" y1="10.5937" x2="18.7719" y2="10.5937" gradientUnits="userSpaceOnUse">
<stop stop-color="#2E71E2"/>
<stop offset="1" stop-color="#418FFB"/>
</linearGradient>
<linearGradient id="paint5_linear_18_16638" x1="10.7719" y1="10.0625" x2="15.3969" y2="9.40625" gradientUnits="userSpaceOnUse">
<stop stop-color="#385BAA"/>
<stop offset="1" stop-color="#2A6DDD" stop-opacity="0"/>
</linearGradient>
<linearGradient id="paint6_linear_18_16638" x1="21.1781" y1="9.90625" x2="19.2719" y2="9.6875" gradientUnits="userSpaceOnUse">
<stop stop-color="#3E8DED"/>
<stop offset="1" stop-color="#3F8CE3" stop-opacity="0"/>
</linearGradient>
<linearGradient id="paint7_linear_18_16638" x1="12.1782" y1="12.0313" x2="18.9595" y2="12.0313" gradientUnits="userSpaceOnUse">
<stop stop-color="#3E2242"/>
<stop offset="1" stop-color="#642F67"/>
</linearGradient>
<radialGradient id="paint8_radial_18_16638" cx="0" cy="0" r="1" gradientUnits="userSpaceOnUse" gradientTransform="translate(19.1157 11.0312) rotate(90) scale(0.328125 6.11719)">
<stop offset="0.238095" stop-color="#673C6A"/>
<stop offset="1" stop-color="#673C6A" stop-opacity="0"/>
</radialGradient>
<linearGradient id="paint9_linear_18_16638" x1="16.0493" y1="11.0312" x2="16.0493" y2="11.1289" gradientUnits="userSpaceOnUse">
<stop stop-color="#331B3B"/>
<stop offset="1" stop-color="#331B3B" stop-opacity="0"/>
</linearGradient>
<linearGradient id="paint10_linear_18_16638" x1="16.0493" y1="12.0937" x2="16.0493" y2="11.8516" gradientUnits="userSpaceOnUse">
<stop stop-color="#331B3B"/>
<stop offset="1" stop-color="#331B3B" stop-opacity="0"/>
</linearGradient>
<linearGradient id="paint11_linear_18_16638" x1="22.9909" y1="19.125" x2="14.8034" y2="21.4375" gradientUnits="userSpaceOnUse">
<stop stop-color="#59A4FE"/>
<stop offset="1" stop-color="#2B7EE5"/>
</linearGradient>
<linearGradient id="paint12_linear_18_16638" x1="22.9909" y1="19.125" x2="14.8034" y2="21.4375" gradientUnits="userSpaceOnUse">
<stop stop-color="#59A4FE"/>
<stop offset="1" stop-color="#2B7EE5"/>
</linearGradient>
<linearGradient id="paint13_linear_18_16638" x1="6.36588" y1="20.25" x2="16.4284" y2="22.8125" gradientUnits="userSpaceOnUse">
<stop offset="0.144679" stop-color="#3E639C"/>
<stop offset="1" stop-color="#2979DA" stop-opacity="0"/>
</linearGradient>
<linearGradient id="paint14_linear_18_16638" x1="15.7406" y1="6.6875" x2="13.8969" y2="4.90625" gradientUnits="userSpaceOnUse">
<stop stop-color="#5E93EB"/>
<stop offset="1" stop-color="#5E93EB" stop-opacity="0"/>
</linearGradient>
<radialGradient id="paint15_radial_18_16638" cx="0" cy="0" r="1" gradientUnits="userSpaceOnUse" gradientTransform="translate(21.7095 4.85937) rotate(178.534) scale(3.97005 1.39234)">
<stop offset="0.195204" stop-color="#5FA0F4" stop-opacity="0"/>
<stop offset="0.754698" stop-color="#5FA0F4"/>
<stop offset="1" stop-color="#5FA0F4" stop-opacity="0"/>
</radialGradient>
</defs>
</svg>
