<svg xmlns="http://www.w3.org/2000/svg" width="32" height="32" fill="none"><path fill="#573739" d="M18.106 9.89a.77.77 0 0 1 .774.104l2.423 1.888c.02.312.118.704.477.728h.52s.17.36.5.25c.3-.127.568-.322.78-.57.28-.33.52-.87.41-1.14a2.42 2.42 0 0 0-.7-.69l-.7-.52-2.29-1.754a3.078 3.078 0 0 0-3.073-.422l-3.28 1.296.29.731-.432-.328a5.93 5.93 0 0 1-8.037 1.32c-.058-.284-.2-.66-.538-.823a.39.39 0 0 0-.52.07s-.19-.36-.52-.22a2.36 2.36 0 0 0-.77.63 1.37 1.37 0 0 0-.17 1.2 2 2 0 0 0 .59.66l.404.222a8.23 8.23 0 0 0 11.38-1.65l2.47-.977.012-.005ZM17.92 15.57l-.45-.29c.068.127.126.26.172.395l-4.267 3.598-2.668-.024-.657.56A7.481 7.481 0 0 0 9 22.07l-2.1 5.62 1.41.93 3.56-6.24 3.76-2.876 2.01 2.827a2 2 0 0 0 2.05.79l6.2-1.39-.61-1.73-5.45.48-2.044-4.02a2.693 2.693 0 0 0-.144-.786l.278-.104Z"/><path fill="#452829" d="m13.73 7 1.05 2.05-2.1 1.1-1.05-2.1L13.73 7Z"/><path fill="#533566" d="M27.363 23.912 25 21.798l.085-1.861 1.144-.408a.49.49 0 0 1 .626.292s1.092 2.995 1.263 3.63c.067.215-.554.639-.755.46ZM4 27.15h3.19l1.11 1.51-.54 1a.48.48 0 0 1-.66.2S4.3 28.36 3.74 28c-.18-.12 0-.85.26-.85Z"/><path fill="#636363" d="m14.64 18.21 2.5 3.44 2.24-1.42a1.2 1.2 0 0 0 .37-1.63l-1.93-3.19-3.18 2.8Z"/><path fill="#9B9B9B" d="m10.701 19.239 2.51 2.46a1.262 1.262 0 0 0 1.91-.16l2.29-3.19s1-1.44.65-2.34a2.519 2.519 0 0 0-.48-1l-4.84 2.48"/><path fill="#3D2123" d="M4.793 10.042c.045.052.04.131-.011.177-.199.175-.37.378-.51.602a.26.26 0 0 0-.014.168.22.22 0 0 0 .077.11c.037.028.079.045.112.05a.095.095 0 0 0 .03.001c.097-.095.19-.194.277-.297a.45.45 0 0 1 .06-.085c.101-.11.184-.068.221-.023a.125.125 0 0 1 .002.158l-.074.09a.444.444 0 0 0-.009.02c-.038.088-.08.262-.06.585a.125.125 0 0 1-.25.014 2.61 2.61 0 0 1-.003-.273c-.069.064-.164.068-.233.057a.501.501 0 0 1-.39-.336.514.514 0 0 1 .035-.36c.154-.25.344-.475.563-.669a.125.125 0 0 1 .177.011Z" opacity=".51"/><path fill="#8B62BF" d="m12.74 17.52 5.18-1.95c-.473-.857-1.52-2.883-1.92-4.136-.04-2.182-1.27-2.734-1.27-2.734a2.38 2.38 0 0 0-2.35.42 2.45 2.45 0 0 0-.866 1.331l-.004-.001a8.77 8.77 0 0 0 1.23 7.07Z"/><path fill="#A17FD5" d="M14.337 11.257a1.5 1.5 0 0 1-.776-2.898l3.38-.906.777 2.898-3.38.906Z"/><path fill="#573739" d="m12.702 3.23-1.17-.01c-.98 0-1.79.787-1.8 1.774v.498c0 .16-.04.309-.12.448-.24.4-.35.439-.36.638-.03.31.26.389.4.409.04 0 .07.04.07.08.02 1.106.22 1.893 1.54 1.903.81.01 2.09-.389 2.46-1.335l.35-1.276.4-1.335a1.79 1.79 0 0 0-1.77-1.794Z"/><path fill="#290118" d="M10.842 7.067a.12.12 0 0 1 .073.153.64.64 0 0 1-.823.403.12.12 0 1 1 .08-.226.402.402 0 0 0 .518-.257.12.12 0 0 1 .152-.073Z"/><path fill="#000" d="M10.298 4.683a1.286 1.286 0 0 1 .854.21l.005.004.002.001h.001a.128.128 0 0 1-.156.203l-.002-.001a.465.465 0 0 0-.064-.04 1.021 1.021 0 0 0-.196-.083l-.198-.04a1.031 1.031 0 0 0-.218 0 .128.128 0 1 1-.028-.254ZM10.142 5.56s.22-.37.68-.29c.18.03.31.13.39.22.07.07.06.19-.03.25l-.32.23-.72-.41Z"/><path fill="#fff" d="M10.172 6.02c-.07 0-.13-.07-.13-.15v-.01c0-.33.29-.51.56-.51.27 0 .55.19.55.52v.01c0 .08-.06.15-.13.15l-.85-.01Z"/><path fill="#7D4533" d="M10.072 6.03c-.01-.05-.02-.1-.02-.15 0-.24.15-.43.34-.43.19 0 .34.2.33.43 0 .05-.01.11-.02.15h-.63Z"/><path fill="#000" d="M10.182 6.02a.26.26 0 0 1-.04-.15c0-.14.09-.25.2-.24.11 0 .19.11.19.25 0 .06-.02.11-.04.15l-.31-.01Z"/><path fill="#fff" d="M10.284 5.692c0-.044-.027-.08-.06-.08s-.06.035-.06.079.026.08.059.08.06-.035.06-.079Z"/><path fill="#000" d="M9.492 3.01c.17-.61.79-1.19 1.39-.96.67.23.79.41 1.61.18 1.21-.35 2.99-.14 3.01 1.81.01.68-.05 1.19-.14 1.57-.08.32.03.66.27.88.06.05.12.11.17.18.29.34.41.8.32 1.24a1.57 1.57 0 0 1-2.02 1.22c-.04-.01-.08-.02-.12-.04a2.039 2.039 0 0 1-1.4-2.02l.03-1.77c0-.25-.08-.49-.22-.67a.782.782 0 0 0-.5-.29.804.804 0 0 0-.48.06c-.24.11-.52.16-.81.12-.14-.02-.28-.05-.41-.11-.16-.07-.29-.14-.38-.24-.31-.29-.44-.73-.32-1.16Z"/></svg>