<svg xmlns="http://www.w3.org/2000/svg" width="32" height="32" fill="none"><path fill="#00D26A" d="M11.48 10.96a4.48 4.48 0 1 0 0-8.96 4.48 4.48 0 0 0 0 8.96Z"/><path fill="#C3EF3C" d="M11.48 9.8a3.32 3.32 0 1 0 0-6.64 3.32 3.32 0 0 0 0 6.64Z"/><path fill="#AEDDFF" d="M21.19 6.69c.29 2.37.99 4.67 2.05 6.83.52 1.06.81 2.26.81 3.53 0 4.18-3.19 7.615-7.27 7.993v3.567h3.6a.751.751 0 1 1 .01 1.5h-8.71a.749.749 0 1 1 0-1.5h3.6v-3.567a8.581 8.581 0 0 1-.86-.123c-3.15-.61-5.67-3.15-6.27-6.29-.36-1.89-.05-3.69.72-5.21 1.07-2.1 1.73-4.38 2-6.72.05-.39.36-.68.75-.68h8.82c.39 0 .7.29.75.67Z"/><path fill="#F8312F" d="M19.5 2a1 1 0 0 0-.949.684L16.11 10.01l-.051.184h2.082l.077-.184L20.221 4h2.904V2H19.5Z"/><path fill="#990838" d="M23.75 3c0 .552-.28 1-.625 1s-.625-.448-.625-1 .28-1 .625-1 .625.448.625 1Z"/><path fill="#FF6723" d="M19.93 10.01h-7.78c-.38 0-.71.25-.82.62-.35 1.16-.8 2.29-1.34 3.36-.41.8-.65 1.66-.71 2.55-.14 1.89.5 3.7 1.8 5.11a6.78 6.78 0 0 0 4.96 2.18c.13 0 .26 0 .39-.01a6.778 6.778 0 0 0 5.68-9.74 23.1 23.1 0 0 1-1.36-3.45.855.855 0 0 0-.82-.62Z"/><path fill="#FFB02E" d="M15.02 13.2a.78.78 0 1 0 0-1.56.78.78 0 0 0 0 1.56ZM18.28 15.92a.78.78 0 1 0 0-1.56.78.78 0 0 0 0 1.56ZM15.8 18.16a.78.78 0 1 1-1.56 0 .78.78 0 0 1 1.56 0Z"/><path fill="#fff" d="M20 8.5a.5.5 0 0 1 .5.5c0 .74.156 1.298.215 1.446l.007.019.006.02c.353 1.154.793 2.279 1.33 3.374.495 1 .742 2.076.742 3.201a.5.5 0 0 1-1 0c0-.975-.213-1.899-.638-2.758V14.3a23.599 23.599 0 0 1-1.385-3.506C19.67 10.508 19.5 9.838 19.5 9a.5.5 0 0 1 .5-.5Z"/></svg>