<svg width="32" height="32" viewBox="0 0 32 32" fill="none" xmlns="http://www.w3.org/2000/svg">
<path d="M8.32886 30.0194C8.3316 29.9655 8.33301 29.9111 8.33301 29.8565C8.33301 28.1236 6.92816 26.7188 5.19525 26.7188C3.46234 26.7188 2.05756 28.1236 2.05756 29.8565C2.05756 29.9111 2.05896 29.9655 2.06171 30.0194H8.32886Z" fill="url(#paint0_radial_3_799)"/>
<path d="M8.32886 30.0194C8.3316 29.9655 8.33301 29.9111 8.33301 29.8565C8.33301 28.1236 6.92816 26.7188 5.19525 26.7188C3.46234 26.7188 2.05756 28.1236 2.05756 29.8565C2.05756 29.9111 2.05896 29.9655 2.06171 30.0194H8.32886Z" fill="url(#paint1_radial_3_799)"/>
<path d="M29.9383 30.0194C29.9411 29.9655 29.9425 29.9111 29.9425 29.8565C29.9425 28.1236 28.5377 26.7188 26.8048 26.7188C25.0719 26.7188 23.6671 28.1236 23.6671 29.8565C23.6671 29.9111 23.6685 29.9655 23.6712 30.0194H29.9383Z" fill="#533836"/>
<path d="M29.9383 30.0194C29.9411 29.9655 29.9425 29.9111 29.9425 29.8565C29.9425 28.1236 28.5377 26.7188 26.8048 26.7188C25.0719 26.7188 23.6671 28.1236 23.6671 29.8565C23.6671 29.9111 23.6685 29.9655 23.6712 30.0194H29.9383Z" fill="url(#paint2_radial_3_799)"/>
<path d="M29.9383 30.0194C29.9411 29.9655 29.9425 29.9111 29.9425 29.8565C29.9425 28.1236 28.5377 26.7188 26.8048 26.7188C25.0719 26.7188 23.6671 28.1236 23.6671 29.8565C23.6671 29.9111 23.6685 29.9655 23.6712 30.0194H29.9383Z" fill="url(#paint3_linear_3_799)"/>
<path d="M16.0001 15.5195C9.93006 15.5195 5.00006 20.4395 5.00006 26.5195V30.0195H27.0001V26.5195C27.0001 20.4395 22.0701 15.5195 16.0001 15.5195Z" fill="url(#paint4_linear_3_799)"/>
<path d="M8.98012 18.0195C6.54012 20.0495 5.00012 23.1095 5.01012 26.5195L5.03012 30.0195L9.03012 29.9995L8.98012 18.0195Z" fill="url(#paint5_linear_3_799)"/>
<path d="M23.0001 18.0295V30.0095H27.0001V26.5095C27.0001 23.0995 25.4401 20.0495 23.0001 18.0295Z" fill="url(#paint6_linear_3_799)"/>
<path d="M20.8568 12.0776C21.1921 12.0667 21.506 11.9531 21.7614 11.769V12.7C21.7614 13.5932 21.2293 14.3889 20.4205 14.719C20.5908 14.3564 20.7078 13.9612 20.7664 13.539L20.8568 12.0776Z" fill="url(#paint7_radial_3_799)"/>
<path d="M11.1343 12.0776C10.799 12.0667 10.4851 11.9531 10.2297 11.769V12.7C10.2297 13.5932 10.7618 14.3889 11.5706 14.719C11.4003 14.3564 11.2832 13.9612 11.2247 13.539L11.1343 12.0776Z" fill="url(#paint8_radial_3_799)"/>
<g filter="url(#filter0_ii_3_799)">
<path d="M11.1705 13.5925C11.4277 15.5449 13.0892 16.9984 15.0562 16.9984H16.9427C18.9097 16.9984 20.5712 15.5449 20.8284 13.5925C20.9464 11.7088 21.0651 9.8327 21.1526 7.95C21.142 7.183 20.5373 6.5501 19.7736 6.51792H18.3734C17.4187 6.51792 16.5542 5.95473 16.1617 5.0751C16.061 4.82301 15.817 4.65674 15.5465 4.65674H14.2736C12.4279 4.65674 10.9322 6.16928 10.9322 8.03581C10.9322 9.89654 11.0484 11.7271 11.1705 13.5925Z" fill="url(#paint9_radial_3_799)"/>
</g>
<path d="M11.1705 13.5925C11.4277 15.5449 13.0892 16.9984 15.0562 16.9984H16.9427C18.9097 16.9984 20.5712 15.5449 20.8284 13.5925C20.9464 11.7088 21.0651 9.8327 21.1526 7.95C21.142 7.183 20.5373 6.5501 19.7736 6.51792H18.3734C17.4187 6.51792 16.5542 5.95473 16.1617 5.0751C16.061 4.82301 15.817 4.65674 15.5465 4.65674H14.2736C12.4279 4.65674 10.9322 6.16928 10.9322 8.03581C10.9322 9.89654 11.0484 11.7271 11.1705 13.5925Z" fill="url(#paint10_linear_3_799)"/>
<path d="M11.1705 13.5925C11.4277 15.5449 13.0892 16.9984 15.0562 16.9984H16.9427C18.9097 16.9984 20.5712 15.5449 20.8284 13.5925C20.9464 11.7088 21.0651 9.8327 21.1526 7.95C21.142 7.183 20.5373 6.5501 19.7736 6.51792H18.3734C17.4187 6.51792 16.5542 5.95473 16.1617 5.0751C16.061 4.82301 15.817 4.65674 15.5465 4.65674H14.2736C12.4279 4.65674 10.9322 6.16928 10.9322 8.03581C10.9322 9.89654 11.0484 11.7271 11.1705 13.5925Z" fill="url(#paint11_radial_3_799)"/>
<path d="M11.1705 13.5925C11.4277 15.5449 13.0892 16.9984 15.0562 16.9984H16.9427C18.9097 16.9984 20.5712 15.5449 20.8284 13.5925C20.9464 11.7088 21.0651 9.8327 21.1526 7.95C21.142 7.183 20.5373 6.5501 19.7736 6.51792H18.3734C17.4187 6.51792 16.5542 5.95473 16.1617 5.0751C16.061 4.82301 15.817 4.65674 15.5465 4.65674H14.2736C12.4279 4.65674 10.9322 6.16928 10.9322 8.03581C10.9322 9.89654 11.0484 11.7271 11.1705 13.5925Z" fill="url(#paint12_radial_3_799)"/>
<path d="M11.1705 13.5925C11.4277 15.5449 13.0892 16.9984 15.0562 16.9984H16.9427C18.9097 16.9984 20.5712 15.5449 20.8284 13.5925C20.9464 11.7088 21.0651 9.8327 21.1526 7.95C21.142 7.183 20.5373 6.5501 19.7736 6.51792H18.3734C17.4187 6.51792 16.5542 5.95473 16.1617 5.0751C16.061 4.82301 15.817 4.65674 15.5465 4.65674H14.2736C12.4279 4.65674 10.9322 6.16928 10.9322 8.03581C10.9322 9.89654 11.0484 11.7271 11.1705 13.5925Z" fill="url(#paint13_radial_3_799)"/>
<path d="M11.1705 13.5925C11.4277 15.5449 13.0892 16.9984 15.0562 16.9984H16.9427C18.9097 16.9984 20.5712 15.5449 20.8284 13.5925C20.9464 11.7088 21.0651 9.8327 21.1526 7.95C21.142 7.183 20.5373 6.5501 19.7736 6.51792H18.3734C17.4187 6.51792 16.5542 5.95473 16.1617 5.0751C16.061 4.82301 15.817 4.65674 15.5465 4.65674H14.2736C12.4279 4.65674 10.9322 6.16928 10.9322 8.03581C10.9322 9.89654 11.0484 11.7271 11.1705 13.5925Z" fill="url(#paint14_radial_3_799)"/>
<path d="M11.1705 13.5925C11.4277 15.5449 13.0892 16.9984 15.0562 16.9984H16.9427C18.9097 16.9984 20.5712 15.5449 20.8284 13.5925C20.9464 11.7088 21.0651 9.8327 21.1526 7.95C21.142 7.183 20.5373 6.5501 19.7736 6.51792H18.3734C17.4187 6.51792 16.5542 5.95473 16.1617 5.0751C16.061 4.82301 15.817 4.65674 15.5465 4.65674H14.2736C12.4279 4.65674 10.9322 6.16928 10.9322 8.03581C10.9322 9.89654 11.0484 11.7271 11.1705 13.5925Z" fill="url(#paint15_radial_3_799)"/>
<path d="M11.1705 13.5925C11.4277 15.5449 13.0892 16.9984 15.0562 16.9984H16.9427C18.9097 16.9984 20.5712 15.5449 20.8284 13.5925C20.9464 11.7088 21.0651 9.8327 21.1526 7.95C21.142 7.183 20.5373 6.5501 19.7736 6.51792H18.3734C17.4187 6.51792 16.5542 5.95473 16.1617 5.0751C16.061 4.82301 15.817 4.65674 15.5465 4.65674H14.2736C12.4279 4.65674 10.9322 6.16928 10.9322 8.03581C10.9322 9.89654 11.0484 11.7271 11.1705 13.5925Z" fill="url(#paint16_radial_3_799)"/>
<path d="M11.1705 13.5925C11.4277 15.5449 13.0892 16.9984 15.0562 16.9984H16.9427C18.9097 16.9984 20.5712 15.5449 20.8284 13.5925C20.9464 11.7088 21.0651 9.8327 21.1526 7.95C21.142 7.183 20.5373 6.5501 19.7736 6.51792H18.3734C17.4187 6.51792 16.5542 5.95473 16.1617 5.0751C16.061 4.82301 15.817 4.65674 15.5465 4.65674H14.2736C12.4279 4.65674 10.9322 6.16928 10.9322 8.03581C10.9322 9.89654 11.0484 11.7271 11.1705 13.5925Z" fill="url(#paint17_radial_3_799)"/>
<path d="M11.1705 13.5925C11.4277 15.5449 13.0892 16.9984 15.0562 16.9984H16.9427C18.9097 16.9984 20.5712 15.5449 20.8284 13.5925C20.9464 11.7088 21.0651 9.8327 21.1526 7.95C21.142 7.183 20.5373 6.5501 19.7736 6.51792H18.3734C17.4187 6.51792 16.5542 5.95473 16.1617 5.0751C16.061 4.82301 15.817 4.65674 15.5465 4.65674H14.2736C12.4279 4.65674 10.9322 6.16928 10.9322 8.03581C10.9322 9.89654 11.0484 11.7271 11.1705 13.5925Z" fill="url(#paint18_linear_3_799)"/>
<g filter="url(#filter1_f_3_799)">
<path d="M15.5941 10.3088L15.0033 12.1472C14.9023 12.5253 15.1446 12.9035 15.4877 12.9035H16.2194C16.5625 12.9035 16.8047 12.5195 16.7038 12.1472L16.2093 10.3088C16.1033 9.90161 15.7051 9.90161 15.5941 10.3088Z" fill="#331E24"/>
</g>
<g filter="url(#filter2_f_3_799)">
<path d="M15.6132 10.113L15.0818 11.9514C14.9733 12.3295 15.2336 12.7077 15.6024 12.7077H16.3888C16.7575 12.7077 17.0179 12.3237 16.9094 11.9514L16.3779 10.113C16.264 9.70581 15.7326 9.70581 15.6132 10.113Z" fill="#402929"/>
<path d="M15.6132 10.113L15.0818 11.9514C14.9733 12.3295 15.2336 12.7077 15.6024 12.7077H16.3888C16.7575 12.7077 17.0179 12.3237 16.9094 11.9514L16.3779 10.113C16.264 9.70581 15.7326 9.70581 15.6132 10.113Z" fill="url(#paint19_linear_3_799)"/>
<path d="M15.6132 10.113L15.0818 11.9514C14.9733 12.3295 15.2336 12.7077 15.6024 12.7077H16.3888C16.7575 12.7077 17.0179 12.3237 16.9094 11.9514L16.3779 10.113C16.264 9.70581 15.7326 9.70581 15.6132 10.113Z" fill="url(#paint20_radial_3_799)"/>
<path d="M15.6132 10.113L15.0818 11.9514C14.9733 12.3295 15.2336 12.7077 15.6024 12.7077H16.3888C16.7575 12.7077 17.0179 12.3237 16.9094 11.9514L16.3779 10.113C16.264 9.70581 15.7326 9.70581 15.6132 10.113Z" fill="url(#paint21_linear_3_799)"/>
<path d="M15.6132 10.113L15.0818 11.9514C14.9733 12.3295 15.2336 12.7077 15.6024 12.7077H16.3888C16.7575 12.7077 17.0179 12.3237 16.9094 11.9514L16.3779 10.113C16.264 9.70581 15.7326 9.70581 15.6132 10.113Z" fill="url(#paint22_radial_3_799)"/>
<path d="M15.6132 10.113L15.0818 11.9514C14.9733 12.3295 15.2336 12.7077 15.6024 12.7077H16.3888C16.7575 12.7077 17.0179 12.3237 16.9094 11.9514L16.3779 10.113C16.264 9.70581 15.7326 9.70581 15.6132 10.113Z" fill="url(#paint23_linear_3_799)"/>
</g>
<g filter="url(#filter3_f_3_799)">
<path d="M14.6446 13.3294L14.6446 13.3294L14.6439 13.3291C14.542 13.2772 14.4358 13.3098 14.3729 13.376C14.3096 13.4426 14.2839 13.5509 14.3499 13.6469C14.6983 14.1745 15.3049 14.5259 15.9954 14.5259C16.6861 14.5259 17.2928 14.1743 17.6412 13.6464C17.7061 13.549 17.6821 13.4408 17.6175 13.3737C17.5539 13.3076 17.4477 13.2778 17.3468 13.3291L17.3468 13.3291L17.3461 13.3294C16.9563 13.5327 16.4962 13.6494 15.9954 13.6494C15.4995 13.6494 15.0344 13.5326 14.6446 13.3294Z" stroke="url(#paint24_linear_3_799)" stroke-width="0.15"/>
</g>
<path d="M15.9954 13.7244C15.4879 13.7244 15.0109 13.6049 14.6099 13.3959C14.4729 13.3262 14.3257 13.4805 14.412 13.6049C14.747 14.1125 15.3306 14.4509 15.9954 14.4509C16.6602 14.4509 17.2438 14.1125 17.5787 13.6049C17.665 13.4755 17.5178 13.3262 17.3808 13.3959C16.9799 13.6049 16.5079 13.7244 15.9954 13.7244Z" fill="url(#paint25_radial_3_799)"/>
<g filter="url(#filter4_ii_3_799)">
<path d="M20.8503 4.18492C21.3648 4.36192 21.8262 4.72128 22.118 5.23619C22.5847 6.05682 22.5157 7.03836 22.0119 7.76245C21.8368 8.01991 21.7414 8.32563 21.7414 8.63672V9.82477C21.5543 9.69447 21.3076 9.59787 21.0742 9.55658L21.1527 7.95018C21.1421 7.18318 20.5374 6.55027 19.7737 6.51809H18.3735C17.4188 6.51809 16.5543 5.95491 16.1618 5.07528C16.061 4.82319 15.8171 4.65692 15.5466 4.65692H14.2737C12.4279 4.65692 10.9323 6.16946 10.9323 8.036L10.9629 9.57335C10.7089 9.61067 10.4436 9.69557 10.2428 9.83702V8.63672C10.2428 8.32563 10.1473 8.01991 9.97228 7.76245C9.49494 7.05982 9.41008 6.11582 9.82908 5.31664C10.1208 4.76419 10.5928 4.37801 11.1285 4.19028C11.7013 3.98646 12.1893 3.60028 12.5128 3.08001C12.9265 2.42029 13.6531 1.98047 14.4858 1.98047C14.8093 1.98047 15.117 2.0502 15.4034 2.1682C15.7852 2.33447 16.2148 2.33447 16.5967 2.1682C16.8778 2.0502 17.1854 1.98047 17.509 1.98047C18.3523 1.98047 19.0895 2.43638 19.4979 3.11219C19.8055 3.62174 20.2881 3.99183 20.8503 4.18492Z" fill="url(#paint26_linear_3_799)"/>
<path d="M20.8503 4.18492C21.3648 4.36192 21.8262 4.72128 22.118 5.23619C22.5847 6.05682 22.5157 7.03836 22.0119 7.76245C21.8368 8.01991 21.7414 8.32563 21.7414 8.63672V9.82477C21.5543 9.69447 21.3076 9.59787 21.0742 9.55658L21.1527 7.95018C21.1421 7.18318 20.5374 6.55027 19.7737 6.51809H18.3735C17.4188 6.51809 16.5543 5.95491 16.1618 5.07528C16.061 4.82319 15.8171 4.65692 15.5466 4.65692H14.2737C12.4279 4.65692 10.9323 6.16946 10.9323 8.036L10.9629 9.57335C10.7089 9.61067 10.4436 9.69557 10.2428 9.83702V8.63672C10.2428 8.32563 10.1473 8.01991 9.97228 7.76245C9.49494 7.05982 9.41008 6.11582 9.82908 5.31664C10.1208 4.76419 10.5928 4.37801 11.1285 4.19028C11.7013 3.98646 12.1893 3.60028 12.5128 3.08001C12.9265 2.42029 13.6531 1.98047 14.4858 1.98047C14.8093 1.98047 15.117 2.0502 15.4034 2.1682C15.7852 2.33447 16.2148 2.33447 16.5967 2.1682C16.8778 2.0502 17.1854 1.98047 17.509 1.98047C18.3523 1.98047 19.0895 2.43638 19.4979 3.11219C19.8055 3.62174 20.2881 3.99183 20.8503 4.18492Z" fill="url(#paint27_radial_3_799)"/>
<path d="M20.8503 4.18492C21.3648 4.36192 21.8262 4.72128 22.118 5.23619C22.5847 6.05682 22.5157 7.03836 22.0119 7.76245C21.8368 8.01991 21.7414 8.32563 21.7414 8.63672V9.82477C21.5543 9.69447 21.3076 9.59787 21.0742 9.55658L21.1527 7.95018C21.1421 7.18318 20.5374 6.55027 19.7737 6.51809H18.3735C17.4188 6.51809 16.5543 5.95491 16.1618 5.07528C16.061 4.82319 15.8171 4.65692 15.5466 4.65692H14.2737C12.4279 4.65692 10.9323 6.16946 10.9323 8.036L10.9629 9.57335C10.7089 9.61067 10.4436 9.69557 10.2428 9.83702V8.63672C10.2428 8.32563 10.1473 8.01991 9.97228 7.76245C9.49494 7.05982 9.41008 6.11582 9.82908 5.31664C10.1208 4.76419 10.5928 4.37801 11.1285 4.19028C11.7013 3.98646 12.1893 3.60028 12.5128 3.08001C12.9265 2.42029 13.6531 1.98047 14.4858 1.98047C14.8093 1.98047 15.117 2.0502 15.4034 2.1682C15.7852 2.33447 16.2148 2.33447 16.5967 2.1682C16.8778 2.0502 17.1854 1.98047 17.509 1.98047C18.3523 1.98047 19.0895 2.43638 19.4979 3.11219C19.8055 3.62174 20.2881 3.99183 20.8503 4.18492Z" fill="url(#paint28_radial_3_799)"/>
<path d="M20.8503 4.18492C21.3648 4.36192 21.8262 4.72128 22.118 5.23619C22.5847 6.05682 22.5157 7.03836 22.0119 7.76245C21.8368 8.01991 21.7414 8.32563 21.7414 8.63672V9.82477C21.5543 9.69447 21.3076 9.59787 21.0742 9.55658L21.1527 7.95018C21.1421 7.18318 20.5374 6.55027 19.7737 6.51809H18.3735C17.4188 6.51809 16.5543 5.95491 16.1618 5.07528C16.061 4.82319 15.8171 4.65692 15.5466 4.65692H14.2737C12.4279 4.65692 10.9323 6.16946 10.9323 8.036L10.9629 9.57335C10.7089 9.61067 10.4436 9.69557 10.2428 9.83702V8.63672C10.2428 8.32563 10.1473 8.01991 9.97228 7.76245C9.49494 7.05982 9.41008 6.11582 9.82908 5.31664C10.1208 4.76419 10.5928 4.37801 11.1285 4.19028C11.7013 3.98646 12.1893 3.60028 12.5128 3.08001C12.9265 2.42029 13.6531 1.98047 14.4858 1.98047C14.8093 1.98047 15.117 2.0502 15.4034 2.1682C15.7852 2.33447 16.2148 2.33447 16.5967 2.1682C16.8778 2.0502 17.1854 1.98047 17.509 1.98047C18.3523 1.98047 19.0895 2.43638 19.4979 3.11219C19.8055 3.62174 20.2881 3.99183 20.8503 4.18492Z" fill="url(#paint29_radial_3_799)"/>
<path d="M20.8503 4.18492C21.3648 4.36192 21.8262 4.72128 22.118 5.23619C22.5847 6.05682 22.5157 7.03836 22.0119 7.76245C21.8368 8.01991 21.7414 8.32563 21.7414 8.63672V9.82477C21.5543 9.69447 21.3076 9.59787 21.0742 9.55658L21.1527 7.95018C21.1421 7.18318 20.5374 6.55027 19.7737 6.51809H18.3735C17.4188 6.51809 16.5543 5.95491 16.1618 5.07528C16.061 4.82319 15.8171 4.65692 15.5466 4.65692H14.2737C12.4279 4.65692 10.9323 6.16946 10.9323 8.036L10.9629 9.57335C10.7089 9.61067 10.4436 9.69557 10.2428 9.83702V8.63672C10.2428 8.32563 10.1473 8.01991 9.97228 7.76245C9.49494 7.05982 9.41008 6.11582 9.82908 5.31664C10.1208 4.76419 10.5928 4.37801 11.1285 4.19028C11.7013 3.98646 12.1893 3.60028 12.5128 3.08001C12.9265 2.42029 13.6531 1.98047 14.4858 1.98047C14.8093 1.98047 15.117 2.0502 15.4034 2.1682C15.7852 2.33447 16.2148 2.33447 16.5967 2.1682C16.8778 2.0502 17.1854 1.98047 17.509 1.98047C18.3523 1.98047 19.0895 2.43638 19.4979 3.11219C19.8055 3.62174 20.2881 3.99183 20.8503 4.18492Z" fill="url(#paint30_radial_3_799)"/>
</g>
<g filter="url(#filter5_i_3_799)">
<path d="M19.7285 7.84798C19.5533 7.69539 19.3495 7.53371 19.0409 7.43656C18.7367 7.34079 18.3556 7.31506 17.8285 7.37955C17.6764 7.39815 17.5683 7.53648 17.5869 7.68851C17.6055 7.84053 17.7438 7.9487 17.8958 7.9301C18.377 7.87123 18.6717 7.90182 18.8744 7.96562C19.0727 8.02804 19.2068 8.12917 19.3642 8.26622C19.4797 8.36682 19.6548 8.35474 19.7554 8.23925C19.856 8.12375 19.844 7.94857 19.7285 7.84798Z" fill="#202020"/>
</g>
<g filter="url(#filter6_i_3_799)">
<path d="M12.5845 7.73884C12.6746 7.6849 12.8043 7.6159 12.968 7.55151C13.2955 7.42277 13.7634 7.31095 14.3234 7.37946C14.4754 7.39806 14.5836 7.53638 14.565 7.68841C14.5464 7.84044 14.4081 7.9486 14.256 7.93001C13.8076 7.87515 13.4335 7.96447 13.171 8.0677C13.0397 8.1193 12.9374 8.174 12.8693 8.21476C12.8353 8.2351 12.8101 8.25184 12.7942 8.2628C12.7863 8.26828 12.7807 8.27229 12.7776 8.27458L12.7749 8.27663C12.654 8.3698 12.4804 8.34785 12.3866 8.22727C12.2926 8.10637 12.3144 7.93213 12.4353 7.8381L12.5845 7.73884Z" fill="#202020"/>
</g>
<g filter="url(#filter7_if_3_799)">
<path d="M16.2279 5.21207C16.2046 5.16738 16.1825 5.12176 16.1618 5.07526C16.061 4.82317 15.817 4.6569 15.5465 4.6569H14.2736C12.4279 4.6569 10.9322 6.16944 10.9322 8.03598V8.31114C10.5922 8.0524 10.1646 7.5066 10.1646 6.62334C10.1646 5.5515 10.9463 5.00972 11.445 4.66414C11.5858 4.56657 11.704 4.48465 11.7757 4.41084C11.8061 4.37949 11.8393 4.34432 11.8754 4.30607C12.2249 3.93535 12.8477 3.27481 13.9352 2.98613C14.4667 2.84506 15.0051 2.81054 15.4429 2.8211C15.9156 2.83251 16.249 3.24079 16.249 3.71363V5.19862L16.2279 5.21207Z" fill="#23181C"/>
<path d="M16.2279 5.21207C16.2046 5.16738 16.1825 5.12176 16.1618 5.07526C16.061 4.82317 15.817 4.6569 15.5465 4.6569H14.2736C12.4279 4.6569 10.9322 6.16944 10.9322 8.03598V8.31114C10.5922 8.0524 10.1646 7.5066 10.1646 6.62334C10.1646 5.5515 10.9463 5.00972 11.445 4.66414C11.5858 4.56657 11.704 4.48465 11.7757 4.41084C11.8061 4.37949 11.8393 4.34432 11.8754 4.30607C12.2249 3.93535 12.8477 3.27481 13.9352 2.98613C14.4667 2.84506 15.0051 2.81054 15.4429 2.8211C15.9156 2.83251 16.249 3.24079 16.249 3.71363V5.19862L16.2279 5.21207Z" fill="url(#paint31_radial_3_799)"/>
<path d="M16.2279 5.21207C16.2046 5.16738 16.1825 5.12176 16.1618 5.07526C16.061 4.82317 15.817 4.6569 15.5465 4.6569H14.2736C12.4279 4.6569 10.9322 6.16944 10.9322 8.03598V8.31114C10.5922 8.0524 10.1646 7.5066 10.1646 6.62334C10.1646 5.5515 10.9463 5.00972 11.445 4.66414C11.5858 4.56657 11.704 4.48465 11.7757 4.41084C11.8061 4.37949 11.8393 4.34432 11.8754 4.30607C12.2249 3.93535 12.8477 3.27481 13.9352 2.98613C14.4667 2.84506 15.0051 2.81054 15.4429 2.8211C15.9156 2.83251 16.249 3.24079 16.249 3.71363V5.19862L16.2279 5.21207Z" fill="url(#paint32_radial_3_799)"/>
</g>
<g filter="url(#filter8_if_3_799)">
<path d="M21.2081 8.4788L21.1789 7.84761C21.1683 7.08415 20.5374 6.45416 19.7737 6.42213H18.3735C17.4846 6.42213 16.6739 5.93617 16.2496 5.16248C16.2496 5.16248 16.191 5.02678 16.1296 4.79435C15.8733 3.82456 16.8005 3.08201 17.7852 3.27299C18.7586 3.46178 19.8674 3.7899 20.6872 4.32462C22.4318 5.46248 22.1264 7.51312 21.2081 8.4788Z" fill="#1F151B"/>
<path d="M21.2081 8.4788L21.1789 7.84761C21.1683 7.08415 20.5374 6.45416 19.7737 6.42213H18.3735C17.4846 6.42213 16.6739 5.93617 16.2496 5.16248C16.2496 5.16248 16.191 5.02678 16.1296 4.79435C15.8733 3.82456 16.8005 3.08201 17.7852 3.27299C18.7586 3.46178 19.8674 3.7899 20.6872 4.32462C22.4318 5.46248 22.1264 7.51312 21.2081 8.4788Z" fill="url(#paint33_radial_3_799)"/>
</g>
<path d="M18.3864 9.1626C19.0395 9.1626 19.5912 9.61288 19.7413 10.2214C19.786 10.3958 19.6521 10.5621 19.4736 10.5621H17.2425C17.1005 10.5621 16.9869 10.4323 17.0153 10.2903C17.1411 9.64939 17.7049 9.1626 18.3864 9.1626Z" fill="white"/>
<path d="M18.1795 9.43433C18.6744 9.43433 19.072 9.83593 19.072 10.3268C19.072 10.4079 19.0598 10.489 19.0395 10.5621H17.3155C17.2952 10.485 17.283 10.4079 17.283 10.3268C17.283 9.83593 17.6846 9.43433 18.1795 9.43433Z" fill="url(#paint34_radial_3_799)"/>
<path d="M17.6685 10.3268C17.6685 10.0428 17.8957 9.81567 18.1797 9.81567C18.4636 9.81567 18.6908 10.0428 18.6908 10.3268C18.6908 10.412 18.6705 10.4931 18.634 10.5621H17.7294C17.6888 10.4931 17.6685 10.412 17.6685 10.3268Z" fill="black"/>
<g filter="url(#filter9_f_3_799)">
<path d="M18.1138 9.623C18.1774 9.70805 18.0445 9.81172 17.8934 9.9247C17.7423 10.0377 17.6302 10.1172 17.5666 10.0322C17.503 9.94711 17.574 9.78658 17.7251 9.6736C17.8762 9.56061 18.0503 9.53796 18.1138 9.623Z" fill="#C7A7A3"/>
<path d="M18.1138 9.623C18.1774 9.70805 18.0445 9.81172 17.8934 9.9247C17.7423 10.0377 17.6302 10.1172 17.5666 10.0322C17.503 9.94711 17.574 9.78658 17.7251 9.6736C17.8762 9.56061 18.0503 9.53796 18.1138 9.623Z" fill="url(#paint35_radial_3_799)"/>
</g>
<g filter="url(#filter10_f_3_799)">
<path d="M18.9746 10.2093C18.9416 9.97857 18.8066 9.80468 18.7432 9.74658L18.4833 10.0318L18.6006 10.26L18.9746 10.2093Z" fill="url(#paint36_linear_3_799)"/>
</g>
<path d="M13.6047 9.1626C12.9515 9.1626 12.3998 9.6129 12.2497 10.2214C12.2051 10.3959 12.3389 10.5622 12.5174 10.5622H14.7487C14.8907 10.5622 15.0042 10.4324 14.9759 10.2904C14.8501 9.64941 14.2821 9.1626 13.6047 9.1626Z" fill="white"/>
<path d="M13.8115 9.43433C13.3166 9.43433 12.919 9.83595 12.919 10.3268C12.919 10.408 12.9312 10.4891 12.9515 10.5621H14.6756C14.6959 10.485 14.7081 10.408 14.7081 10.3268C14.704 9.83595 14.3064 9.43433 13.8115 9.43433Z" fill="url(#paint37_radial_3_799)"/>
<path d="M14.3227 10.3268C14.3227 10.0429 14.0955 9.81567 13.8115 9.81567C13.5275 9.81567 13.3004 10.0429 13.3004 10.3268C13.3004 10.412 13.3206 10.4932 13.3571 10.5621H14.2618C14.2983 10.4932 14.3227 10.412 14.3227 10.3268Z" fill="black"/>
<g filter="url(#filter11_f_3_799)">
<path d="M14.6269 10.2219C14.6269 9.93349 14.3924 9.74121 14.329 9.68311L14.0406 9.96201L14.2181 10.3233L14.6269 10.2219Z" fill="url(#paint38_linear_3_799)"/>
</g>
<g filter="url(#filter12_f_3_799)">
<ellipse cx="13.5421" cy="9.81582" rx="0.389623" ry="0.197185" transform="rotate(-27.914 13.5421 9.81582)" fill="#C7A7A3" fill-opacity="0.9"/>
<ellipse cx="13.5421" cy="9.81582" rx="0.389623" ry="0.197185" transform="rotate(-27.914 13.5421 9.81582)" fill="url(#paint39_radial_3_799)"/>
</g>
<path d="M20.9173 12.1686C20.9831 11.1044 21.0465 10.0415 21.1019 8.97729C21.8575 9.1095 22.4317 9.7688 22.4317 10.5622C22.4317 11.4191 21.7619 12.1196 20.9173 12.1686Z" fill="url(#paint40_linear_3_799)"/>
<path d="M20.9173 12.1686C20.9831 11.1044 21.0465 10.0415 21.1019 8.97729C21.8575 9.1095 22.4317 9.7688 22.4317 10.5622C22.4317 11.4191 21.7619 12.1196 20.9173 12.1686Z" fill="url(#paint41_radial_3_799)"/>
<path d="M20.9173 12.1686C20.9831 11.1044 21.0465 10.0415 21.1019 8.97729C21.8575 9.1095 22.4317 9.7688 22.4317 10.5622C22.4317 11.4191 21.7619 12.1196 20.9173 12.1686Z" fill="url(#paint42_radial_3_799)"/>
<path d="M20.9173 12.1686C20.9831 11.1044 21.0465 10.0415 21.1019 8.97729C21.8575 9.1095 22.4317 9.7688 22.4317 10.5622C22.4317 11.4191 21.7619 12.1196 20.9173 12.1686Z" fill="url(#paint43_radial_3_799)"/>
<path d="M10.9415 8.96899C10.1602 9.07916 9.55914 9.75051 9.55914 10.5622C9.55914 11.4213 10.2324 12.1231 11.08 12.1689C11.0154 11.1004 10.9622 10.0379 10.9415 8.96899Z" fill="url(#paint44_linear_3_799)"/>
<path d="M10.9415 8.96899C10.1602 9.07916 9.55914 9.75051 9.55914 10.5622C9.55914 11.4213 10.2324 12.1231 11.08 12.1689C11.0154 11.1004 10.9622 10.0379 10.9415 8.96899Z" fill="url(#paint45_radial_3_799)"/>
<g filter="url(#filter13_f_3_799)">
<path d="M10.9101 9.62915C10.4834 9.72481 10.1646 10.1059 10.1646 10.5614C10.1646 11.0462 10.5257 11.4466 10.9935 11.5085C10.9588 10.8817 10.9296 10.2561 10.9101 9.62915Z" fill="url(#paint46_radial_3_799)"/>
</g>
<g filter="url(#filter14_f_3_799)">
<path d="M20.9384 11.5139C20.977 10.8794 21.0142 10.2451 21.049 9.6106C21.5203 9.66939 21.8849 10.0714 21.8849 10.5586C21.8849 11.0833 21.462 11.5092 20.9384 11.5139Z" fill="url(#paint47_linear_3_799)"/>
</g>
<g filter="url(#filter15_f_3_799)">
<path d="M12.6224 8.0186C12.8794 7.83423 13.5199 7.5099 14.2776 7.63728" stroke="#353535" stroke-width="0.25" stroke-linecap="round"/>
</g>
<g filter="url(#filter16_f_3_799)">
<path d="M19.5566 7.97246C19.2996 7.78808 18.659 7.46376 17.9014 7.59114" stroke="#353535" stroke-width="0.25" stroke-linecap="round"/>
</g>
<g filter="url(#filter17_f_3_799)">
<path d="M20.1883 5.22938L18.1074 5.22938C17.8409 5.22938 17.6248 5.0133 17.6248 4.74675C17.6248 4.44941 17.891 4.22143 18.1846 4.26823C18.7244 4.35427 19.4414 4.47421 19.9215 4.59324C21.0071 4.86239 21.3068 5.39087 21.3906 5.76768C21.003 5.29397 20.4276 5.21143 20.1883 5.22938Z" fill="#504A4C"/>
</g>
<g filter="url(#filter18_i_3_799)">
<path d="M26.0301 16.0195H5.97006C5.44006 16.0195 5.00006 16.4495 5.00006 16.9895V30.0195H27.0001V16.9895C27.0001 16.4495 26.5601 16.0195 26.0301 16.0195Z" fill="url(#paint48_linear_3_799)"/>
<path d="M26.0301 16.0195H5.97006C5.44006 16.0195 5.00006 16.4495 5.00006 16.9895V30.0195H27.0001V16.9895C27.0001 16.4495 26.5601 16.0195 26.0301 16.0195Z" fill="url(#paint49_radial_3_799)"/>
<path d="M26.0301 16.0195H5.97006C5.44006 16.0195 5.00006 16.4495 5.00006 16.9895V30.0195H27.0001V16.9895C27.0001 16.4495 26.5601 16.0195 26.0301 16.0195Z" fill="url(#paint50_linear_3_799)"/>
<path d="M26.0301 16.0195H5.97006C5.44006 16.0195 5.00006 16.4495 5.00006 16.9895V30.0195H27.0001V16.9895C27.0001 16.4495 26.5601 16.0195 26.0301 16.0195Z" fill="url(#paint51_linear_3_799)"/>
<path d="M26.0301 16.0195H5.97006C5.44006 16.0195 5.00006 16.4495 5.00006 16.9895V30.0195H27.0001V16.9895C27.0001 16.4495 26.5601 16.0195 26.0301 16.0195Z" fill="url(#paint52_linear_3_799)"/>
<path d="M26.0301 16.0195H5.97006C5.44006 16.0195 5.00006 16.4495 5.00006 16.9895V30.0195H27.0001V16.9895C27.0001 16.4495 26.5601 16.0195 26.0301 16.0195Z" fill="url(#paint53_radial_3_799)"/>
</g>
<path d="M14.444 21.8909C14.444 21.7528 14.5559 21.6409 14.694 21.6409H17.3041C17.4421 21.6409 17.5541 21.7528 17.5541 21.8909V24.3066C17.5541 24.4447 17.4421 24.5566 17.3041 24.5566H14.694C14.5559 24.5566 14.444 24.4447 14.444 24.3066V21.8909Z" fill="url(#paint54_linear_3_799)"/>
<path d="M14.444 21.8909C14.444 21.7528 14.5559 21.6409 14.694 21.6409H17.3041C17.4421 21.6409 17.5541 21.7528 17.5541 21.8909V24.3066C17.5541 24.4447 17.4421 24.5566 17.3041 24.5566H14.694C14.5559 24.5566 14.444 24.4447 14.444 24.3066V21.8909Z" fill="url(#paint55_linear_3_799)"/>
<path d="M14.444 21.8909C14.444 21.7528 14.5559 21.6409 14.694 21.6409H17.3041C17.4421 21.6409 17.5541 21.7528 17.5541 21.8909V24.3066C17.5541 24.4447 17.4421 24.5566 17.3041 24.5566H14.694C14.5559 24.5566 14.444 24.4447 14.444 24.3066V21.8909Z" fill="url(#paint56_linear_3_799)"/>
<path d="M14.444 21.8909C14.444 21.7528 14.5559 21.6409 14.694 21.6409H17.3041C17.4421 21.6409 17.5541 21.7528 17.5541 21.8909V24.3066C17.5541 24.4447 17.4421 24.5566 17.3041 24.5566H14.694C14.5559 24.5566 14.444 24.4447 14.444 24.3066V21.8909Z" fill="url(#paint57_linear_3_799)"/>
<path d="M14.444 21.8909C14.444 21.7528 14.5559 21.6409 14.694 21.6409H17.3041C17.4421 21.6409 17.5541 21.7528 17.5541 21.8909V24.3066C17.5541 24.4447 17.4421 24.5566 17.3041 24.5566H14.694C14.5559 24.5566 14.444 24.4447 14.444 24.3066V21.8909Z" fill="url(#paint58_linear_3_799)"/>
<path d="M14.444 21.8909C14.444 21.7528 14.5559 21.6409 14.694 21.6409H17.3041C17.4421 21.6409 17.5541 21.7528 17.5541 21.8909V24.3066C17.5541 24.4447 17.4421 24.5566 17.3041 24.5566H14.694C14.5559 24.5566 14.444 24.4447 14.444 24.3066V21.8909Z" fill="url(#paint59_radial_3_799)" fill-opacity="0.6"/>
<defs>
<filter id="filter0_ii_3_799" x="10.9322" y="4.65674" width="11.2204" height="12.5418" filterUnits="userSpaceOnUse" color-interpolation-filters="sRGB">
<feFlood flood-opacity="0" result="BackgroundImageFix"/>
<feBlend mode="normal" in="SourceGraphic" in2="BackgroundImageFix" result="shape"/>
<feColorMatrix in="SourceAlpha" type="matrix" values="0 0 0 0 0 0 0 0 0 0 0 0 0 0 0 0 0 0 127 0" result="hardAlpha"/>
<feOffset dx="1"/>
<feGaussianBlur stdDeviation="0.5"/>
<feComposite in2="hardAlpha" operator="arithmetic" k2="-1" k3="1"/>
<feColorMatrix type="matrix" values="0 0 0 0 0.333333 0 0 0 0 0.270588 0 0 0 0 0.258824 0 0 0 1 0"/>
<feBlend mode="normal" in2="shape" result="effect1_innerShadow_3_799"/>
<feColorMatrix in="SourceAlpha" type="matrix" values="0 0 0 0 0 0 0 0 0 0 0 0 0 0 0 0 0 0 127 0" result="hardAlpha"/>
<feOffset dy="0.2"/>
<feGaussianBlur stdDeviation="0.375"/>
<feComposite in2="hardAlpha" operator="arithmetic" k2="-1" k3="1"/>
<feColorMatrix type="matrix" values="0 0 0 0 0.145098 0 0 0 0 0.0705882 0 0 0 0 0.0745098 0 0 0 1 0"/>
<feBlend mode="normal" in2="effect1_innerShadow_3_799" result="effect2_innerShadow_3_799"/>
</filter>
<filter id="filter1_f_3_799" x="13.9802" y="9.00342" width="3.74674" height="4.90015" filterUnits="userSpaceOnUse" color-interpolation-filters="sRGB">
<feFlood flood-opacity="0" result="BackgroundImageFix"/>
<feBlend mode="normal" in="SourceGraphic" in2="BackgroundImageFix" result="shape"/>
<feGaussianBlur stdDeviation="0.5" result="effect1_foregroundBlur_3_799"/>
</filter>
<filter id="filter2_f_3_799" x="14.8569" y="9.60762" width="2.27727" height="3.30015" filterUnits="userSpaceOnUse" color-interpolation-filters="sRGB">
<feFlood flood-opacity="0" result="BackgroundImageFix"/>
<feBlend mode="normal" in="SourceGraphic" in2="BackgroundImageFix" result="shape"/>
<feGaussianBlur stdDeviation="0.1" result="effect1_foregroundBlur_3_799"/>
</filter>
<filter id="filter3_f_3_799" x="14.1361" y="13.128" width="3.71846" height="1.5728" filterUnits="userSpaceOnUse" color-interpolation-filters="sRGB">
<feFlood flood-opacity="0" result="BackgroundImageFix"/>
<feBlend mode="normal" in="SourceGraphic" in2="BackgroundImageFix" result="shape"/>
<feGaussianBlur stdDeviation="0.05" result="effect1_foregroundBlur_3_799"/>
</filter>
<filter id="filter4_ii_3_799" x="9.55914" y="1.48047" width="12.8727" height="8.35645" filterUnits="userSpaceOnUse" color-interpolation-filters="sRGB">
<feFlood flood-opacity="0" result="BackgroundImageFix"/>
<feBlend mode="normal" in="SourceGraphic" in2="BackgroundImageFix" result="shape"/>
<feColorMatrix in="SourceAlpha" type="matrix" values="0 0 0 0 0 0 0 0 0 0 0 0 0 0 0 0 0 0 127 0" result="hardAlpha"/>
<feOffset dy="-0.5"/>
<feGaussianBlur stdDeviation="0.625"/>
<feComposite in2="hardAlpha" operator="arithmetic" k2="-1" k3="1"/>
<feColorMatrix type="matrix" values="0 0 0 0 0.137255 0 0 0 0 0.0901961 0 0 0 0 0.145098 0 0 0 1 0"/>
<feBlend mode="normal" in2="shape" result="effect1_innerShadow_3_799"/>
<feColorMatrix in="SourceAlpha" type="matrix" values="0 0 0 0 0 0 0 0 0 0 0 0 0 0 0 0 0 0 127 0" result="hardAlpha"/>
<feOffset dy="-0.2"/>
<feGaussianBlur stdDeviation="0.2"/>
<feComposite in2="hardAlpha" operator="arithmetic" k2="-1" k3="1"/>
<feColorMatrix type="matrix" values="0 0 0 0 0.0784314 0 0 0 0 0.0352941 0 0 0 0 0.0470588 0 0 0 1 0"/>
<feBlend mode="normal" in2="effect1_innerShadow_3_799" result="effect2_innerShadow_3_799"/>
</filter>
<filter id="filter5_i_3_799" x="17.5848" y="7.14399" width="2.33886" height="1.19048" filterUnits="userSpaceOnUse" color-interpolation-filters="sRGB">
<feFlood flood-opacity="0" result="BackgroundImageFix"/>
<feBlend mode="normal" in="SourceGraphic" in2="BackgroundImageFix" result="shape"/>
<feColorMatrix in="SourceAlpha" type="matrix" values="0 0 0 0 0 0 0 0 0 0 0 0 0 0 0 0 0 0 127 0" result="hardAlpha"/>
<feOffset dx="0.1" dy="-0.2"/>
<feGaussianBlur stdDeviation="0.125"/>
<feComposite in2="hardAlpha" operator="arithmetic" k2="-1" k3="1"/>
<feColorMatrix type="matrix" values="0 0 0 0 0.0588235 0 0 0 0 0.054902 0 0 0 0 0.0588235 0 0 0 1 0"/>
<feBlend mode="normal" in2="shape" result="effect1_innerShadow_3_799"/>
</filter>
<filter id="filter6_i_3_799" x="12.3282" y="7.15864" width="2.33887" height="1.17559" filterUnits="userSpaceOnUse" color-interpolation-filters="sRGB">
<feFlood flood-opacity="0" result="BackgroundImageFix"/>
<feBlend mode="normal" in="SourceGraphic" in2="BackgroundImageFix" result="shape"/>
<feColorMatrix in="SourceAlpha" type="matrix" values="0 0 0 0 0 0 0 0 0 0 0 0 0 0 0 0 0 0 127 0" result="hardAlpha"/>
<feOffset dx="0.1" dy="-0.2"/>
<feGaussianBlur stdDeviation="0.125"/>
<feComposite in2="hardAlpha" operator="arithmetic" k2="-1" k3="1"/>
<feColorMatrix type="matrix" values="0 0 0 0 0.0588235 0 0 0 0 0.054902 0 0 0 0 0.0588235 0 0 0 1 0"/>
<feBlend mode="normal" in2="shape" result="effect1_innerShadow_3_799"/>
</filter>
<filter id="filter7_if_3_799" x="9.91461" y="2.56934" width="6.73436" height="5.9917" filterUnits="userSpaceOnUse" color-interpolation-filters="sRGB">
<feFlood flood-opacity="0" result="BackgroundImageFix"/>
<feBlend mode="normal" in="SourceGraphic" in2="BackgroundImageFix" result="shape"/>
<feColorMatrix in="SourceAlpha" type="matrix" values="0 0 0 0 0 0 0 0 0 0 0 0 0 0 0 0 0 0 127 0" result="hardAlpha"/>
<feOffset dx="0.4" dy="0.2"/>
<feGaussianBlur stdDeviation="0.2"/>
<feComposite in2="hardAlpha" operator="arithmetic" k2="-1" k3="1"/>
<feColorMatrix type="matrix" values="0 0 0 0 0.286275 0 0 0 0 0.243137 0 0 0 0 0.227451 0 0 0 1 0"/>
<feBlend mode="normal" in2="shape" result="effect1_innerShadow_3_799"/>
<feGaussianBlur stdDeviation="0.125" result="effect2_foregroundBlur_3_799"/>
</filter>
<filter id="filter8_if_3_799" x="15.8364" y="2.99292" width="6.36149" height="5.73584" filterUnits="userSpaceOnUse" color-interpolation-filters="sRGB">
<feFlood flood-opacity="0" result="BackgroundImageFix"/>
<feBlend mode="normal" in="SourceGraphic" in2="BackgroundImageFix" result="shape"/>
<feColorMatrix in="SourceAlpha" type="matrix" values="0 0 0 0 0 0 0 0 0 0 0 0 0 0 0 0 0 0 127 0" result="hardAlpha"/>
<feOffset dx="-0.1" dy="0.2"/>
<feComposite in2="hardAlpha" operator="arithmetic" k2="-1" k3="1"/>
<feColorMatrix type="matrix" values="0 0 0 0 0.329412 0 0 0 0 0.305882 0 0 0 0 0.313726 0 0 0 1 0"/>
<feBlend mode="normal" in2="shape" result="effect1_innerShadow_3_799"/>
<feGaussianBlur stdDeviation="0.125" result="effect2_foregroundBlur_3_799"/>
</filter>
<filter id="filter9_f_3_799" x="17.4433" y="9.47153" width="0.78683" height="0.696338" filterUnits="userSpaceOnUse" color-interpolation-filters="sRGB">
<feFlood flood-opacity="0" result="BackgroundImageFix"/>
<feBlend mode="normal" in="SourceGraphic" in2="BackgroundImageFix" result="shape"/>
<feGaussianBlur stdDeviation="0.05" result="effect1_foregroundBlur_3_799"/>
</filter>
<filter id="filter10_f_3_799" x="18.2833" y="9.54658" width="0.891228" height="0.913428" filterUnits="userSpaceOnUse" color-interpolation-filters="sRGB">
<feFlood flood-opacity="0" result="BackgroundImageFix"/>
<feBlend mode="normal" in="SourceGraphic" in2="BackgroundImageFix" result="shape"/>
<feGaussianBlur stdDeviation="0.1" result="effect1_foregroundBlur_3_799"/>
</filter>
<filter id="filter11_f_3_799" x="13.8406" y="9.48311" width="0.986336" height="1.04014" filterUnits="userSpaceOnUse" color-interpolation-filters="sRGB">
<feFlood flood-opacity="0" result="BackgroundImageFix"/>
<feBlend mode="normal" in="SourceGraphic" in2="BackgroundImageFix" result="shape"/>
<feGaussianBlur stdDeviation="0.1" result="effect1_foregroundBlur_3_799"/>
</filter>
<filter id="filter12_f_3_799" x="13.0856" y="9.46348" width="0.913078" height="0.704639" filterUnits="userSpaceOnUse" color-interpolation-filters="sRGB">
<feFlood flood-opacity="0" result="BackgroundImageFix"/>
<feBlend mode="normal" in="SourceGraphic" in2="BackgroundImageFix" result="shape"/>
<feGaussianBlur stdDeviation="0.05" result="effect1_foregroundBlur_3_799"/>
</filter>
<filter id="filter13_f_3_799" x="9.91461" y="9.37915" width="1.3289" height="2.37939" filterUnits="userSpaceOnUse" color-interpolation-filters="sRGB">
<feFlood flood-opacity="0" result="BackgroundImageFix"/>
<feBlend mode="normal" in="SourceGraphic" in2="BackgroundImageFix" result="shape"/>
<feGaussianBlur stdDeviation="0.125" result="effect1_foregroundBlur_3_799"/>
</filter>
<filter id="filter14_f_3_799" x="20.4384" y="9.1106" width="1.94653" height="2.90332" filterUnits="userSpaceOnUse" color-interpolation-filters="sRGB">
<feFlood flood-opacity="0" result="BackgroundImageFix"/>
<feBlend mode="normal" in="SourceGraphic" in2="BackgroundImageFix" result="shape"/>
<feGaussianBlur stdDeviation="0.25" result="effect1_foregroundBlur_3_799"/>
</filter>
<filter id="filter15_f_3_799" x="12.2474" y="7.2334" width="2.40521" height="1.16016" filterUnits="userSpaceOnUse" color-interpolation-filters="sRGB">
<feFlood flood-opacity="0" result="BackgroundImageFix"/>
<feBlend mode="normal" in="SourceGraphic" in2="BackgroundImageFix" result="shape"/>
<feGaussianBlur stdDeviation="0.125" result="effect1_foregroundBlur_3_799"/>
</filter>
<filter id="filter16_f_3_799" x="17.5264" y="7.18726" width="2.40521" height="1.16016" filterUnits="userSpaceOnUse" color-interpolation-filters="sRGB">
<feFlood flood-opacity="0" result="BackgroundImageFix"/>
<feBlend mode="normal" in="SourceGraphic" in2="BackgroundImageFix" result="shape"/>
<feGaussianBlur stdDeviation="0.125" result="effect1_foregroundBlur_3_799"/>
</filter>
<filter id="filter17_f_3_799" x="16.8748" y="3.51221" width="5.26578" height="3.00537" filterUnits="userSpaceOnUse" color-interpolation-filters="sRGB">
<feFlood flood-opacity="0" result="BackgroundImageFix"/>
<feBlend mode="normal" in="SourceGraphic" in2="BackgroundImageFix" result="shape"/>
<feGaussianBlur stdDeviation="0.375" result="effect1_foregroundBlur_3_799"/>
</filter>
<filter id="filter18_i_3_799" x="5.00006" y="16.0195" width="22" height="14.1" filterUnits="userSpaceOnUse" color-interpolation-filters="sRGB">
<feFlood flood-opacity="0" result="BackgroundImageFix"/>
<feBlend mode="normal" in="SourceGraphic" in2="BackgroundImageFix" result="shape"/>
<feColorMatrix in="SourceAlpha" type="matrix" values="0 0 0 0 0 0 0 0 0 0 0 0 0 0 0 0 0 0 127 0" result="hardAlpha"/>
<feOffset dy="0.1"/>
<feGaussianBlur stdDeviation="0.25"/>
<feComposite in2="hardAlpha" operator="arithmetic" k2="-1" k3="1"/>
<feColorMatrix type="matrix" values="0 0 0 0 0.678431 0 0 0 0 0.670588 0 0 0 0 0.682353 0 0 0 1 0"/>
<feBlend mode="normal" in2="shape" result="effect1_innerShadow_3_799"/>
</filter>
<radialGradient id="paint0_radial_3_799" cx="0" cy="0" r="1" gradientUnits="userSpaceOnUse" gradientTransform="translate(2.74762 30.0194) rotate(-25.8303) scale(3.11934 3.38798)">
<stop offset="0.406184" stop-color="#503C3B"/>
<stop offset="1" stop-color="#3B2A28"/>
</radialGradient>
<radialGradient id="paint1_radial_3_799" cx="0" cy="0" r="1" gradientUnits="userSpaceOnUse" gradientTransform="translate(5.40387 29.8533) rotate(177.157) scale(3.35044 4.79049)">
<stop offset="0.763821" stop-color="#634D49" stop-opacity="0"/>
<stop offset="0.927153" stop-color="#634D49"/>
</radialGradient>
<radialGradient id="paint2_radial_3_799" cx="0" cy="0" r="1" gradientUnits="userSpaceOnUse" gradientTransform="translate(27.0914 30.1189) rotate(-33.3961) scale(6.75616 1.88662)">
<stop offset="0.127243" stop-color="#6B5957"/>
<stop offset="0.988192" stop-color="#533837" stop-opacity="0"/>
</radialGradient>
<linearGradient id="paint3_linear_3_799" x1="26.9664" y1="28.8376" x2="27.3023" y2="28.8376" gradientUnits="userSpaceOnUse">
<stop stop-color="#533E40"/>
<stop offset="1" stop-color="#533E40" stop-opacity="0"/>
</linearGradient>
<linearGradient id="paint4_linear_3_799" x1="16.0001" y1="6.70273" x2="16.0001" y2="34.6111" gradientUnits="userSpaceOnUse">
<stop stop-color="#636363"/>
<stop offset="1" stop-color="#1C1C1C"/>
</linearGradient>
<linearGradient id="paint5_linear_3_799" x1="10.9177" y1="24.0032" x2="1.42823" y2="24.0442" gradientUnits="userSpaceOnUse">
<stop stop-color="#1C1C1C"/>
<stop offset="1" stop-color="#636363"/>
</linearGradient>
<linearGradient id="paint6_linear_3_799" x1="22.998" y1="24.02" x2="28.6524" y2="24.02" gradientUnits="userSpaceOnUse">
<stop stop-color="#1C1C1C"/>
<stop offset="1" stop-color="#636363"/>
</linearGradient>
<radialGradient id="paint7_radial_3_799" cx="0" cy="0" r="1" gradientUnits="userSpaceOnUse" gradientTransform="translate(20.7489 11.769) rotate(69.6569) scale(2.15388 2.55864)">
<stop offset="0.214643" stop-color="#3C3B3C"/>
<stop offset="1" stop-color="#221C27"/>
</radialGradient>
<radialGradient id="paint8_radial_3_799" cx="0" cy="0" r="1" gradientUnits="userSpaceOnUse" gradientTransform="translate(9.93911 12.2594) rotate(17.4472) scale(1.54766 4.77465)">
<stop stop-color="#463C39"/>
<stop offset="0.745836" stop-color="#1B141E"/>
</radialGradient>
<radialGradient id="paint9_radial_3_799" cx="0" cy="0" r="1" gradientUnits="userSpaceOnUse" gradientTransform="translate(18.8031 10.8276) rotate(180) scale(5.22785 9.24802)">
<stop stop-color="#563B38"/>
<stop offset="1" stop-color="#3C2828"/>
</radialGradient>
<linearGradient id="paint10_linear_3_799" x1="21.1526" y1="12.513" x2="16.8" y2="12.513" gradientUnits="userSpaceOnUse">
<stop stop-color="#563B38"/>
<stop offset="1" stop-color="#563B38" stop-opacity="0"/>
</linearGradient>
<radialGradient id="paint11_radial_3_799" cx="0" cy="0" r="1" gradientUnits="userSpaceOnUse" gradientTransform="translate(17.5769 4.91411) rotate(94.7038) scale(12.4655 10.3229)">
<stop offset="0.767031" stop-color="#432742" stop-opacity="0"/>
<stop offset="0.99662" stop-color="#432742"/>
</radialGradient>
<radialGradient id="paint12_radial_3_799" cx="0" cy="0" r="1" gradientUnits="userSpaceOnUse" gradientTransform="translate(18.4426 9.5147) rotate(-90) scale(1.14835 1.42108)">
<stop offset="0.325" stop-color="#432728"/>
<stop offset="1" stop-color="#432728" stop-opacity="0"/>
</radialGradient>
<radialGradient id="paint13_radial_3_799" cx="0" cy="0" r="1" gradientUnits="userSpaceOnUse" gradientTransform="translate(13.6952 9.5612) rotate(-89.7942) scale(1.09429 1.19084)">
<stop offset="0.377617" stop-color="#361E27"/>
<stop offset="1" stop-color="#361E27" stop-opacity="0"/>
</radialGradient>
<radialGradient id="paint14_radial_3_799" cx="0" cy="0" r="1" gradientUnits="userSpaceOnUse" gradientTransform="translate(19.4282 11.8156) rotate(176.388) scale(8.5129 21.7462)">
<stop offset="0.835902" stop-color="#564440" stop-opacity="0"/>
<stop offset="1" stop-color="#564440"/>
</radialGradient>
<radialGradient id="paint15_radial_3_799" cx="0" cy="0" r="1" gradientUnits="userSpaceOnUse" gradientTransform="translate(10.5279 6.50228) rotate(-33.0322) scale(4.85827 1.77847)">
<stop offset="0.379603" stop-color="#231112"/>
<stop offset="1" stop-color="#231112" stop-opacity="0"/>
</radialGradient>
<radialGradient id="paint16_radial_3_799" cx="0" cy="0" r="1" gradientUnits="userSpaceOnUse" gradientTransform="translate(21.5401 7.91023) rotate(95.3677) scale(2.50844 1.00273)">
<stop offset="0.244676" stop-color="#6B5B59"/>
<stop offset="1" stop-color="#6B5B59" stop-opacity="0"/>
</radialGradient>
<radialGradient id="paint17_radial_3_799" cx="0" cy="0" r="1" gradientUnits="userSpaceOnUse" gradientTransform="translate(18.4225 5.84859) rotate(121.159) scale(3.36898 2.78137)">
<stop offset="0.0780198" stop-color="#534445"/>
<stop offset="1" stop-color="#534445" stop-opacity="0"/>
</radialGradient>
<linearGradient id="paint18_linear_3_799" x1="16.0424" y1="17.0796" x2="16.0424" y2="16.4393" gradientUnits="userSpaceOnUse">
<stop stop-color="#49201F"/>
<stop offset="1" stop-color="#49201F" stop-opacity="0"/>
</linearGradient>
<linearGradient id="paint19_linear_3_799" x1="16.8338" y1="11.5025" x2="15.9956" y2="11.5374" gradientUnits="userSpaceOnUse">
<stop offset="0.360477" stop-color="#66514E"/>
<stop offset="1" stop-color="#66514E" stop-opacity="0"/>
</linearGradient>
<radialGradient id="paint20_radial_3_799" cx="0" cy="0" r="1" gradientUnits="userSpaceOnUse" gradientTransform="translate(16.4619 12.1883) rotate(90) scale(0.244103 0.767181)">
<stop stop-color="#685554"/>
<stop offset="1" stop-color="#685554" stop-opacity="0"/>
</radialGradient>
<linearGradient id="paint21_linear_3_799" x1="15.9956" y1="12.6417" x2="15.9956" y2="12.1767" gradientUnits="userSpaceOnUse">
<stop stop-color="#3E2230"/>
<stop offset="1" stop-color="#3E2230" stop-opacity="0"/>
</linearGradient>
<radialGradient id="paint22_radial_3_799" cx="0" cy="0" r="1" gradientUnits="userSpaceOnUse" gradientTransform="translate(16.5781 11.6188) rotate(155.369) scale(1.67341 2.6893)">
<stop offset="0.714105" stop-color="#3E2B29" stop-opacity="0"/>
<stop offset="1" stop-color="#3F2C2A"/>
</radialGradient>
<linearGradient id="paint23_linear_3_799" x1="15.9956" y1="9.68707" x2="15.9956" y2="10.4832" gradientUnits="userSpaceOnUse">
<stop stop-color="#4B302A"/>
<stop offset="1" stop-color="#4B302A" stop-opacity="0"/>
</linearGradient>
<linearGradient id="paint24_linear_3_799" x1="14.7936" y1="14.2127" x2="15.1121" y2="13.3782" gradientUnits="userSpaceOnUse">
<stop stop-color="#584A4A"/>
<stop offset="1" stop-color="#40222D" stop-opacity="0"/>
</linearGradient>
<radialGradient id="paint25_radial_3_799" cx="0" cy="0" r="1" gradientUnits="userSpaceOnUse" gradientTransform="translate(15.9954 14.3671) rotate(-90) scale(0.720737 2.89971)">
<stop stop-color="#290018"/>
<stop offset="1" stop-color="#290017"/>
</radialGradient>
<linearGradient id="paint26_linear_3_799" x1="22.8475" y1="5.16512" x2="11.2353" y2="5.16512" gradientUnits="userSpaceOnUse">
<stop stop-color="#443D40"/>
<stop offset="1" stop-color="#272127"/>
</linearGradient>
<radialGradient id="paint27_radial_3_799" cx="0" cy="0" r="1" gradientUnits="userSpaceOnUse" gradientTransform="translate(10.766 7.9355) rotate(-90) scale(3.50133 8.85445)">
<stop offset="0.535851" stop-color="#3E3433"/>
<stop offset="1" stop-color="#3E3433" stop-opacity="0"/>
</radialGradient>
<radialGradient id="paint28_radial_3_799" cx="0" cy="0" r="1" gradientUnits="userSpaceOnUse" gradientTransform="translate(20.8563 9.24578) rotate(-87.4012) scale(2.51513 4.45631)">
<stop stop-color="#4F4D4D"/>
<stop offset="1" stop-color="#4F4D4D" stop-opacity="0"/>
</radialGradient>
<radialGradient id="paint29_radial_3_799" cx="0" cy="0" r="1" gradientUnits="userSpaceOnUse" gradientTransform="translate(20.102 2.96939) rotate(-146.667) scale(2.82329 2.07244)">
<stop stop-color="#5E5A5B"/>
<stop offset="1" stop-color="#5E5A5B" stop-opacity="0"/>
</radialGradient>
<radialGradient id="paint30_radial_3_799" cx="0" cy="0" r="1" gradientUnits="userSpaceOnUse" gradientTransform="translate(15.0904 1.37706) rotate(58.4652) scale(1.73056 4.00717)">
<stop offset="0.286771" stop-color="#484646"/>
<stop offset="1" stop-color="#484646" stop-opacity="0"/>
</radialGradient>
<radialGradient id="paint31_radial_3_799" cx="0" cy="0" r="1" gradientUnits="userSpaceOnUse" gradientTransform="translate(16.249 3.63626) rotate(180) scale(2.20113 0.816924)">
<stop stop-color="#423C3F"/>
<stop offset="1" stop-color="#423C3F" stop-opacity="0"/>
</radialGradient>
<radialGradient id="paint32_radial_3_799" cx="0" cy="0" r="1" gradientUnits="userSpaceOnUse" gradientTransform="translate(10.5648 7.57873) rotate(-57.7244) scale(6.02662 6.67688)">
<stop offset="0.0926981" stop-color="#0B0306"/>
<stop offset="0.311222" stop-color="#1C0C20"/>
<stop offset="1" stop-color="#1C0C20" stop-opacity="0"/>
</radialGradient>
<radialGradient id="paint33_radial_3_799" cx="0" cy="0" r="1" gradientUnits="userSpaceOnUse" gradientTransform="translate(17.7432 5.97387) rotate(6.66666) scale(3.27033 1.36922)">
<stop stop-color="#200E25"/>
<stop offset="1" stop-color="#200E25" stop-opacity="0"/>
</radialGradient>
<radialGradient id="paint34_radial_3_799" cx="0" cy="0" r="1" gradientUnits="userSpaceOnUse" gradientTransform="translate(18.1775 9.91135) rotate(90) scale(0.81132 1.2905)">
<stop offset="0.80198" stop-color="#7D574A"/>
<stop offset="1" stop-color="#694B43"/>
<stop offset="1" stop-color="#804D49"/>
<stop offset="1" stop-color="#664842"/>
</radialGradient>
<radialGradient id="paint35_radial_3_799" cx="0" cy="0" r="1" gradientUnits="userSpaceOnUse" gradientTransform="translate(17.9492 9.99549) rotate(-127.812) scale(0.378287 0.520811)">
<stop offset="0.765532" stop-color="#FFE6E2" stop-opacity="0"/>
<stop offset="0.966159" stop-color="#FFE6E2"/>
</radialGradient>
<linearGradient id="paint36_linear_3_799" x1="18.9556" y1="9.96526" x2="18.6418" y2="10.1586" gradientUnits="userSpaceOnUse">
<stop stop-color="#B4948D"/>
<stop offset="1" stop-color="#B4948D" stop-opacity="0"/>
</linearGradient>
<radialGradient id="paint37_radial_3_799" cx="0" cy="0" r="1" gradientUnits="userSpaceOnUse" gradientTransform="translate(13.8135 9.91138) rotate(90) scale(0.811361 1.29056)">
<stop offset="0.80198" stop-color="#7D574A"/>
<stop offset="1" stop-color="#694B43"/>
<stop offset="1" stop-color="#804D49"/>
<stop offset="1" stop-color="#664842"/>
</radialGradient>
<linearGradient id="paint38_linear_3_799" x1="14.5574" y1="9.96518" x2="14.2437" y2="10.1585" gradientUnits="userSpaceOnUse">
<stop stop-color="#B4948D"/>
<stop offset="1" stop-color="#B4948D" stop-opacity="0"/>
</linearGradient>
<radialGradient id="paint39_radial_3_799" cx="0" cy="0" r="1" gradientUnits="userSpaceOnUse" gradientTransform="translate(13.527 10.1307) rotate(-90.897) scale(0.494144 0.593982)">
<stop offset="0.765532" stop-color="#FFE6E2" stop-opacity="0"/>
<stop offset="0.966159" stop-color="#FFE6E2"/>
</radialGradient>
<linearGradient id="paint40_linear_3_799" x1="22.4317" y1="9.99235" x2="21.2249" y2="12.1686" gradientUnits="userSpaceOnUse">
<stop stop-color="#62504F"/>
<stop offset="1" stop-color="#492F32"/>
</linearGradient>
<radialGradient id="paint41_radial_3_799" cx="0" cy="0" r="1" gradientUnits="userSpaceOnUse" gradientTransform="translate(20.6131 9.92531) rotate(74.3475) scale(2.32967 2.22268)">
<stop offset="0.856273" stop-color="#301924" stop-opacity="0"/>
<stop offset="1" stop-color="#301924"/>
</radialGradient>
<radialGradient id="paint42_radial_3_799" cx="0" cy="0" r="1" gradientUnits="userSpaceOnUse" gradientTransform="translate(20.9735 10.4701) rotate(-53.9198) scale(1.33768 1.12124)">
<stop offset="0.663731" stop-color="#351B1E"/>
<stop offset="1" stop-color="#351B1E" stop-opacity="0"/>
</radialGradient>
<radialGradient id="paint43_radial_3_799" cx="0" cy="0" r="1" gradientUnits="userSpaceOnUse" gradientTransform="translate(21.0875 10.6425) rotate(-69.2631) scale(1.65782 2.21508)">
<stop offset="0.803247" stop-color="#361C1E" stop-opacity="0"/>
<stop offset="0.965916" stop-color="#361C1E"/>
</radialGradient>
<linearGradient id="paint44_linear_3_799" x1="10.1458" y1="10.6963" x2="11.604" y2="10.569" gradientUnits="userSpaceOnUse">
<stop stop-color="#372425"/>
<stop offset="1" stop-color="#281919"/>
</linearGradient>
<radialGradient id="paint45_radial_3_799" cx="0" cy="0" r="1" gradientUnits="userSpaceOnUse" gradientTransform="translate(10.7324 10.0929) rotate(101.248) scale(2.11668 2.08089)">
<stop offset="0.77507" stop-color="#301929" stop-opacity="0"/>
<stop offset="1" stop-color="#301929"/>
</radialGradient>
<radialGradient id="paint46_radial_3_799" cx="0" cy="0" r="1" gradientUnits="userSpaceOnUse" gradientTransform="translate(11.0811 10.5688) rotate(170.26) scale(0.929883 0.410131)">
<stop stop-color="#2C1D22"/>
<stop offset="1" stop-color="#271416"/>
</radialGradient>
<linearGradient id="paint47_linear_3_799" x1="21.4117" y1="9.6106" x2="21.4117" y2="11.5139" gradientUnits="userSpaceOnUse">
<stop stop-color="#4C3838"/>
<stop offset="1" stop-color="#3E2724"/>
</linearGradient>
<linearGradient id="paint48_linear_3_799" x1="7.4928" y1="19.7542" x2="11.2842" y2="30.8049" gradientUnits="userSpaceOnUse">
<stop stop-color="#AB9CBE"/>
<stop offset="1" stop-color="#847498"/>
</linearGradient>
<radialGradient id="paint49_radial_3_799" cx="0" cy="0" r="1" gradientUnits="userSpaceOnUse" gradientTransform="translate(17.2428 31.0667) rotate(-90) scale(7.59705 13.2772)">
<stop offset="0.0273225" stop-color="#78698C"/>
<stop offset="1" stop-color="#7A6B8E" stop-opacity="0"/>
</radialGradient>
<linearGradient id="paint50_linear_3_799" x1="16.0001" y1="16.0195" x2="16.0001" y2="17.3792" gradientUnits="userSpaceOnUse">
<stop stop-color="#BEB0B0"/>
<stop offset="0.267777" stop-color="#BEB7C7"/>
<stop offset="0.863185" stop-color="#BEB7C7" stop-opacity="0"/>
</linearGradient>
<linearGradient id="paint51_linear_3_799" x1="5.00006" y1="24.2542" x2="6.0553" y2="24.2542" gradientUnits="userSpaceOnUse">
<stop stop-color="#9F93B2"/>
<stop offset="1" stop-color="#9F93B2" stop-opacity="0"/>
</linearGradient>
<linearGradient id="paint52_linear_3_799" x1="27.0001" y1="25.1917" x2="25.524" y2="25.1917" gradientUnits="userSpaceOnUse">
<stop offset="0.174296" stop-color="#BAB9C0"/>
<stop offset="1" stop-color="#A191B5" stop-opacity="0"/>
</linearGradient>
<radialGradient id="paint53_radial_3_799" cx="0" cy="0" r="1" gradientUnits="userSpaceOnUse" gradientTransform="translate(26.6959 16.6604) rotate(150.751) scale(0.895409 0.830326)">
<stop stop-color="#E5DFF1"/>
<stop offset="0.723783" stop-color="#E5DFF1" stop-opacity="0"/>
</radialGradient>
<linearGradient id="paint54_linear_3_799" x1="17.9769" y1="23.0987" x2="13.911" y2="23.0987" gradientUnits="userSpaceOnUse">
<stop offset="0.0957634" stop-color="#56416B"/>
<stop offset="0.129627" stop-color="#614C77"/>
<stop offset="0.165482" stop-color="#51366C"/>
<stop offset="1" stop-color="#4F3568"/>
</linearGradient>
<linearGradient id="paint55_linear_3_799" x1="15.999" y1="21.6409" x2="15.999" y2="23.1959" gradientUnits="userSpaceOnUse">
<stop stop-color="#60407F"/>
<stop offset="1" stop-color="#543870" stop-opacity="0"/>
</linearGradient>
<linearGradient id="paint56_linear_3_799" x1="15.999" y1="21.6409" x2="15.999" y2="24.5566" gradientUnits="userSpaceOnUse">
<stop stop-color="#594170"/>
<stop offset="0.0367115" stop-color="#6D5686"/>
<stop offset="0.0580102" stop-color="#6F5783"/>
<stop offset="0.096735" stop-color="#5F447B" stop-opacity="0"/>
</linearGradient>
<linearGradient id="paint57_linear_3_799" x1="14.444" y1="23.1216" x2="15.0201" y2="23.1216" gradientUnits="userSpaceOnUse">
<stop offset="0.0862049" stop-color="#3B2B50"/>
<stop offset="0.662599" stop-color="#52376C" stop-opacity="0"/>
</linearGradient>
<linearGradient id="paint58_linear_3_799" x1="15.999" y1="24.8418" x2="15.999" y2="24.1678" gradientUnits="userSpaceOnUse">
<stop offset="0.50729" stop-color="#3D2555"/>
<stop offset="0.735619" stop-color="#4A3261" stop-opacity="0"/>
</linearGradient>
<radialGradient id="paint59_radial_3_799" cx="0" cy="0" r="1" gradientUnits="userSpaceOnUse" gradientTransform="translate(17.3711 21.8242) rotate(140.08) scale(0.124786 0.186048)">
<stop stop-color="#806B97"/>
<stop offset="1" stop-color="#8D78A4" stop-opacity="0"/>
</radialGradient>
</defs>
</svg>
