<svg width="32" height="32" viewBox="0 0 32 32" fill="none" xmlns="http://www.w3.org/2000/svg">
<path d="M5.76934 7.9142C6.49597 6.72518 7.789 6 9.18247 6H18.4247C19.7398 6 20.9709 6.64645 21.7175 7.72907L29.7369 19.3572C30.6203 20.6381 30.6807 22.315 29.8918 23.6562L25.5719 31H18.5C18.4993 31 18.4986 31 18.498 31H9.60597C9.14019 31 8.84908 30.3939 9.08197 29.9091L9.93409 28.1351L8 25.5833V30.25C8 30.8023 7.55228 31.25 7 31.25C6.44772 31.25 6 30.8023 6 30.25V22.9445L2.01395 17.6853C1.27676 16.7024 1.21343 15.3693 1.8541 14.321L5.76934 7.9142ZM12.0448 30C12.0552 29.9693 12.0676 29.939 12.082 29.9091L14.9203 24H13.0297L10.1477 30H12.0448ZM15.7501 23C15.7502 23 15.75 23 15.7501 23H15.7656C15.9641 23.006 16.1605 23.1274 16.274 23.3636L18.9814 29H22.8851L13.9963 17H9.03381C8.90546 17.2039 8.74893 17.3815 8.56219 17.5309C8.37856 17.6778 8.18593 17.7788 8 17.8483V22.4237L10.8342 26.2611L12.226 23.3636C12.3425 23.1211 12.5464 22.9999 12.7503 23H15.7501ZM6 19.7159V17.8483C5.81407 17.7788 5.62144 17.6778 5.43781 17.5309C5.25107 17.3815 5.09454 17.2039 4.96619 17H3.99411L6 19.7159ZM6.5 15L13.9116 15L17.8005 8H9.18247C8.48574 8 7.83922 8.36259 7.47591 8.9571L3.78301 15L4.5 15C4.5 14.4477 4.94772 14 5.5 14C6.05228 14 6.5 14.4477 6.5 15ZM28.1679 22.6422C28.5624 21.9716 28.5322 21.1331 28.0905 20.4926L20.0711 8.86453C19.9884 8.74462 19.8938 8.6354 19.7895 8.53803L15.687 15.9225L24.8468 28.2881L28.1679 22.6422ZM16.25 26.5C16.25 26.0858 15.9142 25.75 15.5 25.75C15.0858 25.75 14.75 26.0858 14.75 26.5C14.75 26.9142 15.0858 27.25 15.5 27.25C15.9142 27.25 16.25 26.9142 16.25 26.5ZM16 29C16 28.4477 15.5523 28 15 28C14.4477 28 14 28.4477 14 29C14 29.5523 14.4477 30 15 30C15.5523 30 16 29.5523 16 29ZM17 28.5C17.2761 28.5 17.5 28.2761 17.5 28C17.5 27.7239 17.2761 27.5 17 27.5C16.7239 27.5 16.5 27.7239 16.5 28C16.5 28.2761 16.7239 28.5 17 28.5Z" fill="#212121"/>
</svg>
