<svg width="32" height="32" viewBox="0 0 32 32" fill="none" xmlns="http://www.w3.org/2000/svg">
<path d="M15.8587 15.5205C9.74436 15.5205 4.77832 20.4267 4.77832 26.4896V29.9798H26.4291C26.7052 29.9798 26.9291 29.7559 26.9291 29.4798V26.4896C26.9291 20.4267 21.9731 15.5205 15.8587 15.5205Z" fill="url(#paint0_linear_4002_1736)"/>
<path d="M15.8587 15.5205C9.74436 15.5205 4.77832 20.4267 4.77832 26.4896V29.9798H26.4291C26.7052 29.9798 26.9291 29.7559 26.9291 29.4798V26.4896C26.9291 20.4267 21.9731 15.5205 15.8587 15.5205Z" fill="url(#paint1_linear_4002_1736)"/>
<path d="M15.8587 15.5205C9.74436 15.5205 4.77832 20.4267 4.77832 26.4896V29.9798H26.4291C26.7052 29.9798 26.9291 29.7559 26.9291 29.4798V26.4896C26.9291 20.4267 21.9731 15.5205 15.8587 15.5205Z" fill="url(#paint2_linear_4002_1736)"/>
<path d="M8.62659 29.9796V18.179C6.27072 20.1897 4.77832 23.1658 4.77832 26.4894V29.9796H8.62659Z" fill="url(#paint3_radial_4002_1736)"/>
<path d="M8.62659 29.9796V18.179C6.27072 20.1897 4.77832 23.1658 4.77832 26.4894V29.9796H8.62659Z" fill="url(#paint4_radial_4002_1736)"/>
<path d="M8.62659 29.9796V18.179C6.27072 20.1897 4.77832 23.1658 4.77832 26.4894V29.9796H8.62659Z" fill="url(#paint5_radial_4002_1736)"/>
<path d="M8.62659 29.9796V18.179C6.27072 20.1897 4.77832 23.1658 4.77832 26.4894V29.9796H8.62659Z" fill="url(#paint6_linear_4002_1736)"/>
<path d="M23.0809 29.9796V18.179C25.4368 20.1897 26.9292 23.1658 26.9292 26.4894V28.9796C26.9292 29.5319 26.4815 29.9796 25.9292 29.9796H23.0809Z" fill="url(#paint7_radial_4002_1736)"/>
<path d="M23.0809 29.9796V18.179C25.4368 20.1897 26.9292 23.1658 26.9292 26.4894V28.9796C26.9292 29.5319 26.4815 29.9796 25.9292 29.9796H23.0809Z" fill="url(#paint8_radial_4002_1736)"/>
<g filter="url(#filter0_ii_4002_1736)">
<path d="M8.92921 17.848C10.9036 16.2016 13.3153 15.425 15.8688 15.425C18.4222 15.425 20.8339 16.2016 22.8084 17.848C22.8951 17.9203 22.9204 18.0428 22.8697 18.1436C21.5149 20.8342 19.0974 22.7932 15.8688 22.7932C12.6402 22.7932 10.2226 20.8342 8.86787 18.1436C8.81712 18.0428 8.84251 17.9203 8.92921 17.848Z" fill="url(#paint9_linear_4002_1736)"/>
<path d="M8.92921 17.848C10.9036 16.2016 13.3153 15.425 15.8688 15.425C18.4222 15.425 20.8339 16.2016 22.8084 17.848C22.8951 17.9203 22.9204 18.0428 22.8697 18.1436C21.5149 20.8342 19.0974 22.7932 15.8688 22.7932C12.6402 22.7932 10.2226 20.8342 8.86787 18.1436C8.81712 18.0428 8.84251 17.9203 8.92921 17.848Z" fill="url(#paint10_radial_4002_1736)"/>
<path d="M8.92921 17.848C10.9036 16.2016 13.3153 15.425 15.8688 15.425C18.4222 15.425 20.8339 16.2016 22.8084 17.848C22.8951 17.9203 22.9204 18.0428 22.8697 18.1436C21.5149 20.8342 19.0974 22.7932 15.8688 22.7932C12.6402 22.7932 10.2226 20.8342 8.86787 18.1436C8.81712 18.0428 8.84251 17.9203 8.92921 17.848Z" fill="url(#paint11_radial_4002_1736)"/>
</g>
<path d="M16.7855 19.7411L16.1308 20.3253C15.9696 20.4663 15.7379 20.4663 15.5768 20.3253L14.922 19.7411C14.1968 19.0863 13.7737 18.1495 13.7737 17.1724V14.0599C13.7838 12.9216 14.7105 11.9949 15.8588 11.9949C17.0071 11.9949 17.9339 12.9216 17.9339 14.0699V17.1825C17.9238 18.1596 17.5108 19.0863 16.7855 19.7411Z" fill="url(#paint12_linear_4002_1736)"/>
<path d="M16.6496 19.8623L16.7855 19.741C17.5084 19.0885 17.921 18.1658 17.9337 17.1923C17.9337 17.189 17.9339 17.1857 17.9339 17.1824L17.9337 15.2283H13.7836L13.7778 17.1398C13.7778 17.1914 13.7816 17.2866 13.7778 17.3399C13.8232 18.2559 14.2383 19.1238 14.922 19.741L15.0825 19.8842L15.7484 18.8747C15.7986 18.7941 15.9189 18.7941 15.969 18.8747L16.6496 19.8623Z" fill="url(#paint13_radial_4002_1736)"/>
<path d="M15.8587 18.7136C14.7104 18.7136 13.7837 17.7869 13.7837 16.6386V14.0599C13.7837 12.9216 14.7104 11.9949 15.8587 11.9949C17.0071 11.9949 17.9338 12.9216 17.9338 14.0699V16.6486C17.9237 17.7869 16.997 18.7136 15.8587 18.7136Z" fill="url(#paint14_radial_4002_1736)"/>
<path d="M15.8587 18.7136C14.7104 18.7136 13.7837 17.7869 13.7837 16.6386V14.0599C13.7837 12.9216 14.7104 11.9949 15.8587 11.9949C17.0071 11.9949 17.9338 12.9216 17.9338 14.0699V16.6486C17.9237 17.7869 16.997 18.7136 15.8587 18.7136Z" fill="url(#paint15_radial_4002_1736)"/>
<path d="M15.8587 18.7136C14.7104 18.7136 13.7837 17.7869 13.7837 16.6386V14.0599C13.7837 12.9216 14.7104 11.9949 15.8587 11.9949C17.0071 11.9949 17.9338 12.9216 17.9338 14.0699V16.6486C17.9237 17.7869 16.997 18.7136 15.8587 18.7136Z" fill="url(#paint16_radial_4002_1736)"/>
<path d="M26.6424 22.9126C27.1738 22.9126 27.601 23.3398 27.601 23.8712V26.0595H25.6942V23.8712C25.6837 23.3398 26.111 22.9126 26.6424 22.9126Z" fill="url(#paint17_radial_4002_1736)"/>
<path d="M26.6424 22.9126C27.1738 22.9126 27.601 23.3398 27.601 23.8712V26.0595H25.6942V23.8712C25.6837 23.3398 26.111 22.9126 26.6424 22.9126Z" fill="url(#paint18_radial_4002_1736)"/>
<path d="M26.7663 16.9348H23.8652C23.5933 16.9348 23.3616 17.1564 23.3616 17.4385V20.4604C23.3616 20.7324 23.5832 20.9641 23.8652 20.9641H26.7663C27.0383 20.9641 27.2699 20.7424 27.2699 20.4604V17.4385C27.2599 17.1564 27.0383 16.9348 26.7663 16.9348Z" fill="url(#paint19_linear_4002_1736)"/>
<path d="M26.7663 16.9348H23.8652C23.5933 16.9348 23.3616 17.1564 23.3616 17.4385V20.4604C23.3616 20.7324 23.5832 20.9641 23.8652 20.9641H26.7663C27.0383 20.9641 27.2699 20.7424 27.2699 20.4604V17.4385C27.2599 17.1564 27.0383 16.9348 26.7663 16.9348Z" fill="url(#paint20_linear_4002_1736)"/>
<path d="M26.7663 16.9348H23.8652C23.5933 16.9348 23.3616 17.1564 23.3616 17.4385V20.4604C23.3616 20.7324 23.5832 20.9641 23.8652 20.9641H26.7663C27.0383 20.9641 27.2699 20.7424 27.2699 20.4604V17.4385C27.2599 17.1564 27.0383 16.9348 26.7663 16.9348Z" fill="url(#paint21_radial_4002_1736)"/>
<path d="M26.7663 16.9348H23.8652C23.5933 16.9348 23.3616 17.1564 23.3616 17.4385V20.4604C23.3616 20.7324 23.5832 20.9641 23.8652 20.9641H26.7663C27.0383 20.9641 27.2699 20.7424 27.2699 20.4604V17.4385C27.2599 17.1564 27.0383 16.9348 26.7663 16.9348Z" fill="url(#paint22_linear_4002_1736)"/>
<path d="M26.7663 16.9348H23.8652C23.5933 16.9348 23.3616 17.1564 23.3616 17.4385V20.4604C23.3616 20.7324 23.5832 20.9641 23.8652 20.9641H26.7663C27.0383 20.9641 27.2699 20.7424 27.2699 20.4604V17.4385C27.2599 17.1564 27.0383 16.9348 26.7663 16.9348Z" fill="url(#paint23_linear_4002_1736)"/>
<path d="M22.8612 16.9348H22.248C21.9761 16.9348 21.7444 17.1564 21.7444 17.4385V20.4604C21.7444 20.7324 21.966 20.9641 22.248 20.9641H22.8612C23.1332 20.9641 23.3649 20.7424 23.3649 20.4604V17.4385C23.3548 17.1564 23.1332 16.9348 22.8612 16.9348Z" fill="url(#paint24_linear_4002_1736)"/>
<path d="M22.8612 16.9348H22.248C21.9761 16.9348 21.7444 17.1564 21.7444 17.4385V20.4604C21.7444 20.7324 21.966 20.9641 22.248 20.9641H22.8612C23.1332 20.9641 23.3649 20.7424 23.3649 20.4604V17.4385C23.3548 17.1564 23.1332 16.9348 22.8612 16.9348Z" fill="url(#paint25_linear_4002_1736)"/>
<path d="M22.8612 16.9348H22.248C21.9761 16.9348 21.7444 17.1564 21.7444 17.4385V20.4604C21.7444 20.7324 21.966 20.9641 22.248 20.9641H22.8612C23.1332 20.9641 23.3649 20.7424 23.3649 20.4604V17.4385C23.3548 17.1564 23.1332 16.9348 22.8612 16.9348Z" fill="url(#paint26_linear_4002_1736)"/>
<path d="M22.8612 16.9348H22.248C21.9761 16.9348 21.7444 17.1564 21.7444 17.4385V20.4604C21.7444 20.7324 21.966 20.9641 22.248 20.9641H22.8612C23.1332 20.9641 23.3649 20.7424 23.3649 20.4604V17.4385C23.3548 17.1564 23.1332 16.9348 22.8612 16.9348Z" fill="url(#paint27_radial_4002_1736)"/>
<path d="M28.3868 16.9348H27.7737C27.5017 16.9348 27.27 17.1564 27.27 17.4385V20.4604C27.27 20.7324 27.4916 20.9641 27.7737 20.9641H28.3868C28.6588 20.9641 28.8905 20.7424 28.8905 20.4604V17.4385C28.8804 17.1564 28.6588 16.9348 28.3868 16.9348Z" fill="url(#paint28_linear_4002_1736)"/>
<path d="M28.3868 16.9348H27.7737C27.5017 16.9348 27.27 17.1564 27.27 17.4385V20.4604C27.27 20.7324 27.4916 20.9641 27.7737 20.9641H28.3868C28.6588 20.9641 28.8905 20.7424 28.8905 20.4604V17.4385C28.8804 17.1564 28.6588 16.9348 28.3868 16.9348Z" fill="url(#paint29_linear_4002_1736)"/>
<path d="M28.3868 16.9348H27.7737C27.5017 16.9348 27.27 17.1564 27.27 17.4385V20.4604C27.27 20.7324 27.4916 20.9641 27.7737 20.9641H28.3868C28.6588 20.9641 28.8905 20.7424 28.8905 20.4604V17.4385C28.8804 17.1564 28.6588 16.9348 28.3868 16.9348Z" fill="url(#paint30_radial_4002_1736)"/>
<path d="M24.562 21.0505V27.4772H26.073V21.0505H24.562Z" fill="url(#paint31_radial_4002_1736)"/>
<path d="M24.562 21.0505V27.4772H26.073V21.0505H24.562Z" fill="url(#paint32_linear_4002_1736)"/>
<g filter="url(#filter1_i_4002_1736)">
<path d="M23.2861 25.3053C23.2861 24.9041 23.6114 24.5735 24.0127 24.5735H26.404C27.0667 24.5735 27.604 25.1107 27.604 25.7735V28.9797C27.604 29.532 27.1563 29.9797 26.604 29.9797H24.0127C23.6114 29.9797 23.2861 29.6492 23.2861 29.2479C23.2861 28.9612 23.4522 28.7105 23.6935 28.5908C23.4522 28.4711 23.2861 28.2204 23.2861 27.9337C23.2861 27.647 23.4522 27.3963 23.6935 27.2766C23.4522 27.1569 23.2861 26.9063 23.2861 26.6195C23.2861 26.3328 23.4522 26.0822 23.6935 25.9624C23.4522 25.8427 23.2861 25.5921 23.2861 25.3053Z" fill="url(#paint33_linear_4002_1736)"/>
<path d="M23.2861 25.3053C23.2861 24.9041 23.6114 24.5735 24.0127 24.5735H26.404C27.0667 24.5735 27.604 25.1107 27.604 25.7735V28.9797C27.604 29.532 27.1563 29.9797 26.604 29.9797H24.0127C23.6114 29.9797 23.2861 29.6492 23.2861 29.2479C23.2861 28.9612 23.4522 28.7105 23.6935 28.5908C23.4522 28.4711 23.2861 28.2204 23.2861 27.9337C23.2861 27.647 23.4522 27.3963 23.6935 27.2766C23.4522 27.1569 23.2861 26.9063 23.2861 26.6195C23.2861 26.3328 23.4522 26.0822 23.6935 25.9624C23.4522 25.8427 23.2861 25.5921 23.2861 25.3053Z" fill="url(#paint34_radial_4002_1736)"/>
<path d="M23.2861 25.3053C23.2861 24.9041 23.6114 24.5735 24.0127 24.5735H26.404C27.0667 24.5735 27.604 25.1107 27.604 25.7735V28.9797C27.604 29.532 27.1563 29.9797 26.604 29.9797H24.0127C23.6114 29.9797 23.2861 29.6492 23.2861 29.2479C23.2861 28.9612 23.4522 28.7105 23.6935 28.5908C23.4522 28.4711 23.2861 28.2204 23.2861 27.9337C23.2861 27.647 23.4522 27.3963 23.6935 27.2766C23.4522 27.1569 23.2861 26.9063 23.2861 26.6195C23.2861 26.3328 23.4522 26.0822 23.6935 25.9624C23.4522 25.8427 23.2861 25.5921 23.2861 25.3053Z" fill="url(#paint35_radial_4002_1736)"/>
<path d="M23.2861 25.3053C23.2861 24.9041 23.6114 24.5735 24.0127 24.5735H26.404C27.0667 24.5735 27.604 25.1107 27.604 25.7735V28.9797C27.604 29.532 27.1563 29.9797 26.604 29.9797H24.0127C23.6114 29.9797 23.2861 29.6492 23.2861 29.2479C23.2861 28.9612 23.4522 28.7105 23.6935 28.5908C23.4522 28.4711 23.2861 28.2204 23.2861 27.9337C23.2861 27.647 23.4522 27.3963 23.6935 27.2766C23.4522 27.1569 23.2861 26.9063 23.2861 26.6195C23.2861 26.3328 23.4522 26.0822 23.6935 25.9624C23.4522 25.8427 23.2861 25.5921 23.2861 25.3053Z" fill="url(#paint36_radial_4002_1736)"/>
<path d="M23.2861 25.3053C23.2861 24.9041 23.6114 24.5735 24.0127 24.5735H26.404C27.0667 24.5735 27.604 25.1107 27.604 25.7735V28.9797C27.604 29.532 27.1563 29.9797 26.604 29.9797H24.0127C23.6114 29.9797 23.2861 29.6492 23.2861 29.2479C23.2861 28.9612 23.4522 28.7105 23.6935 28.5908C23.4522 28.4711 23.2861 28.2204 23.2861 27.9337C23.2861 27.647 23.4522 27.3963 23.6935 27.2766C23.4522 27.1569 23.2861 26.9063 23.2861 26.6195C23.2861 26.3328 23.4522 26.0822 23.6935 25.9624C23.4522 25.8427 23.2861 25.5921 23.2861 25.3053Z" fill="url(#paint37_radial_4002_1736)"/>
</g>
<rect x="23.9408" y="20.9641" width="2.77344" height="1.08203" rx="0.541016" fill="url(#paint38_radial_4002_1736)"/>
<rect x="23.9408" y="20.9641" width="2.77344" height="1.08203" rx="0.541016" fill="url(#paint39_linear_4002_1736)"/>
<g filter="url(#filter2_f_4002_1736)">
<rect x="15.5225" y="23.5232" width="0.691875" height="6.32558" fill="url(#paint40_linear_4002_1736)"/>
</g>
<g filter="url(#filter3_f_4002_1736)">
<rect x="11.5161" y="23.5232" width="0.691875" height="6.32558" fill="url(#paint41_linear_4002_1736)"/>
</g>
<g filter="url(#filter4_f_4002_1736)">
<rect x="19.5095" y="23.5232" width="0.691875" height="6.32558" fill="url(#paint42_linear_4002_1736)"/>
</g>
<g filter="url(#filter5_f_4002_1736)">
<path d="M23.8064 25.9719H25.6033" stroke="url(#paint43_linear_4002_1736)" stroke-width="0.1" stroke-linecap="round"/>
</g>
<g filter="url(#filter6_f_4002_1736)">
<path d="M23.7283 27.2766H25.5251" stroke="url(#paint44_linear_4002_1736)" stroke-width="0.1" stroke-linecap="round"/>
</g>
<g filter="url(#filter7_f_4002_1736)">
<path d="M23.8064 28.5813H25.6033" stroke="url(#paint45_linear_4002_1736)" stroke-width="0.1" stroke-linecap="round"/>
</g>
<g filter="url(#filter8_i_4002_1736)">
<circle cx="11.1126" cy="10.5319" r="1.66932" fill="url(#paint46_radial_4002_1736)"/>
</g>
<circle cx="11.1126" cy="10.5319" r="1.66932" fill="url(#paint47_radial_4002_1736)"/>
<g filter="url(#filter9_f_4002_1736)">
<circle cx="11.1126" cy="10.532" r="0.994888" fill="url(#paint48_linear_4002_1736)"/>
</g>
<g filter="url(#filter10_i_4002_1736)">
<circle cx="20.625" cy="10.5319" r="1.66932" fill="url(#paint49_linear_4002_1736)"/>
<circle cx="20.625" cy="10.5319" r="1.66932" fill="url(#paint50_radial_4002_1736)"/>
</g>
<g filter="url(#filter11_f_4002_1736)">
<circle cx="20.625" cy="10.532" r="0.994888" fill="#A57C70"/>
<circle cx="20.625" cy="10.532" r="0.994888" fill="url(#paint51_radial_4002_1736)"/>
<circle cx="20.625" cy="10.532" r="0.994888" fill="url(#paint52_radial_4002_1736)"/>
</g>
<g filter="url(#filter12_i_4002_1736)">
<path d="M10.7606 9.91926C10.7768 9.92037 10.7932 9.92093 10.8097 9.92093C10.8097 9.92093 10.756 9.06766 10.7024 8.48104C10.7024 8.21439 10.8097 7.89441 11.0242 7.73442L11.1851 7.57443C11.4533 7.36112 11.5606 7.04114 11.5606 6.72116V5.86789C11.5606 5.60124 11.7215 5.38792 11.9896 5.3346C12.6333 5.17461 13.9741 4.90796 15.905 4.90796C17.8358 4.90796 19.1767 5.17461 19.8203 5.3346C20.0349 5.38792 20.2494 5.60124 20.2494 5.86789V6.72116C20.2494 7.04114 20.4103 7.36112 20.6249 7.57443C21.1269 7.92623 21.0956 8.11972 21.0539 8.53436C21.0003 9.06766 20.9467 9.97426 20.9467 9.97426C20.9527 9.97426 20.9588 9.97419 20.9648 9.97403L20.6989 13.9322C20.5384 15.7016 19.1474 16.9348 17.4888 16.9348H14.2787C12.5667 16.9348 11.2291 15.7016 11.0686 13.9322L10.7606 9.91926Z" fill="url(#paint53_linear_4002_1736)"/>
<path d="M10.7606 9.91926C10.7768 9.92037 10.7932 9.92093 10.8097 9.92093C10.8097 9.92093 10.756 9.06766 10.7024 8.48104C10.7024 8.21439 10.8097 7.89441 11.0242 7.73442L11.1851 7.57443C11.4533 7.36112 11.5606 7.04114 11.5606 6.72116V5.86789C11.5606 5.60124 11.7215 5.38792 11.9896 5.3346C12.6333 5.17461 13.9741 4.90796 15.905 4.90796C17.8358 4.90796 19.1767 5.17461 19.8203 5.3346C20.0349 5.38792 20.2494 5.60124 20.2494 5.86789V6.72116C20.2494 7.04114 20.4103 7.36112 20.6249 7.57443C21.1269 7.92623 21.0956 8.11972 21.0539 8.53436C21.0003 9.06766 20.9467 9.97426 20.9467 9.97426C20.9527 9.97426 20.9588 9.97419 20.9648 9.97403L20.6989 13.9322C20.5384 15.7016 19.1474 16.9348 17.4888 16.9348H14.2787C12.5667 16.9348 11.2291 15.7016 11.0686 13.9322L10.7606 9.91926Z" fill="url(#paint54_radial_4002_1736)"/>
<path d="M10.7606 9.91926C10.7768 9.92037 10.7932 9.92093 10.8097 9.92093C10.8097 9.92093 10.756 9.06766 10.7024 8.48104C10.7024 8.21439 10.8097 7.89441 11.0242 7.73442L11.1851 7.57443C11.4533 7.36112 11.5606 7.04114 11.5606 6.72116V5.86789C11.5606 5.60124 11.7215 5.38792 11.9896 5.3346C12.6333 5.17461 13.9741 4.90796 15.905 4.90796C17.8358 4.90796 19.1767 5.17461 19.8203 5.3346C20.0349 5.38792 20.2494 5.60124 20.2494 5.86789V6.72116C20.2494 7.04114 20.4103 7.36112 20.6249 7.57443C21.1269 7.92623 21.0956 8.11972 21.0539 8.53436C21.0003 9.06766 20.9467 9.97426 20.9467 9.97426C20.9527 9.97426 20.9588 9.97419 20.9648 9.97403L20.6989 13.9322C20.5384 15.7016 19.1474 16.9348 17.4888 16.9348H14.2787C12.5667 16.9348 11.2291 15.7016 11.0686 13.9322L10.7606 9.91926Z" fill="url(#paint55_radial_4002_1736)"/>
</g>
<path d="M10.7024 8.48104C10.7024 8.21439 10.8097 7.89441 11.0242 7.73442L11.1851 7.57443C11.4533 7.36112 11.5606 7.04114 11.5606 6.72116V5.86789C11.5606 5.60124 11.7215 5.38792 11.9896 5.3346C12.6333 5.17461 13.9741 4.90796 15.905 4.90796C17.8358 4.90796 19.1767 5.17461 19.8203 5.3346C20.0349 5.38792 20.2494 5.60124 20.2494 5.86789V6.72116C20.2494 7.04114 20.4103 7.36112 20.6249 7.57443C21.1269 7.92623 21.0956 8.11972 21.0539 8.53436C21.0003 9.06766 20.9467 9.97426 20.9467 9.97426C20.9527 9.97426 20.9588 9.97419 20.9648 9.97403L20.6989 13.9322C20.5384 15.7016 19.1474 16.9348 17.4888 16.9348H14.2787C12.5667 16.9348 11.2291 15.7016 11.0686 13.9322C10.9292 12.1158 10.8682 10.2942 10.7024 8.48104Z" fill="url(#paint56_linear_4002_1736)"/>
<path d="M10.7024 8.48104C10.7024 8.21439 10.8097 7.89441 11.0242 7.73442L11.1851 7.57443C11.4533 7.36112 11.5606 7.04114 11.5606 6.72116V5.86789C11.5606 5.60124 11.7215 5.38792 11.9896 5.3346C12.6333 5.17461 13.9741 4.90796 15.905 4.90796C17.8358 4.90796 19.1767 5.17461 19.8203 5.3346C20.0349 5.38792 20.2494 5.60124 20.2494 5.86789V6.72116C20.2494 7.04114 20.4103 7.36112 20.6249 7.57443C21.1269 7.92623 21.0956 8.11972 21.0539 8.53436C21.0003 9.06766 20.9467 9.97426 20.9467 9.97426C20.9527 9.97426 20.9588 9.97419 20.9648 9.97403L20.6989 13.9322C20.5384 15.7016 19.1474 16.9348 17.4888 16.9348H14.2787C12.5667 16.9348 11.2291 15.7016 11.0686 13.9322C10.9292 12.1158 10.8682 10.2942 10.7024 8.48104Z" fill="url(#paint57_linear_4002_1736)"/>
<path d="M10.7024 8.48104C10.7024 8.21439 10.8097 7.89441 11.0242 7.73442L11.1851 7.57443C11.4533 7.36112 11.5606 7.04114 11.5606 6.72116V5.86789C11.5606 5.60124 11.7215 5.38792 11.9896 5.3346C12.6333 5.17461 13.9741 4.90796 15.905 4.90796C17.8358 4.90796 19.1767 5.17461 19.8203 5.3346C20.0349 5.38792 20.2494 5.60124 20.2494 5.86789V6.72116C20.2494 7.04114 20.4103 7.36112 20.6249 7.57443C21.1269 7.92623 21.0956 8.11972 21.0539 8.53436C21.0003 9.06766 20.9467 9.97426 20.9467 9.97426C20.9527 9.97426 20.9588 9.97419 20.9648 9.97403L20.6989 13.9322C20.5384 15.7016 19.1474 16.9348 17.4888 16.9348H14.2787C12.5667 16.9348 11.2291 15.7016 11.0686 13.9322C10.9292 12.1158 10.8682 10.2942 10.7024 8.48104Z" fill="url(#paint58_radial_4002_1736)"/>
<g filter="url(#filter13_f_4002_1736)">
<path d="M19.8233 4.90796L16.7461 5.93389C16.2222 6.10856 15.924 6.66012 16.0648 7.19415C16.1994 7.70465 16.693 8.0351 17.2163 7.96504L20.2757 7.55541L19.8233 4.90796Z" fill="url(#paint59_linear_4002_1736)"/>
</g>
<g filter="url(#filter14_i_4002_1736)">
<path d="M20.6786 4.05471L21.1076 4.26803C21.8585 4.64133 22.2876 5.49461 22.1267 6.40121L21.5367 9.44099C21.4841 9.75493 21.2766 9.9662 20.9648 9.97406C20.9588 9.97421 20.9528 9.97425 20.9467 9.97425C20.9467 9.97425 21.0004 9.06765 21.054 8.53436C21.0976 8.10129 21.022 7.96919 20.6249 7.57443C20.4104 7.36111 20.2495 7.04113 20.2495 6.72115V5.86788C20.2495 5.60124 20.0349 5.38792 19.8204 5.33459C19.1768 5.1746 17.8359 4.90795 15.9051 4.90795C13.9742 4.90795 12.6333 5.1746 11.9897 5.33459C11.7215 5.38792 11.5606 5.60124 11.5606 5.86788V6.72115C11.5606 7.04113 11.4534 7.36111 11.1852 7.57443L11.0243 7.73441C10.8097 7.8944 10.7025 8.21438 10.7025 8.48103C10.7561 9.06765 10.8097 9.92092 10.8097 9.92092C10.7932 9.92092 10.7769 9.92036 10.7607 9.91926C10.461 9.89877 10.217 9.69123 10.1661 9.38766L9.57613 6.34788C9.46886 5.49461 9.89794 4.64133 10.6488 4.26803L11.0779 4.05471C11.3461 3.89472 11.6143 3.6814 11.8824 3.46809L12.8479 2.45482C13.4378 1.92153 14.296 1.76154 15.0469 2.13485C15.5832 2.29484 16.1732 2.29484 16.7096 2.13485C17.5141 1.8682 18.4259 2.08152 19.0695 2.66814L19.874 3.46808C20.0886 3.73473 20.3568 3.89472 20.6786 4.05471Z" fill="#4F3332"/>
<path d="M20.6786 4.05471L21.1076 4.26803C21.8585 4.64133 22.2876 5.49461 22.1267 6.40121L21.5367 9.44099C21.4841 9.75493 21.2766 9.9662 20.9648 9.97406C20.9588 9.97421 20.9528 9.97425 20.9467 9.97425C20.9467 9.97425 21.0004 9.06765 21.054 8.53436C21.0976 8.10129 21.022 7.96919 20.6249 7.57443C20.4104 7.36111 20.2495 7.04113 20.2495 6.72115V5.86788C20.2495 5.60124 20.0349 5.38792 19.8204 5.33459C19.1768 5.1746 17.8359 4.90795 15.9051 4.90795C13.9742 4.90795 12.6333 5.1746 11.9897 5.33459C11.7215 5.38792 11.5606 5.60124 11.5606 5.86788V6.72115C11.5606 7.04113 11.4534 7.36111 11.1852 7.57443L11.0243 7.73441C10.8097 7.8944 10.7025 8.21438 10.7025 8.48103C10.7561 9.06765 10.8097 9.92092 10.8097 9.92092C10.7932 9.92092 10.7769 9.92036 10.7607 9.91926C10.461 9.89877 10.217 9.69123 10.1661 9.38766L9.57613 6.34788C9.46886 5.49461 9.89794 4.64133 10.6488 4.26803L11.0779 4.05471C11.3461 3.89472 11.6143 3.6814 11.8824 3.46809L12.8479 2.45482C13.4378 1.92153 14.296 1.76154 15.0469 2.13485C15.5832 2.29484 16.1732 2.29484 16.7096 2.13485C17.5141 1.8682 18.4259 2.08152 19.0695 2.66814L19.874 3.46808C20.0886 3.73473 20.3568 3.89472 20.6786 4.05471Z" fill="url(#paint60_radial_4002_1736)"/>
<path d="M20.6786 4.05471L21.1076 4.26803C21.8585 4.64133 22.2876 5.49461 22.1267 6.40121L21.5367 9.44099C21.4841 9.75493 21.2766 9.9662 20.9648 9.97406C20.9588 9.97421 20.9528 9.97425 20.9467 9.97425C20.9467 9.97425 21.0004 9.06765 21.054 8.53436C21.0976 8.10129 21.022 7.96919 20.6249 7.57443C20.4104 7.36111 20.2495 7.04113 20.2495 6.72115V5.86788C20.2495 5.60124 20.0349 5.38792 19.8204 5.33459C19.1768 5.1746 17.8359 4.90795 15.9051 4.90795C13.9742 4.90795 12.6333 5.1746 11.9897 5.33459C11.7215 5.38792 11.5606 5.60124 11.5606 5.86788V6.72115C11.5606 7.04113 11.4534 7.36111 11.1852 7.57443L11.0243 7.73441C10.8097 7.8944 10.7025 8.21438 10.7025 8.48103C10.7561 9.06765 10.8097 9.92092 10.8097 9.92092C10.7932 9.92092 10.7769 9.92036 10.7607 9.91926C10.461 9.89877 10.217 9.69123 10.1661 9.38766L9.57613 6.34788C9.46886 5.49461 9.89794 4.64133 10.6488 4.26803L11.0779 4.05471C11.3461 3.89472 11.6143 3.6814 11.8824 3.46809L12.8479 2.45482C13.4378 1.92153 14.296 1.76154 15.0469 2.13485C15.5832 2.29484 16.1732 2.29484 16.7096 2.13485C17.5141 1.8682 18.4259 2.08152 19.0695 2.66814L19.874 3.46808C20.0886 3.73473 20.3568 3.89472 20.6786 4.05471Z" fill="url(#paint61_radial_4002_1736)"/>
<path d="M20.6786 4.05471L21.1076 4.26803C21.8585 4.64133 22.2876 5.49461 22.1267 6.40121L21.5367 9.44099C21.4841 9.75493 21.2766 9.9662 20.9648 9.97406C20.9588 9.97421 20.9528 9.97425 20.9467 9.97425C20.9467 9.97425 21.0004 9.06765 21.054 8.53436C21.0976 8.10129 21.022 7.96919 20.6249 7.57443C20.4104 7.36111 20.2495 7.04113 20.2495 6.72115V5.86788C20.2495 5.60124 20.0349 5.38792 19.8204 5.33459C19.1768 5.1746 17.8359 4.90795 15.9051 4.90795C13.9742 4.90795 12.6333 5.1746 11.9897 5.33459C11.7215 5.38792 11.5606 5.60124 11.5606 5.86788V6.72115C11.5606 7.04113 11.4534 7.36111 11.1852 7.57443L11.0243 7.73441C10.8097 7.8944 10.7025 8.21438 10.7025 8.48103C10.7561 9.06765 10.8097 9.92092 10.8097 9.92092C10.7932 9.92092 10.7769 9.92036 10.7607 9.91926C10.461 9.89877 10.217 9.69123 10.1661 9.38766L9.57613 6.34788C9.46886 5.49461 9.89794 4.64133 10.6488 4.26803L11.0779 4.05471C11.3461 3.89472 11.6143 3.6814 11.8824 3.46809L12.8479 2.45482C13.4378 1.92153 14.296 1.76154 15.0469 2.13485C15.5832 2.29484 16.1732 2.29484 16.7096 2.13485C17.5141 1.8682 18.4259 2.08152 19.0695 2.66814L19.874 3.46808C20.0886 3.73473 20.3568 3.89472 20.6786 4.05471Z" fill="url(#paint62_radial_4002_1736)"/>
<path d="M20.6786 4.05471L21.1076 4.26803C21.8585 4.64133 22.2876 5.49461 22.1267 6.40121L21.5367 9.44099C21.4841 9.75493 21.2766 9.9662 20.9648 9.97406C20.9588 9.97421 20.9528 9.97425 20.9467 9.97425C20.9467 9.97425 21.0004 9.06765 21.054 8.53436C21.0976 8.10129 21.022 7.96919 20.6249 7.57443C20.4104 7.36111 20.2495 7.04113 20.2495 6.72115V5.86788C20.2495 5.60124 20.0349 5.38792 19.8204 5.33459C19.1768 5.1746 17.8359 4.90795 15.9051 4.90795C13.9742 4.90795 12.6333 5.1746 11.9897 5.33459C11.7215 5.38792 11.5606 5.60124 11.5606 5.86788V6.72115C11.5606 7.04113 11.4534 7.36111 11.1852 7.57443L11.0243 7.73441C10.8097 7.8944 10.7025 8.21438 10.7025 8.48103C10.7561 9.06765 10.8097 9.92092 10.8097 9.92092C10.7932 9.92092 10.7769 9.92036 10.7607 9.91926C10.461 9.89877 10.217 9.69123 10.1661 9.38766L9.57613 6.34788C9.46886 5.49461 9.89794 4.64133 10.6488 4.26803L11.0779 4.05471C11.3461 3.89472 11.6143 3.6814 11.8824 3.46809L12.8479 2.45482C13.4378 1.92153 14.296 1.76154 15.0469 2.13485C15.5832 2.29484 16.1732 2.29484 16.7096 2.13485C17.5141 1.8682 18.4259 2.08152 19.0695 2.66814L19.874 3.46808C20.0886 3.73473 20.3568 3.89472 20.6786 4.05471Z" fill="url(#paint63_radial_4002_1736)"/>
</g>
<g filter="url(#filter15_f_4002_1736)">
<path d="M15.5848 10.4098L14.7645 12.1093C14.6628 12.4588 14.9068 12.8084 15.2525 12.8084H15.9897C16.3354 12.8084 16.5794 12.4535 16.4777 12.1093L15.9795 10.4098C15.8728 10.0333 15.6966 10.0333 15.5848 10.4098Z" fill="#87565C"/>
</g>
<g filter="url(#filter16_f_4002_1736)">
<path d="M15.4779 10.2467L14.9466 11.9462C14.8381 12.2957 15.0984 12.6453 15.467 12.6453H16.2531C16.6218 12.6453 16.882 12.2904 16.7736 11.9462L16.2423 10.2467C16.1285 9.87024 15.5971 9.87024 15.4779 10.2467Z" fill="#B7877D"/>
<path d="M15.4779 10.2467L14.9466 11.9462C14.8381 12.2957 15.0984 12.6453 15.467 12.6453H16.2531C16.6218 12.6453 16.882 12.2904 16.7736 11.9462L16.2423 10.2467C16.1285 9.87024 15.5971 9.87024 15.4779 10.2467Z" fill="url(#paint64_linear_4002_1736)"/>
<path d="M15.4779 10.2467L14.9466 11.9462C14.8381 12.2957 15.0984 12.6453 15.467 12.6453H16.2531C16.6218 12.6453 16.882 12.2904 16.7736 11.9462L16.2423 10.2467C16.1285 9.87024 15.5971 9.87024 15.4779 10.2467Z" fill="url(#paint65_linear_4002_1736)"/>
<path d="M15.4779 10.2467L14.9466 11.9462C14.8381 12.2957 15.0984 12.6453 15.467 12.6453H16.2531C16.6218 12.6453 16.882 12.2904 16.7736 11.9462L16.2423 10.2467C16.1285 9.87024 15.5971 9.87024 15.4779 10.2467Z" fill="url(#paint66_linear_4002_1736)"/>
<path d="M15.4779 10.2467L14.9466 11.9462C14.8381 12.2957 15.0984 12.6453 15.467 12.6453H16.2531C16.6218 12.6453 16.882 12.2904 16.7736 11.9462L16.2423 10.2467C16.1285 9.87024 15.5971 9.87024 15.4779 10.2467Z" fill="url(#paint67_radial_4002_1736)"/>
</g>
<path d="M15.4779 10.2467L14.9466 11.9462C14.8381 12.2957 15.0984 12.6453 15.467 12.6453H16.2531C16.6218 12.6453 16.882 12.2904 16.7736 11.9462L16.2423 10.2467C16.1285 9.87024 15.5971 9.87024 15.4779 10.2467Z" fill="url(#paint68_linear_4002_1736)"/>
<path d="M14.4982 13.2888L14.4982 13.2888L14.4977 13.2886C14.407 13.2425 14.3125 13.2712 14.2562 13.3304C14.1996 13.39 14.1774 13.4854 14.2357 13.5701C14.5796 14.0909 15.1784 14.4378 15.86 14.4378C16.5419 14.4378 17.1407 14.0907 17.4846 13.5697C17.5421 13.4833 17.5211 13.3879 17.4637 13.3283C17.4069 13.2693 17.3124 13.2428 17.2224 13.2886L17.2224 13.2886L17.2219 13.2888C16.8285 13.4939 16.3646 13.6115 15.86 13.6115C15.3605 13.6115 14.8915 13.4939 14.4982 13.2888Z" fill="#88024E" stroke="url(#paint69_linear_4002_1736)" stroke-width="0.1"/>
<g filter="url(#filter17_i_4002_1736)">
<path d="M19.5793 7.81228L19.5781 7.81126L19.5762 7.80973L19.5717 7.80607L19.5597 7.79654C19.5504 7.78923 19.5384 7.78006 19.5238 7.76935C19.4946 7.74795 19.4548 7.7203 19.4049 7.68904C19.3053 7.62668 19.164 7.54898 18.9852 7.4783C18.6262 7.33638 18.1136 7.22205 17.4926 7.32011C17.2015 7.36607 17.0028 7.63933 17.0487 7.93045C17.0947 8.22157 17.3679 8.4203 17.6591 8.37434C18.0568 8.31153 18.3753 8.38487 18.5928 8.47084C18.7022 8.51409 18.7854 8.56039 18.8383 8.59354C18.8646 8.61004 18.8831 8.62301 18.893 8.63031C18.8972 8.63335 18.8998 8.63538 18.9009 8.63624C19.1273 8.82078 19.4606 8.7891 19.648 8.56419C19.8367 8.33777 19.8057 8.00096 19.5793 7.81228Z" fill="#4C3230"/>
<path d="M19.5793 7.81228L19.5781 7.81126L19.5762 7.80973L19.5717 7.80607L19.5597 7.79654C19.5504 7.78923 19.5384 7.78006 19.5238 7.76935C19.4946 7.74795 19.4548 7.7203 19.4049 7.68904C19.3053 7.62668 19.164 7.54898 18.9852 7.4783C18.6262 7.33638 18.1136 7.22205 17.4926 7.32011C17.2015 7.36607 17.0028 7.63933 17.0487 7.93045C17.0947 8.22157 17.3679 8.4203 17.6591 8.37434C18.0568 8.31153 18.3753 8.38487 18.5928 8.47084C18.7022 8.51409 18.7854 8.56039 18.8383 8.59354C18.8646 8.61004 18.8831 8.62301 18.893 8.63031C18.8972 8.63335 18.8998 8.63538 18.9009 8.63624C19.1273 8.82078 19.4606 8.7891 19.648 8.56419C19.8367 8.33777 19.8057 8.00096 19.5793 7.81228Z" fill="url(#paint70_radial_4002_1736)"/>
</g>
<g filter="url(#filter18_i_4002_1736)">
<path d="M12.0868 7.8126L12.0876 7.81195L12.0884 7.81126L12.0903 7.80973L12.0948 7.80607L12.1068 7.79654C12.1161 7.78923 12.1281 7.78006 12.1427 7.76935C12.1719 7.74795 12.2117 7.7203 12.2616 7.68904C12.3612 7.62667 12.5025 7.54898 12.6813 7.4783C13.0403 7.33638 13.5529 7.22205 14.1739 7.32011C14.465 7.36607 14.6637 7.63933 14.6177 7.93045C14.5718 8.22157 14.2985 8.4203 14.0074 8.37434C13.6096 8.31153 13.2911 8.38487 13.0737 8.47084C12.9643 8.51409 12.8811 8.56039 12.8282 8.59354C12.8018 8.61004 12.7834 8.62301 12.7735 8.63031C12.7693 8.63335 12.7667 8.63538 12.7655 8.63624C12.5392 8.82078 12.2059 8.7891 12.0185 8.56419C11.8298 8.33777 11.8604 8.00128 12.0868 7.8126Z" fill="#4C3230"/>
<path d="M12.0868 7.8126L12.0876 7.81195L12.0884 7.81126L12.0903 7.80973L12.0948 7.80607L12.1068 7.79654C12.1161 7.78923 12.1281 7.78006 12.1427 7.76935C12.1719 7.74795 12.2117 7.7203 12.2616 7.68904C12.3612 7.62667 12.5025 7.54898 12.6813 7.4783C13.0403 7.33638 13.5529 7.22205 14.1739 7.32011C14.465 7.36607 14.6637 7.63933 14.6177 7.93045C14.5718 8.22157 14.2985 8.4203 14.0074 8.37434C13.6096 8.31153 13.2911 8.38487 13.0737 8.47084C12.9643 8.51409 12.8811 8.56039 12.8282 8.59354C12.8018 8.61004 12.7834 8.62301 12.7735 8.63031C12.7693 8.63335 12.7667 8.63538 12.7655 8.63624C12.5392 8.82078 12.2059 8.7891 12.0185 8.56419C11.8298 8.33777 11.8604 8.00128 12.0868 7.8126Z" fill="url(#paint71_radial_4002_1736)"/>
</g>
<path d="M18.2476 9.10132C18.9005 9.10132 19.4521 9.55146 19.6021 10.1598C19.6467 10.3341 19.5129 10.5004 19.3345 10.5004H17.104C16.9621 10.5004 16.8486 10.3706 16.8769 10.2287C17.0027 9.58796 17.5663 9.10132 18.2476 9.10132Z" fill="white"/>
<path d="M18.0408 9.37305C18.5355 9.37305 18.9329 9.77452 18.9329 10.2652C18.9329 10.3463 18.9208 10.4274 18.9005 10.5004H17.177C17.1567 10.4234 17.1445 10.3463 17.1445 10.2652C17.1445 9.77452 17.546 9.37305 18.0408 9.37305Z" fill="url(#paint72_radial_4002_1736)"/>
<path d="M17.5298 10.2654C17.5298 9.98149 17.7569 9.75439 18.0408 9.75439C18.3246 9.75439 18.5517 9.98149 18.5517 10.2654C18.5517 10.3505 18.5314 10.4316 18.495 10.5006H17.5906C17.5501 10.4316 17.5298 10.3505 17.5298 10.2654Z" fill="black"/>
<g filter="url(#filter19_f_4002_1736)">
<path d="M17.9751 9.56181C18.0387 9.64682 17.9058 9.75046 17.7548 9.86341C17.6037 9.97636 17.4916 10.0558 17.4281 9.97083C17.3645 9.88581 17.4355 9.72533 17.5865 9.61238C17.7376 9.49944 17.9116 9.47679 17.9751 9.56181Z" fill="#C7A7A3"/>
<path d="M17.9751 9.56181C18.0387 9.64682 17.9058 9.75046 17.7548 9.86341C17.6037 9.97636 17.4916 10.0558 17.4281 9.97083C17.3645 9.88581 17.4355 9.72533 17.5865 9.61238C17.7376 9.49944 17.9116 9.47679 17.9751 9.56181Z" fill="url(#paint73_radial_4002_1736)"/>
</g>
<g filter="url(#filter20_f_4002_1736)">
<path d="M18.8356 10.1479C18.8026 9.91722 18.6676 9.74339 18.6043 9.6853L18.3445 9.97044L18.4617 10.1986L18.8356 10.1479Z" fill="url(#paint74_linear_4002_1736)"/>
</g>
<path d="M13.4672 9.10132C12.8143 9.10132 12.2627 9.55148 12.1127 10.1598C12.068 10.3342 12.2019 10.5005 12.3803 10.5005H14.6109C14.7528 10.5005 14.8663 10.3707 14.838 10.2288C14.7122 9.58798 14.1445 9.10132 13.4672 9.10132Z" fill="white"/>
<path d="M13.6741 9.37305C13.1793 9.37305 12.7819 9.77454 12.7819 10.2653C12.7819 10.3464 12.794 10.4275 12.8143 10.5005H14.5379C14.5582 10.4234 14.5703 10.3464 14.5703 10.2653C14.5663 9.77454 14.1688 9.37305 13.6741 9.37305Z" fill="url(#paint75_radial_4002_1736)"/>
<path d="M14.1851 10.2654C14.1851 9.9815 13.958 9.75439 13.6741 9.75439C13.3902 9.75439 13.1631 9.9815 13.1631 10.2654C13.1631 10.3506 13.1834 10.4317 13.2199 10.5006H14.1242C14.1607 10.4317 14.1851 10.3506 14.1851 10.2654Z" fill="black"/>
<g filter="url(#filter21_f_4002_1736)">
<path d="M14.4892 10.1605C14.4892 9.87213 14.2548 9.67991 14.1914 9.62183L13.9031 9.90064L14.0805 10.2618L14.4892 10.1605Z" fill="url(#paint76_linear_4002_1736)"/>
</g>
<g filter="url(#filter22_f_4002_1736)">
<ellipse cx="13.4048" cy="9.7543" rx="0.389499" ry="0.197123" transform="rotate(-27.914 13.4048 9.7543)" fill="#C7A7A3" fill-opacity="0.9"/>
<ellipse cx="13.4048" cy="9.7543" rx="0.389499" ry="0.197123" transform="rotate(-27.914 13.4048 9.7543)" fill="url(#paint77_radial_4002_1736)"/>
</g>
<g filter="url(#filter23_f_4002_1736)">
<path d="M17.5205 7.66752C17.9506 7.59226 18.7892 7.61377 19.3698 8.06533" stroke="url(#paint78_linear_4002_1736)" stroke-width="0.25" stroke-linecap="round"/>
</g>
<g filter="url(#filter24_f_4002_1736)">
<path d="M12.3015 8.18601C12.6287 7.89689 13.343 7.59245 14.2285 7.7336" stroke="url(#paint79_linear_4002_1736)" stroke-width="0.25" stroke-linecap="round"/>
</g>
<g filter="url(#filter25_f_4002_1736)">
<path d="M11.3276 5.72095V6.61841C11.3197 6.76702 11.2572 7.09941 11.0695 7.24019" stroke="url(#paint80_linear_4002_1736)" stroke-width="0.25" stroke-linecap="round"/>
</g>
<defs>
<filter id="filter0_ii_4002_1736" x="8.84192" y="15.275" width="14.2537" height="7.61816" filterUnits="userSpaceOnUse" color-interpolation-filters="sRGB">
<feFlood flood-opacity="0" result="BackgroundImageFix"/>
<feBlend mode="normal" in="SourceGraphic" in2="BackgroundImageFix" result="shape"/>
<feColorMatrix in="SourceAlpha" type="matrix" values="0 0 0 0 0 0 0 0 0 0 0 0 0 0 0 0 0 0 127 0" result="hardAlpha"/>
<feOffset dy="-0.15"/>
<feGaussianBlur stdDeviation="0.075"/>
<feComposite in2="hardAlpha" operator="arithmetic" k2="-1" k3="1"/>
<feColorMatrix type="matrix" values="0 0 0 0 0.2 0 0 0 0 0.141176 0 0 0 0 0.254902 0 0 0 1 0"/>
<feBlend mode="normal" in2="shape" result="effect1_innerShadow_4002_1736"/>
<feColorMatrix in="SourceAlpha" type="matrix" values="0 0 0 0 0 0 0 0 0 0 0 0 0 0 0 0 0 0 127 0" result="hardAlpha"/>
<feOffset dx="0.2" dy="0.1"/>
<feGaussianBlur stdDeviation="0.25"/>
<feComposite in2="hardAlpha" operator="arithmetic" k2="-1" k3="1"/>
<feColorMatrix type="matrix" values="0 0 0 0 0.419608 0 0 0 0 0.4 0 0 0 0 0.439216 0 0 0 1 0"/>
<feBlend mode="normal" in2="effect1_innerShadow_4002_1736" result="effect2_innerShadow_4002_1736"/>
</filter>
<filter id="filter1_i_4002_1736" x="23.2861" y="24.4235" width="4.46787" height="5.55625" filterUnits="userSpaceOnUse" color-interpolation-filters="sRGB">
<feFlood flood-opacity="0" result="BackgroundImageFix"/>
<feBlend mode="normal" in="SourceGraphic" in2="BackgroundImageFix" result="shape"/>
<feColorMatrix in="SourceAlpha" type="matrix" values="0 0 0 0 0 0 0 0 0 0 0 0 0 0 0 0 0 0 127 0" result="hardAlpha"/>
<feOffset dx="0.15" dy="-0.15"/>
<feGaussianBlur stdDeviation="0.5"/>
<feComposite in2="hardAlpha" operator="arithmetic" k2="-1" k3="1"/>
<feColorMatrix type="matrix" values="0 0 0 0 0.454902 0 0 0 0 0.313726 0 0 0 0 0.266667 0 0 0 1 0"/>
<feBlend mode="normal" in2="shape" result="effect1_innerShadow_4002_1736"/>
</filter>
<filter id="filter2_f_4002_1736" x="15.2725" y="23.2732" width="1.19189" height="6.82568" filterUnits="userSpaceOnUse" color-interpolation-filters="sRGB">
<feFlood flood-opacity="0" result="BackgroundImageFix"/>
<feBlend mode="normal" in="SourceGraphic" in2="BackgroundImageFix" result="shape"/>
<feGaussianBlur stdDeviation="0.125" result="effect1_foregroundBlur_4002_1736"/>
</filter>
<filter id="filter3_f_4002_1736" x="11.2661" y="23.2732" width="1.19189" height="6.82568" filterUnits="userSpaceOnUse" color-interpolation-filters="sRGB">
<feFlood flood-opacity="0" result="BackgroundImageFix"/>
<feBlend mode="normal" in="SourceGraphic" in2="BackgroundImageFix" result="shape"/>
<feGaussianBlur stdDeviation="0.125" result="effect1_foregroundBlur_4002_1736"/>
</filter>
<filter id="filter4_f_4002_1736" x="19.2595" y="23.2732" width="1.19189" height="6.82568" filterUnits="userSpaceOnUse" color-interpolation-filters="sRGB">
<feFlood flood-opacity="0" result="BackgroundImageFix"/>
<feBlend mode="normal" in="SourceGraphic" in2="BackgroundImageFix" result="shape"/>
<feGaussianBlur stdDeviation="0.125" result="effect1_foregroundBlur_4002_1736"/>
</filter>
<filter id="filter5_f_4002_1736" x="23.6564" y="25.8219" width="2.09685" height="0.300098" filterUnits="userSpaceOnUse" color-interpolation-filters="sRGB">
<feFlood flood-opacity="0" result="BackgroundImageFix"/>
<feBlend mode="normal" in="SourceGraphic" in2="BackgroundImageFix" result="shape"/>
<feGaussianBlur stdDeviation="0.05" result="effect1_foregroundBlur_4002_1736"/>
</filter>
<filter id="filter6_f_4002_1736" x="23.5783" y="27.1266" width="2.09685" height="0.300098" filterUnits="userSpaceOnUse" color-interpolation-filters="sRGB">
<feFlood flood-opacity="0" result="BackgroundImageFix"/>
<feBlend mode="normal" in="SourceGraphic" in2="BackgroundImageFix" result="shape"/>
<feGaussianBlur stdDeviation="0.05" result="effect1_foregroundBlur_4002_1736"/>
</filter>
<filter id="filter7_f_4002_1736" x="23.6564" y="28.4312" width="2.09685" height="0.300098" filterUnits="userSpaceOnUse" color-interpolation-filters="sRGB">
<feFlood flood-opacity="0" result="BackgroundImageFix"/>
<feBlend mode="normal" in="SourceGraphic" in2="BackgroundImageFix" result="shape"/>
<feGaussianBlur stdDeviation="0.05" result="effect1_foregroundBlur_4002_1736"/>
</filter>
<filter id="filter8_i_4002_1736" x="9.44324" y="8.86255" width="3.53862" height="3.33862" filterUnits="userSpaceOnUse" color-interpolation-filters="sRGB">
<feFlood flood-opacity="0" result="BackgroundImageFix"/>
<feBlend mode="normal" in="SourceGraphic" in2="BackgroundImageFix" result="shape"/>
<feColorMatrix in="SourceAlpha" type="matrix" values="0 0 0 0 0 0 0 0 0 0 0 0 0 0 0 0 0 0 127 0" result="hardAlpha"/>
<feOffset dx="0.2"/>
<feGaussianBlur stdDeviation="0.15"/>
<feComposite in2="hardAlpha" operator="arithmetic" k2="-1" k3="1"/>
<feColorMatrix type="matrix" values="0 0 0 0 0.619608 0 0 0 0 0.470588 0 0 0 0 0.407843 0 0 0 1 0"/>
<feBlend mode="normal" in2="shape" result="effect1_innerShadow_4002_1736"/>
</filter>
<filter id="filter9_f_4002_1736" x="9.61768" y="9.03711" width="2.98975" height="2.98975" filterUnits="userSpaceOnUse" color-interpolation-filters="sRGB">
<feFlood flood-opacity="0" result="BackgroundImageFix"/>
<feBlend mode="normal" in="SourceGraphic" in2="BackgroundImageFix" result="shape"/>
<feGaussianBlur stdDeviation="0.25" result="effect1_foregroundBlur_4002_1736"/>
</filter>
<filter id="filter10_i_4002_1736" x="18.9557" y="8.61255" width="3.58862" height="3.58862" filterUnits="userSpaceOnUse" color-interpolation-filters="sRGB">
<feFlood flood-opacity="0" result="BackgroundImageFix"/>
<feBlend mode="normal" in="SourceGraphic" in2="BackgroundImageFix" result="shape"/>
<feColorMatrix in="SourceAlpha" type="matrix" values="0 0 0 0 0 0 0 0 0 0 0 0 0 0 0 0 0 0 127 0" result="hardAlpha"/>
<feOffset dx="0.25" dy="-0.25"/>
<feGaussianBlur stdDeviation="0.25"/>
<feComposite in2="hardAlpha" operator="arithmetic" k2="-1" k3="1"/>
<feColorMatrix type="matrix" values="0 0 0 0 0.584314 0 0 0 0 0.368627 0 0 0 0 0.470588 0 0 0 1 0"/>
<feBlend mode="normal" in2="shape" result="effect1_innerShadow_4002_1736"/>
</filter>
<filter id="filter11_f_4002_1736" x="19.1301" y="9.03711" width="2.98975" height="2.98975" filterUnits="userSpaceOnUse" color-interpolation-filters="sRGB">
<feFlood flood-opacity="0" result="BackgroundImageFix"/>
<feBlend mode="normal" in="SourceGraphic" in2="BackgroundImageFix" result="shape"/>
<feGaussianBlur stdDeviation="0.25" result="effect1_foregroundBlur_4002_1736"/>
</filter>
<filter id="filter12_i_4002_1736" x="10.7024" y="4.90796" width="10.3728" height="12.1769" filterUnits="userSpaceOnUse" color-interpolation-filters="sRGB">
<feFlood flood-opacity="0" result="BackgroundImageFix"/>
<feBlend mode="normal" in="SourceGraphic" in2="BackgroundImageFix" result="shape"/>
<feColorMatrix in="SourceAlpha" type="matrix" values="0 0 0 0 0 0 0 0 0 0 0 0 0 0 0 0 0 0 127 0" result="hardAlpha"/>
<feOffset dy="0.15"/>
<feGaussianBlur stdDeviation="0.125"/>
<feComposite in2="hardAlpha" operator="arithmetic" k2="-1" k3="1"/>
<feColorMatrix type="matrix" values="0 0 0 0 0.305882 0 0 0 0 0.2 0 0 0 0 0.172549 0 0 0 1 0"/>
<feBlend mode="normal" in2="shape" result="effect1_innerShadow_4002_1736"/>
</filter>
<filter id="filter13_f_4002_1736" x="14.03" y="2.90796" width="8.24573" height="7.06641" filterUnits="userSpaceOnUse" color-interpolation-filters="sRGB">
<feFlood flood-opacity="0" result="BackgroundImageFix"/>
<feBlend mode="normal" in="SourceGraphic" in2="BackgroundImageFix" result="shape"/>
<feGaussianBlur stdDeviation="1" result="effect1_foregroundBlur_4002_1736"/>
</filter>
<filter id="filter14_i_4002_1736" x="9.55981" y="1.4314" width="12.6005" height="8.54297" filterUnits="userSpaceOnUse" color-interpolation-filters="sRGB">
<feFlood flood-opacity="0" result="BackgroundImageFix"/>
<feBlend mode="normal" in="SourceGraphic" in2="BackgroundImageFix" result="shape"/>
<feColorMatrix in="SourceAlpha" type="matrix" values="0 0 0 0 0 0 0 0 0 0 0 0 0 0 0 0 0 0 127 0" result="hardAlpha"/>
<feOffset dy="-0.5"/>
<feGaussianBlur stdDeviation="0.375"/>
<feComposite in2="hardAlpha" operator="arithmetic" k2="-1" k3="1"/>
<feColorMatrix type="matrix" values="0 0 0 0 0.207843 0 0 0 0 0.109804 0 0 0 0 0.109804 0 0 0 1 0"/>
<feBlend mode="normal" in2="shape" result="effect1_innerShadow_4002_1736"/>
</filter>
<filter id="filter15_f_4002_1736" x="13.9912" y="9.37744" width="3.25983" height="4.18091" filterUnits="userSpaceOnUse" color-interpolation-filters="sRGB">
<feFlood flood-opacity="0" result="BackgroundImageFix"/>
<feBlend mode="normal" in="SourceGraphic" in2="BackgroundImageFix" result="shape"/>
<feGaussianBlur stdDeviation="0.375" result="effect1_foregroundBlur_4002_1736"/>
</filter>
<filter id="filter16_f_4002_1736" x="14.6718" y="9.71436" width="2.37665" height="3.18091" filterUnits="userSpaceOnUse" color-interpolation-filters="sRGB">
<feFlood flood-opacity="0" result="BackgroundImageFix"/>
<feBlend mode="normal" in="SourceGraphic" in2="BackgroundImageFix" result="shape"/>
<feGaussianBlur stdDeviation="0.125" result="effect1_foregroundBlur_4002_1736"/>
</filter>
<filter id="filter17_i_4002_1736" x="17.0421" y="6.88345" width="2.97943" height="1.87266" filterUnits="userSpaceOnUse" color-interpolation-filters="sRGB">
<feFlood flood-opacity="0" result="BackgroundImageFix"/>
<feBlend mode="normal" in="SourceGraphic" in2="BackgroundImageFix" result="shape"/>
<feColorMatrix in="SourceAlpha" type="matrix" values="0 0 0 0 0 0 0 0 0 0 0 0 0 0 0 0 0 0 127 0" result="hardAlpha"/>
<feOffset dx="0.25" dy="-0.4"/>
<feGaussianBlur stdDeviation="0.3"/>
<feComposite in2="hardAlpha" operator="arithmetic" k2="-1" k3="1"/>
<feColorMatrix type="matrix" values="0 0 0 0 0.254902 0 0 0 0 0.156863 0 0 0 0 0.152941 0 0 0 1 0"/>
<feBlend mode="normal" in2="shape" result="effect1_innerShadow_4002_1736"/>
</filter>
<filter id="filter18_i_4002_1736" x="11.8948" y="6.88345" width="2.97955" height="1.87266" filterUnits="userSpaceOnUse" color-interpolation-filters="sRGB">
<feFlood flood-opacity="0" result="BackgroundImageFix"/>
<feBlend mode="normal" in="SourceGraphic" in2="BackgroundImageFix" result="shape"/>
<feColorMatrix in="SourceAlpha" type="matrix" values="0 0 0 0 0 0 0 0 0 0 0 0 0 0 0 0 0 0 127 0" result="hardAlpha"/>
<feOffset dx="0.25" dy="-0.4"/>
<feGaussianBlur stdDeviation="0.3"/>
<feComposite in2="hardAlpha" operator="arithmetic" k2="-1" k3="1"/>
<feColorMatrix type="matrix" values="0 0 0 0 0.254902 0 0 0 0 0.156863 0 0 0 0 0.152941 0 0 0 1 0"/>
<feBlend mode="normal" in2="shape" result="effect1_innerShadow_4002_1736"/>
</filter>
<filter id="filter19_f_4002_1736" x="17.3048" y="9.41025" width="0.786609" height="0.696338" filterUnits="userSpaceOnUse" color-interpolation-filters="sRGB">
<feFlood flood-opacity="0" result="BackgroundImageFix"/>
<feBlend mode="normal" in="SourceGraphic" in2="BackgroundImageFix" result="shape"/>
<feGaussianBlur stdDeviation="0.05" result="effect1_foregroundBlur_4002_1736"/>
</filter>
<filter id="filter20_f_4002_1736" x="18.1445" y="9.4853" width="0.891089" height="0.913184" filterUnits="userSpaceOnUse" color-interpolation-filters="sRGB">
<feFlood flood-opacity="0" result="BackgroundImageFix"/>
<feBlend mode="normal" in="SourceGraphic" in2="BackgroundImageFix" result="shape"/>
<feGaussianBlur stdDeviation="0.1" result="effect1_foregroundBlur_4002_1736"/>
</filter>
<filter id="filter21_f_4002_1736" x="13.7031" y="9.42183" width="0.986121" height="1.03989" filterUnits="userSpaceOnUse" color-interpolation-filters="sRGB">
<feFlood flood-opacity="0" result="BackgroundImageFix"/>
<feBlend mode="normal" in="SourceGraphic" in2="BackgroundImageFix" result="shape"/>
<feGaussianBlur stdDeviation="0.1" result="effect1_foregroundBlur_4002_1736"/>
</filter>
<filter id="filter22_f_4002_1736" x="12.9484" y="9.4022" width="0.912891" height="0.70415" filterUnits="userSpaceOnUse" color-interpolation-filters="sRGB">
<feFlood flood-opacity="0" result="BackgroundImageFix"/>
<feBlend mode="normal" in="SourceGraphic" in2="BackgroundImageFix" result="shape"/>
<feGaussianBlur stdDeviation="0.05" result="effect1_foregroundBlur_4002_1736"/>
</filter>
<filter id="filter23_f_4002_1736" x="16.8955" y="7.00928" width="3.09924" height="1.68115" filterUnits="userSpaceOnUse" color-interpolation-filters="sRGB">
<feFlood flood-opacity="0" result="BackgroundImageFix"/>
<feBlend mode="normal" in="SourceGraphic" in2="BackgroundImageFix" result="shape"/>
<feGaussianBlur stdDeviation="0.25" result="effect1_foregroundBlur_4002_1736"/>
</filter>
<filter id="filter24_f_4002_1736" x="11.6766" y="7.073" width="3.177" height="1.73804" filterUnits="userSpaceOnUse" color-interpolation-filters="sRGB">
<feFlood flood-opacity="0" result="BackgroundImageFix"/>
<feBlend mode="normal" in="SourceGraphic" in2="BackgroundImageFix" result="shape"/>
<feGaussianBlur stdDeviation="0.25" result="effect1_foregroundBlur_4002_1736"/>
</filter>
<filter id="filter25_f_4002_1736" x="10.6945" y="5.34595" width="1.00812" height="2.26929" filterUnits="userSpaceOnUse" color-interpolation-filters="sRGB">
<feFlood flood-opacity="0" result="BackgroundImageFix"/>
<feBlend mode="normal" in="SourceGraphic" in2="BackgroundImageFix" result="shape"/>
<feGaussianBlur stdDeviation="0.125" result="effect1_foregroundBlur_4002_1736"/>
</filter>
<linearGradient id="paint0_linear_4002_1736" x1="15.8553" y1="15.5205" x2="15.8553" y2="30.4049" gradientUnits="userSpaceOnUse">
<stop stop-color="#554466"/>
<stop offset="1" stop-color="#544168"/>
</linearGradient>
<linearGradient id="paint1_linear_4002_1736" x1="23.2828" y1="26.5735" x2="20.7516" y2="26.6048" gradientUnits="userSpaceOnUse">
<stop stop-color="#6E6478"/>
<stop offset="1" stop-color="#493757" stop-opacity="0"/>
</linearGradient>
<linearGradient id="paint2_linear_4002_1736" x1="8.31065" y1="26.3892" x2="10.5266" y2="26.3892" gradientUnits="userSpaceOnUse">
<stop stop-color="#5A4E68"/>
<stop offset="1" stop-color="#5A4E68" stop-opacity="0"/>
</linearGradient>
<radialGradient id="paint3_radial_4002_1736" cx="0" cy="0" r="1" gradientUnits="userSpaceOnUse" gradientTransform="translate(4.77832 29.9796) rotate(-90) scale(19.1787 5.74827)">
<stop stop-color="#766C83"/>
<stop offset="0.441285" stop-color="#58496A"/>
<stop offset="1" stop-color="#4D4159"/>
</radialGradient>
<radialGradient id="paint4_radial_4002_1736" cx="0" cy="0" r="1" gradientUnits="userSpaceOnUse" gradientTransform="translate(8.62659 29.9796) rotate(-90) scale(10.533 0.842254)">
<stop offset="0.285977" stop-color="#4F445B"/>
<stop offset="1" stop-color="#4F445B" stop-opacity="0"/>
</radialGradient>
<radialGradient id="paint5_radial_4002_1736" cx="0" cy="0" r="1" gradientUnits="userSpaceOnUse" gradientTransform="translate(8.62659 23.0307) rotate(90) scale(7.20963 0.92291)">
<stop stop-color="#4E425A"/>
<stop offset="1" stop-color="#4E425A" stop-opacity="0"/>
</radialGradient>
<linearGradient id="paint6_linear_4002_1736" x1="8.77393" y1="28.0461" x2="8.33922" y2="28.0461" gradientUnits="userSpaceOnUse">
<stop offset="0.444444" stop-color="#433850"/>
<stop offset="1" stop-color="#433850" stop-opacity="0"/>
</linearGradient>
<radialGradient id="paint7_radial_4002_1736" cx="0" cy="0" r="1" gradientUnits="userSpaceOnUse" gradientTransform="translate(25.0051 29.9796) rotate(-100.677) scale(10.3854 2.97327)">
<stop stop-color="#736782"/>
<stop offset="1" stop-color="#5F5070"/>
</radialGradient>
<radialGradient id="paint8_radial_4002_1736" cx="0" cy="0" r="1" gradientUnits="userSpaceOnUse" gradientTransform="translate(22.9088 23.1328) rotate(87.3599) scale(12.0609 1.0202)">
<stop offset="0.176695" stop-color="#3F2A51"/>
<stop offset="1" stop-color="#3F2A51" stop-opacity="0"/>
</radialGradient>
<linearGradient id="paint9_linear_4002_1736" x1="22.5954" y1="18.4797" x2="16.7204" y2="18.4797" gradientUnits="userSpaceOnUse">
<stop stop-color="#564D5B"/>
<stop offset="1" stop-color="#433945"/>
</linearGradient>
<radialGradient id="paint10_radial_4002_1736" cx="0" cy="0" r="1" gradientUnits="userSpaceOnUse" gradientTransform="translate(15.8688 14.7922) rotate(43.2594) scale(8.18526 14.7835)">
<stop offset="0.910383" stop-color="#59545E" stop-opacity="0"/>
<stop offset="0.936715" stop-color="#59545E"/>
</radialGradient>
<radialGradient id="paint11_radial_4002_1736" cx="0" cy="0" r="1" gradientUnits="userSpaceOnUse" gradientTransform="translate(15.8688 16.37) rotate(180) scale(5.11642 3.80242)">
<stop stop-color="#3B2321"/>
<stop offset="1" stop-color="#3B2321" stop-opacity="0"/>
</radialGradient>
<linearGradient id="paint12_linear_4002_1736" x1="16.986" y1="19.0579" x2="15.6891" y2="19.9797" gradientUnits="userSpaceOnUse">
<stop offset="0.0481176" stop-color="#978B8D"/>
<stop offset="1" stop-color="#ADA3A2"/>
</linearGradient>
<radialGradient id="paint13_radial_4002_1736" cx="0" cy="0" r="1" gradientUnits="userSpaceOnUse" gradientTransform="translate(15.8559 18.4797) rotate(90) scale(3.03125 2.76048)">
<stop offset="0.463917" stop-color="#D7CACE"/>
<stop offset="1" stop-color="#897576"/>
</radialGradient>
<radialGradient id="paint14_radial_4002_1736" cx="0" cy="0" r="1" gradientUnits="userSpaceOnUse" gradientTransform="translate(16.6289 16.4423) rotate(90) scale(2.27137 3.54923)">
<stop stop-color="#98686E"/>
<stop offset="1" stop-color="#9D736B"/>
</radialGradient>
<radialGradient id="paint15_radial_4002_1736" cx="0" cy="0" r="1" gradientUnits="userSpaceOnUse" gradientTransform="translate(15.8587 15.3543) rotate(90) scale(4.73374 2.62391)">
<stop offset="0.618821" stop-color="#5A3527" stop-opacity="0"/>
<stop offset="0.922756" stop-color="#5A3527"/>
</radialGradient>
<radialGradient id="paint16_radial_4002_1736" cx="0" cy="0" r="1" gradientUnits="userSpaceOnUse" gradientTransform="translate(14.5477 16.1991) rotate(90) scale(1.42187 0.53125)">
<stop offset="0.417582" stop-color="#937268"/>
<stop offset="1" stop-color="#937268" stop-opacity="0"/>
</radialGradient>
<radialGradient id="paint17_radial_4002_1736" cx="0" cy="0" r="1" gradientUnits="userSpaceOnUse" gradientTransform="translate(27.9319 23.5331) rotate(145.605) scale(2.31047 2.27126)">
<stop offset="0.463759" stop-color="#A27F66"/>
<stop offset="1" stop-color="#6F4745"/>
</radialGradient>
<radialGradient id="paint18_radial_4002_1736" cx="0" cy="0" r="1" gradientUnits="userSpaceOnUse" gradientTransform="translate(27.3688 23.3884) rotate(-37.3718) scale(0.945697 0.725314)">
<stop offset="0.131677" stop-color="#CBA68E"/>
<stop offset="1" stop-color="#CBA68E" stop-opacity="0"/>
</radialGradient>
<linearGradient id="paint19_linear_4002_1736" x1="27.5953" y1="20.6984" x2="24.2203" y2="20.3234" gradientUnits="userSpaceOnUse">
<stop offset="0.150123" stop-color="#8E6B62"/>
<stop offset="1" stop-color="#663E3D"/>
</linearGradient>
<linearGradient id="paint20_linear_4002_1736" x1="25.3158" y1="20.9641" x2="25.3158" y2="20.4484" gradientUnits="userSpaceOnUse">
<stop stop-color="#703E47"/>
<stop offset="1" stop-color="#703E47" stop-opacity="0"/>
</linearGradient>
<radialGradient id="paint21_radial_4002_1736" cx="0" cy="0" r="1" gradientUnits="userSpaceOnUse" gradientTransform="translate(26.554 17.3724) rotate(180) scale(1.9294 0.32098)">
<stop stop-color="#8A6A62"/>
<stop offset="1" stop-color="#8A6A62" stop-opacity="0"/>
</radialGradient>
<linearGradient id="paint22_linear_4002_1736" x1="25.3158" y1="16.8184" x2="25.3158" y2="17.4488" gradientUnits="userSpaceOnUse">
<stop stop-color="#755144"/>
<stop offset="1" stop-color="#755144" stop-opacity="0"/>
</linearGradient>
<linearGradient id="paint23_linear_4002_1736" x1="23.0187" y1="19.1656" x2="23.76" y2="19.1656" gradientUnits="userSpaceOnUse">
<stop stop-color="#4C1912"/>
<stop offset="1" stop-color="#4C1912" stop-opacity="0"/>
</linearGradient>
<linearGradient id="paint24_linear_4002_1736" x1="23.1891" y1="18.9494" x2="21.8922" y2="18.9494" gradientUnits="userSpaceOnUse">
<stop offset="0.277109" stop-color="#6D5150"/>
<stop offset="0.819277" stop-color="#64423E"/>
</linearGradient>
<linearGradient id="paint25_linear_4002_1736" x1="23.4391" y1="19.2297" x2="23.0485" y2="19.2297" gradientUnits="userSpaceOnUse">
<stop stop-color="#52251C"/>
<stop offset="1" stop-color="#532820" stop-opacity="0"/>
</linearGradient>
<linearGradient id="paint26_linear_4002_1736" x1="22.6437" y1="21.0601" x2="22.6437" y2="20.3973" gradientUnits="userSpaceOnUse">
<stop stop-color="#663848"/>
<stop offset="1" stop-color="#663848" stop-opacity="0"/>
</linearGradient>
<radialGradient id="paint27_radial_4002_1736" cx="0" cy="0" r="1" gradientUnits="userSpaceOnUse" gradientTransform="translate(23.2672 17.1984) rotate(180) scale(1.07813 0.343195)">
<stop stop-color="#745E58"/>
<stop offset="1" stop-color="#745E58" stop-opacity="0"/>
</radialGradient>
<linearGradient id="paint28_linear_4002_1736" x1="28.8905" y1="19.3968" x2="27.27" y2="19.3968" gradientUnits="userSpaceOnUse">
<stop stop-color="#8B6961"/>
<stop offset="1" stop-color="#62312B"/>
</linearGradient>
<linearGradient id="paint29_linear_4002_1736" x1="28.1891" y1="21.0344" x2="28.1891" y2="20.5109" gradientUnits="userSpaceOnUse">
<stop stop-color="#7A464A"/>
<stop offset="1" stop-color="#7A464A" stop-opacity="0"/>
</linearGradient>
<radialGradient id="paint30_radial_4002_1736" cx="0" cy="0" r="1" gradientUnits="userSpaceOnUse" gradientTransform="translate(29.0329 17.4484) rotate(180) scale(1.0625 0.296875)">
<stop stop-color="#83645E"/>
<stop offset="1" stop-color="#83645E" stop-opacity="0"/>
</radialGradient>
<radialGradient id="paint31_radial_4002_1736" cx="0" cy="0" r="1" gradientUnits="userSpaceOnUse" gradientTransform="translate(25.9548 24.2639) rotate(180) scale(1.15625 6.89354)">
<stop stop-color="#82625C"/>
<stop offset="0.851351" stop-color="#754636"/>
</radialGradient>
<linearGradient id="paint32_linear_4002_1736" x1="25.3175" y1="21.9758" x2="25.3454" y2="22.3313" gradientUnits="userSpaceOnUse">
<stop stop-color="#523135"/>
<stop offset="1" stop-color="#523135" stop-opacity="0"/>
</linearGradient>
<linearGradient id="paint33_linear_4002_1736" x1="27.3141" y1="28.0422" x2="23.2861" y2="28.0422" gradientUnits="userSpaceOnUse">
<stop offset="0.145558" stop-color="#C89A81"/>
<stop offset="0.861163" stop-color="#94616D"/>
</linearGradient>
<radialGradient id="paint34_radial_4002_1736" cx="0" cy="0" r="1" gradientUnits="userSpaceOnUse" gradientTransform="translate(25.7232 25.2844) rotate(90) scale(0.801703 1.35439)">
<stop offset="0.106061" stop-color="#C2998B"/>
<stop offset="1" stop-color="#C99E80" stop-opacity="0"/>
</radialGradient>
<radialGradient id="paint35_radial_4002_1736" cx="0" cy="0" r="1" gradientUnits="userSpaceOnUse" gradientTransform="translate(25.7232 26.5788) rotate(90) scale(0.859375 1.45182)">
<stop offset="0.109091" stop-color="#C2998B"/>
<stop offset="1" stop-color="#C99E80" stop-opacity="0"/>
</radialGradient>
<radialGradient id="paint36_radial_4002_1736" cx="0" cy="0" r="1" gradientUnits="userSpaceOnUse" gradientTransform="translate(25.7232 27.8288) rotate(90) scale(0.71875 1.21425)">
<stop offset="0.109091" stop-color="#C2998B"/>
<stop offset="1" stop-color="#C99E80" stop-opacity="0"/>
</radialGradient>
<radialGradient id="paint37_radial_4002_1736" cx="0" cy="0" r="1" gradientUnits="userSpaceOnUse" gradientTransform="translate(25.7232 29.1804) rotate(90) scale(0.799377 1.7273)">
<stop offset="0.186046" stop-color="#C2998B"/>
<stop offset="1" stop-color="#C99E80" stop-opacity="0"/>
</radialGradient>
<radialGradient id="paint38_radial_4002_1736" cx="0" cy="0" r="1" gradientUnits="userSpaceOnUse" gradientTransform="translate(26.4001 21.4407) rotate(180) scale(1.97656 0.375)">
<stop stop-color="#7C5F5A"/>
<stop offset="1" stop-color="#5D383B"/>
</radialGradient>
<linearGradient id="paint39_linear_4002_1736" x1="25.3275" y1="20.7922" x2="25.3275" y2="21.2532" gradientUnits="userSpaceOnUse">
<stop offset="0.220339" stop-color="#54201C"/>
<stop offset="1" stop-color="#54201C" stop-opacity="0"/>
</linearGradient>
<linearGradient id="paint40_linear_4002_1736" x1="16.905" y1="29.5827" x2="16.905" y2="22.9064" gradientUnits="userSpaceOnUse">
<stop stop-color="#3F3647"/>
<stop offset="1" stop-color="#3F3647" stop-opacity="0"/>
</linearGradient>
<linearGradient id="paint41_linear_4002_1736" x1="12.8986" y1="29.5827" x2="12.8986" y2="22.9064" gradientUnits="userSpaceOnUse">
<stop stop-color="#3F3647"/>
<stop offset="1" stop-color="#3F3647" stop-opacity="0"/>
</linearGradient>
<linearGradient id="paint42_linear_4002_1736" x1="20.892" y1="29.5827" x2="20.892" y2="22.9064" gradientUnits="userSpaceOnUse">
<stop stop-color="#3F3647"/>
<stop offset="1" stop-color="#3F3647" stop-opacity="0"/>
</linearGradient>
<linearGradient id="paint43_linear_4002_1736" x1="23.8064" y1="26.05" x2="25.5156" y2="26.05" gradientUnits="userSpaceOnUse">
<stop stop-color="#835646"/>
<stop offset="1" stop-color="#835646" stop-opacity="0"/>
</linearGradient>
<linearGradient id="paint44_linear_4002_1736" x1="23.7283" y1="27.3547" x2="25.4375" y2="27.3547" gradientUnits="userSpaceOnUse">
<stop stop-color="#835646"/>
<stop offset="1" stop-color="#835646" stop-opacity="0"/>
</linearGradient>
<linearGradient id="paint45_linear_4002_1736" x1="23.8064" y1="28.6594" x2="25.5156" y2="28.6594" gradientUnits="userSpaceOnUse">
<stop stop-color="#835646"/>
<stop offset="1" stop-color="#835646" stop-opacity="0"/>
</linearGradient>
<radialGradient id="paint46_radial_4002_1736" cx="0" cy="0" r="1" gradientUnits="userSpaceOnUse" gradientTransform="translate(9.44324 10.5319) scale(1.75472 3.07077)">
<stop offset="0.350532" stop-color="#865D5F"/>
<stop offset="1" stop-color="#76594A"/>
</radialGradient>
<radialGradient id="paint47_radial_4002_1736" cx="0" cy="0" r="1" gradientUnits="userSpaceOnUse" gradientTransform="translate(11.1126 12.2012) rotate(-124.98) scale(1.6566)">
<stop offset="0.339551" stop-color="#834E63"/>
<stop offset="1" stop-color="#834E63" stop-opacity="0"/>
</radialGradient>
<linearGradient id="paint48_linear_4002_1736" x1="11.1126" y1="10.8106" x2="10.472" y2="10.8106" gradientUnits="userSpaceOnUse">
<stop stop-color="#694448"/>
<stop offset="1" stop-color="#6E464D"/>
</linearGradient>
<linearGradient id="paint49_linear_4002_1736" x1="21.7113" y1="9.4404" x2="20.8927" y2="11.9765" gradientUnits="userSpaceOnUse">
<stop stop-color="#CCA68C"/>
<stop offset="1" stop-color="#AE7F75"/>
</linearGradient>
<radialGradient id="paint50_radial_4002_1736" cx="0" cy="0" r="1" gradientUnits="userSpaceOnUse" gradientTransform="translate(20.9971 10.267) rotate(-36.0604) scale(1.02256 1.16712)">
<stop offset="0.542503" stop-color="#8F6459"/>
<stop offset="1" stop-color="#8F6459" stop-opacity="0"/>
</radialGradient>
<radialGradient id="paint51_radial_4002_1736" cx="0" cy="0" r="1" gradientUnits="userSpaceOnUse" gradientTransform="translate(20.5837 11.3532) rotate(-61.4675) scale(1.71921 1.00626)">
<stop offset="0.754913" stop-color="#8A5D55" stop-opacity="0"/>
<stop offset="0.915553" stop-color="#8A5D55"/>
</radialGradient>
<radialGradient id="paint52_radial_4002_1736" cx="0" cy="0" r="1" gradientUnits="userSpaceOnUse" gradientTransform="translate(20.625 10.532) rotate(44.7077) scale(0.364802 0.47028)">
<stop stop-color="#895F52"/>
<stop offset="1" stop-color="#895F52" stop-opacity="0"/>
</radialGradient>
<linearGradient id="paint53_linear_4002_1736" x1="19.8956" y1="10.9214" x2="12.2594" y2="12.0593" gradientUnits="userSpaceOnUse">
<stop stop-color="#C69980"/>
<stop offset="1" stop-color="#916762"/>
</linearGradient>
<radialGradient id="paint54_radial_4002_1736" cx="0" cy="0" r="1" gradientUnits="userSpaceOnUse" gradientTransform="translate(18.2058 9.26059) rotate(-90) scale(1.30697 1.60858)">
<stop stop-color="#AB7773"/>
<stop offset="1" stop-color="#AB7773" stop-opacity="0"/>
</radialGradient>
<radialGradient id="paint55_radial_4002_1736" cx="0" cy="0" r="1" gradientUnits="userSpaceOnUse" gradientTransform="translate(13.6482 9.39464) rotate(-90) scale(1.37399 1.70868)">
<stop stop-color="#8F5D65"/>
<stop offset="1" stop-color="#8F5D65" stop-opacity="0"/>
</radialGradient>
<linearGradient id="paint56_linear_4002_1736" x1="10.4646" y1="13.6172" x2="12.3459" y2="13.5501" gradientUnits="userSpaceOnUse">
<stop stop-color="#9B7569"/>
<stop offset="1" stop-color="#9B7569" stop-opacity="0"/>
</linearGradient>
<linearGradient id="paint57_linear_4002_1736" x1="20.7804" y1="12.7758" x2="19.6682" y2="12.6788" gradientUnits="userSpaceOnUse">
<stop stop-color="#C1987F"/>
<stop offset="1" stop-color="#C1987F" stop-opacity="0"/>
</linearGradient>
<radialGradient id="paint58_radial_4002_1736" cx="0" cy="0" r="1" gradientUnits="userSpaceOnUse" gradientTransform="translate(15.7318 8.99852) rotate(90) scale(8.32774 10.3217)">
<stop offset="0.539782" stop-color="#95616C" stop-opacity="0"/>
<stop offset="0.96919" stop-color="#865058"/>
</radialGradient>
<linearGradient id="paint59_linear_4002_1736" x1="15.3285" y1="7.93686" x2="23.472" y2="5.02132" gradientUnits="userSpaceOnUse">
<stop stop-color="#C89F8B"/>
<stop offset="1" stop-color="#C89F8B" stop-opacity="0"/>
</linearGradient>
<radialGradient id="paint60_radial_4002_1736" cx="0" cy="0" r="1" gradientUnits="userSpaceOnUse" gradientTransform="translate(20.2049 6.42602) rotate(-74.8989) scale(3.06211 1.13553)">
<stop stop-color="#554042"/>
<stop offset="1" stop-color="#554042" stop-opacity="0"/>
</radialGradient>
<radialGradient id="paint61_radial_4002_1736" cx="0" cy="0" r="1" gradientUnits="userSpaceOnUse" gradientTransform="translate(18.5624 4.66628) rotate(5.25781) scale(3.84067 2.0651)">
<stop offset="0.392334" stop-color="#644949"/>
<stop offset="1" stop-color="#644949" stop-opacity="0"/>
</radialGradient>
<radialGradient id="paint62_radial_4002_1736" cx="0" cy="0" r="1" gradientUnits="userSpaceOnUse" gradientTransform="translate(15.8601 1.9314) rotate(90) scale(1.67903 2.60035)">
<stop stop-color="#624C49"/>
<stop offset="1" stop-color="#624C49" stop-opacity="0"/>
</radialGradient>
<radialGradient id="paint63_radial_4002_1736" cx="0" cy="0" r="1" gradientUnits="userSpaceOnUse" gradientTransform="translate(9.41176 8.74888) rotate(-36.2349) scale(3.81067 5.97006)">
<stop stop-color="#4E3C3A"/>
<stop offset="1" stop-color="#4E3C3A" stop-opacity="0"/>
</radialGradient>
<linearGradient id="paint64_linear_4002_1736" x1="14.996" y1="11.5806" x2="15.9341" y2="11.5806" gradientUnits="userSpaceOnUse">
<stop stop-color="#8B6455"/>
<stop offset="1" stop-color="#8B6455" stop-opacity="0"/>
</linearGradient>
<linearGradient id="paint65_linear_4002_1736" x1="16.7984" y1="11.9031" x2="15.7729" y2="11.8884" gradientUnits="userSpaceOnUse">
<stop stop-color="#CDA186"/>
<stop offset="1" stop-color="#CDA186" stop-opacity="0"/>
</linearGradient>
<linearGradient id="paint66_linear_4002_1736" x1="16.0546" y1="12.6453" x2="16.0546" y2="12.0723" gradientUnits="userSpaceOnUse">
<stop stop-color="#9C6073"/>
<stop offset="1" stop-color="#9C6073" stop-opacity="0"/>
</linearGradient>
<radialGradient id="paint67_radial_4002_1736" cx="0" cy="0" r="1" gradientUnits="userSpaceOnUse" gradientTransform="translate(16.1873 12.1384) rotate(90) scale(0.196883 0.63254)">
<stop stop-color="#C39787"/>
<stop offset="1" stop-color="#C39787" stop-opacity="0"/>
</radialGradient>
<linearGradient id="paint68_linear_4002_1736" x1="15.9858" y1="12.6872" x2="15.9858" y2="12.5196" gradientUnits="userSpaceOnUse">
<stop stop-color="#8E5263"/>
<stop offset="1" stop-color="#8E5263" stop-opacity="0"/>
</linearGradient>
<linearGradient id="paint69_linear_4002_1736" x1="14.8231" y1="14.2601" x2="15.258" y2="13.5726" gradientUnits="userSpaceOnUse">
<stop stop-color="#A87D7B"/>
<stop offset="0.663171" stop-color="#A87D7B" stop-opacity="0"/>
</linearGradient>
<radialGradient id="paint70_radial_4002_1736" cx="0" cy="0" r="1" gradientUnits="userSpaceOnUse" gradientTransform="translate(18.3026 8.44799) rotate(-80.2008) scale(0.612148 1.81099)">
<stop stop-color="#422235"/>
<stop offset="1" stop-color="#422235" stop-opacity="0"/>
</radialGradient>
<radialGradient id="paint71_radial_4002_1736" cx="0" cy="0" r="1" gradientUnits="userSpaceOnUse" gradientTransform="translate(13.1554 8.44799) rotate(-80.2002) scale(0.612149 1.81109)">
<stop stop-color="#422235"/>
<stop offset="1" stop-color="#422235" stop-opacity="0"/>
</radialGradient>
<radialGradient id="paint72_radial_4002_1736" cx="0" cy="0" r="1" gradientUnits="userSpaceOnUse" gradientTransform="translate(18.0387 9.84992) rotate(90) scale(0.811063 1.29009)">
<stop offset="0.80198" stop-color="#7D574A"/>
<stop offset="1" stop-color="#694B43"/>
<stop offset="1" stop-color="#804D49"/>
<stop offset="1" stop-color="#664944"/>
</radialGradient>
<radialGradient id="paint73_radial_4002_1736" cx="0" cy="0" r="1" gradientUnits="userSpaceOnUse" gradientTransform="translate(17.8106 9.93418) rotate(-127.812) scale(0.378168 0.520647)">
<stop offset="0.765532" stop-color="#FFE6E2" stop-opacity="0"/>
<stop offset="0.966159" stop-color="#FFE6E2"/>
</radialGradient>
<linearGradient id="paint74_linear_4002_1736" x1="18.8165" y1="9.90391" x2="18.5029" y2="10.0972" gradientUnits="userSpaceOnUse">
<stop stop-color="#B4948D"/>
<stop offset="1" stop-color="#B4948D" stop-opacity="0"/>
</linearGradient>
<radialGradient id="paint75_radial_4002_1736" cx="0" cy="0" r="1" gradientUnits="userSpaceOnUse" gradientTransform="translate(13.6761 9.84994) rotate(90) scale(0.811104 1.29015)">
<stop offset="0.80198" stop-color="#7D574A"/>
<stop offset="1" stop-color="#694B43"/>
<stop offset="1" stop-color="#804D49"/>
<stop offset="1" stop-color="#664944"/>
</radialGradient>
<linearGradient id="paint76_linear_4002_1736" x1="14.4198" y1="9.90381" x2="14.1061" y2="10.0971" gradientUnits="userSpaceOnUse">
<stop stop-color="#B4948D"/>
<stop offset="1" stop-color="#B4948D" stop-opacity="0"/>
</linearGradient>
<radialGradient id="paint77_radial_4002_1736" cx="0" cy="0" r="1" gradientUnits="userSpaceOnUse" gradientTransform="translate(13.3898 10.0691) rotate(-90.897) scale(0.493988 0.593794)">
<stop offset="0.765532" stop-color="#FFE6E2" stop-opacity="0"/>
<stop offset="0.966159" stop-color="#FFE6E2"/>
</radialGradient>
<linearGradient id="paint78_linear_4002_1736" x1="18.8322" y1="7.76429" x2="18.412" y2="6.90572" gradientUnits="userSpaceOnUse">
<stop stop-color="#5B4545"/>
<stop offset="1" stop-color="#5B4545" stop-opacity="0"/>
</linearGradient>
<linearGradient id="paint79_linear_4002_1736" x1="13.528" y1="7.63655" x2="12.339" y2="7.13786" gradientUnits="userSpaceOnUse">
<stop stop-color="#5B4545"/>
<stop offset="1" stop-color="#5B4545" stop-opacity="0"/>
</linearGradient>
<linearGradient id="paint80_linear_4002_1736" x1="11.1985" y1="5.62224" x2="11.1985" y2="7.77908" gradientUnits="userSpaceOnUse">
<stop offset="0.227964" stop-color="#4A3236"/>
<stop offset="1" stop-color="#4A3236" stop-opacity="0"/>
</linearGradient>
</defs>
</svg>
