<svg width="32" height="32" viewBox="0 0 32 32" fill="none" xmlns="http://www.w3.org/2000/svg">
<path d="M13.34 18H16.34L18.92 29.62C18.96 29.82 18.81 30 18.61 30H16.4C16.17 30 15.96 29.84 15.91 29.61L13.34 18Z" fill="#D3883E"/>
<path d="M25 19.27H22.64C22.49 19.27 22.36 19.37 22.33 19.52L20.08 29.62C20.04 29.81 20.19 30 20.39 30H22.6C22.83 30 23.04 29.84 23.1 29.61L25.31 19.65C25.35 19.46 25.2 19.27 25 19.27Z" fill="#D3883E"/>
<path d="M11 3.59999L8.19 3.03999C7.06 2.80999 6 3.67999 6 4.82999V5.62999L11 5.65999V3.59999Z" fill="#A56953"/>
<path d="M9.26 10V13.63H10.32V19H8.96C7.33 19 6 17.67 6 16.04V15.36C6 15.17 5.92 14.98 5.78 14.85C5.3 14.4 5 13.77 5 13.06V10.9C5 10.4 5.4 10 5.9 10H9.26Z" fill="#A56953"/>
<path d="M29.88 14.49L26.88 10.46L25.77 8.91C24.9 7.69 23.08 7.69 22.21 8.91L21 10.61C20.75 10.96 20.23 10.96 19.98 10.61L18.77 8.91C17.9 7.69 16.08 7.69 15.21 8.91L12.94 12.08C12.66 12.5 12.01 12.3 12 11.8V2.27C12 2.12 11.87 2 11.72 2C10.77 2 10 3.27 10 4.23C10 4.38 9.87 4.5 9.72 4.5H5.51C3.57 4.5 2 6.07 2 8.01V8.88C2 9.5 2.5 10 3.12 10H6.06C6.58 9.99 7 10.41 7 10.93V13.31C7 15.98 8.47 18.32 10.64 19.56C10.86 19.69 11 19.92 11 20.18V29.49C11 29.77 11.22 30 11.5 30C12.23 30 13.5 30 13.5 30C13.78 30 14 29.78 14 29.5V21H22C22.78 21 23.51 20.82 24.17 20.51C24.34 21.39 24.62 22.24 25.02 23.04L25.87 24.75C25.96 24.91 26 25.1 26 25.28V27.32C26 27.35 26 27.37 26 27.4V29.43C26 29.74 26.25 30 26.57 30H28.5C28.78 30 29 29.78 29 29.5L28.99 15.29C29.36 15.6 30 15.37 30 14.85C30 14.72 29.96 14.59 29.88 14.49Z" fill="#F3AD61"/>
<path d="M7.5 7.82001C7.22 7.82001 7 7.60001 7 7.32001V6.45001C7 6.17001 7.22 5.95001 7.5 5.95001C7.78 5.95001 8 6.17001 8 6.45001V7.33001C8 7.60001 7.78 7.82001 7.5 7.82001Z" fill="#1C1C1C"/>
<path d="M3.5 9C3.22 9 3 8.78 3 8.5V8.06C3 7.78 3.22 7.56 3.5 7.56C3.78 7.56 4 7.78 4 8.06V8.5C4 8.78 3.78 9 3.5 9Z" fill="#D3883E"/>
</svg>
