<svg width="32" height="32" viewBox="0 0 32 32" fill="none" xmlns="http://www.w3.org/2000/svg">
<path d="M16.01 4.6201C16.2917 4.6201 16.52 4.39176 16.52 4.1101C16.52 3.82843 16.2917 3.6001 16.01 3.6001C15.7283 3.6001 15.5 3.82843 15.5 4.1101C15.5 4.39176 15.7283 4.6201 16.01 4.6201Z" fill="#212121"/>
<path d="M15.3222 29.0669C15.3997 28.6017 15.1433 28.1629 14.7351 27.9853L16.119 18.2884L17.8937 27.9396C17.4122 28.0741 17.0924 28.5545 17.1778 29.0669L17.3474 30.0845C17.4335 30.6008 17.9031 30.9634 18.4243 30.916L27.5905 30.0827C28.1056 30.0359 28.5 29.604 28.5 29.0868V28.0907C28.5 27.6913 28.267 27.3502 27.9337 27.1894C27.9387 27.0013 27.9279 26.8119 27.9008 26.6232L24.8137 3.56395C24.7255 2.86093 24.3853 2.21346 23.8561 1.74173C23.3222 1.26587 22.6327 1.00171 21.9175 0.999023H9.95033L9.90069 1.00149C9.20095 1.03629 8.53704 1.32152 8.03012 1.80514C7.52591 2.28617 7.21044 2.93157 7.14049 3.62466L4.64843 27.1542C4.27197 27.2958 4 27.6592 4 28.0907V29.0868C4 29.604 4.39439 30.0359 4.90946 30.0827L14.0757 30.916C14.5969 30.9634 15.0665 30.6008 15.1526 30.0845L15.3222 29.0669ZM25.9293 27.2235L19.8921 27.7485L17.0088 12.0693L17.1431 12.0076C17.2556 12.0089 17.3672 11.9879 17.4715 11.9458C17.5758 11.9037 17.6707 11.8413 17.7507 11.7622C17.8307 11.6832 17.8942 11.589 17.9375 11.4852C17.9808 11.3814 18.0032 11.2701 18.0031 11.1576L18.0117 6.01172H20C19.9769 7.10024 20.3301 8.2417 21 9.10003C21.5154 9.6282 22.1414 10.0357 22.833 10.2933C22.9812 10.3485 23.393 10.4579 23.7301 10.5422L25.92 26.9C25.9361 27.008 25.939 27.1166 25.9293 27.2235ZM14.9995 12H14.9961L12.7469 27.7606L6.65153 27.2306L8.43636 10.3786C8.49007 10.3707 8.54697 10.3636 8.60496 10.3563C8.78961 10.3331 8.98527 10.3085 9.12372 10.2559C9.80055 9.9986 10.4134 9.59741 10.92 9.08003C11.6084 8.23136 11.9859 7.1045 11.99 6.01172H17.0017V10.7439C17.0019 10.8095 16.9773 10.8728 16.9328 10.921C16.8883 10.9692 16.8272 10.9988 16.7617 11.0039H15.69C15.69 11.0039 14.99 11.0076 14.99 11.8476L14.9995 12ZM8.54602 9.35062L8.89886 6.01172H11C10.9985 6.86663 10.7057 7.76384 10.17 8.43003C9.75628 8.83917 9.25833 9.15313 8.71083 9.35002C8.68142 9.3606 8.61323 9.35557 8.54602 9.35062C8.54628 9.35064 8.54576 9.3506 8.54602 9.35062ZM9.00563 5.00366L9.13004 3.82902C9.15136 3.60932 9.25096 3.4046 9.41068 3.25223C9.57039 3.09986 9.77957 3.00999 10 2.99902H21.91C22.137 2.99987 22.3559 3.08372 22.5254 3.23476C22.6948 3.3858 22.8032 3.59361 22.83 3.81902L22.9886 5.00366H9.00563ZM23.1236 6.01172L23.5849 9.45754C23.4319 9.41927 23.2959 9.38479 23.2729 9.3766C22.7199 9.17958 22.217 8.86324 21.8 8.45003C21.2714 7.7741 20.9891 6.86974 21 6.01172H23.1236Z" fill="#212121"/>
</svg>
