<svg width="32" height="32" viewBox="0 0 32 32" fill="none" xmlns="http://www.w3.org/2000/svg">
<circle cx="16" cy="16" r="14" transform="rotate(-180 16 16)" fill="url(#paint0_linear_4_2507)"/>
<rect x="14.9923" y="20.5469" width="4" height="2" rx="1" transform="rotate(45 14.9923 20.5469)" fill="url(#paint1_linear_4_2507)"/>
<path d="M9 14H11V25C11 25.5523 10.5523 26 10 26C9.44772 26 9 25.5523 9 25V14Z" fill="white"/>
<rect x="6" y="11.5864" width="7" height="2" rx="1" transform="rotate(-45 6 11.5864)" fill="white"/>
<rect x="6" y="16.2114" width="7" height="2" rx="1" transform="rotate(-45 6 16.2114)" fill="white"/>
<path fill-rule="evenodd" clip-rule="evenodd" d="M13 15C12.4477 15 12 15.4477 12 16C12 16.5523 12.4477 17 13 17H20V18H13C12.4477 18 12 18.4477 12 19C12 19.5523 12.4477 20 13 20H20V24H19C18.4477 24 18 24.4477 18 25C18 25.5523 18.4477 26 19 26H21C21.5523 26 22 25.5523 22 25V24V20H24C24.5523 20 25 19.5523 25 19C25 18.4477 24.5523 18 24 18H22V17H24C24.5523 17 25 16.5523 25 16C25 15.4477 24.5523 15 24 15H13Z" fill="url(#paint2_linear_4_2507)"/>
<path fill-rule="evenodd" clip-rule="evenodd" d="M14 6C13.4477 6 13 6.44772 13 7V13C13 13.5523 13.4477 14 14 14H15H21H22C22.5523 14 23 13.5523 23 13V7C23 6.44772 22.5523 6 22 6H21H15H14ZM21 12V11H15V12H21ZM21 9H15V8H21V9Z" fill="url(#paint3_linear_4_2507)"/>
<path d="M4.99512 29.0205H4.13672L3.09961 25.4111H3.89355L4.55859 28.2471H4.57031L5.28516 25.4111H6.09082L6.78516 28.209H6.79688L7.47656 25.4111H8.24707L7.18945 29.0205H6.36914L5.70996 26.3047H5.70117L4.99512 29.0205Z" fill="#FFC444"/>
<path d="M9.60352 29H8.85938V25.4111H9.60352V29Z" fill="#FFC444"/>
<path d="M10.5996 29V25.4111H12.0322C12.3057 25.4111 12.5439 25.459 12.7471 25.5547C12.9521 25.6504 13.1104 25.79 13.2217 25.9736C13.333 26.1572 13.3887 26.377 13.3887 26.6328C13.3887 26.8887 13.333 27.1084 13.2217 27.292C13.1104 27.4756 12.9521 27.6162 12.7471 27.7139C12.5439 27.8096 12.3057 27.8574 12.0322 27.8574H11.3467V29H10.5996ZM11.918 27.2598C12.1523 27.2598 12.332 27.209 12.457 27.1074C12.582 27.0039 12.6445 26.8457 12.6445 26.6328C12.6445 26.4199 12.582 26.2627 12.457 26.1611C12.332 26.0576 12.1523 26.0059 11.918 26.0059H11.3467V27.2598H11.918Z" fill="#FFC444"/>
<path d="M0 0V-2H-2V0H0ZM32 0H34V-2H32V0ZM32 32V34H34V32H32ZM0 32H-2V34H0V32ZM0 2H32V-2H0V2ZM30 0V32H34V0H30ZM32 30H0V34H32V30ZM2 32V0H-2V32H2Z" fill="#FFC444"/>
<defs>
<linearGradient id="paint0_linear_4_2507" x1="16" y1="2" x2="16" y2="30" gradientUnits="userSpaceOnUse">
<stop stop-color="#D52C38"/>
<stop offset="1" stop-color="#DF1F81"/>
</linearGradient>
<linearGradient id="paint1_linear_4_2507" x1="16.9923" y1="20.5469" x2="17.8321" y2="22.952" gradientUnits="userSpaceOnUse">
<stop stop-color="white"/>
<stop offset="1" stop-color="#F2DCF8"/>
</linearGradient>
<linearGradient id="paint2_linear_4_2507" x1="18.5" y1="15" x2="25" y2="26" gradientUnits="userSpaceOnUse">
<stop stop-color="white"/>
<stop offset="1" stop-color="#F2DCF8"/>
</linearGradient>
<linearGradient id="paint3_linear_4_2507" x1="18" y1="6" x2="25" y2="14" gradientUnits="userSpaceOnUse">
<stop stop-color="white"/>
<stop offset="1" stop-color="#F2DCF8"/>
</linearGradient>
</defs>
</svg>
