<svg width="32" height="32" viewBox="0 0 32 32" fill="none" xmlns="http://www.w3.org/2000/svg">
<path d="M15.971 15.4126C13.231 15.4126 10.671 16.4726 8.76099 18.2526V30.0026H23.141V18.2226C21.231 16.4526 18.691 15.4126 15.971 15.4126Z" fill="url(#paint0_radial_3987_24147)"/>
<path d="M15.971 15.4126C13.231 15.4126 10.671 16.4726 8.76099 18.2526V30.0026H23.141V18.2226C21.231 16.4526 18.691 15.4126 15.971 15.4126Z" fill="url(#paint1_linear_3987_24147)"/>
<path d="M15.971 15.4126C13.231 15.4126 10.671 16.4726 8.76099 18.2526V30.0026H23.141V18.2226C21.231 16.4526 18.691 15.4126 15.971 15.4126Z" fill="url(#paint2_linear_3987_24147)"/>
<path d="M15.971 15.4126C13.231 15.4126 10.671 16.4726 8.76099 18.2526V30.0026H23.141V18.2226C21.231 16.4526 18.691 15.4126 15.971 15.4126Z" fill="url(#paint3_linear_3987_24147)"/>
<path d="M15.971 15.4126C13.231 15.4126 10.671 16.4726 8.76099 18.2526V30.0026H23.141V18.2226C21.231 16.4526 18.691 15.4126 15.971 15.4126Z" fill="url(#paint4_radial_3987_24147)"/>
<path d="M15.971 15.4126C13.231 15.4126 10.671 16.4726 8.76099 18.2526V30.0026H23.141V18.2226C21.231 16.4526 18.691 15.4126 15.971 15.4126Z" fill="url(#paint5_radial_3987_24147)"/>
<path d="M15.971 15.4126C13.231 15.4126 10.671 16.4726 8.76099 18.2526V30.0026H23.141V18.2226C21.231 16.4526 18.691 15.4126 15.971 15.4126Z" fill="url(#paint6_radial_3987_24147)"/>
<path d="M16.34 15.4126C16.59 15.4226 16.85 15.4426 17.11 15.4626C16.85 15.4426 16.6 15.4226 16.34 15.4126Z" fill="url(#paint7_linear_3987_24147)"/>
<path d="M16.01 15.4126C16 15.4126 15.99 15.4126 15.97 15.4126C16.07 15.4126 16.16 15.4126 16.26 15.4226C16.18 15.4126 16.09 15.4126 16.01 15.4126Z" fill="url(#paint8_linear_3987_24147)"/>
<path d="M5.91094 22.7729L5.88094 22.8529C5.36094 24.5029 5.09094 26.2129 5.09094 27.9429V30.0029H8.76094V18.2529C7.47094 19.4629 6.47094 21.0029 5.91094 22.7729Z" fill="url(#paint9_radial_3987_24147)"/>
<path d="M5.91094 22.7729L5.88094 22.8529C5.36094 24.5029 5.09094 26.2129 5.09094 27.9429V30.0029H8.76094V18.2529C7.47094 19.4629 6.47094 21.0029 5.91094 22.7729Z" fill="url(#paint10_radial_3987_24147)"/>
<path d="M5.91094 22.7729L5.88094 22.8529C5.36094 24.5029 5.09094 26.2129 5.09094 27.9429V30.0029H8.76094V18.2529C7.47094 19.4629 6.47094 21.0029 5.91094 22.7729Z" fill="url(#paint11_linear_3987_24147)"/>
<path d="M26.811 27.9727C26.821 26.2227 26.561 24.4827 26.041 22.8127C25.481 21.0127 24.461 19.4427 23.141 18.2227V30.0027H26.791L26.811 27.9727Z" fill="url(#paint12_radial_3987_24147)"/>
<path d="M26.811 27.9727C26.821 26.2227 26.561 24.4827 26.041 22.8127C25.481 21.0127 24.461 19.4427 23.141 18.2227V30.0027H26.791L26.811 27.9727Z" fill="url(#paint13_radial_3987_24147)"/>
<path d="M26.811 27.9727C26.821 26.2227 26.561 24.4827 26.041 22.8127C25.481 21.0127 24.461 19.4427 23.141 18.2227V30.0027H26.791L26.811 27.9727Z" fill="url(#paint14_linear_3987_24147)"/>
<path d="M16.4776 22.5168C16.4776 22.4768 16.4676 22.3137 16.4776 22.2737L19.1399 15.9826C19.1499 15.9526 19.1699 15.9226 19.1799 15.9026C18.1699 15.5826 17.0999 15.4126 15.9999 15.4126C14.8899 15.4126 13.8099 15.5926 12.7899 15.9126C12.7999 15.9326 12.8199 15.9626 12.8299 15.9826L15.4698 22.344C15.4798 22.374 15.5244 22.3938 15.5244 22.4338L15.5799 26.0326H15.5899V30.0026H16.3799V26.0326L16.458 22.6174L16.4776 22.5168Z" fill="url(#paint15_radial_3987_24147)"/>
<path d="M16.4776 22.5168C16.4776 22.4768 16.4676 22.3137 16.4776 22.2737L19.1399 15.9826C19.1499 15.9526 19.1699 15.9226 19.1799 15.9026C18.1699 15.5826 17.0999 15.4126 15.9999 15.4126C14.8899 15.4126 13.8099 15.5926 12.7899 15.9126C12.7999 15.9326 12.8199 15.9626 12.8299 15.9826L15.4698 22.344C15.4798 22.374 15.5244 22.3938 15.5244 22.4338L15.5799 26.0326H15.5899V30.0026H16.3799V26.0326L16.458 22.6174L16.4776 22.5168Z" fill="url(#paint16_radial_3987_24147)"/>
<path d="M16.34 15.4126C16.59 15.4226 16.85 15.4426 17.11 15.4626C16.85 15.4426 16.6 15.4226 16.34 15.4126Z" fill="url(#paint17_linear_3987_24147)"/>
<path d="M16.01 15.4126C16 15.4126 15.99 15.4126 15.97 15.4126C16.07 15.4126 16.16 15.4126 16.26 15.4226C16.18 15.4126 16.09 15.4126 16.01 15.4126Z" fill="url(#paint18_linear_3987_24147)"/>
<g filter="url(#filter0_f_3987_24147)">
<path d="M10.1915 20.1572L10.924 20.287C11.0908 20.3148 11.1557 20.5188 11.0445 20.6393L10.3398 21.4089C10.2656 21.4923 10.2656 21.6222 10.3491 21.7056L14.8552 26.3044C14.9665 26.4157 15.1612 26.3415 15.1612 26.1839V22.8553C15.1612 22.8182 15.1519 22.7904 15.1426 22.7533L12.6022 16.8657C12.5929 16.8379 12.5836 16.8193 12.5651 16.8008C11.7213 17.0697 10.924 17.4498 10.2007 17.9227L10.0153 19.9254C10.006 20.0367 10.0802 20.1387 10.1915 20.1572Z" fill="#A49EA5"/>
</g>
<g filter="url(#filter1_f_3987_24147)">
<path d="M21.8784 20.1572L21.1459 20.287C20.979 20.3148 20.9141 20.5188 21.0253 20.6393L21.73 21.4089C21.8042 21.4923 21.8042 21.6222 21.7207 21.7056L17.2146 26.3044C17.1033 26.4157 16.9086 26.3415 16.9086 26.1839V22.8553C16.9086 22.8182 16.9179 22.7904 16.9272 22.7533L19.4677 16.8657C19.4769 16.8379 19.4862 16.8193 19.5048 16.8008C20.3485 17.0697 21.1459 17.4498 21.8691 17.9227L22.0545 19.9254C22.0638 20.0367 21.9896 20.1387 21.8784 20.1572Z" fill="url(#paint19_linear_3987_24147)"/>
</g>
<path d="M16.6344 21.694C16.3722 22.2096 16.3722 22.6354 16.3722 22.9996V25.9908C16.3722 26.1608 16.5804 26.2508 16.6993 26.1208L21.5173 21.1608C21.6065 21.0708 21.6065 20.9308 21.5272 20.8408L20.7738 20.0108C20.6548 19.8808 20.7242 19.6608 20.9027 19.6308L21.6858 19.4908C21.8048 19.4708 21.8841 19.3608 21.8742 19.2408L21.6869 17.1815C21.68 17.1053 21.6386 17.0363 21.574 16.9953C20.8197 16.5164 20.0111 16.1383 19.148 15.8608C19.1281 15.8908 19.1182 15.9108 19.1083 15.9408L16.6344 21.694Z" fill="url(#paint20_linear_3987_24147)"/>
<path d="M16.6344 21.694C16.3722 22.2096 16.3722 22.6354 16.3722 22.9996V25.9908C16.3722 26.1608 16.5804 26.2508 16.6993 26.1208L21.5173 21.1608C21.6065 21.0708 21.6065 20.9308 21.5272 20.8408L20.7738 20.0108C20.6548 19.8808 20.7242 19.6608 20.9027 19.6308L21.6858 19.4908C21.8048 19.4708 21.8841 19.3608 21.8742 19.2408L21.6869 17.1815C21.68 17.1053 21.6386 17.0363 21.574 16.9953C20.8197 16.5164 20.0111 16.1383 19.148 15.8608C19.1281 15.8908 19.1182 15.9108 19.1083 15.9408L16.6344 21.694Z" fill="url(#paint21_linear_3987_24147)"/>
<path d="M16.6344 21.694C16.3722 22.2096 16.3722 22.6354 16.3722 22.9996V25.9908C16.3722 26.1608 16.5804 26.2508 16.6993 26.1208L21.5173 21.1608C21.6065 21.0708 21.6065 20.9308 21.5272 20.8408L20.7738 20.0108C20.6548 19.8808 20.7242 19.6608 20.9027 19.6308L21.6858 19.4908C21.8048 19.4708 21.8841 19.3608 21.8742 19.2408L21.6869 17.1815C21.68 17.1053 21.6386 17.0363 21.574 16.9953C20.8197 16.5164 20.0111 16.1383 19.148 15.8608C19.1281 15.8908 19.1182 15.9108 19.1083 15.9408L16.6344 21.694Z" fill="url(#paint22_linear_3987_24147)"/>
<path d="M16.6344 21.694C16.3722 22.2096 16.3722 22.6354 16.3722 22.9996V25.9908C16.3722 26.1608 16.5804 26.2508 16.6993 26.1208L21.5173 21.1608C21.6065 21.0708 21.6065 20.9308 21.5272 20.8408L20.7738 20.0108C20.6548 19.8808 20.7242 19.6608 20.9027 19.6308L21.6858 19.4908C21.8048 19.4708 21.8841 19.3608 21.8742 19.2408L21.6869 17.1815C21.68 17.1053 21.6386 17.0363 21.574 16.9953C20.8197 16.5164 20.0111 16.1383 19.148 15.8608C19.1281 15.8908 19.1182 15.9108 19.1083 15.9408L16.6344 21.694Z" fill="url(#paint23_radial_3987_24147)"/>
<path d="M16.6344 21.694C16.3722 22.2096 16.3722 22.6354 16.3722 22.9996V25.9908C16.3722 26.1608 16.5804 26.2508 16.6993 26.1208L21.5173 21.1608C21.6065 21.0708 21.6065 20.9308 21.5272 20.8408L20.7738 20.0108C20.6548 19.8808 20.7242 19.6608 20.9027 19.6308L21.6858 19.4908C21.8048 19.4708 21.8841 19.3608 21.8742 19.2408L21.6869 17.1815C21.68 17.1053 21.6386 17.0363 21.574 16.9953C20.8197 16.5164 20.0111 16.1383 19.148 15.8608C19.1281 15.8908 19.1182 15.9108 19.1083 15.9408L16.6344 21.694Z" fill="url(#paint24_radial_3987_24147)"/>
<path d="M16.6344 21.694C16.3722 22.2096 16.3722 22.6354 16.3722 22.9996V25.9908C16.3722 26.1608 16.5804 26.2508 16.6993 26.1208L21.5173 21.1608C21.6065 21.0708 21.6065 20.9308 21.5272 20.8408L20.7738 20.0108C20.6548 19.8808 20.7242 19.6608 20.9027 19.6308L21.6858 19.4908C21.8048 19.4708 21.8841 19.3608 21.8742 19.2408L21.6869 17.1815C21.68 17.1053 21.6386 17.0363 21.574 16.9953C20.8197 16.5164 20.0111 16.1383 19.148 15.8608C19.1281 15.8908 19.1182 15.9108 19.1083 15.9408L16.6344 21.694Z" fill="url(#paint25_radial_3987_24147)"/>
<path d="M15.3552 21.694C15.6174 22.2096 15.6174 22.6354 15.6174 22.9996V25.9908C15.6174 26.1608 15.4092 26.2508 15.2903 26.1208L10.4723 21.1608C10.3831 21.0708 10.3831 20.9308 10.4624 20.8408L11.2158 20.0108C11.3348 19.8808 11.2654 19.6608 11.087 19.6308L10.3038 19.4908C10.1848 19.4708 10.1055 19.3608 10.1154 19.2408L10.3027 17.1815C10.3097 17.1053 10.351 17.0363 10.4157 16.9953C11.1699 16.5164 11.9785 16.1383 12.8416 15.8608C12.8615 15.8908 12.8714 15.9108 12.8813 15.9408L15.3552 21.694Z" fill="url(#paint26_radial_3987_24147)"/>
<path d="M15.3552 21.694C15.6174 22.2096 15.6174 22.6354 15.6174 22.9996V25.9908C15.6174 26.1608 15.4092 26.2508 15.2903 26.1208L10.4723 21.1608C10.3831 21.0708 10.3831 20.9308 10.4624 20.8408L11.2158 20.0108C11.3348 19.8808 11.2654 19.6608 11.087 19.6308L10.3038 19.4908C10.1848 19.4708 10.1055 19.3608 10.1154 19.2408L10.3027 17.1815C10.3097 17.1053 10.351 17.0363 10.4157 16.9953C11.1699 16.5164 11.9785 16.1383 12.8416 15.8608C12.8615 15.8908 12.8714 15.9108 12.8813 15.9408L15.3552 21.694Z" fill="url(#paint27_radial_3987_24147)"/>
<path d="M15.3552 21.694C15.6174 22.2096 15.6174 22.6354 15.6174 22.9996V25.9908C15.6174 26.1608 15.4092 26.2508 15.2903 26.1208L10.4723 21.1608C10.3831 21.0708 10.3831 20.9308 10.4624 20.8408L11.2158 20.0108C11.3348 19.8808 11.2654 19.6608 11.087 19.6308L10.3038 19.4908C10.1848 19.4708 10.1055 19.3608 10.1154 19.2408L10.3027 17.1815C10.3097 17.1053 10.351 17.0363 10.4157 16.9953C11.1699 16.5164 11.9785 16.1383 12.8416 15.8608C12.8615 15.8908 12.8714 15.9108 12.8813 15.9408L15.3552 21.694Z" fill="url(#paint28_linear_3987_24147)"/>
<path d="M15.3552 21.694C15.6174 22.2096 15.6174 22.6354 15.6174 22.9996V25.9908C15.6174 26.1608 15.4092 26.2508 15.2903 26.1208L10.4723 21.1608C10.3831 21.0708 10.3831 20.9308 10.4624 20.8408L11.2158 20.0108C11.3348 19.8808 11.2654 19.6608 11.087 19.6308L10.3038 19.4908C10.1848 19.4708 10.1055 19.3608 10.1154 19.2408L10.3027 17.1815C10.3097 17.1053 10.351 17.0363 10.4157 16.9953C11.1699 16.5164 11.9785 16.1383 12.8416 15.8608C12.8615 15.8908 12.8714 15.9108 12.8813 15.9408L15.3552 21.694Z" fill="url(#paint29_radial_3987_24147)"/>
<path d="M15.3552 21.694C15.6174 22.2096 15.6174 22.6354 15.6174 22.9996V25.9908C15.6174 26.1608 15.4092 26.2508 15.2903 26.1208L10.4723 21.1608C10.3831 21.0708 10.3831 20.9308 10.4624 20.8408L11.2158 20.0108C11.3348 19.8808 11.2654 19.6608 11.087 19.6308L10.3038 19.4908C10.1848 19.4708 10.1055 19.3608 10.1154 19.2408L10.3027 17.1815C10.3097 17.1053 10.351 17.0363 10.4157 16.9953C11.1699 16.5164 11.9785 16.1383 12.8416 15.8608C12.8615 15.8908 12.8714 15.9108 12.8813 15.9408L15.3552 21.694Z" fill="url(#paint30_radial_3987_24147)"/>
<path d="M15.3552 21.694C15.6174 22.2096 15.6174 22.6354 15.6174 22.9996V25.9908C15.6174 26.1608 15.4092 26.2508 15.2903 26.1208L10.4723 21.1608C10.3831 21.0708 10.3831 20.9308 10.4624 20.8408L11.2158 20.0108C11.3348 19.8808 11.2654 19.6608 11.087 19.6308L10.3038 19.4908C10.1848 19.4708 10.1055 19.3608 10.1154 19.2408L10.3027 17.1815C10.3097 17.1053 10.351 17.0363 10.4157 16.9953C11.1699 16.5164 11.9785 16.1383 12.8416 15.8608C12.8615 15.8908 12.8714 15.9108 12.8813 15.9408L15.3552 21.694Z" fill="url(#paint31_radial_3987_24147)"/>
<path d="M15.97 18.7227C14.81 18.7227 13.87 17.7827 13.87 16.6227V15.2427H18.07V16.6227C18.07 17.7827 17.13 18.7227 15.97 18.7227Z" fill="url(#paint32_radial_3987_24147)"/>
<path fill-rule="evenodd" clip-rule="evenodd" d="M15.9199 15.1233C14.1309 15.1233 12.6805 16.5736 12.6805 18.3627V20.5127H11.6993V18.3627C11.6993 16.0317 13.589 14.1421 15.9199 14.1421C18.2509 14.1421 20.1405 16.0317 20.1405 18.3627V25.4827H19.1593V18.3627C19.1593 16.5736 17.709 15.1233 15.9199 15.1233Z" fill="#534675"/>
<path fill-rule="evenodd" clip-rule="evenodd" d="M15.9199 15.1233C14.1309 15.1233 12.6805 16.5736 12.6805 18.3627V20.5127H11.6993V18.3627C11.6993 16.0317 13.589 14.1421 15.9199 14.1421C18.2509 14.1421 20.1405 16.0317 20.1405 18.3627V25.4827H19.1593V18.3627C19.1593 16.5736 17.709 15.1233 15.9199 15.1233Z" fill="url(#paint33_linear_3987_24147)"/>
<path fill-rule="evenodd" clip-rule="evenodd" d="M15.9199 15.1233C14.1309 15.1233 12.6805 16.5736 12.6805 18.3627V20.5127H11.6993V18.3627C11.6993 16.0317 13.589 14.1421 15.9199 14.1421C18.2509 14.1421 20.1405 16.0317 20.1405 18.3627V25.4827H19.1593V18.3627C19.1593 16.5736 17.709 15.1233 15.9199 15.1233Z" fill="url(#paint34_radial_3987_24147)"/>
<path fill-rule="evenodd" clip-rule="evenodd" d="M15.9199 15.1233C14.1309 15.1233 12.6805 16.5736 12.6805 18.3627V20.5127H11.6993V18.3627C11.6993 16.0317 13.589 14.1421 15.9199 14.1421C18.2509 14.1421 20.1405 16.0317 20.1405 18.3627V25.4827H19.1593V18.3627C19.1593 16.5736 17.709 15.1233 15.9199 15.1233Z" fill="url(#paint35_radial_3987_24147)"/>
<path fill-rule="evenodd" clip-rule="evenodd" d="M15.9199 15.1233C14.1309 15.1233 12.6805 16.5736 12.6805 18.3627V20.5127H11.6993V18.3627C11.6993 16.0317 13.589 14.1421 15.9199 14.1421C18.2509 14.1421 20.1405 16.0317 20.1405 18.3627V25.4827H19.1593V18.3627C19.1593 16.5736 17.709 15.1233 15.9199 15.1233Z" fill="url(#paint36_radial_3987_24147)"/>
<g filter="url(#filter2_f_3987_24147)">
<path d="M18.8294 26.9615C19.4365 26.9615 19.9287 26.4693 19.9287 25.8621C19.9287 25.2549 19.4365 24.7627 18.8294 24.7627C18.2222 24.7627 17.73 25.2549 17.73 25.8621C17.73 26.4693 18.2222 26.9615 18.8294 26.9615Z" fill="#AFA3C5"/>
</g>
<path d="M19.6599 26.7329C20.3558 26.7329 20.9199 26.1688 20.9199 25.4729C20.9199 24.777 20.3558 24.2129 19.6599 24.2129C18.964 24.2129 18.3999 24.777 18.3999 25.4729C18.3999 26.1688 18.964 26.7329 19.6599 26.7329Z" fill="url(#paint37_radial_3987_24147)"/>
<g filter="url(#filter3_i_3987_24147)">
<path d="M19.66 26.1827C20.0521 26.1827 20.37 25.8648 20.37 25.4727C20.37 25.0806 20.0521 24.7627 19.66 24.7627C19.2678 24.7627 18.95 25.0806 18.95 25.4727C18.95 25.8648 19.2678 26.1827 19.66 26.1827Z" fill="url(#paint38_radial_3987_24147)"/>
</g>
<g filter="url(#filter4_i_3987_24147)">
<path fill-rule="evenodd" clip-rule="evenodd" d="M12.19 20.8635C11.2495 20.8635 10.4806 21.6253 10.4806 22.5729V25.8723H11.15C11.4209 25.8723 11.6406 26.092 11.6406 26.3629C11.6406 26.6339 11.4209 26.8535 11.15 26.8535H10.15C9.78904 26.8535 9.49939 26.5639 9.49939 26.2029V22.5729C9.49939 21.0805 10.7105 19.8823 12.19 19.8823C13.6824 19.8823 14.8806 21.0934 14.8806 22.5729V26.2029C14.8806 26.5639 14.5909 26.8535 14.23 26.8535H13.3C13.029 26.8535 12.8094 26.6339 12.8094 26.3629C12.8094 26.092 13.029 25.8723 13.3 25.8723H13.8994V22.5729C13.8994 21.6324 13.1376 20.8635 12.19 20.8635Z" fill="url(#paint39_linear_3987_24147)"/>
</g>
<g filter="url(#filter5_f_3987_24147)">
<path d="M11.1754 26.2962H10.1754C10.0854 26.2962 10.0154 26.2262 10.0154 26.1362V22.5062C10.0154 21.2862 11.0054 20.3062 12.2154 20.3062C13.4354 20.3062 14.4154 21.2962 14.4154 22.5062V26.1362C14.4154 26.2262 14.3454 26.2962 14.2554 26.2962H13.3254" stroke="#6A5D85" stroke-width="0.3" stroke-miterlimit="10" stroke-linecap="round" stroke-linejoin="round"/>
</g>
<path fill-rule="evenodd" clip-rule="evenodd" d="M9.49939 26.1927V23.7227H10.4806V25.8621H10.73V26.8433H10.15C9.78904 26.8433 9.49939 26.5536 9.49939 26.1927Z" fill="url(#paint40_linear_3987_24147)"/>
<path fill-rule="evenodd" clip-rule="evenodd" d="M9.49939 26.1927V23.7227H10.4806V25.8621H10.73V26.8433H10.15C9.78904 26.8433 9.49939 26.5536 9.49939 26.1927Z" fill="url(#paint41_radial_3987_24147)"/>
<path fill-rule="evenodd" clip-rule="evenodd" d="M14.8805 23.7329V26.2029C14.8805 26.5639 14.5909 26.8535 14.2299 26.8535H13.6499V25.8723H13.8993V23.7329H14.8805Z" fill="url(#paint42_linear_3987_24147)"/>
<path fill-rule="evenodd" clip-rule="evenodd" d="M14.8805 23.7329V26.2029C14.8805 26.5639 14.5909 26.8535 14.2299 26.8535H13.6499V25.8723H13.8993V23.7329H14.8805Z" fill="url(#paint43_linear_3987_24147)"/>
<path d="M20.8463 12.2016C21.1815 12.1908 21.4954 12.0771 21.7509 11.8931V12.8241C21.7509 13.7172 21.2187 14.5129 20.4099 14.8431C20.5802 14.4804 20.6973 14.0853 20.7558 13.6631L20.8463 12.2016Z" fill="url(#paint44_radial_3987_24147)"/>
<path d="M11.1236 12.2016C10.7883 12.1908 10.4744 12.0771 10.219 11.8931V12.8241C10.219 13.7172 10.7511 14.5129 11.5599 14.8431C11.3896 14.4804 11.2726 14.0853 11.214 13.6631L11.1236 12.2016Z" fill="url(#paint45_radial_3987_24147)"/>
<g filter="url(#filter6_ii_3987_24147)">
<path d="M11.1599 13.717C11.4172 15.6694 13.0786 17.1229 15.0456 17.1229H16.9322C18.8992 17.1229 20.5606 15.6694 20.8179 13.717C20.9359 11.8333 21.0545 9.95722 21.142 8.07451C21.1314 7.30751 20.5268 6.67461 19.763 6.64243H18.3628C17.4082 6.64243 16.5436 6.07925 16.1512 5.19961C16.0504 4.94752 15.8064 4.78125 15.5359 4.78125H14.263C12.4173 4.78125 10.9216 6.29379 10.9216 8.16033C10.9216 10.021 11.0379 11.8516 11.1599 13.717Z" fill="url(#paint46_radial_3987_24147)"/>
<path d="M11.1599 13.717C11.4172 15.6694 13.0786 17.1229 15.0456 17.1229H16.9322C18.8992 17.1229 20.5606 15.6694 20.8179 13.717C20.9359 11.8333 21.0545 9.95722 21.142 8.07451C21.1314 7.30751 20.5268 6.67461 19.763 6.64243H18.3628C17.4082 6.64243 16.5436 6.07925 16.1512 5.19961C16.0504 4.94752 15.8064 4.78125 15.5359 4.78125H14.263C12.4173 4.78125 10.9216 6.29379 10.9216 8.16033C10.9216 10.021 11.0379 11.8516 11.1599 13.717Z" fill="url(#paint47_radial_3987_24147)"/>
</g>
<path d="M11.1599 13.717C11.4172 15.6694 13.0786 17.1229 15.0456 17.1229H16.9322C18.8992 17.1229 20.5606 15.6694 20.8179 13.717C20.9359 11.8333 21.0545 9.95722 21.142 8.07451C21.1314 7.30751 20.5268 6.67461 19.763 6.64243H18.3628C17.4082 6.64243 16.5436 6.07925 16.1512 5.19961C16.0504 4.94752 15.8064 4.78125 15.5359 4.78125H14.263C12.4173 4.78125 10.9216 6.29379 10.9216 8.16033C10.9216 10.021 11.0379 11.8516 11.1599 13.717Z" fill="url(#paint48_linear_3987_24147)"/>
<path d="M11.1599 13.717C11.4172 15.6694 13.0786 17.1229 15.0456 17.1229H16.9322C18.8992 17.1229 20.5606 15.6694 20.8179 13.717C20.9359 11.8333 21.0545 9.95722 21.142 8.07451C21.1314 7.30751 20.5268 6.67461 19.763 6.64243H18.3628C17.4082 6.64243 16.5436 6.07925 16.1512 5.19961C16.0504 4.94752 15.8064 4.78125 15.5359 4.78125H14.263C12.4173 4.78125 10.9216 6.29379 10.9216 8.16033C10.9216 10.021 11.0379 11.8516 11.1599 13.717Z" fill="url(#paint49_radial_3987_24147)"/>
<path d="M11.1599 13.717C11.4172 15.6694 13.0786 17.1229 15.0456 17.1229H16.9322C18.8992 17.1229 20.5606 15.6694 20.8179 13.717C20.9359 11.8333 21.0545 9.95722 21.142 8.07451C21.1314 7.30751 20.5268 6.67461 19.763 6.64243H18.3628C17.4082 6.64243 16.5436 6.07925 16.1512 5.19961C16.0504 4.94752 15.8064 4.78125 15.5359 4.78125H14.263C12.4173 4.78125 10.9216 6.29379 10.9216 8.16033C10.9216 10.021 11.0379 11.8516 11.1599 13.717Z" fill="url(#paint50_radial_3987_24147)"/>
<path d="M11.1599 13.717C11.4172 15.6694 13.0786 17.1229 15.0456 17.1229H16.9322C18.8992 17.1229 20.5606 15.6694 20.8179 13.717C20.9359 11.8333 21.0545 9.95722 21.142 8.07451C21.1314 7.30751 20.5268 6.67461 19.763 6.64243H18.3628C17.4082 6.64243 16.5436 6.07925 16.1512 5.19961C16.0504 4.94752 15.8064 4.78125 15.5359 4.78125H14.263C12.4173 4.78125 10.9216 6.29379 10.9216 8.16033C10.9216 10.021 11.0379 11.8516 11.1599 13.717Z" fill="url(#paint51_radial_3987_24147)"/>
<path d="M11.1599 13.717C11.4172 15.6694 13.0786 17.1229 15.0456 17.1229H16.9322C18.8992 17.1229 20.5606 15.6694 20.8179 13.717C20.9359 11.8333 21.0545 9.95722 21.142 8.07451C21.1314 7.30751 20.5268 6.67461 19.763 6.64243H18.3628C17.4082 6.64243 16.5436 6.07925 16.1512 5.19961C16.0504 4.94752 15.8064 4.78125 15.5359 4.78125H14.263C12.4173 4.78125 10.9216 6.29379 10.9216 8.16033C10.9216 10.021 11.0379 11.8516 11.1599 13.717Z" fill="url(#paint52_radial_3987_24147)"/>
<path d="M11.1599 13.717C11.4172 15.6694 13.0786 17.1229 15.0456 17.1229H16.9322C18.8992 17.1229 20.5606 15.6694 20.8179 13.717C20.9359 11.8333 21.0545 9.95722 21.142 8.07451C21.1314 7.30751 20.5268 6.67461 19.763 6.64243H18.3628C17.4082 6.64243 16.5436 6.07925 16.1512 5.19961C16.0504 4.94752 15.8064 4.78125 15.5359 4.78125H14.263C12.4173 4.78125 10.9216 6.29379 10.9216 8.16033C10.9216 10.021 11.0379 11.8516 11.1599 13.717Z" fill="url(#paint53_radial_3987_24147)"/>
<path d="M11.1599 13.717C11.4172 15.6694 13.0786 17.1229 15.0456 17.1229H16.9322C18.8992 17.1229 20.5606 15.6694 20.8179 13.717C20.9359 11.8333 21.0545 9.95722 21.142 8.07451C21.1314 7.30751 20.5268 6.67461 19.763 6.64243H18.3628C17.4082 6.64243 16.5436 6.07925 16.1512 5.19961C16.0504 4.94752 15.8064 4.78125 15.5359 4.78125H14.263C12.4173 4.78125 10.9216 6.29379 10.9216 8.16033C10.9216 10.021 11.0379 11.8516 11.1599 13.717Z" fill="url(#paint54_radial_3987_24147)"/>
<g filter="url(#filter7_f_3987_24147)">
<path d="M15.5835 10.4329L14.9927 12.2712C14.8918 12.6494 15.134 13.0275 15.4771 13.0275H16.2088C16.552 13.0275 16.7942 12.6435 16.6932 12.2712L16.1987 10.4329C16.0928 10.0256 15.6945 10.0256 15.5835 10.4329Z" fill="#6F3F46"/>
</g>
<g filter="url(#filter8_f_3987_24147)">
<path d="M15.6026 10.2371L15.0711 12.0754C14.9626 12.4536 15.2229 12.8317 15.5917 12.8317H16.3781C16.7469 12.8317 17.0072 12.4477 16.8987 12.0754L16.3672 10.2371C16.2533 9.82983 15.7219 9.82983 15.6026 10.2371Z" fill="#845B55"/>
<path d="M15.6026 10.2371L15.0711 12.0754C14.9626 12.4536 15.2229 12.8317 15.5917 12.8317H16.3781C16.7469 12.8317 17.0072 12.4477 16.8987 12.0754L16.3672 10.2371C16.2533 9.82983 15.7219 9.82983 15.6026 10.2371Z" fill="url(#paint55_linear_3987_24147)"/>
<path d="M15.6026 10.2371L15.0711 12.0754C14.9626 12.4536 15.2229 12.8317 15.5917 12.8317H16.3781C16.7469 12.8317 17.0072 12.4477 16.8987 12.0754L16.3672 10.2371C16.2533 9.82983 15.7219 9.82983 15.6026 10.2371Z" fill="url(#paint56_radial_3987_24147)"/>
<path d="M15.6026 10.2371L15.0711 12.0754C14.9626 12.4536 15.2229 12.8317 15.5917 12.8317H16.3781C16.7469 12.8317 17.0072 12.4477 16.8987 12.0754L16.3672 10.2371C16.2533 9.82983 15.7219 9.82983 15.6026 10.2371Z" fill="url(#paint57_linear_3987_24147)"/>
<path d="M15.6026 10.2371L15.0711 12.0754C14.9626 12.4536 15.2229 12.8317 15.5917 12.8317H16.3781C16.7469 12.8317 17.0072 12.4477 16.8987 12.0754L16.3672 10.2371C16.2533 9.82983 15.7219 9.82983 15.6026 10.2371Z" fill="url(#paint58_radial_3987_24147)"/>
<path d="M15.6026 10.2371L15.0711 12.0754C14.9626 12.4536 15.2229 12.8317 15.5917 12.8317H16.3781C16.7469 12.8317 17.0072 12.4477 16.8987 12.0754L16.3672 10.2371C16.2533 9.82983 15.7219 9.82983 15.6026 10.2371Z" fill="url(#paint59_linear_3987_24147)"/>
</g>
<path d="M15.6026 10.2371L15.0711 12.0754C14.9626 12.4536 15.2229 12.8317 15.5917 12.8317H16.3781C16.7469 12.8317 17.0072 12.4477 16.8987 12.0754L16.3672 10.2371C16.2533 9.82983 15.7219 9.82983 15.6026 10.2371Z" fill="url(#paint60_linear_3987_24147)"/>
<path d="M15.6026 10.2371L15.0711 12.0754C14.9626 12.4536 15.2229 12.8317 15.5917 12.8317H16.3781C16.7469 12.8317 17.0072 12.4477 16.8987 12.0754L16.3672 10.2371C16.2533 9.82983 15.7219 9.82983 15.6026 10.2371Z" fill="url(#paint61_radial_3987_24147)"/>
<g filter="url(#filter9_f_3987_24147)">
<path d="M14.6342 13.4537L14.6342 13.4537L14.6335 13.4533C14.5316 13.4015 14.4253 13.434 14.3624 13.5003C14.2992 13.5668 14.2734 13.6752 14.3394 13.7712C14.6879 14.2988 15.2945 14.6502 15.9849 14.6502C16.6756 14.6502 17.2824 14.2986 17.6308 13.7706C17.6956 13.6733 17.6717 13.5651 17.6071 13.498C17.5434 13.4319 17.4372 13.4021 17.3364 13.4533L17.3364 13.4533L17.3357 13.4537C16.9458 13.6569 16.4858 13.7736 15.9849 13.7736C15.4891 13.7736 15.024 13.6569 14.6342 13.4537Z" stroke="url(#paint62_linear_3987_24147)" stroke-width="0.15"/>
</g>
<path d="M15.9849 13.8486C15.4775 13.8486 15.0004 13.7292 14.5995 13.5202C14.4625 13.4505 14.3153 13.6048 14.4016 13.7292C14.7365 14.2368 15.3201 14.5752 15.9849 14.5752C16.6497 14.5752 17.2334 14.2368 17.5683 13.7292C17.6546 13.5998 17.5074 13.4505 17.3704 13.5202C16.9695 13.7292 16.4975 13.8486 15.9849 13.8486Z" fill="url(#paint63_radial_3987_24147)"/>
<g filter="url(#filter10_ii_3987_24147)">
<path d="M20.8398 4.30894C21.3543 4.48594 21.8157 4.8453 22.1074 5.36021C22.5741 6.18085 22.5052 7.16239 22.0013 7.88648C21.8263 8.14393 21.7308 8.44966 21.7308 8.76075V9.94879C21.5438 9.81849 21.297 9.72189 21.0636 9.68061L21.1421 8.0742C21.1315 7.30721 20.5269 6.6743 19.7631 6.64212H18.3629C17.4082 6.64212 16.5437 6.07894 16.1512 5.1993C16.0505 4.94721 15.8065 4.78094 15.536 4.78094H14.2631C12.4174 4.78094 10.9217 6.29348 10.9217 8.16002L10.9523 9.69737C10.6984 9.73469 10.4331 9.81959 10.2322 9.96104V8.76075C10.2322 8.44966 10.1367 8.14393 9.96172 7.88648C9.48438 7.18384 9.39952 6.23985 9.81852 5.44067C10.1102 4.88821 10.5823 4.50203 11.1179 4.3143C11.6908 4.11049 12.1787 3.72431 12.5022 3.20403C12.9159 2.54431 13.6426 2.10449 14.4752 2.10449C14.7988 2.10449 15.1064 2.17422 15.3928 2.29222C15.7747 2.45849 16.2043 2.45849 16.5862 2.29222C16.8673 2.17422 17.1749 2.10449 17.4984 2.10449C18.3417 2.10449 19.0789 2.5604 19.4873 3.23622C19.7949 3.74576 20.2776 4.11585 20.8398 4.30894Z" fill="url(#paint64_linear_3987_24147)"/>
<path d="M20.8398 4.30894C21.3543 4.48594 21.8157 4.8453 22.1074 5.36021C22.5741 6.18085 22.5052 7.16239 22.0013 7.88648C21.8263 8.14393 21.7308 8.44966 21.7308 8.76075V9.94879C21.5438 9.81849 21.297 9.72189 21.0636 9.68061L21.1421 8.0742C21.1315 7.30721 20.5269 6.6743 19.7631 6.64212H18.3629C17.4082 6.64212 16.5437 6.07894 16.1512 5.1993C16.0505 4.94721 15.8065 4.78094 15.536 4.78094H14.2631C12.4174 4.78094 10.9217 6.29348 10.9217 8.16002L10.9523 9.69737C10.6984 9.73469 10.4331 9.81959 10.2322 9.96104V8.76075C10.2322 8.44966 10.1367 8.14393 9.96172 7.88648C9.48438 7.18384 9.39952 6.23985 9.81852 5.44067C10.1102 4.88821 10.5823 4.50203 11.1179 4.3143C11.6908 4.11049 12.1787 3.72431 12.5022 3.20403C12.9159 2.54431 13.6426 2.10449 14.4752 2.10449C14.7988 2.10449 15.1064 2.17422 15.3928 2.29222C15.7747 2.45849 16.2043 2.45849 16.5862 2.29222C16.8673 2.17422 17.1749 2.10449 17.4984 2.10449C18.3417 2.10449 19.0789 2.5604 19.4873 3.23622C19.7949 3.74576 20.2776 4.11585 20.8398 4.30894Z" fill="url(#paint65_radial_3987_24147)"/>
<path d="M20.8398 4.30894C21.3543 4.48594 21.8157 4.8453 22.1074 5.36021C22.5741 6.18085 22.5052 7.16239 22.0013 7.88648C21.8263 8.14393 21.7308 8.44966 21.7308 8.76075V9.94879C21.5438 9.81849 21.297 9.72189 21.0636 9.68061L21.1421 8.0742C21.1315 7.30721 20.5269 6.6743 19.7631 6.64212H18.3629C17.4082 6.64212 16.5437 6.07894 16.1512 5.1993C16.0505 4.94721 15.8065 4.78094 15.536 4.78094H14.2631C12.4174 4.78094 10.9217 6.29348 10.9217 8.16002L10.9523 9.69737C10.6984 9.73469 10.4331 9.81959 10.2322 9.96104V8.76075C10.2322 8.44966 10.1367 8.14393 9.96172 7.88648C9.48438 7.18384 9.39952 6.23985 9.81852 5.44067C10.1102 4.88821 10.5823 4.50203 11.1179 4.3143C11.6908 4.11049 12.1787 3.72431 12.5022 3.20403C12.9159 2.54431 13.6426 2.10449 14.4752 2.10449C14.7988 2.10449 15.1064 2.17422 15.3928 2.29222C15.7747 2.45849 16.2043 2.45849 16.5862 2.29222C16.8673 2.17422 17.1749 2.10449 17.4984 2.10449C18.3417 2.10449 19.0789 2.5604 19.4873 3.23622C19.7949 3.74576 20.2776 4.11585 20.8398 4.30894Z" fill="url(#paint66_radial_3987_24147)"/>
<path d="M20.8398 4.30894C21.3543 4.48594 21.8157 4.8453 22.1074 5.36021C22.5741 6.18085 22.5052 7.16239 22.0013 7.88648C21.8263 8.14393 21.7308 8.44966 21.7308 8.76075V9.94879C21.5438 9.81849 21.297 9.72189 21.0636 9.68061L21.1421 8.0742C21.1315 7.30721 20.5269 6.6743 19.7631 6.64212H18.3629C17.4082 6.64212 16.5437 6.07894 16.1512 5.1993C16.0505 4.94721 15.8065 4.78094 15.536 4.78094H14.2631C12.4174 4.78094 10.9217 6.29348 10.9217 8.16002L10.9523 9.69737C10.6984 9.73469 10.4331 9.81959 10.2322 9.96104V8.76075C10.2322 8.44966 10.1367 8.14393 9.96172 7.88648C9.48438 7.18384 9.39952 6.23985 9.81852 5.44067C10.1102 4.88821 10.5823 4.50203 11.1179 4.3143C11.6908 4.11049 12.1787 3.72431 12.5022 3.20403C12.9159 2.54431 13.6426 2.10449 14.4752 2.10449C14.7988 2.10449 15.1064 2.17422 15.3928 2.29222C15.7747 2.45849 16.2043 2.45849 16.5862 2.29222C16.8673 2.17422 17.1749 2.10449 17.4984 2.10449C18.3417 2.10449 19.0789 2.5604 19.4873 3.23622C19.7949 3.74576 20.2776 4.11585 20.8398 4.30894Z" fill="url(#paint67_radial_3987_24147)"/>
<path d="M20.8398 4.30894C21.3543 4.48594 21.8157 4.8453 22.1074 5.36021C22.5741 6.18085 22.5052 7.16239 22.0013 7.88648C21.8263 8.14393 21.7308 8.44966 21.7308 8.76075V9.94879C21.5438 9.81849 21.297 9.72189 21.0636 9.68061L21.1421 8.0742C21.1315 7.30721 20.5269 6.6743 19.7631 6.64212H18.3629C17.4082 6.64212 16.5437 6.07894 16.1512 5.1993C16.0505 4.94721 15.8065 4.78094 15.536 4.78094H14.2631C12.4174 4.78094 10.9217 6.29348 10.9217 8.16002L10.9523 9.69737C10.6984 9.73469 10.4331 9.81959 10.2322 9.96104V8.76075C10.2322 8.44966 10.1367 8.14393 9.96172 7.88648C9.48438 7.18384 9.39952 6.23985 9.81852 5.44067C10.1102 4.88821 10.5823 4.50203 11.1179 4.3143C11.6908 4.11049 12.1787 3.72431 12.5022 3.20403C12.9159 2.54431 13.6426 2.10449 14.4752 2.10449C14.7988 2.10449 15.1064 2.17422 15.3928 2.29222C15.7747 2.45849 16.2043 2.45849 16.5862 2.29222C16.8673 2.17422 17.1749 2.10449 17.4984 2.10449C18.3417 2.10449 19.0789 2.5604 19.4873 3.23622C19.7949 3.74576 20.2776 4.11585 20.8398 4.30894Z" fill="url(#paint68_radial_3987_24147)"/>
</g>
<g filter="url(#filter11_i_3987_24147)">
<path d="M19.7178 7.97224C19.5426 7.81966 19.3388 7.65798 19.0303 7.56083C18.726 7.46505 18.345 7.43933 17.8178 7.50382C17.6657 7.52242 17.5576 7.66074 17.5762 7.81277C17.5948 7.9648 17.7331 8.07297 17.8851 8.05437C18.3663 7.9955 18.6611 8.02609 18.8637 8.08988C19.062 8.1523 19.1961 8.25344 19.3535 8.39049C19.469 8.49109 19.6442 8.47901 19.7448 8.36351C19.8453 8.24802 19.8333 8.07284 19.7178 7.97224Z" fill="#2E201F"/>
</g>
<g filter="url(#filter12_i_3987_24147)">
<path d="M12.574 7.86311C12.6641 7.80917 12.7938 7.74016 12.9576 7.67578C13.285 7.54703 13.753 7.43522 14.3129 7.50373C14.465 7.52233 14.5731 7.66065 14.5545 7.81268C14.5359 7.96471 14.3976 8.07287 14.2456 8.05427C13.7972 7.99942 13.4231 8.08874 13.1605 8.19197C13.0293 8.24357 12.927 8.29827 12.8589 8.33903C12.8249 8.35937 12.7996 8.37611 12.7838 8.38707C12.7758 8.39255 12.7703 8.39656 12.7672 8.39884L12.7644 8.40089C12.6436 8.49407 12.47 8.47211 12.3762 8.35153C12.2821 8.23063 12.3039 8.0564 12.4248 7.96236L12.574 7.86311Z" fill="#2E201F"/>
</g>
<g filter="url(#filter13_if_3987_24147)">
<path d="M16.2174 5.3361C16.194 5.2914 16.172 5.24578 16.1512 5.19928C16.0504 4.94719 15.8065 4.78092 15.536 4.78092H14.2631C12.4174 4.78092 10.9217 6.29346 10.9217 8.16V8.43517C10.5817 8.17643 10.1541 7.63062 10.1541 6.74736C10.1541 5.67552 10.9358 5.13375 11.4344 4.78816C11.5752 4.6906 11.6934 4.60867 11.7651 4.53487C11.7956 4.50351 11.8287 4.46835 11.8648 4.4301C12.2143 4.05938 12.8371 3.39884 13.9246 3.11016C14.4561 2.96908 14.9946 2.93456 15.4324 2.94513C15.9051 2.95653 16.2384 3.36481 16.2384 3.83766V5.32265L16.2174 5.3361Z" fill="#2D171F"/>
<path d="M16.2174 5.3361C16.194 5.2914 16.172 5.24578 16.1512 5.19928C16.0504 4.94719 15.8065 4.78092 15.536 4.78092H14.2631C12.4174 4.78092 10.9217 6.29346 10.9217 8.16V8.43517C10.5817 8.17643 10.1541 7.63062 10.1541 6.74736C10.1541 5.67552 10.9358 5.13375 11.4344 4.78816C11.5752 4.6906 11.6934 4.60867 11.7651 4.53487C11.7956 4.50351 11.8287 4.46835 11.8648 4.4301C12.2143 4.05938 12.8371 3.39884 13.9246 3.11016C14.4561 2.96908 14.9946 2.93456 15.4324 2.94513C15.9051 2.95653 16.2384 3.36481 16.2384 3.83766V5.32265L16.2174 5.3361Z" fill="url(#paint69_radial_3987_24147)"/>
<path d="M16.2174 5.3361C16.194 5.2914 16.172 5.24578 16.1512 5.19928C16.0504 4.94719 15.8065 4.78092 15.536 4.78092H14.2631C12.4174 4.78092 10.9217 6.29346 10.9217 8.16V8.43517C10.5817 8.17643 10.1541 7.63062 10.1541 6.74736C10.1541 5.67552 10.9358 5.13375 11.4344 4.78816C11.5752 4.6906 11.6934 4.60867 11.7651 4.53487C11.7956 4.50351 11.8287 4.46835 11.8648 4.4301C12.2143 4.05938 12.8371 3.39884 13.9246 3.11016C14.4561 2.96908 14.9946 2.93456 15.4324 2.94513C15.9051 2.95653 16.2384 3.36481 16.2384 3.83766V5.32265L16.2174 5.3361Z" fill="url(#paint70_radial_3987_24147)"/>
</g>
<g filter="url(#filter14_f_3987_24147)">
<path d="M21.1975 8.60282L21.1684 7.97163C21.1577 7.20817 20.5268 6.57819 19.7631 6.54615H18.3629C17.474 6.54615 16.6633 6.0602 16.239 5.2865C16.239 5.2865 16.1804 5.1508 16.119 4.91837C15.8627 3.94858 16.7905 3.2121 17.7697 3.42989C18.7097 3.63898 19.7734 3.98856 20.5846 4.51764C22.3291 5.6555 22.1158 7.63715 21.1975 8.60282Z" fill="#2D171F"/>
<path d="M21.1975 8.60282L21.1684 7.97163C21.1577 7.20817 20.5268 6.57819 19.7631 6.54615H18.3629C17.474 6.54615 16.6633 6.0602 16.239 5.2865C16.239 5.2865 16.1804 5.1508 16.119 4.91837C15.8627 3.94858 16.7905 3.2121 17.7697 3.42989C18.7097 3.63898 19.7734 3.98856 20.5846 4.51764C22.3291 5.6555 22.1158 7.63715 21.1975 8.60282Z" fill="url(#paint71_radial_3987_24147)"/>
<path d="M21.1975 8.60282L21.1684 7.97163C21.1577 7.20817 20.5268 6.57819 19.7631 6.54615H18.3629C17.474 6.54615 16.6633 6.0602 16.239 5.2865C16.239 5.2865 16.1804 5.1508 16.119 4.91837C15.8627 3.94858 16.7905 3.2121 17.7697 3.42989C18.7097 3.63898 19.7734 3.98856 20.5846 4.51764C22.3291 5.6555 22.1158 7.63715 21.1975 8.60282Z" fill="url(#paint72_radial_3987_24147)"/>
</g>
<path d="M18.3759 9.28711C19.029 9.28711 19.5807 9.73739 19.7308 10.3459C19.7754 10.5203 19.6415 10.6866 19.463 10.6866H17.2319C17.0899 10.6866 16.9764 10.5568 17.0047 10.4148C17.1305 9.7739 17.6944 9.28711 18.3759 9.28711Z" fill="white"/>
<path d="M18.1691 9.55859C18.664 9.55859 19.0615 9.9602 19.0615 10.451C19.0615 10.5322 19.0494 10.6133 19.0291 10.6863H17.305C17.2848 10.6093 17.2726 10.5322 17.2726 10.451C17.2726 9.9602 17.6742 9.55859 18.1691 9.55859Z" fill="url(#paint73_radial_3987_24147)"/>
<path d="M17.658 10.4511C17.658 10.1671 17.8851 9.93994 18.1691 9.93994C18.4531 9.93994 18.6802 10.1671 18.6802 10.4511C18.6802 10.5363 18.6599 10.6174 18.6234 10.6864H17.7188C17.6782 10.6174 17.658 10.5363 17.658 10.4511Z" fill="black"/>
<g filter="url(#filter15_f_3987_24147)">
<path d="M18.1035 9.74727C18.1671 9.83231 18.0342 9.93599 17.8831 10.049C17.732 10.162 17.6199 10.2415 17.5563 10.1564C17.4927 10.0714 17.5637 9.91085 17.7148 9.79787C17.8659 9.68488 18.0399 9.66223 18.1035 9.74727Z" fill="#C7A7A3"/>
<path d="M18.1035 9.74727C18.1671 9.83231 18.0342 9.93599 17.8831 10.049C17.732 10.162 17.6199 10.2415 17.5563 10.1564C17.4927 10.0714 17.5637 9.91085 17.7148 9.79787C17.8659 9.68488 18.0399 9.66223 18.1035 9.74727Z" fill="url(#paint74_radial_3987_24147)"/>
</g>
<g filter="url(#filter16_f_3987_24147)">
<path d="M18.9639 10.3338C18.9309 10.1031 18.7959 9.9292 18.7325 9.87109L18.4727 10.1563L18.5899 10.3845L18.9639 10.3338Z" fill="url(#paint75_linear_3987_24147)"/>
</g>
<path d="M13.594 9.28662C12.9408 9.28662 12.3891 9.73693 12.239 10.3454C12.1944 10.5199 12.3282 10.6862 12.5067 10.6862H14.738C14.88 10.6862 14.9936 10.5564 14.9652 10.4144C14.8394 9.77344 14.2715 9.28662 13.594 9.28662Z" fill="white"/>
<path d="M13.8009 9.55859C13.306 9.55859 12.9084 9.96022 12.9084 10.4511C12.9084 10.5322 12.9206 10.6134 12.9409 10.6864H14.665C14.6853 10.6093 14.6975 10.5322 14.6975 10.4511C14.6934 9.96022 14.2959 9.55859 13.8009 9.55859Z" fill="url(#paint76_radial_3987_24147)"/>
<path d="M14.3121 10.4511C14.3121 10.1671 14.0849 9.93994 13.801 9.93994C13.517 9.93994 13.2898 10.1671 13.2898 10.4511C13.2898 10.5363 13.3101 10.6174 13.3466 10.6864H14.2513C14.2878 10.6174 14.3121 10.5363 14.3121 10.4511Z" fill="black"/>
<g filter="url(#filter17_f_3987_24147)">
<path d="M14.6164 10.3464C14.6164 10.058 14.3818 9.86572 14.3184 9.80762L14.03 10.0865L14.2075 10.4478L14.6164 10.3464Z" fill="url(#paint77_linear_3987_24147)"/>
</g>
<g filter="url(#filter18_f_3987_24147)">
<ellipse cx="13.5316" cy="9.94008" rx="0.389623" ry="0.197185" transform="rotate(-27.914 13.5316 9.94008)" fill="#C7A7A3" fill-opacity="0.9"/>
<ellipse cx="13.5316" cy="9.94008" rx="0.389623" ry="0.197185" transform="rotate(-27.914 13.5316 9.94008)" fill="url(#paint78_radial_3987_24147)"/>
</g>
<path d="M20.9069 12.2929C20.9727 11.2287 21.0361 10.1658 21.0914 9.10156C21.847 9.23377 22.4213 9.89307 22.4213 10.6865C22.4213 11.5434 21.7515 12.2439 20.9069 12.2929Z" fill="url(#paint79_linear_3987_24147)"/>
<path d="M20.9069 12.2929C20.9727 11.2287 21.0361 10.1658 21.0914 9.10156C21.847 9.23377 22.4213 9.89307 22.4213 10.6865C22.4213 11.5434 21.7515 12.2439 20.9069 12.2929Z" fill="url(#paint80_radial_3987_24147)"/>
<path d="M20.9069 12.2929C20.9727 11.2287 21.0361 10.1658 21.0914 9.10156C21.847 9.23377 22.4213 9.89307 22.4213 10.6865C22.4213 11.5434 21.7515 12.2439 20.9069 12.2929Z" fill="url(#paint81_radial_3987_24147)"/>
<path d="M20.9069 12.2929C20.9727 11.2287 21.0361 10.1658 21.0914 9.10156C21.847 9.23377 22.4213 9.89307 22.4213 10.6865C22.4213 11.5434 21.7515 12.2439 20.9069 12.2929Z" fill="url(#paint82_radial_3987_24147)"/>
<path d="M10.9407 9.08838C10.1593 9.19855 9.54858 9.87465 9.54858 10.6864C9.54858 11.5454 10.2218 12.2473 11.0694 12.2931C11.0049 11.2245 10.9613 10.1573 10.9407 9.08838Z" fill="url(#paint83_linear_3987_24147)"/>
<path d="M10.9407 9.08838C10.1593 9.19855 9.54858 9.87465 9.54858 10.6864C9.54858 11.5454 10.2218 12.2473 11.0694 12.2931C11.0049 11.2245 10.9613 10.1573 10.9407 9.08838Z" fill="url(#paint84_radial_3987_24147)"/>
<g filter="url(#filter19_f_3987_24147)">
<path d="M10.8995 9.75342C10.4729 9.84908 10.1541 10.2301 10.1541 10.6857C10.1541 11.1704 10.5151 11.5709 10.983 11.6328C10.9483 11.006 10.919 10.3803 10.8995 9.75342Z" fill="url(#paint85_radial_3987_24147)"/>
</g>
<g filter="url(#filter20_f_3987_24147)">
<path d="M20.9279 11.6382C20.9664 11.0037 21.0037 10.3694 21.0385 9.73486C21.5097 9.79366 21.8744 10.1957 21.8744 10.6829C21.8744 11.2075 21.4514 11.6335 20.9279 11.6382Z" fill="url(#paint86_linear_3987_24147)"/>
</g>
<g filter="url(#filter21_f_3987_24147)">
<path d="M12.6118 8.14311C12.8688 7.95874 13.5094 7.63441 14.267 7.7618" stroke="#433739" stroke-width="0.25" stroke-linecap="round"/>
</g>
<g filter="url(#filter22_f_3987_24147)">
<path d="M19.5459 8.09673C19.2889 7.91235 18.6483 7.58802 17.8907 7.71541" stroke="#433739" stroke-width="0.25" stroke-linecap="round"/>
</g>
<g filter="url(#filter23_f_3987_24147)">
<path d="M20.1779 5.29188L18.097 5.29188C17.8304 5.29188 17.6143 5.0758 17.6143 4.80925C17.6143 4.51191 17.8805 4.28393 18.1742 4.33073C18.714 4.41677 19.431 4.53671 19.9111 4.65574C20.9967 4.92489 21.2964 5.45337 21.3801 5.83018C20.9925 5.35647 20.4172 5.27393 20.1779 5.29188Z" fill="#49373D"/>
</g>
<defs>
<filter id="filter0_f_3987_24147" x="9.01453" y="15.8008" width="7.14667" height="11.5571" filterUnits="userSpaceOnUse" color-interpolation-filters="sRGB">
<feFlood flood-opacity="0" result="BackgroundImageFix"/>
<feBlend mode="normal" in="SourceGraphic" in2="BackgroundImageFix" result="shape"/>
<feGaussianBlur stdDeviation="0.5" result="effect1_foregroundBlur_3987_24147"/>
</filter>
<filter id="filter1_f_3987_24147" x="15.9086" y="15.8008" width="7.14667" height="11.5571" filterUnits="userSpaceOnUse" color-interpolation-filters="sRGB">
<feFlood flood-opacity="0" result="BackgroundImageFix"/>
<feBlend mode="normal" in="SourceGraphic" in2="BackgroundImageFix" result="shape"/>
<feGaussianBlur stdDeviation="0.5" result="effect1_foregroundBlur_3987_24147"/>
</filter>
<filter id="filter2_f_3987_24147" x="16.98" y="24.0127" width="3.69876" height="3.69873" filterUnits="userSpaceOnUse" color-interpolation-filters="sRGB">
<feFlood flood-opacity="0" result="BackgroundImageFix"/>
<feBlend mode="normal" in="SourceGraphic" in2="BackgroundImageFix" result="shape"/>
<feGaussianBlur stdDeviation="0.375" result="effect1_foregroundBlur_3987_24147"/>
</filter>
<filter id="filter3_i_3987_24147" x="18.95" y="24.7627" width="1.42" height="1.41992" filterUnits="userSpaceOnUse" color-interpolation-filters="sRGB">
<feFlood flood-opacity="0" result="BackgroundImageFix"/>
<feBlend mode="normal" in="SourceGraphic" in2="BackgroundImageFix" result="shape"/>
<feColorMatrix in="SourceAlpha" type="matrix" values="0 0 0 0 0 0 0 0 0 0 0 0 0 0 0 0 0 0 127 0" result="hardAlpha"/>
<feOffset/>
<feGaussianBlur stdDeviation="0.1"/>
<feComposite in2="hardAlpha" operator="arithmetic" k2="-1" k3="1"/>
<feColorMatrix type="matrix" values="0 0 0 0 0.14902 0 0 0 0 0.411765 0 0 0 0 0.721569 0 0 0 1 0"/>
<feBlend mode="normal" in2="shape" result="effect1_innerShadow_3987_24147"/>
</filter>
<filter id="filter4_i_3987_24147" x="9.49939" y="19.6823" width="5.3812" height="7.17119" filterUnits="userSpaceOnUse" color-interpolation-filters="sRGB">
<feFlood flood-opacity="0" result="BackgroundImageFix"/>
<feBlend mode="normal" in="SourceGraphic" in2="BackgroundImageFix" result="shape"/>
<feColorMatrix in="SourceAlpha" type="matrix" values="0 0 0 0 0 0 0 0 0 0 0 0 0 0 0 0 0 0 127 0" result="hardAlpha"/>
<feOffset dy="-0.2"/>
<feGaussianBlur stdDeviation="0.1"/>
<feComposite in2="hardAlpha" operator="arithmetic" k2="-1" k3="1"/>
<feColorMatrix type="matrix" values="0 0 0 0 0.333333 0 0 0 0 0.239216 0 0 0 0 0.501961 0 0 0 1 0"/>
<feBlend mode="normal" in2="shape" result="effect1_innerShadow_3987_24147"/>
</filter>
<filter id="filter5_f_3987_24147" x="9.56539" y="19.8562" width="5.3" height="6.89004" filterUnits="userSpaceOnUse" color-interpolation-filters="sRGB">
<feFlood flood-opacity="0" result="BackgroundImageFix"/>
<feBlend mode="normal" in="SourceGraphic" in2="BackgroundImageFix" result="shape"/>
<feGaussianBlur stdDeviation="0.15" result="effect1_foregroundBlur_3987_24147"/>
</filter>
<filter id="filter6_ii_3987_24147" x="10.9216" y="4.78125" width="11.2204" height="12.5418" filterUnits="userSpaceOnUse" color-interpolation-filters="sRGB">
<feFlood flood-opacity="0" result="BackgroundImageFix"/>
<feBlend mode="normal" in="SourceGraphic" in2="BackgroundImageFix" result="shape"/>
<feColorMatrix in="SourceAlpha" type="matrix" values="0 0 0 0 0 0 0 0 0 0 0 0 0 0 0 0 0 0 127 0" result="hardAlpha"/>
<feOffset dx="1"/>
<feGaussianBlur stdDeviation="0.7"/>
<feComposite in2="hardAlpha" operator="arithmetic" k2="-1" k3="1"/>
<feColorMatrix type="matrix" values="0 0 0 0 0.494118 0 0 0 0 0.352941 0 0 0 0 0.32549 0 0 0 1 0"/>
<feBlend mode="normal" in2="shape" result="effect1_innerShadow_3987_24147"/>
<feColorMatrix in="SourceAlpha" type="matrix" values="0 0 0 0 0 0 0 0 0 0 0 0 0 0 0 0 0 0 127 0" result="hardAlpha"/>
<feOffset dy="0.2"/>
<feGaussianBlur stdDeviation="0.375"/>
<feComposite in2="hardAlpha" operator="arithmetic" k2="-1" k3="1"/>
<feColorMatrix type="matrix" values="0 0 0 0 0.396078 0 0 0 0 0.215686 0 0 0 0 0.215686 0 0 0 1 0"/>
<feBlend mode="normal" in2="effect1_innerShadow_3987_24147" result="effect2_innerShadow_3987_24147"/>
</filter>
<filter id="filter7_f_3987_24147" x="13.9696" y="9.12744" width="3.74673" height="4.8999" filterUnits="userSpaceOnUse" color-interpolation-filters="sRGB">
<feFlood flood-opacity="0" result="BackgroundImageFix"/>
<feBlend mode="normal" in="SourceGraphic" in2="BackgroundImageFix" result="shape"/>
<feGaussianBlur stdDeviation="0.5" result="effect1_foregroundBlur_3987_24147"/>
</filter>
<filter id="filter8_f_3987_24147" x="14.8463" y="9.73164" width="2.27727" height="3.2999" filterUnits="userSpaceOnUse" color-interpolation-filters="sRGB">
<feFlood flood-opacity="0" result="BackgroundImageFix"/>
<feBlend mode="normal" in="SourceGraphic" in2="BackgroundImageFix" result="shape"/>
<feGaussianBlur stdDeviation="0.1" result="effect1_foregroundBlur_3987_24147"/>
</filter>
<filter id="filter9_f_3987_24147" x="14.1257" y="13.2525" width="3.71845" height="1.57256" filterUnits="userSpaceOnUse" color-interpolation-filters="sRGB">
<feFlood flood-opacity="0" result="BackgroundImageFix"/>
<feBlend mode="normal" in="SourceGraphic" in2="BackgroundImageFix" result="shape"/>
<feGaussianBlur stdDeviation="0.05" result="effect1_foregroundBlur_3987_24147"/>
</filter>
<filter id="filter10_ii_3987_24147" x="9.54858" y="1.60449" width="12.8727" height="8.35645" filterUnits="userSpaceOnUse" color-interpolation-filters="sRGB">
<feFlood flood-opacity="0" result="BackgroundImageFix"/>
<feBlend mode="normal" in="SourceGraphic" in2="BackgroundImageFix" result="shape"/>
<feColorMatrix in="SourceAlpha" type="matrix" values="0 0 0 0 0 0 0 0 0 0 0 0 0 0 0 0 0 0 127 0" result="hardAlpha"/>
<feOffset dy="-0.5"/>
<feGaussianBlur stdDeviation="0.625"/>
<feComposite in2="hardAlpha" operator="arithmetic" k2="-1" k3="1"/>
<feColorMatrix type="matrix" values="0 0 0 0 0.137255 0 0 0 0 0.0901961 0 0 0 0 0.145098 0 0 0 1 0"/>
<feBlend mode="normal" in2="shape" result="effect1_innerShadow_3987_24147"/>
<feColorMatrix in="SourceAlpha" type="matrix" values="0 0 0 0 0 0 0 0 0 0 0 0 0 0 0 0 0 0 127 0" result="hardAlpha"/>
<feOffset dy="-0.2"/>
<feGaussianBlur stdDeviation="0.2"/>
<feComposite in2="hardAlpha" operator="arithmetic" k2="-1" k3="1"/>
<feColorMatrix type="matrix" values="0 0 0 0 0.0784314 0 0 0 0 0.0352941 0 0 0 0 0.0470588 0 0 0 1 0"/>
<feBlend mode="normal" in2="effect1_innerShadow_3987_24147" result="effect2_innerShadow_3987_24147"/>
</filter>
<filter id="filter11_i_3987_24147" x="17.5741" y="7.26826" width="2.33886" height="1.19023" filterUnits="userSpaceOnUse" color-interpolation-filters="sRGB">
<feFlood flood-opacity="0" result="BackgroundImageFix"/>
<feBlend mode="normal" in="SourceGraphic" in2="BackgroundImageFix" result="shape"/>
<feColorMatrix in="SourceAlpha" type="matrix" values="0 0 0 0 0 0 0 0 0 0 0 0 0 0 0 0 0 0 127 0" result="hardAlpha"/>
<feOffset dx="0.1" dy="-0.2"/>
<feGaussianBlur stdDeviation="0.125"/>
<feComposite in2="hardAlpha" operator="arithmetic" k2="-1" k3="1"/>
<feColorMatrix type="matrix" values="0 0 0 0 0.172549 0 0 0 0 0.0862745 0 0 0 0 0.156863 0 0 0 1 0"/>
<feBlend mode="normal" in2="shape" result="effect1_innerShadow_3987_24147"/>
</filter>
<filter id="filter12_i_3987_24147" x="12.3177" y="7.28291" width="2.33888" height="1.17559" filterUnits="userSpaceOnUse" color-interpolation-filters="sRGB">
<feFlood flood-opacity="0" result="BackgroundImageFix"/>
<feBlend mode="normal" in="SourceGraphic" in2="BackgroundImageFix" result="shape"/>
<feColorMatrix in="SourceAlpha" type="matrix" values="0 0 0 0 0 0 0 0 0 0 0 0 0 0 0 0 0 0 127 0" result="hardAlpha"/>
<feOffset dx="0.1" dy="-0.2"/>
<feGaussianBlur stdDeviation="0.125"/>
<feComposite in2="hardAlpha" operator="arithmetic" k2="-1" k3="1"/>
<feColorMatrix type="matrix" values="0 0 0 0 0.172549 0 0 0 0 0.0862745 0 0 0 0 0.156863 0 0 0 1 0"/>
<feBlend mode="normal" in2="shape" result="effect1_innerShadow_3987_24147"/>
</filter>
<filter id="filter13_if_3987_24147" x="9.90405" y="2.69336" width="6.58437" height="5.9917" filterUnits="userSpaceOnUse" color-interpolation-filters="sRGB">
<feFlood flood-opacity="0" result="BackgroundImageFix"/>
<feBlend mode="normal" in="SourceGraphic" in2="BackgroundImageFix" result="shape"/>
<feColorMatrix in="SourceAlpha" type="matrix" values="0 0 0 0 0 0 0 0 0 0 0 0 0 0 0 0 0 0 127 0" result="hardAlpha"/>
<feOffset dx="0.15" dy="0.1"/>
<feGaussianBlur stdDeviation="0.2"/>
<feComposite in2="hardAlpha" operator="arithmetic" k2="-1" k3="1"/>
<feColorMatrix type="matrix" values="0 0 0 0 0.286275 0 0 0 0 0.243137 0 0 0 0 0.227451 0 0 0 1 0"/>
<feBlend mode="normal" in2="shape" result="effect1_innerShadow_3987_24147"/>
<feGaussianBlur stdDeviation="0.125" result="effect2_foregroundBlur_3987_24147"/>
</filter>
<filter id="filter14_f_3987_24147" x="15.8258" y="3.1416" width="6.31947" height="5.71143" filterUnits="userSpaceOnUse" color-interpolation-filters="sRGB">
<feFlood flood-opacity="0" result="BackgroundImageFix"/>
<feBlend mode="normal" in="SourceGraphic" in2="BackgroundImageFix" result="shape"/>
<feGaussianBlur stdDeviation="0.125" result="effect1_foregroundBlur_3987_24147"/>
</filter>
<filter id="filter15_f_3987_24147" x="17.433" y="9.5958" width="0.786838" height="0.696094" filterUnits="userSpaceOnUse" color-interpolation-filters="sRGB">
<feFlood flood-opacity="0" result="BackgroundImageFix"/>
<feBlend mode="normal" in="SourceGraphic" in2="BackgroundImageFix" result="shape"/>
<feGaussianBlur stdDeviation="0.05" result="effect1_foregroundBlur_3987_24147"/>
</filter>
<filter id="filter16_f_3987_24147" x="18.2727" y="9.67109" width="0.891226" height="0.913184" filterUnits="userSpaceOnUse" color-interpolation-filters="sRGB">
<feFlood flood-opacity="0" result="BackgroundImageFix"/>
<feBlend mode="normal" in="SourceGraphic" in2="BackgroundImageFix" result="shape"/>
<feGaussianBlur stdDeviation="0.1" result="effect1_foregroundBlur_3987_24147"/>
</filter>
<filter id="filter17_f_3987_24147" x="13.83" y="9.60762" width="0.986334" height="1.04014" filterUnits="userSpaceOnUse" color-interpolation-filters="sRGB">
<feFlood flood-opacity="0" result="BackgroundImageFix"/>
<feBlend mode="normal" in="SourceGraphic" in2="BackgroundImageFix" result="shape"/>
<feGaussianBlur stdDeviation="0.1" result="effect1_foregroundBlur_3987_24147"/>
</filter>
<filter id="filter18_f_3987_24147" x="13.075" y="9.58799" width="0.913074" height="0.704395" filterUnits="userSpaceOnUse" color-interpolation-filters="sRGB">
<feFlood flood-opacity="0" result="BackgroundImageFix"/>
<feBlend mode="normal" in="SourceGraphic" in2="BackgroundImageFix" result="shape"/>
<feGaussianBlur stdDeviation="0.05" result="effect1_foregroundBlur_3987_24147"/>
</filter>
<filter id="filter19_f_3987_24147" x="9.90405" y="9.50342" width="1.3289" height="2.37939" filterUnits="userSpaceOnUse" color-interpolation-filters="sRGB">
<feFlood flood-opacity="0" result="BackgroundImageFix"/>
<feBlend mode="normal" in="SourceGraphic" in2="BackgroundImageFix" result="shape"/>
<feGaussianBlur stdDeviation="0.125" result="effect1_foregroundBlur_3987_24147"/>
</filter>
<filter id="filter20_f_3987_24147" x="20.4279" y="9.23486" width="1.94653" height="2.90332" filterUnits="userSpaceOnUse" color-interpolation-filters="sRGB">
<feFlood flood-opacity="0" result="BackgroundImageFix"/>
<feBlend mode="normal" in="SourceGraphic" in2="BackgroundImageFix" result="shape"/>
<feGaussianBlur stdDeviation="0.25" result="effect1_foregroundBlur_3987_24147"/>
</filter>
<filter id="filter21_f_3987_24147" x="12.2368" y="7.35791" width="2.40521" height="1.16016" filterUnits="userSpaceOnUse" color-interpolation-filters="sRGB">
<feFlood flood-opacity="0" result="BackgroundImageFix"/>
<feBlend mode="normal" in="SourceGraphic" in2="BackgroundImageFix" result="shape"/>
<feGaussianBlur stdDeviation="0.125" result="effect1_foregroundBlur_3987_24147"/>
</filter>
<filter id="filter22_f_3987_24147" x="17.5157" y="7.31152" width="2.40521" height="1.16016" filterUnits="userSpaceOnUse" color-interpolation-filters="sRGB">
<feFlood flood-opacity="0" result="BackgroundImageFix"/>
<feBlend mode="normal" in="SourceGraphic" in2="BackgroundImageFix" result="shape"/>
<feGaussianBlur stdDeviation="0.125" result="effect1_foregroundBlur_3987_24147"/>
</filter>
<filter id="filter23_f_3987_24147" x="16.8643" y="3.57471" width="5.26578" height="3.00537" filterUnits="userSpaceOnUse" color-interpolation-filters="sRGB">
<feFlood flood-opacity="0" result="BackgroundImageFix"/>
<feBlend mode="normal" in="SourceGraphic" in2="BackgroundImageFix" result="shape"/>
<feGaussianBlur stdDeviation="0.375" result="effect1_foregroundBlur_3987_24147"/>
</filter>
<radialGradient id="paint0_radial_3987_24147" cx="0" cy="0" r="1" gradientUnits="userSpaceOnUse" gradientTransform="translate(23.18 23.9338) rotate(180) scale(10.8 20.6925)">
<stop stop-color="#EFEAFB"/>
<stop offset="1" stop-color="#D4CAE9"/>
</radialGradient>
<linearGradient id="paint1_linear_3987_24147" x1="23.2941" y1="24.6135" x2="22.9816" y2="24.6137" gradientUnits="userSpaceOnUse">
<stop offset="0.224619" stop-color="#D4CCDC"/>
<stop offset="1" stop-color="#D4CCDC" stop-opacity="0"/>
</linearGradient>
<linearGradient id="paint2_linear_3987_24147" x1="8.71594" y1="24.6137" x2="9.05188" y2="24.6135" gradientUnits="userSpaceOnUse">
<stop offset="0.382979" stop-color="#B7AFC3"/>
<stop offset="1" stop-color="#B7AFC3" stop-opacity="0"/>
</linearGradient>
<linearGradient id="paint3_linear_3987_24147" x1="16.1613" y1="30.9651" x2="16.1613" y2="29.1526" gradientUnits="userSpaceOnUse">
<stop stop-color="#C8B7DE"/>
<stop offset="1" stop-color="#C8B7DE" stop-opacity="0"/>
</linearGradient>
<radialGradient id="paint4_radial_3987_24147" cx="0" cy="0" r="1" gradientUnits="userSpaceOnUse" gradientTransform="translate(22.0675 28.8088) rotate(-121.204) scale(16.5873 16.3485)">
<stop offset="0.587422" stop-color="#BEBAC5" stop-opacity="0"/>
<stop offset="1" stop-color="#BEBAC5"/>
</radialGradient>
<radialGradient id="paint5_radial_3987_24147" cx="0" cy="0" r="1" gradientUnits="userSpaceOnUse" gradientTransform="translate(18.0363 24.4963) rotate(77.1523) scale(3.65398 4.0429)">
<stop stop-color="#B2A6C7"/>
<stop offset="1" stop-color="#B2A6C7" stop-opacity="0"/>
</radialGradient>
<radialGradient id="paint6_radial_3987_24147" cx="0" cy="0" r="1" gradientUnits="userSpaceOnUse" gradientTransform="translate(15.951 30.0026) rotate(-90) scale(7.97501 0.960268)">
<stop stop-color="#B1909E"/>
<stop offset="1" stop-color="#B1909E" stop-opacity="0"/>
</radialGradient>
<linearGradient id="paint7_linear_3987_24147" x1="8.80027" y1="15.4422" x2="23.1763" y2="15.4422" gradientUnits="userSpaceOnUse">
<stop offset="0.00558659" stop-color="#CCCCCC"/>
<stop offset="1" stop-color="#E6E6E6"/>
</linearGradient>
<linearGradient id="paint8_linear_3987_24147" x1="8.80027" y1="15.4119" x2="23.1763" y2="15.4119" gradientUnits="userSpaceOnUse">
<stop offset="0.00558659" stop-color="#CCCCCC"/>
<stop offset="1" stop-color="#E6E6E6"/>
</linearGradient>
<radialGradient id="paint9_radial_3987_24147" cx="0" cy="0" r="1" gradientUnits="userSpaceOnUse" gradientTransform="translate(5.31746 24.7154) rotate(5.18546) scale(3.45763 9.59957)">
<stop stop-color="#D3D0D5"/>
<stop offset="1" stop-color="#C8BFD6"/>
</radialGradient>
<radialGradient id="paint10_radial_3987_24147" cx="0" cy="0" r="1" gradientUnits="userSpaceOnUse" gradientTransform="translate(9.47371 17.7779) rotate(107.994) scale(6.67657 7.47746)">
<stop stop-color="#C4C3C3"/>
<stop offset="1" stop-color="#C4C3C3" stop-opacity="0"/>
</radialGradient>
<linearGradient id="paint11_linear_3987_24147" x1="6.97961" y1="30.7781" x2="6.97961" y2="29.3184" gradientUnits="userSpaceOnUse">
<stop stop-color="#C8B7DE"/>
<stop offset="1" stop-color="#C8B7DE" stop-opacity="0"/>
</linearGradient>
<radialGradient id="paint12_radial_3987_24147" cx="0" cy="0" r="1" gradientUnits="userSpaceOnUse" gradientTransform="translate(26.216 21.9651) rotate(155.425) scale(3.38131 8.94377)">
<stop stop-color="#FCF9FF"/>
<stop offset="1" stop-color="#E6DDF3"/>
</radialGradient>
<radialGradient id="paint13_radial_3987_24147" cx="0" cy="0" r="1" gradientUnits="userSpaceOnUse" gradientTransform="translate(24.5285 20.3401) rotate(90) scale(11 8.46398)">
<stop offset="0.78098" stop-color="#D1C0E3" stop-opacity="0"/>
<stop offset="0.974432" stop-color="#D1C0E3"/>
</radialGradient>
<linearGradient id="paint14_linear_3987_24147" x1="22.6512" y1="25.6516" x2="23.4296" y2="25.6516" gradientUnits="userSpaceOnUse">
<stop offset="0.642857" stop-color="#D4CCDC"/>
<stop offset="1" stop-color="#D4CCDC" stop-opacity="0"/>
</linearGradient>
<radialGradient id="paint15_radial_3987_24147" cx="0" cy="0" r="1" gradientUnits="userSpaceOnUse" gradientTransform="translate(15.9849 18.5588) rotate(90) scale(5.65625 3.01125)">
<stop offset="0.363155" stop-color="#D76B26"/>
<stop offset="0.9999" stop-color="#943104"/>
<stop offset="1" stop-color="#943104"/>
</radialGradient>
<radialGradient id="paint16_radial_3987_24147" cx="0" cy="0" r="1" gradientUnits="userSpaceOnUse" gradientTransform="translate(16.3487 30.4963) rotate(-90) scale(6.53125 2.8605)">
<stop offset="0.344498" stop-color="#E05A26"/>
<stop offset="1" stop-color="#E05A26" stop-opacity="0"/>
</radialGradient>
<linearGradient id="paint17_linear_3987_24147" x1="8.80027" y1="15.4422" x2="23.1763" y2="15.4422" gradientUnits="userSpaceOnUse">
<stop offset="0.00558659" stop-color="#CCCCCC"/>
<stop offset="1" stop-color="#E6E6E6"/>
</linearGradient>
<linearGradient id="paint18_linear_3987_24147" x1="8.80027" y1="15.4119" x2="23.1763" y2="15.4119" gradientUnits="userSpaceOnUse">
<stop offset="0.00558659" stop-color="#CCCCCC"/>
<stop offset="1" stop-color="#E6E6E6"/>
</linearGradient>
<linearGradient id="paint19_linear_3987_24147" x1="16.1612" y1="26.9967" x2="23.7862" y2="19.403" gradientUnits="userSpaceOnUse">
<stop stop-color="#AD9EC2"/>
<stop offset="1" stop-color="#D3CFDA"/>
</linearGradient>
<linearGradient id="paint20_linear_3987_24147" x1="21.875" y1="18.3921" x2="16.7598" y2="23.9103" gradientUnits="userSpaceOnUse">
<stop stop-color="#FDF6F9"/>
<stop offset="1" stop-color="#BDB2D2"/>
</linearGradient>
<linearGradient id="paint21_linear_3987_24147" x1="20.0295" y1="15.6733" x2="19.8719" y2="17.7356" gradientUnits="userSpaceOnUse">
<stop stop-color="#EDD8CE"/>
<stop offset="1" stop-color="#EDD8CE" stop-opacity="0"/>
</linearGradient>
<linearGradient id="paint22_linear_3987_24147" x1="17.5675" y1="18.9183" x2="18.7238" y2="19.4027" gradientUnits="userSpaceOnUse">
<stop stop-color="#B49089"/>
<stop offset="1" stop-color="#DED4E6" stop-opacity="0"/>
</linearGradient>
<radialGradient id="paint23_radial_3987_24147" cx="0" cy="0" r="1" gradientUnits="userSpaceOnUse" gradientTransform="translate(19.1236 18.1215) rotate(90) scale(6.1875 0.845588)">
<stop stop-color="#AA98A1"/>
<stop offset="1" stop-color="#DAD1E4" stop-opacity="0"/>
</radialGradient>
<radialGradient id="paint24_radial_3987_24147" cx="0" cy="0" r="1" gradientUnits="userSpaceOnUse" gradientTransform="translate(16.4315 26.5636) rotate(-48.5803) scale(4.06928 1.38982)">
<stop stop-color="#B7A3CF"/>
<stop offset="1" stop-color="#B7A3CF" stop-opacity="0"/>
</radialGradient>
<radialGradient id="paint25_radial_3987_24147" cx="0" cy="0" r="1" gradientUnits="userSpaceOnUse" gradientTransform="translate(19.1236 24.8715) rotate(-90) scale(4.84375 0.553272)">
<stop stop-color="#A298B4"/>
<stop offset="1" stop-color="#A298B4" stop-opacity="0"/>
</radialGradient>
<radialGradient id="paint26_radial_3987_24147" cx="0" cy="0" r="1" gradientUnits="userSpaceOnUse" gradientTransform="translate(14.4737 19.8402) rotate(158.705) scale(3.25339 6.38774)">
<stop offset="0.0876876" stop-color="#EFE1E3"/>
<stop offset="1" stop-color="#BDB0D0"/>
</radialGradient>
<radialGradient id="paint27_radial_3987_24147" cx="0" cy="0" r="1" gradientUnits="userSpaceOnUse" gradientTransform="translate(10.1146 24.926) rotate(-69.7629) scale(10.0058 8.12328)">
<stop offset="0.691424" stop-color="#B3A299" stop-opacity="0"/>
<stop offset="1" stop-color="#B3A299"/>
</radialGradient>
<linearGradient id="paint28_linear_3987_24147" x1="12.2549" y1="23.2152" x2="12.583" y2="22.8558" gradientUnits="userSpaceOnUse">
<stop stop-color="#B2A6C6"/>
<stop offset="1" stop-color="#B2A6C6" stop-opacity="0"/>
</linearGradient>
<radialGradient id="paint29_radial_3987_24147" cx="0" cy="0" r="1" gradientUnits="userSpaceOnUse" gradientTransform="translate(10.2862 19.4965) rotate(-81.9606) scale(2.79307 2.13989)">
<stop stop-color="#CBC5CF"/>
<stop offset="1" stop-color="#BDB1AD" stop-opacity="0"/>
</radialGradient>
<radialGradient id="paint30_radial_3987_24147" cx="0" cy="0" r="1" gradientUnits="userSpaceOnUse" gradientTransform="translate(12.083 18.3246) rotate(101.232) scale(2.24614 0.689606)">
<stop offset="0.438596" stop-color="#ADA5AB"/>
<stop offset="1" stop-color="#ADA5AB" stop-opacity="0"/>
</radialGradient>
<radialGradient id="paint31_radial_3987_24147" cx="0" cy="0" r="1" gradientUnits="userSpaceOnUse" gradientTransform="translate(12.4268 21.3402) rotate(49.2948) scale(2.80315 0.974245)">
<stop stop-color="#B5A9BF"/>
<stop offset="1" stop-color="#B5A9BF" stop-opacity="0"/>
</radialGradient>
<radialGradient id="paint32_radial_3987_24147" cx="0" cy="0" r="1" gradientUnits="userSpaceOnUse" gradientTransform="translate(15.97 18.9495) rotate(-90) scale(2.84375 3.36136)">
<stop offset="0.49521" stop-color="#633C3A"/>
<stop offset="0.857143" stop-color="#461F1A"/>
</radialGradient>
<linearGradient id="paint33_linear_3987_24147" x1="20.294" y1="23.684" x2="19.6221" y2="23.6996" gradientUnits="userSpaceOnUse">
<stop offset="0.293513" stop-color="#786D95"/>
<stop offset="1" stop-color="#786D95" stop-opacity="0"/>
</linearGradient>
<radialGradient id="paint34_radial_3987_24147" cx="0" cy="0" r="1" gradientUnits="userSpaceOnUse" gradientTransform="translate(18.4893 16.3871) rotate(90) scale(1.78125 1.30438)">
<stop offset="0.122807" stop-color="#322450"/>
<stop offset="1" stop-color="#322450" stop-opacity="0"/>
</radialGradient>
<radialGradient id="paint35_radial_3987_24147" cx="0" cy="0" r="1" gradientUnits="userSpaceOnUse" gradientTransform="translate(12.5674 20.0433) rotate(-90) scale(3.14062 0.59375)">
<stop stop-color="#655C80"/>
<stop offset="1" stop-color="#655C80" stop-opacity="0"/>
</radialGradient>
<radialGradient id="paint36_radial_3987_24147" cx="0" cy="0" r="1" gradientUnits="userSpaceOnUse" gradientTransform="translate(13.4893 16.1215) rotate(116.378) scale(2.14524 1.11803)">
<stop offset="0.144745" stop-color="#2C1F4A"/>
<stop offset="1" stop-color="#2C1F4A" stop-opacity="0"/>
</radialGradient>
<radialGradient id="paint37_radial_3987_24147" cx="0" cy="0" r="1" gradientUnits="userSpaceOnUse" gradientTransform="translate(20.1498 24.9216) rotate(121.842) scale(1.90409 1.71171)">
<stop offset="0.213098" stop-color="#49A3E6"/>
<stop offset="1" stop-color="#2B86DD"/>
</radialGradient>
<radialGradient id="paint38_radial_3987_24147" cx="0" cy="0" r="1" gradientUnits="userSpaceOnUse" gradientTransform="translate(19.2332 25.9107) rotate(-45) scale(1.11225 0.734787)">
<stop offset="0.20362" stop-color="#4C7BBF"/>
<stop offset="1" stop-color="#2C6DBD"/>
</radialGradient>
<linearGradient id="paint39_linear_3987_24147" x1="12.19" y1="20.2936" x2="12.19" y2="28.4654" gradientUnits="userSpaceOnUse">
<stop stop-color="#554975"/>
<stop offset="1" stop-color="#5F5280"/>
</linearGradient>
<linearGradient id="paint40_linear_3987_24147" x1="9.49939" y1="25.2815" x2="10.3935" y2="25.2815" gradientUnits="userSpaceOnUse">
<stop stop-color="#3A97DB"/>
<stop offset="1" stop-color="#49A3E2"/>
</linearGradient>
<radialGradient id="paint41_radial_3987_24147" cx="0" cy="0" r="1" gradientUnits="userSpaceOnUse" gradientTransform="translate(10.1147 23.5746) rotate(90) scale(3.5 0.280742)">
<stop offset="0.441964" stop-color="#46A4E7"/>
<stop offset="1" stop-color="#46A4E7" stop-opacity="0"/>
</radialGradient>
<linearGradient id="paint42_linear_3987_24147" x1="13.8721" y1="25.2917" x2="14.544" y2="25.2917" gradientUnits="userSpaceOnUse">
<stop stop-color="#3A97DB"/>
<stop offset="1" stop-color="#49A3E2"/>
</linearGradient>
<linearGradient id="paint43_linear_3987_24147" x1="14.9346" y1="24.8092" x2="14.6924" y2="24.8092" gradientUnits="userSpaceOnUse">
<stop stop-color="#3D9AD9"/>
<stop offset="1" stop-color="#3D9AD9" stop-opacity="0"/>
</linearGradient>
<radialGradient id="paint44_radial_3987_24147" cx="0" cy="0" r="1" gradientUnits="userSpaceOnUse" gradientTransform="translate(20.7383 11.8931) rotate(69.6569) scale(2.15388 2.55864)">
<stop offset="0.214643" stop-color="#332F31"/>
<stop offset="1" stop-color="#221925"/>
</radialGradient>
<radialGradient id="paint45_radial_3987_24147" cx="0" cy="0" r="1" gradientUnits="userSpaceOnUse" gradientTransform="translate(9.92843 12.3834) rotate(17.4472) scale(1.54767 4.77465)">
<stop stop-color="#3E3330"/>
<stop offset="0.745836" stop-color="#201524"/>
</radialGradient>
<radialGradient id="paint46_radial_3987_24147" cx="0" cy="0" r="1" gradientUnits="userSpaceOnUse" gradientTransform="translate(18.7926 10.9521) rotate(180) scale(5.22785 9.24802)">
<stop stop-color="#9A6E61"/>
<stop offset="1" stop-color="#754C4C"/>
<stop offset="1" stop-color="#754C4C"/>
</radialGradient>
<radialGradient id="paint47_radial_3987_24147" cx="0" cy="0" r="1" gradientUnits="userSpaceOnUse" gradientTransform="translate(18.4119 5.9731) rotate(121.159) scale(3.36898 2.78137)">
<stop offset="0.0780198" stop-color="#855E5A"/>
<stop offset="1" stop-color="#855E5A" stop-opacity="0"/>
</radialGradient>
<linearGradient id="paint48_linear_3987_24147" x1="21.142" y1="12.6375" x2="18.6131" y2="12.6375" gradientUnits="userSpaceOnUse">
<stop stop-color="#936B5D"/>
<stop offset="1" stop-color="#936B5D" stop-opacity="0"/>
</linearGradient>
<radialGradient id="paint49_radial_3987_24147" cx="0" cy="0" r="1" gradientUnits="userSpaceOnUse" gradientTransform="translate(15.9668 17.3423) rotate(-90) scale(2.27297 7.3692)">
<stop offset="0.168421" stop-color="#7B3A46"/>
<stop offset="0.431579" stop-color="#794057"/>
<stop offset="1" stop-color="#794057" stop-opacity="0"/>
</radialGradient>
<radialGradient id="paint50_radial_3987_24147" cx="0" cy="0" r="1" gradientUnits="userSpaceOnUse" gradientTransform="translate(18.432 9.63921) rotate(-90) scale(1.14835 1.42108)">
<stop offset="0.325" stop-color="#875455"/>
<stop offset="1" stop-color="#875455" stop-opacity="0"/>
</radialGradient>
<radialGradient id="paint51_radial_3987_24147" cx="0" cy="0" r="1" gradientUnits="userSpaceOnUse" gradientTransform="translate(13.6846 9.68571) rotate(-89.7942) scale(1.09429 1.19084)">
<stop offset="0.377617" stop-color="#70424E"/>
<stop offset="1" stop-color="#70424E" stop-opacity="0"/>
</radialGradient>
<radialGradient id="paint52_radial_3987_24147" cx="0" cy="0" r="1" gradientUnits="userSpaceOnUse" gradientTransform="translate(19.4176 11.9401) rotate(176.388) scale(8.5129 21.7462)">
<stop offset="0.835902" stop-color="#815F58" stop-opacity="0"/>
<stop offset="1" stop-color="#815F58"/>
</radialGradient>
<radialGradient id="paint53_radial_3987_24147" cx="0" cy="0" r="1" gradientUnits="userSpaceOnUse" gradientTransform="translate(9.19321 8.2191) rotate(-40.7412) scale(4.46871 1.31998)">
<stop offset="0.539452" stop-color="#4F2C2A"/>
<stop offset="1" stop-color="#4F2C2A" stop-opacity="0"/>
</radialGradient>
<radialGradient id="paint54_radial_3987_24147" cx="0" cy="0" r="1" gradientUnits="userSpaceOnUse" gradientTransform="translate(21.5295 8.03474) rotate(95.3677) scale(2.50844 1.00273)">
<stop offset="0.244676" stop-color="#98786D"/>
<stop offset="1" stop-color="#98786D" stop-opacity="0"/>
</radialGradient>
<linearGradient id="paint55_linear_3987_24147" x1="16.8231" y1="11.6266" x2="15.9849" y2="11.6614" gradientUnits="userSpaceOnUse">
<stop offset="0.360477" stop-color="#A17C72"/>
<stop offset="1" stop-color="#A17C72" stop-opacity="0"/>
</linearGradient>
<radialGradient id="paint56_radial_3987_24147" cx="0" cy="0" r="1" gradientUnits="userSpaceOnUse" gradientTransform="translate(16.4512 12.3124) rotate(90) scale(0.244103 0.767181)">
<stop stop-color="#A17C72"/>
<stop offset="1" stop-color="#A17C72" stop-opacity="0"/>
</radialGradient>
<linearGradient id="paint57_linear_3987_24147" x1="15.9849" y1="12.7657" x2="15.9849" y2="12.3007" gradientUnits="userSpaceOnUse">
<stop stop-color="#7D465B"/>
<stop offset="1" stop-color="#7D465B" stop-opacity="0"/>
</linearGradient>
<radialGradient id="paint58_radial_3987_24147" cx="0" cy="0" r="1" gradientUnits="userSpaceOnUse" gradientTransform="translate(16.5674 11.7428) rotate(155.369) scale(1.67341 2.6893)">
<stop offset="0.714105" stop-color="#744A4A" stop-opacity="0"/>
<stop offset="1" stop-color="#744A4A"/>
</radialGradient>
<linearGradient id="paint59_linear_3987_24147" x1="15.9849" y1="10.0606" x2="15.9849" y2="10.6073" gradientUnits="userSpaceOnUse">
<stop stop-color="#865C56"/>
<stop offset="1" stop-color="#865C56" stop-opacity="0"/>
</linearGradient>
<linearGradient id="paint60_linear_3987_24147" x1="16.4006" y1="12.9035" x2="16.4006" y2="12.7108" gradientUnits="userSpaceOnUse">
<stop stop-color="#6D3945"/>
<stop offset="1" stop-color="#6D3945" stop-opacity="0"/>
</linearGradient>
<radialGradient id="paint61_radial_3987_24147" cx="0" cy="0" r="1" gradientUnits="userSpaceOnUse" gradientTransform="translate(16.4174 11.4537) rotate(136.341) scale(1.77237 2.55795)">
<stop offset="0.88758" stop-color="#6D3945" stop-opacity="0"/>
<stop offset="1" stop-color="#6D3945"/>
</radialGradient>
<linearGradient id="paint62_linear_3987_24147" x1="14.7832" y1="14.3369" x2="15.1017" y2="13.5024" gradientUnits="userSpaceOnUse">
<stop stop-color="#866163"/>
<stop offset="1" stop-color="#866163" stop-opacity="0"/>
</linearGradient>
<radialGradient id="paint63_radial_3987_24147" cx="0" cy="0" r="1" gradientUnits="userSpaceOnUse" gradientTransform="translate(15.4939 14.5752) rotate(-26.18) scale(2.43142 9.78221)">
<stop offset="0.562207" stop-color="#87004E"/>
<stop offset="1" stop-color="#87004D"/>
</radialGradient>
<linearGradient id="paint64_linear_3987_24147" x1="22.837" y1="5.28914" x2="11.2247" y2="5.28914" gradientUnits="userSpaceOnUse">
<stop stop-color="#443237"/>
<stop offset="1" stop-color="#362C2E"/>
</linearGradient>
<radialGradient id="paint65_radial_3987_24147" cx="0" cy="0" r="1" gradientUnits="userSpaceOnUse" gradientTransform="translate(10.7554 8.05952) rotate(-90) scale(3.50133 8.85445)">
<stop offset="0.535851" stop-color="#3E3433"/>
<stop offset="1" stop-color="#3E3433" stop-opacity="0"/>
</radialGradient>
<radialGradient id="paint66_radial_3987_24147" cx="0" cy="0" r="1" gradientUnits="userSpaceOnUse" gradientTransform="translate(20.8457 9.3698) rotate(-87.4012) scale(2.51513 4.45632)">
<stop stop-color="#4F4D4D"/>
<stop offset="1" stop-color="#4F4D4D" stop-opacity="0"/>
</radialGradient>
<radialGradient id="paint67_radial_3987_24147" cx="0" cy="0" r="1" gradientUnits="userSpaceOnUse" gradientTransform="translate(20.0915 3.09341) rotate(-146.667) scale(2.82329 2.07244)">
<stop stop-color="#402C32"/>
<stop offset="1" stop-color="#402C32" stop-opacity="0"/>
</radialGradient>
<radialGradient id="paint68_radial_3987_24147" cx="0" cy="0" r="1" gradientUnits="userSpaceOnUse" gradientTransform="translate(15.0798 1.50108) rotate(60.7265) scale(1.37364 3.1807)">
<stop offset="0.286771" stop-color="#392F31"/>
<stop offset="1" stop-color="#392F31" stop-opacity="0"/>
</radialGradient>
<radialGradient id="paint69_radial_3987_24147" cx="0" cy="0" r="1" gradientUnits="userSpaceOnUse" gradientTransform="translate(16.2384 3.76028) rotate(180) scale(2.20113 0.816924)">
<stop stop-color="#423C3F"/>
<stop offset="1" stop-color="#423C3F" stop-opacity="0"/>
</radialGradient>
<radialGradient id="paint70_radial_3987_24147" cx="0" cy="0" r="1" gradientUnits="userSpaceOnUse" gradientTransform="translate(10.5542 7.70276) rotate(-57.7244) scale(6.02662 6.67688)">
<stop offset="0.0926981" stop-color="#0B0306"/>
<stop offset="0.311222" stop-color="#1C0C20"/>
<stop offset="1" stop-color="#1C0C20" stop-opacity="0"/>
</radialGradient>
<radialGradient id="paint71_radial_3987_24147" cx="0" cy="0" r="1" gradientUnits="userSpaceOnUse" gradientTransform="translate(18.6185 7.57436) rotate(-43.6141) scale(3.69988 6.77354)">
<stop offset="0.856906" stop-color="#545051" stop-opacity="0"/>
<stop offset="1" stop-color="#545051"/>
</radialGradient>
<radialGradient id="paint72_radial_3987_24147" cx="0" cy="0" r="1" gradientUnits="userSpaceOnUse" gradientTransform="translate(17.7326 6.09789) rotate(6.66666) scale(3.27033 1.36923)">
<stop stop-color="#200E25"/>
<stop offset="1" stop-color="#200E25" stop-opacity="0"/>
</radialGradient>
<radialGradient id="paint73_radial_3987_24147" cx="0" cy="0" r="1" gradientUnits="userSpaceOnUse" gradientTransform="translate(18.1671 10.0356) rotate(90) scale(0.81132 1.2905)">
<stop offset="0.80198" stop-color="#7D574A"/>
<stop offset="1" stop-color="#694B43"/>
<stop offset="1" stop-color="#804D49"/>
<stop offset="1" stop-color="#664842"/>
</radialGradient>
<radialGradient id="paint74_radial_3987_24147" cx="0" cy="0" r="1" gradientUnits="userSpaceOnUse" gradientTransform="translate(17.9389 10.1198) rotate(-127.812) scale(0.378288 0.520811)">
<stop offset="0.765532" stop-color="#FFE6E2" stop-opacity="0"/>
<stop offset="0.966159" stop-color="#FFE6E2"/>
</radialGradient>
<linearGradient id="paint75_linear_3987_24147" x1="18.9449" y1="10.0898" x2="18.6311" y2="10.2831" gradientUnits="userSpaceOnUse">
<stop stop-color="#B4948D"/>
<stop offset="1" stop-color="#B4948D" stop-opacity="0"/>
</linearGradient>
<radialGradient id="paint76_radial_3987_24147" cx="0" cy="0" r="1" gradientUnits="userSpaceOnUse" gradientTransform="translate(13.803 10.0356) rotate(90) scale(0.811361 1.29056)">
<stop offset="0.80198" stop-color="#7D574A"/>
<stop offset="1" stop-color="#694B43"/>
<stop offset="1" stop-color="#804D49"/>
<stop offset="1" stop-color="#664842"/>
</radialGradient>
<linearGradient id="paint77_linear_3987_24147" x1="14.5469" y1="10.0897" x2="14.2331" y2="10.283" gradientUnits="userSpaceOnUse">
<stop stop-color="#B4948D"/>
<stop offset="1" stop-color="#B4948D" stop-opacity="0"/>
</linearGradient>
<radialGradient id="paint78_radial_3987_24147" cx="0" cy="0" r="1" gradientUnits="userSpaceOnUse" gradientTransform="translate(13.5165 10.255) rotate(-90.897) scale(0.494145 0.593982)">
<stop offset="0.765532" stop-color="#FFE6E2" stop-opacity="0"/>
<stop offset="0.966159" stop-color="#FFE6E2"/>
</radialGradient>
<linearGradient id="paint79_linear_3987_24147" x1="22.4213" y1="10.1166" x2="21.2145" y2="12.2929" gradientUnits="userSpaceOnUse">
<stop stop-color="#9C7B71"/>
<stop offset="1" stop-color="#815758"/>
</linearGradient>
<radialGradient id="paint80_radial_3987_24147" cx="0" cy="0" r="1" gradientUnits="userSpaceOnUse" gradientTransform="translate(20.6027 10.0496) rotate(74.3475) scale(2.32967 2.22269)">
<stop offset="0.856273" stop-color="#71404F" stop-opacity="0"/>
<stop offset="1" stop-color="#71404F"/>
</radialGradient>
<radialGradient id="paint81_radial_3987_24147" cx="0" cy="0" r="1" gradientUnits="userSpaceOnUse" gradientTransform="translate(20.9631 10.5943) rotate(-53.9198) scale(1.33768 1.12124)">
<stop offset="0.663731" stop-color="#7C4C46"/>
<stop offset="1" stop-color="#7C4C46" stop-opacity="0"/>
</radialGradient>
<radialGradient id="paint82_radial_3987_24147" cx="0" cy="0" r="1" gradientUnits="userSpaceOnUse" gradientTransform="translate(21.0771 10.7668) rotate(-69.2631) scale(1.65782 2.21508)">
<stop offset="0.803247" stop-color="#805D4C" stop-opacity="0"/>
<stop offset="1" stop-color="#805D4C"/>
</radialGradient>
<linearGradient id="paint83_linear_3987_24147" x1="10.1352" y1="10.8205" x2="11.5935" y2="10.6931" gradientUnits="userSpaceOnUse">
<stop stop-color="#6A4544"/>
<stop offset="1" stop-color="#623549"/>
</linearGradient>
<radialGradient id="paint84_radial_3987_24147" cx="0" cy="0" r="1" gradientUnits="userSpaceOnUse" gradientTransform="translate(11.0694 10.6907) rotate(-180) scale(1.65825 1.85168)">
<stop offset="0.777628" stop-color="#836158" stop-opacity="0"/>
<stop offset="1" stop-color="#836158"/>
</radialGradient>
<radialGradient id="paint85_radial_3987_24147" cx="0" cy="0" r="1" gradientUnits="userSpaceOnUse" gradientTransform="translate(11.0705 10.6931) rotate(170.26) scale(0.929883 0.953421)">
<stop stop-color="#57353C"/>
<stop offset="1" stop-color="#5B3336"/>
</radialGradient>
<linearGradient id="paint86_linear_3987_24147" x1="21.4011" y1="9.73486" x2="21.4011" y2="11.6382" gradientUnits="userSpaceOnUse">
<stop stop-color="#825D56"/>
<stop offset="1" stop-color="#7D5449"/>
</linearGradient>
</defs>
</svg>
