<svg width="32" height="32" viewBox="0 0 32 32" fill="none" xmlns="http://www.w3.org/2000/svg">
<path d="M16.0049 15.5006C9.93494 15.5006 5.00494 20.4206 5.00494 26.5006V30.0006H26.9949V26.5006C26.9949 20.4206 22.0749 15.5006 16.0049 15.5006Z" fill="url(#paint0_linear_4002_2472)"/>
<path d="M16.0049 15.5006C9.93494 15.5006 5.00494 20.4206 5.00494 26.5006V30.0006H26.9949V26.5006C26.9949 20.4206 22.0749 15.5006 16.0049 15.5006Z" fill="url(#paint1_radial_4002_2472)"/>
<path d="M23.1301 18.1237V30.0007H26.995V26.5007C26.995 23.1438 25.4952 20.1405 23.1301 18.1237Z" fill="url(#paint2_radial_4002_2472)"/>
<path d="M23.1301 18.1237V30.0007H26.995V26.5007C26.995 23.1438 25.4952 20.1405 23.1301 18.1237Z" fill="url(#paint3_radial_4002_2472)"/>
<path d="M8.87999 30.0007V18.12C6.50964 20.1369 5.00494 23.1418 5.00494 26.5007V30.0007H8.87999Z" fill="url(#paint4_radial_4002_2472)"/>
<path d="M8.87999 30.0007V18.12C6.50964 20.1369 5.00494 23.1418 5.00494 26.5007V30.0007H8.87999Z" fill="url(#paint5_linear_4002_2472)"/>
<path d="M8.87999 30.0007V18.12C6.50964 20.1369 5.00494 23.1418 5.00494 26.5007V30.0007H8.87999Z" fill="url(#paint6_radial_4002_2472)"/>
<path d="M18.705 16.1107H13.295V30.0007H18.705V16.1107Z" fill="url(#paint7_radial_4002_2472)"/>
<path d="M18.705 16.1107H13.295V30.0007H18.705V16.1107Z" fill="url(#paint8_linear_4002_2472)"/>
<path d="M18.705 16.1107H13.295V30.0007H18.705V16.1107Z" fill="url(#paint9_linear_4002_2472)"/>
<path d="M18.705 16.1107H13.295V30.0007H18.705V16.1107Z" fill="url(#paint10_radial_4002_2472)"/>
<g filter="url(#filter0_f_4002_2472)">
<path d="M16.005 15.3478H13.4894V20.0878C13.4894 20.3978 13.8236 20.5778 14.0557 20.3778L16.005 18.7078L17.9544 20.3778C18.1864 20.5778 18.5206 20.3978 18.5206 20.0878V15.3478H16.005V15.3478Z" fill="#8F809C"/>
</g>
<path d="M15.5172 21.0441C15.3937 21.0441 15.2887 21.1342 15.27 21.2563L13.935 30.0008H18.055L16.7248 21.2565C16.7062 21.1343 16.6012 21.0441 16.4776 21.0441H15.5172Z" fill="url(#paint11_radial_4002_2472)"/>
<g filter="url(#filter1_f_4002_2472)">
<path d="M12.795 16.462C12.3344 16.5788 12.4313 16.5601 11.9959 16.7329C11.455 17.5161 10.4492 18.9314 10.145 19.6056C10.055 19.7956 10.195 20.0156 10.405 20.0156L11.5845 19.8415C11.8245 19.8415 11.9345 20.1315 11.7745 20.2915L10.405 21.4879C10.145 21.7479 10.045 22.1379 10.175 22.4879L13.0686 28.8218L12.795 16.462Z" fill="#44375D"/>
</g>
<g filter="url(#filter2_ii_4002_2472)">
<path d="M13.2949 15.837C12.8343 15.9538 12.3853 16.0995 11.9499 16.2723C11.9382 16.2799 11.9265 16.2861 11.9149 16.2906L10.6449 18.9806C10.5549 19.1706 10.6949 19.3906 10.9049 19.3906H11.9549C12.1949 19.3906 12.3049 19.6806 12.1449 19.8406L10.7849 21.1706C10.5249 21.4306 10.4249 21.8206 10.5549 22.1706L13.2849 29.9906H13.2949V15.837Z" fill="url(#paint12_linear_4002_2472)"/>
<path d="M13.2949 15.837C12.8343 15.9538 12.3853 16.0995 11.9499 16.2723C11.9382 16.2799 11.9265 16.2861 11.9149 16.2906L10.6449 18.9806C10.5549 19.1706 10.6949 19.3906 10.9049 19.3906H11.9549C12.1949 19.3906 12.3049 19.6806 12.1449 19.8406L10.7849 21.1706C10.5249 21.4306 10.4249 21.8206 10.5549 22.1706L13.2849 29.9906H13.2949V15.837Z" fill="url(#paint13_radial_4002_2472)"/>
<path d="M13.2949 15.837C12.8343 15.9538 12.3853 16.0995 11.9499 16.2723C11.9382 16.2799 11.9265 16.2861 11.9149 16.2906L10.6449 18.9806C10.5549 19.1706 10.6949 19.3906 10.9049 19.3906H11.9549C12.1949 19.3906 12.3049 19.6806 12.1449 19.8406L10.7849 21.1706C10.5249 21.4306 10.4249 21.8206 10.5549 22.1706L13.2849 29.9906H13.2949V15.837Z" fill="url(#paint14_radial_4002_2472)"/>
</g>
<path d="M13.2949 15.837C12.8343 15.9538 12.3853 16.0995 11.9499 16.2723C11.9382 16.2799 11.9265 16.2861 11.9149 16.2906L10.6449 18.9806C10.5549 19.1706 10.6949 19.3906 10.9049 19.3906H11.9549C12.1949 19.3906 12.3049 19.6806 12.1449 19.8406L10.7849 21.1706C10.5249 21.4306 10.4249 21.8206 10.5549 22.1706L13.2849 29.9906H13.2949V15.837Z" fill="url(#paint15_linear_4002_2472)"/>
<g filter="url(#filter3_f_4002_2472)">
<path d="M20.0551 20.4789L20.4987 21.5283C20.7007 21.7883 20.7707 22.1783 20.6774 22.5383L19.3817 27.1845L19.1616 16.7389L19.2523 16.5558C19.5905 16.6713 19.9205 16.8129 20.2408 16.9787L21.2207 19.6189C21.2906 19.8089 21.1818 20.0289 21.0186 20.0289H20.2028C20.0163 20.0289 19.923 20.3089 20.0551 20.4789Z" fill="#44375D"/>
</g>
<g filter="url(#filter4_ii_4002_2472)">
<path d="M19.8649 19.7907L21.2249 21.1207C21.4849 21.3807 21.5749 21.7707 21.4549 22.1307L18.7149 29.9907V16.0507L18.8317 15.8676C19.2669 15.9831 19.6916 16.1246 20.1039 16.2905L21.3649 18.9307C21.4549 19.1207 21.3149 19.3407 21.1049 19.3407H20.0549C19.8149 19.3407 19.6949 19.6207 19.8649 19.7907Z" fill="url(#paint16_linear_4002_2472)"/>
<path d="M19.8649 19.7907L21.2249 21.1207C21.4849 21.3807 21.5749 21.7707 21.4549 22.1307L18.7149 29.9907V16.0507L18.8317 15.8676C19.2669 15.9831 19.6916 16.1246 20.1039 16.2905L21.3649 18.9307C21.4549 19.1207 21.3149 19.3407 21.1049 19.3407H20.0549C19.8149 19.3407 19.6949 19.6207 19.8649 19.7907Z" fill="url(#paint17_radial_4002_2472)"/>
</g>
<path d="M16.005 15.2843H13.295V20.0243C13.295 20.3343 13.655 20.5143 13.905 20.3143L16.005 18.6443L18.105 20.3143C18.355 20.5143 18.715 20.3343 18.715 20.0243V15.2843H16.005V15.2843Z" fill="url(#paint18_radial_4002_2472)"/>
<path d="M16.005 15.2843H13.295V20.0243C13.295 20.3343 13.655 20.5143 13.905 20.3143L16.005 18.6443L18.105 20.3143C18.355 20.5143 18.715 20.3343 18.715 20.0243V15.2843H16.005V15.2843Z" fill="url(#paint19_radial_4002_2472)"/>
<path d="M16.005 15.2843H13.295V20.0243C13.295 20.3343 13.655 20.5143 13.905 20.3143L16.005 18.6443L18.105 20.3143C18.355 20.5143 18.715 20.3343 18.715 20.0243V15.2843H16.005V15.2843Z" fill="url(#paint20_linear_4002_2472)"/>
<path d="M16.005 15.2843H13.295V20.0243C13.295 20.3343 13.655 20.5143 13.905 20.3143L16.005 18.6443L18.105 20.3143C18.355 20.5143 18.715 20.3343 18.715 20.0243V15.2843H16.005V15.2843Z" fill="url(#paint21_linear_4002_2472)"/>
<g filter="url(#filter5_i_4002_2472)">
<path d="M16.0049 18.4451C17.794 17.6573 17.9368 17.1291 17.9239 16.7457H14.0859C14.0729 17.1291 14.3096 17.7159 16.0049 18.4451Z" fill="url(#paint22_radial_4002_2472)"/>
</g>
<g filter="url(#filter6_i_4002_2472)">
<circle cx="11.2488" cy="10.5598" r="1.66932" fill="url(#paint23_radial_4002_2472)"/>
</g>
<g filter="url(#filter7_f_4002_2472)">
<circle cx="11.2487" cy="10.5597" r="0.994888" fill="url(#paint24_linear_4002_2472)"/>
</g>
<g filter="url(#filter8_i_4002_2472)">
<circle cx="20.7613" cy="10.5598" r="1.66932" fill="url(#paint25_linear_4002_2472)"/>
<circle cx="20.7613" cy="10.5598" r="1.66932" fill="url(#paint26_radial_4002_2472)"/>
</g>
<g filter="url(#filter9_f_4002_2472)">
<circle cx="20.7613" cy="10.5597" r="0.994888" fill="#E4AF9A"/>
<circle cx="20.7613" cy="10.5597" r="0.994888" fill="url(#paint27_radial_4002_2472)"/>
<circle cx="20.7613" cy="10.5597" r="0.994888" fill="url(#paint28_radial_4002_2472)"/>
</g>
<g filter="url(#filter10_i_4002_2472)">
<path d="M10.8387 8.50874C10.8387 8.2421 10.946 7.92212 11.1605 7.76213L11.3214 7.60214C11.5896 7.38883 11.6968 7.06885 11.6968 6.74887V5.8956C11.6968 5.62895 11.8577 5.41563 12.1259 5.3623C12.7695 5.20232 14.1104 4.93567 16.0413 4.93567C17.9721 4.93567 19.313 5.20232 19.9566 5.3623C20.1712 5.41563 20.3857 5.62895 20.3857 5.8956V6.74887C20.3857 7.06885 20.5466 7.38883 20.7612 7.60214C21.2632 7.95394 21.2319 8.14743 21.1902 8.56207C21.1366 9.09537 21.083 10.002 21.083 10.002C21.089 10.002 21.0951 10.0019 21.1011 10.0017L20.8352 13.9599C20.6747 15.7293 19.2837 16.9626 17.6251 16.9626H14.415C12.703 16.9626 11.3654 15.7293 11.2049 13.9599C11.0655 12.1436 11.0045 10.3219 10.8387 8.50874Z" fill="url(#paint29_linear_4002_2472)"/>
<path d="M10.8387 8.50874C10.8387 8.2421 10.946 7.92212 11.1605 7.76213L11.3214 7.60214C11.5896 7.38883 11.6968 7.06885 11.6968 6.74887V5.8956C11.6968 5.62895 11.8577 5.41563 12.1259 5.3623C12.7695 5.20232 14.1104 4.93567 16.0413 4.93567C17.9721 4.93567 19.313 5.20232 19.9566 5.3623C20.1712 5.41563 20.3857 5.62895 20.3857 5.8956V6.74887C20.3857 7.06885 20.5466 7.38883 20.7612 7.60214C21.2632 7.95394 21.2319 8.14743 21.1902 8.56207C21.1366 9.09537 21.083 10.002 21.083 10.002C21.089 10.002 21.0951 10.0019 21.1011 10.0017L20.8352 13.9599C20.6747 15.7293 19.2837 16.9626 17.6251 16.9626H14.415C12.703 16.9626 11.3654 15.7293 11.2049 13.9599C11.0655 12.1436 11.0045 10.3219 10.8387 8.50874Z" fill="url(#paint30_radial_4002_2472)"/>
<path d="M10.8387 8.50874C10.8387 8.2421 10.946 7.92212 11.1605 7.76213L11.3214 7.60214C11.5896 7.38883 11.6968 7.06885 11.6968 6.74887V5.8956C11.6968 5.62895 11.8577 5.41563 12.1259 5.3623C12.7695 5.20232 14.1104 4.93567 16.0413 4.93567C17.9721 4.93567 19.313 5.20232 19.9566 5.3623C20.1712 5.41563 20.3857 5.62895 20.3857 5.8956V6.74887C20.3857 7.06885 20.5466 7.38883 20.7612 7.60214C21.2632 7.95394 21.2319 8.14743 21.1902 8.56207C21.1366 9.09537 21.083 10.002 21.083 10.002C21.089 10.002 21.0951 10.0019 21.1011 10.0017L20.8352 13.9599C20.6747 15.7293 19.2837 16.9626 17.6251 16.9626H14.415C12.703 16.9626 11.3654 15.7293 11.2049 13.9599C11.0655 12.1436 11.0045 10.3219 10.8387 8.50874Z" fill="url(#paint31_linear_4002_2472)"/>
<path d="M10.8387 8.50874C10.8387 8.2421 10.946 7.92212 11.1605 7.76213L11.3214 7.60214C11.5896 7.38883 11.6968 7.06885 11.6968 6.74887V5.8956C11.6968 5.62895 11.8577 5.41563 12.1259 5.3623C12.7695 5.20232 14.1104 4.93567 16.0413 4.93567C17.9721 4.93567 19.313 5.20232 19.9566 5.3623C20.1712 5.41563 20.3857 5.62895 20.3857 5.8956V6.74887C20.3857 7.06885 20.5466 7.38883 20.7612 7.60214C21.2632 7.95394 21.2319 8.14743 21.1902 8.56207C21.1366 9.09537 21.083 10.002 21.083 10.002C21.089 10.002 21.0951 10.0019 21.1011 10.0017L20.8352 13.9599C20.6747 15.7293 19.2837 16.9626 17.6251 16.9626H14.415C12.703 16.9626 11.3654 15.7293 11.2049 13.9599C11.0655 12.1436 11.0045 10.3219 10.8387 8.50874Z" fill="url(#paint32_linear_4002_2472)"/>
<path d="M10.8387 8.50874C10.8387 8.2421 10.946 7.92212 11.1605 7.76213L11.3214 7.60214C11.5896 7.38883 11.6968 7.06885 11.6968 6.74887V5.8956C11.6968 5.62895 11.8577 5.41563 12.1259 5.3623C12.7695 5.20232 14.1104 4.93567 16.0413 4.93567C17.9721 4.93567 19.313 5.20232 19.9566 5.3623C20.1712 5.41563 20.3857 5.62895 20.3857 5.8956V6.74887C20.3857 7.06885 20.5466 7.38883 20.7612 7.60214C21.2632 7.95394 21.2319 8.14743 21.1902 8.56207C21.1366 9.09537 21.083 10.002 21.083 10.002C21.089 10.002 21.0951 10.0019 21.1011 10.0017L20.8352 13.9599C20.6747 15.7293 19.2837 16.9626 17.6251 16.9626H14.415C12.703 16.9626 11.3654 15.7293 11.2049 13.9599C11.0655 12.1436 11.0045 10.3219 10.8387 8.50874Z" fill="url(#paint33_radial_4002_2472)"/>
<path d="M10.8387 8.50874C10.8387 8.2421 10.946 7.92212 11.1605 7.76213L11.3214 7.60214C11.5896 7.38883 11.6968 7.06885 11.6968 6.74887V5.8956C11.6968 5.62895 11.8577 5.41563 12.1259 5.3623C12.7695 5.20232 14.1104 4.93567 16.0413 4.93567C17.9721 4.93567 19.313 5.20232 19.9566 5.3623C20.1712 5.41563 20.3857 5.62895 20.3857 5.8956V6.74887C20.3857 7.06885 20.5466 7.38883 20.7612 7.60214C21.2632 7.95394 21.2319 8.14743 21.1902 8.56207C21.1366 9.09537 21.083 10.002 21.083 10.002C21.089 10.002 21.0951 10.0019 21.1011 10.0017L20.8352 13.9599C20.6747 15.7293 19.2837 16.9626 17.6251 16.9626H14.415C12.703 16.9626 11.3654 15.7293 11.2049 13.9599C11.0655 12.1436 11.0045 10.3219 10.8387 8.50874Z" fill="url(#paint34_radial_4002_2472)"/>
<path d="M10.8387 8.50874C10.8387 8.2421 10.946 7.92212 11.1605 7.76213L11.3214 7.60214C11.5896 7.38883 11.6968 7.06885 11.6968 6.74887V5.8956C11.6968 5.62895 11.8577 5.41563 12.1259 5.3623C12.7695 5.20232 14.1104 4.93567 16.0413 4.93567C17.9721 4.93567 19.313 5.20232 19.9566 5.3623C20.1712 5.41563 20.3857 5.62895 20.3857 5.8956V6.74887C20.3857 7.06885 20.5466 7.38883 20.7612 7.60214C21.2632 7.95394 21.2319 8.14743 21.1902 8.56207C21.1366 9.09537 21.083 10.002 21.083 10.002C21.089 10.002 21.0951 10.0019 21.1011 10.0017L20.8352 13.9599C20.6747 15.7293 19.2837 16.9626 17.6251 16.9626H14.415C12.703 16.9626 11.3654 15.7293 11.2049 13.9599C11.0655 12.1436 11.0045 10.3219 10.8387 8.50874Z" fill="url(#paint35_radial_4002_2472)"/>
</g>
<g filter="url(#filter11_f_4002_2472)">
<path d="M15.7209 10.4375L14.9007 12.137C14.799 12.4865 15.043 12.8361 15.3887 12.8361H16.1259C16.4716 12.8361 16.7156 12.4812 16.6139 12.137L16.1157 10.4375C16.0089 10.061 15.8328 10.061 15.7209 10.4375Z" fill="#D89992"/>
</g>
<g filter="url(#filter12_f_4002_2472)">
<path d="M15.6142 10.2744L15.0829 11.9739C14.9744 12.3235 15.2347 12.673 15.6033 12.673H16.3894C16.7581 12.673 17.0183 12.3181 16.9099 11.9739L16.3786 10.2744C16.2647 9.89795 15.7334 9.89795 15.6142 10.2744Z" fill="#FBC4B1"/>
<path d="M15.6142 10.2744L15.0829 11.9739C14.9744 12.3235 15.2347 12.673 15.6033 12.673H16.3894C16.7581 12.673 17.0183 12.3181 16.9099 11.9739L16.3786 10.2744C16.2647 9.89795 15.7334 9.89795 15.6142 10.2744Z" fill="url(#paint36_linear_4002_2472)"/>
<path d="M15.6142 10.2744L15.0829 11.9739C14.9744 12.3235 15.2347 12.673 15.6033 12.673H16.3894C16.7581 12.673 17.0183 12.3181 16.9099 11.9739L16.3786 10.2744C16.2647 9.89795 15.7334 9.89795 15.6142 10.2744Z" fill="url(#paint37_linear_4002_2472)"/>
<path d="M15.6142 10.2744L15.0829 11.9739C14.9744 12.3235 15.2347 12.673 15.6033 12.673H16.3894C16.7581 12.673 17.0183 12.3181 16.9099 11.9739L16.3786 10.2744C16.2647 9.89795 15.7334 9.89795 15.6142 10.2744Z" fill="url(#paint38_linear_4002_2472)"/>
<path d="M15.6142 10.2744L15.0829 11.9739C14.9744 12.3235 15.2347 12.673 15.6033 12.673H16.3894C16.7581 12.673 17.0183 12.3181 16.9099 11.9739L16.3786 10.2744C16.2647 9.89795 15.7334 9.89795 15.6142 10.2744Z" fill="url(#paint39_radial_4002_2472)"/>
<path d="M15.6142 10.2744L15.0829 11.9739C14.9744 12.3235 15.2347 12.673 15.6033 12.673H16.3894C16.7581 12.673 17.0183 12.3181 16.9099 11.9739L16.3786 10.2744C16.2647 9.89795 15.7334 9.89795 15.6142 10.2744Z" fill="url(#paint40_linear_4002_2472)"/>
</g>
<g filter="url(#filter13_f_4002_2472)">
<path d="M15.9962 13.6895C15.4889 13.6895 15.012 13.5701 14.6112 13.3611C14.4742 13.2915 14.3271 13.4457 14.4134 13.5701C14.7482 14.0775 15.3316 14.4158 15.9962 14.4158C16.6608 14.4158 17.2442 14.0775 17.5791 13.5701C17.6653 13.4407 17.5182 13.2915 17.3812 13.3611C16.9804 13.5701 16.5086 13.6895 15.9962 13.6895Z" stroke="url(#paint41_linear_4002_2472)" stroke-width="0.2"/>
</g>
<path d="M15.9962 13.6895C15.4889 13.6895 15.012 13.5701 14.6112 13.3611C14.4742 13.2915 14.3271 13.4457 14.4134 13.5701C14.7482 14.0775 15.3316 14.4158 15.9962 14.4158C16.6608 14.4158 17.2442 14.0775 17.5791 13.5701C17.6653 13.4407 17.5182 13.2915 17.3812 13.3611C16.9804 13.5701 16.5086 13.6895 15.9962 13.6895Z" fill="#88024E"/>
<path d="M18.3838 9.12927C19.0367 9.12927 19.5882 9.57941 19.7383 10.1877C19.7829 10.3621 19.6491 10.5284 19.4706 10.5284H17.2402C17.0983 10.5284 16.9847 10.3986 17.0131 10.2566C17.1388 9.61591 17.7025 9.12927 18.3838 9.12927Z" fill="white"/>
<path d="M18.177 9.401C18.6718 9.401 19.0692 9.80248 19.0692 10.2932C19.0692 10.3743 19.0571 10.4554 19.0368 10.5284H17.3133C17.293 10.4513 17.2808 10.3743 17.2808 10.2932C17.2808 9.80248 17.6823 9.401 18.177 9.401Z" fill="url(#paint42_radial_4002_2472)"/>
<path d="M17.6661 10.2931C17.6661 10.0092 17.8932 9.7821 18.177 9.7821C18.4609 9.7821 18.688 10.0092 18.688 10.2931C18.688 10.3782 18.6677 10.4593 18.6312 10.5283H17.7269C17.6864 10.4593 17.6661 10.3782 17.6661 10.2931Z" fill="black"/>
<g filter="url(#filter14_f_4002_2472)">
<path d="M18.1114 9.58952C18.175 9.67453 18.0421 9.77817 17.8911 9.89112C17.74 10.0041 17.6279 10.0836 17.5644 9.99854C17.5008 9.91352 17.5717 9.75304 17.7228 9.64009C17.8739 9.52715 18.0479 9.5045 18.1114 9.58952Z" fill="#C7A7A3"/>
<path d="M18.1114 9.58952C18.175 9.67453 18.0421 9.77817 17.8911 9.89112C17.74 10.0041 17.6279 10.0836 17.5644 9.99854C17.5008 9.91352 17.5717 9.75304 17.7228 9.64009C17.8739 9.52715 18.0479 9.5045 18.1114 9.58952Z" fill="url(#paint43_radial_4002_2472)"/>
</g>
<g filter="url(#filter15_f_4002_2472)">
<path d="M18.9717 10.1756C18.9388 9.94493 18.8038 9.7711 18.7404 9.71301L18.4807 9.99815L18.5979 10.2263L18.9717 10.1756Z" fill="url(#paint44_linear_4002_2472)"/>
</g>
<path d="M13.6035 9.12903C12.9505 9.12903 12.399 9.57919 12.2489 10.1875C12.2043 10.3619 12.3382 10.5282 12.5166 10.5282H14.7471C14.8891 10.5282 15.0026 10.3984 14.9743 10.2565C14.8485 9.61569 14.2808 9.12903 13.6035 9.12903Z" fill="white"/>
<path d="M13.8104 9.40076C13.3156 9.40076 12.9182 9.80225 12.9182 10.293C12.9182 10.3741 12.9303 10.4552 12.9506 10.5282H14.6742C14.6945 10.4511 14.7066 10.3741 14.7066 10.293C14.7026 9.80225 14.3051 9.40076 13.8104 9.40076Z" fill="url(#paint45_radial_4002_2472)"/>
<path d="M14.3214 10.2931C14.3214 10.0092 14.0943 9.7821 13.8104 9.7821C13.5265 9.7821 13.2994 10.0092 13.2994 10.2931C13.2994 10.3783 13.3197 10.4594 13.3562 10.5283H14.2605C14.297 10.4594 14.3214 10.3783 14.3214 10.2931Z" fill="black"/>
<g filter="url(#filter16_f_4002_2472)">
<path d="M14.6254 10.1882C14.6254 9.89984 14.3909 9.70762 14.3276 9.64954L14.0392 9.92835L14.2167 10.2895L14.6254 10.1882Z" fill="url(#paint46_linear_4002_2472)"/>
</g>
<g filter="url(#filter17_f_4002_2472)">
<ellipse cx="13.5411" cy="9.78201" rx="0.389499" ry="0.197123" transform="rotate(-27.914 13.5411 9.78201)" fill="#C7A7A3" fill-opacity="0.9"/>
<ellipse cx="13.5411" cy="9.78201" rx="0.389499" ry="0.197123" transform="rotate(-27.914 13.5411 9.78201)" fill="url(#paint47_radial_4002_2472)"/>
</g>
<g filter="url(#filter18_i_4002_2472)">
<path d="M20.8081 4.40759L21.2377 4.60894C21.9893 4.96129 22.4188 5.76668 22.2578 6.6224L21.6672 9.49159C21.6145 9.78791 21.3838 9.99627 21.0717 10.0037C21.1074 9.52841 21.1486 8.7538 21.1616 8.6326C21.2052 8.22384 21.1519 8.10239 20.7544 7.72978C20.5397 7.52843 20.3786 7.22641 20.3786 6.92439V6.11901C20.3786 5.86732 20.1639 5.66598 19.9491 5.61564C19.3048 5.46463 17.9626 5.21295 16.0297 5.21295C14.0969 5.21295 12.7546 5.46463 12.1103 5.61564C11.8419 5.66598 11.6808 5.86732 11.6808 6.11901V6.92439C11.6808 7.22641 11.5734 7.52843 11.305 7.72978C11.0224 7.97336 10.8412 8.05684 10.8412 8.56702C10.8555 8.71384 10.9072 9.59017 10.9311 9.94202C10.6311 9.92268 10.3358 9.72778 10.2848 9.44125L9.69425 6.57206C9.58687 5.76668 10.0164 4.96129 10.7681 4.60894C11.7827 4.18954 12.1525 3.55285 12.9694 2.89749C13.5599 2.39413 14.419 2.24312 15.1707 2.59547C15.7076 2.74648 16.2981 2.74648 16.8351 2.59547C17.6404 2.34379 18.5531 2.54514 19.1974 3.09884L20.0028 3.85389C20.2175 4.10557 20.486 4.25658 20.8081 4.40759Z" fill="#242324"/>
<path d="M20.8081 4.40759L21.2377 4.60894C21.9893 4.96129 22.4188 5.76668 22.2578 6.6224L21.6672 9.49159C21.6145 9.78791 21.3838 9.99627 21.0717 10.0037C21.1074 9.52841 21.1486 8.7538 21.1616 8.6326C21.2052 8.22384 21.1519 8.10239 20.7544 7.72978C20.5397 7.52843 20.3786 7.22641 20.3786 6.92439V6.11901C20.3786 5.86732 20.1639 5.66598 19.9491 5.61564C19.3048 5.46463 17.9626 5.21295 16.0297 5.21295C14.0969 5.21295 12.7546 5.46463 12.1103 5.61564C11.8419 5.66598 11.6808 5.86732 11.6808 6.11901V6.92439C11.6808 7.22641 11.5734 7.52843 11.305 7.72978C11.0224 7.97336 10.8412 8.05684 10.8412 8.56702C10.8555 8.71384 10.9072 9.59017 10.9311 9.94202C10.6311 9.92268 10.3358 9.72778 10.2848 9.44125L9.69425 6.57206C9.58687 5.76668 10.0164 4.96129 10.7681 4.60894C11.7827 4.18954 12.1525 3.55285 12.9694 2.89749C13.5599 2.39413 14.419 2.24312 15.1707 2.59547C15.7076 2.74648 16.2981 2.74648 16.8351 2.59547C17.6404 2.34379 18.5531 2.54514 19.1974 3.09884L20.0028 3.85389C20.2175 4.10557 20.486 4.25658 20.8081 4.40759Z" fill="url(#paint48_radial_4002_2472)"/>
<path d="M20.8081 4.40759L21.2377 4.60894C21.9893 4.96129 22.4188 5.76668 22.2578 6.6224L21.6672 9.49159C21.6145 9.78791 21.3838 9.99627 21.0717 10.0037C21.1074 9.52841 21.1486 8.7538 21.1616 8.6326C21.2052 8.22384 21.1519 8.10239 20.7544 7.72978C20.5397 7.52843 20.3786 7.22641 20.3786 6.92439V6.11901C20.3786 5.86732 20.1639 5.66598 19.9491 5.61564C19.3048 5.46463 17.9626 5.21295 16.0297 5.21295C14.0969 5.21295 12.7546 5.46463 12.1103 5.61564C11.8419 5.66598 11.6808 5.86732 11.6808 6.11901V6.92439C11.6808 7.22641 11.5734 7.52843 11.305 7.72978C11.0224 7.97336 10.8412 8.05684 10.8412 8.56702C10.8555 8.71384 10.9072 9.59017 10.9311 9.94202C10.6311 9.92268 10.3358 9.72778 10.2848 9.44125L9.69425 6.57206C9.58687 5.76668 10.0164 4.96129 10.7681 4.60894C11.7827 4.18954 12.1525 3.55285 12.9694 2.89749C13.5599 2.39413 14.419 2.24312 15.1707 2.59547C15.7076 2.74648 16.2981 2.74648 16.8351 2.59547C17.6404 2.34379 18.5531 2.54514 19.1974 3.09884L20.0028 3.85389C20.2175 4.10557 20.486 4.25658 20.8081 4.40759Z" fill="url(#paint49_radial_4002_2472)"/>
<path d="M20.8081 4.40759L21.2377 4.60894C21.9893 4.96129 22.4188 5.76668 22.2578 6.6224L21.6672 9.49159C21.6145 9.78791 21.3838 9.99627 21.0717 10.0037C21.1074 9.52841 21.1486 8.7538 21.1616 8.6326C21.2052 8.22384 21.1519 8.10239 20.7544 7.72978C20.5397 7.52843 20.3786 7.22641 20.3786 6.92439V6.11901C20.3786 5.86732 20.1639 5.66598 19.9491 5.61564C19.3048 5.46463 17.9626 5.21295 16.0297 5.21295C14.0969 5.21295 12.7546 5.46463 12.1103 5.61564C11.8419 5.66598 11.6808 5.86732 11.6808 6.11901V6.92439C11.6808 7.22641 11.5734 7.52843 11.305 7.72978C11.0224 7.97336 10.8412 8.05684 10.8412 8.56702C10.8555 8.71384 10.9072 9.59017 10.9311 9.94202C10.6311 9.92268 10.3358 9.72778 10.2848 9.44125L9.69425 6.57206C9.58687 5.76668 10.0164 4.96129 10.7681 4.60894C11.7827 4.18954 12.1525 3.55285 12.9694 2.89749C13.5599 2.39413 14.419 2.24312 15.1707 2.59547C15.7076 2.74648 16.2981 2.74648 16.8351 2.59547C17.6404 2.34379 18.5531 2.54514 19.1974 3.09884L20.0028 3.85389C20.2175 4.10557 20.486 4.25658 20.8081 4.40759Z" fill="url(#paint50_radial_4002_2472)"/>
<path d="M20.8081 4.40759L21.2377 4.60894C21.9893 4.96129 22.4188 5.76668 22.2578 6.6224L21.6672 9.49159C21.6145 9.78791 21.3838 9.99627 21.0717 10.0037C21.1074 9.52841 21.1486 8.7538 21.1616 8.6326C21.2052 8.22384 21.1519 8.10239 20.7544 7.72978C20.5397 7.52843 20.3786 7.22641 20.3786 6.92439V6.11901C20.3786 5.86732 20.1639 5.66598 19.9491 5.61564C19.3048 5.46463 17.9626 5.21295 16.0297 5.21295C14.0969 5.21295 12.7546 5.46463 12.1103 5.61564C11.8419 5.66598 11.6808 5.86732 11.6808 6.11901V6.92439C11.6808 7.22641 11.5734 7.52843 11.305 7.72978C11.0224 7.97336 10.8412 8.05684 10.8412 8.56702C10.8555 8.71384 10.9072 9.59017 10.9311 9.94202C10.6311 9.92268 10.3358 9.72778 10.2848 9.44125L9.69425 6.57206C9.58687 5.76668 10.0164 4.96129 10.7681 4.60894C11.7827 4.18954 12.1525 3.55285 12.9694 2.89749C13.5599 2.39413 14.419 2.24312 15.1707 2.59547C15.7076 2.74648 16.2981 2.74648 16.8351 2.59547C17.6404 2.34379 18.5531 2.54514 19.1974 3.09884L20.0028 3.85389C20.2175 4.10557 20.486 4.25658 20.8081 4.40759Z" fill="url(#paint51_radial_4002_2472)"/>
</g>
<g filter="url(#filter19_ii_4002_2472)">
<path d="M14.7315 19.6613L15.9985 18.5636L17.2667 19.6378L16.7207 20.9029C16.6816 20.989 16.5972 21.0441 16.5044 21.0441H15.483C15.3901 21.0441 15.3058 20.989 15.2667 20.9029L14.7315 19.6613Z" fill="url(#paint52_linear_4002_2472)"/>
</g>
<g filter="url(#filter20_f_4002_2472)">
<path d="M23.2467 19.8358H22.6354C22.4158 19.8358 22.2152 19.9654 22.1197 20.1647C22.1102 20.1846 22.0815 20.1846 22.0815 20.1647C21.986 19.9654 21.7855 19.8358 21.5658 19.8358H20.9737C20.8495 19.8358 20.7445 19.9255 20.7349 20.0551C20.7254 20.1846 20.8304 20.3042 20.9546 20.3042H21.1074C21.2862 20.3042 21.2862 20.3836 21.32 20.454C21.3773 20.5736 21.4919 20.6533 21.6256 20.6533H21.8643L22.4034 20.7822C22.5371 20.7822 22.8646 20.683 22.9219 20.5634L23.0079 20.364C23.027 20.3242 23.0652 20.3042 23.1034 20.3042H23.2467C23.3708 20.3042 23.4759 20.2145 23.4854 20.085C23.4759 19.9454 23.3708 19.8358 23.2467 19.8358Z" fill="#473A60"/>
</g>
<g filter="url(#filter21_ii_4002_2472)">
<path d="M23.3649 19.7806H22.7249C22.4949 19.7806 22.2849 19.9106 22.1849 20.1106C22.1749 20.1306 22.1449 20.1306 22.1449 20.1106C22.0449 19.9106 21.8349 19.7806 21.6049 19.7806H20.9849C20.8549 19.7806 20.7449 19.8706 20.7349 20.0006C20.7249 20.1306 20.8349 20.2506 20.9649 20.2506H21.1249C21.1649 20.2506 21.2049 20.2706 21.2249 20.3106L21.3149 20.5106C21.3749 20.6306 21.4949 20.7106 21.6349 20.7106H21.8849H22.4549H22.7049C22.8449 20.7106 22.9649 20.6306 23.0249 20.5106L23.1149 20.3106C23.1349 20.2706 23.1749 20.2506 23.2149 20.2506H23.3649C23.4949 20.2506 23.6049 20.1606 23.6149 20.0306C23.6049 19.8906 23.4949 19.7806 23.3649 19.7806Z" fill="url(#paint53_linear_4002_2472)"/>
</g>
<path d="M21.7465 3.55065C19.0865 1.89065 16.0465 2.00065 16.0065 2.00065C15.9665 2.00065 12.8665 1.99065 10.2665 3.54065C9.26652 4.14065 9.07652 5.50065 9.87652 6.34065L10.5565 7.06065H15.9965H16.0165H21.4565L22.1365 6.34065C22.9365 5.51065 22.7365 4.16065 21.7465 3.55065Z" fill="url(#paint54_radial_4002_2472)"/>
<path d="M21.7465 3.55065C19.0865 1.89065 16.0465 2.00065 16.0065 2.00065C15.9665 2.00065 12.8665 1.99065 10.2665 3.54065C9.26652 4.14065 9.07652 5.50065 9.87652 6.34065L10.5565 7.06065H15.9965H16.0165H21.4565L22.1365 6.34065C22.9365 5.51065 22.7365 4.16065 21.7465 3.55065Z" fill="url(#paint55_radial_4002_2472)"/>
<path d="M21.7465 3.55065C19.0865 1.89065 16.0465 2.00065 16.0065 2.00065C15.9665 2.00065 12.8665 1.99065 10.2665 3.54065C9.26652 4.14065 9.07652 5.50065 9.87652 6.34065L10.5565 7.06065H15.9965H16.0165H21.4565L22.1365 6.34065C22.9365 5.51065 22.7365 4.16065 21.7465 3.55065Z" fill="url(#paint56_radial_4002_2472)"/>
<g filter="url(#filter22_i_4002_2472)">
<path d="M16.005 6.3306C16.005 6.3306 13.475 6.3006 10.555 7.0606L10.955 7.53061C11.685 8.40061 12.765 8.90061 13.905 8.90061H18.095C19.235 8.90061 20.315 8.40061 21.055 7.53061L21.455 7.0606C18.535 6.3006 16.005 6.3306 16.005 6.3306Z" fill="url(#paint57_radial_4002_2472)"/>
</g>
<path d="M15.955 5.52063H16.055C16.445 5.52063 18.325 5.54063 20.615 6.03063C21.105 6.13063 21.455 6.56063 21.455 7.06063C18.535 6.30061 16.005 6.3306 16.005 6.3306C16.005 6.3306 13.475 6.30061 10.555 7.06063C10.555 6.56063 10.905 6.13063 11.395 6.03063C13.685 5.55063 15.555 5.52063 15.955 5.52063Z" fill="url(#paint58_linear_4002_2472)"/>
<path d="M15.955 5.52063H16.055C16.445 5.52063 18.325 5.54063 20.615 6.03063C21.105 6.13063 21.455 6.56063 21.455 7.06063C18.535 6.30061 16.005 6.3306 16.005 6.3306C16.005 6.3306 13.475 6.30061 10.555 7.06063C10.555 6.56063 10.905 6.13063 11.395 6.03063C13.685 5.55063 15.555 5.52063 15.955 5.52063Z" fill="url(#paint59_radial_4002_2472)"/>
<path d="M15.955 5.52063H16.055C16.445 5.52063 18.325 5.54063 20.615 6.03063C21.105 6.13063 21.455 6.56063 21.455 7.06063C18.535 6.30061 16.005 6.3306 16.005 6.3306C16.005 6.3306 13.475 6.30061 10.555 7.06063C10.555 6.56063 10.905 6.13063 11.395 6.03063C13.685 5.55063 15.555 5.52063 15.955 5.52063Z" fill="url(#paint60_radial_4002_2472)"/>
<g filter="url(#filter23_f_4002_2472)">
<path d="M16.7931 4.35172H17.4263C17.5063 4.35172 17.5663 4.31171 17.6063 4.24171L18.1563 3.29172C18.1963 3.22171 18.1463 3.13171 18.0663 3.13171H16.6663C16.5863 3.13171 16.5263 3.17171 16.4863 3.24171L16.2113 3.71663C16.1482 3.70036 16.082 3.69171 16.0137 3.69171C15.9382 3.69171 15.8652 3.7023 15.796 3.72208L15.5237 3.25172C15.4837 3.18172 15.4237 3.14172 15.3437 3.14172H13.9437C13.8637 3.14172 13.8137 3.23171 13.8537 3.30172L14.3937 4.24171C14.4337 4.31171 14.4937 4.35172 14.5737 4.35172H15.2344C15.2274 4.394 15.2237 4.43743 15.2237 4.48171C15.2237 4.91801 15.5774 5.27171 16.0137 5.27171C16.45 5.27171 16.8037 4.91801 16.8037 4.48171C16.8037 4.43743 16.8001 4.394 16.7931 4.35172Z" fill="#382534"/>
</g>
<g filter="url(#filter24_i_4002_2472)">
<path d="M16.0449 4.24064H14.6449C14.5649 4.24064 14.5049 4.20064 14.4649 4.13064L13.9249 3.19064C13.8849 3.12064 13.9349 3.03064 14.0149 3.03064H15.4149C15.4949 3.03064 15.5549 3.07064 15.5949 3.14064L16.1449 4.09064C16.1749 4.15064 16.1249 4.24064 16.0449 4.24064Z" fill="url(#paint61_linear_4002_2472)"/>
<path d="M16.0449 4.24064H14.6449C14.5649 4.24064 14.5049 4.20064 14.4649 4.13064L13.9249 3.19064C13.8849 3.12064 13.9349 3.03064 14.0149 3.03064H15.4149C15.4949 3.03064 15.5549 3.07064 15.5949 3.14064L16.1449 4.09064C16.1749 4.15064 16.1249 4.24064 16.0449 4.24064Z" fill="url(#paint62_radial_4002_2472)"/>
</g>
<g filter="url(#filter25_i_4002_2472)">
<path d="M16.0975 4.24063H17.4975C17.5775 4.24063 17.6375 4.20063 17.6775 4.13063L18.2275 3.18063C18.2675 3.11063 18.2175 3.02063 18.1375 3.02063H16.7375C16.6575 3.02063 16.5975 3.06063 16.5575 3.13063L16.0075 4.08063C15.9675 4.15063 16.0175 4.24063 16.0975 4.24063Z" fill="url(#paint63_linear_4002_2472)"/>
</g>
<g filter="url(#filter26_i_4002_2472)">
<path d="M16.085 5.16069C16.5213 5.16069 16.875 4.80699 16.875 4.37069C16.875 3.93438 16.5213 3.58069 16.085 3.58069C15.6487 3.58069 15.295 3.93438 15.295 4.37069C15.295 4.80699 15.6487 5.16069 16.085 5.16069Z" fill="url(#paint64_radial_4002_2472)"/>
</g>
<path d="M16.085 5.16069C16.5213 5.16069 16.875 4.80699 16.875 4.37069C16.875 3.93438 16.5213 3.58069 16.085 3.58069C15.6487 3.58069 15.295 3.93438 15.295 4.37069C15.295 4.80699 15.6487 5.16069 16.085 5.16069Z" fill="url(#paint65_radial_4002_2472)"/>
<defs>
<filter id="filter0_f_4002_2472" x="12.4894" y="14.3478" width="7.03119" height="7.11423" filterUnits="userSpaceOnUse" color-interpolation-filters="sRGB">
<feFlood flood-opacity="0" result="BackgroundImageFix"/>
<feBlend mode="normal" in="SourceGraphic" in2="BackgroundImageFix" result="shape"/>
<feGaussianBlur stdDeviation="0.5" result="effect1_foregroundBlur_4002_2472"/>
</filter>
<filter id="filter1_f_4002_2472" x="9.11725" y="15.462" width="4.95129" height="14.3597" filterUnits="userSpaceOnUse" color-interpolation-filters="sRGB">
<feFlood flood-opacity="0" result="BackgroundImageFix"/>
<feBlend mode="normal" in="SourceGraphic" in2="BackgroundImageFix" result="shape"/>
<feGaussianBlur stdDeviation="0.5" result="effect1_foregroundBlur_4002_2472"/>
</filter>
<filter id="filter2_ii_4002_2472" x="10.3481" y="15.837" width="3.09681" height="14.3036" filterUnits="userSpaceOnUse" color-interpolation-filters="sRGB">
<feFlood flood-opacity="0" result="BackgroundImageFix"/>
<feBlend mode="normal" in="SourceGraphic" in2="BackgroundImageFix" result="shape"/>
<feColorMatrix in="SourceAlpha" type="matrix" values="0 0 0 0 0 0 0 0 0 0 0 0 0 0 0 0 0 0 127 0" result="hardAlpha"/>
<feOffset dx="0.15"/>
<feGaussianBlur stdDeviation="0.125"/>
<feComposite in2="hardAlpha" operator="arithmetic" k2="-1" k3="1"/>
<feColorMatrix type="matrix" values="0 0 0 0 0.388235 0 0 0 0 0.356863 0 0 0 0 0.470588 0 0 0 1 0"/>
<feBlend mode="normal" in2="shape" result="effect1_innerShadow_4002_2472"/>
<feColorMatrix in="SourceAlpha" type="matrix" values="0 0 0 0 0 0 0 0 0 0 0 0 0 0 0 0 0 0 127 0" result="hardAlpha"/>
<feOffset dx="-0.15" dy="0.15"/>
<feGaussianBlur stdDeviation="0.125"/>
<feComposite in2="hardAlpha" operator="arithmetic" k2="-1" k3="1"/>
<feColorMatrix type="matrix" values="0 0 0 0 0.34902 0 0 0 0 0.290196 0 0 0 0 0.443137 0 0 0 1 0"/>
<feBlend mode="normal" in2="effect1_innerShadow_4002_2472" result="effect2_innerShadow_4002_2472"/>
</filter>
<filter id="filter3_f_4002_2472" x="18.1616" y="15.5558" width="4.08069" height="12.6288" filterUnits="userSpaceOnUse" color-interpolation-filters="sRGB">
<feFlood flood-opacity="0" result="BackgroundImageFix"/>
<feBlend mode="normal" in="SourceGraphic" in2="BackgroundImageFix" result="shape"/>
<feGaussianBlur stdDeviation="0.5" result="effect1_foregroundBlur_4002_2472"/>
</filter>
<filter id="filter4_ii_4002_2472" x="18.4649" y="15.8676" width="3.04242" height="14.1231" filterUnits="userSpaceOnUse" color-interpolation-filters="sRGB">
<feFlood flood-opacity="0" result="BackgroundImageFix"/>
<feBlend mode="normal" in="SourceGraphic" in2="BackgroundImageFix" result="shape"/>
<feColorMatrix in="SourceAlpha" type="matrix" values="0 0 0 0 0 0 0 0 0 0 0 0 0 0 0 0 0 0 127 0" result="hardAlpha"/>
<feOffset dx="-0.25"/>
<feGaussianBlur stdDeviation="0.25"/>
<feComposite in2="hardAlpha" operator="arithmetic" k2="-1" k3="1"/>
<feColorMatrix type="matrix" values="0 0 0 0 0.403922 0 0 0 0 0.372549 0 0 0 0 0.541176 0 0 0 1 0"/>
<feBlend mode="normal" in2="shape" result="effect1_innerShadow_4002_2472"/>
<feColorMatrix in="SourceAlpha" type="matrix" values="0 0 0 0 0 0 0 0 0 0 0 0 0 0 0 0 0 0 127 0" result="hardAlpha"/>
<feOffset dx="-0.1"/>
<feGaussianBlur stdDeviation="0.1"/>
<feComposite in2="hardAlpha" operator="arithmetic" k2="-1" k3="1"/>
<feColorMatrix type="matrix" values="0 0 0 0 0.380392 0 0 0 0 0.34902 0 0 0 0 0.552941 0 0 0 1 0"/>
<feBlend mode="normal" in2="effect1_innerShadow_4002_2472" result="effect2_innerShadow_4002_2472"/>
</filter>
<filter id="filter5_i_4002_2472" x="13.9354" y="16.7457" width="3.98923" height="1.69934" filterUnits="userSpaceOnUse" color-interpolation-filters="sRGB">
<feFlood flood-opacity="0" result="BackgroundImageFix"/>
<feBlend mode="normal" in="SourceGraphic" in2="BackgroundImageFix" result="shape"/>
<feColorMatrix in="SourceAlpha" type="matrix" values="0 0 0 0 0 0 0 0 0 0 0 0 0 0 0 0 0 0 127 0" result="hardAlpha"/>
<feOffset dx="-0.15"/>
<feGaussianBlur stdDeviation="0.2"/>
<feComposite in2="hardAlpha" operator="arithmetic" k2="-1" k3="1"/>
<feColorMatrix type="matrix" values="0 0 0 0 0.623529 0 0 0 0 0.415686 0 0 0 0 0.45098 0 0 0 1 0"/>
<feBlend mode="normal" in2="shape" result="effect1_innerShadow_4002_2472"/>
</filter>
<filter id="filter6_i_4002_2472" x="9.57953" y="8.8905" width="3.53862" height="3.33862" filterUnits="userSpaceOnUse" color-interpolation-filters="sRGB">
<feFlood flood-opacity="0" result="BackgroundImageFix"/>
<feBlend mode="normal" in="SourceGraphic" in2="BackgroundImageFix" result="shape"/>
<feColorMatrix in="SourceAlpha" type="matrix" values="0 0 0 0 0 0 0 0 0 0 0 0 0 0 0 0 0 0 127 0" result="hardAlpha"/>
<feOffset dx="0.2"/>
<feGaussianBlur stdDeviation="0.15"/>
<feComposite in2="hardAlpha" operator="arithmetic" k2="-1" k3="1"/>
<feColorMatrix type="matrix" values="0 0 0 0 0.917647 0 0 0 0 0.694118 0 0 0 0 0.607843 0 0 0 1 0"/>
<feBlend mode="normal" in2="shape" result="effect1_innerShadow_4002_2472"/>
</filter>
<filter id="filter7_f_4002_2472" x="9.75385" y="9.06482" width="2.98975" height="2.98978" filterUnits="userSpaceOnUse" color-interpolation-filters="sRGB">
<feFlood flood-opacity="0" result="BackgroundImageFix"/>
<feBlend mode="normal" in="SourceGraphic" in2="BackgroundImageFix" result="shape"/>
<feGaussianBlur stdDeviation="0.25" result="effect1_foregroundBlur_4002_2472"/>
</filter>
<filter id="filter8_i_4002_2472" x="19.092" y="8.6405" width="3.58862" height="3.58862" filterUnits="userSpaceOnUse" color-interpolation-filters="sRGB">
<feFlood flood-opacity="0" result="BackgroundImageFix"/>
<feBlend mode="normal" in="SourceGraphic" in2="BackgroundImageFix" result="shape"/>
<feColorMatrix in="SourceAlpha" type="matrix" values="0 0 0 0 0 0 0 0 0 0 0 0 0 0 0 0 0 0 127 0" result="hardAlpha"/>
<feOffset dx="0.25" dy="-0.25"/>
<feGaussianBlur stdDeviation="0.25"/>
<feComposite in2="hardAlpha" operator="arithmetic" k2="-1" k3="1"/>
<feColorMatrix type="matrix" values="0 0 0 0 0.843137 0 0 0 0 0.623529 0 0 0 0 0.580392 0 0 0 1 0"/>
<feBlend mode="normal" in2="shape" result="effect1_innerShadow_4002_2472"/>
</filter>
<filter id="filter9_f_4002_2472" x="19.2664" y="9.06482" width="2.98975" height="2.98978" filterUnits="userSpaceOnUse" color-interpolation-filters="sRGB">
<feFlood flood-opacity="0" result="BackgroundImageFix"/>
<feBlend mode="normal" in="SourceGraphic" in2="BackgroundImageFix" result="shape"/>
<feGaussianBlur stdDeviation="0.25" result="effect1_foregroundBlur_4002_2472"/>
</filter>
<filter id="filter10_i_4002_2472" x="10.8387" y="4.93567" width="10.3727" height="12.2769" filterUnits="userSpaceOnUse" color-interpolation-filters="sRGB">
<feFlood flood-opacity="0" result="BackgroundImageFix"/>
<feBlend mode="normal" in="SourceGraphic" in2="BackgroundImageFix" result="shape"/>
<feColorMatrix in="SourceAlpha" type="matrix" values="0 0 0 0 0 0 0 0 0 0 0 0 0 0 0 0 0 0 127 0" result="hardAlpha"/>
<feOffset dy="0.25"/>
<feGaussianBlur stdDeviation="0.375"/>
<feComposite in2="hardAlpha" operator="arithmetic" k2="-1" k3="1"/>
<feColorMatrix type="matrix" values="0 0 0 0 0.819608 0 0 0 0 0.615686 0 0 0 0 0.509804 0 0 0 1 0"/>
<feBlend mode="normal" in2="shape" result="effect1_innerShadow_4002_2472"/>
</filter>
<filter id="filter11_f_4002_2472" x="14.1274" y="9.40515" width="3.25983" height="4.18097" filterUnits="userSpaceOnUse" color-interpolation-filters="sRGB">
<feFlood flood-opacity="0" result="BackgroundImageFix"/>
<feBlend mode="normal" in="SourceGraphic" in2="BackgroundImageFix" result="shape"/>
<feGaussianBlur stdDeviation="0.375" result="effect1_foregroundBlur_4002_2472"/>
</filter>
<filter id="filter12_f_4002_2472" x="14.808" y="9.74207" width="2.37665" height="3.18097" filterUnits="userSpaceOnUse" color-interpolation-filters="sRGB">
<feFlood flood-opacity="0" result="BackgroundImageFix"/>
<feBlend mode="normal" in="SourceGraphic" in2="BackgroundImageFix" result="shape"/>
<feGaussianBlur stdDeviation="0.125" result="effect1_foregroundBlur_4002_2472"/>
</filter>
<filter id="filter13_f_4002_2472" x="14.1875" y="13.1433" width="3.61736" height="1.47246" filterUnits="userSpaceOnUse" color-interpolation-filters="sRGB">
<feFlood flood-opacity="0" result="BackgroundImageFix"/>
<feBlend mode="normal" in="SourceGraphic" in2="BackgroundImageFix" result="shape"/>
<feGaussianBlur stdDeviation="0.05" result="effect1_foregroundBlur_4002_2472"/>
</filter>
<filter id="filter14_f_4002_2472" x="17.4411" y="9.43806" width="0.786609" height="0.696124" filterUnits="userSpaceOnUse" color-interpolation-filters="sRGB">
<feFlood flood-opacity="0" result="BackgroundImageFix"/>
<feBlend mode="normal" in="SourceGraphic" in2="BackgroundImageFix" result="shape"/>
<feGaussianBlur stdDeviation="0.05" result="effect1_foregroundBlur_4002_2472"/>
</filter>
<filter id="filter15_f_4002_2472" x="18.2807" y="9.51301" width="0.891089" height="0.913245" filterUnits="userSpaceOnUse" color-interpolation-filters="sRGB">
<feFlood flood-opacity="0" result="BackgroundImageFix"/>
<feBlend mode="normal" in="SourceGraphic" in2="BackgroundImageFix" result="shape"/>
<feGaussianBlur stdDeviation="0.1" result="effect1_foregroundBlur_4002_2472"/>
</filter>
<filter id="filter16_f_4002_2472" x="13.8392" y="9.44954" width="0.986121" height="1.04001" filterUnits="userSpaceOnUse" color-interpolation-filters="sRGB">
<feFlood flood-opacity="0" result="BackgroundImageFix"/>
<feBlend mode="normal" in="SourceGraphic" in2="BackgroundImageFix" result="shape"/>
<feGaussianBlur stdDeviation="0.1" result="effect1_foregroundBlur_4002_2472"/>
</filter>
<filter id="filter17_f_4002_2472" x="13.0847" y="9.42985" width="0.912891" height="0.704333" filterUnits="userSpaceOnUse" color-interpolation-filters="sRGB">
<feFlood flood-opacity="0" result="BackgroundImageFix"/>
<feBlend mode="normal" in="SourceGraphic" in2="BackgroundImageFix" result="shape"/>
<feGaussianBlur stdDeviation="0.05" result="effect1_foregroundBlur_4002_2472"/>
</filter>
<filter id="filter18_i_4002_2472" x="9.67792" y="1.90344" width="12.6135" height="8.10025" filterUnits="userSpaceOnUse" color-interpolation-filters="sRGB">
<feFlood flood-opacity="0" result="BackgroundImageFix"/>
<feBlend mode="normal" in="SourceGraphic" in2="BackgroundImageFix" result="shape"/>
<feColorMatrix in="SourceAlpha" type="matrix" values="0 0 0 0 0 0 0 0 0 0 0 0 0 0 0 0 0 0 127 0" result="hardAlpha"/>
<feOffset dy="-0.5"/>
<feGaussianBlur stdDeviation="0.375"/>
<feComposite in2="hardAlpha" operator="arithmetic" k2="-1" k3="1"/>
<feColorMatrix type="matrix" values="0 0 0 0 0.0392157 0 0 0 0 0.00784314 0 0 0 0 0.0196078 0 0 0 1 0"/>
<feBlend mode="normal" in2="shape" result="effect1_innerShadow_4002_2472"/>
</filter>
<filter id="filter19_ii_4002_2472" x="14.6315" y="18.4636" width="2.73516" height="2.58047" filterUnits="userSpaceOnUse" color-interpolation-filters="sRGB">
<feFlood flood-opacity="0" result="BackgroundImageFix"/>
<feBlend mode="normal" in="SourceGraphic" in2="BackgroundImageFix" result="shape"/>
<feColorMatrix in="SourceAlpha" type="matrix" values="0 0 0 0 0 0 0 0 0 0 0 0 0 0 0 0 0 0 127 0" result="hardAlpha"/>
<feOffset dx="0.1" dy="-0.1"/>
<feGaussianBlur stdDeviation="0.25"/>
<feComposite in2="hardAlpha" operator="arithmetic" k2="-1" k3="1"/>
<feColorMatrix type="matrix" values="0 0 0 0 0.2 0 0 0 0 0.152941 0 0 0 0 0.25098 0 0 0 1 0"/>
<feBlend mode="normal" in2="shape" result="effect1_innerShadow_4002_2472"/>
<feColorMatrix in="SourceAlpha" type="matrix" values="0 0 0 0 0 0 0 0 0 0 0 0 0 0 0 0 0 0 127 0" result="hardAlpha"/>
<feOffset dx="-0.1" dy="-0.1"/>
<feGaussianBlur stdDeviation="0.25"/>
<feComposite in2="hardAlpha" operator="arithmetic" k2="-1" k3="1"/>
<feColorMatrix type="matrix" values="0 0 0 0 0.2 0 0 0 0 0.152941 0 0 0 0 0.25098 0 0 0 1 0"/>
<feBlend mode="normal" in2="effect1_innerShadow_4002_2472" result="effect2_innerShadow_4002_2472"/>
</filter>
<filter id="filter20_f_4002_2472" x="20.5343" y="19.6358" width="3.1511" height="1.34641" filterUnits="userSpaceOnUse" color-interpolation-filters="sRGB">
<feFlood flood-opacity="0" result="BackgroundImageFix"/>
<feBlend mode="normal" in="SourceGraphic" in2="BackgroundImageFix" result="shape"/>
<feGaussianBlur stdDeviation="0.1" result="effect1_foregroundBlur_4002_2472"/>
</filter>
<filter id="filter21_ii_4002_2472" x="20.7343" y="19.7306" width="2.88062" height="1.02999" filterUnits="userSpaceOnUse" color-interpolation-filters="sRGB">
<feFlood flood-opacity="0" result="BackgroundImageFix"/>
<feBlend mode="normal" in="SourceGraphic" in2="BackgroundImageFix" result="shape"/>
<feColorMatrix in="SourceAlpha" type="matrix" values="0 0 0 0 0 0 0 0 0 0 0 0 0 0 0 0 0 0 127 0" result="hardAlpha"/>
<feOffset dy="-0.05"/>
<feGaussianBlur stdDeviation="0.05"/>
<feComposite in2="hardAlpha" operator="arithmetic" k2="-1" k3="1"/>
<feColorMatrix type="matrix" values="0 0 0 0 0.823529 0 0 0 0 0.529412 0 0 0 0 0.192157 0 0 0 1 0"/>
<feBlend mode="normal" in2="shape" result="effect1_innerShadow_4002_2472"/>
<feColorMatrix in="SourceAlpha" type="matrix" values="0 0 0 0 0 0 0 0 0 0 0 0 0 0 0 0 0 0 127 0" result="hardAlpha"/>
<feOffset dy="0.05"/>
<feGaussianBlur stdDeviation="0.05"/>
<feComposite in2="hardAlpha" operator="arithmetic" k2="-1" k3="1"/>
<feColorMatrix type="matrix" values="0 0 0 0 0.980392 0 0 0 0 0.760784 0 0 0 0 0.313726 0 0 0 1 0"/>
<feBlend mode="normal" in2="effect1_innerShadow_4002_2472" result="effect2_innerShadow_4002_2472"/>
</filter>
<filter id="filter22_i_4002_2472" x="10.555" y="6.13044" width="10.9" height="2.77016" filterUnits="userSpaceOnUse" color-interpolation-filters="sRGB">
<feFlood flood-opacity="0" result="BackgroundImageFix"/>
<feBlend mode="normal" in="SourceGraphic" in2="BackgroundImageFix" result="shape"/>
<feColorMatrix in="SourceAlpha" type="matrix" values="0 0 0 0 0 0 0 0 0 0 0 0 0 0 0 0 0 0 127 0" result="hardAlpha"/>
<feOffset dy="-0.2"/>
<feGaussianBlur stdDeviation="0.1"/>
<feComposite in2="hardAlpha" operator="arithmetic" k2="-1" k3="1"/>
<feColorMatrix type="matrix" values="0 0 0 0 0.286275 0 0 0 0 0.168627 0 0 0 0 0.34902 0 0 0 1 0"/>
<feBlend mode="normal" in2="shape" result="effect1_innerShadow_4002_2472"/>
</filter>
<filter id="filter23_f_4002_2472" x="13.5897" y="2.88171" width="4.83069" height="2.64001" filterUnits="userSpaceOnUse" color-interpolation-filters="sRGB">
<feFlood flood-opacity="0" result="BackgroundImageFix"/>
<feBlend mode="normal" in="SourceGraphic" in2="BackgroundImageFix" result="shape"/>
<feGaussianBlur stdDeviation="0.125" result="effect1_foregroundBlur_4002_2472"/>
</filter>
<filter id="filter24_i_4002_2472" x="13.8608" y="3.03064" width="2.29286" height="1.20999" filterUnits="userSpaceOnUse" color-interpolation-filters="sRGB">
<feFlood flood-opacity="0" result="BackgroundImageFix"/>
<feBlend mode="normal" in="SourceGraphic" in2="BackgroundImageFix" result="shape"/>
<feColorMatrix in="SourceAlpha" type="matrix" values="0 0 0 0 0 0 0 0 0 0 0 0 0 0 0 0 0 0 127 0" result="hardAlpha"/>
<feOffset dx="-0.05"/>
<feGaussianBlur stdDeviation="0.05"/>
<feComposite in2="hardAlpha" operator="arithmetic" k2="-1" k3="1"/>
<feColorMatrix type="matrix" values="0 0 0 0 0.905882 0 0 0 0 0.65098 0 0 0 0 0.309804 0 0 0 1 0"/>
<feBlend mode="normal" in2="shape" result="effect1_innerShadow_4002_2472"/>
</filter>
<filter id="filter25_i_4002_2472" x="15.9435" y="3.02063" width="2.29817" height="1.22" filterUnits="userSpaceOnUse" color-interpolation-filters="sRGB">
<feFlood flood-opacity="0" result="BackgroundImageFix"/>
<feBlend mode="normal" in="SourceGraphic" in2="BackgroundImageFix" result="shape"/>
<feColorMatrix in="SourceAlpha" type="matrix" values="0 0 0 0 0 0 0 0 0 0 0 0 0 0 0 0 0 0 127 0" result="hardAlpha"/>
<feOffset dx="-0.05"/>
<feGaussianBlur stdDeviation="0.05"/>
<feComposite in2="hardAlpha" operator="arithmetic" k2="-1" k3="1"/>
<feColorMatrix type="matrix" values="0 0 0 0 0.960784 0 0 0 0 0.752941 0 0 0 0 0.317647 0 0 0 1 0"/>
<feBlend mode="normal" in2="shape" result="effect1_innerShadow_4002_2472"/>
</filter>
<filter id="filter26_i_4002_2472" x="15.295" y="3.53069" width="1.63002" height="1.62999" filterUnits="userSpaceOnUse" color-interpolation-filters="sRGB">
<feFlood flood-opacity="0" result="BackgroundImageFix"/>
<feBlend mode="normal" in="SourceGraphic" in2="BackgroundImageFix" result="shape"/>
<feColorMatrix in="SourceAlpha" type="matrix" values="0 0 0 0 0 0 0 0 0 0 0 0 0 0 0 0 0 0 127 0" result="hardAlpha"/>
<feOffset dx="0.05" dy="-0.05"/>
<feGaussianBlur stdDeviation="0.2"/>
<feComposite in2="hardAlpha" operator="arithmetic" k2="-1" k3="1"/>
<feColorMatrix type="matrix" values="0 0 0 0 0.698039 0 0 0 0 0.4 0 0 0 0 0.121569 0 0 0 1 0"/>
<feBlend mode="normal" in2="shape" result="effect1_innerShadow_4002_2472"/>
</filter>
<linearGradient id="paint0_linear_4002_2472" x1="15.9999" y1="15.5006" x2="15.9999" y2="30.0006" gradientUnits="userSpaceOnUse">
<stop stop-color="#584C78"/>
<stop offset="1" stop-color="#5A4B85"/>
</linearGradient>
<radialGradient id="paint1_radial_4002_2472" cx="0" cy="0" r="1" gradientUnits="userSpaceOnUse" gradientTransform="translate(23.2237 24.4033) rotate(180) scale(4.03125 12.2293)">
<stop offset="0.20155" stop-color="#7D77A7"/>
<stop offset="1" stop-color="#6B629A" stop-opacity="0"/>
</radialGradient>
<radialGradient id="paint2_radial_4002_2472" cx="0" cy="0" r="1" gradientUnits="userSpaceOnUse" gradientTransform="translate(25.0625 30.0007) rotate(-90) scale(10.4916 2.16348)">
<stop offset="0.239741" stop-color="#7D72A2"/>
<stop offset="1" stop-color="#6E658C"/>
</radialGradient>
<radialGradient id="paint3_radial_4002_2472" cx="0" cy="0" r="1" gradientUnits="userSpaceOnUse" gradientTransform="translate(23.1301 30.0007) rotate(-90) scale(13.6896 0.718704)">
<stop offset="0.303825" stop-color="#4F4175"/>
<stop offset="1" stop-color="#514476" stop-opacity="0"/>
</radialGradient>
<radialGradient id="paint4_radial_4002_2472" cx="0" cy="0" r="1" gradientUnits="userSpaceOnUse" gradientTransform="translate(6.61541 30.0008) rotate(-90) scale(9.94746 4.23507)">
<stop offset="0.260408" stop-color="#5A4B81"/>
<stop offset="1" stop-color="#524A68"/>
</radialGradient>
<linearGradient id="paint5_linear_4002_2472" x1="9.13534" y1="27.8174" x2="6.94247" y2="27.8174" gradientUnits="userSpaceOnUse">
<stop offset="0.124232" stop-color="#443A60"/>
<stop offset="1" stop-color="#524C6A" stop-opacity="0"/>
</linearGradient>
<radialGradient id="paint6_radial_4002_2472" cx="0" cy="0" r="1" gradientUnits="userSpaceOnUse" gradientTransform="translate(8.70827 29.6368) rotate(-180) scale(3.70333 15.6939)">
<stop offset="0.740511" stop-color="#6E638C" stop-opacity="0"/>
<stop offset="1" stop-color="#6E638C"/>
</radialGradient>
<radialGradient id="paint7_radial_4002_2472" cx="0" cy="0" r="1" gradientUnits="userSpaceOnUse" gradientTransform="translate(16 23.0557) rotate(90) scale(7.91012 3.40129)">
<stop offset="0.563012" stop-color="#C7BBD0"/>
<stop offset="1" stop-color="#A9A0B2"/>
</radialGradient>
<linearGradient id="paint8_linear_4002_2472" x1="16.5049" y1="30.4658" x2="16.5049" y2="28.9971" gradientUnits="userSpaceOnUse">
<stop stop-color="#C2AADC"/>
<stop offset="1" stop-color="#C2AADC" stop-opacity="0"/>
</linearGradient>
<linearGradient id="paint9_linear_4002_2472" x1="19.0674" y1="26.5596" x2="17.1612" y2="26.5596" gradientUnits="userSpaceOnUse">
<stop stop-color="#80728B"/>
<stop offset="1" stop-color="#80728B" stop-opacity="0"/>
</linearGradient>
<radialGradient id="paint10_radial_4002_2472" cx="0" cy="0" r="1" gradientUnits="userSpaceOnUse" gradientTransform="translate(18.2549 30.2158) rotate(-90) scale(1.1875 0.462518)">
<stop stop-color="#AD91CA"/>
<stop offset="1" stop-color="#AD91CA" stop-opacity="0"/>
</radialGradient>
<radialGradient id="paint11_radial_4002_2472" cx="0" cy="0" r="1" gradientUnits="userSpaceOnUse" gradientTransform="translate(15.9909 21.0441) rotate(90) scale(9.70312 1.55313)">
<stop offset="0.00558659" stop-color="#59416C"/>
<stop offset="0.906602" stop-color="#3A3045"/>
</radialGradient>
<linearGradient id="paint12_linear_4002_2472" x1="13.2949" y1="29.372" x2="13.2949" y2="15.837" gradientUnits="userSpaceOnUse">
<stop stop-color="#605388"/>
<stop offset="1" stop-color="#564973"/>
</linearGradient>
<radialGradient id="paint13_radial_4002_2472" cx="0" cy="0" r="1" gradientUnits="userSpaceOnUse" gradientTransform="translate(13.8487 16.247) rotate(122.782) scale(3.60548 4.04568)">
<stop stop-color="#483555"/>
<stop offset="1" stop-color="#483555" stop-opacity="0"/>
</radialGradient>
<radialGradient id="paint14_radial_4002_2472" cx="0" cy="0" r="1" gradientUnits="userSpaceOnUse" gradientTransform="translate(13.2949 23.22) rotate(90) scale(4.08638 1.3984)">
<stop stop-color="#615589"/>
<stop offset="1" stop-color="#615589" stop-opacity="0"/>
</radialGradient>
<linearGradient id="paint15_linear_4002_2472" x1="13.2949" y1="29.6901" x2="13.2949" y2="23.3563" gradientUnits="userSpaceOnUse">
<stop offset="0.306451" stop-color="#5D4F84"/>
<stop offset="1" stop-color="#5D4F84" stop-opacity="0"/>
</linearGradient>
<linearGradient id="paint16_linear_4002_2472" x1="18.7149" y1="20.7471" x2="19.7237" y2="20.7471" gradientUnits="userSpaceOnUse">
<stop stop-color="#56466E"/>
<stop offset="1" stop-color="#625990"/>
</linearGradient>
<radialGradient id="paint17_radial_4002_2472" cx="0" cy="0" r="1" gradientUnits="userSpaceOnUse" gradientTransform="translate(19.0362 15.8676) rotate(59.5037) scale(1.60104 1.96063)">
<stop stop-color="#504069"/>
<stop offset="1" stop-color="#504069" stop-opacity="0"/>
</radialGradient>
<radialGradient id="paint18_radial_4002_2472" cx="0" cy="0" r="1" gradientUnits="userSpaceOnUse" gradientTransform="translate(16.005 18.6895) rotate(90) scale(4.15625 4.85106)">
<stop offset="0.518797" stop-color="#C9C0D4"/>
<stop offset="1" stop-color="#6D6675"/>
</radialGradient>
<radialGradient id="paint19_radial_4002_2472" cx="0" cy="0" r="1" gradientUnits="userSpaceOnUse" gradientTransform="translate(15.2393 19.6846) rotate(-135.909) scale(1.39229 3.14721)">
<stop stop-color="#D0C1D9"/>
<stop offset="1" stop-color="#D0C1D9" stop-opacity="0"/>
</radialGradient>
<linearGradient id="paint20_linear_4002_2472" x1="13.5831" y1="16.5596" x2="15.1768" y2="18.6065" gradientUnits="userSpaceOnUse">
<stop stop-color="#4E4852"/>
<stop offset="1" stop-color="#987A8D" stop-opacity="0"/>
<stop offset="1" stop-color="#4E4852" stop-opacity="0"/>
</linearGradient>
<linearGradient id="paint21_linear_4002_2472" x1="18.8178" y1="18.6599" x2="17.7475" y2="18.6599" gradientUnits="userSpaceOnUse">
<stop stop-color="#665C72"/>
<stop offset="1" stop-color="#9C92A5" stop-opacity="0"/>
</linearGradient>
<radialGradient id="paint22_radial_4002_2472" cx="0" cy="0" r="1" gradientUnits="userSpaceOnUse" gradientTransform="translate(16.005 17.1534) rotate(90) scale(1.41287 1.9196)">
<stop stop-color="#BC7693"/>
<stop offset="1" stop-color="#C88898"/>
</radialGradient>
<radialGradient id="paint23_radial_4002_2472" cx="0" cy="0" r="1" gradientUnits="userSpaceOnUse" gradientTransform="translate(9.57953 10.5598) scale(1.75471 3.07077)">
<stop offset="0.350532" stop-color="#CF9888"/>
<stop offset="1" stop-color="#BE8C77"/>
</radialGradient>
<linearGradient id="paint24_linear_4002_2472" x1="11.2487" y1="10.8383" x2="10.6082" y2="10.8383" gradientUnits="userSpaceOnUse">
<stop stop-color="#BA7C6B"/>
<stop offset="1" stop-color="#BE8474"/>
</linearGradient>
<linearGradient id="paint25_linear_4002_2472" x1="21.8476" y1="9.46836" x2="21.029" y2="12.0044" gradientUnits="userSpaceOnUse">
<stop stop-color="#FBD3BD"/>
<stop offset="1" stop-color="#F0B8A4"/>
</linearGradient>
<radialGradient id="paint26_radial_4002_2472" cx="0" cy="0" r="1" gradientUnits="userSpaceOnUse" gradientTransform="translate(21.1334 10.295) rotate(-36.0604) scale(1.02256 1.16712)">
<stop offset="0.542503" stop-color="#D9AA94"/>
<stop offset="1" stop-color="#D9AA94" stop-opacity="0"/>
</radialGradient>
<radialGradient id="paint27_radial_4002_2472" cx="0" cy="0" r="1" gradientUnits="userSpaceOnUse" gradientTransform="translate(20.72 11.3809) rotate(-61.4675) scale(1.71921 1.00626)">
<stop offset="0.754913" stop-color="#D6A38D" stop-opacity="0"/>
<stop offset="0.915553" stop-color="#D6A38D"/>
</radialGradient>
<radialGradient id="paint28_radial_4002_2472" cx="0" cy="0" r="1" gradientUnits="userSpaceOnUse" gradientTransform="translate(20.7613 10.5597) rotate(44.7077) scale(0.364802 0.47028)">
<stop stop-color="#D5A58E"/>
<stop offset="1" stop-color="#D5A58E" stop-opacity="0"/>
</radialGradient>
<linearGradient id="paint29_linear_4002_2472" x1="20.0319" y1="10.9491" x2="12.3957" y2="12.087" gradientUnits="userSpaceOnUse">
<stop stop-color="#FFDABF"/>
<stop offset="1" stop-color="#EAAB97"/>
</linearGradient>
<radialGradient id="paint30_radial_4002_2472" cx="0" cy="0" r="1" gradientUnits="userSpaceOnUse" gradientTransform="translate(16.0251 8.63475) rotate(90) scale(9.43448 12.8068)">
<stop offset="0.61181" stop-color="#D496A2" stop-opacity="0"/>
<stop offset="0.899157" stop-color="#BB7399"/>
</radialGradient>
<linearGradient id="paint31_linear_4002_2472" x1="10.3543" y1="12.4764" x2="13.7122" y2="12.5902" gradientUnits="userSpaceOnUse">
<stop stop-color="#A58787"/>
<stop offset="1" stop-color="#DEAD9D" stop-opacity="0"/>
</linearGradient>
<linearGradient id="paint32_linear_4002_2472" x1="10.6009" y1="13.6449" x2="12.4821" y2="13.5778" gradientUnits="userSpaceOnUse">
<stop stop-color="#E8AD97"/>
<stop offset="1" stop-color="#E8AD97" stop-opacity="0"/>
</linearGradient>
<radialGradient id="paint33_radial_4002_2472" cx="0" cy="0" r="1" gradientUnits="userSpaceOnUse" gradientTransform="translate(18.3421 9.2883) rotate(-90) scale(1.30697 1.60858)">
<stop stop-color="#F5B7A7"/>
<stop offset="1" stop-color="#F5B7A7" stop-opacity="0"/>
</radialGradient>
<radialGradient id="paint34_radial_4002_2472" cx="0" cy="0" r="1" gradientUnits="userSpaceOnUse" gradientTransform="translate(13.7845 9.25479) rotate(-90) scale(1.39075 1.72952)">
<stop stop-color="#D0958D"/>
<stop offset="1" stop-color="#D0958D" stop-opacity="0"/>
</radialGradient>
<radialGradient id="paint35_radial_4002_2472" cx="0" cy="0" r="1" gradientUnits="userSpaceOnUse" gradientTransform="translate(15.3846 8.22746) rotate(90) scale(2.47176 4.26578)">
<stop offset="0.241935" stop-color="#BC8287"/>
<stop offset="1" stop-color="#B98183" stop-opacity="0"/>
</radialGradient>
<linearGradient id="paint36_linear_4002_2472" x1="15.1323" y1="11.6083" x2="16.0704" y2="11.6083" gradientUnits="userSpaceOnUse">
<stop stop-color="#DFA790"/>
<stop offset="1" stop-color="#DFA790" stop-opacity="0"/>
</linearGradient>
<linearGradient id="paint37_linear_4002_2472" x1="16.9347" y1="11.9308" x2="15.9091" y2="11.9161" gradientUnits="userSpaceOnUse">
<stop stop-color="#FFDFC4"/>
<stop offset="1" stop-color="#FFDFC4" stop-opacity="0"/>
</linearGradient>
<linearGradient id="paint38_linear_4002_2472" x1="16.1909" y1="12.673" x2="16.1909" y2="12.1" gradientUnits="userSpaceOnUse">
<stop stop-color="#DC9C96"/>
<stop offset="1" stop-color="#DC9C96" stop-opacity="0"/>
</linearGradient>
<radialGradient id="paint39_radial_4002_2472" cx="0" cy="0" r="1" gradientUnits="userSpaceOnUse" gradientTransform="translate(16.3235 12.1662) rotate(90) scale(0.196883 0.632539)">
<stop stop-color="#FFD7C1"/>
<stop offset="1" stop-color="#FFD7C1" stop-opacity="0"/>
</radialGradient>
<linearGradient id="paint40_linear_4002_2472" x1="15.9964" y1="9.99207" x2="15.9426" y2="10.9619" gradientUnits="userSpaceOnUse">
<stop stop-color="#DBA69B"/>
<stop offset="1" stop-color="#DBA69B" stop-opacity="0"/>
</linearGradient>
<linearGradient id="paint41_linear_4002_2472" x1="14.9593" y1="14.2881" x2="15.3942" y2="13.6006" gradientUnits="userSpaceOnUse">
<stop stop-color="#E7B3A8"/>
<stop offset="0.663171" stop-color="#E7B3A8" stop-opacity="0"/>
</linearGradient>
<radialGradient id="paint42_radial_4002_2472" cx="0" cy="0" r="1" gradientUnits="userSpaceOnUse" gradientTransform="translate(18.175 9.87787) rotate(90) scale(0.811063 1.29009)">
<stop offset="0.80198" stop-color="#7D574A"/>
<stop offset="1" stop-color="#694B43"/>
<stop offset="1" stop-color="#804D49"/>
<stop offset="1" stop-color="#664944"/>
</radialGradient>
<radialGradient id="paint43_radial_4002_2472" cx="0" cy="0" r="1" gradientUnits="userSpaceOnUse" gradientTransform="translate(17.9469 9.96189) rotate(-127.812) scale(0.378168 0.520646)">
<stop offset="0.765532" stop-color="#FFE6E2" stop-opacity="0"/>
<stop offset="0.966159" stop-color="#FFE6E2"/>
</radialGradient>
<linearGradient id="paint44_linear_4002_2472" x1="18.9527" y1="9.93162" x2="18.6391" y2="10.1249" gradientUnits="userSpaceOnUse">
<stop stop-color="#B4948D"/>
<stop offset="1" stop-color="#B4948D" stop-opacity="0"/>
</linearGradient>
<radialGradient id="paint45_radial_4002_2472" cx="0" cy="0" r="1" gradientUnits="userSpaceOnUse" gradientTransform="translate(13.8124 9.87765) rotate(90) scale(0.811104 1.29015)">
<stop offset="0.80198" stop-color="#7D574A"/>
<stop offset="1" stop-color="#694B43"/>
<stop offset="1" stop-color="#804D49"/>
<stop offset="1" stop-color="#664944"/>
</radialGradient>
<linearGradient id="paint46_linear_4002_2472" x1="14.5559" y1="9.93152" x2="14.2423" y2="10.1248" gradientUnits="userSpaceOnUse">
<stop stop-color="#B4948D"/>
<stop offset="1" stop-color="#B4948D" stop-opacity="0"/>
</linearGradient>
<radialGradient id="paint47_radial_4002_2472" cx="0" cy="0" r="1" gradientUnits="userSpaceOnUse" gradientTransform="translate(13.526 10.0968) rotate(-90.897) scale(0.493988 0.593794)">
<stop offset="0.765532" stop-color="#FFE6E2" stop-opacity="0"/>
<stop offset="0.966159" stop-color="#FFE6E2"/>
</radialGradient>
<radialGradient id="paint48_radial_4002_2472" cx="0" cy="0" r="1" gradientUnits="userSpaceOnUse" gradientTransform="translate(20.3339 6.65072) rotate(-74.0474) scale(2.90557 1.13201)">
<stop stop-color="#464344"/>
<stop offset="1" stop-color="#464344" stop-opacity="0"/>
</radialGradient>
<radialGradient id="paint49_radial_4002_2472" cx="0" cy="0" r="1" gradientUnits="userSpaceOnUse" gradientTransform="translate(18.6898 4.98782) rotate(4.96487) scale(3.84287 1.95235)">
<stop offset="0.334886" stop-color="#4A4648"/>
<stop offset="1" stop-color="#4A4648" stop-opacity="0"/>
</radialGradient>
<radialGradient id="paint50_radial_4002_2472" cx="0" cy="0" r="1" gradientUnits="userSpaceOnUse" gradientTransform="translate(15.9847 2.40344) rotate(90) scale(1.58663 2.60303)">
<stop stop-color="#423D3F"/>
<stop offset="1" stop-color="#423D3F" stop-opacity="0"/>
</radialGradient>
<radialGradient id="paint51_radial_4002_2472" cx="0" cy="0" r="1" gradientUnits="userSpaceOnUse" gradientTransform="translate(9.52971 8.84575) rotate(-34.6748) scale(3.74134 5.75199)">
<stop stop-color="#463C39"/>
<stop offset="1" stop-color="#463C39" stop-opacity="0"/>
</radialGradient>
<linearGradient id="paint52_linear_4002_2472" x1="15.9905" y1="19.2254" x2="15.9905" y2="20.9225" gradientUnits="userSpaceOnUse">
<stop offset="0.00558659" stop-color="#543555"/>
<stop offset="1" stop-color="#483A53"/>
</linearGradient>
<linearGradient id="paint53_linear_4002_2472" x1="21.0845" y1="20.0764" x2="22.8797" y2="20.7106" gradientUnits="userSpaceOnUse">
<stop stop-color="#E3AB3F"/>
<stop offset="1" stop-color="#ECAC40"/>
</linearGradient>
<radialGradient id="paint54_radial_4002_2472" cx="0" cy="0" r="1" gradientUnits="userSpaceOnUse" gradientTransform="translate(16.4853 1.99915) rotate(94.1768) scale(4.29059 11.5019)">
<stop offset="0.266807" stop-color="#5D4C6D"/>
<stop offset="1" stop-color="#3B3541"/>
</radialGradient>
<radialGradient id="paint55_radial_4002_2472" cx="0" cy="0" r="1" gradientUnits="userSpaceOnUse" gradientTransform="translate(20.7978 4.30959) rotate(180) scale(4.625 1.29228)">
<stop offset="0.0777028" stop-color="#635870"/>
<stop offset="1" stop-color="#635870" stop-opacity="0"/>
</radialGradient>
<radialGradient id="paint56_radial_4002_2472" cx="0" cy="0" r="1" gradientUnits="userSpaceOnUse" gradientTransform="translate(9.37909 4.74711) scale(1.75085 2.31943)">
<stop stop-color="#5D5A62"/>
<stop offset="1" stop-color="#3A3340" stop-opacity="0"/>
</radialGradient>
<radialGradient id="paint57_radial_4002_2472" cx="0" cy="0" r="1" gradientUnits="userSpaceOnUse" gradientTransform="translate(18.5987 8.9006) rotate(-96.6259) scale(3.52078 14.6419)">
<stop offset="0.0637953" stop-color="#695978"/>
<stop offset="0.469759" stop-color="#4F3E5F"/>
<stop offset="1" stop-color="#362C38"/>
</radialGradient>
<linearGradient id="paint58_linear_4002_2472" x1="17.3487" y1="6.84084" x2="11.1299" y2="6.84084" gradientUnits="userSpaceOnUse">
<stop stop-color="#E3AC3F"/>
<stop offset="1" stop-color="#B88538"/>
</linearGradient>
<radialGradient id="paint59_radial_4002_2472" cx="0" cy="0" r="1" gradientUnits="userSpaceOnUse" gradientTransform="translate(21.0987 6.05958) rotate(-173.075) scale(4.47011 0.542913)">
<stop stop-color="#FFCF55"/>
<stop offset="1" stop-color="#FFCF55" stop-opacity="0"/>
</radialGradient>
<radialGradient id="paint60_radial_4002_2472" cx="0" cy="0" r="1" gradientUnits="userSpaceOnUse" gradientTransform="translate(21.0987 7.06063) rotate(-171.342) scale(3.95127 0.598445)">
<stop offset="0.278022" stop-color="#EBA026"/>
<stop offset="1" stop-color="#EBA026" stop-opacity="0"/>
</radialGradient>
<linearGradient id="paint61_linear_4002_2472" x1="16.0909" y1="4.16116" x2="14.5128" y2="4.16116" gradientUnits="userSpaceOnUse">
<stop stop-color="#D19B3E"/>
<stop offset="1" stop-color="#E2A23D"/>
</linearGradient>
<radialGradient id="paint62_radial_4002_2472" cx="0" cy="0" r="1" gradientUnits="userSpaceOnUse" gradientTransform="translate(15.6612 4.07522) rotate(-135) scale(0.621659 0.977796)">
<stop offset="0.382113" stop-color="#C47C25"/>
<stop offset="1" stop-color="#C47C25" stop-opacity="0"/>
</radialGradient>
<linearGradient id="paint63_linear_4002_2472" x1="18.0831" y1="3.16896" x2="16.5968" y2="4.16049" gradientUnits="userSpaceOnUse">
<stop stop-color="#E6AC3E"/>
<stop offset="1" stop-color="#E09037"/>
</linearGradient>
<radialGradient id="paint64_radial_4002_2472" cx="0" cy="0" r="1" gradientUnits="userSpaceOnUse" gradientTransform="translate(16.5831 4.04402) rotate(134.061) scale(1.3481 1.39802)">
<stop stop-color="#FCBB51"/>
<stop offset="1" stop-color="#CE8634"/>
</radialGradient>
<radialGradient id="paint65_radial_4002_2472" cx="0" cy="0" r="1" gradientUnits="userSpaceOnUse" gradientTransform="translate(15.88 4.54402) rotate(-36.8699) scale(1.09375 1.85)">
<stop offset="0.671429" stop-color="#FCBB51" stop-opacity="0"/>
<stop offset="1" stop-color="#FCBB51"/>
</radialGradient>
</defs>
</svg>
