<svg xmlns="http://www.w3.org/2000/svg" width="32" height="32" fill="none"><path fill="#321B41" d="M24.383 7.742c.804 1.178.742 3 .242 3.164-.665.218-1.078-.484-1.18-.07-.101.414-.36 1.445-.476 1.828-.117.383-.133.82-.875.836-.743.016-12.047 0-12.047 0s-.727.164-.953-.547c-.227-.71-1.099-3.973-.555-5.273.485-1.159 1.64-1.282 1.79-1.453.148-.172-.9.03-1.204-.688-.323-.763 1.39-2.25 2.594-2.43 1.897-.283 3.015.766 4.359 1.016.378.07 1.48-.422 2.477-.234.85.16 2.18 1.523 2.937 2.226.393.365 2.087.447 2.89 1.625Z"/><path fill="#00D1ED" d="M10 16.172a2 2 0 1 0 0-4 2 2 0 0 0 0 4ZM22 16.172a2 2 0 1 0 0-4 2 2 0 0 0 0 4Z"/><path fill="#1C1C1C" d="M16 20.531c-3.44 0-6.39 1.14-8.797 3.285v6.09h17.531v-6.09C22.328 21.672 19.441 20.53 16 20.53Z"/><rect width="5" height="7.328" x="13.5" y="17" fill="#0074BA" rx="2.5"/><path fill="#00A6ED" d="M10.688 23.172v2.703c0 .39.03 1.14.93 1.016.827-.203 2.539-.392 2.632.843.061.814-.71.97-1.656.907-.577-.038-.992.226-1.422.625-.446.413-1.409.64-1.758.64H6c-.672 0-1.219-.406-1.734-1.14l-.141-.227c-.217-.35-.494-.797-.617-.937a18.58 18.58 0 0 0-.727-.711l.446-2.094 1.039.781.296-.172.422-2.828 1.266 1.797.281-.188 1.11-2.5.625 1.422c.07.141.26.275.398.063.07-.109.07-.75.07-1.125l1.954 1.125ZM21.293 23.172v2.703c0 .39-.03 1.14-.93 1.016-.828-.203-2.54-.392-2.633.843-.061.814.71.97 1.656.907.577-.038.992.226 1.422.625.446.413 1.409.64 1.758.64h3.414c.672 0 1.219-.406 1.734-1.14l.141-.227c.217-.35.494-.797.617-.937.088-.1.524-.524.727-.711l-.446-2.094-1.039.781-.296-.172-.422-2.828-1.266 1.797-.281-.188-1.11-2.5-.625 1.422c-.07.141-.26.275-.398.063-.07-.109-.07-.75-.07-1.125l-1.953 1.125Z"/><path fill="#37C9CD" d="M22.263 20.894c.544 0 .986.441.986.986v1.684a.986.986 0 0 1-1.972 0V21.88c0-.545.441-.986.986-.986ZM25.525 21.19c.52.163.81.717.646 1.237l-.509 1.622a.987.987 0 1 1-1.883-.592l.509-1.621a.987.987 0 0 1 1.237-.646ZM28.238 22.356c.48.279.644.895.364 1.375l-.834 1.437a1.006 1.006 0 1 1-1.74-1.011l.834-1.437c.28-.48.895-.643 1.376-.364ZM30.061 26.094a.942.942 0 1 0-1.563-1.052l-.468.695a.942.942 0 0 0 1.563 1.052l.468-.695ZM5.809 22.427a.987.987 0 1 1 1.883-.591l.51 1.621a.987.987 0 1 1-1.884.592l-.51-1.622ZM3.742 22.356c-.48.279-.643.895-.364 1.375l.834 1.437a1.006 1.006 0 0 0 1.74-1.011l-.834-1.437a1.006 1.006 0 0 0-1.376-.364ZM1.919 26.094a.942.942 0 1 1 1.563-1.052l.468.695a.942.942 0 1 1-1.563 1.052l-.468-.695ZM9.717 20.894a.986.986 0 0 0-.986.986v1.684a.986.986 0 0 0 1.972 0V21.88a.986.986 0 0 0-.986-.986ZM10 17.662c-.141-1.579-.281-5.584-.281-5.584 0-1.031.54-1.164.82-1.82.242-.568.227-1.276.227-1.528 0-.816.8-.852 1.25-.933 2.25-.406 5.156-.578 8.171 0 .314.06.981.373 1.016.906.047.719.13 1.638.43 1.875.68.54.648 1.2.633 1.498v.002c-.084 1.688-.198 4.384-.298 5.584-.109 1.307-.374 3.697-3.116 4.182-.88.155-4.259.28-5.728 0C10.59 21.358 10.14 19.24 10 17.66Z"/><path fill="#37C9CD" d="M16.87 13.327a1.884 1.884 0 0 1 3.681 0h-3.68Z"/><path fill="#321B41" d="M13.375 15.594a1.875 1.875 0 1 0 0-3.75 1.875 1.875 0 0 0 0 3.75ZM18.875 15.75a1.875 1.875 0 1 0 0-3.75 1.875 1.875 0 0 0 0 3.75Z"/><path fill="#FFCE7C" d="M13.61 15.188a1.625 1.625 0 1 0 0-3.25 1.625 1.625 0 0 0 0 3.25ZM18.625 15.188a1.625 1.625 0 1 0 0-3.25 1.625 1.625 0 0 0 0 3.25Z"/><path fill="#990838" d="M13.531 14.117a.625.625 0 1 0 0-1.25.625.625 0 0 0 0 1.25ZM18.457 14.117a.625.625 0 1 0 0-1.25.625.625 0 0 0 0 1.25Z"/><path fill="#000" d="M14.047 19.875h2.844c0-2.1-1.86-2.313-2.844-2.313-.516 0-1.156.26-1.156 1.172 0 .913.77 1.141 1.156 1.141Z"/><path fill="#37C9CD" d="M17 13.327c0-.827.938-1.483 1.84-1.483.903 0 1.658.635 1.84 1.483H17Z"/><path fill="#FFCE7C" d="M16.44 18.422H14.5a.5.5 0 0 1-.5-.5v-.359h.047c.68 0 1.78.101 2.394.859Z"/><path fill="#00A6ED" d="m15.5 13.612-.668 2.248a.713.713 0 0 0 .669.93h1.009a.713.713 0 0 0 .668-.93l-.681-2.248a.519.519 0 0 0-.996 0Z"/><path fill="#000" d="M14.047 19.875h2.844c0-2.1-1.86-2.313-2.844-2.313-.516 0-1.156.26-1.156 1.172 0 .913.77 1.141 1.156 1.141Z"/><path fill="#FFCE7C" d="M16.44 18.422H14.5a.5.5 0 0 1-.5-.5v-.359h.047c.68 0 1.78.101 2.394.859Z"/><path fill="#00A6ED" d="m15.477 13.618-.692 2.216c-.15.451.203.916.692.916h1.046c.489 0 .842-.465.692-.916l-.706-2.216c-.163-.49-.869-.49-1.032 0ZM22.088 15.748l-.028.506c-.316.04-.685.156-1.005.459-.421.4-.804 1.17-.804 2.678a.25.25 0 1 1-.5 0c0-1.586.403-2.513.96-3.041a2.274 2.274 0 0 1 1.377-.602ZM9.904 16.257l-.028-.507c.398.042.908.18 1.35.6.558.527.961 1.455.961 3.04a.25.25 0 1 1-.5 0c0-1.507-.382-2.278-.804-2.677a1.746 1.746 0 0 0-.98-.456Z"/><path fill="#321B41" d="M20.495 11.681a.621.621 0 0 0-.112-.871l-.001-.001-.002-.002-.005-.003-.014-.01a2.39 2.39 0 0 0-.176-.115 3.426 3.426 0 0 0-2.144-.442.62.62 0 0 0 .15 1.232 2.185 2.185 0 0 1 1.36.276l.067.043.01.008a.62.62 0 0 0 .867-.115ZM11.551 10.81a.62.62 0 0 0 .755.986l.011-.008a2.012 2.012 0 0 1 .36-.185 2.186 2.186 0 0 1 1.066-.134.62.62 0 1 0 .151-1.232 3.425 3.425 0 0 0-2.144.441 2.508 2.508 0 0 0-.177.116l-.013.01-.005.003-.002.002-.002.001Z"/></svg>