<svg xmlns="http://www.w3.org/2000/svg" width="32" height="32" fill="none"><path fill="#C68D7B" d="M20.031 4.5a2.5 2.5 0 0 1 5 0v10.435c.599.59.969 1.41.969 2.315 0 2.996-.398 5.646-2.107 8.246-.286.435-.55.735-.792.92C21.533 28.606 19.08 30 16 30 9.406 30 6 25.52 6 20V8.03a2.5 2.5 0 0 1 5 0V9.6a2.694 2.694 0 0 1 1.977-.834c.955 0 1.795.466 2.274 1.216.13-1.656 1.041-2.81 2.326-2.81 1.197 0 2.2.65 2.454 2.334V4.5Z"/><path fill="#A9715F" d="m20.991 5.305.002-.034c.022-.52.057-1.33.302-2.062.161-.484.398-.892.757-1.163-.938.183-1.69.89-1.935 1.804a9.058 9.058 0 0 0-.086.72V14h.96V5.305ZM9.35 11.083c0-.92.445-1.934 1.65-2.759V9.62c-.502.517-.65 1.04-.65 1.464 0 .361-.012.761-.025 1.187l-.004.128c-.014.477-.028.99-.028 1.537 0 .66.331 1.501.613 1.964a2.638 2.638 0 0 0 2.07 1.023c.664 0 1.272-.253 1.741-.672-.242-.548-.455-1.215-.455-2.035V10.07c0-.364.03-.682.075-.953.37.21.684.504.914.865-.011.136-.017.275-.017.418v3.125c0 .186.01.369.028.547v.143c0 .302.036.578.096.835a2.993 2.993 0 0 1 1.683-.99c.414-.026.8-.027 1.128-.028h.237s-2.593.515-2.593 2.468c0 1.406.312 2.438 3.624 2.438 2.547 0 3.594 1.062 3.594 2.687 0 1.17-1.584 1.779-2.485 1.396-.084-.322-.166-.648-.247-.969-.09-.355-.177-.704-.264-1.035a8.62 8.62 0 0 0-.467-.001c-.466.01-1.121.059-1.87.21-1.499.302-3.344 1.01-4.812 2.626a.5.5 0 0 1-.74-.673c1.656-1.822 3.723-2.604 5.355-2.934a11.79 11.79 0 0 1 2.026-.228c-.074-.017-.14-.017-.175-.017H17.64a2.997 2.997 0 0 1-2.884-2.167 1.837 1.837 0 0 1-.02-.036c-.469.645-1.01 1.203-2.508 1.203-2.672 0-2.882-3.453-2.928-4.846a3.165 3.165 0 0 1-.008-.22v-.027c0-.552.014-1.069.028-1.538l.004-.126c.013-.43.025-.815.025-1.16Z"/></svg>