<svg xmlns="http://www.w3.org/2000/svg" width="32" height="32" fill="none"><path fill="#D3D3D3" d="M4.45 6.52a.47.47 0 0 1-.35-.15c-.2-.2-.2-.51 0-.71C6.47 3.3 9.61 2 12.96 2c1.23 0 2.46.18 3.63.54a.5.5 0 0 1 .33.62c-.08.27-.36.42-.62.33A11.79 11.79 0 0 0 12.96 3C9.88 3 6.98 4.2 4.81 6.38c-.1.1-.23.14-.36.14Z"/><path fill="#D3D3D3" d="M2.5 16.48c-.28 0-.5-.22-.5-.5C2 9.94 6.92 5.02 12.96 5.02c.28 0 .5.22.5.5s-.22.5-.5.5C7.47 6.02 3 10.49 3 15.98c0 .28-.22.5-.5.5ZM22.31 16.48c0 .28.22.5.5.5 1.49 0 2.92-.45 4.13-1.31A7.203 7.203 0 0 0 30 9.78c0-.27-.22-.5-.5-.5s-.5.22-.5.5c0 2.02-.99 3.91-2.63 5.08a6.21 6.21 0 0 1-3.56 1.12c-.28 0-.5.22-.5.5Z"/><path fill="#00D26A" d="M28 6.43V4.48l-.69.52h-5.35c-4.17 0-7.55 3.53-7.55 7.7v.43c0 .47.38.85.85.85h5.19A7.55 7.55 0 0 0 28 6.43ZM5 18.88v-2.87L6 17h7.89c6.15 0 11.14 4.99 11.14 11.14v.63c0 .69-.56 1.25-1.25 1.25h-7.64C9.99 30.02 5 25.03 5 18.88Z"/><path fill="#008463" d="M18.67 11.35a.514.514 0 0 1-.69-.21.498.498 0 0 1 .2-.69l8.08-4.41c.44-.25.72-.71.72-1.22V2.53c0-.28.23-.51.51-.51s.51.23.51.51v2.3c0 .88-.48 1.68-1.25 2.11l-8.08 4.41ZM18.75 26.12c.12.06.24.09.36.09.26 0 .52-.14.65-.39.2-.37.06-.82-.3-1.02l-11.9-6.5a2.045 2.045 0 0 1-1.06-1.79v-3.38c0-.41-.34-.75-.75-.75s-.75.34-.75.75v3.38c0 1.3.71 2.49 1.85 3.11l11.9 6.5Z"/></svg>