<svg width="32" height="32" viewBox="0 0 32 32" fill="none" xmlns="http://www.w3.org/2000/svg">
<g filter="url(#filter0_i_4002_2383)">
<path fill-rule="evenodd" clip-rule="evenodd" d="M23.3518 12.3713C23.5643 11.9362 23.6756 11.4504 23.6756 10.9444C23.6756 10.4771 23.5795 10.0386 23.4071 9.63894H23.4124C23.3319 9.45795 23.2415 9.28695 23.1312 9.12594L23.1291 9.12282C22.785 8.59657 22.6029 7.97925 22.6029 7.35181V7.34169C22.6029 5.52008 21.1254 4.04256 19.3038 4.04256C19.1216 4.04256 18.9495 3.9616 18.8483 3.8098C18.2513 2.97995 17.2695 2.43347 16.1664 2.43347C15.0634 2.43347 14.0817 2.97995 13.4846 3.8098C13.3834 3.95148 13.2114 4.04256 13.0292 4.04256C13.0008 4.04256 12.9725 4.04292 12.9442 4.04364C11.1619 4.08876 9.73009 5.54851 9.73009 7.34169V7.35181C9.73009 7.97925 9.54793 8.59657 9.20385 9.12282L9.20156 9.12649C8.85893 9.65193 8.65747 10.268 8.65747 10.9444C8.65747 11.4605 8.77891 11.9362 8.98131 12.3713C9.05215 12.513 9.05215 12.6851 8.98131 12.8268C8.77891 13.2518 8.65747 13.7274 8.65747 14.2334C8.65747 16.0146 10.0945 17.4516 11.8756 17.4516H20.4574C22.2386 17.4516 23.6756 16.0146 23.6756 14.2334C23.6756 13.7274 23.5542 13.2518 23.3518 12.8268C23.2809 12.6851 23.2809 12.513 23.3518 12.3713ZM11.0916 9.69895H11.0793L12.278 12.0545C12.4013 14.857 13.495 12.0545 16.1664 12.0545C18.8379 12.0545 20.0028 15.1739 20.1261 12.3713L21.262 9.17421C21.2083 7.92938 20.3062 7.84201 20.1261 7.84201H16.9061C15.6345 7.84201 14.4347 7.21963 13.7168 6.16872C13.5938 5.99527 13.3374 6.02588 13.2554 6.21973L13.1733 6.41359C12.9477 6.97475 12.517 7.40328 11.9838 7.64815C11.9684 7.65325 11.9505 7.6609 11.9325 7.66856C11.9146 7.67621 11.8966 7.68386 11.8812 7.68896C11.6454 7.8114 11.0916 8.17871 11.0711 9.12758L11.0814 9.43367L11.0916 9.69895Z" fill="url(#paint0_linear_4002_2383)"/>
<path fill-rule="evenodd" clip-rule="evenodd" d="M23.3518 12.3713C23.5643 11.9362 23.6756 11.4504 23.6756 10.9444C23.6756 10.4771 23.5795 10.0386 23.4071 9.63894H23.4124C23.3319 9.45795 23.2415 9.28695 23.1312 9.12594L23.1291 9.12282C22.785 8.59657 22.6029 7.97925 22.6029 7.35181V7.34169C22.6029 5.52008 21.1254 4.04256 19.3038 4.04256C19.1216 4.04256 18.9495 3.9616 18.8483 3.8098C18.2513 2.97995 17.2695 2.43347 16.1664 2.43347C15.0634 2.43347 14.0817 2.97995 13.4846 3.8098C13.3834 3.95148 13.2114 4.04256 13.0292 4.04256C13.0008 4.04256 12.9725 4.04292 12.9442 4.04364C11.1619 4.08876 9.73009 5.54851 9.73009 7.34169V7.35181C9.73009 7.97925 9.54793 8.59657 9.20385 9.12282L9.20156 9.12649C8.85893 9.65193 8.65747 10.268 8.65747 10.9444C8.65747 11.4605 8.77891 11.9362 8.98131 12.3713C9.05215 12.513 9.05215 12.6851 8.98131 12.8268C8.77891 13.2518 8.65747 13.7274 8.65747 14.2334C8.65747 16.0146 10.0945 17.4516 11.8756 17.4516H20.4574C22.2386 17.4516 23.6756 16.0146 23.6756 14.2334C23.6756 13.7274 23.5542 13.2518 23.3518 12.8268C23.2809 12.6851 23.2809 12.513 23.3518 12.3713ZM11.0916 9.69895H11.0793L12.278 12.0545C12.4013 14.857 13.495 12.0545 16.1664 12.0545C18.8379 12.0545 20.0028 15.1739 20.1261 12.3713L21.262 9.17421C21.2083 7.92938 20.3062 7.84201 20.1261 7.84201H16.9061C15.6345 7.84201 14.4347 7.21963 13.7168 6.16872C13.5938 5.99527 13.3374 6.02588 13.2554 6.21973L13.1733 6.41359C12.9477 6.97475 12.517 7.40328 11.9838 7.64815C11.9684 7.65325 11.9505 7.6609 11.9325 7.66856C11.9146 7.67621 11.8966 7.68386 11.8812 7.68896C11.6454 7.8114 11.0916 8.17871 11.0711 9.12758L11.0814 9.43367L11.0916 9.69895Z" fill="url(#paint1_radial_4002_2383)"/>
<path fill-rule="evenodd" clip-rule="evenodd" d="M23.3518 12.3713C23.5643 11.9362 23.6756 11.4504 23.6756 10.9444C23.6756 10.4771 23.5795 10.0386 23.4071 9.63894H23.4124C23.3319 9.45795 23.2415 9.28695 23.1312 9.12594L23.1291 9.12282C22.785 8.59657 22.6029 7.97925 22.6029 7.35181V7.34169C22.6029 5.52008 21.1254 4.04256 19.3038 4.04256C19.1216 4.04256 18.9495 3.9616 18.8483 3.8098C18.2513 2.97995 17.2695 2.43347 16.1664 2.43347C15.0634 2.43347 14.0817 2.97995 13.4846 3.8098C13.3834 3.95148 13.2114 4.04256 13.0292 4.04256C13.0008 4.04256 12.9725 4.04292 12.9442 4.04364C11.1619 4.08876 9.73009 5.54851 9.73009 7.34169V7.35181C9.73009 7.97925 9.54793 8.59657 9.20385 9.12282L9.20156 9.12649C8.85893 9.65193 8.65747 10.268 8.65747 10.9444C8.65747 11.4605 8.77891 11.9362 8.98131 12.3713C9.05215 12.513 9.05215 12.6851 8.98131 12.8268C8.77891 13.2518 8.65747 13.7274 8.65747 14.2334C8.65747 16.0146 10.0945 17.4516 11.8756 17.4516H20.4574C22.2386 17.4516 23.6756 16.0146 23.6756 14.2334C23.6756 13.7274 23.5542 13.2518 23.3518 12.8268C23.2809 12.6851 23.2809 12.513 23.3518 12.3713ZM11.0916 9.69895H11.0793L12.278 12.0545C12.4013 14.857 13.495 12.0545 16.1664 12.0545C18.8379 12.0545 20.0028 15.1739 20.1261 12.3713L21.262 9.17421C21.2083 7.92938 20.3062 7.84201 20.1261 7.84201H16.9061C15.6345 7.84201 14.4347 7.21963 13.7168 6.16872C13.5938 5.99527 13.3374 6.02588 13.2554 6.21973L13.1733 6.41359C12.9477 6.97475 12.517 7.40328 11.9838 7.64815C11.9684 7.65325 11.9505 7.6609 11.9325 7.66856C11.9146 7.67621 11.8966 7.68386 11.8812 7.68896C11.6454 7.8114 11.0916 8.17871 11.0711 9.12758L11.0814 9.43367L11.0916 9.69895Z" fill="url(#paint2_radial_4002_2383)"/>
<path fill-rule="evenodd" clip-rule="evenodd" d="M23.3518 12.3713C23.5643 11.9362 23.6756 11.4504 23.6756 10.9444C23.6756 10.4771 23.5795 10.0386 23.4071 9.63894H23.4124C23.3319 9.45795 23.2415 9.28695 23.1312 9.12594L23.1291 9.12282C22.785 8.59657 22.6029 7.97925 22.6029 7.35181V7.34169C22.6029 5.52008 21.1254 4.04256 19.3038 4.04256C19.1216 4.04256 18.9495 3.9616 18.8483 3.8098C18.2513 2.97995 17.2695 2.43347 16.1664 2.43347C15.0634 2.43347 14.0817 2.97995 13.4846 3.8098C13.3834 3.95148 13.2114 4.04256 13.0292 4.04256C13.0008 4.04256 12.9725 4.04292 12.9442 4.04364C11.1619 4.08876 9.73009 5.54851 9.73009 7.34169V7.35181C9.73009 7.97925 9.54793 8.59657 9.20385 9.12282L9.20156 9.12649C8.85893 9.65193 8.65747 10.268 8.65747 10.9444C8.65747 11.4605 8.77891 11.9362 8.98131 12.3713C9.05215 12.513 9.05215 12.6851 8.98131 12.8268C8.77891 13.2518 8.65747 13.7274 8.65747 14.2334C8.65747 16.0146 10.0945 17.4516 11.8756 17.4516H20.4574C22.2386 17.4516 23.6756 16.0146 23.6756 14.2334C23.6756 13.7274 23.5542 13.2518 23.3518 12.8268C23.2809 12.6851 23.2809 12.513 23.3518 12.3713ZM11.0916 9.69895H11.0793L12.278 12.0545C12.4013 14.857 13.495 12.0545 16.1664 12.0545C18.8379 12.0545 20.0028 15.1739 20.1261 12.3713L21.262 9.17421C21.2083 7.92938 20.3062 7.84201 20.1261 7.84201H16.9061C15.6345 7.84201 14.4347 7.21963 13.7168 6.16872C13.5938 5.99527 13.3374 6.02588 13.2554 6.21973L13.1733 6.41359C12.9477 6.97475 12.517 7.40328 11.9838 7.64815C11.9684 7.65325 11.9505 7.6609 11.9325 7.66856C11.9146 7.67621 11.8966 7.68386 11.8812 7.68896C11.6454 7.8114 11.0916 8.17871 11.0711 9.12758L11.0814 9.43367L11.0916 9.69895Z" fill="url(#paint3_radial_4002_2383)"/>
<path fill-rule="evenodd" clip-rule="evenodd" d="M23.3518 12.3713C23.5643 11.9362 23.6756 11.4504 23.6756 10.9444C23.6756 10.4771 23.5795 10.0386 23.4071 9.63894H23.4124C23.3319 9.45795 23.2415 9.28695 23.1312 9.12594L23.1291 9.12282C22.785 8.59657 22.6029 7.97925 22.6029 7.35181V7.34169C22.6029 5.52008 21.1254 4.04256 19.3038 4.04256C19.1216 4.04256 18.9495 3.9616 18.8483 3.8098C18.2513 2.97995 17.2695 2.43347 16.1664 2.43347C15.0634 2.43347 14.0817 2.97995 13.4846 3.8098C13.3834 3.95148 13.2114 4.04256 13.0292 4.04256C13.0008 4.04256 12.9725 4.04292 12.9442 4.04364C11.1619 4.08876 9.73009 5.54851 9.73009 7.34169V7.35181C9.73009 7.97925 9.54793 8.59657 9.20385 9.12282L9.20156 9.12649C8.85893 9.65193 8.65747 10.268 8.65747 10.9444C8.65747 11.4605 8.77891 11.9362 8.98131 12.3713C9.05215 12.513 9.05215 12.6851 8.98131 12.8268C8.77891 13.2518 8.65747 13.7274 8.65747 14.2334C8.65747 16.0146 10.0945 17.4516 11.8756 17.4516H20.4574C22.2386 17.4516 23.6756 16.0146 23.6756 14.2334C23.6756 13.7274 23.5542 13.2518 23.3518 12.8268C23.2809 12.6851 23.2809 12.513 23.3518 12.3713ZM11.0916 9.69895H11.0793L12.278 12.0545C12.4013 14.857 13.495 12.0545 16.1664 12.0545C18.8379 12.0545 20.0028 15.1739 20.1261 12.3713L21.262 9.17421C21.2083 7.92938 20.3062 7.84201 20.1261 7.84201H16.9061C15.6345 7.84201 14.4347 7.21963 13.7168 6.16872C13.5938 5.99527 13.3374 6.02588 13.2554 6.21973L13.1733 6.41359C12.9477 6.97475 12.517 7.40328 11.9838 7.64815C11.9684 7.65325 11.9505 7.6609 11.9325 7.66856C11.9146 7.67621 11.8966 7.68386 11.8812 7.68896C11.6454 7.8114 11.0916 8.17871 11.0711 9.12758L11.0814 9.43367L11.0916 9.69895Z" fill="url(#paint4_radial_4002_2383)"/>
<path fill-rule="evenodd" clip-rule="evenodd" d="M23.3518 12.3713C23.5643 11.9362 23.6756 11.4504 23.6756 10.9444C23.6756 10.4771 23.5795 10.0386 23.4071 9.63894H23.4124C23.3319 9.45795 23.2415 9.28695 23.1312 9.12594L23.1291 9.12282C22.785 8.59657 22.6029 7.97925 22.6029 7.35181V7.34169C22.6029 5.52008 21.1254 4.04256 19.3038 4.04256C19.1216 4.04256 18.9495 3.9616 18.8483 3.8098C18.2513 2.97995 17.2695 2.43347 16.1664 2.43347C15.0634 2.43347 14.0817 2.97995 13.4846 3.8098C13.3834 3.95148 13.2114 4.04256 13.0292 4.04256C13.0008 4.04256 12.9725 4.04292 12.9442 4.04364C11.1619 4.08876 9.73009 5.54851 9.73009 7.34169V7.35181C9.73009 7.97925 9.54793 8.59657 9.20385 9.12282L9.20156 9.12649C8.85893 9.65193 8.65747 10.268 8.65747 10.9444C8.65747 11.4605 8.77891 11.9362 8.98131 12.3713C9.05215 12.513 9.05215 12.6851 8.98131 12.8268C8.77891 13.2518 8.65747 13.7274 8.65747 14.2334C8.65747 16.0146 10.0945 17.4516 11.8756 17.4516H20.4574C22.2386 17.4516 23.6756 16.0146 23.6756 14.2334C23.6756 13.7274 23.5542 13.2518 23.3518 12.8268C23.2809 12.6851 23.2809 12.513 23.3518 12.3713ZM11.0916 9.69895H11.0793L12.278 12.0545C12.4013 14.857 13.495 12.0545 16.1664 12.0545C18.8379 12.0545 20.0028 15.1739 20.1261 12.3713L21.262 9.17421C21.2083 7.92938 20.3062 7.84201 20.1261 7.84201H16.9061C15.6345 7.84201 14.4347 7.21963 13.7168 6.16872C13.5938 5.99527 13.3374 6.02588 13.2554 6.21973L13.1733 6.41359C12.9477 6.97475 12.517 7.40328 11.9838 7.64815C11.9684 7.65325 11.9505 7.6609 11.9325 7.66856C11.9146 7.67621 11.8966 7.68386 11.8812 7.68896C11.6454 7.8114 11.0916 8.17871 11.0711 9.12758L11.0814 9.43367L11.0916 9.69895Z" fill="url(#paint5_radial_4002_2383)"/>
<path fill-rule="evenodd" clip-rule="evenodd" d="M23.3518 12.3713C23.5643 11.9362 23.6756 11.4504 23.6756 10.9444C23.6756 10.4771 23.5795 10.0386 23.4071 9.63894H23.4124C23.3319 9.45795 23.2415 9.28695 23.1312 9.12594L23.1291 9.12282C22.785 8.59657 22.6029 7.97925 22.6029 7.35181V7.34169C22.6029 5.52008 21.1254 4.04256 19.3038 4.04256C19.1216 4.04256 18.9495 3.9616 18.8483 3.8098C18.2513 2.97995 17.2695 2.43347 16.1664 2.43347C15.0634 2.43347 14.0817 2.97995 13.4846 3.8098C13.3834 3.95148 13.2114 4.04256 13.0292 4.04256C13.0008 4.04256 12.9725 4.04292 12.9442 4.04364C11.1619 4.08876 9.73009 5.54851 9.73009 7.34169V7.35181C9.73009 7.97925 9.54793 8.59657 9.20385 9.12282L9.20156 9.12649C8.85893 9.65193 8.65747 10.268 8.65747 10.9444C8.65747 11.4605 8.77891 11.9362 8.98131 12.3713C9.05215 12.513 9.05215 12.6851 8.98131 12.8268C8.77891 13.2518 8.65747 13.7274 8.65747 14.2334C8.65747 16.0146 10.0945 17.4516 11.8756 17.4516H20.4574C22.2386 17.4516 23.6756 16.0146 23.6756 14.2334C23.6756 13.7274 23.5542 13.2518 23.3518 12.8268C23.2809 12.6851 23.2809 12.513 23.3518 12.3713ZM11.0916 9.69895H11.0793L12.278 12.0545C12.4013 14.857 13.495 12.0545 16.1664 12.0545C18.8379 12.0545 20.0028 15.1739 20.1261 12.3713L21.262 9.17421C21.2083 7.92938 20.3062 7.84201 20.1261 7.84201H16.9061C15.6345 7.84201 14.4347 7.21963 13.7168 6.16872C13.5938 5.99527 13.3374 6.02588 13.2554 6.21973L13.1733 6.41359C12.9477 6.97475 12.517 7.40328 11.9838 7.64815C11.9684 7.65325 11.9505 7.6609 11.9325 7.66856C11.9146 7.67621 11.8966 7.68386 11.8812 7.68896C11.6454 7.8114 11.0916 8.17871 11.0711 9.12758L11.0814 9.43367L11.0916 9.69895Z" fill="url(#paint6_radial_4002_2383)"/>
<path fill-rule="evenodd" clip-rule="evenodd" d="M23.3518 12.3713C23.5643 11.9362 23.6756 11.4504 23.6756 10.9444C23.6756 10.4771 23.5795 10.0386 23.4071 9.63894H23.4124C23.3319 9.45795 23.2415 9.28695 23.1312 9.12594L23.1291 9.12282C22.785 8.59657 22.6029 7.97925 22.6029 7.35181V7.34169C22.6029 5.52008 21.1254 4.04256 19.3038 4.04256C19.1216 4.04256 18.9495 3.9616 18.8483 3.8098C18.2513 2.97995 17.2695 2.43347 16.1664 2.43347C15.0634 2.43347 14.0817 2.97995 13.4846 3.8098C13.3834 3.95148 13.2114 4.04256 13.0292 4.04256C13.0008 4.04256 12.9725 4.04292 12.9442 4.04364C11.1619 4.08876 9.73009 5.54851 9.73009 7.34169V7.35181C9.73009 7.97925 9.54793 8.59657 9.20385 9.12282L9.20156 9.12649C8.85893 9.65193 8.65747 10.268 8.65747 10.9444C8.65747 11.4605 8.77891 11.9362 8.98131 12.3713C9.05215 12.513 9.05215 12.6851 8.98131 12.8268C8.77891 13.2518 8.65747 13.7274 8.65747 14.2334C8.65747 16.0146 10.0945 17.4516 11.8756 17.4516H20.4574C22.2386 17.4516 23.6756 16.0146 23.6756 14.2334C23.6756 13.7274 23.5542 13.2518 23.3518 12.8268C23.2809 12.6851 23.2809 12.513 23.3518 12.3713ZM11.0916 9.69895H11.0793L12.278 12.0545C12.4013 14.857 13.495 12.0545 16.1664 12.0545C18.8379 12.0545 20.0028 15.1739 20.1261 12.3713L21.262 9.17421C21.2083 7.92938 20.3062 7.84201 20.1261 7.84201H16.9061C15.6345 7.84201 14.4347 7.21963 13.7168 6.16872C13.5938 5.99527 13.3374 6.02588 13.2554 6.21973L13.1733 6.41359C12.9477 6.97475 12.517 7.40328 11.9838 7.64815C11.9684 7.65325 11.9505 7.6609 11.9325 7.66856C11.9146 7.67621 11.8966 7.68386 11.8812 7.68896C11.6454 7.8114 11.0916 8.17871 11.0711 9.12758L11.0814 9.43367L11.0916 9.69895Z" fill="url(#paint7_radial_4002_2383)"/>
<path fill-rule="evenodd" clip-rule="evenodd" d="M23.3518 12.3713C23.5643 11.9362 23.6756 11.4504 23.6756 10.9444C23.6756 10.4771 23.5795 10.0386 23.4071 9.63894H23.4124C23.3319 9.45795 23.2415 9.28695 23.1312 9.12594L23.1291 9.12282C22.785 8.59657 22.6029 7.97925 22.6029 7.35181V7.34169C22.6029 5.52008 21.1254 4.04256 19.3038 4.04256C19.1216 4.04256 18.9495 3.9616 18.8483 3.8098C18.2513 2.97995 17.2695 2.43347 16.1664 2.43347C15.0634 2.43347 14.0817 2.97995 13.4846 3.8098C13.3834 3.95148 13.2114 4.04256 13.0292 4.04256C13.0008 4.04256 12.9725 4.04292 12.9442 4.04364C11.1619 4.08876 9.73009 5.54851 9.73009 7.34169V7.35181C9.73009 7.97925 9.54793 8.59657 9.20385 9.12282L9.20156 9.12649C8.85893 9.65193 8.65747 10.268 8.65747 10.9444C8.65747 11.4605 8.77891 11.9362 8.98131 12.3713C9.05215 12.513 9.05215 12.6851 8.98131 12.8268C8.77891 13.2518 8.65747 13.7274 8.65747 14.2334C8.65747 16.0146 10.0945 17.4516 11.8756 17.4516H20.4574C22.2386 17.4516 23.6756 16.0146 23.6756 14.2334C23.6756 13.7274 23.5542 13.2518 23.3518 12.8268C23.2809 12.6851 23.2809 12.513 23.3518 12.3713ZM11.0916 9.69895H11.0793L12.278 12.0545C12.4013 14.857 13.495 12.0545 16.1664 12.0545C18.8379 12.0545 20.0028 15.1739 20.1261 12.3713L21.262 9.17421C21.2083 7.92938 20.3062 7.84201 20.1261 7.84201H16.9061C15.6345 7.84201 14.4347 7.21963 13.7168 6.16872C13.5938 5.99527 13.3374 6.02588 13.2554 6.21973L13.1733 6.41359C12.9477 6.97475 12.517 7.40328 11.9838 7.64815C11.9684 7.65325 11.9505 7.6609 11.9325 7.66856C11.9146 7.67621 11.8966 7.68386 11.8812 7.68896C11.6454 7.8114 11.0916 8.17871 11.0711 9.12758L11.0814 9.43367L11.0916 9.69895Z" fill="url(#paint8_radial_4002_2383)"/>
</g>
<path d="M9.14258 17.989C11.0452 16.4179 13.4846 15.4745 16.1426 15.4745C18.8006 15.4745 21.24 16.4179 23.1426 17.989V29.9745H9.14258V17.989Z" fill="url(#paint9_radial_4002_2383)"/>
<path d="M9.14258 17.989C11.0452 16.4179 13.4846 15.4745 16.1426 15.4745C18.8006 15.4745 21.24 16.4179 23.1426 17.989V29.9745H9.14258V17.989Z" fill="url(#paint10_radial_4002_2383)"/>
<path d="M9.14258 17.989C11.0452 16.4179 13.4846 15.4745 16.1426 15.4745C18.8006 15.4745 21.24 16.4179 23.1426 17.989V29.9745H9.14258V17.989Z" fill="url(#paint11_radial_4002_2383)"/>
<path d="M9.14258 17.989C11.0452 16.4179 13.4846 15.4745 16.1426 15.4745C18.8006 15.4745 21.24 16.4179 23.1426 17.989V29.9745H9.14258V17.989Z" fill="url(#paint12_radial_4002_2383)"/>
<g filter="url(#filter1_f_4002_2383)">
<path fill-rule="evenodd" clip-rule="evenodd" d="M17.1013 20.8103C18.2729 20.3736 19.0684 19.5219 19.0684 18.5428C19.0684 17.1186 17.3855 15.964 15.3096 15.964C13.2336 15.964 11.5508 17.1186 11.5508 18.5428C11.5508 19.5219 12.3461 20.3735 13.5177 20.8103C13.1292 21.2465 13.1141 21.791 13.1142 22.2963C13.1106 22.5132 13.1043 22.9169 13.1006 23.2202C13.0985 23.3966 13.2526 23.5316 13.4231 23.4865C13.8045 23.3857 14.3317 23.1712 14.6874 22.7804C15.0648 22.3656 15.2516 21.9666 15.3095 21.3475C15.3673 21.9666 15.5541 22.3656 15.9315 22.7804C16.2872 23.1712 16.8145 23.3857 17.1958 23.4865C17.3664 23.5316 17.5204 23.3966 17.5183 23.2202C17.5146 22.9169 17.5083 22.5132 17.5047 22.2963C17.5048 21.791 17.4897 21.2465 17.1013 20.8103Z" fill="#B693A1"/>
</g>
<ellipse cx="16.1427" cy="17.3142" rx="4.4889" ry="3.0797" fill="url(#paint13_linear_4002_2383)"/>
<ellipse cx="16.1427" cy="17.3142" rx="4.4889" ry="3.0797" fill="url(#paint14_radial_4002_2383)"/>
<g filter="url(#filter2_f_4002_2383)">
<ellipse cx="16.1425" cy="17.0663" rx="3.84366" ry="2.21875" stroke="url(#paint15_linear_4002_2383)" stroke-width="0.5"/>
</g>
<g filter="url(#filter3_i_4002_2383)">
<path d="M14.0638 19.9569C14.8881 19.1678 15.7813 19.0194 16.1225 19.0663C16.2551 20.8592 16.1106 21.5936 15.3996 22.3749C14.9749 22.8415 14.3452 23.0977 13.8898 23.2181C13.6861 23.272 13.5021 23.1107 13.5047 22.9001C13.5091 22.5379 13.5166 22.0557 13.5209 21.7967C13.5208 21.1678 13.5404 20.4881 14.0638 19.9569Z" fill="url(#paint16_radial_4002_2383)"/>
<path d="M14.0638 19.9569C14.8881 19.1678 15.7813 19.0194 16.1225 19.0663C16.2551 20.8592 16.1106 21.5936 15.3996 22.3749C14.9749 22.8415 14.3452 23.0977 13.8898 23.2181C13.6861 23.272 13.5021 23.1107 13.5047 22.9001C13.5091 22.5379 13.5166 22.0557 13.5209 21.7967C13.5208 21.1678 13.5404 20.4881 14.0638 19.9569Z" fill="url(#paint17_radial_4002_2383)"/>
</g>
<g filter="url(#filter4_i_4002_2383)">
<path d="M18.2213 19.9569C17.3971 19.1678 16.5038 19.0194 16.1627 19.0663C16.03 20.8592 16.1745 21.5936 16.8855 22.3749C17.3102 22.8415 17.9399 23.0977 18.3954 23.2181C18.599 23.272 18.783 23.1107 18.7805 22.9001C18.7761 22.5379 18.7685 22.0557 18.7643 21.7967C18.7643 21.1678 18.7447 20.4881 18.2213 19.9569Z" fill="url(#paint18_radial_4002_2383)"/>
<path d="M18.2213 19.9569C17.3971 19.1678 16.5038 19.0194 16.1627 19.0663C16.03 20.8592 16.1745 21.5936 16.8855 22.3749C17.3102 22.8415 17.9399 23.0977 18.3954 23.2181C18.599 23.272 18.783 23.1107 18.7805 22.9001C18.7761 22.5379 18.7685 22.0557 18.7643 21.7967C18.7643 21.1678 18.7447 20.4881 18.2213 19.9569Z" fill="url(#paint19_linear_4002_2383)"/>
<path d="M18.2213 19.9569C17.3971 19.1678 16.5038 19.0194 16.1627 19.0663C16.03 20.8592 16.1745 21.5936 16.8855 22.3749C17.3102 22.8415 17.9399 23.0977 18.3954 23.2181C18.599 23.272 18.783 23.1107 18.7805 22.9001C18.7761 22.5379 18.7685 22.0557 18.7643 21.7967C18.7643 21.1678 18.7447 20.4881 18.2213 19.9569Z" fill="url(#paint20_radial_4002_2383)"/>
</g>
<path d="M5.14276 26.4745C5.12286 23.0645 6.72478 20.0045 9.14257 17.9745V29.9545L5.16266 29.9745L5.14276 26.4745Z" fill="url(#paint21_radial_4002_2383)"/>
<g filter="url(#filter5_i_4002_2383)">
<path d="M15.4131 19.0969C15.5956 19.0385 15.8449 18.9877 16.1418 18.9877C16.4387 18.9877 16.6881 19.0385 16.8706 19.0969C17.0559 19.1562 17.1478 19.348 17.1072 19.5383C17.046 19.8252 16.9638 20.0657 16.8847 20.2523C16.78 20.4994 16.5448 20.6664 16.2766 20.6779C16.156 20.683 16.1277 20.683 16.0071 20.6779C15.7389 20.6664 15.5036 20.4994 15.3989 20.2523C15.3198 20.0657 15.2376 19.8252 15.1765 19.5383C15.1358 19.348 15.2278 19.1562 15.4131 19.0969Z" fill="url(#paint22_linear_4002_2383)"/>
<path d="M15.4131 19.0969C15.5956 19.0385 15.8449 18.9877 16.1418 18.9877C16.4387 18.9877 16.6881 19.0385 16.8706 19.0969C17.0559 19.1562 17.1478 19.348 17.1072 19.5383C17.046 19.8252 16.9638 20.0657 16.8847 20.2523C16.78 20.4994 16.5448 20.6664 16.2766 20.6779C16.156 20.683 16.1277 20.683 16.0071 20.6779C15.7389 20.6664 15.5036 20.4994 15.3989 20.2523C15.3198 20.0657 15.2376 19.8252 15.1765 19.5383C15.1358 19.348 15.2278 19.1562 15.4131 19.0969Z" fill="url(#paint23_radial_4002_2383)"/>
</g>
<path d="M4.58924 29.9747H13.433L11.4016 24.1697C10.8 22.3789 11.0815 20.6376 6.79216 21.2163C4.07361 21.5496 2.58929 24.4329 3.63592 27.3394L4.58924 29.9747Z" fill="url(#paint24_linear_4002_2383)"/>
<path d="M4.58924 29.9747H13.433L11.4016 24.1697C10.8 22.3789 11.0815 20.6376 6.79216 21.2163C4.07361 21.5496 2.58929 24.4329 3.63592 27.3394L4.58924 29.9747Z" fill="url(#paint25_linear_4002_2383)"/>
<g filter="url(#filter6_ii_4002_2383)">
<path d="M5.63636 29.9747H14.4801L12.4487 24.1235C11.8471 22.3184 10.4269 20.8268 7.83928 21.1466C5.12073 21.4825 3.63641 24.3888 4.68304 27.3184L5.63636 29.9747Z" fill="url(#paint26_linear_4002_2383)"/>
</g>
<g filter="url(#filter7_f_4002_2383)">
<path d="M8.31227 25.2926C8.9971 25.2926 9.55227 24.7375 9.55227 24.0526C9.55227 23.3678 8.9971 22.8126 8.31227 22.8126C7.62743 22.8126 7.07227 23.3678 7.07227 24.0526C7.07227 24.7375 7.62743 25.2926 8.31227 25.2926Z" fill="#F99E93"/>
</g>
<g filter="url(#filter8_f_4002_2383)">
<path d="M11.3201 28.3144C12.0049 28.3144 12.5601 27.7592 12.5601 27.0744C12.5601 26.3895 12.0049 25.8344 11.3201 25.8344C10.6352 25.8344 10.0801 26.3895 10.0801 27.0744C10.0801 27.7592 10.6352 28.3144 11.3201 28.3144Z" fill="#F99E93"/>
</g>
<g filter="url(#filter9_f_4002_2383)">
<path d="M7.3086 29.1747C7.99344 29.1747 8.5486 28.6195 8.5486 27.9347C8.5486 27.2499 7.99344 26.6947 7.3086 26.6947C6.62377 26.6947 6.0686 27.2499 6.0686 27.9347C6.0686 28.6195 6.62377 29.1747 7.3086 29.1747Z" fill="#F99E93"/>
</g>
<g filter="url(#filter10_ii_4002_2383)">
<path d="M8.38258 25.2145C9.06741 25.2145 9.62258 24.6593 9.62258 23.9745C9.62258 23.2897 9.06741 22.7345 8.38258 22.7345C7.69775 22.7345 7.14258 23.2897 7.14258 23.9745C7.14258 24.6593 7.69775 25.2145 8.38258 25.2145Z" fill="url(#paint27_radial_4002_2383)"/>
</g>
<path d="M8.38258 25.2145C9.06741 25.2145 9.62258 24.6593 9.62258 23.9745C9.62258 23.2897 9.06741 22.7345 8.38258 22.7345C7.69775 22.7345 7.14258 23.2897 7.14258 23.9745C7.14258 24.6593 7.69775 25.2145 8.38258 25.2145Z" fill="url(#paint28_radial_4002_2383)"/>
<g filter="url(#filter11_ii_4002_2383)">
<path d="M11.3826 28.2636C12.0674 28.2636 12.6226 27.7084 12.6226 27.0236C12.6226 26.3387 12.0674 25.7836 11.3826 25.7836C10.6977 25.7836 10.1426 26.3387 10.1426 27.0236C10.1426 27.7084 10.6977 28.2636 11.3826 28.2636Z" fill="url(#paint29_radial_4002_2383)"/>
</g>
<g filter="url(#filter12_ii_4002_2383)">
<path d="M7.38258 29.1044C8.06741 29.1044 8.62258 28.5492 8.62258 27.8644C8.62258 27.1796 8.06741 26.6244 7.38258 26.6244C6.69775 26.6244 6.14258 27.1796 6.14258 27.8644C6.14258 28.5492 6.69775 29.1044 7.38258 29.1044Z" fill="url(#paint30_radial_4002_2383)"/>
</g>
<path d="M7.38258 29.1044C8.06741 29.1044 8.62258 28.5492 8.62258 27.8644C8.62258 27.1796 8.06741 26.6244 7.38258 26.6244C6.69775 26.6244 6.14258 27.1796 6.14258 27.8644C6.14258 28.5492 6.69775 29.1044 7.38258 29.1044Z" fill="url(#paint31_radial_4002_2383)"/>
<g filter="url(#filter13_i_4002_2383)">
<path d="M27.7341 23.0184C28.266 23.0184 28.7012 23.4536 28.7012 23.9855V26.2001H26.7671V23.9855C26.7768 23.4536 27.2023 23.0184 27.7341 23.0184Z" fill="url(#paint32_radial_4002_2383)"/>
<path d="M27.7341 23.0184C28.266 23.0184 28.7012 23.4536 28.7012 23.9855V26.2001H26.7671V23.9855C26.7768 23.4536 27.2023 23.0184 27.7341 23.0184Z" fill="url(#paint33_radial_4002_2383)"/>
</g>
<path d="M23.1426 29.9745V17.9745C25.5826 19.9979 27.1426 23.053 27.1426 26.4686V29.9745H23.1426Z" fill="url(#paint34_radial_4002_2383)"/>
<path d="M23.1426 29.9745V17.9745C25.5826 19.9979 27.1426 23.053 27.1426 26.4686V29.9745H23.1426Z" fill="url(#paint35_linear_4002_2383)"/>
<path d="M23.1426 29.9745V17.9745C25.5826 19.9979 27.1426 23.053 27.1426 26.4686V29.9745H23.1426Z" fill="url(#paint36_linear_4002_2383)"/>
<path d="M25.3784 20.7245C25.3301 20.7245 25.2886 20.7591 25.2804 20.8068C25.0498 22.1449 25.081 23.5019 25.173 24.9412L25.7827 29.2445C25.8236 29.5245 26.0686 29.7445 26.3544 29.7445C26.6505 29.7445 26.8955 29.5345 26.9261 29.2445L27.5557 24.8943C27.6169 23.4016 27.6478 22.1424 27.4188 20.807C27.4106 20.7593 27.369 20.7245 27.3206 20.7245H25.3784Z" fill="url(#paint37_radial_4002_2383)"/>
<path d="M25.3784 20.7245C25.3301 20.7245 25.2886 20.7591 25.2804 20.8068C25.0498 22.1449 25.081 23.5019 25.173 24.9412L25.7827 29.2445C25.8236 29.5245 26.0686 29.7445 26.3544 29.7445C26.6505 29.7445 26.8955 29.5345 26.9261 29.2445L27.5557 24.8943C27.6169 23.4016 27.6478 22.1424 27.4188 20.807C27.4106 20.7593 27.369 20.7245 27.3206 20.7245H25.3784Z" fill="url(#paint38_linear_4002_2383)"/>
<g filter="url(#filter14_i_4002_2383)">
<path d="M27.277 20.7245C27.3378 20.7245 27.3845 20.6706 27.3755 20.6104C27.2764 19.9492 27.1413 19.3493 26.9427 18.7345H25.7427C25.5365 19.3435 25.4003 20.05 25.3276 20.6128C25.3199 20.6722 25.3664 20.7245 25.4263 20.7245H27.277Z" fill="url(#paint39_linear_4002_2383)"/>
<path d="M27.277 20.7245C27.3378 20.7245 27.3845 20.6706 27.3755 20.6104C27.2764 19.9492 27.1413 19.3493 26.9427 18.7345H25.7427C25.5365 19.3435 25.4003 20.05 25.3276 20.6128C25.3199 20.6722 25.3664 20.7245 25.4263 20.7245H27.277Z" fill="url(#paint40_radial_4002_2383)"/>
<path d="M27.277 20.7245C27.3378 20.7245 27.3845 20.6706 27.3755 20.6104C27.2764 19.9492 27.1413 19.3493 26.9427 18.7345H25.7427C25.5365 19.3435 25.4003 20.05 25.3276 20.6128C25.3199 20.6722 25.3664 20.7245 25.4263 20.7245H27.277Z" fill="url(#paint41_radial_4002_2383)"/>
<path d="M27.277 20.7245C27.3378 20.7245 27.3845 20.6706 27.3755 20.6104C27.2764 19.9492 27.1413 19.3493 26.9427 18.7345H25.7427C25.5365 19.3435 25.4003 20.05 25.3276 20.6128C25.3199 20.6722 25.3664 20.7245 25.4263 20.7245H27.277Z" fill="url(#paint42_linear_4002_2383)"/>
</g>
<path d="M25.169 16.5795L25.8538 16.4874C26.1763 16.4874 26.5887 16.9586 26.5887 17.2812C26.5887 17.7542 26.7246 17.8313 27.1977 17.8313C27.6519 17.8417 28.0579 17.8318 28.1054 17.395C28.1082 17.4337 28.1096 17.4729 28.1096 17.5122C28.1096 18.4045 27.3893 19.1249 26.497 19.1249C25.6046 19.1249 24.8843 18.4045 24.8843 17.5122C24.8843 17.2434 24.9488 16.9961 25.067 16.7703C25.0773 16.7486 25.1584 16.6009 25.169 16.5795Z" fill="url(#paint43_radial_4002_2383)"/>
<g filter="url(#filter15_i_4002_2383)">
<path d="M28.2926 14.8996C28.2281 14.8458 28.1528 14.8243 28.0775 14.8243C26.8299 14.9068 25.7025 15.4739 25.1001 16.5634C25.0643 16.6282 25.1124 16.7058 25.1864 16.7058H25.8198C26.1423 16.7058 26.4003 16.9638 26.4003 17.2864C26.4003 17.7594 26.7659 18.168 27.2389 18.168C27.712 18.1787 28.0883 17.8024 28.1098 17.3401C28.1098 17.2864 28.099 17.2326 28.0883 17.1789V17.1681C27.927 16.4693 28.0345 15.878 28.3678 15.2866C28.4323 15.1576 28.4001 14.9964 28.2926 14.8996Z" fill="url(#paint44_radial_4002_2383)"/>
<path d="M28.2926 14.8996C28.2281 14.8458 28.1528 14.8243 28.0775 14.8243C26.8299 14.9068 25.7025 15.4739 25.1001 16.5634C25.0643 16.6282 25.1124 16.7058 25.1864 16.7058H25.8198C26.1423 16.7058 26.4003 16.9638 26.4003 17.2864C26.4003 17.7594 26.7659 18.168 27.2389 18.168C27.712 18.1787 28.0883 17.8024 28.1098 17.3401C28.1098 17.2864 28.099 17.2326 28.0883 17.1789V17.1681C27.927 16.4693 28.0345 15.878 28.3678 15.2866C28.4323 15.1576 28.4001 14.9964 28.2926 14.8996Z" fill="url(#paint45_radial_4002_2383)"/>
<path d="M28.2926 14.8996C28.2281 14.8458 28.1528 14.8243 28.0775 14.8243C26.8299 14.9068 25.7025 15.4739 25.1001 16.5634C25.0643 16.6282 25.1124 16.7058 25.1864 16.7058H25.8198C26.1423 16.7058 26.4003 16.9638 26.4003 17.2864C26.4003 17.7594 26.7659 18.168 27.2389 18.168C27.712 18.1787 28.0883 17.8024 28.1098 17.3401C28.1098 17.2864 28.099 17.2326 28.0883 17.1789V17.1681C27.927 16.4693 28.0345 15.878 28.3678 15.2866C28.4323 15.1576 28.4001 14.9964 28.2926 14.8996Z" fill="url(#paint46_radial_4002_2383)"/>
<path d="M28.2926 14.8996C28.2281 14.8458 28.1528 14.8243 28.0775 14.8243C26.8299 14.9068 25.7025 15.4739 25.1001 16.5634C25.0643 16.6282 25.1124 16.7058 25.1864 16.7058H25.8198C26.1423 16.7058 26.4003 16.9638 26.4003 17.2864C26.4003 17.7594 26.7659 18.168 27.2389 18.168C27.712 18.1787 28.0883 17.8024 28.1098 17.3401C28.1098 17.2864 28.099 17.2326 28.0883 17.1789V17.1681C27.927 16.4693 28.0345 15.878 28.3678 15.2866C28.4323 15.1576 28.4001 14.9964 28.2926 14.8996Z" fill="url(#paint47_radial_4002_2383)"/>
</g>
<g filter="url(#filter16_i_4002_2383)">
<path d="M24.0049 25.3001C24.0049 24.8988 24.3302 24.5682 24.7314 24.5682H27.5012C28.164 24.5682 28.7012 25.1055 28.7012 25.7682V28.9745C28.7012 29.5268 28.2535 29.9745 27.7012 29.9745H24.7314C24.3302 29.9745 24.0049 29.6439 24.0049 29.2426C24.0049 28.9559 24.171 28.7053 24.4122 28.5855C24.171 28.4658 24.0049 28.2152 24.0049 27.9285C24.0049 27.6417 24.171 27.3911 24.4122 27.2714C24.171 27.1516 24.0049 26.901 24.0049 26.6143C24.0049 26.3275 24.171 26.0769 24.4122 25.9572C24.171 25.8375 24.0049 25.5868 24.0049 25.3001Z" fill="url(#paint48_linear_4002_2383)"/>
<path d="M24.0049 25.3001C24.0049 24.8988 24.3302 24.5682 24.7314 24.5682H27.5012C28.164 24.5682 28.7012 25.1055 28.7012 25.7682V28.9745C28.7012 29.5268 28.2535 29.9745 27.7012 29.9745H24.7314C24.3302 29.9745 24.0049 29.6439 24.0049 29.2426C24.0049 28.9559 24.171 28.7053 24.4122 28.5855C24.171 28.4658 24.0049 28.2152 24.0049 27.9285C24.0049 27.6417 24.171 27.3911 24.4122 27.2714C24.171 27.1516 24.0049 26.901 24.0049 26.6143C24.0049 26.3275 24.171 26.0769 24.4122 25.9572C24.171 25.8375 24.0049 25.5868 24.0049 25.3001Z" fill="url(#paint49_radial_4002_2383)"/>
<path d="M24.0049 25.3001C24.0049 24.8988 24.3302 24.5682 24.7314 24.5682H27.5012C28.164 24.5682 28.7012 25.1055 28.7012 25.7682V28.9745C28.7012 29.5268 28.2535 29.9745 27.7012 29.9745H24.7314C24.3302 29.9745 24.0049 29.6439 24.0049 29.2426C24.0049 28.9559 24.171 28.7053 24.4122 28.5855C24.171 28.4658 24.0049 28.2152 24.0049 27.9285C24.0049 27.6417 24.171 27.3911 24.4122 27.2714C24.171 27.1516 24.0049 26.901 24.0049 26.6143C24.0049 26.3275 24.171 26.0769 24.4122 25.9572C24.171 25.8375 24.0049 25.5868 24.0049 25.3001Z" fill="url(#paint50_radial_4002_2383)"/>
<path d="M24.0049 25.3001C24.0049 24.8988 24.3302 24.5682 24.7314 24.5682H27.5012C28.164 24.5682 28.7012 25.1055 28.7012 25.7682V28.9745C28.7012 29.5268 28.2535 29.9745 27.7012 29.9745H24.7314C24.3302 29.9745 24.0049 29.6439 24.0049 29.2426C24.0049 28.9559 24.171 28.7053 24.4122 28.5855C24.171 28.4658 24.0049 28.2152 24.0049 27.9285C24.0049 27.6417 24.171 27.3911 24.4122 27.2714C24.171 27.1516 24.0049 26.901 24.0049 26.6143C24.0049 26.3275 24.171 26.0769 24.4122 25.9572C24.171 25.8375 24.0049 25.5868 24.0049 25.3001Z" fill="url(#paint51_radial_4002_2383)"/>
<path d="M24.0049 25.3001C24.0049 24.8988 24.3302 24.5682 24.7314 24.5682H27.5012C28.164 24.5682 28.7012 25.1055 28.7012 25.7682V28.9745C28.7012 29.5268 28.2535 29.9745 27.7012 29.9745H24.7314C24.3302 29.9745 24.0049 29.6439 24.0049 29.2426C24.0049 28.9559 24.171 28.7053 24.4122 28.5855C24.171 28.4658 24.0049 28.2152 24.0049 27.9285C24.0049 27.6417 24.171 27.3911 24.4122 27.2714C24.171 27.1516 24.0049 26.901 24.0049 26.6143C24.0049 26.3275 24.171 26.0769 24.4122 25.9572C24.171 25.8375 24.0049 25.5868 24.0049 25.3001Z" fill="url(#paint52_radial_4002_2383)"/>
</g>
<g filter="url(#filter17_f_4002_2383)">
<path d="M24.5249 25.9523H26.3218" stroke="url(#paint53_linear_4002_2383)" stroke-width="0.05" stroke-linecap="round"/>
</g>
<g filter="url(#filter18_f_4002_2383)">
<path d="M24.4468 27.257H26.2437" stroke="url(#paint54_linear_4002_2383)" stroke-width="0.05" stroke-linecap="round"/>
</g>
<g filter="url(#filter19_f_4002_2383)">
<path d="M24.5249 28.5616H26.3218" stroke="url(#paint55_linear_4002_2383)" stroke-width="0.05" stroke-linecap="round"/>
</g>
<g filter="url(#filter20_i_4002_2383)">
<path d="M11.4809 12.5706C12.3696 12.5706 13.09 11.8502 13.09 10.9615C13.09 10.0728 12.3696 9.35242 11.4809 9.35242C10.5922 9.35242 9.87183 10.0728 9.87183 10.9615C9.87183 11.8502 10.5922 12.5706 11.4809 12.5706Z" fill="url(#paint56_linear_4002_2383)"/>
</g>
<g filter="url(#filter21_i_4002_2383)">
<path d="M20.9939 12.5706C21.8825 12.5706 22.6029 11.8502 22.6029 10.9615C22.6029 10.0728 21.8825 9.35242 20.9939 9.35242C20.1052 9.35242 19.3848 10.0728 19.3848 10.9615C19.3848 11.8502 20.1052 12.5706 20.9939 12.5706Z" fill="url(#paint57_radial_4002_2383)"/>
</g>
<g filter="url(#filter22_f_4002_2383)">
<path d="M20.994 12.0358C21.5872 12.0358 22.0681 11.5549 22.0681 10.9617C22.0681 10.3685 21.5872 9.88757 20.994 9.88757C20.4008 9.88757 19.9199 10.3685 19.9199 10.9617C19.9199 11.5549 20.4008 12.0358 20.994 12.0358Z" fill="#FFCA38"/>
<path d="M20.994 12.0358C21.5872 12.0358 22.0681 11.5549 22.0681 10.9617C22.0681 10.3685 21.5872 9.88757 20.994 9.88757C20.4008 9.88757 19.9199 10.3685 19.9199 10.9617C19.9199 11.5549 20.4008 12.0358 20.994 12.0358Z" fill="url(#paint58_radial_4002_2383)"/>
</g>
<g filter="url(#filter23_f_4002_2383)">
<path d="M11.5004 12.0358C12.0936 12.0358 12.5745 11.5549 12.5745 10.9617C12.5745 10.3685 12.0936 9.88757 11.5004 9.88757C10.9072 9.88757 10.4263 10.3685 10.4263 10.9617C10.4263 11.5549 10.9072 12.0358 11.5004 12.0358Z" fill="#E28527"/>
<path d="M11.5004 12.0358C12.0936 12.0358 12.5745 11.5549 12.5745 10.9617C12.5745 10.3685 12.0936 9.88757 11.5004 9.88757C10.9072 9.88757 10.4263 10.3685 10.4263 10.9617C10.4263 11.5549 10.9072 12.0358 11.5004 12.0358Z" fill="url(#paint59_radial_4002_2383)"/>
</g>
<g filter="url(#filter24_i_4002_2383)">
<path d="M14.2129 13.7772H18.0723V16.871C18.0723 17.6994 17.2523 18.371 16.4238 18.371H15.959C14.877 18.371 14.2129 17.6994 14.2129 16.871V13.7772Z" fill="url(#paint60_radial_4002_2383)"/>
<path d="M14.2129 13.7772H18.0723V16.871C18.0723 17.6994 17.2523 18.371 16.4238 18.371H15.959C14.877 18.371 14.2129 17.6994 14.2129 16.871V13.7772Z" fill="url(#paint61_radial_4002_2383)"/>
</g>
<g filter="url(#filter25_i_4002_2383)">
<path d="M11.0795 9.69897H11.0918L11.0815 9.43369L11.0713 9.1276C11.0918 8.17873 11.6456 7.81142 11.8814 7.68898C11.8968 7.68388 11.9147 7.67623 11.9327 7.66858C11.9506 7.66092 11.9686 7.65327 11.984 7.64817C12.5172 7.4033 12.9479 6.97477 13.1735 6.41361L13.2556 6.21975C13.3376 6.02589 13.594 5.99529 13.717 6.16874C14.4349 7.21964 15.6347 7.84203 16.9063 7.84203H20.1263C20.3064 7.84203 21.2085 7.9294 21.2622 9.17423L21.1434 12.2473C21.0201 15.0498 18.8316 16.9316 16.1602 16.9316C13.4887 16.9316 11.3002 15.0498 11.1769 12.2473L11.0795 9.69897Z" fill="url(#paint62_radial_4002_2383)"/>
<path d="M11.0795 9.69897H11.0918L11.0815 9.43369L11.0713 9.1276C11.0918 8.17873 11.6456 7.81142 11.8814 7.68898C11.8968 7.68388 11.9147 7.67623 11.9327 7.66858C11.9506 7.66092 11.9686 7.65327 11.984 7.64817C12.5172 7.4033 12.9479 6.97477 13.1735 6.41361L13.2556 6.21975C13.3376 6.02589 13.594 5.99529 13.717 6.16874C14.4349 7.21964 15.6347 7.84203 16.9063 7.84203H20.1263C20.3064 7.84203 21.2085 7.9294 21.2622 9.17423L21.1434 12.2473C21.0201 15.0498 18.8316 16.9316 16.1602 16.9316C13.4887 16.9316 11.3002 15.0498 11.1769 12.2473L11.0795 9.69897Z" fill="url(#paint63_radial_4002_2383)"/>
<path d="M11.0795 9.69897H11.0918L11.0815 9.43369L11.0713 9.1276C11.0918 8.17873 11.6456 7.81142 11.8814 7.68898C11.8968 7.68388 11.9147 7.67623 11.9327 7.66858C11.9506 7.66092 11.9686 7.65327 11.984 7.64817C12.5172 7.4033 12.9479 6.97477 13.1735 6.41361L13.2556 6.21975C13.3376 6.02589 13.594 5.99529 13.717 6.16874C14.4349 7.21964 15.6347 7.84203 16.9063 7.84203H20.1263C20.3064 7.84203 21.2085 7.9294 21.2622 9.17423L21.1434 12.2473C21.0201 15.0498 18.8316 16.9316 16.1602 16.9316C13.4887 16.9316 11.3002 15.0498 11.1769 12.2473L11.0795 9.69897Z" fill="url(#paint64_radial_4002_2383)"/>
<path d="M11.0795 9.69897H11.0918L11.0815 9.43369L11.0713 9.1276C11.0918 8.17873 11.6456 7.81142 11.8814 7.68898C11.8968 7.68388 11.9147 7.67623 11.9327 7.66858C11.9506 7.66092 11.9686 7.65327 11.984 7.64817C12.5172 7.4033 12.9479 6.97477 13.1735 6.41361L13.2556 6.21975C13.3376 6.02589 13.594 5.99529 13.717 6.16874C14.4349 7.21964 15.6347 7.84203 16.9063 7.84203H20.1263C20.3064 7.84203 21.2085 7.9294 21.2622 9.17423L21.1434 12.2473C21.0201 15.0498 18.8316 16.9316 16.1602 16.9316C13.4887 16.9316 11.3002 15.0498 11.1769 12.2473L11.0795 9.69897Z" fill="url(#paint65_radial_4002_2383)"/>
<path d="M11.0795 9.69897H11.0918L11.0815 9.43369L11.0713 9.1276C11.0918 8.17873 11.6456 7.81142 11.8814 7.68898C11.8968 7.68388 11.9147 7.67623 11.9327 7.66858C11.9506 7.66092 11.9686 7.65327 11.984 7.64817C12.5172 7.4033 12.9479 6.97477 13.1735 6.41361L13.2556 6.21975C13.3376 6.02589 13.594 5.99529 13.717 6.16874C14.4349 7.21964 15.6347 7.84203 16.9063 7.84203H20.1263C20.3064 7.84203 21.2085 7.9294 21.2622 9.17423L21.1434 12.2473C21.0201 15.0498 18.8316 16.9316 16.1602 16.9316C13.4887 16.9316 11.3002 15.0498 11.1769 12.2473L11.0795 9.69897Z" fill="url(#paint66_radial_4002_2383)"/>
<path d="M11.0795 9.69897H11.0918L11.0815 9.43369L11.0713 9.1276C11.0918 8.17873 11.6456 7.81142 11.8814 7.68898C11.8968 7.68388 11.9147 7.67623 11.9327 7.66858C11.9506 7.66092 11.9686 7.65327 11.984 7.64817C12.5172 7.4033 12.9479 6.97477 13.1735 6.41361L13.2556 6.21975C13.3376 6.02589 13.594 5.99529 13.717 6.16874C14.4349 7.21964 15.6347 7.84203 16.9063 7.84203H20.1263C20.3064 7.84203 21.2085 7.9294 21.2622 9.17423L21.1434 12.2473C21.0201 15.0498 18.8316 16.9316 16.1602 16.9316C13.4887 16.9316 11.3002 15.0498 11.1769 12.2473L11.0795 9.69897Z" fill="url(#paint67_radial_4002_2383)"/>
<path d="M11.0795 9.69897H11.0918L11.0815 9.43369L11.0713 9.1276C11.0918 8.17873 11.6456 7.81142 11.8814 7.68898C11.8968 7.68388 11.9147 7.67623 11.9327 7.66858C11.9506 7.66092 11.9686 7.65327 11.984 7.64817C12.5172 7.4033 12.9479 6.97477 13.1735 6.41361L13.2556 6.21975C13.3376 6.02589 13.594 5.99529 13.717 6.16874C14.4349 7.21964 15.6347 7.84203 16.9063 7.84203H20.1263C20.3064 7.84203 21.2085 7.9294 21.2622 9.17423L21.1434 12.2473C21.0201 15.0498 18.8316 16.9316 16.1602 16.9316C13.4887 16.9316 11.3002 15.0498 11.1769 12.2473L11.0795 9.69897Z" fill="url(#paint68_radial_4002_2383)"/>
</g>
<path d="M11.0795 9.69897H11.0918L11.0815 9.43369L11.0713 9.1276C11.0918 8.17873 11.6456 7.81142 11.8814 7.68898C11.8968 7.68388 11.9147 7.67623 11.9327 7.66858C11.9506 7.66092 11.9686 7.65327 11.984 7.64817C12.5172 7.4033 12.9479 6.97477 13.1735 6.41361L13.2556 6.21975C13.3376 6.02589 13.594 5.99529 13.717 6.16874C14.4349 7.21964 15.6347 7.84203 16.9063 7.84203H20.1263C20.3064 7.84203 21.2085 7.9294 21.2622 9.17423L21.1434 12.2473C21.0201 15.0498 18.8316 16.9316 16.1602 16.9316C13.4887 16.9316 11.3002 15.0498 11.1769 12.2473L11.0795 9.69897Z" fill="url(#paint69_radial_4002_2383)"/>
<path d="M11.0795 9.69897H11.0918L11.0815 9.43369L11.0713 9.1276C11.0918 8.17873 11.6456 7.81142 11.8814 7.68898C11.8968 7.68388 11.9147 7.67623 11.9327 7.66858C11.9506 7.66092 11.9686 7.65327 11.984 7.64817C12.5172 7.4033 12.9479 6.97477 13.1735 6.41361L13.2556 6.21975C13.3376 6.02589 13.594 5.99529 13.717 6.16874C14.4349 7.21964 15.6347 7.84203 16.9063 7.84203H20.1263C20.3064 7.84203 21.2085 7.9294 21.2622 9.17423L21.1434 12.2473C21.0201 15.0498 18.8316 16.9316 16.1602 16.9316C13.4887 16.9316 11.3002 15.0498 11.1769 12.2473L11.0795 9.69897Z" fill="url(#paint70_radial_4002_2383)"/>
<g filter="url(#filter26_f_4002_2383)">
<path d="M15.7741 10.7389L15.0905 12.4389C14.982 12.7885 15.2423 13.1382 15.6111 13.1382H16.3975C16.7663 13.1382 17.0266 12.7832 16.9181 12.4389L16.3866 10.7389C16.2728 10.3623 15.8934 10.3623 15.7741 10.7389Z" fill="#EB8B29"/>
</g>
<g filter="url(#filter27_f_4002_2383)">
<path d="M15.7843 10.6004L15.2529 12.3004C15.1444 12.6501 15.4047 12.9998 15.7735 12.9998H16.5598C16.9286 12.9998 17.1889 12.6447 17.0805 12.3004L16.549 10.6004C16.4351 10.2238 15.9036 10.2238 15.7843 10.6004Z" fill="url(#paint71_linear_4002_2383)"/>
<path d="M15.7843 10.6004L15.2529 12.3004C15.1444 12.6501 15.4047 12.9998 15.7735 12.9998H16.5598C16.9286 12.9998 17.1889 12.6447 17.0805 12.3004L16.549 10.6004C16.4351 10.2238 15.9036 10.2238 15.7843 10.6004Z" fill="url(#paint72_radial_4002_2383)"/>
<path d="M15.7843 10.6004L15.2529 12.3004C15.1444 12.6501 15.4047 12.9998 15.7735 12.9998H16.5598C16.9286 12.9998 17.1889 12.6447 17.0805 12.3004L16.549 10.6004C16.4351 10.2238 15.9036 10.2238 15.7843 10.6004Z" fill="url(#paint73_linear_4002_2383)"/>
<path d="M15.7843 10.6004L15.2529 12.3004C15.1444 12.6501 15.4047 12.9998 15.7735 12.9998H16.5598C16.9286 12.9998 17.1889 12.6447 17.0805 12.3004L16.549 10.6004C16.4351 10.2238 15.9036 10.2238 15.7843 10.6004Z" fill="url(#paint74_linear_4002_2383)"/>
</g>
<path d="M15.7843 10.6004L15.2529 12.3004C15.1444 12.6501 15.4047 12.9998 15.7735 12.9998H16.5598C16.9286 12.9998 17.1889 12.6447 17.0805 12.3004L16.549 10.6004C16.4351 10.2238 15.9036 10.2238 15.7843 10.6004Z" fill="url(#paint75_linear_4002_2383)"/>
<path d="M15.7843 10.6004L15.2529 12.3004C15.1444 12.6501 15.4047 12.9998 15.7735 12.9998H16.5598C16.9286 12.9998 17.1889 12.6447 17.0805 12.3004L16.549 10.6004C16.4351 10.2238 15.9036 10.2238 15.7843 10.6004Z" fill="url(#paint76_radial_4002_2383)"/>
<path d="M14.7686 13.4844L14.7686 13.4844L14.7682 13.4841C14.6751 13.4358 14.5783 13.4661 14.521 13.5278C14.4636 13.5896 14.4414 13.688 14.5003 13.7754C14.8528 14.3215 15.4669 14.6857 16.1667 14.6857C16.8666 14.6857 17.4809 14.3213 17.8334 13.775C17.8915 13.6857 17.8704 13.5874 17.8122 13.5256C17.7543 13.4641 17.6576 13.4361 17.5652 13.4841L17.5652 13.4841L17.5648 13.4844C17.1608 13.6998 16.6847 13.8232 16.1667 13.8232C15.6539 13.8232 15.1725 13.6998 14.7686 13.4844Z" fill="#8A004F" stroke="url(#paint77_linear_4002_2383)" stroke-width="0.1"/>
<g filter="url(#filter28_i_4002_2383)">
<path d="M17.3087 10.3925C17.5741 9.92572 17.9776 9.55701 18.8461 9.55701C19.2263 9.55701 19.593 9.66235 19.9189 9.92572C20.1877 10.143 20.1517 10.4209 19.9435 10.525L19.3875 10.8424C18.7356 10.6317 18.0149 10.6032 17.3087 10.3925Z" fill="#635D5F"/>
</g>
<g filter="url(#filter29_i_4002_2383)">
<path d="M15.0248 10.3925C14.7594 9.92572 14.3559 9.55701 13.4874 9.55701C13.1072 9.55701 12.7405 9.66235 12.4146 9.92572C12.1458 10.143 12.1818 10.4209 12.39 10.525L12.946 10.8424C13.5978 10.6317 14.3186 10.6032 15.0248 10.3925Z" fill="#635D5F"/>
</g>
<g filter="url(#filter30_i_4002_2383)">
<path d="M12.7689 9.18365L12.7646 9.18618C12.7644 9.18626 12.7643 9.18634 12.7642 9.18641C12.6372 9.26219 12.4727 9.22102 12.3966 9.0942C12.3204 8.96719 12.3617 8.80236 12.4888 8.72616L12.4893 8.72582L12.4904 8.7252L12.4933 8.72346L12.5027 8.71802C12.5105 8.71355 12.5214 8.70745 12.5352 8.7C12.5627 8.6851 12.6018 8.66475 12.6511 8.64122C12.7497 8.59425 12.8901 8.53411 13.0613 8.47948C13.4012 8.37101 13.8765 8.27976 14.3895 8.3703C14.5354 8.39604 14.6328 8.53515 14.607 8.68101C14.5813 8.82686 14.4422 8.92424 14.2963 8.8985C13.8976 8.82813 13.5147 8.89779 13.2244 8.99045C13.0804 9.0364 12.9627 9.08688 12.8819 9.12539C12.8416 9.14461 12.8108 9.16071 12.7907 9.17158C12.7807 9.17701 12.7734 9.18112 12.7689 9.18365Z" fill="#BD4F26"/>
</g>
<g filter="url(#filter31_i_4002_2383)">
<path fill-rule="evenodd" clip-rule="evenodd" d="M19.898 8.72616C19.8981 8.72621 19.8982 8.72625 19.7602 8.95622L19.898 8.72616C20.025 8.80236 20.0664 8.96719 19.9902 9.0942C19.9141 9.22103 19.7497 9.26227 19.6228 9.18649C19.6227 9.18644 19.6225 9.18635 19.6223 9.18621L19.6179 9.18365C19.6134 9.18112 19.6061 9.17701 19.5961 9.17158C19.576 9.16071 19.5452 9.14461 19.5049 9.12539C19.4241 9.08688 19.3064 9.0364 19.1624 8.99045C18.8721 8.89779 18.4892 8.82813 18.0905 8.8985C17.9446 8.92424 17.8055 8.82686 17.7798 8.68101C17.754 8.53515 17.8514 8.39604 17.9973 8.3703C18.5103 8.27976 18.9856 8.37101 19.3255 8.47948C19.4967 8.53411 19.6371 8.59425 19.7357 8.64122C19.785 8.66475 19.8241 8.6851 19.8516 8.7C19.8654 8.70745 19.8763 8.71355 19.8841 8.71802L19.8935 8.72346L19.8964 8.7252L19.8975 8.72582L19.898 8.72616Z" fill="#BD4F26"/>
</g>
<path d="M18.5576 9.6156C19.2107 9.6156 19.7624 10.0659 19.9125 10.6744C19.9572 10.8488 19.8233 11.0151 19.6448 11.0151H17.4137C17.2717 11.0151 17.1581 10.8853 17.1865 10.7433C17.3123 10.1024 17.8761 9.6156 18.5576 9.6156Z" fill="white"/>
<path d="M18.3509 9.88757C18.8458 9.88757 19.2433 10.2892 19.2433 10.78C19.2433 10.8612 19.2311 10.9423 19.2108 11.0153H17.4868C17.4665 10.9382 17.4543 10.8612 17.4543 10.78C17.4543 10.2892 17.8559 9.88757 18.3509 9.88757Z" fill="url(#paint78_radial_4002_2383)"/>
<path d="M17.8396 10.7801C17.8396 10.4961 18.0668 10.2689 18.3507 10.2689C18.6347 10.2689 18.8619 10.4961 18.8619 10.7801C18.8619 10.8652 18.8416 10.9464 18.8051 11.0153H17.9004C17.8599 10.9464 17.8396 10.8652 17.8396 10.7801Z" fill="black"/>
<g filter="url(#filter32_f_4002_2383)">
<path d="M18.2846 10.0765C18.3482 10.1614 18.2154 10.265 18.0644 10.3779C17.9134 10.4908 17.8014 10.5702 17.7378 10.4853C17.6743 10.4003 17.7452 10.2399 17.8962 10.127C18.0472 10.0141 18.2211 9.99149 18.2846 10.0765Z" fill="#C7A7A3"/>
<path d="M18.2846 10.0765C18.3482 10.1614 18.2154 10.265 18.0644 10.3779C17.9134 10.4908 17.8014 10.5702 17.7378 10.4853C17.6743 10.4003 17.7452 10.2399 17.8962 10.127C18.0472 10.0141 18.2211 9.99149 18.2846 10.0765Z" fill="url(#paint79_radial_4002_2383)"/>
</g>
<g filter="url(#filter33_f_4002_2383)">
<path d="M19.1454 10.6622C19.1124 10.4316 18.9775 10.2579 18.9142 10.1998L18.6545 10.4848L18.7717 10.7128L19.1454 10.6622Z" fill="url(#paint80_linear_4002_2383)"/>
</g>
<path d="M13.7757 9.6156C13.1226 9.6156 12.5709 10.0659 12.4208 10.6744C12.3761 10.8488 12.51 11.0151 12.6885 11.0151H14.9196C15.0616 11.0151 15.1752 10.8853 15.1468 10.7433C15.021 10.1024 14.4531 9.6156 13.7757 9.6156Z" fill="white"/>
<path d="M13.9825 9.88757C13.4876 9.88757 13.0901 10.2892 13.0901 10.78C13.0901 10.8612 13.1023 10.9423 13.1225 11.0153H14.8466C14.8669 10.9382 14.8791 10.8612 14.8791 10.78C14.875 10.2892 14.4774 9.88757 13.9825 9.88757Z" fill="url(#paint81_radial_4002_2383)"/>
<path d="M14.4937 10.7801C14.4937 10.4961 14.2665 10.2689 13.9826 10.2689C13.6986 10.2689 13.4714 10.4961 13.4714 10.7801C13.4714 10.8652 13.4917 10.9464 13.5282 11.0153H14.4329C14.4694 10.9464 14.4937 10.8652 14.4937 10.7801Z" fill="black"/>
<g filter="url(#filter34_f_4002_2383)">
<path d="M14.7975 10.6747C14.7975 10.3865 14.5632 10.1944 14.4998 10.1364L14.2117 10.415L14.389 10.776L14.7975 10.6747Z" fill="url(#paint82_linear_4002_2383)"/>
</g>
<g filter="url(#filter35_f_4002_2383)">
<ellipse cx="13.7131" cy="10.2688" rx="0.389289" ry="0.197016" transform="rotate(-27.914 13.7131 10.2688)" fill="#C7A7A3" fill-opacity="0.9"/>
<ellipse cx="13.7131" cy="10.2688" rx="0.389289" ry="0.197016" transform="rotate(-27.914 13.7131 10.2688)" fill="url(#paint83_radial_4002_2383)"/>
</g>
<g filter="url(#filter36_f_4002_2383)">
<path d="M18.1062 8.58891C18.4288 8.51044 19.2308 8.54968 19.767 8.93327" stroke="#C9725D" stroke-width="0.2" stroke-linecap="round"/>
</g>
<g filter="url(#filter37_f_4002_2383)">
<path d="M14.3152 8.58891C13.9926 8.51044 13.1906 8.54968 12.6544 8.93327" stroke="#C9725D" stroke-width="0.2" stroke-linecap="round"/>
</g>
<g filter="url(#filter38_f_4002_2383)">
<path d="M15.5633 3.17089C14.4306 2.92082 13.2167 4.12629 13.0994 4.54532C14.6414 8.16577 17.0092 7.82073 19.6363 7.52884C21.2089 7.3541 21.3795 8.07078 21.5135 8.41718C21.0777 4.36095 18.1445 3.74078 15.5633 3.17089Z" fill="url(#paint84_radial_4002_2383)"/>
<path d="M15.5633 3.17089C14.4306 2.92082 13.2167 4.12629 13.0994 4.54532C14.6414 8.16577 17.0092 7.82073 19.6363 7.52884C21.2089 7.3541 21.3795 8.07078 21.5135 8.41718C21.0777 4.36095 18.1445 3.74078 15.5633 3.17089Z" fill="url(#paint85_radial_4002_2383)"/>
<path d="M15.5633 3.17089C14.4306 2.92082 13.2167 4.12629 13.0994 4.54532C14.6414 8.16577 17.0092 7.82073 19.6363 7.52884C21.2089 7.3541 21.3795 8.07078 21.5135 8.41718C21.0777 4.36095 18.1445 3.74078 15.5633 3.17089Z" fill="url(#paint86_radial_4002_2383)"/>
</g>
<g filter="url(#filter39_f_4002_2383)">
<path d="M13.2754 4.4198C13.2987 4.66284 13.51 5.57633 13.8201 6.12945" stroke="url(#paint87_linear_4002_2383)" stroke-width="0.1" stroke-linecap="round"/>
</g>
<path d="M9.00659 5.83517C9.00659 5.38517 9.35074 4.85196 9.74074 4.62196C11.5575 3.35275 15.3103 1.96153 18.519 2.02755C21.2565 2.17687 22.843 3.66383 22.9426 6.18358C22.962 6.67471 22.4093 6.97448 22.0093 6.97448H10.2638C9.579 6.97448 9.00659 6.54517 9.00659 5.83517Z" fill="#352B40"/>
<path d="M9.00659 5.83517C9.00659 5.38517 9.35074 4.85196 9.74074 4.62196C11.5575 3.35275 15.3103 1.96153 18.519 2.02755C21.2565 2.17687 22.843 3.66383 22.9426 6.18358C22.962 6.67471 22.4093 6.97448 22.0093 6.97448H10.2638C9.579 6.97448 9.00659 6.54517 9.00659 5.83517Z" fill="url(#paint88_radial_4002_2383)"/>
<g filter="url(#filter40_f_4002_2383)">
<path d="M20.3065 2.78944C22.3148 3.56187 22.5465 5.17431 22.6721 6.14949C19.2081 5.36654 16.9231 4.97226 15.6367 4.74381C15.3275 4.68891 15.2145 4.32485 15.4581 4.12685C16.5783 3.2166 18.6186 2.14025 20.3065 2.78944Z" fill="url(#paint89_radial_4002_2383)"/>
</g>
<g filter="url(#filter41_f_4002_2383)">
<path d="M13.0152 4.72599C12.042 4.6333 10.5113 4.82898 9.86765 4.93841C9.69384 5.07359 9.38869 5.47911 9.55863 6.01981C9.72856 6.5605 10.1315 6.66993 10.3117 6.65706C13.6139 6.01981 14.2318 4.84186 13.0152 4.72599Z" fill="url(#paint90_radial_4002_2383)"/>
</g>
<defs>
<filter id="filter0_i_4002_2383" x="8.65747" y="2.18347" width="15.2681" height="15.2681" filterUnits="userSpaceOnUse" color-interpolation-filters="sRGB">
<feFlood flood-opacity="0" result="BackgroundImageFix"/>
<feBlend mode="normal" in="SourceGraphic" in2="BackgroundImageFix" result="shape"/>
<feColorMatrix in="SourceAlpha" type="matrix" values="0 0 0 0 0 0 0 0 0 0 0 0 0 0 0 0 0 0 127 0" result="hardAlpha"/>
<feOffset dx="0.25" dy="-0.25"/>
<feGaussianBlur stdDeviation="0.375"/>
<feComposite in2="hardAlpha" operator="arithmetic" k2="-1" k3="1"/>
<feColorMatrix type="matrix" values="0 0 0 0 0.92549 0 0 0 0 0.537255 0 0 0 0 0.12549 0 0 0 1 0"/>
<feBlend mode="normal" in2="shape" result="effect1_innerShadow_4002_2383"/>
</filter>
<filter id="filter1_f_4002_2383" x="10.0508" y="14.464" width="10.5176" height="10.5312" filterUnits="userSpaceOnUse" color-interpolation-filters="sRGB">
<feFlood flood-opacity="0" result="BackgroundImageFix"/>
<feBlend mode="normal" in="SourceGraphic" in2="BackgroundImageFix" result="shape"/>
<feGaussianBlur stdDeviation="0.75" result="effect1_foregroundBlur_4002_2383"/>
</filter>
<filter id="filter2_f_4002_2383" x="11.6488" y="14.1975" width="8.98732" height="5.7375" filterUnits="userSpaceOnUse" color-interpolation-filters="sRGB">
<feFlood flood-opacity="0" result="BackgroundImageFix"/>
<feBlend mode="normal" in="SourceGraphic" in2="BackgroundImageFix" result="shape"/>
<feGaussianBlur stdDeviation="0.2" result="effect1_foregroundBlur_4002_2383"/>
</filter>
<filter id="filter3_i_4002_2383" x="13.3546" y="19.0585" width="2.81208" height="4.1701" filterUnits="userSpaceOnUse" color-interpolation-filters="sRGB">
<feFlood flood-opacity="0" result="BackgroundImageFix"/>
<feBlend mode="normal" in="SourceGraphic" in2="BackgroundImageFix" result="shape"/>
<feColorMatrix in="SourceAlpha" type="matrix" values="0 0 0 0 0 0 0 0 0 0 0 0 0 0 0 0 0 0 127 0" result="hardAlpha"/>
<feOffset dx="-0.15"/>
<feGaussianBlur stdDeviation="0.15"/>
<feComposite in2="hardAlpha" operator="arithmetic" k2="-1" k3="1"/>
<feColorMatrix type="matrix" values="0 0 0 0 0.678431 0 0 0 0 0.0588235 0 0 0 0 0.341176 0 0 0 1 0"/>
<feBlend mode="normal" in2="shape" result="effect1_innerShadow_4002_2383"/>
</filter>
<filter id="filter4_i_4002_2383" x="16.1184" y="19.0585" width="2.76208" height="4.1701" filterUnits="userSpaceOnUse" color-interpolation-filters="sRGB">
<feFlood flood-opacity="0" result="BackgroundImageFix"/>
<feBlend mode="normal" in="SourceGraphic" in2="BackgroundImageFix" result="shape"/>
<feColorMatrix in="SourceAlpha" type="matrix" values="0 0 0 0 0 0 0 0 0 0 0 0 0 0 0 0 0 0 127 0" result="hardAlpha"/>
<feOffset dx="0.1"/>
<feGaussianBlur stdDeviation="0.1"/>
<feComposite in2="hardAlpha" operator="arithmetic" k2="-1" k3="1"/>
<feColorMatrix type="matrix" values="0 0 0 0 0.647059 0 0 0 0 0.0470588 0 0 0 0 0.305882 0 0 0 1 0"/>
<feBlend mode="normal" in2="shape" result="effect1_innerShadow_4002_2383"/>
</filter>
<filter id="filter5_i_4002_2383" x="15.167" y="18.8877" width="2.04965" height="1.79403" filterUnits="userSpaceOnUse" color-interpolation-filters="sRGB">
<feFlood flood-opacity="0" result="BackgroundImageFix"/>
<feBlend mode="normal" in="SourceGraphic" in2="BackgroundImageFix" result="shape"/>
<feColorMatrix in="SourceAlpha" type="matrix" values="0 0 0 0 0 0 0 0 0 0 0 0 0 0 0 0 0 0 127 0" result="hardAlpha"/>
<feOffset dx="0.1" dy="-0.1"/>
<feGaussianBlur stdDeviation="0.1"/>
<feComposite in2="hardAlpha" operator="arithmetic" k2="-1" k3="1"/>
<feColorMatrix type="matrix" values="0 0 0 0 0.772549 0 0 0 0 0.0941176 0 0 0 0 0.298039 0 0 0 1 0"/>
<feBlend mode="normal" in2="shape" result="effect1_innerShadow_4002_2383"/>
</filter>
<filter id="filter6_ii_4002_2383" x="4.24595" y="21.1031" width="10.4342" height="8.87152" filterUnits="userSpaceOnUse" color-interpolation-filters="sRGB">
<feFlood flood-opacity="0" result="BackgroundImageFix"/>
<feBlend mode="normal" in="SourceGraphic" in2="BackgroundImageFix" result="shape"/>
<feColorMatrix in="SourceAlpha" type="matrix" values="0 0 0 0 0 0 0 0 0 0 0 0 0 0 0 0 0 0 127 0" result="hardAlpha"/>
<feOffset dx="0.2"/>
<feGaussianBlur stdDeviation="0.1"/>
<feComposite in2="hardAlpha" operator="arithmetic" k2="-1" k3="1"/>
<feColorMatrix type="matrix" values="0 0 0 0 0.988235 0 0 0 0 0.678431 0 0 0 0 0.603922 0 0 0 1 0"/>
<feBlend mode="normal" in2="shape" result="effect1_innerShadow_4002_2383"/>
<feColorMatrix in="SourceAlpha" type="matrix" values="0 0 0 0 0 0 0 0 0 0 0 0 0 0 0 0 0 0 127 0" result="hardAlpha"/>
<feOffset dx="-0.2"/>
<feGaussianBlur stdDeviation="0.05"/>
<feComposite in2="hardAlpha" operator="arithmetic" k2="-1" k3="1"/>
<feColorMatrix type="matrix" values="0 0 0 0 1 0 0 0 0 0.832289 0 0 0 0 0.679486 0 0 0 1 0"/>
<feBlend mode="normal" in2="effect1_innerShadow_4002_2383" result="effect2_innerShadow_4002_2383"/>
</filter>
<filter id="filter7_f_4002_2383" x="6.92227" y="22.6626" width="2.78001" height="2.77998" filterUnits="userSpaceOnUse" color-interpolation-filters="sRGB">
<feFlood flood-opacity="0" result="BackgroundImageFix"/>
<feBlend mode="normal" in="SourceGraphic" in2="BackgroundImageFix" result="shape"/>
<feGaussianBlur stdDeviation="0.075" result="effect1_foregroundBlur_4002_2383"/>
</filter>
<filter id="filter8_f_4002_2383" x="9.93008" y="25.6844" width="2.78001" height="2.77998" filterUnits="userSpaceOnUse" color-interpolation-filters="sRGB">
<feFlood flood-opacity="0" result="BackgroundImageFix"/>
<feBlend mode="normal" in="SourceGraphic" in2="BackgroundImageFix" result="shape"/>
<feGaussianBlur stdDeviation="0.075" result="effect1_foregroundBlur_4002_2383"/>
</filter>
<filter id="filter9_f_4002_2383" x="5.9186" y="26.5447" width="2.78001" height="2.77998" filterUnits="userSpaceOnUse" color-interpolation-filters="sRGB">
<feFlood flood-opacity="0" result="BackgroundImageFix"/>
<feBlend mode="normal" in="SourceGraphic" in2="BackgroundImageFix" result="shape"/>
<feGaussianBlur stdDeviation="0.075" result="effect1_foregroundBlur_4002_2383"/>
</filter>
<filter id="filter10_ii_4002_2383" x="7.14258" y="22.6345" width="2.58001" height="2.67998" filterUnits="userSpaceOnUse" color-interpolation-filters="sRGB">
<feFlood flood-opacity="0" result="BackgroundImageFix"/>
<feBlend mode="normal" in="SourceGraphic" in2="BackgroundImageFix" result="shape"/>
<feColorMatrix in="SourceAlpha" type="matrix" values="0 0 0 0 0 0 0 0 0 0 0 0 0 0 0 0 0 0 127 0" result="hardAlpha"/>
<feOffset dx="0.2" dy="-0.1"/>
<feGaussianBlur stdDeviation="0.05"/>
<feComposite in2="hardAlpha" operator="arithmetic" k2="-1" k3="1"/>
<feColorMatrix type="matrix" values="0 0 0 0 0.878431 0 0 0 0 0.290196 0 0 0 0 0.431373 0 0 0 1 0"/>
<feBlend mode="normal" in2="shape" result="effect1_innerShadow_4002_2383"/>
<feColorMatrix in="SourceAlpha" type="matrix" values="0 0 0 0 0 0 0 0 0 0 0 0 0 0 0 0 0 0 127 0" result="hardAlpha"/>
<feOffset dx="0.2" dy="0.1"/>
<feGaussianBlur stdDeviation="0.05"/>
<feComposite in2="hardAlpha" operator="arithmetic" k2="-1" k3="1"/>
<feColorMatrix type="matrix" values="0 0 0 0 0.878431 0 0 0 0 0.290196 0 0 0 0 0.431373 0 0 0 1 0"/>
<feBlend mode="normal" in2="effect1_innerShadow_4002_2383" result="effect2_innerShadow_4002_2383"/>
</filter>
<filter id="filter11_ii_4002_2383" x="10.1426" y="25.6836" width="2.58001" height="2.67998" filterUnits="userSpaceOnUse" color-interpolation-filters="sRGB">
<feFlood flood-opacity="0" result="BackgroundImageFix"/>
<feBlend mode="normal" in="SourceGraphic" in2="BackgroundImageFix" result="shape"/>
<feColorMatrix in="SourceAlpha" type="matrix" values="0 0 0 0 0 0 0 0 0 0 0 0 0 0 0 0 0 0 127 0" result="hardAlpha"/>
<feOffset dx="0.1" dy="0.1"/>
<feGaussianBlur stdDeviation="0.1"/>
<feComposite in2="hardAlpha" operator="arithmetic" k2="-1" k3="1"/>
<feColorMatrix type="matrix" values="0 0 0 0 0.341176 0 0 0 0 0.615686 0 0 0 0 0.65098 0 0 0 1 0"/>
<feBlend mode="normal" in2="shape" result="effect1_innerShadow_4002_2383"/>
<feColorMatrix in="SourceAlpha" type="matrix" values="0 0 0 0 0 0 0 0 0 0 0 0 0 0 0 0 0 0 127 0" result="hardAlpha"/>
<feOffset dx="0.1" dy="-0.1"/>
<feGaussianBlur stdDeviation="0.15"/>
<feComposite in2="hardAlpha" operator="arithmetic" k2="-1" k3="1"/>
<feColorMatrix type="matrix" values="0 0 0 0 0.352941 0 0 0 0 0.427451 0 0 0 0 0.792157 0 0 0 1 0"/>
<feBlend mode="normal" in2="effect1_innerShadow_4002_2383" result="effect2_innerShadow_4002_2383"/>
</filter>
<filter id="filter12_ii_4002_2383" x="6.14258" y="26.5244" width="2.58001" height="2.67998" filterUnits="userSpaceOnUse" color-interpolation-filters="sRGB">
<feFlood flood-opacity="0" result="BackgroundImageFix"/>
<feBlend mode="normal" in="SourceGraphic" in2="BackgroundImageFix" result="shape"/>
<feColorMatrix in="SourceAlpha" type="matrix" values="0 0 0 0 0 0 0 0 0 0 0 0 0 0 0 0 0 0 127 0" result="hardAlpha"/>
<feOffset dx="0.1" dy="0.1"/>
<feGaussianBlur stdDeviation="0.1"/>
<feComposite in2="hardAlpha" operator="arithmetic" k2="-1" k3="1"/>
<feColorMatrix type="matrix" values="0 0 0 0 0.337255 0 0 0 0 0.733333 0 0 0 0 0.427451 0 0 0 1 0"/>
<feBlend mode="normal" in2="shape" result="effect1_innerShadow_4002_2383"/>
<feColorMatrix in="SourceAlpha" type="matrix" values="0 0 0 0 0 0 0 0 0 0 0 0 0 0 0 0 0 0 127 0" result="hardAlpha"/>
<feOffset dx="0.1" dy="-0.1"/>
<feGaussianBlur stdDeviation="0.15"/>
<feComposite in2="hardAlpha" operator="arithmetic" k2="-1" k3="1"/>
<feColorMatrix type="matrix" values="0 0 0 0 0.431373 0 0 0 0 0.596078 0 0 0 0 0.513726 0 0 0 1 0"/>
<feBlend mode="normal" in2="effect1_innerShadow_4002_2383" result="effect2_innerShadow_4002_2383"/>
</filter>
<filter id="filter13_i_4002_2383" x="26.7671" y="22.5184" width="2.58411" height="3.68164" filterUnits="userSpaceOnUse" color-interpolation-filters="sRGB">
<feFlood flood-opacity="0" result="BackgroundImageFix"/>
<feBlend mode="normal" in="SourceGraphic" in2="BackgroundImageFix" result="shape"/>
<feColorMatrix in="SourceAlpha" type="matrix" values="0 0 0 0 0 0 0 0 0 0 0 0 0 0 0 0 0 0 127 0" result="hardAlpha"/>
<feOffset dx="0.75" dy="-0.5"/>
<feGaussianBlur stdDeviation="0.325"/>
<feComposite in2="hardAlpha" operator="arithmetic" k2="-1" k3="1"/>
<feColorMatrix type="matrix" values="0 0 0 0 0.878431 0 0 0 0 0.560784 0 0 0 0 0.192157 0 0 0 1 0"/>
<feBlend mode="normal" in2="shape" result="effect1_innerShadow_4002_2383"/>
</filter>
<filter id="filter14_i_4002_2383" x="25.3267" y="18.7345" width="2.14993" height="1.98999" filterUnits="userSpaceOnUse" color-interpolation-filters="sRGB">
<feFlood flood-opacity="0" result="BackgroundImageFix"/>
<feBlend mode="normal" in="SourceGraphic" in2="BackgroundImageFix" result="shape"/>
<feColorMatrix in="SourceAlpha" type="matrix" values="0 0 0 0 0 0 0 0 0 0 0 0 0 0 0 0 0 0 127 0" result="hardAlpha"/>
<feOffset dx="0.1"/>
<feGaussianBlur stdDeviation="0.1"/>
<feComposite in2="hardAlpha" operator="arithmetic" k2="-1" k3="1"/>
<feColorMatrix type="matrix" values="0 0 0 0 0.611765 0 0 0 0 0.498039 0 0 0 0 0.564706 0 0 0 1 0"/>
<feBlend mode="normal" in2="shape" result="effect1_innerShadow_4002_2383"/>
</filter>
<filter id="filter15_i_4002_2383" x="25.088" y="14.7743" width="3.3629" height="3.39387" filterUnits="userSpaceOnUse" color-interpolation-filters="sRGB">
<feFlood flood-opacity="0" result="BackgroundImageFix"/>
<feBlend mode="normal" in="SourceGraphic" in2="BackgroundImageFix" result="shape"/>
<feColorMatrix in="SourceAlpha" type="matrix" values="0 0 0 0 0 0 0 0 0 0 0 0 0 0 0 0 0 0 127 0" result="hardAlpha"/>
<feOffset dx="0.05" dy="-0.05"/>
<feGaussianBlur stdDeviation="0.05"/>
<feComposite in2="hardAlpha" operator="arithmetic" k2="-1" k3="1"/>
<feColorMatrix type="matrix" values="0 0 0 0 0.466667 0 0 0 0 0.501961 0 0 0 0 0.780392 0 0 0 1 0"/>
<feBlend mode="normal" in2="shape" result="effect1_innerShadow_4002_2383"/>
</filter>
<filter id="filter16_i_4002_2383" x="24.0049" y="24.4182" width="4.99635" height="5.55625" filterUnits="userSpaceOnUse" color-interpolation-filters="sRGB">
<feFlood flood-opacity="0" result="BackgroundImageFix"/>
<feBlend mode="normal" in="SourceGraphic" in2="BackgroundImageFix" result="shape"/>
<feColorMatrix in="SourceAlpha" type="matrix" values="0 0 0 0 0 0 0 0 0 0 0 0 0 0 0 0 0 0 127 0" result="hardAlpha"/>
<feOffset dx="0.3" dy="-0.15"/>
<feGaussianBlur stdDeviation="0.3"/>
<feComposite in2="hardAlpha" operator="arithmetic" k2="-1" k3="1"/>
<feColorMatrix type="matrix" values="0 0 0 0 0.870588 0 0 0 0 0.513726 0 0 0 0 0.34902 0 0 0 1 0"/>
<feBlend mode="normal" in2="shape" result="effect1_innerShadow_4002_2383"/>
</filter>
<filter id="filter17_f_4002_2383" x="24.3999" y="25.8272" width="2.04686" height="0.250049" filterUnits="userSpaceOnUse" color-interpolation-filters="sRGB">
<feFlood flood-opacity="0" result="BackgroundImageFix"/>
<feBlend mode="normal" in="SourceGraphic" in2="BackgroundImageFix" result="shape"/>
<feGaussianBlur stdDeviation="0.05" result="effect1_foregroundBlur_4002_2383"/>
</filter>
<filter id="filter18_f_4002_2383" x="24.3218" y="27.1319" width="2.04686" height="0.250049" filterUnits="userSpaceOnUse" color-interpolation-filters="sRGB">
<feFlood flood-opacity="0" result="BackgroundImageFix"/>
<feBlend mode="normal" in="SourceGraphic" in2="BackgroundImageFix" result="shape"/>
<feGaussianBlur stdDeviation="0.05" result="effect1_foregroundBlur_4002_2383"/>
</filter>
<filter id="filter19_f_4002_2383" x="24.3999" y="28.4366" width="2.04686" height="0.250049" filterUnits="userSpaceOnUse" color-interpolation-filters="sRGB">
<feFlood flood-opacity="0" result="BackgroundImageFix"/>
<feBlend mode="normal" in="SourceGraphic" in2="BackgroundImageFix" result="shape"/>
<feGaussianBlur stdDeviation="0.05" result="effect1_foregroundBlur_4002_2383"/>
</filter>
<filter id="filter20_i_4002_2383" x="9.87183" y="9.35242" width="3.31817" height="3.2182" filterUnits="userSpaceOnUse" color-interpolation-filters="sRGB">
<feFlood flood-opacity="0" result="BackgroundImageFix"/>
<feBlend mode="normal" in="SourceGraphic" in2="BackgroundImageFix" result="shape"/>
<feColorMatrix in="SourceAlpha" type="matrix" values="0 0 0 0 0 0 0 0 0 0 0 0 0 0 0 0 0 0 127 0" result="hardAlpha"/>
<feOffset dx="0.1"/>
<feGaussianBlur stdDeviation="0.15"/>
<feComposite in2="hardAlpha" operator="arithmetic" k2="-1" k3="1"/>
<feColorMatrix type="matrix" values="0 0 0 0 0.768627 0 0 0 0 0.501961 0 0 0 0 0.160784 0 0 0 1 0"/>
<feBlend mode="normal" in2="shape" result="effect1_innerShadow_4002_2383"/>
</filter>
<filter id="filter21_i_4002_2383" x="19.3848" y="9.10242" width="3.21817" height="3.4682" filterUnits="userSpaceOnUse" color-interpolation-filters="sRGB">
<feFlood flood-opacity="0" result="BackgroundImageFix"/>
<feBlend mode="normal" in="SourceGraphic" in2="BackgroundImageFix" result="shape"/>
<feColorMatrix in="SourceAlpha" type="matrix" values="0 0 0 0 0 0 0 0 0 0 0 0 0 0 0 0 0 0 127 0" result="hardAlpha"/>
<feOffset dy="-0.25"/>
<feGaussianBlur stdDeviation="0.25"/>
<feComposite in2="hardAlpha" operator="arithmetic" k2="-1" k3="1"/>
<feColorMatrix type="matrix" values="0 0 0 0 0.937255 0 0 0 0 0.576471 0 0 0 0 0.341176 0 0 0 1 0"/>
<feBlend mode="normal" in2="shape" result="effect1_innerShadow_4002_2383"/>
</filter>
<filter id="filter22_f_4002_2383" x="19.4199" y="9.38757" width="3.14822" height="3.14819" filterUnits="userSpaceOnUse" color-interpolation-filters="sRGB">
<feFlood flood-opacity="0" result="BackgroundImageFix"/>
<feBlend mode="normal" in="SourceGraphic" in2="BackgroundImageFix" result="shape"/>
<feGaussianBlur stdDeviation="0.25" result="effect1_foregroundBlur_4002_2383"/>
</filter>
<filter id="filter23_f_4002_2383" x="10.1763" y="9.63757" width="2.64822" height="2.64819" filterUnits="userSpaceOnUse" color-interpolation-filters="sRGB">
<feFlood flood-opacity="0" result="BackgroundImageFix"/>
<feBlend mode="normal" in="SourceGraphic" in2="BackgroundImageFix" result="shape"/>
<feGaussianBlur stdDeviation="0.125" result="effect1_foregroundBlur_4002_2383"/>
</filter>
<filter id="filter24_i_4002_2383" x="14.2129" y="13.6772" width="3.85938" height="4.69375" filterUnits="userSpaceOnUse" color-interpolation-filters="sRGB">
<feFlood flood-opacity="0" result="BackgroundImageFix"/>
<feBlend mode="normal" in="SourceGraphic" in2="BackgroundImageFix" result="shape"/>
<feColorMatrix in="SourceAlpha" type="matrix" values="0 0 0 0 0 0 0 0 0 0 0 0 0 0 0 0 0 0 127 0" result="hardAlpha"/>
<feOffset dy="-0.1"/>
<feGaussianBlur stdDeviation="0.15"/>
<feComposite in2="hardAlpha" operator="arithmetic" k2="-1" k3="1"/>
<feColorMatrix type="matrix" values="0 0 0 0 0.843137 0 0 0 0 0.388235 0 0 0 0 0.215686 0 0 0 1 0"/>
<feBlend mode="normal" in2="shape" result="effect1_innerShadow_4002_2383"/>
</filter>
<filter id="filter25_i_4002_2383" x="11.0713" y="6.05481" width="10.1909" height="10.9768" filterUnits="userSpaceOnUse" color-interpolation-filters="sRGB">
<feFlood flood-opacity="0" result="BackgroundImageFix"/>
<feBlend mode="normal" in="SourceGraphic" in2="BackgroundImageFix" result="shape"/>
<feColorMatrix in="SourceAlpha" type="matrix" values="0 0 0 0 0 0 0 0 0 0 0 0 0 0 0 0 0 0 127 0" result="hardAlpha"/>
<feOffset dy="0.1"/>
<feGaussianBlur stdDeviation="0.15"/>
<feComposite in2="hardAlpha" operator="arithmetic" k2="-1" k3="1"/>
<feColorMatrix type="matrix" values="0 0 0 0 0.92549 0 0 0 0 0.529412 0 0 0 0 0.137255 0 0 0 1 0"/>
<feBlend mode="normal" in2="shape" result="effect1_innerShadow_4002_2383"/>
</filter>
<filter id="filter26_f_4002_2383" x="14.5657" y="9.95642" width="2.87726" height="3.68182" filterUnits="userSpaceOnUse" color-interpolation-filters="sRGB">
<feFlood flood-opacity="0" result="BackgroundImageFix"/>
<feBlend mode="normal" in="SourceGraphic" in2="BackgroundImageFix" result="shape"/>
<feGaussianBlur stdDeviation="0.25" result="effect1_foregroundBlur_4002_2383"/>
</filter>
<filter id="filter27_f_4002_2383" x="14.978" y="10.068" width="2.37726" height="3.18182" filterUnits="userSpaceOnUse" color-interpolation-filters="sRGB">
<feFlood flood-opacity="0" result="BackgroundImageFix"/>
<feBlend mode="normal" in="SourceGraphic" in2="BackgroundImageFix" result="shape"/>
<feGaussianBlur stdDeviation="0.125" result="effect1_foregroundBlur_4002_2383"/>
</filter>
<filter id="filter28_i_4002_2383" x="17.1087" y="9.55701" width="3.00139" height="1.28546" filterUnits="userSpaceOnUse" color-interpolation-filters="sRGB">
<feFlood flood-opacity="0" result="BackgroundImageFix"/>
<feBlend mode="normal" in="SourceGraphic" in2="BackgroundImageFix" result="shape"/>
<feColorMatrix in="SourceAlpha" type="matrix" values="0 0 0 0 0 0 0 0 0 0 0 0 0 0 0 0 0 0 127 0" result="hardAlpha"/>
<feOffset dx="-0.2"/>
<feGaussianBlur stdDeviation="0.2"/>
<feComposite in2="hardAlpha" operator="arithmetic" k2="-1" k3="1"/>
<feColorMatrix type="matrix" values="0 0 0 0 0.141176 0 0 0 0 0.0862745 0 0 0 0 0.176471 0 0 0 1 0"/>
<feBlend mode="normal" in2="shape" result="effect1_innerShadow_4002_2383"/>
</filter>
<filter id="filter29_i_4002_2383" x="12.2234" y="9.55701" width="3.00139" height="1.28546" filterUnits="userSpaceOnUse" color-interpolation-filters="sRGB">
<feFlood flood-opacity="0" result="BackgroundImageFix"/>
<feBlend mode="normal" in="SourceGraphic" in2="BackgroundImageFix" result="shape"/>
<feColorMatrix in="SourceAlpha" type="matrix" values="0 0 0 0 0 0 0 0 0 0 0 0 0 0 0 0 0 0 127 0" result="hardAlpha"/>
<feOffset dx="0.2"/>
<feGaussianBlur stdDeviation="0.125"/>
<feComposite in2="hardAlpha" operator="arithmetic" k2="-1" k3="1"/>
<feColorMatrix type="matrix" values="0 0 0 0 0.133333 0 0 0 0 0.0784314 0 0 0 0 0.168627 0 0 0 1 0"/>
<feBlend mode="normal" in2="shape" result="effect1_innerShadow_4002_2383"/>
</filter>
<filter id="filter30_i_4002_2383" x="12.3584" y="8.13337" width="2.45278" height="1.09099" filterUnits="userSpaceOnUse" color-interpolation-filters="sRGB">
<feFlood flood-opacity="0" result="BackgroundImageFix"/>
<feBlend mode="normal" in="SourceGraphic" in2="BackgroundImageFix" result="shape"/>
<feColorMatrix in="SourceAlpha" type="matrix" values="0 0 0 0 0 0 0 0 0 0 0 0 0 0 0 0 0 0 127 0" result="hardAlpha"/>
<feOffset dx="0.2" dy="-0.2"/>
<feGaussianBlur stdDeviation="0.15"/>
<feComposite in2="hardAlpha" operator="arithmetic" k2="-1" k3="1"/>
<feColorMatrix type="matrix" values="0 0 0 0 0.658824 0 0 0 0 0.270588 0 0 0 0 0.141176 0 0 0 1 0"/>
<feBlend mode="normal" in2="shape" result="effect1_innerShadow_4002_2383"/>
</filter>
<filter id="filter31_i_4002_2383" x="17.7756" y="8.13337" width="2.45278" height="1.09105" filterUnits="userSpaceOnUse" color-interpolation-filters="sRGB">
<feFlood flood-opacity="0" result="BackgroundImageFix"/>
<feBlend mode="normal" in="SourceGraphic" in2="BackgroundImageFix" result="shape"/>
<feColorMatrix in="SourceAlpha" type="matrix" values="0 0 0 0 0 0 0 0 0 0 0 0 0 0 0 0 0 0 127 0" result="hardAlpha"/>
<feOffset dx="0.2" dy="-0.2"/>
<feGaussianBlur stdDeviation="0.15"/>
<feComposite in2="hardAlpha" operator="arithmetic" k2="-1" k3="1"/>
<feColorMatrix type="matrix" values="0 0 0 0 0.658824 0 0 0 0 0.270588 0 0 0 0 0.141176 0 0 0 1 0"/>
<feBlend mode="normal" in2="shape" result="effect1_innerShadow_4002_2383"/>
</filter>
<filter id="filter32_f_4002_2383" x="17.6145" y="9.92502" width="0.786365" height="0.695911" filterUnits="userSpaceOnUse" color-interpolation-filters="sRGB">
<feFlood flood-opacity="0" result="BackgroundImageFix"/>
<feBlend mode="normal" in="SourceGraphic" in2="BackgroundImageFix" result="shape"/>
<feGaussianBlur stdDeviation="0.05" result="effect1_foregroundBlur_4002_2383"/>
</filter>
<filter id="filter33_f_4002_2383" x="18.4545" y="9.99983" width="0.890845" height="0.913" filterUnits="userSpaceOnUse" color-interpolation-filters="sRGB">
<feFlood flood-opacity="0" result="BackgroundImageFix"/>
<feBlend mode="normal" in="SourceGraphic" in2="BackgroundImageFix" result="shape"/>
<feGaussianBlur stdDeviation="0.1" result="effect1_foregroundBlur_4002_2383"/>
</filter>
<filter id="filter34_f_4002_2383" x="14.0117" y="9.93635" width="0.985846" height="1.03965" filterUnits="userSpaceOnUse" color-interpolation-filters="sRGB">
<feFlood flood-opacity="0" result="BackgroundImageFix"/>
<feBlend mode="normal" in="SourceGraphic" in2="BackgroundImageFix" result="shape"/>
<feGaussianBlur stdDeviation="0.1" result="effect1_foregroundBlur_4002_2383"/>
</filter>
<filter id="filter35_f_4002_2383" x="13.2568" y="9.91678" width="0.912463" height="0.704089" filterUnits="userSpaceOnUse" color-interpolation-filters="sRGB">
<feFlood flood-opacity="0" result="BackgroundImageFix"/>
<feBlend mode="normal" in="SourceGraphic" in2="BackgroundImageFix" result="shape"/>
<feGaussianBlur stdDeviation="0.05" result="effect1_foregroundBlur_4002_2383"/>
</filter>
<filter id="filter36_f_4002_2383" x="17.8062" y="8.25557" width="2.26081" height="0.977698" filterUnits="userSpaceOnUse" color-interpolation-filters="sRGB">
<feFlood flood-opacity="0" result="BackgroundImageFix"/>
<feBlend mode="normal" in="SourceGraphic" in2="BackgroundImageFix" result="shape"/>
<feGaussianBlur stdDeviation="0.1" result="effect1_foregroundBlur_4002_2383"/>
</filter>
<filter id="filter37_f_4002_2383" x="12.3544" y="8.25557" width="2.26081" height="0.977698" filterUnits="userSpaceOnUse" color-interpolation-filters="sRGB">
<feFlood flood-opacity="0" result="BackgroundImageFix"/>
<feBlend mode="normal" in="SourceGraphic" in2="BackgroundImageFix" result="shape"/>
<feGaussianBlur stdDeviation="0.1" result="effect1_foregroundBlur_4002_2383"/>
</filter>
<filter id="filter38_f_4002_2383" x="12.8494" y="2.88708" width="8.91418" height="5.78009" filterUnits="userSpaceOnUse" color-interpolation-filters="sRGB">
<feFlood flood-opacity="0" result="BackgroundImageFix"/>
<feBlend mode="normal" in="SourceGraphic" in2="BackgroundImageFix" result="shape"/>
<feGaussianBlur stdDeviation="0.125" result="effect1_foregroundBlur_4002_2383"/>
</filter>
<filter id="filter39_f_4002_2383" x="12.9754" y="4.11981" width="1.14478" height="2.30963" filterUnits="userSpaceOnUse" color-interpolation-filters="sRGB">
<feFlood flood-opacity="0" result="BackgroundImageFix"/>
<feBlend mode="normal" in="SourceGraphic" in2="BackgroundImageFix" result="shape"/>
<feGaussianBlur stdDeviation="0.125" result="effect1_foregroundBlur_4002_2383"/>
</filter>
<filter id="filter40_f_4002_2383" x="14.326" y="1.59119" width="9.34607" height="5.55829" filterUnits="userSpaceOnUse" color-interpolation-filters="sRGB">
<feFlood flood-opacity="0" result="BackgroundImageFix"/>
<feBlend mode="normal" in="SourceGraphic" in2="BackgroundImageFix" result="shape"/>
<feGaussianBlur stdDeviation="0.5" result="effect1_foregroundBlur_4002_2383"/>
</filter>
<filter id="filter41_f_4002_2383" x="8.00879" y="3.20178" width="7.08365" height="4.95624" filterUnits="userSpaceOnUse" color-interpolation-filters="sRGB">
<feFlood flood-opacity="0" result="BackgroundImageFix"/>
<feBlend mode="normal" in="SourceGraphic" in2="BackgroundImageFix" result="shape"/>
<feGaussianBlur stdDeviation="0.75" result="effect1_foregroundBlur_4002_2383"/>
</filter>
<linearGradient id="paint0_linear_4002_2383" x1="20.8598" y1="4.00905" x2="13.6185" y2="17.4516" gradientUnits="userSpaceOnUse">
<stop stop-color="#FFD93C"/>
<stop offset="1" stop-color="#E37923"/>
</linearGradient>
<radialGradient id="paint1_radial_4002_2383" cx="0" cy="0" r="1" gradientUnits="userSpaceOnUse" gradientTransform="translate(11.5954 12.9952) rotate(90) scale(4.45645 2.68487)">
<stop stop-color="#C9641B"/>
<stop offset="1" stop-color="#D77117" stop-opacity="0"/>
</radialGradient>
<radialGradient id="paint2_radial_4002_2383" cx="0" cy="0" r="1" gradientUnits="userSpaceOnUse" gradientTransform="translate(16.1665 13.0877) rotate(90) scale(5.57099 5.8032)">
<stop offset="0.617268" stop-color="#E26B25"/>
<stop offset="1" stop-color="#E26B25" stop-opacity="0"/>
</radialGradient>
<radialGradient id="paint3_radial_4002_2383" cx="0" cy="0" r="1" gradientUnits="userSpaceOnUse" gradientTransform="translate(11.256 11.2824) rotate(127.617) scale(2.03275 1.97369)">
<stop offset="0.161391" stop-color="#C9681C"/>
<stop offset="1" stop-color="#C9681C" stop-opacity="0"/>
</radialGradient>
<radialGradient id="paint4_radial_4002_2383" cx="0" cy="0" r="1" gradientUnits="userSpaceOnUse" gradientTransform="translate(11.847 8.84577) rotate(100.537) scale(2.55689 2.66252)">
<stop offset="0.365444" stop-color="#D76A18"/>
<stop offset="1" stop-color="#D76A18" stop-opacity="0"/>
</radialGradient>
<radialGradient id="paint5_radial_4002_2383" cx="0" cy="0" r="1" gradientUnits="userSpaceOnUse" gradientTransform="translate(12.8299 3.79872) rotate(62.6046) scale(2.38097 4.53569)">
<stop offset="0.221806" stop-color="#CBA140"/>
<stop offset="0.921111" stop-color="#CBA140" stop-opacity="0"/>
</radialGradient>
<radialGradient id="paint6_radial_4002_2383" cx="0" cy="0" r="1" gradientUnits="userSpaceOnUse" gradientTransform="translate(21.6643 5.21586) rotate(132.51) scale(1.63713 2.28786)">
<stop stop-color="#FFDF3C"/>
<stop offset="1" stop-color="#FFDF3C" stop-opacity="0"/>
</radialGradient>
<radialGradient id="paint7_radial_4002_2383" cx="0" cy="0" r="1" gradientUnits="userSpaceOnUse" gradientTransform="translate(23.6756 10.1102) rotate(163.779) scale(1.9201 4.17788)">
<stop stop-color="#FFD537"/>
<stop offset="1" stop-color="#FFD336" stop-opacity="0"/>
<stop offset="1" stop-color="#FFD537" stop-opacity="0"/>
</radialGradient>
<radialGradient id="paint8_radial_4002_2383" cx="0" cy="0" r="1" gradientUnits="userSpaceOnUse" gradientTransform="translate(13.4617 6.29331) rotate(-90.3515) scale(1.37439 0.450618)">
<stop offset="0.295258" stop-color="#DB6009"/>
<stop offset="1" stop-color="#DB6009" stop-opacity="0"/>
</radialGradient>
<radialGradient id="paint9_radial_4002_2383" cx="0" cy="0" r="1" gradientUnits="userSpaceOnUse" gradientTransform="translate(19.8141 29.9745) rotate(-90) scale(10.5008 14.4291)">
<stop stop-color="#C6A0E4"/>
<stop offset="0.574113" stop-color="#D7BEDC"/>
</radialGradient>
<radialGradient id="paint10_radial_4002_2383" cx="0" cy="0" r="1" gradientUnits="userSpaceOnUse" gradientTransform="translate(8.30495 19.5123) rotate(11.5138) scale(6.38514 6.16496)">
<stop stop-color="#C1B3BB"/>
<stop offset="1" stop-color="#C1B3BB" stop-opacity="0"/>
</radialGradient>
<radialGradient id="paint11_radial_4002_2383" cx="0" cy="0" r="1" gradientUnits="userSpaceOnUse" gradientTransform="translate(19.2348 29.9745) rotate(-114.74) scale(15.9653 18.4382)">
<stop offset="0.558632" stop-color="#C3AEBD" stop-opacity="0"/>
<stop offset="1" stop-color="#AFA1A1"/>
</radialGradient>
<radialGradient id="paint12_radial_4002_2383" cx="0" cy="0" r="1" gradientUnits="userSpaceOnUse" gradientTransform="translate(23.1426 21.2116) rotate(90) scale(13.5561 3.36712)">
<stop stop-color="#E9DFEE"/>
<stop offset="1" stop-color="#D5C0DE" stop-opacity="0"/>
</radialGradient>
<linearGradient id="paint13_linear_4002_2383" x1="15.1115" y1="17.8788" x2="19.5802" y2="17.8788" gradientUnits="userSpaceOnUse">
<stop stop-color="#D42045"/>
<stop offset="1" stop-color="#F22749"/>
</linearGradient>
<radialGradient id="paint14_radial_4002_2383" cx="0" cy="0" r="1" gradientUnits="userSpaceOnUse" gradientTransform="translate(16.1427 16.7226) rotate(90) scale(3.9375 5.90625)">
<stop offset="0.690476" stop-color="#A92F4C" stop-opacity="0"/>
<stop offset="1" stop-color="#A92F4C"/>
</radialGradient>
<linearGradient id="paint15_linear_4002_2383" x1="13.1616" y1="17.6912" x2="19.751" y2="17.6912" gradientUnits="userSpaceOnUse">
<stop stop-color="#CF316B"/>
<stop offset="1" stop-color="#F4527C"/>
</linearGradient>
<radialGradient id="paint16_radial_4002_2383" cx="0" cy="0" r="1" gradientUnits="userSpaceOnUse" gradientTransform="translate(15.3533 20.8268) rotate(121.17) scale(3.39503 1.76158)">
<stop offset="0.312604" stop-color="#D2418B"/>
<stop offset="0.825802" stop-color="#C33C63"/>
</radialGradient>
<radialGradient id="paint17_radial_4002_2383" cx="0" cy="0" r="1" gradientUnits="userSpaceOnUse" gradientTransform="translate(15.5021 19.4256) rotate(68.8479) scale(1.84199 0.941477)">
<stop offset="0.429694" stop-color="#C01B54"/>
<stop offset="1" stop-color="#C01B54" stop-opacity="0"/>
</radialGradient>
<radialGradient id="paint18_radial_4002_2383" cx="0" cy="0" r="1" gradientUnits="userSpaceOnUse" gradientTransform="translate(17.8927 20.0975) rotate(62.8402) scale(4.03912 1.93026)">
<stop offset="0.409622" stop-color="#E2457F"/>
<stop offset="1" stop-color="#C02B72"/>
</radialGradient>
<linearGradient id="paint19_linear_4002_2383" x1="16.549" y1="19.0585" x2="17.4495" y2="20.785" gradientUnits="userSpaceOnUse">
<stop offset="0.106455" stop-color="#E73A62"/>
<stop offset="1" stop-color="#E73A62" stop-opacity="0"/>
</linearGradient>
<radialGradient id="paint20_radial_4002_2383" cx="0" cy="0" r="1" gradientUnits="userSpaceOnUse" gradientTransform="translate(18.1115 20.5506) rotate(47.0503) scale(0.981964 0.596239)">
<stop stop-color="#ED577D"/>
<stop offset="1" stop-color="#ED577D" stop-opacity="0"/>
</radialGradient>
<radialGradient id="paint21_radial_4002_2383" cx="0" cy="0" r="1" gradientUnits="userSpaceOnUse" gradientTransform="translate(6.79872 21.7909) rotate(-60.4389) scale(4.7509 1.9254)">
<stop offset="0.342262" stop-color="#B0AAAE"/>
<stop offset="1" stop-color="#989295"/>
</radialGradient>
<linearGradient id="paint22_linear_4002_2383" x1="16.3425" y1="20.414" x2="16.3425" y2="18.9877" gradientUnits="userSpaceOnUse">
<stop stop-color="#CA225E"/>
<stop offset="0.514206" stop-color="#D83864"/>
<stop offset="1" stop-color="#D72A4D"/>
</linearGradient>
<radialGradient id="paint23_radial_4002_2383" cx="0" cy="0" r="1" gradientUnits="userSpaceOnUse" gradientTransform="translate(17.1167 19.4881) rotate(110.351) scale(1.27311 0.387465)">
<stop stop-color="#E44C6D"/>
<stop offset="1" stop-color="#E44C6D" stop-opacity="0"/>
</radialGradient>
<linearGradient id="paint24_linear_4002_2383" x1="8.36591" y1="21.1031" x2="8.36591" y2="29.9747" gradientUnits="userSpaceOnUse">
<stop stop-color="#D6A87F"/>
<stop offset="0.389198" stop-color="#E0AD88"/>
<stop offset="1" stop-color="#E2A291"/>
</linearGradient>
<linearGradient id="paint25_linear_4002_2383" x1="5.3457" y1="29.9747" x2="5.3457" y2="29.5997" gradientUnits="userSpaceOnUse">
<stop stop-color="#DD929A"/>
<stop offset="1" stop-color="#DD929A" stop-opacity="0"/>
</linearGradient>
<linearGradient id="paint26_linear_4002_2383" x1="9.41302" y1="21.1031" x2="9.41302" y2="29.9747" gradientUnits="userSpaceOnUse">
<stop stop-color="#FFCDAB"/>
<stop offset="1" stop-color="#FFC8A9"/>
</linearGradient>
<radialGradient id="paint27_radial_4002_2383" cx="0" cy="0" r="1" gradientUnits="userSpaceOnUse" gradientTransform="translate(8.64258 23.3162) rotate(97.5234) scale(1.98585 1.78959)">
<stop offset="0.481893" stop-color="#FF54AB"/>
<stop offset="1" stop-color="#F52884"/>
</radialGradient>
<radialGradient id="paint28_radial_4002_2383" cx="0" cy="0" r="1" gradientUnits="userSpaceOnUse" gradientTransform="translate(8.0332 24.3006) rotate(-39.2176) scale(1.7546 2.0006)">
<stop offset="0.574385" stop-color="#FF5AAA" stop-opacity="0"/>
<stop offset="1" stop-color="#FF87C1"/>
</radialGradient>
<radialGradient id="paint29_radial_4002_2383" cx="0" cy="0" r="1" gradientUnits="userSpaceOnUse" gradientTransform="translate(11.3826 25.7836) rotate(61.9959) scale(2.64089 2.1416)">
<stop offset="0.232983" stop-color="#5ECCF3"/>
<stop offset="1" stop-color="#4A96EE"/>
</radialGradient>
<radialGradient id="paint30_radial_4002_2383" cx="0" cy="0" r="1" gradientUnits="userSpaceOnUse" gradientTransform="translate(8.29883 27.0974) rotate(133.958) scale(2.43108 1.88477)">
<stop offset="0.222075" stop-color="#68FAA7"/>
<stop offset="1" stop-color="#4FDDA1"/>
</radialGradient>
<radialGradient id="paint31_radial_4002_2383" cx="0" cy="0" r="1" gradientUnits="userSpaceOnUse" gradientTransform="translate(6.81445 28.3631) rotate(-28.5649) scale(2.0587 2.17828)">
<stop offset="0.819208" stop-color="#67FFA4" stop-opacity="0"/>
<stop offset="1" stop-color="#67FFA4"/>
</radialGradient>
<radialGradient id="paint32_radial_4002_2383" cx="0" cy="0" r="1" gradientUnits="userSpaceOnUse" gradientTransform="translate(28.3667 23.3151) rotate(117.802) scale(1.88642 1.51516)">
<stop stop-color="#FFE047"/>
<stop offset="0.827998" stop-color="#FFD235"/>
</radialGradient>
<radialGradient id="paint33_radial_4002_2383" cx="0" cy="0" r="1" gradientUnits="userSpaceOnUse" gradientTransform="translate(27.4395 24.6092) rotate(-44.7339) scale(0.593869 0.632377)">
<stop stop-color="#EFA20D"/>
<stop offset="1" stop-color="#EFA20D" stop-opacity="0"/>
</radialGradient>
<radialGradient id="paint34_radial_4002_2383" cx="0" cy="0" r="1" gradientUnits="userSpaceOnUse" gradientTransform="translate(25.1426 23.5289) rotate(90) scale(6.44558 1.78271)">
<stop offset="0.227692" stop-color="#E5DFED"/>
<stop offset="1" stop-color="#CFCBD2"/>
</radialGradient>
<linearGradient id="paint35_linear_4002_2383" x1="22.9424" y1="24.6103" x2="24.9121" y2="24.4558" gradientUnits="userSpaceOnUse">
<stop stop-color="#AB95B9"/>
<stop offset="1" stop-color="#CFC7D3" stop-opacity="0"/>
</linearGradient>
<linearGradient id="paint36_linear_4002_2383" x1="23.8307" y1="30.6738" x2="23.8307" y2="28.2021" gradientUnits="userSpaceOnUse">
<stop stop-color="#AA8BC0"/>
<stop offset="1" stop-color="#AA8BC0" stop-opacity="0"/>
</linearGradient>
<radialGradient id="paint37_radial_4002_2383" cx="0" cy="0" r="1" gradientUnits="userSpaceOnUse" gradientTransform="translate(27.0176 21.7849) rotate(90) scale(6.03125 1.25369)">
<stop offset="0.134831" stop-color="#8E5E5C"/>
<stop offset="1" stop-color="#7A424B"/>
</radialGradient>
<linearGradient id="paint38_linear_4002_2383" x1="26.3529" y1="20.7245" x2="26.3529" y2="20.8084" gradientUnits="userSpaceOnUse">
<stop stop-color="#603A3E"/>
<stop offset="1" stop-color="#603A3E" stop-opacity="0"/>
</linearGradient>
<linearGradient id="paint39_linear_4002_2383" x1="26.353" y1="19.3787" x2="27.8301" y2="19.3787" gradientUnits="userSpaceOnUse">
<stop stop-color="#9689A5"/>
<stop offset="1" stop-color="#BAB5C0"/>
</linearGradient>
<radialGradient id="paint40_radial_4002_2383" cx="0" cy="0" r="1" gradientUnits="userSpaceOnUse" gradientTransform="translate(26.6895 18.7345) rotate(90) scale(4.22231 0.546875)">
<stop stop-color="#C2B7CB"/>
<stop offset="1" stop-color="#C2B7CB" stop-opacity="0"/>
</radialGradient>
<radialGradient id="paint41_radial_4002_2383" cx="0" cy="0" r="1" gradientUnits="userSpaceOnUse" gradientTransform="translate(26.3887 18.8162) rotate(93.7107) scale(0.551938 0.841426)">
<stop offset="0.505952" stop-color="#97769C"/>
<stop offset="1" stop-color="#97769C" stop-opacity="0"/>
</radialGradient>
<linearGradient id="paint42_linear_4002_2383" x1="26.502" y1="20.7245" x2="26.502" y2="20.6638" gradientUnits="userSpaceOnUse">
<stop stop-color="#6E5A7E"/>
<stop offset="1" stop-color="#6E5A7E" stop-opacity="0"/>
</linearGradient>
<radialGradient id="paint43_radial_4002_2383" cx="0" cy="0" r="1" gradientUnits="userSpaceOnUse" gradientTransform="translate(27.2323 19.1249) rotate(-117.768) scale(2.9807 3.58224)">
<stop offset="0.181035" stop-color="#EBA287"/>
<stop offset="1" stop-color="#E3966A"/>
</radialGradient>
<radialGradient id="paint44_radial_4002_2383" cx="0" cy="0" r="1" gradientUnits="userSpaceOnUse" gradientTransform="translate(27.7629 17.0123) rotate(149.211) scale(2.25809 2.54697)">
<stop stop-color="#4CC6EF"/>
<stop offset="1" stop-color="#3E9FE4"/>
</radialGradient>
<radialGradient id="paint45_radial_4002_2383" cx="0" cy="0" r="1" gradientUnits="userSpaceOnUse" gradientTransform="translate(28.6561 16.9063) rotate(-157.433) scale(2.84995 2.97831)">
<stop offset="0.629369" stop-color="#499DA3" stop-opacity="0"/>
<stop offset="1" stop-color="#499DA3"/>
</radialGradient>
<radialGradient id="paint46_radial_4002_2383" cx="0" cy="0" r="1" gradientUnits="userSpaceOnUse" gradientTransform="translate(28.6719 15.6117) rotate(30.6507) scale(0.790838 1.26597)">
<stop offset="0.641624" stop-color="#45A5D4"/>
<stop offset="1" stop-color="#45A5D4" stop-opacity="0"/>
</radialGradient>
<radialGradient id="paint47_radial_4002_2383" cx="0" cy="0" r="1" gradientUnits="userSpaceOnUse" gradientTransform="translate(28.4009 14.736) rotate(132.552) scale(1.48006 0.226093)">
<stop stop-color="#4ECDEE"/>
<stop offset="1" stop-color="#4ECDEE" stop-opacity="0"/>
</radialGradient>
<linearGradient id="paint48_linear_4002_2383" x1="28.0329" y1="28.037" x2="24.0049" y2="28.037" gradientUnits="userSpaceOnUse">
<stop stop-color="#FFE132"/>
<stop offset="0.861163" stop-color="#FFAE37"/>
</linearGradient>
<radialGradient id="paint49_radial_4002_2383" cx="0" cy="0" r="1" gradientUnits="userSpaceOnUse" gradientTransform="translate(28.3228 24.5682) rotate(121.171) scale(2.79399 2.3115)">
<stop stop-color="#FFE136"/>
<stop offset="1" stop-color="#FFE136" stop-opacity="0"/>
</radialGradient>
<radialGradient id="paint50_radial_4002_2383" cx="0" cy="0" r="1" gradientUnits="userSpaceOnUse" gradientTransform="translate(24.191 25.9445) scale(2.3125 0.466085)">
<stop offset="0.248062" stop-color="#F9A42E"/>
<stop offset="1" stop-color="#F9A42E" stop-opacity="0"/>
</radialGradient>
<radialGradient id="paint51_radial_4002_2383" cx="0" cy="0" r="1" gradientUnits="userSpaceOnUse" gradientTransform="translate(24.0049 27.2714) scale(2.59241 0.522501)">
<stop offset="0.248062" stop-color="#F9A42E"/>
<stop offset="1" stop-color="#F9A42E" stop-opacity="0"/>
</radialGradient>
<radialGradient id="paint52_radial_4002_2383" cx="0" cy="0" r="1" gradientUnits="userSpaceOnUse" gradientTransform="translate(23.9098 28.5382) scale(2.71875 0.328125)">
<stop offset="0.248062" stop-color="#F9A42E"/>
<stop offset="1" stop-color="#F9A42E" stop-opacity="0"/>
</radialGradient>
<linearGradient id="paint53_linear_4002_2383" x1="26.2053" y1="25.9523" x2="24.3694" y2="25.9523" gradientUnits="userSpaceOnUse">
<stop stop-color="#C88714" stop-opacity="0"/>
<stop offset="1" stop-color="#C07200"/>
</linearGradient>
<linearGradient id="paint54_linear_4002_2383" x1="26.1272" y1="27.257" x2="24.2913" y2="27.257" gradientUnits="userSpaceOnUse">
<stop stop-color="#C88714" stop-opacity="0"/>
<stop offset="1" stop-color="#C07200"/>
</linearGradient>
<linearGradient id="paint55_linear_4002_2383" x1="26.2053" y1="28.5616" x2="24.3694" y2="28.5616" gradientUnits="userSpaceOnUse">
<stop stop-color="#C88714" stop-opacity="0"/>
<stop offset="1" stop-color="#C07200"/>
</linearGradient>
<linearGradient id="paint56_linear_4002_2383" x1="9.87183" y1="11.0487" x2="12.8311" y2="11.0487" gradientUnits="userSpaceOnUse">
<stop stop-color="#E79B27"/>
<stop offset="1" stop-color="#B96201"/>
</linearGradient>
<radialGradient id="paint57_radial_4002_2383" cx="0" cy="0" r="1" gradientUnits="userSpaceOnUse" gradientTransform="translate(20.2062 11.4007) rotate(-24.444) scale(2.73412 3.33824)">
<stop offset="0.572298" stop-color="#FFC531"/>
<stop offset="0.904617" stop-color="#FFE549"/>
</radialGradient>
<radialGradient id="paint58_radial_4002_2383" cx="0" cy="0" r="1" gradientUnits="userSpaceOnUse" gradientTransform="translate(20.7595 11.1997) rotate(-20.2976) scale(1.30459)">
<stop offset="0.71002" stop-color="#FFBA25" stop-opacity="0"/>
<stop offset="1" stop-color="#FFBA25"/>
</radialGradient>
<radialGradient id="paint59_radial_4002_2383" cx="0" cy="0" r="1" gradientUnits="userSpaceOnUse" gradientTransform="translate(11.5004 10.9617) rotate(180) scale(1.07411 1.02745)">
<stop offset="0.415002" stop-color="#D67923" stop-opacity="0"/>
<stop offset="1" stop-color="#D67923"/>
</radialGradient>
<radialGradient id="paint60_radial_4002_2383" cx="0" cy="0" r="1" gradientUnits="userSpaceOnUse" gradientTransform="translate(18.0723 16.66) rotate(138.439) scale(2.57895 1.90476)">
<stop stop-color="#FFAC2A"/>
<stop offset="1" stop-color="#ED8029"/>
</radialGradient>
<radialGradient id="paint61_radial_4002_2383" cx="0" cy="0" r="1" gradientUnits="userSpaceOnUse" gradientTransform="translate(16.1426 16.5975) rotate(90) scale(0.75 2.28629)">
<stop offset="0.333333" stop-color="#EB7643"/>
<stop offset="1" stop-color="#EB7643" stop-opacity="0"/>
</radialGradient>
<radialGradient id="paint62_radial_4002_2383" cx="0" cy="0" r="1" gradientUnits="userSpaceOnUse" gradientTransform="translate(19.026 10.4241) rotate(155.244) scale(7.16175 9.58588)">
<stop stop-color="#FFE644"/>
<stop offset="1" stop-color="#EB9235"/>
</radialGradient>
<radialGradient id="paint63_radial_4002_2383" cx="0" cy="0" r="1" gradientUnits="userSpaceOnUse" gradientTransform="translate(18.067 11.1216) rotate(152.124) scale(2.38668 2.02493)">
<stop stop-color="#FFE842"/>
<stop offset="1" stop-color="#FFE842" stop-opacity="0"/>
</radialGradient>
<radialGradient id="paint64_radial_4002_2383" cx="0" cy="0" r="1" gradientUnits="userSpaceOnUse" gradientTransform="translate(13.987 17.2067) rotate(-78.3106) scale(4.1308 5.24122)">
<stop stop-color="#E4883F"/>
<stop offset="1" stop-color="#E4883F" stop-opacity="0"/>
</radialGradient>
<radialGradient id="paint65_radial_4002_2383" cx="0" cy="0" r="1" gradientUnits="userSpaceOnUse" gradientTransform="translate(15.905 9.94048) rotate(90) scale(7.44059 11.8177)">
<stop offset="0.671153" stop-color="#F3983E" stop-opacity="0"/>
<stop offset="1" stop-color="#E98848"/>
</radialGradient>
<radialGradient id="paint66_radial_4002_2383" cx="0" cy="0" r="1" gradientUnits="userSpaceOnUse" gradientTransform="translate(16.7942 12.0805) rotate(164.542) scale(5.62608 9.68637)">
<stop offset="0.876514" stop-color="#D4993E" stop-opacity="0"/>
<stop offset="1" stop-color="#D4993E"/>
</radialGradient>
<radialGradient id="paint67_radial_4002_2383" cx="0" cy="0" r="1" gradientUnits="userSpaceOnUse" gradientTransform="translate(18.468 10.0057) rotate(-90) scale(1.15077 1.41231)">
<stop stop-color="#FFBB31"/>
<stop offset="1" stop-color="#FFBB31" stop-opacity="0"/>
</radialGradient>
<radialGradient id="paint68_radial_4002_2383" cx="0" cy="0" r="1" gradientUnits="userSpaceOnUse" gradientTransform="translate(14.2485 10.0929) rotate(-90) scale(1.36 1.55865)">
<stop stop-color="#F09429"/>
<stop offset="1" stop-color="#F09429" stop-opacity="0"/>
</radialGradient>
<radialGradient id="paint69_radial_4002_2383" cx="0" cy="0" r="1" gradientUnits="userSpaceOnUse" gradientTransform="translate(21.2622 11.4932) rotate(-180) scale(1.34695 4.43421)">
<stop stop-color="#FFDA39"/>
<stop offset="1" stop-color="#FFDA39" stop-opacity="0"/>
</radialGradient>
<radialGradient id="paint70_radial_4002_2383" cx="0" cy="0" r="1" gradientUnits="userSpaceOnUse" gradientTransform="translate(16.1667 9.19131) rotate(90) scale(7.7403 7.25217)">
<stop offset="0.977029" stop-color="#E67150" stop-opacity="0"/>
<stop offset="1" stop-color="#E67150"/>
</radialGradient>
<linearGradient id="paint71_linear_4002_2383" x1="16.1667" y1="12.9998" x2="16.1667" y2="10.318" gradientUnits="userSpaceOnUse">
<stop stop-color="#FFC134"/>
<stop offset="1" stop-color="#F8C73F"/>
</linearGradient>
<radialGradient id="paint72_radial_4002_2383" cx="0" cy="0" r="1" gradientUnits="userSpaceOnUse" gradientTransform="translate(16.951 12.22) rotate(-105.892) scale(2.54709 1.45748)">
<stop offset="0.0168227" stop-color="#FFE848"/>
<stop offset="1" stop-color="#FFE848" stop-opacity="0"/>
</radialGradient>
<linearGradient id="paint73_linear_4002_2383" x1="15.1203" y1="12.2375" x2="15.9746" y2="12.3421" gradientUnits="userSpaceOnUse">
<stop stop-color="#F8A322"/>
<stop offset="1" stop-color="#F8A322" stop-opacity="0"/>
</linearGradient>
<linearGradient id="paint74_linear_4002_2383" x1="16.1667" y1="13.0918" x2="16.1667" y2="12.4816" gradientUnits="userSpaceOnUse">
<stop stop-color="#E48538"/>
<stop offset="1" stop-color="#E48538" stop-opacity="0"/>
</linearGradient>
<linearGradient id="paint75_linear_4002_2383" x1="16.2449" y1="13.0657" x2="16.2449" y2="12.9262" gradientUnits="userSpaceOnUse">
<stop stop-color="#E2802F"/>
<stop offset="1" stop-color="#E2802F" stop-opacity="0"/>
</linearGradient>
<radialGradient id="paint76_radial_4002_2383" cx="0" cy="0" r="1" gradientUnits="userSpaceOnUse" gradientTransform="translate(16.4541 11.8626) rotate(144.462) scale(1.57489 2.10945)">
<stop offset="0.797297" stop-color="#E2802F" stop-opacity="0"/>
<stop offset="1" stop-color="#E2802F"/>
</radialGradient>
<linearGradient id="paint77_linear_4002_2383" x1="15.4377" y1="14.5687" x2="15.8902" y2="13.6971" gradientUnits="userSpaceOnUse">
<stop stop-color="#FEAC35"/>
<stop offset="1" stop-color="#FEAC35" stop-opacity="0"/>
</linearGradient>
<radialGradient id="paint78_radial_4002_2383" cx="0" cy="0" r="1" gradientUnits="userSpaceOnUse" gradientTransform="translate(18.3488 10.3646) rotate(90) scale(0.811316 1.29049)">
<stop offset="0.80198" stop-color="#925C51"/>
<stop offset="1" stop-color="#694B43"/>
<stop offset="1" stop-color="#804D49"/>
<stop offset="1" stop-color="#85534D"/>
</radialGradient>
<radialGradient id="paint79_radial_4002_2383" cx="0" cy="0" r="1" gradientUnits="userSpaceOnUse" gradientTransform="translate(18.1202 10.4486) rotate(-127.812) scale(0.377981 0.520389)">
<stop offset="0.765532" stop-color="#FFE6E2" stop-opacity="0"/>
<stop offset="0.966159" stop-color="#FFE6E2"/>
</radialGradient>
<linearGradient id="paint80_linear_4002_2383" x1="19.1264" y1="10.4183" x2="18.8129" y2="10.6115" gradientUnits="userSpaceOnUse">
<stop stop-color="#B4948D"/>
<stop offset="1" stop-color="#B4948D" stop-opacity="0"/>
</linearGradient>
<radialGradient id="paint81_radial_4002_2383" cx="0" cy="0" r="1" gradientUnits="userSpaceOnUse" gradientTransform="translate(13.9846 10.3646) rotate(90) scale(0.811321 1.2905)">
<stop offset="0.80198" stop-color="#925C51"/>
<stop offset="1" stop-color="#694B43"/>
<stop offset="1" stop-color="#804D49"/>
<stop offset="1" stop-color="#85534D"/>
</radialGradient>
<linearGradient id="paint82_linear_4002_2383" x1="14.7281" y1="10.4182" x2="14.4146" y2="10.6114" gradientUnits="userSpaceOnUse">
<stop stop-color="#B4948D"/>
<stop offset="1" stop-color="#B4948D" stop-opacity="0"/>
</linearGradient>
<radialGradient id="paint83_radial_4002_2383" cx="0" cy="0" r="1" gradientUnits="userSpaceOnUse" gradientTransform="translate(13.698 10.5835) rotate(-90.897) scale(0.493721 0.593473)">
<stop offset="0.765532" stop-color="#FFE6E2" stop-opacity="0"/>
<stop offset="0.966159" stop-color="#FFE6E2"/>
</radialGradient>
<radialGradient id="paint84_radial_4002_2383" cx="0" cy="0" r="1" gradientUnits="userSpaceOnUse" gradientTransform="translate(17.958 2.8364) rotate(115.63) scale(5.05214 7.1732)">
<stop offset="0.627022" stop-color="#F49523" stop-opacity="0"/>
<stop offset="1" stop-color="#F49523"/>
</radialGradient>
<radialGradient id="paint85_radial_4002_2383" cx="0" cy="0" r="1" gradientUnits="userSpaceOnUse" gradientTransform="translate(18.6754 4.08969) rotate(105.909) scale(3.44004 7.20923)">
<stop offset="0.131886" stop-color="#FFE337"/>
<stop offset="1" stop-color="#FFE337" stop-opacity="0"/>
</radialGradient>
<radialGradient id="paint86_radial_4002_2383" cx="0" cy="0" r="1" gradientUnits="userSpaceOnUse" gradientTransform="translate(17.3163 9.72111) rotate(-117.848) scale(7.31454 6.53874)">
<stop offset="0.897563" stop-color="#CA9B37" stop-opacity="0"/>
<stop offset="1" stop-color="#CA9B37"/>
</radialGradient>
<linearGradient id="paint87_linear_4002_2383" x1="13.2754" y1="4.76341" x2="13.8201" y2="6.03727" gradientUnits="userSpaceOnUse">
<stop stop-color="#FAA719"/>
<stop offset="1" stop-color="#DB6008"/>
</linearGradient>
<radialGradient id="paint88_radial_4002_2383" cx="0" cy="0" r="1" gradientUnits="userSpaceOnUse" gradientTransform="translate(15.9749 6.57416) rotate(90) scale(2.66487 5.81608)">
<stop stop-color="#41225A"/>
<stop offset="1" stop-color="#41225A" stop-opacity="0"/>
</radialGradient>
<radialGradient id="paint89_radial_4002_2383" cx="0" cy="0" r="1" gradientUnits="userSpaceOnUse" gradientTransform="translate(15.952 4.37034) scale(8.99875 2.97087)">
<stop stop-color="#66606E"/>
<stop offset="1" stop-color="#66606E" stop-opacity="0"/>
</radialGradient>
<radialGradient id="paint90_radial_4002_2383" cx="0" cy="0" r="1" gradientUnits="userSpaceOnUse" gradientTransform="translate(13.1905 5.39628) rotate(170.731) scale(6.59378 2.26941)">
<stop stop-color="#66606E"/>
<stop offset="1" stop-color="#66606E" stop-opacity="0"/>
</radialGradient>
</defs>
</svg>
