<svg width="32" height="32" viewBox="0 0 32 32" fill="none" xmlns="http://www.w3.org/2000/svg">
<path d="M8.10995 15.5C7.2395 15.5 6.59259 16.3068 6.78186 17.1585L6.78307 17.1638C7.76474 21.3649 11.5425 24.5 16.04 24.5C20.5375 24.5 24.3043 21.3651 25.2865 17.1654C25.494 16.2989 24.8198 15.5 23.9599 15.5H8.10995Z" fill="#212121"/>
<path d="M8.99993 1.31941e-06C8.02454 -0.000790501 7.08247 0.354841 6.35093 1C5.44613 1.05104 4.59508 1.44608 3.97209 2.10421C3.34909 2.76235 3.0013 3.63377 2.99993 4.54V6.358L1.84493 7.328C1.40252 7.6988 1.1105 8.21821 1.02361 8.78888C0.936724 9.35956 1.06092 9.94234 1.37293 10.428C1.12697 10.9297 0.999368 11.4812 0.999928 12.04V12.97C0.998746 13.5991 1.19321 14.213 1.55638 14.7266C1.91955 15.2403 2.43345 15.6283 3.02693 15.837C3.22055 18.855 4.4608 21.711 6.53398 23.9128C8.26483 25.751 10.4858 27.0371 12.9183 27.6298L12.4299 29.4999H11.2299C10.5699 29.4999 10.0399 30.0299 10.0399 30.6899C10.0399 30.8599 10.1799 30.9999 10.3499 30.9999H13.077C13.0528 30.9005 13.0399 30.7967 13.0399 30.6899C13.0399 29.8867 13.4691 29.1865 14.1113 28.8054L14.3492 27.8945L14.3843 27.899C15.1815 27.9985 15.9813 28.0234 16.7738 27.9757L16.4472 29.4999H14.9999C14.4477 29.4999 13.9999 29.9476 13.9999 30.4999C13.9999 30.5696 14.0142 30.636 14.04 30.6963C14.0435 30.8634 14.1821 30.9999 14.3499 30.9999H14.4944L14.4999 30.9999H19.4999C19.7761 30.9999 19.9999 30.7761 19.9999 30.4999C19.9999 29.9476 19.5522 29.4999 18.9999 29.4999H17.9813L18.349 27.784C19.9813 27.4832 21.553 26.8702 22.9738 25.9655C25.5247 24.3411 27.4292 21.8778 28.3589 19H28.5299C29.0757 19.0025 29.6066 18.8222 30.038 18.4878C30.4694 18.1534 30.7763 17.6842 30.9099 17.155C30.9466 17.0081 30.9697 16.8581 30.9789 16.707C31.4784 16.305 31.8189 15.7387 31.9398 15.1091C32.0606 14.4795 31.954 13.8274 31.6389 13.269C31.7952 12.9945 31.9031 12.6951 31.9579 12.384C32.0674 11.7661 31.9574 11.1294 31.6469 10.584C31.8549 10.1052 31.8982 9.57099 31.7699 9.065C31.3052 7.19634 30.1826 5.55774 28.6079 4.44952C27.0331 3.3413 25.1118 2.83769 23.1959 3.03098C21.28 3.22426 19.498 4.1015 18.1764 5.50193C16.8547 6.90236 16.0821 8.73216 15.9999 10.656V11.56C15.9758 11.5281 15.9537 11.4947 15.9339 11.46L15.7339 11.078L14.3339 8.37L14.4519 8.251C15.1999 7.49884 15.6189 6.48067 15.617 5.41993C15.6151 4.35919 15.1925 3.34252 14.4419 2.593C13.8073 1.95574 12.9746 1.55366 12.0809 1.453C11.7046 1.00059 11.2337 0.636077 10.7015 0.38506C10.1692 0.134043 9.58841 0.0026122 8.99993 1.31941e-06ZM4.99993 6.99988C4.99993 5.33988 6.33994 3.99991 7.99994 3.99991C9.15994 3.99991 10.1599 4.65991 10.6599 5.61991L11.8872 7.99264L11.8889 7.99172V8L14.1179 12.31C14.3819 12.8199 14.7811 13.2473 15.2718 13.5454C15.7625 13.8435 16.3258 14.0008 16.8999 14C17.0444 14 17.1874 13.9715 17.3209 13.9163C17.4543 13.861 17.5756 13.78 17.6777 13.6778C17.7799 13.5757 17.8609 13.4544 17.9162 13.321C17.9715 13.1875 17.9999 13.0445 17.9999 12.9V10.741C18.0644 9.2995 18.6456 7.92936 19.6371 6.88106C20.6287 5.83277 21.9644 5.17635 23.4001 5.03181C24.8358 4.88727 26.2755 5.26426 27.4562 6.09387C28.6368 6.92348 29.4794 8.15028 29.8299 9.55C29.8483 9.62019 29.8455 9.69426 29.8218 9.76284C29.7981 9.83143 29.7546 9.89145 29.6968 9.93533C29.6391 9.97921 29.5696 10.005 29.4971 10.0094C29.4247 10.0138 29.3526 9.99658 29.2899 9.96L27.4409 8.89C27.3649 8.84417 27.2777 8.81997 27.1889 8.82C27.0776 8.81989 26.9694 8.85694 26.8815 8.92528C26.7936 8.99362 26.731 9.08934 26.7037 9.19728C26.6764 9.30521 26.6859 9.41918 26.7306 9.52111C26.7754 9.62305 26.8529 9.70712 26.9509 9.76L29.6699 11.33C29.7881 11.4003 29.8819 11.505 29.9389 11.6301C29.9959 11.7552 30.0134 11.8947 29.9889 12.03C29.9727 12.1807 29.9015 12.32 29.789 12.4215C29.6764 12.523 29.5304 12.5794 29.3789 12.58C29.2419 12.5776 29.1079 12.5397 28.9899 12.47L27.4309 11.57C27.3549 11.5242 27.2677 11.5 27.1789 11.5C27.0676 11.4999 26.9594 11.5369 26.8715 11.6053C26.7836 11.6736 26.721 11.7693 26.6937 11.8773C26.6664 11.9852 26.6759 12.0992 26.7206 12.2011C26.7654 12.303 26.8429 12.3871 26.9409 12.44L29.6599 14.01C29.7781 14.0803 29.8719 14.185 29.9289 14.3101C29.9859 14.4352 30.0034 14.5747 29.9789 14.71C29.9627 14.8607 29.8915 15 29.779 15.1015C29.6664 15.203 29.5204 15.2594 29.3689 15.26C29.2319 15.2576 29.0979 15.2197 28.9799 15.15L27.4199 14.25C27.3443 14.2041 27.2574 14.1798 27.1689 14.18C27.0576 14.1799 26.9494 14.2169 26.8615 14.2853C26.7736 14.3536 26.711 14.4493 26.6837 14.5573C26.6564 14.6652 26.6659 14.7792 26.7106 14.8811C26.7554 14.983 26.8329 15.0671 26.9309 15.12L28.7699 16.18C28.8513 16.2295 28.9147 16.3038 28.9507 16.392C28.9867 16.4802 28.9934 16.5777 28.9699 16.67C28.9434 16.7659 28.8858 16.8503 28.8062 16.91C28.7266 16.9698 28.6294 17.0014 28.5299 17H27.4509C27.2705 17.0018 27.0958 17.0638 26.9545 17.1761C26.8132 17.2884 26.7134 17.4446 26.6709 17.62C26.032 20.2313 24.4584 22.5179 22.2476 24.0474C20.0369 25.577 17.3423 26.2435 14.6735 25.9208C12.0046 25.5981 9.54653 24.3087 7.76401 22.2964C5.9815 20.284 4.99815 17.6883 4.99993 15L4.99994 13.0047L4.99995 13V11.16C5.00074 10.9189 5.09687 10.6879 5.26736 10.5174C5.43785 10.3469 5.66885 10.2508 5.90995 10.25H7.24995C7.69496 10.25 8.12998 10.118 8.49999 9.87081C8.87 9.62357 9.15838 9.27217 9.32868 8.86104C9.49898 8.4499 9.54354 7.9975 9.45672 7.56105C9.3699 7.12459 9.15561 6.72368 8.84094 6.40901C8.52628 6.09434 8.12536 5.88005 7.68891 5.79323C7.25245 5.70642 6.80005 5.75097 6.38892 5.92127C5.97778 6.09157 5.62638 6.37996 5.37915 6.74997C5.13191 7.11998 4.99995 7.55499 4.99995 8V9.26C4.99909 9.48182 4.93701 9.6991 4.82055 9.88789C4.77481 9.96205 4.72138 10.0307 4.66137 10.0928L3.21993 9.48C3.16229 9.45507 3.112 9.4158 3.07383 9.36593C3.03567 9.31607 3.01089 9.25727 3.00187 9.19512C2.99285 9.13298 2.99988 9.06956 3.0223 9.0109C3.04471 8.95224 3.08176 8.90029 3.12993 8.86L4.99993 7.291V6.99988ZM7.39994 7.7C7.39994 8.0866 7.08654 8.4 6.69994 8.4C6.31334 8.4 5.99994 8.0866 5.99994 7.7C5.99994 7.3134 6.31334 7 6.69994 7C7.08654 7 7.39994 7.3134 7.39994 7.7Z" fill="#212121"/>
</svg>
