<svg width="32" height="32" viewBox="0 0 32 32" fill="none" xmlns="http://www.w3.org/2000/svg">
<path d="M26.9159 19.1571C26.3551 17.8281 25.0532 16.9688 23.6111 16.9688H8.30881C6.86672 16.9688 5.56482 17.8281 5.00401 19.1571L2.25 25.7987H7L14.5 29.9688H17.5L25 25.8188L29.75 25.802L26.9159 19.1571Z" fill="url(#paint0_linear_4002_4037)"/>
<path d="M26.9159 19.1571C26.3551 17.8281 25.0532 16.9688 23.6111 16.9688H8.30881C6.86672 16.9688 5.56482 17.8281 5.00401 19.1571L2.25 25.7987H7L14.5 29.9688H17.5L25 25.8188L29.75 25.802L26.9159 19.1571Z" fill="url(#paint1_radial_4002_4037)"/>
<path d="M26.9159 19.1571C26.3551 17.8281 25.0532 16.9688 23.6111 16.9688H8.30881C6.86672 16.9688 5.56482 17.8281 5.00401 19.1571L2.25 25.7987H7L14.5 29.9688H17.5L25 25.8188L29.75 25.802L26.9159 19.1571Z" fill="url(#paint2_radial_4002_4037)"/>
<path d="M26.9159 19.1571C26.3551 17.8281 25.0532 16.9688 23.6111 16.9688H8.30881C6.86672 16.9688 5.56482 17.8281 5.00401 19.1571L2.25 25.7987H7L14.5 29.9688H17.5L25 25.8188L29.75 25.802L26.9159 19.1571Z" fill="url(#paint3_radial_4002_4037)"/>
<path d="M26.9159 19.1571C26.3551 17.8281 25.0532 16.9688 23.6111 16.9688H8.30881C6.86672 16.9688 5.56482 17.8281 5.00401 19.1571L2.25 25.7987H7L14.5 29.9688H17.5L25 25.8188L29.75 25.802L26.9159 19.1571Z" fill="url(#paint4_radial_4002_4037)"/>
<path d="M26.9159 19.1571C26.3551 17.8281 25.0532 16.9688 23.6111 16.9688H8.30881C6.86672 16.9688 5.56482 17.8281 5.00401 19.1571L2.25 25.7987H7L14.5 29.9688H17.5L25 25.8188L29.75 25.802L26.9159 19.1571Z" fill="url(#paint5_radial_4002_4037)"/>
<path d="M26.9159 19.1571C26.3551 17.8281 25.0532 16.9688 23.6111 16.9688H8.30881C6.86672 16.9688 5.56482 17.8281 5.00401 19.1571L2.25 25.7987H7L14.5 29.9688H17.5L25 25.8188L29.75 25.802L26.9159 19.1571Z" fill="url(#paint6_radial_4002_4037)"/>
<path d="M11.3069 25.6878C11.203 25.6488 11.0888 25.6195 10.9745 25.5902L6.31067 24.1951C6.20681 24.1561 6.09257 24.1268 5.97833 24.0976C5.72903 24.039 5.45892 24 5.18886 24C3.42304 24 2 25.3463 2 26.9951C2 28.6439 3.42304 30 5.17847 30H9C9.63362 29.5415 13 28.8293 13 28.0195C13 26.9561 12.2937 26.0488 11.3069 25.6878Z" fill="url(#paint7_radial_4002_4037)"/>
<path d="M11.3069 25.6878C11.203 25.6488 11.0888 25.6195 10.9745 25.5902L6.31067 24.1951C6.20681 24.1561 6.09257 24.1268 5.97833 24.0976C5.72903 24.039 5.45892 24 5.18886 24C3.42304 24 2 25.3463 2 26.9951C2 28.6439 3.42304 30 5.17847 30H9C9.63362 29.5415 13 28.8293 13 28.0195C13 26.9561 12.2937 26.0488 11.3069 25.6878Z" fill="url(#paint8_linear_4002_4037)"/>
<path d="M20.6931 25.6878C20.797 25.6488 20.9112 25.6195 21.0255 25.5902L25.6893 24.1951C25.7932 24.1561 25.9074 24.1268 26.0217 24.0976C26.271 24.039 26.5411 24 26.8111 24C28.577 24 30 25.3463 30 26.9951C30 28.6439 28.577 30 26.8215 30H23C22.3664 29.5415 19 28.8293 19 28.0195C19 26.9561 19.7063 26.0488 20.6931 25.6878Z" fill="url(#paint9_radial_4002_4037)"/>
<path d="M20.6931 25.6878C20.797 25.6488 20.9112 25.6195 21.0255 25.5902L25.6893 24.1951C25.7932 24.1561 25.9074 24.1268 26.0217 24.0976C26.271 24.039 26.5411 24 26.8111 24C28.577 24 30 25.3463 30 26.9951C30 28.6439 28.577 30 26.8215 30H23C22.3664 29.5415 19 28.8293 19 28.0195C19 26.9561 19.7063 26.0488 20.6931 25.6878Z" fill="url(#paint10_radial_4002_4037)"/>
<path d="M20.6931 25.6878C20.797 25.6488 20.9112 25.6195 21.0255 25.5902L25.6893 24.1951C25.7932 24.1561 25.9074 24.1268 26.0217 24.0976C26.271 24.039 26.5411 24 26.8111 24C28.577 24 30 25.3463 30 26.9951C30 28.6439 28.577 30 26.8215 30H23C22.3664 29.5415 19 28.8293 19 28.0195C19 26.9561 19.7063 26.0488 20.6931 25.6878Z" fill="url(#paint11_linear_4002_4037)"/>
<path d="M20.6931 25.6878C20.797 25.6488 20.9112 25.6195 21.0255 25.5902L25.6893 24.1951C25.7932 24.1561 25.9074 24.1268 26.0217 24.0976C26.271 24.039 26.5411 24 26.8111 24C28.577 24 30 25.3463 30 26.9951C30 28.6439 28.577 30 26.8215 30H23C22.3664 29.5415 19 28.8293 19 28.0195C19 26.9561 19.7063 26.0488 20.6931 25.6878Z" fill="url(#paint12_radial_4002_4037)"/>
<path d="M20.6931 25.6878C20.797 25.6488 20.9112 25.6195 21.0255 25.5902L25.6893 24.1951C25.7932 24.1561 25.9074 24.1268 26.0217 24.0976C26.271 24.039 26.5411 24 26.8111 24C28.577 24 30 25.3463 30 26.9951C30 28.6439 28.577 30 26.8215 30H23C22.3664 29.5415 19 28.8293 19 28.0195C19 26.9561 19.7063 26.0488 20.6931 25.6878Z" fill="url(#paint13_linear_4002_4037)"/>
<g filter="url(#filter0_i_4002_4037)">
<path d="M20.6646 26.6531C20.8787 26.551 21.1122 26.5 21.3555 26.5C22.2701 26.5102 23.0096 27.2857 22.9999 28.2347L23 30H17.2687C16.8405 30 16.5 29.602 16.5 29.1531C16.5 28.8367 16.6849 28.551 16.9573 28.4184L20.6646 26.6531Z" fill="url(#paint14_radial_4002_4037)"/>
</g>
<g filter="url(#filter1_i_4002_4037)">
<path d="M11.3354 26.6531C11.1213 26.551 10.8878 26.5 10.6445 26.5C9.72987 26.5102 8.99036 27.2857 9.00009 28.2347L9 30H14.7313C15.1595 30 15.5 29.602 15.5 29.1531C15.5 28.8367 15.3151 28.551 15.0427 28.4184L11.3354 26.6531Z" fill="url(#paint15_linear_4002_4037)"/>
<path d="M11.3354 26.6531C11.1213 26.551 10.8878 26.5 10.6445 26.5C9.72987 26.5102 8.99036 27.2857 9.00009 28.2347L9 30H14.7313C15.1595 30 15.5 29.602 15.5 29.1531C15.5 28.8367 15.3151 28.551 15.0427 28.4184L11.3354 26.6531Z" fill="url(#paint16_radial_4002_4037)"/>
<path d="M11.3354 26.6531C11.1213 26.551 10.8878 26.5 10.6445 26.5C9.72987 26.5102 8.99036 27.2857 9.00009 28.2347L9 30H14.7313C15.1595 30 15.5 29.602 15.5 29.1531C15.5 28.8367 15.3151 28.551 15.0427 28.4184L11.3354 26.6531Z" fill="url(#paint17_radial_4002_4037)"/>
</g>
<g filter="url(#filter2_ii_4002_4037)">
<path d="M24.0299 5.1582L21.6599 5.9482C21.3699 6.0482 21.0899 5.7682 21.1899 5.4882L21.9799 3.1082C22.0699 2.8382 22.3999 2.7582 22.5999 2.9582L24.1799 4.5382C24.3699 4.7382 24.2899 5.0682 24.0299 5.1582Z" fill="url(#paint18_linear_4002_4037)"/>
</g>
<g filter="url(#filter3_ii_4002_4037)">
<path d="M15.6595 4.7893L14.5378 2.54181C14.4177 2.29097 14.5979 2 14.8783 2H17.1217C17.4021 2 17.5823 2.29097 17.4622 2.54181L16.3405 4.7893C16.1903 5.07023 15.7997 5.07023 15.6595 4.7893Z" fill="url(#paint19_linear_4002_4037)"/>
</g>
<g filter="url(#filter4_ii_4002_4037)">
<path d="M10.5122 5.98165L8.1322 5.19165C7.8722 5.10165 7.7922 4.77165 7.9922 4.57165L9.5722 2.99165C9.7722 2.79165 10.1022 2.87165 10.1922 3.14165L10.9822 5.52165C11.0822 5.80165 10.8022 6.08165 10.5122 5.98165Z" fill="url(#paint20_linear_4002_4037)"/>
</g>
<circle cx="22.2595" cy="17.5905" r="2.16406" fill="url(#paint21_linear_4002_4037)"/>
<circle cx="22.2595" cy="17.5905" r="2.16406" fill="url(#paint22_radial_4002_4037)"/>
<g filter="url(#filter5_i_4002_4037)">
<circle cx="9.75" cy="17.5905" r="2.16406" fill="url(#paint23_radial_4002_4037)"/>
</g>
<g filter="url(#filter6_f_4002_4037)">
<circle cx="22.2595" cy="17.5905" r="1.33594" fill="url(#paint24_radial_4002_4037)"/>
</g>
<g filter="url(#filter7_f_4002_4037)">
<circle cx="9.75" cy="17.5905" r="1.33594" fill="url(#paint25_radial_4002_4037)"/>
</g>
<path d="M14.5538 9H17.4268C20.646 9 23.1216 11.5421 22.7039 14.385L22.3148 20C22.3148 20.5 21 25.25 16 25.25C11 25.25 9.69329 20.5 9.69329 20L9.28686 14.385C8.92011 11.4055 11.3346 9 14.5538 9Z" fill="url(#paint26_linear_4002_4037)"/>
<path d="M14.5538 9H17.4268C20.646 9 23.1216 11.5421 22.7039 14.385L22.3148 20C22.3148 20.5 21 25.25 16 25.25C11 25.25 9.69329 20.5 9.69329 20L9.28686 14.385C8.92011 11.4055 11.3346 9 14.5538 9Z" fill="url(#paint27_radial_4002_4037)"/>
<path d="M14.5538 9H17.4268C20.646 9 23.1216 11.5421 22.7039 14.385L22.3148 20C22.3148 20.5 21 25.25 16 25.25C11 25.25 9.69329 20.5 9.69329 20L9.28686 14.385C8.92011 11.4055 11.3346 9 14.5538 9Z" fill="url(#paint28_radial_4002_4037)"/>
<path d="M14.5538 9H17.4268C20.646 9 23.1216 11.5421 22.7039 14.385L22.3148 20C22.3148 20.5 21 25.25 16 25.25C11 25.25 9.69329 20.5 9.69329 20L9.28686 14.385C8.92011 11.4055 11.3346 9 14.5538 9Z" fill="url(#paint29_radial_4002_4037)"/>
<path d="M14.5538 9H17.4268C20.646 9 23.1216 11.5421 22.7039 14.385L22.3148 20C22.3148 20.5 21 25.25 16 25.25C11 25.25 9.69329 20.5 9.69329 20L9.28686 14.385C8.92011 11.4055 11.3346 9 14.5538 9Z" fill="url(#paint30_radial_4002_4037)"/>
<path d="M14.5538 9H17.4268C20.646 9 23.1216 11.5421 22.7039 14.385L22.3148 20C22.3148 20.5 21 25.25 16 25.25C11 25.25 9.69329 20.5 9.69329 20L9.28686 14.385C8.92011 11.4055 11.3346 9 14.5538 9Z" fill="url(#paint31_radial_4002_4037)"/>
<g filter="url(#filter8_i_4002_4037)">
<path d="M20.174 18.4159C20.234 18.4659 20.314 18.4859 20.384 18.4859C20.484 18.4859 20.594 18.4459 20.664 18.3459C20.784 18.1959 20.754 17.9759 20.604 17.8559C20.5544 17.8187 19.6064 17.1068 18.214 17.2759C18.014 17.2959 17.884 17.4759 17.904 17.6659C17.924 17.8559 18.094 17.9859 18.294 17.9759C19.404 17.8459 20.164 18.4059 20.174 18.4159Z" fill="#080809"/>
</g>
<g filter="url(#filter9_i_4002_4037)">
<path d="M11.324 18.3459C11.394 18.4359 11.494 18.4859 11.604 18.4859C11.674 18.4859 11.754 18.4659 11.814 18.4159C11.824 18.4059 12.574 17.8459 13.694 17.9759C13.894 17.9959 14.064 17.8559 14.084 17.6659C14.104 17.4759 13.964 17.2959 13.774 17.2759C12.3816 17.1069 11.4343 17.8182 11.3847 17.8554C11.2347 17.9754 11.204 18.1959 11.324 18.3459Z" fill="#080809"/>
</g>
<path d="M18.9484 19.5233C18.2734 19.6358 17.8234 20.0494 17.6906 20.2265L18.8702 20.9687L20.7394 20.6909C21.0535 20.6442 21.2169 20.293 20.9837 20.0776C20.4065 19.5447 19.6142 19.4124 18.9484 19.5233Z" fill="url(#paint32_radial_4002_4037)"/>
<path d="M12.9923 19.5233C13.6673 19.6358 14.1173 20.0494 14.2501 20.2265L13.0704 20.9687L11.2013 20.6909C10.8872 20.6442 10.7237 20.293 10.957 20.0776C11.5341 19.5447 12.3265 19.4124 12.9923 19.5233Z" fill="url(#paint33_radial_4002_4037)"/>
<path d="M12.9239 19.6002C12.0764 19.6002 11.3605 20.1845 11.1658 20.9741C11.1079 21.2004 11.2816 21.4162 11.5132 21.4162H14.4083C14.5925 21.4162 14.7399 21.2478 14.703 21.0636C14.5399 20.2319 13.8029 19.6002 12.9239 19.6002Z" fill="white"/>
<path d="M13.1922 19.953C12.55 19.953 12.0342 20.4741 12.0342 21.111C12.0342 21.2163 12.05 21.3216 12.0763 21.4163H14.3134C14.3397 21.3163 14.3555 21.2163 14.3555 21.111C14.3502 20.4741 13.8344 19.953 13.1922 19.953Z" fill="url(#paint34_radial_4002_4037)"/>
<path d="M13.8554 21.111C13.8554 20.7425 13.5606 20.4478 13.1922 20.4478C12.8237 20.4478 12.5289 20.7425 12.5289 21.111C12.5289 21.2215 12.5552 21.3268 12.6026 21.4163H13.7764C13.8238 21.3268 13.8554 21.2215 13.8554 21.111Z" fill="black"/>
<g filter="url(#filter10_f_4002_4037)">
<path d="M14.2502 20.975C14.2502 20.6008 13.9458 20.3513 13.8636 20.2759L13.4894 20.6378L13.7197 21.1066L14.2502 20.975Z" fill="url(#paint35_linear_4002_4037)"/>
</g>
<g filter="url(#filter11_f_4002_4037)">
<ellipse cx="12.8427" cy="20.4478" rx="0.505544" ry="0.255852" transform="rotate(-27.914 12.8427 20.4478)" fill="#C7A7A3" fill-opacity="0.9"/>
<ellipse cx="12.8427" cy="20.4478" rx="0.505544" ry="0.255852" transform="rotate(-27.914 12.8427 20.4478)" fill="url(#paint36_radial_4002_4037)"/>
</g>
<path d="M19.049 19.6002C18.2015 19.6002 17.4856 20.1845 17.2909 20.9741C17.233 21.2004 17.4067 21.4162 17.6383 21.4162H20.5334C20.7176 21.4162 20.865 21.2478 20.8282 21.0636C20.665 20.2319 19.928 19.6002 19.049 19.6002Z" fill="white"/>
<path d="M18.8486 19.953C18.2064 19.953 17.6906 20.4741 17.6906 21.111C17.6906 21.2163 17.7063 21.3216 17.7327 21.4163H19.9698C19.9961 21.3163 20.0119 21.2163 20.0119 21.111C20.0066 20.4741 19.4908 19.953 18.8486 19.953Z" fill="url(#paint37_radial_4002_4037)"/>
<path d="M19.5118 21.111C19.5118 20.7425 19.217 20.4478 18.8485 20.4478C18.4801 20.4478 18.1853 20.7425 18.1853 21.111C18.1853 21.2215 18.2116 21.3268 18.259 21.4163H19.4328C19.4802 21.3268 19.5118 21.2215 19.5118 21.111Z" fill="black"/>
<g filter="url(#filter12_f_4002_4037)">
<path d="M19.9065 20.975C19.9065 20.6008 19.6022 20.3513 19.52 20.2759L19.1458 20.6378L19.376 21.1066L19.9065 20.975Z" fill="url(#paint38_linear_4002_4037)"/>
</g>
<g filter="url(#filter13_f_4002_4037)">
<ellipse cx="18.4991" cy="20.4478" rx="0.505544" ry="0.255852" transform="rotate(-27.914 18.4991 20.4478)" fill="#C7A7A3" fill-opacity="0.9"/>
<ellipse cx="18.4991" cy="20.4478" rx="0.505544" ry="0.255852" transform="rotate(-27.914 18.4991 20.4478)" fill="url(#paint39_radial_4002_4037)"/>
</g>
<g filter="url(#filter14_f_4002_4037)">
<path d="M14.7411 23.3022L15.4011 21.1622C15.5411 20.6922 16.2111 20.6922 16.3611 21.1622L17.0211 23.3022C17.1496 23.6969 16.8821 24.1085 16.4816 24.1734C16.3328 24.2127 16.1308 24.2422 15.8685 24.2422C15.5669 24.2422 15.3617 24.2067 15.2199 24.1611C14.8536 24.0684 14.6192 23.6853 14.7411 23.3022Z" fill="url(#paint40_linear_4002_4037)"/>
</g>
<g filter="url(#filter15_f_4002_4037)">
<path d="M14.9672 23.06L15.6272 20.92C15.7672 20.45 16.4372 20.45 16.5872 20.92L17.2472 23.06C17.3757 23.4547 17.1082 23.8663 16.7077 23.9312C16.5589 23.9705 16.3569 24 16.0946 24C15.7929 24 15.5878 23.9645 15.446 23.9189C15.0797 23.8262 14.8453 23.4431 14.9672 23.06Z" fill="url(#paint41_linear_4002_4037)"/>
<path d="M14.9672 23.06L15.6272 20.92C15.7672 20.45 16.4372 20.45 16.5872 20.92L17.2472 23.06C17.3757 23.4547 17.1082 23.8663 16.7077 23.9312C16.5589 23.9705 16.3569 24 16.0946 24C15.7929 24 15.5878 23.9645 15.446 23.9189C15.0797 23.8262 14.8453 23.4431 14.9672 23.06Z" fill="url(#paint42_radial_4002_4037)"/>
<path d="M14.9672 23.06L15.6272 20.92C15.7672 20.45 16.4372 20.45 16.5872 20.92L17.2472 23.06C17.3757 23.4547 17.1082 23.8663 16.7077 23.9312C16.5589 23.9705 16.3569 24 16.0946 24C15.7929 24 15.5878 23.9645 15.446 23.9189C15.0797 23.8262 14.8453 23.4431 14.9672 23.06Z" fill="url(#paint43_radial_4002_4037)"/>
</g>
<g filter="url(#filter16_i_4002_4037)">
<path d="M4.92402 16.0032C3.31505 16.3806 1.8935 19.3128 4.15695 21.224L5.00803 19.1715C5.35473 18.3499 5.98464 17.7078 6.7558 17.3373C6.81046 18.9396 8.12161 20.223 9.73482 20.2331C9.70918 20.1166 9.69738 20.0307 9.69738 19.9832L9.68078 19.7539C8.5359 19.6975 7.62499 18.7514 7.62499 17.5925C7.62499 16.657 8.21858 15.8602 9.04967 15.5581C9.0715 15.5794 9.0911 15.6037 9.10823 15.6311C9.40645 16.1083 9.24814 16.9832 9.53124 16.9832H9.7106C9.81823 16.9732 9.92073 16.9483 10.0183 16.9106C10.415 16.7605 10.7306 16.4022 10.9813 15.9832C11.2085 15.6035 11.3824 15.1739 11.5151 14.8042L11.524 14.7793L11.644 14.4895L11.6493 14.4557C11.7856 14.1863 12.171 14.1502 12.344 14.4096C12.7751 15.0383 13.3147 15.5691 13.9284 15.9832H13.9365C14.8082 16.5696 15.8287 16.9208 16.8993 16.9832H22.1045C22.3147 16.9832 22.5025 16.8516 22.5744 16.654L22.9717 15.5613L22.9809 15.5902L22.9833 15.5704C23.797 15.8813 24.375 16.6694 24.375 17.5925C24.375 18.7461 23.4723 19.6889 22.3348 19.7531L22.3189 19.9832C22.3189 20.0307 22.307 20.1165 22.2812 20.233C23.8777 20.2189 25.1764 18.9577 25.2507 17.3762C25.986 17.7519 26.5851 18.378 26.9199 19.1715L27.7843 21.1982C30.1311 19.2814 28.6983 16.3147 27.074 15.9331C25.414 15.5431 24.614 14.1831 24.614 14.1831L24.6112 14.1866C24.2515 13.5725 24.0651 12.876 24.0741 12.1632V12.1532C24.0741 9.86315 22.2241 8.01315 19.9341 8.01315C19.7041 8.01315 19.4941 7.90315 19.3641 7.72315C18.6141 6.66315 17.3841 5.98315 15.9941 5.98315C14.6056 5.98315 13.3768 6.66168 12.6266 7.70973L12.624 7.71315C12.494 7.89315 12.284 8.00315 12.054 8.00315C9.76402 8.00315 7.91402 9.85315 7.91402 12.1431V12.1531C7.91402 13.944 6.67704 15.5974 4.92402 16.0032Z" fill="url(#paint44_radial_4002_4037)"/>
<path d="M4.92402 16.0032C3.31505 16.3806 1.8935 19.3128 4.15695 21.224L5.00803 19.1715C5.35473 18.3499 5.98464 17.7078 6.7558 17.3373C6.81046 18.9396 8.12161 20.223 9.73482 20.2331C9.70918 20.1166 9.69738 20.0307 9.69738 19.9832L9.68078 19.7539C8.5359 19.6975 7.62499 18.7514 7.62499 17.5925C7.62499 16.657 8.21858 15.8602 9.04967 15.5581C9.0715 15.5794 9.0911 15.6037 9.10823 15.6311C9.40645 16.1083 9.24814 16.9832 9.53124 16.9832H9.7106C9.81823 16.9732 9.92073 16.9483 10.0183 16.9106C10.415 16.7605 10.7306 16.4022 10.9813 15.9832C11.2085 15.6035 11.3824 15.1739 11.5151 14.8042L11.524 14.7793L11.644 14.4895L11.6493 14.4557C11.7856 14.1863 12.171 14.1502 12.344 14.4096C12.7751 15.0383 13.3147 15.5691 13.9284 15.9832H13.9365C14.8082 16.5696 15.8287 16.9208 16.8993 16.9832H22.1045C22.3147 16.9832 22.5025 16.8516 22.5744 16.654L22.9717 15.5613L22.9809 15.5902L22.9833 15.5704C23.797 15.8813 24.375 16.6694 24.375 17.5925C24.375 18.7461 23.4723 19.6889 22.3348 19.7531L22.3189 19.9832C22.3189 20.0307 22.307 20.1165 22.2812 20.233C23.8777 20.2189 25.1764 18.9577 25.2507 17.3762C25.986 17.7519 26.5851 18.378 26.9199 19.1715L27.7843 21.1982C30.1311 19.2814 28.6983 16.3147 27.074 15.9331C25.414 15.5431 24.614 14.1831 24.614 14.1831L24.6112 14.1866C24.2515 13.5725 24.0651 12.876 24.0741 12.1632V12.1532C24.0741 9.86315 22.2241 8.01315 19.9341 8.01315C19.7041 8.01315 19.4941 7.90315 19.3641 7.72315C18.6141 6.66315 17.3841 5.98315 15.9941 5.98315C14.6056 5.98315 13.3768 6.66168 12.6266 7.70973L12.624 7.71315C12.494 7.89315 12.284 8.00315 12.054 8.00315C9.76402 8.00315 7.91402 9.85315 7.91402 12.1431V12.1531C7.91402 13.944 6.67704 15.5974 4.92402 16.0032Z" fill="url(#paint45_radial_4002_4037)"/>
</g>
<g filter="url(#filter17_f_4002_4037)">
<path d="M18.2578 17.5468C18.6823 17.513 19.7156 17.564 20.4531 18.039" stroke="url(#paint46_linear_4002_4037)" stroke-width="0.15" stroke-linecap="round"/>
</g>
<g filter="url(#filter18_f_4002_4037)">
<path d="M13.7188 17.5468C13.2943 17.513 12.2609 17.564 11.5234 18.039" stroke="url(#paint47_linear_4002_4037)" stroke-width="0.15" stroke-linecap="round"/>
</g>
<g filter="url(#filter19_f_4002_4037)">
<path d="M20.3629 27.5295C19.2779 28.092 18.5325 28.3576 18.2954 28.4201C18.4829 28.5243 19.0175 28.5143 19.8201 28.3108C20.4241 28.1576 21.0771 27.8655 21.6064 27.9123C22.0298 27.9498 22.4469 28.6962 22.5958 29.0295C22.6178 28.7535 22.6322 28.1014 22.5131 27.7014C22.3642 27.2014 21.7192 26.8264 20.3629 27.5295Z" fill="#6C5958"/>
</g>
<g filter="url(#filter20_f_4002_4037)">
<path d="M10.0468 13.2982C9.2812 10.9388 9.68745 9.98051 9.7812 9.37634C8.35152 10.142 7.6562 12.0482 8.85152 14.6185C9.19235 15.3514 9.52855 15.8827 9.60466 16.4185C9.61934 16.5218 9.77013 16.5685 9.81881 16.4762C10.1995 15.7544 10.4775 14.6254 10.0468 13.2982Z" fill="url(#paint48_linear_4002_4037)"/>
</g>
<g filter="url(#filter21_f_4002_4037)">
<path d="M19.1442 13.3607C17.5442 13.7357 16.1442 12.9545 15.6442 12.517C15.8629 13.3295 17.3629 15.142 19.3629 15.142C22.1129 15.142 22.9254 13.0638 22.5817 11.6732C22.1263 9.83089 22.1858 9.56905 22.2379 9.01697C20.1442 10.3607 21.1442 12.892 19.1442 13.3607Z" fill="url(#paint49_radial_4002_4037)"/>
</g>
<g filter="url(#filter22_f_4002_4037)">
<path d="M25.2691 16.2982C25.1066 15.2607 24.4306 14.1472 24.1129 13.7201C23.8472 14.1628 23.4754 15.2826 24.1129 16.2201C24.7504 17.1576 24.4931 18.1732 24.2847 18.5638C24.6806 18.2409 25.4316 17.3357 25.2691 16.2982Z" fill="url(#paint50_radial_4002_4037)"/>
</g>
<g filter="url(#filter23_f_4002_4037)">
<path d="M26.5721 16.2592C25.7961 15.9967 25.2423 15.5092 25.1954 15.3217C25.1171 16.0873 25.8602 16.931 26.7676 17.1342C27.6713 17.3365 28.5181 17.9232 28.6485 18.2357C28.113 16.6967 27.542 16.5873 26.5721 16.2592Z" fill="url(#paint51_linear_4002_4037)"/>
</g>
<g filter="url(#filter24_f_4002_4037)">
<path d="M22.5625 13.6107C22.4875 14.3732 22.3958 15.8243 22.3594 16.4545L23.2812 13.892L22.5625 13.6107Z" fill="url(#paint52_radial_4002_4037)"/>
</g>
<defs>
<filter id="filter0_i_4002_4037" x="16.5" y="26.4" width="7" height="3.6" filterUnits="userSpaceOnUse" color-interpolation-filters="sRGB">
<feFlood flood-opacity="0" result="BackgroundImageFix"/>
<feBlend mode="normal" in="SourceGraphic" in2="BackgroundImageFix" result="shape"/>
<feColorMatrix in="SourceAlpha" type="matrix" values="0 0 0 0 0 0 0 0 0 0 0 0 0 0 0 0 0 0 127 0" result="hardAlpha"/>
<feOffset dx="0.5" dy="-0.1"/>
<feGaussianBlur stdDeviation="0.5"/>
<feComposite in2="hardAlpha" operator="arithmetic" k2="-1" k3="1"/>
<feColorMatrix type="matrix" values="0 0 0 0 0.168627 0 0 0 0 0.0823529 0 0 0 0 0.0901961 0 0 0 1 0"/>
<feBlend mode="normal" in2="shape" result="effect1_innerShadow_4002_4037"/>
</filter>
<filter id="filter1_i_4002_4037" x="9" y="26.5" width="7" height="3.5" filterUnits="userSpaceOnUse" color-interpolation-filters="sRGB">
<feFlood flood-opacity="0" result="BackgroundImageFix"/>
<feBlend mode="normal" in="SourceGraphic" in2="BackgroundImageFix" result="shape"/>
<feColorMatrix in="SourceAlpha" type="matrix" values="0 0 0 0 0 0 0 0 0 0 0 0 0 0 0 0 0 0 127 0" result="hardAlpha"/>
<feOffset dx="0.5"/>
<feGaussianBlur stdDeviation="0.5"/>
<feComposite in2="hardAlpha" operator="arithmetic" k2="-1" k3="1"/>
<feColorMatrix type="matrix" values="0 0 0 0 0.313726 0 0 0 0 0.223529 0 0 0 0 0.215686 0 0 0 1 0"/>
<feBlend mode="normal" in2="shape" result="effect1_innerShadow_4002_4037"/>
</filter>
<filter id="filter2_ii_4002_4037" x="21.0692" y="2.64656" width="3.41523" height="3.42231" filterUnits="userSpaceOnUse" color-interpolation-filters="sRGB">
<feFlood flood-opacity="0" result="BackgroundImageFix"/>
<feBlend mode="normal" in="SourceGraphic" in2="BackgroundImageFix" result="shape"/>
<feColorMatrix in="SourceAlpha" type="matrix" values="0 0 0 0 0 0 0 0 0 0 0 0 0 0 0 0 0 0 127 0" result="hardAlpha"/>
<feOffset dx="0.2" dy="-0.2"/>
<feGaussianBlur stdDeviation="0.2"/>
<feComposite in2="hardAlpha" operator="arithmetic" k2="-1" k3="1"/>
<feColorMatrix type="matrix" values="0 0 0 0 0.0313726 0 0 0 0 0.352941 0 0 0 0 0.603922 0 0 0 1 0"/>
<feBlend mode="normal" in2="shape" result="effect1_innerShadow_4002_4037"/>
<feColorMatrix in="SourceAlpha" type="matrix" values="0 0 0 0 0 0 0 0 0 0 0 0 0 0 0 0 0 0 127 0" result="hardAlpha"/>
<feOffset dx="-0.1" dy="0.1"/>
<feGaussianBlur stdDeviation="0.125"/>
<feComposite in2="hardAlpha" operator="arithmetic" k2="-1" k3="1"/>
<feColorMatrix type="matrix" values="0 0 0 0 0.286275 0 0 0 0 0.67451 0 0 0 0 0.929412 0 0 0 1 0"/>
<feBlend mode="normal" in2="effect1_innerShadow_4002_4037" result="effect2_innerShadow_4002_4037"/>
</filter>
<filter id="filter3_ii_4002_4037" x="14.4" y="1.8" width="3.3" height="3.3" filterUnits="userSpaceOnUse" color-interpolation-filters="sRGB">
<feFlood flood-opacity="0" result="BackgroundImageFix"/>
<feBlend mode="normal" in="SourceGraphic" in2="BackgroundImageFix" result="shape"/>
<feColorMatrix in="SourceAlpha" type="matrix" values="0 0 0 0 0 0 0 0 0 0 0 0 0 0 0 0 0 0 127 0" result="hardAlpha"/>
<feOffset dx="0.2" dy="-0.2"/>
<feGaussianBlur stdDeviation="0.2"/>
<feComposite in2="hardAlpha" operator="arithmetic" k2="-1" k3="1"/>
<feColorMatrix type="matrix" values="0 0 0 0 0.0313726 0 0 0 0 0.352941 0 0 0 0 0.603922 0 0 0 1 0"/>
<feBlend mode="normal" in2="shape" result="effect1_innerShadow_4002_4037"/>
<feColorMatrix in="SourceAlpha" type="matrix" values="0 0 0 0 0 0 0 0 0 0 0 0 0 0 0 0 0 0 127 0" result="hardAlpha"/>
<feOffset dx="-0.1" dy="0.1"/>
<feGaussianBlur stdDeviation="0.125"/>
<feComposite in2="hardAlpha" operator="arithmetic" k2="-1" k3="1"/>
<feColorMatrix type="matrix" values="0 0 0 0 0.286275 0 0 0 0 0.67451 0 0 0 0 0.929412 0 0 0 1 0"/>
<feBlend mode="normal" in2="effect1_innerShadow_4002_4037" result="effect2_innerShadow_4002_4037"/>
</filter>
<filter id="filter4_ii_4002_4037" x="7.78" y="2.68" width="3.42292" height="3.42231" filterUnits="userSpaceOnUse" color-interpolation-filters="sRGB">
<feFlood flood-opacity="0" result="BackgroundImageFix"/>
<feBlend mode="normal" in="SourceGraphic" in2="BackgroundImageFix" result="shape"/>
<feColorMatrix in="SourceAlpha" type="matrix" values="0 0 0 0 0 0 0 0 0 0 0 0 0 0 0 0 0 0 127 0" result="hardAlpha"/>
<feOffset dx="0.2" dy="-0.2"/>
<feGaussianBlur stdDeviation="0.2"/>
<feComposite in2="hardAlpha" operator="arithmetic" k2="-1" k3="1"/>
<feColorMatrix type="matrix" values="0 0 0 0 0.0313726 0 0 0 0 0.352941 0 0 0 0 0.603922 0 0 0 1 0"/>
<feBlend mode="normal" in2="shape" result="effect1_innerShadow_4002_4037"/>
<feColorMatrix in="SourceAlpha" type="matrix" values="0 0 0 0 0 0 0 0 0 0 0 0 0 0 0 0 0 0 127 0" result="hardAlpha"/>
<feOffset dx="-0.1" dy="0.1"/>
<feGaussianBlur stdDeviation="0.125"/>
<feComposite in2="hardAlpha" operator="arithmetic" k2="-1" k3="1"/>
<feColorMatrix type="matrix" values="0 0 0 0 0.286275 0 0 0 0 0.67451 0 0 0 0 0.929412 0 0 0 1 0"/>
<feBlend mode="normal" in2="effect1_innerShadow_4002_4037" result="effect2_innerShadow_4002_4037"/>
</filter>
<filter id="filter5_i_4002_4037" x="7.58594" y="15.4264" width="4.42813" height="4.32812" filterUnits="userSpaceOnUse" color-interpolation-filters="sRGB">
<feFlood flood-opacity="0" result="BackgroundImageFix"/>
<feBlend mode="normal" in="SourceGraphic" in2="BackgroundImageFix" result="shape"/>
<feColorMatrix in="SourceAlpha" type="matrix" values="0 0 0 0 0 0 0 0 0 0 0 0 0 0 0 0 0 0 127 0" result="hardAlpha"/>
<feOffset dx="0.1"/>
<feGaussianBlur stdDeviation="0.15"/>
<feComposite in2="hardAlpha" operator="arithmetic" k2="-1" k3="1"/>
<feColorMatrix type="matrix" values="0 0 0 0 0.329412 0 0 0 0 0.266667 0 0 0 0 0.25098 0 0 0 1 0"/>
<feBlend mode="normal" in2="shape" result="effect1_innerShadow_4002_4037"/>
</filter>
<filter id="filter6_f_4002_4037" x="20.4236" y="15.7545" width="3.67188" height="3.67188" filterUnits="userSpaceOnUse" color-interpolation-filters="sRGB">
<feFlood flood-opacity="0" result="BackgroundImageFix"/>
<feBlend mode="normal" in="SourceGraphic" in2="BackgroundImageFix" result="shape"/>
<feGaussianBlur stdDeviation="0.25" result="effect1_foregroundBlur_4002_4037"/>
</filter>
<filter id="filter7_f_4002_4037" x="8.11406" y="15.9545" width="3.27188" height="3.27188" filterUnits="userSpaceOnUse" color-interpolation-filters="sRGB">
<feFlood flood-opacity="0" result="BackgroundImageFix"/>
<feBlend mode="normal" in="SourceGraphic" in2="BackgroundImageFix" result="shape"/>
<feGaussianBlur stdDeviation="0.15" result="effect1_foregroundBlur_4002_4037"/>
</filter>
<filter id="filter8_i_4002_4037" x="17.902" y="17.1" width="2.83606" height="1.38596" filterUnits="userSpaceOnUse" color-interpolation-filters="sRGB">
<feFlood flood-opacity="0" result="BackgroundImageFix"/>
<feBlend mode="normal" in="SourceGraphic" in2="BackgroundImageFix" result="shape"/>
<feColorMatrix in="SourceAlpha" type="matrix" values="0 0 0 0 0 0 0 0 0 0 0 0 0 0 0 0 0 0 127 0" result="hardAlpha"/>
<feOffset dy="-0.15"/>
<feGaussianBlur stdDeviation="0.15"/>
<feComposite in2="hardAlpha" operator="arithmetic" k2="-1" k3="1"/>
<feColorMatrix type="matrix" values="0 0 0 0 0.0588235 0 0 0 0 0.0313726 0 0 0 0 0.0862745 0 0 0 1 0"/>
<feBlend mode="normal" in2="shape" result="effect1_innerShadow_4002_4037"/>
</filter>
<filter id="filter9_i_4002_4037" x="11.2502" y="17.1" width="2.83569" height="1.38596" filterUnits="userSpaceOnUse" color-interpolation-filters="sRGB">
<feFlood flood-opacity="0" result="BackgroundImageFix"/>
<feBlend mode="normal" in="SourceGraphic" in2="BackgroundImageFix" result="shape"/>
<feColorMatrix in="SourceAlpha" type="matrix" values="0 0 0 0 0 0 0 0 0 0 0 0 0 0 0 0 0 0 127 0" result="hardAlpha"/>
<feOffset dy="-0.15"/>
<feGaussianBlur stdDeviation="0.15"/>
<feComposite in2="hardAlpha" operator="arithmetic" k2="-1" k3="1"/>
<feColorMatrix type="matrix" values="0 0 0 0 0.0588235 0 0 0 0 0.0313726 0 0 0 0 0.0862745 0 0 0 1 0"/>
<feBlend mode="normal" in2="shape" result="effect1_innerShadow_4002_4037"/>
</filter>
<filter id="filter10_f_4002_4037" x="13.2894" y="20.0759" width="1.16074" height="1.23069" filterUnits="userSpaceOnUse" color-interpolation-filters="sRGB">
<feFlood flood-opacity="0" result="BackgroundImageFix"/>
<feBlend mode="normal" in="SourceGraphic" in2="BackgroundImageFix" result="shape"/>
<feGaussianBlur stdDeviation="0.1" result="effect1_foregroundBlur_4002_4037"/>
</filter>
<filter id="filter11_f_4002_4037" x="12.2801" y="20.0205" width="1.12529" height="0.854663" filterUnits="userSpaceOnUse" color-interpolation-filters="sRGB">
<feFlood flood-opacity="0" result="BackgroundImageFix"/>
<feBlend mode="normal" in="SourceGraphic" in2="BackgroundImageFix" result="shape"/>
<feGaussianBlur stdDeviation="0.05" result="effect1_foregroundBlur_4002_4037"/>
</filter>
<filter id="filter12_f_4002_4037" x="18.9458" y="20.0759" width="1.16074" height="1.23069" filterUnits="userSpaceOnUse" color-interpolation-filters="sRGB">
<feFlood flood-opacity="0" result="BackgroundImageFix"/>
<feBlend mode="normal" in="SourceGraphic" in2="BackgroundImageFix" result="shape"/>
<feGaussianBlur stdDeviation="0.1" result="effect1_foregroundBlur_4002_4037"/>
</filter>
<filter id="filter13_f_4002_4037" x="17.9365" y="20.0205" width="1.12529" height="0.854663" filterUnits="userSpaceOnUse" color-interpolation-filters="sRGB">
<feFlood flood-opacity="0" result="BackgroundImageFix"/>
<feBlend mode="normal" in="SourceGraphic" in2="BackgroundImageFix" result="shape"/>
<feGaussianBlur stdDeviation="0.05" result="effect1_foregroundBlur_4002_4037"/>
</filter>
<filter id="filter14_f_4002_4037" x="13.7086" y="19.8097" width="4.34497" height="5.4325" filterUnits="userSpaceOnUse" color-interpolation-filters="sRGB">
<feFlood flood-opacity="0" result="BackgroundImageFix"/>
<feBlend mode="normal" in="SourceGraphic" in2="BackgroundImageFix" result="shape"/>
<feGaussianBlur stdDeviation="0.5" result="effect1_foregroundBlur_4002_4037"/>
</filter>
<filter id="filter15_f_4002_4037" x="14.8347" y="20.4675" width="2.54497" height="3.6325" filterUnits="userSpaceOnUse" color-interpolation-filters="sRGB">
<feFlood flood-opacity="0" result="BackgroundImageFix"/>
<feBlend mode="normal" in="SourceGraphic" in2="BackgroundImageFix" result="shape"/>
<feGaussianBlur stdDeviation="0.05" result="effect1_foregroundBlur_4002_4037"/>
</filter>
<filter id="filter16_i_4002_4037" x="2.98071" y="4.98315" width="26.4386" height="16.2408" filterUnits="userSpaceOnUse" color-interpolation-filters="sRGB">
<feFlood flood-opacity="0" result="BackgroundImageFix"/>
<feBlend mode="normal" in="SourceGraphic" in2="BackgroundImageFix" result="shape"/>
<feColorMatrix in="SourceAlpha" type="matrix" values="0 0 0 0 0 0 0 0 0 0 0 0 0 0 0 0 0 0 127 0" result="hardAlpha"/>
<feOffset dx="0.4" dy="-1"/>
<feGaussianBlur stdDeviation="0.625"/>
<feComposite in2="hardAlpha" operator="arithmetic" k2="-1" k3="1"/>
<feColorMatrix type="matrix" values="0 0 0 0 0.0941176 0 0 0 0 0.0509804 0 0 0 0 0.113725 0 0 0 1 0"/>
<feBlend mode="normal" in2="shape" result="effect1_innerShadow_4002_4037"/>
</filter>
<filter id="filter17_f_4002_4037" x="17.9829" y="17.2635" width="2.74521" height="1.05051" filterUnits="userSpaceOnUse" color-interpolation-filters="sRGB">
<feFlood flood-opacity="0" result="BackgroundImageFix"/>
<feBlend mode="normal" in="SourceGraphic" in2="BackgroundImageFix" result="shape"/>
<feGaussianBlur stdDeviation="0.1" result="effect1_foregroundBlur_4002_4037"/>
</filter>
<filter id="filter18_f_4002_4037" x="11.2485" y="17.2635" width="2.74521" height="1.05051" filterUnits="userSpaceOnUse" color-interpolation-filters="sRGB">
<feFlood flood-opacity="0" result="BackgroundImageFix"/>
<feBlend mode="normal" in="SourceGraphic" in2="BackgroundImageFix" result="shape"/>
<feGaussianBlur stdDeviation="0.1" result="effect1_foregroundBlur_4002_4037"/>
</filter>
<filter id="filter19_f_4002_4037" x="17.7954" y="26.6422" width="5.31531" height="2.88733" filterUnits="userSpaceOnUse" color-interpolation-filters="sRGB">
<feFlood flood-opacity="0" result="BackgroundImageFix"/>
<feBlend mode="normal" in="SourceGraphic" in2="BackgroundImageFix" result="shape"/>
<feGaussianBlur stdDeviation="0.25" result="effect1_foregroundBlur_4002_4037"/>
</filter>
<filter id="filter20_f_4002_4037" x="7.84158" y="8.97634" width="2.82307" height="7.94941" filterUnits="userSpaceOnUse" color-interpolation-filters="sRGB">
<feFlood flood-opacity="0" result="BackgroundImageFix"/>
<feBlend mode="normal" in="SourceGraphic" in2="BackgroundImageFix" result="shape"/>
<feGaussianBlur stdDeviation="0.2" result="effect1_foregroundBlur_4002_4037"/>
</filter>
<filter id="filter21_f_4002_4037" x="14.6442" y="8.01697" width="9.01172" height="8.125" filterUnits="userSpaceOnUse" color-interpolation-filters="sRGB">
<feFlood flood-opacity="0" result="BackgroundImageFix"/>
<feBlend mode="normal" in="SourceGraphic" in2="BackgroundImageFix" result="shape"/>
<feGaussianBlur stdDeviation="0.5" result="effect1_foregroundBlur_4002_4037"/>
</filter>
<filter id="filter22_f_4002_4037" x="23.3609" y="13.3201" width="2.33088" height="5.64375" filterUnits="userSpaceOnUse" color-interpolation-filters="sRGB">
<feFlood flood-opacity="0" result="BackgroundImageFix"/>
<feBlend mode="normal" in="SourceGraphic" in2="BackgroundImageFix" result="shape"/>
<feGaussianBlur stdDeviation="0.2" result="effect1_foregroundBlur_4002_4037"/>
</filter>
<filter id="filter23_f_4002_4037" x="24.7897" y="14.9217" width="4.25874" height="3.71406" filterUnits="userSpaceOnUse" color-interpolation-filters="sRGB">
<feFlood flood-opacity="0" result="BackgroundImageFix"/>
<feBlend mode="normal" in="SourceGraphic" in2="BackgroundImageFix" result="shape"/>
<feGaussianBlur stdDeviation="0.2" result="effect1_foregroundBlur_4002_4037"/>
</filter>
<filter id="filter24_f_4002_4037" x="22.0594" y="13.3107" width="1.52188" height="3.44375" filterUnits="userSpaceOnUse" color-interpolation-filters="sRGB">
<feFlood flood-opacity="0" result="BackgroundImageFix"/>
<feBlend mode="normal" in="SourceGraphic" in2="BackgroundImageFix" result="shape"/>
<feGaussianBlur stdDeviation="0.15" result="effect1_foregroundBlur_4002_4037"/>
</filter>
<linearGradient id="paint0_linear_4002_4037" x1="26.875" y1="24.6562" x2="2.25" y2="24.6562" gradientUnits="userSpaceOnUse">
<stop stop-color="#826EB9"/>
<stop offset="1" stop-color="#564481"/>
</linearGradient>
<radialGradient id="paint1_radial_4002_4037" cx="0" cy="0" r="1" gradientUnits="userSpaceOnUse" gradientTransform="translate(27.4687 25.7187) rotate(-106.918) scale(9.1458 3.17929)">
<stop stop-color="#937CCD"/>
<stop offset="1" stop-color="#937CCD" stop-opacity="0"/>
</radialGradient>
<radialGradient id="paint2_radial_4002_4037" cx="0" cy="0" r="1" gradientUnits="userSpaceOnUse" gradientTransform="translate(13.2558 19.6297) rotate(138.493) scale(7.64496 8.00966)">
<stop offset="0.559115" stop-color="#322458"/>
<stop offset="1" stop-color="#46366D" stop-opacity="0"/>
</radialGradient>
<radialGradient id="paint3_radial_4002_4037" cx="0" cy="0" r="1" gradientUnits="userSpaceOnUse" gradientTransform="translate(8.40625 28.1562) rotate(-66.3458) scale(4.12808 8.29027)">
<stop offset="0.173797" stop-color="#493B70"/>
<stop offset="1" stop-color="#493B70" stop-opacity="0"/>
</radialGradient>
<radialGradient id="paint4_radial_4002_4037" cx="0" cy="0" r="1" gradientUnits="userSpaceOnUse" gradientTransform="translate(2.25 25.8107) rotate(-66.5873) scale(11.1677 1.31625)">
<stop offset="0.311382" stop-color="#6C548A"/>
<stop offset="1" stop-color="#6C548A" stop-opacity="0"/>
</radialGradient>
<radialGradient id="paint5_radial_4002_4037" cx="0" cy="0" r="1" gradientUnits="userSpaceOnUse" gradientTransform="translate(22.4062 19.3594) rotate(106.302) scale(1.72562 1.46892)">
<stop stop-color="#4F3587"/>
<stop offset="1" stop-color="#4F3587" stop-opacity="0"/>
</radialGradient>
<radialGradient id="paint6_radial_4002_4037" cx="0" cy="0" r="1" gradientUnits="userSpaceOnUse" gradientTransform="translate(20.9367 29.9687) rotate(-125.312) scale(5.59139 9.03345)">
<stop stop-color="#4F417D"/>
<stop offset="1" stop-color="#4F417D" stop-opacity="0"/>
</radialGradient>
<radialGradient id="paint7_radial_4002_4037" cx="0" cy="0" r="1" gradientUnits="userSpaceOnUse" gradientTransform="translate(11.125 27.7813) rotate(-161.452) scale(10.0205 4.87029)">
<stop stop-color="#7E63B2"/>
<stop offset="0.402932" stop-color="#765AAB"/>
<stop offset="1" stop-color="#654A98"/>
</radialGradient>
<linearGradient id="paint8_linear_4002_4037" x1="6.5625" y1="30" x2="6.5625" y2="27.25" gradientUnits="userSpaceOnUse">
<stop stop-color="#62439C"/>
<stop offset="1" stop-color="#62439C" stop-opacity="0"/>
</linearGradient>
<radialGradient id="paint9_radial_4002_4037" cx="0" cy="0" r="1" gradientUnits="userSpaceOnUse" gradientTransform="translate(20.2982 28.0205) rotate(-16.538) scale(11.4896 1.56713)">
<stop stop-color="#987BD6"/>
<stop offset="1" stop-color="#8761D4"/>
<stop offset="1" stop-color="#8467C4"/>
</radialGradient>
<radialGradient id="paint10_radial_4002_4037" cx="0" cy="0" r="1" gradientUnits="userSpaceOnUse" gradientTransform="translate(19.1563 27.8438) rotate(-22.7824) scale(3.38944 2.88873)">
<stop offset="0.119347" stop-color="#422E68"/>
<stop offset="1" stop-color="#574084" stop-opacity="0"/>
</radialGradient>
<linearGradient id="paint11_linear_4002_4037" x1="24.5" y1="30.4375" x2="24.5" y2="28.6563" gradientUnits="userSpaceOnUse">
<stop stop-color="#674AA0"/>
<stop offset="1" stop-color="#674AA0" stop-opacity="0"/>
</linearGradient>
<radialGradient id="paint12_radial_4002_4037" cx="0" cy="0" r="1" gradientUnits="userSpaceOnUse" gradientTransform="translate(30 25.2847) rotate(154.625) scale(2.71915 4.98512)">
<stop stop-color="#9F7EDE"/>
<stop offset="1" stop-color="#9F7EDE" stop-opacity="0"/>
</radialGradient>
<linearGradient id="paint13_linear_4002_4037" x1="22.2187" y1="24.875" x2="22.7187" y2="26.3125" gradientUnits="userSpaceOnUse">
<stop offset="0.0864249" stop-color="#533E7C"/>
<stop offset="1" stop-color="#7456AA" stop-opacity="0"/>
</linearGradient>
<radialGradient id="paint14_radial_4002_4037" cx="0" cy="0" r="1" gradientUnits="userSpaceOnUse" gradientTransform="translate(21.8894 30.2469) rotate(-151.557) scale(6.82367 4.9972)">
<stop offset="0.300148" stop-color="#462A2D"/>
<stop offset="1" stop-color="#4E2F2E"/>
</radialGradient>
<linearGradient id="paint15_linear_4002_4037" x1="13.4041" y1="27.3449" x2="11.8686" y2="31.0439" gradientUnits="userSpaceOnUse">
<stop offset="0.053143" stop-color="#472C28"/>
<stop offset="0.476311" stop-color="#3F252E"/>
</linearGradient>
<radialGradient id="paint16_radial_4002_4037" cx="0" cy="0" r="1" gradientUnits="userSpaceOnUse" gradientTransform="translate(9.622 30.2014) rotate(-90) scale(2.10937 0.25)">
<stop offset="0.22963" stop-color="#543E3C"/>
<stop offset="1" stop-color="#543E3C" stop-opacity="0"/>
</radialGradient>
<radialGradient id="paint17_radial_4002_4037" cx="0" cy="0" r="1" gradientUnits="userSpaceOnUse" gradientTransform="translate(14.3954 28.7014) rotate(-155.863) scale(1.56665 0.455014)">
<stop stop-color="#665251"/>
<stop offset="0.608524" stop-color="#665251" stop-opacity="0"/>
</radialGradient>
<linearGradient id="paint18_linear_4002_4037" x1="24.2845" y1="3.36536" x2="21.5835" y2="5.96277" gradientUnits="userSpaceOnUse">
<stop offset="0.319871" stop-color="#399BE2"/>
<stop offset="1" stop-color="#3A91CE"/>
</linearGradient>
<linearGradient id="paint19_linear_4002_4037" x1="17.5" y1="2.49847" x2="14.9047" y2="5" gradientUnits="userSpaceOnUse">
<stop offset="0.319871" stop-color="#399BE2"/>
<stop offset="1" stop-color="#3A91CE"/>
</linearGradient>
<linearGradient id="paint20_linear_4002_4037" x1="11.0029" y1="3.3988" x2="8.30168" y2="6.00281" gradientUnits="userSpaceOnUse">
<stop offset="0.319871" stop-color="#399BE2"/>
<stop offset="1" stop-color="#3A91CE"/>
</linearGradient>
<linearGradient id="paint21_linear_4002_4037" x1="21.7367" y1="19.4807" x2="24.1037" y2="16.2346" gradientUnits="userSpaceOnUse">
<stop stop-color="#442832"/>
<stop offset="1" stop-color="#695655"/>
</linearGradient>
<radialGradient id="paint22_radial_4002_4037" cx="0" cy="0" r="1" gradientUnits="userSpaceOnUse" gradientTransform="translate(22.662 17.5905) rotate(100.008) scale(1.33573)">
<stop offset="0.142857" stop-color="#3B232A"/>
<stop offset="1" stop-color="#3B232A" stop-opacity="0"/>
</radialGradient>
<radialGradient id="paint23_radial_4002_4037" cx="0" cy="0" r="1" gradientUnits="userSpaceOnUse" gradientTransform="translate(8.46094 17.0123) rotate(55.008) scale(3.05164)">
<stop offset="0.511745" stop-color="#322124"/>
<stop offset="1" stop-color="#301929"/>
</radialGradient>
<radialGradient id="paint24_radial_4002_4037" cx="0" cy="0" r="1" gradientUnits="userSpaceOnUse" gradientTransform="translate(22.3845 17.6998) rotate(-41.6933) scale(1.24503)">
<stop offset="0.496085" stop-color="#452B31"/>
<stop offset="1" stop-color="#391E26"/>
</radialGradient>
<radialGradient id="paint25_radial_4002_4037" cx="0" cy="0" r="1" gradientUnits="userSpaceOnUse" gradientTransform="translate(9.67379 17.708) rotate(-178.132) scale(0.800212 1.5567)">
<stop offset="0.527086" stop-color="#2D1B26"/>
<stop offset="1" stop-color="#2A161D"/>
</radialGradient>
<linearGradient id="paint26_linear_4002_4037" x1="22.0635" y1="20.86" x2="15.7213" y2="20.86" gradientUnits="userSpaceOnUse">
<stop stop-color="#513937"/>
<stop offset="1" stop-color="#3C222D"/>
</linearGradient>
<radialGradient id="paint27_radial_4002_4037" cx="0" cy="0" r="1" gradientUnits="userSpaceOnUse" gradientTransform="translate(16.8437 16.375) rotate(96.2361) scale(9.49368 8.83452)">
<stop offset="0.761347" stop-color="#331C28" stop-opacity="0"/>
<stop offset="1" stop-color="#291830"/>
</radialGradient>
<radialGradient id="paint28_radial_4002_4037" cx="0" cy="0" r="1" gradientUnits="userSpaceOnUse" gradientTransform="translate(8.96875 16.875) rotate(90) scale(5.375 2.47165)">
<stop offset="0.155514" stop-color="#4F3D3A"/>
<stop offset="1" stop-color="#4F3D3A" stop-opacity="0"/>
</radialGradient>
<radialGradient id="paint29_radial_4002_4037" cx="0" cy="0" r="1" gradientUnits="userSpaceOnUse" gradientTransform="translate(19.3125 19.767) rotate(-23.7193) scale(1.9456 1.09979)">
<stop stop-color="#31171E"/>
<stop offset="1" stop-color="#31171E" stop-opacity="0"/>
</radialGradient>
<radialGradient id="paint30_radial_4002_4037" cx="0" cy="0" r="1" gradientUnits="userSpaceOnUse" gradientTransform="translate(18.5131 21.0311) rotate(142.307) scale(2.50455 1.20597)">
<stop offset="0.257616" stop-color="#4D302D"/>
<stop offset="1" stop-color="#4D302D" stop-opacity="0"/>
</radialGradient>
<radialGradient id="paint31_radial_4002_4037" cx="0" cy="0" r="1" gradientUnits="userSpaceOnUse" gradientTransform="translate(12.9605 20.0604) rotate(-137.604) scale(1.85078 1.11376)">
<stop offset="0.354167" stop-color="#2B141B"/>
<stop offset="1" stop-color="#2B141B" stop-opacity="0"/>
</radialGradient>
<radialGradient id="paint32_radial_4002_4037" cx="0" cy="0" r="1" gradientUnits="userSpaceOnUse" gradientTransform="translate(19.9406 20.1718) rotate(2.78377) scale(1.15465 0.797816)">
<stop stop-color="#33262E"/>
<stop offset="1" stop-color="#22142A"/>
</radialGradient>
<radialGradient id="paint33_radial_4002_4037" cx="0" cy="0" r="1" gradientUnits="userSpaceOnUse" gradientTransform="translate(12.0001 20.1718) rotate(177.216) scale(1.15465 0.797816)">
<stop stop-color="#33262E"/>
<stop offset="1" stop-color="#22142A"/>
</radialGradient>
<radialGradient id="paint34_radial_4002_4037" cx="0" cy="0" r="1" gradientUnits="userSpaceOnUse" gradientTransform="translate(13.1948 20.572) rotate(90) scale(1.05276 1.67453)">
<stop offset="0.80198" stop-color="#785347"/>
<stop offset="1" stop-color="#604239"/>
</radialGradient>
<linearGradient id="paint35_linear_4002_4037" x1="14.16" y1="20.6419" x2="13.7529" y2="20.8927" gradientUnits="userSpaceOnUse">
<stop stop-color="#B4948D"/>
<stop offset="1" stop-color="#B4948D" stop-opacity="0"/>
</linearGradient>
<radialGradient id="paint36_radial_4002_4037" cx="0" cy="0" r="1" gradientUnits="userSpaceOnUse" gradientTransform="translate(12.8232 20.8564) rotate(-90.897) scale(0.641163 0.770704)">
<stop offset="0.765532" stop-color="#FFE6E2" stop-opacity="0"/>
<stop offset="0.966159" stop-color="#FFE6E2"/>
</radialGradient>
<radialGradient id="paint37_radial_4002_4037" cx="0" cy="0" r="1" gradientUnits="userSpaceOnUse" gradientTransform="translate(18.8512 20.572) rotate(90) scale(1.05276 1.67453)">
<stop offset="0.80198" stop-color="#785347"/>
<stop offset="1" stop-color="#604239"/>
</radialGradient>
<linearGradient id="paint38_linear_4002_4037" x1="19.8164" y1="20.6419" x2="19.4092" y2="20.8927" gradientUnits="userSpaceOnUse">
<stop stop-color="#B4948D"/>
<stop offset="1" stop-color="#B4948D" stop-opacity="0"/>
</linearGradient>
<radialGradient id="paint39_radial_4002_4037" cx="0" cy="0" r="1" gradientUnits="userSpaceOnUse" gradientTransform="translate(18.4795 20.8564) rotate(-90.897) scale(0.641163 0.770704)">
<stop offset="0.765532" stop-color="#FFE6E2" stop-opacity="0"/>
<stop offset="0.966159" stop-color="#FFE6E2"/>
</radialGradient>
<linearGradient id="paint40_linear_4002_4037" x1="15.3833" y1="24.0937" x2="15.6646" y2="21.8594" gradientUnits="userSpaceOnUse">
<stop stop-color="#2C1621"/>
<stop offset="1" stop-color="#2C1621" stop-opacity="0"/>
</linearGradient>
<linearGradient id="paint41_linear_4002_4037" x1="15.7634" y1="23.3906" x2="15.7634" y2="21.0312" gradientUnits="userSpaceOnUse">
<stop stop-color="#3A2529"/>
<stop offset="1" stop-color="#3A2529" stop-opacity="0"/>
</linearGradient>
<radialGradient id="paint42_radial_4002_4037" cx="0" cy="0" r="1" gradientUnits="userSpaceOnUse" gradientTransform="translate(16.9688 23.1563) rotate(180) scale(1.39062 1.985)">
<stop stop-color="#4E3333"/>
<stop offset="1" stop-color="#4E3333" stop-opacity="0"/>
</radialGradient>
<radialGradient id="paint43_radial_4002_4037" cx="0" cy="0" r="1" gradientUnits="userSpaceOnUse" gradientTransform="translate(16.1072 21.8281) rotate(90) scale(2.30469 2.35811)">
<stop offset="0.871186" stop-color="#361C2E" stop-opacity="0"/>
<stop offset="1" stop-color="#361C2E"/>
</radialGradient>
<radialGradient id="paint44_radial_4002_4037" cx="0" cy="0" r="1" gradientUnits="userSpaceOnUse" gradientTransform="translate(20 10.8582) rotate(125.112) scale(14.6694 20.6665)">
<stop offset="0.221478" stop-color="#30272B"/>
<stop offset="0.599739" stop-color="#242026"/>
<stop offset="0.844055" stop-color="#1E161E"/>
</radialGradient>
<radialGradient id="paint45_radial_4002_4037" cx="0" cy="0" r="1" gradientUnits="userSpaceOnUse" gradientTransform="translate(7.24999 14.0939) rotate(81.1258) scale(8.5081 2.33285)">
<stop offset="0.33863" stop-color="#433A37"/>
<stop offset="1" stop-color="#433A37" stop-opacity="0"/>
</radialGradient>
<linearGradient id="paint46_linear_4002_4037" x1="19.7969" y1="17.9453" x2="17.6641" y2="17.8906" gradientUnits="userSpaceOnUse">
<stop stop-color="#333334"/>
<stop offset="1" stop-color="#333334" stop-opacity="0"/>
</linearGradient>
<linearGradient id="paint47_linear_4002_4037" x1="13.3544" y1="17.6633" x2="11.2957" y2="18.5491" gradientUnits="userSpaceOnUse">
<stop stop-color="#333334"/>
<stop offset="1" stop-color="#333334" stop-opacity="0"/>
</linearGradient>
<linearGradient id="paint48_linear_4002_4037" x1="9.7187" y1="16.8138" x2="8.31246" y2="7.67322" gradientUnits="userSpaceOnUse">
<stop offset="0.456647" stop-color="#463C3B"/>
<stop offset="1" stop-color="#463C3B" stop-opacity="0"/>
</linearGradient>
<radialGradient id="paint49_radial_4002_4037" cx="0" cy="0" r="1" gradientUnits="userSpaceOnUse" gradientTransform="translate(20.875 15.142) rotate(-83.0023) scale(8.72121 13.9163)">
<stop offset="0.416548" stop-color="#4A4648"/>
<stop offset="1" stop-color="#4C4648" stop-opacity="0"/>
</radialGradient>
<radialGradient id="paint50_radial_4002_4037" cx="0" cy="0" r="1" gradientUnits="userSpaceOnUse" gradientTransform="translate(23.9374 16.3607) rotate(-16.089) scale(1.40954 4.1137)">
<stop offset="0.0735267" stop-color="#4B4949" stop-opacity="0"/>
<stop offset="0.686786" stop-color="#4B4949"/>
<stop offset="1" stop-color="#636162"/>
</radialGradient>
<linearGradient id="paint51_linear_4002_4037" x1="25.9502" y1="16.5443" x2="28.3345" y2="17.8984" gradientUnits="userSpaceOnUse">
<stop stop-color="#4B4749"/>
<stop offset="1" stop-color="#484646"/>
</linearGradient>
<radialGradient id="paint52_radial_4002_4037" cx="0" cy="0" r="1" gradientUnits="userSpaceOnUse" gradientTransform="translate(22.5312 16.2826) rotate(-77.1523) scale(2.74048 1.25546)">
<stop offset="0.327384" stop-color="#4A4648"/>
<stop offset="1" stop-color="#4C4648" stop-opacity="0"/>
</radialGradient>
</defs>
</svg>
