<svg width="32" height="32" viewBox="0 0 32 32" fill="none" xmlns="http://www.w3.org/2000/svg">
<rect x="2" y="2" width="28" height="28" rx="4" fill="url(#paint0_linear_4_918)"/>
<path d="M2 26H30V26C30 28.2091 28.2091 30 26 30H6C3.79086 30 2 28.2091 2 26V26Z" fill="url(#paint1_linear_4_918)"/>
<path d="M6 2L6 30V30C3.79086 30 2 28.2091 2 26L2 6C2 3.79086 3.79086 2 6 2V2Z" fill="url(#paint2_linear_4_918)"/>
<g opacity="0.2" filter="url(#filter0_f_4_918)">
<rect x="5" y="4" width="23" height="1" fill="white"/>
</g>
<g opacity="0.2" filter="url(#filter1_f_4_918)">
<rect x="27" y="4" width="1" height="22" fill="white"/>
</g>
<g opacity="0.6" filter="url(#filter2_f_4_918)">
<circle cx="27" cy="5" r="1" fill="white"/>
</g>
<path fill-rule="evenodd" clip-rule="evenodd" d="M16 24C20.4183 24 24 20.4183 24 16C24 11.5817 20.4183 8 16 8C13.7909 8 12 9.79086 12 12C12 14.2091 13.7909 16 16 16C18.2091 16 20 17.7909 20 20C20 22.2091 18.2091 24 16 24ZM16 26C21.5228 26 26 21.5228 26 16C26 10.4772 21.5228 6 16 6C10.4772 6 6 10.4772 6 16C6 21.5228 10.4772 26 16 26ZM16 22C17.1046 22 18 21.1046 18 20C18 18.8954 17.1046 18 16 18C14.8954 18 14 18.8954 14 20C14 21.1046 14.8954 22 16 22ZM16 14C17.1046 14 18 13.1046 18 12C18 10.8954 17.1046 10 16 10C14.8954 10 14 10.8954 14 12C14 13.1046 14.8954 14 16 14Z" fill="url(#paint3_linear_4_918)"/>
<defs>
<filter id="filter0_f_4_918" x="3" y="2" width="27" height="5" filterUnits="userSpaceOnUse" color-interpolation-filters="sRGB">
<feFlood flood-opacity="0" result="BackgroundImageFix"/>
<feBlend mode="normal" in="SourceGraphic" in2="BackgroundImageFix" result="shape"/>
<feGaussianBlur stdDeviation="1" result="effect1_foregroundBlur_4_918"/>
</filter>
<filter id="filter1_f_4_918" x="25" y="2" width="5" height="26" filterUnits="userSpaceOnUse" color-interpolation-filters="sRGB">
<feFlood flood-opacity="0" result="BackgroundImageFix"/>
<feBlend mode="normal" in="SourceGraphic" in2="BackgroundImageFix" result="shape"/>
<feGaussianBlur stdDeviation="1" result="effect1_foregroundBlur_4_918"/>
</filter>
<filter id="filter2_f_4_918" x="23" y="1" width="8" height="8" filterUnits="userSpaceOnUse" color-interpolation-filters="sRGB">
<feFlood flood-opacity="0" result="BackgroundImageFix"/>
<feBlend mode="normal" in="SourceGraphic" in2="BackgroundImageFix" result="shape"/>
<feGaussianBlur stdDeviation="1.5" result="effect1_foregroundBlur_4_918"/>
</filter>
<linearGradient id="paint0_linear_4_918" x1="30" y1="2" x2="2" y2="30" gradientUnits="userSpaceOnUse">
<stop stop-color="#B690FF"/>
<stop offset="1" stop-color="#5B46A2"/>
</linearGradient>
<linearGradient id="paint1_linear_4_918" x1="19" y1="29" x2="19" y2="26" gradientUnits="userSpaceOnUse">
<stop stop-color="#5936B4"/>
<stop offset="1" stop-color="#6A50AD" stop-opacity="0"/>
</linearGradient>
<linearGradient id="paint2_linear_4_918" x1="3" y1="19" x2="6" y2="19" gradientUnits="userSpaceOnUse">
<stop stop-color="#583EAC"/>
<stop offset="1" stop-color="#6A50AD" stop-opacity="0"/>
</linearGradient>
<linearGradient id="paint3_linear_4_918" x1="5.5" y1="14.5" x2="26" y2="18.5" gradientUnits="userSpaceOnUse">
<stop stop-color="white"/>
<stop offset="0.582948" stop-color="#F2DCF8"/>
</linearGradient>
</defs>
</svg>
