<svg xmlns="http://www.w3.org/2000/svg" width="32" height="32" fill="none"><path fill="#533566" fill-rule="evenodd" d="M11.029 18.753c.5-2.15 2.533-3.753 4.966-3.753 2.433 0 4.466 1.603 4.977 3.753.13.575-.2 1.16-.771 1.405a10.902 10.902 0 0 1-8.401 0c-.58-.245-.901-.83-.771-1.405ZM4 23.05V19c0 .356.186.712.557.886l10.534 4.916a2.18 2.18 0 0 0 1.818 0l10.534-4.916A.962.962 0 0 0 28 19v4.05c0 1.181-.703 2.247-1.818 2.74l-8.871 3.934a3.25 3.25 0 0 1-2.622 0l-8.87-3.933C4.712 25.297 4 24.23 4 23.049Z" clip-rule="evenodd"/><path fill="#635994" d="m4.557 18.114 10.534-4.916a2.18 2.18 0 0 1 1.818 0l10.534 4.916c.743.347.743 1.425 0 1.771l-10.534 4.916a2.18 2.18 0 0 1-1.818 0L4.557 19.887c-.743-.346-.743-1.425 0-1.771Zm6.472.64c-.13.574.19 1.16.77 1.404a10.902 10.902 0 0 0 8.402 0c.57-.245.9-.83.77-1.405-.51-2.15-2.543-3.753-4.976-3.753s-4.465 1.603-4.966 3.753Z"/><path fill="#6B438B" d="M4.133 18.5c.092.16.234.297.424.386l10.534 4.916a2.18 2.18 0 0 0 1.818 0l10.534-4.916a.946.946 0 0 0 .424-.386c.27.465.128 1.128-.424 1.386l-10.534 4.916a2.18 2.18 0 0 1-1.818 0L4.557 19.886c-.552-.258-.694-.92-.424-1.386Z"/><path fill="#D3D3D3" d="M16 6a1 1 0 0 1 1 1v8.25c0 .552-.448.75-1 .75s-1-.198-1-.75V7a1 1 0 0 1 1-1Z"/><path fill="#F8312F" d="M20.68 6.68a4.68 4.68 0 1 1-9.36 0 4.68 4.68 0 0 1 9.36 0ZM6.455 18.76c.14-.64.72-1.13 1.41-1.13s1.27.49 1.42 1.13c.04.17-.06.35-.22.42-.76.34-1.63.34-2.39 0a.366.366 0 0 1-.22-.42Z"/></svg>