<svg width="32" height="32" viewBox="0 0 32 32" fill="none" xmlns="http://www.w3.org/2000/svg">
<g filter="url(#filter0_i_18_10420)">
<rect x="15.8969" y="8.21301" width="2.35938" height="3.53125" rx="1.17969" fill="url(#paint0_radial_18_10420)"/>
<rect x="15.8969" y="8.21301" width="2.35938" height="3.53125" rx="1.17969" fill="url(#paint1_radial_18_10420)"/>
</g>
<g filter="url(#filter1_i_18_10420)">
<path fill-rule="evenodd" clip-rule="evenodd" d="M27.6575 16.3068H7.60022C7.73738 16.2073 7.84841 16.0736 7.9209 15.9169L9.95289 11.5231C10.2474 10.8863 10.885 10.4786 11.5866 10.4786H23.035C23.7642 10.4786 24.4356 10.8755 24.7872 11.5143L27.2515 15.992C27.3387 16.1505 27.4868 16.263 27.6575 16.3068Z" fill="url(#paint2_linear_18_10420)"/>
<path fill-rule="evenodd" clip-rule="evenodd" d="M27.6575 16.3068H7.60022C7.73738 16.2073 7.84841 16.0736 7.9209 15.9169L9.95289 11.5231C10.2474 10.8863 10.885 10.4786 11.5866 10.4786H23.035C23.7642 10.4786 24.4356 10.8755 24.7872 11.5143L27.2515 15.992C27.3387 16.1505 27.4868 16.263 27.6575 16.3068Z" fill="url(#paint3_linear_18_10420)"/>
<path fill-rule="evenodd" clip-rule="evenodd" d="M27.6575 16.3068H7.60022C7.73738 16.2073 7.84841 16.0736 7.9209 15.9169L9.95289 11.5231C10.2474 10.8863 10.885 10.4786 11.5866 10.4786H23.035C23.7642 10.4786 24.4356 10.8755 24.7872 11.5143L27.2515 15.992C27.3387 16.1505 27.4868 16.263 27.6575 16.3068Z" fill="url(#paint4_linear_18_10420)"/>
<path fill-rule="evenodd" clip-rule="evenodd" d="M27.6575 16.3068H7.60022C7.73738 16.2073 7.84841 16.0736 7.9209 15.9169L9.95289 11.5231C10.2474 10.8863 10.885 10.4786 11.5866 10.4786H23.035C23.7642 10.4786 24.4356 10.8755 24.7872 11.5143L27.2515 15.992C27.3387 16.1505 27.4868 16.263 27.6575 16.3068Z" fill="url(#paint5_radial_18_10420)"/>
</g>
<g filter="url(#filter2_iii_18_10420)">
<path d="M7.60022 16.3068C7.51959 16.3652 7.42993 16.4119 7.33374 16.4444L4.27753 17.4783C2.89648 17.9455 1.96704 19.2411 1.96704 20.699V23.8793C1.96704 25.26 3.0863 26.3793 4.46704 26.3793H27.5829C28.9637 26.3793 30.0829 25.26 30.0829 23.8793V18.5916C30.0829 17.3409 29.069 16.3271 27.8184 16.3271C27.7634 16.3271 27.7094 16.3201 27.6575 16.3068H7.60022Z" fill="url(#paint6_linear_18_10420)"/>
</g>
<path d="M7.60022 16.3068C7.51959 16.3652 7.42993 16.4119 7.33374 16.4444L4.27753 17.4783C2.89648 17.9455 1.96704 19.2411 1.96704 20.699V23.8793C1.96704 25.26 3.0863 26.3793 4.46704 26.3793H27.5829C28.9637 26.3793 30.0829 25.26 30.0829 23.8793V18.5916C30.0829 17.3409 29.069 16.3271 27.8184 16.3271C27.7634 16.3271 27.7094 16.3201 27.6575 16.3068H7.60022Z" fill="url(#paint7_linear_18_10420)"/>
<path d="M7.60022 16.3068C7.51959 16.3652 7.42993 16.4119 7.33374 16.4444L4.27753 17.4783C2.89648 17.9455 1.96704 19.2411 1.96704 20.699V23.8793C1.96704 25.26 3.0863 26.3793 4.46704 26.3793H27.5829C28.9637 26.3793 30.0829 25.26 30.0829 23.8793V18.5916C30.0829 17.3409 29.069 16.3271 27.8184 16.3271C27.7634 16.3271 27.7094 16.3201 27.6575 16.3068H7.60022Z" fill="url(#paint8_linear_18_10420)"/>
<path d="M7.60022 16.3068C7.51959 16.3652 7.42993 16.4119 7.33374 16.4444L4.27753 17.4783C2.89648 17.9455 1.96704 19.2411 1.96704 20.699V23.8793C1.96704 25.26 3.0863 26.3793 4.46704 26.3793H27.5829C28.9637 26.3793 30.0829 25.26 30.0829 23.8793V18.5916C30.0829 17.3409 29.069 16.3271 27.8184 16.3271C27.7634 16.3271 27.7094 16.3201 27.6575 16.3068H7.60022Z" fill="url(#paint9_linear_18_10420)"/>
<path d="M7.60022 16.3068C7.51959 16.3652 7.42993 16.4119 7.33374 16.4444L4.27753 17.4783C2.89648 17.9455 1.96704 19.2411 1.96704 20.699V23.8793C1.96704 25.26 3.0863 26.3793 4.46704 26.3793H27.5829C28.9637 26.3793 30.0829 25.26 30.0829 23.8793V18.5916C30.0829 17.3409 29.069 16.3271 27.8184 16.3271C27.7634 16.3271 27.7094 16.3201 27.6575 16.3068H7.60022Z" fill="url(#paint10_linear_18_10420)"/>
<g filter="url(#filter3_f_18_10420)">
<path d="M9.4906 16.2403C9.47203 15.9698 9.66842 15.3163 10.0687 14.8967C10.3613 14.59 10.8482 14.5586 11.2208 14.5976C11.4324 14.6198 11.5813 14.7988 11.5977 15.0073L11.7678 17.1644C11.7842 17.3729 11.6653 17.5731 11.4597 17.6281C11.0978 17.7251 10.6121 17.7703 10.275 17.5133C9.81391 17.1616 9.51465 16.5104 9.4906 16.2403Z" fill="url(#paint11_linear_18_10420)"/>
</g>
<g filter="url(#filter4_i_18_10420)">
<path d="M7.65674 16.2626C7.74994 16.2913 7.84894 16.3068 7.95154 16.3068H14.9984C15.5507 16.3068 15.9984 15.859 15.9984 15.3068V12.8068C15.9984 12.2545 15.5507 11.8068 14.9984 11.8068H9.82172L7.9209 15.9169C7.85864 16.0515 7.76794 16.1691 7.65674 16.2626Z" fill="url(#paint12_linear_18_10420)"/>
<path d="M7.65674 16.2626C7.74994 16.2913 7.84894 16.3068 7.95154 16.3068H14.9984C15.5507 16.3068 15.9984 15.859 15.9984 15.3068V12.8068C15.9984 12.2545 15.5507 11.8068 14.9984 11.8068H9.82172L7.9209 15.9169C7.85864 16.0515 7.76794 16.1691 7.65674 16.2626Z" fill="url(#paint13_linear_18_10420)"/>
</g>
<path d="M24.9481 11.8068L27.2515 15.992C27.3387 16.1505 27.4868 16.263 27.6575 16.3068H18.9828C18.4305 16.3068 17.9828 15.859 17.9828 15.3068V12.8068C17.9828 12.2545 18.4305 11.8068 18.9828 11.8068H24.9481Z" fill="url(#paint14_radial_18_10420)"/>
<path d="M24.9481 11.8068L27.2515 15.992C27.3387 16.1505 27.4868 16.263 27.6575 16.3068H18.9828C18.4305 16.3068 17.9828 15.859 17.9828 15.3068V12.8068C17.9828 12.2545 18.4305 11.8068 18.9828 11.8068H24.9481Z" fill="url(#paint15_linear_18_10420)"/>
<path d="M24.9481 11.8068L27.2515 15.992C27.3387 16.1505 27.4868 16.263 27.6575 16.3068H18.9828C18.4305 16.3068 17.9828 15.859 17.9828 15.3068V12.8068C17.9828 12.2545 18.4305 11.8068 18.9828 11.8068H24.9481Z" fill="url(#paint16_linear_18_10420)"/>
<path d="M24.9481 11.8068L27.2515 15.992C27.3387 16.1505 27.4868 16.263 27.6575 16.3068H18.9828C18.4305 16.3068 17.9828 15.859 17.9828 15.3068V12.8068C17.9828 12.2545 18.4305 11.8068 18.9828 11.8068H24.9481Z" fill="url(#paint17_radial_18_10420)"/>
<path d="M24.9481 11.8068L27.2515 15.992C27.3387 16.1505 27.4868 16.263 27.6575 16.3068H18.9828C18.4305 16.3068 17.9828 15.859 17.9828 15.3068V12.8068C17.9828 12.2545 18.4305 11.8068 18.9828 11.8068H24.9481Z" fill="url(#paint18_linear_18_10420)"/>
<g filter="url(#filter5_f_18_10420)">
<path d="M29.9291 20.463V23.4708H29.3651C28.6013 23.4708 27.9822 22.791 27.9822 21.9669C27.9822 21.1428 28.6013 20.463 29.3651 20.463H29.9291Z" stroke="url(#paint19_linear_18_10420)" stroke-width="0.2"/>
</g>
<path d="M30.0829 20.463V23.4708H29.4744C28.6503 23.4708 27.9822 22.791 27.9822 21.9669C27.9822 21.1428 28.6503 20.463 29.4744 20.463H30.0829Z" fill="url(#paint20_linear_18_10420)"/>
<g filter="url(#filter6_f_18_10420)">
<path d="M2.17029 23.5227V20.7743C2.17029 20.6951 2.17272 20.6164 2.17764 20.5383H3.38375C3.78364 20.5383 4.10779 20.8965 4.10779 21.3383V22.7227C4.10779 23.1645 3.78364 23.5227 3.38375 23.5227H2.17029Z" stroke="url(#paint21_linear_18_10420)" stroke-width="0.2"/>
</g>
<path d="M1.96704 23.5227V20.7743C1.96704 20.6951 1.96973 20.6164 1.97516 20.5383H3.3078C3.74963 20.5383 4.10779 20.8965 4.10779 21.3383V22.7227C4.10779 23.1645 3.74963 23.5227 3.3078 23.5227H1.96704Z" fill="url(#paint22_radial_18_10420)"/>
<path d="M1.96704 23.5227V20.7743C1.96704 20.6951 1.96973 20.6164 1.97516 20.5383H3.3078C3.74963 20.5383 4.10779 20.8965 4.10779 21.3383V22.7227C4.10779 23.1645 3.74963 23.5227 3.3078 23.5227H1.96704Z" fill="url(#paint23_linear_18_10420)"/>
<rect x="12.0375" y="18.429" width="2.02231" height="2.02231" fill="url(#paint24_linear_18_10420)"/>
<rect x="14.0598" y="20.4513" width="2.02231" height="2.02231" fill="url(#paint25_linear_18_10420)"/>
<rect x="16.0822" y="18.429" width="2.02231" height="2.02231" fill="url(#paint26_linear_18_10420)"/>
<rect x="18.1045" y="20.4513" width="2.02231" height="2.02231" fill="url(#paint27_linear_18_10420)"/>
<rect x="20.1268" y="18.429" width="2.02231" height="2.02231" fill="url(#paint28_linear_18_10420)"/>
<g filter="url(#filter7_i_18_10420)">
<path d="M9.95935 16.0521C9.9621 15.7809 10.0352 15.1266 10.4672 14.7398C10.783 14.457 11.2708 14.464 11.6392 14.5321C11.8484 14.5709 11.9828 14.761 11.9828 14.9702V17.134C11.9828 17.3432 11.8484 17.5333 11.6392 17.5721C11.2708 17.6403 10.783 17.6472 10.4672 17.3644C10.0352 16.9776 9.9621 16.3233 9.95935 16.0521Z" fill="url(#paint29_radial_18_10420)"/>
<path d="M9.95935 16.0521C9.9621 15.7809 10.0352 15.1266 10.4672 14.7398C10.783 14.457 11.2708 14.464 11.6392 14.5321C11.8484 14.5709 11.9828 14.761 11.9828 14.9702V17.134C11.9828 17.3432 11.8484 17.5333 11.6392 17.5721C11.2708 17.6403 10.783 17.6472 10.4672 17.3644C10.0352 16.9776 9.9621 16.3233 9.95935 16.0521Z" fill="url(#paint30_radial_18_10420)"/>
<path d="M9.95935 16.0521C9.9621 15.7809 10.0352 15.1266 10.4672 14.7398C10.783 14.457 11.2708 14.464 11.6392 14.5321C11.8484 14.5709 11.9828 14.761 11.9828 14.9702V17.134C11.9828 17.3432 11.8484 17.5333 11.6392 17.5721C11.2708 17.6403 10.783 17.6472 10.4672 17.3644C10.0352 16.9776 9.9621 16.3233 9.95935 16.0521Z" fill="url(#paint31_radial_18_10420)"/>
</g>
<path d="M12.4426 26.3793H4.67474C4.65857 26.2348 4.65021 26.0879 4.65021 25.939C4.65021 23.7804 6.40009 22.0305 8.55872 22.0305C10.7173 22.0305 12.4672 23.7804 12.4672 25.939C12.4672 26.0879 12.4588 26.2348 12.4426 26.3793Z" fill="url(#paint32_linear_18_10420)"/>
<path d="M27.4611 26.3793H19.6932C19.6771 26.2348 19.6687 26.0879 19.6687 25.939C19.6687 23.7804 21.4186 22.0305 23.5772 22.0305C25.7358 22.0305 27.4857 23.7804 27.4857 25.939C27.4857 26.0879 27.4773 26.2348 27.4611 26.3793Z" fill="url(#paint33_linear_18_10420)"/>
<g filter="url(#filter8_ii_18_10420)">
<circle cx="8.55869" cy="25.939" r="3.47098" fill="url(#paint34_linear_18_10420)"/>
<circle cx="8.55869" cy="25.939" r="3.47098" fill="url(#paint35_radial_18_10420)"/>
</g>
<g filter="url(#filter9_f_18_10420)">
<circle cx="8.74841" cy="25.7493" r="2.40625" stroke="url(#paint36_linear_18_10420)" stroke-width="0.85"/>
</g>
<g filter="url(#filter10_ii_18_10420)">
<circle cx="23.5772" cy="25.939" r="3.47098" fill="url(#paint37_linear_18_10420)"/>
<circle cx="23.5772" cy="25.939" r="3.47098" fill="url(#paint38_radial_18_10420)"/>
</g>
<g filter="url(#filter11_f_18_10420)">
<circle cx="23.7647" cy="25.7493" r="2.40625" stroke="url(#paint39_linear_18_10420)" stroke-width="0.85"/>
</g>
<g filter="url(#filter12_ii_18_10420)">
<circle cx="8.5587" cy="25.939" r="1.28069" fill="url(#paint40_linear_18_10420)"/>
</g>
<g filter="url(#filter13_ii_18_10420)">
<circle cx="23.5772" cy="25.939" r="1.28069" fill="url(#paint41_linear_18_10420)"/>
</g>
<defs>
<filter id="filter0_i_18_10420" x="15.8969" y="8.21301" width="2.55938" height="3.53125" filterUnits="userSpaceOnUse" color-interpolation-filters="sRGB">
<feFlood flood-opacity="0" result="BackgroundImageFix"/>
<feBlend mode="normal" in="SourceGraphic" in2="BackgroundImageFix" result="shape"/>
<feColorMatrix in="SourceAlpha" type="matrix" values="0 0 0 0 0 0 0 0 0 0 0 0 0 0 0 0 0 0 127 0" result="hardAlpha"/>
<feOffset dx="0.2"/>
<feGaussianBlur stdDeviation="0.375"/>
<feComposite in2="hardAlpha" operator="arithmetic" k2="-1" k3="1"/>
<feColorMatrix type="matrix" values="0 0 0 0 0.572549 0 0 0 0 0.517647 0 0 0 0 0.447059 0 0 0 1 0"/>
<feBlend mode="normal" in2="shape" result="effect1_innerShadow_18_10420"/>
</filter>
<filter id="filter1_i_18_10420" x="7.60022" y="10.4786" width="20.0573" height="6.07812" filterUnits="userSpaceOnUse" color-interpolation-filters="sRGB">
<feFlood flood-opacity="0" result="BackgroundImageFix"/>
<feBlend mode="normal" in="SourceGraphic" in2="BackgroundImageFix" result="shape"/>
<feColorMatrix in="SourceAlpha" type="matrix" values="0 0 0 0 0 0 0 0 0 0 0 0 0 0 0 0 0 0 127 0" result="hardAlpha"/>
<feOffset dy="0.25"/>
<feGaussianBlur stdDeviation="0.125"/>
<feComposite in2="hardAlpha" operator="arithmetic" k2="-1" k3="1"/>
<feColorMatrix type="matrix" values="0 0 0 0 0.921569 0 0 0 0 0.729412 0 0 0 0 0.243137 0 0 0 1 0"/>
<feBlend mode="normal" in2="shape" result="effect1_innerShadow_18_10420"/>
</filter>
<filter id="filter2_iii_18_10420" x="1.96704" y="16.3068" width="28.6159" height="11.0726" filterUnits="userSpaceOnUse" color-interpolation-filters="sRGB">
<feFlood flood-opacity="0" result="BackgroundImageFix"/>
<feBlend mode="normal" in="SourceGraphic" in2="BackgroundImageFix" result="shape"/>
<feColorMatrix in="SourceAlpha" type="matrix" values="0 0 0 0 0 0 0 0 0 0 0 0 0 0 0 0 0 0 127 0" result="hardAlpha"/>
<feOffset dx="0.5"/>
<feGaussianBlur stdDeviation="1"/>
<feComposite in2="hardAlpha" operator="arithmetic" k2="-1" k3="1"/>
<feColorMatrix type="matrix" values="0 0 0 0 0.764706 0 0 0 0 0.611765 0 0 0 0 0.356863 0 0 0 1 0"/>
<feBlend mode="normal" in2="shape" result="effect1_innerShadow_18_10420"/>
<feColorMatrix in="SourceAlpha" type="matrix" values="0 0 0 0 0 0 0 0 0 0 0 0 0 0 0 0 0 0 127 0" result="hardAlpha"/>
<feOffset dy="2"/>
<feGaussianBlur stdDeviation="0.5"/>
<feComposite in2="hardAlpha" operator="arithmetic" k2="-1" k3="1"/>
<feColorMatrix type="matrix" values="0 0 0 0 1 0 0 0 0 0.831373 0 0 0 0 0.27451 0 0 0 1 0"/>
<feBlend mode="normal" in2="effect1_innerShadow_18_10420" result="effect2_innerShadow_18_10420"/>
<feColorMatrix in="SourceAlpha" type="matrix" values="0 0 0 0 0 0 0 0 0 0 0 0 0 0 0 0 0 0 127 0" result="hardAlpha"/>
<feOffset dy="0.15"/>
<feGaussianBlur stdDeviation="0.25"/>
<feComposite in2="hardAlpha" operator="arithmetic" k2="-1" k3="1"/>
<feColorMatrix type="matrix" values="0 0 0 0 0.945098 0 0 0 0 0.74902 0 0 0 0 0.25098 0 0 0 1 0"/>
<feBlend mode="normal" in2="effect2_innerShadow_18_10420" result="effect3_innerShadow_18_10420"/>
</filter>
<filter id="filter3_f_18_10420" x="9.18938" y="14.2842" width="2.87997" height="3.72054" filterUnits="userSpaceOnUse" color-interpolation-filters="sRGB">
<feFlood flood-opacity="0" result="BackgroundImageFix"/>
<feBlend mode="normal" in="SourceGraphic" in2="BackgroundImageFix" result="shape"/>
<feGaussianBlur stdDeviation="0.15" result="effect1_foregroundBlur_18_10420"/>
</filter>
<filter id="filter4_i_18_10420" x="7.15674" y="11.8068" width="8.84167" height="5.1" filterUnits="userSpaceOnUse" color-interpolation-filters="sRGB">
<feFlood flood-opacity="0" result="BackgroundImageFix"/>
<feBlend mode="normal" in="SourceGraphic" in2="BackgroundImageFix" result="shape"/>
<feColorMatrix in="SourceAlpha" type="matrix" values="0 0 0 0 0 0 0 0 0 0 0 0 0 0 0 0 0 0 127 0" result="hardAlpha"/>
<feOffset dx="-0.5" dy="0.65"/>
<feGaussianBlur stdDeviation="0.3"/>
<feComposite in2="hardAlpha" operator="arithmetic" k2="-1" k3="1"/>
<feColorMatrix type="matrix" values="0 0 0 0 0.211765 0 0 0 0 0.521569 0 0 0 0 0.87451 0 0 0 1 0"/>
<feBlend mode="normal" in2="shape" result="effect1_innerShadow_18_10420"/>
</filter>
<filter id="filter5_f_18_10420" x="27.6822" y="20.163" width="2.54691" height="3.60776" filterUnits="userSpaceOnUse" color-interpolation-filters="sRGB">
<feFlood flood-opacity="0" result="BackgroundImageFix"/>
<feBlend mode="normal" in="SourceGraphic" in2="BackgroundImageFix" result="shape"/>
<feGaussianBlur stdDeviation="0.1" result="effect1_foregroundBlur_18_10420"/>
</filter>
<filter id="filter6_f_18_10420" x="1.87031" y="20.2384" width="2.53745" height="3.58433" filterUnits="userSpaceOnUse" color-interpolation-filters="sRGB">
<feFlood flood-opacity="0" result="BackgroundImageFix"/>
<feBlend mode="normal" in="SourceGraphic" in2="BackgroundImageFix" result="shape"/>
<feGaussianBlur stdDeviation="0.1" result="effect1_foregroundBlur_18_10420"/>
</filter>
<filter id="filter7_i_18_10420" x="9.95935" y="14.2428" width="2.27344" height="3.36859" filterUnits="userSpaceOnUse" color-interpolation-filters="sRGB">
<feFlood flood-opacity="0" result="BackgroundImageFix"/>
<feBlend mode="normal" in="SourceGraphic" in2="BackgroundImageFix" result="shape"/>
<feColorMatrix in="SourceAlpha" type="matrix" values="0 0 0 0 0 0 0 0 0 0 0 0 0 0 0 0 0 0 127 0" result="hardAlpha"/>
<feOffset dx="0.25" dy="-0.25"/>
<feGaussianBlur stdDeviation="0.25"/>
<feComposite in2="hardAlpha" operator="arithmetic" k2="-1" k3="1"/>
<feColorMatrix type="matrix" values="0 0 0 0 0.85098 0 0 0 0 0.666667 0 0 0 0 0.247059 0 0 0 1 0"/>
<feBlend mode="normal" in2="shape" result="effect1_innerShadow_18_10420"/>
</filter>
<filter id="filter8_ii_18_10420" x="5.08771" y="22.468" width="6.94196" height="7.09196" filterUnits="userSpaceOnUse" color-interpolation-filters="sRGB">
<feFlood flood-opacity="0" result="BackgroundImageFix"/>
<feBlend mode="normal" in="SourceGraphic" in2="BackgroundImageFix" result="shape"/>
<feColorMatrix in="SourceAlpha" type="matrix" values="0 0 0 0 0 0 0 0 0 0 0 0 0 0 0 0 0 0 127 0" result="hardAlpha"/>
<feOffset/>
<feGaussianBlur stdDeviation="0.5"/>
<feComposite in2="hardAlpha" operator="arithmetic" k2="-1" k3="1"/>
<feColorMatrix type="matrix" values="0 0 0 0 0.145098 0 0 0 0 0.0823529 0 0 0 0 0.215686 0 0 0 1 0"/>
<feBlend mode="normal" in2="shape" result="effect1_innerShadow_18_10420"/>
<feColorMatrix in="SourceAlpha" type="matrix" values="0 0 0 0 0 0 0 0 0 0 0 0 0 0 0 0 0 0 127 0" result="hardAlpha"/>
<feOffset dy="0.15"/>
<feGaussianBlur stdDeviation="0.125"/>
<feComposite in2="hardAlpha" operator="arithmetic" k2="-1" k3="1"/>
<feColorMatrix type="matrix" values="0 0 0 0 0.207843 0 0 0 0 0.0313726 0 0 0 0 0.235294 0 0 0 1 0"/>
<feBlend mode="normal" in2="effect1_innerShadow_18_10420" result="effect2_innerShadow_18_10420"/>
</filter>
<filter id="filter9_f_18_10420" x="5.16718" y="22.168" width="7.16248" height="7.16248" filterUnits="userSpaceOnUse" color-interpolation-filters="sRGB">
<feFlood flood-opacity="0" result="BackgroundImageFix"/>
<feBlend mode="normal" in="SourceGraphic" in2="BackgroundImageFix" result="shape"/>
<feGaussianBlur stdDeviation="0.375" result="effect1_foregroundBlur_18_10420"/>
</filter>
<filter id="filter10_ii_18_10420" x="20.1062" y="22.468" width="6.94196" height="7.09196" filterUnits="userSpaceOnUse" color-interpolation-filters="sRGB">
<feFlood flood-opacity="0" result="BackgroundImageFix"/>
<feBlend mode="normal" in="SourceGraphic" in2="BackgroundImageFix" result="shape"/>
<feColorMatrix in="SourceAlpha" type="matrix" values="0 0 0 0 0 0 0 0 0 0 0 0 0 0 0 0 0 0 127 0" result="hardAlpha"/>
<feOffset/>
<feGaussianBlur stdDeviation="0.5"/>
<feComposite in2="hardAlpha" operator="arithmetic" k2="-1" k3="1"/>
<feColorMatrix type="matrix" values="0 0 0 0 0.145098 0 0 0 0 0.0823529 0 0 0 0 0.215686 0 0 0 1 0"/>
<feBlend mode="normal" in2="shape" result="effect1_innerShadow_18_10420"/>
<feColorMatrix in="SourceAlpha" type="matrix" values="0 0 0 0 0 0 0 0 0 0 0 0 0 0 0 0 0 0 127 0" result="hardAlpha"/>
<feOffset dy="0.15"/>
<feGaussianBlur stdDeviation="0.125"/>
<feComposite in2="hardAlpha" operator="arithmetic" k2="-1" k3="1"/>
<feColorMatrix type="matrix" values="0 0 0 0 0.207843 0 0 0 0 0.0313726 0 0 0 0 0.235294 0 0 0 1 0"/>
<feBlend mode="normal" in2="effect1_innerShadow_18_10420" result="effect2_innerShadow_18_10420"/>
</filter>
<filter id="filter11_f_18_10420" x="20.1835" y="22.168" width="7.16248" height="7.16248" filterUnits="userSpaceOnUse" color-interpolation-filters="sRGB">
<feFlood flood-opacity="0" result="BackgroundImageFix"/>
<feBlend mode="normal" in="SourceGraphic" in2="BackgroundImageFix" result="shape"/>
<feGaussianBlur stdDeviation="0.375" result="effect1_foregroundBlur_18_10420"/>
</filter>
<filter id="filter12_ii_18_10420" x="7.22802" y="24.6083" width="2.6614" height="2.6614" filterUnits="userSpaceOnUse" color-interpolation-filters="sRGB">
<feFlood flood-opacity="0" result="BackgroundImageFix"/>
<feBlend mode="normal" in="SourceGraphic" in2="BackgroundImageFix" result="shape"/>
<feColorMatrix in="SourceAlpha" type="matrix" values="0 0 0 0 0 0 0 0 0 0 0 0 0 0 0 0 0 0 127 0" result="hardAlpha"/>
<feOffset dx="0.05" dy="-0.05"/>
<feGaussianBlur stdDeviation="0.05"/>
<feComposite in2="hardAlpha" operator="arithmetic" k2="-1" k3="1"/>
<feColorMatrix type="matrix" values="0 0 0 0 0.478431 0 0 0 0 0.364706 0 0 0 0 0.584314 0 0 0 1 0"/>
<feBlend mode="normal" in2="shape" result="effect1_innerShadow_18_10420"/>
<feColorMatrix in="SourceAlpha" type="matrix" values="0 0 0 0 0 0 0 0 0 0 0 0 0 0 0 0 0 0 127 0" result="hardAlpha"/>
<feOffset dx="-0.05" dy="0.05"/>
<feGaussianBlur stdDeviation="0.05"/>
<feComposite in2="hardAlpha" operator="arithmetic" k2="-1" k3="1"/>
<feColorMatrix type="matrix" values="0 0 0 0 0.807843 0 0 0 0 0.764706 0 0 0 0 0.858824 0 0 0 1 0"/>
<feBlend mode="normal" in2="effect1_innerShadow_18_10420" result="effect2_innerShadow_18_10420"/>
</filter>
<filter id="filter13_ii_18_10420" x="22.2465" y="24.6083" width="2.6614" height="2.6614" filterUnits="userSpaceOnUse" color-interpolation-filters="sRGB">
<feFlood flood-opacity="0" result="BackgroundImageFix"/>
<feBlend mode="normal" in="SourceGraphic" in2="BackgroundImageFix" result="shape"/>
<feColorMatrix in="SourceAlpha" type="matrix" values="0 0 0 0 0 0 0 0 0 0 0 0 0 0 0 0 0 0 127 0" result="hardAlpha"/>
<feOffset dx="0.05" dy="-0.05"/>
<feGaussianBlur stdDeviation="0.05"/>
<feComposite in2="hardAlpha" operator="arithmetic" k2="-1" k3="1"/>
<feColorMatrix type="matrix" values="0 0 0 0 0.478431 0 0 0 0 0.364706 0 0 0 0 0.584314 0 0 0 1 0"/>
<feBlend mode="normal" in2="shape" result="effect1_innerShadow_18_10420"/>
<feColorMatrix in="SourceAlpha" type="matrix" values="0 0 0 0 0 0 0 0 0 0 0 0 0 0 0 0 0 0 127 0" result="hardAlpha"/>
<feOffset dx="-0.05" dy="0.05"/>
<feGaussianBlur stdDeviation="0.05"/>
<feComposite in2="hardAlpha" operator="arithmetic" k2="-1" k3="1"/>
<feColorMatrix type="matrix" values="0 0 0 0 0.807843 0 0 0 0 0.764706 0 0 0 0 0.858824 0 0 0 1 0"/>
<feBlend mode="normal" in2="effect1_innerShadow_18_10420" result="effect2_innerShadow_18_10420"/>
</filter>
<radialGradient id="paint0_radial_18_10420" cx="0" cy="0" r="1" gradientUnits="userSpaceOnUse" gradientTransform="translate(17.3647 10.6632) rotate(-90) scale(3.24381 1.87732)">
<stop stop-color="#ECDED0"/>
<stop offset="1" stop-color="#C7BECB"/>
</radialGradient>
<radialGradient id="paint1_radial_18_10420" cx="0" cy="0" r="1" gradientUnits="userSpaceOnUse" gradientTransform="translate(17.5957 8.21301) rotate(117.326) scale(1.46686 1.28426)">
<stop offset="0.409008" stop-color="#ECE8EF"/>
<stop offset="1" stop-color="#ECE8EF" stop-opacity="0"/>
</radialGradient>
<linearGradient id="paint2_linear_18_10420" x1="10.7882" y1="14.1221" x2="24.8734" y2="14.1221" gradientUnits="userSpaceOnUse">
<stop stop-color="#FFDA56"/>
<stop offset="1" stop-color="#FFD854"/>
</linearGradient>
<linearGradient id="paint3_linear_18_10420" x1="16.1859" y1="16.7599" x2="16.1859" y2="12.5099" gradientUnits="userSpaceOnUse">
<stop stop-color="#FFDE4B"/>
<stop offset="1" stop-color="#FFDE4B" stop-opacity="0"/>
</linearGradient>
<linearGradient id="paint4_linear_18_10420" x1="9.27966" y1="12.2599" x2="10.9359" y2="13.0411" gradientUnits="userSpaceOnUse">
<stop stop-color="#CEA549"/>
<stop offset="1" stop-color="#CEA549" stop-opacity="0"/>
</linearGradient>
<radialGradient id="paint5_radial_18_10420" cx="0" cy="0" r="1" gradientUnits="userSpaceOnUse" gradientTransform="translate(24.379 12.1382) rotate(-127.921) scale(1.58915 1.10204)">
<stop stop-color="#FFEB7F"/>
<stop offset="1" stop-color="#FFEB7F" stop-opacity="0"/>
</radialGradient>
<linearGradient id="paint6_linear_18_10420" x1="6.43591" y1="22.6036" x2="30.0829" y2="22.6036" gradientUnits="userSpaceOnUse">
<stop stop-color="#FFC25A"/>
<stop offset="1" stop-color="#FFBE59"/>
</linearGradient>
<linearGradient id="paint7_linear_18_10420" x1="16.025" y1="26.5312" x2="16.025" y2="23.77" gradientUnits="userSpaceOnUse">
<stop stop-color="#D26261"/>
<stop offset="1" stop-color="#D26261" stop-opacity="0"/>
</linearGradient>
<linearGradient id="paint8_linear_18_10420" x1="16.025" y1="26.6974" x2="16.025" y2="25.8224" gradientUnits="userSpaceOnUse">
<stop stop-color="#C76194"/>
<stop offset="1" stop-color="#C76194" stop-opacity="0"/>
</linearGradient>
<linearGradient id="paint9_linear_18_10420" x1="30.8779" y1="21.805" x2="29.4944" y2="21.805" gradientUnits="userSpaceOnUse">
<stop stop-color="#B8813E"/>
<stop offset="1" stop-color="#B8813E" stop-opacity="0"/>
</linearGradient>
<linearGradient id="paint10_linear_18_10420" x1="1.49547" y1="22.9701" x2="3.02467" y2="22.9701" gradientUnits="userSpaceOnUse">
<stop stop-color="#C49D5A"/>
<stop offset="1" stop-color="#C49D5A" stop-opacity="0"/>
</linearGradient>
<linearGradient id="paint11_linear_18_10420" x1="11.2144" y1="17.7994" x2="10.1356" y2="16.02" gradientUnits="userSpaceOnUse">
<stop stop-color="#D36C10"/>
<stop offset="0.636423" stop-color="#C78C36"/>
<stop offset="1" stop-color="#C78C36" stop-opacity="0"/>
</linearGradient>
<linearGradient id="paint12_linear_18_10420" x1="14.9672" y1="15.0411" x2="9.46716" y2="15.0411" gradientUnits="userSpaceOnUse">
<stop stop-color="#6BE2FF"/>
<stop offset="1" stop-color="#66C8FF"/>
</linearGradient>
<linearGradient id="paint13_linear_18_10420" x1="8.74841" y1="13.8849" x2="9.00232" y2="13.9982" gradientUnits="userSpaceOnUse">
<stop stop-color="#419FDC"/>
<stop offset="1" stop-color="#419FDC" stop-opacity="0"/>
</linearGradient>
<radialGradient id="paint14_radial_18_10420" cx="0" cy="0" r="1" gradientUnits="userSpaceOnUse" gradientTransform="translate(17.9828 16.7911) rotate(-36.2624) scale(5.60031 6.37431)">
<stop stop-color="#6EFDFF"/>
<stop offset="1" stop-color="#64C5FF"/>
</radialGradient>
<linearGradient id="paint15_linear_18_10420" x1="17.9828" y1="14.3887" x2="18.3372" y2="14.3887" gradientUnits="userSpaceOnUse">
<stop stop-color="#82F4FF"/>
<stop offset="1" stop-color="#82F4FF" stop-opacity="0"/>
</linearGradient>
<linearGradient id="paint16_linear_18_10420" x1="22.8202" y1="11.8068" x2="22.8202" y2="12.7221" gradientUnits="userSpaceOnUse">
<stop stop-color="#2468DA"/>
<stop offset="1" stop-color="#2468DA" stop-opacity="0"/>
</linearGradient>
<radialGradient id="paint17_radial_18_10420" cx="0" cy="0" r="1" gradientUnits="userSpaceOnUse" gradientTransform="translate(25.9864 11.8068) rotate(133.818) scale(2.50855 0.890631)">
<stop offset="0.690764" stop-color="#63C3FF"/>
<stop offset="1" stop-color="#63C3FF" stop-opacity="0"/>
</radialGradient>
<linearGradient id="paint18_linear_18_10420" x1="26.4259" y1="14.4532" x2="26.2797" y2="14.5333" gradientUnits="userSpaceOnUse">
<stop offset="0.168788" stop-color="#88DBFF"/>
<stop offset="1" stop-color="#88DBFF" stop-opacity="0"/>
</linearGradient>
<linearGradient id="paint19_linear_18_10420" x1="28.9556" y1="20.463" x2="28.9556" y2="23.4708" gradientUnits="userSpaceOnUse">
<stop stop-color="#F2A925"/>
<stop offset="1" stop-color="#FFD85A"/>
</linearGradient>
<linearGradient id="paint20_linear_18_10420" x1="28.8422" y1="20.3849" x2="30.4828" y2="23.3224" gradientUnits="userSpaceOnUse">
<stop offset="0.120499" stop-color="#E31C3A"/>
<stop offset="0.395025" stop-color="#FC4656"/>
<stop offset="1" stop-color="#FF4C5A"/>
</linearGradient>
<linearGradient id="paint21_linear_18_10420" x1="3.13904" y1="20.5383" x2="3.13904" y2="23.5227" gradientUnits="userSpaceOnUse">
<stop stop-color="#E8A04E"/>
<stop offset="1" stop-color="#F5BA41"/>
</linearGradient>
<radialGradient id="paint22_radial_18_10420" cx="0" cy="0" r="1" gradientUnits="userSpaceOnUse" gradientTransform="translate(2.31479 22.8001) scale(2.49612 1.79052)">
<stop stop-color="white"/>
<stop offset="1" stop-color="#F0D0F9"/>
</radialGradient>
<linearGradient id="paint23_linear_18_10420" x1="4.37341" y1="22.8821" x2="3.51404" y2="22.8821" gradientUnits="userSpaceOnUse">
<stop stop-color="#E6DBDC"/>
<stop offset="1" stop-color="#E6DBDC" stop-opacity="0"/>
</linearGradient>
<linearGradient id="paint24_linear_18_10420" x1="12.0375" y1="19.64" x2="14.0598" y2="19.64" gradientUnits="userSpaceOnUse">
<stop stop-color="#4C336B"/>
<stop offset="1" stop-color="#3E2F4F"/>
</linearGradient>
<linearGradient id="paint25_linear_18_10420" x1="14.0598" y1="21.6623" x2="16.0821" y2="21.6623" gradientUnits="userSpaceOnUse">
<stop stop-color="#4C336B"/>
<stop offset="1" stop-color="#3E2F4F"/>
</linearGradient>
<linearGradient id="paint26_linear_18_10420" x1="16.0822" y1="19.64" x2="18.1045" y2="19.64" gradientUnits="userSpaceOnUse">
<stop stop-color="#4C336B"/>
<stop offset="1" stop-color="#3E2F4F"/>
</linearGradient>
<linearGradient id="paint27_linear_18_10420" x1="18.1045" y1="21.6623" x2="20.1268" y2="21.6623" gradientUnits="userSpaceOnUse">
<stop stop-color="#4C336B"/>
<stop offset="1" stop-color="#3E2F4F"/>
</linearGradient>
<linearGradient id="paint28_linear_18_10420" x1="20.1268" y1="19.64" x2="22.1491" y2="19.64" gradientUnits="userSpaceOnUse">
<stop stop-color="#4C336B"/>
<stop offset="1" stop-color="#3E2F4F"/>
</linearGradient>
<radialGradient id="paint29_radial_18_10420" cx="0" cy="0" r="1" gradientUnits="userSpaceOnUse" gradientTransform="translate(11.7083 15.3604) rotate(90.434) scale(2.4031 0.73729)">
<stop stop-color="#FFFF7C"/>
<stop offset="0.65802" stop-color="#F6C142"/>
</radialGradient>
<radialGradient id="paint30_radial_18_10420" cx="0" cy="0" r="1" gradientUnits="userSpaceOnUse" gradientTransform="translate(11.634 17.9058) rotate(-118.426) scale(1.86284 2.03358)">
<stop stop-color="#EB9948"/>
<stop offset="1" stop-color="#EB9948" stop-opacity="0"/>
</radialGradient>
<radialGradient id="paint31_radial_18_10420" cx="0" cy="0" r="1" gradientUnits="userSpaceOnUse" gradientTransform="translate(12.0699 14.3889) rotate(110.556) scale(2.43987 2.3323)">
<stop stop-color="#FFEC3F"/>
<stop offset="1" stop-color="#FFEC3F" stop-opacity="0"/>
</radialGradient>
<linearGradient id="paint32_linear_18_10420" x1="10.2299" y1="22.0305" x2="8.94867" y2="26.0411" gradientUnits="userSpaceOnUse">
<stop stop-color="#743515"/>
<stop offset="1" stop-color="#8A5424"/>
</linearGradient>
<linearGradient id="paint33_linear_18_10420" x1="25.2484" y1="22.0305" x2="23.9672" y2="26.0411" gradientUnits="userSpaceOnUse">
<stop stop-color="#743515"/>
<stop offset="1" stop-color="#8A5424"/>
</linearGradient>
<linearGradient id="paint34_linear_18_10420" x1="6.95816" y1="25.0662" x2="12.1717" y2="25.0662" gradientUnits="userSpaceOnUse">
<stop offset="0.239044" stop-color="#34214F"/>
<stop offset="1" stop-color="#241337"/>
</linearGradient>
<radialGradient id="paint35_radial_18_10420" cx="0" cy="0" r="1" gradientUnits="userSpaceOnUse" gradientTransform="translate(8.55869 25.6284) rotate(-65.5366) scale(1.89386 1.97807)">
<stop offset="0.523134" stop-color="#2D114D"/>
<stop offset="1" stop-color="#2B1249" stop-opacity="0"/>
</radialGradient>
<linearGradient id="paint36_linear_18_10420" x1="11.271" y1="24.7806" x2="6.91585" y2="27.6269" gradientUnits="userSpaceOnUse">
<stop offset="0.0830122" stop-color="#615B6B"/>
<stop offset="0.390771" stop-color="#615B6B" stop-opacity="0"/>
<stop offset="0.692394" stop-color="#615B6B" stop-opacity="0"/>
<stop offset="0.934982" stop-color="#615B6B"/>
</linearGradient>
<linearGradient id="paint37_linear_18_10420" x1="21.9767" y1="25.0662" x2="27.1902" y2="25.0662" gradientUnits="userSpaceOnUse">
<stop offset="0.239044" stop-color="#34214F"/>
<stop offset="1" stop-color="#241337"/>
</linearGradient>
<radialGradient id="paint38_radial_18_10420" cx="0" cy="0" r="1" gradientUnits="userSpaceOnUse" gradientTransform="translate(23.5772 25.6284) rotate(-65.5366) scale(1.89386 1.97807)">
<stop offset="0.523134" stop-color="#2D114D"/>
<stop offset="1" stop-color="#2B1249" stop-opacity="0"/>
</radialGradient>
<linearGradient id="paint39_linear_18_10420" x1="26.2873" y1="24.7806" x2="21.9321" y2="27.6269" gradientUnits="userSpaceOnUse">
<stop offset="0.0830122" stop-color="#615B6B"/>
<stop offset="0.390771" stop-color="#615B6B" stop-opacity="0"/>
<stop offset="0.692394" stop-color="#615B6B" stop-opacity="0"/>
<stop offset="0.934982" stop-color="#615B6B"/>
</linearGradient>
<linearGradient id="paint40_linear_18_10420" x1="9.83939" y1="24.8536" x2="7.87341" y2="27.0099" gradientUnits="userSpaceOnUse">
<stop stop-color="#D2C7DE"/>
<stop offset="1" stop-color="#D1C7DD"/>
</linearGradient>
<linearGradient id="paint41_linear_18_10420" x1="24.8579" y1="24.8536" x2="22.8919" y2="27.0099" gradientUnits="userSpaceOnUse">
<stop stop-color="#D2C7DE"/>
<stop offset="1" stop-color="#D1C7DD"/>
</linearGradient>
</defs>
</svg>
