<svg xmlns="http://www.w3.org/2000/svg" width="32" height="32" fill="none"><path fill="#FF6723" d="M7.003 6.996h3v3h-3v-3Zm0 5h3v16h-3v-16Zm18 0h-3v16h3v-16Zm-3-5h3v3h-3v-3Z"/><path fill="#212121" d="M29.993 2.396v.02c.11.88-.48 1.68-1.33 1.79-.22.02-.44.04-.66.07v.72h-24v-.72c-.22-.02-.44-.04-.66-.07-.85-.11-1.44-.91-1.33-1.79v-.02a.44.44 0 0 1 .49-.39c8.69 1.22 18.31 1.22 27 0 .24-.04.46.14.49.39Zm-11.99 4.6h-4v3h4v-3Zm-11 5h3v3h-3v-3Zm-1 18h5v-1.16c0-.46-.38-.84-.84-.84h-3.32c-.46 0-.84.38-.84.84v1.16Zm20.08 0h-5v-1.16c0-.46.38-.84.84-.84h3.32c.46 0 .84.38.84.84v1.16Zm-4.08-18h3v3h-3v-3Z"/><path fill="#F8312F" d="M5.583 6.996h20.85c.87 0 1.57-.71 1.57-1.58v-.42h-24v.42c0 .87.71 1.58 1.58 1.58Zm-2.58 5h26c.56 0 1-.45 1-1s-.45-1-1-1h-26c-.55 0-1 .45-1 1s.45 1 1 1Z"/></svg>