<svg width="32" height="32" viewBox="0 0 32 32" fill="none" xmlns="http://www.w3.org/2000/svg">
<path d="M13.0062 9.1626C13.0062 8.40321 13.6218 7.7876 14.3812 7.7876H17.6856C22.237 7.7876 25.964 11.4247 25.964 15.9571C25.964 20.4895 22.237 24.1266 17.6856 24.1266H14.3812C13.6218 24.1266 13.0062 23.511 13.0062 22.7516V9.1626ZM15.7562 21.2516C15.7562 21.3206 15.8122 21.3766 15.8812 21.3766H17.6856C20.7596 21.3766 23.214 18.9297 23.214 15.9571C23.214 12.9845 20.7596 10.5376 17.6856 10.5376H15.8812C15.8122 10.5376 15.7562 10.5936 15.7562 10.6626V21.2516Z" fill="#212121"/>
<path d="M9.38535 7.88922C10.1447 7.8884 10.761 8.50334 10.7618 9.26273L10.7764 22.6485C10.7772 23.4079 10.1622 24.0241 9.40284 24.025C8.64345 24.0258 8.02717 23.4108 8.02635 22.6515L8.01184 9.26571C8.01102 8.50632 8.62596 7.89005 9.38535 7.88922Z" fill="#212121"/>
<path d="M6 1C3.23858 1 1 3.23858 1 6V26C1 28.7614 3.23858 31 6 31H26C28.7614 31 31 28.7614 31 26V6C31 3.23858 28.7614 1 26 1H6ZM3 6C3 4.34315 4.34315 3 6 3H26C27.6569 3 29 4.34315 29 6V26C29 27.6569 27.6569 29 26 29H6C4.34315 29 3 27.6569 3 26V6Z" fill="#212121"/>
</svg>
