<svg width="32" height="32" viewBox="0 0 32 32" fill="none" xmlns="http://www.w3.org/2000/svg">
<path fill-rule="evenodd" clip-rule="evenodd" d="M3.26016 11.6914C3.57345 11.4649 4.01105 11.5352 4.23757 11.8485C4.28207 11.91 4.32563 11.9849 4.35267 12.0314C4.35469 12.0348 4.35661 12.0381 4.35844 12.0413L4.35942 12.043C4.39302 12.1006 4.42559 12.1565 4.46416 12.2171C4.54082 12.3376 4.63484 12.4662 4.758 12.5869C4.99058 12.8149 5.3655 13.0547 6.02471 13.0868C6.41085 13.1056 6.70862 13.4339 6.68981 13.8201C6.671 14.2062 6.34271 14.504 5.95657 14.4852C4.93219 14.4352 4.23874 14.0383 3.77796 13.5866C3.55445 13.3675 3.39554 13.1455 3.28299 12.9687C3.22957 12.8847 3.1852 12.8086 3.15294 12.7532C3.15158 12.7509 3.15025 12.7486 3.14893 12.7463C3.12045 12.6975 3.10834 12.6776 3.10439 12.6711C3.10277 12.6684 3.10252 12.668 3.10308 12.6688C2.87656 12.3555 2.94688 11.9179 3.26016 11.6914Z" fill="url(#paint0_linear_4002_4182)"/>
<g filter="url(#filter0_f_4002_4182)">
<path d="M3.79016 12.0781C3.9862 12.5799 4.80771 13.4657 5.84207 13.6171" stroke="url(#paint1_linear_4002_4182)" stroke-width="0.4" stroke-linecap="round"/>
</g>
<path fill-rule="evenodd" clip-rule="evenodd" d="M2.2211 12.0078C2.53438 11.7813 2.97198 11.8516 3.19851 12.1649C3.23252 12.2119 3.27055 12.2688 3.31344 12.3329C3.57496 12.724 4.01695 13.3848 4.82862 13.7323C5.18403 13.8845 5.3488 14.2959 5.19665 14.6513C5.04451 15.0067 4.63306 15.1715 4.27766 15.0193C3.03201 14.4861 2.34313 13.4164 2.12237 13.0736C2.09658 13.0335 2.07717 13.0034 2.06402 12.9852C1.83749 12.6719 1.90782 12.2343 2.2211 12.0078Z" fill="url(#paint2_linear_4002_4182)"/>
<g filter="url(#filter1_f_4002_4182)">
<path d="M2.71155 12.3584C2.90759 12.8602 3.55592 13.8169 4.83862 14.0816" stroke="url(#paint3_linear_4002_4182)" stroke-width="0.4" stroke-linecap="round"/>
</g>
<path fill-rule="evenodd" clip-rule="evenodd" d="M2.18891 13.0299C2.49862 12.7985 2.93726 12.862 3.16865 13.1717C3.19607 13.2084 3.22471 13.2482 3.25496 13.2903C3.55642 13.7095 4.01822 14.3516 5.03366 14.3516C5.42026 14.3516 5.73366 14.665 5.73366 15.0516C5.73366 15.4382 5.42026 15.7516 5.03366 15.7516C3.25831 15.7516 2.39698 14.5116 2.1093 14.0975C2.08432 14.0615 2.06366 14.0318 2.04711 14.0096C1.81572 13.6999 1.8792 13.2613 2.18891 13.0299Z" fill="url(#paint4_linear_4002_4182)"/>
<g filter="url(#filter2_f_4002_4182)">
<path d="M2.6416 13.3677C2.87997 13.8508 3.60798 14.7484 4.90866 14.902" stroke="url(#paint5_linear_4002_4182)" stroke-width="0.4" stroke-linecap="round"/>
</g>
<path fill-rule="evenodd" clip-rule="evenodd" d="M2.50141 14.0611C2.81112 13.8298 3.24976 13.8932 3.48115 14.2029C3.66214 14.4452 4.13441 15.043 5.35397 15.043C5.74057 15.043 6.05397 15.3564 6.05397 15.743C6.05397 16.1296 5.74057 16.443 5.35397 16.443C3.52666 16.443 2.68643 15.4783 2.35961 15.0409C2.12822 14.7312 2.1917 14.2925 2.50141 14.0611Z" fill="url(#paint6_linear_4002_4182)"/>
<path d="M5.74071 11.4989C6.06914 11.2465 6.53999 11.3081 6.79239 11.6365L7.59697 12.6835C7.96625 13.1641 8.16644 13.7531 8.16644 14.3592V16.4998H4.90863V13.8018H6.53528C6.49959 13.7301 6.45691 13.6617 6.40759 13.5975L5.60301 12.5505C5.35062 12.2221 5.41226 11.7513 5.74071 11.4989Z" fill="#40302F"/>
<path d="M5.74071 11.4989C6.06914 11.2465 6.53999 11.3081 6.79239 11.6365L7.59697 12.6835C7.96625 13.1641 8.16644 13.7531 8.16644 14.3592V16.4998H4.90863V13.8018H6.53528C6.49959 13.7301 6.45691 13.6617 6.40759 13.5975L5.60301 12.5505C5.35062 12.2221 5.41226 11.7513 5.74071 11.4989Z" fill="url(#paint7_linear_4002_4182)"/>
<path d="M5.74071 11.4989C6.06914 11.2465 6.53999 11.3081 6.79239 11.6365L7.59697 12.6835C7.96625 13.1641 8.16644 13.7531 8.16644 14.3592V16.4998H4.90863V13.8018H6.53528C6.49959 13.7301 6.45691 13.6617 6.40759 13.5975L5.60301 12.5505C5.35062 12.2221 5.41226 11.7513 5.74071 11.4989Z" fill="url(#paint8_radial_4002_4182)"/>
<g filter="url(#filter3_i_4002_4182)">
<path d="M25.9484 11.4989C25.62 11.2465 25.1492 11.3081 24.8968 11.6365L24.0922 12.6835C23.7229 13.1641 23.5227 13.7531 23.5227 14.3592V16.4998H26.7805V13.8018H25.1539C25.1896 13.7301 25.2322 13.6617 25.2816 13.5975L26.0861 12.5505C26.3385 12.2221 26.2769 11.7513 25.9484 11.4989Z" fill="#4B3230"/>
<path d="M25.9484 11.4989C25.62 11.2465 25.1492 11.3081 24.8968 11.6365L24.0922 12.6835C23.7229 13.1641 23.5227 13.7531 23.5227 14.3592V16.4998H26.7805V13.8018H25.1539C25.1896 13.7301 25.2322 13.6617 25.2816 13.5975L26.0861 12.5505C26.3385 12.2221 26.2769 11.7513 25.9484 11.4989Z" fill="url(#paint9_linear_4002_4182)"/>
<path d="M25.9484 11.4989C25.62 11.2465 25.1492 11.3081 24.8968 11.6365L24.0922 12.6835C23.7229 13.1641 23.5227 13.7531 23.5227 14.3592V16.4998H26.7805V13.8018H25.1539C25.1896 13.7301 25.2322 13.6617 25.2816 13.5975L26.0861 12.5505C26.3385 12.2221 26.2769 11.7513 25.9484 11.4989Z" fill="url(#paint10_radial_4002_4182)"/>
</g>
<path fill-rule="evenodd" clip-rule="evenodd" d="M28.429 11.6914C28.1157 11.4649 27.6781 11.5352 27.4516 11.8485C27.4071 11.91 27.3635 11.9849 27.3365 12.0314C27.3345 12.0348 27.3325 12.0381 27.3307 12.0413L27.3297 12.043C27.2961 12.1006 27.2636 12.1565 27.225 12.2171C27.1483 12.3376 27.0543 12.4662 26.9311 12.5869C26.6986 12.8149 26.3237 13.0547 25.6644 13.0868C25.2783 13.1056 24.9805 13.4339 24.9993 13.8201C25.0182 14.2062 25.3464 14.504 25.7326 14.4852C26.757 14.4352 27.4504 14.0383 27.9112 13.5866C28.1347 13.3675 28.2936 13.1455 28.4062 12.9687C28.4596 12.8847 28.5039 12.8086 28.5362 12.7532C28.5376 12.7509 28.5389 12.7486 28.5402 12.7463C28.5687 12.6975 28.5808 12.6776 28.5848 12.6711C28.5864 12.6684 28.5861 12.6688 28.5861 12.6688C28.8126 12.3555 28.7423 11.9179 28.429 11.6914Z" fill="url(#paint11_linear_4002_4182)"/>
<path fill-rule="evenodd" clip-rule="evenodd" d="M28.429 11.6914C28.1157 11.4649 27.6781 11.5352 27.4516 11.8485C27.4071 11.91 27.3635 11.9849 27.3365 12.0314C27.3345 12.0348 27.3325 12.0381 27.3307 12.0413L27.3297 12.043C27.2961 12.1006 27.2636 12.1565 27.225 12.2171C27.1483 12.3376 27.0543 12.4662 26.9311 12.5869C26.6986 12.8149 26.3237 13.0547 25.6644 13.0868C25.2783 13.1056 24.9805 13.4339 24.9993 13.8201C25.0182 14.2062 25.3464 14.504 25.7326 14.4852C26.757 14.4352 27.4504 14.0383 27.9112 13.5866C28.1347 13.3675 28.2936 13.1455 28.4062 12.9687C28.4596 12.8847 28.5039 12.8086 28.5362 12.7532C28.5376 12.7509 28.5389 12.7486 28.5402 12.7463C28.5687 12.6975 28.5808 12.6776 28.5848 12.6711C28.5864 12.6684 28.5861 12.6688 28.5861 12.6688C28.8126 12.3555 28.7423 11.9179 28.429 11.6914Z" fill="url(#paint12_radial_4002_4182)"/>
<path fill-rule="evenodd" clip-rule="evenodd" d="M28.429 11.6914C28.1157 11.4649 27.6781 11.5352 27.4516 11.8485C27.4071 11.91 27.3635 11.9849 27.3365 12.0314C27.3345 12.0348 27.3325 12.0381 27.3307 12.0413L27.3297 12.043C27.2961 12.1006 27.2636 12.1565 27.225 12.2171C27.1483 12.3376 27.0543 12.4662 26.9311 12.5869C26.6986 12.8149 26.3237 13.0547 25.6644 13.0868C25.2783 13.1056 24.9805 13.4339 24.9993 13.8201C25.0182 14.2062 25.3464 14.504 25.7326 14.4852C26.757 14.4352 27.4504 14.0383 27.9112 13.5866C28.1347 13.3675 28.2936 13.1455 28.4062 12.9687C28.4596 12.8847 28.5039 12.8086 28.5362 12.7532C28.5376 12.7509 28.5389 12.7486 28.5402 12.7463C28.5687 12.6975 28.5808 12.6776 28.5848 12.6711C28.5864 12.6684 28.5861 12.6688 28.5861 12.6688C28.8126 12.3555 28.7423 11.9179 28.429 11.6914Z" fill="url(#paint13_radial_4002_4182)"/>
<path fill-rule="evenodd" clip-rule="evenodd" d="M28.429 11.6914C28.1157 11.4649 27.6781 11.5352 27.4516 11.8485C27.4071 11.91 27.3635 11.9849 27.3365 12.0314C27.3345 12.0348 27.3325 12.0381 27.3307 12.0413L27.3297 12.043C27.2961 12.1006 27.2636 12.1565 27.225 12.2171C27.1483 12.3376 27.0543 12.4662 26.9311 12.5869C26.6986 12.8149 26.3237 13.0547 25.6644 13.0868C25.2783 13.1056 24.9805 13.4339 24.9993 13.8201C25.0182 14.2062 25.3464 14.504 25.7326 14.4852C26.757 14.4352 27.4504 14.0383 27.9112 13.5866C28.1347 13.3675 28.2936 13.1455 28.4062 12.9687C28.4596 12.8847 28.5039 12.8086 28.5362 12.7532C28.5376 12.7509 28.5389 12.7486 28.5402 12.7463C28.5687 12.6975 28.5808 12.6776 28.5848 12.6711C28.5864 12.6684 28.5861 12.6688 28.5861 12.6688C28.8126 12.3555 28.7423 11.9179 28.429 11.6914Z" fill="url(#paint14_radial_4002_4182)"/>
<path fill-rule="evenodd" clip-rule="evenodd" d="M29.468 12.0078C29.1548 11.7813 28.7172 11.8516 28.4906 12.1649C28.4566 12.2119 28.4186 12.2688 28.3757 12.3329C28.1142 12.724 27.4547 13.4463 26.643 13.7938C26.2876 13.9459 26.1402 14.2426 26.3227 14.6688C26.4749 15.0242 27.0561 15.1715 27.4115 15.0193C28.6571 14.4861 29.346 13.4164 29.5668 13.0736C29.5926 13.0335 29.612 13.0034 29.6251 12.9852C29.8517 12.6719 29.7813 12.2343 29.468 12.0078Z" fill="url(#paint15_linear_4002_4182)"/>
<path fill-rule="evenodd" clip-rule="evenodd" d="M29.468 12.0078C29.1548 11.7813 28.7172 11.8516 28.4906 12.1649C28.4566 12.2119 28.4186 12.2688 28.3757 12.3329C28.1142 12.724 27.4547 13.4463 26.643 13.7938C26.2876 13.9459 26.1402 14.2426 26.3227 14.6688C26.4749 15.0242 27.0561 15.1715 27.4115 15.0193C28.6571 14.4861 29.346 13.4164 29.5668 13.0736C29.5926 13.0335 29.612 13.0034 29.6251 12.9852C29.8517 12.6719 29.7813 12.2343 29.468 12.0078Z" fill="url(#paint16_radial_4002_4182)"/>
<path fill-rule="evenodd" clip-rule="evenodd" d="M29.468 12.0078C29.1548 11.7813 28.7172 11.8516 28.4906 12.1649C28.4566 12.2119 28.4186 12.2688 28.3757 12.3329C28.1142 12.724 27.4547 13.4463 26.643 13.7938C26.2876 13.9459 26.1402 14.2426 26.3227 14.6688C26.4749 15.0242 27.0561 15.1715 27.4115 15.0193C28.6571 14.4861 29.346 13.4164 29.5668 13.0736C29.5926 13.0335 29.612 13.0034 29.6251 12.9852C29.8517 12.6719 29.7813 12.2343 29.468 12.0078Z" fill="url(#paint17_radial_4002_4182)"/>
<path fill-rule="evenodd" clip-rule="evenodd" d="M29.468 12.0078C29.1548 11.7813 28.7172 11.8516 28.4906 12.1649C28.4566 12.2119 28.4186 12.2688 28.3757 12.3329C28.1142 12.724 27.4547 13.4463 26.643 13.7938C26.2876 13.9459 26.1402 14.2426 26.3227 14.6688C26.4749 15.0242 27.0561 15.1715 27.4115 15.0193C28.6571 14.4861 29.346 13.4164 29.5668 13.0736C29.5926 13.0335 29.612 13.0034 29.6251 12.9852C29.8517 12.6719 29.7813 12.2343 29.468 12.0078Z" fill="url(#paint18_radial_4002_4182)"/>
<path fill-rule="evenodd" clip-rule="evenodd" d="M29.5003 13.0299C29.1906 12.7985 28.7519 12.862 28.5206 13.1717C28.4931 13.2084 28.4645 13.2482 28.4342 13.2903C28.1328 13.7095 27.671 14.3516 26.6555 14.3516C26.2689 14.3516 25.9555 14.665 25.9555 15.0516C25.9555 15.4382 26.2689 15.7516 26.6555 15.7516C28.4309 15.7516 29.2922 14.5116 29.5799 14.0975C29.6049 14.0615 29.6255 14.0318 29.6421 14.0096C29.8735 13.6999 29.81 13.2613 29.5003 13.0299Z" fill="url(#paint19_linear_4002_4182)"/>
<path fill-rule="evenodd" clip-rule="evenodd" d="M29.5003 13.0299C29.1906 12.7985 28.7519 12.862 28.5206 13.1717C28.4931 13.2084 28.4645 13.2482 28.4342 13.2903C28.1328 13.7095 27.671 14.3516 26.6555 14.3516C26.2689 14.3516 25.9555 14.665 25.9555 15.0516C25.9555 15.4382 26.2689 15.7516 26.6555 15.7516C28.4309 15.7516 29.2922 14.5116 29.5799 14.0975C29.6049 14.0615 29.6255 14.0318 29.6421 14.0096C29.8735 13.6999 29.81 13.2613 29.5003 13.0299Z" fill="url(#paint20_radial_4002_4182)"/>
<path fill-rule="evenodd" clip-rule="evenodd" d="M29.5003 13.0299C29.1906 12.7985 28.7519 12.862 28.5206 13.1717C28.4931 13.2084 28.4645 13.2482 28.4342 13.2903C28.1328 13.7095 27.671 14.3516 26.6555 14.3516C26.2689 14.3516 25.9555 14.665 25.9555 15.0516C25.9555 15.4382 26.2689 15.7516 26.6555 15.7516C28.4309 15.7516 29.2922 14.5116 29.5799 14.0975C29.6049 14.0615 29.6255 14.0318 29.6421 14.0096C29.8735 13.6999 29.81 13.2613 29.5003 13.0299Z" fill="url(#paint21_radial_4002_4182)"/>
<path fill-rule="evenodd" clip-rule="evenodd" d="M29.5003 13.0299C29.1906 12.7985 28.7519 12.862 28.5206 13.1717C28.4931 13.2084 28.4645 13.2482 28.4342 13.2903C28.1328 13.7095 27.671 14.3516 26.6555 14.3516C26.2689 14.3516 25.9555 14.665 25.9555 15.0516C25.9555 15.4382 26.2689 15.7516 26.6555 15.7516C28.4309 15.7516 29.2922 14.5116 29.5799 14.0975C29.6049 14.0615 29.6255 14.0318 29.6421 14.0096C29.8735 13.6999 29.81 13.2613 29.5003 13.0299Z" fill="url(#paint22_radial_4002_4182)"/>
<path fill-rule="evenodd" clip-rule="evenodd" d="M29.1878 14.0611C28.8781 13.8298 28.4394 13.8932 28.2081 14.2029C28.0271 14.4452 27.5548 15.043 26.3352 15.043C25.9486 15.043 25.6352 15.3564 25.6352 15.743C25.6352 16.1296 25.9486 16.443 26.3352 16.443C28.1625 16.443 29.0028 15.4783 29.3296 15.0409C29.561 14.7312 29.4975 14.2925 29.1878 14.0611Z" fill="url(#paint23_linear_4002_4182)"/>
<path fill-rule="evenodd" clip-rule="evenodd" d="M29.1878 14.0611C28.8781 13.8298 28.4394 13.8932 28.2081 14.2029C28.0271 14.4452 27.5548 15.043 26.3352 15.043C25.9486 15.043 25.6352 15.3564 25.6352 15.743C25.6352 16.1296 25.9486 16.443 26.3352 16.443C28.1625 16.443 29.0028 15.4783 29.3296 15.0409C29.561 14.7312 29.4975 14.2925 29.1878 14.0611Z" fill="url(#paint24_radial_4002_4182)"/>
<path d="M26.9133 16.5359C26.9133 16.3978 26.8014 16.2859 26.6633 16.2859H23.7336C23.5956 16.2859 23.4836 16.3978 23.4836 16.5359V17.3796H26.9133V16.5359Z" fill="url(#paint25_radial_4002_4182)"/>
<path d="M4.77582 16.5359C4.77582 16.3978 4.88775 16.2859 5.02582 16.2859H7.95551C8.09358 16.2859 8.20551 16.3978 8.20551 16.5359V17.3796H4.77582V16.5359Z" fill="url(#paint26_radial_4002_4182)"/>
<g filter="url(#filter4_i_4002_4182)">
<path d="M9.12772 20.6544C8.96106 20.7509 8.75242 20.6307 8.75242 20.4381V17.5733C8.75242 17.242 8.48379 16.9733 8.15242 16.9733H4.86804C4.53667 16.9733 4.26804 17.242 4.26804 17.5733V22.1608C4.26283 23.0098 4.38 24.668 5.75242 25.5437C6.901 26.2765 8.25296 26.1132 8.96563 25.8907C9.06692 25.8591 9.17429 25.9325 9.17429 26.0386V29.7452C9.17429 29.8281 9.24144 29.8952 9.32429 29.8952H22.3182C22.4011 29.8952 22.4682 29.8281 22.4682 29.7452V26.0386C22.4682 25.9325 22.5756 25.8591 22.6769 25.8907C23.3896 26.1132 24.7415 26.2765 25.8901 25.5437C27.2625 24.668 27.3797 23.0098 27.3745 22.1608V17.5733C27.3745 17.242 27.1059 16.9733 26.7745 16.9733H23.4901C23.1587 16.9733 22.8901 17.242 22.8901 17.5733V20.4381C22.8901 20.6307 22.6815 20.7509 22.5148 20.6544L15.8213 16.7227L9.12772 20.6544Z" fill="url(#paint27_radial_4002_4182)"/>
<path d="M9.12772 20.6544C8.96106 20.7509 8.75242 20.6307 8.75242 20.4381V17.5733C8.75242 17.242 8.48379 16.9733 8.15242 16.9733H4.86804C4.53667 16.9733 4.26804 17.242 4.26804 17.5733V22.1608C4.26283 23.0098 4.38 24.668 5.75242 25.5437C6.901 26.2765 8.25296 26.1132 8.96563 25.8907C9.06692 25.8591 9.17429 25.9325 9.17429 26.0386V29.7452C9.17429 29.8281 9.24144 29.8952 9.32429 29.8952H22.3182C22.4011 29.8952 22.4682 29.8281 22.4682 29.7452V26.0386C22.4682 25.9325 22.5756 25.8591 22.6769 25.8907C23.3896 26.1132 24.7415 26.2765 25.8901 25.5437C27.2625 24.668 27.3797 23.0098 27.3745 22.1608V17.5733C27.3745 17.242 27.1059 16.9733 26.7745 16.9733H23.4901C23.1587 16.9733 22.8901 17.242 22.8901 17.5733V20.4381C22.8901 20.6307 22.6815 20.7509 22.5148 20.6544L15.8213 16.7227L9.12772 20.6544Z" fill="url(#paint28_radial_4002_4182)"/>
<path d="M9.12772 20.6544C8.96106 20.7509 8.75242 20.6307 8.75242 20.4381V17.5733C8.75242 17.242 8.48379 16.9733 8.15242 16.9733H4.86804C4.53667 16.9733 4.26804 17.242 4.26804 17.5733V22.1608C4.26283 23.0098 4.38 24.668 5.75242 25.5437C6.901 26.2765 8.25296 26.1132 8.96563 25.8907C9.06692 25.8591 9.17429 25.9325 9.17429 26.0386V29.7452C9.17429 29.8281 9.24144 29.8952 9.32429 29.8952H22.3182C22.4011 29.8952 22.4682 29.8281 22.4682 29.7452V26.0386C22.4682 25.9325 22.5756 25.8591 22.6769 25.8907C23.3896 26.1132 24.7415 26.2765 25.8901 25.5437C27.2625 24.668 27.3797 23.0098 27.3745 22.1608V17.5733C27.3745 17.242 27.1059 16.9733 26.7745 16.9733H23.4901C23.1587 16.9733 22.8901 17.242 22.8901 17.5733V20.4381C22.8901 20.6307 22.6815 20.7509 22.5148 20.6544L15.8213 16.7227L9.12772 20.6544Z" fill="url(#paint29_radial_4002_4182)"/>
<path d="M9.12772 20.6544C8.96106 20.7509 8.75242 20.6307 8.75242 20.4381V17.5733C8.75242 17.242 8.48379 16.9733 8.15242 16.9733H4.86804C4.53667 16.9733 4.26804 17.242 4.26804 17.5733V22.1608C4.26283 23.0098 4.38 24.668 5.75242 25.5437C6.901 26.2765 8.25296 26.1132 8.96563 25.8907C9.06692 25.8591 9.17429 25.9325 9.17429 26.0386V29.7452C9.17429 29.8281 9.24144 29.8952 9.32429 29.8952H22.3182C22.4011 29.8952 22.4682 29.8281 22.4682 29.7452V26.0386C22.4682 25.9325 22.5756 25.8591 22.6769 25.8907C23.3896 26.1132 24.7415 26.2765 25.8901 25.5437C27.2625 24.668 27.3797 23.0098 27.3745 22.1608V17.5733C27.3745 17.242 27.1059 16.9733 26.7745 16.9733H23.4901C23.1587 16.9733 22.8901 17.242 22.8901 17.5733V20.4381C22.8901 20.6307 22.6815 20.7509 22.5148 20.6544L15.8213 16.7227L9.12772 20.6544Z" fill="url(#paint30_radial_4002_4182)"/>
<path d="M9.12772 20.6544C8.96106 20.7509 8.75242 20.6307 8.75242 20.4381V17.5733C8.75242 17.242 8.48379 16.9733 8.15242 16.9733H4.86804C4.53667 16.9733 4.26804 17.242 4.26804 17.5733V22.1608C4.26283 23.0098 4.38 24.668 5.75242 25.5437C6.901 26.2765 8.25296 26.1132 8.96563 25.8907C9.06692 25.8591 9.17429 25.9325 9.17429 26.0386V29.7452C9.17429 29.8281 9.24144 29.8952 9.32429 29.8952H22.3182C22.4011 29.8952 22.4682 29.8281 22.4682 29.7452V26.0386C22.4682 25.9325 22.5756 25.8591 22.6769 25.8907C23.3896 26.1132 24.7415 26.2765 25.8901 25.5437C27.2625 24.668 27.3797 23.0098 27.3745 22.1608V17.5733C27.3745 17.242 27.1059 16.9733 26.7745 16.9733H23.4901C23.1587 16.9733 22.8901 17.242 22.8901 17.5733V20.4381C22.8901 20.6307 22.6815 20.7509 22.5148 20.6544L15.8213 16.7227L9.12772 20.6544Z" fill="url(#paint31_radial_4002_4182)"/>
<path d="M9.12772 20.6544C8.96106 20.7509 8.75242 20.6307 8.75242 20.4381V17.5733C8.75242 17.242 8.48379 16.9733 8.15242 16.9733H4.86804C4.53667 16.9733 4.26804 17.242 4.26804 17.5733V22.1608C4.26283 23.0098 4.38 24.668 5.75242 25.5437C6.901 26.2765 8.25296 26.1132 8.96563 25.8907C9.06692 25.8591 9.17429 25.9325 9.17429 26.0386V29.7452C9.17429 29.8281 9.24144 29.8952 9.32429 29.8952H22.3182C22.4011 29.8952 22.4682 29.8281 22.4682 29.7452V26.0386C22.4682 25.9325 22.5756 25.8591 22.6769 25.8907C23.3896 26.1132 24.7415 26.2765 25.8901 25.5437C27.2625 24.668 27.3797 23.0098 27.3745 22.1608V17.5733C27.3745 17.242 27.1059 16.9733 26.7745 16.9733H23.4901C23.1587 16.9733 22.8901 17.242 22.8901 17.5733V20.4381C22.8901 20.6307 22.6815 20.7509 22.5148 20.6544L15.8213 16.7227L9.12772 20.6544Z" fill="url(#paint32_radial_4002_4182)"/>
</g>
<path d="M15.8149 20.7468C14.7106 20.7468 13.8149 19.9451 13.8149 18.9569V16.8422C13.8149 15.8539 14.7106 15.0522 15.8149 15.0522C16.9191 15.0522 17.8149 15.8539 17.8149 16.8422V18.9569C17.8149 19.9451 16.9191 20.7468 15.8149 20.7468Z" fill="url(#paint33_linear_4002_4182)"/>
<path d="M20.2961 14.0084C20.6104 13.9728 20.8969 13.8421 21.123 13.6497L21.1937 14.5249C21.2616 15.3645 20.8218 16.1529 20.0865 16.5247C20.219 16.1709 20.2991 15.7905 20.322 15.3892L20.2961 14.0084Z" fill="url(#paint34_radial_4002_4182)"/>
<path d="M11.156 14.7467C10.84 14.762 10.5362 14.679 10.2822 14.5254L10.3529 15.4006C10.4207 16.2402 10.9813 16.9478 11.7667 17.1968C11.5791 16.8688 11.4391 16.5062 11.352 16.1138L11.156 14.7467Z" fill="url(#paint35_radial_4002_4182)"/>
<g filter="url(#filter5_ii_4002_4182)">
<path d="M11.3053 16.1682C11.6954 17.9841 13.3677 19.2244 15.2168 19.075L16.9904 18.9318C18.8395 18.7824 20.291 17.2898 20.3846 15.4349C20.3525 13.6551 20.3216 11.8823 20.2609 10.1058C20.1927 9.38553 19.5762 8.83646 18.8558 8.8642L17.5395 8.97052C16.642 9.04301 15.7865 8.57922 15.3508 7.78209C15.2369 7.55275 14.9949 7.41497 14.7406 7.43551L13.544 7.53217C11.8088 7.67232 10.5176 9.20781 10.6594 10.9625C10.8006 12.7118 11.0489 14.4238 11.3053 16.1682Z" fill="url(#paint36_radial_4002_4182)"/>
</g>
<path d="M11.3053 16.1682C11.6954 17.9841 13.3677 19.2244 15.2168 19.075L16.9904 18.9318C18.8395 18.7824 20.291 17.2898 20.3846 15.4349C20.3525 13.6551 20.3216 11.8823 20.2609 10.1058C20.1927 9.38553 19.5762 8.83646 18.8558 8.8642L17.5395 8.97052C16.642 9.04301 15.7865 8.57922 15.3508 7.78209C15.2369 7.55275 14.9949 7.41497 14.7406 7.43551L13.544 7.53217C11.8088 7.67232 10.5176 9.20781 10.6594 10.9625C10.8006 12.7118 11.0489 14.4238 11.3053 16.1682Z" fill="url(#paint37_linear_4002_4182)"/>
<path d="M11.3053 16.1682C11.6954 17.9841 13.3677 19.2244 15.2168 19.075L16.9904 18.9318C18.8395 18.7824 20.291 17.2898 20.3846 15.4349C20.3525 13.6551 20.3216 11.8823 20.2609 10.1058C20.1927 9.38553 19.5762 8.83646 18.8558 8.8642L17.5395 8.97052C16.642 9.04301 15.7865 8.57922 15.3508 7.78209C15.2369 7.55275 14.9949 7.41497 14.7406 7.43551L13.544 7.53217C11.8088 7.67232 10.5176 9.20781 10.6594 10.9625C10.8006 12.7118 11.0489 14.4238 11.3053 16.1682Z" fill="url(#paint38_radial_4002_4182)"/>
<path d="M11.3053 16.1682C11.6954 17.9841 13.3677 19.2244 15.2168 19.075L16.9904 18.9318C18.8395 18.7824 20.291 17.2898 20.3846 15.4349C20.3525 13.6551 20.3216 11.8823 20.2609 10.1058C20.1927 9.38553 19.5762 8.83646 18.8558 8.8642L17.5395 8.97052C16.642 9.04301 15.7865 8.57922 15.3508 7.78209C15.2369 7.55275 14.9949 7.41497 14.7406 7.43551L13.544 7.53217C11.8088 7.67232 10.5176 9.20781 10.6594 10.9625C10.8006 12.7118 11.0489 14.4238 11.3053 16.1682Z" fill="url(#paint39_radial_4002_4182)"/>
<path d="M11.3053 16.1682C11.6954 17.9841 13.3677 19.2244 15.2168 19.075L16.9904 18.9318C18.8395 18.7824 20.291 17.2898 20.3846 15.4349C20.3525 13.6551 20.3216 11.8823 20.2609 10.1058C20.1927 9.38553 19.5762 8.83646 18.8558 8.8642L17.5395 8.97052C16.642 9.04301 15.7865 8.57922 15.3508 7.78209C15.2369 7.55275 14.9949 7.41497 14.7406 7.43551L13.544 7.53217C11.8088 7.67232 10.5176 9.20781 10.6594 10.9625C10.8006 12.7118 11.0489 14.4238 11.3053 16.1682Z" fill="url(#paint40_radial_4002_4182)"/>
<path d="M11.3053 16.1682C11.6954 17.9841 13.3677 19.2244 15.2168 19.075L16.9904 18.9318C18.8395 18.7824 20.291 17.2898 20.3846 15.4349C20.3525 13.6551 20.3216 11.8823 20.2609 10.1058C20.1927 9.38553 19.5762 8.83646 18.8558 8.8642L17.5395 8.97052C16.642 9.04301 15.7865 8.57922 15.3508 7.78209C15.2369 7.55275 14.9949 7.41497 14.7406 7.43551L13.544 7.53217C11.8088 7.67232 10.5176 9.20781 10.6594 10.9625C10.8006 12.7118 11.0489 14.4238 11.3053 16.1682Z" fill="url(#paint41_radial_4002_4182)"/>
<path d="M11.3053 16.1682C11.6954 17.9841 13.3677 19.2244 15.2168 19.075L16.9904 18.9318C18.8395 18.7824 20.291 17.2898 20.3846 15.4349C20.3525 13.6551 20.3216 11.8823 20.2609 10.1058C20.1927 9.38553 19.5762 8.83646 18.8558 8.8642L17.5395 8.97052C16.642 9.04301 15.7865 8.57922 15.3508 7.78209C15.2369 7.55275 14.9949 7.41497 14.7406 7.43551L13.544 7.53217C11.8088 7.67232 10.5176 9.20781 10.6594 10.9625C10.8006 12.7118 11.0489 14.4238 11.3053 16.1682Z" fill="url(#paint42_radial_4002_4182)"/>
<path d="M11.3053 16.1682C11.6954 17.9841 13.3677 19.2244 15.2168 19.075L16.9904 18.9318C18.8395 18.7824 20.291 17.2898 20.3846 15.4349C20.3525 13.6551 20.3216 11.8823 20.2609 10.1058C20.1927 9.38553 19.5762 8.83646 18.8558 8.8642L17.5395 8.97052C16.642 9.04301 15.7865 8.57922 15.3508 7.78209C15.2369 7.55275 14.9949 7.41497 14.7406 7.43551L13.544 7.53217C11.8088 7.67232 10.5176 9.20781 10.6594 10.9625C10.8006 12.7118 11.0489 14.4238 11.3053 16.1682Z" fill="url(#paint43_radial_4002_4182)"/>
<path d="M11.3053 16.1682C11.6954 17.9841 13.3677 19.2244 15.2168 19.075L16.9904 18.9318C18.8395 18.7824 20.291 17.2898 20.3846 15.4349C20.3525 13.6551 20.3216 11.8823 20.2609 10.1058C20.1927 9.38553 19.5762 8.83646 18.8558 8.8642L17.5395 8.97052C16.642 9.04301 15.7865 8.57922 15.3508 7.78209C15.2369 7.55275 14.9949 7.41497 14.7406 7.43551L13.544 7.53217C11.8088 7.67232 10.5176 9.20781 10.6594 10.9625C10.8006 12.7118 11.0489 14.4238 11.3053 16.1682Z" fill="url(#paint44_radial_4002_4182)"/>
<path d="M11.3053 16.1682C11.6954 17.9841 13.3677 19.2244 15.2168 19.075L16.9904 18.9318C18.8395 18.7824 20.291 17.2898 20.3846 15.4349C20.3525 13.6551 20.3216 11.8823 20.2609 10.1058C20.1927 9.38553 19.5762 8.83646 18.8558 8.8642L17.5395 8.97052C16.642 9.04301 15.7865 8.57922 15.3508 7.78209C15.2369 7.55275 14.9949 7.41497 14.7406 7.43551L13.544 7.53217C11.8088 7.67232 10.5176 9.20781 10.6594 10.9625C10.8006 12.7118 11.0489 14.4238 11.3053 16.1682Z" fill="url(#paint45_linear_4002_4182)"/>
<path d="M11.3053 16.1682C11.6954 17.9841 13.3677 19.2244 15.2168 19.075L16.9904 18.9318C18.8395 18.7824 20.291 17.2898 20.3846 15.4349C20.3525 13.6551 20.3216 11.8823 20.2609 10.1058C20.1927 9.38553 19.5762 8.83646 18.8558 8.8642L17.5395 8.97052C16.642 9.04301 15.7865 8.57922 15.3508 7.78209C15.2369 7.55275 14.9949 7.41497 14.7406 7.43551L13.544 7.53217C11.8088 7.67232 10.5176 9.20781 10.6594 10.9625C10.8006 12.7118 11.0489 14.4238 11.3053 16.1682Z" fill="url(#paint46_linear_4002_4182)"/>
<g filter="url(#filter6_f_4002_4182)">
<path d="M15.1348 12.7517L14.6775 14.5281C14.6042 14.8918 14.8776 15.2275 15.2243 15.1995L15.9636 15.1398C16.3102 15.1118 16.5258 14.7311 16.3956 14.3893L15.7564 12.7015C15.6184 12.3273 15.216 12.3598 15.1348 12.7517Z" fill="#331E24"/>
</g>
<g filter="url(#filter7_f_4002_4182)">
<path d="M15.2175 12.5598L14.8574 14.3284C14.7842 14.6921 15.0576 15.0278 15.4043 14.9998L16.1436 14.9401C16.4902 14.9121 16.7058 14.5314 16.5756 14.1896L15.9363 12.5018C15.7984 12.1276 15.2987 12.1679 15.2175 12.5598Z" fill="#402929"/>
<path d="M15.2175 12.5598L14.8574 14.3284C14.7842 14.6921 15.0576 15.0278 15.4043 14.9998L16.1436 14.9401C16.4902 14.9121 16.7058 14.5314 16.5756 14.1896L15.9363 12.5018C15.7984 12.1276 15.2987 12.1679 15.2175 12.5598Z" fill="url(#paint47_linear_4002_4182)"/>
<path d="M15.2175 12.5598L14.8574 14.3284C14.7842 14.6921 15.0576 15.0278 15.4043 14.9998L16.1436 14.9401C16.4902 14.9121 16.7058 14.5314 16.5756 14.1896L15.9363 12.5018C15.7984 12.1276 15.2987 12.1679 15.2175 12.5598Z" fill="url(#paint48_radial_4002_4182)"/>
<path d="M15.2175 12.5598L14.8574 14.3284C14.7842 14.6921 15.0576 15.0278 15.4043 14.9998L16.1436 14.9401C16.4902 14.9121 16.7058 14.5314 16.5756 14.1896L15.9363 12.5018C15.7984 12.1276 15.2987 12.1679 15.2175 12.5598Z" fill="url(#paint49_linear_4002_4182)"/>
<path d="M15.2175 12.5598L14.8574 14.3284C14.7842 14.6921 15.0576 15.0278 15.4043 14.9998L16.1436 14.9401C16.4902 14.9121 16.7058 14.5314 16.5756 14.1896L15.9363 12.5018C15.7984 12.1276 15.2987 12.1679 15.2175 12.5598Z" fill="url(#paint50_radial_4002_4182)"/>
<path d="M15.2175 12.5598L14.8574 14.3284C14.7842 14.6921 15.0576 15.0278 15.4043 14.9998L16.1436 14.9401C16.4902 14.9121 16.7058 14.5314 16.5756 14.1896L15.9363 12.5018C15.7984 12.1276 15.2987 12.1679 15.2175 12.5598Z" fill="url(#paint51_linear_4002_4182)"/>
</g>
<g filter="url(#filter8_ii_4002_4182)">
<path d="M19.6907 6.58902C20.1878 6.71635 20.6489 7.01914 20.9622 7.48105C21.4633 8.21708 21.473 9.14505 21.0543 9.86402C20.9093 10.1193 20.8428 10.414 20.8664 10.7064L20.9566 11.8233C20.7709 11.715 20.5316 11.6429 20.309 11.6219L20.2609 10.1057C20.1926 9.3855 19.5762 8.83642 18.8557 8.86416L17.5394 8.97049C16.6419 9.04298 15.7865 8.57918 15.3507 7.78205C15.2368 7.55272 14.9948 7.41493 14.7406 7.43547L13.5439 7.53213C11.8088 7.67228 10.5176 9.20777 10.6593 10.9625L10.8048 12.4054C10.5689 12.4598 10.326 12.5597 10.1479 12.708L10.0567 11.5796C10.0331 11.2871 9.92015 11.007 9.73606 10.7782C9.23397 10.1539 9.08251 9.27293 9.41572 8.48982C9.648 7.94832 10.0624 7.54943 10.5518 7.33227C11.0748 7.09717 11.5042 6.69708 11.7688 6.18341C12.1076 5.5318 12.7573 5.06316 13.5401 4.99993C13.8443 4.97536 14.1388 5.01755 14.417 5.10673C14.7886 5.23405 15.1924 5.20142 15.5388 5.01612C15.7941 4.88384 16.078 4.79493 16.3822 4.77037C17.1749 4.70633 17.9026 5.07895 18.3378 5.68326C18.6657 6.13892 19.1476 6.45019 19.6907 6.58902Z" fill="url(#paint52_linear_4002_4182)"/>
<path d="M19.6907 6.58902C20.1878 6.71635 20.6489 7.01914 20.9622 7.48105C21.4633 8.21708 21.473 9.14505 21.0543 9.86402C20.9093 10.1193 20.8428 10.414 20.8664 10.7064L20.9566 11.8233C20.7709 11.715 20.5316 11.6429 20.309 11.6219L20.2609 10.1057C20.1926 9.3855 19.5762 8.83642 18.8557 8.86416L17.5394 8.97049C16.6419 9.04298 15.7865 8.57918 15.3507 7.78205C15.2368 7.55272 14.9948 7.41493 14.7406 7.43547L13.5439 7.53213C11.8088 7.67228 10.5176 9.20777 10.6593 10.9625L10.8048 12.4054C10.5689 12.4598 10.326 12.5597 10.1479 12.708L10.0567 11.5796C10.0331 11.2871 9.92015 11.007 9.73606 10.7782C9.23397 10.1539 9.08251 9.27293 9.41572 8.48982C9.648 7.94832 10.0624 7.54943 10.5518 7.33227C11.0748 7.09717 11.5042 6.69708 11.7688 6.18341C12.1076 5.5318 12.7573 5.06316 13.5401 4.99993C13.8443 4.97536 14.1388 5.01755 14.417 5.10673C14.7886 5.23405 15.1924 5.20142 15.5388 5.01612C15.7941 4.88384 16.078 4.79493 16.3822 4.77037C17.1749 4.70633 17.9026 5.07895 18.3378 5.68326C18.6657 6.13892 19.1476 6.45019 19.6907 6.58902Z" fill="url(#paint53_radial_4002_4182)"/>
<path d="M19.6907 6.58902C20.1878 6.71635 20.6489 7.01914 20.9622 7.48105C21.4633 8.21708 21.473 9.14505 21.0543 9.86402C20.9093 10.1193 20.8428 10.414 20.8664 10.7064L20.9566 11.8233C20.7709 11.715 20.5316 11.6429 20.309 11.6219L20.2609 10.1057C20.1926 9.3855 19.5762 8.83642 18.8557 8.86416L17.5394 8.97049C16.6419 9.04298 15.7865 8.57918 15.3507 7.78205C15.2368 7.55272 14.9948 7.41493 14.7406 7.43547L13.5439 7.53213C11.8088 7.67228 10.5176 9.20777 10.6593 10.9625L10.8048 12.4054C10.5689 12.4598 10.326 12.5597 10.1479 12.708L10.0567 11.5796C10.0331 11.2871 9.92015 11.007 9.73606 10.7782C9.23397 10.1539 9.08251 9.27293 9.41572 8.48982C9.648 7.94832 10.0624 7.54943 10.5518 7.33227C11.0748 7.09717 11.5042 6.69708 11.7688 6.18341C12.1076 5.5318 12.7573 5.06316 13.5401 4.99993C13.8443 4.97536 14.1388 5.01755 14.417 5.10673C14.7886 5.23405 15.1924 5.20142 15.5388 5.01612C15.7941 4.88384 16.078 4.79493 16.3822 4.77037C17.1749 4.70633 17.9026 5.07895 18.3378 5.68326C18.6657 6.13892 19.1476 6.45019 19.6907 6.58902Z" fill="url(#paint54_radial_4002_4182)"/>
<path d="M19.6907 6.58902C20.1878 6.71635 20.6489 7.01914 20.9622 7.48105C21.4633 8.21708 21.473 9.14505 21.0543 9.86402C20.9093 10.1193 20.8428 10.414 20.8664 10.7064L20.9566 11.8233C20.7709 11.715 20.5316 11.6429 20.309 11.6219L20.2609 10.1057C20.1926 9.3855 19.5762 8.83642 18.8557 8.86416L17.5394 8.97049C16.6419 9.04298 15.7865 8.57918 15.3507 7.78205C15.2368 7.55272 14.9948 7.41493 14.7406 7.43547L13.5439 7.53213C11.8088 7.67228 10.5176 9.20777 10.6593 10.9625L10.8048 12.4054C10.5689 12.4598 10.326 12.5597 10.1479 12.708L10.0567 11.5796C10.0331 11.2871 9.92015 11.007 9.73606 10.7782C9.23397 10.1539 9.08251 9.27293 9.41572 8.48982C9.648 7.94832 10.0624 7.54943 10.5518 7.33227C11.0748 7.09717 11.5042 6.69708 11.7688 6.18341C12.1076 5.5318 12.7573 5.06316 13.5401 4.99993C13.8443 4.97536 14.1388 5.01755 14.417 5.10673C14.7886 5.23405 15.1924 5.20142 15.5388 5.01612C15.7941 4.88384 16.078 4.79493 16.3822 4.77037C17.1749 4.70633 17.9026 5.07895 18.3378 5.68326C18.6657 6.13892 19.1476 6.45019 19.6907 6.58902Z" fill="url(#paint55_radial_4002_4182)"/>
<path d="M19.6907 6.58902C20.1878 6.71635 20.6489 7.01914 20.9622 7.48105C21.4633 8.21708 21.473 9.14505 21.0543 9.86402C20.9093 10.1193 20.8428 10.414 20.8664 10.7064L20.9566 11.8233C20.7709 11.715 20.5316 11.6429 20.309 11.6219L20.2609 10.1057C20.1926 9.3855 19.5762 8.83642 18.8557 8.86416L17.5394 8.97049C16.6419 9.04298 15.7865 8.57918 15.3507 7.78205C15.2368 7.55272 14.9948 7.41493 14.7406 7.43547L13.5439 7.53213C11.8088 7.67228 10.5176 9.20777 10.6593 10.9625L10.8048 12.4054C10.5689 12.4598 10.326 12.5597 10.1479 12.708L10.0567 11.5796C10.0331 11.2871 9.92015 11.007 9.73606 10.7782C9.23397 10.1539 9.08251 9.27293 9.41572 8.48982C9.648 7.94832 10.0624 7.54943 10.5518 7.33227C11.0748 7.09717 11.5042 6.69708 11.7688 6.18341C12.1076 5.5318 12.7573 5.06316 13.5401 4.99993C13.8443 4.97536 14.1388 5.01755 14.417 5.10673C14.7886 5.23405 15.1924 5.20142 15.5388 5.01612C15.7941 4.88384 16.078 4.79493 16.3822 4.77037C17.1749 4.70633 17.9026 5.07895 18.3378 5.68326C18.6657 6.13892 19.1476 6.45019 19.6907 6.58902Z" fill="url(#paint56_radial_4002_4182)"/>
</g>
<g filter="url(#filter9_i_4002_4182)">
<path d="M18.9142 10.1179C18.7379 9.98775 18.5341 9.85123 18.2366 9.78334C17.9433 9.7164 17.5831 9.72115 17.0924 9.82181C16.9509 9.85084 16.8597 9.98909 16.8888 10.1306C16.9178 10.2721 17.056 10.3633 17.1976 10.3343C17.6454 10.2424 17.9249 10.2488 18.1202 10.2933C18.3113 10.337 18.4451 10.4219 18.6035 10.5387C18.7197 10.6245 18.8834 10.5999 18.9692 10.4837C19.055 10.3675 19.0304 10.2037 18.9142 10.1179Z" fill="#202020"/>
</g>
<g filter="url(#filter10_i_4002_4182)">
<path d="M12.1901 10.5579C12.2707 10.5004 12.3874 10.4257 12.5364 10.3527C12.8345 10.2068 13.2659 10.0662 13.7975 10.088C13.9419 10.094 14.054 10.2158 14.0481 10.3601C14.0422 10.5045 13.9203 10.6167 13.776 10.6107C13.3503 10.5932 13.0054 10.7056 12.7664 10.8226C12.6469 10.881 12.5549 10.9402 12.494 10.9837C12.4636 11.0054 12.4411 11.0231 12.427 11.0346C12.42 11.0403 12.4151 11.0445 12.4123 11.0469L12.4099 11.049C12.3034 11.1458 12.1385 11.1384 12.0412 11.0321C11.9436 10.9256 11.9508 10.7601 12.0574 10.6626L12.1901 10.5579Z" fill="#202020"/>
</g>
<g filter="url(#filter11_if_4002_4182)">
<path d="M15.4087 7.82633C15.3834 7.78608 15.3592 7.74487 15.3361 7.70274C15.2223 7.4734 14.9803 7.33562 14.726 7.35616L13.5293 7.45281C11.7942 7.59296 10.503 9.12846 10.6447 10.8832L10.6656 11.1418C10.3264 10.9244 9.8829 10.4438 9.81583 9.61345C9.73444 8.60583 10.4282 8.03715 10.8707 7.6744C10.9957 7.572 11.1006 7.486 11.1624 7.41118C11.1886 7.37939 11.2171 7.34381 11.2481 7.30512C11.5486 6.93006 12.0839 6.26181 13.0843 5.90784C13.5551 5.74127 14.0395 5.6671 14.443 5.64101C14.9149 5.61051 15.2804 5.99073 15.3184 6.46204L15.4275 7.81209L15.4087 7.82633Z" fill="#23181C"/>
<path d="M15.4087 7.82633C15.3834 7.78608 15.3592 7.74487 15.3361 7.70274C15.2223 7.4734 14.9803 7.33562 14.726 7.35616L13.5293 7.45281C11.7942 7.59296 10.503 9.12846 10.6447 10.8832L10.6656 11.1418C10.3264 10.9244 9.8829 10.4438 9.81583 9.61345C9.73444 8.60583 10.4282 8.03715 10.8707 7.6744C10.9957 7.572 11.1006 7.486 11.1624 7.41118C11.1886 7.37939 11.2171 7.34381 11.2481 7.30512C11.5486 6.93006 12.0839 6.26181 13.0843 5.90784C13.5551 5.74127 14.0395 5.6671 14.443 5.64101C14.9149 5.61051 15.2804 5.99073 15.3184 6.46204L15.4275 7.81209L15.4087 7.82633Z" fill="url(#paint57_radial_4002_4182)"/>
<path d="M15.4087 7.82633C15.3834 7.78608 15.3592 7.74487 15.3361 7.70274C15.2223 7.4734 14.9803 7.33562 14.726 7.35616L13.5293 7.45281C11.7942 7.59296 10.503 9.12846 10.6447 10.8832L10.6656 11.1418C10.3264 10.9244 9.8829 10.4438 9.81583 9.61345C9.73444 8.60583 10.4282 8.03715 10.8707 7.6744C10.9957 7.572 11.1006 7.486 11.1624 7.41118C11.1886 7.37939 11.2171 7.34381 11.2481 7.30512C11.5486 6.93006 12.0839 6.26181 13.0843 5.90784C13.5551 5.74127 14.0395 5.6671 14.443 5.64101C14.9149 5.61051 15.2804 5.99073 15.3184 6.46204L15.4275 7.81209L15.4087 7.82633Z" fill="url(#paint58_radial_4002_4182)"/>
</g>
<g filter="url(#filter12_if_4002_4182)">
<path d="M20.3383 10.5822L20.2632 9.99097C20.1953 9.27405 19.5605 8.72922 18.8474 8.75651L17.5446 8.86174C16.7176 8.92854 15.9264 8.53263 15.4728 7.83718C15.4728 7.83718 15.4275 7.75098 15.3688 7.59758C15.0102 6.65905 15.8821 5.85083 16.8723 6.02108C17.7342 6.16927 18.6975 6.43435 19.458 6.8519C21.1676 7.79048 21.1193 9.60532 20.3383 10.5822Z" fill="#1F151B"/>
<path d="M20.3383 10.5822L20.2632 9.99097C20.1953 9.27405 19.5605 8.72922 18.8474 8.75651L17.5446 8.86174C16.7176 8.92854 15.9264 8.53263 15.4728 7.83718C15.4728 7.83718 15.4275 7.75098 15.3688 7.59758C15.0102 6.65905 15.8821 5.85083 16.8723 6.02108C17.7342 6.16927 18.6975 6.43435 19.458 6.8519C21.1676 7.79048 21.1193 9.60532 20.3383 10.5822Z" fill="url(#paint59_radial_4002_4182)"/>
</g>
<path d="M17.7526 11.4559C18.3666 11.4063 18.9194 11.7877 19.1067 12.3483C19.1619 12.5089 19.0487 12.6754 18.8809 12.689L16.7834 12.8584C16.6499 12.8692 16.5333 12.7558 16.5492 12.6201C16.6188 12.008 17.1119 11.5076 17.7526 11.4559Z" fill="white"/>
<path d="M17.5785 11.7271C18.0438 11.6895 18.448 12.0369 18.4853 12.4983C18.4914 12.5746 18.4861 12.6518 18.4726 12.722L16.8519 12.8529C16.8269 12.782 16.8096 12.7104 16.8035 12.6341C16.7662 12.1727 17.1133 11.7647 17.5785 11.7271Z" fill="url(#paint60_radial_4002_4182)"/>
<path d="M17.1658 12.6048C17.1443 12.3378 17.3406 12.107 17.6075 12.0855C17.8745 12.0639 18.1053 12.2602 18.1268 12.5272C18.1333 12.6072 18.1204 12.685 18.0913 12.7527L17.2409 12.8213C17.1975 12.7596 17.1723 12.6849 17.1658 12.6048Z" fill="black"/>
<g filter="url(#filter13_f_4002_4182)">
<path d="M17.5297 11.91C17.5958 11.9849 17.479 12.0922 17.3459 12.2096C17.2127 12.327 17.1136 12.4101 17.0475 12.3351C16.9815 12.2602 17.0359 12.1043 17.169 11.9869C17.3022 11.8695 17.4636 11.8351 17.5297 11.91Z" fill="#C7A7A3"/>
<path d="M17.5297 11.91C17.5958 11.9849 17.479 12.0922 17.3459 12.2096C17.2127 12.327 17.1136 12.4101 17.0475 12.3351C16.9815 12.2602 17.0359 12.1043 17.169 11.9869C17.3022 11.8695 17.4636 11.8351 17.5297 11.91Z" fill="url(#paint61_radial_4002_4182)"/>
</g>
<g filter="url(#filter14_f_4002_4182)">
<path d="M18.3848 12.3952C18.3362 12.1808 18.1961 12.0276 18.1321 11.9778L17.9095 12.2657L18.037 12.4713L18.3848 12.3952Z" fill="url(#paint62_linear_4002_4182)"/>
</g>
<path d="M13.2571 11.8188C12.6431 11.8684 12.1586 12.3336 12.0637 12.9171C12.035 13.0845 12.1735 13.2307 12.3413 13.2171L14.4388 13.0477C14.5723 13.0369 14.6692 12.9062 14.6318 12.7749C14.4649 12.1819 13.894 11.7674 13.2571 11.8188Z" fill="white"/>
<path d="M13.4721 12.0587C13.0069 12.0963 12.6636 12.504 12.7009 12.9655C12.707 13.0418 12.7247 13.1171 12.7493 13.1842L14.3701 13.0533C14.3833 12.9793 14.3889 12.9059 14.3828 12.8296C14.3417 12.3685 13.9374 12.0211 13.4721 12.0587Z" fill="url(#paint63_radial_4002_4182)"/>
<path d="M14.0204 12.859C13.9989 12.592 13.7681 12.3957 13.5011 12.4172C13.2341 12.4388 13.0378 12.6696 13.0594 12.9366C13.0659 13.0167 13.0911 13.0914 13.1306 13.1535L13.9811 13.0848C14.0102 13.0172 14.0269 12.939 14.0204 12.859Z" fill="black"/>
<g filter="url(#filter15_f_4002_4182)">
<path d="M14.2971 12.736C14.2752 12.4655 14.0407 12.303 13.9769 12.2533L13.7275 12.5367L13.9213 12.8621L14.2971 12.736Z" fill="url(#paint64_linear_4002_4182)"/>
</g>
<g filter="url(#filter16_f_4002_4182)">
<ellipse cx="13.2469" cy="12.4378" rx="0.366552" ry="0.185509" transform="rotate(-32.5319 13.2469 12.4378)" fill="#C7A7A3" fill-opacity="0.9"/>
<ellipse cx="13.2469" cy="12.4378" rx="0.366552" ry="0.185509" transform="rotate(-32.5319 13.2469 12.4378)" fill="url(#paint65_radial_4002_4182)"/>
</g>
<path d="M20.3599 14.0894C20.341 13.084 20.3199 12.08 20.2911 11.0753C21.0115 11.1422 21.6014 11.7184 21.6617 12.4643C21.7267 13.2699 21.1502 13.9793 20.3599 14.0894Z" fill="url(#paint66_linear_4002_4182)"/>
<path d="M20.3599 14.0894C20.341 13.084 20.3199 12.08 20.2911 11.0753C21.0115 11.1422 21.6014 11.7184 21.6617 12.4643C21.7267 13.2699 21.1502 13.9793 20.3599 14.0894Z" fill="url(#paint67_radial_4002_4182)"/>
<path d="M20.3599 14.0894C20.341 13.084 20.3199 12.08 20.2911 11.0753C21.0115 11.1422 21.6014 11.7184 21.6617 12.4643C21.7267 13.2699 21.1502 13.9793 20.3599 14.0894Z" fill="url(#paint68_radial_4002_4182)"/>
<path d="M20.3599 14.0894C20.341 13.084 20.3199 12.08 20.2911 11.0753C21.0115 11.1422 21.6014 11.7184 21.6617 12.4643C21.7267 13.2699 21.1502 13.9793 20.3599 14.0894Z" fill="url(#paint69_radial_4002_4182)"/>
<path d="M10.7389 11.8389C10.0127 12.0018 9.49867 12.6785 9.56031 13.4416C9.62554 14.2492 10.3117 14.8579 11.1121 14.8366C10.9702 13.837 10.8395 12.8422 10.7389 11.8389Z" fill="url(#paint70_linear_4002_4182)"/>
<path d="M10.7389 11.8389C10.0127 12.0018 9.49867 12.6785 9.56031 13.4416C9.62554 14.2492 10.3117 14.8579 11.1121 14.8366C10.9702 13.837 10.8395 12.8422 10.7389 11.8389Z" fill="url(#paint71_radial_4002_4182)"/>
<g filter="url(#filter17_f_4002_4182)">
<path d="M10.8049 12.459C10.411 12.5813 10.1403 12.9638 10.1749 13.392C10.2117 13.8477 10.5815 14.1968 11.026 14.2194C10.9458 13.6328 10.8708 13.0469 10.8049 12.459Z" fill="url(#paint72_radial_4002_4182)"/>
</g>
<g filter="url(#filter18_f_4002_4182)">
<path d="M20.3481 13.4744C20.3361 12.8749 20.323 12.2758 20.3075 11.6767C20.755 11.6961 21.1284 12.0464 21.1654 12.5044C21.2052 12.9976 20.8399 13.4301 20.3481 13.4744Z" fill="url(#paint73_linear_4002_4182)"/>
</g>
<g filter="url(#filter19_f_4002_4182)">
<path d="M12.2468 10.818C12.4744 10.6252 13.052 10.2716 13.7738 10.3338" stroke="#353535" stroke-width="0.25" stroke-linecap="round"/>
</g>
<g filter="url(#filter20_f_4002_4182)">
<path d="M18.762 10.2482C18.5064 10.0944 17.8796 9.83811 17.177 10.0154" stroke="#353535" stroke-width="0.25" stroke-linecap="round"/>
</g>
<g filter="url(#filter21_f_4002_4182)">
<path d="M2.93988 14.4187C3.23328 14.8705 4.06156 15.6765 5.37128 15.6765" stroke="url(#paint74_linear_4002_4182)" stroke-width="0.4" stroke-linecap="round"/>
</g>
<g filter="url(#filter22_f_4002_4182)">
<ellipse cx="15.8149" cy="16.1989" rx="0.74003" ry="0.731624" stroke="url(#paint75_radial_4002_4182)" stroke-width="0.2"/>
</g>
<ellipse cx="15.8149" cy="16.1989" rx="0.74003" ry="0.731624" fill="#290018"/>
<g filter="url(#filter23_f_4002_4182)">
<path d="M9.34613 25.5046C9.52321 24.3588 10.3024 21.6234 12.0024 19.8484" stroke="url(#paint76_linear_4002_4182)" stroke-width="0.4" stroke-linecap="round"/>
</g>
<g filter="url(#filter24_f_4002_4182)">
<path d="M19.156 7.59614L16.9365 7.59614C16.6522 7.59614 16.4217 7.36567 16.4217 7.08138C16.4217 6.76425 16.7056 6.52109 17.0188 6.571C17.5946 6.66276 18.3593 6.79069 18.8714 6.91765C20.0292 7.20472 20.3489 7.76838 20.4382 8.17028C20.0248 7.66503 19.4111 7.577 19.156 7.59614Z" fill="#504A4C"/>
</g>
<g filter="url(#filter25_f_4002_4182)">
<path d="M6.11719 15.8281H7.1152C7.34157 15.8281 7.55868 15.9181 7.71875 16.0781V16.0781" stroke="url(#paint77_linear_4002_4182)" stroke-width="0.4" stroke-linecap="round"/>
</g>
<g filter="url(#filter26_f_4002_4182)">
<path d="M25.3906 15.7344H26.9062C27 15.75 27.2375 15.7375 27.4375 15.5625" stroke="#635150" stroke-width="0.2" stroke-linecap="round"/>
</g>
<defs>
<filter id="filter0_f_4002_4182" x="3.29009" y="11.5782" width="3.05203" height="2.53896" filterUnits="userSpaceOnUse" color-interpolation-filters="sRGB">
<feFlood flood-opacity="0" result="BackgroundImageFix"/>
<feBlend mode="normal" in="SourceGraphic" in2="BackgroundImageFix" result="shape"/>
<feGaussianBlur stdDeviation="0.15" result="effect1_foregroundBlur_4002_4182"/>
</filter>
<filter id="filter1_f_4002_4182" x="2.21147" y="11.8584" width="3.12716" height="2.72329" filterUnits="userSpaceOnUse" color-interpolation-filters="sRGB">
<feFlood flood-opacity="0" result="BackgroundImageFix"/>
<feBlend mode="normal" in="SourceGraphic" in2="BackgroundImageFix" result="shape"/>
<feGaussianBlur stdDeviation="0.15" result="effect1_foregroundBlur_4002_4182"/>
</filter>
<filter id="filter2_f_4002_4182" x="2.14153" y="12.8677" width="3.26718" height="2.53433" filterUnits="userSpaceOnUse" color-interpolation-filters="sRGB">
<feFlood flood-opacity="0" result="BackgroundImageFix"/>
<feBlend mode="normal" in="SourceGraphic" in2="BackgroundImageFix" result="shape"/>
<feGaussianBlur stdDeviation="0.15" result="effect1_foregroundBlur_4002_4182"/>
</filter>
<filter id="filter3_i_4002_4182" x="23.5227" y="11.3435" width="3.40781" height="5.15625" filterUnits="userSpaceOnUse" color-interpolation-filters="sRGB">
<feFlood flood-opacity="0" result="BackgroundImageFix"/>
<feBlend mode="normal" in="SourceGraphic" in2="BackgroundImageFix" result="shape"/>
<feColorMatrix in="SourceAlpha" type="matrix" values="0 0 0 0 0 0 0 0 0 0 0 0 0 0 0 0 0 0 127 0" result="hardAlpha"/>
<feOffset dx="0.15"/>
<feGaussianBlur stdDeviation="0.2"/>
<feComposite in2="hardAlpha" operator="arithmetic" k2="-1" k3="1"/>
<feColorMatrix type="matrix" values="0 0 0 0 0.27451 0 0 0 0 0.227451 0 0 0 0 0.219608 0 0 0 1 0"/>
<feBlend mode="normal" in2="shape" result="effect1_innerShadow_4002_4182"/>
</filter>
<filter id="filter4_i_4002_4182" x="4.26788" y="16.4727" width="23.1068" height="13.4226" filterUnits="userSpaceOnUse" color-interpolation-filters="sRGB">
<feFlood flood-opacity="0" result="BackgroundImageFix"/>
<feBlend mode="normal" in="SourceGraphic" in2="BackgroundImageFix" result="shape"/>
<feColorMatrix in="SourceAlpha" type="matrix" values="0 0 0 0 0 0 0 0 0 0 0 0 0 0 0 0 0 0 127 0" result="hardAlpha"/>
<feOffset dy="-0.25"/>
<feGaussianBlur stdDeviation="0.25"/>
<feComposite in2="hardAlpha" operator="arithmetic" k2="-1" k3="1"/>
<feColorMatrix type="matrix" values="0 0 0 0 0.894118 0 0 0 0 0.294118 0 0 0 0 0.388235 0 0 0 1 0"/>
<feBlend mode="normal" in2="shape" result="effect1_innerShadow_4002_4182"/>
</filter>
<filter id="filter5_ii_4002_4182" x="10.6487" y="7.43359" width="10.7359" height="11.8536" filterUnits="userSpaceOnUse" color-interpolation-filters="sRGB">
<feFlood flood-opacity="0" result="BackgroundImageFix"/>
<feBlend mode="normal" in="SourceGraphic" in2="BackgroundImageFix" result="shape"/>
<feColorMatrix in="SourceAlpha" type="matrix" values="0 0 0 0 0 0 0 0 0 0 0 0 0 0 0 0 0 0 127 0" result="hardAlpha"/>
<feOffset dx="1"/>
<feGaussianBlur stdDeviation="0.7"/>
<feComposite in2="hardAlpha" operator="arithmetic" k2="-1" k3="1"/>
<feColorMatrix type="matrix" values="0 0 0 0 0.333333 0 0 0 0 0.270588 0 0 0 0 0.258824 0 0 0 1 0"/>
<feBlend mode="normal" in2="shape" result="effect1_innerShadow_4002_4182"/>
<feColorMatrix in="SourceAlpha" type="matrix" values="0 0 0 0 0 0 0 0 0 0 0 0 0 0 0 0 0 0 127 0" result="hardAlpha"/>
<feOffset dy="0.2"/>
<feGaussianBlur stdDeviation="0.375"/>
<feComposite in2="hardAlpha" operator="arithmetic" k2="-1" k3="1"/>
<feColorMatrix type="matrix" values="0 0 0 0 0.145098 0 0 0 0 0.0705882 0 0 0 0 0.0745098 0 0 0 1 0"/>
<feBlend mode="normal" in2="effect1_innerShadow_4002_4182" result="effect2_innerShadow_4002_4182"/>
</filter>
<filter id="filter6_f_4002_4182" x="13.6655" y="11.4385" width="3.76843" height="4.7627" filterUnits="userSpaceOnUse" color-interpolation-filters="sRGB">
<feFlood flood-opacity="0" result="BackgroundImageFix"/>
<feBlend mode="normal" in="SourceGraphic" in2="BackgroundImageFix" result="shape"/>
<feGaussianBlur stdDeviation="0.5" result="effect1_foregroundBlur_4002_4182"/>
</filter>
<filter id="filter7_f_4002_4182" x="14.6455" y="12.0424" width="2.16843" height="3.15903" filterUnits="userSpaceOnUse" color-interpolation-filters="sRGB">
<feFlood flood-opacity="0" result="BackgroundImageFix"/>
<feBlend mode="normal" in="SourceGraphic" in2="BackgroundImageFix" result="shape"/>
<feGaussianBlur stdDeviation="0.1" result="effect1_foregroundBlur_4002_4182"/>
</filter>
<filter id="filter8_ii_4002_4182" x="9.23804" y="4.26318" width="12.1162" height="8.44482" filterUnits="userSpaceOnUse" color-interpolation-filters="sRGB">
<feFlood flood-opacity="0" result="BackgroundImageFix"/>
<feBlend mode="normal" in="SourceGraphic" in2="BackgroundImageFix" result="shape"/>
<feColorMatrix in="SourceAlpha" type="matrix" values="0 0 0 0 0 0 0 0 0 0 0 0 0 0 0 0 0 0 127 0" result="hardAlpha"/>
<feOffset dy="-0.5"/>
<feGaussianBlur stdDeviation="0.625"/>
<feComposite in2="hardAlpha" operator="arithmetic" k2="-1" k3="1"/>
<feColorMatrix type="matrix" values="0 0 0 0 0.137255 0 0 0 0 0.0901961 0 0 0 0 0.145098 0 0 0 1 0"/>
<feBlend mode="normal" in2="shape" result="effect1_innerShadow_4002_4182"/>
<feColorMatrix in="SourceAlpha" type="matrix" values="0 0 0 0 0 0 0 0 0 0 0 0 0 0 0 0 0 0 127 0" result="hardAlpha"/>
<feOffset dy="-0.2"/>
<feGaussianBlur stdDeviation="0.2"/>
<feComposite in2="hardAlpha" operator="arithmetic" k2="-1" k3="1"/>
<feColorMatrix type="matrix" values="0 0 0 0 0.0784314 0 0 0 0 0.0352941 0 0 0 0 0.0470588 0 0 0 1 0"/>
<feBlend mode="normal" in2="effect1_innerShadow_4002_4182" result="effect2_innerShadow_4002_4182"/>
</filter>
<filter id="filter9_i_4002_4182" x="16.8834" y="9.53877" width="2.23702" height="1.05107" filterUnits="userSpaceOnUse" color-interpolation-filters="sRGB">
<feFlood flood-opacity="0" result="BackgroundImageFix"/>
<feBlend mode="normal" in="SourceGraphic" in2="BackgroundImageFix" result="shape"/>
<feColorMatrix in="SourceAlpha" type="matrix" values="0 0 0 0 0 0 0 0 0 0 0 0 0 0 0 0 0 0 127 0" result="hardAlpha"/>
<feOffset dx="0.1" dy="-0.2"/>
<feGaussianBlur stdDeviation="0.125"/>
<feComposite in2="hardAlpha" operator="arithmetic" k2="-1" k3="1"/>
<feColorMatrix type="matrix" values="0 0 0 0 0.0588235 0 0 0 0 0.054902 0 0 0 0 0.0588235 0 0 0 1 0"/>
<feBlend mode="normal" in2="shape" result="effect1_innerShadow_4002_4182"/>
</filter>
<filter id="filter10_i_4002_4182" x="11.9725" y="9.88569" width="2.17587" height="1.23125" filterUnits="userSpaceOnUse" color-interpolation-filters="sRGB">
<feFlood flood-opacity="0" result="BackgroundImageFix"/>
<feBlend mode="normal" in="SourceGraphic" in2="BackgroundImageFix" result="shape"/>
<feColorMatrix in="SourceAlpha" type="matrix" values="0 0 0 0 0 0 0 0 0 0 0 0 0 0 0 0 0 0 127 0" result="hardAlpha"/>
<feOffset dx="0.1" dy="-0.2"/>
<feGaussianBlur stdDeviation="0.125"/>
<feComposite in2="hardAlpha" operator="arithmetic" k2="-1" k3="1"/>
<feColorMatrix type="matrix" values="0 0 0 0 0.0588235 0 0 0 0 0.054902 0 0 0 0 0.0588235 0 0 0 1 0"/>
<feBlend mode="normal" in2="shape" result="effect1_innerShadow_4002_4182"/>
</filter>
<filter id="filter11_if_4002_4182" x="9.30927" y="5.1394" width="6.61823" height="6.50244" filterUnits="userSpaceOnUse" color-interpolation-filters="sRGB">
<feFlood flood-opacity="0" result="BackgroundImageFix"/>
<feBlend mode="normal" in="SourceGraphic" in2="BackgroundImageFix" result="shape"/>
<feColorMatrix in="SourceAlpha" type="matrix" values="0 0 0 0 0 0 0 0 0 0 0 0 0 0 0 0 0 0 127 0" result="hardAlpha"/>
<feOffset dx="0.4" dy="0.2"/>
<feGaussianBlur stdDeviation="0.2"/>
<feComposite in2="hardAlpha" operator="arithmetic" k2="-1" k3="1"/>
<feColorMatrix type="matrix" values="0 0 0 0 0.286275 0 0 0 0 0.243137 0 0 0 0 0.227451 0 0 0 1 0"/>
<feBlend mode="normal" in2="shape" result="effect1_innerShadow_4002_4182"/>
<feGaussianBlur stdDeviation="0.25" result="effect2_foregroundBlur_4002_4182"/>
</filter>
<filter id="filter12_if_4002_4182" x="14.7866" y="5.49829" width="6.5722" height="5.58374" filterUnits="userSpaceOnUse" color-interpolation-filters="sRGB">
<feFlood flood-opacity="0" result="BackgroundImageFix"/>
<feBlend mode="normal" in="SourceGraphic" in2="BackgroundImageFix" result="shape"/>
<feColorMatrix in="SourceAlpha" type="matrix" values="0 0 0 0 0 0 0 0 0 0 0 0 0 0 0 0 0 0 127 0" result="hardAlpha"/>
<feOffset dx="-0.1" dy="0.2"/>
<feComposite in2="hardAlpha" operator="arithmetic" k2="-1" k3="1"/>
<feColorMatrix type="matrix" values="0 0 0 0 0.329412 0 0 0 0 0.305882 0 0 0 0 0.313726 0 0 0 1 0"/>
<feBlend mode="normal" in2="shape" result="effect1_innerShadow_4002_4182"/>
<feGaussianBlur stdDeviation="0.25" result="effect2_foregroundBlur_4002_4182"/>
</filter>
<filter id="filter13_f_4002_4182" x="16.9194" y="11.7704" width="0.729358" height="0.693408" filterUnits="userSpaceOnUse" color-interpolation-filters="sRGB">
<feFlood flood-opacity="0" result="BackgroundImageFix"/>
<feBlend mode="normal" in="SourceGraphic" in2="BackgroundImageFix" result="shape"/>
<feGaussianBlur stdDeviation="0.05" result="effect1_foregroundBlur_4002_4182"/>
</filter>
<filter id="filter14_f_4002_4182" x="17.7095" y="11.7778" width="0.875281" height="0.893408" filterUnits="userSpaceOnUse" color-interpolation-filters="sRGB">
<feFlood flood-opacity="0" result="BackgroundImageFix"/>
<feBlend mode="normal" in="SourceGraphic" in2="BackgroundImageFix" result="shape"/>
<feGaussianBlur stdDeviation="0.1" result="effect1_foregroundBlur_4002_4182"/>
</filter>
<filter id="filter15_f_4002_4182" x="13.5275" y="12.0534" width="0.969519" height="1.00864" filterUnits="userSpaceOnUse" color-interpolation-filters="sRGB">
<feFlood flood-opacity="0" result="BackgroundImageFix"/>
<feBlend mode="normal" in="SourceGraphic" in2="BackgroundImageFix" result="shape"/>
<feGaussianBlur stdDeviation="0.1" result="effect1_foregroundBlur_4002_4182"/>
</filter>
<filter id="filter16_f_4002_4182" x="12.8221" y="12.086" width="0.849658" height="0.703418" filterUnits="userSpaceOnUse" color-interpolation-filters="sRGB">
<feFlood flood-opacity="0" result="BackgroundImageFix"/>
<feBlend mode="normal" in="SourceGraphic" in2="BackgroundImageFix" result="shape"/>
<feGaussianBlur stdDeviation="0.05" result="effect1_foregroundBlur_4002_4182"/>
</filter>
<filter id="filter17_f_4002_4182" x="9.92188" y="12.209" width="1.35413" height="2.2605" filterUnits="userSpaceOnUse" color-interpolation-filters="sRGB">
<feFlood flood-opacity="0" result="BackgroundImageFix"/>
<feBlend mode="normal" in="SourceGraphic" in2="BackgroundImageFix" result="shape"/>
<feGaussianBlur stdDeviation="0.125" result="effect1_foregroundBlur_4002_4182"/>
</filter>
<filter id="filter18_f_4002_4182" x="19.8076" y="11.1768" width="1.86078" height="2.79761" filterUnits="userSpaceOnUse" color-interpolation-filters="sRGB">
<feFlood flood-opacity="0" result="BackgroundImageFix"/>
<feBlend mode="normal" in="SourceGraphic" in2="BackgroundImageFix" result="shape"/>
<feGaussianBlur stdDeviation="0.25" result="effect1_foregroundBlur_4002_4182"/>
</filter>
<filter id="filter19_f_4002_4182" x="11.8718" y="9.95166" width="2.2771" height="1.24146" filterUnits="userSpaceOnUse" color-interpolation-filters="sRGB">
<feFlood flood-opacity="0" result="BackgroundImageFix"/>
<feBlend mode="normal" in="SourceGraphic" in2="BackgroundImageFix" result="shape"/>
<feGaussianBlur stdDeviation="0.125" result="effect1_foregroundBlur_4002_4182"/>
</filter>
<filter id="filter20_f_4002_4182" x="16.802" y="9.58032" width="2.33502" height="1.04297" filterUnits="userSpaceOnUse" color-interpolation-filters="sRGB">
<feFlood flood-opacity="0" result="BackgroundImageFix"/>
<feBlend mode="normal" in="SourceGraphic" in2="BackgroundImageFix" result="shape"/>
<feGaussianBlur stdDeviation="0.125" result="effect1_foregroundBlur_4002_4182"/>
</filter>
<filter id="filter21_f_4002_4182" x="2.43987" y="13.9187" width="3.43142" height="2.25771" filterUnits="userSpaceOnUse" color-interpolation-filters="sRGB">
<feFlood flood-opacity="0" result="BackgroundImageFix"/>
<feBlend mode="normal" in="SourceGraphic" in2="BackgroundImageFix" result="shape"/>
<feGaussianBlur stdDeviation="0.15" result="effect1_foregroundBlur_4002_4182"/>
</filter>
<filter id="filter22_f_4002_4182" x="14.8749" y="15.2672" width="1.88005" height="1.86333" filterUnits="userSpaceOnUse" color-interpolation-filters="sRGB">
<feFlood flood-opacity="0" result="BackgroundImageFix"/>
<feBlend mode="normal" in="SourceGraphic" in2="BackgroundImageFix" result="shape"/>
<feGaussianBlur stdDeviation="0.05" result="effect1_foregroundBlur_4002_4182"/>
</filter>
<filter id="filter23_f_4002_4182" x="8.34612" y="18.8484" width="4.65627" height="7.65615" filterUnits="userSpaceOnUse" color-interpolation-filters="sRGB">
<feFlood flood-opacity="0" result="BackgroundImageFix"/>
<feBlend mode="normal" in="SourceGraphic" in2="BackgroundImageFix" result="shape"/>
<feGaussianBlur stdDeviation="0.4" result="effect1_foregroundBlur_4002_4182"/>
</filter>
<filter id="filter24_f_4002_4182" x="15.8217" y="5.96445" width="5.21648" height="2.80571" filterUnits="userSpaceOnUse" color-interpolation-filters="sRGB">
<feFlood flood-opacity="0" result="BackgroundImageFix"/>
<feBlend mode="normal" in="SourceGraphic" in2="BackgroundImageFix" result="shape"/>
<feGaussianBlur stdDeviation="0.3" result="effect1_foregroundBlur_4002_4182"/>
</filter>
<filter id="filter25_f_4002_4182" x="5.61718" y="15.3282" width="2.54299" height="1.19131" filterUnits="userSpaceOnUse" color-interpolation-filters="sRGB">
<feFlood flood-opacity="0" result="BackgroundImageFix"/>
<feBlend mode="normal" in="SourceGraphic" in2="BackgroundImageFix" result="shape"/>
<feGaussianBlur stdDeviation="0.15" result="effect1_foregroundBlur_4002_4182"/>
</filter>
<filter id="filter26_f_4002_4182" x="24.9906" y="15.1624" width="2.84683" height="0.976953" filterUnits="userSpaceOnUse" color-interpolation-filters="sRGB">
<feFlood flood-opacity="0" result="BackgroundImageFix"/>
<feBlend mode="normal" in="SourceGraphic" in2="BackgroundImageFix" result="shape"/>
<feGaussianBlur stdDeviation="0.15" result="effect1_foregroundBlur_4002_4182"/>
</filter>
<linearGradient id="paint0_linear_4002_4182" x1="3.68375" y1="12.9248" x2="6.398" y2="12.9248" gradientUnits="userSpaceOnUse">
<stop stop-color="#422D2B"/>
<stop offset="1" stop-color="#40302F"/>
</linearGradient>
<linearGradient id="paint1_linear_4002_4182" x1="3.99031" y1="12.0325" x2="6.14644" y2="14.1819" gradientUnits="userSpaceOnUse">
<stop stop-color="#5B4B4B"/>
<stop offset="1" stop-color="#5B4B4B" stop-opacity="0"/>
</linearGradient>
<linearGradient id="paint2_linear_4002_4182" x1="2.56831" y1="13.3689" x2="4.992" y2="13.3689" gradientUnits="userSpaceOnUse">
<stop stop-color="#422D2B"/>
<stop offset="1" stop-color="#40302F"/>
</linearGradient>
<linearGradient id="paint3_linear_4002_4182" x1="2.92297" y1="12.3023" x2="5.33313" y2="14.5161" gradientUnits="userSpaceOnUse">
<stop stop-color="#5B4B4B"/>
<stop offset="1" stop-color="#5B4B4B" stop-opacity="0"/>
</linearGradient>
<linearGradient id="paint4_linear_4002_4182" x1="2.64154" y1="14.2258" x2="5.43271" y2="14.2258" gradientUnits="userSpaceOnUse">
<stop stop-color="#422D2B"/>
<stop offset="1" stop-color="#40302F"/>
</linearGradient>
<linearGradient id="paint5_linear_4002_4182" x1="2.84743" y1="13.2936" x2="5.43862" y2="15.2926" gradientUnits="userSpaceOnUse">
<stop stop-color="#5B4B4B"/>
<stop offset="1" stop-color="#5B4B4B" stop-opacity="0"/>
</linearGradient>
<linearGradient id="paint6_linear_4002_4182" x1="2.95554" y1="15.0985" x2="5.75241" y2="15.0985" gradientUnits="userSpaceOnUse">
<stop stop-color="#422D2B"/>
<stop offset="1" stop-color="#40302F"/>
</linearGradient>
<linearGradient id="paint7_linear_4002_4182" x1="8.48265" y1="15.5765" x2="7.64171" y2="15.5765" gradientUnits="userSpaceOnUse">
<stop offset="0.00547168" stop-color="#4D4342"/>
<stop offset="1" stop-color="#4D4342" stop-opacity="0"/>
</linearGradient>
<radialGradient id="paint8_radial_4002_4182" cx="0" cy="0" r="1" gradientUnits="userSpaceOnUse" gradientTransform="translate(6.78394 11.3435) rotate(120.958) scale(1.01355 1.1912)">
<stop stop-color="#4D3E3C"/>
<stop offset="1" stop-color="#4D3E3C" stop-opacity="0"/>
</radialGradient>
<linearGradient id="paint9_linear_4002_4182" x1="23.5227" y1="15.4755" x2="24.3203" y2="15.4755" gradientUnits="userSpaceOnUse">
<stop stop-color="#382020"/>
<stop offset="1" stop-color="#382020" stop-opacity="0"/>
</linearGradient>
<radialGradient id="paint10_radial_4002_4182" cx="0" cy="0" r="1" gradientUnits="userSpaceOnUse" gradientTransform="translate(26 11.5936) rotate(-33.0793) scale(1.01629 0.489281)">
<stop offset="0.116153" stop-color="#665554"/>
<stop offset="1" stop-color="#665554" stop-opacity="0"/>
</radialGradient>
<linearGradient id="paint11_linear_4002_4182" x1="28.1187" y1="13.7339" x2="25.4253" y2="13.693" gradientUnits="userSpaceOnUse">
<stop stop-color="#4B3230"/>
<stop offset="1" stop-color="#4E3533"/>
</linearGradient>
<radialGradient id="paint12_radial_4002_4182" cx="0" cy="0" r="1" gradientUnits="userSpaceOnUse" gradientTransform="translate(26.6851 12.7945) rotate(41.6435) scale(1.44361 4.93213)">
<stop offset="0.715311" stop-color="#3D2625" stop-opacity="0"/>
<stop offset="1" stop-color="#3D2625"/>
</radialGradient>
<radialGradient id="paint13_radial_4002_4182" cx="0" cy="0" r="1" gradientUnits="userSpaceOnUse" gradientTransform="translate(27.643 13.3485) rotate(-136.326) scale(1.45051 1.63903)">
<stop stop-color="#33201D"/>
<stop offset="1" stop-color="#33201D" stop-opacity="0"/>
</radialGradient>
<radialGradient id="paint14_radial_4002_4182" cx="0" cy="0" r="1" gradientUnits="userSpaceOnUse" gradientTransform="translate(28.3203 11.8439) rotate(-53.3659) scale(0.759381 0.438416)">
<stop offset="0.116153" stop-color="#665554"/>
<stop offset="1" stop-color="#665554" stop-opacity="0"/>
</radialGradient>
<linearGradient id="paint15_linear_4002_4182" x1="29.1911" y1="14.2558" x2="26.6472" y2="14.2225" gradientUnits="userSpaceOnUse">
<stop stop-color="#4B3230"/>
<stop offset="1" stop-color="#4E3533"/>
</linearGradient>
<radialGradient id="paint16_radial_4002_4182" cx="0" cy="0" r="1" gradientUnits="userSpaceOnUse" gradientTransform="translate(27.8371 13.2276) rotate(45.8585) scale(1.46299 5.0306)">
<stop offset="0.715311" stop-color="#3D2625" stop-opacity="0"/>
<stop offset="1" stop-color="#3D2625"/>
</radialGradient>
<radialGradient id="paint17_radial_4002_4182" cx="0" cy="0" r="1" gradientUnits="userSpaceOnUse" gradientTransform="translate(28.7419 13.834) rotate(-132.109) scale(1.4777 1.66303)">
<stop stop-color="#33201D"/>
<stop offset="1" stop-color="#33201D" stop-opacity="0"/>
</radialGradient>
<radialGradient id="paint18_radial_4002_4182" cx="0" cy="0" r="1" gradientUnits="userSpaceOnUse" gradientTransform="translate(29.3985 12.2032) rotate(-39.8056) scale(0.854246 0.493129)">
<stop offset="0.116153" stop-color="#665554"/>
<stop offset="1" stop-color="#665554" stop-opacity="0"/>
</radialGradient>
<linearGradient id="paint19_linear_4002_4182" x1="29.1642" y1="15.0166" x2="26.3945" y2="14.9723" gradientUnits="userSpaceOnUse">
<stop stop-color="#4B3230"/>
<stop offset="1" stop-color="#4E3533"/>
</linearGradient>
<radialGradient id="paint20_radial_4002_4182" cx="0" cy="0" r="1" gradientUnits="userSpaceOnUse" gradientTransform="translate(27.6899 14.0985) rotate(40.2001) scale(1.45245 4.92664)">
<stop offset="0.715311" stop-color="#3D2625" stop-opacity="0"/>
<stop offset="1" stop-color="#3D2625"/>
</radialGradient>
<radialGradient id="paint21_radial_4002_4182" cx="0" cy="0" r="1" gradientUnits="userSpaceOnUse" gradientTransform="translate(28.675 14.6399) rotate(-137.781) scale(1.45679 1.64014)">
<stop stop-color="#33201D"/>
<stop offset="1" stop-color="#33201D" stop-opacity="0"/>
</radialGradient>
<radialGradient id="paint22_radial_4002_4182" cx="0" cy="0" r="1" gradientUnits="userSpaceOnUse" gradientTransform="translate(29.5078 13.2267) rotate(-41.894) scale(0.713679 0.409979)">
<stop offset="0.116153" stop-color="#665554"/>
<stop offset="1" stop-color="#665554" stop-opacity="0"/>
</radialGradient>
<linearGradient id="paint23_linear_4002_4182" x1="28.8504" y1="15.7953" x2="26.0753" y2="15.7449" gradientUnits="userSpaceOnUse">
<stop stop-color="#503734"/>
<stop offset="1" stop-color="#4B3330"/>
</linearGradient>
<radialGradient id="paint24_radial_4002_4182" cx="0" cy="0" r="1" gradientUnits="userSpaceOnUse" gradientTransform="translate(29.2032 14.2501) rotate(-37.8464) scale(0.6876 0.385685)">
<stop offset="0.116153" stop-color="#665554"/>
<stop offset="1" stop-color="#665554" stop-opacity="0"/>
</radialGradient>
<radialGradient id="paint25_radial_4002_4182" cx="0" cy="0" r="1" gradientUnits="userSpaceOnUse" gradientTransform="translate(26.2524 16.8328) rotate(180) scale(2.59375 2.7696)">
<stop stop-color="#FE7047"/>
<stop offset="1" stop-color="#DC4724"/>
</radialGradient>
<radialGradient id="paint26_radial_4002_4182" cx="0" cy="0" r="1" gradientUnits="userSpaceOnUse" gradientTransform="translate(6.98676 16.4187) rotate(90) scale(0.71875 1.32031)">
<stop stop-color="#D45533"/>
<stop offset="1" stop-color="#CC4525"/>
</radialGradient>
<radialGradient id="paint27_radial_4002_4182" cx="0" cy="0" r="1" gradientUnits="userSpaceOnUse" gradientTransform="translate(19.5649 29.1608) rotate(-90) scale(13.75 8.9375)">
<stop offset="0.154545" stop-color="#FF7E34"/>
<stop offset="1" stop-color="#F05419"/>
</radialGradient>
<radialGradient id="paint28_radial_4002_4182" cx="0" cy="0" r="1" gradientUnits="userSpaceOnUse" gradientTransform="translate(9.62741 19.7858) rotate(132.137) scale(4.75104 1.17962)">
<stop stop-color="#FF6F3A"/>
<stop offset="1" stop-color="#FF6F3A" stop-opacity="0"/>
</radialGradient>
<radialGradient id="paint29_radial_4002_4182" cx="0" cy="0" r="1" gradientUnits="userSpaceOnUse" gradientTransform="translate(19.7837 20.1921) rotate(31.7014) scale(6.24414 1.7784)">
<stop stop-color="#FF7E32"/>
<stop offset="1" stop-color="#FF7E32" stop-opacity="0"/>
</radialGradient>
<radialGradient id="paint30_radial_4002_4182" cx="0" cy="0" r="1" gradientUnits="userSpaceOnUse" gradientTransform="translate(24.1274 26.0046) rotate(-124.363) scale(4.42924 1.56352)">
<stop stop-color="#FB4B61"/>
<stop offset="1" stop-color="#FF4412" stop-opacity="0"/>
<stop offset="1" stop-color="#FB4B61" stop-opacity="0"/>
</radialGradient>
<radialGradient id="paint31_radial_4002_4182" cx="0" cy="0" r="1" gradientUnits="userSpaceOnUse" gradientTransform="translate(26.6587 16.7227) rotate(90) scale(7.46944 4.08022)">
<stop stop-color="#FF8A36"/>
<stop offset="1" stop-color="#FF8A36" stop-opacity="0"/>
</radialGradient>
<radialGradient id="paint32_radial_4002_4182" cx="0" cy="0" r="1" gradientUnits="userSpaceOnUse" gradientTransform="translate(13.3774 18.2546) rotate(149.436) scale(4.60914 2.83955)">
<stop offset="0.221247" stop-color="#C94829"/>
<stop offset="1" stop-color="#C94829" stop-opacity="0"/>
</radialGradient>
<linearGradient id="paint33_linear_4002_4182" x1="14.8663" y1="19.5253" x2="16.7507" y2="21.1176" gradientUnits="userSpaceOnUse">
<stop offset="0.225275" stop-color="#381B1B"/>
<stop offset="1" stop-color="#58342F"/>
</linearGradient>
<radialGradient id="paint34_radial_4002_4182" cx="0" cy="0" r="1" gradientUnits="userSpaceOnUse" gradientTransform="translate(20.1712 13.7265) rotate(65.039) scale(2.03143 2.41318)">
<stop offset="0.214643" stop-color="#3C3B3C"/>
<stop offset="1" stop-color="#221C27"/>
</radialGradient>
<radialGradient id="paint35_radial_4002_4182" cx="0" cy="0" r="1" gradientUnits="userSpaceOnUse" gradientTransform="translate(10.0462 15.0084) rotate(12.8293) scale(1.45968 4.50321)">
<stop stop-color="#463C39"/>
<stop offset="0.745836" stop-color="#1B141E"/>
</radialGradient>
<radialGradient id="paint36_radial_4002_4182" cx="0" cy="0" r="1" gradientUnits="userSpaceOnUse" gradientTransform="translate(18.2707 12.9894) rotate(175.382) scale(4.93064 8.72226)">
<stop stop-color="#563B38"/>
<stop offset="1" stop-color="#3C2828"/>
</radialGradient>
<linearGradient id="paint37_linear_4002_4182" x1="20.6074" y1="14.3954" x2="16.5155" y2="14.7259" gradientUnits="userSpaceOnUse">
<stop stop-color="#563B38"/>
<stop offset="1" stop-color="#563B38" stop-opacity="0"/>
</linearGradient>
<radialGradient id="paint38_radial_4002_4182" cx="0" cy="0" r="1" gradientUnits="userSpaceOnUse" gradientTransform="translate(16.6689 7.52329) rotate(90.0859) scale(11.7568 9.73605)">
<stop offset="0.767031" stop-color="#432742" stop-opacity="0"/>
<stop offset="0.99662" stop-color="#432742"/>
</radialGradient>
<radialGradient id="paint39_radial_4002_4182" cx="0" cy="0" r="1" gradientUnits="userSpaceOnUse" gradientTransform="translate(17.8321 11.7825) rotate(-94.6179) scale(1.08307 1.34029)">
<stop offset="0.325" stop-color="#432728"/>
<stop offset="1" stop-color="#432728" stop-opacity="0"/>
</radialGradient>
<radialGradient id="paint40_radial_4002_4182" cx="0" cy="0" r="1" gradientUnits="userSpaceOnUse" gradientTransform="translate(13.3726 12.1867) rotate(-94.4121) scale(1.03207 1.12314)">
<stop offset="0.377617" stop-color="#361E27"/>
<stop offset="1" stop-color="#361E27" stop-opacity="0"/>
</radialGradient>
<radialGradient id="paint41_radial_4002_4182" cx="0" cy="0" r="1" gradientUnits="userSpaceOnUse" gradientTransform="translate(18.9333 13.8707) rotate(171.77) scale(8.02893 20.5099)">
<stop offset="0.835902" stop-color="#564440" stop-opacity="0"/>
<stop offset="1" stop-color="#564440"/>
</radialGradient>
<radialGradient id="paint42_radial_4002_4182" cx="0" cy="0" r="1" gradientUnits="userSpaceOnUse" gradientTransform="translate(10.1629 9.55156) rotate(-37.6501) scale(4.58207 1.67736)">
<stop offset="0.379603" stop-color="#231112"/>
<stop offset="1" stop-color="#231112" stop-opacity="0"/>
</radialGradient>
<radialGradient id="paint43_radial_4002_4182" cx="0" cy="0" r="1" gradientUnits="userSpaceOnUse" gradientTransform="translate(20.6222 10.039) rotate(90.7498) scale(2.36583 0.945722)">
<stop offset="0.244676" stop-color="#6B5B59"/>
<stop offset="1" stop-color="#6B5B59" stop-opacity="0"/>
</radialGradient>
<radialGradient id="paint44_radial_4002_4182" cx="0" cy="0" r="1" gradientUnits="userSpaceOnUse" gradientTransform="translate(17.5348 8.33757) rotate(116.541) scale(3.17745 2.62325)">
<stop offset="0.0780198" stop-color="#534445"/>
<stop offset="1" stop-color="#534445" stop-opacity="0"/>
</radialGradient>
<linearGradient id="paint45_linear_4002_4182" x1="16.1501" y1="19.0765" x2="16.1015" y2="18.4745" gradientUnits="userSpaceOnUse">
<stop stop-color="#49201F"/>
<stop offset="1" stop-color="#49201F" stop-opacity="0"/>
</linearGradient>
<linearGradient id="paint46_linear_4002_4182" x1="16.4531" y1="19.1874" x2="16.3281" y2="18.1718" gradientUnits="userSpaceOnUse">
<stop stop-color="#4D201F"/>
<stop offset="1" stop-color="#4D201F" stop-opacity="0"/>
</linearGradient>
<linearGradient id="paint47_linear_4002_4182" x1="16.4704" y1="13.7734" x2="15.6851" y2="13.8698" gradientUnits="userSpaceOnUse">
<stop offset="0.360477" stop-color="#66514E"/>
<stop offset="1" stop-color="#66514E" stop-opacity="0"/>
</linearGradient>
<radialGradient id="paint48_radial_4002_4182" cx="0" cy="0" r="1" gradientUnits="userSpaceOnUse" gradientTransform="translate(16.1728 14.4464) rotate(85.3821) scale(0.230225 0.723566)">
<stop stop-color="#685554"/>
<stop offset="1" stop-color="#685554" stop-opacity="0"/>
</radialGradient>
<linearGradient id="paint49_linear_4002_4182" x1="15.7689" y1="14.9079" x2="15.7336" y2="14.4708" gradientUnits="userSpaceOnUse">
<stop stop-color="#3E2230"/>
<stop offset="1" stop-color="#3E2230" stop-opacity="0"/>
</linearGradient>
<radialGradient id="paint50_radial_4002_4182" cx="0" cy="0" r="1" gradientUnits="userSpaceOnUse" gradientTransform="translate(16.2389 13.9021) rotate(150.751) scale(1.57827 2.53641)">
<stop offset="0.714105" stop-color="#3E2B29" stop-opacity="0"/>
<stop offset="1" stop-color="#3F2C2A"/>
</radialGradient>
<linearGradient id="paint51_linear_4002_4182" x1="15.5446" y1="12.1303" x2="15.605" y2="12.8788" gradientUnits="userSpaceOnUse">
<stop stop-color="#4B302A"/>
<stop offset="1" stop-color="#4B302A" stop-opacity="0"/>
</linearGradient>
<linearGradient id="paint52_linear_4002_4182" x1="21.6427" y1="7.35884" x2="10.7262" y2="8.2406" gradientUnits="userSpaceOnUse">
<stop stop-color="#443D40"/>
<stop offset="1" stop-color="#272127"/>
</linearGradient>
<radialGradient id="paint53_radial_4002_4182" cx="0" cy="0" r="1" gradientUnits="userSpaceOnUse" gradientTransform="translate(10.4953 10.8806) rotate(-94.6179) scale(3.30227 8.35106)">
<stop offset="0.535851" stop-color="#3E3433"/>
<stop offset="1" stop-color="#3E3433" stop-opacity="0"/>
</radialGradient>
<radialGradient id="paint54_radial_4002_4182" cx="0" cy="0" r="1" gradientUnits="userSpaceOnUse" gradientTransform="translate(20.0806 11.3462) rotate(-92.0191) scale(2.37214 4.20297)">
<stop stop-color="#4F4D4D"/>
<stop offset="1" stop-color="#4F4D4D" stop-opacity="0"/>
</radialGradient>
<radialGradient id="paint55_radial_4002_4182" cx="0" cy="0" r="1" gradientUnits="userSpaceOnUse" gradientTransform="translate(18.8949 5.50314) rotate(-151.285) scale(2.66278 1.95462)">
<stop stop-color="#5E5A5B"/>
<stop offset="1" stop-color="#5E5A5B" stop-opacity="0"/>
</radialGradient>
<radialGradient id="paint56_radial_4002_4182" cx="0" cy="0" r="1" gradientUnits="userSpaceOnUse" gradientTransform="translate(14.0627 4.38676) rotate(53.8473) scale(1.63218 3.77935)">
<stop offset="0.286771" stop-color="#484646"/>
<stop offset="1" stop-color="#484646" stop-opacity="0"/>
</radialGradient>
<radialGradient id="paint57_radial_4002_4182" cx="0" cy="0" r="1" gradientUnits="userSpaceOnUse" gradientTransform="translate(15.3088 6.34333) rotate(175.382) scale(2.07599 0.770481)">
<stop stop-color="#423C3F"/>
<stop offset="1" stop-color="#423C3F" stop-opacity="0"/>
</radialGradient>
<radialGradient id="paint58_radial_4002_4182" cx="0" cy="0" r="1" gradientUnits="userSpaceOnUse" gradientTransform="translate(10.2646 10.4812) rotate(-62.3423) scale(5.684 6.29729)">
<stop offset="0.0926981" stop-color="#0B0306"/>
<stop offset="0.311222" stop-color="#1C0C20"/>
<stop offset="1" stop-color="#1C0C20" stop-opacity="0"/>
</radialGradient>
<radialGradient id="paint59_radial_4002_4182" cx="0" cy="0" r="1" gradientUnits="userSpaceOnUse" gradientTransform="translate(16.912 8.48868) rotate(2.16725) scale(3.03079 1.29107)">
<stop stop-color="#200E25"/>
<stop offset="1" stop-color="#200E25" stop-opacity="0"/>
</radialGradient>
<radialGradient id="paint60_radial_4002_4182" cx="0" cy="0" r="1" gradientUnits="userSpaceOnUse" gradientTransform="translate(17.6128 12.1757) rotate(85.3821) scale(0.765195 1.21713)">
<stop offset="0.80198" stop-color="#7E574A"/>
<stop offset="1" stop-color="#694B43"/>
<stop offset="1" stop-color="#804D49"/>
<stop offset="1" stop-color="#694A44"/>
</radialGradient>
<radialGradient id="paint61_radial_4002_4182" cx="0" cy="0" r="1" gradientUnits="userSpaceOnUse" gradientTransform="translate(17.4036 12.2718) rotate(-132.43) scale(0.355889 0.489973)">
<stop offset="0.765532" stop-color="#FFE6E2" stop-opacity="0"/>
<stop offset="0.966159" stop-color="#FFE6E2"/>
</radialGradient>
<linearGradient id="paint62_linear_4002_4182" x1="18.3483" y1="12.1673" x2="18.0681" y2="12.3728" gradientUnits="userSpaceOnUse">
<stop stop-color="#B4948D"/>
<stop offset="1" stop-color="#B4948D" stop-opacity="0"/>
</linearGradient>
<radialGradient id="paint63_radial_4002_4182" cx="0" cy="0" r="1" gradientUnits="userSpaceOnUse" gradientTransform="translate(13.5103 12.507) rotate(85.3821) scale(0.765234 1.21719)">
<stop offset="0.80198" stop-color="#7E574A"/>
<stop offset="1" stop-color="#694B43"/>
<stop offset="1" stop-color="#804D49"/>
<stop offset="1" stop-color="#694A44"/>
</radialGradient>
<linearGradient id="paint64_linear_4002_4182" x1="14.2124" y1="12.5005" x2="13.9329" y2="12.7056" gradientUnits="userSpaceOnUse">
<stop stop-color="#B4948D"/>
<stop offset="1" stop-color="#B4948D" stop-opacity="0"/>
</linearGradient>
<radialGradient id="paint65_radial_4002_4182" cx="0" cy="0" r="1" gradientUnits="userSpaceOnUse" gradientTransform="translate(13.2327 12.7341) rotate(-90.897) scale(0.464885 0.558811)">
<stop offset="0.765532" stop-color="#FFE6E2" stop-opacity="0"/>
<stop offset="0.966159" stop-color="#FFE6E2"/>
</radialGradient>
<linearGradient id="paint66_linear_4002_4182" x1="21.6184" y1="11.9286" x2="20.6491" y2="14.0661" gradientUnits="userSpaceOnUse">
<stop stop-color="#62504F"/>
<stop offset="1" stop-color="#492F32"/>
</linearGradient>
<radialGradient id="paint67_radial_4002_4182" cx="0" cy="0" r="1" gradientUnits="userSpaceOnUse" gradientTransform="translate(19.9036 12.0037) rotate(69.7296) scale(2.19722 2.09632)">
<stop offset="0.856273" stop-color="#301924" stop-opacity="0"/>
<stop offset="1" stop-color="#301924"/>
</radialGradient>
<radialGradient id="paint68_radial_4002_4182" cx="0" cy="0" r="1" gradientUnits="userSpaceOnUse" gradientTransform="translate(20.2838 12.4884) rotate(-58.5377) scale(1.26163 1.0575)">
<stop offset="0.663731" stop-color="#351B1E"/>
<stop offset="1" stop-color="#351B1E" stop-opacity="0"/>
</radialGradient>
<radialGradient id="paint69_radial_4002_4182" cx="0" cy="0" r="1" gradientUnits="userSpaceOnUse" gradientTransform="translate(20.4041 12.6419) rotate(-73.881) scale(1.56357 2.08915)">
<stop offset="0.803247" stop-color="#361C1E" stop-opacity="0"/>
<stop offset="0.965916" stop-color="#361C1E"/>
</radialGradient>
<linearGradient id="paint70_linear_4002_4182" x1="10.122" y1="13.5231" x2="11.4832" y2="13.2927" gradientUnits="userSpaceOnUse">
<stop stop-color="#372425"/>
<stop offset="1" stop-color="#281919"/>
</linearGradient>
<radialGradient id="paint71_radial_4002_4182" cx="0" cy="0" r="1" gradientUnits="userSpaceOnUse" gradientTransform="translate(10.6277 12.9113) rotate(96.6299) scale(1.99635 1.96259)">
<stop offset="0.77507" stop-color="#301929" stop-opacity="0"/>
<stop offset="1" stop-color="#301929"/>
</radialGradient>
<radialGradient id="paint72_radial_4002_4182" cx="0" cy="0" r="1" gradientUnits="userSpaceOnUse" gradientTransform="translate(11.037 13.3294) rotate(165.642) scale(0.877018 0.386815)">
<stop stop-color="#2C1D22"/>
<stop offset="1" stop-color="#271416"/>
</radialGradient>
<linearGradient id="paint73_linear_4002_4182" x1="20.6485" y1="11.6491" x2="20.793" y2="13.4384" gradientUnits="userSpaceOnUse">
<stop stop-color="#4C3838"/>
<stop offset="1" stop-color="#3E2724"/>
</linearGradient>
<linearGradient id="paint74_linear_4002_4182" x1="3.1356" y1="14.321" x2="5.94341" y2="16.0022" gradientUnits="userSpaceOnUse">
<stop stop-color="#5B4B4B"/>
<stop offset="1" stop-color="#5B4B4B" stop-opacity="0"/>
</linearGradient>
<radialGradient id="paint75_radial_4002_4182" cx="0" cy="0" r="1" gradientUnits="userSpaceOnUse" gradientTransform="translate(15.452 16.8787) rotate(-74.4834) scale(1.09356 0.636123)">
<stop stop-color="#5F5252"/>
<stop offset="1" stop-color="#5F5252" stop-opacity="0"/>
</radialGradient>
<linearGradient id="paint76_linear_4002_4182" x1="9.34613" y1="25.9734" x2="12.3461" y2="20.3171" gradientUnits="userSpaceOnUse">
<stop stop-color="#C13318"/>
<stop offset="1" stop-color="#C13318" stop-opacity="0"/>
</linearGradient>
<linearGradient id="paint77_linear_4002_4182" x1="7.96875" y1="15.8281" x2="7.17977" y2="14.7806" gradientUnits="userSpaceOnUse">
<stop stop-color="#5B4B4B"/>
<stop offset="1" stop-color="#5B4B4B" stop-opacity="0"/>
</linearGradient>
</defs>
</svg>
