<svg width="32" height="32" viewBox="0 0 32 32" fill="none" xmlns="http://www.w3.org/2000/svg">
<path d="M12.8585 3.77449C14.4562 3.54608 17.4482 3.55055 19.1311 3.77305C19.1504 3.7756 19.1696 3.77872 19.1887 3.78239C21.4744 4.22159 23.2648 5.16625 24.4867 6.53394C25.7137 7.9075 26.3 9.63338 26.3 11.5L26.3 11.5025L26.2934 14.1139C27.8681 14.6518 29 16.1433 29 17.9C29 19.7377 27.7611 21.2854 26.0726 21.7544C25.0913 26.6157 20.9032 29.7516 15.9878 29.7516C11.0709 29.7516 6.88119 26.6139 5.90184 21.7485C4.38213 21.1814 3.29999 19.7178 3.29999 18C3.29999 16.3595 4.28686 14.9511 5.69899 14.3336L5.7 11.5C5.70007 9.63351 6.28635 7.90741 7.51334 6.53394C8.73517 5.16625 10.5256 4.22159 12.8113 3.78239C12.827 3.77938 12.8427 3.77675 12.8585 3.77449ZM13.165 5.75104C11.221 6.12871 9.8689 6.89918 9.00485 7.86639C8.14252 8.83166 7.7 10.066 7.7 11.5L7.69873 15.0606C7.69856 15.5359 7.36385 15.9454 6.89808 16.0402C5.98602 16.2257 5.29999 17.0339 5.29999 18C5.29999 18.9856 6.01398 19.8065 6.95309 19.9702C7.38168 20.0449 7.71282 20.3881 7.7721 20.8191C8.34543 24.9871 11.7693 27.7516 15.9878 27.7516C20.2244 27.7516 23.6603 24.9633 24.2109 20.7633C24.2729 20.2904 24.6602 19.9272 25.136 19.8955C26.1766 19.8261 27 18.9588 27 17.9C27 16.8615 26.2078 16.0069 25.1955 15.9093C24.6818 15.8598 24.2901 15.4275 24.2914 14.9114L24.3 11.5C24.2998 10.0664 23.8573 8.83144 22.9952 7.86638C22.1319 6.90002 20.7814 6.13005 18.8401 5.75203C17.325 5.5563 14.566 5.55515 13.165 5.75104ZM15.2872 17.5266L14.2963 20.6961C14.0941 21.348 14.5794 22 15.2669 22H16.7331C17.4206 22 17.9059 21.338 17.7037 20.6961L16.7128 17.5266C16.5005 16.8245 15.5096 16.8245 15.2872 17.5266ZM13.417 22.7831C14.1644 23.1727 15.0538 23.3954 16 23.3954C16.9556 23.3954 17.8356 23.1727 18.583 22.7831C18.8385 22.6532 19.1129 22.9315 18.952 23.1727C18.3276 24.1191 17.2395 24.75 16 24.75C14.7605 24.75 13.6724 24.1191 13.048 23.1727C12.8871 22.9408 13.1615 22.6532 13.417 22.7831ZM10.318 18H9.92499H9.51834C9.18266 18 8.93583 17.6935 9.01481 17.3673L9.01577 17.3635L8.92497 17.3C8.52497 17 8.42498 16.5 9.02497 16.1C9.62497 15.6 10.3 15.4 11 15.4C11.0835 15.4 11.1672 15.4056 11.2508 15.4163C11.3466 15.4055 11.4438 15.4 11.5423 15.4C12.8061 15.4 13.8625 16.2996 14.0994 17.4958C14.1488 17.7627 13.9415 18 13.6749 18H13.5268C13.5663 17.8621 13.586 17.7144 13.586 17.5568C13.586 16.631 12.8455 15.8924 11.9273 15.8924C11.0091 15.8924 10.2588 16.631 10.2588 17.5568C10.2588 17.7144 10.2785 17.8523 10.318 18ZM12.8752 17.5568C12.8752 17.0348 12.4506 16.6113 11.9274 16.6113C11.7918 16.6113 11.6628 16.6398 11.5461 16.691C11.6102 16.746 11.6509 16.8282 11.6509 16.92C11.6509 17.0857 11.5183 17.22 11.3547 17.22C11.2508 17.22 11.1594 17.1658 11.1066 17.0838C11.0258 17.223 10.9796 17.3845 10.9796 17.5568C10.9796 17.7144 11.019 17.8621 11.0882 18H12.7666C12.8357 17.8621 12.8752 17.7144 12.8752 17.5568ZM20.8553 15.4304C20.7256 15.4104 20.5928 15.4 20.4577 15.4C19.1841 15.4 18.1375 16.2996 17.9006 17.4958C17.8512 17.7627 18.0585 18 18.3251 18H18.4732C18.4337 17.8621 18.414 17.7144 18.414 17.5568C18.4041 16.631 19.1545 15.8924 20.0726 15.8924C20.9908 15.8924 21.7412 16.631 21.7412 17.5568C21.7412 17.7144 21.7215 17.8523 21.682 18H22.275H22.4817C22.7738 18 22.9987 17.7678 23 17.4925L23.275 17.3C23.675 17 23.775 16.5 23.175 16.1C22.575 15.6 21.9 15.4 21.2 15.4C21.0851 15.4 20.97 15.4105 20.8553 15.4304ZM20.0627 16.6113C19.942 16.6113 19.8265 16.6339 19.7203 16.675C19.7961 16.7293 19.8456 16.8188 19.8456 16.92C19.8456 17.0857 19.7129 17.22 19.5494 17.22C19.4248 17.22 19.3182 17.1421 19.2744 17.0318C19.1737 17.182 19.1149 17.3626 19.1149 17.5568C19.1149 17.7144 19.1544 17.8621 19.2235 18H20.902C20.9711 17.8621 21.0106 17.7144 21.0106 17.5568C21.0106 17.0348 20.586 16.6113 20.0627 16.6113ZM9.65727 14.4287L9.66545 14.424C9.67369 14.4193 9.68731 14.4116 9.706 14.4015C9.74341 14.3812 9.80094 14.3512 9.87609 14.3154C10.0268 14.2436 10.2462 14.1495 10.5145 14.0638C11.0559 13.8911 11.7697 13.7612 12.5131 13.8924C12.7851 13.9404 13.0444 13.7588 13.0924 13.4869C13.1404 13.2149 12.9589 12.9556 12.6869 12.9076C11.7303 12.7388 10.8442 12.9089 10.2105 13.1112C9.8914 13.213 9.62954 13.3251 9.44583 13.4127C9.3538 13.4566 9.28086 13.4945 9.22959 13.5223C9.20395 13.5362 9.18368 13.5476 9.16912 13.5559L9.15157 13.566L9.14606 13.5693L9.14414 13.5704L9.14306 13.5711C8.90627 13.7131 8.8292 14.0204 8.97128 14.2572C9.11322 14.4938 9.42057 14.5703 9.65727 14.4287ZM22.857 13.5711L22.8559 13.5704L22.854 13.5693L22.8485 13.566L22.8309 13.5559C22.8164 13.5476 22.7961 13.5362 22.7705 13.5223C22.7192 13.4945 22.6463 13.4566 22.5542 13.4127C22.3705 13.3251 22.1087 13.213 21.7895 13.1112C21.1559 12.9089 20.2697 12.7388 19.3131 12.9076C19.0412 12.9556 18.8596 13.2149 18.9076 13.4869C18.9556 13.7588 19.215 13.9404 19.4869 13.8924C20.2303 13.7612 20.9442 13.8911 21.4855 14.0638C21.7539 14.1495 21.9733 14.2436 22.124 14.3154C22.1991 14.3512 22.2566 14.3812 22.294 14.4015C22.3127 14.4116 22.3264 14.4193 22.3346 14.424L22.3429 14.4288L22.3437 14.4293C22.5804 14.5706 22.8869 14.4937 23.0288 14.2572C23.1708 14.0204 23.0938 13.7131 22.857 13.5711Z" fill="#212121"/>
</svg>
