<svg width="32" height="32" viewBox="0 0 32 32" fill="none" xmlns="http://www.w3.org/2000/svg">
<path d="M4.08027 5C2.37925 5 1 6.37934 1 8.08034V26.0154C1 26.7697 1.17005 27.5915 1.5036 28.2942C1.52206 28.3546 1.54647 28.4138 1.57695 28.4712C2.00896 29.2842 2.66643 29.9553 3.47045 30.4038C4.2645 30.8468 5.16818 31.0542 6.07546 31.002H23.997L24.0017 31.0019C24.6527 30.9989 25.2854 30.7864 25.8063 30.3961C26.3223 30.0094 26.7015 29.4685 26.8891 28.852L30.8463 17.0314L30.8514 17.0157C30.9977 16.5535 31.0329 16.0633 30.9544 15.585C30.8758 15.1067 30.6857 14.6536 30.3993 14.2625C30.113 13.8714 29.7386 13.5533 29.3063 13.334C28.9004 13.128 28.4542 13.0145 28 13.0013V12C28 10.299 26.701 9 25 9H16.8333C16.5582 9 16.2828 8.88724 16.0742 8.68182L13.6264 6.18968L13.6182 6.18139C12.8574 5.42477 11.8283 5 10.7553 5H4.08027ZM26 13H10.8858C9.92157 13.0002 8.98087 13.2983 8.19249 13.8536C7.40413 14.4088 6.80653 15.194 6.48152 16.1019L6.4788 16.1097C4.62037 21.4389 3.58265 24.2734 3 25.7678V8.08034C3 7.48385 3.48388 7 4.08027 7H10.7553C11.2979 7 11.8183 7.21404 12.204 7.59573L14.6523 10.0884L14.6609 10.0969C15.2318 10.6642 16.0105 11 16.8333 11H25C25.5964 11 26 11.4036 26 12V13ZM4.44483 28.6572C4.29368 28.5729 4.15143 28.4751 4.01963 28.3653C4.03701 28.3413 4.0511 28.3203 4.06199 28.3036C4.10946 28.2312 4.15324 28.1524 4.19398 28.0733C4.27581 27.9143 4.37597 27.6938 4.50316 27.3904C5.0105 26.1801 6.07294 23.3473 8.36581 16.7724C8.55218 16.2542 8.89377 15.8059 9.34413 15.4887C9.79547 15.1708 10.334 15.0002 10.886 15H27.9106C28.081 15.0001 28.2494 15.0404 28.4012 15.1174C28.5532 15.1946 28.6849 15.3064 28.7856 15.444C28.8863 15.5816 28.9532 15.7409 28.9808 15.9091C29.0081 16.0751 28.9964 16.2451 28.9467 16.4056L24.9878 28.2315C24.9858 28.2372 24.984 28.2429 24.9822 28.2487C24.9806 28.2537 24.9791 28.2587 24.9776 28.2637C24.9143 28.4761 24.7844 28.6626 24.607 28.7956C24.43 28.9282 24.2152 29.0005 23.9942 29.002H6.04504C6.0235 29.002 6.00196 29.0026 5.98046 29.004C5.44588 29.0386 4.91265 28.9182 4.44483 28.6572Z" fill="#212121"/>
</svg>
