<svg width="32" height="32" viewBox="0 0 32 32" fill="none" xmlns="http://www.w3.org/2000/svg">
<path d="M20.4974 15.5L20.5417 14.9593C20.771 12.1555 21.9182 9.53381 23.8877 7.33631L23.8888 7.33503C24.0691 7.13528 24.0553 6.82098 23.845 6.63121C23.6453 6.45096 23.331 6.46472 23.1412 6.67496L20.4974 15.5ZM20.4974 15.5H21.04M20.4974 15.5H21.04M21.04 15.5H25C25.2674 15.5 25.5 15.7297 25.5 16.01C25.5 16.2839 25.2739 16.51 25 16.51H21.04H20.4973M21.04 15.5L20.4973 16.51M20.4973 16.51L20.5417 17.0509M20.4973 16.51L20.5417 17.0509M20.5417 17.0509C20.771 19.8449 21.9184 22.4661 23.8869 24.6729L23.8888 24.675M20.5417 17.0509L23.8888 24.675M23.8888 24.675C24.0688 24.8745 24.0553 25.1882 23.8458 25.3781M23.8888 24.675L23.8458 25.3781M23.8458 25.3781C23.7529 25.4609 23.6438 25.5 23.52 25.5C23.3746 25.5 23.2417 25.4449 23.141 25.3349C21.9902 24.0482 21.0922 22.5989 20.4746 21.0453C19.9528 19.7311 19.6351 18.3717 19.5388 16.9756L19.5067 16.51H19.04H12.97H12.5035L12.4712 16.9754C12.3749 18.362 12.057 19.7314 11.5354 21.0453C10.9183 22.5976 10.0207 24.0374 8.86837 25.3355C8.76781 25.4451 8.63513 25.5 8.49 25.5C8.36362 25.5 8.25716 25.4601 8.17355 25.3765L8.16449 25.3674L8.15498 25.3588C7.94471 25.1691 7.93093 24.8547 8.1112 24.655L8.11234 24.6537C10.0818 22.4562 11.229 19.8345 11.4583 17.0308L11.5026 16.49H10.96H7C6.72614 16.49 6.5 16.2639 6.5 15.99C6.5 15.7162 6.72614 15.49 7 15.49H10.97H11.5127L11.4683 14.9491C11.239 12.1551 10.0916 9.53396 8.12312 7.32718L8.12313 7.32718L8.1212 7.32503C7.94093 7.12528 7.95471 6.81098 8.16498 6.62121C8.36434 6.4413 8.67781 6.45467 8.86768 6.66376C10.0197 7.9614 10.9172 9.41056 11.5244 10.9622L11.5253 10.9645C12.0471 12.2788 12.3649 13.6383 12.4612 15.0344L12.4933 15.5H12.96H19.03H19.4965L19.5288 15.0347C19.6251 13.6481 19.943 12.2786 20.4646 10.9647C21.0825 9.41052 21.9806 7.9613 23.1412 6.675L23.8458 25.3781ZM1.5 6C1.5 3.51472 3.51472 1.5 6 1.5H26C28.4853 1.5 30.5 3.51472 30.5 6V26C30.5 28.4853 28.4853 30.5 26 30.5H6C3.51472 30.5 1.5 28.4853 1.5 26V6ZM6 2.5C4.067 2.5 2.5 4.067 2.5 6V26C2.5 27.933 4.067 29.5 6 29.5H26C27.933 29.5 29.5 27.933 29.5 26V6C29.5 4.067 27.933 2.5 26 2.5H6Z" fill="#212121" stroke="#212121"/>
</svg>
