<svg width="32" height="32" viewBox="0 0 32 32" fill="none" xmlns="http://www.w3.org/2000/svg">
<path d="M4 25.942C4 28.1739 5.76327 30 7.91837 30H24.0816C26.2367 30 28 28.0725 28 25.8406V6.4297C28 5.1297 26.4099 4.5297 25.5155 5.4297L20.9736 10H11.1617L6.5 5.4297C5.6 4.5297 4 5.1297 4 6.4297V25.942Z" fill="url(#paint0_linear_6898_5229)"/>
<path d="M4 25.942C4 28.1739 5.76327 30 7.91837 30H24.0816C26.2367 30 28 28.0725 28 25.8406V6.4297C28 5.1297 26.4099 4.5297 25.5155 5.4297L20.9736 10H11.1617L6.5 5.4297C5.6 4.5297 4 5.1297 4 6.4297V25.942Z" fill="url(#paint1_linear_6898_5229)"/>
<path d="M4 25.942C4 28.1739 5.76327 30 7.91837 30H24.0816C26.2367 30 28 28.0725 28 25.8406V6.4297C28 5.1297 26.4099 4.5297 25.5155 5.4297L20.9736 10H11.1617L6.5 5.4297C5.6 4.5297 4 5.1297 4 6.4297V25.942Z" fill="url(#paint2_linear_6898_5229)"/>
<path d="M4 25.942C4 28.1739 5.76327 30 7.91837 30H24.0816C26.2367 30 28 28.0725 28 25.8406V6.4297C28 5.1297 26.4099 4.5297 25.5155 5.4297L20.9736 10H11.1617L6.5 5.4297C5.6 4.5297 4 5.1297 4 6.4297V25.942Z" fill="url(#paint3_linear_6898_5229)"/>
<path d="M4 25.942C4 28.1739 5.76327 30 7.91837 30H24.0816C26.2367 30 28 28.0725 28 25.8406V6.4297C28 5.1297 26.4099 4.5297 25.5155 5.4297L20.9736 10H11.1617L6.5 5.4297C5.6 4.5297 4 5.1297 4 6.4297V25.942Z" fill="url(#paint4_linear_6898_5229)"/>
<path d="M4 25.942C4 28.1739 5.76327 30 7.91837 30H24.0816C26.2367 30 28 28.0725 28 25.8406V6.4297C28 5.1297 26.4099 4.5297 25.5155 5.4297L20.9736 10H11.1617L6.5 5.4297C5.6 4.5297 4 5.1297 4 6.4297V25.942Z" fill="url(#paint5_radial_6898_5229)"/>
<g filter="url(#filter0_f_6898_5229)">
<rect x="5.05408" y="21.8203" width="2.72692" height="3.69801" rx="1.36346" fill="#D67908"/>
</g>
<g filter="url(#filter1_f_6898_5229)">
<path d="M20.7508 10.2007C17.7675 10.3082 25.9773 15.1544 25.9773 15.1544L27.1023 6.09195C27.157 5.63101 26.7382 5.13844 25.8523 5.96097C25.8523 5.96097 22.0258 9.72898 21.8387 9.91319C21.6516 10.0974 21.4307 10.1621 21.1371 10.2007C20.9875 10.2203 20.9015 10.1952 20.7508 10.2007Z" fill="url(#paint6_linear_6898_5229)"/>
</g>
<path d="M6.13258 13.5034L8.93258 10.9034C9.25258 10.6034 9.25258 10.1234 8.93258 9.83344L5.9179 7.15626C5.53508 6.82032 4.74258 6.9297 4.74258 7.76344V12.9634C4.74258 13.7969 5.62258 13.9834 6.13258 13.5034Z" fill="url(#paint7_linear_6898_5229)"/>
<g filter="url(#filter2_f_6898_5229)">
<path d="M26.4909 5.65184C26.5488 5.50816 26.6882 5.41406 26.8431 5.41406V5.41406C27.0529 5.41406 27.2229 5.58411 27.2229 5.79388V8.03906L25.8055 7.35156L26.4909 5.65184Z" fill="url(#paint8_linear_6898_5229)"/>
</g>
<g filter="url(#filter3_f_6898_5229)">
<path d="M5.44611 5.72656L8.82107 8.9461C9.57518 9.66548 9.58931 10.8646 8.85236 11.6016V11.6016" stroke="#FFDF70" stroke-linecap="round"/>
</g>
<g filter="url(#filter4_f_6898_5229)">
<path d="M14.8054 20.6502L14.8697 20.6352C15.3433 20.5248 15.8366 20.5299 16.3077 20.6502V20.6502C16.8288 20.7484 17.1399 21.3457 16.6999 21.7757L16.1491 22.3773C15.8791 22.6473 15.2863 22.6473 15.0163 22.3773L14.4734 21.7757C14.0241 21.2679 14.3054 20.7601 14.8054 20.6502Z" fill="url(#paint9_linear_6898_5229)"/>
</g>
<path d="M15.2265 20.2066L15.2908 20.1916C15.7644 20.0811 16.2577 20.0862 16.7289 20.2066V20.2066C17.25 20.3047 17.561 20.902 17.121 21.332L16.5703 21.9336C16.3003 22.2036 15.7075 22.2036 15.4375 21.9336L14.8945 21.332C14.4453 20.8242 14.7265 20.3164 15.2265 20.2066Z" fill="url(#paint10_radial_6898_5229)"/>
<g filter="url(#filter5_f_6898_5229)">
<ellipse cx="16.2703" cy="20.7414" rx="0.761719" ry="0.274258" fill="url(#paint11_linear_6898_5229)"/>
</g>
<g filter="url(#filter6_f_6898_5229)">
<path d="M24.7851 22.8923L28.5898 21.0798" stroke="url(#paint12_linear_6898_5229)" stroke-width="1.2" stroke-miterlimit="10" stroke-linecap="round"/>
</g>
<g filter="url(#filter7_f_6898_5229)">
<path d="M24.7851 24.9235L26.7117 26.2891" stroke="url(#paint13_linear_6898_5229)" stroke-width="1.2" stroke-miterlimit="10" stroke-linecap="round"/>
</g>
<path d="M25.5663 22.5391L29.371 20.7266" stroke="url(#paint14_linear_6898_5229)" stroke-width="1.2" stroke-miterlimit="10" stroke-linecap="round"/>
<g filter="url(#filter8_f_6898_5229)">
<path d="M25.5663 22.7109L29.371 20.8984" stroke="#FF8485" stroke-width="0.3" stroke-miterlimit="10" stroke-linecap="round"/>
</g>
<g filter="url(#filter9_f_6898_5229)">
<ellipse cx="29.6059" cy="20.5806" rx="0.18384" ry="0.165827" transform="rotate(-22.7455 29.6059 20.5806)" fill="#FFDD86"/>
</g>
<path d="M25.5636 24.6692L29.3652 26.4883" stroke="url(#paint15_linear_6898_5229)" stroke-width="1.2" stroke-miterlimit="10" stroke-linecap="round"/>
<g filter="url(#filter10_f_6898_5229)">
<path d="M25.4984 24.5491L29.3 26.3682" stroke="#FF8485" stroke-width="0.3" stroke-miterlimit="10" stroke-linecap="round"/>
</g>
<g filter="url(#filter11_f_6898_5229)">
<ellipse cx="29.5404" cy="26.3682" rx="0.18384" ry="0.165827" transform="rotate(28.2981 29.5404 26.3682)" fill="#FFDD86"/>
</g>
<path d="M6.5281 24.681L2.72654 26.5" stroke="url(#paint16_linear_6898_5229)" stroke-width="1.2" stroke-miterlimit="10" stroke-linecap="round"/>
<g filter="url(#filter12_f_6898_5229)">
<path d="M6.59334 24.5608L2.79179 26.3799" stroke="#FF8485" stroke-width="0.3" stroke-miterlimit="10" stroke-linecap="round"/>
</g>
<g filter="url(#filter13_f_6898_5229)">
<ellipse rx="0.18384" ry="0.165827" transform="matrix(-0.942776 -0.333427 -0.333427 0.942776 6.64614 24.5049)" fill="#FFDD86"/>
</g>
<path d="M6.53973 22.5243L2.72615 20.7305" stroke="url(#paint17_linear_6898_5229)" stroke-width="1.2" stroke-miterlimit="10" stroke-linecap="round"/>
<g filter="url(#filter14_f_6898_5229)">
<path d="M6.67403 22.4988L2.86046 20.7051" stroke="#FF8485" stroke-width="0.3" stroke-miterlimit="10" stroke-linecap="round"/>
</g>
<g filter="url(#filter15_f_6898_5229)">
<ellipse rx="0.18384" ry="0.165827" transform="matrix(-0.338111 -0.941106 -0.941106 0.338111 6.75078 22.5043)" fill="#FFDD86"/>
</g>
<path d="M20.4179 23.0547C20.4179 25.4947 18.436 27.3906 15.996 27.3906C13.556 27.3906 11.6835 25.4478 11.6835 23.0078C11.6835 23.0078 13.4882 25.1406 15.996 23.0078C18.3476 25.0859 20.4179 23.0547 20.4179 23.0547Z" fill="url(#paint18_linear_6898_5229)"/>
<g filter="url(#filter16_f_6898_5229)">
<rect x="22.1024" y="10.1016" width="4.5851" height="14.1857" fill="url(#paint19_linear_6898_5229)"/>
</g>
<path d="M25.8329 13.5034L23.0329 10.9034C22.7129 10.6034 22.7129 10.1234 23.0329 9.83344L26.0476 7.15626C26.4304 6.82032 27.2229 6.9297 27.2229 7.76344V12.9634C27.2229 13.7969 26.3429 13.9834 25.8329 13.5034Z" fill="#FFB915"/>
<path d="M25.8329 13.5034L23.0329 10.9034C22.7129 10.6034 22.7129 10.1234 23.0329 9.83344L26.0476 7.15626C26.4304 6.82032 27.2229 6.9297 27.2229 7.76344V12.9634C27.2229 13.7969 26.3429 13.9834 25.8329 13.5034Z" fill="url(#paint20_linear_6898_5229)"/>
<g filter="url(#filter17_f_6898_5229)">
<path d="M26.6336 7.36719L23.0086 10.4922L26.5555 13.3047L26.6336 7.36719Z" fill="url(#paint21_radial_6898_5229)"/>
</g>
<g filter="url(#filter18_f_6898_5229)">
<path d="M23.7274 10.2891L26.2586 13.0234" stroke="url(#paint22_linear_6898_5229)" stroke-width="0.5" stroke-linecap="round"/>
</g>
<g filter="url(#filter19_f_6898_5229)">
<path d="M5.22321 7.49927V13.407L8.69196 10.3176L5.22321 7.49927Z" fill="#FEB33E"/>
</g>
<g filter="url(#filter20_f_6898_5229)">
<path d="M5.22321 7.72656V12.9141" stroke="#FFE7A3" stroke-width="0.15" stroke-linecap="round"/>
</g>
<g filter="url(#filter21_f_6898_5229)">
<ellipse cx="21.5391" cy="19.3672" rx="0.164062" ry="0.226562" fill="#715167"/>
</g>
<g filter="url(#filter22_f_6898_5229)">
<path d="M18.9419 21.5238C18.8105 21.552 18.6767 21.5028 18.5893 21.4007C17.7887 20.4652 16.5112 18.6475 16.3713 16.7188C16.0823 14.2266 18.9338 13.2578 20.1292 15.0156C20.2315 15.1661 20.3594 15.3681 20.4569 15.5514C20.5353 15.6986 20.7338 15.7704 20.8819 15.6937C21.1137 15.5737 21.4034 15.4403 21.5979 15.3828C23.2477 14.8954 25.3401 16.8516 23.4651 19.1016C22.6998 20.1538 20.1672 21.2615 18.9419 21.5238Z" fill="url(#paint23_linear_6898_5229)"/>
</g>
<g filter="url(#filter23_f_6898_5229)">
<path d="M11.7869 20.893C11.7052 20.9998 11.5706 21.0491 11.4379 21.0274C10.3124 20.8435 8.34044 20.3234 7.09692 19.0537C5.40579 17.4696 6.83761 15.0849 8.72924 15.6105C8.88405 15.6535 9.0834 15.7157 9.25627 15.7831C9.41167 15.8437 9.61018 15.7697 9.67425 15.6157C9.76493 15.3977 9.88446 15.1439 9.98367 14.9928C10.8557 13.6645 13.498 13.7946 13.5192 16.4996C13.6073 17.6922 12.4946 19.9681 11.7869 20.893Z" fill="url(#paint24_linear_6898_5229)"/>
</g>
<path d="M19.9419 20.5238C19.8105 20.552 19.6767 20.5028 19.5893 20.4007C18.7887 19.4652 17.5112 17.6475 17.3713 15.7188C17.0823 13.2266 19.9338 12.2578 21.1292 14.0156C21.2315 14.1661 21.3594 14.3681 21.4569 14.5514C21.5353 14.6986 21.7338 14.7704 21.8819 14.6937C22.1137 14.5737 22.4034 14.4403 22.5979 14.3828C24.2477 13.8954 26.3401 15.8516 24.4651 18.1016C23.6998 19.1538 21.1672 20.2615 19.9419 20.5238Z" fill="url(#paint25_radial_6898_5229)"/>
<path d="M19.9419 20.5238C19.8105 20.552 19.6767 20.5028 19.5893 20.4007C18.7887 19.4652 17.5112 17.6475 17.3713 15.7188C17.0823 13.2266 19.9338 12.2578 21.1292 14.0156C21.2315 14.1661 21.3594 14.3681 21.4569 14.5514C21.5353 14.6986 21.7338 14.7704 21.8819 14.6937C22.1137 14.5737 22.4034 14.4403 22.5979 14.3828C24.2477 13.8954 26.3401 15.8516 24.4651 18.1016C23.6998 19.1538 21.1672 20.2615 19.9419 20.5238Z" fill="url(#paint26_radial_6898_5229)"/>
<path d="M19.9419 20.5238C19.8105 20.552 19.6767 20.5028 19.5893 20.4007C18.7887 19.4652 17.5112 17.6475 17.3713 15.7188C17.0823 13.2266 19.9338 12.2578 21.1292 14.0156C21.2315 14.1661 21.3594 14.3681 21.4569 14.5514C21.5353 14.6986 21.7338 14.7704 21.8819 14.6937C22.1137 14.5737 22.4034 14.4403 22.5979 14.3828C24.2477 13.8954 26.3401 15.8516 24.4651 18.1016C23.6998 19.1538 21.1672 20.2615 19.9419 20.5238Z" fill="url(#paint27_radial_6898_5229)"/>
<path d="M19.9419 20.5238C19.8105 20.552 19.6767 20.5028 19.5893 20.4007C18.7887 19.4652 17.5112 17.6475 17.3713 15.7188C17.0823 13.2266 19.9338 12.2578 21.1292 14.0156C21.2315 14.1661 21.3594 14.3681 21.4569 14.5514C21.5353 14.6986 21.7338 14.7704 21.8819 14.6937C22.1137 14.5737 22.4034 14.4403 22.5979 14.3828C24.2477 13.8954 26.3401 15.8516 24.4651 18.1016C23.6998 19.1538 21.1672 20.2615 19.9419 20.5238Z" fill="url(#paint28_radial_6898_5229)"/>
<g filter="url(#filter24_f_6898_5229)">
<path d="M20.6135 18.0312L21.3792 15.375C21.2542 14.7969 20.7854 14.0312 20.3479 13.7969L19.3323 14.9062L20.6135 18.0312Z" fill="url(#paint29_linear_6898_5229)"/>
</g>
<g filter="url(#filter25_f_6898_5229)">
<path d="M22.8792 16.6328L24.2932 15.1172C24.7057 15.4172 24.8635 15.9297 24.8635 16.1719L22.8792 16.6328Z" fill="url(#paint30_linear_6898_5229)"/>
</g>
<g filter="url(#filter26_f_6898_5229)">
<ellipse cx="23.1604" cy="14.6953" rx="0.382812" ry="0.246094" fill="url(#paint31_linear_6898_5229)"/>
</g>
<g filter="url(#filter27_f_6898_5229)">
<path d="M21.2773 15.3125L20.6292 17.2344" stroke="url(#paint32_linear_6898_5229)" stroke-width="0.2" stroke-linecap="round"/>
</g>
<g filter="url(#filter28_f_6898_5229)">
<path d="M21.8167 15.1719L20.8323 17.9062L23.8635 15.1719C22.851 14.5844 22.0771 14.9271 21.8167 15.1719Z" fill="url(#paint33_linear_6898_5229)"/>
</g>
<g filter="url(#filter29_f_6898_5229)">
<path d="M20.3401 13.7969L19.1135 15.0625L18.3792 14.0469C19.051 13.2734 20.0849 13.5937 20.3401 13.7969Z" fill="url(#paint34_linear_6898_5229)"/>
</g>
<path d="M12.0581 20.5289C12.1895 20.5571 12.3233 20.5079 12.4107 20.4058C13.2113 19.4703 14.4888 17.6526 14.6287 15.7239C14.9177 13.2317 12.0662 12.263 10.8708 14.0208C10.7685 14.1713 10.6406 14.3732 10.5431 14.5565C10.4647 14.7037 10.2662 14.7755 10.1181 14.6988C9.88629 14.5788 9.5966 14.4454 9.40209 14.388C7.75226 13.9005 5.65991 15.8567 7.53491 18.1067C8.30018 19.1589 10.8328 20.2667 12.0581 20.5289Z" fill="url(#paint35_radial_6898_5229)"/>
<path d="M12.0581 20.5289C12.1895 20.5571 12.3233 20.5079 12.4107 20.4058C13.2113 19.4703 14.4888 17.6526 14.6287 15.7239C14.9177 13.2317 12.0662 12.263 10.8708 14.0208C10.7685 14.1713 10.6406 14.3732 10.5431 14.5565C10.4647 14.7037 10.2662 14.7755 10.1181 14.6988C9.88629 14.5788 9.5966 14.4454 9.40209 14.388C7.75226 13.9005 5.65991 15.8567 7.53491 18.1067C8.30018 19.1589 10.8328 20.2667 12.0581 20.5289Z" fill="url(#paint36_radial_6898_5229)"/>
<path d="M12.0581 20.5289C12.1895 20.5571 12.3233 20.5079 12.4107 20.4058C13.2113 19.4703 14.4888 17.6526 14.6287 15.7239C14.9177 13.2317 12.0662 12.263 10.8708 14.0208C10.7685 14.1713 10.6406 14.3732 10.5431 14.5565C10.4647 14.7037 10.2662 14.7755 10.1181 14.6988C9.88629 14.5788 9.5966 14.4454 9.40209 14.388C7.75226 13.9005 5.65991 15.8567 7.53491 18.1067C8.30018 19.1589 10.8328 20.2667 12.0581 20.5289Z" fill="url(#paint37_radial_6898_5229)"/>
<path d="M12.0581 20.5289C12.1895 20.5571 12.3233 20.5079 12.4107 20.4058C13.2113 19.4703 14.4888 17.6526 14.6287 15.7239C14.9177 13.2317 12.0662 12.263 10.8708 14.0208C10.7685 14.1713 10.6406 14.3732 10.5431 14.5565C10.4647 14.7037 10.2662 14.7755 10.1181 14.6988C9.88629 14.5788 9.5966 14.4454 9.40209 14.388C7.75226 13.9005 5.65991 15.8567 7.53491 18.1067C8.30018 19.1589 10.8328 20.2667 12.0581 20.5289Z" fill="url(#paint38_radial_6898_5229)"/>
<g filter="url(#filter30_f_6898_5229)">
<ellipse rx="0.382812" ry="0.246094" transform="matrix(-0.997701 -0.0677696 -0.0677696 0.997701 12.5583 13.5306)" fill="url(#paint39_linear_6898_5229)"/>
</g>
<g filter="url(#filter31_f_6898_5229)">
<path d="M12.762 14.9297L13.4807 13.7891C13.8713 14.0547 14.1526 14.5391 14.1526 15.1172L12.9651 15.5391L12.762 14.9297Z" fill="url(#paint40_linear_6898_5229)"/>
</g>
<g filter="url(#filter32_f_6898_5229)">
<path d="M10.4182 15.8203L11.2307 17.8672L8.49634 15.8203C9.10571 14.5547 10.2307 15.2109 10.4182 15.8203Z" fill="url(#paint41_linear_6898_5229)"/>
</g>
<g filter="url(#filter33_f_6898_5229)">
<path d="M13.9807 15.5859C13.9182 16.1276 13.5307 17.6203 12.4807 19.2578" stroke="url(#paint42_linear_6898_5229)" stroke-width="0.25" stroke-linecap="round"/>
</g>
<defs>
<filter id="filter0_f_6898_5229" x="3.55408" y="20.3203" width="5.72693" height="6.698" filterUnits="userSpaceOnUse" color-interpolation-filters="sRGB">
<feFlood flood-opacity="0" result="BackgroundImageFix"/>
<feBlend mode="normal" in="SourceGraphic" in2="BackgroundImageFix" result="shape"/>
<feGaussianBlur stdDeviation="0.75" result="effect1_foregroundBlur_6898_5229"/>
</filter>
<filter id="filter1_f_6898_5229" x="19.098" y="4.5188" width="9.00903" height="11.6356" filterUnits="userSpaceOnUse" color-interpolation-filters="sRGB">
<feFlood flood-opacity="0" result="BackgroundImageFix"/>
<feBlend mode="normal" in="SourceGraphic" in2="BackgroundImageFix" result="shape"/>
<feGaussianBlur stdDeviation="0.5" result="effect1_foregroundBlur_6898_5229"/>
</filter>
<filter id="filter2_f_6898_5229" x="24.8055" y="4.41406" width="3.41745" height="4.625" filterUnits="userSpaceOnUse" color-interpolation-filters="sRGB">
<feFlood flood-opacity="0" result="BackgroundImageFix"/>
<feBlend mode="normal" in="SourceGraphic" in2="BackgroundImageFix" result="shape"/>
<feGaussianBlur stdDeviation="0.5" result="effect1_foregroundBlur_6898_5229"/>
</filter>
<filter id="filter3_f_6898_5229" x="2.94611" y="3.22656" width="8.94989" height="10.7286" filterUnits="userSpaceOnUse" color-interpolation-filters="sRGB">
<feFlood flood-opacity="0" result="BackgroundImageFix"/>
<feBlend mode="normal" in="SourceGraphic" in2="BackgroundImageFix" result="shape"/>
<feGaussianBlur stdDeviation="1" result="effect1_foregroundBlur_6898_5229"/>
</filter>
<filter id="filter4_f_6898_5229" x="13.7482" y="20.056" width="3.66141" height="3.02374" filterUnits="userSpaceOnUse" color-interpolation-filters="sRGB">
<feFlood flood-opacity="0" result="BackgroundImageFix"/>
<feBlend mode="normal" in="SourceGraphic" in2="BackgroundImageFix" result="shape"/>
<feGaussianBlur stdDeviation="0.25" result="effect1_foregroundBlur_6898_5229"/>
</filter>
<filter id="filter5_f_6898_5229" x="14.9086" y="19.8671" width="2.72344" height="1.74852" filterUnits="userSpaceOnUse" color-interpolation-filters="sRGB">
<feFlood flood-opacity="0" result="BackgroundImageFix"/>
<feBlend mode="normal" in="SourceGraphic" in2="BackgroundImageFix" result="shape"/>
<feGaussianBlur stdDeviation="0.3" result="effect1_foregroundBlur_6898_5229"/>
</filter>
<filter id="filter6_f_6898_5229" x="23.685" y="19.9796" width="6.00494" height="4.01282" filterUnits="userSpaceOnUse" color-interpolation-filters="sRGB">
<feFlood flood-opacity="0" result="BackgroundImageFix"/>
<feBlend mode="normal" in="SourceGraphic" in2="BackgroundImageFix" result="shape"/>
<feGaussianBlur stdDeviation="0.25" result="effect1_foregroundBlur_6898_5229"/>
</filter>
<filter id="filter7_f_6898_5229" x="23.6851" y="23.8235" width="4.12671" height="3.56561" filterUnits="userSpaceOnUse" color-interpolation-filters="sRGB">
<feFlood flood-opacity="0" result="BackgroundImageFix"/>
<feBlend mode="normal" in="SourceGraphic" in2="BackgroundImageFix" result="shape"/>
<feGaussianBlur stdDeviation="0.25" result="effect1_foregroundBlur_6898_5229"/>
</filter>
<filter id="filter8_f_6898_5229" x="24.9163" y="20.2484" width="5.10474" height="3.11255" filterUnits="userSpaceOnUse" color-interpolation-filters="sRGB">
<feFlood flood-opacity="0" result="BackgroundImageFix"/>
<feBlend mode="normal" in="SourceGraphic" in2="BackgroundImageFix" result="shape"/>
<feGaussianBlur stdDeviation="0.25" result="effect1_foregroundBlur_6898_5229"/>
</filter>
<filter id="filter9_f_6898_5229" x="28.9245" y="19.9119" width="1.36264" height="1.3374" filterUnits="userSpaceOnUse" color-interpolation-filters="sRGB">
<feFlood flood-opacity="0" result="BackgroundImageFix"/>
<feBlend mode="normal" in="SourceGraphic" in2="BackgroundImageFix" result="shape"/>
<feGaussianBlur stdDeviation="0.25" result="effect1_foregroundBlur_6898_5229"/>
</filter>
<filter id="filter10_f_6898_5229" x="24.8484" y="23.8991" width="5.10162" height="3.11908" filterUnits="userSpaceOnUse" color-interpolation-filters="sRGB">
<feFlood flood-opacity="0" result="BackgroundImageFix"/>
<feBlend mode="normal" in="SourceGraphic" in2="BackgroundImageFix" result="shape"/>
<feGaussianBlur stdDeviation="0.25" result="effect1_foregroundBlur_6898_5229"/>
</filter>
<filter id="filter11_f_6898_5229" x="28.8604" y="25.6981" width="1.35999" height="1.34009" filterUnits="userSpaceOnUse" color-interpolation-filters="sRGB">
<feFlood flood-opacity="0" result="BackgroundImageFix"/>
<feBlend mode="normal" in="SourceGraphic" in2="BackgroundImageFix" result="shape"/>
<feGaussianBlur stdDeviation="0.25" result="effect1_foregroundBlur_6898_5229"/>
</filter>
<filter id="filter12_f_6898_5229" x="2.14175" y="23.9108" width="5.10162" height="3.11908" filterUnits="userSpaceOnUse" color-interpolation-filters="sRGB">
<feFlood flood-opacity="0" result="BackgroundImageFix"/>
<feBlend mode="normal" in="SourceGraphic" in2="BackgroundImageFix" result="shape"/>
<feGaussianBlur stdDeviation="0.25" result="effect1_foregroundBlur_6898_5229"/>
</filter>
<filter id="filter13_f_6898_5229" x="5.96417" y="23.8369" width="1.36395" height="1.33594" filterUnits="userSpaceOnUse" color-interpolation-filters="sRGB">
<feFlood flood-opacity="0" result="BackgroundImageFix"/>
<feBlend mode="normal" in="SourceGraphic" in2="BackgroundImageFix" result="shape"/>
<feGaussianBlur stdDeviation="0.25" result="effect1_foregroundBlur_6898_5229"/>
</filter>
<filter id="filter14_f_6898_5229" x="2.21042" y="20.0551" width="5.11365" height="3.09381" filterUnits="userSpaceOnUse" color-interpolation-filters="sRGB">
<feFlood flood-opacity="0" result="BackgroundImageFix"/>
<feBlend mode="normal" in="SourceGraphic" in2="BackgroundImageFix" result="shape"/>
<feGaussianBlur stdDeviation="0.25" result="effect1_foregroundBlur_6898_5229"/>
</filter>
<filter id="filter15_f_6898_5229" x="6.08273" y="21.8224" width="1.33606" height="1.36389" filterUnits="userSpaceOnUse" color-interpolation-filters="sRGB">
<feFlood flood-opacity="0" result="BackgroundImageFix"/>
<feBlend mode="normal" in="SourceGraphic" in2="BackgroundImageFix" result="shape"/>
<feGaussianBlur stdDeviation="0.25" result="effect1_foregroundBlur_6898_5229"/>
</filter>
<filter id="filter16_f_6898_5229" x="18.1024" y="6.10156" width="12.5851" height="22.1857" filterUnits="userSpaceOnUse" color-interpolation-filters="sRGB">
<feFlood flood-opacity="0" result="BackgroundImageFix"/>
<feBlend mode="normal" in="SourceGraphic" in2="BackgroundImageFix" result="shape"/>
<feGaussianBlur stdDeviation="2" result="effect1_foregroundBlur_6898_5229"/>
</filter>
<filter id="filter17_f_6898_5229" x="22.4086" y="6.76719" width="4.825" height="7.1375" filterUnits="userSpaceOnUse" color-interpolation-filters="sRGB">
<feFlood flood-opacity="0" result="BackgroundImageFix"/>
<feBlend mode="normal" in="SourceGraphic" in2="BackgroundImageFix" result="shape"/>
<feGaussianBlur stdDeviation="0.3" result="effect1_foregroundBlur_6898_5229"/>
</filter>
<filter id="filter18_f_6898_5229" x="22.7274" y="9.28906" width="4.53125" height="4.73438" filterUnits="userSpaceOnUse" color-interpolation-filters="sRGB">
<feFlood flood-opacity="0" result="BackgroundImageFix"/>
<feBlend mode="normal" in="SourceGraphic" in2="BackgroundImageFix" result="shape"/>
<feGaussianBlur stdDeviation="0.375" result="effect1_foregroundBlur_6898_5229"/>
</filter>
<filter id="filter19_f_6898_5229" x="4.72321" y="6.99927" width="4.46875" height="6.90771" filterUnits="userSpaceOnUse" color-interpolation-filters="sRGB">
<feFlood flood-opacity="0" result="BackgroundImageFix"/>
<feBlend mode="normal" in="SourceGraphic" in2="BackgroundImageFix" result="shape"/>
<feGaussianBlur stdDeviation="0.25" result="effect1_foregroundBlur_6898_5229"/>
</filter>
<filter id="filter20_f_6898_5229" x="4.64819" y="7.15155" width="1.15002" height="6.33752" filterUnits="userSpaceOnUse" color-interpolation-filters="sRGB">
<feFlood flood-opacity="0" result="BackgroundImageFix"/>
<feBlend mode="normal" in="SourceGraphic" in2="BackgroundImageFix" result="shape"/>
<feGaussianBlur stdDeviation="0.25" result="effect1_foregroundBlur_6898_5229"/>
</filter>
<filter id="filter21_f_6898_5229" x="20.975" y="18.7406" width="1.12813" height="1.25313" filterUnits="userSpaceOnUse" color-interpolation-filters="sRGB">
<feFlood flood-opacity="0" result="BackgroundImageFix"/>
<feBlend mode="normal" in="SourceGraphic" in2="BackgroundImageFix" result="shape"/>
<feGaussianBlur stdDeviation="0.2" result="effect1_foregroundBlur_6898_5229"/>
</filter>
<filter id="filter22_f_6898_5229" x="15.3509" y="13.1204" width="9.85287" height="9.41132" filterUnits="userSpaceOnUse" color-interpolation-filters="sRGB">
<feFlood flood-opacity="0" result="BackgroundImageFix"/>
<feBlend mode="normal" in="SourceGraphic" in2="BackgroundImageFix" result="shape"/>
<feGaussianBlur stdDeviation="0.5" result="effect1_foregroundBlur_6898_5229"/>
</filter>
<filter id="filter23_f_6898_5229" x="5.34515" y="13.1702" width="9.17899" height="8.86224" filterUnits="userSpaceOnUse" color-interpolation-filters="sRGB">
<feFlood flood-opacity="0" result="BackgroundImageFix"/>
<feBlend mode="normal" in="SourceGraphic" in2="BackgroundImageFix" result="shape"/>
<feGaussianBlur stdDeviation="0.5" result="effect1_foregroundBlur_6898_5229"/>
</filter>
<filter id="filter24_f_6898_5229" x="18.8323" y="13.2969" width="3.04688" height="5.23438" filterUnits="userSpaceOnUse" color-interpolation-filters="sRGB">
<feFlood flood-opacity="0" result="BackgroundImageFix"/>
<feBlend mode="normal" in="SourceGraphic" in2="BackgroundImageFix" result="shape"/>
<feGaussianBlur stdDeviation="0.25" result="effect1_foregroundBlur_6898_5229"/>
</filter>
<filter id="filter25_f_6898_5229" x="22.3792" y="14.6172" width="2.98438" height="2.51562" filterUnits="userSpaceOnUse" color-interpolation-filters="sRGB">
<feFlood flood-opacity="0" result="BackgroundImageFix"/>
<feBlend mode="normal" in="SourceGraphic" in2="BackgroundImageFix" result="shape"/>
<feGaussianBlur stdDeviation="0.25" result="effect1_foregroundBlur_6898_5229"/>
</filter>
<filter id="filter26_f_6898_5229" x="22.2776" y="13.9492" width="1.76562" height="1.49219" filterUnits="userSpaceOnUse" color-interpolation-filters="sRGB">
<feFlood flood-opacity="0" result="BackgroundImageFix"/>
<feBlend mode="normal" in="SourceGraphic" in2="BackgroundImageFix" result="shape"/>
<feGaussianBlur stdDeviation="0.25" result="effect1_foregroundBlur_6898_5229"/>
</filter>
<filter id="filter27_f_6898_5229" x="20.2791" y="14.9625" width="1.34824" height="2.62195" filterUnits="userSpaceOnUse" color-interpolation-filters="sRGB">
<feFlood flood-opacity="0" result="BackgroundImageFix"/>
<feBlend mode="normal" in="SourceGraphic" in2="BackgroundImageFix" result="shape"/>
<feGaussianBlur stdDeviation="0.125" result="effect1_foregroundBlur_6898_5229"/>
</filter>
<filter id="filter28_f_6898_5229" x="20.3323" y="14.3475" width="4.03125" height="4.05878" filterUnits="userSpaceOnUse" color-interpolation-filters="sRGB">
<feFlood flood-opacity="0" result="BackgroundImageFix"/>
<feBlend mode="normal" in="SourceGraphic" in2="BackgroundImageFix" result="shape"/>
<feGaussianBlur stdDeviation="0.25" result="effect1_foregroundBlur_6898_5229"/>
</filter>
<filter id="filter29_f_6898_5229" x="17.8792" y="13.0552" width="2.96094" height="2.50732" filterUnits="userSpaceOnUse" color-interpolation-filters="sRGB">
<feFlood flood-opacity="0" result="BackgroundImageFix"/>
<feBlend mode="normal" in="SourceGraphic" in2="BackgroundImageFix" result="shape"/>
<feGaussianBlur stdDeviation="0.25" result="effect1_foregroundBlur_6898_5229"/>
</filter>
<filter id="filter30_f_6898_5229" x="11.676" y="12.7836" width="1.76462" height="1.49384" filterUnits="userSpaceOnUse" color-interpolation-filters="sRGB">
<feFlood flood-opacity="0" result="BackgroundImageFix"/>
<feBlend mode="normal" in="SourceGraphic" in2="BackgroundImageFix" result="shape"/>
<feGaussianBlur stdDeviation="0.25" result="effect1_foregroundBlur_6898_5229"/>
</filter>
<filter id="filter31_f_6898_5229" x="12.362" y="13.3891" width="2.19063" height="2.55" filterUnits="userSpaceOnUse" color-interpolation-filters="sRGB">
<feFlood flood-opacity="0" result="BackgroundImageFix"/>
<feBlend mode="normal" in="SourceGraphic" in2="BackgroundImageFix" result="shape"/>
<feGaussianBlur stdDeviation="0.2" result="effect1_foregroundBlur_6898_5229"/>
</filter>
<filter id="filter32_f_6898_5229" x="8.19634" y="14.7968" width="3.33438" height="3.37039" filterUnits="userSpaceOnUse" color-interpolation-filters="sRGB">
<feFlood flood-opacity="0" result="BackgroundImageFix"/>
<feBlend mode="normal" in="SourceGraphic" in2="BackgroundImageFix" result="shape"/>
<feGaussianBlur stdDeviation="0.15" result="effect1_foregroundBlur_6898_5229"/>
</filter>
<filter id="filter33_f_6898_5229" x="11.8557" y="14.9609" width="2.75003" height="4.92188" filterUnits="userSpaceOnUse" color-interpolation-filters="sRGB">
<feFlood flood-opacity="0" result="BackgroundImageFix"/>
<feBlend mode="normal" in="SourceGraphic" in2="BackgroundImageFix" result="shape"/>
<feGaussianBlur stdDeviation="0.25" result="effect1_foregroundBlur_6898_5229"/>
</filter>
<linearGradient id="paint0_linear_6898_5229" x1="7.90668" y1="1.34978" x2="7.90668" y2="30.99" gradientUnits="userSpaceOnUse">
<stop offset="0.288159" stop-color="#F2CC26"/>
<stop offset="0.762024" stop-color="#E99E20"/>
<stop offset="0.9925" stop-color="#E3821D"/>
<stop offset="1" stop-color="#E3801D"/>
</linearGradient>
<linearGradient id="paint1_linear_6898_5229" x1="8.83102" y1="12.033" x2="1.16971" y2="12.033" gradientUnits="userSpaceOnUse">
<stop stop-color="#E99E20" stop-opacity="0"/>
<stop offset="0.9925" stop-color="#E3821D"/>
<stop offset="1" stop-color="#E3801D"/>
</linearGradient>
<linearGradient id="paint2_linear_6898_5229" x1="26.7911" y1="12.033" x2="30.245" y2="12.033" gradientUnits="userSpaceOnUse">
<stop stop-color="#E99E20" stop-opacity="0"/>
<stop offset="0.9925" stop-color="#E3821D"/>
<stop offset="1" stop-color="#E3801D"/>
</linearGradient>
<linearGradient id="paint3_linear_6898_5229" x1="16.001" y1="-1.59459" x2="16" y2="30.99" gradientUnits="userSpaceOnUse">
<stop offset="0.77079" stop-color="#F59639" stop-opacity="0"/>
<stop offset="1" stop-color="#FF63C4"/>
</linearGradient>
<linearGradient id="paint4_linear_6898_5229" x1="16" y1="11.2521" x2="16" y2="32.475" gradientUnits="userSpaceOnUse">
<stop offset="0.854227" stop-color="white" stop-opacity="0"/>
<stop offset="0.985362" stop-color="white"/>
</linearGradient>
<radialGradient id="paint5_radial_6898_5229" cx="0" cy="0" r="1" gradientUnits="userSpaceOnUse" gradientTransform="translate(22.1755 4.47688) rotate(55.4547) scale(5.37104 10.6707)">
<stop stop-color="#FFA720"/>
<stop offset="0.921158" stop-color="#FFA720" stop-opacity="0"/>
</radialGradient>
<linearGradient id="paint6_linear_6898_5229" x1="21.9081" y1="6.85159" x2="28.1649" y2="13.6953" gradientUnits="userSpaceOnUse">
<stop stop-color="#FFA720"/>
<stop offset="1" stop-color="#FFA720" stop-opacity="0"/>
</linearGradient>
<linearGradient id="paint7_linear_6898_5229" x1="10.6023" y1="10.6172" x2="4.74258" y2="10.0703" gradientUnits="userSpaceOnUse">
<stop offset="0.437473" stop-color="#ED8C1B"/>
<stop offset="1" stop-color="#FFB03A"/>
</linearGradient>
<linearGradient id="paint8_linear_6898_5229" x1="27.0399" y1="4.96094" x2="26.4438" y2="7.30239" gradientUnits="userSpaceOnUse">
<stop offset="0.28598" stop-color="#FFE792"/>
<stop offset="1" stop-color="#FFDD65" stop-opacity="0"/>
</linearGradient>
<linearGradient id="paint9_linear_6898_5229" x1="15.7508" y1="22.3512" x2="15.0789" y2="23.4449" gradientUnits="userSpaceOnUse">
<stop stop-color="#E3900E"/>
<stop offset="1" stop-color="#EA9D26" stop-opacity="0"/>
</linearGradient>
<radialGradient id="paint10_radial_6898_5229" cx="0" cy="0" r="1" gradientUnits="userSpaceOnUse" gradientTransform="translate(16.4461 21.1797) rotate(-153.246) scale(2.11729 2.12981)">
<stop stop-color="#EA088B"/>
<stop offset="1" stop-color="#E61E27"/>
</radialGradient>
<linearGradient id="paint11_linear_6898_5229" x1="17.2036" y1="20.7414" x2="15.6801" y2="20.7414" gradientUnits="userSpaceOnUse">
<stop stop-color="white" stop-opacity="0.9"/>
<stop offset="1" stop-color="white" stop-opacity="0"/>
</linearGradient>
<linearGradient id="paint12_linear_6898_5229" x1="24.2898" y1="23.236" x2="28.0242" y2="21.3203" gradientUnits="userSpaceOnUse">
<stop stop-color="#E88105"/>
<stop offset="1" stop-color="#E37D02" stop-opacity="0"/>
</linearGradient>
<linearGradient id="paint13_linear_6898_5229" x1="24.2898" y1="24.5798" x2="28.0242" y2="26.4955" gradientUnits="userSpaceOnUse">
<stop offset="0.286458" stop-color="#DE7D07"/>
<stop offset="0.817708" stop-color="#E37D02" stop-opacity="0"/>
</linearGradient>
<linearGradient id="paint14_linear_6898_5229" x1="25.2898" y1="22.9453" x2="29.371" y2="21.0078" gradientUnits="userSpaceOnUse">
<stop offset="0.15625" stop-color="#D64A38"/>
<stop offset="1" stop-color="#FB7425"/>
</linearGradient>
<linearGradient id="paint15_linear_6898_5229" x1="25.0739" y1="24.7096" x2="29.1465" y2="26.6651" gradientUnits="userSpaceOnUse">
<stop offset="0.15625" stop-color="#D64A38"/>
<stop offset="1" stop-color="#FB7425"/>
</linearGradient>
<linearGradient id="paint16_linear_6898_5229" x1="7.01785" y1="24.7214" x2="2.94525" y2="26.6768" gradientUnits="userSpaceOnUse">
<stop offset="0.15625" stop-color="#D64A38"/>
<stop offset="1" stop-color="#FB7425"/>
</linearGradient>
<linearGradient id="paint17_linear_6898_5229" x1="6.81823" y1="22.9292" x2="2.72754" y2="21.0118" gradientUnits="userSpaceOnUse">
<stop offset="0.15625" stop-color="#D64A38"/>
<stop offset="1" stop-color="#FB7425"/>
</linearGradient>
<linearGradient id="paint18_linear_6898_5229" x1="16.0466" y1="27.5225" x2="16.0466" y2="23.1004" gradientUnits="userSpaceOnUse">
<stop stop-color="#E61E27"/>
<stop offset="1" stop-color="#672A7A"/>
</linearGradient>
<linearGradient id="paint19_linear_6898_5229" x1="23.3524" y1="10.8385" x2="22.9558" y2="22.8891" gradientUnits="userSpaceOnUse">
<stop offset="0.548257" stop-color="#FFDD65"/>
<stop offset="1" stop-color="#FFDD65" stop-opacity="0"/>
</linearGradient>
<linearGradient id="paint20_linear_6898_5229" x1="26.5398" y1="15.5078" x2="25.2898" y2="12.0391" gradientUnits="userSpaceOnUse">
<stop stop-color="#EF8A47"/>
<stop offset="1" stop-color="#EF8A47" stop-opacity="0"/>
</linearGradient>
<radialGradient id="paint21_radial_6898_5229" cx="0" cy="0" r="1" gradientUnits="userSpaceOnUse" gradientTransform="translate(22.868 7.77344) rotate(55.7389) scale(7.82686 9.38424)">
<stop stop-color="#FFDF70"/>
<stop offset="1" stop-color="#FFDF70" stop-opacity="0"/>
</radialGradient>
<linearGradient id="paint22_linear_6898_5229" x1="25.0555" y1="10.4766" x2="25.0555" y2="12.8203" gradientUnits="userSpaceOnUse">
<stop offset="0.432292" stop-color="#FFE7A3"/>
<stop offset="1" stop-color="#FFDF83" stop-opacity="0"/>
</linearGradient>
<linearGradient id="paint23_linear_6898_5229" x1="18.625" y1="20" x2="14.6875" y2="24.9375" gradientUnits="userSpaceOnUse">
<stop stop-color="#D68406"/>
<stop offset="1" stop-color="#DC8C10" stop-opacity="0"/>
</linearGradient>
<linearGradient id="paint24_linear_6898_5229" x1="10.6437" y1="20.0216" x2="10.8151" y2="25.8518" gradientUnits="userSpaceOnUse">
<stop stop-color="#DA8503"/>
<stop offset="1" stop-color="#DC8C10" stop-opacity="0"/>
</linearGradient>
<radialGradient id="paint25_radial_6898_5229" cx="0" cy="0" r="1" gradientUnits="userSpaceOnUse" gradientTransform="translate(20.6135 14.7188) rotate(99.5571) scale(6.21121 7.16765)">
<stop stop-color="#F12E52"/>
<stop offset="0.596003" stop-color="#FF3B79"/>
<stop offset="1" stop-color="#FF4EC6"/>
</radialGradient>
<radialGradient id="paint26_radial_6898_5229" cx="0" cy="0" r="1" gradientUnits="userSpaceOnUse" gradientTransform="translate(20.5823 16.3438) rotate(58.4587) scale(5.31673 8.38157)">
<stop offset="0.634872" stop-color="#FFA9BD" stop-opacity="0"/>
<stop offset="0.833898" stop-color="#FFA9BD"/>
</radialGradient>
<radialGradient id="paint27_radial_6898_5229" cx="0" cy="0" r="1" gradientUnits="userSpaceOnUse" gradientTransform="translate(22.2073 16.5625) rotate(154.537) scale(5.37886 13.2766)">
<stop offset="0.766579" stop-color="#FFA9BD" stop-opacity="0"/>
<stop offset="0.933184" stop-color="#FFA9BD"/>
</radialGradient>
<radialGradient id="paint28_radial_6898_5229" cx="0" cy="0" r="1" gradientUnits="userSpaceOnUse" gradientTransform="translate(20.5823 17.4063) rotate(-140.401) scale(6.1038 9.03079)">
<stop offset="0.649211" stop-color="#FFA9BD" stop-opacity="0"/>
<stop offset="0.909941" stop-color="#FFA9BD"/>
</radialGradient>
<linearGradient id="paint29_linear_6898_5229" x1="21.9417" y1="16" x2="18.9885" y2="11.9844" gradientUnits="userSpaceOnUse">
<stop stop-color="#FF7D9C"/>
<stop offset="1" stop-color="#F9698B" stop-opacity="0"/>
</linearGradient>
<linearGradient id="paint30_linear_6898_5229" x1="24.4104" y1="15.375" x2="23.2393" y2="15.1598" gradientUnits="userSpaceOnUse">
<stop stop-color="#FF7D9C"/>
<stop offset="1" stop-color="#F9698B" stop-opacity="0"/>
</linearGradient>
<linearGradient id="paint31_linear_6898_5229" x1="23.3088" y1="14.3555" x2="22.8301" y2="14.4064" gradientUnits="userSpaceOnUse">
<stop stop-color="#FF7D9C"/>
<stop offset="1" stop-color="#F9698B" stop-opacity="0"/>
</linearGradient>
<linearGradient id="paint32_linear_6898_5229" x1="21.2773" y1="15.2188" x2="20.6292" y2="17.5312" gradientUnits="userSpaceOnUse">
<stop stop-color="#FF99B1"/>
<stop offset="1" stop-color="#FF8AA6" stop-opacity="0"/>
</linearGradient>
<linearGradient id="paint33_linear_6898_5229" x1="21.1448" y1="16.8594" x2="22.846" y2="14.28" gradientUnits="userSpaceOnUse">
<stop stop-color="#FF365B"/>
<stop offset="1" stop-color="#E72044"/>
</linearGradient>
<linearGradient id="paint34_linear_6898_5229" x1="18.5499" y1="14.3522" x2="19.0828" y2="13.1903" gradientUnits="userSpaceOnUse">
<stop stop-color="#FF365B"/>
<stop offset="1" stop-color="#E72044"/>
</linearGradient>
<radialGradient id="paint35_radial_6898_5229" cx="0" cy="0" r="1" gradientUnits="userSpaceOnUse" gradientTransform="translate(11.8714 14.9765) rotate(106.617) scale(6.22887 7.18803)">
<stop offset="0.0194914" stop-color="#F12E52"/>
<stop offset="0.596003" stop-color="#FF3B79"/>
<stop offset="1" stop-color="#FF4EC6"/>
</radialGradient>
<radialGradient id="paint36_radial_6898_5229" cx="0" cy="0" r="1" gradientUnits="userSpaceOnUse" gradientTransform="translate(11.4177 16.3489) rotate(121.541) scale(5.31673 8.38157)">
<stop offset="0.634872" stop-color="#FFA9BD" stop-opacity="0"/>
<stop offset="0.833898" stop-color="#FFA9BD"/>
</radialGradient>
<radialGradient id="paint37_radial_6898_5229" cx="0" cy="0" r="1" gradientUnits="userSpaceOnUse" gradientTransform="translate(9.79272 16.5676) rotate(25.4627) scale(5.37886 13.2766)">
<stop offset="0.766579" stop-color="#FFA9BD" stop-opacity="0"/>
<stop offset="0.933184" stop-color="#FFA9BD"/>
</radialGradient>
<radialGradient id="paint38_radial_6898_5229" cx="0" cy="0" r="1" gradientUnits="userSpaceOnUse" gradientTransform="translate(11.4177 17.4114) rotate(-39.599) scale(6.1038 9.03079)">
<stop offset="0.649211" stop-color="#FFA9BD" stop-opacity="0"/>
<stop offset="0.909941" stop-color="#FFA9BD"/>
</radialGradient>
<linearGradient id="paint39_linear_6898_5229" x1="0.53125" y1="-0.0937499" x2="0.052469" y2="-0.042825" gradientUnits="userSpaceOnUse">
<stop stop-color="#FFAABE"/>
<stop offset="1" stop-color="#F9698B" stop-opacity="0"/>
</linearGradient>
<linearGradient id="paint40_linear_6898_5229" x1="14.012" y1="13.8984" x2="11.4785" y2="14.6932" gradientUnits="userSpaceOnUse">
<stop stop-color="#FF7D9C"/>
<stop offset="1" stop-color="#F9698B" stop-opacity="0"/>
</linearGradient>
<linearGradient id="paint41_linear_6898_5229" x1="10.9651" y1="16.6475" x2="8.8033" y2="15.0903" gradientUnits="userSpaceOnUse">
<stop stop-color="#F97292"/>
<stop offset="1" stop-color="#F46889" stop-opacity="0"/>
</linearGradient>
<linearGradient id="paint42_linear_6898_5229" x1="12.6354" y1="18.0011" x2="14.6324" y2="16.7529" gradientUnits="userSpaceOnUse">
<stop stop-color="#DD2345" stop-opacity="0"/>
<stop offset="0.544604" stop-color="#E72044"/>
<stop offset="1" stop-color="#D12847"/>
</linearGradient>
</defs>
</svg>
