<svg width="32" height="32" viewBox="0 0 32 32" fill="none" xmlns="http://www.w3.org/2000/svg">
<path d="M29 15.0746C27.73 15.0746 26.62 14.0446 26.62 12.7646C26.62 11.4512 27.7165 10.4546 29 10.4546V8.4246C29 7.5546 28.2 6.90459 27.35 7.09459L16.4103 6.3783L5.07001 12.0046C4.45001 12.1446 4 12.6946 4 13.3346V22.3446C5.17 22.3446 6.12001 23.2946 6.12001 24.4646C6.12001 25.6346 5.17 26.5846 4 26.5846V28.5946C4 29.4646 4.80001 30.1146 5.65001 29.9246L27.93 25.0146C28.55 24.8746 29 24.3246 29 23.6846C29 22.8736 29 15.3047 29 15.0746Z" fill="#FCD53F"/>
<path d="M15.74 2.56459L4.71997 12.1246L28.07 7.13459L18.29 2.24459C17.45 1.82459 16.45 1.95459 15.74 2.56459Z" fill="#FFB02E"/>
<path d="M24.4799 16.4346C24.4799 18.4615 22.8368 20.1046 20.8099 20.1046C18.783 20.1046 17.1399 18.4615 17.1399 16.4346C17.1399 14.4077 18.783 12.7646 20.8099 12.7646C22.8368 12.7646 24.4799 14.4077 24.4799 16.4346Z" fill="#FFB02E"/>
<path d="M12.61 21.9846C13.7808 21.9846 14.73 21.0354 14.73 19.8646C14.73 18.6937 13.7808 17.7446 12.61 17.7446C11.4391 17.7446 10.49 18.6937 10.49 19.8646C10.49 21.0354 11.4391 21.9846 12.61 21.9846Z" fill="#FFB02E"/>
<path d="M18.9599 23.1246C18.9599 23.7542 18.4495 24.2646 17.8199 24.2646C17.1903 24.2646 16.6799 23.7542 16.6799 23.1246C16.6799 22.495 17.1903 21.9846 17.8199 21.9846C18.4495 21.9846 18.9599 22.495 18.9599 23.1246Z" fill="#FFB02E"/>
</svg>
