<svg width="32" height="32" viewBox="0 0 32 32" fill="none" xmlns="http://www.w3.org/2000/svg">
<g filter="url(#filter0_i_20020_1647)">
<path d="M21.2379 5.41301C21.6449 4.12751 20.9338 2.75414 19.65 2.34172C18.3719 1.93111 17.001 2.62316 16.5883 3.90063C15.9378 5.91443 14.9779 8.94306 14.1736 11.7134C14.1324 11.8552 13.9326 11.8597 13.8865 11.7193C13.2865 9.89437 12.3287 6.98539 12.0304 6.10621C11.5851 4.79371 10.1435 4.16542 8.86532 4.62096C7.60173 5.07131 6.94247 6.46073 7.39282 7.72433L7.76126 8.75809C7.16073 7.81835 5.97167 7.38179 4.87639 7.77215C3.60244 8.2262 2.93777 9.62701 3.39182 10.901L4.07027 12.8046C4.306 13.5013 4.97515 15.3225 5.21837 17.6736C5.24033 17.8858 5.26174 18.1011 5.2834 18.3188C5.52755 20.7729 5.80269 23.5385 7.23657 25.8418C8.66073 28.3931 11.3872 30.1185 14.5166 30.1185C15.7576 30.1185 16.9352 29.8472 17.9933 29.3606C19.3538 28.777 20.6135 27.8796 21.5929 26.5593C22.7522 25.0869 23.1388 24.3929 23.7314 23.3289C23.8337 23.1453 23.9421 22.9506 24.0617 22.739C24.6382 21.719 25.8248 20.1278 26.5073 19.2433L28.7909 16.6632C29.7437 15.6338 29.8326 14.1142 28.6868 13.0538C27.6574 12.1011 25.9519 12.2469 24.8247 13.4911L22.5413 15.9482L25.6876 7.72694C26.1771 6.44799 25.513 5.01277 24.2256 4.54604C22.9627 4.08818 21.5595 4.72826 21.1039 5.992C20.9725 6.35663 20.8297 6.75495 20.6787 7.17931L21.2379 5.41301Z" fill="#B3857A"/>
<path d="M21.2379 5.41301C21.6449 4.12751 20.9338 2.75414 19.65 2.34172C18.3719 1.93111 17.001 2.62316 16.5883 3.90063C15.9378 5.91443 14.9779 8.94306 14.1736 11.7134C14.1324 11.8552 13.9326 11.8597 13.8865 11.7193C13.2865 9.89437 12.3287 6.98539 12.0304 6.10621C11.5851 4.79371 10.1435 4.16542 8.86532 4.62096C7.60173 5.07131 6.94247 6.46073 7.39282 7.72433L7.76126 8.75809C7.16073 7.81835 5.97167 7.38179 4.87639 7.77215C3.60244 8.2262 2.93777 9.62701 3.39182 10.901L4.07027 12.8046C4.306 13.5013 4.97515 15.3225 5.21837 17.6736C5.24033 17.8858 5.26174 18.1011 5.2834 18.3188C5.52755 20.7729 5.80269 23.5385 7.23657 25.8418C8.66073 28.3931 11.3872 30.1185 14.5166 30.1185C15.7576 30.1185 16.9352 29.8472 17.9933 29.3606C19.3538 28.777 20.6135 27.8796 21.5929 26.5593C22.7522 25.0869 23.1388 24.3929 23.7314 23.3289C23.8337 23.1453 23.9421 22.9506 24.0617 22.739C24.6382 21.719 25.8248 20.1278 26.5073 19.2433L28.7909 16.6632C29.7437 15.6338 29.8326 14.1142 28.6868 13.0538C27.6574 12.1011 25.9519 12.2469 24.8247 13.4911L22.5413 15.9482L25.6876 7.72694C26.1771 6.44799 25.513 5.01277 24.2256 4.54604C22.9627 4.08818 21.5595 4.72826 21.1039 5.992C20.9725 6.35663 20.8297 6.75495 20.6787 7.17931L21.2379 5.41301Z" fill="url(#paint0_radial_20020_1647)"/>
<path d="M21.2379 5.41301C21.6449 4.12751 20.9338 2.75414 19.65 2.34172C18.3719 1.93111 17.001 2.62316 16.5883 3.90063C15.9378 5.91443 14.9779 8.94306 14.1736 11.7134C14.1324 11.8552 13.9326 11.8597 13.8865 11.7193C13.2865 9.89437 12.3287 6.98539 12.0304 6.10621C11.5851 4.79371 10.1435 4.16542 8.86532 4.62096C7.60173 5.07131 6.94247 6.46073 7.39282 7.72433L7.76126 8.75809C7.16073 7.81835 5.97167 7.38179 4.87639 7.77215C3.60244 8.2262 2.93777 9.62701 3.39182 10.901L4.07027 12.8046C4.306 13.5013 4.97515 15.3225 5.21837 17.6736C5.24033 17.8858 5.26174 18.1011 5.2834 18.3188C5.52755 20.7729 5.80269 23.5385 7.23657 25.8418C8.66073 28.3931 11.3872 30.1185 14.5166 30.1185C15.7576 30.1185 16.9352 29.8472 17.9933 29.3606C19.3538 28.777 20.6135 27.8796 21.5929 26.5593C22.7522 25.0869 23.1388 24.3929 23.7314 23.3289C23.8337 23.1453 23.9421 22.9506 24.0617 22.739C24.6382 21.719 25.8248 20.1278 26.5073 19.2433L28.7909 16.6632C29.7437 15.6338 29.8326 14.1142 28.6868 13.0538C27.6574 12.1011 25.9519 12.2469 24.8247 13.4911L22.5413 15.9482L25.6876 7.72694C26.1771 6.44799 25.513 5.01277 24.2256 4.54604C22.9627 4.08818 21.5595 4.72826 21.1039 5.992C20.9725 6.35663 20.8297 6.75495 20.6787 7.17931L21.2379 5.41301Z" fill="url(#paint1_radial_20020_1647)"/>
<path d="M21.2379 5.41301C21.6449 4.12751 20.9338 2.75414 19.65 2.34172C18.3719 1.93111 17.001 2.62316 16.5883 3.90063C15.9378 5.91443 14.9779 8.94306 14.1736 11.7134C14.1324 11.8552 13.9326 11.8597 13.8865 11.7193C13.2865 9.89437 12.3287 6.98539 12.0304 6.10621C11.5851 4.79371 10.1435 4.16542 8.86532 4.62096C7.60173 5.07131 6.94247 6.46073 7.39282 7.72433L7.76126 8.75809C7.16073 7.81835 5.97167 7.38179 4.87639 7.77215C3.60244 8.2262 2.93777 9.62701 3.39182 10.901L4.07027 12.8046C4.306 13.5013 4.97515 15.3225 5.21837 17.6736C5.24033 17.8858 5.26174 18.1011 5.2834 18.3188C5.52755 20.7729 5.80269 23.5385 7.23657 25.8418C8.66073 28.3931 11.3872 30.1185 14.5166 30.1185C15.7576 30.1185 16.9352 29.8472 17.9933 29.3606C19.3538 28.777 20.6135 27.8796 21.5929 26.5593C22.7522 25.0869 23.1388 24.3929 23.7314 23.3289C23.8337 23.1453 23.9421 22.9506 24.0617 22.739C24.6382 21.719 25.8248 20.1278 26.5073 19.2433L28.7909 16.6632C29.7437 15.6338 29.8326 14.1142 28.6868 13.0538C27.6574 12.1011 25.9519 12.2469 24.8247 13.4911L22.5413 15.9482L25.6876 7.72694C26.1771 6.44799 25.513 5.01277 24.2256 4.54604C22.9627 4.08818 21.5595 4.72826 21.1039 5.992C20.9725 6.35663 20.8297 6.75495 20.6787 7.17931L21.2379 5.41301Z" fill="url(#paint2_radial_20020_1647)"/>
</g>
<path d="M4.95613 15.9513C7.42965 16.6558 9.29871 15.3906 10.0414 14.546L7.74273 8.72954C7.13652 7.80955 5.96052 7.38577 4.87639 7.77216C3.60244 8.2262 2.93777 9.62701 3.39182 10.901L4.07027 12.8046C4.08734 12.855 4.10668 12.9114 4.12797 12.9734C4.32394 13.5443 4.68482 14.5956 4.95613 15.9513Z" fill="url(#paint3_linear_20020_1647)"/>
<path d="M4.95613 15.9513C7.42965 16.6558 9.29871 15.3906 10.0414 14.546L7.74273 8.72954C7.13652 7.80955 5.96052 7.38577 4.87639 7.77216C3.60244 8.2262 2.93777 9.62701 3.39182 10.901L4.07027 12.8046C4.08734 12.855 4.10668 12.9114 4.12797 12.9734C4.32394 13.5443 4.68482 14.5956 4.95613 15.9513Z" fill="url(#paint4_linear_20020_1647)"/>
<path d="M4.95613 15.9513C7.42965 16.6558 9.29871 15.3906 10.0414 14.546L7.74273 8.72954C7.13652 7.80955 5.96052 7.38577 4.87639 7.77216C3.60244 8.2262 2.93777 9.62701 3.39182 10.901L4.07027 12.8046C4.08734 12.855 4.10668 12.9114 4.12797 12.9734C4.32394 13.5443 4.68482 14.5956 4.95613 15.9513Z" fill="url(#paint5_radial_20020_1647)"/>
<g filter="url(#filter1_f_20020_1647)">
<rect x="5.23132" y="9.00015" width="1.49426" height="7.58087" rx="0.747129" transform="rotate(-22.5783 5.23132 9.00015)" fill="#C69E87"/>
</g>
<path d="M13.8864 11.7193C13.8946 11.7441 13.9075 11.7643 13.9235 11.7801L14.4188 13.7612C12.8069 15.1959 10.9842 15.2361 10.2757 15.1475L10.0382 14.5495C10.0393 14.5483 10.0403 14.5471 10.0413 14.546L7.7427 8.72954C7.73036 8.71081 7.71778 8.69229 7.70498 8.67398C7.72426 8.70155 7.74301 8.72959 7.76123 8.75809L7.39279 7.72433C6.94244 6.46073 7.6017 5.07131 8.86529 4.62096C10.1434 4.16542 11.5851 4.79371 12.0304 6.10621C12.3287 6.98539 13.2865 9.89437 13.8864 11.7193Z" fill="url(#paint6_linear_20020_1647)"/>
<path d="M13.8864 11.7193C13.8946 11.7441 13.9075 11.7643 13.9235 11.7801L14.4188 13.7612C12.8069 15.1959 10.9842 15.2361 10.2757 15.1475L10.0382 14.5495C10.0393 14.5483 10.0403 14.5471 10.0413 14.546L7.7427 8.72954C7.73036 8.71081 7.71778 8.69229 7.70498 8.67398C7.72426 8.70155 7.74301 8.72959 7.76123 8.75809L7.39279 7.72433C6.94244 6.46073 7.6017 5.07131 8.86529 4.62096C10.1434 4.16542 11.5851 4.79371 12.0304 6.10621C12.3287 6.98539 13.2865 9.89437 13.8864 11.7193Z" fill="url(#paint7_radial_20020_1647)"/>
<path d="M13.8864 11.7193C13.8946 11.7441 13.9075 11.7643 13.9235 11.7801L14.4188 13.7612C12.8069 15.1959 10.9842 15.2361 10.2757 15.1475L10.0382 14.5495C10.0393 14.5483 10.0403 14.5471 10.0413 14.546L7.7427 8.72954C7.73036 8.71081 7.71778 8.69229 7.70498 8.67398C7.72426 8.70155 7.74301 8.72959 7.76123 8.75809L7.39279 7.72433C6.94244 6.46073 7.6017 5.07131 8.86529 4.62096C10.1434 4.16542 11.5851 4.79371 12.0304 6.10621C12.3287 6.98539 13.2865 9.89437 13.8864 11.7193Z" fill="url(#paint8_radial_20020_1647)"/>
<path d="M13.8864 11.7193C13.8946 11.7441 13.9075 11.7643 13.9235 11.7801L14.4188 13.7612C12.8069 15.1959 10.9842 15.2361 10.2757 15.1475L10.0382 14.5495C10.0393 14.5483 10.0403 14.5471 10.0413 14.546L7.7427 8.72954C7.73036 8.71081 7.71778 8.69229 7.70498 8.67398C7.72426 8.70155 7.74301 8.72959 7.76123 8.75809L7.39279 7.72433C6.94244 6.46073 7.6017 5.07131 8.86529 4.62096C10.1434 4.16542 11.5851 4.79371 12.0304 6.10621C12.3287 6.98539 13.2865 9.89437 13.8864 11.7193Z" fill="url(#paint9_linear_20020_1647)"/>
<path d="M13.8864 11.7193C13.8946 11.7441 13.9075 11.7643 13.9235 11.7801L14.4188 13.7612C12.8069 15.1959 10.9842 15.2361 10.2757 15.1475L10.0382 14.5495C10.0393 14.5483 10.0403 14.5471 10.0413 14.546L7.7427 8.72954C7.73036 8.71081 7.71778 8.69229 7.70498 8.67398C7.72426 8.70155 7.74301 8.72959 7.76123 8.75809L7.39279 7.72433C6.94244 6.46073 7.6017 5.07131 8.86529 4.62096C10.1434 4.16542 11.5851 4.79371 12.0304 6.10621C12.3287 6.98539 13.2865 9.89437 13.8864 11.7193Z" fill="url(#paint10_linear_20020_1647)"/>
<path d="M13.8864 11.7193C13.8946 11.7441 13.9075 11.7643 13.9235 11.7801L14.4188 13.7612C12.8069 15.1959 10.9842 15.2361 10.2757 15.1475L10.0382 14.5495C10.0393 14.5483 10.0403 14.5471 10.0413 14.546L7.7427 8.72954C7.73036 8.71081 7.71778 8.69229 7.70498 8.67398C7.72426 8.70155 7.74301 8.72959 7.76123 8.75809L7.39279 7.72433C6.94244 6.46073 7.6017 5.07131 8.86529 4.62096C10.1434 4.16542 11.5851 4.79371 12.0304 6.10621C12.3287 6.98539 13.2865 9.89437 13.8864 11.7193Z" fill="url(#paint11_radial_20020_1647)"/>
<g filter="url(#filter2_f_20020_1647)">
<rect x="9.57764" y="5.75279" width="1.49426" height="8.72563" rx="0.747129" transform="rotate(-19.1066 9.57764 5.75279)" fill="#C69E87"/>
</g>
<path d="M14.0905 11.8095C14.1736 14.4981 16.8534 15.6351 18.0315 15.2915L20.8957 6.49415L21.2379 5.41301C21.6449 4.12751 20.9338 2.75414 19.65 2.34172C18.3719 1.93111 17.001 2.62316 16.5883 3.90063C15.9378 5.91443 14.9779 8.94306 14.1736 11.7134C14.1598 11.761 14.1282 11.7931 14.0905 11.8095Z" fill="url(#paint12_linear_20020_1647)"/>
<path d="M14.0905 11.8095C14.1736 14.4981 16.8534 15.6351 18.0315 15.2915L20.8957 6.49415L21.2379 5.41301C21.6449 4.12751 20.9338 2.75414 19.65 2.34172C18.3719 1.93111 17.001 2.62316 16.5883 3.90063C15.9378 5.91443 14.9779 8.94306 14.1736 11.7134C14.1598 11.761 14.1282 11.7931 14.0905 11.8095Z" fill="url(#paint13_linear_20020_1647)"/>
<path d="M14.0905 11.8095C14.1736 14.4981 16.8534 15.6351 18.0315 15.2915L20.8957 6.49415L21.2379 5.41301C21.6449 4.12751 20.9338 2.75414 19.65 2.34172C18.3719 1.93111 17.001 2.62316 16.5883 3.90063C15.9378 5.91443 14.9779 8.94306 14.1736 11.7134C14.1598 11.761 14.1282 11.7931 14.0905 11.8095Z" fill="url(#paint14_linear_20020_1647)"/>
<path d="M14.0905 11.8095C14.1736 14.4981 16.8534 15.6351 18.0315 15.2915L20.8957 6.49415L21.2379 5.41301C21.6449 4.12751 20.9338 2.75414 19.65 2.34172C18.3719 1.93111 17.001 2.62316 16.5883 3.90063C15.9378 5.91443 14.9779 8.94306 14.1736 11.7134C14.1598 11.761 14.1282 11.7931 14.0905 11.8095Z" fill="url(#paint15_linear_20020_1647)"/>
<path d="M14.0905 11.8095C14.1736 14.4981 16.8534 15.6351 18.0315 15.2915L20.8957 6.49415L21.2379 5.41301C21.6449 4.12751 20.9338 2.75414 19.65 2.34172C18.3719 1.93111 17.001 2.62316 16.5883 3.90063C15.9378 5.91443 14.9779 8.94306 14.1736 11.7134C14.1598 11.761 14.1282 11.7931 14.0905 11.8095Z" fill="url(#paint16_radial_20020_1647)"/>
<g filter="url(#filter3_f_20020_1647)">
<rect x="19.3052" y="3.74438" width="1.49426" height="10.4519" rx="0.747129" transform="rotate(16.7632 19.3052 3.74438)" fill="url(#paint17_linear_20020_1647)"/>
</g>
<path d="M20.8061 6.777L17.9554 15.4566C18.416 16.0706 19.7427 17.3111 21.7548 17.3961C21.7548 17.3604 22.055 16.8127 22.5415 15.9479L25.6876 7.72695C26.1771 6.448 25.5131 5.01277 24.2256 4.54604C22.9627 4.08819 21.5595 4.72826 21.1039 5.99201C20.9725 6.35663 20.8297 6.75496 20.6788 7.17932L20.8061 6.777Z" fill="url(#paint18_linear_20020_1647)"/>
<path d="M20.8061 6.777L17.9554 15.4566C18.416 16.0706 19.7427 17.3111 21.7548 17.3961C21.7548 17.3604 22.055 16.8127 22.5415 15.9479L25.6876 7.72695C26.1771 6.448 25.5131 5.01277 24.2256 4.54604C22.9627 4.08819 21.5595 4.72826 21.1039 5.99201C20.9725 6.35663 20.8297 6.75496 20.6788 7.17932L20.8061 6.777Z" fill="url(#paint19_linear_20020_1647)"/>
<path d="M20.8061 6.777L17.9554 15.4566C18.416 16.0706 19.7427 17.3111 21.7548 17.3961C21.7548 17.3604 22.055 16.8127 22.5415 15.9479L25.6876 7.72695C26.1771 6.448 25.5131 5.01277 24.2256 4.54604C22.9627 4.08819 21.5595 4.72826 21.1039 5.99201C20.9725 6.35663 20.8297 6.75496 20.6788 7.17932L20.8061 6.777Z" fill="url(#paint20_radial_20020_1647)"/>
<path d="M20.8061 6.777L17.9554 15.4566C18.416 16.0706 19.7427 17.3111 21.7548 17.3961C21.7548 17.3604 22.055 16.8127 22.5415 15.9479L25.6876 7.72695C26.1771 6.448 25.5131 5.01277 24.2256 4.54604C22.9627 4.08819 21.5595 4.72826 21.1039 5.99201C20.9725 6.35663 20.8297 6.75496 20.6788 7.17932L20.8061 6.777Z" fill="url(#paint21_radial_20020_1647)"/>
<g filter="url(#filter4_f_20020_1647)">
<rect x="23.5771" y="5.83572" width="1.58857" height="10.4519" rx="0.794287" transform="rotate(20.7893 23.5771 5.83572)" fill="url(#paint22_linear_20020_1647)"/>
</g>
<g filter="url(#filter5_f_20020_1647)">
<path d="M21.1484 17.1634L22.3158 13.2719" stroke="url(#paint23_linear_20020_1647)" stroke-width="0.6" stroke-linecap="round"/>
</g>
<path d="M22.5487 15.9289L22.5409 15.9403C22.1925 17.3573 22.2208 20.1991 24.2655 22.3948C24.8855 21.3877 25.8976 20.0335 26.5073 19.2433L28.7909 16.6632C29.7436 15.6338 29.8326 14.1142 28.6868 13.0538C27.6574 12.1011 25.9519 12.2469 24.8247 13.4911L22.5413 15.9482L22.5487 15.9289Z" fill="url(#paint24_radial_20020_1647)"/>
<path d="M22.5487 15.9289L22.5409 15.9403C22.1925 17.3573 22.2208 20.1991 24.2655 22.3948C24.8855 21.3877 25.8976 20.0335 26.5073 19.2433L28.7909 16.6632C29.7436 15.6338 29.8326 14.1142 28.6868 13.0538C27.6574 12.1011 25.9519 12.2469 24.8247 13.4911L22.5413 15.9482L22.5487 15.9289Z" fill="url(#paint25_radial_20020_1647)"/>
<g filter="url(#filter6_f_20020_1647)">
<path d="M23.1329 19.2876L27.505 14.6879" stroke="url(#paint26_linear_20020_1647)" stroke-linecap="round"/>
</g>
<g filter="url(#filter7_f_20020_1647)">
<path d="M7.91711 17.1418C8.24861 16.9833 9.43914 16.0306 10.1656 15.1312" stroke="url(#paint27_linear_20020_1647)" stroke-width="0.6" stroke-linecap="round"/>
</g>
<g filter="url(#filter8_f_20020_1647)">
<path d="M11.7719 14.1831C12.135 14.1266 13.2853 13.8372 13.8457 12.9072" stroke="url(#paint28_linear_20020_1647)" stroke-width="0.6" stroke-linecap="round"/>
</g>
<g filter="url(#filter9_f_20020_1647)">
<path d="M15.1991 13.9977C15.6044 14.295 16.7232 14.8949 17.9554 14.9165" stroke="url(#paint29_linear_20020_1647)" stroke-width="0.6" stroke-linecap="round"/>
</g>
<g filter="url(#filter10_f_20020_1647)">
<path d="M18.9758 16.2231C19.3811 16.5203 20.4999 17.1202 21.7321 17.1418" stroke="url(#paint30_linear_20020_1647)" stroke-width="0.6" stroke-linecap="round"/>
</g>
<path d="M21.2202 5.41301C21.6281 4.12751 20.9154 2.75414 19.6289 2.34172C18.3481 1.93111 16.9743 2.62316 16.5607 3.90063C15.9087 5.91469 14.9466 8.94384 14.1405 11.7145C14.0993 11.8562 13.8997 11.8606 13.8535 11.7204C13.2523 9.89552 12.2921 6.98556 11.9931 6.10621C11.5468 4.79371 10.1021 4.16542 8.82126 4.62096C7.55498 5.07131 6.89431 6.46073 7.34562 7.72433L7.71484 8.75809C7.11304 7.81835 5.92145 7.38179 4.82383 7.77215C3.54716 8.2262 2.88108 9.62701 3.33609 10.901L4.01599 12.8046C4.25223 13.5013 4.9228 15.3225 5.16654 17.6736C5.18854 17.8858 5.21 18.1011 5.2317 18.3188C5.47638 20.7729 5.7521 23.5385 7.18903 25.8418C8.61623 28.3931 11.3485 30.1185 14.4846 30.1185C15.7282 30.1185 16.9083 29.8472 17.9687 29.3606C19.3321 28.777 20.5945 27.8796 21.576 26.5593C22.7377 25.0869 23.1251 24.3929 23.719 23.3289C23.8215 23.1453 23.9301 22.9506 24.05 22.739C24.6277 21.719 25.8169 20.1278 26.5008 19.2433L28.7893 16.6632C29.7441 15.6338 29.8332 14.1142 28.685 13.0538C27.6534 12.1011 25.9443 12.2469 24.8146 13.4911L22.5264 15.9482L25.6794 7.72694C26.1699 6.44799 25.5044 5.01277 24.2143 4.54604C22.9487 4.08818 21.5425 4.72826 21.0859 5.992C20.9542 6.35663 20.8111 6.75495 20.6599 7.17931L21.2202 5.41301Z" fill="url(#paint31_radial_20020_1647)"/>
<path d="M21.2202 5.41301C21.6281 4.12751 20.9154 2.75414 19.6289 2.34172C18.3481 1.93111 16.9743 2.62316 16.5607 3.90063C15.9087 5.91469 14.9466 8.94384 14.1405 11.7145C14.0993 11.8562 13.8997 11.8606 13.8535 11.7204C13.2523 9.89552 12.2921 6.98556 11.9931 6.10621C11.5468 4.79371 10.1021 4.16542 8.82126 4.62096C7.55498 5.07131 6.89431 6.46073 7.34562 7.72433L7.71484 8.75809C7.11304 7.81835 5.92145 7.38179 4.82383 7.77215C3.54716 8.2262 2.88108 9.62701 3.33609 10.901L4.01599 12.8046C4.25223 13.5013 4.9228 15.3225 5.16654 17.6736C5.18854 17.8858 5.21 18.1011 5.2317 18.3188C5.47638 20.7729 5.7521 23.5385 7.18903 25.8418C8.61623 28.3931 11.3485 30.1185 14.4846 30.1185C15.7282 30.1185 16.9083 29.8472 17.9687 29.3606C19.3321 28.777 20.5945 27.8796 21.576 26.5593C22.7377 25.0869 23.1251 24.3929 23.719 23.3289C23.8215 23.1453 23.9301 22.9506 24.05 22.739C24.6277 21.719 25.8169 20.1278 26.5008 19.2433L28.7893 16.6632C29.7441 15.6338 29.8332 14.1142 28.685 13.0538C27.6534 12.1011 25.9443 12.2469 24.8146 13.4911L22.5264 15.9482L25.6794 7.72694C26.1699 6.44799 25.5044 5.01277 24.2143 4.54604C22.9487 4.08818 21.5425 4.72826 21.0859 5.992C20.9542 6.35663 20.8111 6.75495 20.6599 7.17931L21.2202 5.41301Z" fill="url(#paint32_radial_20020_1647)"/>
<path d="M21.2202 5.41301C21.6281 4.12751 20.9154 2.75414 19.6289 2.34172C18.3481 1.93111 16.9743 2.62316 16.5607 3.90063C15.9087 5.91469 14.9466 8.94384 14.1405 11.7145C14.0993 11.8562 13.8997 11.8606 13.8535 11.7204C13.2523 9.89552 12.2921 6.98556 11.9931 6.10621C11.5468 4.79371 10.1021 4.16542 8.82126 4.62096C7.55498 5.07131 6.89431 6.46073 7.34562 7.72433L7.71484 8.75809C7.11304 7.81835 5.92145 7.38179 4.82383 7.77215C3.54716 8.2262 2.88108 9.62701 3.33609 10.901L4.01599 12.8046C4.25223 13.5013 4.9228 15.3225 5.16654 17.6736C5.18854 17.8858 5.21 18.1011 5.2317 18.3188C5.47638 20.7729 5.7521 23.5385 7.18903 25.8418C8.61623 28.3931 11.3485 30.1185 14.4846 30.1185C15.7282 30.1185 16.9083 29.8472 17.9687 29.3606C19.3321 28.777 20.5945 27.8796 21.576 26.5593C22.7377 25.0869 23.1251 24.3929 23.719 23.3289C23.8215 23.1453 23.9301 22.9506 24.05 22.739C24.6277 21.719 25.8169 20.1278 26.5008 19.2433L28.7893 16.6632C29.7441 15.6338 29.8332 14.1142 28.685 13.0538C27.6534 12.1011 25.9443 12.2469 24.8146 13.4911L22.5264 15.9482L25.6794 7.72694C26.1699 6.44799 25.5044 5.01277 24.2143 4.54604C22.9487 4.08818 21.5425 4.72826 21.0859 5.992C20.9542 6.35663 20.8111 6.75495 20.6599 7.17931L21.2202 5.41301Z" fill="url(#paint33_radial_20020_1647)"/>
<path d="M21.2202 5.41301C21.6281 4.12751 20.9154 2.75414 19.6289 2.34172C18.3481 1.93111 16.9743 2.62316 16.5607 3.90063C15.9087 5.91469 14.9466 8.94384 14.1405 11.7145C14.0993 11.8562 13.8997 11.8606 13.8535 11.7204C13.2523 9.89552 12.2921 6.98556 11.9931 6.10621C11.5468 4.79371 10.1021 4.16542 8.82126 4.62096C7.55498 5.07131 6.89431 6.46073 7.34562 7.72433L7.71484 8.75809C7.11304 7.81835 5.92145 7.38179 4.82383 7.77215C3.54716 8.2262 2.88108 9.62701 3.33609 10.901L4.01599 12.8046C4.25223 13.5013 4.9228 15.3225 5.16654 17.6736C5.18854 17.8858 5.21 18.1011 5.2317 18.3188C5.47638 20.7729 5.7521 23.5385 7.18903 25.8418C8.61623 28.3931 11.3485 30.1185 14.4846 30.1185C15.7282 30.1185 16.9083 29.8472 17.9687 29.3606C19.3321 28.777 20.5945 27.8796 21.576 26.5593C22.7377 25.0869 23.1251 24.3929 23.719 23.3289C23.8215 23.1453 23.9301 22.9506 24.05 22.739C24.6277 21.719 25.8169 20.1278 26.5008 19.2433L28.7893 16.6632C29.7441 15.6338 29.8332 14.1142 28.685 13.0538C27.6534 12.1011 25.9443 12.2469 24.8146 13.4911L22.5264 15.9482L25.6794 7.72694C26.1699 6.44799 25.5044 5.01277 24.2143 4.54604C22.9487 4.08818 21.5425 4.72826 21.0859 5.992C20.9542 6.35663 20.8111 6.75495 20.6599 7.17931L21.2202 5.41301Z" fill="url(#paint34_radial_20020_1647)"/>
<path d="M21.2202 5.41301C21.6281 4.12751 20.9154 2.75414 19.6289 2.34172C18.3481 1.93111 16.9743 2.62316 16.5607 3.90063C15.9087 5.91469 14.9466 8.94384 14.1405 11.7145C14.0993 11.8562 13.8997 11.8606 13.8535 11.7204C13.2523 9.89552 12.2921 6.98556 11.9931 6.10621C11.5468 4.79371 10.1021 4.16542 8.82126 4.62096C7.55498 5.07131 6.89431 6.46073 7.34562 7.72433L7.71484 8.75809C7.11304 7.81835 5.92145 7.38179 4.82383 7.77215C3.54716 8.2262 2.88108 9.62701 3.33609 10.901L4.01599 12.8046C4.25223 13.5013 4.9228 15.3225 5.16654 17.6736C5.18854 17.8858 5.21 18.1011 5.2317 18.3188C5.47638 20.7729 5.7521 23.5385 7.18903 25.8418C8.61623 28.3931 11.3485 30.1185 14.4846 30.1185C15.7282 30.1185 16.9083 29.8472 17.9687 29.3606C19.3321 28.777 20.5945 27.8796 21.576 26.5593C22.7377 25.0869 23.1251 24.3929 23.719 23.3289C23.8215 23.1453 23.9301 22.9506 24.05 22.739C24.6277 21.719 25.8169 20.1278 26.5008 19.2433L28.7893 16.6632C29.7441 15.6338 29.8332 14.1142 28.685 13.0538C27.6534 12.1011 25.9443 12.2469 24.8146 13.4911L22.5264 15.9482L25.6794 7.72694C26.1699 6.44799 25.5044 5.01277 24.2143 4.54604C22.9487 4.08818 21.5425 4.72826 21.0859 5.992C20.9542 6.35663 20.8111 6.75495 20.6599 7.17931L21.2202 5.41301Z" fill="url(#paint35_radial_20020_1647)"/>
<path d="M21.2202 5.41301C21.6281 4.12751 20.9154 2.75414 19.6289 2.34172C18.3481 1.93111 16.9743 2.62316 16.5607 3.90063C15.9087 5.91469 14.9466 8.94384 14.1405 11.7145C14.0993 11.8562 13.8997 11.8606 13.8535 11.7204C13.2523 9.89552 12.2921 6.98556 11.9931 6.10621C11.5468 4.79371 10.1021 4.16542 8.82126 4.62096C7.55498 5.07131 6.89431 6.46073 7.34562 7.72433L7.71484 8.75809C7.11304 7.81835 5.92145 7.38179 4.82383 7.77215C3.54716 8.2262 2.88108 9.62701 3.33609 10.901L4.01599 12.8046C4.25223 13.5013 4.9228 15.3225 5.16654 17.6736C5.18854 17.8858 5.21 18.1011 5.2317 18.3188C5.47638 20.7729 5.7521 23.5385 7.18903 25.8418C8.61623 28.3931 11.3485 30.1185 14.4846 30.1185C15.7282 30.1185 16.9083 29.8472 17.9687 29.3606C19.3321 28.777 20.5945 27.8796 21.576 26.5593C22.7377 25.0869 23.1251 24.3929 23.719 23.3289C23.8215 23.1453 23.9301 22.9506 24.05 22.739C24.6277 21.719 25.8169 20.1278 26.5008 19.2433L28.7893 16.6632C29.7441 15.6338 29.8332 14.1142 28.685 13.0538C27.6534 12.1011 25.9443 12.2469 24.8146 13.4911L22.5264 15.9482L25.6794 7.72694C26.1699 6.44799 25.5044 5.01277 24.2143 4.54604C22.9487 4.08818 21.5425 4.72826 21.0859 5.992C20.9542 6.35663 20.8111 6.75495 20.6599 7.17931L21.2202 5.41301Z" fill="url(#paint36_radial_20020_1647)"/>
<path d="M21.2202 5.41301C21.6281 4.12751 20.9154 2.75414 19.6289 2.34172C18.3481 1.93111 16.9743 2.62316 16.5607 3.90063C15.9087 5.91469 14.9466 8.94384 14.1405 11.7145C14.0993 11.8562 13.8997 11.8606 13.8535 11.7204C13.2523 9.89552 12.2921 6.98556 11.9931 6.10621C11.5468 4.79371 10.1021 4.16542 8.82126 4.62096C7.55498 5.07131 6.89431 6.46073 7.34562 7.72433L7.71484 8.75809C7.11304 7.81835 5.92145 7.38179 4.82383 7.77215C3.54716 8.2262 2.88108 9.62701 3.33609 10.901L4.01599 12.8046C4.25223 13.5013 4.9228 15.3225 5.16654 17.6736C5.18854 17.8858 5.21 18.1011 5.2317 18.3188C5.47638 20.7729 5.7521 23.5385 7.18903 25.8418C8.61623 28.3931 11.3485 30.1185 14.4846 30.1185C15.7282 30.1185 16.9083 29.8472 17.9687 29.3606C19.3321 28.777 20.5945 27.8796 21.576 26.5593C22.7377 25.0869 23.1251 24.3929 23.719 23.3289C23.8215 23.1453 23.9301 22.9506 24.05 22.739C24.6277 21.719 25.8169 20.1278 26.5008 19.2433L28.7893 16.6632C29.7441 15.6338 29.8332 14.1142 28.685 13.0538C27.6534 12.1011 25.9443 12.2469 24.8146 13.4911L22.5264 15.9482L25.6794 7.72694C26.1699 6.44799 25.5044 5.01277 24.2143 4.54604C22.9487 4.08818 21.5425 4.72826 21.0859 5.992C20.9542 6.35663 20.8111 6.75495 20.6599 7.17931L21.2202 5.41301Z" fill="url(#paint37_radial_20020_1647)"/>
<defs>
<filter id="filter0_i_20020_1647" x="3.24902" y="1.47346" width="27.0268" height="28.645" filterUnits="userSpaceOnUse" color-interpolation-filters="sRGB">
<feFlood flood-opacity="0" result="BackgroundImageFix"/>
<feBlend mode="normal" in="SourceGraphic" in2="BackgroundImageFix" result="shape"/>
<feColorMatrix in="SourceAlpha" type="matrix" values="0 0 0 0 0 0 0 0 0 0 0 0 0 0 0 0 0 0 127 0" result="hardAlpha"/>
<feOffset dx="0.75" dy="-0.75"/>
<feGaussianBlur stdDeviation="0.75"/>
<feComposite in2="hardAlpha" operator="arithmetic" k2="-1" k3="1"/>
<feColorMatrix type="matrix" values="0 0 0 0 0.564706 0 0 0 0 0.396078 0 0 0 0 0.380392 0 0 0 1 0"/>
<feBlend mode="normal" in2="shape" result="effect1_innerShadow_20020_1647"/>
</filter>
<filter id="filter1_f_20020_1647" x="3.96069" y="7.15584" width="6.8316" height="10.1148" filterUnits="userSpaceOnUse" color-interpolation-filters="sRGB">
<feFlood flood-opacity="0" result="BackgroundImageFix"/>
<feBlend mode="normal" in="SourceGraphic" in2="BackgroundImageFix" result="shape"/>
<feGaussianBlur stdDeviation="0.75" result="effect1_foregroundBlur_20020_1647"/>
</filter>
<filter id="filter2_f_20020_1647" x="8.28082" y="3.96687" width="6.86169" height="11.3277" filterUnits="userSpaceOnUse" color-interpolation-filters="sRGB">
<feFlood flood-opacity="0" result="BackgroundImageFix"/>
<feBlend mode="normal" in="SourceGraphic" in2="BackgroundImageFix" result="shape"/>
<feGaussianBlur stdDeviation="0.75" result="effect1_foregroundBlur_20020_1647"/>
</filter>
<filter id="filter3_f_20020_1647" x="14.9742" y="2.42792" width="7.07812" height="13.0716" filterUnits="userSpaceOnUse" color-interpolation-filters="sRGB">
<feFlood flood-opacity="0" result="BackgroundImageFix"/>
<feBlend mode="normal" in="SourceGraphic" in2="BackgroundImageFix" result="shape"/>
<feGaussianBlur stdDeviation="0.75" result="effect1_foregroundBlur_20020_1647"/>
</filter>
<filter id="filter4_f_20020_1647" x="18.5974" y="4.56572" width="7.73486" height="12.8752" filterUnits="userSpaceOnUse" color-interpolation-filters="sRGB">
<feFlood flood-opacity="0" result="BackgroundImageFix"/>
<feBlend mode="normal" in="SourceGraphic" in2="BackgroundImageFix" result="shape"/>
<feGaussianBlur stdDeviation="0.75" result="effect1_foregroundBlur_20020_1647"/>
</filter>
<filter id="filter5_f_20020_1647" x="20.2483" y="12.3718" width="2.96764" height="5.6917" filterUnits="userSpaceOnUse" color-interpolation-filters="sRGB">
<feFlood flood-opacity="0" result="BackgroundImageFix"/>
<feBlend mode="normal" in="SourceGraphic" in2="BackgroundImageFix" result="shape"/>
<feGaussianBlur stdDeviation="0.3" result="effect1_foregroundBlur_20020_1647"/>
</filter>
<filter id="filter6_f_20020_1647" x="21.1329" y="12.6879" width="8.37207" height="8.59978" filterUnits="userSpaceOnUse" color-interpolation-filters="sRGB">
<feFlood flood-opacity="0" result="BackgroundImageFix"/>
<feBlend mode="normal" in="SourceGraphic" in2="BackgroundImageFix" result="shape"/>
<feGaussianBlur stdDeviation="0.75" result="effect1_foregroundBlur_20020_1647"/>
</filter>
<filter id="filter7_f_20020_1647" x="7.01707" y="14.2312" width="4.04851" height="3.8107" filterUnits="userSpaceOnUse" color-interpolation-filters="sRGB">
<feFlood flood-opacity="0" result="BackgroundImageFix"/>
<feBlend mode="normal" in="SourceGraphic" in2="BackgroundImageFix" result="shape"/>
<feGaussianBlur stdDeviation="0.3" result="effect1_foregroundBlur_20020_1647"/>
</filter>
<filter id="filter8_f_20020_1647" x="10.8719" y="12.0072" width="3.87389" height="3.07596" filterUnits="userSpaceOnUse" color-interpolation-filters="sRGB">
<feFlood flood-opacity="0" result="BackgroundImageFix"/>
<feBlend mode="normal" in="SourceGraphic" in2="BackgroundImageFix" result="shape"/>
<feGaussianBlur stdDeviation="0.3" result="effect1_foregroundBlur_20020_1647"/>
</filter>
<filter id="filter9_f_20020_1647" x="14.299" y="13.0977" width="4.55638" height="2.71878" filterUnits="userSpaceOnUse" color-interpolation-filters="sRGB">
<feFlood flood-opacity="0" result="BackgroundImageFix"/>
<feBlend mode="normal" in="SourceGraphic" in2="BackgroundImageFix" result="shape"/>
<feGaussianBlur stdDeviation="0.3" result="effect1_foregroundBlur_20020_1647"/>
</filter>
<filter id="filter10_f_20020_1647" x="18.0757" y="15.323" width="4.55638" height="2.71878" filterUnits="userSpaceOnUse" color-interpolation-filters="sRGB">
<feFlood flood-opacity="0" result="BackgroundImageFix"/>
<feBlend mode="normal" in="SourceGraphic" in2="BackgroundImageFix" result="shape"/>
<feGaussianBlur stdDeviation="0.3" result="effect1_foregroundBlur_20020_1647"/>
</filter>
<radialGradient id="paint0_radial_20020_1647" cx="0" cy="0" r="1" gradientUnits="userSpaceOnUse" gradientTransform="translate(7.3778 26.9575) rotate(-30.4258) scale(6.47076 12.7464)">
<stop stop-color="#956667"/>
<stop offset="1" stop-color="#956667" stop-opacity="0"/>
</radialGradient>
<radialGradient id="paint1_radial_20020_1647" cx="0" cy="0" r="1" gradientUnits="userSpaceOnUse" gradientTransform="translate(22.7915 25.3573) rotate(113.123) scale(8.93048 9.09096)">
<stop stop-color="#BE8B81"/>
<stop offset="1" stop-color="#BE8B81" stop-opacity="0"/>
</radialGradient>
<radialGradient id="paint2_radial_20020_1647" cx="0" cy="0" r="1" gradientUnits="userSpaceOnUse" gradientTransform="translate(27.6609 21.434) rotate(130.206) scale(8.79664 4.43868)">
<stop stop-color="#A5757B"/>
<stop offset="1" stop-color="#86575F" stop-opacity="0"/>
<stop offset="1" stop-color="#A5757B" stop-opacity="0"/>
</radialGradient>
<linearGradient id="paint3_linear_20020_1647" x1="9.45676" y1="11.8931" x2="7.91017" y2="12.4385" gradientUnits="userSpaceOnUse">
<stop stop-color="#8C6654"/>
<stop offset="1" stop-color="#8C6654" stop-opacity="0"/>
</linearGradient>
<linearGradient id="paint4_linear_20020_1647" x1="10.1828" y1="14.5089" x2="8.83447" y2="13.2298" gradientUnits="userSpaceOnUse">
<stop stop-color="#B3857A"/>
<stop offset="1" stop-color="#B3857A" stop-opacity="0"/>
</linearGradient>
<radialGradient id="paint5_radial_20020_1647" cx="0" cy="0" r="1" gradientUnits="userSpaceOnUse" gradientTransform="translate(4.97402 7.40335) rotate(68.5152) scale(2.99536 5.57619)">
<stop stop-color="#A0826A"/>
<stop offset="1" stop-color="#A0826A" stop-opacity="0"/>
</radialGradient>
<linearGradient id="paint6_linear_20020_1647" x1="8.3543" y1="11.7386" x2="10.835" y2="10.8228" gradientUnits="userSpaceOnUse">
<stop stop-color="#82534B"/>
<stop offset="1" stop-color="#82534B" stop-opacity="0"/>
</linearGradient>
<radialGradient id="paint7_radial_20020_1647" cx="0" cy="0" r="1" gradientUnits="userSpaceOnUse" gradientTransform="translate(13.7691 9.71356) rotate(161.147) scale(0.940395 5.05669)">
<stop stop-color="#8D7464"/>
<stop offset="1" stop-color="#8D7464" stop-opacity="0"/>
</radialGradient>
<radialGradient id="paint8_radial_20020_1647" cx="0" cy="0" r="1" gradientUnits="userSpaceOnUse" gradientTransform="translate(8.9972 12.348) rotate(-17.4472) scale(0.439745 4.98159)">
<stop stop-color="#59312B"/>
<stop offset="1" stop-color="#59312B" stop-opacity="0"/>
</radialGradient>
<linearGradient id="paint9_linear_20020_1647" x1="14.0026" y1="9.0625" x2="11.4604" y2="9.82444" gradientUnits="userSpaceOnUse">
<stop stop-color="#A28370"/>
<stop offset="1" stop-color="#A28370" stop-opacity="0"/>
</linearGradient>
<linearGradient id="paint10_linear_20020_1647" x1="12.5651" y1="14.6875" x2="12.2213" y2="13.5938" gradientUnits="userSpaceOnUse">
<stop stop-color="#B3857A"/>
<stop offset="1" stop-color="#B3857A" stop-opacity="0"/>
</linearGradient>
<radialGradient id="paint11_radial_20020_1647" cx="0" cy="0" r="1" gradientUnits="userSpaceOnUse" gradientTransform="translate(9.07146 4.18977) rotate(73.1132) scale(2.83216 3.69543)">
<stop stop-color="#A0826A"/>
<stop offset="1" stop-color="#A0826A" stop-opacity="0"/>
</radialGradient>
<linearGradient id="paint12_linear_20020_1647" x1="14.3584" y1="8.38885" x2="16.9107" y2="9.16922" gradientUnits="userSpaceOnUse">
<stop stop-color="#866658"/>
<stop offset="1" stop-color="#866658" stop-opacity="0"/>
</linearGradient>
<linearGradient id="paint13_linear_20020_1647" x1="20.2896" y1="10.5789" x2="19.0133" y2="10.2107" gradientUnits="userSpaceOnUse">
<stop stop-color="#755045"/>
<stop offset="1" stop-color="#755045" stop-opacity="0"/>
</linearGradient>
<linearGradient id="paint14_linear_20020_1647" x1="19.6229" y1="10.556" x2="19.397" y2="10.4801" gradientUnits="userSpaceOnUse">
<stop stop-color="#51312A"/>
<stop offset="1" stop-color="#51312A" stop-opacity="0"/>
</linearGradient>
<linearGradient id="paint15_linear_20020_1647" x1="17.7215" y1="15.1767" x2="15.9207" y2="11.7079" gradientUnits="userSpaceOnUse">
<stop stop-color="#B3857A"/>
<stop offset="1" stop-color="#B3857A" stop-opacity="0"/>
</linearGradient>
<radialGradient id="paint16_radial_20020_1647" cx="0" cy="0" r="1" gradientUnits="userSpaceOnUse" gradientTransform="translate(19.5908 1.76859) rotate(103.309) scale(3.79934 4.20751)">
<stop stop-color="#A0826A"/>
<stop offset="1" stop-color="#A0826A" stop-opacity="0"/>
</radialGradient>
<linearGradient id="paint17_linear_20020_1647" x1="20.7199" y1="4.93243" x2="20.6507" y2="15.5588" gradientUnits="userSpaceOnUse">
<stop stop-color="#B08278"/>
<stop offset="1" stop-color="#B08278" stop-opacity="0"/>
</linearGradient>
<linearGradient id="paint18_linear_20020_1647" x1="18.9031" y1="10.6388" x2="22.004" y2="11.6333" gradientUnits="userSpaceOnUse">
<stop stop-color="#774D3F"/>
<stop offset="1" stop-color="#774D3F" stop-opacity="0"/>
</linearGradient>
<linearGradient id="paint19_linear_20020_1647" x1="19.9809" y1="16.0392" x2="20.9223" y2="14.1459" gradientUnits="userSpaceOnUse">
<stop stop-color="#B5867B"/>
<stop offset="1" stop-color="#B5867B" stop-opacity="0"/>
</linearGradient>
<radialGradient id="paint20_radial_20020_1647" cx="0" cy="0" r="1" gradientUnits="userSpaceOnUse" gradientTransform="translate(22.605 16.236) rotate(-160.567) scale(0.745322 1.91689)">
<stop stop-color="#997D6B"/>
<stop offset="1" stop-color="#9E7D69" stop-opacity="0"/>
</radialGradient>
<radialGradient id="paint21_radial_20020_1647" cx="0" cy="0" r="1" gradientUnits="userSpaceOnUse" gradientTransform="translate(23.7161 3.93137) rotate(101.271) scale(3.74953 4.50938)">
<stop stop-color="#A0826A"/>
<stop offset="1" stop-color="#A0826A" stop-opacity="0"/>
</radialGradient>
<linearGradient id="paint22_linear_20020_1647" x1="25.0812" y1="7.02377" x2="25.0161" y2="17.6501" gradientUnits="userSpaceOnUse">
<stop stop-color="#B7897D"/>
<stop offset="1" stop-color="#B7897D" stop-opacity="0"/>
</linearGradient>
<linearGradient id="paint23_linear_20020_1647" x1="21.3937" y1="17.1634" x2="20.636" y2="16.6367" gradientUnits="userSpaceOnUse">
<stop stop-color="#C59D83"/>
<stop offset="1" stop-color="#C59D83" stop-opacity="0"/>
</linearGradient>
<radialGradient id="paint24_radial_20020_1647" cx="0" cy="0" r="1" gradientUnits="userSpaceOnUse" gradientTransform="translate(24.3048 13.7908) rotate(40.3645) scale(1.70247 5.14901)">
<stop stop-color="#936F58"/>
<stop offset="1" stop-color="#936F58" stop-opacity="0"/>
</radialGradient>
<radialGradient id="paint25_radial_20020_1647" cx="0" cy="0" r="1" gradientUnits="userSpaceOnUse" gradientTransform="translate(28.3729 12.0196) rotate(113.749) scale(4.01662 4.13507)">
<stop stop-color="#A0826A"/>
<stop offset="1" stop-color="#A0826A" stop-opacity="0"/>
</radialGradient>
<linearGradient id="paint26_linear_20020_1647" x1="27.505" y1="14.9156" x2="23.4062" y2="20.0618" gradientUnits="userSpaceOnUse">
<stop stop-color="#C09683"/>
<stop offset="1" stop-color="#C09683" stop-opacity="0"/>
</linearGradient>
<linearGradient id="paint27_linear_20020_1647" x1="10.2978" y1="17.6149" x2="8.67824" y2="18.1381" gradientUnits="userSpaceOnUse">
<stop stop-color="#B58D7B"/>
<stop offset="1" stop-color="#B58D7B" stop-opacity="0"/>
</linearGradient>
<linearGradient id="paint28_linear_20020_1647" x1="13.2909" y1="15.086" x2="12.0444" y2="15.0361" gradientUnits="userSpaceOnUse">
<stop stop-color="#B58D7B"/>
<stop offset="1" stop-color="#B58D7B" stop-opacity="0"/>
</linearGradient>
<linearGradient id="paint29_linear_20020_1647" x1="18.1176" y1="15.1327" x2="16.8653" y2="16.2178" gradientUnits="userSpaceOnUse">
<stop stop-color="#B58D7B"/>
<stop offset="1" stop-color="#B58D7B" stop-opacity="0"/>
</linearGradient>
<linearGradient id="paint30_linear_20020_1647" x1="21.8942" y1="17.358" x2="20.642" y2="18.4431" gradientUnits="userSpaceOnUse">
<stop stop-color="#B58D7B"/>
<stop offset="1" stop-color="#B58D7B" stop-opacity="0"/>
</linearGradient>
<radialGradient id="paint31_radial_20020_1647" cx="0" cy="0" r="1" gradientUnits="userSpaceOnUse" gradientTransform="translate(15.664 11.2766) rotate(93.2441) scale(19.7866 19.1478)">
<stop offset="0.805294" stop-color="#9C5C8C" stop-opacity="0"/>
<stop offset="1" stop-color="#9C5C8C"/>
</radialGradient>
<radialGradient id="paint32_radial_20020_1647" cx="0" cy="0" r="1" gradientUnits="userSpaceOnUse" gradientTransform="translate(14.0824 10.3822) rotate(90.5366) scale(2.56514 0.767813)">
<stop offset="0.30439" stop-color="#7C5E50"/>
<stop offset="1" stop-color="#7C5E50" stop-opacity="0"/>
</radialGradient>
<radialGradient id="paint33_radial_20020_1647" cx="0" cy="0" r="1" gradientUnits="userSpaceOnUse" gradientTransform="translate(29.1893 13.7315) rotate(136.84) scale(3.56633 2.41749)">
<stop stop-color="#C8A08A"/>
<stop offset="1" stop-color="#C8A08A" stop-opacity="0"/>
</radialGradient>
<radialGradient id="paint34_radial_20020_1647" cx="0" cy="0" r="1" gradientUnits="userSpaceOnUse" gradientTransform="translate(25.2903 5.94282) rotate(124.344) scale(2.30423 2.42474)">
<stop stop-color="#C8A08A"/>
<stop offset="1" stop-color="#C8A08A" stop-opacity="0"/>
</radialGradient>
<radialGradient id="paint35_radial_20020_1647" cx="0" cy="0" r="1" gradientUnits="userSpaceOnUse" gradientTransform="translate(20.8705 3.95381) rotate(137.036) scale(2.66463 2.35358)">
<stop stop-color="#C8A08A"/>
<stop offset="1" stop-color="#C8A08A" stop-opacity="0"/>
</radialGradient>
<radialGradient id="paint36_radial_20020_1647" cx="0" cy="0" r="1" gradientUnits="userSpaceOnUse" gradientTransform="translate(11.1643 5.5969) rotate(109.631) scale(2.70855 1.76691)">
<stop stop-color="#C8A08A"/>
<stop offset="1" stop-color="#C8A08A" stop-opacity="0"/>
</radialGradient>
<radialGradient id="paint37_radial_20020_1647" cx="0" cy="0" r="1" gradientUnits="userSpaceOnUse" gradientTransform="translate(6.09446 9.53169) rotate(113.794) scale(1.18141 1.33457)">
<stop stop-color="#C8A08A"/>
<stop offset="1" stop-color="#C8A08A" stop-opacity="0"/>
</radialGradient>
</defs>
</svg>
