<svg width="32" height="32" viewBox="0 0 32 32" fill="none" xmlns="http://www.w3.org/2000/svg">
<path d="M15 7C15 6.44772 15.4477 6 16 6C16.5523 6 17 6.44772 17 7V12H22C22.5523 12 23 12.4477 23 13C23 13.5523 22.5523 14 22 14H17V25C17 25.5523 16.5523 26 16 26C15.4477 26 15 25.5523 15 25V14H10C9.44772 14 9 13.5523 9 13C9 12.4477 9.44772 12 10 12H15V7Z" fill="#212121"/>
<path d="M6 1C3.23858 1 1 3.23858 1 6V26C1 28.7614 3.23858 31 6 31H26C28.7614 31 31 28.7614 31 26V6C31 3.23858 28.7614 1 26 1H6ZM3 6C3 4.34315 4.34315 3 6 3H26C27.6569 3 29 4.34315 29 6V26C29 27.6569 27.6569 29 26 29H6C4.34315 29 3 27.6569 3 26V6Z" fill="#212121"/>
</svg>
