<svg width="32" height="32" viewBox="0 0 32 32" fill="none" xmlns="http://www.w3.org/2000/svg">
<path d="M4.06842 11.4107C4.32335 11.0867 4.61747 10.7951 4.94363 10.5428C4.97064 10.5536 4.99812 10.5636 5.02607 10.5729C5.15019 10.6143 5.27589 10.6385 5.40062 10.6469C4.52641 11.6893 4 13.0333 4 14.5002C4 16.3962 4.87947 18.0869 6.25273 19.1864C4.35296 18.4778 3 16.647 3 14.5002C3 14.1939 3.02754 13.8941 3.08027 13.603C3.22834 12.786 3.57512 12.0377 4.06842 11.4107Z" fill="#212121"/>
<path d="M15.9991 2.99996C12.8208 2.99996 10.2278 3.66913 8.18375 4.80637C7.7032 4.92419 7.26589 5.10244 6.87206 5.31987C9.21935 2.64867 12.443 1 16.0003 1C19.4406 1 22.5688 2.542 24.8941 5.0597C24.9731 5.14521 25.0511 5.23185 25.1282 5.31959C24.7333 5.10161 24.2947 4.92302 23.8125 4.80526C21.7688 3.66869 19.1765 2.99996 15.9991 2.99996Z" fill="#212121"/>
<path d="M26.9747 10.5729C26.8504 10.6144 26.7244 10.6386 26.5994 10.647C27.4736 11.6894 28 13.0333 28 14.5002C28 16.3962 27.1205 18.0869 25.7473 19.1864C27.647 18.4778 29 16.647 29 14.5002C29 14.3793 28.9957 14.2594 28.9873 14.1407C28.9006 12.922 28.3771 11.8237 27.5726 11.0021C27.4115 10.8376 27.2391 10.6841 27.0567 10.543C27.0298 10.5537 27.0025 10.5637 26.9747 10.5729Z" fill="#212121"/>
<path d="M7.80092 3.12988C4.26495 4.58579 1.93146 7.34237 0.799701 10.7717C1.46679 9.93185 2.35407 9.27504 3.37372 8.88836C3.90406 7.64265 4.59184 6.47735 5.44369 5.42296C6.1336 4.56901 6.92071 3.801 7.80092 3.12988Z" fill="#212121"/>
<path d="M16.314 30.9957C20.1659 30.8905 23.6031 28.852 25.9249 25.6888C23.6721 27.7173 20.3957 28.9977 15.9991 28.9977C11.6069 28.9977 8.33271 27.7199 6.08008 25.6948C8.4022 28.8551 11.8383 30.8912 15.6886 30.9958C15.7916 30.9971 15.8951 30.9977 15.9991 30.9977C16.1046 30.9977 16.2095 30.9971 16.314 30.9957Z" fill="#212121"/>
<path d="M24.0243 3.12988C24.9045 3.801 25.6916 4.56901 26.3815 5.42296C27.2334 6.47735 27.9211 7.64265 28.4515 8.88836C29.4711 9.27504 30.3584 9.93185 31.0255 10.7717C29.8937 7.34237 27.5602 4.58579 24.0243 3.12988Z" fill="#212121"/>
<path d="M7.79958 28.8674C2.88882 26.8448 0.29775 22.3132 0.0244141 16.955C0.513757 18.0449 1.31881 18.9618 2.3226 19.5899C2.80335 22.1785 3.82862 24.5762 5.44369 26.5753C6.13325 27.4288 6.91991 28.1965 7.79958 28.8674Z" fill="#212121"/>
<path d="M31.8008 16.955C31.5274 22.3132 28.9364 26.8448 24.0256 28.8674C24.9053 28.1965 25.6919 27.4288 26.3815 26.5753C27.9966 24.5762 29.0218 22.1785 29.5026 19.5899C30.5064 18.9618 31.3114 18.0449 31.8008 16.955Z" fill="#212121"/>
<path d="M16 21C14.3431 21 13 22.3431 13 24C13 25.6569 14.3431 27 16 27C17.6569 27 19 25.6569 19 24C19 22.3431 17.6569 21 16 21Z" fill="#212121"/>
<path d="M12 17C13.1046 17 14 16.1046 14 15C14 13.8954 13.1046 13 12 13C10.8954 13 10 13.8954 10 15C10 16.1046 10.8954 17 12 17Z" fill="#212121"/>
<path d="M5.5 14.5C5.5 11.7386 7.73858 9.5 10.5 9.5C13.2614 9.5 15.5 11.7386 15.5 14.5C15.5 17.2614 13.2614 19.5 10.5 19.5C7.73858 19.5 5.5 17.2614 5.5 14.5ZM10.5 10.5C8.29086 10.5 6.5 12.2909 6.5 14.5C6.5 16.7091 8.29086 18.5 10.5 18.5C12.7091 18.5 14.5 16.7091 14.5 14.5C14.5 12.2909 12.7091 10.5 10.5 10.5Z" fill="#212121"/>
<path d="M20 17C21.1046 17 22 16.1046 22 15C22 13.8954 21.1046 13 20 13C18.8954 13 18 13.8954 18 15C18 16.1046 18.8954 17 20 17Z" fill="#212121"/>
<path d="M16.5 14.5C16.5 11.7386 18.7386 9.5 21.5 9.5C24.2614 9.5 26.5 11.7386 26.5 14.5C26.5 17.2614 24.2614 19.5 21.5 19.5C18.7386 19.5 16.5 17.2614 16.5 14.5ZM21.5 10.5C19.2909 10.5 17.5 12.2909 17.5 14.5C17.5 16.7091 19.2909 18.5 21.5 18.5C23.7091 18.5 25.5 16.7091 25.5 14.5C25.5 12.2909 23.7091 10.5 21.5 10.5Z" fill="#212121"/>
<path d="M1.5 14.6501C1.5 12.754 2.37947 11.0634 3.75273 9.96387C1.85296 10.6725 0.5 12.5033 0.5 14.6501C0.5 16.7969 1.85296 18.6277 3.75273 19.3363C2.37947 18.2368 1.5 16.5461 1.5 14.6501Z" fill="#212121"/>
<path d="M30.5 14.6501C30.5 12.754 29.6205 11.0634 28.2473 9.96387C30.147 10.6725 31.5 12.5033 31.5 14.6501C31.5 16.7969 30.147 18.6277 28.2473 19.3363C29.6205 18.2368 30.5 16.5461 30.5 14.6501Z" fill="#212121"/>
<path d="M6.38087 6.91229C6.16442 7.11778 5.97321 7.33541 5.80644 7.55477C5.41561 8.06885 5.15886 8.59255 5.02578 8.99179C4.99168 9.09411 4.99251 9.19973 5.02178 9.29559C5.06746 9.44512 5.18239 9.57104 5.34201 9.62424C5.60398 9.71157 5.88714 9.56999 5.97447 9.30802C6.11793 8.87764 6.47648 8.2004 7.06938 7.63752C7.65378 7.0827 8.45222 6.6499 9.50012 6.6499C9.77627 6.6499 10.0001 6.42604 10.0001 6.1499C10.0001 5.87376 9.77627 5.6499 9.50012 5.6499C8.14803 5.6499 7.11313 6.2171 6.38087 6.91229Z" fill="#212121"/>
<path d="M25.8198 7.11332C25.7556 7.0453 25.6888 6.97815 25.6194 6.91229C24.8871 6.2171 23.8522 5.6499 22.5001 5.6499C22.224 5.6499 22.0001 5.87376 22.0001 6.1499C22.0001 6.42604 22.224 6.6499 22.5001 6.6499C23.548 6.6499 24.3465 7.0827 24.9309 7.63752C25.5238 8.2004 25.8823 8.87764 26.0258 9.30802C26.1131 9.56999 26.3963 9.71157 26.6582 9.62424C26.7491 9.59396 26.8255 9.54013 26.8828 9.47179C26.9909 9.34308 27.0315 9.1629 26.9745 8.99179C26.8028 8.47678 26.4255 7.75484 25.8198 7.11332Z" fill="#212121"/>
</svg>
