<svg width="32" height="32" viewBox="0 0 32 32" fill="none" xmlns="http://www.w3.org/2000/svg">
<g filter="url(#filter0_i_20020_2546)">
<path d="M22.7603 1.7821C21.2879 1.7821 20.0943 2.97572 20.0943 4.44812V12.6649H11.5005V8.08875C11.5005 6.61635 10.3069 5.42273 8.83453 5.42273C7.36214 5.42273 6.16852 6.61635 6.16852 8.08875V18.8915C6.16852 25.5477 9.62164 29.2977 14.9029 29.7352H16.0904C19.0006 29.4442 21.9966 28.4071 24.2466 25.1884C26.1373 22.1415 25.8948 19.0981 25.704 17.313L25.6841 17.1259C25.5466 15.8194 25.4599 14.7634 25.4263 14.2997V4.44812C25.4263 2.97572 24.2327 1.7821 22.7603 1.7821Z" fill="#E0A397"/>
<path d="M22.7603 1.7821C21.2879 1.7821 20.0943 2.97572 20.0943 4.44812V12.6649H11.5005V8.08875C11.5005 6.61635 10.3069 5.42273 8.83453 5.42273C7.36214 5.42273 6.16852 6.61635 6.16852 8.08875V18.8915C6.16852 25.5477 9.62164 29.2977 14.9029 29.7352H16.0904C19.0006 29.4442 21.9966 28.4071 24.2466 25.1884C26.1373 22.1415 25.8948 19.0981 25.704 17.313L25.6841 17.1259C25.5466 15.8194 25.4599 14.7634 25.4263 14.2997V4.44812C25.4263 2.97572 24.2327 1.7821 22.7603 1.7821Z" fill="url(#paint0_radial_20020_2546)"/>
<path d="M22.7603 1.7821C21.2879 1.7821 20.0943 2.97572 20.0943 4.44812V12.6649H11.5005V8.08875C11.5005 6.61635 10.3069 5.42273 8.83453 5.42273C7.36214 5.42273 6.16852 6.61635 6.16852 8.08875V18.8915C6.16852 25.5477 9.62164 29.2977 14.9029 29.7352H16.0904C19.0006 29.4442 21.9966 28.4071 24.2466 25.1884C26.1373 22.1415 25.8948 19.0981 25.704 17.313L25.6841 17.1259C25.5466 15.8194 25.4599 14.7634 25.4263 14.2997V4.44812C25.4263 2.97572 24.2327 1.7821 22.7603 1.7821Z" fill="url(#paint1_radial_20020_2546)"/>
<path d="M22.7603 1.7821C21.2879 1.7821 20.0943 2.97572 20.0943 4.44812V12.6649H11.5005V8.08875C11.5005 6.61635 10.3069 5.42273 8.83453 5.42273C7.36214 5.42273 6.16852 6.61635 6.16852 8.08875V18.8915C6.16852 25.5477 9.62164 29.2977 14.9029 29.7352H16.0904C19.0006 29.4442 21.9966 28.4071 24.2466 25.1884C26.1373 22.1415 25.8948 19.0981 25.704 17.313L25.6841 17.1259C25.5466 15.8194 25.4599 14.7634 25.4263 14.2997V4.44812C25.4263 2.97572 24.2327 1.7821 22.7603 1.7821Z" fill="url(#paint2_radial_20020_2546)"/>
</g>
<g filter="url(#filter1_f_20020_2546)">
<path d="M16.3715 15.0104C14.7966 15.0104 13.52 16.2871 13.52 17.8619C13.52 19.4368 14.7966 20.7135 16.3715 20.7135H17.9955C21.0296 20.7135 22.1233 20.7135 24.395 20.4581C24.395 16.9571 21.559 15.0146 18.059 15.0104" fill="#A96766"/>
<path d="M16.3715 15.0104H18.0512Z" fill="#A96766"/>
</g>
<g filter="url(#filter2_f_20020_2546)">
<rect x="9.83521" y="10.7173" width="6.09893" height="6.99453" fill="#A96766"/>
</g>
<rect x="6.16852" y="5.42273" width="5.33203" height="11.8125" rx="2.66602" fill="url(#paint3_radial_20020_2546)"/>
<rect x="6.16852" y="5.42273" width="5.33203" height="11.8125" rx="2.66602" fill="url(#paint4_radial_20020_2546)"/>
<rect x="20.0943" y="1.7821" width="5.33203" height="15.4531" rx="2.66602" fill="url(#paint5_radial_20020_2546)"/>
<g filter="url(#filter3_i_20020_2546)">
<rect x="10.5396" y="8.56335" width="5.39453" height="8.20312" rx="2.69727" fill="url(#paint6_linear_20020_2546)"/>
<rect x="10.5396" y="8.56335" width="5.39453" height="8.20312" rx="2.69727" fill="url(#paint7_radial_20020_2546)"/>
</g>
<rect x="10.5396" y="8.56335" width="5.39453" height="8.20312" rx="2.69727" fill="url(#paint8_radial_20020_2546)"/>
<rect x="10.5396" y="8.56335" width="5.39453" height="8.20312" rx="2.69727" fill="url(#paint9_linear_20020_2546)"/>
<rect x="10.5396" y="8.56335" width="5.39453" height="8.20312" rx="2.69727" fill="url(#paint10_radial_20020_2546)"/>
<g filter="url(#filter4_i_20020_2546)">
<rect x="15.4068" y="6.95398" width="5.33203" height="10.2812" rx="2.66602" fill="url(#paint11_linear_20020_2546)"/>
</g>
<rect x="15.4068" y="6.95398" width="5.33203" height="10.2812" rx="2.66602" fill="url(#paint12_linear_20020_2546)"/>
<g filter="url(#filter5_f_20020_2546)">
<path d="M23.5267 4.36023V17.9227" stroke="#FFD0A8" stroke-width="1.5" stroke-linecap="round"/>
</g>
<path d="M17.7388 13.8759C16.164 13.8759 14.8873 15.1525 14.8873 16.7274C14.8873 18.3023 16.164 19.579 17.7388 19.579H19.3629C19.6629 19.6056 19.937 19.7666 20.1061 20.0197L22.5773 23.6713C23.0187 24.3235 24.0058 24.2332 24.3216 23.5117L25.259 21.3697C25.5909 20.6112 25.8016 19.784 25.6396 18.972C25.0606 16.0684 22.4994 13.8796 19.4263 13.8759" fill="url(#paint13_radial_20020_2546)"/>
<path d="M17.7388 13.8759C16.164 13.8759 14.8873 15.1525 14.8873 16.7274C14.8873 18.3023 16.164 19.579 17.7388 19.579H19.3629C19.6629 19.6056 19.937 19.7666 20.1061 20.0197L22.5773 23.6713C23.0187 24.3235 24.0058 24.2332 24.3216 23.5117L25.259 21.3697C25.5909 20.6112 25.8016 19.784 25.6396 18.972C25.0606 16.0684 22.4994 13.8796 19.4263 13.8759" fill="url(#paint14_linear_20020_2546)"/>
<path d="M17.7388 13.8759H19.4185Z" fill="url(#paint15_radial_20020_2546)"/>
<path d="M17.7388 13.8759H19.4185Z" fill="url(#paint16_linear_20020_2546)"/>
<path d="M17.7388 13.8759C16.164 13.8759 14.8873 15.1525 14.8873 16.7274C14.8873 18.3023 16.164 19.579 17.7388 19.579H19.3629C19.6629 19.6056 19.937 19.7666 20.1061 20.0197L22.5773 23.6713C23.0187 24.3235 24.0058 24.2332 24.3216 23.5117L25.259 21.3697C25.5909 20.6112 25.8016 19.784 25.6396 18.972C25.0606 16.0684 22.4994 13.8796 19.4263 13.8759" fill="url(#paint17_radial_20020_2546)"/>
<path d="M17.7388 13.8759H19.4185Z" fill="url(#paint18_radial_20020_2546)"/>
<g filter="url(#filter6_f_20020_2546)">
<path d="M18.0728 16H20.9065C21.9893 16 22.9881 16.5835 23.5198 17.5267L24.827 19.8454" stroke="url(#paint19_linear_20020_2546)" stroke-width="1.5" stroke-linecap="round"/>
</g>
<path d="M22.7603 1.7821C21.2879 1.7821 20.0943 2.97572 20.0943 4.44812V7.88176C20.496 8.3485 20.7388 8.95589 20.7388 9.62V14.5692C20.7388 16.0416 19.5452 17.2352 18.0728 17.2352C16.9086 17.2352 15.9186 16.4889 15.5552 15.4486C15.0847 16.2378 14.2225 16.7665 13.2369 16.7665C11.7472 16.7665 10.5396 15.5589 10.5396 14.0692V11.2606C10.5396 10.4323 10.913 9.69125 11.5005 9.19647V8.08875C11.5005 6.61635 10.3069 5.42273 8.83453 5.42273C7.36214 5.42273 6.16852 6.61635 6.16852 8.08875V18.8915C6.16852 25.5477 9.62164 29.2977 14.9029 29.7352H16.0904C19.0006 29.4442 21.9966 28.4071 24.2466 25.1884C26.1373 22.1415 25.8948 19.0981 25.704 17.313L25.6841 17.1259C25.5466 15.8194 25.4599 14.7634 25.4263 14.2997V4.44812C25.4263 2.97572 24.2327 1.7821 22.7603 1.7821Z" fill="url(#paint20_linear_20020_2546)"/>
<path d="M22.7603 1.7821C21.2879 1.7821 20.0943 2.97572 20.0943 4.44812V7.88176C20.496 8.3485 20.7388 8.95589 20.7388 9.62V14.5692C20.7388 16.0416 19.5452 17.2352 18.0728 17.2352C16.9086 17.2352 15.9186 16.4889 15.5552 15.4486C15.0847 16.2378 14.2225 16.7665 13.2369 16.7665C11.7472 16.7665 10.5396 15.5589 10.5396 14.0692V11.2606C10.5396 10.4323 10.913 9.69125 11.5005 9.19647V8.08875C11.5005 6.61635 10.3069 5.42273 8.83453 5.42273C7.36214 5.42273 6.16852 6.61635 6.16852 8.08875V18.8915C6.16852 25.5477 9.62164 29.2977 14.9029 29.7352H16.0904C19.0006 29.4442 21.9966 28.4071 24.2466 25.1884C26.1373 22.1415 25.8948 19.0981 25.704 17.313L25.6841 17.1259C25.5466 15.8194 25.4599 14.7634 25.4263 14.2997V4.44812C25.4263 2.97572 24.2327 1.7821 22.7603 1.7821Z" fill="url(#paint21_radial_20020_2546)"/>
<path d="M22.7603 1.7821C21.2879 1.7821 20.0943 2.97572 20.0943 4.44812V7.88176C20.496 8.3485 20.7388 8.95589 20.7388 9.62V14.5692C20.7388 16.0416 19.5452 17.2352 18.0728 17.2352C16.9086 17.2352 15.9186 16.4889 15.5552 15.4486C15.0847 16.2378 14.2225 16.7665 13.2369 16.7665C11.7472 16.7665 10.5396 15.5589 10.5396 14.0692V11.2606C10.5396 10.4323 10.913 9.69125 11.5005 9.19647V8.08875C11.5005 6.61635 10.3069 5.42273 8.83453 5.42273C7.36214 5.42273 6.16852 6.61635 6.16852 8.08875V18.8915C6.16852 25.5477 9.62164 29.2977 14.9029 29.7352H16.0904C19.0006 29.4442 21.9966 28.4071 24.2466 25.1884C26.1373 22.1415 25.8948 19.0981 25.704 17.313L25.6841 17.1259C25.5466 15.8194 25.4599 14.7634 25.4263 14.2997V4.44812C25.4263 2.97572 24.2327 1.7821 22.7603 1.7821Z" fill="url(#paint22_linear_20020_2546)"/>
<path d="M22.7603 1.7821C21.2879 1.7821 20.0943 2.97572 20.0943 4.44812V7.88176C20.496 8.3485 20.7388 8.95589 20.7388 9.62V14.5692C20.7388 16.0416 19.5452 17.2352 18.0728 17.2352C16.9086 17.2352 15.9186 16.4889 15.5552 15.4486C15.0847 16.2378 14.2225 16.7665 13.2369 16.7665C11.7472 16.7665 10.5396 15.5589 10.5396 14.0692V11.2606C10.5396 10.4323 10.913 9.69125 11.5005 9.19647V8.08875C11.5005 6.61635 10.3069 5.42273 8.83453 5.42273C7.36214 5.42273 6.16852 6.61635 6.16852 8.08875V18.8915C6.16852 25.5477 9.62164 29.2977 14.9029 29.7352H16.0904C19.0006 29.4442 21.9966 28.4071 24.2466 25.1884C26.1373 22.1415 25.8948 19.0981 25.704 17.313L25.6841 17.1259C25.5466 15.8194 25.4599 14.7634 25.4263 14.2997V4.44812C25.4263 2.97572 24.2327 1.7821 22.7603 1.7821Z" fill="url(#paint23_radial_20020_2546)"/>
<g filter="url(#filter7_f_20020_2546)">
<path d="M9.48334 8.33313V15.0693" stroke="url(#paint24_linear_20020_2546)" stroke-linecap="round"/>
</g>
<g filter="url(#filter8_f_20020_2546)">
<rect x="13.812" y="11.1541" width="0.851138" height="3.45317" rx="0.425569" fill="#F2C1A2"/>
</g>
<g filter="url(#filter9_f_20020_2546)">
<rect x="18.727" y="8.74658" width="1.36731" height="4.62612" rx="0.683655" fill="#FFCFA5"/>
</g>
<defs>
<filter id="filter0_i_20020_2546" x="6.16852" y="1.0321" width="20.4129" height="28.7031" filterUnits="userSpaceOnUse" color-interpolation-filters="sRGB">
<feFlood flood-opacity="0" result="BackgroundImageFix"/>
<feBlend mode="normal" in="SourceGraphic" in2="BackgroundImageFix" result="shape"/>
<feColorMatrix in="SourceAlpha" type="matrix" values="0 0 0 0 0 0 0 0 0 0 0 0 0 0 0 0 0 0 127 0" result="hardAlpha"/>
<feOffset dx="0.75" dy="-0.75"/>
<feGaussianBlur stdDeviation="1.25"/>
<feComposite in2="hardAlpha" operator="arithmetic" k2="-1" k3="1"/>
<feColorMatrix type="matrix" values="0 0 0 0 0.6875 0 0 0 0 0.494936 0 0 0 0 0.372396 0 0 0 1 0"/>
<feBlend mode="normal" in2="shape" result="effect1_innerShadow_20020_2546"/>
</filter>
<filter id="filter1_f_20020_2546" x="11.52" y="13.0104" width="14.875" height="9.70312" filterUnits="userSpaceOnUse" color-interpolation-filters="sRGB">
<feFlood flood-opacity="0" result="BackgroundImageFix"/>
<feBlend mode="normal" in="SourceGraphic" in2="BackgroundImageFix" result="shape"/>
<feGaussianBlur stdDeviation="1" result="effect1_foregroundBlur_20020_2546"/>
</filter>
<filter id="filter2_f_20020_2546" x="7.83521" y="8.71729" width="10.0989" height="10.9945" filterUnits="userSpaceOnUse" color-interpolation-filters="sRGB">
<feFlood flood-opacity="0" result="BackgroundImageFix"/>
<feBlend mode="normal" in="SourceGraphic" in2="BackgroundImageFix" result="shape"/>
<feGaussianBlur stdDeviation="1" result="effect1_foregroundBlur_20020_2546"/>
</filter>
<filter id="filter3_i_20020_2546" x="10.5396" y="7.81335" width="6.14453" height="8.95312" filterUnits="userSpaceOnUse" color-interpolation-filters="sRGB">
<feFlood flood-opacity="0" result="BackgroundImageFix"/>
<feBlend mode="normal" in="SourceGraphic" in2="BackgroundImageFix" result="shape"/>
<feColorMatrix in="SourceAlpha" type="matrix" values="0 0 0 0 0 0 0 0 0 0 0 0 0 0 0 0 0 0 127 0" result="hardAlpha"/>
<feOffset dx="0.75" dy="-0.75"/>
<feGaussianBlur stdDeviation="1"/>
<feComposite in2="hardAlpha" operator="arithmetic" k2="-1" k3="1"/>
<feColorMatrix type="matrix" values="0 0 0 0 0.784314 0 0 0 0 0.592157 0 0 0 0 0.439216 0 0 0 1 0"/>
<feBlend mode="normal" in2="shape" result="effect1_innerShadow_20020_2546"/>
</filter>
<filter id="filter4_i_20020_2546" x="15.4068" y="6.20398" width="6.08203" height="11.0312" filterUnits="userSpaceOnUse" color-interpolation-filters="sRGB">
<feFlood flood-opacity="0" result="BackgroundImageFix"/>
<feBlend mode="normal" in="SourceGraphic" in2="BackgroundImageFix" result="shape"/>
<feColorMatrix in="SourceAlpha" type="matrix" values="0 0 0 0 0 0 0 0 0 0 0 0 0 0 0 0 0 0 127 0" result="hardAlpha"/>
<feOffset dx="0.75" dy="-0.75"/>
<feGaussianBlur stdDeviation="1"/>
<feComposite in2="hardAlpha" operator="arithmetic" k2="-1" k3="1"/>
<feColorMatrix type="matrix" values="0 0 0 0 0.733333 0 0 0 0 0.490196 0 0 0 0 0.372549 0 0 0 1 0"/>
<feBlend mode="normal" in2="shape" result="effect1_innerShadow_20020_2546"/>
</filter>
<filter id="filter5_f_20020_2546" x="20.7767" y="1.61023" width="5.5" height="19.0625" filterUnits="userSpaceOnUse" color-interpolation-filters="sRGB">
<feFlood flood-opacity="0" result="BackgroundImageFix"/>
<feBlend mode="normal" in="SourceGraphic" in2="BackgroundImageFix" result="shape"/>
<feGaussianBlur stdDeviation="1" result="effect1_foregroundBlur_20020_2546"/>
</filter>
<filter id="filter6_f_20020_2546" x="15.6228" y="13.55" width="11.6543" height="8.74558" filterUnits="userSpaceOnUse" color-interpolation-filters="sRGB">
<feFlood flood-opacity="0" result="BackgroundImageFix"/>
<feBlend mode="normal" in="SourceGraphic" in2="BackgroundImageFix" result="shape"/>
<feGaussianBlur stdDeviation="0.85" result="effect1_foregroundBlur_20020_2546"/>
</filter>
<filter id="filter7_f_20020_2546" x="7.98334" y="6.83313" width="3" height="9.73615" filterUnits="userSpaceOnUse" color-interpolation-filters="sRGB">
<feFlood flood-opacity="0" result="BackgroundImageFix"/>
<feBlend mode="normal" in="SourceGraphic" in2="BackgroundImageFix" result="shape"/>
<feGaussianBlur stdDeviation="0.5" result="effect1_foregroundBlur_20020_2546"/>
</filter>
<filter id="filter8_f_20020_2546" x="12.812" y="10.1541" width="2.85114" height="5.45319" filterUnits="userSpaceOnUse" color-interpolation-filters="sRGB">
<feFlood flood-opacity="0" result="BackgroundImageFix"/>
<feBlend mode="normal" in="SourceGraphic" in2="BackgroundImageFix" result="shape"/>
<feGaussianBlur stdDeviation="0.5" result="effect1_foregroundBlur_20020_2546"/>
</filter>
<filter id="filter9_f_20020_2546" x="17.727" y="7.74658" width="3.36731" height="6.6261" filterUnits="userSpaceOnUse" color-interpolation-filters="sRGB">
<feFlood flood-opacity="0" result="BackgroundImageFix"/>
<feBlend mode="normal" in="SourceGraphic" in2="BackgroundImageFix" result="shape"/>
<feGaussianBlur stdDeviation="0.5" result="effect1_foregroundBlur_20020_2546"/>
</filter>
<radialGradient id="paint0_radial_20020_2546" cx="0" cy="0" r="1" gradientUnits="userSpaceOnUse" gradientTransform="translate(21.1735 16.3217) rotate(-72.2553) scale(4.62616 5.34681)">
<stop stop-color="#FFC9A0"/>
<stop offset="1" stop-color="#FFC9A0" stop-opacity="0"/>
</radialGradient>
<radialGradient id="paint1_radial_20020_2546" cx="0" cy="0" r="1" gradientUnits="userSpaceOnUse" gradientTransform="translate(21.7195 20.7026) rotate(180) scale(5.26865 4.94397)">
<stop stop-color="#F2B6A3"/>
<stop offset="1" stop-color="#F2B6A3" stop-opacity="0"/>
</radialGradient>
<radialGradient id="paint2_radial_20020_2546" cx="0" cy="0" r="1" gradientUnits="userSpaceOnUse" gradientTransform="translate(11.5787 15.7587) rotate(139.792) scale(9.94012 10.4063)">
<stop stop-color="#C6907B"/>
<stop offset="1" stop-color="#C6907B" stop-opacity="0"/>
</radialGradient>
<radialGradient id="paint3_radial_20020_2546" cx="0" cy="0" r="1" gradientUnits="userSpaceOnUse" gradientTransform="translate(12.7454 12.4227) rotate(133.334) scale(4.94079 3.81945)">
<stop stop-color="#B2715D"/>
<stop offset="1" stop-color="#B2715D" stop-opacity="0"/>
</radialGradient>
<radialGradient id="paint4_radial_20020_2546" cx="0" cy="0" r="1" gradientUnits="userSpaceOnUse" gradientTransform="translate(10.211 7.44207) scale(1.85935 1.79633)">
<stop stop-color="#FBCAA3"/>
<stop offset="1" stop-color="#FBCAA3" stop-opacity="0"/>
</radialGradient>
<radialGradient id="paint5_radial_20020_2546" cx="0" cy="0" r="1" gradientUnits="userSpaceOnUse" gradientTransform="translate(24.1094 3.82117) scale(2.5 2.21875)">
<stop stop-color="#FFD0A9"/>
<stop offset="1" stop-color="#FFD0A9" stop-opacity="0"/>
</radialGradient>
<linearGradient id="paint6_linear_20020_2546" x1="11.8438" y1="11.31" x2="14.8644" y2="11.3193" gradientUnits="userSpaceOnUse">
<stop stop-color="#D2A07D"/>
<stop offset="1" stop-color="#DDAF8B"/>
</linearGradient>
<radialGradient id="paint7_radial_20020_2546" cx="0" cy="0" r="1" gradientUnits="userSpaceOnUse" gradientTransform="translate(16.2825 9.70476) rotate(146.878) scale(1.56843 2.09849)">
<stop offset="0.214605" stop-color="#A7714B"/>
<stop offset="1" stop-color="#A7714B" stop-opacity="0"/>
</radialGradient>
<radialGradient id="paint8_radial_20020_2546" cx="0" cy="0" r="1" gradientUnits="userSpaceOnUse" gradientTransform="translate(13.2369 16.9661) rotate(-90) scale(3.11578 6.51664)">
<stop stop-color="#B57278"/>
<stop offset="1" stop-color="#B16C73" stop-opacity="0"/>
</radialGradient>
<linearGradient id="paint9_linear_20020_2546" x1="15.3976" y1="12.6649" x2="15.0278" y2="12.6649" gradientUnits="userSpaceOnUse">
<stop stop-color="#C2865B"/>
<stop offset="1" stop-color="#C2865B" stop-opacity="0"/>
</linearGradient>
<radialGradient id="paint10_radial_20020_2546" cx="0" cy="0" r="1" gradientUnits="userSpaceOnUse" gradientTransform="translate(19.6969 11.8106) rotate(160.412) scale(9.71985 13.8653)">
<stop offset="0.888806" stop-color="#D79C82" stop-opacity="0"/>
<stop offset="1" stop-color="#D79C82"/>
</radialGradient>
<linearGradient id="paint11_linear_20020_2546" x1="16.3021" y1="10.3964" x2="20.7388" y2="10.3964" gradientUnits="userSpaceOnUse">
<stop stop-color="#CC9676"/>
<stop offset="1" stop-color="#F0C097"/>
</linearGradient>
<linearGradient id="paint12_linear_20020_2546" x1="21.5931" y1="11.2536" x2="17.5269" y2="11.2536" gradientUnits="userSpaceOnUse">
<stop stop-color="#FFD0A7"/>
<stop offset="1" stop-color="#FFD0A7" stop-opacity="0"/>
</linearGradient>
<radialGradient id="paint13_radial_20020_2546" cx="0" cy="0" r="1" gradientUnits="userSpaceOnUse" gradientTransform="translate(22.4279 15.4475) rotate(113.901) scale(5.19085 15.9444)">
<stop stop-color="#F5C398"/>
<stop offset="1" stop-color="#B7737B"/>
</radialGradient>
<linearGradient id="paint14_linear_20020_2546" x1="24.6415" y1="22.4469" x2="21.636" y2="19.9378" gradientUnits="userSpaceOnUse">
<stop offset="0.249477" stop-color="#D69D8A"/>
<stop offset="1" stop-color="#D69D8A" stop-opacity="0"/>
</linearGradient>
<radialGradient id="paint15_radial_20020_2546" cx="0" cy="0" r="1" gradientUnits="userSpaceOnUse" gradientTransform="translate(22.4279 15.4475) rotate(113.901) scale(5.19085 15.9444)">
<stop stop-color="#F5C398"/>
<stop offset="1" stop-color="#B7737B"/>
</radialGradient>
<linearGradient id="paint16_linear_20020_2546" x1="24.6415" y1="22.4469" x2="21.636" y2="19.9378" gradientUnits="userSpaceOnUse">
<stop offset="0.249477" stop-color="#D69D8A"/>
<stop offset="1" stop-color="#D69D8A" stop-opacity="0"/>
</linearGradient>
<radialGradient id="paint17_radial_20020_2546" cx="0" cy="0" r="1" gradientUnits="userSpaceOnUse" gradientTransform="translate(20.9461 16.5537) rotate(-180) scale(6.05883 12.0286)">
<stop offset="0.837844" stop-color="#CB9178" stop-opacity="0"/>
<stop offset="1" stop-color="#CB9178"/>
</radialGradient>
<radialGradient id="paint18_radial_20020_2546" cx="0" cy="0" r="1" gradientUnits="userSpaceOnUse" gradientTransform="translate(20.9461 16.5537) rotate(-180) scale(6.05883 12.0286)">
<stop offset="0.837844" stop-color="#CB9178" stop-opacity="0"/>
<stop offset="1" stop-color="#CB9178"/>
</radialGradient>
<linearGradient id="paint19_linear_20020_2546" x1="18.0728" y1="16" x2="25.4186" y2="18.7115" gradientUnits="userSpaceOnUse">
<stop stop-color="#FFCFAB"/>
<stop offset="1" stop-color="#FFCFAB" stop-opacity="0"/>
</linearGradient>
<linearGradient id="paint20_linear_20020_2546" x1="26.1205" y1="16.4815" x2="23.5568" y2="16.4815" gradientUnits="userSpaceOnUse">
<stop stop-color="#F5C39E"/>
<stop offset="1" stop-color="#F5C39E" stop-opacity="0"/>
</linearGradient>
<radialGradient id="paint21_radial_20020_2546" cx="0" cy="0" r="1" gradientUnits="userSpaceOnUse" gradientTransform="translate(3.8859 11.4528) rotate(24.7045) scale(25.1258 26.7059)">
<stop offset="0.946057" stop-color="#D6A797" stop-opacity="0"/>
<stop offset="1" stop-color="#D6A797"/>
</radialGradient>
<linearGradient id="paint22_linear_20020_2546" x1="6.00558" y1="16.5104" x2="6.83411" y2="16.5104" gradientUnits="userSpaceOnUse">
<stop stop-color="#DFA487"/>
<stop offset="1" stop-color="#DFA487" stop-opacity="0"/>
</linearGradient>
<radialGradient id="paint23_radial_20020_2546" cx="0" cy="0" r="1" gradientUnits="userSpaceOnUse" gradientTransform="translate(18.0371 10.3353) rotate(100.422) scale(19.7254 14.941)">
<stop offset="0.89967" stop-color="#BD788B" stop-opacity="0"/>
<stop offset="1" stop-color="#BD788B"/>
</radialGradient>
<linearGradient id="paint24_linear_20020_2546" x1="10.1156" y1="8.01699" x2="10.1643" y2="17.1606" gradientUnits="userSpaceOnUse">
<stop stop-color="#FBC9A4"/>
<stop offset="1" stop-color="#FBC9A4" stop-opacity="0"/>
</linearGradient>
</defs>
</svg>
