<svg width="32" height="32" viewBox="0 0 32 32" fill="none" xmlns="http://www.w3.org/2000/svg">
<g clip-path="url(#clip0_6898_25647)">
<path d="M17.7031 26.0466L14.676 17.2783C14.6175 17.494 13.7364 17.5682 13.3032 17.5784L-0.294971 19.9299V31.4833L14.4571 28.9564C16.7795 28.6497 17.5828 26.8824 17.7031 26.0466Z" fill="#8248DD"/>
<path d="M17.7031 26.0466L14.676 17.2783C14.6175 17.494 13.7364 17.5682 13.3032 17.5784L-0.294971 19.9299V31.4833L14.4571 28.9564C16.7795 28.6497 17.5828 26.8824 17.7031 26.0466Z" fill="url(#paint0_linear_6898_25647)"/>
<path d="M17.7031 26.0466L14.676 17.2783C14.6175 17.494 13.7364 17.5682 13.3032 17.5784L-0.294971 19.9299V31.4833L14.4571 28.9564C16.7795 28.6497 17.5828 26.8824 17.7031 26.0466Z" fill="url(#paint1_linear_6898_25647)"/>
<path d="M17.7031 26.0466L14.676 17.2783C14.6175 17.494 13.7364 17.5682 13.3032 17.5784L-0.294971 19.9299V31.4833L14.4571 28.9564C16.7795 28.6497 17.5828 26.8824 17.7031 26.0466Z" fill="url(#paint2_radial_6898_25647)"/>
<path d="M17.7031 26.0466L14.676 17.2783C14.6175 17.494 13.7364 17.5682 13.3032 17.5784L-0.294971 19.9299V31.4833L14.4571 28.9564C16.7795 28.6497 17.5828 26.8824 17.7031 26.0466Z" fill="url(#paint3_linear_6898_25647)"/>
<path d="M17.7031 26.0466L14.676 17.2783C14.6175 17.494 13.7364 17.5682 13.3032 17.5784L-0.294971 19.9299V31.4833L14.4571 28.9564C16.7795 28.6497 17.5828 26.8824 17.7031 26.0466Z" fill="url(#paint4_linear_6898_25647)"/>
<path d="M17.7031 26.0466L14.676 17.2783C14.6175 17.494 13.7364 17.5682 13.3032 17.5784L-0.294971 19.9299V31.4833L14.4571 28.9564C16.7795 28.6497 17.5828 26.8824 17.7031 26.0466Z" fill="url(#paint5_radial_6898_25647)"/>
<path d="M17.7031 26.0466L14.676 17.2783C14.6175 17.494 13.7364 17.5682 13.3032 17.5784L-0.294971 19.9299V31.4833L14.4571 28.9564C16.7795 28.6497 17.5828 26.8824 17.7031 26.0466Z" fill="url(#paint6_radial_6898_25647)"/>
<path d="M17.7031 26.0466L14.676 17.2783C14.6175 17.494 13.7364 17.5682 13.3032 17.5784L-0.294971 19.9299V31.4833L14.4571 28.9564C16.7795 28.6497 17.5828 26.8824 17.7031 26.0466Z" fill="url(#paint7_radial_6898_25647)"/>
<path d="M17.7031 26.0466L14.676 17.2783C14.6175 17.494 13.7364 17.5682 13.3032 17.5784L-0.294971 19.9299V31.4833L14.4571 28.9564C16.7795 28.6497 17.5828 26.8824 17.7031 26.0466Z" fill="url(#paint8_linear_6898_25647)"/>
<path d="M17.7031 26.0466L14.676 17.2783C14.6175 17.494 13.7364 17.5682 13.3032 17.5784L-0.294971 19.9299V31.4833L14.4571 28.9564C16.7795 28.6497 17.5828 26.8824 17.7031 26.0466Z" fill="url(#paint9_radial_6898_25647)"/>
<path d="M17.7031 26.0466L14.676 17.2783C14.6175 17.494 13.7364 17.5682 13.3032 17.5784L-0.294971 19.9299V31.4833L14.4571 28.9564C16.7795 28.6497 17.5828 26.8824 17.7031 26.0466Z" fill="url(#paint10_radial_6898_25647)"/>
<path d="M17.7031 26.0466L14.676 17.2783C14.6175 17.494 13.7364 17.5682 13.3032 17.5784L-0.294971 19.9299V31.4833L14.4571 28.9564C16.7795 28.6497 17.5828 26.8824 17.7031 26.0466Z" fill="url(#paint11_linear_6898_25647)"/>
<path d="M17.7031 26.0466L14.676 17.2783C14.6175 17.494 13.7364 17.5682 13.3032 17.5784L-0.294971 19.9299V31.4833L14.4571 28.9564C16.7795 28.6497 17.5828 26.8824 17.7031 26.0466Z" fill="url(#paint12_radial_6898_25647)"/>
<path d="M17.7031 26.0466L14.676 17.2783C14.6175 17.494 13.7364 17.5682 13.3032 17.5784L-0.294971 19.9299V31.4833L14.4571 28.9564C16.7795 28.6497 17.5828 26.8824 17.7031 26.0466Z" fill="url(#paint13_radial_6898_25647)"/>
<path d="M17.2419 26.2246C18.1074 26.0524 18.6587 25.8548 18.8262 25.7776C16.4874 21.7944 11.8473 13.9157 11.9973 14.2657C12.1848 14.7032 13.0129 16.2657 13.3801 16.9844C13.7473 17.7032 13.7395 18.586 13.7395 18.7422C13.7395 18.8985 13.4504 19.4219 13.3801 19.7501C13.3098 19.8282 12.7473 20.3751 12.5833 21.5782C12.452 22.5407 12.4844 23.2001 12.5171 23.4095C12.6109 24.6515 13.1174 25.3164 13.5382 25.7941C14.2724 26.6276 15.4092 26.6645 15.6744 26.6221C15.8124 26.6 16.1602 26.4399 17.2419 26.2246Z" fill="url(#paint14_linear_6898_25647)"/>
<path d="M23.782 21.6866C22.7323 23.9584 19.863 25.431 18.5596 25.8833C17.9999 26.063 16.3989 26.0777 14.4725 24.6991C12.0646 22.976 13.3381 20.0483 13.4051 19.7386C13.472 19.429 13.7147 18.8097 13.7482 18.6256C13.7817 18.4415 13.6478 17.6715 13.4636 17.1861C13.3163 16.7978 12.8332 15.875 12.61 15.4622L15.4392 12.1296L25.0776 11.875C25.1037 12.9717 25.4058 14.828 25.2116 16.6143C25.0547 18.0572 25.0941 18.8469 23.782 21.6866Z" fill="url(#paint15_linear_6898_25647)"/>
<path d="M25.188 11.8961C25.2025 12.5347 25.2341 13.9395 25.248 14.5621C23.5606 14.3598 22.646 13.3021 22.646 11.8188C22.6341 11.564 22.6003 10.9807 22.5561 10.0523C22.5207 9.30962 22.4131 7.79417 22.3638 7.12928C22.6158 7.04632 23.2597 6.95477 23.8184 7.25226C25.1698 7.85996 25.07 9.2386 25.188 11.8961Z" fill="url(#paint16_linear_6898_25647)"/>
<path d="M25.188 11.8961C25.2025 12.5347 25.2341 13.9395 25.248 14.5621C23.5606 14.3598 22.646 13.3021 22.646 11.8188C22.6341 11.564 22.6003 10.9807 22.5561 10.0523C22.5207 9.30962 22.4131 7.79417 22.3638 7.12928C22.6158 7.04632 23.2597 6.95477 23.8184 7.25226C25.1698 7.85996 25.07 9.2386 25.188 11.8961Z" fill="url(#paint17_radial_6898_25647)"/>
<path d="M25.188 11.8961C25.2025 12.5347 25.2341 13.9395 25.248 14.5621C23.5606 14.3598 22.646 13.3021 22.646 11.8188C22.6341 11.564 22.6003 10.9807 22.5561 10.0523C22.5207 9.30962 22.4131 7.79417 22.3638 7.12928C22.6158 7.04632 23.2597 6.95477 23.8184 7.25226C25.1698 7.85996 25.07 9.2386 25.188 11.8961Z" fill="url(#paint18_radial_6898_25647)"/>
<path d="M25.188 11.8961C25.2025 12.5347 25.2341 13.9395 25.248 14.5621C23.5606 14.3598 22.646 13.3021 22.646 11.8188C22.6341 11.564 22.6003 10.9807 22.5561 10.0523C22.5207 9.30962 22.4131 7.79417 22.3638 7.12928C22.6158 7.04632 23.2597 6.95477 23.8184 7.25226C25.1698 7.85996 25.07 9.2386 25.188 11.8961Z" fill="url(#paint19_linear_6898_25647)"/>
<path d="M25.188 11.8961C25.2025 12.5347 25.2341 13.9395 25.248 14.5621C23.5606 14.3598 22.646 13.3021 22.646 11.8188C22.6341 11.564 22.6003 10.9807 22.5561 10.0523C22.5207 9.30962 22.4131 7.79417 22.3638 7.12928C22.6158 7.04632 23.2597 6.95477 23.8184 7.25226C25.1698 7.85996 25.07 9.2386 25.188 11.8961Z" fill="url(#paint20_radial_6898_25647)"/>
<path d="M22.6104 10.7045C22.6467 11.958 22.826 12.8787 22.9111 13.1824C21.9455 13.0002 20.2145 12.7724 20.3238 10.4676C20.3147 9.98475 20.2509 8.64557 20.2145 8.01698C20.178 7.38838 20.0778 5.55726 19.9594 4.62802C20.2145 4.59158 20.6518 4.5005 21.4352 5.01066C22.2187 5.52082 22.2642 6.34985 22.3553 6.98755C22.4464 7.62526 22.5649 9.13752 22.6104 10.7045Z" fill="url(#paint21_linear_6898_25647)"/>
<path d="M22.6104 10.7045C22.6467 11.958 22.826 12.8787 22.9111 13.1824C21.9455 13.0002 20.2145 12.7724 20.3238 10.4676C20.3147 9.98475 20.2509 8.64557 20.2145 8.01698C20.178 7.38838 20.0778 5.55726 19.9594 4.62802C20.2145 4.59158 20.6518 4.5005 21.4352 5.01066C22.2187 5.52082 22.2642 6.34985 22.3553 6.98755C22.4464 7.62526 22.5649 9.13752 22.6104 10.7045Z" fill="url(#paint22_radial_6898_25647)"/>
<path d="M22.6104 10.7045C22.6467 11.958 22.826 12.8787 22.9111 13.1824C21.9455 13.0002 20.2145 12.7724 20.3238 10.4676C20.3147 9.98475 20.2509 8.64557 20.2145 8.01698C20.178 7.38838 20.0778 5.55726 19.9594 4.62802C20.2145 4.59158 20.6518 4.5005 21.4352 5.01066C22.2187 5.52082 22.2642 6.34985 22.3553 6.98755C22.4464 7.62526 22.5649 9.13752 22.6104 10.7045Z" fill="url(#paint23_radial_6898_25647)"/>
<path d="M22.6104 10.7045C22.6467 11.958 22.826 12.8787 22.9111 13.1824C21.9455 13.0002 20.2145 12.7724 20.3238 10.4676C20.3147 9.98475 20.2509 8.64557 20.2145 8.01698C20.178 7.38838 20.0778 5.55726 19.9594 4.62802C20.2145 4.59158 20.6518 4.5005 21.4352 5.01066C22.2187 5.52082 22.2642 6.34985 22.3553 6.98755C22.4464 7.62526 22.5649 9.13752 22.6104 10.7045Z" fill="url(#paint24_linear_6898_25647)"/>
<path d="M22.6104 10.7045C22.6467 11.958 22.826 12.8787 22.9111 13.1824C21.9455 13.0002 20.2145 12.7724 20.3238 10.4676C20.3147 9.98475 20.2509 8.64557 20.2145 8.01698C20.178 7.38838 20.0778 5.55726 19.9594 4.62802C20.2145 4.59158 20.6518 4.5005 21.4352 5.01066C22.2187 5.52082 22.2642 6.34985 22.3553 6.98755C22.4464 7.62526 22.5649 9.13752 22.6104 10.7045Z" fill="url(#paint25_radial_6898_25647)"/>
<path d="M20.3215 10.0277C20.3845 11.7112 20.589 11.7164 20.6992 12.0023C19.6286 13.5128 17.0575 12.8879 15.9057 12.3867V4.62782C16.0133 3.91065 16.613 2.52741 18.1514 2.73181C20.0743 2.9873 20.0305 4.9457 20.1092 6.04706C20.1878 7.14843 20.2744 8.91061 20.3215 10.0277Z" fill="url(#paint26_linear_6898_25647)"/>
<path d="M20.3215 10.0277C20.3845 11.7112 20.589 11.7164 20.6992 12.0023C19.6286 13.5128 17.0575 12.8879 15.9057 12.3867V4.62782C16.0133 3.91065 16.613 2.52741 18.1514 2.73181C20.0743 2.9873 20.0305 4.9457 20.1092 6.04706C20.1878 7.14843 20.2744 8.91061 20.3215 10.0277Z" fill="url(#paint27_radial_6898_25647)"/>
<path d="M20.3215 10.0277C20.3845 11.7112 20.589 11.7164 20.6992 12.0023C19.6286 13.5128 17.0575 12.8879 15.9057 12.3867V4.62782C16.0133 3.91065 16.613 2.52741 18.1514 2.73181C20.0743 2.9873 20.0305 4.9457 20.1092 6.04706C20.1878 7.14843 20.2744 8.91061 20.3215 10.0277Z" fill="url(#paint28_radial_6898_25647)"/>
<path d="M20.3215 10.0277C20.3845 11.7112 20.589 11.7164 20.6992 12.0023C19.6286 13.5128 17.0575 12.8879 15.9057 12.3867V4.62782C16.0133 3.91065 16.613 2.52741 18.1514 2.73181C20.0743 2.9873 20.0305 4.9457 20.1092 6.04706C20.1878 7.14843 20.2744 8.91061 20.3215 10.0277Z" fill="url(#paint29_linear_6898_25647)"/>
<path d="M20.3215 10.0277C20.3845 11.7112 20.589 11.7164 20.6992 12.0023C19.6286 13.5128 17.0575 12.8879 15.9057 12.3867V4.62782C16.0133 3.91065 16.613 2.52741 18.1514 2.73181C20.0743 2.9873 20.0305 4.9457 20.1092 6.04706C20.1878 7.14843 20.2744 8.91061 20.3215 10.0277Z" fill="url(#paint30_radial_6898_25647)"/>
<path d="M18.2878 10.2284C18.504 12.1835 18.8735 12.9425 19.0312 13.0776C18.833 14.3101 18.8472 17.2673 18.2878 17.6879C17.322 18.4143 15.5835 15.9634 14.8418 15.6115L14.4251 12.5821C14.2224 10.9529 13.7989 7.55707 13.7268 7.00749C13.6367 6.32052 13.862 4.60871 15.5513 4.5524C17.2405 4.49609 17.7248 5.92636 17.8149 6.50072L17.818 6.52043C17.9076 7.09149 18.0207 7.81245 18.2878 10.2284Z" fill="url(#paint31_linear_6898_25647)"/>
<path d="M18.2878 10.2284C18.504 12.1835 18.8735 12.9425 19.0312 13.0776C18.833 14.3101 18.8472 17.2673 18.2878 17.6879C17.322 18.4143 15.5835 15.9634 14.8418 15.6115L14.4251 12.5821C14.2224 10.9529 13.7989 7.55707 13.7268 7.00749C13.6367 6.32052 13.862 4.60871 15.5513 4.5524C17.2405 4.49609 17.7248 5.92636 17.8149 6.50072L17.818 6.52043C17.9076 7.09149 18.0207 7.81245 18.2878 10.2284Z" fill="url(#paint32_radial_6898_25647)"/>
<path d="M18.2878 10.2284C18.504 12.1835 18.8735 12.9425 19.0312 13.0776C18.833 14.3101 18.8472 17.2673 18.2878 17.6879C17.322 18.4143 15.5835 15.9634 14.8418 15.6115L14.4251 12.5821C14.2224 10.9529 13.7989 7.55707 13.7268 7.00749C13.6367 6.32052 13.862 4.60871 15.5513 4.5524C17.2405 4.49609 17.7248 5.92636 17.8149 6.50072L17.818 6.52043C17.9076 7.09149 18.0207 7.81245 18.2878 10.2284Z" fill="url(#paint33_linear_6898_25647)"/>
<path d="M16.7008 13.9279C17.5185 15.3354 18.2933 16.019 18.5785 16.1848C18.6662 16.2359 20.4407 18.6403 17.3659 22.0612C15.6976 23.53 12.517 25.5655 13.0874 20.8204C13.1495 20.3038 13.6465 19.0234 13.7449 18.6403C13.7754 18.3241 13.5994 17.6476 13.4902 17.3514C13.2564 16.5875 12.8089 15.938 12.0449 14.4101C11.281 12.8822 12.0923 11.188 13.7293 11.2815C15.3664 11.3751 15.6787 12.1686 16.7008 13.9279Z" fill="#B8867F"/>
<path d="M16.7008 13.9279C17.5185 15.3354 18.2933 16.019 18.5785 16.1848C18.6662 16.2359 20.4407 18.6403 17.3659 22.0612C15.6976 23.53 12.517 25.5655 13.0874 20.8204C13.1495 20.3038 13.6465 19.0234 13.7449 18.6403C13.7754 18.3241 13.5994 17.6476 13.4902 17.3514C13.2564 16.5875 12.8089 15.938 12.0449 14.4101C11.281 12.8822 12.0923 11.188 13.7293 11.2815C15.3664 11.3751 15.6787 12.1686 16.7008 13.9279Z" fill="url(#paint34_linear_6898_25647)"/>
<path d="M16.7008 13.9279C17.5185 15.3354 18.2933 16.019 18.5785 16.1848C18.6662 16.2359 20.4407 18.6403 17.3659 22.0612C15.6976 23.53 12.517 25.5655 13.0874 20.8204C13.1495 20.3038 13.6465 19.0234 13.7449 18.6403C13.7754 18.3241 13.5994 17.6476 13.4902 17.3514C13.2564 16.5875 12.8089 15.938 12.0449 14.4101C11.281 12.8822 12.0923 11.188 13.7293 11.2815C15.3664 11.3751 15.6787 12.1686 16.7008 13.9279Z" fill="url(#paint35_radial_6898_25647)"/>
<path d="M16.7008 13.9279C17.5185 15.3354 18.2933 16.019 18.5785 16.1848C18.6662 16.2359 20.4407 18.6403 17.3659 22.0612C15.6976 23.53 12.517 25.5655 13.0874 20.8204C13.1495 20.3038 13.6465 19.0234 13.7449 18.6403C13.7754 18.3241 13.5994 17.6476 13.4902 17.3514C13.2564 16.5875 12.8089 15.938 12.0449 14.4101C11.281 12.8822 12.0923 11.188 13.7293 11.2815C15.3664 11.3751 15.6787 12.1686 16.7008 13.9279Z" fill="url(#paint36_radial_6898_25647)"/>
<path d="M16.7008 13.9279C17.5185 15.3354 18.2933 16.019 18.5785 16.1848C18.6662 16.2359 20.4407 18.6403 17.3659 22.0612C15.6976 23.53 12.517 25.5655 13.0874 20.8204C13.1495 20.3038 13.6465 19.0234 13.7449 18.6403C13.7754 18.3241 13.5994 17.6476 13.4902 17.3514C13.2564 16.5875 12.8089 15.938 12.0449 14.4101C11.281 12.8822 12.0923 11.188 13.7293 11.2815C15.3664 11.3751 15.6787 12.1686 16.7008 13.9279Z" fill="url(#paint37_radial_6898_25647)"/>
<path d="M16.7008 13.9279C17.5185 15.3354 18.2933 16.019 18.5785 16.1848C18.6662 16.2359 20.4407 18.6403 17.3659 22.0612C15.6976 23.53 12.517 25.5655 13.0874 20.8204C13.1495 20.3038 13.6465 19.0234 13.7449 18.6403C13.7754 18.3241 13.5994 17.6476 13.4902 17.3514C13.2564 16.5875 12.8089 15.938 12.0449 14.4101C11.281 12.8822 12.0923 11.188 13.7293 11.2815C15.3664 11.3751 15.6787 12.1686 16.7008 13.9279Z" fill="url(#paint38_radial_6898_25647)"/>
<path d="M16.7008 13.9279C17.5185 15.3354 18.2933 16.019 18.5785 16.1848C18.6662 16.2359 20.4407 18.6403 17.3659 22.0612C15.6976 23.53 12.517 25.5655 13.0874 20.8204C13.1495 20.3038 13.6465 19.0234 13.7449 18.6403C13.7754 18.3241 13.5994 17.6476 13.4902 17.3514C13.2564 16.5875 12.8089 15.938 12.0449 14.4101C11.281 12.8822 12.0923 11.188 13.7293 11.2815C15.3664 11.3751 15.6787 12.1686 16.7008 13.9279Z" fill="url(#paint39_linear_6898_25647)"/>
<path d="M16.7008 13.9279C17.5185 15.3354 18.2933 16.019 18.5785 16.1848C18.6662 16.2359 20.4407 18.6403 17.3659 22.0612C15.6976 23.53 12.517 25.5655 13.0874 20.8204C13.1495 20.3038 13.6465 19.0234 13.7449 18.6403C13.7754 18.3241 13.5994 17.6476 13.4902 17.3514C13.2564 16.5875 12.8089 15.938 12.0449 14.4101C11.281 12.8822 12.0923 11.188 13.7293 11.2815C15.3664 11.3751 15.6787 12.1686 16.7008 13.9279Z" fill="url(#paint40_radial_6898_25647)"/>
<path d="M16.7008 13.9279C17.5185 15.3354 18.2933 16.019 18.5785 16.1848C18.6662 16.2359 20.4407 18.6403 17.3659 22.0612C15.6976 23.53 12.517 25.5655 13.0874 20.8204C13.1495 20.3038 13.6465 19.0234 13.7449 18.6403C13.7754 18.3241 13.5994 17.6476 13.4902 17.3514C13.2564 16.5875 12.8089 15.938 12.0449 14.4101C11.281 12.8822 12.0923 11.188 13.7293 11.2815C15.3664 11.3751 15.6787 12.1686 16.7008 13.9279Z" fill="url(#paint41_radial_6898_25647)"/>
<path d="M16.7008 13.9279C17.5185 15.3354 18.2933 16.019 18.5785 16.1848C18.6662 16.2359 20.4407 18.6403 17.3659 22.0612C15.6976 23.53 12.517 25.5655 13.0874 20.8204C13.1495 20.3038 13.6465 19.0234 13.7449 18.6403C13.7754 18.3241 13.5994 17.6476 13.4902 17.3514C13.2564 16.5875 12.8089 15.938 12.0449 14.4101C11.281 12.8822 12.0923 11.188 13.7293 11.2815C15.3664 11.3751 15.6787 12.1686 16.7008 13.9279Z" fill="url(#paint42_radial_6898_25647)"/>
<path d="M15.575 12.1261L25.2115 11.8751C25.2376 12.9718 25.2742 15.4551 25.2115 16.6145L25.2109 16.6263C25.0776 18.0781 25.0904 18.8548 23.7819 21.6867C22.7322 23.9585 19.8629 25.4311 18.5595 25.8835C17.9998 26.0631 16.3988 26.0778 14.4725 24.6993C13.0126 23.6546 12.9059 22.1671 13.0631 21.0888C13.0691 21.0022 13.0769 20.9128 13.0867 20.8205C13.1213 20.4925 13.3324 19.8798 13.5101 19.3639C13.6127 19.0659 13.7043 18.8003 13.7442 18.6404C13.7461 18.6331 13.7478 18.6256 13.7494 18.6179C13.7779 18.4208 13.6452 17.6651 13.4636 17.1863C13.3163 16.7979 12.8331 15.8751 12.6099 15.4623L12.619 15.4516C12.449 15.1383 12.2578 14.779 12.0448 14.353C11.2809 12.8252 12.0916 11.1881 13.7286 11.2817C14.6351 11.3335 15.1354 11.5999 15.575 12.1261Z" fill="url(#paint43_radial_6898_25647)"/>
<path d="M15.575 12.1261L25.2115 11.8751C25.2376 12.9718 25.2742 15.4551 25.2115 16.6145L25.2109 16.6263C25.0776 18.0781 25.0904 18.8548 23.7819 21.6867C22.7322 23.9585 19.8629 25.4311 18.5595 25.8835C17.9998 26.0631 16.3988 26.0778 14.4725 24.6993C13.0126 23.6546 12.9059 22.1671 13.0631 21.0888C13.0691 21.0022 13.0769 20.9128 13.0867 20.8205C13.1213 20.4925 13.3324 19.8798 13.5101 19.3639C13.6127 19.0659 13.7043 18.8003 13.7442 18.6404C13.7461 18.6331 13.7478 18.6256 13.7494 18.6179C13.7779 18.4208 13.6452 17.6651 13.4636 17.1863C13.3163 16.7979 12.8331 15.8751 12.6099 15.4623L12.619 15.4516C12.449 15.1383 12.2578 14.779 12.0448 14.353C11.2809 12.8252 12.0916 11.1881 13.7286 11.2817C14.6351 11.3335 15.1354 11.5999 15.575 12.1261Z" fill="url(#paint44_radial_6898_25647)"/>
<path d="M15.575 12.1261L25.2115 11.8751C25.2376 12.9718 25.2742 15.4551 25.2115 16.6145L25.2109 16.6263C25.0776 18.0781 25.0904 18.8548 23.7819 21.6867C22.7322 23.9585 19.8629 25.4311 18.5595 25.8835C17.9998 26.0631 16.3988 26.0778 14.4725 24.6993C13.0126 23.6546 12.9059 22.1671 13.0631 21.0888C13.0691 21.0022 13.0769 20.9128 13.0867 20.8205C13.1213 20.4925 13.3324 19.8798 13.5101 19.3639C13.6127 19.0659 13.7043 18.8003 13.7442 18.6404C13.7461 18.6331 13.7478 18.6256 13.7494 18.6179C13.7779 18.4208 13.6452 17.6651 13.4636 17.1863C13.3163 16.7979 12.8331 15.8751 12.6099 15.4623L12.619 15.4516C12.449 15.1383 12.2578 14.779 12.0448 14.353C11.2809 12.8252 12.0916 11.1881 13.7286 11.2817C14.6351 11.3335 15.1354 11.5999 15.575 12.1261Z" fill="url(#paint45_radial_6898_25647)"/>
<path d="M15.575 12.1261L25.2115 11.8751C25.2376 12.9718 25.2742 15.4551 25.2115 16.6145L25.2109 16.6263C25.0776 18.0781 25.0904 18.8548 23.7819 21.6867C22.7322 23.9585 19.8629 25.4311 18.5595 25.8835C17.9998 26.0631 16.3988 26.0778 14.4725 24.6993C13.0126 23.6546 12.9059 22.1671 13.0631 21.0888C13.0691 21.0022 13.0769 20.9128 13.0867 20.8205C13.1213 20.4925 13.3324 19.8798 13.5101 19.3639C13.6127 19.0659 13.7043 18.8003 13.7442 18.6404C13.7461 18.6331 13.7478 18.6256 13.7494 18.6179C13.7779 18.4208 13.6452 17.6651 13.4636 17.1863C13.3163 16.7979 12.8331 15.8751 12.6099 15.4623L12.619 15.4516C12.449 15.1383 12.2578 14.779 12.0448 14.353C11.2809 12.8252 12.0916 11.1881 13.7286 11.2817C14.6351 11.3335 15.1354 11.5999 15.575 12.1261Z" fill="url(#paint46_radial_6898_25647)"/>
<path d="M15.575 12.1261L25.2115 11.8751C25.2376 12.9718 25.2742 15.4551 25.2115 16.6145L25.2109 16.6263C25.0776 18.0781 25.0904 18.8548 23.7819 21.6867C22.7322 23.9585 19.8629 25.4311 18.5595 25.8835C17.9998 26.0631 16.3988 26.0778 14.4725 24.6993C13.0126 23.6546 12.9059 22.1671 13.0631 21.0888C13.0691 21.0022 13.0769 20.9128 13.0867 20.8205C13.1213 20.4925 13.3324 19.8798 13.5101 19.3639C13.6127 19.0659 13.7043 18.8003 13.7442 18.6404C13.7461 18.6331 13.7478 18.6256 13.7494 18.6179C13.7779 18.4208 13.6452 17.6651 13.4636 17.1863C13.3163 16.7979 12.8331 15.8751 12.6099 15.4623L12.619 15.4516C12.449 15.1383 12.2578 14.779 12.0448 14.353C11.2809 12.8252 12.0916 11.1881 13.7286 11.2817C14.6351 11.3335 15.1354 11.5999 15.575 12.1261Z" fill="url(#paint47_radial_6898_25647)"/>
<path d="M15.575 12.1261L25.2115 11.8751C25.2376 12.9718 25.2742 15.4551 25.2115 16.6145L25.2109 16.6263C25.0776 18.0781 25.0904 18.8548 23.7819 21.6867C22.7322 23.9585 19.8629 25.4311 18.5595 25.8835C17.9998 26.0631 16.3988 26.0778 14.4725 24.6993C13.0126 23.6546 12.9059 22.1671 13.0631 21.0888C13.0691 21.0022 13.0769 20.9128 13.0867 20.8205C13.1213 20.4925 13.3324 19.8798 13.5101 19.3639C13.6127 19.0659 13.7043 18.8003 13.7442 18.6404C13.7461 18.6331 13.7478 18.6256 13.7494 18.6179C13.7779 18.4208 13.6452 17.6651 13.4636 17.1863C13.3163 16.7979 12.8331 15.8751 12.6099 15.4623L12.619 15.4516C12.449 15.1383 12.2578 14.779 12.0448 14.353C11.2809 12.8252 12.0916 11.1881 13.7286 11.2817C14.6351 11.3335 15.1354 11.5999 15.575 12.1261Z" fill="url(#paint48_radial_6898_25647)"/>
<path d="M15.575 12.1261L25.2115 11.8751C25.2376 12.9718 25.2742 15.4551 25.2115 16.6145L25.2109 16.6263C25.0776 18.0781 25.0904 18.8548 23.7819 21.6867C22.7322 23.9585 19.8629 25.4311 18.5595 25.8835C17.9998 26.0631 16.3988 26.0778 14.4725 24.6993C13.0126 23.6546 12.9059 22.1671 13.0631 21.0888C13.0691 21.0022 13.0769 20.9128 13.0867 20.8205C13.1213 20.4925 13.3324 19.8798 13.5101 19.3639C13.6127 19.0659 13.7043 18.8003 13.7442 18.6404C13.7461 18.6331 13.7478 18.6256 13.7494 18.6179C13.7779 18.4208 13.6452 17.6651 13.4636 17.1863C13.3163 16.7979 12.8331 15.8751 12.6099 15.4623L12.619 15.4516C12.449 15.1383 12.2578 14.779 12.0448 14.353C11.2809 12.8252 12.0916 11.1881 13.7286 11.2817C14.6351 11.3335 15.1354 11.5999 15.575 12.1261Z" fill="url(#paint49_radial_6898_25647)"/>
</g>
<defs>
<linearGradient id="paint0_linear_6898_25647" x1="8.19263" y1="27.0001" x2="8.7041" y2="31.0626" gradientUnits="userSpaceOnUse">
<stop offset="0.456025" stop-color="#4D51FF"/>
<stop offset="0.973958" stop-color="#9D68FF"/>
<stop offset="1" stop-color="#4D51FF" stop-opacity="0"/>
</linearGradient>
<linearGradient id="paint1_linear_6898_25647" x1="15.192" y1="30.047" x2="12.0672" y2="22.9909" gradientUnits="userSpaceOnUse">
<stop stop-color="#5D3AD5"/>
<stop offset="1" stop-color="#5D3AD5" stop-opacity="0"/>
</linearGradient>
<radialGradient id="paint2_radial_6898_25647" cx="0" cy="0" r="1" gradientUnits="userSpaceOnUse" gradientTransform="translate(14.1926 21.0001) rotate(98.5308) scale(10.1119 24.3768)">
<stop offset="0.293695" stop-color="#8E4AE5"/>
<stop offset="0.87393" stop-color="#8E4AE5" stop-opacity="0"/>
</radialGradient>
<linearGradient id="paint3_linear_6898_25647" x1="-0.857205" y1="27.4499" x2="6.81742" y2="26.3091" gradientUnits="userSpaceOnUse">
<stop stop-color="#465EFF"/>
<stop offset="1" stop-color="#465EFF" stop-opacity="0"/>
</linearGradient>
<linearGradient id="paint4_linear_6898_25647" x1="6.44263" y1="18.0626" x2="8.25513" y2="30.2501" gradientUnits="userSpaceOnUse">
<stop offset="0.0520691" stop-color="#A4A7FF" stop-opacity="0"/>
<stop offset="0.313145" stop-color="#A4A7FF" stop-opacity="0.62"/>
<stop offset="0.715638" stop-color="#A4A7FF" stop-opacity="0"/>
</linearGradient>
<radialGradient id="paint5_radial_6898_25647" cx="0" cy="0" r="1" gradientUnits="userSpaceOnUse" gradientTransform="translate(17.3719 20.9418) rotate(96.0377) scale(6.53753 6.03658)">
<stop offset="0.82546" stop-color="#852DBD"/>
<stop offset="1" stop-color="#852DBD" stop-opacity="0"/>
</radialGradient>
<radialGradient id="paint6_radial_6898_25647" cx="0" cy="0" r="1" gradientUnits="userSpaceOnUse" gradientTransform="translate(16.7929 21.6478) rotate(86.1345) scale(7.98835 6.16651)">
<stop offset="0.462083" stop-color="#852AAB"/>
<stop offset="1" stop-color="#6F32FB" stop-opacity="0"/>
</radialGradient>
<radialGradient id="paint7_radial_6898_25647" cx="0" cy="0" r="1" gradientUnits="userSpaceOnUse" gradientTransform="translate(1.18729 16.7664) rotate(32.9048) scale(19.0802 24.1752)">
<stop offset="0.974449" stop-color="#806DD1" stop-opacity="0"/>
<stop offset="1" stop-color="#806DD1"/>
</radialGradient>
<linearGradient id="paint8_linear_6898_25647" x1="8.70408" y1="17.2783" x2="8.70408" y2="31.4833" gradientUnits="userSpaceOnUse">
<stop offset="0.250396" stop-color="#603D8B"/>
<stop offset="0.657752" stop-color="#5736F5"/>
<stop offset="1" stop-color="#603D8B" stop-opacity="0"/>
</linearGradient>
<radialGradient id="paint9_radial_6898_25647" cx="0" cy="0" r="1" gradientUnits="userSpaceOnUse" gradientTransform="translate(16.5261 26.1278) rotate(145.602) scale(9.47967 12.011)">
<stop stop-color="#5C3BD1"/>
<stop offset="1" stop-color="#5C3BD1" stop-opacity="0"/>
</radialGradient>
<radialGradient id="paint10_radial_6898_25647" cx="0" cy="0" r="1" gradientUnits="userSpaceOnUse" gradientTransform="translate(-2.12601 20.5048) rotate(18.3583) scale(20.8924 11.2164)">
<stop offset="0.9139" stop-color="#A58FF2" stop-opacity="0"/>
<stop offset="1" stop-color="#A58FF2"/>
</radialGradient>
<linearGradient id="paint11_linear_6898_25647" x1="7.57534" y1="26.2085" x2="8.4185" y2="30.964" gradientUnits="userSpaceOnUse">
<stop offset="0.670295" stop-color="#9D6AFF" stop-opacity="0"/>
<stop offset="0.803625" stop-color="#9D6AFF"/>
</linearGradient>
<radialGradient id="paint12_radial_6898_25647" cx="0" cy="0" r="1" gradientUnits="userSpaceOnUse" gradientTransform="translate(16.3895 23.0324) rotate(86.4237) scale(6.02199 5.0355)">
<stop offset="0.0204228" stop-color="#7232F9" stop-opacity="0"/>
<stop offset="0.64483" stop-color="#7232F9" stop-opacity="0"/>
<stop offset="0.705451" stop-color="#7232F9"/>
<stop offset="0.947265" stop-color="#7232F9" stop-opacity="0"/>
</radialGradient>
<radialGradient id="paint13_radial_6898_25647" cx="0" cy="0" r="1" gradientUnits="userSpaceOnUse" gradientTransform="translate(16.4834 18.1491) rotate(90.9392) scale(8.59395 7.27784)">
<stop offset="0.513279" stop-color="#572685"/>
<stop offset="1" stop-color="#572685" stop-opacity="0"/>
</radialGradient>
<linearGradient id="paint14_linear_6898_25647" x1="13.5646" y1="21.0217" x2="15.6757" y2="26.6334" gradientUnits="userSpaceOnUse">
<stop stop-color="#68474A"/>
<stop offset="0.524982" stop-color="#895867"/>
<stop offset="0.84375" stop-color="#905374"/>
<stop offset="0.932292" stop-color="#905180"/>
</linearGradient>
<linearGradient id="paint15_linear_6898_25647" x1="21.0911" y1="13.2833" x2="18.928" y2="25.9686" gradientUnits="userSpaceOnUse">
<stop offset="0.146678" stop-color="#CFA48A"/>
<stop offset="0.381228" stop-color="#C59781"/>
<stop offset="0.59786" stop-color="#B98680"/>
<stop offset="1" stop-color="#975883"/>
</linearGradient>
<linearGradient id="paint16_linear_6898_25647" x1="25.248" y1="11.8566" x2="20.9059" y2="11.8871" gradientUnits="userSpaceOnUse">
<stop stop-color="#C49E83"/>
<stop offset="0.185369" stop-color="#CBA188"/>
<stop offset="0.262235" stop-color="#C89E89"/>
<stop offset="0.446712" stop-color="#AF8575"/>
<stop offset="0.615816" stop-color="#865D4C"/>
<stop offset="0.721638" stop-color="#8D6354"/>
</linearGradient>
<radialGradient id="paint17_radial_6898_25647" cx="0" cy="0" r="1" gradientUnits="userSpaceOnUse" gradientTransform="translate(22.3638 16.3845) rotate(-80.8608) scale(9.07953 6.02015)">
<stop offset="0.920057" stop-color="#93735C" stop-opacity="0"/>
<stop offset="1" stop-color="#93735C"/>
</radialGradient>
<radialGradient id="paint18_radial_6898_25647" cx="0" cy="0" r="1" gradientUnits="userSpaceOnUse" gradientTransform="translate(22.6234 11.0794) rotate(86.3956) scale(3.89053 0.581669)">
<stop stop-color="#815846"/>
<stop offset="1" stop-color="#815846" stop-opacity="0"/>
</radialGradient>
<linearGradient id="paint19_linear_6898_25647" x1="24.5669" y1="12.7972" x2="23.3638" y2="15.1254" gradientUnits="userSpaceOnUse">
<stop offset="0.21875" stop-color="#CFA48A" stop-opacity="0"/>
<stop offset="0.571738" stop-color="#CFA48A"/>
</linearGradient>
<radialGradient id="paint20_radial_6898_25647" cx="0" cy="0" r="1" gradientUnits="userSpaceOnUse" gradientTransform="translate(24.4009 8.24148) rotate(115.183) scale(1.39834 1.70515)">
<stop stop-color="#D0A88E"/>
<stop offset="1" stop-color="#D0A88E" stop-opacity="0"/>
</radialGradient>
<linearGradient id="paint21_linear_6898_25647" x1="22.9111" y1="10.0914" x2="18.4674" y2="10.1194" gradientUnits="userSpaceOnUse">
<stop stop-color="#C49E83"/>
<stop offset="0.185369" stop-color="#CBA188"/>
<stop offset="0.262235" stop-color="#C89E89"/>
<stop offset="0.446712" stop-color="#AF8575"/>
<stop offset="0.615816" stop-color="#865D4C"/>
<stop offset="0.721638" stop-color="#8D6354"/>
</linearGradient>
<radialGradient id="paint22_radial_6898_25647" cx="0" cy="0" r="1" gradientUnits="userSpaceOnUse" gradientTransform="translate(19.9594 15.2644) rotate(-83.5136) scale(10.4685 6.24882)">
<stop offset="0.920057" stop-color="#93735C" stop-opacity="0"/>
<stop offset="1" stop-color="#93735C"/>
</radialGradient>
<radialGradient id="paint23_radial_6898_25647" cx="0" cy="0" r="1" gradientUnits="userSpaceOnUse" gradientTransform="translate(20.2251 9.20357) rotate(86.7704) scale(4.44301 0.595506)">
<stop stop-color="#815846"/>
<stop offset="1" stop-color="#815846" stop-opacity="0"/>
</radialGradient>
<linearGradient id="paint24_linear_6898_25647" x1="22.214" y1="11.1661" x2="20.7553" y2="13.6946" gradientUnits="userSpaceOnUse">
<stop offset="0.21875" stop-color="#CFA48A" stop-opacity="0"/>
<stop offset="0.571738" stop-color="#CFA48A"/>
</linearGradient>
<radialGradient id="paint25_radial_6898_25647" cx="0" cy="0" r="1" gradientUnits="userSpaceOnUse" gradientTransform="translate(22.0442 5.96132) rotate(112.841) scale(1.56871 1.77711)">
<stop stop-color="#D0A88E"/>
<stop offset="1" stop-color="#D0A88E" stop-opacity="0"/>
</radialGradient>
<linearGradient id="paint26_linear_6898_25647" x1="20.6992" y1="9.26455" x2="13.4831" y2="9.32643" gradientUnits="userSpaceOnUse">
<stop stop-color="#C49E83"/>
<stop offset="0.185369" stop-color="#CBA188"/>
<stop offset="0.262235" stop-color="#C89E89"/>
<stop offset="0.446712" stop-color="#AF8575"/>
<stop offset="0.615816" stop-color="#865D4C"/>
<stop offset="0.721638" stop-color="#8D6354"/>
</linearGradient>
<radialGradient id="paint27_radial_6898_25647" cx="0" cy="0" r="1" gradientUnits="userSpaceOnUse" gradientTransform="translate(15.9057 15.435) rotate(-81.2011) scale(12.5549 10.093)">
<stop offset="0.920057" stop-color="#93735C" stop-opacity="0"/>
<stop offset="1" stop-color="#93735C"/>
</radialGradient>
<radialGradient id="paint28_radial_6898_25647" cx="0" cy="0" r="1" gradientUnits="userSpaceOnUse" gradientTransform="translate(17.5831 7.83148) rotate(80.3691) scale(6.30259 1.14696)">
<stop stop-color="#815846"/>
<stop offset="1" stop-color="#815846" stop-opacity="0"/>
</radialGradient>
<linearGradient id="paint29_linear_6898_25647" x1="19.5672" y1="10.5464" x2="18.1231" y2="13.9544" gradientUnits="userSpaceOnUse">
<stop offset="0.21875" stop-color="#CFA48A" stop-opacity="0"/>
<stop offset="0.571738" stop-color="#CFA48A"/>
</linearGradient>
<radialGradient id="paint30_radial_6898_25647" cx="0" cy="0" r="1" gradientUnits="userSpaceOnUse" gradientTransform="translate(19.2914 4.33804) rotate(119.832) scale(1.98789 2.71654)">
<stop stop-color="#D0A88E"/>
<stop offset="1" stop-color="#D0A88E" stop-opacity="0"/>
</radialGradient>
<linearGradient id="paint31_linear_6898_25647" x1="18.5398" y1="11.4707" x2="12.6339" y2="12.2695" gradientUnits="userSpaceOnUse">
<stop stop-color="#C79D81"/>
<stop offset="0.209317" stop-color="#CAA08A"/>
<stop offset="0.353523" stop-color="#B48979"/>
<stop offset="0.453959" stop-color="#9E7666"/>
<stop offset="0.637471" stop-color="#896655"/>
<stop offset="0.774459" stop-color="#937062"/>
</linearGradient>
<radialGradient id="paint32_radial_6898_25647" cx="0" cy="0" r="1" gradientUnits="userSpaceOnUse" gradientTransform="translate(17.2751 6.18108) rotate(67.1094) scale(2.14604 2.80621)">
<stop stop-color="#CCA48B"/>
<stop offset="1" stop-color="#CCA48B" stop-opacity="0"/>
</radialGradient>
<linearGradient id="paint33_linear_6898_25647" x1="14.5246" y1="4.35354" x2="18.8801" y2="13.6327" gradientUnits="userSpaceOnUse">
<stop offset="0.834793" stop-color="#CFA48A" stop-opacity="0"/>
<stop offset="1" stop-color="#CFA48A"/>
</linearGradient>
<linearGradient id="paint34_linear_6898_25647" x1="12.8873" y1="11.2778" x2="15.167" y2="20.6876" gradientUnits="userSpaceOnUse">
<stop stop-color="#A28066"/>
<stop offset="1" stop-color="#A28066" stop-opacity="0"/>
</linearGradient>
<radialGradient id="paint35_radial_6898_25647" cx="0" cy="0" r="1" gradientUnits="userSpaceOnUse" gradientTransform="translate(11.7559 18.7449) rotate(93.9569) scale(7.98536 4.8588)">
<stop offset="0.643641" stop-color="#AB767C"/>
<stop offset="1" stop-color="#AB767C" stop-opacity="0"/>
</radialGradient>
<radialGradient id="paint36_radial_6898_25647" cx="0" cy="0" r="1" gradientUnits="userSpaceOnUse" gradientTransform="translate(11.7559 18.7449) rotate(93.6796) scale(6.7873 4.12982)">
<stop offset="0.401042" stop-color="#896662"/>
<stop offset="0.643641" stop-color="#915B6D"/>
<stop offset="1" stop-color="#915B6D" stop-opacity="0"/>
</radialGradient>
<radialGradient id="paint37_radial_6898_25647" cx="0" cy="0" r="1" gradientUnits="userSpaceOnUse" gradientTransform="translate(15.8615 13.9343) rotate(43.9932) scale(4.14139 1.17439)">
<stop stop-color="#A58074"/>
<stop offset="0.942708" stop-color="#A58074" stop-opacity="0"/>
</radialGradient>
<radialGradient id="paint38_radial_6898_25647" cx="0" cy="0" r="1" gradientUnits="userSpaceOnUse" gradientTransform="translate(14.7069 12.9722) rotate(46.273) scale(3.67463 2.23588)">
<stop stop-color="#CCA38E"/>
<stop offset="1" stop-color="#CCA38E" stop-opacity="0"/>
</radialGradient>
<linearGradient id="paint39_linear_6898_25647" x1="19.167" y1="18.9758" x2="17.2854" y2="19.2067" gradientUnits="userSpaceOnUse">
<stop stop-color="#C39481"/>
<stop offset="1" stop-color="#C39481" stop-opacity="0"/>
</linearGradient>
<radialGradient id="paint40_radial_6898_25647" cx="0" cy="0" r="1" gradientUnits="userSpaceOnUse" gradientTransform="translate(15.8995 23.6623) rotate(-146.31) scale(6.40864 3.89942)">
<stop stop-color="#A26783"/>
<stop offset="1" stop-color="#A26783" stop-opacity="0"/>
</radialGradient>
<radialGradient id="paint41_radial_6898_25647" cx="0" cy="0" r="1" gradientUnits="userSpaceOnUse" gradientTransform="translate(13.2522 21.3654) rotate(85.9144) scale(4.60908 1.92435)">
<stop stop-color="#896360"/>
<stop offset="1" stop-color="#896360" stop-opacity="0"/>
</radialGradient>
<radialGradient id="paint42_radial_6898_25647" cx="0" cy="0" r="1" gradientUnits="userSpaceOnUse" gradientTransform="translate(19.942 17.1796) rotate(88.2643) scale(8.33892 7.19218)">
<stop offset="0.227552" stop-color="#C49681"/>
<stop offset="0.479849" stop-color="#C49681" stop-opacity="0"/>
</radialGradient>
<radialGradient id="paint43_radial_6898_25647" cx="0" cy="0" r="1" gradientUnits="userSpaceOnUse" gradientTransform="translate(13.5928 23.9162) rotate(32.788) scale(2.95308 2.71188)">
<stop stop-color="#845663"/>
<stop offset="0.994792" stop-color="#845663" stop-opacity="0"/>
</radialGradient>
<radialGradient id="paint44_radial_6898_25647" cx="0" cy="0" r="1" gradientUnits="userSpaceOnUse" gradientTransform="translate(12.593 21.9336) rotate(79.6057) scale(2.94131 0.99204)">
<stop stop-color="#755053"/>
<stop offset="1" stop-color="#755053" stop-opacity="0"/>
</radialGradient>
<radialGradient id="paint45_radial_6898_25647" cx="0" cy="0" r="1" gradientUnits="userSpaceOnUse" gradientTransform="translate(18.9903 18.2702) rotate(96.195) scale(4.53816 2.72633)">
<stop stop-color="#CB9F86"/>
<stop offset="1" stop-color="#CB9F86" stop-opacity="0"/>
</radialGradient>
<radialGradient id="paint46_radial_6898_25647" cx="0" cy="0" r="1" gradientUnits="userSpaceOnUse" gradientTransform="translate(21.5017 18.6233) rotate(117.174) scale(7.09879 4.26465)">
<stop stop-color="#CB9F86"/>
<stop offset="1" stop-color="#CB9F86" stop-opacity="0"/>
</radialGradient>
<radialGradient id="paint47_radial_6898_25647" cx="0" cy="0" r="1" gradientUnits="userSpaceOnUse" gradientTransform="translate(18.6523 16.2734) rotate(94.2787) scale(2.03257 0.863387)">
<stop stop-color="#D0A78D"/>
<stop offset="1" stop-color="#D0A78D" stop-opacity="0"/>
</radialGradient>
<radialGradient id="paint48_radial_6898_25647" cx="0" cy="0" r="1" gradientUnits="userSpaceOnUse" gradientTransform="translate(16.8011 13.8976) rotate(57.036) scale(3.95275 0.299772)">
<stop stop-color="#A07760"/>
<stop offset="0.592875" stop-color="#A07760" stop-opacity="0"/>
</radialGradient>
<radialGradient id="paint49_radial_6898_25647" cx="0" cy="0" r="1" gradientUnits="userSpaceOnUse" gradientTransform="translate(13.464 21.0311) rotate(102.025) scale(4.07208 0.825546)">
<stop stop-color="#926B64"/>
<stop offset="0.793851" stop-color="#926B64" stop-opacity="0"/>
</radialGradient>
<clipPath id="clip0_6898_25647">
<rect width="32" height="32" fill="white"/>
</clipPath>
</defs>
</svg>
