<svg width="32" height="32" viewBox="0 0 32 32" fill="none" xmlns="http://www.w3.org/2000/svg">
<g filter="url(#filter0_i_4002_2103)">
<path fill-rule="evenodd" clip-rule="evenodd" d="M22.9823 12.3297C23.1948 11.8946 23.3061 11.4088 23.3061 10.9028C23.3061 10.4355 23.2099 9.997 23.0375 9.59731H23.0429C22.9624 9.41632 22.872 9.24532 22.7617 9.08432L22.7596 9.08119C22.4155 8.55495 22.2334 7.93762 22.2334 7.31018V7.30006C22.2334 5.47846 20.7558 4.00093 18.9342 4.00093C18.7521 4.00093 18.58 3.91997 18.4788 3.76817C17.8818 2.93833 16.9 2.39185 15.7969 2.39185C14.6938 2.39185 13.7122 2.93833 13.1151 3.76817C13.0139 3.90985 12.8419 4.00093 12.6597 4.00093C12.6313 4.00093 12.6029 4.00129 12.5747 4.00201C10.7924 4.04713 9.36058 5.50688 9.36058 7.30006V7.31018C9.36058 7.93762 9.17842 8.55495 8.83434 9.08119L8.83205 9.08486C8.48942 9.6103 8.28796 10.2263 8.28796 10.9028C8.28796 11.4189 8.4094 11.8946 8.6118 12.3297C8.68265 12.4714 8.68265 12.6434 8.6118 12.7851C8.4094 13.2102 8.28796 13.6858 8.28796 14.1918C8.28796 15.9729 9.72501 17.41 11.5061 17.41H20.0879C21.869 17.41 23.3061 15.9729 23.3061 14.1918C23.3061 13.6858 23.1847 13.2102 22.9823 12.7851C22.9114 12.6434 22.9114 12.4714 22.9823 12.3297ZM10.7221 9.65732H10.7098L11.9085 12.0128C12.0318 14.8154 13.1255 12.0128 15.7969 12.0128C18.4684 12.0128 19.6333 15.1322 19.7566 12.3297L20.8925 9.13258C20.8388 7.88775 19.9367 7.80038 19.7566 7.80038H16.5366C15.265 7.80038 14.0652 7.178 13.3473 6.12709C13.2243 5.95364 12.9679 5.98425 12.8859 6.1781L12.8038 6.37196C12.5782 6.93313 12.1475 7.36165 11.6143 7.60652C11.5989 7.61162 11.5809 7.61928 11.563 7.62693C11.5451 7.63458 11.5271 7.64223 11.5117 7.64733C11.2759 7.76977 10.7221 8.13708 10.7016 9.08596L10.7118 9.39205L10.7221 9.65732Z" fill="url(#paint0_linear_4002_2103)"/>
<path fill-rule="evenodd" clip-rule="evenodd" d="M22.9823 12.3297C23.1948 11.8946 23.3061 11.4088 23.3061 10.9028C23.3061 10.4355 23.2099 9.997 23.0375 9.59731H23.0429C22.9624 9.41632 22.872 9.24532 22.7617 9.08432L22.7596 9.08119C22.4155 8.55495 22.2334 7.93762 22.2334 7.31018V7.30006C22.2334 5.47846 20.7558 4.00093 18.9342 4.00093C18.7521 4.00093 18.58 3.91997 18.4788 3.76817C17.8818 2.93833 16.9 2.39185 15.7969 2.39185C14.6938 2.39185 13.7122 2.93833 13.1151 3.76817C13.0139 3.90985 12.8419 4.00093 12.6597 4.00093C12.6313 4.00093 12.6029 4.00129 12.5747 4.00201C10.7924 4.04713 9.36058 5.50688 9.36058 7.30006V7.31018C9.36058 7.93762 9.17842 8.55495 8.83434 9.08119L8.83205 9.08486C8.48942 9.6103 8.28796 10.2263 8.28796 10.9028C8.28796 11.4189 8.4094 11.8946 8.6118 12.3297C8.68265 12.4714 8.68265 12.6434 8.6118 12.7851C8.4094 13.2102 8.28796 13.6858 8.28796 14.1918C8.28796 15.9729 9.72501 17.41 11.5061 17.41H20.0879C21.869 17.41 23.3061 15.9729 23.3061 14.1918C23.3061 13.6858 23.1847 13.2102 22.9823 12.7851C22.9114 12.6434 22.9114 12.4714 22.9823 12.3297ZM10.7221 9.65732H10.7098L11.9085 12.0128C12.0318 14.8154 13.1255 12.0128 15.7969 12.0128C18.4684 12.0128 19.6333 15.1322 19.7566 12.3297L20.8925 9.13258C20.8388 7.88775 19.9367 7.80038 19.7566 7.80038H16.5366C15.265 7.80038 14.0652 7.178 13.3473 6.12709C13.2243 5.95364 12.9679 5.98425 12.8859 6.1781L12.8038 6.37196C12.5782 6.93313 12.1475 7.36165 11.6143 7.60652C11.5989 7.61162 11.5809 7.61928 11.563 7.62693C11.5451 7.63458 11.5271 7.64223 11.5117 7.64733C11.2759 7.76977 10.7221 8.13708 10.7016 9.08596L10.7118 9.39205L10.7221 9.65732Z" fill="url(#paint1_radial_4002_2103)"/>
<path fill-rule="evenodd" clip-rule="evenodd" d="M22.9823 12.3297C23.1948 11.8946 23.3061 11.4088 23.3061 10.9028C23.3061 10.4355 23.2099 9.997 23.0375 9.59731H23.0429C22.9624 9.41632 22.872 9.24532 22.7617 9.08432L22.7596 9.08119C22.4155 8.55495 22.2334 7.93762 22.2334 7.31018V7.30006C22.2334 5.47846 20.7558 4.00093 18.9342 4.00093C18.7521 4.00093 18.58 3.91997 18.4788 3.76817C17.8818 2.93833 16.9 2.39185 15.7969 2.39185C14.6938 2.39185 13.7122 2.93833 13.1151 3.76817C13.0139 3.90985 12.8419 4.00093 12.6597 4.00093C12.6313 4.00093 12.6029 4.00129 12.5747 4.00201C10.7924 4.04713 9.36058 5.50688 9.36058 7.30006V7.31018C9.36058 7.93762 9.17842 8.55495 8.83434 9.08119L8.83205 9.08486C8.48942 9.6103 8.28796 10.2263 8.28796 10.9028C8.28796 11.4189 8.4094 11.8946 8.6118 12.3297C8.68265 12.4714 8.68265 12.6434 8.6118 12.7851C8.4094 13.2102 8.28796 13.6858 8.28796 14.1918C8.28796 15.9729 9.72501 17.41 11.5061 17.41H20.0879C21.869 17.41 23.3061 15.9729 23.3061 14.1918C23.3061 13.6858 23.1847 13.2102 22.9823 12.7851C22.9114 12.6434 22.9114 12.4714 22.9823 12.3297ZM10.7221 9.65732H10.7098L11.9085 12.0128C12.0318 14.8154 13.1255 12.0128 15.7969 12.0128C18.4684 12.0128 19.6333 15.1322 19.7566 12.3297L20.8925 9.13258C20.8388 7.88775 19.9367 7.80038 19.7566 7.80038H16.5366C15.265 7.80038 14.0652 7.178 13.3473 6.12709C13.2243 5.95364 12.9679 5.98425 12.8859 6.1781L12.8038 6.37196C12.5782 6.93313 12.1475 7.36165 11.6143 7.60652C11.5989 7.61162 11.5809 7.61928 11.563 7.62693C11.5451 7.63458 11.5271 7.64223 11.5117 7.64733C11.2759 7.76977 10.7221 8.13708 10.7016 9.08596L10.7118 9.39205L10.7221 9.65732Z" fill="url(#paint2_radial_4002_2103)"/>
<path fill-rule="evenodd" clip-rule="evenodd" d="M22.9823 12.3297C23.1948 11.8946 23.3061 11.4088 23.3061 10.9028C23.3061 10.4355 23.2099 9.997 23.0375 9.59731H23.0429C22.9624 9.41632 22.872 9.24532 22.7617 9.08432L22.7596 9.08119C22.4155 8.55495 22.2334 7.93762 22.2334 7.31018V7.30006C22.2334 5.47846 20.7558 4.00093 18.9342 4.00093C18.7521 4.00093 18.58 3.91997 18.4788 3.76817C17.8818 2.93833 16.9 2.39185 15.7969 2.39185C14.6938 2.39185 13.7122 2.93833 13.1151 3.76817C13.0139 3.90985 12.8419 4.00093 12.6597 4.00093C12.6313 4.00093 12.6029 4.00129 12.5747 4.00201C10.7924 4.04713 9.36058 5.50688 9.36058 7.30006V7.31018C9.36058 7.93762 9.17842 8.55495 8.83434 9.08119L8.83205 9.08486C8.48942 9.6103 8.28796 10.2263 8.28796 10.9028C8.28796 11.4189 8.4094 11.8946 8.6118 12.3297C8.68265 12.4714 8.68265 12.6434 8.6118 12.7851C8.4094 13.2102 8.28796 13.6858 8.28796 14.1918C8.28796 15.9729 9.72501 17.41 11.5061 17.41H20.0879C21.869 17.41 23.3061 15.9729 23.3061 14.1918C23.3061 13.6858 23.1847 13.2102 22.9823 12.7851C22.9114 12.6434 22.9114 12.4714 22.9823 12.3297ZM10.7221 9.65732H10.7098L11.9085 12.0128C12.0318 14.8154 13.1255 12.0128 15.7969 12.0128C18.4684 12.0128 19.6333 15.1322 19.7566 12.3297L20.8925 9.13258C20.8388 7.88775 19.9367 7.80038 19.7566 7.80038H16.5366C15.265 7.80038 14.0652 7.178 13.3473 6.12709C13.2243 5.95364 12.9679 5.98425 12.8859 6.1781L12.8038 6.37196C12.5782 6.93313 12.1475 7.36165 11.6143 7.60652C11.5989 7.61162 11.5809 7.61928 11.563 7.62693C11.5451 7.63458 11.5271 7.64223 11.5117 7.64733C11.2759 7.76977 10.7221 8.13708 10.7016 9.08596L10.7118 9.39205L10.7221 9.65732Z" fill="url(#paint3_radial_4002_2103)"/>
<path fill-rule="evenodd" clip-rule="evenodd" d="M22.9823 12.3297C23.1948 11.8946 23.3061 11.4088 23.3061 10.9028C23.3061 10.4355 23.2099 9.997 23.0375 9.59731H23.0429C22.9624 9.41632 22.872 9.24532 22.7617 9.08432L22.7596 9.08119C22.4155 8.55495 22.2334 7.93762 22.2334 7.31018V7.30006C22.2334 5.47846 20.7558 4.00093 18.9342 4.00093C18.7521 4.00093 18.58 3.91997 18.4788 3.76817C17.8818 2.93833 16.9 2.39185 15.7969 2.39185C14.6938 2.39185 13.7122 2.93833 13.1151 3.76817C13.0139 3.90985 12.8419 4.00093 12.6597 4.00093C12.6313 4.00093 12.6029 4.00129 12.5747 4.00201C10.7924 4.04713 9.36058 5.50688 9.36058 7.30006V7.31018C9.36058 7.93762 9.17842 8.55495 8.83434 9.08119L8.83205 9.08486C8.48942 9.6103 8.28796 10.2263 8.28796 10.9028C8.28796 11.4189 8.4094 11.8946 8.6118 12.3297C8.68265 12.4714 8.68265 12.6434 8.6118 12.7851C8.4094 13.2102 8.28796 13.6858 8.28796 14.1918C8.28796 15.9729 9.72501 17.41 11.5061 17.41H20.0879C21.869 17.41 23.3061 15.9729 23.3061 14.1918C23.3061 13.6858 23.1847 13.2102 22.9823 12.7851C22.9114 12.6434 22.9114 12.4714 22.9823 12.3297ZM10.7221 9.65732H10.7098L11.9085 12.0128C12.0318 14.8154 13.1255 12.0128 15.7969 12.0128C18.4684 12.0128 19.6333 15.1322 19.7566 12.3297L20.8925 9.13258C20.8388 7.88775 19.9367 7.80038 19.7566 7.80038H16.5366C15.265 7.80038 14.0652 7.178 13.3473 6.12709C13.2243 5.95364 12.9679 5.98425 12.8859 6.1781L12.8038 6.37196C12.5782 6.93313 12.1475 7.36165 11.6143 7.60652C11.5989 7.61162 11.5809 7.61928 11.563 7.62693C11.5451 7.63458 11.5271 7.64223 11.5117 7.64733C11.2759 7.76977 10.7221 8.13708 10.7016 9.08596L10.7118 9.39205L10.7221 9.65732Z" fill="url(#paint4_radial_4002_2103)"/>
<path fill-rule="evenodd" clip-rule="evenodd" d="M22.9823 12.3297C23.1948 11.8946 23.3061 11.4088 23.3061 10.9028C23.3061 10.4355 23.2099 9.997 23.0375 9.59731H23.0429C22.9624 9.41632 22.872 9.24532 22.7617 9.08432L22.7596 9.08119C22.4155 8.55495 22.2334 7.93762 22.2334 7.31018V7.30006C22.2334 5.47846 20.7558 4.00093 18.9342 4.00093C18.7521 4.00093 18.58 3.91997 18.4788 3.76817C17.8818 2.93833 16.9 2.39185 15.7969 2.39185C14.6938 2.39185 13.7122 2.93833 13.1151 3.76817C13.0139 3.90985 12.8419 4.00093 12.6597 4.00093C12.6313 4.00093 12.6029 4.00129 12.5747 4.00201C10.7924 4.04713 9.36058 5.50688 9.36058 7.30006V7.31018C9.36058 7.93762 9.17842 8.55495 8.83434 9.08119L8.83205 9.08486C8.48942 9.6103 8.28796 10.2263 8.28796 10.9028C8.28796 11.4189 8.4094 11.8946 8.6118 12.3297C8.68265 12.4714 8.68265 12.6434 8.6118 12.7851C8.4094 13.2102 8.28796 13.6858 8.28796 14.1918C8.28796 15.9729 9.72501 17.41 11.5061 17.41H20.0879C21.869 17.41 23.3061 15.9729 23.3061 14.1918C23.3061 13.6858 23.1847 13.2102 22.9823 12.7851C22.9114 12.6434 22.9114 12.4714 22.9823 12.3297ZM10.7221 9.65732H10.7098L11.9085 12.0128C12.0318 14.8154 13.1255 12.0128 15.7969 12.0128C18.4684 12.0128 19.6333 15.1322 19.7566 12.3297L20.8925 9.13258C20.8388 7.88775 19.9367 7.80038 19.7566 7.80038H16.5366C15.265 7.80038 14.0652 7.178 13.3473 6.12709C13.2243 5.95364 12.9679 5.98425 12.8859 6.1781L12.8038 6.37196C12.5782 6.93313 12.1475 7.36165 11.6143 7.60652C11.5989 7.61162 11.5809 7.61928 11.563 7.62693C11.5451 7.63458 11.5271 7.64223 11.5117 7.64733C11.2759 7.76977 10.7221 8.13708 10.7016 9.08596L10.7118 9.39205L10.7221 9.65732Z" fill="url(#paint5_radial_4002_2103)"/>
<path fill-rule="evenodd" clip-rule="evenodd" d="M22.9823 12.3297C23.1948 11.8946 23.3061 11.4088 23.3061 10.9028C23.3061 10.4355 23.2099 9.997 23.0375 9.59731H23.0429C22.9624 9.41632 22.872 9.24532 22.7617 9.08432L22.7596 9.08119C22.4155 8.55495 22.2334 7.93762 22.2334 7.31018V7.30006C22.2334 5.47846 20.7558 4.00093 18.9342 4.00093C18.7521 4.00093 18.58 3.91997 18.4788 3.76817C17.8818 2.93833 16.9 2.39185 15.7969 2.39185C14.6938 2.39185 13.7122 2.93833 13.1151 3.76817C13.0139 3.90985 12.8419 4.00093 12.6597 4.00093C12.6313 4.00093 12.6029 4.00129 12.5747 4.00201C10.7924 4.04713 9.36058 5.50688 9.36058 7.30006V7.31018C9.36058 7.93762 9.17842 8.55495 8.83434 9.08119L8.83205 9.08486C8.48942 9.6103 8.28796 10.2263 8.28796 10.9028C8.28796 11.4189 8.4094 11.8946 8.6118 12.3297C8.68265 12.4714 8.68265 12.6434 8.6118 12.7851C8.4094 13.2102 8.28796 13.6858 8.28796 14.1918C8.28796 15.9729 9.72501 17.41 11.5061 17.41H20.0879C21.869 17.41 23.3061 15.9729 23.3061 14.1918C23.3061 13.6858 23.1847 13.2102 22.9823 12.7851C22.9114 12.6434 22.9114 12.4714 22.9823 12.3297ZM10.7221 9.65732H10.7098L11.9085 12.0128C12.0318 14.8154 13.1255 12.0128 15.7969 12.0128C18.4684 12.0128 19.6333 15.1322 19.7566 12.3297L20.8925 9.13258C20.8388 7.88775 19.9367 7.80038 19.7566 7.80038H16.5366C15.265 7.80038 14.0652 7.178 13.3473 6.12709C13.2243 5.95364 12.9679 5.98425 12.8859 6.1781L12.8038 6.37196C12.5782 6.93313 12.1475 7.36165 11.6143 7.60652C11.5989 7.61162 11.5809 7.61928 11.563 7.62693C11.5451 7.63458 11.5271 7.64223 11.5117 7.64733C11.2759 7.76977 10.7221 8.13708 10.7016 9.08596L10.7118 9.39205L10.7221 9.65732Z" fill="url(#paint6_radial_4002_2103)"/>
<path fill-rule="evenodd" clip-rule="evenodd" d="M22.9823 12.3297C23.1948 11.8946 23.3061 11.4088 23.3061 10.9028C23.3061 10.4355 23.2099 9.997 23.0375 9.59731H23.0429C22.9624 9.41632 22.872 9.24532 22.7617 9.08432L22.7596 9.08119C22.4155 8.55495 22.2334 7.93762 22.2334 7.31018V7.30006C22.2334 5.47846 20.7558 4.00093 18.9342 4.00093C18.7521 4.00093 18.58 3.91997 18.4788 3.76817C17.8818 2.93833 16.9 2.39185 15.7969 2.39185C14.6938 2.39185 13.7122 2.93833 13.1151 3.76817C13.0139 3.90985 12.8419 4.00093 12.6597 4.00093C12.6313 4.00093 12.6029 4.00129 12.5747 4.00201C10.7924 4.04713 9.36058 5.50688 9.36058 7.30006V7.31018C9.36058 7.93762 9.17842 8.55495 8.83434 9.08119L8.83205 9.08486C8.48942 9.6103 8.28796 10.2263 8.28796 10.9028C8.28796 11.4189 8.4094 11.8946 8.6118 12.3297C8.68265 12.4714 8.68265 12.6434 8.6118 12.7851C8.4094 13.2102 8.28796 13.6858 8.28796 14.1918C8.28796 15.9729 9.72501 17.41 11.5061 17.41H20.0879C21.869 17.41 23.3061 15.9729 23.3061 14.1918C23.3061 13.6858 23.1847 13.2102 22.9823 12.7851C22.9114 12.6434 22.9114 12.4714 22.9823 12.3297ZM10.7221 9.65732H10.7098L11.9085 12.0128C12.0318 14.8154 13.1255 12.0128 15.7969 12.0128C18.4684 12.0128 19.6333 15.1322 19.7566 12.3297L20.8925 9.13258C20.8388 7.88775 19.9367 7.80038 19.7566 7.80038H16.5366C15.265 7.80038 14.0652 7.178 13.3473 6.12709C13.2243 5.95364 12.9679 5.98425 12.8859 6.1781L12.8038 6.37196C12.5782 6.93313 12.1475 7.36165 11.6143 7.60652C11.5989 7.61162 11.5809 7.61928 11.563 7.62693C11.5451 7.63458 11.5271 7.64223 11.5117 7.64733C11.2759 7.76977 10.7221 8.13708 10.7016 9.08596L10.7118 9.39205L10.7221 9.65732Z" fill="url(#paint7_radial_4002_2103)"/>
<path fill-rule="evenodd" clip-rule="evenodd" d="M22.9823 12.3297C23.1948 11.8946 23.3061 11.4088 23.3061 10.9028C23.3061 10.4355 23.2099 9.997 23.0375 9.59731H23.0429C22.9624 9.41632 22.872 9.24532 22.7617 9.08432L22.7596 9.08119C22.4155 8.55495 22.2334 7.93762 22.2334 7.31018V7.30006C22.2334 5.47846 20.7558 4.00093 18.9342 4.00093C18.7521 4.00093 18.58 3.91997 18.4788 3.76817C17.8818 2.93833 16.9 2.39185 15.7969 2.39185C14.6938 2.39185 13.7122 2.93833 13.1151 3.76817C13.0139 3.90985 12.8419 4.00093 12.6597 4.00093C12.6313 4.00093 12.6029 4.00129 12.5747 4.00201C10.7924 4.04713 9.36058 5.50688 9.36058 7.30006V7.31018C9.36058 7.93762 9.17842 8.55495 8.83434 9.08119L8.83205 9.08486C8.48942 9.6103 8.28796 10.2263 8.28796 10.9028C8.28796 11.4189 8.4094 11.8946 8.6118 12.3297C8.68265 12.4714 8.68265 12.6434 8.6118 12.7851C8.4094 13.2102 8.28796 13.6858 8.28796 14.1918C8.28796 15.9729 9.72501 17.41 11.5061 17.41H20.0879C21.869 17.41 23.3061 15.9729 23.3061 14.1918C23.3061 13.6858 23.1847 13.2102 22.9823 12.7851C22.9114 12.6434 22.9114 12.4714 22.9823 12.3297ZM10.7221 9.65732H10.7098L11.9085 12.0128C12.0318 14.8154 13.1255 12.0128 15.7969 12.0128C18.4684 12.0128 19.6333 15.1322 19.7566 12.3297L20.8925 9.13258C20.8388 7.88775 19.9367 7.80038 19.7566 7.80038H16.5366C15.265 7.80038 14.0652 7.178 13.3473 6.12709C13.2243 5.95364 12.9679 5.98425 12.8859 6.1781L12.8038 6.37196C12.5782 6.93313 12.1475 7.36165 11.6143 7.60652C11.5989 7.61162 11.5809 7.61928 11.563 7.62693C11.5451 7.63458 11.5271 7.64223 11.5117 7.64733C11.2759 7.76977 10.7221 8.13708 10.7016 9.08596L10.7118 9.39205L10.7221 9.65732Z" fill="url(#paint8_radial_4002_2103)"/>
<path fill-rule="evenodd" clip-rule="evenodd" d="M22.9823 12.3297C23.1948 11.8946 23.3061 11.4088 23.3061 10.9028C23.3061 10.4355 23.2099 9.997 23.0375 9.59731H23.0429C22.9624 9.41632 22.872 9.24532 22.7617 9.08432L22.7596 9.08119C22.4155 8.55495 22.2334 7.93762 22.2334 7.31018V7.30006C22.2334 5.47846 20.7558 4.00093 18.9342 4.00093C18.7521 4.00093 18.58 3.91997 18.4788 3.76817C17.8818 2.93833 16.9 2.39185 15.7969 2.39185C14.6938 2.39185 13.7122 2.93833 13.1151 3.76817C13.0139 3.90985 12.8419 4.00093 12.6597 4.00093C12.6313 4.00093 12.6029 4.00129 12.5747 4.00201C10.7924 4.04713 9.36058 5.50688 9.36058 7.30006V7.31018C9.36058 7.93762 9.17842 8.55495 8.83434 9.08119L8.83205 9.08486C8.48942 9.6103 8.28796 10.2263 8.28796 10.9028C8.28796 11.4189 8.4094 11.8946 8.6118 12.3297C8.68265 12.4714 8.68265 12.6434 8.6118 12.7851C8.4094 13.2102 8.28796 13.6858 8.28796 14.1918C8.28796 15.9729 9.72501 17.41 11.5061 17.41H20.0879C21.869 17.41 23.3061 15.9729 23.3061 14.1918C23.3061 13.6858 23.1847 13.2102 22.9823 12.7851C22.9114 12.6434 22.9114 12.4714 22.9823 12.3297ZM10.7221 9.65732H10.7098L11.9085 12.0128C12.0318 14.8154 13.1255 12.0128 15.7969 12.0128C18.4684 12.0128 19.6333 15.1322 19.7566 12.3297L20.8925 9.13258C20.8388 7.88775 19.9367 7.80038 19.7566 7.80038H16.5366C15.265 7.80038 14.0652 7.178 13.3473 6.12709C13.2243 5.95364 12.9679 5.98425 12.8859 6.1781L12.8038 6.37196C12.5782 6.93313 12.1475 7.36165 11.6143 7.60652C11.5989 7.61162 11.5809 7.61928 11.563 7.62693C11.5451 7.63458 11.5271 7.64223 11.5117 7.64733C11.2759 7.76977 10.7221 8.13708 10.7016 9.08596L10.7118 9.39205L10.7221 9.65732Z" fill="url(#paint9_radial_4002_2103)"/>
</g>
<path d="M16 15.0981C9.92 15.0981 5 20.0181 5 26.0981V29.5981H27V26.0981C27 20.0281 22.07 15.0981 16 15.0981Z" fill="url(#paint10_linear_4002_2103)"/>
<path d="M16 15.0981C9.92 15.0981 5 20.0181 5 26.0981V29.5981H27V26.0981C27 20.0281 22.07 15.0981 16 15.0981Z" fill="url(#paint11_radial_4002_2103)"/>
<g filter="url(#filter1_f_4002_2103)">
<path d="M13.4187 16.4469C12.9063 16.4469 12.1232 16.4176 11.6488 16.613L10.2687 19.3369C10.1787 19.5269 10.3287 19.7469 10.5387 19.7469H12.0887C12.3287 19.7469 12.4387 20.0369 12.2787 20.1969L10.4987 21.5397C10.2387 21.7997 10.1387 22.1897 10.2687 22.5397L13.1815 29.0402L14.7677 27.9239L13.4287 16.4469H13.4187Z" fill="#41355C"/>
</g>
<g filter="url(#filter2_f_4002_2103)">
<path d="M20.9045 20.7795L19.7154 19.9515C19.5668 19.8029 19.6717 19.5581 19.8815 19.5581H20.7996C20.9832 19.5581 21.1056 19.3657 21.0269 19.1996L19.9515 16.9089C19.7416 16.8215 19.5231 16.7428 19.3045 16.6729H18.71V28.5346L21.1143 21.6626C21.2192 21.3478 21.1405 21.0068 20.9045 20.7795Z" fill="#463D68"/>
</g>
<path d="M18.71 15.7183H13.29V29.6083H18.71V15.7183Z" fill="url(#paint12_radial_4002_2103)"/>
<path d="M18.71 15.7183H13.29V29.6083H18.71V15.7183Z" fill="url(#paint13_linear_4002_2103)"/>
<path d="M18.71 15.7183H13.29V29.6083H18.71V15.7183Z" fill="url(#paint14_linear_4002_2103)"/>
<path d="M23 17.616V29.5982H27V26.0982C27 22.6862 25.4423 19.6344 23 17.616Z" fill="url(#paint15_radial_4002_2103)"/>
<path d="M23 17.616V29.5982H27V26.0982C27 22.6862 25.4423 19.6344 23 17.616Z" fill="url(#paint16_linear_4002_2103)"/>
<g filter="url(#filter3_i_4002_2103)">
<path d="M13.29 15.6882H12.44C12.26 15.7482 12.08 15.8182 11.91 15.8882L10.64 18.5782C10.55 18.7682 10.7 18.9882 10.91 18.9882H11.96C12.2 18.9882 12.31 19.2782 12.15 19.4382L10.79 20.7682C10.53 21.0282 10.43 21.4182 10.56 21.7682L13.29 29.5882H13.3V15.6882H13.29Z" fill="url(#paint17_linear_4002_2103)"/>
<path d="M13.29 15.6882H12.44C12.26 15.7482 12.08 15.8182 11.91 15.8882L10.64 18.5782C10.55 18.7682 10.7 18.9882 10.91 18.9882H11.96C12.2 18.9882 12.31 19.2782 12.15 19.4382L10.79 20.7682C10.53 21.0282 10.43 21.4182 10.56 21.7682L13.29 29.5882H13.3V15.6882H13.29Z" fill="url(#paint18_linear_4002_2103)"/>
<path d="M13.29 15.6882H12.44C12.26 15.7482 12.08 15.8182 11.91 15.8882L10.64 18.5782C10.55 18.7682 10.7 18.9882 10.91 18.9882H11.96C12.2 18.9882 12.31 19.2782 12.15 19.4382L10.79 20.7682C10.53 21.0282 10.43 21.4182 10.56 21.7682L13.29 29.5882H13.3V15.6882H13.29Z" fill="url(#paint19_radial_4002_2103)"/>
</g>
<path d="M13.29 15.6882H12.44C12.26 15.7482 12.08 15.8182 11.91 15.8882L10.64 18.5782C10.55 18.7682 10.7 18.9882 10.91 18.9882H11.96C12.2 18.9882 12.31 19.2782 12.15 19.4382L10.79 20.7682C10.53 21.0282 10.43 21.4182 10.56 21.7682L13.29 29.5882H13.3V15.6882H13.29Z" fill="url(#paint20_linear_4002_2103)"/>
<path d="M13.29 15.6882H12.44C12.26 15.7482 12.08 15.8182 11.91 15.8882L10.64 18.5782C10.55 18.7682 10.7 18.9882 10.91 18.9882H11.96C12.2 18.9882 12.31 19.2782 12.15 19.4382L10.79 20.7682C10.53 21.0282 10.43 21.4182 10.56 21.7682L13.29 29.5882H13.3V15.6882H13.29Z" fill="url(#paint21_radial_4002_2103)"/>
<g filter="url(#filter4_ii_4002_2103)">
<path d="M16.0106 17.9253L14.77 19.1295C14.7252 19.173 14.712 19.2397 14.7369 19.2969L15.2844 20.5577C15.3241 20.649 15.4142 20.7081 15.5137 20.7081H16.4658C16.5657 20.7081 16.656 20.6486 16.6955 20.5568L17.2458 19.2764C17.2702 19.2196 17.2573 19.1537 17.2133 19.1103L16.0106 17.9253Z" fill="url(#paint22_linear_4002_2103)"/>
</g>
<g filter="url(#filter5_i_4002_2103)">
<path d="M21.22 20.7182L19.86 19.3882C19.69 19.2182 19.81 18.9382 20.05 18.9382H21.1C21.31 18.9382 21.45 18.7182 21.36 18.5282L20.13 15.9082C19.89 15.8082 19.64 15.7182 19.39 15.6382H18.71V29.5882L21.46 21.7282C21.58 21.3682 21.49 20.9782 21.22 20.7182Z" fill="#605890"/>
<path d="M21.22 20.7182L19.86 19.3882C19.69 19.2182 19.81 18.9382 20.05 18.9382H21.1C21.31 18.9382 21.45 18.7182 21.36 18.5282L20.13 15.9082C19.89 15.8082 19.64 15.7182 19.39 15.6382H18.71V29.5882L21.46 21.7282C21.58 21.3682 21.49 20.9782 21.22 20.7182Z" fill="url(#paint23_linear_4002_2103)"/>
</g>
<path d="M15.9999 14.655H13.2899V19.395C13.2899 19.705 13.6499 19.885 13.8999 19.685L15.9999 18.2925L18.0999 19.685C18.3499 19.885 18.7099 19.705 18.7099 19.395V14.655H15.9999Z" fill="url(#paint24_radial_4002_2103)"/>
<path d="M15.9999 14.655H13.2899V19.395C13.2899 19.705 13.6499 19.885 13.8999 19.685L15.9999 18.2925L18.0999 19.685C18.3499 19.885 18.7099 19.705 18.7099 19.395V14.655H15.9999Z" fill="url(#paint25_radial_4002_2103)"/>
<path d="M7.03187 29.5982H8.9701V17.634C7.18742 19.1158 5.88126 21.1507 5.31367 23.4767C5.11021 24.3206 5.00465 25.202 5.00996 26.1082L5.02992 29.5982H7.03187Z" fill="url(#paint26_linear_4002_2103)"/>
<path d="M15.5047 20.7083C15.3812 20.7083 15.2763 20.7984 15.2576 20.9204L13.9301 29.5883H18.0401L16.7223 20.9207C16.7038 20.7985 16.5987 20.7083 16.4752 20.7083H15.5047Z" fill="url(#paint27_radial_4002_2103)"/>
<path d="M15.5047 20.7083C15.3812 20.7083 15.2763 20.7984 15.2576 20.9204L13.9301 29.5883H18.0401L16.7223 20.9207C16.7038 20.7985 16.5987 20.7083 16.4752 20.7083H15.5047Z" fill="url(#paint28_linear_4002_2103)"/>
<path d="M15.5047 20.7083C15.3812 20.7083 15.2763 20.7984 15.2576 20.9204L13.9301 29.5883H18.0401L16.7223 20.9207C16.7038 20.7985 16.5987 20.7083 16.4752 20.7083H15.5047Z" fill="url(#paint29_linear_4002_2103)"/>
<path d="M14.045 16.4878C14.0659 16.7013 14.25 17.1788 14.7911 17.5425C15.0046 17.6859 16.0042 18.1711 15.9838 18.1613C16.14 18.0832 16.7911 17.8628 17.2677 17.5425C17.8088 17.1788 17.993 16.7013 18.0138 16.4878L16.0294 15.5347L14.045 16.4878Z" fill="url(#paint30_radial_4002_2103)"/>
<path d="M16.402 15.8975C16.652 15.9075 16.912 15.9275 17.172 15.9475C16.912 15.9275 16.662 15.9075 16.402 15.8975Z" fill="url(#paint31_linear_4002_2103)"/>
<path d="M16.072 15.8975C16.062 15.8975 16.052 15.8975 16.032 15.8975C16.132 15.8975 16.222 15.8975 16.322 15.9075C16.242 15.8975 16.152 15.8975 16.072 15.8975Z" fill="url(#paint32_linear_4002_2103)"/>
<g filter="url(#filter6_i_4002_2103)">
<path d="M11.1113 12.529C12 12.529 12.7204 11.8085 12.7204 10.9199C12.7204 10.0312 12 9.31079 11.1113 9.31079C10.2226 9.31079 9.5022 10.0312 9.5022 10.9199C9.5022 11.8085 10.2226 12.529 11.1113 12.529Z" fill="url(#paint33_linear_4002_2103)"/>
</g>
<g filter="url(#filter7_i_4002_2103)">
<path d="M20.6242 12.529C21.5129 12.529 22.2333 11.8085 22.2333 10.9199C22.2333 10.0312 21.5129 9.31079 20.6242 9.31079C19.7355 9.31079 19.0151 10.0312 19.0151 10.9199C19.0151 11.8085 19.7355 12.529 20.6242 12.529Z" fill="url(#paint34_radial_4002_2103)"/>
<path d="M20.6242 12.529C21.5129 12.529 22.2333 11.8085 22.2333 10.9199C22.2333 10.0312 21.5129 9.31079 20.6242 9.31079C19.7355 9.31079 19.0151 10.0312 19.0151 10.9199C19.0151 11.8085 19.7355 12.529 20.6242 12.529Z" fill="url(#paint35_radial_4002_2103)"/>
</g>
<g filter="url(#filter8_f_4002_2103)">
<path d="M20.6243 11.9939C21.2175 11.9939 21.6984 11.513 21.6984 10.9198C21.6984 10.3266 21.2175 9.8457 20.6243 9.8457C20.0311 9.8457 19.5502 10.3266 19.5502 10.9198C19.5502 11.513 20.0311 11.9939 20.6243 11.9939Z" fill="#E5AA8B"/>
<path d="M20.6243 11.9939C21.2175 11.9939 21.6984 11.513 21.6984 10.9198C21.6984 10.3266 21.2175 9.8457 20.6243 9.8457C20.0311 9.8457 19.5502 10.3266 19.5502 10.9198C19.5502 11.513 20.0311 11.9939 20.6243 11.9939Z" fill="url(#paint36_radial_4002_2103)"/>
</g>
<g filter="url(#filter9_f_4002_2103)">
<path d="M11.1306 11.9939C11.7238 11.9939 12.2047 11.513 12.2047 10.9198C12.2047 10.3266 11.7238 9.8457 11.1306 9.8457C10.5374 9.8457 10.0565 10.3266 10.0565 10.9198C10.0565 11.513 10.5374 11.9939 11.1306 11.9939Z" fill="#B47A6C"/>
<path d="M11.1306 11.9939C11.7238 11.9939 12.2047 11.513 12.2047 10.9198C12.2047 10.3266 11.7238 9.8457 11.1306 9.8457C10.5374 9.8457 10.0565 10.3266 10.0565 10.9198C10.0565 11.513 10.5374 11.9939 11.1306 11.9939Z" fill="url(#paint37_radial_4002_2103)"/>
</g>
<g filter="url(#filter10_i_4002_2103)">
<path d="M10.7118 9.39207L10.7015 9.08598C10.722 8.1371 11.2758 7.76979 11.5117 7.64736C11.5271 7.64225 11.545 7.6346 11.5629 7.62695C11.5809 7.6193 11.5988 7.61164 11.6142 7.60654C12.1475 7.36167 12.5782 6.93315 12.8038 6.37198L12.8858 6.17812C12.9679 5.98427 13.2242 5.95366 13.3473 6.12711C14.0651 7.17802 15.2649 7.8004 16.5365 7.8004H19.7565C19.9366 7.8004 20.8387 7.88777 20.8924 9.13261L20.7737 12.2056C20.6504 15.0082 18.4618 16.89 15.7904 16.89C13.119 16.89 10.9305 15.0082 10.8072 12.2056L10.7118 9.39207Z" fill="url(#paint38_radial_4002_2103)"/>
<path d="M10.7118 9.39207L10.7015 9.08598C10.722 8.1371 11.2758 7.76979 11.5117 7.64736C11.5271 7.64225 11.545 7.6346 11.5629 7.62695C11.5809 7.6193 11.5988 7.61164 11.6142 7.60654C12.1475 7.36167 12.5782 6.93315 12.8038 6.37198L12.8858 6.17812C12.9679 5.98427 13.2242 5.95366 13.3473 6.12711C14.0651 7.17802 15.2649 7.8004 16.5365 7.8004H19.7565C19.9366 7.8004 20.8387 7.88777 20.8924 9.13261L20.7737 12.2056C20.6504 15.0082 18.4618 16.89 15.7904 16.89C13.119 16.89 10.9305 15.0082 10.8072 12.2056L10.7118 9.39207Z" fill="url(#paint39_radial_4002_2103)"/>
<path d="M10.7118 9.39207L10.7015 9.08598C10.722 8.1371 11.2758 7.76979 11.5117 7.64736C11.5271 7.64225 11.545 7.6346 11.5629 7.62695C11.5809 7.6193 11.5988 7.61164 11.6142 7.60654C12.1475 7.36167 12.5782 6.93315 12.8038 6.37198L12.8858 6.17812C12.9679 5.98427 13.2242 5.95366 13.3473 6.12711C14.0651 7.17802 15.2649 7.8004 16.5365 7.8004H19.7565C19.9366 7.8004 20.8387 7.88777 20.8924 9.13261L20.7737 12.2056C20.6504 15.0082 18.4618 16.89 15.7904 16.89C13.119 16.89 10.9305 15.0082 10.8072 12.2056L10.7118 9.39207Z" fill="url(#paint40_radial_4002_2103)"/>
<path d="M10.7118 9.39207L10.7015 9.08598C10.722 8.1371 11.2758 7.76979 11.5117 7.64736C11.5271 7.64225 11.545 7.6346 11.5629 7.62695C11.5809 7.6193 11.5988 7.61164 11.6142 7.60654C12.1475 7.36167 12.5782 6.93315 12.8038 6.37198L12.8858 6.17812C12.9679 5.98427 13.2242 5.95366 13.3473 6.12711C14.0651 7.17802 15.2649 7.8004 16.5365 7.8004H19.7565C19.9366 7.8004 20.8387 7.88777 20.8924 9.13261L20.7737 12.2056C20.6504 15.0082 18.4618 16.89 15.7904 16.89C13.119 16.89 10.9305 15.0082 10.8072 12.2056L10.7118 9.39207Z" fill="url(#paint41_radial_4002_2103)"/>
<path d="M10.7118 9.39207L10.7015 9.08598C10.722 8.1371 11.2758 7.76979 11.5117 7.64736C11.5271 7.64225 11.545 7.6346 11.5629 7.62695C11.5809 7.6193 11.5988 7.61164 11.6142 7.60654C12.1475 7.36167 12.5782 6.93315 12.8038 6.37198L12.8858 6.17812C12.9679 5.98427 13.2242 5.95366 13.3473 6.12711C14.0651 7.17802 15.2649 7.8004 16.5365 7.8004H19.7565C19.9366 7.8004 20.8387 7.88777 20.8924 9.13261L20.7737 12.2056C20.6504 15.0082 18.4618 16.89 15.7904 16.89C13.119 16.89 10.9305 15.0082 10.8072 12.2056L10.7118 9.39207Z" fill="url(#paint42_radial_4002_2103)"/>
<path d="M10.7118 9.39207L10.7015 9.08598C10.722 8.1371 11.2758 7.76979 11.5117 7.64736C11.5271 7.64225 11.545 7.6346 11.5629 7.62695C11.5809 7.6193 11.5988 7.61164 11.6142 7.60654C12.1475 7.36167 12.5782 6.93315 12.8038 6.37198L12.8858 6.17812C12.9679 5.98427 13.2242 5.95366 13.3473 6.12711C14.0651 7.17802 15.2649 7.8004 16.5365 7.8004H19.7565C19.9366 7.8004 20.8387 7.88777 20.8924 9.13261L20.7737 12.2056C20.6504 15.0082 18.4618 16.89 15.7904 16.89C13.119 16.89 10.9305 15.0082 10.8072 12.2056L10.7118 9.39207Z" fill="url(#paint43_radial_4002_2103)"/>
<path d="M10.7118 9.39207L10.7015 9.08598C10.722 8.1371 11.2758 7.76979 11.5117 7.64736C11.5271 7.64225 11.545 7.6346 11.5629 7.62695C11.5809 7.6193 11.5988 7.61164 11.6142 7.60654C12.1475 7.36167 12.5782 6.93315 12.8038 6.37198L12.8858 6.17812C12.9679 5.98427 13.2242 5.95366 13.3473 6.12711C14.0651 7.17802 15.2649 7.8004 16.5365 7.8004H19.7565C19.9366 7.8004 20.8387 7.88777 20.8924 9.13261L20.7737 12.2056C20.6504 15.0082 18.4618 16.89 15.7904 16.89C13.119 16.89 10.9305 15.0082 10.8072 12.2056L10.7118 9.39207Z" fill="url(#paint44_radial_4002_2103)"/>
</g>
<path d="M10.7097 9.65734H10.722L10.7118 9.39207L10.7015 9.08598C10.722 8.1371 11.2758 7.76979 11.5117 7.64736C11.5271 7.64225 11.545 7.6346 11.5629 7.62695C11.5809 7.6193 11.5988 7.61164 11.6142 7.60654C12.1475 7.36167 12.5782 6.93315 12.8038 6.37198L12.8858 6.17812C12.9679 5.98427 13.2242 5.95366 13.3473 6.12711C14.0651 7.17802 15.2649 7.8004 16.5365 7.8004H19.7565C19.9366 7.8004 20.8387 7.88777 20.8924 9.13261L20.7737 12.2056C20.6504 15.0082 18.4618 16.89 15.7904 16.89C13.119 16.89 10.9305 15.0082 10.8072 12.2056L10.7097 9.65734Z" fill="url(#paint45_radial_4002_2103)"/>
<path d="M10.7097 9.65734H10.722L10.7118 9.39207L10.7015 9.08598C10.722 8.1371 11.2758 7.76979 11.5117 7.64736C11.5271 7.64225 11.545 7.6346 11.5629 7.62695C11.5809 7.6193 11.5988 7.61164 11.6142 7.60654C12.1475 7.36167 12.5782 6.93315 12.8038 6.37198L12.8858 6.17812C12.9679 5.98427 13.2242 5.95366 13.3473 6.12711C14.0651 7.17802 15.2649 7.8004 16.5365 7.8004H19.7565C19.9366 7.8004 20.8387 7.88777 20.8924 9.13261L20.7737 12.2056C20.6504 15.0082 18.4618 16.89 15.7904 16.89C13.119 16.89 10.9305 15.0082 10.8072 12.2056L10.7097 9.65734Z" fill="url(#paint46_radial_4002_2103)"/>
<g filter="url(#filter11_f_4002_2103)">
<path d="M15.4044 10.6972L14.7209 12.3972C14.6124 12.7469 14.8727 13.0966 15.2415 13.0966H16.0279C16.3966 13.0966 16.6569 12.7415 16.5485 12.3972L16.017 10.6972C15.9031 10.3206 15.5238 10.3206 15.4044 10.6972Z" fill="#C28178"/>
</g>
<g filter="url(#filter12_f_4002_2103)">
<path d="M15.4146 10.5588L14.8831 12.2588C14.7746 12.6085 15.035 12.9582 15.4037 12.9582H16.1901C16.5589 12.9582 16.8192 12.6031 16.7107 12.2588L16.1792 10.5588C16.0654 10.1822 15.5339 10.1822 15.4146 10.5588Z" fill="#EFB696"/>
<path d="M15.4146 10.5588L14.8831 12.2588C14.7746 12.6085 15.035 12.9582 15.4037 12.9582H16.1901C16.5589 12.9582 16.8192 12.6031 16.7107 12.2588L16.1792 10.5588C16.0654 10.1822 15.5339 10.1822 15.4146 10.5588Z" fill="url(#paint47_radial_4002_2103)"/>
<path d="M15.4146 10.5588L14.8831 12.2588C14.7746 12.6085 15.035 12.9582 15.4037 12.9582H16.1901C16.5589 12.9582 16.8192 12.6031 16.7107 12.2588L16.1792 10.5588C16.0654 10.1822 15.5339 10.1822 15.4146 10.5588Z" fill="url(#paint48_linear_4002_2103)"/>
<path d="M15.4146 10.5588L14.8831 12.2588C14.7746 12.6085 15.035 12.9582 15.4037 12.9582H16.1901C16.5589 12.9582 16.8192 12.6031 16.7107 12.2588L16.1792 10.5588C16.0654 10.1822 15.5339 10.1822 15.4146 10.5588Z" fill="url(#paint49_linear_4002_2103)"/>
</g>
<path d="M15.4146 10.5588L14.8831 12.2588C14.7746 12.6085 15.035 12.9582 15.4037 12.9582H16.1901C16.5589 12.9582 16.8192 12.6031 16.7107 12.2588L16.1792 10.5588C16.0654 10.1822 15.5339 10.1822 15.4146 10.5588Z" fill="url(#paint50_linear_4002_2103)"/>
<path d="M15.4146 10.5588L14.8831 12.2588C14.7746 12.6085 15.035 12.9582 15.4037 12.9582H16.1901C16.5589 12.9582 16.8192 12.6031 16.7107 12.2588L16.1792 10.5588C16.0654 10.1822 15.5339 10.1822 15.4146 10.5588Z" fill="url(#paint51_radial_4002_2103)"/>
<path d="M14.3989 13.4425L14.3989 13.4425C14.8028 13.6579 15.2842 13.7813 15.797 13.7813C16.3149 13.7813 16.7911 13.6579 17.195 13.4425L17.1955 13.4423L17.1955 13.4423C17.2878 13.3943 17.3846 13.4223 17.4424 13.4837C17.5007 13.5456 17.5218 13.6439 17.4636 13.7332M14.3989 13.4425L17.4216 13.706M14.3989 13.4425L14.3984 13.4423C14.3054 13.3939 14.2086 13.4242 14.1513 13.4859C14.0939 13.5477 14.0716 13.6461 14.1306 13.7336M14.3989 13.4425L14.1723 13.706M17.4636 13.7332C17.4636 13.7332 17.4636 13.7333 17.4635 13.7333L17.4216 13.706M17.4636 13.7332C17.4636 13.7332 17.4636 13.7331 17.4637 13.7331L17.4216 13.706M17.4636 13.7332C17.1112 14.2794 16.4969 14.6439 15.797 14.6439C15.0972 14.6439 14.483 14.2796 14.1306 13.7336M17.4216 13.706C17.078 14.2387 16.4791 14.5939 15.797 14.5939C15.1148 14.5939 14.516 14.2387 14.1723 13.706M14.1306 13.7336C14.1307 13.7337 14.1308 13.7339 14.1309 13.7341L14.1723 13.706M14.1306 13.7336C14.1305 13.7334 14.1304 13.7333 14.1303 13.7331L14.1723 13.706" fill="#88014E" stroke="url(#paint52_linear_4002_2103)" stroke-width="0.1"/>
<g filter="url(#filter13_i_4002_2103)">
<path d="M16.9391 10.3509C17.2045 9.8841 17.608 9.51538 18.4764 9.51538C18.8567 9.51538 19.2233 9.62073 19.5493 9.8841C19.8181 10.1013 19.7821 10.3793 19.5739 10.4834L19.0179 10.8008C18.366 10.5901 17.6452 10.5616 16.9391 10.3509Z" fill="#635D5F"/>
</g>
<g filter="url(#filter14_i_4002_2103)">
<path d="M14.655 10.3509C14.3896 9.8841 13.9861 9.51538 13.1177 9.51538C12.7374 9.51538 12.3708 9.62073 12.0449 9.8841C11.776 10.1013 11.812 10.3793 12.0202 10.4834L12.5763 10.8008C13.2281 10.5901 13.9489 10.5616 14.655 10.3509Z" fill="#635D5F"/>
</g>
<g filter="url(#filter15_i_4002_2103)">
<path d="M12.3993 9.14202L12.3949 9.14455C12.3948 9.14463 12.3947 9.14471 12.3945 9.14479C12.2676 9.22056 12.1031 9.1794 12.027 9.05257C11.9508 8.92556 11.9921 8.76074 12.1191 8.68453L12.1197 8.68419L12.1207 8.68358L12.1237 8.68184L12.1331 8.67639C12.1409 8.67193 12.1518 8.66583 12.1655 8.65837C12.193 8.64347 12.2322 8.62312 12.2815 8.59959C12.3801 8.55263 12.5205 8.49248 12.6917 8.43786C13.0315 8.32938 13.5068 8.23813 14.0199 8.32867C14.1658 8.35441 14.2631 8.49352 14.2374 8.63938C14.2117 8.78524 14.0726 8.88261 13.9267 8.85687C13.528 8.78651 13.1451 8.85616 12.8547 8.94883C12.7108 8.99477 12.5931 9.04525 12.5123 9.08377C12.472 9.10298 12.4411 9.11908 12.4211 9.12995C12.411 9.13539 12.4037 9.1395 12.3993 9.14202Z" fill="#9F6836"/>
</g>
<g filter="url(#filter16_i_4002_2103)">
<path fill-rule="evenodd" clip-rule="evenodd" d="M19.5285 8.68454C19.5286 8.68458 19.5287 8.68463 19.3907 8.91459L19.5285 8.68454C19.6555 8.76074 19.6969 8.92556 19.6207 9.05257C19.5446 9.1794 19.3802 9.22065 19.2533 9.14486C19.2532 9.14481 19.253 9.14472 19.2528 9.14458L19.2483 9.14202C19.2439 9.1395 19.2366 9.13539 19.2266 9.12995C19.2065 9.11908 19.1757 9.10298 19.1354 9.08377C19.0546 9.04525 18.9369 8.99477 18.7929 8.94883C18.5026 8.85616 18.1197 8.78651 17.721 8.85687C17.5751 8.88261 17.436 8.78524 17.4103 8.63938C17.3845 8.49352 17.4819 8.35441 17.6277 8.32867C18.1408 8.23813 18.6161 8.32938 18.956 8.43786C19.1272 8.49248 19.2676 8.55263 19.3661 8.59959C19.4155 8.62312 19.4546 8.64347 19.4821 8.65837C19.4959 8.66583 19.5067 8.67193 19.5146 8.67639L19.524 8.68184L19.5269 8.68358L19.528 8.68419L19.5285 8.68454Z" fill="#9F6836"/>
</g>
<path d="M18.1879 9.57397C18.841 9.57397 19.3927 10.0243 19.5428 10.6327C19.5874 10.8072 19.4535 10.9735 19.275 10.9735H17.0439C16.9019 10.9735 16.7884 10.8437 16.8168 10.7017C16.9425 10.0608 17.5064 9.57397 18.1879 9.57397Z" fill="white"/>
<path d="M17.9811 9.8457C18.476 9.8457 18.8735 10.2473 18.8735 10.7382C18.8735 10.8193 18.8614 10.9004 18.8411 10.9734H17.117C17.0968 10.8964 17.0846 10.8193 17.0846 10.7382C17.0846 10.2473 17.4862 9.8457 17.9811 9.8457Z" fill="url(#paint53_radial_4002_2103)"/>
<path d="M17.4698 10.7382C17.4698 10.4542 17.697 10.2271 17.981 10.2271C18.2649 10.2271 18.4921 10.4542 18.4921 10.7382C18.4921 10.8234 18.4718 10.9045 18.4353 10.9735H17.5307C17.4901 10.9045 17.4698 10.8234 17.4698 10.7382Z" fill="black"/>
<g filter="url(#filter17_f_4002_2103)">
<path d="M17.9154 10.0344C17.979 10.1194 17.8461 10.2231 17.695 10.3361C17.5439 10.4491 17.4318 10.5286 17.3682 10.4435C17.3046 10.3585 17.3756 10.198 17.5267 10.085C17.6778 9.97199 17.8518 9.94934 17.9154 10.0344Z" fill="#C7A7A3"/>
<path d="M17.9154 10.0344C17.979 10.1194 17.8461 10.2231 17.695 10.3361C17.5439 10.4491 17.4318 10.5286 17.3682 10.4435C17.3046 10.3585 17.3756 10.198 17.5267 10.085C17.6778 9.97199 17.8518 9.94934 17.9154 10.0344Z" fill="url(#paint54_radial_4002_2103)"/>
</g>
<g filter="url(#filter18_f_4002_2103)">
<path d="M18.776 10.6207C18.7431 10.3899 18.608 10.2161 18.5447 10.158L18.2848 10.4432L18.4021 10.6714L18.776 10.6207Z" fill="url(#paint55_linear_4002_2103)"/>
</g>
<path d="M13.4059 9.57397C12.7528 9.57397 12.2011 10.0243 12.051 10.6327C12.0064 10.8072 12.1403 10.9735 12.3187 10.9735H14.5499C14.6919 10.9735 14.8054 10.8437 14.777 10.7017C14.6513 10.0608 14.0834 9.57397 13.4059 9.57397Z" fill="white"/>
<path d="M13.6128 9.8457C13.1179 9.8457 12.7203 10.2473 12.7203 10.7382C12.7203 10.8193 12.7325 10.9004 12.7528 10.9734H14.4768C14.4971 10.8964 14.5093 10.8193 14.5093 10.7382C14.5052 10.2473 14.1077 9.8457 13.6128 9.8457Z" fill="url(#paint56_radial_4002_2103)"/>
<path d="M14.1239 10.7382C14.1239 10.4542 13.8968 10.2271 13.6128 10.2271C13.3289 10.2271 13.1017 10.4542 13.1017 10.7382C13.1017 10.8234 13.122 10.9045 13.1585 10.9735H14.0631C14.0996 10.9045 14.1239 10.8234 14.1239 10.7382Z" fill="black"/>
<g filter="url(#filter19_f_4002_2103)">
<path d="M14.4282 10.6335C14.4282 10.3451 14.1937 10.1528 14.1303 10.0947L13.8419 10.3736L14.0194 10.7349L14.4282 10.6335Z" fill="url(#paint57_linear_4002_2103)"/>
</g>
<g filter="url(#filter20_f_4002_2103)">
<ellipse cx="13.3437" cy="10.2272" rx="0.389603" ry="0.197175" transform="rotate(-27.914 13.3437 10.2272)" fill="#C7A7A3" fill-opacity="0.9"/>
<ellipse cx="13.3437" cy="10.2272" rx="0.389603" ry="0.197175" transform="rotate(-27.914 13.3437 10.2272)" fill="url(#paint58_radial_4002_2103)"/>
</g>
<g filter="url(#filter21_f_4002_2103)">
<path d="M17.7365 8.54728C18.059 8.46882 18.8611 8.50805 19.3972 8.89164" stroke="#A57045" stroke-width="0.2" stroke-linecap="round"/>
</g>
<g filter="url(#filter22_f_4002_2103)">
<path d="M13.9457 8.54728C13.6231 8.46882 12.8211 8.50805 12.2849 8.89164" stroke="#A57045" stroke-width="0.2" stroke-linecap="round"/>
</g>
<g filter="url(#filter23_f_4002_2103)">
<path d="M10.9028 4.90593C11.5239 4.35281 12.4197 4.34722 12.9226 4.43662L13.3249 5.72724C13.0678 5.68813 12.8388 5.77752 12.646 5.9619C12.1933 7.63803 10.4837 7.38661 10.1485 8.64371C9.99762 7.15195 9.83012 5.86133 10.9028 4.90593Z" fill="url(#paint59_radial_4002_2103)"/>
<path d="M10.9028 4.90593C11.5239 4.35281 12.4197 4.34722 12.9226 4.43662L13.3249 5.72724C13.0678 5.68813 12.8388 5.77752 12.646 5.9619C12.1933 7.63803 10.4837 7.38661 10.1485 8.64371C9.99762 7.15195 9.83012 5.86133 10.9028 4.90593Z" fill="url(#paint60_radial_4002_2103)"/>
</g>
<g filter="url(#filter24_f_4002_2103)">
<path d="M15.1936 3.12927C14.061 2.8792 12.8471 4.08466 12.7297 4.5037C14.2718 8.12414 16.6396 7.7791 19.2666 7.48721C20.8392 7.31247 21.0098 8.02915 21.1439 8.37556C20.7081 4.31932 17.7749 3.69916 15.1936 3.12927Z" fill="url(#paint61_radial_4002_2103)"/>
<path d="M15.1936 3.12927C14.061 2.8792 12.8471 4.08466 12.7297 4.5037C14.2718 8.12414 16.6396 7.7791 19.2666 7.48721C20.8392 7.31247 21.0098 8.02915 21.1439 8.37556C20.7081 4.31932 17.7749 3.69916 15.1936 3.12927Z" fill="url(#paint62_radial_4002_2103)"/>
<path d="M15.1936 3.12927C14.061 2.8792 12.8471 4.08466 12.7297 4.5037C14.2718 8.12414 16.6396 7.7791 19.2666 7.48721C20.8392 7.31247 21.0098 8.02915 21.1439 8.37556C20.7081 4.31932 17.7749 3.69916 15.1936 3.12927Z" fill="url(#paint63_radial_4002_2103)"/>
</g>
<g filter="url(#filter25_f_4002_2103)">
<path d="M12.9056 4.37793C12.9289 4.62097 13.1403 5.53446 13.4504 6.08758" stroke="url(#paint64_linear_4002_2103)" stroke-width="0.2" stroke-linecap="round"/>
</g>
<defs>
<filter id="filter0_i_4002_2103" x="8.28796" y="1.64185" width="15.2681" height="15.7682" filterUnits="userSpaceOnUse" color-interpolation-filters="sRGB">
<feFlood flood-opacity="0" result="BackgroundImageFix"/>
<feBlend mode="normal" in="SourceGraphic" in2="BackgroundImageFix" result="shape"/>
<feColorMatrix in="SourceAlpha" type="matrix" values="0 0 0 0 0 0 0 0 0 0 0 0 0 0 0 0 0 0 127 0" result="hardAlpha"/>
<feOffset dx="0.25" dy="-0.75"/>
<feGaussianBlur stdDeviation="0.75"/>
<feComposite in2="hardAlpha" operator="arithmetic" k2="-1" k3="1"/>
<feColorMatrix type="matrix" values="0 0 0 0 0.886275 0 0 0 0 0.698039 0 0 0 0 0.607843 0 0 0 1 0"/>
<feBlend mode="normal" in2="shape" result="effect1_innerShadow_4002_2103"/>
</filter>
<filter id="filter1_f_4002_2103" x="9.21191" y="15.4453" width="6.55582" height="14.5948" filterUnits="userSpaceOnUse" color-interpolation-filters="sRGB">
<feFlood flood-opacity="0" result="BackgroundImageFix"/>
<feBlend mode="normal" in="SourceGraphic" in2="BackgroundImageFix" result="shape"/>
<feGaussianBlur stdDeviation="0.5" result="effect1_foregroundBlur_4002_2103"/>
</filter>
<filter id="filter2_f_4002_2103" x="17.96" y="15.9229" width="3.94995" height="13.3618" filterUnits="userSpaceOnUse" color-interpolation-filters="sRGB">
<feFlood flood-opacity="0" result="BackgroundImageFix"/>
<feBlend mode="normal" in="SourceGraphic" in2="BackgroundImageFix" result="shape"/>
<feGaussianBlur stdDeviation="0.375" result="effect1_foregroundBlur_4002_2103"/>
</filter>
<filter id="filter3_i_4002_2103" x="10.5032" y="15.6882" width="2.89681" height="14" filterUnits="userSpaceOnUse" color-interpolation-filters="sRGB">
<feFlood flood-opacity="0" result="BackgroundImageFix"/>
<feBlend mode="normal" in="SourceGraphic" in2="BackgroundImageFix" result="shape"/>
<feColorMatrix in="SourceAlpha" type="matrix" values="0 0 0 0 0 0 0 0 0 0 0 0 0 0 0 0 0 0 127 0" result="hardAlpha"/>
<feOffset dx="0.1" dy="0.1"/>
<feGaussianBlur stdDeviation="0.1"/>
<feComposite in2="hardAlpha" operator="arithmetic" k2="-1" k3="1"/>
<feColorMatrix type="matrix" values="0 0 0 0 0.403922 0 0 0 0 0.368627 0 0 0 0 0.494118 0 0 0 1 0"/>
<feBlend mode="normal" in2="shape" result="effect1_innerShadow_4002_2103"/>
</filter>
<filter id="filter4_ii_4002_2103" x="14.6245" y="17.8253" width="2.73357" height="2.88284" filterUnits="userSpaceOnUse" color-interpolation-filters="sRGB">
<feFlood flood-opacity="0" result="BackgroundImageFix"/>
<feBlend mode="normal" in="SourceGraphic" in2="BackgroundImageFix" result="shape"/>
<feColorMatrix in="SourceAlpha" type="matrix" values="0 0 0 0 0 0 0 0 0 0 0 0 0 0 0 0 0 0 127 0" result="hardAlpha"/>
<feOffset dx="0.1" dy="-0.1"/>
<feGaussianBlur stdDeviation="0.25"/>
<feComposite in2="hardAlpha" operator="arithmetic" k2="-1" k3="1"/>
<feColorMatrix type="matrix" values="0 0 0 0 0.156863 0 0 0 0 0.0980392 0 0 0 0 0.215686 0 0 0 1 0"/>
<feBlend mode="normal" in2="shape" result="effect1_innerShadow_4002_2103"/>
<feColorMatrix in="SourceAlpha" type="matrix" values="0 0 0 0 0 0 0 0 0 0 0 0 0 0 0 0 0 0 127 0" result="hardAlpha"/>
<feOffset dx="-0.1" dy="-0.1"/>
<feGaussianBlur stdDeviation="0.25"/>
<feComposite in2="hardAlpha" operator="arithmetic" k2="-1" k3="1"/>
<feColorMatrix type="matrix" values="0 0 0 0 0.156863 0 0 0 0 0.0980392 0 0 0 0 0.215686 0 0 0 1 0"/>
<feBlend mode="normal" in2="effect1_innerShadow_4002_2103" result="effect2_innerShadow_4002_2103"/>
</filter>
<filter id="filter5_i_4002_2103" x="18.61" y="15.6382" width="2.90215" height="14.05" filterUnits="userSpaceOnUse" color-interpolation-filters="sRGB">
<feFlood flood-opacity="0" result="BackgroundImageFix"/>
<feBlend mode="normal" in="SourceGraphic" in2="BackgroundImageFix" result="shape"/>
<feColorMatrix in="SourceAlpha" type="matrix" values="0 0 0 0 0 0 0 0 0 0 0 0 0 0 0 0 0 0 127 0" result="hardAlpha"/>
<feOffset dx="-0.1" dy="0.1"/>
<feGaussianBlur stdDeviation="0.1"/>
<feComposite in2="hardAlpha" operator="arithmetic" k2="-1" k3="1"/>
<feColorMatrix type="matrix" values="0 0 0 0 0.439216 0 0 0 0 0.415686 0 0 0 0 0.584314 0 0 0 1 0"/>
<feBlend mode="normal" in2="shape" result="effect1_innerShadow_4002_2103"/>
</filter>
<filter id="filter6_i_4002_2103" x="9.5022" y="9.31079" width="3.36817" height="3.46814" filterUnits="userSpaceOnUse" color-interpolation-filters="sRGB">
<feFlood flood-opacity="0" result="BackgroundImageFix"/>
<feBlend mode="normal" in="SourceGraphic" in2="BackgroundImageFix" result="shape"/>
<feColorMatrix in="SourceAlpha" type="matrix" values="0 0 0 0 0 0 0 0 0 0 0 0 0 0 0 0 0 0 127 0" result="hardAlpha"/>
<feOffset dx="0.15" dy="0.25"/>
<feGaussianBlur stdDeviation="0.25"/>
<feComposite in2="hardAlpha" operator="arithmetic" k2="-1" k3="1"/>
<feColorMatrix type="matrix" values="0 0 0 0 0.858824 0 0 0 0 0.635294 0 0 0 0 0.533333 0 0 0 1 0"/>
<feBlend mode="normal" in2="shape" result="effect1_innerShadow_4002_2103"/>
</filter>
<filter id="filter7_i_4002_2103" x="19.0151" y="9.06079" width="3.21817" height="3.46814" filterUnits="userSpaceOnUse" color-interpolation-filters="sRGB">
<feFlood flood-opacity="0" result="BackgroundImageFix"/>
<feBlend mode="normal" in="SourceGraphic" in2="BackgroundImageFix" result="shape"/>
<feColorMatrix in="SourceAlpha" type="matrix" values="0 0 0 0 0 0 0 0 0 0 0 0 0 0 0 0 0 0 127 0" result="hardAlpha"/>
<feOffset dy="-0.25"/>
<feGaussianBlur stdDeviation="0.25"/>
<feComposite in2="hardAlpha" operator="arithmetic" k2="-1" k3="1"/>
<feColorMatrix type="matrix" values="0 0 0 0 0.827451 0 0 0 0 0.568627 0 0 0 0 0.505882 0 0 0 1 0"/>
<feBlend mode="normal" in2="shape" result="effect1_innerShadow_4002_2103"/>
</filter>
<filter id="filter8_f_4002_2103" x="19.0502" y="9.3457" width="3.14822" height="3.14819" filterUnits="userSpaceOnUse" color-interpolation-filters="sRGB">
<feFlood flood-opacity="0" result="BackgroundImageFix"/>
<feBlend mode="normal" in="SourceGraphic" in2="BackgroundImageFix" result="shape"/>
<feGaussianBlur stdDeviation="0.25" result="effect1_foregroundBlur_4002_2103"/>
</filter>
<filter id="filter9_f_4002_2103" x="9.65652" y="9.4457" width="2.94822" height="2.94819" filterUnits="userSpaceOnUse" color-interpolation-filters="sRGB">
<feFlood flood-opacity="0" result="BackgroundImageFix"/>
<feBlend mode="normal" in="SourceGraphic" in2="BackgroundImageFix" result="shape"/>
<feGaussianBlur stdDeviation="0.2" result="effect1_foregroundBlur_4002_2103"/>
</filter>
<filter id="filter10_i_4002_2103" x="10.7015" y="6.01318" width="10.1909" height="11.1268" filterUnits="userSpaceOnUse" color-interpolation-filters="sRGB">
<feFlood flood-opacity="0" result="BackgroundImageFix"/>
<feBlend mode="normal" in="SourceGraphic" in2="BackgroundImageFix" result="shape"/>
<feColorMatrix in="SourceAlpha" type="matrix" values="0 0 0 0 0 0 0 0 0 0 0 0 0 0 0 0 0 0 127 0" result="hardAlpha"/>
<feOffset dy="0.25"/>
<feGaussianBlur stdDeviation="0.125"/>
<feComposite in2="hardAlpha" operator="arithmetic" k2="-1" k3="1"/>
<feColorMatrix type="matrix" values="0 0 0 0 0.745098 0 0 0 0 0.486275 0 0 0 0 0.384314 0 0 0 1 0"/>
<feBlend mode="normal" in2="shape" result="effect1_innerShadow_4002_2103"/>
</filter>
<filter id="filter11_f_4002_2103" x="14.196" y="9.91479" width="2.87726" height="3.68176" filterUnits="userSpaceOnUse" color-interpolation-filters="sRGB">
<feFlood flood-opacity="0" result="BackgroundImageFix"/>
<feBlend mode="normal" in="SourceGraphic" in2="BackgroundImageFix" result="shape"/>
<feGaussianBlur stdDeviation="0.25" result="effect1_foregroundBlur_4002_2103"/>
</filter>
<filter id="filter12_f_4002_2103" x="14.6083" y="10.0264" width="2.37726" height="3.18176" filterUnits="userSpaceOnUse" color-interpolation-filters="sRGB">
<feFlood flood-opacity="0" result="BackgroundImageFix"/>
<feBlend mode="normal" in="SourceGraphic" in2="BackgroundImageFix" result="shape"/>
<feGaussianBlur stdDeviation="0.125" result="effect1_foregroundBlur_4002_2103"/>
</filter>
<filter id="filter13_i_4002_2103" x="16.7391" y="9.51538" width="3.00139" height="1.2854" filterUnits="userSpaceOnUse" color-interpolation-filters="sRGB">
<feFlood flood-opacity="0" result="BackgroundImageFix"/>
<feBlend mode="normal" in="SourceGraphic" in2="BackgroundImageFix" result="shape"/>
<feColorMatrix in="SourceAlpha" type="matrix" values="0 0 0 0 0 0 0 0 0 0 0 0 0 0 0 0 0 0 127 0" result="hardAlpha"/>
<feOffset dx="-0.2"/>
<feGaussianBlur stdDeviation="0.2"/>
<feComposite in2="hardAlpha" operator="arithmetic" k2="-1" k3="1"/>
<feColorMatrix type="matrix" values="0 0 0 0 0.141176 0 0 0 0 0.0862745 0 0 0 0 0.176471 0 0 0 1 0"/>
<feBlend mode="normal" in2="shape" result="effect1_innerShadow_4002_2103"/>
</filter>
<filter id="filter14_i_4002_2103" x="11.8536" y="9.51538" width="3.00139" height="1.2854" filterUnits="userSpaceOnUse" color-interpolation-filters="sRGB">
<feFlood flood-opacity="0" result="BackgroundImageFix"/>
<feBlend mode="normal" in="SourceGraphic" in2="BackgroundImageFix" result="shape"/>
<feColorMatrix in="SourceAlpha" type="matrix" values="0 0 0 0 0 0 0 0 0 0 0 0 0 0 0 0 0 0 127 0" result="hardAlpha"/>
<feOffset dx="0.2"/>
<feGaussianBlur stdDeviation="0.125"/>
<feComposite in2="hardAlpha" operator="arithmetic" k2="-1" k3="1"/>
<feColorMatrix type="matrix" values="0 0 0 0 0.133333 0 0 0 0 0.0784314 0 0 0 0 0.168627 0 0 0 1 0"/>
<feBlend mode="normal" in2="shape" result="effect1_innerShadow_4002_2103"/>
</filter>
<filter id="filter15_i_4002_2103" x="11.9888" y="8.09175" width="2.45278" height="1.09099" filterUnits="userSpaceOnUse" color-interpolation-filters="sRGB">
<feFlood flood-opacity="0" result="BackgroundImageFix"/>
<feBlend mode="normal" in="SourceGraphic" in2="BackgroundImageFix" result="shape"/>
<feColorMatrix in="SourceAlpha" type="matrix" values="0 0 0 0 0 0 0 0 0 0 0 0 0 0 0 0 0 0 127 0" result="hardAlpha"/>
<feOffset dx="0.2" dy="-0.2"/>
<feGaussianBlur stdDeviation="0.15"/>
<feComposite in2="hardAlpha" operator="arithmetic" k2="-1" k3="1"/>
<feColorMatrix type="matrix" values="0 0 0 0 0.47451 0 0 0 0 0.262745 0 0 0 0 0.164706 0 0 0 1 0"/>
<feBlend mode="normal" in2="shape" result="effect1_innerShadow_4002_2103"/>
</filter>
<filter id="filter16_i_4002_2103" x="17.4061" y="8.09175" width="2.45278" height="1.09111" filterUnits="userSpaceOnUse" color-interpolation-filters="sRGB">
<feFlood flood-opacity="0" result="BackgroundImageFix"/>
<feBlend mode="normal" in="SourceGraphic" in2="BackgroundImageFix" result="shape"/>
<feColorMatrix in="SourceAlpha" type="matrix" values="0 0 0 0 0 0 0 0 0 0 0 0 0 0 0 0 0 0 127 0" result="hardAlpha"/>
<feOffset dx="0.2" dy="-0.2"/>
<feGaussianBlur stdDeviation="0.15"/>
<feComposite in2="hardAlpha" operator="arithmetic" k2="-1" k3="1"/>
<feColorMatrix type="matrix" values="0 0 0 0 0.47451 0 0 0 0 0.262745 0 0 0 0 0.164706 0 0 0 1 0"/>
<feBlend mode="normal" in2="shape" result="effect1_innerShadow_4002_2103"/>
</filter>
<filter id="filter17_f_4002_2103" x="17.2449" y="9.88291" width="0.786823" height="0.696338" filterUnits="userSpaceOnUse" color-interpolation-filters="sRGB">
<feFlood flood-opacity="0" result="BackgroundImageFix"/>
<feBlend mode="normal" in="SourceGraphic" in2="BackgroundImageFix" result="shape"/>
<feGaussianBlur stdDeviation="0.05" result="effect1_foregroundBlur_4002_2103"/>
</filter>
<filter id="filter18_f_4002_2103" x="18.0848" y="9.95796" width="0.891241" height="0.913428" filterUnits="userSpaceOnUse" color-interpolation-filters="sRGB">
<feFlood flood-opacity="0" result="BackgroundImageFix"/>
<feBlend mode="normal" in="SourceGraphic" in2="BackgroundImageFix" result="shape"/>
<feGaussianBlur stdDeviation="0.1" result="effect1_foregroundBlur_4002_2103"/>
</filter>
<filter id="filter19_f_4002_2103" x="13.6419" y="9.89473" width="0.986304" height="1.04014" filterUnits="userSpaceOnUse" color-interpolation-filters="sRGB">
<feFlood flood-opacity="0" result="BackgroundImageFix"/>
<feBlend mode="normal" in="SourceGraphic" in2="BackgroundImageFix" result="shape"/>
<feGaussianBlur stdDeviation="0.1" result="effect1_foregroundBlur_4002_2103"/>
</filter>
<filter id="filter20_f_4002_2103" x="12.8872" y="9.87498" width="0.913043" height="0.704517" filterUnits="userSpaceOnUse" color-interpolation-filters="sRGB">
<feFlood flood-opacity="0" result="BackgroundImageFix"/>
<feBlend mode="normal" in="SourceGraphic" in2="BackgroundImageFix" result="shape"/>
<feGaussianBlur stdDeviation="0.05" result="effect1_foregroundBlur_4002_2103"/>
</filter>
<filter id="filter21_f_4002_2103" x="17.2364" y="8.01394" width="2.66081" height="1.37776" filterUnits="userSpaceOnUse" color-interpolation-filters="sRGB">
<feFlood flood-opacity="0" result="BackgroundImageFix"/>
<feBlend mode="normal" in="SourceGraphic" in2="BackgroundImageFix" result="shape"/>
<feGaussianBlur stdDeviation="0.2" result="effect1_foregroundBlur_4002_2103"/>
</filter>
<filter id="filter22_f_4002_2103" x="11.7849" y="8.01394" width="2.66081" height="1.37776" filterUnits="userSpaceOnUse" color-interpolation-filters="sRGB">
<feFlood flood-opacity="0" result="BackgroundImageFix"/>
<feBlend mode="normal" in="SourceGraphic" in2="BackgroundImageFix" result="shape"/>
<feGaussianBlur stdDeviation="0.2" result="effect1_foregroundBlur_4002_2103"/>
</filter>
<filter id="filter23_f_4002_2103" x="9.53772" y="3.8938" width="4.28714" height="5.24988" filterUnits="userSpaceOnUse" color-interpolation-filters="sRGB">
<feFlood flood-opacity="0" result="BackgroundImageFix"/>
<feBlend mode="normal" in="SourceGraphic" in2="BackgroundImageFix" result="shape"/>
<feGaussianBlur stdDeviation="0.25" result="effect1_foregroundBlur_4002_2103"/>
</filter>
<filter id="filter24_f_4002_2103" x="12.4797" y="2.84546" width="8.91418" height="5.78015" filterUnits="userSpaceOnUse" color-interpolation-filters="sRGB">
<feFlood flood-opacity="0" result="BackgroundImageFix"/>
<feBlend mode="normal" in="SourceGraphic" in2="BackgroundImageFix" result="shape"/>
<feGaussianBlur stdDeviation="0.125" result="effect1_foregroundBlur_4002_2103"/>
</filter>
<filter id="filter25_f_4002_2103" x="12.6056" y="4.07795" width="1.14478" height="2.30967" filterUnits="userSpaceOnUse" color-interpolation-filters="sRGB">
<feFlood flood-opacity="0" result="BackgroundImageFix"/>
<feBlend mode="normal" in="SourceGraphic" in2="BackgroundImageFix" result="shape"/>
<feGaussianBlur stdDeviation="0.1" result="effect1_foregroundBlur_4002_2103"/>
</filter>
<linearGradient id="paint0_linear_4002_2103" x1="20.4903" y1="3.96742" x2="13.6852" y2="16.5719" gradientUnits="userSpaceOnUse">
<stop stop-color="#FFFFBE"/>
<stop offset="1" stop-color="#E5AE90"/>
</linearGradient>
<radialGradient id="paint1_radial_4002_2103" cx="0" cy="0" r="1" gradientUnits="userSpaceOnUse" gradientTransform="translate(20.4902 16.7395) rotate(-64.2901) scale(4.01824 9.16186)">
<stop stop-color="#F9BFA4"/>
<stop offset="1" stop-color="#FFC3A8" stop-opacity="0"/>
</radialGradient>
<radialGradient id="paint2_radial_4002_2103" cx="0" cy="0" r="1" gradientUnits="userSpaceOnUse" gradientTransform="translate(15.1266 12.6833) rotate(109.074) scale(5.77873 5.40927)">
<stop offset="0.619534" stop-color="#C7897D"/>
<stop offset="1" stop-color="#C7897D" stop-opacity="0"/>
</radialGradient>
<radialGradient id="paint3_radial_4002_2103" cx="0" cy="0" r="1" gradientUnits="userSpaceOnUse" gradientTransform="translate(12.6795 13.689) rotate(142.167) scale(3.98975 4.91117)">
<stop offset="0.205322" stop-color="#CF987B"/>
<stop offset="1" stop-color="#CF987B" stop-opacity="0"/>
</radialGradient>
<radialGradient id="paint4_radial_4002_2103" cx="0" cy="0" r="1" gradientUnits="userSpaceOnUse" gradientTransform="translate(10.9531 11.1413) rotate(125.038) scale(1.78101 1.61886)">
<stop offset="0.333546" stop-color="#C58E72"/>
<stop offset="1" stop-color="#C58E72" stop-opacity="0"/>
</radialGradient>
<radialGradient id="paint5_radial_4002_2103" cx="0" cy="0" r="1" gradientUnits="userSpaceOnUse" gradientTransform="translate(11.4894 9.64951) rotate(-167.428) scale(2.38706 3.50899)">
<stop offset="0.225789" stop-color="#C49070"/>
<stop offset="1" stop-color="#C49070" stop-opacity="0"/>
</radialGradient>
<radialGradient id="paint6_radial_4002_2103" cx="0" cy="0" r="1" gradientUnits="userSpaceOnUse" gradientTransform="translate(11.9587 3.34726) rotate(55.6839) scale(3.83549 6.69345)">
<stop stop-color="#DCC893"/>
<stop offset="1" stop-color="#DCC893" stop-opacity="0"/>
</radialGradient>
<radialGradient id="paint7_radial_4002_2103" cx="0" cy="0" r="1" gradientUnits="userSpaceOnUse" gradientTransform="translate(21.2948 5.17424) rotate(132.51) scale(1.63713 2.28786)">
<stop stop-color="#FFFFBF"/>
<stop offset="1" stop-color="#FFFFBF" stop-opacity="0"/>
</radialGradient>
<radialGradient id="paint8_radial_4002_2103" cx="0" cy="0" r="1" gradientUnits="userSpaceOnUse" gradientTransform="translate(23.3061 10.0685) rotate(163.779) scale(1.9201 4.17788)">
<stop stop-color="#FFFABE"/>
<stop offset="1" stop-color="#FFFABE" stop-opacity="0"/>
</radialGradient>
<radialGradient id="paint9_radial_4002_2103" cx="0" cy="0" r="1" gradientUnits="userSpaceOnUse" gradientTransform="translate(23.038 12.8509) rotate(156.949) scale(3.42456 5.45637)">
<stop stop-color="#FFF4BC"/>
<stop offset="1" stop-color="#FFF4BC" stop-opacity="0"/>
</radialGradient>
<linearGradient id="paint10_linear_4002_2103" x1="15.9999" y1="15.9097" x2="15.9999" y2="30.8472" gradientUnits="userSpaceOnUse">
<stop stop-color="#534973"/>
<stop offset="1" stop-color="#584982"/>
</linearGradient>
<radialGradient id="paint11_radial_4002_2103" cx="0" cy="0" r="1" gradientUnits="userSpaceOnUse" gradientTransform="translate(22.9949 25.0909) rotate(-90) scale(16.4313 6.37009)">
<stop offset="0.155797" stop-color="#7B74A6"/>
<stop offset="1" stop-color="#5F5490" stop-opacity="0"/>
</radialGradient>
<radialGradient id="paint12_radial_4002_2103" cx="0" cy="0" r="1" gradientUnits="userSpaceOnUse" gradientTransform="translate(16 22.6633) rotate(90) scale(10.1215 4.59696)">
<stop offset="0.397031" stop-color="#C6BBD1"/>
<stop offset="1" stop-color="#A89CB3"/>
</radialGradient>
<linearGradient id="paint13_linear_4002_2103" x1="18.9031" y1="24.9098" x2="17.0593" y2="24.9098" gradientUnits="userSpaceOnUse">
<stop stop-color="#7A6C85"/>
<stop offset="1" stop-color="#C7BCD2" stop-opacity="0"/>
</linearGradient>
<linearGradient id="paint14_linear_4002_2103" x1="15.5906" y1="17.4567" x2="15.6687" y2="21.3473" gradientUnits="userSpaceOnUse">
<stop stop-color="#877F93"/>
<stop offset="1" stop-color="#877F93" stop-opacity="0"/>
</linearGradient>
<radialGradient id="paint15_radial_4002_2103" cx="0" cy="0" r="1" gradientUnits="userSpaceOnUse" gradientTransform="translate(25 29.5982) rotate(-90) scale(10.3135 1.68433)">
<stop stop-color="#776D9F"/>
<stop offset="1" stop-color="#6D6193"/>
</radialGradient>
<linearGradient id="paint16_linear_4002_2103" x1="23" y1="29.0852" x2="23.7438" y2="29.0614" gradientUnits="userSpaceOnUse">
<stop offset="0.275571" stop-color="#504176"/>
<stop offset="1" stop-color="#504176" stop-opacity="0"/>
</linearGradient>
<linearGradient id="paint17_linear_4002_2103" x1="11.9016" y1="15.6882" x2="11.9016" y2="29.5882" gradientUnits="userSpaceOnUse">
<stop stop-color="#544A76"/>
<stop offset="0.524033" stop-color="#5F5289"/>
</linearGradient>
<linearGradient id="paint18_linear_4002_2103" x1="13.6709" y1="22.1475" x2="13.0501" y2="22.1475" gradientUnits="userSpaceOnUse">
<stop stop-color="#3E305B"/>
<stop offset="1" stop-color="#553A63" stop-opacity="0"/>
</linearGradient>
<radialGradient id="paint19_radial_4002_2103" cx="0" cy="0" r="1" gradientUnits="userSpaceOnUse" gradientTransform="translate(13.7156 15.9723) rotate(126.18) scale(2.59394 3.59462)">
<stop stop-color="#3C2E57"/>
<stop offset="1" stop-color="#3C2E57" stop-opacity="0"/>
</radialGradient>
<linearGradient id="paint20_linear_4002_2103" x1="11.9016" y1="25.5642" x2="12.8388" y2="25.1628" gradientUnits="userSpaceOnUse">
<stop offset="0.195813" stop-color="#55477C"/>
<stop offset="1" stop-color="#594C7D" stop-opacity="0"/>
</linearGradient>
<radialGradient id="paint21_radial_4002_2103" cx="0" cy="0" r="1" gradientUnits="userSpaceOnUse" gradientTransform="translate(11.3953 19.3551) rotate(-15.9454) scale(1.13752 0.559025)">
<stop offset="0.241347" stop-color="#4B3B6D"/>
<stop offset="1" stop-color="#4B3B6D" stop-opacity="0"/>
</radialGradient>
<linearGradient id="paint22_linear_4002_2103" x1="15.9884" y1="18.5815" x2="15.9884" y2="20.5659" gradientUnits="userSpaceOnUse">
<stop offset="0.00558659" stop-color="#4B375E"/>
<stop offset="1" stop-color="#483B55"/>
</linearGradient>
<linearGradient id="paint23_linear_4002_2103" x1="18.71" y1="21.195" x2="20.111" y2="21.195" gradientUnits="userSpaceOnUse">
<stop offset="0.0932249" stop-color="#453D68"/>
<stop offset="1" stop-color="#625A91" stop-opacity="0"/>
</linearGradient>
<radialGradient id="paint24_radial_4002_2103" cx="0" cy="0" r="1" gradientUnits="userSpaceOnUse" gradientTransform="translate(15.9999 18.1128) rotate(90) scale(3.75 4.3769)">
<stop offset="0.3625" stop-color="#CAC3D3"/>
<stop offset="1" stop-color="#A093A3"/>
</radialGradient>
<radialGradient id="paint25_radial_4002_2103" cx="0" cy="0" r="1" gradientUnits="userSpaceOnUse" gradientTransform="translate(15.9999 20.6099) rotate(-90) scale(5.1875 6.81546)">
<stop offset="0.532569" stop-color="#837A8D" stop-opacity="0"/>
<stop offset="0.875943" stop-color="#544A5F"/>
</radialGradient>
<linearGradient id="paint26_linear_4002_2103" x1="9.45187" y1="23.6055" x2="7.01987" y2="23.6055" gradientUnits="userSpaceOnUse">
<stop stop-color="#41375C"/>
<stop offset="1" stop-color="#584A7E" stop-opacity="0"/>
</linearGradient>
<radialGradient id="paint27_radial_4002_2103" cx="0" cy="0" r="1" gradientUnits="userSpaceOnUse" gradientTransform="translate(15.9829 21.0035) rotate(90) scale(8.8125 3.45478)">
<stop offset="0.00558659" stop-color="#56406D"/>
<stop offset="0.939716" stop-color="#3D3247"/>
</radialGradient>
<linearGradient id="paint28_linear_4002_2103" x1="14.6062" y1="24.4684" x2="14.8992" y2="24.5074" gradientUnits="userSpaceOnUse">
<stop stop-color="#2B1B3A"/>
<stop offset="1" stop-color="#2B1B3A" stop-opacity="0"/>
</linearGradient>
<linearGradient id="paint29_linear_4002_2103" x1="17.4109" y1="24.2848" x2="17.0125" y2="24.3317" gradientUnits="userSpaceOnUse">
<stop stop-color="#2B1B3A"/>
<stop offset="1" stop-color="#2B1B3A" stop-opacity="0"/>
</linearGradient>
<radialGradient id="paint30_radial_4002_2103" cx="0" cy="0" r="1" gradientUnits="userSpaceOnUse" gradientTransform="translate(16.0294 16.8589) rotate(90) scale(1.3026 2.71576)">
<stop stop-color="#AD7270"/>
<stop offset="1" stop-color="#B68375"/>
</radialGradient>
<linearGradient id="paint31_linear_4002_2103" x1="8.86228" y1="15.9271" x2="23.2383" y2="15.9271" gradientUnits="userSpaceOnUse">
<stop offset="0.00558659" stop-color="#CCCCCC"/>
<stop offset="1" stop-color="#E6E6E6"/>
</linearGradient>
<linearGradient id="paint32_linear_4002_2103" x1="8.86228" y1="15.8968" x2="23.2383" y2="15.8968" gradientUnits="userSpaceOnUse">
<stop offset="0.00558659" stop-color="#CCCCCC"/>
<stop offset="1" stop-color="#E6E6E6"/>
</linearGradient>
<linearGradient id="paint33_linear_4002_2103" x1="9.5022" y1="11.007" x2="12.4615" y2="11.007" gradientUnits="userSpaceOnUse">
<stop stop-color="#C48B78"/>
<stop offset="1" stop-color="#B47860"/>
</linearGradient>
<radialGradient id="paint34_radial_4002_2103" cx="0" cy="0" r="1" gradientUnits="userSpaceOnUse" gradientTransform="translate(19.8365 11.359) rotate(-24.444) scale(2.73412 3.33824)">
<stop offset="0.572298" stop-color="#E1A792"/>
<stop offset="0.904617" stop-color="#F6C3A3"/>
</radialGradient>
<radialGradient id="paint35_radial_4002_2103" cx="0" cy="0" r="1" gradientUnits="userSpaceOnUse" gradientTransform="translate(20.8589 9.13817) rotate(15.9454) scale(1.03721 0.5453)">
<stop stop-color="#D59566"/>
<stop offset="1" stop-color="#D59566" stop-opacity="0"/>
</radialGradient>
<radialGradient id="paint36_radial_4002_2103" cx="0" cy="0" r="1" gradientUnits="userSpaceOnUse" gradientTransform="translate(20.3897 11.1578) rotate(-20.2976) scale(1.30459)">
<stop offset="0.71002" stop-color="#E3A280" stop-opacity="0"/>
<stop offset="1" stop-color="#E3A280"/>
</radialGradient>
<radialGradient id="paint37_radial_4002_2103" cx="0" cy="0" r="1" gradientUnits="userSpaceOnUse" gradientTransform="translate(11.1306 10.9198) rotate(180) scale(1.21686 1.164)">
<stop offset="0.572999" stop-color="#B0725A" stop-opacity="0"/>
<stop offset="1" stop-color="#B0725A"/>
</radialGradient>
<radialGradient id="paint38_radial_4002_2103" cx="0" cy="0" r="1" gradientUnits="userSpaceOnUse" gradientTransform="translate(18.6562 10.3825) rotate(155.244) scale(7.16175 9.58587)">
<stop stop-color="#FFC59D"/>
<stop offset="1" stop-color="#D39B88"/>
</radialGradient>
<radialGradient id="paint39_radial_4002_2103" cx="0" cy="0" r="1" gradientUnits="userSpaceOnUse" gradientTransform="translate(17.6973 11.0799) rotate(152.124) scale(2.38668 2.02493)">
<stop stop-color="#FFC89E"/>
<stop offset="1" stop-color="#FFC89E" stop-opacity="0"/>
</radialGradient>
<radialGradient id="paint40_radial_4002_2103" cx="0" cy="0" r="1" gradientUnits="userSpaceOnUse" gradientTransform="translate(13.6173 17.1651) rotate(-78.3106) scale(4.1308 5.24122)">
<stop stop-color="#B97783"/>
<stop offset="1" stop-color="#B97783" stop-opacity="0"/>
</radialGradient>
<radialGradient id="paint41_radial_4002_2103" cx="0" cy="0" r="1" gradientUnits="userSpaceOnUse" gradientTransform="translate(15.797 10.0953) rotate(90) scale(7.4375 10.082)">
<stop offset="0.684444" stop-color="#BF7E8A" stop-opacity="0"/>
<stop offset="0.944301" stop-color="#AA6189"/>
</radialGradient>
<radialGradient id="paint42_radial_4002_2103" cx="0" cy="0" r="1" gradientUnits="userSpaceOnUse" gradientTransform="translate(16.4339 12.7168) rotate(172.34) scale(5.78399 9.95825)">
<stop offset="0.813118" stop-color="#E3AB91" stop-opacity="0"/>
<stop offset="1" stop-color="#E3AB91"/>
</radialGradient>
<radialGradient id="paint43_radial_4002_2103" cx="0" cy="0" r="1" gradientUnits="userSpaceOnUse" gradientTransform="translate(18.0983 9.96405) rotate(-90) scale(1.15077 1.65436)">
<stop offset="0.258747" stop-color="#E3A48E"/>
<stop offset="1" stop-color="#E3A48E" stop-opacity="0"/>
</radialGradient>
<radialGradient id="paint44_radial_4002_2103" cx="0" cy="0" r="1" gradientUnits="userSpaceOnUse" gradientTransform="translate(13.8788 10.0512) rotate(-90) scale(1.36 1.55865)">
<stop stop-color="#C2847A"/>
<stop offset="1" stop-color="#C2847A" stop-opacity="0"/>
</radialGradient>
<radialGradient id="paint45_radial_4002_2103" cx="0" cy="0" r="1" gradientUnits="userSpaceOnUse" gradientTransform="translate(20.8924 11.4516) rotate(-180) scale(1.34695 4.43421)">
<stop stop-color="#F4C099"/>
<stop offset="1" stop-color="#F4C099" stop-opacity="0"/>
</radialGradient>
<radialGradient id="paint46_radial_4002_2103" cx="0" cy="0" r="1" gradientUnits="userSpaceOnUse" gradientTransform="translate(13.2969 4.87653) rotate(74.6731) scale(4.37433 9.03933)">
<stop stop-color="#BE7C5A"/>
<stop offset="1" stop-color="#BE7C5A" stop-opacity="0"/>
</radialGradient>
<radialGradient id="paint47_radial_4002_2103" cx="0" cy="0" r="1" gradientUnits="userSpaceOnUse" gradientTransform="translate(16.5813 12.1784) rotate(-105.892) scale(2.54709 1.45748)">
<stop offset="0.0168227" stop-color="#FDC9A8"/>
<stop offset="1" stop-color="#FDC9A8" stop-opacity="0"/>
</radialGradient>
<linearGradient id="paint48_linear_4002_2103" x1="14.7505" y1="12.1958" x2="15.6049" y2="12.3004" gradientUnits="userSpaceOnUse">
<stop stop-color="#D1987A"/>
<stop offset="1" stop-color="#D1987A" stop-opacity="0"/>
</linearGradient>
<linearGradient id="paint49_linear_4002_2103" x1="15.7969" y1="13.0502" x2="15.7969" y2="12.4399" gradientUnits="userSpaceOnUse">
<stop stop-color="#C57F82"/>
<stop offset="1" stop-color="#C57F82" stop-opacity="0"/>
</linearGradient>
<linearGradient id="paint50_linear_4002_2103" x1="15.8751" y1="13.024" x2="15.8751" y2="12.8845" gradientUnits="userSpaceOnUse">
<stop stop-color="#C27B7C"/>
<stop offset="1" stop-color="#C27B7C" stop-opacity="0"/>
</linearGradient>
<radialGradient id="paint51_radial_4002_2103" cx="0" cy="0" r="1" gradientUnits="userSpaceOnUse" gradientTransform="translate(16.0844 11.821) rotate(144.462) scale(1.57489 2.10944)">
<stop offset="0.797297" stop-color="#C27B7C" stop-opacity="0"/>
<stop offset="1" stop-color="#C27B7C"/>
</radialGradient>
<linearGradient id="paint52_linear_4002_2103" x1="15.0679" y1="14.5268" x2="15.5205" y2="13.6553" gradientUnits="userSpaceOnUse">
<stop stop-color="#CE9591"/>
<stop offset="1" stop-color="#CE9591" stop-opacity="0"/>
</linearGradient>
<radialGradient id="paint53_radial_4002_2103" cx="0" cy="0" r="1" gradientUnits="userSpaceOnUse" gradientTransform="translate(17.9791 10.3227) rotate(90) scale(0.811316 1.29049)">
<stop offset="0.80198" stop-color="#925C51"/>
<stop offset="1" stop-color="#694B43"/>
<stop offset="1" stop-color="#804D49"/>
<stop offset="1" stop-color="#85534D"/>
</radialGradient>
<radialGradient id="paint54_radial_4002_2103" cx="0" cy="0" r="1" gradientUnits="userSpaceOnUse" gradientTransform="translate(17.7508 10.4069) rotate(-127.812) scale(0.378286 0.520809)">
<stop offset="0.765532" stop-color="#FFE6E2" stop-opacity="0"/>
<stop offset="0.966159" stop-color="#FFE6E2"/>
</radialGradient>
<linearGradient id="paint55_linear_4002_2103" x1="18.757" y1="10.3766" x2="18.4433" y2="10.57" gradientUnits="userSpaceOnUse">
<stop stop-color="#B4948D"/>
<stop offset="1" stop-color="#B4948D" stop-opacity="0"/>
</linearGradient>
<radialGradient id="paint56_radial_4002_2103" cx="0" cy="0" r="1" gradientUnits="userSpaceOnUse" gradientTransform="translate(13.6148 10.3227) rotate(90) scale(0.811321 1.2905)">
<stop offset="0.80198" stop-color="#925C51"/>
<stop offset="1" stop-color="#694B43"/>
<stop offset="1" stop-color="#804D49"/>
<stop offset="1" stop-color="#85534D"/>
</radialGradient>
<linearGradient id="paint57_linear_4002_2103" x1="14.3587" y1="10.3768" x2="14.045" y2="10.5701" gradientUnits="userSpaceOnUse">
<stop stop-color="#B4948D"/>
<stop offset="1" stop-color="#B4948D" stop-opacity="0"/>
</linearGradient>
<radialGradient id="paint58_radial_4002_2103" cx="0" cy="0" r="1" gradientUnits="userSpaceOnUse" gradientTransform="translate(13.3286 10.5421) rotate(-90.897) scale(0.49412 0.593952)">
<stop offset="0.765532" stop-color="#FFE6E2" stop-opacity="0"/>
<stop offset="0.966159" stop-color="#FFE6E2"/>
</radialGradient>
<radialGradient id="paint59_radial_4002_2103" cx="0" cy="0" r="1" gradientUnits="userSpaceOnUse" gradientTransform="translate(9.83945 4.67128) rotate(54.1904) scale(3.30693 6.57088)">
<stop offset="0.403078" stop-color="#DAA88F" stop-opacity="0"/>
<stop offset="1" stop-color="#DAA88F"/>
</radialGradient>
<radialGradient id="paint60_radial_4002_2103" cx="0" cy="0" r="1" gradientUnits="userSpaceOnUse" gradientTransform="translate(13.0818 4.90593) rotate(127.118) scale(3.11098 2.43982)">
<stop stop-color="#FEE2A9"/>
<stop offset="1" stop-color="#FEE2A9" stop-opacity="0"/>
</radialGradient>
<radialGradient id="paint61_radial_4002_2103" cx="0" cy="0" r="1" gradientUnits="userSpaceOnUse" gradientTransform="translate(17.7078 2.99518) rotate(115.684) scale(4.8729 6.92907)">
<stop offset="0.595085" stop-color="#F0C6A3" stop-opacity="0"/>
<stop offset="1" stop-color="#F0C6A3"/>
</radialGradient>
<radialGradient id="paint62_radial_4002_2103" cx="0" cy="0" r="1" gradientUnits="userSpaceOnUse" gradientTransform="translate(18.1101 4.16847) rotate(104.957) scale(3.31969 5.92574)">
<stop stop-color="#FFFFC0"/>
<stop offset="1" stop-color="#FFFFC0" stop-opacity="0"/>
</radialGradient>
<radialGradient id="paint63_radial_4002_2103" cx="0" cy="0" r="1" gradientUnits="userSpaceOnUse" gradientTransform="translate(17.0877 9.63265) rotate(-119.068) scale(7.21046 6.45439)">
<stop offset="0.891192" stop-color="#DAC493" stop-opacity="0"/>
<stop offset="0.979491" stop-color="#DAC493"/>
</radialGradient>
<linearGradient id="paint64_linear_4002_2103" x1="12.9056" y1="4.72154" x2="13.4504" y2="5.9954" gradientUnits="userSpaceOnUse">
<stop stop-color="#EBCE91"/>
<stop offset="1" stop-color="#E6BD9F"/>
</linearGradient>
</defs>
</svg>
