<svg width="32" height="32" viewBox="0 0 32 32" fill="none" xmlns="http://www.w3.org/2000/svg">
<path d="M8.93746 6.77677V13.2628C8.93746 13.5879 8.63402 13.913 8.33058 13.913H6.61109H6.50995C6.4088 13.913 6.4088 13.913 6.30765 13.913H5.39733C5.09389 13.913 4.8916 13.5879 4.8916 13.2628V5.78606C4.8916 5.46098 5.09389 5.24426 5.39733 5.24426H6.36923C6.67267 5.24426 6.87496 5.46098 6.87496 5.78606V6.18498C6.87496 6.21259 6.89735 6.23498 6.92496 6.23498H8.33058C8.63402 6.23498 8.93746 6.45169 8.93746 6.77677Z" fill="url(#paint0_linear_18_5934)"/>
<path d="M8.93746 6.77677V13.2628C8.93746 13.5879 8.63402 13.913 8.33058 13.913H6.61109H6.50995C6.4088 13.913 6.4088 13.913 6.30765 13.913H5.39733C5.09389 13.913 4.8916 13.5879 4.8916 13.2628V5.78606C4.8916 5.46098 5.09389 5.24426 5.39733 5.24426H6.36923C6.67267 5.24426 6.87496 5.46098 6.87496 5.78606V6.18498C6.87496 6.21259 6.89735 6.23498 6.92496 6.23498H8.33058C8.63402 6.23498 8.93746 6.45169 8.93746 6.77677Z" fill="url(#paint1_linear_18_5934)"/>
<path d="M8.93746 6.77677V13.2628C8.93746 13.5879 8.63402 13.913 8.33058 13.913H6.61109H6.50995C6.4088 13.913 6.4088 13.913 6.30765 13.913H5.39733C5.09389 13.913 4.8916 13.5879 4.8916 13.2628V5.78606C4.8916 5.46098 5.09389 5.24426 5.39733 5.24426H6.36923C6.67267 5.24426 6.87496 5.46098 6.87496 5.78606V6.18498C6.87496 6.21259 6.89735 6.23498 6.92496 6.23498H8.33058C8.63402 6.23498 8.93746 6.45169 8.93746 6.77677Z" fill="url(#paint2_radial_18_5934)"/>
<path d="M8.93746 6.77677V13.2628C8.93746 13.5879 8.63402 13.913 8.33058 13.913H6.61109H6.50995C6.4088 13.913 6.4088 13.913 6.30765 13.913H5.39733C5.09389 13.913 4.8916 13.5879 4.8916 13.2628V5.78606C4.8916 5.46098 5.09389 5.24426 5.39733 5.24426H6.36923C6.67267 5.24426 6.87496 5.46098 6.87496 5.78606V6.18498C6.87496 6.21259 6.89735 6.23498 6.92496 6.23498H8.33058C8.63402 6.23498 8.93746 6.45169 8.93746 6.77677Z" fill="url(#paint3_linear_18_5934)"/>
<path d="M8.93746 6.77677V13.2628C8.93746 13.5879 8.63402 13.913 8.33058 13.913H6.61109H6.50995C6.4088 13.913 6.4088 13.913 6.30765 13.913H5.39733C5.09389 13.913 4.8916 13.5879 4.8916 13.2628V5.78606C4.8916 5.46098 5.09389 5.24426 5.39733 5.24426H6.36923C6.67267 5.24426 6.87496 5.46098 6.87496 5.78606V6.18498C6.87496 6.21259 6.89735 6.23498 6.92496 6.23498H8.33058C8.63402 6.23498 8.93746 6.45169 8.93746 6.77677Z" fill="url(#paint4_radial_18_5934)"/>
<path d="M8.93746 6.77677V13.2628C8.93746 13.5879 8.63402 13.913 8.33058 13.913H6.61109H6.50995C6.4088 13.913 6.4088 13.913 6.30765 13.913H5.39733C5.09389 13.913 4.8916 13.5879 4.8916 13.2628V5.78606C4.8916 5.46098 5.09389 5.24426 5.39733 5.24426H6.36923C6.67267 5.24426 6.87496 5.46098 6.87496 5.78606V6.18498C6.87496 6.21259 6.89735 6.23498 6.92496 6.23498H8.33058C8.63402 6.23498 8.93746 6.45169 8.93746 6.77677Z" fill="url(#paint5_linear_18_5934)"/>
<g filter="url(#filter0_i_18_5934)">
<path fill-rule="evenodd" clip-rule="evenodd" d="M4.8916 9.2934V8.29175L6.08662 8.46578C6.26564 8.49185 6.3984 8.64535 6.3984 8.82625C6.3984 9.01495 6.2543 9.17242 6.06634 9.1891L4.8916 9.2934Z" fill="url(#paint6_linear_18_5934)"/>
</g>
<path d="M27.3611 29.913H4.8916V14.0503L16.1772 5.20654L27.3611 14.394V29.913Z" fill="url(#paint7_linear_18_5934)"/>
<path d="M27.3611 29.913H4.8916V14.0503L16.1772 5.20654L27.3611 14.394V29.913Z" fill="url(#paint8_linear_18_5934)"/>
<path d="M27.3611 29.913H4.8916V14.0503L16.1772 5.20654L27.3611 14.394V29.913Z" fill="url(#paint9_radial_18_5934)"/>
<path d="M27.3611 29.913H4.8916V14.0503L16.1772 5.20654L27.3611 14.394V29.913Z" fill="url(#paint10_linear_18_5934)"/>
<path d="M27.3611 29.913H4.8916V14.0503L16.1772 5.20654L27.3611 14.394V29.913Z" fill="url(#paint11_linear_18_5934)"/>
<g filter="url(#filter1_i_18_5934)">
<path d="M7.95471 21.259C7.95471 19.2841 9.55568 17.6831 11.5306 17.6831V17.6831C13.5055 17.6831 15.1064 19.2841 15.1064 21.259V29.913H7.95471V21.259Z" fill="url(#paint12_linear_18_5934)"/>
</g>
<g filter="url(#filter2_f_18_5934)">
<path d="M8.7821 21.1548V29.4673" stroke="url(#paint13_linear_18_5934)" stroke-width="0.3"/>
</g>
<g filter="url(#filter3_f_18_5934)">
<rect x="8.14148" y="24.2847" width="6.78125" height="0.501053" fill="#1D1238"/>
</g>
<g filter="url(#filter4_f_18_5934)">
<path d="M8.14777 20.9767L14.6684 19.8621L14.7983 20.6224L8.14777 21.7378L8.14777 20.9767Z" fill="#1D1238"/>
</g>
<g filter="url(#filter5_f_18_5934)">
<rect x="8.14148" y="26.8051" width="6.78125" height="0.501053" fill="#1D0F34"/>
</g>
<g filter="url(#filter6_i_18_5934)">
<path d="M21.8212 17.5809C20.3787 17.5809 19.2454 18.7071 19.2454 20.1404V23.7237H20.2757H23.3668H24.3971V20.1404C24.3971 18.7071 23.2637 17.5809 21.8212 17.5809Z" fill="url(#paint14_linear_18_5934)"/>
<path d="M21.8212 17.5809C20.3787 17.5809 19.2454 18.7071 19.2454 20.1404V23.7237H20.2757H23.3668H24.3971V20.1404C24.3971 18.7071 23.2637 17.5809 21.8212 17.5809Z" fill="url(#paint15_linear_18_5934)"/>
</g>
<g filter="url(#filter7_f_18_5934)">
<path d="M19.4384 22.9097V22.5972L24.2196 21.4253V21.8628L19.4384 22.9097Z" fill="#270E31"/>
</g>
<g filter="url(#filter8_i_18_5934)">
<path d="M15.1022 18.1816L6.87706 19.6253C6.63792 19.6673 6.46105 19.8754 6.48257 20.1173C6.52477 20.5916 6.62957 21.0159 6.72083 21.3294C6.79147 21.5721 7.03861 21.7199 7.28762 21.6764L15.4594 20.2507C15.7179 20.2056 15.8982 19.9682 15.8629 19.7082C15.8058 19.2869 15.7347 18.8856 15.6744 18.5722C15.6235 18.3072 15.3679 18.1349 15.1022 18.1816Z" fill="url(#paint16_linear_18_5934)"/>
<path d="M15.1022 18.1816L6.87706 19.6253C6.63792 19.6673 6.46105 19.8754 6.48257 20.1173C6.52477 20.5916 6.62957 21.0159 6.72083 21.3294C6.79147 21.5721 7.03861 21.7199 7.28762 21.6764L15.4594 20.2507C15.7179 20.2056 15.8982 19.9682 15.8629 19.7082C15.8058 19.2869 15.7347 18.8856 15.6744 18.5722C15.6235 18.3072 15.3679 18.1349 15.1022 18.1816Z" fill="url(#paint17_linear_18_5934)"/>
<path d="M15.1022 18.1816L6.87706 19.6253C6.63792 19.6673 6.46105 19.8754 6.48257 20.1173C6.52477 20.5916 6.62957 21.0159 6.72083 21.3294C6.79147 21.5721 7.03861 21.7199 7.28762 21.6764L15.4594 20.2507C15.7179 20.2056 15.8982 19.9682 15.8629 19.7082C15.8058 19.2869 15.7347 18.8856 15.6744 18.5722C15.6235 18.3072 15.3679 18.1349 15.1022 18.1816Z" fill="url(#paint18_linear_18_5934)"/>
</g>
<g filter="url(#filter9_i_18_5934)">
<path d="M6.92904 24.182C6.83963 23.7105 6.87825 23.193 6.9414 22.8166C6.97827 22.5969 7.17442 22.4484 7.39719 22.4469L15.6847 22.3918C15.9412 22.3901 16.1585 22.5829 16.1715 22.8391C16.193 23.2628 16.1851 23.6811 16.1688 24.0036C16.156 24.258 15.9438 24.451 15.6891 24.453L7.37381 24.5194C7.1623 24.521 6.96845 24.3898 6.92904 24.182Z" fill="url(#paint19_linear_18_5934)"/>
<path d="M6.92904 24.182C6.83963 23.7105 6.87825 23.193 6.9414 22.8166C6.97827 22.5969 7.17442 22.4484 7.39719 22.4469L15.6847 22.3918C15.9412 22.3901 16.1585 22.5829 16.1715 22.8391C16.193 23.2628 16.1851 23.6811 16.1688 24.0036C16.156 24.258 15.9438 24.451 15.6891 24.453L7.37381 24.5194C7.1623 24.521 6.96845 24.3898 6.92904 24.182Z" fill="url(#paint20_linear_18_5934)"/>
<path d="M6.92904 24.182C6.83963 23.7105 6.87825 23.193 6.9414 22.8166C6.97827 22.5969 7.17442 22.4484 7.39719 22.4469L15.6847 22.3918C15.9412 22.3901 16.1585 22.5829 16.1715 22.8391C16.193 23.2628 16.1851 23.6811 16.1688 24.0036C16.156 24.258 15.9438 24.451 15.6891 24.453L7.37381 24.5194C7.1623 24.521 6.96845 24.3898 6.92904 24.182Z" fill="url(#paint21_linear_18_5934)"/>
</g>
<g filter="url(#filter10_i_18_5934)">
<rect x="6.94836" y="26.0374" width="9.15172" height="1.01821" rx="0.5" fill="url(#paint22_linear_18_5934)"/>
<rect x="6.94836" y="26.0374" width="9.15172" height="1.01821" rx="0.5" fill="url(#paint23_linear_18_5934)"/>
<rect x="6.94836" y="26.0374" width="9.15172" height="1.01821" rx="0.5" fill="url(#paint24_linear_18_5934)"/>
</g>
<g filter="url(#filter11_i_18_5934)">
<path d="M25.655 19.2169L17.5029 20.9444C17.2636 20.9951 17.0937 21.2119 17.1264 21.4543C17.19 21.9267 17.3138 22.346 17.4189 22.6548C17.4998 22.8924 17.7504 23.029 17.996 22.9772L26.095 21.2702C26.3535 21.2157 26.5256 20.9693 26.4785 20.7093C26.4026 20.2906 26.3136 19.8928 26.2396 19.5828C26.1773 19.3221 25.9172 19.1613 25.655 19.2169Z" fill="url(#paint25_linear_18_5934)"/>
<path d="M25.655 19.2169L17.5029 20.9444C17.2636 20.9951 17.0937 21.2119 17.1264 21.4543C17.19 21.9267 17.3138 22.346 17.4189 22.6548C17.4998 22.8924 17.7504 23.029 17.996 22.9772L26.095 21.2702C26.3535 21.2157 26.5256 20.9693 26.4785 20.7093C26.4026 20.2906 26.3136 19.8928 26.2396 19.5828C26.1773 19.3221 25.9172 19.1613 25.655 19.2169Z" fill="url(#paint26_linear_18_5934)"/>
<path d="M25.655 19.2169L17.5029 20.9444C17.2636 20.9951 17.0937 21.2119 17.1264 21.4543C17.19 21.9267 17.3138 22.346 17.4189 22.6548C17.4998 22.8924 17.7504 23.029 17.996 22.9772L26.095 21.2702C26.3535 21.2157 26.5256 20.9693 26.4785 20.7093C26.4026 20.2906 26.3136 19.8928 26.2396 19.5828C26.1773 19.3221 25.9172 19.1613 25.655 19.2169Z" fill="url(#paint27_linear_18_5934)"/>
</g>
<g filter="url(#filter12_i_18_5934)">
<path fill-rule="evenodd" clip-rule="evenodd" d="M27.3611 25.7595V26.8113L24.7423 26.6492C24.5535 26.6375 24.4062 26.4809 24.4062 26.2917C24.4062 26.1031 24.5525 25.9468 24.7406 25.9342L27.3611 25.7595Z" fill="url(#paint28_linear_18_5934)"/>
</g>
<g filter="url(#filter13_i_18_5934)">
<path d="M22.8759 11.4431L18.2259 11.5212C18.0013 11.5249 17.8213 11.708 17.8213 11.9326C17.8213 12.1583 18.0031 12.3419 18.2288 12.3441L24.0154 12.4007L22.8759 11.4431Z" fill="url(#paint29_linear_18_5934)"/>
<path d="M22.8759 11.4431L18.2259 11.5212C18.0013 11.5249 17.8213 11.708 17.8213 11.9326C17.8213 12.1583 18.0031 12.3419 18.2288 12.3441L24.0154 12.4007L22.8759 11.4431Z" fill="url(#paint30_linear_18_5934)"/>
</g>
<g filter="url(#filter14_i_18_5934)">
<path d="M13.8859 10.2135L10.6575 10.3886L11.3969 9.47949H13.866C14.0689 9.47949 14.2333 9.64393 14.2333 9.84677C14.2333 10.0419 14.0808 10.2029 13.8859 10.2135Z" fill="url(#paint31_linear_18_5934)"/>
</g>
<g filter="url(#filter15_i_18_5934)">
<path fill-rule="evenodd" clip-rule="evenodd" d="M4.8916 17.6372V16.5127L7.61804 16.706C7.79389 16.7185 7.93018 16.8647 7.93018 17.041C7.93018 17.2142 7.79862 17.3589 7.6263 17.3754L4.8916 17.6372Z" fill="url(#paint32_linear_18_5934)"/>
</g>
<g filter="url(#filter16_i_18_5934)">
<path fill-rule="evenodd" clip-rule="evenodd" d="M4.8916 25.8362V24.7856L6.06461 24.9104C6.25695 24.9309 6.40287 25.0932 6.40287 25.2866C6.40287 25.4742 6.26541 25.6334 6.07985 25.6608L4.8916 25.8362Z" fill="url(#paint33_linear_18_5934)"/>
</g>
<g filter="url(#filter17_f_18_5934)">
<path d="M9.15617 11.9267L9.94617 11.2769L9.43054 10.644L7.76648 11.855L8.74965 12.0326C8.89413 12.0587 9.04278 12.02 9.15617 11.9267Z" fill="url(#paint34_linear_18_5934)"/>
</g>
<path d="M6.6765 13.8787C6.69058 13.967 6.65641 14.0561 6.58688 14.1124L3.76992 16.3917C3.34058 16.7391 2.71091 16.6727 2.36351 16.2433C2.01612 15.814 2.08254 15.1843 2.51188 14.8369L15.3594 4.44139C15.5479 4.28884 15.7751 4.21609 16 4.21882C16.225 4.21609 16.4521 4.28884 16.6407 4.44139L20.1323 7.26661C20.2496 7.36154 20.3178 7.50438 20.3178 7.6553V7.86681C20.3178 8.0175 20.3857 8.16014 20.5027 8.25508L21.9462 9.42634C22.0522 9.51228 22.1886 9.55122 22.3239 9.53413L22.6407 9.49411C22.7758 9.47705 22.912 9.51582 23.0179 9.60148L29.4882 14.8369C29.9175 15.1843 29.984 15.814 29.6366 16.2433C29.2892 16.6727 28.6595 16.7391 28.2301 16.3917L16.0944 6.57209C16.0394 6.52757 15.9607 6.52757 15.9057 6.57209L9.81836 11.4976C9.75434 11.5494 9.66892 11.5664 9.58997 11.5429L9.41837 11.492C9.16969 11.4182 8.90066 11.4696 8.69665 11.6298L6.95263 12.9994C6.72426 13.1788 6.61101 13.4678 6.65672 13.7545L6.6765 13.8787Z" fill="url(#paint35_linear_18_5934)"/>
<path d="M6.6765 13.8787C6.69058 13.967 6.65641 14.0561 6.58688 14.1124L3.76992 16.3917C3.34058 16.7391 2.71091 16.6727 2.36351 16.2433C2.01612 15.814 2.08254 15.1843 2.51188 14.8369L15.3594 4.44139C15.5479 4.28884 15.7751 4.21609 16 4.21882C16.225 4.21609 16.4521 4.28884 16.6407 4.44139L20.1323 7.26661C20.2496 7.36154 20.3178 7.50438 20.3178 7.6553V7.86681C20.3178 8.0175 20.3857 8.16014 20.5027 8.25508L21.9462 9.42634C22.0522 9.51228 22.1886 9.55122 22.3239 9.53413L22.6407 9.49411C22.7758 9.47705 22.912 9.51582 23.0179 9.60148L29.4882 14.8369C29.9175 15.1843 29.984 15.814 29.6366 16.2433C29.2892 16.6727 28.6595 16.7391 28.2301 16.3917L16.0944 6.57209C16.0394 6.52757 15.9607 6.52757 15.9057 6.57209L9.81836 11.4976C9.75434 11.5494 9.66892 11.5664 9.58997 11.5429L9.41837 11.492C9.16969 11.4182 8.90066 11.4696 8.69665 11.6298L6.95263 12.9994C6.72426 13.1788 6.61101 13.4678 6.65672 13.7545L6.6765 13.8787Z" fill="url(#paint36_linear_18_5934)"/>
<path d="M6.6765 13.8787C6.69058 13.967 6.65641 14.0561 6.58688 14.1124L3.76992 16.3917C3.34058 16.7391 2.71091 16.6727 2.36351 16.2433C2.01612 15.814 2.08254 15.1843 2.51188 14.8369L15.3594 4.44139C15.5479 4.28884 15.7751 4.21609 16 4.21882C16.225 4.21609 16.4521 4.28884 16.6407 4.44139L20.1323 7.26661C20.2496 7.36154 20.3178 7.50438 20.3178 7.6553V7.86681C20.3178 8.0175 20.3857 8.16014 20.5027 8.25508L21.9462 9.42634C22.0522 9.51228 22.1886 9.55122 22.3239 9.53413L22.6407 9.49411C22.7758 9.47705 22.912 9.51582 23.0179 9.60148L29.4882 14.8369C29.9175 15.1843 29.984 15.814 29.6366 16.2433C29.2892 16.6727 28.6595 16.7391 28.2301 16.3917L16.0944 6.57209C16.0394 6.52757 15.9607 6.52757 15.9057 6.57209L9.81836 11.4976C9.75434 11.5494 9.66892 11.5664 9.58997 11.5429L9.41837 11.492C9.16969 11.4182 8.90066 11.4696 8.69665 11.6298L6.95263 12.9994C6.72426 13.1788 6.61101 13.4678 6.65672 13.7545L6.6765 13.8787Z" fill="url(#paint37_radial_18_5934)"/>
<g filter="url(#filter18_f_18_5934)">
<path d="M29.1399 15.6463L17.1774 6.13513" stroke="url(#paint38_linear_18_5934)" stroke-width="0.5" stroke-linecap="round"/>
</g>
<g filter="url(#filter19_f_18_5934)">
<path d="M6.39844 5.61279V6.59823C6.39844 6.65346 6.44321 6.69823 6.49844 6.69823H8.31406C8.36929 6.69823 8.41406 6.743 8.41406 6.79823V9.47948" stroke="url(#paint39_linear_18_5934)" stroke-width="0.2" stroke-linecap="round"/>
</g>
<defs>
<filter id="filter0_i_18_5934" x="4.8916" y="8.29175" width="1.50684" height="1.05171" filterUnits="userSpaceOnUse" color-interpolation-filters="sRGB">
<feFlood flood-opacity="0" result="BackgroundImageFix"/>
<feBlend mode="normal" in="SourceGraphic" in2="BackgroundImageFix" result="shape"/>
<feColorMatrix in="SourceAlpha" type="matrix" values="0 0 0 0 0 0 0 0 0 0 0 0 0 0 0 0 0 0 127 0" result="hardAlpha"/>
<feOffset dy="0.05"/>
<feGaussianBlur stdDeviation="0.05"/>
<feComposite in2="hardAlpha" operator="arithmetic" k2="-1" k3="1"/>
<feColorMatrix type="matrix" values="0 0 0 0 0.733333 0 0 0 0 0.403922 0 0 0 0 0.231373 0 0 0 1 0"/>
<feBlend mode="normal" in2="shape" result="effect1_innerShadow_18_5934"/>
</filter>
<filter id="filter1_i_18_5934" x="7.95471" y="17.6831" width="7.25173" height="12.4299" filterUnits="userSpaceOnUse" color-interpolation-filters="sRGB">
<feFlood flood-opacity="0" result="BackgroundImageFix"/>
<feBlend mode="normal" in="SourceGraphic" in2="BackgroundImageFix" result="shape"/>
<feColorMatrix in="SourceAlpha" type="matrix" values="0 0 0 0 0 0 0 0 0 0 0 0 0 0 0 0 0 0 127 0" result="hardAlpha"/>
<feOffset dx="0.1" dy="0.2"/>
<feGaussianBlur stdDeviation="0.2"/>
<feComposite in2="hardAlpha" operator="arithmetic" k2="-1" k3="1"/>
<feColorMatrix type="matrix" values="0 0 0 0 0.0823529 0 0 0 0 0.0352941 0 0 0 0 0.2 0 0 0 1 0"/>
<feBlend mode="normal" in2="shape" result="effect1_innerShadow_18_5934"/>
</filter>
<filter id="filter2_f_18_5934" x="8.33208" y="20.8548" width="0.900049" height="8.9125" filterUnits="userSpaceOnUse" color-interpolation-filters="sRGB">
<feFlood flood-opacity="0" result="BackgroundImageFix"/>
<feBlend mode="normal" in="SourceGraphic" in2="BackgroundImageFix" result="shape"/>
<feGaussianBlur stdDeviation="0.15" result="effect1_foregroundBlur_18_5934"/>
</filter>
<filter id="filter3_f_18_5934" x="7.64148" y="23.7847" width="7.78125" height="1.5011" filterUnits="userSpaceOnUse" color-interpolation-filters="sRGB">
<feFlood flood-opacity="0" result="BackgroundImageFix"/>
<feBlend mode="normal" in="SourceGraphic" in2="BackgroundImageFix" result="shape"/>
<feGaussianBlur stdDeviation="0.25" result="effect1_foregroundBlur_18_5934"/>
</filter>
<filter id="filter4_f_18_5934" x="7.64771" y="19.3621" width="7.65063" height="2.87573" filterUnits="userSpaceOnUse" color-interpolation-filters="sRGB">
<feFlood flood-opacity="0" result="BackgroundImageFix"/>
<feBlend mode="normal" in="SourceGraphic" in2="BackgroundImageFix" result="shape"/>
<feGaussianBlur stdDeviation="0.25" result="effect1_foregroundBlur_18_5934"/>
</filter>
<filter id="filter5_f_18_5934" x="7.64148" y="26.3051" width="7.78125" height="1.5011" filterUnits="userSpaceOnUse" color-interpolation-filters="sRGB">
<feFlood flood-opacity="0" result="BackgroundImageFix"/>
<feBlend mode="normal" in="SourceGraphic" in2="BackgroundImageFix" result="shape"/>
<feGaussianBlur stdDeviation="0.25" result="effect1_foregroundBlur_18_5934"/>
</filter>
<filter id="filter6_i_18_5934" x="18.9954" y="17.5809" width="5.40173" height="6.39282" filterUnits="userSpaceOnUse" color-interpolation-filters="sRGB">
<feFlood flood-opacity="0" result="BackgroundImageFix"/>
<feBlend mode="normal" in="SourceGraphic" in2="BackgroundImageFix" result="shape"/>
<feColorMatrix in="SourceAlpha" type="matrix" values="0 0 0 0 0 0 0 0 0 0 0 0 0 0 0 0 0 0 127 0" result="hardAlpha"/>
<feOffset dx="-0.25" dy="0.25"/>
<feGaussianBlur stdDeviation="0.25"/>
<feComposite in2="hardAlpha" operator="arithmetic" k2="-1" k3="1"/>
<feColorMatrix type="matrix" values="0 0 0 0 0.133333 0 0 0 0 0.0235294 0 0 0 0 0.164706 0 0 0 1 0"/>
<feBlend mode="normal" in2="shape" result="effect1_innerShadow_18_5934"/>
</filter>
<filter id="filter7_f_18_5934" x="18.9384" y="20.9253" width="5.78125" height="2.48438" filterUnits="userSpaceOnUse" color-interpolation-filters="sRGB">
<feFlood flood-opacity="0" result="BackgroundImageFix"/>
<feBlend mode="normal" in="SourceGraphic" in2="BackgroundImageFix" result="shape"/>
<feGaussianBlur stdDeviation="0.25" result="effect1_foregroundBlur_18_5934"/>
</filter>
<filter id="filter8_i_18_5934" x="6.48083" y="18.174" width="9.48647" height="3.56001" filterUnits="userSpaceOnUse" color-interpolation-filters="sRGB">
<feFlood flood-opacity="0" result="BackgroundImageFix"/>
<feBlend mode="normal" in="SourceGraphic" in2="BackgroundImageFix" result="shape"/>
<feColorMatrix in="SourceAlpha" type="matrix" values="0 0 0 0 0 0 0 0 0 0 0 0 0 0 0 0 0 0 127 0" result="hardAlpha"/>
<feOffset dx="0.1" dy="0.05"/>
<feGaussianBlur stdDeviation="0.15"/>
<feComposite in2="hardAlpha" operator="arithmetic" k2="-1" k3="1"/>
<feColorMatrix type="matrix" values="0 0 0 0 0.32549 0 0 0 0 0.211765 0 0 0 0 0.2 0 0 0 1 0"/>
<feBlend mode="normal" in2="shape" result="effect1_innerShadow_18_5934"/>
</filter>
<filter id="filter9_i_18_5934" x="6.87646" y="22.3918" width="9.40811" height="2.17756" filterUnits="userSpaceOnUse" color-interpolation-filters="sRGB">
<feFlood flood-opacity="0" result="BackgroundImageFix"/>
<feBlend mode="normal" in="SourceGraphic" in2="BackgroundImageFix" result="shape"/>
<feColorMatrix in="SourceAlpha" type="matrix" values="0 0 0 0 0 0 0 0 0 0 0 0 0 0 0 0 0 0 127 0" result="hardAlpha"/>
<feOffset dx="0.1" dy="0.05"/>
<feGaussianBlur stdDeviation="0.15"/>
<feComposite in2="hardAlpha" operator="arithmetic" k2="-1" k3="1"/>
<feColorMatrix type="matrix" values="0 0 0 0 0.32549 0 0 0 0 0.211765 0 0 0 0 0.2 0 0 0 1 0"/>
<feBlend mode="normal" in2="shape" result="effect1_innerShadow_18_5934"/>
</filter>
<filter id="filter10_i_18_5934" x="6.94836" y="26.0374" width="9.25173" height="1.06819" filterUnits="userSpaceOnUse" color-interpolation-filters="sRGB">
<feFlood flood-opacity="0" result="BackgroundImageFix"/>
<feBlend mode="normal" in="SourceGraphic" in2="BackgroundImageFix" result="shape"/>
<feColorMatrix in="SourceAlpha" type="matrix" values="0 0 0 0 0 0 0 0 0 0 0 0 0 0 0 0 0 0 127 0" result="hardAlpha"/>
<feOffset dx="0.1" dy="0.05"/>
<feGaussianBlur stdDeviation="0.15"/>
<feComposite in2="hardAlpha" operator="arithmetic" k2="-1" k3="1"/>
<feColorMatrix type="matrix" values="0 0 0 0 0.32549 0 0 0 0 0.211765 0 0 0 0 0.2 0 0 0 1 0"/>
<feBlend mode="normal" in2="shape" result="effect1_innerShadow_18_5934"/>
</filter>
<filter id="filter11_i_18_5934" x="17.1223" y="19.2059" width="9.46389" height="3.83223" filterUnits="userSpaceOnUse" color-interpolation-filters="sRGB">
<feFlood flood-opacity="0" result="BackgroundImageFix"/>
<feBlend mode="normal" in="SourceGraphic" in2="BackgroundImageFix" result="shape"/>
<feColorMatrix in="SourceAlpha" type="matrix" values="0 0 0 0 0 0 0 0 0 0 0 0 0 0 0 0 0 0 127 0" result="hardAlpha"/>
<feOffset dx="0.1" dy="0.05"/>
<feGaussianBlur stdDeviation="0.15"/>
<feComposite in2="hardAlpha" operator="arithmetic" k2="-1" k3="1"/>
<feColorMatrix type="matrix" values="0 0 0 0 0.411765 0 0 0 0 0.243137 0 0 0 0 0.223529 0 0 0 1 0"/>
<feBlend mode="normal" in2="shape" result="effect1_innerShadow_18_5934"/>
</filter>
<filter id="filter12_i_18_5934" x="24.4062" y="25.7595" width="2.95483" height="1.10176" filterUnits="userSpaceOnUse" color-interpolation-filters="sRGB">
<feFlood flood-opacity="0" result="BackgroundImageFix"/>
<feBlend mode="normal" in="SourceGraphic" in2="BackgroundImageFix" result="shape"/>
<feColorMatrix in="SourceAlpha" type="matrix" values="0 0 0 0 0 0 0 0 0 0 0 0 0 0 0 0 0 0 127 0" result="hardAlpha"/>
<feOffset dy="0.05"/>
<feGaussianBlur stdDeviation="0.05"/>
<feComposite in2="hardAlpha" operator="arithmetic" k2="-1" k3="1"/>
<feColorMatrix type="matrix" values="0 0 0 0 0.733333 0 0 0 0 0.403922 0 0 0 0 0.231373 0 0 0 1 0"/>
<feBlend mode="normal" in2="shape" result="effect1_innerShadow_18_5934"/>
</filter>
<filter id="filter13_i_18_5934" x="17.8213" y="11.4431" width="6.19409" height="1.00764" filterUnits="userSpaceOnUse" color-interpolation-filters="sRGB">
<feFlood flood-opacity="0" result="BackgroundImageFix"/>
<feBlend mode="normal" in="SourceGraphic" in2="BackgroundImageFix" result="shape"/>
<feColorMatrix in="SourceAlpha" type="matrix" values="0 0 0 0 0 0 0 0 0 0 0 0 0 0 0 0 0 0 127 0" result="hardAlpha"/>
<feOffset dy="0.05"/>
<feGaussianBlur stdDeviation="0.05"/>
<feComposite in2="hardAlpha" operator="arithmetic" k2="-1" k3="1"/>
<feColorMatrix type="matrix" values="0 0 0 0 0.733333 0 0 0 0 0.403922 0 0 0 0 0.231373 0 0 0 1 0"/>
<feBlend mode="normal" in2="shape" result="effect1_innerShadow_18_5934"/>
</filter>
<filter id="filter14_i_18_5934" x="10.6575" y="9.47949" width="3.57581" height="0.959058" filterUnits="userSpaceOnUse" color-interpolation-filters="sRGB">
<feFlood flood-opacity="0" result="BackgroundImageFix"/>
<feBlend mode="normal" in="SourceGraphic" in2="BackgroundImageFix" result="shape"/>
<feColorMatrix in="SourceAlpha" type="matrix" values="0 0 0 0 0 0 0 0 0 0 0 0 0 0 0 0 0 0 127 0" result="hardAlpha"/>
<feOffset dy="0.05"/>
<feGaussianBlur stdDeviation="0.05"/>
<feComposite in2="hardAlpha" operator="arithmetic" k2="-1" k3="1"/>
<feColorMatrix type="matrix" values="0 0 0 0 0.733333 0 0 0 0 0.403922 0 0 0 0 0.231373 0 0 0 1 0"/>
<feBlend mode="normal" in2="shape" result="effect1_innerShadow_18_5934"/>
</filter>
<filter id="filter15_i_18_5934" x="4.8916" y="16.5127" width="3.03857" height="1.17451" filterUnits="userSpaceOnUse" color-interpolation-filters="sRGB">
<feFlood flood-opacity="0" result="BackgroundImageFix"/>
<feBlend mode="normal" in="SourceGraphic" in2="BackgroundImageFix" result="shape"/>
<feColorMatrix in="SourceAlpha" type="matrix" values="0 0 0 0 0 0 0 0 0 0 0 0 0 0 0 0 0 0 127 0" result="hardAlpha"/>
<feOffset dy="0.05"/>
<feGaussianBlur stdDeviation="0.05"/>
<feComposite in2="hardAlpha" operator="arithmetic" k2="-1" k3="1"/>
<feColorMatrix type="matrix" values="0 0 0 0 0.733333 0 0 0 0 0.403922 0 0 0 0 0.231373 0 0 0 1 0"/>
<feBlend mode="normal" in2="shape" result="effect1_innerShadow_18_5934"/>
</filter>
<filter id="filter16_i_18_5934" x="4.8916" y="24.7856" width="1.51123" height="1.10054" filterUnits="userSpaceOnUse" color-interpolation-filters="sRGB">
<feFlood flood-opacity="0" result="BackgroundImageFix"/>
<feBlend mode="normal" in="SourceGraphic" in2="BackgroundImageFix" result="shape"/>
<feColorMatrix in="SourceAlpha" type="matrix" values="0 0 0 0 0 0 0 0 0 0 0 0 0 0 0 0 0 0 127 0" result="hardAlpha"/>
<feOffset dy="0.05"/>
<feGaussianBlur stdDeviation="0.05"/>
<feComposite in2="hardAlpha" operator="arithmetic" k2="-1" k3="1"/>
<feColorMatrix type="matrix" values="0 0 0 0 0.72549 0 0 0 0 0.45098 0 0 0 0 0.301961 0 0 0 1 0"/>
<feBlend mode="normal" in2="shape" result="effect1_innerShadow_18_5934"/>
</filter>
<filter id="filter17_f_18_5934" x="7.46648" y="10.344" width="2.77969" height="1.99648" filterUnits="userSpaceOnUse" color-interpolation-filters="sRGB">
<feFlood flood-opacity="0" result="BackgroundImageFix"/>
<feBlend mode="normal" in="SourceGraphic" in2="BackgroundImageFix" result="shape"/>
<feGaussianBlur stdDeviation="0.15" result="effect1_foregroundBlur_18_5934"/>
</filter>
<filter id="filter18_f_18_5934" x="16.4274" y="5.38513" width="13.4625" height="11.0112" filterUnits="userSpaceOnUse" color-interpolation-filters="sRGB">
<feFlood flood-opacity="0" result="BackgroundImageFix"/>
<feBlend mode="normal" in="SourceGraphic" in2="BackgroundImageFix" result="shape"/>
<feGaussianBlur stdDeviation="0.25" result="effect1_foregroundBlur_18_5934"/>
</filter>
<filter id="filter19_f_18_5934" x="5.79846" y="5.01282" width="3.21558" height="5.06665" filterUnits="userSpaceOnUse" color-interpolation-filters="sRGB">
<feFlood flood-opacity="0" result="BackgroundImageFix"/>
<feBlend mode="normal" in="SourceGraphic" in2="BackgroundImageFix" result="shape"/>
<feGaussianBlur stdDeviation="0.25" result="effect1_foregroundBlur_18_5934"/>
</filter>
<linearGradient id="paint0_linear_18_5934" x1="4.85883" y1="9.56031" x2="8.88972" y2="9.56031" gradientUnits="userSpaceOnUse">
<stop stop-color="#D89763"/>
<stop offset="1" stop-color="#CB8C5C"/>
</linearGradient>
<linearGradient id="paint1_linear_18_5934" x1="4.78206" y1="10.3315" x2="5.64143" y2="10.3315" gradientUnits="userSpaceOnUse">
<stop stop-color="#8E6543"/>
<stop offset="1" stop-color="#8E6543" stop-opacity="0"/>
</linearGradient>
<radialGradient id="paint2_radial_18_5934" cx="0" cy="0" r="1" gradientUnits="userSpaceOnUse" gradientTransform="translate(7.61018 11.9878) rotate(-90) scale(4.71875 1.53259)">
<stop stop-color="#AE6D45"/>
<stop offset="1" stop-color="#AE6D45" stop-opacity="0"/>
</radialGradient>
<linearGradient id="paint3_linear_18_5934" x1="7.29768" y1="11.4565" x2="6.51643" y2="10.2065" gradientUnits="userSpaceOnUse">
<stop stop-color="#AE6D45"/>
<stop offset="1" stop-color="#AE6D45" stop-opacity="0"/>
</linearGradient>
<radialGradient id="paint4_radial_18_5934" cx="0" cy="0" r="1" gradientUnits="userSpaceOnUse" gradientTransform="translate(7.01643 5.24426) rotate(103.367) scale(1.48692 1.55915)">
<stop stop-color="#F9BB7C"/>
<stop offset="1" stop-color="#F9BB7C" stop-opacity="0"/>
</radialGradient>
<linearGradient id="paint5_linear_18_5934" x1="9.30116" y1="8.47311" x2="8.34193" y2="8.47311" gradientUnits="userSpaceOnUse">
<stop stop-color="#DFA372"/>
<stop offset="1" stop-color="#DFA372" stop-opacity="0"/>
</linearGradient>
<linearGradient id="paint6_linear_18_5934" x1="5.92268" y1="8.79257" x2="4.75081" y2="8.79257" gradientUnits="userSpaceOnUse">
<stop stop-color="#C87D41"/>
<stop offset="1" stop-color="#8D5B33"/>
</linearGradient>
<linearGradient id="paint7_linear_18_5934" x1="4.8916" y1="21.3532" x2="27.3611" y2="21.3532" gradientUnits="userSpaceOnUse">
<stop stop-color="#DB986A"/>
<stop offset="1" stop-color="#E8BC97"/>
<stop offset="1" stop-color="#EDBB99"/>
</linearGradient>
<linearGradient id="paint8_linear_18_5934" x1="27.5625" y1="24.7225" x2="26.375" y2="24.7225" gradientUnits="userSpaceOnUse">
<stop stop-color="#FFE6B1"/>
<stop offset="1" stop-color="#FFE6B1" stop-opacity="0"/>
</linearGradient>
<radialGradient id="paint9_radial_18_5934" cx="0" cy="0" r="1" gradientUnits="userSpaceOnUse" gradientTransform="translate(27.6266 15.0815) rotate(90) scale(3.09375 1.03285)">
<stop offset="0.323232" stop-color="#A84540"/>
<stop offset="1" stop-color="#A84540" stop-opacity="0"/>
</radialGradient>
<linearGradient id="paint10_linear_18_5934" x1="4.753" y1="27.0799" x2="6.1596" y2="27.0799" gradientUnits="userSpaceOnUse">
<stop stop-color="#926B50"/>
<stop offset="1" stop-color="#926B50" stop-opacity="0"/>
</linearGradient>
<linearGradient id="paint11_linear_18_5934" x1="20.2968" y1="9.22217" x2="19.6718" y2="9.98779" gradientUnits="userSpaceOnUse">
<stop offset="0.292927" stop-color="#BA5249"/>
<stop offset="1" stop-color="#BA5249" stop-opacity="0"/>
</linearGradient>
<linearGradient id="paint12_linear_18_5934" x1="7.95471" y1="23.8086" x2="15.8289" y2="23.8086" gradientUnits="userSpaceOnUse">
<stop stop-color="#302B5B"/>
<stop offset="0.492014" stop-color="#372856"/>
<stop offset="1" stop-color="#1C1C1C"/>
<stop offset="1" stop-color="#31254B"/>
</linearGradient>
<linearGradient id="paint13_linear_18_5934" x1="9.2821" y1="21.6235" x2="9.2821" y2="29.4673" gradientUnits="userSpaceOnUse">
<stop stop-color="#363461" stop-opacity="0"/>
<stop offset="1" stop-color="#363461"/>
</linearGradient>
<linearGradient id="paint14_linear_18_5934" x1="19.2454" y1="20.6577" x2="26.7045" y2="20.6577" gradientUnits="userSpaceOnUse">
<stop stop-color="#3B2249"/>
<stop offset="1" stop-color="#1C1C1C"/>
<stop offset="1" stop-color="#391C42"/>
</linearGradient>
<linearGradient id="paint15_linear_18_5934" x1="19.2454" y1="22.1477" x2="20.305" y2="22.1477" gradientUnits="userSpaceOnUse">
<stop stop-color="#3E294D"/>
<stop offset="1" stop-color="#3E294D" stop-opacity="0"/>
</linearGradient>
<linearGradient id="paint16_linear_18_5934" x1="7.71663" y1="20.8447" x2="12.8602" y2="20.8505" gradientUnits="userSpaceOnUse">
<stop stop-color="#765150"/>
<stop offset="1" stop-color="#865955"/>
</linearGradient>
<linearGradient id="paint17_linear_18_5934" x1="11.6137" y1="20.9975" x2="11.5614" y2="20.7073" gradientUnits="userSpaceOnUse">
<stop stop-color="#6C3A44"/>
<stop offset="1" stop-color="#6C3A44" stop-opacity="0"/>
</linearGradient>
<linearGradient id="paint18_linear_18_5934" x1="15.812" y1="19.0731" x2="15.4489" y2="19.1339" gradientUnits="userSpaceOnUse">
<stop stop-color="#97695F"/>
<stop offset="1" stop-color="#AE796A" stop-opacity="0"/>
<stop offset="1" stop-color="#97695F" stop-opacity="0"/>
</linearGradient>
<linearGradient id="paint19_linear_18_5934" x1="8.11015" y1="23.9922" x2="13.1739" y2="24.0019" gradientUnits="userSpaceOnUse">
<stop stop-color="#76504F"/>
<stop offset="1" stop-color="#875956"/>
</linearGradient>
<linearGradient id="paint20_linear_18_5934" x1="11.9305" y1="24.5659" x2="11.9305" y2="24.2455" gradientUnits="userSpaceOnUse">
<stop stop-color="#6C3A44"/>
<stop offset="1" stop-color="#6C3A44" stop-opacity="0"/>
</linearGradient>
<linearGradient id="paint21_linear_18_5934" x1="16.3445" y1="23.019" x2="15.8133" y2="23.019" gradientUnits="userSpaceOnUse">
<stop stop-color="#97695F"/>
<stop offset="1" stop-color="#AE796A" stop-opacity="0"/>
<stop offset="1" stop-color="#97695F" stop-opacity="0"/>
</linearGradient>
<linearGradient id="paint22_linear_18_5934" x1="8.16132" y1="26.8026" x2="13.14" y2="26.8222" gradientUnits="userSpaceOnUse">
<stop stop-color="#76504F"/>
<stop offset="1" stop-color="#875956"/>
</linearGradient>
<linearGradient id="paint23_linear_18_5934" x1="11.9174" y1="27.0764" x2="11.9174" y2="26.9235" gradientUnits="userSpaceOnUse">
<stop stop-color="#6C3A44"/>
<stop offset="1" stop-color="#6C3A44" stop-opacity="0"/>
</linearGradient>
<linearGradient id="paint24_linear_18_5934" x1="16.2573" y1="26.3381" x2="15.735" y2="26.3381" gradientUnits="userSpaceOnUse">
<stop stop-color="#97695F"/>
<stop offset="1" stop-color="#AE796A" stop-opacity="0"/>
<stop offset="1" stop-color="#97695F" stop-opacity="0"/>
</linearGradient>
<linearGradient id="paint25_linear_18_5934" x1="18.3914" y1="22.144" x2="25.2664" y2="21.6753" gradientUnits="userSpaceOnUse">
<stop stop-color="#8C5E55"/>
<stop offset="1" stop-color="#95605C"/>
</linearGradient>
<linearGradient id="paint26_linear_18_5934" x1="22.2898" y1="22.1206" x2="22.2273" y2="21.8394" gradientUnits="userSpaceOnUse">
<stop stop-color="#82474F"/>
<stop offset="1" stop-color="#82474F" stop-opacity="0"/>
</linearGradient>
<linearGradient id="paint27_linear_18_5934" x1="26.3992" y1="20.0581" x2="26.0398" y2="20.1362" gradientUnits="userSpaceOnUse">
<stop stop-color="#AE796A"/>
<stop offset="1" stop-color="#AE796A" stop-opacity="0"/>
</linearGradient>
<linearGradient id="paint28_linear_18_5934" x1="27.843" y1="26.2854" x2="25.0643" y2="26.2854" gradientUnits="userSpaceOnUse">
<stop stop-color="#DF9051"/>
<stop offset="0.352742" stop-color="#DF9051"/>
<stop offset="0.521199" stop-color="#DD8045"/>
<stop offset="1" stop-color="#DD8045"/>
<stop offset="1" stop-color="#D08049"/>
</linearGradient>
<linearGradient id="paint29_linear_18_5934" x1="23.3335" y1="11.9219" x2="17.8213" y2="11.9219" gradientUnits="userSpaceOnUse">
<stop stop-color="#B5653B"/>
<stop offset="1" stop-color="#DE8C4C"/>
</linearGradient>
<linearGradient id="paint30_linear_18_5934" x1="22.629" y1="11.6454" x2="22.2194" y2="12.1533" gradientUnits="userSpaceOnUse">
<stop stop-color="#A64F31"/>
<stop offset="1" stop-color="#A64F31" stop-opacity="0"/>
</linearGradient>
<linearGradient id="paint31_linear_18_5934" x1="14.8165" y1="9.93405" x2="11.4538" y2="9.93405" gradientUnits="userSpaceOnUse">
<stop stop-color="#CD7D44"/>
<stop offset="1" stop-color="#DD8045"/>
</linearGradient>
<linearGradient id="paint32_linear_18_5934" x1="6.56247" y1="17.075" x2="4.8916" y2="17.075" gradientUnits="userSpaceOnUse">
<stop stop-color="#CE8044"/>
<stop offset="1" stop-color="#9B542B"/>
</linearGradient>
<linearGradient id="paint33_linear_18_5934" x1="6.31985" y1="25.3109" x2="4.8916" y2="25.3109" gradientUnits="userSpaceOnUse">
<stop stop-color="#DD8045"/>
<stop offset="1" stop-color="#925B35"/>
</linearGradient>
<linearGradient id="paint34_linear_18_5934" x1="9.47742" y1="11.3784" x2="9.28992" y2="11.9722" gradientUnits="userSpaceOnUse">
<stop offset="0.328086" stop-color="#AB4D46"/>
<stop offset="1" stop-color="#AB4D46" stop-opacity="0"/>
</linearGradient>
<linearGradient id="paint35_linear_18_5934" x1="16" y1="4.21875" x2="16" y2="16.6143" gradientUnits="userSpaceOnUse">
<stop stop-color="#E2692E"/>
<stop offset="1" stop-color="#D5322F"/>
</linearGradient>
<linearGradient id="paint36_linear_18_5934" x1="10.6324" y1="8.18203" x2="10.9756" y2="8.59876" gradientUnits="userSpaceOnUse">
<stop stop-color="#BA533C"/>
<stop offset="1" stop-color="#BA533C" stop-opacity="0"/>
</linearGradient>
<radialGradient id="paint37_radial_18_5934" cx="0" cy="0" r="1" gradientUnits="userSpaceOnUse" gradientTransform="translate(16.9323 4.21875) rotate(39.033) scale(4.63895 2.71441)">
<stop stop-color="#FF8739"/>
<stop offset="1" stop-color="#FF8739" stop-opacity="0"/>
</radialGradient>
<linearGradient id="paint38_linear_18_5934" x1="28.0123" y1="15.4012" x2="16.1968" y2="6.13513" gradientUnits="userSpaceOnUse">
<stop stop-color="#F35B47"/>
<stop offset="1" stop-color="#F35B47" stop-opacity="0"/>
</linearGradient>
<linearGradient id="paint39_linear_18_5934" x1="7.86023" y1="10.5503" x2="4.50251" y2="7.89414" gradientUnits="userSpaceOnUse">
<stop stop-color="#FFBE7F" stop-opacity="0"/>
<stop offset="1" stop-color="#FFBE7F"/>
</linearGradient>
</defs>
</svg>
