<svg width="32" height="32" viewBox="0 0 32 32" fill="none" xmlns="http://www.w3.org/2000/svg">
<path d="M8 5C8 3.34315 9.34315 2 11 2H21C22.6569 2 24 3.34315 24 5V6C24 7.86384 22.7252 9.42994 21 9.87398V13C21.7933 13 22.5016 13.3441 23.073 13.7774C23.6499 14.2149 24.1576 14.795 24.5747 15.4032C25.3837 16.583 26 18.0937 26 19.25C26 20.5443 25.1058 21.6298 23.9015 21.9224L25.2091 28.3796C25.501 29.8606 24.1605 30.8443 23.4038 28.3796L21.2802 22H20.9684L20.8788 25.9824C20.8349 27.515 19.5854 27.3156 19.5276 25.9824L19.1307 22H12.8702L12.4732 25.9824C12.4155 27.3156 11.1659 27.515 11.1221 25.9824L11.0325 22H10.7198L8.59622 28.3796C7.8395 30.8443 6.499 29.8606 6.79089 28.3796L8.09853 21.9224C6.8942 21.6298 6 20.5443 6 19.25C6 18.0937 6.61628 16.583 7.42527 15.4032C7.84236 14.795 8.35014 14.2149 8.92701 13.7774C9.49839 13.3441 10.2067 13 11 13V9.87398C9.27477 9.42994 8 7.86384 8 6V5ZM11 15C10.7933 15 10.5016 15.0934 10.1355 15.371C9.77486 15.6445 9.40764 16.0488 9.07473 16.5343C8.38372 17.542 8 18.6563 8 19.25C8 19.6642 8.33579 20 8.75 20H23.25C23.6642 20 24 19.6642 24 19.25C24 18.6563 23.6163 17.542 22.9253 16.5343C22.5924 16.0488 22.2251 15.6445 21.8645 15.371C21.4984 15.0934 21.2067 15 21 15H11ZM19 13V10H13V13H19ZM22 6V5C22 4.44772 21.5523 4 21 4H11C10.4477 4 10 4.44772 10 5V6C10 7.10457 10.8954 8 12 8H20C21.1046 8 22 7.10457 22 6Z" fill="#212121"/>
</svg>
