<svg width="32" height="32" viewBox="0 0 32 32" fill="none" xmlns="http://www.w3.org/2000/svg">
<path d="M12.9286 1.58V3H12.9962L13.0139 3.00031C14.1127 3.0197 15.2023 3.37604 16.0887 4.00244C16.98 3.37084 18.0793 3.01319 19.1952 3.00014L19.2069 3H19.2386V1.58C19.2386 1.26 19.4986 1 19.8186 1H20.4586C20.7786 1 21.0386 1.26 21.0386 1.58V3.00006C23.0066 3.01266 24.4901 4.87892 23.9971 6.82188L23.9945 6.83245L22.8184 11.2642V11.5216L29.7564 25.0133L29.7652 25.0313C30.9852 27.5259 29.4905 30.7886 26.476 31.0686C26.281 31.0919 26.1121 31.0904 26.0748 31.09L26.0686 31.09C25.1389 31.09 24.2785 30.7983 23.5736 30.3012C22.8687 30.7983 22.0083 31.09 21.0786 31.09C20.1433 31.09 19.278 30.7947 18.5708 30.2921C17.8695 30.7885 17.0196 31.0831 16.1136 31.0899L16.0899 31.0901L16.0661 31.0897C15.1654 31.0751 14.3247 30.7842 13.6312 30.2959C12.9249 30.7962 12.0616 31.09 11.1286 31.09C10.1989 31.09 9.33848 30.7983 8.63361 30.3012C7.92875 30.7983 7.06829 31.09 6.13861 31.09L6.13238 31.0901C6.09512 31.0904 5.92656 31.0919 5.73194 31.0687C2.71324 30.7898 1.20904 27.532 2.43196 25.0314L2.44098 25.0129L9.37923 11.5341V11.2663L8.1932 6.83448L8.19 6.82188C7.70194 4.89834 9.14758 3.02513 11.1286 3.00025V1.58C11.1286 1.26 11.3886 1 11.7086 1H12.3486C12.6686 1 12.9286 1.26 12.9286 1.58ZM17.4686 5.48343C16.6573 5.97025 16.1195 6.78062 16.0886 7.71C16.0637 6.78335 15.5244 5.97273 14.7112 5.48501C14.2169 5.18851 13.6213 5.01134 12.9786 5H11.1686C10.4686 5 9.95857 5.66 10.1286 6.33L11.3786 11.0011V11H20.8186V11.0024L22.0586 6.33C22.2286 5.66 21.7086 5 21.0186 5H19.2186C18.5681 5.00761 17.9668 5.18453 17.4686 5.48343ZM20.8184 12H11.3792V12.0187L4.22861 25.91C3.55861 27.28 4.42861 28.96 5.94861 29.08C6.00861 29.09 6.07861 29.09 6.13861 29.09C6.56113 29.09 6.95682 28.9785 7.29794 28.7831C7.99831 28.3819 8.46861 27.6275 8.46861 26.76H8.79861C8.79861 27.6275 9.26892 28.3819 9.96929 28.7831C10.3104 28.9785 10.7061 29.09 11.1286 29.09C11.5526 29.09 11.9495 28.9777 12.2914 28.7811C12.9899 28.3794 13.4586 27.6261 13.4586 26.76H13.7886C13.7886 27.6204 14.2631 28.3725 14.9629 28.7762C15.2988 28.9699 15.6865 29.0833 16.0986 29.09C16.5104 29.0869 16.9019 28.9709 17.242 28.7717C17.9378 28.3643 18.4186 27.6087 18.4186 26.76H18.7486C18.7486 27.6239 19.215 28.3756 19.9105 28.778C20.2536 28.9765 20.6525 29.09 21.0786 29.09C21.5011 29.09 21.8968 28.9784 22.2379 28.7831C22.9383 28.3819 23.4086 27.6275 23.4086 26.76H23.7386C23.7386 27.6275 24.2089 28.3819 24.9093 28.7831C25.2504 28.9784 25.6461 29.09 26.0686 29.09C26.1286 29.09 26.1986 29.09 26.2586 29.08C27.7686 28.96 28.6386 27.28 27.9686 25.91L20.8184 12.0057V12Z" fill="#212121"/>
</svg>
