<svg width="32" height="32" viewBox="0 0 32 32" fill="none" xmlns="http://www.w3.org/2000/svg">
<g filter="url(#filter0_i_4002_612)">
<path d="M6.3855 12.8406C7.81576 14.0835 9.70222 13.7982 10.4667 13.5311V9.88146H16.1754C16.583 8.83468 16.2984 7.94612 15.989 7.46142C15.953 7.40488 15.9439 7.33485 15.966 7.27152C16.0308 7.08615 16.1179 6.78632 16.1291 6.54933C16.1538 6.02839 15.9935 5.99141 15.9781 5.27628C15.9627 4.56115 15.736 4.29701 15.3616 3.68573C15.0595 3.19254 14.2799 2.87222 13.805 2.68393C13.284 2.47741 13.0991 2.08594 12.3131 2.08594C11.706 2.08594 11.3058 2.3941 11.0303 2.66111C10.9271 2.76116 10.7942 2.8243 10.6517 2.84329C9.68633 2.97195 8.86318 3.42282 8.40759 4.26523C8.14073 4.75866 8.11685 5.53408 8.11999 6.06574C8.12115 6.26204 7.97923 6.42767 7.78775 6.47089C6.58171 6.74309 5.69714 7.44109 5.2789 8.23235C4.8227 9.09544 4.59768 11.2871 6.3855 12.8406Z" fill="url(#paint0_radial_4002_612)"/>
<path d="M6.3855 12.8406C7.81576 14.0835 9.70222 13.7982 10.4667 13.5311V9.88146H16.1754C16.583 8.83468 16.2984 7.94612 15.989 7.46142C15.953 7.40488 15.9439 7.33485 15.966 7.27152C16.0308 7.08615 16.1179 6.78632 16.1291 6.54933C16.1538 6.02839 15.9935 5.99141 15.9781 5.27628C15.9627 4.56115 15.736 4.29701 15.3616 3.68573C15.0595 3.19254 14.2799 2.87222 13.805 2.68393C13.284 2.47741 13.0991 2.08594 12.3131 2.08594C11.706 2.08594 11.3058 2.3941 11.0303 2.66111C10.9271 2.76116 10.7942 2.8243 10.6517 2.84329C9.68633 2.97195 8.86318 3.42282 8.40759 4.26523C8.14073 4.75866 8.11685 5.53408 8.11999 6.06574C8.12115 6.26204 7.97923 6.42767 7.78775 6.47089C6.58171 6.74309 5.69714 7.44109 5.2789 8.23235C4.8227 9.09544 4.59768 11.2871 6.3855 12.8406Z" fill="url(#paint1_radial_4002_612)"/>
</g>
<path d="M15.7816 29.9141H7.20267C6.37893 29.732 4.73145 29.0649 4.73145 27.8536C4.73145 26.3395 6.07654 25.3405 5.98269 25.278C5.90762 25.2281 9.00656 22.8533 10.5654 21.6722L23.6097 16.0918C24.4804 15.3945 26.4063 14.011 27.1445 14.0547C27.8827 14.0984 28.1664 15.0615 28.2159 15.5376V21.0712C28.2159 21.9922 27.9109 23.0225 27.2305 23.4751C26.5502 23.9278 26.0184 23.8185 24.9705 23.8185C23.7974 23.8185 23.5159 24.1541 23.0623 25.5668C22.6994 26.697 22.0769 26.9483 21.162 26.9483H19.9733C19.1678 26.9483 18.6282 27.12 18.1746 28.6185C17.7742 29.6987 16.7669 29.9141 15.7816 29.9141Z" fill="url(#paint2_linear_4002_612)"/>
<path d="M15.7816 29.9141H7.20267C6.37893 29.732 4.73145 29.0649 4.73145 27.8536C4.73145 26.3395 6.07654 25.3405 5.98269 25.278C5.90762 25.2281 9.00656 22.8533 10.5654 21.6722L23.6097 16.0918C24.4804 15.3945 26.4063 14.011 27.1445 14.0547C27.8827 14.0984 28.1664 15.0615 28.2159 15.5376V21.0712C28.2159 21.9922 27.9109 23.0225 27.2305 23.4751C26.5502 23.9278 26.0184 23.8185 24.9705 23.8185C23.7974 23.8185 23.5159 24.1541 23.0623 25.5668C22.6994 26.697 22.0769 26.9483 21.162 26.9483H19.9733C19.1678 26.9483 18.6282 27.12 18.1746 28.6185C17.7742 29.6987 16.7669 29.9141 15.7816 29.9141Z" fill="url(#paint3_linear_4002_612)"/>
<path d="M15.7816 29.9141H7.20267C6.37893 29.732 4.73145 29.0649 4.73145 27.8536C4.73145 26.3395 6.07654 25.3405 5.98269 25.278C5.90762 25.2281 9.00656 22.8533 10.5654 21.6722L23.6097 16.0918C24.4804 15.3945 26.4063 14.011 27.1445 14.0547C27.8827 14.0984 28.1664 15.0615 28.2159 15.5376V21.0712C28.2159 21.9922 27.9109 23.0225 27.2305 23.4751C26.5502 23.9278 26.0184 23.8185 24.9705 23.8185C23.7974 23.8185 23.5159 24.1541 23.0623 25.5668C22.6994 26.697 22.0769 26.9483 21.162 26.9483H19.9733C19.1678 26.9483 18.6282 27.12 18.1746 28.6185C17.7742 29.6987 16.7669 29.9141 15.7816 29.9141Z" fill="url(#paint4_radial_4002_612)"/>
<g filter="url(#filter1_i_4002_612)">
<path d="M19.6533 28.7109L16.9658 23.1797L18.8174 21.6094L22.358 29.7429C22.3868 29.8089 22.3384 29.8828 22.2663 29.8828H21.4971C20.4846 29.8828 19.9033 29.2969 19.6533 28.7109Z" fill="#9C756D"/>
</g>
<g filter="url(#filter2_i_4002_612)">
<path d="M19.082 27.5352L19.6533 28.7109C19.9033 29.2968 20.4846 29.8828 21.4971 29.8828H22.2664C22.3384 29.8828 22.3868 29.8089 22.358 29.7429L21.7295 28.299L19.082 27.5352Z" fill="#FF444F"/>
</g>
<path d="M8.19213 27.9092L8.91088 26.4606L11.4656 26.4219L9.54703 29.6308C9.38989 29.8937 9.05263 30.002 8.796 29.8329C8.32067 29.5196 8.05468 29.1513 8.01244 28.7923C7.96869 28.4205 8.114 28.0487 8.19213 27.9092Z" fill="url(#paint5_linear_4002_612)"/>
<path d="M8.19213 27.9092L8.91088 26.4606L11.4656 26.4219L9.54703 29.6308C9.38989 29.8937 9.05263 30.002 8.796 29.8329C8.32067 29.5196 8.05468 29.1513 8.01244 28.7923C7.96869 28.4205 8.114 28.0487 8.19213 27.9092Z" fill="url(#paint6_linear_4002_612)"/>
<path d="M8.19598 27.9014L8.19213 27.9091C8.11401 28.0486 7.96868 28.4204 8.01244 28.7922C8.05468 29.1512 8.32067 29.5195 8.79601 29.8328C9.0526 30.0019 9.38989 29.8936 9.54699 29.6307L10.5809 27.9014H8.19598Z" fill="url(#paint7_radial_4002_612)"/>
<g filter="url(#filter3_ii_4002_612)">
<path d="M18.8474 8.50769H14.7314L15.2861 10.7108H18.7939C20.28 10.7108 21.1689 9.64831 21.0908 8.05456L21.0153 5.7145C21.0138 5.66691 21.046 5.62484 21.0921 5.61297C21.2968 5.56024 21.6525 5.45827 21.876 5.39831C22.1322 5.32956 22.3213 5.1405 22.3838 5.05456L22.8897 4.31124C23.0637 4.05569 22.991 3.70684 22.7295 3.54202C22.4786 3.38391 22.1474 3.45491 21.9834 3.70197L21.6893 4.14494C21.6709 4.1727 21.6453 4.1951 21.6146 4.2081C21.2202 4.37535 20.7105 4.38099 20.4775 4.37097L20.7587 4.10291C20.9722 3.89945 20.9799 3.56134 20.7759 3.34839C20.5833 3.14731 20.2683 3.12837 20.053 3.30494L19.6533 3.63269C19.5205 3.75248 19.2361 4.08112 19.1611 4.43737C19.1088 4.68583 19.1143 4.97914 19.133 5.19483C19.1461 5.34632 19.1569 5.4984 19.1484 5.65021L18.9971 8.36603C18.9927 8.44551 18.927 8.50769 18.8474 8.50769Z" fill="#7B4F4B"/>
<path d="M18.8474 8.50769H14.7314L15.2861 10.7108H18.7939C20.28 10.7108 21.1689 9.64831 21.0908 8.05456L21.0153 5.7145C21.0138 5.66691 21.046 5.62484 21.0921 5.61297C21.2968 5.56024 21.6525 5.45827 21.876 5.39831C22.1322 5.32956 22.3213 5.1405 22.3838 5.05456L22.8897 4.31124C23.0637 4.05569 22.991 3.70684 22.7295 3.54202C22.4786 3.38391 22.1474 3.45491 21.9834 3.70197L21.6893 4.14494C21.6709 4.1727 21.6453 4.1951 21.6146 4.2081C21.2202 4.37535 20.7105 4.38099 20.4775 4.37097L20.7587 4.10291C20.9722 3.89945 20.9799 3.56134 20.7759 3.34839C20.5833 3.14731 20.2683 3.12837 20.053 3.30494L19.6533 3.63269C19.5205 3.75248 19.2361 4.08112 19.1611 4.43737C19.1088 4.68583 19.1143 4.97914 19.133 5.19483C19.1461 5.34632 19.1569 5.4984 19.1484 5.65021L18.9971 8.36603C18.9927 8.44551 18.927 8.50769 18.8474 8.50769Z" fill="url(#paint8_radial_4002_612)"/>
<path d="M18.8474 8.50769H14.7314L15.2861 10.7108H18.7939C20.28 10.7108 21.1689 9.64831 21.0908 8.05456L21.0153 5.7145C21.0138 5.66691 21.046 5.62484 21.0921 5.61297C21.2968 5.56024 21.6525 5.45827 21.876 5.39831C22.1322 5.32956 22.3213 5.1405 22.3838 5.05456L22.8897 4.31124C23.0637 4.05569 22.991 3.70684 22.7295 3.54202C22.4786 3.38391 22.1474 3.45491 21.9834 3.70197L21.6893 4.14494C21.6709 4.1727 21.6453 4.1951 21.6146 4.2081C21.2202 4.37535 20.7105 4.38099 20.4775 4.37097L20.7587 4.10291C20.9722 3.89945 20.9799 3.56134 20.7759 3.34839C20.5833 3.14731 20.2683 3.12837 20.053 3.30494L19.6533 3.63269C19.5205 3.75248 19.2361 4.08112 19.1611 4.43737C19.1088 4.68583 19.1143 4.97914 19.133 5.19483C19.1461 5.34632 19.1569 5.4984 19.1484 5.65021L18.9971 8.36603C18.9927 8.44551 18.927 8.50769 18.8474 8.50769Z" fill="url(#paint9_radial_4002_612)"/>
</g>
<g filter="url(#filter4_i_4002_612)">
<path d="M9.95015 14.5391V16.2109L15.6846 16.0547C15.3096 14.5 15.3173 12.7969 15.4736 12.4141C15.6298 12.0312 15.9267 11.6406 15.9501 11.125C15.9736 10.6094 15.7783 10.125 15.4736 9.64062C15.3241 9.403 15.2081 9.09448 15.13 8.83612C15.0607 8.60724 14.8557 8.4375 14.6166 8.4375H13.8486V8.4375C13.7807 8.4375 13.7404 8.52742 13.6802 8.55866L12.7236 9.05469L11.5204 8.4375C10.6142 8.47656 9.44234 8.69531 9.21578 9C8.98921 9.30469 8.96578 10.0078 9.12203 10.8828C9.27828 11.7578 9.55171 12.6953 9.77046 13.2422C9.94546 13.6797 9.96317 14.2891 9.95015 14.5391Z" fill="url(#paint10_radial_4002_612)"/>
<path d="M9.95015 14.5391V16.2109L15.6846 16.0547C15.3096 14.5 15.3173 12.7969 15.4736 12.4141C15.6298 12.0312 15.9267 11.6406 15.9501 11.125C15.9736 10.6094 15.7783 10.125 15.4736 9.64062C15.3241 9.403 15.2081 9.09448 15.13 8.83612C15.0607 8.60724 14.8557 8.4375 14.6166 8.4375H13.8486V8.4375C13.7807 8.4375 13.7404 8.52742 13.6802 8.55866L12.7236 9.05469L11.5204 8.4375C10.6142 8.47656 9.44234 8.69531 9.21578 9C8.98921 9.30469 8.96578 10.0078 9.12203 10.8828C9.27828 11.7578 9.55171 12.6953 9.77046 13.2422C9.94546 13.6797 9.96317 14.2891 9.95015 14.5391Z" fill="url(#paint11_radial_4002_612)"/>
<path d="M9.95015 14.5391V16.2109L15.6846 16.0547C15.3096 14.5 15.3173 12.7969 15.4736 12.4141C15.6298 12.0312 15.9267 11.6406 15.9501 11.125C15.9736 10.6094 15.7783 10.125 15.4736 9.64062C15.3241 9.403 15.2081 9.09448 15.13 8.83612C15.0607 8.60724 14.8557 8.4375 14.6166 8.4375H13.8486V8.4375C13.7807 8.4375 13.7404 8.52742 13.6802 8.55866L12.7236 9.05469L11.5204 8.4375C10.6142 8.47656 9.44234 8.69531 9.21578 9C8.98921 9.30469 8.96578 10.0078 9.12203 10.8828C9.27828 11.7578 9.55171 12.6953 9.77046 13.2422C9.94546 13.6797 9.96317 14.2891 9.95015 14.5391Z" fill="url(#paint12_radial_4002_612)"/>
<path d="M9.95015 14.5391V16.2109L15.6846 16.0547C15.3096 14.5 15.3173 12.7969 15.4736 12.4141C15.6298 12.0312 15.9267 11.6406 15.9501 11.125C15.9736 10.6094 15.7783 10.125 15.4736 9.64062C15.3241 9.403 15.2081 9.09448 15.13 8.83612C15.0607 8.60724 14.8557 8.4375 14.6166 8.4375H13.8486V8.4375C13.7807 8.4375 13.7404 8.52742 13.6802 8.55866L12.7236 9.05469L11.5204 8.4375C10.6142 8.47656 9.44234 8.69531 9.21578 9C8.98921 9.30469 8.96578 10.0078 9.12203 10.8828C9.27828 11.7578 9.55171 12.6953 9.77046 13.2422C9.94546 13.6797 9.96317 14.2891 9.95015 14.5391Z" fill="url(#paint13_radial_4002_612)"/>
<path d="M9.95015 14.5391V16.2109L15.6846 16.0547C15.3096 14.5 15.3173 12.7969 15.4736 12.4141C15.6298 12.0312 15.9267 11.6406 15.9501 11.125C15.9736 10.6094 15.7783 10.125 15.4736 9.64062C15.3241 9.403 15.2081 9.09448 15.13 8.83612C15.0607 8.60724 14.8557 8.4375 14.6166 8.4375H13.8486V8.4375C13.7807 8.4375 13.7404 8.52742 13.6802 8.55866L12.7236 9.05469L11.5204 8.4375C10.6142 8.47656 9.44234 8.69531 9.21578 9C8.98921 9.30469 8.96578 10.0078 9.12203 10.8828C9.27828 11.7578 9.55171 12.6953 9.77046 13.2422C9.94546 13.6797 9.96317 14.2891 9.95015 14.5391Z" fill="url(#paint14_radial_4002_612)"/>
</g>
<g filter="url(#filter5_iii_4002_612)">
<path d="M26.7393 13.5078C26.592 13.5078 26.4498 13.5294 26.3157 13.5695C25.9979 13.6469 25.6946 13.7912 25.3224 13.9685L25.3209 13.9691C25.0289 14.108 24.6949 14.267 24.2783 14.4297C22.7783 15.0156 21.0596 15.0156 20.2158 15.0156H11.5908C9.65784 15.0156 8.05707 16.5821 8.0321 18.5149C8.02515 19.0514 8.02051 19.7443 8.02051 20.3047C8.02051 22.1016 6.35889 24.0351 5.34863 24.9922C4.64807 25.6559 4.48059 26.0548 4.38245 26.2886L4.36804 26.3227C4.36139 26.3384 4.35498 26.3532 4.34863 26.3672L4.35925 26.3753C4.2514 26.662 4.19238 26.9725 4.19238 27.2969C4.19238 28.7423 5.36414 29.9141 6.80957 29.9141H7.77405C7.27502 29.8129 6.67737 29.6682 6.20801 29.4922C5.1673 29.1019 5.06738 28.2227 5.09467 27.8789C5.1156 27.6141 5.32129 26.5469 6.73145 26.5469C7.68121 26.5469 8.76221 26.611 9.75348 26.6698C10.3848 26.7073 10.9798 26.7426 11.4813 26.7578C12.5291 26.7896 13.6018 26.693 14.0518 25.543C14.5205 24.1133 14.8994 23.6328 15.958 23.6328C16.4506 23.6625 16.8301 23.6818 17.0818 23.6945C17.2274 23.7019 17.3303 23.7071 17.3876 23.7109C18.0874 23.7576 18.8396 23.6224 19.0282 22.3516C19.2393 20.9297 20.095 20.799 20.7001 20.8203C21.3643 20.8438 22.2939 20.8438 22.7158 20.5313C23.1377 20.2188 23.1844 19.6484 23.1844 19.2266C23.1844 18.8047 23.3315 18.0634 24.3563 17.9609C25.5048 17.8461 25.7313 17.6016 25.8876 17.3828C26.1138 17.0661 26.1268 16.6894 26.0751 16.1172C26.0049 15.3398 26.1898 14.8574 26.6572 14.5586C27.2744 14.1641 27.7303 14.6063 27.8251 15.3984C27.8479 15.5888 27.8768 15.8452 27.9095 16.1347C28.0004 16.9384 28.12 17.9966 28.2157 18.6016L28.2158 14.9844C28.2158 14.1977 27.6006 13.5548 26.8252 13.5103V13.5078C26.8093 13.5078 26.7938 13.508 26.7782 13.5083C26.7653 13.508 26.7523 13.5078 26.7393 13.5078Z" fill="url(#paint15_radial_4002_612)"/>
<path d="M26.7393 13.5078C26.592 13.5078 26.4498 13.5294 26.3157 13.5695C25.9979 13.6469 25.6946 13.7912 25.3224 13.9685L25.3209 13.9691C25.0289 14.108 24.6949 14.267 24.2783 14.4297C22.7783 15.0156 21.0596 15.0156 20.2158 15.0156H11.5908C9.65784 15.0156 8.05707 16.5821 8.0321 18.5149C8.02515 19.0514 8.02051 19.7443 8.02051 20.3047C8.02051 22.1016 6.35889 24.0351 5.34863 24.9922C4.64807 25.6559 4.48059 26.0548 4.38245 26.2886L4.36804 26.3227C4.36139 26.3384 4.35498 26.3532 4.34863 26.3672L4.35925 26.3753C4.2514 26.662 4.19238 26.9725 4.19238 27.2969C4.19238 28.7423 5.36414 29.9141 6.80957 29.9141H7.77405C7.27502 29.8129 6.67737 29.6682 6.20801 29.4922C5.1673 29.1019 5.06738 28.2227 5.09467 27.8789C5.1156 27.6141 5.32129 26.5469 6.73145 26.5469C7.68121 26.5469 8.76221 26.611 9.75348 26.6698C10.3848 26.7073 10.9798 26.7426 11.4813 26.7578C12.5291 26.7896 13.6018 26.693 14.0518 25.543C14.5205 24.1133 14.8994 23.6328 15.958 23.6328C16.4506 23.6625 16.8301 23.6818 17.0818 23.6945C17.2274 23.7019 17.3303 23.7071 17.3876 23.7109C18.0874 23.7576 18.8396 23.6224 19.0282 22.3516C19.2393 20.9297 20.095 20.799 20.7001 20.8203C21.3643 20.8438 22.2939 20.8438 22.7158 20.5313C23.1377 20.2188 23.1844 19.6484 23.1844 19.2266C23.1844 18.8047 23.3315 18.0634 24.3563 17.9609C25.5048 17.8461 25.7313 17.6016 25.8876 17.3828C26.1138 17.0661 26.1268 16.6894 26.0751 16.1172C26.0049 15.3398 26.1898 14.8574 26.6572 14.5586C27.2744 14.1641 27.7303 14.6063 27.8251 15.3984C27.8479 15.5888 27.8768 15.8452 27.9095 16.1347C28.0004 16.9384 28.12 17.9966 28.2157 18.6016L28.2158 14.9844C28.2158 14.1977 27.6006 13.5548 26.8252 13.5103V13.5078C26.8093 13.5078 26.7938 13.508 26.7782 13.5083C26.7653 13.508 26.7523 13.5078 26.7393 13.5078Z" fill="url(#paint16_linear_4002_612)"/>
<path d="M26.7393 13.5078C26.592 13.5078 26.4498 13.5294 26.3157 13.5695C25.9979 13.6469 25.6946 13.7912 25.3224 13.9685L25.3209 13.9691C25.0289 14.108 24.6949 14.267 24.2783 14.4297C22.7783 15.0156 21.0596 15.0156 20.2158 15.0156H11.5908C9.65784 15.0156 8.05707 16.5821 8.0321 18.5149C8.02515 19.0514 8.02051 19.7443 8.02051 20.3047C8.02051 22.1016 6.35889 24.0351 5.34863 24.9922C4.64807 25.6559 4.48059 26.0548 4.38245 26.2886L4.36804 26.3227C4.36139 26.3384 4.35498 26.3532 4.34863 26.3672L4.35925 26.3753C4.2514 26.662 4.19238 26.9725 4.19238 27.2969C4.19238 28.7423 5.36414 29.9141 6.80957 29.9141H7.77405C7.27502 29.8129 6.67737 29.6682 6.20801 29.4922C5.1673 29.1019 5.06738 28.2227 5.09467 27.8789C5.1156 27.6141 5.32129 26.5469 6.73145 26.5469C7.68121 26.5469 8.76221 26.611 9.75348 26.6698C10.3848 26.7073 10.9798 26.7426 11.4813 26.7578C12.5291 26.7896 13.6018 26.693 14.0518 25.543C14.5205 24.1133 14.8994 23.6328 15.958 23.6328C16.4506 23.6625 16.8301 23.6818 17.0818 23.6945C17.2274 23.7019 17.3303 23.7071 17.3876 23.7109C18.0874 23.7576 18.8396 23.6224 19.0282 22.3516C19.2393 20.9297 20.095 20.799 20.7001 20.8203C21.3643 20.8438 22.2939 20.8438 22.7158 20.5313C23.1377 20.2188 23.1844 19.6484 23.1844 19.2266C23.1844 18.8047 23.3315 18.0634 24.3563 17.9609C25.5048 17.8461 25.7313 17.6016 25.8876 17.3828C26.1138 17.0661 26.1268 16.6894 26.0751 16.1172C26.0049 15.3398 26.1898 14.8574 26.6572 14.5586C27.2744 14.1641 27.7303 14.6063 27.8251 15.3984C27.8479 15.5888 27.8768 15.8452 27.9095 16.1347C28.0004 16.9384 28.12 17.9966 28.2157 18.6016L28.2158 14.9844C28.2158 14.1977 27.6006 13.5548 26.8252 13.5103V13.5078C26.8093 13.5078 26.7938 13.508 26.7782 13.5083C26.7653 13.508 26.7523 13.5078 26.7393 13.5078Z" fill="url(#paint17_radial_4002_612)"/>
</g>
<path d="M26.7393 13.5078C26.592 13.5078 26.4498 13.5294 26.3157 13.5695C25.9979 13.6469 25.6946 13.7912 25.3224 13.9685L25.3209 13.9691C25.0289 14.108 24.6949 14.267 24.2783 14.4297C22.7783 15.0156 21.0596 15.0156 20.2158 15.0156H11.5908C9.65784 15.0156 8.05707 16.5821 8.0321 18.5149C8.02515 19.0514 8.02051 19.7443 8.02051 20.3047C8.02051 22.1016 6.35889 24.0351 5.34863 24.9922C4.64807 25.6559 4.48059 26.0548 4.38245 26.2886L4.36804 26.3227C4.36139 26.3384 4.35498 26.3532 4.34863 26.3672L4.35925 26.3753C4.2514 26.662 4.19238 26.9725 4.19238 27.2969C4.19238 28.7423 5.36414 29.9141 6.80957 29.9141H7.77405C7.27502 29.8129 6.67737 29.6682 6.20801 29.4922C5.1673 29.1019 5.06738 28.2227 5.09467 27.8789C5.1156 27.6141 5.32129 26.5469 6.73145 26.5469C7.68121 26.5469 8.76221 26.611 9.75348 26.6698C10.3848 26.7073 10.9798 26.7426 11.4813 26.7578C12.5291 26.7896 13.6018 26.693 14.0518 25.543C14.5205 24.1133 14.8994 23.6328 15.958 23.6328C16.4506 23.6625 16.8301 23.6818 17.0818 23.6945C17.2274 23.7019 17.3303 23.7071 17.3876 23.7109C18.0874 23.7576 18.8396 23.6224 19.0282 22.3516C19.2393 20.9297 20.095 20.799 20.7001 20.8203C21.3643 20.8438 22.2939 20.8438 22.7158 20.5313C23.1377 20.2188 23.1844 19.6484 23.1844 19.2266C23.1844 18.8047 23.3315 18.0634 24.3563 17.9609C25.5048 17.8461 25.7313 17.6016 25.8876 17.3828C26.1138 17.0661 26.1268 16.6894 26.0751 16.1172C26.0049 15.3398 26.1898 14.8574 26.6572 14.5586C27.2744 14.1641 27.7303 14.6063 27.8251 15.3984C27.8479 15.5888 27.8768 15.8452 27.9095 16.1347C28.0004 16.9384 28.12 17.9966 28.2157 18.6016L28.2158 14.9844C28.2158 14.1977 27.6006 13.5548 26.8252 13.5103V13.5078C26.8093 13.5078 26.7938 13.508 26.7782 13.5083C26.7653 13.508 26.7523 13.5078 26.7393 13.5078Z" fill="url(#paint18_radial_4002_612)"/>
<path d="M26.7393 13.5078C26.592 13.5078 26.4498 13.5294 26.3157 13.5695C25.9979 13.6469 25.6946 13.7912 25.3224 13.9685L25.3209 13.9691C25.0289 14.108 24.6949 14.267 24.2783 14.4297C22.7783 15.0156 21.0596 15.0156 20.2158 15.0156H11.5908C9.65784 15.0156 8.05707 16.5821 8.0321 18.5149C8.02515 19.0514 8.02051 19.7443 8.02051 20.3047C8.02051 22.1016 6.35889 24.0351 5.34863 24.9922C4.64807 25.6559 4.48059 26.0548 4.38245 26.2886L4.36804 26.3227C4.36139 26.3384 4.35498 26.3532 4.34863 26.3672L4.35925 26.3753C4.2514 26.662 4.19238 26.9725 4.19238 27.2969C4.19238 28.7423 5.36414 29.9141 6.80957 29.9141H7.77405C7.27502 29.8129 6.67737 29.6682 6.20801 29.4922C5.1673 29.1019 5.06738 28.2227 5.09467 27.8789C5.1156 27.6141 5.32129 26.5469 6.73145 26.5469C7.68121 26.5469 8.76221 26.611 9.75348 26.6698C10.3848 26.7073 10.9798 26.7426 11.4813 26.7578C12.5291 26.7896 13.6018 26.693 14.0518 25.543C14.5205 24.1133 14.8994 23.6328 15.958 23.6328C16.4506 23.6625 16.8301 23.6818 17.0818 23.6945C17.2274 23.7019 17.3303 23.7071 17.3876 23.7109C18.0874 23.7576 18.8396 23.6224 19.0282 22.3516C19.2393 20.9297 20.095 20.799 20.7001 20.8203C21.3643 20.8438 22.2939 20.8438 22.7158 20.5313C23.1377 20.2188 23.1844 19.6484 23.1844 19.2266C23.1844 18.8047 23.3315 18.0634 24.3563 17.9609C25.5048 17.8461 25.7313 17.6016 25.8876 17.3828C26.1138 17.0661 26.1268 16.6894 26.0751 16.1172C26.0049 15.3398 26.1898 14.8574 26.6572 14.5586C27.2744 14.1641 27.7303 14.6063 27.8251 15.3984C27.8479 15.5888 27.8768 15.8452 27.9095 16.1347C28.0004 16.9384 28.12 17.9966 28.2157 18.6016L28.2158 14.9844C28.2158 14.1977 27.6006 13.5548 26.8252 13.5103V13.5078C26.8093 13.5078 26.7938 13.508 26.7782 13.5083C26.7653 13.508 26.7523 13.5078 26.7393 13.5078Z" fill="url(#paint19_radial_4002_612)"/>
<g filter="url(#filter6_i_4002_612)">
<path d="M5.04238 17.5075L4.69238 17.0508L4.11426 15.9727L5.49316 15.457L5.54004 16.7109L5.74046 16.9706C5.8809 17.1526 5.85775 17.412 5.6873 17.5662C5.49648 17.7388 5.19891 17.7117 5.04238 17.5075Z" fill="#734952"/>
</g>
<g filter="url(#filter7_ii_4002_612)">
<path d="M10.83 9.4866C11.1178 10.0372 10.9048 10.7169 10.3542 11.0048L7.28222 12.5742C7.02545 12.7084 6.833 12.8125 6.73925 13.1875L6.40742 14.4584C6.38397 14.5482 6.37314 14.6408 6.37524 14.7336L6.41498 16.4902C6.41498 16.7588 6.19725 16.9765 5.92866 16.9765C5.66006 16.9765 5.44233 16.7588 5.44233 16.4902V15.6833L4.87435 16.0909C4.8047 16.1408 4.76551 16.223 4.77053 16.3086L4.82667 17.2654C4.8424 17.5336 4.63779 17.7637 4.36965 17.7794C4.10152 17.7952 3.87141 17.5905 3.85568 17.3224L3.78611 16.1211C3.77875 15.9956 3.78617 15.7734 3.92279 15.5937L4.46409 14.7254L4.64826 12.9924C4.7674 11.9645 5.38767 11.0622 6.30472 10.5828L9.31179 9.01081C9.86241 8.72296 10.5421 8.93598 10.83 9.4866Z" fill="#7E5A4D"/>
<path d="M10.83 9.4866C11.1178 10.0372 10.9048 10.7169 10.3542 11.0048L7.28222 12.5742C7.02545 12.7084 6.833 12.8125 6.73925 13.1875L6.40742 14.4584C6.38397 14.5482 6.37314 14.6408 6.37524 14.7336L6.41498 16.4902C6.41498 16.7588 6.19725 16.9765 5.92866 16.9765C5.66006 16.9765 5.44233 16.7588 5.44233 16.4902V15.6833L4.87435 16.0909C4.8047 16.1408 4.76551 16.223 4.77053 16.3086L4.82667 17.2654C4.8424 17.5336 4.63779 17.7637 4.36965 17.7794C4.10152 17.7952 3.87141 17.5905 3.85568 17.3224L3.78611 16.1211C3.77875 15.9956 3.78617 15.7734 3.92279 15.5937L4.46409 14.7254L4.64826 12.9924C4.7674 11.9645 5.38767 11.0622 6.30472 10.5828L9.31179 9.01081C9.86241 8.72296 10.5421 8.93598 10.83 9.4866Z" fill="url(#paint20_radial_4002_612)"/>
</g>
<path d="M13.1164 10.2558L11.3643 8.65625L11.7471 8.48438H13.7861V9.96042C13.7861 10.3081 13.3732 10.4902 13.1164 10.2558Z" fill="url(#paint21_radial_4002_612)"/>
<path d="M13.1164 10.2558L11.3643 8.65625L11.7471 8.48438H13.7861V9.96042C13.7861 10.3081 13.3732 10.4902 13.1164 10.2558Z" fill="url(#paint22_radial_4002_612)"/>
<g filter="url(#filter8_i_4002_612)">
<path d="M10.1571 6.8657C10.5715 6.8657 10.9075 6.52976 10.9075 6.11535C10.9075 5.70094 10.5715 5.36499 10.1571 5.36499C9.74268 5.36499 9.40674 5.70094 9.40674 6.11535C9.40674 6.52976 9.74268 6.8657 10.1571 6.8657Z" fill="url(#paint23_linear_4002_612)"/>
</g>
<path d="M14.5931 6.8657C15.0075 6.8657 15.3435 6.52976 15.3435 6.11535C15.3435 5.70094 15.0075 5.36499 14.5931 5.36499C14.1787 5.36499 13.8428 5.70094 13.8428 6.11535C13.8428 6.52976 14.1787 6.8657 14.5931 6.8657Z" fill="url(#paint24_radial_4002_612)"/>
<g filter="url(#filter9_f_4002_612)">
<path d="M14.5932 6.61603C14.8698 6.61603 15.0941 6.39177 15.0941 6.11514C15.0941 5.83851 14.8698 5.61426 14.5932 5.61426C14.3165 5.61426 14.0923 5.83851 14.0923 6.11514C14.0923 6.39177 14.3165 6.61603 14.5932 6.61603Z" fill="url(#paint25_radial_4002_612)"/>
</g>
<g filter="url(#filter10_f_4002_612)">
<path d="M10.1662 6.61603C10.4428 6.61603 10.6671 6.39177 10.6671 6.11514C10.6671 5.83851 10.4428 5.61426 10.1662 5.61426C9.88954 5.61426 9.66528 5.83851 9.66528 6.11514C9.66528 6.39177 9.88954 6.61603 10.1662 6.61603Z" fill="url(#paint26_radial_4002_612)"/>
</g>
<g filter="url(#filter11_i_4002_612)">
<path d="M9.96989 5.52651H9.97563L9.97085 5.40281L9.96606 5.26007C9.97563 4.81758 10.2339 4.6463 10.3438 4.5892C10.351 4.58682 10.3594 4.58326 10.3678 4.57969C10.3761 4.57612 10.3845 4.57255 10.3917 4.57017C10.6403 4.45598 10.8412 4.25615 10.9464 3.99447L10.9846 3.90406C11.0229 3.81366 11.1425 3.79939 11.1998 3.88028C11.5346 4.37034 12.0941 4.66057 12.6871 4.66057H14.1886C14.2726 4.66057 14.6933 4.70132 14.7183 5.28181L14.6629 6.71485C14.6054 8.02173 13.5849 8.89928 12.3391 8.89928C11.0934 8.89928 10.0728 8.02173 10.0153 6.71485L9.96989 5.52651Z" fill="url(#paint27_radial_4002_612)"/>
</g>
<path d="M9.96989 5.52651H9.97563L9.97085 5.40281L9.96606 5.26007C9.97563 4.81758 10.2339 4.6463 10.3438 4.5892C10.351 4.58682 10.3594 4.58326 10.3678 4.57969C10.3761 4.57612 10.3845 4.57255 10.3917 4.57017C10.6403 4.45598 10.8412 4.25615 10.9464 3.99447L10.9846 3.90406C11.0229 3.81366 11.1425 3.79939 11.1998 3.88028C11.5346 4.37034 12.0941 4.66057 12.6871 4.66057H14.1886C14.2726 4.66057 14.6933 4.70132 14.7183 5.28181L14.6629 6.71485C14.6055 8.02173 13.5849 8.89928 12.3391 8.89928C11.0934 8.89928 10.0728 8.02173 10.0153 6.71485L9.96989 5.52651Z" fill="url(#paint28_radial_4002_612)"/>
<path d="M9.96989 5.52651H9.97563L9.97085 5.40281L9.96606 5.26007C9.97563 4.81758 10.2339 4.6463 10.3438 4.5892C10.351 4.58682 10.3594 4.58326 10.3678 4.57969C10.3761 4.57612 10.3845 4.57255 10.3917 4.57017C10.6403 4.45598 10.8412 4.25615 10.9464 3.99447L10.9846 3.90406C11.0229 3.81366 11.1425 3.79939 11.1998 3.88028C11.5346 4.37034 12.0941 4.66057 12.6871 4.66057H14.1886C14.2726 4.66057 14.6933 4.70132 14.7183 5.28181L14.6629 6.71485C14.6055 8.02173 13.5849 8.89928 12.3391 8.89928C11.0934 8.89928 10.0728 8.02173 10.0153 6.71485L9.96989 5.52651Z" fill="url(#paint29_radial_4002_612)"/>
<path d="M9.96989 5.52651H9.97563L9.97085 5.40281L9.96606 5.26007C9.97563 4.81758 10.2339 4.6463 10.3438 4.5892C10.351 4.58682 10.3594 4.58326 10.3678 4.57969C10.3761 4.57612 10.3845 4.57255 10.3917 4.57017C10.6403 4.45598 10.8412 4.25615 10.9464 3.99447L10.9846 3.90406C11.0229 3.81366 11.1425 3.79939 11.1998 3.88028C11.5346 4.37034 12.0941 4.66057 12.6871 4.66057H14.1886C14.2726 4.66057 14.6933 4.70132 14.7183 5.28181L14.6629 6.71485C14.6055 8.02173 13.5849 8.89928 12.3391 8.89928C11.0934 8.89928 10.0728 8.02173 10.0153 6.71485L9.96989 5.52651Z" fill="url(#paint30_radial_4002_612)"/>
<path d="M9.96989 5.52651H9.97563L9.97085 5.40281L9.96606 5.26007C9.97563 4.81758 10.2339 4.6463 10.3438 4.5892C10.351 4.58682 10.3594 4.58326 10.3678 4.57969C10.3761 4.57612 10.3845 4.57255 10.3917 4.57017C10.6403 4.45598 10.8412 4.25615 10.9464 3.99447L10.9846 3.90406C11.0229 3.81366 11.1425 3.79939 11.1998 3.88028C11.5346 4.37034 12.0941 4.66057 12.6871 4.66057H14.1886C14.2726 4.66057 14.6933 4.70132 14.7183 5.28181L14.6629 6.71485C14.6055 8.02173 13.5849 8.89928 12.3391 8.89928C11.0934 8.89928 10.0728 8.02173 10.0153 6.71485L9.96989 5.52651Z" fill="url(#paint31_radial_4002_612)"/>
<g filter="url(#filter12_f_4002_612)">
<path d="M12.159 6.01135L11.8402 6.8041C11.7896 6.96717 11.911 7.13023 12.083 7.13023H12.4497C12.6216 7.13023 12.743 6.96466 12.6925 6.8041L12.4446 6.01135C12.3915 5.83574 12.2146 5.83574 12.159 6.01135Z" fill="#774555"/>
</g>
<path d="M12.1637 5.94665L11.9159 6.7394C11.8653 6.90247 11.9867 7.06554 12.1587 7.06554H12.5254C12.6973 7.06554 12.8187 6.89996 12.7681 6.7394L12.5203 5.94665C12.4672 5.77104 12.2194 5.77104 12.1637 5.94665Z" fill="#7E584E"/>
<path d="M12.1637 5.94665L11.9159 6.7394C11.8653 6.90247 11.9867 7.06554 12.1587 7.06554H12.5254C12.6973 7.06554 12.8187 6.89996 12.7681 6.7394L12.5203 5.94665C12.4672 5.77104 12.2194 5.77104 12.1637 5.94665Z" fill="url(#paint32_linear_4002_612)"/>
<path d="M12.1637 5.94665L11.9159 6.7394C11.8653 6.90247 11.9867 7.06554 12.1587 7.06554H12.5254C12.6973 7.06554 12.8187 6.89996 12.7681 6.7394L12.5203 5.94665C12.4672 5.77104 12.2194 5.77104 12.1637 5.94665Z" fill="url(#paint33_radial_4002_612)"/>
<path d="M12.1637 5.94665L11.9159 6.7394C11.8653 6.90247 11.9867 7.06554 12.1587 7.06554H12.5254C12.6973 7.06554 12.8187 6.89996 12.7681 6.7394L12.5203 5.94665C12.4672 5.77104 12.2194 5.77104 12.1637 5.94665Z" fill="url(#paint34_radial_4002_612)"/>
<path d="M12.1637 5.94665L11.9159 6.7394C11.8653 6.90247 11.9867 7.06554 12.1587 7.06554H12.5254C12.6973 7.06554 12.8187 6.89996 12.7681 6.7394L12.5203 5.94665C12.4672 5.77104 12.2194 5.77104 12.1637 5.94665Z" fill="url(#paint35_linear_4002_612)"/>
<path d="M12.1637 5.94665L11.9159 6.7394C11.8653 6.90247 11.9867 7.06554 12.1587 7.06554H12.5254C12.6973 7.06554 12.8187 6.89996 12.7681 6.7394L12.5203 5.94665C12.4672 5.77104 12.2194 5.77104 12.1637 5.94665Z" fill="url(#paint36_linear_4002_612)"/>
<g filter="url(#filter13_f_4002_612)">
<path d="M12.342 7.47289C12.0991 7.47289 11.8709 7.41444 11.679 7.31215C11.6135 7.27805 11.5431 7.35355 11.5843 7.41444C11.7446 7.66287 12.0239 7.82848 12.342 7.82848C12.6601 7.82848 12.9393 7.66287 13.0996 7.41444C13.1409 7.35112 13.0705 7.27805 13.0049 7.31215C12.8131 7.41444 12.5872 7.47289 12.342 7.47289Z" stroke="url(#paint37_linear_4002_612)" stroke-width="0.1"/>
</g>
<path d="M12.342 7.47289C12.0991 7.47289 11.8709 7.41444 11.679 7.31215C11.6135 7.27805 11.5431 7.35355 11.5843 7.41444C11.7446 7.66287 12.0239 7.82848 12.342 7.82848C12.6601 7.82848 12.9393 7.66287 13.0996 7.41444C13.1409 7.35112 13.0705 7.27805 13.0049 7.31215C12.8131 7.41444 12.5872 7.47289 12.342 7.47289Z" fill="#87014D"/>
<g filter="url(#filter14_i_4002_612)">
<path d="M12.8745 5.84958C12.9983 5.6319 13.1865 5.45996 13.5915 5.45996C13.7688 5.45996 13.9398 5.50909 14.0917 5.6319C14.2171 5.73321 14.2003 5.86282 14.1032 5.91135L13.8439 6.05939C13.54 5.96114 13.2038 5.94783 12.8745 5.84958Z" fill="#635D5F"/>
</g>
<g filter="url(#filter15_i_4002_612)">
<path d="M11.8095 5.84958C11.6858 5.6319 11.4976 5.45996 11.0926 5.45996C10.9153 5.45996 10.7443 5.50909 10.5923 5.6319C10.467 5.73321 10.4838 5.86282 10.5809 5.91135L10.8402 6.05939C11.1441 5.96114 11.4802 5.94783 11.8095 5.84958Z" fill="#635D5F"/>
</g>
<g filter="url(#filter16_i_4002_612)">
<path d="M10.7574 5.28591L10.7553 5.28709C10.7553 5.28712 10.7552 5.28716 10.7551 5.28719C10.696 5.32254 10.6192 5.30334 10.5837 5.24419C10.5482 5.18497 10.5675 5.10811 10.6267 5.07257L10.627 5.07241L10.6275 5.07212L10.6288 5.07131L10.6332 5.06877L10.6483 5.06037C10.6612 5.05342 10.6794 5.04393 10.7024 5.03296C10.7484 5.01106 10.8139 4.98301 10.8937 4.95754C11.0522 4.90695 11.2738 4.8644 11.5131 4.90662C11.5811 4.91863 11.6265 4.9835 11.6145 5.05151C11.6025 5.11953 11.5376 5.16494 11.4696 5.15294C11.2837 5.12012 11.1051 5.15261 10.9697 5.19582C10.9026 5.21724 10.8477 5.24078 10.8101 5.25874C10.7913 5.2677 10.7769 5.27521 10.7675 5.28028L10.7574 5.28591Z" fill="url(#paint38_linear_4002_612)"/>
</g>
<g filter="url(#filter17_i_4002_612)">
<path fill-rule="evenodd" clip-rule="evenodd" d="M14.0823 5.07257C14.0823 5.07259 14.0823 5.07261 14.018 5.17985L14.0823 5.07257C14.1415 5.10811 14.1608 5.18497 14.1252 5.24419C14.0897 5.30334 14.0131 5.32257 13.9539 5.28723C13.9539 5.28721 13.9538 5.28717 13.9537 5.2871L13.9516 5.28591C13.9495 5.28473 13.9461 5.28281 13.9415 5.28028C13.9321 5.27521 13.9177 5.2677 13.8989 5.25874C13.8612 5.24078 13.8064 5.21724 13.7392 5.19582C13.6038 5.15261 13.4253 5.12012 13.2393 5.15294C13.1713 5.16494 13.1065 5.11953 13.0945 5.05151C13.0825 4.9835 13.1279 4.91863 13.1959 4.90662C13.4351 4.8644 13.6568 4.90695 13.8153 4.95754C13.8951 4.98301 13.9606 5.01106 14.0065 5.03296C14.0296 5.04393 14.0478 5.05342 14.0606 5.06037C14.067 5.06385 14.0721 5.06669 14.0757 5.06877L14.0801 5.07131L14.0815 5.07212L14.082 5.07241L14.0823 5.07257Z" fill="url(#paint39_linear_4002_612)"/>
</g>
<path d="M13.4574 5.4873C13.7619 5.4873 14.0192 5.69728 14.0892 5.98103C14.11 6.06238 14.0476 6.13994 13.9643 6.13994H12.9239C12.8577 6.13994 12.8047 6.0794 12.818 6.01319C12.8766 5.71431 13.1395 5.4873 13.4574 5.4873Z" fill="white"/>
<path d="M13.3607 5.61426C13.5915 5.61426 13.7769 5.80153 13.7769 6.03043C13.7769 6.06826 13.7712 6.1061 13.7617 6.14015H12.9578C12.9483 6.1042 12.9426 6.06826 12.9426 6.03043C12.9426 5.80153 13.1299 5.61426 13.3607 5.61426Z" fill="url(#paint40_radial_4002_612)"/>
<path d="M13.1221 6.03059C13.1221 5.89817 13.228 5.79224 13.3604 5.79224C13.4928 5.79224 13.5988 5.89817 13.5988 6.03059C13.5988 6.07031 13.5893 6.10815 13.5723 6.14031H13.1504C13.1315 6.10815 13.1221 6.07031 13.1221 6.03059Z" fill="black"/>
<g filter="url(#filter18_f_4002_612)">
<path d="M13.3288 5.70256C13.3583 5.74205 13.2966 5.79019 13.2264 5.84265C13.1563 5.89511 13.1042 5.93203 13.0747 5.89255C13.0452 5.85306 13.0781 5.77851 13.1483 5.72605C13.2185 5.67359 13.2993 5.66307 13.3288 5.70256Z" fill="#C7A7A3"/>
<path d="M13.3288 5.70256C13.3583 5.74205 13.2966 5.79019 13.2264 5.84265C13.1563 5.89511 13.1042 5.93203 13.0747 5.89255C13.0452 5.85306 13.0781 5.77851 13.1483 5.72605C13.2185 5.67359 13.2993 5.66307 13.3288 5.70256Z" fill="url(#paint41_radial_4002_612)"/>
</g>
<g filter="url(#filter19_f_4002_612)">
<path d="M13.7301 5.97462C13.7147 5.86749 13.6521 5.78675 13.6226 5.75977L13.502 5.89221L13.5564 5.99817L13.7301 5.97462Z" fill="url(#paint42_linear_4002_612)"/>
</g>
<path d="M11.2269 5.4873C10.9224 5.4873 10.6651 5.69728 10.5951 5.98104C10.5743 6.06238 10.6367 6.13994 10.7199 6.13994H11.7604C11.8266 6.13994 11.8796 6.07941 11.8663 6.0132C11.8077 5.71431 11.5428 5.4873 11.2269 5.4873Z" fill="white"/>
<path d="M11.3236 5.61426C11.0929 5.61426 10.9075 5.80154 10.9075 6.03043C10.9075 6.06826 10.9131 6.1061 10.9226 6.14015H11.7266C11.736 6.10421 11.7417 6.06826 11.7417 6.03043C11.7398 5.80154 11.5544 5.61426 11.3236 5.61426Z" fill="url(#paint43_radial_4002_612)"/>
<path d="M11.5617 6.03059C11.5617 5.89817 11.4557 5.79224 11.3233 5.79224C11.1909 5.79224 11.085 5.89817 11.085 6.03059C11.085 6.07032 11.0944 6.10815 11.1114 6.14031H11.5333C11.5503 6.10815 11.5617 6.07032 11.5617 6.03059Z" fill="black"/>
<g filter="url(#filter20_f_4002_612)">
<path d="M11.7024 5.9804C11.7024 5.84648 11.5935 5.7572 11.5641 5.73022L11.4302 5.85973L11.5126 6.02749L11.7024 5.9804Z" fill="url(#paint44_linear_4002_612)"/>
</g>
<g filter="url(#filter21_f_4002_612)">
<ellipse cx="11.1974" cy="5.79236" rx="0.180912" ry="0.0915583" transform="rotate(-27.914 11.1974 5.79236)" fill="#C7A7A3" fill-opacity="0.9"/>
<ellipse cx="11.1974" cy="5.79236" rx="0.180912" ry="0.0915583" transform="rotate(-27.914 11.1974 5.79236)" fill="url(#paint45_radial_4002_612)"/>
</g>
<g filter="url(#filter22_f_4002_612)">
<path d="M13.2466 5.00872C13.397 4.97213 13.771 4.99043 14.021 5.16931" stroke="#362C2F" stroke-width="0.05" stroke-linecap="round"/>
</g>
<g filter="url(#filter23_f_4002_612)">
<path d="M11.4788 5.00872C11.3283 4.97213 10.9543 4.99043 10.7043 5.16931" stroke="#362C2F" stroke-width="0.05" stroke-linecap="round"/>
</g>
<g filter="url(#filter24_f_4002_612)">
<path d="M10.929 4.0125C10.7554 4.45841 9.99771 4.82399 9.659 4.91257C9.54628 4.01043 9.89647 2.9215 11.0015 3.11795L11.1878 3.83988C11.0015 3.78748 10.9623 3.92686 10.929 4.0125Z" fill="url(#paint46_radial_4002_612)"/>
</g>
<g filter="url(#filter25_if_4002_612)">
<path d="M12.0608 2.46703C11.5326 2.35042 10.8267 2.92928 10.772 3.12468C11.4911 4.81299 12.4612 4.7036 13.8036 4.65274C14.549 4.6245 14.6088 4.89038 14.6713 5.05192C14.7946 2.93049 13.2645 2.73279 12.0608 2.46703Z" fill="url(#paint47_radial_4002_612)"/>
</g>
<g filter="url(#filter26_f_4002_612)">
<path d="M12.0608 2.46703C11.5326 2.35042 10.8267 2.92928 10.772 3.12468C11.4911 4.81299 12.4612 4.7036 13.8036 4.65274C14.549 4.6245 14.6088 4.89038 14.6713 5.05192C14.7946 2.93049 13.2645 2.73279 12.0608 2.46703Z" fill="url(#paint48_radial_4002_612)"/>
<path d="M12.0608 2.46703C11.5326 2.35042 10.8267 2.92928 10.772 3.12468C11.4911 4.81299 12.4612 4.7036 13.8036 4.65274C14.549 4.6245 14.6088 4.89038 14.6713 5.05192C14.7946 2.93049 13.2645 2.73279 12.0608 2.46703Z" fill="url(#paint49_radial_4002_612)"/>
</g>
<g filter="url(#filter27_ii_4002_612)">
<path fill-rule="evenodd" clip-rule="evenodd" d="M14.8494 4.96496C14.8625 4.92527 14.9166 4.90814 14.9501 4.93315C15.0499 5.00777 15.1738 5.05196 15.3081 5.05196C15.6387 5.05196 15.9067 4.78395 15.9067 4.45334C15.9067 4.25486 15.8102 4.07894 15.6614 3.97003C15.6283 3.94575 15.6283 3.89062 15.6614 3.86634C15.8102 3.75743 15.9067 3.58151 15.9067 3.38303C15.9067 3.05241 15.6387 2.7844 15.3081 2.7844C15.1763 2.7844 15.0545 2.82701 14.9556 2.8992C14.9214 2.92417 14.8662 2.9056 14.854 2.86505C14.7797 2.6188 14.5511 2.43945 14.2808 2.43945C13.9502 2.43945 13.6821 2.70747 13.6821 3.03808C13.6821 3.10615 13.6935 3.17156 13.7144 3.23253C13.7282 3.27258 13.6943 3.31985 13.6519 3.31957C13.6506 3.31956 13.6493 3.31956 13.6479 3.31956C13.3174 3.31956 13.0493 3.58757 13.0493 3.91818C13.0493 4.24879 13.3174 4.51681 13.6479 4.51681C13.6888 4.51681 13.7211 4.56077 13.709 4.59979C13.6915 4.65595 13.6821 4.71566 13.6821 4.77756C13.6821 5.10817 13.9502 5.37618 14.2808 5.37618C14.5459 5.37618 14.7708 5.20378 14.8494 4.96496Z" fill="url(#paint50_linear_4002_612)"/>
</g>
<g filter="url(#filter28_ii_4002_612)">
<path fill-rule="evenodd" clip-rule="evenodd" d="M14.7183 4.48794C14.7168 4.49304 14.7153 4.49813 14.7136 4.50322C14.6418 4.72479 14.4318 4.8552 14.2444 4.7945C14.0571 4.73379 13.9635 4.50495 14.0353 4.28338C14.0376 4.27622 14.0402 4.26916 14.0427 4.26219C14.03 4.26324 14.0171 4.26377 14.004 4.26377C13.7784 4.26383 13.5955 4.10425 13.5955 3.90734C13.5953 3.71043 13.7782 3.55076 14.0039 3.5507L14.0105 3.55075C14.0083 3.5435 14.0062 3.53614 14.0044 3.52869C14.0026 3.52125 14.001 3.51372 13.9995 3.50609C13.9567 3.28455 14.088 3.07286 14.2927 3.03328C14.4871 2.99573 14.6776 3.12656 14.7333 3.32924L14.7366 3.32678C14.9183 3.19318 15.1603 3.21353 15.2769 3.37222C15.3934 3.53091 15.3406 3.76785 15.1587 3.90144C15.1536 3.90517 15.1484 3.90879 15.1433 3.91228C15.1628 3.92723 15.1816 3.94392 15.1993 3.96234C15.361 4.13008 15.377 4.37681 15.2352 4.51343C15.1025 4.64117 14.8789 4.6274 14.7183 4.48794Z" fill="url(#paint51_linear_4002_612)"/>
</g>
<defs>
<filter id="filter0_i_4002_612" x="4.7563" y="1.58594" width="11.6213" height="12.1769" filterUnits="userSpaceOnUse" color-interpolation-filters="sRGB">
<feFlood flood-opacity="0" result="BackgroundImageFix"/>
<feBlend mode="normal" in="SourceGraphic" in2="BackgroundImageFix" result="shape"/>
<feColorMatrix in="SourceAlpha" type="matrix" values="0 0 0 0 0 0 0 0 0 0 0 0 0 0 0 0 0 0 127 0" result="hardAlpha"/>
<feOffset dx="-0.2" dy="-0.5"/>
<feGaussianBlur stdDeviation="0.625"/>
<feComposite in2="hardAlpha" operator="arithmetic" k2="-1" k3="1"/>
<feColorMatrix type="matrix" values="0 0 0 0 0.215686 0 0 0 0 0.184314 0 0 0 0 0.2 0 0 0 1 0"/>
<feBlend mode="normal" in2="shape" result="effect1_innerShadow_4002_612"/>
</filter>
<filter id="filter1_i_4002_612" x="16.9658" y="21.1094" width="6.40063" height="8.77344" filterUnits="userSpaceOnUse" color-interpolation-filters="sRGB">
<feFlood flood-opacity="0" result="BackgroundImageFix"/>
<feBlend mode="normal" in="SourceGraphic" in2="BackgroundImageFix" result="shape"/>
<feColorMatrix in="SourceAlpha" type="matrix" values="0 0 0 0 0 0 0 0 0 0 0 0 0 0 0 0 0 0 127 0" result="hardAlpha"/>
<feOffset dx="1" dy="-0.5"/>
<feGaussianBlur stdDeviation="0.625"/>
<feComposite in2="hardAlpha" operator="arithmetic" k2="-1" k3="1"/>
<feColorMatrix type="matrix" values="0 0 0 0 0.470588 0 0 0 0 0.262745 0 0 0 0 0.313726 0 0 0 1 0"/>
<feBlend mode="normal" in2="shape" result="effect1_innerShadow_4002_612"/>
</filter>
<filter id="filter2_i_4002_612" x="19.082" y="27.4352" width="4.03445" height="2.44763" filterUnits="userSpaceOnUse" color-interpolation-filters="sRGB">
<feFlood flood-opacity="0" result="BackgroundImageFix"/>
<feBlend mode="normal" in="SourceGraphic" in2="BackgroundImageFix" result="shape"/>
<feColorMatrix in="SourceAlpha" type="matrix" values="0 0 0 0 0 0 0 0 0 0 0 0 0 0 0 0 0 0 127 0" result="hardAlpha"/>
<feOffset dx="0.75" dy="-0.1"/>
<feGaussianBlur stdDeviation="0.375"/>
<feComposite in2="hardAlpha" operator="arithmetic" k2="-1" k3="1"/>
<feColorMatrix type="matrix" values="0 0 0 0 0.85098 0 0 0 0 0.219608 0 0 0 0 0.298039 0 0 0 1 0"/>
<feBlend mode="normal" in2="shape" result="effect1_innerShadow_4002_612"/>
</filter>
<filter id="filter3_ii_4002_612" x="14.7314" y="2.93408" width="8.25299" height="7.77673" filterUnits="userSpaceOnUse" color-interpolation-filters="sRGB">
<feFlood flood-opacity="0" result="BackgroundImageFix"/>
<feBlend mode="normal" in="SourceGraphic" in2="BackgroundImageFix" result="shape"/>
<feColorMatrix in="SourceAlpha" type="matrix" values="0 0 0 0 0 0 0 0 0 0 0 0 0 0 0 0 0 0 127 0" result="hardAlpha"/>
<feOffset/>
<feGaussianBlur stdDeviation="0.5"/>
<feComposite in2="hardAlpha" operator="arithmetic" k2="-1" k3="1"/>
<feColorMatrix type="matrix" values="0 0 0 0 0.435294 0 0 0 0 0.266667 0 0 0 0 0.25098 0 0 0 1 0"/>
<feBlend mode="normal" in2="shape" result="effect1_innerShadow_4002_612"/>
<feColorMatrix in="SourceAlpha" type="matrix" values="0 0 0 0 0 0 0 0 0 0 0 0 0 0 0 0 0 0 127 0" result="hardAlpha"/>
<feOffset dy="-0.25"/>
<feGaussianBlur stdDeviation="0.375"/>
<feComposite in2="hardAlpha" operator="arithmetic" k2="-1" k3="1"/>
<feColorMatrix type="matrix" values="0 0 0 0 0.501961 0 0 0 0 0.223529 0 0 0 0 0.396078 0 0 0 1 0"/>
<feBlend mode="normal" in2="effect1_innerShadow_4002_612" result="effect2_innerShadow_4002_612"/>
</filter>
<filter id="filter4_i_4002_612" x="9.02197" y="7.9375" width="7.93005" height="8.27344" filterUnits="userSpaceOnUse" color-interpolation-filters="sRGB">
<feFlood flood-opacity="0" result="BackgroundImageFix"/>
<feBlend mode="normal" in="SourceGraphic" in2="BackgroundImageFix" result="shape"/>
<feColorMatrix in="SourceAlpha" type="matrix" values="0 0 0 0 0 0 0 0 0 0 0 0 0 0 0 0 0 0 127 0" result="hardAlpha"/>
<feOffset dx="1" dy="-0.5"/>
<feGaussianBlur stdDeviation="0.5"/>
<feComposite in2="hardAlpha" operator="arithmetic" k2="-1" k3="1"/>
<feColorMatrix type="matrix" values="0 0 0 0 0.741176 0 0 0 0 0.207843 0 0 0 0 0.262745 0 0 0 1 0"/>
<feBlend mode="normal" in2="shape" result="effect1_innerShadow_4002_612"/>
</filter>
<filter id="filter5_iii_4002_612" x="4.09238" y="13.2078" width="24.3234" height="17.2063" filterUnits="userSpaceOnUse" color-interpolation-filters="sRGB">
<feFlood flood-opacity="0" result="BackgroundImageFix"/>
<feBlend mode="normal" in="SourceGraphic" in2="BackgroundImageFix" result="shape"/>
<feColorMatrix in="SourceAlpha" type="matrix" values="0 0 0 0 0 0 0 0 0 0 0 0 0 0 0 0 0 0 127 0" result="hardAlpha"/>
<feOffset dx="-0.1" dy="-0.3"/>
<feGaussianBlur stdDeviation="0.25"/>
<feComposite in2="hardAlpha" operator="arithmetic" k2="-1" k3="1"/>
<feColorMatrix type="matrix" values="0 0 0 0 0.92549 0 0 0 0 0.27451 0 0 0 0 0.372549 0 0 0 1 0"/>
<feBlend mode="normal" in2="shape" result="effect1_innerShadow_4002_612"/>
<feColorMatrix in="SourceAlpha" type="matrix" values="0 0 0 0 0 0 0 0 0 0 0 0 0 0 0 0 0 0 127 0" result="hardAlpha"/>
<feOffset dx="0.2" dy="-0.2"/>
<feGaussianBlur stdDeviation="0.1"/>
<feComposite in2="hardAlpha" operator="arithmetic" k2="-1" k3="1"/>
<feColorMatrix type="matrix" values="0 0 0 0 0.866667 0 0 0 0 0.2 0 0 0 0 0.380392 0 0 0 1 0"/>
<feBlend mode="normal" in2="effect1_innerShadow_4002_612" result="effect2_innerShadow_4002_612"/>
<feColorMatrix in="SourceAlpha" type="matrix" values="0 0 0 0 0 0 0 0 0 0 0 0 0 0 0 0 0 0 127 0" result="hardAlpha"/>
<feOffset dy="0.5"/>
<feGaussianBlur stdDeviation="0.5"/>
<feComposite in2="hardAlpha" operator="arithmetic" k2="-1" k3="1"/>
<feColorMatrix type="matrix" values="0 0 0 0 0.862745 0 0 0 0 0.141176 0 0 0 0 0.282353 0 0 0 1 0"/>
<feBlend mode="normal" in2="effect2_innerShadow_4002_612" result="effect3_innerShadow_4002_612"/>
</filter>
<filter id="filter6_i_4002_612" x="4.11426" y="15.457" width="2.21796" height="2.72296" filterUnits="userSpaceOnUse" color-interpolation-filters="sRGB">
<feFlood flood-opacity="0" result="BackgroundImageFix"/>
<feBlend mode="normal" in="SourceGraphic" in2="BackgroundImageFix" result="shape"/>
<feColorMatrix in="SourceAlpha" type="matrix" values="0 0 0 0 0 0 0 0 0 0 0 0 0 0 0 0 0 0 127 0" result="hardAlpha"/>
<feOffset dx="0.75" dy="0.5"/>
<feGaussianBlur stdDeviation="0.25"/>
<feComposite in2="hardAlpha" operator="arithmetic" k2="-1" k3="1"/>
<feColorMatrix type="matrix" values="0 0 0 0 0.345098 0 0 0 0 0.145098 0 0 0 0 0.152941 0 0 0 1 0"/>
<feBlend mode="normal" in2="shape" result="effect1_innerShadow_4002_612"/>
</filter>
<filter id="filter7_ii_4002_612" x="3.68418" y="8.78257" width="7.27404" height="8.99771" filterUnits="userSpaceOnUse" color-interpolation-filters="sRGB">
<feFlood flood-opacity="0" result="BackgroundImageFix"/>
<feBlend mode="normal" in="SourceGraphic" in2="BackgroundImageFix" result="shape"/>
<feColorMatrix in="SourceAlpha" type="matrix" values="0 0 0 0 0 0 0 0 0 0 0 0 0 0 0 0 0 0 127 0" result="hardAlpha"/>
<feOffset/>
<feGaussianBlur stdDeviation="0.5"/>
<feComposite in2="hardAlpha" operator="arithmetic" k2="-1" k3="1"/>
<feColorMatrix type="matrix" values="0 0 0 0 0.388235 0 0 0 0 0.27451 0 0 0 0 0.219608 0 0 0 1 0"/>
<feBlend mode="normal" in2="shape" result="effect1_innerShadow_4002_612"/>
<feColorMatrix in="SourceAlpha" type="matrix" values="0 0 0 0 0 0 0 0 0 0 0 0 0 0 0 0 0 0 127 0" result="hardAlpha"/>
<feOffset dx="-0.1" dy="-0.1"/>
<feGaussianBlur stdDeviation="0.25"/>
<feComposite in2="hardAlpha" operator="arithmetic" k2="-1" k3="1"/>
<feColorMatrix type="matrix" values="0 0 0 0 0.509804 0 0 0 0 0.266667 0 0 0 0 0.360784 0 0 0 1 0"/>
<feBlend mode="normal" in2="effect1_innerShadow_4002_612" result="effect2_innerShadow_4002_612"/>
</filter>
<filter id="filter8_i_4002_612" x="9.40674" y="5.36499" width="1.6007" height="1.5007" filterUnits="userSpaceOnUse" color-interpolation-filters="sRGB">
<feFlood flood-opacity="0" result="BackgroundImageFix"/>
<feBlend mode="normal" in="SourceGraphic" in2="BackgroundImageFix" result="shape"/>
<feColorMatrix in="SourceAlpha" type="matrix" values="0 0 0 0 0 0 0 0 0 0 0 0 0 0 0 0 0 0 127 0" result="hardAlpha"/>
<feOffset dx="0.1"/>
<feGaussianBlur stdDeviation="0.05"/>
<feComposite in2="hardAlpha" operator="arithmetic" k2="-1" k3="1"/>
<feColorMatrix type="matrix" values="0 0 0 0 0.482353 0 0 0 0 0.368627 0 0 0 0 0.341176 0 0 0 1 0"/>
<feBlend mode="normal" in2="shape" result="effect1_innerShadow_4002_612"/>
</filter>
<filter id="filter9_f_4002_612" x="13.8923" y="5.41426" width="1.40177" height="1.40177" filterUnits="userSpaceOnUse" color-interpolation-filters="sRGB">
<feFlood flood-opacity="0" result="BackgroundImageFix"/>
<feBlend mode="normal" in="SourceGraphic" in2="BackgroundImageFix" result="shape"/>
<feGaussianBlur stdDeviation="0.1" result="effect1_foregroundBlur_4002_612"/>
</filter>
<filter id="filter10_f_4002_612" x="9.56528" y="5.51426" width="1.20177" height="1.20177" filterUnits="userSpaceOnUse" color-interpolation-filters="sRGB">
<feFlood flood-opacity="0" result="BackgroundImageFix"/>
<feBlend mode="normal" in="SourceGraphic" in2="BackgroundImageFix" result="shape"/>
<feGaussianBlur stdDeviation="0.05" result="effect1_foregroundBlur_4002_612"/>
</filter>
<filter id="filter11_i_4002_612" x="9.96606" y="3.82715" width="5.15226" height="5.07211" filterUnits="userSpaceOnUse" color-interpolation-filters="sRGB">
<feFlood flood-opacity="0" result="BackgroundImageFix"/>
<feBlend mode="normal" in="SourceGraphic" in2="BackgroundImageFix" result="shape"/>
<feColorMatrix in="SourceAlpha" type="matrix" values="0 0 0 0 0 0 0 0 0 0 0 0 0 0 0 0 0 0 127 0" result="hardAlpha"/>
<feOffset dx="0.4"/>
<feGaussianBlur stdDeviation="0.2"/>
<feComposite in2="hardAlpha" operator="arithmetic" k2="-1" k3="1"/>
<feColorMatrix type="matrix" values="0 0 0 0 0.521569 0 0 0 0 0.380392 0 0 0 0 0.345098 0 0 0 1 0"/>
<feBlend mode="normal" in2="shape" result="effect1_innerShadow_4002_612"/>
</filter>
<filter id="filter12_f_4002_612" x="11.5786" y="5.62964" width="1.37543" height="1.75061" filterUnits="userSpaceOnUse" color-interpolation-filters="sRGB">
<feFlood flood-opacity="0" result="BackgroundImageFix"/>
<feBlend mode="normal" in="SourceGraphic" in2="BackgroundImageFix" result="shape"/>
<feGaussianBlur stdDeviation="0.125" result="effect1_foregroundBlur_4002_612"/>
</filter>
<filter id="filter13_f_4002_612" x="11.472" y="7.20342" width="1.73995" height="0.725061" filterUnits="userSpaceOnUse" color-interpolation-filters="sRGB">
<feFlood flood-opacity="0" result="BackgroundImageFix"/>
<feBlend mode="normal" in="SourceGraphic" in2="BackgroundImageFix" result="shape"/>
<feGaussianBlur stdDeviation="0.025" result="effect1_foregroundBlur_4002_612"/>
</filter>
<filter id="filter14_i_4002_612" x="12.6745" y="5.45996" width="1.50637" height="0.599426" filterUnits="userSpaceOnUse" color-interpolation-filters="sRGB">
<feFlood flood-opacity="0" result="BackgroundImageFix"/>
<feBlend mode="normal" in="SourceGraphic" in2="BackgroundImageFix" result="shape"/>
<feColorMatrix in="SourceAlpha" type="matrix" values="0 0 0 0 0 0 0 0 0 0 0 0 0 0 0 0 0 0 127 0" result="hardAlpha"/>
<feOffset dx="-0.2"/>
<feGaussianBlur stdDeviation="0.2"/>
<feComposite in2="hardAlpha" operator="arithmetic" k2="-1" k3="1"/>
<feColorMatrix type="matrix" values="0 0 0 0 0.141176 0 0 0 0 0.0862745 0 0 0 0 0.176471 0 0 0 1 0"/>
<feBlend mode="normal" in2="shape" result="effect1_innerShadow_4002_612"/>
</filter>
<filter id="filter15_i_4002_612" x="10.5032" y="5.45996" width="1.50637" height="0.599426" filterUnits="userSpaceOnUse" color-interpolation-filters="sRGB">
<feFlood flood-opacity="0" result="BackgroundImageFix"/>
<feBlend mode="normal" in="SourceGraphic" in2="BackgroundImageFix" result="shape"/>
<feColorMatrix in="SourceAlpha" type="matrix" values="0 0 0 0 0 0 0 0 0 0 0 0 0 0 0 0 0 0 127 0" result="hardAlpha"/>
<feOffset dx="0.2"/>
<feGaussianBlur stdDeviation="0.125"/>
<feComposite in2="hardAlpha" operator="arithmetic" k2="-1" k3="1"/>
<feColorMatrix type="matrix" values="0 0 0 0 0.133333 0 0 0 0 0.0784314 0 0 0 0 0.168627 0 0 0 1 0"/>
<feBlend mode="normal" in2="shape" result="effect1_innerShadow_4002_612"/>
</filter>
<filter id="filter16_i_4002_612" x="10.5659" y="4.6894" width="1.25051" height="0.615497" filterUnits="userSpaceOnUse" color-interpolation-filters="sRGB">
<feFlood flood-opacity="0" result="BackgroundImageFix"/>
<feBlend mode="normal" in="SourceGraphic" in2="BackgroundImageFix" result="shape"/>
<feColorMatrix in="SourceAlpha" type="matrix" values="0 0 0 0 0 0 0 0 0 0 0 0 0 0 0 0 0 0 127 0" result="hardAlpha"/>
<feOffset dx="0.2" dy="-0.2"/>
<feGaussianBlur stdDeviation="0.15"/>
<feComposite in2="hardAlpha" operator="arithmetic" k2="-1" k3="1"/>
<feColorMatrix type="matrix" values="0 0 0 0 0.0431373 0 0 0 0 0.0431373 0 0 0 0 0.0470588 0 0 0 1 0"/>
<feBlend mode="normal" in2="shape" result="effect1_innerShadow_4002_612"/>
</filter>
<filter id="filter17_i_4002_612" x="13.0925" y="4.6894" width="1.25051" height="0.615527" filterUnits="userSpaceOnUse" color-interpolation-filters="sRGB">
<feFlood flood-opacity="0" result="BackgroundImageFix"/>
<feBlend mode="normal" in="SourceGraphic" in2="BackgroundImageFix" result="shape"/>
<feColorMatrix in="SourceAlpha" type="matrix" values="0 0 0 0 0 0 0 0 0 0 0 0 0 0 0 0 0 0 127 0" result="hardAlpha"/>
<feOffset dx="0.2" dy="-0.2"/>
<feGaussianBlur stdDeviation="0.15"/>
<feComposite in2="hardAlpha" operator="arithmetic" k2="-1" k3="1"/>
<feColorMatrix type="matrix" values="0 0 0 0 0.0431373 0 0 0 0 0.0431373 0 0 0 0 0.0470588 0 0 0 1 0"/>
<feBlend mode="normal" in2="shape" result="effect1_innerShadow_4002_612"/>
</filter>
<filter id="filter18_f_4002_612" x="12.9639" y="5.57865" width="0.472491" height="0.430469" filterUnits="userSpaceOnUse" color-interpolation-filters="sRGB">
<feFlood flood-opacity="0" result="BackgroundImageFix"/>
<feBlend mode="normal" in="SourceGraphic" in2="BackgroundImageFix" result="shape"/>
<feGaussianBlur stdDeviation="0.05" result="effect1_foregroundBlur_4002_612"/>
</filter>
<filter id="filter19_f_4002_612" x="13.302" y="5.55977" width="0.628088" height="0.638403" filterUnits="userSpaceOnUse" color-interpolation-filters="sRGB">
<feFlood flood-opacity="0" result="BackgroundImageFix"/>
<feBlend mode="normal" in="SourceGraphic" in2="BackgroundImageFix" result="shape"/>
<feGaussianBlur stdDeviation="0.1" result="effect1_foregroundBlur_4002_612"/>
</filter>
<filter id="filter20_f_4002_612" x="11.2302" y="5.53022" width="0.672247" height="0.697272" filterUnits="userSpaceOnUse" color-interpolation-filters="sRGB">
<feFlood flood-opacity="0" result="BackgroundImageFix"/>
<feBlend mode="normal" in="SourceGraphic" in2="BackgroundImageFix" result="shape"/>
<feGaussianBlur stdDeviation="0.1" result="effect1_foregroundBlur_4002_612"/>
</filter>
<filter id="filter21_f_4002_612" x="10.9318" y="5.57523" width="0.531116" height="0.434253" filterUnits="userSpaceOnUse" color-interpolation-filters="sRGB">
<feFlood flood-opacity="0" result="BackgroundImageFix"/>
<feBlend mode="normal" in="SourceGraphic" in2="BackgroundImageFix" result="shape"/>
<feGaussianBlur stdDeviation="0.05" result="effect1_foregroundBlur_4002_612"/>
</filter>
<filter id="filter22_f_4002_612" x="13.1216" y="4.86817" width="1.02446" height="0.426135" filterUnits="userSpaceOnUse" color-interpolation-filters="sRGB">
<feFlood flood-opacity="0" result="BackgroundImageFix"/>
<feBlend mode="normal" in="SourceGraphic" in2="BackgroundImageFix" result="shape"/>
<feGaussianBlur stdDeviation="0.05" result="effect1_foregroundBlur_4002_612"/>
</filter>
<filter id="filter23_f_4002_612" x="10.5793" y="4.86817" width="1.02446" height="0.426135" filterUnits="userSpaceOnUse" color-interpolation-filters="sRGB">
<feFlood flood-opacity="0" result="BackgroundImageFix"/>
<feBlend mode="normal" in="SourceGraphic" in2="BackgroundImageFix" result="shape"/>
<feGaussianBlur stdDeviation="0.05" result="effect1_foregroundBlur_4002_612"/>
</filter>
<filter id="filter24_f_4002_612" x="9.53892" y="2.99473" width="1.74889" height="2.01784" filterUnits="userSpaceOnUse" color-interpolation-filters="sRGB">
<feFlood flood-opacity="0" result="BackgroundImageFix"/>
<feBlend mode="normal" in="SourceGraphic" in2="BackgroundImageFix" result="shape"/>
<feGaussianBlur stdDeviation="0.05" result="effect1_foregroundBlur_4002_612"/>
</filter>
<filter id="filter25_if_4002_612" x="10.672" y="2.20166" width="4.10634" height="2.95025" filterUnits="userSpaceOnUse" color-interpolation-filters="sRGB">
<feFlood flood-opacity="0" result="BackgroundImageFix"/>
<feBlend mode="normal" in="SourceGraphic" in2="BackgroundImageFix" result="shape"/>
<feColorMatrix in="SourceAlpha" type="matrix" values="0 0 0 0 0 0 0 0 0 0 0 0 0 0 0 0 0 0 127 0" result="hardAlpha"/>
<feOffset dy="-0.25"/>
<feGaussianBlur stdDeviation="0.25"/>
<feComposite in2="hardAlpha" operator="arithmetic" k2="-1" k3="1"/>
<feColorMatrix type="matrix" values="0 0 0 0 0.168627 0 0 0 0 0.0823529 0 0 0 0 0.129412 0 0 0 1 0"/>
<feBlend mode="normal" in2="shape" result="effect1_innerShadow_4002_612"/>
<feGaussianBlur stdDeviation="0.05" result="effect2_foregroundBlur_4002_612"/>
</filter>
<filter id="filter26_f_4002_612" x="10.672" y="2.35166" width="4.10634" height="2.80025" filterUnits="userSpaceOnUse" color-interpolation-filters="sRGB">
<feFlood flood-opacity="0" result="BackgroundImageFix"/>
<feBlend mode="normal" in="SourceGraphic" in2="BackgroundImageFix" result="shape"/>
<feGaussianBlur stdDeviation="0.05" result="effect1_foregroundBlur_4002_612"/>
</filter>
<filter id="filter27_ii_4002_612" x="12.9493" y="2.43945" width="2.95742" height="3.03674" filterUnits="userSpaceOnUse" color-interpolation-filters="sRGB">
<feFlood flood-opacity="0" result="BackgroundImageFix"/>
<feBlend mode="normal" in="SourceGraphic" in2="BackgroundImageFix" result="shape"/>
<feColorMatrix in="SourceAlpha" type="matrix" values="0 0 0 0 0 0 0 0 0 0 0 0 0 0 0 0 0 0 127 0" result="hardAlpha"/>
<feOffset/>
<feGaussianBlur stdDeviation="0.125"/>
<feComposite in2="hardAlpha" operator="arithmetic" k2="-1" k3="1"/>
<feColorMatrix type="matrix" values="0 0 0 0 0.831373 0 0 0 0 0.341176 0 0 0 0 0.223529 0 0 0 1 0"/>
<feBlend mode="normal" in2="shape" result="effect1_innerShadow_4002_612"/>
<feColorMatrix in="SourceAlpha" type="matrix" values="0 0 0 0 0 0 0 0 0 0 0 0 0 0 0 0 0 0 127 0" result="hardAlpha"/>
<feOffset dx="-0.1" dy="0.1"/>
<feGaussianBlur stdDeviation="0.15"/>
<feComposite in2="hardAlpha" operator="arithmetic" k2="-1" k3="1"/>
<feColorMatrix type="matrix" values="0 0 0 0 0.917647 0 0 0 0 0.247059 0 0 0 0 0.32549 0 0 0 1 0"/>
<feBlend mode="normal" in2="effect1_innerShadow_4002_612" result="effect2_innerShadow_4002_612"/>
</filter>
<filter id="filter28_ii_4002_612" x="13.4455" y="3.02686" width="1.89332" height="1.93253" filterUnits="userSpaceOnUse" color-interpolation-filters="sRGB">
<feFlood flood-opacity="0" result="BackgroundImageFix"/>
<feBlend mode="normal" in="SourceGraphic" in2="BackgroundImageFix" result="shape"/>
<feColorMatrix in="SourceAlpha" type="matrix" values="0 0 0 0 0 0 0 0 0 0 0 0 0 0 0 0 0 0 127 0" result="hardAlpha"/>
<feOffset dx="-0.15" dy="0.15"/>
<feGaussianBlur stdDeviation="0.125"/>
<feComposite in2="hardAlpha" operator="arithmetic" k2="-1" k3="1"/>
<feColorMatrix type="matrix" values="0 0 0 0 0.815686 0 0 0 0 0.266667 0 0 0 0 0.345098 0 0 0 1 0"/>
<feBlend mode="normal" in2="shape" result="effect1_innerShadow_4002_612"/>
<feColorMatrix in="SourceAlpha" type="matrix" values="0 0 0 0 0 0 0 0 0 0 0 0 0 0 0 0 0 0 127 0" result="hardAlpha"/>
<feOffset/>
<feGaussianBlur stdDeviation="0.125"/>
<feComposite in2="hardAlpha" operator="arithmetic" k2="-1" k3="1"/>
<feColorMatrix type="matrix" values="0 0 0 0 0.74902 0 0 0 0 0.0627451 0 0 0 0 0.219608 0 0 0 1 0"/>
<feBlend mode="normal" in2="effect1_innerShadow_4002_612" result="effect2_innerShadow_4002_612"/>
</filter>
<radialGradient id="paint0_radial_4002_612" cx="0" cy="0" r="1" gradientUnits="userSpaceOnUse" gradientTransform="translate(15.1566 2.9891) rotate(121.275) scale(3.89505 8.65362)">
<stop stop-color="#473A3E"/>
<stop offset="1" stop-color="#200E23"/>
</radialGradient>
<radialGradient id="paint1_radial_4002_612" cx="0" cy="0" r="1" gradientUnits="userSpaceOnUse" gradientTransform="translate(16.3777 8.0502) rotate(167.39) scale(1.39146 1.55201)">
<stop stop-color="#242223"/>
<stop offset="1" stop-color="#242223" stop-opacity="0"/>
</radialGradient>
<linearGradient id="paint2_linear_4002_612" x1="21.6305" y1="20.7561" x2="12.1916" y2="31.0595" gradientUnits="userSpaceOnUse">
<stop stop-color="#911C39"/>
<stop offset="1" stop-color="#9A3037"/>
</linearGradient>
<linearGradient id="paint3_linear_4002_612" x1="9.97422" y1="24.5937" x2="19.5365" y2="28.553" gradientUnits="userSpaceOnUse">
<stop stop-color="#851E29"/>
<stop offset="1" stop-color="#851E29" stop-opacity="0"/>
</linearGradient>
<radialGradient id="paint4_radial_4002_612" cx="0" cy="0" r="1" gradientUnits="userSpaceOnUse" gradientTransform="translate(8.62975 27.8556) rotate(113.219) scale(4.38459 2.08284)">
<stop stop-color="#6C1118"/>
<stop offset="1" stop-color="#6C1118" stop-opacity="0"/>
</radialGradient>
<linearGradient id="paint5_linear_4002_612" x1="11.1264" y1="27.4761" x2="8.78516" y2="26.9341" gradientUnits="userSpaceOnUse">
<stop stop-color="#7F4E5C"/>
<stop offset="1" stop-color="#612F33"/>
</linearGradient>
<linearGradient id="paint6_linear_4002_612" x1="8.40759" y1="27.3774" x2="8.90759" y2="27.6587" gradientUnits="userSpaceOnUse">
<stop offset="0.22118" stop-color="#6F423C"/>
<stop offset="1" stop-color="#6F423C" stop-opacity="0"/>
</linearGradient>
<radialGradient id="paint7_radial_4002_612" cx="0" cy="0" r="1" gradientUnits="userSpaceOnUse" gradientTransform="translate(10.2429 27.9014) rotate(117.071) scale(2.08793 1.98277)">
<stop stop-color="#EE3148"/>
<stop offset="1" stop-color="#CC2E32"/>
</radialGradient>
<radialGradient id="paint8_radial_4002_612" cx="0" cy="0" r="1" gradientUnits="userSpaceOnUse" gradientTransform="translate(20.3766 7.22107) rotate(90) scale(4.07276 1.17167)">
<stop stop-color="#936B63"/>
<stop offset="1" stop-color="#7B4E4B" stop-opacity="0"/>
</radialGradient>
<radialGradient id="paint9_radial_4002_612" cx="0" cy="0" r="1" gradientUnits="userSpaceOnUse" gradientTransform="translate(20.6891 3.47107) rotate(146.31) scale(0.676041 0.474528)">
<stop stop-color="#94756C"/>
<stop offset="1" stop-color="#94756C" stop-opacity="0"/>
</radialGradient>
<radialGradient id="paint10_radial_4002_612" cx="0" cy="0" r="1" gradientUnits="userSpaceOnUse" gradientTransform="translate(15.2783 14.8359) rotate(-132.211) scale(7.72103 6.88334)">
<stop stop-color="#FF3B57"/>
<stop offset="1" stop-color="#E9283F"/>
</radialGradient>
<radialGradient id="paint11_radial_4002_612" cx="0" cy="0" r="1" gradientUnits="userSpaceOnUse" gradientTransform="translate(9.84082 12.3242) rotate(-8.32052) scale(3.15824 5.53657)">
<stop offset="0.481331" stop-color="#D62645"/>
<stop offset="1" stop-color="#D62645" stop-opacity="0"/>
</radialGradient>
<radialGradient id="paint12_radial_4002_612" cx="0" cy="0" r="1" gradientUnits="userSpaceOnUse" gradientTransform="translate(16.1533 9.86719) rotate(180) scale(5.4375 4.28125)">
<stop offset="0.143678" stop-color="#FF4660"/>
<stop offset="1" stop-color="#FF4660" stop-opacity="0"/>
</radialGradient>
<radialGradient id="paint13_radial_4002_612" cx="0" cy="0" r="1" gradientUnits="userSpaceOnUse" gradientTransform="translate(15.952 12.7109) rotate(173.344) scale(2.15699 1.96837)">
<stop stop-color="#F22B4E"/>
<stop offset="1" stop-color="#F22B4E" stop-opacity="0"/>
</radialGradient>
<radialGradient id="paint14_radial_4002_612" cx="0" cy="0" r="1" gradientUnits="userSpaceOnUse" gradientTransform="translate(11.3928 7.35772) rotate(91.1124) scale(2.8878 5.12554)">
<stop stop-color="#921C39"/>
<stop offset="1" stop-color="#921C39" stop-opacity="0"/>
</radialGradient>
<radialGradient id="paint15_radial_4002_612" cx="0" cy="0" r="1" gradientUnits="userSpaceOnUse" gradientTransform="translate(10.8721 16.9297) rotate(45.4961) scale(10.2092 15.8767)">
<stop stop-color="#D42F4E"/>
<stop offset="1" stop-color="#DA2E3D"/>
</radialGradient>
<linearGradient id="paint16_linear_4002_612" x1="28.2158" y1="17.3672" x2="16.2041" y2="17.3672" gradientUnits="userSpaceOnUse">
<stop offset="0.218536" stop-color="#DB2F4A"/>
<stop offset="1" stop-color="#DB2F4A" stop-opacity="0"/>
</linearGradient>
<radialGradient id="paint17_radial_4002_612" cx="0" cy="0" r="1" gradientUnits="userSpaceOnUse" gradientTransform="translate(27.0596 16.6484) rotate(-78.8453) scale(4.52294 3.89161)">
<stop offset="0.370346" stop-color="#E73E59"/>
<stop offset="1" stop-color="#E73E59" stop-opacity="0"/>
</radialGradient>
<radialGradient id="paint18_radial_4002_612" cx="0" cy="0" r="1" gradientUnits="userSpaceOnUse" gradientTransform="translate(4.78839 29.2521) rotate(-31.0322) scale(5.51406 12.95)">
<stop stop-color="#D32659"/>
<stop offset="1" stop-color="#D32659" stop-opacity="0"/>
</radialGradient>
<radialGradient id="paint19_radial_4002_612" cx="0" cy="0" r="1" gradientUnits="userSpaceOnUse" gradientTransform="translate(28.2158 17.4975) rotate(-80.0959) scale(4.71837 2.47189)">
<stop stop-color="#B01B4B"/>
<stop offset="1" stop-color="#B01B4B" stop-opacity="0"/>
</radialGradient>
<radialGradient id="paint20_radial_4002_612" cx="0" cy="0" r="1" gradientUnits="userSpaceOnUse" gradientTransform="translate(11.236 9.28368) rotate(154.087) scale(3.68276 0.811548)">
<stop offset="0.163466" stop-color="#99756C"/>
<stop offset="1" stop-color="#745447" stop-opacity="0"/>
</radialGradient>
<radialGradient id="paint21_radial_4002_612" cx="0" cy="0" r="1" gradientUnits="userSpaceOnUse" gradientTransform="translate(13.5799 10.3612) rotate(-113.315) scale(2.04371 2.63722)">
<stop stop-color="#926D61"/>
<stop offset="1" stop-color="#6D4F42"/>
</radialGradient>
<radialGradient id="paint22_radial_4002_612" cx="0" cy="0" r="1" gradientUnits="userSpaceOnUse" gradientTransform="translate(11.7471 8.48437) rotate(47.2906) scale(1.79682 5.00055)">
<stop stop-color="#562D26"/>
<stop offset="1" stop-color="#562D26" stop-opacity="0"/>
</radialGradient>
<linearGradient id="paint23_linear_4002_612" x1="9.68999" y1="5.89905" x2="10.1571" y2="6.8657" gradientUnits="userSpaceOnUse">
<stop stop-color="#624543"/>
<stop offset="1" stop-color="#663C4D"/>
</linearGradient>
<radialGradient id="paint24_radial_4002_612" cx="0" cy="0" r="1" gradientUnits="userSpaceOnUse" gradientTransform="translate(15.152 5.78808) rotate(135.339) scale(0.736726 0.505561)">
<stop stop-color="#8C726A"/>
<stop offset="1" stop-color="#795354"/>
</radialGradient>
<radialGradient id="paint25_radial_4002_612" cx="0" cy="0" r="1" gradientUnits="userSpaceOnUse" gradientTransform="translate(14.5932 6.11514) rotate(90) scale(0.500885)">
<stop stop-color="#755252"/>
<stop offset="1" stop-color="#734945"/>
</radialGradient>
<radialGradient id="paint26_radial_4002_612" cx="0" cy="0" r="1" gradientUnits="userSpaceOnUse" gradientTransform="translate(9.99212 5.98823) rotate(106.949) scale(0.676709)">
<stop offset="0.342373" stop-color="#5D3A3F"/>
<stop offset="1" stop-color="#654342"/>
</radialGradient>
<radialGradient id="paint27_radial_4002_612" cx="0" cy="0" r="1" gradientUnits="userSpaceOnUse" gradientTransform="translate(13.2595 6.36321) rotate(150.368) scale(2.75189 3.83954)">
<stop stop-color="#896053"/>
<stop offset="1" stop-color="#794F52"/>
</radialGradient>
<radialGradient id="paint28_radial_4002_612" cx="0" cy="0" r="1" gradientUnits="userSpaceOnUse" gradientTransform="translate(12.3422 5.35652) rotate(90) scale(3.54276 4.67289)">
<stop offset="0.657774" stop-color="#774658" stop-opacity="0"/>
<stop offset="0.998841" stop-color="#693945"/>
</radialGradient>
<radialGradient id="paint29_radial_4002_612" cx="0" cy="0" r="1" gradientUnits="userSpaceOnUse" gradientTransform="translate(14.4185 4.49343) rotate(146.659) scale(1.12167 1.78497)">
<stop stop-color="#73544F"/>
<stop offset="1" stop-color="#73544F" stop-opacity="0"/>
</radialGradient>
<radialGradient id="paint30_radial_4002_612" cx="0" cy="0" r="1" gradientUnits="userSpaceOnUse" gradientTransform="translate(10.8675 3.95092) rotate(46.7355) scale(0.575682 2.20161)">
<stop offset="0.266861" stop-color="#4B2526"/>
<stop offset="1" stop-color="#7C4F55" stop-opacity="0"/>
</radialGradient>
<radialGradient id="paint31_radial_4002_612" cx="0" cy="0" r="1" gradientUnits="userSpaceOnUse" gradientTransform="translate(13.6373 4.50633) rotate(134.662) scale(1.94071 1.24456)">
<stop offset="0.256293" stop-color="#7B5958"/>
<stop offset="1" stop-color="#7B5958" stop-opacity="0"/>
</radialGradient>
<linearGradient id="paint32_linear_4002_612" x1="12.6798" y1="6.5461" x2="12.3099" y2="6.56459" gradientUnits="userSpaceOnUse">
<stop stop-color="#916F68"/>
<stop offset="1" stop-color="#916F68" stop-opacity="0"/>
</linearGradient>
<radialGradient id="paint33_radial_4002_612" cx="0" cy="0" r="1" gradientUnits="userSpaceOnUse" gradientTransform="translate(12.538 6.81736) rotate(-180) scale(0.376059 0.117519)">
<stop stop-color="#906D67"/>
<stop offset="1" stop-color="#906D67" stop-opacity="0"/>
</radialGradient>
<radialGradient id="paint34_radial_4002_612" cx="0" cy="0" r="1" gradientUnits="userSpaceOnUse" gradientTransform="translate(12.342 7.06554) rotate(-90) scale(0.309829 0.824845)">
<stop offset="0.243886" stop-color="#784554"/>
<stop offset="1" stop-color="#784554" stop-opacity="0"/>
</radialGradient>
<linearGradient id="paint35_linear_4002_612" x1="12.3747" y1="7.08861" x2="12.3747" y2="6.94682" gradientUnits="userSpaceOnUse">
<stop stop-color="#6E3B49"/>
<stop offset="1" stop-color="#774654" stop-opacity="0"/>
</linearGradient>
<linearGradient id="paint36_linear_4002_612" x1="12.342" y1="5.81494" x2="12.342" y2="6.55226" gradientUnits="userSpaceOnUse">
<stop stop-color="#835B53"/>
<stop offset="0.824415" stop-color="#835B53" stop-opacity="0"/>
</linearGradient>
<linearGradient id="paint37_linear_4002_612" x1="12.002" y1="7.79722" x2="12.213" y2="7.39078" gradientUnits="userSpaceOnUse">
<stop stop-color="#7F595B"/>
<stop offset="1" stop-color="#7F595B" stop-opacity="0"/>
</linearGradient>
<linearGradient id="paint38_linear_4002_612" x1="11.5343" y1="5.18354" x2="10.5659" y2="5.18354" gradientUnits="userSpaceOnUse">
<stop stop-color="#2A1D27"/>
<stop offset="1" stop-color="#2C1829"/>
</linearGradient>
<linearGradient id="paint39_linear_4002_612" x1="14.0609" y1="5.18356" x2="13.0925" y2="5.18356" gradientUnits="userSpaceOnUse">
<stop stop-color="#2A1D27"/>
<stop offset="1" stop-color="#2C1829"/>
</linearGradient>
<radialGradient id="paint40_radial_4002_612" cx="0" cy="0" r="1" gradientUnits="userSpaceOnUse" gradientTransform="translate(13.6079 5.78038) rotate(124.592) scale(0.437028 0.693271)">
<stop offset="0.622475" stop-color="#7A5449"/>
<stop offset="1" stop-color="#724C46"/>
</radialGradient>
<radialGradient id="paint41_radial_4002_612" cx="0" cy="0" r="1" gradientUnits="userSpaceOnUse" gradientTransform="translate(13.2524 5.87552) rotate(-127.812) scale(0.175657 0.241838)">
<stop offset="0.765532" stop-color="#FFE6E2" stop-opacity="0"/>
<stop offset="0.966159" stop-color="#FFE6E2"/>
</radialGradient>
<linearGradient id="paint42_linear_4002_612" x1="13.7212" y1="5.86131" x2="13.5755" y2="5.95108" gradientUnits="userSpaceOnUse">
<stop stop-color="#B4948D"/>
<stop offset="1" stop-color="#B4948D" stop-opacity="0"/>
</linearGradient>
<radialGradient id="paint43_radial_4002_612" cx="0" cy="0" r="1" gradientUnits="userSpaceOnUse" gradientTransform="translate(11.5727 5.78038) rotate(124.592) scale(0.437031 0.693276)">
<stop offset="0.622475" stop-color="#7A5449"/>
<stop offset="1" stop-color="#724C46"/>
</radialGradient>
<linearGradient id="paint44_linear_4002_612" x1="11.6702" y1="5.8612" x2="11.5245" y2="5.95097" gradientUnits="userSpaceOnUse">
<stop stop-color="#B4948D"/>
<stop offset="1" stop-color="#B4948D" stop-opacity="0"/>
</linearGradient>
<radialGradient id="paint45_radial_4002_612" cx="0" cy="0" r="1" gradientUnits="userSpaceOnUse" gradientTransform="translate(11.1903 5.93858) rotate(-90.897) scale(0.229445 0.275802)">
<stop offset="0.765532" stop-color="#FFE6E2" stop-opacity="0"/>
<stop offset="0.966159" stop-color="#FFE6E2"/>
</radialGradient>
<radialGradient id="paint46_radial_4002_612" cx="0" cy="0" r="1" gradientUnits="userSpaceOnUse" gradientTransform="translate(10.9043 3.6426) rotate(140.957) scale(2.01614 0.779412)">
<stop offset="0.0960263" stop-color="#3D2C2F"/>
<stop offset="0.769744" stop-color="#3D2C2F" stop-opacity="0"/>
</radialGradient>
<radialGradient id="paint47_radial_4002_612" cx="0" cy="0" r="1" gradientUnits="userSpaceOnUse" gradientTransform="translate(14.1966 3.68239) rotate(178.548) scale(2.7381 1.32767)">
<stop stop-color="#3F2B31"/>
<stop offset="1" stop-color="#2E1A26"/>
</radialGradient>
<radialGradient id="paint48_radial_4002_612" cx="0" cy="0" r="1" gradientUnits="userSpaceOnUse" gradientTransform="translate(11.6196 4.62892) rotate(-81.7841) scale(2.32958 5.12409)">
<stop offset="0.683372" stop-color="#45383C" stop-opacity="0"/>
<stop offset="1" stop-color="#45383C"/>
</radialGradient>
<radialGradient id="paint49_radial_4002_612" cx="0" cy="0" r="1" gradientUnits="userSpaceOnUse" gradientTransform="translate(14.3815 4.23437) rotate(-169.129) scale(1.89583 0.540155)">
<stop offset="0.226245" stop-color="#443339"/>
<stop offset="1" stop-color="#443339" stop-opacity="0"/>
</radialGradient>
<linearGradient id="paint50_linear_4002_612" x1="15.4115" y1="2.93185" x2="14.05" y2="5.2757" gradientUnits="userSpaceOnUse">
<stop stop-color="#E73950"/>
<stop offset="1" stop-color="#DC2D68"/>
</linearGradient>
<linearGradient id="paint51_linear_4002_612" x1="15.3387" y1="3.42961" x2="13.8563" y2="4.38273" gradientUnits="userSpaceOnUse">
<stop stop-color="#C9334F"/>
<stop offset="1" stop-color="#C32E4E"/>
</linearGradient>
</defs>
</svg>
