<svg width="32" height="32" viewBox="0 0 32 32" fill="none" xmlns="http://www.w3.org/2000/svg">
<g filter="url(#filter0_ii_2_1960)">
<path d="M17.2695 26.6396C17.3195 24.8021 17.0742 22.1475 16.9492 21.0693L13.4648 20.374C14.0195 23.7178 14.7929 25.8818 15.1523 26.6396C14.0898 26.374 12.5742 26.4678 11.3867 26.5225L10.9961 28.0381C12.2304 28.1631 14.3359 28.5606 14.8398 28.6865C15.4023 28.8271 17.2115 28.7719 17.2695 26.6396Z" fill="#97919F"/>
</g>
<g filter="url(#filter1_f_2_1960)">
<path d="M14.7917 21.6162C14.9304 22.5573 15.3649 24.8795 16.0307 26.954C16.0926 27.1467 16.0338 27.3582 15.8791 27.4888C15.7308 27.6139 15.5237 27.6392 15.3408 27.5746C14.6523 27.3314 13.288 27.0487 11.6042 27.2725" stroke="url(#paint0_radial_2_1960)" stroke-width="0.5"/>
</g>
<path d="M17.2695 26.6396C17.3195 24.8021 17.0742 22.1475 16.9492 21.0693L13.4648 20.374C14.0195 23.7178 14.7929 25.8818 15.1523 26.6396C14.0898 26.374 12.5742 26.4678 11.3867 26.5225L10.9961 28.0381C12.2304 28.1631 14.3359 28.5606 14.8398 28.6865C15.4023 28.8271 17.2115 28.7719 17.2695 26.6396Z" fill="url(#paint1_radial_2_1960)"/>
<g filter="url(#filter2_i_2_1960)">
<path d="M22.7644 22.1318C22.6269 22.7068 21.9571 25.5589 21.6394 26.9131C22.2121 27.145 23.0284 27.5814 23.7058 27.9209C24.0305 28.0836 24.2387 28.4163 24.149 28.7682C24.1197 28.8833 24.016 28.9639 23.8972 28.9639H20.4675C20.3284 28.9639 20.2161 28.8503 20.2175 28.7113L20.293 21.542C18.5058 21.9844 16.3557 22.3505 14.5457 21.8037C13.3457 21.4412 13.28 19.9873 13.28 18.9287L20.8894 19.0068C22.7644 19.6475 22.9363 21.4131 22.7644 22.1318Z" fill="#968BA1"/>
</g>
<path d="M22.7644 22.1318C22.6269 22.7068 21.9571 25.5589 21.6394 26.9131C22.2121 27.145 23.0284 27.5814 23.7058 27.9209C24.0305 28.0836 24.2387 28.4163 24.149 28.7682C24.1197 28.8833 24.016 28.9639 23.8972 28.9639H20.4675C20.3284 28.9639 20.2161 28.8503 20.2175 28.7113L20.293 21.542C18.5058 21.9844 16.3557 22.3505 14.5457 21.8037C13.3457 21.4412 13.28 19.9873 13.28 18.9287L20.8894 19.0068C22.7644 19.6475 22.9363 21.4131 22.7644 22.1318Z" fill="url(#paint2_linear_2_1960)"/>
<path d="M22.7644 22.1318C22.6269 22.7068 21.9571 25.5589 21.6394 26.9131C22.2121 27.145 23.0284 27.5814 23.7058 27.9209C24.0305 28.0836 24.2387 28.4163 24.149 28.7682C24.1197 28.8833 24.016 28.9639 23.8972 28.9639H20.4675C20.3284 28.9639 20.2161 28.8503 20.2175 28.7113L20.293 21.542C18.5058 21.9844 16.3557 22.3505 14.5457 21.8037C13.3457 21.4412 13.28 19.9873 13.28 18.9287L20.8894 19.0068C22.7644 19.6475 22.9363 21.4131 22.7644 22.1318Z" fill="url(#paint3_radial_2_1960)"/>
<path d="M20.2931 21.5448L20.2931 21.542C18.5059 21.9844 16.3558 22.3505 14.5458 21.8037C13.3458 21.4412 13.2802 19.9873 13.2802 18.9287L20.8895 19.0068C21.1568 19.0982 21.3895 19.2124 21.5916 19.3431L20.2931 21.5448Z" fill="url(#paint4_radial_2_1960)"/>
<g filter="url(#filter3_i_2_1960)">
<path d="M20.2299 27.5416C20.7334 27.223 21.3018 27.0064 21.6426 26.8995C21.6415 26.9041 21.6405 26.9086 21.6394 26.9131C22.072 27.0883 22.6437 27.3802 23.1895 27.6588C23.3662 27.749 23.5402 27.8379 23.7058 27.9209C24.0305 28.0836 24.2387 28.4163 24.149 28.7682C24.1197 28.8833 24.016 28.9639 23.8972 28.9639H20.4675C20.3284 28.9639 20.2161 28.8503 20.2175 28.7113L20.2299 27.5416Z" fill="#55538A"/>
<path d="M20.2299 27.5416C20.7334 27.223 21.3018 27.0064 21.6426 26.8995C21.6415 26.9041 21.6405 26.9086 21.6394 26.9131C22.072 27.0883 22.6437 27.3802 23.1895 27.6588C23.3662 27.749 23.5402 27.8379 23.7058 27.9209C24.0305 28.0836 24.2387 28.4163 24.149 28.7682C24.1197 28.8833 24.016 28.9639 23.8972 28.9639H20.4675C20.3284 28.9639 20.2161 28.8503 20.2175 28.7113L20.2299 27.5416Z" fill="url(#paint5_linear_2_1960)"/>
<path d="M20.2299 27.5416C20.7334 27.223 21.3018 27.0064 21.6426 26.8995C21.6415 26.9041 21.6405 26.9086 21.6394 26.9131C22.072 27.0883 22.6437 27.3802 23.1895 27.6588C23.3662 27.749 23.5402 27.8379 23.7058 27.9209C24.0305 28.0836 24.2387 28.4163 24.149 28.7682C24.1197 28.8833 24.016 28.9639 23.8972 28.9639H20.4675C20.3284 28.9639 20.2161 28.8503 20.2175 28.7113L20.2299 27.5416Z" fill="url(#paint6_linear_2_1960)"/>
</g>
<g filter="url(#filter4_i_2_1960)">
<path d="M10.524 25.7878L11.4089 26.5381L11.0027 28.0381C10.6121 28.236 9.65269 28.6912 8.94019 28.9287C8.39286 29.1112 8.05329 28.9887 7.88395 28.8454C7.80634 28.7798 7.81845 28.6665 7.88319 28.5881L10.1695 25.8193C10.2583 25.7119 10.4177 25.6977 10.524 25.7878Z" fill="#443C7F"/>
<path d="M10.524 25.7878L11.4089 26.5381L11.0027 28.0381C10.6121 28.236 9.65269 28.6912 8.94019 28.9287C8.39286 29.1112 8.05329 28.9887 7.88395 28.8454C7.80634 28.7798 7.81845 28.6665 7.88319 28.5881L10.1695 25.8193C10.2583 25.7119 10.4177 25.6977 10.524 25.7878Z" fill="url(#paint7_linear_2_1960)"/>
<path d="M10.524 25.7878L11.4089 26.5381L11.0027 28.0381C10.6121 28.236 9.65269 28.6912 8.94019 28.9287C8.39286 29.1112 8.05329 28.9887 7.88395 28.8454C7.80634 28.7798 7.81845 28.6665 7.88319 28.5881L10.1695 25.8193C10.2583 25.7119 10.4177 25.6977 10.524 25.7878Z" fill="url(#paint8_linear_2_1960)"/>
</g>
<rect width="1.97613" height="2.19817" transform="matrix(-0.966525 -0.256574 -0.256574 0.966525 18.1135 10.4536)" fill="url(#paint9_radial_2_1960)"/>
<rect width="1.97613" height="2.19817" transform="matrix(-0.966525 -0.256574 -0.256574 0.966525 18.1135 10.4536)" fill="url(#paint10_linear_2_1960)"/>
<path d="M18.3232 14.1513C18.4857 15.3013 18.4169 16.788 18.3075 17.6787V18.9677H13.2763C13.331 16.9052 13.8542 14.2395 14.6435 12.9208C15.3075 11.8115 16.0654 11.7451 16.6982 11.9638C17.3036 12.1474 18.12 12.7138 18.3232 14.1513Z" fill="url(#paint11_radial_2_1960)"/>
<path d="M18.3232 14.1513C18.4857 15.3013 18.4169 16.788 18.3075 17.6787V18.9677H13.2763C13.331 16.9052 13.8542 14.2395 14.6435 12.9208C15.3075 11.8115 16.0654 11.7451 16.6982 11.9638C17.3036 12.1474 18.12 12.7138 18.3232 14.1513Z" fill="url(#paint12_radial_2_1960)"/>
<path d="M18.3232 14.1513C18.4857 15.3013 18.4169 16.788 18.3075 17.6787V18.9677H13.2763C13.331 16.9052 13.8542 14.2395 14.6435 12.9208C15.3075 11.8115 16.0654 11.7451 16.6982 11.9638C17.3036 12.1474 18.12 12.7138 18.3232 14.1513Z" fill="url(#paint13_radial_2_1960)"/>
<path d="M18.3232 14.1513C18.4857 15.3013 18.4169 16.788 18.3075 17.6787V18.9677H13.2763C13.331 16.9052 13.8542 14.2395 14.6435 12.9208C15.3075 11.8115 16.0654 11.7451 16.6982 11.9638C17.3036 12.1474 18.12 12.7138 18.3232 14.1513Z" fill="url(#paint14_radial_2_1960)"/>
<g filter="url(#filter5_i_2_1960)">
<path d="M17.3151 17.1006L17.3542 16.3193L15.4636 16.1943C15.4167 16.8584 15.3464 17.7881 15.612 18.1787C15.8776 18.5693 16.3772 19.0371 17.8112 19.124C18.8425 19.1865 20.4297 19.1813 21.0808 19.1553V18.9756H21.7526L22.0925 18.7607C22.1315 18.5693 21.7034 18.1931 21.3034 18.0498C20.0495 17.6006 18.3425 17.2295 17.3151 17.1006Z" fill="#493033"/>
<path d="M17.3151 17.1006L17.3542 16.3193L15.4636 16.1943C15.4167 16.8584 15.3464 17.7881 15.612 18.1787C15.8776 18.5693 16.3772 19.0371 17.8112 19.124C18.8425 19.1865 20.4297 19.1813 21.0808 19.1553V18.9756H21.7526L22.0925 18.7607C22.1315 18.5693 21.7034 18.1931 21.3034 18.0498C20.0495 17.6006 18.3425 17.2295 17.3151 17.1006Z" fill="url(#paint15_radial_2_1960)"/>
</g>
<g filter="url(#filter6_i_2_1960)">
<path d="M21.4012 18.1709L21.3583 18.8037C21.5908 18.9854 21.8103 19.2314 21.9611 19.4121C22.0465 19.5144 22.1933 19.5404 22.3068 19.4706C22.4242 19.3984 22.4675 19.2473 22.3916 19.1323C22.08 18.6598 21.5969 18.2881 21.4012 18.1709Z" fill="#442F2E"/>
</g>
<g filter="url(#filter7_i_2_1960)">
<path d="M21.448 18.7686C21.123 18.7655 20.9324 18.947 20.8777 19.0381C21.1495 19.1824 21.377 19.414 21.5287 19.6049C21.6275 19.7294 21.8059 19.7741 21.9413 19.691C22.0774 19.6074 22.118 19.4267 22.0197 19.3009C21.7628 18.9724 21.5401 18.8114 21.448 18.7686Z" fill="#442F2E"/>
</g>
<path d="M17.7241 13.6362C17.7505 12.9512 17.2247 12.3705 16.5404 12.329C15.843 12.2867 15.2441 12.8196 15.205 13.5172L15.0496 16.2921L17.6161 16.4444L17.7241 13.6362Z" fill="url(#paint16_linear_2_1960)"/>
<path d="M17.7241 13.6362C17.7505 12.9512 17.2247 12.3705 16.5404 12.329C15.843 12.2867 15.2441 12.8196 15.205 13.5172L15.0496 16.2921L17.6161 16.4444L17.7241 13.6362Z" fill="url(#paint17_radial_2_1960)"/>
<path d="M17.7241 13.6362C17.7505 12.9512 17.2247 12.3705 16.5404 12.329C15.843 12.2867 15.2441 12.8196 15.205 13.5172L15.0496 16.2921L17.6161 16.4444L17.7241 13.6362Z" fill="url(#paint18_radial_2_1960)"/>
<path d="M17.7241 13.6362C17.7505 12.9512 17.2247 12.3705 16.5404 12.329C15.843 12.2867 15.2441 12.8196 15.205 13.5172L15.0496 16.2921L17.6161 16.4444L17.7241 13.6362Z" fill="url(#paint19_radial_2_1960)"/>
<g filter="url(#filter8_f_2_1960)">
<path d="M21.6825 21.4678L21.0262 26.96L20.7137 27.085L21.1435 21.3546C21.1647 21.0711 20.9461 20.8289 20.6619 20.8271C19.7359 20.8214 16.814 20.8271 16.12 20.8271C15.3075 20.8271 15.0262 20.5537 15.0262 20.1787C16.2189 20.1683 19.7028 20.1537 20.6903 20.1787C21.6778 20.2037 21.7293 21.0407 21.6825 21.4678Z" fill="url(#paint20_linear_2_1960)"/>
</g>
<path d="M20.208 8.88965C20.0517 8.74277 19.9788 8.4847 19.958 8.39355L19.7572 8.45948V9.58448C19.972 9.7212 20.2964 9.66502 20.3877 9.45996C20.4658 9.28418 20.4033 9.07324 20.208 8.88965Z" fill="url(#paint21_radial_2_1960)"/>
<g filter="url(#filter9_i_2_1960)">
<path d="M19.9708 7.95266C19.9322 7.15147 19.6727 6.76528 19.5505 6.65234H15.8182L15.7557 9.81594C16.6222 11.9377 19.2672 12.0287 19.6622 11.2613C20.0572 10.4938 20.0154 8.88023 19.9708 7.95266Z" fill="url(#paint22_linear_2_1960)"/>
<path d="M19.9708 7.95266C19.9322 7.15147 19.6727 6.76528 19.5505 6.65234H15.8182L15.7557 9.81594C16.6222 11.9377 19.2672 12.0287 19.6622 11.2613C20.0572 10.4938 20.0154 8.88023 19.9708 7.95266Z" fill="url(#paint23_radial_2_1960)"/>
<path d="M19.9708 7.95266C19.9322 7.15147 19.6727 6.76528 19.5505 6.65234H15.8182L15.7557 9.81594C16.6222 11.9377 19.2672 12.0287 19.6622 11.2613C20.0572 10.4938 20.0154 8.88023 19.9708 7.95266Z" fill="url(#paint24_radial_2_1960)"/>
<path d="M19.9708 7.95266C19.9322 7.15147 19.6727 6.76528 19.5505 6.65234H15.8182L15.7557 9.81594C16.6222 11.9377 19.2672 12.0287 19.6622 11.2613C20.0572 10.4938 20.0154 8.88023 19.9708 7.95266Z" fill="url(#paint25_radial_2_1960)"/>
</g>
<g filter="url(#filter10_ii_2_1960)">
<path d="M20.0903 6.60588C20.2621 6.19573 20.0737 5.76213 19.9773 5.6137C19.6102 4.94182 18.8492 4.89752 18.4105 5.09026C17.8949 5.31682 17.7413 5.4374 16.9066 5.19963C16.0702 4.96135 15.0394 5.07073 14.5004 6.03948C13.9613 7.00823 14.5472 8.09807 14.4144 8.69182C14.2816 9.28557 13.9022 9.34416 13.7621 10.0317C13.6449 10.9848 14.2347 11.6059 14.7582 11.7465C15.2816 11.8871 16.3597 11.7465 16.7113 10.8715C17.2865 9.43988 16.8954 8.76213 17.0204 8.04338C17.1454 7.32463 17.5751 7.12151 18.3564 7.27776C19.2761 7.4617 19.8617 7.1518 20.0903 6.60588Z" fill="#FFB629"/>
</g>
<g filter="url(#filter11_ii_2_1960)">
<path d="M20.0903 6.60588C20.2621 6.19573 20.0737 5.76213 19.9773 5.6137C19.6102 4.94182 18.8492 4.89752 18.4105 5.09026C17.8949 5.31682 17.7413 5.4374 16.9066 5.19963C16.0702 4.96135 15.0394 5.07073 14.5004 6.03948C13.9613 7.00823 14.5472 8.09807 14.4144 8.69182C14.2816 9.28557 13.9022 9.34416 13.7621 10.0317C13.6449 10.9848 14.2347 11.6059 14.7582 11.7465C15.2816 11.8871 16.3597 11.7465 16.7113 10.8715C17.2865 9.43988 16.8954 8.76213 17.0204 8.04338C17.1454 7.32463 17.5751 7.12151 18.3564 7.27776C19.2761 7.4617 19.8617 7.1518 20.0903 6.60588Z" fill="#241823"/>
<path d="M20.0903 6.60588C20.2621 6.19573 20.0737 5.76213 19.9773 5.6137C19.6102 4.94182 18.8492 4.89752 18.4105 5.09026C17.8949 5.31682 17.7413 5.4374 16.9066 5.19963C16.0702 4.96135 15.0394 5.07073 14.5004 6.03948C13.9613 7.00823 14.5472 8.09807 14.4144 8.69182C14.2816 9.28557 13.9022 9.34416 13.7621 10.0317C13.6449 10.9848 14.2347 11.6059 14.7582 11.7465C15.2816 11.8871 16.3597 11.7465 16.7113 10.8715C17.2865 9.43988 16.8954 8.76213 17.0204 8.04338C17.1454 7.32463 17.5751 7.12151 18.3564 7.27776C19.2761 7.4617 19.8617 7.1518 20.0903 6.60588Z" fill="url(#paint26_radial_2_1960)"/>
</g>
<path d="M17.2065 9.41263C17.2568 9.41263 17.292 9.36628 17.2851 9.31652L17.112 8.06766C17.1044 8.01253 17.0529 7.97358 16.9995 7.98941C16.6991 8.07854 16.48 8.35671 16.48 8.68606C16.48 9.08733 16.8053 9.41263 17.2065 9.41263Z" fill="url(#paint27_radial_2_1960)"/>
<path d="M17.2065 9.41263C17.2568 9.41263 17.292 9.36628 17.2851 9.31652L17.112 8.06766C17.1044 8.01253 17.0529 7.97358 16.9995 7.98941C16.6991 8.07854 16.48 8.35671 16.48 8.68606C16.48 9.08733 16.8053 9.41263 17.2065 9.41263Z" fill="url(#paint28_linear_2_1960)"/>
<path fill-rule="evenodd" clip-rule="evenodd" d="M18.7189 9.86021C18.6705 9.90949 18.6713 9.98863 18.7206 10.037C18.9587 10.2706 19.303 10.3304 19.4125 10.3416C19.4812 10.3487 19.5426 10.2987 19.5496 10.23C19.5567 10.1614 19.5067 10.1 19.438 10.0929C19.3444 10.0833 19.0716 10.0311 18.8956 9.85853C18.8464 9.81018 18.7672 9.81093 18.7189 9.86021Z" fill="#280017"/>
<g filter="url(#filter12_i_2_1960)">
<path fill-rule="evenodd" clip-rule="evenodd" d="M18.9515 7.71377C19.052 7.69363 19.135 7.69398 19.1683 7.69815C19.2505 7.70843 19.3255 7.65012 19.3357 7.56791C19.346 7.48571 19.2877 7.41074 19.2055 7.40047C19.1347 7.39161 19.0188 7.39431 18.8926 7.41962C18.7653 7.44513 18.6154 7.496 18.4845 7.59275C18.4178 7.64199 18.4037 7.73591 18.453 7.80253C18.5022 7.86915 18.5962 7.88324 18.6628 7.834C18.7475 7.77138 18.8521 7.7337 18.9515 7.71377Z" fill="#2C2929"/>
</g>
<path d="M18.4388 8.23551C18.57 8.10432 18.7878 8.07433 18.8804 8.07573L18.5776 8.54246C18.4305 8.53405 18.2749 8.3995 18.4388 8.23551Z" fill="#2F2C2D"/>
<path d="M19.4644 8.74658H18.4761C18.4761 8.35502 18.6973 8.0376 18.9702 8.0376C19.2431 8.0376 19.4644 8.35502 19.4644 8.74658Z" fill="white"/>
<path d="M18.8589 8.74658L18.8589 8.74268C18.8589 8.42231 18.9962 8.1626 19.1655 8.1626C19.3349 8.1626 19.4722 8.42231 19.4722 8.74268L19.4722 8.74658H18.8589Z" fill="url(#paint29_radial_2_1960)"/>
<path d="M19.0544 8.74658C19.0517 8.72331 19.0503 8.69912 19.0503 8.67432C19.0503 8.48878 19.129 8.33838 19.2261 8.33838C19.3232 8.33838 19.4019 8.48878 19.4019 8.67432C19.4019 8.69912 19.4004 8.72331 19.3978 8.74658H19.0544Z" fill="url(#paint30_radial_2_1960)"/>
<ellipse cx="0.0644531" cy="0.0878906" rx="0.0644531" ry="0.0878906" transform="matrix(-0.909163 0.416441 0.416441 0.909163 19.3125 8.28833)" fill="url(#paint31_linear_2_1960)"/>
<defs>
<filter id="filter0_ii_2_1960" x="10.9961" y="20.124" width="7.28007" height="8.60852" filterUnits="userSpaceOnUse" color-interpolation-filters="sRGB">
<feFlood flood-opacity="0" result="BackgroundImageFix"/>
<feBlend mode="normal" in="SourceGraphic" in2="BackgroundImageFix" result="shape"/>
<feColorMatrix in="SourceAlpha" type="matrix" values="0 0 0 0 0 0 0 0 0 0 0 0 0 0 0 0 0 0 127 0" result="hardAlpha"/>
<feOffset dx="0.25" dy="-0.25"/>
<feGaussianBlur stdDeviation="0.375"/>
<feComposite in2="hardAlpha" operator="arithmetic" k2="-1" k3="1"/>
<feColorMatrix type="matrix" values="0 0 0 0 0.517647 0 0 0 0 0.384314 0 0 0 0 0.635294 0 0 0 1 0"/>
<feBlend mode="normal" in2="shape" result="effect1_innerShadow_2_1960"/>
<feColorMatrix in="SourceAlpha" type="matrix" values="0 0 0 0 0 0 0 0 0 0 0 0 0 0 0 0 0 0 127 0" result="hardAlpha"/>
<feOffset dx="1"/>
<feGaussianBlur stdDeviation="0.5"/>
<feComposite in2="hardAlpha" operator="arithmetic" k2="-1" k3="1"/>
<feColorMatrix type="matrix" values="0 0 0 0 0.494118 0 0 0 0 0.466667 0 0 0 0 0.521569 0 0 0 1 0"/>
<feBlend mode="normal" in2="effect1_innerShadow_2_1960" result="effect2_innerShadow_2_1960"/>
</filter>
<filter id="filter1_f_2_1960" x="11.0713" y="21.0797" width="5.73363" height="7.27905" filterUnits="userSpaceOnUse" color-interpolation-filters="sRGB">
<feFlood flood-opacity="0" result="BackgroundImageFix"/>
<feBlend mode="normal" in="SourceGraphic" in2="BackgroundImageFix" result="shape"/>
<feGaussianBlur stdDeviation="0.25" result="effect1_foregroundBlur_2_1960"/>
</filter>
<filter id="filter2_i_2_1960" x="13.28" y="18.9287" width="11.6399" height="10.1352" filterUnits="userSpaceOnUse" color-interpolation-filters="sRGB">
<feFlood flood-opacity="0" result="BackgroundImageFix"/>
<feBlend mode="normal" in="SourceGraphic" in2="BackgroundImageFix" result="shape"/>
<feColorMatrix in="SourceAlpha" type="matrix" values="0 0 0 0 0 0 0 0 0 0 0 0 0 0 0 0 0 0 127 0" result="hardAlpha"/>
<feOffset dx="0.75" dy="0.1"/>
<feGaussianBlur stdDeviation="0.375"/>
<feComposite in2="hardAlpha" operator="arithmetic" k2="-1" k3="1"/>
<feColorMatrix type="matrix" values="0 0 0 0 0.517647 0 0 0 0 0.490196 0 0 0 0 0.545098 0 0 0 1 0"/>
<feBlend mode="normal" in2="shape" result="effect1_innerShadow_2_1960"/>
</filter>
<filter id="filter3_i_2_1960" x="20.2175" y="26.8995" width="4.35239" height="2.36433" filterUnits="userSpaceOnUse" color-interpolation-filters="sRGB">
<feFlood flood-opacity="0" result="BackgroundImageFix"/>
<feBlend mode="normal" in="SourceGraphic" in2="BackgroundImageFix" result="shape"/>
<feColorMatrix in="SourceAlpha" type="matrix" values="0 0 0 0 0 0 0 0 0 0 0 0 0 0 0 0 0 0 127 0" result="hardAlpha"/>
<feOffset dx="0.4" dy="0.3"/>
<feGaussianBlur stdDeviation="0.25"/>
<feComposite in2="hardAlpha" operator="arithmetic" k2="-1" k3="1"/>
<feColorMatrix type="matrix" values="0 0 0 0 0.254902 0 0 0 0 0.254902 0 0 0 0 0.443137 0 0 0 1 0"/>
<feBlend mode="normal" in2="shape" result="effect1_innerShadow_2_1960"/>
</filter>
<filter id="filter4_i_2_1960" x="7.83011" y="25.4785" width="3.57883" height="3.54199" filterUnits="userSpaceOnUse" color-interpolation-filters="sRGB">
<feFlood flood-opacity="0" result="BackgroundImageFix"/>
<feBlend mode="normal" in="SourceGraphic" in2="BackgroundImageFix" result="shape"/>
<feColorMatrix in="SourceAlpha" type="matrix" values="0 0 0 0 0 0 0 0 0 0 0 0 0 0 0 0 0 0 127 0" result="hardAlpha"/>
<feOffset dy="-0.25"/>
<feGaussianBlur stdDeviation="0.25"/>
<feComposite in2="hardAlpha" operator="arithmetic" k2="-1" k3="1"/>
<feColorMatrix type="matrix" values="0 0 0 0 0.247059 0 0 0 0 0.168627 0 0 0 0 0.486275 0 0 0 1 0"/>
<feBlend mode="normal" in2="shape" result="effect1_innerShadow_2_1960"/>
</filter>
<filter id="filter5_i_2_1960" x="15.4187" y="15.9943" width="6.87629" height="3.17925" filterUnits="userSpaceOnUse" color-interpolation-filters="sRGB">
<feFlood flood-opacity="0" result="BackgroundImageFix"/>
<feBlend mode="normal" in="SourceGraphic" in2="BackgroundImageFix" result="shape"/>
<feColorMatrix in="SourceAlpha" type="matrix" values="0 0 0 0 0 0 0 0 0 0 0 0 0 0 0 0 0 0 127 0" result="hardAlpha"/>
<feOffset dx="0.2" dy="-0.2"/>
<feGaussianBlur stdDeviation="0.5"/>
<feComposite in2="hardAlpha" operator="arithmetic" k2="-1" k3="1"/>
<feColorMatrix type="matrix" values="0 0 0 0 0.254902 0 0 0 0 0.145098 0 0 0 0 0.223529 0 0 0 1 0"/>
<feBlend mode="normal" in2="shape" result="effect1_innerShadow_2_1960"/>
</filter>
<filter id="filter6_i_2_1960" x="21.3583" y="18.0709" width="1.07119" height="1.43887" filterUnits="userSpaceOnUse" color-interpolation-filters="sRGB">
<feFlood flood-opacity="0" result="BackgroundImageFix"/>
<feBlend mode="normal" in="SourceGraphic" in2="BackgroundImageFix" result="shape"/>
<feColorMatrix in="SourceAlpha" type="matrix" values="0 0 0 0 0 0 0 0 0 0 0 0 0 0 0 0 0 0 127 0" result="hardAlpha"/>
<feOffset dy="-0.1"/>
<feGaussianBlur stdDeviation="0.125"/>
<feComposite in2="hardAlpha" operator="arithmetic" k2="-1" k3="1"/>
<feColorMatrix type="matrix" values="0 0 0 0 0.266667 0 0 0 0 0.168627 0 0 0 0 0.239216 0 0 0 1 0"/>
<feBlend mode="normal" in2="shape" result="effect1_innerShadow_2_1960"/>
</filter>
<filter id="filter7_i_2_1960" x="20.8777" y="18.6686" width="1.19628" height="1.06484" filterUnits="userSpaceOnUse" color-interpolation-filters="sRGB">
<feFlood flood-opacity="0" result="BackgroundImageFix"/>
<feBlend mode="normal" in="SourceGraphic" in2="BackgroundImageFix" result="shape"/>
<feColorMatrix in="SourceAlpha" type="matrix" values="0 0 0 0 0 0 0 0 0 0 0 0 0 0 0 0 0 0 127 0" result="hardAlpha"/>
<feOffset dy="-0.1"/>
<feGaussianBlur stdDeviation="0.125"/>
<feComposite in2="hardAlpha" operator="arithmetic" k2="-1" k3="1"/>
<feColorMatrix type="matrix" values="0 0 0 0 0.266667 0 0 0 0 0.168627 0 0 0 0 0.239216 0 0 0 1 0"/>
<feBlend mode="normal" in2="shape" result="effect1_innerShadow_2_1960"/>
</filter>
<filter id="filter8_f_2_1960" x="14.2762" y="19.4149" width="8.16788" height="8.42004" filterUnits="userSpaceOnUse" color-interpolation-filters="sRGB">
<feFlood flood-opacity="0" result="BackgroundImageFix"/>
<feBlend mode="normal" in="SourceGraphic" in2="BackgroundImageFix" result="shape"/>
<feGaussianBlur stdDeviation="0.375" result="effect1_foregroundBlur_2_1960"/>
</filter>
<filter id="filter9_i_2_1960" x="15.5557" y="6.45234" width="4.4428" height="5.24932" filterUnits="userSpaceOnUse" color-interpolation-filters="sRGB">
<feFlood flood-opacity="0" result="BackgroundImageFix"/>
<feBlend mode="normal" in="SourceGraphic" in2="BackgroundImageFix" result="shape"/>
<feColorMatrix in="SourceAlpha" type="matrix" values="0 0 0 0 0 0 0 0 0 0 0 0 0 0 0 0 0 0 127 0" result="hardAlpha"/>
<feOffset dx="-0.2" dy="-0.2"/>
<feGaussianBlur stdDeviation="0.5"/>
<feComposite in2="hardAlpha" operator="arithmetic" k2="-1" k3="1"/>
<feColorMatrix type="matrix" values="0 0 0 0 0.321569 0 0 0 0 0.239216 0 0 0 0 0.294118 0 0 0 1 0"/>
<feBlend mode="normal" in2="shape" result="effect1_innerShadow_2_1960"/>
</filter>
<filter id="filter10_ii_2_1960" x="13.347" y="4.69084" width="7.01286" height="7.50286" filterUnits="userSpaceOnUse" color-interpolation-filters="sRGB">
<feFlood flood-opacity="0" result="BackgroundImageFix"/>
<feBlend mode="normal" in="SourceGraphic" in2="BackgroundImageFix" result="shape"/>
<feColorMatrix in="SourceAlpha" type="matrix" values="0 0 0 0 0 0 0 0 0 0 0 0 0 0 0 0 0 0 127 0" result="hardAlpha"/>
<feOffset dx="-0.4" dy="0.4"/>
<feGaussianBlur stdDeviation="0.3"/>
<feComposite in2="hardAlpha" operator="arithmetic" k2="-1" k3="1"/>
<feColorMatrix type="matrix" values="0 0 0 0 1 0 0 0 0 0.843137 0 0 0 0 0.207843 0 0 0 1 0"/>
<feBlend mode="normal" in2="shape" result="effect1_innerShadow_2_1960"/>
<feColorMatrix in="SourceAlpha" type="matrix" values="0 0 0 0 0 0 0 0 0 0 0 0 0 0 0 0 0 0 127 0" result="hardAlpha"/>
<feOffset dx="0.2" dy="-0.3"/>
<feGaussianBlur stdDeviation="0.4"/>
<feComposite in2="hardAlpha" operator="arithmetic" k2="-1" k3="1"/>
<feColorMatrix type="matrix" values="0 0 0 0 1 0 0 0 0 0.607843 0 0 0 0 0.117647 0 0 0 1 0"/>
<feBlend mode="normal" in2="effect1_innerShadow_2_1960" result="effect2_innerShadow_2_1960"/>
</filter>
<filter id="filter11_ii_2_1960" x="13.347" y="4.79084" width="6.81286" height="7.40286" filterUnits="userSpaceOnUse" color-interpolation-filters="sRGB">
<feFlood flood-opacity="0" result="BackgroundImageFix"/>
<feBlend mode="normal" in="SourceGraphic" in2="BackgroundImageFix" result="shape"/>
<feColorMatrix in="SourceAlpha" type="matrix" values="0 0 0 0 0 0 0 0 0 0 0 0 0 0 0 0 0 0 127 0" result="hardAlpha"/>
<feOffset dx="-0.4" dy="0.4"/>
<feGaussianBlur stdDeviation="0.3"/>
<feComposite in2="hardAlpha" operator="arithmetic" k2="-1" k3="1"/>
<feColorMatrix type="matrix" values="0 0 0 0 0.290196 0 0 0 0 0.266667 0 0 0 0 0.27451 0 0 0 1 0"/>
<feBlend mode="normal" in2="shape" result="effect1_innerShadow_2_1960"/>
<feColorMatrix in="SourceAlpha" type="matrix" values="0 0 0 0 0 0 0 0 0 0 0 0 0 0 0 0 0 0 127 0" result="hardAlpha"/>
<feOffset dy="-0.2"/>
<feGaussianBlur stdDeviation="0.25"/>
<feComposite in2="hardAlpha" operator="arithmetic" k2="-1" k3="1"/>
<feColorMatrix type="matrix" values="0 0 0 0 0.0901961 0 0 0 0 0.0392157 0 0 0 0 0.133333 0 0 0 1 0"/>
<feBlend mode="normal" in2="effect1_innerShadow_2_1960" result="effect2_innerShadow_2_1960"/>
</filter>
<filter id="filter12_i_2_1960" x="18.3236" y="7.39587" width="1.01331" height="0.567529" filterUnits="userSpaceOnUse" color-interpolation-filters="sRGB">
<feFlood flood-opacity="0" result="BackgroundImageFix"/>
<feBlend mode="normal" in="SourceGraphic" in2="BackgroundImageFix" result="shape"/>
<feColorMatrix in="SourceAlpha" type="matrix" values="0 0 0 0 0 0 0 0 0 0 0 0 0 0 0 0 0 0 127 0" result="hardAlpha"/>
<feOffset dx="-0.1" dy="0.1"/>
<feGaussianBlur stdDeviation="0.1"/>
<feComposite in2="hardAlpha" operator="arithmetic" k2="-1" k3="1"/>
<feColorMatrix type="matrix" values="0 0 0 0 0.0666667 0 0 0 0 0.0627451 0 0 0 0 0.0627451 0 0 0 1 0"/>
<feBlend mode="normal" in2="shape" result="effect1_innerShadow_2_1960"/>
</filter>
<radialGradient id="paint0_radial_2_1960" cx="0" cy="0" r="1" gradientUnits="userSpaceOnUse" gradientTransform="translate(15.8698 27.6089) rotate(-130.67) scale(5.34656 3.97082)">
<stop stop-color="#A49DAC"/>
<stop offset="1" stop-color="#A49DAC" stop-opacity="0"/>
</radialGradient>
<radialGradient id="paint1_radial_2_1960" cx="0" cy="0" r="1" gradientUnits="userSpaceOnUse" gradientTransform="translate(15.7761 21.2568) rotate(80.8451) scale(3.33899 1.80433)">
<stop offset="0.188998" stop-color="#6A5A7A"/>
<stop offset="1" stop-color="#766B81" stop-opacity="0"/>
</radialGradient>
<linearGradient id="paint2_linear_2_1960" x1="15.2136" y1="18.835" x2="15.2136" y2="19.3662" gradientUnits="userSpaceOnUse">
<stop stop-color="#897694"/>
<stop offset="1" stop-color="#897694" stop-opacity="0"/>
</linearGradient>
<radialGradient id="paint3_radial_2_1960" cx="0" cy="0" r="1" gradientUnits="userSpaceOnUse" gradientTransform="translate(19.1511 18.9287) rotate(90) scale(1.03125 5.37969)">
<stop offset="0.166667" stop-color="#774E55"/>
<stop offset="1" stop-color="#8F7C7F" stop-opacity="0"/>
</radialGradient>
<radialGradient id="paint4_radial_2_1960" cx="0" cy="0" r="1" gradientUnits="userSpaceOnUse" gradientTransform="translate(17.5575 19.0381) rotate(88.0054) scale(3.14253 8.29263)">
<stop offset="0.557701" stop-color="#857297" stop-opacity="0"/>
<stop offset="0.971174" stop-color="#7E5E9A"/>
</radialGradient>
<linearGradient id="paint5_linear_2_1960" x1="20.0886" y1="28.1006" x2="21.073" y2="28.1006" gradientUnits="userSpaceOnUse">
<stop stop-color="#605F91"/>
<stop offset="1" stop-color="#605F91" stop-opacity="0"/>
</linearGradient>
<linearGradient id="paint6_linear_2_1960" x1="21.5261" y1="28.9639" x2="21.5261" y2="28.5928" gradientUnits="userSpaceOnUse">
<stop stop-color="#3F2D7E"/>
<stop offset="1" stop-color="#3F2D7E" stop-opacity="0"/>
</linearGradient>
<linearGradient id="paint7_linear_2_1960" x1="11.0636" y1="26.0536" x2="10.3784" y2="26.718" gradientUnits="userSpaceOnUse">
<stop stop-color="#3F3E62"/>
<stop offset="1" stop-color="#3F3E62" stop-opacity="0"/>
</linearGradient>
<linearGradient id="paint8_linear_2_1960" x1="8.91675" y1="27.2569" x2="9.13159" y2="27.4287" gradientUnits="userSpaceOnUse">
<stop offset="0.0975611" stop-color="#60608E"/>
<stop offset="1" stop-color="#60608E" stop-opacity="0"/>
</linearGradient>
<radialGradient id="paint9_radial_2_1960" cx="0" cy="0" r="1" gradientUnits="userSpaceOnUse" gradientTransform="translate(-0.0397554 2.2755) rotate(-28.7756) scale(2.02961 1.85514)">
<stop offset="0.396889" stop-color="#3B2A2C"/>
<stop offset="1" stop-color="#26172F"/>
</radialGradient>
<linearGradient id="paint10_linear_2_1960" x1="-0.0127296" y1="1.80831" x2="0.366687" y2="1.7797" gradientUnits="userSpaceOnUse">
<stop stop-color="#544341"/>
<stop offset="1" stop-color="#544341" stop-opacity="0"/>
</linearGradient>
<radialGradient id="paint11_radial_2_1960" cx="0" cy="0" r="1" gradientUnits="userSpaceOnUse" gradientTransform="translate(14.3232 14.5537) rotate(49.1966) scale(5.28432 6.59863)">
<stop offset="0.317382" stop-color="#8672BE"/>
<stop offset="0.849374" stop-color="#7059A7"/>
</radialGradient>
<radialGradient id="paint12_radial_2_1960" cx="0" cy="0" r="1" gradientUnits="userSpaceOnUse" gradientTransform="translate(15.5554 13.7598) rotate(59.0189) scale(2.40218 1.79199)">
<stop stop-color="#9C83D3"/>
<stop offset="1" stop-color="#9C83D3" stop-opacity="0"/>
</radialGradient>
<radialGradient id="paint13_radial_2_1960" cx="0" cy="0" r="1" gradientUnits="userSpaceOnUse" gradientTransform="translate(14.8388 16.3037) rotate(3.59126) scale(3.74172 6.80317)">
<stop offset="0.723119" stop-color="#786C9A" stop-opacity="0"/>
<stop offset="1" stop-color="#786C9A"/>
</radialGradient>
<radialGradient id="paint14_radial_2_1960" cx="0" cy="0" r="1" gradientUnits="userSpaceOnUse" gradientTransform="translate(15.848 18.4632) rotate(-81.753) scale(6.99015 5.26174)">
<stop offset="0.859923" stop-color="#56427B" stop-opacity="0"/>
<stop offset="0.967994" stop-color="#342452"/>
</radialGradient>
<radialGradient id="paint15_radial_2_1960" cx="0" cy="0" r="1" gradientUnits="userSpaceOnUse" gradientTransform="translate(15.6511 16.2983) rotate(93.0529) scale(2.34708 0.806037)">
<stop offset="0.238246" stop-color="#574241"/>
<stop offset="1" stop-color="#574241" stop-opacity="0"/>
</radialGradient>
<linearGradient id="paint16_linear_2_1960" x1="15.0496" y1="15.1319" x2="17.115" y2="15.2257" gradientUnits="userSpaceOnUse">
<stop stop-color="#8F77C9"/>
<stop offset="1" stop-color="#725AAA"/>
</linearGradient>
<radialGradient id="paint17_radial_2_1960" cx="0" cy="0" r="1" gradientUnits="userSpaceOnUse" gradientTransform="translate(15.5525 12.6632) rotate(51.841) scale(1.35127 1.54455)">
<stop stop-color="#9D84D5"/>
<stop offset="1" stop-color="#8366C0" stop-opacity="0"/>
</radialGradient>
<radialGradient id="paint18_radial_2_1960" cx="0" cy="0" r="1" gradientUnits="userSpaceOnUse" gradientTransform="translate(15.2556 15.8975) rotate(11.3732) scale(2.77321 5.18723)">
<stop offset="0.755881" stop-color="#79699E" stop-opacity="0"/>
<stop offset="0.909463" stop-color="#79699E"/>
</radialGradient>
<radialGradient id="paint19_radial_2_1960" cx="0" cy="0" r="1" gradientUnits="userSpaceOnUse" gradientTransform="translate(16.3874 15.6109) rotate(-86.7723) scale(3.34906 2.70417)">
<stop offset="0.868393" stop-color="#7A61B3" stop-opacity="0"/>
<stop offset="1" stop-color="#624A8D"/>
</radialGradient>
<linearGradient id="paint20_linear_2_1960" x1="21.6941" y1="25.8506" x2="15.2137" y2="19.9131" gradientUnits="userSpaceOnUse">
<stop offset="0.552006" stop-color="#A098A8"/>
<stop offset="1" stop-color="#A098A8" stop-opacity="0"/>
</linearGradient>
<radialGradient id="paint21_radial_2_1960" cx="0" cy="0" r="1" gradientUnits="userSpaceOnUse" gradientTransform="translate(20.5043 9.32792) rotate(151.14) scale(0.557961 0.795521)">
<stop offset="0.100808" stop-color="#68534F"/>
<stop offset="0.684407" stop-color="#41212E"/>
</radialGradient>
<linearGradient id="paint22_linear_2_1960" x1="17.1362" y1="9.39303" x2="19.9985" y2="9.56491" gradientUnits="userSpaceOnUse">
<stop stop-color="#432B2F"/>
<stop offset="1" stop-color="#48302F"/>
</linearGradient>
<radialGradient id="paint23_radial_2_1960" cx="0" cy="0" r="1" gradientUnits="userSpaceOnUse" gradientTransform="translate(16.8237 8.65085) rotate(-3.17982) scale(0.845051 1.03029)">
<stop offset="0.155748" stop-color="#34191A"/>
<stop offset="1" stop-color="#34191A" stop-opacity="0"/>
</radialGradient>
<radialGradient id="paint24_radial_2_1960" cx="0" cy="0" r="1" gradientUnits="userSpaceOnUse" gradientTransform="translate(19.7202 9.83829) rotate(-90) scale(5.1875 1.40625)">
<stop offset="0.163152" stop-color="#614C49"/>
<stop offset="1" stop-color="#614C49" stop-opacity="0"/>
</radialGradient>
<radialGradient id="paint25_radial_2_1960" cx="0" cy="0" r="1" gradientUnits="userSpaceOnUse" gradientTransform="translate(18.8921 8.69767) rotate(90) scale(0.390625 0.609189)">
<stop offset="0.154762" stop-color="#472F2C"/>
<stop offset="1" stop-color="#472F2C" stop-opacity="0"/>
</radialGradient>
<radialGradient id="paint26_radial_2_1960" cx="0" cy="0" r="1" gradientUnits="userSpaceOnUse" gradientTransform="translate(19.9474 6.4157) rotate(-164.291) scale(1.59443 3.41685)">
<stop stop-color="#534B49"/>
<stop offset="1" stop-color="#534B49" stop-opacity="0"/>
</radialGradient>
<radialGradient id="paint27_radial_2_1960" cx="0" cy="0" r="1" gradientUnits="userSpaceOnUse" gradientTransform="translate(17.146 8.53366) rotate(-163.811) scale(0.756563 0.369268)">
<stop offset="0.169715" stop-color="#635251"/>
<stop offset="1" stop-color="#482C2E"/>
</radialGradient>
<linearGradient id="paint28_linear_2_1960" x1="17.1812" y1="8.60007" x2="17.0679" y2="8.6157" gradientUnits="userSpaceOnUse">
<stop stop-color="#48302C"/>
<stop offset="1" stop-color="#48302C" stop-opacity="0"/>
</linearGradient>
<radialGradient id="paint29_radial_2_1960" cx="0" cy="0" r="1" gradientUnits="userSpaceOnUse" gradientTransform="translate(19.187 8.7251) rotate(180) scale(0.273437 0.53125)">
<stop offset="0.894737" stop-color="#916A62"/>
<stop offset="1" stop-color="#824D44"/>
</radialGradient>
<radialGradient id="paint30_radial_2_1960" cx="0" cy="0" r="1" gradientUnits="userSpaceOnUse" gradientTransform="translate(19.355 8.74658) rotate(180) scale(0.25 0.541016)">
<stop stop-color="#666361"/>
<stop offset="0.8125" stop-color="#565352"/>
</radialGradient>
<linearGradient id="paint31_linear_2_1960" x1="-0.00680284" y1="0.0496363" x2="0.179464" y2="0.110399" gradientUnits="userSpaceOnUse">
<stop stop-color="white"/>
<stop offset="1" stop-color="white" stop-opacity="0"/>
</linearGradient>
</defs>
</svg>
