<svg width="32" height="32" viewBox="0 0 32 32" fill="none" xmlns="http://www.w3.org/2000/svg">
<rect x="11" y="6" width="14" height="21" rx="4" fill="url(#paint0_linear_18_18515)"/>
<path fill-rule="evenodd" clip-rule="evenodd" d="M20.1085 5.50213C20.1135 5.22603 20.3414 5.00596 20.6175 5.01057C20.8936 5.01518 21.1133 5.24274 21.1083 5.51883L20.7164 27.0085C20.7114 27.2846 20.4835 27.5046 20.2074 27.5C19.9408 27.4956 19.7268 27.2833 19.7168 27.0202C19.6993 27.2656 19.5025 27.4655 19.2499 27.4802C18.9743 27.4964 18.7365 27.2861 18.7189 27.0106L17.3481 5.55744C17.3305 5.2819 17.5396 5.04545 17.8152 5.02932C18.0909 5.01318 18.3286 5.22347 18.3462 5.49901L19.7171 26.9521L19.7172 26.9547L20.1085 5.50213ZM14.7905 5.22475C14.5174 5.26381 14.3305 5.51646 14.3731 5.78904L17.6925 27.0477C17.7351 27.3203 17.991 27.5096 18.2641 27.4706C18.5372 27.4315 18.7241 27.1789 18.6815 26.9063L15.3621 5.64757C15.3196 5.37498 15.0637 5.18568 14.7905 5.22475Z" fill="#F8312F"/>
<path fill-rule="evenodd" clip-rule="evenodd" d="M20.1085 5.50213C20.1135 5.22603 20.3414 5.00596 20.6175 5.01057C20.8936 5.01518 21.1133 5.24274 21.1083 5.51883L20.7164 27.0085C20.7114 27.2846 20.4835 27.5046 20.2074 27.5C19.9408 27.4956 19.7268 27.2833 19.7168 27.0202C19.6993 27.2656 19.5025 27.4655 19.2499 27.4802C18.9743 27.4964 18.7365 27.2861 18.7189 27.0106L17.3481 5.55744C17.3305 5.2819 17.5396 5.04545 17.8152 5.02932C18.0909 5.01318 18.3286 5.22347 18.3462 5.49901L19.7171 26.9521L19.7172 26.9547L20.1085 5.50213ZM14.7905 5.22475C14.5174 5.26381 14.3305 5.51646 14.3731 5.78904L17.6925 27.0477C17.7351 27.3203 17.991 27.5096 18.2641 27.4706C18.5372 27.4315 18.7241 27.1789 18.6815 26.9063L15.3621 5.64757C15.3196 5.37498 15.0637 5.18568 14.7905 5.22475Z" fill="url(#paint1_linear_18_18515)"/>
<rect x="1.69531" y="8.22998" width="11" height="23" rx="1" transform="rotate(-14 1.69531 8.22998)" fill="url(#paint2_linear_18_18515)"/>
<path fill-rule="evenodd" clip-rule="evenodd" d="M3.39258 8.83741C3.12465 8.90421 2.96159 9.17558 3.0284 9.44352L3.27032 10.4138C3.33712 10.6818 3.60849 10.8448 3.87643 10.778L9.21306 9.44743L8.72921 7.50684L3.39258 8.83741ZM3.90064 10.875C3.6327 10.9418 3.46965 11.2132 3.53645 11.4811L3.77838 12.4514C3.84518 12.7193 4.11655 12.8824 4.38449 12.8156L9.72111 11.485L9.23727 9.54443L3.90064 10.875ZM4.04451 13.5187C3.97771 13.2508 4.14076 12.9794 4.4087 12.9126L9.74532 11.582L10.2292 13.5226L4.89254 14.8532C4.6246 14.92 4.35324 14.7569 4.28643 14.489L4.04451 13.5187ZM4.91663 14.9502C4.64869 15.017 4.48564 15.2884 4.55245 15.5563L4.79437 16.5266C4.86117 16.7945 5.13254 16.9576 5.40048 16.8908L10.7371 15.5602L10.2533 13.6196L4.91663 14.9502ZM5.0605 17.5939C4.9937 17.326 5.15675 17.0546 5.42469 16.9878L10.7613 15.6572L11.2452 17.5978L5.90853 18.9284C5.64059 18.9952 5.36923 18.8321 5.30242 18.5642L5.0605 17.5939ZM5.93275 19.0254C5.66481 19.0922 5.50175 19.3636 5.56856 19.6315L5.81048 20.6018C5.87729 20.8697 6.14865 21.0328 6.41659 20.966L11.7532 19.6354L11.2694 17.6948L5.93275 19.0254ZM6.07662 21.6691C6.00981 21.4012 6.17286 21.1298 6.4408 21.063L11.7774 19.7324L12.2613 21.673L6.92465 23.0036C6.65671 23.0704 6.38534 22.9073 6.31854 22.6394L6.07662 21.6691ZM6.94874 23.1006C6.6808 23.1674 6.51775 23.4388 6.58455 23.7067L6.82647 24.677C6.89328 24.9449 7.16464 25.108 7.43258 25.0412L12.7692 23.7106L12.2854 21.77L6.94874 23.1006ZM7.09261 25.7443C7.0258 25.4764 7.18885 25.205 7.45679 25.1382L12.7934 23.8076L13.2773 25.7482L7.94064 27.0788C7.6727 27.1456 7.40133 26.9825 7.33453 26.7146L7.09261 25.7443ZM7.96485 27.1758C7.69691 27.2426 7.53386 27.514 7.60066 27.7819L7.84259 28.7522C7.90939 29.0201 8.18075 29.1832 8.44869 29.1164L13.7853 27.7858L13.3015 25.8452L7.96485 27.1758Z" fill="white"/>
<path fill-rule="evenodd" clip-rule="evenodd" d="M3.39258 8.83741C3.12465 8.90421 2.96159 9.17558 3.0284 9.44352L3.27032 10.4138C3.33712 10.6818 3.60849 10.8448 3.87643 10.778L9.21306 9.44743L8.72921 7.50684L3.39258 8.83741ZM3.90064 10.875C3.6327 10.9418 3.46965 11.2132 3.53645 11.4811L3.77838 12.4514C3.84518 12.7193 4.11655 12.8824 4.38449 12.8156L9.72111 11.485L9.23727 9.54443L3.90064 10.875ZM4.04451 13.5187C3.97771 13.2508 4.14076 12.9794 4.4087 12.9126L9.74532 11.582L10.2292 13.5226L4.89254 14.8532C4.6246 14.92 4.35324 14.7569 4.28643 14.489L4.04451 13.5187ZM4.91663 14.9502C4.64869 15.017 4.48564 15.2884 4.55245 15.5563L4.79437 16.5266C4.86117 16.7945 5.13254 16.9576 5.40048 16.8908L10.7371 15.5602L10.2533 13.6196L4.91663 14.9502ZM5.0605 17.5939C4.9937 17.326 5.15675 17.0546 5.42469 16.9878L10.7613 15.6572L11.2452 17.5978L5.90853 18.9284C5.64059 18.9952 5.36923 18.8321 5.30242 18.5642L5.0605 17.5939ZM5.93275 19.0254C5.66481 19.0922 5.50175 19.3636 5.56856 19.6315L5.81048 20.6018C5.87729 20.8697 6.14865 21.0328 6.41659 20.966L11.7532 19.6354L11.2694 17.6948L5.93275 19.0254ZM6.07662 21.6691C6.00981 21.4012 6.17286 21.1298 6.4408 21.063L11.7774 19.7324L12.2613 21.673L6.92465 23.0036C6.65671 23.0704 6.38534 22.9073 6.31854 22.6394L6.07662 21.6691ZM6.94874 23.1006C6.6808 23.1674 6.51775 23.4388 6.58455 23.7067L6.82647 24.677C6.89328 24.9449 7.16464 25.108 7.43258 25.0412L12.7692 23.7106L12.2854 21.77L6.94874 23.1006ZM7.09261 25.7443C7.0258 25.4764 7.18885 25.205 7.45679 25.1382L12.7934 23.8076L13.2773 25.7482L7.94064 27.0788C7.6727 27.1456 7.40133 26.9825 7.33453 26.7146L7.09261 25.7443ZM7.96485 27.1758C7.69691 27.2426 7.53386 27.514 7.60066 27.7819L7.84259 28.7522C7.90939 29.0201 8.18075 29.1832 8.44869 29.1164L13.7853 27.7858L13.3015 25.8452L7.96485 27.1758Z" fill="url(#paint3_linear_18_18515)"/>
<path fill-rule="evenodd" clip-rule="evenodd" d="M6.32747 10.2744C6.26067 10.0065 6.42372 9.73509 6.69166 9.66828L9.1174 9.06348L9.35932 10.0338L6.93358 10.6386C6.66564 10.7054 6.39428 10.5423 6.32747 10.2744ZM6.81136 12.2151C6.74455 11.9471 6.9076 11.6758 7.17554 11.609L9.60128 11.0042L9.8432 11.9744L7.41747 12.5793C7.14953 12.6461 6.87816 12.483 6.81136 12.2151ZM8.22276 15.7568C7.95482 15.8236 7.79177 16.0949 7.85857 16.3629C7.92538 16.6308 8.19674 16.7939 8.46468 16.7271L10.8904 16.1223L10.6485 15.152L8.22276 15.7568ZM8.35865 18.2982C8.29185 18.0303 8.4549 17.7589 8.72284 17.6921L11.1486 17.0873L11.3905 18.0576L8.96476 18.6624C8.69682 18.7292 8.42546 18.5662 8.35865 18.2982ZM9.20655 19.7551C8.93861 19.8219 8.77556 20.0932 8.84236 20.3612C8.90917 20.6291 9.18053 20.7922 9.44847 20.7254L11.8742 20.1206L11.6323 19.1503L9.20655 19.7551ZM9.93506 24.4145C9.86825 24.1466 10.0313 23.8752 10.2992 23.8084L12.725 23.2036L12.9669 24.1739L10.5412 24.7787C10.2732 24.8455 10.0019 24.6825 9.93506 24.4145ZM10.7642 25.9087C10.4962 25.9755 10.3332 26.2469 10.4 26.5149C10.4668 26.7828 10.7381 26.9458 11.0061 26.879L13.4318 26.2742L13.1899 25.3039L10.7642 25.9087Z" fill="url(#paint4_linear_18_18515)"/>
<rect x="23.1259" y="4.72461" width="7" height="23" rx="1" transform="rotate(6.25 23.1259 4.72461)" fill="url(#paint5_linear_18_18515)"/>
<path fill-rule="evenodd" clip-rule="evenodd" d="M27.1636 9.19067C27.4381 9.22074 27.685 9.02258 27.7151 8.74808C27.7452 8.47358 27.547 8.22668 27.2725 8.19662C26.998 8.16656 26.7511 8.36471 26.721 8.63921C26.691 8.91371 26.8891 9.16061 27.1636 9.19067ZM25.0666 9.96704C25.3411 9.9971 25.588 9.79895 25.618 9.52445C25.6481 9.24995 25.4499 9.00305 25.1754 8.97299C24.9009 8.94292 24.654 9.14108 24.624 9.41558C24.5939 9.69008 24.7921 9.93698 25.0666 9.96704ZM24.74 12.9492C25.0145 12.9793 25.2614 12.7811 25.2915 12.5066C25.3216 12.2321 25.1234 11.9852 24.8489 11.9552C24.5744 11.9251 24.3275 12.1233 24.2974 12.3978C24.2674 12.6723 24.4655 12.9192 24.74 12.9492ZM24.6383 18.471C24.6082 18.7455 24.3613 18.9436 24.0868 18.9136C23.8123 18.8835 23.6142 18.6366 23.6443 18.3621C23.6743 18.0876 23.9212 17.8895 24.1957 17.9195C24.4702 17.9496 24.6684 18.1965 24.6383 18.471ZM23.7602 21.8958C24.0347 21.9258 24.2816 21.7277 24.3116 21.4532C24.3417 21.1787 24.1436 20.9318 23.8691 20.9017C23.5946 20.8716 23.3477 21.0698 23.3176 21.3443C23.2875 21.6188 23.4857 21.8657 23.7602 21.8958ZM23.4336 24.8779C23.7081 24.908 23.955 24.7098 23.9851 24.4353C24.0152 24.1608 23.817 23.9139 23.5425 23.8839C23.268 23.8538 23.0211 24.052 22.9911 24.3265C22.961 24.601 23.1591 24.8479 23.4336 24.8779ZM24.9648 15.4888C24.9348 15.7633 24.6879 15.9615 24.4134 15.9314C24.1389 15.9013 23.9407 15.6544 23.9708 15.3799C24.0009 15.1054 24.2477 14.9073 24.5222 14.9373C24.7968 14.9674 24.9949 15.2143 24.9648 15.4888ZM26.082 23.659C26.052 23.9335 25.8051 24.1316 25.5306 24.1016C25.2561 24.0715 25.0579 23.8246 25.088 23.5501C25.118 23.2756 25.3649 23.0774 25.6394 23.1075C25.9139 23.1376 26.1121 23.3845 26.082 23.659ZM25.8572 21.1194C26.1317 21.1494 26.3786 20.9513 26.4087 20.6768C26.4388 20.4023 26.2406 20.1554 25.9661 20.1253C25.6916 20.0953 25.4447 20.2934 25.4146 20.5679C25.3846 20.8424 25.5827 21.0893 25.8572 21.1194ZM26.7352 17.6946C26.7052 17.9691 26.4583 18.1673 26.1838 18.1372C25.9093 18.1071 25.7111 17.8602 25.7412 17.5857C25.7712 17.3112 26.0181 17.1131 26.2926 17.1432C26.5671 17.1732 26.7653 17.4201 26.7352 17.6946ZM26.5104 15.155C26.7849 15.1851 27.0318 14.9869 27.0619 14.7124C27.092 14.4379 26.8938 14.191 26.6193 14.161C26.3448 14.1309 26.0979 14.3291 26.0678 14.6036C26.0378 14.8781 26.2359 15.125 26.5104 15.155ZM27.3884 11.7303C27.3584 12.0048 27.1115 12.2029 26.837 12.1729C26.5625 12.1428 26.3643 11.8959 26.3944 11.6214C26.4244 11.3469 26.6713 11.1487 26.9458 11.1788C27.2203 11.2089 27.4185 11.4558 27.3884 11.7303Z" fill="url(#paint6_linear_18_18515)"/>
<path d="M4.99512 29.0205H4.13672L3.09961 25.4111H3.89355L4.55859 28.2471H4.57031L5.28516 25.4111H6.09082L6.78516 28.209H6.79688L7.47656 25.4111H8.24707L7.18945 29.0205H6.36914L5.70996 26.3047H5.70117L4.99512 29.0205Z" fill="#FFC444"/>
<path d="M9.60352 29H8.85938V25.4111H9.60352V29Z" fill="#FFC444"/>
<path d="M10.5996 29V25.4111H12.0322C12.3057 25.4111 12.5439 25.459 12.7471 25.5547C12.9521 25.6504 13.1104 25.79 13.2217 25.9736C13.333 26.1572 13.3887 26.377 13.3887 26.6328C13.3887 26.8887 13.333 27.1084 13.2217 27.292C13.1104 27.4756 12.9521 27.6162 12.7471 27.7139C12.5439 27.8096 12.3057 27.8574 12.0322 27.8574H11.3467V29H10.5996ZM11.918 27.2598C12.1523 27.2598 12.332 27.209 12.457 27.1074C12.582 27.0039 12.6445 26.8457 12.6445 26.6328C12.6445 26.4199 12.582 26.2627 12.457 26.1611C12.332 26.0576 12.1523 26.0059 11.918 26.0059H11.3467V27.2598H11.918Z" fill="#FFC444"/>
<path d="M0 0V-2H-2V0H0ZM32 0H34V-2H32V0ZM32 32V34H34V32H32ZM0 32H-2V34H0V32ZM0 2H32V-2H0V2ZM30 0V32H34V0H30ZM32 30H0V34H32V30ZM2 32V0H-2V32H2Z" fill="#FFC444"/>
<defs>
<linearGradient id="paint0_linear_18_18515" x1="18" y1="6" x2="19.1566" y2="27.0062" gradientUnits="userSpaceOnUse">
<stop stop-color="#FFCE7C"/>
<stop offset="1" stop-color="#E19747"/>
</linearGradient>
<linearGradient id="paint1_linear_18_18515" x1="17.7366" y1="4.00171" x2="19.0734" y2="27.4983" gradientUnits="userSpaceOnUse">
<stop stop-color="#E19747"/>
<stop offset="1" stop-color="#A56953" stop-opacity="0.75"/>
</linearGradient>
<linearGradient id="paint2_linear_18_18515" x1="7.19531" y1="8.22998" x2="7.73608" y2="35.6132" gradientUnits="userSpaceOnUse">
<stop offset="0.75" stop-color="#F70A8D"/>
<stop offset="1" stop-color="#89029C"/>
</linearGradient>
<linearGradient id="paint3_linear_18_18515" x1="14.7214" y1="15.7845" x2="-0.992438" y2="20.9489" gradientUnits="userSpaceOnUse">
<stop stop-color="white"/>
<stop offset="1" stop-color="#9F70B8"/>
</linearGradient>
<linearGradient id="paint4_linear_18_18515" x1="13.0662" y1="17.1041" x2="1.29283" y2="20.3632" gradientUnits="userSpaceOnUse">
<stop stop-color="#533566"/>
<stop offset="1" stop-color="#433B6B"/>
</linearGradient>
<linearGradient id="paint5_linear_18_18515" x1="26.6259" y1="4.72461" x2="25.096" y2="31.7978" gradientUnits="userSpaceOnUse">
<stop offset="0.759648" stop-color="#F70A8D"/>
<stop offset="1" stop-color="#89029C"/>
</linearGradient>
<linearGradient id="paint6_linear_18_18515" x1="32.2008" y1="16.0051" x2="19.7975" y2="14.9016" gradientUnits="userSpaceOnUse">
<stop offset="0.318473" stop-color="white"/>
<stop offset="1" stop-color="#9B9B9B"/>
</linearGradient>
</defs>
</svg>
