<svg width="32" height="32" viewBox="0 0 32 32" fill="none" xmlns="http://www.w3.org/2000/svg">
<path d="M18.02 16.0112C18.02 16.746 17.6215 17.3877 17.0288 17.7321V24.0066C17.0288 24.5589 16.5811 25.0066 16.0288 25.0066C15.4765 25.0066 15.0288 24.5589 15.0288 24.0066V17.7293C14.7286 17.5537 14.4785 17.3017 14.3052 17H10.0328C9.48055 17 9.03284 16.5523 9.03284 16C9.03284 15.4477 9.48055 15 10.0328 15H14.3182C14.6644 14.4148 15.302 14.0223 16.0312 14.0223C17.1296 14.0223 18.02 14.9128 18.02 16.0112Z" fill="#212121"/>
<path d="M30 16C30 8.26801 23.732 2 16 2C8.26801 2 2 8.26801 2 16C2 23.732 8.26801 30 16 30C23.732 30 30 23.732 30 16ZM27 16C27 22.0751 22.0751 27 16 27C9.92487 27 5 22.0751 5 16C5 9.92487 9.92487 5 16 5C22.0751 5 27 9.92487 27 16Z" fill="#212121"/>
</svg>
