<svg width="32" height="32" viewBox="0 0 32 32" fill="none" xmlns="http://www.w3.org/2000/svg">
<path d="M6.45282 23.1312C6.45282 26.2621 8.94633 29.1005 12.1218 29.3426C14.41 29.3426 16.4279 28.0153 17.3833 26.2328L22.9431 16.3896C23.8672 14.9785 24.4045 13.2913 24.4045 11.4786C24.4045 6.5214 20.3859 2.50278 15.4287 2.50278C10.4714 2.50278 6.45282 6.5214 6.45282 11.4786C6.45282 15.5435 6.45282 19.0671 6.45282 23.1312Z" fill="#51393B"/>
<g filter="url(#filter0_f_20020_4735)">
<ellipse cx="16.7215" cy="9.26982" rx="7.03191" ry="4.49324" transform="rotate(26.0872 16.7215 9.26982)" fill="url(#paint0_radial_20020_4735)"/>
</g>
<g filter="url(#filter1_f_20020_4735)">
<path d="M12.1218 28.2553C8.94636 28.0131 7.73132 26.2621 7.73132 23.1312V12.2568L9.99526 12.1059L18.8699 20.9503L16.0324 25.7498C15.0771 27.5324 14.41 28.2553 12.1218 28.2553Z" fill="url(#paint1_linear_20020_4735)"/>
<path d="M12.1218 28.2553C8.94636 28.0131 7.73132 26.2621 7.73132 23.1312V12.2568L9.99526 12.1059L18.8699 20.9503L16.0324 25.7498C15.0771 27.5324 14.41 28.2553 12.1218 28.2553Z" fill="url(#paint2_linear_20020_4735)"/>
</g>
<g filter="url(#filter2_f_20020_4735)">
<circle cx="11.5075" cy="22.0658" r="3.07735" fill="url(#paint3_linear_20020_4735)"/>
</g>
<circle cx="11.328" cy="21.8863" r="2.89783" fill="url(#paint4_linear_20020_4735)"/>
<circle cx="11.328" cy="21.8863" r="2.89783" fill="url(#paint5_radial_20020_4735)"/>
<g filter="url(#filter3_f_20020_4735)">
<circle cx="11.328" cy="21.8863" r="2.47684" fill="#4E3538"/>
</g>
<g filter="url(#filter4_i_20020_4735)">
<path d="M17.5219 22.4215C16.6869 21.9593 15.6354 22.2566 15.166 23.0876L14.3365 24.5562L14.3183 24.5902C13.9652 25.249 13.2025 25.8614 12.2564 25.8614C11.0442 25.8614 9.93022 24.4823 9.93022 23.1312V11.4786C9.93022 8.44191 12.3919 5.98018 15.4287 5.98018C18.4654 5.98018 20.9271 8.44191 20.9271 11.4786C20.9271 11.7721 20.9044 12.0595 20.8606 12.3395C20.7186 13.2471 20.9821 14.2457 21.7712 14.7161C22.64 15.2339 23.7837 14.9184 24.0612 13.9459C24.2848 13.162 24.4045 12.3343 24.4045 11.4786C24.4045 6.5214 20.3859 2.50278 15.4287 2.50278C10.4714 2.50278 6.45282 6.5214 6.45282 11.4786V23.1312C6.45282 26.2621 8.94633 29.1005 12.1218 29.3426C14.41 29.3426 16.4279 28.0153 17.3833 26.2328L18.1938 24.7978C18.6689 23.9566 18.3672 22.8894 17.5219 22.4215Z" fill="url(#paint6_linear_20020_4735)"/>
<path d="M17.5219 22.4215C16.6869 21.9593 15.6354 22.2566 15.166 23.0876L14.3365 24.5562L14.3183 24.5902C13.9652 25.249 13.2025 25.8614 12.2564 25.8614C11.0442 25.8614 9.93022 24.4823 9.93022 23.1312V11.4786C9.93022 8.44191 12.3919 5.98018 15.4287 5.98018C18.4654 5.98018 20.9271 8.44191 20.9271 11.4786C20.9271 11.7721 20.9044 12.0595 20.8606 12.3395C20.7186 13.2471 20.9821 14.2457 21.7712 14.7161C22.64 15.2339 23.7837 14.9184 24.0612 13.9459C24.2848 13.162 24.4045 12.3343 24.4045 11.4786C24.4045 6.5214 20.3859 2.50278 15.4287 2.50278C10.4714 2.50278 6.45282 6.5214 6.45282 11.4786V23.1312C6.45282 26.2621 8.94633 29.1005 12.1218 29.3426C14.41 29.3426 16.4279 28.0153 17.3833 26.2328L18.1938 24.7978C18.6689 23.9566 18.3672 22.8894 17.5219 22.4215Z" fill="url(#paint7_radial_20020_4735)"/>
</g>
<path d="M17.5219 22.4215C16.6869 21.9593 15.6354 22.2566 15.166 23.0876L14.3365 24.5562L14.3183 24.5902C13.9652 25.249 13.2025 25.8614 12.2564 25.8614C11.0442 25.8614 9.93022 24.4823 9.93022 23.1312V11.4786C9.93022 8.44191 12.3919 5.98018 15.4287 5.98018C18.4654 5.98018 20.9271 8.44191 20.9271 11.4786C20.9271 11.7721 20.9044 12.0595 20.8606 12.3395C20.7186 13.2471 20.9821 14.2457 21.7712 14.7161C22.64 15.2339 23.7837 14.9184 24.0612 13.9459C24.2848 13.162 24.4045 12.3343 24.4045 11.4786C24.4045 6.5214 20.3859 2.50278 15.4287 2.50278C10.4714 2.50278 6.45282 6.5214 6.45282 11.4786V23.1312C6.45282 26.2621 8.94633 29.1005 12.1218 29.3426C14.41 29.3426 16.4279 28.0153 17.3833 26.2328L18.1938 24.7978C18.6689 23.9566 18.3672 22.8894 17.5219 22.4215Z" fill="url(#paint8_radial_20020_4735)"/>
<path d="M17.5219 22.4215C16.6869 21.9593 15.6354 22.2566 15.166 23.0876L14.3365 24.5562L14.3183 24.5902C13.9652 25.249 13.2025 25.8614 12.2564 25.8614C11.0442 25.8614 9.93022 24.4823 9.93022 23.1312V11.4786C9.93022 8.44191 12.3919 5.98018 15.4287 5.98018C18.4654 5.98018 20.9271 8.44191 20.9271 11.4786C20.9271 11.7721 20.9044 12.0595 20.8606 12.3395C20.7186 13.2471 20.9821 14.2457 21.7712 14.7161C22.64 15.2339 23.7837 14.9184 24.0612 13.9459C24.2848 13.162 24.4045 12.3343 24.4045 11.4786C24.4045 6.5214 20.3859 2.50278 15.4287 2.50278C10.4714 2.50278 6.45282 6.5214 6.45282 11.4786V23.1312C6.45282 26.2621 8.94633 29.1005 12.1218 29.3426C14.41 29.3426 16.4279 28.0153 17.3833 26.2328L18.1938 24.7978C18.6689 23.9566 18.3672 22.8894 17.5219 22.4215Z" fill="url(#paint9_radial_20020_4735)"/>
<path d="M17.5219 22.4215C16.6869 21.9593 15.6354 22.2566 15.166 23.0876L14.3365 24.5562L14.3183 24.5902C13.9652 25.249 13.2025 25.8614 12.2564 25.8614C11.0442 25.8614 9.93022 24.4823 9.93022 23.1312V11.4786C9.93022 8.44191 12.3919 5.98018 15.4287 5.98018C18.4654 5.98018 20.9271 8.44191 20.9271 11.4786C20.9271 11.7721 20.9044 12.0595 20.8606 12.3395C20.7186 13.2471 20.9821 14.2457 21.7712 14.7161C22.64 15.2339 23.7837 14.9184 24.0612 13.9459C24.2848 13.162 24.4045 12.3343 24.4045 11.4786C24.4045 6.5214 20.3859 2.50278 15.4287 2.50278C10.4714 2.50278 6.45282 6.5214 6.45282 11.4786V23.1312C6.45282 26.2621 8.94633 29.1005 12.1218 29.3426C14.41 29.3426 16.4279 28.0153 17.3833 26.2328L18.1938 24.7978C18.6689 23.9566 18.3672 22.8894 17.5219 22.4215Z" fill="url(#paint10_radial_20020_4735)"/>
<path d="M17.5219 22.4215C16.6869 21.9593 15.6354 22.2566 15.166 23.0876L14.3365 24.5562L14.3183 24.5902C13.9652 25.249 13.2025 25.8614 12.2564 25.8614C11.0442 25.8614 9.93022 24.4823 9.93022 23.1312V11.4786C9.93022 8.44191 12.3919 5.98018 15.4287 5.98018C18.4654 5.98018 20.9271 8.44191 20.9271 11.4786C20.9271 11.7721 20.9044 12.0595 20.8606 12.3395C20.7186 13.2471 20.9821 14.2457 21.7712 14.7161C22.64 15.2339 23.7837 14.9184 24.0612 13.9459C24.2848 13.162 24.4045 12.3343 24.4045 11.4786C24.4045 6.5214 20.3859 2.50278 15.4287 2.50278C10.4714 2.50278 6.45282 6.5214 6.45282 11.4786V23.1312C6.45282 26.2621 8.94633 29.1005 12.1218 29.3426C14.41 29.3426 16.4279 28.0153 17.3833 26.2328L18.1938 24.7978C18.6689 23.9566 18.3672 22.8894 17.5219 22.4215Z" fill="url(#paint11_radial_20020_4735)"/>
<path d="M17.5219 22.4215C16.6869 21.9593 15.6354 22.2566 15.166 23.0876L14.3365 24.5562L14.3183 24.5902C13.9652 25.249 13.2025 25.8614 12.2564 25.8614C11.0442 25.8614 9.93022 24.4823 9.93022 23.1312V11.4786C9.93022 8.44191 12.3919 5.98018 15.4287 5.98018C18.4654 5.98018 20.9271 8.44191 20.9271 11.4786C20.9271 11.7721 20.9044 12.0595 20.8606 12.3395C20.7186 13.2471 20.9821 14.2457 21.7712 14.7161C22.64 15.2339 23.7837 14.9184 24.0612 13.9459C24.2848 13.162 24.4045 12.3343 24.4045 11.4786C24.4045 6.5214 20.3859 2.50278 15.4287 2.50278C10.4714 2.50278 6.45282 6.5214 6.45282 11.4786V23.1312C6.45282 26.2621 8.94633 29.1005 12.1218 29.3426C14.41 29.3426 16.4279 28.0153 17.3833 26.2328L18.1938 24.7978C18.6689 23.9566 18.3672 22.8894 17.5219 22.4215Z" fill="url(#paint12_radial_20020_4735)"/>
<g filter="url(#filter5_f_20020_4735)">
<path d="M16.3364 3.95572C18.55 4.31795 23.0196 6.30417 23.1886 11.3512" stroke="url(#paint13_linear_20020_4735)" stroke-width="2" stroke-linecap="round"/>
</g>
<g filter="url(#filter6_f_20020_4735)">
<path d="M8.85114 9.37288V23.5765C8.87223 24.4418 9.17312 26.8691 11.8093 27.4704C14.0283 27.9766 15.3109 26.8063 15.9392 25.6291L17.122 23.5765" stroke="url(#paint14_linear_20020_4735)" stroke-width="1.5" stroke-linecap="round"/>
</g>
<rect x="26.0482" y="10.4736" width="2.01562" height="4.95509" rx="0.5" fill="url(#paint15_linear_20020_4735)" fill-opacity="0.5"/>
<rect x="26.0482" y="10.4736" width="2.01562" height="4.95509" rx="0.5" fill="url(#paint16_linear_20020_4735)"/>
<rect x="26.0482" y="10.4736" width="2.01562" height="4.95509" rx="0.5" fill="url(#paint17_linear_20020_4735)"/>
<g filter="url(#filter7_i_20020_4735)">
<path d="M5.61461 10.9482L5.61467 10.9512C5.6249 11.7016 5.62397 12.4516 5.61459 13.2021C5.59896 14.4521 6.27493 15.3154 6.58743 15.581C7.19485 16.1281 8.06265 16.4288 8.80581 16.6864C9.24349 16.8381 9.95831 17.1243 9.95831 17.6552L9.95829 18.456L10.8881 18.1396C10.8881 17.6318 10.8646 17.154 10.7006 16.8662C10.3335 16.2216 9.88034 15.7959 8.25534 15.3349C6.95535 14.9662 6.56784 13.8427 6.53659 13.3271L6.53665 10.9772H6.53811C6.78311 6.27269 10.6753 2.54818 15.4407 2.54818C15.6488 2.54818 15.8554 2.5553 16.0601 2.5693V1.7548C16.0601 1.64597 15.973 1.5569 15.8642 1.55674C10.7348 1.5494 5.63747 5.42554 5.61461 10.9482Z" fill="#BFBDBD"/>
<path d="M5.61461 10.9482L5.61467 10.9512C5.6249 11.7016 5.62397 12.4516 5.61459 13.2021C5.59896 14.4521 6.27493 15.3154 6.58743 15.581C7.19485 16.1281 8.06265 16.4288 8.80581 16.6864C9.24349 16.8381 9.95831 17.1243 9.95831 17.6552L9.95829 18.456L10.8881 18.1396C10.8881 17.6318 10.8646 17.154 10.7006 16.8662C10.3335 16.2216 9.88034 15.7959 8.25534 15.3349C6.95535 14.9662 6.56784 13.8427 6.53659 13.3271L6.53665 10.9772H6.53811C6.78311 6.27269 10.6753 2.54818 15.4407 2.54818C15.6488 2.54818 15.8554 2.5553 16.0601 2.5693V1.7548C16.0601 1.64597 15.973 1.5569 15.8642 1.55674C10.7348 1.5494 5.63747 5.42554 5.61461 10.9482Z" fill="url(#paint18_radial_20020_4735)"/>
</g>
<path d="M16.0599 2.5654C20.5422 2.87195 24.1459 6.46873 24.3801 10.9677C24.3801 13.0442 24.1614 14.4052 22.9114 16.4834L21.2551 19.4209H23.8568C25.6517 19.4209 27.1068 17.9658 27.1068 16.1709V12.2959C27.1068 8.97243 23.269 1.84651 16.2658 1.5652C16.1538 1.5607 16.0599 1.65104 16.0599 1.76313V2.5654Z" fill="#CECAD1"/>
<path d="M16.0599 2.5654C20.5422 2.87195 24.1459 6.46873 24.3801 10.9677C24.3801 13.0442 24.1614 14.4052 22.9114 16.4834L21.2551 19.4209H23.8568C25.6517 19.4209 27.1068 17.9658 27.1068 16.1709V12.2959C27.1068 8.97243 23.269 1.84651 16.2658 1.5652C16.1538 1.5607 16.0599 1.65104 16.0599 1.76313V2.5654Z" fill="url(#paint19_radial_20020_4735)"/>
<path d="M16.0599 2.5654C20.5422 2.87195 24.1459 6.46873 24.3801 10.9677C24.3801 13.0442 24.1614 14.4052 22.9114 16.4834L21.2551 19.4209H23.8568C25.6517 19.4209 27.1068 17.9658 27.1068 16.1709V12.2959C27.1068 8.97243 23.269 1.84651 16.2658 1.5652C16.1538 1.5607 16.0599 1.65104 16.0599 1.76313V2.5654Z" fill="url(#paint20_radial_20020_4735)"/>
<path d="M16.0599 2.5654C20.5422 2.87195 24.1459 6.46873 24.3801 10.9677C24.3801 13.0442 24.1614 14.4052 22.9114 16.4834L21.2551 19.4209H23.8568C25.6517 19.4209 27.1068 17.9658 27.1068 16.1709V12.2959C27.1068 8.97243 23.269 1.84651 16.2658 1.5652C16.1538 1.5607 16.0599 1.65104 16.0599 1.76313V2.5654Z" fill="url(#paint21_linear_20020_4735)"/>
<path d="M9.95831 19.363C10.3715 19.1356 10.8463 19.0061 11.3514 19.0061C12.2344 19.0061 13.025 19.4018 13.5556 20.0254C13.5165 18.7793 12.4941 17.7811 11.2385 17.7811C10.7653 17.7811 10.3251 17.923 9.95831 18.1664V19.363Z" fill="url(#paint22_radial_20020_4735)"/>
<g filter="url(#filter8_f_20020_4735)">
<path d="M14.5521 2.18864C12.5833 2.30323 7.38019 3.93649 6.42706 9.46774" stroke="url(#paint23_linear_20020_4735)" stroke-width="0.2" stroke-linecap="round"/>
</g>
<g filter="url(#filter9_f_20020_4735)">
<path d="M6.11456 13.1396C6.09373 13.6813 6.28019 14.9927 7.69269 15.5927C9.45831 16.3427 10.3489 16.4209 10.4114 17.4365" stroke="url(#paint24_linear_20020_4735)" stroke-width="0.2" stroke-linecap="round"/>
</g>
<g filter="url(#filter10_f_20020_4735)">
<path d="M16.6416 2.18864C19.0823 2.52019 23.6058 3.7966 25.9846 9.05165" stroke="url(#paint25_linear_20020_4735)" stroke-width="0.2" stroke-linecap="round"/>
</g>
<g filter="url(#filter11_f_20020_4735)">
<rect x="27.5677" y="10.9521" width="0.296875" height="3.75" fill="url(#paint26_linear_20020_4735)"/>
</g>
<defs>
<filter id="filter0_f_20020_4735" x="9.10236" y="3.18558" width="15.2383" height="12.1685" filterUnits="userSpaceOnUse" color-interpolation-filters="sRGB">
<feFlood flood-opacity="0" result="BackgroundImageFix"/>
<feBlend mode="normal" in="SourceGraphic" in2="BackgroundImageFix" result="shape"/>
<feGaussianBlur stdDeviation="0.5" result="effect1_foregroundBlur_20020_4735"/>
</filter>
<filter id="filter1_f_20020_4735" x="7.23132" y="11.6059" width="12.1385" height="17.1494" filterUnits="userSpaceOnUse" color-interpolation-filters="sRGB">
<feFlood flood-opacity="0" result="BackgroundImageFix"/>
<feBlend mode="normal" in="SourceGraphic" in2="BackgroundImageFix" result="shape"/>
<feGaussianBlur stdDeviation="0.25" result="effect1_foregroundBlur_20020_4735"/>
</filter>
<filter id="filter2_f_20020_4735" x="7.68018" y="18.2384" width="7.65466" height="7.65469" filterUnits="userSpaceOnUse" color-interpolation-filters="sRGB">
<feFlood flood-opacity="0" result="BackgroundImageFix"/>
<feBlend mode="normal" in="SourceGraphic" in2="BackgroundImageFix" result="shape"/>
<feGaussianBlur stdDeviation="0.375" result="effect1_foregroundBlur_20020_4735"/>
</filter>
<filter id="filter3_f_20020_4735" x="8.35114" y="18.9094" width="5.95367" height="5.95368" filterUnits="userSpaceOnUse" color-interpolation-filters="sRGB">
<feFlood flood-opacity="0" result="BackgroundImageFix"/>
<feBlend mode="normal" in="SourceGraphic" in2="BackgroundImageFix" result="shape"/>
<feGaussianBlur stdDeviation="0.25" result="effect1_foregroundBlur_20020_4735"/>
</filter>
<filter id="filter4_i_20020_4735" x="6.45282" y="2.50278" width="18.4517" height="26.8399" filterUnits="userSpaceOnUse" color-interpolation-filters="sRGB">
<feFlood flood-opacity="0" result="BackgroundImageFix"/>
<feBlend mode="normal" in="SourceGraphic" in2="BackgroundImageFix" result="shape"/>
<feColorMatrix in="SourceAlpha" type="matrix" values="0 0 0 0 0 0 0 0 0 0 0 0 0 0 0 0 0 0 127 0" result="hardAlpha"/>
<feOffset dx="0.5"/>
<feGaussianBlur stdDeviation="1"/>
<feComposite in2="hardAlpha" operator="arithmetic" k2="-1" k3="1"/>
<feColorMatrix type="matrix" values="0 0 0 0 0.220833 0 0 0 0 0.142622 0 0 0 0 0.193629 0 0 0 1 0"/>
<feBlend mode="normal" in2="shape" result="effect1_innerShadow_20020_4735"/>
</filter>
<filter id="filter5_f_20020_4735" x="13.8363" y="1.45557" width="11.8523" height="12.3957" filterUnits="userSpaceOnUse" color-interpolation-filters="sRGB">
<feFlood flood-opacity="0" result="BackgroundImageFix"/>
<feBlend mode="normal" in="SourceGraphic" in2="BackgroundImageFix" result="shape"/>
<feGaussianBlur stdDeviation="0.75" result="effect1_foregroundBlur_20020_4735"/>
</filter>
<filter id="filter6_f_20020_4735" x="6.60114" y="7.12288" width="12.7711" height="22.7186" filterUnits="userSpaceOnUse" color-interpolation-filters="sRGB">
<feFlood flood-opacity="0" result="BackgroundImageFix"/>
<feBlend mode="normal" in="SourceGraphic" in2="BackgroundImageFix" result="shape"/>
<feGaussianBlur stdDeviation="0.75" result="effect1_foregroundBlur_20020_4735"/>
</filter>
<filter id="filter7_i_20020_4735" x="5.61432" y="1.30673" width="10.6957" height="17.1493" filterUnits="userSpaceOnUse" color-interpolation-filters="sRGB">
<feFlood flood-opacity="0" result="BackgroundImageFix"/>
<feBlend mode="normal" in="SourceGraphic" in2="BackgroundImageFix" result="shape"/>
<feColorMatrix in="SourceAlpha" type="matrix" values="0 0 0 0 0 0 0 0 0 0 0 0 0 0 0 0 0 0 127 0" result="hardAlpha"/>
<feOffset dx="0.25" dy="-0.25"/>
<feGaussianBlur stdDeviation="0.375"/>
<feComposite in2="hardAlpha" operator="arithmetic" k2="-1" k3="1"/>
<feColorMatrix type="matrix" values="0 0 0 0 0 0 0 0 0 0 0 0 0 0 0 0 0 0 0.25 0"/>
<feBlend mode="normal" in2="shape" result="effect1_innerShadow_20020_4735"/>
</filter>
<filter id="filter8_f_20020_4735" x="6.12703" y="1.88864" width="8.72501" height="7.87912" filterUnits="userSpaceOnUse" color-interpolation-filters="sRGB">
<feFlood flood-opacity="0" result="BackgroundImageFix"/>
<feBlend mode="normal" in="SourceGraphic" in2="BackgroundImageFix" result="shape"/>
<feGaussianBlur stdDeviation="0.1" result="effect1_foregroundBlur_20020_4735"/>
</filter>
<filter id="filter9_f_20020_4735" x="5.81312" y="12.8396" width="4.89829" height="4.89688" filterUnits="userSpaceOnUse" color-interpolation-filters="sRGB">
<feFlood flood-opacity="0" result="BackgroundImageFix"/>
<feBlend mode="normal" in="SourceGraphic" in2="BackgroundImageFix" result="shape"/>
<feGaussianBlur stdDeviation="0.1" result="effect1_foregroundBlur_20020_4735"/>
</filter>
<filter id="filter10_f_20020_4735" x="16.2416" y="1.78864" width="10.1431" height="7.66303" filterUnits="userSpaceOnUse" color-interpolation-filters="sRGB">
<feFlood flood-opacity="0" result="BackgroundImageFix"/>
<feBlend mode="normal" in="SourceGraphic" in2="BackgroundImageFix" result="shape"/>
<feGaussianBlur stdDeviation="0.15" result="effect1_foregroundBlur_20020_4735"/>
</filter>
<filter id="filter11_f_20020_4735" x="27.3177" y="10.7021" width="0.796875" height="4.25" filterUnits="userSpaceOnUse" color-interpolation-filters="sRGB">
<feFlood flood-opacity="0" result="BackgroundImageFix"/>
<feBlend mode="normal" in="SourceGraphic" in2="BackgroundImageFix" result="shape"/>
<feGaussianBlur stdDeviation="0.125" result="effect1_foregroundBlur_20020_4735"/>
</filter>
<radialGradient id="paint0_radial_20020_4735" cx="0" cy="0" r="1" gradientUnits="userSpaceOnUse" gradientTransform="translate(16.7215 13.7631) rotate(-90.1559) scale(7.91248 13.7995)">
<stop offset="0.415385" stop-color="#2A1521" stop-opacity="0"/>
<stop offset="0.847781" stop-color="#2A1521"/>
</radialGradient>
<linearGradient id="paint1_linear_20020_4735" x1="12.4101" y1="12.6492" x2="9.75024" y2="18.053" gradientUnits="userSpaceOnUse">
<stop stop-color="#18080B"/>
<stop offset="1" stop-color="#18080B" stop-opacity="0"/>
</linearGradient>
<linearGradient id="paint2_linear_20020_4735" x1="13.0742" y1="27.078" x2="15.0061" y2="21.6748" gradientUnits="userSpaceOnUse">
<stop offset="0.218308" stop-color="#392828"/>
<stop offset="1" stop-color="#392828" stop-opacity="0"/>
</linearGradient>
<linearGradient id="paint3_linear_20020_4735" x1="13.9884" y1="20.2903" x2="11.7693" y2="24.1959" gradientUnits="userSpaceOnUse">
<stop offset="0.340362" stop-color="#5D4B49"/>
<stop offset="1" stop-color="#150706"/>
</linearGradient>
<linearGradient id="paint4_linear_20020_4735" x1="11.328" y1="18.9884" x2="11.328" y2="24.7841" gradientUnits="userSpaceOnUse">
<stop stop-color="#432A26"/>
<stop offset="0.9999" stop-color="#351920"/>
</linearGradient>
<radialGradient id="paint5_radial_20020_4735" cx="0" cy="0" r="1" gradientUnits="userSpaceOnUse" gradientTransform="translate(13.9454 20.7041) rotate(144.196) scale(2.51085 2.86741)">
<stop stop-color="#725A58"/>
<stop offset="1" stop-color="#65504E" stop-opacity="0"/>
</radialGradient>
<linearGradient id="paint6_linear_20020_4735" x1="11.1423" y1="30.9418" x2="19.2924" y2="-0.330653" gradientUnits="userSpaceOnUse">
<stop stop-color="#462934"/>
<stop offset="1" stop-color="#56403D"/>
</linearGradient>
<radialGradient id="paint7_radial_20020_4735" cx="0" cy="0" r="1" gradientUnits="userSpaceOnUse" gradientTransform="translate(16.8776 10.9588) rotate(-55.1378) scale(6.54829 7.33179)">
<stop offset="0.478368" stop-color="#351C24"/>
<stop offset="1" stop-color="#351C24" stop-opacity="0"/>
</radialGradient>
<radialGradient id="paint8_radial_20020_4735" cx="0" cy="0" r="1" gradientUnits="userSpaceOnUse" gradientTransform="translate(22.414 15.245) rotate(-88.2242) scale(4.46939 5.92828)">
<stop offset="0.174469" stop-color="#51393B"/>
<stop offset="1" stop-color="#51393B" stop-opacity="0"/>
</radialGradient>
<radialGradient id="paint9_radial_20020_4735" cx="0" cy="0" r="1" gradientUnits="userSpaceOnUse" gradientTransform="translate(17.4696 22.5817) rotate(115.159) scale(4.8008 4.68163)">
<stop offset="0.241661" stop-color="#533B3D"/>
<stop offset="1" stop-color="#533B3D" stop-opacity="0"/>
</radialGradient>
<radialGradient id="paint10_radial_20020_4735" cx="0" cy="0" r="1" gradientUnits="userSpaceOnUse" gradientTransform="translate(21.828 26.0517) rotate(-115.896) scale(25.4348 18.5395)">
<stop offset="0.953393" stop-color="#605654" stop-opacity="0"/>
<stop offset="1" stop-color="#605654"/>
</radialGradient>
<radialGradient id="paint11_radial_20020_4735" cx="0" cy="0" r="1" gradientUnits="userSpaceOnUse" gradientTransform="translate(14.0604 8.20889) rotate(98.1672) scale(21.3503 16.6678)">
<stop offset="0.912279" stop-color="#432A42" stop-opacity="0"/>
<stop offset="1" stop-color="#432A42"/>
</radialGradient>
<radialGradient id="paint12_radial_20020_4735" cx="0" cy="0" r="1" gradientUnits="userSpaceOnUse" gradientTransform="translate(9.96504 21.8861) scale(2.02245 3.59211)">
<stop stop-color="#50373A"/>
<stop offset="1" stop-color="#50373A" stop-opacity="0"/>
</radialGradient>
<linearGradient id="paint13_linear_20020_4735" x1="24.0942" y1="11.3512" x2="16.9401" y2="3.80479" gradientUnits="userSpaceOnUse">
<stop stop-color="#634F4D" stop-opacity="0"/>
<stop offset="0.509619" stop-color="#634F4D"/>
<stop offset="1" stop-color="#634F4D" stop-opacity="0"/>
</linearGradient>
<linearGradient id="paint14_linear_20020_4735" x1="8.12668" y1="2.44641" x2="20.6247" y2="23.7985" gradientUnits="userSpaceOnUse">
<stop stop-color="#634F4D" stop-opacity="0"/>
<stop offset="0.69801" stop-color="#6F5552"/>
</linearGradient>
<linearGradient id="paint15_linear_20020_4735" x1="27.056" y1="10.4736" x2="27.056" y2="15.4287" gradientUnits="userSpaceOnUse">
<stop stop-color="#CACACA"/>
<stop offset="1" stop-color="#A59EAE"/>
</linearGradient>
<linearGradient id="paint16_linear_20020_4735" x1="27.5931" y1="15.6884" x2="27.5931" y2="14.5754" gradientUnits="userSpaceOnUse">
<stop stop-color="#917EA4"/>
<stop offset="1" stop-color="#917EA4" stop-opacity="0"/>
</linearGradient>
<linearGradient id="paint17_linear_20020_4735" x1="27.056" y1="10.3974" x2="27.056" y2="10.8662" gradientUnits="userSpaceOnUse">
<stop stop-color="#BBBBBB"/>
<stop offset="1" stop-color="#BBBBBB" stop-opacity="0"/>
</linearGradient>
<radialGradient id="paint18_radial_20020_4735" cx="0" cy="0" r="1" gradientUnits="userSpaceOnUse" gradientTransform="translate(9.88019 18.6709) rotate(-90) scale(1.78125 1.10077)">
<stop stop-color="#635951"/>
<stop offset="1" stop-color="#635951" stop-opacity="0"/>
</radialGradient>
<radialGradient id="paint19_radial_20020_4735" cx="0" cy="0" r="1" gradientUnits="userSpaceOnUse" gradientTransform="translate(16.8958 2.874) rotate(30.4318) scale(8.08222 4.99852)">
<stop stop-color="#797979"/>
<stop offset="1" stop-color="#959595" stop-opacity="0"/>
</radialGradient>
<radialGradient id="paint20_radial_20020_4735" cx="0" cy="0" r="1" gradientUnits="userSpaceOnUse" gradientTransform="translate(20.5557 14.7181) rotate(4.64508) scale(5.41661 10.3169)">
<stop offset="0.361636" stop-color="#A08D8D"/>
<stop offset="1" stop-color="#A08D8D" stop-opacity="0"/>
</radialGradient>
<linearGradient id="paint21_linear_20020_4735" x1="22.8607" y1="19.8584" x2="22.8607" y2="17.2126" gradientUnits="userSpaceOnUse">
<stop stop-color="#7B608B"/>
<stop offset="1" stop-color="#806693" stop-opacity="0"/>
</linearGradient>
<radialGradient id="paint22_radial_20020_4735" cx="0" cy="0" r="1" gradientUnits="userSpaceOnUse" gradientTransform="translate(12.3646 19.2802) rotate(157.557) scale(2.33294 1.92272)">
<stop stop-color="#CEC8C7"/>
<stop offset="1" stop-color="#A99D99"/>
</radialGradient>
<linearGradient id="paint23_linear_20020_4735" x1="14.8333" y1="1.89177" x2="6.67706" y2="8.93864" gradientUnits="userSpaceOnUse">
<stop stop-color="#D3CDCF" stop-opacity="0"/>
<stop offset="0.551142" stop-color="#D3CDCF"/>
<stop offset="1" stop-color="#D3CDCF" stop-opacity="0"/>
</linearGradient>
<linearGradient id="paint24_linear_20020_4735" x1="6.23859" y1="13.249" x2="10.1873" y2="17.8807" gradientUnits="userSpaceOnUse">
<stop stop-color="#D3CDCF" stop-opacity="0"/>
<stop offset="0.551142" stop-color="#D3CDCF"/>
<stop offset="1" stop-color="#D3CDCF" stop-opacity="0"/>
</linearGradient>
<linearGradient id="paint25_linear_20020_4735" x1="16.4197" y1="2.18864" x2="30.6078" y2="7.39415" gradientUnits="userSpaceOnUse">
<stop stop-color="#A29F9F" stop-opacity="0"/>
<stop offset="0.123223" stop-color="#BEBDBC"/>
<stop offset="0.541667" stop-color="#DADADA"/>
<stop offset="0.763411" stop-color="#DADADA" stop-opacity="0"/>
</linearGradient>
<linearGradient id="paint26_linear_20020_4735" x1="27.7161" y1="9.62399" x2="27.7161" y2="14.7021" gradientUnits="userSpaceOnUse">
<stop offset="0.151943" stop-color="#ECEBED" stop-opacity="0"/>
<stop offset="0.5" stop-color="#ECEBED"/>
<stop offset="1" stop-color="#ECEBED" stop-opacity="0"/>
</linearGradient>
</defs>
</svg>
