<svg width="32" height="32" viewBox="0 0 32 32" fill="none" xmlns="http://www.w3.org/2000/svg">
<path d="M20.7975 2.66969C18.6614 4.84804 16.1569 7.81815 15.2819 11.3025L15.0591 14.0681H20.0903C21.1216 12.2452 22.9028 8.74778 24.6647 6.76346C26.4265 4.77914 25.2196 2.98581 24.5983 2.45484C24.1621 1.99293 22.3756 1.06034 20.7975 2.66969Z" fill="url(#paint0_linear_20020_2239)"/>
<path d="M20.7975 2.66969C18.6614 4.84804 16.1569 7.81815 15.2819 11.3025L15.0591 14.0681H20.0903C21.1216 12.2452 22.9028 8.74778 24.6647 6.76346C26.4265 4.77914 25.2196 2.98581 24.5983 2.45484C24.1621 1.99293 22.3756 1.06034 20.7975 2.66969Z" fill="url(#paint1_radial_20020_2239)"/>
<path d="M20.7975 2.66969C18.6614 4.84804 16.1569 7.81815 15.2819 11.3025L15.0591 14.0681H20.0903C21.1216 12.2452 22.9028 8.74778 24.6647 6.76346C26.4265 4.77914 25.2196 2.98581 24.5983 2.45484C24.1621 1.99293 22.3756 1.06034 20.7975 2.66969Z" fill="url(#paint2_radial_20020_2239)"/>
<path d="M20.7975 2.66969C18.6614 4.84804 16.1569 7.81815 15.2819 11.3025L15.0591 14.0681H20.0903C21.1216 12.2452 22.9028 8.74778 24.6647 6.76346C26.4265 4.77914 25.2196 2.98581 24.5983 2.45484C24.1621 1.99293 22.3756 1.06034 20.7975 2.66969Z" fill="url(#paint3_radial_20020_2239)" fill-opacity="0.5"/>
<path d="M20.7975 2.66969C18.6614 4.84804 16.1569 7.81815 15.2819 11.3025L15.0591 14.0681H20.0903C21.1216 12.2452 22.9028 8.74778 24.6647 6.76346C26.4265 4.77914 25.2196 2.98581 24.5983 2.45484C24.1621 1.99293 22.3756 1.06034 20.7975 2.66969Z" fill="url(#paint4_radial_20020_2239)"/>
<path d="M20.7975 2.66969C18.6614 4.84804 16.1569 7.81815 15.2819 11.3025L15.0591 14.0681H20.0903C21.1216 12.2452 22.9028 8.74778 24.6647 6.76346C26.4265 4.77914 25.2196 2.98581 24.5983 2.45484C24.1621 1.99293 22.3756 1.06034 20.7975 2.66969Z" fill="url(#paint5_radial_20020_2239)"/>
<g filter="url(#filter0_f_20020_2239)">
<path d="M23.5674 4.41862C22.6386 5.57033 21.621 7.03784 20.3207 8.83377" stroke="#D0A98D" stroke-width="2.5" stroke-linecap="round"/>
</g>
<g filter="url(#filter1_i_20020_2239)">
<path d="M5.99658 20.5588L5.80908 15.4446V13.8896H20.2778C20.2882 13.0458 18.4342 9.77394 16.0241 6.56922C14.6022 4.6786 15.404 3.00365 16.5397 2.26455C18.0162 1.30359 19.5907 2.10467 20.485 3.16296C20.485 3.16296 26.1216 9.09265 26.1216 16.4674C26.2487 21.1079 26.153 21.8645 24.9028 24.3271C23.0878 27.9023 19.1861 29.6844 15.6549 29.6844C9.84237 29.6844 6.18408 25.5458 5.99658 20.5588Z" fill="#A47474"/>
<path d="M5.99658 20.5588L5.80908 15.4446V13.8896H20.2778C20.2882 13.0458 18.4342 9.77394 16.0241 6.56922C14.6022 4.6786 15.404 3.00365 16.5397 2.26455C18.0162 1.30359 19.5907 2.10467 20.485 3.16296C20.485 3.16296 26.1216 9.09265 26.1216 16.4674C26.2487 21.1079 26.153 21.8645 24.9028 24.3271C23.0878 27.9023 19.1861 29.6844 15.6549 29.6844C9.84237 29.6844 6.18408 25.5458 5.99658 20.5588Z" fill="url(#paint6_radial_20020_2239)"/>
<path d="M5.99658 20.5588L5.80908 15.4446V13.8896H20.2778C20.2882 13.0458 18.4342 9.77394 16.0241 6.56922C14.6022 4.6786 15.404 3.00365 16.5397 2.26455C18.0162 1.30359 19.5907 2.10467 20.485 3.16296C20.485 3.16296 26.1216 9.09265 26.1216 16.4674C26.2487 21.1079 26.153 21.8645 24.9028 24.3271C23.0878 27.9023 19.1861 29.6844 15.6549 29.6844C9.84237 29.6844 6.18408 25.5458 5.99658 20.5588Z" fill="url(#paint7_radial_20020_2239)"/>
<path d="M5.99658 20.5588L5.80908 15.4446V13.8896H20.2778C20.2882 13.0458 18.4342 9.77394 16.0241 6.56922C14.6022 4.6786 15.404 3.00365 16.5397 2.26455C18.0162 1.30359 19.5907 2.10467 20.485 3.16296C20.485 3.16296 26.1216 9.09265 26.1216 16.4674C26.2487 21.1079 26.153 21.8645 24.9028 24.3271C23.0878 27.9023 19.1861 29.6844 15.6549 29.6844C9.84237 29.6844 6.18408 25.5458 5.99658 20.5588Z" fill="url(#paint8_radial_20020_2239)"/>
</g>
<g filter="url(#filter2_f_20020_2239)">
<path d="M16.8286 14.865C15.0964 14.865 13.6923 16.1107 13.6923 17.6474C13.6923 19.1841 15.0964 20.4298 16.8286 20.4298H18.4994C21.0248 20.4298 21.6791 20.5623 21.8782 20.7888L23.4142 20.6114C24.6441 22.0105 24.4098 21.2629 24.4098 19.4887V18.984C24.4098 16.1437 22.8499 15.2728 19.7591 14.9129C19.5704 14.8815 19.3757 14.865 19.1767 14.865H16.8286Z" fill="#6E4044"/>
</g>
<g filter="url(#filter3_f_20020_2239)">
<path d="M6.36172 11.9145C6.36172 10.5582 7.51635 9.45877 8.94065 9.45877C10.365 9.45877 11.5196 10.5582 11.5196 11.9145V14.1744C11.5196 15.5306 10.365 16.6301 8.94065 16.6301C7.51635 16.6301 6.36172 15.5306 6.36172 14.1744V11.9145Z" fill="#6E4044"/>
</g>
<g filter="url(#filter4_f_20020_2239)">
<path d="M9.81384 12.673C9.81384 11.3246 10.9618 10.2316 12.3778 10.2316C13.7938 10.2316 14.9418 11.3246 14.9418 12.673V14.9198C14.9418 16.2682 13.7938 17.3613 12.3778 17.3613C10.9618 17.3613 9.81384 16.2682 9.81384 14.9198V12.673Z" fill="#6E4044"/>
</g>
<path d="M5.80908 11.4235C5.80908 9.99321 7.05869 8.83377 8.60016 8.83377C10.1416 8.83377 11.3912 9.99321 11.3912 11.4235V13.8066C11.3912 15.2368 10.1416 16.3963 8.60016 16.3963C7.05869 16.3963 5.80908 15.2368 5.80908 13.8066V11.4235Z" fill="#A7836A"/>
<path d="M5.80908 11.4235C5.80908 9.99321 7.05869 8.83377 8.60016 8.83377C10.1416 8.83377 11.3912 9.99321 11.3912 11.4235V13.8066C11.3912 15.2368 10.1416 16.3963 8.60016 16.3963C7.05869 16.3963 5.80908 15.2368 5.80908 13.8066V11.4235Z" fill="url(#paint9_linear_20020_2239)"/>
<path d="M5.80908 11.4235C5.80908 9.99321 7.05869 8.83377 8.60016 8.83377C10.1416 8.83377 11.3912 9.99321 11.3912 11.4235V13.8066C11.3912 15.2368 10.1416 16.3963 8.60016 16.3963C7.05869 16.3963 5.80908 15.2368 5.80908 13.8066V11.4235Z" fill="url(#paint10_radial_20020_2239)"/>
<path d="M5.80908 11.4235C5.80908 9.99321 7.05869 8.83377 8.60016 8.83377C10.1416 8.83377 11.3912 9.99321 11.3912 11.4235V13.8066C11.3912 15.2368 10.1416 16.3963 8.60016 16.3963C7.05869 16.3963 5.80908 15.2368 5.80908 13.8066V11.4235Z" fill="url(#paint11_radial_20020_2239)"/>
<path d="M10.3209 10.6734C10.3209 9.02746 11.5922 7.69315 13.1605 7.69315C14.7287 7.69315 16 9.02746 16 10.6734V13.416C16 15.062 14.7287 16.3963 13.1605 16.3963C11.5922 16.3963 10.3209 15.062 10.3209 13.416V10.6734Z" fill="#B49275"/>
<path d="M10.3209 10.6734C10.3209 9.02746 11.5922 7.69315 13.1605 7.69315C14.7287 7.69315 16 9.02746 16 10.6734V13.416C16 15.062 14.7287 16.3963 13.1605 16.3963C11.5922 16.3963 10.3209 15.062 10.3209 13.416V10.6734Z" fill="url(#paint12_radial_20020_2239)"/>
<path d="M10.3209 10.6734C10.3209 9.02746 11.5922 7.69315 13.1605 7.69315C14.7287 7.69315 16 9.02746 16 10.6734V13.416C16 15.062 14.7287 16.3963 13.1605 16.3963C11.5922 16.3963 10.3209 15.062 10.3209 13.416V10.6734Z" fill="url(#paint13_linear_20020_2239)"/>
<path d="M10.3209 10.6734C10.3209 9.02746 11.5922 7.69315 13.1605 7.69315C14.7287 7.69315 16 9.02746 16 10.6734V13.416C16 15.062 14.7287 16.3963 13.1605 16.3963C11.5922 16.3963 10.3209 15.062 10.3209 13.416V10.6734Z" fill="url(#paint14_radial_20020_2239)"/>
<g filter="url(#filter5_f_20020_2239)">
<path d="M18.7168 3.98833C20.8265 6.2333 23.6125 10.1823 23.9371 13.5903C24.2815 17.2071 23.9371 19.556 23.9371 20.9495" stroke="#CCA58D" stroke-width="2" stroke-linecap="round"/>
</g>
<path d="M17.8129 13.24C16.1647 13.24 14.8285 14.5762 14.8285 16.2244C14.8285 17.8726 16.1647 19.2088 17.8129 19.2088H19.4027C19.7109 19.2088 20.0018 19.3508 20.1913 19.5938L22.2358 22.2155C23.406 23.7161 25.8129 22.8886 25.8129 20.9856V19.24C25.8129 16.1936 23.5425 13.6774 20.6014 13.2914C20.4219 13.2577 20.2366 13.24 20.0473 13.24H17.8129Z" fill="url(#paint15_radial_20020_2239)"/>
<path d="M17.8129 13.24C16.1647 13.24 14.8285 14.5762 14.8285 16.2244C14.8285 17.8726 16.1647 19.2088 17.8129 19.2088H19.4027C19.7109 19.2088 20.0018 19.3508 20.1913 19.5938L22.2358 22.2155C23.406 23.7161 25.8129 22.8886 25.8129 20.9856V19.24C25.8129 16.1936 23.5425 13.6774 20.6014 13.2914C20.4219 13.2577 20.2366 13.24 20.0473 13.24H17.8129Z" fill="url(#paint16_linear_20020_2239)"/>
<path d="M17.8129 13.24C16.1647 13.24 14.8285 14.5762 14.8285 16.2244C14.8285 17.8726 16.1647 19.2088 17.8129 19.2088H19.4027C19.7109 19.2088 20.0018 19.3508 20.1913 19.5938L22.2358 22.2155C23.406 23.7161 25.8129 22.8886 25.8129 20.9856V19.24C25.8129 16.1936 23.5425 13.6774 20.6014 13.2914C20.4219 13.2577 20.2366 13.24 20.0473 13.24H17.8129Z" fill="url(#paint17_radial_20020_2239)"/>
<path d="M17.8129 13.24C16.1647 13.24 14.8285 14.5762 14.8285 16.2244C14.8285 17.8726 16.1647 19.2088 17.8129 19.2088H19.4027C19.7109 19.2088 20.0018 19.3508 20.1913 19.5938L22.2358 22.2155C23.406 23.7161 25.8129 22.8886 25.8129 20.9856V19.24C25.8129 16.1936 23.5425 13.6774 20.6014 13.2914C20.4219 13.2577 20.2366 13.24 20.0473 13.24H17.8129Z" fill="url(#paint18_radial_20020_2239)"/>
<g filter="url(#filter6_f_20020_2239)">
<rect x="8.45355" y="10.2462" width="1.36028" height="4.48432" rx="0.680138" fill="url(#paint19_linear_20020_2239)"/>
</g>
<g filter="url(#filter7_f_20020_2239)">
<rect x="13.3657" y="9.2731" width="1.69343" height="5.45743" rx="0.846714" fill="#D0A88C"/>
</g>
<path d="M5.99658 20.5778L5.80908 15.4635V13.9085H5.81135C5.87092 15.2899 7.09672 16.3928 8.60016 16.3928C9.56703 16.3928 10.4191 15.9367 10.9199 15.2437C11.4396 15.9431 12.25 16.3928 13.1605 16.3928C14.5677 16.3928 15.7358 15.3184 15.9609 13.9085H20.2778C20.2882 13.0647 18.4342 9.79287 16.0241 6.58815C14.6022 4.69752 15.404 3.02258 16.5397 2.28347C18.0162 1.32251 19.7584 2.03341 20.485 3.18188C20.485 3.18188 26.1216 9.11157 26.1216 16.4864C26.2487 21.1268 26.153 21.8835 24.9028 24.346C23.0878 27.9212 19.1861 29.7033 15.6549 29.7033C9.84237 29.7033 6.18408 25.5647 5.99658 20.5778Z" fill="url(#paint20_radial_20020_2239)"/>
<path d="M5.99658 20.5778L5.80908 15.4635V13.9085H5.81135C5.87092 15.2899 7.09672 16.3928 8.60016 16.3928C9.56703 16.3928 10.4191 15.9367 10.9199 15.2437C11.4396 15.9431 12.25 16.3928 13.1605 16.3928C14.5677 16.3928 15.7358 15.3184 15.9609 13.9085H20.2778C20.2882 13.0647 18.4342 9.79287 16.0241 6.58815C14.6022 4.69752 15.404 3.02258 16.5397 2.28347C18.0162 1.32251 19.7584 2.03341 20.485 3.18188C20.485 3.18188 26.1216 9.11157 26.1216 16.4864C26.2487 21.1268 26.153 21.8835 24.9028 24.346C23.0878 27.9212 19.1861 29.7033 15.6549 29.7033C9.84237 29.7033 6.18408 25.5647 5.99658 20.5778Z" fill="url(#paint21_radial_20020_2239)"/>
<g filter="url(#filter8_f_20020_2239)">
<path d="M18.7216 15.7603H19.3365C21.3655 15.7603 23.5367 16.3475 24.0599 18.3079C24.1593 18.6804 24.2346 19.0961 24.2744 19.5572" stroke="url(#paint22_linear_20020_2239)" stroke-width="2" stroke-linecap="round"/>
</g>
<path d="M20.1118 13.24C21.1389 13.3524 23.2909 13.6176 24.8908 16C25.7777 8.26146 20.485 3.18534 20.485 3.18534C19.7584 2.03687 18.0163 1.32596 16.5397 2.28691C15.404 3.02603 14.6022 4.70098 16.0241 6.5916C18.0029 9.22284 19.6069 11.8994 20.1118 13.24Z" fill="url(#paint23_radial_20020_2239)"/>
<path d="M20.1118 13.24C21.1389 13.3524 23.2909 13.6176 24.8908 16C25.7777 8.26146 20.485 3.18534 20.485 3.18534C19.7584 2.03687 18.0163 1.32596 16.5397 2.28691C15.404 3.02603 14.6022 4.70098 16.0241 6.5916C18.0029 9.22284 19.6069 11.8994 20.1118 13.24Z" fill="url(#paint24_radial_20020_2239)"/>
<defs>
<filter id="filter0_f_20020_2239" x="17.0706" y="1.16858" width="9.74686" height="10.9153" filterUnits="userSpaceOnUse" color-interpolation-filters="sRGB">
<feFlood flood-opacity="0" result="BackgroundImageFix"/>
<feBlend mode="normal" in="SourceGraphic" in2="BackgroundImageFix" result="shape"/>
<feGaussianBlur stdDeviation="1" result="effect1_foregroundBlur_20020_2239"/>
</filter>
<filter id="filter1_i_20020_2239" x="5.80908" y="1.08392" width="20.8546" height="28.6005" filterUnits="userSpaceOnUse" color-interpolation-filters="sRGB">
<feFlood flood-opacity="0" result="BackgroundImageFix"/>
<feBlend mode="normal" in="SourceGraphic" in2="BackgroundImageFix" result="shape"/>
<feColorMatrix in="SourceAlpha" type="matrix" values="0 0 0 0 0 0 0 0 0 0 0 0 0 0 0 0 0 0 127 0" result="hardAlpha"/>
<feOffset dx="0.5" dy="-0.75"/>
<feGaussianBlur stdDeviation="0.75"/>
<feComposite in2="hardAlpha" operator="arithmetic" k2="-1" k3="1"/>
<feColorMatrix type="matrix" values="0 0 0 0 0.615686 0 0 0 0 0.364706 0 0 0 0 0.552941 0 0 0 1 0"/>
<feBlend mode="normal" in2="shape" result="effect1_innerShadow_20020_2239"/>
</filter>
<filter id="filter2_f_20020_2239" x="11.6923" y="12.865" width="14.7354" height="10.475" filterUnits="userSpaceOnUse" color-interpolation-filters="sRGB">
<feFlood flood-opacity="0" result="BackgroundImageFix"/>
<feBlend mode="normal" in="SourceGraphic" in2="BackgroundImageFix" result="shape"/>
<feGaussianBlur stdDeviation="1" result="effect1_foregroundBlur_20020_2239"/>
</filter>
<filter id="filter3_f_20020_2239" x="5.36172" y="8.45877" width="7.15784" height="9.17134" filterUnits="userSpaceOnUse" color-interpolation-filters="sRGB">
<feFlood flood-opacity="0" result="BackgroundImageFix"/>
<feBlend mode="normal" in="SourceGraphic" in2="BackgroundImageFix" result="shape"/>
<feGaussianBlur stdDeviation="0.5" result="effect1_foregroundBlur_20020_2239"/>
</filter>
<filter id="filter4_f_20020_2239" x="7.81384" y="8.23155" width="9.1279" height="11.1297" filterUnits="userSpaceOnUse" color-interpolation-filters="sRGB">
<feFlood flood-opacity="0" result="BackgroundImageFix"/>
<feBlend mode="normal" in="SourceGraphic" in2="BackgroundImageFix" result="shape"/>
<feGaussianBlur stdDeviation="1" result="effect1_foregroundBlur_20020_2239"/>
</filter>
<filter id="filter5_f_20020_2239" x="15.7168" y="0.988327" width="11.372" height="22.9612" filterUnits="userSpaceOnUse" color-interpolation-filters="sRGB">
<feFlood flood-opacity="0" result="BackgroundImageFix"/>
<feBlend mode="normal" in="SourceGraphic" in2="BackgroundImageFix" result="shape"/>
<feGaussianBlur stdDeviation="1" result="effect1_foregroundBlur_20020_2239"/>
</filter>
<filter id="filter6_f_20020_2239" x="7.20355" y="8.99622" width="3.86029" height="6.98431" filterUnits="userSpaceOnUse" color-interpolation-filters="sRGB">
<feFlood flood-opacity="0" result="BackgroundImageFix"/>
<feBlend mode="normal" in="SourceGraphic" in2="BackgroundImageFix" result="shape"/>
<feGaussianBlur stdDeviation="0.625" result="effect1_foregroundBlur_20020_2239"/>
</filter>
<filter id="filter7_f_20020_2239" x="11.6157" y="7.5231" width="5.19342" height="8.95743" filterUnits="userSpaceOnUse" color-interpolation-filters="sRGB">
<feFlood flood-opacity="0" result="BackgroundImageFix"/>
<feBlend mode="normal" in="SourceGraphic" in2="BackgroundImageFix" result="shape"/>
<feGaussianBlur stdDeviation="0.875" result="effect1_foregroundBlur_20020_2239"/>
</filter>
<filter id="filter8_f_20020_2239" x="15.7216" y="12.7603" width="11.5528" height="9.79694" filterUnits="userSpaceOnUse" color-interpolation-filters="sRGB">
<feFlood flood-opacity="0" result="BackgroundImageFix"/>
<feBlend mode="normal" in="SourceGraphic" in2="BackgroundImageFix" result="shape"/>
<feGaussianBlur stdDeviation="1" result="effect1_foregroundBlur_20020_2239"/>
</filter>
<linearGradient id="paint0_linear_20020_2239" x1="18.3053" y1="12.2373" x2="25.014" y2="3.04525" gradientUnits="userSpaceOnUse">
<stop stop-color="#815942"/>
<stop offset="1" stop-color="#BE937A"/>
</linearGradient>
<radialGradient id="paint1_radial_20020_2239" cx="0" cy="0" r="1" gradientUnits="userSpaceOnUse" gradientTransform="translate(23.2975 10.5525) rotate(-145.784) scale(7.55811 20.3298)">
<stop offset="0.549602" stop-color="#8F7664" stop-opacity="0"/>
<stop offset="1" stop-color="#8F7664"/>
</radialGradient>
<radialGradient id="paint2_radial_20020_2239" cx="0" cy="0" r="1" gradientUnits="userSpaceOnUse" gradientTransform="translate(20.1123 11.3288) rotate(146.31) scale(1.74138 14.1268)">
<stop offset="0.330855" stop-color="#6C4538"/>
<stop offset="1" stop-color="#261716" stop-opacity="0"/>
<stop offset="1" stop-color="#6C4538" stop-opacity="0"/>
</radialGradient>
<radialGradient id="paint3_radial_20020_2239" cx="0" cy="0" r="1" gradientUnits="userSpaceOnUse" gradientTransform="translate(20.0022 11.8973) rotate(155.556) scale(1.18271 9.59468)">
<stop offset="0.478621" stop-color="#846250"/>
<stop offset="0.652069" stop-color="#846250" stop-opacity="0"/>
</radialGradient>
<radialGradient id="paint4_radial_20020_2239" cx="0" cy="0" r="1" gradientUnits="userSpaceOnUse" gradientTransform="translate(19.1835 14.561) rotate(-90) scale(3.26935 1.63468)">
<stop stop-color="#B79276"/>
<stop offset="1" stop-color="#B79276" stop-opacity="0"/>
</radialGradient>
<radialGradient id="paint5_radial_20020_2239" cx="0" cy="0" r="1" gradientUnits="userSpaceOnUse" gradientTransform="translate(25.7965 2.22667) rotate(128.409) scale(3.53833 4.6463)">
<stop offset="0.14637" stop-color="#C8A384"/>
<stop offset="1" stop-color="#C8A384" stop-opacity="0"/>
</radialGradient>
<radialGradient id="paint6_radial_20020_2239" cx="0" cy="0" r="1" gradientUnits="userSpaceOnUse" gradientTransform="translate(6.67387 14.2898) rotate(47.2168) scale(13.7105 19.2649)">
<stop stop-color="#90665F"/>
<stop offset="1" stop-color="#90665F" stop-opacity="0"/>
</radialGradient>
<radialGradient id="paint7_radial_20020_2239" cx="0" cy="0" r="1" gradientUnits="userSpaceOnUse" gradientTransform="translate(20.6903 20.4997) rotate(180) scale(5.53125 2.78125)">
<stop stop-color="#B5877E"/>
<stop offset="1" stop-color="#B5877E" stop-opacity="0"/>
</radialGradient>
<radialGradient id="paint8_radial_20020_2239" cx="0" cy="0" r="1" gradientUnits="userSpaceOnUse" gradientTransform="translate(14.3508 29.6844) rotate(-85.8473) scale(8.48888 17.0016)">
<stop stop-color="#AE797E"/>
<stop offset="1" stop-color="#AE797E" stop-opacity="0"/>
</radialGradient>
<linearGradient id="paint9_linear_20020_2239" x1="5.80908" y1="13.115" x2="8.14124" y2="13.115" gradientUnits="userSpaceOnUse">
<stop stop-color="#90715B"/>
<stop offset="1" stop-color="#90715B" stop-opacity="0"/>
</linearGradient>
<radialGradient id="paint10_radial_20020_2239" cx="0" cy="0" r="1" gradientUnits="userSpaceOnUse" gradientTransform="translate(8.60016 10.2493) rotate(90) scale(6.14698 4.32661)">
<stop offset="0.613333" stop-color="#91596B" stop-opacity="0"/>
<stop offset="1" stop-color="#91596B"/>
</radialGradient>
<radialGradient id="paint11_radial_20020_2239" cx="0" cy="0" r="1" gradientUnits="userSpaceOnUse" gradientTransform="translate(10.86 12.4588) rotate(180) scale(1.375 3.75)">
<stop offset="0.423077" stop-color="#6C443E"/>
<stop offset="1" stop-color="#6C443E" stop-opacity="0"/>
</radialGradient>
<radialGradient id="paint12_radial_20020_2239" cx="0" cy="0" r="1" gradientUnits="userSpaceOnUse" gradientTransform="translate(13.1605 9.32216) rotate(90) scale(6.80191 4.23235)">
<stop offset="0.660912" stop-color="#935A6E" stop-opacity="0"/>
<stop offset="1" stop-color="#935A6E"/>
</radialGradient>
<linearGradient id="paint13_linear_20020_2239" x1="9.93015" y1="12.6201" x2="12.6936" y2="12.6201" gradientUnits="userSpaceOnUse">
<stop stop-color="#8C6F5B"/>
<stop offset="1" stop-color="#8C6F5B" stop-opacity="0"/>
</linearGradient>
<radialGradient id="paint14_radial_20020_2239" cx="0" cy="0" r="1" gradientUnits="userSpaceOnUse" gradientTransform="translate(15.5839 15.6374) rotate(-144.782) scale(1.42324 1.98119)">
<stop offset="0.174177" stop-color="#5C342E"/>
<stop offset="1" stop-color="#5C342E" stop-opacity="0"/>
</radialGradient>
<radialGradient id="paint15_radial_20020_2239" cx="0" cy="0" r="1" gradientUnits="userSpaceOnUse" gradientTransform="translate(23.3687 14.6602) rotate(110.535) scale(6.74046 15.6525)">
<stop offset="0.164913" stop-color="#B99272"/>
<stop offset="1" stop-color="#8C5165"/>
</radialGradient>
<linearGradient id="paint16_linear_20020_2239" x1="23.364" y1="22.9895" x2="23.364" y2="19.9122" gradientUnits="userSpaceOnUse">
<stop stop-color="#A57575"/>
<stop offset="1" stop-color="#A57575" stop-opacity="0"/>
</linearGradient>
<radialGradient id="paint17_radial_20020_2239" cx="0" cy="0" r="1" gradientUnits="userSpaceOnUse" gradientTransform="translate(14.6434 14.3721) rotate(35.0958) scale(3.093 6.55806)">
<stop stop-color="#8D6B54"/>
<stop offset="1" stop-color="#8D6B54" stop-opacity="0"/>
</radialGradient>
<radialGradient id="paint18_radial_20020_2239" cx="0" cy="0" r="1" gradientUnits="userSpaceOnUse" gradientTransform="translate(15.3725 17.6703) rotate(-32.6609) scale(1.0725 1.70121)">
<stop stop-color="#8F6361"/>
<stop offset="1" stop-color="#8F6361" stop-opacity="0"/>
</radialGradient>
<linearGradient id="paint19_linear_20020_2239" x1="9.4834" y1="14.3166" x2="9.4834" y2="10.2462" gradientUnits="userSpaceOnUse">
<stop stop-color="#BB968B"/>
<stop offset="1" stop-color="#B88B7E" stop-opacity="0"/>
</linearGradient>
<radialGradient id="paint20_radial_20020_2239" cx="0" cy="0" r="1" gradientUnits="userSpaceOnUse" gradientTransform="translate(8.2338 18.1185) rotate(-13.9694) scale(18.4763 19.3603)">
<stop offset="0.875703" stop-color="#C9A385" stop-opacity="0"/>
<stop offset="1" stop-color="#C9A385"/>
</radialGradient>
<radialGradient id="paint21_radial_20020_2239" cx="0" cy="0" r="1" gradientUnits="userSpaceOnUse" gradientTransform="translate(22.9864 17.9963) rotate(161.63) scale(17.4518 31.9359)">
<stop offset="0.808199" stop-color="#956468" stop-opacity="0"/>
<stop offset="1" stop-color="#956468"/>
</radialGradient>
<linearGradient id="paint22_linear_20020_2239" x1="17.6521" y1="15.7603" x2="27.22" y2="20.1252" gradientUnits="userSpaceOnUse">
<stop stop-color="#CFA590"/>
<stop offset="1" stop-color="#CFA590" stop-opacity="0"/>
</linearGradient>
<radialGradient id="paint23_radial_20020_2239" cx="0" cy="0" r="1" gradientUnits="userSpaceOnUse" gradientTransform="translate(18.2522 9.40382) rotate(-30.7355) scale(2.95382 14.0166)">
<stop stop-color="#774E37"/>
<stop offset="1" stop-color="#774E37" stop-opacity="0"/>
</radialGradient>
<radialGradient id="paint24_radial_20020_2239" cx="0" cy="0" r="1" gradientUnits="userSpaceOnUse" gradientTransform="translate(16.2712 1.83737) rotate(62.3978) scale(4.30828 6.44728)">
<stop stop-color="#90725D"/>
<stop offset="1" stop-color="#90725D" stop-opacity="0"/>
</radialGradient>
</defs>
</svg>
