<svg width="32" height="32" viewBox="0 0 32 32" fill="none" xmlns="http://www.w3.org/2000/svg">
<path d="M21.6816 4C20.0734 3.35975 18.1837 3 15.9989 3C13.8141 3 11.9243 3.35975 10.3161 4H6.30949C8.7554 2.0972 12.0052 1 15.9989 1C19.9926 1 23.2424 2.0972 25.6883 4H21.6816Z" fill="#212121"/>
<path d="M3.00017 15.9192L3 15.9989C3 19.6691 4.10595 22.9087 6.23462 25.2202C8.35088 27.5182 11.5681 28.9978 15.9989 28.9978C20.4296 28.9978 23.6469 27.5182 25.7631 25.2202C27.8918 22.9087 28.9978 19.6691 28.9978 15.9989L28.9976 15.921C29.7505 15.3187 30.383 14.5892 30.8704 13.7723C30.9555 14.5011 30.9978 15.2448 30.9978 15.9989C30.9978 20.06 29.7715 23.8199 27.2343 26.575C24.6848 29.3436 20.9026 30.9978 15.9989 30.9978C11.0952 30.9978 7.313 29.3436 4.76342 26.575C2.22626 23.8199 1 20.06 1 15.9989C1 15.2437 1.0424 14.499 1.12775 13.7691C1.61485 14.5865 2.24725 15.3165 3.00017 15.9192Z" fill="#212121"/>
<path d="M11.8141 18.4193C11.4967 17.9741 10.8792 17.866 10.4291 18.179C9.97563 18.4943 9.86364 19.1175 10.179 19.5709L10.1804 19.573L10.182 19.5752L10.1855 19.5802L10.1943 19.5925C10.2009 19.6016 10.209 19.6126 10.2186 19.6253C10.2379 19.6508 10.2633 19.6834 10.2951 19.722C10.3588 19.7992 10.4482 19.9008 10.5652 20.0183C10.7992 20.2532 11.1447 20.5527 11.616 20.8477C12.5664 21.4426 13.9991 22 16 22C18.0008 22 19.4335 21.4426 20.384 20.8477C20.8553 20.5527 21.2007 20.2532 21.4347 20.0183C21.5518 19.9008 21.6412 19.7992 21.7048 19.722C21.7366 19.6834 21.7621 19.6508 21.7814 19.6253L21.7941 19.6082L21.8057 19.5925L21.8145 19.5802L21.818 19.5752L21.8196 19.573L21.821 19.5709C22.1362 19.1175 22.0243 18.4943 21.5709 18.179C21.1207 17.866 20.5033 17.9741 20.1859 18.4193C20.183 18.4231 20.1748 18.4338 20.1615 18.4499C20.135 18.4821 20.0876 18.5368 20.0178 18.6068C19.8783 18.7469 19.6505 18.9474 19.3229 19.1524C18.6757 19.5575 17.6084 20 16 20C14.3916 20 13.3243 19.5575 12.6771 19.1524C12.3495 18.9474 12.1217 18.7469 11.9821 18.6068C11.9124 18.5368 11.865 18.4821 11.8384 18.4499C11.8252 18.4338 11.8169 18.4231 11.8141 18.4193Z" fill="#212121"/>
<path d="M11 5H5C2.79086 5 1 6.79086 1 9V9.67376C1 12.3252 2.49802 14.749 4.8695 15.9348L5.80534 16.4027C7.20729 17.1036 8.84913 17.1967 10.3252 16.6696C13.1112 15.6746 15 13.0253 15 10.067V10C15 9.44772 15.4477 9 16 9C16.5523 9 17 9.44772 17 10V10.067C17 13.0253 18.8888 15.6746 21.6748 16.6696C23.1509 17.1967 24.7927 17.1036 26.1947 16.4027L27.1305 15.9348C29.502 14.749 31 12.3252 31 9.67376V8.5C31 6.567 29.433 5 27.5 5H20.5C19.3759 5 18.3756 5.52992 17.7352 6.35357V6.35077C17.7206 6.36538 17.704 6.38241 17.6855 6.40134C17.4936 6.5976 17.1031 6.9969 16.7395 7H14.9957C14.6321 6.9969 14.2418 6.59771 14.0499 6.40145C14.0313 6.38249 14.0146 6.3654 14 6.35077V6.35418C13.2671 5.52376 12.1947 5 11 5ZM12.3891 10.2678C11.8033 10.8536 10.6953 10.6953 9.91421 9.91421C9.13317 9.13317 8.97487 8.02513 9.56066 7.43934C10.1464 6.85355 11.2545 7.01184 12.0355 7.79289C12.8166 8.57394 12.9749 9.68198 12.3891 10.2678ZM28.0355 7.79289C28.8166 8.57394 28.9749 9.68198 28.3891 10.2678C27.8033 10.8536 26.6953 10.6953 25.9142 9.91421C25.1332 9.13317 24.9749 8.02513 25.5607 7.43934C26.1464 6.85355 27.2545 7.01184 28.0355 7.79289Z" fill="#212121"/>
</svg>
