<svg xmlns="http://www.w3.org/2000/svg" width="32" height="32" fill="none"><path fill="#00D26A" d="m8 17.995-.03.024v-.029a10.983 10.983 0 0 0-3.378 4.914A11.149 11.149 0 0 0 4 26.5v3.47h.03v.01L6 30h2l1-6-1-6.005ZM22 30h4v-3.5c0-3.41-1.558-6.462-4-8.483L21 24l1 6ZM20 16.698 21 20l-1 3-5 1-5-1-1-3 1-3.317a10.958 10.958 0 0 1 4.99-1.193c1.803 0 3.506.436 5.01 1.208Z"/><path fill="#0084CE" d="M10 16.683c-.716.365-1.386.806-2 1.312V30h14V18.017a11.047 11.047 0 0 0-2-1.32V22.5a.5.5 0 0 1-.5.5h-9a.5.5 0 0 1-.5-.5v-5.817Z"/><path fill="#46A4FB" d="M11 27a1 1 0 0 1 1-1h6a1 1 0 0 1 1 1v3h-8v-3Z"/><path fill="#008463" d="m11.87 21.53 3.12-2.19 3.12 2.19c.37.26.88 0 .88-.46v-4.83c-1.24-.48-2.59-.75-4-.75-1.41 0-2.76.27-4 .75v4.84c0 .44.51.71.88.45Z"/><path fill="#fff" d="m15.91 19.68-.65.58c-.16.14-.39.14-.55 0l-.65-.58a3.449 3.449 0 0 1-1.14-2.55v-3.09c0-1.14.92-2.06 2.06-2.06 1.14 0 2.06.92 2.06 2.06v3.09c0 .97-.41 1.9-1.13 2.55Z"/><path fill="#FCB100" d="M14.99 18.66c-1.14 0-2.06-.92-2.06-2.06v-2.56c0-1.14.92-2.06 2.06-2.06 1.14 0 2.06.92 2.06 2.06v2.56a2.07 2.07 0 0 1-2.06 2.06Z"/><path fill="#7D4533" d="M20.475 4.99h.005a4.5 4.5 0 0 1 4.5 4.5c0 2.48-2.02 4.5-4.5 4.5H9.51a4.5 4.5 0 0 1-.03-9l1.02-.49-.23-.5a6.545 6.545 0 0 1 9.42 0l-.19.5.975.49Z"/><path fill="#533566" d="M20.476 4.99A6.712 6.712 0 0 0 19.69 4h-9.42c-.287.3-.552.633-.786.99H20.476Z"/><path fill="#F1A11E" d="m9.12 12.87.01-2.69c1.12-.03 2.24-.03 3.34-.03v5.43l-1.89-.65a2.19 2.19 0 0 1-1.46-2.06ZM17.5 15.59v-5.35c1.11.03 2.23.07 3.35.11v2.53c0 .93-.58 1.76-1.46 2.06l-1.89.65Z"/><path fill="#FDBB11" d="M11.76 10.58a1.67 1.67 0 1 1-3.34 0 1.67 1.67 0 0 1 3.34 0ZM21.55 10.58a1.67 1.67 0 1 1-3.34 0 1.67 1.67 0 0 1 3.34 0Z"/><path fill="#FFC83D" d="m20.23 8.95.01-.11c.04-1.09-.83-2.04-1.93-2.04h-6.5c-1.14 0-2.03.97-1.93 2.1l.3 4.65a3.948 3.948 0 0 0 3.92 3.43H16c1.98 0 3.66-1.47 3.92-3.43l.31-4.6Z"/><path fill="#fff" d="M11.18 10.27a1.417 1.417 0 0 1 2.77.07.23.23 0 0 1-.23.28h-2.27c-.19 0-.32-.17-.27-.35ZM18.82 10.27c-.15-.62-.71-1.08-1.38-1.08-.7 0-1.27.5-1.39 1.15-.03.15.08.28.23.28h2.27c.18 0 .31-.17.27-.35Z"/><path fill="#7D4533" d="M11.86 10.37c0-.5.41-.91.91-.91a.913.913 0 0 1 .88 1.15h-1.76a.986.986 0 0 1-.03-.24ZM18.14 10.37c0-.5-.41-.91-.91-.91-.51 0-.91.41-.91.91 0 .08.01.16.03.24h1.76c.02-.08.03-.16.03-.24Z"/><path fill="#000" d="M12.77 9.86c.29 0 .52.23.52.52 0 .08-.03.17-.06.24h-.92a.516.516 0 0 1 .46-.76ZM17.23 9.86a.516.516 0 0 0-.46.76h.92a.516.516 0 0 0-.46-.76Z"/><path fill="#fff" d="M12.61 10.02a.16.16 0 1 1-.32 0 .16.16 0 0 1 .32 0ZM17.11 10.02a.16.16 0 1 1-.32 0 .16.16 0 0 1 .32 0Z"/><path fill="#ED9200" d="m14.68 10.3-.53 1.71c-.11.35.15.7.52.7h.78c.37 0 .63-.35.52-.7l-.52-1.71a.403.403 0 0 0-.77 0Z"/><path fill="#990839" d="M15 13.68c-.54 0-1.05-.13-1.48-.36-.15-.08-.3.09-.21.23.36.55.98.92 1.69.92s1.33-.37 1.69-.92c.09-.14-.07-.3-.21-.23-.43.23-.94.36-1.48.36Z"/><path fill="#D37034" d="M11.332 8.344a.274.274 0 0 0 .336.432l.095-.062a2.264 2.264 0 0 1 1.405-.292.274.274 0 0 0 .064-.544 2.812 2.812 0 0 0-1.75.366l-.15.1ZM18.716 8.728a.274.274 0 0 0-.048-.384l-.002-.002-.002-.002-.01-.006a1.945 1.945 0 0 0-.136-.09 2.813 2.813 0 0 0-1.75-.366.274.274 0 0 0 .064.544 2.264 2.264 0 0 1 1.405.292c.034.02.06.037.076.049l.017.012.003.002c.119.092.29.07.383-.049Z"/><path fill="#F1A11E" d="M17.47 7.6h2.38c-.35-.48-.91-.8-1.54-.8h-2.55c.42.5 1.05.8 1.71.8Z"/><path fill="#F59F00" d="M27 23c.55 0 1 .41 1 .912V26h-2v-2.088c0-.502.44-.912 1-.912Z"/><path fill="#7D4533" d="M26 21.76h-1v4h1v-4Z"/><path fill="#D3D3D3" d="M28.46 10.99c-.269.02-.469.25-.469.52v4.45c0 .54-.409 1-.948 1.03-.57.03-1.049-.43-1.049-1v-4.48c0-.27-.2-.5-.469-.52a.496.496 0 0 0-.53.5v4.47c0 .54-.409 1-.948 1.03-.57.03-1.048-.43-1.048-1v-4.48c0-.27-.2-.5-.47-.52a.496.496 0 0 0-.529.5v7.08c0 .78.63 1.43 1.408 1.43h1.338v1.76c0 .12.1.22.22.22h1.068c.12 0 .22-.1.22-.22V20h1.338c.779 0 1.408-.65 1.408-1.43v-7.08a.51.51 0 0 0-.54-.5Z"/><path fill="#FFC83D" d="M24.21 24.76c-.374 0-.692.32-.7.72-.01.27.117.51.3.65a.765.765 0 0 0-.31.62c0 .26.118.49.31.62a.765.765 0 0 0-.31.62c0 .26.118.49.31.62-.192.14-.31.38-.3.65.008.42.326.74.7.74h3c.435 0 .79-.39.79-.87v-3.51c0-.48-.355-.87-.79-.87h-3v.01Z"/></svg>