<svg width="32" height="32" viewBox="0 0 32 32" fill="none" xmlns="http://www.w3.org/2000/svg">
<path d="M19.3858 9.58452L26.6806 2.20071C26.6938 2.18745 26.7096 2.16926 26.7275 2.14858C26.8181 2.04379 26.9642 1.87507 27.1199 1.96024C27.3521 2.08716 27.2853 2.33186 27.189 2.49335C26.3206 3.94884 26.2746 7.36886 29.6056 8.02646C29.7493 8.0594 29.8816 8.30247 29.661 8.52303C28.6114 9.57264 26.689 12.9977 29.9262 15.5941C30.0404 15.6567 30.1715 15.8261 29.7826 16.0029C29.7532 16.0162 29.7124 16.0328 29.6618 16.0532C28.8748 16.3717 25.7322 17.6434 26.8326 22.7094L26.6397 22.5165C27.2621 23.6665 27.3505 24.8207 26.2905 25.8807L26.246 25.9214L26.2073 25.957C25.5654 26.5472 24.5253 27.5036 22.7695 26.6559C17.7835 25.6158 16.5259 28.7235 16.2095 29.5055C16.189 29.5561 16.1725 29.597 16.1591 29.6263C15.9824 30.0152 15.813 29.8841 15.7503 29.77C13.1539 26.5327 9.72889 28.4552 8.67928 29.5048C8.45872 29.7253 8.21565 29.593 8.18271 29.4493C7.52511 26.1184 4.10509 26.1644 2.6496 27.0327C2.48811 27.129 2.24341 27.1958 2.11649 26.9637C2.03132 26.8079 2.20004 26.6619 2.30483 26.5712C2.32551 26.5533 2.3437 26.5376 2.35696 26.5243L9.74077 19.2296C9.74077 19.2296 10.2098 18.7604 10.8227 19.2517C12.9727 20.9755 14.5887 21.1682 15.5845 20.901C14.6869 19.9801 13.4118 18.7263 12.6455 17.9729C12.3722 17.7042 12.1636 17.4991 12.06 17.3955C11.7507 17.0862 11.8943 16.7658 12.6124 16.8431L15.4961 17.0751C15.9115 16.4829 16.8551 15.6425 17.2749 15.2963L16.9656 12.49C16.8219 11.7939 17.1533 11.6613 17.4738 11.9817L21.0263 15.5343C21.3365 14.5491 21.1943 12.8945 19.408 10.6664C18.9167 10.0536 19.3858 9.58452 19.3858 9.58452ZM18.9377 18.8594C18.6449 19.1522 18.6172 20.2626 19.0647 20.71C19.2194 20.8647 19.5398 21.0083 20.3132 20.2349C21.0866 19.4615 21.059 19.1467 20.8435 18.9312C20.5065 18.5942 19.3133 18.4838 18.9377 18.8594ZM17.9378 19.0969C17.7425 18.9016 17.426 18.9016 17.2307 19.0969C17.0354 19.2921 17.0354 19.6087 17.2307 19.804C17.426 19.9993 17.7425 19.9993 17.9378 19.804C18.1331 19.6087 18.1331 19.2921 17.9378 19.0969ZM19.9155 17.8265C20.1107 17.6312 20.1107 17.3146 19.9155 17.1193C19.7202 16.9241 19.4036 16.9241 19.2084 17.1193C19.0131 17.3146 19.0131 17.6312 19.2084 17.8265C19.4036 18.0217 19.7202 18.0217 19.9155 17.8265Z" fill="#212121"/>
</svg>
