<svg xmlns="http://www.w3.org/2000/svg" width="32" height="32" fill="none"><path fill="#00D26A" d="M18.762 21.174a.967.967 0 0 0-1.34-.28l-4.96 3.25 2.13-4.23c.24-.48.07-1.07-.4-1.32a.98.98 0 0 0-1.32.42l-2.15 4.26-.34-5.92a.97.97 0 0 0-1.02-.91.97.97 0 0 0-.91 1.02l.19 3.34c.08 1.4-.21 2.81-.84 4.06l-.97 1.93c-.32.64-.07 1.43.58 1.76l2.78 1.4c.64.32 1.43.07 1.76-.58l.97-1.93a7.906 7.906 0 0 1 2.76-3.09l2.8-1.84c.45-.29.58-.89.28-1.34Z"/><path fill="#008463" d="M26.362 12.384c.93-3.71-.79-7.69-4.35-9.49a8.363 8.363 0 0 0-10.21 2.15c-2.79-.66-5.78.64-7.12 3.32a6.34 6.34 0 0 0 6.23 9.17 3.937 3.937 0 0 0 5.96 3.01c.59.98 1.46 1.81 2.56 2.36a6.34 6.34 0 0 0 8.52-2.81c1.33-2.68.6-5.86-1.59-7.71Z"/></svg>