<svg width="32" height="32" viewBox="0 0 32 32" fill="none" xmlns="http://www.w3.org/2000/svg">
<path d="M19.382 29.9439C19.9535 30.4052 20.6656 30.6571 21.4001 30.658H21.4031C21.5706 30.6569 21.7377 30.6428 21.9031 30.616L28.3121 29.616C28.7309 29.5511 29.1327 29.4038 29.4943 29.1827C29.8559 28.9617 30.1701 28.6712 30.4188 28.328C30.6675 27.9848 30.8458 27.5958 30.9433 27.1833C31.0409 26.7709 31.0557 26.3432 30.9871 25.925L28.1331 6.11299C28.0677 5.49964 27.7778 4.93211 27.3193 4.51953C26.8608 4.10696 26.2659 3.87846 25.6491 3.87799H6.34906C5.73847 3.87871 5.14926 4.10285 4.69258 4.50813C4.2359 4.91342 3.94333 5.47182 3.87006 6.07799L1.01106 25.93C0.885322 26.7633 1.09216 27.6127 1.58695 28.295C2.08175 28.9772 2.82487 29.4376 3.65606 29.577L10.0621 30.577C10.8774 30.7071 11.7116 30.5193 12.3925 30.0522C13.0733 29.5851 13.5489 28.8745 13.7211 28.067L15.2881 20.26H16.7111L18.2581 28.122C18.4139 28.8397 18.8105 29.4826 19.382 29.9439ZM18.0118 18.6978C17.6696 18.4137 17.2389 18.2581 16.7941 18.258L16.7891 18.265H15.2251C14.7824 18.2842 14.3557 18.4357 14.0001 18.7C13.6595 18.9793 13.4263 19.368 13.3401 19.8L11.7671 27.655C11.7005 27.9601 11.5195 28.2282 11.2613 28.404C11.0031 28.5797 10.6874 28.6499 10.3791 28.6L3.97906 27.6C3.66735 27.546 3.38922 27.372 3.20433 27.1153C3.01943 26.8587 2.94251 26.5397 2.99006 26.227L4.69555 14.3601C5.1408 14.0738 5.55952 13.7421 5.94445 13.3679C7.40218 11.951 8.26583 10.0324 8.35996 8.00173H13.6544L11.9021 14.45C11.8685 14.5891 11.8904 14.7359 11.9632 14.8591C12.036 14.9824 12.154 15.0724 12.2921 15.11C12.3623 15.1344 12.4368 15.1437 12.5108 15.1375C12.5848 15.1312 12.6567 15.1094 12.7217 15.0736C12.7868 15.0378 12.8436 14.9887 12.8885 14.9295C12.9333 14.8703 12.9652 14.8023 12.9821 14.73L14.8105 8.00173H17.1895L19.0179 14.73C19.0348 14.8023 19.0667 14.8703 19.1115 14.9295C19.1564 14.9887 19.2132 15.0378 19.2783 15.0736C19.3433 15.1094 19.4152 15.1312 19.4892 15.1375C19.5632 15.1437 19.6377 15.1344 19.7079 15.11C19.846 15.0724 19.964 14.9824 20.0368 14.8591C20.1096 14.7359 20.1315 14.5891 20.0979 14.45L18.3456 8.00173H23.6201C23.7192 10.0288 24.585 11.9425 26.0422 13.3552C26.4309 13.732 26.854 14.0657 27.3039 14.3531L29.0191 26.22V26.244C29.0451 26.4018 29.04 26.5632 29.0041 26.719C28.9491 26.9538 28.8252 27.1669 28.6482 27.3308C28.4713 27.4948 28.2494 27.6021 28.0111 27.639L21.5971 28.639C21.2927 28.6879 20.9811 28.6196 20.7251 28.448C20.469 28.2764 20.2875 28.0141 20.2171 27.714L18.6681 19.814C18.5862 19.3768 18.3541 18.982 18.0118 18.6978ZM27.1092 13.0059C26.9767 12.8964 26.848 12.7818 26.7232 12.662C25.4449 11.4357 24.6791 9.77034 24.5801 8.00173H26.3859L27.1092 13.0059ZM4.88975 13.0088L5.60937 8.00173H7.39995C7.3059 9.77388 6.54225 11.4442 5.26346 12.6747C5.14315 12.7905 5.01835 12.902 4.88975 13.0088ZM15.2251 20.264V20.258H15.2321L15.2251 20.264Z" fill="#212121"/>
</svg>
